<?xml version="1.0" encoding="UTF-8"?>
<svg width="250px" height="300px" viewBox="0 0 250 300" version="1.1" xmlns="http://www.w3.org/2000/svg" xmlns:xlink="http://www.w3.org/1999/xlink">
    <!-- Generator: Sketch 64 (93537) - https://sketch.com -->
    <title>106</title>
    <desc>Created with Sketch.</desc>
    <g id="106" stroke="none" stroke-width="1" fill="none" fill-rule="evenodd">
        <g id="Group-9" transform="translate(-1.000000, 0.000000)">
            <g id="Group-4">
                <path d="M84.1588,7.7379 L83.6168,7.4389 C83.3148,7.2719 82.8758,6.8579 82.6268,6.5029 C81.8208,5.3579 80.8218,4.4579 80.0248,4.1599 C79.1348,3.8259 78.6358,3.8189 77.9508,4.1299 C77.4698,4.3489 76.1388,4.6789 74.2878,5.0399 C73.2918,5.2339 72.6738,5.0959 70.1378,4.1169 C69.3128,3.7989 68.7768,3.5159 68.6898,3.3539 C68.5998,3.1859 68.5838,2.6839 68.6398,1.9209 C68.7138,0.9449 68.6948,0.7189 68.5318,0.5829 C68.3058,0.3959 68.0028,0.5159 67.3748,1.0379 C66.6128,1.6729 65.4318,2.1319 63.6558,2.4849 C63.2348,2.5689 62.8328,2.6809 62.7628,2.7359 C62.6918,2.7899 62.3148,2.9249 61.9258,3.0369 C61.5358,3.1489 60.8748,3.4609 60.4568,3.7309 C60.0388,4.0009 59.3228,4.4389 58.8658,4.7049 C58.4088,4.9699 57.5398,5.6709 56.9338,6.2619 C56.0258,7.1469 55.7628,7.3359 55.4308,7.3359 C54.9798,7.3359 54.6068,6.8669 54.4688,6.1279 C54.3078,5.2739 53.5568,4.9279 51.6478,4.8279 C50.0648,4.7459 49.8508,4.8569 48.8568,6.2759 C48.4728,6.8229 47.8088,7.6679 47.3818,8.1519 C46.9548,8.6359 46.4038,9.3909 46.1588,9.8289 C45.9138,10.2679 45.5058,10.8089 45.2508,11.0319 C44.7658,11.4579 43.5358,12.0619 43.1528,12.0619 C43.0298,12.0619 42.5258,11.6889 42.0328,11.2319 C40.9508,10.2299 40.9358,10.2289 38.6188,10.8499 C37.7058,11.0939 36.8658,11.2949 36.7528,11.2949 C36.4328,11.2959 35.0298,9.2219 34.2448,7.5909 C33.1878,5.3949 32.9098,5.1849 32.1458,6.0039 C31.5498,6.6449 31.1148,6.8389 30.1598,6.8919 C29.7028,6.9169 29.3038,6.9649 29.2698,6.9969 C29.1688,7.0989 29.5628,7.7559 30.2988,8.7069 C31.0958,9.7399 31.3178,10.3559 31.1518,11.0809 C30.8818,12.2679 30.2618,12.3589 29.2548,11.3599 C28.8648,10.9729 28.4768,10.6569 28.3918,10.6569 C28.1978,10.6569 27.8308,11.4169 27.7328,12.0189 L27.6588,12.4739 L25.0268,12.4189 C23.0188,12.3769 22.2878,12.3169 21.9388,12.1649 C21.2108,11.8479 20.7328,11.1449 20.2728,9.7119 C20.0448,9.0019 19.7968,8.3399 19.7218,8.2409 C19.4698,7.9069 18.5508,7.5989 17.2118,7.3979 C16.4788,7.2879 15.5358,7.1089 15.1138,6.9989 C13.9668,6.7009 13.3478,6.8149 12.7068,7.4429 C11.7588,8.3709 10.9938,8.5299 9.3118,8.1509 C8.8078,8.0369 8.3608,7.9789 8.3178,8.0219 C8.1698,8.1709 8.5368,9.0909 8.9508,9.6069 C9.1798,9.8919 9.7108,10.5239 10.1328,11.0099 C10.5548,11.4959 10.9888,12.0619 11.0988,12.2669 C11.3698,12.7719 12.6448,13.4329 13.8038,13.6699 C14.3128,13.7739 14.8708,13.9619 15.0418,14.0859 C15.5468,14.4539 15.8708,15.2269 15.9258,16.1969 C15.9888,17.3149 15.7778,17.9559 15.1638,18.5109 C14.6218,19.0009 14.0628,19.1479 13.0978,19.0549 C12.5138,18.9989 12.3788,18.9259 11.9218,18.4219 C11.2648,17.6959 11.0638,17.5929 10.0878,17.4829 C8.8948,17.3479 8.5768,17.0739 7.9828,15.6679 C7.4688,14.4489 6.4118,13.0879 6.1198,13.2679 C6.0428,13.3169 5.9798,13.7309 5.9788,14.2089 C5.9758,15.9029 5.7868,16.2989 4.6388,17.0119 C4.3588,17.1869 3.9348,17.5099 3.6998,17.7299 C3.1618,18.2319 2.0068,19.9369 1.1528,21.4879 L0.4998,22.6759 L0.8008,22.7899 C0.9668,22.8529 1.4238,22.8709 1.8168,22.8299 C2.3778,22.7729 2.5318,22.7949 2.5328,22.9339 C2.5328,23.0319 2.5938,23.3269 2.6668,23.5909 C2.7718,23.9729 2.8608,24.0699 3.1028,24.0699 C3.4278,24.0699 3.6598,23.8209 4.2218,22.8689 C4.6598,22.1289 5.1348,21.8709 5.4038,22.2279 C5.5068,22.3629 5.5918,22.6849 5.5938,22.9449 C5.5958,23.2039 5.6598,23.4549 5.7358,23.5019 C5.8128,23.5489 6.1488,23.2909 6.4838,22.9279 C7.0488,22.3179 7.1158,22.2799 7.4168,22.4169 C7.7428,22.5659 7.8918,23.0129 7.8948,23.8459 C7.8958,24.0389 7.9338,24.1969 7.9808,24.1969 C8.0268,24.1969 8.2708,24.0389 8.5238,23.8459 C8.9558,23.5159 9.0738,23.4919 10.5018,23.4519 C11.8008,23.4149 12.1428,23.4489 12.8648,23.6899 C13.3298,23.8439 13.8958,24.0839 14.1248,24.2219 C14.5088,24.4549 14.5398,24.5239 14.5398,25.1509 C14.5398,26.0299 14.6638,26.1219 15.6108,25.9469 C16.4468,25.7939 16.3958,25.7619 17.3878,27.0549 C17.5868,27.3129 18.0768,27.6889 18.4858,27.8949 C19.4298,28.3719 19.7248,28.8769 19.4488,29.5389 C19.2278,30.0669 19.2958,30.2009 19.7798,30.2009 C20.1008,30.2009 20.1678,30.1359 20.2818,29.7139 C20.6378,28.3889 22.1028,28.2519 22.8478,29.4739 C23.1738,30.0069 23.1638,30.4339 22.8188,30.8009 C22.6528,30.9789 22.5878,31.1409 22.6588,31.2039 C22.7248,31.2609 23.2668,31.4349 23.8648,31.5899 C25.5848,32.0339 26.5828,32.8079 26.3558,33.5219 C26.2458,33.8699 25.3848,34.0799 24.4838,33.9779 C23.0868,33.8199 23.4028,34.3419 25.2248,35.2029 C26.4478,35.7799 26.7018,35.8019 27.2098,35.3749 C27.4178,35.1989 27.6658,35.0559 27.7608,35.0559 C27.8548,35.0559 28.2528,35.3489 28.6448,35.7069 C29.4758,36.4669 29.5238,36.7149 29.0408,37.7579 C28.8658,38.1339 28.6588,38.7309 28.5788,39.0859 C28.4378,39.7119 28.4488,39.7589 28.9528,40.7609 C29.4478,41.7469 29.4958,41.7989 30.0368,41.9339 C30.7338,42.1099 30.9598,42.4279 31.2268,43.6139 C31.4498,44.5989 31.4508,44.5999 32.9158,44.8309 C33.5878,44.9369 33.9568,45.2719 33.9568,45.7769 C33.9568,46.2029 33.5558,46.5819 32.8628,46.8099 C32.3758,46.9709 32.3458,47.0349 32.5958,47.3769 C32.7608,47.6039 32.7938,47.6019 33.5778,47.3379 C35.4928,46.6909 36.2778,47.2869 35.6928,48.9439 C35.4298,49.6919 35.5378,49.7689 36.7788,49.7219 L37.8518,49.6819 L38.0668,50.1289 C38.3618,50.7419 38.2548,51.1169 37.5208,52.0229 C37.1768,52.4489 36.8938,52.8499 36.8938,52.9149 C36.8938,52.9799 37.1778,53.1509 37.5228,53.2939 C38.7608,53.8089 38.8628,54.6429 37.8648,56.0709 C37.5418,56.5329 37.2778,56.9359 37.2778,56.9659 C37.2778,57.1089 38.0678,57.3919 38.8748,57.5379 C40.0338,57.7489 40.6748,58.0059 40.9688,58.3799 C41.2118,58.6889 41.1918,59.0739 40.8788,60.1569 C40.7888,60.4669 40.8398,60.6809 41.1418,61.2819 C41.5238,62.0369 41.5598,62.5659 41.2988,63.5749 C41.1408,64.1839 41.4118,64.3529 42.4008,64.2609 C43.0078,64.2039 43.2868,64.2269 43.3768,64.3409 C43.6098,64.6349 43.9398,65.8339 43.8578,66.0909 C43.7758,66.3509 43.1198,66.6039 42.5148,66.6089 C41.8618,66.6139 41.8048,66.8159 42.3578,67.1639 C42.6428,67.3439 42.9218,67.5639 42.9758,67.6519 C43.0298,67.7399 43.0838,68.2289 43.0938,68.7369 L43.1118,69.6619 L44.2058,70.8489 C44.8068,71.5029 45.6518,72.4099 46.0818,72.8669 C46.5128,73.3239 46.8958,73.8219 46.9358,73.9739 C46.9758,74.1259 46.9078,74.4629 46.7848,74.7219 C46.5888,75.1339 46.5808,75.2709 46.7218,75.8219 C46.9408,76.6739 46.7758,76.8849 45.9788,76.7769 C45.5478,76.7169 45.3538,76.7499 45.1768,76.9099 C44.8308,77.2229 44.8828,77.4129 45.4988,78.0779 C46.1258,78.7549 46.3468,79.1219 46.3468,79.4859 C46.3468,79.6229 46.5458,79.8859 46.7888,80.0709 C47.1978,80.3839 47.2318,80.4649 47.2668,81.2039 L47.3048,82.0009 L47.9668,82.3549 C48.5118,82.6469 48.6668,82.8109 48.8478,83.2859 C49.0958,83.9339 49.5388,84.3569 50.4598,84.8229 C50.8648,85.0289 51.2308,85.3499 51.4958,85.7329 C51.7208,86.0589 52.1428,86.5989 52.4358,86.9339 C52.8298,87.3839 53.0068,87.7249 53.1148,88.2459 C53.2758,89.0239 53.2388,88.9989 55.2888,89.6679 C55.6988,89.8019 56.1718,90.0769 56.4248,90.3289 C56.8438,90.7459 56.8538,90.7849 56.7868,91.5369 C56.7288,92.1619 56.7628,92.3909 56.9608,92.7139 C57.0948,92.9339 57.2048,93.3199 57.2048,93.5709 C57.2058,94.1099 57.5088,94.4339 58.3548,94.8029 C58.6718,94.9399 59.0078,95.1469 59.1018,95.2619 C59.2168,95.3999 59.3048,96.0489 59.3628,97.1849 C59.4228,98.3489 59.5078,98.9669 59.6278,99.1129 C59.8848,99.4219 60.3808,99.6449 61.0318,99.7449 C61.3458,99.7929 61.9108,100.0089 62.2878,100.2249 C62.9988,100.6319 62.9908,100.6309 64.3288,100.3809 C64.6868,100.3129 64.8218,100.3709 65.2948,100.7959 C65.5968,101.0679 66.1088,101.4439 66.4338,101.6329 C66.7598,101.8209 67.1188,102.1189 67.2338,102.2949 C67.4358,102.6039 67.4228,102.6519 66.7948,103.8159 C65.9598,105.3639 65.9408,105.7639 66.6678,106.5519 C66.9548,106.8629 67.2738,107.3219 67.3788,107.5729 C67.5608,108.0089 67.5548,108.0429 67.2578,108.3629 C66.7968,108.8579 66.6578,109.1929 66.6598,109.8079 C66.6628,110.6299 66.8808,110.9449 67.5838,111.1489 C68.3068,111.3589 68.5278,111.6549 68.6478,112.5739 C68.7308,113.2009 68.8078,113.3259 69.5958,114.1079 C70.3828,114.8859 70.4628,115.0149 70.5408,115.6279 C70.6098,116.1639 70.7208,116.3959 71.1008,116.7899 C71.5258,117.2299 71.6798,117.2989 72.5458,117.4359 C73.4458,117.5779 73.5798,117.6419 74.4468,118.3489 C74.9608,118.7669 75.4318,119.1099 75.4968,119.1099 C75.5598,119.1099 75.7858,119.0199 75.9978,118.9099 C76.6598,118.5679 76.9998,118.7049 77.6008,119.5569 C77.8988,119.9779 78.3758,120.7729 78.6598,121.3229 C79.0958,122.1649 79.1768,122.4439 79.1768,123.0879 C79.1768,123.5089 79.2418,123.9789 79.3208,124.1319 C79.3998,124.2849 79.9378,124.8999 80.5158,125.4969 C81.6488,126.6679 81.7928,126.9519 81.9718,128.3849 C82.1008,129.4109 82.1968,129.6339 82.9098,130.5709 C83.2348,130.9979 83.4248,131.3869 83.4368,131.6519 C83.4538,132.0149 83.3938,132.0959 82.9638,132.3019 C82.5048,132.5219 82.4848,132.5519 82.6768,132.7629 C82.7898,132.8879 82.8818,133.1109 82.8818,133.2579 C82.8818,133.4049 82.9818,133.5519 83.1048,133.5839 C83.2278,133.6159 83.5148,133.6489 83.7438,133.6569 L84.6378,133.8319 L84.6358,133.5559 C84.6688,133.7949 84.7058,133.8799 84.7478,133.8799 C84.9648,133.8799 85.4218,134.1799 85.7628,134.5479 C86.2388,135.0619 86.3238,135.3239 86.1338,135.6809 C85.7858,136.3299 85.7488,136.2829 87.1638,136.9459 C88.0878,137.3789 88.6568,137.8779 89.2108,138.7409 C90.1828,140.2579 90.6668,140.6779 91.6798,140.8929 C92.6568,141.1009 93.1438,141.6239 92.9718,142.2809 C92.8688,142.6749 93.0198,142.7949 93.7718,142.9159 C94.2818,142.9979 95.1588,143.3819 95.7208,143.7689 C96.3668,144.2139 97.2128,144.5209 98.0198,144.6049 C99.1888,144.7259 99.3048,144.7979 99.3798,145.4479 C99.4358,145.9449 99.7508,146.3419 100.4228,146.7659 C101.7808,147.6229 102.7028,148.8099 102.8698,149.9189 C102.9498,150.4419 103.1418,151.2139 103.2978,151.6349 C103.4538,152.0569 103.6118,152.7829 103.6488,153.2479 C103.6868,153.7129 103.9008,154.2969 104.1268,154.5459 C104.6058,155.0749 104.6408,155.5939 104.2548,156.4419 C104.0138,156.9699 104.0708,157.1529 104.6608,157.7419 C105.0728,158.1549 105.2868,158.5869 105.1958,158.8239 C104.7568,159.9689 104.7508,160.4929 105.1728,160.9599 C105.5398,161.3649 105.5668,161.5849 105.3358,162.2509 C105.0848,162.9709 105.1708,163.2949 106.1778,165.3919 C106.7938,166.6789 107.5388,167.8759 107.8328,168.0519 C108.1268,168.2299 108.3668,168.5209 108.3668,168.7009 C108.3668,168.8809 108.6028,169.4839 108.8908,170.0399 C109.2148,170.6649 109.3638,171.3189 109.2818,171.7489 C109.1848,172.2539 109.4648,173.0499 110.2908,174.6299 C110.9198,175.8309 111.4328,176.9939 111.4328,177.2149 C111.4328,177.4359 111.8928,178.1389 112.4548,178.7779 C113.3878,179.8369 113.4768,180.0639 113.4768,181.3719 C113.4768,182.2059 113.6998,183.3909 114.0118,184.2099 C114.6618,185.9219 114.5578,186.7359 113.4628,188.4979 C112.6708,189.7709 112.6458,189.8839 112.9588,190.8299 C113.2408,191.6849 113.2288,191.9039 112.8778,192.4059 C112.6478,192.7349 112.5308,193.2369 112.6098,193.5519 C112.6868,193.8619 112.5608,194.6739 112.3278,195.3579 C111.7608,197.0279 112.1538,198.3209 113.4878,199.1629 C114.3928,199.7339 114.4258,199.8069 114.5818,201.6659 C114.7748,203.9519 114.4618,205.0949 113.5788,205.3169 C112.8918,205.4889 112.8578,205.6079 113.2208,206.5649 C113.5158,207.3399 113.1708,208.2249 112.5738,208.2249 C112.3678,208.2249 112.1998,208.4089 112.1998,208.6329 C112.1998,208.8569 112.0168,209.6689 111.7938,210.4359 C111.4998,211.4489 111.2258,211.8929 110.7968,212.0569 C109.9988,212.3599 109.8288,212.7019 110.2858,213.0819 C110.4958,213.2559 110.6668,213.6639 110.6668,213.9899 C110.6668,214.3159 110.7818,214.6539 110.9228,214.7399 C111.3028,214.9749 111.2308,215.9179 110.7978,216.3979 C110.5878,216.6289 110.2608,217.2699 110.0698,217.8229 C109.7548,218.7349 109.6228,218.8419 108.6478,218.9739 C107.9698,219.0669 107.3278,219.3679 106.9028,219.7929 C106.2938,220.4029 106.2568,220.5489 106.5048,221.3569 C106.8048,222.3379 106.5068,222.8099 105.3648,223.1579 C104.5758,223.3989 104.5288,225.1849 105.3018,225.5979 C105.5828,225.7489 105.8118,226.0299 105.8118,226.2249 C105.8118,226.4189 106.1138,226.7969 106.4818,227.0649 L107.1518,227.5529 L106.7178,229.3219 C106.4778,230.2949 106.1938,231.5509 106.0848,232.1129 C105.9118,232.9999 105.6378,233.7889 104.6648,236.2009 C104.5518,236.4819 104.4858,236.9829 104.5188,237.3139 C104.5548,237.6749 104.3128,238.1929 103.9128,238.6109 C103.2688,239.2819 103.2568,239.3519 103.5558,240.6479 C103.7778,241.6099 103.7888,242.1139 103.5938,242.4269 C103.4428,242.6669 103.2408,243.4399 103.1438,244.1449 C102.9938,245.2409 103.0868,245.7199 103.7888,247.4559 C104.3418,248.8229 104.6298,249.9949 104.6718,251.0459 C104.7048,251.9039 104.8888,252.8809 105.0808,253.2169 C105.2918,253.5879 105.4328,254.6349 105.4388,255.8729 C105.4458,257.0579 105.6018,258.2629 105.8118,258.7409 C106.1598,259.5299 106.1428,259.5979 105.4188,260.3549 C104.7448,261.0599 104.6628,261.3179 104.6668,262.7419 C104.6698,263.8209 104.8148,264.5579 105.1138,265.0149 C105.3578,265.3869 105.5568,266.0989 105.5568,266.5979 C105.5568,267.3499 105.6988,267.5899 106.3878,267.9969 C107.8538,268.8669 107.9308,268.9999 107.7658,270.3909 C107.6488,271.3839 107.7208,271.8529 108.0878,272.4609 C108.7208,273.5119 109.0098,279.0639 108.4798,280.0269 C108.2528,280.4419 108.1848,281.0929 108.2808,281.9479 C108.4788,283.7149 108.0718,284.1039 106.0288,284.1039 C104.6428,284.1039 104.3768,284.1959 103.3008,285.0489 C101.1328,286.7659 100.9908,287.1709 102.5548,287.1709 C103.5488,287.1709 103.6838,287.2529 104.1518,288.1289 C104.5818,288.9329 104.8258,289.1079 105.6848,289.2219 C107.0608,289.4069 107.2978,289.5919 107.4928,290.6339 C107.5848,291.1249 107.9048,291.6969 108.2058,291.9069 C108.6948,292.2509 108.7508,292.5299 108.7518,294.6469 C108.7528,297.3149 109.0858,298.3769 110.1088,298.9819 C110.4938,299.2089 111.0328,299.6429 111.3078,299.9469 L111.8088,300.4999 L112.1958,299.9169 C113.8048,297.4889 116.4608,294.2709 117.2288,293.8179 C118.9638,292.7949 119.2858,292.8419 123.4068,294.7249 L127.2178,296.4659 L127.3438,297.5789 C127.4118,298.1909 127.5298,298.7539 127.6048,298.8289 C127.7388,298.9619 133.0988,297.5239 133.3298,297.2939 C133.3928,297.2299 133.1388,295.6639 132.7658,293.8119 C132.3918,291.9609 132.1248,290.4219 132.1718,290.3919 C132.2178,290.3629 132.9448,290.1729 133.7878,289.9679 C135.5388,289.5439 135.4818,289.7159 134.9838,286.3579 C134.5898,283.7009 133.6338,281.5499 132.8448,281.5459 C131.9758,281.5399 131.7018,281.2669 131.5588,280.2759 C131.4558,279.5549 131.5758,279.2149 132.1848,278.4879 C132.5988,277.9939 133.2488,276.8559 133.6288,275.9599 C134.2218,274.5589 134.4568,274.2749 135.2988,273.9399 C136.1928,273.5829 136.2988,273.5859 136.5138,273.9719 C136.9828,274.8089 138.9438,274.2679 139.6268,273.1129 C140.0558,272.3839 140.0538,272.3109 139.5468,271.1649 C139.2568,270.5089 139.0618,269.9299 139.1148,269.8779 C139.1668,269.8259 139.5008,269.8929 139.8568,270.0279 C140.5948,270.3089 145.0238,269.9649 146.3628,269.5229 L147.2008,269.2459 L147.2008,267.3059 C147.2008,265.2829 147.5728,264.4289 148.4538,264.4319 C148.6788,264.4329 149.6948,264.1859 150.7138,263.8839 C151.9538,263.5169 152.5658,263.2079 152.5658,262.9489 C152.5658,262.7369 152.1458,260.3169 151.6328,257.5709 C150.7988,253.1149 150.7318,252.4549 151.0078,251.4249 C151.1768,250.7909 151.4378,250.1249 151.5878,249.9449 C151.9418,249.5159 154.0528,248.9109 160.7318,247.3199 C163.7478,246.6009 166.2418,245.9869 166.2738,245.9549 C166.3058,245.9229 166.7338,244.9569 167.2258,243.8079 L168.1198,241.7199 L166.2198,239.5459 C165.1738,238.3499 164.3178,237.2999 164.3178,237.2129 C164.3178,237.1259 165.1418,236.0049 166.2338,234.7959 L168.5338,232.2499 L168.5318,232.2279 C168.9208,231.8019 172.8118,227.1819 172.8118,227.1449 C172.8118,227.1229 171.8878,226.3679 170.7578,225.4669 C169.6278,224.5659 168.6318,223.7659 168.5448,223.6909 C168.5128,223.6629 168.4868,223.6509 168.4668,223.6899 L168.4698,223.6449 L166.7178,222.2779 C164.1368,220.2179 163.9928,219.4739 165.6848,216.9249 C167.3768,214.3769 167.4758,213.9039 166.6368,212.4079 C166.2518,211.7229 165.2678,209.2089 164.4508,206.8199 C162.9748,202.5059 162.9678,202.4699 163.3728,201.5189 L163.7808,200.5609 L165.9828,200.5609 L168.1838,200.5609 L168.1028,199.8579 C168.0398,199.3019 168.5758,199.2339 168.0078,199.1689 C167.3958,199.0989 166.5988,198.8899 166.6668,198.3069 C166.7278,197.7749 166.9008,197.6049 167.4478,197.5419 L168.4058,197.3969 L168.4058,197.3719 L169.1718,197.2619 C169.5938,197.2019 170.1418,196.9949 170.3908,196.8029 C171.5708,195.8899 172.6128,195.5939 175.6748,195.3029 C177.3138,195.1469 178.7008,195.0199 178.7558,195.0199 C178.8108,195.0199 178.9838,194.8919 179.1388,194.7359 C179.3428,194.5329 179.4238,194.0989 179.4238,193.2239 L179.4238,191.9949 L181.4558,191.7809 C182.5738,191.6629 183.7528,191.5209 184.0758,191.4669 C184.6238,191.3729 184.6628,191.4009 184.6688,191.8829 C184.6728,192.1679 184.7478,193.2119 184.8368,194.2049 C184.9768,195.7809 185.0538,196.0569 185.4338,196.3849 C185.6758,196.5919 185.9288,196.9869 185.9978,197.2609 C186.1048,197.6919 185.9818,197.9259 185.1218,198.9339 C184.5708,199.5789 184.1208,200.1719 184.1208,200.2509 C184.1208,200.3299 184.2428,200.6869 184.3908,201.0439 C184.5408,201.4009 184.6628,202.0229 184.6628,202.4269 C184.6628,202.8509 184.8518,203.5359 185.1128,204.0499 L185.5628,204.9379 L184.6128,205.9859 C183.0488,207.7099 183.0888,207.5619 184.0498,208.0999 C184.8848,208.5659 184.9008,208.5679 185.4538,208.2449 C186.0138,207.9179 186.2528,207.5619 186.6668,206.4299 C186.8348,205.9709 187.1158,205.7149 187.8458,205.3569 C188.7498,204.9139 188.8228,204.9039 189.1408,205.1929 C189.5778,205.5869 189.7028,205.5769 190.2018,205.1089 L190.6148,204.7199 L189.9548,203.4639 L189.2948,202.2059 L189.7278,201.8789 C190.1578,201.5549 190.1588,201.5439 189.8508,200.8989 C189.6798,200.5399 189.5408,200.2159 189.5408,200.1789 C189.5408,200.1419 189.8918,199.9059 190.3228,199.6539 C191.4798,198.9749 191.6068,198.7689 191.2678,198.1129 C191.1128,197.8119 190.9848,197.4889 190.9848,197.3939 C190.9848,197.2999 191.4438,196.9639 192.0038,196.6469 C192.8048,196.1959 193.0548,196.1239 193.1708,196.3129 C193.2528,196.4449 193.9118,198.0359 194.6368,199.8479 C195.3608,201.6609 196.0038,203.1459 196.0638,203.1459 C196.1248,203.1479 196.2268,202.7049 196.2908,202.1619 C196.4508,200.8029 196.6648,200.3809 198.0228,198.7479 L199.2048,197.3279 L200.1028,197.4349 C200.9318,197.5329 201.1118,197.6519 202.4398,198.9799 L203.8788,200.4189 L203.3038,201.3439 C202.9868,201.8529 202.7278,202.3289 202.7278,202.4019 C202.7278,202.5949 204.0168,203.7949 204.4768,204.0309 C204.6948,204.1419 205.1058,204.2329 205.3928,204.2329 C206.2988,204.2329 207.7718,204.7649 208.0408,205.1889 C208.1798,205.4079 208.3878,206.1649 208.5028,206.8699 C208.6188,207.5749 208.8128,208.5439 208.9348,209.0239 L209.1578,209.8959 L209.9628,209.9099 C210.7018,209.9229 210.7718,209.9639 210.8238,210.4209 L210.8248,210.4209 C210.8558,210.6939 210.9228,210.9169 210.9728,210.9169 C211.0888,210.9169 215.0068,210.0269 215.3848,209.9149 C215.6338,209.8409 215.5978,209.4019 215.0858,206.1739 C214.7658,204.1629 214.5168,202.5129 214.5328,202.5079 C214.5488,202.5039 214.7888,202.4019 215.0658,202.2819 C215.8558,201.9429 216.0628,202.0149 216.4448,202.7629 L216.8018,203.4609 L218.3908,202.9139 C219.2648,202.6119 220.0148,202.3389 220.0568,202.3049 C220.0988,202.2709 219.9428,201.6349 219.7098,200.8909 C219.4758,200.1469 219.3288,199.4949 219.3828,199.4419 C219.4358,199.3879 219.7418,199.2689 220.0618,199.1769 C220.5738,199.0309 220.7048,199.0709 221.1248,199.4989 C221.3878,199.7679 221.9288,200.1509 222.3258,200.3489 C223.1758,200.7739 223.8648,201.7219 223.8648,202.4649 C223.8648,203.4809 224.5558,204.6349 225.7868,205.6769 L226.9598,206.6689 L226.4578,207.0689 C226.1818,207.2889 225.9938,207.4999 226.0398,207.5369 C226.0858,207.5749 227.1538,208.1469 228.4148,208.8089 L230.7068,210.0119 L230.6288,209.4259 C230.5548,208.8729 230.6568,208.7499 232.4218,207.2659 L234.2928,205.6929 L235.5858,206.2359 C236.8878,206.7829 238.8748,207.1189 240.8198,207.1219 C241.5348,207.1229 242.0108,206.9979 242.6468,206.6399 L243.5078,206.1559 L244.6608,206.7539 L245.8138,207.3509 L247.7578,206.5909 C249.3078,205.9839 249.7988,205.7029 250.1808,205.2019 L250.6608,204.5729 L250.2858,204.1979 L249.9108,203.8239 L249.5348,204.5609 L249.1588,205.2989 L248.2088,205.0239 C247.6858,204.8719 246.9468,204.5889 246.5638,204.3939 C245.6388,203.9229 244.8868,203.9179 243.9838,204.3799 C243.2678,204.7449 243.2248,204.7469 242.9448,204.4379 C242.7838,204.2599 242.6528,203.9909 242.6528,203.8409 C242.6528,203.4159 242.0908,203.0069 241.2508,202.8179 C240.8308,202.7229 240.1998,202.3949 239.8498,202.0869 C239.4998,201.7799 239.0188,201.4799 238.7818,201.4209 C238.4188,201.3289 238.1488,200.9049 238.1378,200.4089 C238.1378,200.3419 238.3808,200.2339 238.6788,200.1689 C239.3158,200.0289 239.3168,200.0189 238.7608,199.0849 C238.5228,198.6869 238.1988,198.0869 238.0398,197.7509 L237.7508,197.1409 L237.1668,197.7059 C236.3698,198.4789 235.9038,198.4389 235.3128,197.5459 C235.0488,197.1469 234.6608,196.7859 234.4518,196.7429 C234.2428,196.7009 233.7868,196.6159 233.4388,196.5539 C232.9528,196.4679 232.5808,196.1779 231.8238,195.2969 C230.6888,193.9749 230.5118,193.5879 230.5858,192.5969 L230.6388,191.8779 L232.8968,191.4059 C235.4328,190.8759 235.5938,190.7329 234.7128,189.7899 C234.2248,189.2679 234.1768,189.1179 234.2778,188.4529 C234.3418,188.0409 234.4028,187.6889 234.4148,187.6709 C234.4278,187.6529 234.8308,187.7219 235.3108,187.8249 C236.5448,188.0879 236.6508,187.9149 236.1768,186.4039 C235.9638,185.7279 235.7148,184.7269 235.6218,184.1809 C235.5288,183.6339 235.3758,182.8889 235.2818,182.5249 C235.1798,182.1339 235.1708,181.2829 235.2588,180.4469 C235.3408,179.6689 235.4118,178.9819 235.4168,178.9209 C235.4228,178.8599 235.5978,178.5919 235.8068,178.3259 C236.1568,177.8819 236.1928,177.5699 236.2528,174.5249 C236.3068,171.7349 236.2748,171.1919 236.0528,171.1059 C235.8828,171.0409 235.7878,170.7519 235.7878,170.2959 C235.7878,169.7369 235.5658,169.2489 234.7398,167.9869 C234.1638,167.1069 233.6358,166.2939 233.5668,166.1809 C233.4088,165.9179 235.2778,164.4889 235.7798,164.4889 C236.2208,164.4889 236.2278,164.4429 235.8768,163.7629 C235.4298,162.8989 234.6508,162.6489 233.7218,163.0709 C233.3808,163.2269 233.2898,163.3769 233.3618,163.6649 C233.4448,163.9929 233.3198,164.1019 232.5058,164.4049 C231.9808,164.5999 231.5068,164.7819 231.4498,164.8079 C231.3928,164.8339 231.0298,164.1129 230.6408,163.2059 C229.9998,161.7089 229.9618,161.5359 230.2318,161.3389 C230.5078,161.1379 230.5048,161.0239 230.1918,159.8079 C230.0058,159.0859 229.8278,158.4689 229.7948,158.4379 C229.7628,158.4059 229.3088,158.4649 228.7878,158.5679 C227.9838,158.7279 227.8398,158.8179 227.8398,159.1579 C227.8398,159.5239 227.6428,159.6069 225.7168,160.0539 C224.5488,160.3249 222.9868,160.6979 222.2458,160.8839 C221.5038,161.0689 220.8778,161.2019 220.8548,161.1779 C220.8318,161.1549 220.4568,159.8389 220.0218,158.2519 C219.3288,155.7219 219.1818,155.3589 218.8388,155.3089 C218.5318,155.2639 218.4418,155.1239 218.4328,154.6759 C218.4218,154.1319 218.4108,154.1229 218.2238,154.5089 C218.0298,154.9119 217.4718,155.0589 217.2848,154.7569 C217.2308,154.6709 216.4138,154.7659 215.4688,154.9679 C214.5228,155.1719 213.7078,155.2959 213.6578,155.2459 C213.6068,155.1949 213.4318,154.4699 213.2688,153.6339 C213.1068,152.7989 212.9218,152.0549 212.8568,151.9819 C212.7938,151.9089 212.2978,152.0179 211.7548,152.2249 C211.2118,152.4319 210.2588,152.7929 209.6378,153.0279 L208.5088,153.4539 L207.8768,152.5159 C207.5288,151.9999 207.2448,151.4859 207.2448,151.3739 C207.2448,151.2619 207.7218,151.0689 208.3048,150.9459 C208.8878,150.8219 209.4478,150.6689 209.5518,150.6049 C209.6598,150.5379 209.7858,149.2719 209.8518,147.5979 C209.9148,146.0089 210.0098,144.2809 210.0628,143.7589 C210.1588,142.8359 210.1758,142.8109 210.7348,142.8079 C211.7648,142.8029 211.7768,142.7349 211.1798,140.1899 C210.8788,138.8989 210.6058,137.8139 210.5748,137.7789 C210.5438,137.7429 209.6598,137.8159 208.6098,137.9409 L206.7028,138.1669 L206.7028,139.1129 C206.7028,140.1519 206.5548,140.2739 205.3028,140.2799 C204.7358,140.2819 204.7158,140.2559 204.7158,139.5509 C204.7158,139.1489 204.5818,138.2889 204.4188,137.6389 L204.1218,136.4579 L203.5288,136.5689 C202.8518,136.6959 202.8278,136.6529 202.6398,135.0029 L202.5228,133.9689 L203.0438,134.1509 C203.4268,134.2839 204.1488,134.2379 205.7848,133.9759 C207.0068,133.7799 208.0458,133.5789 208.0958,133.5299 C208.2608,133.3649 207.5618,129.7249 207.2848,129.3009 C207.0688,128.9709 206.0028,123.2159 205.9838,122.2779 C205.9818,122.1599 206.5258,121.9709 207.2318,121.8449 C207.9208,121.7219 208.5658,121.5709 208.6658,121.5089 C208.7848,121.4349 208.6338,119.8789 208.2328,117.0639 C207.5328,112.1359 207.2648,110.6889 207.0238,110.5399 C206.9308,110.4829 205.7558,110.7459 204.4098,111.1259 C202.0878,111.7809 201.4648,112.1269 202.0058,112.4609 C202.1368,112.5419 202.1948,112.7709 202.1378,112.9849 C202.0798,113.2089 202.1408,113.4219 202.2868,113.5039 C202.5978,113.6779 202.4258,114.4479 202.0748,114.4479 C201.8848,114.4479 201.8248,114.7669 201.8248,115.7809 L201.8248,117.1139 L200.6048,117.4169 C199.9348,117.5839 199.2638,117.8679 199.1148,118.0499 C198.9668,118.2319 198.5378,118.4339 198.1638,118.5009 C197.5118,118.6159 197.4788,118.5969 197.3708,118.0549 C197.2628,117.5219 197.2218,117.4949 196.6378,117.6049 C196.2968,117.6689 195.9188,117.7589 195.7978,117.8059 C195.6498,117.8629 195.3628,117.1559 194.9308,115.6729 L194.2848,113.4549 L194.7328,112.8519 C195.1788,112.2559 195.1798,112.2399 194.8968,111.2479 C194.7408,110.6969 194.5768,110.2109 194.5338,110.1679 C194.3538,109.9879 193.1528,110.3499 193.1528,110.5839 C193.1528,110.7229 192.9718,110.8369 192.7468,110.8369 C192.5228,110.8379 192.0518,110.8869 191.6978,110.9459 L191.0558,111.0509 L190.3618,107.4659 C189.9808,105.4929 189.6328,103.7819 189.5888,103.6619 C189.5328,103.5129 189.2778,103.5899 188.7738,103.9069 C188.3718,104.1619 187.7298,104.4629 187.3498,104.5769 C186.8468,104.7269 186.4228,105.0759 185.7968,105.8539 C185.3218,106.4429 184.8318,106.9569 184.7078,106.9979 C184.5348,107.0539 184.4818,106.5379 184.4818,104.8079 L184.4818,102.5439 L183.1888,103.9339 C182.4778,104.6989 181.7138,105.5189 181.4898,105.7559 L181.0838,106.1859 L180.8188,105.6649 C180.5078,105.0549 180.5128,103.1649 180.8268,102.5939 C181.1658,101.9769 180.8698,101.9509 180.0848,102.5289 C179.2138,103.1689 179.1238,103.1819 178.9658,102.6859 C178.8718,102.3879 179.0338,102.1129 179.7008,101.4349 L180.5558,100.5659 L180.4188,99.6039 C180.3428,99.0739 180.2708,98.2279 180.2588,97.7219 L180.2368,96.8039 L179.2828,97.2249 C178.7588,97.4579 178.2568,97.6469 178.1678,97.6469 C178.0088,97.6469 175.6298,93.1239 175.6298,92.8209 C175.6298,92.7359 176.5278,92.2229 177.6258,91.6819 C179.2038,90.9029 179.6518,90.7489 179.7728,90.9429 C179.8708,91.1019 179.9708,90.7939 180.0548,90.0729 C180.1758,89.0309 180.2538,88.8829 181.2328,87.8439 L182.2828,86.7309 L181.9368,86.0539 C181.5038,85.2039 181.5048,85.1809 181.9978,85.1809 C182.2628,85.1799 182.5148,84.9849 182.7218,84.6229 L183.0388,84.0659 L182.3148,84.1889 L181.5918,84.3109 L181.5918,83.6849 C181.5918,82.6889 181.7968,81.9299 182.0658,81.9299 C182.2488,81.9299 182.3138,81.6449 182.3138,80.8409 C182.3138,80.0579 182.3878,79.7229 182.5748,79.6509 C182.8578,79.5429 182.8588,79.5469 181.8048,77.1829 C181.3538,76.1709 181.3468,76.1069 181.6008,75.1049 C181.8478,74.1279 181.9258,74.0299 183.0248,73.3079 L184.1868,72.5439 L184.8738,70.3269 C185.2508,69.1079 185.5608,68.0169 185.5628,67.9019 C185.5648,67.7199 184.6748,67.2979 184.2888,67.2979 C184.2128,67.2979 183.9738,67.5819 183.7598,67.9289 C183.4438,68.4389 183.2568,68.5619 182.7898,68.5619 C182.3088,68.5619 182.0678,68.3909 181.3588,67.5489 C180.2638,66.2469 180.2428,65.7029 181.2178,63.9549 C182.2008,62.1899 183.0648,61.2509 184.1738,60.7439 C185.1778,60.2839 185.7468,59.8229 185.7468,59.4679 C185.7468,59.3049 185.3058,59.2929 183.9228,59.4189 C182.4908,59.5489 182.0678,59.5339 181.9548,59.3519 C181.8498,59.1829 181.7788,59.2239 181.6888,59.5049 C181.5268,60.0159 180.9788,59.9949 180.6328,59.4659 C180.4708,59.2189 180.1548,57.6529 179.8778,55.7169 C179.6148,53.8889 179.3258,52.2539 179.2338,52.0839 C179.1428,51.9139 178.9728,51.2029 178.8578,50.5039 L178.6478,49.2319 L177.2288,49.2319 C175.8138,49.2319 175.5678,49.3479 176.0818,49.7739 C176.5798,50.1879 176.3608,50.3159 175.1338,50.3279 C174.4628,50.3359 173.7518,50.4109 173.5528,50.4959 C173.3538,50.5819 173.2798,50.6569 173.3878,50.6639 C173.6628,50.6819 174.0038,51.4939 174.0038,52.1309 C174.0038,52.5789 173.9318,52.6639 173.5528,52.6639 C173.1768,52.6639 173.1008,52.7499 173.1008,53.1789 C173.1008,53.8839 172.0418,54.3839 170.9028,54.2149 C170.4718,54.1519 169.8448,54.1019 169.5088,54.1059 C169.1718,54.1099 168.7858,54.0209 168.6498,53.9079 C168.6378,53.8979 168.6258,53.9299 168.6138,54.0149 C168.5898,53.7929 168.5438,53.7829 168.4698,53.7639 C168.1888,53.6899 167.1288,52.9209 167.1288,52.7179 C167.1288,52.5159 167.0138,52.4209 166.8758,52.5069 C166.7358,52.5929 166.1758,52.3039 165.6298,51.8659 L164.6378,51.0689 L163.3288,51.8739 C162.6088,52.3169 161.9268,52.6399 161.8118,52.5929 C161.5508,52.4859 160.0348,50.7639 159.0978,49.5089 C158.6608,48.9229 158.4478,48.3899 158.5478,48.1309 C158.6998,47.7339 158.0778,46.7589 157.6718,46.7589 C157.5728,46.7589 157.0798,46.3709 156.5758,45.8959 L155.6598,45.0309 L156.0868,43.6949 L156.5138,42.3589 L155.7538,41.7369 L154.9928,41.1149 L155.7858,40.4249 C156.8828,39.4699 157.0458,38.5959 156.3528,37.3869 C156.0458,36.8509 155.7548,36.3609 155.7048,36.2969 C155.6548,36.2339 155.2158,36.2079 154.7278,36.2409 C154.2418,36.2739 153.8438,36.1819 153.8438,36.0369 C153.8438,35.6179 153.1258,35.7319 152.8688,36.1919 C152.5468,36.7679 150.9248,36.4529 150.4068,35.7139 C150.0258,35.1709 150.0088,35.1689 149.0578,35.6239 C148.5278,35.8779 147.4418,36.1309 146.6428,36.1869 L145.1918,36.2899 L144.8678,35.3929 C144.5738,34.5819 144.4508,34.4959 143.5728,34.4959 C142.8838,34.4959 142.6018,34.3859 142.6018,34.1159 C142.6018,33.8679 142.2348,33.6769 141.5458,33.5669 C140.9258,33.4679 140.1388,33.0909 139.6418,32.6549 C138.9468,32.0439 138.7038,31.9589 138.2888,32.1809 C137.8728,32.4039 137.7538,32.3609 137.6198,31.9419 C137.3698,31.1539 136.7988,31.3259 135.5088,32.5799 C134.8568,33.2129 134.1048,33.7299 133.8358,33.7299 C133.3668,33.7299 133.3648,33.7589 133.7818,34.3949 C134.2048,35.0409 134.1978,35.0789 133.5158,35.7909 C132.8308,36.5059 132.8158,36.5869 132.8458,39.4659 C132.8708,42.1109 132.8248,42.4349 132.3888,42.6679 C131.4558,43.1679 130.6348,42.9449 129.3408,41.8419 C128.1218,40.8019 127.2448,39.3889 126.4878,37.2459 C126.1658,36.3329 126.1818,36.2569 126.8708,35.5379 C127.5298,34.8509 127.5658,34.7159 127.2998,33.9499 C126.3018,31.0879 125.0188,31.3059 122.5738,34.7519 C121.8608,35.7559 121.6248,35.9109 120.7058,35.9789 C119.2828,36.0839 118.5308,35.3199 118.6378,33.8809 C118.7058,32.9869 118.8858,32.7429 120.2478,31.6939 C121.9738,30.3629 122.7598,29.0489 122.7598,27.4859 C122.7598,26.3139 122.2558,25.0989 121.5998,24.6929 C121.2608,24.4819 121.0308,24.5469 120.5608,24.9879 C119.8758,25.6329 119.5848,25.6709 118.4608,25.2649 C117.7068,24.9919 117.5668,25.0479 116.0578,26.2229 C112.9688,28.6299 112.7598,28.6959 110.8518,27.8789 C109.5478,27.3199 109.3888,27.0299 109.3888,25.2009 C109.3888,23.7449 109.0878,23.2549 108.1918,23.2549 C107.7798,23.2549 107.4098,23.5749 106.9368,24.3409 C106.0348,25.8039 105.6468,26.0659 104.3768,26.0659 C103.5018,26.0659 103.1888,25.9319 102.7448,25.3669 C102.1408,24.5989 102.1508,24.3359 102.8878,21.6649 C103.7008,18.7129 102.9298,17.7619 99.4198,17.3939 C98.2278,17.2689 96.7358,17.0309 96.1038,16.8649 C95.4718,16.6989 94.5368,16.4589 94.0268,16.3309 C92.8288,16.0319 89.4898,13.5699 88.7998,12.4769 C88.5058,12.0109 88.1168,11.1709 87.9348,10.6089 C87.4418,9.0769 87.0508,8.7479 84.9038,8.0669 L84.3838,7.8279" id="Fill-1" fill="#FFFFFF"></path>
                <path d="M84.1588,7.7379 L83.6168,7.4389 C83.3148,7.2719 82.8758,6.8579 82.6268,6.5029 C81.8208,5.3579 80.8218,4.4579 80.0248,4.1599 C79.1348,3.8259 78.6358,3.8189 77.9508,4.1299 C77.4698,4.3489 76.1388,4.6789 74.2878,5.0399 C73.2918,5.2339 72.6738,5.0959 70.1378,4.1169 C69.3128,3.7989 68.7768,3.5159 68.6898,3.3539 C68.5998,3.1859 68.5838,2.6839 68.6398,1.9209 C68.7138,0.9449 68.6948,0.7189 68.5318,0.5829 C68.3058,0.3959 68.0028,0.5159 67.3748,1.0379 C66.6128,1.6729 65.4318,2.1319 63.6558,2.4849 C63.2348,2.5689 62.8328,2.6809 62.7628,2.7359 C62.6918,2.7899 62.3148,2.9249 61.9258,3.0369 C61.5358,3.1489 60.8748,3.4609 60.4568,3.7309 C60.0388,4.0009 59.3228,4.4389 58.8658,4.7049 C58.4088,4.9699 57.5398,5.6709 56.9338,6.2619 C56.0258,7.1469 55.7628,7.3359 55.4308,7.3359 C54.9798,7.3359 54.6068,6.8669 54.4688,6.1279 C54.3078,5.2739 53.5568,4.9279 51.6478,4.8279 C50.0648,4.7459 49.8508,4.8569 48.8568,6.2759 C48.4728,6.8229 47.8088,7.6679 47.3818,8.1519 C46.9548,8.6359 46.4038,9.3909 46.1588,9.8289 C45.9138,10.2679 45.5058,10.8089 45.2508,11.0319 C44.7658,11.4579 43.5358,12.0619 43.1528,12.0619 C43.0298,12.0619 42.5258,11.6889 42.0328,11.2319 C40.9508,10.2299 40.9358,10.2289 38.6188,10.8499 C37.7058,11.0939 36.8658,11.2949 36.7528,11.2949 C36.4328,11.2959 35.0298,9.2219 34.2448,7.5909 C33.1878,5.3949 32.9098,5.1849 32.1458,6.0039 C31.5498,6.6449 31.1148,6.8389 30.1598,6.8919 C29.7028,6.9169 29.3038,6.9649 29.2698,6.9969 C29.1688,7.0989 29.5628,7.7559 30.2988,8.7069 C31.0958,9.7399 31.3178,10.3559 31.1518,11.0809 C30.8818,12.2679 30.2618,12.3589 29.2548,11.3599 C28.8648,10.9729 28.4768,10.6569 28.3918,10.6569 C28.1978,10.6569 27.8308,11.4169 27.7328,12.0189 L27.6588,12.4739 L25.0268,12.4189 C23.0188,12.3769 22.2878,12.3169 21.9388,12.1649 C21.2108,11.8479 20.7328,11.1449 20.2728,9.7119 C20.0448,9.0019 19.7968,8.3399 19.7218,8.2409 C19.4698,7.9069 18.5508,7.5989 17.2118,7.3979 C16.4788,7.2879 15.5358,7.1089 15.1138,6.9989 C13.9668,6.7009 13.3478,6.8149 12.7068,7.4429 C11.7588,8.3709 10.9938,8.5299 9.3118,8.1509 C8.8078,8.0369 8.3608,7.9789 8.3178,8.0219 C8.1698,8.1709 8.5368,9.0909 8.9508,9.6069 C9.1798,9.8919 9.7108,10.5239 10.1328,11.0099 C10.5548,11.4959 10.9888,12.0619 11.0988,12.2669 C11.3698,12.7719 12.6448,13.4329 13.8038,13.6699 C14.3128,13.7739 14.8708,13.9619 15.0418,14.0859 C15.5468,14.4539 15.8708,15.2269 15.9258,16.1969 C15.9888,17.3149 15.7778,17.9559 15.1638,18.5109 C14.6218,19.0009 14.0628,19.1479 13.0978,19.0549 C12.5138,18.9989 12.3788,18.9259 11.9218,18.4219 C11.2648,17.6959 11.0638,17.5929 10.0878,17.4829 C8.8948,17.3479 8.5768,17.0739 7.9828,15.6679 C7.4688,14.4489 6.4118,13.0879 6.1198,13.2679 C6.0428,13.3169 5.9798,13.7309 5.9788,14.2089 C5.9758,15.9029 5.7868,16.2989 4.6388,17.0119 C4.3588,17.1869 3.9348,17.5099 3.6998,17.7299 C3.1618,18.2319 2.0068,19.9369 1.1528,21.4879 L0.4998,22.6759 L0.8008,22.7899 C0.9668,22.8529 1.4238,22.8709 1.8168,22.8299 C2.3778,22.7729 2.5318,22.7949 2.5328,22.9339 C2.5328,23.0319 2.5938,23.3269 2.6668,23.5909 C2.7718,23.9729 2.8608,24.0699 3.1028,24.0699 C3.4278,24.0699 3.6598,23.8209 4.2218,22.8689 C4.6598,22.1289 5.1348,21.8709 5.4038,22.2279 C5.5068,22.3629 5.5918,22.6849 5.5938,22.9449 C5.5958,23.2039 5.6598,23.4549 5.7358,23.5019 C5.8128,23.5489 6.1488,23.2909 6.4838,22.9279 C7.0488,22.3179 7.1158,22.2799 7.4168,22.4169 C7.7428,22.5659 7.8918,23.0129 7.8948,23.8459 C7.8958,24.0389 7.9338,24.1969 7.9808,24.1969 C8.0268,24.1969 8.2708,24.0389 8.5238,23.8459 C8.9558,23.5159 9.0738,23.4919 10.5018,23.4519 C11.8008,23.4149 12.1428,23.4489 12.8648,23.6899 C13.3298,23.8439 13.8958,24.0839 14.1248,24.2219 C14.5088,24.4549 14.5398,24.5239 14.5398,25.1509 C14.5398,26.0299 14.6638,26.1219 15.6108,25.9469 C16.4468,25.7939 16.3958,25.7619 17.3878,27.0549 C17.5868,27.3129 18.0768,27.6889 18.4858,27.8949 C19.4298,28.3719 19.7248,28.8769 19.4488,29.5389 C19.2278,30.0669 19.2958,30.2009 19.7798,30.2009 C20.1008,30.2009 20.1678,30.1359 20.2818,29.7139 C20.6378,28.3889 22.1028,28.2519 22.8478,29.4739 C23.1738,30.0069 23.1638,30.4339 22.8188,30.8009 C22.6528,30.9789 22.5878,31.1409 22.6588,31.2039 C22.7248,31.2609 23.2668,31.4349 23.8648,31.5899 C25.5848,32.0339 26.5828,32.8079 26.3558,33.5219 C26.2458,33.8699 25.3848,34.0799 24.4838,33.9779 C23.0868,33.8199 23.4028,34.3419 25.2248,35.2029 C26.4478,35.7799 26.7018,35.8019 27.2098,35.3749 C27.4178,35.1989 27.6658,35.0559 27.7608,35.0559 C27.8548,35.0559 28.2528,35.3489 28.6448,35.7069 C29.4758,36.4669 29.5238,36.7149 29.0408,37.7579 C28.8658,38.1339 28.6588,38.7309 28.5788,39.0859 C28.4378,39.7119 28.4488,39.7589 28.9528,40.7609 C29.4478,41.7469 29.4958,41.7989 30.0368,41.9339 C30.7338,42.1099 30.9598,42.4279 31.2268,43.6139 C31.4498,44.5989 31.4508,44.5999 32.9158,44.8309 C33.5878,44.9369 33.9568,45.2719 33.9568,45.7769 C33.9568,46.2029 33.5558,46.5819 32.8628,46.8099 C32.3758,46.9709 32.3458,47.0349 32.5958,47.3769 C32.7608,47.6039 32.7938,47.6019 33.5778,47.3379 C35.4928,46.6909 36.2778,47.2869 35.6928,48.9439 C35.4298,49.6919 35.5378,49.7689 36.7788,49.7219 L37.8518,49.6819 L38.0668,50.1289 C38.3618,50.7419 38.2548,51.1169 37.5208,52.0229 C37.1768,52.4489 36.8938,52.8499 36.8938,52.9149 C36.8938,52.9799 37.1778,53.1509 37.5228,53.2939 C38.7608,53.8089 38.8628,54.6429 37.8648,56.0709 C37.5418,56.5329 37.2778,56.9359 37.2778,56.9659 C37.2778,57.1089 38.0678,57.3919 38.8748,57.5379 C40.0338,57.7489 40.6748,58.0059 40.9688,58.3799 C41.2118,58.6889 41.1918,59.0739 40.8788,60.1569 C40.7888,60.4669 40.8398,60.6809 41.1418,61.2819 C41.5238,62.0369 41.5598,62.5659 41.2988,63.5749 C41.1408,64.1839 41.4118,64.3529 42.4008,64.2609 C43.0078,64.2039 43.2868,64.2269 43.3768,64.3409 C43.6098,64.6349 43.9398,65.8339 43.8578,66.0909 C43.7758,66.3509 43.1198,66.6039 42.5148,66.6089 C41.8618,66.6139 41.8048,66.8159 42.3578,67.1639 C42.6428,67.3439 42.9218,67.5639 42.9758,67.6519 C43.0298,67.7399 43.0838,68.2289 43.0938,68.7369 L43.1118,69.6619 L44.2058,70.8489 C44.8068,71.5029 45.6518,72.4099 46.0818,72.8669 C46.5128,73.3239 46.8958,73.8219 46.9358,73.9739 C46.9758,74.1259 46.9078,74.4629 46.7848,74.7219 C46.5888,75.1339 46.5808,75.2709 46.7218,75.8219 C46.9408,76.6739 46.7758,76.8849 45.9788,76.7769 C45.5478,76.7169 45.3538,76.7499 45.1768,76.9099 C44.8308,77.2229 44.8828,77.4129 45.4988,78.0779 C46.1258,78.7549 46.3468,79.1219 46.3468,79.4859 C46.3468,79.6229 46.5458,79.8859 46.7888,80.0709 C47.1978,80.3839 47.2318,80.4649 47.2668,81.2039 L47.3048,82.0009 L47.9668,82.3549 C48.5118,82.6469 48.6668,82.8109 48.8478,83.2859 C49.0958,83.9339 49.5388,84.3569 50.4598,84.8229 C50.8648,85.0289 51.2308,85.3499 51.4958,85.7329 C51.7208,86.0589 52.1428,86.5989 52.4358,86.9339 C52.8298,87.3839 53.0068,87.7249 53.1148,88.2459 C53.2758,89.0239 53.2388,88.9989 55.2888,89.6679 C55.6988,89.8019 56.1718,90.0769 56.4248,90.3289 C56.8438,90.7459 56.8538,90.7849 56.7868,91.5369 C56.7288,92.1619 56.7628,92.3909 56.9608,92.7139 C57.0948,92.9339 57.2048,93.3199 57.2048,93.5709 C57.2058,94.1099 57.5088,94.4339 58.3548,94.8029 C58.6718,94.9399 59.0078,95.1469 59.1018,95.2619 C59.2168,95.3999 59.3048,96.0489 59.3628,97.1849 C59.4228,98.3489 59.5078,98.9669 59.6278,99.1129 C59.8848,99.4219 60.3808,99.6449 61.0318,99.7449 C61.3458,99.7929 61.9108,100.0089 62.2878,100.2249 C62.9988,100.6319 62.9908,100.6309 64.3288,100.3809 C64.6868,100.3129 64.8218,100.3709 65.2948,100.7959 C65.5968,101.0679 66.1088,101.4439 66.4338,101.6329 C66.7598,101.8209 67.1188,102.1189 67.2338,102.2949 C67.4358,102.6039 67.4228,102.6519 66.7948,103.8159 C65.9598,105.3639 65.9408,105.7639 66.6678,106.5519 C66.9548,106.8629 67.2738,107.3219 67.3788,107.5729 C67.5608,108.0089 67.5548,108.0429 67.2578,108.3629 C66.7968,108.8579 66.6578,109.1929 66.6598,109.8079 C66.6628,110.6299 66.8808,110.9449 67.5838,111.1489 C68.3068,111.3589 68.5278,111.6549 68.6478,112.5739 C68.7308,113.2009 68.8078,113.3259 69.5958,114.1079 C70.3828,114.8859 70.4628,115.0149 70.5408,115.6279 C70.6098,116.1639 70.7208,116.3959 71.1008,116.7899 C71.5258,117.2299 71.6798,117.2989 72.5458,117.4359 C73.4458,117.5779 73.5798,117.6419 74.4468,118.3489 C74.9608,118.7669 75.4318,119.1099 75.4968,119.1099 C75.5598,119.1099 75.7858,119.0199 75.9978,118.9099 C76.6598,118.5679 76.9998,118.7049 77.6008,119.5569 C77.8988,119.9779 78.3758,120.7729 78.6598,121.3229 C79.0958,122.1649 79.1768,122.4439 79.1768,123.0879 C79.1768,123.5089 79.2418,123.9789 79.3208,124.1319 C79.3998,124.2849 79.9378,124.8999 80.5158,125.4969 C81.6488,126.6679 81.7928,126.9519 81.9718,128.3849 C82.1008,129.4109 82.1968,129.6339 82.9098,130.5709 C83.2348,130.9979 83.4248,131.3869 83.4368,131.6519 C83.4538,132.0149 83.3938,132.0959 82.9638,132.3019 C82.5048,132.5219 82.4848,132.5519 82.6768,132.7629 C82.7898,132.8879 82.8818,133.1109 82.8818,133.2579 C82.8818,133.4049 82.9818,133.5519 83.1048,133.5839 C83.2278,133.6159 83.5148,133.6489 83.7438,133.6569 L84.6378,133.8319 L84.6358,133.5559 C84.6688,133.7949 84.7058,133.8799 84.7478,133.8799 C84.9648,133.8799 85.4218,134.1799 85.7628,134.5479 C86.2388,135.0619 86.3238,135.3239 86.1338,135.6809 C85.7858,136.3299 85.7488,136.2829 87.1638,136.9459 C88.0878,137.3789 88.6568,137.8779 89.2108,138.7409 C90.1828,140.2579 90.6668,140.6779 91.6798,140.8929 C92.6568,141.1009 93.1438,141.6239 92.9718,142.2809 C92.8688,142.6749 93.0198,142.7949 93.7718,142.9159 C94.2818,142.9979 95.1588,143.3819 95.7208,143.7689 C96.3668,144.2139 97.2128,144.5209 98.0198,144.6049 C99.1888,144.7259 99.3048,144.7979 99.3798,145.4479 C99.4358,145.9449 99.7508,146.3419 100.4228,146.7659 C101.7808,147.6229 102.7028,148.8099 102.8698,149.9189 C102.9498,150.4419 103.1418,151.2139 103.2978,151.6349 C103.4538,152.0569 103.6118,152.7829 103.6488,153.2479 C103.6868,153.7129 103.9008,154.2969 104.1268,154.5459 C104.6058,155.0749 104.6408,155.5939 104.2548,156.4419 C104.0138,156.9699 104.0708,157.1529 104.6608,157.7419 C105.0728,158.1549 105.2868,158.5869 105.1958,158.8239 C104.7568,159.9689 104.7508,160.4929 105.1728,160.9599 C105.5398,161.3649 105.5668,161.5849 105.3358,162.2509 C105.0848,162.9709 105.1708,163.2949 106.1778,165.3919 C106.7938,166.6789 107.5388,167.8759 107.8328,168.0519 C108.1268,168.2299 108.3668,168.5209 108.3668,168.7009 C108.3668,168.8809 108.6028,169.4839 108.8908,170.0399 C109.2148,170.6649 109.3638,171.3189 109.2818,171.7489 C109.1848,172.2539 109.4648,173.0499 110.2908,174.6299 C110.9198,175.8309 111.4328,176.9939 111.4328,177.2149 C111.4328,177.4359 111.8928,178.1389 112.4548,178.7779 C113.3878,179.8369 113.4768,180.0639 113.4768,181.3719 C113.4768,182.2059 113.6998,183.3909 114.0118,184.2099 C114.6618,185.9219 114.5578,186.7359 113.4628,188.4979 C112.6708,189.7709 112.6458,189.8839 112.9588,190.8299 C113.2408,191.6849 113.2288,191.9039 112.8778,192.4059 C112.6478,192.7349 112.5308,193.2369 112.6098,193.5519 C112.6868,193.8619 112.5608,194.6739 112.3278,195.3579 C111.7608,197.0279 112.1538,198.3209 113.4878,199.1629 C114.3928,199.7339 114.4258,199.8069 114.5818,201.6659 C114.7748,203.9519 114.4618,205.0949 113.5788,205.3169 C112.8918,205.4889 112.8578,205.6079 113.2208,206.5649 C113.5158,207.3399 113.1708,208.2249 112.5738,208.2249 C112.3678,208.2249 112.1998,208.4089 112.1998,208.6329 C112.1998,208.8569 112.0168,209.6689 111.7938,210.4359 C111.4998,211.4489 111.2258,211.8929 110.7968,212.0569 C109.9988,212.3599 109.8288,212.7019 110.2858,213.0819 C110.4958,213.2559 110.6668,213.6639 110.6668,213.9899 C110.6668,214.3159 110.7818,214.6539 110.9228,214.7399 C111.3028,214.9749 111.2308,215.9179 110.7978,216.3979 C110.5878,216.6289 110.2608,217.2699 110.0698,217.8229 C109.7548,218.7349 109.6228,218.8419 108.6478,218.9739 C107.9698,219.0669 107.3278,219.3679 106.9028,219.7929 C106.2938,220.4029 106.2568,220.5489 106.5048,221.3569 C106.8048,222.3379 106.5068,222.8099 105.3648,223.1579 C104.5758,223.3989 104.5288,225.1849 105.3018,225.5979 C105.5828,225.7489 105.8118,226.0299 105.8118,226.2249 C105.8118,226.4189 106.1138,226.7969 106.4818,227.0649 L107.1518,227.5529 L106.7178,229.3219 C106.4778,230.2949 106.1938,231.5509 106.0848,232.1129 C105.9118,232.9999 105.6378,233.7889 104.6648,236.2009 C104.5518,236.4819 104.4858,236.9829 104.5188,237.3139 C104.5548,237.6749 104.3128,238.1929 103.9128,238.6109 C103.2688,239.2819 103.2568,239.3519 103.5558,240.6479 C103.7778,241.6099 103.7888,242.1139 103.5938,242.4269 C103.4428,242.6669 103.2408,243.4399 103.1438,244.1449 C102.9938,245.2409 103.0868,245.7199 103.7888,247.4559 C104.3418,248.8229 104.6298,249.9949 104.6718,251.0459 C104.7048,251.9039 104.8888,252.8809 105.0808,253.2169 C105.2918,253.5879 105.4328,254.6349 105.4388,255.8729 C105.4458,257.0579 105.6018,258.2629 105.8118,258.7409 C106.1598,259.5299 106.1428,259.5979 105.4188,260.3549 C104.7448,261.0599 104.6628,261.3179 104.6668,262.7419 C104.6698,263.8209 104.8148,264.5579 105.1138,265.0149 C105.3578,265.3869 105.5568,266.0989 105.5568,266.5979 C105.5568,267.3499 105.6988,267.5899 106.3878,267.9969 C107.8538,268.8669 107.9308,268.9999 107.7658,270.3909 C107.6488,271.3839 107.7208,271.8529 108.0878,272.4609 C108.7208,273.5119 109.0098,279.0639 108.4798,280.0269 C108.2528,280.4419 108.1848,281.0929 108.2808,281.9479 C108.4788,283.7149 108.0718,284.1039 106.0288,284.1039 C104.6428,284.1039 104.3768,284.1959 103.3008,285.0489 C101.1328,286.7659 100.9908,287.1709 102.5548,287.1709 C103.5488,287.1709 103.6838,287.2529 104.1518,288.1289 C104.5818,288.9329 104.8258,289.1079 105.6848,289.2219 C107.0608,289.4069 107.2978,289.5919 107.4928,290.6339 C107.5848,291.1249 107.9048,291.6969 108.2058,291.9069 C108.6948,292.2509 108.7508,292.5299 108.7518,294.6469 C108.7528,297.3149 109.0858,298.3769 110.1088,298.9819 C110.4938,299.2089 111.0328,299.6429 111.3078,299.9469 L111.8088,300.4999 L112.1958,299.9169 C113.8048,297.4889 116.4608,294.2709 117.2288,293.8179 C118.9638,292.7949 119.2858,292.8419 123.4068,294.7249 L127.2178,296.4659 L127.3438,297.5789 C127.4118,298.1909 127.5298,298.7539 127.6048,298.8289 C127.7388,298.9619 133.0988,297.5239 133.3298,297.2939 C133.3928,297.2299 133.1388,295.6639 132.7658,293.8119 C132.3918,291.9609 132.1248,290.4219 132.1718,290.3919 C132.2178,290.3629 132.9448,290.1729 133.7878,289.9679 C135.5388,289.5439 135.4818,289.7159 134.9838,286.3579 C134.5898,283.7009 133.6338,281.5499 132.8448,281.5459 C131.9758,281.5399 131.7018,281.2669 131.5588,280.2759 C131.4558,279.5549 131.5758,279.2149 132.1848,278.4879 C132.5988,277.9939 133.2488,276.8559 133.6288,275.9599 C134.2218,274.5589 134.4568,274.2749 135.2988,273.9399 C136.1928,273.5829 136.2988,273.5859 136.5138,273.9719 C136.9828,274.8089 138.9438,274.2679 139.6268,273.1129 C140.0558,272.3839 140.0538,272.3109 139.5468,271.1649 C139.2568,270.5089 139.0618,269.9299 139.1148,269.8779 C139.1668,269.8259 139.5008,269.8929 139.8568,270.0279 C140.5948,270.3089 145.0238,269.9649 146.3628,269.5229 L147.2008,269.2459 L147.2008,267.3059 C147.2008,265.2829 147.5728,264.4289 148.4538,264.4319 C148.6788,264.4329 149.6948,264.1859 150.7138,263.8839 C151.9538,263.5169 152.5658,263.2079 152.5658,262.9489 C152.5658,262.7369 152.1458,260.3169 151.6328,257.5709 C150.7988,253.1149 150.7318,252.4549 151.0078,251.4249 C151.1768,250.7909 151.4378,250.1249 151.5878,249.9449 C151.9418,249.5159 154.0528,248.9109 160.7318,247.3199 C163.7478,246.6009 166.2418,245.9869 166.2738,245.9549 C166.3058,245.9229 166.7338,244.9569 167.2258,243.8079 L168.1198,241.7199 L166.2198,239.5459 C165.1738,238.3499 164.3178,237.2999 164.3178,237.2129 C164.3178,237.1259 165.1418,236.0049 166.2338,234.7959 L168.5338,232.2499 L168.5318,232.2279 C168.9208,231.8019 172.8118,227.1819 172.8118,227.1449 C172.8118,227.1229 171.8878,226.3679 170.7578,225.4669 C169.6278,224.5659 168.6318,223.7659 168.5448,223.6909 C168.5128,223.6629 168.4868,223.6509 168.4668,223.6899 L168.4698,223.6449 L166.7178,222.2779 C164.1368,220.2179 163.9928,219.4739 165.6848,216.9249 C167.3768,214.3769 167.4758,213.9039 166.6368,212.4079 C166.2518,211.7229 165.2678,209.2089 164.4508,206.8199 C162.9748,202.5059 162.9678,202.4699 163.3728,201.5189 L163.7808,200.5609 L165.9828,200.5609 L168.1838,200.5609 L168.1028,199.8579 C168.0398,199.3019 168.5758,199.2339 168.0078,199.1689 C167.3958,199.0989 166.5988,198.8899 166.6668,198.3069 C166.7278,197.7749 166.9008,197.6049 167.4478,197.5419 L168.4058,197.3969 L168.4058,197.3719 L169.1718,197.2619 C169.5938,197.2019 170.1418,196.9949 170.3908,196.8029 C171.5708,195.8899 172.6128,195.5939 175.6748,195.3029 C177.3138,195.1469 178.7008,195.0199 178.7558,195.0199 C178.8108,195.0199 178.9838,194.8919 179.1388,194.7359 C179.3428,194.5329 179.4238,194.0989 179.4238,193.2239 L179.4238,191.9949 L181.4558,191.7809 C182.5738,191.6629 183.7528,191.5209 184.0758,191.4669 C184.6238,191.3729 184.6628,191.4009 184.6688,191.8829 C184.6728,192.1679 184.7478,193.2119 184.8368,194.2049 C184.9768,195.7809 185.0538,196.0569 185.4338,196.3849 C185.6758,196.5919 185.9288,196.9869 185.9978,197.2609 C186.1048,197.6919 185.9818,197.9259 185.1218,198.9339 C184.5708,199.5789 184.1208,200.1719 184.1208,200.2509 C184.1208,200.3299 184.2428,200.6869 184.3908,201.0439 C184.5408,201.4009 184.6628,202.0229 184.6628,202.4269 C184.6628,202.8509 184.8518,203.5359 185.1128,204.0499 L185.5628,204.9379 L184.6128,205.9859 C183.0488,207.7099 183.0888,207.5619 184.0498,208.0999 C184.8848,208.5659 184.9008,208.5679 185.4538,208.2449 C186.0138,207.9179 186.2528,207.5619 186.6668,206.4299 C186.8348,205.9709 187.1158,205.7149 187.8458,205.3569 C188.7498,204.9139 188.8228,204.9039 189.1408,205.1929 C189.5778,205.5869 189.7028,205.5769 190.2018,205.1089 L190.6148,204.7199 L189.9548,203.4639 L189.2948,202.2059 L189.7278,201.8789 C190.1578,201.5549 190.1588,201.5439 189.8508,200.8989 C189.6798,200.5399 189.5408,200.2159 189.5408,200.1789 C189.5408,200.1419 189.8918,199.9059 190.3228,199.6539 C191.4798,198.9749 191.6068,198.7689 191.2678,198.1129 C191.1128,197.8119 190.9848,197.4889 190.9848,197.3939 C190.9848,197.2999 191.4438,196.9639 192.0038,196.6469 C192.8048,196.1959 193.0548,196.1239 193.1708,196.3129 C193.2528,196.4449 193.9118,198.0359 194.6368,199.8479 C195.3608,201.6609 196.0038,203.1459 196.0638,203.1459 C196.1248,203.1479 196.2268,202.7049 196.2908,202.1619 C196.4508,200.8029 196.6648,200.3809 198.0228,198.7479 L199.2048,197.3279 L200.1028,197.4349 C200.9318,197.5329 201.1118,197.6519 202.4398,198.9799 L203.8788,200.4189 L203.3038,201.3439 C202.9868,201.8529 202.7278,202.3289 202.7278,202.4019 C202.7278,202.5949 204.0168,203.7949 204.4768,204.0309 C204.6948,204.1419 205.1058,204.2329 205.3928,204.2329 C206.2988,204.2329 207.7718,204.7649 208.0408,205.1889 C208.1798,205.4079 208.3878,206.1649 208.5028,206.8699 C208.6188,207.5749 208.8128,208.5439 208.9348,209.0239 L209.1578,209.8959 L209.9628,209.9099 C210.7018,209.9229 210.7718,209.9639 210.8238,210.4209 L210.8248,210.4209 C210.8558,210.6939 210.9228,210.9169 210.9728,210.9169 C211.0888,210.9169 215.0068,210.0269 215.3848,209.9149 C215.6338,209.8409 215.5978,209.4019 215.0858,206.1739 C214.7658,204.1629 214.5168,202.5129 214.5328,202.5079 C214.5488,202.5039 214.7888,202.4019 215.0658,202.2819 C215.8558,201.9429 216.0628,202.0149 216.4448,202.7629 L216.8018,203.4609 L218.3908,202.9139 C219.2648,202.6119 220.0148,202.3389 220.0568,202.3049 C220.0988,202.2709 219.9428,201.6349 219.7098,200.8909 C219.4758,200.1469 219.3288,199.4949 219.3828,199.4419 C219.4358,199.3879 219.7418,199.2689 220.0618,199.1769 C220.5738,199.0309 220.7048,199.0709 221.1248,199.4989 C221.3878,199.7679 221.9288,200.1509 222.3258,200.3489 C223.1758,200.7739 223.8648,201.7219 223.8648,202.4649 C223.8648,203.4809 224.5558,204.6349 225.7868,205.6769 L226.9598,206.6689 L226.4578,207.0689 C226.1818,207.2889 225.9938,207.4999 226.0398,207.5369 C226.0858,207.5749 227.1538,208.1469 228.4148,208.8089 L230.7068,210.0119 L230.6288,209.4259 C230.5548,208.8729 230.6568,208.7499 232.4218,207.2659 L234.2928,205.6929 L235.5858,206.2359 C236.8878,206.7829 238.8748,207.1189 240.8198,207.1219 C241.5348,207.1229 242.0108,206.9979 242.6468,206.6399 L243.5078,206.1559 L244.6608,206.7539 L245.8138,207.3509 L247.7578,206.5909 C249.3078,205.9839 249.7988,205.7029 250.1808,205.2019 L250.6608,204.5729 L250.2858,204.1979 L249.9108,203.8239 L249.5348,204.5609 L249.1588,205.2989 L248.2088,205.0239 C247.6858,204.8719 246.9468,204.5889 246.5638,204.3939 C245.6388,203.9229 244.8868,203.9179 243.9838,204.3799 C243.2678,204.7449 243.2248,204.7469 242.9448,204.4379 C242.7838,204.2599 242.6528,203.9909 242.6528,203.8409 C242.6528,203.4159 242.0908,203.0069 241.2508,202.8179 C240.8308,202.7229 240.1998,202.3949 239.8498,202.0869 C239.4998,201.7799 239.0188,201.4799 238.7818,201.4209 C238.4188,201.3289 238.1488,200.9049 238.1378,200.4089 C238.1378,200.3419 238.3808,200.2339 238.6788,200.1689 C239.3158,200.0289 239.3168,200.0189 238.7608,199.0849 C238.5228,198.6869 238.1988,198.0869 238.0398,197.7509 L237.7508,197.1409 L237.1668,197.7059 C236.3698,198.4789 235.9038,198.4389 235.3128,197.5459 C235.0488,197.1469 234.6608,196.7859 234.4518,196.7429 C234.2428,196.7009 233.7868,196.6159 233.4388,196.5539 C232.9528,196.4679 232.5808,196.1779 231.8238,195.2969 C230.6888,193.9749 230.5118,193.5879 230.5858,192.5969 L230.6388,191.8779 L232.8968,191.4059 C235.4328,190.8759 235.5938,190.7329 234.7128,189.7899 C234.2248,189.2679 234.1768,189.1179 234.2778,188.4529 C234.3418,188.0409 234.4028,187.6889 234.4148,187.6709 C234.4278,187.6529 234.8308,187.7219 235.3108,187.8249 C236.5448,188.0879 236.6508,187.9149 236.1768,186.4039 C235.9638,185.7279 235.7148,184.7269 235.6218,184.1809 C235.5288,183.6339 235.3758,182.8889 235.2818,182.5249 C235.1798,182.1339 235.1708,181.2829 235.2588,180.4469 C235.3408,179.6689 235.4118,178.9819 235.4168,178.9209 C235.4228,178.8599 235.5978,178.5919 235.8068,178.3259 C236.1568,177.8819 236.1928,177.5699 236.2528,174.5249 C236.3068,171.7349 236.2748,171.1919 236.0528,171.1059 C235.8828,171.0409 235.7878,170.7519 235.7878,170.2959 C235.7878,169.7369 235.5658,169.2489 234.7398,167.9869 C234.1638,167.1069 233.6358,166.2939 233.5668,166.1809 C233.4088,165.9179 235.2778,164.4889 235.7798,164.4889 C236.2208,164.4889 236.2278,164.4429 235.8768,163.7629 C235.4298,162.8989 234.6508,162.6489 233.7218,163.0709 C233.3808,163.2269 233.2898,163.3769 233.3618,163.6649 C233.4448,163.9929 233.3198,164.1019 232.5058,164.4049 C231.9808,164.5999 231.5068,164.7819 231.4498,164.8079 C231.3928,164.8339 231.0298,164.1129 230.6408,163.2059 C229.9998,161.7089 229.9618,161.5359 230.2318,161.3389 C230.5078,161.1379 230.5048,161.0239 230.1918,159.8079 C230.0058,159.0859 229.8278,158.4689 229.7948,158.4379 C229.7628,158.4059 229.3088,158.4649 228.7878,158.5679 C227.9838,158.7279 227.8398,158.8179 227.8398,159.1579 C227.8398,159.5239 227.6428,159.6069 225.7168,160.0539 C224.5488,160.3249 222.9868,160.6979 222.2458,160.8839 C221.5038,161.0689 220.8778,161.2019 220.8548,161.1779 C220.8318,161.1549 220.4568,159.8389 220.0218,158.2519 C219.3288,155.7219 219.1818,155.3589 218.8388,155.3089 C218.5318,155.2639 218.4418,155.1239 218.4328,154.6759 C218.4218,154.1319 218.4108,154.1229 218.2238,154.5089 C218.0298,154.9119 217.4718,155.0589 217.2848,154.7569 C217.2308,154.6709 216.4138,154.7659 215.4688,154.9679 C214.5228,155.1719 213.7078,155.2959 213.6578,155.2459 C213.6068,155.1949 213.4318,154.4699 213.2688,153.6339 C213.1068,152.7989 212.9218,152.0549 212.8568,151.9819 C212.7938,151.9089 212.2978,152.0179 211.7548,152.2249 C211.2118,152.4319 210.2588,152.7929 209.6378,153.0279 L208.5088,153.4539 L207.8768,152.5159 C207.5288,151.9999 207.2448,151.4859 207.2448,151.3739 C207.2448,151.2619 207.7218,151.0689 208.3048,150.9459 C208.8878,150.8219 209.4478,150.6689 209.5518,150.6049 C209.6598,150.5379 209.7858,149.2719 209.8518,147.5979 C209.9148,146.0089 210.0098,144.2809 210.0628,143.7589 C210.1588,142.8359 210.1758,142.8109 210.7348,142.8079 C211.7648,142.8029 211.7768,142.7349 211.1798,140.1899 C210.8788,138.8989 210.6058,137.8139 210.5748,137.7789 C210.5438,137.7429 209.6598,137.8159 208.6098,137.9409 L206.7028,138.1669 L206.7028,139.1129 C206.7028,140.1519 206.5548,140.2739 205.3028,140.2799 C204.7358,140.2819 204.7158,140.2559 204.7158,139.5509 C204.7158,139.1489 204.5818,138.2889 204.4188,137.6389 L204.1218,136.4579 L203.5288,136.5689 C202.8518,136.6959 202.8278,136.6529 202.6398,135.0029 L202.5228,133.9689 L203.0438,134.1509 C203.4268,134.2839 204.1488,134.2379 205.7848,133.9759 C207.0068,133.7799 208.0458,133.5789 208.0958,133.5299 C208.2608,133.3649 207.5618,129.7249 207.2848,129.3009 C207.0688,128.9709 206.0028,123.2159 205.9838,122.2779 C205.9818,122.1599 206.5258,121.9709 207.2318,121.8449 C207.9208,121.7219 208.5658,121.5709 208.6658,121.5089 C208.7848,121.4349 208.6338,119.8789 208.2328,117.0639 C207.5328,112.1359 207.2648,110.6889 207.0238,110.5399 C206.9308,110.4829 205.7558,110.7459 204.4098,111.1259 C202.0878,111.7809 201.4648,112.1269 202.0058,112.4609 C202.1368,112.5419 202.1948,112.7709 202.1378,112.9849 C202.0798,113.2089 202.1408,113.4219 202.2868,113.5039 C202.5978,113.6779 202.4258,114.4479 202.0748,114.4479 C201.8848,114.4479 201.8248,114.7669 201.8248,115.7809 L201.8248,117.1139 L200.6048,117.4169 C199.9348,117.5839 199.2638,117.8679 199.1148,118.0499 C198.9668,118.2319 198.5378,118.4339 198.1638,118.5009 C197.5118,118.6159 197.4788,118.5969 197.3708,118.0549 C197.2628,117.5219 197.2218,117.4949 196.6378,117.6049 C196.2968,117.6689 195.9188,117.7589 195.7978,117.8059 C195.6498,117.8629 195.3628,117.1559 194.9308,115.6729 L194.2848,113.4549 L194.7328,112.8519 C195.1788,112.2559 195.1798,112.2399 194.8968,111.2479 C194.7408,110.6969 194.5768,110.2109 194.5338,110.1679 C194.3538,109.9879 193.1528,110.3499 193.1528,110.5839 C193.1528,110.7229 192.9718,110.8369 192.7468,110.8369 C192.5228,110.8379 192.0518,110.8869 191.6978,110.9459 L191.0558,111.0509 L190.3618,107.4659 C189.9808,105.4929 189.6328,103.7819 189.5888,103.6619 C189.5328,103.5129 189.2778,103.5899 188.7738,103.9069 C188.3718,104.1619 187.7298,104.4629 187.3498,104.5769 C186.8468,104.7269 186.4228,105.0759 185.7968,105.8539 C185.3218,106.4429 184.8318,106.9569 184.7078,106.9979 C184.5348,107.0539 184.4818,106.5379 184.4818,104.8079 L184.4818,102.5439 L183.1888,103.9339 C182.4778,104.6989 181.7138,105.5189 181.4898,105.7559 L181.0838,106.1859 L180.8188,105.6649 C180.5078,105.0549 180.5128,103.1649 180.8268,102.5939 C181.1658,101.9769 180.8698,101.9509 180.0848,102.5289 C179.2138,103.1689 179.1238,103.1819 178.9658,102.6859 C178.8718,102.3879 179.0338,102.1129 179.7008,101.4349 L180.5558,100.5659 L180.4188,99.6039 C180.3428,99.0739 180.2708,98.2279 180.2588,97.7219 L180.2368,96.8039 L179.2828,97.2249 C178.7588,97.4579 178.2568,97.6469 178.1678,97.6469 C178.0088,97.6469 175.6298,93.1239 175.6298,92.8209 C175.6298,92.7359 176.5278,92.2229 177.6258,91.6819 C179.2038,90.9029 179.6518,90.7489 179.7728,90.9429 C179.8708,91.1019 179.9708,90.7939 180.0548,90.0729 C180.1758,89.0309 180.2538,88.8829 181.2328,87.8439 L182.2828,86.7309 L181.9368,86.0539 C181.5038,85.2039 181.5048,85.1809 181.9978,85.1809 C182.2628,85.1799 182.5148,84.9849 182.7218,84.6229 L183.0388,84.0659 L182.3148,84.1889 L181.5918,84.3109 L181.5918,83.6849 C181.5918,82.6889 181.7968,81.9299 182.0658,81.9299 C182.2488,81.9299 182.3138,81.6449 182.3138,80.8409 C182.3138,80.0579 182.3878,79.7229 182.5748,79.6509 C182.8578,79.5429 182.8588,79.5469 181.8048,77.1829 C181.3538,76.1709 181.3468,76.1069 181.6008,75.1049 C181.8478,74.1279 181.9258,74.0299 183.0248,73.3079 L184.1868,72.5439 L184.8738,70.3269 C185.2508,69.1079 185.5608,68.0169 185.5628,67.9019 C185.5648,67.7199 184.6748,67.2979 184.2888,67.2979 C184.2128,67.2979 183.9738,67.5819 183.7598,67.9289 C183.4438,68.4389 183.2568,68.5619 182.7898,68.5619 C182.3088,68.5619 182.0678,68.3909 181.3588,67.5489 C180.2638,66.2469 180.2428,65.7029 181.2178,63.9549 C182.2008,62.1899 183.0648,61.2509 184.1738,60.7439 C185.1778,60.2839 185.7468,59.8229 185.7468,59.4679 C185.7468,59.3049 185.3058,59.2929 183.9228,59.4189 C182.4908,59.5489 182.0678,59.5339 181.9548,59.3519 C181.8498,59.1829 181.7788,59.2239 181.6888,59.5049 C181.5268,60.0159 180.9788,59.9949 180.6328,59.4659 C180.4708,59.2189 180.1548,57.6529 179.8778,55.7169 C179.6148,53.8889 179.3258,52.2539 179.2338,52.0839 C179.1428,51.9139 178.9728,51.2029 178.8578,50.5039 L178.6478,49.2319 L177.2288,49.2319 C175.8138,49.2319 175.5678,49.3479 176.0818,49.7739 C176.5798,50.1879 176.3608,50.3159 175.1338,50.3279 C174.4628,50.3359 173.7518,50.4109 173.5528,50.4959 C173.3538,50.5819 173.2798,50.6569 173.3878,50.6639 C173.6628,50.6819 174.0038,51.4939 174.0038,52.1309 C174.0038,52.5789 173.9318,52.6639 173.5528,52.6639 C173.1768,52.6639 173.1008,52.7499 173.1008,53.1789 C173.1008,53.8839 172.0418,54.3839 170.9028,54.2149 C170.4718,54.1519 169.8448,54.1019 169.5088,54.1059 C169.1718,54.1099 168.7858,54.0209 168.6498,53.9079 C168.6378,53.8979 168.6258,53.9299 168.6138,54.0149 C168.5898,53.7929 168.5438,53.7829 168.4698,53.7639 C168.1888,53.6899 167.1288,52.9209 167.1288,52.7179 C167.1288,52.5159 167.0138,52.4209 166.8758,52.5069 C166.7358,52.5929 166.1758,52.3039 165.6298,51.8659 L164.6378,51.0689 L163.3288,51.8739 C162.6088,52.3169 161.9268,52.6399 161.8118,52.5929 C161.5508,52.4859 160.0348,50.7639 159.0978,49.5089 C158.6608,48.9229 158.4478,48.3899 158.5478,48.1309 C158.6998,47.7339 158.0778,46.7589 157.6718,46.7589 C157.5728,46.7589 157.0798,46.3709 156.5758,45.8959 L155.6598,45.0309 L156.0868,43.6949 L156.5138,42.3589 L155.7538,41.7369 L154.9928,41.1149 L155.7858,40.4249 C156.8828,39.4699 157.0458,38.5959 156.3528,37.3869 C156.0458,36.8509 155.7548,36.3609 155.7048,36.2969 C155.6548,36.2339 155.2158,36.2079 154.7278,36.2409 C154.2418,36.2739 153.8438,36.1819 153.8438,36.0369 C153.8438,35.6179 153.1258,35.7319 152.8688,36.1919 C152.5468,36.7679 150.9248,36.4529 150.4068,35.7139 C150.0258,35.1709 150.0088,35.1689 149.0578,35.6239 C148.5278,35.8779 147.4418,36.1309 146.6428,36.1869 L145.1918,36.2899 L144.8678,35.3929 C144.5738,34.5819 144.4508,34.4959 143.5728,34.4959 C142.8838,34.4959 142.6018,34.3859 142.6018,34.1159 C142.6018,33.8679 142.2348,33.6769 141.5458,33.5669 C140.9258,33.4679 140.1388,33.0909 139.6418,32.6549 C138.9468,32.0439 138.7038,31.9589 138.2888,32.1809 C137.8728,32.4039 137.7538,32.3609 137.6198,31.9419 C137.3698,31.1539 136.7988,31.3259 135.5088,32.5799 C134.8568,33.2129 134.1048,33.7299 133.8358,33.7299 C133.3668,33.7299 133.3648,33.7589 133.7818,34.3949 C134.2048,35.0409 134.1978,35.0789 133.5158,35.7909 C132.8308,36.5059 132.8158,36.5869 132.8458,39.4659 C132.8708,42.1109 132.8248,42.4349 132.3888,42.6679 C131.4558,43.1679 130.6348,42.9449 129.3408,41.8419 C128.1218,40.8019 127.2448,39.3889 126.4878,37.2459 C126.1658,36.3329 126.1818,36.2569 126.8708,35.5379 C127.5298,34.8509 127.5658,34.7159 127.2998,33.9499 C126.3018,31.0879 125.0188,31.3059 122.5738,34.7519 C121.8608,35.7559 121.6248,35.9109 120.7058,35.9789 C119.2828,36.0839 118.5308,35.3199 118.6378,33.8809 C118.7058,32.9869 118.8858,32.7429 120.2478,31.6939 C121.9738,30.3629 122.7598,29.0489 122.7598,27.4859 C122.7598,26.3139 122.2558,25.0989 121.5998,24.6929 C121.2608,24.4819 121.0308,24.5469 120.5608,24.9879 C119.8758,25.6329 119.5848,25.6709 118.4608,25.2649 C117.7068,24.9919 117.5668,25.0479 116.0578,26.2229 C112.9688,28.6299 112.7598,28.6959 110.8518,27.8789 C109.5478,27.3199 109.3888,27.0299 109.3888,25.2009 C109.3888,23.7449 109.0878,23.2549 108.1918,23.2549 C107.7798,23.2549 107.4098,23.5749 106.9368,24.3409 C106.0348,25.8039 105.6468,26.0659 104.3768,26.0659 C103.5018,26.0659 103.1888,25.9319 102.7448,25.3669 C102.1408,24.5989 102.1508,24.3359 102.8878,21.6649 C103.7008,18.7129 102.9298,17.7619 99.4198,17.3939 C98.2278,17.2689 96.7358,17.0309 96.1038,16.8649 C95.4718,16.6989 94.5368,16.4589 94.0268,16.3309 C92.8288,16.0319 89.4898,13.5699 88.7998,12.4769 C88.5058,12.0109 88.1168,11.1709 87.9348,10.6089 C87.4418,9.0769 87.0508,8.7479 84.9038,8.0669 L84.3838,7.8279" id="Stroke-3" stroke="#E75F52" stroke-linecap="round" stroke-linejoin="round"></path>
            </g>
            <path d="M168.9283,200.5621 L169.4703,200.5321 L169.4703,200.2361 C169.4703,200.0741 169.4453,199.7521 169.4123,199.5211 L169.3553,199.1031 L168.8703,199.1031 L168.3543,199.1661 L168.3863,199.8481 L168.3863,200.5931 L168.9283,200.5621 Z" id="Fill-5" fill="#FFFFFF"></path>
            <path d="M168.9283,200.5621 L169.4703,200.5321 L169.4703,200.2361 C169.4703,200.0741 169.4453,199.7521 169.4123,199.5211 L169.3553,199.1031 L168.8703,199.1031 L168.3543,199.1661 L168.3863,199.8481 L168.3863,200.5931 L168.9283,200.5621 Z" id="Stroke-7" stroke="#E75F52" stroke-linecap="round" stroke-linejoin="round"></path>
        </g>
    </g>
</svg>