<?xml version="1.0" encoding="UTF-8"?>
<svg width="295px" height="301px" viewBox="0 0 295 301" version="1.1" xmlns="http://www.w3.org/2000/svg" xmlns:xlink="http://www.w3.org/1999/xlink">
    <!-- Generator: Sketch 64 (93537) - https://sketch.com -->
    <title>182</title>
    <desc>Created with Sketch.</desc>
    <g id="182" stroke="none" stroke-width="1" fill="none" fill-rule="evenodd">
        <g id="Group-4">
            <path d="M117.3809,56.7002 L113.9929,56.0062 L111.6529,54.2412 L112.2329,50.9562 L115.0409,46.7332 L119.8329,44.1432 L125.6919,42.0412 L134.5839,39.8072 L139.6009,35.9402 L144.1679,30.3092 L147.3309,32.1862 L147.3309,31.0042 L144.7479,28.6572 L145.1029,24.3212 L145.1029,8.4782 L150.2509,4.4992 L157.0459,3.2042 L162.8859,2.2652 L166.6309,0.5002 L168.1479,3.5602 L168.6149,5.3242 L167.8109,6.6002 L167.8109,8.6092 L168.5029,9.8852 L170.1509,9.8852 L171.3099,11.1802 L171.6659,12.4752 L172.6019,13.6392 L174.0049,13.6392 L175.4089,11.8932 L178.3289,10.9542 L179.8449,10.8222 L180.0889,12.2302 L180.7809,12.2302 L180.9119,12.9442 L181.9599,13.4132 L182.0719,18.1052 L182.5399,19.6252 L184.1879,19.8692 L184.9919,20.6762 L187.3319,19.6252 L188.1559,20.5642 L189.5599,20.3392 L191.4319,22.5542 L191.3199,26.6652 L192.1449,26.6652 L192.8359,25.5012 L199.3869,25.1452 L203.1309,28.0732 L203.5989,29.0112 L201.8399,30.3062 L201.8399,31.9392 L201.2599,32.5402 L203.4879,33.1222 L203.8439,35.3562 L201.5039,36.7632 L201.6169,37.9272 L206.4089,37.9272 L208.0559,39.2222 L209.4599,38.6412 L212.0249,37.8152 L213.4279,36.8762 L213.4279,35.4702 L213.4279,34.4192 L214.4769,33.3492 L215.6549,31.6032 L217.4149,31.6032 L217.8829,31.9412 L217.8829,34.0622 L216.5919,35.2262 L217.4159,35.9392 L216.9479,37.1032 L216.5919,38.3982 L218.4639,39.5812 L218.4639,40.6322 L217.9959,41.1012 L218.2209,43.8042 L221.9649,44.2742 L223.0319,44.9682 L223.6119,46.4882 L226.8869,46.8452 L227.8229,47.5582 L228.2909,49.9042 L229.8069,50.1292 L230.7429,51.0682 L231.2109,53.3022 L231.9229,53.3022 L232.6149,52.5882 L234.5989,52.4762 L236.0029,51.1802 L238.6989,51.1802 L240.8149,53.5272 L242.6869,53.5272 L243.3789,54.2402 L245.3629,54.2402 L245.7189,53.6592 L247.1229,52.4762 L248.8819,52.3632 L250.5109,53.7712 L251.6909,53.7712 L252.0449,53.5272 L253.2059,53.5272 L255.6579,54.7092 L256.8369,55.8732 L256.9499,58.6892 L258.5969,59.4022 L258.5969,61.0352 L259.2889,61.2792 L260.4679,63.5132 L262.4519,63.2692 L262.5659,61.8612 L264.2119,61.1662 C264.3429,61.2432 265.4039,61.8612 265.9529,61.8612 C265.9649,61.8612 265.9939,61.8602 266.0089,61.8612 L266.0279,61.8612 L266.0669,61.8802 C266.0799,61.8842 266.1059,61.8922 266.1219,61.8992 C266.1459,61.9092 266.1769,61.9272 266.1969,61.9372 C266.7029,62.2192 267.2789,63.2392 267.3589,63.3822 L268.5369,64.2082 L272.5049,64.0962 L274.1519,62.5752 L276.9599,62.3312 L277.7839,63.6262 L280.1239,65.0342 L280.9289,66.1982 L281.1719,66.1232 L283.4009,65.5032 L284.6729,65.5032 L285.6099,66.5542 L287.3679,65.5032 L289.9519,66.7982 L292.8719,67.1362 L294.4999,68.4312 L292.8719,68.7882 L291.8239,71.6032 L292.0489,73.5932 L290.9999,74.6462 L290.0649,74.6462 L288.8849,76.1862 L288.8849,77.5932 L285.8529,79.8082 L285.4969,83.8062 L284.0929,88.3862 L284.4489,91.7832 L281.3989,97.7712 L281.5289,101.5252 L282.6909,103.1582 L281.6419,104.6782 L281.6419,107.0242 L281.0629,108.4322 L281.0629,111.3792 L280.1259,112.6552 L280.9309,114.5322 L282.4659,116.2972 L281.2869,117.8172 L281.1739,120.4082 L278.9469,122.1722 L274.6229,122.2852 L273.7989,121.5712 L274.0419,120.2952 L271.1039,120.7642 L268.0699,124.2742 L268.1829,124.7432 L270.9909,124.1622 L271.8159,124.9882 L270.2989,126.8652 L269.0079,127.4462 L269.5879,128.8542 L265.8439,133.1902 L264.2149,134.0162 L264.0839,136.2492 L262.4549,137.7702 L260.6959,138.5962 L258.1319,139.8722 L258.3579,145.5032 L251.1129,152.3162 L250.9829,153.1412 L252.1609,153.6122 L250.4019,155.7142 L250.1759,158.1732 L252.3849,159.3562 L252.6279,160.0502 L250.8689,162.2842 L251.5799,162.7532 L251.4489,163.9352 L249.3529,164.1612 L247.9489,164.9872 L247.9489,167.2212 L251.8049,167.2212 L253.3209,165.8132 L255.6609,164.2742 L254.3879,163.2222 L254.2569,162.1722 L255.4369,159.5812 L256.7279,159.4692 L257.4189,160.5192 L260.0029,158.4182 L262.6789,157.9482 L266.6669,157.9482 L266.7789,159.4692 L268.8949,161.7022 L268.8949,163.3352 L267.6039,164.7432 L267.7159,165.6802 L269.9429,166.7512 L269.9429,168.4972 L269.9429,169.5672 L270.7679,169.0972 L273.3319,171.7822 L273.5749,174.3722 L273.1079,175.5362 L269.1189,177.1882 L269.0639,179.2342 L269.0069,181.1682 L270.7669,183.1762 C270.7669,183.1762 272.5069,183.0502 272.9759,182.9312 L272.9939,182.9312 L273.0139,182.9312 L273.0319,182.9312 L273.0319,182.9512 L273.0509,182.9512 L273.0699,182.9702 C273.0779,182.9802 273.0989,183.0102 273.1089,183.0262 C273.4089,183.6722 273.2209,187.2682 273.2209,187.2682 L276.3829,189.1462 L276.8519,190.7982 L278.3669,191.3802 L276.7199,194.1952 L277.3189,195.1342 L276.9629,197.1232 L273.9119,198.3052 L273.3319,199.0002 L271.8159,199.8262 L271.7029,201.2342 L270.4119,201.2342 L269.1199,200.4082 L265.6199,201.8162 L265.6569,201.8902 L266.4239,203.5802 L267.0239,204.7622 L268.7649,205.3452 L269.2329,208.8552 L272.2829,210.3942 L273.9109,210.1512 L275.2029,210.6202 L275.5589,214.0162 L277.1879,214.8432 L277.1879,215.8932 L275.9139,215.7822 L274.5099,217.3022 L274.8479,218.9542 L272.7499,221.1872 L272.2819,222.2392 L272.8619,223.7592 L274.0409,224.1162 L274.9779,224.9422 L273.3299,225.1672 L273.3299,227.5122 L275.7819,229.0332 L275.7819,231.1542 L277.5419,231.1542 L280.5929,231.9802 L283.6249,234.4392 L285.3849,234.4392 L290.8889,232.4502 L292.6289,232.3182 L293.0979,233.8572 L293.6959,234.9082 L294.0329,236.6732 L293.3409,239.2452 L290.7569,240.0712 L291.1129,241.8362 L289.3549,243.3562 L290.5329,246.0582 L288.4179,247.3352 L288.3069,248.6302 L286.2089,248.6302 L283.8689,250.7512 L281.1729,250.9752 L281.0619,254.6182 L279.8819,254.3742 L279.0589,255.4442 L276.7179,254.9742 L276.6059,257.6592 L274.6209,259.8922 L271.2339,260.3622 L270.9889,262.2392 L270.0529,263.5352 L268.1819,264.6992 L270.6329,264.5872 L270.6329,267.6462 L268.7609,268.4532 L267.1319,267.9842 L266.4199,269.0542 L263.9679,269.0542 L263.0319,269.8612 L262.8079,271.4002 L261.9839,271.9822 L261.4029,271.2682 L260.6929,271.0442 L258.9329,270.4622 L257.4159,271.5122 L257.6589,273.0332 L258.3529,273.7472 L255.5439,273.6152 L256.7239,273.0332 L256.8349,272.0952 L253.2039,271.7382 L251.1079,273.0332 L249.9279,273.8592 L248.6369,273.6152 L248.0579,271.2682 L245.9599,270.3302 L245.3609,269.5232 L242.5529,268.5852 L236.8249,268.5852 L237.5369,267.7592 L238.0049,266.5762 L235.4209,266.4642 L237.2929,264.8312 L236.9389,263.7612 L235.1969,264.4732 L228.5149,264.3622 L227.4659,262.1282 L225.2379,261.1892 L223.8349,262.3532 L225.9499,264.3622 L221.9629,265.0552 L216.9459,264.0052 L218.1069,262.0142 L219.8659,262.0142 L218.9309,261.0772 L214.0069,260.7202 L210.3009,260.5512 L208.8599,260.4752 L206.1839,260.6082 L206.1839,258.2612 L204.3859,258.1302 L202.7769,258.0162 L198.8089,260.8332 L192.4819,265.8822 L191.4339,267.1772 L188.1569,267.2902 L187.6899,268.3412 L183.4779,269.6362 L183.4019,270.2742 L183.2519,271.5122 L182.0729,272.6772 L180.3149,274.0852 L178.3289,272.2082 L177.3939,273.7482 L178.5719,275.4942 L179.9769,275.3812 L179.8449,279.2482 L179.9399,282.6082 L180.2009,292.8572 L181.8489,293.5712 L182.7839,294.8662 L182.7839,296.7432 L180.9119,296.6112 L179.3769,294.9782 L176.9249,294.9782 L175.1659,295.5602 L174.0049,297.0802 L170.4859,297.9062 L170.3739,299.5572 L169.6829,299.8962 L168.8589,299.3142 L168.0339,299.3142 L167.0989,300.5002 L163.8229,297.6832 L159.9669,296.3882 L157.5149,296.8582 L155.5119,299.3172 L154.1099,299.5602 L152.2369,297.9092 L152.1239,295.8062 L148.6229,294.8692 L146.8639,293.2172 L146.6579,291.9772 L146.2839,289.8202 L141.1359,289.1062 L139.3769,289.8202 L137.3919,286.6462 L132.3569,286.8902 L130.3719,284.3002 L128.8369,284.3002 L125.2239,283.6052 L124.5869,283.2492 L122.1719,281.8412 L120.5429,281.5962 L120.2999,287.3602 L115.5449,287.0412 L113.2799,286.8902 L112.2319,286.4212 L111.4079,287.8292 L109.1799,287.2272 L107.5519,285.3502 L103.6959,287.0032 L102.1609,287.0032 L100.2889,285.4832 L100.0639,284.0752 L97.7239,282.3102 L95.7399,281.1282 L95.4399,281.2972 L93.3999,282.4232 L92.3329,283.0052 L91.7529,282.4232 L90.5919,282.6672 L89.3009,283.3622 L88.1219,281.9542 L85.0899,279.6082 L84.8459,277.1492 L80.4099,277.1492 L77.7139,275.4972 L74.9059,275.0282 L73.9699,273.7522 L71.8729,273.7522 L71.0489,272.5692 L71.1619,271.0492 L70.1139,272.2132 L69.7579,273.9772 L67.8859,273.3952 L66.8379,272.2132 L66.9499,271.1622 L68.5969,270.3362 L68.5969,268.1212 L69.4019,267.4072 L69.0649,265.9992 L67.6609,265.6422 L65.4329,264.7042 L64.9649,265.7742 L63.3179,265.6422 L63.2049,264.1222 L61.1079,264.0102 L59.7049,262.7152 L59.7049,261.4192 L61.2209,261.1942 L63.3179,260.3682 L66.0139,257.0842 L66.4999,256.2202 L68.2409,253.2172 L68.9329,250.4022 L69.7569,246.4032 L72.4529,236.0792 L74.5399,224.8732 L74.5499,222.1322 L75.8409,220.3682 L76.0839,218.6022 L77.2449,218.1342 L77.7129,218.8462 L80.6329,218.7162 L79.9409,217.7772 L79.6979,217.0832 L77.3579,214.9622 L75.7299,217.0832 L74.9059,219.7862 L75.0179,217.7772 L76.0849,210.0432 L77.6019,200.0752 L78.1819,190.2202 L80.0539,187.4052 L81.2329,187.5162 L81.1019,189.9752 L87.0739,195.3822 L88.7209,201.8212 L89.3009,204.6362 L89.8809,203.6982 L89.6559,200.3002 L88.8319,196.9032 L88.6629,196.1522 L87.7839,192.0962 L84.0399,188.3432 L82.7479,188.0982 L82.6359,186.9342 L80.9889,185.9972 L78.5369,183.9882 L77.1329,184.1202 L76.8899,181.5292 L76.4219,178.9572 L76.1969,176.7222 L73.5009,174.7342 L73.7439,170.6232 L75.3729,172.6132 L77.3569,172.8572 L77.6009,175.6722 L78.1809,176.1412 L78.5369,176.9492 L77.4889,178.3572 L77.7139,179.2962 L79.3609,179.2962 L79.0049,178.7142 L78.8929,177.0812 L80.2969,177.1942 L80.8769,174.6032 L79.8289,173.0832 L80.2969,172.3882 L81.6999,172.6142 L81.8129,171.3182 L80.7649,170.8482 L80.1659,169.2162 L78.5369,168.8602 L78.0689,167.8082 L75.6169,167.9212 L74.3259,166.8702 L72.6789,165.8192 L71.0499,165.8192 L69.7589,163.9422 L71.7429,163.2292 L73.1469,164.1672 L73.3899,165.3492 L75.7299,165.5752 L76.6659,166.6262 L78.4259,166.4012 L78.6509,165.2182 L80.5229,163.6982 L79.6619,162.9092 L79.0069,162.2902 L78.8949,163.9422 L76.3109,162.6472 L75.1509,160.8822 L72.5669,160.8822 L71.5189,158.5362 L68.8229,158.5362 L66.4829,156.1902 L64.1429,155.0262 L61.9149,148.3252 L60.8669,148.3252 L60.9799,147.2742 L57.3669,143.7642 L57.4799,140.9492 L61.0359,136.3502 L58.0599,133.4402 L55.4949,133.9092 L55.2519,132.1452 L56.6559,132.1452 L57.9469,130.8502 L57.4789,129.7992 L57.3659,128.6162 L59.4629,127.5652 L57.4789,127.5652 L55.9629,129.2172 L53.8469,129.2172 L52.5559,127.5652 L52.3329,128.5002 L50.1049,128.0312 L48.8139,127.3372 L49.9929,125.6852 L49.5249,124.7462 L49.0569,124.2772 L51.2849,122.2882 L50.5739,121.7902 L50.3489,120.6362 L51.1529,119.9412 L49.5249,119.5852 L43.1979,120.1662 L42.1499,118.5332 L40.7459,118.0632 L41.6819,116.8812 L43.4409,117.7072 L44.9579,118.1762 L45.5379,117.2372 L44.3779,115.8302 L42.8619,115.4732 L43.1989,116.2992 L41.5699,116.5432 L40.2789,114.7792 L40.9909,116.4122 L40.2789,117.5952 L38.7629,116.3002 L38.4069,115.4742 L37.9389,116.8822 L36.5349,116.5442 L36.5349,118.6462 L37.2469,119.5852 L36.5349,120.4112 L35.1319,119.3602 L35.3749,117.8202 L35.5999,116.3002 L34.9079,115.0052 L32.7919,112.9032 L31.1639,112.1892 L31.5009,110.9132 L30.8089,111.9642 L28.9369,111.4952 L27.5799,109.3272 L26.0169,109.2622 L24.0139,108.9052 L23.2089,107.7412 L23.0779,108.4352 L19.8019,108.2102 L18.2859,105.7512 L17.8179,103.7432 L17.8179,105.7512 L16.6579,105.9762 L14.7859,104.9252 L13.7189,105.0382 L12.6709,104.5692 L13.7189,105.9762 L13.1389,107.0272 L10.4429,107.1592 L7.9909,106.6902 L8.8149,105.0382 L8.2349,101.9972 L5.7599,99.1802 L4.2439,99.2922 L3.1959,98.3542 L1.9049,98.4662 L0.7439,97.7722 L1.5489,96.7022 L5.5359,96.4772 L7.8759,96.1202 L9.2789,96.1202 L10.7959,96.2332 L11.5069,94.9572 L11.0389,93.0802 L9.8599,92.8362 L7.4079,91.4292 L6.1169,93.4182 L5.5369,93.8872 L5.6499,90.7332 L3.5529,90.0202 L5.1819,88.1432 L7.8779,89.4382 L10.1049,90.0202 L12.9129,90.1322 L13.0249,89.4382 L10.4419,89.3262 L10.9099,87.6742 L8.5699,88.7252 L8.3429,87.5602 L10.9069,85.1012 L7.9869,87.2032 L3.5509,87.7852 L3.1949,87.3162 L2.4839,88.0292 L0.6119,87.7852 L1.0799,85.2142 L0.4999,84.1632 L2.3719,82.6232 L0.9679,81.5722 L2.6149,79.5832 L5.7599,79.4702 L6.0039,78.0632 L6.9399,77.5932 L7.7639,78.1752 L9.6359,78.0632 L9.6359,77.2372 L12.3129,76.8802 L12.5559,78.1752 L14.0719,77.8182 L14.5399,76.6542 L17.1229,76.4102 L18.5269,76.9912 L19.7999,75.5832 L20.0429,78.2872 L21.4469,78.0622 L21.6719,79.1132 L22.6079,79.1132 L22.6079,76.7662 L25.8839,76.6542 L27.8489,77.7992 L29.5149,75.5842 L28.5789,74.3082 L31.0309,72.6562 L32.9029,74.0642 L33.5019,73.2382 L36.1789,72.9002 L37.2459,72.0742 L37.9379,73.7072 L38.2939,72.5432 L40.6339,72.5432 L40.5219,73.8382 L41.7939,73.9512 L41.6819,75.8282 L43.3289,76.1852 L43.3289,78.1742 L45.5379,79.8072 L45.3129,81.9282 L47.7649,83.0922 L47.7649,85.2132 L48.7009,85.2132 L48.7009,84.0302 L53.0249,81.6842 L53.7369,80.2762 L55.8339,80.6332 L57.2379,79.5822 L57.2379,81.9282 L58.0619,80.9902 L59.2409,81.3462 L59.3539,82.9792 L60.7579,82.8672 L60.9829,81.5712 L63.2099,81.8152 L63.9589,80.9702 L65.0819,79.6942 L67.8899,79.8072 L66.4859,81.6842 L68.6009,82.9792 L74.3479,82.9792 L76.5569,82.9792 L77.8299,82.3972 L77.6049,81.2152 L75.0209,80.6332 L73.3919,76.4102 L74.9089,73.3692 L74.9089,70.0842 L73.5049,67.2692 L73.5049,63.0462 L72.9249,62.2202 L72.3449,59.5162 L69.6489,56.4752 L68.8249,54.5982 L69.0689,52.3642 L68.7129,52.1202 L68.1329,51.5382 L69.0689,50.3742 L69.0689,47.7832 L66.5979,45.7942 L67.0659,44.6112 L71.4089,45.9062 L74.4409,47.8962 L77.1369,46.0192 L82.1729,46.2632 L83.3329,49.4352 L82.0399,49.4352 L81.1039,51.7812 L84.1549,55.4042 L84.2679,58.2192 L85.3719,57.9382 L88.8349,57.0562 L91.0619,58.2202 L100.6469,59.6282 L104.6339,61.8622 L109.6509,59.8722 L114.1059,57.2822 L116.8389,56.7942" id="Fill-1" fill="#FFFFFF"></path>
            <path d="M117.3809,56.7002 L113.9929,56.0062 L111.6529,54.2412 L112.2329,50.9562 L115.0409,46.7332 L119.8329,44.1432 L125.6919,42.0412 L134.5839,39.8072 L139.6009,35.9402 L144.1679,30.3092 L147.3309,32.1862 L147.3309,31.0042 L144.7479,28.6572 L145.1029,24.3212 L145.1029,8.4782 L150.2509,4.4992 L157.0459,3.2042 L162.8859,2.2652 L166.6309,0.5002 L168.1479,3.5602 L168.6149,5.3242 L167.8109,6.6002 L167.8109,8.6092 L168.5029,9.8852 L170.1509,9.8852 L171.3099,11.1802 L171.6659,12.4752 L172.6019,13.6392 L174.0049,13.6392 L175.4089,11.8932 L178.3289,10.9542 L179.8449,10.8222 L180.0889,12.2302 L180.7809,12.2302 L180.9119,12.9442 L181.9599,13.4132 L182.0719,18.1052 L182.5399,19.6252 L184.1879,19.8692 L184.9919,20.6762 L187.3319,19.6252 L188.1559,20.5642 L189.5599,20.3392 L191.4319,22.5542 L191.3199,26.6652 L192.1449,26.6652 L192.8359,25.5012 L199.3869,25.1452 L203.1309,28.0732 L203.5989,29.0112 L201.8399,30.3062 L201.8399,31.9392 L201.2599,32.5402 L203.4879,33.1222 L203.8439,35.3562 L201.5039,36.7632 L201.6169,37.9272 L206.4089,37.9272 L208.0559,39.2222 L209.4599,38.6412 L212.0249,37.8152 L213.4279,36.8762 L213.4279,35.4702 L213.4279,34.4192 L214.4769,33.3492 L215.6549,31.6032 L217.4149,31.6032 L217.8829,31.9412 L217.8829,34.0622 L216.5919,35.2262 L217.4159,35.9392 L216.9479,37.1032 L216.5919,38.3982 L218.4639,39.5812 L218.4639,40.6322 L217.9959,41.1012 L218.2209,43.8042 L221.9649,44.2742 L223.0319,44.9682 L223.6119,46.4882 L226.8869,46.8452 L227.8229,47.5582 L228.2909,49.9042 L229.8069,50.1292 L230.7429,51.0682 L231.2109,53.3022 L231.9229,53.3022 L232.6149,52.5882 L234.5989,52.4762 L236.0029,51.1802 L238.6989,51.1802 L240.8149,53.5272 L242.6869,53.5272 L243.3789,54.2402 L245.3629,54.2402 L245.7189,53.6592 L247.1229,52.4762 L248.8819,52.3632 L250.5109,53.7712 L251.6909,53.7712 L252.0449,53.5272 L253.2059,53.5272 L255.6579,54.7092 L256.8369,55.8732 L256.9499,58.6892 L258.5969,59.4022 L258.5969,61.0352 L259.2889,61.2792 L260.4679,63.5132 L262.4519,63.2692 L262.5659,61.8612 L264.2119,61.1662 C264.3429,61.2432 265.4039,61.8612 265.9529,61.8612 C265.9649,61.8612 265.9939,61.8602 266.0089,61.8612 L266.0279,61.8612 L266.0669,61.8802 C266.0799,61.8842 266.1059,61.8922 266.1219,61.8992 C266.1459,61.9092 266.1769,61.9272 266.1969,61.9372 C266.7029,62.2192 267.2789,63.2392 267.3589,63.3822 L268.5369,64.2082 L272.5049,64.0962 L274.1519,62.5752 L276.9599,62.3312 L277.7839,63.6262 L280.1239,65.0342 L280.9289,66.1982 L281.1719,66.1232 L283.4009,65.5032 L284.6729,65.5032 L285.6099,66.5542 L287.3679,65.5032 L289.9519,66.7982 L292.8719,67.1362 L294.4999,68.4312 L292.8719,68.7882 L291.8239,71.6032 L292.0489,73.5932 L290.9999,74.6462 L290.0649,74.6462 L288.8849,76.1862 L288.8849,77.5932 L285.8529,79.8082 L285.4969,83.8062 L284.0929,88.3862 L284.4489,91.7832 L281.3989,97.7712 L281.5289,101.5252 L282.6909,103.1582 L281.6419,104.6782 L281.6419,107.0242 L281.0629,108.4322 L281.0629,111.3792 L280.1259,112.6552 L280.9309,114.5322 L282.4659,116.2972 L281.2869,117.8172 L281.1739,120.4082 L278.9469,122.1722 L274.6229,122.2852 L273.7989,121.5712 L274.0419,120.2952 L271.1039,120.7642 L268.0699,124.2742 L268.1829,124.7432 L270.9909,124.1622 L271.8159,124.9882 L270.2989,126.8652 L269.0079,127.4462 L269.5879,128.8542 L265.8439,133.1902 L264.2149,134.0162 L264.0839,136.2492 L262.4549,137.7702 L260.6959,138.5962 L258.1319,139.8722 L258.3579,145.5032 L251.1129,152.3162 L250.9829,153.1412 L252.1609,153.6122 L250.4019,155.7142 L250.1759,158.1732 L252.3849,159.3562 L252.6279,160.0502 L250.8689,162.2842 L251.5799,162.7532 L251.4489,163.9352 L249.3529,164.1612 L247.9489,164.9872 L247.9489,167.2212 L251.8049,167.2212 L253.3209,165.8132 L255.6609,164.2742 L254.3879,163.2222 L254.2569,162.1722 L255.4369,159.5812 L256.7279,159.4692 L257.4189,160.5192 L260.0029,158.4182 L262.6789,157.9482 L266.6669,157.9482 L266.7789,159.4692 L268.8949,161.7022 L268.8949,163.3352 L267.6039,164.7432 L267.7159,165.6802 L269.9429,166.7512 L269.9429,168.4972 L269.9429,169.5672 L270.7679,169.0972 L273.3319,171.7822 L273.5749,174.3722 L273.1079,175.5362 L269.1189,177.1882 L269.0639,179.2342 L269.0069,181.1682 L270.7669,183.1762 C270.7669,183.1762 272.5069,183.0502 272.9759,182.9312 L272.9939,182.9312 L273.0139,182.9312 L273.0319,182.9312 L273.0319,182.9512 L273.0509,182.9512 L273.0699,182.9702 C273.0779,182.9802 273.0989,183.0102 273.1089,183.0262 C273.4089,183.6722 273.2209,187.2682 273.2209,187.2682 L276.3829,189.1462 L276.8519,190.7982 L278.3669,191.3802 L276.7199,194.1952 L277.3189,195.1342 L276.9629,197.1232 L273.9119,198.3052 L273.3319,199.0002 L271.8159,199.8262 L271.7029,201.2342 L270.4119,201.2342 L269.1199,200.4082 L265.6199,201.8162 L265.6569,201.8902 L266.4239,203.5802 L267.0239,204.7622 L268.7649,205.3452 L269.2329,208.8552 L272.2829,210.3942 L273.9109,210.1512 L275.2029,210.6202 L275.5589,214.0162 L277.1879,214.8432 L277.1879,215.8932 L275.9139,215.7822 L274.5099,217.3022 L274.8479,218.9542 L272.7499,221.1872 L272.2819,222.2392 L272.8619,223.7592 L274.0409,224.1162 L274.9779,224.9422 L273.3299,225.1672 L273.3299,227.5122 L275.7819,229.0332 L275.7819,231.1542 L277.5419,231.1542 L280.5929,231.9802 L283.6249,234.4392 L285.3849,234.4392 L290.8889,232.4502 L292.6289,232.3182 L293.0979,233.8572 L293.6959,234.9082 L294.0329,236.6732 L293.3409,239.2452 L290.7569,240.0712 L291.1129,241.8362 L289.3549,243.3562 L290.5329,246.0582 L288.4179,247.3352 L288.3069,248.6302 L286.2089,248.6302 L283.8689,250.7512 L281.1729,250.9752 L281.0619,254.6182 L279.8819,254.3742 L279.0589,255.4442 L276.7179,254.9742 L276.6059,257.6592 L274.6209,259.8922 L271.2339,260.3622 L270.9889,262.2392 L270.0529,263.5352 L268.1819,264.6992 L270.6329,264.5872 L270.6329,267.6462 L268.7609,268.4532 L267.1319,267.9842 L266.4199,269.0542 L263.9679,269.0542 L263.0319,269.8612 L262.8079,271.4002 L261.9839,271.9822 L261.4029,271.2682 L260.6929,271.0442 L258.9329,270.4622 L257.4159,271.5122 L257.6589,273.0332 L258.3529,273.7472 L255.5439,273.6152 L256.7239,273.0332 L256.8349,272.0952 L253.2039,271.7382 L251.1079,273.0332 L249.9279,273.8592 L248.6369,273.6152 L248.0579,271.2682 L245.9599,270.3302 L245.3609,269.5232 L242.5529,268.5852 L236.8249,268.5852 L237.5369,267.7592 L238.0049,266.5762 L235.4209,266.4642 L237.2929,264.8312 L236.9389,263.7612 L235.1969,264.4732 L228.5149,264.3622 L227.4659,262.1282 L225.2379,261.1892 L223.8349,262.3532 L225.9499,264.3622 L221.9629,265.0552 L216.9459,264.0052 L218.1069,262.0142 L219.8659,262.0142 L218.9309,261.0772 L214.0069,260.7202 L210.3009,260.5512 L208.8599,260.4752 L206.1839,260.6082 L206.1839,258.2612 L204.3859,258.1302 L202.7769,258.0162 L198.8089,260.8332 L192.4819,265.8822 L191.4339,267.1772 L188.1569,267.2902 L187.6899,268.3412 L183.4779,269.6362 L183.4019,270.2742 L183.2519,271.5122 L182.0729,272.6772 L180.3149,274.0852 L178.3289,272.2082 L177.3939,273.7482 L178.5719,275.4942 L179.9769,275.3812 L179.8449,279.2482 L179.9399,282.6082 L180.2009,292.8572 L181.8489,293.5712 L182.7839,294.8662 L182.7839,296.7432 L180.9119,296.6112 L179.3769,294.9782 L176.9249,294.9782 L175.1659,295.5602 L174.0049,297.0802 L170.4859,297.9062 L170.3739,299.5572 L169.6829,299.8962 L168.8589,299.3142 L168.0339,299.3142 L167.0989,300.5002 L163.8229,297.6832 L159.9669,296.3882 L157.5149,296.8582 L155.5119,299.3172 L154.1099,299.5602 L152.2369,297.9092 L152.1239,295.8062 L148.6229,294.8692 L146.8639,293.2172 L146.6579,291.9772 L146.2839,289.8202 L141.1359,289.1062 L139.3769,289.8202 L137.3919,286.6462 L132.3569,286.8902 L130.3719,284.3002 L128.8369,284.3002 L125.2239,283.6052 L124.5869,283.2492 L122.1719,281.8412 L120.5429,281.5962 L120.2999,287.3602 L115.5449,287.0412 L113.2799,286.8902 L112.2319,286.4212 L111.4079,287.8292 L109.1799,287.2272 L107.5519,285.3502 L103.6959,287.0032 L102.1609,287.0032 L100.2889,285.4832 L100.0639,284.0752 L97.7239,282.3102 L95.7399,281.1282 L95.4399,281.2972 L93.3999,282.4232 L92.3329,283.0052 L91.7529,282.4232 L90.5919,282.6672 L89.3009,283.3622 L88.1219,281.9542 L85.0899,279.6082 L84.8459,277.1492 L80.4099,277.1492 L77.7139,275.4972 L74.9059,275.0282 L73.9699,273.7522 L71.8729,273.7522 L71.0489,272.5692 L71.1619,271.0492 L70.1139,272.2132 L69.7579,273.9772 L67.8859,273.3952 L66.8379,272.2132 L66.9499,271.1622 L68.5969,270.3362 L68.5969,268.1212 L69.4019,267.4072 L69.0649,265.9992 L67.6609,265.6422 L65.4329,264.7042 L64.9649,265.7742 L63.3179,265.6422 L63.2049,264.1222 L61.1079,264.0102 L59.7049,262.7152 L59.7049,261.4192 L61.2209,261.1942 L63.3179,260.3682 L66.0139,257.0842 L66.4999,256.2202 L68.2409,253.2172 L68.9329,250.4022 L69.7569,246.4032 L72.4529,236.0792 L74.5399,224.8732 L74.5499,222.1322 L75.8409,220.3682 L76.0839,218.6022 L77.2449,218.1342 L77.7129,218.8462 L80.6329,218.7162 L79.9409,217.7772 L79.6979,217.0832 L77.3579,214.9622 L75.7299,217.0832 L74.9059,219.7862 L75.0179,217.7772 L76.0849,210.0432 L77.6019,200.0752 L78.1819,190.2202 L80.0539,187.4052 L81.2329,187.5162 L81.1019,189.9752 L87.0739,195.3822 L88.7209,201.8212 L89.3009,204.6362 L89.8809,203.6982 L89.6559,200.3002 L88.8319,196.9032 L88.6629,196.1522 L87.7839,192.0962 L84.0399,188.3432 L82.7479,188.0982 L82.6359,186.9342 L80.9889,185.9972 L78.5369,183.9882 L77.1329,184.1202 L76.8899,181.5292 L76.4219,178.9572 L76.1969,176.7222 L73.5009,174.7342 L73.7439,170.6232 L75.3729,172.6132 L77.3569,172.8572 L77.6009,175.6722 L78.1809,176.1412 L78.5369,176.9492 L77.4889,178.3572 L77.7139,179.2962 L79.3609,179.2962 L79.0049,178.7142 L78.8929,177.0812 L80.2969,177.1942 L80.8769,174.6032 L79.8289,173.0832 L80.2969,172.3882 L81.6999,172.6142 L81.8129,171.3182 L80.7649,170.8482 L80.1659,169.2162 L78.5369,168.8602 L78.0689,167.8082 L75.6169,167.9212 L74.3259,166.8702 L72.6789,165.8192 L71.0499,165.8192 L69.7589,163.9422 L71.7429,163.2292 L73.1469,164.1672 L73.3899,165.3492 L75.7299,165.5752 L76.6659,166.6262 L78.4259,166.4012 L78.6509,165.2182 L80.5229,163.6982 L79.6619,162.9092 L79.0069,162.2902 L78.8949,163.9422 L76.3109,162.6472 L75.1509,160.8822 L72.5669,160.8822 L71.5189,158.5362 L68.8229,158.5362 L66.4829,156.1902 L64.1429,155.0262 L61.9149,148.3252 L60.8669,148.3252 L60.9799,147.2742 L57.3669,143.7642 L57.4799,140.9492 L61.0359,136.3502 L58.0599,133.4402 L55.4949,133.9092 L55.2519,132.1452 L56.6559,132.1452 L57.9469,130.8502 L57.4789,129.7992 L57.3659,128.6162 L59.4629,127.5652 L57.4789,127.5652 L55.9629,129.2172 L53.8469,129.2172 L52.5559,127.5652 L52.3329,128.5002 L50.1049,128.0312 L48.8139,127.3372 L49.9929,125.6852 L49.5249,124.7462 L49.0569,124.2772 L51.2849,122.2882 L50.5739,121.7902 L50.3489,120.6362 L51.1529,119.9412 L49.5249,119.5852 L43.1979,120.1662 L42.1499,118.5332 L40.7459,118.0632 L41.6819,116.8812 L43.4409,117.7072 L44.9579,118.1762 L45.5379,117.2372 L44.3779,115.8302 L42.8619,115.4732 L43.1989,116.2992 L41.5699,116.5432 L40.2789,114.7792 L40.9909,116.4122 L40.2789,117.5952 L38.7629,116.3002 L38.4069,115.4742 L37.9389,116.8822 L36.5349,116.5442 L36.5349,118.6462 L37.2469,119.5852 L36.5349,120.4112 L35.1319,119.3602 L35.3749,117.8202 L35.5999,116.3002 L34.9079,115.0052 L32.7919,112.9032 L31.1639,112.1892 L31.5009,110.9132 L30.8089,111.9642 L28.9369,111.4952 L27.5799,109.3272 L26.0169,109.2622 L24.0139,108.9052 L23.2089,107.7412 L23.0779,108.4352 L19.8019,108.2102 L18.2859,105.7512 L17.8179,103.7432 L17.8179,105.7512 L16.6579,105.9762 L14.7859,104.9252 L13.7189,105.0382 L12.6709,104.5692 L13.7189,105.9762 L13.1389,107.0272 L10.4429,107.1592 L7.9909,106.6902 L8.8149,105.0382 L8.2349,101.9972 L5.7599,99.1802 L4.2439,99.2922 L3.1959,98.3542 L1.9049,98.4662 L0.7439,97.7722 L1.5489,96.7022 L5.5359,96.4772 L7.8759,96.1202 L9.2789,96.1202 L10.7959,96.2332 L11.5069,94.9572 L11.0389,93.0802 L9.8599,92.8362 L7.4079,91.4292 L6.1169,93.4182 L5.5369,93.8872 L5.6499,90.7332 L3.5529,90.0202 L5.1819,88.1432 L7.8779,89.4382 L10.1049,90.0202 L12.9129,90.1322 L13.0249,89.4382 L10.4419,89.3262 L10.9099,87.6742 L8.5699,88.7252 L8.3429,87.5602 L10.9069,85.1012 L7.9869,87.2032 L3.5509,87.7852 L3.1949,87.3162 L2.4839,88.0292 L0.6119,87.7852 L1.0799,85.2142 L0.4999,84.1632 L2.3719,82.6232 L0.9679,81.5722 L2.6149,79.5832 L5.7599,79.4702 L6.0039,78.0632 L6.9399,77.5932 L7.7639,78.1752 L9.6359,78.0632 L9.6359,77.2372 L12.3129,76.8802 L12.5559,78.1752 L14.0719,77.8182 L14.5399,76.6542 L17.1229,76.4102 L18.5269,76.9912 L19.7999,75.5832 L20.0429,78.2872 L21.4469,78.0622 L21.6719,79.1132 L22.6079,79.1132 L22.6079,76.7662 L25.8839,76.6542 L27.8489,77.7992 L29.5149,75.5842 L28.5789,74.3082 L31.0309,72.6562 L32.9029,74.0642 L33.5019,73.2382 L36.1789,72.9002 L37.2459,72.0742 L37.9379,73.7072 L38.2939,72.5432 L40.6339,72.5432 L40.5219,73.8382 L41.7939,73.9512 L41.6819,75.8282 L43.3289,76.1852 L43.3289,78.1742 L45.5379,79.8072 L45.3129,81.9282 L47.7649,83.0922 L47.7649,85.2132 L48.7009,85.2132 L48.7009,84.0302 L53.0249,81.6842 L53.7369,80.2762 L55.8339,80.6332 L57.2379,79.5822 L57.2379,81.9282 L58.0619,80.9902 L59.2409,81.3462 L59.3539,82.9792 L60.7579,82.8672 L60.9829,81.5712 L63.2099,81.8152 L63.9589,80.9702 L65.0819,79.6942 L67.8899,79.8072 L66.4859,81.6842 L68.6009,82.9792 L74.3479,82.9792 L76.5569,82.9792 L77.8299,82.3972 L77.6049,81.2152 L75.0209,80.6332 L73.3919,76.4102 L74.9089,73.3692 L74.9089,70.0842 L73.5049,67.2692 L73.5049,63.0462 L72.9249,62.2202 L72.3449,59.5162 L69.6489,56.4752 L68.8249,54.5982 L69.0689,52.3642 L68.7129,52.1202 L68.1329,51.5382 L69.0689,50.3742 L69.0689,47.7832 L66.5979,45.7942 L67.0659,44.6112 L71.4089,45.9062 L74.4409,47.8962 L77.1369,46.0192 L82.1729,46.2632 L83.3329,49.4352 L82.0399,49.4352 L81.1039,51.7812 L84.1549,55.4042 L84.2679,58.2192 L85.3719,57.9382 L88.8349,57.0562 L91.0619,58.2202 L100.6469,59.6282 L104.6339,61.8622 L109.6509,59.8722 L114.1059,57.2822 L116.8389,56.7942" id="Stroke-3" stroke="#E75F52" stroke-linecap="round" stroke-linejoin="round"></path>
        </g>
    </g>
</svg>