<?xml version="1.0" encoding="UTF-8"?>
<svg width="360px" height="258px" viewBox="0 0 360 258" version="1.1" xmlns="http://www.w3.org/2000/svg" xmlns:xlink="http://www.w3.org/1999/xlink">
    <!-- Generator: Sketch 64 (93537) - https://sketch.com -->
    <title>north-america</title>
    <desc>Created with Sketch.</desc>
    <g id="north-america" stroke="none" stroke-width="1" fill="none" fill-rule="evenodd">
        <g id="Group-4" transform="translate(10.000000, 10.472222)" fill="#FFFFFF" fill-rule="nonzero" stroke="#E6E7E7">
            <polygon id="Shape" points="79.7035276 233.307765 79.7035276 235.703241 79.9938865 236.792094 81.4456812 235.848421 82.1715785 234.832159 81.5908607 233.888486"></polygon>
            <polygon id="Shape" points="77.5258356 231.27524 78.3969124 232.364092 79.6309379 232.001141 78.9050405 231.27524"></polygon>
            <polygon id="Shape" points="73.8963489 229.533075 74.5496565 230.839698 75.0577846 230.041206 74.7674257 229.315304"></polygon>
            <polygon id="Shape" points="75.8562717 230.984879 77.1628869 231.057469 77.0902972 229.968616 76.0740409 230.113797"></polygon>
            <path d="M70.049093,227.790911 C70.049093,227.790911 69.1054265,228.807173 69.3957854,228.879763 C69.6861444,228.952354 70.8475801,229.097534 70.8475801,229.097534 L71.137939,228.371632 L70.049093,227.790911 Z" id="Shape"></path>
            <path d="M164.149778,143.827874 L164.343157,145.086297 L165.311214,147.118822 L164.826895,149.248328 L163.762439,147.893505 L163.084741,146.344721 L161.536548,146.05436 L159.116696,145.763999 L158.438999,145.763999 L158.826337,147.118822 L160.181152,149.054367 L160.181152,150.989912 L160.568491,153.119418 L162.310645,153.312798 L162.988342,154.280861 L160.85885,153.9905 L160.181152,154.474241 L160.471511,156.506766 L160.084753,158.732672 L160.181152,161.345918 L159.504035,163.088083 L158.729357,165.604349 L159.310075,167.346514 L159.697414,169.572419 L159.987773,171.217603 L159.600434,173.443509 L159.890793,174.992293 L160.568491,176.541077 L161.149209,178.476622 L161.632947,179.735045 L163.665459,181.380229 L164.633516,181.283249 L165.988331,181.476629 L164.536536,181.86397 L164.923875,182.541672 L163.665459,182.735053 L164.826895,183.993476 L165.988331,185.2519 L165.601573,186.316362 L167.149767,188.542267 L168.795521,189.897091 L168.9889,191.542275 L170.343715,192.219977 L172.182848,192.800698 L173.634643,194.059122 L174.893059,194.833223 L176.247873,195.897686 L177.02197,196.478407 L177.893047,198.413952 L182.829149,198.316972 L192.507974,201.70432 L200.541044,201.70432 L200.347665,200.930218 L204.219311,200.930218 L205.767505,201.801301 L206.638582,202.672383 L208.865054,204.221167 L209.639151,207.027794 L211.865043,208.189237 L213.220438,208.769959 L215.058991,206.544053 L217.478842,206.834414 L218.446899,207.608516 L221.060129,211.866946 L221.931206,212.93199 L222.608323,215.351275 L227.738385,217.383801 L227.544425,215.641636 L227.351046,213.22235 L228.99622,211.286225 L228.705861,210.705503 L230.351615,209.35068 L231.222692,209.834421 L232.674487,208.189237 L233.545563,207.027794 L234.803398,207.027794 L237.610589,206.447073 L239.643101,207.318155 L241.191295,207.318155 L241.772013,206.640453 L242.449711,207.124775 L242.54669,207.995857 L244.579203,208.672978 L246.514736,208.382617 L248.159909,208.479598 L246.805095,207.415135 L246.708115,206.834414 L247.579191,206.350092 L247.482792,205.866351 L246.127397,205.866351 L244.579203,206.059731 L245.546679,205.188649 L246.030998,204.607928 L246.514736,205.092249 L249.321345,204.704908 L249.708684,205.188649 L251.644217,205.188649 L252.709253,204.898288 L254.257447,204.801889 L255.709242,205.38261 L256.580318,205.28563 L257.451395,206.544053 L259.193549,206.640453 L260.161606,205.866351 L261.129662,205.866351 L263.065195,207.511535 L264.129651,208.672978 L264.42001,210.221762 L264.226631,212.157307 L264.904328,214.189832 L266.742881,216.512718 L267.807918,218.739205 L268.194676,219.610287 L270.130789,219.222946 L270.614527,217.09344 L270.614527,213.899472 L269.646471,211.286225 L269.356112,210.609104 L269.162733,208.672978 L267.517559,206.737433 L267.2272,204.414547 L267.323599,202.479003 L268.098277,200.349497 L269.550071,199.188054 L269.453091,198.316972 L271.195245,198.026611 L273.711496,195.219984 L274.872931,194.251921 L276.131347,194.445302 L277.292783,192.219396 L278.937956,191.348314 C278.937956,191.348314 280.196953,191.541694 280.293352,191.057953 C280.389751,190.574212 281.648167,188.251326 281.648167,188.251326 L280.293352,187.477224 L281.067449,186.799522 L281.260828,186.315781 L280.486731,184.380237 L279.712634,183.509154 L280.68011,182.444692 L279.906013,181.476629 L279.712634,179.541084 L279.615654,177.8959 L280.196372,177.412159 L280.583711,179.832026 L280.87407,180.993469 L281.551187,182.057931 L281.357808,183.800096 L282.422264,181.67059 L283.099961,180.025406 L283.196941,179.057343 L282.228885,177.8959 L282.131905,177.412159 L282.422264,177.121799 L283.971038,178.089861 L284.454776,176.928418 L285.519813,175.863956 L285.713192,174.702513 L285.519813,173.34769 L285.616212,172.669988 L285.810172,171.701925 L286.584269,172.766387 L286.971607,172.766387 L288.133043,172.573007 L289.294479,172.476027 L290.842673,171.992286 L290.552314,171.411564 L289.00412,171.508545 L287.552325,171.895886 L286.874628,172.283227 L286.777648,171.605525 L287.261966,171.024804 L288.519801,170.734443 L290.068576,170.444082 L291.133032,170.153721 L292.004109,169.573 L294.036621,170.056741 C294.036621,170.056741 294.907698,170.540482 295.004678,170.250121 C295.101658,169.95976 295.392017,169.185659 295.392017,169.185659 L294.714319,168.411557 L294.42396,167.250114 L294.617339,165.314569 L294.811299,163.765785 L295.682376,162.604342 L295.875755,162.120601 L296.456472,162.410962 L298.295606,160.378436 L298.972723,160.378436 L300.521498,160.185056 L301.005236,159.216993 L302.360631,159.216993 L303.522067,158.248931 L303.086528,157.716409 L302.55401,156.409786 L301.973292,155.974245 L302.215452,152.732076 L301.925093,149.780269 L300.182939,149.247747 L298.682364,149.780269 L297.860068,149.683289 L294.52094,157.474829 L292.972165,157.571809 L292.294467,158.152531 L284.068018,158.104331 L282.035506,159.991676 L280.77709,160.765778 L280.196372,162.410962 L279.906013,163.282044 L278.454218,164.250107 L277.002424,164.250107 L275.937968,163.766366 L274.582572,163.959746 L272.840419,164.540467 L272.937399,165.41155 L272.840419,166.960334 L271.969342,167.734436 L270.227188,168.121777 L267.517559,169.4766 L265.485046,170.154302 L263.548933,170.251283 L262.387497,169.3802 L262.968215,168.315738 L263.258574,168.025377 L263.645913,166.960915 L264.37181,166.525373 L265.291087,164.928389 L264.323611,163.669966 L264.129651,161.637441 L262.871816,161.250099 L261.226061,162.411542 L261.806779,161.056719 L262.774836,159.701896 L262.387497,158.443472 L262.097138,156.991669 L260.548944,156.410947 L259.193549,155.249504 L257.548375,155.927206 L257.645355,157.18563 L256.677298,158.347073 L255.903201,157.959731 L254.451407,159.604915 L254.451407,161.54046 L254.644786,163.476005 L255.515863,164.830828 L255.418883,167.734436 L253.58033,169.4766 L252.224934,169.573581 L251.547817,167.541055 L250.87012,166.089252 L251.160479,164.153707 L250.87012,162.218162 L251.547817,160.959739 L251.934576,159.701315 L252.612273,157.571809 L251.063499,159.313974 L251.934576,156.313386 L253.289971,155.151943 L254.935145,155.054962 L256.19356,154.474241 L258.226073,154.474241 L259.871247,154.474241 L260.935703,154.18388 L262.194118,154.37726 L262.774836,155.345323 L265.194687,156.216405 L265.678425,154.861582 L264.033252,155.054962 L262.968215,154.957982 L261.420021,153.796539 L260.451965,153.215817 L259.338728,152.392935 L258.226073,152.731496 L257.161036,151.957394 L254.644786,152.054374 L253.289971,152.925457 L252.224934,152.247755 L250.9671,151.473653 L249.127966,151.376672 L250.9671,148.763426 L248.837607,149.731488 L247.095454,151.086312 L245.3533,152.054374 L243.804525,152.247755 L243.611146,151.279692 L240.417198,151.957394 L243.103018,149.610118 L244.990351,148.230904 L247.337613,146.391759 L246.369556,146.246579 L243.175608,146.343559 L241.723813,146.053198 L240.417198,145.835428 L239.110583,144.891756 L237.658788,144.988736 L234.900378,144.311034 L234.174481,143.439952 L233.787142,142.085129 L233.110025,141.456207 L233.158225,142.182109 L232.480527,143.246572 L164.536536,143.294771 L164.149778,143.827874 Z" id="Shape"></path>
            <path d="M117.885728,37.5558399 L117.788748,92.9177623 L120.498958,93.4015033 L121.757374,92.6274016 L122.918809,93.5954643 L123.209168,94.7569073 L126.886855,98.4346165 L127.177213,99.9834007 L128.435629,98.8219578 L129.016347,97.9508755 L129.983823,97.7574953 L130.274182,96.886413 L132.113315,96.3056915 L133.081372,96.7894325 L133.081372,97.7574953 L137.049417,102.112906 L137.146397,103.661691 L139.17891,106.855659 L140.243366,109.468906 L142.082499,111.791792 L145.857165,114.308058 L145.372846,115.37252 L145.469826,116.824324 L144.792129,118.566489 L142.953576,120.066492 L142.759616,120.889375 L144.792129,120.018292 L145.179467,121.615276 L144.50177,122.486359 L145.082488,123.212261 L145.324647,124.325504 L143.969832,124.422484 L145.082488,125.971268 L146.050544,125.342347 L146.728242,125.100186 L148.131256,124.374284 L148.760755,125.003206 L147.792698,126.309829 L147.357159,127.326092 L147.840897,129.310417 L148.180037,127.810413 L149.292692,127.084512 L149.680031,129.068837 L149.486652,130.0851 L150.986646,130.617621 L153.261318,129.165817 L152.6806,130.907982 L150.841467,131.682084 L150.696287,132.988707 L151.277005,133.036907 C151.277005,133.036907 151.131826,134.682091 151.277005,134.779071 C151.422184,134.876052 152.922179,135.940514 152.922179,135.940514 L154.228794,136.133895 L155.48721,137.633898 C155.48721,137.633898 154.325193,137.633898 153.938435,137.585698 C153.551677,137.537498 151.373985,136.811597 151.373985,136.811597 L150.212549,135.843534 C150.212549,135.843534 148.760755,136.424255 148.954134,136.666416 C149.147513,136.908577 149.97039,137.440518 149.97039,137.440518 C149.97039,137.440518 150.937866,137.295338 150.889666,137.488718 C150.841467,137.682098 151.277005,138.650161 151.277005,138.650161 L153.164338,139.618224 L153.987215,140.876647 L154.470953,141.505568 L155.43901,141.94111 L157.326343,143.635074 L158.681158,144.070615 L160.035973,144.796517 L161.342588,145.086878 L161.342588,143.780255 L160.278132,142.521831 L158.584178,141.698949 L157.761881,139.424263 L155.584189,137.924259 L155.922748,137.730879 L156.987204,138.11822 L158.342599,139.182682 L159.164896,140.344125 L160.71367,140.247145 L161.875106,141.360388 L161.875106,142.424851 L162.552804,142.570031 L163.326901,142.18269 L164.052798,142.32787 L164.585316,142.956791 L164.536536,143.295352 L232.480527,143.247152 L233.158225,142.18269 L233.110025,141.456788 L233.787142,142.085709 L233.981102,143.150172 L234.56182,144.021254 L236.110014,144.650175 L237.658788,144.988736 L238.917204,144.940536 L239.352742,145.279097 L240.175039,145.569457 L241.336474,145.956799 L243.949705,146.295359 L246.369556,146.247159 L247.337613,146.39234 L248.11171,145.037517 L249.030986,144.553776 C249.030986,144.553776 249.515305,143.827874 249.563504,144.021254 C249.611704,144.214634 249.805664,144.795356 249.805664,144.795356 L250.482781,143.150172 L251.692997,143.973054 L253.144792,144.215215 L254.064068,144.263415 L255.225504,145.715219 L255.709242,146.876662 L256.725498,147.264003 L258.274273,147.264003 L258.177293,148.280265 L258.95197,149.248328 L259.00017,149.87725 L258.274273,150.796532 L258.85499,151.474234 L259.338728,152.393516 L260.839303,152.974237 L263.113395,153.603159 L265.388066,153.748339 C265.388066,153.748339 266.597702,154.0869 266.839861,154.13568 C267.08202,154.184461 269.017553,154.474241 269.017553,154.474241 L269.936829,155.538703 L270.711507,156.651947 L270.953086,157.474829 L271.727763,158.248931 L271.001866,158.781452 C271.001866,158.781452 270.614527,159.700734 270.469348,159.555554 C270.324168,159.410374 268.582015,158.394111 268.582015,158.394111 L267.953097,157.716409 L267.2272,157.135688 L266.742881,157.232668 L267.17842,158.394111 L267.565758,159.362174 L266.549502,160.862177 L266.307343,162.942902 L265.775405,163.813985 L265.242887,164.394706 C265.242887,164.394706 264.952528,165.217589 264.952528,165.362769 C264.952528,165.507949 264.37181,166.524212 264.37181,166.524212 L264.565189,167.201914 L263.500733,167.250114 C263.500733,167.250114 262.968215,167.976016 263.258574,168.024216 C263.548933,168.072415 264.51699,168.072415 264.51699,168.072415 L266.016984,166.813992 L267.904317,166.28147 L269.307912,166.23327 L270.856687,166.08809 C270.856687,166.08809 271.437404,165.459169 271.775963,165.410388 C272.114521,165.361608 273.179558,165.265208 273.179558,165.265208 L271.678983,163.377863 L273.082578,161.974259 L274.921712,161.538718 L278.06688,161.248357 L279.954213,160.377275 L284.068018,158.102589 L292.488427,158.005608 L292.972165,157.570067 L294.52094,157.231507 L295.440216,155.247181 L296.408273,152.779115 L297.424529,150.69839 L297.860068,149.682127 L298.682364,149.779108 L300.182939,149.246586 L301.925093,149.779108 L302.215452,152.730915 L301.973292,155.973083 L302.55401,156.408624 L303.086528,157.715248 L304.199184,157.570067 L307.054574,157.086326 L308.216009,155.973083 L309.522624,154.908621 L309.135286,156.312224 L311.506937,156.747766 L310.78104,157.231507 L309.909963,157.134526 L306.909394,158.973671 L305.457599,160.667636 L306.619035,162.893541 C306.619035,162.893541 308.119029,163.135702 308.119029,162.893541 C308.119029,162.65138 310.103342,160.377275 310.103342,160.377275 L312.135855,159.506193 L314.168367,159.506193 L315.910521,158.102589 L318.040013,156.312224 C318.040013,156.312224 319.05627,155.344742 319.201449,155.392942 C319.346629,155.441142 321.282161,153.795958 321.282161,153.795958 L320.362885,153.215237 L320.411085,151.327892 L319.685187,150.79537 L318.523751,152.973076 L317.604475,154.086319 C317.604475,154.086319 317.943614,155.005601 317.604475,154.957401 C317.265336,154.909201 315.620162,154.860421 315.620162,154.860421 L314.265347,154.957401 L314.168367,154.42488 L314.991245,153.941139 L315.910521,152.731496 L316.636418,151.570053 L314.361747,151.667033 L312.619593,151.667033 L310.82924,151.521853 L311.071399,152.344735 L312.958732,153.989919 L313.732829,154.1351 C313.732829,154.1351 313.926208,154.861001 313.781029,154.861001 C313.635849,154.861001 312.087655,154.32848 312.087655,154.32848 L310.68406,152.876676 L309.474425,152.344154 L309.232266,150.359829 L309.474425,149.295367 L309.038887,148.085724 L307.635291,147.601983 C307.635291,147.601983 307.344352,148.182704 307.247953,148.037524 C307.151553,147.892343 306.280477,146.827881 306.280477,146.827881 L306.812414,146.39234 L308.264209,146.7309 L309.764784,145.472477 L310.490681,144.262834 L310.200322,143.198372 L308.07083,142.279089 L304.973861,142.327289 L302.65099,143.246572 L299.602221,145.327297 L297.811287,146.8273 L295.972734,149.053206 L294.32698,150.74717 L292.778786,151.279692 L296.166113,148.230904 L297.27935,145.569457 L298.973304,143.730313 L301.296175,141.891168 L302.989548,141.842968 L304.586523,139.374901 L306.522636,138.358639 L311.652117,138.406839 L311.603917,139.520082 L310.248522,139.568282 L311.361758,140.439364 L313.249091,141.842968 L315.910521,142.90743 L317.217136,142.520089 L315.039444,141.116485 L313.055712,140.100222 L311.990675,139.616481 L311.942476,138.648419 L313.53945,138.406258 L316.346059,138.454458 L317.943034,138.938199 L319.830367,138.502658 L321.379141,138.502658 L322.540577,137.824956 L323.459853,136.130991 L325.008628,134.582207 L326.895961,133.808105 L328.541135,133.711125 L329.364012,133.904505 L329.218832,134.775587 L327.912217,136.372571 L327.767038,137.776175 L327.815237,138.889418 L326.363443,139.373159 L326.073084,141.841225 L326.411642,142.664108 L325.298987,143.244829 L324.37913,144.599653 C324.37913,144.599653 323.024896,144.502672 323.411654,144.744833 C323.798412,144.986994 325.492366,145.470735 325.492366,145.470735 L324.040571,146.680378 C324.040571,146.680378 323.169494,148.083982 323.314674,148.180381 C323.459853,148.276781 325.008628,148.228581 325.008628,148.228581 L328.395955,148.035201 L330.041129,148.180381 L332.073642,147.74484 C332.073642,147.74484 331.686883,148.954483 331.832063,148.954483 C331.977242,148.954483 332.896519,148.664122 332.896519,148.664122 L333.815795,148.421961 L332.944718,149.486424 L332.412781,150.357506 C332.412781,150.357506 331.492924,150.841247 331.638103,150.890028 C331.783283,150.938808 333.283858,151.035208 333.283858,151.035208 L334.251334,149.776785 L334.977231,149.341244 L336.042267,147.98642 L336.719384,148.083401 L336.477806,149.825565 L335.800108,151.37435 L337.300102,149.922546 L337.251903,151.51953 L338.848877,151.71291 L339.574774,148.906283 L338.558518,148.664122 L339.381395,146.921958 L337.687441,147.212319 L337.009743,147.067138 L337.154923,146.196056 L338.606718,145.663534 L338.751897,142.421366 L337.590461,144.937633 L336.719384,145.179793 L337.348883,142.034025 L335.26759,141.259923 L333.622416,142.421366 L332.751339,142.421366 L332.896519,141.453304 L331.638103,141.162943 L332.55796,139.662939 L331.347744,139.275598 L330.767026,139.033437 L329.412212,141.017762 L329.70257,139.130418 L330.428468,137.775594 L331.057385,136.759332 L331.347744,136.22681 L331.832063,135.936449 L331.928462,135.113567 L331.347744,134.339465 L331.735083,133.806944 L332.896519,133.274422 L332.315801,132.887081 L330.912206,133.080461 L329.75077,133.709382 L329.024873,133.419022 L330.476667,132.596139 L331.928462,131.482896 L332.218821,130.079292 L331.202565,129.40159 L331.783283,128.288347 L331.492924,127.175104 L332.170621,126.352222 L331.106166,124.610057 L329.218832,124.513077 L328.541135,125.384159 L327.621858,125.8679 L327.815237,124.803438 L328.589334,123.593795 L327.621858,122.480552 L325.685745,122.722712 L324.23395,123.593795 L323.653232,125.093798 L322.491797,124.900418 L320.749643,125.7715 L320.894823,124.852218 L322.395398,123.303434 L324.911648,122.093791 L326.99236,121.125728 C326.99236,121.125728 327.23452,120.545007 327.08934,120.399826 C326.944161,120.254646 325.444166,119.480544 325.298987,119.480544 C325.153807,119.480544 323.847192,119.238383 323.847192,119.238383 L323.072515,118.07694 L321.088782,118.754642 C321.088782,118.754642 320.314105,117.83536 320.314105,117.69018 C320.314105,117.545 321.136982,116.722117 321.136982,116.722117 L320.604464,115.608874 L319.297848,114.931172 C319.297848,114.931172 317.798435,114.10829 317.749655,113.963109 C317.700874,113.817929 317.265336,112.656486 317.265336,112.656486 L315.329803,112.317925 L315.910521,111.640223 L314.313547,111.204682 L316.974977,110.575761 L318.040013,109.366118 L317.168937,108.592016 L316.346059,108.108275 L315.523182,107.769715 L316.491239,106.560072 L315.620162,105.592009 C315.620162,105.592009 314.894265,104.333585 314.700886,104.333585 L312.765353,104.333585 L314.168367,102.736601 L313.249091,102.591421 L312.378014,102.20408 L313.974988,101.478178 L312.958732,99.8329939 L310.87802,100.268535 L312.716573,99.0101115 L311.990675,98.0908294 L311.071399,96.9775863 L310.635861,96.590245 L310.200322,95.2354218 L309.861764,93.9287984 L309.232266,93.0095163 L308.603348,94.6547003 L307.780471,96.2034845 L307.829251,97.1227667 L307.974431,98.1390293 L307.199753,99.0101115 L306.522636,100.655296 L305.4094,100.703495 L304.102785,102.348679 L302.55401,103.316742 L301.199195,102.54264 L300.134739,100.607096 L296.795612,100.704076 L297.908267,99.4944332 L297.617908,98.4299707 L296.795612,97.5106886 L297.327549,95.9619044 L295.585396,95.3811829 L297.521509,94.3649203 L297.085971,92.9613164 L297.13417,91.2191519 L297.763088,90.1546894 L296.117914,90.009509 L294.230581,89.6709484 L291.61735,89.042027 L291.71433,87.4932428 L290.988433,86.3317998 L289.681818,85.6058979 L289.826997,84.6378352 L289.439658,84.1540942 L288.230023,83.4281923 L286.778228,82.5089102 L284.842115,83.4769729 L284.164998,84.2028748 L282.906582,83.4769729 L281.261409,83.0896317 L278.357819,82.3155299 L276.131347,82.4607103 C276.131347,82.4607103 275.647609,84.3480552 275.792788,84.4932356 C275.937968,84.6384159 277.341563,86.6227413 277.341563,86.6227413 L277.099404,88.0263451 L275.792788,90.591392 L277.534942,91.3172939 L277.147603,93.1076582 L277.873501,94.3173011 L277.680122,95.720905 L277.195803,97.0757282 L275.937968,98.7209122 C275.937968,98.7209122 274.195814,99.1082535 274.195814,99.3986142 C274.195814,99.6889749 274.679552,102.592582 274.679552,102.592582 L277.195803,104.334747 L278.454218,108.496778 L279.034936,112.174487 L277.776521,114.787734 L275.840988,118.562424 L271.969342,119.820847 L273.711496,122.821435 L274.001855,126.983466 L274.389193,129.693693 C274.389193,129.693693 274.389193,131.919599 274.098834,132.016579 C273.808476,132.11356 271.388624,133.468383 271.388624,133.468383 L270.807906,134.823206 L269.065753,133.564783 L268.872374,131.532257 L267.2272,130.177434 L265.581445,127.370807 L265.581445,123.402737 L264.51699,121.757553 L265.194687,118.370205 L260.645344,117.886464 L256.580318,117.886464 L254.354427,115.370198 L249.999043,111.692488 L245.934018,109.853343 L243.611146,108.788881 L240.320218,110.143704 L239.449141,106.369014 L237.997347,103.078066 L236.739512,100.94856 L234.706999,100.75518 L233.932322,99.0130151 L233.835922,95.5286861 L234.900378,91.5606162 L237.32023,86.8178637 L238.868423,83.720876 L239.7395,81.881731 L241.578634,81.39799 C241.578634,81.39799 239.7395,80.6238882 240.029859,80.6238882 C240.320218,80.6238882 244.482223,80.5269077 244.482223,80.5269077 L243.223807,77.0425788 L244.869562,75.7841553 L246.998474,73.9450103 L249.999043,73.1709085 L253.38637,66.3956308 L248.547248,65.4275681 L245.643659,62.5239606 L250.096023,64.5564859 L253.096011,64.9438271 L255.709242,60.7817961 L253.870689,58.6522904 L255.225504,57.8781887 L258.612831,57.9751691 L258.90319,60.3950356 L261.226061,59.6209339 L263.258574,58.6528711 L265.581445,56.4269656 L268.775394,52.9426367 L267.13022,50.7167312 L265.581445,48.2968647 L265.097707,45.1998769 L265.871804,45.3932572 L267.323599,43.0703712 L266.259143,41.8119477 L267.420579,40.5535243 L265.291087,40.0697832 L264.807349,37.9402775 L262.194118,36.681854 L259.871247,36.0041521 L256.870677,36.3914933 L257.451395,41.2306455 L258.612831,41.811367 L257.935714,43.8438923 L256.483919,44.0372725 L253.967088,51.7800322 L251.353858,52.6511145 L249.999043,48.1987228 L251.353858,45.8758368 L248.547248,41.5204255 L246.611716,40.455963 L244.675602,42.5854688 L245.25632,46.8438995 L243.611146,41.2300648 L242.449711,38.8101983 L241.578634,37.1650143 L239.83648,36.2939321 L240.029859,34.0680266 L241.385255,33.7776658 L239.158782,29.0349134 L238.094327,26.3246862 L236.932891,23.5180592 L235.287717,21.8728752 L233.932322,19.8403499 L235.964834,18.6789069 L234.126281,19.0662482 L236.158794,17.3240837 L236.739512,15.5819192 L235.868435,13.9367352 L234.803398,13.0656529 L236.061814,12.4849315 L239.255762,12.4849315 L240.610577,13.0656529 L242.449711,7.35541847 L244.482223,4.54879148 L244.965961,1.93554475 L241.578634,1.16144299 L239.93346,1.45180374 L238.094327,0 L233.351604,0 L231.60945,1.93554475 L234.029301,3.87108949 L231.125712,3.87108949 L231.028732,7.54879873 L231.60945,11.226508 L231.319091,12.871692 L232.770886,14.3234957 L232.287148,16.2590405 L233.158225,18.5819264 L232.674487,20.0337302 L231.80341,21.6789142 L230.932333,23.7114394 L231.028732,24.9698629 L229.964276,24.7764826 L229.286579,28.2608116 L230.254635,29.3252741 L228.99622,31.9385209 L229.190179,34.1644264 L231.222692,36.2939321 L233.061245,36.9716341 L233.448584,37.8427163 L236.061814,37.9396968 L234.610019,39.5848808 L234.126281,42.8758295 L235.771455,41.617406 L236.449153,44.3276333 L234.22268,47.3282212 L232.384128,47.8119622 L231.416071,50.3282285 L232.480527,52.3607537 L232.093769,53.4252162 L229.964276,52.6511145 L230.448014,49.4571462 L230.157655,47.3276405 L228.609462,46.6499385 L227.641405,45.1981348 L228.899821,45.2951153 L231.319091,43.8433115 L232.287148,43.3595705 L230.448014,42.5854688 L230.738373,40.2625828 L228.802841,38.9077595 L226.18961,36.1011325 L224.544436,37.359556 L225.318533,39.2951008 L223.769759,40.843885 L221.737246,42.1987083 L224.544436,44.5215942 L226.382989,44.2312335 L226.866727,45.1023157 L225.705292,45.7800177 L223.866739,46.7480805 L224.737816,48.1998842 L225.318533,49.0709664 L223.963138,50.0390292 L219.124016,49.9420487 L216.317406,50.8131309 L212.929498,49.2643467 L210.219869,47.328802 C210.219869,47.328802 208.380155,47.6191627 208.283755,47.2318215 C208.187356,46.8444802 206.638582,44.7155552 206.638582,44.7155552 L206.348223,43.360732 L205.089807,42.2962695 L202.573557,43.6510927 L200.250685,45.005916 C200.250685,45.005916 198.605511,46.6511 199.476588,46.7480805 C200.347665,46.8450609 202.573557,47.4257824 202.573557,47.4257824 L204.41269,45.1028965 L203.928371,47.9095234 L201.992839,48.6836252 L201.218742,51.5872327 L202.380178,55.5553027 L200.541044,55.4583222 L199.669967,51.8770127 L197.444076,51.6836325 L195.798321,49.6511072 L192.217615,49.8444875 L189.314025,50.2318287 L186.216476,50.61917 L181.474334,50.1354289 L182.926129,47.5221822 L185.3454,47.0384412 L184.280944,44.6185747 L181.377354,42.68303 L177.602688,42.8764102 L174.118381,41.0372653 L172.473207,39.8758223 L169.859977,38.6173988 C169.859977,38.6173988 167.633505,37.843297 167.343146,37.5529363 C167.052787,37.2625755 165.794371,36.3914933 164.729915,36.3914933 C163.665459,36.3914933 162.020286,36.2945128 162.020286,36.2945128 L161.729927,39.00474 L159.116696,39.00474 L159.890793,36.7788345 L158.535978,35.9077523 C158.535978,35.9077523 158.826337,34.2625683 158.438999,34.3589681 C158.05166,34.4553678 155.728788,35.9077523 155.728788,35.9077523 L155.632389,38.3276188 L154.664332,38.8113598 L152.63182,35.3270308 L151.470384,32.5204038 L149.244492,30.3908981 C149.244492,30.3908981 147.502339,32.9071643 147.792698,33.0041448 C148.083057,33.1011253 149.437872,33.6818468 149.437872,33.6818468 L147.308379,35.714372 L145.663205,35.3270308 L146.050544,33.6818468 L144.59875,33.6818468 L142.275878,35.6173915 L140.243366,36.9722148 L136.468699,38.2306383 L135.500643,39.682442 L134.532586,38.2306383 L133.951868,37.2625755 L132.113315,38.327038 L131.338638,39.6818613 L132.790432,41.5210063 L132.403674,42.97281 L129.886843,43.0697905 L127.273613,42.5860495 L125.725419,41.7149672 L124.660382,40.9408655 L123.498946,39.2956815 L121.950753,39.0053207 L120.014639,37.9408582 L117.885728,37.5558399 Z" id="Shape"></path>
            <path d="M116.143574,36.8781379 L112.368908,34.8456127 L108.594242,33.3938089 L106.27137,35.4263342 L102.206345,33.1034482 L95.5280895,31.9420052 L91.4630645,31.9420052 L88.5594751,30.7805622 L88.2691162,28.748037 L84.784809,28.748037 L81.8812196,27.2962332 L80.7197839,27.0058725 L78.9776303,25.263708 L76.3643999,24.9733472 L74.9126052,27.0058725 L70.8475801,28.4576762 L67.9439907,29.9094799 L66.2018371,33.1034482 L63.2982478,33.6841697 L61.5560942,37.4588594 L60.9753763,40.9431884 L58.071787,42.9757136 L54.0067619,43.2660744 L52.5549672,45.8793211 L55.4585565,49.0732893 L58.3621459,51.1058146 L60.3946584,54.5901435 L62.7175299,55.4612258 L64.7500425,56.0419473 C64.7500425,56.0419473 64.4596835,57.7841118 65.3307603,57.7841118 C66.2018371,57.7841118 67.6536318,57.493751 67.6536318,57.493751 L67.3632729,60.6877193 L65.0404014,59.5262763 C65.0404014,59.5262763 65.9114782,60.6877193 65.0404014,60.6877193 L61.2657352,60.6877193 L59.5235816,60.6877193 L59.8139406,58.3648333 L57.2007102,58.655194 L55.1681976,60.1069978 L53.7164029,61.5588015 L51.3935315,63.300966 L49.3610189,64.462409 L52.8453261,67.946738 L53.7164029,70.2696239 L55.7489155,71.1407062 L60.3946584,70.5599847 L62.427171,71.7214277 L66.782555,70.2696239 L66.2018371,72.0117884 L67.3632729,73.4635922 L66.4921961,76.0768389 L63.8789657,76.9479212 L60.6850174,79.2708071 L58.6525048,78.9804464 L56.6199923,81.3033324 C56.6199923,81.3033324 56.6199923,81.3033324 55.7489155,83.0454969 C54.8778387,84.7876614 53.426044,86.2394651 53.426044,86.2394651 L53.426044,90.3045156 L55.7489155,90.3045156 L57.2007102,91.7563193 L56.3296334,92.6274016 L52.2646083,93.2081231 L50.8128136,94.6599268 L54.2001409,96.4020913 L55.4585565,94.7569073 L55.4585565,93.1117233 L56.3296334,93.2087038 L56.9103512,94.079786 L57.9748071,94.9508683 L59.8139406,96.5960523 L62.427171,96.402672 L63.2012679,94.9508683 L64.6530626,95.918931 L64.8470223,97.8544757 L63.9759455,99.4996597 L65.1373813,101.435204 L64.9434215,102.499667 L68.0409706,100.564122 L69.1054265,101.435204 L71.2349189,101.532185 L71.9120359,103.661691 L73.1704516,100.855064 L73.9445485,102.016507 L76.9451177,100.661683 L75.3963432,102.984569 L75.299944,104.726734 L74.9126052,107.04962 L73.3638306,108.501424 L72.2993748,110.050208 L72.2023949,110.72791 L70.7506002,111.018271 L68.5247086,112.663455 C68.5247086,112.663455 67.7506117,114.018278 67.7506117,114.405619 C67.7506117,114.79296 67.9439907,115.179721 67.9439907,115.179721 L66.6855751,115.276701 L66.3952162,114.88936 L63.8789657,115.08274 L63.1048687,116.727924 L61.943433,117.889367 C61.943433,117.889367 60.8783964,117.889367 60.8783964,118.179728 C60.8783964,118.470089 60.7819973,119.438152 60.7819973,119.438152 L59.7169607,119.05081 L57.8784079,119.824912 L57.2007102,120.889375 L54.5874797,122.438159 L52.5549672,123.502621 L50.9097935,123.792982 L51.2965516,124.373704 L50.3290756,125.632127 L49.1676399,125.244786 L47.0381474,126.88997 L45.1990139,127.858033 L42.4893844,128.148393 L37.2629235,130.858621 L34.7460923,130.955601 L33.4882574,129.891139 L32.3268216,130.762221 L31.2617851,130.859201 L29.2292725,131.246543 L27.7774779,131.343523 L27.0033809,131.924244 L25.9383444,131.827264 L23.7124528,131.730284 L24.0028117,132.504385 L21.2926014,132.214025 L17.711895,131.536323 L15.4854227,131.536323 L12.6788132,131.439342 L2.51625053,128.148393 L0.77409692,127.277311 L4.47554567e-14,127.664652 L0.386758101,128.535735 L2.70962958,128.535735 L11.9047163,131.729703 L12.2914744,132.407405 L13.5498901,131.826683 L16.9372174,131.923664 L23.034755,132.891727 L24.3901505,133.472448 L25.5515863,132.698346 L25.9383444,132.214605 L27.0997801,132.407985 L26.713022,133.569428 L28.0678368,132.504966 L27.9708569,131.730864 L30.9714261,131.440503 L32.2298418,131.633884 L33.6816364,131.053162 L33.9719954,130.956182 L34.0683945,131.633884 L36.391266,131.633884 L36.681625,131.150143 L40.74665,129.891719 L41.9080858,128.923657 L42.3924045,129.504378 L43.4568603,128.342935 L44.715276,128.536315 L46.0700907,127.955594 L46.5538287,128.342935 L48.2959823,127.278473 L49.6513779,125.923649 L49.6513779,126.504371 L51.4899306,126.02063 L53.1356851,124.762206 L53.426044,124.084504 L53.426044,123.600763 L54.2971208,123.117022 L55.6519356,123.020042 L55.9422945,122.24594 L57.2007102,121.471838 L58.071787,121.278458 L59.0398436,120.407376 L60.4916383,120.504356 L60.9753763,119.826654 L61.4591143,119.052553 L62.2337919,119.245933 L62.8145098,117.794129 L63.3952277,118.858592 L64.5566634,117.794129 L65.5241394,116.439306 L66.2018371,117.310388 L67.1698938,116.632686 L69.2024064,115.858584 L70.2668622,115.084483 L70.0734832,116.536286 L71.7186569,114.600742 L73.9445485,113.536279 L73.6541896,112.665197 L75.0095851,111.891095 L76.3643999,110.826633 L77.8161945,109.568209 L78.4938923,108.213386 L79.2679892,107.439284 C79.2679892,107.439284 80.8167638,106.277841 81.1071227,105.98748 C81.3974816,105.69712 83.8167523,103.857975 83.8167523,103.857975 L84.49445,102.406171 L86.2366036,101.728469 L85.9462447,100.760406 L84.010712,100.276665 L85.0751679,97.7603989 L86.3335835,96.3085951 L87.3010595,96.5989559 L88.0757371,95.2441326 L87.2046603,93.7923289 L88.4624952,93.7923289 L90.1082497,91.3724624 L91.1727055,90.1140389 C91.1727055,90.1140389 92.8178793,89.7266977 93.1082382,89.7266977 C93.3985971,89.7266977 95.1407507,90.1140389 95.1407507,90.1140389 L94.0762949,90.5013802 L93.011839,90.2110194 L91.5600443,91.2754819 L90.7853667,92.1465642 L91.4630645,93.3080071 L90.9793265,95.1471521 L89.9142899,96.5019754 L90.4950078,97.2760771 L92.0437823,97.1790966 L90.5919877,98.0501789 L89.7209109,98.5339199 L90.2046488,99.5983824 L92.5275203,99.2110412 L94.0762949,98.0495982 L95.0443516,96.7911747 L96.9798842,95.0490102 L97.5606021,95.8231119 L99.3997356,93.983967 L99.5931146,92.144822 L98.4316789,91.7574808 L98.5286588,90.6930182 L100.173833,89.4345948 C100.173833,89.4345948 99.9804535,90.789418 100.270812,90.5960378 C100.561171,90.4026575 101.915986,90.1122968 101.915986,90.1122968 L103.464761,89.821936 L103.077422,90.8863985 L104.529217,91.7574808 L102.980442,93.2092845 L104.916555,92.8219433 L106.658709,93.4996452 L108.013524,94.1773472 L109.852657,94.0803667 L109.755677,95.0484295 L113.530344,94.8550492 L115.950195,95.14541 L117.014651,96.1134727 L119.91824,96.2104532 L121.273055,95.5327512 L120.692337,97.4682959 L122.918809,98.2423977 L124.273624,98.435778 L125.047721,100.177942 L126.209157,102.597809 L127.757931,103.275511 L129.112746,103.17853 L129.597065,102.210468 L128.532028,100.855644 L130.371162,102.210468 L131.145259,103.08155 L132.113315,103.662271 L131.532597,99.4038407 L132.210295,100.662264 L133.56511,103.17853 L134.629566,104.049613 L133.46813,104.727315 L132.403674,105.211056 L130.371162,103.759252 L129.209726,104.436954 L130.080803,107.437542 L131.048859,107.630922 L131.725977,109.373087 L133.274751,112.760435 L133.177771,110.050208 L132.597053,107.920702 L130.758501,106.468898 L132.791013,106.85624 L132.694033,105.694797 L133.177771,105.307455 L133.855469,107.339981 L133.56511,109.469486 L135.113885,107.920702 L135.113885,106.468898 L134.339207,104.726734 L135.307264,104.823714 L136.17834,105.888177 L136.468699,107.243 L136.952437,109.178545 L135.404244,109.662286 L134.242808,110.339988 L134.919925,112.565893 L135.500643,111.11409 L136.565679,111.985172 L137.630135,111.017109 L137.533155,109.855666 L138.694591,111.40445 L139.08193,112.468913 L137.533155,112.952654 L135.597623,112.952654 L135.694602,114.985179 L136.565679,115.856261 L136.856038,117.405046 L137.630135,118.95383 L139.469269,119.244191 L139.275309,117.405046 L138.888551,115.27554 L138.113873,113.630356 L138.307833,113.243015 L139.662648,114.501438 L140.049986,113.243015 L139.759628,115.662881 L140.921063,115.856261 L141.59818,114.791799 L141.017462,116.824324 L141.888539,118.373108 L142.566237,117.792387 L142.953576,119.341171 L142.953576,119.921893 L144.792129,118.567069 L145.469826,116.824905 L145.372846,115.373101 L145.857165,114.308639 L142.082499,111.792372 L140.243366,109.469486 L139.17891,106.85624 L137.146397,103.662271 L137.049417,102.113487 L133.081372,97.758076 L133.081372,96.7900132 L132.113315,96.3062722 L130.274182,96.8869937 L129.983823,97.758076 L129.016347,97.9514562 L128.919367,98.919519 L127.177213,99.9839815 L126.886855,98.4351972 L124.660963,96.5960523 L123.209168,94.7569073 L122.918809,93.5954643 L121.757374,92.6274016 L120.498958,93.4015033 L117.788748,92.9177623 L117.885728,37.5558399 L116.143574,36.8781379 Z" id="Shape"></path>
        </g>
        <circle id="Oval-Copy-2" stroke="#FFFFFF" fill="#E75F52" cx="170.45421" cy="176.45421" r="2.45420953"></circle>
        <circle id="Oval-Copy-3" stroke="#FFFFFF" fill="#E75F52" cx="173.408419" cy="179.408419" r="2.45420953"></circle>
        <circle id="Oval-Copy-4" stroke="#FFFFFF" fill="#E75F52" cx="173.408419" cy="182.362629" r="2.45420953"></circle>
        <circle id="Oval-Copy-8" stroke="#FFFFFF" fill="#E75F52" cx="99.9542095" cy="98.9542095" r="2.45420953"></circle>
        <circle id="Oval-Copy-5" stroke="#FFFFFF" fill="#E75F52" cx="292.95421" cy="194.45421" r="2.45420953"></circle>
        <circle id="Oval-Copy-6" stroke="#FFFFFF" fill="#E75F52" cx="292.95421" cy="185.316838" r="2.45420953"></circle>
        <circle id="Oval-Copy-7" stroke="#FFFFFF" fill="#E75F52" cx="287.04579" cy="194.45421" r="2.45420953"></circle>
        <circle id="Oval-Copy-46" stroke="#FFFFFF" fill="#E75F52" cx="176.653594" cy="184.223504" r="2.24517448"></circle>
        <circle id="Oval-Copy-51" stroke="#FFFFFF" fill="#E75F52" cx="182.143943" cy="202.076884" r="2.24517448"></circle>
        <circle id="Oval-Copy-54" stroke="#FFFFFF" fill="#E75F52" cx="182.143943" cy="196.586535" r="2.24517448"></circle>
        <circle id="Oval-Copy-55" stroke="#FFFFFF" fill="#E75F52" cx="284.697326" cy="199.33171" r="2.24517448"></circle>
        <circle id="Oval-Copy-56" stroke="#FFFFFF" fill="#E75F52" cx="290.187675" cy="181.47833" r="2.24517448"></circle>
        <circle id="Oval-Copy-57" stroke="#FFFFFF" fill="#E75F52" cx="287.4425" cy="186.968679" r="2.24517448"></circle>
        <circle id="Oval-Copy-58" stroke="#FFFFFF" fill="#E75F52" cx="292.932849" cy="186.968679" r="2.24517448"></circle>
        <circle id="Oval-Copy-59" stroke="#FFFFFF" fill="#E75F52" cx="277.617537" cy="192.459028" r="2.24517448"></circle>
        <circle id="Oval-Copy-60" stroke="#FFFFFF" fill="#E75F52" cx="265.304861" cy="186.968679" r="2.24517448"></circle>
        <circle id="Oval-Copy-61" stroke="#FFFFFF" fill="#E75F52" cx="265.304861" cy="191.096187" r="2.24517448"></circle>
        <circle id="Oval-Copy-62" stroke="#FFFFFF" fill="#E75F52" cx="274.872363" cy="184.223504" r="2.24517448"></circle>
        <circle id="Oval-Copy-63" stroke="#FFFFFF" fill="#E75F52" cx="252.734723" cy="189.713853" r="2.24517448"></circle>
        <circle id="Oval-Copy-64" stroke="#FFFFFF" fill="#E75F52" cx="224.645615" cy="209.772307" r="2.24517448"></circle>
        <circle id="Oval-Copy-65" stroke="#FFFFFF" fill="#E75F52" cx="205.280565" cy="192.459028" r="2.24517448"></circle>
        <circle id="Oval-Copy-69" stroke="#FFFFFF" fill="#E75F52" cx="268.226279" cy="148.617454" r="2.24517448"></circle>
        <circle id="Oval-Copy-66" stroke="#FFFFFF" fill="#E75F52" cx="273.716628" cy="154.107803" r="2.24517448"></circle>
        <circle id="Oval-Copy-67" stroke="#FFFFFF" fill="#E75F52" cx="279.206977" cy="193.841361" r="2.24517448"></circle>
        <circle id="Oval-Copy-68" stroke="#FFFFFF" fill="#E75F52" cx="280.620173" cy="191.096187" r="2.24517448"></circle>
    </g>
</svg>