<?xml version="1.0" encoding="UTF-8"?>
<svg width="500px" height="10px" viewBox="0 0 500 10" version="1.1" xmlns="http://www.w3.org/2000/svg" xmlns:xlink="http://www.w3.org/1999/xlink">
    <!-- Generator: Sketch 64 (93537) - https://sketch.com -->
    <title>109</title>
    <desc>Created with Sketch.</desc>
    <defs>
        <polygon id="path-1" points="0 0.9071 5.093 0.9071 5.093 6 0 6"></polygon>
        <polygon id="path-3" points="0.127 0.9071 5.22 0.9071 5.22 6 0.127 6"></polygon>
        <polygon id="path-5" points="0.2544 0.9071 5.3474 0.9071 5.3474 6 0.2544 6"></polygon>
        <polygon id="path-7" points="0.3813 0.9071 5.4743 0.9071 5.4743 6 0.3813 6"></polygon>
        <polygon id="path-9" points="0.5083 0.9071 5.6013 0.9071 5.6013 6 0.5083 6"></polygon>
        <polygon id="path-11" points="0.6357 0.9071 5.7287 0.9071 5.7287 6 0.6357 6"></polygon>
        <polygon id="path-13" points="0.7627 0.9071 5.8557 0.9071 5.8557 6 0.7627 6"></polygon>
        <polygon id="path-15" points="0.8901 0.9071 5.9831 0.9071 5.9831 6 0.8901 6"></polygon>
        <polygon id="path-17" points="0.0171 0.9071 5.1101 0.9071 5.1101 6 0.0171 6"></polygon>
        <polygon id="path-19" points="0.144 0.9071 5.237 0.9071 5.237 6 0.144 6"></polygon>
        <polygon id="path-21" points="0.2715 0.9071 5.3645 0.9071 5.3645 6 0.2715 6"></polygon>
        <polygon id="path-23" points="0.3984 0.9071 5.4914 0.9071 5.4914 6 0.3984 6"></polygon>
        <polygon id="path-25" points="0.5254 0.9071 5.6184 0.9071 5.6184 6 0.5254 6"></polygon>
        <polygon id="path-27" points="0.6528 0.9071 5.7458 0.9071 5.7458 6 0.6528 6"></polygon>
        <polygon id="path-29" points="0.7798 0.9071 5.8728 0.9071 5.8728 6 0.7798 6"></polygon>
        <polygon id="path-31" points="0.9072 0.9071 6.0002 0.9071 6.0002 6 0.9072 6"></polygon>
        <polygon id="path-33" points="0.0342 0.9071 5.1272 0.9071 5.1272 6 0.0342 6"></polygon>
        <polygon id="path-35" points="0.1611 0.9071 5.2541 0.9071 5.2541 6 0.1611 6"></polygon>
        <polygon id="path-37" points="0.2886 0.9071 5.3816 0.9071 5.3816 6 0.2886 6"></polygon>
        <polygon id="path-39" points="0.4155 0.9071 5.5085 0.9071 5.5085 6 0.4155 6"></polygon>
        <polygon id="path-41" points="0.5425 0.9071 5.6355 0.9071 5.6355 6 0.5425 6"></polygon>
        <polygon id="path-43" points="0.6699 0.9071 5.7629 0.9071 5.7629 6 0.6699 6"></polygon>
        <polygon id="path-45" points="0.7969 0.9071 5.8899 0.9071 5.8899 6 0.7969 6"></polygon>
        <polygon id="path-47" points="0.9238 0.9071 6.0168 0.9071 6.0168 6 0.9238 6"></polygon>
        <polygon id="path-49" points="0.0513 0.9071 5.1443 0.9071 5.1443 6 0.0513 6"></polygon>
        <polygon id="path-51" points="0.1782 0.9071 5.2712 0.9071 5.2712 6 0.1782 6"></polygon>
        <polygon id="path-53" points="0.3057 0.9071 5.3987 0.9071 5.3987 6 0.3057 6"></polygon>
        <polygon id="path-55" points="0.4326 0.9071 5.5256 0.9071 5.5256 6 0.4326 6"></polygon>
        <polygon id="path-57" points="0.5596 0.9071 5.6526 0.9071 5.6526 6 0.5596 6"></polygon>
        <polygon id="path-59" points="0.687 0.9071 5.78 0.9071 5.78 6 0.687 6"></polygon>
        <polygon id="path-61" points="0.814 0.9071 5.907 0.9071 5.907 6 0.814 6"></polygon>
        <polygon id="path-63" points="0.9409 0.9071 6.0339 0.9071 6.0339 6 0.9409 6"></polygon>
        <polygon id="path-65" points="0.0684 0.9071 5.1614 0.9071 5.1614 6 0.0684 6"></polygon>
        <polygon id="path-67" points="0.1953 0.9071 5.2883 0.9071 5.2883 6 0.1953 6"></polygon>
        <polygon id="path-69" points="0.3228 0.9071 5.4158 0.9071 5.4158 6 0.3228 6"></polygon>
        <polygon id="path-71" points="0.4497 0.9071 5.5427 0.9071 5.5427 6 0.4497 6"></polygon>
        <polygon id="path-73" points="0.5771 0.9071 5.6701 0.9071 5.6701 6 0.5771 6"></polygon>
        <polygon id="path-75" points="0.7041 0.9071 5.7971 0.9071 5.7971 6 0.7041 6"></polygon>
        <polygon id="path-77" points="0.8311 0.9071 5.9241 0.9071 5.9241 6 0.8311 6"></polygon>
        <polygon id="path-79" points="0.958 0.9071 6.051 0.9071 6.051 6 0.958 6"></polygon>
        <polygon id="path-81" points="0.085 0.9071 5.179 0.9071 5.179 6 0.085 6"></polygon>
        <polygon id="path-83" points="0.2129 0.9071 5.3059 0.9071 5.3059 6 0.2129 6"></polygon>
        <polygon id="path-85" points="0.3398 0.9071 5.4328 0.9071 5.4328 6 0.3398 6"></polygon>
        <polygon id="path-87" points="0.4668 0.9071 5.5598 0.9071 5.5598 6 0.4668 6"></polygon>
        <polygon id="path-89" points="0.5937 0.9071 5.6867 0.9071 5.6867 6 0.5937 6"></polygon>
        <polygon id="path-91" points="0.7207 0.9071 5.8147 0.9071 5.8147 6 0.7207 6"></polygon>
        <polygon id="path-93" points="0.8477 0.9071 5.9417 0.9071 5.9417 6 0.8477 6"></polygon>
        <polygon id="path-95" points="0.9756 0.9071 6.0686 0.9071 6.0686 6 0.9756 6"></polygon>
        <polygon id="path-97" points="0.1025 0.9071 5.1955 0.9071 5.1955 6 0.1025 6"></polygon>
        <polygon id="path-99" points="0.2295 0.9071 5.3225 0.9071 5.3225 6 0.2295 6"></polygon>
        <polygon id="path-101" points="0.3564 0.9071 5.4494 0.9071 5.4494 6 0.3564 6"></polygon>
    </defs>
    <g id="109" stroke="none" stroke-width="1" fill="none" fill-rule="evenodd">
        <g id="Group-155" transform="translate(0.000000, 2.000000)">
            <g id="Group-154">
                <g id="Group-3" transform="translate(0.000000, 0.093020)">
                    <mask id="mask-2" fill="white">
                        <use xlink:href="#path-1"></use>
                    </mask>
                    <g id="Clip-2"></g>
                    <path d="M0,3.4531 C0,2.0471 1.14,0.9071 2.546,0.9071 C3.953,0.9071 5.093,2.0471 5.093,3.4531 C5.093,4.8601 3.953,6.0001 2.546,6.0001 C1.14,6.0001 0,4.8601 0,3.4531" id="Fill-1" fill="#65BDB8" mask="url(#mask-2)"></path>
                </g>
                <g id="Group-6" transform="translate(7.000000, 0.093020)">
                    <mask id="mask-4" fill="white">
                        <use xlink:href="#path-3"></use>
                    </mask>
                    <g id="Clip-5"></g>
                    <path d="M0.127,3.4531 C0.127,2.0471 1.267,0.9071 2.674,0.9071 C4.08,0.9071 5.22,2.0471 5.22,3.4531 C5.22,4.8601 4.08,6.0001 2.674,6.0001 C1.267,6.0001 0.127,4.8601 0.127,3.4531" id="Fill-4" fill="#65BDB8" mask="url(#mask-4)"></path>
                </g>
                <g id="Group-9" transform="translate(14.000000, 0.093020)">
                    <mask id="mask-6" fill="white">
                        <use xlink:href="#path-5"></use>
                    </mask>
                    <g id="Clip-8"></g>
                    <path d="M0.2544,3.4531 C0.2544,2.0471 1.3944,0.9071 2.8004,0.9071 C4.2074,0.9071 5.3474,2.0471 5.3474,3.4531 C5.3474,4.8601 4.2074,6.0001 2.8004,6.0001 C1.3944,6.0001 0.2544,4.8601 0.2544,3.4531" id="Fill-7" fill="#65BDB8" mask="url(#mask-6)"></path>
                </g>
                <g id="Group-12" transform="translate(21.000000, 0.093020)">
                    <mask id="mask-8" fill="white">
                        <use xlink:href="#path-7"></use>
                    </mask>
                    <g id="Clip-11"></g>
                    <path d="M0.3813,3.4531 C0.3813,2.0471 1.5213,0.9071 2.9273,0.9071 C4.3343,0.9071 5.4743,2.0471 5.4743,3.4531 C5.4743,4.8601 4.3343,6.0001 2.9273,6.0001 C1.5213,6.0001 0.3813,4.8601 0.3813,3.4531" id="Fill-10" fill="#65BDB8" mask="url(#mask-8)"></path>
                </g>
                <g id="Group-15" transform="translate(28.000000, 0.093020)">
                    <mask id="mask-10" fill="white">
                        <use xlink:href="#path-9"></use>
                    </mask>
                    <g id="Clip-14"></g>
                    <path d="M0.5083,3.4531 C0.5083,2.0471 1.6483,0.9071 3.0553,0.9071 C4.4613,0.9071 5.6013,2.0471 5.6013,3.4531 C5.6013,4.8601 4.4613,6.0001 3.0553,6.0001 C1.6483,6.0001 0.5083,4.8601 0.5083,3.4531" id="Fill-13" fill="#65BDB8" mask="url(#mask-10)"></path>
                </g>
                <g id="Group-18" transform="translate(35.000000, 0.093020)">
                    <mask id="mask-12" fill="white">
                        <use xlink:href="#path-11"></use>
                    </mask>
                    <g id="Clip-17"></g>
                    <path d="M0.6357,3.4531 C0.6357,2.0471 1.7757,0.9071 3.1817,0.9071 C4.5887,0.9071 5.7287,2.0471 5.7287,3.4531 C5.7287,4.8601 4.5887,6.0001 3.1817,6.0001 C1.7757,6.0001 0.6357,4.8601 0.6357,3.4531" id="Fill-16" fill="#65BDB8" mask="url(#mask-12)"></path>
                </g>
                <g id="Group-21" transform="translate(42.000000, 0.093020)">
                    <mask id="mask-14" fill="white">
                        <use xlink:href="#path-13"></use>
                    </mask>
                    <g id="Clip-20"></g>
                    <path d="M0.7627,3.4531 C0.7627,2.0471 1.9027,0.9071 3.3087,0.9071 C4.7157,0.9071 5.8557,2.0471 5.8557,3.4531 C5.8557,4.8601 4.7157,6.0001 3.3087,6.0001 C1.9027,6.0001 0.7627,4.8601 0.7627,3.4531" id="Fill-19" fill="#65BDB8" mask="url(#mask-14)"></path>
                </g>
                <g id="Group-24" transform="translate(49.000000, 0.093020)">
                    <mask id="mask-16" fill="white">
                        <use xlink:href="#path-15"></use>
                    </mask>
                    <g id="Clip-23"></g>
                    <path d="M0.8901,3.4531 C0.8901,2.0471 2.0301,0.9071 3.4361,0.9071 C4.8431,0.9071 5.9831,2.0471 5.9831,3.4531 C5.9831,4.8601 4.8431,6.0001 3.4361,6.0001 C2.0301,6.0001 0.8901,4.8601 0.8901,3.4531" id="Fill-22" fill="#65BDB8" mask="url(#mask-16)"></path>
                </g>
                <g id="Group-27" transform="translate(57.000000, 0.093020)">
                    <mask id="mask-18" fill="white">
                        <use xlink:href="#path-17"></use>
                    </mask>
                    <g id="Clip-26"></g>
                    <path d="M0.0171,3.4531 C0.0171,2.0471 1.1571,0.9071 2.5631,0.9071 C3.9701,0.9071 5.1101,2.0471 5.1101,3.4531 C5.1101,4.8601 3.9701,6.0001 2.5631,6.0001 C1.1571,6.0001 0.0171,4.8601 0.0171,3.4531" id="Fill-25" fill="#65BDB8" mask="url(#mask-18)"></path>
                </g>
                <g id="Group-30" transform="translate(64.000000, 0.093020)">
                    <mask id="mask-20" fill="white">
                        <use xlink:href="#path-19"></use>
                    </mask>
                    <g id="Clip-29"></g>
                    <path d="M0.144,3.4531 C0.144,2.0471 1.284,0.9071 2.691,0.9071 C4.097,0.9071 5.237,2.0471 5.237,3.4531 C5.237,4.8601 4.097,6.0001 2.691,6.0001 C1.284,6.0001 0.144,4.8601 0.144,3.4531" id="Fill-28" fill="#65BDB8" mask="url(#mask-20)"></path>
                </g>
                <g id="Group-33" transform="translate(71.000000, 0.093020)">
                    <mask id="mask-22" fill="white">
                        <use xlink:href="#path-21"></use>
                    </mask>
                    <g id="Clip-32"></g>
                    <path d="M0.2715,3.4531 C0.2715,2.0471 1.4115,0.9071 2.8175,0.9071 C4.2245,0.9071 5.3645,2.0471 5.3645,3.4531 C5.3645,4.8601 4.2245,6.0001 2.8175,6.0001 C1.4115,6.0001 0.2715,4.8601 0.2715,3.4531" id="Fill-31" fill="#65BDB8" mask="url(#mask-22)"></path>
                </g>
                <g id="Group-36" transform="translate(78.000000, 0.093020)">
                    <mask id="mask-24" fill="white">
                        <use xlink:href="#path-23"></use>
                    </mask>
                    <g id="Clip-35"></g>
                    <path d="M0.3984,3.4531 C0.3984,2.0471 1.5384,0.9071 2.9444,0.9071 C4.3514,0.9071 5.4914,2.0471 5.4914,3.4531 C5.4914,4.8601 4.3514,6.0001 2.9444,6.0001 C1.5384,6.0001 0.3984,4.8601 0.3984,3.4531" id="Fill-34" fill="#65BDB8" mask="url(#mask-24)"></path>
                </g>
                <g id="Group-39" transform="translate(85.000000, 0.093020)">
                    <mask id="mask-26" fill="white">
                        <use xlink:href="#path-25"></use>
                    </mask>
                    <g id="Clip-38"></g>
                    <path d="M0.5254,3.4531 C0.5254,2.0471 1.6654,0.9071 3.0724,0.9071 C4.4784,0.9071 5.6184,2.0471 5.6184,3.4531 C5.6184,4.8601 4.4784,6.0001 3.0724,6.0001 C1.6654,6.0001 0.5254,4.8601 0.5254,3.4531" id="Fill-37" fill="#65BDB8" mask="url(#mask-26)"></path>
                </g>
                <g id="Group-42" transform="translate(92.000000, 0.093020)">
                    <mask id="mask-28" fill="white">
                        <use xlink:href="#path-27"></use>
                    </mask>
                    <g id="Clip-41"></g>
                    <path d="M0.6528,3.4531 C0.6528,2.0471 1.7928,0.9071 3.1988,0.9071 C4.6058,0.9071 5.7458,2.0471 5.7458,3.4531 C5.7458,4.8601 4.6058,6.0001 3.1988,6.0001 C1.7928,6.0001 0.6528,4.8601 0.6528,3.4531" id="Fill-40" fill="#65BDB8" mask="url(#mask-28)"></path>
                </g>
                <g id="Group-45" transform="translate(99.000000, 0.093020)">
                    <mask id="mask-30" fill="white">
                        <use xlink:href="#path-29"></use>
                    </mask>
                    <g id="Clip-44"></g>
                    <path d="M0.7798,3.4531 C0.7798,2.0471 1.9198,0.9071 3.3258,0.9071 C4.7328,0.9071 5.8728,2.0471 5.8728,3.4531 C5.8728,4.8601 4.7328,6.0001 3.3258,6.0001 C1.9198,6.0001 0.7798,4.8601 0.7798,3.4531" id="Fill-43" fill="#65BDB8" mask="url(#mask-30)"></path>
                </g>
                <g id="Group-48" transform="translate(106.000000, 0.093020)">
                    <mask id="mask-32" fill="white">
                        <use xlink:href="#path-31"></use>
                    </mask>
                    <g id="Clip-47"></g>
                    <path d="M0.9072,3.4531 C0.9072,2.0471 2.0472,0.9071 3.4532,0.9071 C4.8602,0.9071 6.0002,2.0471 6.0002,3.4531 C6.0002,4.8601 4.8602,6.0001 3.4532,6.0001 C2.0472,6.0001 0.9072,4.8601 0.9072,3.4531" id="Fill-46" fill="#65BDB8" mask="url(#mask-32)"></path>
                </g>
                <g id="Group-51" transform="translate(114.000000, 0.093020)">
                    <mask id="mask-34" fill="white">
                        <use xlink:href="#path-33"></use>
                    </mask>
                    <g id="Clip-50"></g>
                    <path d="M0.0342,3.4531 C0.0342,2.0471 1.1742,0.9071 2.5802,0.9071 C3.9872,0.9071 5.1272,2.0471 5.1272,3.4531 C5.1272,4.8601 3.9872,6.0001 2.5802,6.0001 C1.1742,6.0001 0.0342,4.8601 0.0342,3.4531" id="Fill-49" fill="#65BDB8" mask="url(#mask-34)"></path>
                </g>
                <g id="Group-54" transform="translate(121.000000, 0.093020)">
                    <mask id="mask-36" fill="white">
                        <use xlink:href="#path-35"></use>
                    </mask>
                    <g id="Clip-53"></g>
                    <path d="M0.1611,3.4531 C0.1611,2.0471 1.3011,0.9071 2.7081,0.9071 C4.1141,0.9071 5.2541,2.0471 5.2541,3.4531 C5.2541,4.8601 4.1141,6.0001 2.7081,6.0001 C1.3011,6.0001 0.1611,4.8601 0.1611,3.4531" id="Fill-52" fill="#65BDB8" mask="url(#mask-36)"></path>
                </g>
                <g id="Group-57" transform="translate(128.000000, 0.093020)">
                    <mask id="mask-38" fill="white">
                        <use xlink:href="#path-37"></use>
                    </mask>
                    <g id="Clip-56"></g>
                    <path d="M0.2886,3.4531 C0.2886,2.0471 1.4286,0.9071 2.8346,0.9071 C4.2416,0.9071 5.3816,2.0471 5.3816,3.4531 C5.3816,4.8601 4.2416,6.0001 2.8346,6.0001 C1.4286,6.0001 0.2886,4.8601 0.2886,3.4531" id="Fill-55" fill="#65BDB8" mask="url(#mask-38)"></path>
                </g>
                <g id="Group-60" transform="translate(135.000000, 0.093020)">
                    <mask id="mask-40" fill="white">
                        <use xlink:href="#path-39"></use>
                    </mask>
                    <g id="Clip-59"></g>
                    <path d="M0.4155,3.4531 C0.4155,2.0471 1.5555,0.9071 2.9615,0.9071 C4.3685,0.9071 5.5085,2.0471 5.5085,3.4531 C5.5085,4.8601 4.3685,6.0001 2.9615,6.0001 C1.5555,6.0001 0.4155,4.8601 0.4155,3.4531" id="Fill-58" fill="#65BDB8" mask="url(#mask-40)"></path>
                </g>
                <g id="Group-63" transform="translate(142.000000, 0.093020)">
                    <mask id="mask-42" fill="white">
                        <use xlink:href="#path-41"></use>
                    </mask>
                    <g id="Clip-62"></g>
                    <path d="M0.5425,3.4531 C0.5425,2.0471 1.6825,0.9071 3.0895,0.9071 C4.4955,0.9071 5.6355,2.0471 5.6355,3.4531 C5.6355,4.8601 4.4955,6.0001 3.0895,6.0001 C1.6825,6.0001 0.5425,4.8601 0.5425,3.4531" id="Fill-61" fill="#65BDB8" mask="url(#mask-42)"></path>
                </g>
                <g id="Group-66" transform="translate(149.000000, 0.093020)">
                    <mask id="mask-44" fill="white">
                        <use xlink:href="#path-43"></use>
                    </mask>
                    <g id="Clip-65"></g>
                    <path d="M0.6699,3.4531 C0.6699,2.0471 1.8099,0.9071 3.2159,0.9071 C4.6229,0.9071 5.7629,2.0471 5.7629,3.4531 C5.7629,4.8601 4.6229,6.0001 3.2159,6.0001 C1.8099,6.0001 0.6699,4.8601 0.6699,3.4531" id="Fill-64" fill="#65BDB8" mask="url(#mask-44)"></path>
                </g>
                <g id="Group-69" transform="translate(156.000000, 0.093020)">
                    <mask id="mask-46" fill="white">
                        <use xlink:href="#path-45"></use>
                    </mask>
                    <g id="Clip-68"></g>
                    <path d="M0.7969,3.4531 C0.7969,2.0471 1.9369,0.9071 3.3429,0.9071 C4.7499,0.9071 5.8899,2.0471 5.8899,3.4531 C5.8899,4.8601 4.7499,6.0001 3.3429,6.0001 C1.9369,6.0001 0.7969,4.8601 0.7969,3.4531" id="Fill-67" fill="#65BDB8" mask="url(#mask-46)"></path>
                </g>
                <g id="Group-72" transform="translate(163.000000, 0.093020)">
                    <mask id="mask-48" fill="white">
                        <use xlink:href="#path-47"></use>
                    </mask>
                    <g id="Clip-71"></g>
                    <path d="M0.9238,3.4531 C0.9238,2.0471 2.0638,0.9071 3.4708,0.9071 C4.8768,0.9071 6.0168,2.0471 6.0168,3.4531 C6.0168,4.8601 4.8768,6.0001 3.4708,6.0001 C2.0638,6.0001 0.9238,4.8601 0.9238,3.4531" id="Fill-70" fill="#65BDB8" mask="url(#mask-48)"></path>
                </g>
                <g id="Group-75" transform="translate(171.000000, 0.093020)">
                    <mask id="mask-50" fill="white">
                        <use xlink:href="#path-49"></use>
                    </mask>
                    <g id="Clip-74"></g>
                    <path d="M0.0513,3.4531 C0.0513,2.0471 1.1913,0.9071 2.5973,0.9071 C4.0043,0.9071 5.1443,2.0471 5.1443,3.4531 C5.1443,4.8601 4.0043,6.0001 2.5973,6.0001 C1.1913,6.0001 0.0513,4.8601 0.0513,3.4531" id="Fill-73" fill="#65BDB8" mask="url(#mask-50)"></path>
                </g>
                <g id="Group-78" transform="translate(178.000000, 0.093020)">
                    <mask id="mask-52" fill="white">
                        <use xlink:href="#path-51"></use>
                    </mask>
                    <g id="Clip-77"></g>
                    <path d="M0.1782,3.4531 C0.1782,2.0471 1.3182,0.9071 2.7242,0.9071 C4.1312,0.9071 5.2712,2.0471 5.2712,3.4531 C5.2712,4.8601 4.1312,6.0001 2.7242,6.0001 C1.3182,6.0001 0.1782,4.8601 0.1782,3.4531" id="Fill-76" fill="#65BDB8" mask="url(#mask-52)"></path>
                </g>
                <g id="Group-81" transform="translate(185.000000, 0.093020)">
                    <mask id="mask-54" fill="white">
                        <use xlink:href="#path-53"></use>
                    </mask>
                    <g id="Clip-80"></g>
                    <path d="M0.3057,3.4531 C0.3057,2.0471 1.4457,0.9071 2.8517,0.9071 C4.2587,0.9071 5.3987,2.0471 5.3987,3.4531 C5.3987,4.8601 4.2587,6.0001 2.8517,6.0001 C1.4457,6.0001 0.3057,4.8601 0.3057,3.4531" id="Fill-79" fill="#65BDB8" mask="url(#mask-54)"></path>
                </g>
                <g id="Group-84" transform="translate(192.000000, 0.093020)">
                    <mask id="mask-56" fill="white">
                        <use xlink:href="#path-55"></use>
                    </mask>
                    <g id="Clip-83"></g>
                    <path d="M0.4326,3.4531 C0.4326,2.0471 1.5726,0.9071 2.9786,0.9071 C4.3856,0.9071 5.5256,2.0471 5.5256,3.4531 C5.5256,4.8601 4.3856,6.0001 2.9786,6.0001 C1.5726,6.0001 0.4326,4.8601 0.4326,3.4531" id="Fill-82" fill="#65BDB8" mask="url(#mask-56)"></path>
                </g>
                <g id="Group-87" transform="translate(199.000000, 0.093020)">
                    <mask id="mask-58" fill="white">
                        <use xlink:href="#path-57"></use>
                    </mask>
                    <g id="Clip-86"></g>
                    <path d="M0.5596,3.4531 C0.5596,2.0471 1.6996,0.9071 3.1066,0.9071 C4.5126,0.9071 5.6526,2.0471 5.6526,3.4531 C5.6526,4.8601 4.5126,6.0001 3.1066,6.0001 C1.6996,6.0001 0.5596,4.8601 0.5596,3.4531" id="Fill-85" fill="#65BDB8" mask="url(#mask-58)"></path>
                </g>
                <g id="Group-90" transform="translate(206.000000, 0.093020)">
                    <mask id="mask-60" fill="white">
                        <use xlink:href="#path-59"></use>
                    </mask>
                    <g id="Clip-89"></g>
                    <path d="M0.687,3.4531 C0.687,2.0471 1.827,0.9071 3.233,0.9071 C4.64,0.9071 5.78,2.0471 5.78,3.4531 C5.78,4.8601 4.64,6.0001 3.233,6.0001 C1.827,6.0001 0.687,4.8601 0.687,3.4531" id="Fill-88" fill="#65BDB8" mask="url(#mask-60)"></path>
                </g>
                <g id="Group-93" transform="translate(213.000000, 0.093020)">
                    <mask id="mask-62" fill="white">
                        <use xlink:href="#path-61"></use>
                    </mask>
                    <g id="Clip-92"></g>
                    <path d="M0.814,3.4531 C0.814,2.0471 1.954,0.9071 3.36,0.9071 C4.767,0.9071 5.907,2.0471 5.907,3.4531 C5.907,4.8601 4.767,6.0001 3.36,6.0001 C1.954,6.0001 0.814,4.8601 0.814,3.4531" id="Fill-91" fill="#65BDB8" mask="url(#mask-62)"></path>
                </g>
                <g id="Group-96" transform="translate(220.000000, 0.093020)">
                    <mask id="mask-64" fill="white">
                        <use xlink:href="#path-63"></use>
                    </mask>
                    <g id="Clip-95"></g>
                    <path d="M0.9409,3.4531 C0.9409,2.0471 2.0809,0.9071 3.4879,0.9071 C4.8939,0.9071 6.0339,2.0471 6.0339,3.4531 C6.0339,4.8601 4.8939,6.0001 3.4879,6.0001 C2.0809,6.0001 0.9409,4.8601 0.9409,3.4531" id="Fill-94" fill="#65BDB8" mask="url(#mask-64)"></path>
                </g>
                <g id="Group-99" transform="translate(228.000000, 0.093020)">
                    <mask id="mask-66" fill="white">
                        <use xlink:href="#path-65"></use>
                    </mask>
                    <g id="Clip-98"></g>
                    <path d="M0.0684,3.4531 C0.0684,2.0471 1.2084,0.9071 2.6144,0.9071 C4.0214,0.9071 5.1614,2.0471 5.1614,3.4531 C5.1614,4.8601 4.0214,6.0001 2.6144,6.0001 C1.2084,6.0001 0.0684,4.8601 0.0684,3.4531" id="Fill-97" fill="#65BDB8" mask="url(#mask-66)"></path>
                </g>
                <g id="Group-102" transform="translate(235.000000, 0.093020)">
                    <mask id="mask-68" fill="white">
                        <use xlink:href="#path-67"></use>
                    </mask>
                    <g id="Clip-101"></g>
                    <path d="M0.1953,3.4531 C0.1953,2.0471 1.3353,0.9071 2.7413,0.9071 C4.1483,0.9071 5.2883,2.0471 5.2883,3.4531 C5.2883,4.8601 4.1483,6.0001 2.7413,6.0001 C1.3353,6.0001 0.1953,4.8601 0.1953,3.4531" id="Fill-100" fill="#65BDB8" mask="url(#mask-68)"></path>
                </g>
                <g id="Group-105" transform="translate(242.000000, 0.093020)">
                    <mask id="mask-70" fill="white">
                        <use xlink:href="#path-69"></use>
                    </mask>
                    <g id="Clip-104"></g>
                    <path d="M0.3228,3.4531 C0.3228,2.0471 1.4628,0.9071 2.8688,0.9071 C4.2758,0.9071 5.4158,2.0471 5.4158,3.4531 C5.4158,4.8601 4.2758,6.0001 2.8688,6.0001 C1.4628,6.0001 0.3228,4.8601 0.3228,3.4531" id="Fill-103" fill="#65BDB8" mask="url(#mask-70)"></path>
                </g>
                <g id="Group-108" transform="translate(249.000000, 0.093020)">
                    <mask id="mask-72" fill="white">
                        <use xlink:href="#path-71"></use>
                    </mask>
                    <g id="Clip-107"></g>
                    <path d="M0.4497,3.4531 C0.4497,2.0471 1.5897,0.9071 2.9957,0.9071 C4.4027,0.9071 5.5427,2.0471 5.5427,3.4531 C5.5427,4.8601 4.4027,6.0001 2.9957,6.0001 C1.5897,6.0001 0.4497,4.8601 0.4497,3.4531" id="Fill-106" fill="#65BDB8" mask="url(#mask-72)"></path>
                </g>
                <g id="Group-111" transform="translate(256.000000, 0.093020)">
                    <mask id="mask-74" fill="white">
                        <use xlink:href="#path-73"></use>
                    </mask>
                    <g id="Clip-110"></g>
                    <path d="M0.5771,3.4531 C0.5771,2.0471 1.7171,0.9071 3.1231,0.9071 C4.5291,0.9071 5.6701,2.0471 5.6701,3.4531 C5.6701,4.8601 4.5291,6.0001 3.1231,6.0001 C1.7171,6.0001 0.5771,4.8601 0.5771,3.4531" id="Fill-109" fill="#65BDB8" mask="url(#mask-74)"></path>
                </g>
                <g id="Group-114" transform="translate(263.000000, 0.093020)">
                    <mask id="mask-76" fill="white">
                        <use xlink:href="#path-75"></use>
                    </mask>
                    <g id="Clip-113"></g>
                    <path d="M0.7041,3.4531 C0.7041,2.0471 1.8441,0.9071 3.2501,0.9071 C4.6571,0.9071 5.7971,2.0471 5.7971,3.4531 C5.7971,4.8601 4.6571,6.0001 3.2501,6.0001 C1.8441,6.0001 0.7041,4.8601 0.7041,3.4531" id="Fill-112" fill="#65BDB8" mask="url(#mask-76)"></path>
                </g>
                <g id="Group-117" transform="translate(270.000000, 0.093020)">
                    <mask id="mask-78" fill="white">
                        <use xlink:href="#path-77"></use>
                    </mask>
                    <g id="Clip-116"></g>
                    <path d="M0.8311,3.4531 C0.8311,2.0471 1.9711,0.9071 3.3781,0.9071 C4.7841,0.9071 5.9241,2.0471 5.9241,3.4531 C5.9241,4.8601 4.7841,6.0001 3.3781,6.0001 C1.9711,6.0001 0.8311,4.8601 0.8311,3.4531" id="Fill-115" fill="#65BDB8" mask="url(#mask-78)"></path>
                </g>
                <g id="Group-120" transform="translate(277.000000, 0.093020)">
                    <mask id="mask-80" fill="white">
                        <use xlink:href="#path-79"></use>
                    </mask>
                    <g id="Clip-119"></g>
                    <path d="M0.958,3.4531 C0.958,2.0471 2.099,0.9071 3.505,0.9071 C4.911,0.9071 6.051,2.0471 6.051,3.4531 C6.051,4.8601 4.911,6.0001 3.505,6.0001 C2.099,6.0001 0.958,4.8601 0.958,3.4531" id="Fill-118" fill="#65BDB8" mask="url(#mask-80)"></path>
                </g>
                <g id="Group-123" transform="translate(285.000000, 0.093020)">
                    <mask id="mask-82" fill="white">
                        <use xlink:href="#path-81"></use>
                    </mask>
                    <g id="Clip-122"></g>
                    <path d="M0.085,3.4531 C0.085,2.0471 1.226,0.9071 2.632,0.9071 C4.038,0.9071 5.179,2.0471 5.179,3.4531 C5.179,4.8601 4.038,6.0001 2.632,6.0001 C1.226,6.0001 0.085,4.8601 0.085,3.4531" id="Fill-121" fill="#65BDB8" mask="url(#mask-82)"></path>
                </g>
                <g id="Group-126" transform="translate(292.000000, 0.093020)">
                    <mask id="mask-84" fill="white">
                        <use xlink:href="#path-83"></use>
                    </mask>
                    <g id="Clip-125"></g>
                    <path d="M0.2129,3.4531 C0.2129,2.0471 1.3529,0.9071 2.7589,0.9071 C4.1649,0.9071 5.3059,2.0471 5.3059,3.4531 C5.3059,4.8601 4.1649,6.0001 2.7589,6.0001 C1.3529,6.0001 0.2129,4.8601 0.2129,3.4531" id="Fill-124" fill="#65BDB8" mask="url(#mask-84)"></path>
                </g>
                <g id="Group-129" transform="translate(299.000000, 0.093020)">
                    <mask id="mask-86" fill="white">
                        <use xlink:href="#path-85"></use>
                    </mask>
                    <g id="Clip-128"></g>
                    <path d="M0.3398,3.4531 C0.3398,2.0471 1.4798,0.9071 2.8858,0.9071 C4.2928,0.9071 5.4328,2.0471 5.4328,3.4531 C5.4328,4.8601 4.2928,6.0001 2.8858,6.0001 C1.4798,6.0001 0.3398,4.8601 0.3398,3.4531" id="Fill-127" fill="#65BDB8" mask="url(#mask-86)"></path>
                </g>
                <g id="Group-132" transform="translate(306.000000, 0.093020)">
                    <mask id="mask-88" fill="white">
                        <use xlink:href="#path-87"></use>
                    </mask>
                    <g id="Clip-131"></g>
                    <path d="M0.4668,3.4531 C0.4668,2.0471 1.6068,0.9071 3.0138,0.9071 C4.4198,0.9071 5.5598,2.0471 5.5598,3.4531 C5.5598,4.8601 4.4198,6.0001 3.0138,6.0001 C1.6068,6.0001 0.4668,4.8601 0.4668,3.4531" id="Fill-130" fill="#65BDB8" mask="url(#mask-88)"></path>
                </g>
                <g id="Group-135" transform="translate(313.000000, 0.093020)">
                    <mask id="mask-90" fill="white">
                        <use xlink:href="#path-89"></use>
                    </mask>
                    <g id="Clip-134"></g>
                    <path d="M0.5937,3.4531 C0.5937,2.0471 1.7347,0.9071 3.1407,0.9071 C4.5467,0.9071 5.6867,2.0471 5.6867,3.4531 C5.6867,4.8601 4.5467,6.0001 3.1407,6.0001 C1.7347,6.0001 0.5937,4.8601 0.5937,3.4531" id="Fill-133" fill="#65BDB8" mask="url(#mask-90)"></path>
                </g>
                <g id="Group-138" transform="translate(320.000000, 0.093020)">
                    <mask id="mask-92" fill="white">
                        <use xlink:href="#path-91"></use>
                    </mask>
                    <g id="Clip-137"></g>
                    <path d="M0.7207,3.4531 C0.7207,2.0471 1.8617,0.9071 3.2677,0.9071 C4.6737,0.9071 5.8147,2.0471 5.8147,3.4531 C5.8147,4.8601 4.6737,6.0001 3.2677,6.0001 C1.8617,6.0001 0.7207,4.8601 0.7207,3.4531" id="Fill-136" fill="#65BDB8" mask="url(#mask-92)"></path>
                </g>
                <g id="Group-141" transform="translate(327.000000, 0.093020)">
                    <mask id="mask-94" fill="white">
                        <use xlink:href="#path-93"></use>
                    </mask>
                    <g id="Clip-140"></g>
                    <path d="M0.8477,3.4531 C0.8477,2.0471 1.9887,0.9071 3.3947,0.9071 C4.8007,0.9071 5.9417,2.0471 5.9417,3.4531 C5.9417,4.8601 4.8007,6.0001 3.3947,6.0001 C1.9887,6.0001 0.8477,4.8601 0.8477,3.4531" id="Fill-139" fill="#65BDB8" mask="url(#mask-94)"></path>
                </g>
                <g id="Group-144" transform="translate(334.000000, 0.093020)">
                    <mask id="mask-96" fill="white">
                        <use xlink:href="#path-95"></use>
                    </mask>
                    <g id="Clip-143"></g>
                    <path d="M0.9756,3.4531 C0.9756,2.0471 2.1156,0.9071 3.5216,0.9071 C4.9276,0.9071 6.0686,2.0471 6.0686,3.4531 C6.0686,4.8601 4.9276,6.0001 3.5216,6.0001 C2.1156,6.0001 0.9756,4.8601 0.9756,3.4531" id="Fill-142" fill="#65BDB8" mask="url(#mask-96)"></path>
                </g>
                <g id="Group-147" transform="translate(342.000000, 0.093020)">
                    <mask id="mask-98" fill="white">
                        <use xlink:href="#path-97"></use>
                    </mask>
                    <g id="Clip-146"></g>
                    <path d="M0.1025,3.4531 C0.1025,2.0471 1.2425,0.9071 2.6485,0.9071 C4.0555,0.9071 5.1955,2.0471 5.1955,3.4531 C5.1955,4.8601 4.0555,6.0001 2.6485,6.0001 C1.2425,6.0001 0.1025,4.8601 0.1025,3.4531" id="Fill-145" fill="#65BDB8" mask="url(#mask-98)"></path>
                </g>
                <g id="Group-150" transform="translate(349.000000, 0.093020)">
                    <mask id="mask-100" fill="white">
                        <use xlink:href="#path-99"></use>
                    </mask>
                    <g id="Clip-149"></g>
                    <path d="M0.2295,3.4531 C0.2295,2.0471 1.3705,0.9071 2.7765,0.9071 C4.1825,0.9071 5.3225,2.0471 5.3225,3.4531 C5.3225,4.8601 4.1825,6.0001 2.7765,6.0001 C1.3705,6.0001 0.2295,4.8601 0.2295,3.4531" id="Fill-148" fill="#65BDB8" mask="url(#mask-100)"></path>
                </g>
                <g id="Group-153" transform="translate(356.000000, 0.093020)">
                    <mask id="mask-102" fill="white">
                        <use xlink:href="#path-101"></use>
                    </mask>
                    <g id="Clip-152"></g>
                    <path d="M0.3564,3.4531 C0.3564,2.0471 1.4974,0.9071 2.9034,0.9071 C4.3094,0.9071 5.4494,2.0471 5.4494,3.4531 C5.4494,4.8601 4.3094,6.0001 2.9034,6.0001 C1.4974,6.0001 0.3564,4.8601 0.3564,3.4531" id="Fill-151" fill="#65BDB8" mask="url(#mask-102)"></path>
                </g>
            </g>
        </g>
    </g>
</svg>