<?xml version="1.0" encoding="UTF-8"?>
<svg width="500px" height="10px" viewBox="0 0 500 10" version="1.1" xmlns="http://www.w3.org/2000/svg" xmlns:xlink="http://www.w3.org/1999/xlink">
    <!-- Generator: Sketch 64 (93537) - https://sketch.com -->
    <title>161</title>
    <desc>Created with Sketch.</desc>
    <defs>
        <polygon id="path-1" points="0 0.9074 5.093 0.9074 5.093 6 0 6"></polygon>
        <polygon id="path-3" points="0.127 0.9074 5.22 0.9074 5.22 6 0.127 6"></polygon>
        <polygon id="path-5" points="0.2544 0.9074 5.3474 0.9074 5.3474 6 0.2544 6"></polygon>
        <polygon id="path-7" points="0.3813 0.9074 5.4743 0.9074 5.4743 6 0.3813 6"></polygon>
        <polygon id="path-9" points="0.5083 0.9074 5.6013 0.9074 5.6013 6 0.5083 6"></polygon>
        <polygon id="path-11" points="0.6357 0.9074 5.7287 0.9074 5.7287 6 0.6357 6"></polygon>
        <polygon id="path-13" points="0.7627 0.9074 5.8557 0.9074 5.8557 6 0.7627 6"></polygon>
        <polygon id="path-15" points="0.8901 0.9074 5.9831 0.9074 5.9831 6 0.8901 6"></polygon>
        <polygon id="path-17" points="0.0171 0.9074 5.1101 0.9074 5.1101 6 0.0171 6"></polygon>
        <polygon id="path-19" points="0.144 0.9074 5.237 0.9074 5.237 6 0.144 6"></polygon>
        <polygon id="path-21" points="0.2715 0.9074 5.3645 0.9074 5.3645 6 0.2715 6"></polygon>
        <polygon id="path-23" points="0.3984 0.9074 5.4914 0.9074 5.4914 6 0.3984 6"></polygon>
        <polygon id="path-25" points="0.5254 0.9074 5.6184 0.9074 5.6184 6 0.5254 6"></polygon>
        <polygon id="path-27" points="0.6528 0.9074 5.7458 0.9074 5.7458 6 0.6528 6"></polygon>
        <polygon id="path-29" points="0.7798 0.9074 5.8728 0.9074 5.8728 6 0.7798 6"></polygon>
        <polygon id="path-31" points="0.9072 0.9074 6.0002 0.9074 6.0002 6 0.9072 6"></polygon>
        <polygon id="path-33" points="0.0342 0.9074 5.1272 0.9074 5.1272 6 0.0342 6"></polygon>
        <polygon id="path-35" points="0.1611 0.9074 5.2541 0.9074 5.2541 6 0.1611 6"></polygon>
        <polygon id="path-37" points="0.2886 0.9074 5.3816 0.9074 5.3816 6 0.2886 6"></polygon>
        <polygon id="path-39" points="0.4155 0.9074 5.5085 0.9074 5.5085 6 0.4155 6"></polygon>
        <polygon id="path-41" points="0.5425 0.9074 5.6355 0.9074 5.6355 6 0.5425 6"></polygon>
        <polygon id="path-43" points="0.6699 0.9074 5.7629 0.9074 5.7629 6 0.6699 6"></polygon>
        <polygon id="path-45" points="0.7969 0.9074 5.8899 0.9074 5.8899 6 0.7969 6"></polygon>
        <polygon id="path-47" points="0.9238 0.9074 6.0168 0.9074 6.0168 6 0.9238 6"></polygon>
        <polygon id="path-49" points="0.0513 0.9074 5.1443 0.9074 5.1443 6 0.0513 6"></polygon>
        <polygon id="path-51" points="0.1782 0.9074 5.2712 0.9074 5.2712 6 0.1782 6"></polygon>
        <polygon id="path-53" points="0.3057 0.9074 5.3987 0.9074 5.3987 6 0.3057 6"></polygon>
        <polygon id="path-55" points="0.4326 0.9074 5.5256 0.9074 5.5256 6 0.4326 6"></polygon>
    </defs>
    <g id="161" stroke="none" stroke-width="1" fill="none" fill-rule="evenodd">
        <g id="Group-85" transform="translate(0.000000, 2.000000)">
            <g id="Group-3" transform="translate(0.000000, 0.093020)">
                <mask id="mask-2" fill="white">
                    <use xlink:href="#path-1"></use>
                </mask>
                <g id="Clip-2"></g>
                <path d="M0,3.4534 C0,2.0474 1.14,0.9074 2.546,0.9074 C3.953,0.9074 5.093,2.0474 5.093,3.4534 C5.093,4.8594 3.953,6.0004 2.546,6.0004 C1.14,6.0004 0,4.8594 0,3.4534" id="Fill-1" fill="#65BDB8" mask="url(#mask-2)"></path>
            </g>
            <g id="Group-6" transform="translate(7.000000, 0.093020)">
                <mask id="mask-4" fill="white">
                    <use xlink:href="#path-3"></use>
                </mask>
                <g id="Clip-5"></g>
                <path d="M0.127,3.4534 C0.127,2.0474 1.267,0.9074 2.674,0.9074 C4.08,0.9074 5.22,2.0474 5.22,3.4534 C5.22,4.8594 4.08,6.0004 2.674,6.0004 C1.267,6.0004 0.127,4.8594 0.127,3.4534" id="Fill-4" fill="#65BDB8" mask="url(#mask-4)"></path>
            </g>
            <g id="Group-9" transform="translate(14.000000, 0.093020)">
                <mask id="mask-6" fill="white">
                    <use xlink:href="#path-5"></use>
                </mask>
                <g id="Clip-8"></g>
                <path d="M0.2544,3.4534 C0.2544,2.0474 1.3944,0.9074 2.8004,0.9074 C4.2074,0.9074 5.3474,2.0474 5.3474,3.4534 C5.3474,4.8594 4.2074,6.0004 2.8004,6.0004 C1.3944,6.0004 0.2544,4.8594 0.2544,3.4534" id="Fill-7" fill="#65BDB8" mask="url(#mask-6)"></path>
            </g>
            <g id="Group-12" transform="translate(21.000000, 0.093020)">
                <mask id="mask-8" fill="white">
                    <use xlink:href="#path-7"></use>
                </mask>
                <g id="Clip-11"></g>
                <path d="M0.3813,3.4534 C0.3813,2.0474 1.5213,0.9074 2.9273,0.9074 C4.3343,0.9074 5.4743,2.0474 5.4743,3.4534 C5.4743,4.8594 4.3343,6.0004 2.9273,6.0004 C1.5213,6.0004 0.3813,4.8594 0.3813,3.4534" id="Fill-10" fill="#65BDB8" mask="url(#mask-8)"></path>
            </g>
            <g id="Group-15" transform="translate(28.000000, 0.093020)">
                <mask id="mask-10" fill="white">
                    <use xlink:href="#path-9"></use>
                </mask>
                <g id="Clip-14"></g>
                <path d="M0.5083,3.4534 C0.5083,2.0474 1.6483,0.9074 3.0553,0.9074 C4.4613,0.9074 5.6013,2.0474 5.6013,3.4534 C5.6013,4.8594 4.4613,6.0004 3.0553,6.0004 C1.6483,6.0004 0.5083,4.8594 0.5083,3.4534" id="Fill-13" fill="#65BDB8" mask="url(#mask-10)"></path>
            </g>
            <g id="Group-18" transform="translate(35.000000, 0.093020)">
                <mask id="mask-12" fill="white">
                    <use xlink:href="#path-11"></use>
                </mask>
                <g id="Clip-17"></g>
                <path d="M0.6357,3.4534 C0.6357,2.0474 1.7757,0.9074 3.1817,0.9074 C4.5887,0.9074 5.7287,2.0474 5.7287,3.4534 C5.7287,4.8594 4.5887,6.0004 3.1817,6.0004 C1.7757,6.0004 0.6357,4.8594 0.6357,3.4534" id="Fill-16" fill="#65BDB8" mask="url(#mask-12)"></path>
            </g>
            <g id="Group-21" transform="translate(42.000000, 0.093020)">
                <mask id="mask-14" fill="white">
                    <use xlink:href="#path-13"></use>
                </mask>
                <g id="Clip-20"></g>
                <path d="M0.7627,3.4534 C0.7627,2.0474 1.9027,0.9074 3.3087,0.9074 C4.7157,0.9074 5.8557,2.0474 5.8557,3.4534 C5.8557,4.8594 4.7157,6.0004 3.3087,6.0004 C1.9027,6.0004 0.7627,4.8594 0.7627,3.4534" id="Fill-19" fill="#65BDB8" mask="url(#mask-14)"></path>
            </g>
            <g id="Group-24" transform="translate(49.000000, 0.093020)">
                <mask id="mask-16" fill="white">
                    <use xlink:href="#path-15"></use>
                </mask>
                <g id="Clip-23"></g>
                <path d="M0.8901,3.4534 C0.8901,2.0474 2.0301,0.9074 3.4361,0.9074 C4.8431,0.9074 5.9831,2.0474 5.9831,3.4534 C5.9831,4.8594 4.8431,6.0004 3.4361,6.0004 C2.0301,6.0004 0.8901,4.8594 0.8901,3.4534" id="Fill-22" fill="#65BDB8" mask="url(#mask-16)"></path>
            </g>
            <g id="Group-27" transform="translate(57.000000, 0.093020)">
                <mask id="mask-18" fill="white">
                    <use xlink:href="#path-17"></use>
                </mask>
                <g id="Clip-26"></g>
                <path d="M0.0171,3.4534 C0.0171,2.0474 1.1571,0.9074 2.5631,0.9074 C3.9701,0.9074 5.1101,2.0474 5.1101,3.4534 C5.1101,4.8594 3.9701,6.0004 2.5631,6.0004 C1.1571,6.0004 0.0171,4.8594 0.0171,3.4534" id="Fill-25" fill="#65BDB8" mask="url(#mask-18)"></path>
            </g>
            <g id="Group-30" transform="translate(64.000000, 0.093020)">
                <mask id="mask-20" fill="white">
                    <use xlink:href="#path-19"></use>
                </mask>
                <g id="Clip-29"></g>
                <path d="M0.144,3.4534 C0.144,2.0474 1.284,0.9074 2.691,0.9074 C4.097,0.9074 5.237,2.0474 5.237,3.4534 C5.237,4.8594 4.097,6.0004 2.691,6.0004 C1.284,6.0004 0.144,4.8594 0.144,3.4534" id="Fill-28" fill="#65BDB8" mask="url(#mask-20)"></path>
            </g>
            <g id="Group-33" transform="translate(71.000000, 0.093020)">
                <mask id="mask-22" fill="white">
                    <use xlink:href="#path-21"></use>
                </mask>
                <g id="Clip-32"></g>
                <path d="M0.2715,3.4534 C0.2715,2.0474 1.4115,0.9074 2.8175,0.9074 C4.2245,0.9074 5.3645,2.0474 5.3645,3.4534 C5.3645,4.8594 4.2245,6.0004 2.8175,6.0004 C1.4115,6.0004 0.2715,4.8594 0.2715,3.4534" id="Fill-31" fill="#65BDB8" mask="url(#mask-22)"></path>
            </g>
            <g id="Group-36" transform="translate(78.000000, 0.093020)">
                <mask id="mask-24" fill="white">
                    <use xlink:href="#path-23"></use>
                </mask>
                <g id="Clip-35"></g>
                <path d="M0.3984,3.4534 C0.3984,2.0474 1.5384,0.9074 2.9444,0.9074 C4.3514,0.9074 5.4914,2.0474 5.4914,3.4534 C5.4914,4.8594 4.3514,6.0004 2.9444,6.0004 C1.5384,6.0004 0.3984,4.8594 0.3984,3.4534" id="Fill-34" fill="#65BDB8" mask="url(#mask-24)"></path>
            </g>
            <g id="Group-39" transform="translate(85.000000, 0.093020)">
                <mask id="mask-26" fill="white">
                    <use xlink:href="#path-25"></use>
                </mask>
                <g id="Clip-38"></g>
                <path d="M0.5254,3.4534 C0.5254,2.0474 1.6654,0.9074 3.0724,0.9074 C4.4784,0.9074 5.6184,2.0474 5.6184,3.4534 C5.6184,4.8594 4.4784,6.0004 3.0724,6.0004 C1.6654,6.0004 0.5254,4.8594 0.5254,3.4534" id="Fill-37" fill="#65BDB8" mask="url(#mask-26)"></path>
            </g>
            <g id="Group-42" transform="translate(92.000000, 0.093020)">
                <mask id="mask-28" fill="white">
                    <use xlink:href="#path-27"></use>
                </mask>
                <g id="Clip-41"></g>
                <path d="M0.6528,3.4534 C0.6528,2.0474 1.7928,0.9074 3.1988,0.9074 C4.6058,0.9074 5.7458,2.0474 5.7458,3.4534 C5.7458,4.8594 4.6058,6.0004 3.1988,6.0004 C1.7928,6.0004 0.6528,4.8594 0.6528,3.4534" id="Fill-40" fill="#65BDB8" mask="url(#mask-28)"></path>
            </g>
            <g id="Group-45" transform="translate(99.000000, 0.093020)">
                <mask id="mask-30" fill="white">
                    <use xlink:href="#path-29"></use>
                </mask>
                <g id="Clip-44"></g>
                <path d="M0.7798,3.4534 C0.7798,2.0474 1.9198,0.9074 3.3258,0.9074 C4.7328,0.9074 5.8728,2.0474 5.8728,3.4534 C5.8728,4.8594 4.7328,6.0004 3.3258,6.0004 C1.9198,6.0004 0.7798,4.8594 0.7798,3.4534" id="Fill-43" fill="#65BDB8" mask="url(#mask-30)"></path>
            </g>
            <g id="Group-48" transform="translate(106.000000, 0.093020)">
                <mask id="mask-32" fill="white">
                    <use xlink:href="#path-31"></use>
                </mask>
                <g id="Clip-47"></g>
                <path d="M0.9072,3.4534 C0.9072,2.0474 2.0472,0.9074 3.4532,0.9074 C4.8602,0.9074 6.0002,2.0474 6.0002,3.4534 C6.0002,4.8594 4.8602,6.0004 3.4532,6.0004 C2.0472,6.0004 0.9072,4.8594 0.9072,3.4534" id="Fill-46" fill="#65BDB8" mask="url(#mask-32)"></path>
            </g>
            <g id="Group-51" transform="translate(114.000000, 0.093020)">
                <mask id="mask-34" fill="white">
                    <use xlink:href="#path-33"></use>
                </mask>
                <g id="Clip-50"></g>
                <path d="M0.0342,3.4534 C0.0342,2.0474 1.1742,0.9074 2.5802,0.9074 C3.9872,0.9074 5.1272,2.0474 5.1272,3.4534 C5.1272,4.8594 3.9872,6.0004 2.5802,6.0004 C1.1742,6.0004 0.0342,4.8594 0.0342,3.4534" id="Fill-49" fill="#65BDB8" mask="url(#mask-34)"></path>
            </g>
            <g id="Group-54" transform="translate(121.000000, 0.093020)">
                <mask id="mask-36" fill="white">
                    <use xlink:href="#path-35"></use>
                </mask>
                <g id="Clip-53"></g>
                <path d="M0.1611,3.4534 C0.1611,2.0474 1.3011,0.9074 2.7081,0.9074 C4.1141,0.9074 5.2541,2.0474 5.2541,3.4534 C5.2541,4.8594 4.1141,6.0004 2.7081,6.0004 C1.3011,6.0004 0.1611,4.8594 0.1611,3.4534" id="Fill-52" fill="#65BDB8" mask="url(#mask-36)"></path>
            </g>
            <g id="Group-57" transform="translate(128.000000, 0.093020)">
                <mask id="mask-38" fill="white">
                    <use xlink:href="#path-37"></use>
                </mask>
                <g id="Clip-56"></g>
                <path d="M0.2886,3.4534 C0.2886,2.0474 1.4286,0.9074 2.8346,0.9074 C4.2416,0.9074 5.3816,2.0474 5.3816,3.4534 C5.3816,4.8594 4.2416,6.0004 2.8346,6.0004 C1.4286,6.0004 0.2886,4.8594 0.2886,3.4534" id="Fill-55" fill="#65BDB8" mask="url(#mask-38)"></path>
            </g>
            <g id="Group-60" transform="translate(135.000000, 0.093020)">
                <mask id="mask-40" fill="white">
                    <use xlink:href="#path-39"></use>
                </mask>
                <g id="Clip-59"></g>
                <path d="M0.4155,3.4534 C0.4155,2.0474 1.5555,0.9074 2.9615,0.9074 C4.3685,0.9074 5.5085,2.0474 5.5085,3.4534 C5.5085,4.8594 4.3685,6.0004 2.9615,6.0004 C1.5555,6.0004 0.4155,4.8594 0.4155,3.4534" id="Fill-58" fill="#65BDB8" mask="url(#mask-40)"></path>
            </g>
            <g id="Group-63" transform="translate(142.000000, 0.093020)">
                <mask id="mask-42" fill="white">
                    <use xlink:href="#path-41"></use>
                </mask>
                <g id="Clip-62"></g>
                <path d="M0.5425,3.4534 C0.5425,2.0474 1.6825,0.9074 3.0895,0.9074 C4.4955,0.9074 5.6355,2.0474 5.6355,3.4534 C5.6355,4.8594 4.4955,6.0004 3.0895,6.0004 C1.6825,6.0004 0.5425,4.8594 0.5425,3.4534" id="Fill-61" fill="#65BDB8" mask="url(#mask-42)"></path>
            </g>
            <g id="Group-66" transform="translate(149.000000, 0.093020)">
                <mask id="mask-44" fill="white">
                    <use xlink:href="#path-43"></use>
                </mask>
                <g id="Clip-65"></g>
                <path d="M0.6699,3.4534 C0.6699,2.0474 1.8099,0.9074 3.2159,0.9074 C4.6229,0.9074 5.7629,2.0474 5.7629,3.4534 C5.7629,4.8594 4.6229,6.0004 3.2159,6.0004 C1.8099,6.0004 0.6699,4.8594 0.6699,3.4534" id="Fill-64" fill="#65BDB8" mask="url(#mask-44)"></path>
            </g>
            <g id="Group-69" transform="translate(156.000000, 0.093020)">
                <mask id="mask-46" fill="white">
                    <use xlink:href="#path-45"></use>
                </mask>
                <g id="Clip-68"></g>
                <path d="M0.7969,3.4534 C0.7969,2.0474 1.9369,0.9074 3.3429,0.9074 C4.7499,0.9074 5.8899,2.0474 5.8899,3.4534 C5.8899,4.8594 4.7499,6.0004 3.3429,6.0004 C1.9369,6.0004 0.7969,4.8594 0.7969,3.4534" id="Fill-67" fill="#65BDB8" mask="url(#mask-46)"></path>
            </g>
            <g id="Group-72" transform="translate(163.000000, 0.093020)">
                <mask id="mask-48" fill="white">
                    <use xlink:href="#path-47"></use>
                </mask>
                <g id="Clip-71"></g>
                <path d="M0.9238,3.4534 C0.9238,2.0474 2.0638,0.9074 3.4708,0.9074 C4.8768,0.9074 6.0168,2.0474 6.0168,3.4534 C6.0168,4.8594 4.8768,6.0004 3.4708,6.0004 C2.0638,6.0004 0.9238,4.8594 0.9238,3.4534" id="Fill-70" fill="#65BDB8" mask="url(#mask-48)"></path>
            </g>
            <g id="Group-75" transform="translate(171.000000, 0.093020)">
                <mask id="mask-50" fill="white">
                    <use xlink:href="#path-49"></use>
                </mask>
                <g id="Clip-74"></g>
                <path d="M0.0513,3.4534 C0.0513,2.0474 1.1913,0.9074 2.5973,0.9074 C4.0043,0.9074 5.1443,2.0474 5.1443,3.4534 C5.1443,4.8594 4.0043,6.0004 2.5973,6.0004 C1.1913,6.0004 0.0513,4.8594 0.0513,3.4534" id="Fill-73" fill="#65BDB8" mask="url(#mask-50)"></path>
            </g>
            <g id="Group-78" transform="translate(178.000000, 0.093020)">
                <mask id="mask-52" fill="white">
                    <use xlink:href="#path-51"></use>
                </mask>
                <g id="Clip-77"></g>
                <path d="M0.1782,3.4534 C0.1782,2.0474 1.3182,0.9074 2.7242,0.9074 C4.1312,0.9074 5.2712,2.0474 5.2712,3.4534 C5.2712,4.8594 4.1312,6.0004 2.7242,6.0004 C1.3182,6.0004 0.1782,4.8594 0.1782,3.4534" id="Fill-76" fill="#65BDB8" mask="url(#mask-52)"></path>
            </g>
            <g id="Group-81" transform="translate(185.000000, 0.093020)">
                <mask id="mask-54" fill="white">
                    <use xlink:href="#path-53"></use>
                </mask>
                <g id="Clip-80"></g>
                <path d="M0.3057,3.4534 C0.3057,2.0474 1.4457,0.9074 2.8517,0.9074 C4.2587,0.9074 5.3987,2.0474 5.3987,3.4534 C5.3987,4.8594 4.2587,6.0004 2.8517,6.0004 C1.4457,6.0004 0.3057,4.8594 0.3057,3.4534" id="Fill-79" fill="#65BDB8" mask="url(#mask-54)"></path>
            </g>
            <g id="Group-84" transform="translate(192.000000, 0.093020)">
                <mask id="mask-56" fill="white">
                    <use xlink:href="#path-55"></use>
                </mask>
                <g id="Clip-83"></g>
                <path d="M0.4326,3.4534 C0.4326,2.0474 1.5726,0.9074 2.9786,0.9074 C4.3856,0.9074 5.5256,2.0474 5.5256,3.4534 C5.5256,4.8594 4.3856,6.0004 2.9786,6.0004 C1.5726,6.0004 0.4326,4.8594 0.4326,3.4534" id="Fill-82" fill="#65BDB8" mask="url(#mask-56)"></path>
            </g>
        </g>
    </g>
</svg>