<?xml version="1.0" encoding="UTF-8"?>
<svg width="500px" height="10px" viewBox="0 0 500 10" version="1.1" xmlns="http://www.w3.org/2000/svg" xmlns:xlink="http://www.w3.org/1999/xlink">
    <!-- Generator: Sketch 64 (93537) - https://sketch.com -->
    <title>173</title>
    <desc>Created with Sketch.</desc>
    <defs>
        <polygon id="path-1" points="0 0.907 5.093 0.907 5.093 5.9999 0 5.9999"></polygon>
        <polygon id="path-3" points="0.127 0.907 5.22 0.907 5.22 5.9999 0.127 5.9999"></polygon>
        <polygon id="path-5" points="0.2544 0.907 5.3474 0.907 5.3474 5.9999 0.2544 5.9999"></polygon>
        <polygon id="path-7" points="0.3813 0.907 5.4743 0.907 5.4743 5.9999 0.3813 5.9999"></polygon>
        <polygon id="path-9" points="0.5083 0.907 5.6013 0.907 5.6013 5.9999 0.5083 5.9999"></polygon>
        <polygon id="path-11" points="0.6357 0.907 5.7287 0.907 5.7287 5.9999 0.6357 5.9999"></polygon>
        <polygon id="path-13" points="0.7627 0.907 5.8557 0.907 5.8557 5.9999 0.7627 5.9999"></polygon>
        <polygon id="path-15" points="0.8901 0.907 5.9831 0.907 5.9831 5.9999 0.8901 5.9999"></polygon>
        <polygon id="path-17" points="0.0171 0.907 5.1101 0.907 5.1101 5.9999 0.0171 5.9999"></polygon>
        <polygon id="path-19" points="0.144 0.907 5.237 0.907 5.237 5.9999 0.144 5.9999"></polygon>
        <polygon id="path-21" points="0.2715 0.907 5.3645 0.907 5.3645 5.9999 0.2715 5.9999"></polygon>
        <polygon id="path-23" points="0.3984 0.907 5.4914 0.907 5.4914 5.9999 0.3984 5.9999"></polygon>
        <polygon id="path-25" points="0.5254 0.907 5.6184 0.907 5.6184 5.9999 0.5254 5.9999"></polygon>
        <polygon id="path-27" points="0.6528 0.907 5.7458 0.907 5.7458 5.9999 0.6528 5.9999"></polygon>
        <polygon id="path-29" points="0.7798 0.907 5.8728 0.907 5.8728 5.9999 0.7798 5.9999"></polygon>
        <polygon id="path-31" points="0.9072 0.907 6.0002 0.907 6.0002 5.9999 0.9072 5.9999"></polygon>
        <polygon id="path-33" points="0.0342 0.907 5.1272 0.907 5.1272 5.9999 0.0342 5.9999"></polygon>
        <polygon id="path-35" points="0.1611 0.907 5.2541 0.907 5.2541 5.9999 0.1611 5.9999"></polygon>
        <polygon id="path-37" points="0.2886 0.907 5.3816 0.907 5.3816 5.9999 0.2886 5.9999"></polygon>
        <polygon id="path-39" points="0.4155 0.907 5.5085 0.907 5.5085 5.9999 0.4155 5.9999"></polygon>
        <polygon id="path-41" points="0.5425 0.907 5.6355 0.907 5.6355 5.9999 0.5425 5.9999"></polygon>
        <polygon id="path-43" points="0.6699 0.907 5.7629 0.907 5.7629 5.9999 0.6699 5.9999"></polygon>
        <polygon id="path-45" points="0.7969 0.907 5.8899 0.907 5.8899 5.9999 0.7969 5.9999"></polygon>
        <polygon id="path-47" points="0.9238 0.907 6.0168 0.907 6.0168 5.9999 0.9238 5.9999"></polygon>
        <polygon id="path-49" points="0.0513 0.907 5.1443 0.907 5.1443 5.9999 0.0513 5.9999"></polygon>
        <polygon id="path-51" points="0.1782 0.907 5.2712 0.907 5.2712 5.9999 0.1782 5.9999"></polygon>
        <polygon id="path-53" points="0.3057 0.907 5.3987 0.907 5.3987 5.9999 0.3057 5.9999"></polygon>
        <polygon id="path-55" points="0.4326 0.907 5.5256 0.907 5.5256 5.9999 0.4326 5.9999"></polygon>
        <polygon id="path-57" points="0.5596 0.907 5.6526 0.907 5.6526 5.9999 0.5596 5.9999"></polygon>
        <polygon id="path-59" points="0.687 0.907 5.78 0.907 5.78 5.9999 0.687 5.9999"></polygon>
        <polygon id="path-61" points="0.814 0.907 5.907 0.907 5.907 5.9999 0.814 5.9999"></polygon>
        <polygon id="path-63" points="0.9409 0.907 6.0339 0.907 6.0339 5.9999 0.9409 5.9999"></polygon>
        <polygon id="path-65" points="0.0684 0.907 5.1614 0.907 5.1614 5.9999 0.0684 5.9999"></polygon>
        <polygon id="path-67" points="0.1953 0.907 5.2883 0.907 5.2883 5.9999 0.1953 5.9999"></polygon>
        <polygon id="path-69" points="0.3228 0.907 5.4158 0.907 5.4158 5.9999 0.3228 5.9999"></polygon>
        <polygon id="path-71" points="0.4497 0.907 5.5427 0.907 5.5427 5.9999 0.4497 5.9999"></polygon>
        <polygon id="path-73" points="0.5771 0.907 5.6701 0.907 5.6701 5.9999 0.5771 5.9999"></polygon>
        <polygon id="path-75" points="0.7041 0.907 5.7971 0.907 5.7971 5.9999 0.7041 5.9999"></polygon>
        <polygon id="path-77" points="0.8311 0.907 5.9241 0.907 5.9241 5.9999 0.8311 5.9999"></polygon>
        <polygon id="path-79" points="0.958 0.907 6.051 0.907 6.051 5.9999 0.958 5.9999"></polygon>
        <polygon id="path-81" points="0.085 0.907 5.179 0.907 5.179 5.9999 0.085 5.9999"></polygon>
        <polygon id="path-83" points="0.2129 0.907 5.3059 0.907 5.3059 5.9999 0.2129 5.9999"></polygon>
        <polygon id="path-85" points="0.3398 0.907 5.4328 0.907 5.4328 5.9999 0.3398 5.9999"></polygon>
        <polygon id="path-87" points="0.4668 0.907 5.5598 0.907 5.5598 5.9999 0.4668 5.9999"></polygon>
        <polygon id="path-89" points="0.5937 0.907 5.6867 0.907 5.6867 5.9999 0.5937 5.9999"></polygon>
        <polygon id="path-91" points="0.7207 0.907 5.8147 0.907 5.8147 5.9999 0.7207 5.9999"></polygon>
        <polygon id="path-93" points="0.8477 0.907 5.9417 0.907 5.9417 5.9999 0.8477 5.9999"></polygon>
        <polygon id="path-95" points="0.9756 0.907 6.0686 0.907 6.0686 5.9999 0.9756 5.9999"></polygon>
        <polygon id="path-97" points="0.1025 0.907 5.1955 0.907 5.1955 5.9999 0.1025 5.9999"></polygon>
        <polygon id="path-99" points="0.2295 0.907 5.3225 0.907 5.3225 5.9999 0.2295 5.9999"></polygon>
        <polygon id="path-101" points="0.3564 0.907 5.4494 0.907 5.4494 5.9999 0.3564 5.9999"></polygon>
        <polygon id="path-103" points="0.4834 0.907 5.5774 0.907 5.5774 5.9999 0.4834 5.9999"></polygon>
        <polygon id="path-105" points="0.6113 0.907 5.7043 0.907 5.7043 5.9999 0.6113 5.9999"></polygon>
        <polygon id="path-107" points="0.7383 0.907 5.8313 0.907 5.8313 5.9999 0.7383 5.9999"></polygon>
        <polygon id="path-109" points="0.8652 0.907 5.9582 0.907 5.9582 5.9999 0.8652 5.9999"></polygon>
        <polygon id="path-111" points="0.9922 0.907 6.0852 0.907 6.0852 5.9999 0.9922 5.9999"></polygon>
        <polygon id="path-113" points="0.1191 0.907 5.2131 0.907 5.2131 5.9999 0.1191 5.9999"></polygon>
        <polygon id="path-115" points="0.2471 0.907 5.3401 0.907 5.3401 5.9999 0.2471 5.9999"></polygon>
        <polygon id="path-117" points="0.374 0.907 5.467 0.907 5.467 5.9999 0.374 5.9999"></polygon>
        <polygon id="path-119" points="0.501 0.907 5.594 0.907 5.594 5.9999 0.501 5.9999"></polygon>
        <polygon id="path-121" points="0.6279 0.907 5.7209 0.907 5.7209 5.9999 0.6279 5.9999"></polygon>
        <polygon id="path-123" points="0.7549 0.907 5.8489 0.907 5.8489 5.9999 0.7549 5.9999"></polygon>
        <polygon id="path-125" points="0.8818 0.907 5.9758 0.907 5.9758 5.9999 0.8818 5.9999"></polygon>
        <polygon id="path-127" points="0.0098 0.907 5.1028 0.907 5.1028 5.9999 0.0098 5.9999"></polygon>
        <polygon id="path-129" points="0.1367 0.907 5.2297 0.907 5.2297 5.9999 0.1367 5.9999"></polygon>
        <polygon id="path-131" points="0.2637 0.907 5.3567 0.907 5.3567 5.9999 0.2637 5.9999"></polygon>
        <polygon id="path-133" points="0.3906 0.907 5.4836 0.907 5.4836 5.9999 0.3906 5.9999"></polygon>
        <polygon id="path-135" points="0.5176 0.907 5.6116 0.907 5.6116 5.9999 0.5176 5.9999"></polygon>
        <polygon id="path-137" points="0.6455 0.907 5.738 0.907 5.738 5.9999 0.6455 5.9999"></polygon>
    </defs>
    <g id="173" stroke="none" stroke-width="1" fill="none" fill-rule="evenodd">
        <g id="Group-208" transform="translate(0.000000, 2.000000)">
            <g id="Group-3" transform="translate(0.000000, 0.093020)">
                <mask id="mask-2" fill="white">
                    <use xlink:href="#path-1"></use>
                </mask>
                <g id="Clip-2"></g>
                <path d="M0,3.4539 C0,2.0469 1.14,0.9069 2.546,0.9069 C3.953,0.9069 5.093,2.0469 5.093,3.4539 C5.093,4.8599 3.953,5.9999 2.546,5.9999 C1.14,5.9999 0,4.8599 0,3.4539" id="Fill-1" fill="#65BDB8" mask="url(#mask-2)"></path>
            </g>
            <g id="Group-6" transform="translate(7.000000, 0.093020)">
                <mask id="mask-4" fill="white">
                    <use xlink:href="#path-3"></use>
                </mask>
                <g id="Clip-5"></g>
                <path d="M0.127,3.4539 C0.127,2.0469 1.267,0.9069 2.674,0.9069 C4.08,0.9069 5.22,2.0469 5.22,3.4539 C5.22,4.8599 4.08,5.9999 2.674,5.9999 C1.267,5.9999 0.127,4.8599 0.127,3.4539" id="Fill-4" fill="#65BDB8" mask="url(#mask-4)"></path>
            </g>
            <g id="Group-9" transform="translate(14.000000, 0.093020)">
                <mask id="mask-6" fill="white">
                    <use xlink:href="#path-5"></use>
                </mask>
                <g id="Clip-8"></g>
                <path d="M0.2544,3.4539 C0.2544,2.0469 1.3944,0.9069 2.8004,0.9069 C4.2074,0.9069 5.3474,2.0469 5.3474,3.4539 C5.3474,4.8599 4.2074,5.9999 2.8004,5.9999 C1.3944,5.9999 0.2544,4.8599 0.2544,3.4539" id="Fill-7" fill="#65BDB8" mask="url(#mask-6)"></path>
            </g>
            <g id="Group-12" transform="translate(21.000000, 0.093020)">
                <mask id="mask-8" fill="white">
                    <use xlink:href="#path-7"></use>
                </mask>
                <g id="Clip-11"></g>
                <path d="M0.3813,3.4539 C0.3813,2.0469 1.5213,0.9069 2.9273,0.9069 C4.3343,0.9069 5.4743,2.0469 5.4743,3.4539 C5.4743,4.8599 4.3343,5.9999 2.9273,5.9999 C1.5213,5.9999 0.3813,4.8599 0.3813,3.4539" id="Fill-10" fill="#65BDB8" mask="url(#mask-8)"></path>
            </g>
            <g id="Group-15" transform="translate(28.000000, 0.093020)">
                <mask id="mask-10" fill="white">
                    <use xlink:href="#path-9"></use>
                </mask>
                <g id="Clip-14"></g>
                <path d="M0.5083,3.4539 C0.5083,2.0469 1.6483,0.9069 3.0553,0.9069 C4.4613,0.9069 5.6013,2.0469 5.6013,3.4539 C5.6013,4.8599 4.4613,5.9999 3.0553,5.9999 C1.6483,5.9999 0.5083,4.8599 0.5083,3.4539" id="Fill-13" fill="#65BDB8" mask="url(#mask-10)"></path>
            </g>
            <g id="Group-18" transform="translate(35.000000, 0.093020)">
                <mask id="mask-12" fill="white">
                    <use xlink:href="#path-11"></use>
                </mask>
                <g id="Clip-17"></g>
                <path d="M0.6357,3.4539 C0.6357,2.0469 1.7757,0.9069 3.1817,0.9069 C4.5887,0.9069 5.7287,2.0469 5.7287,3.4539 C5.7287,4.8599 4.5887,5.9999 3.1817,5.9999 C1.7757,5.9999 0.6357,4.8599 0.6357,3.4539" id="Fill-16" fill="#65BDB8" mask="url(#mask-12)"></path>
            </g>
            <g id="Group-21" transform="translate(42.000000, 0.093020)">
                <mask id="mask-14" fill="white">
                    <use xlink:href="#path-13"></use>
                </mask>
                <g id="Clip-20"></g>
                <path d="M0.7627,3.4539 C0.7627,2.0469 1.9027,0.9069 3.3087,0.9069 C4.7157,0.9069 5.8557,2.0469 5.8557,3.4539 C5.8557,4.8599 4.7157,5.9999 3.3087,5.9999 C1.9027,5.9999 0.7627,4.8599 0.7627,3.4539" id="Fill-19" fill="#65BDB8" mask="url(#mask-14)"></path>
            </g>
            <g id="Group-24" transform="translate(49.000000, 0.093020)">
                <mask id="mask-16" fill="white">
                    <use xlink:href="#path-15"></use>
                </mask>
                <g id="Clip-23"></g>
                <path d="M0.8901,3.4539 C0.8901,2.0469 2.0301,0.9069 3.4361,0.9069 C4.8431,0.9069 5.9831,2.0469 5.9831,3.4539 C5.9831,4.8599 4.8431,5.9999 3.4361,5.9999 C2.0301,5.9999 0.8901,4.8599 0.8901,3.4539" id="Fill-22" fill="#65BDB8" mask="url(#mask-16)"></path>
            </g>
            <g id="Group-27" transform="translate(57.000000, 0.093020)">
                <mask id="mask-18" fill="white">
                    <use xlink:href="#path-17"></use>
                </mask>
                <g id="Clip-26"></g>
                <path d="M0.0171,3.4539 C0.0171,2.0469 1.1571,0.9069 2.5631,0.9069 C3.9701,0.9069 5.1101,2.0469 5.1101,3.4539 C5.1101,4.8599 3.9701,5.9999 2.5631,5.9999 C1.1571,5.9999 0.0171,4.8599 0.0171,3.4539" id="Fill-25" fill="#65BDB8" mask="url(#mask-18)"></path>
            </g>
            <g id="Group-30" transform="translate(64.000000, 0.093020)">
                <mask id="mask-20" fill="white">
                    <use xlink:href="#path-19"></use>
                </mask>
                <g id="Clip-29"></g>
                <path d="M0.144,3.4539 C0.144,2.0469 1.284,0.9069 2.691,0.9069 C4.097,0.9069 5.237,2.0469 5.237,3.4539 C5.237,4.8599 4.097,5.9999 2.691,5.9999 C1.284,5.9999 0.144,4.8599 0.144,3.4539" id="Fill-28" fill="#65BDB8" mask="url(#mask-20)"></path>
            </g>
            <g id="Group-33" transform="translate(71.000000, 0.093020)">
                <mask id="mask-22" fill="white">
                    <use xlink:href="#path-21"></use>
                </mask>
                <g id="Clip-32"></g>
                <path d="M0.2715,3.4539 C0.2715,2.0469 1.4115,0.9069 2.8175,0.9069 C4.2245,0.9069 5.3645,2.0469 5.3645,3.4539 C5.3645,4.8599 4.2245,5.9999 2.8175,5.9999 C1.4115,5.9999 0.2715,4.8599 0.2715,3.4539" id="Fill-31" fill="#65BDB8" mask="url(#mask-22)"></path>
            </g>
            <g id="Group-36" transform="translate(78.000000, 0.093020)">
                <mask id="mask-24" fill="white">
                    <use xlink:href="#path-23"></use>
                </mask>
                <g id="Clip-35"></g>
                <path d="M0.3984,3.4539 C0.3984,2.0469 1.5384,0.9069 2.9444,0.9069 C4.3514,0.9069 5.4914,2.0469 5.4914,3.4539 C5.4914,4.8599 4.3514,5.9999 2.9444,5.9999 C1.5384,5.9999 0.3984,4.8599 0.3984,3.4539" id="Fill-34" fill="#65BDB8" mask="url(#mask-24)"></path>
            </g>
            <g id="Group-39" transform="translate(85.000000, 0.093020)">
                <mask id="mask-26" fill="white">
                    <use xlink:href="#path-25"></use>
                </mask>
                <g id="Clip-38"></g>
                <path d="M0.5254,3.4539 C0.5254,2.0469 1.6654,0.9069 3.0724,0.9069 C4.4784,0.9069 5.6184,2.0469 5.6184,3.4539 C5.6184,4.8599 4.4784,5.9999 3.0724,5.9999 C1.6654,5.9999 0.5254,4.8599 0.5254,3.4539" id="Fill-37" fill="#65BDB8" mask="url(#mask-26)"></path>
            </g>
            <g id="Group-42" transform="translate(92.000000, 0.093020)">
                <mask id="mask-28" fill="white">
                    <use xlink:href="#path-27"></use>
                </mask>
                <g id="Clip-41"></g>
                <path d="M0.6528,3.4539 C0.6528,2.0469 1.7928,0.9069 3.1988,0.9069 C4.6058,0.9069 5.7458,2.0469 5.7458,3.4539 C5.7458,4.8599 4.6058,5.9999 3.1988,5.9999 C1.7928,5.9999 0.6528,4.8599 0.6528,3.4539" id="Fill-40" fill="#65BDB8" mask="url(#mask-28)"></path>
            </g>
            <g id="Group-45" transform="translate(99.000000, 0.093020)">
                <mask id="mask-30" fill="white">
                    <use xlink:href="#path-29"></use>
                </mask>
                <g id="Clip-44"></g>
                <path d="M0.7798,3.4539 C0.7798,2.0469 1.9198,0.9069 3.3258,0.9069 C4.7328,0.9069 5.8728,2.0469 5.8728,3.4539 C5.8728,4.8599 4.7328,5.9999 3.3258,5.9999 C1.9198,5.9999 0.7798,4.8599 0.7798,3.4539" id="Fill-43" fill="#65BDB8" mask="url(#mask-30)"></path>
            </g>
            <g id="Group-48" transform="translate(106.000000, 0.093020)">
                <mask id="mask-32" fill="white">
                    <use xlink:href="#path-31"></use>
                </mask>
                <g id="Clip-47"></g>
                <path d="M0.9072,3.4539 C0.9072,2.0469 2.0472,0.9069 3.4532,0.9069 C4.8602,0.9069 6.0002,2.0469 6.0002,3.4539 C6.0002,4.8599 4.8602,5.9999 3.4532,5.9999 C2.0472,5.9999 0.9072,4.8599 0.9072,3.4539" id="Fill-46" fill="#65BDB8" mask="url(#mask-32)"></path>
            </g>
            <g id="Group-51" transform="translate(114.000000, 0.093020)">
                <mask id="mask-34" fill="white">
                    <use xlink:href="#path-33"></use>
                </mask>
                <g id="Clip-50"></g>
                <path d="M0.0342,3.4539 C0.0342,2.0469 1.1742,0.9069 2.5802,0.9069 C3.9872,0.9069 5.1272,2.0469 5.1272,3.4539 C5.1272,4.8599 3.9872,5.9999 2.5802,5.9999 C1.1742,5.9999 0.0342,4.8599 0.0342,3.4539" id="Fill-49" fill="#65BDB8" mask="url(#mask-34)"></path>
            </g>
            <g id="Group-54" transform="translate(121.000000, 0.093020)">
                <mask id="mask-36" fill="white">
                    <use xlink:href="#path-35"></use>
                </mask>
                <g id="Clip-53"></g>
                <path d="M0.1611,3.4539 C0.1611,2.0469 1.3011,0.9069 2.7081,0.9069 C4.1141,0.9069 5.2541,2.0469 5.2541,3.4539 C5.2541,4.8599 4.1141,5.9999 2.7081,5.9999 C1.3011,5.9999 0.1611,4.8599 0.1611,3.4539" id="Fill-52" fill="#65BDB8" mask="url(#mask-36)"></path>
            </g>
            <g id="Group-57" transform="translate(128.000000, 0.093020)">
                <mask id="mask-38" fill="white">
                    <use xlink:href="#path-37"></use>
                </mask>
                <g id="Clip-56"></g>
                <path d="M0.2886,3.4539 C0.2886,2.0469 1.4286,0.9069 2.8346,0.9069 C4.2416,0.9069 5.3816,2.0469 5.3816,3.4539 C5.3816,4.8599 4.2416,5.9999 2.8346,5.9999 C1.4286,5.9999 0.2886,4.8599 0.2886,3.4539" id="Fill-55" fill="#65BDB8" mask="url(#mask-38)"></path>
            </g>
            <g id="Group-60" transform="translate(135.000000, 0.093020)">
                <mask id="mask-40" fill="white">
                    <use xlink:href="#path-39"></use>
                </mask>
                <g id="Clip-59"></g>
                <path d="M0.4155,3.4539 C0.4155,2.0469 1.5555,0.9069 2.9615,0.9069 C4.3685,0.9069 5.5085,2.0469 5.5085,3.4539 C5.5085,4.8599 4.3685,5.9999 2.9615,5.9999 C1.5555,5.9999 0.4155,4.8599 0.4155,3.4539" id="Fill-58" fill="#65BDB8" mask="url(#mask-40)"></path>
            </g>
            <g id="Group-63" transform="translate(142.000000, 0.093020)">
                <mask id="mask-42" fill="white">
                    <use xlink:href="#path-41"></use>
                </mask>
                <g id="Clip-62"></g>
                <path d="M0.5425,3.4539 C0.5425,2.0469 1.6825,0.9069 3.0895,0.9069 C4.4955,0.9069 5.6355,2.0469 5.6355,3.4539 C5.6355,4.8599 4.4955,5.9999 3.0895,5.9999 C1.6825,5.9999 0.5425,4.8599 0.5425,3.4539" id="Fill-61" fill="#65BDB8" mask="url(#mask-42)"></path>
            </g>
            <g id="Group-66" transform="translate(149.000000, 0.093020)">
                <mask id="mask-44" fill="white">
                    <use xlink:href="#path-43"></use>
                </mask>
                <g id="Clip-65"></g>
                <path d="M0.6699,3.4539 C0.6699,2.0469 1.8099,0.9069 3.2159,0.9069 C4.6229,0.9069 5.7629,2.0469 5.7629,3.4539 C5.7629,4.8599 4.6229,5.9999 3.2159,5.9999 C1.8099,5.9999 0.6699,4.8599 0.6699,3.4539" id="Fill-64" fill="#65BDB8" mask="url(#mask-44)"></path>
            </g>
            <g id="Group-69" transform="translate(156.000000, 0.093020)">
                <mask id="mask-46" fill="white">
                    <use xlink:href="#path-45"></use>
                </mask>
                <g id="Clip-68"></g>
                <path d="M0.7969,3.4539 C0.7969,2.0469 1.9369,0.9069 3.3429,0.9069 C4.7499,0.9069 5.8899,2.0469 5.8899,3.4539 C5.8899,4.8599 4.7499,5.9999 3.3429,5.9999 C1.9369,5.9999 0.7969,4.8599 0.7969,3.4539" id="Fill-67" fill="#65BDB8" mask="url(#mask-46)"></path>
            </g>
            <g id="Group-72" transform="translate(163.000000, 0.093020)">
                <mask id="mask-48" fill="white">
                    <use xlink:href="#path-47"></use>
                </mask>
                <g id="Clip-71"></g>
                <path d="M0.9238,3.4539 C0.9238,2.0469 2.0638,0.9069 3.4708,0.9069 C4.8768,0.9069 6.0168,2.0469 6.0168,3.4539 C6.0168,4.8599 4.8768,5.9999 3.4708,5.9999 C2.0638,5.9999 0.9238,4.8599 0.9238,3.4539" id="Fill-70" fill="#65BDB8" mask="url(#mask-48)"></path>
            </g>
            <g id="Group-75" transform="translate(171.000000, 0.093020)">
                <mask id="mask-50" fill="white">
                    <use xlink:href="#path-49"></use>
                </mask>
                <g id="Clip-74"></g>
                <path d="M0.0513,3.4539 C0.0513,2.0469 1.1913,0.9069 2.5973,0.9069 C4.0043,0.9069 5.1443,2.0469 5.1443,3.4539 C5.1443,4.8599 4.0043,5.9999 2.5973,5.9999 C1.1913,5.9999 0.0513,4.8599 0.0513,3.4539" id="Fill-73" fill="#65BDB8" mask="url(#mask-50)"></path>
            </g>
            <g id="Group-78" transform="translate(178.000000, 0.093020)">
                <mask id="mask-52" fill="white">
                    <use xlink:href="#path-51"></use>
                </mask>
                <g id="Clip-77"></g>
                <path d="M0.1782,3.4539 C0.1782,2.0469 1.3182,0.9069 2.7242,0.9069 C4.1312,0.9069 5.2712,2.0469 5.2712,3.4539 C5.2712,4.8599 4.1312,5.9999 2.7242,5.9999 C1.3182,5.9999 0.1782,4.8599 0.1782,3.4539" id="Fill-76" fill="#65BDB8" mask="url(#mask-52)"></path>
            </g>
            <g id="Group-81" transform="translate(185.000000, 0.093020)">
                <mask id="mask-54" fill="white">
                    <use xlink:href="#path-53"></use>
                </mask>
                <g id="Clip-80"></g>
                <path d="M0.3057,3.4539 C0.3057,2.0469 1.4457,0.9069 2.8517,0.9069 C4.2587,0.9069 5.3987,2.0469 5.3987,3.4539 C5.3987,4.8599 4.2587,5.9999 2.8517,5.9999 C1.4457,5.9999 0.3057,4.8599 0.3057,3.4539" id="Fill-79" fill="#65BDB8" mask="url(#mask-54)"></path>
            </g>
            <g id="Group-84" transform="translate(192.000000, 0.093020)">
                <mask id="mask-56" fill="white">
                    <use xlink:href="#path-55"></use>
                </mask>
                <g id="Clip-83"></g>
                <path d="M0.4326,3.4539 C0.4326,2.0469 1.5726,0.9069 2.9786,0.9069 C4.3856,0.9069 5.5256,2.0469 5.5256,3.4539 C5.5256,4.8599 4.3856,5.9999 2.9786,5.9999 C1.5726,5.9999 0.4326,4.8599 0.4326,3.4539" id="Fill-82" fill="#65BDB8" mask="url(#mask-56)"></path>
            </g>
            <g id="Group-87" transform="translate(199.000000, 0.093020)">
                <mask id="mask-58" fill="white">
                    <use xlink:href="#path-57"></use>
                </mask>
                <g id="Clip-86"></g>
                <path d="M0.5596,3.4539 C0.5596,2.0469 1.6996,0.9069 3.1066,0.9069 C4.5126,0.9069 5.6526,2.0469 5.6526,3.4539 C5.6526,4.8599 4.5126,5.9999 3.1066,5.9999 C1.6996,5.9999 0.5596,4.8599 0.5596,3.4539" id="Fill-85" fill="#65BDB8" mask="url(#mask-58)"></path>
            </g>
            <g id="Group-90" transform="translate(206.000000, 0.093020)">
                <mask id="mask-60" fill="white">
                    <use xlink:href="#path-59"></use>
                </mask>
                <g id="Clip-89"></g>
                <path d="M0.687,3.4539 C0.687,2.0469 1.827,0.9069 3.233,0.9069 C4.64,0.9069 5.78,2.0469 5.78,3.4539 C5.78,4.8599 4.64,5.9999 3.233,5.9999 C1.827,5.9999 0.687,4.8599 0.687,3.4539" id="Fill-88" fill="#65BDB8" mask="url(#mask-60)"></path>
            </g>
            <g id="Group-93" transform="translate(213.000000, 0.093020)">
                <mask id="mask-62" fill="white">
                    <use xlink:href="#path-61"></use>
                </mask>
                <g id="Clip-92"></g>
                <path d="M0.814,3.4539 C0.814,2.0469 1.954,0.9069 3.36,0.9069 C4.767,0.9069 5.907,2.0469 5.907,3.4539 C5.907,4.8599 4.767,5.9999 3.36,5.9999 C1.954,5.9999 0.814,4.8599 0.814,3.4539" id="Fill-91" fill="#65BDB8" mask="url(#mask-62)"></path>
            </g>
            <g id="Group-96" transform="translate(220.000000, 0.093020)">
                <mask id="mask-64" fill="white">
                    <use xlink:href="#path-63"></use>
                </mask>
                <g id="Clip-95"></g>
                <path d="M0.9409,3.4539 C0.9409,2.0469 2.0809,0.9069 3.4879,0.9069 C4.8939,0.9069 6.0339,2.0469 6.0339,3.4539 C6.0339,4.8599 4.8939,5.9999 3.4879,5.9999 C2.0809,5.9999 0.9409,4.8599 0.9409,3.4539" id="Fill-94" fill="#65BDB8" mask="url(#mask-64)"></path>
            </g>
            <g id="Group-99" transform="translate(228.000000, 0.093020)">
                <mask id="mask-66" fill="white">
                    <use xlink:href="#path-65"></use>
                </mask>
                <g id="Clip-98"></g>
                <path d="M0.0684,3.4539 C0.0684,2.0469 1.2084,0.9069 2.6144,0.9069 C4.0214,0.9069 5.1614,2.0469 5.1614,3.4539 C5.1614,4.8599 4.0214,5.9999 2.6144,5.9999 C1.2084,5.9999 0.0684,4.8599 0.0684,3.4539" id="Fill-97" fill="#65BDB8" mask="url(#mask-66)"></path>
            </g>
            <g id="Group-102" transform="translate(235.000000, 0.093020)">
                <mask id="mask-68" fill="white">
                    <use xlink:href="#path-67"></use>
                </mask>
                <g id="Clip-101"></g>
                <path d="M0.1953,3.4539 C0.1953,2.0469 1.3353,0.9069 2.7413,0.9069 C4.1483,0.9069 5.2883,2.0469 5.2883,3.4539 C5.2883,4.8599 4.1483,5.9999 2.7413,5.9999 C1.3353,5.9999 0.1953,4.8599 0.1953,3.4539" id="Fill-100" fill="#65BDB8" mask="url(#mask-68)"></path>
            </g>
            <g id="Group-105" transform="translate(242.000000, 0.093020)">
                <mask id="mask-70" fill="white">
                    <use xlink:href="#path-69"></use>
                </mask>
                <g id="Clip-104"></g>
                <path d="M0.3228,3.4539 C0.3228,2.0469 1.4628,0.9069 2.8688,0.9069 C4.2758,0.9069 5.4158,2.0469 5.4158,3.4539 C5.4158,4.8599 4.2758,5.9999 2.8688,5.9999 C1.4628,5.9999 0.3228,4.8599 0.3228,3.4539" id="Fill-103" fill="#65BDB8" mask="url(#mask-70)"></path>
            </g>
            <g id="Group-108" transform="translate(249.000000, 0.093020)">
                <mask id="mask-72" fill="white">
                    <use xlink:href="#path-71"></use>
                </mask>
                <g id="Clip-107"></g>
                <path d="M0.4497,3.4539 C0.4497,2.0469 1.5897,0.9069 2.9957,0.9069 C4.4027,0.9069 5.5427,2.0469 5.5427,3.4539 C5.5427,4.8599 4.4027,5.9999 2.9957,5.9999 C1.5897,5.9999 0.4497,4.8599 0.4497,3.4539" id="Fill-106" fill="#65BDB8" mask="url(#mask-72)"></path>
            </g>
            <g id="Group-111" transform="translate(256.000000, 0.093020)">
                <mask id="mask-74" fill="white">
                    <use xlink:href="#path-73"></use>
                </mask>
                <g id="Clip-110"></g>
                <path d="M0.5771,3.4539 C0.5771,2.0469 1.7171,0.9069 3.1231,0.9069 C4.5291,0.9069 5.6701,2.0469 5.6701,3.4539 C5.6701,4.8599 4.5291,5.9999 3.1231,5.9999 C1.7171,5.9999 0.5771,4.8599 0.5771,3.4539" id="Fill-109" fill="#65BDB8" mask="url(#mask-74)"></path>
            </g>
            <g id="Group-114" transform="translate(263.000000, 0.093020)">
                <mask id="mask-76" fill="white">
                    <use xlink:href="#path-75"></use>
                </mask>
                <g id="Clip-113"></g>
                <path d="M0.7041,3.4539 C0.7041,2.0469 1.8441,0.9069 3.2501,0.9069 C4.6571,0.9069 5.7971,2.0469 5.7971,3.4539 C5.7971,4.8599 4.6571,5.9999 3.2501,5.9999 C1.8441,5.9999 0.7041,4.8599 0.7041,3.4539" id="Fill-112" fill="#65BDB8" mask="url(#mask-76)"></path>
            </g>
            <g id="Group-117" transform="translate(270.000000, 0.093020)">
                <mask id="mask-78" fill="white">
                    <use xlink:href="#path-77"></use>
                </mask>
                <g id="Clip-116"></g>
                <path d="M0.8311,3.4539 C0.8311,2.0469 1.9711,0.9069 3.3781,0.9069 C4.7841,0.9069 5.9241,2.0469 5.9241,3.4539 C5.9241,4.8599 4.7841,5.9999 3.3781,5.9999 C1.9711,5.9999 0.8311,4.8599 0.8311,3.4539" id="Fill-115" fill="#65BDB8" mask="url(#mask-78)"></path>
            </g>
            <g id="Group-120" transform="translate(277.000000, 0.093020)">
                <mask id="mask-80" fill="white">
                    <use xlink:href="#path-79"></use>
                </mask>
                <g id="Clip-119"></g>
                <path d="M0.958,3.4539 C0.958,2.0469 2.099,0.9069 3.505,0.9069 C4.911,0.9069 6.051,2.0469 6.051,3.4539 C6.051,4.8599 4.911,5.9999 3.505,5.9999 C2.099,5.9999 0.958,4.8599 0.958,3.4539" id="Fill-118" fill="#65BDB8" mask="url(#mask-80)"></path>
            </g>
            <g id="Group-123" transform="translate(285.000000, 0.093020)">
                <mask id="mask-82" fill="white">
                    <use xlink:href="#path-81"></use>
                </mask>
                <g id="Clip-122"></g>
                <path d="M0.085,3.4539 C0.085,2.0469 1.226,0.9069 2.632,0.9069 C4.038,0.9069 5.179,2.0469 5.179,3.4539 C5.179,4.8599 4.038,5.9999 2.632,5.9999 C1.226,5.9999 0.085,4.8599 0.085,3.4539" id="Fill-121" fill="#65BDB8" mask="url(#mask-82)"></path>
            </g>
            <g id="Group-126" transform="translate(292.000000, 0.093020)">
                <mask id="mask-84" fill="white">
                    <use xlink:href="#path-83"></use>
                </mask>
                <g id="Clip-125"></g>
                <path d="M0.2129,3.4539 C0.2129,2.0469 1.3529,0.9069 2.7589,0.9069 C4.1649,0.9069 5.3059,2.0469 5.3059,3.4539 C5.3059,4.8599 4.1649,5.9999 2.7589,5.9999 C1.3529,5.9999 0.2129,4.8599 0.2129,3.4539" id="Fill-124" fill="#65BDB8" mask="url(#mask-84)"></path>
            </g>
            <g id="Group-129" transform="translate(299.000000, 0.093020)">
                <mask id="mask-86" fill="white">
                    <use xlink:href="#path-85"></use>
                </mask>
                <g id="Clip-128"></g>
                <path d="M0.3398,3.4539 C0.3398,2.0469 1.4798,0.9069 2.8858,0.9069 C4.2928,0.9069 5.4328,2.0469 5.4328,3.4539 C5.4328,4.8599 4.2928,5.9999 2.8858,5.9999 C1.4798,5.9999 0.3398,4.8599 0.3398,3.4539" id="Fill-127" fill="#65BDB8" mask="url(#mask-86)"></path>
            </g>
            <g id="Group-132" transform="translate(306.000000, 0.093020)">
                <mask id="mask-88" fill="white">
                    <use xlink:href="#path-87"></use>
                </mask>
                <g id="Clip-131"></g>
                <path d="M0.4668,3.4539 C0.4668,2.0469 1.6068,0.9069 3.0138,0.9069 C4.4198,0.9069 5.5598,2.0469 5.5598,3.4539 C5.5598,4.8599 4.4198,5.9999 3.0138,5.9999 C1.6068,5.9999 0.4668,4.8599 0.4668,3.4539" id="Fill-130" fill="#65BDB8" mask="url(#mask-88)"></path>
            </g>
            <g id="Group-135" transform="translate(313.000000, 0.093020)">
                <mask id="mask-90" fill="white">
                    <use xlink:href="#path-89"></use>
                </mask>
                <g id="Clip-134"></g>
                <path d="M0.5937,3.4539 C0.5937,2.0469 1.7347,0.9069 3.1407,0.9069 C4.5467,0.9069 5.6867,2.0469 5.6867,3.4539 C5.6867,4.8599 4.5467,5.9999 3.1407,5.9999 C1.7347,5.9999 0.5937,4.8599 0.5937,3.4539" id="Fill-133" fill="#65BDB8" mask="url(#mask-90)"></path>
            </g>
            <g id="Group-138" transform="translate(320.000000, 0.093020)">
                <mask id="mask-92" fill="white">
                    <use xlink:href="#path-91"></use>
                </mask>
                <g id="Clip-137"></g>
                <path d="M0.7207,3.4539 C0.7207,2.0469 1.8617,0.9069 3.2677,0.9069 C4.6737,0.9069 5.8147,2.0469 5.8147,3.4539 C5.8147,4.8599 4.6737,5.9999 3.2677,5.9999 C1.8617,5.9999 0.7207,4.8599 0.7207,3.4539" id="Fill-136" fill="#65BDB8" mask="url(#mask-92)"></path>
            </g>
            <g id="Group-141" transform="translate(327.000000, 0.093020)">
                <mask id="mask-94" fill="white">
                    <use xlink:href="#path-93"></use>
                </mask>
                <g id="Clip-140"></g>
                <path d="M0.8477,3.4539 C0.8477,2.0469 1.9887,0.9069 3.3947,0.9069 C4.8007,0.9069 5.9417,2.0469 5.9417,3.4539 C5.9417,4.8599 4.8007,5.9999 3.3947,5.9999 C1.9887,5.9999 0.8477,4.8599 0.8477,3.4539" id="Fill-139" fill="#65BDB8" mask="url(#mask-94)"></path>
            </g>
            <g id="Group-144" transform="translate(334.000000, 0.093020)">
                <mask id="mask-96" fill="white">
                    <use xlink:href="#path-95"></use>
                </mask>
                <g id="Clip-143"></g>
                <path d="M0.9756,3.4539 C0.9756,2.0469 2.1156,0.9069 3.5216,0.9069 C4.9276,0.9069 6.0686,2.0469 6.0686,3.4539 C6.0686,4.8599 4.9276,5.9999 3.5216,5.9999 C2.1156,5.9999 0.9756,4.8599 0.9756,3.4539" id="Fill-142" fill="#65BDB8" mask="url(#mask-96)"></path>
            </g>
            <g id="Group-147" transform="translate(342.000000, 0.093020)">
                <mask id="mask-98" fill="white">
                    <use xlink:href="#path-97"></use>
                </mask>
                <g id="Clip-146"></g>
                <path d="M0.1025,3.4539 C0.1025,2.0469 1.2425,0.9069 2.6485,0.9069 C4.0555,0.9069 5.1955,2.0469 5.1955,3.4539 C5.1955,4.8599 4.0555,5.9999 2.6485,5.9999 C1.2425,5.9999 0.1025,4.8599 0.1025,3.4539" id="Fill-145" fill="#65BDB8" mask="url(#mask-98)"></path>
            </g>
            <g id="Group-150" transform="translate(349.000000, 0.093020)">
                <mask id="mask-100" fill="white">
                    <use xlink:href="#path-99"></use>
                </mask>
                <g id="Clip-149"></g>
                <path d="M0.2295,3.4539 C0.2295,2.0469 1.3705,0.9069 2.7765,0.9069 C4.1825,0.9069 5.3225,2.0469 5.3225,3.4539 C5.3225,4.8599 4.1825,5.9999 2.7765,5.9999 C1.3705,5.9999 0.2295,4.8599 0.2295,3.4539" id="Fill-148" fill="#65BDB8" mask="url(#mask-100)"></path>
            </g>
            <g id="Group-153" transform="translate(356.000000, 0.093020)">
                <mask id="mask-102" fill="white">
                    <use xlink:href="#path-101"></use>
                </mask>
                <g id="Clip-152"></g>
                <path d="M0.3564,3.4539 C0.3564,2.0469 1.4974,0.9069 2.9034,0.9069 C4.3094,0.9069 5.4494,2.0469 5.4494,3.4539 C5.4494,4.8599 4.3094,5.9999 2.9034,5.9999 C1.4974,5.9999 0.3564,4.8599 0.3564,3.4539" id="Fill-151" fill="#65BDB8" mask="url(#mask-102)"></path>
            </g>
            <g id="Group-156" transform="translate(363.000000, 0.093020)">
                <mask id="mask-104" fill="white">
                    <use xlink:href="#path-103"></use>
                </mask>
                <g id="Clip-155"></g>
                <path d="M0.4834,3.4539 C0.4834,2.0469 1.6244,0.9069 3.0304,0.9069 C4.4364,0.9069 5.5774,2.0469 5.5774,3.4539 C5.5774,4.8599 4.4364,5.9999 3.0304,5.9999 C1.6244,5.9999 0.4834,4.8599 0.4834,3.4539" id="Fill-154" fill="#65BDB8" mask="url(#mask-104)"></path>
            </g>
            <g id="Group-159" transform="translate(370.000000, 0.093020)">
                <mask id="mask-106" fill="white">
                    <use xlink:href="#path-105"></use>
                </mask>
                <g id="Clip-158"></g>
                <path d="M0.6113,3.4539 C0.6113,2.0469 1.7513,0.9069 3.1573,0.9069 C4.5633,0.9069 5.7043,2.0469 5.7043,3.4539 C5.7043,4.8599 4.5633,5.9999 3.1573,5.9999 C1.7513,5.9999 0.6113,4.8599 0.6113,3.4539" id="Fill-157" fill="#65BDB8" mask="url(#mask-106)"></path>
            </g>
            <g id="Group-162" transform="translate(377.000000, 0.093020)">
                <mask id="mask-108" fill="white">
                    <use xlink:href="#path-107"></use>
                </mask>
                <g id="Clip-161"></g>
                <path d="M0.7383,3.4539 C0.7383,2.0469 1.8783,0.9069 3.2843,0.9069 C4.6913,0.9069 5.8313,2.0469 5.8313,3.4539 C5.8313,4.8599 4.6913,5.9999 3.2843,5.9999 C1.8783,5.9999 0.7383,4.8599 0.7383,3.4539" id="Fill-160" fill="#65BDB8" mask="url(#mask-108)"></path>
            </g>
            <g id="Group-165" transform="translate(384.000000, 0.093020)">
                <mask id="mask-110" fill="white">
                    <use xlink:href="#path-109"></use>
                </mask>
                <g id="Clip-164"></g>
                <path d="M0.8652,3.4539 C0.8652,2.0469 2.0052,0.9069 3.4122,0.9069 C4.8182,0.9069 5.9582,2.0469 5.9582,3.4539 C5.9582,4.8599 4.8182,5.9999 3.4122,5.9999 C2.0052,5.9999 0.8652,4.8599 0.8652,3.4539" id="Fill-163" fill="#65BDB8" mask="url(#mask-110)"></path>
            </g>
            <g id="Group-168" transform="translate(391.000000, 0.093020)">
                <mask id="mask-112" fill="white">
                    <use xlink:href="#path-111"></use>
                </mask>
                <g id="Clip-167"></g>
                <path d="M0.9922,3.4539 C0.9922,2.0469 2.1332,0.9069 3.5392,0.9069 C4.9452,0.9069 6.0852,2.0469 6.0852,3.4539 C6.0852,4.8599 4.9452,5.9999 3.5392,5.9999 C2.1332,5.9999 0.9922,4.8599 0.9922,3.4539" id="Fill-166" fill="#65BDB8" mask="url(#mask-112)"></path>
            </g>
            <g id="Group-171" transform="translate(399.000000, 0.093020)">
                <mask id="mask-114" fill="white">
                    <use xlink:href="#path-113"></use>
                </mask>
                <g id="Clip-170"></g>
                <path d="M0.1191,3.4539 C0.1191,2.0469 1.2601,0.9069 2.6661,0.9069 C4.0721,0.9069 5.2131,2.0469 5.2131,3.4539 C5.2131,4.8599 4.0721,5.9999 2.6661,5.9999 C1.2601,5.9999 0.1191,4.8599 0.1191,3.4539" id="Fill-169" fill="#65BDB8" mask="url(#mask-114)"></path>
            </g>
            <g id="Group-174" transform="translate(406.000000, 0.093020)">
                <mask id="mask-116" fill="white">
                    <use xlink:href="#path-115"></use>
                </mask>
                <g id="Clip-173"></g>
                <path d="M0.2471,3.4539 C0.2471,2.0469 1.3871,0.9069 2.7931,0.9069 C4.1991,0.9069 5.3401,2.0469 5.3401,3.4539 C5.3401,4.8599 4.1991,5.9999 2.7931,5.9999 C1.3871,5.9999 0.2471,4.8599 0.2471,3.4539" id="Fill-172" fill="#65BDB8" mask="url(#mask-116)"></path>
            </g>
            <g id="Group-177" transform="translate(413.000000, 0.093020)">
                <mask id="mask-118" fill="white">
                    <use xlink:href="#path-117"></use>
                </mask>
                <g id="Clip-176"></g>
                <path d="M0.374,3.4539 C0.374,2.0469 1.514,0.9069 2.92,0.9069 C4.326,0.9069 5.467,2.0469 5.467,3.4539 C5.467,4.8599 4.326,5.9999 2.92,5.9999 C1.514,5.9999 0.374,4.8599 0.374,3.4539" id="Fill-175" fill="#65BDB8" mask="url(#mask-118)"></path>
            </g>
            <g id="Group-180" transform="translate(420.000000, 0.093020)">
                <mask id="mask-120" fill="white">
                    <use xlink:href="#path-119"></use>
                </mask>
                <g id="Clip-179"></g>
                <path d="M0.501,3.4539 C0.501,2.0469 1.641,0.9069 3.048,0.9069 C4.454,0.9069 5.594,2.0469 5.594,3.4539 C5.594,4.8599 4.454,5.9999 3.048,5.9999 C1.641,5.9999 0.501,4.8599 0.501,3.4539" id="Fill-178" fill="#65BDB8" mask="url(#mask-120)"></path>
            </g>
            <g id="Group-183" transform="translate(427.000000, 0.093020)">
                <mask id="mask-122" fill="white">
                    <use xlink:href="#path-121"></use>
                </mask>
                <g id="Clip-182"></g>
                <path d="M0.6279,3.4539 C0.6279,2.0469 1.7689,0.9069 3.1749,0.9069 C4.5809,0.9069 5.7209,2.0469 5.7209,3.4539 C5.7209,4.8599 4.5809,5.9999 3.1749,5.9999 C1.7689,5.9999 0.6279,4.8599 0.6279,3.4539" id="Fill-181" fill="#65BDB8" mask="url(#mask-122)"></path>
            </g>
            <g id="Group-186" transform="translate(434.000000, 0.093020)">
                <mask id="mask-124" fill="white">
                    <use xlink:href="#path-123"></use>
                </mask>
                <g id="Clip-185"></g>
                <path d="M0.7549,3.4539 C0.7549,2.0469 1.8959,0.9069 3.3019,0.9069 C4.7079,0.9069 5.8489,2.0469 5.8489,3.4539 C5.8489,4.8599 4.7079,5.9999 3.3019,5.9999 C1.8959,5.9999 0.7549,4.8599 0.7549,3.4539" id="Fill-184" fill="#65BDB8" mask="url(#mask-124)"></path>
            </g>
            <g id="Group-189" transform="translate(441.000000, 0.093020)">
                <mask id="mask-126" fill="white">
                    <use xlink:href="#path-125"></use>
                </mask>
                <g id="Clip-188"></g>
                <path d="M0.8818,3.4539 C0.8818,2.0469 2.0228,0.9069 3.4288,0.9069 C4.8348,0.9069 5.9758,2.0469 5.9758,3.4539 C5.9758,4.8599 4.8348,5.9999 3.4288,5.9999 C2.0228,5.9999 0.8818,4.8599 0.8818,3.4539" id="Fill-187" fill="#65BDB8" mask="url(#mask-126)"></path>
            </g>
            <g id="Group-192" transform="translate(449.000000, 0.093020)">
                <mask id="mask-128" fill="white">
                    <use xlink:href="#path-127"></use>
                </mask>
                <g id="Clip-191"></g>
                <path d="M0.0098,3.4539 C0.0098,2.0469 1.1498,0.9069 2.5558,0.9069 C3.9618,0.9069 5.1028,2.0469 5.1028,3.4539 C5.1028,4.8599 3.9618,5.9999 2.5558,5.9999 C1.1498,5.9999 0.0098,4.8599 0.0098,3.4539" id="Fill-190" fill="#65BDB8" mask="url(#mask-128)"></path>
            </g>
            <g id="Group-195" transform="translate(456.000000, 0.093020)">
                <mask id="mask-130" fill="white">
                    <use xlink:href="#path-129"></use>
                </mask>
                <g id="Clip-194"></g>
                <path d="M0.1367,3.4539 C0.1367,2.0469 1.2767,0.9069 2.6827,0.9069 C4.0897,0.9069 5.2297,2.0469 5.2297,3.4539 C5.2297,4.8599 4.0897,5.9999 2.6827,5.9999 C1.2767,5.9999 0.1367,4.8599 0.1367,3.4539" id="Fill-193" fill="#65BDB8" mask="url(#mask-130)"></path>
            </g>
            <g id="Group-198" transform="translate(463.000000, 0.093020)">
                <mask id="mask-132" fill="white">
                    <use xlink:href="#path-131"></use>
                </mask>
                <g id="Clip-197"></g>
                <path d="M0.2637,3.4539 C0.2637,2.0469 1.4037,0.9069 2.8107,0.9069 C4.2167,0.9069 5.3567,2.0469 5.3567,3.4539 C5.3567,4.8599 4.2167,5.9999 2.8107,5.9999 C1.4037,5.9999 0.2637,4.8599 0.2637,3.4539" id="Fill-196" fill="#65BDB8" mask="url(#mask-132)"></path>
            </g>
            <g id="Group-201" transform="translate(470.000000, 0.093020)">
                <mask id="mask-134" fill="white">
                    <use xlink:href="#path-133"></use>
                </mask>
                <g id="Clip-200"></g>
                <path d="M0.3906,3.4539 C0.3906,2.0469 1.5316,0.9069 2.9376,0.9069 C4.3436,0.9069 5.4836,2.0469 5.4836,3.4539 C5.4836,4.8599 4.3436,5.9999 2.9376,5.9999 C1.5316,5.9999 0.3906,4.8599 0.3906,3.4539" id="Fill-199" fill="#65BDB8" mask="url(#mask-134)"></path>
            </g>
            <g id="Group-204" transform="translate(477.000000, 0.093020)">
                <mask id="mask-136" fill="white">
                    <use xlink:href="#path-135"></use>
                </mask>
                <g id="Clip-203"></g>
                <path d="M0.5176,3.4539 C0.5176,2.0469 1.6586,0.9069 3.0646,0.9069 C4.4706,0.9069 5.6116,2.0469 5.6116,3.4539 C5.6116,4.8599 4.4706,5.9999 3.0646,5.9999 C1.6586,5.9999 0.5176,4.8599 0.5176,3.4539" id="Fill-202" fill="#65BDB8" mask="url(#mask-136)"></path>
            </g>
            <g id="Group-207" transform="translate(484.000000, 0.093020)">
                <mask id="mask-138" fill="white">
                    <use xlink:href="#path-137"></use>
                </mask>
                <g id="Clip-206"></g>
                <path d="M0.6455,3.4539 C0.6455,2.0469 1.7855,0.9069 3.1915,0.9069 C4.5975,0.9069 5.7385,2.0469 5.7385,3.4539 C5.7385,4.8599 4.5975,5.9999 3.1915,5.9999 C1.7855,5.9999 0.6455,4.8599 0.6455,3.4539" id="Fill-205" fill="#65BDB8" mask="url(#mask-138)"></path>
            </g>
        </g>
    </g>
</svg>