<?xml version="1.0" encoding="UTF-8"?>
<svg width="500px" height="10px" viewBox="0 0 500 10" version="1.1" xmlns="http://www.w3.org/2000/svg" xmlns:xlink="http://www.w3.org/1999/xlink">
    <!-- Generator: Sketch 64 (93537) - https://sketch.com -->
    <title>177</title>
    <desc>Created with Sketch.</desc>
    <g id="177" stroke="none" stroke-width="1" fill="none" fill-rule="evenodd">
        <g id="Group-27" transform="translate(0.000000, 2.000000)" fill="#65BDB8">
            <path d="M0,2.54602 C0,1.14002 1.14,2e-05 2.546,2e-05 C3.953,2e-05 5.093,1.14002 5.093,2.54602 C5.093,3.95302 3.953,5.09302 2.546,5.09302 C1.14,5.09302 0,3.95302 0,2.54602" id="Fill-1"></path>
            <path d="M7.127,2.54602 C7.127,1.14002 8.267,2e-05 9.674,2e-05 C11.08,2e-05 12.22,1.14002 12.22,2.54602 C12.22,3.95302 11.08,5.09302 9.674,5.09302 C8.267,5.09302 7.127,3.95302 7.127,2.54602" id="Fill-3"></path>
            <path d="M14.2544,2.54602 C14.2544,1.14002 15.3944,2e-05 16.8004,2e-05 C18.2074,2e-05 19.3474,1.14002 19.3474,2.54602 C19.3474,3.95302 18.2074,5.09302 16.8004,5.09302 C15.3944,5.09302 14.2544,3.95302 14.2544,2.54602" id="Fill-5"></path>
            <path d="M21.3813,2.54602 C21.3813,1.14002 22.5213,2e-05 23.9273,2e-05 C25.3343,2e-05 26.4743,1.14002 26.4743,2.54602 C26.4743,3.95302 25.3343,5.09302 23.9273,5.09302 C22.5213,5.09302 21.3813,3.95302 21.3813,2.54602" id="Fill-7"></path>
            <path d="M28.5083,2.54602 C28.5083,1.14002 29.6483,2e-05 31.0553,2e-05 C32.4613,2e-05 33.6013,1.14002 33.6013,2.54602 C33.6013,3.95302 32.4613,5.09302 31.0553,5.09302 C29.6483,5.09302 28.5083,3.95302 28.5083,2.54602" id="Fill-9"></path>
            <path d="M35.6357,2.54602 C35.6357,1.14002 36.7757,2e-05 38.1817,2e-05 C39.5887,2e-05 40.7287,1.14002 40.7287,2.54602 C40.7287,3.95302 39.5887,5.09302 38.1817,5.09302 C36.7757,5.09302 35.6357,3.95302 35.6357,2.54602" id="Fill-11"></path>
            <path d="M42.7627,2.54602 C42.7627,1.14002 43.9027,2e-05 45.3087,2e-05 C46.7157,2e-05 47.8557,1.14002 47.8557,2.54602 C47.8557,3.95302 46.7157,5.09302 45.3087,5.09302 C43.9027,5.09302 42.7627,3.95302 42.7627,2.54602" id="Fill-13"></path>
            <path d="M49.8901,2.54602 C49.8901,1.14002 51.0301,2e-05 52.4361,2e-05 C53.8431,2e-05 54.9831,1.14002 54.9831,2.54602 C54.9831,3.95302 53.8431,5.09302 52.4361,5.09302 C51.0301,5.09302 49.8901,3.95302 49.8901,2.54602" id="Fill-15"></path>
            <path d="M57.0171,2.54602 C57.0171,1.14002 58.1571,2e-05 59.5631,2e-05 C60.9701,2e-05 62.1101,1.14002 62.1101,2.54602 C62.1101,3.95302 60.9701,5.09302 59.5631,5.09302 C58.1571,5.09302 57.0171,3.95302 57.0171,2.54602" id="Fill-17"></path>
            <path d="M64.144,2.54602 C64.144,1.14002 65.284,2e-05 66.691,2e-05 C68.097,2e-05 69.237,1.14002 69.237,2.54602 C69.237,3.95302 68.097,5.09302 66.691,5.09302 C65.284,5.09302 64.144,3.95302 64.144,2.54602" id="Fill-19"></path>
            <path d="M71.2715,2.54602 C71.2715,1.14002 72.4115,2e-05 73.8175,2e-05 C75.2245,2e-05 76.3645,1.14002 76.3645,2.54602 C76.3645,3.95302 75.2245,5.09302 73.8175,5.09302 C72.4115,5.09302 71.2715,3.95302 71.2715,2.54602" id="Fill-21"></path>
            <path d="M78.3984,2.54602 C78.3984,1.14002 79.5384,2e-05 80.9444,2e-05 C82.3514,2e-05 83.4914,1.14002 83.4914,2.54602 C83.4914,3.95302 82.3514,5.09302 80.9444,5.09302 C79.5384,5.09302 78.3984,3.95302 78.3984,2.54602" id="Fill-23"></path>
            <path d="M85.5254,2.54602 C85.5254,1.14002 86.6654,2e-05 88.0724,2e-05 C89.4784,2e-05 90.6184,1.14002 90.6184,2.54602 C90.6184,3.95302 89.4784,5.09302 88.0724,5.09302 C86.6654,5.09302 85.5254,3.95302 85.5254,2.54602" id="Fill-25"></path>
        </g>
    </g>
</svg>