<?xml version="1.0" encoding="UTF-8"?>
<svg width="500px" height="10px" viewBox="0 0 500 10" version="1.1" xmlns="http://www.w3.org/2000/svg" xmlns:xlink="http://www.w3.org/1999/xlink">
    <!-- Generator: Sketch 64 (93537) - https://sketch.com -->
    <title>205</title>
    <desc>Created with Sketch.</desc>
    <defs>
        <polygon id="path-1" points="0 0.907 5.093 0.907 5.093 6 0 6"></polygon>
        <polygon id="path-3" points="0.127 0.907 5.22 0.907 5.22 6 0.127 6"></polygon>
        <polygon id="path-5" points="0.2544 0.907 5.3474 0.907 5.3474 6 0.2544 6"></polygon>
        <polygon id="path-7" points="0.3813 0.907 5.4743 0.907 5.4743 6 0.3813 6"></polygon>
        <polygon id="path-9" points="0.5083 0.907 5.6013 0.907 5.6013 6 0.5083 6"></polygon>
        <polygon id="path-11" points="0.6357 0.907 5.7287 0.907 5.7287 6 0.6357 6"></polygon>
        <polygon id="path-13" points="0.7627 0.907 5.8557 0.907 5.8557 6 0.7627 6"></polygon>
        <polygon id="path-15" points="0.8901 0.907 5.9831 0.907 5.9831 6 0.8901 6"></polygon>
        <polygon id="path-17" points="0.0171 0.907 5.1101 0.907 5.1101 6 0.0171 6"></polygon>
        <polygon id="path-19" points="0.144 0.907 5.237 0.907 5.237 6 0.144 6"></polygon>
        <polygon id="path-21" points="0.2715 0.907 5.364 0.907 5.364 6 0.2715 6"></polygon>
    </defs>
    <g id="205" stroke="none" stroke-width="1" fill="none" fill-rule="evenodd">
        <g id="Group-34" transform="translate(0.000000, 2.000000)">
            <g id="Group-3" transform="translate(0.000000, 0.093020)">
                <mask id="mask-2" fill="white">
                    <use xlink:href="#path-1"></use>
                </mask>
                <g id="Clip-2"></g>
                <path d="M0,3.4534 C0,2.0474 1.14,0.9064 2.546,0.9064 C3.953,0.9064 5.093,2.0474 5.093,3.4534 C5.093,4.8594 3.953,6.0004 2.546,6.0004 C1.14,6.0004 0,4.8594 0,3.4534" id="Fill-1" fill="#65BDB8" mask="url(#mask-2)"></path>
            </g>
            <g id="Group-6" transform="translate(7.000000, 0.093020)">
                <mask id="mask-4" fill="white">
                    <use xlink:href="#path-3"></use>
                </mask>
                <g id="Clip-5"></g>
                <path d="M0.127,3.4534 C0.127,2.0474 1.267,0.9064 2.674,0.9064 C4.08,0.9064 5.22,2.0474 5.22,3.4534 C5.22,4.8594 4.08,6.0004 2.674,6.0004 C1.267,6.0004 0.127,4.8594 0.127,3.4534" id="Fill-4" fill="#65BDB8" mask="url(#mask-4)"></path>
            </g>
            <g id="Group-9" transform="translate(14.000000, 0.093020)">
                <mask id="mask-6" fill="white">
                    <use xlink:href="#path-5"></use>
                </mask>
                <g id="Clip-8"></g>
                <path d="M0.2544,3.4534 C0.2544,2.0474 1.3944,0.9064 2.8004,0.9064 C4.2074,0.9064 5.3474,2.0474 5.3474,3.4534 C5.3474,4.8594 4.2074,6.0004 2.8004,6.0004 C1.3944,6.0004 0.2544,4.8594 0.2544,3.4534" id="Fill-7" fill="#65BDB8" mask="url(#mask-6)"></path>
            </g>
            <g id="Group-12" transform="translate(21.000000, 0.093020)">
                <mask id="mask-8" fill="white">
                    <use xlink:href="#path-7"></use>
                </mask>
                <g id="Clip-11"></g>
                <path d="M0.3813,3.4534 C0.3813,2.0474 1.5213,0.9064 2.9273,0.9064 C4.3343,0.9064 5.4743,2.0474 5.4743,3.4534 C5.4743,4.8594 4.3343,6.0004 2.9273,6.0004 C1.5213,6.0004 0.3813,4.8594 0.3813,3.4534" id="Fill-10" fill="#65BDB8" mask="url(#mask-8)"></path>
            </g>
            <g id="Group-15" transform="translate(28.000000, 0.093020)">
                <mask id="mask-10" fill="white">
                    <use xlink:href="#path-9"></use>
                </mask>
                <g id="Clip-14"></g>
                <path d="M0.5083,3.4534 C0.5083,2.0474 1.6483,0.9064 3.0553,0.9064 C4.4613,0.9064 5.6013,2.0474 5.6013,3.4534 C5.6013,4.8594 4.4613,6.0004 3.0553,6.0004 C1.6483,6.0004 0.5083,4.8594 0.5083,3.4534" id="Fill-13" fill="#65BDB8" mask="url(#mask-10)"></path>
            </g>
            <g id="Group-18" transform="translate(35.000000, 0.093020)">
                <mask id="mask-12" fill="white">
                    <use xlink:href="#path-11"></use>
                </mask>
                <g id="Clip-17"></g>
                <path d="M0.6357,3.4534 C0.6357,2.0474 1.7757,0.9064 3.1817,0.9064 C4.5887,0.9064 5.7287,2.0474 5.7287,3.4534 C5.7287,4.8594 4.5887,6.0004 3.1817,6.0004 C1.7757,6.0004 0.6357,4.8594 0.6357,3.4534" id="Fill-16" fill="#65BDB8" mask="url(#mask-12)"></path>
            </g>
            <g id="Group-21" transform="translate(42.000000, 0.093020)">
                <mask id="mask-14" fill="white">
                    <use xlink:href="#path-13"></use>
                </mask>
                <g id="Clip-20"></g>
                <path d="M0.7627,3.4534 C0.7627,2.0474 1.9027,0.9064 3.3087,0.9064 C4.7157,0.9064 5.8557,2.0474 5.8557,3.4534 C5.8557,4.8594 4.7157,6.0004 3.3087,6.0004 C1.9027,6.0004 0.7627,4.8594 0.7627,3.4534" id="Fill-19" fill="#65BDB8" mask="url(#mask-14)"></path>
            </g>
            <g id="Group-24" transform="translate(49.000000, 0.093020)">
                <mask id="mask-16" fill="white">
                    <use xlink:href="#path-15"></use>
                </mask>
                <g id="Clip-23"></g>
                <path d="M0.8901,3.4534 C0.8901,2.0474 2.0301,0.9064 3.4361,0.9064 C4.8431,0.9064 5.9831,2.0474 5.9831,3.4534 C5.9831,4.8594 4.8431,6.0004 3.4361,6.0004 C2.0301,6.0004 0.8901,4.8594 0.8901,3.4534" id="Fill-22" fill="#65BDB8" mask="url(#mask-16)"></path>
            </g>
            <g id="Group-27" transform="translate(57.000000, 0.093020)">
                <mask id="mask-18" fill="white">
                    <use xlink:href="#path-17"></use>
                </mask>
                <g id="Clip-26"></g>
                <path d="M0.0171,3.4534 C0.0171,2.0474 1.1571,0.9064 2.5631,0.9064 C3.9701,0.9064 5.1101,2.0474 5.1101,3.4534 C5.1101,4.8594 3.9701,6.0004 2.5631,6.0004 C1.1571,6.0004 0.0171,4.8594 0.0171,3.4534" id="Fill-25" fill="#65BDB8" mask="url(#mask-18)"></path>
            </g>
            <g id="Group-30" transform="translate(64.000000, 0.093020)">
                <mask id="mask-20" fill="white">
                    <use xlink:href="#path-19"></use>
                </mask>
                <g id="Clip-29"></g>
                <path d="M0.144,3.4534 C0.144,2.0474 1.284,0.9064 2.691,0.9064 C4.097,0.9064 5.237,2.0474 5.237,3.4534 C5.237,4.8594 4.097,6.0004 2.691,6.0004 C1.284,6.0004 0.144,4.8594 0.144,3.4534" id="Fill-28" fill="#65BDB8" mask="url(#mask-20)"></path>
            </g>
            <g id="Group-33" transform="translate(71.000000, 0.093020)">
                <mask id="mask-22" fill="white">
                    <use xlink:href="#path-21"></use>
                </mask>
                <g id="Clip-32"></g>
                <path d="M0.2715,3.4534 C0.2715,2.0474 1.4115,0.9064 2.8175,0.9064 C4.2245,0.9064 5.3645,2.0474 5.3645,3.4534 C5.3645,4.8594 4.2245,6.0004 2.8175,6.0004 C1.4115,6.0004 0.2715,4.8594 0.2715,3.4534" id="Fill-31" fill="#65BDB8" mask="url(#mask-22)"></path>
            </g>
        </g>
    </g>
</svg>