<?xml version="1.0" encoding="UTF-8"?>
<svg width="500px" height="10px" viewBox="0 0 500 10" version="1.1" xmlns="http://www.w3.org/2000/svg" xmlns:xlink="http://www.w3.org/1999/xlink">
    <!-- Generator: Sketch 64 (93537) - https://sketch.com -->
    <title>207</title>
    <desc>Created with Sketch.</desc>
    <g id="207" stroke="none" stroke-width="1" fill="none" fill-rule="evenodd">
        <g id="Group-61" transform="translate(0.000000, 2.000000)" fill="#65BDB8">
            <path d="M0,2.54602 C0,1.14002 1.14,2e-05 2.546,2e-05 C3.953,2e-05 5.093,1.14002 5.093,2.54602 C5.093,3.95302 3.953,5.09302 2.546,5.09302 C1.14,5.09302 0,3.95302 0,2.54602" id="Fill-1"></path>
            <path d="M7.127,2.54602 C7.127,1.14002 8.267,2e-05 9.674,2e-05 C11.08,2e-05 12.22,1.14002 12.22,2.54602 C12.22,3.95302 11.08,5.09302 9.674,5.09302 C8.267,5.09302 7.127,3.95302 7.127,2.54602" id="Fill-3"></path>
            <path d="M14.2544,2.54602 C14.2544,1.14002 15.3944,2e-05 16.8004,2e-05 C18.2074,2e-05 19.3474,1.14002 19.3474,2.54602 C19.3474,3.95302 18.2074,5.09302 16.8004,5.09302 C15.3944,5.09302 14.2544,3.95302 14.2544,2.54602" id="Fill-5"></path>
            <path d="M21.3813,2.54602 C21.3813,1.14002 22.5213,2e-05 23.9273,2e-05 C25.3343,2e-05 26.4743,1.14002 26.4743,2.54602 C26.4743,3.95302 25.3343,5.09302 23.9273,5.09302 C22.5213,5.09302 21.3813,3.95302 21.3813,2.54602" id="Fill-7"></path>
            <path d="M28.5083,2.54602 C28.5083,1.14002 29.6483,2e-05 31.0553,2e-05 C32.4613,2e-05 33.6013,1.14002 33.6013,2.54602 C33.6013,3.95302 32.4613,5.09302 31.0553,5.09302 C29.6483,5.09302 28.5083,3.95302 28.5083,2.54602" id="Fill-9"></path>
            <path d="M35.6357,2.54602 C35.6357,1.14002 36.7757,2e-05 38.1817,2e-05 C39.5887,2e-05 40.7287,1.14002 40.7287,2.54602 C40.7287,3.95302 39.5887,5.09302 38.1817,5.09302 C36.7757,5.09302 35.6357,3.95302 35.6357,2.54602" id="Fill-11"></path>
            <path d="M42.7627,2.54602 C42.7627,1.14002 43.9027,2e-05 45.3087,2e-05 C46.7157,2e-05 47.8557,1.14002 47.8557,2.54602 C47.8557,3.95302 46.7157,5.09302 45.3087,5.09302 C43.9027,5.09302 42.7627,3.95302 42.7627,2.54602" id="Fill-13"></path>
            <path d="M49.8901,2.54602 C49.8901,1.14002 51.0301,2e-05 52.4361,2e-05 C53.8431,2e-05 54.9831,1.14002 54.9831,2.54602 C54.9831,3.95302 53.8431,5.09302 52.4361,5.09302 C51.0301,5.09302 49.8901,3.95302 49.8901,2.54602" id="Fill-15"></path>
            <path d="M57.0171,2.54602 C57.0171,1.14002 58.1571,2e-05 59.5631,2e-05 C60.9701,2e-05 62.1101,1.14002 62.1101,2.54602 C62.1101,3.95302 60.9701,5.09302 59.5631,5.09302 C58.1571,5.09302 57.0171,3.95302 57.0171,2.54602" id="Fill-17"></path>
            <path d="M64.144,2.54602 C64.144,1.14002 65.284,2e-05 66.691,2e-05 C68.097,2e-05 69.237,1.14002 69.237,2.54602 C69.237,3.95302 68.097,5.09302 66.691,5.09302 C65.284,5.09302 64.144,3.95302 64.144,2.54602" id="Fill-19"></path>
            <path d="M71.2715,2.54602 C71.2715,1.14002 72.4115,2e-05 73.8175,2e-05 C75.2245,2e-05 76.3645,1.14002 76.3645,2.54602 C76.3645,3.95302 75.2245,5.09302 73.8175,5.09302 C72.4115,5.09302 71.2715,3.95302 71.2715,2.54602" id="Fill-21"></path>
            <path d="M78.3984,2.54602 C78.3984,1.14002 79.5384,2e-05 80.9444,2e-05 C82.3514,2e-05 83.4914,1.14002 83.4914,2.54602 C83.4914,3.95302 82.3514,5.09302 80.9444,5.09302 C79.5384,5.09302 78.3984,3.95302 78.3984,2.54602" id="Fill-23"></path>
            <path d="M85.5254,2.54602 C85.5254,1.14002 86.6654,2e-05 88.0724,2e-05 C89.4784,2e-05 90.6184,1.14002 90.6184,2.54602 C90.6184,3.95302 89.4784,5.09302 88.0724,5.09302 C86.6654,5.09302 85.5254,3.95302 85.5254,2.54602" id="Fill-25"></path>
            <path d="M92.6528,2.54602 C92.6528,1.14002 93.7928,2e-05 95.1988,2e-05 C96.6058,2e-05 97.7458,1.14002 97.7458,2.54602 C97.7458,3.95302 96.6058,5.09302 95.1988,5.09302 C93.7928,5.09302 92.6528,3.95302 92.6528,2.54602" id="Fill-27"></path>
            <path d="M99.7798,2.54602 C99.7798,1.14002 100.9198,2e-05 102.3258,2e-05 C103.7328,2e-05 104.8728,1.14002 104.8728,2.54602 C104.8728,3.95302 103.7328,5.09302 102.3258,5.09302 C100.9198,5.09302 99.7798,3.95302 99.7798,2.54602" id="Fill-29"></path>
            <path d="M106.9072,2.54602 C106.9072,1.14002 108.0472,2e-05 109.4532,2e-05 C110.8602,2e-05 112.0002,1.14002 112.0002,2.54602 C112.0002,3.95302 110.8602,5.09302 109.4532,5.09302 C108.0472,5.09302 106.9072,3.95302 106.9072,2.54602" id="Fill-31"></path>
            <path d="M114.0342,2.54602 C114.0342,1.14002 115.1742,2e-05 116.5802,2e-05 C117.9872,2e-05 119.1272,1.14002 119.1272,2.54602 C119.1272,3.95302 117.9872,5.09302 116.5802,5.09302 C115.1742,5.09302 114.0342,3.95302 114.0342,2.54602" id="Fill-33"></path>
            <path d="M121.1611,2.54602 C121.1611,1.14002 122.3011,2e-05 123.7081,2e-05 C125.1141,2e-05 126.2541,1.14002 126.2541,2.54602 C126.2541,3.95302 125.1141,5.09302 123.7081,5.09302 C122.3011,5.09302 121.1611,3.95302 121.1611,2.54602" id="Fill-35"></path>
            <path d="M128.2886,2.54602 C128.2886,1.14002 129.4286,2e-05 130.8346,2e-05 C132.2416,2e-05 133.3816,1.14002 133.3816,2.54602 C133.3816,3.95302 132.2416,5.09302 130.8346,5.09302 C129.4286,5.09302 128.2886,3.95302 128.2886,2.54602" id="Fill-37"></path>
            <path d="M135.4155,2.54602 C135.4155,1.14002 136.5555,2e-05 137.9615,2e-05 C139.3685,2e-05 140.5085,1.14002 140.5085,2.54602 C140.5085,3.95302 139.3685,5.09302 137.9615,5.09302 C136.5555,5.09302 135.4155,3.95302 135.4155,2.54602" id="Fill-39"></path>
            <path d="M142.5425,2.54602 C142.5425,1.14002 143.6825,2e-05 145.0895,2e-05 C146.4955,2e-05 147.6355,1.14002 147.6355,2.54602 C147.6355,3.95302 146.4955,5.09302 145.0895,5.09302 C143.6825,5.09302 142.5425,3.95302 142.5425,2.54602" id="Fill-41"></path>
            <path d="M149.6699,2.54602 C149.6699,1.14002 150.8099,2e-05 152.2159,2e-05 C153.6229,2e-05 154.7629,1.14002 154.7629,2.54602 C154.7629,3.95302 153.6229,5.09302 152.2159,5.09302 C150.8099,5.09302 149.6699,3.95302 149.6699,2.54602" id="Fill-43"></path>
            <path d="M156.7969,2.54602 C156.7969,1.14002 157.9369,2e-05 159.3429,2e-05 C160.7499,2e-05 161.8899,1.14002 161.8899,2.54602 C161.8899,3.95302 160.7499,5.09302 159.3429,5.09302 C157.9369,5.09302 156.7969,3.95302 156.7969,2.54602" id="Fill-45"></path>
            <path d="M163.9238,2.54602 C163.9238,1.14002 165.0638,2e-05 166.4708,2e-05 C167.8768,2e-05 169.0168,1.14002 169.0168,2.54602 C169.0168,3.95302 167.8768,5.09302 166.4708,5.09302 C165.0638,5.09302 163.9238,3.95302 163.9238,2.54602" id="Fill-47"></path>
            <path d="M171.0513,2.54602 C171.0513,1.14002 172.1913,2e-05 173.5973,2e-05 C175.0043,2e-05 176.1443,1.14002 176.1443,2.54602 C176.1443,3.95302 175.0043,5.09302 173.5973,5.09302 C172.1913,5.09302 171.0513,3.95302 171.0513,2.54602" id="Fill-49"></path>
            <path d="M178.1782,2.54602 C178.1782,1.14002 179.3182,2e-05 180.7242,2e-05 C182.1312,2e-05 183.2712,1.14002 183.2712,2.54602 C183.2712,3.95302 182.1312,5.09302 180.7242,5.09302 C179.3182,5.09302 178.1782,3.95302 178.1782,2.54602" id="Fill-51"></path>
            <path d="M185.3057,2.54602 C185.3057,1.14002 186.4457,2e-05 187.8517,2e-05 C189.2587,2e-05 190.3987,1.14002 190.3987,2.54602 C190.3987,3.95302 189.2587,5.09302 187.8517,5.09302 C186.4457,5.09302 185.3057,3.95302 185.3057,2.54602" id="Fill-53"></path>
            <path d="M192.4326,2.54602 C192.4326,1.14002 193.5726,2e-05 194.9786,2e-05 C196.3856,2e-05 197.5256,1.14002 197.5256,2.54602 C197.5256,3.95302 196.3856,5.09302 194.9786,5.09302 C193.5726,5.09302 192.4326,3.95302 192.4326,2.54602" id="Fill-55"></path>
            <path d="M199.5596,2.54602 C199.5596,1.14002 200.6996,2e-05 202.1066,2e-05 C203.5126,2e-05 204.6526,1.14002 204.6526,2.54602 C204.6526,3.95302 203.5126,5.09302 202.1066,5.09302 C200.6996,5.09302 199.5596,3.95302 199.5596,2.54602" id="Fill-57"></path>
            <path d="M206.687,2.54602 C206.687,1.14002 207.827,2e-05 209.233,2e-05 C210.64,2e-05 211.78,1.14002 211.78,2.54602 C211.78,3.95302 210.64,5.09302 209.233,5.09302 C207.827,5.09302 206.687,3.95302 206.687,2.54602" id="Fill-59"></path>
        </g>
    </g>
</svg>