<?xml version="1.0" encoding="UTF-8"?>
<svg width="500px" height="10px" viewBox="0 0 500 10" version="1.1" xmlns="http://www.w3.org/2000/svg" xmlns:xlink="http://www.w3.org/1999/xlink">
    <!-- Generator: Sketch 64 (93537) - https://sketch.com -->
    <title>348</title>
    <desc>Created with Sketch.</desc>
    <defs>
        <polygon id="path-1" points="0 0.907 5.093 0.907 5.093 6 0 6"></polygon>
        <polygon id="path-3" points="0.1271 0.907 5.2201 0.907 5.2201 6 0.1271 6"></polygon>
        <polygon id="path-5" points="0.2543 0.907 5.3473 0.907 5.3473 6 0.2543 6"></polygon>
        <polygon id="path-7" points="0.3814 0.907 5.4744 0.907 5.4744 6 0.3814 6"></polygon>
        <polygon id="path-9" points="0.5085 0.907 5.6015 0.907 5.6015 6 0.5085 6"></polygon>
        <polygon id="path-11" points="0.6357 0.907 5.7287 0.907 5.7287 6 0.6357 6"></polygon>
        <polygon id="path-13" points="0.7628 0.907 5.8558 0.907 5.8558 6 0.7628 6"></polygon>
        <polygon id="path-15" points="0.8899 0.907 5.9829 0.907 5.9829 6 0.8899 6"></polygon>
        <polygon id="path-17" points="0.0171 0.907 5.1101 0.907 5.1101 6 0.0171 6"></polygon>
        <polygon id="path-19" points="0.1442 0.907 5.2372 0.907 5.2372 6 0.1442 6"></polygon>
        <polygon id="path-21" points="0.2713 0.907 5.364 0.907 5.364 6 0.2713 6"></polygon>
    </defs>
    <g id="348" stroke="none" stroke-width="1" fill="none" fill-rule="evenodd">
        <g id="Group-34" transform="translate(0.000000, 2.000000)">
            <g id="Group-3" transform="translate(0.000000, 0.093020)">
                <mask id="mask-2" fill="white">
                    <use xlink:href="#path-1"></use>
                </mask>
                <g id="Clip-2"></g>
                <path d="M0,3.4535 C0,2.0475 1.14,0.9065 2.547,0.9065 C3.953,0.9065 5.093,2.0475 5.093,3.4535 C5.093,4.8595 3.953,6.0005 2.547,6.0005 C1.14,6.0005 0,4.8595 0,3.4535" id="Fill-1" fill="#65BDB8" mask="url(#mask-2)"></path>
            </g>
            <g id="Group-6" transform="translate(7.000000, 0.093020)">
                <mask id="mask-4" fill="white">
                    <use xlink:href="#path-3"></use>
                </mask>
                <g id="Clip-5"></g>
                <path d="M0.1271,3.4535 C0.1271,2.0475 1.2671,0.9065 2.6741,0.9065 C4.0801,0.9065 5.2201,2.0475 5.2201,3.4535 C5.2201,4.8595 4.0801,6.0005 2.6741,6.0005 C1.2671,6.0005 0.1271,4.8595 0.1271,3.4535" id="Fill-4" fill="#65BDB8" mask="url(#mask-4)"></path>
            </g>
            <g id="Group-9" transform="translate(14.000000, 0.093020)">
                <mask id="mask-6" fill="white">
                    <use xlink:href="#path-5"></use>
                </mask>
                <g id="Clip-8"></g>
                <path d="M0.2543,3.4535 C0.2543,2.0475 1.3943,0.9065 2.8013,0.9065 C4.2073,0.9065 5.3473,2.0475 5.3473,3.4535 C5.3473,4.8595 4.2073,6.0005 2.8013,6.0005 C1.3943,6.0005 0.2543,4.8595 0.2543,3.4535" id="Fill-7" fill="#65BDB8" mask="url(#mask-6)"></path>
            </g>
            <g id="Group-12" transform="translate(21.000000, 0.093020)">
                <mask id="mask-8" fill="white">
                    <use xlink:href="#path-7"></use>
                </mask>
                <g id="Clip-11"></g>
                <path d="M0.3814,3.4535 C0.3814,2.0475 1.5214,0.9065 2.9284,0.9065 C4.3344,0.9065 5.4744,2.0475 5.4744,3.4535 C5.4744,4.8595 4.3344,6.0005 2.9284,6.0005 C1.5214,6.0005 0.3814,4.8595 0.3814,3.4535" id="Fill-10" fill="#65BDB8" mask="url(#mask-8)"></path>
            </g>
            <g id="Group-15" transform="translate(28.000000, 0.093020)">
                <mask id="mask-10" fill="white">
                    <use xlink:href="#path-9"></use>
                </mask>
                <g id="Clip-14"></g>
                <path d="M0.5085,3.4535 C0.5085,2.0475 1.6485,0.9065 3.0555,0.9065 C4.4615,0.9065 5.6015,2.0475 5.6015,3.4535 C5.6015,4.8595 4.4615,6.0005 3.0555,6.0005 C1.6485,6.0005 0.5085,4.8595 0.5085,3.4535" id="Fill-13" fill="#65BDB8" mask="url(#mask-10)"></path>
            </g>
            <g id="Group-18" transform="translate(35.000000, 0.093020)">
                <mask id="mask-12" fill="white">
                    <use xlink:href="#path-11"></use>
                </mask>
                <g id="Clip-17"></g>
                <path d="M0.6357,3.4535 C0.6357,2.0475 1.7757,0.9065 3.1827,0.9065 C4.5887,0.9065 5.7287,2.0475 5.7287,3.4535 C5.7287,4.8595 4.5887,6.0005 3.1827,6.0005 C1.7757,6.0005 0.6357,4.8595 0.6357,3.4535" id="Fill-16" fill="#65BDB8" mask="url(#mask-12)"></path>
            </g>
            <g id="Group-21" transform="translate(42.000000, 0.093020)">
                <mask id="mask-14" fill="white">
                    <use xlink:href="#path-13"></use>
                </mask>
                <g id="Clip-20"></g>
                <path d="M0.7628,3.4535 C0.7628,2.0475 1.9028,0.9065 3.3098,0.9065 C4.7158,0.9065 5.8558,2.0475 5.8558,3.4535 C5.8558,4.8595 4.7158,6.0005 3.3098,6.0005 C1.9028,6.0005 0.7628,4.8595 0.7628,3.4535" id="Fill-19" fill="#65BDB8" mask="url(#mask-14)"></path>
            </g>
            <g id="Group-24" transform="translate(49.000000, 0.093020)">
                <mask id="mask-16" fill="white">
                    <use xlink:href="#path-15"></use>
                </mask>
                <g id="Clip-23"></g>
                <path d="M0.8899,3.4535 C0.8899,2.0475 2.0299,0.9065 3.4369,0.9065 C4.8429,0.9065 5.9829,2.0475 5.9829,3.4535 C5.9829,4.8595 4.8429,6.0005 3.4369,6.0005 C2.0299,6.0005 0.8899,4.8595 0.8899,3.4535" id="Fill-22" fill="#65BDB8" mask="url(#mask-16)"></path>
            </g>
            <g id="Group-27" transform="translate(57.000000, 0.093020)">
                <mask id="mask-18" fill="white">
                    <use xlink:href="#path-17"></use>
                </mask>
                <g id="Clip-26"></g>
                <path d="M0.0171,3.4535 C0.0171,2.0475 1.1571,0.9065 2.5641,0.9065 C3.9701,0.9065 5.1101,2.0475 5.1101,3.4535 C5.1101,4.8595 3.9701,6.0005 2.5641,6.0005 C1.1571,6.0005 0.0171,4.8595 0.0171,3.4535" id="Fill-25" fill="#65BDB8" mask="url(#mask-18)"></path>
            </g>
            <g id="Group-30" transform="translate(64.000000, 0.093020)">
                <mask id="mask-20" fill="white">
                    <use xlink:href="#path-19"></use>
                </mask>
                <g id="Clip-29"></g>
                <path d="M0.1442,3.4535 C0.1442,2.0475 1.2842,0.9065 2.6912,0.9065 C4.0972,0.9065 5.2372,2.0475 5.2372,3.4535 C5.2372,4.8595 4.0972,6.0005 2.6912,6.0005 C1.2842,6.0005 0.1442,4.8595 0.1442,3.4535" id="Fill-28" fill="#65BDB8" mask="url(#mask-20)"></path>
            </g>
            <g id="Group-33" transform="translate(71.000000, 0.093020)">
                <mask id="mask-22" fill="white">
                    <use xlink:href="#path-21"></use>
                </mask>
                <g id="Clip-32"></g>
                <path d="M0.2713,3.4535 C0.2713,2.0475 1.4113,0.9065 2.8183,0.9065 C4.2243,0.9065 5.3643,2.0475 5.3643,3.4535 C5.3643,4.8595 4.2243,6.0005 2.8183,6.0005 C1.4113,6.0005 0.2713,4.8595 0.2713,3.4535" id="Fill-31" fill="#65BDB8" mask="url(#mask-22)"></path>
            </g>
        </g>
    </g>
</svg>