<?xml version="1.0" encoding="UTF-8"?>
<svg width="500px" height="15px" viewBox="0 0 500 15" version="1.1" xmlns="http://www.w3.org/2000/svg" xmlns:xlink="http://www.w3.org/1999/xlink">
    <!-- Generator: Sketch 64 (93537) - https://sketch.com -->
    <title>50</title>
    <desc>Created with Sketch.</desc>
    <defs>
        <polygon id="path-1" points="0.7725 0.1606 5.865 0.1606 5.865 5.2536 0.7725 5.2536"></polygon>
    </defs>
    <g id="50" stroke="none" stroke-width="1" fill="none" fill-rule="evenodd">
        <g id="Group-202" transform="translate(0.000000, 1.000000)">
            <path d="M0,3.5462 C0,2.1402 1.14,1.0002 2.546,1.0002 C3.953,1.0002 5.093,2.1402 5.093,3.5462 C5.093,4.9522 3.953,6.0932 2.546,6.0932 C1.14,6.0932 0,4.9522 0,3.5462" id="Fill-1" fill="#65BDB8"></path>
            <path d="M7.127,3.5462 C7.127,2.1402 8.267,1.0002 9.674,1.0002 C11.08,1.0002 12.22,2.1402 12.22,3.5462 C12.22,4.9522 11.08,6.0932 9.674,6.0932 C8.267,6.0932 7.127,4.9522 7.127,3.5462" id="Fill-3" fill="#65BDB8"></path>
            <path d="M14.2544,3.5462 C14.2544,2.1402 15.3944,1.0002 16.8004,1.0002 C18.2074,1.0002 19.3474,2.1402 19.3474,3.5462 C19.3474,4.9522 18.2074,6.0932 16.8004,6.0932 C15.3944,6.0932 14.2544,4.9522 14.2544,3.5462" id="Fill-5" fill="#65BDB8"></path>
            <path d="M21.3813,3.5462 C21.3813,2.1402 22.5213,1.0002 23.9273,1.0002 C25.3343,1.0002 26.4743,2.1402 26.4743,3.5462 C26.4743,4.9522 25.3343,6.0932 23.9273,6.0932 C22.5213,6.0932 21.3813,4.9522 21.3813,3.5462" id="Fill-7" fill="#65BDB8"></path>
            <path d="M28.5083,3.5462 C28.5083,2.1402 29.6483,1.0002 31.0553,1.0002 C32.4613,1.0002 33.6013,2.1402 33.6013,3.5462 C33.6013,4.9522 32.4613,6.0932 31.0553,6.0932 C29.6483,6.0932 28.5083,4.9522 28.5083,3.5462" id="Fill-9" fill="#65BDB8"></path>
            <path d="M35.6357,3.5462 C35.6357,2.1402 36.7757,1.0002 38.1817,1.0002 C39.5887,1.0002 40.7287,2.1402 40.7287,3.5462 C40.7287,4.9522 39.5887,6.0932 38.1817,6.0932 C36.7757,6.0932 35.6357,4.9522 35.6357,3.5462" id="Fill-11" fill="#65BDB8"></path>
            <path d="M42.7627,3.5462 C42.7627,2.1402 43.9027,1.0002 45.3087,1.0002 C46.7157,1.0002 47.8557,2.1402 47.8557,3.5462 C47.8557,4.9522 46.7157,6.0932 45.3087,6.0932 C43.9027,6.0932 42.7627,4.9522 42.7627,3.5462" id="Fill-13" fill="#65BDB8"></path>
            <path d="M49.8901,3.5462 C49.8901,2.1402 51.0301,1.0002 52.4361,1.0002 C53.8431,1.0002 54.9831,2.1402 54.9831,3.5462 C54.9831,4.9522 53.8431,6.0932 52.4361,6.0932 C51.0301,6.0932 49.8901,4.9522 49.8901,3.5462" id="Fill-15" fill="#65BDB8"></path>
            <path d="M57.0171,3.5462 C57.0171,2.1402 58.1571,1.0002 59.5631,1.0002 C60.9701,1.0002 62.1101,2.1402 62.1101,3.5462 C62.1101,4.9522 60.9701,6.0932 59.5631,6.0932 C58.1571,6.0932 57.0171,4.9522 57.0171,3.5462" id="Fill-17" fill="#65BDB8"></path>
            <path d="M64.144,3.5462 C64.144,2.1402 65.284,1.0002 66.691,1.0002 C68.097,1.0002 69.237,2.1402 69.237,3.5462 C69.237,4.9522 68.097,6.0932 66.691,6.0932 C65.284,6.0932 64.144,4.9522 64.144,3.5462" id="Fill-19" fill="#65BDB8"></path>
            <path d="M71.2715,3.5462 C71.2715,2.1402 72.4115,1.0002 73.8175,1.0002 C75.2245,1.0002 76.3645,2.1402 76.3645,3.5462 C76.3645,4.9522 75.2245,6.0932 73.8175,6.0932 C72.4115,6.0932 71.2715,4.9522 71.2715,3.5462" id="Fill-21" fill="#65BDB8"></path>
            <path d="M78.3984,3.5462 C78.3984,2.1402 79.5384,1.0002 80.9444,1.0002 C82.3514,1.0002 83.4914,2.1402 83.4914,3.5462 C83.4914,4.9522 82.3514,6.0932 80.9444,6.0932 C79.5384,6.0932 78.3984,4.9522 78.3984,3.5462" id="Fill-23" fill="#65BDB8"></path>
            <path d="M85.5254,3.5462 C85.5254,2.1402 86.6654,1.0002 88.0724,1.0002 C89.4784,1.0002 90.6184,2.1402 90.6184,3.5462 C90.6184,4.9522 89.4784,6.0932 88.0724,6.0932 C86.6654,6.0932 85.5254,4.9522 85.5254,3.5462" id="Fill-25" fill="#65BDB8"></path>
            <path d="M92.6528,3.5462 C92.6528,2.1402 93.7928,1.0002 95.1988,1.0002 C96.6058,1.0002 97.7458,2.1402 97.7458,3.5462 C97.7458,4.9522 96.6058,6.0932 95.1988,6.0932 C93.7928,6.0932 92.6528,4.9522 92.6528,3.5462" id="Fill-27" fill="#65BDB8"></path>
            <path d="M99.7798,3.5462 C99.7798,2.1402 100.9198,1.0002 102.3258,1.0002 C103.7328,1.0002 104.8728,2.1402 104.8728,3.5462 C104.8728,4.9522 103.7328,6.0932 102.3258,6.0932 C100.9198,6.0932 99.7798,4.9522 99.7798,3.5462" id="Fill-29" fill="#65BDB8"></path>
            <path d="M106.9072,3.5462 C106.9072,2.1402 108.0472,1.0002 109.4532,1.0002 C110.8602,1.0002 112.0002,2.1402 112.0002,3.5462 C112.0002,4.9522 110.8602,6.0932 109.4532,6.0932 C108.0472,6.0932 106.9072,4.9522 106.9072,3.5462" id="Fill-31" fill="#65BDB8"></path>
            <path d="M114.0342,3.5462 C114.0342,2.1402 115.1742,1.0002 116.5802,1.0002 C117.9872,1.0002 119.1272,2.1402 119.1272,3.5462 C119.1272,4.9522 117.9872,6.0932 116.5802,6.0932 C115.1742,6.0932 114.0342,4.9522 114.0342,3.5462" id="Fill-33" fill="#65BDB8"></path>
            <path d="M121.1611,3.5462 C121.1611,2.1402 122.3011,1.0002 123.7081,1.0002 C125.1141,1.0002 126.2541,2.1402 126.2541,3.5462 C126.2541,4.9522 125.1141,6.0932 123.7081,6.0932 C122.3011,6.0932 121.1611,4.9522 121.1611,3.5462" id="Fill-35" fill="#65BDB8"></path>
            <path d="M128.2886,3.5462 C128.2886,2.1402 129.4286,1.0002 130.8346,1.0002 C132.2416,1.0002 133.3816,2.1402 133.3816,3.5462 C133.3816,4.9522 132.2416,6.0932 130.8346,6.0932 C129.4286,6.0932 128.2886,4.9522 128.2886,3.5462" id="Fill-37" fill="#65BDB8"></path>
            <path d="M135.4155,3.5462 C135.4155,2.1402 136.5555,1.0002 137.9615,1.0002 C139.3685,1.0002 140.5085,2.1402 140.5085,3.5462 C140.5085,4.9522 139.3685,6.0932 137.9615,6.0932 C136.5555,6.0932 135.4155,4.9522 135.4155,3.5462" id="Fill-39" fill="#65BDB8"></path>
            <path d="M142.5425,3.5462 C142.5425,2.1402 143.6825,1.0002 145.0895,1.0002 C146.4955,1.0002 147.6355,2.1402 147.6355,3.5462 C147.6355,4.9522 146.4955,6.0932 145.0895,6.0932 C143.6825,6.0932 142.5425,4.9522 142.5425,3.5462" id="Fill-41" fill="#65BDB8"></path>
            <path d="M149.6699,3.5462 C149.6699,2.1402 150.8099,1.0002 152.2159,1.0002 C153.6229,1.0002 154.7629,2.1402 154.7629,3.5462 C154.7629,4.9522 153.6229,6.0932 152.2159,6.0932 C150.8099,6.0932 149.6699,4.9522 149.6699,3.5462" id="Fill-43" fill="#65BDB8"></path>
            <path d="M156.7969,3.5462 C156.7969,2.1402 157.9369,1.0002 159.3429,1.0002 C160.7499,1.0002 161.8899,2.1402 161.8899,3.5462 C161.8899,4.9522 160.7499,6.0932 159.3429,6.0932 C157.9369,6.0932 156.7969,4.9522 156.7969,3.5462" id="Fill-45" fill="#65BDB8"></path>
            <path d="M163.9238,3.5462 C163.9238,2.1402 165.0638,1.0002 166.4708,1.0002 C167.8768,1.0002 169.0168,2.1402 169.0168,3.5462 C169.0168,4.9522 167.8768,6.0932 166.4708,6.0932 C165.0638,6.0932 163.9238,4.9522 163.9238,3.5462" id="Fill-47" fill="#65BDB8"></path>
            <path d="M171.0513,3.5462 C171.0513,2.1402 172.1913,1.0002 173.5973,1.0002 C175.0043,1.0002 176.1443,2.1402 176.1443,3.5462 C176.1443,4.9522 175.0043,6.0932 173.5973,6.0932 C172.1913,6.0932 171.0513,4.9522 171.0513,3.5462" id="Fill-49" fill="#65BDB8"></path>
            <path d="M178.1782,3.5462 C178.1782,2.1402 179.3182,1.0002 180.7242,1.0002 C182.1312,1.0002 183.2712,2.1402 183.2712,3.5462 C183.2712,4.9522 182.1312,6.0932 180.7242,6.0932 C179.3182,6.0932 178.1782,4.9522 178.1782,3.5462" id="Fill-51" fill="#65BDB8"></path>
            <path d="M185.3057,3.5462 C185.3057,2.1402 186.4457,1.0002 187.8517,1.0002 C189.2587,1.0002 190.3987,2.1402 190.3987,3.5462 C190.3987,4.9522 189.2587,6.0932 187.8517,6.0932 C186.4457,6.0932 185.3057,4.9522 185.3057,3.5462" id="Fill-53" fill="#65BDB8"></path>
            <path d="M192.4326,3.5462 C192.4326,2.1402 193.5726,1.0002 194.9786,1.0002 C196.3856,1.0002 197.5256,2.1402 197.5256,3.5462 C197.5256,4.9522 196.3856,6.0932 194.9786,6.0932 C193.5726,6.0932 192.4326,4.9522 192.4326,3.5462" id="Fill-55" fill="#65BDB8"></path>
            <path d="M199.5596,3.5462 C199.5596,2.1402 200.6996,1.0002 202.1066,1.0002 C203.5126,1.0002 204.6526,2.1402 204.6526,3.5462 C204.6526,4.9522 203.5126,6.0932 202.1066,6.0932 C200.6996,6.0932 199.5596,4.9522 199.5596,3.5462" id="Fill-57" fill="#65BDB8"></path>
            <path d="M206.687,3.5462 C206.687,2.1402 207.827,1.0002 209.233,1.0002 C210.64,1.0002 211.78,2.1402 211.78,3.5462 C211.78,4.9522 210.64,6.0932 209.233,6.0932 C207.827,6.0932 206.687,4.9522 206.687,3.5462" id="Fill-59" fill="#65BDB8"></path>
            <path d="M213.814,3.5462 C213.814,2.1402 214.954,1.0002 216.36,1.0002 C217.767,1.0002 218.907,2.1402 218.907,3.5462 C218.907,4.9522 217.767,6.0932 216.36,6.0932 C214.954,6.0932 213.814,4.9522 213.814,3.5462" id="Fill-61" fill="#65BDB8"></path>
            <path d="M220.9409,3.5462 C220.9409,2.1402 222.0809,1.0002 223.4879,1.0002 C224.8939,1.0002 226.0339,2.1402 226.0339,3.5462 C226.0339,4.9522 224.8939,6.0932 223.4879,6.0932 C222.0809,6.0932 220.9409,4.9522 220.9409,3.5462" id="Fill-63" fill="#65BDB8"></path>
            <path d="M228.0684,3.5462 C228.0684,2.1402 229.2084,1.0002 230.6144,1.0002 C232.0214,1.0002 233.1614,2.1402 233.1614,3.5462 C233.1614,4.9522 232.0214,6.0932 230.6144,6.0932 C229.2084,6.0932 228.0684,4.9522 228.0684,3.5462" id="Fill-65" fill="#65BDB8"></path>
            <path d="M235.1953,3.5462 C235.1953,2.1402 236.3353,1.0002 237.7413,1.0002 C239.1483,1.0002 240.2883,2.1402 240.2883,3.5462 C240.2883,4.9522 239.1483,6.0932 237.7413,6.0932 C236.3353,6.0932 235.1953,4.9522 235.1953,3.5462" id="Fill-67" fill="#65BDB8"></path>
            <path d="M242.3228,3.5462 C242.3228,2.1402 243.4628,1.0002 244.8688,1.0002 C246.2758,1.0002 247.4158,2.1402 247.4158,3.5462 C247.4158,4.9522 246.2758,6.0932 244.8688,6.0932 C243.4628,6.0932 242.3228,4.9522 242.3228,3.5462" id="Fill-69" fill="#65BDB8"></path>
            <path d="M249.4497,3.5462 C249.4497,2.1402 250.5897,1.0002 251.9957,1.0002 C253.4027,1.0002 254.5427,2.1402 254.5427,3.5462 C254.5427,4.9522 253.4027,6.0932 251.9957,6.0932 C250.5897,6.0932 249.4497,4.9522 249.4497,3.5462" id="Fill-71" fill="#65BDB8"></path>
            <path d="M256.5771,3.5462 C256.5771,2.1402 257.7171,1.0002 259.1231,1.0002 C260.5291,1.0002 261.6701,2.1402 261.6701,3.5462 C261.6701,4.9522 260.5291,6.0932 259.1231,6.0932 C257.7171,6.0932 256.5771,4.9522 256.5771,3.5462" id="Fill-73" fill="#65BDB8"></path>
            <path d="M263.7041,3.5462 C263.7041,2.1402 264.8441,1.0002 266.2501,1.0002 C267.6571,1.0002 268.7971,2.1402 268.7971,3.5462 C268.7971,4.9522 267.6571,6.0932 266.2501,6.0932 C264.8441,6.0932 263.7041,4.9522 263.7041,3.5462" id="Fill-75" fill="#65BDB8"></path>
            <path d="M270.8311,3.5462 C270.8311,2.1402 271.9711,1.0002 273.3781,1.0002 C274.7841,1.0002 275.9241,2.1402 275.9241,3.5462 C275.9241,4.9522 274.7841,6.0932 273.3781,6.0932 C271.9711,6.0932 270.8311,4.9522 270.8311,3.5462" id="Fill-77" fill="#65BDB8"></path>
            <path d="M277.958,3.5462 C277.958,2.1402 279.099,1.0002 280.505,1.0002 C281.911,1.0002 283.051,2.1402 283.051,3.5462 C283.051,4.9522 281.911,6.0932 280.505,6.0932 C279.099,6.0932 277.958,4.9522 277.958,3.5462" id="Fill-79" fill="#65BDB8"></path>
            <path d="M285.085,3.5462 C285.085,2.1402 286.226,1.0002 287.632,1.0002 C289.038,1.0002 290.179,2.1402 290.179,3.5462 C290.179,4.9522 289.038,6.0932 287.632,6.0932 C286.226,6.0932 285.085,4.9522 285.085,3.5462" id="Fill-81" fill="#65BDB8"></path>
            <path d="M292.2129,3.5462 C292.2129,2.1402 293.3529,1.0002 294.7589,1.0002 C296.1649,1.0002 297.3059,2.1402 297.3059,3.5462 C297.3059,4.9522 296.1649,6.0932 294.7589,6.0932 C293.3529,6.0932 292.2129,4.9522 292.2129,3.5462" id="Fill-83" fill="#65BDB8"></path>
            <path d="M299.3398,3.5462 C299.3398,2.1402 300.4798,1.0002 301.8858,1.0002 C303.2928,1.0002 304.4328,2.1402 304.4328,3.5462 C304.4328,4.9522 303.2928,6.0932 301.8858,6.0932 C300.4798,6.0932 299.3398,4.9522 299.3398,3.5462" id="Fill-85" fill="#65BDB8"></path>
            <path d="M306.4668,3.5462 C306.4668,2.1402 307.6068,1.0002 309.0138,1.0002 C310.4198,1.0002 311.5598,2.1402 311.5598,3.5462 C311.5598,4.9522 310.4198,6.0932 309.0138,6.0932 C307.6068,6.0932 306.4668,4.9522 306.4668,3.5462" id="Fill-87" fill="#65BDB8"></path>
            <path d="M313.5937,3.5462 C313.5937,2.1402 314.7347,1.0002 316.1407,1.0002 C317.5467,1.0002 318.6867,2.1402 318.6867,3.5462 C318.6867,4.9522 317.5467,6.0932 316.1407,6.0932 C314.7347,6.0932 313.5937,4.9522 313.5937,3.5462" id="Fill-89" fill="#65BDB8"></path>
            <path d="M320.7207,3.5462 C320.7207,2.1402 321.8617,1.0002 323.2677,1.0002 C324.6737,1.0002 325.8147,2.1402 325.8147,3.5462 C325.8147,4.9522 324.6737,6.0932 323.2677,6.0932 C321.8617,6.0932 320.7207,4.9522 320.7207,3.5462" id="Fill-91" fill="#65BDB8"></path>
            <path d="M327.8477,3.5462 C327.8477,2.1402 328.9887,1.0002 330.3947,1.0002 C331.8007,1.0002 332.9417,2.1402 332.9417,3.5462 C332.9417,4.9522 331.8007,6.0932 330.3947,6.0932 C328.9887,6.0932 327.8477,4.9522 327.8477,3.5462" id="Fill-93" fill="#65BDB8"></path>
            <path d="M334.9756,3.5462 C334.9756,2.1402 336.1156,1.0002 337.5216,1.0002 C338.9276,1.0002 340.0686,2.1402 340.0686,3.5462 C340.0686,4.9522 338.9276,6.0932 337.5216,6.0932 C336.1156,6.0932 334.9756,4.9522 334.9756,3.5462" id="Fill-95" fill="#65BDB8"></path>
            <path d="M342.1025,3.5462 C342.1025,2.1402 343.2425,1.0002 344.6485,1.0002 C346.0555,1.0002 347.1955,2.1402 347.1955,3.5462 C347.1955,4.9522 346.0555,6.0932 344.6485,6.0932 C343.2425,6.0932 342.1025,4.9522 342.1025,3.5462" id="Fill-97" fill="#65BDB8"></path>
            <path d="M349.2295,3.5462 C349.2295,2.1402 350.3705,1.0002 351.7765,1.0002 C353.1825,1.0002 354.3225,2.1402 354.3225,3.5462 C354.3225,4.9522 353.1825,6.0932 351.7765,6.0932 C350.3705,6.0932 349.2295,4.9522 349.2295,3.5462" id="Fill-99" fill="#65BDB8"></path>
            <path d="M356.3564,3.5462 C356.3564,2.1402 357.4974,1.0002 358.9034,1.0002 C360.3094,1.0002 361.4494,2.1402 361.4494,3.5462 C361.4494,4.9522 360.3094,6.0932 358.9034,6.0932 C357.4974,6.0932 356.3564,4.9522 356.3564,3.5462" id="Fill-101" fill="#65BDB8"></path>
            <path d="M363.4834,3.5462 C363.4834,2.1402 364.6244,1.0002 366.0304,1.0002 C367.4364,1.0002 368.5774,2.1402 368.5774,3.5462 C368.5774,4.9522 367.4364,6.0932 366.0304,6.0932 C364.6244,6.0932 363.4834,4.9522 363.4834,3.5462" id="Fill-103" fill="#65BDB8"></path>
            <path d="M370.6113,3.5462 C370.6113,2.1402 371.7513,1.0002 373.1573,1.0002 C374.5633,1.0002 375.7043,2.1402 375.7043,3.5462 C375.7043,4.9522 374.5633,6.0932 373.1573,6.0932 C371.7513,6.0932 370.6113,4.9522 370.6113,3.5462" id="Fill-105" fill="#65BDB8"></path>
            <path d="M377.7383,3.5462 C377.7383,2.1402 378.8783,1.0002 380.2843,1.0002 C381.6913,1.0002 382.8313,2.1402 382.8313,3.5462 C382.8313,4.9522 381.6913,6.0932 380.2843,6.0932 C378.8783,6.0932 377.7383,4.9522 377.7383,3.5462" id="Fill-107" fill="#65BDB8"></path>
            <path d="M384.8652,3.5462 C384.8652,2.1402 386.0052,1.0002 387.4122,1.0002 C388.8182,1.0002 389.9582,2.1402 389.9582,3.5462 C389.9582,4.9522 388.8182,6.0932 387.4122,6.0932 C386.0052,6.0932 384.8652,4.9522 384.8652,3.5462" id="Fill-109" fill="#65BDB8"></path>
            <path d="M391.9922,3.5462 C391.9922,2.1402 393.1332,1.0002 394.5392,1.0002 C395.9452,1.0002 397.0852,2.1402 397.0852,3.5462 C397.0852,4.9522 395.9452,6.0932 394.5392,6.0932 C393.1332,6.0932 391.9922,4.9522 391.9922,3.5462" id="Fill-111" fill="#65BDB8"></path>
            <path d="M399.1191,3.5462 C399.1191,2.1402 400.2601,1.0002 401.6661,1.0002 C403.0721,1.0002 404.2131,2.1402 404.2131,3.5462 C404.2131,4.9522 403.0721,6.0932 401.6661,6.0932 C400.2601,6.0932 399.1191,4.9522 399.1191,3.5462" id="Fill-113" fill="#65BDB8"></path>
            <path d="M406.2471,3.5462 C406.2471,2.1402 407.3871,1.0002 408.7931,1.0002 C410.1991,1.0002 411.3401,2.1402 411.3401,3.5462 C411.3401,4.9522 410.1991,6.0932 408.7931,6.0932 C407.3871,6.0932 406.2471,4.9522 406.2471,3.5462" id="Fill-115" fill="#65BDB8"></path>
            <path d="M413.374,3.5462 C413.374,2.1402 414.514,1.0002 415.92,1.0002 C417.326,1.0002 418.467,2.1402 418.467,3.5462 C418.467,4.9522 417.326,6.0932 415.92,6.0932 C414.514,6.0932 413.374,4.9522 413.374,3.5462" id="Fill-117" fill="#65BDB8"></path>
            <path d="M420.501,3.5462 C420.501,2.1402 421.641,1.0002 423.048,1.0002 C424.454,1.0002 425.594,2.1402 425.594,3.5462 C425.594,4.9522 424.454,6.0932 423.048,6.0932 C421.641,6.0932 420.501,4.9522 420.501,3.5462" id="Fill-119" fill="#65BDB8"></path>
            <path d="M427.6279,3.5462 C427.6279,2.1402 428.7689,1.0002 430.1749,1.0002 C431.5809,1.0002 432.7209,2.1402 432.7209,3.5462 C432.7209,4.9522 431.5809,6.0932 430.1749,6.0932 C428.7689,6.0932 427.6279,4.9522 427.6279,3.5462" id="Fill-121" fill="#65BDB8"></path>
            <path d="M434.7549,3.5462 C434.7549,2.1402 435.8959,1.0002 437.3019,1.0002 C438.7079,1.0002 439.8489,2.1402 439.8489,3.5462 C439.8489,4.9522 438.7079,6.0932 437.3019,6.0932 C435.8959,6.0932 434.7549,4.9522 434.7549,3.5462" id="Fill-123" fill="#65BDB8"></path>
            <path d="M441.8818,3.5462 C441.8818,2.1402 443.0228,1.0002 444.4288,1.0002 C445.8348,1.0002 446.9758,2.1402 446.9758,3.5462 C446.9758,4.9522 445.8348,6.0932 444.4288,6.0932 C443.0228,6.0932 441.8818,4.9522 441.8818,3.5462" id="Fill-125" fill="#65BDB8"></path>
            <path d="M449.0098,3.5462 C449.0098,2.1402 450.1498,1.0002 451.5558,1.0002 C452.9618,1.0002 454.1028,2.1402 454.1028,3.5462 C454.1028,4.9522 452.9618,6.0932 451.5558,6.0932 C450.1498,6.0932 449.0098,4.9522 449.0098,3.5462" id="Fill-127" fill="#65BDB8"></path>
            <path d="M456.1367,3.5462 C456.1367,2.1402 457.2767,1.0002 458.6827,1.0002 C460.0897,1.0002 461.2297,2.1402 461.2297,3.5462 C461.2297,4.9522 460.0897,6.0932 458.6827,6.0932 C457.2767,6.0932 456.1367,4.9522 456.1367,3.5462" id="Fill-129" fill="#65BDB8"></path>
            <path d="M463.2637,3.5462 C463.2637,2.1402 464.4037,1.0002 465.8107,1.0002 C467.2167,1.0002 468.3567,2.1402 468.3567,3.5462 C468.3567,4.9522 467.2167,6.0932 465.8107,6.0932 C464.4037,6.0932 463.2637,4.9522 463.2637,3.5462" id="Fill-131" fill="#65BDB8"></path>
            <path d="M470.3906,3.5462 C470.3906,2.1402 471.5316,1.0002 472.9376,1.0002 C474.3436,1.0002 475.4836,2.1402 475.4836,3.5462 C475.4836,4.9522 474.3436,6.0932 472.9376,6.0932 C471.5316,6.0932 470.3906,4.9522 470.3906,3.5462" id="Fill-133" fill="#65BDB8"></path>
            <path d="M477.5176,3.5462 C477.5176,2.1402 478.6586,1.0002 480.0646,1.0002 C481.4706,1.0002 482.6116,2.1402 482.6116,3.5462 C482.6116,4.9522 481.4706,6.0932 480.0646,6.0932 C478.6586,6.0932 477.5176,4.9522 477.5176,3.5462" id="Fill-135" fill="#65BDB8"></path>
            <path d="M484.6455,3.5462 C484.6455,2.1402 485.7855,1.0002 487.1915,1.0002 C488.5975,1.0002 489.7385,2.1402 489.7385,3.5462 C489.7385,4.9522 488.5975,6.0932 487.1915,6.0932 C485.7855,6.0932 484.6455,4.9522 484.6455,3.5462" id="Fill-137" fill="#65BDB8"></path>
            <g id="Group-141" transform="translate(491.000000, 0.839600)">
                <mask id="mask-2" fill="white">
                    <use xlink:href="#path-1"></use>
                </mask>
                <g id="Clip-140"></g>
                <path d="M0.7725,2.7066 C0.7725,1.3006 1.9125,0.1606 3.3185,0.1606 C4.7255,0.1606 5.8655,1.3006 5.8655,2.7066 C5.8655,4.1126 4.7255,5.2536 3.3185,5.2536 C1.9125,5.2536 0.7725,4.1126 0.7725,2.7066" id="Fill-139" fill="#65BDB8" mask="url(#mask-2)"></path>
            </g>
            <path d="M0,10.2933 C0,8.8873 1.14,7.7463 2.546,7.7463 C3.953,7.7463 5.093,8.8873 5.093,10.2933 C5.093,11.6993 3.953,12.8393 2.546,12.8393 C1.14,12.8393 0,11.6993 0,10.2933" id="Fill-142" fill="#65BDB8"></path>
            <path d="M7.127,10.2933 C7.127,8.8873 8.267,7.7463 9.674,7.7463 C11.08,7.7463 12.22,8.8873 12.22,10.2933 C12.22,11.6993 11.08,12.8393 9.674,12.8393 C8.267,12.8393 7.127,11.6993 7.127,10.2933" id="Fill-144" fill="#65BDB8"></path>
            <path d="M14.2544,10.2933 C14.2544,8.8873 15.3944,7.7463 16.8004,7.7463 C18.2074,7.7463 19.3474,8.8873 19.3474,10.2933 C19.3474,11.6993 18.2074,12.8393 16.8004,12.8393 C15.3944,12.8393 14.2544,11.6993 14.2544,10.2933" id="Fill-146" fill="#65BDB8"></path>
            <path d="M21.3813,10.2933 C21.3813,8.8873 22.5213,7.7463 23.9273,7.7463 C25.3343,7.7463 26.4743,8.8873 26.4743,10.2933 C26.4743,11.6993 25.3343,12.8393 23.9273,12.8393 C22.5213,12.8393 21.3813,11.6993 21.3813,10.2933" id="Fill-148" fill="#65BDB8"></path>
            <path d="M28.5083,10.2933 C28.5083,8.8873 29.6483,7.7463 31.0553,7.7463 C32.4613,7.7463 33.6013,8.8873 33.6013,10.2933 C33.6013,11.6993 32.4613,12.8393 31.0553,12.8393 C29.6483,12.8393 28.5083,11.6993 28.5083,10.2933" id="Fill-150" fill="#65BDB8"></path>
            <path d="M35.6357,10.2933 C35.6357,8.8873 36.7757,7.7463 38.1817,7.7463 C39.5887,7.7463 40.7287,8.8873 40.7287,10.2933 C40.7287,11.6993 39.5887,12.8393 38.1817,12.8393 C36.7757,12.8393 35.6357,11.6993 35.6357,10.2933" id="Fill-152" fill="#65BDB8"></path>
            <path d="M42.7627,10.2933 C42.7627,8.8873 43.9027,7.7463 45.3087,7.7463 C46.7157,7.7463 47.8557,8.8873 47.8557,10.2933 C47.8557,11.6993 46.7157,12.8393 45.3087,12.8393 C43.9027,12.8393 42.7627,11.6993 42.7627,10.2933" id="Fill-154" fill="#65BDB8"></path>
            <path d="M49.8901,10.2933 C49.8901,8.8873 51.0301,7.7463 52.4361,7.7463 C53.8431,7.7463 54.9831,8.8873 54.9831,10.2933 C54.9831,11.6993 53.8431,12.8393 52.4361,12.8393 C51.0301,12.8393 49.8901,11.6993 49.8901,10.2933" id="Fill-156" fill="#65BDB8"></path>
            <path d="M57.0171,10.2933 C57.0171,8.8873 58.1571,7.7463 59.5631,7.7463 C60.9701,7.7463 62.1101,8.8873 62.1101,10.2933 C62.1101,11.6993 60.9701,12.8393 59.5631,12.8393 C58.1571,12.8393 57.0171,11.6993 57.0171,10.2933" id="Fill-158" fill="#65BDB8"></path>
            <path d="M64.144,10.2933 C64.144,8.8873 65.284,7.7463 66.691,7.7463 C68.097,7.7463 69.237,8.8873 69.237,10.2933 C69.237,11.6993 68.097,12.8393 66.691,12.8393 C65.284,12.8393 64.144,11.6993 64.144,10.2933" id="Fill-160" fill="#65BDB8"></path>
            <path d="M71.2715,10.2933 C71.2715,8.8873 72.4115,7.7463 73.8175,7.7463 C75.2245,7.7463 76.3645,8.8873 76.3645,10.2933 C76.3645,11.6993 75.2245,12.8393 73.8175,12.8393 C72.4115,12.8393 71.2715,11.6993 71.2715,10.2933" id="Fill-162" fill="#65BDB8"></path>
            <path d="M78.3984,10.2933 C78.3984,8.8873 79.5384,7.7463 80.9444,7.7463 C82.3514,7.7463 83.4914,8.8873 83.4914,10.2933 C83.4914,11.6993 82.3514,12.8393 80.9444,12.8393 C79.5384,12.8393 78.3984,11.6993 78.3984,10.2933" id="Fill-164" fill="#65BDB8"></path>
            <path d="M85.5254,10.2933 C85.5254,8.8873 86.6654,7.7463 88.0724,7.7463 C89.4784,7.7463 90.6184,8.8873 90.6184,10.2933 C90.6184,11.6993 89.4784,12.8393 88.0724,12.8393 C86.6654,12.8393 85.5254,11.6993 85.5254,10.2933" id="Fill-166" fill="#65BDB8"></path>
            <path d="M92.6528,10.2933 C92.6528,8.8873 93.7928,7.7463 95.1988,7.7463 C96.6058,7.7463 97.7458,8.8873 97.7458,10.2933 C97.7458,11.6993 96.6058,12.8393 95.1988,12.8393 C93.7928,12.8393 92.6528,11.6993 92.6528,10.2933" id="Fill-168" fill="#65BDB8"></path>
            <path d="M99.7798,10.2933 C99.7798,8.8873 100.9198,7.7463 102.3258,7.7463 C103.7328,7.7463 104.8728,8.8873 104.8728,10.2933 C104.8728,11.6993 103.7328,12.8393 102.3258,12.8393 C100.9198,12.8393 99.7798,11.6993 99.7798,10.2933" id="Fill-170" fill="#65BDB8"></path>
            <path d="M106.9072,10.2933 C106.9072,8.8873 108.0472,7.7463 109.4532,7.7463 C110.8602,7.7463 112.0002,8.8873 112.0002,10.2933 C112.0002,11.6993 110.8602,12.8393 109.4532,12.8393 C108.0472,12.8393 106.9072,11.6993 106.9072,10.2933" id="Fill-172" fill="#65BDB8"></path>
            <path d="M114.0342,10.2933 C114.0342,8.8873 115.1742,7.7463 116.5802,7.7463 C117.9872,7.7463 119.1272,8.8873 119.1272,10.2933 C119.1272,11.6993 117.9872,12.8393 116.5802,12.8393 C115.1742,12.8393 114.0342,11.6993 114.0342,10.2933" id="Fill-174" fill="#65BDB8"></path>
            <path d="M121.1611,10.2933 C121.1611,8.8873 122.3011,7.7463 123.7081,7.7463 C125.1141,7.7463 126.2541,8.8873 126.2541,10.2933 C126.2541,11.6993 125.1141,12.8393 123.7081,12.8393 C122.3011,12.8393 121.1611,11.6993 121.1611,10.2933" id="Fill-176" fill="#65BDB8"></path>
            <path d="M128.2886,10.2933 C128.2886,8.8873 129.4286,7.7463 130.8346,7.7463 C132.2416,7.7463 133.3816,8.8873 133.3816,10.2933 C133.3816,11.6993 132.2416,12.8393 130.8346,12.8393 C129.4286,12.8393 128.2886,11.6993 128.2886,10.2933" id="Fill-178" fill="#65BDB8"></path>
            <path d="M135.4155,10.2933 C135.4155,8.8873 136.5555,7.7463 137.9615,7.7463 C139.3685,7.7463 140.5085,8.8873 140.5085,10.2933 C140.5085,11.6993 139.3685,12.8393 137.9615,12.8393 C136.5555,12.8393 135.4155,11.6993 135.4155,10.2933" id="Fill-180" fill="#65BDB8"></path>
            <path d="M142.5425,10.2933 C142.5425,8.8873 143.6825,7.7463 145.0895,7.7463 C146.4955,7.7463 147.6355,8.8873 147.6355,10.2933 C147.6355,11.6993 146.4955,12.8393 145.0895,12.8393 C143.6825,12.8393 142.5425,11.6993 142.5425,10.2933" id="Fill-182" fill="#65BDB8"></path>
            <path d="M149.6699,10.2933 C149.6699,8.8873 150.8099,7.7463 152.2159,7.7463 C153.6229,7.7463 154.7629,8.8873 154.7629,10.2933 C154.7629,11.6993 153.6229,12.8393 152.2159,12.8393 C150.8099,12.8393 149.6699,11.6993 149.6699,10.2933" id="Fill-184" fill="#65BDB8"></path>
            <path d="M156.7969,10.2933 C156.7969,8.8873 157.9369,7.7463 159.3429,7.7463 C160.7499,7.7463 161.8899,8.8873 161.8899,10.2933 C161.8899,11.6993 160.7499,12.8393 159.3429,12.8393 C157.9369,12.8393 156.7969,11.6993 156.7969,10.2933" id="Fill-186" fill="#65BDB8"></path>
            <path d="M163.9238,10.2933 C163.9238,8.8873 165.0638,7.7463 166.4708,7.7463 C167.8768,7.7463 169.0168,8.8873 169.0168,10.2933 C169.0168,11.6993 167.8768,12.8393 166.4708,12.8393 C165.0638,12.8393 163.9238,11.6993 163.9238,10.2933" id="Fill-188" fill="#65BDB8"></path>
            <path d="M171.0513,10.2933 C171.0513,8.8873 172.1913,7.7463 173.5973,7.7463 C175.0043,7.7463 176.1443,8.8873 176.1443,10.2933 C176.1443,11.6993 175.0043,12.8393 173.5973,12.8393 C172.1913,12.8393 171.0513,11.6993 171.0513,10.2933" id="Fill-190" fill="#65BDB8"></path>
            <path d="M178.1782,10.2933 C178.1782,8.8873 179.3182,7.7463 180.7242,7.7463 C182.1312,7.7463 183.2712,8.8873 183.2712,10.2933 C183.2712,11.6993 182.1312,12.8393 180.7242,12.8393 C179.3182,12.8393 178.1782,11.6993 178.1782,10.2933" id="Fill-192" fill="#65BDB8"></path>
            <path d="M185.3057,10.2933 C185.3057,8.8873 186.4457,7.7463 187.8517,7.7463 C189.2587,7.7463 190.3987,8.8873 190.3987,10.2933 C190.3987,11.6993 189.2587,12.8393 187.8517,12.8393 C186.4457,12.8393 185.3057,11.6993 185.3057,10.2933" id="Fill-194" fill="#65BDB8"></path>
            <path d="M192.4326,10.2933 C192.4326,8.8873 193.5726,7.7463 194.9786,7.7463 C196.3856,7.7463 197.5256,8.8873 197.5256,10.2933 C197.5256,11.6993 196.3856,12.8393 194.9786,12.8393 C193.5726,12.8393 192.4326,11.6993 192.4326,10.2933" id="Fill-196" fill="#65BDB8"></path>
            <path d="M199.5596,10.2933 C199.5596,8.8873 200.6996,7.7463 202.1066,7.7463 C203.5126,7.7463 204.6526,8.8873 204.6526,10.2933 C204.6526,11.6993 203.5126,12.8393 202.1066,12.8393 C200.6996,12.8393 199.5596,11.6993 199.5596,10.2933" id="Fill-198" fill="#65BDB8"></path>
            <path d="M206.687,10.2933 C206.687,8.8873 207.827,7.7463 209.233,7.7463 C210.64,7.7463 211.78,8.8873 211.78,10.2933 C211.78,11.6993 210.64,12.8393 209.233,12.8393 C207.827,12.8393 206.687,11.6993 206.687,10.2933" id="Fill-200" fill="#65BDB8"></path>
        </g>
    </g>
</svg>