<?xml version="1.0" encoding="UTF-8"?>
<svg width="500px" height="15px" viewBox="0 0 500 15" version="1.1" xmlns="http://www.w3.org/2000/svg" xmlns:xlink="http://www.w3.org/1999/xlink">
    <!-- Generator: Sketch 64 (93537) - https://sketch.com -->
    <title>64</title>
    <desc>Created with Sketch.</desc>
    <defs>
        <polygon id="path-1" points="0.7725 0.1604 5.865 0.1604 5.865 5.2534 0.7725 5.2534"></polygon>
        <polygon id="path-3" points="0 0.9065 5.093 0.9065 5.093 6 0 6"></polygon>
        <polygon id="path-5" points="0.127 0.9065 5.22 0.9065 5.22 6 0.127 6"></polygon>
        <polygon id="path-7" points="0.2544 0.9065 5.3474 0.9065 5.3474 6 0.2544 6"></polygon>
        <polygon id="path-9" points="0.3813 0.9065 5.4743 0.9065 5.4743 6 0.3813 6"></polygon>
        <polygon id="path-11" points="0.5083 0.9065 5.6013 0.9065 5.6013 6 0.5083 6"></polygon>
        <polygon id="path-13" points="0.6357 0.9065 5.7287 0.9065 5.7287 6 0.6357 6"></polygon>
        <polygon id="path-15" points="0.7627 0.9065 5.8557 0.9065 5.8557 6 0.7627 6"></polygon>
        <polygon id="path-17" points="0.8901 0.9065 5.9831 0.9065 5.9831 6 0.8901 6"></polygon>
        <polygon id="path-19" points="0.0171 0.9065 5.1101 0.9065 5.1101 6 0.0171 6"></polygon>
        <polygon id="path-21" points="0.144 0.9065 5.237 0.9065 5.237 6 0.144 6"></polygon>
        <polygon id="path-23" points="0.2715 0.9065 5.3645 0.9065 5.3645 6 0.2715 6"></polygon>
        <polygon id="path-25" points="0.3984 0.9065 5.4914 0.9065 5.4914 6 0.3984 6"></polygon>
        <polygon id="path-27" points="0.5254 0.9065 5.6184 0.9065 5.6184 6 0.5254 6"></polygon>
        <polygon id="path-29" points="0.6528 0.9065 5.7458 0.9065 5.7458 6 0.6528 6"></polygon>
        <polygon id="path-31" points="0.7798 0.9065 5.8728 0.9065 5.8728 6 0.7798 6"></polygon>
        <polygon id="path-33" points="0.9072 0.9065 6.0002 0.9065 6.0002 6 0.9072 6"></polygon>
        <polygon id="path-35" points="0.0342 0.9065 5.1272 0.9065 5.1272 6 0.0342 6"></polygon>
        <polygon id="path-37" points="0.1611 0.9065 5.2541 0.9065 5.2541 6 0.1611 6"></polygon>
        <polygon id="path-39" points="0.2886 0.9065 5.3816 0.9065 5.3816 6 0.2886 6"></polygon>
        <polygon id="path-41" points="0.4155 0.9065 5.5085 0.9065 5.5085 6 0.4155 6"></polygon>
        <polygon id="path-43" points="0.5425 0.9065 5.6355 0.9065 5.6355 6 0.5425 6"></polygon>
        <polygon id="path-45" points="0.6699 0.9065 5.7629 0.9065 5.7629 6 0.6699 6"></polygon>
        <polygon id="path-47" points="0.7969 0.9065 5.8899 0.9065 5.8899 6 0.7969 6"></polygon>
        <polygon id="path-49" points="0.9238 0.9065 6.0168 0.9065 6.0168 6 0.9238 6"></polygon>
        <polygon id="path-51" points="0.0513 0.9065 5.1443 0.9065 5.1443 6 0.0513 6"></polygon>
        <polygon id="path-53" points="0.1782 0.9065 5.2712 0.9065 5.2712 6 0.1782 6"></polygon>
        <polygon id="path-55" points="0.3057 0.9065 5.3987 0.9065 5.3987 6 0.3057 6"></polygon>
        <polygon id="path-57" points="0.4326 0.9065 5.5256 0.9065 5.5256 6 0.4326 6"></polygon>
        <polygon id="path-59" points="0.5596 0.9065 5.6526 0.9065 5.6526 6 0.5596 6"></polygon>
        <polygon id="path-61" points="0.687 0.9065 5.78 0.9065 5.78 6 0.687 6"></polygon>
        <polygon id="path-63" points="0.814 0.9065 5.907 0.9065 5.907 6 0.814 6"></polygon>
        <polygon id="path-65" points="0.9409 0.9065 6.0339 0.9065 6.0339 6 0.9409 6"></polygon>
        <polygon id="path-67" points="0.0684 0.9065 5.1614 0.9065 5.1614 6 0.0684 6"></polygon>
        <polygon id="path-69" points="0.1953 0.9065 5.2883 0.9065 5.2883 6 0.1953 6"></polygon>
        <polygon id="path-71" points="0.3228 0.9065 5.4158 0.9065 5.4158 6 0.3228 6"></polygon>
        <polygon id="path-73" points="0.4497 0.9065 5.5427 0.9065 5.5427 6 0.4497 6"></polygon>
        <polygon id="path-75" points="0.5771 0.9065 5.6701 0.9065 5.6701 6 0.5771 6"></polygon>
        <polygon id="path-77" points="0.7041 0.9065 5.7971 0.9065 5.7971 6 0.7041 6"></polygon>
        <polygon id="path-79" points="0.8311 0.9065 5.9241 0.9065 5.9241 6 0.8311 6"></polygon>
        <polygon id="path-81" points="0.958 0.9065 6.051 0.9065 6.051 6 0.958 6"></polygon>
        <polygon id="path-83" points="0.085 0.9065 5.179 0.9065 5.179 6 0.085 6"></polygon>
        <polygon id="path-85" points="0.2129 0.9065 5.3059 0.9065 5.3059 6 0.2129 6"></polygon>
        <polygon id="path-87" points="0.3398 0.9065 5.4328 0.9065 5.4328 6 0.3398 6"></polygon>
        <polygon id="path-89" points="0.4668 0.9065 5.5598 0.9065 5.5598 6 0.4668 6"></polygon>
        <polygon id="path-91" points="0.5937 0.9065 5.6867 0.9065 5.6867 6 0.5937 6"></polygon>
        <polygon id="path-93" points="0.7207 0.9065 5.8147 0.9065 5.8147 6 0.7207 6"></polygon>
    </defs>
    <g id="64" stroke="none" stroke-width="1" fill="none" fill-rule="evenodd">
        <g id="Group-280" transform="translate(0.000000, 1.000000)">
            <path d="M0,3.547 C0,2.14 1.14,1 2.546,1 C3.953,1 5.093,2.14 5.093,3.547 C5.093,4.953 3.953,6.093 2.546,6.093 C1.14,6.093 0,4.953 0,3.547" id="Fill-1" fill="#65BDB8"></path>
            <path d="M7.127,3.547 C7.127,2.14 8.267,1 9.674,1 C11.08,1 12.22,2.14 12.22,3.547 C12.22,4.953 11.08,6.093 9.674,6.093 C8.267,6.093 7.127,4.953 7.127,3.547" id="Fill-3" fill="#65BDB8"></path>
            <path d="M14.2544,3.547 C14.2544,2.14 15.3944,1 16.8004,1 C18.2074,1 19.3474,2.14 19.3474,3.547 C19.3474,4.953 18.2074,6.093 16.8004,6.093 C15.3944,6.093 14.2544,4.953 14.2544,3.547" id="Fill-5" fill="#65BDB8"></path>
            <path d="M21.3813,3.547 C21.3813,2.14 22.5213,1 23.9273,1 C25.3343,1 26.4743,2.14 26.4743,3.547 C26.4743,4.953 25.3343,6.093 23.9273,6.093 C22.5213,6.093 21.3813,4.953 21.3813,3.547" id="Fill-7" fill="#65BDB8"></path>
            <path d="M28.5083,3.547 C28.5083,2.14 29.6483,1 31.0553,1 C32.4613,1 33.6013,2.14 33.6013,3.547 C33.6013,4.953 32.4613,6.093 31.0553,6.093 C29.6483,6.093 28.5083,4.953 28.5083,3.547" id="Fill-9" fill="#65BDB8"></path>
            <path d="M35.6357,3.547 C35.6357,2.14 36.7757,1 38.1817,1 C39.5887,1 40.7287,2.14 40.7287,3.547 C40.7287,4.953 39.5887,6.093 38.1817,6.093 C36.7757,6.093 35.6357,4.953 35.6357,3.547" id="Fill-11" fill="#65BDB8"></path>
            <path d="M42.7627,3.547 C42.7627,2.14 43.9027,1 45.3087,1 C46.7157,1 47.8557,2.14 47.8557,3.547 C47.8557,4.953 46.7157,6.093 45.3087,6.093 C43.9027,6.093 42.7627,4.953 42.7627,3.547" id="Fill-13" fill="#65BDB8"></path>
            <path d="M49.8901,3.547 C49.8901,2.14 51.0301,1 52.4361,1 C53.8431,1 54.9831,2.14 54.9831,3.547 C54.9831,4.953 53.8431,6.093 52.4361,6.093 C51.0301,6.093 49.8901,4.953 49.8901,3.547" id="Fill-15" fill="#65BDB8"></path>
            <path d="M57.0171,3.547 C57.0171,2.14 58.1571,1 59.5631,1 C60.9701,1 62.1101,2.14 62.1101,3.547 C62.1101,4.953 60.9701,6.093 59.5631,6.093 C58.1571,6.093 57.0171,4.953 57.0171,3.547" id="Fill-17" fill="#65BDB8"></path>
            <path d="M64.144,3.547 C64.144,2.14 65.284,1 66.691,1 C68.097,1 69.237,2.14 69.237,3.547 C69.237,4.953 68.097,6.093 66.691,6.093 C65.284,6.093 64.144,4.953 64.144,3.547" id="Fill-19" fill="#65BDB8"></path>
            <path d="M71.2715,3.547 C71.2715,2.14 72.4115,1 73.8175,1 C75.2245,1 76.3645,2.14 76.3645,3.547 C76.3645,4.953 75.2245,6.093 73.8175,6.093 C72.4115,6.093 71.2715,4.953 71.2715,3.547" id="Fill-21" fill="#65BDB8"></path>
            <path d="M78.3984,3.547 C78.3984,2.14 79.5384,1 80.9444,1 C82.3514,1 83.4914,2.14 83.4914,3.547 C83.4914,4.953 82.3514,6.093 80.9444,6.093 C79.5384,6.093 78.3984,4.953 78.3984,3.547" id="Fill-23" fill="#65BDB8"></path>
            <path d="M85.5254,3.547 C85.5254,2.14 86.6654,1 88.0724,1 C89.4784,1 90.6184,2.14 90.6184,3.547 C90.6184,4.953 89.4784,6.093 88.0724,6.093 C86.6654,6.093 85.5254,4.953 85.5254,3.547" id="Fill-25" fill="#65BDB8"></path>
            <path d="M92.6528,3.547 C92.6528,2.14 93.7928,1 95.1988,1 C96.6058,1 97.7458,2.14 97.7458,3.547 C97.7458,4.953 96.6058,6.093 95.1988,6.093 C93.7928,6.093 92.6528,4.953 92.6528,3.547" id="Fill-27" fill="#65BDB8"></path>
            <path d="M99.7798,3.547 C99.7798,2.14 100.9198,1 102.3258,1 C103.7328,1 104.8728,2.14 104.8728,3.547 C104.8728,4.953 103.7328,6.093 102.3258,6.093 C100.9198,6.093 99.7798,4.953 99.7798,3.547" id="Fill-29" fill="#65BDB8"></path>
            <path d="M106.9072,3.547 C106.9072,2.14 108.0472,1 109.4532,1 C110.8602,1 112.0002,2.14 112.0002,3.547 C112.0002,4.953 110.8602,6.093 109.4532,6.093 C108.0472,6.093 106.9072,4.953 106.9072,3.547" id="Fill-31" fill="#65BDB8"></path>
            <path d="M114.0342,3.547 C114.0342,2.14 115.1742,1 116.5802,1 C117.9872,1 119.1272,2.14 119.1272,3.547 C119.1272,4.953 117.9872,6.093 116.5802,6.093 C115.1742,6.093 114.0342,4.953 114.0342,3.547" id="Fill-33" fill="#65BDB8"></path>
            <path d="M121.1611,3.547 C121.1611,2.14 122.3011,1 123.7081,1 C125.1141,1 126.2541,2.14 126.2541,3.547 C126.2541,4.953 125.1141,6.093 123.7081,6.093 C122.3011,6.093 121.1611,4.953 121.1611,3.547" id="Fill-35" fill="#65BDB8"></path>
            <path d="M128.2886,3.547 C128.2886,2.14 129.4286,1 130.8346,1 C132.2416,1 133.3816,2.14 133.3816,3.547 C133.3816,4.953 132.2416,6.093 130.8346,6.093 C129.4286,6.093 128.2886,4.953 128.2886,3.547" id="Fill-37" fill="#65BDB8"></path>
            <path d="M135.4155,3.547 C135.4155,2.14 136.5555,1 137.9615,1 C139.3685,1 140.5085,2.14 140.5085,3.547 C140.5085,4.953 139.3685,6.093 137.9615,6.093 C136.5555,6.093 135.4155,4.953 135.4155,3.547" id="Fill-39" fill="#65BDB8"></path>
            <path d="M142.5425,3.547 C142.5425,2.14 143.6825,1 145.0895,1 C146.4955,1 147.6355,2.14 147.6355,3.547 C147.6355,4.953 146.4955,6.093 145.0895,6.093 C143.6825,6.093 142.5425,4.953 142.5425,3.547" id="Fill-41" fill="#65BDB8"></path>
            <path d="M149.6699,3.547 C149.6699,2.14 150.8099,1 152.2159,1 C153.6229,1 154.7629,2.14 154.7629,3.547 C154.7629,4.953 153.6229,6.093 152.2159,6.093 C150.8099,6.093 149.6699,4.953 149.6699,3.547" id="Fill-43" fill="#65BDB8"></path>
            <path d="M156.7969,3.547 C156.7969,2.14 157.9369,1 159.3429,1 C160.7499,1 161.8899,2.14 161.8899,3.547 C161.8899,4.953 160.7499,6.093 159.3429,6.093 C157.9369,6.093 156.7969,4.953 156.7969,3.547" id="Fill-45" fill="#65BDB8"></path>
            <path d="M163.9238,3.547 C163.9238,2.14 165.0638,1 166.4708,1 C167.8768,1 169.0168,2.14 169.0168,3.547 C169.0168,4.953 167.8768,6.093 166.4708,6.093 C165.0638,6.093 163.9238,4.953 163.9238,3.547" id="Fill-47" fill="#65BDB8"></path>
            <path d="M171.0513,3.547 C171.0513,2.14 172.1913,1 173.5973,1 C175.0043,1 176.1443,2.14 176.1443,3.547 C176.1443,4.953 175.0043,6.093 173.5973,6.093 C172.1913,6.093 171.0513,4.953 171.0513,3.547" id="Fill-49" fill="#65BDB8"></path>
            <path d="M178.1782,3.547 C178.1782,2.14 179.3182,1 180.7242,1 C182.1312,1 183.2712,2.14 183.2712,3.547 C183.2712,4.953 182.1312,6.093 180.7242,6.093 C179.3182,6.093 178.1782,4.953 178.1782,3.547" id="Fill-51" fill="#65BDB8"></path>
            <path d="M185.3057,3.547 C185.3057,2.14 186.4457,1 187.8517,1 C189.2587,1 190.3987,2.14 190.3987,3.547 C190.3987,4.953 189.2587,6.093 187.8517,6.093 C186.4457,6.093 185.3057,4.953 185.3057,3.547" id="Fill-53" fill="#65BDB8"></path>
            <path d="M192.4326,3.547 C192.4326,2.14 193.5726,1 194.9786,1 C196.3856,1 197.5256,2.14 197.5256,3.547 C197.5256,4.953 196.3856,6.093 194.9786,6.093 C193.5726,6.093 192.4326,4.953 192.4326,3.547" id="Fill-55" fill="#65BDB8"></path>
            <path d="M199.5596,3.547 C199.5596,2.14 200.6996,1 202.1066,1 C203.5126,1 204.6526,2.14 204.6526,3.547 C204.6526,4.953 203.5126,6.093 202.1066,6.093 C200.6996,6.093 199.5596,4.953 199.5596,3.547" id="Fill-57" fill="#65BDB8"></path>
            <path d="M206.687,3.547 C206.687,2.14 207.827,1 209.233,1 C210.64,1 211.78,2.14 211.78,3.547 C211.78,4.953 210.64,6.093 209.233,6.093 C207.827,6.093 206.687,4.953 206.687,3.547" id="Fill-59" fill="#65BDB8"></path>
            <path d="M213.814,3.547 C213.814,2.14 214.954,1 216.36,1 C217.767,1 218.907,2.14 218.907,3.547 C218.907,4.953 217.767,6.093 216.36,6.093 C214.954,6.093 213.814,4.953 213.814,3.547" id="Fill-61" fill="#65BDB8"></path>
            <path d="M220.9409,3.547 C220.9409,2.14 222.0809,1 223.4879,1 C224.8939,1 226.0339,2.14 226.0339,3.547 C226.0339,4.953 224.8939,6.093 223.4879,6.093 C222.0809,6.093 220.9409,4.953 220.9409,3.547" id="Fill-63" fill="#65BDB8"></path>
            <path d="M228.0684,3.547 C228.0684,2.14 229.2084,1 230.6144,1 C232.0214,1 233.1614,2.14 233.1614,3.547 C233.1614,4.953 232.0214,6.093 230.6144,6.093 C229.2084,6.093 228.0684,4.953 228.0684,3.547" id="Fill-65" fill="#65BDB8"></path>
            <path d="M235.1953,3.547 C235.1953,2.14 236.3353,1 237.7413,1 C239.1483,1 240.2883,2.14 240.2883,3.547 C240.2883,4.953 239.1483,6.093 237.7413,6.093 C236.3353,6.093 235.1953,4.953 235.1953,3.547" id="Fill-67" fill="#65BDB8"></path>
            <path d="M242.3228,3.547 C242.3228,2.14 243.4628,1 244.8688,1 C246.2758,1 247.4158,2.14 247.4158,3.547 C247.4158,4.953 246.2758,6.093 244.8688,6.093 C243.4628,6.093 242.3228,4.953 242.3228,3.547" id="Fill-69" fill="#65BDB8"></path>
            <path d="M249.4497,3.547 C249.4497,2.14 250.5897,1 251.9957,1 C253.4027,1 254.5427,2.14 254.5427,3.547 C254.5427,4.953 253.4027,6.093 251.9957,6.093 C250.5897,6.093 249.4497,4.953 249.4497,3.547" id="Fill-71" fill="#65BDB8"></path>
            <path d="M256.5771,3.547 C256.5771,2.14 257.7171,1 259.1231,1 C260.5291,1 261.6701,2.14 261.6701,3.547 C261.6701,4.953 260.5291,6.093 259.1231,6.093 C257.7171,6.093 256.5771,4.953 256.5771,3.547" id="Fill-73" fill="#65BDB8"></path>
            <path d="M263.7041,3.547 C263.7041,2.14 264.8441,1 266.2501,1 C267.6571,1 268.7971,2.14 268.7971,3.547 C268.7971,4.953 267.6571,6.093 266.2501,6.093 C264.8441,6.093 263.7041,4.953 263.7041,3.547" id="Fill-75" fill="#65BDB8"></path>
            <path d="M270.8311,3.547 C270.8311,2.14 271.9711,1 273.3781,1 C274.7841,1 275.9241,2.14 275.9241,3.547 C275.9241,4.953 274.7841,6.093 273.3781,6.093 C271.9711,6.093 270.8311,4.953 270.8311,3.547" id="Fill-77" fill="#65BDB8"></path>
            <path d="M277.958,3.547 C277.958,2.14 279.099,1 280.505,1 C281.911,1 283.051,2.14 283.051,3.547 C283.051,4.953 281.911,6.093 280.505,6.093 C279.099,6.093 277.958,4.953 277.958,3.547" id="Fill-79" fill="#65BDB8"></path>
            <path d="M285.085,3.547 C285.085,2.14 286.226,1 287.632,1 C289.038,1 290.179,2.14 290.179,3.547 C290.179,4.953 289.038,6.093 287.632,6.093 C286.226,6.093 285.085,4.953 285.085,3.547" id="Fill-81" fill="#65BDB8"></path>
            <path d="M292.2129,3.547 C292.2129,2.14 293.3529,1 294.7589,1 C296.1649,1 297.3059,2.14 297.3059,3.547 C297.3059,4.953 296.1649,6.093 294.7589,6.093 C293.3529,6.093 292.2129,4.953 292.2129,3.547" id="Fill-83" fill="#65BDB8"></path>
            <path d="M299.3398,3.547 C299.3398,2.14 300.4798,1 301.8858,1 C303.2928,1 304.4328,2.14 304.4328,3.547 C304.4328,4.953 303.2928,6.093 301.8858,6.093 C300.4798,6.093 299.3398,4.953 299.3398,3.547" id="Fill-85" fill="#65BDB8"></path>
            <path d="M306.4668,3.547 C306.4668,2.14 307.6068,1 309.0138,1 C310.4198,1 311.5598,2.14 311.5598,3.547 C311.5598,4.953 310.4198,6.093 309.0138,6.093 C307.6068,6.093 306.4668,4.953 306.4668,3.547" id="Fill-87" fill="#65BDB8"></path>
            <path d="M313.5937,3.547 C313.5937,2.14 314.7347,1 316.1407,1 C317.5467,1 318.6867,2.14 318.6867,3.547 C318.6867,4.953 317.5467,6.093 316.1407,6.093 C314.7347,6.093 313.5937,4.953 313.5937,3.547" id="Fill-89" fill="#65BDB8"></path>
            <path d="M320.7207,3.547 C320.7207,2.14 321.8617,1 323.2677,1 C324.6737,1 325.8147,2.14 325.8147,3.547 C325.8147,4.953 324.6737,6.093 323.2677,6.093 C321.8617,6.093 320.7207,4.953 320.7207,3.547" id="Fill-91" fill="#65BDB8"></path>
            <path d="M327.8477,3.547 C327.8477,2.14 328.9887,1 330.3947,1 C331.8007,1 332.9417,2.14 332.9417,3.547 C332.9417,4.953 331.8007,6.093 330.3947,6.093 C328.9887,6.093 327.8477,4.953 327.8477,3.547" id="Fill-93" fill="#65BDB8"></path>
            <path d="M334.9756,3.547 C334.9756,2.14 336.1156,1 337.5216,1 C338.9276,1 340.0686,2.14 340.0686,3.547 C340.0686,4.953 338.9276,6.093 337.5216,6.093 C336.1156,6.093 334.9756,4.953 334.9756,3.547" id="Fill-95" fill="#65BDB8"></path>
            <path d="M342.1025,3.547 C342.1025,2.14 343.2425,1 344.6485,1 C346.0555,1 347.1955,2.14 347.1955,3.547 C347.1955,4.953 346.0555,6.093 344.6485,6.093 C343.2425,6.093 342.1025,4.953 342.1025,3.547" id="Fill-97" fill="#65BDB8"></path>
            <path d="M349.2295,3.547 C349.2295,2.14 350.3705,1 351.7765,1 C353.1825,1 354.3225,2.14 354.3225,3.547 C354.3225,4.953 353.1825,6.093 351.7765,6.093 C350.3705,6.093 349.2295,4.953 349.2295,3.547" id="Fill-99" fill="#65BDB8"></path>
            <path d="M356.3564,3.547 C356.3564,2.14 357.4974,1 358.9034,1 C360.3094,1 361.4494,2.14 361.4494,3.547 C361.4494,4.953 360.3094,6.093 358.9034,6.093 C357.4974,6.093 356.3564,4.953 356.3564,3.547" id="Fill-101" fill="#65BDB8"></path>
            <path d="M363.4834,3.547 C363.4834,2.14 364.6244,1 366.0304,1 C367.4364,1 368.5774,2.14 368.5774,3.547 C368.5774,4.953 367.4364,6.093 366.0304,6.093 C364.6244,6.093 363.4834,4.953 363.4834,3.547" id="Fill-103" fill="#65BDB8"></path>
            <path d="M370.6113,3.547 C370.6113,2.14 371.7513,1 373.1573,1 C374.5633,1 375.7043,2.14 375.7043,3.547 C375.7043,4.953 374.5633,6.093 373.1573,6.093 C371.7513,6.093 370.6113,4.953 370.6113,3.547" id="Fill-105" fill="#65BDB8"></path>
            <path d="M377.7383,3.547 C377.7383,2.14 378.8783,1 380.2843,1 C381.6913,1 382.8313,2.14 382.8313,3.547 C382.8313,4.953 381.6913,6.093 380.2843,6.093 C378.8783,6.093 377.7383,4.953 377.7383,3.547" id="Fill-107" fill="#65BDB8"></path>
            <path d="M384.8652,3.547 C384.8652,2.14 386.0052,1 387.4122,1 C388.8182,1 389.9582,2.14 389.9582,3.547 C389.9582,4.953 388.8182,6.093 387.4122,6.093 C386.0052,6.093 384.8652,4.953 384.8652,3.547" id="Fill-109" fill="#65BDB8"></path>
            <path d="M391.9922,3.547 C391.9922,2.14 393.1332,1 394.5392,1 C395.9452,1 397.0852,2.14 397.0852,3.547 C397.0852,4.953 395.9452,6.093 394.5392,6.093 C393.1332,6.093 391.9922,4.953 391.9922,3.547" id="Fill-111" fill="#65BDB8"></path>
            <path d="M399.1191,3.547 C399.1191,2.14 400.2601,1 401.6661,1 C403.0721,1 404.2131,2.14 404.2131,3.547 C404.2131,4.953 403.0721,6.093 401.6661,6.093 C400.2601,6.093 399.1191,4.953 399.1191,3.547" id="Fill-113" fill="#65BDB8"></path>
            <path d="M406.2471,3.547 C406.2471,2.14 407.3871,1 408.7931,1 C410.1991,1 411.3401,2.14 411.3401,3.547 C411.3401,4.953 410.1991,6.093 408.7931,6.093 C407.3871,6.093 406.2471,4.953 406.2471,3.547" id="Fill-115" fill="#65BDB8"></path>
            <path d="M413.374,3.547 C413.374,2.14 414.514,1 415.92,1 C417.326,1 418.467,2.14 418.467,3.547 C418.467,4.953 417.326,6.093 415.92,6.093 C414.514,6.093 413.374,4.953 413.374,3.547" id="Fill-117" fill="#65BDB8"></path>
            <path d="M420.501,3.547 C420.501,2.14 421.641,1 423.048,1 C424.454,1 425.594,2.14 425.594,3.547 C425.594,4.953 424.454,6.093 423.048,6.093 C421.641,6.093 420.501,4.953 420.501,3.547" id="Fill-119" fill="#65BDB8"></path>
            <path d="M427.6279,3.547 C427.6279,2.14 428.7689,1 430.1749,1 C431.5809,1 432.7209,2.14 432.7209,3.547 C432.7209,4.953 431.5809,6.093 430.1749,6.093 C428.7689,6.093 427.6279,4.953 427.6279,3.547" id="Fill-121" fill="#65BDB8"></path>
            <path d="M434.7549,3.547 C434.7549,2.14 435.8959,1 437.3019,1 C438.7079,1 439.8489,2.14 439.8489,3.547 C439.8489,4.953 438.7079,6.093 437.3019,6.093 C435.8959,6.093 434.7549,4.953 434.7549,3.547" id="Fill-123" fill="#65BDB8"></path>
            <path d="M441.8818,3.547 C441.8818,2.14 443.0228,1 444.4288,1 C445.8348,1 446.9758,2.14 446.9758,3.547 C446.9758,4.953 445.8348,6.093 444.4288,6.093 C443.0228,6.093 441.8818,4.953 441.8818,3.547" id="Fill-125" fill="#65BDB8"></path>
            <path d="M449.0098,3.547 C449.0098,2.14 450.1498,1 451.5558,1 C452.9618,1 454.1028,2.14 454.1028,3.547 C454.1028,4.953 452.9618,6.093 451.5558,6.093 C450.1498,6.093 449.0098,4.953 449.0098,3.547" id="Fill-127" fill="#65BDB8"></path>
            <path d="M456.1367,3.547 C456.1367,2.14 457.2767,1 458.6827,1 C460.0897,1 461.2297,2.14 461.2297,3.547 C461.2297,4.953 460.0897,6.093 458.6827,6.093 C457.2767,6.093 456.1367,4.953 456.1367,3.547" id="Fill-129" fill="#65BDB8"></path>
            <path d="M463.2637,3.547 C463.2637,2.14 464.4037,1 465.8107,1 C467.2167,1 468.3567,2.14 468.3567,3.547 C468.3567,4.953 467.2167,6.093 465.8107,6.093 C464.4037,6.093 463.2637,4.953 463.2637,3.547" id="Fill-131" fill="#65BDB8"></path>
            <path d="M470.3906,3.547 C470.3906,2.14 471.5316,1 472.9376,1 C474.3436,1 475.4836,2.14 475.4836,3.547 C475.4836,4.953 474.3436,6.093 472.9376,6.093 C471.5316,6.093 470.3906,4.953 470.3906,3.547" id="Fill-133" fill="#65BDB8"></path>
            <path d="M477.5176,3.547 C477.5176,2.14 478.6586,1 480.0646,1 C481.4706,1 482.6116,2.14 482.6116,3.547 C482.6116,4.953 481.4706,6.093 480.0646,6.093 C478.6586,6.093 477.5176,4.953 477.5176,3.547" id="Fill-135" fill="#65BDB8"></path>
            <path d="M484.6455,3.547 C484.6455,2.14 485.7855,1 487.1915,1 C488.5975,1 489.7385,2.14 489.7385,3.547 C489.7385,4.953 488.5975,6.093 487.1915,6.093 C485.7855,6.093 484.6455,4.953 484.6455,3.547" id="Fill-137" fill="#65BDB8"></path>
            <g id="Group-141" transform="translate(491.000000, 0.839600)">
                <mask id="mask-2" fill="white">
                    <use xlink:href="#path-1"></use>
                </mask>
                <g id="Clip-140"></g>
                <path d="M0.7725,2.7074 C0.7725,1.3004 1.9125,0.1604 3.3185,0.1604 C4.7255,0.1604 5.8655,1.3004 5.8655,2.7074 C5.8655,4.1134 4.7255,5.2534 3.3185,5.2534 C1.9125,5.2534 0.7725,4.1134 0.7725,2.7074" id="Fill-139" fill="#65BDB8" mask="url(#mask-2)"></path>
            </g>
            <g id="Group-144" transform="translate(0.000000, 6.839600)">
                <mask id="mask-4" fill="white">
                    <use xlink:href="#path-3"></use>
                </mask>
                <g id="Clip-143"></g>
                <path d="M0,3.4535 C0,2.0475 1.14,0.9065 2.546,0.9065 C3.953,0.9065 5.093,2.0475 5.093,3.4535 C5.093,4.8595 3.953,6.0005 2.546,6.0005 C1.14,6.0005 0,4.8595 0,3.4535" id="Fill-142" fill="#65BDB8" mask="url(#mask-4)"></path>
            </g>
            <g id="Group-147" transform="translate(7.000000, 6.839600)">
                <mask id="mask-6" fill="white">
                    <use xlink:href="#path-5"></use>
                </mask>
                <g id="Clip-146"></g>
                <path d="M0.127,3.4535 C0.127,2.0475 1.267,0.9065 2.674,0.9065 C4.08,0.9065 5.22,2.0475 5.22,3.4535 C5.22,4.8595 4.08,6.0005 2.674,6.0005 C1.267,6.0005 0.127,4.8595 0.127,3.4535" id="Fill-145" fill="#65BDB8" mask="url(#mask-6)"></path>
            </g>
            <g id="Group-150" transform="translate(14.000000, 6.839600)">
                <mask id="mask-8" fill="white">
                    <use xlink:href="#path-7"></use>
                </mask>
                <g id="Clip-149"></g>
                <path d="M0.2544,3.4535 C0.2544,2.0475 1.3944,0.9065 2.8004,0.9065 C4.2074,0.9065 5.3474,2.0475 5.3474,3.4535 C5.3474,4.8595 4.2074,6.0005 2.8004,6.0005 C1.3944,6.0005 0.2544,4.8595 0.2544,3.4535" id="Fill-148" fill="#65BDB8" mask="url(#mask-8)"></path>
            </g>
            <g id="Group-153" transform="translate(21.000000, 6.839600)">
                <mask id="mask-10" fill="white">
                    <use xlink:href="#path-9"></use>
                </mask>
                <g id="Clip-152"></g>
                <path d="M0.3813,3.4535 C0.3813,2.0475 1.5213,0.9065 2.9273,0.9065 C4.3343,0.9065 5.4743,2.0475 5.4743,3.4535 C5.4743,4.8595 4.3343,6.0005 2.9273,6.0005 C1.5213,6.0005 0.3813,4.8595 0.3813,3.4535" id="Fill-151" fill="#65BDB8" mask="url(#mask-10)"></path>
            </g>
            <g id="Group-156" transform="translate(28.000000, 6.839600)">
                <mask id="mask-12" fill="white">
                    <use xlink:href="#path-11"></use>
                </mask>
                <g id="Clip-155"></g>
                <path d="M0.5083,3.4535 C0.5083,2.0475 1.6483,0.9065 3.0553,0.9065 C4.4613,0.9065 5.6013,2.0475 5.6013,3.4535 C5.6013,4.8595 4.4613,6.0005 3.0553,6.0005 C1.6483,6.0005 0.5083,4.8595 0.5083,3.4535" id="Fill-154" fill="#65BDB8" mask="url(#mask-12)"></path>
            </g>
            <g id="Group-159" transform="translate(35.000000, 6.839600)">
                <mask id="mask-14" fill="white">
                    <use xlink:href="#path-13"></use>
                </mask>
                <g id="Clip-158"></g>
                <path d="M0.6357,3.4535 C0.6357,2.0475 1.7757,0.9065 3.1817,0.9065 C4.5887,0.9065 5.7287,2.0475 5.7287,3.4535 C5.7287,4.8595 4.5887,6.0005 3.1817,6.0005 C1.7757,6.0005 0.6357,4.8595 0.6357,3.4535" id="Fill-157" fill="#65BDB8" mask="url(#mask-14)"></path>
            </g>
            <g id="Group-162" transform="translate(42.000000, 6.839600)">
                <mask id="mask-16" fill="white">
                    <use xlink:href="#path-15"></use>
                </mask>
                <g id="Clip-161"></g>
                <path d="M0.7627,3.4535 C0.7627,2.0475 1.9027,0.9065 3.3087,0.9065 C4.7157,0.9065 5.8557,2.0475 5.8557,3.4535 C5.8557,4.8595 4.7157,6.0005 3.3087,6.0005 C1.9027,6.0005 0.7627,4.8595 0.7627,3.4535" id="Fill-160" fill="#65BDB8" mask="url(#mask-16)"></path>
            </g>
            <g id="Group-165" transform="translate(49.000000, 6.839600)">
                <mask id="mask-18" fill="white">
                    <use xlink:href="#path-17"></use>
                </mask>
                <g id="Clip-164"></g>
                <path d="M0.8901,3.4535 C0.8901,2.0475 2.0301,0.9065 3.4361,0.9065 C4.8431,0.9065 5.9831,2.0475 5.9831,3.4535 C5.9831,4.8595 4.8431,6.0005 3.4361,6.0005 C2.0301,6.0005 0.8901,4.8595 0.8901,3.4535" id="Fill-163" fill="#65BDB8" mask="url(#mask-18)"></path>
            </g>
            <g id="Group-168" transform="translate(57.000000, 6.839600)">
                <mask id="mask-20" fill="white">
                    <use xlink:href="#path-19"></use>
                </mask>
                <g id="Clip-167"></g>
                <path d="M0.0171,3.4535 C0.0171,2.0475 1.1571,0.9065 2.5631,0.9065 C3.9701,0.9065 5.1101,2.0475 5.1101,3.4535 C5.1101,4.8595 3.9701,6.0005 2.5631,6.0005 C1.1571,6.0005 0.0171,4.8595 0.0171,3.4535" id="Fill-166" fill="#65BDB8" mask="url(#mask-20)"></path>
            </g>
            <g id="Group-171" transform="translate(64.000000, 6.839600)">
                <mask id="mask-22" fill="white">
                    <use xlink:href="#path-21"></use>
                </mask>
                <g id="Clip-170"></g>
                <path d="M0.144,3.4535 C0.144,2.0475 1.284,0.9065 2.691,0.9065 C4.097,0.9065 5.237,2.0475 5.237,3.4535 C5.237,4.8595 4.097,6.0005 2.691,6.0005 C1.284,6.0005 0.144,4.8595 0.144,3.4535" id="Fill-169" fill="#65BDB8" mask="url(#mask-22)"></path>
            </g>
            <g id="Group-174" transform="translate(71.000000, 6.839600)">
                <mask id="mask-24" fill="white">
                    <use xlink:href="#path-23"></use>
                </mask>
                <g id="Clip-173"></g>
                <path d="M0.2715,3.4535 C0.2715,2.0475 1.4115,0.9065 2.8175,0.9065 C4.2245,0.9065 5.3645,2.0475 5.3645,3.4535 C5.3645,4.8595 4.2245,6.0005 2.8175,6.0005 C1.4115,6.0005 0.2715,4.8595 0.2715,3.4535" id="Fill-172" fill="#65BDB8" mask="url(#mask-24)"></path>
            </g>
            <g id="Group-177" transform="translate(78.000000, 6.839600)">
                <mask id="mask-26" fill="white">
                    <use xlink:href="#path-25"></use>
                </mask>
                <g id="Clip-176"></g>
                <path d="M0.3984,3.4535 C0.3984,2.0475 1.5384,0.9065 2.9444,0.9065 C4.3514,0.9065 5.4914,2.0475 5.4914,3.4535 C5.4914,4.8595 4.3514,6.0005 2.9444,6.0005 C1.5384,6.0005 0.3984,4.8595 0.3984,3.4535" id="Fill-175" fill="#65BDB8" mask="url(#mask-26)"></path>
            </g>
            <g id="Group-180" transform="translate(85.000000, 6.839600)">
                <mask id="mask-28" fill="white">
                    <use xlink:href="#path-27"></use>
                </mask>
                <g id="Clip-179"></g>
                <path d="M0.5254,3.4535 C0.5254,2.0475 1.6654,0.9065 3.0724,0.9065 C4.4784,0.9065 5.6184,2.0475 5.6184,3.4535 C5.6184,4.8595 4.4784,6.0005 3.0724,6.0005 C1.6654,6.0005 0.5254,4.8595 0.5254,3.4535" id="Fill-178" fill="#65BDB8" mask="url(#mask-28)"></path>
            </g>
            <g id="Group-183" transform="translate(92.000000, 6.839600)">
                <mask id="mask-30" fill="white">
                    <use xlink:href="#path-29"></use>
                </mask>
                <g id="Clip-182"></g>
                <path d="M0.6528,3.4535 C0.6528,2.0475 1.7928,0.9065 3.1988,0.9065 C4.6058,0.9065 5.7458,2.0475 5.7458,3.4535 C5.7458,4.8595 4.6058,6.0005 3.1988,6.0005 C1.7928,6.0005 0.6528,4.8595 0.6528,3.4535" id="Fill-181" fill="#65BDB8" mask="url(#mask-30)"></path>
            </g>
            <g id="Group-186" transform="translate(99.000000, 6.839600)">
                <mask id="mask-32" fill="white">
                    <use xlink:href="#path-31"></use>
                </mask>
                <g id="Clip-185"></g>
                <path d="M0.7798,3.4535 C0.7798,2.0475 1.9198,0.9065 3.3258,0.9065 C4.7328,0.9065 5.8728,2.0475 5.8728,3.4535 C5.8728,4.8595 4.7328,6.0005 3.3258,6.0005 C1.9198,6.0005 0.7798,4.8595 0.7798,3.4535" id="Fill-184" fill="#65BDB8" mask="url(#mask-32)"></path>
            </g>
            <g id="Group-189" transform="translate(106.000000, 6.839600)">
                <mask id="mask-34" fill="white">
                    <use xlink:href="#path-33"></use>
                </mask>
                <g id="Clip-188"></g>
                <path d="M0.9072,3.4535 C0.9072,2.0475 2.0472,0.9065 3.4532,0.9065 C4.8602,0.9065 6.0002,2.0475 6.0002,3.4535 C6.0002,4.8595 4.8602,6.0005 3.4532,6.0005 C2.0472,6.0005 0.9072,4.8595 0.9072,3.4535" id="Fill-187" fill="#65BDB8" mask="url(#mask-34)"></path>
            </g>
            <g id="Group-192" transform="translate(114.000000, 6.839600)">
                <mask id="mask-36" fill="white">
                    <use xlink:href="#path-35"></use>
                </mask>
                <g id="Clip-191"></g>
                <path d="M0.0342,3.4535 C0.0342,2.0475 1.1742,0.9065 2.5802,0.9065 C3.9872,0.9065 5.1272,2.0475 5.1272,3.4535 C5.1272,4.8595 3.9872,6.0005 2.5802,6.0005 C1.1742,6.0005 0.0342,4.8595 0.0342,3.4535" id="Fill-190" fill="#65BDB8" mask="url(#mask-36)"></path>
            </g>
            <g id="Group-195" transform="translate(121.000000, 6.839600)">
                <mask id="mask-38" fill="white">
                    <use xlink:href="#path-37"></use>
                </mask>
                <g id="Clip-194"></g>
                <path d="M0.1611,3.4535 C0.1611,2.0475 1.3011,0.9065 2.7081,0.9065 C4.1141,0.9065 5.2541,2.0475 5.2541,3.4535 C5.2541,4.8595 4.1141,6.0005 2.7081,6.0005 C1.3011,6.0005 0.1611,4.8595 0.1611,3.4535" id="Fill-193" fill="#65BDB8" mask="url(#mask-38)"></path>
            </g>
            <g id="Group-198" transform="translate(128.000000, 6.839600)">
                <mask id="mask-40" fill="white">
                    <use xlink:href="#path-39"></use>
                </mask>
                <g id="Clip-197"></g>
                <path d="M0.2886,3.4535 C0.2886,2.0475 1.4286,0.9065 2.8346,0.9065 C4.2416,0.9065 5.3816,2.0475 5.3816,3.4535 C5.3816,4.8595 4.2416,6.0005 2.8346,6.0005 C1.4286,6.0005 0.2886,4.8595 0.2886,3.4535" id="Fill-196" fill="#65BDB8" mask="url(#mask-40)"></path>
            </g>
            <g id="Group-201" transform="translate(135.000000, 6.839600)">
                <mask id="mask-42" fill="white">
                    <use xlink:href="#path-41"></use>
                </mask>
                <g id="Clip-200"></g>
                <path d="M0.4155,3.4535 C0.4155,2.0475 1.5555,0.9065 2.9615,0.9065 C4.3685,0.9065 5.5085,2.0475 5.5085,3.4535 C5.5085,4.8595 4.3685,6.0005 2.9615,6.0005 C1.5555,6.0005 0.4155,4.8595 0.4155,3.4535" id="Fill-199" fill="#65BDB8" mask="url(#mask-42)"></path>
            </g>
            <g id="Group-204" transform="translate(142.000000, 6.839600)">
                <mask id="mask-44" fill="white">
                    <use xlink:href="#path-43"></use>
                </mask>
                <g id="Clip-203"></g>
                <path d="M0.5425,3.4535 C0.5425,2.0475 1.6825,0.9065 3.0895,0.9065 C4.4955,0.9065 5.6355,2.0475 5.6355,3.4535 C5.6355,4.8595 4.4955,6.0005 3.0895,6.0005 C1.6825,6.0005 0.5425,4.8595 0.5425,3.4535" id="Fill-202" fill="#65BDB8" mask="url(#mask-44)"></path>
            </g>
            <g id="Group-207" transform="translate(149.000000, 6.839600)">
                <mask id="mask-46" fill="white">
                    <use xlink:href="#path-45"></use>
                </mask>
                <g id="Clip-206"></g>
                <path d="M0.6699,3.4535 C0.6699,2.0475 1.8099,0.9065 3.2159,0.9065 C4.6229,0.9065 5.7629,2.0475 5.7629,3.4535 C5.7629,4.8595 4.6229,6.0005 3.2159,6.0005 C1.8099,6.0005 0.6699,4.8595 0.6699,3.4535" id="Fill-205" fill="#65BDB8" mask="url(#mask-46)"></path>
            </g>
            <g id="Group-210" transform="translate(156.000000, 6.839600)">
                <mask id="mask-48" fill="white">
                    <use xlink:href="#path-47"></use>
                </mask>
                <g id="Clip-209"></g>
                <path d="M0.7969,3.4535 C0.7969,2.0475 1.9369,0.9065 3.3429,0.9065 C4.7499,0.9065 5.8899,2.0475 5.8899,3.4535 C5.8899,4.8595 4.7499,6.0005 3.3429,6.0005 C1.9369,6.0005 0.7969,4.8595 0.7969,3.4535" id="Fill-208" fill="#65BDB8" mask="url(#mask-48)"></path>
            </g>
            <g id="Group-213" transform="translate(163.000000, 6.839600)">
                <mask id="mask-50" fill="white">
                    <use xlink:href="#path-49"></use>
                </mask>
                <g id="Clip-212"></g>
                <path d="M0.9238,3.4535 C0.9238,2.0475 2.0638,0.9065 3.4708,0.9065 C4.8768,0.9065 6.0168,2.0475 6.0168,3.4535 C6.0168,4.8595 4.8768,6.0005 3.4708,6.0005 C2.0638,6.0005 0.9238,4.8595 0.9238,3.4535" id="Fill-211" fill="#65BDB8" mask="url(#mask-50)"></path>
            </g>
            <g id="Group-216" transform="translate(171.000000, 6.839600)">
                <mask id="mask-52" fill="white">
                    <use xlink:href="#path-51"></use>
                </mask>
                <g id="Clip-215"></g>
                <path d="M0.0513,3.4535 C0.0513,2.0475 1.1913,0.9065 2.5973,0.9065 C4.0043,0.9065 5.1443,2.0475 5.1443,3.4535 C5.1443,4.8595 4.0043,6.0005 2.5973,6.0005 C1.1913,6.0005 0.0513,4.8595 0.0513,3.4535" id="Fill-214" fill="#65BDB8" mask="url(#mask-52)"></path>
            </g>
            <g id="Group-219" transform="translate(178.000000, 6.839600)">
                <mask id="mask-54" fill="white">
                    <use xlink:href="#path-53"></use>
                </mask>
                <g id="Clip-218"></g>
                <path d="M0.1782,3.4535 C0.1782,2.0475 1.3182,0.9065 2.7242,0.9065 C4.1312,0.9065 5.2712,2.0475 5.2712,3.4535 C5.2712,4.8595 4.1312,6.0005 2.7242,6.0005 C1.3182,6.0005 0.1782,4.8595 0.1782,3.4535" id="Fill-217" fill="#65BDB8" mask="url(#mask-54)"></path>
            </g>
            <g id="Group-222" transform="translate(185.000000, 6.839600)">
                <mask id="mask-56" fill="white">
                    <use xlink:href="#path-55"></use>
                </mask>
                <g id="Clip-221"></g>
                <path d="M0.3057,3.4535 C0.3057,2.0475 1.4457,0.9065 2.8517,0.9065 C4.2587,0.9065 5.3987,2.0475 5.3987,3.4535 C5.3987,4.8595 4.2587,6.0005 2.8517,6.0005 C1.4457,6.0005 0.3057,4.8595 0.3057,3.4535" id="Fill-220" fill="#65BDB8" mask="url(#mask-56)"></path>
            </g>
            <g id="Group-225" transform="translate(192.000000, 6.839600)">
                <mask id="mask-58" fill="white">
                    <use xlink:href="#path-57"></use>
                </mask>
                <g id="Clip-224"></g>
                <path d="M0.4326,3.4535 C0.4326,2.0475 1.5726,0.9065 2.9786,0.9065 C4.3856,0.9065 5.5256,2.0475 5.5256,3.4535 C5.5256,4.8595 4.3856,6.0005 2.9786,6.0005 C1.5726,6.0005 0.4326,4.8595 0.4326,3.4535" id="Fill-223" fill="#65BDB8" mask="url(#mask-58)"></path>
            </g>
            <g id="Group-228" transform="translate(199.000000, 6.839600)">
                <mask id="mask-60" fill="white">
                    <use xlink:href="#path-59"></use>
                </mask>
                <g id="Clip-227"></g>
                <path d="M0.5596,3.4535 C0.5596,2.0475 1.6996,0.9065 3.1066,0.9065 C4.5126,0.9065 5.6526,2.0475 5.6526,3.4535 C5.6526,4.8595 4.5126,6.0005 3.1066,6.0005 C1.6996,6.0005 0.5596,4.8595 0.5596,3.4535" id="Fill-226" fill="#65BDB8" mask="url(#mask-60)"></path>
            </g>
            <g id="Group-231" transform="translate(206.000000, 6.839600)">
                <mask id="mask-62" fill="white">
                    <use xlink:href="#path-61"></use>
                </mask>
                <g id="Clip-230"></g>
                <path d="M0.687,3.4535 C0.687,2.0475 1.827,0.9065 3.233,0.9065 C4.64,0.9065 5.78,2.0475 5.78,3.4535 C5.78,4.8595 4.64,6.0005 3.233,6.0005 C1.827,6.0005 0.687,4.8595 0.687,3.4535" id="Fill-229" fill="#65BDB8" mask="url(#mask-62)"></path>
            </g>
            <g id="Group-234" transform="translate(213.000000, 6.839600)">
                <mask id="mask-64" fill="white">
                    <use xlink:href="#path-63"></use>
                </mask>
                <g id="Clip-233"></g>
                <path d="M0.814,3.4535 C0.814,2.0475 1.954,0.9065 3.36,0.9065 C4.767,0.9065 5.907,2.0475 5.907,3.4535 C5.907,4.8595 4.767,6.0005 3.36,6.0005 C1.954,6.0005 0.814,4.8595 0.814,3.4535" id="Fill-232" fill="#65BDB8" mask="url(#mask-64)"></path>
            </g>
            <g id="Group-237" transform="translate(220.000000, 6.839600)">
                <mask id="mask-66" fill="white">
                    <use xlink:href="#path-65"></use>
                </mask>
                <g id="Clip-236"></g>
                <path d="M0.9409,3.4535 C0.9409,2.0475 2.0809,0.9065 3.4879,0.9065 C4.8939,0.9065 6.0339,2.0475 6.0339,3.4535 C6.0339,4.8595 4.8939,6.0005 3.4879,6.0005 C2.0809,6.0005 0.9409,4.8595 0.9409,3.4535" id="Fill-235" fill="#65BDB8" mask="url(#mask-66)"></path>
            </g>
            <g id="Group-240" transform="translate(228.000000, 6.839600)">
                <mask id="mask-68" fill="white">
                    <use xlink:href="#path-67"></use>
                </mask>
                <g id="Clip-239"></g>
                <path d="M0.0684,3.4535 C0.0684,2.0475 1.2084,0.9065 2.6144,0.9065 C4.0214,0.9065 5.1614,2.0475 5.1614,3.4535 C5.1614,4.8595 4.0214,6.0005 2.6144,6.0005 C1.2084,6.0005 0.0684,4.8595 0.0684,3.4535" id="Fill-238" fill="#65BDB8" mask="url(#mask-68)"></path>
            </g>
            <g id="Group-243" transform="translate(235.000000, 6.839600)">
                <mask id="mask-70" fill="white">
                    <use xlink:href="#path-69"></use>
                </mask>
                <g id="Clip-242"></g>
                <path d="M0.1953,3.4535 C0.1953,2.0475 1.3353,0.9065 2.7413,0.9065 C4.1483,0.9065 5.2883,2.0475 5.2883,3.4535 C5.2883,4.8595 4.1483,6.0005 2.7413,6.0005 C1.3353,6.0005 0.1953,4.8595 0.1953,3.4535" id="Fill-241" fill="#65BDB8" mask="url(#mask-70)"></path>
            </g>
            <g id="Group-246" transform="translate(242.000000, 6.839600)">
                <mask id="mask-72" fill="white">
                    <use xlink:href="#path-71"></use>
                </mask>
                <g id="Clip-245"></g>
                <path d="M0.3228,3.4535 C0.3228,2.0475 1.4628,0.9065 2.8688,0.9065 C4.2758,0.9065 5.4158,2.0475 5.4158,3.4535 C5.4158,4.8595 4.2758,6.0005 2.8688,6.0005 C1.4628,6.0005 0.3228,4.8595 0.3228,3.4535" id="Fill-244" fill="#65BDB8" mask="url(#mask-72)"></path>
            </g>
            <g id="Group-249" transform="translate(249.000000, 6.839600)">
                <mask id="mask-74" fill="white">
                    <use xlink:href="#path-73"></use>
                </mask>
                <g id="Clip-248"></g>
                <path d="M0.4497,3.4535 C0.4497,2.0475 1.5897,0.9065 2.9957,0.9065 C4.4027,0.9065 5.5427,2.0475 5.5427,3.4535 C5.5427,4.8595 4.4027,6.0005 2.9957,6.0005 C1.5897,6.0005 0.4497,4.8595 0.4497,3.4535" id="Fill-247" fill="#65BDB8" mask="url(#mask-74)"></path>
            </g>
            <g id="Group-252" transform="translate(256.000000, 6.839600)">
                <mask id="mask-76" fill="white">
                    <use xlink:href="#path-75"></use>
                </mask>
                <g id="Clip-251"></g>
                <path d="M0.5771,3.4535 C0.5771,2.0475 1.7171,0.9065 3.1231,0.9065 C4.5291,0.9065 5.6701,2.0475 5.6701,3.4535 C5.6701,4.8595 4.5291,6.0005 3.1231,6.0005 C1.7171,6.0005 0.5771,4.8595 0.5771,3.4535" id="Fill-250" fill="#65BDB8" mask="url(#mask-76)"></path>
            </g>
            <g id="Group-255" transform="translate(263.000000, 6.839600)">
                <mask id="mask-78" fill="white">
                    <use xlink:href="#path-77"></use>
                </mask>
                <g id="Clip-254"></g>
                <path d="M0.7041,3.4535 C0.7041,2.0475 1.8441,0.9065 3.2501,0.9065 C4.6571,0.9065 5.7971,2.0475 5.7971,3.4535 C5.7971,4.8595 4.6571,6.0005 3.2501,6.0005 C1.8441,6.0005 0.7041,4.8595 0.7041,3.4535" id="Fill-253" fill="#65BDB8" mask="url(#mask-78)"></path>
            </g>
            <g id="Group-258" transform="translate(270.000000, 6.839600)">
                <mask id="mask-80" fill="white">
                    <use xlink:href="#path-79"></use>
                </mask>
                <g id="Clip-257"></g>
                <path d="M0.8311,3.4535 C0.8311,2.0475 1.9711,0.9065 3.3781,0.9065 C4.7841,0.9065 5.9241,2.0475 5.9241,3.4535 C5.9241,4.8595 4.7841,6.0005 3.3781,6.0005 C1.9711,6.0005 0.8311,4.8595 0.8311,3.4535" id="Fill-256" fill="#65BDB8" mask="url(#mask-80)"></path>
            </g>
            <g id="Group-261" transform="translate(277.000000, 6.839600)">
                <mask id="mask-82" fill="white">
                    <use xlink:href="#path-81"></use>
                </mask>
                <g id="Clip-260"></g>
                <path d="M0.958,3.4535 C0.958,2.0475 2.099,0.9065 3.505,0.9065 C4.911,0.9065 6.051,2.0475 6.051,3.4535 C6.051,4.8595 4.911,6.0005 3.505,6.0005 C2.099,6.0005 0.958,4.8595 0.958,3.4535" id="Fill-259" fill="#65BDB8" mask="url(#mask-82)"></path>
            </g>
            <g id="Group-264" transform="translate(285.000000, 6.839600)">
                <mask id="mask-84" fill="white">
                    <use xlink:href="#path-83"></use>
                </mask>
                <g id="Clip-263"></g>
                <path d="M0.085,3.4535 C0.085,2.0475 1.226,0.9065 2.632,0.9065 C4.038,0.9065 5.179,2.0475 5.179,3.4535 C5.179,4.8595 4.038,6.0005 2.632,6.0005 C1.226,6.0005 0.085,4.8595 0.085,3.4535" id="Fill-262" fill="#65BDB8" mask="url(#mask-84)"></path>
            </g>
            <g id="Group-267" transform="translate(292.000000, 6.839600)">
                <mask id="mask-86" fill="white">
                    <use xlink:href="#path-85"></use>
                </mask>
                <g id="Clip-266"></g>
                <path d="M0.2129,3.4535 C0.2129,2.0475 1.3529,0.9065 2.7589,0.9065 C4.1649,0.9065 5.3059,2.0475 5.3059,3.4535 C5.3059,4.8595 4.1649,6.0005 2.7589,6.0005 C1.3529,6.0005 0.2129,4.8595 0.2129,3.4535" id="Fill-265" fill="#65BDB8" mask="url(#mask-86)"></path>
            </g>
            <g id="Group-270" transform="translate(299.000000, 6.839600)">
                <mask id="mask-88" fill="white">
                    <use xlink:href="#path-87"></use>
                </mask>
                <g id="Clip-269"></g>
                <path d="M0.3398,3.4535 C0.3398,2.0475 1.4798,0.9065 2.8858,0.9065 C4.2928,0.9065 5.4328,2.0475 5.4328,3.4535 C5.4328,4.8595 4.2928,6.0005 2.8858,6.0005 C1.4798,6.0005 0.3398,4.8595 0.3398,3.4535" id="Fill-268" fill="#65BDB8" mask="url(#mask-88)"></path>
            </g>
            <g id="Group-273" transform="translate(306.000000, 6.839600)">
                <mask id="mask-90" fill="white">
                    <use xlink:href="#path-89"></use>
                </mask>
                <g id="Clip-272"></g>
                <path d="M0.4668,3.4535 C0.4668,2.0475 1.6068,0.9065 3.0138,0.9065 C4.4198,0.9065 5.5598,2.0475 5.5598,3.4535 C5.5598,4.8595 4.4198,6.0005 3.0138,6.0005 C1.6068,6.0005 0.4668,4.8595 0.4668,3.4535" id="Fill-271" fill="#65BDB8" mask="url(#mask-90)"></path>
            </g>
            <g id="Group-276" transform="translate(313.000000, 6.839600)">
                <mask id="mask-92" fill="white">
                    <use xlink:href="#path-91"></use>
                </mask>
                <g id="Clip-275"></g>
                <path d="M0.5937,3.4535 C0.5937,2.0475 1.7347,0.9065 3.1407,0.9065 C4.5467,0.9065 5.6867,2.0475 5.6867,3.4535 C5.6867,4.8595 4.5467,6.0005 3.1407,6.0005 C1.7347,6.0005 0.5937,4.8595 0.5937,3.4535" id="Fill-274" fill="#65BDB8" mask="url(#mask-92)"></path>
            </g>
            <g id="Group-279" transform="translate(320.000000, 6.839600)">
                <mask id="mask-94" fill="white">
                    <use xlink:href="#path-93"></use>
                </mask>
                <g id="Clip-278"></g>
                <path d="M0.7207,3.4535 C0.7207,2.0475 1.8617,0.9065 3.2677,0.9065 C4.6737,0.9065 5.8147,2.0475 5.8147,3.4535 C5.8147,4.8595 4.6737,6.0005 3.2677,6.0005 C1.8617,6.0005 0.7207,4.8595 0.7207,3.4535" id="Fill-277" fill="#65BDB8" mask="url(#mask-94)"></path>
            </g>
        </g>
    </g>
</svg>