<?xml version="1.0" encoding="UTF-8"?>
<svg width="134px" height="303px" viewBox="0 0 134 303" version="1.1" xmlns="http://www.w3.org/2000/svg" xmlns:xlink="http://www.w3.org/1999/xlink">
    <!-- Generator: Sketch 64 (93537) - https://sketch.com -->
    <title>14</title>
    <desc>Created with Sketch.</desc>
    <g id="14" stroke="none" stroke-width="1" fill="none" fill-rule="evenodd">
        <g id="Group-9">
            <g id="Group-4" transform="translate(0.000000, 0.892000)">
                <path d="M33.4189,0.8398 L30.0839,3.0548 L26.6229,6.3468 L24.8609,9.7018 L26.3709,11.7278 L21.6519,15.1458 L15.8639,26.5398 L11.1449,29.1988 L10.1379,34.8328 L0.6099,48.3638 L9.1519,56.1518 L7.1049,63.2238 L7.7279,69.9378 L5.1479,71.2808 L7.1059,74.4138 L5.2369,75.8458 L7.6389,77.9948 L7.2829,80.8598 L8.5289,81.2178 L10.1309,80.0538 L13.3339,80.2328 L16.9819,81.3968 L20.8079,83.5448 L22.5879,85.0668 L23.2999,84.9768 L24.0119,84.6188 L24.4569,86.3198 L24.4569,88.4678 L24.1009,89.6318 L22.4999,89.4538 L22.1439,90.3038 L21.9219,91.1548 L22.4559,92.3638 L23.2119,93.2588 L23.1679,93.9298 L23.1679,95.8098 L23.3019,96.5258 C23.3019,96.5258 22.8569,96.9288 22.8569,97.2868 C22.8569,97.6448 22.6789,97.9138 22.6789,97.9138 L22.2339,98.4058 L22.1449,99.7038 L21.5669,99.8378 L21.6559,100.5088 L22.1449,101.0908 L22.4999,101.5388 L23.3009,101.4938 L23.7459,102.2998 L24.1019,103.0158 L24.1909,101.8518 L24.2359,101.4938 L24.9919,102.0758 C24.9919,102.0758 24.8589,102.5678 25.0369,102.8818 C25.2149,103.1948 25.3039,104.2248 25.3039,104.2248 L24.9919,105.0758 L24.5919,105.4788 L24.3249,105.2548 L24.1909,104.2698 L23.8799,103.7328 C23.8799,103.7328 23.8799,104.7178 23.7909,105.1198 C23.7019,105.5228 23.6129,105.8358 23.6129,105.8358 L23.2569,106.1048 L22.7679,105.9258 L22.1889,105.7018 L22.0559,106.1048 L22.5899,106.9998 C22.5899,106.9998 22.8569,107.1338 22.0559,107.5818 C21.2549,108.0298 20.8099,108.3428 20.8099,108.3428 L19.8309,108.5668 L17.0279,108.5218 L15.9159,108.0298 L14.8479,107.6718 L13.7359,107.3588 L13.4689,107.3138 L13.4689,108.2988 L14.0029,109.0148 L14.0029,109.8208 L14.1359,110.5368 L15.7819,111.0288 L17.1169,111.6558 L17.7839,111.9238 L18.1839,112.7748 L18.1399,114.4758 L18.0949,115.2368 L17.9169,116.1318 L17.6059,117.2058 L17.2499,118.1008 L16.8049,118.9958 L17.2939,119.2198 L17.5609,119.3088 L17.2499,119.8458 L17.0279,119.7558 L16.9389,120.4278 L16.5829,120.2938 L16.4049,119.8908 L14.9809,121.0098 L14.4469,121.4128 L13.7799,121.5918 L13.2009,121.6368 L12.7109,121.6368 L12.9339,122.3528 L13.5119,123.0688 L13.5119,124.2778 L13.2009,125.0838 L12.4889,125.8898 L11.7769,126.1138 L10.6199,126.1588 L10.2189,125.7558 L9.6849,125.2188 L9.0179,124.6818 L8.7949,124.7268 L9.5509,125.8458 L10.0409,126.6518 L10.7079,127.1888 L11.2419,127.5468 L11.5529,128.3978 L10.8859,129.6508 L10.7079,130.4568 L11.0639,131.3968 L11.0639,132.7398 L11.8199,133.6798 L12.0869,134.0828 L12.1319,134.5748 L12.1759,135.0228 L12.7989,134.9778 L13.2879,135.3808 L13.6889,134.5298 L15.8689,134.5748 L17.0259,135.7838 L17.3819,136.6348 L17.9609,137.3058 L18.0939,138.2458 L18.7169,139.4098 L18.6279,140.7078 L18.6279,141.4238 L18.0049,142.4528 L17.6939,143.2138 L17.3379,143.7958 L16.8929,144.6908 L16.5369,145.2728 L16.2259,145.7208 L15.9589,146.1238 L15.9149,146.4818 L15.6479,147.2878 L15.2029,148.1388 L15.2029,148.8098 L15.1589,149.4808 L15.1589,149.9728 L14.9369,150.3308 L14.5809,150.5988 L14.3139,151.0018 L13.6909,151.3148 L13.2459,151.2248 L12.5339,151.2248 L12.3559,151.2698 L12.8459,152.2548 L12.9789,152.9708 L13.2899,153.5968 L13.6459,154.8498 L14.0019,155.5218 L14.1799,156.1038 L14.2239,158.0278 C14.2239,158.0278 14.3129,159.1928 14.1799,159.6388 C14.0469,160.0868 13.9579,160.4898 13.9579,160.4898 L13.6469,161.3848 L13.6919,162.2358 L13.4249,162.9058 L13.2469,163.4878 L12.8469,163.9358 L12.2239,164.2928 L11.9129,164.3828 L11.9569,164.7408 L12.2239,165.1888 L12.9359,165.2338 L13.8259,165.6358 L14.0929,165.7708 L14.4039,165.0988 L14.8049,164.8298 L14.9379,165.1888 L14.7159,165.5018 L14.4929,165.7708 L14.4039,165.9488 L14.5369,166.5758 L15.2929,166.6658 L15.6939,167.1138 L15.6049,168.1448 L15.7379,168.8608 L15.5599,169.7548 L15.2489,170.6058 L15.1599,171.0968 L14.8929,171.9028 L14.4479,172.3518 L14.0479,172.7088 L14.0029,173.3358 L13.9139,173.7838 L13.7809,174.1428 L13.7359,174.6338 L14.0029,174.9918 L14.6259,173.9628 L14.7599,173.4258 L14.8489,172.8438 L15.2049,172.1278 L15.5159,171.5008 L15.8269,171.0538 L16.1379,170.5178 L16.3159,170.0258 L16.6279,169.3088 L16.7609,168.4578 L17.0279,168.0098 L17.3839,168.1898 L17.6509,168.5918 L18.0509,168.7268 L18.4509,168.7268 L18.6289,169.3538 L18.6729,169.9808 L18.7619,170.6518 L18.8509,171.1898 L19.1619,171.6358 C19.1619,171.6358 19.2509,172.2628 19.2509,172.4868 C19.2509,172.7108 19.2949,173.8738 19.2949,174.1888 C19.2949,174.5008 19.3389,174.4118 19.2949,174.6798 C19.2509,174.9488 19.1169,175.1718 19.1169,175.1718 L18.7609,175.3518 L18.0929,175.3058 L17.4699,176.0678 L16.7139,176.3798 L16.3579,176.5598 L16.1359,177.0508 L15.9139,177.5428 L15.1129,177.5878 L14.9349,177.3638 L14.7569,177.0508 L13.9559,177.1858 L13.7779,177.5428 L13.5549,177.9908 L13.1989,178.1698 L13.0209,178.1698 L13.0649,177.8128 L13.2869,176.8268 L13.2429,176.7818 L12.7089,177.3188 L12.5309,177.6768 L12.3089,178.1688 L12.2649,178.4828 L11.9089,178.0788 C11.9089,178.0788 12.0869,177.6758 12.0419,177.3628 C11.9979,177.0498 12.1309,176.3778 12.1309,176.3778 L12.6649,175.5268 L13.1549,175.2588 L13.8219,175.0348 C13.8219,175.0348 13.5109,174.9898 13.4209,174.7218 C13.3319,174.4538 13.3319,173.9158 13.3319,173.9158 L12.9759,173.5128 L12.3999,173.5128 L11.7329,173.4238 L11.5989,172.7518 L11.8219,172.3498 L12.8449,172.3498 L13.3339,172.2148 L13.5119,172.1248 L13.6899,171.7678 L13.0669,171.5428 L12.0879,171.7678 L11.3319,171.9458 L11.1989,172.4388 L11.0209,173.1988 L10.7089,173.9148 L10.5309,174.6308 L10.2199,174.7658 L9.5969,174.8548 L9.1519,174.7658 L8.7959,174.5408 L8.7519,174.6748 C8.7519,174.6748 8.7069,174.8548 8.5739,175.2568 C8.4409,175.6598 8.3069,175.9288 8.3069,175.9288 L8.2179,176.7348 L8.4849,176.9128 L8.9299,176.7788 L9.5969,176.6458 L9.9979,176.9138 L10.3089,177.1378 L10.4869,177.4958 L10.8879,177.7198 L11.0659,178.3468 L11.1989,178.8838 L11.4209,179.6008 L11.1099,179.9128 L10.3979,180.0918 L10.3089,180.6288 L9.9979,181.1208 L10.1759,181.7028 L10.2649,182.1508 L10.4869,182.5078 L10.2649,182.7328 L10.2649,183.3598 L10.2649,184.2088 L10.2199,184.4338 L9.7299,184.7908 L9.3299,185.0158 C9.3299,185.0158 8.2179,185.5518 8.1289,185.7318 C8.0399,185.9098 7.5949,186.3138 7.5949,186.3138 L7.5949,186.6708 L7.5949,186.9848 C7.5949,186.9848 7.6399,188.4608 7.6839,188.7308 C7.7279,188.9978 7.6839,189.7148 7.6839,189.7148 L7.7279,190.5218 C7.7279,190.5218 7.8619,191.4158 7.7279,191.8188 C7.5949,192.2228 7.6389,192.7588 7.6389,193.0268 C7.6389,193.2958 7.6829,194.0118 7.6829,194.0118 C7.6829,194.0118 7.5499,194.3698 7.5049,194.6388 C7.4599,194.9068 7.3719,195.3558 7.3719,195.3558 L7.0609,196.2058 L6.9719,196.5198 L6.7049,197.1908 L6.3939,197.5478 C6.3939,197.5478 6.3489,197.8608 6.1719,197.9508 C5.9939,198.0408 5.6819,198.1748 5.6819,198.1748 L5.3709,198.8458 L4.8809,199.1598 L4.4809,199.1598 L4.1249,199.2498 L3.7239,199.6088 C3.7239,199.6088 3.6789,199.7868 3.5459,199.9658 C3.4129,200.1458 3.3239,200.3688 3.3239,200.3688 L3.1019,200.7728 L3.0569,200.9508 L3.9909,201.5778 L4.0799,201.9368 L4.5689,202.7408 L4.7019,203.0548 L5.0129,203.3678 L5.2799,204.1288 L5.8579,203.9498 L6.1689,205.3818 L6.3019,206.4108 C6.3019,206.4108 6.7469,206.6348 6.7909,206.8148 C6.8349,206.9928 7.1919,207.7538 7.1919,207.7538 L7.5029,208.1568 L8.1699,209.0078 L8.3919,209.5898 L8.5699,210.4858 L8.8369,210.8428 L9.0149,211.3348 L9.1479,211.3798 L9.2809,210.5738 L9.1919,210.2158 L9.2809,209.3648 L9.3699,209.0978 L9.4589,208.3358 L9.6809,207.9338 C9.6809,207.9338 10.3039,208.0678 10.6149,208.1568 C10.9259,208.2468 11.2819,208.3808 11.2819,208.3808 L11.8609,208.2018 L12.6619,208.6498 L13.0179,209.0068 L13.5519,209.2318 L13.9079,209.3208 L14.1299,209.5448 L14.1299,210.3518 L13.9079,210.7988 L13.7749,211.0678 L13.7749,211.9618 L14.0859,212.3198 L14.2189,212.8128 L14.3079,213.5278 L13.9969,214.0208 L13.7299,215.6308 L13.4189,215.8998 L12.9299,216.1228 L12.5739,215.7658 L12.2629,215.6308 L11.9959,215.3618 L11.4619,214.9588 L11.4179,214.6918 L11.0179,214.1098 L10.9729,213.1238 L10.5279,213.0338 L10.4389,213.1238 L10.3949,214.1528 L10.5279,214.6908 L10.1279,214.8238 L9.8159,214.3318 C9.8159,214.3318 9.7269,214.1978 9.5489,214.0198 C9.3709,213.8398 9.2379,213.4828 9.2379,213.4828 L9.3269,213.0788 C9.3269,213.0788 9.0159,212.7208 9.0159,212.5418 C9.0159,212.3628 8.7929,212.0048 8.7929,212.0048 L8.5259,212.0948 C8.5259,212.0948 8.3039,212.4078 8.3039,212.5868 C8.3039,212.7668 8.9269,213.2578 8.9269,213.2578 L9.0159,213.6608 L9.0159,214.3768 L9.6389,215.2288 C9.6389,215.2288 10.2619,215.4068 10.2169,215.6308 C10.1719,215.8558 10.2619,216.0338 10.2619,216.0338 C10.2619,216.0338 10.8399,215.9888 11.0179,215.9888 C11.1959,215.9888 11.6409,216.0788 11.9519,216.2568 C12.2629,216.4368 13.0199,218.2718 13.0199,218.2718 C13.0199,218.2718 13.0199,218.5848 13.3759,218.7188 C13.7319,218.8538 14.1319,219.2108 14.1319,219.2108 L14.7109,219.7028 C14.7109,219.7028 15.3339,219.8368 15.3339,220.0168 C15.3339,220.1948 15.8679,220.7328 15.8679,220.7328 L16.4019,220.8208 L16.7579,220.9108 L16.9799,221.7168 L16.7129,222.4338 L16.4459,223.1498 L16.2679,223.7318 L15.8229,224.6258 L15.5109,225.3418 L15.7339,226.2368 C15.7339,226.2368 15.5109,226.9528 15.6009,227.1778 C15.6899,227.4018 15.8229,228.0718 15.8229,228.0718 L15.7339,228.7428 L15.7779,229.2358 L15.9999,229.8178 L16.1329,230.6228 L16.2219,230.6678 L15.7769,231.4298 L14.8869,231.9658 L14.5759,232.4578 L13.9979,232.9948 L12.6629,233.3988 L12.1739,233.6218 L11.4619,233.6668 L11.1949,233.2208 L11.1059,232.5938 L10.6159,232.2358 L10.4379,231.5648 L10.5269,230.5348 L10.5269,229.5048 L10.3939,228.6108 L10.0379,228.0278 L9.5479,227.3128 L9.4589,226.9538 L8.7029,225.7008 L8.3029,225.3428 L7.9469,224.9408 L7.6799,224.7158 L7.4579,224.4028 L7.1019,223.9108 L6.7489,223.5998 L6.2149,223.1088 L5.5919,222.6598 C5.5919,222.6598 5.2809,222.5268 5.1029,222.6148 C4.9249,222.7038 4.6579,222.6148 4.6579,222.6148 C4.6579,222.6148 4.2129,222.5698 4.1689,222.3908 C4.1239,222.2118 3.9459,222.0768 3.9459,222.0768 L3.4569,222.1218 L2.6559,222.7928 L2.4339,223.2408 L1.8549,223.5538 L1.8109,223.8668 L2.9229,224.9858 C2.9229,224.9858 3.0119,225.3888 3.2339,225.4788 C3.4559,225.5688 3.9009,226.1058 3.9009,226.1058 L4.4349,226.8208 L5.3689,227.7608 L5.9029,228.4328 C5.9029,228.4328 5.9919,228.6568 6.3479,229.2838 C6.7039,229.9108 6.8819,230.2688 7.0159,230.4918 C7.1489,230.7158 7.3719,231.4768 7.3719,231.4768 L7.5499,232.6408 L7.7279,233.1778 L7.8169,233.6258 L8.2179,234.1178 L7.8169,234.3858 L7.5059,234.5658 L7.5059,235.2368 L8.7069,236.4448 L9.4189,236.7588 L9.8639,237.0718 L10.0419,237.4298 L10.4419,238.1918 L11.1979,239.8918 L11.8209,240.7868 C11.8209,240.7868 12.2209,241.4128 12.3989,241.5928 C12.5769,241.7728 12.7099,242.0848 12.7099,242.0848 L13.0219,242.2638 C13.0219,242.2638 13.1109,241.9508 13.3779,242.2188 C13.6449,242.4878 14.1339,243.1138 14.1339,243.1138 L14.5349,243.3378 L14.8909,243.4718 L15.3799,244.5458 L15.8699,244.5458 L16.4039,244.9928 L17.1599,245.4858 L17.7829,246.0228 L18.6279,246.5138 L20.0959,247.3198 L20.8969,247.4988 L21.7419,247.9018 L22.7209,248.5728 L24.1449,249.3338 L25.5689,250.5428 L26.1919,251.0348 L26.9929,251.4838 L27.5269,251.6618 L28.0159,251.8858 L28.4169,252.9598 L28.9059,253.4968 L30.0629,253.2738 L30.6409,253.4518 L31.3529,253.5858 L31.7529,253.8548 L32.1089,254.4368 L32.4649,254.9728 L32.9989,254.9278 L33.7999,255.3308 L34.2009,255.4198 L34.5569,255.9568 L35.0909,256.0018 L35.4469,255.7338 L36.1139,256.2258 C36.1139,256.2258 36.2029,256.6718 36.2029,256.8528 C36.2029,257.0308 35.9359,257.2998 35.9359,257.2998 L35.6249,258.0618 L36.8259,258.0618 L37.1819,258.0618 L37.1379,258.5978 L37.2709,259.0008 L37.4039,259.5828 L38.0269,260.0308 L38.0269,259.3608 L38.1599,258.6888 L38.5159,258.8668 L39.0499,259.2708 L39.5389,260.1648 L39.7169,260.3888 L39.4049,260.6128 C39.4049,260.6128 39.0939,260.5688 39.0049,260.7918 C38.9159,261.0158 39.2719,261.4178 39.2719,261.4178 L39.9389,261.5968 L40.6509,261.2388 L41.0959,261.1508 L41.8969,260.8368 C41.8969,260.8368 41.8079,260.7918 42.5199,260.8818 C43.2319,260.9718 42.9199,261.1068 43.3649,261.3738 C43.8099,261.6438 44.5219,262.6718 44.5219,262.6718 L45.0109,263.6118 C45.0109,263.6118 45.0109,263.9258 45.2779,264.1498 C45.5449,264.3728 45.6789,264.5518 45.7679,264.7318 C45.8569,264.9098 45.9459,264.9548 45.9459,265.2228 L45.9459,266.0738 L45.9909,266.9688 L46.4799,267.3718 L46.7019,267.9538 L46.6129,268.5808 L47.0129,268.7148 C47.0129,268.7148 47.1909,268.9398 47.3689,269.0728 C47.5469,269.2068 47.5469,269.6548 47.5469,269.6548 C47.5469,269.6548 47.2799,270.0588 47.6799,270.2368 C48.0799,270.4158 48.1249,270.8188 48.1249,270.8188 L48.4809,271.0878 L48.8369,271.5358 L48.8819,272.2068 L48.8369,272.9678 L48.7929,273.4158 C48.7929,273.4158 48.7039,273.5058 48.4819,273.5498 C48.2599,273.5948 48.0809,273.6848 48.0809,273.6848 L47.5919,274.3118 L47.5919,274.8028 L47.2809,274.9828 L46.7469,275.0718 L47.1469,275.6988 L47.3689,275.9228 C47.3689,275.9228 47.4139,276.1918 47.9469,276.1478 C48.4809,276.1028 48.1689,276.0588 48.5699,276.1928 C48.9699,276.3258 48.9259,276.2368 49.1929,276.4158 C49.4599,276.5948 49.8599,276.7298 49.8599,276.7298 C49.8599,276.7298 50.2159,276.6848 50.3939,276.8188 C50.5719,276.9528 50.7049,277.6248 50.7049,277.6248 L51.0609,277.8498 L51.4619,278.0728 L51.8179,278.2518 C51.8179,278.2518 51.8179,278.1618 52.2629,278.6548 L52.7079,279.1478 L53.4199,279.1928 C53.4199,279.1928 53.5529,279.0588 53.8199,278.9228 C54.0869,278.7888 54.2649,278.6548 54.2649,278.6548 L54.8819,280.4128 L55.0269,280.8528 L54.8819,281.5098 L55.0269,281.4008 L54.8449,281.6928 L54.5909,282.0218 L54.4099,282.3858 L54.1559,282.6788 L54.4469,282.9708 L54.8469,283.2278 L54.9919,283.5568 C54.9919,283.5568 54.9559,283.8848 54.9189,284.0308 C54.8829,284.1768 54.8099,284.2498 54.8099,284.2498 L54.3379,284.7978 C54.3379,284.7978 54.1559,284.7258 54.0469,285.0178 C53.9379,285.3098 53.9379,285.4918 53.9379,285.4918 L53.9019,285.9318 L53.5749,286.0408 L53.4299,286.2248 L53.3569,286.5888 L53.1389,287.0268 L53.2119,287.2098 L53.7209,287.4288 L53.9389,287.9418 L53.7939,288.4158 L53.3219,288.8188 L53.0309,289.2568 L52.1949,289.6218 L51.9769,289.9148 L51.9409,290.4628 L52.0139,291.1568 L51.6509,291.6688 L51.8689,291.9248 L52.4869,292.1818 L52.8139,291.9618 L52.9229,291.3038 L53.2139,291.0118 L53.5049,290.9018 L53.7229,291.2318 L53.4319,291.6698 L53.1049,292.1458 L53.1049,292.7308 L53.0689,293.5338 L52.7059,293.9738 L52.4519,294.5218 L52.4159,294.9958 L52.3069,295.5808 L52.3429,296.6418 L52.6699,297.5538 L53.1059,297.6268 L54.0509,297.3348 L55.0679,297.2978 L56.3389,296.4208 L59.2449,298.4318 L60.5529,298.9798 L63.0599,299.8198 C63.0599,299.8198 64.3319,300.2948 64.4769,300.3318 C64.6219,300.3678 65.7489,300.9168 66.1119,300.9898 C66.4749,301.0638 67.5989,301.4998 67.5989,301.4998 L68.1439,301.4268 C68.1439,301.4268 69.6329,301.3538 69.6329,301.0978 C69.6329,300.8418 70.3229,297.9178 70.3229,297.9178 L72.7209,299.0138 C72.7209,299.0138 73.1569,296.2738 73.3019,296.1268 C73.4479,295.9818 76.8989,293.4588 76.8989,293.4588 L75.6999,290.3518 L75.4459,289.5478 L75.0459,286.0028 L76.9709,285.0888 L81.6569,287.0268 L84.3089,284.7238 L83.9819,282.5308 L83.5459,280.5568 L79.0049,273.7958 C79.0049,273.7958 78.8599,271.7128 78.7869,271.5668 C78.7139,271.4198 78.3869,269.7758 78.3869,269.7758 L77.0789,267.9848 L77.9149,267.2898 L80.4939,267.5458 C80.4939,267.5458 81.5109,267.5828 81.7289,267.4728 C81.9469,267.3628 83.5089,266.5958 83.5089,266.5958 L85.0349,262.9048 L86.2699,259.6158 C86.2699,259.6158 87.7599,258.7758 88.1959,258.8128 C88.6319,258.8488 91.3569,260.0538 91.3569,260.0538 L93.1729,258.4838 L97.1689,260.0538 L101.8909,258.1168 C101.8909,258.1168 104.8699,256.9108 104.9059,256.6548 C104.9419,256.3998 105.9589,251.6858 105.9589,251.6858 L104.6509,249.2358 L108.0289,245.2158 L107.4839,238.8198 L113.0779,230.9988 C113.0779,230.9988 113.1509,228.3308 113.1509,227.8918 C113.1509,227.4528 112.6069,225.8088 113.0419,225.4438 C113.4779,225.0768 114.3149,222.8478 114.3149,222.8478 L116.0219,222.0068 L117.0749,218.8638 L122.9599,219.9968 L124.3769,219.8148 L125.4299,219.4118 C125.4299,219.4118 128.9539,212.1388 129.1349,211.8828 C129.3159,211.6268 132.1499,210.4938 132.1499,210.4938 C132.1499,210.4938 133.3849,203.8058 133.3139,203.4038 C133.2399,203.0018 133.0589,200.9188 133.0589,200.9188 L132.9139,199.8598 L132.7319,198.6158 L129.7169,194.2668 L126.1199,189.1878 L127.9729,186.4458 L128.0089,180.5988 L127.0279,175.7758 L124.5579,174.3498 C124.5579,174.3498 121.9429,175.1168 121.7609,175.0438 C121.5789,174.9708 119.6169,173.4718 119.2909,173.6548 C118.9639,173.8378 112.4969,176.5058 112.4969,176.5058 L110.0269,175.8108 L106.5759,166.9298 L104.6139,159.6208 L99.6729,156.9528 C99.6729,156.9528 98.1829,156.2578 98.1829,156.1118 C98.1829,155.9658 98.9459,153.1888 98.9459,153.1888 L93.3519,144.3798 L91.0639,132.7578 L92.0069,131.9168 L93.5329,133.0868 L96.1489,125.8138 C96.1489,125.8138 92.4809,122.1958 92.3349,121.7568 C92.1899,121.3188 91.7899,118.1388 91.7899,118.1388 L88.3019,114.0818 L89.6099,110.7928 L92.3349,110.4268 L96.0769,107.6858 L93.1339,102.1308 L93.8239,97.8178 C93.8239,97.8178 92.7339,93.3228 92.6979,93.1768 C92.6619,93.0308 94.5869,88.4258 94.5869,88.4258 L97.1659,86.9638 L95.7859,82.7608 L96.4039,79.3988 C96.4039,79.3988 98.7289,78.6318 98.6199,78.3028 C98.5109,77.9738 97.3129,75.9638 97.3129,75.9638 L97.9299,74.3918 C97.9299,74.3918 100.8729,71.9068 100.8729,71.7608 L100.8729,68.5448 L98.6569,61.6738 L96.1499,58.3118 L96.0409,52.6838 L93.8999,46.9858 L93.1369,44.6108 L90.1949,41.4678 L79.3689,34.0488 L78.2429,34.0488 L76.7899,35.1448 C76.7899,35.1448 76.0999,33.3178 75.8819,33.6098 C75.6639,33.9028 74.9009,34.3768 74.9009,34.3768 L74.5019,34.5228 L72.4299,33.3898 L72.2479,29.6258 L70.2139,25.8618 L70.9039,23.5958 L68.6889,21.3668 L68.8329,19.7948 L67.3799,18.2228 L67.3799,16.5048 L59.9329,10.5848 L55.7919,12.2658 L53.7579,14.8238 L50.7429,14.9338 L48.0909,15.1898 L46.6739,17.5288 L44.8569,16.9078 L43.8399,18.6258 L41.0789,19.8318 L39.4439,19.4658 L37.3739,16.7248 L36.7199,15.2268 L35.9939,13.9108 L35.5219,11.7908 L35.7039,8.7938 L36.1399,7.9168 L37.5569,7.1498 L34.5399,1.1558 L33.9219,0.6078 L33.3769,0.8268" id="Fill-1" fill="#FFFFFF"></path>
                <path d="M33.4189,0.8398 L30.0839,3.0548 L26.6229,6.3468 L24.8609,9.7018 L26.3709,11.7278 L21.6519,15.1458 L15.8639,26.5398 L11.1449,29.1988 L10.1379,34.8328 L0.6099,48.3638 L9.1519,56.1518 L7.1049,63.2238 L7.7279,69.9378 L5.1479,71.2808 L7.1059,74.4138 L5.2369,75.8458 L7.6389,77.9948 L7.2829,80.8598 L8.5289,81.2178 L10.1309,80.0538 L13.3339,80.2328 L16.9819,81.3968 L20.8079,83.5448 L22.5879,85.0668 L23.2999,84.9768 L24.0119,84.6188 L24.4569,86.3198 L24.4569,88.4678 L24.1009,89.6318 L22.4999,89.4538 L22.1439,90.3038 L21.9219,91.1548 L22.4559,92.3638 L23.2119,93.2588 L23.1679,93.9298 L23.1679,95.8098 L23.3019,96.5258 C23.3019,96.5258 22.8569,96.9288 22.8569,97.2868 C22.8569,97.6448 22.6789,97.9138 22.6789,97.9138 L22.2339,98.4058 L22.1449,99.7038 L21.5669,99.8378 L21.6559,100.5088 L22.1449,101.0908 L22.4999,101.5388 L23.3009,101.4938 L23.7459,102.2998 L24.1019,103.0158 L24.1909,101.8518 L24.2359,101.4938 L24.9919,102.0758 C24.9919,102.0758 24.8589,102.5678 25.0369,102.8818 C25.2149,103.1948 25.3039,104.2248 25.3039,104.2248 L24.9919,105.0758 L24.5919,105.4788 L24.3249,105.2548 L24.1909,104.2698 L23.8799,103.7328 C23.8799,103.7328 23.8799,104.7178 23.7909,105.1198 C23.7019,105.5228 23.6129,105.8358 23.6129,105.8358 L23.2569,106.1048 L22.7679,105.9258 L22.1889,105.7018 L22.0559,106.1048 L22.5899,106.9998 C22.5899,106.9998 22.8569,107.1338 22.0559,107.5818 C21.2549,108.0298 20.8099,108.3428 20.8099,108.3428 L19.8309,108.5668 L17.0279,108.5218 L15.9159,108.0298 L14.8479,107.6718 L13.7359,107.3588 L13.4689,107.3138 L13.4689,108.2988 L14.0029,109.0148 L14.0029,109.8208 L14.1359,110.5368 L15.7819,111.0288 L17.1169,111.6558 L17.7839,111.9238 L18.1839,112.7748 L18.1399,114.4758 L18.0949,115.2368 L17.9169,116.1318 L17.6059,117.2058 L17.2499,118.1008 L16.8049,118.9958 L17.2939,119.2198 L17.5609,119.3088 L17.2499,119.8458 L17.0279,119.7558 L16.9389,120.4278 L16.5829,120.2938 L16.4049,119.8908 L14.9809,121.0098 L14.4469,121.4128 L13.7799,121.5918 L13.2009,121.6368 L12.7109,121.6368 L12.9339,122.3528 L13.5119,123.0688 L13.5119,124.2778 L13.2009,125.0838 L12.4889,125.8898 L11.7769,126.1138 L10.6199,126.1588 L10.2189,125.7558 L9.6849,125.2188 L9.0179,124.6818 L8.7949,124.7268 L9.5509,125.8458 L10.0409,126.6518 L10.7079,127.1888 L11.2419,127.5468 L11.5529,128.3978 L10.8859,129.6508 L10.7079,130.4568 L11.0639,131.3968 L11.0639,132.7398 L11.8199,133.6798 L12.0869,134.0828 L12.1319,134.5748 L12.1759,135.0228 L12.7989,134.9778 L13.2879,135.3808 L13.6889,134.5298 L15.8689,134.5748 L17.0259,135.7838 L17.3819,136.6348 L17.9609,137.3058 L18.0939,138.2458 L18.7169,139.4098 L18.6279,140.7078 L18.6279,141.4238 L18.0049,142.4528 L17.6939,143.2138 L17.3379,143.7958 L16.8929,144.6908 L16.5369,145.2728 L16.2259,145.7208 L15.9589,146.1238 L15.9149,146.4818 L15.6479,147.2878 L15.2029,148.1388 L15.2029,148.8098 L15.1589,149.4808 L15.1589,149.9728 L14.9369,150.3308 L14.5809,150.5988 L14.3139,151.0018 L13.6909,151.3148 L13.2459,151.2248 L12.5339,151.2248 L12.3559,151.2698 L12.8459,152.2548 L12.9789,152.9708 L13.2899,153.5968 L13.6459,154.8498 L14.0019,155.5218 L14.1799,156.1038 L14.2239,158.0278 C14.2239,158.0278 14.3129,159.1928 14.1799,159.6388 C14.0469,160.0868 13.9579,160.4898 13.9579,160.4898 L13.6469,161.3848 L13.6919,162.2358 L13.4249,162.9058 L13.2469,163.4878 L12.8469,163.9358 L12.2239,164.2928 L11.9129,164.3828 L11.9569,164.7408 L12.2239,165.1888 L12.9359,165.2338 L13.8259,165.6358 L14.0929,165.7708 L14.4039,165.0988 L14.8049,164.8298 L14.9379,165.1888 L14.7159,165.5018 L14.4929,165.7708 L14.4039,165.9488 L14.5369,166.5758 L15.2929,166.6658 L15.6939,167.1138 L15.6049,168.1448 L15.7379,168.8608 L15.5599,169.7548 L15.2489,170.6058 L15.1599,171.0968 L14.8929,171.9028 L14.4479,172.3518 L14.0479,172.7088 L14.0029,173.3358 L13.9139,173.7838 L13.7809,174.1428 L13.7359,174.6338 L14.0029,174.9918 L14.6259,173.9628 L14.7599,173.4258 L14.8489,172.8438 L15.2049,172.1278 L15.5159,171.5008 L15.8269,171.0538 L16.1379,170.5178 L16.3159,170.0258 L16.6279,169.3088 L16.7609,168.4578 L17.0279,168.0098 L17.3839,168.1898 L17.6509,168.5918 L18.0509,168.7268 L18.4509,168.7268 L18.6289,169.3538 L18.6729,169.9808 L18.7619,170.6518 L18.8509,171.1898 L19.1619,171.6358 C19.1619,171.6358 19.2509,172.2628 19.2509,172.4868 C19.2509,172.7108 19.2949,173.8738 19.2949,174.1888 C19.2949,174.5008 19.3389,174.4118 19.2949,174.6798 C19.2509,174.9488 19.1169,175.1718 19.1169,175.1718 L18.7609,175.3518 L18.0929,175.3058 L17.4699,176.0678 L16.7139,176.3798 L16.3579,176.5598 L16.1359,177.0508 L15.9139,177.5428 L15.1129,177.5878 L14.9349,177.3638 L14.7569,177.0508 L13.9559,177.1858 L13.7779,177.5428 L13.5549,177.9908 L13.1989,178.1698 L13.0209,178.1698 L13.0649,177.8128 L13.2869,176.8268 L13.2429,176.7818 L12.7089,177.3188 L12.5309,177.6768 L12.3089,178.1688 L12.2649,178.4828 L11.9089,178.0788 C11.9089,178.0788 12.0869,177.6758 12.0419,177.3628 C11.9979,177.0498 12.1309,176.3778 12.1309,176.3778 L12.6649,175.5268 L13.1549,175.2588 L13.8219,175.0348 C13.8219,175.0348 13.5109,174.9898 13.4209,174.7218 C13.3319,174.4538 13.3319,173.9158 13.3319,173.9158 L12.9759,173.5128 L12.3999,173.5128 L11.7329,173.4238 L11.5989,172.7518 L11.8219,172.3498 L12.8449,172.3498 L13.3339,172.2148 L13.5119,172.1248 L13.6899,171.7678 L13.0669,171.5428 L12.0879,171.7678 L11.3319,171.9458 L11.1989,172.4388 L11.0209,173.1988 L10.7089,173.9148 L10.5309,174.6308 L10.2199,174.7658 L9.5969,174.8548 L9.1519,174.7658 L8.7959,174.5408 L8.7519,174.6748 C8.7519,174.6748 8.7069,174.8548 8.5739,175.2568 C8.4409,175.6598 8.3069,175.9288 8.3069,175.9288 L8.2179,176.7348 L8.4849,176.9128 L8.9299,176.7788 L9.5969,176.6458 L9.9979,176.9138 L10.3089,177.1378 L10.4869,177.4958 L10.8879,177.7198 L11.0659,178.3468 L11.1989,178.8838 L11.4209,179.6008 L11.1099,179.9128 L10.3979,180.0918 L10.3089,180.6288 L9.9979,181.1208 L10.1759,181.7028 L10.2649,182.1508 L10.4869,182.5078 L10.2649,182.7328 L10.2649,183.3598 L10.2649,184.2088 L10.2199,184.4338 L9.7299,184.7908 L9.3299,185.0158 C9.3299,185.0158 8.2179,185.5518 8.1289,185.7318 C8.0399,185.9098 7.5949,186.3138 7.5949,186.3138 L7.5949,186.6708 L7.5949,186.9848 C7.5949,186.9848 7.6399,188.4608 7.6839,188.7308 C7.7279,188.9978 7.6839,189.7148 7.6839,189.7148 L7.7279,190.5218 C7.7279,190.5218 7.8619,191.4158 7.7279,191.8188 C7.5949,192.2228 7.6389,192.7588 7.6389,193.0268 C7.6389,193.2958 7.6829,194.0118 7.6829,194.0118 C7.6829,194.0118 7.5499,194.3698 7.5049,194.6388 C7.4599,194.9068 7.3719,195.3558 7.3719,195.3558 L7.0609,196.2058 L6.9719,196.5198 L6.7049,197.1908 L6.3939,197.5478 C6.3939,197.5478 6.3489,197.8608 6.1719,197.9508 C5.9939,198.0408 5.6819,198.1748 5.6819,198.1748 L5.3709,198.8458 L4.8809,199.1598 L4.4809,199.1598 L4.1249,199.2498 L3.7239,199.6088 C3.7239,199.6088 3.6789,199.7868 3.5459,199.9658 C3.4129,200.1458 3.3239,200.3688 3.3239,200.3688 L3.1019,200.7728 L3.0569,200.9508 L3.9909,201.5778 L4.0799,201.9368 L4.5689,202.7408 L4.7019,203.0548 L5.0129,203.3678 L5.2799,204.1288 L5.8579,203.9498 L6.1689,205.3818 L6.3019,206.4108 C6.3019,206.4108 6.7469,206.6348 6.7909,206.8148 C6.8349,206.9928 7.1919,207.7538 7.1919,207.7538 L7.5029,208.1568 L8.1699,209.0078 L8.3919,209.5898 L8.5699,210.4858 L8.8369,210.8428 L9.0149,211.3348 L9.1479,211.3798 L9.2809,210.5738 L9.1919,210.2158 L9.2809,209.3648 L9.3699,209.0978 L9.4589,208.3358 L9.6809,207.9338 C9.6809,207.9338 10.3039,208.0678 10.6149,208.1568 C10.9259,208.2468 11.2819,208.3808 11.2819,208.3808 L11.8609,208.2018 L12.6619,208.6498 L13.0179,209.0068 L13.5519,209.2318 L13.9079,209.3208 L14.1299,209.5448 L14.1299,210.3518 L13.9079,210.7988 L13.7749,211.0678 L13.7749,211.9618 L14.0859,212.3198 L14.2189,212.8128 L14.3079,213.5278 L13.9969,214.0208 L13.7299,215.6308 L13.4189,215.8998 L12.9299,216.1228 L12.5739,215.7658 L12.2629,215.6308 L11.9959,215.3618 L11.4619,214.9588 L11.4179,214.6918 L11.0179,214.1098 L10.9729,213.1238 L10.5279,213.0338 L10.4389,213.1238 L10.3949,214.1528 L10.5279,214.6908 L10.1279,214.8238 L9.8159,214.3318 C9.8159,214.3318 9.7269,214.1978 9.5489,214.0198 C9.3709,213.8398 9.2379,213.4828 9.2379,213.4828 L9.3269,213.0788 C9.3269,213.0788 9.0159,212.7208 9.0159,212.5418 C9.0159,212.3628 8.7929,212.0048 8.7929,212.0048 L8.5259,212.0948 C8.5259,212.0948 8.3039,212.4078 8.3039,212.5868 C8.3039,212.7668 8.9269,213.2578 8.9269,213.2578 L9.0159,213.6608 L9.0159,214.3768 L9.6389,215.2288 C9.6389,215.2288 10.2619,215.4068 10.2169,215.6308 C10.1719,215.8558 10.2619,216.0338 10.2619,216.0338 C10.2619,216.0338 10.8399,215.9888 11.0179,215.9888 C11.1959,215.9888 11.6409,216.0788 11.9519,216.2568 C12.2629,216.4368 13.0199,218.2718 13.0199,218.2718 C13.0199,218.2718 13.0199,218.5848 13.3759,218.7188 C13.7319,218.8538 14.1319,219.2108 14.1319,219.2108 L14.7109,219.7028 C14.7109,219.7028 15.3339,219.8368 15.3339,220.0168 C15.3339,220.1948 15.8679,220.7328 15.8679,220.7328 L16.4019,220.8208 L16.7579,220.9108 L16.9799,221.7168 L16.7129,222.4338 L16.4459,223.1498 L16.2679,223.7318 L15.8229,224.6258 L15.5109,225.3418 L15.7339,226.2368 C15.7339,226.2368 15.5109,226.9528 15.6009,227.1778 C15.6899,227.4018 15.8229,228.0718 15.8229,228.0718 L15.7339,228.7428 L15.7779,229.2358 L15.9999,229.8178 L16.1329,230.6228 L16.2219,230.6678 L15.7769,231.4298 L14.8869,231.9658 L14.5759,232.4578 L13.9979,232.9948 L12.6629,233.3988 L12.1739,233.6218 L11.4619,233.6668 L11.1949,233.2208 L11.1059,232.5938 L10.6159,232.2358 L10.4379,231.5648 L10.5269,230.5348 L10.5269,229.5048 L10.3939,228.6108 L10.0379,228.0278 L9.5479,227.3128 L9.4589,226.9538 L8.7029,225.7008 L8.3029,225.3428 L7.9469,224.9408 L7.6799,224.7158 L7.4579,224.4028 L7.1019,223.9108 L6.7489,223.5998 L6.2149,223.1088 L5.5919,222.6598 C5.5919,222.6598 5.2809,222.5268 5.1029,222.6148 C4.9249,222.7038 4.6579,222.6148 4.6579,222.6148 C4.6579,222.6148 4.2129,222.5698 4.1689,222.3908 C4.1239,222.2118 3.9459,222.0768 3.9459,222.0768 L3.4569,222.1218 L2.6559,222.7928 L2.4339,223.2408 L1.8549,223.5538 L1.8109,223.8668 L2.9229,224.9858 C2.9229,224.9858 3.0119,225.3888 3.2339,225.4788 C3.4559,225.5688 3.9009,226.1058 3.9009,226.1058 L4.4349,226.8208 L5.3689,227.7608 L5.9029,228.4328 C5.9029,228.4328 5.9919,228.6568 6.3479,229.2838 C6.7039,229.9108 6.8819,230.2688 7.0159,230.4918 C7.1489,230.7158 7.3719,231.4768 7.3719,231.4768 L7.5499,232.6408 L7.7279,233.1778 L7.8169,233.6258 L8.2179,234.1178 L7.8169,234.3858 L7.5059,234.5658 L7.5059,235.2368 L8.7069,236.4448 L9.4189,236.7588 L9.8639,237.0718 L10.0419,237.4298 L10.4419,238.1918 L11.1979,239.8918 L11.8209,240.7868 C11.8209,240.7868 12.2209,241.4128 12.3989,241.5928 C12.5769,241.7728 12.7099,242.0848 12.7099,242.0848 L13.0219,242.2638 C13.0219,242.2638 13.1109,241.9508 13.3779,242.2188 C13.6449,242.4878 14.1339,243.1138 14.1339,243.1138 L14.5349,243.3378 L14.8909,243.4718 L15.3799,244.5458 L15.8699,244.5458 L16.4039,244.9928 L17.1599,245.4858 L17.7829,246.0228 L18.6279,246.5138 L20.0959,247.3198 L20.8969,247.4988 L21.7419,247.9018 L22.7209,248.5728 L24.1449,249.3338 L25.5689,250.5428 L26.1919,251.0348 L26.9929,251.4838 L27.5269,251.6618 L28.0159,251.8858 L28.4169,252.9598 L28.9059,253.4968 L30.0629,253.2738 L30.6409,253.4518 L31.3529,253.5858 L31.7529,253.8548 L32.1089,254.4368 L32.4649,254.9728 L32.9989,254.9278 L33.7999,255.3308 L34.2009,255.4198 L34.5569,255.9568 L35.0909,256.0018 L35.4469,255.7338 L36.1139,256.2258 C36.1139,256.2258 36.2029,256.6718 36.2029,256.8528 C36.2029,257.0308 35.9359,257.2998 35.9359,257.2998 L35.6249,258.0618 L36.8259,258.0618 L37.1819,258.0618 L37.1379,258.5978 L37.2709,259.0008 L37.4039,259.5828 L38.0269,260.0308 L38.0269,259.3608 L38.1599,258.6888 L38.5159,258.8668 L39.0499,259.2708 L39.5389,260.1648 L39.7169,260.3888 L39.4049,260.6128 C39.4049,260.6128 39.0939,260.5688 39.0049,260.7918 C38.9159,261.0158 39.2719,261.4178 39.2719,261.4178 L39.9389,261.5968 L40.6509,261.2388 L41.0959,261.1508 L41.8969,260.8368 C41.8969,260.8368 41.8079,260.7918 42.5199,260.8818 C43.2319,260.9718 42.9199,261.1068 43.3649,261.3738 C43.8099,261.6438 44.5219,262.6718 44.5219,262.6718 L45.0109,263.6118 C45.0109,263.6118 45.0109,263.9258 45.2779,264.1498 C45.5449,264.3728 45.6789,264.5518 45.7679,264.7318 C45.8569,264.9098 45.9459,264.9548 45.9459,265.2228 L45.9459,266.0738 L45.9909,266.9688 L46.4799,267.3718 L46.7019,267.9538 L46.6129,268.5808 L47.0129,268.7148 C47.0129,268.7148 47.1909,268.9398 47.3689,269.0728 C47.5469,269.2068 47.5469,269.6548 47.5469,269.6548 C47.5469,269.6548 47.2799,270.0588 47.6799,270.2368 C48.0799,270.4158 48.1249,270.8188 48.1249,270.8188 L48.4809,271.0878 L48.8369,271.5358 L48.8819,272.2068 L48.8369,272.9678 L48.7929,273.4158 C48.7929,273.4158 48.7039,273.5058 48.4819,273.5498 C48.2599,273.5948 48.0809,273.6848 48.0809,273.6848 L47.5919,274.3118 L47.5919,274.8028 L47.2809,274.9828 L46.7469,275.0718 L47.1469,275.6988 L47.3689,275.9228 C47.3689,275.9228 47.4139,276.1918 47.9469,276.1478 C48.4809,276.1028 48.1689,276.0588 48.5699,276.1928 C48.9699,276.3258 48.9259,276.2368 49.1929,276.4158 C49.4599,276.5948 49.8599,276.7298 49.8599,276.7298 C49.8599,276.7298 50.2159,276.6848 50.3939,276.8188 C50.5719,276.9528 50.7049,277.6248 50.7049,277.6248 L51.0609,277.8498 L51.4619,278.0728 L51.8179,278.2518 C51.8179,278.2518 51.8179,278.1618 52.2629,278.6548 L52.7079,279.1478 L53.4199,279.1928 C53.4199,279.1928 53.5529,279.0588 53.8199,278.9228 C54.0869,278.7888 54.2649,278.6548 54.2649,278.6548 L54.8819,280.4128 L55.0269,280.8528 L54.8819,281.5098 L55.0269,281.4008 L54.8449,281.6928 L54.5909,282.0218 L54.4099,282.3858 L54.1559,282.6788 L54.4469,282.9708 L54.8469,283.2278 L54.9919,283.5568 C54.9919,283.5568 54.9559,283.8848 54.9189,284.0308 C54.8829,284.1768 54.8099,284.2498 54.8099,284.2498 L54.3379,284.7978 C54.3379,284.7978 54.1559,284.7258 54.0469,285.0178 C53.9379,285.3098 53.9379,285.4918 53.9379,285.4918 L53.9019,285.9318 L53.5749,286.0408 L53.4299,286.2248 L53.3569,286.5888 L53.1389,287.0268 L53.2119,287.2098 L53.7209,287.4288 L53.9389,287.9418 L53.7939,288.4158 L53.3219,288.8188 L53.0309,289.2568 L52.1949,289.6218 L51.9769,289.9148 L51.9409,290.4628 L52.0139,291.1568 L51.6509,291.6688 L51.8689,291.9248 L52.4869,292.1818 L52.8139,291.9618 L52.9229,291.3038 L53.2139,291.0118 L53.5049,290.9018 L53.7229,291.2318 L53.4319,291.6698 L53.1049,292.1458 L53.1049,292.7308 L53.0689,293.5338 L52.7059,293.9738 L52.4519,294.5218 L52.4159,294.9958 L52.3069,295.5808 L52.3429,296.6418 L52.6699,297.5538 L53.1059,297.6268 L54.0509,297.3348 L55.0679,297.2978 L56.3389,296.4208 L59.2449,298.4318 L60.5529,298.9798 L63.0599,299.8198 C63.0599,299.8198 64.3319,300.2948 64.4769,300.3318 C64.6219,300.3678 65.7489,300.9168 66.1119,300.9898 C66.4749,301.0638 67.5989,301.4998 67.5989,301.4998 L68.1439,301.4268 C68.1439,301.4268 69.6329,301.3538 69.6329,301.0978 C69.6329,300.8418 70.3229,297.9178 70.3229,297.9178 L72.7209,299.0138 C72.7209,299.0138 73.1569,296.2738 73.3019,296.1268 C73.4479,295.9818 76.8989,293.4588 76.8989,293.4588 L75.6999,290.3518 L75.4459,289.5478 L75.0459,286.0028 L76.9709,285.0888 L81.6569,287.0268 L84.3089,284.7238 L83.9819,282.5308 L83.5459,280.5568 L79.0049,273.7958 C79.0049,273.7958 78.8599,271.7128 78.7869,271.5668 C78.7139,271.4198 78.3869,269.7758 78.3869,269.7758 L77.0789,267.9848 L77.9149,267.2898 L80.4939,267.5458 C80.4939,267.5458 81.5109,267.5828 81.7289,267.4728 C81.9469,267.3628 83.5089,266.5958 83.5089,266.5958 L85.0349,262.9048 L86.2699,259.6158 C86.2699,259.6158 87.7599,258.7758 88.1959,258.8128 C88.6319,258.8488 91.3569,260.0538 91.3569,260.0538 L93.1729,258.4838 L97.1689,260.0538 L101.8909,258.1168 C101.8909,258.1168 104.8699,256.9108 104.9059,256.6548 C104.9419,256.3998 105.9589,251.6858 105.9589,251.6858 L104.6509,249.2358 L108.0289,245.2158 L107.4839,238.8198 L113.0779,230.9988 C113.0779,230.9988 113.1509,228.3308 113.1509,227.8918 C113.1509,227.4528 112.6069,225.8088 113.0419,225.4438 C113.4779,225.0768 114.3149,222.8478 114.3149,222.8478 L116.0219,222.0068 L117.0749,218.8638 L122.9599,219.9968 L124.3769,219.8148 L125.4299,219.4118 C125.4299,219.4118 128.9539,212.1388 129.1349,211.8828 C129.3159,211.6268 132.1499,210.4938 132.1499,210.4938 C132.1499,210.4938 133.3849,203.8058 133.3139,203.4038 C133.2399,203.0018 133.0589,200.9188 133.0589,200.9188 L132.9139,199.8598 L132.7319,198.6158 L129.7169,194.2668 L126.1199,189.1878 L127.9729,186.4458 L128.0089,180.5988 L127.0279,175.7758 L124.5579,174.3498 C124.5579,174.3498 121.9429,175.1168 121.7609,175.0438 C121.5789,174.9708 119.6169,173.4718 119.2909,173.6548 C118.9639,173.8378 112.4969,176.5058 112.4969,176.5058 L110.0269,175.8108 L106.5759,166.9298 L104.6139,159.6208 L99.6729,156.9528 C99.6729,156.9528 98.1829,156.2578 98.1829,156.1118 C98.1829,155.9658 98.9459,153.1888 98.9459,153.1888 L93.3519,144.3798 L91.0639,132.7578 L92.0069,131.9168 L93.5329,133.0868 L96.1489,125.8138 C96.1489,125.8138 92.4809,122.1958 92.3349,121.7568 C92.1899,121.3188 91.7899,118.1388 91.7899,118.1388 L88.3019,114.0818 L89.6099,110.7928 L92.3349,110.4268 L96.0769,107.6858 L93.1339,102.1308 L93.8239,97.8178 C93.8239,97.8178 92.7339,93.3228 92.6979,93.1768 C92.6619,93.0308 94.5869,88.4258 94.5869,88.4258 L97.1659,86.9638 L95.7859,82.7608 L96.4039,79.3988 C96.4039,79.3988 98.7289,78.6318 98.6199,78.3028 C98.5109,77.9738 97.3129,75.9638 97.3129,75.9638 L97.9299,74.3918 C97.9299,74.3918 100.8729,71.9068 100.8729,71.7608 L100.8729,68.5448 L98.6569,61.6738 L96.1499,58.3118 L96.0409,52.6838 L93.8999,46.9858 L93.1369,44.6108 L90.1949,41.4678 L79.3689,34.0488 L78.2429,34.0488 L76.7899,35.1448 C76.7899,35.1448 76.0999,33.3178 75.8819,33.6098 C75.6639,33.9028 74.9009,34.3768 74.9009,34.3768 L74.5019,34.5228 L72.4299,33.3898 L72.2479,29.6258 L70.2139,25.8618 L70.9039,23.5958 L68.6889,21.3668 L68.8329,19.7948 L67.3799,18.2228 L67.3799,16.5048 L59.9329,10.5848 L55.7919,12.2658 L53.7579,14.8238 L50.7429,14.9338 L48.0909,15.1898 L46.6739,17.5288 L44.8569,16.9078 L43.8399,18.6258 L41.0789,19.8318 L39.4439,19.4658 L37.3739,16.7248 L36.7199,15.2268 L35.9939,13.9108 L35.5219,11.7908 L35.7039,8.7938 L36.1399,7.9168 L37.5569,7.1498 L34.5399,1.1558 L33.9219,0.6078 L33.3769,0.8268" id="Stroke-3" stroke="#E75F52" stroke-linecap="round" stroke-linejoin="round"></path>
            </g>
            <polygon id="Fill-5" fill="#FFFFFF" points="0.8159 214.392 1.1839 214.599 1.9209 215.564 2.3419 216.047 2.4999 216.392 2.1839 217.978 1.9209 218.392 1.1839 217.289 0.7629 216.461 0.4999 215.357"></polygon>
            <polygon id="Stroke-7" stroke="#E75F52" stroke-linecap="round" stroke-linejoin="round" points="0.8159 214.392 1.1839 214.599 1.9209 215.564 2.3419 216.047 2.4999 216.392 2.1839 217.978 1.9209 218.392 1.1839 217.289 0.7629 216.461 0.4999 215.357"></polygon>
        </g>
    </g>
</svg>