<?xml version="1.0" encoding="UTF-8"?>
<svg width="288px" height="301px" viewBox="0 0 288 301" version="1.1" xmlns="http://www.w3.org/2000/svg" xmlns:xlink="http://www.w3.org/1999/xlink">
    <!-- Generator: Sketch 64 (93537) - https://sketch.com -->
    <title>95</title>
    <desc>Created with Sketch.</desc>
    <defs>
        <polygon id="path-1" points="0 0.2843 218.438486 0.2843 218.438486 300.284004 0 300.284004"></polygon>
        <path d="M0.437,7.459 C0.437,11.048 3.347,13.958 6.937,13.958 L6.937,13.958 C10.527,13.958 13.437,11.048 13.437,7.459 L13.437,7.459 C13.437,3.867 10.527,0.958 6.937,0.958 L6.937,0.958 C3.347,0.958 0.437,3.867 0.437,7.459 L0.437,7.459 Z" id="path-3"></path>
    </defs>
    <g id="95" stroke="none" stroke-width="1" fill="none" fill-rule="evenodd">
        <g id="Group-48" transform="translate(35.000000, 0.000000)">
            <g id="Group-44" transform="translate(0.000000, 0.716000)">
                <path d="M82.8418,30.9026 C82.7198,30.7806 82.6978,30.8426 82.7268,30.9796 C82.8528,30.9936 82.9828,31.0096 83.1288,31.0466 C83.2318,31.0726 82.9168,30.9786 82.8418,30.9026" id="Fill-1" fill="#FFFFFF"></path>
                <path d="M127.0269,197.7244 C126.5899,197.2874 126.3899,196.9534 126.0219,196.5854 C125.6329,196.1964 125.3519,195.4744 125.0259,195.1494 C124.7109,194.8334 124.4909,194.6044 124.3559,194.6034 C124.2199,194.6034 124.1639,194.8294 124.1639,195.4364 C124.1639,196.4284 123.4269,195.9714 123.8769,196.8724 C124.2419,197.6024 124.2699,198.0034 124.4509,198.7294 C124.6249,199.4224 124.5239,199.9194 124.7859,200.2814 C124.8709,200.3964 124.9889,200.4964 125.1699,200.5874 C125.8629,200.9344 126.0299,201.1624 127.0269,201.1624 C127.2729,201.1624 127.1549,200.7274 126.9599,200.2814 C126.7509,199.8014 126.4549,199.3074 126.4519,199.3044 C125.8269,198.6794 125.8429,198.8334 125.4569,197.8684 C125.4289,197.8684 127.0059,198.4734 127.4579,198.5864 C128.2099,198.7744 127.1759,197.8734 127.0269,197.7244" id="Fill-3" fill="#FFFFFF"></path>
                <path d="M117.0215,240.9329 C116.7255,240.6369 116.5265,240.5349 116.3805,240.5399 C116.0585,240.5539 115.9555,241.0919 115.4415,241.2199 C115.8805,241.3299 117.0275,241.7949 117.0215,241.7949 C118.9125,241.0379 117.4095,241.3219 117.0215,240.9329" id="Fill-5" fill="#FFFFFF"></path>
                <path d="M123.9819,235.7727 L123.9819,235.7727 C123.9529,235.7697 123.9149,235.7727 123.8769,235.7827 C123.6289,235.8437 122.2609,235.8197 122.1629,236.2127 C122.1299,236.3447 121.5319,237.8877 121.4549,237.9267 C120.8739,238.2167 119.9179,239.2617 120.4489,239.7937 C121.3159,239.9667 121.4529,239.6417 122.0199,239.0757 C122.5239,238.5707 123.3069,238.2247 123.5989,237.6397 C123.8619,237.1137 124.4149,235.8087 123.9819,235.7727" id="Fill-7" fill="#FFFFFF"></path>
                <path d="M114.877,238.9319 C114.434,239.3749 114.59,241.4159 114.59,240.7889 C114.886,240.4189 115.325,238.8269 115.04,238.8269 C114.999,238.8269 114.95,238.8589 114.877,238.9319" id="Fill-9" fill="#FFFFFF"></path>
                <path d="M120.3057,234.0686 C119.8567,233.8436 119.4057,232.7416 119.1277,232.8136 C119.0887,232.8246 119.0547,232.8556 119.0227,232.9196 C118.9597,233.0456 118.1037,234.1836 118.1607,234.2126 C118.3907,234.3266 120.0477,235.0276 120.0187,235.0636 C120.1477,234.7416 120.6157,234.2236 120.3057,234.0686" id="Fill-11" fill="#FFFFFF"></path>
                <path d="M114.3027,234.4993 C114.3027,233.5873 113.7417,233.3793 113.4407,232.7753 C113.1647,232.2243 112.9717,231.8363 112.4167,231.8763 C112.3367,231.8813 112.2537,231.8993 112.1577,231.9243 C111.5307,232.0803 111.3067,232.6323 110.7317,232.7753 C110.2617,232.8933 109.5097,233.8543 109.2957,234.0683 C108.8687,234.4953 108.7287,234.9273 108.5867,235.4953 C108.4647,235.9843 107.7987,236.9283 107.5817,237.3613 C107.2257,238.0733 106.8637,238.3493 106.8637,239.2193 L106.8637,241.3633 C106.8637,242.1253 108.0077,242.0803 108.5867,242.2263 C109.3577,242.4183 109.1517,241.0423 109.1517,240.5023 C109.1517,239.6123 108.9887,239.1623 108.7307,238.6453 C108.6367,238.4583 108.7647,238.2403 108.8357,238.0323 C108.8087,237.9343 108.7947,237.8653 108.7977,237.8413 C108.8077,237.8493 108.8357,237.8703 108.8647,237.9273 C108.8577,237.9613 108.8477,237.9973 108.8357,238.0323 C108.9467,238.4373 109.2877,239.3543 109.5827,239.6503 C110.3047,240.3733 109.2487,240.6343 110.4447,240.9333 C111.1107,241.1003 111.0977,239.7053 111.5837,239.2193 C112.0567,238.7453 112.5577,238.6863 113.0197,238.0703 C113.5417,237.3743 113.3537,236.9753 114.0147,236.6443 C114.5397,236.3823 114.3027,235.0133 114.3027,234.4993" id="Fill-13" fill="#FFFFFF"></path>
                <path d="M115.5952,241.929 C115.4612,241.939 115.2872,242.015 115.0202,242.082 C114.6452,242.176 113.4732,243.158 114.3032,243.365 C115.0492,243.552 115.6542,243.154 116.1602,242.647 C115.9252,242.058 115.8182,241.912 115.5952,241.929" id="Fill-15" fill="#FFFFFF"></path>
                <path d="M121.4546,222.4739 C121.3486,222.0489 121.0346,221.8419 120.6596,221.8619 C120.3686,221.8759 120.0346,222.0269 119.7306,222.3299 C119.4006,222.6609 118.9936,222.9629 118.7356,223.4799 C118.4976,223.9549 118.1976,224.5699 117.7296,225.1929 C117.2606,225.8199 117.0486,226.2869 116.7346,226.9159 C116.4076,227.5699 116.0076,227.6419 115.7286,228.1999 C115.5126,228.6329 115.1636,229.0609 115.0206,229.6349 C114.8556,230.2959 114.4216,230.6779 114.5896,231.3489 C114.6436,231.5659 115.0796,233.4519 114.8766,233.3499 C114.2886,234.3309 114.7776,234.7209 115.1636,235.4949 C115.3496,235.8649 115.7286,237.1509 115.7286,236.0699 C115.7286,235.0809 115.8616,235.0889 116.3036,234.4989 C116.6086,234.0929 117.1136,233.4539 117.3086,233.0629 C117.5656,232.5489 117.8486,232.0929 118.3046,231.6369 C118.8436,231.0979 119.5876,230.7619 119.5876,229.9129 C119.5876,228.9129 119.8056,228.6209 120.0186,227.7689 C120.1646,227.1819 120.1626,226.5249 120.1626,225.7679 C120.1626,224.9879 120.1396,224.5069 120.5926,224.0539 C120.9146,223.7319 121.6586,223.2889 121.4546,222.4739" id="Fill-17" fill="#FFFFFF"></path>
                <path d="M119.1665,235.4954 C118.8555,235.4954 118.4555,235.4664 118.0845,235.4854 C117.7135,235.5054 117.3735,235.5744 117.1655,235.7824 C116.7785,236.1694 116.7005,236.9654 116.3035,237.3614 C116.0035,237.6614 115.1875,238.3484 115.2985,238.7884 C115.6035,240.0134 115.7555,239.0164 116.7345,239.5064 C117.1845,239.7314 118.5755,240.2804 118.4485,240.7894 C118.6995,239.5334 119.5875,240.5854 119.5875,239.3624 L119.5875,237.2184 C119.5875,236.5824 119.8735,235.4954 119.1665,235.4954" id="Fill-19" fill="#FFFFFF"></path>
                <path d="M162.7671,208.1702 C162.5861,207.4452 161.9151,207.0812 161.9151,206.1692 C161.9151,205.1402 161.3471,205.1882 161.1971,204.5892 C161.1071,204.2262 160.9901,203.2702 160.4891,203.0192 C160.1591,202.8542 159.0521,201.8492 159.0521,201.5922 C158.8051,201.5432 158.3671,201.2922 158.1631,201.3152 C158.0941,201.3222 158.0571,201.3642 158.0571,201.4492 C158.0571,202.0712 158.0911,202.9842 157.7701,203.3062 C157.3651,203.7112 157.0911,204.2212 156.7641,204.8772 C156.5551,205.2942 155.4811,205.7942 155.4811,206.1692 L155.4811,208.3142 C155.4811,208.9542 155.3561,209.7752 155.6251,210.3152 C155.9261,210.9182 156.1691,211.5862 156.6211,212.0382 C157.0101,212.4282 157.1491,212.8442 157.6261,213.3202 C158.0741,213.7692 158.3981,213.8962 159.3391,213.8962 L161.4851,213.8962 C161.9801,213.8962 163.1391,214.0982 163.4861,213.7522 C163.9701,213.2672 164.0601,213.2272 164.0601,212.1722 C164.0601,211.3272 164.0761,210.3792 163.9161,209.7402 C163.7001,208.8732 162.9101,208.7382 162.7671,208.1702" id="Fill-21" fill="#FFFFFF"></path>
                <path d="M157.0513,203.5935 C157.2873,203.1215 157.4043,202.5705 157.1953,201.7365 C157.1173,201.4265 156.9823,200.5945 156.6303,200.2805 C156.5453,200.2045 156.4463,200.1565 156.3333,200.1565 C155.4973,200.1565 155.3623,199.9265 155.0503,199.3045 C155.0133,199.2295 154.0543,197.8785 153.8163,197.9065 C153.7813,197.9105 153.7683,197.9445 153.7683,198.0115 C153.1913,198.1275 152.3313,198.2955 152.3313,198.8735 C152.3313,199.2065 152.3883,199.8275 152.5323,200.2805 C152.5933,200.4705 152.6663,200.6355 152.7623,200.7305 C153.1303,201.0985 153.5943,201.5625 154.0553,202.0235 C154.4463,202.4145 154.6523,202.9065 155.1943,203.4495 C155.4323,203.6875 156.7273,204.2435 157.0513,203.5935" id="Fill-23" fill="#FFFFFF"></path>
                <path d="M121.1675,236.7874 C121.2755,236.6804 121.3645,236.5564 121.4545,236.4334 C121.3135,236.6124 121.2625,236.6684 121.1675,236.7874" id="Fill-25" fill="#FFFFFF"></path>
                <path d="M178.4976,246.802 C178.4976,247.045 178.4016,247.272 178.3536,247.511 C178.4806,247.511 178.6526,245.896 178.7846,245.366 C178.8896,244.949 179.3786,244.296 179.5036,243.796 C179.6996,243.009 180.0676,242.553 180.0676,241.652 C180.0676,240.888 180.2116,240.288 180.2116,239.506 C180.2116,238.524 180.4796,238.028 179.5036,237.783 C179.3036,237.733 179.1446,237.713 179.0156,237.726 C178.6246,237.763 178.4956,238.08 178.3536,238.645 C178.1986,239.269 178.3536,240.143 178.3536,240.789 C178.3536,241.692 178.4846,242.045 178.7846,242.647 C179.0216,243.12 178.7846,244.417 178.7846,244.945 C178.7846,245.835 178.4976,245.96 178.4976,246.802" id="Fill-27" fill="#FFFFFF"></path>
                <path d="M146.4722,217.8977 C146.2262,216.9147 145.9842,216.3567 145.4662,215.3217 C145.1812,214.7497 144.7062,214.4187 144.1842,213.8957 C143.8282,213.5407 143.4582,213.1617 143.0442,212.7467 C142.6752,212.3767 142.0382,211.5707 141.6082,211.4637 C140.7772,211.2557 140.3482,211.1887 139.4632,210.7457 C139.4212,210.7247 137.9832,210.1247 137.6632,210.132621 C137.6182,210.132621 137.5992,210.1417 137.6062,210.1707 C137.7522,210.7547 137.8932,211.1737 137.8932,212.0387 C137.8932,212.9217 138.1702,213.0117 138.4682,213.6087 C138.7492,214.1717 138.4492,214.9967 138.7552,215.6097 C139.0492,216.1987 139.4382,216.4457 139.8942,216.9017 C140.0792,217.0867 141.4642,218.1057 141.4642,218.1847 C141.3692,218.4227 141.1772,218.6457 141.1772,218.9027 C141.1772,219.6447 141.0432,220.3367 141.0432,220.9037 L141.0432,223.1917 C141.0432,224.0587 140.7842,224.5907 140.1822,225.1927 C139.6892,225.6857 139.3202,226.2717 139.3202,227.0597 C139.3202,227.9967 139.1352,228.6807 138.4682,229.3477 C138.1072,229.7107 137.9212,230.0897 137.7492,230.7747 C137.6802,231.0557 137.0572,232.4197 137.8932,232.2107 C138.6242,232.0287 138.2622,232.5037 138.8992,232.3447 C139.5762,232.1747 140.9492,231.2317 141.3212,230.4877 C141.5832,229.9607 142.6532,228.9697 143.0442,228.7737 C143.5602,228.5157 143.7652,228.0497 144.3272,227.7687 C144.9482,227.4587 145.0942,226.5857 145.6102,226.1987 C146.0982,225.8327 146.0452,225.3327 146.4722,224.9057 C147.2102,224.1677 147.7552,223.2527 147.7552,221.7657 C147.7552,221.1187 147.9102,220.2447 147.7552,219.6207 C147.5412,218.7677 146.6272,218.5197 146.4722,217.8977" id="Fill-29" fill="#FFFFFF"></path>
                <path d="M138.6118,220.6165 L138.6118,218.4715 C138.6118,217.2955 138.2438,217.0425 137.1748,216.6145 C137.2668,216.7995 137.1748,218.2335 137.1748,218.9025 C137.1748,219.7385 137.1898,220.3005 136.8878,220.9035 C136.5958,221.4875 136.1288,222.1115 135.7488,222.6175 C135.4398,223.0295 135.5218,224.2205 135.3178,224.6285 C134.9398,225.3845 134.2328,225.5515 134.0348,226.3425 C133.8798,226.9665 134.0348,227.8405 134.0348,228.4865 C134.0348,229.2625 134.0208,229.8545 134.1778,230.4875 C134.4058,231.3965 134.9048,230.2845 135.0308,229.7795 C135.2328,228.9695 135.1518,228.3885 135.4618,227.7685 C135.7598,227.1705 136.0428,226.6175 136.3238,226.0545 C136.6608,225.3805 136.8878,225.1155 136.8878,224.1975 C136.8878,223.5105 137.7048,222.9995 138.1808,222.7615 C138.7208,222.4905 138.6118,221.1665 138.6118,220.6165" id="Fill-31" fill="#FFFFFF"></path>
                <path d="M135.1743,209.8841 C135.4943,209.6281 135.7703,209.1761 136.1803,209.1761 C136.4213,209.1761 138.0793,209.0561 138.0373,208.8881 C137.8723,208.2291 137.5063,207.9701 137.1753,207.3081 C136.8513,206.6601 136.4783,206.7591 136.0353,206.1691 C135.6483,205.6521 135.1363,205.6431 134.4663,205.3071 C134.3673,205.2581 132.8933,204.4821 132.8863,204.4551 C132.6993,203.7081 132.3553,203.6271 131.8903,203.1631 C131.6173,202.8901 131.2973,202.2301 130.8853,202.0231 C130.4593,201.8111 129.5483,200.8631 129.5443,200.9221 C129.5443,200.9311 129.5613,200.9641 129.6023,201.0181 C130.0173,201.5711 130.3203,201.9031 130.3203,202.7321 C130.3203,203.3791 130.1643,204.2531 130.3203,204.8771 C130.4623,205.4461 130.7223,205.8621 131.1723,206.3131 C131.3113,206.4511 132.1283,207.3681 132.4653,207.4521 C133.1213,207.6161 133.2553,207.9641 133.7473,208.4571 C134.1233,208.8331 134.7753,209.5561 135.1743,209.8841" id="Fill-33" fill="#FFFFFF"></path>
                <path d="M126.4712,231.4925 C126.3422,231.4835 126.1802,231.6045 126.0212,231.9245 C125.7712,232.4245 125.3542,232.6935 125.0262,233.3495 C124.8192,233.7635 124.0222,234.5425 123.7522,234.7865 C124.9882,235.2775 124.8712,234.5115 125.6002,233.7815 C126.0132,233.3685 126.4522,233.0625 126.7402,232.4885 C126.9182,232.1315 126.7572,231.5135 126.4712,231.4925" id="Fill-35" fill="#FFFFFF"></path>
                <path d="M136.4673,214.7473 C136.4673,216.2843 137.3153,215.3143 137.6063,215.8963 C138.1473,214.9943 138.1423,215.3903 137.8933,214.8913 C137.7293,214.5613 137.3613,213.4643 137.0313,213.4643 C136.1093,213.4643 136.4673,213.7513 136.4673,214.7473" id="Fill-37" fill="#FFFFFF"></path>
                <g id="Group-41">
                    <mask id="mask-2" fill="white">
                        <use xlink:href="#path-1"></use>
                    </mask>
                    <g id="Clip-40"></g>
                    <path d="M183.936,250.3733 C183.915,250.3443 183.898,250.3153 183.878,250.2873 C183.668,249.9753 183.584,249.6753 183.524,249.3493 C183.275,248.9133 183.281,248.1933 183.362,248.5163 C183.439,248.8263 183.477,249.0943 183.524,249.3493 C183.56,249.4113 183.602,249.4753 183.649,249.5203 C183.848,249.7203 183.989,249.9953 184.089,250.2873 C184.136,250.4233 184.169,250.5633 184.205,250.6983 C184.069,250.5393 183.958,250.4023 183.936,250.3733 M217.245,266.6873 C216.893,265.8073 216.469,264.2073 216.249,263.1063 C216.065,262.1843 215.962,261.1123 215.962,260.1103 C215.962,258.7313 215.42,257.5243 215.1,256.2423 C215.052,256.0523 215.004,255.8583 214.957,255.6683 C214.718,254.7133 214.248,253.8053 214.248,252.8053 C214.248,251.9503 214.112,251.1373 214.028,250.2873 C213.994,249.9433 213.96,249.5953 213.96,249.2333 C213.96,248.0923 214.248,247.0353 214.248,246.0843 C214.248,244.9533 214.09,243.6813 214.536,242.7903 C214.88,242.0993 214.915,241.1013 215.1,240.3583 C215.288,239.6063 215.441,238.1773 215.1,237.4963 C214.638,236.5703 214.348,235.8973 214.105,234.9203 C213.94,234.2603 213.838,233.5793 213.673,232.9193 C213.513,232.2783 213.825,230.9333 213.53,230.3443 C213.197,229.6773 212.248,228.8353 212.248,228.3433 C212.248,227.8143 212.045,226.0303 212.668,226.3423 C213.033,226.5233 214.248,228.0393 214.248,226.7723 C214.248,225.8613 214.025,225.6023 213.817,224.7713 C213.691,224.2643 213.522,223.3203 213.243,222.7613 C213.04,222.3533 212.768,221.6043 212.668,220.9033 C212.55,220.0753 212.728,218.9983 212.525,218.1853 C212.386,217.6283 212.077,217.0363 212.248,216.1843 C212.294,215.9453 212.343,215.7043 212.391,215.4663 C211.758,214.9913 211.535,214.5023 211.385,213.6083 C211.241,212.7393 211.259,211.9383 210.955,211.1763 C210.502,210.0443 210.561,210.1193 210.955,209.3193 C211.358,208.5003 210.102,207.9123 210.102,207.1653 C210.102,206.2893 210.156,205.3793 209.958,204.5893 C209.733,203.6863 209.815,202.6893 209.815,201.7363 C209.815,201.3703 209.888,200.7883 209.873,200.2813 C209.862,199.9413 209.813,199.6373 209.671,199.4483 C209.153,198.7553 209.601,197.2323 209.097,196.7283 C208.469,196.1013 207.467,194.9183 207.24,194.0093 C207.038,193.2013 206.378,192.2823 206.378,191.5783 C206.378,191.0763 206.727,189.3513 206.522,189.1453 C206.162,188.7863 205.091,188.8443 204.952,188.2843 C204.709,187.3143 204.33,187.5193 203.525,186.7143 C202.708,185.8973 202.28,185.1973 202.52,183.9953 C202.712,183.0293 202.807,181.8963 202.807,180.7013 C202.807,179.8063 202.7,179.3483 202.376,178.7003 C202.063,178.0733 201.801,177.3023 201.801,176.5563 C201.801,175.7053 201.851,175.0563 201.524,174.4013 C201.268,173.8893 201.237,173.2833 201.237,172.4003 C201.237,171.1823 203.094,171.8813 203.094,171.6923 L203.094,169.5383 C203.094,168.2443 202.905,168.0663 202.233,167.3933 C201.667,166.8283 201.872,166.6913 202.088,165.8233 C202.222,165.2883 202.268,164.7093 201.801,164.2433 C201.515,163.9563 200.895,163.4073 200.806,162.9603 C200.636,162.1133 200.558,161.6133 200.232,160.9593 C199.903,160.3013 199.513,159.4513 199.513,158.5273 C199.513,157.8163 199.523,156.9593 199.379,156.2393 C199.267,155.6763 199.749,154.7723 199.236,154.5163 C198.558,154.1773 198.374,153.6043 198.374,152.6583 C198.374,151.6453 197.963,151.7423 197.799,151.0883 C197.741,150.8533 197.715,150.5783 197.694,150.2843 C197.667,149.9033 197.656,149.4903 197.656,149.0783 C197.656,148.4313 197.812,147.5573 197.656,146.9333 C197.563,146.5623 197.214,145.9023 196.679,145.8703 C196.501,145.8593 196.303,145.9183 196.085,146.0813 C195.383,146.6083 195.224,146.9083 195.224,147.9383 C195.224,148.6073 196.017,150.1023 195.368,149.9393 C194.939,149.8323 194.424,149.8633 194.228,149.0783 C194.173,148.8573 194.165,147.3123 193.797,147.2203 C193.324,147.1023 192.421,146.0813 192.371,146.0813 C191.39,146.0813 191.243,146.3163 190.935,146.9333 C190.645,147.5133 189.365,147.4333 189.365,148.0823 C189.365,149.1873 188.94,148.7953 188.512,149.3653 C188.464,149.4303 188.204,149.8963 187.976,150.2843 C187.812,150.5633 187.658,150.8083 187.651,150.8013 C187.341,150.4913 187.145,150.3853 186.894,150.2843 L186.895,150.2843 C186.691,150.2023 186.451,150.1243 186.081,149.9393 C186,149.8993 185.882,149.8383 185.755,149.7673 C185.746,149.7623 185.746,149.7533 185.736,149.7483 C185.612,149.6773 185.477,149.5973 185.343,149.5083 C185.019,149.2923 184.713,149.0383 184.654,148.8003 C184.507,148.2113 183.802,147.8973 183.802,147.3643 C183.802,147.1663 183.525,145.7443 183.18,145.7073 C183.1,145.6993 183.026,145.7663 182.94,145.9373 C182.716,146.3853 182.653,146.9743 182.653,147.7943 C182.653,148.2453 181.313,148.1103 181.514,148.5133 C181.752,148.9903 181.798,149.5093 181.801,150.2843 L181.801,150.3703 C181.801,151.2223 182.222,151.4323 182.222,152.2273 L182.222,154.3723 C182.222,155.0683 182.212,155.7693 182.366,156.3833 C182.504,156.9383 183.083,157.3043 183.083,158.0973 C183.083,158.5833 183.287,159.8523 182.796,160.0983 C182.364,160.3143 181.516,160.0943 180.939,160.3853 C180.401,160.6543 180.032,161.1883 179.225,161.3903 C178.112,161.6683 178.364,161.6683 177.933,162.5293 C177.798,162.7983 177.697,164.3453 177.512,164.5303 C177.208,164.8343 176.506,165.3683 176.506,164.2433 C176.506,163.2283 176.551,163.1043 175.51,163.1043 C174.52,163.1043 174.792,163.6323 174.792,164.5303 C174.792,165.1523 174.94,166.1063 174.505,166.5413 C174.066,166.9803 172.813,166.9273 172.935,167.5373 C172.983,167.7753 172.97,168.0373 173.079,168.2553 C173.273,168.4483 173.327,168.3193 173.509,168.6853 C173.703,169.0723 174.075,169.6803 174.218,170.2563 C174.412,171.0283 174.543,171.3273 174.936,172.1133 C175.18,172.6023 175.334,173.3733 175.655,173.6933 C176.009,174.0483 176.506,174.7913 176.506,175.4073 C176.506,176.2363 176.65,176.6253 176.65,177.4083 C176.65,177.6393 176.788,179.4833 176.65,179.5523 C176.005,179.8753 174.68,179.1403 174.505,179.8393 C174.343,180.4893 175.011,182.0133 174.362,181.8503 C173.877,181.7293 173.939,181.8323 173.644,182.1283 C173.274,182.4983 172.634,183.0443 172.504,183.5643 C172.326,184.2783 172.283,185.0483 171.078,184.8473 C170.778,184.7973 168.338,183.9743 168.215,184.1383 C167.818,184.6683 167.371,186.4953 167.209,185.8523 C167.111,185.4543 166.624,185.1343 166.214,185.1343 C166.119,185.1343 166.02,185.1533 165.927,185.1343 C164.881,184.9253 164.903,184.5413 164.213,183.8513 C163.532,183.1703 164.057,182.8213 163.638,181.9843 C163.33,181.3663 163.064,181.4203 163.064,180.4143 C163.064,179.2733 162.535,179.1293 162.356,178.4133 C162.258,178.0233 162.444,176.8753 162.212,176.4123 C162.055,176.0993 161.494,174.6883 161.207,174.4013 C160.969,174.1643 160.457,173.2373 160.355,172.8313 C160.324,172.7063 159.733,171.2133 159.636,171.1183 C159.511,170.9923 158.1,170.3913 158.067,170.2563 C157.99,169.9473 157.413,168.7063 157.205,169.5383 C157.078,170.0443 156.343,170.9823 156.343,171.5483 L156.343,173.6933 C156.343,174.4523 156.514,175.1753 156.774,175.6943 C157.007,176.1623 157.061,176.7273 157.061,177.5513 C157.061,178.3503 157.023,178.9003 157.348,179.5523 C157.519,179.8943 158.654,181.1003 157.635,180.8453 C157.157,180.7253 156.374,180.5803 155.921,180.1273 C155.489,179.6933 155.334,178.8343 154.773,178.4133 C154.144,177.9413 154.074,177.4273 153.777,176.8333 C153.51,176.2983 153.346,175.6233 153.346,174.8323 L153.346,172.5443 C153.346,172.1253 153.508,170.6293 153.203,170.3993 C151.448,169.0823 153.49,169.6543 153.49,168.6853 C153.381,168.2493 152.341,168.4173 152.341,167.9673 C152.341,167.2933 153.105,166.4433 152.628,165.9663 C152.537,165.8753 151.202,164.9463 151.202,164.8173 C151.202,164.1093 151.355,163.1243 151.058,162.5293 C150.695,161.8013 150.197,161.7553 150.197,161.3903 C150.197,160.3293 149.827,159.7403 149.631,158.9583 C149.415,158.0953 148.729,158.3033 148.483,157.8093 C148.203,157.2483 148.803,156.1043 148.196,155.9523 C147.756,155.8423 147.115,155.9253 146.913,155.5213 C146.718,155.1323 146.641,154.4443 146.482,153.8073 C146.307,153.1113 145.801,152.2453 145.62,151.5193 C145.361,150.4803 145.814,150.7423 146.625,150.9443 C147.371,151.1313 147.749,151.2883 147.764,150.2843 C147.765,150.2633 147.764,150.2493 147.764,150.2273 C147.764,149.3083 147.883,148.9433 146.913,148.9433 C145.863,148.9433 145.763,148.8123 145.763,147.7943 C145.763,146.6963 145.665,146.6453 146.195,146.6453 C146.458,146.6453 148.339,146.7603 148.339,146.5123 C148.339,146.0123 148.147,144.6933 148.483,144.3573 C149.013,143.8273 149.488,143.5973 149.488,142.6443 C149.488,141.7223 149.201,141.1703 149.201,140.3553 C149.201,139.7083 149.044,138.8343 149.201,138.2113 C149.336,137.6693 150.906,138.1783 150.771,137.6363 C150.747,137.5393 150.347,136.6133 150.484,136.0663 C150.691,135.2383 151.242,135.5563 151.632,134.7733 C151.928,134.1823 151.735,133.1153 152.772,133.6343 C153.629,134.0633 155.347,135.8773 155.347,134.9173 C155.347,134.4773 155.166,134.0613 155.06,133.6343 C154.885,132.9363 155.056,132.4903 155.491,132.0553 C156.008,131.5373 155.921,130.8983 155.921,130.0543 C155.921,129.5063 155.228,128.4593 155.347,128.3403 C155.847,127.8403 156.586,127.8713 157.492,128.0523 C158.352,128.2253 159.135,128.3403 160.211,128.3403 C161.107,128.3403 161.764,128.3313 162.356,128.6273 C162.574,128.7363 164.049,129.9303 164.5,129.4793 C164.833,129.1463 165.08,128.5333 165.64,128.1963 C165.832,128.0803 167.785,127.5693 167.785,127.4783 L167.785,125.1903 L167.785,123.0453 C167.785,122.5973 168.493,120.9873 168.646,121.7523 C168.806,122.5533 169.041,123.0463 169.22,123.7633 C169.465,124.7443 169.739,124.4253 170.503,125.1903 C171.08,125.7663 171.214,126.0513 172.361,126.0513 C173.073,126.0513 173.485,125.2833 173.079,124.4723 C172.687,123.6873 172.361,123.7763 172.361,122.7583 L172.361,120.1833 C172.637,120.5513 172.809,121.0413 173.509,121.3223 C174.13,121.5703 174.975,122.2133 175.51,122.6143 C175.927,122.9273 177.174,122.2833 176.937,122.7583 C176.582,123.4683 176.842,123.6583 177.512,124.3283 C177.642,124.4583 178.923,126.3253 178.938,126.3293 C179.415,126.4493 180.46,126.0993 180.652,125.3333 C180.757,124.9133 180.83,123.9173 180.939,123.4763 C181.039,123.0783 181.064,122.6383 181.074,122.1933 C181.08,121.9043 181.074,121.6123 181.074,121.3223 L181.074,119.1773 C181.074,118.3223 180.787,118.0873 180.787,117.3203 C180.786,116.7383 180.633,115.7233 181.217,115.6063 C181.896,115.4703 181.975,115.6463 182.643,116.3143 C183.069,116.7403 183.936,117.5663 183.936,116.3143 C183.936,115.5223 183.787,115.0073 183.649,114.4573 C183.361,113.3063 183.549,113.6443 184.5,113.8823 C185.235,114.0663 186.111,114.0263 186.933,114.0263 C187.517,114.0263 188.857,114.2803 189.365,114.0263 C190.039,113.6893 190.657,113.7003 190.657,112.8873 C190.657,112.0403 191.535,111.6963 191.509,111.5943 C191.413,111.2063 190.801,110.2063 190.801,109.8803 C190.801,109.3523 190.565,108.0653 190.801,107.5923 C190.975,107.2433 191.676,106.0663 192.371,106.5873 C192.505,106.6883 194.074,107.8913 194.084,107.8793 C194.735,107.2283 194.372,106.4073 194.372,105.1613 C194.372,104.3143 194.225,103.6063 194.372,102.8723 C194.542,102.0213 194.628,101.7843 194.947,101.1493 C195.005,101.0313 195.052,100.7293 195.095,100.3923 C195.095,100.3883 195.096,100.3843 195.096,100.3803 C195.101,100.3463 195.105,100.3123 195.109,100.2773 C195.169,99.7693 195.243,99.1613 195.368,99.0043 C195.558,98.7663 195.751,98.5343 195.942,98.2963 C195.554,97.5193 195.275,97.7803 196.085,97.5783 C197.021,97.3443 196.915,96.7383 197.512,96.1423 C198.529,95.1243 196.661,95.7703 196.661,94.8583 C196.661,94.5193 196.874,92.9283 196.661,92.7143 C195.632,91.6863 196.085,92.2753 196.085,91.5653 C196.085,90.3143 195.241,90.8873 195.09,90.2823 C194.999,89.9183 194.803,88.9163 194.803,88.4253 C194.803,87.1623 194.931,87.2773 196.085,86.9883 C196.754,86.8213 197.123,86.4553 197.512,86.8453 C197.989,87.3223 198.472,88.7583 198.949,88.2813 C199.216,88.0133 199.303,87.6403 199.8,88.1373 C200.261,88.5983 200.93,88.9503 201.237,89.5643 C201.613,90.3173 202.041,89.9353 202.951,89.7073 C203.634,89.5373 203.805,88.9903 204.521,88.9893 C205.419,88.9893 206.091,89.1023 206.091,88.1373 C206.091,87.3763 205.813,86.6123 205.813,85.9833 C205.813,84.6953 204.892,85.1813 204.808,84.8443 C204.57,83.8903 204.882,83.8213 203.802,83.5513 C203.096,83.3743 202.847,83.1133 203.094,82.1253 C203.388,80.9503 203.067,81.1023 202.233,80.2683 C201.939,79.9743 199.833,79.9023 199.8,79.8363 C199.537,79.3093 199.907,77.8593 199.379,78.1233 C198.799,78.4133 198.063,78.7873 197.091,78.5443 C196.827,78.4783 194.947,78.0883 194.947,77.5483 C194.591,77.5483 192.725,77.1943 192.946,76.9743 C193.225,76.6933 193.618,75.5613 192.514,76.1123 C191.995,76.3733 191.646,76.5363 191.079,75.9693 C190.685,75.5753 189.652,75.6723 189.652,75.1163 C189.652,73.9563 189.639,74.2493 188.79,73.8243 C188.053,73.4553 187.901,73.3023 187.077,72.9723 C185.907,72.5033 185.695,72.9243 184.932,73.1153 C184.387,73.2513 183.411,73.2593 182.644,73.2593 L179.36,73.2593 C178.315,73.2593 177.255,73.2293 176.353,73.6803 C175.65,74.0323 174.922,74.1113 174.065,74.1113 C173.833,74.1113 171.99,73.9733 171.92,74.1113 C171.413,75.1283 171.707,74.5423 170.637,74.5423 C169.627,74.5423 169.445,75.5473 168.78,75.5473 C167.92,75.5473 167.227,75.8933 166.922,75.9693 C166.176,76.1553 165.63,75.9263 165.63,75.1163 C165.63,74.1913 165.657,73.6763 164.491,73.9673 C163.541,74.2053 163.869,75.0923 163.199,75.2603 C162.465,75.4433 161.367,75.5403 160.766,75.6913 C160.333,75.7993 159.434,76.0573 159.052,75.5473 C158.588,74.9283 158.177,75.1773 157.483,74.8293 C156.903,74.5393 156.094,73.6803 155.194,73.6803 C153.984,73.6803 152.634,73.6833 151.479,73.3933 C151.132,73.3063 150.411,72.2793 149.948,72.3113 C149.881,72.3163 149.819,72.3443 149.765,72.3973 C149.08,73.0843 149.211,73.3933 148.042,73.3933 L147.612,73.3933 L144.184,73.3933 C142.768,73.3933 140.688,73.1593 139.176,73.5373 C138.441,73.7213 137.756,74.1813 136.888,74.3983 C135.817,74.6663 134.959,74.7593 133.891,74.9733 C133.246,75.1023 132.183,75.1163 131.316,75.1163 C130.375,75.1163 129.829,74.4553 129.028,74.2553 C128.402,74.0983 127.672,73.4293 126.883,73.8243 C126.32,74.1053 126.168,74.8293 125.313,74.8293 C124.521,74.8293 123.754,74.2553 123.168,74.2553 C122.089,74.2553 122.5,73.6433 121.732,73.2593 C120.788,72.7873 121.311,73.1063 120.88,73.9673 C120.536,74.6563 120.283,74.8293 119.31,74.8293 L116.591,74.8293 C115.755,74.8293 114.86,74.7033 114.446,75.1163 C113.915,75.6483 113.406,75.6913 112.302,75.6913 C111.351,75.6913 111.168,75.5503 110.588,75.2603 C110.286,75.1093 109.414,74.7873 109.008,74.6863 C108.752,74.6223 107.222,74.1833 107.007,73.9673 C106.361,73.3223 105.932,73.9073 105.006,73.5373 C104.768,73.4413 104.527,73.3743 104.297,73.2593 C103.338,73.2593 103.212,73.0763 102.431,72.6853 C101.873,72.4063 101.128,72.4643 100.286,72.2543 C99.567,72.0743 99.155,71.7173 98.428,71.5363 C97.598,71.3283 96.719,71.1783 95.853,70.9613 C95.079,70.7683 94.645,70.2833 93.852,69.9653 C92.98,69.6173 91.99,69.6653 91.286,68.9603 C90.798,68.4723 90.139,68.3863 89.142,68.3863 C88.029,68.3863 87.098,68.5293 85.992,68.5293 C84.971,68.5293 84.473,68.5083 84.278,67.5343 C84.123,66.7623 83.703,66.0013 83.703,65.3893 C83.703,64.6723 83.564,63.7983 83.703,63.1013 C83.871,62.2643 83.949,61.8923 84.278,61.2343 C84.631,60.5273 84.708,60.0423 84.708,59.0893 L84.708,56.6573 C84.708,55.5653 85.26,55.8323 85.704,54.9433 C85.944,54.4633 85.992,53.9193 85.992,53.0863 C85.992,52.0983 85.72,51.5323 85.465,50.9133 C85.448,50.8723 85.434,50.8303 85.417,50.7883 C85.362,50.6503 85.278,50.4513 85.207,50.2813 C84.916,49.5933 84.565,48.7643 84.565,48.3563 C84.565,47.6473 83.847,47.0643 83.847,46.3553 L83.847,44.2113 L83.847,41.9223 C83.847,41.1823 83.827,40.4343 83.991,39.7783 C84.118,39.2673 84.692,38.2133 85.273,37.7773 C85.807,37.3763 86.422,37.2503 86.422,36.4843 C86.422,35.4263 86.125,35.6233 85.13,35.6233 C84.2,35.6233 84.121,34.4833 84.852,34.4833 C85.448,34.4833 86.856,33.7663 85.704,33.4783 C84.918,33.2813 84.61,32.2273 84.278,32.3393 C83.992,32.4343 83.702,32.5303 83.416,32.6263 C83.223,32.2403 82.799,31.3223 82.727,30.9793 C82.136,30.9123 81.792,30.9853 81.989,30.1943 C82.048,29.9593 82.411,28.5543 82.133,28.1843 C82.048,28.0703 80.697,27.2023 80.697,27.1873 C80.697,26.6153 80.912,25.5773 80.419,25.3313 C80.121,25.1813 77.568,24.6593 77.557,24.6123 C77.489,24.3423 78.184,24.0913 77.987,23.8943 C77.803,23.7093 77.413,23.2383 77.413,22.4683 C77.413,21.0333 77.427,21.7893 76.695,21.6063 C76.525,21.5633 75.128,20.8813 74.981,21.1753 C74.727,21.6833 74.617,22.1033 75.269,22.7553 C75.446,22.9333 76.23,24.3293 75.269,23.6073 C74.011,22.6643 74.61,23.5693 73.985,24.0383 C73.406,24.4733 73.018,24.8983 73.268,25.8953 C73.476,26.7313 74.053,26.7663 74.407,27.4753 C74.587,27.8373 74.697,28.6173 75.124,29.0453 C75.954,29.8743 75.263,29.5133 74.263,29.7633 C73.825,29.8733 72.805,30.5963 72.693,31.0463 C72.583,31.4843 72.7,32.4423 72.549,33.0473 C72.366,33.7813 72.47,34.1963 71.554,34.1963 C70.228,34.1963 70.916,32.8623 70.548,32.7693 C70.028,32.6403 68.954,32.7993 68.26,32.6263 C67.987,32.5583 66.269,32.3593 66.115,32.0513 C66.061,31.9423 65.557,30.3973 65.407,30.4723 C64.851,30.7503 65.023,32.0513 64.401,32.0513 C63.283,32.0513 62.507,31.6743 61.539,31.1903 C60.485,30.6633 59.979,30.4933 59.25,29.7633 C59.082,29.5943 57.897,29.1853 57.968,28.9013 C58.167,28.1023 58.103,27.8953 57.681,27.3313 C57.206,26.6983 56.488,26.2413 55.679,26.0393 C55.109,25.8963 54.02,25.9503 53.535,25.4643 C52.787,24.7163 53.119,24.2123 52.673,23.3203 C52.153,22.2793 52.389,21.0153 52.108,19.8923 C51.987,19.4053 51.247,18.2413 51.247,17.8813 C51.247,16.9623 52.296,17.6393 52.252,17.4603 C52.065,16.7143 52.257,16.2413 51.39,16.0243 C50.602,15.8273 50.107,15.4333 50.107,14.5983 C50.107,13.5643 50.419,12.8183 49.533,12.5973 C48.846,12.4253 48.03,11.9133 47.388,11.5913 C46.566,11.1803 46.499,11.2673 45.818,10.5863 C45.411,10.1793 45.659,8.8763 45.1,9.0163 C44.525,9.1603 44.137,9.5233 43.817,10.1653 C43.551,10.6963 43.301,11.1873 42.955,11.8783 C42.585,12.6183 41.915,13.5123 43.386,13.8793 C44.071,14.0513 44.538,14.3223 44.956,14.7413 C45.382,15.1683 46.07,16.1853 45.531,16.4553 C45.178,16.6313 44.69,16.7643 44.095,16.1683 C43.7,15.7733 42.524,15.0353 42.524,15.5933 C42.524,16.7023 43.07,16.6853 43.53,17.6043 C43.676,17.8963 44.162,19.1413 44.956,18.7433 C45.607,18.4173 45.802,18.0383 46.383,17.7483 C46.817,17.5303 47.978,17.2393 48.106,17.8813 C48.142,18.0593 48.533,20.0733 48.106,20.1793 C47.017,20.4523 46.133,20.6243 44.956,20.0363 C44.214,19.6653 43.679,19.0373 43.099,18.4563 C42.611,17.9683 42.319,17.2453 41.242,17.4603 C40.391,17.6303 39.949,17.7623 39.949,18.6003 C39.949,19.3243 40.008,20.0703 40.523,20.4573 C41.462,21.1623 41.539,21.9013 40.38,21.0313 C39.929,20.6933 39.004,20.2313 38.522,19.7483 C38.269,19.4953 38.291,18.0323 38.091,17.8813 C37.452,17.4023 35.997,17.9493 35.803,17.1733 C35.661,16.6033 35.216,15.7903 35.095,15.3063 C34.772,14.0163 34.942,15.5933 34.233,15.5933 C33.123,15.5933 32.519,15.7223 32.519,14.4543 C32.519,13.3383 31.968,13.3993 31.801,12.7303 C31.545,11.7063 30.379,11.8883 29.8,10.7293 C29.754,10.6383 28.374,8.0123 28.374,8.7283 C28.374,9.7653 27.627,9.7063 27.081,9.1593 C26.835,8.9143 26.361,8.2153 25.951,8.0113 C25.735,7.9023 23.941,7.0153 23.941,7.0153 C23.732,6.1813 22.97,5.1973 22.237,5.0143 C21.811,4.9073 20.426,4.9643 20.092,4.2963 C19.852,3.8153 19.795,3.1583 19.795,2.2953 C19.795,2.0593 19.907,0.2843 19.651,0.2843 C18.589,0.2843 18.576,0.4213 18.359,1.2903 C18.2,1.9263 18.34,2.7543 18.072,3.2903 C17.825,3.7843 17.533,4.1923 17.363,4.8703 C17.187,5.5763 17.173,6.5983 16.501,6.8713 C15.295,7.8373 15.82,7.5813 16.071,8.5853 C16.127,8.8113 16.802,10.1523 16.933,10.0213 C17.079,9.8753 17.363,9.9883 17.363,8.7283 C17.363,7.9453 17.851,7.3973 18.79,7.8673 C19.382,8.1633 19.649,8.2273 20.503,8.4413 C21.173,8.6093 21.888,8.9583 22.361,9.5903 C22.822,10.5133 23.097,11.1363 23.654,11.8783 C23.941,12.2623 24.506,12.7483 24.506,13.3053 C24.506,13.9473 24.085,14.7423 23.366,14.0233 C22.816,13.4723 22.072,13.1723 21.365,13.8793 C21.13,14.1143 20.616,14.9723 20.216,15.1723 C20.081,15.2403 18.805,16.1423 18.79,16.1683 C18.602,16.4823 17.161,17.5403 17.076,17.8813 C16.95,18.3883 16.933,19.3123 16.933,20.0363 C16.933,20.8233 16.938,21.7473 16.071,22.1803 C15.279,22.5773 13.975,22.3503 12.93,22.6113 C12.139,22.8093 11.625,23.1153 10.929,23.4633 C10.656,23.6003 8.865,24.0043 8.785,24.3253 C8.617,24.9963 8.36,25.5813 8.21,26.1833 C7.997,27.0373 8.046,27.0023 8.354,27.6193 C8.62,28.1503 9.15,28.4443 8.928,29.3323 C8.864,29.5923 8.639,30.9753 8.354,31.0463 C8.246,31.0733 6.408,31.2553 6.353,31.4773 C6.245,31.9093 6.197,32.7853 5.922,33.3343 C5.84,33.4983 5.607,35.2873 5.491,35.3453 C5.124,35.5293 4.352,35.8123 4.352,36.3413 C4.352,37.1683 4.269,37.6843 4.783,38.1983 C5.2,38.6153 5.348,38.9033 5.348,39.7783 C5.348,40.2733 5.145,41.4333 5.491,41.7793 C5.634,41.9223 6.757,42.9213 6.784,42.9283 C7.67,43.1493 7.71,42.9973 8.354,42.3533 C9.326,41.3813 9.015,42.7963 9.637,42.6413 C9.927,42.5683 10.768,41.7793 11.073,41.7793 C12.565,41.7793 11.459,42.2543 12.356,42.9283 C12.745,43.2203 13.466,43.4633 13.926,43.9233 C14.234,44.2313 15.117,44.6023 15.362,44.9293 C15.695,45.3733 16.073,45.6403 16.501,46.0683 C16.661,46.2273 17.739,48.0693 18.072,48.0693 C18.444,48.4423 18.655,48.7873 19.221,48.7873 C19.801,48.7873 20.972,49.2093 20.791,49.9363 C20.766,50.0383 20.72,50.1563 20.666,50.2813 C20.452,50.7793 20.103,51.4233 20.36,51.9373 C20.602,52.4213 21.161,53.1693 21.94,53.3643 C23.285,53.7003 22.299,53.8763 23.079,54.6563 C23.511,55.0883 24.225,55.2343 24.506,55.7953 C24.769,56.3233 24.673,58.0463 24.936,57.5193 C25.37,56.6523 25.525,56.9443 26.65,56.9443 C27.323,56.9443 28.23,56.9923 28.517,57.3753 C28.89,57.8733 28.892,58.9453 29.513,58.9453 C29.887,58.9453 31.581,59.1663 31.801,58.9453 C32.266,58.4813 32.548,57.8873 33.372,58.0933 C33.452,58.1143 35.238,58.5653 35.238,57.9503 C35.238,56.8503 35.248,56.7203 36.234,56.2273 C37.16,55.7633 36.503,56.4953 37.096,57.0883 C37.518,57.5103 37.804,57.9373 37.804,58.6583 C37.804,59.3013 37.999,60.3823 37.661,60.9473 C37.529,61.1663 37.351,61.6013 37.249,62.0383 C37.131,62.5343 37.115,63.0343 37.383,63.2353 C37.873,63.6023 38.532,64.2593 38.81,64.8143 C39.335,65.8673 39.889,65.0413 40.523,65.6763 C41.019,66.1723 41.466,67.0763 42.094,67.3903 C42.582,67.6353 43.531,67.3953 44.095,67.6773 C44.527,67.8943 45.2,68.0303 45.674,68.3863 C46.105,68.7093 46.981,69.5353 45.674,69.5353 C44.735,69.5353 43.951,69.7363 43.951,70.8173 C43.951,71.5913 44.262,72.3973 43.386,72.3973 C41.343,72.3973 43.203,72.4013 42.955,73.3933 C42.719,74.3383 41.963,74.2573 40.811,73.6803 C40.614,73.5823 39.353,72.6363 39.097,72.8283 C38.809,73.0443 37.757,73.9913 37.517,74.1113 C36.794,74.4733 36.877,74.0103 35.947,73.8243 C34.76,73.5863 34.638,73.2463 33.802,72.8283 C33.081,72.4673 32.243,72.5413 31.371,72.5413 L29.226,72.5413 C28.178,72.5413 28.159,72.9263 27.225,73.3933 C26.435,73.7883 26.522,73.4403 25.798,73.2593 C25.147,73.0963 24.417,72.6963 23.797,72.5413 C23.237,72.4013 22.525,72.5413 21.94,72.5413 C21.73,72.5413 21.455,72.4193 21.174,72.2733 C21.17,72.2753 21.167,72.2803 21.164,72.2823 C20.626,72.0023 20.067,71.6003 19.862,71.6223 C19.79,71.6293 19.761,71.6863 19.795,71.8233 C19.94,72.1133 20.138,72.5133 20.216,72.8283 C20.231,72.8863 20.243,72.9423 20.255,73.0003 C20.277,73.1103 20.289,73.2223 20.303,73.3353 C20.317,73.4553 20.324,73.5783 20.332,73.6993 C20.357,74.1143 20.36,74.5423 20.36,74.9733 C20.36,75.8023 20.216,76.1913 20.216,76.9743 C20.216,77.6953 20.565,78.2973 20.36,79.1193 C20.13,80.0403 20.693,80.1733 20.503,81.1203 C20.357,81.8513 19.739,82.2253 19.077,82.5563 C18.535,82.8273 17.937,83.5733 17.937,84.2693 C17.937,84.8913 17.963,85.1273 17.966,85.1793 C17.948,85.1403 17.848,84.8443 17.507,84.8443 C16.198,84.8443 16.249,85.2403 15.362,86.1273 C14.864,86.6253 14.932,87.1093 14.932,87.9943 C14.932,88.8393 14.707,89.6433 14.07,88.8463 C13.683,88.3623 12.506,88.7393 12.356,88.1373 C12.259,87.7503 12.194,86.6833 11.925,86.4143 C11.494,85.9823 11.236,84.7003 10.499,84.7003 C9.64,84.7003 8.362,84.5483 7.779,85.1313 C7.655,85.2563 7.447,85.3183 7.224,85.3613 C6.718,85.4593 6.131,85.4563 6.209,85.8493 C6.277,86.1863 6.374,86.4423 6.525,86.7593 C6.596,86.9103 6.685,87.0783 6.784,87.2763 C7.119,87.9473 7.349,88.4013 7.349,89.1333 C7.349,90.6433 5.911,89.4653 5.778,89.9953 C5.658,90.4763 5.42,90.9813 5.443,91.5843 C5.794,91.8333 5.776,93.0993 5.501,91.9963 C5.465,91.8523 5.449,91.7173 5.443,91.5843 C5.378,91.5383 5.295,91.5193 5.204,91.5653 C4.65,91.8423 5.097,93.1383 4.496,93.2893 C3.856,93.4483 2.817,93.2803 2.638,93.9973 C2.454,94.7363 2.117,94.9323 1.92,95.7203 C1.736,96.4563 1.257,96.6893 0.915,97.1473 C0.812,97.2843 -0.268,99.2693 0.062,99.4353 C0.242,99.6143 0.145,99.6923 0.494,99.8663 C0.657,99.9473 0.922,100.1753 1.104,100.3483 C1.475,100.7303 1.822,101.2403 2.063,101.7233 C2.32,102.2363 2.701,102.8653 2.915,103.7243 C3.094,104.4383 3.399,104.9253 3.921,105.4483 C4.303,105.8303 4.995,106.6263 5.491,106.8743 C6.042,107.1503 6.782,107.7443 7.349,108.3113 C7.87,108.8313 8.336,109.1443 8.928,109.7373 C9.533,110.3423 10.219,110.0323 10.786,110.5993 C11.182,110.9953 11.765,111.2743 12.069,111.8813 C12.486,112.7163 12.617,112.9033 13.361,113.4613 C14.012,113.9503 14.375,114.0263 15.506,114.0263 C16.37,114.0263 17.018,113.7393 17.794,113.7393 C18.287,113.7393 19.573,113.5173 19.939,113.8823 C20.344,114.2883 20.776,115.0963 21.509,115.4623 C22.198,115.8073 23.309,115.6253 23.654,116.3143 C23.701,116.4103 23.749,116.5063 23.797,116.6023 C24.075,117.1583 24.642,118.7853 24.793,118.1823 C24.874,117.8543 24.635,117.3273 24.936,117.1763 C25.792,116.7483 25.523,117.1823 26.373,117.6073 C26.963,117.9023 27.518,117.7503 28.374,117.7503 C29.181,117.7503 29.826,117.6073 30.662,117.6073 C31.537,117.6073 32.442,117.7393 32.807,118.4693 C32.982,118.8203 33.245,119.5683 33.094,120.3263 C32.949,121.0493 32.988,121.7433 32.807,122.4713 C32.595,123.3163 31.658,123.8363 31.658,124.6153 L31.658,126.9033 C31.658,128.0953 31.55,128.1513 31.945,128.0523 C32.308,127.9623 32.735,127.7663 32.95,128.6273 C33.061,129.0693 33.252,129.9933 33.094,130.6283 C32.952,131.1953 32.508,132.1513 32.663,132.7723 C32.781,133.2453 34.207,132.5883 34.089,133.0603 C33.889,133.8633 33.265,133.8003 33.094,134.4863 C32.885,135.3203 33.81,137.0623 32.95,137.0623 C32.85,137.1633 32.263,138.3543 31.945,138.3543 C31.85,138.3543 31.743,138.3113 31.658,138.3543 C31.076,138.6453 30.287,138.8913 29.657,139.2063 C28.891,139.5903 28.539,139.6373 27.512,139.6373 C26.139,139.6373 26.229,138.8493 26.229,139.9243 C26.229,140.5713 26.385,141.4453 26.229,142.0693 C26.126,142.4803 26.172,143.5623 25.798,143.9363 C25.377,144.3573 25.224,144.8983 25.224,145.6503 C25.224,146.4213 25.367,147.3793 25.367,147.9383 C25.367,148.7543 25.4,149.3763 25.224,150.0833 C25.207,150.1503 25.221,150.2163 25.233,150.2843 C25.312,150.7043 25.846,151.1353 25.655,151.5193 C25.585,151.6573 24.787,153.4143 25.511,153.2333 C26.005,153.1093 26.809,153.0893 27.512,153.0893 C28.367,153.0893 28.75,153.3413 28.938,154.0943 C29.072,154.6293 29.401,155.1223 29.8,155.5213 C30.177,155.8973 30.56,156.3123 30.806,156.8043 C31.172,157.5383 31.736,157.7433 32.232,158.2403 C32.438,158.4463 33.212,159.5233 33.515,159.5233 C33.987,159.5233 34.062,158.4133 34.52,158.5273 C35.436,158.7563 35.373,158.6973 35.373,159.8103 C35.373,161.8993 34.31,160.9383 34.233,161.2473 C34.163,161.3163 33.995,161.3383 33.946,161.5343 C33.822,162.0283 33.802,162.8313 33.802,163.5353 C33.802,163.8683 33.892,165.7643 33.659,165.8233 C32.157,166.1983 32.95,165.7053 32.95,167.1063 C32.95,167.7123 33.111,169.0543 32.088,168.5423 C30.929,167.9623 30.826,167.7403 31.371,168.8293 C31.722,169.5333 31.643,169.9543 32.232,170.5433 C32.671,170.9823 33.946,171.2663 33.946,171.6923 C33.946,173.4203 34.703,171.9703 35.66,172.6873 C36.602,173.3953 36.134,172.8033 36.378,171.8263 C36.649,170.7413 36.603,171.9703 37.661,171.9703 C38.352,171.9703 39.327,171.8023 39.949,172.1133 C40.636,172.4563 41.21,173.4673 42.237,173.2623 C42.579,173.1933 44.369,172.8833 44.238,173.4063 C43.978,174.4493 44.06,173.9923 43.243,174.4013 C42.53,174.7583 42.139,174.8853 41.806,175.5503 C41.535,176.0933 41.377,176.8413 40.954,177.2643 C40.725,177.4933 39.326,177.9273 39.24,178.2693 C39.056,179.0063 39.097,179.8783 39.097,180.7013 C39.097,181.3483 39.253,182.2223 39.097,182.8463 C38.928,183.5223 38.697,184.0053 38.522,184.7033 C38.449,184.9973 38.097,186.7133 38.666,186.5703 C39.239,186.4273 39.885,186.3033 40.093,187.1353 C40.197,187.5523 40.47,188.9483 40.811,189.2903 C41.094,189.5733 42.065,189.6533 42.237,189.9983 C42.452,190.4273 42.524,191.0533 42.524,191.8653 C42.524,192.7593 42.715,193.3873 41.95,193.5793 C41.636,193.6573 40.258,194.7393 40.954,195.4363 C40.853,195.6383 40.376,196.5813 40.667,196.8723 C40.879,197.0843 42.524,198.7883 42.524,199.0173 C42.524,199.6193 42.532,199.9803 42.438,200.2813 C42.346,200.5753 42.157,200.8103 41.806,201.1623 C40.595,202.3733 43.287,202.9753 42.668,203.5933 C41.946,204.3163 41.644,205.1453 42.524,206.0253 C43.108,206.6093 42.722,207.0933 42.955,208.0263 C43.105,208.6283 43.152,209.3623 43.53,209.7403 C43.99,210.2013 44.186,210.6793 44.382,211.4633 C44.672,212.6233 43.53,212.7973 43.53,213.3203 C43.601,213.3923 44.095,213.6373 44.095,213.8953 C44.095,214.6593 43.951,215.2573 43.951,216.0403 C43.951,217.1943 43.913,217.2843 44.525,217.8973 C44.909,218.2803 45.739,219.3333 45.531,219.3333 C43.488,219.3333 45.732,220.2703 45.244,220.7603 C44.04,221.9643 45.643,221.3123 46.239,221.9093 C46.73,222.3993 46.844,222.9353 47.388,223.4793 C47.867,223.9583 47.819,224.4353 47.819,225.3363 C47.819,226.2083 48.821,226.6043 48.815,226.6293 C48.542,227.7183 47.76,227.4553 47.388,228.1993 C47.265,228.4453 46.798,229.4503 47.101,230.0573 C47.376,230.6063 47.979,231.4013 48.24,231.9243 C48.474,232.3923 48.527,232.9563 48.527,233.7813 C48.527,234.3433 48.709,235.3483 48.384,235.7823 C47.913,236.4103 47.475,236.9783 46.957,237.4963 C46.327,238.1263 45.567,238.3053 45.818,238.9323 C46.151,239.7673 46.421,239.7913 46.67,240.7893 C46.787,241.2563 46.813,242.1063 46.813,242.7903 C46.813,243.7103 45.729,244.1143 46.813,244.6573 C47.573,245.0373 47.679,245.5223 48.384,246.2273 C48.853,246.6973 49.506,247.6273 50.107,248.2283 C50.699,248.8203 51.534,248.9963 51.534,247.9413 C51.534,246.8903 51.251,246.4553 50.394,245.9403 C49.807,245.5873 49.102,245.1983 49.102,244.5143 C49.102,244.3003 49.181,243.6093 49.198,243.0393 C49.121,242.8583 49.104,242.5683 49.121,242.2543 C49.115,242.2443 49.109,242.2323 49.102,242.2263 C48.469,241.5923 47.819,240.9643 47.819,239.9283 C47.819,239.2803 47.663,238.4073 47.819,237.7833 C47.907,237.4313 48.815,236.3483 48.815,236.7873 C48.815,237.4843 48.665,238.4883 48.958,239.0753 C49.192,239.5433 49.246,240.1083 49.246,240.9333 C49.246,241.1923 49.148,241.7543 49.121,242.2543 C49.193,242.3703 49.208,242.6783 49.198,243.0393 C49.24,243.1393 49.299,243.2033 49.389,243.2213 C49.814,243.3063 51.856,244.9933 52.108,244.6573 C52.525,244.1013 52.694,243.6103 52.96,243.0773 C53.243,242.5123 53.678,241.7643 53.678,241.0763 C53.678,240.5293 54.023,239.1983 54.119,238.8653 C54.114,238.8883 54.12,238.8913 54.109,238.9323 C53.884,239.8333 54.046,240.7543 53.822,241.6513 C53.711,242.0943 53.409,243.5253 53.822,243.9393 C54.357,244.4753 54.54,245.0413 54.54,245.9403 L54.54,248.0853 C54.54,248.9623 54.253,249.4483 54.253,250.2293 L54.253,250.2873 C54.253,250.4773 54.255,250.6663 54.272,250.8423 C55.198,251.1203 56.131,251.3753 57.068,251.6273 C57.132,251.5963 57.188,251.5593 57.249,251.5223 C58.222,250.9383 58.486,251.0493 57.738,250.2873 C57.675,250.2233 57.614,250.1633 57.537,250.0863 C56.923,249.4723 57.297,249.3533 58.111,248.9463 C59.028,248.4883 59.002,248.0103 58.398,246.8023 C57.952,245.9083 57.594,244.8853 57.393,244.0833 C57.246,243.4943 57.084,242.4573 57.249,241.7953 C57.499,240.7973 57.391,240.3503 57.681,241.5083 C57.91,242.4283 57.973,242.5083 58.686,243.2213 C59.012,243.5473 59.969,244.0563 59.969,244.6573 C59.969,245.8463 59.852,245.8463 60.112,244.8013 C60.304,244.0343 60.647,243.6673 60.831,242.9343 C61,242.2533 61.118,241.8083 61.118,240.9333 C61.118,240.3263 61.377,239.0203 61.118,238.5013 C60.721,237.7073 60.454,237.0403 60.112,236.3563 C59.858,235.8493 59.428,235.3763 58.973,234.9203 C58.582,234.5293 58.111,233.7523 58.111,232.9193 C58.111,231.5063 58.171,231.3143 58.83,232.6323 C59.053,233.0803 59.549,233.9353 59.969,234.3553 C60.205,234.5923 61.118,236.2723 61.118,235.0633 C61.118,234.7823 61.44,233.0093 61.539,233.2063 C61.816,233.7623 61.97,234.1653 61.97,235.0633 L61.97,237.2183 L61.97,239.3623 C61.97,240.2013 61.712,240.6703 61.539,241.3633 C61.342,242.1503 60.974,243.0843 60.974,243.9393 L60.974,246.2273 C60.974,246.5733 61.812,248.8173 62.4,248.2283 C62.754,247.8753 63.555,247.4413 64.258,247.0893 C64.915,246.7613 65.488,246.7123 66.115,246.0843 C66.353,245.8463 67.554,244.7093 66.977,243.9393 C66.596,243.4313 66.403,243.1423 66.403,242.2263 C66.403,241.5453 66.247,240.5263 66.546,239.9283 C66.943,239.1333 67.595,239.4533 68.116,238.9323 C68.436,238.6123 68.929,237.1213 68.547,236.3563 C68.101,235.4633 67.755,235.0513 67.408,234.3553 C67.363,234.2663 66.39,232.3773 67.408,232.6323 C68.634,232.9383 68.547,232.6483 68.547,231.4923 C68.547,231.1743 68.803,229.4283 68.834,229.4913 C69.305,230.4343 68.691,230.8113 68.691,231.7803 C68.691,232.5953 68.828,233.0373 68.978,233.6383 C69.232,234.6553 69.234,234.2423 70.261,234.4993 C70.811,234.6373 70.851,235.3203 70.405,236.2133 C70.232,236.5583 69.974,237.3323 69.974,237.9273 L69.974,240.2153 L69.974,242.3693 L69.974,244.5143 C69.974,245.1603 69.818,246.0343 69.974,246.6583 C70.171,247.4463 70.404,248.2643 71.41,248.5163 C72.488,248.7853 72.783,248.8773 72.549,247.9413 C72.384,247.2803 72.406,246.5403 72.406,245.7973 C72.406,245.0633 72.592,243.9823 72.119,243.5093 C71.687,243.0763 70.387,241.9343 70.979,242.0823 C70.983,242.0823 71.925,242.1153 72.262,242.7903 C72.528,243.3223 73.558,243.9533 73.698,244.5143 C73.805,244.9423 72.841,245.9443 73.411,246.5153 C73.962,247.0653 74.534,246.9453 75.412,246.9453 C75.951,246.9453 77.27,247.0873 77.413,246.5153 C77.494,246.1893 77.748,244.9923 77.413,244.6573 C77.02,244.2653 75.978,243.7873 75.412,243.2213 C74.792,242.6023 73.623,240.3973 74.407,240.7893 C75.132,241.1523 75.271,241.7243 75.986,242.0823 C76.31,242.2443 77.227,243.2213 77.7,243.2213 C78.493,243.2213 79.869,243.1363 79.27,241.9383 C79.013,241.4233 78.145,239.9513 78.552,240.3583 C78.863,240.6693 79.247,240.9093 79.558,241.2203 C80.038,241.7003 80.418,241.8033 80.984,242.3693 C81.33,242.7153 82.206,243.1403 82.842,242.5033 C83.473,241.8713 83.428,241.4303 84.134,241.0763 C84.415,240.9353 85.992,240.7223 85.992,240.2153 L85.992,238.0703 C85.992,237.2023 85.848,236.7603 85.848,235.9263 C85.848,234.5863 84.99,235.3303 84.852,234.6433 C84.763,234.1943 84.864,233.1113 84.708,232.4883 C84.571,231.9383 83.619,231.2903 84.134,230.7743 C84.334,230.5743 85.561,230.2293 85.561,229.6363 L85.561,227.4813 C85.561,226.5063 85.944,225.7233 86.279,227.0603 C86.403,227.5583 87.274,228.1293 87.274,228.6303 L87.274,230.7743 C87.274,231.7963 87.507,231.8053 87.849,232.4883 C88.143,233.0773 87.946,233.7363 88.136,234.4993 C88.204,234.7693 88.354,236.0003 88.567,236.2133 C88.957,236.6033 88.946,237.2183 89.85,237.2183 C90.927,237.2183 90.855,237.1303 90.855,236.0693 C90.855,235.3363 90.281,234.5993 90.281,234.3553 C90.281,234.0613 90.109,232.1873 90.711,232.4883 C91.326,232.7963 91.223,233.0993 91.564,233.7813 C91.814,234.2823 91.983,234.6213 92.425,235.0633 C92.596,235.2343 94.139,236.0553 94.139,235.2073 C94.139,234.5123 94.005,233.7713 94.426,233.3503 C94.691,233.0853 95.96,232.2933 95.719,232.7753 C95.321,233.5723 95.362,233.9163 95.144,234.7863 C94.909,235.7283 95.259,235.9693 94.283,236.2133 C93.854,236.3203 92.712,236.6153 92.712,237.3613 C92.712,237.8793 92.487,239.0563 92.712,239.5063 C92.843,239.7673 93.193,240.8143 93.431,240.9333 C93.78,241.1073 94.973,241.0493 95.288,241.3633 C95.726,241.8023 95.768,242.2933 96.14,242.7903 C96.598,243.4013 97.16,243.3793 97.576,243.7963 C98.171,244.3913 98.553,244.0833 99.434,244.0833 C100.097,244.0833 100.985,244.2363 101.579,243.9393 C102.216,243.6203 102.374,243.2783 102.861,242.7903 C103.228,242.4233 103.923,241.6833 104.154,241.2203 C104.413,240.7013 104.676,240.1083 104.862,239.3623 C105.026,238.7083 104.855,237.9503 105.149,237.3613 C105.427,236.8063 106.049,236.0603 106.155,235.6393 C106.295,235.0753 106.296,234.3683 106.442,233.6383 C106.599,232.8533 106.839,232.3793 107.294,231.9243 C107.652,231.5653 108.526,230.3213 108.299,230.7743 C108.027,231.3193 107.438,231.5513 107.438,232.2113 C107.438,232.8803 107.351,233.6343 107.582,234.2123 C107.677,234.4503 107.773,234.6823 107.869,234.9203 C107.891,234.8983 108.833,233.5663 108.299,232.7753 C107.826,232.0743 109.839,232.0963 109.726,231.4923 C109.583,230.7303 111.029,230.2463 111.583,229.9133 C112.241,229.5183 112.587,229.2423 113.154,228.4863 C113.525,227.9903 114.333,227.2863 114.733,226.4853 C114.969,226.0143 115.259,225.1383 115.585,224.4843 C115.826,224.0043 116.469,222.6793 116.878,222.4743 C117.429,222.1983 117.766,221.8823 118.305,221.4773 C119.119,220.8673 119.731,220.3273 119.731,219.0463 C119.731,218.1563 119.775,217.5763 120.306,217.0453 C120.727,216.6243 121.481,216.0523 121.598,215.4663 C121.715,214.8823 121.876,214.2143 121.876,213.3203 L121.876,210.6023 C121.876,209.8863 121.37,207.9513 121.876,208.4573 C122.119,208.7003 122.296,209.0113 122.45,209.3193 C122.876,210.1723 123.371,210.8353 123.599,211.7503 C123.794,212.5323 123.743,213.4553 123.743,214.3263 C123.743,215.0143 123.908,215.9533 123.743,216.6143 C123.546,217.3993 123.379,217.9143 123.168,218.7593 C123.033,219.3003 122.594,220.1693 122.594,220.6163 C122.594,221.3123 122.603,222.0043 122.45,222.6173 C122.292,223.2503 122.084,223.8543 121.598,224.3413 C120.979,224.9603 120.736,225.0853 120.736,226.0553 C120.736,226.5593 120.933,228.0033 120.593,228.3433 C119.968,228.9683 119.875,229.3453 119.875,230.3443 C119.875,230.9903 119.719,231.8643 119.875,232.4883 C120.068,233.2623 120.368,233.4743 120.736,234.2123 C120.917,234.5723 121.499,235.4323 121.732,234.4993 C121.985,233.4883 122.699,234.1493 123.599,233.9253 C124.619,233.6693 124.335,233.5273 124.595,232.4883 C124.708,232.0363 125.048,231.3383 125.6,231.0613 C126.395,230.6643 127.038,231.2003 127.314,231.0613 C128.014,230.7113 128.128,230.3623 128.31,229.6363 C128.54,228.7153 128.743,228.4823 129.171,227.6253 C129.462,227.0423 129.706,226.9353 129.889,226.1983 C130.058,225.5233 130.598,224.6873 130.598,223.7673 L130.598,221.4773 C130.598,220.8313 130.442,219.9573 130.598,219.3333 C130.84,218.3613 130.931,217.1483 131.172,216.1843 C131.347,215.4833 131.747,215.3313 131.747,214.4703 C131.747,213.4643 131.998,212.0343 131.747,211.0333 C131.496,210.0263 131.044,210.3313 130.32,209.6063 C129.83,209.1143 129.524,208.3793 128.884,207.7393 C128.114,206.9683 127.419,206.5903 127.17,205.5943 C127.098,205.3033 127.104,203.4623 127.027,203.3063 C126.493,203.2173 125.162,203.1473 124.882,202.5883 C124.569,201.9613 124.298,201.4303 123.877,200.5873 C123.841,200.5153 123.782,200.3863 123.733,200.2813 C123.53,199.8483 123.323,199.3473 123.168,198.7293 C123.065,198.3173 123.117,197.1083 122.737,196.7283 C122.263,196.2543 122.179,195.7553 121.876,195.1493 C121.533,194.4633 120.685,194.4403 121.455,194.4403 C122.17,194.4403 123.456,194.7263 123.456,193.8663 C123.456,192.8593 123.54,192.4673 122.737,191.8653 C122.035,191.3383 121.702,190.5723 120.88,190.5723 C118.805,190.5723 120.543,190.0073 119.587,189.2903 C118.311,188.3323 119.166,188.8443 119.166,187.8533 C119.166,187.2003 119.01,186.4023 118.735,185.8523 C118.445,185.2713 118.2,184.7913 117.873,184.1383 C117.797,183.9843 116.842,182.9903 116.878,182.8463 C117.081,182.0353 118.007,182.1943 118.735,182.5593 C119.471,182.9273 120.252,183.3353 121.167,183.5643 C122.02,183.7773 122.147,183.5863 121.732,184.4163 C121.148,185.5843 121.616,185.1303 122.019,186.1403 C122.486,187.3083 123.032,187.8143 123.599,188.5713 C124.041,189.1613 124.735,189.6993 124.882,190.2853 C125.045,190.9363 125.601,191.3043 126.021,191.8653 C126.552,192.5733 126.734,193.4273 127.17,194.0093 C127.475,194.4153 128.132,195.0803 128.454,195.7233 C128.817,196.4503 129.028,196.9043 129.028,197.8683 C129.028,198.9543 129.594,199.1423 130.32,199.8693 C130.479,200.0283 130.654,200.1613 130.828,200.2813 C131.16,200.5083 131.51,200.6843 131.89,200.8743 C132.498,201.1783 133.073,201.6243 133.604,202.0233 C134.023,202.3373 135.02,202.6943 135.605,203.1633 C136.384,203.7863 136.889,204.1593 137.606,204.8763 C138.04,205.3103 138.893,206.0293 139.32,206.4563 C139.707,206.8443 139.951,207.0773 140.469,207.5953 C140.959,208.0863 141.484,208.4763 142.04,209.0313 C142.793,209.7863 143.239,209.1753 144.184,209.1753 C145.342,209.1753 145.055,208.9933 145.466,208.1703 C145.785,207.5343 146.148,206.8873 147.046,206.8873 C147.737,206.8873 148.517,206.8653 149.047,206.6003 C149.715,206.2663 150.202,205.5893 150.905,205.3073 C151.738,204.9743 152.1,204.2623 151.623,203.3063 C151.293,202.6473 151.478,201.8783 151.192,201.3053 C151.002,200.9253 150.694,200.5813 150.369,200.2813 C149.682,199.6473 148.922,199.2233 149.047,199.1613 C148.953,199.0183 148.607,198.8073 148.76,198.7293 C149.153,198.5333 149.604,198.4423 150.043,198.4423 C150.5,198.4423 151.823,198.2183 151.911,197.8683 C152.02,197.4283 152.197,196.5833 152.762,196.4413 C153.331,196.2993 154.141,196.2983 154.907,196.2983 C155.574,196.2983 156.572,196.3243 156.056,195.2923 C155.974,195.1293 155.681,194.7383 155.405,194.4503 C154.931,194.3643 154.623,194.2993 154.189,193.8663 C153.543,193.2203 154.798,194.0273 155.05,194.1533 C155.15,194.2033 155.277,194.3173 155.405,194.4503 C155.59,194.4833 155.798,194.5103 156.056,194.5743 C156.777,194.7553 157.164,195.0233 157.338,195.7233 C157.476,196.2713 158.478,196.7883 158.478,195.7233 C158.478,194.6433 158.104,194.8233 157.77,194.1533 C157.485,193.5843 157.75,191.8363 158.201,192.2863 C158.201,192.4423 158.111,193.2023 158.201,193.2913 C158.897,193.9883 159.018,194.2183 159.339,194.8623 C159.593,195.3693 159.723,195.8213 159.915,196.5853 C160.149,197.5243 160.604,197.6433 161.341,198.0123 C161.968,198.3253 162.082,198.7533 162.633,199.3043 C162.856,199.5263 163.158,199.9573 163.504,200.2813 C163.637,200.4043 163.769,200.5133 163.916,200.5873 C164.239,200.7483 164.992,201.1773 165.2,201.5923 C165.399,201.9923 165.604,202.7063 165.917,203.0193 C166.332,203.4343 166.622,203.7323 167.057,204.1683 C167.518,204.6293 167.672,204.9173 168.206,205.4513 C168.599,205.8453 168.825,206.3673 169.345,206.8873 C169.548,207.0903 169.801,207.3053 170.035,207.5383 C170.275,207.7773 170.498,208.0343 170.637,208.3133 C170.838,208.7163 170.969,209.3533 171.356,209.7403 C171.888,210.2733 172.351,211.0623 172.351,211.8943 C172.622,212.2543 173.069,212.4343 173.069,213.0333 C173.069,214.0073 173.119,214.4153 173.5,215.1783 C173.789,215.7563 173.998,216.4813 174.352,217.1883 C174.683,217.8513 174.639,218.5293 174.639,219.3333 C174.639,220.3003 174.562,220.8263 175.214,221.4773 C175.482,221.7463 176.27,223.3803 176.497,222.4743 C176.801,221.2563 176.784,221.6253 176.784,222.4743 C176.784,223.2663 176.934,223.7913 177.072,224.3413 C177.212,224.9043 177.293,225.4683 177.646,226.0553 C177.792,226.3003 179.073,226.9913 179.073,227.2033 C179.073,227.9323 178.929,228.3813 178.929,229.2043 C178.929,230.0213 178.912,230.5963 179.216,231.2053 C179.746,232.2663 180.136,232.8593 179.073,233.9253 C179.409,234.2613 179.548,234.4353 179.79,234.9203 C180.038,235.4153 180.463,236.4513 180.93,237.0743 C181.401,237.7023 181.791,238.1683 181.791,239.0753 L181.791,241.9383 C181.791,242.8753 181.27,243.2943 181.074,244.0833 C180.943,244.6073 180.738,245.4633 180.498,245.9403 C180.21,246.5193 180.255,247.0103 179.934,247.6543 C179.672,248.1773 179.216,249.3523 179.216,249.9523 C179.216,250.0133 179.242,250.1423 179.273,250.2873 C179.411,250.9183 179.793,252.0713 180.068,251.5223 C180.49,250.6793 181.107,250.8813 180.642,251.8103 C180.348,252.3973 180.177,252.7493 179.79,253.5233 C179.513,254.0773 180.344,255.6573 179.79,255.3813 C179.521,255.2453 178.715,255.4543 178.929,255.6683 C179.322,256.0603 180.852,256.2803 180.355,256.5293 C180.212,256.6013 178.881,256.7203 178.641,256.9603 C178.023,257.5793 177.989,257.3123 178.21,257.5343 C178.456,257.7803 179.274,258.3593 179.503,258.8173 C179.765,259.3433 180.068,259.6693 180.498,260.2443 C180.508,260.2573 182.212,261.5533 182.212,260.9623 C182.212,259.9763 181.752,259.8123 181.648,259.3923 C181.643,259.3723 181.634,259.3533 181.628,259.3353 C181.491,259.2303 181.362,259.1063 181.217,258.9613 C180.713,258.4573 181.379,258.4513 181.628,259.3353 C181.927,259.5593 182.269,259.6683 182.931,259.5353 C184.052,259.3113 183.905,259.1493 184.357,258.2433 C184.725,257.5083 185.076,257.0213 185.076,255.9553 C185.076,255.0963 185.282,253.9183 185.076,253.0923 C184.878,252.3033 184.482,251.8773 184.357,251.3783 C184.313,251.2003 184.269,250.9543 184.205,250.6983 C184.536,251.0903 185.067,251.6743 185.219,251.5223 C186.115,250.6263 185.303,251.8333 185.65,252.5273 C185.736,252.7003 186.595,253.7273 186.368,253.9543 C185.86,254.4623 185.793,254.8593 185.793,255.9553 C185.793,256.6023 185.95,257.4763 185.793,258.1003 C185.544,259.0963 185.413,259.1983 184.789,259.8233 C184.61,260.0013 183.679,260.6533 183.792,261.1053 C183.927,261.6443 184.082,262.2693 184.357,262.8193 C184.86,263.8263 185.291,263.6093 186.081,264.3993 C186.206,264.7123 186.571,265.8943 186.79,266.1133 C187.37,266.6943 187.556,267.0613 187.938,267.8273 C188.244,268.4373 188.225,269.2503 188.225,270.1253 L188.225,272.5573 C188.225,273.2363 188.06,274.1853 188.225,274.8453 C188.366,275.4073 188.991,276.4723 189.508,276.9893 L191.509,278.9903 C192.154,279.6363 192.3,280.2123 193.08,280.9913 C193.62,281.5313 194.056,281.9403 194.372,282.5713 C194.691,283.2103 194.903,283.6783 195.09,284.4293 C195.31,285.3083 195.711,285.6503 195.942,286.5733 C196.146,287.3913 196.378,287.3853 196.948,288.1433 C197.439,288.8003 197.55,289.5123 197.943,290.2983 C198.249,290.9113 198.491,291.5543 198.949,292.0123 C199.412,292.4753 199.819,293.3313 200.232,294.1563 C200.57,294.8333 201.174,295.3143 201.524,296.0143 C201.874,296.7163 202.37,297.3003 202.951,297.8813 C203.362,298.2923 203.654,298.8533 203.802,299.4513 C203.855,299.6593 204.045,299.9653 204.214,300.284004 C204.215,300.284004 204.223,300.284004 204.224,300.284004 C204.057,299.5933 204.135,299.0573 203.946,298.3023 C203.763,297.5683 203.532,297.0483 203.381,296.4443 C203.221,295.8023 202.843,295.7373 202.664,295.0183 C202.486,294.3063 202.542,293.7483 202.088,293.2953 C201.581,292.7853 201.881,292.4763 201.658,291.5813 C201.507,290.9763 201.577,289.9733 201.237,289.2923 C201.133,289.0343 200.619,288.4873 200.519,288.2873 C200.237,287.7233 199.513,287.3973 199.513,286.8603 C199.513,286.5203 199.727,284.9303 199.513,284.7163 C198.807,284.0103 198.805,283.3353 198.805,282.2843 L198.805,279.7093 C198.805,278.6963 197.945,278.8403 197.235,278.1293 C197.044,277.9383 196.851,277.7553 196.661,277.5633 C196.132,277.0363 196.391,275.6763 195.655,275.5543 C194.919,275.4313 193.864,275.4983 194.66,274.7013 C195.105,274.2553 195.215,273.8443 195.798,273.5533 C196.48,273.2123 196.661,273.0903 196.661,272.1263 C196.661,271.1343 196.124,270.6023 195.942,269.6943 C195.846,269.2133 195.549,267.9053 195.798,267.4053 C196.057,266.8883 196.346,266.3423 197.091,265.9703 C197.537,265.7473 198.374,265.5133 198.374,264.8303 C198.374,264.3433 198.167,262.9633 198.662,262.9633 C199.452,262.9633 200.283,263.3103 201.093,263.1063 C201.826,262.9243 202.233,262.5583 202.233,261.6813 C202.233,260.8593 202.074,260.1103 203.094,260.1103 C204.216,260.1103 205.17,260.2513 205.669,261.2493 C205.926,261.7643 206.091,262.0783 206.091,262.9633 C206.091,263.2573 205.927,264.8973 206.235,264.9743 C206.625,265.0713 207.794,264.9863 208.101,265.3953 C208.187,265.5093 209.209,266.7403 209.671,265.9703 C209.815,265.7313 209.959,265.4903 210.102,265.2513 C210.388,265.2513 210.668,264.5433 210.955,264.5433 C211.52,264.5433 212.668,264.8323 212.668,265.5393 C212.668,266.2173 212.571,267.0673 212.812,267.5493 C213.144,268.2153 213.817,269.4363 213.817,270.4023 C213.817,271.4203 214.645,272.0633 215.244,271.2643 C215.478,270.9523 216.067,269.8383 216.537,269.8383 C217.321,269.8383 218.168,270.0193 218.394,269.1193 C218.658,268.0643 217.679,267.7743 217.245,266.6873" id="Fill-39" fill="#FFFFFF" mask="url(#mask-2)"></path>
                </g>
                <path d="M188.938,245.9583 C199.709,245.9583 208.437,254.6873 208.437,265.4583 C208.437,276.2283 199.708,284.9583 188.938,284.9583 C178.169,284.9583 169.437,276.2283 169.437,265.4583 C169.437,254.6873 178.168,245.9583 188.938,245.9583 Z" id="Stroke-42" stroke="#E75F52"></path>
            </g>
            <g id="Group-47" transform="translate(182.000000, 258.716000)">
                <mask id="mask-4" fill="white">
                    <use xlink:href="#path-3"></use>
                </mask>
                <g id="Clip-46"></g>
                <polygon id="Fill-45" fill="#E75F52" mask="url(#mask-4)" points="-4.563 18.958 18.437 18.958 18.437 -4.042 -4.563 -4.042"></polygon>
            </g>
        </g>
    </g>
</svg>