<?xml version="1.0" encoding="UTF-8"?>
<svg width="500px" height="400px" viewBox="0 0 500 400" version="1.1" xmlns="http://www.w3.org/2000/svg" xmlns:xlink="http://www.w3.org/1999/xlink">
    <!-- Generator: Sketch 64 (93537) - https://sketch.com -->
    <title>north-america</title>
    <desc>Created with Sketch.</desc>
    <defs>
        <path d="M110.212,1.069 L109.213,2.634 L8.994,2.705 L8.424,3.49 L8.709,5.342 L10.136,8.333 L9.422,11.466 L7.852,9.472 L6.853,7.193 L4.569,6.766 L0.999,6.339 L0.001,6.339 L0.571,8.333 L2.569,11.18 L2.569,14.029 L3.141,17.163 L5.711,17.446 L6.711,18.872 L3.57,18.443 L2.569,19.155 L2.998,22.147 L2.428,25.421 L2.569,29.267 L1.571,31.83 L0.428,35.532 L1.285,38.096 L1.856,41.372 L2.285,43.792 L1.713,47.068 L2.142,49.346 L3.141,51.626 L3.997,54.474 L4.711,56.325 L7.709,58.746 L9.137,58.604 L11.135,58.887 L8.994,59.458 L9.565,60.455 L7.709,60.74 L9.422,62.592 L11.135,64.443 L10.565,66.01 L12.848,69.285 L15.276,71.279 L15.561,73.7 L17.559,74.697 L20.272,75.551 L22.414,77.402 L24.27,78.542 L26.268,80.108 L27.41,80.963 L28.695,83.811 L35.976,83.668 L50.252,88.652 L62.101,88.652 L61.816,87.513 L67.527,87.513 L69.81,88.795 L71.095,90.076 L74.379,92.356 L75.521,96.486 L78.805,98.195 L80.803,99.049 L83.515,95.774 L87.085,96.201 L88.513,97.34 L92.367,103.606 L93.652,105.173 L94.651,108.734 L102.218,111.724 L101.932,109.16 L101.646,105.601 L104.073,102.751 L103.645,101.897 L106.073,99.903 L107.357,100.615 L109.499,98.195 L110.783,96.486 L112.639,96.486 L116.779,95.631 L119.778,96.912 L122.061,96.912 L122.918,95.915 L123.917,96.628 L124.06,97.91 L127.058,98.907 L129.914,98.478 L132.34,98.622 L130.341,97.055 L130.198,96.201 L131.483,95.489 L131.341,94.777 L129.342,94.777 L127.058,95.061 L128.485,93.779 L129.2,92.924 L129.914,93.638 L134.053,93.068 L134.624,93.779 L137.479,93.779 L139.05,93.352 L141.334,93.21 L143.475,94.065 L144.76,93.922 L146.045,95.774 L148.615,95.915 L150.043,94.777 L151.47,94.777 L154.325,97.198 L155.896,98.907 L156.324,101.186 L156.039,104.033 L157.038,107.025 L159.75,110.442 L161.321,113.718 L161.892,115 L164.747,114.43 L165.461,111.297 L165.461,106.596 L164.033,102.751 L163.604,101.755 L163.32,98.907 L160.893,96.057 L160.464,92.64 L160.606,89.792 L161.749,86.659 L163.891,84.95 L163.747,83.668 L166.318,83.24 L170.029,79.11 L171.742,77.687 L173.598,77.971 L175.311,74.695 L177.738,73.414 C177.738,73.414 179.595,73.699 179.737,72.987 L179.737,72.987 C179.88,72.275 181.736,68.857 181.736,68.857 L181.736,68.857 L179.737,67.718 L180.879,66.721 L181.164,66.009 L180.023,63.161 L178.881,61.879 L180.307,60.313 L179.165,58.887 L178.881,56.04 L178.738,53.62 L179.595,52.908 L180.166,56.468 L180.594,58.177 L181.593,59.743 L181.307,62.307 L182.878,59.174 L183.877,56.753 L184.02,55.328 L182.592,53.62 L182.448,52.908 L182.878,52.48 L185.162,53.904 L185.875,52.195 L187.446,50.629 L187.732,48.92 L187.446,46.927 L187.588,45.93 L187.875,44.505 L189.017,46.071 L189.587,46.071 L191.301,45.787 L193.014,45.645 L195.298,44.933 L194.869,44.078 L192.585,44.221 L190.444,44.79 L189.444,45.36 L189.301,44.363 L190.017,43.509 L191.871,43.082 L194.156,42.654 L195.726,42.227 L197.01,41.372 L200.009,42.084 C200.009,42.084 201.294,42.796 201.437,42.37 L201.437,42.37 C201.58,41.941 202.008,40.803 202.008,40.803 L202.008,40.803 L201.008,39.663 L200.58,37.954 L200.865,35.107 L201.151,32.827 L202.437,31.118 L202.721,30.406 L203.579,30.834 L206.29,27.843 L207.289,27.843 L209.574,27.558 L210.288,26.134 L212.287,26.134 L214,24.71 L213.357,23.926 L212.572,22.003 L211.716,21.363 L212.072,16.592 L211.645,12.249 L209.075,11.465 L206.862,12.249 L205.649,12.105 L200.723,23.571 L198.439,23.713 L197.439,24.568 L185.305,24.497 L182.307,27.275 L180.451,28.413 L179.595,30.834 L179.165,32.115 L177.024,33.54 L174.883,33.54 L173.314,32.828 L171.314,33.112 L168.744,33.967 L168.887,35.249 L168.744,37.529 L167.459,38.667 L164.889,39.238 L160.893,41.23 L157.895,42.227 L155.039,42.371 L153.326,41.089 L154.182,39.523 L154.611,39.095 L155.182,37.53 L156.252,36.888 L157.608,34.538 L156.182,32.687 L155.896,29.696 L154.04,29.126 L151.613,30.835 L152.469,28.841 L153.897,26.847 L153.326,24.996 L152.898,22.859 L150.614,22.005 L148.615,20.296 L146.188,21.294 L146.331,23.145 L144.903,24.854 L143.761,24.284 L141.62,26.705 L141.62,29.553 L141.905,32.401 L143.19,34.395 L143.047,38.667 L140.335,41.23 L138.336,41.373 L137.337,38.383 L136.338,36.246 L136.765,33.398 L136.338,30.55 L137.337,28.699 L137.908,26.847 L138.907,23.713 L136.622,26.277 L137.908,21.861 L139.907,20.152 L142.334,20.01 L144.189,19.155 L147.187,19.155 L149.615,19.155 L151.184,18.729 L153.041,19.013 L153.897,20.438 L157.466,21.719 L158.18,19.726 L155.753,20.01 L154.182,19.867 L151.899,18.158 L150.471,17.304 L148.829,16.093 L147.187,16.591 L145.617,15.452 L141.905,15.595 L139.907,16.876 L138.336,15.879 L136.481,14.741 L133.767,14.598 L136.481,10.752 L133.339,12.176 L130.77,14.17 L128.2,15.595 L125.916,15.879 L125.631,14.455 L120.919,15.452 L124.881,11.998 L127.665,9.969 L131.127,7.262 L129.699,7.049 L124.988,7.191 L122.846,6.765 L120.919,6.443 L118.992,5.055 L116.85,5.199 L112.782,4.201 L111.711,2.919 L111.14,0.925 L110.141,0 L110.212,1.069 Z" id="path-1"></path>
        <path d="M170.385,0.001 L167.817,2.845 L171.384,5.689 L167.103,5.689 L166.96,11.094 L167.817,16.498 L167.388,18.916 L169.529,21.05 L168.816,23.895 L170.1,27.307 L169.387,29.441 L168.103,31.86 L166.818,34.847 L166.96,36.695 L165.391,36.411 L164.391,41.533 L165.819,43.097 L163.964,46.936 L164.249,50.208 L167.246,53.338 L169.957,54.334 L170.528,55.613 L174.381,55.756 L172.24,58.174 L171.528,63.011 L173.953,61.161 L174.952,65.143 L171.67,69.553 L168.959,70.264 L167.532,73.963 L169.101,76.95 L168.531,78.514 L165.391,77.376 L166.104,72.683 L165.676,69.553 L163.393,68.557 L161.966,66.423 L163.822,66.565 L167.388,64.432 L168.816,63.721 L166.104,62.584 L166.533,59.17 L163.679,57.178 L159.826,53.055 L157.4,54.903 L158.542,57.748 L156.258,60.024 L153.261,62.016 L157.4,65.429 L160.11,65.002 L160.824,66.283 L159.111,67.278 L156.4,68.701 L157.686,70.835 L158.542,72.116 L156.543,73.537 L149.408,73.395 L145.27,74.675 L140.275,72.399 L136.28,69.555 C136.28,69.555 133.567,69.982 133.425,69.412 L133.425,69.412 C133.283,68.843 131,65.714 131,65.714 L131,65.714 L130.571,63.723 L128.716,62.158 L125.006,64.15 L121.581,66.141 C121.581,66.141 119.156,68.559 120.44,68.701 L120.44,68.701 C121.724,68.844 125.006,69.697 125.006,69.697 L125.006,69.697 L127.718,66.284 L127.004,70.408 L124.15,71.546 L123.009,75.813 L124.721,81.645 L122.01,81.502 L120.725,76.239 L117.443,75.954 L115.017,72.968 L109.737,73.252 L105.456,73.82 L100.889,74.39 L93.897,73.679 L96.038,69.839 L99.605,69.128 L98.035,65.572 L93.755,62.728 L88.189,63.012 L83.052,60.309 L80.626,58.601 L76.774,56.752 C76.774,56.752 73.491,55.614 73.063,55.188 L73.063,55.188 C72.635,54.761 70.779,53.481 69.209,53.481 L69.209,53.481 C67.641,53.481 65.214,53.339 65.214,53.339 L65.214,53.339 L64.787,57.322 L60.934,57.322 L62.075,54.05 L60.077,52.77 C60.077,52.77 60.505,50.353 59.934,50.494 L59.934,50.494 C59.363,50.636 55.939,52.77 55.939,52.77 L55.939,52.77 L55.797,56.326 L54.369,57.037 L51.372,51.917 L49.66,47.792 L46.378,44.662 C46.378,44.662 43.809,48.36 44.238,48.503 L44.238,48.503 C44.665,48.646 46.663,49.5 46.663,49.5 L46.663,49.5 L43.523,52.487 L41.098,51.917 L41.669,49.5 L39.528,49.5 L36.104,52.344 L33.107,54.334 L27.542,56.184 L26.115,58.318 L24.687,56.184 L23.83,54.761 L21.12,56.325 L19.977,58.317 L22.119,61.02 L21.548,63.154 L17.837,63.296 L13.984,62.585 L11.702,61.305 L10.132,60.167 L8.419,57.749 L6.136,57.322 L3.282,55.758 L0.142,55.192 L0,136.553 L3.996,137.263 L5.851,136.126 L7.564,137.548 L7.992,139.255 L13.414,144.66 L13.842,146.935 L15.697,145.23 L16.554,143.949 L17.98,143.665 L18.409,142.385 L21.12,141.532 L22.548,142.242 L22.548,143.665 L28.398,150.066 L28.541,152.342 L31.537,157.035 L33.107,160.876 L35.818,164.29 L41.384,167.987 L40.669,169.551 L40.812,171.685 L39.813,174.246 L37.103,176.45 L36.817,177.66 L39.813,176.379 L40.384,178.727 L39.385,180.007 L40.242,181.073 L40.599,182.71 L38.601,182.852 L40.242,185.128 L41.669,184.204 L42.668,183.848 L44.737,182.782 L45.664,183.705 L44.238,185.626 L43.595,187.12 L44.309,190.036 L44.809,187.831 L46.449,186.764 L47.02,189.68 L46.735,191.174 L48.947,191.956 L52.3,189.822 L51.444,192.383 L48.732,193.52 L48.518,195.441 L49.375,195.512 C49.375,195.512 49.161,197.929 49.375,198.072 L49.375,198.072 C49.589,198.215 51.801,199.779 51.801,199.779 L51.801,199.779 L53.727,200.062 L55.582,202.267 C55.582,202.267 53.87,202.267 53.299,202.196 L53.299,202.196 C52.729,202.126 49.518,201.059 49.518,201.059 L49.518,201.059 L47.805,199.636 C47.805,199.636 45.664,200.489 45.95,200.845 L45.95,200.845 C46.235,201.201 47.448,201.984 47.448,201.984 L47.448,201.984 C47.448,201.984 48.875,201.77 48.804,202.054 L48.804,202.054 C48.732,202.338 49.375,203.76 49.375,203.76 L49.375,203.76 L52.157,205.183 L53.371,207.033 L54.084,207.957 L55.511,208.598 L58.294,211.087 L60.292,211.726 L62.289,212.794 L64.215,213.219 L64.215,211.3 L62.646,209.45 L60.149,208.242 L58.936,204.899 L55.725,202.695 L56.224,202.411 L57.794,202.979 L59.793,204.544 L61.005,206.25 L63.288,206.108 L65.001,207.744 L65.001,209.308 L66,209.521 L67.141,208.953 L68.211,209.166 L68.997,210.09 L68.925,210.587 L169.101,210.517 L170.1,208.953 L170.029,207.886 L171.027,208.81 L171.313,210.375 L172.169,211.654 L174.453,212.579 L176.736,213.076 L178.591,213.005 L179.233,213.503 L180.446,213.93 L182.158,214.499 L186.011,214.996 L189.579,214.926 L191.006,215.139 L192.147,213.148 L193.503,212.437 C193.503,212.437 194.217,211.37 194.288,211.654 L194.288,211.654 C194.359,211.939 194.645,212.792 194.645,212.792 L194.645,212.792 L195.643,210.375 L197.428,211.583 L199.568,211.94 L200.923,212.01 L202.636,214.144 L203.349,215.851 L204.847,216.42 L207.131,216.42 L206.988,217.913 L208.13,219.336 L208.202,220.26 L207.131,221.611 L207.987,222.607 L208.7,223.958 L210.913,224.812 L214.266,225.736 L217.62,225.949 C217.62,225.949 219.403,226.447 219.759,226.519 L219.759,226.519 C220.117,226.59 222.971,227.016 222.971,227.016 L222.971,227.016 L224.326,228.58 L225.468,230.216 L225.825,231.426 L226.967,232.563 L225.897,233.346 C225.897,233.346 225.325,234.696 225.112,234.484 L225.112,234.484 C224.897,234.271 222.329,232.777 222.329,232.777 L222.329,232.777 L221.401,231.78 L220.331,230.927 L219.617,231.069 L220.259,232.777 L220.831,234.199 L219.332,236.404 L218.975,239.462 L218.191,240.742 L217.405,241.595 C217.405,241.595 216.978,242.805 216.978,243.018 L216.978,243.018 C216.978,243.232 216.122,244.725 216.122,244.725 L216.122,244.725 L216.406,245.721 L214.837,245.791 C214.837,245.791 214.052,246.859 214.48,246.929 L214.48,246.929 C214.908,247 216.335,247 216.335,247 L216.335,247 L218.546,245.151 L221.329,244.368 L223.399,244.297 L225.682,244.084 C225.682,244.084 226.538,243.159 227.038,243.088 L227.038,243.088 C227.536,243.016 229.107,242.875 229.107,242.875 L229.107,242.875 L226.895,240.101 L228.964,238.038 L231.676,237.398 L236.313,236.971 L239.096,235.692 L245.161,232.349 L257.577,232.206 L258.289,231.566 L260.573,231.068 L261.928,228.152 L263.355,224.524 L264.854,221.467 L265.497,219.974 L266.709,220.116 L268.921,219.333 L271.49,220.116 L271.918,224.454 L271.561,229.219 L272.417,229.859 L273.202,231.779 L274.842,231.566 L279.052,230.855 L280.765,229.219 L282.691,227.655 L282.12,229.717 L285.617,230.357 L284.547,231.068 L283.263,230.926 L278.838,233.628 L276.698,236.118 L278.411,239.389 C278.411,239.389 280.622,239.745 280.622,239.389 L280.622,239.389 C280.622,239.033 283.548,235.692 283.548,235.692 L283.548,235.692 L286.544,234.411 L289.541,234.411 L292.11,232.349 L295.249,229.717 C295.249,229.717 296.747,228.295 296.961,228.367 L296.961,228.367 C297.176,228.437 300.03,226.019 300.03,226.019 L300.03,226.019 L298.674,225.166 L298.745,222.391 L297.675,221.609 L295.962,224.81 L294.607,226.447 C294.607,226.447 295.107,227.797 294.607,227.726 L294.607,227.726 C294.107,227.656 291.681,227.584 291.681,227.584 L291.681,227.584 L289.684,227.726 L289.541,226.944 L290.754,226.233 L292.11,224.455 L293.18,222.748 L289.826,222.891 L287.258,222.891 L284.618,222.677 L284.974,223.887 L287.757,226.304 L288.898,226.518 C288.898,226.518 289.184,227.584 288.969,227.584 L288.969,227.584 C288.755,227.584 286.473,226.802 286.473,226.802 L286.473,226.802 L284.404,224.668 L282.62,223.886 L282.264,220.97 L282.62,219.405 L281.978,217.627 L279.908,216.916 C279.908,216.916 279.48,217.77 279.338,217.557 L279.338,217.557 C279.195,217.343 277.911,215.778 277.911,215.778 L277.911,215.778 L278.695,215.139 L280.836,215.637 L283.048,213.787 L284.118,212.009 L283.691,210.446 L280.551,209.094 L275.984,209.165 L272.56,210.516 L268.064,213.573 L265.424,215.778 L262.714,219.049 L260.286,221.538 L258.004,222.321 L262.999,217.841 L264.64,213.93 L267.137,211.227 L270.562,208.523 L273.058,208.453 L275.414,204.826 L278.268,203.332 L285.83,203.403 L285.76,205.039 L283.761,205.111 L285.403,206.391 L288.186,208.453 L292.11,210.017 L294.036,209.449 L290.825,207.386 L287.9,205.892 L286.33,205.181 L286.259,203.758 L288.613,203.402 L292.751,203.473 L295.106,204.184 L297.888,203.545 L300.173,203.545 L301.884,202.548 L303.241,200.059 L305.523,197.783 L308.306,196.645 L310.732,196.502 L311.946,196.786 L311.731,198.066 L309.805,200.414 L309.59,202.477 L309.661,204.112 L307.521,204.823 L307.093,208.45 L307.592,209.66 L305.952,210.513 L304.595,212.504 C304.595,212.504 302.599,212.362 303.169,212.718 L303.169,212.718 C303.739,213.074 306.237,213.785 306.237,213.785 L306.237,213.785 L304.097,215.562 C304.097,215.562 302.812,217.625 303.026,217.766 L303.026,217.766 C303.241,217.909 305.523,217.837 305.523,217.837 L305.523,217.837 L310.517,217.553 L312.944,217.766 L315.941,217.126 C315.941,217.126 315.37,218.905 315.584,218.905 L315.584,218.905 C315.798,218.905 317.154,218.477 317.154,218.477 L317.154,218.477 L318.509,218.121 L317.225,219.686 L316.44,220.966 C316.44,220.966 315.084,221.677 315.298,221.749 L315.298,221.749 C315.512,221.821 317.724,221.962 317.724,221.962 L317.724,221.962 L319.151,220.113 L320.221,219.473 L321.792,217.482 L322.791,217.624 L322.434,220.185 L321.434,222.46 L323.646,220.328 L323.575,222.674 L325.93,222.958 L327,218.833 L325.501,218.477 L326.715,215.917 L324.217,216.344 L323.218,216.13 L323.432,214.85 L325.573,214.067 L325.787,209.303 L324.074,213.001 L322.791,213.356 L323.718,208.734 L320.65,207.595 L318.224,209.303 L316.94,209.303 L317.154,207.88 L315.298,207.453 L316.654,205.249 L314.871,204.679 L314.014,204.325 L312.017,207.241 L312.444,204.467 L313.515,202.475 L314.442,200.982 L314.871,200.199 L315.584,199.773 L315.727,198.564 L314.871,197.426 L315.441,196.643 L317.154,195.86 L316.297,195.292 L314.228,195.575 L312.515,196.5 L311.445,196.074 L313.585,194.864 L315.727,193.228 L316.155,191.165 L314.655,190.169 L315.512,188.533 L315.084,186.896 L316.083,185.688 L314.514,183.127 L311.731,182.986 L310.732,184.265 L309.377,184.976 L309.661,183.411 L310.803,181.634 L309.377,179.998 L306.522,180.353 L304.381,181.634 L303.525,183.838 L301.813,183.554 L299.244,184.834 L299.458,183.484 L301.67,181.207 L305.38,179.43 L308.448,178.007 C308.448,178.007 308.806,177.154 308.591,176.941 L308.591,176.941 C308.378,176.726 306.166,175.589 305.952,175.589 L305.952,175.589 C305.738,175.589 303.811,175.233 303.811,175.233 L303.811,175.233 L302.669,173.527 L299.744,174.522 C299.744,174.522 298.602,173.171 298.602,172.958 L298.602,172.958 C298.602,172.745 299.815,171.535 299.815,171.535 L299.815,171.535 L299.031,169.9 L297.104,168.904 C297.104,168.904 294.893,167.695 294.821,167.481 L294.821,167.481 C294.749,167.267 294.107,165.561 294.107,165.561 L294.107,165.561 L291.254,165.062 L292.11,164.067 L289.755,163.427 L293.679,162.503 L295.249,160.725 L293.965,159.587 L292.751,158.876 L291.538,158.379 L292.966,156.601 L291.681,155.178 C291.681,155.178 290.611,153.329 290.326,153.329 L290.326,153.329 L287.472,153.329 L289.541,150.983 L288.186,150.769 L286.901,150.2 L289.256,149.133 L287.757,146.715 L284.69,147.355 L287.401,145.506 L286.33,144.154 L284.974,142.519 L284.333,141.949 L283.691,139.959 L283.191,138.038 L282.264,136.688 L281.336,139.105 L280.122,141.381 L280.194,142.732 L280.409,144.226 L279.267,145.506 L278.268,147.924 L276.627,147.995 L274.7,150.412 L272.417,151.835 L270.419,150.697 L268.85,147.853 L263.926,147.996 L265.567,146.218 L265.138,144.654 L263.926,143.302 L264.711,141.027 L262.142,140.173 L264.997,138.679 L264.354,136.616 L264.426,134.055 L265.353,132.491 L262.927,132.279 L260.144,131.78 L256.291,130.857 L256.435,128.58 L255.364,126.874 L253.438,125.807 L253.652,124.384 L253.081,123.673 L251.297,122.607 L249.157,121.255 L246.302,122.678 L245.304,123.745 L243.449,122.678 L241.023,122.109 L236.742,120.97 L233.459,121.185 C233.459,121.185 232.746,123.958 232.96,124.172 L232.96,124.172 C233.175,124.385 235.244,127.301 235.244,127.301 L235.244,127.301 L234.887,129.365 L232.96,133.134 L235.529,134.2 L234.958,136.831 L236.028,138.609 L235.743,140.672 L235.029,142.663 L233.175,145.081 C233.175,145.081 230.605,145.649 230.605,146.076 L230.605,146.076 C230.605,146.503 231.319,150.77 231.319,150.77 L231.319,150.77 L235.029,153.331 L236.884,159.447 L237.741,164.852 L235.885,168.693 L233.032,174.241 L227.323,176.089 L229.892,180.499 L230.319,186.616 L230.891,190.599 C230.891,190.599 230.891,193.87 230.462,194.012 L230.462,194.012 C230.035,194.155 226.466,196.146 226.466,196.146 L226.466,196.146 L225.61,198.137 L223.042,196.287 L222.757,193.3 L220.331,191.31 L217.905,187.184 L217.905,181.354 L216.335,178.936 L217.334,173.957 L210.626,173.246 L204.633,173.246 L201.352,169.549 L194.93,164.143 L188.936,161.441 L185.512,159.877 L180.66,161.867 L179.376,156.321 L177.234,151.483 L175.38,148.355 L172.383,148.07 L171.241,145.51 L171.099,140.39 L172.669,134.558 L176.236,127.588 L178.519,123.036 L179.803,120.334 L182.516,119.623 C182.516,119.623 179.803,118.486 180.232,118.486 L180.232,118.486 C180.66,118.486 186.796,118.343 186.796,118.343 L186.796,118.343 L184.94,113.221 L187.368,111.373 L190.506,108.67 L194.93,107.533 L199.924,97.575 L192.79,96.153 L188.509,91.886 L195.072,94.872 L199.496,95.442 L203.349,89.326 L200.638,86.195 L202.636,85.058 L207.63,85.2 L208.059,88.757 L211.483,87.619 L214.48,86.196 L217.905,82.925 L222.614,77.805 L220.188,74.533 L217.905,70.978 L217.192,66.426 L218.333,66.71 L220.473,63.296 L218.904,61.447 L220.616,59.598 L217.477,58.887 L216.763,55.757 L212.91,53.908 L209.485,52.912 L205.062,53.481 L205.917,60.593 L207.63,61.446 L206.632,64.432 L204.491,64.717 L200.78,76.096 L196.927,77.376 L194.93,70.833 L196.927,67.419 L192.79,61.019 L189.935,59.454 L187.081,62.584 L187.937,68.842 L185.512,60.592 L183.799,57.035 L182.516,54.618 L179.946,53.338 L180.232,50.067 L182.23,49.64 L178.947,42.67 L177.378,38.687 L175.665,34.562 L173.24,32.145 L171.241,29.158 L174.238,27.451 L171.528,28.019 L174.524,25.459 L175.38,22.899 L174.096,20.482 L172.526,19.201 L174.381,18.348 L179.09,18.348 L181.087,19.201 L183.799,10.81 L186.796,6.685 L187.51,2.845 L182.516,1.707 L180.089,2.134 L177.378,0.001 L170.385,0.001 Z" id="path-3"></path>
        <path d="M110.424,2.995 L104.432,5.134 L100.152,7.272 L97.585,11.979 L93.304,12.834 L90.737,18.396 L89.881,23.529 L85.6,26.523 L79.609,26.951 L77.469,30.802 L81.748,35.508 L86.029,38.502 L89.025,43.636 L92.448,44.919 L95.445,45.774 C95.445,45.774 95.016,48.342 96.3,48.342 L96.3,48.342 C97.585,48.342 99.724,47.915 99.724,47.915 L99.724,47.915 L99.297,52.62 L95.872,50.908 C95.872,50.908 97.156,52.62 95.872,52.62 L95.872,52.62 L90.308,52.62 L87.741,52.62 L88.169,49.197 L84.317,49.626 L81.321,51.764 L79.181,53.903 L75.756,56.47 L72.76,58.181 L77.896,63.315 L79.181,66.737 L82.177,68.021 L89.025,67.166 L92.02,68.876 L98.441,66.737 L97.585,69.304 L99.297,71.443 L98.012,75.294 L94.16,76.576 L89.452,80 L86.456,79.571 L83.461,82.994 L82.177,85.561 C80.892,88.128 78.752,90.267 78.752,90.267 L78.752,90.267 L78.752,96.256 L82.177,96.256 L84.317,98.395 L83.033,99.678 L77.04,100.533 L74.9,102.673 L79.893,105.239 L81.748,102.816 L81.748,100.392 L83.033,100.534 L83.889,101.817 L85.457,103.102 L88.169,105.525 L92.02,105.24 L93.161,103.102 L95.301,104.527 L95.588,107.379 L94.303,109.803 L96.015,112.655 L95.73,114.224 L100.296,111.371 L101.864,112.655 L105.003,112.798 L106.001,115.936 L107.856,111.8 L108.998,113.512 L113.42,111.516 L111.138,114.938 L110.996,117.505 L110.424,120.927 L108.142,123.066 L106.572,125.348 L106.429,126.347 L104.29,126.774 L101.008,129.198 C101.008,129.198 99.867,131.194 99.867,131.765 L99.867,131.765 C99.867,132.336 100.152,132.905 100.152,132.905 L100.152,132.905 L98.298,133.048 L97.869,132.478 L94.16,132.763 L93.019,135.187 L91.307,136.898 C91.307,136.898 89.738,136.898 89.738,137.325 L89.738,137.325 C89.738,137.754 89.595,139.18 89.595,139.18 L89.595,139.18 L88.026,138.609 L85.315,139.749 L84.317,141.318 L80.465,143.6 L77.469,145.168 L75.043,145.596 L75.614,146.451 L74.187,148.306 L72.476,147.734 L69.336,150.158 L66.626,151.585 L62.631,152.013 L54.927,156.006 L51.218,156.149 L49.363,154.58 L47.651,155.864 L46.081,156.007 L43.085,156.577 L40.945,156.721 L39.805,157.576 L38.234,157.433 L34.954,157.29 L35.381,158.431 L31.386,158.004 L26.109,157.004 L22.826,157.004 L18.689,156.861 L3.709,152.013 L1.142,150.73 L0,151.3 L0.57,152.583 L3.995,152.583 L17.548,157.289 L18.118,158.288 L19.973,157.433 L24.966,157.575 L33.955,159.001 L35.953,159.857 L37.665,158.717 L38.234,158.004 L39.947,158.289 L39.376,160 L41.373,158.432 L41.23,157.292 L45.654,156.863 L47.508,157.148 L49.648,156.294 L50.076,156.15 L50.219,157.148 L53.642,157.148 L54.071,156.436 L60.062,154.581 L61.775,153.155 L62.488,154.011 L64.057,152.3 L65.912,152.584 L67.909,151.729 L68.623,152.3 L71.19,150.732 L73.188,148.735 L73.188,149.591 L75.898,148.878 L78.325,147.023 L78.752,146.025 L78.752,145.313 L80.036,144.6 L82.034,144.458 L82.462,143.316 L84.317,142.176 L85.6,141.891 L87.028,140.607 L89.167,140.751 L89.881,139.752 L90.594,138.611 L91.736,138.896 L92.592,136.758 L93.447,138.325 L95.159,136.758 L96.586,134.761 L97.585,136.045 L99.011,135.046 L102.007,133.905 L103.576,132.765 L103.292,134.904 L105.716,132.053 L108.998,130.484 L108.569,129.2 L110.567,128.061 L112.564,126.493 L114.704,124.638 L115.704,122.642 L116.845,121.501 C116.845,121.501 119.128,119.79 119.555,119.362 L119.555,119.362 C119.984,118.935 123.55,116.225 123.55,116.225 L123.55,116.225 L124.549,114.086 L127.116,113.087 L126.689,111.662 L123.836,110.949 L125.405,107.241 L127.259,105.102 L128.686,105.529 L129.828,103.534 L128.544,101.394 L130.398,101.394 L132.823,97.829 L134.393,95.975 C134.393,95.975 136.817,95.404 137.246,95.404 L137.246,95.404 C137.673,95.404 140.242,95.975 140.242,95.975 L140.242,95.975 L138.672,96.546 L137.104,96.119 L134.964,97.686 L133.821,98.97 L134.82,100.681 L134.108,103.391 L132.538,105.387 L133.394,106.527 L135.676,106.384 L133.537,107.668 L132.253,108.38 L132.965,109.948 L136.39,109.378 L138.672,107.667 L140.1,105.813 L142.953,103.247 L143.809,104.387 L146.52,101.677 L146.805,98.967 L145.092,98.396 L145.235,96.829 L147.661,94.974 C147.661,94.974 147.375,96.97 147.804,96.686 L147.804,96.686 C148.231,96.4 150.228,95.973 150.228,95.973 L150.228,95.973 L152.512,95.545 L151.94,97.113 L154.08,98.396 L151.798,100.535 L154.652,99.965 L157.22,100.963 L159.217,101.962 L161.927,101.818 L161.784,103.246 L167.349,102.96 L170.916,103.388 L172.484,104.814 L176.765,104.958 L178.762,103.959 L177.906,106.811 L181.187,107.951 L183.185,108.235 L184.326,110.803 L186.038,114.368 L188.321,115.366 L190.318,115.224 L191.032,113.797 L189.462,111.801 L192.173,113.797 L193.314,115.082 L194.741,115.937 L193.885,109.663 L194.884,111.516 L196.881,115.224 L198.449,116.507 L196.738,117.505 L195.169,118.218 L192.173,116.079 L190.461,117.077 L191.744,121.499 L193.172,121.783 L194.17,124.351 L196.452,129.341 L196.309,125.348 L195.453,122.21 L192.743,120.071 L195.74,120.642 L195.596,118.931 L196.309,118.36 L197.309,121.355 L196.881,124.492 L199.164,122.21 L199.164,120.071 L198.022,117.505 L199.449,117.648 L200.733,119.216 L201.161,121.212 L201.874,124.064 L199.592,124.776 L197.88,125.775 L198.878,129.055 L199.734,126.915 L201.304,128.198 L202.873,126.773 L202.73,125.062 L204.442,127.343 L205.013,128.911 L202.73,129.624 L199.877,129.624 L200.02,132.619 L201.304,133.902 L201.732,136.184 L202.873,138.466 L205.584,138.894 L205.298,136.184 L204.728,133.047 L203.586,130.623 L203.872,130.052 L205.869,131.906 L206.44,130.052 L206.012,133.617 L207.724,133.902 L208.722,132.334 L207.866,135.328 L209.15,137.61 L210.149,136.755 L210.72,139.037 L210.72,139.893 L213.43,137.897 L214.429,135.329 L214.286,133.191 L215.001,131.622 L209.436,127.916 L206.725,124.492 L205.156,120.642 L202.16,115.937 L202.017,113.654 L196.168,107.237 L196.168,105.811 L194.741,105.099 L192.03,105.954 L191.602,107.237 L190.176,107.523 L190.033,108.948 L187.465,110.517 L187.037,108.235 L183.755,105.525 L181.616,102.816 L181.187,101.105 L179.476,99.678 L177.621,100.818 L173.626,100.106 L173.769,18.539 L171.201,17.54 L165.637,14.545 L160.073,12.406 L156.649,15.4 L150.657,11.979 L140.813,10.268 L134.82,10.268 L130.541,8.556 L130.113,5.561 L124.977,5.561 L120.697,3.422 L118.985,2.995 L116.416,0.428 L112.564,0 L110.424,2.995 Z" id="path-5"></path>
        <polygon id="path-7" points="0 0.0002 214.9999 0.0002 214.9999 160.0002 0 160.0002"></polygon>
    </defs>
    <g id="north-america" stroke="none" stroke-width="1" fill="none" fill-rule="evenodd">
        <g id="Group-20" transform="translate(0.000000, 14.000000)">
            <path d="M335.3845,319.6945 L334.7265,320.1175 L334.5625,322.6445 L334.7265,323.8345 L334.0695,324.3235 L334.7265,325.0215 L335.3845,321.6635 L336.0425,320.4685 L335.3845,319.6945 Z M318.2845,298.1075 L318.4485,298.9125 L319.4355,299.0575 L321.0795,300.8065 L321.4085,301.8255 L322.3945,303.5655 L322.8885,305.0835 L323.8745,305.8775 L325.5185,308.3945 L326.5055,308.8255 L326.6705,311.4725 L327.6565,312.7565 L327.9855,314.0365 L328.3145,314.8175 L329.6295,315.0305 L330.4515,315.6695 L331.6025,315.8815 L332.2605,316.5185 L334.2335,316.5895 L336.0425,317.6495 L337.1935,317.0845 L337.1935,318.2855 L335.8775,321.0315 L334.8915,324.3935 L334.5625,326.9035 L334.3975,330.6505 L334.5625,332.1025 L333.9045,333.8265 L334.3975,336.4385 L335.0555,337.7405 L334.8915,338.6985 L335.7135,339.8605 L337.1935,343.5375 L339.3305,345.9115 L340.3175,347.3325 L341.1395,350.0315 L342.6185,351.2425 L343.1125,352.9225 L343.7705,352.7205 L346.0725,352.9225 L347.0585,353.6605 L347.8805,353.8615 L349.0315,355.4685 L349.5245,355.6695 L351.6625,355.0675 L352.6485,355.0005 L353.4705,354.3305 L356.7595,354.1295 L357.5815,353.3245 L360.5415,352.9895 L361.3635,353.7945 L362.8425,354.1965 L363.8295,353.5925 L364.1585,352.7885 L363.3365,352.1165 L365.6385,350.7715 L366.4605,349.6945 L366.6245,348.2105 L367.6115,347.0615 L367.6115,344.0815 L368.2695,341.8375 L370.8995,340.4065 L373.8595,340.0645 L375.8325,339.5875 L376.9835,338.9715 L378.4635,338.7665 L381.2585,339.5185 L382.7385,339.5185 L382.9025,338.7665 L384.3825,339.7235 L384.7115,341.0195 L384.2175,342.5175 L382.5735,344.2845 L381.5875,345.7755 L381.4235,347.2645 L380.1075,348.5485 L381.5875,349.1555 L380.6005,349.7615 L380.7655,351.4445 L380.1075,354.3975 L378.6275,353.9275 L377.6415,354.0625 L376.8195,353.9955 L376.1615,355.2015 L375.0105,356.8725 L374.1885,356.3385 L373.6955,357.2735 L365.3095,357.2735 L365.3095,359.9395 L363.9935,360.2725 L364.9805,361.5365 L366.4605,362.3335 L366.9535,363.5925 L368.1045,363.9245 L367.6115,365.5805 L362.0215,365.5805 L359.8835,369.2775 L360.3765,370.3315 L360.0485,370.6605 L360.0485,372.0415 L359.5545,372.7635 L356.9245,369.8045 L353.1425,366.7045 L351.8265,365.8445 L351.0045,364.8515 L347.7165,363.8585 L345.4145,365.5135 L345.0855,366.0435 L342.6185,366.7045 L341.4675,367.4305 L339.9885,367.4965 L338.6735,367.1665 L336.6995,366.2415 L334.3975,365.9765 L332.4255,364.8515 L331.2735,364.5875 L329.7945,363.2615 L329.4655,363.3945 L325.3545,362.3995 L324.2035,361.6025 L319.5995,359.9395 L318.7775,359.1405 L316.6405,357.9405 L315.9825,356.8725 L314.8315,356.4045 L314.1745,356.7395 L311.7075,356.0045 L308.2545,354.7325 L307.2675,353.1905 L305.9525,352.1165 L302.9925,350.7715 L301.3485,349.7615 L301.0195,348.8175 L300.1975,348.3445 L299.0465,346.5205 L298.2245,344.6915 L299.8685,344.2165 L300.3625,343.6055 L299.2115,342.4505 L300.3625,341.4975 L300.5265,339.3815 L299.5405,338.8355 L298.5535,337.1245 L298.3895,335.6145 L297.7315,333.7575 L294.7715,330.7895 L292.1405,327.0435 L290.4965,325.9285 L289.3455,324.6735 L287.7015,323.6945 L286.8795,322.5745 L287.0445,321.3115 L285.8925,320.8905 L284.4135,319.9065 L284.0845,319.2025 L282.9335,319.6245 L281.1245,317.9325 L281.1245,316.8015 L282.1115,315.5265 L281.9465,314.3915 L280.6315,313.3965 L279.6445,313.3255 L278.9875,311.4725 L277.1785,311.0445 L275.8635,309.4695 L275.8635,307.4615 L274.8765,307.0295 L274.5475,307.4615 L272.9035,306.3815 L271.7525,304.6505 L270.7655,304.2885 L269.7795,302.4775 L268.7935,301.6065 L268.1355,299.7145 L266.3265,296.7165 L265.5045,293.9235 L264.1895,291.8545 L264.6825,290.0745 L262.3805,289.3315 L261.8875,288.2145 L260.9005,287.6915 L259.5855,288.2145 L257.6125,286.7965 L256.4615,286.6455 L256.1325,290.0005 L256.9545,291.1875 L257.4475,293.9235 L257.2835,295.2485 L258.4345,297.3025 L259.0925,297.3765 L261.3935,299.2765 L262.0515,300.1515 L262.2165,301.6795 L263.6965,302.2605 L264.3535,303.9995 L265.5045,304.4325 L265.8335,307.3165 L266.6555,308.3945 L267.6415,308.8965 L269.2865,311.9005 L271.4235,313.3255 L272.5745,316.5185 L272.5745,318.0035 L273.8895,319.6945 L274.3835,321.2415 L275.5345,322.9245 L275.2055,324.1835 L276.0275,325.9285 L277.1785,325.8595 L277.5075,325.2315 L279.3165,326.6945 L279.9735,328.7115 L280.9605,329.1965 L281.1245,330.5125 L280.6315,331.4115 L278.8225,332.5855 L278.1655,331.8955 L277.8365,330.3745 L277.1785,329.2655 L275.8635,328.5715 L273.7255,326.4865 L270.4375,324.2545 L269.7795,323.2745 L268.9575,323.0645 L268.7935,321.1005 L269.1215,319.4835 L268.9575,318.0035 L267.8065,316.0225 L265.9975,315.0305 L264.5175,313.8235 L264.0245,312.8985 L262.5445,312.8275 L261.8875,313.1825 L261.0655,312.0435 L258.1055,310.5445 L257.9415,309.6845 L256.9545,309.1115 L256.1325,307.4615 L257.9415,307.8205 L260.0785,306.5255 L259.7495,305.2995 L260.0785,304.2885 L258.1055,301.8255 L257.6125,301.6065 L255.8035,299.4955 L254.8175,299.2045 L252.5145,297.4495 L252.0215,296.4235 L251.8575,294.3645 L250.8705,293.6285 L250.8705,291.8545 L249.5555,291.1135 L249.7195,290.0745 L248.0755,287.9165 L248.2395,286.2715 L247.2535,285.5975 L248.8615,279.0005 L252.0215,282.1375 L256.9545,281.6845 L256.4615,282.8165 L260.4075,284.2475 L267.9705,287.0195 L273.7255,289.1075 L278.6585,289.1075 L286.7155,289.1075 L286.7155,286.7205 L294.4435,286.7205 L295.1005,287.0195 L296.0875,288.5115 L296.7445,288.7355 L299.7045,291.7065 L301.3485,292.5935 L302.8285,295.1735 L302.8285,296.4965 L303.4865,297.9625 L305.6235,299.6415 L306.9395,300.0065 L309.0765,301.4615 L309.8985,301.5345 L311.2145,300.2245 L310.8855,300.0065 L311.8715,297.5225 L313.1875,297.3765 L313.6805,296.7165 L315.1605,297.1565 L317.7915,297.4495 L318.2845,298.1075 Z M262.5445,298.6195 L264.0245,299.9325 L263.2025,300.5155 L262.2165,299.2765 L262.5445,298.6195 Z M268.1355,300.2975 L268.4645,301.3165 L267.9705,302.7675 L266.8205,302.1155 L267.4775,300.3705 L268.1355,300.2975 Z" id="Fill-1" fill="#FFFFFF"></path>
            <path d="M335.3845,319.6945 L334.7265,320.1175 L334.5625,322.6445 L334.7265,323.8345 L334.0695,324.3235 L334.7265,325.0215 L335.3845,321.6635 L336.0425,320.4685 L335.3845,319.6945 Z M318.2845,298.1075 L318.4485,298.9125 L319.4355,299.0575 L321.0795,300.8065 L321.4085,301.8255 L322.3945,303.5655 L322.8885,305.0835 L323.8745,305.8775 L325.5185,308.3945 L326.5055,308.8255 L326.6705,311.4725 L327.6565,312.7565 L327.9855,314.0365 L328.3145,314.8175 L329.6295,315.0305 L330.4515,315.6695 L331.6025,315.8815 L332.2605,316.5185 L334.2335,316.5895 L336.0425,317.6495 L337.1935,317.0845 L337.1935,318.2855 L335.8775,321.0315 L334.8915,324.3935 L334.5625,326.9035 L334.3975,330.6505 L334.5625,332.1025 L333.9045,333.8265 L334.3975,336.4385 L335.0555,337.7405 L334.8915,338.6985 L335.7135,339.8605 L337.1935,343.5375 L339.3305,345.9115 L340.3175,347.3325 L341.1395,350.0315 L342.6185,351.2425 L343.1125,352.9225 L343.7705,352.7205 L346.0725,352.9225 L347.0585,353.6605 L347.8805,353.8615 L349.0315,355.4685 L349.5245,355.6695 L351.6625,355.0675 L352.6485,355.0005 L353.4705,354.3305 L356.7595,354.1295 L357.5815,353.3245 L360.5415,352.9895 L361.3635,353.7945 L362.8425,354.1965 L363.8295,353.5925 L364.1585,352.7885 L363.3365,352.1165 L365.6385,350.7715 L366.4605,349.6945 L366.6245,348.2105 L367.6115,347.0615 L367.6115,344.0815 L368.2695,341.8375 L370.8995,340.4065 L373.8595,340.0645 L375.8325,339.5875 L376.9835,338.9715 L378.4635,338.7665 L381.2585,339.5185 L382.7385,339.5185 L382.9025,338.7665 L384.3825,339.7235 L384.7115,341.0195 L384.2175,342.5175 L382.5735,344.2845 L381.5875,345.7755 L381.4235,347.2645 L380.1075,348.5485 L381.5875,349.1555 L380.6005,349.7615 L380.7655,351.4445 L380.1075,354.3975 L378.6275,353.9275 L377.6415,354.0625 L376.8195,353.9955 L376.1615,355.2015 L375.0105,356.8725 L374.1885,356.3385 L373.6955,357.2735 L365.3095,357.2735 L365.3095,359.9395 L363.9935,360.2725 L364.9805,361.5365 L366.4605,362.3335 L366.9535,363.5925 L368.1045,363.9245 L367.6115,365.5805 L362.0215,365.5805 L359.8835,369.2775 L360.3765,370.3315 L360.0485,370.6605 L360.0485,372.0415 L359.5545,372.7635 L356.9245,369.8045 L353.1425,366.7045 L351.8265,365.8445 L351.0045,364.8515 L347.7165,363.8585 L345.4145,365.5135 L345.0855,366.0435 L342.6185,366.7045 L341.4675,367.4305 L339.9885,367.4965 L338.6735,367.1665 L336.6995,366.2415 L334.3975,365.9765 L332.4255,364.8515 L331.2735,364.5875 L329.7945,363.2615 L329.4655,363.3945 L325.3545,362.3995 L324.2035,361.6025 L319.5995,359.9395 L318.7775,359.1405 L316.6405,357.9405 L315.9825,356.8725 L314.8315,356.4045 L314.1745,356.7395 L311.7075,356.0045 L308.2545,354.7325 L307.2675,353.1905 L305.9525,352.1165 L302.9925,350.7715 L301.3485,349.7615 L301.0195,348.8175 L300.1975,348.3445 L299.0465,346.5205 L298.2245,344.6915 L299.8685,344.2165 L300.3625,343.6055 L299.2115,342.4505 L300.3625,341.4975 L300.5265,339.3815 L299.5405,338.8355 L298.5535,337.1245 L298.3895,335.6145 L297.7315,333.7575 L294.7715,330.7895 L292.1405,327.0435 L290.4965,325.9285 L289.3455,324.6735 L287.7015,323.6945 L286.8795,322.5745 L287.0445,321.3115 L285.8925,320.8905 L284.4135,319.9065 L284.0845,319.2025 L282.9335,319.6245 L281.1245,317.9325 L281.1245,316.8015 L282.1115,315.5265 L281.9465,314.3915 L280.6315,313.3965 L279.6445,313.3255 L278.9875,311.4725 L277.1785,311.0445 L275.8635,309.4695 L275.8635,307.4615 L274.8765,307.0295 L274.5475,307.4615 L272.9035,306.3815 L271.7525,304.6505 L270.7655,304.2885 L269.7795,302.4775 L268.7935,301.6065 L268.1355,299.7145 L266.3265,296.7165 L265.5045,293.9235 L264.1895,291.8545 L264.6825,290.0745 L262.3805,289.3315 L261.8875,288.2145 L260.9005,287.6915 L259.5855,288.2145 L257.6125,286.7965 L256.4615,286.6455 L256.1325,290.0005 L256.9545,291.1875 L257.4475,293.9235 L257.2835,295.2485 L258.4345,297.3025 L259.0925,297.3765 L261.3935,299.2765 L262.0515,300.1515 L262.2165,301.6795 L263.6965,302.2605 L264.3535,303.9995 L265.5045,304.4325 L265.8335,307.3165 L266.6555,308.3945 L267.6415,308.8965 L269.2865,311.9005 L271.4235,313.3255 L272.5745,316.5185 L272.5745,318.0035 L273.8895,319.6945 L274.3835,321.2415 L275.5345,322.9245 L275.2055,324.1835 L276.0275,325.9285 L277.1785,325.8595 L277.5075,325.2315 L279.3165,326.6945 L279.9735,328.7115 L280.9605,329.1965 L281.1245,330.5125 L280.6315,331.4115 L278.8225,332.5855 L278.1655,331.8955 L277.8365,330.3745 L277.1785,329.2655 L275.8635,328.5715 L273.7255,326.4865 L270.4375,324.2545 L269.7795,323.2745 L268.9575,323.0645 L268.7935,321.1005 L269.1215,319.4835 L268.9575,318.0035 L267.8065,316.0225 L265.9975,315.0305 L264.5175,313.8235 L264.0245,312.8985 L262.5445,312.8275 L261.8875,313.1825 L261.0655,312.0435 L258.1055,310.5445 L257.9415,309.6845 L256.9545,309.1115 L256.1325,307.4615 L257.9415,307.8205 L260.0785,306.5255 L259.7495,305.2995 L260.0785,304.2885 L258.1055,301.8255 L257.6125,301.6065 L255.8035,299.4955 L254.8175,299.2045 L252.5145,297.4495 L252.0215,296.4235 L251.8575,294.3645 L250.8705,293.6285 L250.8705,291.8545 L249.5555,291.1135 L249.7195,290.0745 L248.0755,287.9165 L248.2395,286.2715 L247.2535,285.5975 L248.8615,279.0005 L252.0215,282.1375 L256.9545,281.6845 L256.4615,282.8165 L260.4075,284.2475 L267.9705,287.0195 L273.7255,289.1075 L278.6585,289.1075 L286.7155,289.1075 L286.7155,286.7205 L294.4435,286.7205 L295.1005,287.0195 L296.0875,288.5115 L296.7445,288.7355 L299.7045,291.7065 L301.3485,292.5935 L302.8285,295.1735 L302.8285,296.4965 L303.4865,297.9625 L305.6235,299.6415 L306.9395,300.0065 L309.0765,301.4615 L309.8985,301.5345 L311.2145,300.2245 L310.8855,300.0065 L311.8715,297.5225 L313.1875,297.3765 L313.6805,296.7165 L315.1605,297.1565 L317.7915,297.4495 L318.2845,298.1075 Z M262.5445,298.6195 L264.0245,299.9325 L263.2025,300.5155 L262.2165,299.2765 L262.5445,298.6195 Z M268.1355,300.2975 L268.4645,301.3165 L267.9705,302.7675 L266.8205,302.1155 L267.4775,300.3705 L268.1355,300.2975 Z" id="Stroke-2" stroke="#E6E7E7"></path>
            <g id="Group-6" transform="translate(233.000000, 208.000000)">
                <mask id="mask-2" fill="white">
                    <use xlink:href="#path-1"></use>
                </mask>
                <g id="Clip-5"></g>
                <polygon id="Fill-4" fill="#FFFFFF" mask="url(#mask-2)" points="-5 120 219 120 219 -5 -5 -5"></polygon>
            </g>
            <path d="M241.4235,211.4894 L241.7085,213.3424 L243.1365,216.3324 L242.4225,219.4664 L240.8525,217.4714 L239.8525,215.1934 L237.5695,214.7654 L233.9995,214.3394 L233.0005,214.3394 L233.5715,216.3324 L235.5695,219.1804 L235.5695,222.0284 L236.1405,225.1624 L238.7105,225.4464 L239.7105,226.8714 L236.5695,226.4434 L235.5695,227.1554 L235.9975,230.1464 L235.4275,233.4214 L235.5695,237.2664 L234.5705,239.8304 L233.4285,243.5324 L234.2845,246.0964 L234.8565,249.3714 L235.2845,251.7924 L234.7135,255.0674 L235.1415,257.3464 L236.1405,259.6264 L236.9975,262.4734 L237.7115,264.3254 L240.7095,266.7464 L242.1365,266.6034 L244.1355,266.8874 L241.9935,267.4584 L242.5655,268.4554 L240.7095,268.7394 L242.4225,270.5924 L244.1355,272.4434 L243.5655,274.0094 L245.8485,277.2854 L248.2765,279.2784 L248.5615,281.6994 L250.5595,282.6964 L253.2725,283.5514 L255.4135,285.4024 L257.2705,286.5424 L259.2685,288.1074 L260.4105,288.9634 L261.6945,291.8104 L268.9755,291.6684 L283.2525,296.6524 L295.1015,296.6524 L294.8165,295.5124 L300.5265,295.5124 L302.8105,296.7954 L304.0955,298.0764 L307.3795,300.3554 L308.5215,304.4854 L311.8045,306.1944 L313.8035,307.0494 L316.5155,303.7734 L320.0845,304.2014 L321.5125,305.3404 L325.3675,311.6054 L326.6525,313.1734 L327.6515,316.7334 L335.2175,319.7234 L334.9315,317.1604 L334.6465,313.6004 L337.0725,310.7514 L336.6445,309.8964 L339.0725,307.9034 L340.3575,308.6154 L342.4985,306.1944 L343.7835,304.4854 L345.6385,304.4854 L349.7795,303.6314 L352.7775,304.9124 L355.0605,304.9124 L355.9175,303.9154 L356.9175,304.6284 L357.0605,305.9104 L360.0585,306.9064 L362.9135,306.4784 L365.3405,306.6224 L363.3415,305.0554 L363.1985,304.2014 L364.4835,303.4884 L364.3405,302.7764 L362.3415,302.7764 L360.0585,303.0604 L361.4855,301.7794 L362.1995,300.9254 L362.9135,301.6374 L367.0525,301.0674 L367.6245,301.7794 L370.4795,301.7794 L372.0495,301.3514 L374.3335,301.2104 L376.4755,302.0644 L377.7595,301.9224 L379.0455,303.7734 L381.6145,303.9154 L383.0425,302.7764 L384.4705,302.7764 L387.3255,305.1974 L388.8955,306.9064 L389.3235,309.1854 L389.0385,312.0334 L390.0385,315.0244 L392.7505,318.4424 L394.3205,321.7184 L394.8915,323.0004 L397.7475,322.4294 L398.4605,319.2974 L398.4605,314.5964 L397.0325,310.7514 L396.6045,309.7554 L396.3195,306.9064 L393.8925,304.0574 L393.4645,300.6394 L393.6065,297.7924 L394.7495,294.6584 L396.8905,292.9494 L396.7475,291.6684 L399.3175,291.2404 L403.0285,287.1104 L404.7415,285.6864 L406.5985,285.9704 L408.3115,282.6954 L410.7375,281.4144 C410.7375,281.4144 412.5945,281.6984 412.7365,280.9864 C412.8795,280.2744 414.7355,276.8564 414.7355,276.8564 L412.7365,275.7184 L413.8795,274.7204 L414.1645,274.0094 L413.0225,271.1604 L411.8805,269.8794 L413.3075,268.3124 L412.1655,266.8874 L411.8805,264.0404 L411.7375,261.6194 L412.5935,260.9074 L413.1655,264.4684 L413.5935,266.1764 L414.5925,267.7434 L414.3075,270.3064 L415.8775,267.1744 L416.8775,264.7534 L417.0205,263.3284 L415.5915,261.6194 L415.4485,260.9074 L415.8775,260.4804 L418.1615,261.9044 L418.8755,260.1954 L420.4465,258.6294 L420.7315,256.9204 L420.4465,254.9264 L420.5885,253.9294 L420.8745,252.5054 L422.0165,254.0714 L422.5875,254.0714 L424.3005,253.7874 L426.0135,253.6444 L428.2975,252.9324 L427.8695,252.0784 L425.5855,252.2204 L423.4445,252.7904 L422.4445,253.3604 L422.3015,252.3634 L423.0165,251.5094 L424.8715,251.0814 L427.1555,250.6544 L428.7255,250.2264 L430.0105,249.3724 L433.0085,250.0844 C433.0085,250.0844 434.2935,250.7964 434.4365,250.3694 C434.5795,249.9414 435.0075,248.8024 435.0075,248.8024 L434.0085,247.6634 L433.5805,245.9544 L433.8655,243.1064 L434.1515,240.8274 L435.4365,239.1184 L435.7215,238.4064 L436.5785,238.8344 L439.2905,235.8434 L440.2895,235.8434 L442.5735,235.5584 L443.2875,234.1344 L445.2865,234.1344 L447.0005,232.7104 L446.3575,231.9264 L445.5715,230.0034 L444.7155,229.3624 L445.0725,224.5924 L444.6445,220.2484 L442.0745,219.4654 L439.8615,220.2484 L438.6485,220.1054 L433.7235,231.5704 L431.4385,231.7134 L430.4395,232.5674 L418.3045,232.4974 L415.3065,235.2744 L413.4505,236.4134 L412.5935,238.8344 L412.1655,240.1154 L410.0245,241.5404 L407.8825,241.5404 L406.3135,240.8284 L404.3135,241.1124 L401.7435,241.9674 L401.8865,243.2494 L401.7435,245.5284 L400.4595,246.6674 L397.8895,247.2374 L393.8925,249.2304 L390.8945,250.2274 L388.0385,250.3704 L386.3255,249.0894 L387.1825,247.5224 L387.6105,247.0944 L388.1815,245.5294 L389.2525,244.8874 L390.6085,242.5384 L389.1815,240.6864 L388.8955,237.6954 L387.0405,237.1264 L384.6125,238.8354 L385.4685,236.8414 L386.8975,234.8474 L386.3255,232.9964 L385.8975,230.8594 L383.6135,230.0054 L381.6145,228.2964 L379.1885,229.2934 L379.3315,231.1444 L377.9025,232.8534 L376.7615,232.2844 L374.6195,234.7054 L374.6195,237.5524 L374.9045,240.4014 L376.1905,242.3944 L376.0475,246.6674 L373.3355,249.2304 L371.3365,249.3734 L370.3375,246.3834 L369.3375,244.2464 L369.7655,241.3984 L369.3375,238.5504 L370.3375,236.6984 L370.9075,234.8464 L371.9075,231.7134 L369.6225,234.2764 L370.9075,229.8614 L372.9065,228.1524 L375.3335,228.0104 L377.1895,227.1554 L380.1875,227.1554 L382.6145,227.1554 L384.1845,226.7284 L386.0405,227.0124 L386.8975,228.4374 L390.4665,229.7184 L391.1795,227.7254 L388.7535,228.0104 L387.1825,227.8674 L384.8985,226.1584 L383.4705,225.3034 L381.8285,224.0934 L380.1875,224.5914 L378.6165,223.4524 L374.9045,223.5944 L372.9065,224.8764 L371.3365,223.8794 L369.4805,222.7404 L366.7675,222.5974 L369.4805,218.7524 L366.3395,220.1774 L363.7695,222.1704 L361.1995,223.5944 L358.9155,223.8794 L358.6305,222.4554 L353.9195,223.4524 L357.8815,219.9984 L360.6645,217.9684 L364.1275,215.2624 L362.6985,215.0494 L357.9875,215.1914 L355.8465,214.7634 L353.9195,214.4434 L351.9915,213.0544 L349.8505,213.1984 L345.7815,212.2004 L344.7115,210.9194 L344.1395,208.9264 L343.1405,208.0004 L343.2125,209.0684 L342.2125,210.6354 L241.9935,210.7054 L241.4235,211.4894 Z" id="Stroke-7" stroke="#E6E7E7"></path>
            <g id="Group-11" transform="translate(173.000000, 0.000000)">
                <mask id="mask-4" fill="white">
                    <use xlink:href="#path-3"></use>
                </mask>
                <g id="Clip-10"></g>
                <polygon id="Fill-9" fill="#FFFFFF" mask="url(#mask-4)" points="-5 252 332 252 332 -5 -5 -5"></polygon>
            </g>
            <path d="M173.1428,55.1925 L172.9998,136.5525 L176.9958,137.2625 L178.8508,136.1265 L180.5638,137.5475 L180.9918,139.2555 L186.4138,144.6605 L186.8428,146.9355 L188.6978,145.2295 L189.5538,143.9495 L190.9798,143.6655 L191.4088,142.3845 L194.1198,141.5315 L195.5478,142.2425 L195.5478,143.6655 L201.3978,150.0655 L201.5408,152.3415 L204.5378,157.0355 L206.1068,160.8765 L208.8188,164.2905 L214.3838,167.9875 L213.6698,169.5515 L213.8128,171.6855 L212.8138,174.2465 L210.1028,176.4505 L209.8168,177.6595 L212.8138,176.3795 L213.3848,178.7265 L212.3858,180.0065 L213.2418,181.0735 L213.5988,182.7095 L211.6008,182.8515 L213.2418,185.1285 L214.6688,184.2035 L215.6678,183.8475 L217.7368,182.7815 L218.6648,183.7055 L217.2378,185.6255 L216.5958,187.1195 L217.3088,190.0355 L217.8088,187.8315 L219.4498,186.7635 L220.0198,189.6795 L219.7348,191.1735 L221.9468,191.9565 L225.3008,189.8225 L224.4448,192.3825 L221.7328,193.5205 L221.5188,195.4405 L222.3748,195.5115 C222.3748,195.5115 222.1608,197.9295 222.3748,198.0715 C222.5888,198.2145 224.8008,199.7785 224.8008,199.7785 L226.7268,200.0625 L228.5818,202.2675 C228.5818,202.2675 226.8698,202.2675 226.2988,202.1965 C225.7288,202.1265 222.5178,201.0585 222.5178,201.0585 L220.8058,199.6355 C220.8058,199.6355 218.6648,200.4895 218.9498,200.8455 C219.2348,201.2015 220.4488,201.9835 220.4488,201.9835 C220.4488,201.9835 221.8748,201.7695 221.8038,202.0535 C221.7328,202.3385 222.3748,203.7605 222.3748,203.7605 L225.1578,205.1835 L226.3708,207.0335 L227.0838,207.9575 L228.5118,208.5975 L231.2938,211.0875 L233.2918,211.7265 L235.2888,212.7945 L237.2158,213.2195 L237.2158,211.2995 L235.6458,209.4505 L233.1488,208.2415 L231.9358,204.8985 L228.7258,202.6945 L229.2248,202.4105 L230.7938,202.9795 L232.7918,204.5435 L234.0048,206.2505 L236.2888,206.1075 L238.0008,207.7445 L238.0008,209.3075 L238.9998,209.5215 L240.1418,208.9525 L241.2118,209.1665 L241.9968,210.0895 L241.9248,210.5875 L342.1008,210.5165 L343.1008,208.9525 L343.0288,207.8855 L344.0268,208.8095 L344.3128,210.3745 L345.1698,211.6545 L347.4528,212.5785 L349.7358,213.0765 L351.5908,213.0055 L352.2328,213.5035 L353.4458,213.9295 L355.1578,214.4995 L359.0108,214.9965 L362.5788,214.9255 L364.0058,215.1385 L365.1468,213.1475 L366.5028,212.4365 C366.5028,212.4365 367.2168,211.3705 367.2878,211.6545 C367.3588,211.9385 367.6448,212.7925 367.6448,212.7925 L368.6428,210.3745 L370.4278,211.5835 L372.5678,211.9395 L373.9238,212.0095 L375.6358,214.1435 L376.3498,215.8505 L377.8478,216.4205 L380.1308,216.4205 L379.9878,217.9135 L381.1298,219.3365 L381.2018,220.2595 L380.1308,221.6115 L380.9868,222.6075 L381.7008,223.9585 L383.9128,224.8115 L387.2658,225.7355 L390.6198,225.9495 C390.6198,225.9495 392.4028,226.4465 392.7598,226.5185 C393.1168,226.5895 395.9708,227.0155 395.9708,227.0155 L397.3268,228.5805 L398.4688,230.2155 L398.8248,231.4255 L399.9668,232.5635 L398.8968,233.3455 C398.8968,233.3455 398.3258,234.6965 398.1118,234.4835 C397.8968,234.2705 395.3288,232.7765 395.3288,232.7765 L394.4018,231.7805 L393.3308,230.9265 L392.6168,231.0695 L393.2588,232.7765 L393.8298,234.1995 L392.3318,236.4035 L391.9748,239.4625 L391.1908,240.7415 L390.4058,241.5945 C390.4058,241.5945 389.9768,242.8045 389.9768,243.0175 C389.9768,243.2315 389.1218,244.7245 389.1218,244.7245 L389.4068,245.7205 L387.8368,245.7915 C387.8368,245.7915 387.0518,246.8585 387.4798,246.9285 C387.9078,247.0005 389.3348,247.0005 389.3348,247.0005 L391.5468,245.1505 L394.3298,244.3685 L396.3988,244.2975 L398.6828,244.0845 C398.6828,244.0845 399.5388,243.1595 400.0378,243.0885 C400.5368,243.0155 402.1068,242.8745 402.1068,242.8745 L399.8948,240.1005 L401.9638,238.0385 L404.6758,237.3975 L409.3128,236.9705 L412.0958,235.6915 L418.1618,232.3485 L430.5768,232.2065 L431.2888,231.5655 L433.5728,231.0685 L434.9288,228.1525 L436.3558,224.5245 L437.8538,221.4665 L438.4968,219.9735 L439.7088,220.1165 L441.9208,219.3335 L444.4898,220.1165 L444.9178,224.4545 L444.5608,229.2185 L445.4168,229.8585 L446.2018,231.7795 L447.8428,231.5655 L452.0528,230.8545 L453.7648,229.2185 L455.6908,227.6545 L455.1208,229.7165 L458.6168,230.3575 L457.5468,231.0685 L456.2628,230.9255 L451.8388,233.6285 L449.6978,236.1185 L451.4108,239.3885 C451.4108,239.3885 453.6218,239.7455 453.6218,239.3885 C453.6218,239.0335 456.5478,235.6915 456.5478,235.6915 L459.5438,234.4115 L462.5408,234.4115 L465.1098,232.3485 L468.2488,229.7165 C468.2488,229.7165 469.7478,228.2955 469.9618,228.3665 C470.1758,228.4365 473.0298,226.0195 473.0298,226.0195 L471.6738,225.1665 L471.7458,222.3915 L470.6748,221.6095 L468.9628,224.8095 L467.6068,226.4465 C467.6068,226.4465 468.1068,227.7975 467.6068,227.7255 C467.1068,227.6555 464.6818,227.5835 464.6818,227.5835 L462.6838,227.7255 L462.5408,226.9435 L463.7538,226.2325 L465.1098,224.4555 L466.1798,222.7485 L462.8258,222.8905 L460.2578,222.8905 L457.6178,222.6765 L457.9748,223.8865 L460.7578,226.3035 L461.8988,226.5175 C461.8988,226.5175 462.1838,227.5845 461.9698,227.5845 C461.7558,227.5845 459.4738,226.8015 459.4738,226.8015 L457.4038,224.6685 L455.6208,223.8855 L455.2638,220.9695 L455.6208,219.4055 L454.9778,217.6275 L452.9088,216.9165 C452.9088,216.9165 452.4798,217.7695 452.3378,217.5565 C452.1958,217.3425 450.9118,215.7785 450.9118,215.7785 L451.6958,215.1385 L453.8358,215.6365 L456.0488,213.7875 L457.1188,212.0085 L456.6908,210.4455 L453.5508,209.0935 L448.9848,209.1655 L445.5598,210.5155 L441.0648,213.5735 L438.4238,215.7785 L435.7138,219.0485 L433.2868,221.5385 L431.0038,222.3215 L435.9988,217.8405 L437.6398,213.9295 L440.1378,211.2265 L443.5618,208.5235 L446.0588,208.4535 L448.4138,204.8265 L451.2678,203.3325 L458.8308,203.4035 L458.7598,205.0395 L456.7618,205.1105 L458.4028,206.3905 L461.1858,208.4535 L465.1098,210.0175 L467.0358,209.4485 L463.8258,207.3855 L460.9008,205.8915 L459.3298,205.1805 L459.2588,203.7575 L461.6138,203.4025 L465.7518,203.4735 L468.1058,204.1835 L470.8888,203.5445 L473.1728,203.5445 L474.8848,202.5475 L476.2408,200.0585 L478.5238,197.7825 L481.3068,196.6445 L483.7318,196.5025 L484.9458,196.7865 L484.7308,198.0665 L482.8048,200.4145 L482.5908,202.4765 L482.6618,204.1125 L480.5208,204.8235 L480.0928,208.4505 L480.5928,209.6605 L478.9518,210.5125 L477.5958,212.5045 C477.5958,212.5045 475.5988,212.3615 476.1688,212.7175 C476.7398,213.0735 479.2368,213.7845 479.2368,213.7845 L477.0968,215.5625 C477.0968,215.5625 475.8118,217.6255 476.0258,217.7665 C476.2408,217.9085 478.5238,217.8375 478.5238,217.8375 L483.5178,217.5525 L485.9438,217.7665 L488.9408,217.1265 C488.9408,217.1265 488.3708,218.9045 488.5838,218.9045 C488.7978,218.9045 490.1538,218.4775 490.1538,218.4775 L491.5088,218.1215 L490.2248,219.6855 L489.4408,220.9655 C489.4408,220.9655 488.0838,221.6765 488.2978,221.7495 C488.5128,221.8205 490.7248,221.9625 490.7248,221.9625 L492.1508,220.1125 L493.2218,219.4725 L494.7918,217.4815 L495.7898,217.6245 L495.4338,220.1845 L494.4348,222.4605 L496.6458,220.3275 L496.5758,222.6735 L498.9298,222.9585 L499.9998,218.8335 L498.5018,218.4775 L499.7148,215.9175 L497.2178,216.3435 L496.2178,216.1305 L496.4328,214.8505 L498.5728,214.0675 L498.7868,209.3025 L497.0748,213.0015 L495.7898,213.3565 L496.7178,208.7335 L493.6498,207.5955 L491.2238,209.3025 L489.9398,209.3025 L490.1538,207.8805 L488.2978,207.4535 L489.6548,205.2495 L487.8708,204.6795 L487.0138,204.3245 L485.0168,207.2405 L485.4448,204.4665 L486.5148,202.4755 L487.4418,200.9825 L487.8708,200.1995 L488.5838,199.7725 L488.7258,198.5635 L487.8708,197.4255 L488.4408,196.6435 L490.1538,195.8605 L489.2978,195.2915 L487.2278,195.5755 L485.5158,196.5005 L484.4458,196.0735 L486.5858,194.8645 L488.7258,193.2275 L489.1548,191.1655 L487.6558,190.1695 L488.5128,188.5335 L488.0838,186.8965 L489.0828,185.6875 L487.5138,183.1275 L484.7308,182.9855 L483.7318,184.2645 L482.3768,184.9755 L482.6618,183.4115 L483.8028,181.6335 L482.3768,179.9985 L479.5218,180.3535 L477.3818,181.6335 L476.5258,183.8385 L474.8128,183.5535 L472.2448,184.8345 L472.4578,183.4835 L474.6708,181.2075 L478.3808,179.4295 L481.4488,178.0065 C481.4488,178.0065 481.8058,177.1535 481.5918,176.9405 C481.3778,176.7265 479.1658,175.5885 478.9518,175.5885 C478.7378,175.5885 476.8108,175.2335 476.8108,175.2335 L475.6688,173.5265 L472.7448,174.5225 C472.7448,174.5225 471.6018,173.1715 471.6018,172.9585 C471.6018,172.7445 472.8158,171.5355 472.8158,171.5355 L472.0308,169.8995 L470.1038,168.9035 C470.1038,168.9035 467.8928,167.6945 467.8208,167.4805 C467.7488,167.2675 467.1068,165.5605 467.1068,165.5605 L464.2538,165.0625 L465.1098,164.0665 L462.7548,163.4265 L466.6788,162.5035 L468.2488,160.7245 L466.9648,159.5875 L465.7518,158.8765 L464.5388,158.3795 L465.9658,156.6005 L464.6818,155.1785 C464.6818,155.1785 463.6108,153.3295 463.3258,153.3295 L460.4728,153.3295 L462.5408,150.9825 L461.1858,150.7685 L459.9008,150.1995 L462.2558,149.1325 L460.7578,146.7145 L457.6898,147.3545 L460.4008,145.5055 L459.3298,144.1545 L457.9748,142.5185 L457.3328,141.9495 L456.6908,139.9585 L456.1908,138.0385 L455.2638,136.6875 L454.3358,139.1045 L453.1228,141.3805 L453.1948,142.7325 L453.4088,144.2255 L452.2668,145.5055 L451.2678,147.9235 L449.6268,147.9945 L447.7008,150.4125 L445.4168,151.8355 L443.4188,150.6975 L441.8498,147.8525 L436.9268,147.9955 L438.5668,146.2175 L438.1388,144.6535 L436.9268,143.3015 L437.7108,141.0265 L435.1428,140.1725 L437.9968,138.6785 L437.3548,136.6165 L437.4258,134.0555 L438.3528,132.4915 L435.9278,132.2785 L433.1448,131.7805 L429.2918,130.8565 L429.4348,128.5805 L428.3648,126.8735 L426.4378,125.8065 L426.6518,124.3835 L426.0808,123.6725 L424.2978,122.6065 L422.1568,121.2555 L419.3028,122.6775 L418.3048,123.7455 L416.4488,122.6775 L414.0228,122.1085 L409.7418,120.9705 L406.4588,121.1845 C406.4588,121.1845 405.7468,123.9585 405.9598,124.1725 C406.1748,124.3845 408.2438,127.3005 408.2438,127.3005 L407.8868,129.3645 L405.9598,133.1335 L408.5288,134.2005 L407.9578,136.8315 L409.0278,138.6095 L408.7428,140.6725 L408.0288,142.6635 L406.1748,145.0815 C406.1748,145.0815 403.6058,145.6495 403.6058,146.0765 C403.6058,146.5035 404.3188,150.7705 404.3188,150.7705 L408.0288,153.3315 L409.8838,159.4475 L410.7408,164.8515 L408.8848,168.6925 L406.0318,174.2405 L400.3228,176.0885 L402.8918,180.4995 L403.3198,186.6155 L403.8908,190.5985 C403.8908,190.5985 403.8908,193.8695 403.4628,194.0115 C403.0348,194.1545 399.4668,196.1455 399.4668,196.1455 L398.6108,198.1365 L396.0418,196.2875 L395.7568,193.2995 L393.3308,191.3095 L390.9048,187.1845 L390.9048,181.3535 L389.3348,178.9355 L390.3338,173.9575 L383.6268,173.2465 L377.6338,173.2465 L374.3518,169.5485 L367.9298,164.1435 L361.9368,161.4405 L358.5118,159.8775 L353.6598,161.8675 L352.3748,156.3205 L350.2348,151.4835 L348.3798,148.3545 L345.3838,148.0705 L344.2418,145.5095 L344.0998,140.3895 L345.6688,134.5575 L349.2368,127.5885 L351.5188,123.0365 L352.8038,120.3345 L355.5158,119.6235 C355.5158,119.6235 352.8038,118.4855 353.2318,118.4855 C353.6598,118.4855 359.7958,118.3425 359.7958,118.3425 L357.9408,113.2215 L360.3678,111.3735 L363.5058,108.6705 L367.9298,107.5325 L372.9248,97.5755 L365.7898,96.1525 L361.5088,91.8855 L368.0728,94.8725 L372.4968,95.4415 L376.3498,89.3255 L373.6388,86.1955 L375.6358,85.0575 L380.6298,85.2005 L381.0588,88.7565 L384.4828,87.6195 L387.4798,86.1965 L390.9048,82.9245 L395.6138,77.8045 L393.1878,74.5335 L390.9048,70.9775 L390.1918,66.4255 L391.3328,66.7105 L393.4738,63.2965 L391.9038,61.4475 L393.6168,59.5975 L390.4768,58.8865 L389.7638,55.7565 L385.9108,53.9075 L382.4858,52.9125 L378.0618,53.4815 L378.9178,60.5925 L380.6298,61.4465 L379.6318,64.4325 L377.4918,64.7165 L373.7808,76.0955 L369.9278,77.3765 L367.9298,70.8335 L369.9278,67.4195 L365.7898,61.0185 L362.9358,59.4545 L360.0808,62.5845 L360.9368,68.8415 L358.5118,60.5915 L356.7998,57.0355 L355.5158,54.6185 L352.9468,53.3385 L353.2318,50.0665 L355.2298,49.6395 L351.9478,42.6705 L350.3778,38.6865 L348.6648,34.5625 L346.2398,32.1445 L344.2418,29.1575 L347.2378,27.4505 L344.5278,28.0195 L347.5238,25.4595 L348.3798,22.8995 L347.0958,20.4815 L345.5258,19.2015 L347.3808,18.3475 L352.0898,18.3475 L354.0878,19.2015 L356.7998,10.8095 L359.7958,6.6845 L360.5098,2.8445 L355.5158,1.7075 L353.0898,2.1335 L350.3778,0.0005 L343.3848,0.0005 L340.8168,2.8445 L344.3848,5.6885 L340.1028,5.6885 L339.9598,11.0935 L340.8168,16.4985 L340.3888,18.9165 L342.5288,21.0495 L341.8158,23.8945 L343.1008,27.3075 L342.3868,29.4415 L341.1018,31.8595 L339.8178,34.8465 L339.9598,36.6955 L338.3908,36.4115 L337.3918,41.5325 L338.8188,43.0965 L336.9638,46.9365 L337.2498,50.2085 L340.2468,53.3385 L342.9568,54.3345 L343.5278,55.6135 L347.3808,55.7555 L345.2408,58.1735 L344.5278,63.0105 L346.9528,61.1615 L347.9528,65.1435 L344.6698,69.5535 L341.9588,70.2645 L340.5318,73.9635 L342.1008,76.9495 L341.5308,78.5135 L338.3908,77.3765 L339.1038,72.6825 L338.6758,69.5525 L336.3928,68.5565 L334.9658,66.4225 L336.8218,66.5655 L340.3888,64.4325 L341.8158,63.7215 L339.1038,62.5845 L339.5328,59.1705 L336.6788,57.1785 L332.8258,53.0545 L330.3998,54.9035 L331.5408,57.7485 L329.2578,60.0245 L326.2608,62.0155 L330.3998,65.4285 L333.1108,65.0025 L333.8238,66.2825 L332.1118,67.2785 L329.4008,68.7015 L330.6848,70.8355 L331.5408,72.1155 L329.5428,73.5375 L322.4078,73.3945 L318.2698,74.6745 L313.2748,72.3995 L309.2798,69.5545 C309.2798,69.5545 306.5678,69.9815 306.4258,69.4125 C306.2838,68.8425 303.9998,65.7135 303.9998,65.7135 L303.5718,63.7225 L301.7158,62.1585 L298.0058,64.1495 L294.5808,66.1405 C294.5808,66.1405 292.1558,68.5585 293.4398,68.7015 C294.7248,68.8435 298.0058,69.6975 298.0058,69.6975 L300.7178,66.2835 L300.0038,70.4085 L297.1498,71.5465 L296.0088,75.8125 L297.7208,81.6445 L295.0098,81.5025 L293.7258,76.2385 L290.4428,75.9545 L288.0168,72.9675 L282.7378,73.2525 L278.4558,73.8215 L273.8898,74.3895 L266.8978,73.6785 L269.0388,69.8385 L272.6048,69.1285 L271.0358,65.5715 L266.7548,62.7275 L261.1888,63.0115 L256.0518,60.3085 L253.6268,58.6015 L249.7738,56.7525 C249.7738,56.7525 246.4908,55.6145 246.0628,55.1875 C245.6348,54.7605 243.7788,53.4815 242.2098,53.4815 C240.6408,53.4815 238.2148,53.3385 238.2148,53.3385 L237.7868,57.3215 L233.9338,57.3215 L235.0748,54.0495 L233.0778,52.7705 C233.0778,52.7705 233.5058,50.3525 232.9348,50.4945 C232.3638,50.6355 228.9388,52.7705 228.9388,52.7705 L228.7968,56.3265 L227.3698,57.0375 L224.3718,51.9175 L222.6598,47.7925 L219.3778,44.6625 C219.3778,44.6625 216.8098,48.3605 217.2378,48.5035 C217.6658,48.6455 219.6638,49.4995 219.6638,49.4995 L216.5238,52.4865 L214.0978,51.9175 L214.6688,49.4995 L212.5288,49.4995 L209.1038,52.3435 L206.1068,54.3345 L200.5418,56.1835 L199.1148,58.3175 L197.6868,56.1835 L196.8308,54.7605 L194.1198,56.3255 L192.9778,58.3165 L195.1188,61.0195 L194.5478,63.1535 L190.8378,63.2965 L186.9848,62.5855 L184.7018,61.3045 L183.1318,60.1675 L181.4188,57.7495 L179.1368,57.3225 L176.2818,55.7575 L173.1428,55.1925 Z" id="Stroke-12" stroke="#E6E7E7"></path>
            <g id="Group-16" transform="translate(0.000000, 37.000000)">
                <mask id="mask-6" fill="white">
                    <use xlink:href="#path-5"></use>
                </mask>
                <g id="Clip-15"></g>
                <polygon id="Fill-14" fill="#FFFFFF" mask="url(#mask-6)" points="-5 165 220 165 220 -5 -5 -5"></polygon>
            </g>
            <g id="Group-19" transform="translate(0.000000, 37.000000)">
                <mask id="mask-8" fill="white">
                    <use xlink:href="#path-7"></use>
                </mask>
                <g id="Clip-18"></g>
                <path d="M171.2009,17.5402 L165.6369,14.5452 L160.0729,12.4062 L156.6489,15.4002 L150.6569,11.9782 L140.8129,10.2682 L134.8209,10.2682 L130.5409,8.5562 L130.1129,5.5612 L124.9769,5.5612 L120.6969,3.4222 L118.9849,2.9942 L116.4169,0.4282 L112.5649,0.0002 L110.4249,2.9942 L104.4319,5.1342 L100.1529,7.2722 L97.5849,11.9782 L93.3049,12.8342 L90.7369,18.3952 L89.8809,23.5292 L85.5999,26.5232 L79.6089,26.9512 L77.4689,30.8022 L81.7479,35.5082 L86.0289,38.5022 L89.0249,43.6362 L92.4489,44.9192 L95.4449,45.7742 C95.4449,45.7742 95.0159,48.3422 96.3009,48.3422 C97.5849,48.3422 99.7239,47.9142 99.7239,47.9142 L99.2969,52.6202 L95.8719,50.9082 C95.8719,50.9082 97.1569,52.6202 95.8719,52.6202 L90.3079,52.6202 L87.7409,52.6202 L88.1689,49.1972 L84.3169,49.6252 L81.3209,51.7642 L79.1799,53.9032 L75.7569,56.4702 L72.7609,58.1812 L77.8959,63.3142 L79.1799,66.7372 L82.1769,68.0202 L89.0249,67.1652 L92.0199,68.8762 L98.4409,66.7372 L97.5849,69.3042 L99.2969,71.4432 L98.0129,75.2932 L94.1599,76.5762 L89.4519,79.9992 L86.4559,79.5712 L83.4609,82.9932 L82.1769,85.5612 C80.8919,88.1272 78.7519,90.2672 78.7519,90.2672 L78.7519,96.2562 L82.1769,96.2562 L84.3169,98.3952 L83.0329,99.6782 L77.0399,100.5332 L74.9009,102.6732 L79.8929,105.2392 L81.7479,102.8152 L81.7479,100.3922 L83.0329,100.5342 L83.8879,101.8172 L85.4569,103.1022 L88.1689,105.5252 L92.0199,105.2402 L93.1609,103.1022 L95.3019,104.5272 L95.5879,107.3792 L94.3039,109.8032 L96.0149,112.6552 L95.7299,114.2242 L100.2959,111.3712 L101.8649,112.6552 L105.0039,112.7982 L106.0019,115.9362 L107.8569,111.8002 L108.9979,113.5122 L113.4209,111.5162 L111.1379,114.9372 L110.9949,117.5052 L110.4249,120.9272 L108.1419,123.0662 L106.5729,125.3482 L106.4299,126.3472 L104.2899,126.7742 L101.0089,129.1982 C101.0089,129.1982 99.8679,131.1942 99.8679,131.7652 C99.8679,132.3362 100.1529,132.9052 100.1529,132.9052 L98.2979,133.0482 L97.8689,132.4782 L94.1599,132.7632 L93.0189,135.1862 L91.3069,136.8972 C91.3069,136.8972 89.7379,136.8972 89.7379,137.3252 C89.7379,137.7532 89.5959,139.1802 89.5959,139.1802 L88.0259,138.6082 L85.3149,139.7492 L84.3169,141.3172 L80.4649,143.6002 L77.4689,145.1682 L75.0429,145.5962 L75.6139,146.4512 L74.1869,148.3062 L72.4749,147.7342 L69.3359,150.1582 L66.6249,151.5852 L62.6309,152.0132 L54.9279,156.0062 L51.2179,156.1482 L49.3629,154.5802 L47.6509,155.8642 L46.0809,156.0072 L43.0849,156.5772 L40.9449,156.7212 L39.8049,157.5762 L38.2339,157.4332 L34.9529,157.2902 L35.3809,158.4312 L31.3869,158.0032 L26.1079,157.0042 L22.8259,157.0042 L18.6889,156.8612 L3.7089,152.0132 L1.1409,150.7292 L-0.0001,151.3002 L0.5699,152.5832 L3.9939,152.5832 L17.5479,157.2892 L18.1179,158.2882 L19.9729,157.4332 L24.9659,157.5752 L33.9539,159.0012 L35.9519,159.8572 L37.6639,158.7172 L38.2339,158.0042 L39.9469,158.2892 L39.3759,160.0002 L41.3729,158.4322 L41.2299,157.2912 L45.6539,156.8632 L47.5079,157.1482 L49.6479,156.2932 L50.0759,156.1492 L50.2189,157.1482 L53.6419,157.1482 L54.0709,156.4362 L60.0619,154.5812 L61.7749,153.1552 L62.4889,154.0112 L64.0569,152.3002 L65.9119,152.5842 L67.9089,151.7282 L68.6219,152.3002 L71.1909,150.7312 L73.1879,148.7352 L73.1879,149.5912 L75.8989,148.8782 L78.3249,147.0232 L78.7519,146.0252 L78.7519,145.3122 L80.0359,144.6002 L82.0339,144.4572 L82.4619,143.3162 L84.3169,142.1762 L85.5999,141.8912 L87.0279,140.6072 L89.1669,140.7502 L89.8809,139.7522 L90.5939,138.6112 L91.7359,138.8962 L92.5919,136.7582 L93.4479,138.3252 L95.1589,136.7582 L96.5859,134.7612 L97.5849,136.0452 L99.0119,135.0462 L102.0079,133.9052 L103.5759,132.7652 L103.2919,134.9042 L105.7169,132.0532 L108.9979,130.4842 L108.5699,129.2002 L110.5679,128.0612 L112.5649,126.4922 L114.7049,124.6382 L115.7029,122.6422 L116.8449,121.5012 C116.8449,121.5012 119.1279,119.7902 119.5549,119.3622 C119.9839,118.9352 123.5499,116.2252 123.5499,116.2252 L124.5489,114.0862 L127.1169,113.0872 L126.6889,111.6612 L123.8359,110.9482 L125.4049,107.2402 L127.2599,105.1022 L128.6859,105.5292 L129.8279,103.5332 L128.5439,101.3952 L130.3979,101.3952 L132.8239,97.8292 L134.3929,95.9752 C134.3929,95.9752 136.8179,95.4042 137.2459,95.4042 C137.6739,95.4042 140.2419,95.9752 140.2419,95.9752 L138.6729,96.5462 L137.1039,96.1182 L134.9639,97.6862 L133.8219,98.9702 L134.8209,100.6812 L134.1079,103.3912 L132.5379,105.3872 L133.3939,106.5272 L135.6769,106.3842 L133.5369,107.6682 L132.2529,108.3802 L132.9659,109.9482 L136.3899,109.3782 L138.6729,107.6672 L140.0999,105.8122 L142.9529,103.2462 L143.8089,104.3872 L146.5199,101.6772 L146.8049,98.9672 L145.0929,98.3962 L145.2359,96.8282 L147.6609,94.9742 C147.6609,94.9742 147.3759,96.9702 147.8039,96.6852 C148.2319,96.4002 150.2289,95.9732 150.2289,95.9732 L152.5119,95.5452 L151.9409,97.1132 L154.0809,98.3962 L151.7979,100.5352 L154.6519,99.9652 L157.2199,100.9632 L159.2169,101.9622 L161.9279,101.8182 L161.7849,103.2452 L167.3489,102.9602 L170.9159,103.3882 L172.4849,104.8142 L176.7649,104.9572 L178.7619,103.9592 L177.9059,106.8112 L181.1879,107.9512 L183.1849,108.2352 L184.3259,110.8032 L186.0379,114.3682 L188.3209,115.3662 L190.3179,115.2242 L191.0319,113.7972 L189.4619,111.8012 L192.1729,113.7972 L193.3139,115.0812 L194.7409,115.9362 L193.8849,109.6622 L194.8839,111.5162 L196.8809,115.2242 L198.4499,116.5072 L196.7379,117.5062 L195.1689,118.2182 L192.1729,116.0792 L190.4609,117.0772 L191.7449,121.4982 L193.1719,121.7832 L194.1699,124.3512 L196.4529,129.3412 L196.3099,125.3482 L195.4539,122.2102 L192.7439,120.0712 L195.7399,120.6422 L195.5969,118.9312 L196.3099,118.3602 L197.3089,121.3542 L196.8809,124.4922 L199.1639,122.2102 L199.1639,120.0712 L198.0219,117.5052 L199.4489,117.6472 L200.7329,119.2162 L201.1609,121.2122 L201.8739,124.0632 L199.5919,124.7762 L197.8799,125.7742 L198.8779,129.0552 L199.7339,126.9152 L201.3039,128.1982 L202.8729,126.7722 L202.7299,125.0612 L204.4419,127.3432 L205.0129,128.9112 L202.7299,129.6242 L199.8769,129.6242 L200.0199,132.6192 L201.3039,133.9022 L201.7319,136.1842 L202.8729,138.4662 L205.5839,138.8942 L205.2979,136.1842 L204.7279,133.0472 L203.5859,130.6232 L203.8719,130.0522 L205.8689,131.9062 L206.4399,130.0522 L206.0119,133.6172 L207.7239,133.9022 L208.7219,132.3342 L207.8659,135.3282 L209.1499,137.6102 L210.1489,136.7552 L210.7199,139.0372 L210.7199,139.8932 L213.4299,137.8962 L214.4289,135.3292 L214.2859,133.1902 L214.9999,131.6222 L209.4359,127.9152 L206.7249,124.4922 L205.1559,120.6422 L202.1599,115.9362 L202.0169,113.6542 L196.1679,107.2372 L196.1679,105.8112 L194.7409,105.0992 L192.0299,105.9542 L191.6019,107.2372 L190.1759,107.5222 L190.0329,108.9482 L187.4649,110.5172 L187.0369,108.2352 L183.7559,105.5252 L181.6159,102.8152 L181.1879,101.1042 L179.4759,99.6782 L177.6209,100.8182 L173.6259,100.1052 L173.7689,18.5382 L171.2009,17.5402 Z" id="Stroke-17" stroke="#E6E7E7" mask="url(#mask-8)"></path>
            </g>
        </g>
        <circle id="Oval-Copy-36" stroke="#FFFFFF" fill="#E75F52" cx="227.5" cy="184.5" r="3"></circle>
        <circle id="Oval-Copy-64" stroke="#FFFFFF" fill="#E75F52" cx="232.5" cy="193.5" r="3"></circle>
        <circle id="Oval-Copy-37" stroke="#FFFFFF" fill="#E75F52" cx="286.5" cy="144.5" r="3"></circle>
        <circle id="Oval-Copy-85" stroke="#FFFFFF" fill="#E75F52" cx="285.5" cy="154.5" r="3"></circle>
        <circle id="Oval-Copy-65" stroke="#FFFFFF" fill="#E75F52" cx="274.5" cy="139.5" r="3"></circle>
        <circle id="Oval-Copy-81" stroke="#FFFFFF" fill="#E75F52" cx="267.5" cy="148.5" r="3"></circle>
        <circle id="Oval-Copy-38" stroke="#FFFFFF" fill="#E75F52" cx="276.5" cy="153.5" r="3"></circle>
        <circle id="Oval-Copy-39" stroke="#FFFFFF" fill="#E75F52" cx="293.5" cy="155.5" r="3"></circle>
        <circle id="Oval-Copy-62" stroke="#FFFFFF" fill="#E75F52" cx="312.5" cy="141.5" r="3"></circle>
        <circle id="Oval-Copy-40" stroke="#FFFFFF" fill="#E75F52" cx="308.5" cy="156.5" r="3"></circle>
        <circle id="Oval-Copy-41" stroke="#FFFFFF" fill="#E75F52" cx="301.5" cy="166.5" r="3"></circle>
        <circle id="Oval-Copy-56" stroke="#FFFFFF" fill="#E75F52" cx="292.5" cy="176.5" r="3"></circle>
        <circle id="Oval-Copy-42" stroke="#FFFFFF" fill="#E75F52" cx="383.5" cy="214.5" r="3"></circle>
        <circle id="Oval-Copy-57" stroke="#FFFFFF" fill="#E75F52" cx="425.5" cy="206.5" r="3"></circle>
        <circle id="Oval-Copy-43" stroke="#FFFFFF" fill="#E75F52" cx="284.5" cy="164.5" r="3"></circle>
        <circle id="Oval-Copy-83" stroke="#FFFFFF" fill="#E75F52" cx="279.5" cy="174.5" r="3"></circle>
        <circle id="Oval-Copy-58" stroke="#FFFFFF" fill="#E75F52" cx="292.5" cy="134.5" r="3"></circle>
        <circle id="Oval-Copy-58" stroke="#FFFFFF" fill="#E75F52" cx="293.5" cy="123.5" r="3"></circle>
        <circle id="Oval-Copy-68" stroke="#FFFFFF" fill="#E75F52" cx="305.5" cy="129.5" r="3"></circle>
        <circle id="Oval-Copy-44" stroke="#FFFFFF" fill="#E75F52" cx="300.5" cy="144.5" r="3"></circle>
        <circle id="Oval-Copy-45" stroke="#FFFFFF" fill="#E75F52" cx="418.5" cy="270.5" r="3"></circle>
        <circle id="Oval-Copy-59" stroke="#FFFFFF" fill="#E75F52" cx="412.5" cy="277.5" r="3"></circle>
        <circle id="Oval-Copy-66" stroke="#FFFFFF" fill="#E75F52" cx="412.5" cy="271.5" r="3"></circle>
        <circle id="Oval-Copy-46" stroke="#FFFFFF" fill="#E75F52" cx="423.5" cy="266.5" r="3"></circle>
        <circle id="Oval-Copy-46" stroke="#FFFFFF" fill="#E75F52" cx="423.5" cy="263.5" r="3"></circle>
        <circle id="Oval-Copy-47" stroke="#FFFFFF" fill="#E75F52" cx="427.5" cy="260.5" r="3"></circle>
        <circle id="Oval-Copy-47" stroke="#FFFFFF" fill="#E75F52" cx="420.5" cy="243.5" r="3"></circle>
        <circle id="Oval-Copy-73" stroke="#FFFFFF" fill="#E75F52" cx="430.5" cy="236.5" r="3"></circle>
        <circle id="Oval-Copy-47" stroke="#FFFFFF" fill="#E75F52" cx="399.5" cy="255.5" r="3"></circle>
        <circle id="Oval-Copy-84" stroke="#FFFFFF" fill="#E75F52" cx="389.5" cy="257.5" r="3"></circle>
        <circle id="Oval-Copy-82" stroke="#FFFFFF" fill="#E75F52" cx="390.5" cy="269.5" r="3"></circle>
        <circle id="Oval-Copy-48" stroke="#FFFFFF" fill="#E75F52" cx="256.5" cy="291.5" r="3"></circle>
        <circle id="Oval-Copy-48" stroke="#FFFFFF" fill="#E75F52" cx="246.5" cy="289.5" r="3"></circle>
        <circle id="Oval-Copy-48" stroke="#FFFFFF" fill="#E75F52" cx="245.5" cy="286.5" r="3"></circle>
        <circle id="Oval-Copy-48" stroke="#FFFFFF" fill="#E75F52" cx="247.5" cy="283.5" r="3"></circle>
        <circle id="Oval-Copy-48" stroke="#FFFFFF" fill="#E75F52" cx="243.5" cy="282.5" r="3"></circle>
        <circle id="Oval-Copy-48" stroke="#FFFFFF" fill="#E75F52" cx="241.5" cy="284.5" r="3"></circle>
        <circle id="Oval-Copy-74" stroke="#FFFFFF" fill="#E75F52" cx="247.5" cy="280.5" r="3"></circle>
        <circle id="Oval-Copy-75" stroke="#FFFFFF" fill="#E75F52" cx="252.5" cy="287.5" r="3"></circle>
        <circle id="Oval-Copy-76" stroke="#FFFFFF" fill="#E75F52" cx="252.5" cy="290.5" r="3"></circle>
        <circle id="Oval-Copy-72" stroke="#FFFFFF" fill="#E75F52" cx="238.5" cy="276.5" r="3"></circle>
        <circle id="Oval-Copy-77" stroke="#FFFFFF" fill="#E75F52" cx="239.5" cy="280.5" r="3"></circle>
        <circle id="Oval-Copy-61" stroke="#FFFFFF" fill="#E75F52" cx="267.5" cy="295.5" r="3"></circle>
        <circle id="Oval-Copy-49" stroke="#FFFFFF" fill="#E75F52" cx="266.5" cy="276.5" r="3"></circle>
        <circle id="Oval-Copy-49" stroke="#FFFFFF" fill="#E75F52" cx="243.5" cy="234.5" r="3"></circle>
        <circle id="Oval-Copy-55" stroke="#FFFFFF" fill="#E75F52" cx="298.5" cy="319.5" r="3"></circle>
        <circle id="Oval-Copy-50" stroke="#FFFFFF" fill="#E75F52" cx="305.5" cy="267.5" r="3"></circle>
        <circle id="Oval-Copy-78" stroke="#FFFFFF" fill="#E75F52" cx="302.5" cy="257.5" r="3"></circle>
        <circle id="Oval-Copy-51" stroke="#FFFFFF" fill="#E75F52" cx="323.5" cy="266.5" r="3"></circle>
        <circle id="Oval-Copy-51" stroke="#FFFFFF" fill="#E75F52" cx="333.5" cy="264.5" r="3"></circle>
        <circle id="Oval-Copy-52" stroke="#FFFFFF" fill="#E75F52" cx="316.5" cy="275.5" r="3"></circle>
        <circle id="Oval-Copy-52" stroke="#FFFFFF" fill="#E75F52" cx="324.5" cy="286.5" r="3"></circle>
        <circle id="Oval-Copy-52" stroke="#FFFFFF" fill="#E75F52" cx="335.5" cy="316.5" r="3"></circle>
        <circle id="Oval-Copy-71" stroke="#FFFFFF" fill="#E75F52" cx="361.5" cy="315.5" r="3"></circle>
        <circle id="Oval-Copy-86" stroke="#FFFFFF" fill="#E75F52" cx="394.5" cy="328.5" r="3"></circle>
        <circle id="Oval-Copy-53" stroke="#FFFFFF" fill="#E75F52" cx="330.5" cy="277.5" r="3"></circle>
        <circle id="Oval-Copy-60" stroke="#FFFFFF" fill="#E75F52" cx="371.5" cy="261.5" r="3"></circle>
        <circle id="Oval-Copy-79" stroke="#FFFFFF" fill="#E75F52" cx="381.5" cy="253.5" r="3"></circle>
        <circle id="Oval-Copy-63" stroke="#FFFFFF" fill="#E75F52" cx="363.5" cy="264.5" r="3"></circle>
        <circle id="Oval-Copy-54" stroke="#FFFFFF" fill="#E75F52" cx="311.5" cy="287.5" r="3"></circle>
        <circle id="Oval-Copy-54" stroke="#FFFFFF" fill="#E75F52" cx="302.5" cy="278.5" r="3"></circle>
        <circle id="Oval-Copy-54" stroke="#FFFFFF" fill="#E75F52" cx="302.5" cy="283.5" r="3"></circle>
        <circle id="Oval-Copy-67" stroke="#FFFFFF" fill="#E75F52" cx="314.5" cy="258.5" r="3"></circle>
        <circle id="Oval-Copy-67" stroke="#FFFFFF" fill="#E75F52" cx="314.5" cy="248.5" r="3"></circle>
        <circle id="Oval-Copy-69" stroke="#FFFFFF" fill="#E75F52" cx="325.5" cy="256.5" r="3"></circle>
        <circle id="Oval-Copy-70" stroke="#FFFFFF" fill="#E75F52" cx="281.5" cy="130.5" r="3"></circle>
    </g>
</svg>