<?xml version="1.0" encoding="UTF-8"?>
<svg width="202px" height="300px" viewBox="0 0 202 300" version="1.1" xmlns="http://www.w3.org/2000/svg" xmlns:xlink="http://www.w3.org/1999/xlink">
    <!-- Generator: Sketch 64 (93537) - https://sketch.com -->
    <title>144</title>
    <desc>Created with Sketch.</desc>
    <g id="144" stroke="none" stroke-width="1" fill="none" fill-rule="evenodd">
        <g id="Group" transform="translate(0.371398, 2.369880)">
            <polygon id="Fill-1" fill="#FFFFFF" points="67.6286022 161.316437 68.3142301 159.590821 70.219172 158.871754 72.2760557 155.708719 73.951951 154.63012 75.6286022 155.205088 73.8000092 157.002753 75.2476138 158.512221 75.171265 160.022403 73.4953697 162.178888 71.6667766 162.754569 68.4669278 165.63012 67.7049511 165.198538 68.6196255 163.400872"></polygon>
            <polygon id="Stroke-2" points="67.6286022 161.316437 68.3142301 159.590821 70.219172 158.871754 72.2760557 155.708719 73.951951 154.63012 75.6286022 155.205088 73.8000092 157.002753 75.2476138 158.512221 75.171265 160.022403 73.4953697 162.178888 71.6667766 162.754569 68.4669278 165.63012 67.7049511 165.198538 68.6196255 163.400872"></polygon>
            <path d="M60.1781765,108.439885 L58.4403824,107.454822 L57.6925368,106.080919 L58.2651176,103.402735 L59.0441544,101.819229 L58.8570074,101.174124 L56.9298382,103.153877 L55.8596838,102.895391 L55.9851912,105.797251 L58.7315,110.501109 L55.6747647,112.073505 L53.7268015,124.577872 L49.0904559,125.160022 L49.3941985,122.391478 L50.8520147,120.580593 L50.7317059,116.575907 L53.025,110.823291 L51.6161985,108.873904 L52.9158309,105.866131 L51.850875,106.960069 L51.1579853,105.634308 L51.1253088,104.884032 L54.3862721,98.241897 L53.1787279,94.8304706 L59.3798309,81.4588047 L52.1353088,87.8557848 L51.1683824,87.5424905 L50.765125,86.8070267 L49.3815735,86.6603783 L47.9935662,86.4137424 L46.2334926,83.6755653 L49.7707206,82.1846401 L42.1741838,81.679518 L42.1437353,80.9788646 L42.8893529,79.8471539 L48.0537206,79.2450067 L50.8327059,76.129099 L47.4521765,76.3616626 L48.1034779,74.2811813 L48.9798015,72.4932561 L51.8553309,71.6289195 L50.2675515,70.4379569 L52.9834118,65.8718596 L52.9878676,65.8637125 L54.0268309,64.3350142 L53.4015221,63.9698746 L52.2132868,63.9802436 L51.9890074,63.7765653 L51.2968603,63.6328796 L53.2834412,61.8012561 L50.5802059,61.7560766 L48.8357279,58.1661539 L49.5954559,54.9287798 L52.7383382,56.5604282 L53.7149191,55.8708845 L50.0922868,52.9549519 L52.1501618,50.3189843 L50.1524412,49.4450192 L49.9407868,45.7943633 L53.0079191,45.675119 L53.6896691,44.295291 L56.18125,45.55069 L57.6346103,43.6398172 L61.4176544,42.9413858 L56.2406618,38.382695 L59.6315882,38.4004706 L57.4444926,34.3757873 L62.4625588,32.8278322 L61.7689265,29.0460815 L64.6385147,28.0321339 L62.2843235,26.2693908 L64.3340294,22.2306352 L70.1445,24.3088945 L71.6921765,23.3460516 L75.1410294,24.7155105 L79.8813456,24.0792935 L81.9265956,23.5986127 L85.3212353,23.7171165 L87.5892794,22.2750741 L92.6526471,22.9801713 L91.6604706,20.8633983 L98.0806544,21.1144781 L96.1460588,26.6019419 L97.8496912,26.7863633 L97.6187279,28.8001863 L94.9860441,31.6087249 L92.3808382,32.6123035 L90.4997132,35.642296 L84.5964118,39.9824955 L84.5362574,41.0371788 L82.1531029,42.2829494 L82.0506176,44.7922661 L79.4313015,46.698695 L85.7400882,45.6010541 L82.7553897,51.2803459 L82.1181985,51.2551638 L81.78475,49.6642511 L79.1684044,51.6203035 L81.6139412,51.8254631 L78.2341544,56.9685254 L79.0844853,57.0359244 L81.6540441,53.9792686 L82.7286544,54.338483 L83.729,54.1985005 L85.7022132,53.2697274 L87.2847941,51.9047125 L90.2858309,51.4869868 L90.9809485,50.4078621 L95.0833309,49.7464631 L98.8678603,51.503281 L101.776809,50.1871489 L107.905875,51.0507449 L117.938294,50.3086152 L120.095684,52.4290915 L121.084147,56.9011264 L116.763426,63.5343733 L116.121779,68.2700791 L113.359132,76.6468122 L110.955926,78.6450815 L109.679316,83.4059693 L105.435088,88.1320466 L101.999603,88.3157274 L99.4367279,89.0674855 L95.9091544,92.0115628 L99.1225882,90.3828771 L101.979551,89.0682262 L103.783441,89.1482162 L103.807206,90.9013309 L103.037081,91.4827399 L108.023956,94.0950067 L104.341912,97.1449968 L101.810971,96.1910416 L98.1675441,98.8892237 L97.7167574,100.711219 L93.8178603,102.416932 L90.8175662,101.631845 L88.9668897,101.703688 L87.4444632,100.811206 L86.7575147,100.83787 L85.0613088,99.6009868 L87.3954485,102.115488 L90.7351324,103.388663 L94.0220882,103.461246 L95.9455441,103.837496 L97.5184706,103.475318 L99.3624632,104.455937 L102.500147,103.531608 L104.71175,100.788987 L107.453603,100.481618 L108.654463,102.53988 L110.027618,102.436189 L112.551132,104.442605 L115.994787,104.458159 L118.605191,108.465807 L127.454574,115.679722 L130.543985,131.647361 L132.982838,137.788817 L134.622603,141.056558 L138.216272,144.459837 L149.682743,149.651042 L157.096588,159.384643 L159.794625,160.531907 L157.283735,162.484256 L165.274618,175.753712 L160.822449,175.676685 L156.767596,172.577812 L151.426478,173.988747 L156.694816,173.332533 L160.486772,176.492139 L166.042515,180.033919 L170.483544,188.380286 L170.498397,192.388675 L164.948596,198.769361 L172.146331,202.297069 L175.085728,195.567538 L185.078044,195.127593 L191.524221,195.978598 L199.357662,201.937114 L201.183088,209.834648 L198.765772,222.507882 L192.230478,229.378136 L193.847221,230.015835 L190.383515,233.208029 L185.793956,233.638346 L186.848515,234.749318 L186.997787,238.201481 L184.197265,242.019523 L177.826838,242.919411 L180.600625,243.362318 L186.656169,244.980635 L189.067544,246.841144 L197.886478,244.993226 L196.981191,247.333675 L198.094419,252.25158 L193.4655,255.439331 L190.794941,256.145169 L189.336382,259.158867 L189.621559,260.851249 L185.85411,260.697934 L185.539228,260.760149 L183.030566,262.762121 L176.980963,264.952959 L174.623801,268.001468 L164.278728,265.197373 L153.996779,267.503012 L153.017228,269.345745 L149.451037,267.730391 L144.750824,268.064423 L139.897625,264.845565 L140.811081,266.363895 L140.896485,267.111949 L139.987485,268.149598 L136.373765,269.092443 L135.641515,270.524857 L133.021456,269.975296 L132.041162,270.564852 L127.943978,271.375862 L127.706331,274.442146 L117.665,273.731124 L116.954287,275.663476 L109.617676,271.389194 L106.482221,271.161074 L103.516088,272.379441 L99.1664044,273.450418 L97.7635441,275.309446 L95.6521985,275.492386 L94.1015515,278.810491 L94.6711618,279.740004 L93.3485074,280.994663 L94.4647059,282.304129 L93.8639044,284.332024 L91.4636691,285.177104 L91.8431618,287.818997 L86.8859926,287.110196 L85.4289191,285.262279 L81.4431324,284.96676 L81.1728088,283.918002 L80.6002279,283.84764 L79.3919412,285.29783 L76.9716544,283.237346 L73.8503088,283.309189 L72.1102868,284.729752 L67.8118456,284.546812 L66.1661397,288.118959 L63.125,288.83887 L62.0437059,290.785294 L58.9141912,291.909598 L61.0596985,293.730111 L57.8848824,296.259426 L55.1727353,292.356209 L51.8337941,291.083775 L50.2259632,293.10056 L47.6125882,293.904164 L46.5773382,292.545074 L47.2472059,289.860964 L51.6889779,287.774558 C51.6889779,287.774558 52.7353676,288.584087 52.9217721,288.57668 C53.1089191,288.569274 61.3716103,280.451027 61.3716103,280.451027 L61.2431324,277.478805 L63.5067206,277.001087 L67.1820809,275.369438 L67.2080735,273.38376 L71.9565588,269.725698 L71.7931765,265.089979 L72.619,262.542149 L76.58325,263.273169 L79.1684044,260.692009 L77.9549191,258.613009 L78.5586912,256.994693 L88.1789412,255.131221 L91.4636691,255.747441 L92.2679559,255.290461 L95.9344044,256.919146 L104.673132,255.444515 L104.224574,252.024942 L112.043904,243.179378 L114.007463,240.090875 L111.778037,242.23283 L111.217338,242.255049 L110.135301,243.218633 L108.425728,243.532668 L107.827154,244.407373 L106.373051,245.42058 L105.195956,245.041368 L104.499353,244.536987 L104.089412,244.588092 L104.00475,245.229493 L102.549162,246.20789 L101.695118,246.382683 L100.633132,247.806209 L100.399941,249.33861 L100.264779,249.663014 L99.5355,249.266767 L98.6985368,249.830401 L95.8504853,249.800034 L93.7398824,249.492665 L92.7343382,249.637832 L91.9033162,248.60759 L91.8505882,248.255042 L90.6549265,247.450698 L90.4091103,246.964832 L90.0073382,247.192952 L89.2981103,247.255907 L89.0396691,246.486373 L88.4247574,246.120493 L88.4893676,245.01989 L86.7292941,242.430583 L85.7943015,242.466875 L85.2469706,242.806832 L83.8329706,243.004585 L83.3925809,244.084451 L81.9369926,244.211842 L81.4713529,243.840037 L80.2199926,244.349603 L80.0981985,244.992486 L79.1231029,244.959897 L78.0143309,244.436259 L78.0187868,243.691907 L77.6236985,243.211226 L77.9913088,243.054949 L78.5609191,242.359481 L79.3941691,242.575009 L79.7432132,242.844605 L81.4869485,241.606982 L81.4565,240.899663 L80.964125,240.777456 L80.4078824,240.905588 L79.8442132,240.0057 L77.9734853,240.043473 L77.2828235,240.53082 L76.4518015,239.500578 L76.7882206,239.487246 L76.9879926,238.912503 L76.2126691,238.305171 L76.2334632,237.914109 L76.4829926,237.621553 L76.5297794,236.981633 L75.9675956,236.96756 L75.1707353,237.601555 L74.4778456,237.167535 L73.7314853,237.232712 L73.4604191,237.030515 L73.5020074,237.985211 L73.8555074,238.361461 L73.2918382,238.312578 L71.8704118,238.368126 L70.2165368,238.219997 L68.6361838,238.919169 L68.5886544,239.559089 L68.7913971,239.905712 L68.3398676,240.738201 L67.4271544,241.269987 L64.9979559,241.400341 L63.8876985,242.577231 L63.0826691,242.148396 L61.6493603,241.920276 L61.3025441,241.686231 L61.2728382,241.013722 L61.6285662,240.574518 L62.1892647,240.553039 L62.7596176,240.743386 L63.7718456,240.774493 L63.693125,239.821279 L63.2289706,239.485024 L62.0719265,239.565755 L61.3864632,239.30875 L60.6356471,239.267274 L60.2427868,238.856954 L59.8692353,238.871027 L59.4281029,239.065817 L59.0842574,238.902134 L58.6349559,238.919909 L58.6624338,239.556126 L58.2272426,239.006565 L59.2268456,237.868929 L60.1618382,237.832638 L60.4061691,237.433428 L60.5227647,235.798817 L59.7927426,234.516014 L59.0731176,234.331593 L56.6290662,234.107917 L56.7196691,233.607979 L58.8213603,232.326658 L59.9316176,232.282959 L61.0693529,231.637855 L61.004,230.13656 L61.1473309,229.780308 L62.7536765,230.168408 L63.0945515,230.70686 L63.8349706,230.677974 L64.7016397,229.892146 L65.4078971,230.315797 L66.3577426,230.228401 L66.2708529,229.429982 L66.8412059,229.157423 L68.7750588,227.328022 L69.2458971,227.208777 L69.5444412,226.746613 L71.3357059,226.52664 L71.7760956,226.910296 L72.3553603,226.836972 L72.9286838,226.614777 L74.1518235,225.514174 L75.2093529,225.473438 L75.0845882,225.026827 L76.3055,223.8766 L76.962,224.352097 L78.7502941,222.829323 L79.5159632,222.774515 L81.3079706,220.123735 L82.9313971,213.59566 L82.9373382,213.118683 L81.0680956,211.538139 C81.0680956,211.538139 81.4958603,209.792431 82.7836103,208.965867 C82.8274265,208.738488 82.7932647,207.963029 82.7932647,207.963029 L84.1701324,207.332737 L83.8983235,206.566907 L82.7264265,207.640106 L82.0565588,207.465313 L81.6384485,206.980189 L81.5233382,206.158069 L81.2819779,205.465563 L80.9314485,204.727877 L81.443875,204.332371 L81.4008015,203.331755 L80.9782353,202.746643 L81.8991176,202.610363 L82.7932647,201.848977 L82.3706985,201.263865 L80.7027132,201.278678 L79.5798309,201.648261 L78.5698309,201.562346 L77.4254118,201.431992 L76.7793088,201.808241 L75.8747647,201.717882 L75.2353456,202.243742 L73.6527647,202.380762 C73.6527647,202.380762 70.8366471,204.019077 72.0620147,205.399645 C71.6951471,205.489264 71.4842353,205.522593 71.4842353,205.522593 L69.9796324,204.403473 C69.9796324,204.403473 69.4048235,204.601226 69.4189338,204.926371 C69.4330441,205.251515 69.4412132,205.427049 69.4412132,205.427049 L67.2206985,205.538146 C67.2206985,205.538146 67.9930515,203.804289 69.1798015,203.056974 C70.3650662,202.308919 72.8091176,201.260902 73.1848971,200.144004 C73.7849559,199.318922 73.9683897,199.286333 73.9683897,199.286333 L74.6464265,199.034513 L75.3534265,197.628762 L75.3058971,196.528159 L76.0374044,196.299299 L76.0960735,195.82084 L79.2545515,194.144012 L79.5367574,193.932186 L79.5204191,192.956012 L80.3180221,192.398303 L82.0899779,192.354605 L83.6361691,191.36658 L84.4263456,191.260668 L86.7523162,189.917131 L86.7627132,188.939476 L87.3211838,188.992802 L88.9550074,190.031932 L89.5721471,190.208206 L90.4098529,189.974902 L91.3077132,189.914909 L92.4974338,189.266842 L93.0514485,189.220181 L93.7257721,188.893555 L94.8731618,188.472867 L95.7071544,188.766164 L96.4809926,187.683336 L96.8998456,188.795049 L98.1051618,189.098715 L100.078375,190.023785 L100.295971,189.539401 L98.7156176,186.067982 L101.87261,184.365972 L100.400684,180.965655 L102.99475,176.028493 L101.433706,173.633236 L101.404,169.27452 L104.767449,167.439934 L103.377213,164.652875 L105.620007,163.236755 L104.379787,160.981481 L103.862904,161.161458 L102.656103,162.253914 L101.286662,160.482284 L98.7133897,164.197376 L96.9362353,162.512401 L97.6647721,159.879396 L95.6158088,161.005181 L89.0277868,150.764236 L90.4856029,145.294548 L93.0432794,141.987553 L94.0926397,138.088039 L99.3320147,135.528358 L100.564066,134.62773 L90.7128529,134.6618 L90.6445294,137.971757 L86.9030735,138.418368 L83.8121765,141.646114 L81.8931765,141.369852 L75.4314044,137.713271 L74.7786176,138.540575 L76.3857059,140.181852 L75.7091544,144.116917 L67.0432059,138.491693 L65.0811324,139.670805 L66.7647132,145.518964 L64.9407721,144.987919 L64.4847868,141.798688 L61.5498456,138.856092 L60.903,137.377757 L60.7708088,134.326286 L62.6259412,134.35369 L63.8045221,137.114087 L63.5119191,134.018917 L62.99875,133.187169 L64.1401985,130.185321 L66.6146985,127.382707 L67.1716838,124.354196 L68.2849118,123.158049 L68.8545221,121.632313 L70.7594118,120.355436 L70.6844044,116.198917 L65.8156103,112.629732 L66.9370074,110.381124 L66.5248382,109.444944 L66.2069853,108.204358 L66.5686544,106.787498 L66.6206397,105.532099 L67.7561471,104.83663 L68.2292132,104.76775 L69.2622353,105.379525 L71.0364191,104.758862 L68.9726029,103.586416 L67.3335809,103.650111 L65.8720515,104.158196 L64.7966985,108.461363 L64.6890147,108.985742 L64.0896985,108.122887 L60.4692941,105.81873 L60.2568971,106.110545 L60.1781765,108.439885 Z" id="Fill-3" fill="#FFFFFF"></path>
            <path d="M60.1781765,108.439885 L58.4403824,107.454822 L57.6925368,106.080919 L58.2651176,103.402735 L59.0441544,101.819229 L58.8570074,101.174124 L56.9298382,103.153877 L55.8596838,102.895391 L55.9851912,105.797251 L58.7315,110.501109 L55.6747647,112.073505 L53.7268015,124.577872 L49.0904559,125.160022 L49.3941985,122.391478 L50.8520147,120.580593 L50.7317059,116.575907 L53.025,110.823291 L51.6161985,108.873904 L52.9158309,105.866131 L51.850875,106.960069 L51.1579853,105.634308 L51.1253088,104.884032 L54.3862721,98.241897 L53.1787279,94.8304706 L59.3798309,81.4588047 L52.1353088,87.8557848 L51.1683824,87.5424905 L50.765125,86.8070267 L49.3815735,86.6603783 L47.9935662,86.4137424 L46.2334926,83.6755653 L49.7707206,82.1846401 L42.1741838,81.679518 L42.1437353,80.9788646 L42.8893529,79.8471539 L48.0537206,79.2450067 L50.8327059,76.129099 L47.4521765,76.3616626 L48.1034779,74.2811813 L48.9798015,72.4932561 L51.8553309,71.6289195 L50.2675515,70.4379569 L52.9834118,65.8718596 L52.9878676,65.8637125 L54.0268309,64.3350142 L53.4015221,63.9698746 L52.2132868,63.9802436 L51.9890074,63.7765653 L51.2968603,63.6328796 L53.2834412,61.8012561 L50.5802059,61.7560766 L48.8357279,58.1661539 L49.5954559,54.9287798 L52.7383382,56.5604282 L53.7149191,55.8708845 L50.0922868,52.9549519 L52.1501618,50.3189843 L50.1524412,49.4450192 L49.9407868,45.7943633 L53.0079191,45.675119 L53.6896691,44.295291 L56.18125,45.55069 L57.6346103,43.6398172 L61.4176544,42.9413858 L56.2406618,38.382695 L59.6315882,38.4004706 L57.4444926,34.3757873 L62.4625588,32.8278322 L61.7689265,29.0460815 L64.6385147,28.0321339 L62.2843235,26.2693908 L64.3340294,22.2306352 L70.1445,24.3088945 L71.6921765,23.3460516 L75.1410294,24.7155105 L79.8813456,24.0792935 L81.9265956,23.5986127 L85.3212353,23.7171165 L87.5892794,22.2750741 L92.6526471,22.9801713 L91.6604706,20.8633983 L98.0806544,21.1144781 L96.1460588,26.6019419 L97.8496912,26.7863633 L97.6187279,28.8001863 L94.9860441,31.6087249 L92.3808382,32.6123035 L90.4997132,35.642296 L84.5964118,39.9824955 L84.5362574,41.0371788 L82.1531029,42.2829494 L82.0506176,44.7922661 L79.4313015,46.698695 L85.7400882,45.6010541 L82.7553897,51.2803459 L82.1181985,51.2551638 L81.78475,49.6642511 L79.1684044,51.6203035 L81.6139412,51.8254631 L78.2341544,56.9685254 L79.0844853,57.0359244 L81.6540441,53.9792686 L82.7286544,54.338483 L83.729,54.1985005 L85.7022132,53.2697274 L87.2847941,51.9047125 L90.2858309,51.4869868 L90.9809485,50.4078621 L95.0833309,49.7464631 L98.8678603,51.503281 L101.776809,50.1871489 L107.905875,51.0507449 L117.938294,50.3086152 L120.095684,52.4290915 L121.084147,56.9011264 L116.763426,63.5343733 L116.121779,68.2700791 L113.359132,76.6468122 L110.955926,78.6450815 L109.679316,83.4059693 L105.435088,88.1320466 L101.999603,88.3157274 L99.4367279,89.0674855 L95.9091544,92.0115628 L99.1225882,90.3828771 L101.979551,89.0682262 L103.783441,89.1482162 L103.807206,90.9013309 L103.037081,91.4827399 L108.023956,94.0950067 L104.341912,97.1449968 L101.810971,96.1910416 L98.1675441,98.8892237 L97.7167574,100.711219 L93.8178603,102.416932 L90.8175662,101.631845 L88.9668897,101.703688 L87.4444632,100.811206 L86.7575147,100.83787 L85.0613088,99.6009868 L87.3954485,102.115488 L90.7351324,103.388663 L94.0220882,103.461246 L95.9455441,103.837496 L97.5184706,103.475318 L99.3624632,104.455937 L102.500147,103.531608 L104.71175,100.788987 L107.453603,100.481618 L108.654463,102.53988 L110.027618,102.436189 L112.551132,104.442605 L115.994787,104.458159 L118.605191,108.465807 L127.454574,115.679722 L130.543985,131.647361 L132.982838,137.788817 L134.622603,141.056558 L138.216272,144.459837 L149.682743,149.651042 L157.096588,159.384643 L159.794625,160.531907 L157.283735,162.484256 L165.274618,175.753712 L160.822449,175.676685 L156.767596,172.577812 L151.426478,173.988747 L156.694816,173.332533 L160.486772,176.492139 L166.042515,180.033919 L170.483544,188.380286 L170.498397,192.388675 L164.948596,198.769361 L172.146331,202.297069 L175.085728,195.567538 L185.078044,195.127593 L191.524221,195.978598 L199.357662,201.937114 L201.183088,209.834648 L198.765772,222.507882 L192.230478,229.378136 L193.847221,230.015835 L190.383515,233.208029 L185.793956,233.638346 L186.848515,234.749318 L186.997787,238.201481 L184.197265,242.019523 L177.826838,242.919411 L180.600625,243.362318 L186.656169,244.980635 L189.067544,246.841144 L197.886478,244.993226 L196.981191,247.333675 L198.094419,252.25158 L193.4655,255.439331 L190.794941,256.145169 L189.336382,259.158867 L189.621559,260.851249 L185.85411,260.697934 L185.539228,260.760149 L183.030566,262.762121 L176.980963,264.952959 L174.623801,268.001468 L164.278728,265.197373 L153.996779,267.503012 L153.017228,269.345745 L149.451037,267.730391 L144.750824,268.064423 L139.897625,264.845565 L140.811081,266.363895 L140.896485,267.111949 L139.987485,268.149598 L136.373765,269.092443 L135.641515,270.524857 L133.021456,269.975296 L132.041162,270.564852 L127.943978,271.375862 L127.706331,274.442146 L117.665,273.731124 L116.954287,275.663476 L109.617676,271.389194 L106.482221,271.161074 L103.516088,272.379441 L99.1664044,273.450418 L97.7635441,275.309446 L95.6521985,275.492386 L94.1015515,278.810491 L94.6711618,279.740004 L93.3485074,280.994663 L94.4647059,282.304129 L93.8639044,284.332024 L91.4636691,285.177104 L91.8431618,287.818997 L86.8859926,287.110196 L85.4289191,285.262279 L81.4431324,284.96676 L81.1728088,283.918002 L80.6002279,283.84764 L79.3919412,285.29783 L76.9716544,283.237346 L73.8503088,283.309189 L72.1102868,284.729752 L67.8118456,284.546812 L66.1661397,288.118959 L63.125,288.83887 L62.0437059,290.785294 L58.9141912,291.909598 L61.0596985,293.730111 L57.8848824,296.259426 L55.1727353,292.356209 L51.8337941,291.083775 L50.2259632,293.10056 L47.6125882,293.904164 L46.5773382,292.545074 L47.2472059,289.860964 L51.6889779,287.774558 C51.6889779,287.774558 52.7353676,288.584087 52.9217721,288.57668 C53.1089191,288.569274 61.3716103,280.451027 61.3716103,280.451027 L61.2431324,277.478805 L63.5067206,277.001087 L67.1820809,275.369438 L67.2080735,273.38376 L71.9565588,269.725698 L71.7931765,265.089979 L72.619,262.542149 L76.58325,263.273169 L79.1684044,260.692009 L77.9549191,258.613009 L78.5586912,256.994693 L88.1789412,255.131221 L91.4636691,255.747441 L92.2679559,255.290461 L95.9344044,256.919146 L104.673132,255.444515 L104.224574,252.024942 L112.043904,243.179378 L114.007463,240.090875 L111.778037,242.23283 L111.217338,242.255049 L110.135301,243.218633 L108.425728,243.532668 L107.827154,244.407373 L106.373051,245.42058 L105.195956,245.041368 L104.499353,244.536987 L104.089412,244.588092 L104.00475,245.229493 L102.549162,246.20789 L101.695118,246.382683 L100.633132,247.806209 L100.399941,249.33861 L100.264779,249.663014 L99.5355,249.266767 L98.6985368,249.830401 L95.8504853,249.800034 L93.7398824,249.492665 L92.7343382,249.637832 L91.9033162,248.60759 L91.8505882,248.255042 L90.6549265,247.450698 L90.4091103,246.964832 L90.0073382,247.192952 L89.2981103,247.255907 L89.0396691,246.486373 L88.4247574,246.120493 L88.4893676,245.01989 L86.7292941,242.430583 L85.7943015,242.466875 L85.2469706,242.806832 L83.8329706,243.004585 L83.3925809,244.084451 L81.9369926,244.211842 L81.4713529,243.840037 L80.2199926,244.349603 L80.0981985,244.992486 L79.1231029,244.959897 L78.0143309,244.436259 L78.0187868,243.691907 L77.6236985,243.211226 L77.9913088,243.054949 L78.5609191,242.359481 L79.3941691,242.575009 L79.7432132,242.844605 L81.4869485,241.606982 L81.4565,240.899663 L80.964125,240.777456 L80.4078824,240.905588 L79.8442132,240.0057 L77.9734853,240.043473 L77.2828235,240.53082 L76.4518015,239.500578 L76.7882206,239.487246 L76.9879926,238.912503 L76.2126691,238.305171 L76.2334632,237.914109 L76.4829926,237.621553 L76.5297794,236.981633 L75.9675956,236.96756 L75.1707353,237.601555 L74.4778456,237.167535 L73.7314853,237.232712 L73.4604191,237.030515 L73.5020074,237.985211 L73.8555074,238.361461 L73.2918382,238.312578 L71.8704118,238.368126 L70.2165368,238.219997 L68.6361838,238.919169 L68.5886544,239.559089 L68.7913971,239.905712 L68.3398676,240.738201 L67.4271544,241.269987 L64.9979559,241.400341 L63.8876985,242.577231 L63.0826691,242.148396 L61.6493603,241.920276 L61.3025441,241.686231 L61.2728382,241.013722 L61.6285662,240.574518 L62.1892647,240.553039 L62.7596176,240.743386 L63.7718456,240.774493 L63.693125,239.821279 L63.2289706,239.485024 L62.0719265,239.565755 L61.3864632,239.30875 L60.6356471,239.267274 L60.2427868,238.856954 L59.8692353,238.871027 L59.4281029,239.065817 L59.0842574,238.902134 L58.6349559,238.919909 L58.6624338,239.556126 L58.2272426,239.006565 L59.2268456,237.868929 L60.1618382,237.832638 L60.4061691,237.433428 L60.5227647,235.798817 L59.7927426,234.516014 L59.0731176,234.331593 L56.6290662,234.107917 L56.7196691,233.607979 L58.8213603,232.326658 L59.9316176,232.282959 L61.0693529,231.637855 L61.004,230.13656 L61.1473309,229.780308 L62.7536765,230.168408 L63.0945515,230.70686 L63.8349706,230.677974 L64.7016397,229.892146 L65.4078971,230.315797 L66.3577426,230.228401 L66.2708529,229.429982 L66.8412059,229.157423 L68.7750588,227.328022 L69.2458971,227.208777 L69.5444412,226.746613 L71.3357059,226.52664 L71.7760956,226.910296 L72.3553603,226.836972 L72.9286838,226.614777 L74.1518235,225.514174 L75.2093529,225.473438 L75.0845882,225.026827 L76.3055,223.8766 L76.962,224.352097 L78.7502941,222.829323 L79.5159632,222.774515 L81.3079706,220.123735 L82.9313971,213.59566 L82.9373382,213.118683 L81.0680956,211.538139 C81.0680956,211.538139 81.4958603,209.792431 82.7836103,208.965867 C82.8274265,208.738488 82.7932647,207.963029 82.7932647,207.963029 L84.1701324,207.332737 L83.8983235,206.566907 L82.7264265,207.640106 L82.0565588,207.465313 L81.6384485,206.980189 L81.5233382,206.158069 L81.2819779,205.465563 L80.9314485,204.727877 L81.443875,204.332371 L81.4008015,203.331755 L80.9782353,202.746643 L81.8991176,202.610363 L82.7932647,201.848977 L82.3706985,201.263865 L80.7027132,201.278678 L79.5798309,201.648261 L78.5698309,201.562346 L77.4254118,201.431992 L76.7793088,201.808241 L75.8747647,201.717882 L75.2353456,202.243742 L73.6527647,202.380762 C73.6527647,202.380762 70.8366471,204.019077 72.0620147,205.399645 C71.6951471,205.489264 71.4842353,205.522593 71.4842353,205.522593 L69.9796324,204.403473 C69.9796324,204.403473 69.4048235,204.601226 69.4189338,204.926371 C69.4330441,205.251515 69.4412132,205.427049 69.4412132,205.427049 L67.2206985,205.538146 C67.2206985,205.538146 67.9930515,203.804289 69.1798015,203.056974 C70.3650662,202.308919 72.8091176,201.260902 73.1848971,200.144004 C73.7849559,199.318922 73.9683897,199.286333 73.9683897,199.286333 L74.6464265,199.034513 L75.3534265,197.628762 L75.3058971,196.528159 L76.0374044,196.299299 L76.0960735,195.82084 L79.2545515,194.144012 L79.5367574,193.932186 L79.5204191,192.956012 L80.3180221,192.398303 L82.0899779,192.354605 L83.6361691,191.36658 L84.4263456,191.260668 L86.7523162,189.917131 L86.7627132,188.939476 L87.3211838,188.992802 L88.9550074,190.031932 L89.5721471,190.208206 L90.4098529,189.974902 L91.3077132,189.914909 L92.4974338,189.266842 L93.0514485,189.220181 L93.7257721,188.893555 L94.8731618,188.472867 L95.7071544,188.766164 L96.4809926,187.683336 L96.8998456,188.795049 L98.1051618,189.098715 L100.078375,190.023785 L100.295971,189.539401 L98.7156176,186.067982 L101.87261,184.365972 L100.400684,180.965655 L102.99475,176.028493 L101.433706,173.633236 L101.404,169.27452 L104.767449,167.439934 L103.377213,164.652875 L105.620007,163.236755 L104.379787,160.981481 L103.862904,161.161458 L102.656103,162.253914 L101.286662,160.482284 L98.7133897,164.197376 L96.9362353,162.512401 L97.6647721,159.879396 L95.6158088,161.005181 L89.0277868,150.764236 L90.4856029,145.294548 L93.0432794,141.987553 L94.0926397,138.088039 L99.3320147,135.528358 L100.564066,134.62773 L90.7128529,134.6618 L90.6445294,137.971757 L86.9030735,138.418368 L83.8121765,141.646114 L81.8931765,141.369852 L75.4314044,137.713271 L74.7786176,138.540575 L76.3857059,140.181852 L75.7091544,144.116917 L67.0432059,138.491693 L65.0811324,139.670805 L66.7647132,145.518964 L64.9407721,144.987919 L64.4847868,141.798688 L61.5498456,138.856092 L60.903,137.377757 L60.7708088,134.326286 L62.6259412,134.35369 L63.8045221,137.114087 L63.5119191,134.018917 L62.99875,133.187169 L64.1401985,130.185321 L66.6146985,127.382707 L67.1716838,124.354196 L68.2849118,123.158049 L68.8545221,121.632313 L70.7594118,120.355436 L70.6844044,116.198917 L65.8156103,112.629732 L66.9370074,110.381124 L66.5248382,109.444944 L66.2069853,108.204358 L66.5686544,106.787498 L66.6206397,105.532099 L67.7561471,104.83663 L68.2292132,104.76775 L69.2622353,105.379525 L71.0364191,104.758862 L68.9726029,103.586416 L67.3335809,103.650111 L65.8720515,104.158196 L64.7966985,108.461363 L64.6890147,108.985742 L64.0896985,108.122887 L60.4692941,105.81873 L60.2568971,106.110545 L60.1781765,108.439885 Z" id="Stroke-5"></path>
            <polygon id="Fill-7" fill="#FFFFFF" points="52.9830404 65.8720818 51.9344228 66.1135332 50.7417316 66.7112364 48.617761 70.2522763 45.928636 71.7602364 45.8699669 70.4092938 47.6322684 67.0830419 46.2828787 66.484598 45.2498566 68.3288125 44.4425993 66.80678 41.1578713 66.7845606 38.038011 63.2479646 38.9514669 61.1074908 37.2493199 59.7202564 36.1702537 61.7170444 33.5011801 60.0172564 32.9516213 58.3345032 33.7172904 56.4502938 35.9021581 57.9686229 35.262739 55.4378274 36.043261 53.9039446 40.7806066 56.8761666 40.297886 54.2890818 39.567864 52.1123162 41.600489 50.1288599 44.1121213 54.2905631 44.0103787 60.5090469 45.9524007 62.5384234 48.4083346 64.1959945 48.8153051 65.0321865 51.296489 63.6331017 51.8029743 64.0226828 53.101864 64.1671092 53.5979522 64.378194"></polygon>
            <polygon id="Stroke-9" points="52.9830404 65.8720818 51.9344228 66.1135332 50.7417316 66.7112364 48.617761 70.2522763 45.928636 71.7602364 45.8699669 70.4092938 47.6322684 67.0830419 46.2828787 66.484598 45.2498566 68.3288125 44.4425993 66.80678 41.1578713 66.7845606 38.038011 63.2479646 38.9514669 61.1074908 37.2493199 59.7202564 36.1702537 61.7170444 33.5011801 60.0172564 32.9516213 58.3345032 33.7172904 56.4502938 35.9021581 57.9686229 35.262739 55.4378274 36.043261 53.9039446 40.7806066 56.8761666 40.297886 54.2890818 39.567864 52.1123162 41.600489 50.1288599 44.1121213 54.2905631 44.0103787 60.5090469 45.9524007 62.5384234 48.4083346 64.1959945 48.8153051 65.0321865 51.296489 63.6331017 51.8029743 64.0226828 53.101864 64.1671092 53.5979522 64.378194"></polygon>
            <path d="M63.8764846,109.075287 C64.6221022,109.84482 64.5248154,109.960362 64.5248154,109.960362 L63.570514,112.249706 L61.1762199,109.373027 L60.919264,106.79409 C61.9314919,107.553254 63.1308669,108.305012 63.8764846,109.075287" id="Fill-11" fill="#FFFFFF"></path>
            <path d="M63.8764846,109.075287 C64.6221022,109.84482 64.5248154,109.960362 64.5248154,109.960362 L63.570514,112.249706 L61.1762199,109.373027 L60.919264,106.79409 C61.9314919,107.553254 63.1308669,108.305012 63.8764846,109.075287 Z" id="Stroke-13"></path>
            <polygon id="Fill-15" fill="#FFFFFF" points="76.0975588 195.041085 78.6270147 193.773095 78.8119338 192.844322 79.0146765 192.340681 81.9696691 190.523871 81.9421912 189.887654 82.2570735 189.378828 81.8307941 189.041093 80.9284779 188.96999 80.0558676 189.571397 78.8609485 188.802604 78.3648603 187.723479 77.4677426 187.75829 77.4684853 186.057761 75.3727353 186.104422 74.4585368 185.749651 72.5900368 186.708791 71.3550147 186.721382 72.0694412 187.650155 72.0872647 188.925551 71.8407059 189.28921 71.9261103 191.270444 73.3170882 192.243656 73.3742721 193.553122 74.3152059 193.657554 74.6820735 194.352282 75.6475147 193.28723 75.8658529 194.022694 75.5078971 194.390796"></polygon>
            <polygon id="Stroke-17" points="76.0975588 195.041085 78.6270147 193.773095 78.8119338 192.844322 79.0146765 192.340681 81.9696691 190.523871 81.9421912 189.887654 82.2570735 189.378828 81.8307941 189.041093 80.9284779 188.96999 80.0558676 189.571397 78.8609485 188.802604 78.3648603 187.723479 77.4677426 187.75829 77.4684853 186.057761 75.3727353 186.104422 74.4585368 185.749651 72.5900368 186.708791 71.3550147 186.721382 72.0694412 187.650155 72.0872647 188.925551 71.8407059 189.28921 71.9261103 191.270444 73.3170882 192.243656 73.3742721 193.553122 74.3152059 193.657554 74.6820735 194.352282 75.6475147 193.28723 75.8658529 194.022694 75.5078971 194.390796"></polygon>
            <polygon id="Fill-19" fill="#FFFFFF" points="69.2668397 189.531476 69.5371632 190.583937 70.2174279 190.735029 71.1643029 191.83193 71.6811853 191.669728 71.6433103 190.785394 70.8947221 189.928463 69.7042588 189.266324"></polygon>
            <polygon id="Stroke-21" points="69.2668397 189.531476 69.5371632 190.583937 70.2174279 190.735029 71.1643029 191.83193 71.6811853 191.669728 71.6433103 190.785394 70.8947221 189.928463 69.7042588 189.266324"></polygon>
            <polygon id="Fill-23" fill="#FFFFFF" points="29.6773647 48.790212 27.2399971 46.3290374 30.4096147 44.9025486 30.9123868 44.2818853 32.4897691 44.0196958 27.0394824 40.4734713 29.6484015 39.5698803 30.7549456 39.4261945 35.6237397 42.9953791 35.4395632 44.8566284 33.9542691 44.8144115 33.7091956 46.4779077"></polygon>
            <polygon id="Stroke-25" points="29.6773647 48.790212 27.2399971 46.3290374 30.4096147 44.9025486 30.9123868 44.2818853 32.4897691 44.0196958 27.0394824 40.4734713 29.6484015 39.5698803 30.7549456 39.4261945 35.6237397 42.9953791 35.4395632 44.8566284 33.9542691 44.8144115 33.7091956 46.4779077"></polygon>
            <polygon id="Fill-27" fill="#FFFFFF" points="43.0871199 25.7653796 33.2344213 31.862397 33.9087449 35.1938334 29.4565757 33.9147337 27.7833919 35.6337786 28.1710537 38.4749057 29.7833404 39.0133571 30.783686 38.8741152 34.9967228 41.9670628 36.0936125 42.8269556 36.0728184 43.5794544 38.3928478 43.3387436 39.9434949 41.2234519 40.5650904 37.2395042 41.363436 33.6503222 43.9404213 30.7936414"></polygon>
            <polygon id="Stroke-29" points="43.0871199 25.7653796 33.2344213 31.862397 33.9087449 35.1938334 29.4565757 33.9147337 27.7833919 35.6337786 28.1710537 38.4749057 29.7833404 39.0133571 30.783686 38.8741152 34.9967228 41.9670628 36.0936125 42.8269556 36.0728184 43.5794544 38.3928478 43.3387436 39.9434949 41.2234519 40.5650904 37.2395042 41.363436 33.6503222 43.9404213 30.7936414"></polygon>
            <polygon id="Fill-31" fill="#FFFFFF" points="28.5115574 52.4439045 26.1439985 50.3811988 22.237675 50.6841239 19.9555206 53.0282761 22.3015426 54.5903035 22.4827485 56.337493 21.8893735 57.3129269 22.1507853 58.4550067 23.2105426 58.4638945 24.2673294 59.6252312"></polygon>
            <polygon id="Stroke-33" points="28.5115574 52.4439045 26.1439985 50.3811988 22.237675 50.6841239 19.9555206 53.0282761 22.3015426 54.5903035 22.4827485 56.337493 21.8893735 57.3129269 22.1507853 58.4550067 23.2105426 58.4638945 24.2673294 59.6252312"></polygon>
            <polygon id="Fill-35" fill="#FFFFFF" points="22.4964132 59.0930753 21.6431118 60.1788658 22.1845015 61.6609032 20.9658176 64.1139307 21.8443691 68.4904219 24.4020456 68.8414893 24.3701118 64.4324095 25.6118176 62.5296838 25.5598324 61.3290928"></polygon>
            <polygon id="Stroke-37" points="22.4964132 59.0930753 21.6431118 60.1788658 22.1845015 61.6609032 20.9658176 64.1139307 21.8443691 68.4904219 24.4020456 68.8414893 24.3701118 64.4324095 25.6118176 62.5296838 25.5598324 61.3290928"></polygon>
            <polygon id="Fill-39" fill="#FFFFFF" points="20.8316213 70.7846544 21.8772684 71.6956519 21.8639007 72.5985022 20.1261066 74.0701706 19.0559522 73.8109436"></polygon>
            <polygon id="Stroke-41" points="20.8316213 70.7846544 21.8772684 71.6956519 21.8639007 72.5985022 20.1261066 74.0701706 19.0559522 73.8109436"></polygon>
            <polygon id="Fill-43" fill="#FFFFFF" points="38.5231824 71.9990955 40.3307853 70.925896 41.4343588 70.7325868 42.185175 72.1568536 40.9961971 74.0573574 39.9824838 73.8966367"></polygon>
            <polygon id="Stroke-45" points="38.5231824 71.9990955 40.3307853 70.925896 41.4343588 70.7325868 42.185175 72.1568536 40.9961971 74.0573574 39.9824838 73.8966367"></polygon>
            <polygon id="Fill-47" fill="#FFFFFF" points="43.1273713 73.1223628 44.1537096 73.5837868 43.1719301 75.3754152 41.9428493 75.1228541 42.9587904 74.1311259"></polygon>
            <polygon id="Stroke-49" points="43.1273713 73.1223628 44.1537096 73.5837868 43.1719301 75.3754152 41.9428493 75.1228541 42.9587904 74.1311259"></polygon>
            <polygon id="Fill-51" fill="#FFFFFF" points="37.9679794 81.1917269 37.5387294 83.5136596 33.2261779 85.4356421 33.2930162 84.5313105 34.8288103 83.3188691"></polygon>
            <polygon id="Stroke-53" points="37.9679794 81.1917269 37.5387294 83.5136596 33.2261779 85.4356421 33.2930162 84.5313105 34.8288103 83.3188691"></polygon>
            <polygon id="Fill-55" fill="#FFFFFF" points="32.2603654 86.3755249 32.5462846 86.8658342 29.9343949 88.9218741 28.907314 88.4604501 29.1004022 86.7999165 30.3146301 86.7021509"></polygon>
            <polygon id="Stroke-57" points="32.2603654 86.3755249 32.5462846 86.8658342 29.9343949 88.9218741 28.907314 88.4604501 29.1004022 86.7999165 30.3146301 86.7021509"></polygon>
            <polygon id="Fill-59" fill="#FFFFFF" points="43.3119191 105.489586 37.0573456 107.838182 36.2255809 113.082713 39.4768897 109.898666 41.6053162 110.116416 38.998625 111.070371 40.0108529 112.433905 40.8054853 113.655975 39.8155368 115.247628 40.1697794 116.086042 45.3801912 112.876072 43.8674191 108.524763 44.0248603 106.062848"></polygon>
            <polygon id="Stroke-61" points="43.3119191 105.489586 37.0573456 107.838182 36.2255809 113.082713 39.4768897 109.898666 41.6053162 110.116416 38.998625 111.070371 40.0108529 112.433905 40.8054853 113.655975 39.8155368 115.247628 40.1697794 116.086042 45.3801912 112.876072 43.8674191 108.524763 44.0248603 106.062848"></polygon>
            <polygon id="Fill-63" fill="#FFFFFF" points="51.0742147 98.8218988 46.0502074 102.676233 46.1200162 104.277515 47.9706926 104.204931 45.7271559 104.993722 44.4045015 106.24838 44.4030162 108.654006 45.0342662 109.782013 46.5760015 109.922737 51.7760162 100.348375"></polygon>
            <polygon id="Stroke-65" points="51.0742147 98.8218988 46.0502074 102.676233 46.1200162 104.277515 47.9706926 104.204931 45.7271559 104.993722 44.4045015 106.24838 44.4030162 108.654006 45.0342662 109.782013 46.5760015 109.922737 51.7760162 100.348375"></polygon>
            <polygon id="Fill-67" fill="#FFFFFF" points="59.2810588 112.18327 56.8073015 114.985883 57.6613456 116.356083 57.3776544 118.371387 59.3939412 120.89922 62.2501618 120.787382 62.8361103 117.206347 61.5238529 116.255354 61.1688676 112.961691"></polygon>
            <polygon id="Stroke-69" points="59.2810588 112.18327 56.8073015 114.985883 57.6613456 116.356083 57.3776544 118.371387 59.3939412 120.89922 62.2501618 120.787382 62.8361103 117.206347 61.5238529 116.255354 61.1688676 112.961691"></polygon>
            <polygon id="Fill-71" fill="#FFFFFF" points="45.1420985 60.7038374 45.0945691 57.8708574 46.9214809 55.106017 47.0707529 56.8013611 46.0251059 58.6137277 46.7521574 61.5622489 46.2412162 61.8659147"></polygon>
            <polygon id="Stroke-73" points="45.1420985 60.7038374 45.0945691 57.8708574 46.9214809 55.106017 47.0707529 56.8013611 46.0251059 58.6137277 46.7521574 61.5622489 46.2412162 61.8659147"></polygon>
            <polygon id="Fill-75" fill="#FFFFFF" points="43.397175 87.8452676 40.2632044 86.4084097 40.7199324 84.8315693 43.6994324 82.7303499 45.2508221 83.9457539 47.0487706 87.4193948 49.6636309 87.246083 52.1121382 88.4266766 52.1091676 91.8284746 50.0891676 93.6082526 47.4349471 92.8616791 40.8647485 95.1021404 38.5707118 92.2861953 43.5813515 92.0906641 42.1324471 91.5092551 43.7803809 88.0430207"></polygon>
            <polygon id="Stroke-77" points="43.397175 87.8452676 40.2632044 86.4084097 40.7199324 84.8315693 43.6994324 82.7303499 45.2508221 83.9457539 47.0487706 87.4193948 49.6636309 87.246083 52.1121382 88.4266766 52.1091676 91.8284746 50.0891676 93.6082526 47.4349471 92.8616791 40.8647485 95.1021404 38.5707118 92.2861953 43.5813515 92.0906641 42.1324471 91.5092551 43.7803809 88.0430207"></polygon>
            <polygon id="Fill-79" fill="#FFFFFF" points="136.747985 271.309056 137.524051 270.215859 139.746051 269.632968 140.881558 268.170928 143.214955 268.434599 145.180742 268.853806 146.585088 270.145497 145.129499 271.123894 143.598161 273.805781 141.877448 273.87318 140.014889 272.386699"></polygon>
            <polygon id="Stroke-81" points="136.747985 271.309056 137.524051 270.215859 139.746051 269.632968 140.881558 268.170928 143.214955 268.434599 145.180742 268.853806 146.585088 270.145497 145.129499 271.123894 143.598161 273.805781 141.877448 273.87318 140.014889 272.386699"></polygon>
            <polygon id="Fill-83" fill="#FFFFFF" points="0.486433824 153.847259 0.486433824 153.399907 3.90798505e-13 152.839977 0.336419118 152.727399 1.08500735 152.727399 1.79646324 151.980825 2.76933088 151.980825 2.80720588 151.383863 3.51791912 150.152164 4.49078676 150.22697 4.82794853 150.712095 6.13723529 150.451386 6.77368382 150.338808 6.88582353 149.66704 7.63441176 149.218947 8.68228676 148.398309 9.31873529 148.248698 9.31873529 147.651735 8.71941912 147.987249 7.335125 147.315481 6.88582353 147.539898 6.32438235 147.390287 6.43652206 146.942194 5.53866176 146.45707 5.20224265 145.89788 5.01509559 145.300177 5.01509559 145.001696 6.21224265 145.001696 6.32438235 144.180316 6.88582353 143.732965 7.37225735 143.993673 7.59727941 144.479538 8.08297059 144.553603 8.23298529 145.001696 8.75729412 144.703214 9.80516912 144.143284 10.5537574 143.322646 11.1151985 143.769997 11.9380515 143.471516 12.5745 143.844803 12.6487647 143.620386 12.2002059 143.136002 12.536625 141.754693 13.4723603 141.119957 13.9216618 140.671865 13.9216618 140.149708 14.2959559 139.739389 14.1459412 138.843204 14.2209485 138.35808 14.2959559 137.574474 14.9695368 137.089349 15.1566838 136.753095 15.1566838 135.932456 15.2309485 135.447331 15.5681103 135.334753 15.3438309 134.775563 15.9052721 134.215633 16.3917059 133.282416 16.6909926 133.543865 17.5888529 133.245384 18.1131618 132.685454 18.4495809 133.580898 19.2731765 133.319449 20.1710368 133.394254 20.7324779 133.767541 21.8553603 133.954184 22.8282279 132.909129 22.7910956 132.162556 23.2396544 131.789269 23.8010956 130.483506 23.9511103 129.736932 23.7639632 129.027391 24.2132647 128.803715 25.3354044 129.587321 26.5704265 129.624354 27.6933088 129.475484 28.1047353 129.699159 28.3297574 128.953326 30.3133676 128.355623 31.6605294 128.020109 32.1469632 127.422406 32.8576765 127.049119 33.3441103 127.049119 33.7184044 127.422406 34.9162941 127.534985 35.5148676 127.012087 36.4506029 127.534985 38.4342132 128.206753 39.2570662 127.60905 40.1928015 127.683855 41.0906618 128.318591 41.83925 129.810997 41.6149706 131.864075 41.4649559 133.05874 41.5778382 133.394254 43.1114044 133.319449 43.2242868 134.812596 42.8128603 135.148109 42.8128603 135.633975 43.6728456 136.044294 44.5714485 137.089349 45.3200368 138.432885 46.1057574 139.664583 46.2178971 140.821476 47.0036176 141.531017 47.4529191 141.56805 46.8543456 140.821476 46.5550588 139.888259 47.078625 139.926032 48.0514926 140.374124 48.7629485 141.679888 48.6879412 143.2471 48.0893676 144.180316 46.9664853 144.553603 44.8328603 145.785301 44.3092941 146.979967 44.3843015 148.473114 45.4693088 147.203643 46.5550588 146.195621 47.5650588 145.971945 49.7729485 145.971945 51.2329926 146.121556 51.8686985 147.315481 51.9437059 148.621985 53.0294559 149.555202 52.9544485 151.458668 53.6280294 152.279306 53.7773015 153.287329 53.1415956 154.220546 53.5158897 154.929346 52.7294265 156.161785 53.0294559 156.646169 52.5801544 157.429775 52.0187132 157.35571 51.8686985 158.17709 50.5215368 160.229426 49.9600956 160.490875 49.6608088 161.199676 48.6879412 160.341264 47.3036471 160.341264 47.1165 160.639745 46.1807647 160.602713 45.4321765 161.349287 45.3950441 163.439396 44.9457426 165.4547 44.0471397 165.902793 41.4649559 167.880324 40.4920882 167.358167 40.9035147 166.761204 39.7063676 166.649366 38.9199044 165.566538 37.5356103 165.528765 37.1991912 165.156219 36.6748824 165.566538 36.2263235 165.118446 35.7391471 165.118446 35.7020147 166.387917 34.0555662 166.947107 33.6812721 166.387917 31.5855221 167.283361 31.2862353 167.022653 30.5376471 167.731454 29.9011985 166.723431 29.26475 166.27608 29.7140515 166.051663 29.5269044 164.819965 30.2383603 164.036359 30.4247647 163.252753 29.1904853 162.169925 28.5540368 162.169925 27.3568897 162.207698 26.7575735 161.461124 26.1218676 160.453102 26.1961324 160.042783 25.8218382 159.744301 25.2603971 159.296209 25.9347206 159.072533 25.4854191 157.132035 24.9239779 157.132035 24.7747059 156.272883 22.4539338 154.667898 21.2567868 156.347688 21.0696397 156.982424 20.0217647 157.579386 19.3103088 157.429775 19.7967426 158.288927 19.9467574 159.594691 20.5453309 160.341264 20.1339044 160.677518 20.4703235 161.237449 18.6746029 161.759606 17.9631471 162.431374 17.9260147 163.252753 18.2253015 163.663072 17.6267279 164.671095 16.9524044 165.118446 16.2416912 165.118446 15.9052721 164.671095 15.3059559 164.969576 15.1938162 164.260775 14.7073824 163.812683 14.0709338 163.961553 13.8087794 164.521484 12.4994926 164.33484 12.1623309 164.745159 10.6658971 163.737878 10.7030294 162.991304 10.1044559 162.580985 9.73016176 162.729855 9.46800735 161.796638 6.92295588 162.207698 5.80081618 160.976 5.95008824 159.893912 5.57653676 159.259177 5.83794853 158.774052 4.41577941 158.587409 3.33077206 156.609137 2.73145588 156.609137 0.748588235 154.257578 0.710713235 153.99687"></polygon>
            <polygon id="Stroke-85" points="0.486433824 153.847259 0.486433824 153.399907 3.90798505e-13 152.839977 0.336419118 152.727399 1.08500735 152.727399 1.79646324 151.980825 2.76933088 151.980825 2.80720588 151.383863 3.51791912 150.152164 4.49078676 150.22697 4.82794853 150.712095 6.13723529 150.451386 6.77368382 150.338808 6.88582353 149.66704 7.63441176 149.218947 8.68228676 148.398309 9.31873529 148.248698 9.31873529 147.651735 8.71941912 147.987249 7.335125 147.315481 6.88582353 147.539898 6.32438235 147.390287 6.43652206 146.942194 5.53866176 146.45707 5.20224265 145.89788 5.01509559 145.300177 5.01509559 145.001696 6.21224265 145.001696 6.32438235 144.180316 6.88582353 143.732965 7.37225735 143.993673 7.59727941 144.479538 8.08297059 144.553603 8.23298529 145.001696 8.75729412 144.703214 9.80516912 144.143284 10.5537574 143.322646 11.1151985 143.769997 11.9380515 143.471516 12.5745 143.844803 12.6487647 143.620386 12.2002059 143.136002 12.536625 141.754693 13.4723603 141.119957 13.9216618 140.671865 13.9216618 140.149708 14.2959559 139.739389 14.1459412 138.843204 14.2209485 138.35808 14.2959559 137.574474 14.9695368 137.089349 15.1566838 136.753095 15.1566838 135.932456 15.2309485 135.447331 15.5681103 135.334753 15.3438309 134.775563 15.9052721 134.215633 16.3917059 133.282416 16.6909926 133.543865 17.5888529 133.245384 18.1131618 132.685454 18.4495809 133.580898 19.2731765 133.319449 20.1710368 133.394254 20.7324779 133.767541 21.8553603 133.954184 22.8282279 132.909129 22.7910956 132.162556 23.2396544 131.789269 23.8010956 130.483506 23.9511103 129.736932 23.7639632 129.027391 24.2132647 128.803715 25.3354044 129.587321 26.5704265 129.624354 27.6933088 129.475484 28.1047353 129.699159 28.3297574 128.953326 30.3133676 128.355623 31.6605294 128.020109 32.1469632 127.422406 32.8576765 127.049119 33.3441103 127.049119 33.7184044 127.422406 34.9162941 127.534985 35.5148676 127.012087 36.4506029 127.534985 38.4342132 128.206753 39.2570662 127.60905 40.1928015 127.683855 41.0906618 128.318591 41.83925 129.810997 41.6149706 131.864075 41.4649559 133.05874 41.5778382 133.394254 43.1114044 133.319449 43.2242868 134.812596 42.8128603 135.148109 42.8128603 135.633975 43.6728456 136.044294 44.5714485 137.089349 45.3200368 138.432885 46.1057574 139.664583 46.2178971 140.821476 47.0036176 141.531017 47.4529191 141.56805 46.8543456 140.821476 46.5550588 139.888259 47.078625 139.926032 48.0514926 140.374124 48.7629485 141.679888 48.6879412 143.2471 48.0893676 144.180316 46.9664853 144.553603 44.8328603 145.785301 44.3092941 146.979967 44.3843015 148.473114 45.4693088 147.203643 46.5550588 146.195621 47.5650588 145.971945 49.7729485 145.971945 51.2329926 146.121556 51.8686985 147.315481 51.9437059 148.621985 53.0294559 149.555202 52.9544485 151.458668 53.6280294 152.279306 53.7773015 153.287329 53.1415956 154.220546 53.5158897 154.929346 52.7294265 156.161785 53.0294559 156.646169 52.5801544 157.429775 52.0187132 157.35571 51.8686985 158.17709 50.5215368 160.229426 49.9600956 160.490875 49.6608088 161.199676 48.6879412 160.341264 47.3036471 160.341264 47.1165 160.639745 46.1807647 160.602713 45.4321765 161.349287 45.3950441 163.439396 44.9457426 165.4547 44.0471397 165.902793 41.4649559 167.880324 40.4920882 167.358167 40.9035147 166.761204 39.7063676 166.649366 38.9199044 165.566538 37.5356103 165.528765 37.1991912 165.156219 36.6748824 165.566538 36.2263235 165.118446 35.7391471 165.118446 35.7020147 166.387917 34.0555662 166.947107 33.6812721 166.387917 31.5855221 167.283361 31.2862353 167.022653 30.5376471 167.731454 29.9011985 166.723431 29.26475 166.27608 29.7140515 166.051663 29.5269044 164.819965 30.2383603 164.036359 30.4247647 163.252753 29.1904853 162.169925 28.5540368 162.169925 27.3568897 162.207698 26.7575735 161.461124 26.1218676 160.453102 26.1961324 160.042783 25.8218382 159.744301 25.2603971 159.296209 25.9347206 159.072533 25.4854191 157.132035 24.9239779 157.132035 24.7747059 156.272883 22.4539338 154.667898 21.2567868 156.347688 21.0696397 156.982424 20.0217647 157.579386 19.3103088 157.429775 19.7967426 158.288927 19.9467574 159.594691 20.5453309 160.341264 20.1339044 160.677518 20.4703235 161.237449 18.6746029 161.759606 17.9631471 162.431374 17.9260147 163.252753 18.2253015 163.663072 17.6267279 164.671095 16.9524044 165.118446 16.2416912 165.118446 15.9052721 164.671095 15.3059559 164.969576 15.1938162 164.260775 14.7073824 163.812683 14.0709338 163.961553 13.8087794 164.521484 12.4994926 164.33484 12.1623309 164.745159 10.6658971 163.737878 10.7030294 162.991304 10.1044559 162.580985 9.73016176 162.729855 9.46800735 161.796638 6.92295588 162.207698 5.80081618 160.976 5.95008824 159.893912 5.57653676 159.259177 5.83794853 158.774052 4.41577941 158.587409 3.33077206 156.609137 2.73145588 156.609137 0.748588235 154.257578 0.710713235 153.99687"></polygon>
            <polygon id="Fill-87" fill="#FFFFFF" points="95.9459154 18.0771531 94.1197463 16.9558115 92.2928346 14.2939212 93.135739 12.8926145 95.9459154 14.4339037 96.226636 16.1159162 97.7728272 16.9558115"></polygon>
            <polygon id="Stroke-89" points="95.9459154 18.0771531 94.1197463 16.9558115 92.2928346 14.2939212 93.135739 12.8926145 95.9459154 14.4339037 96.226636 16.1159162 97.7728272 16.9558115"></polygon>
            <polygon id="Fill-91" fill="#FFFFFF" points="98.8969721 19.05829 99.5995162 16.2556766 101.144965 16.2556766 100.723141 17.3762776 100.863501 18.9183075"></polygon>
            <polygon id="Stroke-93" points="98.8969721 19.05829 99.5995162 16.2556766 101.144965 16.2556766 100.723141 17.3762776 100.863501 18.9183075"></polygon>
            <polygon id="Fill-95" fill="#FFFFFF" points="97.0700603 13.1725055 95.6649721 12.191887 93.8380603 11.6312162 93.8380603 7.28731347 94.9624279 6.30595436 96.7893397 6.44593691 99.4584132 7.84798429 99.0373324 9.52925611 98.0540676 9.66923865 98.3347882 10.7905803 100.1617 10.7905803 101.987869 12.4718521 104.235862 12.4718521 103.955141 13.8731589 101.847509 14.7145354 99.5995162 12.4718521"></polygon>
            <polygon id="Stroke-97" points="97.0700603 13.1725055 95.6649721 12.191887 93.8380603 11.6312162 93.8380603 7.28731347 94.9624279 6.30595436 96.7893397 6.44593691 99.4584132 7.84798429 99.0373324 9.52925611 98.0540676 9.66923865 98.3347882 10.7905803 100.1617 10.7905803 101.987869 12.4718521 104.235862 12.4718521 103.955141 13.8731589 101.847509 14.7145354 99.5995162 12.4718521"></polygon>
            <polygon id="Fill-99" fill="#FFFFFF" points="101.145188 3.0833192 98.1939081 1.26206484 99.5989963 -2.46913601e-13 101.284805 1.12134165 102.971357 2.66263092"></polygon>
            <polygon id="Stroke-101" points="101.145188 3.0833192 98.1939081 1.26206484 99.5989963 -2.46913601e-13 101.284805 1.12134165 102.971357 2.66263092"></polygon>
            <polygon id="Fill-103" fill="#FFFFFF" points="102.549979 6.44630723 102.269258 5.0450005 102.97106 4.06438204 104.37689 5.0450005 103.814707 6.16634214 102.831442 7.28694314"></polygon>
            <polygon id="Stroke-105" points="102.549979 6.44630723 102.269258 5.0450005 102.97106 4.06438204 104.37689 5.0450005 103.814707 6.16634214 102.831442 7.28694314"></polygon>
            <polygon id="Fill-107" fill="#FFFFFF" points="105.360304 2.52279651 105.641024 1.26147232 106.765392 1.6821606 107.748657 2.66277905 107.467936 3.36343242 105.922487 3.50341496"></polygon>
            <polygon id="Stroke-109" points="105.360304 2.52279651 105.641024 1.26147232 106.765392 1.6821606 107.748657 2.66277905 107.467936 3.36343242 105.922487 3.50341496"></polygon>
            <polygon id="Fill-111" fill="#FFFFFF" points="108.310618 1.12141571 109.575346 1.12141571 109.575346 2.52272244 108.732441 3.08339327"></polygon>
            <polygon id="Stroke-113" points="108.310618 1.12141571 109.575346 1.12141571 109.575346 2.52272244 108.732441 3.08339327"></polygon>
            <polygon id="Fill-115" fill="#FFFFFF" points="105.219572 5.60581945 104.517028 7.70777955 106.765021 8.12772718"></polygon>
            <polygon id="Stroke-117" points="105.219572 5.60581945 104.517028 7.70777955 106.765021 8.12772718"></polygon>
            <polygon id="Fill-119" fill="#FFFFFF" points="102.69071 9.80959152 100.161254 9.80959152 101.425982 8.26830224"></polygon>
            <polygon id="Stroke-121" points="102.69071 9.80959152 100.161254 9.80959152 101.425982 8.26830224"></polygon>
            <polygon id="Fill-123" fill="#FFFFFF" points="97.4918096 4.20443865 99.8801625 4.62438628 100.161626 6.16567556 98.4750743 5.74572793"></polygon>
            <polygon id="Stroke-125" points="97.4918096 4.20443865 99.8801625 4.62438628 100.161626 6.16567556 98.4750743 5.74572793"></polygon>
        </g>
        <g id="Group-5-Copy-2" transform="translate(151.000000, 201.000000)">
            <path d="M19.5007728,0 C30.2704791,0 39,8.72986684 39,19.5 C39,30.2701332 30.2704791,39 19.5007728,39 C8.73106646,39 0,30.2701332 0,19.5 C0,8.72986684 8.73106646,0 19.5007728,0 Z" id="Stroke-1" stroke="#E75F52"></path>
            <path d="M19.5,13 C23.0899976,13 26,15.910354 26,19.5007853 C26,23.089646 23.0899976,26 19.5,26 C15.9100024,26 13,23.089646 13,19.5007853 C13,15.910354 15.9100024,13 19.5,13" id="Fill-3" fill="#E75F52"></path>
        </g>
    </g>
</svg>