<?xml version="1.0" encoding="UTF-8"?>
<svg width="386px" height="300px" viewBox="0 0 386 300" version="1.1" xmlns="http://www.w3.org/2000/svg" xmlns:xlink="http://www.w3.org/1999/xlink">
    <!-- Generator: Sketch 64 (93537) - https://sketch.com -->
    <title>259</title>
    <desc>Created with Sketch.</desc>
    <defs>
        <path d="M60.655,0.12 L59.648,0.926 L56.355,0.993 L51.368,1.784 L47.281,2.137 L25.711,4.22 L19.16,4.96 L17.238,5.172 L15.631,5.16 L15.631,6.774 L12.136,6.975 L9.246,7.244 L4.635,7.267 L4.525,9.693 L3.635,12.301 L3.222,13.556 L2.66,15.376 L2.527,16.451 L0.847,17.392 L1.451,18.869 L1.049,20.685 L0.41,21.39 L3.804,21.357 L13.818,20.55 L16.035,20.484 L19.396,20.281 L30.953,19.206 L35.182,18.869 L38.682,18.467 L42.176,17.996 L44.192,17.661 L44.326,15.646 L45.065,15.04 L46.207,14.773 L46.476,13.225 L48.223,12.083 L49.836,11.479 L51.583,10.001 L53.397,9.127 L53.665,7.849 L55.279,6.237 L55.548,6.169 C55.548,6.169 55.548,6.639 55.884,6.639 L55.884,6.639 C56.219,6.639 56.69,6.774 56.69,6.774 L56.69,6.774 L57.631,5.296 L58.505,5.027 L59.446,5.16 L60.118,3.682 L61.328,2.608 L61.53,1.734 L61.603,0.098 L60.655,0.12 Z" id="path-1"></path>
        <path d="M11.411,0.689 L11.009,1.294 L11.479,2.572 L11.479,4.52 L11.277,6.603 L11.143,8.956 L10.201,10.568 L8.925,11.979 L7.984,12.651 L7.11,12.45 L6.572,13.055 L5.631,14.466 L5.228,15.003 L5.228,16.011 L5.698,16.751 L5.495,17.422 L4.757,17.826 L4.554,17.087 L4.017,16.617 L3.478,16.885 L3.075,18.499 L3.01,20.581 L2.337,21.186 L2.27,22.329 L1.464,22.665 L0.557,22.699 L0.658,24.882 L0.994,25.555 L2.069,26.16 L2.338,27.1 L3.548,28.646 L4.622,29.788 L5.928,30.615 L6.84,31.872 L7.378,32.41 L8.589,32.746 L9.662,32.477 L10.671,31.536 C10.671,31.536 11.409,32.14 11.678,32.073 L11.678,32.073 C11.947,32.007 13.493,31.67 13.493,31.67 L13.493,31.67 L14.232,29.722 L15.307,30.126 L16.651,29.117 L17.257,29.251 L18.13,28.444 L18.197,27.303 L17.861,26.764 L19.944,22.262 L20.818,19.508 L20.952,17.693 L21.691,17.627 L22.362,18.768 L22.9,19.104 L23.976,19.104 L24.446,16.819 L24.58,15.542 L25.99,15.409 L26.193,14.468 L27.469,13.46 L27.739,12.787 L28.41,11.645 L28.613,10.771 L28.679,8.554 L30.562,9.293 L32.914,10.569 L33.351,8.486 L32.78,7.949 L31.974,7.21 L30.764,6.604 L30.08,6.135 L29.313,6.336 L28.479,6.94 L27.404,7.814 L26.194,7.949 L25.655,7.679 L24.917,8.754 L24.312,9.359 L23.303,9.427 L22.362,10.704 L21.488,11.712 L21.355,11.845 L20.952,9.493 L20.489,7.438 L15.322,8.081 L13.396,8.394 L11.946,0.151 L11.411,0.689 Z" id="path-3"></path>
        <path d="M17.603,0.487 L9.621,0.867 L0.391,0.879 L0.403,4.859 L0.687,8.755 L0.973,10.371 L2.017,12.082 L2.397,14.173 L4.204,16.453 L4.299,17.784 L4.585,18.07 L4.299,21.585 L3.063,23.677 L3.728,24.532 L3.444,25.577 L3.159,28.618 L2.589,29.948 L2.64,31.451 L4.588,30.819 L7.948,30.684 L12.248,32.162 L14.936,32.633 L16.482,32.028 L17.826,32.498 L19.172,32.901 L19.507,32.027 L18.163,31.556 L17.088,31.759 L15.946,31.086 C15.946,31.086 16.013,30.548 16.282,30.481 L16.282,30.481 C16.551,30.415 17.559,30.078 17.559,30.078 L17.559,30.078 L18.298,30.683 L19.037,30.281 L20.381,30.549 L20.986,31.557 L21.119,32.499 L23.002,32.633 L23.741,33.371 L23.404,34.044 L22.866,34.38 L23.538,35.051 L27.032,36.53 L28.511,35.991 L28.913,34.984 L29.989,34.714 L30.727,34.109 L31.266,34.513 L31.601,35.722 L30.66,36.058 L30.93,36.328 L32.341,35.79 L33.282,34.379 L33.618,34.176 L32.744,34.043 L33.079,33.371 L33.013,32.765 L33.887,32.563 L34.356,32.026 L34.626,32.362 C34.626,32.362 34.559,33.638 34.894,33.638 L34.894,33.638 C35.231,33.638 36.642,33.908 36.642,33.908 L36.642,33.908 L38.322,34.713 L38.725,35.319 L39.934,35.319 L40.404,35.721 L41.346,34.445 L41.346,33.839 L40.808,33.839 L39.396,32.697 L36.977,32.362 L35.634,31.42 L36.102,30.279 L37.046,30.412 L37.111,30.143 L36.372,29.741 L36.372,29.538 L37.717,29.538 L38.455,28.261 L37.918,27.456 L37.784,26.313 L37.179,26.38 L36.372,27.254 L36.102,28.33 L34.826,28.06 L34.424,27.322 L35.163,26.515 L36.003,25.777 L36.372,25.474 L35.85,24.529 L35.374,22.912 L33.949,21.582 L34.424,18.447 L34.139,18.067 L33.379,18.161 L29.957,18.447 L19.884,18.731 L19.694,18.067 L19.978,14.741 L21.405,12.175 L23.592,8.374 L23.211,7.518 L23.685,7.518 L23.971,6.188 L23.02,5.428 L23.115,4.669 L22.261,2.767 L22.117,0.487 L17.603,0.487 Z" id="path-5"></path>
        <path d="M11.193,1.164 L8.96,2.779 L8.057,3.112 L7.297,3.967 L7.962,4.441 L8.817,4.061 L10.195,3.254 L12.332,1.115 L12.143,0.925 L11.193,1.164 Z M14.824,7.041 L13.01,8.049 L12.069,8.989 L11.531,9.728 L10.792,10.064 L9.986,11.274 L9.919,11.812 L8.105,12.687 L7.097,13.493 L4.61,13.895 L4.342,14.164 L4.342,14.567 L2.863,15.508 L1.722,15.845 L0.953,16.274 L2.734,18.51 L6.155,18.984 L9.576,19.934 L10.621,20.409 L15.848,21.55 L16.417,22.499 L17.938,22.974 L18.604,27.251 L19.174,27.821 L19.852,28.299 L21.41,24.917 L21.813,23.236 L22.618,21.423 L22.954,21.355 L23.425,22.027 L23.694,22.027 L25.576,21.019 L26.181,21.691 L26.383,21.758 L26.921,21.289 L27.39,20.012 L28.399,19.675 L31.288,19.406 L32.095,18.331 L34.245,18.264 L36.664,18.802 L37.403,18.802 L38.746,18.197 L39.688,18.264 L40.562,17.996 L42.108,18.197 L42.444,18.331 L42.982,18.197 L42.444,17.795 L41.905,17.525 L40.562,16.249 L40.562,13.358 L39.956,13.155 L39.486,13.626 L36.932,14.298 L36.127,14.501 L34.916,14.164 L34.715,14.03 L34.715,11.678 L34.11,11.611 L33.034,12.149 L31.152,12.956 L28.398,13.09 L26.987,13.56 L25.306,15.037 L24.635,15.44 L24.165,15.44 L23.626,15.776 L22.954,15.574 L22.283,15.036 L21.678,15.439 L20.065,15.506 L18.923,14.364 L18.317,13.088 L17.714,12.618 L16.369,12.214 L15.428,12.214 L14.89,11.677 L13.411,12.886 L13.009,13.356 L12.673,13.154 L12.806,12.08 L13.815,10.735 L14.016,9.727 L14.958,9.392 L15.562,8.114 L17.109,7.711 L17.243,7.308 L16.773,6.838 L14.824,7.041 Z M43.523,16.583 L42.85,16.65 L42.717,17.121 L43.119,17.322 L43.388,18.364 L44.732,18.431 L45.27,17.927 C45.27,17.927 45.236,17.322 45.102,17.256 L45.102,17.256 C44.968,17.188 44.43,16.482 44.43,16.482 L44.43,16.482 L43.523,16.583 Z M36.465,21.085 L35.255,22.026 L35.389,23.505 L35.793,23.639 L36.666,23.84 L36.867,24.177 L35.793,24.512 L34.718,24.646 L34.112,25.385 L33.979,26.259 L34.112,26.931 L34.246,29.217 L32.769,30.091 L32.5,30.023 L32.5,28.276 L33.038,27.268 L33.306,26.26 L32.971,25.925 L32.165,26.26 L31.762,28.007 L30.619,28.477 L29.882,29.283 L29.814,29.686 L30.082,30.022 L29.814,31.097 L28.873,31.299 L28.873,31.769 L29.208,32.777 L28.738,35.331 L28.067,37.012 L28.335,38.96 L28.538,39.43 L28.201,40.438 L28.068,40.774 L27.933,41.917 L29.412,44.402 L30.621,47.091 L31.227,49.106 L30.89,51.055 L30.488,53.542 L29.48,55.691 L29.346,56.833 L28.063,58.127 L27.756,58.446 L29.681,58.38 L38.82,57.438 L41.374,57.17 L41.509,57.673 L44.735,57.17 L48.969,56.498 L51.137,56.305 L50.581,55.826 L50.648,55.221 L51.522,53.674 L52.354,52.952 L52.262,50.852 L52.926,50.188 L53.379,50.046 L53.471,48.567 L54.109,47.307 L54.546,47.559 L54.613,47.829 L54.948,47.895 L55.756,47.493 L55.617,43.53 L54.273,40.104 L53.331,36.341 L52.324,34.997 L51.248,34.259 L50.577,34.728 L48.964,35.467 L48.158,37.551 L47.015,39.096 L46.546,39.365 L45.941,39.096 C45.941,39.096 44.866,38.492 44.932,38.222 L44.932,38.222 C45,37.954 45.136,36.14 45.136,36.14 L45.136,36.14 L46.546,35.601 L46.882,34.19 L47.151,33.115 L48.159,32.443 L48.025,28.277 L47.353,27.337 L46.815,27.001 L46.479,26.126 L46.815,25.79 L47.486,25.925 L47.554,25.252 L46.546,24.311 L46.009,23.236 L44.932,23.236 L43.051,22.632 L40.765,21.22 L39.623,21.22 L39.355,21.488 L38.952,21.288 L37.676,20.346 L36.465,21.085 Z" id="path-7"></path>
        <path d="M5.669,2.248 L5.603,5.339 L3.452,10.244 L2.176,11.32 L2.041,11.79 L1.303,12.126 L0.698,13.872 L0.362,15.218 L1.503,16.965 L2.176,18.712 L2.646,20.189 L2.511,22.88 L1.772,24.158 L1.502,26.577 L1.1,28.122 L1.838,29.735 L2.981,31.618 L3.921,33.634 L4.46,35.313 L4.326,36.658 L4.191,36.859 L4.191,37.733 L6.543,40.354 L6.341,41.36 L6.072,42.302 L5.803,43.107 L5.87,46.535 L6.744,48.079 L7.549,49.156 L8.691,49.357 L9.096,50.499 L8.625,51.977 L7.75,52.649 L7.281,52.649 L6.945,54.263 L7.147,55.472 L8.491,57.286 L9.162,59.506 L9.768,61.453 L10.306,62.73 L11.716,65.149 L12.322,66.224 L12.524,67.434 L13.196,67.838 L13.196,68.846 L12.86,69.651 L12.12,72.608 L11.919,73.414 L12.927,74.557 L14.673,74.759 L16.557,75.497 L18.168,76.371 L19.378,76.371 L20.589,77.648 L21.663,79.664 L22.133,80.605 L23.747,81.479 L25.764,81.815 L26.367,82.689 L26.637,84.033 L26.032,84.304 L26.166,84.705 L27.51,85.042 L28.652,85.108 L29.862,87.058 L31.475,88.805 L31.811,89.745 L32.886,91.492 L33.02,92.837 L33.02,96.734 L33.222,97.473 L37.388,98.078 L45.585,99.221 L51.634,99.892 L53.353,99.555 L53.971,98.651 L54.208,97.512 L52.688,97.273 L52.497,96.94 L52.688,96.227 L52.736,93.805 L53.591,93.519 L54.779,92.38 L55.017,90.337 L55.635,88.815 L56.443,88.008 L57.868,87.295 L58.533,86.725 L58.581,85.774 L58.154,85.536 L57.821,85.108 L57.298,82.685 L56.157,80.642 L56.398,79.283 L55.35,77.934 L49.315,68.478 L41.236,56.409 L31.781,42.345 L26.633,34.619 L27.314,31.889 L30.212,21.102 L33.586,8.035 L27.98,6.514 L22.372,5.088 L17.146,3.377 L14.01,2.522 L9.258,1.287 L6.326,0.285 L5.669,2.248 Z M15.615,78.959 C15.615,78.959 15.951,79.562 15.95,79.563 L15.95,79.563 L16.621,80.235 L18.503,80.337 L18.873,80.067 L17.597,79.563 L16.118,78.689 L15.615,78.959 Z M13.431,78.991 L13.7,79.598 L13.935,80.101 L15.279,80.136 L15.346,79.598 L14.808,78.959 L13.431,78.991 Z M24.215,86.685 C24.216,86.686 24.216,87.19 24.216,87.19 L24.216,87.19 L24.955,88.164 L25.291,88.567 L25.93,88.804 L26.165,88.197 L25.762,87.46 L24.653,86.617 L24.215,86.685 Z M23.41,90.818 L23.41,91.725 C23.41,91.893 23.712,92.499 23.712,92.499 L23.712,92.499 L24.25,93.004 L24.855,92.901 L24.351,92.097 L23.612,90.785 L23.41,90.818 Z" id="path-9"></path>
        <path d="M37.914,2.57 L35.562,1.293 L33.679,0.554 L33.613,2.771 L33.41,3.645 L32.739,4.787 L32.47,5.46 L31.193,6.468 L30.99,7.409 L29.58,7.542 L29.446,8.82 L28.975,11.104 L27.9,11.104 L27.362,10.768 L26.691,9.627 L25.952,9.694 L25.818,11.508 L24.944,14.262 L22.861,18.764 L23.197,19.303 L23.13,20.445 L22.257,21.251 L21.651,21.117 L20.306,22.125 L19.232,21.722 L18.493,23.67 C18.493,23.67 16.947,24.007 16.679,24.073 L16.679,24.073 C16.409,24.14 15.671,23.536 15.671,23.536 L15.671,23.536 L14.662,24.477 L13.589,24.746 L12.378,24.41 L11.84,23.872 L11.034,22.393 L9.69,24.009 L7.943,25.487 L6.061,27.705 L5.321,28.444 L5.321,29.318 L3.709,30.192 L1.357,31.602 L0.211,32.175 L4.366,31.787 L9.353,30.998 L12.645,30.931 L13.654,30.123 L14.534,30.137 L16.408,30.393 L19.376,29.855 L25.95,29.049 L33.074,27.974 L41.637,26.406 L49.605,24.815 L54.377,23.605 L56.405,22.897 L54.712,19.977 L54.242,20.043 L52.898,20.312 L51.822,20.514 L51.689,20.312 L52.631,19.707 L52.563,18.766 L52.025,18.095 L51.42,17.625 L51.42,17.155 L50.614,16.482 L50.614,16.08 L51.958,16.549 L52.025,15.811 L51.487,14.936 L51.42,13.996 L51.016,13.592 L51.219,11.71 L50.68,11.173 L49.338,10.904 L48.262,9.962 L46.112,9.829 L45.327,9.182 L43.222,8.619 L42.954,7.88 L42.954,7.006 L43.693,5.93 L43.827,4.789 L44.431,3.445 L43.49,2.772 L43.088,3.579 L42.282,3.04 L39.996,2.502 L39.996,1.293 L38.25,0.453 L37.914,2.57 Z" id="path-11"></path>
        <path d="M14.952,0.835 L14.818,1.171 L15.826,3.187 L16.296,4.263 L15.557,5.74 L15.557,6.681 L15.826,7.287 L15.49,8.025 L15.692,9.37 L16.095,9.906 L16.027,10.445 L15.423,10.512 L15.153,9.707 L14.684,8.698 L13.945,8.093 L14.079,7.219 L15.02,7.018 L14.886,6.278 L14.752,5.808 L13.878,6.346 L13.34,6.816 L13.34,7.824 L12.398,7.891 L10.987,7.488 L9.778,6.883 L8.501,6.614 L6.619,5.74 L5.275,4.934 L4.133,3.859 L3.126,2.649 L2.251,2.447 L1.31,6.345 L2.049,7.689 L2.049,10.982 L1.779,12.192 L2.385,15.149 L3.527,16.292 L1.714,16.56 L1.646,18.106 L2.721,18.577 L2.049,20.257 L0.906,20.391 L0.773,21.6 L1.715,22.81 L2.453,22.407 L3.252,23.03 L4.228,23.223 L4.513,24.268 L6.224,24.506 L7.174,26.123 L7.079,29.353 L6.794,29.686 L9.265,31.397 L11.831,31.541 L12.639,30.78 L14.445,31.398 L14.778,31.35 L16.964,32.206 L17.677,32.775 L19.626,32.871 L20.148,32.586 L21.146,33.251 L23,33.488 L25.279,32.633 L25.47,33.204 L31.885,33.155 L38.156,34.629 L43.971,36.047 L44.049,32.015 L45.57,25.172 L47.423,16.524 L48.991,10.917 L49.407,9.303 L42.706,7.757 L33.164,5.405 L24.831,3.053 L21.269,2.247 L17.237,1.105 L15.423,0.501 L14.952,0.835 Z M13.173,2.817 L12.534,3.489 L12.333,2.919 L11.491,2.985 L11.695,4.027 L12.334,4.968 L12.635,4.699 L12.769,4.094 L13.475,4.33 C13.475,4.33 12.869,5.27 12.869,5.404 L12.869,5.404 C12.869,5.54 13.24,5.506 13.24,5.506 L13.24,5.506 L13.811,5.337 L14.113,4.497 L13.844,4.162 L14.482,3.455 L14.146,2.817 L13.173,2.817 Z" id="path-13"></path>
        <path d="M43.344,0.914 L42.201,2.19 L40.32,2.257 L39.917,1.92 L39.447,1.989 L37.901,2.863 L36.759,3.131 L36.088,2.728 L34.542,3.737 L34.071,5.013 L32.525,6.492 L30.778,6.557 L30.04,6.289 L28.695,6.289 L27.485,7.094 L28.493,8.841 L29.702,10.791 L30.04,12.405 L29.837,13.077 L30.04,13.546 L31.45,14.352 L31.048,14.688 L31.45,16.033 L32.391,17.846 L31.652,18.249 L29.569,17.509 L28.427,16.838 L28.629,16.234 L29.234,15.36 L28.629,14.888 L27.554,14.754 L25.941,15.025 L26.009,15.697 L25.739,15.697 L25.336,15.292 L24.462,15.292 L21.64,15.496 L21.437,15.831 L22.244,17.377 L23.118,18.117 L22.849,19.124 L22.647,20.738 L24.126,22.284 L26.208,22.349 L27.686,23.088 L28.492,23.291 L29.836,22.956 L30.911,22.619 L31.382,23.425 C31.382,23.425 31.247,23.626 30.977,23.829 L30.977,23.829 C30.709,24.03 30.574,25.24 30.574,25.24 L30.574,25.24 L30.239,27.053 L29.298,27.59 L28.627,27.59 L28.223,27.323 L27.551,27.053 L26.208,28.061 L25.199,28.196 L25.064,27.187 L23.99,26.716 L22.848,27.254 L22.042,28.8 L20.967,29.472 L19.086,30.818 L18.682,32.901 L19.152,34.041 L19.69,33.84 L20.025,34.041 L19.557,34.511 L19.489,35.385 L18.615,35.721 L18.615,36.125 L19.489,37.603 L19.758,39.215 L20.363,39.753 L22.917,39.753 L23.254,39.15 L23.656,39.551 L23.656,41.367 L23.925,42.105 L23.387,42.172 L22.781,42.576 L23.051,43.38 L22.849,44.456 L22.244,45.061 L23.318,45.196 L24.192,44.724 L25.874,44.658 L26.007,45.463 L26.477,45.666 L27.015,45.127 L27.62,47.547 L28.225,47.615 L28.293,46.404 L28.695,46 L29.232,46.135 L29.502,47.143 L30.914,46.873 L31.585,46.335 L31.451,47.412 L30.779,48.016 L29.838,49.898 L29.032,51.445 L27.352,52.048 L26.814,53.595 L26.477,53.595 L26.209,53.393 L25.671,53.528 L24.26,53.795 L22.983,54.199 L22.042,55.341 L21.639,55.476 L20.967,54.937 L19.825,54.871 L19.087,55.206 L17.876,55.476 L17.002,56.35 L15.188,57.021 L12.567,56.752 L11.29,57.29 L11.29,58.096 L11.962,58.567 L12.365,58.164 L13.306,57.895 L14.382,58.365 L15.255,58.499 L15.927,58.164 L16.8,57.625 L18.144,57.625 L19.354,56.82 L20.765,57.358 L21.975,56.954 L23.453,56.415 L23.318,57.423 L23.722,57.423 L24.058,56.484 L25.402,56.415 L26.544,56.82 L26.746,56.35 L27.351,55.745 L26.612,55.206 L28.83,54.265 L31.049,53.794 L31.923,53.326 L35.148,51.579 L37.836,49.831 L38.978,48.488 L38.642,47.614 L37.701,47.21 L37.835,46.539 L39.112,45.462 L40.859,44.859 L41.328,43.917 L42.068,42.841 L43.075,41.43 L45.156,40.289 L46.701,40.421 L47.24,41.497 L46.098,41.497 L45.694,40.959 L43.882,41.901 L43.814,42.237 L43.814,42.975 L42.874,44.587 L42.471,45.595 L43.411,45.865 L43.411,46.404 L41.865,46.672 L42.066,47.546 L44.016,47.614 L45.427,46.74 L46.167,45.865 L47.443,44.992 L48.585,45.73 L49.123,45.26 L49.661,45.595 L49.863,46.403 L50.4,46.537 L52.014,44.721 L51.744,44.049 L50.4,45.193 L51.006,43.378 L50.603,43.245 L50.133,44.455 L49.932,42.573 L51.408,41.967 L52.887,41.833 L54.028,44.252 L54.903,44.385 L57.591,45.999 L57.86,45.796 L60.145,45.796 L62.497,46.804 L64.044,47.276 L65.253,46.804 L65.992,46.133 L65.992,46.804 L65.454,48.15 L67.134,49.223 L69.15,50.299 L70.225,51.508 L71.636,52.517 L72.711,52.247 L72.914,52.381 L72.039,52.92 L72.039,53.862 L72.711,54.331 L73.383,55.54 L73.652,57.087 L74.526,57.289 L76.005,59.776 L76.608,60.313 L76.608,59.842 L76.475,57.492 L76.811,57.694 L77.081,59.239 L77.483,60.786 L77.952,60.582 L78.29,59.172 L78.625,59.172 L78.625,61.255 L79.23,61.861 L78.49,62.666 C78.49,62.666 78.76,63.136 79.029,63.271 L79.029,63.271 C79.299,63.406 79.432,62.869 79.432,62.869 L79.432,62.869 L79.836,63.808 C79.836,63.808 80.507,64.952 80.71,65.219 L80.71,65.219 C80.91,65.49 81.248,65.622 81.248,65.622 L81.248,65.622 L81.584,65.287 L81.045,64.548 L80.843,63.875 L81.717,64.413 L82.523,65.219 L82.993,65.018 L82.926,63.471 L82.321,62.331 L82.656,61.994 L83.396,62.463 L84.538,63.07 L85.143,64.345 L85.814,64.681 L86.554,63.742 L86.958,62.331 L86.755,61.052 L86.352,59.239 L84.202,58.365 L82.118,57.626 L81.514,56.08 L80.573,54.938 L79.431,53.326 L78.02,50.839 L76.407,50.099 L75.937,49.091 L75.132,48.623 L74.861,47.413 L73.585,46.539 L72.779,47.143 L72.309,47.21 L71.703,47.881 L71.569,49.159 L71.301,49.226 L69.89,50.032 L69.688,48.957 L66.798,46.135 L66.731,44.924 L65.655,44.924 L65.051,45.395 L63.773,45.329 L63.102,44.924 L63.235,9.444 L61.419,8.238 L59.403,7.43 L58.597,7.768 L57.723,8.037 L55.573,6.96 L54.968,7.365 L52.347,5.617 L49.39,5.347 L48.584,4.743 L48.449,3.198 L46.837,3.063 L46.165,3.736 L45.896,3.264 L46.098,2.794 L45.292,1.92 L43.814,0.914 L43.344,0.914 Z M12.433,20.598 L12.501,21.673 L13.508,21.673 L14.247,22.28 L14.985,23.958 L16.196,24.093 L16.263,23.69 L15.389,21.471 L14.247,21.204 L13.642,20.598 L13.172,19.591 L12.433,20.598 Z M5.308,29.537 L5.308,30.341 L6.182,31.619 L6.651,31.284 L6.182,30.612 L5.713,29.537 L5.308,29.537 Z M14.382,36.526 L15.794,38.002 L17.07,38.07 L17.741,36.525 L17.406,36.122 L15.86,35.717 L14.314,35.381 C14.314,35.381 14.382,36.526 14.382,36.526 L14.382,36.526 Z M52.484,44.118 L52.618,45.059 L53.626,44.455 L53.223,43.714 L52.484,44.118 Z M39.514,50.167 L37.565,51.645 L35.549,52.855 L35.012,53.326 L35.482,55.745 L36.692,56.08 L38.775,54.871 L40.59,53.794 L39.917,52.787 L40.119,51.78 L39.245,52.318 L38.034,51.981 L38.708,51.51 L39.513,51.846 L41.127,51.109 L41.327,50.502 L40.32,50.167 L40.656,49.362 L39.514,50.167 Z M20.362,58.03 L21.033,58.834 L21.907,58.164 L21.303,57.625 L20.362,58.03 Z M5.577,58.096 L5.711,58.769 L4.904,59.576 L4.099,59.373 L3.896,58.702 L2.822,58.568 L1.411,58.969 L0,59.912 L0.471,60.178 L1.143,60.045 L2.958,59.44 L4.503,59.911 L5.645,60.113 L7.46,59.641 L7.929,58.904 L6.719,57.829 L5.577,58.096 Z M31.383,58.499 L31.987,59.238 L32.391,58.768 L32.055,57.961 L31.383,58.499 Z M21.572,59.304 L22.581,59.304 L22.916,58.499 L22.042,58.365 L21.572,59.304 Z" id="path-15"></path>
        <path d="M57.378,1.605 L52.606,2.815 L44.639,4.405 L36.076,5.972 L28.953,7.048 L22.377,7.855 L19.41,8.392 L17.527,8.089 L17.527,9.737 L17.327,10.611 L16.116,11.685 L15.444,13.162 L14.503,13.03 L13.629,13.297 L12.687,14.777 C12.687,14.777 12.218,14.642 11.883,14.642 L11.883,14.642 C11.546,14.642 11.546,14.171 11.546,14.171 L11.546,14.171 L11.277,14.24 L9.664,15.852 L9.395,17.129 L7.581,18.003 L5.835,19.482 L4.221,20.085 L2.474,21.229 L2.206,22.775 L1.062,23.042 L0.324,23.649 L0.19,25.663 L3.012,25.462 L5.902,25.126 L8.32,24.722 L8.994,24.589 L11.547,23.513 L15.31,21.631 L18.335,21.296 L25.187,21.093 L26.13,21.901 L26.801,23.244 L28.615,23.042 L33.857,22.438 L35.067,22.774 L40.309,25.931 L44.444,29.341 L46.895,28.417 L48.844,28.216 L49.046,27.208 L49.852,24.521 L51.263,22.572 L53.951,20.354 L56.101,19.344 L57.243,19.077 L57.713,19.279 L58.251,19.279 L59.528,17.261 L60.334,15.785 L59.796,15.987 L58.854,16.926 L58.586,16.255 L56.839,16.255 L57.645,13.633 L57.309,13.096 L56.504,13.096 L56.504,12.694 L56.37,12.156 L57.041,12.694 L57.645,12.759 L58.654,12.894 L60.2,12.221 L60.737,11.011 L61.007,10.137 L62.083,9.6 L62.216,7.854 L61.88,7.583 L62.888,7.518 L62.619,6.577 L61.61,5.569 L60.133,2.88 L59.422,0.926 L57.378,1.605 Z M62.987,7.113 L63.257,7.886 L63.862,8.861 L64.131,11.414 L64.063,12.253 L63.426,12.524 L62.115,13.597 L61.042,14.639 L61.476,14.706 L61.946,14.203 L63.122,13.195 L64.533,12.556 L64.6,11.146 L64.432,9.297 L63.291,7.012 L62.987,7.113 Z" id="path-17"></path>
        <path d="M11.45,0.808 L9.77,2.019 L9.77,2.422 L9.434,2.757 L8.292,2.488 L7.754,1.548 L7.754,1.077 L7.216,1.01 L6.678,1.01 L5.804,2.757 L4.594,6.453 L3.855,8.47 L3.922,10.485 L3.988,11.09 L3.653,12.232 L3.316,12.635 L3.316,15.121 L4.124,16.13 L3.518,17.809 L2.443,19.758 L2.107,22.043 L2.107,23.118 L1.478,22.948 L0.463,23.091 L2.443,29.233 L5.468,38.977 L5.602,40.119 L7.215,40.59 L7.418,41.866 L8.441,42.348 L9.097,39.18 L9.165,37.365 L9.768,36.827 L9.365,35.483 L10.643,34.005 L11.315,34.61 L11.853,34.408 L14.07,33.132 L14.206,31.922 L15.415,31.719 L16.087,30.644 L16.02,29.973 L15.886,28.695 L16.222,28.157 L16.088,27.687 L15.55,27.082 L16.424,26.544 L17.164,27.888 L17.768,27.755 L17.902,28.291 L17.902,28.965 L18.708,29.031 L18.91,27.889 L19.111,27.62 L18.44,27.015 L18.843,26.409 L19.851,25.805 L20.254,25.2 L20.992,25.133 C20.992,25.133 21.127,26.007 21.396,26.007 L21.396,26.007 L21.934,26.007 L23.95,23.722 L25.361,22.445 L26.167,22.177 L27.041,20.227 L27.041,19.422 L26.1,17.875 L25.294,17.001 L24.149,17.07 L24.351,17.54 L24.284,17.742 L23.948,17.742 L22.737,16.801 L22.671,14.785 L22.335,13.98 L19.849,13.98 L16.086,1.548 L15.278,1.144 L12.794,0.137 L12.189,0.069 L11.45,0.808 Z M19.955,26.14 L19.382,27.081 L20.121,27.854 C20.121,27.854 20.659,27.888 20.659,27.752 L20.659,27.752 C20.659,27.619 20.76,26.913 20.76,26.913 L20.76,26.913 L21.13,26.577 L20.794,25.839 L19.955,26.14 Z M16.593,29.532 L17.331,30.71 L18.038,30.341 L17.802,29.332 L17.231,28.895 L16.593,29.532 Z" id="path-19"></path>
        <path d="M22.232,1.098 L16.049,2.272 L0.481,5.411 L0.95,7.493 L1.354,9.846 L1.487,9.713 L2.361,8.705 L3.303,7.428 L4.311,7.36 L4.917,6.755 L5.654,5.681 L6.193,5.949 L7.402,5.815 L8.478,4.941 L9.312,4.338 L10.08,4.135 L10.763,4.605 L11.973,5.211 L12.779,5.949 L13.283,6.588 L14.997,7.294 L14.997,8.503 L17.282,9.041 L18.087,9.579 L18.49,8.773 L19.432,9.445 L18.828,10.79 L18.693,11.931 L17.955,13.007 L17.955,13.881 L18.223,14.619 L20.328,15.183 L22.121,15.157 L23.397,15.56 L24.271,15.694 L24.674,14.82 L24.068,13.946 L24.068,13.207 L23.06,12.333 L22.187,10.048 L22.725,7.831 L22.657,6.957 L22.121,6.419 C22.121,6.419 22.725,5.746 22.725,5.477 L22.725,5.477 C22.725,5.208 22.927,4.603 22.927,4.603 L22.927,4.603 L23.733,4.065 L24.539,3.393 L24.741,3.796 L24.136,4.468 L23.598,6.015 L23.732,6.484 L24.471,6.618 L24.673,8.903 L23.799,9.306 L23.933,10.784 L24.135,10.717 L24.605,9.911 L25.277,10.65 L24.605,11.188 L24.471,12.599 L25.545,14.01 L27.16,14.213 L27.831,13.876 L29.175,16.026 L29.915,16.228 L29.915,17.706 L28.973,19.723 L28.771,22.612 L29.377,24.023 L29.981,24.09 L30.788,22.343 L31.124,20.865 L31.19,17.908 L32.467,15.892 L33.341,13.002 L33.341,10.653 L30.79,11.19 L28.706,11.257 L28.034,8.636 L27.16,4.604 L26.219,2.253 L25.683,0.425 L22.232,1.098 Z M26.523,14.719 L26.993,15.761 L27.06,16.5 L27.53,17.272 C27.53,17.272 27.9,16.902 27.9,16.768 L27.9,16.768 C27.9,16.635 27.598,15.491 27.598,15.491 L27.598,15.491 L27.295,14.517 L26.523,14.719 Z" id="path-21"></path>
        <polygon id="path-23" points="3.817 9.825 2.487 19.139 0.927 30.771 0.301 35.389 0.063 37.005 14.366 38.715 29.721 40.556 43.34 41.472 46.108 41.757 50.673 41.984 50.669 42.041 50.86 41.993 50.673 41.984 52.381 14.669 53.045 5.357 39.171 4.219 29.002 3.362 13.511 1.651 4.91 0.606"></polygon>
        <path d="M3.817,9.825 L2.487,19.139 L0.927,30.771 L0.301,35.389 L0.063,37.005 L14.366,38.715 L29.721,40.556 L43.34,41.472 L46.108,41.757 L50.673,41.984 L52.381,14.669 L53.045,5.357 L39.171,4.219 L29.002,3.362 L13.511,1.651 L4.91,0.606 L3.817,9.825 Z M50.669,42.041 L50.86,41.993 L50.673,41.984 L50.669,42.041 Z" id="path-25"></path>
    </defs>
    <g id="259" stroke="none" stroke-width="1" fill="none" fill-rule="evenodd">
        <g id="Group-83" transform="translate(1.000000, 29.000000)">
            <path d="M99.0553,210.6344 L98.6513,212.1804 L101.2053,213.2554 L102.0783,213.1214 L102.7513,211.5084 L102.4813,210.0974 L100.7343,209.8964 L99.0553,210.6344 Z M95.2233,212.2494 L94.4173,213.7264 L94.4173,213.7274 L95.4233,213.7274 L96.2983,212.4494 L96.1643,212.1144 L95.2233,212.2494 Z M111.6873,215.6094 L111.4193,216.3474 L112.9653,218.6324 L113.9733,218.4984 L114.4423,218.2964 L115.0483,218.8344 L116.5943,218.7674 L116.9973,218.1624 L115.7863,217.4234 L114.9813,215.8774 L114.1073,214.4004 L111.6873,215.6094 Z M119.8193,220.0444 L122.1063,220.7164 L123.9203,220.8514 L124.9943,220.2444 L125.1293,219.7074 L122.5753,219.4394 L122.3063,219.6394 L120.3563,219.2364 L119.8193,220.0444 Z M124.9253,221.7234 L126.9423,224.4774 L127.9503,225.0814 L129.9653,224.6784 L131.4433,223.9404 L131.4433,223.1334 L129.6303,221.9904 L127.8153,221.5214 L125.8663,220.5134 L124.9253,221.7234 Z M122.0373,222.1944 L122.8433,223.8054 L124.1193,223.3364 L124.2543,222.6634 L123.5823,221.7904 L122.0363,221.6554 L122.0373,222.1944 Z M131.8473,228.1744 L131.9823,229.0484 L132.6553,229.7864 L132.4523,230.1914 L131.5783,231.4674 L130.6383,231.8704 L130.7053,232.9464 L131.5783,233.6854 L132.2523,236.0364 L131.9813,237.0454 L132.1163,238.9264 L133.5933,240.0014 L134.3333,240.0684 L135.2743,238.8594 L136.2823,237.5134 L137.5593,236.7754 L138.1643,237.0454 L139.9103,236.4404 L141.5233,235.0954 L141.6573,234.5584 L139.9783,233.4824 L139.1723,231.6684 L138.5003,230.6594 L137.0893,229.7854 L133.9313,228.3094 L132.5203,227.6364 L131.8473,228.1744 Z" id="Fill-1" fill="#FFFFFF"></path>
            <g id="Group-4" transform="translate(240.000000, 129.000000)">
                <mask id="mask-2" fill="white">
                    <use xlink:href="#path-1"></use>
                </mask>
                <g id="Clip-3"></g>
                <polygon id="Fill-2" fill="#FFFFFF" mask="url(#mask-2)" points="-4.589 26.39 66.603 26.39 66.603 -4.902 -4.589 -4.902"></polygon>
            </g>
            <polygon id="Fill-5" fill="#FFFFFF" points="355.8919 36.8561 355.6229 36.6541 355.2209 36.2511 354.6149 37.0571 354.2169 39.3371 354.3479 41.6931 355.1529 42.8361 355.1529 44.5151 353.6069 46.1961 352.5309 46.6651 352.5309 47.1351 353.0009 47.8751 353.0009 51.4361 352.6649 55.2661 352.5989 57.2821 353.0019 57.8211 352.9349 59.7031 352.7329 60.4411 353.3379 61.2821 360.5279 59.5671 361.4689 59.2981 362.3429 57.9551 363.8989 57.2481 364.0239 56.6131 364.4769 55.2451 363.4199 54.8651 363.2179 53.5871 361.6049 53.1181 361.4709 51.9751 358.4469 42.2311 356.5339 36.1861 356.1599 36.1841"></polygon>
            <polygon id="Fill-6" fill="#FFFFFF" points="340.9069 77.9807 340.9069 79.2587 340.1009 80.5357 340.0339 81.2077 340.5719 81.7457 340.5059 82.7537 339.5639 83.2237 339.8999 84.3657 339.9669 84.8347 341.1089 84.9697 341.5109 86.0447 342.9899 87.0527 343.9979 87.7237 343.9979 88.0597 342.6539 89.3377 341.9819 90.2797 341.3779 91.4207 340.4359 91.9587 339.9319 92.2597 339.8309 92.7637 339.5779 93.8487 340.0309 94.7817 341.3769 95.9917 343.3919 96.9317 345.0719 97.2017 345.1389 97.8057 344.8019 98.2097 344.9369 99.3507 345.2729 99.3507 346.1469 98.3437 346.4829 96.3277 347.6249 94.6467 348.9019 91.9597 349.3719 89.6747 349.1029 89.2047 349.0359 85.3057 348.3639 83.8957 347.8939 84.2317 346.7519 84.3657 346.5499 84.1637 347.0199 83.7607 347.8939 82.9547 347.9209 82.4997 347.7599 81.0727 347.9619 79.9297 347.8949 79.0567 346.8199 78.5867 344.9379 78.1827 343.3239 77.7137 341.7809 76.9737"></polygon>
            <g id="Group-9" transform="translate(292.000000, 91.000000)">
                <mask id="mask-4" fill="white">
                    <use xlink:href="#path-3"></use>
                </mask>
                <g id="Clip-8"></g>
                <polygon id="Fill-7" fill="#FFFFFF" mask="url(#mask-4)" points="-4.443 37.746 38.351 37.746 38.351 -4.849 -4.443 -4.849"></polygon>
            </g>
            <polygon id="Fill-10" fill="#FFFFFF" points="74.3152 19.3286 75.7412 22.4646 75.1712 24.3656 75.9302 26.2676 77.2612 26.8366 78.7822 31.1146 80.3032 32.6346 80.4932 33.1106 81.9192 33.5846 82.1092 34.4396 79.1622 41.7576 79.1622 42.8026 80.2072 44.1326 80.5882 44.1326 82.5842 42.8976 82.8692 42.4226 83.5342 42.7076 83.4382 44.8936 84.5792 50.1206 85.8132 51.1656 86.1932 51.4506 86.9542 52.4006 86.7642 53.8266 87.0492 55.2526 87.5232 55.6326 88.4742 54.6826 89.6132 54.6826 90.9432 55.3476 91.9882 54.9676 93.6992 54.9676 95.2212 55.6326 96.3612 55.4426 96.5512 54.2076 97.7852 53.9226 98.3562 54.4926 98.5462 55.8226 99.6182 56.8566 100.2562 52.1156 108.5242 53.3516 120.3082 55.0626 127.0562 55.9166 140.3952 57.2866 145.1632 57.7866 145.8682 51.1736 146.1222 48.8836 146.4582 44.0476 147.3982 33.6786 147.9682 27.4066 148.4912 21.4906 135.2062 20.1236 123.0442 18.6466 110.8812 16.9656 97.4412 14.7476 89.7802 13.3366 76.1772 10.4546"></polygon>
            <polygon id="Fill-11" fill="#FFFFFF" points="65.9515 128.3816 65.7625 128.5716 65.0485 129.6646 64.0035 129.6166 63.4805 128.4756 62.3415 128.3336 61.9605 127.8586 61.5815 127.8586 61.2005 128.0966 60.3935 128.5246 60.3455 131.4236 60.2495 132.1366 60.0125 137.3636 59.3945 138.2666 59.1555 139.6446 60.2955 141.6876 60.8185 144.1106 61.1515 144.5386 61.5805 144.7766 61.5315 145.7266 60.8665 146.2956 59.4405 147.0096 58.6335 147.8176 58.0155 149.3376 57.7765 151.3806 56.5895 152.5216 55.7335 152.8056 55.6865 155.2296 55.4955 155.9436 55.6865 156.2766 57.2075 156.5126 56.9695 157.6536 56.3515 158.5556 54.7845 158.9346 53.6925 159.8326 53.5595 160.4366 53.7605 160.8396 61.6235 165.2766 66.6635 168.4336 72.7775 171.9956 79.7675 176.1616 84.8745 177.1696 95.9855 178.6276 96.8385 173.0946 98.3985 161.9036 101.2935 139.7896 103.0625 126.9836 92.3725 125.3876 81.0625 123.4866 67.1675 120.8616"></polygon>
            <polygon id="Fill-12" fill="#FFFFFF" points="142.1707 94.2167 156.0447 95.3557 155.3327 104.6227 164.4097 104.9557 181.2297 105.5257 199.5717 105.7147 202.1377 105.7147 200.8067 104.0037 199.7617 102.3887 199.8567 101.4387 199.3087 100.4347 199.3297 100.4937 199.2867 100.3937 199.3087 100.4347 198.5247 98.2067 198.4297 95.4507 197.7647 93.7397 197.4797 91.5537 196.5297 90.0327 196.1497 88.0367 195.0107 84.9007 194.5347 82.6677 193.8697 82.7157 193.1097 82.7157 192.7297 81.8607 192.5387 81.1957 191.3057 80.5307 189.2137 79.8657 188.4537 79.2957 187.3137 79.3897 185.6987 79.5807 183.8907 80.1507 183.4167 79.7697 181.4207 78.5357 180.5657 77.5857 176.0987 77.7767 166.2147 77.3007 158.8017 76.8257 150.4387 76.3497 143.9767 75.9227"></polygon>
            <polygon id="Fill-13" fill="#FFFFFF" points="229.1575 41.2931 227.9475 42.0991 224.8565 43.4431 223.6465 43.7121 222.4375 43.5111 222.0285 43.1451 221.1485 44.3231 221.0535 45.4641 221.0535 48.9801 220.5785 49.6451 218.3925 51.2611 217.4435 53.7321 217.6325 53.8261 218.6775 54.6821 218.9635 56.0121 218.2025 57.3431 218.2025 58.9581 218.3925 61.7141 219.6285 62.9491 221.0535 62.9491 221.8135 64.2801 223.2405 64.4701 224.8555 66.8461 227.8025 68.5571 228.6565 69.6971 229.0365 72.7861 229.3215 74.1651 230.2715 74.8301 230.3665 75.3981 229.5125 76.8251 229.6065 78.1551 230.6515 79.7711 231.6965 80.2471 232.9325 80.4361 233.4425 81.4811 237.2565 81.4811 248.3275 80.8161 252.4115 80.3401 252.4715 78.5871 251.8005 76.7051 251.5305 74.1511 251.0605 73.1431 251.4635 71.8661 251.8005 70.6561 252.4045 69.5821 252.1365 68.1711 251.8665 66.6921 252.0685 65.9531 252.8745 64.9451 252.9415 63.8031 252.6065 63.2651 252.8745 62.1901 253.0765 60.8461 254.2185 58.4941 255.4295 55.6721 255.4955 54.7311 255.3615 54.3281 255.0265 54.5301 253.2785 57.1511 252.1375 58.8311 251.3305 59.5701 250.9945 60.5121 250.3905 60.8471 249.9205 61.6531 249.3145 61.5191 249.2475 60.7801 249.7855 59.7721 250.6595 57.8221 251.3995 57.1511 251.8565 56.1981 251.1785 55.8221 250.6085 55.2521 249.9435 50.9751 248.4225 50.5011 247.8535 49.5501 242.6255 48.4091 241.5805 47.9351 238.1595 46.9851 234.7385 46.5101 233.0055 44.2631 232.7855 44.7881 232.3155 44.7201 232.0475 44.2501 230.9045 43.9151 230.4345 43.9811 229.6955 44.3841 229.2925 44.1151 229.5615 43.3091 230.3675 42.0321 230.8385 41.5621 230.0315 40.9571"></polygon>
            <polygon id="Fill-14" fill="#FFFFFF" points="146.5411 131.636 146.3161 136.435 155.3791 136.887 168.3041 137.361 167.7351 147.246 167.5441 154.658 167.6401 155.323 169.4461 156.844 170.3001 157.319 170.5851 157.224 170.8711 156.369 171.4401 157.13 172.2951 157.13 172.2951 156.559 173.4361 157.13 173.2461 158.746 174.9571 158.841 176.0021 159.315 177.7131 159.6 178.7571 160.359 179.7071 159.506 181.1331 159.792 182.1781 161.216 182.5591 161.216 182.5591 162.168 183.5081 162.451 184.4581 161.503 185.2191 161.786 186.2641 161.786 186.6441 162.833 188.6401 163.591 189.2091 163.306 189.9691 161.595 190.4451 161.595 190.9191 162.45 192.6311 162.735 194.1521 163.305 195.3861 163.685 196.1471 163.305 196.4321 162.26 198.2381 162.26 199.0921 162.64 200.2321 161.785 200.7081 161.785 200.9931 162.45 202.7041 162.45 203.3691 161.595 204.1291 161.785 204.9831 162.831 206.3141 163.591 207.6451 163.97 208.7841 164.635 208.6901 148.764 208.1191 144.202 208.1191 140.781 207.4551 137.931 207.2651 135.079 207.1701 133.226 201.6581 133.559 182.3661 133.368 163.6441 132.514 153.5501 131.945 149.1081 131.757 146.4351 131.553"></polygon>
            <g id="Group-17" transform="translate(212.000000, 169.000000)">
                <mask id="mask-6" fill="white">
                    <use xlink:href="#path-5"></use>
                </mask>
                <g id="Clip-16"></g>
                <polygon id="Fill-15" fill="#FFFFFF" mask="url(#mask-6)" points="-4.609 41.53 46.346 41.53 46.346 -4.513 -4.609 -4.513"></polygon>
            </g>
            <polygon id="Fill-18" fill="#FFFFFF" points="292.3186 145.7219 289.8996 146.1259 287.0106 146.4619 284.1896 146.6599 282.1736 146.9949 278.6796 147.4669 275.1176 147.8379 275.1176 148.7429 275.1856 149.6169 275.4536 151.0279 276.8646 154.3209 277.8726 158.4219 278.4776 160.9739 279.1496 162.9899 279.7546 165.8809 280.6286 168.5029 281.7026 169.9119 281.9056 171.3229 282.7106 171.6589 282.7786 172.5329 282.0396 174.5509 281.8376 175.8939 281.7706 176.6989 282.4426 178.5139 282.5766 180.7309 282.2406 181.7389 282.5106 182.0749 283.1146 182.4109 283.3846 183.8219 284.4596 185.4349 285.0636 186.0389 288.3566 186.1069 292.8546 185.8399 301.7976 185.3009 304.0606 185.0209 305.9646 185.0319 306.0306 186.2419 307.1056 186.5769 307.2396 184.7639 306.5676 182.8839 307.0376 182.2119 309.4576 182.5469 311.5256 182.6799 311.2046 180.0609 312.1446 175.8949 312.7506 174.1479 312.5476 173.0719 314.2286 170.1819 313.9786 169.5119 313.2206 169.9129 312.1446 169.3769 311.8766 168.5029 311.3376 167.0229 310.3966 166.1489 309.3216 165.8809 308.6496 163.8639 307.5076 161.3789 305.7606 160.5719 304.8866 159.7669 304.3486 158.6909 303.4746 157.8859 302.5336 157.3479 301.5926 156.1389 300.3156 155.1959 298.4336 154.4579 298.2316 153.8529 297.2236 152.6419 297.0216 152.0359 295.6106 149.8879 294.1996 149.9549 292.5206 148.9459 291.9816 148.4079 291.8476 147.6709 292.1836 146.8629 293.1246 146.4619 293.0586 145.5119"></polygon>
            <polygon id="Fill-19" fill="#FFFFFF" points="357.5065 67.0277 348.4355 69.0107 348.7035 70.3887 349.3095 73.4127 349.3095 76.7717 348.8385 77.7137 349.6005 78.5897 351.6605 77.1757 353.1385 75.8327 353.9445 74.9587 354.2805 75.2267 355.4225 74.6227 357.5735 74.1517 361.0665 72.6057 360.6645 70.8577 360.3285 69.0447 359.6565 66.5577"></polygon>
            <polygon id="Fill-20" fill="#FFFFFF" points="342.9238 42.2669 343.2598 44.3149 344.2658 47.0019 344.6028 49.1519 344.1998 50.7639 345.2748 52.6479 345.6098 53.5219 345.2748 54.7309 346.4848 55.2679 346.7538 55.4029 348.0308 59.9729 348.3668 62.3249 350.4478 61.8509 353.3388 61.2809 352.7328 60.4409 352.9358 59.7019 353.0018 57.8199 352.5978 57.2819 352.6658 55.2659 353.0018 51.4349 353.0018 47.8739 352.5308 47.1339 352.5308 46.6639 353.6068 46.1949 355.1528 44.5139 355.1528 42.8349 354.3458 41.6929 354.2128 39.2739"></polygon>
            <polygon id="Fill-21" fill="#FFFFFF" points="328.3411 73.883 310.4661 77.513 306.7701 78.118 306.5641 75.173 304.2811 77.513 303.7441 77.714 301.9971 78.965 303.2081 86.92 303.9081 91.389 305.3941 99.396 307.3191 99.085 312.2821 98.459 328.0501 95.273 334.2331 94.099 337.6841 93.426 338.2201 92.901 339.0941 92.23 339.9671 92.228 340.4371 91.96 341.3781 91.421 341.9821 90.28 342.6551 89.339 343.9991 88.061 343.9991 87.725 342.9891 87.054 341.5131 86.046 341.1091 84.97 339.9681 84.837 339.9011 84.367 339.5651 83.224 340.5061 82.754 340.5721 81.746 340.0341 81.209 340.1021 80.537 340.9071 79.26 340.9071 77.982 341.8821 76.975 341.3111 76.572 340.2351 76.505 339.2951 75.699 338.2861 73.48 337.0381 73.094 336.0681 72.204"></polygon>
            <polygon id="Fill-22" fill="#FFFFFF" points="277.8034 109.4978 276.0884 109.5998 275.8544 110.5078 276.4594 111.1118 276.5924 111.9178 275.4504 112.7238 273.8384 113.4628 272.6954 113.5978 272.4934 115.4778 270.5444 117.0918 269.3354 118.5688 269.4694 119.5108 269.1314 120.3848 267.1844 120.3848 266.7144 119.7138 266.2434 120.0498 265.0334 120.7218 265.1004 122.1318 264.2264 122.3348 263.8914 121.8628 263.0854 121.1908 261.8754 121.7968 261.1364 123.1398 260.3964 122.8048 259.7924 121.9988 258.3134 122.1998 255.8944 122.6028 254.6514 123.3088 254.2144 124.6868 253.7444 125.0228 254.0134 125.8288 254.3504 126.5678 253.6784 126.8378 252.6024 127.1068 251.7974 127.7128 251.6624 128.6518 252.2004 129.6598 252.1334 130.6008 251.6634 130.7348 250.1864 130.1968 249.0434 129.6588 248.1704 129.9298 247.2284 130.6688 246.8954 131.4618 247.5644 132.5158 247.1834 133.2748 247.0894 134.6048 246.2344 135.0798 245.3274 135.8118 244.9094 136.3288 249.2454 136.2438 252.1364 135.9748 255.6304 135.7728 255.6304 134.1598 257.2374 134.1728 259.1594 133.9608 265.7104 133.2208 287.2704 131.1838 288.3564 130.5998 290.7084 129.1888 292.3214 128.3148 292.3214 127.4408 293.0614 126.7018 294.9434 124.4838 296.6894 123.0078 297.9854 121.7018 296.6184 120.7868 295.5444 119.6458 294.3344 118.0988 294.0644 117.1578 292.9904 116.5548 292.6534 115.8828 292.5874 113.5978 291.1094 112.7238 290.3694 112.3198 290.1014 111.1778 289.4284 111.1778 288.6894 111.7168 287.5474 112.7898 287.0104 112.1848 285.7324 111.9828 284.7254 112.5888 283.8514 112.5208 283.1114 111.7828 280.6924 111.6478 280.0214 109.8348 278.8104 109.1618"></polygon>
            <g id="Group-25" transform="translate(232.000000, 28.000000)">
                <mask id="mask-8" fill="white">
                    <use xlink:href="#path-7"></use>
                </mask>
                <g id="Clip-24"></g>
                <polygon id="Fill-23" fill="#FFFFFF" mask="url(#mask-8)" points="-4.047 63.446 60.756 63.446 60.756 -4.075 -4.047 -4.075"></polygon>
            </g>
            <polygon id="Fill-26" fill="#FFFFFF" points="69.9907 10.919 68.4227 16.525 66.5697 25.173 65.0487 32.016 64.8837 36.031 65.4297 37.86 66.8547 38.954 66.7607 40.521 65.1437 42.328 63.5277 44.751 63.1477 45.035 62.9097 46.366 62.4347 46.842 61.6757 47.031 59.8217 49.312 59.6797 50.595 59.4887 51.07 59.8217 51.498 60.8667 51.45 61.3907 52.4 60.3457 54.871 59.7747 56.629 57.9697 63.995 55.9947 71.671 64.7147 73.547 68.7537 74.355 72.6027 75.115 75.9287 75.947 81.2027 76.921 86.1917 77.776 90.4697 78.537 93.9377 79.106 95.9337 79.439 98.0717 66.847 99.6407 56.679 98.5477 55.823 98.3567 54.493 97.7867 53.924 96.5527 54.209 96.3617 55.443 95.2217 55.634 93.7007 54.969 91.9897 54.969 90.9447 55.348 89.6147 54.683 88.4747 54.683 87.5247 55.634 87.0497 55.254 86.7647 53.827 86.9557 52.401 86.1947 51.451 85.8147 51.167 84.5807 50.122 83.4397 44.894 83.5347 42.709 82.8697 42.424 82.5857 42.898 80.5887 44.133 80.2097 44.133 79.1647 42.803 79.1647 41.758 82.1097 34.44 81.9197 33.585 80.4937 33.11 80.3037 32.635 78.7827 31.114 77.2617 26.837 75.9307 26.268 75.1707 24.367 75.7407 22.465 74.3147 19.329 76.1777 10.455 70.3087 9.338"></polygon>
            <path d="M145.2064,144.2045 L143.5904,167.2985 L142.6414,177.1825 L130.5704,176.5175 L118.5014,175.3775 L115.1764,175.0925 L115.4464,177.0365 L116.2514,177.2395 L117.3264,178.4485 L117.9324,180.2625 L119.8804,181.2035 L120.4184,182.5475 L123.3754,185.8405 L123.9134,186.5125 L125.9964,187.3865 L126.4664,188.2605 L127.1394,188.6635 L127.3404,189.8055 L128.6854,192.4945 L128.6854,195.8525 L129.6254,197.8025 L132.7164,201.0285 L134.8664,201.9025 L135.6064,202.7095 L135.6064,202.9775 L137.2194,203.9185 L138.0244,204.1865 L138.7644,204.6575 L139.8384,205.0595 L140.8464,204.0525 L142.6604,201.4975 L143.0634,199.9525 L144.0044,198.6085 L145.4824,198.0035 L147.3644,197.2635 L148.6414,198.2055 L151.7334,198.4745 L154.5544,198.9455 L155.6294,199.8195 L155.6294,200.2885 L156.7044,201.5655 L159.1904,203.7835 L159.2574,204.3885 L159.9964,205.1945 L160.3324,206.9415 L162.5514,212.0485 L162.4834,212.8535 L164.2304,213.9295 L165.7084,216.6845 L167.1194,218.4975 L168.4634,219.0365 L169.1364,219.9775 L168.5984,221.7905 L168.8664,222.1945 L169.4044,222.4635 L169.2704,223.8735 L169.0014,224.1435 L169.2704,225.0845 L170.6144,225.8905 L171.1524,228.5785 L172.0264,230.1925 L175.1854,231.6015 L177.3344,232.0725 L179.0814,233.3495 L180.4264,233.6185 L180.9634,233.4165 L183.2484,233.8855 L185.6014,235.4995 L186.8774,234.6945 L187.2804,234.0885 L186.5414,232.9475 L186.1394,230.3925 L185.3994,227.5025 L185.0634,226.4955 L185.3994,224.6135 L185.8694,222.9995 L186.4074,221.1175 L187.0134,218.8325 L186.0714,218.0265 L186.4754,217.2205 L188.1544,217.0865 L189.7684,214.8015 L191.1794,214.5335 L193.5974,213.0545 L194.3374,212.4495 L196.9574,211.0385 L199.3104,210.0305 L201.5274,208.6855 L202.6704,207.8115 L205.0224,205.5945 L205.5604,205.2585 L206.4344,204.6535 L207.5084,203.8475 L207.9114,203.0415 L212.0104,201.1605 L214.6994,200.4325 L214.5804,198.9445 L215.1504,197.6145 L215.4364,194.5725 L215.7214,193.5285 L215.0564,192.6725 L216.2904,190.5815 L216.5754,187.0655 L216.2904,186.7805 L216.1954,185.4495 L214.3904,183.1685 L214.0104,181.0775 L212.9644,179.3665 L212.6804,177.7505 L212.3954,173.8545 L212.3884,169.8225 L212.1094,165.2065 L210.9704,164.7305 L209.7344,165.3015 L208.7844,164.4945 L207.6444,163.9705 L206.3134,163.5905 L204.9834,162.8305 L204.1294,161.7855 L203.3694,161.5955 L202.7034,162.4515 L200.9934,162.4515 L200.7074,161.7855 L200.2324,161.7855 L199.0934,162.6405 L198.2384,162.2605 L196.4314,162.2605 L196.1474,163.3055 L195.3864,163.6845 L194.1524,163.3055 L192.6314,162.7355 L190.9194,162.4515 L190.4454,161.5955 L189.9694,161.5955 L189.2094,163.3065 L188.6404,163.5915 L186.6444,162.8315 L186.2644,161.7865 L185.2194,161.7865 L184.4584,161.5015 L183.5084,162.4515 L182.5594,162.1665 L182.5594,161.2165 L182.1794,161.2165 L181.1334,159.7905 L179.7074,159.5055 L178.7574,160.3615 L177.7124,159.5995 L176.0014,159.3145 L174.9564,158.8405 L173.2464,158.7455 L173.4354,157.1295 L172.2954,156.5585 L172.2954,157.1295 L171.4404,157.1295 L170.8704,156.3695 L170.5854,157.2235 L170.3014,157.3205 L169.4464,156.8445 L167.6394,155.3235 L167.5444,154.6585 L167.7354,147.2455 L168.3054,137.3615 L155.3794,136.8865 L145.9484,136.4345 L146.4424,136.4235 L145.8714,136.4115 L145.2064,144.2045 Z M189.4384,216.2815 L187.9934,218.5325 L186.6154,221.3885 L185.9784,224.8145 L186.2124,227.7385 L187.3554,230.7275 L187.5894,233.6855 L187.9614,233.5855 L187.8954,232.9805 L187.6924,230.8305 L186.6174,227.8405 L186.2474,225.2865 L186.3814,223.1365 L187.2224,220.3815 L189.0354,217.6595 L191.0184,214.9045 L190.7484,214.8035 L189.4384,216.2815 Z" id="Fill-27" fill="#FFFFFF"></path>
            <g id="Group-30" transform="translate(3.000000, 59.000000)">
                <mask id="mask-10" fill="white">
                    <use xlink:href="#path-9"></use>
                </mask>
                <g id="Clip-29"></g>
                <polygon id="Fill-28" fill="#FFFFFF" mask="url(#mask-10)" points="-4.638 104.891 63.582 104.891 63.582 -4.715 -4.638 -4.715"></polygon>
            </g>
            <polyline id="Fill-31" fill="#FFFFFF" points="153.6693 132.0406 155.3813 104.6696 156.0453 95.3566 142.1703 94.2186 132.0013 93.3616 116.5113 91.6506 107.9093 90.6056 106.8163 99.8246 105.4863 109.1386 103.9273 120.7706 103.3013 125.3896 103.0633 127.0046 117.3653 128.7156 132.7213 130.5566 146.3403 131.4726 149.1073 131.7566 153.8593 131.9936"></polyline>
            <polygon id="Fill-32" fill="#FFFFFF" points="106.8169 99.8246 105.4869 109.1386 103.9269 120.7716 103.3019 125.3886 103.0629 127.0046 117.3659 128.7156 132.7209 130.5556 146.3399 131.4726 149.1079 131.7566 153.6729 131.9846 153.6689 132.0406 153.8599 131.9936 153.6729 131.9846 155.3809 104.6696 156.0449 95.3566 142.1709 94.2186 132.0019 93.3616 116.5109 91.6506 107.9099 90.6056"></polygon>
            <polygon id="Fill-33" fill="#FFFFFF" points="106.8169 99.8246 105.4869 109.1386 103.9269 120.7716 103.3019 125.3886 103.0629 127.0046 117.3659 128.7156 132.7209 130.5556 146.3399 131.4726 149.1079 131.7566 153.6729 131.9846 153.6689 132.0406 153.8599 131.9936 153.6729 131.9846 155.3809 104.6696 156.0449 95.3566 142.1709 94.2186 132.0019 93.3616 116.5109 91.6506 107.9099 90.6056"></polygon>
            <polygon id="Fill-34" fill="#FFFFFF" points="147.9685 27.4052 147.3975 33.6762 146.4585 44.0462 146.1905 49.0942 169.5405 50.5932 193.7745 51.2602 193.4895 47.7432 192.7305 44.7022 191.9705 39.0952 191.7795 35.0082 191.0205 33.5832 190.3545 31.4922 190.3545 27.2142 190.6405 25.5982 189.8265 23.3132 177.6105 23.0792 169.8825 22.8102 158.8625 22.2722 148.4915 21.4882"></polygon>
            <polygon id="Fill-35" fill="#FFFFFF" points="227.326 72.8309 219.818 73.1159 199.195 73.4009 194.396 73.4009 193.683 73.4009 193.303 74.4459 193.492 75.5859 194.633 76.4409 194.063 78.8169 193.303 80.6219 193.968 81.7629 194.537 82.6649 195.013 84.8989 196.153 88.0349 196.532 90.0309 197.483 91.5519 197.768 93.7379 198.433 95.4489 198.528 98.2049 199.216 100.4409 199.669 100.3899 203.565 100.2949 209.172 100.2009 219.721 99.8209 223.808 99.6299 227.039 99.3449 227.514 100.2949 228.892 101.6979 229.605 100.9609 229.51 100.1059 229.605 99.5359 230.27 99.0609 231.029 98.8709 231.029 97.7309 231.315 97.0659 232.074 96.4009 232.171 94.6899 231.409 94.0249 231.123 93.4549 231.409 92.5989 231.695 91.8399 233.882 91.2689 234.641 90.9849 235.592 90.2239 235.876 89.1789 236.637 87.6579 236.921 86.2329 236.637 85.2829 235.02 83.8569 234.829 83.0959 234.449 82.6219 233.498 82.3369 233.476 81.5769 232.932 80.4319 231.696 80.2419 230.652 79.7669 229.607 78.1519 229.512 76.8219 230.366 75.3959 230.272 74.8259 229.321 74.1609 229.037 72.7829"></polygon>
            <polygon id="Fill-36" fill="#FFFFFF" points="302.332 142.2929 299.309 142.6289 295.546 144.5109 292.992 145.5849 293.125 146.4599 292.185 146.8629 291.849 147.6689 291.982 148.4069 292.521 148.9459 294.2 149.9529 295.612 149.8859 297.023 152.0349 297.225 152.6419 298.232 153.8529 298.435 154.4559 300.316 155.1959 301.594 156.1369 302.534 157.3459 303.476 157.8849 304.35 158.6909 304.888 159.7659 305.762 160.5719 307.509 161.3769 308.65 163.8639 309.322 165.8789 310.397 166.1489 311.339 167.0229 311.876 168.5009 312.146 169.3749 313.221 169.9119 313.96 169.5099 314.831 168.9679 316.915 166.6839 316.512 165.3389 317.722 165.2729 319.2 163.8619 319.871 163.5259 320.813 162.1139 321.955 160.9719 322.829 159.4939 323.837 159.2259 324.307 158.0829 324.979 157.7479 325.181 155.1269 326.256 152.5729 328.51 150.3029 324.308 146.9269 319.065 143.7699 317.856 143.4339 312.614 144.0389 310.8 144.2399 310.129 142.8969 309.187 142.0909"></polygon>
            <polygon id="Fill-37" fill="#FFFFFF" points="270.9517 148.2077 259.3937 149.2837 256.1697 149.4367 256.0997 152.1047 256.1687 159.0267 255.8317 171.9277 255.7647 177.7757 256.9067 185.5707 257.5787 191.8867 258.7197 191.8887 258.9887 191.9557 259.5267 190.8147 260.1317 188.9997 261.0727 189.2697 262.3487 191.7547 262.3487 192.1577 261.2087 192.9647 262.3487 193.0977 265.0777 192.0287 264.8367 188.7297 263.7627 187.9237 263.0227 187.1837 263.1567 185.9077 267.3917 185.3687 278.0097 184.1587 280.8307 183.8897 283.4517 183.8897 283.1157 182.4117 282.5117 182.0757 282.2417 181.7407 282.5777 180.7327 282.4437 178.5147 281.7717 176.6997 281.8387 175.8947 282.0407 174.5507 282.7797 172.5337 282.7127 171.6597 281.9067 171.3247 281.7047 169.9127 280.6307 168.5027 279.7567 165.8807 279.1507 162.9907 278.4797 160.9747 277.8747 158.4217 276.8657 154.3227 275.4547 151.0297 275.1857 149.6177 275.1187 148.7437 275.1797 147.8377"></polygon>
            <path d="M362.3458,57.9566 L361.4718,59.3006 L360.5308,59.5686 L353.2728,61.3166 L350.4498,61.8546 L348.3008,62.2246 L348.0308,66.6266 L348.4338,69.0126 L357.5068,67.0296 L359.6228,66.5926 L362.0088,65.9556 L362.6818,66.4256 L364.0918,68.2396 L365.2338,70.1216 L366.3758,69.5166 L366.1748,68.5756 L366.5098,67.9696 L367.7198,67.3656 L368.0568,68.6426 L367.8538,69.3816 L366.8458,69.9856 L366.8458,70.3896 L367.6518,69.7846 L369.2648,67.9016 L370.8768,67.0956 L372.6258,66.4926 L372.4908,65.4836 L372.0878,64.2726 L371.2818,63.2646 L370.5428,62.9296 L369.6678,62.9966 L369.4678,63.1986 L369.8698,63.7356 L370.4748,63.3996 L371.3498,64.0716 L371.6848,65.2146 L370.9448,65.9536 L370.0038,66.3566 L368.5268,66.1536 L366.9138,63.6686 L365.9728,62.5936 L365.2338,62.5936 L364.7638,62.9296 L363.9588,61.8546 L364.0918,61.2496 L365.0998,59.0996 L363.8988,57.2656 L362.3458,57.9566 Z M372.5378,69.8386 L371.6358,70.1236 L371.4448,70.3616 L373.0608,70.3126 L373.5838,70.1236 L373.1558,69.1736 L372.7278,69.1256 L372.5378,69.8386 Z M368.6878,69.3636 L367.7378,70.4566 L368.2108,70.8376 L369.1148,70.4096 L370.1128,69.9806 L369.3528,69.3636 L368.6878,69.3636 Z" id="Fill-38" fill="#FFFFFF"></path>
            <polygon id="Fill-39" fill="#FFFFFF" points="339.0943 92.2277 338.2203 92.9007 337.6143 93.5057 338.2203 95.2527 339.1613 97.6047 340.0343 101.6367 340.7063 104.2567 342.7903 104.1897 345.3433 103.6867 344.4013 100.6287 343.9993 100.8317 342.5203 99.8237 341.7813 97.8747 340.9753 96.3967 340.0343 95.9937 339.1613 94.5157 339.4953 93.6397 339.8333 92.7657 339.9333 92.2277"></polygon>
            <g id="Group-42" transform="translate(287.000000, 99.000000)">
                <mask id="mask-12" fill="white">
                    <use xlink:href="#path-11"></use>
                </mask>
                <g id="Clip-41"></g>
                <polygon id="Fill-40" fill="#FFFFFF" mask="url(#mask-12)" points="-4.789 37.176 61.405 37.176 61.405 -4.547 -4.789 -4.547"></polygon>
            </g>
            <polygon id="Fill-43" fill="#FFFFFF" points="299.0407 80.6033 297.4277 81.5443 296.0167 83.0903 294.3377 84.7033 292.9927 85.0393 291.7827 85.2423 289.4967 86.3173 288.6237 86.3833 287.2127 85.1063 285.0617 85.3763 283.9877 84.7703 282.9977 84.2083 280.9647 84.5003 276.7287 85.1723 273.5037 85.6763 274.0417 91.7593 274.7807 97.4703 275.8557 107.2143 276.0917 109.6003 277.8057 109.4993 278.8127 109.1643 280.0227 109.8353 280.6947 111.6493 283.1137 111.7833 283.8527 112.5223 284.7267 112.5893 285.7347 111.9843 287.0127 112.1863 287.5507 112.7923 288.6917 111.7163 289.4317 111.1783 290.1017 111.1783 290.3717 112.3213 291.1107 112.7233 292.5567 113.6983 293.4637 113.6643 294.2687 113.3273 294.3367 112.1853 295.0077 111.5803 295.0747 109.4983 295.4767 107.8843 296.0157 107.6163 296.5537 108.0853 296.7567 108.8243 297.4947 108.4213 297.6967 107.7503 297.2277 107.0103 297.2277 106.0023 297.6307 105.4643 298.5707 104.0533 299.1087 103.4493 299.9827 103.6513 300.9247 102.9783 302.2007 101.5683 303.1417 99.9553 303.2757 97.6023 303.4767 95.5193 303.4767 93.5703 303.0077 92.2933 303.4107 91.6873 303.9817 91.3863 303.2097 86.9173 301.9977 78.8713"></polygon>
            <polygon id="Fill-44" fill="#FFFFFF" points="99.67 56.7614 98.073 66.8464 95.888 79.4854 95.252 83.8564 94.558 88.7994 97.27 89.1844 104.29 90.1354 107.962 90.6244 116.511 91.6504 132.003 93.3604 142.172 94.2164 143.977 75.7804 144.642 65.2304 145.184 57.6884 140.399 57.2874 127.06 55.9164 120.312 55.0614 108.528 53.3504 100.26 52.1154"></polygon>
            <g id="Group-47" transform="translate(21.000000, 0.000000)">
                <mask id="mask-14" fill="white">
                    <use xlink:href="#path-13"></use>
                </mask>
                <g id="Clip-46"></g>
                <polygon id="Fill-45" fill="#FFFFFF" mask="url(#mask-14)" points="-4.227 41.048 54.408 41.048 54.408 -4.499 -4.227 -4.499"></polygon>
            </g>
            <polygon id="Fill-48" fill="#FFFFFF" points="33.2122 80.1038 30.3132 90.8908 29.6332 93.6218 34.7802 101.3458 44.2352 115.4108 52.3142 127.4798 58.3492 136.9358 59.3962 138.2758 60.0122 137.3628 60.2502 132.1368 60.3452 131.4238 60.3932 128.5238 61.2002 128.0958 61.5812 127.8578 61.9612 127.8578 62.3412 128.3348 63.4812 128.4758 64.0042 129.6168 65.0492 129.6648 65.7622 128.5708 65.9512 128.3818 67.1772 121.0098 67.9942 116.6438 69.3252 110.3238 70.7022 103.4348 71.6062 97.7788 72.4142 94.0728 73.9822 85.5668 75.4552 78.2978 75.9532 75.9928 72.6042 75.1128 68.7552 74.3528 64.7162 73.5458 55.9952 71.6708 56.1632 71.6928 50.4612 70.4588 36.4912 67.0728"></polygon>
            <polygon id="Fill-49" fill="#FFFFFF" points="101.2918 139.7864 98.3968 161.9014 96.8378 173.0924 95.9848 178.6254 102.4118 179.4534 102.9498 175.2864 109.8718 176.3604 115.5168 177.1024 115.1798 175.0904 118.5058 175.3764 130.5738 176.5154 142.6448 177.1804 143.5958 167.2964 145.2108 144.2024 145.8758 136.4094 146.4458 136.4214 146.4398 131.5504 132.7198 130.5514 117.3648 128.7114 103.0378 127.0014"></polygon>
            <polygon id="Fill-50" fill="#FFFFFF" points="248.3239 80.8139 237.0149 81.5269 233.4039 81.3489 233.4989 82.3359 234.4489 82.6209 234.8289 83.0949 235.0179 83.8549 236.6359 85.2809 236.9199 86.2309 236.6359 87.6569 235.8749 89.1789 235.5899 90.2239 234.6399 90.9829 233.8809 91.2679 231.6939 91.8389 231.4089 92.5989 231.1239 93.4539 231.4089 94.0229 232.1689 94.6879 232.0739 96.3989 231.3139 97.0639 231.0289 97.7289 231.0289 98.8699 230.2679 99.0599 229.6029 99.5349 229.5099 100.1049 229.6029 100.9599 228.8909 101.5059 228.4639 102.6699 228.6529 104.1899 229.6019 107.2309 232.6429 110.3679 234.9259 111.8879 234.8289 113.6939 235.2099 114.2639 237.8699 114.4549 239.0109 115.0239 238.7259 116.5459 237.7759 119.0159 237.4909 120.3469 238.4409 121.9639 241.1009 124.1479 243.0029 124.4329 243.8579 126.5239 244.7129 127.8539 244.3329 129.0889 244.9979 130.8009 245.7579 131.6549 246.9909 131.5149 247.2279 130.6629 248.1699 129.9229 249.0439 129.6539 250.1849 130.1919 251.6639 130.7299 252.1349 130.5969 252.1999 129.6549 251.6629 128.6469 251.7969 127.7079 252.6019 127.1009 253.6779 126.8339 254.3499 126.5629 254.0139 125.8249 253.7449 125.0179 254.2149 124.6829 254.6209 123.2749 254.6209 121.7289 254.8239 119.8469 255.7649 118.6369 256.5039 117.0239 257.5789 115.2769 257.3769 112.8579 256.6379 111.7159 256.5039 110.3729 256.8409 108.0879 256.6379 105.1969 256.0999 98.5449 255.5609 92.1609 255.2249 87.3219 254.6869 86.9859 254.3509 85.9119 253.8139 84.3649 253.1419 83.6269 252.5369 82.5519 252.4399 80.2699"></polygon>
            <polygon id="Fill-51" fill="#FFFFFF" points="202.5436 19.9208 202.4086 23.3468 189.8836 23.3328 190.6406 25.5978 190.3546 27.2148 190.3546 31.4918 191.0196 33.5828 191.7796 35.0088 191.9706 39.0948 192.7296 44.7018 193.4896 47.7438 193.6806 51.2598 193.5886 52.5878 193.0176 53.1588 192.1616 53.8238 192.1616 54.4888 192.6386 55.2488 194.3486 56.6738 194.5376 57.9098 194.6346 70.5498 194.3956 73.4008 199.1946 73.4008 219.8186 73.1158 227.3256 72.8308 229.0356 72.8308 228.6566 69.6948 227.8016 68.5538 224.8556 66.8428 223.2396 64.4668 221.8136 64.2778 221.0536 62.9478 219.6286 62.9478 218.3926 61.7118 218.2016 58.9568 218.2016 57.3398 218.9636 56.0098 218.6776 54.6808 217.6326 53.8258 217.4436 53.7308 218.3926 51.2598 220.5776 49.6438 221.0536 48.9788 221.0536 45.4628 221.1486 44.3228 222.3196 43.1978 222.0336 42.9718 223.4446 41.6948 223.9826 41.6278 225.8646 39.5448 226.6046 39.2088 227.5456 37.5948 228.5526 36.1178 229.8286 35.0428 231.8156 34.2078 235.6576 32.5208 237.2956 31.7568 237.5496 30.8088 235.7016 30.9628 235.4056 31.4138 235.1376 31.4138 234.3986 30.1368 230.7006 30.2708 230.2996 30.6078 229.8956 30.6078 229.6936 30.0688 229.3586 29.3298 228.2826 29.5318 226.9386 30.8758 226.2666 31.2108 224.9896 31.2108 223.9136 30.8088 223.9136 29.9348 223.3776 29.8678 223.1756 30.0698 222.0996 29.5318 221.8986 28.3218 221.2936 28.5238 221.0906 28.9258 220.0836 28.7258 217.8646 27.7168 216.2526 26.6418 215.0426 26.6418 214.5046 26.2388 213.5636 26.5068 213.0936 26.9778 212.9596 27.5148 210.9426 27.5148 210.9426 26.6418 208.3216 26.5068 208.1876 25.9028 206.1726 25.9028 205.4996 25.2308 204.8956 22.6768 204.5586 20.3928 203.7536 20.0548 202.8116 19.8538"></polygon>
            <polygon id="Fill-52" fill="#FFFFFF" points="235.4953 137.0774 226.8483 137.4594 217.1533 137.7424 207.4603 137.9344 208.1233 140.7834 208.1233 144.2044 208.6953 148.7684 208.7883 164.4954 209.7403 165.3044 210.9743 164.7324 212.1143 165.2084 212.3883 169.8774 221.6173 169.8644 229.6013 169.4844 234.0913 169.5444 234.7083 168.4384 234.5433 166.6344 233.9733 165.3974 234.5433 164.8284 233.9733 163.9734 234.1623 163.2134 234.5433 160.6474 235.7783 159.5084 235.4923 158.6524 237.0143 156.4674 238.1543 156.0864 238.1543 155.0414 237.8683 154.4724 239.0093 152.2844 240.1493 151.8114 240.0263 150.2914 241.0453 149.8224 241.4483 147.8734 240.8433 146.3954 242.5223 145.4534 242.6563 144.3794 243.2183 142.5594 243.6013 141.2484 241.5773 141.6394 239.0123 141.4474 239.2973 140.2134 240.6283 139.0724 240.8183 138.1234 240.0583 136.8894"></polygon>
            <polygon id="Fill-53" fill="#FFFFFF" points="153.6106 131.9924 163.6496 132.5154 182.3716 133.3704 201.6626 133.5604 207.1746 133.2754 207.4596 118.4474 206.8886 113.6014 205.8436 112.8414 204.7986 111.6054 203.9436 110.1804 204.1336 109.2304 204.8936 108.5654 204.8936 107.3304 204.3226 106.9504 203.3746 106.8554 202.0906 105.7154 199.5716 105.7154 181.2306 105.5254 164.4106 104.9554 155.3336 104.6224"></polygon>
            <polygon id="Fill-54" fill="#FFFFFF" points="342.1561 108.9533 342.2101 110.6733 341.1891 112.4473 341.0271 115.5723 341.5721 116.7753 341.8321 116.8093 342.5781 115.2433 342.8841 113.8863 343.0151 110.6213 344.3061 108.9533 344.5741 108.0403"></polygon>
            <g id="Group-57" transform="translate(0.000000, 177.000000)">
                <mask id="mask-16" fill="white">
                    <use xlink:href="#path-15"></use>
                </mask>
                <g id="Clip-56"></g>
                <polygon id="Fill-55" fill="#FFFFFF" mask="url(#mask-16)" points="-5 70.623 91.957 70.623 91.957 -4.086 -5 -4.086"></polygon>
            </g>
            <path d="M306.5728,182.8856 L307.2438,184.7686 L307.1108,186.5816 L306.0358,186.2456 L305.9688,185.0356 L304.0658,185.0246 L301.8018,185.3036 L292.8598,185.8416 L288.3618,186.1116 L285.0688,186.0436 L284.4648,185.4396 L283.3888,183.8256 L280.8358,183.8926 L278.0128,184.1616 L267.3948,185.3716 L263.1608,185.9096 L263.0268,187.1866 L263.7658,187.9256 L264.8398,188.7326 L264.9398,192.0776 L266.3858,191.8226 L268.8728,190.9486 L271.3578,190.7466 L273.1718,190.4776 L276.3298,191.2156 L279.6898,192.8296 L280.3618,193.4356 L281.5718,193.9056 L282.2438,194.7106 L282.3778,195.8536 L283.7218,195.3166 L285.3358,195.3166 L286.8138,194.5086 L288.3588,193.0306 L289.6358,193.0976 L289.8378,192.6276 L289.5028,192.2246 L289.5688,191.4186 L291.2498,191.0826 L292.3238,191.0826 L293.5338,191.6896 L295.2808,192.2926 L296.2888,193.8386 L297.4318,194.2416 L297.9008,195.6526 L299.3118,196.3246 L299.9838,197.3996 L300.7898,197.6676 L302.9398,198.2066 L303.4778,199.4846 L304.7558,201.0296 L304.7558,204.9946 L304.1498,206.9436 L304.2828,208.0856 L304.8218,210.1036 L305.5608,211.7816 L305.8968,211.5796 L306.5028,209.6976 L305.4268,209.2946 L305.2928,209.0256 L305.9648,208.7556 L307.8468,209.1596 L307.9138,209.8316 L306.5698,212.1166 L305.6948,213.1246 L307.1728,214.6706 L308.2498,215.9476 L309.4588,218.1656 L310.6698,219.7796 L311.5438,221.8616 L312.2818,221.9956 L312.9538,221.1216 L313.6928,221.5906 L314.7678,223.2726 L315.0368,224.7496 L316.3138,226.5656 L316.6498,226.0266 L318.2628,226.1596 L319.7408,227.1006 L321.1518,229.2506 L321.4878,230.6616 L321.6228,231.8716 L322.0918,232.2746 L322.6308,232.4786 L323.6378,232.0746 L324.2428,231.4016 L325.8558,231.3346 L327.1328,230.7316 L328.2748,229.3846 L328.0728,228.5796 L327.9388,227.5716 L328.2088,226.7656 L328.0738,225.9596 L329.0828,225.4216 L329.2148,224.0106 L328.9468,223.2726 L328.7448,218.2986 L328.2068,215.1416 L326.3238,211.7136 L324.8478,209.2946 L323.7718,207.0766 L322.5618,205.8666 L321.3518,202.7756 L321.6888,202.2386 L322.1568,201.6996 L321.4858,200.4896 L319.8068,198.9446 L317.7908,196.6596 L316.2438,194.0376 L314.0258,190.1406 L312.4758,186.0896 L311.6078,182.6806 L309.4628,182.5486 L307.0438,182.2136 L306.5728,182.8856 Z M328.9808,227.5366 L328.5778,228.7126 L327.9728,230.6276 L326.6298,232.8126 L324.8148,234.5596 L323.4038,235.3646 L322.3608,236.0036 L322.8648,236.4406 L324.0058,235.5666 L326.2248,233.8206 L327.7708,232.2066 L328.8128,229.4516 L329.2148,228.7456 L329.2828,227.3346 L328.9808,227.5366 Z M318.9008,236.7426 L318.2958,237.7166 L317.7568,237.8176 L316.7498,238.0866 L317.1218,238.4566 L318.0958,237.9526 L319.8418,237.3486 L321.2878,236.8436 L321.1198,236.4066 L320.4138,236.2736 L319.8758,236.0716 L318.9008,236.7426 Z" id="Fill-58" fill="#FFFFFF"></path>
            <g id="Group-61" transform="translate(284.000000, 121.000000)">
                <mask id="mask-18" fill="white">
                    <use xlink:href="#path-17"></use>
                </mask>
                <g id="Clip-60"></g>
                <polygon id="Fill-59" fill="#FFFFFF" mask="url(#mask-18)" points="-4.81 34.34 69.6 34.34 69.6 -4.074 -4.81 -4.074"></polygon>
            </g>
            <polygon id="Fill-62" fill="#FFFFFF" points="359.6224 66.5903 360.3284 69.0433 360.6644 70.8583 360.8644 72.6063 362.0744 72.2013 363.0824 71.3963 363.5514 70.6563 364.0904 70.7243 365.3004 70.0853 364.0904 68.2373 362.6784 66.4223 362.0084 65.9533"></polygon>
            <g id="Group-65" transform="translate(356.000000, 13.000000)">
                <mask id="mask-20" fill="white">
                    <use xlink:href="#path-19"></use>
                </mask>
                <g id="Clip-64"></g>
                <polygon id="Fill-63" fill="#FFFFFF" mask="url(#mask-20)" points="-4.537 47.347 32.041 47.347 32.041 -4.931 -4.537 -4.931"></polygon>
            </g>
            <polygon id="Fill-66" fill="#FFFFFF" points="339.8998 43.1048 338.0178 43.7098 336.6738 43.6428 334.3888 44.1808 333.1078 44.6988 332.1038 45.4578 331.2298 46.4668 330.0878 48.0128 328.8788 49.8948 328.2728 51.1038 328.0048 51.4398 325.5858 53.7248 325.6518 54.8008 325.9878 55.2698 326.7278 55.6058 327.4658 55.6058 327.4658 56.2108 326.9958 57.0848 327.1308 57.6898 327.7348 58.5638 327.6688 59.5058 326.8618 59.9748 325.9878 59.9748 325.3158 60.7808 324.5768 62.1248 323.7028 62.8648 321.5528 63.0658 320.4778 63.5358 319.6038 64.0738 318.9318 64.0078 318.1258 63.4688 315.5048 63.5358 314.1608 63.7378 312.4818 64.2768 310.6678 64.8808 309.4578 65.6198 310.2618 68.1748 311.0028 68.2408 311.5408 69.5178 311.6068 69.9208 311.1358 70.3238 310.2618 71.4668 310.0608 72.1378 309.2558 72.8768 308.5158 73.3478 308.1128 74.0188 307.5748 74.4888 306.4628 75.2398 306.7698 78.1168 310.4658 77.5128 328.3408 73.8828 336.0688 72.2028 337.0388 73.0938 338.2878 73.4798 339.2948 75.6978 340.2358 76.5048 341.3108 76.5718 341.7808 76.9748 343.3328 77.7138 344.9448 78.1828 346.8258 78.5858 347.9018 79.0558 347.9688 79.9298 347.7668 81.0718 348.0088 82.4648 348.6398 82.6858 350.3198 82.2158 352.7388 81.4098 353.8138 81.0078 356.7708 78.7888 358.3838 77.5788 359.7948 76.1018 358.0478 75.4288 357.5088 76.0338 356.3008 77.1758 353.0078 78.7888 352.0658 78.7228 351.3938 78.4528 350.9238 78.7228 349.9828 79.7978 349.3788 80.3338 348.8408 80.4688 348.7068 79.9308 349.5108 79.1918 349.6048 78.5408 348.8408 77.7138 349.3098 76.7718 349.3098 73.4118 348.7048 70.3888 348.3688 68.9098 348.0318 66.6248 348.2348 62.1228 348.0318 59.9738 346.7558 55.4038 346.4868 55.2688 345.2768 54.7308 345.6128 53.5218 345.2768 52.6478 344.2018 50.7658 344.6048 49.1518 344.2698 47.0018 343.2608 44.3148 343.0458 42.2438"></polygon>
            <g id="Group-69" transform="translate(312.000000, 93.000000)">
                <mask id="mask-22" fill="white">
                    <use xlink:href="#path-21"></use>
                </mask>
                <g id="Clip-68"></g>
                <polygon id="Fill-67" fill="#FFFFFF" mask="url(#mask-22)" points="-4.519 29.09 38.342 29.09 38.342 -4.576 -4.519 -4.576"></polygon>
            </g>
            <polygon id="Fill-70" fill="#FFFFFF" points="75.4564 78.2966 73.9834 85.5666 72.4154 94.0736 71.6074 97.7796 70.7034 103.4336 69.3254 110.3246 67.9954 116.6426 67.1354 120.9166 81.0624 123.4866 92.3724 125.3866 103.0164 127.0976 103.3014 125.3856 103.9274 120.7696 105.4864 109.1356 106.8174 99.8226 108.1034 90.6226 104.2904 90.1346 97.2694 89.1826 94.5584 88.7976 95.2524 83.8556 95.9354 79.4356 93.9394 79.1036 90.4714 78.5356 86.1934 77.7736 81.2054 76.9186 75.9194 75.9806"></polygon>
            <path d="M21.838,23.8862 L20.897,26.5742 L19.553,30.7402 L18.209,33.4292 L16.127,39.2752 L13.438,44.9192 L10.078,50.1612 L9.272,51.3712 L8.936,54.9342 L8.398,57.4192 L9.324,59.2872 L12.256,60.2892 L17.007,61.5252 L20.143,62.3792 L25.37,64.0902 L30.977,65.5172 L36.585,67.1322 L38.611,67.5862 L36.491,67.0722 L39.762,67.8432 L38.611,67.5862 L50.462,70.4562 L55.26,71.4972 L39.762,67.8432 L56.115,71.5012 L57.969,63.9942 L59.775,56.6282 L60.345,54.8702 L61.39,52.4002 L60.867,51.4492 L59.822,51.4972 L59.489,51.0702 L59.679,50.5942 L59.822,49.3122 L61.676,47.0302 L62.435,46.8402 L62.91,46.3652 L63.148,45.0352 L63.528,44.7512 L65.144,42.3282 L66.761,40.5222 L66.855,38.9542 L65.43,37.8602 L64.993,36.1202 L59.156,34.6292 L52.884,33.1572 L46.469,33.2052 L46.278,32.6342 L43.999,33.4902 L42.145,33.2512 L41.147,32.5862 L40.625,32.8722 L38.676,32.7772 L37.963,32.2062 L35.777,31.3512 L35.444,31.4002 L33.638,30.7822 L32.831,31.5412 L30.264,31.3992 L27.793,29.6882 L28.078,29.3552 L28.173,26.1232 L27.223,24.5072 L25.512,24.2702 L25.227,23.2252 L24.248,23.0312 L21.838,23.8862 Z M55.995,71.6702 L56.163,71.6922 L55.26,71.4972 L55.995,71.6702 Z" id="Fill-71" fill="#FFFFFF"></path>
            <polygon id="Fill-72" fill="#FFFFFF" points="145.8697 51.1742 145.1987 57.7712 144.6407 65.2312 143.9747 75.9212 150.4377 76.3502 158.7997 76.8252 166.2137 77.2992 176.0967 77.7742 180.5637 77.5842 181.4197 78.5352 183.4137 79.7702 183.8907 80.1492 185.6957 79.5802 187.3117 79.3902 188.4517 79.2942 189.2117 79.8642 191.3037 80.5292 192.5387 81.1942 192.7287 81.8592 193.1077 82.7142 193.8677 82.7142 194.3947 82.6492 193.9977 81.7982 193.3007 80.6252 194.0607 78.8182 194.6297 76.4422 193.4897 75.5872 193.3007 74.4482 193.6807 73.4032 194.4397 73.4032 194.6297 70.5512 194.5347 57.9112 194.3457 56.6772 192.6347 55.2502 192.1587 54.4902 192.1587 53.8252 193.0147 53.1602 193.5837 52.5912 193.7277 51.2602 169.5397 50.5962 146.1897 48.9802"></polygon>
            <polygon id="Fill-73" fill="#FFFFFF" points="253.8166 149.5523 243.8046 150.3593 240.1976 150.3903 240.1526 151.8093 239.0136 152.2843 237.8736 154.4693 238.1576 155.0393 238.1576 156.0843 237.0186 156.4643 235.4976 158.6523 235.7816 159.5053 234.5476 160.6473 234.1676 163.2113 233.9766 163.9713 234.5476 164.8273 233.9766 165.3973 234.5476 166.6313 234.7126 168.4393 234.1426 169.5423 234.2626 171.7633 235.1166 173.6643 235.0216 174.4243 235.9726 175.1863 235.6866 176.5173 235.2106 176.5173 235.5926 177.3703 233.4056 181.1713 231.9796 183.7393 231.6946 187.0653 231.8856 187.7303 241.9596 187.4453 245.3796 187.1593 246.1396 187.0653 246.4246 187.4453 245.9496 190.5793 247.3766 191.9113 247.8516 193.5283 248.3176 194.5623 248.7756 194.2393 249.8516 192.4903 250.5906 192.8273 253.4126 192.0223 254.2866 192.1553 254.8916 192.4903 257.0416 192.4903 257.5236 191.9683 256.9066 185.5733 255.7656 177.7783 255.8326 171.9303 256.1686 159.0303 256.1006 152.1083 256.0976 149.4583"></polygon>
            <polygon id="Fill-74" fill="#FFFFFF" points="270.8167 85.4408 261.6777 86.3818 259.5617 86.4488 258.3847 87.1208 257.5107 87.9268 257.0417 88.0608 256.4357 87.6578 255.1597 87.2878 255.5617 92.1598 256.0997 98.5438 256.6377 105.1968 256.8407 108.0868 256.5027 110.3718 256.6377 111.7168 257.3757 112.8588 257.5797 115.2768 256.5027 117.0238 255.7647 118.6368 254.8237 119.8458 254.6217 121.7298 254.6887 123.3418 255.8987 122.6048 258.3167 122.1998 259.7947 121.9978 260.3997 122.8038 261.1387 123.1388 261.8767 121.7958 263.0877 121.1928 263.8937 121.8628 264.2297 122.3328 265.1037 122.1298 265.0377 120.7188 266.2477 120.0478 266.7177 119.7118 267.1867 120.3838 269.1367 120.3838 269.4717 119.5098 269.3367 118.5698 270.5487 117.0898 272.4977 115.4788 272.6997 113.5958 273.8417 113.4618 275.4547 112.7228 276.5967 111.9168 276.4617 111.1118 275.8567 110.5058 276.0597 109.5658 275.8567 107.2128 274.7817 97.4688 274.0427 91.7568 273.4377 85.6428 273.3717 85.1718"></polygon>
            <polygon id="Fill-75" fill="#FFFFFF" points="223.807 99.6338 219.72 99.8238 209.171 100.2038 203.564 100.2978 200.285 100.3478 199.335 100.3948 199.858 101.4398 199.764 102.3908 200.808 104.0048 202.091 105.7158 203.374 106.8568 204.323 106.9518 204.894 107.3318 204.894 108.5668 204.134 109.2318 203.944 110.1818 204.799 111.6088 205.844 112.8418 206.889 113.6028 207.459 118.4498 207.174 133.1328 207.269 135.0808 207.459 137.9328 217.152 137.7418 226.847 137.4558 235.495 137.0768 240.057 136.8878 240.817 138.1218 240.627 139.0718 239.296 140.2108 239.011 141.4468 241.578 141.6378 243.668 141.3528 244.523 138.6918 244.465 136.3518 245.664 135.7448 246.234 135.0798 247.089 134.6058 247.184 133.2748 247.564 132.5148 246.995 131.5038 245.759 131.6578 244.999 130.8028 244.334 129.0918 244.714 127.8578 243.859 126.5268 243.004 124.4368 241.103 124.1508 238.442 121.9648 237.492 120.3498 237.777 119.0188 238.727 116.5468 239.013 115.0258 237.872 114.4558 235.211 114.2658 234.831 113.6968 234.927 111.8898 232.645 110.3688 229.604 107.2338 228.654 104.1928 228.465 102.6708 228.843 101.6278 227.513 100.2978 227.039 99.3498"></polygon>
            <g id="Group-78" transform="translate(103.000000, 90.000000)">
                <mask id="mask-24" fill="white">
                    <use xlink:href="#path-23"></use>
                </mask>
                <g id="Clip-77"></g>
                <polygon id="Stroke-76" stroke="#E75F52" stroke-linecap="round" stroke-linejoin="round" mask="url(#mask-24)" points="-4.937 47.041 58.045 47.041 58.045 -4.394 -4.937 -4.394"></polygon>
            </g>
            <g id="Group-81" transform="translate(103.000000, 90.000000)">
                <mask id="mask-26" fill="white">
                    <use xlink:href="#path-25"></use>
                </mask>
                <g id="Clip-80"></g>
                <polygon id="Stroke-79" stroke="#E75F52" stroke-linecap="round" stroke-linejoin="round" mask="url(#mask-26)" points="-104 181.5 282 181.5 282 -118.5 -104 -118.5"></polygon>
            </g>
        </g>
        <g id="Group-5" transform="translate(18.000000, 148.000000)">
            <path d="M19.5007728,0 C30.2704791,0 39,8.72986684 39,19.5 C39,30.2701332 30.2704791,39 19.5007728,39 C8.73106646,39 0,30.2701332 0,19.5 C0,8.72986684 8.73106646,0 19.5007728,0 Z" id="Stroke-1" stroke="#E75F52"></path>
            <path d="M19.5,13 C23.0899976,13 26,15.910354 26,19.5007853 C26,23.089646 23.0899976,26 19.5,26 C15.9100024,26 13,23.089646 13,19.5007853 C13,15.910354 15.9100024,13 19.5,13" id="Fill-3" fill="#E75F52"></path>
        </g>
    </g>
</svg>