<?xml version="1.0" encoding="UTF-8"?>
<svg width="206px" height="301px" viewBox="0 0 206 301" version="1.1" xmlns="http://www.w3.org/2000/svg" xmlns:xlink="http://www.w3.org/1999/xlink">
    <!-- Generator: Sketch 64 (93537) - https://sketch.com -->
    <title>266</title>
    <desc>Created with Sketch.</desc>
    <g id="266" stroke="none" stroke-width="1" fill="none" fill-rule="evenodd">
        <g id="Group-5">
            <path d="M86.6043,298.7948 C86.6043,297.8218 85.9523,296.9458 85.6713,296.0398 L86.0803,296.0498 C86.5433,295.7008 86.4123,294.8818 87.2393,295.2058 C87.5123,294.7958 87.3283,294.9518 87.7683,294.6168 C88.0773,294.3828 88.3063,292.3158 88.0813,291.9438 C87.8133,291.5028 87.5293,291.4968 87.3563,290.8848 C87.1613,290.1908 87.3613,289.4388 86.7563,288.8358 C86.7343,286.2438 86.0933,287.2178 85.4613,286.1838 C85.1433,285.6608 84.9783,285.0898 84.7003,284.5578 C84.6423,284.4478 85.2313,283.8428 85.2163,283.5128 C84.5003,282.5188 85.3753,282.5848 85.3473,281.8788 C85.3233,281.2638 84.3893,280.7538 84.8733,280.1208 C84.6963,279.7958 84.3233,279.5738 84.1363,279.2508 C84.2563,279.0938 84.2643,278.8978 84.1463,278.7398 C83.5423,277.9348 83.5443,276.2328 83.1653,275.6548 C82.9353,275.3058 82.8113,275.2278 82.6983,274.7868 C81.4073,274.3588 82.3443,273.8368 81.5273,273.4128 C81.2643,272.7798 80.9353,273.1738 80.7043,272.2368 C80.3563,271.9718 80.0563,271.6778 79.7243,271.4008 C79.6003,271.2988 79.2373,271.2998 79.0393,271.1188 L78.3283,271.0568 L78.1673,270.7508 C77.8643,270.6898 77.4003,270.7318 77.1673,270.4948 C76.9843,270.3078 76.9213,269.4208 76.5883,269.5418 L76.4483,269.5098 C76.2933,269.2938 75.0393,268.9148 74.7443,268.8508 C74.8073,268.7618 74.7933,268.4678 74.8013,268.3578 C74.6473,268.1928 74.5453,267.9868 74.3883,267.8268 C74.1213,267.7618 74.1293,267.6318 74.0203,267.5978 C73.1963,267.3358 72.7803,268.8478 72.1203,268.2298 C71.9873,268.1058 71.8773,268.1348 71.8203,267.9268 C71.3633,267.6598 70.2573,268.5578 69.9683,267.9378 C69.8043,267.8428 69.6043,267.9398 69.4653,267.7868 C69.5753,267.2178 69.4043,266.5288 68.8523,266.2568 C69.0343,266.0988 69.2473,265.9818 69.4333,265.8288 C69.4233,265.4778 69.4403,265.1428 69.4933,264.7948 C69.2823,264.4398 69.3613,264.2638 69.2363,263.9458 C68.9973,263.8288 67.5803,262.6538 67.5923,262.5208 C67.7553,262.3998 67.7563,262.1888 67.8093,262.0138 C67.9023,261.7068 68.5713,261.8688 68.4803,261.1718 C68.4453,260.9018 68.1793,260.2698 68.0203,260.0678 C67.4833,260.0198 67.6273,259.4898 67.3953,259.3098 C66.7293,258.7918 66.5383,259.2898 67.0373,258.3688 C67.1533,258.1548 66.5123,257.7028 66.3893,257.5638 C66.1593,257.3038 66.2943,256.9238 66.2003,256.6198 C65.8663,256.3378 65.7063,256.1648 65.5143,255.7658 C65.6043,255.6288 65.5923,255.4338 65.5433,255.2828 C64.8553,255.0828 62.9793,253.7888 62.2193,253.4568 C62.0543,253.0358 61.9853,252.8608 61.6683,252.5138 C61.6873,252.1458 61.4433,252.0588 61.1893,251.8698 C60.9923,251.4278 61.5833,250.6518 61.5663,250.3728 C61.4813,248.9408 60.1423,248.0298 61.5883,246.7768 C61.9143,246.4948 61.6373,246.1208 62.6593,245.4168 L62.7623,244.9788 C62.6373,244.9038 62.4723,244.8958 62.3303,244.9088 C62.1523,244.8658 61.8483,244.6758 61.7923,244.4858 C60.6453,244.3308 60.1133,243.3558 59.6713,243.2448 C59.2383,243.1378 58.0473,243.2708 57.3493,243.0218 L57.3993,242.6118 C56.4263,242.6638 56.7813,242.1478 56.5693,241.5808 L56.1833,241.5138 C56.2343,241.1908 56.1773,241.0658 55.9783,240.7958 L56.7573,240.5538 C56.6153,240.0858 56.7623,240.0048 56.8313,239.5678 C56.6623,239.4678 56.5783,239.2818 56.4243,239.1628 C56.6053,238.1328 57.4443,238.6828 58.0883,237.3748 L58.3673,237.4358 L58.6633,237.2818 C59.1063,237.5098 59.6733,236.5458 60.5483,236.2728 C60.8183,236.3988 61.0073,236.6578 61.2943,236.7838 C61.5673,236.9048 62.2883,237.0288 62.4703,237.1538 C62.6343,237.2678 62.6673,237.4898 62.8333,237.5948 C63.2453,237.8548 63.0653,237.4288 63.4653,237.5068 C63.9373,237.5988 64.2813,238.0038 64.7053,238.2028 C65.1233,238.1868 65.5443,238.0988 65.9553,238.0248 L66.4963,237.9508 C66.7863,237.9988 66.8903,238.1318 67.2223,238.0968 C67.2603,237.8718 67.4463,236.8608 67.6323,236.7878 C68.6453,237.5458 68.0373,236.5278 67.8773,235.8918 C68.5893,236.0338 68.9163,235.5398 69.2453,235.0028 L69.2053,234.6268 C69.4443,234.4728 69.7713,233.9348 69.8733,233.8948 C70.4743,233.6528 71.0883,233.1578 71.7253,233.1048 C71.7583,233.3178 72.2333,233.5958 72.4043,233.6668 C72.5463,233.4898 72.9103,233.2808 73.1033,233.1688 L73.0593,232.9408 L73.6243,232.4758 C73.9483,232.4328 74.1073,232.4308 74.3123,232.7068 C74.4903,232.6748 74.7753,232.6648 74.9443,232.7488 L74.9513,232.6068 C74.7613,232.5088 74.8293,232.2538 74.7903,232.0848 C74.2693,231.7398 74.5513,231.5898 74.4843,231.1278 C74.4383,230.8148 74.1663,230.4078 74.2083,230.1008 C74.2913,229.5078 74.5013,228.8538 74.5643,228.2698 C74.6293,227.6748 74.0163,227.0318 74.4673,226.4448 C74.2323,226.4708 73.8793,226.6338 73.6643,226.5268 C73.6583,226.4068 73.6123,226.2748 73.5133,226.1998 C72.5483,226.1718 72.8913,227.4188 71.4973,226.0578 C70.9053,226.0898 70.6703,225.7478 70.1993,225.4958 C69.6473,225.2008 68.9643,225.2808 68.4283,224.9448 C68.0893,224.7328 67.9823,224.2198 67.6593,224.0918 C67.3543,223.9718 67.1893,224.3028 66.5433,223.7788 C66.0283,223.3618 65.9893,223.0698 65.2493,222.9928 L65.1793,222.7548 L64.9743,222.7628 C64.9743,222.7628 64.3293,222.6678 64.0193,222.8408 C63.8243,223.2168 63.4343,223.3458 63.3243,223.6508 C63.0443,223.6518 62.9563,222.7638 62.1853,223.1068 C62.0023,223.0688 62.0303,223.1338 61.9833,222.9078 L61.6573,222.7798 C61.8273,222.0428 61.2983,221.9028 60.8443,221.4718 C60.4643,221.4578 59.3033,222.1098 59.0223,221.9798 C58.9513,221.5468 60.8023,220.3298 60.8913,220.0698 L60.7263,219.7648 C60.4293,219.6958 60.1093,219.7458 59.8183,219.6478 C59.5473,219.5558 59.3543,219.2858 59.0493,219.2918 C57.0493,217.9418 56.7323,218.1168 55.6853,215.7538 C55.5663,215.4858 55.5813,215.1808 55.4543,214.9148 C55.1673,215.0128 54.9803,215.2868 54.6843,215.3658 C54.2333,215.4878 51.6143,214.8588 51.0283,214.6878 C50.7123,214.5948 50.5223,214.2768 50.1983,214.2108 C49.6053,214.0898 49.3183,214.6168 49.0593,214.5168 C48.6913,214.3748 48.9163,213.4778 47.5463,212.8568 L47.3513,212.4428 C47.1003,212.3008 46.4163,211.8658 46.3563,211.5838 C46.4483,211.5078 46.5433,211.3388 46.5513,211.2178 C46.6703,209.4358 45.7473,210.3708 44.9013,210.0588 C44.5263,209.9188 44.3823,209.5838 43.9373,209.5458 C42.5153,209.4248 40.1953,209.9468 38.9943,209.0948 C38.6423,208.8448 38.7693,208.0298 38.6913,207.6448 C38.6133,207.2558 36.6283,204.3728 36.3833,204.2278 C35.5233,203.7188 35.5363,204.8228 33.6473,203.0718 C32.3963,201.9118 33.2913,200.2158 32.9483,198.9378 C32.5083,198.5908 31.9253,198.5228 31.6513,198.2548 C31.4893,198.0958 31.4503,197.6488 31.2043,197.4008 C30.9063,197.1008 30.7353,197.3688 30.4083,196.7618 C30.4523,196.5358 30.5613,196.2898 30.5253,196.0578 C30.4793,195.7588 30.1463,195.5118 30.0923,195.1688 C30.0473,194.8878 30.1253,194.4958 29.8773,194.2898 C29.3403,193.8468 28.5603,193.9418 27.9353,193.7248 C27.4293,193.5498 26.8273,192.4878 26.3183,192.1488 C25.4963,191.6038 24.5823,191.0808 23.7373,190.5538 C23.6433,190.4948 23.3183,190.6638 23.1053,190.5568 C22.6893,190.3478 22.2793,190.0208 21.8863,189.7648 L21.7043,189.7958 C21.1903,189.2998 20.4463,189.1348 19.9433,188.6268 C19.7163,188.3978 19.5313,188.0238 19.2713,187.8448 L19.4463,186.5278 C19.5073,186.0568 18.7403,186.0188 19.3483,184.7658 C20.9333,184.9408 19.6643,182.8158 20.3163,181.8268 C20.2713,181.6378 20.2443,180.2638 20.4763,180.2318 L20.7413,180.3838 C21.1043,179.5988 21.5173,180.0838 21.7823,179.7108 C22.1533,180.0128 22.3613,179.9758 22.3163,179.4668 C22.5213,179.4598 22.6533,180.1468 22.8483,180.2708 C23.0723,180.4128 24.5353,180.3648 24.6893,180.1888 C24.8313,180.0248 25.5413,179.0048 25.7553,179.2008 C25.9103,179.1188 25.9273,178.9158 26.0473,178.8008 C26.1393,178.9148 26.1593,179.0828 26.1463,179.2258 C26.2993,179.4048 26.5903,179.3628 26.7383,179.5368 C26.6293,180.7718 27.2283,179.8768 27.6833,180.4448 C27.5813,180.5878 27.2503,181.4678 27.7073,180.9848 L27.9003,181.0368 L27.9473,182.1108 C27.3233,182.6138 27.9163,183.0418 28.2483,183.6348 C28.4693,183.5748 28.7713,183.1598 29.0173,183.0318 C29.2783,182.3998 29.1743,182.3948 29.8853,182.0568 C29.8453,181.7958 30.0393,181.4018 30.2953,181.3128 C30.5303,180.5938 32.4033,182.1678 32.6123,181.7718 C32.9083,181.2118 32.8133,181.3818 33.3903,181.2088 C33.7803,180.2818 33.1903,180.7918 32.7133,180.2848 C32.6253,180.1908 32.3433,179.3608 32.2443,179.8528 C32.0723,179.5708 32.4053,178.8208 32.5483,178.5518 L32.5083,178.4468 L32.2013,178.3158 C32.0473,178.0958 32.3043,177.9118 31.9433,177.4248 C32.2003,177.0888 32.5203,176.5598 32.5943,177.2968 C33.0653,177.3628 32.9223,176.9868 32.9763,176.6878 C33.1163,175.9088 33.3783,175.1468 33.3273,174.3438 C33.2823,173.6458 32.7523,172.9358 32.7623,172.1488 C32.7653,171.9508 32.9583,171.4908 32.8783,171.3398 C32.6343,170.8768 32.0783,170.5598 31.6123,170.3378 C31.5503,169.9028 31.5373,169.3048 31.0713,169.1318 C30.5423,168.1878 30.8323,167.5018 29.1563,167.3608 C29.1603,167.0958 29.1973,166.4958 28.8633,166.4028 L28.6723,166.0658 C28.5733,165.9238 28.4283,166.2358 28.2253,166.1948 C27.9533,166.1398 27.7203,165.9318 27.3983,165.8628 C27.0643,164.9998 26.8793,164.8368 26.2293,164.0278 C26.1773,163.9628 26.3903,163.5328 26.3543,163.3648 C25.9783,163.1848 25.3103,162.8248 25.2753,162.3678 C25.0093,162.1188 24.4333,161.3098 24.1673,161.2328 L24.3943,160.7568 L23.3203,159.9348 C23.4003,159.6918 23.5843,159.5358 23.4423,159.2718 C23.2693,158.9498 22.8713,158.8298 22.6763,158.5258 C22.4733,158.2088 22.5813,157.7808 22.3543,157.4768 C22.2333,157.3138 21.9163,157.1848 21.8933,156.9698 C21.5843,156.7288 21.4053,156.3568 21.2203,156.0218 C21.3883,155.6588 20.5903,155.4588 20.3933,155.3188 L20.2743,155.0328 L20.4103,154.8328 C20.6943,154.3828 18.4833,151.3898 19.7453,150.9148 C20.3143,150.7008 20.6213,151.8468 21.3783,152.0348 C21.8783,152.1578 22.5653,151.9688 23.0073,152.1518 C23.4463,152.3348 24.1683,153.0688 24.4163,153.1378 C24.6623,153.2068 25.2283,153.1018 25.3743,153.1928 C25.5203,153.2828 26.0183,154.5338 27.0413,154.6838 C27.4753,154.7478 27.5653,154.1978 27.8303,154.1608 C28.0703,154.3468 28.5013,154.6998 28.7823,154.7778 C29.0363,154.8498 33.4553,155.0218 33.8943,154.9918 C34.0373,154.9818 34.3653,153.9138 34.5623,153.7178 C34.9193,153.3638 35.4343,153.1288 35.9023,152.9588 C36.0363,152.6178 35.5793,152.1628 35.7183,152.0258 C36.0053,151.7468 36.5413,151.8388 36.8943,151.6968 C37.0893,151.6178 37.1003,151.3778 37.2783,151.2748 C37.6663,151.0518 38.4053,151.2378 38.5473,150.6768 C38.6673,150.2078 38.0893,149.8758 38.1873,149.4428 C38.2383,149.2128 38.4363,148.9878 38.5333,148.7668 L38.5963,148.5538 C38.7143,147.9518 38.0553,148.5798 37.8513,148.4268 C37.6933,148.3108 37.8163,147.6078 37.7693,147.3988 C37.6843,147.0238 36.8993,146.8258 36.6483,147.1508 C36.4493,147.4118 36.8533,148.6268 36.3223,148.6428 C35.8483,148.6588 35.7023,147.4418 35.3993,147.1178 C34.8423,146.5208 33.8943,146.7618 33.2523,146.3228 C32.1923,145.5968 32.6043,144.5978 32.2503,143.9148 C32.1283,143.6798 31.2843,144.1778 31.0923,143.4948 C30.8873,142.7658 32.0683,142.4448 31.6963,141.8618 C31.3033,141.2458 30.4923,141.7548 30.2923,142.2728 C30.1113,142.7438 30.1623,143.0228 29.5933,142.6958 C27.7543,141.6368 28.6503,139.9708 27.5473,140.1058 L26.8393,139.5798 C26.6243,139.4248 25.6463,139.4378 25.6123,139.2198 L25.4493,138.0038 C25.4343,137.8918 25.7023,137.7568 25.6183,137.5158 C25.3743,136.8138 24.2793,137.1268 25.1193,135.9288 C24.6973,135.2618 24.9853,135.2788 24.2213,134.7038 C23.8633,134.4348 24.2843,133.3988 23.9003,133.1528 C23.3453,132.7958 23.0003,133.3638 22.4643,133.2578 C22.1843,133.2028 21.8823,132.7688 21.6483,132.8028 C21.2773,133.2238 20.3413,133.8818 19.7523,133.8368 C18.2823,133.7248 18.9903,132.2188 18.3833,131.9048 C17.2433,131.3158 17.2173,133.0698 16.0863,132.0968 C15.6703,131.7388 15.5993,131.1568 15.2203,130.7738 C14.9353,130.4858 14.3853,130.3598 14.2983,129.9098 C14.2113,129.4588 14.7133,128.8678 14.5123,128.4888 C14.3433,128.1708 13.6763,128.5358 13.5103,128.0668 L13.2563,127.3118 C13.3073,126.9488 14.1733,126.8188 13.4373,126.4138 C12.6313,127.1688 13.1703,124.6648 13.2383,124.5338 C13.5573,123.9198 14.7993,123.7658 15.0623,123.3628 C15.1463,123.2338 15.1783,121.8008 15.1913,121.5388 C15.2333,120.6538 15.1243,120.0608 14.7873,119.2218 C14.6863,118.9698 14.4783,118.7938 14.4183,118.5188 C14.2993,117.9728 14.8053,117.4908 13.9153,117.3458 C13.6053,117.0578 14.0333,116.7508 14.1613,116.5028 C14.3153,116.2048 14.1673,115.7258 14.4403,115.5078 C14.8283,115.1968 14.9873,115.7378 15.3133,115.7838 C15.5813,115.8218 16.0243,115.7038 16.3093,115.6848 C16.6243,115.4748 16.2983,115.0178 16.6123,114.7368 C17.0353,114.3578 18.0203,113.6458 17.4583,112.9898 C17.3103,112.8178 16.9333,112.9378 16.8473,112.7318 C16.7283,112.4508 17.4993,111.4418 17.7223,111.2548 C18.2003,110.8578 18.9403,111.0738 19.0863,110.7128 C19.2153,110.3958 18.5253,109.3358 19.0373,109.3468 C20.5473,109.3828 19.4943,109.0708 19.7903,108.2408 C19.8863,107.9708 20.3073,108.2798 20.1993,107.5438 C20.3663,107.2698 20.5703,106.9768 20.4433,106.6468 C20.6403,105.9828 21.0523,105.8588 21.5383,105.4828 C21.7803,105.2948 20.8953,104.7368 21.3643,104.3368 C21.6593,104.0858 22.6923,104.8188 22.6443,104.0418 C22.5893,103.1518 23.0393,103.5158 23.3063,102.9588 C23.2873,102.9138 23.9023,101.5518 24.0393,101.4608 C24.1083,101.2598 23.7443,101.1038 23.9063,100.8658 C24.0073,100.7188 24.4443,100.9548 24.6303,100.8228 C25.0253,100.5418 24.3713,100.3218 24.3243,100.0538 L24.6423,99.6488 C24.3203,99.4688 23.8943,99.1028 23.9803,98.6908 C24.0853,98.1938 24.5403,98.7998 24.7453,98.4748 C24.9193,98.1988 24.5073,97.9538 24.5683,97.7348 C24.6343,97.4968 25.0023,97.5568 25.0993,97.3388 C25.1403,97.2458 25.0133,95.7738 25.0133,95.3468 C25.0133,95.1238 25.4263,94.9678 25.3473,94.7998 C25.2543,94.6048 24.7913,94.6878 24.9393,94.3318 C25.0353,94.1058 25.6683,94.0448 25.8083,93.6688 C25.7243,93.4078 26.1923,93.4718 26.3303,93.1608 C26.4473,92.8948 25.9543,92.5488 25.8663,92.3158 C25.7093,91.8968 26.2843,91.7978 26.2593,91.4098 C26.2403,91.1198 25.8163,90.9528 25.8983,90.8918 L25.9963,90.6138 C25.0403,89.9608 25.4013,90.5848 24.9633,90.3858 C23.3123,89.6338 23.5663,88.5238 21.4723,89.3368 C21.0973,89.1908 20.8253,88.7648 20.4043,88.7338 C19.6503,88.6798 19.1583,90.1968 18.3383,89.9078 C17.8763,89.7448 18.1803,88.5178 17.1373,88.2038 C16.1093,87.8938 15.9813,88.7998 15.3383,89.2998 C15.0383,89.5328 14.6743,89.5688 14.3293,89.6978 C14.0213,89.8128 14.0243,90.5658 13.5753,90.6898 C13.1183,90.8158 12.6133,90.8008 12.2173,91.0968 C11.6343,91.5318 11.9383,92.1878 10.8883,92.4178 C10.2543,92.5568 9.3553,92.7338 8.7133,92.7688 C8.5563,91.6988 7.8673,90.9808 7.4503,90.0358 C7.3453,89.7978 7.4923,89.5298 7.3453,89.2958 C9.1243,87.3498 10.1963,90.1588 11.4023,89.9338 C12.6423,89.7018 11.5613,88.7648 12.9363,87.7218 C14.1613,86.7938 14.0923,87.2098 14.7643,86.9058 C14.8853,86.8508 15.0233,86.4958 14.9223,86.4598 C15.1473,86.3208 15.3773,86.1818 15.5883,86.0208 L15.4983,85.7058 L15.1293,85.7148 L15.1413,84.4558 C14.4923,83.7838 14.4923,84.2798 13.6593,84.5058 C13.4333,85.0708 12.8983,84.7278 12.4223,84.7498 C12.0683,84.3468 11.4203,84.1798 11.0083,83.7998 L11.0583,83.5958 C12.1953,82.7338 11.7733,83.4008 12.9233,82.0628 C12.9223,81.6648 12.4993,81.1988 12.7643,80.8348 C12.7023,80.7428 12.6963,80.5908 12.7243,80.4868 C12.5483,80.4838 12.5223,80.2958 12.5243,80.1638 C12.5333,79.7318 13.6693,79.6698 12.8833,78.9618 L12.6153,78.7488 C12.4473,78.2218 13.8583,76.9198 12.4253,76.3888 C12.5623,75.7878 12.0313,75.3598 12.0763,74.9808 C11.5213,75.4718 11.7083,74.2348 11.6933,74.1818 C11.5243,73.5798 12.0993,73.3678 12.1373,72.7168 C13.1423,72.9978 13.8333,73.5768 14.8703,73.8028 C15.8223,72.8338 17.0773,71.7268 17.4813,70.3908 C17.0453,70.0708 16.5713,69.8468 16.0733,69.6408 L16.3343,68.9358 L16.5723,68.7598 L16.7173,68.9088 L17.0283,68.7958 C17.3213,68.8248 19.4043,70.3778 19.5743,70.3798 C20.0363,70.3848 20.3913,70.3778 20.7953,70.6518 L21.2773,70.6238 C21.6663,70.9008 21.7963,71.0358 22.3093,70.7778 C22.3783,70.8388 22.4683,70.8728 22.4363,70.7478 C22.3673,70.4818 22.1963,70.2338 22.0633,69.9968 L21.6813,69.3178 C22.5333,69.6718 21.7313,68.7468 21.7013,68.5108 C21.6883,68.4118 21.7093,68.2388 21.8723,68.3088 C22.0553,68.9308 23.2553,68.1848 23.6053,68.4008 C23.7823,68.5108 23.6773,68.7818 23.6773,68.9438 C23.6773,69.1458 24.6473,70.5488 24.7713,70.7388 C24.9253,70.5718 25.0793,70.3978 25.2553,70.2538 L26.1153,71.0918 C26.3663,71.1428 26.6003,71.0608 26.8463,71.0228 C27.6893,70.8928 29.0003,71.2378 29.6743,71.0508 L29.7293,70.4398 L30.0613,70.0828 C29.6623,68.9078 29.1843,67.8498 28.7203,66.6978 C28.1773,66.6508 27.6323,66.7348 27.0903,66.7518 C23.3723,66.8638 20.9623,66.3928 17.7363,64.5868 C16.5533,63.9238 14.1503,63.1798 13.3043,62.2748 C12.5713,61.4908 12.9633,59.8058 12.0793,59.3058 C11.1663,58.7898 10.1223,59.2068 9.1583,58.9508 C8.5723,58.7948 8.2173,58.1448 7.7483,57.7998 C7.2903,57.4638 6.7153,57.2048 6.4573,56.6658 C6.3243,56.3878 6.3423,56.0598 6.4933,55.7928 C7.2563,54.4378 9.5613,55.7368 9.3543,54.0508 C9.1403,52.3088 6.8903,53.3268 7.4373,50.6798 C7.5863,49.9598 7.3883,49.1108 7.9453,48.5248 C8.3433,48.1048 9.0893,48.9278 9.4623,49.0798 C10.5453,49.5228 12.5823,49.1858 12.8723,47.8388 C13.3133,45.7838 10.0313,46.0088 9.6513,45.7948 C9.0953,45.4828 9.5913,44.5068 8.9043,44.2678 C7.7673,43.8728 7.9923,44.6788 7.4103,45.3348 C6.6463,46.1938 5.0123,45.8558 4.2703,45.2248 C4.9343,44.2638 4.9863,43.8578 3.8863,43.4638 L3.8193,43.6118 C1.3133,42.9498 3.5643,42.4678 3.6793,41.2898 C4.8293,41.4868 3.7493,40.5378 3.4163,40.6258 C3.4873,40.1728 3.8673,39.8938 4.1543,39.5738 C4.6003,39.7928 5.2003,40.0768 5.5573,39.5548 C5.4413,39.3368 4.8193,38.9678 4.8193,38.9678 C4.5313,38.7878 4.4903,38.6038 4.6443,38.2998 C5.3543,37.9108 7.3963,38.3538 6.4713,36.8368 C6.2943,36.5478 6.3293,36.5258 6.0903,36.2728 C5.3463,35.4868 4.1063,35.7378 3.7953,34.3148 L4.4723,34.1858 C4.9203,34.4478 5.6683,34.8498 6.1543,34.7578 C6.7583,34.6438 7.0593,33.3898 6.5313,33.2458 C6.1093,33.1298 6.0993,33.3818 5.8143,33.5268 C5.6493,33.6118 5.2193,33.4918 5.0203,33.4958 C4.4573,33.5068 3.7333,33.1678 3.1883,33.2958 C3.0273,32.9898 2.9893,32.7328 2.9443,32.3928 C4.2163,32.0908 5.7373,32.9518 6.5613,32.0688 C6.8233,31.7868 6.8753,31.6498 6.8673,31.2598 L6.6943,31.0218 C6.2293,30.9348 5.7863,31.0548 5.4023,31.3218 C5.2483,31.1568 5.1713,30.9458 5.0313,30.7718 C4.6733,30.9338 4.2273,31.1888 3.8453,31.2578 C3.0093,31.4108 3.1593,30.9038 2.5413,30.6758 C1.2083,30.1868 -0.6317,29.5858 1.6933,28.3798 C1.8373,28.3048 2.5883,28.9568 2.9173,28.9368 C3.5013,28.9008 4.0573,26.3168 3.8273,25.9358 C3.0063,24.5718 2.0523,26.0228 1.5433,26.5628 C1.4133,26.7008 0.7033,27.1818 0.5583,26.9438 C0.3203,26.5538 0.8853,25.3268 0.9443,24.8498 C1.0133,24.3008 0.9403,23.6798 0.9123,23.1268 C1.4743,23.3258 2.6653,23.5648 2.8973,22.8008 C3.1883,21.8428 1.2973,21.9048 1.4353,20.7978 C1.5443,19.9158 3.2093,20.4378 2.9813,19.2218 C2.8573,19.0908 2.5903,19.1748 2.4303,19.0678 C2.6683,18.7458 2.9133,18.4268 3.1913,18.1388 C4.0693,18.2458 5.1463,18.4888 5.9903,18.7478 C6.3883,18.5378 6.8283,18.4298 7.2523,18.2868 C7.3333,18.5008 7.4773,18.6808 7.6033,18.8678 L8.2943,18.9048 C8.0943,18.3818 7.8543,17.8578 7.7503,17.3048 L8.1363,16.4498 C8.4853,15.7478 11.7503,16.1608 11.7893,16.1058 C11.6523,15.2878 11.3353,14.4638 11.1343,13.6548 C11.3273,13.1058 12.6493,11.6118 13.0413,10.8368 C13.5063,11.0288 13.9873,11.0208 14.4853,11.0478 C15.0603,11.6228 14.9323,13.0508 15.1113,13.7258 C15.2033,14.0678 16.0763,13.6628 16.0413,13.9908 L17.9893,14.0928 C17.9053,13.9838 17.8243,13.8378 17.7203,13.7478 C18.2043,13.6008 18.8683,13.6558 19.3673,13.6678 L19.5633,13.9448 L21.9383,13.8298 L22.5153,14.4408 L22.8243,14.1838 L21.8263,12.6728 C23.1393,11.7568 24.4803,10.9018 25.8183,10.0238 C26.0013,10.0488 26.5413,10.9388 26.6613,11.1348 L27.0703,10.8948 C27.2763,10.7758 28.3883,10.4608 28.4073,10.4418 C28.5893,10.2628 28.6533,9.9908 28.8003,9.7858 C29.3433,9.0298 30.1853,8.5018 30.9333,7.9778 C30.9273,7.7738 30.9163,7.2598 30.8303,7.0768 C31.0293,6.7758 31.5103,6.7948 31.6073,6.3638 L31.8533,6.4398 C32.5603,6.1158 33.3273,5.7618 33.9013,5.2218 L32.9433,4.3398 L32.6663,3.7708 L33.3933,3.0818 L33.8883,3.3608 C34.4313,2.9408 34.9853,2.5358 35.5213,2.1048 L35.5453,1.5508 C36.6973,0.9158 37.1213,1.8848 37.9013,1.6528 L39.0643,1.8818 L40.5243,0.4998 C40.5973,0.5708 41.1503,1.0568 40.9583,0.8018 C41.1573,0.9598 41.9843,1.4258 41.7783,1.0088 C41.9513,0.8458 42.1643,0.7168 42.3633,0.5878 C42.6923,0.9718 43.4733,1.8938 43.8633,1.9878 L44.1663,1.8918 C44.7133,2.2778 44.8683,3.0208 45.3933,3.4308 C45.7773,3.7298 47.3863,3.7378 48.3183,4.7298 C48.9093,4.1688 49.5473,3.9468 50.0183,3.2308 C51.2373,3.3238 53.1373,2.3268 54.0553,1.4218 L55.2923,1.4268 C55.6053,1.4278 58.0713,1.3538 58.1063,1.3708 C58.5063,1.5688 58.6013,2.0718 58.6363,2.4728 C58.7913,4.2418 59.2623,3.3598 60.1613,3.3558 L60.3783,3.4958 L60.4123,3.6188 C60.8383,3.2568 61.8443,0.7248 62.5273,1.5258 L62.4143,1.6918 L62.5243,2.3108 C62.5363,2.3648 63.9463,3.4268 64.0893,3.4118 L64.0833,3.5758 C64.3603,3.7868 65.8273,2.8838 66.1503,2.7148 L66.2633,2.5058 L67.5493,3.6308 L67.6783,4.2238 C68.0853,4.6428 68.4853,4.2898 68.8173,5.0098 C69.0683,4.8888 69.2963,4.7268 69.5443,4.6018 C69.5443,4.6018 69.4823,4.9858 69.7793,5.2168 C69.9263,5.0048 70.0983,5.3868 70.4873,5.4948 C70.6023,5.4688 71.3153,5.3328 71.1893,5.5278 L70.9773,5.6138 C70.8973,5.7818 70.6113,5.7938 70.4523,5.7948 C70.2883,5.9528 70.3613,6.1378 70.5023,6.2788 C70.3733,6.6158 71.9283,7.5198 72.2393,7.6188 C72.1873,7.8358 72.4733,8.3218 72.6413,8.4658 L72.5733,8.6048 C73.1313,9.1798 73.7943,9.6928 74.3193,10.2748 L74.1163,10.3608 L73.9083,10.7628 C74.2543,11.5878 74.6563,12.3908 74.9483,13.2368 L74.7313,13.2998 L74.6993,13.6108 L74.4863,13.6398 C75.2043,14.5618 76.3423,15.3258 77.2663,16.0378 C77.9593,15.9108 78.6523,15.7748 79.3513,15.6818 L81.1763,16.8528 C81.6493,18.3208 82.0123,19.6958 82.7643,21.0588 L84.4273,20.5128 L84.2713,20.1078 L85.3833,19.8078 C85.5513,20.3958 85.6713,20.9958 85.8523,21.5798 L85.6963,21.6408 L85.7833,21.9358 L85.7373,22.0948 L85.9863,22.6158 L86.6343,22.4438 C86.7093,22.6758 86.7983,22.9048 86.8553,23.1428 L87.4743,22.9958 L89.8963,25.4108 C89.7033,25.7988 89.5763,26.2148 89.4213,26.6188 L89.6253,26.9068 L89.7403,26.8638 L90.0183,27.8448 C90.3213,27.7528 90.6303,27.6848 90.9393,27.6178 C91.2433,28.2878 91.4233,29.0078 91.5883,29.7208 L91.3913,29.7638 L91.5073,30.2118 L91.7103,30.1628 L91.8933,30.8838 C92.1773,30.7448 92.3913,30.9738 92.6613,30.9038 L92.7243,30.7818 C93.6943,30.4288 94.4363,30.5428 95.4333,30.5908 C95.6433,29.8368 95.8083,29.0688 96.0223,28.3158 L97.9043,29.1018 C97.7923,29.7118 97.6473,30.3218 97.6173,30.9438 L97.2173,30.9998 C96.7743,32.0148 96.9693,33.1338 96.8593,34.2048 L96.9253,34.3608 L96.6293,35.2298 L96.9733,35.5898 C96.8563,36.2948 96.8443,36.6018 97.1323,37.2728 C95.5733,38.6608 96.4823,38.8438 95.1313,40.4228 C95.2583,41.0968 95.3693,41.7798 95.3943,42.4658 C95.7603,42.3508 96.1333,42.2588 96.5033,42.1568 C96.7573,42.6108 97.1763,43.0198 97.4773,43.4608 L97.3703,43.6288 L97.9993,44.6188 L97.8253,44.7248 C97.9903,45.0718 98.2243,45.3818 98.4353,45.7028 C98.3703,45.7358 98.1973,45.8008 98.1503,45.8478 C98.0443,45.9508 97.9383,46.1528 97.8503,46.2778 C97.0043,47.4828 96.4963,47.5378 95.2653,48.1918 C95.3763,48.4218 95.3463,49.0248 95.3463,49.0248 L95.3613,49.6048 C97.5323,49.7168 98.2493,49.0738 100.1663,50.6888 C100.4253,50.9068 100.7033,51.8028 100.8023,51.8748 C100.8023,51.8748 100.1873,52.3868 100.0663,52.5938 L100.0993,52.8638 C100.3033,53.0938 101.2503,53.9078 101.5453,53.8078 L101.7863,53.9438 C102.0993,53.9008 102.4173,53.8928 102.7333,53.8738 C102.7813,54.1048 102.8593,54.3278 102.9213,54.5548 C103.0313,54.5798 103.1563,54.6388 103.2363,54.7188 C103.1833,54.8478 103.2173,55.5998 103.2173,55.5998 L103.2733,56.0218 C103.5553,56.0608 103.8423,56.0788 104.1263,56.0848 C104.1443,56.3748 104.2313,56.6628 104.2523,56.9578 C104.7603,57.3648 105.2303,57.6928 105.7953,58.0418 C106.1713,58.2738 105.8083,59.1188 107.1683,59.1308 L107.4953,60.3228 C108.2883,60.1988 109.0713,60.0258 109.8463,59.8218 L109.7493,61.1638 C110.0503,61.1818 110.4133,60.9438 110.6673,60.8008 C110.9043,61.3118 111.1793,61.7948 111.4413,62.2918 L112.2353,61.9528 C112.4693,62.0628 112.7743,61.7028 113.0193,61.6928 L113.8513,61.6758 C113.9933,61.4968 114.1353,61.3178 114.3033,61.1638 L114.0753,60.8928 C114.2983,60.7238 114.4983,60.5138 114.6903,60.3118 C114.6903,60.3118 115.2523,60.4328 115.3863,60.2768 C115.4643,60.4048 115.6173,60.5208 115.7563,60.5698 L115.7463,60.9098 C115.3713,61.1388 116.0983,62.4458 116.1213,62.8848 C116.3743,63.2088 116.7343,63.4128 117.0133,63.7088 L116.6923,64.4458 C116.9543,64.7838 117.1873,65.1458 117.4933,65.4478 L117.7053,65.3098 C118.9583,65.4708 119.5953,66.6788 120.3333,66.8698 L120.5893,66.6108 L120.5733,66.5068 L121.0843,65.9318 C121.4973,66.1798 122.4883,66.1388 122.4883,66.1388 L122.7443,66.4098 C122.9423,66.5068 123.4143,66.6508 123.4143,66.6508 C123.8213,66.8078 124.1253,67.1488 124.4533,67.4228 C124.6063,67.3308 124.7553,67.2318 124.9163,67.1518 C125.3333,67.3398 125.7653,67.4958 126.1893,67.6698 C126.3223,67.4378 126.4833,67.2188 126.5813,66.9678 L126.9343,67.2158 L127.2993,67.6988 C127.9173,67.7128 128.1343,68.7088 128.4863,68.8568 C129.1243,69.1268 129.8573,69.2948 130.5223,69.5038 C130.7433,69.8848 130.7763,70.6988 131.1683,70.9178 L131.3423,70.8948 C131.5893,71.0178 131.8243,71.0848 132.0883,70.9698 C132.4003,71.4688 133.0123,72.6748 132.7083,73.2438 C132.3403,73.4628 131.6903,73.9808 131.3573,74.1238 C131.0663,74.2478 130.6903,73.9338 130.4833,74.3038 L130.3463,74.3038 C130.1873,74.5678 130.2493,74.9378 129.9773,75.1388 C129.7213,75.7338 130.3093,75.9398 130.5423,76.3818 C130.3553,76.5238 130.0583,76.7658 130.0473,77.0158 C129.6673,77.3168 129.3493,77.9328 129.2043,78.3918 C128.9383,78.3938 128.4973,79.0858 128.9163,79.1748 C129.0013,79.4308 129.1323,79.6688 129.2203,79.9228 C128.6843,80.1108 128.0863,80.1628 127.5773,80.4188 L127.4083,80.3098 C127.1653,80.2658 126.9053,80.2938 126.6783,80.1768 L126.4723,80.6428 L125.9713,80.8908 C125.9713,80.8908 125.1513,80.8058 125.0573,80.9078 C124.8323,80.9138 124.6153,81.1468 124.5623,81.3288 C124.7123,81.6458 124.9863,81.9878 125.2373,82.3478 L125.5143,82.6408 C125.7773,82.6988 126.4473,83.1998 126.6903,83.3598 L127.1203,83.7578 L126.7603,84.2988 C127.2133,84.7918 127.7873,85.1548 128.3383,85.5248 L128.6813,85.4038 C130.0833,85.6988 131.1163,86.2768 132.3283,87.0738 C132.7233,86.7678 133.3743,87.3668 133.6993,87.5688 L133.6833,87.7188 L133.9993,88.0468 L133.8893,88.4728 C134.0043,88.7428 134.2373,88.9858 134.2873,89.2788 L134.2163,89.4178 C134.3383,89.6188 134.3273,90.2058 134.3463,90.4598 C133.4873,90.7368 132.7773,90.8648 131.9093,91.0588 C131.7763,91.2898 131.5353,91.3988 131.3593,91.5878 C131.1903,91.6168 131.0003,91.6188 130.8313,91.5878 L130.5593,91.7668 C130.2973,91.7088 129.5873,91.6108 129.3833,91.8068 L129.3563,91.6458 L129.0023,91.4438 L128.6113,91.4788 C128.6803,91.6528 128.4023,91.7268 128.2953,91.8358 C128.1503,91.8308 128.0803,91.7398 127.9253,91.7778 C127.3423,91.3808 127.3353,91.8138 126.8153,91.8248 L126.7443,91.9338 C126.4383,91.9488 126.0603,91.7828 125.8403,91.8068 L125.6333,92.0488 C125.4483,91.9708 124.8613,91.9618 124.8613,91.9618 C124.7253,92.1528 124.6583,92.6188 124.5013,92.7058 L124.4973,93.0108 C124.4973,93.0108 124.4103,93.4308 124.3553,93.5628 L124.1053,93.9198 L124.5623,94.3978 C124.5623,94.3978 124.3613,94.6278 124.2573,94.6968 C124.2593,94.8408 124.3023,94.9918 124.3823,95.1118 C126.5713,96.0818 125.3913,97.6728 126.3143,98.1058 C127.7923,98.7988 133.8333,97.7298 135.7613,99.4068 C135.9513,99.5718 136.1773,100.0508 136.2953,100.2828 C136.5193,100.7248 136.8953,101.3658 136.9693,101.8488 C137.1663,103.1378 136.4733,105.8418 138.0953,106.4758 C138.7883,106.7458 139.8123,105.9098 140.6443,105.9618 C141.3133,106.0038 141.7153,106.6958 142.3843,106.7588 C143.1763,106.8328 143.8453,106.2948 144.6203,106.2568 C145.6703,106.2058 145.9863,106.6768 146.8683,106.8768 C147.3433,106.9838 147.7873,106.6558 148.2623,106.6758 C149.1163,106.7118 149.8843,107.3258 150.6603,107.3598 C151.8813,107.4148 151.5703,106.7628 152.8743,107.6678 C153.7763,108.2928 154.6173,107.9658 155.6063,108.1158 C156.4203,108.8098 155.9033,109.1458 156.3033,109.8268 C156.5373,110.2228 156.9633,110.4208 157.2463,110.7708 C157.3983,110.9588 157.5243,111.2488 157.4803,111.4908 C157.3923,111.9628 157.2943,113.3258 157.6423,113.6798 C157.7913,114.7978 158.7313,114.8478 159.4373,115.4848 C159.9903,115.9838 159.7893,116.3008 160.0623,116.8718 C160.3593,117.4908 160.6533,117.4768 161.1303,117.8688 C162.4693,118.9648 162.1653,119.0458 164.0093,119.0848 C165.7463,119.1208 165.1863,117.2688 165.9443,116.4628 C166.3703,116.0098 166.4263,115.3478 166.6753,114.8038 C167.3063,113.4308 168.4163,112.1788 169.0753,110.8508 C169.4523,110.0908 169.4063,109.2068 169.7443,108.5508 C169.8423,108.3588 170.1113,108.4758 170.2493,108.3428 L170.8883,107.7288 C171.6053,107.0398 170.2323,106.8988 172.4983,105.2878 C172.9713,104.9508 173.8323,105.8858 175.2953,104.9918 C177.3763,103.7198 175.2573,103.3358 179.1233,102.5018 C179.9893,102.9188 183.7333,107.1708 184.7973,108.1968 C185.0783,108.4668 185.4773,108.5638 185.7983,108.7738 C188.4703,110.5168 188.7873,108.0238 189.9243,109.9428 C190.3333,110.1298 190.8243,110.1078 191.2063,110.3568 C191.6093,110.6178 191.7533,111.1858 192.0813,111.5318 C193.6363,113.1788 194.9513,114.3848 192.2733,115.4898 C191.6763,115.7358 191.1123,116.2128 190.4413,116.2288 C189.2623,116.2558 187.9603,113.2328 185.3473,113.8368 C182.9743,114.3848 184.7113,116.4148 182.7843,118.4758 C181.3063,120.0568 179.0613,117.5818 178.6633,119.2208 C178.4863,119.9488 178.7123,120.0648 178.9293,120.7148 C179.3583,121.9938 179.9483,121.9088 180.7713,122.7268 C180.9233,122.8778 180.7603,125.0488 180.8593,125.4858 C180.9353,125.8218 181.2273,126.0488 181.3523,126.3628 C181.6243,127.0388 181.6453,127.8618 182.0493,128.4808 C182.3293,128.9098 182.7523,129.2078 183.0753,129.6008 C183.3223,129.9008 183.4313,130.2798 183.6563,130.5928 C184.0163,131.0948 184.6523,131.1368 185.2033,131.2778 C185.8213,131.4358 186.4233,131.6818 187.0623,131.7478 C189.2543,131.9718 189.9983,132.1758 189.9973,134.6548 C189.4053,135.1238 189.0993,136.4008 189.5063,137.0378 C189.2963,137.1308 189.1913,137.0468 188.9713,137.1328 C188.8793,137.2648 188.6993,137.4658 188.5363,137.5128 L188.0903,137.8098 C187.8703,138.1558 188.1353,138.4038 187.5533,138.7888 C187.7653,138.8038 187.9643,138.9118 187.8383,139.1488 C187.5413,139.7098 187.5323,139.7158 187.5323,139.7158 C187.4973,140.0118 186.9393,139.7698 187.1133,139.9918 L186.3883,140.4858 C186.4783,140.5658 186.5593,140.6798 186.6053,140.7918 L187.1373,141.0078 C187.0693,141.2058 186.9963,141.5688 187.0603,141.7788 L186.8283,141.8398 C186.6253,142.3848 186.1733,144.0888 186.2773,144.6458 C186.3983,145.2948 186.5823,144.6878 186.6963,145.9218 L186.6533,146.4048 C186.2923,146.6198 186.7693,146.8488 186.9653,146.9138 C186.6953,147.1458 186.6293,147.2548 186.8033,147.5808 C186.2013,147.6988 185.5043,147.6068 184.8843,147.6708 L184.8093,148.1828 C184.4433,148.3178 183.9983,147.7788 183.6553,148.0768 C183.3293,148.3598 182.4693,148.1518 182.3403,148.5258 L182.8743,149.0458 L182.9493,149.6068 C182.8143,149.7228 182.7433,150.0038 182.7363,150.1718 L182.3393,150.5118 C181.6583,150.9698 180.6593,150.3958 179.9903,150.4758 C179.6753,150.5138 179.4843,150.8248 179.1663,150.8558 C178.7623,150.8958 178.3813,150.6848 177.9723,150.7668 L177.9183,151.1688 C177.4993,151.3368 175.9423,151.4038 176.4233,151.9658 L176.2593,152.8588 C176.2663,152.9588 176.3053,153.3038 176.4413,153.3428 C176.2343,153.9728 176.6453,154.5498 176.1563,155.5048 C176.1063,155.6018 176.3453,155.9758 176.2813,156.1708 C176.1233,156.6488 174.7853,156.5138 175.5293,157.6888 L175.4763,157.9138 C175.7333,158.2388 174.8793,161.8988 174.8473,162.5838 C174.8193,163.1688 174.1993,163.8118 173.9023,164.2028 C173.8603,164.2588 173.7583,164.9598 173.7383,165.0728 C174.2813,166.3698 174.6593,167.5358 175.6133,168.5738 C175.7323,168.5738 175.8803,168.5628 175.9953,168.6068 C175.7933,169.2398 175.9973,170.1498 175.6933,170.6098 C175.7353,170.7748 175.8843,170.9238 176.0023,171.0408 C176.1473,171.6768 176.2693,172.2738 176.2783,172.9188 C176.2803,173.0898 176.7803,173.5418 176.8873,173.7208 C177.0033,173.9108 176.9383,174.0188 177.1483,174.1818 C177.3593,174.3438 177.6523,174.3478 177.8633,174.5058 C178.2153,174.7718 178.3433,175.2188 178.7783,175.4888 C179.0513,175.6598 179.4093,175.5338 179.6853,175.6848 C180.0293,175.8728 179.9373,176.1458 180.0343,176.4598 C180.7843,176.8298 180.3013,177.4818 179.9003,177.8788 C180.4483,178.5908 180.6663,179.3828 180.1933,180.1488 C180.2143,180.3928 180.4233,180.6038 180.6283,180.7158 C180.7363,180.9778 180.2973,181.5368 180.2613,181.8128 C180.1303,182.8258 180.8723,183.1168 180.9573,183.8218 C181.0273,184.4078 180.8233,184.7898 181.1193,185.4368 C181.1613,185.5268 181.4083,185.7718 181.4803,185.8658 C181.5823,185.9998 181.4423,186.2388 181.7293,186.5228 C182.3143,187.1008 181.8393,187.0168 182.0753,187.5398 C182.1653,187.7398 182.3813,188.4518 182.6243,188.6498 C182.8773,188.8578 183.2223,189.0058 183.4993,189.2018 C183.5933,189.2698 184.3043,188.8868 184.5713,189.0878 C184.9863,189.3998 185.2593,190.1858 185.2913,190.6738 C185.7853,191.2078 186.4663,191.2998 187.1533,191.4918 C187.3203,191.4458 187.4613,191.3128 187.5773,191.1898 L188.7063,191.6588 C188.7003,192.4388 189.1813,192.3558 189.0703,193.2288 C190.1993,194.5398 189.7533,193.3168 190.6213,193.9048 L191.7563,193.7518 C191.8453,193.7398 192.3123,194.1968 192.4523,194.2608 C192.6363,194.3438 192.8413,194.2728 193.0213,194.3838 C193.4183,194.6308 193.5143,194.8408 194.0193,195.0438 C194.0363,196.2478 194.0443,195.7478 194.6903,196.3798 C195.0453,196.7278 195.2453,197.1968 195.6073,197.5578 C195.9823,197.9298 196.6943,197.8248 196.9553,198.2938 C197.4893,199.2498 196.6103,199.0598 197.8763,200.6128 C197.9083,200.8988 197.7033,201.1618 197.7893,201.4488 C198.0993,202.4748 198.4103,201.8218 198.7043,202.2098 C198.8143,202.3568 198.8643,202.4978 199.0343,202.5988 L199.0583,203.4258 C199.0613,203.5428 200.1103,204.9758 200.3033,205.1048 C200.4903,205.5908 200.4023,205.5488 200.9543,205.8258 C201.6683,206.1848 202.0363,206.5008 202.6333,207.1008 C203.7623,206.4298 204.2593,207.2438 204.6213,207.1098 C204.9063,207.3418 205.3743,207.7178 205.7193,207.8158 C205.766729,207.9178 205.7723,208.0568 205.7623,208.1658 C205.5573,208.3798 204.8493,209.3278 204.7823,209.5778 C205.4383,209.8738 205.2943,210.5878 205.1733,211.2158 C205.4123,211.6438 204.9373,212.2868 204.7213,212.6428 C204.7583,213.8388 203.7713,213.9358 203.0713,214.7058 C202.4033,214.8328 201.8533,215.0098 201.4113,215.5588 C201.3953,216.0818 200.9133,216.8578 200.9453,217.2468 C200.4193,217.4908 200.4423,217.9688 200.4333,218.4678 L199.3603,219.1088 C197.8093,220.0078 198.0123,221.1718 197.7163,221.3748 C197.2993,221.6608 196.1093,222.1098 195.5883,222.2818 C194.4753,222.6488 195.4393,224.7078 194.8193,224.8458 L194.6423,224.7608 C193.6783,225.1778 195.1903,225.5978 194.4643,226.8148 C194.3023,226.8568 194.1183,226.9738 194.0983,227.1538 C193.9023,227.2518 193.7633,227.8348 193.7193,228.0478 C193.4493,228.2078 193.4793,228.2448 193.3713,228.5258 C193.1113,229.1988 191.9453,228.9478 191.3803,229.4238 C191.1983,229.3118 191.0573,229.0998 190.9363,228.9268 C190.7693,229.0088 190.3913,229.7568 189.9143,230.1108 L189.9713,230.2828 C189.6593,230.9398 189.4573,230.1908 189.3813,229.8618 C189.1443,229.7098 188.9613,229.4738 188.7063,229.3508 C188.0823,229.0508 187.9123,230.1438 187.1963,228.9818 L186.8753,228.4718 C186.3623,228.3398 186.0353,228.9938 185.7653,228.5118 L185.0973,228.7018 C184.6283,230.0538 184.5383,228.9878 184.6053,230.6408 C184.1363,230.0718 182.6323,229.8788 182.8613,229.0478 C182.5553,229.3118 182.2173,229.5198 182.0043,229.8738 C181.8813,230.0798 181.7933,230.3028 181.8243,230.5458 C181.8313,230.6058 181.9053,230.8508 181.8533,230.8958 C181.1633,231.4998 180.7633,231.5438 180.4603,231.8208 C180.2873,231.9808 179.5373,233.0478 179.2863,232.7978 L179.1173,232.6218 C178.9213,232.7648 178.1123,233.2948 177.8603,233.2118 L177.7593,233.3878 C177.8213,233.7618 177.7473,234.1648 177.8263,234.5188 C177.9023,234.8608 178.2303,234.6348 178.3173,235.1678 C179.0953,235.6738 178.3203,236.2028 179.5803,237.1668 C179.6113,238.3378 180.6953,238.3938 180.8833,239.1198 C180.6503,239.4818 180.5173,239.8368 180.6353,240.2668 L180.1223,240.3568 C179.9973,240.8088 179.9493,240.8248 179.6003,241.1178 C179.5443,241.3588 179.4973,241.6388 179.3723,241.8548 C179.7623,242.2788 179.0593,242.5578 178.7273,242.5938 C178.6523,242.9868 179.3153,243.1258 179.5573,243.4818 C179.3993,244.1688 179.3143,244.5208 178.7333,244.9698 C178.8413,245.0958 178.4963,245.5488 178.4963,245.5488 C178.8563,245.8908 179.5023,245.7718 179.0003,246.5478 L178.7023,246.5958 C178.7883,246.7648 178.3333,248.5678 178.2503,248.9718 C178.3423,249.1558 177.9763,249.4348 177.8573,249.5358 C177.7103,250.0348 177.8403,250.6358 177.7473,251.1418 C177.7223,251.2738 177.8513,251.1178 177.8883,251.1028 C178.2043,250.9688 179.1403,251.2248 179.3373,251.4848 C180.3753,252.8608 182.5363,254.1888 183.4373,255.6768 C183.1083,256.0978 183.3513,256.7048 183.6633,257.0658 L183.5383,257.3208 C182.3363,259.3488 183.0673,258.6338 182.4273,260.3898 C182.3673,260.5558 182.6893,260.6518 182.4933,261.0188 C182.5553,261.2588 182.2903,261.4308 182.1633,261.5928 C181.9353,261.8838 181.8863,262.0948 181.8873,262.4458 C181.8903,263.6258 181.1273,262.8708 180.5643,262.8708 C180.1773,262.8708 180.1753,263.1348 179.6763,263.0098 C179.7243,263.2028 179.7993,263.3918 179.8723,263.5768 C179.6853,264.4958 179.1643,263.9208 179.1913,264.6778 C178.2523,265.9868 179.5413,266.0398 178.4793,267.3338 C177.8893,267.3138 177.7003,267.9158 177.4723,267.9188 L177.0553,267.1918 C176.8503,267.8688 176.3193,267.1828 176.0603,267.2798 C175.9843,267.4088 175.9063,267.5458 175.8553,267.6888 C175.2393,267.6628 175.3803,268.0658 174.7213,267.8868 L174.1763,267.8508 C174.2203,268.0578 173.9853,268.5288 173.8823,268.6918 C173.5853,268.4468 173.2573,268.2738 172.8863,268.1778 C172.8183,268.1598 172.6583,268.1448 172.6133,268.0808 C172.2063,267.5198 170.8013,266.5748 170.5563,266.0908 C170.3703,265.7228 170.7433,265.3818 170.8473,265.0668 C170.9593,264.7298 171.0653,264.5338 171.4003,264.3828 C169.6133,264.3788 170.0643,265.1698 169.5233,265.2648 C169.3673,265.2918 169.2813,264.9478 169.0773,264.8998 C168.6023,265.3658 168.3563,264.9378 168.3063,265.7928 C168.1843,265.9668 168.0003,266.2458 168.1723,266.2028 C168.2613,266.3248 167.6223,266.8928 167.5043,266.8998 L166.2893,266.9838 C166.2633,266.5838 165.3753,267.0938 165.1683,267.1768 C165.0183,267.4108 165.2863,268.1498 164.7913,268.0748 L164.3493,268.6888 L164.1243,268.5368 C163.9873,268.1828 163.5633,268.3348 163.2903,267.9708 C163.0833,268.5778 162.7133,269.4648 162.1113,268.6328 C161.8883,268.3258 161.8443,268.7528 161.6193,268.8078 L161.2623,268.6678 C161.1753,268.8788 161.0433,269.2388 160.8843,269.3958 C160.4993,269.3578 160.1023,269.2898 159.7153,269.3038 C159.4733,270.2588 158.7983,269.0828 158.6233,269.0208 C158.0383,268.8138 158.0663,269.6378 157.7193,269.6378 C157.3583,269.6378 157.0173,268.9578 156.5323,268.7648 L156.4633,268.5278 L156.0003,268.2318 C156.1023,268.0788 155.4903,267.9398 155.3903,267.7798 C155.1293,267.7828 153.6623,266.7078 153.5363,266.5088 L153.3473,266.4468 C152.7373,266.6128 152.9703,268.1428 152.8213,268.6848 C152.7193,269.0488 151.4963,269.3328 151.1483,269.3698 C150.3533,269.4528 150.4113,268.9188 150.1313,268.8088 C149.9133,269.2718 149.4823,267.7608 148.6463,267.7768 L148.3043,267.7848 C147.8503,267.8278 148.1213,268.5408 148.0183,268.7928 C147.9463,268.9708 147.7663,269.0388 147.6583,269.1878 C146.9453,270.1598 147.1643,270.6058 145.8263,269.7318 C145.7573,270.3758 145.7213,270.9808 144.9413,271.0388 C144.7123,271.3088 144.7103,272.1608 144.3903,272.4018 C144.0623,272.6498 142.9813,271.9408 142.6483,272.0348 C142.2393,272.5148 141.9583,273.7128 141.5003,273.7648 L141.4393,274.1608 C141.2693,274.3028 141.0333,274.2108 140.9593,274.0178 C140.7793,273.5368 139.6523,273.3158 139.1823,273.0598 C139.0313,272.9768 138.4133,273.0668 138.1583,272.9958 L138.0723,272.7918 C137.7613,272.5858 137.3103,272.5188 136.9653,272.3508 L136.3073,272.6388 C135.6033,271.4248 134.6863,273.4478 134.0703,273.4758 C133.6623,272.8438 133.4723,273.5188 133.1373,273.6588 C132.3453,273.9928 132.3383,271.9318 131.7793,271.4648 C131.4903,271.2238 131.0713,271.5818 130.8893,271.4518 C130.6113,271.2518 130.6993,270.7738 130.2233,270.8718 C129.4173,271.0368 130.1643,271.4528 129.6403,271.5958 C129.1303,271.7328 129.1003,271.1788 128.7533,271.1958 C128.1453,271.2258 128.7923,271.6288 128.7063,271.8638 C128.6043,272.1348 128.1813,272.3578 128.1313,272.6458 C128.0813,272.9438 129.3873,274.2428 128.4443,274.5908 C127.7093,274.8618 127.3063,273.4638 126.8703,273.3428 C126.7753,273.3158 125.4213,273.3208 125.6393,273.8288 C124.9983,274.4398 125.3203,274.3908 125.0113,274.8018 C124.6533,275.2788 124.3763,274.8118 124.0303,275.7078 C123.5343,276.9948 123.4003,275.6448 123.0413,276.4408 C122.9423,276.6608 123.2383,276.9918 123.1413,277.3098 C122.9903,277.8098 122.5333,278.0658 122.3233,278.5108 C122.1633,278.8508 122.4333,278.9148 122.4223,279.1988 C122.1283,279.5748 121.8923,279.8628 121.7163,280.3138 L121.3853,280.5268 C121.4423,280.6678 121.6993,281.1038 121.6993,281.1038 C122.2203,281.5308 121.9113,281.4848 122.1253,281.9068 C122.2903,281.8508 122.4883,282.6538 122.6333,282.8668 C122.5813,283.0208 121.8723,283.4548 121.7793,283.2868 C121.6633,283.0768 121.2383,282.9598 121.2043,283.2048 C120.5263,283.1828 120.4903,283.3248 120.0343,283.8048 C119.5403,283.7468 119.1203,284.0098 118.9463,283.9788 C118.3273,283.8668 118.4423,283.5088 117.6143,283.6998 C117.6463,283.1188 117.1923,283.0448 117.1733,282.5658 C117.1613,282.2248 117.3243,281.7208 117.3343,281.3338 C117.3443,280.9898 116.6633,280.5438 116.5023,280.2228 C116.4003,280.0178 116.2633,279.3488 116.1473,279.2358 L115.6413,278.7718 C115.6163,278.6168 115.5343,278.3578 115.4043,278.2548 C115.4953,277.7078 115.1453,277.8848 115.0503,277.5158 C115.0023,277.3268 115.0273,276.8208 114.8803,276.7048 C114.5643,276.4558 113.2613,276.5008 112.8933,276.3638 C112.7083,276.2948 112.7083,276.1218 112.5843,275.9968 C112.3303,276.0528 112.0993,276.0478 111.8453,276.0598 C111.7443,276.0648 110.9413,277.0798 110.6923,277.2358 C110.3583,277.4458 109.9363,277.4268 109.6943,277.7798 C109.4593,278.1228 109.3563,278.5708 109.0433,278.8588 L108.8093,278.8418 C108.5593,279.1228 108.1393,279.4248 107.9943,279.7568 C107.7293,279.8878 107.4273,279.7948 107.1563,279.8878 C106.8573,280.3088 106.2743,280.3398 105.8593,280.6438 C105.3053,280.5798 105.4583,280.7868 105.1223,280.8418 C104.7183,280.9068 104.2973,280.6348 103.9023,280.7728 C103.6493,280.8598 103.3383,281.3178 103.0863,281.4828 L102.7333,281.4358 C102.7623,281.5798 102.6603,281.7978 102.5623,281.8978 C102.6413,282.2918 101.8743,282.7928 101.6303,283.0998 C101.0843,283.7868 100.6443,283.7088 99.7673,283.4118 C99.3613,283.5828 99.3193,283.4008 99.0063,283.4728 C98.7273,283.5358 98.8103,284.3638 98.1273,284.4798 C97.7803,284.5378 97.2843,284.7118 96.9423,284.6488 C96.7583,284.6128 96.6163,284.4818 96.4203,284.5408 L96.0343,285.0028 C96.0113,285.1078 96.0403,285.2538 96.1053,285.3418 C95.7403,285.8078 95.2963,286.3538 94.7663,286.5998 C94.6753,286.8488 94.8873,287.1458 95.0533,287.3158 C94.9173,287.7658 94.4683,288.0358 94.2843,288.4608 C94.3493,288.7918 94.2943,291.4048 94.3363,291.4568 C94.7333,291.9448 94.9573,292.4818 95.2153,293.0648 C95.4263,293.5388 94.5533,293.8058 94.6183,294.0658 C94.7193,294.4758 95.3623,295.1148 95.6923,295.3808 C95.7903,295.4588 96.1783,295.5858 96.1223,295.7638 C94.7123,296.3588 95.2483,296.5888 94.4043,297.4748 C94.1993,297.6898 93.9993,297.5238 93.8003,297.9098 C93.6953,298.1158 93.7843,298.6028 93.6673,298.7298 C93.5033,298.9088 93.0333,299.0548 93.0333,299.0548 C92.5983,299.2678 92.2533,299.5148 91.8623,299.8058 C91.2043,299.8318 91.2713,300.5948 90.8573,299.6778 C90.0563,297.9048 88.7913,299.8298 88.0343,300.4998 C87.7653,300.4518 86.7213,299.0898 86.6043,298.7948" id="Fill-1" fill="#FFFFFF"></path>
            <path d="M86.6043,298.7948 C86.6043,297.8218 85.9523,296.9458 85.6713,296.0398 L86.0803,296.0498 C86.5433,295.7008 86.4123,294.8818 87.2393,295.2058 C87.5123,294.7958 87.3283,294.9518 87.7683,294.6168 C88.0773,294.3828 88.3063,292.3158 88.0813,291.9438 C87.8133,291.5028 87.5293,291.4968 87.3563,290.8848 C87.1613,290.1908 87.3613,289.4388 86.7563,288.8358 C86.7343,286.2438 86.0933,287.2178 85.4613,286.1838 C85.1433,285.6608 84.9783,285.0898 84.7003,284.5578 C84.6423,284.4478 85.2313,283.8428 85.2163,283.5128 C84.5003,282.5188 85.3753,282.5848 85.3473,281.8788 C85.3233,281.2638 84.3893,280.7538 84.8733,280.1208 C84.6963,279.7958 84.3233,279.5738 84.1363,279.2508 C84.2563,279.0938 84.2643,278.8978 84.1463,278.7398 C83.5423,277.9348 83.5443,276.2328 83.1653,275.6548 C82.9353,275.3058 82.8113,275.2278 82.6983,274.7868 C81.4073,274.3588 82.3443,273.8368 81.5273,273.4128 C81.2643,272.7798 80.9353,273.1738 80.7043,272.2368 C80.3563,271.9718 80.0563,271.6778 79.7243,271.4008 C79.6003,271.2988 79.2373,271.2998 79.0393,271.1188 L78.3283,271.0568 L78.1673,270.7508 C77.8643,270.6898 77.4003,270.7318 77.1673,270.4948 C76.9843,270.3078 76.9213,269.4208 76.5883,269.5418 L76.4483,269.5098 C76.2933,269.2938 75.0393,268.9148 74.7443,268.8508 C74.8073,268.7618 74.7933,268.4678 74.8013,268.3578 C74.6473,268.1928 74.5453,267.9868 74.3883,267.8268 C74.1213,267.7618 74.1293,267.6318 74.0203,267.5978 C73.1963,267.3358 72.7803,268.8478 72.1203,268.2298 C71.9873,268.1058 71.8773,268.1348 71.8203,267.9268 C71.3633,267.6598 70.2573,268.5578 69.9683,267.9378 C69.8043,267.8428 69.6043,267.9398 69.4653,267.7868 C69.5753,267.2178 69.4043,266.5288 68.8523,266.2568 C69.0343,266.0988 69.2473,265.9818 69.4333,265.8288 C69.4233,265.4778 69.4403,265.1428 69.4933,264.7948 C69.2823,264.4398 69.3613,264.2638 69.2363,263.9458 C68.9973,263.8288 67.5803,262.6538 67.5923,262.5208 C67.7553,262.3998 67.7563,262.1888 67.8093,262.0138 C67.9023,261.7068 68.5713,261.8688 68.4803,261.1718 C68.4453,260.9018 68.1793,260.2698 68.0203,260.0678 C67.4833,260.0198 67.6273,259.4898 67.3953,259.3098 C66.7293,258.7918 66.5383,259.2898 67.0373,258.3688 C67.1533,258.1548 66.5123,257.7028 66.3893,257.5638 C66.1593,257.3038 66.2943,256.9238 66.2003,256.6198 C65.8663,256.3378 65.7063,256.1648 65.5143,255.7658 C65.6043,255.6288 65.5923,255.4338 65.5433,255.2828 C64.8553,255.0828 62.9793,253.7888 62.2193,253.4568 C62.0543,253.0358 61.9853,252.8608 61.6683,252.5138 C61.6873,252.1458 61.4433,252.0588 61.1893,251.8698 C60.9923,251.4278 61.5833,250.6518 61.5663,250.3728 C61.4813,248.9408 60.1423,248.0298 61.5883,246.7768 C61.9143,246.4948 61.6373,246.1208 62.6593,245.4168 L62.7623,244.9788 C62.6373,244.9038 62.4723,244.8958 62.3303,244.9088 C62.1523,244.8658 61.8483,244.6758 61.7923,244.4858 C60.6453,244.3308 60.1133,243.3558 59.6713,243.2448 C59.2383,243.1378 58.0473,243.2708 57.3493,243.0218 L57.3993,242.6118 C56.4263,242.6638 56.7813,242.1478 56.5693,241.5808 L56.1833,241.5138 C56.2343,241.1908 56.1773,241.0658 55.9783,240.7958 L56.7573,240.5538 C56.6153,240.0858 56.7623,240.0048 56.8313,239.5678 C56.6623,239.4678 56.5783,239.2818 56.4243,239.1628 C56.6053,238.1328 57.4443,238.6828 58.0883,237.3748 L58.3673,237.4358 L58.6633,237.2818 C59.1063,237.5098 59.6733,236.5458 60.5483,236.2728 C60.8183,236.3988 61.0073,236.6578 61.2943,236.7838 C61.5673,236.9048 62.2883,237.0288 62.4703,237.1538 C62.6343,237.2678 62.6673,237.4898 62.8333,237.5948 C63.2453,237.8548 63.0653,237.4288 63.4653,237.5068 C63.9373,237.5988 64.2813,238.0038 64.7053,238.2028 C65.1233,238.1868 65.5443,238.0988 65.9553,238.0248 L66.4963,237.9508 C66.7863,237.9988 66.8903,238.1318 67.2223,238.0968 C67.2603,237.8718 67.4463,236.8608 67.6323,236.7878 C68.6453,237.5458 68.0373,236.5278 67.8773,235.8918 C68.5893,236.0338 68.9163,235.5398 69.2453,235.0028 L69.2053,234.6268 C69.4443,234.4728 69.7713,233.9348 69.8733,233.8948 C70.4743,233.6528 71.0883,233.1578 71.7253,233.1048 C71.7583,233.3178 72.2333,233.5958 72.4043,233.6668 C72.5463,233.4898 72.9103,233.2808 73.1033,233.1688 L73.0593,232.9408 L73.6243,232.4758 C73.9483,232.4328 74.1073,232.4308 74.3123,232.7068 C74.4903,232.6748 74.7753,232.6648 74.9443,232.7488 L74.9513,232.6068 C74.7613,232.5088 74.8293,232.2538 74.7903,232.0848 C74.2693,231.7398 74.5513,231.5898 74.4843,231.1278 C74.4383,230.8148 74.1663,230.4078 74.2083,230.1008 C74.2913,229.5078 74.5013,228.8538 74.5643,228.2698 C74.6293,227.6748 74.0163,227.0318 74.4673,226.4448 C74.2323,226.4708 73.8793,226.6338 73.6643,226.5268 C73.6583,226.4068 73.6123,226.2748 73.5133,226.1998 C72.5483,226.1718 72.8913,227.4188 71.4973,226.0578 C70.9053,226.0898 70.6703,225.7478 70.1993,225.4958 C69.6473,225.2008 68.9643,225.2808 68.4283,224.9448 C68.0893,224.7328 67.9823,224.2198 67.6593,224.0918 C67.3543,223.9718 67.1893,224.3028 66.5433,223.7788 C66.0283,223.3618 65.9893,223.0698 65.2493,222.9928 L65.1793,222.7548 L64.9743,222.7628 C64.9743,222.7628 64.3293,222.6678 64.0193,222.8408 C63.8243,223.2168 63.4343,223.3458 63.3243,223.6508 C63.0443,223.6518 62.9563,222.7638 62.1853,223.1068 C62.0023,223.0688 62.0303,223.1338 61.9833,222.9078 L61.6573,222.7798 C61.8273,222.0428 61.2983,221.9028 60.8443,221.4718 C60.4643,221.4578 59.3033,222.1098 59.0223,221.9798 C58.9513,221.5468 60.8023,220.3298 60.8913,220.0698 L60.7263,219.7648 C60.4293,219.6958 60.1093,219.7458 59.8183,219.6478 C59.5473,219.5558 59.3543,219.2858 59.0493,219.2918 C57.0493,217.9418 56.7323,218.1168 55.6853,215.7538 C55.5663,215.4858 55.5813,215.1808 55.4543,214.9148 C55.1673,215.0128 54.9803,215.2868 54.6843,215.3658 C54.2333,215.4878 51.6143,214.8588 51.0283,214.6878 C50.7123,214.5948 50.5223,214.2768 50.1983,214.2108 C49.6053,214.0898 49.3183,214.6168 49.0593,214.5168 C48.6913,214.3748 48.9163,213.4778 47.5463,212.8568 L47.3513,212.4428 C47.1003,212.3008 46.4163,211.8658 46.3563,211.5838 C46.4483,211.5078 46.5433,211.3388 46.5513,211.2178 C46.6703,209.4358 45.7473,210.3708 44.9013,210.0588 C44.5263,209.9188 44.3823,209.5838 43.9373,209.5458 C42.5153,209.4248 40.1953,209.9468 38.9943,209.0948 C38.6423,208.8448 38.7693,208.0298 38.6913,207.6448 C38.6133,207.2558 36.6283,204.3728 36.3833,204.2278 C35.5233,203.7188 35.5363,204.8228 33.6473,203.0718 C32.3963,201.9118 33.2913,200.2158 32.9483,198.9378 C32.5083,198.5908 31.9253,198.5228 31.6513,198.2548 C31.4893,198.0958 31.4503,197.6488 31.2043,197.4008 C30.9063,197.1008 30.7353,197.3688 30.4083,196.7618 C30.4523,196.5358 30.5613,196.2898 30.5253,196.0578 C30.4793,195.7588 30.1463,195.5118 30.0923,195.1688 C30.0473,194.8878 30.1253,194.4958 29.8773,194.2898 C29.3403,193.8468 28.5603,193.9418 27.9353,193.7248 C27.4293,193.5498 26.8273,192.4878 26.3183,192.1488 C25.4963,191.6038 24.5823,191.0808 23.7373,190.5538 C23.6433,190.4948 23.3183,190.6638 23.1053,190.5568 C22.6893,190.3478 22.2793,190.0208 21.8863,189.7648 L21.7043,189.7958 C21.1903,189.2998 20.4463,189.1348 19.9433,188.6268 C19.7163,188.3978 19.5313,188.0238 19.2713,187.8448 L19.4463,186.5278 C19.5073,186.0568 18.7403,186.0188 19.3483,184.7658 C20.9333,184.9408 19.6643,182.8158 20.3163,181.8268 C20.2713,181.6378 20.2443,180.2638 20.4763,180.2318 L20.7413,180.3838 C21.1043,179.5988 21.5173,180.0838 21.7823,179.7108 C22.1533,180.0128 22.3613,179.9758 22.3163,179.4668 C22.5213,179.4598 22.6533,180.1468 22.8483,180.2708 C23.0723,180.4128 24.5353,180.3648 24.6893,180.1888 C24.8313,180.0248 25.5413,179.0048 25.7553,179.2008 C25.9103,179.1188 25.9273,178.9158 26.0473,178.8008 C26.1393,178.9148 26.1593,179.0828 26.1463,179.2258 C26.2993,179.4048 26.5903,179.3628 26.7383,179.5368 C26.6293,180.7718 27.2283,179.8768 27.6833,180.4448 C27.5813,180.5878 27.2503,181.4678 27.7073,180.9848 L27.9003,181.0368 L27.9473,182.1108 C27.3233,182.6138 27.9163,183.0418 28.2483,183.6348 C28.4693,183.5748 28.7713,183.1598 29.0173,183.0318 C29.2783,182.3998 29.1743,182.3948 29.8853,182.0568 C29.8453,181.7958 30.0393,181.4018 30.2953,181.3128 C30.5303,180.5938 32.4033,182.1678 32.6123,181.7718 C32.9083,181.2118 32.8133,181.3818 33.3903,181.2088 C33.7803,180.2818 33.1903,180.7918 32.7133,180.2848 C32.6253,180.1908 32.3433,179.3608 32.2443,179.8528 C32.0723,179.5708 32.4053,178.8208 32.5483,178.5518 L32.5083,178.4468 L32.2013,178.3158 C32.0473,178.0958 32.3043,177.9118 31.9433,177.4248 C32.2003,177.0888 32.5203,176.5598 32.5943,177.2968 C33.0653,177.3628 32.9223,176.9868 32.9763,176.6878 C33.1163,175.9088 33.3783,175.1468 33.3273,174.3438 C33.2823,173.6458 32.7523,172.9358 32.7623,172.1488 C32.7653,171.9508 32.9583,171.4908 32.8783,171.3398 C32.6343,170.8768 32.0783,170.5598 31.6123,170.3378 C31.5503,169.9028 31.5373,169.3048 31.0713,169.1318 C30.5423,168.1878 30.8323,167.5018 29.1563,167.3608 C29.1603,167.0958 29.1973,166.4958 28.8633,166.4028 L28.6723,166.0658 C28.5733,165.9238 28.4283,166.2358 28.2253,166.1948 C27.9533,166.1398 27.7203,165.9318 27.3983,165.8628 C27.0643,164.9998 26.8793,164.8368 26.2293,164.0278 C26.1773,163.9628 26.3903,163.5328 26.3543,163.3648 C25.9783,163.1848 25.3103,162.8248 25.2753,162.3678 C25.0093,162.1188 24.4333,161.3098 24.1673,161.2328 L24.3943,160.7568 L23.3203,159.9348 C23.4003,159.6918 23.5843,159.5358 23.4423,159.2718 C23.2693,158.9498 22.8713,158.8298 22.6763,158.5258 C22.4733,158.2088 22.5813,157.7808 22.3543,157.4768 C22.2333,157.3138 21.9163,157.1848 21.8933,156.9698 C21.5843,156.7288 21.4053,156.3568 21.2203,156.0218 C21.3883,155.6588 20.5903,155.4588 20.3933,155.3188 L20.2743,155.0328 L20.4103,154.8328 C20.6943,154.3828 18.4833,151.3898 19.7453,150.9148 C20.3143,150.7008 20.6213,151.8468 21.3783,152.0348 C21.8783,152.1578 22.5653,151.9688 23.0073,152.1518 C23.4463,152.3348 24.1683,153.0688 24.4163,153.1378 C24.6623,153.2068 25.2283,153.1018 25.3743,153.1928 C25.5203,153.2828 26.0183,154.5338 27.0413,154.6838 C27.4753,154.7478 27.5653,154.1978 27.8303,154.1608 C28.0703,154.3468 28.5013,154.6998 28.7823,154.7778 C29.0363,154.8498 33.4553,155.0218 33.8943,154.9918 C34.0373,154.9818 34.3653,153.9138 34.5623,153.7178 C34.9193,153.3638 35.4343,153.1288 35.9023,152.9588 C36.0363,152.6178 35.5793,152.1628 35.7183,152.0258 C36.0053,151.7468 36.5413,151.8388 36.8943,151.6968 C37.0893,151.6178 37.1003,151.3778 37.2783,151.2748 C37.6663,151.0518 38.4053,151.2378 38.5473,150.6768 C38.6673,150.2078 38.0893,149.8758 38.1873,149.4428 C38.2383,149.2128 38.4363,148.9878 38.5333,148.7668 L38.5963,148.5538 C38.7143,147.9518 38.0553,148.5798 37.8513,148.4268 C37.6933,148.3108 37.8163,147.6078 37.7693,147.3988 C37.6843,147.0238 36.8993,146.8258 36.6483,147.1508 C36.4493,147.4118 36.8533,148.6268 36.3223,148.6428 C35.8483,148.6588 35.7023,147.4418 35.3993,147.1178 C34.8423,146.5208 33.8943,146.7618 33.2523,146.3228 C32.1923,145.5968 32.6043,144.5978 32.2503,143.9148 C32.1283,143.6798 31.2843,144.1778 31.0923,143.4948 C30.8873,142.7658 32.0683,142.4448 31.6963,141.8618 C31.3033,141.2458 30.4923,141.7548 30.2923,142.2728 C30.1113,142.7438 30.1623,143.0228 29.5933,142.6958 C27.7543,141.6368 28.6503,139.9708 27.5473,140.1058 L26.8393,139.5798 C26.6243,139.4248 25.6463,139.4378 25.6123,139.2198 L25.4493,138.0038 C25.4343,137.8918 25.7023,137.7568 25.6183,137.5158 C25.3743,136.8138 24.2793,137.1268 25.1193,135.9288 C24.6973,135.2618 24.9853,135.2788 24.2213,134.7038 C23.8633,134.4348 24.2843,133.3988 23.9003,133.1528 C23.3453,132.7958 23.0003,133.3638 22.4643,133.2578 C22.1843,133.2028 21.8823,132.7688 21.6483,132.8028 C21.2773,133.2238 20.3413,133.8818 19.7523,133.8368 C18.2823,133.7248 18.9903,132.2188 18.3833,131.9048 C17.2433,131.3158 17.2173,133.0698 16.0863,132.0968 C15.6703,131.7388 15.5993,131.1568 15.2203,130.7738 C14.9353,130.4858 14.3853,130.3598 14.2983,129.9098 C14.2113,129.4588 14.7133,128.8678 14.5123,128.4888 C14.3433,128.1708 13.6763,128.5358 13.5103,128.0668 L13.2563,127.3118 C13.3073,126.9488 14.1733,126.8188 13.4373,126.4138 C12.6313,127.1688 13.1703,124.6648 13.2383,124.5338 C13.5573,123.9198 14.7993,123.7658 15.0623,123.3628 C15.1463,123.2338 15.1783,121.8008 15.1913,121.5388 C15.2333,120.6538 15.1243,120.0608 14.7873,119.2218 C14.6863,118.9698 14.4783,118.7938 14.4183,118.5188 C14.2993,117.9728 14.8053,117.4908 13.9153,117.3458 C13.6053,117.0578 14.0333,116.7508 14.1613,116.5028 C14.3153,116.2048 14.1673,115.7258 14.4403,115.5078 C14.8283,115.1968 14.9873,115.7378 15.3133,115.7838 C15.5813,115.8218 16.0243,115.7038 16.3093,115.6848 C16.6243,115.4748 16.2983,115.0178 16.6123,114.7368 C17.0353,114.3578 18.0203,113.6458 17.4583,112.9898 C17.3103,112.8178 16.9333,112.9378 16.8473,112.7318 C16.7283,112.4508 17.4993,111.4418 17.7223,111.2548 C18.2003,110.8578 18.9403,111.0738 19.0863,110.7128 C19.2153,110.3958 18.5253,109.3358 19.0373,109.3468 C20.5473,109.3828 19.4943,109.0708 19.7903,108.2408 C19.8863,107.9708 20.3073,108.2798 20.1993,107.5438 C20.3663,107.2698 20.5703,106.9768 20.4433,106.6468 C20.6403,105.9828 21.0523,105.8588 21.5383,105.4828 C21.7803,105.2948 20.8953,104.7368 21.3643,104.3368 C21.6593,104.0858 22.6923,104.8188 22.6443,104.0418 C22.5893,103.1518 23.0393,103.5158 23.3063,102.9588 C23.2873,102.9138 23.9023,101.5518 24.0393,101.4608 C24.1083,101.2598 23.7443,101.1038 23.9063,100.8658 C24.0073,100.7188 24.4443,100.9548 24.6303,100.8228 C25.0253,100.5418 24.3713,100.3218 24.3243,100.0538 L24.6423,99.6488 C24.3203,99.4688 23.8943,99.1028 23.9803,98.6908 C24.0853,98.1938 24.5403,98.7998 24.7453,98.4748 C24.9193,98.1988 24.5073,97.9538 24.5683,97.7348 C24.6343,97.4968 25.0023,97.5568 25.0993,97.3388 C25.1403,97.2458 25.0133,95.7738 25.0133,95.3468 C25.0133,95.1238 25.4263,94.9678 25.3473,94.7998 C25.2543,94.6048 24.7913,94.6878 24.9393,94.3318 C25.0353,94.1058 25.6683,94.0448 25.8083,93.6688 C25.7243,93.4078 26.1923,93.4718 26.3303,93.1608 C26.4473,92.8948 25.9543,92.5488 25.8663,92.3158 C25.7093,91.8968 26.2843,91.7978 26.2593,91.4098 C26.2403,91.1198 25.8163,90.9528 25.8983,90.8918 L25.9963,90.6138 C25.0403,89.9608 25.4013,90.5848 24.9633,90.3858 C23.3123,89.6338 23.5663,88.5238 21.4723,89.3368 C21.0973,89.1908 20.8253,88.7648 20.4043,88.7338 C19.6503,88.6798 19.1583,90.1968 18.3383,89.9078 C17.8763,89.7448 18.1803,88.5178 17.1373,88.2038 C16.1093,87.8938 15.9813,88.7998 15.3383,89.2998 C15.0383,89.5328 14.6743,89.5688 14.3293,89.6978 C14.0213,89.8128 14.0243,90.5658 13.5753,90.6898 C13.1183,90.8158 12.6133,90.8008 12.2173,91.0968 C11.6343,91.5318 11.9383,92.1878 10.8883,92.4178 C10.2543,92.5568 9.3553,92.7338 8.7133,92.7688 C8.5563,91.6988 7.8673,90.9808 7.4503,90.0358 C7.3453,89.7978 7.4923,89.5298 7.3453,89.2958 C9.1243,87.3498 10.1963,90.1588 11.4023,89.9338 C12.6423,89.7018 11.5613,88.7648 12.9363,87.7218 C14.1613,86.7938 14.0923,87.2098 14.7643,86.9058 C14.8853,86.8508 15.0233,86.4958 14.9223,86.4598 C15.1473,86.3208 15.3773,86.1818 15.5883,86.0208 L15.4983,85.7058 L15.1293,85.7148 L15.1413,84.4558 C14.4923,83.7838 14.4923,84.2798 13.6593,84.5058 C13.4333,85.0708 12.8983,84.7278 12.4223,84.7498 C12.0683,84.3468 11.4203,84.1798 11.0083,83.7998 L11.0583,83.5958 C12.1953,82.7338 11.7733,83.4008 12.9233,82.0628 C12.9223,81.6648 12.4993,81.1988 12.7643,80.8348 C12.7023,80.7428 12.6963,80.5908 12.7243,80.4868 C12.5483,80.4838 12.5223,80.2958 12.5243,80.1638 C12.5333,79.7318 13.6693,79.6698 12.8833,78.9618 L12.6153,78.7488 C12.4473,78.2218 13.8583,76.9198 12.4253,76.3888 C12.5623,75.7878 12.0313,75.3598 12.0763,74.9808 C11.5213,75.4718 11.7083,74.2348 11.6933,74.1818 C11.5243,73.5798 12.0993,73.3678 12.1373,72.7168 C13.1423,72.9978 13.8333,73.5768 14.8703,73.8028 C15.8223,72.8338 17.0773,71.7268 17.4813,70.3908 C17.0453,70.0708 16.5713,69.8468 16.0733,69.6408 L16.3343,68.9358 L16.5723,68.7598 L16.7173,68.9088 L17.0283,68.7958 C17.3213,68.8248 19.4043,70.3778 19.5743,70.3798 C20.0363,70.3848 20.3913,70.3778 20.7953,70.6518 L21.2773,70.6238 C21.6663,70.9008 21.7963,71.0358 22.3093,70.7778 C22.3783,70.8388 22.4683,70.8728 22.4363,70.7478 C22.3673,70.4818 22.1963,70.2338 22.0633,69.9968 L21.6813,69.3178 C22.5333,69.6718 21.7313,68.7468 21.7013,68.5108 C21.6883,68.4118 21.7093,68.2388 21.8723,68.3088 C22.0553,68.9308 23.2553,68.1848 23.6053,68.4008 C23.7823,68.5108 23.6773,68.7818 23.6773,68.9438 C23.6773,69.1458 24.6473,70.5488 24.7713,70.7388 C24.9253,70.5718 25.0793,70.3978 25.2553,70.2538 L26.1153,71.0918 C26.3663,71.1428 26.6003,71.0608 26.8463,71.0228 C27.6893,70.8928 29.0003,71.2378 29.6743,71.0508 L29.7293,70.4398 L30.0613,70.0828 C29.6623,68.9078 29.1843,67.8498 28.7203,66.6978 C28.1773,66.6508 27.6323,66.7348 27.0903,66.7518 C23.3723,66.8638 20.9623,66.3928 17.7363,64.5868 C16.5533,63.9238 14.1503,63.1798 13.3043,62.2748 C12.5713,61.4908 12.9633,59.8058 12.0793,59.3058 C11.1663,58.7898 10.1223,59.2068 9.1583,58.9508 C8.5723,58.7948 8.2173,58.1448 7.7483,57.7998 C7.2903,57.4638 6.7153,57.2048 6.4573,56.6658 C6.3243,56.3878 6.3423,56.0598 6.4933,55.7928 C7.2563,54.4378 9.5613,55.7368 9.3543,54.0508 C9.1403,52.3088 6.8903,53.3268 7.4373,50.6798 C7.5863,49.9598 7.3883,49.1108 7.9453,48.5248 C8.3433,48.1048 9.0893,48.9278 9.4623,49.0798 C10.5453,49.5228 12.5823,49.1858 12.8723,47.8388 C13.3133,45.7838 10.0313,46.0088 9.6513,45.7948 C9.0953,45.4828 9.5913,44.5068 8.9043,44.2678 C7.7673,43.8728 7.9923,44.6788 7.4103,45.3348 C6.6463,46.1938 5.0123,45.8558 4.2703,45.2248 C4.9343,44.2638 4.9863,43.8578 3.8863,43.4638 L3.8193,43.6118 C1.3133,42.9498 3.5643,42.4678 3.6793,41.2898 C4.8293,41.4868 3.7493,40.5378 3.4163,40.6258 C3.4873,40.1728 3.8673,39.8938 4.1543,39.5738 C4.6003,39.7928 5.2003,40.0768 5.5573,39.5548 C5.4413,39.3368 4.8193,38.9678 4.8193,38.9678 C4.5313,38.7878 4.4903,38.6038 4.6443,38.2998 C5.3543,37.9108 7.3963,38.3538 6.4713,36.8368 C6.2943,36.5478 6.3293,36.5258 6.0903,36.2728 C5.3463,35.4868 4.1063,35.7378 3.7953,34.3148 L4.4723,34.1858 C4.9203,34.4478 5.6683,34.8498 6.1543,34.7578 C6.7583,34.6438 7.0593,33.3898 6.5313,33.2458 C6.1093,33.1298 6.0993,33.3818 5.8143,33.5268 C5.6493,33.6118 5.2193,33.4918 5.0203,33.4958 C4.4573,33.5068 3.7333,33.1678 3.1883,33.2958 C3.0273,32.9898 2.9893,32.7328 2.9443,32.3928 C4.2163,32.0908 5.7373,32.9518 6.5613,32.0688 C6.8233,31.7868 6.8753,31.6498 6.8673,31.2598 L6.6943,31.0218 C6.2293,30.9348 5.7863,31.0548 5.4023,31.3218 C5.2483,31.1568 5.1713,30.9458 5.0313,30.7718 C4.6733,30.9338 4.2273,31.1888 3.8453,31.2578 C3.0093,31.4108 3.1593,30.9038 2.5413,30.6758 C1.2083,30.1868 -0.6317,29.5858 1.6933,28.3798 C1.8373,28.3048 2.5883,28.9568 2.9173,28.9368 C3.5013,28.9008 4.0573,26.3168 3.8273,25.9358 C3.0063,24.5718 2.0523,26.0228 1.5433,26.5628 C1.4133,26.7008 0.7033,27.1818 0.5583,26.9438 C0.3203,26.5538 0.8853,25.3268 0.9443,24.8498 C1.0133,24.3008 0.9403,23.6798 0.9123,23.1268 C1.4743,23.3258 2.6653,23.5648 2.8973,22.8008 C3.1883,21.8428 1.2973,21.9048 1.4353,20.7978 C1.5443,19.9158 3.2093,20.4378 2.9813,19.2218 C2.8573,19.0908 2.5903,19.1748 2.4303,19.0678 C2.6683,18.7458 2.9133,18.4268 3.1913,18.1388 C4.0693,18.2458 5.1463,18.4888 5.9903,18.7478 C6.3883,18.5378 6.8283,18.4298 7.2523,18.2868 C7.3333,18.5008 7.4773,18.6808 7.6033,18.8678 L8.2943,18.9048 C8.0943,18.3818 7.8543,17.8578 7.7503,17.3048 L8.1363,16.4498 C8.4853,15.7478 11.7503,16.1608 11.7893,16.1058 C11.6523,15.2878 11.3353,14.4638 11.1343,13.6548 C11.3273,13.1058 12.6493,11.6118 13.0413,10.8368 C13.5063,11.0288 13.9873,11.0208 14.4853,11.0478 C15.0603,11.6228 14.9323,13.0508 15.1113,13.7258 C15.2033,14.0678 16.0763,13.6628 16.0413,13.9908 L17.9893,14.0928 C17.9053,13.9838 17.8243,13.8378 17.7203,13.7478 C18.2043,13.6008 18.8683,13.6558 19.3673,13.6678 L19.5633,13.9448 L21.9383,13.8298 L22.5153,14.4408 L22.8243,14.1838 L21.8263,12.6728 C23.1393,11.7568 24.4803,10.9018 25.8183,10.0238 C26.0013,10.0488 26.5413,10.9388 26.6613,11.1348 L27.0703,10.8948 C27.2763,10.7758 28.3883,10.4608 28.4073,10.4418 C28.5893,10.2628 28.6533,9.9908 28.8003,9.7858 C29.3433,9.0298 30.1853,8.5018 30.9333,7.9778 C30.9273,7.7738 30.9163,7.2598 30.8303,7.0768 C31.0293,6.7758 31.5103,6.7948 31.6073,6.3638 L31.8533,6.4398 C32.5603,6.1158 33.3273,5.7618 33.9013,5.2218 L32.9433,4.3398 L32.6663,3.7708 L33.3933,3.0818 L33.8883,3.3608 C34.4313,2.9408 34.9853,2.5358 35.5213,2.1048 L35.5453,1.5508 C36.6973,0.9158 37.1213,1.8848 37.9013,1.6528 L39.0643,1.8818 L40.5243,0.4998 C40.5973,0.5708 41.1503,1.0568 40.9583,0.8018 C41.1573,0.9598 41.9843,1.4258 41.7783,1.0088 C41.9513,0.8458 42.1643,0.7168 42.3633,0.5878 C42.6923,0.9718 43.4733,1.8938 43.8633,1.9878 L44.1663,1.8918 C44.7133,2.2778 44.8683,3.0208 45.3933,3.4308 C45.7773,3.7298 47.3863,3.7378 48.3183,4.7298 C48.9093,4.1688 49.5473,3.9468 50.0183,3.2308 C51.2373,3.3238 53.1373,2.3268 54.0553,1.4218 L55.2923,1.4268 C55.6053,1.4278 58.0713,1.3538 58.1063,1.3708 C58.5063,1.5688 58.6013,2.0718 58.6363,2.4728 C58.7913,4.2418 59.2623,3.3598 60.1613,3.3558 L60.3783,3.4958 L60.4123,3.6188 C60.8383,3.2568 61.8443,0.7248 62.5273,1.5258 L62.4143,1.6918 L62.5243,2.3108 C62.5363,2.3648 63.9463,3.4268 64.0893,3.4118 L64.0833,3.5758 C64.3603,3.7868 65.8273,2.8838 66.1503,2.7148 L66.2633,2.5058 L67.5493,3.6308 L67.6783,4.2238 C68.0853,4.6428 68.4853,4.2898 68.8173,5.0098 C69.0683,4.8888 69.2963,4.7268 69.5443,4.6018 C69.5443,4.6018 69.4823,4.9858 69.7793,5.2168 C69.9263,5.0048 70.0983,5.3868 70.4873,5.4948 C70.6023,5.4688 71.3153,5.3328 71.1893,5.5278 L70.9773,5.6138 C70.8973,5.7818 70.6113,5.7938 70.4523,5.7948 C70.2883,5.9528 70.3613,6.1378 70.5023,6.2788 C70.3733,6.6158 71.9283,7.5198 72.2393,7.6188 C72.1873,7.8358 72.4733,8.3218 72.6413,8.4658 L72.5733,8.6048 C73.1313,9.1798 73.7943,9.6928 74.3193,10.2748 L74.1163,10.3608 L73.9083,10.7628 C74.2543,11.5878 74.6563,12.3908 74.9483,13.2368 L74.7313,13.2998 L74.6993,13.6108 L74.4863,13.6398 C75.2043,14.5618 76.3423,15.3258 77.2663,16.0378 C77.9593,15.9108 78.6523,15.7748 79.3513,15.6818 L81.1763,16.8528 C81.6493,18.3208 82.0123,19.6958 82.7643,21.0588 L84.4273,20.5128 L84.2713,20.1078 L85.3833,19.8078 C85.5513,20.3958 85.6713,20.9958 85.8523,21.5798 L85.6963,21.6408 L85.7833,21.9358 L85.7373,22.0948 L85.9863,22.6158 L86.6343,22.4438 C86.7093,22.6758 86.7983,22.9048 86.8553,23.1428 L87.4743,22.9958 L89.8963,25.4108 C89.7033,25.7988 89.5763,26.2148 89.4213,26.6188 L89.6253,26.9068 L89.7403,26.8638 L90.0183,27.8448 C90.3213,27.7528 90.6303,27.6848 90.9393,27.6178 C91.2433,28.2878 91.4233,29.0078 91.5883,29.7208 L91.3913,29.7638 L91.5073,30.2118 L91.7103,30.1628 L91.8933,30.8838 C92.1773,30.7448 92.3913,30.9738 92.6613,30.9038 L92.7243,30.7818 C93.6943,30.4288 94.4363,30.5428 95.4333,30.5908 C95.6433,29.8368 95.8083,29.0688 96.0223,28.3158 L97.9043,29.1018 C97.7923,29.7118 97.6473,30.3218 97.6173,30.9438 L97.2173,30.9998 C96.7743,32.0148 96.9693,33.1338 96.8593,34.2048 L96.9253,34.3608 L96.6293,35.2298 L96.9733,35.5898 C96.8563,36.2948 96.8443,36.6018 97.1323,37.2728 C95.5733,38.6608 96.4823,38.8438 95.1313,40.4228 C95.2583,41.0968 95.3693,41.7798 95.3943,42.4658 C95.7603,42.3508 96.1333,42.2588 96.5033,42.1568 C96.7573,42.6108 97.1763,43.0198 97.4773,43.4608 L97.3703,43.6288 L97.9993,44.6188 L97.8253,44.7248 C97.9903,45.0718 98.2243,45.3818 98.4353,45.7028 C98.3703,45.7358 98.1973,45.8008 98.1503,45.8478 C98.0443,45.9508 97.9383,46.1528 97.8503,46.2778 C97.0043,47.4828 96.4963,47.5378 95.2653,48.1918 C95.3763,48.4218 95.3463,49.0248 95.3463,49.0248 L95.3613,49.6048 C97.5323,49.7168 98.2493,49.0738 100.1663,50.6888 C100.4253,50.9068 100.7033,51.8028 100.8023,51.8748 C100.8023,51.8748 100.1873,52.3868 100.0663,52.5938 L100.0993,52.8638 C100.3033,53.0938 101.2503,53.9078 101.5453,53.8078 L101.7863,53.9438 C102.0993,53.9008 102.4173,53.8928 102.7333,53.8738 C102.7813,54.1048 102.8593,54.3278 102.9213,54.5548 C103.0313,54.5798 103.1563,54.6388 103.2363,54.7188 C103.1833,54.8478 103.2173,55.5998 103.2173,55.5998 L103.2733,56.0218 C103.5553,56.0608 103.8423,56.0788 104.1263,56.0848 C104.1443,56.3748 104.2313,56.6628 104.2523,56.9578 C104.7603,57.3648 105.2303,57.6928 105.7953,58.0418 C106.1713,58.2738 105.8083,59.1188 107.1683,59.1308 L107.4953,60.3228 C108.2883,60.1988 109.0713,60.0258 109.8463,59.8218 L109.7493,61.1638 C110.0503,61.1818 110.4133,60.9438 110.6673,60.8008 C110.9043,61.3118 111.1793,61.7948 111.4413,62.2918 L112.2353,61.9528 C112.4693,62.0628 112.7743,61.7028 113.0193,61.6928 L113.8513,61.6758 C113.9933,61.4968 114.1353,61.3178 114.3033,61.1638 L114.0753,60.8928 C114.2983,60.7238 114.4983,60.5138 114.6903,60.3118 C114.6903,60.3118 115.2523,60.4328 115.3863,60.2768 C115.4643,60.4048 115.6173,60.5208 115.7563,60.5698 L115.7463,60.9098 C115.3713,61.1388 116.0983,62.4458 116.1213,62.8848 C116.3743,63.2088 116.7343,63.4128 117.0133,63.7088 L116.6923,64.4458 C116.9543,64.7838 117.1873,65.1458 117.4933,65.4478 L117.7053,65.3098 C118.9583,65.4708 119.5953,66.6788 120.3333,66.8698 L120.5893,66.6108 L120.5733,66.5068 L121.0843,65.9318 C121.4973,66.1798 122.4883,66.1388 122.4883,66.1388 L122.7443,66.4098 C122.9423,66.5068 123.4143,66.6508 123.4143,66.6508 C123.8213,66.8078 124.1253,67.1488 124.4533,67.4228 C124.6063,67.3308 124.7553,67.2318 124.9163,67.1518 C125.3333,67.3398 125.7653,67.4958 126.1893,67.6698 C126.3223,67.4378 126.4833,67.2188 126.5813,66.9678 L126.9343,67.2158 L127.2993,67.6988 C127.9173,67.7128 128.1343,68.7088 128.4863,68.8568 C129.1243,69.1268 129.8573,69.2948 130.5223,69.5038 C130.7433,69.8848 130.7763,70.6988 131.1683,70.9178 L131.3423,70.8948 C131.5893,71.0178 131.8243,71.0848 132.0883,70.9698 C132.4003,71.4688 133.0123,72.6748 132.7083,73.2438 C132.3403,73.4628 131.6903,73.9808 131.3573,74.1238 C131.0663,74.2478 130.6903,73.9338 130.4833,74.3038 L130.3463,74.3038 C130.1873,74.5678 130.2493,74.9378 129.9773,75.1388 C129.7213,75.7338 130.3093,75.9398 130.5423,76.3818 C130.3553,76.5238 130.0583,76.7658 130.0473,77.0158 C129.6673,77.3168 129.3493,77.9328 129.2043,78.3918 C128.9383,78.3938 128.4973,79.0858 128.9163,79.1748 C129.0013,79.4308 129.1323,79.6688 129.2203,79.9228 C128.6843,80.1108 128.0863,80.1628 127.5773,80.4188 L127.4083,80.3098 C127.1653,80.2658 126.9053,80.2938 126.6783,80.1768 L126.4723,80.6428 L125.9713,80.8908 C125.9713,80.8908 125.1513,80.8058 125.0573,80.9078 C124.8323,80.9138 124.6153,81.1468 124.5623,81.3288 C124.7123,81.6458 124.9863,81.9878 125.2373,82.3478 L125.5143,82.6408 C125.7773,82.6988 126.4473,83.1998 126.6903,83.3598 L127.1203,83.7578 L126.7603,84.2988 C127.2133,84.7918 127.7873,85.1548 128.3383,85.5248 L128.6813,85.4038 C130.0833,85.6988 131.1163,86.2768 132.3283,87.0738 C132.7233,86.7678 133.3743,87.3668 133.6993,87.5688 L133.6833,87.7188 L133.9993,88.0468 L133.8893,88.4728 C134.0043,88.7428 134.2373,88.9858 134.2873,89.2788 L134.2163,89.4178 C134.3383,89.6188 134.3273,90.2058 134.3463,90.4598 C133.4873,90.7368 132.7773,90.8648 131.9093,91.0588 C131.7763,91.2898 131.5353,91.3988 131.3593,91.5878 C131.1903,91.6168 131.0003,91.6188 130.8313,91.5878 L130.5593,91.7668 C130.2973,91.7088 129.5873,91.6108 129.3833,91.8068 L129.3563,91.6458 L129.0023,91.4438 L128.6113,91.4788 C128.6803,91.6528 128.4023,91.7268 128.2953,91.8358 C128.1503,91.8308 128.0803,91.7398 127.9253,91.7778 C127.3423,91.3808 127.3353,91.8138 126.8153,91.8248 L126.7443,91.9338 C126.4383,91.9488 126.0603,91.7828 125.8403,91.8068 L125.6333,92.0488 C125.4483,91.9708 124.8613,91.9618 124.8613,91.9618 C124.7253,92.1528 124.6583,92.6188 124.5013,92.7058 L124.4973,93.0108 C124.4973,93.0108 124.4103,93.4308 124.3553,93.5628 L124.1053,93.9198 L124.5623,94.3978 C124.5623,94.3978 124.3613,94.6278 124.2573,94.6968 C124.2593,94.8408 124.3023,94.9918 124.3823,95.1118 C126.5713,96.0818 125.3913,97.6728 126.3143,98.1058 C127.7923,98.7988 133.8333,97.7298 135.7613,99.4068 C135.9513,99.5718 136.1773,100.0508 136.2953,100.2828 C136.5193,100.7248 136.8953,101.3658 136.9693,101.8488 C137.1663,103.1378 136.4733,105.8418 138.0953,106.4758 C138.7883,106.7458 139.8123,105.9098 140.6443,105.9618 C141.3133,106.0038 141.7153,106.6958 142.3843,106.7588 C143.1763,106.8328 143.8453,106.2948 144.6203,106.2568 C145.6703,106.2058 145.9863,106.6768 146.8683,106.8768 C147.3433,106.9838 147.7873,106.6558 148.2623,106.6758 C149.1163,106.7118 149.8843,107.3258 150.6603,107.3598 C151.8813,107.4148 151.5703,106.7628 152.8743,107.6678 C153.7763,108.2928 154.6173,107.9658 155.6063,108.1158 C156.4203,108.8098 155.9033,109.1458 156.3033,109.8268 C156.5373,110.2228 156.9633,110.4208 157.2463,110.7708 C157.3983,110.9588 157.5243,111.2488 157.4803,111.4908 C157.3923,111.9628 157.2943,113.3258 157.6423,113.6798 C157.7913,114.7978 158.7313,114.8478 159.4373,115.4848 C159.9903,115.9838 159.7893,116.3008 160.0623,116.8718 C160.3593,117.4908 160.6533,117.4768 161.1303,117.8688 C162.4693,118.9648 162.1653,119.0458 164.0093,119.0848 C165.7463,119.1208 165.1863,117.2688 165.9443,116.4628 C166.3703,116.0098 166.4263,115.3478 166.6753,114.8038 C167.3063,113.4308 168.4163,112.1788 169.0753,110.8508 C169.4523,110.0908 169.4063,109.2068 169.7443,108.5508 C169.8423,108.3588 170.1113,108.4758 170.2493,108.3428 L170.8883,107.7288 C171.6053,107.0398 170.2323,106.8988 172.4983,105.2878 C172.9713,104.9508 173.8323,105.8858 175.2953,104.9918 C177.3763,103.7198 175.2573,103.3358 179.1233,102.5018 C179.9893,102.9188 183.7333,107.1708 184.7973,108.1968 C185.0783,108.4668 185.4773,108.5638 185.7983,108.7738 C188.4703,110.5168 188.7873,108.0238 189.9243,109.9428 C190.3333,110.1298 190.8243,110.1078 191.2063,110.3568 C191.6093,110.6178 191.7533,111.1858 192.0813,111.5318 C193.6363,113.1788 194.9513,114.3848 192.2733,115.4898 C191.6763,115.7358 191.1123,116.2128 190.4413,116.2288 C189.2623,116.2558 187.9603,113.2328 185.3473,113.8368 C182.9743,114.3848 184.7113,116.4148 182.7843,118.4758 C181.3063,120.0568 179.0613,117.5818 178.6633,119.2208 C178.4863,119.9488 178.7123,120.0648 178.9293,120.7148 C179.3583,121.9938 179.9483,121.9088 180.7713,122.7268 C180.9233,122.8778 180.7603,125.0488 180.8593,125.4858 C180.9353,125.8218 181.2273,126.0488 181.3523,126.3628 C181.6243,127.0388 181.6453,127.8618 182.0493,128.4808 C182.3293,128.9098 182.7523,129.2078 183.0753,129.6008 C183.3223,129.9008 183.4313,130.2798 183.6563,130.5928 C184.0163,131.0948 184.6523,131.1368 185.2033,131.2778 C185.8213,131.4358 186.4233,131.6818 187.0623,131.7478 C189.2543,131.9718 189.9983,132.1758 189.9973,134.6548 C189.4053,135.1238 189.0993,136.4008 189.5063,137.0378 C189.2963,137.1308 189.1913,137.0468 188.9713,137.1328 C188.8793,137.2648 188.6993,137.4658 188.5363,137.5128 L188.0903,137.8098 C187.8703,138.1558 188.1353,138.4038 187.5533,138.7888 C187.7653,138.8038 187.9643,138.9118 187.8383,139.1488 C187.5413,139.7098 187.5323,139.7158 187.5323,139.7158 C187.4973,140.0118 186.9393,139.7698 187.1133,139.9918 L186.3883,140.4858 C186.4783,140.5658 186.5593,140.6798 186.6053,140.7918 L187.1373,141.0078 C187.0693,141.2058 186.9963,141.5688 187.0603,141.7788 L186.8283,141.8398 C186.6253,142.3848 186.1733,144.0888 186.2773,144.6458 C186.3983,145.2948 186.5823,144.6878 186.6963,145.9218 L186.6533,146.4048 C186.2923,146.6198 186.7693,146.8488 186.9653,146.9138 C186.6953,147.1458 186.6293,147.2548 186.8033,147.5808 C186.2013,147.6988 185.5043,147.6068 184.8843,147.6708 L184.8093,148.1828 C184.4433,148.3178 183.9983,147.7788 183.6553,148.0768 C183.3293,148.3598 182.4693,148.1518 182.3403,148.5258 L182.8743,149.0458 L182.9493,149.6068 C182.8143,149.7228 182.7433,150.0038 182.7363,150.1718 L182.3393,150.5118 C181.6583,150.9698 180.6593,150.3958 179.9903,150.4758 C179.6753,150.5138 179.4843,150.8248 179.1663,150.8558 C178.7623,150.8958 178.3813,150.6848 177.9723,150.7668 L177.9183,151.1688 C177.4993,151.3368 175.9423,151.4038 176.4233,151.9658 L176.2593,152.8588 C176.2663,152.9588 176.3053,153.3038 176.4413,153.3428 C176.2343,153.9728 176.6453,154.5498 176.1563,155.5048 C176.1063,155.6018 176.3453,155.9758 176.2813,156.1708 C176.1233,156.6488 174.7853,156.5138 175.5293,157.6888 L175.4763,157.9138 C175.7333,158.2388 174.8793,161.8988 174.8473,162.5838 C174.8193,163.1688 174.1993,163.8118 173.9023,164.2028 C173.8603,164.2588 173.7583,164.9598 173.7383,165.0728 C174.2813,166.3698 174.6593,167.5358 175.6133,168.5738 C175.7323,168.5738 175.8803,168.5628 175.9953,168.6068 C175.7933,169.2398 175.9973,170.1498 175.6933,170.6098 C175.7353,170.7748 175.8843,170.9238 176.0023,171.0408 C176.1473,171.6768 176.2693,172.2738 176.2783,172.9188 C176.2803,173.0898 176.7803,173.5418 176.8873,173.7208 C177.0033,173.9108 176.9383,174.0188 177.1483,174.1818 C177.3593,174.3438 177.6523,174.3478 177.8633,174.5058 C178.2153,174.7718 178.3433,175.2188 178.7783,175.4888 C179.0513,175.6598 179.4093,175.5338 179.6853,175.6848 C180.0293,175.8728 179.9373,176.1458 180.0343,176.4598 C180.7843,176.8298 180.3013,177.4818 179.9003,177.8788 C180.4483,178.5908 180.6663,179.3828 180.1933,180.1488 C180.2143,180.3928 180.4233,180.6038 180.6283,180.7158 C180.7363,180.9778 180.2973,181.5368 180.2613,181.8128 C180.1303,182.8258 180.8723,183.1168 180.9573,183.8218 C181.0273,184.4078 180.8233,184.7898 181.1193,185.4368 C181.1613,185.5268 181.4083,185.7718 181.4803,185.8658 C181.5823,185.9998 181.4423,186.2388 181.7293,186.5228 C182.3143,187.1008 181.8393,187.0168 182.0753,187.5398 C182.1653,187.7398 182.3813,188.4518 182.6243,188.6498 C182.8773,188.8578 183.2223,189.0058 183.4993,189.2018 C183.5933,189.2698 184.3043,188.8868 184.5713,189.0878 C184.9863,189.3998 185.2593,190.1858 185.2913,190.6738 C185.7853,191.2078 186.4663,191.2998 187.1533,191.4918 C187.3203,191.4458 187.4613,191.3128 187.5773,191.1898 L188.7063,191.6588 C188.7003,192.4388 189.1813,192.3558 189.0703,193.2288 C190.1993,194.5398 189.7533,193.3168 190.6213,193.9048 L191.7563,193.7518 C191.8453,193.7398 192.3123,194.1968 192.4523,194.2608 C192.6363,194.3438 192.8413,194.2728 193.0213,194.3838 C193.4183,194.6308 193.5143,194.8408 194.0193,195.0438 C194.0363,196.2478 194.0443,195.7478 194.6903,196.3798 C195.0453,196.7278 195.2453,197.1968 195.6073,197.5578 C195.9823,197.9298 196.6943,197.8248 196.9553,198.2938 C197.4893,199.2498 196.6103,199.0598 197.8763,200.6128 C197.9083,200.8988 197.7033,201.1618 197.7893,201.4488 C198.0993,202.4748 198.4103,201.8218 198.7043,202.2098 C198.8143,202.3568 198.8643,202.4978 199.0343,202.5988 L199.0583,203.4258 C199.0613,203.5428 200.1103,204.9758 200.3033,205.1048 C200.4903,205.5908 200.4023,205.5488 200.9543,205.8258 C201.6683,206.1848 202.0363,206.5008 202.6333,207.1008 C203.7623,206.4298 204.2593,207.2438 204.6213,207.1098 C204.9063,207.3418 205.3743,207.7178 205.7193,207.8158 C205.766729,207.9178 205.7723,208.0568 205.7623,208.1658 C205.5573,208.3798 204.8493,209.3278 204.7823,209.5778 C205.4383,209.8738 205.2943,210.5878 205.1733,211.2158 C205.4123,211.6438 204.9373,212.2868 204.7213,212.6428 C204.7583,213.8388 203.7713,213.9358 203.0713,214.7058 C202.4033,214.8328 201.8533,215.0098 201.4113,215.5588 C201.3953,216.0818 200.9133,216.8578 200.9453,217.2468 C200.4193,217.4908 200.4423,217.9688 200.4333,218.4678 L199.3603,219.1088 C197.8093,220.0078 198.0123,221.1718 197.7163,221.3748 C197.2993,221.6608 196.1093,222.1098 195.5883,222.2818 C194.4753,222.6488 195.4393,224.7078 194.8193,224.8458 L194.6423,224.7608 C193.6783,225.1778 195.1903,225.5978 194.4643,226.8148 C194.3023,226.8568 194.1183,226.9738 194.0983,227.1538 C193.9023,227.2518 193.7633,227.8348 193.7193,228.0478 C193.4493,228.2078 193.4793,228.2448 193.3713,228.5258 C193.1113,229.1988 191.9453,228.9478 191.3803,229.4238 C191.1983,229.3118 191.0573,229.0998 190.9363,228.9268 C190.7693,229.0088 190.3913,229.7568 189.9143,230.1108 L189.9713,230.2828 C189.6593,230.9398 189.4573,230.1908 189.3813,229.8618 C189.1443,229.7098 188.9613,229.4738 188.7063,229.3508 C188.0823,229.0508 187.9123,230.1438 187.1963,228.9818 L186.8753,228.4718 C186.3623,228.3398 186.0353,228.9938 185.7653,228.5118 L185.0973,228.7018 C184.6283,230.0538 184.5383,228.9878 184.6053,230.6408 C184.1363,230.0718 182.6323,229.8788 182.8613,229.0478 C182.5553,229.3118 182.2173,229.5198 182.0043,229.8738 C181.8813,230.0798 181.7933,230.3028 181.8243,230.5458 C181.8313,230.6058 181.9053,230.8508 181.8533,230.8958 C181.1633,231.4998 180.7633,231.5438 180.4603,231.8208 C180.2873,231.9808 179.5373,233.0478 179.2863,232.7978 L179.1173,232.6218 C178.9213,232.7648 178.1123,233.2948 177.8603,233.2118 L177.7593,233.3878 C177.8213,233.7618 177.7473,234.1648 177.8263,234.5188 C177.9023,234.8608 178.2303,234.6348 178.3173,235.1678 C179.0953,235.6738 178.3203,236.2028 179.5803,237.1668 C179.6113,238.3378 180.6953,238.3938 180.8833,239.1198 C180.6503,239.4818 180.5173,239.8368 180.6353,240.2668 L180.1223,240.3568 C179.9973,240.8088 179.9493,240.8248 179.6003,241.1178 C179.5443,241.3588 179.4973,241.6388 179.3723,241.8548 C179.7623,242.2788 179.0593,242.5578 178.7273,242.5938 C178.6523,242.9868 179.3153,243.1258 179.5573,243.4818 C179.3993,244.1688 179.3143,244.5208 178.7333,244.9698 C178.8413,245.0958 178.4963,245.5488 178.4963,245.5488 C178.8563,245.8908 179.5023,245.7718 179.0003,246.5478 L178.7023,246.5958 C178.7883,246.7648 178.3333,248.5678 178.2503,248.9718 C178.3423,249.1558 177.9763,249.4348 177.8573,249.5358 C177.7103,250.0348 177.8403,250.6358 177.7473,251.1418 C177.7223,251.2738 177.8513,251.1178 177.8883,251.1028 C178.2043,250.9688 179.1403,251.2248 179.3373,251.4848 C180.3753,252.8608 182.5363,254.1888 183.4373,255.6768 C183.1083,256.0978 183.3513,256.7048 183.6633,257.0658 L183.5383,257.3208 C182.3363,259.3488 183.0673,258.6338 182.4273,260.3898 C182.3673,260.5558 182.6893,260.6518 182.4933,261.0188 C182.5553,261.2588 182.2903,261.4308 182.1633,261.5928 C181.9353,261.8838 181.8863,262.0948 181.8873,262.4458 C181.8903,263.6258 181.1273,262.8708 180.5643,262.8708 C180.1773,262.8708 180.1753,263.1348 179.6763,263.0098 C179.7243,263.2028 179.7993,263.3918 179.8723,263.5768 C179.6853,264.4958 179.1643,263.9208 179.1913,264.6778 C178.2523,265.9868 179.5413,266.0398 178.4793,267.3338 C177.8893,267.3138 177.7003,267.9158 177.4723,267.9188 L177.0553,267.1918 C176.8503,267.8688 176.3193,267.1828 176.0603,267.2798 C175.9843,267.4088 175.9063,267.5458 175.8553,267.6888 C175.2393,267.6628 175.3803,268.0658 174.7213,267.8868 L174.1763,267.8508 C174.2203,268.0578 173.9853,268.5288 173.8823,268.6918 C173.5853,268.4468 173.2573,268.2738 172.8863,268.1778 C172.8183,268.1598 172.6583,268.1448 172.6133,268.0808 C172.2063,267.5198 170.8013,266.5748 170.5563,266.0908 C170.3703,265.7228 170.7433,265.3818 170.8473,265.0668 C170.9593,264.7298 171.0653,264.5338 171.4003,264.3828 C169.6133,264.3788 170.0643,265.1698 169.5233,265.2648 C169.3673,265.2918 169.2813,264.9478 169.0773,264.8998 C168.6023,265.3658 168.3563,264.9378 168.3063,265.7928 C168.1843,265.9668 168.0003,266.2458 168.1723,266.2028 C168.2613,266.3248 167.6223,266.8928 167.5043,266.8998 L166.2893,266.9838 C166.2633,266.5838 165.3753,267.0938 165.1683,267.1768 C165.0183,267.4108 165.2863,268.1498 164.7913,268.0748 L164.3493,268.6888 L164.1243,268.5368 C163.9873,268.1828 163.5633,268.3348 163.2903,267.9708 C163.0833,268.5778 162.7133,269.4648 162.1113,268.6328 C161.8883,268.3258 161.8443,268.7528 161.6193,268.8078 L161.2623,268.6678 C161.1753,268.8788 161.0433,269.2388 160.8843,269.3958 C160.4993,269.3578 160.1023,269.2898 159.7153,269.3038 C159.4733,270.2588 158.7983,269.0828 158.6233,269.0208 C158.0383,268.8138 158.0663,269.6378 157.7193,269.6378 C157.3583,269.6378 157.0173,268.9578 156.5323,268.7648 L156.4633,268.5278 L156.0003,268.2318 C156.1023,268.0788 155.4903,267.9398 155.3903,267.7798 C155.1293,267.7828 153.6623,266.7078 153.5363,266.5088 L153.3473,266.4468 C152.7373,266.6128 152.9703,268.1428 152.8213,268.6848 C152.7193,269.0488 151.4963,269.3328 151.1483,269.3698 C150.3533,269.4528 150.4113,268.9188 150.1313,268.8088 C149.9133,269.2718 149.4823,267.7608 148.6463,267.7768 L148.3043,267.7848 C147.8503,267.8278 148.1213,268.5408 148.0183,268.7928 C147.9463,268.9708 147.7663,269.0388 147.6583,269.1878 C146.9453,270.1598 147.1643,270.6058 145.8263,269.7318 C145.7573,270.3758 145.7213,270.9808 144.9413,271.0388 C144.7123,271.3088 144.7103,272.1608 144.3903,272.4018 C144.0623,272.6498 142.9813,271.9408 142.6483,272.0348 C142.2393,272.5148 141.9583,273.7128 141.5003,273.7648 L141.4393,274.1608 C141.2693,274.3028 141.0333,274.2108 140.9593,274.0178 C140.7793,273.5368 139.6523,273.3158 139.1823,273.0598 C139.0313,272.9768 138.4133,273.0668 138.1583,272.9958 L138.0723,272.7918 C137.7613,272.5858 137.3103,272.5188 136.9653,272.3508 L136.3073,272.6388 C135.6033,271.4248 134.6863,273.4478 134.0703,273.4758 C133.6623,272.8438 133.4723,273.5188 133.1373,273.6588 C132.3453,273.9928 132.3383,271.9318 131.7793,271.4648 C131.4903,271.2238 131.0713,271.5818 130.8893,271.4518 C130.6113,271.2518 130.6993,270.7738 130.2233,270.8718 C129.4173,271.0368 130.1643,271.4528 129.6403,271.5958 C129.1303,271.7328 129.1003,271.1788 128.7533,271.1958 C128.1453,271.2258 128.7923,271.6288 128.7063,271.8638 C128.6043,272.1348 128.1813,272.3578 128.1313,272.6458 C128.0813,272.9438 129.3873,274.2428 128.4443,274.5908 C127.7093,274.8618 127.3063,273.4638 126.8703,273.3428 C126.7753,273.3158 125.4213,273.3208 125.6393,273.8288 C124.9983,274.4398 125.3203,274.3908 125.0113,274.8018 C124.6533,275.2788 124.3763,274.8118 124.0303,275.7078 C123.5343,276.9948 123.4003,275.6448 123.0413,276.4408 C122.9423,276.6608 123.2383,276.9918 123.1413,277.3098 C122.9903,277.8098 122.5333,278.0658 122.3233,278.5108 C122.1633,278.8508 122.4333,278.9148 122.4223,279.1988 C122.1283,279.5748 121.8923,279.8628 121.7163,280.3138 L121.3853,280.5268 C121.4423,280.6678 121.6993,281.1038 121.6993,281.1038 C122.2203,281.5308 121.9113,281.4848 122.1253,281.9068 C122.2903,281.8508 122.4883,282.6538 122.6333,282.8668 C122.5813,283.0208 121.8723,283.4548 121.7793,283.2868 C121.6633,283.0768 121.2383,282.9598 121.2043,283.2048 C120.5263,283.1828 120.4903,283.3248 120.0343,283.8048 C119.5403,283.7468 119.1203,284.0098 118.9463,283.9788 C118.3273,283.8668 118.4423,283.5088 117.6143,283.6998 C117.6463,283.1188 117.1923,283.0448 117.1733,282.5658 C117.1613,282.2248 117.3243,281.7208 117.3343,281.3338 C117.3443,280.9898 116.6633,280.5438 116.5023,280.2228 C116.4003,280.0178 116.2633,279.3488 116.1473,279.2358 L115.6413,278.7718 C115.6163,278.6168 115.5343,278.3578 115.4043,278.2548 C115.4953,277.7078 115.1453,277.8848 115.0503,277.5158 C115.0023,277.3268 115.0273,276.8208 114.8803,276.7048 C114.5643,276.4558 113.2613,276.5008 112.8933,276.3638 C112.7083,276.2948 112.7083,276.1218 112.5843,275.9968 C112.3303,276.0528 112.0993,276.0478 111.8453,276.0598 C111.7443,276.0648 110.9413,277.0798 110.6923,277.2358 C110.3583,277.4458 109.9363,277.4268 109.6943,277.7798 C109.4593,278.1228 109.3563,278.5708 109.0433,278.8588 L108.8093,278.8418 C108.5593,279.1228 108.1393,279.4248 107.9943,279.7568 C107.7293,279.8878 107.4273,279.7948 107.1563,279.8878 C106.8573,280.3088 106.2743,280.3398 105.8593,280.6438 C105.3053,280.5798 105.4583,280.7868 105.1223,280.8418 C104.7183,280.9068 104.2973,280.6348 103.9023,280.7728 C103.6493,280.8598 103.3383,281.3178 103.0863,281.4828 L102.7333,281.4358 C102.7623,281.5798 102.6603,281.7978 102.5623,281.8978 C102.6413,282.2918 101.8743,282.7928 101.6303,283.0998 C101.0843,283.7868 100.6443,283.7088 99.7673,283.4118 C99.3613,283.5828 99.3193,283.4008 99.0063,283.4728 C98.7273,283.5358 98.8103,284.3638 98.1273,284.4798 C97.7803,284.5378 97.2843,284.7118 96.9423,284.6488 C96.7583,284.6128 96.6163,284.4818 96.4203,284.5408 L96.0343,285.0028 C96.0113,285.1078 96.0403,285.2538 96.1053,285.3418 C95.7403,285.8078 95.2963,286.3538 94.7663,286.5998 C94.6753,286.8488 94.8873,287.1458 95.0533,287.3158 C94.9173,287.7658 94.4683,288.0358 94.2843,288.4608 C94.3493,288.7918 94.2943,291.4048 94.3363,291.4568 C94.7333,291.9448 94.9573,292.4818 95.2153,293.0648 C95.4263,293.5388 94.5533,293.8058 94.6183,294.0658 C94.7193,294.4758 95.3623,295.1148 95.6923,295.3808 C95.7903,295.4588 96.1783,295.5858 96.1223,295.7638 C94.7123,296.3588 95.2483,296.5888 94.4043,297.4748 C94.1993,297.6898 93.9993,297.5238 93.8003,297.9098 C93.6953,298.1158 93.7843,298.6028 93.6673,298.7298 C93.5033,298.9088 93.0333,299.0548 93.0333,299.0548 C92.5983,299.2678 92.2533,299.5148 91.8623,299.8058 C91.2043,299.8318 91.2713,300.5948 90.8573,299.6778 C90.0563,297.9048 88.7913,299.8298 88.0343,300.4998 C87.7653,300.4518 86.7213,299.0898 86.6043,298.7948 Z" id="Stroke-3" stroke="#E75F52" stroke-linecap="round" stroke-linejoin="round"></path>
        </g>
    </g>
</svg>