<?xml version="1.0" encoding="UTF-8"?>
<svg width="237px" height="301px" viewBox="0 0 237 301" version="1.1" xmlns="http://www.w3.org/2000/svg" xmlns:xlink="http://www.w3.org/1999/xlink">
    <!-- Generator: Sketch 64 (93537) - https://sketch.com -->
    <title>281</title>
    <desc>Created with Sketch.</desc>
    <g id="281" stroke="none" stroke-width="1" fill="none" fill-rule="evenodd">
        <g id="Group-4">
            <path d="M14.9841,26.2228 L3.0661,38.0218 L3.9221,38.4348 L4.5711,38.9658 L4.9541,39.6448 L4.9251,40.5588 L4.9541,40.9428 L5.1901,41.2668 L5.5441,41.5908 L5.7811,41.9148 L5.8691,42.2398 L5.8691,42.5948 L5.8091,43.2738 L5.6921,43.6858 L5.5441,43.9808 L5.5441,44.2758 L5.7811,44.7478 L6.1341,45.0728 L6.5471,45.3678 L6.9011,45.6918 L6.9611,46.1628 L6.6651,46.9298 L6.2821,47.6098 L6.2221,48.1098 L6.9311,48.3758 L7.4021,48.2878 L8.5541,47.8748 L9.1431,47.8748 L9.7921,48.1988 L9.8501,48.6118 L9.5261,48.9958 L8.1401,49.7328 L8.1991,49.9098 L8.6421,50.0578 L9.0251,50.5288 L8.4351,50.8838 L8.2291,51.1198 L8.6121,51.2668 L8.8481,51.2378 L9.3791,51.1198 L9.9401,51.0898 L10.5291,50.9128 L10.8541,50.8838 L10.8541,51.0308 L11.5031,51.8858 L11.9751,53.0658 L12.2991,53.2718 L12.4471,53.1248 L12.5651,52.8598 L12.8901,52.5648 L13.6851,52.3288 L14.2161,52.5348 L15.1601,53.5678 L15.7211,53.8628 L16.2821,54.0398 L16.6951,54.3048 L16.9011,54.9248 L16.8431,57.3138 L16.5471,58.4938 L15.9871,59.3498 L15.7211,59.4668 L15.4261,59.5558 L15.1601,59.6738 L14.9841,59.9398 L15.0131,60.2648 L15.3671,60.8838 L15.4851,61.2078 L15.4561,61.5028 L15.1601,62.2108 L15.0721,62.5348 L15.1311,62.8898 L15.3671,63.2138 L15.6631,63.5088 L15.8691,63.8328 L16.2521,65.0128 L16.5471,68.6418 L16.8711,69.3198 L17.4621,69.7038 L18.8771,70.0868 L19.4981,70.4998 L19.8211,71.1188 L20.6771,75.6028 L20.9721,76.1048 L21.9161,77.1368 L22.3591,77.8448 L22.6241,78.1398 L23.0371,78.2288 L23.2141,78.1688 L23.5391,77.9038 L23.6561,77.8448 L23.7461,77.7868 L23.8621,77.5498 L23.9521,77.5208 L24.0691,77.5798 L24.1281,77.6678 L24.1581,77.7868 L24.2171,77.8148 L24.2761,77.9038 L25.1321,78.3168 L25.2791,78.3458 L25.4851,78.5818 L25.6031,78.8488 L26.1941,80.7058 L26.6351,83.2728 L27.8751,85.8688 L28.1701,86.1338 L28.5821,86.1638 L28.8191,85.9568 L28.9951,85.6908 L29.2621,85.6628 L29.5561,86.0758 L29.7331,87.5208 L29.9101,88.0808 L30.7071,88.9068 L30.9721,89.4078 L30.9131,90.0868 L30.4701,90.6178 L29.8811,90.9428 L29.3501,91.3558 L29.0841,92.0928 L29.2611,93.2428 L32.2691,100.4998 L32.2691,101.0608 L32.0051,102.3878 L31.9451,102.9478 L32.0051,103.5678 L32.1231,104.1578 L32.3291,104.6888 L32.5941,104.9838 L33.2731,105.6328 L33.4201,105.9578 L33.3031,106.2818 L32.7721,106.9598 L32.6241,107.3148 L32.5941,113.0668 L32.4171,113.7158 L31.5031,115.6918 L31.2671,116.0158 L30.9721,116.3108 L30.6771,116.4288 L30.0571,116.5768 L29.7621,116.7238 L29.0841,117.7268 L28.4651,120.1158 L26.7241,121.5318 L26.8131,122.5938 L27.3441,123.7738 L27.6391,124.9538 L27.2851,126.1638 L26.3401,126.5768 L23.9221,126.8418 L23.3031,127.1968 L22.2991,128.1698 L20.8541,128.4938 L20.6481,129.0538 L20.6181,129.7038 L20.4701,129.9688 L20.2931,130.2338 L19.6741,130.3528 L19.2021,130.0868 L18.7001,129.9688 L18.1111,130.5588 L17.8151,131.0898 L17.5801,131.7088 L17.4031,132.3278 L17.4031,133.6558 L17.2261,134.2458 L16.4591,136.1348 L15.6031,137.2548 L15.1911,138.4348 L14.6891,138.9068 L12.7711,139.8508 L12.5361,140.0868 L12.3581,141.1478 L11.8861,142.4168 L11.1781,143.1838 L10.2351,143.6558 L9.0251,144.0988 L8.1401,144.6888 L7.6381,145.6028 L6.9011,148.6118 L6.8131,148.8778 L6.6061,149.1728 L6.1051,149.7618 L5.9571,150.0278 L6.0161,150.5888 L6.3411,151.6508 L6.2521,152.2698 L5.9871,152.6528 L4.9251,153.4788 L0.5881,159.2608 L0.5001,159.8508 L1.9461,164.6288 L2.3281,165.9268 L2.3591,167.0488 L0.6471,182.0628 L0.9131,192.0628 L3.1541,192.0628 L3.2731,192.0628 L3.7451,192.0628 L3.8031,192.8598 L4.1871,193.0958 L5.2781,193.1848 L24.9541,204.1568 L111.2671,252.3578 L111.7091,253.0658 L112.2991,256.6648 L112.8891,260.2638 L112.3581,260.3228 L112.0631,260.5588 L111.9461,260.9718 L112.0041,261.5028 L111.4431,261.5318 L110.7361,261.9158 L110.0871,262.4468 L109.6441,262.9188 L109.4971,263.1848 L109.3491,263.5088 L109.2911,263.8628 L109.3201,264.1578 L109.5261,264.3648 L110.0281,264.4528 L110.1751,264.6598 L110.0571,265.1608 L109.8221,265.7208 L109.9101,266.1338 L111.3251,266.0458 L111.9461,266.1038 L112.5651,266.2818 L113.1251,266.5468 L113.5381,266.9308 L113.7741,267.3728 L114.2761,269.2008 L114.5701,269.7918 L114.9831,270.3228 L156.8721,300.4998 L156.9601,300.3528 L157.0481,300.3218 L157.1661,300.2928 L157.2851,300.2638 L157.8741,299.8508 L158.4051,298.9948 L159.0541,298.4048 L159.9101,298.6408 L160.0861,298.2278 L160.1161,298.0508 L160.8241,298.9068 L161.9461,299.2018 L162.9191,299.0538 L163.2431,298.6408 L162.7711,297.9918 L162.7131,297.7568 L162.8011,297.3428 L162.9781,297.3138 L163.1841,297.4318 L163.3321,297.4608 L163.5681,296.9898 L163.7451,296.5468 L163.9511,296.1338 L164.3341,295.8388 L164.4531,296.2518 L164.3641,297.1078 L164.5411,297.6668 L165.5441,294.6298 L165.6331,294.5108 L166.0451,294.1278 L166.1631,293.9498 L166.1341,293.5678 L166.1631,293.4198 L166.4001,293.0948 L166.6661,292.8298 L166.9011,292.7998 L167.1671,293.2128 L167.4911,292.3568 L168.4651,288.7298 L169.4091,286.3408 L170.8831,283.8028 L171.0021,283.0958 L170.4111,282.5648 L169.3791,282.2408 L168.4051,282.3288 L167.9931,282.8888 L167.8451,282.5938 L167.7861,282.2988 L167.7861,281.6798 L167.8751,281.4738 L168.1411,281.4428 L168.4941,281.4738 L168.7891,281.4738 L169.7031,281.2368 L169.9981,281.0008 L170.2051,280.4698 L169.4371,280.2928 L169.0841,280.1458 L168.7891,279.8798 L169.1141,279.6138 L169.4681,279.6438 L170.2051,280.0568 L170.7361,279.6438 L170.7651,280.0568 L170.7071,280.7358 L170.9131,281.0888 L171.1491,281.2368 L171.3261,281.9158 L171.6211,282.0628 L171.8861,281.9158 L172.1521,281.6208 L172.3581,281.2368 L172.4171,280.9718 L172.5351,280.7648 L173.1551,280.0868 L173.2141,279.5858 L172.8901,279.4078 L172.2401,279.4678 L171.9451,279.2008 L171.8281,278.9358 L171.7091,278.6408 L171.5331,278.3458 L171.4151,278.0508 L171.5911,277.8448 L172.2401,277.4618 L172.2401,278.4638 L172.8301,278.9068 L173.6851,278.7888 L174.4521,278.0508 L176.8121,271.5028 L176.8711,270.5588 L176.8121,270.1168 L176.6061,269.6738 L176.2821,269.4378 L175.2501,269.8508 L174.8371,269.7328 L174.7181,269.3798 L175.0721,268.9658 L174.4831,268.9658 L174.1281,268.7008 L174.0401,268.2578 L174.2761,267.7268 L174.6001,267.9628 L174.5711,268.0808 L174.4521,268.3458 L175.2201,268.4058 L175.3681,268.4348 L175.7511,268.8768 L175.8981,268.9658 L176.5471,269.2318 L176.7831,269.1728 L177.1671,268.8478 L177.4911,268.1688 L177.8161,266.4588 L178.6121,265.1898 L179.2021,263.6268 L179.7041,262.7718 L179.6741,262.5938 L179.5561,262.4468 L179.4981,262.2698 L179.6741,261.5618 L179.7041,261.2668 L179.7041,260.8538 L179.7331,260.4698 L179.9691,260.1748 L180.4991,260.0568 L180.4411,260.4698 L180.1461,261.5918 L179.9101,262.0928 L180.4111,262.0048 L180.8241,261.6798 L181.5331,260.8538 L181.9161,260.6178 L183.3331,259.9688 L183.7741,259.6738 L184.0991,259.3198 L184.3651,258.8768 L184.5411,258.4348 L184.5411,257.8748 L184.2461,256.8128 L184.2461,256.4288 L185.2501,254.9838 L185.4561,254.4828 L185.5741,252.9778 L185.7211,252.6238 L186.3401,251.7978 L187.3741,250.8238 L187.6091,250.4708 L187.5801,250.1458 L186.9891,250.5878 L186.3701,250.6478 L186.0161,250.2928 L186.1641,249.5258 L185.5451,249.0548 L185.6031,248.0808 L186.1641,246.2228 L186.1941,245.9568 L186.3121,245.5148 L186.2821,245.3078 L185.8401,244.7178 L185.7811,244.4828 L185.8981,244.0098 L186.7831,242.8898 L187.3441,241.6508 L187.5801,241.2368 L187.9331,240.8838 L189.4081,239.6738 L190.2641,239.1428 L191.0021,238.9068 L192.2411,238.0218 L195.2201,237.0788 L196.1941,236.9888 L197.1371,237.1958 L198.0221,237.6088 L198.9071,237.7858 L199.9391,237.4028 L201.7391,235.2788 L203.0971,234.6878 L204.0401,234.0398 L204.8361,233.2438 L205.1901,232.5648 L204.9841,232.1518 L204.1581,231.5908 L203.9521,231.1478 L204.1581,230.8238 L204.2171,230.6468 L204.0691,230.5588 L203.8341,230.4708 L203.6561,230.2638 L203.5971,229.9978 L203.5681,229.7328 L204.1871,230.0578 L204.8071,229.5258 L205.4561,228.7298 L206.1941,228.3168 L206.6361,228.2588 L206.8421,228.1688 L206.7841,228.1108 L207.1081,228.2288 L207.1381,228.3458 L207.0781,228.4928 L207.1961,228.7298 L207.9041,229.4968 L208.3171,229.7618 L208.8191,229.9388 L207.8751,230.4108 L207.9641,230.7648 L208.6131,230.6178 L209.3501,229.7328 L209.6741,228.9658 L209.6151,228.6408 L209.3501,228.2288 L208.9661,227.9628 L208.6131,227.9338 L208.2881,227.9918 L208.0221,227.9038 L207.6391,227.1658 L207.4621,226.0158 L207.4331,223.8628 L207.3141,223.6858 L207.1081,223.6258 L206.9011,223.5678 L206.7841,223.2728 L206.8721,223.0958 L207.1381,222.9488 L207.1961,222.7418 L207.1081,222.2698 L206.8421,221.9448 L206.4591,221.8268 L205.9871,222.0338 L206.0761,221.6798 L205.9871,221.2958 L205.7801,220.8538 L206.1341,220.4108 L206.4291,220.5288 L206.6951,220.8538 L206.9901,221.0308 L207.5211,221.4438 L208.0811,223.2428 L208.6131,223.6558 L209.2611,222.8588 L209.3791,219.4088 L210.4121,218.6108 L209.9691,219.2608 L209.8511,219.6148 L209.9401,220.0278 L209.9401,220.3818 L209.6451,221.2078 L209.6451,221.6498 L209.7631,222.0628 L209.9691,222.3578 L210.2351,222.5638 L210.6191,222.7418 L211.0901,222.7708 L211.4141,222.4458 L211.7101,222.0338 L212.5061,221.7088 L213.0961,221.0598 L213.4501,220.8538 L213.7161,220.8538 L214.8661,221.1188 L215.7221,221.2078 L215.9871,220.5288 L216.1051,219.8218 L216.6951,219.2018 L216.7241,219.8508 L217.0781,220.1758 L217.5801,220.2338 L218.1411,220.0278 L218.5831,220.5888 L219.2021,220.2038 L220.2351,218.9068 L221.9161,217.4028 L222.5651,216.9898 L222.7131,216.4878 L223.7751,214.8658 L226.0171,212.5638 L226.0461,211.9448 L226.1051,210.0878 L226.0161,209.5558 L225.6621,208.9078 L212.6241,192.0628 L209.6151,188.1988 L209.2911,162.5948 L209.2911,147.8158 L209.2911,133.0958 L209.2911,118.3468 L209.2911,103.5978 L209.2911,88.8488 L209.2021,79.4968 L209.6151,78.6708 L220.3531,68.0808 L226.4291,59.3498 L236.3411,45.1608 L234.8951,45.9868 L233.5681,45.7498 L232.2701,45.0428 L230.8841,44.6008 L229.6151,45.3078 L229.2031,45.3968 L228.7601,45.3378 L227.9921,45.0128 L227.5211,44.9828 L225.1611,45.5438 L224.3641,45.6028 L222.8891,46.0158 L216.5771,46.3698 L215.0431,46.1928 L213.5981,45.6028 L212.2991,44.6008 L210.4121,41.9458 L209.6151,41.2378 L209.1441,40.9428 L207.7571,40.4708 L207.1961,40.2048 L206.9011,39.9098 L206.4001,38.9958 L205.6921,38.1698 L203.9221,36.9598 L203.2431,36.1048 L201.3851,37.3138 L192.0041,40.9138 L191.8561,41.0898 L191.6801,41.5618 L191.5031,41.7088 L186.1941,43.5678 L186.1051,43.5678 L186.0161,43.5378 L185.9271,43.4798 L185.6621,43.4498 L185.6331,43.5678 L185.6621,43.7748 L185.5141,43.9208 L184.1871,44.6008 L176.2521,48.4348 L175.6631,49.1428 L174.2461,52.8598 L173.7751,53.7748 L173.2141,54.5118 L168.9361,58.4048 L168.1991,59.3198 L167.5501,61.2968 L167.0491,62.0638 L166.1051,62.0918 L165.6331,61.7978 L165.4261,61.4148 L165.2491,61.0018 L165.0131,60.6778 L164.0991,60.3518 L160.4111,60.2648 L160.6771,59.7038 L160.5591,59.4088 L160.1761,59.3788 L159.9691,59.4968 L158.8181,60.1458 L157.6981,60.1748 L156.5471,59.9398 L153.5081,58.5528 L153.2441,58.4648 L151.5331,58.8178 L151.0901,58.8478 L150.6471,58.6718 L150.1461,58.6118 L148.9071,58.8478 L148.1401,58.8478 L143.0371,57.4618 L142.4771,57.1668 L142.0341,56.7238 L141.2381,55.6628 L141.2381,55.8388 L141.2381,55.8688 L141.2081,56.2518 L141.2081,56.4578 L139.4971,56.3408 L139.3201,56.2518 L139.2901,56.0748 L139.2321,55.9868 L138.8191,56.1338 L138.6711,56.1638 L138.2881,56.1338 L137.8751,56.0168 L137.7571,55.8388 L137.6971,55.6028 L137.4621,55.3378 L136.9021,54.8648 L136.7541,54.8068 L136.4591,54.9248 L136.3991,55.1608 L136.4291,55.4258 L136.3991,55.6028 L134.8951,56.2518 L133.2431,56.3998 L126.9601,55.6918 L126.0161,55.7498 L125.1021,55.9868 L124.7481,55.9268 L124.0691,55.3368 L123.1851,55.0718 L122.8001,54.8648 L122.3581,54.3348 L121.5921,53.1248 L121.0311,52.5648 L95.5441,36.1628 L95.3671,36.1338 L95.1901,36.1338 L95.0431,36.1048 L94.9251,35.9568 L94.7771,35.2788 L94.6591,35.0128 L94.4821,34.7478 L94.2471,34.6598 L93.6571,34.7178 L93.4501,34.5708 L92.9781,33.8038 L92.6831,33.5678 L91.5031,33.3018 L89.3791,32.2398 L87.6391,31.7688 L81.9461,31.7988 L81.7101,31.7388 L81.2671,31.4738 L81.0021,31.4138 L70.9131,31.6208 L70.5291,31.5908 L69.9981,31.3258 L69.7031,31.2378 L69.3791,31.2378 L68.3771,31.3838 L64.0691,31.4138 L63.9511,31.4138 L63.2741,31.2668 L62.6531,30.8528 L61.5031,29.8508 L60.9721,29.5258 L60.7661,29.1138 L60.7951,28.6118 L60.8831,28.0218 L60.8541,27.4318 L60.4411,26.7538 L60.4121,26.2228 L56.3711,21.9748 L55.6621,20.7358 L55.3971,19.2898 L55.5441,13.1248 L55.6921,12.7418 L56.8121,11.3258 L57.0481,10.7358 L57.0481,10.1458 L56.7841,9.4078 L56.1931,8.3178 L56.1051,7.7268 L56.3111,7.0488 L57.1081,5.8978 L56.9601,5.6328 L55.3381,5.0138 L53.3921,3.8038 L52.6531,3.5978 L52.1231,3.7448 L51.5911,3.9798 L50.8841,4.1278 L50.1761,3.9518 L48.9071,2.9188 L48.2291,2.5058 L47.6971,2.3868 L47.0781,2.2988 L46.4591,2.2988 L45.9281,2.4178 L45.2791,2.8298 L44.0691,4.1578 L43.4201,4.5998 L42.7121,4.7178 L42.1511,4.4528 L41.7091,3.9798 L40.7361,2.4468 L40.6181,2.1808 L40.6761,1.7978 L40.8831,1.5028 L41.1191,1.1788 L41.2961,0.8538 L41.1791,0.4998 L14.9841,26.2228 Z M212.1811,222.5648 L211.8271,222.9778 L211.5621,223.5678 L210.9721,223.8628 L210.2631,224.0688 L209.7331,224.3638 L209.3501,225.0428 L208.9951,225.9568 L208.9951,226.6358 L209.6441,226.4878 L209.7031,226.8718 L209.8211,227.1368 L210.0571,227.3138 L210.4111,227.3138 L210.5301,227.0188 L210.3231,226.8118 L209.9981,226.6358 L209.8211,226.3988 L209.9101,225.9858 L210.1171,225.7508 L210.3821,225.6918 L210.6481,225.8988 L211.7381,225.3078 L212.2701,225.1308 L212.6531,225.1008 L212.6831,225.1608 L212.8001,225.2788 L212.9481,225.4258 L213.1551,225.4848 L213.3311,225.4558 L213.4201,225.3668 L213.4791,225.3078 L213.5681,225.2788 L213.7441,225.1608 L213.8631,224.9238 L213.8921,224.5998 L213.8921,224.2758 L214.2761,224.8948 L214.8061,224.8058 L215.0431,224.1868 L214.4831,223.2428 L213.8631,222.9188 L212.9781,222.6238 L212.1811,222.5638 L212.1811,222.5648 Z" id="Fill-1" fill="#FFFFFF"></path>
            <path d="M212.1812,222.5646 L211.8272,222.9776 L211.5622,223.5676 L210.9722,223.8626 L210.2642,224.0686 L209.7332,224.3636 L209.3492,225.0426 L208.9962,225.9566 L208.9962,226.6356 L209.6442,226.4886 L209.7032,226.8716 L209.8212,227.1366 L210.0572,227.3136 L210.4112,227.3136 L210.5292,227.0186 L210.3232,226.8126 L209.9982,226.6356 L209.8212,226.3996 L209.9102,225.9866 L210.1162,225.7506 L210.3822,225.6916 L210.6472,225.8986 L211.7392,225.3086 L212.2702,225.1316 L212.6532,225.1016 L212.6832,225.1606 L212.8002,225.2786 L212.9482,225.4266 L213.1552,225.4846 L213.3322,225.4556 L213.4202,225.3666 L213.4792,225.3076 L213.5682,225.2786 L213.7452,225.1606 L213.8632,224.9246 L213.8922,224.5996 L213.8922,224.2756 L214.2752,224.8946 L214.8072,224.8066 L215.0432,224.1866 L214.4822,223.2426 L213.8632,222.9186 L212.9782,222.6236 L212.1812,222.5646 L212.1812,222.5646 Z M41.1782,0.4996 L14.9832,26.2226 L3.0662,38.0216 L3.9222,38.4356 L4.5712,38.9656 L4.9542,39.6446 L4.9242,40.5586 L4.9542,40.9426 L5.1902,41.2666 L5.5442,41.5916 L5.7802,41.9156 L5.8682,42.2406 L5.8682,42.5946 L5.8102,43.2726 L5.6922,43.6856 L5.5442,43.9806 L5.5442,44.2756 L5.7802,44.7476 L6.1342,45.0726 L6.5472,45.3676 L6.9012,45.6916 L6.9602,46.1636 L6.6652,46.9306 L6.2812,47.6086 L6.2232,48.1106 L6.9312,48.3756 L7.4032,48.2876 L8.5532,47.8746 L9.1432,47.8746 L9.7922,48.1986 L9.8512,48.6126 L9.5262,48.9956 L8.1402,49.7326 L8.1992,49.9106 L8.6412,50.0576 L9.0252,50.5296 L8.4352,50.8836 L8.2282,51.1196 L8.6122,51.2666 L8.8482,51.2376 L9.3792,51.1196 L9.9392,51.0906 L10.5292,50.9126 L10.8542,50.8836 L10.8542,51.0306 L11.5032,51.8866 L11.9752,53.0666 L12.2992,53.2726 L12.4472,53.1246 L12.5652,52.8596 L12.8892,52.5646 L13.6852,52.3286 L14.2172,52.5346 L15.1602,53.5676 L15.7212,53.8626 L16.2822,54.0396 L16.6952,54.3046 L16.9012,54.9246 L16.8422,57.3146 L16.5472,58.4946 L15.9872,59.3496 L15.7212,59.4676 L15.4262,59.5556 L15.1602,59.6736 L14.9832,59.9396 L15.0132,60.2636 L15.3672,60.8836 L15.4852,61.2076 L15.4552,61.5026 L15.1602,62.2106 L15.0722,62.5356 L15.1312,62.8896 L15.3672,63.2136 L15.6622,63.5086 L15.8682,63.8336 L16.2522,65.0136 L16.5472,68.6416 L16.8722,69.3196 L17.4622,69.7036 L18.8782,70.0866 L19.4972,70.4996 L19.8212,71.1196 L20.6772,75.6036 L20.9722,76.1046 L21.9162,77.1366 L22.3582,77.8446 L22.6242,78.1396 L23.0372,78.2286 L23.2142,78.1696 L23.5382,77.9036 L23.6562,77.8446 L23.7452,77.7866 L23.8632,77.5496 L23.9512,77.5206 L24.0692,77.5796 L24.1282,77.6686 L24.1582,77.7866 L24.2172,77.8156 L24.2762,77.9036 L25.1312,78.3166 L25.2792,78.3466 L25.4852,78.5826 L25.6032,78.8476 L26.1932,80.7066 L26.6362,83.2726 L27.8752,85.8686 L28.1702,86.1336 L28.5822,86.1636 L28.8192,85.9576 L28.9952,85.6916 L29.2612,85.6626 L29.5562,86.0756 L29.7332,87.5206 L29.9102,88.0806 L30.7072,88.9066 L30.9722,89.4086 L30.9132,90.0866 L30.4702,90.6186 L29.8802,90.9426 L29.3502,91.3556 L29.0842,92.0926 L29.2612,93.2426 L32.2702,100.5006 L32.2702,101.0606 L32.0052,102.3876 L31.9452,102.9486 L32.0052,103.5676 L32.1222,104.1576 L32.3292,104.6886 L32.5952,104.9836 L33.2732,105.6326 L33.4202,105.9576 L33.3022,106.2816 L32.7712,106.9596 L32.6242,107.3146 L32.5942,113.0666 L32.4172,113.7156 L31.5032,115.6916 L31.2672,116.0166 L30.9722,116.3116 L30.6772,116.4296 L30.0572,116.5766 L29.7622,116.7246 L29.0842,117.7266 L28.4652,120.1166 L26.7242,121.5326 L26.8122,122.5936 L27.3442,123.7736 L27.6392,124.9536 L27.2852,126.1636 L26.3412,126.5766 L23.9222,126.8416 L23.3032,127.1966 L22.2992,128.1696 L20.8542,128.4936 L20.6482,129.0546 L20.6182,129.7036 L20.4702,129.9686 L20.2932,130.2346 L19.6742,130.3526 L19.2022,130.0866 L18.7002,129.9686 L18.1102,130.5586 L17.8152,131.0896 L17.5802,131.7096 L17.4032,132.3286 L17.4032,133.6556 L17.2252,134.2456 L16.4592,136.1336 L15.6032,137.2556 L15.1902,138.4346 L14.6892,138.9066 L12.7712,139.8506 L12.5362,140.0866 L12.3582,141.1486 L11.8862,142.4176 L11.1782,143.1846 L10.2342,143.6556 L9.0252,144.0986 L8.1402,144.6886 L7.6382,145.6026 L6.9012,148.6116 L6.8132,148.8776 L6.6062,149.1726 L6.1052,149.7626 L5.9572,150.0276 L6.0162,150.5886 L6.3412,151.6496 L6.2522,152.2696 L5.9862,152.6536 L4.9252,153.4796 L0.5892,159.2606 L0.5002,159.8506 L1.9452,164.6296 L2.3282,165.9276 L2.3582,167.0486 L0.6472,182.0636 L0.9132,192.0626 L3.1552,192.0626 L3.2732,192.0626 L3.7452,192.0626 L3.8032,192.8596 L4.1872,193.0956 L5.2782,193.1846 L24.9542,204.1576 L111.2672,252.3576 L111.7092,253.0666 L112.2992,256.6646 L112.8892,260.2636 L112.3582,260.3226 L112.0632,260.5586 L111.9452,260.9716 L112.0042,261.5026 L111.4432,261.5316 L110.7352,261.9156 L110.0872,262.4466 L109.6442,262.9186 L109.4972,263.1846 L109.3492,263.5086 L109.2902,263.8626 L109.3202,264.1576 L109.5262,264.3646 L110.0282,264.4526 L110.1752,264.6596 L110.0572,265.1606 L109.8212,265.7216 L109.9102,266.1346 L111.3252,266.0456 L111.9452,266.1046 L112.5652,266.2816 L113.1252,266.5466 L113.5382,266.9306 L113.7742,267.3726 L114.2752,269.2016 L114.5702,269.7916 L114.9832,270.3226 L156.8712,300.4996 L156.9602,300.3526 L157.0482,300.3226 L157.1662,300.2926 L157.2842,300.2636 L157.8742,299.8506 L158.4062,298.9946 L159.0542,298.4046 L159.9102,298.6416 L160.0872,298.2276 L160.1162,298.0516 L160.8242,298.9066 L161.9452,299.2016 L162.9192,299.0546 L163.2432,298.6416 L162.7712,297.9926 L162.7122,297.7566 L162.8012,297.3426 L162.9782,297.3136 L163.1842,297.4316 L163.3322,297.4616 L163.5682,296.9896 L163.7452,296.5466 L163.9512,296.1336 L164.3352,295.8386 L164.4532,296.2516 L164.3642,297.1076 L164.5412,297.6676 L165.5442,294.6296 L165.6332,294.5116 L166.0452,294.1276 L166.1632,293.9506 L166.1342,293.5676 L166.1632,293.4196 L166.4002,293.0956 L166.6652,292.8306 L166.9012,292.7996 L167.1672,293.2136 L167.4912,292.3576 L168.4652,288.7296 L169.4082,286.3406 L170.8832,283.8026 L171.0012,283.0956 L170.4112,282.5646 L169.3792,282.2396 L168.4052,282.3286 L167.9932,282.8886 L167.8452,282.5936 L167.7862,282.2986 L167.7862,281.6796 L167.8752,281.4736 L168.1402,281.4436 L168.4942,281.4736 L168.7892,281.4736 L169.7032,281.2366 L169.9982,281.0006 L170.2052,280.4706 L169.4382,280.2936 L169.0842,280.1456 L168.7892,279.8806 L169.1132,279.6146 L169.4682,279.6436 L170.2052,280.0576 L170.7362,279.6436 L170.7652,280.0576 L170.7062,280.7356 L170.9132,281.0896 L171.1492,281.2366 L171.3262,281.9156 L171.6212,282.0636 L171.8862,281.9156 L172.1522,281.6206 L172.3582,281.2366 L172.4182,280.9716 L172.5352,280.7656 L173.1552,280.0866 L173.2142,279.5856 L172.8892,279.4086 L172.2402,279.4676 L171.9452,279.2016 L171.8282,278.9356 L171.7092,278.6406 L171.5332,278.3456 L171.4142,278.0506 L171.5912,277.8446 L172.2402,277.4616 L172.2402,278.4646 L172.8302,278.9066 L173.6862,278.7886 L174.4522,278.0516 L176.8122,271.5026 L176.8722,270.5586 L176.8122,270.1166 L176.6062,269.6736 L176.2822,269.4376 L175.2492,269.8506 L174.8362,269.7326 L174.7182,269.3786 L175.0722,268.9656 L174.4822,268.9656 L174.1282,268.7006 L174.0402,268.2576 L174.2762,267.7266 L174.6002,267.9626 L174.5712,268.0806 L174.4522,268.3466 L175.2202,268.4056 L175.3672,268.4346 L175.7502,268.8776 L175.8982,268.9656 L176.5472,269.2316 L176.7832,269.1726 L177.1672,268.8476 L177.4912,268.1696 L177.8152,266.4586 L178.6122,265.1896 L179.2022,263.6266 L179.7032,262.7716 L179.6742,262.5946 L179.5562,262.4466 L179.4972,262.2696 L179.6742,261.5616 L179.7032,261.2666 L179.7032,260.8536 L179.7332,260.4706 L179.9692,260.1756 L180.5002,260.0576 L180.4412,260.4706 L180.1462,261.5916 L179.9102,262.0926 L180.4122,262.0046 L180.8252,261.6796 L181.5322,260.8536 L181.9162,260.6176 L183.3322,259.9686 L183.7752,259.6736 L184.0992,259.3196 L184.3652,258.8776 L184.5412,258.4346 L184.5412,257.8746 L184.2462,256.8126 L184.2462,256.4296 L185.2492,254.9836 L185.4562,254.4826 L185.5742,252.9776 L185.7212,252.6236 L186.3412,251.7976 L187.3732,250.8246 L187.6092,250.4706 L187.5792,250.1456 L186.9892,250.5886 L186.3702,250.6476 L186.0162,250.2936 L186.1642,249.5266 L185.5442,249.0546 L185.6032,248.0806 L186.1642,246.2226 L186.1932,245.9576 L186.3112,245.5146 L186.2822,245.3076 L185.8392,244.7176 L185.7802,244.4826 L185.8982,244.0106 L186.7832,242.8896 L187.3442,241.6506 L187.5792,241.2376 L187.9342,240.8836 L189.4092,239.6736 L190.2642,239.1436 L191.0022,238.9066 L192.2402,238.0216 L195.2202,237.0786 L196.1932,236.9896 L197.1372,237.1956 L198.0222,237.6086 L198.9072,237.7856 L199.9392,237.4026 L201.7392,235.2786 L203.0962,234.6886 L204.0402,234.0396 L204.8362,233.2436 L205.1902,232.5646 L204.9832,232.1516 L204.1582,231.5906 L203.9512,231.1486 L204.1582,230.8246 L204.2172,230.6476 L204.0692,230.5586 L203.8332,230.4706 L203.6562,230.2636 L203.5972,229.9986 L203.5682,229.7326 L204.1872,230.0576 L204.8072,229.5256 L205.4562,228.7296 L206.1932,228.3166 L206.6362,228.2576 L206.8422,228.1696 L206.7832,228.1106 L207.1082,228.2286 L207.1372,228.3466 L207.0782,228.4936 L207.1962,228.7296 L207.9042,229.4966 L208.3172,229.7626 L208.8182,229.9396 L207.8752,230.4106 L207.9632,230.7656 L208.6122,230.6176 L209.3502,229.7326 L209.6742,228.9656 L209.6152,228.6416 L209.3502,228.2286 L208.9662,227.9626 L208.6122,227.9336 L208.2882,227.9926 L208.0222,227.9036 L207.6392,227.1656 L207.4622,226.0156 L207.4322,223.8626 L207.3142,223.6856 L207.1082,223.6266 L206.9012,223.5676 L206.7842,223.2726 L206.8722,223.0956 L207.1372,222.9486 L207.1962,222.7416 L207.1082,222.2696 L206.8422,221.9446 L206.4592,221.8266 L205.9872,222.0336 L206.0752,221.6796 L205.9872,221.2966 L205.7802,220.8536 L206.1342,220.4116 L206.4292,220.5286 L206.6952,220.8536 L206.9902,221.0306 L207.5212,221.4436 L208.0812,223.2436 L208.6122,223.6566 L209.2612,222.8596 L209.3792,219.4086 L210.4112,218.6116 L209.9692,219.2606 L209.8512,219.6146 L209.9402,220.0276 L209.9402,220.3816 L209.6452,221.2076 L209.6452,221.6506 L209.7632,222.0636 L209.9692,222.3586 L210.2352,222.5646 L210.6182,222.7416 L211.0902,222.7716 L211.4152,222.4466 L211.7102,222.0336 L212.5062,221.7086 L213.0962,221.0606 L213.4502,220.8536 L213.7162,220.8536 L214.8662,221.1186 L215.7212,221.2076 L215.9872,220.5286 L216.1052,219.8216 L216.6952,219.2016 L216.7242,219.8506 L217.0782,220.1756 L217.5802,220.2336 L218.1402,220.0276 L218.5832,220.5886 L219.2022,220.2046 L220.2352,218.9066 L221.9162,217.4026 L222.5652,216.9896 L222.7132,216.4876 L223.7752,214.8656 L226.0162,212.5646 L226.0462,211.9446 L226.1052,210.0866 L226.0162,209.5556 L225.6632,208.9066 L212.6242,192.0626 L209.6152,188.1986 L209.2912,162.5946 L209.2912,147.8156 L209.2912,133.0956 L209.2912,118.3466 L209.2912,103.5976 L209.2912,88.8486 L209.2022,79.4966 L209.6152,78.6716 L220.3532,68.0806 L226.4292,59.3496 L236.3412,45.1606 L234.8952,45.9866 L233.5682,45.7506 L232.2702,45.0426 L230.8842,44.6006 L229.6152,45.3076 L229.2022,45.3966 L228.7602,45.3376 L227.9922,45.0126 L227.5212,44.9836 L225.1612,45.5446 L224.3642,45.6026 L222.8902,46.0156 L216.5772,46.3706 L215.0432,46.1926 L213.5972,45.6026 L212.2992,44.6006 L210.4112,41.9456 L209.6152,41.2376 L209.1432,40.9426 L207.7572,40.4706 L207.1962,40.2046 L206.9012,39.9096 L206.4002,38.9956 L205.6922,38.1696 L203.9222,36.9606 L203.2442,36.1046 L201.3852,37.3136 L192.0042,40.9126 L191.8572,41.0896 L191.6802,41.5616 L191.5032,41.7096 L186.1932,43.5676 L186.1042,43.5676 L186.0162,43.5376 L185.9282,43.4796 L185.6622,43.4496 L185.6332,43.5676 L185.6622,43.7746 L185.5142,43.9216 L184.1872,44.6006 L176.2522,48.4356 L175.6622,49.1426 L174.2462,52.8596 L173.7742,53.7746 L173.2142,54.5116 L168.9362,58.4056 L168.1992,59.3196 L167.5502,61.2966 L167.0482,62.0636 L166.1052,62.0926 L165.6332,61.7976 L165.4262,61.4146 L165.2492,61.0016 L165.0132,60.6766 L164.0992,60.3526 L160.4112,60.2636 L160.6772,59.7036 L160.5592,59.4086 L160.1762,59.3786 L159.9692,59.4976 L158.8182,60.1456 L157.6982,60.1756 L156.5472,59.9396 L153.5092,58.5526 L153.2432,58.4646 L151.5322,58.8186 L151.0902,58.8476 L150.6472,58.6706 L150.1462,58.6126 L148.9072,58.8476 L148.1402,58.8476 L143.0372,57.4616 L142.4772,57.1666 L142.0342,56.7246 L141.2372,55.6626 L141.2372,55.8396 L141.2372,55.8686 L141.2082,56.2526 L141.2082,56.4586 L139.4972,56.3406 L139.3202,56.2526 L139.2902,56.0746 L139.2322,55.9866 L138.8182,56.1346 L138.6712,56.1636 L138.2872,56.1346 L137.8742,56.0156 L137.7572,55.8396 L137.6972,55.6026 L137.4622,55.3376 L136.9012,54.8656 L136.7542,54.8066 L136.4592,54.9246 L136.3992,55.1606 L136.4292,55.4256 L136.3992,55.6026 L134.8952,56.2526 L133.2432,56.3996 L126.9602,55.6916 L126.0162,55.7506 L125.1022,55.9866 L124.7472,55.9276 L124.0692,55.3376 L123.1842,55.0726 L122.8012,54.8656 L122.3582,54.3346 L121.5912,53.1246 L121.0312,52.5646 L95.5442,36.1636 L95.3672,36.1336 L95.1902,36.1336 L95.0432,36.1046 L94.9252,35.9566 L94.7772,35.2786 L94.6592,35.0136 L94.4822,34.7476 L94.2462,34.6586 L93.6572,34.7186 L93.4502,34.5706 L92.9782,33.8036 L92.6832,33.5676 L91.5032,33.3026 L89.3792,32.2406 L87.6392,31.7686 L81.9452,31.7976 L81.7102,31.7386 L81.2672,31.4736 L81.0022,31.4146 L70.9132,31.6206 L70.5302,31.5906 L69.9982,31.3256 L69.7032,31.2376 L69.3792,31.2376 L68.3762,31.3846 L64.0692,31.4146 L63.9512,31.4146 L63.2732,31.2666 L62.6532,30.8536 L61.5032,29.8506 L60.9722,29.5266 L60.7662,29.1136 L60.7952,28.6116 L60.8832,28.0216 L60.8542,27.4316 L60.4412,26.7536 L60.4112,26.2226 L56.3702,21.9746 L55.6622,20.7356 L55.3972,19.2906 L55.5442,13.1246 L55.6922,12.7416 L56.8132,11.3256 L57.0482,10.7356 L57.0482,10.1456 L56.7832,9.4086 L56.1932,8.3176 L56.1052,7.7276 L56.3112,7.0486 L57.1082,5.8976 L56.9602,5.6326 L55.3382,5.0126 L53.3912,3.8036 L52.6532,3.5976 L52.1222,3.7446 L51.5912,3.9806 L50.8842,4.1276 L50.1762,3.9516 L48.9072,2.9186 L48.2292,2.5056 L47.6982,2.3876 L47.0782,2.2996 L46.4592,2.2996 L45.9282,2.4176 L45.2792,2.8296 L44.0692,4.1576 L43.4202,4.5996 L42.7122,4.7176 L42.1522,4.4526 L41.7092,3.9806 L40.7362,2.4466 L40.6182,2.1816 L40.6772,1.7976 L40.8832,1.5026 L41.1192,1.1786 L41.2972,0.8536 L41.1782,0.4996 L41.1782,0.4996 Z" id="Stroke-2" stroke="#E75F52" stroke-linecap="round" stroke-linejoin="round"></path>
        </g>
    </g>
</svg>