<?xml version="1.0" encoding="UTF-8"?>
<svg width="300px" height="100px" viewBox="0 0 300 100" version="1.1" xmlns="http://www.w3.org/2000/svg" xmlns:xlink="http://www.w3.org/1999/xlink">
    <!-- Generator: Sketch 64 (93537) - https://sketch.com -->
    <title>291</title>
    <desc>Created with Sketch.</desc>
    <g id="291" stroke="none" stroke-width="1" fill="none" fill-rule="evenodd">
        <g id="Group-39" transform="translate(-1.000000, 0.000000)">
            <polygon id="Fill-1" fill="#FFFFFF" points="10.795 29.8342 10.661 29.6202 10.394 29.4332 10.1 29.3532 9.806 29.3262 9.511 29.4062 9.431 29.4602 9.351 29.5662 9.271 29.6742 9.137 29.7282 9.003 29.6472 8.923 29.5142 8.843 29.4332 8.656 29.4862 8.763 29.5942 8.736 29.7002 8.683 29.8342 8.656 29.9682 8.683 30.0482 8.763 30.1282 8.843 30.2622 8.87 30.3962 8.843 31.1172 8.923 31.9202 8.87 32.1342 8.656 32.2412 8.683 32.3212 8.736 32.4012 8.816 32.4282 8.87 32.4012 8.87 32.3742 8.897 32.3482 9.511 32.3212 10.34 32.4812 10.394 32.2142 10.768 31.5192 10.822 31.2252 10.875 30.6372 11.17 30.1282 11.009 29.9682"></polygon>
            <polygon id="Stroke-2" stroke="#E75F52" stroke-linecap="round" stroke-linejoin="round" points="10.795 29.8342 10.661 29.6202 10.394 29.4332 10.1 29.3532 9.806 29.3262 9.511 29.4062 9.431 29.4602 9.351 29.5662 9.271 29.6742 9.137 29.7282 9.003 29.6472 8.923 29.5142 8.843 29.4332 8.656 29.4862 8.763 29.5942 8.736 29.7002 8.683 29.8342 8.656 29.9682 8.683 30.0482 8.763 30.1282 8.843 30.2622 8.87 30.3962 8.843 31.1172 8.923 31.9202 8.87 32.1342 8.656 32.2412 8.683 32.3212 8.736 32.4012 8.816 32.4282 8.87 32.4012 8.87 32.3742 8.897 32.3482 9.511 32.3212 10.34 32.4812 10.394 32.2142 10.768 31.5192 10.822 31.2252 10.875 30.6372 11.17 30.1282 11.009 29.9682"></polygon>
            <polygon id="Fill-3" fill="#FFFFFF" points="3.2276 17.0793 3.0136 17.2393 2.9066 17.5073 2.5856 18.0683 2.5056 18.3903 2.8526 18.5763 2.9336 18.6833 3.0406 18.7643 3.2276 18.7373 3.2806 18.6303 3.3616 18.4963 3.4146 18.3083 3.4146 18.2023 3.3876 18.0423 3.2546 17.7473 3.2276 17.5603 3.2546 17.4533 3.3876 17.2933 3.4146 17.1593 3.5216 17.0793 3.4416 16.9993"></polygon>
            <polygon id="Stroke-4" stroke="#E75F52" stroke-linecap="round" stroke-linejoin="round" points="3.2276 17.0793 3.0136 17.2393 2.9066 17.5073 2.5856 18.0683 2.5056 18.3903 2.8526 18.5763 2.9336 18.6833 3.0406 18.7643 3.2276 18.7373 3.2806 18.6303 3.3616 18.4963 3.4146 18.3083 3.4146 18.2023 3.3876 18.0423 3.2546 17.7473 3.2276 17.5603 3.2546 17.4533 3.3876 17.2933 3.4146 17.1593 3.5216 17.0793 3.4416 16.9993"></polygon>
            <polygon id="Fill-5" fill="#FFFFFF" points="3.3615 14.0309 3.3875 14.1379 3.4685 14.2719 3.4145 14.4309 3.3345 14.4849 2.9075 14.6459 2.8805 14.6999 2.8805 14.7529 2.8805 14.8059 2.7995 14.8329 2.6925 14.8599 2.4785 14.8329 1.8365 15.0469 1.7025 14.6719 1.3285 14.6999 0.8745 14.8059 0.5005 14.6459 0.5005 15.2069 0.5805 15.4749 0.7135 15.6889 0.9275 15.8229 1.4365 16.0099 1.6495 16.1959 1.7025 16.4109 1.7565 16.9189 1.8365 17.1589 1.9985 17.2929 2.1045 17.2929 2.2645 17.2129 2.5325 17.1589 2.7725 17.0249 3.0405 16.5439 3.2805 16.4379 3.4945 16.5179 3.8155 16.7039 4.0565 16.7849 4.1635 16.5719 4.2435 16.4379 4.3775 16.3299 4.5105 16.2239 4.6445 16.1429 4.7255 16.0359 4.7255 15.9829 4.6985 15.9029 4.6985 15.7429 4.6715 15.4479 4.5915 15.2609 4.4575 15.1529 4.2705 15.0469 4.3775 14.9399 4.0565 14.8059 3.8695 14.6459 3.7615 14.4309 3.6555 14.1099 3.5485 13.9509 3.5215 13.8969"></polygon>
            <polygon id="Stroke-6" stroke="#E75F52" stroke-linecap="round" stroke-linejoin="round" points="4.6983 15.7424 4.6713 15.4484 4.5913 15.2614 4.4573 15.1534 4.2703 15.0474 4.3773 14.9394 4.0563 14.8054 3.8693 14.6454 3.7623 14.4314 3.6553 14.1104 3.5483 13.9504 3.5213 13.8964 3.3613 14.0304 3.3873 14.1384 3.4683 14.2714 3.4143 14.4314 3.3343 14.4854 2.9063 14.6454 2.8803 14.6994 2.8803 14.7534 2.8803 14.8054 2.8003 14.8334 2.6923 14.8594 2.4783 14.8334 1.8373 15.0474 1.7033 14.6724 1.3283 14.6994 0.8743 14.8054 0.5003 14.6454 0.5003 15.2074 0.5803 15.4744 0.7143 15.6884 0.9273 15.8224 1.4363 16.0104 1.6503 16.1964 1.7033 16.4104 1.7573 16.9194 1.8373 17.1594 1.9973 17.2934 2.1043 17.2934 2.2643 17.2134 2.5323 17.1594 2.7733 17.0254 3.0403 16.5444 3.2813 16.4374 3.4943 16.5174 3.8163 16.7044 4.0563 16.7854 4.1633 16.5714 4.2433 16.4374 4.3773 16.3304 4.5113 16.2234 4.6443 16.1424 4.7253 16.0364 4.7253 15.9824 4.6983 15.9024"></polygon>
            <polygon id="Fill-8" fill="#FFFFFF" points="71.3888 89.7062 71.0678 88.8772 70.9608 88.2352 70.8538 88.0212 70.9338 87.8882 70.8268 87.6742 70.6398 87.4602 70.5328 87.2462 70.5328 86.7372 70.4528 86.5232 70.1588 86.1222 70.0248 85.4282 69.5968 84.6792 69.4908 84.6792 69.3028 84.8122 69.1158 84.6512 68.9288 84.3312 68.8748 84.0102 68.9018 83.3422 68.8748 83.0482 68.7678 82.7002 68.6608 82.5392 68.3408 82.1652 68.2338 82.0052 68.0728 81.6302 67.7788 81.2562 67.4048 80.2932 66.6818 79.4112 66.5758 79.0902 66.6018 78.9022 66.7628 78.6082 66.7888 78.4752 66.7358 78.2882 66.4688 77.9402 66.3618 77.7792 66.3348 77.6192 66.3348 77.2982 66.2548 77.1382 66.1478 77.0582 65.8268 76.7902 65.6928 76.6842 64.5428 75.2392 64.4358 74.9722 64.4628 74.6782 64.5968 74.3302 64.1958 73.4472 64.0088 73.2072 63.4738 72.8062 63.4198 72.6722 63.4738 72.5382 63.4468 72.4322 63.2058 72.3242 62.8588 72.5122 62.6978 72.5382 62.5378 72.4852 62.2968 72.2712 62.2168 72.2182 61.9498 72.2182 61.7088 72.1642 61.5488 72.0842 61.5218 72.0572 59.7028 70.2922 58.9808 69.3302 58.4998 68.2602 58.3928 67.6442 58.7138 63.9552 58.6598 63.6342 58.5538 63.3402 58.3128 61.4412 58.3928 60.8262 59.1148 59.2482 58.6068 59.3552 58.8208 58.9002 58.4728 58.3932 57.9378 57.8852 57.6708 57.5112 57.6178 57.3232 57.0288 56.0402 56.9488 55.7722 56.9218 55.4782 57.0028 55.2652 57.1098 54.9972 57.2698 54.8102 57.5368 54.8102 57.5908 54.5162 57.5638 53.9542 57.6178 53.4462 57.7778 52.7772 58.0448 52.3222 58.3928 52.5372 58.4468 52.1622 57.8848 50.7452 57.7778 50.2642 57.8048 49.9962 57.9378 49.7562 58.2598 49.3542 58.3668 49.2482 58.4998 49.2212 58.5268 49.1942 58.6068 49.1412 58.7138 48.9802 58.6068 48.5792 58.6068 48.4452 58.6598 48.3392 58.8738 48.0712 58.9808 47.9912 59.0878 47.8042 59.3018 47.2682 59.3558 47.1082 59.3018 46.6272 58.8208 45.2102 58.8468 44.9962 58.6598 44.3272 58.7668 44.0072 58.9008 43.7122 58.9278 43.3642 58.6598 41.0652 58.5268 40.4232 58.4998 40.0752 58.6068 39.6212 58.6068 39.4612 58.5268 39.3002 58.2598 38.9792 58.2058 38.8722 58.0988 38.5782 57.2168 36.9472 55.6918 34.4062 55.1578 33.1232 53.6068 30.6632 52.1888 29.0852 51.3868 28.3902 51.1458 28.2292 50.5048 28.0962 49.8628 27.7752 47.1088 25.6092 46.7068 25.4222 46.5468 25.1822 46.3598 24.7002 46.0388 24.3252 45.6908 24.0312 44.8888 23.5502 44.7558 23.4432 44.4338 23.1762 44.1138 22.7742 42.2948 19.1912 41.6538 18.5222 41.3058 18.3092 39.5138 17.6672 39.1938 17.6412 39.0328 17.8812 39.2738 17.8012 39.4078 17.9352 39.3268 18.1222 38.9798 18.2022 38.7918 18.1222 37.9898 17.5602 37.5888 17.2932 37.4818 18.0952 37.5618 19.2712 37.4018 19.7792 36.9738 20.1812 35.8508 21.0362 35.4758 21.4912 35.2358 22.1332 35.2358 22.7742 35.1288 23.3632 34.6478 23.7912 34.4868 23.8972 34.4068 24.0312 34.3528 24.1652 34.2458 24.2992 33.8188 24.5932 33.7118 24.6732 33.6048 24.9942 33.4178 25.1822 33.1768 25.2082 32.8558 25.0482 32.7218 24.8872 32.6158 24.7002 32.5088 24.5392 32.2948 24.4862 32.1068 24.5392 31.8398 24.7802 31.6798 24.8602 31.3588 24.8072 31.1178 24.5392 30.8238 23.8452 30.8498 23.7112 30.8768 23.5502 30.8768 23.4162 30.7428 23.3632 30.5558 23.3362 30.4498 23.2562 30.3688 23.1492 30.2888 22.9622 30.0478 22.6412 29.7268 22.5602 29.3528 22.6412 27.1868 23.4972 26.6518 23.8452 26.0638 24.1112 25.4758 24.2192 24.9938 24.4592 24.8068 25.1542 24.7538 25.5022 24.6198 25.8232 24.4328 26.0912 24.1918 26.3052 23.4968 26.7322 23.0688 26.8662 22.8018 26.7592 22.6408 26.3852 22.4008 25.9832 22.1058 25.6622 21.7588 25.4222 21.5978 25.3952 21.3308 25.3952 21.1708 25.3422 21.0638 25.2342 20.8758 24.8602 20.7688 24.7002 20.6888 24.5662 20.6618 24.3792 20.6888 24.2192 20.7958 24.0312 21.4378 22.7742 21.6788 22.6142 21.9988 22.5342 22.2668 22.4542 22.4008 22.1592 22.4268 21.8652 22.5348 21.3842 22.5608 20.5022 22.6408 19.9132 22.5348 19.5932 22.2398 19.3792 21.9988 19.1652 21.9988 18.8172 22.2128 18.5502 22.4008 18.4702 22.5608 18.3362 22.5878 17.9612 22.5348 17.6412 22.4268 17.4532 22.2398 17.3732 21.5448 17.5332 21.3038 17.4532 20.7958 17.0522 20.5018 17.1052 20.1008 17.5332 19.8068 17.6132 19.1918 17.4532 18.9778 17.4272 18.7908 17.4802 18.7098 17.5872 18.6298 17.5872 18.5228 17.3732 18.4698 17.2392 18.4698 16.8112 18.4958 16.6782 18.5498 16.5182 18.5758 16.3842 18.5498 16.2502 18.3628 15.9562 18.3088 15.7682 18.2558 15.6082 18.2288 14.8872 18.0688 14.5922 17.7208 14.3782 17.5598 14.3522 17.3998 14.3522 17.2658 14.3522 17.1328 14.2442 17.0788 14.1102 17.0788 13.7632 17.0528 13.6832 16.8118 13.6832 15.8228 14.3782 15.5548 14.4322 15.2608 14.3522 14.7528 14.1102 13.8168 13.8442 13.5498 13.7362 13.0408 13.3622 12.8268 13.3092 12.4268 13.3622 12.1588 13.3352 11.8378 13.2282 11.6778 13.1752 11.2498 12.9612 10.9558 12.6932 10.7678 12.3992 10.2068 10.6882 10.0998 10.5812 9.9398 10.5272 9.7518 10.5012 9.6178 10.5272 9.3778 10.6612 9.3778 10.6882 9.1638 10.6882 9.0308 10.6072 8.9238 10.4742 8.7898 10.3932 8.5488 10.4742 8.4688 10.6072 8.4148 10.7682 8.3888 11.1162 8.3078 11.7302 8.3078 11.9982 8.4418 12.3462 8.4688 12.5602 8.3888 12.6932 8.2278 12.8012 8.1478 12.9612 8.1208 13.1212 8.1748 13.3622 8.1748 13.4962 8.1208 13.8962 7.9878 14.2182 7.8538 14.4582 7.9078 14.7532 8.0138 15.3942 8.2548 16.1162 8.5758 16.7852 8.9498 17.2392 8.9768 17.2672 9.4578 17.6132 9.6988 17.8542 9.8858 18.4422 10.4478 19.4592 10.7148 20.1272 10.9018 20.4752 11.1158 20.7692 11.2498 21.0362 11.6508 24.1112 11.4908 25.9032 11.5708 25.9572 11.7038 26.0372 11.8108 26.1172 11.8108 26.2772 11.6778 26.3572 11.4908 26.3852 11.3038 26.3312 11.1698 26.2772 11.2768 27.5612 11.3298 27.8022 11.3568 27.9092 11.7038 28.5232 11.8108 28.8712 11.7038 30.1822 11.7308 30.5292 11.8108 30.7432 12.1318 31.1712 12.4798 31.8662 12.5338 32.0802 12.5068 32.2412 12.3458 32.5082 12.3198 32.6952 12.3458 32.8032 12.5068 33.0972 12.5338 33.2832 12.5068 33.5782 12.2658 34.0592 12.1588 34.5672 12.0788 34.6742 12.0248 34.7542 11.8648 34.8882 11.7038 35.0492 11.6238 35.1022 11.5708 35.0752 11.5168 35.0752 11.4908 35.2092 11.5968 35.5572 11.7308 35.7702 11.9718 36.3062 12.0518 36.6262 12.4268 37.0542 12.5338 37.2682 12.5868 37.4812 12.6668 37.6692 12.8538 37.8832 12.9608 37.7762 13.1218 37.6952 13.2818 37.6432 13.4428 37.7232 13.6028 37.8832 13.7368 37.9102 13.7898 37.9902 13.7898 38.2042 13.7098 38.2042 13.5498 38.3102 13.4688 38.4442 13.6298 38.5242 14.0038 38.5242 14.1638 38.4982 14.3248 38.3912 14.3778 38.6042 14.5118 38.6582 14.6458 38.6852 14.7258 38.7122 14.7528 38.8722 14.6188 39.1402 14.6458 39.3532 14.7258 39.5672 14.8058 39.5952 14.8868 39.5412 15.0468 39.5672 15.3408 39.6752 15.3938 39.7552 15.2608 39.9692 15.5018 40.0752 15.5818 40.0752 15.5818 40.1832 15.1538 40.2362 14.9928 40.4232 15.0468 41.1722 15.1538 41.6002 15.3938 41.6002 15.7418 41.4662 16.0898 41.5462 15.9558 41.6272 15.7958 41.7872 15.6888 41.9472 15.5818 42.1612 15.3408 42.0272 15.1538 42.1612 14.9928 42.4552 14.9398 42.7502 15.0468 43.0442 15.2608 43.2312 15.5548 43.3112 15.7958 43.2312 15.5818 43.6322 15.3138 44.6212 15.2608 45.0502 15.2068 45.2642 14.9128 45.4772 14.8328 45.6912 14.8328 45.9592 14.7798 46.1732 14.6458 46.5732 14.5658 46.8942 14.6188 47.0012 14.7798 47.0282 14.9398 47.1882 15.0198 47.4302 15.0198 47.6702 15.0998 47.8572 15.3138 47.9372 15.2338 48.1242 15.2868 48.6052 15.4208 49.0872 15.5818 49.4082 15.9298 49.1942 16.2768 49.2482 16.5708 49.4622 16.8388 49.7282 17.6138 50.2642 17.7738 50.4512 17.7738 50.8522 17.7208 51.2272 17.8008 51.4402 18.2018 51.4942 18.3628 51.3872 18.7098 51.1992 19.0848 51.1732 19.2448 51.4942 18.9778 51.4402 18.6568 51.4942 18.4158 51.6282 18.1758 51.9222 17.8548 51.9762 16.8918 51.9222 16.7048 52.0282 16.6248 52.2692 16.6248 53.0452 16.6508 53.3122 16.7578 53.5792 16.9188 53.7932 17.1328 53.9272 17.5338 54.1142 17.9078 54.2222 18.0688 54.1682 18.1488 54.1142 18.3088 54.0602 18.6568 54.0082 18.8438 54.0602 18.7638 54.1682 18.7638 54.1942 18.4958 54.4082 18.3358 54.7832 18.3358 55.0502 18.4958 55.2112 19.1918 55.3172 19.4588 55.5052 19.8598 55.9862 20.1008 56.4142 20.1808 56.5202 20.3418 56.6282 20.7158 56.7882 21.8118 57.5632 22.0798 57.8852 22.1868 58.2062 22.3198 58.9002 22.6408 59.3292 22.7478 59.6772 22.8548 59.8102 23.3358 60.2912 24.0578 61.2542 24.1648 61.4952 24.2188 61.5752 24.3528 61.6552 24.4858 61.7352 24.8068 61.7892 24.8878 61.9232 24.9408 62.0572 24.9938 62.1632 25.5288 62.6182 25.7428 62.8582 25.8238 63.1802 26.1438 65.1582 26.2508 65.3462 26.6788 65.6932 26.7858 65.8802 26.8928 66.6292 26.8928 67.0302 26.7328 67.1902 26.4918 67.2702 26.2778 67.4842 25.5288 68.4212 25.5018 68.6072 25.8238 68.6612 25.5828 69.3562 25.9308 69.5972 26.6248 69.6772 27.2938 69.8102 27.7748 70.2382 28.5238 71.3892 28.8718 71.8162 29.4868 72.2442 29.8068 72.3782 30.3428 72.4582 30.6368 72.6192 31.4928 72.7522 31.7598 72.9392 31.8928 73.1002 32.1068 73.2332 32.2138 73.2332 32.8288 73.2872 33.0428 73.3672 33.1498 73.5272 33.4708 74.4362 33.6848 74.6782 33.8458 74.7842 33.9518 74.8382 34.1928 75.0252 34.2728 75.4532 34.2998 75.9352 34.4068 76.3092 34.5938 76.0952 35.0758 76.0682 35.3688 75.8812 35.7978 76.1482 36.0648 76.2552 36.3058 76.3092 36.3058 76.3622 36.2788 76.5762 36.4658 76.8162 36.7598 76.9772 37.0808 77.0582 37.2678 77.1382 38.4178 78.3942 38.8458 78.7422 39.3538 79.0362 41.8138 80.0532 43.9528 80.9082 44.5148 81.2562 44.8088 81.4702 44.9958 81.6572 44.9958 81.7102 45.0498 81.7912 45.0228 81.8442 44.8888 81.8712 44.9958 82.0582 45.1568 82.2452 46.4128 83.2342 46.6808 83.5282 46.9748 84.1972 47.1618 84.4912 47.5098 84.6792 47.7768 84.6792 48.5258 84.5712 48.7658 84.4652 49.2478 84.7052 49.6758 84.9732 50.0498 85.2942 50.3438 85.6422 50.5848 86.0422 50.7448 86.2032 51.0128 86.2562 51.3598 86.2832 51.7078 86.3902 52.3228 86.6842 54.9168 88.2882 56.7348 88.9832 57.3768 89.3852 57.8048 89.8932 58.0718 90.4812 58.5798 92.1392 58.7138 92.4342 58.9278 92.7272 59.4628 93.1822 59.6498 93.4772 59.8638 92.9682 60.1308 92.5402 60.1848 92.3802 60.1578 92.2462 60.0778 92.0322 60.0778 91.8452 60.1308 91.7912 60.2378 91.8982 60.3448 92.0592 60.3988 92.1122 60.9328 92.2202 61.3878 91.8452 62.1628 90.8822 62.4308 90.7222 62.6448 90.7222 63.2598 90.7752 63.5808 90.6952 64.1958 90.3742 64.5968 90.3482 65.9068 91.0162 66.6558 91.2032 67.1908 90.7752 67.2178 90.5352 67.1908 90.2942 67.1368 90.0802 67.0838 89.8662 67.1638 89.4382 67.1638 89.2252 66.5758 88.3152 66.4418 87.9142 66.5218 87.7272 66.8698 87.9682 67.2178 88.5022 67.6988 89.4922 67.8058 89.7862 67.8588 89.8932 67.9658 89.8122 68.4738 89.4382 68.7418 89.3052 69.0088 89.2252 69.3028 89.2782 68.9288 89.7062 68.3668 89.9462 67.9388 90.2142 68.0198 90.7752 68.1798 90.9092 68.3938 91.0692 68.5808 91.2292 68.6608 91.4442 68.6348 91.7382 68.6608 91.8982 68.7678 91.9782 69.3828 92.2462 69.7038 92.3002 70.3998 92.3262 70.4528 92.2722 70.6138 92.0592 70.6938 92.0062 71.2818 92.0062 71.3618 91.7652 71.3088 91.0972 71.4418 90.9632 71.5488 90.8022 71.5228 90.4282"></polygon>
            <polygon id="Stroke-9" stroke="#E75F52" stroke-linecap="round" stroke-linejoin="round" points="71.3888 89.7062 71.0678 88.8772 70.9608 88.2352 70.8538 88.0212 70.9338 87.8882 70.8268 87.6742 70.6398 87.4602 70.5328 87.2462 70.5328 86.7372 70.4528 86.5232 70.1588 86.1222 70.0248 85.4282 69.5968 84.6792 69.4908 84.6792 69.3028 84.8122 69.1158 84.6512 68.9288 84.3312 68.8748 84.0102 68.9018 83.3422 68.8748 83.0482 68.7678 82.7002 68.6608 82.5392 68.3408 82.1652 68.2338 82.0052 68.0728 81.6302 67.7788 81.2562 67.4048 80.2932 66.6818 79.4112 66.5758 79.0902 66.6018 78.9022 66.7628 78.6082 66.7888 78.4752 66.7358 78.2882 66.4688 77.9402 66.3618 77.7792 66.3348 77.6192 66.3348 77.2982 66.2548 77.1382 66.1478 77.0582 65.8268 76.7902 65.6928 76.6842 64.5428 75.2392 64.4358 74.9722 64.4628 74.6782 64.5968 74.3302 64.1958 73.4472 64.0088 73.2072 63.4738 72.8062 63.4198 72.6722 63.4738 72.5382 63.4468 72.4322 63.2058 72.3242 62.8588 72.5122 62.6978 72.5382 62.5378 72.4852 62.2968 72.2712 62.2168 72.2182 61.9498 72.2182 61.7088 72.1642 61.5488 72.0842 61.5218 72.0572 59.7028 70.2922 58.9808 69.3302 58.4998 68.2602 58.3928 67.6442 58.7138 63.9552 58.6598 63.6342 58.5538 63.3402 58.3128 61.4412 58.3928 60.8262 59.1148 59.2482 58.6068 59.3552 58.8208 58.9002 58.4728 58.3932 57.9378 57.8852 57.6708 57.5112 57.6178 57.3232 57.0288 56.0402 56.9488 55.7722 56.9218 55.4782 57.0028 55.2652 57.1098 54.9972 57.2698 54.8102 57.5368 54.8102 57.5908 54.5162 57.5638 53.9542 57.6178 53.4462 57.7778 52.7772 58.0448 52.3222 58.3928 52.5372 58.4468 52.1622 57.8848 50.7452 57.7778 50.2642 57.8048 49.9962 57.9378 49.7562 58.2598 49.3542 58.3668 49.2482 58.4998 49.2212 58.5268 49.1942 58.6068 49.1412 58.7138 48.9802 58.6068 48.5792 58.6068 48.4452 58.6598 48.3392 58.8738 48.0712 58.9808 47.9912 59.0878 47.8042 59.3018 47.2682 59.3558 47.1082 59.3018 46.6272 58.8208 45.2102 58.8468 44.9962 58.6598 44.3272 58.7668 44.0072 58.9008 43.7122 58.9278 43.3642 58.6598 41.0652 58.5268 40.4232 58.4998 40.0752 58.6068 39.6212 58.6068 39.4612 58.5268 39.3002 58.2598 38.9792 58.2058 38.8722 58.0988 38.5782 57.2168 36.9472 55.6918 34.4062 55.1578 33.1232 53.6068 30.6632 52.1888 29.0852 51.3868 28.3902 51.1458 28.2292 50.5048 28.0962 49.8628 27.7752 47.1088 25.6092 46.7068 25.4222 46.5468 25.1822 46.3598 24.7002 46.0388 24.3252 45.6908 24.0312 44.8888 23.5502 44.7558 23.4432 44.4338 23.1762 44.1138 22.7742 42.2948 19.1912 41.6538 18.5222 41.3058 18.3092 39.5138 17.6672 39.1938 17.6412 39.0328 17.8812 39.2738 17.8012 39.4078 17.9352 39.3268 18.1222 38.9798 18.2022 38.7918 18.1222 37.9898 17.5602 37.5888 17.2932 37.4818 18.0952 37.5618 19.2712 37.4018 19.7792 36.9738 20.1812 35.8508 21.0362 35.4758 21.4912 35.2358 22.1332 35.2358 22.7742 35.1288 23.3632 34.6478 23.7912 34.4868 23.8972 34.4068 24.0312 34.3528 24.1652 34.2458 24.2992 33.8188 24.5932 33.7118 24.6732 33.6048 24.9942 33.4178 25.1822 33.1768 25.2082 32.8558 25.0482 32.7218 24.8872 32.6158 24.7002 32.5088 24.5392 32.2948 24.4862 32.1068 24.5392 31.8398 24.7802 31.6798 24.8602 31.3588 24.8072 31.1178 24.5392 30.8238 23.8452 30.8498 23.7112 30.8768 23.5502 30.8768 23.4162 30.7428 23.3632 30.5558 23.3362 30.4498 23.2562 30.3688 23.1492 30.2888 22.9622 30.0478 22.6412 29.7268 22.5602 29.3528 22.6412 27.1868 23.4972 26.6518 23.8452 26.0638 24.1112 25.4758 24.2192 24.9938 24.4592 24.8068 25.1542 24.7538 25.5022 24.6198 25.8232 24.4328 26.0912 24.1918 26.3052 23.4968 26.7322 23.0688 26.8662 22.8018 26.7592 22.6408 26.3852 22.4008 25.9832 22.1058 25.6622 21.7588 25.4222 21.5978 25.3952 21.3308 25.3952 21.1708 25.3422 21.0638 25.2342 20.8758 24.8602 20.7688 24.7002 20.6888 24.5662 20.6618 24.3792 20.6888 24.2192 20.7958 24.0312 21.4378 22.7742 21.6788 22.6142 21.9988 22.5342 22.2668 22.4542 22.4008 22.1592 22.4268 21.8652 22.5348 21.3842 22.5608 20.5022 22.6408 19.9132 22.5348 19.5932 22.2398 19.3792 21.9988 19.1652 21.9988 18.8172 22.2128 18.5502 22.4008 18.4702 22.5608 18.3362 22.5878 17.9612 22.5348 17.6412 22.4268 17.4532 22.2398 17.3732 21.5448 17.5332 21.3038 17.4532 20.7958 17.0522 20.5018 17.1052 20.1008 17.5332 19.8068 17.6132 19.1918 17.4532 18.9778 17.4272 18.7908 17.4802 18.7098 17.5872 18.6298 17.5872 18.5228 17.3732 18.4698 17.2392 18.4698 16.8112 18.4958 16.6782 18.5498 16.5182 18.5758 16.3842 18.5498 16.2502 18.3628 15.9562 18.3088 15.7682 18.2558 15.6082 18.2288 14.8872 18.0688 14.5922 17.7208 14.3782 17.5598 14.3522 17.3998 14.3522 17.2658 14.3522 17.1328 14.2442 17.0788 14.1102 17.0788 13.7632 17.0528 13.6832 16.8118 13.6832 15.8228 14.3782 15.5548 14.4322 15.2608 14.3522 14.7528 14.1102 13.8168 13.8442 13.5498 13.7362 13.0408 13.3622 12.8268 13.3092 12.4268 13.3622 12.1588 13.3352 11.8378 13.2282 11.6778 13.1752 11.2498 12.9612 10.9558 12.6932 10.7678 12.3992 10.2068 10.6882 10.0998 10.5812 9.9398 10.5272 9.7518 10.5012 9.6178 10.5272 9.3778 10.6612 9.3778 10.6882 9.1638 10.6882 9.0308 10.6072 8.9238 10.4742 8.7898 10.3932 8.5488 10.4742 8.4688 10.6072 8.4148 10.7682 8.3888 11.1162 8.3078 11.7302 8.3078 11.9982 8.4418 12.3462 8.4688 12.5602 8.3888 12.6932 8.2278 12.8012 8.1478 12.9612 8.1208 13.1212 8.1748 13.3622 8.1748 13.4962 8.1208 13.8962 7.9878 14.2182 7.8538 14.4582 7.9078 14.7532 8.0138 15.3942 8.2548 16.1162 8.5758 16.7852 8.9498 17.2392 8.9768 17.2672 9.4578 17.6132 9.6988 17.8542 9.8858 18.4422 10.4478 19.4592 10.7148 20.1272 10.9018 20.4752 11.1158 20.7692 11.2498 21.0362 11.6508 24.1112 11.4908 25.9032 11.5708 25.9572 11.7038 26.0372 11.8108 26.1172 11.8108 26.2772 11.6778 26.3572 11.4908 26.3852 11.3038 26.3312 11.1698 26.2772 11.2768 27.5612 11.3298 27.8022 11.3568 27.9092 11.7038 28.5232 11.8108 28.8712 11.7038 30.1822 11.7308 30.5292 11.8108 30.7432 12.1318 31.1712 12.4798 31.8662 12.5338 32.0802 12.5068 32.2412 12.3458 32.5082 12.3198 32.6952 12.3458 32.8032 12.5068 33.0972 12.5338 33.2832 12.5068 33.5782 12.2658 34.0592 12.1588 34.5672 12.0788 34.6742 12.0248 34.7542 11.8648 34.8882 11.7038 35.0492 11.6238 35.1022 11.5708 35.0752 11.5168 35.0752 11.4908 35.2092 11.5968 35.5572 11.7308 35.7702 11.9718 36.3062 12.0518 36.6262 12.4268 37.0542 12.5338 37.2682 12.5868 37.4812 12.6668 37.6692 12.8538 37.8832 12.9608 37.7762 13.1218 37.6952 13.2818 37.6432 13.4428 37.7232 13.6028 37.8832 13.7368 37.9102 13.7898 37.9902 13.7898 38.2042 13.7098 38.2042 13.5498 38.3102 13.4688 38.4442 13.6298 38.5242 14.0038 38.5242 14.1638 38.4982 14.3248 38.3912 14.3778 38.6042 14.5118 38.6582 14.6458 38.6852 14.7258 38.7122 14.7528 38.8722 14.6188 39.1402 14.6458 39.3532 14.7258 39.5672 14.8058 39.5952 14.8868 39.5412 15.0468 39.5672 15.3408 39.6752 15.3938 39.7552 15.2608 39.9692 15.5018 40.0752 15.5818 40.0752 15.5818 40.1832 15.1538 40.2362 14.9928 40.4232 15.0468 41.1722 15.1538 41.6002 15.3938 41.6002 15.7418 41.4662 16.0898 41.5462 15.9558 41.6272 15.7958 41.7872 15.6888 41.9472 15.5818 42.1612 15.3408 42.0272 15.1538 42.1612 14.9928 42.4552 14.9398 42.7502 15.0468 43.0442 15.2608 43.2312 15.5548 43.3112 15.7958 43.2312 15.5818 43.6322 15.3138 44.6212 15.2608 45.0502 15.2068 45.2642 14.9128 45.4772 14.8328 45.6912 14.8328 45.9592 14.7798 46.1732 14.6458 46.5732 14.5658 46.8942 14.6188 47.0012 14.7798 47.0282 14.9398 47.1882 15.0198 47.4302 15.0198 47.6702 15.0998 47.8572 15.3138 47.9372 15.2338 48.1242 15.2868 48.6052 15.4208 49.0872 15.5818 49.4082 15.9298 49.1942 16.2768 49.2482 16.5708 49.4622 16.8388 49.7282 17.6138 50.2642 17.7738 50.4512 17.7738 50.8522 17.7208 51.2272 17.8008 51.4402 18.2018 51.4942 18.3628 51.3872 18.7098 51.1992 19.0848 51.1732 19.2448 51.4942 18.9778 51.4402 18.6568 51.4942 18.4158 51.6282 18.1758 51.9222 17.8548 51.9762 16.8918 51.9222 16.7048 52.0282 16.6248 52.2692 16.6248 53.0452 16.6508 53.3122 16.7578 53.5792 16.9188 53.7932 17.1328 53.9272 17.5338 54.1142 17.9078 54.2222 18.0688 54.1682 18.1488 54.1142 18.3088 54.0602 18.6568 54.0082 18.8438 54.0602 18.7638 54.1682 18.7638 54.1942 18.4958 54.4082 18.3358 54.7832 18.3358 55.0502 18.4958 55.2112 19.1918 55.3172 19.4588 55.5052 19.8598 55.9862 20.1008 56.4142 20.1808 56.5202 20.3418 56.6282 20.7158 56.7882 21.8118 57.5632 22.0798 57.8852 22.1868 58.2062 22.3198 58.9002 22.6408 59.3292 22.7478 59.6772 22.8548 59.8102 23.3358 60.2912 24.0578 61.2542 24.1648 61.4952 24.2188 61.5752 24.3528 61.6552 24.4858 61.7352 24.8068 61.7892 24.8878 61.9232 24.9408 62.0572 24.9938 62.1632 25.5288 62.6182 25.7428 62.8582 25.8238 63.1802 26.1438 65.1582 26.2508 65.3462 26.6788 65.6932 26.7858 65.8802 26.8928 66.6292 26.8928 67.0302 26.7328 67.1902 26.4918 67.2702 26.2778 67.4842 25.5288 68.4212 25.5018 68.6072 25.8238 68.6612 25.5828 69.3562 25.9308 69.5972 26.6248 69.6772 27.2938 69.8102 27.7748 70.2382 28.5238 71.3892 28.8718 71.8162 29.4868 72.2442 29.8068 72.3782 30.3428 72.4582 30.6368 72.6192 31.4928 72.7522 31.7598 72.9392 31.8928 73.1002 32.1068 73.2332 32.2138 73.2332 32.8288 73.2872 33.0428 73.3672 33.1498 73.5272 33.4708 74.4362 33.6848 74.6782 33.8458 74.7842 33.9518 74.8382 34.1928 75.0252 34.2728 75.4532 34.2998 75.9352 34.4068 76.3092 34.5938 76.0952 35.0758 76.0682 35.3688 75.8812 35.7978 76.1482 36.0648 76.2552 36.3058 76.3092 36.3058 76.3622 36.2788 76.5762 36.4658 76.8162 36.7598 76.9772 37.0808 77.0582 37.2678 77.1382 38.4178 78.3942 38.8458 78.7422 39.3538 79.0362 41.8138 80.0532 43.9528 80.9082 44.5148 81.2562 44.8088 81.4702 44.9958 81.6572 44.9958 81.7102 45.0498 81.7912 45.0228 81.8442 44.8888 81.8712 44.9958 82.0582 45.1568 82.2452 46.4128 83.2342 46.6808 83.5282 46.9748 84.1972 47.1618 84.4912 47.5098 84.6792 47.7768 84.6792 48.5258 84.5712 48.7658 84.4652 49.2478 84.7052 49.6758 84.9732 50.0498 85.2942 50.3438 85.6422 50.5848 86.0422 50.7448 86.2032 51.0128 86.2562 51.3598 86.2832 51.7078 86.3902 52.3228 86.6842 54.9168 88.2882 56.7348 88.9832 57.3768 89.3852 57.8048 89.8932 58.0718 90.4812 58.5798 92.1392 58.7138 92.4342 58.9278 92.7272 59.4628 93.1822 59.6498 93.4772 59.8638 92.9682 60.1308 92.5402 60.1848 92.3802 60.1578 92.2462 60.0778 92.0322 60.0778 91.8452 60.1308 91.7912 60.2378 91.8982 60.3448 92.0592 60.3988 92.1122 60.9328 92.2202 61.3878 91.8452 62.1628 90.8822 62.4308 90.7222 62.6448 90.7222 63.2598 90.7752 63.5808 90.6952 64.1958 90.3742 64.5968 90.3482 65.9068 91.0162 66.6558 91.2032 67.1908 90.7752 67.2178 90.5352 67.1908 90.2942 67.1368 90.0802 67.0838 89.8662 67.1638 89.4382 67.1638 89.2252 66.5758 88.3152 66.4418 87.9142 66.5218 87.7272 66.8698 87.9682 67.2178 88.5022 67.6988 89.4922 67.8058 89.7862 67.8588 89.8932 67.9658 89.8122 68.4738 89.4382 68.7418 89.3052 69.0088 89.2252 69.3028 89.2782 68.9288 89.7062 68.3668 89.9462 67.9388 90.2142 68.0198 90.7752 68.1798 90.9092 68.3938 91.0692 68.5808 91.2292 68.6608 91.4442 68.6348 91.7382 68.6608 91.8982 68.7678 91.9782 69.3828 92.2462 69.7038 92.3002 70.3998 92.3262 70.4528 92.2722 70.6138 92.0592 70.6938 92.0062 71.2818 92.0062 71.3618 91.7652 71.3088 91.0972 71.4418 90.9632 71.5488 90.8022 71.5228 90.4282"></polygon>
            <polygon id="Fill-10" fill="#FFFFFF" points="69.0357 70.801 69.0357 70.934 69.1427 71.121 69.4367 71.443 69.6777 71.523 69.9717 71.495 70.2657 71.415 70.4527 71.281 70.4797 71.095 70.4527 70.346 70.2657 69.677 70.1587 69.49 69.9717 69.197 69.9177 69.089 69.9177 68.902 69.8907 68.822 69.8107 68.741 69.6507 68.715 69.5167 68.822 69.4097 68.983 69.3827 69.143 69.4367 69.383 69.4907 69.624 69.4907 69.838 69.3297 70.078 69.2497 70.158 69.0357 70.239 68.9817 70.346 68.9547 70.48 69.0357 70.72"></polygon>
            <polygon id="Stroke-11" stroke="#E75F52" stroke-linecap="round" stroke-linejoin="round" points="69.0357 70.801 69.0357 70.934 69.1427 71.121 69.4367 71.443 69.6777 71.523 69.9717 71.495 70.2657 71.415 70.4527 71.281 70.4797 71.095 70.4527 70.346 70.2657 69.677 70.1587 69.49 69.9717 69.197 69.9177 69.089 69.9177 68.902 69.8907 68.822 69.8107 68.741 69.6507 68.715 69.5167 68.822 69.4097 68.983 69.3827 69.143 69.4367 69.383 69.4907 69.624 69.4907 69.838 69.3297 70.078 69.2497 70.158 69.0357 70.239 68.9817 70.346 68.9547 70.48 69.0357 70.72"></polygon>
            <polygon id="Fill-12" fill="#FFFFFF" points="24.9408 66.3074 24.8078 66.5214 24.9138 66.6554 25.1538 66.6024 25.2878 66.5214 25.3418 66.3614 25.2078 66.2014"></polygon>
            <polygon id="Stroke-13" stroke="#E75F52" stroke-linecap="round" stroke-linejoin="round" points="25.3419 66.3615 25.2079 66.2015 24.9409 66.3075 24.8069 66.5215 24.9139 66.6555 25.1549 66.6025 25.2879 66.5215"></polygon>
            <polygon id="Fill-14" fill="#FFFFFF" points="25.5826 67.4045 25.8236 67.2445 26.1176 67.1105 26.3046 66.9235 26.3576 66.5755 26.3316 66.3875 26.3576 66.2815 26.3316 66.0675 26.1446 65.9605 25.8766 66.0935 25.6626 66.4155 25.2886 67.3245 25.2616 67.4845 25.2886 67.5915 25.3956 67.5645 25.5016 67.4845"></polygon>
            <polygon id="Stroke-15" stroke="#E75F52" stroke-linecap="round" stroke-linejoin="round" points="25.5826 67.4045 25.8236 67.2445 26.1176 67.1105 26.3046 66.9235 26.3576 66.5755 26.3316 66.3875 26.3576 66.2815 26.3316 66.0675 26.1446 65.9605 25.8766 66.0935 25.6626 66.4155 25.2886 67.3245 25.2616 67.4845 25.2886 67.5915 25.3956 67.5645 25.5016 67.4845"></polygon>
            <polygon id="Fill-16" fill="#FFFFFF" points="271.1124 11.3303 271.5134 11.4363 271.9674 11.5173 272.4494 11.5173 272.8504 11.3833 273.4124 10.9293 273.4924 10.4473 273.2244 9.9933 272.8504 9.5123 272.5834 9.6453 271.9674 9.7263 271.7804 9.9123 271.8344 10.1263 272.3954 10.1533 272.5294 10.2873 272.4494 10.5553 272.2894 10.6883 272.0484 10.7413 271.2724 10.7953 271.1124 10.8213 270.9784 10.9553 270.9254 11.0893 270.9784 11.2233"></polygon>
            <polygon id="Stroke-17" stroke="#E75F52" stroke-linecap="round" stroke-linejoin="round" points="271.1124 11.3303 271.5134 11.4363 271.9674 11.5173 272.4494 11.5173 272.8504 11.3833 273.4124 10.9293 273.4924 10.4473 273.2244 9.9933 272.8504 9.5123 272.5834 9.6453 271.9674 9.7263 271.7804 9.9123 271.8344 10.1263 272.3954 10.1533 272.5294 10.2873 272.4494 10.5553 272.2894 10.6883 272.0484 10.7413 271.2724 10.7953 271.1124 10.8213 270.9784 10.9553 270.9254 11.0893 270.9784 11.2233"></polygon>
            <polygon id="Fill-18" fill="#FFFFFF" points="266.7804 4.3771 266.9404 4.2431 267.0204 4.0831 267.0744 3.9231 267.1814 3.7351 267.3424 3.6551 267.7434 3.4681 267.8234 3.3881 268.0104 3.2811 268.8924 3.1201 269.1864 3.0141 269.4544 3.1481 269.6954 2.8541 269.8554 2.3981 270.0154 1.2221 269.9894 0.8741 269.8014 0.6061 269.4544 0.5001 268.3044 0.7141 268.0914 0.7401 267.9034 0.8211 267.5554 1.0621 267.1814 1.4091 267.0484 1.4891 266.8064 1.5971 266.7264 1.6491 266.6744 1.8111 266.6744 2.4791 266.6204 2.5861 266.5404 2.8261 266.6464 4.0031"></polygon>
            <polygon id="Stroke-19" stroke="#E75F52" stroke-linecap="round" stroke-linejoin="round" points="266.7804 4.3771 266.9404 4.2431 267.0204 4.0831 267.0744 3.9231 267.1814 3.7351 267.3424 3.6551 267.7434 3.4681 267.8234 3.3881 268.0104 3.2811 268.8924 3.1201 269.1864 3.0141 269.4544 3.1481 269.6954 2.8541 269.8554 2.3981 270.0154 1.2221 269.9894 0.8741 269.8014 0.6061 269.4544 0.5001 268.3044 0.7141 268.0914 0.7401 267.9034 0.8211 267.5554 1.0621 267.1814 1.4091 267.0484 1.4891 266.8064 1.5971 266.7264 1.6491 266.6744 1.8111 266.6744 2.4791 266.6204 2.5861 266.5404 2.8261 266.6464 4.0031"></polygon>
            <polygon id="Fill-21" fill="#FFFFFF" points="263.8126 2.9865 264.0266 2.9865 264.1606 2.9065 264.2406 2.7465 264.1606 2.6665 264.0266 2.5865 263.9456 2.4245 265.4166 2.0775 265.2556 1.7835 265.3356 1.5155 265.5496 1.4095 265.8446 1.6495 266.0046 1.4355 266.0316 1.0615 265.9516 0.7145 265.7106 0.5005 265.0956 1.2215 264.8816 1.3295 264.3746 1.4355 264.1606 1.5435 263.4116 2.9065 263.5716 2.9605"></polygon>
            <polygon id="Stroke-22" stroke="#E75F52" stroke-linecap="round" stroke-linejoin="round" points="263.8126 2.9865 264.0266 2.9865 264.1606 2.9065 264.2406 2.7465 264.1606 2.6665 264.0266 2.5865 263.9456 2.4245 265.4166 2.0775 265.2556 1.7835 265.3356 1.5155 265.5496 1.4095 265.8446 1.6495 266.0046 1.4355 266.0316 1.0615 265.9516 0.7145 265.7106 0.5005 265.0956 1.2215 264.8816 1.3295 264.3746 1.4355 264.1606 1.5435 263.4116 2.9065 263.5716 2.9605"></polygon>
            <polygon id="Fill-24" fill="#FFFFFF" points="238.2481 32.1603 238.3551 32.1343 238.6761 32.3213 238.8101 32.3213 239.0771 32.0543 239.0771 31.6793 238.9171 30.9033 238.8101 30.5833 238.5691 30.6893 238.1421 31.0913 238.0081 31.2243 237.5801 32.4283 237.5531 32.6413 237.9281 32.4283"></polygon>
            <polygon id="Stroke-25" stroke="#E75F52" stroke-linecap="round" stroke-linejoin="round" points="238.2481 32.1603 238.3551 32.1343 238.6761 32.3213 238.8101 32.3213 239.0771 32.0543 239.0771 31.6793 238.9171 30.9033 238.8101 30.5833 238.5691 30.6893 238.1421 31.0913 238.0081 31.2243 237.5801 32.4283 237.5531 32.6413 237.9281 32.4283"></polygon>
            <polygon id="Fill-26" fill="#FFFFFF" points="283.9212 23.4431 283.7332 23.4971 283.5472 23.6031 283.4662 23.7371 283.4932 23.8441 283.6002 23.9241 283.7332 23.9781 283.8412 23.9781 283.9472 23.9781 284.2142 23.8711 284.3222 23.8441 284.4832 23.7911 284.5632 23.6301 284.5092 23.4971 284.3222 23.4161"></polygon>
            <polygon id="Stroke-27" stroke="#E75F52" stroke-linecap="round" stroke-linejoin="round" points="283.5997 23.925 283.7337 23.978 283.8407 23.978 283.9477 23.978 284.2147 23.871 284.3227 23.845 284.4827 23.791 284.5627 23.63 284.5087 23.497 284.3227 23.416 283.9207 23.444 283.7337 23.497 283.5467 23.604 283.4657 23.738 283.4937 23.845"></polygon>
            <polygon id="Fill-28" fill="#FFFFFF" points="278.6534 48.7668 278.4664 48.7668 278.3054 48.7398 278.1724 48.6598 278.0384 48.4988 277.8244 48.1778 277.6904 48.0178 277.5034 47.9378 277.2354 47.8838 276.6744 47.6968 276.4074 47.6968 276.1664 47.7778 275.8454 47.9108 275.5784 48.0978 275.4704 48.3118 275.5244 48.4988 276.3264 49.1948 279.4284 49.1668 279.3754 49.0068"></polygon>
            <polygon id="Stroke-29" stroke="#E75F52" stroke-linecap="round" stroke-linejoin="round" points="278.6534 48.7668 278.4664 48.7668 278.3054 48.7398 278.1724 48.6598 278.0384 48.4988 277.8244 48.1778 277.6904 48.0178 277.5034 47.9378 277.2354 47.8838 276.6744 47.6968 276.4074 47.6968 276.1664 47.7778 275.8454 47.9108 275.5784 48.0978 275.4704 48.3118 275.5244 48.4988 276.3264 49.1948 279.4284 49.1668 279.3754 49.0068"></polygon>
            <polygon id="Fill-30" fill="#FFFFFF" points="291.0609 44.1674 291.0069 44.1674 290.8469 44.1674 290.7929 44.2204 290.8469 44.3804 290.9009 44.4604 291.0869 44.6214 291.1679 44.7024 291.1939 45.0224 291.1939 45.0504 291.2739 45.1024 291.3819 45.1024 291.5959 44.8894 292.1569 44.8894 292.5059 44.7824 292.5849 44.5684 292.3979 44.3544 292.0499 44.2734 291.2739 44.1674"></polygon>
            <polygon id="Stroke-31" stroke="#E75F52" stroke-linecap="round" stroke-linejoin="round" points="292.0499 44.2736 291.2749 44.1676 291.0609 44.1676 291.0069 44.1676 290.8469 44.1676 290.7929 44.2206 290.8469 44.3806 290.9009 44.4606 291.0869 44.6216 291.1679 44.7026 291.1949 45.0226 291.1949 45.0496 291.2749 45.1026 291.3819 45.1026 291.5959 44.8886 292.1569 44.8886 292.5049 44.7826 292.5849 44.5686 292.3979 44.3546"></polygon>
            <polygon id="Fill-32" fill="#FFFFFF" points="289.3497 41.6271 288.9747 41.6001 288.7607 41.8671 288.4937 41.6531 288.3597 41.3861 288.2257 41.1721 287.9317 41.1181 287.8257 41.1991 287.7457 41.3061 287.6377 41.4131 287.4507 41.4401 286.2467 41.4401 286.2467 41.5461 287.2897 41.8671 287.8257 41.9471 287.9057 42.0011 288.0387 42.1351 288.0927 42.1611 288.3067 42.1891 288.5467 42.2411 288.7877 42.3491 289.0287 42.5361 289.1357 42.5891 289.2157 42.4821 289.2687 42.3491 289.3227 42.2691 289.4027 42.3221 289.6967 42.5891 289.6967 42.3751 289.7497 42.1891 289.8837 42.0811 290.1247 42.0811 290.1247 41.9471 289.7777 41.7611"></polygon>
            <polygon id="Stroke-33" stroke="#E75F52" stroke-linecap="round" stroke-linejoin="round" points="289.3497 41.6271 288.9747 41.6001 288.7607 41.8671 288.4937 41.6531 288.3597 41.3861 288.2257 41.1721 287.9317 41.1181 287.8257 41.1991 287.7457 41.3061 287.6377 41.4131 287.4507 41.4401 286.2467 41.4401 286.2467 41.5461 287.2897 41.8671 287.8257 41.9471 287.9057 42.0011 288.0387 42.1351 288.0927 42.1611 288.3067 42.1891 288.5467 42.2411 288.7877 42.3491 289.0287 42.5361 289.1357 42.5891 289.2157 42.4821 289.2687 42.3491 289.3227 42.2691 289.4027 42.3221 289.6967 42.5891 289.6967 42.3751 289.7497 42.1891 289.8837 42.0811 290.1247 42.0811 290.1247 41.9471 289.7777 41.7611"></polygon>
            <polygon id="Fill-34" fill="#FFFFFF" points="262.1007 5.5538 261.9407 5.6608 261.8067 5.7678 261.7267 5.9548 261.5657 6.1958 261.4847 6.2498 261.3787 6.3028 261.3517 6.4368 261.3247 6.7838 261.1917 7.3728 261.0577 7.6138 260.6297 7.8268 260.5757 8.0938 260.6037 8.6828 260.5237 8.8158 260.3357 9.0848 260.2827 9.1908 260.2557 9.3508 260.2827 9.8858 260.2557 10.2598 260.1757 10.5268 260.0147 10.7418 259.7747 10.9558 258.8387 12.2388 258.5717 12.4258 258.3577 12.5328 258.2507 12.7478 258.1967 13.0408 258.1707 13.3348 258.0907 13.6568 257.8757 13.8168 257.5817 13.9508 257.2877 14.1638 257.0737 14.4048 255.7097 15.4218 255.5767 15.5818 255.4967 15.7148 255.4427 15.7958 255.3087 16.3038 255.3087 16.3848 255.2827 16.4378 255.1487 16.5178 254.8267 16.4908 254.7207 16.5178 254.6667 16.5718 254.4267 16.8378 253.9977 17.0518 253.9977 17.1588 254.3997 17.1048 254.6937 16.9718 254.8807 16.9988 254.9347 17.5068 254.8547 17.6668 254.6667 17.6408 254.4267 17.5338 254.2657 17.4538 253.9977 17.5068 253.8117 17.5868 253.4647 17.8808 252.7417 18.9768 252.4747 19.1378 252.0197 19.2988 251.8597 19.5658 251.9927 19.7788 252.3407 19.6468 252.5817 20.1008 252.3407 20.7698 251.4047 22.2668 251.3237 22.5878 251.2707 23.2818 251.1907 23.6298 250.9507 23.8978 249.5597 24.6738 249.3457 24.8348 249.1857 25.1008 249.0787 25.3958 248.9717 26.0638 248.7847 26.6788 248.4897 27.3478 248.0887 27.9358 247.6067 28.3368 247.2057 28.4708 246.7787 28.4978 245.4147 28.4178 245.0937 28.2568 244.5857 27.8278 244.5057 27.9888 244.4527 28.3898 244.3727 28.5508 244.0517 28.1228 244.5857 27.1338 244.3727 26.7868 244.0517 27.0798 243.5167 28.2568 242.4467 29.0048 242.2867 29.2458 242.0987 29.5668 241.2977 30.0218 241.1087 30.1818 241.0827 30.2898 240.9487 30.4498 240.8417 30.6628 240.7617 31.1718 240.6557 31.3848 240.6017 31.6258 240.7077 31.8128 241.0027 31.5458 241.0557 31.5188 241.2167 31.5458 241.2437 31.6528 241.1897 31.7598 241.2437 31.9198 242.6077 33.0968 243.1157 33.3108 243.6767 33.3108 244.2647 33.0438 244.3727 33.2568 244.3187 33.3648 244.1847 33.4708 244.0517 33.6048 243.8907 33.8988 243.8367 34.0588 243.8367 34.6208 243.7307 35.2358 243.6227 35.4768 243.4897 35.6368 243.2497 35.8248 242.9547 35.9588 242.6337 36.0108 242.4467 36.0918 241.9647 36.7338 241.5647 37.0808 241.3507 37.2678 241.2977 37.3478 240.7887 37.8568 240.6017 37.9908 240.3617 38.0428 240.0397 38.0168 239.7727 37.9368 239.6127 37.6428 239.4787 37.5618 239.3177 37.4808 239.1847 37.4548 238.8367 37.4808 238.7567 37.4548 238.7297 37.3478 238.5437 37.1338 238.3277 37.1078 238.1677 37.2408 238.0077 37.7498 237.8477 37.8828 237.6067 37.9108 237.3387 37.9108 237.3657 38.2568 237.4997 38.3908 237.7147 38.4718 237.9007 38.6048 238.2757 39.1658 239.2907 42.0548 239.3447 42.4028 239.3177 42.6698 239.2107 43.2848 239.1847 43.8728 239.2907 44.5148 239.4787 45.1308 239.8267 45.5838 240.3617 46.0918 240.6017 46.4128 240.6277 46.7338 240.4147 46.9748 240.0667 46.9748 239.7187 46.8138 239.4527 46.6268 239.3177 46.5728 239.0237 46.6008 238.8637 46.5208 238.6237 46.3328 238.4897 46.2798 238.0347 46.3328 237.7147 46.2528 236.8317 45.9318 236.6437 45.7978 236.5097 45.5838 236.3227 44.0868 236.1637 43.4718 235.6547 42.2958 235.5207 41.6798 235.4677 40.4508 235.5737 39.2468 235.4937 38.6858 235.4677 38.0968 235.3607 37.7768 235.2807 37.9108 235.1467 38.0168 235.0127 38.1238 234.8527 38.2038 234.4777 38.5518 234.4247 38.7658 234.4247 39.0338 234.3177 39.2728 234.0777 39.4078 233.8097 39.4078 233.5417 39.3808 233.2487 39.3528 232.9007 39.4608 232.6327 39.6218 232.1517 40.1028 231.8837 40.2628 231.3227 40.5048 231.1627 40.6368 231.1627 40.8778 231.2697 41.1718 231.5637 41.7338 231.6697 42.0548 231.7237 42.3758 231.7767 44.1678 231.8837 44.7288 232.1517 45.1568 232.4457 45.2638 232.6867 45.2368 232.7927 45.2908 232.7667 45.7438 232.6067 46.3058 232.4987 46.5728 232.3387 46.8408 231.8837 47.2688 231.7767 47.4298 231.8037 47.7498 232.2587 47.5358 232.3117 47.8038 232.2057 48.0978 231.8567 48.6048 231.7497 48.9008 231.6697 49.5418 231.5637 49.7568 230.1467 51.0928 229.4237 51.5208 228.8087 51.4398 228.7287 51.3328 228.6227 50.9588 228.5427 50.7988 228.4087 50.6658 228.0867 50.4508 227.1237 49.5678 226.9097 49.2748 226.7507 48.9808 226.4567 47.9918 226.2417 47.8038 225.9747 47.7768 225.3327 47.9108 224.6647 47.7768 224.1567 47.7238 224.0767 47.5898 224.0487 47.3488 224.1027 47.2688 224.3167 47.0828 224.3697 46.9488 224.2627 46.2528 224.0487 45.9318 224.0487 45.5038 223.9427 45.0768 223.8357 44.9158 223.6757 44.7548 223.6487 44.6488 223.6217 44.5148 223.5947 44.4078 223.4867 44.3808 223.2467 44.3808 223.1397 44.3278 223.0337 44.0068 222.8457 43.8988 222.4717 43.7388 221.9647 43.3648 221.6427 43.2048 220.8137 43.0698 219.8237 42.5888 219.4767 42.6968 219.3707 42.9368 219.7177 44.3808 219.7177 45.1028 219.5567 45.7438 219.2367 46.2528 219.3427 46.8678 219.0227 47.5898 215.8137 51.7608 212.1227 54.9438 211.4807 55.3178 211.1877 55.5588 211.0807 55.8258 211.0267 56.2008 210.8927 56.5478 210.5447 57.1638 209.8237 57.9648 209.7167 58.1528 209.6357 58.2328 209.2617 58.5268 209.1817 58.6598 209.1557 59.0088 209.1277 59.1158 209.0747 59.2478 208.8077 59.6488 207.6037 60.7188 207.0957 61.5218 207.0427 61.6548 206.8817 61.7358 206.1337 62.3768 205.7327 62.6718 205.6247 62.8048 205.8127 63.1258 205.4917 63.7148 204.6897 64.5968 204.1817 64.8648 201.5077 65.6938 201.3197 65.6668 200.3837 66.0398 198.0577 66.5488 193.8327 67.6448 189.4737 68.7948 187.1477 68.8748 184.2327 69.4628 183.7517 69.6768 182.0937 70.7198 180.9977 71.5488 180.8367 71.7358 180.7297 71.9508 180.6497 72.5378 180.3817 73.4748 180.3817 73.8488 180.4627 74.0898 180.6227 74.2498 180.8107 74.4368 181.0517 74.5698 181.6387 74.7318 181.9607 74.8388 181.8797 74.8918 181.8527 74.8918 181.8257 74.8918 181.7457 74.8388 181.4527 75.1058 181.0777 75.0798 180.6497 74.9718 180.1957 74.9458 180.3017 75.1598 180.4897 75.8008 180.5957 75.9888 181.1047 76.4698 181.4247 76.7638 181.5327 77.0578 181.2387 76.8708 180.9707 76.6838 180.8367 76.6568 180.3297 76.7368 180.1957 76.7638 179.7137 77.1118 179.5807 77.1378 179.4727 77.0578 179.3667 76.9778 179.2867 76.9238 179.1527 76.8438 178.7777 76.3618 178.6177 76.2288 178.0827 76.0688 177.8957 75.9348 177.7617 75.6678 177.3887 75.9888 177.1737 76.3888 177.0397 77.4588 176.8527 78.1808 176.8267 78.4748 176.9327 78.5828 177.2267 78.6348 177.4947 78.7428 177.6817 79.0358 177.3607 78.9828 177.0667 79.1158 176.8267 79.3578 176.7187 79.5978 176.7457 79.9448 176.8267 80.1328 177.0397 80.1588 178.1357 79.9988 178.4577 80.0528 178.8587 80.3208 179.0187 80.3738 179.1797 80.3468 179.2867 79.9728 179.4467 79.8118 179.6337 79.7318 179.7677 79.8648 179.7397 79.9988 179.4467 80.3738 179.3407 80.4808 179.1257 80.6148 179.0187 80.6408 178.4577 80.5348 178.1627 80.4268 177.8677 80.4008 177.6817 80.6148 177.7077 80.9618 178.0827 81.3098 177.7077 81.3368 177.4147 81.2298 177.2267 81.2028 177.1467 81.2828 177.1197 81.6298 176.6657 83.0478 176.2107 84.0638 175.8637 84.5708 175.7297 84.8668 175.6757 85.1608 175.7297 85.2938 175.9697 85.4278 175.9967 85.5078 175.8897 85.6138 175.5427 85.6938 175.4627 85.7748 175.4887 86.0158 175.5697 86.2298 175.9167 86.8178 175.9967 86.8988 176.0767 86.9248 176.3717 86.9788 176.4257 87.0318 176.4517 87.1128 176.6387 87.3528 176.6387 87.5398 176.6927 87.5928 176.7987 87.5658 177.0927 87.6468 177.2267 87.6468 177.3607 87.6738 177.6277 87.8878 177.7877 87.9408 178.0827 88.0218 177.7617 88.1278 177.4947 87.9948 177.2807 87.8348 177.0927 87.8878 176.7457 88.0478 176.5057 87.8348 176.2907 87.4598 176.1037 87.1928 175.7837 87.0848 175.4627 87.1128 174.5797 87.2728 174.4457 87.4858 174.3127 88.0218 174.0987 88.5558 174.0717 88.6898 174.0987 89.1448 174.1787 89.3308 174.4727 89.5988 174.7407 90.3478 174.9807 90.5618 175.6757 90.8298 175.9437 91.0158 176.1567 91.2568 176.4257 91.4178 176.6927 91.4978 177.0397 91.4978 177.5747 91.2288 177.7617 91.1768 177.9757 91.2028 178.4037 91.3638 178.6447 91.3908 178.7507 91.4978 178.9107 91.8988 178.9647 92.0058 179.1797 92.0588 179.6067 92.1918 179.8477 92.2198 179.2067 92.5408 178.5907 92.2458 178.0557 91.7908 177.5477 91.5778 177.2267 91.6848 176.7187 91.9518 176.3717 92.0058 176.1567 91.9518 175.2477 91.4978 174.6607 91.0968 173.5097 89.9198 172.8427 89.4918 171.5577 88.9838 170.8367 88.8768 170.4347 89.1968 170.4347 89.4378 170.5147 89.7068 170.5417 89.9998 170.3807 90.2938 170.0877 90.5618 169.7927 90.6958 169.4717 90.7498 169.0717 90.7758 169.0717 90.6418 169.6587 90.2678 169.9277 89.9998 170.0077 89.6268 169.8197 89.2508 169.4457 89.0368 168.5637 88.7698 167.9207 88.4218 167.7067 88.3688 167.5467 88.3688 167.2257 88.5288 167.0927 88.5558 166.9047 88.5028 166.8517 88.3688 166.8247 88.2078 166.6637 88.0218 166.4507 87.9408 166.2367 87.9678 165.8357 88.1278 165.9157 87.9678 166.1827 87.6738 166.2367 87.5658 166.2647 87.2728 166.3437 87.0318 166.4777 86.8178 166.6637 86.5768 166.4777 86.3098 166.2367 86.3368 165.9687 86.4698 165.4887 86.6308 165.3017 86.9248 165.1667 86.9788 164.8197 86.9788 164.6857 86.9518 164.5797 86.8988 164.4717 86.8448 164.3917 86.7648 164.3117 86.6838 164.2577 86.5768 164.2577 86.4698 164.2847 86.2558 164.2577 86.1498 164.2037 86.0698 164.0697 85.8828 163.9637 85.4278 163.7507 85.3468 163.5097 85.5078 163.3217 85.8558 163.2947 85.9898 163.3217 86.4698 163.3487 86.5228 163.4027 86.6838 163.4297 86.7918 163.3757 86.8718 163.2407 87.0588 163.1607 87.3258 163.0547 87.2988 162.6797 86.8718 162.5997 86.8178 162.5197 86.8448 162.3587 86.8988 162.2517 86.9518 162.0117 87.1648 161.9577 87.1928 161.7707 87.1388 161.4767 86.9518 161.2897 86.8988 159.3377 86.8718 158.9907 86.9248 158.7767 87.0318 158.5887 87.0848 157.8407 87.0848 157.6257 87.0318 157.4397 86.7918 157.1727 86.2558 156.9847 86.0158 156.7167 85.8018 156.1017 85.5338 155.5677 85.1868 154.6307 84.7848 154.3107 84.5708 154.0167 84.2778 153.5887 83.6358 153.4277 83.3148 153.4557 83.0478 153.5357 82.8328 153.5887 82.5928 153.5617 82.2988 153.4017 81.6838 153.3747 81.3368 153.2947 81.0678 152.9997 81.8708 152.5987 82.5928 152.3857 82.9398 152.2247 83.1288 151.6637 83.5818 151.5297 83.7958 151.5037 84.0108 151.6097 84.5708 151.6097 84.6788 151.6097 84.7848 151.6897 84.9998 151.7967 85.1868 151.9307 85.3738 152.0907 85.5078 152.3057 85.5878 152.9737 85.5878 153.2417 85.6938 153.3217 85.9898 153.2147 87.1928 153.2417 87.8878 153.3217 88.1818 153.4817 88.5028 153.7757 88.8768 155.1397 90.0268 155.2467 90.1878 155.2737 90.6158 155.3797 90.6418 155.6737 90.4818 155.7807 90.5888 156.0497 91.2288 156.3157 91.4448 156.6107 91.4708 156.9317 91.4448 157.2247 91.4448 157.4917 91.5778 157.6797 91.8448 157.9737 92.7278 158.1617 93.0478 158.3487 93.2088 158.9107 93.4768 159.1767 93.7428 159.4977 94.3328 159.8457 94.5728 160.1397 94.6798 161.0487 94.8138 161.3167 94.9468 161.5307 95.2678 161.8777 95.9088 162.6277 97.0328 162.7077 97.3798 162.7337 97.7008 162.8947 97.7548 163.0807 97.7008 163.3217 97.6468 164.0977 97.8348 164.2847 97.9158 164.5257 98.1288 165.1667 99.0118 165.7547 99.4658 166.4507 99.7878 167.1737 99.8938 167.8147 99.5998 167.9747 99.4118 168.0287 99.2788 168.0827 99.2258 168.2687 99.2518 168.3767 99.3318 168.4827 99.4398 168.6157 99.5458 168.8297 99.5728 169.0177 99.4928 169.3117 99.2258 169.4717 99.1188 169.5527 99.1188 169.7127 99.1988 169.7927 99.1988 170.0877 99.0648 170.1147 99.0118 170.3007 98.9308 170.3547 98.9588 170.4887 99.0918 170.5957 99.0918 170.7017 99.0118 170.7287 98.9048 170.7287 98.6368 170.8897 98.3968 171.7457 97.6468 172.1727 97.4598 172.6277 97.3798 173.5907 97.3538 177.0127 96.4708 177.3067 96.4978 179.3667 97.4078 179.7137 97.5138 180.0347 97.5138 180.3297 97.4598 180.9437 97.2738 181.2117 97.2738 181.3727 97.4338 181.4527 97.6468 181.5047 97.9158 181.6927 98.2628 181.8797 98.1558 182.2277 97.6468 183.5107 97.1668 183.7247 97.1138 184.0187 97.1398 184.4197 97.2468 185.2227 97.5938 185.6507 97.7268 186.5597 97.4878 187.8967 95.8828 188.8597 95.5618 190.0887 95.5888 190.4907 95.5088 190.7047 95.4278 190.8107 95.2418 191.6137 92.9418 192.0947 91.9788 192.1487 91.8188 192.1487 91.6308 192.0407 91.4978 191.6937 91.4978 191.6397 91.3638 191.7467 90.9888 192.0147 90.7498 193.7787 89.9198 194.1537 89.7868 195.0907 89.7068 195.3567 89.6268 195.6237 89.4108 195.8387 89.1968 196.0797 89.0368 196.4527 88.9568 201.0257 89.1708 201.4277 89.3048 201.5347 89.3048 201.6947 89.2248 201.8007 89.0908 201.9087 88.9568 202.0417 88.8238 202.3367 88.7178 202.5777 88.7438 202.8437 88.8238 203.1387 88.9038 203.8867 88.8768 204.1547 88.9038 204.5017 89.0648 204.7697 89.1968 204.9027 89.4108 204.9297 89.7588 204.8227 90.1068 204.6617 90.3738 204.4227 90.6418 203.9667 90.9888 203.8607 91.1488 203.9137 91.2568 204.1547 91.2828 204.7157 91.0688 205.3317 90.9628 205.9187 91.0158 206.4807 91.3108 206.9897 91.6848 207.2037 91.7648 207.8717 91.7908 208.7807 91.9788 209.5027 92.2458 210.6257 93.1288 211.3217 93.1558 211.9357 92.8878 212.2567 92.8078 212.5777 92.8338 212.8987 93.0218 213.6737 93.9308 214.1017 94.1448 214.4767 94.0638 216.9087 92.4338 217.8177 91.2568 218.1667 90.9628 218.4607 90.8558 220.6527 90.5088 221.2687 90.5088 221.8307 90.6688 221.9907 90.8018 222.1247 90.9888 222.2847 91.1228 222.4717 91.2028 222.6317 91.1488 222.9537 90.9098 225.2787 89.9468 225.5737 89.8668 225.9207 89.9198 226.2687 90.1068 227.4717 90.9628 227.8197 91.0428 228.1667 90.9628 228.4087 90.7498 228.5147 90.4548 228.5147 90.1068 228.4347 89.7868 228.4347 89.4108 228.6227 89.1708 229.1567 88.7438 229.3707 88.4758 229.7717 87.8078 230.0657 87.0048 230.2267 85.9628 230.1997 85.4808 230.1737 85.2938 230.1197 85.1868 230.0927 85.0808 230.1467 84.8928 230.2267 84.7588 230.3607 84.6248 230.5207 84.5188 230.6807 84.4378 231.4837 84.3308 232.3387 84.0108 232.5527 83.8228 232.5787 83.5288 232.4987 83.2088 232.4987 82.9398 232.5787 82.6998 232.7127 82.3788 232.7397 82.1918 232.7397 81.9508 232.6867 81.7638 232.5267 81.6578 232.1787 81.6838 231.9377 81.8178 231.7497 81.7908 231.6177 81.4438 231.5897 81.3098 231.6177 80.8008 231.5637 80.6408 231.4027 80.4008 231.3497 80.2668 231.3227 79.9988 231.5097 79.1698 231.7237 78.5548 232.2057 78.2878 233.3817 78.1268 233.7827 77.9928 233.8897 77.8328 233.8367 77.5938 233.8097 77.2718 233.9167 76.9238 234.1037 76.8168 234.6917 76.8708 234.9867 76.6838 235.6547 76.1218 235.9227 76.0148 236.1357 75.8808 236.7247 75.2128 237.0447 75.0258 237.7407 74.9458 238.0617 74.8388 238.2757 74.5438 238.2217 74.2768 238.0617 73.9288 237.8207 73.5548 237.5807 73.3138 237.4457 73.2068 237.2587 73.1268 237.0447 73.0738 236.8577 73.0478 236.6977 73.0998 236.3767 73.2608 236.2157 73.2608 235.9757 73.0478 236.0017 72.7258 236.1357 72.3778 236.2157 72.0848 236.1637 71.9238 236.0017 71.6288 235.9757 71.4688 236.0817 71.2818 236.2157 71.2288 236.3767 71.2018 236.5367 71.0678 236.7247 70.6928 236.6177 70.3998 236.2157 69.8918 236.1357 69.6768 236.1637 69.6238 236.2957 69.5438 236.5097 69.3828 236.6177 69.1968 236.6977 69.0348 236.7247 68.8748 236.7777 68.7148 236.9917 68.3938 237.2327 68.1528 238.1137 67.5648 238.3017 67.3508 238.5437 66.8168 238.8097 66.4158 239.0237 66.4958 239.4257 67.0568 239.8527 67.2708 240.3347 67.1898 241.3237 66.7628 241.9647 66.6828 242.2067 66.5758 242.3407 66.2808 242.3937 65.6398 242.4737 65.3718 243.0077 64.6508 242.9807 64.5438 242.7397 64.4638 242.5007 64.1688 242.5007 63.9018 243.0347 61.6018 243.3027 60.8808 243.6227 60.5588 243.7827 60.5858 243.9167 60.6388 244.0517 60.6918 244.2127 60.6388 244.2927 60.4788 244.2927 60.3188 244.1587 59.9978 243.9167 59.5428 243.8637 59.3558 243.8637 59.1958 243.8907 58.9008 243.8637 58.7398 243.4897 57.8048 243.4357 57.4298 243.4357 56.8418 243.5167 56.2268 244.1317 54.4628 244.1047 53.9538 243.8907 53.7408 243.5697 53.5528 243.3297 53.3388 243.3557 52.9908 243.4627 52.8838 243.9977 52.5898 244.1317 52.4298 244.4257 51.8148 244.6127 51.1728 244.7997 49.8098 244.8797 49.5418 245.0147 49.1948 245.1477 49.0608 245.4417 48.9538 245.5487 48.8738 245.6547 48.7138 246.2967 48.1238 246.4307 48.1778 246.5377 48.3118 246.6717 48.3918 246.8867 48.3388 246.9667 48.1778 247.0197 47.9648 247.6067 47.4828 247.6877 47.0288 247.6607 46.5208 247.8217 46.0398 248.0087 45.8248 248.1957 45.7978 248.3287 45.9318 248.4097 46.1728 248.5427 46.3868 248.8387 46.4668 249.5057 46.5208 249.8537 46.6528 250.0407 46.7608 250.1477 46.8678 250.2007 47.1088 250.3087 47.3488 250.4687 47.5358 250.7097 47.6438 250.8967 47.5358 251.6457 46.8138 251.9137 46.6268 252.0727 46.4928 252.1797 46.3058 252.3137 45.9858 252.4747 46.0658 252.6347 46.0918 252.9827 46.1198 253.6777 46.3058 253.8917 46.3328 254.3197 46.2258 254.7467 45.9858 255.1487 45.9318 255.5497 46.3058 255.6567 46.3328 255.7637 46.3058 255.8697 46.3328 255.9237 46.4128 255.9777 46.6268 256.3777 47.2688 256.5117 47.3488 256.6727 47.3758 256.8327 47.3228 257.2077 46.9218 257.3687 46.9488 257.5547 47.0018 257.8217 46.9218 257.9557 46.8138 257.9027 46.7068 257.8487 46.6008 257.8217 46.4398 257.9557 46.2258 258.2777 45.9048 258.3837 45.7178 258.5437 45.7438 259.2127 46.7068 259.4267 46.7068 259.8017 46.5208 260.2027 46.6808 260.4957 46.6528 260.7907 46.5728 261.2717 46.1728 261.5387 46.1998 262.1007 46.6008 262.6897 46.7338 263.8927 46.4928 264.5087 46.4928 265.3897 46.7338 268.1977 46.6808 268.3317 46.6008 268.5987 46.3868 268.7857 46.3328 268.9997 46.3868 269.1067 46.4928 269.1867 46.6268 269.3207 46.7868 269.8817 47.1888 271.1127 47.8038 271.9957 48.7138 272.3427 48.9538 272.7707 49.0608 273.3047 49.1408 273.5457 49.1408 273.9467 49.1148 274.2137 49.2208 274.3477 49.3278 274.9897 49.0868 275.0967 49.0608 275.2567 49.0868 275.1507 48.9538 274.8827 48.6858 274.8297 48.6048 274.8827 48.4988 274.9627 48.3918 275.0427 48.2578 275.1507 48.1518 275.4707 47.9378 275.6047 47.8038 275.6587 47.6158 275.6587 47.4298 275.4167 47.2148 275.3637 47.0548 275.3637 46.4128 275.2837 46.2528 274.9897 46.0658 274.9367 45.9318 275.0697 45.7718 275.3637 45.5038 275.7127 45.2908 275.9257 45.2638 276.1657 45.5578 276.3257 45.8518 276.4877 46.1198 276.8347 46.3598 276.9687 46.4128 277.3427 46.4668 277.8247 46.6528 278.0377 46.6808 278.0917 46.7608 278.1977 47.0288 278.2517 47.1088 278.3867 47.1348 278.5197 47.1888 278.7337 47.2958 279.3217 47.8578 279.5087 47.9378 279.7487 47.9648 280.6857 48.2578 281.0327 48.2318 283.0657 47.2148 283.4137 47.1088 284.6697 46.9748 286.0337 46.6008 286.1667 46.5208 286.3547 46.2528 286.5947 46.4128 286.9427 46.4928 287.6117 46.4668 287.9057 46.4398 288.3867 46.2798 288.6547 46.2528 289.2417 46.2798 289.4827 46.2258 289.6967 46.0658 289.8577 45.9048 290.0177 45.7178 290.0977 45.4778 290.0177 45.2108 290.2307 45.2908 290.3917 45.3438 290.5257 45.3708 290.6867 45.2638 290.8207 45.1028 290.8207 44.9958 290.2047 44.3278 290.0437 44.0598 290.1247 43.8458 289.9377 43.7658 289.5637 43.7118 289.4027 43.6318 288.9487 43.9528 288.6807 44.1138 288.5477 44.0068 288.4667 43.8988 288.2787 43.7388 288.1457 43.5798 288.1987 43.3648 288.3587 43.1778 288.4397 42.9898 288.4127 42.8028 288.2527 42.5888 288.0387 42.4558 287.7457 42.3758 287.5307 42.4288 287.5037 42.6968 287.2367 42.5888 287.1297 42.5368 287.0227 42.4288 286.9697 42.3228 286.8367 42.0548 286.7827 41.9468 286.6487 41.9208 286.3267 41.8668 286.1937 41.8668 286.0607 41.8138 285.9267 41.7338 285.7397 41.5458 285.2047 41.1458 284.7227 40.7178 284.2947 40.2358 283.9477 39.6748 283.7607 39.2198 283.6807 39.0858 283.5727 39.0058 283.1997 38.7388 283.0927 38.7128 283.0117 38.6328 283.0117 38.4718 283.0387 38.2838 283.1727 38.1768 283.4137 37.9908 284.2687 37.0278 284.8307 36.7068 285.4177 36.8398 285.3917 36.6258 285.4177 36.4918 285.4987 36.4388 285.6057 36.5198 286.0867 36.1188 286.4067 35.9048 286.5677 35.9588 286.7027 35.8778 287.0227 35.9588 287.5037 36.2248 288.0387 36.8138 288.3067 37.2948 288.3867 37.4008 288.6007 37.5348 288.7347 37.5618 289.0817 37.3478 289.5107 37.0018 289.6967 36.9198 289.9117 36.9198 290.2047 37.0278 290.6597 37.0808 291.1407 37.2948 291.3827 37.3478 291.7027 37.3208 292.0767 37.2148 292.4237 37.0538 292.9857 36.7068 295.8197 35.8778 298.6277 34.8878 299.2167 34.5398 299.9647 33.7378 300.3127 33.4168 300.3657 33.0438 300.2857 32.3218 300.3127 32.0808 300.4457 31.5728 300.4997 31.2248 300.4197 30.9838 300.2857 30.7698 299.9647 30.4498 299.5907 29.9678 299.3767 29.7278 299.1357 29.6208 298.7357 29.6738 297.5587 30.2358 297.1037 30.2088 296.3557 29.8338 296.0087 29.8338 295.7937 29.9418 295.8197 30.0748 295.9277 30.2358 295.8737 30.4498 295.6867 30.5558 295.4467 30.5558 295.2057 30.4758 295.0457 30.3418 295.3127 30.1818 295.2587 29.8598 294.9917 29.5408 294.6707 29.4068 294.4037 29.3268 293.6807 28.7648 293.6807 28.9248 293.6547 29.0318 293.6007 29.1118 293.4947 29.1918 293.3867 28.8188 293.1737 28.5238 292.8787 28.3098 292.4777 28.2568 292.2107 28.1228 291.9157 27.8558 291.1937 26.9728 290.9007 26.7868 290.5797 26.7588 290.1777 27.0528 290.1247 27.2138 290.1247 27.6148 290.0717 27.7758 289.9637 27.9098 289.8577 28.0688 289.6967 28.4708 289.5907 28.4708 289.5107 28.1488 289.5367 27.8278 289.6437 27.4808 289.8037 26.6258 289.8577 26.5718 289.9637 26.5188 290.0717 26.4108 290.1247 26.2768 290.0437 26.0908 289.8037 25.9298 289.5367 25.7958 289.3217 25.6898 288.7887 25.2348 287.2367 24.3248 286.9427 24.2728 286.8367 24.2188 286.7027 24.1118 286.5407 24.0588 286.4067 24.1118 286.2467 24.2988 286.1667 24.3528 286.0867 24.3248 285.2847 23.9248 284.9647 23.8448 284.3487 24.1388 283.6527 24.1918 283.4137 24.3788 283.3857 24.5388 283.5197 24.8068 283.4657 24.9408 283.3857 25.0478 283.3057 25.1548 283.1997 25.4218 283.2797 25.5828 283.2797 25.7158 283.1457 25.9038 283.0117 25.9568 282.9047 25.9038 282.7437 25.6898 282.5837 25.6098 282.4237 25.6358 282.2907 25.7158 282.1567 25.7438 282.0227 25.6898 281.9147 25.5558 281.8087 25.5288 281.5407 25.5828 280.9257 25.8768 280.6857 25.9298 280.4987 25.9838 280.4187 26.0098 280.3647 26.0098 280.2307 25.9038 279.7767 24.7008 279.6967 24.5928 279.5627 24.5128 279.5887 24.3248 279.7487 24.1388 280.0167 24.0588 280.9527 24.1388 281.2197 24.0588 281.4877 24.1648 281.8617 24.1388 282.2097 24.0318 282.4237 23.8978 282.8777 23.3098 282.8517 23.2018 282.7717 23.1228 282.1297 22.2668 282.0497 21.9198 282.0767 21.5978 282.0497 21.4108 281.7807 21.2778 281.7547 21.1438 281.7807 20.9838 281.7287 20.8218 281.2197 20.2888 281.0057 20.2348 280.8997 20.2888 280.8197 20.3408 280.5517 20.5018 280.0697 21.1438 279.6427 21.4378 279.4287 21.6248 279.3487 21.8118 279.1877 21.9198 278.4667 22.0528 278.1977 22.0798 277.9847 22.0268 277.7967 21.9728 277.6367 21.9728 277.4767 22.0798 277.6107 22.4538 277.5037 22.6138 277.2347 22.6408 276.4877 22.5608 275.4707 22.6938 274.3747 22.6938 274.0007 22.8018 273.1187 23.1758 272.8507 23.2298 273.1987 22.8288 275.1507 22.1868 275.6847 21.8388 275.8987 21.6248 275.9787 21.3838 275.8987 21.0108 275.6847 20.9298 275.4437 20.8498 275.3637 20.6088 275.3907 20.4218 275.5247 20.3688 275.6587 20.3148 275.7927 20.1808 275.8457 19.9938 275.8457 19.8598 275.8187 19.7528 275.7927 19.5928 275.7387 19.5128 275.4977 19.4318 275.2567 18.8178 274.9367 18.4428 274.8557 18.2028 274.9897 17.9348 275.4437 17.5338 275.7127 17.3468 275.9787 17.2668 276.4877 17.3468 276.7277 17.3198 276.8347 17.1048 276.9687 16.0898 276.8077 15.6888 276.8877 15.5288 276.9947 15.3948 277.0487 15.2608 277.0217 15.1528 276.8877 14.8868 276.8347 14.7528 276.8077 14.5658 276.8077 14.4318 276.7817 14.3238 276.7277 14.2178 276.6217 14.1378 276.5417 14.1378 276.4607 14.1918 276.4067 14.3238 276.2997 14.3238 276.1397 13.9778 275.9787 13.7368 275.6327 13.3348 275.4707 13.2548 275.3107 13.2818 275.0967 13.3888 274.9097 13.3618 274.7497 13.2818 274.5347 13.0688 274.4547 13.0408 274.2677 12.9878 274.2137 12.9608 274.1877 12.9078 274.2137 12.8008 274.2417 12.7208 274.3217 12.7478 273.9467 12.3988 273.8937 12.3728 273.8937 11.9718 273.8407 11.7308 273.7057 11.7308 273.4657 12.0258 273.0907 12.6138 272.9307 12.8008 272.6897 12.8538 272.4487 12.7738 272.1817 12.5868 271.7807 12.2388 271.4597 11.8388 271.2467 11.6778 271.0057 11.5978 270.3907 11.6238 270.2037 11.4898 270.0157 11.1688 269.9627 10.9288 269.9087 9.9658 269.8287 9.6978 269.2947 8.9768 269.2147 8.7358 269.1607 8.4148 269.2407 8.1478 269.4547 8.0418 269.5077 7.8798 269.6157 7.1588 269.5877 6.8908 269.5347 6.7568 269.4547 6.7038 268.6527 6.2228 268.5987 6.1698 268.4917 6.1158 268.0907 5.9548 267.9827 5.9008 267.8767 5.8748 267.6357 6.0888 267.5017 6.1698 267.3957 6.1428 267.2357 6.0618 267.0477 6.0088 266.8877 6.0618 266.8067 6.1698 266.7807 6.3298 266.8067 6.4908 266.9407 6.5708 266.9937 6.6228 266.9407 6.7308 266.8607 6.8368 266.7267 6.8908 266.5407 6.8368 266.3797 6.8108 266.2727 6.8108 266.1387 6.9978 266.1387 7.3188 266.4597 7.9878 266.5667 8.3088 266.4867 8.5228 265.9247 9.0848 265.7107 9.5118 265.6037 9.5918 265.5237 9.6178 265.4437 9.6718 265.3897 10.2068 265.2827 10.3938 264.7747 10.7688 264.1067 11.4098 263.8927 11.4898 263.7317 11.6238 263.5457 11.8918 263.3307 12.1858 263.0097 12.3188 262.3677 12.1858 262.2877 11.6508 262.5017 10.9828 262.7967 10.4468 263.3037 9.7258 263.4647 9.3248 263.5177 8.7088 263.4377 8.4148 263.1977 8.2818 262.9557 8.1748 262.7967 8.0418 262.7967 7.9338 262.9037 7.4518 262.9557 7.3998 263.1437 7.4518 263.4107 7.6138 263.1977 6.5168 263.1177 6.3568 262.4747 5.9278 262.3147 5.5808 262.2877 5.5278"></polygon>
            <polygon id="Stroke-35" stroke="#E75F52" stroke-linecap="round" stroke-linejoin="round" points="300.4464 31.5725 300.5004 31.2245 300.4204 30.9845 300.2864 30.7695 299.9654 30.4495 299.5914 29.9685 299.3774 29.7275 299.1354 29.6205 298.7354 29.6745 297.5584 30.2355 297.1034 30.2085 296.3554 29.8345 296.0084 29.8345 295.7944 29.9415 295.8204 30.0755 295.9274 30.2355 295.8744 30.4495 295.6864 30.5555 295.4464 30.5555 295.2054 30.4755 295.0454 30.3425 295.3124 30.1815 295.2594 29.8605 294.9914 29.5405 294.6714 29.4065 294.4034 29.3265 293.6804 28.7645 293.6804 28.9255 293.6544 29.0325 293.6004 29.1125 293.4944 29.1925 293.3864 28.8185 293.1734 28.5235 292.8794 28.3095 292.4774 28.2575 292.2104 28.1235 291.9164 27.8555 291.1944 26.9725 290.9004 26.7865 290.5794 26.7595 290.1774 27.0525 290.1254 27.2145 290.1254 27.6145 290.0714 27.7755 289.9644 27.9095 289.8574 28.0695 289.6964 28.4705 289.5904 28.4705 289.5094 28.1495 289.5364 27.8285 289.6434 27.4805 289.8034 26.6255 289.8574 26.5715 289.9644 26.5185 290.0714 26.4115 290.1254 26.2775 290.0444 26.0915 289.8034 25.9295 289.5364 25.7965 289.3224 25.6895 288.7884 25.2345 287.2364 24.3255 286.9424 24.2725 286.8364 24.2185 286.7024 24.1115 286.5414 24.0585 286.4074 24.1115 286.2474 24.2995 286.1674 24.3525 286.0874 24.3255 285.2844 23.9255 284.9644 23.8445 284.3484 24.1385 283.6534 24.1915 283.4134 24.3795 283.3854 24.5395 283.5194 24.8065 283.4664 24.9405 283.3854 25.0485 283.3054 25.1545 283.1994 25.4225 283.2794 25.5825 283.2794 25.7165 283.1454 25.9035 283.0114 25.9575 282.9044 25.9035 282.7444 25.6895 282.5844 25.6095 282.4244 25.6355 282.2904 25.7165 282.1564 25.7435 282.0224 25.6895 281.9154 25.5555 281.8084 25.5295 281.5414 25.5825 280.9254 25.8775 280.6854 25.9295 280.4984 25.9835 280.4184 26.0105 280.3644 26.0105 280.2304 25.9035 279.7764 24.7005 279.6964 24.5935 279.5624 24.5125 279.5894 24.3255 279.7494 24.1385 280.0164 24.0585 280.9534 24.1385 281.2194 24.0585 281.4874 24.1655 281.8624 24.1385 282.2094 24.0315 282.4244 23.8975 282.8784 23.3095 282.8514 23.2025 282.7714 23.1225 282.1294 22.2665 282.0494 21.9195 282.0764 21.5975 282.0494 21.4115 281.7814 21.2775 281.7554 21.1435 281.7814 20.9835 281.7284 20.8225 281.2194 20.2885 281.0064 20.2345 280.8994 20.2885 280.8194 20.3415 280.5514 20.5025 280.0704 21.1435 279.6424 21.4375 279.4284 21.6255 279.3484 21.8115 279.1874 21.9195 278.4664 22.0525 278.1984 22.0795 277.9844 22.0265 277.7974 21.9725 277.6364 21.9725 277.4764 22.0795 277.6104 22.4545 277.5034 22.6145 277.2354 22.6405 276.4874 22.5605 275.4704 22.6945 274.3754 22.6945 274.0004 22.8015 273.1184 23.1765 272.8504 23.2295 273.1984 22.8285 275.1504 22.1865 275.6844 21.8395 275.8984 21.6255 275.9784 21.3845 275.8984 21.0095 275.6844 20.9295 275.4444 20.8495 275.3644 20.6085 275.3904 20.4225 275.5244 20.3685 275.6584 20.3145 275.7924 20.1805 275.8454 19.9935 275.8454 19.8605 275.8184 19.7535 275.7924 19.5935 275.7384 19.5125 275.4984 19.4315 275.2574 18.8175 274.9364 18.4425 274.8554 18.2025 274.9894 17.9345 275.4444 17.5335 275.7124 17.3465 275.9784 17.2665 276.4874 17.3465 276.7274 17.3195 276.8354 17.1055 276.9684 16.0905 276.8074 15.6885 276.8874 15.5285 276.9954 15.3945 277.0494 15.2605 277.0214 15.1535 276.8874 14.8865 276.8354 14.7535 276.8074 14.5655 276.8074 14.4315 276.7814 14.3245 276.7274 14.2185 276.6214 14.1375 276.5414 14.1375 276.4604 14.1915 276.4074 14.3245 276.3004 14.3245 276.1394 13.9775 275.9784 13.7365 275.6324 13.3355 275.4704 13.2555 275.3104 13.2825 275.0964 13.3885 274.9094 13.3625 274.7494 13.2825 274.5354 13.0685 274.4554 13.0415 274.2674 12.9875 274.2144 12.9615 274.1874 12.9075 274.2144 12.8015 274.2414 12.7205 274.3214 12.7475 273.9464 12.3995 273.8934 12.3735 273.8934 11.9715 273.8404 11.7305 273.7064 11.7305 273.4664 12.0255 273.0914 12.6135 272.9304 12.8015 272.6904 12.8535 272.4494 12.7735 272.1814 12.5875 271.7804 12.2395 271.4604 11.8385 271.2464 11.6775 271.0054 11.5975 270.3904 11.6245 270.2034 11.4905 270.0154 11.1695 269.9624 10.9285 269.9094 9.9665 269.8294 9.6985 269.2944 8.9765 269.2144 8.7365 269.1604 8.4155 269.2404 8.1475 269.4544 8.0415 269.5084 7.8805 269.6154 7.1585 269.5884 6.8905 269.5344 6.7575 269.4544 6.7045 268.6524 6.2225 268.5984 6.1695 268.4914 6.1155 268.0914 5.9555 267.9834 5.9015 267.8774 5.8755 267.6354 6.0895 267.5024 6.1695 267.3954 6.1425 267.2354 6.0615 267.0484 6.0095 266.8874 6.0615 266.8064 6.1695 266.7804 6.3295 266.8064 6.4905 266.9404 6.5705 266.9944 6.6235 266.9404 6.7305 266.8604 6.8375 266.7264 6.8905 266.5404 6.8375 266.3794 6.8105 266.2724 6.8105 266.1384 6.9985 266.1384 7.3185 266.4594 7.9875 266.5664 8.3085 266.4864 8.5225 265.9254 9.0845 265.7114 9.5115 265.6034 9.5925 265.5234 9.6185 265.4434 9.6725 265.3894 10.2075 265.2834 10.3935 264.7744 10.7685 264.1064 11.4105 263.8924 11.4905 263.7314 11.6245 263.5454 11.8915 263.3314 12.1855 263.0094 12.3195 262.3684 12.1855 262.2884 11.6505 262.5024 10.9825 262.7964 10.4475 263.3034 9.7255 263.4654 9.3245 263.5174 8.7095 263.4374 8.4155 263.1974 8.2815 262.9564 8.1755 262.7964 8.0415 262.7964 7.9335 262.9034 7.4525 262.9564 7.3995 263.1434 7.4525 263.4114 7.6135 263.1974 6.5165 263.1174 6.3565 262.4744 5.9275 262.3144 5.5815 262.2884 5.5275 262.1004 5.5535 261.9404 5.6615 261.8064 5.7675 261.7264 5.9555 261.5664 6.1955 261.4854 6.2495 261.3794 6.3025 261.3514 6.4365 261.3254 6.7845 261.1914 7.3725 261.0574 7.6135 260.6304 7.8275 260.5764 8.0935 260.6034 8.6825 260.5234 8.8165 260.3364 9.0845 260.2824 9.1905 260.2564 9.3505 260.2824 9.8855 260.2564 10.2605 260.1754 10.5275 260.0144 10.7415 259.7744 10.9555 258.8394 12.2395 258.5714 12.4265 258.3574 12.5335 258.2504 12.7475 258.1964 13.0415 258.1704 13.3355 258.0904 13.6565 257.8764 13.8165 257.5824 13.9505 257.2874 14.1645 257.0734 14.4055 255.7104 15.4215 255.5764 15.5815 255.4964 15.7155 255.4424 15.7965 255.3084 16.3035 255.3084 16.3845 255.2824 16.4375 255.1484 16.5175 254.8274 16.4905 254.7204 16.5175 254.6674 16.5715 254.4264 16.8385 253.9984 17.0515 253.9984 17.1595 254.3994 17.1055 254.6934 16.9715 254.8814 16.9995 254.9344 17.5075 254.8544 17.6675 254.6674 17.6405 254.4264 17.5335 254.2654 17.4535 253.9984 17.5075 253.8114 17.5875 253.4644 17.8815 252.7414 18.9775 252.4744 19.1375 252.0194 19.2995 251.8594 19.5655 251.9934 19.7795 252.3414 19.6465 252.5814 20.1005 252.3414 20.7695 251.4044 22.2665 251.3244 22.5885 251.2704 23.2825 251.1904 23.6305 250.9504 23.8975 249.5594 24.6735 249.3454 24.8345 249.1854 25.1005 249.0784 25.3955 248.9714 26.0635 248.7844 26.6785 248.4904 27.3475 248.0894 27.9355 247.6074 28.3375 247.2064 28.4705 246.7784 28.4975 245.4154 28.4175 245.0934 28.2575 244.5864 27.8285 244.5064 27.9895 244.4524 28.3895 244.3724 28.5515 244.0504 28.1235 244.5864 27.1345 244.3724 26.7865 244.0504 27.0805 243.5164 28.2575 242.4464 29.0055 242.2864 29.2465 242.0984 29.5665 241.2974 30.0215 241.1094 30.1815 241.0834 30.2895 240.9494 30.4495 240.8424 30.6635 240.7614 31.1715 240.6554 31.3855 240.6014 31.6265 240.7084 31.8125 241.0034 31.5465 241.0554 31.5185 241.2174 31.5465 241.2434 31.6525 241.1894 31.7595 241.2434 31.9205 242.6074 33.0965 243.1154 33.3105 243.6764 33.3105 244.2644 33.0435 244.3724 33.2575 244.3184 33.3645 244.1844 33.4705 244.0504 33.6045 243.8904 33.8985 243.8374 34.0585 243.8374 34.6215 243.7304 35.2355 243.6234 35.4765 243.4894 35.6365 243.2494 35.8245 242.9554 35.9585 242.6334 36.0105 242.4464 36.0925 241.9654 36.7335 241.5644 37.0815 241.3504 37.2675 241.2974 37.3475 240.7894 37.8565 240.6014 37.9905 240.3614 38.0435 240.0404 38.0165 239.7724 37.9365 239.6124 37.6425 239.4784 37.5625 239.3184 37.4815 239.1844 37.4555 238.8374 37.4815 238.7574 37.4555 238.7294 37.3475 238.5434 37.1345 238.3284 37.1075 238.1684 37.2415 238.0084 37.7495 237.8474 37.8835 237.6064 37.9105 237.3394 37.9105 237.3664 38.2575 237.5004 38.3905 237.7144 38.4715 237.9004 38.6045 238.2754 39.1665 239.2914 42.0545 239.3444 42.4025 239.3184 42.6705 239.2114 43.2845 239.1844 43.8735 239.2914 44.5145 239.4784 45.1305 239.8264 45.5845 240.3614 46.0925 240.6014 46.4135 240.6284 46.7345 240.4144 46.9745 240.0664 46.9745 239.7184 46.8145 239.4524 46.6275 239.3184 46.5735 239.0234 46.6005 238.8634 46.5205 238.6234 46.3335 238.4894 46.2795 238.0344 46.3335 237.7144 46.2535 236.8314 45.9315 236.6434 45.7985 236.5094 45.5845 236.3234 44.0875 236.1634 43.4715 235.6544 42.2955 235.5204 41.6795 235.4674 40.4505 235.5744 39.2475 235.4944 38.6855 235.4674 38.0965 235.3604 37.7765 235.2804 37.9105 235.1464 38.0165 235.0124 38.1245 234.8524 38.2045 234.4774 38.5515 234.4254 38.7655 234.4254 39.0335 234.3174 39.2735 234.0774 39.4075 233.8094 39.4075 233.5424 39.3815 233.2484 39.3535 232.9004 39.4615 232.6334 39.6215 232.1514 40.1025 231.8834 40.2625 231.3224 40.5045 231.1624 40.6365 231.1624 40.8785 231.2694 41.1725 231.5634 41.7335 231.6704 42.0545 231.7234 42.3755 231.7774 44.1675 231.8834 44.7285 232.1514 45.1565 232.4454 45.2635 232.6864 45.2365 232.7934 45.2905 232.7664 45.7445 232.6064 46.3055 232.4994 46.5735 232.3394 46.8415 231.8834 47.2685 231.7774 47.4295 231.8034 47.7505 232.2584 47.5365 232.3114 47.8035 232.2054 48.0975 231.8574 48.6055 231.7504 48.9005 231.6704 49.5425 231.5634 49.7565 230.1464 51.0935 229.4244 51.5205 228.8084 51.4405 228.7284 51.3335 228.6224 50.9595 228.5424 50.7995 228.4084 50.6655 228.0874 50.4515 227.1244 49.5685 226.9104 49.2745 226.7504 48.9805 226.4564 47.9915 226.2424 47.8035 225.9744 47.7775 225.3334 47.9105 224.6644 47.7775 224.1564 47.7235 224.0764 47.5905 224.0494 47.3485 224.1024 47.2685 224.3164 47.0825 224.3704 46.9485 224.2624 46.2535 224.0494 45.9315 224.0494 45.5045 223.9424 45.0765 223.8354 44.9165 223.6754 44.7555 223.6484 44.6485 223.6214 44.5145 223.5944 44.4075 223.4874 44.3815 223.2474 44.3815 223.1394 44.3275 223.0334 44.0075 222.8454 43.8995 222.4714 43.7395 221.9644 43.3645 221.6424 43.2045 220.8134 43.0705 219.8244 42.5895 219.4764 42.6965 219.3704 42.9365 219.7174 44.3815 219.7174 45.1025 219.5564 45.7445 219.2364 46.2535 219.3424 46.8685 219.0224 47.5905 215.8134 51.7605 212.1234 54.9435 211.4814 55.3175 211.1874 55.5585 211.0804 55.8265 211.0264 56.2005 210.8924 56.5485 210.5454 57.1635 209.8234 57.9655 209.7174 58.1525 209.6354 58.2325 209.2614 58.5265 209.1814 58.6605 209.1554 59.0085 209.1284 59.1155 209.0744 59.2485 208.8074 59.6495 207.6034 60.7185 207.0954 61.5215 207.0424 61.6555 206.8824 61.7355 206.1334 62.3775 205.7324 62.6715 205.6254 62.8045 205.8124 63.1265 205.4914 63.7145 204.6894 64.5965 204.1804 64.8645 201.5074 65.6935 201.3204 65.6665 200.3834 66.0405 198.0574 66.5495 193.8334 67.6445 189.4734 68.7955 187.1474 68.8755 184.2324 69.4635 183.7524 69.6765 182.0934 70.7195 180.9974 71.5495 180.8374 71.7365 180.7294 71.9505 180.6494 72.5385 180.3824 73.4745 180.3824 73.8485 180.4634 74.0905 180.6234 74.2505 180.8104 74.4365 181.0504 74.5705 181.6384 74.7315 181.9604 74.8385 181.8804 74.8915 181.8524 74.8915 181.8264 74.8915 181.7464 74.8385 181.4524 75.1055 181.0774 75.0795 180.6494 74.9715 180.1954 74.9455 180.3014 75.1595 180.4894 75.8015 180.5954 75.9885 181.1044 76.4695 181.4254 76.7635 181.5324 77.0575 181.2384 76.8705 180.9704 76.6835 180.8374 76.6565 180.3294 76.7365 180.1954 76.7635 179.7144 77.1115 179.5804 77.1375 179.4724 77.0575 179.3664 76.9775 179.2864 76.9245 179.1524 76.8435 178.7774 76.3625 178.6174 76.2285 178.0834 76.0685 177.8954 75.9345 177.7614 75.6675 177.3874 75.9885 177.1744 76.3885 177.0404 77.4595 176.8524 78.1805 176.8264 78.4745 176.9324 78.5825 177.2264 78.6355 177.4944 78.7425 177.6814 79.0365 177.3604 78.9825 177.0664 79.1165 176.8264 79.3575 176.7184 79.5975 176.7454 79.9455 176.8264 80.1335 177.0404 80.1595 178.1354 79.9995 178.4574 80.0525 178.8584 80.3205 179.0184 80.3735 179.1784 80.3465 179.2864 79.9725 179.4464 79.8115 179.6334 79.7315 179.7674 79.8655 179.7404 79.9995 179.4464 80.3735 179.3404 80.4805 179.1254 80.6145 179.0184 80.6405 178.4574 80.5345 178.1634 80.4265 177.8684 80.4005 177.6814 80.6145 177.7084 80.9625 178.0834 81.3095 177.7084 81.3365 177.4144 81.2295 177.2264 81.2025 177.1464 81.2825 177.1204 81.6305 176.6654 83.0485 176.2114 84.0635 175.8634 84.5715 175.7294 84.8665 175.6754 85.1605 175.7294 85.2945 175.9694 85.4275 175.9974 85.5085 175.8894 85.6145 175.5424 85.6945 175.4624 85.7755 175.4884 86.0155 175.5694 86.2295 175.9174 86.8175 175.9974 86.8985 176.0774 86.9255 176.3714 86.9785 176.4254 87.0315 176.4514 87.1125 176.6384 87.3525 176.6384 87.5405 176.6924 87.5935 176.7994 87.5665 177.0924 87.6465 177.2264 87.6465 177.3604 87.6745 177.6284 87.8875 177.7884 87.9405 178.0834 88.0215 177.7614 88.1285 177.4944 87.9945 177.2804 87.8345 177.0924 87.8875 176.7454 88.0485 176.5054 87.8345 176.2914 87.4605 176.1034 87.1925 175.7834 87.0855 175.4624 87.1125 174.5794 87.2725 174.4464 87.4865 174.3124 88.0215 174.0984 88.5555 174.0714 88.6895 174.0984 89.1445 174.1784 89.3315 174.4724 89.5985 174.7404 90.3475 174.9804 90.5615 175.6754 90.8295 175.9434 91.0155 176.1574 91.2575 176.4254 91.4175 176.6924 91.4975 177.0404 91.4975 177.5744 91.2295 177.7614 91.1765 177.9754 91.2035 178.4034 91.3635 178.6444 91.3905 178.7514 91.4975 178.9114 91.8985 178.9654 92.0065 179.1784 92.0585 179.6064 92.1925 179.8474 92.2195 179.2064 92.5405 178.5914 92.2465 178.0554 91.7915 177.5484 91.5775 177.2264 91.6845 176.7184 91.9525 176.3714 92.0065 176.1574 91.9525 175.2484 91.4975 174.6604 91.0965 173.5094 89.9205 172.8424 89.4925 171.5574 88.9835 170.8364 88.8775 170.4344 89.1975 170.4344 89.4385 170.5144 89.7065 170.5424 90.0005 170.3814 90.2945 170.0874 90.5615 169.7934 90.6955 169.4714 90.7495 169.0714 90.7755 169.0714 90.6415 169.6594 90.2675 169.9264 90.0005 170.0074 89.6265 169.8194 89.2515 169.4454 89.0375 168.5634 88.7695 167.9214 88.4225 167.7074 88.3695 167.5474 88.3695 167.2254 88.5295 167.0924 88.5555 166.9054 88.5025 166.8514 88.3695 166.8254 88.2085 166.6644 88.0215 166.4504 87.9405 166.2364 87.9685 165.8364 88.1285 165.9164 87.9685 166.1824 87.6745 166.2364 87.5665 166.2634 87.2725 166.3434 87.0315 166.4774 86.8175 166.6644 86.5775 166.4774 86.3095 166.2364 86.3375 165.9684 86.4695 165.4884 86.6315 165.3004 86.9255 165.1674 86.9785 164.8194 86.9785 164.6854 86.9515 164.5794 86.8985 164.4714 86.8445 164.3914 86.7645 164.3114 86.6835 164.2584 86.5775 164.2584 86.4695 164.2844 86.2565 164.2584 86.1495 164.2044 86.0695 164.0704 85.8825 163.9644 85.4275 163.7504 85.3465 163.5094 85.5085 163.3224 85.8555 163.2954 85.9895 163.3224 86.4695 163.3484 86.5235 163.4024 86.6835 163.4284 86.7915 163.3754 86.8715 163.2414 87.0585 163.1614 87.3265 163.0544 87.2995 162.6794 86.8715 162.5994 86.8175 162.5194 86.8445 162.3594 86.8985 162.2524 86.9515 162.0114 87.1655 161.9584 87.1925 161.7704 87.1385 161.4764 86.9515 161.2904 86.8985 159.3384 86.8715 158.9904 86.9255 158.7764 87.0315 158.5894 87.0855 157.8404 87.0855 157.6264 87.0315 157.4394 86.7915 157.1724 86.2565 156.9844 86.0155 156.7174 85.8015 156.1014 85.5345 155.5674 85.1865 154.6314 84.7855 154.3104 84.5715 154.0164 84.2775 153.5894 83.6355 153.4274 83.3145 153.4554 83.0485 153.5354 82.8335 153.5894 82.5935 153.5614 82.2995 153.4014 81.6835 153.3744 81.3365 153.2944 81.0685 153.0004 81.8715 152.5984 82.5935 152.3844 82.9405 152.2244 83.1285 151.6634 83.5825 151.5294 83.7965 151.5034 84.0105 151.6094 84.5715 151.6094 84.6785 151.6094 84.7855 151.6894 84.9995 151.7974 85.1865 151.9304 85.3745 152.0914 85.5085 152.3044 85.5885 152.9734 85.5885 153.2414 85.6945 153.3214 85.9895 153.2144 87.1925 153.2414 87.8875 153.3214 88.1815 153.4814 88.5025 153.7754 88.8775 155.1394 90.0265 155.2464 90.1875 155.2734 90.6155 155.3804 90.6415 155.6744 90.4815 155.7814 90.5885 156.0494 91.2295 156.3154 91.4445 156.6104 91.4705 156.9304 91.4445 157.2244 91.4445 157.4924 91.5775 157.6794 91.8445 157.9734 92.7275 158.1614 93.0485 158.3484 93.2095 158.9104 93.4765 159.1764 93.7435 159.4984 94.3325 159.8454 94.5725 160.1394 94.6795 161.0494 94.8135 161.3164 94.9475 161.5304 95.2675 161.8784 95.9095 162.6274 97.0325 162.7074 97.3805 162.7334 97.7015 162.8944 97.7555 163.0814 97.7015 163.3224 97.6475 164.0974 97.8355 164.2844 97.9155 164.5254 98.1295 165.1674 99.0115 165.7554 99.4665 166.4504 99.7875 167.1734 99.8935 167.8144 99.5995 167.9744 99.4125 168.0284 99.2785 168.0824 99.2255 168.2684 99.2525 168.3764 99.3325 168.4824 99.4395 168.6164 99.5465 168.8304 99.5735 169.0174 99.4935 169.3114 99.2255 169.4714 99.1185 169.5524 99.1185 169.7134 99.1985 169.7934 99.1985 170.0874 99.0645 170.1144 99.0115 170.3004 98.9305 170.3544 98.9585 170.4884 99.0925 170.5954 99.0925 170.7024 99.0115 170.7284 98.9045 170.7284 98.6365 170.8894 98.3965 171.7454 97.6475 172.1734 97.4605 172.6284 97.3805 173.5904 97.3535 177.0124 96.4705 177.3064 96.4985 179.3664 97.4075 179.7144 97.5135 180.0344 97.5135 180.3294 97.4605 180.9434 97.2735 181.2114 97.2735 181.3724 97.4335 181.4524 97.6475 181.5054 97.9155 181.6924 98.2625 181.8804 98.1555 182.2274 97.6475 183.5104 97.1665 183.7244 97.1135 184.0184 97.1395 184.4204 97.2465 185.2224 97.5935 185.6504 97.7275 186.5594 97.4875 187.8964 95.8835 188.8594 95.5615 190.0894 95.5895 190.4904 95.5095 190.7044 95.4275 190.8104 95.2415 191.6134 92.9415 192.0944 91.9785 192.1484 91.8185 192.1484 91.6315 192.0414 91.4975 191.6934 91.4975 191.6394 91.3635 191.7474 90.9895 192.0144 90.7495 193.7794 89.9205 194.1534 89.7865 195.0904 89.7065 195.3564 89.6265 195.6244 89.4115 195.8384 89.1975 196.0794 89.0375 196.4534 88.9575 201.0254 89.1715 201.4264 89.3045 201.5344 89.3045 201.6944 89.2245 201.8004 89.0915 201.9084 88.9575 202.0424 88.8235 202.3364 88.7175 202.5774 88.7435 202.8434 88.8235 203.1384 88.9035 203.8864 88.8775 204.1544 88.9035 204.5024 89.0645 204.7694 89.1975 204.9034 89.4115 204.9294 89.7595 204.8234 90.1065 204.6624 90.3745 204.4224 90.6415 203.9674 90.9895 203.8604 91.1495 203.9144 91.2575 204.1544 91.2835 204.7164 91.0695 205.3314 90.9635 205.9194 91.0155 206.4804 91.3105 206.9894 91.6845 207.2034 91.7645 207.8714 91.7915 208.7804 91.9785 209.5034 92.2465 210.6264 93.1295 211.3214 93.1555 211.9354 92.8875 212.2574 92.8075 212.5774 92.8345 212.8984 93.0215 213.6744 93.9305 214.1014 94.1445 214.4764 94.0645 216.9094 92.4335 217.8184 91.2575 218.1664 90.9635 218.4614 90.8555 220.6534 90.5085 221.2684 90.5085 221.8304 90.6685 221.9904 90.8015 222.1244 90.9895 222.2844 91.1235 222.4714 91.2035 222.6324 91.1495 222.9534 90.9095 225.2794 89.9465 225.5734 89.8665 225.9214 89.9205 226.2684 90.1065 227.4714 90.9635 227.8194 91.0435 228.1674 90.9635 228.4084 90.7495 228.5144 90.4545 228.5144 90.1065 228.4344 89.7865 228.4344 89.4115 228.6224 89.1715 229.1564 88.7435 229.3704 88.4755 229.7714 87.8075 230.0654 87.0055 230.2264 85.9625 230.1994 85.4805 230.1734 85.2945 230.1194 85.1865 230.0924 85.0805 230.1464 84.8925 230.2264 84.7595 230.3604 84.6255 230.5204 84.5185 230.6804 84.4375 231.4834 84.3315 232.3394 84.0105 232.5524 83.8235 232.5794 83.5285 232.4994 83.2085 232.4994 82.9405 232.5794 82.7005 232.7134 82.3795 232.7404 82.1915 232.7404 81.9515 232.6864 81.7635 232.5264 81.6575 232.1784 81.6835 231.9374 81.8175 231.7504 81.7915 231.6174 81.4435 231.5904 81.3095 231.6174 80.8015 231.5634 80.6405 231.4024 80.4005 231.3494 80.2665 231.3224 79.9995 231.5094 79.1705 231.7234 78.5545 232.2054 78.2885 233.3824 78.1275 233.7824 77.9935 233.8894 77.8335 233.8364 77.5935 233.8094 77.2715 233.9164 76.9245 234.1034 76.8165 234.6914 76.8705 234.9864 76.6835 235.6544 76.1225 235.9224 76.0145 236.1354 75.8815 236.7244 75.2135 237.0454 75.0255 237.7404 74.9455 238.0614 74.8385 238.2754 74.5445 238.2214 74.2765 238.0614 73.9285 237.8204 73.5545 237.5804 73.3135 237.4464 73.2075 237.2584 73.1275 237.0454 73.0735 236.8574 73.0475 236.6974 73.0995 236.3774 73.2605 236.2164 73.2605 235.9754 73.0475 236.0024 72.7255 236.1354 72.3785 236.2164 72.0845 236.1634 71.9245 236.0024 71.6295 235.9754 71.4685 236.0824 71.2815 236.2164 71.2285 236.3774 71.2015 236.5374 71.0675 236.7244 70.6935 236.6174 70.3995 236.2164 69.8915 236.1354 69.6765 236.1634 69.6245 236.2964 69.5445 236.5094 69.3835 236.6174 69.1965 236.6974 69.0355 236.7244 68.8755 236.7774 68.7155 236.9914 68.3935 237.2324 68.1535 238.1144 67.5645 238.3014 67.3505 238.5434 66.8165 238.8094 66.4155 239.0234 66.4955 239.4254 67.0565 239.8524 67.2705 240.3344 67.1905 241.3234 66.7625 241.9654 66.6825 242.2064 66.5755 242.3404 66.2815 242.3934 65.6395 242.4734 65.3725 243.0084 64.6505 242.9814 64.5435 242.7404 64.4635 242.5004 64.1695 242.5004 63.9015 243.0354 61.6015 243.3024 60.8805 243.6234 60.5585 243.7834 60.5865 243.9174 60.6385 244.0504 60.6925 244.2124 60.6385 244.2924 60.4785 244.2924 60.3185 244.1584 59.9975 243.9174 59.5435 243.8644 59.3555 243.8644 59.1955 243.8904 58.9005 243.8644 58.7405 243.4894 57.8045 243.4354 57.4295 243.4354 56.8425 243.5164 56.2265 244.1314 54.4625 244.1044 53.9545 243.8904 53.7405 243.5694 53.5525 243.3294 53.3395 243.3554 52.9915 243.4634 52.8845 243.9974 52.5905 244.1314 52.4295 244.4254 51.8145 244.6124 51.1735 244.8004 49.8095 244.8804 49.5425 245.0134 49.1945 245.1474 49.0605 245.4414 48.9535 245.5494 48.8735 245.6554 48.7135 246.2974 48.1245 246.4304 48.1775 246.5384 48.3115 246.6724 48.3915 246.8854 48.3395 246.9664 48.1775 247.0194 47.9645 247.6074 47.4825 247.6874 47.0285 247.6614 46.5205 247.8214 46.0395 248.0084 45.8255 248.1954 45.7985 248.3294 45.9315 248.4104 46.1735 248.5434 46.3865 248.8384 46.4675 249.5064 46.5205 249.8534 46.6535 250.0414 46.7605 250.1474 46.8685 250.2014 47.1085 250.3084 47.3485 250.4684 47.5365 250.7094 47.6435 250.8964 47.5365 251.6454 46.8145 251.9134 46.6275 252.0734 46.4935 252.1794 46.3055 252.3134 45.9855 252.4744 46.0655 252.6344 46.0925 252.9824 46.1195 253.6774 46.3055 253.8914 46.3335 254.3194 46.2255 254.7474 45.9855 255.1484 45.9315 255.5504 46.3055 255.6564 46.3335 255.7634 46.3055 255.8704 46.3335 255.9244 46.4135 255.9774 46.6275 256.3784 47.2685 256.5114 47.3485 256.6734 47.3765 256.8334 47.3225 257.2074 46.9215 257.3684 46.9485 257.5544 47.0015 257.8224 46.9215 257.9564 46.8145 257.9024 46.7075 257.8484 46.6005 257.8224 46.4395 257.9564 46.2255 258.2774 45.9055 258.3834 45.7185 258.5444 45.7445 259.2134 46.7075 259.4264 46.7075 259.8004 46.5205 260.2024 46.6805 260.4964 46.6535 260.7904 46.5735 261.2714 46.1735 261.5394 46.1995 262.1004 46.6005 262.6894 46.7345 263.8924 46.4935 264.5084 46.4935 265.3894 46.7345 268.1974 46.6805 268.3314 46.6005 268.5984 46.3865 268.7864 46.3335 269.0004 46.3865 269.1064 46.4935 269.1864 46.6275 269.3204 46.7875 269.8824 47.1885 271.1124 47.8035 271.9954 48.7135 272.3424 48.9535 272.7704 49.0605 273.3044 49.1405 273.5464 49.1405 273.9464 49.1145 274.2144 49.2205 274.3474 49.3285 274.9894 49.0875 275.0964 49.0605 275.2574 49.0875 275.1504 48.9535 274.8834 48.6865 274.8294 48.6055 274.8834 48.4995 274.9634 48.3915 275.0434 48.2585 275.1504 48.1515 275.4704 47.9375 275.6044 47.8035 275.6584 47.6165 275.6584 47.4295 275.4174 47.2155 275.3644 47.0545 275.3644 46.4135 275.2844 46.2535 274.9894 46.0655 274.9364 45.9315 275.0694 45.7715 275.3644 45.5045 275.7124 45.2905 275.9254 45.2635 276.1664 45.5575 276.3264 45.8515 276.4874 46.1195 276.8354 46.3595 276.9684 46.4135 277.3424 46.4675 277.8244 46.6535 278.0384 46.6805 278.0924 46.7605 278.1984 47.0285 278.2524 47.1085 278.3854 47.1355 278.5194 47.1885 278.7334 47.2965 279.3214 47.8575 279.5094 47.9375 279.7494 47.9645 280.6854 48.2585 281.0334 48.2315 283.0654 47.2155 283.4134 47.1085 284.6704 46.9745 286.0334 46.6005 286.1674 46.5205 286.3544 46.2535 286.5944 46.4135 286.9424 46.4935 287.6114 46.4675 287.9054 46.4395 288.3864 46.2795 288.6544 46.2535 289.2424 46.2795 289.4824 46.2255 289.6964 46.0655 289.8574 45.9055 290.0174 45.7185 290.0974 45.4775 290.0174 45.2105 290.2314 45.2905 290.3914 45.3435 290.5254 45.3705 290.6864 45.2635 290.8204 45.1025 290.8204 44.9965 290.2054 44.3275 290.0444 44.0595 290.1254 43.8455 289.9374 43.7655 289.5634 43.7125 289.4024 43.6325 288.9484 43.9535 288.6804 44.1135 288.5474 44.0075 288.4674 43.8995 288.2794 43.7395 288.1454 43.5795 288.1994 43.3645 288.3594 43.1775 288.4404 42.9905 288.4134 42.8025 288.2534 42.5895 288.0394 42.4555 287.7454 42.3755 287.5314 42.4285 287.5044 42.6965 287.2364 42.5895 287.1304 42.5365 287.0224 42.4285 286.9694 42.3225 286.8364 42.0545 286.7824 41.9475 286.6484 41.9215 286.3274 41.8675 286.1934 41.8675 286.0604 41.8135 285.9264 41.7335 285.7394 41.5465 285.2044 41.1455 284.7224 40.7185 284.2954 40.2365 283.9474 39.6755 283.7604 39.2195 283.6804 39.0865 283.5734 39.0065 283.1994 38.7385 283.0924 38.7125 283.0114 38.6325 283.0114 38.4715 283.0384 38.2845 283.1724 38.1765 283.4134 37.9905 284.2684 37.0275 284.8304 36.7065 285.4184 36.8405 285.3914 36.6265 285.4184 36.4925 285.4994 36.4385 285.6054 36.5195 286.0874 36.1185 286.4074 35.9045 286.5684 35.9585 286.7024 35.8775 287.0224 35.9585 287.5044 36.2245 288.0394 36.8135 288.3064 37.2955 288.3864 37.4015 288.6004 37.5355 288.7344 37.5625 289.0824 37.3475 289.5094 37.0015 289.6964 36.9205 289.9114 36.9205 290.2054 37.0275 290.6594 37.0815 291.1404 37.2955 291.3824 37.3475 291.7024 37.3215 292.0774 37.2155 292.4244 37.0535 292.9864 36.7065 295.8204 35.8775 298.6284 34.8875 299.2174 34.5405 299.9654 33.7385 300.3124 33.4175 300.3664 33.0435 300.2864 32.3215 300.3124 32.0805"></polygon>
            <polygon id="Fill-37" fill="#FFFFFF" points="178.8311 74.758 178.6971 75.427 178.7771 75.747 179.0721 75.881 179.2321 76.015 179.5001 76.63 179.6601 76.844 179.7141 76.71 179.8201 76.576 179.9811 76.496 180.1151 76.576 180.2751 76.656 180.3021 76.55 180.3021 76.416 180.2751 76.362 179.9541 75.48 179.8481 74.357 179.8201 71.683 179.6601 71.041 179.3401 70.56 178.8311 70.346 178.5911 70.827 178.5631 71.603 178.8581 74.143"></polygon>
            <polygon id="Stroke-38" stroke="#E75F52" stroke-linecap="round" stroke-linejoin="round" points="178.8311 74.758 178.6971 75.427 178.7771 75.747 179.0721 75.881 179.2321 76.015 179.5001 76.63 179.6601 76.844 179.7141 76.71 179.8201 76.576 179.9811 76.496 180.1151 76.576 180.2751 76.656 180.3021 76.55 180.3021 76.416 180.2751 76.362 179.9541 75.48 179.8481 74.357 179.8201 71.683 179.6601 71.041 179.3401 70.56 178.8311 70.346 178.5911 70.827 178.5631 71.603 178.8581 74.143"></polygon>
        </g>
    </g>
</svg>