<?xml version="1.0" encoding="UTF-8"?>
<svg width="202px" height="300px" viewBox="0 0 202 300" version="1.1" xmlns="http://www.w3.org/2000/svg" xmlns:xlink="http://www.w3.org/1999/xlink">
    <!-- Generator: Sketch 64 (93537) - https://sketch.com -->
    <title>328</title>
    <desc>Created with Sketch.</desc>
    <g id="328" stroke="none" stroke-width="1" fill="none" fill-rule="evenodd">
        <g id="Group-128" transform="translate(0.000000, 2.000000)">
            <polygon id="Fill-1" fill="#FFFFFF" points="68 161.686316 68.6856279 159.9607 70.5905698 159.241634 72.6474535 156.078599 74.3233488 155 76 155.574968 74.171407 157.372633 75.6190116 158.882101 75.5426628 160.392283 73.8667675 162.548768 72.0381744 163.124449 68.8383256 166 68.0763489 165.568418 68.9910233 163.770752"></polygon>
            <polygon id="Stroke-2" stroke="#E75F52" stroke-linecap="round" stroke-linejoin="round" points="68 161.686316 68.6856279 159.9607 70.5905698 159.241634 72.6474535 156.078599 74.3233488 155 76 155.574968 74.171407 157.372633 75.6190116 158.882101 75.5426628 160.392283 73.8667675 162.548768 72.0381744 163.124449 68.8383256 166 68.0763489 165.568418 68.9910233 163.770752"></polygon>
            <g id="Group-127">
                <path d="M60.5495743,108.809764 L58.8117801,107.824702 L58.0639346,106.450799 L58.6365154,103.772615 L59.4155522,102.189108 L59.2284051,101.544004 L57.301236,103.523757 L56.2310816,103.265271 L56.356589,106.167131 L59.1028978,110.870989 L56.0461625,112.443385 L54.0981993,124.947752 L49.4618537,125.529901 L49.7655963,122.761358 L51.2234125,120.950473 L51.1031037,116.945787 L53.3963978,111.193171 L51.9875963,109.243784 L53.2872287,106.236011 L52.2222728,107.329949 L51.5293831,106.004188 L51.4967066,105.253911 L54.7576699,98.6117768 L53.5501257,95.2003504 L59.7512287,81.8286845 L52.5067066,88.2256646 L51.5397801,87.9123703 L51.1365228,87.1769065 L49.7529713,87.0302581 L48.364964,86.7836222 L46.6048904,84.0454451 L50.1421184,82.55452 L42.5455816,82.0493978 L42.5151331,81.3487444 L43.2607507,80.2170337 L48.4251184,79.6148865 L51.2041037,76.4989788 L47.8235743,76.7315424 L48.4748757,74.6510611 L49.3511993,72.8631359 L52.2267287,71.9987993 L50.6389493,70.8078367 L53.3548096,66.2417394 L53.3592654,66.2335923 L54.3982287,64.704894 L53.7729199,64.3397544 L52.5846846,64.3501234 L52.3604051,64.1464451 L51.6682581,64.0027594 L53.654839,62.1711359 L50.9516037,62.1259564 L49.2071257,58.5360337 L49.9668537,55.2986596 L53.109736,56.930308 L54.0863169,56.2407643 L50.4636846,53.3248317 L52.5215596,50.6888641 L50.523839,49.814899 L50.3121846,46.1642431 L53.3793169,46.0449988 L54.0610669,44.6651708 L56.5526478,45.9205698 L58.0060081,44.009697 L61.7890522,43.3112656 L56.6120596,38.7525748 L60.002986,38.7703504 L57.8158904,34.7456671 L62.8339566,33.197712 L62.1403243,29.4159613 L65.0099125,28.4020137 L62.6557213,26.6392706 L64.7054272,22.600515 L70.5158978,24.6787743 L72.0635743,23.7159314 L75.5124272,25.0853903 L80.2527434,24.4491733 L82.2979934,23.9684925 L85.6926331,24.0869963 L87.9606772,22.6449539 L93.0240449,23.3500511 L92.0318684,21.2332781 L98.4520522,21.4843579 L96.5174566,26.9718217 L98.221089,27.1562431 L97.9901257,29.1700661 L95.3574419,31.9786047 L92.752236,32.9821833 L90.871111,36.0121758 L84.9678096,40.3523753 L84.9076551,41.4070586 L82.5245007,42.6528292 L82.4220154,45.1621459 L79.8026993,47.0685748 L86.111486,45.9709339 L83.1267875,51.6502257 L82.4895963,51.6250436 L82.1561478,50.0341309 L79.5398022,51.9901833 L81.985339,52.1953429 L78.6055522,57.3384052 L79.4558831,57.4058042 L82.0254419,54.3491484 L83.1000522,54.7083628 L84.1003978,54.5683803 L86.073611,53.6396072 L87.6561919,52.2745923 L90.6572287,51.8568666 L91.3523463,50.7777419 L95.4547287,50.1163429 L99.2392581,51.8731608 L102.148207,50.5570287 L108.277273,51.4206247 L118.309692,50.678495 L120.467082,52.7989713 L121.455545,57.2710062 L117.134824,63.9042531 L116.493177,68.6399589 L113.73053,77.016692 L111.327324,79.0149613 L110.050714,83.7758491 L105.806486,88.5019264 L102.371001,88.6856072 L99.8081257,89.4373653 L96.2805522,92.3814426 L99.493986,90.7527569 L102.350949,89.438106 L104.154839,89.518096 L104.178604,91.2712107 L103.408479,91.8526197 L108.395354,94.4648865 L104.71331,97.5148766 L102.182368,96.5609214 L98.5389419,99.2591035 L98.0881551,101.081099 L94.1892581,102.786812 L91.188964,102.001724 L89.3382875,102.073567 L87.815861,101.181086 L87.1289125,101.207749 L85.4327066,99.9708666 L87.7668463,102.485368 L91.1065301,103.758542 L94.393486,103.831126 L96.3169419,104.207375 L97.8898684,103.845198 L99.733861,104.825817 L102.871545,103.901488 L105.083148,101.158867 L107.825001,100.851498 L109.025861,102.909759 L110.399015,102.806069 L112.92253,104.812485 L116.366185,104.828039 L118.976589,108.835687 L127.825971,116.049602 L130.915383,132.017241 L133.354236,138.158697 L134.994001,141.426438 L138.58767,144.829717 L150.05414,150.020921 L157.467986,159.754522 L160.166023,160.901787 L157.655133,162.854136 L165.646015,176.123592 L161.193846,176.046565 L157.138993,172.947692 L151.797876,174.358627 L157.066214,173.702413 L160.85817,176.862019 L166.413913,180.403799 L170.854942,188.750166 L170.869795,192.758555 L165.319993,199.139241 L172.517729,202.666949 L175.457126,195.937418 L185.449442,195.497473 L191.895618,196.348478 L199.72906,202.306994 L201.554486,210.204527 L199.13717,222.877762 L192.601876,229.748016 L194.218618,230.385714 L190.754913,233.577909 L186.165354,234.008226 L187.219913,235.119198 L187.369185,238.57136 L184.568663,242.389403 L178.198236,243.289291 L180.972023,243.732198 L187.027567,245.350515 L189.438942,247.211024 L198.257876,245.363106 L197.352589,247.703555 L198.465817,252.62146 L193.836898,255.809211 L191.166339,256.515049 L189.70778,259.528747 L189.992957,261.221128 L186.225508,261.067814 L185.910626,261.130029 L183.401964,263.132001 L177.352361,265.322839 L174.995199,268.371348 L164.650126,265.567253 L154.368177,267.872892 L153.388626,269.715625 L149.822435,268.100271 L145.122221,268.434303 L140.269023,265.215445 L141.182479,266.733774 L141.267883,267.481829 L140.358883,268.519478 L136.745163,269.462323 L136.012913,270.894737 L133.392854,270.345176 L132.41256,270.934732 L128.315376,271.745742 L128.077729,274.812026 L118.036398,274.101004 L117.325685,276.033355 L109.989074,271.759074 L106.853618,271.530954 L103.887486,272.74932 L99.5378022,273.820298 L98.1349419,275.679325 L96.0235963,275.862266 L94.4729493,279.18037 L95.0425596,280.109884 L93.7199051,281.364542 L94.8361037,282.674009 L94.2353022,284.701904 L91.8350669,285.546984 L92.2145596,288.188877 L87.2573904,287.480076 L85.8003169,285.632158 L81.8145301,285.33664 L81.5442066,284.287882 L80.9716257,284.21752 L79.763339,285.667709 L77.3430522,283.607226 L74.2217066,283.679069 L72.4816846,285.099632 L68.1832434,284.916692 L66.5375375,288.488839 L63.4963978,289.208749 L62.4151037,291.155173 L59.285589,292.279478 L61.4310963,294.099991 L58.2562801,296.629305 L55.5441331,292.726089 L52.2051919,291.453655 L50.597361,293.47044 L47.983986,294.274044 L46.948736,292.914954 L47.6186037,290.230844 L52.0603757,288.144438 C52.0603757,288.144438 53.1067654,288.953966 53.2931699,288.94656 C53.4803169,288.939153 61.7430081,280.820906 61.7430081,280.820906 L61.6145301,277.848685 L63.8781184,277.370966 L67.5534787,275.739318 L67.5794713,273.75364 L72.3279566,270.095577 L72.1645743,265.459859 L72.9903978,262.912029 L76.9546478,263.643049 L79.5398022,261.061889 L78.3263169,258.982889 L78.930089,257.364572 L88.550339,255.501101 L91.8350669,256.11732 L92.6393537,255.66034 L96.3058022,257.289026 L105.04453,255.814395 L104.595971,252.394822 L112.415302,243.549258 L114.378861,240.460754 L112.149435,242.602709 L111.588736,242.624929 L110.506699,243.588512 L108.797126,243.902547 L108.198552,244.777253 L106.744449,245.79046 L105.567354,245.411248 L104.870751,244.906867 L104.46081,244.957971 L104.376148,245.599373 L102.92056,246.577769 L102.066515,246.752562 L101.00453,248.176089 L100.771339,249.70849 L100.636177,250.032894 L99.9068978,249.636647 L99.0699346,250.200281 L96.2218831,250.169914 L94.1112801,249.862545 L93.105736,250.007712 L92.274714,248.97747 L92.221986,248.624921 L91.0263243,247.820577 L90.7805081,247.334712 L90.378736,247.562832 L89.6695081,247.625787 L89.4110669,246.856253 L88.7961551,246.490373 L88.8607654,245.389769 L87.1006919,242.800463 L86.1656993,242.836754 L85.6183684,243.176712 L84.2043684,243.374465 L83.7639787,244.45433 L82.3083904,244.581722 L81.8427507,244.209916 L80.5913904,244.719483 L80.4695963,245.362365 L79.4945007,245.329777 L78.3857287,244.806138 L78.3901846,244.061787 L77.9950963,243.581106 L78.3627066,243.424829 L78.9323169,242.72936 L79.7655669,242.944889 L80.114611,243.214485 L81.8583463,241.976862 L81.8278978,241.269542 L81.3355228,241.147335 L80.7792801,241.275468 L80.215611,240.37558 L78.3448831,240.413353 L77.6542213,240.9007 L76.8231993,239.870458 L77.1596184,239.857126 L77.3593904,239.282383 L76.5840669,238.675051 L76.604861,238.283989 L76.8543904,237.991433 L76.9011772,237.351512 L76.3389934,237.33744 L75.5421331,237.971435 L74.8492434,237.537415 L74.1028831,237.602592 L73.8318169,237.400395 L73.8734051,238.355091 L74.2269051,238.73134 L73.663236,238.682458 L72.2418096,238.738006 L70.5879346,238.589877 L69.0075816,239.289049 L68.9600522,239.928969 L69.1627949,240.275592 L68.7112654,241.108081 L67.7985522,241.639867 L65.3693537,241.770221 L64.2590963,242.947111 L63.4540669,242.518276 L62.0207581,242.290156 L61.6739419,242.056111 L61.644236,241.383602 L61.999964,240.944398 L62.5606625,240.922919 L63.1310154,241.113266 L64.1432434,241.144373 L64.0645228,240.191158 L63.6003684,239.854904 L62.4433243,239.935635 L61.757861,239.67863 L61.0070449,239.637153 L60.6141846,239.226834 L60.2406331,239.240906 L59.7995007,239.435697 L59.4556551,239.272014 L59.0063537,239.289789 L59.0338316,239.926006 L58.5986404,239.376445 L59.5982434,238.238809 L60.533236,238.202517 L60.7775669,237.803308 L60.8941625,236.168697 L60.1641404,234.885894 L59.4445154,234.701473 L57.000464,234.477797 L57.0910669,233.977859 L59.1927581,232.696537 L60.3030154,232.652839 L61.4407507,232.007734 L61.3753978,230.50644 L61.5187287,230.150188 L63.1250743,230.538288 L63.4659493,231.076739 L64.2063684,231.047854 L65.0730375,230.262026 L65.7792949,230.685677 L66.7291404,230.598281 L66.6422507,229.799862 L67.2126037,229.527303 L69.1464566,227.697901 L69.6172949,227.578657 L69.915839,227.116493 L71.7071037,226.89652 L72.1474934,227.280176 L72.7267581,227.206852 L73.3000816,226.984657 L74.5232213,225.884054 L75.5807507,225.843318 L75.455986,225.396707 L76.6768978,224.24648 L77.3333978,224.721976 L79.1216919,223.199203 L79.887361,223.144395 L81.6793684,220.493615 L83.3027949,213.96554 L83.308736,213.488562 L81.4394934,211.908019 C81.4394934,211.908019 81.8672581,210.16231 83.1550081,209.335747 C83.1988243,209.108368 83.1646625,208.332909 83.1646625,208.332909 L84.5415301,207.702617 L84.2697213,206.936787 L83.0978243,208.009986 L82.4279566,207.835193 L82.0098463,207.350069 L81.894736,206.527949 L81.6533757,205.835443 L81.3028463,205.097757 L81.8152728,204.702251 L81.7721993,203.701635 L81.3496331,203.116522 L82.2705154,202.980243 L83.1646625,202.218857 L82.7420963,201.633744 L81.074111,201.648557 L79.9512287,202.018141 L78.9412287,201.932226 L77.7968096,201.801872 L77.1507066,202.178121 L76.2461625,202.087762 L75.6067434,202.613622 L74.0241625,202.750642 C74.0241625,202.750642 71.2080449,204.388956 72.4334125,205.769525 C72.0665449,205.859143 71.8556331,205.892473 71.8556331,205.892473 L70.3510301,204.773353 C70.3510301,204.773353 69.7762213,204.971106 69.7903316,205.296251 C69.8044419,205.621395 69.812611,205.796929 69.812611,205.796929 L67.5920963,205.908026 C67.5920963,205.908026 68.3644493,204.174168 69.5511993,203.426854 C70.736464,202.678799 73.1805154,201.630782 73.5562949,200.513884 C74.1563537,199.688802 74.3397875,199.656213 74.3397875,199.656213 L75.0178243,199.404393 L75.7248243,197.998642 L75.6772949,196.898039 L76.4088022,196.669178 L76.4674713,196.190719 L79.6259493,194.513892 L79.9081551,194.302066 L79.8918169,193.325892 L80.6894199,192.768183 L82.4613757,192.724485 L84.0075669,191.73646 L84.7977434,191.630547 L87.123714,190.287011 L87.134111,189.309355 L87.6925816,189.362682 L89.3264051,190.401812 L89.9435449,190.578086 L90.7812507,190.344782 L91.679111,190.284789 L92.8688316,189.636722 L93.4228463,189.590061 L94.0971699,189.263435 L95.2445596,188.842747 L96.0785522,189.136044 L96.8523904,188.053216 L97.2712434,189.164929 L98.4765596,189.468595 L100.449773,190.393665 L100.667368,189.909281 L99.0870154,186.437862 L102.244008,184.735852 L100.772082,181.335535 L103.366148,176.398373 L101.805104,174.003116 L101.775398,169.6444 L105.138846,167.809814 L103.748611,165.022754 L105.991405,163.606635 L104.751185,161.35136 L104.234302,161.531338 L103.027501,162.623794 L101.65806,160.852163 L99.0847875,164.567256 L97.3076331,162.882281 L98.0361699,160.249276 L95.9872066,161.375061 L89.3991846,151.134116 L90.8570007,145.664428 L93.4146772,142.357433 L94.4640375,138.457919 L99.7034125,135.898238 L100.935464,134.99761 L91.0842507,135.03168 L91.0159272,138.341637 L87.2744713,138.788248 L84.1835743,142.015994 L82.2645743,141.739732 L75.8028022,138.083151 L75.1500154,138.910455 L76.7571037,140.551732 L76.0805522,144.486797 L67.4146037,138.861572 L65.4525301,140.040685 L67.136111,145.888844 L65.3121699,145.357799 L64.8561846,142.168567 L61.9212434,139.225971 L61.2743978,137.747637 L61.1422066,134.696166 L62.997339,134.72357 L64.1759199,137.483966 L63.8833169,134.388797 L63.3701478,133.557049 L64.5115963,130.555201 L66.9860963,127.752587 L67.5430816,124.724076 L68.6563096,123.527929 L69.2259199,122.002193 L71.1308096,120.725315 L71.0558022,116.568797 L66.1870081,112.999612 L67.3084051,110.751004 L66.896236,109.814824 L66.5783831,108.574238 L66.9400522,107.157378 L66.9920375,105.901979 L68.1275449,105.20651 L68.600611,105.13763 L69.6336331,105.749405 L71.4078169,105.128742 L69.3440007,103.956296 L67.7049787,104.019991 L66.2434493,104.528076 L65.1680963,108.831243 L65.0604125,109.355622 L64.4610963,108.492767 L60.8406919,106.18861 L60.6282949,106.480425 L60.5495743,108.809764 Z" id="Fill-3" fill="#FFFFFF"></path>
                <path d="M60.5495743,108.809764 L58.8117801,107.824702 L58.0639346,106.450799 L58.6365154,103.772615 L59.4155522,102.189108 L59.2284051,101.544004 L57.301236,103.523757 L56.2310816,103.265271 L56.356589,106.167131 L59.1028978,110.870989 L56.0461625,112.443385 L54.0981993,124.947752 L49.4618537,125.529901 L49.7655963,122.761358 L51.2234125,120.950473 L51.1031037,116.945787 L53.3963978,111.193171 L51.9875963,109.243784 L53.2872287,106.236011 L52.2222728,107.329949 L51.5293831,106.004188 L51.4967066,105.253911 L54.7576699,98.6117768 L53.5501257,95.2003504 L59.7512287,81.8286845 L52.5067066,88.2256646 L51.5397801,87.9123703 L51.1365228,87.1769065 L49.7529713,87.0302581 L48.364964,86.7836222 L46.6048904,84.0454451 L50.1421184,82.55452 L42.5455816,82.0493978 L42.5151331,81.3487444 L43.2607507,80.2170337 L48.4251184,79.6148865 L51.2041037,76.4989788 L47.8235743,76.7315424 L48.4748757,74.6510611 L49.3511993,72.8631359 L52.2267287,71.9987993 L50.6389493,70.8078367 L53.3548096,66.2417394 L53.3592654,66.2335923 L54.3982287,64.704894 L53.7729199,64.3397544 L52.5846846,64.3501234 L52.3604051,64.1464451 L51.6682581,64.0027594 L53.654839,62.1711359 L50.9516037,62.1259564 L49.2071257,58.5360337 L49.9668537,55.2986596 L53.109736,56.930308 L54.0863169,56.2407643 L50.4636846,53.3248317 L52.5215596,50.6888641 L50.523839,49.814899 L50.3121846,46.1642431 L53.3793169,46.0449988 L54.0610669,44.6651708 L56.5526478,45.9205698 L58.0060081,44.009697 L61.7890522,43.3112656 L56.6120596,38.7525748 L60.002986,38.7703504 L57.8158904,34.7456671 L62.8339566,33.197712 L62.1403243,29.4159613 L65.0099125,28.4020137 L62.6557213,26.6392706 L64.7054272,22.600515 L70.5158978,24.6787743 L72.0635743,23.7159314 L75.5124272,25.0853903 L80.2527434,24.4491733 L82.2979934,23.9684925 L85.6926331,24.0869963 L87.9606772,22.6449539 L93.0240449,23.3500511 L92.0318684,21.2332781 L98.4520522,21.4843579 L96.5174566,26.9718217 L98.221089,27.1562431 L97.9901257,29.1700661 L95.3574419,31.9786047 L92.752236,32.9821833 L90.871111,36.0121758 L84.9678096,40.3523753 L84.9076551,41.4070586 L82.5245007,42.6528292 L82.4220154,45.1621459 L79.8026993,47.0685748 L86.111486,45.9709339 L83.1267875,51.6502257 L82.4895963,51.6250436 L82.1561478,50.0341309 L79.5398022,51.9901833 L81.985339,52.1953429 L78.6055522,57.3384052 L79.4558831,57.4058042 L82.0254419,54.3491484 L83.1000522,54.7083628 L84.1003978,54.5683803 L86.073611,53.6396072 L87.6561919,52.2745923 L90.6572287,51.8568666 L91.3523463,50.7777419 L95.4547287,50.1163429 L99.2392581,51.8731608 L102.148207,50.5570287 L108.277273,51.4206247 L118.309692,50.678495 L120.467082,52.7989713 L121.455545,57.2710062 L117.134824,63.9042531 L116.493177,68.6399589 L113.73053,77.016692 L111.327324,79.0149613 L110.050714,83.7758491 L105.806486,88.5019264 L102.371001,88.6856072 L99.8081257,89.4373653 L96.2805522,92.3814426 L99.493986,90.7527569 L102.350949,89.438106 L104.154839,89.518096 L104.178604,91.2712107 L103.408479,91.8526197 L108.395354,94.4648865 L104.71331,97.5148766 L102.182368,96.5609214 L98.5389419,99.2591035 L98.0881551,101.081099 L94.1892581,102.786812 L91.188964,102.001724 L89.3382875,102.073567 L87.815861,101.181086 L87.1289125,101.207749 L85.4327066,99.9708666 L87.7668463,102.485368 L91.1065301,103.758542 L94.393486,103.831126 L96.3169419,104.207375 L97.8898684,103.845198 L99.733861,104.825817 L102.871545,103.901488 L105.083148,101.158867 L107.825001,100.851498 L109.025861,102.909759 L110.399015,102.806069 L112.92253,104.812485 L116.366185,104.828039 L118.976589,108.835687 L127.825971,116.049602 L130.915383,132.017241 L133.354236,138.158697 L134.994001,141.426438 L138.58767,144.829717 L150.05414,150.020921 L157.467986,159.754522 L160.166023,160.901787 L157.655133,162.854136 L165.646015,176.123592 L161.193846,176.046565 L157.138993,172.947692 L151.797876,174.358627 L157.066214,173.702413 L160.85817,176.862019 L166.413913,180.403799 L170.854942,188.750166 L170.869795,192.758555 L165.319993,199.139241 L172.517729,202.666949 L175.457126,195.937418 L185.449442,195.497473 L191.895618,196.348478 L199.72906,202.306994 L201.554486,210.204527 L199.13717,222.877762 L192.601876,229.748016 L194.218618,230.385714 L190.754913,233.577909 L186.165354,234.008226 L187.219913,235.119198 L187.369185,238.57136 L184.568663,242.389403 L178.198236,243.289291 L180.972023,243.732198 L187.027567,245.350515 L189.438942,247.211024 L198.257876,245.363106 L197.352589,247.703555 L198.465817,252.62146 L193.836898,255.809211 L191.166339,256.515049 L189.70778,259.528747 L189.992957,261.221128 L186.225508,261.067814 L185.910626,261.130029 L183.401964,263.132001 L177.352361,265.322839 L174.995199,268.371348 L164.650126,265.567253 L154.368177,267.872892 L153.388626,269.715625 L149.822435,268.100271 L145.122221,268.434303 L140.269023,265.215445 L141.182479,266.733774 L141.267883,267.481829 L140.358883,268.519478 L136.745163,269.462323 L136.012913,270.894737 L133.392854,270.345176 L132.41256,270.934732 L128.315376,271.745742 L128.077729,274.812026 L118.036398,274.101004 L117.325685,276.033355 L109.989074,271.759074 L106.853618,271.530954 L103.887486,272.74932 L99.5378022,273.820298 L98.1349419,275.679325 L96.0235963,275.862266 L94.4729493,279.18037 L95.0425596,280.109884 L93.7199051,281.364542 L94.8361037,282.674009 L94.2353022,284.701904 L91.8350669,285.546984 L92.2145596,288.188877 L87.2573904,287.480076 L85.8003169,285.632158 L81.8145301,285.33664 L81.5442066,284.287882 L80.9716257,284.21752 L79.763339,285.667709 L77.3430522,283.607226 L74.2217066,283.679069 L72.4816846,285.099632 L68.1832434,284.916692 L66.5375375,288.488839 L63.4963978,289.208749 L62.4151037,291.155173 L59.285589,292.279478 L61.4310963,294.099991 L58.2562801,296.629305 L55.5441331,292.726089 L52.2051919,291.453655 L50.597361,293.47044 L47.983986,294.274044 L46.948736,292.914954 L47.6186037,290.230844 L52.0603757,288.144438 C52.0603757,288.144438 53.1067654,288.953966 53.2931699,288.94656 C53.4803169,288.939153 61.7430081,280.820906 61.7430081,280.820906 L61.6145301,277.848685 L63.8781184,277.370966 L67.5534787,275.739318 L67.5794713,273.75364 L72.3279566,270.095577 L72.1645743,265.459859 L72.9903978,262.912029 L76.9546478,263.643049 L79.5398022,261.061889 L78.3263169,258.982889 L78.930089,257.364572 L88.550339,255.501101 L91.8350669,256.11732 L92.6393537,255.66034 L96.3058022,257.289026 L105.04453,255.814395 L104.595971,252.394822 L112.415302,243.549258 L114.378861,240.460754 L112.149435,242.602709 L111.588736,242.624929 L110.506699,243.588512 L108.797126,243.902547 L108.198552,244.777253 L106.744449,245.79046 L105.567354,245.411248 L104.870751,244.906867 L104.46081,244.957971 L104.376148,245.599373 L102.92056,246.577769 L102.066515,246.752562 L101.00453,248.176089 L100.771339,249.70849 L100.636177,250.032894 L99.9068978,249.636647 L99.0699346,250.200281 L96.2218831,250.169914 L94.1112801,249.862545 L93.105736,250.007712 L92.274714,248.97747 L92.221986,248.624921 L91.0263243,247.820577 L90.7805081,247.334712 L90.378736,247.562832 L89.6695081,247.625787 L89.4110669,246.856253 L88.7961551,246.490373 L88.8607654,245.389769 L87.1006919,242.800463 L86.1656993,242.836754 L85.6183684,243.176712 L84.2043684,243.374465 L83.7639787,244.45433 L82.3083904,244.581722 L81.8427507,244.209916 L80.5913904,244.719483 L80.4695963,245.362365 L79.4945007,245.329777 L78.3857287,244.806138 L78.3901846,244.061787 L77.9950963,243.581106 L78.3627066,243.424829 L78.9323169,242.72936 L79.7655669,242.944889 L80.114611,243.214485 L81.8583463,241.976862 L81.8278978,241.269542 L81.3355228,241.147335 L80.7792801,241.275468 L80.215611,240.37558 L78.3448831,240.413353 L77.6542213,240.9007 L76.8231993,239.870458 L77.1596184,239.857126 L77.3593904,239.282383 L76.5840669,238.675051 L76.604861,238.283989 L76.8543904,237.991433 L76.9011772,237.351512 L76.3389934,237.33744 L75.5421331,237.971435 L74.8492434,237.537415 L74.1028831,237.602592 L73.8318169,237.400395 L73.8734051,238.355091 L74.2269051,238.73134 L73.663236,238.682458 L72.2418096,238.738006 L70.5879346,238.589877 L69.0075816,239.289049 L68.9600522,239.928969 L69.1627949,240.275592 L68.7112654,241.108081 L67.7985522,241.639867 L65.3693537,241.770221 L64.2590963,242.947111 L63.4540669,242.518276 L62.0207581,242.290156 L61.6739419,242.056111 L61.644236,241.383602 L61.999964,240.944398 L62.5606625,240.922919 L63.1310154,241.113266 L64.1432434,241.144373 L64.0645228,240.191158 L63.6003684,239.854904 L62.4433243,239.935635 L61.757861,239.67863 L61.0070449,239.637153 L60.6141846,239.226834 L60.2406331,239.240906 L59.7995007,239.435697 L59.4556551,239.272014 L59.0063537,239.289789 L59.0338316,239.926006 L58.5986404,239.376445 L59.5982434,238.238809 L60.533236,238.202517 L60.7775669,237.803308 L60.8941625,236.168697 L60.1641404,234.885894 L59.4445154,234.701473 L57.000464,234.477797 L57.0910669,233.977859 L59.1927581,232.696537 L60.3030154,232.652839 L61.4407507,232.007734 L61.3753978,230.50644 L61.5187287,230.150188 L63.1250743,230.538288 L63.4659493,231.076739 L64.2063684,231.047854 L65.0730375,230.262026 L65.7792949,230.685677 L66.7291404,230.598281 L66.6422507,229.799862 L67.2126037,229.527303 L69.1464566,227.697901 L69.6172949,227.578657 L69.915839,227.116493 L71.7071037,226.89652 L72.1474934,227.280176 L72.7267581,227.206852 L73.3000816,226.984657 L74.5232213,225.884054 L75.5807507,225.843318 L75.455986,225.396707 L76.6768978,224.24648 L77.3333978,224.721976 L79.1216919,223.199203 L79.887361,223.144395 L81.6793684,220.493615 L83.3027949,213.96554 L83.308736,213.488562 L81.4394934,211.908019 C81.4394934,211.908019 81.8672581,210.16231 83.1550081,209.335747 C83.1988243,209.108368 83.1646625,208.332909 83.1646625,208.332909 L84.5415301,207.702617 L84.2697213,206.936787 L83.0978243,208.009986 L82.4279566,207.835193 L82.0098463,207.350069 L81.894736,206.527949 L81.6533757,205.835443 L81.3028463,205.097757 L81.8152728,204.702251 L81.7721993,203.701635 L81.3496331,203.116522 L82.2705154,202.980243 L83.1646625,202.218857 L82.7420963,201.633744 L81.074111,201.648557 L79.9512287,202.018141 L78.9412287,201.932226 L77.7968096,201.801872 L77.1507066,202.178121 L76.2461625,202.087762 L75.6067434,202.613622 L74.0241625,202.750642 C74.0241625,202.750642 71.2080449,204.388956 72.4334125,205.769525 C72.0665449,205.859143 71.8556331,205.892473 71.8556331,205.892473 L70.3510301,204.773353 C70.3510301,204.773353 69.7762213,204.971106 69.7903316,205.296251 C69.8044419,205.621395 69.812611,205.796929 69.812611,205.796929 L67.5920963,205.908026 C67.5920963,205.908026 68.3644493,204.174168 69.5511993,203.426854 C70.736464,202.678799 73.1805154,201.630782 73.5562949,200.513884 C74.1563537,199.688802 74.3397875,199.656213 74.3397875,199.656213 L75.0178243,199.404393 L75.7248243,197.998642 L75.6772949,196.898039 L76.4088022,196.669178 L76.4674713,196.190719 L79.6259493,194.513892 L79.9081551,194.302066 L79.8918169,193.325892 L80.6894199,192.768183 L82.4613757,192.724485 L84.0075669,191.73646 L84.7977434,191.630547 L87.123714,190.287011 L87.134111,189.309355 L87.6925816,189.362682 L89.3264051,190.401812 L89.9435449,190.578086 L90.7812507,190.344782 L91.679111,190.284789 L92.8688316,189.636722 L93.4228463,189.590061 L94.0971699,189.263435 L95.2445596,188.842747 L96.0785522,189.136044 L96.8523904,188.053216 L97.2712434,189.164929 L98.4765596,189.468595 L100.449773,190.393665 L100.667368,189.909281 L99.0870154,186.437862 L102.244008,184.735852 L100.772082,181.335535 L103.366148,176.398373 L101.805104,174.003116 L101.775398,169.6444 L105.138846,167.809814 L103.748611,165.022754 L105.991405,163.606635 L104.751185,161.35136 L104.234302,161.531338 L103.027501,162.623794 L101.65806,160.852163 L99.0847875,164.567256 L97.3076331,162.882281 L98.0361699,160.249276 L95.9872066,161.375061 L89.3991846,151.134116 L90.8570007,145.664428 L93.4146772,142.357433 L94.4640375,138.457919 L99.7034125,135.898238 L100.935464,134.99761 L91.0842507,135.03168 L91.0159272,138.341637 L87.2744713,138.788248 L84.1835743,142.015994 L82.2645743,141.739732 L75.8028022,138.083151 L75.1500154,138.910455 L76.7571037,140.551732 L76.0805522,144.486797 L67.4146037,138.861572 L65.4525301,140.040685 L67.136111,145.888844 L65.3121699,145.357799 L64.8561846,142.168567 L61.9212434,139.225971 L61.2743978,137.747637 L61.1422066,134.696166 L62.997339,134.72357 L64.1759199,137.483966 L63.8833169,134.388797 L63.3701478,133.557049 L64.5115963,130.555201 L66.9860963,127.752587 L67.5430816,124.724076 L68.6563096,123.527929 L69.2259199,122.002193 L71.1308096,120.725315 L71.0558022,116.568797 L66.1870081,112.999612 L67.3084051,110.751004 L66.896236,109.814824 L66.5783831,108.574238 L66.9400522,107.157378 L66.9920375,105.901979 L68.1275449,105.20651 L68.600611,105.13763 L69.6336331,105.749405 L71.4078169,105.128742 L69.3440007,103.956296 L67.7049787,104.019991 L66.2434493,104.528076 L65.1680963,108.831243 L65.0604125,109.355622 L64.4610963,108.492767 L60.8406919,106.18861 L60.6282949,106.480425 L60.5495743,108.809764 Z" id="Stroke-5" stroke="#E75F52" stroke-linecap="round" stroke-linejoin="round"></path>
                <polygon id="Fill-7" fill="#FFFFFF" points="53.3544382 66.2419616 52.3058206 66.483413 51.1131294 67.0811162 48.9891588 70.6221561 46.3000338 72.1301162 46.2413647 70.7791736 48.0036662 67.4529217 46.6542765 66.8544778 45.6212544 68.6986923 44.8139971 67.1766599 41.5292691 67.1544404 38.4094088 63.6178444 39.3228647 61.4773706 37.6207176 60.0901362 36.5416515 62.0869242 33.8725779 60.3871362 33.3230191 58.704383 34.0886882 56.8201736 36.2735559 58.3385027 35.6341368 55.8077072 36.4146588 54.2738244 41.1520044 57.2460464 40.6692838 54.6589616 39.9392618 52.482196 41.9718868 50.4987397 44.4835191 54.6604429 44.3817765 60.8789267 46.3237985 62.9083032 48.7797324 64.5658743 49.1867029 65.4020663 51.6678868 64.0029815 52.1743721 64.3925626 53.4732618 64.536989 53.96935 64.7480738"></polygon>
                <polygon id="Stroke-9" stroke="#E75F52" stroke-linecap="round" stroke-linejoin="round" points="53.3544382 66.2419616 52.3058206 66.483413 51.1131294 67.0811162 48.9891588 70.6221561 46.3000338 72.1301162 46.2413647 70.7791736 48.0036662 67.4529217 46.6542765 66.8544778 45.6212544 68.6986923 44.8139971 67.1766599 41.5292691 67.1544404 38.4094088 63.6178444 39.3228647 61.4773706 37.6207176 60.0901362 36.5416515 62.0869242 33.8725779 60.3871362 33.3230191 58.704383 34.0886882 56.8201736 36.2735559 58.3385027 35.6341368 55.8077072 36.4146588 54.2738244 41.1520044 57.2460464 40.6692838 54.6589616 39.9392618 52.482196 41.9718868 50.4987397 44.4835191 54.6604429 44.3817765 60.8789267 46.3237985 62.9083032 48.7797324 64.5658743 49.1867029 65.4020663 51.6678868 64.0029815 52.1743721 64.3925626 53.4732618 64.536989 53.96935 64.7480738"></polygon>
                <path d="M64.2478824,109.445167 C64.9935,110.2147 64.8962132,110.330241 64.8962132,110.330241 L63.9419118,112.619586 L61.5476176,109.742907 L61.2906618,107.16397 C62.3028897,107.923134 63.5022647,108.674892 64.2478824,109.445167" id="Fill-11" fill="#FFFFFF"></path>
                <path d="M64.2478824,109.445167 C64.9935,110.2147 64.8962132,110.330241 64.8962132,110.330241 L63.9419118,112.619586 L61.5476176,109.742907 L61.2906618,107.16397 C62.3028897,107.923134 63.5022647,108.674892 64.2478824,109.445167 Z" id="Stroke-13" stroke="#E75F52" stroke-linecap="round" stroke-linejoin="round"></path>
                <polygon id="Fill-15" fill="#FFFFFF" points="76.4689566 195.410965 78.9984125 194.142975 79.1833316 193.214202 79.3860743 192.710561 82.3410669 190.89375 82.313589 190.257533 82.6284713 189.748708 82.2021919 189.410972 81.2998757 189.33987 80.4272654 189.941277 79.2323463 189.172484 78.7362581 188.093359 77.8391404 188.128169 77.8398831 186.427641 75.7441331 186.474301 74.8299346 186.119531 72.9614346 187.078671 71.7264125 187.091262 72.440839 188.020035 72.4586625 189.295431 72.2121037 189.65909 72.2975081 191.640324 73.688486 192.613536 73.7456699 193.923002 74.6866037 194.027434 75.0534713 194.722162 76.0189125 193.657109 76.2372507 194.392573 75.8792949 194.760676"></polygon>
                <polygon id="Stroke-17" stroke="#E75F52" stroke-linecap="round" stroke-linejoin="round" points="76.4689566 195.410965 78.9984125 194.142975 79.1833316 193.214202 79.3860743 192.710561 82.3410669 190.89375 82.313589 190.257533 82.6284713 189.748708 82.2021919 189.410972 81.2998757 189.33987 80.4272654 189.941277 79.2323463 189.172484 78.7362581 188.093359 77.8391404 188.128169 77.8398831 186.427641 75.7441331 186.474301 74.8299346 186.119531 72.9614346 187.078671 71.7264125 187.091262 72.440839 188.020035 72.4586625 189.295431 72.2121037 189.65909 72.2975081 191.640324 73.688486 192.613536 73.7456699 193.923002 74.6866037 194.027434 75.0534713 194.722162 76.0189125 193.657109 76.2372507 194.392573 75.8792949 194.760676"></polygon>
                <polygon id="Fill-19" fill="#FFFFFF" points="69.6382375 189.901356 69.908561 190.953817 70.5888257 191.104909 71.5357007 192.201809 72.0525831 192.039607 72.0147081 191.155273 71.2661199 190.298343 70.0756566 189.636203"></polygon>
                <polygon id="Stroke-21" stroke="#E75F52" stroke-linecap="round" stroke-linejoin="round" points="69.6382375 189.901356 69.908561 190.953817 70.5888257 191.104909 71.5357007 192.201809 72.0525831 192.039607 72.0147081 191.155273 71.2661199 190.298343 70.0756566 189.636203"></polygon>
                <polygon id="Fill-23" fill="#FFFFFF" points="30.0487625 49.1600918 27.6113949 46.6989172 30.7810125 45.2724284 31.2837846 44.6517651 32.8611669 44.3895756 27.4108801 40.8433511 30.0197993 39.9397601 31.1263434 39.7960743 35.9951375 43.3652589 35.810961 45.2265082 34.3256669 45.1842913 34.0805934 46.8477875"></polygon>
                <polygon id="Stroke-25" stroke="#E75F52" stroke-linecap="round" stroke-linejoin="round" points="30.0487625 49.1600918 27.6113949 46.6989172 30.7810125 45.2724284 31.2837846 44.6517651 32.8611669 44.3895756 27.4108801 40.8433511 30.0197993 39.9397601 31.1263434 39.7960743 35.9951375 43.3652589 35.810961 45.2265082 34.3256669 45.1842913 34.0805934 46.8477875"></polygon>
                <polygon id="Fill-27" fill="#FFFFFF" points="43.4585176 26.1352594 33.6058191 32.2322768 34.2801426 35.5637132 29.8279735 34.2846135 28.1547897 36.0036584 28.5424515 38.8447855 30.1547382 39.3832369 31.1550838 39.243995 35.3681206 42.3369426 36.4650103 43.1968354 36.4442162 43.9493342 38.7642456 43.7086234 40.3148926 41.5933317 40.9364882 37.609384 41.7348338 34.020202 44.3118191 31.1635212"></polygon>
                <polygon id="Stroke-29" stroke="#E75F52" stroke-linecap="round" stroke-linejoin="round" points="43.4585176 26.1352594 33.6058191 32.2322768 34.2801426 35.5637132 29.8279735 34.2846135 28.1547897 36.0036584 28.5424515 38.8447855 30.1547382 39.3832369 31.1550838 39.243995 35.3681206 42.3369426 36.4650103 43.1968354 36.4442162 43.9493342 38.7642456 43.7086234 40.3148926 41.5933317 40.9364882 37.609384 41.7348338 34.020202 44.3118191 31.1635212"></polygon>
                <polygon id="Fill-31" fill="#FFFFFF" points="28.8829551 52.8137843 26.5153963 50.7510786 22.6090728 51.0540037 20.3269184 53.3981559 22.6729404 54.9601833 22.8541463 56.7073728 22.2607713 57.6828067 22.5221831 58.8248865 23.5819404 58.8337743 24.6387272 59.995111"></polygon>
                <polygon id="Stroke-33" stroke="#E75F52" stroke-linecap="round" stroke-linejoin="round" points="28.8829551 52.8137843 26.5153963 50.7510786 22.6090728 51.0540037 20.3269184 53.3981559 22.6729404 54.9601833 22.8541463 56.7073728 22.2607713 57.6828067 22.5221831 58.8248865 23.5819404 58.8337743 24.6387272 59.995111"></polygon>
                <polygon id="Fill-35" fill="#FFFFFF" points="22.867811 59.4629551 22.0145096 60.5487456 22.5558993 62.030783 21.3372154 64.4838105 22.2157669 68.8603017 24.7734434 69.2113691 24.7415096 64.8022893 25.9832154 62.8995636 25.9312301 61.6989726"></polygon>
                <polygon id="Stroke-37" stroke="#E75F52" stroke-linecap="round" stroke-linejoin="round" points="22.867811 59.4629551 22.0145096 60.5487456 22.5558993 62.030783 21.3372154 64.4838105 22.2157669 68.8603017 24.7734434 69.2113691 24.7415096 64.8022893 25.9832154 62.8995636 25.9312301 61.6989726"></polygon>
                <polygon id="Fill-39" fill="#FFFFFF" points="21.2030191 71.1545342 22.2486662 72.0655317 22.2352985 72.968382 20.4975044 74.4400504 19.42735 74.1808234"></polygon>
                <polygon id="Stroke-41" stroke="#E75F52" stroke-linecap="round" stroke-linejoin="round" points="21.2030191 71.1545342 22.2486662 72.0655317 22.2352985 72.968382 20.4975044 74.4400504 19.42735 74.1808234"></polygon>
                <polygon id="Fill-43" fill="#FFFFFF" points="38.8945801 72.3689753 40.7021831 71.2957758 41.8057566 71.1024666 42.5565728 72.5267334 41.3675949 74.4272372 40.3538816 74.2665165"></polygon>
                <polygon id="Stroke-45" stroke="#E75F52" stroke-linecap="round" stroke-linejoin="round" points="38.8945801 72.3689753 40.7021831 71.2957758 41.8057566 71.1024666 42.5565728 72.5267334 41.3675949 74.4272372 40.3538816 74.2665165"></polygon>
                <polygon id="Fill-47" fill="#FFFFFF" points="43.4987691 73.4922426 44.5251074 73.9536666 43.5433279 75.745295 42.3142471 75.4927339 43.3301882 74.5010057"></polygon>
                <polygon id="Stroke-49" stroke="#E75F52" stroke-linecap="round" stroke-linejoin="round" points="43.4987691 73.4922426 44.5251074 73.9536666 43.5433279 75.745295 42.3142471 75.4927339 43.3301882 74.5010057"></polygon>
                <polygon id="Fill-51" fill="#FFFFFF" points="38.3393772 81.5616067 37.9101272 83.8835394 33.5975757 85.8055219 33.664414 84.9011903 35.2002081 83.6887489"></polygon>
                <polygon id="Stroke-53" stroke="#E75F52" stroke-linecap="round" stroke-linejoin="round" points="38.3393772 81.5616067 37.9101272 83.8835394 33.5975757 85.8055219 33.664414 84.9011903 35.2002081 83.6887489"></polygon>
                <polygon id="Fill-55" fill="#FFFFFF" points="32.6317632 86.7454047 32.9176824 87.235714 30.3057926 89.2917539 29.2787118 88.8303299 29.4718 87.1697963 30.6860279 87.0720307"></polygon>
                <polygon id="Stroke-57" stroke="#E75F52" stroke-linecap="round" stroke-linejoin="round" points="32.6317632 86.7454047 32.9176824 87.235714 30.3057926 89.2917539 29.2787118 88.8303299 29.4718 87.1697963 30.6860279 87.0720307"></polygon>
                <polygon id="Fill-59" fill="#FFFFFF" points="43.6833169 105.859466 37.4287434 108.208062 36.5969787 113.452593 39.8482875 110.268545 41.976714 110.486296 39.3700228 111.440251 40.3822507 112.803785 41.1768831 114.025855 40.1869346 115.617508 40.5411772 116.455922 45.751589 113.245952 44.2388169 108.894643 44.3962581 106.432727"></polygon>
                <polygon id="Stroke-61" stroke="#E75F52" stroke-linecap="round" stroke-linejoin="round" points="43.6833169 105.859466 37.4287434 108.208062 36.5969787 113.452593 39.8482875 110.268545 41.976714 110.486296 39.3700228 111.440251 40.3822507 112.803785 41.1768831 114.025855 40.1869346 115.617508 40.5411772 116.455922 45.751589 113.245952 44.2388169 108.894643 44.3962581 106.432727"></polygon>
                <polygon id="Fill-63" fill="#FFFFFF" points="51.4456125 99.1917786 46.4216051 103.046113 46.491414 104.647395 48.3420904 104.574811 46.0985537 105.363601 44.7758993 106.61826 44.774414 109.023886 45.405664 110.151893 46.9473993 110.292616 52.147414 100.718255"></polygon>
                <polygon id="Stroke-65" stroke="#E75F52" stroke-linecap="round" stroke-linejoin="round" points="51.4456125 99.1917786 46.4216051 103.046113 46.491414 104.647395 48.3420904 104.574811 46.0985537 105.363601 44.7758993 106.61826 44.774414 109.023886 45.405664 110.151893 46.9473993 110.292616 52.147414 100.718255"></polygon>
                <polygon id="Fill-67" fill="#FFFFFF" points="59.6524566 112.553149 57.1786993 115.355763 58.0327434 116.725962 57.7490522 118.741267 59.765339 121.2691 62.6215596 121.157262 63.2075081 117.576227 61.8952507 116.625234 61.5402654 113.331571"></polygon>
                <polygon id="Stroke-69" stroke="#E75F52" stroke-linecap="round" stroke-linejoin="round" points="59.6524566 112.553149 57.1786993 115.355763 58.0327434 116.725962 57.7490522 118.741267 59.765339 121.2691 62.6215596 121.157262 63.2075081 117.576227 61.8952507 116.625234 61.5402654 113.331571"></polygon>
                <polygon id="Fill-71" fill="#FFFFFF" points="45.5134963 61.0737172 45.4659669 58.2407372 47.2928787 55.4758968 47.4421507 57.1712409 46.3965037 58.9836075 47.1235551 61.9321287 46.612614 62.2357945"></polygon>
                <polygon id="Stroke-73" stroke="#E75F52" stroke-linecap="round" stroke-linejoin="round" points="45.5134963 61.0737172 45.4659669 58.2407372 47.2928787 55.4758968 47.4421507 57.1712409 46.3965037 58.9836075 47.1235551 61.9321287 46.612614 62.2357945"></polygon>
                <polygon id="Fill-75" fill="#FFFFFF" points="43.7685728 88.2151474 40.6346022 86.7782895 41.0913301 85.2014491 44.0708301 83.1002297 45.6222199 84.3156337 47.4201684 87.7892746 50.0350287 87.6159628 52.483536 88.7965564 52.4805654 92.1983544 50.4605654 93.9781324 47.8063449 93.2315589 41.2361463 95.4720202 38.9421096 92.6560751 43.9527493 92.4605439 42.5038449 91.8791349 44.1517787 88.4129005"></polygon>
                <polygon id="Stroke-77" stroke="#E75F52" stroke-linecap="round" stroke-linejoin="round" points="43.7685728 88.2151474 40.6346022 86.7782895 41.0913301 85.2014491 44.0708301 83.1002297 45.6222199 84.3156337 47.4201684 87.7892746 50.0350287 87.6159628 52.483536 88.7965564 52.4805654 92.1983544 50.4605654 93.9781324 47.8063449 93.2315589 41.2361463 95.4720202 38.9421096 92.6560751 43.9527493 92.4605439 42.5038449 91.8791349 44.1517787 88.4129005"></polygon>
                <polygon id="Fill-79" fill="#FFFFFF" points="137.119382 271.678935 137.895449 270.585738 140.117449 270.002848 141.252956 268.540808 143.586353 268.804479 145.55214 269.223686 146.956485 270.515377 145.500897 271.493773 143.969559 274.175661 142.248846 274.24306 140.386287 272.756579"></polygon>
                <polygon id="Stroke-81" stroke="#E75F52" stroke-linecap="round" stroke-linejoin="round" points="137.119382 271.678935 137.895449 270.585738 140.117449 270.002848 141.252956 268.540808 143.586353 268.804479 145.55214 269.223686 146.956485 270.515377 145.500897 271.493773 143.969559 274.175661 142.248846 274.24306 140.386287 272.756579"></polygon>
                <polygon id="Fill-83" fill="#FFFFFF" points="0.857831618 154.217139 0.857831618 153.769787 0.371397794 153.209857 0.707816912 153.097279 1.45640515 153.097279 2.16786103 152.350705 3.14072868 152.350705 3.17860368 151.753742 3.88931691 150.522044 4.86218456 150.59685 5.19934632 151.081974 6.50863309 150.821266 7.14508162 150.708688 7.25722132 150.036919 8.00580956 149.588827 9.05368456 148.768189 9.69013309 148.618578 9.69013309 148.021615 9.09081691 148.357129 7.70652279 147.685361 7.25722132 147.909777 6.69578015 147.760166 6.80791985 147.312074 5.91005956 146.826949 5.57364044 146.26776 5.38649338 145.670057 5.38649338 145.371575 6.58364044 145.371575 6.69578015 144.550196 7.25722132 144.102845 7.74365515 144.363553 7.96867721 144.849418 8.45436838 144.923483 8.60438309 145.371575 9.12869191 145.073094 10.1765669 144.513164 10.9251551 143.692525 11.4865963 144.139877 12.3094493 143.841396 12.9458978 144.214683 13.0201625 143.990266 12.5716037 143.505882 12.9080228 142.124573 13.8437581 141.489837 14.2930596 141.041745 14.2930596 140.519588 14.6673537 140.109269 14.517339 139.213084 14.5923463 138.727959 14.6673537 137.944353 15.3409346 137.459229 15.5280816 137.122974 15.5280816 136.302336 15.6023463 135.817211 15.9395081 135.704633 15.7152287 135.145443 16.2766699 134.585513 16.7631037 133.652296 17.0623904 133.913745 17.9602507 133.615264 18.4845596 133.055333 18.8209787 133.950777 19.6445743 133.689328 20.5424346 133.764134 21.1038757 134.137421 22.2267581 134.324064 23.1996257 133.279009 23.1624934 132.532436 23.6110522 132.159149 24.1724934 130.853386 24.3225081 130.106812 24.135361 129.397271 24.5846625 129.173595 25.7068022 129.957201 26.9418243 129.994234 28.0647066 129.845363 28.4761331 130.069039 28.7011551 129.323206 30.6847654 128.725503 32.0319272 128.389989 32.518361 127.792286 33.2290743 127.418999 33.7155081 127.418999 34.0898022 127.792286 35.2876919 127.904865 35.8862654 127.381967 36.8220007 127.904865 38.805611 128.576633 39.628464 127.978929 40.5641993 128.053735 41.4620596 128.688471 42.2106478 130.180877 41.9863684 132.233954 41.8363537 133.42862 41.949236 133.764134 43.4828022 133.689328 43.5956846 135.182476 43.1842581 135.517989 43.1842581 136.003855 44.0442434 136.414174 44.9428463 137.459229 45.6914346 138.802765 46.4771551 140.034463 46.5892949 141.191356 47.3750154 141.900897 47.8243169 141.937929 47.2257434 141.191356 46.9264566 140.258139 47.4500228 140.295912 48.4228904 140.744004 49.1343463 142.049767 49.059339 143.616979 48.4607654 144.550196 47.3378831 144.923483 45.2042581 146.155181 44.6806919 147.349847 44.7556993 148.842994 45.8407066 147.573523 46.9264566 146.5655 47.9364566 146.341825 50.1443463 146.341825 51.6043904 146.491436 52.2400963 147.685361 52.3151037 148.991865 53.4008537 149.925082 53.3258463 151.828548 53.9994272 152.649186 54.1486993 153.657209 53.5129934 154.590426 53.8872875 155.299226 53.1008243 156.531665 53.4008537 157.016049 52.9515522 157.799655 52.390111 157.72559 52.2400963 158.546969 50.8929346 160.599306 50.3314934 160.860755 50.0322066 161.569555 49.059339 160.711144 47.6750449 160.711144 47.4878978 161.009625 46.5521625 160.972593 45.8035743 161.719166 45.7664419 163.809276 45.3171404 165.82458 44.4185375 166.272673 41.8363537 168.250204 40.863486 167.728047 41.2749125 167.131084 40.0777654 167.019246 39.2913022 165.936418 37.9070081 165.898645 37.570589 165.526099 37.0462801 165.936418 36.5977213 165.488326 36.1105449 165.488326 36.0734125 166.757797 34.426964 167.316987 34.0526699 166.757797 31.9569199 167.653241 31.6576331 167.392533 30.9090449 168.101333 30.2725963 167.093311 29.6361478 166.645959 30.0854493 166.421543 29.8983022 165.189845 30.6097581 164.406239 30.7961625 163.622633 29.5618831 162.539805 28.9254346 162.539805 27.7282875 162.577578 27.1289713 161.831004 26.4932654 160.822982 26.5675301 160.412663 26.193236 160.114181 25.6317949 159.666089 26.3061184 159.442413 25.8568169 157.501914 25.2953757 157.501914 25.1461037 156.642762 22.8253316 155.037777 21.6281846 156.717568 21.4410375 157.352303 20.3931625 157.949266 19.6817066 157.799655 20.1681404 158.658807 20.3181551 159.96457 20.9167287 160.711144 20.5053022 161.047398 20.8417213 161.607328 19.0460007 162.129486 18.3345449 162.801254 18.2974125 163.622633 18.5966993 164.032952 17.9981257 165.040974 17.3238022 165.488326 16.613089 165.488326 16.2766699 165.040974 15.6773537 165.339456 15.565214 164.630655 15.0787801 164.182563 14.4423316 164.331433 14.1801772 164.891363 12.8708904 164.70472 12.5337287 165.115039 11.0372949 164.107757 11.0744272 163.361184 10.4758537 162.950865 10.1015596 163.099735 9.83940515 162.166518 7.29435368 162.577578 6.17221397 161.34588 6.32148603 160.263792 5.94793456 159.629057 6.20934632 159.143932 4.78717721 158.957289 3.70216985 156.979017 3.10285368 156.979017 1.11998603 154.627458 1.08211103 154.36675"></polygon>
                <polygon id="Stroke-85" stroke="#E75F52" stroke-linecap="round" stroke-linejoin="round" points="0.857831618 154.217139 0.857831618 153.769787 0.371397794 153.209857 0.707816912 153.097279 1.45640515 153.097279 2.16786103 152.350705 3.14072868 152.350705 3.17860368 151.753742 3.88931691 150.522044 4.86218456 150.59685 5.19934632 151.081974 6.50863309 150.821266 7.14508162 150.708688 7.25722132 150.036919 8.00580956 149.588827 9.05368456 148.768189 9.69013309 148.618578 9.69013309 148.021615 9.09081691 148.357129 7.70652279 147.685361 7.25722132 147.909777 6.69578015 147.760166 6.80791985 147.312074 5.91005956 146.826949 5.57364044 146.26776 5.38649338 145.670057 5.38649338 145.371575 6.58364044 145.371575 6.69578015 144.550196 7.25722132 144.102845 7.74365515 144.363553 7.96867721 144.849418 8.45436838 144.923483 8.60438309 145.371575 9.12869191 145.073094 10.1765669 144.513164 10.9251551 143.692525 11.4865963 144.139877 12.3094493 143.841396 12.9458978 144.214683 13.0201625 143.990266 12.5716037 143.505882 12.9080228 142.124573 13.8437581 141.489837 14.2930596 141.041745 14.2930596 140.519588 14.6673537 140.109269 14.517339 139.213084 14.5923463 138.727959 14.6673537 137.944353 15.3409346 137.459229 15.5280816 137.122974 15.5280816 136.302336 15.6023463 135.817211 15.9395081 135.704633 15.7152287 135.145443 16.2766699 134.585513 16.7631037 133.652296 17.0623904 133.913745 17.9602507 133.615264 18.4845596 133.055333 18.8209787 133.950777 19.6445743 133.689328 20.5424346 133.764134 21.1038757 134.137421 22.2267581 134.324064 23.1996257 133.279009 23.1624934 132.532436 23.6110522 132.159149 24.1724934 130.853386 24.3225081 130.106812 24.135361 129.397271 24.5846625 129.173595 25.7068022 129.957201 26.9418243 129.994234 28.0647066 129.845363 28.4761331 130.069039 28.7011551 129.323206 30.6847654 128.725503 32.0319272 128.389989 32.518361 127.792286 33.2290743 127.418999 33.7155081 127.418999 34.0898022 127.792286 35.2876919 127.904865 35.8862654 127.381967 36.8220007 127.904865 38.805611 128.576633 39.628464 127.978929 40.5641993 128.053735 41.4620596 128.688471 42.2106478 130.180877 41.9863684 132.233954 41.8363537 133.42862 41.949236 133.764134 43.4828022 133.689328 43.5956846 135.182476 43.1842581 135.517989 43.1842581 136.003855 44.0442434 136.414174 44.9428463 137.459229 45.6914346 138.802765 46.4771551 140.034463 46.5892949 141.191356 47.3750154 141.900897 47.8243169 141.937929 47.2257434 141.191356 46.9264566 140.258139 47.4500228 140.295912 48.4228904 140.744004 49.1343463 142.049767 49.059339 143.616979 48.4607654 144.550196 47.3378831 144.923483 45.2042581 146.155181 44.6806919 147.349847 44.7556993 148.842994 45.8407066 147.573523 46.9264566 146.5655 47.9364566 146.341825 50.1443463 146.341825 51.6043904 146.491436 52.2400963 147.685361 52.3151037 148.991865 53.4008537 149.925082 53.3258463 151.828548 53.9994272 152.649186 54.1486993 153.657209 53.5129934 154.590426 53.8872875 155.299226 53.1008243 156.531665 53.4008537 157.016049 52.9515522 157.799655 52.390111 157.72559 52.2400963 158.546969 50.8929346 160.599306 50.3314934 160.860755 50.0322066 161.569555 49.059339 160.711144 47.6750449 160.711144 47.4878978 161.009625 46.5521625 160.972593 45.8035743 161.719166 45.7664419 163.809276 45.3171404 165.82458 44.4185375 166.272673 41.8363537 168.250204 40.863486 167.728047 41.2749125 167.131084 40.0777654 167.019246 39.2913022 165.936418 37.9070081 165.898645 37.570589 165.526099 37.0462801 165.936418 36.5977213 165.488326 36.1105449 165.488326 36.0734125 166.757797 34.426964 167.316987 34.0526699 166.757797 31.9569199 167.653241 31.6576331 167.392533 30.9090449 168.101333 30.2725963 167.093311 29.6361478 166.645959 30.0854493 166.421543 29.8983022 165.189845 30.6097581 164.406239 30.7961625 163.622633 29.5618831 162.539805 28.9254346 162.539805 27.7282875 162.577578 27.1289713 161.831004 26.4932654 160.822982 26.5675301 160.412663 26.193236 160.114181 25.6317949 159.666089 26.3061184 159.442413 25.8568169 157.501914 25.2953757 157.501914 25.1461037 156.642762 22.8253316 155.037777 21.6281846 156.717568 21.4410375 157.352303 20.3931625 157.949266 19.6817066 157.799655 20.1681404 158.658807 20.3181551 159.96457 20.9167287 160.711144 20.5053022 161.047398 20.8417213 161.607328 19.0460007 162.129486 18.3345449 162.801254 18.2974125 163.622633 18.5966993 164.032952 17.9981257 165.040974 17.3238022 165.488326 16.613089 165.488326 16.2766699 165.040974 15.6773537 165.339456 15.565214 164.630655 15.0787801 164.182563 14.4423316 164.331433 14.1801772 164.891363 12.8708904 164.70472 12.5337287 165.115039 11.0372949 164.107757 11.0744272 163.361184 10.4758537 162.950865 10.1015596 163.099735 9.83940515 162.166518 7.29435368 162.577578 6.17221397 161.34588 6.32148603 160.263792 5.94793456 159.629057 6.20934632 159.143932 4.78717721 158.957289 3.70216985 156.979017 3.10285368 156.979017 1.11998603 154.627458 1.08211103 154.36675"></polygon>
                <polygon id="Fill-87" fill="#FFFFFF" points="96.3173132 18.4470329 94.4911441 17.3256913 92.6642324 14.663801 93.5071368 13.2624943 96.3173132 14.8037835 96.5980338 16.485796 98.144225 17.3256913"></polygon>
                <polygon id="Stroke-89" stroke="#E75F52" stroke-linecap="round" stroke-linejoin="round" points="96.3173132 18.4470329 94.4911441 17.3256913 92.6642324 14.663801 93.5071368 13.2624943 96.3173132 14.8037835 96.5980338 16.485796 98.144225 17.3256913"></polygon>
                <polygon id="Fill-91" fill="#FFFFFF" points="99.2683699 19.4281698 99.970914 16.6255564 101.516362 16.6255564 101.094539 17.7461574 101.234899 19.2881873"></polygon>
                <polygon id="Stroke-93" stroke="#E75F52" stroke-linecap="round" stroke-linejoin="round" points="99.2683699 19.4281698 99.970914 16.6255564 101.516362 16.6255564 101.094539 17.7461574 101.234899 19.2881873"></polygon>
                <polygon id="Fill-95" fill="#FFFFFF" points="97.4414581 13.5423853 96.0363699 12.5617668 94.2094581 12.001096 94.2094581 7.65719327 95.3338257 6.67583416 97.1607375 6.81581671 99.829811 8.21786409 99.4087301 9.89913591 98.4254654 10.0391185 98.706186 11.1604601 100.533098 11.1604601 102.359267 12.8417319 104.60726 12.8417319 104.326539 14.2430387 102.218907 15.0844152 99.970914 12.8417319"></polygon>
                <polygon id="Stroke-97" stroke="#E75F52" stroke-linecap="round" stroke-linejoin="round" points="97.4414581 13.5423853 96.0363699 12.5617668 94.2094581 12.001096 94.2094581 7.65719327 95.3338257 6.67583416 97.1607375 6.81581671 99.829811 8.21786409 99.4087301 9.89913591 98.4254654 10.0391185 98.706186 11.1604601 100.533098 11.1604601 102.359267 12.8417319 104.60726 12.8417319 104.326539 14.2430387 102.218907 15.0844152 99.970914 12.8417319"></polygon>
                <polygon id="Fill-99" fill="#FFFFFF" points="101.516585 3.453199 98.5653059 1.63194464 99.9703941 0.3698798 101.656203 1.49122145 103.342754 3.03251072"></polygon>
                <polygon id="Stroke-101" stroke="#E75F52" stroke-linecap="round" stroke-linejoin="round" points="101.516585 3.453199 98.5653059 1.63194464 99.9703941 0.3698798 101.656203 1.49122145 103.342754 3.03251072"></polygon>
                <polygon id="Fill-103" fill="#FFFFFF" points="102.921376 6.81618703 102.640656 5.4148803 103.342457 4.43426185 104.748288 5.4148803 104.186104 6.53622195 103.20284 7.65682294"></polygon>
                <polygon id="Stroke-105" stroke="#E75F52" stroke-linecap="round" stroke-linejoin="round" points="102.921376 6.81618703 102.640656 5.4148803 103.342457 4.43426185 104.748288 5.4148803 104.186104 6.53622195 103.20284 7.65682294"></polygon>
                <polygon id="Fill-107" fill="#FFFFFF" points="105.731701 2.89267631 106.012422 1.63135212 107.13679 2.0520404 108.120054 3.03265885 107.839334 3.73331222 106.293885 3.87329476"></polygon>
                <polygon id="Stroke-109" stroke="#E75F52" stroke-linecap="round" stroke-linejoin="round" points="105.731701 2.89267631 106.012422 1.63135212 107.13679 2.0520404 108.120054 3.03265885 107.839334 3.73331222 106.293885 3.87329476"></polygon>
                <polygon id="Fill-111" fill="#FFFFFF" points="108.682015 1.49129551 109.946743 1.49129551 109.946743 2.89260224 109.103839 3.45327307"></polygon>
                <polygon id="Stroke-113" stroke="#E75F52" stroke-linecap="round" stroke-linejoin="round" points="108.682015 1.49129551 109.946743 1.49129551 109.946743 2.89260224 109.103839 3.45327307"></polygon>
                <polygon id="Fill-115" fill="#FFFFFF" points="105.59097 5.97569925 104.888426 8.07765935 107.136418 8.49760698"></polygon>
                <polygon id="Stroke-117" stroke="#E75F52" stroke-linecap="round" stroke-linejoin="round" points="105.59097 5.97569925 104.888426 8.07765935 107.136418 8.49760698"></polygon>
                <polygon id="Fill-119" fill="#FFFFFF" points="103.062108 10.1794713 100.532652 10.1794713 101.79738 8.63818204"></polygon>
                <polygon id="Stroke-121" stroke="#E75F52" stroke-linecap="round" stroke-linejoin="round" points="103.062108 10.1794713 100.532652 10.1794713 101.79738 8.63818204"></polygon>
                <polygon id="Fill-123" fill="#FFFFFF" points="97.8632074 4.57431845 100.25156 4.99426608 100.533024 6.53555536 98.8464721 6.11560773"></polygon>
                <polygon id="Stroke-125" stroke="#E75F52" stroke-linecap="round" stroke-linejoin="round" points="97.8632074 4.57431845 100.25156 4.99426608 100.533024 6.53555536 98.8464721 6.11560773"></polygon>
            </g>
        </g>
    </g>
</svg>