<?xml version="1.0" encoding="UTF-8"?>
<svg width="400px" height="301px" viewBox="0 0 400 301" version="1.1" xmlns="http://www.w3.org/2000/svg" xmlns:xlink="http://www.w3.org/1999/xlink">
    <!-- Generator: Sketch 64 (93537) - https://sketch.com -->
    <title>78</title>
    <desc>Created with Sketch.</desc>
    <g id="78" stroke="none" stroke-width="1" fill="none" fill-rule="evenodd">
        <g id="Group-67" transform="translate(22.000000, 1.000000)">
            <polygon id="Fill-1" fill="#FFFFFF" points="22.0374 159.3381 22.2684 158.3411 22.1764 158.0181 22.2914 157.5531 22.5234 157.4871 23.0094 157.6701 23.1944 157.6231 23.1254 156.9301 23.2404 156.6991 22.9634 156.2591 22.9404 155.3581 22.7564 154.9871 23.0334 154.6871 23.4964 154.5221 24.0984 154.8481 24.4454 154.6871 24.9074 154.8001 25.3484 154.8371 26.3654 155.1631 26.6204 154.9321 27.2454 154.4671 27.1984 154.0051 27.3384 153.7961 27.5924 153.9611 27.7084 153.6821 27.7294 152.4551 27.8224 152.1321 28.1464 152.0151 28.8174 152.3851 29.3034 152.2021 29.2104 151.6011 29.3264 151.3921 30.0904 151.3221 30.4834 150.6511 31.5724 150.8821 31.7344 150.7431 32.1954 149.9111 32.7974 149.4011 33.1454 148.0341 33.1824 147.5031 34.0144 146.8541 34.1794 146.5091 34.1094 145.9741 34.3144 145.6041 34.9414 145.2591 35.2414 144.4941 35.0114 144.3321 34.6184 144.3691 34.2704 143.9331 33.9924 143.8961 33.6434 144.5231 32.9734 144.8931 32.6984 144.6841 32.6984 143.6871 32.3724 142.9941 31.9324 143.3651 31.6794 143.2471 31.5874 142.7161 30.9134 142.4851 30.7994 141.8621 30.6834 141.4441 30.9614 141.1911 30.8444 140.8871 30.6134 140.8431 30.5674 140.5431 29.9894 140.5871 29.6414 140.3121 29.8044 139.7331 29.6414 139.4761 29.1094 139.2711 28.5314 139.3841 28.1614 139.4211 27.6514 139.2591 26.3094 139.5161 25.8004 139.0981 25.2914 138.9591 24.8754 139.0501 24.5744 139.5161 23.4864 139.8381 22.9774 139.7911 22.5154 140.0471 22.0284 140.0841 21.5194 140.4761 21.1024 140.5131 20.7324 140.7661 20.5704 141.1361 20.3164 141.0921 19.7844 140.7441 19.5534 140.7441 19.2754 141.0671 18.6644 141.0671 18.8314 141.4111 19.9694 141.2941 20.1784 141.5281 19.5534 142.6131 19.3444 143.2621 19.7614 144.8131 19.8084 145.3921 19.7374 146.2011 19.9924 146.7811 20.0854 147.7301 19.9924 148.2611 20.3624 149.0931 21.1024 149.4161 22.3294 149.9511 22.8614 150.6221 23.1164 151.1311 23.8104 151.5461 24.0884 152.0331 23.9264 152.9131 23.4864 153.3051 22.0284 153.5361 21.8664 154.3021 21.9134 155.0641 22.0054 155.8741 21.8904 156.4971 21.5194 157.8421 21.8664 159.2061"></polygon>
            <polygon id="Fill-2" fill="#FFFFFF" points="317.8382 258.2414 318.6922 257.9814 318.8862 256.2144 318.4932 254.5764 318.9512 252.4174 320.2602 250.3244 320.9832 247.8354 321.3742 245.4794 321.6352 238.7384 321.8992 236.7084 322.2252 236.1874 322.2252 234.8134 321.7672 234.2894 321.3742 233.2414 322.0262 232.1924 322.2912 231.6064 321.8332 231.0814 320.5252 230.7524 319.9342 230.7524 319.2782 229.9674 318.3612 229.9674 317.9032 230.6894 318.1022 231.4744 316.5292 232.0644 315.4182 232.9804 314.8952 234.1574 314.6962 235.5974 313.8462 236.5134 313.2562 238.6724 312.6042 240.5714 311.6212 242.8624 311.0972 244.7614 310.9022 246.7874 311.0312 248.6864 311.5552 249.5364 312.3402 250.7174 313.0622 252.8094 313.9782 254.0554 315.0892 254.5134 316.1372 254.7744 316.9872 255.8884 317.5112 257.2624 317.5112 258.0474"></polygon>
            <polygon id="Fill-3" fill="#FFFFFF" points="296.6337 241.2273 297.3527 241.2273 297.6787 240.7033 296.9607 240.5713"></polygon>
            <polygon id="Fill-4" fill="#FFFFFF" points="288.4896 273.108 289.0476 273.108 289.2316 272.833 288.7206 272.786"></polygon>
            <polygon id="Fill-5" fill="#FFFFFF" points="22.5013 166.7492 22.9403 166.6792 23.7973 166.2172 24.3643 165.1072 23.7973 163.2082 24.2253 162.2852 24.0053 161.6362 23.2073 161.2882 23.0103 161.8192 22.7213 162.1782 22.6163 162.5042 22.8023 162.8162 23.1033 162.9442 23.3113 163.6482 23.1143 164.1242 22.8713 164.2752 23.0453 164.6302 23.0563 164.9572 22.8133 165.5102 22.9053 165.8362 22.5813 166.2282"></polygon>
            <polygon id="Fill-6" fill="#FFFFFF" points="16.8558 168.2043 16.3928 168.3433 16.4258 168.9663 16.7148 168.8863 17.1668 169.6523 17.6648 170.4843 17.8028 171.1873 18.1968 170.6933 17.9688 170.1063 17.2248 169.1753"></polygon>
            <polygon id="Fill-7" fill="#FFFFFF" points="17.8978 176.0588 18.2328 176.7448 18.2548 177.4038 18.4518 177.8078 19.5388 178.2578 20.0128 178.2578 20.3948 178.2948 19.5968 175.6228 18.9838 175.4618 18.2898 175.9488"></polygon>
            <polygon id="Fill-8" fill="#FFFFFF" points="26.2191 182.781 25.8491 182.132 25.3171 182.169 24.9581 181.766 24.8891 182.297 24.8561 182.642 25.2381 182.792 25.5621 183.221"></polygon>
            <polygon id="Fill-9" fill="#FFFFFF" points="104.3216 226.5808 105.7286 226.6288 107.1506 226.3688 108.2466 226.0088 109.2476 226.7608 110.4896 226.8118 111.7646 227.0868 113.0116 226.9258 113.6316 227.0388 113.9906 226.9398 115.5296 226.6468 116.3986 226.4348 116.6766 225.2068 117.8056 224.1588 118.8026 223.5538 119.8506 222.4248 121.3206 222.1458 123.8246 221.6408 124.9246 220.9508 125.8406 220.7238 126.6056 220.2658 127.3756 219.9688 127.8346 218.6938 132.0236 217.4028 132.2546 217.9088 132.8586 218.3008 133.8746 218.3008 134.5116 218.0378 134.9846 218.8258 135.5086 218.9058 135.6746 218.7268 136.9646 219.7708 138.4046 220.9658 139.4346 221.3578 139.9436 221.9338 139.9916 222.4248 142.4956 220.8048 142.7076 220.1158 142.4806 219.1988 142.7076 218.4808 142.0546 218.4298 140.8926 217.3008 140.2556 217.3668 139.9436 217.5458 139.5336 217.3848 139.1556 217.1538 138.6496 217.2198 137.9316 216.6628 137.1436 216.3518 136.2596 216.6808 135.6406 217.1058 134.8856 216.5168 135.5426 216.2048 135.4756 215.7978 135.6406 215.3878 136.3776 215.0428 136.4396 214.5848 137.3086 214.1448 137.3446 213.4078 136.9346 212.7848 136.6416 212.1328 136.7736 211.5238 136.4106 211.5238 135.3816 211.9348 134.6626 212.5728 134.3026 212.5728 134.3406 211.7848 134.2736 211.3258 135.7766 210.5928 136.1726 209.9368 135.9266 209.6768 135.1386 209.9188 134.6336 209.4608 133.9766 208.2038 130.4916 209.6588 130.0506 210.6408 129.1496 211.2788 128.0536 211.0808 127.7096 210.6408 124.9786 209.7898 124.8646 209.4458 123.9296 208.5298 123.2456 209.1528 122.6696 209.3798 121.6066 209.7898 121.0826 210.1968 120.2506 210.9998 119.5476 211.1138 119.4956 211.8828 117.0576 213.0628 114.2286 213.1108 113.5246 213.3568 112.9526 215.0098 110.5306 216.6298 110.2186 216.4648 109.2686 217.2348 109.6286 217.7408 109.3206 218.3638 107.4876 219.1808 106.5206 219.1808 106.2096 218.7558 105.9486 219.0668 105.0476 219.1038 104.4746 219.5618 103.6726 219.5248 101.8576 218.8878 101.1876 220.3278 101.5466 221.3578 102.2506 222.0948 103.9186 222.1788 104.4746 222.7658 104.3946 223.4878 103.7236 224.3378 103.7236 225.1228 104.1486 225.4518 104.3806 226.2838"></polygon>
            <polygon id="Fill-10" fill="#FFFFFF" points="286.1874 0.0003 283.5414 0.8483 276.3244 3.3793 277.6624 4.9163 278.1644 5.7463 277.8384 6.8453 276.1194 9.3763 275.9984 10.0183 277.6744 10.8023 278.8054 11.0383 279.5394 11.9373 280.1704 11.9033 280.8194 11.3253 280.8834 10.0483 281.5114 9.7503 282.1154 10.0593 283.0434 11.1703 284.0694 11.3483 284.4284 11.6973 284.2924 12.2243 284.3294 12.8203 285.0674 14.2573 285.0674 15.5463 286.4524 17.8543 287.8634 18.8223 289.0034 18.9533 289.6454 18.5353 290.3074 19.0163 291.0434 19.0743 291.6424 17.9113 292.3934 17.8483 292.9834 17.3733 294.2074 17.5333 294.8494 16.8113 296.2564 16.7793 296.8544 15.7313 297.4664 13.9623 299.3684 14.0133 302.2604 16.9853 303.1984 17.1163 303.6684 18.3373 303.4954 19.2133 302.7804 20.0653 302.7364 20.8573 303.3014 21.4123 303.3014 22.3513 302.0144 23.8983 301.9374 25.5123 301.1604 26.0683 301.3884 28.2443 301.7914 29.3213 301.6224 30.3113 302.7514 32.0573 302.3624 34.2683 301.3984 34.4113 300.8634 34.7113 300.3284 37.9333 300.4894 40.9133 300.7644 41.5843 300.8124 42.6023 300.5814 42.9703 299.7904 42.1883 299.1364 40.7193 298.7304 40.6023 298.1414 40.9823 295.6854 45.2643 294.5124 46.3743 294.2154 47.7343 291.1104 50.7733 290.8904 52.2783 292.4264 53.9033 293.2804 54.0903 294.7574 55.5783 295.3694 55.9043 296.8244 56.1563 297.5504 55.9693 297.8654 55.2513 298.1144 55.8133 297.8254 56.6883 297.1004 57.2933 295.4504 57.3783 295.1414 57.9383 295.4614 58.7193 295.2044 59.7493 295.4504 60.2613 296.3484 60.4233 297.1214 60.0463 298.3134 59.9253 300.3914 59.1993 301.1944 59.7303 301.8534 60.7273 301.7104 61.4723 302.5564 63.2023 304.8484 65.0053 305.8634 65.2873 307.2374 64.6063 307.9454 63.9673 308.8364 64.6163 310.2354 64.4223 310.9144 63.3263 311.9734 63.1503 312.4604 63.5683 312.4974 64.4513 313.4654 65.0153 315.7444 65.2103 316.9754 63.8213 317.7824 63.7223 318.6834 64.3303 319.8164 64.3303 321.0124 66.0103 320.6594 67.0793 321.5984 68.1793 322.5434 67.9773 323.1674 67.5313 324.2154 68.0253 324.4574 69.3003 326.8904 71.6503 327.8334 71.2133 328.0564 70.4843 327.2984 67.8853 327.5244 66.8713 328.9064 66.9073 329.5734 67.6693 329.8384 69.9013 331.2304 71.4553 332.5834 71.8223 332.6754 72.3023 334.1004 74.0213 335.5374 73.7653 336.0144 72.8703 335.7644 71.6833 336.8194 70.9173 338.4984 70.4403 338.6194 69.0403 339.3744 68.8683 340.4264 69.7363 341.6654 68.5853 342.8794 70.7343 344.0374 70.9243 345.8214 71.8843 347.4714 71.1303 346.9914 70.3853 346.7264 66.5003 343.3374 61.0713 343.3004 60.5443 345.3494 59.1803 346.8964 55.6553 348.0654 56.2483 353.4024 56.1023 354.0434 55.6983 353.6554 52.3563 354.7284 51.2233 355.0954 46.2493 355.6814 45.0143 355.0844 42.7793 355.3034 41.5663 354.7284 35.4633 356.0814 34.4763 356.6194 31.9553 354.9484 30.1363 354.9114 27.4783 352.6974 27.1343 349.8354 29.6543 348.8164 31.1673 347.2914 31.3393 345.0374 33.8683 344.5214 35.4953 340.8004 37.1563 338.9684 37.3183 336.4134 38.2663 335.8274 37.3873 333.8114 35.6573 334.2034 34.0073 332.1724 31.7173 331.6604 29.5623 329.5634 30.0203 324.1674 27.1123 322.8144 27.7873 319.7104 26.3443 317.5924 27.6163 315.1544 27.6843 312.9074 25.3243 312.8054 23.2863 311.3614 22.4843 310.9404 19.7933 307.5714 16.4373 307.3984 14.9013 303.7004 10.1713 303.3454 8.6823 301.9924 6.4143 300.1814 5.1433 299.8164 4.2263 297.3304 2.1643 294.2844 1.2263 292.3024 2.0963"></polygon>
            <polygon id="Fill-11" fill="#FFFFFF" points="296.3333 60.4782 297.1843 60.0202 298.3753 59.9722 300.3913 59.2072 301.0983 59.6282 301.8903 60.7062 301.6593 61.4722 302.5903 63.2602 304.8143 65.0122 305.7713 65.3382 307.2233 64.6452 307.8643 64.0222 308.9533 64.6932 310.2503 64.4842 310.9293 63.3442 311.9513 63.1762 312.4603 63.5462 312.4603 64.3892 313.4063 65.0522 315.6563 65.1952 316.8923 63.8612 317.6443 63.7592 318.6733 64.3782 319.8103 64.3412 321.0043 65.9102 320.6563 66.9692 321.5033 68.1022 322.6393 67.9262 323.1413 67.5012 324.1563 67.9662 324.3403 69.1612 326.7733 71.7122 327.7443 71.2472 328.0673 70.5102 327.2613 67.8642 327.4183 66.9002 328.8293 66.9362 329.4963 67.6072 329.8193 69.8792 331.1313 71.4672 332.5273 71.7522 332.6673 72.3212 334.0453 74.0432 335.4603 73.7692 335.9773 72.9222 335.7463 71.7522 336.7023 70.8952 338.4393 70.4802 338.5683 69.0732 339.3893 68.9192 340.3353 69.7292 341.6213 68.6772 342.8643 70.7552 344.0113 70.9762 345.7633 71.8772 347.8993 70.9862 347.8993 74.1972 346.8413 76.7232 345.0123 77.8702 344.8763 78.6872 345.4153 79.3142 344.3553 79.4092 342.0143 77.0892 340.8553 77.5842 340.7123 82.2092 338.4143 83.2982 338.2683 85.2552 335.8673 87.0552 332.8913 87.5862 332.4543 88.7632 334.4593 91.1272 334.2253 92.6262 328.6493 93.1432 326.5203 91.4832 324.3323 92.9272 324.2003 95.8852 321.5283 100.3602 320.7593 100.5872 320.2093 99.7732 320.5313 98.8242 320.4143 97.2772 318.6983 95.6762 317.7823 94.4702 317.1633 94.3342 316.4193 92.8102 317.0713 91.0682 316.9693 90.2332 316.0633 90.1192 313.9343 87.3112 313.1433 86.8792 312.9923 85.9962 312.1563 85.4682 311.9073 83.9322 311.4233 83.5112 310.7273 84.0942 310.3503 85.3542 309.5793 85.8342 309.1443 85.3872 309.1063 84.3572 308.0193 83.1882 306.3573 82.7192 304.9293 81.9642 304.6173 82.1802 304.5803 83.0052 302.7263 82.4662 302.3453 82.1362 302.3083 81.5282 302.8803 81.0592 302.8803 80.7032 301.9633 78.6542 301.1493 78.0242 301.0913 76.9352 300.6663 76.7302 299.5333 75.1832 299.3063 74.4612 298.8923 74.5862 295.7873 77.3502 295.0543 77.6792 293.9773 77.0752 294.4723 76.3532 294.0243 75.4582 292.7083 74.2562 292.2253 71.9652 291.9493 71.2652 292.1583 70.5322 292.8663 69.9012 292.9943 68.8282 292.2613 67.9442 291.2863 67.5452 290.8503 66.5112 290.3263 66.1562 289.4653 66.3392 289.0763 65.9282 289.3953 65.0562 289.3953 63.8542 290.5533 63.6382 292.2023 64.7152 292.5913 64.0962 292.9943 63.9132 293.7383 64.2792 294.3803 64.9542 294.8713 64.9902 295.1793 64.3712 295.1353 63.1802 294.8493 62.5712 294.9843 61.8492 295.8793 61.6652 296.2933 61.2772"></polygon>
            <polygon id="Fill-12" fill="#FFFFFF" points="286.848 114.4055 286.097 114.0135 285.822 112.8005 284.777 112.0415 284.421 110.6555 282.464 110.4285 281.812 109.6145 280.664 109.7175 279.473 108.4015 280.173 107.5985 280.115 106.5215 281.032 105.5725 280.987 104.9305 281.856 103.9335 282.017 102.8785 281.181 101.7675 280.94 100.6245 280.94 98.0215 280.232 97.2775 280.162 96.6365 281.412 95.4335 282.497 96.4205 283.597 96.4205 283.633 97.0835 284.986 98.5865 285.488 99.8215 285.855 99.9935 286.152 98.9745 287.596 97.0725 288.065 96.2255 289.497 94.9655 290.781 94.7485 292.302 92.5125 292.991 92.1575 294.09 92.3995 295.168 91.7585 295.066 90.5665 295.718 90.1895 296.623 90.0275 297.448 90.2215 298.1 89.7085 297.562 88.9755 297.708 88.4475 298.991 88.4475 299.944 89.0675 301.993 88.0925 302.224 86.9015 302.762 86.1685 304.306 85.2075 304.687 82.0815 304.947 81.9535 306.402 82.7345 308.088 83.1115 309.199 84.3245 309.14 85.4465 309.543 85.7905 310.401 85.3655 310.72 84.0385 311.49 83.4995 311.926 83.8775 312.164 85.4355 312.955 86.0075 313.219 86.8465 314.034 87.3375 316.001 90.0755 316.965 90.1995 317.021 90.9445 316.482 92.7215 317.123 94.2905 317.764 94.4155 318.934 95.8595 320.481 97.2925 320.525 98.7325 320.195 99.6495 320.707 100.6825 319.553 102.3175 317.467 103.5675 316.756 104.8835 316.082 105.3195 314.202 107.9065 314.007 109.7175 312.985 110.5935 312.479 110.9015 310.478 111.0845 309.708 111.8505 308.004 112.1555 307.593 113.0525 306.692 113.1405 304.72 114.7605 301.934 117.2715 301.282 118.7595 300.468 119.6655 298.984 120.6845 297.686 122.1725 296.283 123.3085 295.817 122.7625 296.158 121.4795 296.979 121.3915 297.356 120.6295 298.386 120.0685 298.584 119.1005 299.189 117.3745 297.774 117.7775 297.067 117.1615 295.901 116.4945 296.638 116.0845 296.73 114.2155 297.353 113.5035 298.848 112.3825 299.325 110.9565 300.64 107.9475 299.57 107.1705 297.712 105.3045 296.536 105.0115 295.227 105.7595 293.372 105.8505 292.115 106.6245 291.928 107.8375 291.389 108.3795 289.982 110.3515 289.89 112.1845 288.813 112.8995"></polygon>
            <polygon id="Fill-13" fill="#FFFFFF" points="304.1586 117.2604 304.0926 117.7194 304.7486 117.7194 304.9466 117.1944"></polygon>
            <polygon id="Fill-14" fill="#FFFFFF" points="148.3158 102.0207 149.2538 101.8147 159.4028 103.3037 165.3808 102.4087 175.0718 104.0367 177.1788 106.6247 182.4468 107.7237 187.0978 109.3297 191.5868 109.0767 192.0238 110.5417 194.1308 111.1357 198.9658 107.5877 204.9878 104.7697 207.5528 104.1717 208.2868 103.3257 209.3858 103.3257 211.3798 103.7137 213.0508 103.1207 220.7488 102.4787 223.7978 100.8987 226.3638 99.5907 230.0948 94.3237 232.9138 92.9487 233.8078 91.8717 235.2528 90.7277 235.1608 90.0867 231.5168 85.9377 233.6468 80.0987 237.3338 79.8897 238.4118 81.1287 243.9098 81.3337 248.1718 77.6687 249.2238 75.3337 254.7918 74.7837 258.0898 71.0927 257.8368 70.0627 258.8678 67.4277 260.5858 65.5287 263.3128 65.2757 264.1598 63.5577 265.4428 63.8537 268.5808 61.5887 272.3628 61.1967 274.7188 61.6107 276.6218 61.0397 277.4468 59.6867 277.4828 59.1367 275.7198 56.5017 272.2598 54.2327 271.3698 52.6747 269.9038 52.5827 267.6338 51.2087 263.6718 51.8067 262.0668 54.7387 259.9378 53.5477 255.1948 54.4417 254.2998 55.7687 252.3098 54.5337 251.3248 52.2427 252.8118 51.0257 252.9738 47.9357 253.8208 46.7187 253.5678 45.5057 255.9498 37.3507 257.5988 38.1967 262.2068 38.9557 263.3718 38.3807 266.0298 34.9457 268.6648 34.1657 269.6508 32.6557 268.4808 30.3417 268.7778 28.8987 269.4898 27.5007 271.4358 19.5747 273.8178 16.7337 273.9788 13.9167 273.0858 12.8627 273.1548 11.8547 272.5608 11.1677 271.2088 11.0307 269.6948 11.3277 269.7308 9.5187 270.8748 8.4877 272.3188 5.6697 276.2108 3.3787 278.2158 5.7387 277.8278 6.9867 276.1338 9.3927 276.0168 10.0107 277.8168 10.8467 278.8138 10.9847 279.5688 11.9237 280.1668 12.0037 280.7938 11.3277 280.9208 10.1597 281.4608 9.7707 282.1678 10.1027 283.2338 11.2597 284.1498 11.3507 284.5048 11.6487 284.3668 12.3247 284.4148 13.0347 285.0668 14.2947 285.0668 15.7147 286.5218 17.7997 287.8848 18.8757 289.0978 18.9677 289.7618 18.5437 290.4948 19.0937 291.0818 19.0137 291.5728 18.0057 292.4448 17.8457 293.0388 17.3187 294.1488 17.5817 294.8278 16.8717 296.2458 16.7337 297.0478 15.3367 297.4148 14.0537 298.3638 13.8597 299.6138 14.1807 302.3038 16.9977 303.1988 17.1807 303.7048 18.3147 303.4958 19.2307 302.7518 20.0557 302.7518 20.9037 303.2428 21.4647 303.3008 22.3127 301.9858 23.8357 301.9158 25.5427 301.1608 26.0227 301.4098 28.3487 301.7768 29.3457 301.6298 30.3077 302.7298 32.0027 302.5088 34.0737 302.1908 34.3857 301.2958 34.4297 300.7688 34.8067 300.3688 38.3587 300.5418 40.9717 300.8378 41.8407 300.7688 42.7017 300.5518 43.0687 299.8188 42.2657 299.1558 40.7187 298.6278 40.6267 298.2288 40.9017 295.5018 45.5057 294.5518 46.3777 294.1968 47.8987 291.1358 50.6737 290.8978 52.2427 292.3858 53.9357 293.2438 54.0977 294.6878 55.5747 295.6738 55.9997 297.2528 56.1127 297.6418 55.8817 297.9538 55.2077 298.1588 55.8057 297.7928 56.8237 297.0588 57.2567 295.4908 57.3847 295.1248 57.9127 295.5118 58.6087 295.2048 59.5947 295.4678 60.2807 296.3038 60.4527 296.3408 61.2557 295.9298 61.7137 295.0358 61.8637 294.9448 62.5857 295.2298 63.2017 295.2298 64.4517 294.9768 65.0007 294.5188 64.9647 293.8448 64.2427 293.0638 63.8177 292.6168 64.0487 292.3678 64.6527 290.7408 63.6817 289.5928 63.7627 289.5018 65.0787 289.2048 65.8917 289.5708 66.3827 290.5348 66.1997 290.9228 66.5217 291.4728 67.6217 292.4698 67.9297 292.9508 68.7217 292.9508 69.9787 292.2608 70.4367 292.0928 71.0927 292.9028 74.3337 294.2448 75.4547 294.5888 76.2687 294.1088 76.9577 295.1498 77.7127 295.8608 77.4007 298.9868 74.4827 299.4088 74.4827 299.6838 75.1797 300.9808 76.8767 301.1748 77.0827 301.2668 77.9877 302.0808 78.6617 302.9708 80.7367 302.9058 81.0807 302.4798 81.4327 302.4798 82.3047 304.6348 83.0487 304.3928 85.1567 302.4588 86.4987 301.9418 88.0997 299.9248 89.0967 299.0568 88.4557 297.8178 88.4187 297.6708 88.9097 298.0598 89.6907 297.4878 90.2507 296.7288 89.9397 295.5858 90.1487 295.1498 90.5817 295.2738 91.7067 294.1638 92.4137 293.0308 92.0467 292.3568 92.5747 290.8098 94.7517 289.5158 94.9247 288.0838 96.1857 285.8028 99.9277 285.5288 99.7917 284.9788 98.5897 283.6958 97.0757 283.6038 96.3427 282.6188 96.3797 281.4528 95.4857 280.1698 96.5737 280.3278 97.2377 280.9248 98.0287 281.1298 101.6467 282.0128 102.8747 281.8958 103.9967 280.9688 104.8427 280.5578 104.6487 279.7338 104.7397 279.0698 105.1177 275.9548 105.0477 275.4968 104.5457 275.3458 103.4577 273.8098 101.7497 274.1668 101.0747 274.0418 99.8507 272.4588 98.6447 271.8758 97.2157 270.4308 95.5877 269.6058 95.6687 268.2688 96.8927 267.2018 96.8927 265.6918 97.9807 265.5198 98.5527 265.9888 99.6087 265.9298 101.3017 265.3908 101.7607 263.9028 101.7607 263.1368 101.4417 262.3128 102.0937 262.0818 102.6437 261.1428 103.0797 260.2378 102.7907 259.5378 103.0097 257.3378 105.0257 256.7668 105.9867 256.1258 106.1367 254.9128 106.0777 254.4758 105.6567 254.4068 102.9077 253.6188 101.8077 251.9318 101.8517 251.2798 103.2847 250.3638 104.6117 250.3198 106.2497 249.8828 106.8367 249.1838 107.6027 248.9778 108.8747 249.5498 109.7437 248.8418 110.7877 249.7588 111.7147 251.0748 113.6727 250.0078 115.4027 248.5898 116.1357 247.2848 117.1437 246.4018 117.2237 245.3128 116.6517 244.5468 116.9017 243.9268 117.5097 243.4688 118.3347 242.7138 118.8407 240.8448 118.1627 240.0798 118.5067 239.0018 120.6727 238.0518 123.3747 237.0778 124.0157 235.6368 123.8547 235.2218 124.3497 234.9038 125.3567 234.0898 125.9987 233.4118 125.9287 232.6678 124.9097 231.2498 126.3397 230.6998 127.1427 230.3778 127.3367 229.4718 126.7537 227.8918 127.1647 227.7998 126.6037 227.4818 126.4787 226.8838 127.7727 225.4398 129.2977 225.2238 131.3027 225.7038 131.8847 225.6008 132.6407 225.1658 133.0287 223.6548 133.4097 223.1488 134.4617 222.3358 135.1837 221.2948 136.9137 220.2868 137.7717 219.6238 139.2377 218.9598 140.9787 218.3738 141.5067 216.7458 141.5757 215.7058 140.1907 215.1768 140.2277 214.6168 140.8327 213.0368 140.8687 211.2948 141.2787 211.0648 139.6887 210.3458 138.6217 209.0378 137.9917 207.6088 138.0497 205.9008 137.4787 205.1088 136.8147 205.1448 136.3787 207.6198 130.6977 206.3468 129.7817 206.2668 128.3367 205.1198 128.3367 204.1808 129.0007 203.3568 129.0697 202.9578 129.8837 201.6848 130.7777 201.6378 132.0137 200.4138 133.8787 200.6078 137.7167 197.4368 140.4907 196.2318 142.3097 195.2228 143.0897 193.6548 143.3867 192.6028 143.4237 191.7308 144.0757 190.4588 144.1417 188.5118 143.4347 188.3068 142.6207 187.1488 142.2177 186.2208 141.6127 186.1078 139.8127 186.5448 139.2637 186.8078 138.2667 186.7268 136.9837 188.6628 136.4007 189.3588 135.6677 189.4288 133.9487 189.1758 132.9997 190.0818 131.8407 189.8648 130.1917 187.7798 128.4397 187.0358 128.1057 184.5278 128.2237 183.9308 128.6557 181.2408 131.3827 178.1698 132.5847 173.8398 132.6877 171.8938 132.1267 171.3338 131.6467 170.1418 131.4527 169.1998 130.7417 168.9618 129.0917 169.3058 128.1977 169.0058 127.6147 166.2678 127.4317 165.4798 126.1967 163.6588 125.4047 162.2728 124.0747 162.3418 123.5827 163.1778 122.8607 164.0358 121.5897 166.3598 120.0207 166.6128 119.0127 166.2568 117.3637 164.4018 116.1387 158.1928 116.1387 157.2118 116.5497 155.1798 118.6247 153.8418 118.7857 152.9258 118.1327 151.9728 116.7327 150.3128 115.1527 148.2418 110.6957 148.2788 109.1867 149.2168 106.7707 148.2898 105.1877"></polygon>
            <polygon id="Fill-15" fill="#FFFFFF" points="192.1009 143.7351 192.4929 143.3541 193.8339 143.3541 195.1139 143.0531 196.2969 142.2761 197.4819 140.3561 200.5719 137.7381 200.4139 133.8421 201.6639 131.9361 201.6119 130.7891 202.5459 130.0271 202.9139 129.8841 203.3239 129.0671 204.0969 128.9351 205.0569 128.2491 206.2049 128.2891 206.3359 129.6601 207.4549 130.6061 207.3079 131.4231 205.1229 136.2101 205.0719 136.8551 205.9549 137.5261 207.5569 138.0791 208.9789 137.9881 210.3609 138.5521 211.0719 139.6851 211.2809 141.1581 210.9399 141.4221 210.1519 142.4741 209.8079 144.3431 210.2699 145.4461 210.0969 146.0511 209.0599 146.1721 207.9419 146.4731 207.0329 145.7111 206.2959 145.7111 205.7029 148.0011 206.2559 148.8961 206.0469 149.4491 205.2049 149.7381 205.0319 151.7111 205.5339 153.1181 208.2169 154.3421 208.4409 155.4751 208.0709 156.3291 207.8349 157.5021 207.0179 157.8571 206.0829 157.6041 205.4939 157.9081 205.3619 160.4601 205.0459 160.9061 204.1259 161.0021 203.0449 160.2251 201.6259 160.1591 200.7289 158.1171 198.5739 157.5531 197.7049 156.3841 197.7709 155.6581 198.4819 154.6061 198.5339 153.1071 197.6789 152.0811 197.1769 150.5521 197.0079 148.5661 196.4659 147.9211 194.9929 146.7771 194.3879 145.6591 193.3619 145.6081 193.4539 144.7911 192.8889 144.0541"></polygon>
            <polygon id="Fill-16" fill="#FFFFFF" points="142.6195 100.6643 148.2305 102.1263 148.2935 105.2973 149.1405 106.7483 148.9385 107.5883 148.1545 109.3073 148.1945 110.8433 149.0855 112.7673 150.3495 115.1973 151.9705 116.7883 152.8165 118.2213 153.8135 118.7893 155.1805 118.6943 157.0975 116.7223 158.1015 116.1723 164.3735 116.2123 166.1405 117.3633 166.5205 119.1413 166.3455 120.0603 164.0175 121.6443 162.9585 123.1323 162.2985 123.6163 162.2145 124.0813 163.5885 125.4973 165.4615 126.2043 166.1285 127.4763 168.9035 127.6443 169.2845 128.1393 168.9695 128.9933 169.0315 130.7053 170.0835 131.4973 171.2855 131.7273 171.9645 132.2953 173.7235 132.7353 178.1505 132.6223 181.1275 131.3933 184.4405 128.2493 187.0165 128.1833 188.3005 128.9673 189.7515 130.2763 189.9745 131.8593 189.1175 133.0393 189.3885 134.2123 189.2605 135.6823 188.6745 136.4563 186.8015 136.8373 186.5985 138.8383 186.0495 140.0913 186.1515 141.8143 188.2705 142.7163 188.4945 143.4973 190.5435 144.2333 191.7055 144.0943 191.9755 143.8713 192.7575 144.1973 193.3975 144.8013 193.3975 145.6553 194.3255 145.7503 195.0325 146.9133 196.9975 148.5143 197.1375 150.6253 197.6575 152.2163 198.5775 153.1183 198.4485 154.6613 197.7495 155.7423 197.7495 156.4943 198.4565 157.6113 200.7725 158.2163 201.0255 159.1293 201.5385 160.2173 203.0455 160.2803 204.2185 161.1083 205.0725 160.8953 205.3255 160.4673 205.4645 158.0403 206.1135 157.6303 207.0365 157.8833 207.7515 157.5933 207.9935 156.2993 208.4035 155.5373 208.2655 154.4853 205.4895 153.1363 204.9625 151.7033 205.1195 149.8343 205.8825 149.5263 206.2335 149.0423 205.6295 148.0303 206.1895 145.8243 207.0005 145.7873 207.9385 146.5133 210.0605 146.1803 210.2725 147.2463 210.6655 147.9173 211.4905 148.1223 211.7615 148.3463 214.2275 149.0533 215.5655 150.3653 216.4415 150.0573 219.6595 151.9633 219.7635 154.7563 218.5825 155.8633 218.6745 157.5823 219.4185 158.6083 219.2135 160.3643 218.4985 160.8303 216.4235 160.7273 215.3905 161.2773 214.1985 160.8043 213.8095 160.8883 213.7735 162.1973 214.3965 163.1573 210.2845 164.0403 208.9825 162.8973 207.8835 162.7763 205.9775 163.1203 205.6625 164.0113 206.0255 164.7953 205.8565 165.8733 204.8345 166.8413 204.8895 167.3533 206.2935 167.8743 207.0485 168.5043 207.1325 169.1503 206.6305 169.7443 205.5125 172.0713 205.9665 172.7123 205.8635 174.2923 206.1055 174.6913 205.9225 175.0733 205.1125 174.9523 202.9905 175.1503 201.8535 175.7443 201.3455 176.5543 202.4035 177.0743 202.8215 178.1073 202.5435 179.5043 201.0655 180.9083 199.5665 180.9443 199.1565 181.3153 199.1195 182.8143 197.1375 183.8183 196.1065 183.2133 195.5395 183.3163 194.9815 182.9603 193.4455 182.8873 192.1405 181.4833 192.1785 180.0143 191.4705 178.7683 191.0535 177.3233 190.5685 177.3603 189.1365 178.3933 188.3985 178.3933 185.8995 176.1503 185.3495 174.5413 183.8795 174.1053 183.3415 172.9323 183.5535 170.9603 183.0515 170.8033 182.6335 170.4403 181.8305 170.5503 180.2035 171.3603 178.5105 171.7893 177.4035 172.6903 177.4985 173.9663 177.7225 174.6253 174.9585 174.5523 174.1925 172.7453 172.5765 171.8913 169.8125 171.7963 168.9955 171.1553 169.1045 168.7833 170.1455 168.5783 172.0265 170.2063 174.0465 170.6823 174.8555 170.4473 175.6545 169.0073 175.3655 167.7313 175.3285 165.0633 176.5935 164.5793 178.1655 163.5353 178.4735 162.7283 177.7735 161.6403 178.1465 160.7083 178.9175 160.3823 179.5875 159.0043 180.6405 159.6023 182.1565 157.0613 182.3045 155.2473 182.6595 154.2253 181.7835 153.3013 181.4495 151.8683 180.3605 151.3663 180.2695 149.5073 179.2725 148.5953 179.0595 146.8063 178.4625 145.8863 178.1175 144.4823 176.6005 143.2913 176.3885 142.1553 175.9555 142.1553 174.6655 142.9793 172.6495 142.1473 170.4425 140.6783 170.0985 139.7873 168.3125 138.1493 167.1775 137.6143 166.0555 136.5513 164.9005 135.9023 164.3775 137.2733 163.3575 137.0673 160.1365 133.3583 159.4295 133.2453 158.0325 131.6243 155.8365 130.8733 154.8405 131.7493 153.7625 130.8843 151.9555 132.6433 150.5075 131.5733 149.8215 130.6573 145.3435 129.2973 144.5115 130.0083 145.0645 131.4633 145.0165 133.0873 143.6315 134.9673 143.3305 136.9943 142.0185 137.2073 140.7985 137.7863 138.9985 136.7013 136.8285 136.8333 133.1045 135.5143 129.1755 136.1293 127.6735 133.0503 125.1655 133.1833 124.5605 131.7123 121.1705 131.9653 120.2065 129.9133 117.1315 128.4873 118.8395 127.2343 119.3785 125.5153 119.5205 120.6623 120.3025 117.2243 123.0215 117.3893 124.6125 116.1393 125.0565 114.9403 127.3875 112.5363 130.0365 110.6923 131.3675 109.0833 134.1965 107.8003 135.6005 107.3243 136.9055 106.4043 140.0285 106.0343 142.0115 104.3773 141.6665 102.8123"></polygon>
            <polygon id="Fill-17" fill="#FFFFFF" points="97.0345 148.5217 97.4605 148.5587 100.2305 149.8967 101.5505 149.8967 103.1515 149.0387 105.0065 148.6387 105.2815 147.9277 104.9515 147.5507 103.2215 147.4697 102.8335 145.1787 103.9545 144.1597 105.1685 143.8267 106.0515 143.1517 105.9815 141.6967 106.8975 140.8727 106.8055 140.4027 101.6855 136.4957 101.6045 131.8927 104.7575 129.8657 109.1305 129.7957 113.5875 129.1657 115.9585 127.9307 120.1625 129.9317 121.1225 131.9477 124.5715 131.7307 125.1915 133.1647 127.6505 133.0357 129.1535 136.1077 133.0935 135.4877 136.8505 136.8297 139.0715 136.6677 140.8235 137.8007 141.9815 137.2507 143.4115 137.0347 143.6315 134.9167 145.0165 133.0467 145.0535 131.4457 144.5615 129.9797 145.3645 129.2687 149.8405 130.5727 150.5295 131.5037 152.0165 132.6947 153.8285 130.8367 154.7555 131.7427 155.7965 130.8367 158.1015 131.6617 159.5535 133.3367 160.2305 133.3807 163.3685 137.0677 164.4245 137.1707 164.9375 135.9017 166.0735 136.4957 167.3425 137.6657 168.4415 138.2367 170.2295 139.8277 170.4935 140.6887 172.5205 142.1077 172.9685 142.0707 174.7205 142.9987 176.0035 142.1737 176.4825 142.2317 176.5855 143.1927 178.0525 144.4197 178.5355 145.8387 179.1515 146.7767 179.3345 148.5547 180.2985 149.5037 180.4335 151.3847 181.4305 151.9087 181.8085 153.2607 182.6585 154.2357 182.3035 155.3577 182.1755 157.2377 180.6285 159.6057 179.6095 159.0117 179.0595 160.3647 178.2235 160.7057 177.8245 161.5667 178.4075 162.7577 178.2025 163.5607 176.7355 164.5537 175.3285 165.0007 175.3285 167.6357 175.6255 168.9517 174.9945 170.4327 173.9175 170.7297 171.9495 170.1437 170.2525 168.6007 169.2325 168.6547 169.0065 171.0737 169.7715 171.7707 172.4075 171.8837 174.1805 172.8007 175.0645 174.5307 176.4615 174.6807 177.8475 174.6807 178.1215 175.4727 178.7735 175.8387 178.9135 176.6857 178.2935 177.9207 178.1325 179.1597 177.3295 179.3067 176.5055 178.5187 175.5775 178.5547 174.2625 179.8377 173.7225 179.8007 173.2545 178.8737 172.5905 178.0607 171.7765 178.0607 169.7025 179.2407 168.9795 180.5887 169.1415 181.8497 168.5215 182.9387 167.6315 182.8947 166.7695 183.0997 165.3625 182.8797 164.9485 182.3307 161.8915 178.9657 161.4005 177.7857 159.9195 177.7487 158.3295 179.0167 157.6065 178.4667 156.7015 178.3207 154.9865 177.2427 154.0815 176.8877 152.7875 177.2647 151.8825 176.9677 150.3465 177.2537 149.1335 176.8437 147.2085 177.3937 145.5815 178.4817 145.4565 179.2917 145.9915 180.1047 145.5335 180.9667 143.0595 181.7107 142.9015 182.4547 143.2315 182.8547 143.2795 183.9537 142.6005 184.6207 142.3855 185.7757 139.3285 189.8657 138.8225 190.1627 137.1185 189.1217 136.3045 189.1587 135.5935 189.7417 134.6295 189.6277 133.1785 188.5277 131.5615 188.1837 130.9645 185.6437 130.0625 185.3907 128.0105 183.9137 127.3135 182.5717 126.0155 181.8977 123.1415 181.6777 122.6035 181.4027 117.5865 181.2677 115.9145 180.2117 113.9685 180.2707 113.4295 179.4127 112.5825 179.3757 111.5975 179.9147 109.8225 179.2297 108.2395 177.5647 106.3855 176.5467 105.0105 176.4327 103.7635 175.7917 102.3315 175.4837 101.3225 174.8637 98.0245 174.5567 97.3125 172.3787 96.6605 171.0157 95.5725 169.5497 95.2865 167.7977 93.9445 166.1007 93.4425 165.0487 93.2125 164.1217 93.5555 163.0107 93.0175 162.4937 92.8925 161.5777 93.1685 160.8767 95.0585 160.7527 95.5505 159.4697 94.9305 158.6237 95.8035 155.7347 96.8005 154.0747 96.9465 152.1977 96.5475 151.5897 94.9675 151.2927 95.0335 150.6957 96.8545 149.8157"></polygon>
            <polygon id="Fill-18" fill="#FFFFFF" points="92.9592 42.9654 92.7832 44.8604 91.9392 46.4984 89.1552 47.6314 86.7242 47.2574 84.9902 50.9854 84.5512 54.4674 85.1852 56.4904 83.8402 58.0964 81.8462 58.3054 80.0022 59.2464 79.6432 59.2834 78.6392 57.7254 74.6062 57.2564 71.3182 54.8594 70.1682 54.5704 69.3572 56.7214 65.6822 62.6524 65.3412 63.7044 63.6072 67.2044 65.1132 68.5784 64.6592 70.3634 63.6872 70.7004 62.6362 69.8434 60.5952 69.9564 59.3152 68.1424 55.4592 68.6294 49.8412 68.8864 48.6092 69.8104 48.9642 70.3634 50.3102 70.5874 51.4432 71.5774 50.4052 73.0984 50.1782 75.6744 49.7902 76.3384 50.8742 81.4104 50.3572 82.9974 50.6992 83.7084 50.7352 84.4234 48.3522 85.2004 48.6122 86.4474 47.1682 86.7544 46.1822 88.0814 46.2622 89.1844 45.6482 92.4724 45.0312 92.8284 43.6392 92.5714 42.8292 92.9894 40.7392 93.6714 39.0202 93.7184 34.0512 95.2774 30.8262 97.9144 29.8052 97.4614 27.2622 97.3654 24.6862 96.2804 23.4062 96.2144 20.6852 99.5354 19.0982 100.5064 17.4782 99.9094 16.1982 100.4254 15.3562 100.0384 15.3562 98.6924 14.9672 97.4284 12.7642 98.2044 10.4972 97.1044 10.0272 98.4024 7.9372 98.7404 6.9492 99.3084 5.1672 98.9194 3.5962 99.7294 3.0772 100.8294 3.2562 102.0794 2.6892 103.1454 1.0372 103.3104 0.4862 105.0924 1.1992 107.1014 0.2752 107.7634 0.0002 109.4504 0.7772 111.0184 1.6852 110.2604 3.5152 110.5974 6.0742 112.5574 6.0252 113.2864 5.1672 114.9224 5.6052 116.5754 4.9562 119.9434 5.5072 121.2414 5.2642 122.1974 0.9072 122.1604 1.0372 123.5364 3.3212 124.8484 4.6002 124.9474 6.0582 125.9184 6.3662 127.5244 7.6452 127.6364 8.5362 128.6704 8.6822 131.9914 8.1312 133.3034 9.2012 135.8944 11.0632 136.3974 11.9052 137.7754 14.5782 139.7694 18.8872 141.4514 20.1822 141.1294 19.2922 143.1374 19.7622 144.9034 19.6492 145.9894 19.9392 146.8134 19.9732 148.1924 20.3462 148.9354 22.1112 149.7794 23.1642 151.1714 23.9262 151.6594 25.1732 151.4314 26.0792 151.7074 27.2292 151.4794 29.1252 152.3554 30.8912 150.3754 30.6652 148.5944 31.7822 148.3864 31.7822 147.3334 33.1902 146.3114 34.4072 144.4174 35.4402 145.4874 38.5522 146.9454 39.4892 146.6044 41.2412 147.2824 42.3262 148.8884 44.3352 148.5944 46.0372 146.0834 47.6852 145.3544 48.5792 145.3074 49.4992 146.1174 51.5932 146.0374 52.5132 146.6674 53.9572 146.8794 56.4672 149.1304 58.7182 149.3244 59.5612 149.9254 66.2502 148.1434 68.7612 148.9534 69.2962 148.8704 73.8482 146.2454 76.4392 145.7944 80.1342 145.8304 82.1432 144.6954 85.0712 144.9074 87.5012 145.4574 89.9832 146.9964 90.8402 147.1444 93.2862 148.5984 95.5062 148.4044 97.6432 148.5364 100.2822 149.9104 101.6462 149.7974 103.1522 149.0534 105.0142 148.5984 105.2412 147.9354 104.9332 147.6124 103.2472 147.4324 102.7462 145.1174 104.0252 144.2114 105.2082 143.8044 106.0992 143.1084 106.0182 141.7004 106.9712 140.8394 106.6672 140.3554 101.6932 136.5144 101.6572 131.8184 104.7362 129.8914 109.1222 129.7774 113.7232 129.0634 115.9432 127.9634 117.1562 128.4514 118.8292 127.2194 119.3452 125.3384 119.4732 120.7204 120.2212 117.2234 122.9072 117.3854 124.5462 116.1864 125.0962 114.9224 127.4612 112.5104 129.9862 110.7624 131.3822 109.1234 133.8262 107.9104 135.6232 107.3094 136.9052 106.4194 140.0462 106.0454 142.1032 104.3304 141.7392 102.8454 142.6122 100.5764 142.2672 99.4334 140.0692 96.7494 138.0972 90.1524 136.7922 89.2624 137.1352 87.8874 135.1642 87.5644 133.4932 86.8314 132.5762 85.7794 129.2082 83.7154 126.7122 81.2904 123.7802 80.3954 118.8542 80.1904 111.6402 77.5554 110.8592 76.7294 111.0002 74.3474 113.4732 70.7524 112.9232 68.6194 113.8622 67.2224 114.1592 65.3684 112.0292 61.3144 111.2962 58.1294 109.6252 55.2884 108.3862 55.4494 106.3002 53.2944 105.3402 53.9134 103.4602 53.6164 101.8802 49.9524 99.2922 48.2104 99.3362 47.0644 98.1232 45.3444 98.7862 44.1304 99.0182 42.8704 97.8672 42.8044 96.9282 43.2924 95.4032 42.4484"></polygon>
            <polygon id="Fill-19" fill="#FFFFFF" points="19.8626 141.5358 20.7776 140.6848 22.6736 139.9668 23.0056 139.7328 24.5196 139.4578 24.8686 139.0248 25.3626 138.7278 26.2936 139.4728 27.5646 139.2518 28.3906 139.3728 29.3146 139.2378 29.6546 140.3228 30.0186 140.5648 30.9426 140.5278 30.6496 141.4698 30.8436 142.1258 31.5176 142.4668 31.5986 143.0898 31.8816 143.2658 32.6576 143.0638 32.6946 144.1748 32.7536 144.6108 33.0906 144.8528 33.9006 144.0278 34.2896 143.9218 34.4826 144.3838 33.1566 146.2308 31.8296 147.3018 31.7376 148.3678 30.6526 148.5398 30.8986 150.3068 29.1366 152.3448 27.2586 151.4978 26.0446 151.7028 25.3106 151.3588 24.0506 151.5678 23.0656 150.9928 22.2636 149.8928 20.3626 148.8188 19.9736 148.1298 19.9956 147.2608 19.8116 144.9008 19.3316 143.0458"></polygon>
            <polygon id="Fill-20" fill="#FFFFFF" points="29.0716 152.3889 30.8696 150.3989 30.5936 148.5839 31.7456 148.3419 31.8076 147.3859 33.2006 146.2019 34.1416 144.7759 34.2706 144.3539 35.5026 145.4579 38.5486 146.9639 39.6336 146.6409 41.3006 147.2719 42.2906 148.8739 44.2656 148.5659 45.8526 146.2019 47.7326 145.3919 48.5436 145.3919 49.5946 146.1539 51.5226 146.0879 52.5086 146.6889 53.9856 146.8979 56.4306 149.0539 58.7476 149.3279 59.5716 149.8779 65.2746 148.5359 66.1506 148.1629 68.8386 148.9399 69.5196 148.7789 73.7456 146.2199 76.2226 145.7799 80.1306 145.8459 82.0076 144.7619 84.8586 144.8889 87.4496 145.4909 89.9276 146.9789 90.8366 147.1909 93.2156 148.6169 95.4516 148.3709 96.9106 148.5179 96.7816 149.8639 95.0006 150.6399 94.9496 151.2889 96.5076 151.6449 96.8956 152.1799 96.8436 154.0419 95.8406 155.5959 94.9166 158.5609 95.5166 159.4189 95.0956 160.7159 93.2486 160.8769 92.8266 161.4459 93.0536 162.5449 93.5746 162.9999 93.1206 164.3119 93.3616 165.0409 94.5606 166.9839 95.3226 167.8449 95.5646 169.4799 96.8626 171.2759 97.9956 174.5819 101.2826 174.8899 102.3046 175.5199 103.6796 175.7809 104.8636 176.4109 106.4356 176.5569 108.1186 177.4809 109.8036 179.3139 111.6336 179.9109 112.6376 179.3939 113.5476 179.4569 114.0156 180.2849 115.8786 180.3219 117.7106 181.3259 122.5376 181.4069 123.1686 181.7289 126.0346 181.9379 127.3136 182.5869 128.0286 183.8839 129.9236 185.2919 130.9606 185.6809 131.5246 188.2089 133.0026 188.5319 134.5226 189.6019 135.4946 189.7639 136.3706 189.0999 137.1296 189.1809 138.8006 190.1699 139.3176 189.9249 142.3956 185.7129 142.5246 184.7419 143.2686 184.0309 143.2316 182.9129 142.8906 182.4399 143.0516 181.6629 144.4126 181.3259 145.4646 182.5539 146.6146 183.3489 148.5426 183.8659 150.0826 185.0169 150.2616 186.4099 151.2656 187.5749 151.4086 189.8109 152.4786 191.2549 154.1136 192.8749 154.0006 193.4399 153.1286 194.0879 152.4936 194.1359 152.6266 194.9969 153.5496 196.0969 153.9376 197.7499 154.5206 198.2999 154.6486 203.0609 155.0376 204.0839 154.9576 205.5719 154.7296 205.9779 155.1036 210.2699 154.4076 210.2229 153.7916 210.7249 153.6956 211.9049 152.9676 212.7959 151.9116 213.1219 152.1056 214.4009 151.6356 215.3719 151.8826 215.8929 151.8306 217.9159 150.5176 218.5319 149.4996 217.8499 147.9606 219.1479 147.2636 218.0959 146.1606 217.8829 145.2886 216.6039 144.3496 216.4249 142.2746 218.4989 140.9156 217.1539 139.9586 217.5419 139.1966 217.1719 138.4196 217.2199 137.2066 216.3289 135.7476 216.8969 135.1136 216.4569 135.6996 215.2589 137.3676 213.9469 137.3156 213.4109 136.3626 211.6299 135.3736 211.9239 134.5016 212.7009 134.1926 211.2419 135.5056 210.6589 135.9236 209.8489 134.7246 209.5269 133.9146 208.2619 130.4326 209.6549 129.7366 210.9339 129.1386 211.2419 127.9876 211.0329 126.4636 210.2039 124.8616 209.7019 124.0986 208.4889 123.2566 209.1189 122.1716 209.5409 120.2606 210.9519 119.3706 211.0949 119.4186 211.8249 116.7796 213.2029 114.2026 213.1039 113.3596 213.4449 112.8096 215.0649 111.1896 216.1349 109.4236 217.3009 109.3606 218.4839 107.6416 219.1619 105.0976 219.1989 104.4676 219.5549 103.5106 219.4919 100.3226 217.9859 99.0726 216.9489 96.3196 216.9009 94.6196 216.3989 92.9006 214.2429 90.4556 213.4959 86.6336 215.0869 84.1076 217.2709 82.6346 219.2979 81.5456 219.9139 80.7866 218.6309 81.9996 216.0909 81.7726 214.8409 80.7066 213.8369 79.6826 213.9829 76.7846 214.8409 73.3686 215.4089 71.9746 214.5659 70.5496 215.1009 66.5946 211.8609 64.8136 212.8839 63.8756 212.7699 62.9846 211.3259 61.4596 212.2829 60.8946 210.6959 58.6596 208.8669 56.5046 208.5879 55.9686 206.7739 56.5046 206.0629 56.1006 205.5279 54.4156 205.9339 52.5016 204.4099 49.8476 203.1969 50.1376 200.7809 49.7496 199.1799 48.8256 198.7729 47.5796 200.4109 46.8496 200.5719 45.2966 198.7729 45.1336 196.6829 42.8806 194.3009 42.0556 193.9119 40.6956 191.7759 39.0756 191.1119 37.7966 189.6059 35.4146 188.3739 35.0926 186.9489 31.1036 189.5399 30.5206 187.6299 29.3726 186.8349 28.5946 185.5229 25.9226 183.2719 26.5866 182.6229 26.1166 182.0879 25.3866 181.9119 24.2206 180.2919 23.0066 179.8049 21.6616 179.7239 20.3656 178.0229 19.5716 175.1239 17.4986 175.7219 17.2566 174.3799 17.9036 173.1489 17.5796 171.9979 18.3076 169.9419 16.9156 167.4309 17.1906 166.6539 17.1096 165.7599 17.4986 165.1289 19.2636 165.1769 19.3776 166.5069 20.3166 167.4119 22.2606 166.8299 23.7186 166.5219 24.6906 165.1149 24.1076 163.4289 24.5286 162.1349 22.4236 160.4149 21.9216 159.1509 21.6896 158.5019 22.1756 156.6509 22.1756 155.5439 22.0366 154.1109 22.1756 153.6019 22.6616 153.4399 23.6336 153.3009 24.1886 152.8139 24.3276 152.1429 24.1196 151.5639 25.3426 151.3149 26.1606 151.5969 27.2866 151.4349 28.2786 151.8919"></polygon>
            <polygon id="Fill-21" fill="#FFFFFF" points="31.848 148.423 31.848 147.375 33.197 146.385 34.424 144.505 35.044 145.102 34.777 145.424 34.171 146.77 33.648 147.151 32.962 148.984 31.672 150.791 30.947 150.497 30.711 148.675"></polygon>
            <polygon id="Fill-22" fill="#FFFFFF" points="21.6575 158.7258 21.4265 158.0778 22.0955 156.2258 22.0955 155.6688 21.9565 154.2358 22.0955 153.7258 22.5815 153.5648 23.5535 153.4258 24.1085 152.9378 24.2475 152.2678 24.0395 151.6888 25.2615 151.4388 26.0805 151.7218 27.2065 151.5598 28.1985 152.0168 28.0855 153.6218 27.9065 154.0728 27.6475 154.0248 27.5985 154.6258 27.3555 154.8828 26.7405 155.2898 25.0395 154.8688 24.5215 155.0298 23.8895 154.7068 23.3545 154.9338 23.2905 155.4838 23.3045 156.3418 23.6615 156.9098 23.5805 157.7678 22.7385 157.6868 22.5595 158.3828 22.3165 159.3218"></polygon>
            <polygon id="Fill-23" fill="#FFFFFF" points="144.6615 181.2707 145.5185 181.0507 145.8855 180.1017 145.4055 179.3247 145.5555 178.6027 147.3185 177.3197 149.1185 176.8837 150.1815 177.2607 151.8675 176.9857 152.7835 177.2717 154.3415 176.9537 156.7675 178.3277 157.5125 178.4997 158.2335 179.0127 159.8935 177.7887 161.3485 177.7887 161.8775 179.0017 165.5635 182.9317 166.8365 183.1587 167.5685 182.8727 168.3935 183.0777 169.1385 181.8867 169.0575 180.5817 169.7235 179.3207 171.7515 178.0637 172.6315 178.1997 173.2715 178.9217 173.7195 179.8377 174.1225 179.8377 175.5735 178.5877 176.5825 178.5877 177.2815 179.3467 178.0625 179.2187 178.2575 178.0637 178.9535 176.8357 178.7815 175.9307 178.0255 175.3807 177.4435 173.6177 177.3625 172.6687 178.4735 171.8217 180.2035 171.3637 181.7945 170.4697 182.4825 170.3667 183.5465 170.9387 183.3775 172.7927 183.9495 174.0647 185.4265 174.5127 185.9655 176.1287 188.4385 178.3017 189.2535 178.4047 190.5575 177.2937 191.0375 177.2937 191.8405 179.2547 192.2285 179.9407 192.1745 181.3957 193.5125 182.8397 195.0915 182.9857 195.6405 183.3677 196.0445 183.1257 197.1075 183.7557 199.1005 182.7707 199.1825 181.3147 199.6875 180.8567 203.0785 180.9957 203.6495 181.3847 203.8335 182.5427 204.5995 182.9637 207.7735 182.2527 208.5985 181.8757 210.1885 181.9677 210.6945 183.4587 211.1635 183.8917 211.9515 183.9287 212.5595 183.4697 213.4185 184.3167 214.4955 184.4997 216.3875 185.9777 216.7315 185.9777 218.5275 185.1417 219.9605 185.0167 221.0825 185.7027 221.0385 186.1387 221.1735 186.8937 220.3055 187.9237 220.3415 188.3377 221.7855 189.2977 221.8225 189.6097 221.6395 190.3747 220.6415 191.0387 219.8285 192.1387 217.9155 196.5837 217.2075 197.1337 215.3165 196.9947 214.6975 197.3727 214.2865 199.8357 212.0075 203.2737 211.1345 203.5267 209.5325 203.1927 207.9055 201.2357 207.4795 201.4407 206.8395 201.9907 206.0035 202.0457 204.3205 201.0047 203.3565 200.6267 202.4885 200.8687 201.4325 202.7017 202.4995 204.1087 202.4405 204.5567 202.1915 204.8317 198.8815 207.5437 200.7145 209.8487 201.9495 210.0427 202.7735 212.3777 205.3875 212.8137 206.2125 213.7307 206.5425 215.0717 206.3945 216.0547 204.1265 214.2917 203.6575 214.4857 203.4045 215.4607 202.4185 215.5627 201.8355 216.3767 201.9825 217.7847 204.5965 218.8947 205.6475 219.1257 206.1205 220.3867 206.8165 221.5517 206.4285 222.1277 204.9625 222.1277 202.3495 223.1027 201.2855 222.2997 199.5665 222.5527 199.1195 222.1167 199.2595 220.7087 198.8555 220.6287 198.1005 219.8367 197.3235 219.9767 196.5645 221.4857 194.8605 221.8197 193.6335 221.5927 192.7055 220.7307 193.1415 220.1257 193.0275 218.7737 192.1445 218.1657 191.8915 216.6997 192.4525 216.0577 191.8005 215.3947 190.4515 215.9227 189.1325 215.6477 188.5015 216.6877 189.0515 218.0517 188.6035 218.6607 186.7605 218.9787 186.2475 220.4227 186.6945 221.1667 186.3725 222.7027 184.5985 224.3747 183.6005 225.5657 182.9235 225.6457 182.4795 226.1487 182.1685 229.8837 183.2245 231.4077 183.0845 233.7207 182.9815 234.0877 180.6465 235.4397 180.0715 234.3397 179.3275 234.4427 176.8525 235.9637 176.5345 236.5287 174.2875 236.4477 173.6575 235.4617 172.7885 235.2197 172.6485 233.2147 171.6525 232.5187 171.8935 231.1767 171.4695 230.9027 170.9995 229.9167 170.1525 229.2527 169.9705 227.1567 168.2395 225.4627 168.0575 224.2027 165.8355 221.6847 164.7145 221.6477 162.4445 220.8597 162.2395 219.5177 161.7455 218.3857 162.3865 217.4327 162.3865 216.3917 161.6535 216.0027 160.6605 216.2087 158.5265 218.2937 157.8745 218.1767 156.9355 219.1037 155.6855 217.3777 154.7805 205.9567 155.0225 205.3257 155.0225 203.9627 154.6785 203.1047 154.5545 198.2487 153.8905 197.7537 153.5345 196.1037 152.6735 195.0627 152.5375 194.2057 153.0995 194.1357 154.0625 193.4467 154.0995 192.9117 152.5195 191.3977 151.4745 189.7267 151.3175 187.6077 150.3205 186.4827 150.1375 185.0867 148.5685 183.8617 146.6185 183.4037 145.4275 182.5577"></polygon>
            <polygon id="Fill-24" fill="#FFFFFF" points="206.5423 216.2487 207.1573 215.8937 207.5533 215.0247 207.4363 214.0897 208.2383 214.8007 208.1583 215.7357 209.1733 216.2997 209.8293 215.6437 210.3313 214.1817 210.8963 213.1957 211.9633 212.7337 212.9883 213.2097 213.7763 213.1297 214.7233 212.3927 214.1323 210.8937 214.3963 209.9737 214.8033 209.9187 215.7783 210.4467 216.5153 210.5637 216.9073 211.4727 217.5013 211.7067 218.3553 210.9997 220.2243 211.0367 220.9353 212.9457 220.7123 213.7997 221.2763 214.2217 222.5923 214.5627 222.6733 215.9447 222.9623 216.8127 223.4203 216.3917 223.2523 215.6947 223.5263 215.5777 223.9993 216.0647 223.8933 216.9187 224.4723 217.4467 225.9453 217.5237 226.6563 216.5487 226.6563 215.7467 227.3273 215.3137 226.9973 210.3147 225.9713 209.8527 224.4063 207.9577 224.2743 206.2607 223.3133 205.9717 222.1153 204.6557 221.3133 205.3007 221.7083 201.5247 220.5913 199.9857 222.1053 198.8787 223.1713 198.9157 224.6953 198.2447 226.2753 198.3477 228.0493 197.7687 230.1573 195.4667 231.5503 196.0197 232.0893 194.8877 231.8393 193.4397 232.2093 192.6107 231.9203 191.3107 231.0513 190.2437 230.2603 189.7157 230.2233 188.0737 228.1303 188.0077 225.5903 188.4657 225.0003 188.3227 224.6953 187.1497 222.8523 186.9557 221.1183 185.8227 220.8803 186.0207 221.0893 186.8897 220.1583 187.9927 220.2353 188.3377 221.6433 189.3897 221.7893 189.7297 221.5113 190.3897 220.4593 191.0977 219.6453 192.3107 217.8533 196.4817 217.0393 197.1117 215.1443 197.0207 214.5503 197.3207 214.1843 199.8757 211.7903 203.2547 210.9473 203.5707 209.3533 203.1527 207.8683 201.2687 207.3813 201.4257 206.6183 202.0307 205.9483 202.0307 204.1043 200.8757 203.0933 200.6127 202.3013 200.9537 201.4213 202.4007 201.4213 202.8997 202.2753 203.8237 202.4073 204.4137 201.9753 204.9267 198.9073 207.3747 198.9073 207.7047 200.5533 209.8857 201.7223 209.9917 202.1693 210.6777 202.6563 212.4257 205.2773 212.8217 206.1313 213.7157 206.4463 215.1237 206.3553 216.1237"></polygon>
            <polygon id="Fill-25" fill="#FFFFFF" points="206.4837 216.0837 206.6807 216.1237 207.2857 215.8597 207.7177 215.0317 207.4837 213.8987 208.3637 214.6617 208.2317 215.7027 209.1667 216.2087 210.0087 215.5377 210.3827 213.9907 210.9837 213.0967 212.0217 212.6607 213.1357 213.2067 213.9097 213.0707 214.7337 212.3597 214.2467 210.7947 214.5467 209.8927 215.0017 209.9377 215.8037 210.4057 216.5627 210.5307 217.0167 211.4767 217.5637 211.6557 218.4107 210.9627 220.2467 211.0257 220.8657 212.2277 220.9677 212.9457 220.8507 213.7487 221.4047 214.1557 222.6797 214.4307 222.6797 215.8787 223.0537 216.7217 223.5117 216.3327 223.3427 215.5967 223.6077 215.5967 224.1537 216.0287 223.9927 216.9117 224.6707 217.4107 226.0447 217.4467 226.6567 216.5197 226.7557 215.6187 227.4407 215.3687 227.8147 216.3517 228.4017 217.0147 228.2257 217.8607 228.3537 219.5587 228.6177 220.9067 229.3617 221.7717 229.2047 222.6337 228.6437 223.0807 228.2367 223.7767 227.1367 224.2427 225.0067 226.3277 225.4477 227.0617 225.9537 227.1887 227.1267 226.3427 227.9727 226.2837 228.6317 225.9867 229.3367 226.0457 229.9217 226.5737 230.1647 228.3367 229.9657 228.7697 228.8667 229.6857 229.6327 230.7047 229.4617 231.3937 228.9477 232.1047 228.9477 232.8667 230.1097 234.4867 230.2747 235.2237 228.8197 237.4077 227.6687 237.0447 226.7487 237.4747 226.7487 237.9467 227.2687 238.4197 227.0557 239.0867 225.4247 239.1527 224.8417 239.4867 224.2897 240.8097 222.5847 239.7937 221.5727 240.2707 220.9387 241.0327 220.5057 242.4477 219.4247 242.5837 218.7837 243.1257 217.1717 241.8467 216.1557 242.0777 215.2577 241.3807 214.9137 240.3037 214.4587 240.0327 212.9007 241.4547 212.3697 242.5397 211.7357 243.1107 210.3207 243.2437 207.6297 244.9737 206.6767 245.2447 206.6407 246.6557 205.1197 247.6637 204.6617 247.2167 203.8037 247.1797 203.3047 246.7727 201.5607 246.6007 201.0617 245.5667 199.0207 245.3247 198.5547 245.6067 197.8917 246.7657 197.0817 247.0077 196.1987 247.7847 195.1347 247.7407 194.3767 247.4037 194.6477 246.4827 195.5027 245.2587 195.6817 243.2467 194.8457 242.1547 193.6037 241.6157 192.6467 239.4757 194.0097 236.6677 194.1017 234.8717 195.1787 233.6217 193.3067 231.3057 192.6687 231.7017 191.2547 231.7017 190.5687 232.6177 190.0107 232.6767 188.6227 232.4197 188.6227 231.2757 188.1347 230.4337 188.5887 229.4587 188.4057 228.7947 187.3207 228.3077 189.3517 225.8147 190.1027 225.7237 191.3717 226.4047 192.4707 225.4077 193.8267 226.0237 196.5097 226.0237 197.3347 225.6427 198.3857 225.4377 199.5777 222.4577 201.2597 222.2007 202.4187 222.9117 205.0427 222.0427 206.3987 222.0067 206.8377 221.4857 205.9767 220.0607 205.6397 218.9607 204.4567 218.7377 202.0297 217.6777 201.8057 216.3107 202.3927 215.5487 203.3457 215.3357 203.6207 214.4667 204.2217 214.2657"></polygon>
            <polygon id="Fill-26" fill="#FFFFFF" points="148.099 219.1149 149.485 217.8649 150.467 218.4629 151.82 217.8759 151.933 215.9989 151.647 215.3219 152.061 214.3129 151.878 213.0089 152.999 212.8619 153.7 211.9309 153.766 210.8209 154.364 210.2379 155.085 210.2379 155.624 217.2929 156.881 219.1149 157.845 218.1619 158.589 218.2679 160.617 216.1829 161.661 215.9769 162.302 216.3069 162.379 217.4539 161.796 218.3119 162.265 219.5029 162.405 220.7749 164.706 221.6699 165.861 221.6699 168.016 224.1769 168.233 225.4149 169.908 227.1309 170.102 229.1949 171.007 229.9379 171.451 230.8879 171.854 231.0489 171.622 232.4929 172.55 233.1679 172.77 235.1289 173.698 235.5169 174.225 236.3529 176.366 236.5029 176.905 235.8939 179.357 234.4279 179.961 234.3479 180.57 235.4479 182.941 234.0139 183.158 233.2479 183.158 231.4159 182.171 229.9059 182.483 226.1709 182.953 225.5399 183.616 225.4699 186.387 222.6669 186.651 221.1419 186.229 220.3389 186.833 219.0009 188.597 218.6749 189.033 218.0669 188.512 216.5929 189.091 215.6509 190.426 215.9009 191.823 215.4129 192.463 216.0429 191.913 216.6119 192.116 218.0849 193.01 218.6859 193.083 220.0829 192.643 220.7059 193.784 221.6329 195.03 221.7829 196.558 221.4349 197.28 220.0419 198.093 219.8109 198.86 220.6209 199.175 220.7129 199.079 222.0979 199.571 222.5459 198.416 225.5479 197.25 225.6539 196.452 226.1809 195.407 226.0389 193.82 226.1339 193.153 225.6429 192.317 225.5179 191.324 226.5589 190.078 225.7309 189.612 225.7309 187.395 228.0539 187.395 228.4389 188.421 228.8209 188.673 229.4619 188.102 230.5169 188.662 231.3239 188.736 232.4709 190.088 232.8119 190.704 232.5629 191.152 231.8519 192.603 231.7669 193.27 231.3309 195.212 233.6439 194.186 234.8829 194.091 236.6749 192.636 239.5409 193.611 241.6449 194.865 242.1879 195.616 243.2989 195.444 245.4459 194.645 246.4619 194.142 248.4299 195.077 250.1089 195.536 250.4199 195.862 249.6869 197.041 249.6389 197.511 249.9029 198.166 249.5179 199.211 250.3679 199.456 252.0949 201.388 252.8349 202.382 251.9809 203.39 252.6709 204.174 252.9159 205.127 252.6039 205.604 252.3959 207.022 253.9789 206.505 257.1129 205.757 257.2919 204.793 257.0799 202.081 259.8179 200.497 259.1289 197.265 261.3859 197.32 263.0799 193.387 264.4839 192.446 263.5229 191.412 264.4209 190.609 266.3379 188.245 263.9559 187.351 265.6129 186.13 264.0069 183.311 266.8069 180.093 264.3109 179.199 264.5529 178.778 265.5649 176.934 267.1889 173.393 266.7929 172.323 268.8709 173.792 271.6929 174.119 274.7419 173.727 277.4619 172.745 276.9929 170.238 277.0369 168.863 272.7379 166.613 273.5519 164.882 275.0029 163.335 274.4129 162.064 275.1719 161.225 273.0779 160.239 272.2689 160.33 269.9779 154.444 268.8489 155.016 266.8619 155.951 265.5649 155.807 263.6769 157.076 262.2919 156.827 260.9279 153.791 260.8909 152.552 259.8249 152.157 256.8229 151.197 254.1479 152.167 252.5059 150.353 252.5749 148.08 252.0539 145.82 252.4839 144.162 254.0299 143.052 254.1329 143.052 253.1759 143.895 251.4679 143.631 250.0099 143.063 249.4379 142.751 247.7699 143.203 246.5899 144.53 246.1539 144.24 245.2739 145.149 242.9169 147.114 242.4189 147.806 240.6629 148.964 240.5309 150.196 238.7789 151.082 238.5369 151.534 237.9249 150.892 236.5729 151.897 235.1169 152.464 229.4359 151.952 227.2439 152.267 225.9499 152.194 224.3969 150.664 223.4069 149.742 224.4589 148.224 221.0759"></polygon>
            <polygon id="Fill-27" fill="#FFFFFF" points="264.0569 112.3234 263.6359 110.8244 264.4019 111.0884 264.4019 110.6664 265.0059 109.6664 265.9529 109.4064 268.0849 111.4034 268.8729 111.6274 269.3869 111.1394 269.7429 111.3374 270.7679 111.1544 271.0729 111.7844 270.3359 112.4704 270.1379 113.3794 270.4789 114.1814 271.4279 115.0874 270.4389 116.4584 269.5439 116.5094 269.0309 116.8244 268.3609 116.8794 267.5319 117.4954 268.0709 118.1664 268.9539 118.8654 269.0569 119.6544 268.4009 120.4314 266.8619 120.5884 266.3629 121.0874 266.2309 121.7064 265.6889 121.8494 264.4679 121.2194 261.7299 121.8494 260.2419 120.8784 259.5969 119.6944 259.9929 117.8404 260.6629 116.8244 261.7549 116.4174 261.9389 115.3004 261.2829 114.4714 261.5209 113.6684 262.5469 112.8654 262.9129 112.4954"></polygon>
            <polygon id="Fill-28" fill="#FFFFFF" points="270.387 119.8083 270.519 118.4553 270.439 116.4803 271.282 115.2043 272.084 115.0723 273.111 115.5193 273.044 116.6373 272.649 117.0333 272.847 118.3233 273.715 119.4933 274.466 119.4153 274.913 119.8223 275.137 120.8083 276.042 120.9553 276.519 121.4943 276.412 123.1063 276.065 123.1873 274.547 124.2323 273.884 125.8483 274.037 127.8863 273.077 128.2343 270.991 127.4023 270.149 127.7173 269.427 127.5713 268.451 126.4383 268.346 125.7313 268.888 124.5173 268.851 123.4913 268.405 122.7293 268.643 121.3103 268.445 120.4123 269.049 119.7423"></polygon>
            <polygon id="Fill-29" fill="#FFFFFF" points="286.8519 114.4494 286.0379 114.0244 285.7739 112.8664 284.7659 112.1694 284.3079 110.6664 282.3509 110.4504 281.7899 109.6584 280.6899 109.7394 279.4289 108.3544 280.2059 107.5764 280.1039 106.5694 281.0089 105.5834 281.0089 104.9524 280.6309 104.7584 279.6669 104.7954 279.0739 105.1174 275.8999 105.0704 275.4779 104.6704 275.3609 103.5594 273.8139 101.8194 274.1589 101.0384 273.9639 99.9604 272.4549 98.7364 271.7649 97.2264 270.3799 95.6324 269.4529 95.7714 268.2499 96.8344 267.2319 96.8924 265.5679 98.0844 265.5239 98.6784 265.9819 99.7004 265.9339 101.2694 265.5119 101.7274 263.9179 101.7634 263.0819 101.4674 261.5019 103.0134 260.9859 103.1714 260.0699 102.7934 257.8039 104.5244 256.7049 106.0114 254.9049 106.1954 254.4689 105.6454 254.3769 103.0354 253.6109 101.8444 252.0319 101.8814 251.1369 103.6704 250.3569 104.6414 250.3009 106.4044 249.1219 107.6214 248.9159 108.9484 249.5209 109.6704 248.8789 110.7364 249.0509 111.2054 249.6929 111.6754 251.9289 114.9734 252.1559 116.1864 253.0399 116.5644 253.0939 116.9564 252.1339 117.6194 251.0969 117.9534 250.6679 118.9094 251.0409 119.6544 251.7529 120.0424 252.8639 120.1494 253.2189 120.5774 253.4539 121.7504 254.1909 122.4474 254.4979 123.2494 254.0839 124.4224 253.9089 126.1414 252.9919 126.7394 250.9829 127.1714 250.1919 128.1104 250.2799 128.7994 250.7559 129.2494 250.6939 129.6824 249.1759 131.3024 249.3079 133.5534 250.0039 134.0954 251.1769 134.6044 251.6139 135.7964 253.6959 138.5554 252.4569 141.2054 252.2809 142.3564 251.8809 142.7604 251.9549 143.6914 252.1819 144.4204 251.2579 145.7984 250.4559 145.9454 250.4559 147.0854 251.5469 148.6094 252.4059 149.0124 254.3259 149.1744 254.8139 149.5334 256.9909 149.6544 257.6799 150.2114 258.3909 150.2924 259.0539 149.7824 259.5489 149.7014 260.5319 150.3324 261.4619 149.5004 262.2869 149.4634 263.6239 149.9324 263.7059 149.0684 262.3859 147.1654 262.4489 145.6994 263.4449 144.3684 264.2409 143.8194 265.2739 141.5024 265.8499 139.3474 266.9459 138.9514 267.3079 137.5664 267.8289 136.9504 268.4989 137.3094 269.0089 136.9914 270.0319 135.5574 270.6029 134.6744 271.3989 134.4074 272.8389 134.2234 273.8759 134.3044 274.5179 133.9234 274.5179 132.9664 275.5039 132.0024 276.1379 131.1224 275.1079 130.2874 274.0709 128.3154 274.0349 127.9784 273.1359 128.2534 270.8779 127.3694 270.1969 127.7584 269.3539 127.5234 268.4489 126.5374 268.3609 125.5884 268.7959 124.5364 268.8329 123.4914 268.3929 122.8174 268.6539 121.2484 268.3859 120.4204 266.9669 120.5664 266.3109 121.1274 266.2709 121.7654 265.4279 121.7654 264.4639 121.2814 261.7449 121.8244 260.2709 120.8924 259.7099 119.7014 259.9299 118.0964 260.6119 116.8904 261.7449 116.4614 262.0449 115.2784 261.2429 114.4204 261.5759 113.6104 262.5949 112.8404 262.9509 112.5394 264.0679 112.3164 263.7199 110.9124 264.3539 111.0044 264.4099 110.5754 265.0979 109.5784 266.0139 109.4174 268.1439 111.3744 268.8549 111.5874 269.5189 111.1394 269.8449 111.3664 270.7429 111.1654 271.0909 111.8034 270.3139 112.4774 270.1199 113.2804 270.4939 114.1714 271.5529 115.1164 272.2019 115.1164 273.1319 115.4834 273.1729 116.7364 272.6049 116.9894 272.8389 118.4374 273.6609 119.4124 274.5659 119.5224 274.9069 119.8554 275.1559 120.8524 276.1779 121.0214 276.4679 121.3874 276.4679 123.0994 276.9589 122.9934 278.2489 123.6314 279.1179 123.1944 279.6819 122.5344 280.9979 122.5344 281.5659 122.1544 281.9689 122.3154 282.2329 120.5704 282.6989 118.8844 283.7359 117.1914 284.6379 116.6484 284.6379 115.8244"></polygon>
            <polygon id="Fill-30" fill="#FFFFFF" points="267.5687 117.4035 268.5177 116.8065 269.1367 116.7435 269.5547 116.5605 270.3097 116.4655 270.5707 118.5215 270.3577 119.8485 269.1157 119.6975 268.9717 118.8215"></polygon>
            <polygon id="Fill-31" fill="#FFFFFF" points="231.264 165.1291 233.317 165.3121 234.368 164.8801 235.267 163.8461 236.271 163.5821 236.931 163.0511 238.562 162.8861 240.398 160.9071 241.138 160.4631 242.08 160.4631 242.469 159.3891 243.312 158.9901 245.365 159.1251 246.101 158.3631 247.388 158.6011 248.693 157.8321 250.529 156.5261 251.881 155.3981 251.994 152.3301 252.23 151.4501 252.23 149.0491 254.282 149.0491 254.887 149.5001 256.925 149.6401 257.624 150.1201 258.412 150.2041 259.076 149.6801 259.662 149.7861 260.546 150.2441 261.506 149.4011 262.213 149.3361 262.748 149.6581 263.716 149.8191 263.716 150.1711 263.243 150.6811 262.972 151.8171 263.375 152.0991 265.428 150.5671 266.458 150.1681 267.539 149.3501 267.657 150.0761 266.315 151.1281 263.327 154.2511 263.005 155.1451 262.184 155.6981 261.539 156.4171 261.36 157.2121 260.689 157.9561 260.689 158.5941 261.084 158.8431 262.822 159.0011 263.958 159.9171 264.915 160.3681 265.025 161.3431 265.861 162.0031 266.971 161.4571 268.419 161.5011 268.932 161.1601 269.808 161.3501 270.006 162.1271 271.524 163.3621 272.473 163.4691 272.795 163.7911 273.011 165.0591 273.664 165.8221 273.385 166.3571 272.906 166.6831 272.451 167.3171 271.168 168.1461 270.596 168.1461 269.486 166.6571 268.664 165.9611 267.617 165.8801 267.011 166.3421 266.773 167.4011 267.32 169.8281 265.846 170.5171 265.453 171.7151 265.813 172.5661 265.355 173.7901 264.577 174.3291 263.222 174.1901 263.057 174.8751 263.277 175.3481 264.882 175.7471 265.355 176.2281 265.42 177.4001 265.787 178.0201 266.96 178.2031 268.056 179.1741 268.756 179.2881 269.452 178.4271 270.27 177.9721 270.23 178.8261 271.11 181.4471 270.743 184.0121 269.302 184.3941 268.243 185.5701 268.045 187.6081 266.96 187.3221 266.737 186.5641 266.051 186.2811 265.662 186.6291 265.497 187.2271 263.808 187.4251 262.096 186.6481 261.928 185.6691 261.316 185.6101 260.747 185.7541 259.754 185.0901 259.413 185.0901 258.783 185.6801 258.145 185.6801 257.592 185.0351 256.624 184.2511 256.316 183.2571 256.111 180.9811 255.77 180.7251 255.184 180.9561 254.473 181.6591 253.67 181.9671 252.065 181.1211 251.02 181.1971 248.795 182.0881 247.919 181.7401 246.335 182.2311 242.597 181.2961 241.915 180.5671 240.544 180.4281 239.712 179.2511 238.401 178.2511 237.356 176.5211 236.44 175.6011 236.48 173.6001 235.19 172.4961 234.673 171.3971 233.647 170.7521 233.739 169.8501 233.434 168.4831 232.43 168.0681 232.25 167.1271 231.565 166.5141 231.37 165.5181"></polygon>
            <polygon id="Fill-32" fill="#FFFFFF" points="276.1341 131.1081 275.5511 132.0351 274.5951 132.7391 274.4631 133.9891 273.8031 134.3151 272.8941 134.2341 270.5451 134.6521 270.0211 135.7191 268.5031 137.3571 267.8111 136.9501 267.3521 137.6431 267.0001 138.9591 265.8671 139.3481 265.0621 142.1551 264.1591 143.9291 263.2291 144.5891 262.4371 145.6771 262.3491 146.9641 262.9361 148.1001 263.6681 148.9951 263.7381 150.1461 263.1371 150.8711 263.0381 151.8791 263.3311 152.1831 265.4201 150.6551 266.5201 150.1711 267.5501 149.3871 267.6931 150.0351 265.9921 151.4431 263.2541 154.3531 263.0711 155.1891 261.5721 156.3101 261.3891 157.2161 260.6781 157.9781 260.6261 158.6821 262.7311 159.1181 264.0751 160.0121 264.8411 160.3421 264.9851 161.3761 265.9081 161.9911 267.0591 161.5231 268.3971 161.4491 268.9941 161.1851 270.2371 161.2881 271.3071 160.6981 271.5531 158.5171 273.4951 157.7031 274.4191 158.0251 275.8261 159.4661 276.3181 160.7231 276.8271 161.0751 277.8091 160.4231 278.8501 160.9831 279.3781 160.9071 280.3861 160.0421 280.7121 159.1361 281.7751 158.8611 283.0541 159.6461 283.0911 160.4891 283.5601 160.8551 284.4981 160.2761 285.1211 158.2091 286.5261 157.8831 287.0241 155.6361 287.5301 154.7161 288.7541 154.2611 289.8211 154.1771 290.0001 152.6701 290.5611 151.8351 291.3161 149.9471 292.5141 149.5771 292.7791 148.6941 293.3431 147.1911 294.2151 146.4071 293.1991 145.2961 293.8661 144.6361 294.8381 145.1201 295.9821 145.2961 296.9351 144.3391 296.8431 142.1331 297.4331 141.0561 298.2831 140.8651 299.9401 139.4871 301.1541 138.6441 301.7291 138.2081 302.7071 137.4561 303.6541 136.2251 304.6791 136.4121 305.1701 135.9201 306.1961 136.8521 307.2851 136.0121 306.8341 134.8431 307.2121 133.9011 307.1241 132.3141 306.0141 131.8851 304.9941 132.4421 303.7811 131.8851 301.9671 132.6141 300.4601 133.3661 299.5671 132.9741 298.9401 132.2591 298.1261 132.4391 296.5241 131.4051 295.3591 130.8661 293.9291 131.4051 292.3901 132.5781 292.1121 134.0591 290.4501 135.5361 290.1721 137.1081 288.9181 138.4531 286.2731 138.1711 284.2641 137.4051 283.9821 133.8601 282.8201 132.6071 281.0711 132.1491 279.9831 131.3351 279.0191 131.6841 277.7691 132.4531 276.6041 131.4821"></polygon>
            <polygon id="Fill-33" fill="#FFFFFF" points="251.0013 113.7492 250.7233 113.9212 250.0923 115.3032 248.5713 116.0112 247.0323 117.1652 246.2263 117.2022 245.2653 116.5932 244.5623 116.8022 243.7513 117.5652 243.3893 118.3162 242.5273 118.7962 240.7723 118.1002 239.9433 118.4262 238.5623 121.4462 237.8913 123.3152 236.9233 123.9942 235.5203 123.7702 235.0873 124.4592 234.8493 125.3102 233.9213 126.0722 233.5953 126.0062 233.5593 127.8822 233.4233 128.7552 232.5393 129.6712 232.5393 131.6982 232.1693 132.6182 231.9533 134.1832 230.6513 135.3152 229.9993 136.6432 230.0513 138.0062 231.0593 138.9332 232.0263 140.3222 231.9893 141.3342 231.5503 142.1552 231.6193 143.2882 230.3253 145.7282 230.2673 148.5032 230.8713 149.3282 230.9813 152.9862 232.4373 156.8052 232.3123 157.9932 231.3183 159.6492 230.6263 161.7352 230.7473 164.3922 231.1393 165.1872 233.2723 165.2532 234.4563 164.8132 235.1753 163.8462 236.9233 163.1092 238.5473 162.8052 240.4963 160.7162 241.0793 160.4452 241.9483 160.4082 242.3253 159.4402 243.3963 159.0592 245.1773 159.0962 246.1343 158.3002 247.1463 158.6232 247.7583 158.4652 248.7703 157.6152 250.9023 156.1642 251.8123 155.2802 251.9103 152.6482 252.1343 151.5792 252.0973 148.9982 251.1373 148.1112 250.2573 146.8872 250.3893 146.0182 250.7373 145.7432 251.1303 145.6882 252.0383 144.3612 251.7973 143.2142 251.8963 142.5112 252.1453 142.0852 252.3793 140.8212 253.1313 139.6772 253.5123 138.5702 253.1643 137.7352 251.5593 135.8072 251.0933 134.4472 249.6893 133.9262 249.2643 133.3982 249.0113 131.2882 249.5243 130.6392 250.0333 130.1772 250.5473 129.5652 250.5833 129.0442 250.1623 128.6822 250.0453 128.1392 250.8803 127.1712 252.4273 126.8562 253.6443 126.1892 253.8273 125.7162 253.9843 124.2942 254.4323 123.1762 254.0693 122.3152 253.3003 121.5972 253.0983 120.4862 252.7173 120.0642 251.4673 119.9472 250.7233 119.4342 250.5433 118.8402 250.9533 117.9132 252.1563 117.5322 252.9843 116.8102 252.9843 116.5532 252.0383 116.0992 251.8333 114.8672"></polygon>
            <polygon id="Fill-34" fill="#FFFFFF" points="215.6868 140.2419 216.7058 141.6049 218.2308 141.5029 218.9628 141.0669 219.5358 139.3149 220.2678 137.7459 221.3238 137.0019 222.4568 135.0409 223.1458 134.4579 223.6478 133.4609 225.1248 133.0359 225.6638 132.5929 225.6638 131.8919 225.1508 131.2619 225.4248 129.2019 226.8328 127.8719 227.4258 126.4859 227.7828 126.7139 227.9208 127.0799 229.4308 126.8309 230.4278 127.3689 230.8168 127.0359 231.1838 126.3619 232.5358 124.9399 233.5808 126.0719 233.7058 127.6299 233.5658 128.7069 232.6168 129.6349 232.5808 131.6289 232.2798 132.5229 232.0848 134.1249 230.7218 135.3969 230.0698 136.6459 230.1278 137.8819 231.1948 139.0509 232.0848 140.4139 232.0848 141.3639 231.6528 142.2469 231.7078 143.3459 230.4248 145.7869 230.3328 148.5479 230.9088 149.4049 231.0778 153.0589 232.4518 156.8749 232.3378 157.9599 231.4108 159.6459 230.7248 161.7639 230.8168 164.4549 231.2498 165.2799 231.5718 166.5879 232.2358 167.2629 232.3858 168.0389 233.3818 168.5339 233.7228 170.1139 233.6578 170.8139 234.5958 171.4769 235.3068 172.6359 236.4608 173.6769 236.4608 175.4399 235.0168 177.0779 233.6788 176.1169 232.5798 176.9059 231.0438 176.9059 230.5278 176.6309 227.9728 176.3449 227.0708 176.6529 226.7818 177.0559 227.0008 177.6979 228.3758 177.8809 228.6028 179.0829 230.1718 179.4279 231.1578 180.0909 231.0438 181.1209 229.8418 181.3629 228.6838 181.9239 227.6648 182.0699 227.0558 184.0419 227.4378 184.9799 228.4088 185.9659 228.1008 186.8349 228.1008 187.9489 225.7178 188.4079 225.0408 188.2089 224.7768 187.1579 223.0138 186.8709 220.0378 185.0019 218.6258 185.1189 216.5298 186.0359 214.4808 184.4419 213.4038 184.3059 212.6368 183.4329 211.8568 183.8589 210.9288 183.7559 210.5518 183.1949 210.2548 182.0369 208.5578 181.8649 207.8248 182.2209 204.6318 183.0009 203.8298 182.5539 203.5768 181.3039 203.0378 180.9709 201.2748 180.8459 202.5248 179.4599 202.9138 178.0529 202.5358 177.0999 201.3878 176.4809 201.8828 175.6709 203.2098 175.0399 205.9368 175.0029 206.0828 174.6739 205.9588 174.2479 205.9588 172.6099 205.5918 172.0049 206.6008 169.7249 207.1508 169.1869 207.1138 168.5559 206.2998 167.7759 204.8668 167.3649 204.7968 166.8149 205.8738 165.8399 206.0468 164.7409 205.6918 163.9519 205.9448 163.1499 207.7178 162.7139 209.0708 162.8969 210.3208 164.0189 213.5498 163.4579 214.2498 163.0359 213.7768 162.1859 213.8578 160.9029 214.3528 160.8259 215.3128 161.2699 216.4488 160.6649 218.4758 160.7789 219.2418 160.2869 219.4248 158.5459 218.6808 157.5499 218.5088 155.8519 219.7008 154.8229 219.5968 152.0399 218.6598 151.1899 217.9808 151.0439 216.5518 150.0469 215.5658 150.3219 214.1588 148.9469 211.7278 148.2469 211.4538 147.9979 210.6508 147.8139 210.0348 146.2679 210.2288 145.3949 209.7018 144.3979 210.1118 142.4739 211.0648 141.3999 212.9818 140.9019 214.4438 140.8649 215.2798 140.2529"></polygon>
            <polygon id="Fill-35" fill="#FFFFFF" points="264.6253 174.3947 265.3883 173.8157 265.7293 172.6467 265.4793 171.6867 265.8353 170.4877 267.2683 169.9227 267.3083 169.4767 266.7803 167.4347 266.9933 166.3427 267.7153 165.9497 268.6893 166.0267 269.4523 166.7787 270.6503 168.2007 271.2153 168.1637 272.4653 167.4017 272.8873 166.6137 273.5063 166.2577 273.7153 165.8217 272.9933 164.9937 272.9123 163.8097 272.5823 163.4537 271.5053 163.3767 270.0063 162.2587 269.8993 161.3247 270.6103 161.1517 271.3583 160.6797 272.0843 160.7157 272.8323 161.4677 275.4383 162.2957 275.6873 163.3987 277.0183 164.3487 277.7793 164.2567 278.8613 164.5577 280.1103 164.5577 281.1743 165.6087 281.4123 166.3457 281.9393 166.6097 282.5813 166.2797 283.6743 165.9387 284.0183 166.1517 284.0183 167.4937 283.3583 169.8207 283.4383 170.4507 284.9523 170.7957 285.7003 171.8477 285.6353 172.3747 286.1733 173.4127 286.9393 173.9917 288.8343 173.5697 289.1093 173.0717 289.2523 172.3457 289.7543 171.6087 290.1363 171.5727 291.8323 172.4267 292.4883 173.8597 291.7003 175.2417 291.1613 175.1497 290.3733 174.5567 288.6363 174.8347 288.4893 175.4137 289.0953 176.1617 289.4093 176.8877 289.1353 177.7417 288.2923 178.4117 287.8083 179.2287 287.6873 179.9657 288.1753 180.7137 288.9513 181.3327 290.1613 181.7547 290.5313 182.1507 291.5833 182.4517 291.5833 184.0047 291.0853 184.5437 291.5983 185.3977 292.9133 185.2807 293.9913 184.8187 294.8863 184.7277 295.7183 185.2147 297.2683 185.3977 297.2683 187.1757 296.8063 188.8577 296.3083 189.5287 295.5973 190.0567 295.6623 190.4377 296.2683 190.9247 296.4503 191.5707 295.8973 192.2667 295.1243 192.5307 293.7423 192.4387 293.3063 192.7797 293.4123 194.1467 293.5843 194.4257 293.7013 196.1887 293.0173 196.5837 292.8333 197.7797 290.9643 200.0037 290.3183 200.1867 289.5713 200.8727 288.7283 199.9487 287.9913 199.7407 287.0573 200.0957 284.9933 199.9127 284.0843 199.3077 283.4383 198.3837 282.6623 198.2667 282.5193 198.0177 281.9253 197.9117 281.5843 198.2817 281.4373 199.3987 280.9393 199.7917 280.2023 201.0707 279.1763 201.1477 278.7293 200.5427 278.9013 199.8467 279.6493 199.0437 279.7293 198.3477 279.0963 197.4637 278.4793 197.1337 277.6883 197.6107 277.4533 198.2817 276.7683 198.9777 274.7963 199.8577 274.5843 198.7947 274.0963 197.0677 273.5723 196.0717 272.6633 195.4517 272.7433 194.2937 271.9003 193.5057 271.3983 192.7027 271.9523 191.6217 272.6483 190.6357 272.7803 190.0417 271.5093 189.1107 270.9443 189.1477 270.1233 188.9197 269.2143 188.9197 268.0163 187.6777 268.2753 185.5517 269.2953 184.4447 270.7503 184.0457 271.1023 181.4577 270.2443 179.0167 270.2843 178.0197 269.5293 178.3567 268.7373 179.2697 268.0263 179.2327 266.8723 178.1657 265.7253 178.0267 265.4053 177.4957 265.3363 176.2127 264.7793 175.6847 263.2803 175.3767 263.0273 174.9267 263.2583 174.2267"></polygon>
            <polygon id="Fill-36" fill="#FFFFFF" points="289.7767 154.2688 288.6147 154.2688 288.1127 154.6688 287.4227 154.7858 287.0237 155.6328 286.5547 157.8758 285.1317 158.3008 284.5497 160.2358 283.5637 160.8448 283.0037 160.4408 282.9657 159.5618 281.8787 158.8728 280.7187 159.1248 280.4227 160.0528 279.2197 161.0498 278.6707 160.9798 277.9377 160.4558 276.7357 161.0828 276.0687 160.3648 275.7137 159.4118 274.2467 157.8758 273.3077 157.7728 271.6477 158.4728 271.3147 159.8698 271.3507 160.6838 272.1757 160.8328 272.9417 161.5558 275.3727 162.2078 275.7237 163.3298 277.0207 164.4068 277.8457 164.3268 280.3967 164.7148 281.1997 165.5068 281.4307 166.4118 281.8187 166.5588 283.5927 165.9538 284.1217 166.2398 284.0617 167.5118 283.3297 169.7548 283.4907 170.5098 285.0047 170.7848 285.7117 171.8838 285.6677 172.4928 286.2167 173.3978 286.9507 174.0028 288.9187 173.5338 289.2417 172.2768 289.9737 171.4738 291.8767 172.4008 292.4817 173.8198 291.7377 175.2308 291.2357 175.1608 290.3627 174.5308 288.5517 174.8968 288.3947 175.4248 289.0367 176.0878 289.4137 176.9828 289.0477 177.8768 288.2557 178.3898 287.6727 179.6988 287.8887 180.3948 289.0577 181.4838 290.2387 181.7908 290.5937 182.2058 291.5767 182.5138 291.5767 184.0708 291.1067 184.6208 291.5647 185.3318 292.9287 185.3318 293.9037 184.7708 294.9657 184.7348 295.8167 185.2698 297.3637 185.3868 298.0597 185.1018 299.0237 184.9838 301.3807 186.5198 302.3557 186.0728 302.9267 186.1088 303.2717 186.6588 304.0057 186.7948 304.8407 186.1208 305.1377 185.3288 306.1457 184.5738 306.4457 183.8178 307.1097 183.3348 307.4067 181.4908 308.0067 180.4468 307.6997 180.2738 306.9697 179.4498 305.5337 179.1818 303.6977 178.8888 303.5097 177.8698 302.2157 177.6128 300.7567 178.3388 300.2817 178.4998 300.1457 178.3098 300.7507 177.3528 302.0007 176.7778 303.8257 176.9678 304.4817 177.9028 305.4527 178.2578 307.2047 178.2578 308.5277 178.4448 309.8257 179.1888 311.4607 179.4598 312.2297 179.2878 312.4637 178.8228 311.4817 177.4848 309.5617 175.7478 307.7767 175.2778 307.1287 173.4198 305.5077 172.7898 303.6457 172.3238 302.9347 171.8148 303.2167 170.5798 302.7697 169.4138 300.5487 166.1738 299.1737 163.8828 297.4117 160.5398 296.5057 159.6388 291.9677 158.2488 291.1397 157.3258 289.0687 156.9518 288.8677 155.1778"></polygon>
            <polygon id="Fill-37" fill="#FFFFFF" points="308.0296 180.4392 307.4356 181.2672 307.0436 183.3052 306.4496 183.8332 306.0936 184.5952 306.8856 185.0832 307.2016 185.9222 308.6746 186.2262 309.1986 187.0292 310.9316 185.7832 312.1196 184.3202 312.3806 182.9172 311.1376 181.8502 309.1986 181.1132"></polygon>
            <polygon id="Fill-38" fill="#FFFFFF" points="309.0413 179.4128 311.2553 179.9768 311.4373 180.5528 309.9863 180.3548 308.5543 180.0318 307.2523 179.1308 307.8903 178.7198"></polygon>
            <polygon id="Fill-39" fill="#FFFFFF" points="311.6727 181.5789 311.7097 181.3329 310.3097 181.0909"></polygon>
            <polygon id="Fill-40" fill="#FFFFFF" points="309.1771 187.0549 308.5571 186.2299 307.1351 185.8859 306.9301 185.0279 306.1491 184.6389 305.1301 185.2659 304.8111 186.0689 303.9171 186.8709 303.2861 186.6399 302.9901 186.0579 302.2561 186.0579 301.4101 186.5379 298.9581 184.9249 297.3411 185.3579 297.2971 187.3739 296.6891 189.1509 295.6261 190.1919 296.5171 191.5449 295.9781 192.2779 294.9261 192.5749 293.5401 192.4829 293.3901 192.8269 293.6651 196.2619 292.9901 196.6649 292.9211 197.9369 290.9391 200.0889 290.2531 200.2279 289.0391 201.8509 288.9221 203.3979 291.2021 205.1979 292.2581 206.4699 292.9901 209.2879 294.6841 209.1819 295.2341 209.6289 295.3631 210.8459 295.2341 211.2349 296.0481 212.1619 297.1471 214.7049 297.2971 215.3689 299.1631 215.5849 300.6981 214.6579 301.2271 213.5359 301.5011 213.2279 302.0401 213.4339 303.1031 215.2989 303.8591 215.7679 305.9331 214.9109 306.4831 214.5659 307.5821 214.7709 308.3811 215.2959 308.9641 214.5109 308.8721 213.1479 308.9641 212.2979 309.6161 210.4349 310.1851 209.1089 310.8191 208.6579 311.0051 206.4219 312.2741 205.8939 312.5371 207.6419 313.4321 206.4179 314.5861 205.6189 313.8831 204.1239 313.1981 202.9509 314.2421 202.0019 314.2421 200.7149 315.2501 199.3409 314.8761 198.2159 315.5251 197.6619 315.1691 196.3239 315.0121 194.4619 314.4881 195.7419 313.2121 195.8549 314.6381 193.9239 316.2181 192.7099 317.4671 192.0869 317.3061 191.2769 315.3451 190.4739 314.5831 190.7309 314.0301 192.0209 313.0221 192.4239 311.7791 191.5629 310.1371 190.2869 308.8181 190.4629 307.0701 192.0289 306.1051 192.4169 304.4081 192.1349 302.8871 191.7539 302.5461 191.1749 303.8441 190.4739 305.7971 190.2869 306.8421 189.9389 306.9301 188.8509"></polygon>
            <polygon id="Fill-41" fill="#FFFFFF" points="263.6175 236.822 264.2695 237.331 264.3945 237.837 265.9525 237.91 267.0995 237.258 268.1075 237.005 268.7605 237.32 269.2625 238.259 268.9545 239.186 267.5575 240.168 267.1735 241.605 266.1465 242.968 267.7925 244.072 272.9785 242.056 275.0025 241.015 276.8275 242.393 277.7625 242.342 278.0075 241.73 277.4825 240.263 278.5135 239.487 277.8495 238.101 277.8085 237.261 278.4145 236.69 278.8055 233.278 279.3265 232.548 279.3705 231.243 280.3235 230.701 280.9875 229.275 280.5615 227.75 281.7425 226.53 281.7425 226.072 281.0195 224.624 281.1955 222.597 282.0685 221.926 283.7795 221.2 284.8615 219.401 284.1865 217.191 284.9715 215.362 285.1585 214.207 286.5475 213.397 287.2805 213.474 287.7205 213.91 288.5045 214.013 288.7275 213.353 289.8495 212.507 292.4375 211.275 292.3645 210.179 293.0235 209.274 292.2835 206.462 291.0815 205.114 288.9005 203.376 288.9735 202.002 289.6035 200.909 288.7465 199.912 287.9475 199.729 287.1405 200.055 285.0125 199.924 284.0255 199.22 283.4945 198.417 282.7095 198.333 282.5265 197.937 281.9145 197.889 281.5985 198.303 281.4015 199.418 280.9215 199.894 280.2285 201.086 279.3115 201.184 278.7845 200.576 278.9235 199.81 279.6455 199.07 279.7775 198.245 279.0995 197.439 278.5235 197.193 277.6915 197.563 277.4905 198.325 276.7235 198.985 273.2205 200.708 272.0555 200.14 270.7465 200.067 269.9955 200.261 269.8225 201.522 269.2035 201.841 268.2425 201.716 267.7335 202.09 267.9975 202.757 267.0735 202.977 266.2815 203.692 266.0475 204.3 263.8555 205.055 262.4335 205.191 261.9825 205.839 260.2225 206.997 260.0985 207.54 261.8845 209.853 261.9305 211.41 262.8405 212.847 262.6355 213.536 261.8405 214.379 261.1465 216.113 259.7945 216.582 259.6625 217.784 259.1205 218.587 259.0285 219.991 259.4495 221.582 259.8825 221.816 260.5465 221.307 261.0375 221.714 261.2055 222.19 260.6675 223.257 260.8725 223.77 261.9425 224.675 261.3635 225.874 261.5575 226.589 262.4195 227.325 263.3565 227.629 263.4965 228.714 263.0935 229.382 262.9465 230.723 263.5005 230.979 264.2805 230.481 264.6215 230.73 263.7055 231.954 263.7575 233.087 262.9575 234.839 263.5185 235.638"></polygon>
            <polygon id="Fill-42" fill="#FFFFFF" points="227.0706 210.3732 227.2686 208.9772 228.2996 206.8472 229.2586 205.8972 231.3116 204.6482 232.5576 204.5452 233.2476 205.4142 234.1846 205.1982 235.2156 205.2892 236.5786 204.3952 236.3956 203.5702 235.1236 202.5402 235.2736 202.0492 236.6806 201.8992 237.2896 201.3272 240.3836 201.5322 241.6996 202.3242 244.8626 202.4812 248.2746 204.8532 249.1906 204.2112 250.1626 204.0172 251.7456 202.8152 252.8996 203.2262 252.6146 204.0982 252.8086 204.8902 253.8166 205.0032 255.6276 202.8592 257.0126 201.5912 257.2176 202.4592 257.9656 203.4782 258.1486 204.1672 257.6906 204.9922 257.6906 206.0552 258.2846 206.6972 258.5486 207.6022 258.9846 207.3642 260.1176 207.5322 261.8136 209.7682 261.9606 211.4612 262.8876 212.7922 262.6246 213.4882 261.8256 214.4412 261.1586 216.1022 260.1496 216.3882 259.7286 216.7212 259.6586 217.8532 259.1086 218.5432 258.9956 219.9832 259.4866 221.6442 259.8756 221.7832 260.5316 221.3142 261.1736 221.8632 261.2386 222.3112 260.5866 223.2492 260.8286 223.7292 261.9716 224.6562 261.4106 225.8952 261.5606 226.5372 262.4296 227.3032 263.3936 227.6582 263.5186 228.7252 263.1076 229.3772 262.9576 230.7522 263.4746 231.0162 264.3426 230.4402 264.6186 230.6822 264.4826 231.0492 263.6686 231.9212 263.7136 233.0422 262.9576 234.8752 263.5776 235.7222 263.5776 236.7522 262.4886 237.7482 260.0036 237.8522 258.5006 236.9612 256.2906 238.7022 256.2906 239.1342 256.7706 239.9372 256.6786 241.6782 255.5246 241.8172 253.7356 240.2702 250.9316 240.4282 250.6686 242.0122 250.9986 242.7772 250.5286 243.6832 249.4666 244.0612 247.1606 243.9912 246.2696 245.1272 245.9946 245.2512 245.6726 244.7602 245.7856 243.8442 245.5256 242.1472 244.8836 241.4622 244.1506 241.5172 243.3006 242.3312 242.6046 243.0412 242.1346 242.4922 242.1726 241.6342 243.0656 240.3732 243.4226 239.5702 244.1066 238.9512 244.3386 236.6052 244.8066 236.0442 244.8876 235.2052 244.3926 235.0002 243.4226 235.1832 243.0296 234.5412 243.2596 232.2512 242.2856 231.9982 241.7026 231.6312 240.9116 231.7232 240.2146 232.3642 238.6206 232.0572 237.9566 233.1232 236.9166 234.1422 236.5126 234.8532 235.5516 235.1022 235.1606 234.8642 235.1966 233.7062 234.5186 233.0642 233.8876 233.1892 233.3056 234.2782 233.0416 235.1612 232.3196 235.8832 231.7806 235.7692 231.3006 235.2862 230.2926 235.2862 230.1206 234.4502 228.9876 232.9842 228.8966 232.2072 229.6076 231.2652 229.6516 230.8322 228.9406 229.7552 230.0656 228.6882 230.1786 228.1382 229.9846 226.6172 229.3986 226.1232 228.5516 226.0862 227.8996 226.3832 227.0966 226.3392 225.9976 227.1742 225.4836 227.0832 224.9896 226.4532 227.1226 224.2202 228.2656 223.7952 228.6436 223.1322 229.2156 222.7172 229.3066 221.8712 228.6436 220.9772 228.3356 219.5692 228.2556 217.5422 228.3906 217.0142 227.8666 216.4062 227.5006 215.1342"></polygon>
            <polygon id="Fill-43" fill="#FFFFFF" points="288.9925 248.6057 288.8125 248.2427 288.2925 247.8977 288.1605 247.3777 287.0905 245.5047 286.8885 243.7157 285.7255 242.1257 285.1585 241.7187 284.8325 240.7437 284.1465 240.6667 283.2125 241.1617 282.1925 240.0467 281.1375 239.4757 280.0785 239.7617 279.5065 239.4387 278.5605 239.4977 277.8385 238.1047 277.8025 237.2507 278.4725 236.7007 278.7655 233.1747 279.3195 232.5477 279.3195 231.1587 280.2615 230.6827 281.0165 229.2677 280.5405 227.8417 281.0565 227.0647 281.6985 226.5407 281.6985 226.0277 280.9695 224.7667 281.1405 222.6147 282.0755 221.8677 283.6745 221.2517 284.4915 220.1667 284.8325 219.2357 284.2345 217.5097 284.5205 216.0617 284.9455 215.4607 285.1325 214.2477 286.0225 213.7307 286.5765 213.3197 287.2695 213.4627 287.6865 213.9837 288.4055 214.0387 288.7545 213.3197 289.8935 212.5617 292.4375 211.2677 292.3605 210.1747 292.8995 209.3137 294.6475 209.2227 295.1095 209.5447 295.3805 210.8387 295.1975 211.2127 296.0365 212.1547 296.6855 213.9027 297.2675 215.0427 297.3265 215.3907 298.6425 215.4937 299.0905 215.6507 300.5745 214.7057 301.4425 213.2137 301.9815 213.4957 303.1915 215.3467 303.9425 215.7797 304.8445 215.2667 306.5935 214.5847 307.6005 214.7787 308.3475 215.3107 307.9635 215.8347 306.8025 215.8347 307.5935 216.4027 306.9045 217.0917 306.8085 218.3777 306.2885 218.8137 305.0565 219.6687 304.8115 220.9917 304.5445 220.6547 303.2235 220.4527 302.9095 221.6037 304.3275 222.8317 304.6615 223.4147 304.0415 224.2097 303.5615 225.7497 304.1185 226.6797 303.9315 227.5087 304.3865 228.3257 303.5505 229.6237 304.3935 230.8437 304.2435 231.3677 303.5065 231.2027 302.4395 230.5247 301.7245 231.3417 301.5275 232.4267 302.3045 233.3767 301.5745 233.6187 300.0285 234.9747 300.5935 236.0117 300.2695 236.5727 298.2545 236.6677 298.5885 237.5547 299.2875 237.9907 298.9505 238.7497 298.5215 239.3437 296.9715 239.3437 295.8245 239.9157 295.1825 240.8317 293.5545 241.1357 294.5125 241.9897 294.9405 242.8397 294.2365 243.5437 293.5185 244.7127 292.4595 244.7127 292.4595 246.2597 291.0415 245.8827 291.4145 247.5617 290.4475 247.3847 290.1655 248.6897"></polygon>
            <polygon id="Fill-44" fill="#FFFFFF" points="305.5338 221.0025 305.9918 221.6545 306.3838 220.8705 305.7978 220.0865"></polygon>
            <polygon id="Fill-45" fill="#FFFFFF" points="305.2728 229.5095 305.1408 230.3605 305.7318 231.0815 306.3218 230.4265 305.9248 229.6415"></polygon>
            <polygon id="Fill-46" fill="#FFFFFF" points="234.7572 272.2243 235.1312 271.0223 236.0142 270.6663 236.4862 269.2153 237.0042 268.7713 239.5402 268.4673 239.1662 267.8663 239.2212 266.3233 240.7612 266.0853 242.0552 265.0953 241.5232 263.7323 241.9442 262.8563 243.4732 262.2223 246.0282 260.0223 246.5882 259.3233 246.6442 258.0363 246.2992 257.2443 246.2622 255.7273 246.8932 253.7333 247.7062 252.9963 247.8092 251.8603 248.7362 251.5813 249.5502 250.4343 249.2762 248.5573 250.1952 247.6523 250.2322 246.7473 249.8992 246.0873 249.8472 245.5263 249.3892 244.8053 249.3492 244.0783 250.3782 243.7013 251.0162 242.8003 250.6272 241.9643 250.9532 240.4753 253.7292 240.2593 255.5462 241.9093 256.7012 241.7253 256.7602 239.9153 256.1662 239.0833 256.3752 238.5333 258.5482 236.9323 259.9962 237.8703 262.5102 237.7203 263.6212 236.7813 264.2152 237.3273 264.4392 237.8883 265.8712 237.9253 267.1362 237.2103 268.1112 237.0493 268.8552 237.4743 269.2542 238.3723 268.9252 239.3283 267.5612 240.2483 267.2052 241.5973 266.1762 242.9243 267.7442 244.0353 272.9562 242.1733 274.5282 241.1433 275.0572 241.1433 276.9262 242.4263 277.6452 242.3343 277.9882 241.6483 277.5202 240.4793 277.7732 239.8963 279.1692 239.3913 280.0742 239.7463 281.2772 239.5043 282.3072 240.0913 283.1902 241.1543 284.4732 240.6153 284.8062 240.7543 285.1252 241.6703 285.9392 242.3823 286.9802 243.8113 287.0972 245.6553 288.2072 247.5023 288.2442 247.9023 288.8162 248.2793 288.9342 248.5983 288.2072 249.6353 288.9032 250.2473 287.6572 250.8273 285.5432 251.0143 285.5062 251.1853 286.2142 251.4533 286.7012 252.2633 285.2652 252.8933 285.0852 254.8183 283.3732 255.0893 282.2592 255.9213 281.4272 256.1083 280.0702 257.1013 278.5712 256.2623 278.1392 256.8053 277.8712 258.3223 277.0102 258.3223 276.9222 257.5233 276.3952 257.2073 275.2222 257.3033 273.8952 258.5383 273.3562 259.4363 272.2852 259.5173 272.0952 258.0873 270.6402 258.8173 270.5452 260.1253 269.5662 259.6633 268.1842 260.2133 266.7432 260.7083 265.7652 260.7663 264.9442 259.9973 264.5632 259.0733 263.7282 259.1503 263.2542 258.6813 262.8922 258.4103 262.5722 259.2533 262.8552 259.6963 262.9362 260.0893 263.0302 261.0453 263.5482 262.3943 263.6362 263.0243 263.5952 263.0943 262.7342 263.6033 261.8582 262.7613 261.7112 262.8633 262.1662 263.9883 260.9712 265.5243 259.7062 263.9003 259.2882 264.8393 259.4322 266.9283 258.0172 266.9283 256.4552 268.0313 255.0262 267.6503 254.7402 268.5003 252.1012 268.5003 251.2512 268.9733 250.0852 269.3623 250.0852 270.2123 248.9452 271.0003 247.7392 271.0003 247.0872 271.5573 245.0422 271.6523 244.3932 272.4843 242.9082 272.5803 241.6142 274.3393 240.7022 274.4313 239.3832 275.3733 238.5072 276.2523 238.9062 277.5503 239.9182 277.9163 240.1932 279.1923 241.4722 280.4713 241.3912 280.9553 240.1422 282.2013 237.4732 282.2933 237.2312 281.4903 237.7552 281.0763 236.1022 280.2003 235.9152 278.0563 234.9142 277.7853 235.2702 274.9183 236.2812 273.3573 236.8102 272.4043"></polygon>
            <polygon id="Fill-47" fill="#FFFFFF" points="240.6069 275.2599 240.0169 275.6509 240.2149 275.9819 241.1319 275.9159 241.3249 275.1929"></polygon>
            <polygon id="Fill-48" fill="#FFFFFF" points="262.0269 265.4517 262.4159 265.5457 262.3419 265.0067"></polygon>
            <polygon id="Fill-49" fill="#FFFFFF" points="257.6682 268.4352 257.6682 268.9922 258.1232 269.1752 258.1592 268.0612"></polygon>
            <polygon id="Fill-50" fill="#FFFFFF" points="256.2318 269.3145 256.6498 269.2775 256.9718 268.8855 256.6318 268.5885"></polygon>
            <polygon id="Fill-51" fill="#FFFFFF" points="251.0973 270.1938 251.0483 270.5648 251.6063 270.2858 251.6063 269.5928"></polygon>
            <polygon id="Fill-52" fill="#FFFFFF" points="202.1947 259.7517 204.8197 257.1307 205.8827 257.3137 206.5597 257.0727 206.7767 254.5647 206.9597 254.0267 205.6297 252.3657 204.0967 252.9817 202.4117 252.1247 201.2197 252.8567 199.5047 252.0547 199.2627 250.6137 198.2657 249.4447 197.4737 249.9367 197.0057 249.6057 195.8137 249.7087 195.5497 250.4307 195.0367 250.0637 194.0837 248.3777 194.3947 247.4987 195.9857 247.9197 197.9217 246.6957 198.8957 245.3767 201.0257 245.6407 201.6777 246.6597 203.1227 246.8207 203.9027 247.3007 204.6697 247.2567 205.1047 247.6817 206.6847 246.6737 206.6367 245.2627 207.6717 245.1167 210.3017 243.3057 211.7357 243.1667 212.4357 242.4807 212.9967 241.3927 214.3927 240.0877 214.9317 240.3847 215.2507 241.3587 216.2847 242.1257 217.2337 241.9197 218.7687 243.1447 219.5567 242.6057 220.4887 242.4437 221.0117 241.0477 221.5987 240.2707 222.5487 239.7867 224.2897 240.8757 225.1727 239.2367 226.9237 239.1927 227.3017 238.5517 226.7297 237.8407 226.9677 237.4187 227.7937 237.0267 228.7567 237.4047 230.3037 235.2967 231.1727 235.2607 231.8367 235.7767 232.3857 235.7767 233.0267 235.0997 233.2687 234.2307 233.9687 233.1087 234.5187 233.0277 235.0687 233.5887 235.1127 234.8717 236.3257 234.9527 238.2397 232.5917 238.6167 232.0647 240.1527 232.3387 241.1377 231.5727 243.2237 232.2477 243.0847 234.6077 243.4987 235.0777 244.8037 235.1357 244.7667 235.9937 244.2717 236.7047 244.0997 238.9837 243.3117 239.4867 243.1397 240.3477 242.1427 241.5387 242.0287 242.4187 242.6227 243.0267 244.0667 241.4917 244.8217 241.4917 245.5107 242.2027 245.7497 244.8817 246.0237 245.1567 246.6217 244.7787 247.0477 244.0017 249.2317 244.0787 249.4287 244.9037 249.8987 245.7287 249.9427 246.3367 250.2757 246.8867 250.1737 247.6527 249.3007 248.4667 249.3007 249.3277 249.5537 250.4597 248.7287 251.5927 247.7917 251.8677 247.6517 252.9927 246.8637 253.7367 246.2657 255.7637 246.3027 257.3217 246.7067 258.1137 246.5777 259.4397 244.5397 261.4567 242.8797 262.4967 241.9157 262.8197 241.5377 263.7247 242.0547 265.0187 240.7027 266.0707 239.2357 266.3017 239.1557 267.8007 239.4667 268.3397 238.8147 268.6947 237.1397 268.7757 236.4317 269.3147 235.9967 270.7107 235.1127 271.0337 234.7827 272.2097 234.5957 272.2097 233.4667 270.8027 232.8587 270.9267 233.2327 272.5027 231.0807 272.9467 230.5277 273.3467 230.1727 271.9427 229.1207 271.6567 228.0497 271.0697 227.5147 271.6057 226.6687 270.4947 226.3677 269.3107 225.1947 269.6297 225.1947 271.3927 224.2047 271.6637 223.8387 272.4807 223.1937 272.4807 222.9807 272.2867 221.6937 272.7967 220.1767 272.0637 217.8857 272.6687 214.9647 271.2277 214.0857 270.2307 211.6917 269.6917 211.1967 267.1157 210.6357 266.5657 210.7867 265.4187 212.0437 264.2487 211.9197 263.0947 209.9357 262.2107 208.3927 262.7977 206.8797 261.7637 205.2887 262.3727 202.5937 260.7227"></polygon>
            <polygon id="Fill-53" fill="#FFFFFF" points="242.766 283.638 241.196 284.096 238.774 284.423 238.448 285.013 237.268 285.273 235.37 284.947 234.912 285.013 234.258 285.339 234.258 285.995 233.735 286.255 232.295 286.189 231.51 286.713 231.51 287.502 232.426 287.564 231.902 288.418 230.919 288.678 228.105 290.643 227.647 291.625 227.911 292.541 227.58 293.391 227.911 295.158 228.369 296.269 228.629 297.841 230.593 298.691 232.162 299.414 234.391 299.282 235.175 300 236.81 299.74 236.81 298.431 238.118 298.101 239.298 298.039 239.365 297.317 240.674 295.683 241.457 295.683 242.308 295.29 242.572 293.586 242.897 291.295 243.88 289.202 244.863 287.827 245.778 287.044 245.58 285.797 245.057 284.356 245.057 283.048 244.533 282.854"></polygon>
            <polygon id="Fill-54" fill="#FFFFFF" points="266.847 260.8107 268.28 260.3337 269.342 261.2357 268.643 261.6687 268.829 262.2547 267.943 262.0937 267.32 261.9287 266.505 262.0097"></polygon>
            <polygon id="Fill-55" fill="#FFFFFF" points="265.5927 263.1495 266.8477 262.9405 266.7437 262.3025"></polygon>
            <polygon id="Fill-56" fill="#FFFFFF" points="268.3863 262.9191 268.7413 262.6181 267.9133 262.5301"></polygon>
            <polygon id="Fill-57" fill="#FFFFFF" points="262.8774 263.7138 263.3204 263.6288 263.5444 263.2048"></polygon>
            <polygon id="Fill-58" fill="#FFFFFF" points="263.1222 264.2673 263.7132 264.5933 263.7782 263.7423"></polygon>
            <polyline id="Fill-59" fill="#FFFFFF" points="104.3831 226.5515 105.6891 226.6575 107.1801 226.3835 108.2581 226.0125 109.2371 226.7575 110.5081 226.8225 111.7471 227.0975 113.0121 226.9105 113.7001 227.0395 113.9491 226.9585 116.3721 226.4485 116.6811 225.2175 117.8711 224.1175 118.8581 223.5355 119.8621 222.4065 123.8391 221.6145 124.9421 220.9505 125.8651 220.7235 126.5951 220.2545 127.4191 219.9615 127.9471 218.6895 132.0121 217.4175 132.2731 217.9275 132.8371 218.3085 133.9001 218.2715 134.4971 218.0375 134.9661 218.7845 135.5281 218.8985 135.6481 218.7265 138.4261 220.9625 139.4461 221.3685 139.9661 221.9335 140.0021 222.4215"></polyline>
            <polyline id="Fill-60" fill="#FFFFFF" points="22.0931 158.924 22.3671 157.593 23.0781 157.593 23.1691 157.022 23.2831 156.703 22.9411 155.969 22.9411 155.442 22.8031 155.028 23.5131 154.526 24.1091 154.892 24.4061 154.8 24.8191 154.837 25.3461 154.837 26.3361 155.152 27.2701 154.492 27.2181 153.979 27.3391 153.829 27.6141 153.943 27.7171 153.737 27.7351 152.462 27.8101 152.151 28.2041 152.015 29.0701 152.3 29.3161 152.099 29.2121 151.626 29.3441 151.414 29.9971 151.344 30.7011 150.662 31.5871 150.875 32.2101 149.878 32.8301 149.39 33.1561 148.042 33.1971 147.492 34.0181 146.825 34.1541 146.546 34.0981 145.967 34.3191 145.59 34.9341 145.252 35.2201 144.505 34.9961 144.321 34.6331 144.398 34.2811 143.929 33.9701 143.892 33.6441 144.512 32.9511 144.867 32.6651 144.655 32.6651 143.636 32.3541 142.991 31.9321 143.35 31.6571 143.229 31.5581 142.687 30.8951 142.485 30.6561 141.444 30.9471 141.18 30.8221 140.876 30.5981 140.825 30.5461 140.531 29.9861 140.568 29.6301 140.275 29.7841 139.707 29.6421 139.458 29.1091 139.259 28.5131 139.377 28.1351 139.377 27.6201 139.219 26.3141 139.468 25.7991 139.062 25.3121 138.915 24.8821 139.01 24.5681 139.48 23.4621 139.813 22.9871 139.762 22.5461 139.989 22.0131 140.037 21.5151 140.432 21.0791 140.469 20.7251 140.7 20.5751 141.056 20.2551 141.008 19.8031 140.7 19.5731 140.7 19.2241 141.089"></polyline>
            <path d="M22.6638,162.4755 L22.9488,162.8215 L23.0768,161.5595 L22.6638,162.4755 Z M22.5738,166.5185 L22.8388,165.8835 L22.8388,165.4695 L23.0588,164.7815 L22.8908,164.2125 L23.1548,163.8285 L23.0868,162.9885 L22.9488,162.8215 L22.5738,166.5185 Z" id="Fill-61" fill="#FFFFFF"></path>
            <polyline id="Fill-62" fill="#FFFFFF" points="17.8646 170.9567 16.7316 168.9267 16.4456 168.9707 16.4136 168.3507 16.9396 168.1677"></polyline>
            <polyline id="Fill-63" fill="#FFFFFF" points="20.2474 178.2985 19.6014 178.2615 18.4614 177.8435 18.2784 177.3715 18.1304 176.6745 17.9234 176.0995"></polyline>
            <polygon id="Fill-64" fill="#FFFFFF" points="24.9093 182.7516 25.2833 182.8366 25.4813 183.0416 24.9683 181.6706"></polygon>
            <polygon id="Fill-65" fill="#FFFFFF" points="236.4544 175.696 237.3484 176.517 238.6644 178.635 239.7974 179.288 240.6104 180.512 241.9334 180.67 242.6444 181.3 244.1034 181.612 246.2554 182.348 247.9844 181.846 248.8094 182.07 251.1444 181.275 252.2734 181.234 253.7874 182.103 254.4904 181.762 255.1284 181.026 255.7554 180.769 256.1294 180.978 256.2794 183.532 256.7334 184.386 258.2404 185.728 258.7824 185.622 259.5454 185.075 260.8024 185.783 261.6824 185.622 262.0624 185.911 262.0994 186.63 263.8114 187.513 265.4494 187.227 266.0074 186.281 266.7434 186.564 266.9414 187.322 268.0014 187.663 269.3564 189.056 270.2114 188.898 271.6994 189.261 272.7994 190.046 272.6114 190.841 271.4024 192.611 272.0954 193.78 272.7694 194.26 272.7034 195.485 273.6314 196.075 274.5284 198.45 274.8224 199.931 273.1834 200.708 272.0954 200.162 270.7464 200.011 269.9694 200.187 269.8454 201.43 269.0744 201.866 268.2394 201.785 267.7924 202.148 267.9614 202.808 267.1584 202.933 266.3044 203.702 266.0324 204.373 263.8704 205.077 262.4224 205.15 261.8364 205.971 260.2854 206.972 260.0034 207.492 259.0284 207.298 258.4974 207.562 258.2764 206.708 257.6284 206.096 257.6724 204.93 258.1274 204.219 257.9104 203.321 257.1474 202.456 257.0594 201.694 255.6014 202.753 253.8124 205.044 252.7574 204.919 252.5334 204.128 252.9514 203.097 252.4824 203.226 252.0504 202.779 251.2324 203.075 250.1004 204.142 249.1404 204.142 248.2344 204.769 244.8694 202.471 241.6474 202.313 240.4894 201.598 238.4114 201.283 237.3114 201.401 236.6414 201.815 235.3134 202.053 235.1824 202.551 236.3844 203.552 236.5824 204.307 235.1014 205.227 233.8664 205.227 233.1954 205.444 232.5034 204.472 231.2424 204.622 230.0034 205.484 229.2924 205.821 228.0904 206.917 227.9254 207.958 227.2624 208.779 227.0744 210.201 226.0304 209.871 224.4984 207.906 224.3914 206.253 223.3254 205.964 222.1884 204.688 221.3274 205.26 221.6094 204.062 221.6684 201.272 220.6564 199.938 222.0974 198.846 223.3544 198.886 224.6414 198.216 225.7884 198.318 227.2144 198.157 228.5444 197.38 230.2494 195.467 231.6604 195.99 232.1624 194.84 231.9384 193.564 232.3194 192.49 231.9974 191.347 231.4764 190.445 230.3084 189.675 230.3084 188.037 228.0904 187.872 228.1554 186.648 228.4054 185.919 227.3864 184.841 227.0194 184.016 227.7014 182.051 228.9404 181.821 229.8344 181.3 231.0514 181.066 231.2344 180.007 230.2014 179.346 228.5114 179.046 228.4014 177.789 227.0234 177.657 226.7814 177.096 227.1304 176.609 228.0714 176.352 230.6114 176.638 231.2014 176.92 232.6414 176.865 233.5654 176.092 234.9734 177.012"></polygon>
            <polygon id="Stroke-66" stroke="#E75F52" stroke-linecap="round" stroke-linejoin="round" points="236.4544 175.696 237.3484 176.517 238.6644 178.635 239.7974 179.288 240.6104 180.512 241.9334 180.67 242.6444 181.3 244.1034 181.612 246.2554 182.348 247.9844 181.846 248.8094 182.07 251.1444 181.275 252.2734 181.234 253.7874 182.103 254.4904 181.762 255.1284 181.026 255.7554 180.769 256.1294 180.978 256.2794 183.532 256.7334 184.386 258.2404 185.728 258.7824 185.622 259.5454 185.075 260.8024 185.783 261.6824 185.622 262.0624 185.911 262.0994 186.63 263.8114 187.513 265.4494 187.227 266.0074 186.281 266.7434 186.564 266.9414 187.322 268.0014 187.663 269.3564 189.056 270.2114 188.898 271.6994 189.261 272.7994 190.046 272.6114 190.841 271.4024 192.611 272.0954 193.78 272.7694 194.26 272.7034 195.485 273.6314 196.075 274.5284 198.45 274.8224 199.931 273.1834 200.708 272.0954 200.162 270.7464 200.011 269.9694 200.187 269.8454 201.43 269.0744 201.866 268.2394 201.785 267.7924 202.148 267.9614 202.808 267.1584 202.933 266.3044 203.702 266.0324 204.373 263.8704 205.077 262.4224 205.15 261.8364 205.971 260.2854 206.972 260.0034 207.492 259.0284 207.298 258.4974 207.562 258.2764 206.708 257.6284 206.096 257.6724 204.93 258.1274 204.219 257.9104 203.321 257.1474 202.456 257.0594 201.694 255.6014 202.753 253.8124 205.044 252.7574 204.919 252.5334 204.128 252.9514 203.097 252.4824 203.226 252.0504 202.779 251.2324 203.075 250.1004 204.142 249.1404 204.142 248.2344 204.769 244.8694 202.471 241.6474 202.313 240.4894 201.598 238.4114 201.283 237.3114 201.401 236.6414 201.815 235.3134 202.053 235.1824 202.551 236.3844 203.552 236.5824 204.307 235.1014 205.227 233.8664 205.227 233.1954 205.444 232.5034 204.472 231.2424 204.622 230.0034 205.484 229.2924 205.821 228.0904 206.917 227.9254 207.958 227.2624 208.779 227.0744 210.201 226.0304 209.871 224.4984 207.906 224.3914 206.253 223.3254 205.964 222.1884 204.688 221.3274 205.26 221.6094 204.062 221.6684 201.272 220.6564 199.938 222.0974 198.846 223.3544 198.886 224.6414 198.216 225.7884 198.318 227.2144 198.157 228.5444 197.38 230.2494 195.467 231.6604 195.99 232.1624 194.84 231.9384 193.564 232.3194 192.49 231.9974 191.347 231.4764 190.445 230.3084 189.675 230.3084 188.037 228.0904 187.872 228.1554 186.648 228.4054 185.919 227.3864 184.841 227.0194 184.016 227.7014 182.051 228.9404 181.821 229.8344 181.3 231.0514 181.066 231.2344 180.007 230.2014 179.346 228.5114 179.046 228.4014 177.789 227.0234 177.657 226.7814 177.096 227.1304 176.609 228.0714 176.352 230.6114 176.638 231.2014 176.92 232.6414 176.865 233.5654 176.092 234.9734 177.012"></polygon>
        </g>
    </g>
</svg>