<?xml version="1.0" encoding="UTF-8"?>
<svg width="298px" height="300px" viewBox="0 0 298 300" version="1.1" xmlns="http://www.w3.org/2000/svg" xmlns:xlink="http://www.w3.org/1999/xlink">
    <!-- Generator: Sketch 64 (93537) - https://sketch.com -->
    <title>115</title>
    <desc>Created with Sketch.</desc>
    <g id="115" stroke="none" stroke-width="1" fill="none" fill-rule="evenodd">
        <g id="Group-9">
            <path d="M196.9197,78.8417 C196.6127,78.7797 195.9657,79.0337 195.9477,78.5177 L194.9757,78.5177 L194.0037,78.5177 L193.0307,78.5177 C193.0137,79.0337 192.3657,78.7797 192.0597,78.8417 L191.7347,78.8417 L191.4107,79.1657 C190.7997,79.2627 190.7627,79.9077 190.6827,80.3817 C189.5737,82.3627 191.5817,85.2477 193.9227,84.2697 L194.0037,84.0267 L194.3277,83.7027 C195.0667,83.2307 195.7997,82.4977 196.2727,81.7587 L196.5967,81.4347 L196.9197,81.1107 L197.2437,80.7857 L197.5677,80.4627 L197.8927,80.1377 L197.8927,79.4897 C197.8077,79.0717 197.3567,78.7337 196.9197,78.8417" id="Fill-1" fill="#FFFFFF"></path>
            <path d="M196.9197,78.8417 C196.6127,78.7797 195.9657,79.0337 195.9477,78.5177 L194.9757,78.5177 L194.0037,78.5177 L193.0307,78.5177 C193.0137,79.0337 192.3657,78.7797 192.0597,78.8417 L191.7347,78.8417 L191.4107,79.1657 C190.7997,79.2627 190.7627,79.9077 190.6827,80.3817 C189.5737,82.3627 191.5817,85.2477 193.9227,84.2697 L194.0037,84.0267 L194.3277,83.7027 C195.0667,83.2307 195.7997,82.4977 196.2727,81.7587 L196.5967,81.4347 L196.9197,81.1107 L197.2437,80.7857 L197.5677,80.4627 L197.8927,80.1377 L197.8927,79.4897 C197.8077,79.0717 197.3567,78.7337 196.9197,78.8417 Z" id="Stroke-3" stroke="#E75F52" stroke-linecap="round" stroke-linejoin="round"></path>
            <path d="M137.9412,185.7826 L137.9412,187.0786 L137.9412,188.0506 L137.6172,188.3746 L137.6172,188.6986 L137.2932,189.0226 L135.9962,189.0226 L135.6722,189.0226 L135.3482,188.6986 C134.9652,188.7486 135.0182,188.2646 135.0242,188.0506 L135.0242,187.0786 L135.0242,186.7546 L135.0242,186.4296 L135.3482,186.1056 L135.3482,185.7826 L135.6722,185.4586 L135.9962,185.1346 L137.6172,185.1346 L137.9412,185.4586 L137.9412,185.7826 Z M142.8022,29.2606 L142.8022,28.9366 L142.8022,27.6396 L142.8022,26.9916 L143.1262,26.6676 C143.4332,26.6066 144.0802,26.8596 144.0982,26.3446 L144.7462,26.3446 C144.7642,26.8596 145.4112,26.6066 145.7182,26.6676 L146.0432,26.9916 L146.3662,26.9916 L146.6912,27.3166 C146.9992,27.3746 147.2802,27.6566 147.3382,27.9646 L147.6632,28.2886 L147.6632,28.6126 L147.9872,28.9366 L147.9872,29.2606 L148.3112,29.5846 L148.3112,30.5566 L147.9872,30.8806 L147.6632,31.2046 L147.3382,31.5286 L147.0152,31.8526 L146.6912,31.8526 L145.3942,31.8526 L145.0702,31.8526 L144.7462,31.5286 L144.4222,31.2046 L144.0982,31.2046 L143.7742,30.8806 L143.4502,30.5566 L143.1262,30.2326 L143.1262,29.9086 L142.8022,29.5846 L142.8022,29.2606 Z M162.8932,37.0376 L163.8662,37.0376 L164.1902,37.3626 L164.5142,37.6856 L164.8372,37.6856 L165.1622,38.0106 L165.4862,38.3346 L165.4862,38.6576 L165.8102,38.9826 C166.0272,39.6666 165.2992,39.6996 164.8372,39.6306 L164.5142,39.3066 L164.1902,39.3066 L163.8662,38.9826 L163.5422,38.6576 L163.2172,38.6576 L162.8932,38.3346 L162.5702,38.0106 L162.2462,37.0376 L162.8932,37.0376 Z M297.3792,253.1866 L297.0552,252.8626 L294.7872,250.9186 L294.4622,250.5946 L294.1382,250.2706 L293.8142,249.9466 L293.4902,249.6226 L293.1672,249.2986 L291.8702,249.2986 L291.5452,248.9736 L291.2222,248.9736 L290.8982,248.6496 L290.2502,247.6786 L289.9252,247.3536 L289.6012,247.0296 L289.6012,246.7056 L289.2782,246.3816 L289.2782,246.0576 L288.9542,245.7336 L288.6292,244.7616 C288.2472,244.8116 288.2992,244.3286 288.3052,244.1136 L288.3052,243.1406 C287.7902,243.1226 288.0432,242.4756 287.9812,242.1696 L287.9812,241.5206 C287.5982,241.5706 287.6512,241.0876 287.6572,240.8726 C287.2742,240.9236 287.3272,240.4396 287.3342,240.2246 L287.3342,239.5766 L287.0092,239.2526 C287.0592,238.8696 286.5762,238.9226 286.3612,238.9286 C286.1242,239.4536 284.6542,239.4536 284.4172,238.9286 L284.0922,238.9286 C283.8782,238.9336 283.3942,238.9866 283.4442,238.6036 L283.1212,238.6036 L282.7962,238.2796 L281.8242,237.9566 L281.500203,237.6326 L281.1762,237.6326 L280.8522,237.3076 L280.5282,237.3076 L280.2042,236.9836 L279.8792,236.9836 L279.5552,236.6596 L278.9082,236.3356 L278.5842,236.0116 L277.9352,235.6876 L277.6112,235.3636 C277.1952,235.2076 276.7952,234.8076 276.6392,234.3906 L276.3152,234.0676 L275.9912,233.7436 L275.9912,233.4196 L275.6672,233.0956 L275.6672,232.7706 L275.3432,232.4466 L275.3432,232.1236 L275.0192,231.7996 L275.0192,231.4746 C274.5032,231.4566 274.7562,230.8096 274.6952,230.5026 L274.6952,229.5306 C274.2152,229.5436 274.2152,228.5456 274.6952,228.5576 C274.5402,227.1506 275.8712,226.3336 276.7202,225.3986 L279.5552,225.3176 C279.5052,224.9346 279.9892,224.9876 280.2042,224.9936 L280.8522,224.6696 L281.1762,224.3456 L284.4172,221.4286 L284.7412,221.1046 L285.0652,221.1046 C284.9932,220.6736 285.7852,220.6736 285.7122,221.1046 L287.0092,221.4286 L287.3342,221.1046 L286.6852,219.1606 C286.2062,219.1746 286.2062,218.1756 286.6852,218.1876 L287.0092,217.2166 L287.3342,216.8916 L287.6572,216.5676 L287.9812,216.2436 L288.3052,215.9206 L288.6292,215.9206 L288.9542,215.5956 L289.2782,215.5956 L290.5742,215.2716 L290.5742,214.9476 L290.2502,214.6236 L290.2502,214.2996 C289.8672,214.3496 289.9202,213.8666 289.9252,213.6516 L289.6012,212.6786 L289.2782,212.3546 L288.9542,211.7076 L288.6292,211.3836 L288.3052,211.0586 L287.9812,210.7346 L287.6572,210.4106 L287.0092,210.4106 C286.7952,210.4176 286.3112,210.4696 286.3612,210.0876 C285.8612,209.9806 285.4642,210.1796 285.0652,210.4106 C285.1152,210.7936 284.6312,210.7406 284.4172,210.7346 L282.1482,210.4106 L278.5842,210.4106 C278.3692,210.4176 277.8852,210.4696 277.9352,210.0876 L276.9632,210.0876 L276.6392,209.7626 C276.3312,209.7046 276.0492,209.4236 275.9912,209.1146 L275.6672,208.7906 L275.0192,207.4946 L274.6952,206.1976 L273.0752,206.1976 L272.7512,205.8746 L271.4542,204.9016 C271.5042,205.2846 271.0212,205.2316 270.8062,205.2256 L270.4822,205.2256 L270.1582,205.5506 L269.1862,205.8746 L268.8622,206.1976 L268.5382,206.1976 L268.2132,206.5216 L267.5652,206.8456 L267.2422,207.1706 L266.9182,207.1706 L266.5932,207.4946 L266.2692,207.4946 C266.3192,207.8776 265.8362,207.8246 265.6212,207.8186 L264.9732,208.1416 C265.0232,208.5246 264.5402,208.4716 264.3252,208.4666 L264.0012,208.4666 L263.6762,208.7906 L262.7052,208.7906 C262.7542,209.1736 262.2712,209.1206 262.0562,209.1146 L261.0852,209.1146 C261.0242,209.6186 259.8482,209.6186 259.7882,209.1146 L258.8162,209.1146 C258.6012,209.1206 258.1182,209.1736 258.1682,208.7906 L257.8432,208.7906 L257.5192,208.4666 L256.8722,208.1416 L256.5472,207.8186 L256.2232,207.4946 L255.8992,207.1706 L255.5752,206.8456 L255.2512,206.5216 L255.2512,206.1976 L254.9272,205.8746 L254.6032,205.5506 L254.6032,205.2256 C254.2202,205.2756 254.2732,204.7926 254.2792,204.5776 L254.2792,204.2536 L253.9552,203.9296 L253.9552,203.6056 L253.6302,203.2816 L253.6302,202.9576 L253.3062,202.6336 L252.9832,201.9856 L252.6592,201.6616 L251.8502,201.6616 C251.5792,201.3316 251.0582,201.2466 250.7142,201.0126 C247.9012,200.8706 245.3012,199.3396 243.6662,197.0436 C242.6682,193.7966 240.7412,191.0086 238.9672,188.1316 L237.4272,187.4026 L233.5392,187.0786 C227.7482,184.7676 221.7332,180.3766 219.5232,174.1966 C218.8392,173.1046 217.9912,172.0056 217.9032,170.6326 L217.3362,169.9026 C217.2912,169.3166 217.3082,168.7526 217.6602,168.2826 L216.2832,166.7436 C215.5712,166.4146 214.9232,165.9806 214.3382,165.4476 L200.5662,163.6656 C200.1102,163.3796 199.6072,163.1706 199.2692,162.6926 C199.0902,161.8456 198.6932,161.1126 198.8652,160.1806 C199.1222,158.8396 200.2562,157.9896 201.2132,157.0216 L203.4012,155.9686 C209.3442,155.2956 215.5802,155.7256 221.5482,155.9686 C222.3132,156.4736 223.1362,156.6786 224.0602,156.6976 L226.6532,158.8036 C227.0832,158.4176 227.2402,157.8606 227.4622,157.3456 C230.2872,154.9126 229.6592,150.9876 230.0552,147.6236 C230.3062,147.0026 230.7312,146.5786 231.3512,146.3276 C232.0292,146.1646 232.7012,146.0076 233.2952,145.6796 C233.8552,145.6656 234.2442,145.3686 234.7542,145.1936 C236.3052,142.4906 234.7142,138.9256 236.1312,136.2006 L236.0502,135.6336 C234.7512,134.7576 235.8722,132.5296 237.3462,132.8796 C237.4812,132.3136 237.4812,131.6616 237.3462,131.0966 C236.6312,130.3486 235.9332,129.5746 234.9172,129.3146 C234.3352,128.2966 233.5332,127.4746 233.4582,126.2356 C231.4172,126.2426 229.6882,127.9786 227.3812,127.4506 C225.2002,126.6406 224.3972,124.3136 223.0872,122.6716 L219.6852,121.5366 C214.7012,118.7176 209.8502,115.6936 204.7792,113.1116 L192.4642,102.4176 C191.7582,100.9826 191.4682,99.4726 191.0872,97.9616 L190.7632,97.9616 L190.4392,97.3136 L190.1152,96.9896 L189.7912,96.6656 L188.8192,96.0166 L188.4952,95.6936 C187.9702,95.4326 187.4582,94.9206 187.1982,94.3966 C186.8152,94.4476 186.8682,93.9636 186.8742,93.7486 L186.8742,93.4246 C186.3582,93.4066 186.6122,92.7596 186.5502,92.4526 C186.4532,91.1366 186.9772,89.2796 185.5782,88.5636 L185.2542,88.2396 L183.6332,87.5916 L183.3092,87.2676 L182.9852,86.9436 L182.6622,86.6196 L182.0132,85.6476 L181.6892,85.3236 L181.3652,84.6756 L181.0412,84.3506 L181.0412,84.0266 L180.7172,83.7026 L180.0692,82.0826 C179.6862,82.1326 179.7392,81.6496 179.7452,81.4346 C179.3782,80.0286 178.5762,78.3506 179.4202,76.8976 L179.4202,76.5736 C179.4152,76.3586 179.3622,75.8756 179.7452,75.9256 L181.2842,74.2236 C181.3482,73.7726 181.4402,73.3866 181.6892,73.0086 C181.5732,71.4176 182.6592,69.9506 183.9582,69.1196 L184.2822,68.7956 C184.9162,68.4626 185.4402,67.7876 186.2262,67.8236 L186.5502,67.4996 L187.8462,67.1756 L188.1702,66.8516 L192.0592,65.5556 L192.3832,65.2316 L193.6792,64.9076 L194.0042,64.5836 L194.9752,64.2596 C194.9252,63.8766 195.4092,63.9286 195.6242,63.9346 L196.9202,63.2866 C196.8702,62.9046 197.3532,62.9566 197.5682,62.9626 C198.0912,62.7026 198.6042,62.1906 198.8652,61.6666 L199.1882,61.3426 L199.5122,60.3706 L199.8372,60.0466 L199.8372,59.7216 C199.8312,59.5076 199.7782,59.0236 200.1612,59.0746 L200.2422,58.5076 C200.5712,58.0036 200.9262,57.4576 200.8092,56.8056 C201.4302,55.5966 201.0832,54.0106 201.0512,52.6736 L200.8092,52.5926 L200.4852,52.2686 L199.5122,52.5926 C199.3682,53.1106 198.0372,53.1106 197.8922,52.5926 L196.9202,52.5926 L196.5962,52.2686 L196.2722,52.2686 L195.9482,51.9446 L195.6242,51.6206 L195.2992,51.2966 L194.9752,50.9726 L194.6522,50.6486 L194.3282,50.3246 L194.0042,50.0006 L193.6792,49.6766 L193.3552,49.3526 L193.0312,49.0286 L192.3832,48.0556 L192.0592,47.7316 L191.7352,47.4076 L190.7632,46.1116 L190.4392,45.7876 L188.0892,43.2766 L187.5222,43.1956 L185.5782,42.8706 C184.8042,42.8096 183.9582,42.3216 183.6332,41.5746 L183.3092,41.2506 L183.6332,38.6576 L183.9582,38.3346 L184.2822,37.3626 C184.2752,37.1476 184.2232,36.6636 184.6062,36.7136 L184.6062,34.7696 L184.2822,34.4456 L183.9582,34.1216 L182.3372,34.1216 C182.3872,34.5046 181.9042,34.4516 181.6892,34.4456 L181.0412,34.7696 L180.7172,35.0936 L178.4492,36.7136 L178.1252,37.0376 L177.8002,37.0376 L177.4762,37.3626 C176.4512,37.4356 175.4722,37.3526 174.5602,37.0376 L174.2362,36.7136 L173.5872,36.3896 L173.2632,36.0656 L172.9392,35.7416 L171.9672,35.4176 L170.3472,35.0936 L170.0232,35.0936 L169.9422,35.3366 C168.7302,35.4716 167.4262,35.4716 166.2152,35.3366 L166.1342,35.0936 C165.5342,35.0296 164.7342,34.7586 164.5142,34.1216 L164.1902,33.7976 C164.2962,33.2966 164.0962,32.9006 163.8662,32.5006 L163.5422,32.1776 C163.3852,31.7616 162.9862,31.3616 162.5702,31.2046 L162.2462,30.8806 L161.9212,30.8806 L161.5972,30.5566 L160.9492,30.5566 L160.6262,30.2326 L160.3012,30.2326 L159.9772,29.9086 C159.6692,29.8506 159.3872,29.5686 159.3292,29.2606 L159.0042,28.9366 C158.7832,28.1786 158.6832,27.1436 158.0332,26.6676 L157.7092,26.3446 C156.4182,27.1896 157.7432,29.5566 156.0882,30.2326 C155.7302,30.8786 154.5492,30.4896 153.9012,30.4756 L153.8202,30.2326 C153.3202,30.3386 152.9232,30.1386 152.5242,29.9086 L152.2002,29.5846 C151.5742,29.4526 151.5232,28.7246 151.2272,28.2886 L150.9032,27.9646 L150.9032,27.6396 C150.5202,27.6906 150.5732,27.2066 150.5802,26.9916 L150.2552,25.6956 C149.7392,25.6776 149.9932,25.0306 149.9312,24.7236 C150.0072,23.8506 149.7022,22.8646 150.2552,22.1316 L150.5802,21.8066 L151.5512,21.4826 C151.5702,20.9676 152.2162,21.2206 152.5242,21.1586 L153.8202,21.1586 L156.0882,21.4826 L158.0332,21.4826 L161.5972,21.4826 C162.2062,21.1866 162.9682,20.8996 163.2172,20.1866 L163.5422,19.8626 L163.5422,19.2146 C163.1592,19.2646 163.2122,18.7816 163.2172,18.5666 C162.4562,16.9186 161.1372,15.4516 159.6532,14.3536 L159.3292,14.0296 L157.0602,12.4086 L154.4682,12.4086 L153.4962,12.4086 C153.4772,12.9256 152.8312,12.6716 152.5242,12.7336 L151.5512,12.7336 C151.4912,13.2376 150.3162,13.2376 150.2552,12.7336 L149.2832,12.7336 L148.9592,12.4086 L148.6352,12.4086 L148.3112,12.0856 C147.8392,11.8666 147.2332,11.3896 147.3382,10.7886 C146.8212,10.6436 146.8212,9.3136 147.3382,9.1686 C147.2042,8.0546 148.6202,7.5986 148.6352,6.5756 C148.4202,6.5826 147.9372,6.6346 147.9872,6.2516 C147.3562,5.8866 146.7322,5.2636 146.3662,4.6316 L146.0432,4.3076 C146.0872,3.7216 146.0702,3.1566 145.7182,2.6876 L145.6372,0.4996 L143.1262,2.6876 L142.8022,3.0116 L141.5052,3.9836 L141.1812,4.3076 L140.2092,4.6316 L139.8852,4.9556 L136.9692,4.9556 C136.7542,4.9616 136.2702,5.0146 136.3202,4.6316 L135.9962,4.6316 C135.7812,4.6376 135.2982,4.6906 135.3482,4.3076 L134.3762,3.9836 L134.0522,3.6596 L133.7282,3.6596 C133.5132,3.6656 133.0302,3.7186 133.0802,3.3356 L129.8392,2.3636 C129.6252,2.3696 129.1412,2.4216 129.1912,2.0396 L128.8672,2.0396 C128.9172,2.4226 128.4342,2.3696 128.2192,2.3636 L127.8952,2.6876 C127.5062,4.6776 129.5722,5.3206 130.8122,6.2516 L131.1352,6.5756 L132.1082,7.2246 L132.4322,7.5486 L132.7562,7.8726 C133.1392,7.8226 133.0862,8.3056 133.0802,8.5206 L133.0802,8.8446 L132.7562,9.1686 L132.7562,9.4926 L132.4322,9.8166 L132.1082,10.1406 L131.7842,10.4646 L131.1352,10.4646 C131.1862,10.8476 130.7022,10.7946 130.4872,10.7886 L126.5992,10.7886 L123.7632,10.7076 L123.6822,10.4646 L123.0342,10.4646 L122.9532,10.7076 L117.5252,10.7886 L114.9322,10.4646 C114.7172,10.4706 114.2342,10.5236 114.2842,10.1406 L113.9602,10.1406 L113.6362,9.8166 L113.3122,9.8166 L112.9882,9.4926 L112.6642,9.4926 L112.3402,9.1686 L111.0442,8.8446 L109.0992,8.8446 L108.7752,9.1686 L108.4512,9.4926 L108.1272,9.8166 L107.8032,10.1406 L105.8582,12.7336 L105.5352,13.0576 L105.2112,13.3816 L104.8862,13.7056 C103.9742,14.0196 102.9952,14.1026 101.9702,14.0296 L101.6462,13.7056 L101.3222,13.3816 L100.9982,13.0576 C100.9932,12.3796 101.1132,11.6636 100.6742,11.1136 L100.3502,10.7886 C99.9142,10.6806 99.4622,11.0186 99.3782,11.4366 L99.0532,11.7616 L98.0812,12.4086 L97.7572,12.7336 L97.4332,13.0576 L96.4612,13.3816 C96.5112,13.7636 96.0282,13.7116 95.8132,13.7056 L94.8402,13.7056 C94.4832,14.3506 93.3022,13.9626 92.6532,13.9486 L92.5722,13.7056 C92.2232,13.6726 91.7482,13.8306 91.5192,13.4626 C89.8542,13.4486 89.1872,11.5526 87.7112,11.1136 L87.3872,10.7886 L87.0632,10.7886 L86.7392,10.4646 L86.4152,10.4646 L83.4992,10.4646 L83.1742,10.4646 L82.8502,10.7886 C81.8862,11.1596 81.4892,12.7046 80.2582,12.4086 C80.1132,12.9266 78.7822,12.9266 78.6372,12.4086 L77.0172,11.7616 L76.6932,11.4366 L75.0732,10.1406 L74.7492,9.8166 L74.4252,9.4926 L73.7762,9.1686 L73.4532,8.8446 L73.1292,8.8446 L72.8042,8.5206 L70.2122,7.8726 C69.9972,7.8786 69.5142,7.9306 69.5642,7.5486 C69.2572,7.6096 68.6102,7.3566 68.5912,7.8726 L68.2682,9.4926 L68.2682,10.4646 L67.9432,10.7886 C67.8812,12.4396 65.9792,12.9646 64.7032,13.3816 C64.7532,13.7636 64.2702,13.7116 64.0552,13.7056 L63.4072,13.7056 L63.3262,13.9486 C62.5452,14.0836 61.6752,14.0836 60.8952,13.9486 L60.8142,13.7056 L60.4902,13.7056 L60.1662,13.3816 L59.1942,13.0576 C58.9792,13.0636 58.4962,13.1156 58.5452,12.7336 L58.2222,12.7336 L56.6012,13.0576 L55.9532,13.0576 C56.0032,13.4406 55.5202,13.3876 55.3052,13.3816 L54.0092,14.0296 L53.6852,14.3536 L52.0652,15.0016 L51.7402,15.3256 L50.1202,15.6496 C50.1022,16.1656 49.4552,15.9126 49.1482,15.9736 L48.8242,15.9736 L47.5272,16.2986 L44.6112,16.2986 C44.3042,16.2366 43.6572,16.4896 43.6392,15.9736 L39.1022,16.2986 L38.4542,16.2986 C38.5042,16.6806 38.0212,16.6286 37.8062,16.6216 L37.4822,16.6216 C37.5322,17.0046 37.0482,16.9516 36.8342,16.9466 C36.4182,17.1026 36.0182,17.5026 35.8612,17.9186 L35.5372,18.2426 L35.2132,18.5666 L34.8892,18.8906 L34.5652,19.2146 L33.5932,19.8626 L33.2692,20.1866 L32.6212,20.5106 L32.2962,20.8346 L31.6492,21.1586 C31.6992,21.5416 31.2152,21.4896 31.0012,21.4826 C29.5102,22.0376 27.7692,21.7326 26.1402,21.8066 L25.4912,21.4826 L24.1952,21.4826 C23.9812,21.4896 23.4972,21.5416 23.5472,21.1586 L18.0382,21.1586 C17.7312,21.0976 17.0842,21.3506 17.0662,20.8346 L16.4182,20.8346 C16.2032,20.8416 15.7192,20.8936 15.7702,20.5106 L14.7972,20.5106 L14.4732,20.1866 L14.1492,20.1866 C13.9352,20.1926 13.4512,20.2456 13.5012,19.8626 L13.1772,19.8626 C12.9622,19.8686 12.4792,19.9216 12.5292,19.5386 L11.2332,19.2146 C10.9262,19.1536 10.2782,19.4066 10.2602,18.8906 C9.2352,18.8166 8.2562,18.8996 7.3442,19.2146 L7.0202,19.5386 L6.6962,19.5386 L6.3722,19.8626 L5.7242,20.1866 L5.3992,20.5106 L4.7522,20.8346 L4.4272,21.1586 L3.7792,21.4826 L3.4552,21.8066 C2.4302,21.8806 1.4512,21.7976 0.5392,21.4826 L0.5392,23.7516 C0.3012,24.6436 1.2322,25.1836 1.1872,26.0196 L1.5112,26.3446 L1.5112,26.6676 C1.8942,26.6176 1.8412,27.1006 1.8352,27.3166 L1.8352,29.5846 L2.1592,30.8806 L2.4832,31.2046 L2.8072,31.5286 L3.1312,31.8526 L3.4552,31.8526 L3.7792,32.1776 L5.0762,32.5006 C5.2912,32.4946 5.7742,32.4426 5.7242,32.8246 C7.4532,32.4206 8.1932,34.3266 9.6122,34.7696 L12.4482,34.8506 L12.5292,35.0936 L13.7442,35.4986 C14.1562,37.2396 15.7362,38.2576 16.7422,39.6306 L17.0662,39.9546 L18.6862,41.8986 L19.0102,42.2226 L19.3342,42.8706 L19.6582,43.1956 L19.9832,43.8436 L20.3062,44.1676 L20.3062,46.1116 L20.6302,46.7596 L20.9552,51.2966 C20.7712,52.3236 21.3892,53.1466 21.8462,53.9706 L21.9272,54.5376 L22.2512,54.8616 L22.5752,55.8336 C22.9582,55.7826 22.9052,56.2666 22.8992,56.4816 L23.2232,57.4536 L23.5472,57.7776 L23.8712,58.4266 L24.1952,58.7496 L24.8432,60.0466 L25.1682,60.3706 L25.1682,60.6946 L25.4912,61.0186 L26.7882,63.9346 L27.1122,64.2596 L27.1122,64.5836 C27.6282,64.6016 27.3742,65.2486 27.4362,65.5556 C27.6382,67.0816 27.2112,68.4236 26.7882,69.7676 L26.4632,70.0926 L26.4632,70.4166 C26.4702,70.6316 26.5222,71.1146 26.1402,71.0646 C25.9042,72.6786 28.5232,74.2606 26.8692,75.6816 L26.4632,76.5736 L26.1402,76.8976 L26.1402,77.2216 L25.8162,77.5456 L25.8162,77.8696 L25.4912,78.1936 L25.4912,78.5176 L25.1682,78.8416 C24.7762,79.7966 23.9812,80.6286 24.1952,81.7586 L23.8712,82.0826 L22.5752,84.3506 L22.2512,84.6756 L21.6032,85.6476 L21.2782,85.9706 L20.6302,86.9436 L20.3062,87.2676 L19.9832,87.9156 L19.6582,88.2396 L19.3342,88.5636 L19.0102,88.8876 L18.6862,89.2116 L18.3622,89.5356 L18.0382,89.8596 L17.7142,90.1836 L17.3902,90.5086 L17.0662,91.1566 C17.5662,91.8906 17.7632,93.8406 16.4182,93.7486 L16.0942,94.0726 L15.8512,94.1536 C15.6742,95.1966 14.4052,95.7416 13.5822,95.1256 L11.2332,97.3136 L10.9092,97.6376 L10.4222,97.9616 L9.9372,97.9616 L9.6122,97.6376 L9.3692,97.7186 C9.5302,98.6946 8.7692,99.1956 8.3162,99.9056 L9.0452,100.7976 C10.0582,101.3006 11.6392,101.6506 11.6382,103.0656 C12.9272,104.1446 13.8482,105.4526 14.7162,106.7926 C14.8482,107.1446 14.8482,107.5736 14.7162,107.9266 C13.4252,108.1636 13.3832,109.5446 13.5012,110.5996 C12.8092,111.8576 13.1722,113.5456 11.9622,114.5696 L11.8812,115.4606 C12.2562,115.9066 12.1612,116.4626 12.2862,116.9996 C13.9832,119.1136 15.9592,121.0536 17.1472,123.4816 C18.0642,123.8376 18.9702,124.0446 19.5772,124.9396 C20.1712,126.6156 21.2512,128.5136 20.2252,130.2866 L19.0912,130.4486 L19.0102,131.0156 C20.2852,132.9436 21.5962,134.8466 23.1422,136.6056 L23.2232,138.4696 C21.9822,140.3476 19.0662,138.9416 17.6332,140.6566 C17.1182,140.8796 16.5622,141.0366 16.1752,141.4666 C16.0412,141.9256 16.0412,142.4666 16.1752,142.9256 C18.8222,145.3056 21.8562,147.4876 25.4912,147.5426 L26.2212,148.1106 L27.4362,148.1906 L28.4892,148.7586 C31.5062,149.3776 34.1502,151.0996 36.5902,152.9706 C38.1762,153.7156 39.7062,154.5536 41.1282,155.5636 L43.6392,155.9686 L49.3912,156.0496 L49.4722,156.2926 L52.0652,156.9406 L55.7102,154.4286 C57.6802,153.8066 60.1252,153.7276 61.5432,155.5636 C62.1452,155.8446 62.7012,156.0976 63.4072,155.9686 C64.9332,155.5316 65.9342,152.8416 67.6192,153.6996 C67.9682,153.7336 68.4432,153.5746 68.6722,153.9426 L69.5642,154.0236 C71.3752,152.6536 73.6142,152.7566 75.7212,152.4036 L78.3952,154.5916 C80.4302,154.5646 82.3462,155.2586 83.9032,156.5356 C88.0292,157.8476 90.9942,161.3606 95.0842,162.8546 L96.8662,165.6096 L100.5932,168.3636 C100.6442,168.7896 100.9422,169.0626 101.2412,169.3366 L102.0512,173.3866 C102.8622,175.1146 105.4372,176.0446 104.8862,178.3286 L104.9672,179.2206 L107.7222,179.3826 C108.1392,180.0346 108.1142,180.7406 108.2082,181.4886 L111.4492,183.7576 C112.9522,183.6836 115.2042,184.0306 115.0132,186.0246 C115.6002,187.0646 116.7812,186.9186 117.4442,187.8076 L117.6062,189.2656 C118.5222,190.1386 119.2752,191.1136 119.8742,192.1816 C120.8502,192.7586 121.6522,193.6136 122.4672,194.4506 L123.3582,194.5316 L132.1082,191.9396 L133.3232,192.0196 C133.7882,192.5916 134.3662,192.9766 135.0242,193.2356 C139.6322,193.4916 142.6892,189.4996 145.7992,186.5116 C146.8742,186.1616 148.0282,185.9246 149.2022,186.1866 L151.7952,187.4836 L157.1412,194.4506 C159.2732,196.3726 160.6752,198.8796 160.9222,201.6616 L160.6252,201.6616 C160.8622,202.9816 160.2322,204.0486 159.9772,205.2256 C159.9832,205.4406 160.0362,205.9246 159.6532,205.8746 L159.6532,206.5216 L159.3292,207.8186 L159.3292,209.1146 L159.6532,209.4386 C159.7122,209.7466 159.9932,210.0286 160.3012,210.0876 L160.6252,210.4106 L160.9492,210.4106 C161.1642,210.4046 161.6472,210.3516 161.5972,210.7346 L163.2172,210.4106 L163.5422,210.0876 C163.8502,210.0286 164.1312,209.7466 164.1902,209.4386 L164.5142,209.1146 L164.5142,208.4666 C164.5072,208.2516 164.4552,207.7676 164.8372,207.8186 C165.2402,205.6316 168.0382,206.2836 169.6992,206.1976 L170.0232,206.5216 L170.6712,206.5216 L170.9952,206.8456 L171.6432,207.1706 L171.9672,207.4946 C172.7522,207.9006 173.0692,208.9666 173.2632,209.7626 L173.5872,210.0876 L173.5872,210.7346 C174.1032,210.7536 173.8502,211.3996 173.9122,211.7076 L173.9122,212.6786 C174.4272,212.6976 174.1742,213.3446 174.2362,213.6516 L174.2362,213.9756 L174.5602,214.2996 L174.5602,214.6236 L174.8832,214.9476 C175.0982,214.9416 175.5822,214.8886 175.5322,215.2716 L175.8562,215.2716 L180.6362,215.3526 L180.7172,215.5956 L181.6892,215.5956 L182.0132,215.9206 L182.3372,215.9206 L182.6622,216.2436 L182.9852,216.5676 C183.4012,216.7236 183.8012,217.1246 183.9582,217.5406 L184.2822,217.8646 L184.6062,218.1876 L184.9292,218.8366 L185.2542,219.1606 L185.5782,219.4846 L185.9022,219.8086 L186.2262,220.1336 L187.1982,220.4566 L188.4952,220.4566 L190.7632,219.4846 L191.0872,219.1606 L191.7352,218.8366 L192.0592,218.5116 L192.7082,218.1876 L193.0312,217.8646 L193.6792,217.5406 L194.0042,217.2166 L194.6522,216.8916 L194.9752,216.5676 L195.6242,216.2436 L195.9482,215.9206 L196.2722,215.9206 L196.5962,215.5956 L197.2442,215.5956 L197.8922,215.5956 L198.5412,215.2716 L198.8642,214.9476 L199.1882,214.6236 L200.4852,213.6516 L200.8092,213.3276 L202.4292,212.6786 C202.4472,212.1636 203.0942,212.4166 203.4012,212.3546 L204.0492,212.3546 L204.1302,212.1116 C205.1272,211.9766 206.2132,211.9766 207.2092,212.1116 L207.2902,212.3546 L208.5872,212.3546 L208.9112,212.0316 L209.5582,211.7076 L209.8822,211.3836 L210.2072,211.3836 L210.5312,211.0586 L211.1782,210.7346 L211.5032,210.4106 L212.1512,210.0876 C212.2952,209.5696 213.6272,209.5696 213.7712,210.0876 L214.0952,210.0876 C214.3102,210.0806 214.7942,210.0276 214.7442,210.4106 L217.0112,210.7346 C217.2272,210.7286 217.7112,210.6766 217.6602,211.0586 L217.9842,211.0586 L218.3082,211.3836 L218.6322,211.3836 L218.9572,211.7076 L219.2802,211.7076 L219.6042,212.0316 L220.5772,212.6786 L220.9012,213.0036 C221.2092,213.0616 221.4912,213.3436 221.5482,213.6516 L221.8732,213.9756 L222.1972,217.2166 C222.1352,217.5226 222.3882,218.1706 221.8732,218.1876 L222.1972,222.0776 L222.1972,222.7246 C222.5802,222.6756 222.5272,223.1586 222.5212,223.3736 L222.8452,224.6696 L223.1692,224.9936 L223.1692,225.6416 C223.6862,225.7866 223.6862,227.1176 223.1692,227.2616 L223.1692,227.5866 L222.8452,227.9106 L222.5212,228.5576 L222.1972,228.8826 L221.8732,229.2066 L221.2242,230.1786 L220.9012,230.5026 L219.2802,232.4466 L218.9572,232.7706 L218.6322,233.0956 C218.3172,234.0086 218.2352,234.9866 218.3082,236.0116 L218.6322,236.3356 C218.7172,236.7546 219.1692,237.0926 219.6042,236.9836 L221.2242,237.3076 L221.8732,237.3076 C222.1792,237.3696 222.8272,237.1166 222.8452,237.6326 L223.4932,237.6326 C223.7082,237.6266 224.1912,237.5736 224.1412,237.9566 L224.4652,237.9566 C224.6802,237.9496 225.1642,237.8976 225.1132,238.2796 C225.4212,238.3386 225.7042,238.6206 225.7612,238.9286 L226.0862,239.2526 L226.4102,239.9006 L226.7342,240.2246 L227.3812,241.1966 L227.7062,241.5206 L228.0302,241.8456 L229.6502,243.1406 L229.9742,243.4656 L230.6232,243.7896 L230.9472,244.1136 L231.5942,244.4366 L231.9192,244.7616 L232.2432,244.7616 L232.5672,245.0856 L233.2142,245.0856 L233.5392,245.4096 L233.8632,245.4096 L234.1872,245.7336 L234.8362,245.7336 L235.1592,246.0576 L236.1312,246.3816 L236.4562,246.7056 L236.7802,246.7056 L237.1042,247.0296 L237.4272,247.3536 L238.0762,247.6786 L238.4002,248.0026 L238.7242,248.3256 L239.0482,248.6496 L239.3722,248.9736 L239.6962,249.2986 L239.6962,249.6226 L240.0202,249.9466 L240.0202,250.2706 C240.5362,250.2886 240.2832,250.9356 240.3442,251.2426 C240.3502,251.4576 240.4032,251.9406 240.0202,251.8906 L240.0202,252.8626 L239.6962,253.1866 L239.6962,253.5116 L239.3722,253.8356 L239.0482,254.1596 L238.7242,254.4826 L237.4272,256.1036 L237.1042,256.4276 L236.7802,256.7516 L236.7802,257.0756 L236.4562,257.3996 L236.4562,258.3726 L236.4562,259.6686 L236.4562,260.9646 L236.7802,261.2886 L236.7802,261.6126 L237.1042,261.9366 L237.4272,262.5846 L237.7522,262.9086 L238.0762,263.5566 L238.4002,263.8816 L238.7242,264.2056 L239.3722,265.1776 L239.6962,265.5016 L240.3442,266.4726 L240.6692,266.7976 L240.9932,267.1216 L240.9932,267.4456 L241.3162,267.7696 L241.3162,268.0946 L241.6402,268.4186 L241.9642,269.0656 L242.2892,269.3896 L242.6132,270.0386 L242.9372,270.3626 L242.9372,270.6856 L243.2602,271.0106 L244.2332,273.6026 L244.5572,273.9276 L244.8812,275.2226 C245.2642,275.1736 245.2122,275.6566 245.2052,275.8716 C245.6132,276.8196 245.9412,277.7896 246.1772,278.7876 C246.5602,278.7376 246.5072,279.2206 246.5022,279.4356 C246.8842,279.3866 246.8322,279.8696 246.8262,280.0846 L246.8262,280.4086 C247.2092,280.3576 247.1562,280.8416 247.1502,281.0556 L247.4732,282.3526 L247.7972,282.6766 L247.7972,283.3246 L248.1222,283.6486 L248.4462,284.9446 C248.8292,284.8946 248.7762,285.3786 248.7702,285.5936 L248.7702,285.9176 C249.1532,285.8666 249.1002,286.3496 249.0942,286.5656 L249.0942,286.8886 C249.4772,286.8396 249.4242,287.3226 249.4182,287.5376 L249.4182,287.8616 C249.8002,287.8106 249.7482,288.2946 249.7422,288.5106 L249.7422,288.8336 L250.0662,289.1576 L250.3902,290.1306 L250.7142,290.4546 L250.7142,290.7776 L251.0392,291.1016 L251.3622,291.7506 L251.6862,292.0746 L252.3352,293.3706 L252.6592,293.6946 L252.9832,294.3436 L253.3062,294.6666 L253.6302,294.9906 L253.6302,295.3146 L253.9552,295.6386 L254.2792,295.9636 L254.6032,296.6116 L254.9272,296.9346 L255.2512,297.5836 L255.5752,297.9076 L256.2232,299.5276 C256.6062,299.4776 256.5532,299.9616 256.5472,300.1766 L256.8722,300.5006 L257.1962,300.5006 C257.2132,299.9836 257.8612,300.2376 258.1682,300.1766 L258.4922,300.1766 L258.8162,299.8516 L259.1402,299.5276 L259.4632,299.2036 C260.1562,298.9336 260.4892,297.9126 261.4082,298.2316 C261.3582,297.8486 261.8412,297.9016 262.0562,297.9076 L262.3802,297.5836 L264.9732,295.6386 L265.2972,295.3146 L265.9452,294.9906 L266.2692,294.6666 L266.5932,294.3436 L266.9182,294.3436 L267.2422,294.0186 L267.5652,294.0186 L268.8622,293.6946 L269.5092,293.6946 C269.4602,293.3116 269.9432,293.3646 270.1582,293.3706 L270.4822,293.3706 L270.8062,293.0466 L271.1302,293.0466 C271.0802,292.6636 271.5632,292.7166 271.7782,292.7216 C272.5662,292.2416 273.3962,291.9146 274.3712,292.0746 L274.6952,292.3986 L275.3432,292.3986 C275.5582,292.3916 276.0422,292.3406 275.9912,292.7216 L278.9082,294.0186 L279.2322,294.3436 L279.5552,294.3436 L279.8792,294.3436 L282.7962,294.3436 L283.7682,294.3436 C283.9832,294.3366 284.4662,294.2846 284.4172,294.6666 L285.0652,294.6666 C285.2802,294.6606 285.7632,294.6076 285.7122,294.9906 L286.6852,294.9906 L288.3052,295.3146 L289.6012,295.9636 L289.9252,295.6386 L289.6012,294.9906 C289.2182,295.0416 289.2712,294.5576 289.2782,294.3436 C288.8952,294.3926 288.9472,293.9096 288.9542,293.6946 L288.9542,293.3706 L288.6292,293.0466 L288.6292,292.7216 L288.3052,292.3986 L288.3052,292.0746 L287.9812,291.7506 L287.9812,291.4266 L287.6572,291.1016 L287.6572,290.7776 L287.3342,290.4546 L287.3342,290.1306 L287.0092,289.8056 L286.6852,288.8336 C286.3022,288.8846 286.3552,288.4006 286.3612,288.1856 L286.3612,287.2136 C285.8452,287.1956 286.0982,286.5486 286.0372,286.2416 L286.0372,284.9446 L286.3612,283.6486 L286.3612,282.6766 C286.4222,282.3696 286.1702,281.7216 286.6852,281.7046 C286.7592,281.2746 287.1892,281.0566 287.5762,280.9746 L287.9812,278.4646 C287.9752,278.2496 287.9222,277.7656 288.3052,277.8156 L288.6292,276.1956 L288.3052,275.5476 L287.9812,275.2226 L287.9812,274.8986 L287.7382,274.8176 L287.6572,271.9826 L287.6572,271.0106 C287.1412,270.9926 287.3952,270.3456 287.3342,270.0386 L287.0092,268.7416 C286.6272,268.7926 286.6792,268.3086 286.6852,268.0946 L286.6852,267.7696 L286.6852,266.7976 L286.3612,266.4726 L285.3892,265.8256 L285.0652,265.5016 C284.5952,265.1496 284.0312,265.1326 283.4442,265.1776 C283.1372,265.1156 282.4912,265.3696 282.4722,264.8526 L281.1762,264.5286 L280.8522,264.2056 L280.8522,263.5566 C280.4692,263.6066 280.5222,263.1236 280.5282,262.9086 C280.5782,262.5256 280.0942,262.5786 279.8792,262.5846 L279.5552,262.2616 L279.2322,262.2616 L278.9082,261.9366 L278.5842,261.6126 L278.2592,261.2886 L277.9352,260.9646 L277.6112,259.3446 L277.9352,258.0486 L277.9352,257.0756 C277.9292,256.8606 277.8772,256.3776 278.2592,256.4276 L278.2592,255.7796 L278.5842,255.4556 L278.9082,255.1316 L279.2322,254.8066 L279.5552,254.4826 L281.500203,254.1596 C281.5612,253.6556 282.7362,253.6556 282.7962,254.1596 L283.4442,254.1596 L283.7682,254.4826 L284.4172,254.4826 L284.7412,254.8066 L285.3892,255.1316 L285.7122,255.4556 C286.0212,255.5136 286.3022,255.7956 286.3612,256.1036 L287.0092,255.7796 C287.1592,255.0106 288.0362,255.1056 288.6292,255.1316 L288.9542,255.4556 L289.2782,255.7796 L289.9252,257.0756 L290.2502,257.3996 C290.5242,258.0216 291.3382,256.7706 291.5452,256.4276 L291.8702,256.1036 L292.1942,255.7796 L292.5182,255.4556 L292.8422,255.1316 L293.4902,254.8066 L293.8142,254.4826 L294.7872,254.1596 L294.8682,253.9166 L297.7032,253.8356 L297.7032,253.5116 L297.3792,253.1866 Z" id="Fill-5" fill="#FFFFFF"></path>
            <path d="M137.9412,185.7826 L137.9412,187.0786 L137.9412,188.0506 L137.6172,188.3746 L137.6172,188.6986 L137.2932,189.0226 L135.9962,189.0226 L135.6722,189.0226 L135.3482,188.6986 C134.9652,188.7486 135.0182,188.2646 135.0242,188.0506 L135.0242,187.0786 L135.0242,186.7546 L135.0242,186.4296 L135.3482,186.1056 L135.3482,185.7826 L135.6722,185.4586 L135.9962,185.1346 L137.6172,185.1346 L137.9412,185.4586 L137.9412,185.7826 Z M142.8022,29.2606 L142.8022,28.9366 L142.8022,27.6396 L142.8022,26.9916 L143.1262,26.6676 C143.4332,26.6066 144.0802,26.8596 144.0982,26.3446 L144.7462,26.3446 C144.7642,26.8596 145.4112,26.6066 145.7182,26.6676 L146.0432,26.9916 L146.3662,26.9916 L146.6912,27.3166 C146.9992,27.3746 147.2802,27.6566 147.3382,27.9646 L147.6632,28.2886 L147.6632,28.6126 L147.9872,28.9366 L147.9872,29.2606 L148.3112,29.5846 L148.3112,30.5566 L147.9872,30.8806 L147.6632,31.2046 L147.3382,31.5286 L147.0152,31.8526 L146.6912,31.8526 L145.3942,31.8526 L145.0702,31.8526 L144.7462,31.5286 L144.4222,31.2046 L144.0982,31.2046 L143.7742,30.8806 L143.4502,30.5566 L143.1262,30.2326 L143.1262,29.9086 L142.8022,29.5846 L142.8022,29.2606 Z M162.8932,37.0376 L163.8662,37.0376 L164.1902,37.3626 L164.5142,37.6856 L164.8372,37.6856 L165.1622,38.0106 L165.4862,38.3346 L165.4862,38.6576 L165.8102,38.9826 C166.0272,39.6666 165.2992,39.6996 164.8372,39.6306 L164.5142,39.3066 L164.1902,39.3066 L163.8662,38.9826 L163.5422,38.6576 L163.2172,38.6576 L162.8932,38.3346 L162.5702,38.0106 L162.2462,37.0376 L162.8932,37.0376 Z M297.3792,253.1866 L297.0552,252.8626 L294.7872,250.9186 L294.4622,250.5946 L294.1382,250.2706 L293.8142,249.9466 L293.4902,249.6226 L293.1672,249.2986 L291.8702,249.2986 L291.5452,248.9736 L291.2222,248.9736 L290.8982,248.6496 L290.2502,247.6786 L289.9252,247.3536 L289.6012,247.0296 L289.6012,246.7056 L289.2782,246.3816 L289.2782,246.0576 L288.9542,245.7336 L288.6292,244.7616 C288.2472,244.8116 288.2992,244.3286 288.3052,244.1136 L288.3052,243.1406 C287.7902,243.1226 288.0432,242.4756 287.9812,242.1696 L287.9812,241.5206 C287.5982,241.5706 287.6512,241.0876 287.6572,240.8726 C287.2742,240.9236 287.3272,240.4396 287.3342,240.2246 L287.3342,239.5766 L287.0092,239.2526 C287.0592,238.8696 286.5762,238.9226 286.3612,238.9286 C286.1242,239.4536 284.6542,239.4536 284.4172,238.9286 L284.0922,238.9286 C283.8782,238.9336 283.3942,238.9866 283.4442,238.6036 L283.1212,238.6036 L282.7962,238.2796 L281.8242,237.9566 L281.500203,237.6326 L281.1762,237.6326 L280.8522,237.3076 L280.5282,237.3076 L280.2042,236.9836 L279.8792,236.9836 L279.5552,236.6596 L278.9082,236.3356 L278.5842,236.0116 L277.9352,235.6876 L277.6112,235.3636 C277.1952,235.2076 276.7952,234.8076 276.6392,234.3906 L276.3152,234.0676 L275.9912,233.7436 L275.9912,233.4196 L275.6672,233.0956 L275.6672,232.7706 L275.3432,232.4466 L275.3432,232.1236 L275.0192,231.7996 L275.0192,231.4746 C274.5032,231.4566 274.7562,230.8096 274.6952,230.5026 L274.6952,229.5306 C274.2152,229.5436 274.2152,228.5456 274.6952,228.5576 C274.5402,227.1506 275.8712,226.3336 276.7202,225.3986 L279.5552,225.3176 C279.5052,224.9346 279.9892,224.9876 280.2042,224.9936 L280.8522,224.6696 L281.1762,224.3456 L284.4172,221.4286 L284.7412,221.1046 L285.0652,221.1046 C284.9932,220.6736 285.7852,220.6736 285.7122,221.1046 L287.0092,221.4286 L287.3342,221.1046 L286.6852,219.1606 C286.2062,219.1746 286.2062,218.1756 286.6852,218.1876 L287.0092,217.2166 L287.3342,216.8916 L287.6572,216.5676 L287.9812,216.2436 L288.3052,215.9206 L288.6292,215.9206 L288.9542,215.5956 L289.2782,215.5956 L290.5742,215.2716 L290.5742,214.9476 L290.2502,214.6236 L290.2502,214.2996 C289.8672,214.3496 289.9202,213.8666 289.9252,213.6516 L289.6012,212.6786 L289.2782,212.3546 L288.9542,211.7076 L288.6292,211.3836 L288.3052,211.0586 L287.9812,210.7346 L287.6572,210.4106 L287.0092,210.4106 C286.7952,210.4176 286.3112,210.4696 286.3612,210.0876 C285.8612,209.9806 285.4642,210.1796 285.0652,210.4106 C285.1152,210.7936 284.6312,210.7406 284.4172,210.7346 L282.1482,210.4106 L278.5842,210.4106 C278.3692,210.4176 277.8852,210.4696 277.9352,210.0876 L276.9632,210.0876 L276.6392,209.7626 C276.3312,209.7046 276.0492,209.4236 275.9912,209.1146 L275.6672,208.7906 L275.0192,207.4946 L274.6952,206.1976 L273.0752,206.1976 L272.7512,205.8746 L271.4542,204.9016 C271.5042,205.2846 271.0212,205.2316 270.8062,205.2256 L270.4822,205.2256 L270.1582,205.5506 L269.1862,205.8746 L268.8622,206.1976 L268.5382,206.1976 L268.2132,206.5216 L267.5652,206.8456 L267.2422,207.1706 L266.9182,207.1706 L266.5932,207.4946 L266.2692,207.4946 C266.3192,207.8776 265.8362,207.8246 265.6212,207.8186 L264.9732,208.1416 C265.0232,208.5246 264.5402,208.4716 264.3252,208.4666 L264.0012,208.4666 L263.6762,208.7906 L262.7052,208.7906 C262.7542,209.1736 262.2712,209.1206 262.0562,209.1146 L261.0852,209.1146 C261.0242,209.6186 259.8482,209.6186 259.7882,209.1146 L258.8162,209.1146 C258.6012,209.1206 258.1182,209.1736 258.1682,208.7906 L257.8432,208.7906 L257.5192,208.4666 L256.8722,208.1416 L256.5472,207.8186 L256.2232,207.4946 L255.8992,207.1706 L255.5752,206.8456 L255.2512,206.5216 L255.2512,206.1976 L254.9272,205.8746 L254.6032,205.5506 L254.6032,205.2256 C254.2202,205.2756 254.2732,204.7926 254.2792,204.5776 L254.2792,204.2536 L253.9552,203.9296 L253.9552,203.6056 L253.6302,203.2816 L253.6302,202.9576 L253.3062,202.6336 L252.9832,201.9856 L252.6592,201.6616 L251.8502,201.6616 C251.5792,201.3316 251.0582,201.2466 250.7142,201.0126 C247.9012,200.8706 245.3012,199.3396 243.6662,197.0436 C242.6682,193.7966 240.7412,191.0086 238.9672,188.1316 L237.4272,187.4026 L233.5392,187.0786 C227.7482,184.7676 221.7332,180.3766 219.5232,174.1966 C218.8392,173.1046 217.9912,172.0056 217.9032,170.6326 L217.3362,169.9026 C217.2912,169.3166 217.3082,168.7526 217.6602,168.2826 L216.2832,166.7436 C215.5712,166.4146 214.9232,165.9806 214.3382,165.4476 L200.5662,163.6656 C200.1102,163.3796 199.6072,163.1706 199.2692,162.6926 C199.0902,161.8456 198.6932,161.1126 198.8652,160.1806 C199.1222,158.8396 200.2562,157.9896 201.2132,157.0216 L203.4012,155.9686 C209.3442,155.2956 215.5802,155.7256 221.5482,155.9686 C222.3132,156.4736 223.1362,156.6786 224.0602,156.6976 L226.6532,158.8036 C227.0832,158.4176 227.2402,157.8606 227.4622,157.3456 C230.2872,154.9126 229.6592,150.9876 230.0552,147.6236 C230.3062,147.0026 230.7312,146.5786 231.3512,146.3276 C232.0292,146.1646 232.7012,146.0076 233.2952,145.6796 C233.8552,145.6656 234.2442,145.3686 234.7542,145.1936 C236.3052,142.4906 234.7142,138.9256 236.1312,136.2006 L236.0502,135.6336 C234.7512,134.7576 235.8722,132.5296 237.3462,132.8796 C237.4812,132.3136 237.4812,131.6616 237.3462,131.0966 C236.6312,130.3486 235.9332,129.5746 234.9172,129.3146 C234.3352,128.2966 233.5332,127.4746 233.4582,126.2356 C231.4172,126.2426 229.6882,127.9786 227.3812,127.4506 C225.2002,126.6406 224.3972,124.3136 223.0872,122.6716 L219.6852,121.5366 C214.7012,118.7176 209.8502,115.6936 204.7792,113.1116 L192.4642,102.4176 C191.7582,100.9826 191.4682,99.4726 191.0872,97.9616 L190.7632,97.9616 L190.4392,97.3136 L190.1152,96.9896 L189.7912,96.6656 L188.8192,96.0166 L188.4952,95.6936 C187.9702,95.4326 187.4582,94.9206 187.1982,94.3966 C186.8152,94.4476 186.8682,93.9636 186.8742,93.7486 L186.8742,93.4246 C186.3582,93.4066 186.6122,92.7596 186.5502,92.4526 C186.4532,91.1366 186.9772,89.2796 185.5782,88.5636 L185.2542,88.2396 L183.6332,87.5916 L183.3092,87.2676 L182.9852,86.9436 L182.6622,86.6196 L182.0132,85.6476 L181.6892,85.3236 L181.3652,84.6756 L181.0412,84.3506 L181.0412,84.0266 L180.7172,83.7026 L180.0692,82.0826 C179.6862,82.1326 179.7392,81.6496 179.7452,81.4346 C179.3782,80.0286 178.5762,78.3506 179.4202,76.8976 L179.4202,76.5736 C179.4152,76.3586 179.3622,75.8756 179.7452,75.9256 L181.2842,74.2236 C181.3482,73.7726 181.4402,73.3866 181.6892,73.0086 C181.5732,71.4176 182.6592,69.9506 183.9582,69.1196 L184.2822,68.7956 C184.9162,68.4626 185.4402,67.7876 186.2262,67.8236 L186.5502,67.4996 L187.8462,67.1756 L188.1702,66.8516 L192.0592,65.5556 L192.3832,65.2316 L193.6792,64.9076 L194.0042,64.5836 L194.9752,64.2596 C194.9252,63.8766 195.4092,63.9286 195.6242,63.9346 L196.9202,63.2866 C196.8702,62.9046 197.3532,62.9566 197.5682,62.9626 C198.0912,62.7026 198.6042,62.1906 198.8652,61.6666 L199.1882,61.3426 L199.5122,60.3706 L199.8372,60.0466 L199.8372,59.7216 C199.8312,59.5076 199.7782,59.0236 200.1612,59.0746 L200.2422,58.5076 C200.5712,58.0036 200.9262,57.4576 200.8092,56.8056 C201.4302,55.5966 201.0832,54.0106 201.0512,52.6736 L200.8092,52.5926 L200.4852,52.2686 L199.5122,52.5926 C199.3682,53.1106 198.0372,53.1106 197.8922,52.5926 L196.9202,52.5926 L196.5962,52.2686 L196.2722,52.2686 L195.9482,51.9446 L195.6242,51.6206 L195.2992,51.2966 L194.9752,50.9726 L194.6522,50.6486 L194.3282,50.3246 L194.0042,50.0006 L193.6792,49.6766 L193.3552,49.3526 L193.0312,49.0286 L192.3832,48.0556 L192.0592,47.7316 L191.7352,47.4076 L190.7632,46.1116 L190.4392,45.7876 L188.0892,43.2766 L187.5222,43.1956 L185.5782,42.8706 C184.8042,42.8096 183.9582,42.3216 183.6332,41.5746 L183.3092,41.2506 L183.6332,38.6576 L183.9582,38.3346 L184.2822,37.3626 C184.2752,37.1476 184.2232,36.6636 184.6062,36.7136 L184.6062,34.7696 L184.2822,34.4456 L183.9582,34.1216 L182.3372,34.1216 C182.3872,34.5046 181.9042,34.4516 181.6892,34.4456 L181.0412,34.7696 L180.7172,35.0936 L178.4492,36.7136 L178.1252,37.0376 L177.8002,37.0376 L177.4762,37.3626 C176.4512,37.4356 175.4722,37.3526 174.5602,37.0376 L174.2362,36.7136 L173.5872,36.3896 L173.2632,36.0656 L172.9392,35.7416 L171.9672,35.4176 L170.3472,35.0936 L170.0232,35.0936 L169.9422,35.3366 C168.7302,35.4716 167.4262,35.4716 166.2152,35.3366 L166.1342,35.0936 C165.5342,35.0296 164.7342,34.7586 164.5142,34.1216 L164.1902,33.7976 C164.2962,33.2966 164.0962,32.9006 163.8662,32.5006 L163.5422,32.1776 C163.3852,31.7616 162.9862,31.3616 162.5702,31.2046 L162.2462,30.8806 L161.9212,30.8806 L161.5972,30.5566 L160.9492,30.5566 L160.6262,30.2326 L160.3012,30.2326 L159.9772,29.9086 C159.6692,29.8506 159.3872,29.5686 159.3292,29.2606 L159.0042,28.9366 C158.7832,28.1786 158.6832,27.1436 158.0332,26.6676 L157.7092,26.3446 C156.4182,27.1896 157.7432,29.5566 156.0882,30.2326 C155.7302,30.8786 154.5492,30.4896 153.9012,30.4756 L153.8202,30.2326 C153.3202,30.3386 152.9232,30.1386 152.5242,29.9086 L152.2002,29.5846 C151.5742,29.4526 151.5232,28.7246 151.2272,28.2886 L150.9032,27.9646 L150.9032,27.6396 C150.5202,27.6906 150.5732,27.2066 150.5802,26.9916 L150.2552,25.6956 C149.7392,25.6776 149.9932,25.0306 149.9312,24.7236 C150.0072,23.8506 149.7022,22.8646 150.2552,22.1316 L150.5802,21.8066 L151.5512,21.4826 C151.5702,20.9676 152.2162,21.2206 152.5242,21.1586 L153.8202,21.1586 L156.0882,21.4826 L158.0332,21.4826 L161.5972,21.4826 C162.2062,21.1866 162.9682,20.8996 163.2172,20.1866 L163.5422,19.8626 L163.5422,19.2146 C163.1592,19.2646 163.2122,18.7816 163.2172,18.5666 C162.4562,16.9186 161.1372,15.4516 159.6532,14.3536 L159.3292,14.0296 L157.0602,12.4086 L154.4682,12.4086 L153.4962,12.4086 C153.4772,12.9256 152.8312,12.6716 152.5242,12.7336 L151.5512,12.7336 C151.4912,13.2376 150.3162,13.2376 150.2552,12.7336 L149.2832,12.7336 L148.9592,12.4086 L148.6352,12.4086 L148.3112,12.0856 C147.8392,11.8666 147.2332,11.3896 147.3382,10.7886 C146.8212,10.6436 146.8212,9.3136 147.3382,9.1686 C147.2042,8.0546 148.6202,7.5986 148.6352,6.5756 C148.4202,6.5826 147.9372,6.6346 147.9872,6.2516 C147.3562,5.8866 146.7322,5.2636 146.3662,4.6316 L146.0432,4.3076 C146.0872,3.7216 146.0702,3.1566 145.7182,2.6876 L145.6372,0.4996 L143.1262,2.6876 L142.8022,3.0116 L141.5052,3.9836 L141.1812,4.3076 L140.2092,4.6316 L139.8852,4.9556 L136.9692,4.9556 C136.7542,4.9616 136.2702,5.0146 136.3202,4.6316 L135.9962,4.6316 C135.7812,4.6376 135.2982,4.6906 135.3482,4.3076 L134.3762,3.9836 L134.0522,3.6596 L133.7282,3.6596 C133.5132,3.6656 133.0302,3.7186 133.0802,3.3356 L129.8392,2.3636 C129.6252,2.3696 129.1412,2.4216 129.1912,2.0396 L128.8672,2.0396 C128.9172,2.4226 128.4342,2.3696 128.2192,2.3636 L127.8952,2.6876 C127.5062,4.6776 129.5722,5.3206 130.8122,6.2516 L131.1352,6.5756 L132.1082,7.2246 L132.4322,7.5486 L132.7562,7.8726 C133.1392,7.8226 133.0862,8.3056 133.0802,8.5206 L133.0802,8.8446 L132.7562,9.1686 L132.7562,9.4926 L132.4322,9.8166 L132.1082,10.1406 L131.7842,10.4646 L131.1352,10.4646 C131.1862,10.8476 130.7022,10.7946 130.4872,10.7886 L126.5992,10.7886 L123.7632,10.7076 L123.6822,10.4646 L123.0342,10.4646 L122.9532,10.7076 L117.5252,10.7886 L114.9322,10.4646 C114.7172,10.4706 114.2342,10.5236 114.2842,10.1406 L113.9602,10.1406 L113.6362,9.8166 L113.3122,9.8166 L112.9882,9.4926 L112.6642,9.4926 L112.3402,9.1686 L111.0442,8.8446 L109.0992,8.8446 L108.7752,9.1686 L108.4512,9.4926 L108.1272,9.8166 L107.8032,10.1406 L105.8582,12.7336 L105.5352,13.0576 L105.2112,13.3816 L104.8862,13.7056 C103.9742,14.0196 102.9952,14.1026 101.9702,14.0296 L101.6462,13.7056 L101.3222,13.3816 L100.9982,13.0576 C100.9932,12.3796 101.1132,11.6636 100.6742,11.1136 L100.3502,10.7886 C99.9142,10.6806 99.4622,11.0186 99.3782,11.4366 L99.0532,11.7616 L98.0812,12.4086 L97.7572,12.7336 L97.4332,13.0576 L96.4612,13.3816 C96.5112,13.7636 96.0282,13.7116 95.8132,13.7056 L94.8402,13.7056 C94.4832,14.3506 93.3022,13.9626 92.6532,13.9486 L92.5722,13.7056 C92.2232,13.6726 91.7482,13.8306 91.5192,13.4626 C89.8542,13.4486 89.1872,11.5526 87.7112,11.1136 L87.3872,10.7886 L87.0632,10.7886 L86.7392,10.4646 L86.4152,10.4646 L83.4992,10.4646 L83.1742,10.4646 L82.8502,10.7886 C81.8862,11.1596 81.4892,12.7046 80.2582,12.4086 C80.1132,12.9266 78.7822,12.9266 78.6372,12.4086 L77.0172,11.7616 L76.6932,11.4366 L75.0732,10.1406 L74.7492,9.8166 L74.4252,9.4926 L73.7762,9.1686 L73.4532,8.8446 L73.1292,8.8446 L72.8042,8.5206 L70.2122,7.8726 C69.9972,7.8786 69.5142,7.9306 69.5642,7.5486 C69.2572,7.6096 68.6102,7.3566 68.5912,7.8726 L68.2682,9.4926 L68.2682,10.4646 L67.9432,10.7886 C67.8812,12.4396 65.9792,12.9646 64.7032,13.3816 C64.7532,13.7636 64.2702,13.7116 64.0552,13.7056 L63.4072,13.7056 L63.3262,13.9486 C62.5452,14.0836 61.6752,14.0836 60.8952,13.9486 L60.8142,13.7056 L60.4902,13.7056 L60.1662,13.3816 L59.1942,13.0576 C58.9792,13.0636 58.4962,13.1156 58.5452,12.7336 L58.2222,12.7336 L56.6012,13.0576 L55.9532,13.0576 C56.0032,13.4406 55.5202,13.3876 55.3052,13.3816 L54.0092,14.0296 L53.6852,14.3536 L52.0652,15.0016 L51.7402,15.3256 L50.1202,15.6496 C50.1022,16.1656 49.4552,15.9126 49.1482,15.9736 L48.8242,15.9736 L47.5272,16.2986 L44.6112,16.2986 C44.3042,16.2366 43.6572,16.4896 43.6392,15.9736 L39.1022,16.2986 L38.4542,16.2986 C38.5042,16.6806 38.0212,16.6286 37.8062,16.6216 L37.4822,16.6216 C37.5322,17.0046 37.0482,16.9516 36.8342,16.9466 C36.4182,17.1026 36.0182,17.5026 35.8612,17.9186 L35.5372,18.2426 L35.2132,18.5666 L34.8892,18.8906 L34.5652,19.2146 L33.5932,19.8626 L33.2692,20.1866 L32.6212,20.5106 L32.2962,20.8346 L31.6492,21.1586 C31.6992,21.5416 31.2152,21.4896 31.0012,21.4826 C29.5102,22.0376 27.7692,21.7326 26.1402,21.8066 L25.4912,21.4826 L24.1952,21.4826 C23.9812,21.4896 23.4972,21.5416 23.5472,21.1586 L18.0382,21.1586 C17.7312,21.0976 17.0842,21.3506 17.0662,20.8346 L16.4182,20.8346 C16.2032,20.8416 15.7192,20.8936 15.7702,20.5106 L14.7972,20.5106 L14.4732,20.1866 L14.1492,20.1866 C13.9352,20.1926 13.4512,20.2456 13.5012,19.8626 L13.1772,19.8626 C12.9622,19.8686 12.4792,19.9216 12.5292,19.5386 L11.2332,19.2146 C10.9262,19.1536 10.2782,19.4066 10.2602,18.8906 C9.2352,18.8166 8.2562,18.8996 7.3442,19.2146 L7.0202,19.5386 L6.6962,19.5386 L6.3722,19.8626 L5.7242,20.1866 L5.3992,20.5106 L4.7522,20.8346 L4.4272,21.1586 L3.7792,21.4826 L3.4552,21.8066 C2.4302,21.8806 1.4512,21.7976 0.5392,21.4826 L0.5392,23.7516 C0.3012,24.6436 1.2322,25.1836 1.1872,26.0196 L1.5112,26.3446 L1.5112,26.6676 C1.8942,26.6176 1.8412,27.1006 1.8352,27.3166 L1.8352,29.5846 L2.1592,30.8806 L2.4832,31.2046 L2.8072,31.5286 L3.1312,31.8526 L3.4552,31.8526 L3.7792,32.1776 L5.0762,32.5006 C5.2912,32.4946 5.7742,32.4426 5.7242,32.8246 C7.4532,32.4206 8.1932,34.3266 9.6122,34.7696 L12.4482,34.8506 L12.5292,35.0936 L13.7442,35.4986 C14.1562,37.2396 15.7362,38.2576 16.7422,39.6306 L17.0662,39.9546 L18.6862,41.8986 L19.0102,42.2226 L19.3342,42.8706 L19.6582,43.1956 L19.9832,43.8436 L20.3062,44.1676 L20.3062,46.1116 L20.6302,46.7596 L20.9552,51.2966 C20.7712,52.3236 21.3892,53.1466 21.8462,53.9706 L21.9272,54.5376 L22.2512,54.8616 L22.5752,55.8336 C22.9582,55.7826 22.9052,56.2666 22.8992,56.4816 L23.2232,57.4536 L23.5472,57.7776 L23.8712,58.4266 L24.1952,58.7496 L24.8432,60.0466 L25.1682,60.3706 L25.1682,60.6946 L25.4912,61.0186 L26.7882,63.9346 L27.1122,64.2596 L27.1122,64.5836 C27.6282,64.6016 27.3742,65.2486 27.4362,65.5556 C27.6382,67.0816 27.2112,68.4236 26.7882,69.7676 L26.4632,70.0926 L26.4632,70.4166 C26.4702,70.6316 26.5222,71.1146 26.1402,71.0646 C25.9042,72.6786 28.5232,74.2606 26.8692,75.6816 L26.4632,76.5736 L26.1402,76.8976 L26.1402,77.2216 L25.8162,77.5456 L25.8162,77.8696 L25.4912,78.1936 L25.4912,78.5176 L25.1682,78.8416 C24.7762,79.7966 23.9812,80.6286 24.1952,81.7586 L23.8712,82.0826 L22.5752,84.3506 L22.2512,84.6756 L21.6032,85.6476 L21.2782,85.9706 L20.6302,86.9436 L20.3062,87.2676 L19.9832,87.9156 L19.6582,88.2396 L19.3342,88.5636 L19.0102,88.8876 L18.6862,89.2116 L18.3622,89.5356 L18.0382,89.8596 L17.7142,90.1836 L17.3902,90.5086 L17.0662,91.1566 C17.5662,91.8906 17.7632,93.8406 16.4182,93.7486 L16.0942,94.0726 L15.8512,94.1536 C15.6742,95.1966 14.4052,95.7416 13.5822,95.1256 L11.2332,97.3136 L10.9092,97.6376 L10.4222,97.9616 L9.9372,97.9616 L9.6122,97.6376 L9.3692,97.7186 C9.5302,98.6946 8.7692,99.1956 8.3162,99.9056 L9.0452,100.7976 C10.0582,101.3006 11.6392,101.6506 11.6382,103.0656 C12.9272,104.1446 13.8482,105.4526 14.7162,106.7926 C14.8482,107.1446 14.8482,107.5736 14.7162,107.9266 C13.4252,108.1636 13.3832,109.5446 13.5012,110.5996 C12.8092,111.8576 13.1722,113.5456 11.9622,114.5696 L11.8812,115.4606 C12.2562,115.9066 12.1612,116.4626 12.2862,116.9996 C13.9832,119.1136 15.9592,121.0536 17.1472,123.4816 C18.0642,123.8376 18.9702,124.0446 19.5772,124.9396 C20.1712,126.6156 21.2512,128.5136 20.2252,130.2866 L19.0912,130.4486 L19.0102,131.0156 C20.2852,132.9436 21.5962,134.8466 23.1422,136.6056 L23.2232,138.4696 C21.9822,140.3476 19.0662,138.9416 17.6332,140.6566 C17.1182,140.8796 16.5622,141.0366 16.1752,141.4666 C16.0412,141.9256 16.0412,142.4666 16.1752,142.9256 C18.8222,145.3056 21.8562,147.4876 25.4912,147.5426 L26.2212,148.1106 L27.4362,148.1906 L28.4892,148.7586 C31.5062,149.3776 34.1502,151.0996 36.5902,152.9706 C38.1762,153.7156 39.7062,154.5536 41.1282,155.5636 L43.6392,155.9686 L49.3912,156.0496 L49.4722,156.2926 L52.0652,156.9406 L55.7102,154.4286 C57.6802,153.8066 60.1252,153.7276 61.5432,155.5636 C62.1452,155.8446 62.7012,156.0976 63.4072,155.9686 C64.9332,155.5316 65.9342,152.8416 67.6192,153.6996 C67.9682,153.7336 68.4432,153.5746 68.6722,153.9426 L69.5642,154.0236 C71.3752,152.6536 73.6142,152.7566 75.7212,152.4036 L78.3952,154.5916 C80.4302,154.5646 82.3462,155.2586 83.9032,156.5356 C88.0292,157.8476 90.9942,161.3606 95.0842,162.8546 L96.8662,165.6096 L100.5932,168.3636 C100.6442,168.7896 100.9422,169.0626 101.2412,169.3366 L102.0512,173.3866 C102.8622,175.1146 105.4372,176.0446 104.8862,178.3286 L104.9672,179.2206 L107.7222,179.3826 C108.1392,180.0346 108.1142,180.7406 108.2082,181.4886 L111.4492,183.7576 C112.9522,183.6836 115.2042,184.0306 115.0132,186.0246 C115.6002,187.0646 116.7812,186.9186 117.4442,187.8076 L117.6062,189.2656 C118.5222,190.1386 119.2752,191.1136 119.8742,192.1816 C120.8502,192.7586 121.6522,193.6136 122.4672,194.4506 L123.3582,194.5316 L132.1082,191.9396 L133.3232,192.0196 C133.7882,192.5916 134.3662,192.9766 135.0242,193.2356 C139.6322,193.4916 142.6892,189.4996 145.7992,186.5116 C146.8742,186.1616 148.0282,185.9246 149.2022,186.1866 L151.7952,187.4836 L157.1412,194.4506 C159.2732,196.3726 160.6752,198.8796 160.9222,201.6616 L160.6252,201.6616 C160.8622,202.9816 160.2322,204.0486 159.9772,205.2256 C159.9832,205.4406 160.0362,205.9246 159.6532,205.8746 L159.6532,206.5216 L159.3292,207.8186 L159.3292,209.1146 L159.6532,209.4386 C159.7122,209.7466 159.9932,210.0286 160.3012,210.0876 L160.6252,210.4106 L160.9492,210.4106 C161.1642,210.4046 161.6472,210.3516 161.5972,210.7346 L163.2172,210.4106 L163.5422,210.0876 C163.8502,210.0286 164.1312,209.7466 164.1902,209.4386 L164.5142,209.1146 L164.5142,208.4666 C164.5072,208.2516 164.4552,207.7676 164.8372,207.8186 C165.2402,205.6316 168.0382,206.2836 169.6992,206.1976 L170.0232,206.5216 L170.6712,206.5216 L170.9952,206.8456 L171.6432,207.1706 L171.9672,207.4946 C172.7522,207.9006 173.0692,208.9666 173.2632,209.7626 L173.5872,210.0876 L173.5872,210.7346 C174.1032,210.7536 173.8502,211.3996 173.9122,211.7076 L173.9122,212.6786 C174.4272,212.6976 174.1742,213.3446 174.2362,213.6516 L174.2362,213.9756 L174.5602,214.2996 L174.5602,214.6236 L174.8832,214.9476 C175.0982,214.9416 175.5822,214.8886 175.5322,215.2716 L175.8562,215.2716 L180.6362,215.3526 L180.7172,215.5956 L181.6892,215.5956 L182.0132,215.9206 L182.3372,215.9206 L182.6622,216.2436 L182.9852,216.5676 C183.4012,216.7236 183.8012,217.1246 183.9582,217.5406 L184.2822,217.8646 L184.6062,218.1876 L184.9292,218.8366 L185.2542,219.1606 L185.5782,219.4846 L185.9022,219.8086 L186.2262,220.1336 L187.1982,220.4566 L188.4952,220.4566 L190.7632,219.4846 L191.0872,219.1606 L191.7352,218.8366 L192.0592,218.5116 L192.7082,218.1876 L193.0312,217.8646 L193.6792,217.5406 L194.0042,217.2166 L194.6522,216.8916 L194.9752,216.5676 L195.6242,216.2436 L195.9482,215.9206 L196.2722,215.9206 L196.5962,215.5956 L197.2442,215.5956 L197.8922,215.5956 L198.5412,215.2716 L198.8642,214.9476 L199.1882,214.6236 L200.4852,213.6516 L200.8092,213.3276 L202.4292,212.6786 C202.4472,212.1636 203.0942,212.4166 203.4012,212.3546 L204.0492,212.3546 L204.1302,212.1116 C205.1272,211.9766 206.2132,211.9766 207.2092,212.1116 L207.2902,212.3546 L208.5872,212.3546 L208.9112,212.0316 L209.5582,211.7076 L209.8822,211.3836 L210.2072,211.3836 L210.5312,211.0586 L211.1782,210.7346 L211.5032,210.4106 L212.1512,210.0876 C212.2952,209.5696 213.6272,209.5696 213.7712,210.0876 L214.0952,210.0876 C214.3102,210.0806 214.7942,210.0276 214.7442,210.4106 L217.0112,210.7346 C217.2272,210.7286 217.7112,210.6766 217.6602,211.0586 L217.9842,211.0586 L218.3082,211.3836 L218.6322,211.3836 L218.9572,211.7076 L219.2802,211.7076 L219.6042,212.0316 L220.5772,212.6786 L220.9012,213.0036 C221.2092,213.0616 221.4912,213.3436 221.5482,213.6516 L221.8732,213.9756 L222.1972,217.2166 C222.1352,217.5226 222.3882,218.1706 221.8732,218.1876 L222.1972,222.0776 L222.1972,222.7246 C222.5802,222.6756 222.5272,223.1586 222.5212,223.3736 L222.8452,224.6696 L223.1692,224.9936 L223.1692,225.6416 C223.6862,225.7866 223.6862,227.1176 223.1692,227.2616 L223.1692,227.5866 L222.8452,227.9106 L222.5212,228.5576 L222.1972,228.8826 L221.8732,229.2066 L221.2242,230.1786 L220.9012,230.5026 L219.2802,232.4466 L218.9572,232.7706 L218.6322,233.0956 C218.3172,234.0086 218.2352,234.9866 218.3082,236.0116 L218.6322,236.3356 C218.7172,236.7546 219.1692,237.0926 219.6042,236.9836 L221.2242,237.3076 L221.8732,237.3076 C222.1792,237.3696 222.8272,237.1166 222.8452,237.6326 L223.4932,237.6326 C223.7082,237.6266 224.1912,237.5736 224.1412,237.9566 L224.4652,237.9566 C224.6802,237.9496 225.1642,237.8976 225.1132,238.2796 C225.4212,238.3386 225.7042,238.6206 225.7612,238.9286 L226.0862,239.2526 L226.4102,239.9006 L226.7342,240.2246 L227.3812,241.1966 L227.7062,241.5206 L228.0302,241.8456 L229.6502,243.1406 L229.9742,243.4656 L230.6232,243.7896 L230.9472,244.1136 L231.5942,244.4366 L231.9192,244.7616 L232.2432,244.7616 L232.5672,245.0856 L233.2142,245.0856 L233.5392,245.4096 L233.8632,245.4096 L234.1872,245.7336 L234.8362,245.7336 L235.1592,246.0576 L236.1312,246.3816 L236.4562,246.7056 L236.7802,246.7056 L237.1042,247.0296 L237.4272,247.3536 L238.0762,247.6786 L238.4002,248.0026 L238.7242,248.3256 L239.0482,248.6496 L239.3722,248.9736 L239.6962,249.2986 L239.6962,249.6226 L240.0202,249.9466 L240.0202,250.2706 C240.5362,250.2886 240.2832,250.9356 240.3442,251.2426 C240.3502,251.4576 240.4032,251.9406 240.0202,251.8906 L240.0202,252.8626 L239.6962,253.1866 L239.6962,253.5116 L239.3722,253.8356 L239.0482,254.1596 L238.7242,254.4826 L237.4272,256.1036 L237.1042,256.4276 L236.7802,256.7516 L236.7802,257.0756 L236.4562,257.3996 L236.4562,258.3726 L236.4562,259.6686 L236.4562,260.9646 L236.7802,261.2886 L236.7802,261.6126 L237.1042,261.9366 L237.4272,262.5846 L237.7522,262.9086 L238.0762,263.5566 L238.4002,263.8816 L238.7242,264.2056 L239.3722,265.1776 L239.6962,265.5016 L240.3442,266.4726 L240.6692,266.7976 L240.9932,267.1216 L240.9932,267.4456 L241.3162,267.7696 L241.3162,268.0946 L241.6402,268.4186 L241.9642,269.0656 L242.2892,269.3896 L242.6132,270.0386 L242.9372,270.3626 L242.9372,270.6856 L243.2602,271.0106 L244.2332,273.6026 L244.5572,273.9276 L244.8812,275.2226 C245.2642,275.1736 245.2122,275.6566 245.2052,275.8716 C245.6132,276.8196 245.9412,277.7896 246.1772,278.7876 C246.5602,278.7376 246.5072,279.2206 246.5022,279.4356 C246.8842,279.3866 246.8322,279.8696 246.8262,280.0846 L246.8262,280.4086 C247.2092,280.3576 247.1562,280.8416 247.1502,281.0556 L247.4732,282.3526 L247.7972,282.6766 L247.7972,283.3246 L248.1222,283.6486 L248.4462,284.9446 C248.8292,284.8946 248.7762,285.3786 248.7702,285.5936 L248.7702,285.9176 C249.1532,285.8666 249.1002,286.3496 249.0942,286.5656 L249.0942,286.8886 C249.4772,286.8396 249.4242,287.3226 249.4182,287.5376 L249.4182,287.8616 C249.8002,287.8106 249.7482,288.2946 249.7422,288.5106 L249.7422,288.8336 L250.0662,289.1576 L250.3902,290.1306 L250.7142,290.4546 L250.7142,290.7776 L251.0392,291.1016 L251.3622,291.7506 L251.6862,292.0746 L252.3352,293.3706 L252.6592,293.6946 L252.9832,294.3436 L253.3062,294.6666 L253.6302,294.9906 L253.6302,295.3146 L253.9552,295.6386 L254.2792,295.9636 L254.6032,296.6116 L254.9272,296.9346 L255.2512,297.5836 L255.5752,297.9076 L256.2232,299.5276 C256.6062,299.4776 256.5532,299.9616 256.5472,300.1766 L256.8722,300.5006 L257.1962,300.5006 C257.2132,299.9836 257.8612,300.2376 258.1682,300.1766 L258.4922,300.1766 L258.8162,299.8516 L259.1402,299.5276 L259.4632,299.2036 C260.1562,298.9336 260.4892,297.9126 261.4082,298.2316 C261.3582,297.8486 261.8412,297.9016 262.0562,297.9076 L262.3802,297.5836 L264.9732,295.6386 L265.2972,295.3146 L265.9452,294.9906 L266.2692,294.6666 L266.5932,294.3436 L266.9182,294.3436 L267.2422,294.0186 L267.5652,294.0186 L268.8622,293.6946 L269.5092,293.6946 C269.4602,293.3116 269.9432,293.3646 270.1582,293.3706 L270.4822,293.3706 L270.8062,293.0466 L271.1302,293.0466 C271.0802,292.6636 271.5632,292.7166 271.7782,292.7216 C272.5662,292.2416 273.3962,291.9146 274.3712,292.0746 L274.6952,292.3986 L275.3432,292.3986 C275.5582,292.3916 276.0422,292.3406 275.9912,292.7216 L278.9082,294.0186 L279.2322,294.3436 L279.5552,294.3436 L279.8792,294.3436 L282.7962,294.3436 L283.7682,294.3436 C283.9832,294.3366 284.4662,294.2846 284.4172,294.6666 L285.0652,294.6666 C285.2802,294.6606 285.7632,294.6076 285.7122,294.9906 L286.6852,294.9906 L288.3052,295.3146 L289.6012,295.9636 L289.9252,295.6386 L289.6012,294.9906 C289.2182,295.0416 289.2712,294.5576 289.2782,294.3436 C288.8952,294.3926 288.9472,293.9096 288.9542,293.6946 L288.9542,293.3706 L288.6292,293.0466 L288.6292,292.7216 L288.3052,292.3986 L288.3052,292.0746 L287.9812,291.7506 L287.9812,291.4266 L287.6572,291.1016 L287.6572,290.7776 L287.3342,290.4546 L287.3342,290.1306 L287.0092,289.8056 L286.6852,288.8336 C286.3022,288.8846 286.3552,288.4006 286.3612,288.1856 L286.3612,287.2136 C285.8452,287.1956 286.0982,286.5486 286.0372,286.2416 L286.0372,284.9446 L286.3612,283.6486 L286.3612,282.6766 C286.4222,282.3696 286.1702,281.7216 286.6852,281.7046 C286.7592,281.2746 287.1892,281.0566 287.5762,280.9746 L287.9812,278.4646 C287.9752,278.2496 287.9222,277.7656 288.3052,277.8156 L288.6292,276.1956 L288.3052,275.5476 L287.9812,275.2226 L287.9812,274.8986 L287.7382,274.8176 L287.6572,271.9826 L287.6572,271.0106 C287.1412,270.9926 287.3952,270.3456 287.3342,270.0386 L287.0092,268.7416 C286.6272,268.7926 286.6792,268.3086 286.6852,268.0946 L286.6852,267.7696 L286.6852,266.7976 L286.3612,266.4726 L285.3892,265.8256 L285.0652,265.5016 C284.5952,265.1496 284.0312,265.1326 283.4442,265.1776 C283.1372,265.1156 282.4912,265.3696 282.4722,264.8526 L281.1762,264.5286 L280.8522,264.2056 L280.8522,263.5566 C280.4692,263.6066 280.5222,263.1236 280.5282,262.9086 C280.5782,262.5256 280.0942,262.5786 279.8792,262.5846 L279.5552,262.2616 L279.2322,262.2616 L278.9082,261.9366 L278.5842,261.6126 L278.2592,261.2886 L277.9352,260.9646 L277.6112,259.3446 L277.9352,258.0486 L277.9352,257.0756 C277.9292,256.8606 277.8772,256.3776 278.2592,256.4276 L278.2592,255.7796 L278.5842,255.4556 L278.9082,255.1316 L279.2322,254.8066 L279.5552,254.4826 L281.500203,254.1596 C281.5612,253.6556 282.7362,253.6556 282.7962,254.1596 L283.4442,254.1596 L283.7682,254.4826 L284.4172,254.4826 L284.7412,254.8066 L285.3892,255.1316 L285.7122,255.4556 C286.0212,255.5136 286.3022,255.7956 286.3612,256.1036 L287.0092,255.7796 C287.1592,255.0106 288.0362,255.1056 288.6292,255.1316 L288.9542,255.4556 L289.2782,255.7796 L289.9252,257.0756 L290.2502,257.3996 C290.5242,258.0216 291.3382,256.7706 291.5452,256.4276 L291.8702,256.1036 L292.1942,255.7796 L292.5182,255.4556 L292.8422,255.1316 L293.4902,254.8066 L293.8142,254.4826 L294.7872,254.1596 L294.8682,253.9166 L297.7032,253.8356 L297.7032,253.5116 L297.3792,253.1866 Z" id="Stroke-7" stroke="#E75F52" stroke-linecap="round" stroke-linejoin="round"></path>
        </g>
    </g>
</svg>