<?xml version="1.0" encoding="UTF-8"?>
<svg width="500px" height="15px" viewBox="0 0 500 15" version="1.1" xmlns="http://www.w3.org/2000/svg" xmlns:xlink="http://www.w3.org/1999/xlink">
    <!-- Generator: Sketch 64 (93537) - https://sketch.com -->
    <title>89</title>
    <desc>Created with Sketch.</desc>
    <defs>
        <polygon id="path-1" points="0.7725 0.1605 5.865 0.1605 5.865 5.2535 0.7725 5.2535"></polygon>
        <polygon id="path-3" points="0 0.9066 5.093 0.9066 5.093 6 0 6"></polygon>
        <polygon id="path-5" points="0.127 0.9066 5.22 0.9066 5.22 6 0.127 6"></polygon>
        <polygon id="path-7" points="0.2544 0.9066 5.3474 0.9066 5.3474 6 0.2544 6"></polygon>
        <polygon id="path-9" points="0.3813 0.9066 5.4743 0.9066 5.4743 6 0.3813 6"></polygon>
        <polygon id="path-11" points="0.5083 0.9066 5.6013 0.9066 5.6013 6 0.5083 6"></polygon>
        <polygon id="path-13" points="0.6357 0.9066 5.7287 0.9066 5.7287 6 0.6357 6"></polygon>
        <polygon id="path-15" points="0.7627 0.9066 5.8557 0.9066 5.8557 6 0.7627 6"></polygon>
        <polygon id="path-17" points="0.8901 0.9066 5.9831 0.9066 5.9831 6 0.8901 6"></polygon>
    </defs>
    <g id="89" stroke="none" stroke-width="1" fill="none" fill-rule="evenodd">
        <g id="Group-166" transform="translate(0.000000, 1.000000)">
            <path d="M0,3.5461 C0,2.1401 1.14,1.0001 2.546,1.0001 C3.953,1.0001 5.093,2.1401 5.093,3.5461 C5.093,4.9531 3.953,6.0931 2.546,6.0931 C1.14,6.0931 0,4.9531 0,3.5461" id="Fill-1" fill="#65BDB8"></path>
            <path d="M7.127,3.5461 C7.127,2.1401 8.267,1.0001 9.674,1.0001 C11.08,1.0001 12.22,2.1401 12.22,3.5461 C12.22,4.9531 11.08,6.0931 9.674,6.0931 C8.267,6.0931 7.127,4.9531 7.127,3.5461" id="Fill-3" fill="#65BDB8"></path>
            <path d="M14.2544,3.5461 C14.2544,2.1401 15.3944,1.0001 16.8004,1.0001 C18.2074,1.0001 19.3474,2.1401 19.3474,3.5461 C19.3474,4.9531 18.2074,6.0931 16.8004,6.0931 C15.3944,6.0931 14.2544,4.9531 14.2544,3.5461" id="Fill-5" fill="#65BDB8"></path>
            <path d="M21.3813,3.5461 C21.3813,2.1401 22.5213,1.0001 23.9273,1.0001 C25.3343,1.0001 26.4743,2.1401 26.4743,3.5461 C26.4743,4.9531 25.3343,6.0931 23.9273,6.0931 C22.5213,6.0931 21.3813,4.9531 21.3813,3.5461" id="Fill-7" fill="#65BDB8"></path>
            <path d="M28.5083,3.5461 C28.5083,2.1401 29.6483,1.0001 31.0553,1.0001 C32.4613,1.0001 33.6013,2.1401 33.6013,3.5461 C33.6013,4.9531 32.4613,6.0931 31.0553,6.0931 C29.6483,6.0931 28.5083,4.9531 28.5083,3.5461" id="Fill-9" fill="#65BDB8"></path>
            <path d="M35.6357,3.5461 C35.6357,2.1401 36.7757,1.0001 38.1817,1.0001 C39.5887,1.0001 40.7287,2.1401 40.7287,3.5461 C40.7287,4.9531 39.5887,6.0931 38.1817,6.0931 C36.7757,6.0931 35.6357,4.9531 35.6357,3.5461" id="Fill-11" fill="#65BDB8"></path>
            <path d="M42.7627,3.5461 C42.7627,2.1401 43.9027,1.0001 45.3087,1.0001 C46.7157,1.0001 47.8557,2.1401 47.8557,3.5461 C47.8557,4.9531 46.7157,6.0931 45.3087,6.0931 C43.9027,6.0931 42.7627,4.9531 42.7627,3.5461" id="Fill-13" fill="#65BDB8"></path>
            <path d="M49.8901,3.5461 C49.8901,2.1401 51.0301,1.0001 52.4361,1.0001 C53.8431,1.0001 54.9831,2.1401 54.9831,3.5461 C54.9831,4.9531 53.8431,6.0931 52.4361,6.0931 C51.0301,6.0931 49.8901,4.9531 49.8901,3.5461" id="Fill-15" fill="#65BDB8"></path>
            <path d="M57.0171,3.5461 C57.0171,2.1401 58.1571,1.0001 59.5631,1.0001 C60.9701,1.0001 62.1101,2.1401 62.1101,3.5461 C62.1101,4.9531 60.9701,6.0931 59.5631,6.0931 C58.1571,6.0931 57.0171,4.9531 57.0171,3.5461" id="Fill-17" fill="#65BDB8"></path>
            <path d="M64.144,3.5461 C64.144,2.1401 65.284,1.0001 66.691,1.0001 C68.097,1.0001 69.237,2.1401 69.237,3.5461 C69.237,4.9531 68.097,6.0931 66.691,6.0931 C65.284,6.0931 64.144,4.9531 64.144,3.5461" id="Fill-19" fill="#65BDB8"></path>
            <path d="M71.2715,3.5461 C71.2715,2.1401 72.4115,1.0001 73.8175,1.0001 C75.2245,1.0001 76.3645,2.1401 76.3645,3.5461 C76.3645,4.9531 75.2245,6.0931 73.8175,6.0931 C72.4115,6.0931 71.2715,4.9531 71.2715,3.5461" id="Fill-21" fill="#65BDB8"></path>
            <path d="M78.3984,3.5461 C78.3984,2.1401 79.5384,1.0001 80.9444,1.0001 C82.3514,1.0001 83.4914,2.1401 83.4914,3.5461 C83.4914,4.9531 82.3514,6.0931 80.9444,6.0931 C79.5384,6.0931 78.3984,4.9531 78.3984,3.5461" id="Fill-23" fill="#65BDB8"></path>
            <path d="M85.5254,3.5461 C85.5254,2.1401 86.6654,1.0001 88.0724,1.0001 C89.4784,1.0001 90.6184,2.1401 90.6184,3.5461 C90.6184,4.9531 89.4784,6.0931 88.0724,6.0931 C86.6654,6.0931 85.5254,4.9531 85.5254,3.5461" id="Fill-25" fill="#65BDB8"></path>
            <path d="M92.6528,3.5461 C92.6528,2.1401 93.7928,1.0001 95.1988,1.0001 C96.6058,1.0001 97.7458,2.1401 97.7458,3.5461 C97.7458,4.9531 96.6058,6.0931 95.1988,6.0931 C93.7928,6.0931 92.6528,4.9531 92.6528,3.5461" id="Fill-27" fill="#65BDB8"></path>
            <path d="M99.7798,3.5461 C99.7798,2.1401 100.9198,1.0001 102.3258,1.0001 C103.7328,1.0001 104.8728,2.1401 104.8728,3.5461 C104.8728,4.9531 103.7328,6.0931 102.3258,6.0931 C100.9198,6.0931 99.7798,4.9531 99.7798,3.5461" id="Fill-29" fill="#65BDB8"></path>
            <path d="M106.9072,3.5461 C106.9072,2.1401 108.0472,1.0001 109.4532,1.0001 C110.8602,1.0001 112.0002,2.1401 112.0002,3.5461 C112.0002,4.9531 110.8602,6.0931 109.4532,6.0931 C108.0472,6.0931 106.9072,4.9531 106.9072,3.5461" id="Fill-31" fill="#65BDB8"></path>
            <path d="M114.0342,3.5461 C114.0342,2.1401 115.1742,1.0001 116.5802,1.0001 C117.9872,1.0001 119.1272,2.1401 119.1272,3.5461 C119.1272,4.9531 117.9872,6.0931 116.5802,6.0931 C115.1742,6.0931 114.0342,4.9531 114.0342,3.5461" id="Fill-33" fill="#65BDB8"></path>
            <path d="M121.1611,3.5461 C121.1611,2.1401 122.3011,1.0001 123.7081,1.0001 C125.1141,1.0001 126.2541,2.1401 126.2541,3.5461 C126.2541,4.9531 125.1141,6.0931 123.7081,6.0931 C122.3011,6.0931 121.1611,4.9531 121.1611,3.5461" id="Fill-35" fill="#65BDB8"></path>
            <path d="M128.2886,3.5461 C128.2886,2.1401 129.4286,1.0001 130.8346,1.0001 C132.2416,1.0001 133.3816,2.1401 133.3816,3.5461 C133.3816,4.9531 132.2416,6.0931 130.8346,6.0931 C129.4286,6.0931 128.2886,4.9531 128.2886,3.5461" id="Fill-37" fill="#65BDB8"></path>
            <path d="M135.4155,3.5461 C135.4155,2.1401 136.5555,1.0001 137.9615,1.0001 C139.3685,1.0001 140.5085,2.1401 140.5085,3.5461 C140.5085,4.9531 139.3685,6.0931 137.9615,6.0931 C136.5555,6.0931 135.4155,4.9531 135.4155,3.5461" id="Fill-39" fill="#65BDB8"></path>
            <path d="M142.5425,3.5461 C142.5425,2.1401 143.6825,1.0001 145.0895,1.0001 C146.4955,1.0001 147.6355,2.1401 147.6355,3.5461 C147.6355,4.9531 146.4955,6.0931 145.0895,6.0931 C143.6825,6.0931 142.5425,4.9531 142.5425,3.5461" id="Fill-41" fill="#65BDB8"></path>
            <path d="M149.6699,3.5461 C149.6699,2.1401 150.8099,1.0001 152.2159,1.0001 C153.6229,1.0001 154.7629,2.1401 154.7629,3.5461 C154.7629,4.9531 153.6229,6.0931 152.2159,6.0931 C150.8099,6.0931 149.6699,4.9531 149.6699,3.5461" id="Fill-43" fill="#65BDB8"></path>
            <path d="M156.7969,3.5461 C156.7969,2.1401 157.9369,1.0001 159.3429,1.0001 C160.7499,1.0001 161.8899,2.1401 161.8899,3.5461 C161.8899,4.9531 160.7499,6.0931 159.3429,6.0931 C157.9369,6.0931 156.7969,4.9531 156.7969,3.5461" id="Fill-45" fill="#65BDB8"></path>
            <path d="M163.9238,3.5461 C163.9238,2.1401 165.0638,1.0001 166.4708,1.0001 C167.8768,1.0001 169.0168,2.1401 169.0168,3.5461 C169.0168,4.9531 167.8768,6.0931 166.4708,6.0931 C165.0638,6.0931 163.9238,4.9531 163.9238,3.5461" id="Fill-47" fill="#65BDB8"></path>
            <path d="M171.0513,3.5461 C171.0513,2.1401 172.1913,1.0001 173.5973,1.0001 C175.0043,1.0001 176.1443,2.1401 176.1443,3.5461 C176.1443,4.9531 175.0043,6.0931 173.5973,6.0931 C172.1913,6.0931 171.0513,4.9531 171.0513,3.5461" id="Fill-49" fill="#65BDB8"></path>
            <path d="M178.1782,3.5461 C178.1782,2.1401 179.3182,1.0001 180.7242,1.0001 C182.1312,1.0001 183.2712,2.1401 183.2712,3.5461 C183.2712,4.9531 182.1312,6.0931 180.7242,6.0931 C179.3182,6.0931 178.1782,4.9531 178.1782,3.5461" id="Fill-51" fill="#65BDB8"></path>
            <path d="M185.3057,3.5461 C185.3057,2.1401 186.4457,1.0001 187.8517,1.0001 C189.2587,1.0001 190.3987,2.1401 190.3987,3.5461 C190.3987,4.9531 189.2587,6.0931 187.8517,6.0931 C186.4457,6.0931 185.3057,4.9531 185.3057,3.5461" id="Fill-53" fill="#65BDB8"></path>
            <path d="M192.4326,3.5461 C192.4326,2.1401 193.5726,1.0001 194.9786,1.0001 C196.3856,1.0001 197.5256,2.1401 197.5256,3.5461 C197.5256,4.9531 196.3856,6.0931 194.9786,6.0931 C193.5726,6.0931 192.4326,4.9531 192.4326,3.5461" id="Fill-55" fill="#65BDB8"></path>
            <path d="M199.5596,3.5461 C199.5596,2.1401 200.6996,1.0001 202.1066,1.0001 C203.5126,1.0001 204.6526,2.1401 204.6526,3.5461 C204.6526,4.9531 203.5126,6.0931 202.1066,6.0931 C200.6996,6.0931 199.5596,4.9531 199.5596,3.5461" id="Fill-57" fill="#65BDB8"></path>
            <path d="M206.687,3.5461 C206.687,2.1401 207.827,1.0001 209.233,1.0001 C210.64,1.0001 211.78,2.1401 211.78,3.5461 C211.78,4.9531 210.64,6.0931 209.233,6.0931 C207.827,6.0931 206.687,4.9531 206.687,3.5461" id="Fill-59" fill="#65BDB8"></path>
            <path d="M213.814,3.5461 C213.814,2.1401 214.954,1.0001 216.36,1.0001 C217.767,1.0001 218.907,2.1401 218.907,3.5461 C218.907,4.9531 217.767,6.0931 216.36,6.0931 C214.954,6.0931 213.814,4.9531 213.814,3.5461" id="Fill-61" fill="#65BDB8"></path>
            <path d="M220.9409,3.5461 C220.9409,2.1401 222.0809,1.0001 223.4879,1.0001 C224.8939,1.0001 226.0339,2.1401 226.0339,3.5461 C226.0339,4.9531 224.8939,6.0931 223.4879,6.0931 C222.0809,6.0931 220.9409,4.9531 220.9409,3.5461" id="Fill-63" fill="#65BDB8"></path>
            <path d="M228.0684,3.5461 C228.0684,2.1401 229.2084,1.0001 230.6144,1.0001 C232.0214,1.0001 233.1614,2.1401 233.1614,3.5461 C233.1614,4.9531 232.0214,6.0931 230.6144,6.0931 C229.2084,6.0931 228.0684,4.9531 228.0684,3.5461" id="Fill-65" fill="#65BDB8"></path>
            <path d="M235.1953,3.5461 C235.1953,2.1401 236.3353,1.0001 237.7413,1.0001 C239.1483,1.0001 240.2883,2.1401 240.2883,3.5461 C240.2883,4.9531 239.1483,6.0931 237.7413,6.0931 C236.3353,6.0931 235.1953,4.9531 235.1953,3.5461" id="Fill-67" fill="#65BDB8"></path>
            <path d="M242.3228,3.5461 C242.3228,2.1401 243.4628,1.0001 244.8688,1.0001 C246.2758,1.0001 247.4158,2.1401 247.4158,3.5461 C247.4158,4.9531 246.2758,6.0931 244.8688,6.0931 C243.4628,6.0931 242.3228,4.9531 242.3228,3.5461" id="Fill-69" fill="#65BDB8"></path>
            <path d="M249.4497,3.5461 C249.4497,2.1401 250.5897,1.0001 251.9957,1.0001 C253.4027,1.0001 254.5427,2.1401 254.5427,3.5461 C254.5427,4.9531 253.4027,6.0931 251.9957,6.0931 C250.5897,6.0931 249.4497,4.9531 249.4497,3.5461" id="Fill-71" fill="#65BDB8"></path>
            <path d="M256.5771,3.5461 C256.5771,2.1401 257.7171,1.0001 259.1231,1.0001 C260.5291,1.0001 261.6701,2.1401 261.6701,3.5461 C261.6701,4.9531 260.5291,6.0931 259.1231,6.0931 C257.7171,6.0931 256.5771,4.9531 256.5771,3.5461" id="Fill-73" fill="#65BDB8"></path>
            <path d="M263.7041,3.5461 C263.7041,2.1401 264.8441,1.0001 266.2501,1.0001 C267.6571,1.0001 268.7971,2.1401 268.7971,3.5461 C268.7971,4.9531 267.6571,6.0931 266.2501,6.0931 C264.8441,6.0931 263.7041,4.9531 263.7041,3.5461" id="Fill-75" fill="#65BDB8"></path>
            <path d="M270.8311,3.5461 C270.8311,2.1401 271.9711,1.0001 273.3781,1.0001 C274.7841,1.0001 275.9241,2.1401 275.9241,3.5461 C275.9241,4.9531 274.7841,6.0931 273.3781,6.0931 C271.9711,6.0931 270.8311,4.9531 270.8311,3.5461" id="Fill-77" fill="#65BDB8"></path>
            <path d="M277.958,3.5461 C277.958,2.1401 279.099,1.0001 280.505,1.0001 C281.911,1.0001 283.051,2.1401 283.051,3.5461 C283.051,4.9531 281.911,6.0931 280.505,6.0931 C279.099,6.0931 277.958,4.9531 277.958,3.5461" id="Fill-79" fill="#65BDB8"></path>
            <path d="M285.085,3.5461 C285.085,2.1401 286.226,1.0001 287.632,1.0001 C289.038,1.0001 290.179,2.1401 290.179,3.5461 C290.179,4.9531 289.038,6.0931 287.632,6.0931 C286.226,6.0931 285.085,4.9531 285.085,3.5461" id="Fill-81" fill="#65BDB8"></path>
            <path d="M292.2129,3.5461 C292.2129,2.1401 293.3529,1.0001 294.7589,1.0001 C296.1649,1.0001 297.3059,2.1401 297.3059,3.5461 C297.3059,4.9531 296.1649,6.0931 294.7589,6.0931 C293.3529,6.0931 292.2129,4.9531 292.2129,3.5461" id="Fill-83" fill="#65BDB8"></path>
            <path d="M299.3398,3.5461 C299.3398,2.1401 300.4798,1.0001 301.8858,1.0001 C303.2928,1.0001 304.4328,2.1401 304.4328,3.5461 C304.4328,4.9531 303.2928,6.0931 301.8858,6.0931 C300.4798,6.0931 299.3398,4.9531 299.3398,3.5461" id="Fill-85" fill="#65BDB8"></path>
            <path d="M306.4668,3.5461 C306.4668,2.1401 307.6068,1.0001 309.0138,1.0001 C310.4198,1.0001 311.5598,2.1401 311.5598,3.5461 C311.5598,4.9531 310.4198,6.0931 309.0138,6.0931 C307.6068,6.0931 306.4668,4.9531 306.4668,3.5461" id="Fill-87" fill="#65BDB8"></path>
            <path d="M313.5937,3.5461 C313.5937,2.1401 314.7347,1.0001 316.1407,1.0001 C317.5467,1.0001 318.6867,2.1401 318.6867,3.5461 C318.6867,4.9531 317.5467,6.0931 316.1407,6.0931 C314.7347,6.0931 313.5937,4.9531 313.5937,3.5461" id="Fill-89" fill="#65BDB8"></path>
            <path d="M320.7207,3.5461 C320.7207,2.1401 321.8617,1.0001 323.2677,1.0001 C324.6737,1.0001 325.8147,2.1401 325.8147,3.5461 C325.8147,4.9531 324.6737,6.0931 323.2677,6.0931 C321.8617,6.0931 320.7207,4.9531 320.7207,3.5461" id="Fill-91" fill="#65BDB8"></path>
            <path d="M327.8477,3.5461 C327.8477,2.1401 328.9887,1.0001 330.3947,1.0001 C331.8007,1.0001 332.9417,2.1401 332.9417,3.5461 C332.9417,4.9531 331.8007,6.0931 330.3947,6.0931 C328.9887,6.0931 327.8477,4.9531 327.8477,3.5461" id="Fill-93" fill="#65BDB8"></path>
            <path d="M334.9756,3.5461 C334.9756,2.1401 336.1156,1.0001 337.5216,1.0001 C338.9276,1.0001 340.0686,2.1401 340.0686,3.5461 C340.0686,4.9531 338.9276,6.0931 337.5216,6.0931 C336.1156,6.0931 334.9756,4.9531 334.9756,3.5461" id="Fill-95" fill="#65BDB8"></path>
            <path d="M342.1025,3.5461 C342.1025,2.1401 343.2425,1.0001 344.6485,1.0001 C346.0555,1.0001 347.1955,2.1401 347.1955,3.5461 C347.1955,4.9531 346.0555,6.0931 344.6485,6.0931 C343.2425,6.0931 342.1025,4.9531 342.1025,3.5461" id="Fill-97" fill="#65BDB8"></path>
            <path d="M349.2295,3.5461 C349.2295,2.1401 350.3705,1.0001 351.7765,1.0001 C353.1825,1.0001 354.3225,2.1401 354.3225,3.5461 C354.3225,4.9531 353.1825,6.0931 351.7765,6.0931 C350.3705,6.0931 349.2295,4.9531 349.2295,3.5461" id="Fill-99" fill="#65BDB8"></path>
            <path d="M356.3564,3.5461 C356.3564,2.1401 357.4974,1.0001 358.9034,1.0001 C360.3094,1.0001 361.4494,2.1401 361.4494,3.5461 C361.4494,4.9531 360.3094,6.0931 358.9034,6.0931 C357.4974,6.0931 356.3564,4.9531 356.3564,3.5461" id="Fill-101" fill="#65BDB8"></path>
            <path d="M363.4834,3.5461 C363.4834,2.1401 364.6244,1.0001 366.0304,1.0001 C367.4364,1.0001 368.5774,2.1401 368.5774,3.5461 C368.5774,4.9531 367.4364,6.0931 366.0304,6.0931 C364.6244,6.0931 363.4834,4.9531 363.4834,3.5461" id="Fill-103" fill="#65BDB8"></path>
            <path d="M370.6113,3.5461 C370.6113,2.1401 371.7513,1.0001 373.1573,1.0001 C374.5633,1.0001 375.7043,2.1401 375.7043,3.5461 C375.7043,4.9531 374.5633,6.0931 373.1573,6.0931 C371.7513,6.0931 370.6113,4.9531 370.6113,3.5461" id="Fill-105" fill="#65BDB8"></path>
            <path d="M377.7383,3.5461 C377.7383,2.1401 378.8783,1.0001 380.2843,1.0001 C381.6913,1.0001 382.8313,2.1401 382.8313,3.5461 C382.8313,4.9531 381.6913,6.0931 380.2843,6.0931 C378.8783,6.0931 377.7383,4.9531 377.7383,3.5461" id="Fill-107" fill="#65BDB8"></path>
            <path d="M384.8652,3.5461 C384.8652,2.1401 386.0052,1.0001 387.4122,1.0001 C388.8182,1.0001 389.9582,2.1401 389.9582,3.5461 C389.9582,4.9531 388.8182,6.0931 387.4122,6.0931 C386.0052,6.0931 384.8652,4.9531 384.8652,3.5461" id="Fill-109" fill="#65BDB8"></path>
            <path d="M391.9922,3.5461 C391.9922,2.1401 393.1332,1.0001 394.5392,1.0001 C395.9452,1.0001 397.0852,2.1401 397.0852,3.5461 C397.0852,4.9531 395.9452,6.0931 394.5392,6.0931 C393.1332,6.0931 391.9922,4.9531 391.9922,3.5461" id="Fill-111" fill="#65BDB8"></path>
            <path d="M399.1191,3.5461 C399.1191,2.1401 400.2601,1.0001 401.6661,1.0001 C403.0721,1.0001 404.2131,2.1401 404.2131,3.5461 C404.2131,4.9531 403.0721,6.0931 401.6661,6.0931 C400.2601,6.0931 399.1191,4.9531 399.1191,3.5461" id="Fill-113" fill="#65BDB8"></path>
            <path d="M406.2471,3.5461 C406.2471,2.1401 407.3871,1.0001 408.7931,1.0001 C410.1991,1.0001 411.3401,2.1401 411.3401,3.5461 C411.3401,4.9531 410.1991,6.0931 408.7931,6.0931 C407.3871,6.0931 406.2471,4.9531 406.2471,3.5461" id="Fill-115" fill="#65BDB8"></path>
            <path d="M413.374,3.5461 C413.374,2.1401 414.514,1.0001 415.92,1.0001 C417.326,1.0001 418.467,2.1401 418.467,3.5461 C418.467,4.9531 417.326,6.0931 415.92,6.0931 C414.514,6.0931 413.374,4.9531 413.374,3.5461" id="Fill-117" fill="#65BDB8"></path>
            <path d="M420.501,3.5461 C420.501,2.1401 421.641,1.0001 423.048,1.0001 C424.454,1.0001 425.594,2.1401 425.594,3.5461 C425.594,4.9531 424.454,6.0931 423.048,6.0931 C421.641,6.0931 420.501,4.9531 420.501,3.5461" id="Fill-119" fill="#65BDB8"></path>
            <path d="M427.6279,3.5461 C427.6279,2.1401 428.7689,1.0001 430.1749,1.0001 C431.5809,1.0001 432.7209,2.1401 432.7209,3.5461 C432.7209,4.9531 431.5809,6.0931 430.1749,6.0931 C428.7689,6.0931 427.6279,4.9531 427.6279,3.5461" id="Fill-121" fill="#65BDB8"></path>
            <path d="M434.7549,3.5461 C434.7549,2.1401 435.8959,1.0001 437.3019,1.0001 C438.7079,1.0001 439.8489,2.1401 439.8489,3.5461 C439.8489,4.9531 438.7079,6.0931 437.3019,6.0931 C435.8959,6.0931 434.7549,4.9531 434.7549,3.5461" id="Fill-123" fill="#65BDB8"></path>
            <path d="M441.8818,3.5461 C441.8818,2.1401 443.0228,1.0001 444.4288,1.0001 C445.8348,1.0001 446.9758,2.1401 446.9758,3.5461 C446.9758,4.9531 445.8348,6.0931 444.4288,6.0931 C443.0228,6.0931 441.8818,4.9531 441.8818,3.5461" id="Fill-125" fill="#65BDB8"></path>
            <path d="M449.0098,3.5461 C449.0098,2.1401 450.1498,1.0001 451.5558,1.0001 C452.9618,1.0001 454.1028,2.1401 454.1028,3.5461 C454.1028,4.9531 452.9618,6.0931 451.5558,6.0931 C450.1498,6.0931 449.0098,4.9531 449.0098,3.5461" id="Fill-127" fill="#65BDB8"></path>
            <path d="M456.1367,3.5461 C456.1367,2.1401 457.2767,1.0001 458.6827,1.0001 C460.0897,1.0001 461.2297,2.1401 461.2297,3.5461 C461.2297,4.9531 460.0897,6.0931 458.6827,6.0931 C457.2767,6.0931 456.1367,4.9531 456.1367,3.5461" id="Fill-129" fill="#65BDB8"></path>
            <path d="M463.2637,3.5461 C463.2637,2.1401 464.4037,1.0001 465.8107,1.0001 C467.2167,1.0001 468.3567,2.1401 468.3567,3.5461 C468.3567,4.9531 467.2167,6.0931 465.8107,6.0931 C464.4037,6.0931 463.2637,4.9531 463.2637,3.5461" id="Fill-131" fill="#65BDB8"></path>
            <path d="M470.3906,3.5461 C470.3906,2.1401 471.5316,1.0001 472.9376,1.0001 C474.3436,1.0001 475.4836,2.1401 475.4836,3.5461 C475.4836,4.9531 474.3436,6.0931 472.9376,6.0931 C471.5316,6.0931 470.3906,4.9531 470.3906,3.5461" id="Fill-133" fill="#65BDB8"></path>
            <path d="M477.5176,3.5461 C477.5176,2.1401 478.6586,1.0001 480.0646,1.0001 C481.4706,1.0001 482.6116,2.1401 482.6116,3.5461 C482.6116,4.9531 481.4706,6.0931 480.0646,6.0931 C478.6586,6.0931 477.5176,4.9531 477.5176,3.5461" id="Fill-135" fill="#65BDB8"></path>
            <path d="M484.6455,3.5461 C484.6455,2.1401 485.7855,1.0001 487.1915,1.0001 C488.5975,1.0001 489.7385,2.1401 489.7385,3.5461 C489.7385,4.9531 488.5975,6.0931 487.1915,6.0931 C485.7855,6.0931 484.6455,4.9531 484.6455,3.5461" id="Fill-137" fill="#65BDB8"></path>
            <g id="Group-141" transform="translate(491.000000, 0.839600)">
                <mask id="mask-2" fill="white">
                    <use xlink:href="#path-1"></use>
                </mask>
                <g id="Clip-140"></g>
                <path d="M0.7725,2.7065 C0.7725,1.3005 1.9125,0.1605 3.3185,0.1605 C4.7255,0.1605 5.8655,1.3005 5.8655,2.7065 C5.8655,4.1135 4.7255,5.2535 3.3185,5.2535 C1.9125,5.2535 0.7725,4.1135 0.7725,2.7065" id="Fill-139" fill="#65BDB8" mask="url(#mask-2)"></path>
            </g>
            <g id="Group-144" transform="translate(0.000000, 6.839600)">
                <mask id="mask-4" fill="white">
                    <use xlink:href="#path-3"></use>
                </mask>
                <g id="Clip-143"></g>
                <path d="M0,3.4536 C0,2.0476 1.14,0.9066 2.546,0.9066 C3.953,0.9066 5.093,2.0476 5.093,3.4536 C5.093,4.8596 3.953,6.0006 2.546,6.0006 C1.14,6.0006 0,4.8596 0,3.4536" id="Fill-142" fill="#65BDB8" mask="url(#mask-4)"></path>
            </g>
            <g id="Group-147" transform="translate(7.000000, 6.839600)">
                <mask id="mask-6" fill="white">
                    <use xlink:href="#path-5"></use>
                </mask>
                <g id="Clip-146"></g>
                <path d="M0.127,3.4536 C0.127,2.0476 1.267,0.9066 2.674,0.9066 C4.08,0.9066 5.22,2.0476 5.22,3.4536 C5.22,4.8596 4.08,6.0006 2.674,6.0006 C1.267,6.0006 0.127,4.8596 0.127,3.4536" id="Fill-145" fill="#65BDB8" mask="url(#mask-6)"></path>
            </g>
            <g id="Group-150" transform="translate(14.000000, 6.839600)">
                <mask id="mask-8" fill="white">
                    <use xlink:href="#path-7"></use>
                </mask>
                <g id="Clip-149"></g>
                <path d="M0.2544,3.4536 C0.2544,2.0476 1.3944,0.9066 2.8004,0.9066 C4.2074,0.9066 5.3474,2.0476 5.3474,3.4536 C5.3474,4.8596 4.2074,6.0006 2.8004,6.0006 C1.3944,6.0006 0.2544,4.8596 0.2544,3.4536" id="Fill-148" fill="#65BDB8" mask="url(#mask-8)"></path>
            </g>
            <g id="Group-153" transform="translate(21.000000, 6.839600)">
                <mask id="mask-10" fill="white">
                    <use xlink:href="#path-9"></use>
                </mask>
                <g id="Clip-152"></g>
                <path d="M0.3813,3.4536 C0.3813,2.0476 1.5213,0.9066 2.9273,0.9066 C4.3343,0.9066 5.4743,2.0476 5.4743,3.4536 C5.4743,4.8596 4.3343,6.0006 2.9273,6.0006 C1.5213,6.0006 0.3813,4.8596 0.3813,3.4536" id="Fill-151" fill="#65BDB8" mask="url(#mask-10)"></path>
            </g>
            <g id="Group-156" transform="translate(28.000000, 6.839600)">
                <mask id="mask-12" fill="white">
                    <use xlink:href="#path-11"></use>
                </mask>
                <g id="Clip-155"></g>
                <path d="M0.5083,3.4536 C0.5083,2.0476 1.6483,0.9066 3.0553,0.9066 C4.4613,0.9066 5.6013,2.0476 5.6013,3.4536 C5.6013,4.8596 4.4613,6.0006 3.0553,6.0006 C1.6483,6.0006 0.5083,4.8596 0.5083,3.4536" id="Fill-154" fill="#65BDB8" mask="url(#mask-12)"></path>
            </g>
            <g id="Group-159" transform="translate(35.000000, 6.839600)">
                <mask id="mask-14" fill="white">
                    <use xlink:href="#path-13"></use>
                </mask>
                <g id="Clip-158"></g>
                <path d="M0.6357,3.4536 C0.6357,2.0476 1.7757,0.9066 3.1817,0.9066 C4.5887,0.9066 5.7287,2.0476 5.7287,3.4536 C5.7287,4.8596 4.5887,6.0006 3.1817,6.0006 C1.7757,6.0006 0.6357,4.8596 0.6357,3.4536" id="Fill-157" fill="#65BDB8" mask="url(#mask-14)"></path>
            </g>
            <g id="Group-162" transform="translate(42.000000, 6.839600)">
                <mask id="mask-16" fill="white">
                    <use xlink:href="#path-15"></use>
                </mask>
                <g id="Clip-161"></g>
                <path d="M0.7627,3.4536 C0.7627,2.0476 1.9027,0.9066 3.3087,0.9066 C4.7157,0.9066 5.8557,2.0476 5.8557,3.4536 C5.8557,4.8596 4.7157,6.0006 3.3087,6.0006 C1.9027,6.0006 0.7627,4.8596 0.7627,3.4536" id="Fill-160" fill="#65BDB8" mask="url(#mask-16)"></path>
            </g>
            <g id="Group-165" transform="translate(49.000000, 6.839600)">
                <mask id="mask-18" fill="white">
                    <use xlink:href="#path-17"></use>
                </mask>
                <g id="Clip-164"></g>
                <path d="M0.8901,3.4536 C0.8901,2.0476 2.0301,0.9066 3.4361,0.9066 C4.8431,0.9066 5.9831,2.0476 5.9831,3.4536 C5.9831,4.8596 4.8431,6.0006 3.4361,6.0006 C2.0301,6.0006 0.8901,4.8596 0.8901,3.4536" id="Fill-163" fill="#65BDB8" mask="url(#mask-18)"></path>
            </g>
        </g>
    </g>
</svg>