<?xml version="1.0" encoding="UTF-8"?>
<svg width="500px" height="400px" viewBox="0 0 500 400" version="1.1" xmlns="http://www.w3.org/2000/svg" xmlns:xlink="http://www.w3.org/1999/xlink">
    <!-- Generator: Sketch 64 (93537) - https://sketch.com -->
    <title>latin-america</title>
    <desc>Created with Sketch.</desc>
    <g id="latin-america" stroke="none" stroke-width="1" fill="none" fill-rule="evenodd">
        <g id="Group-3" transform="translate(128.000000, 0.000000)" fill="#FFFFFF" fill-rule="nonzero" stroke="#E6E7E7">
            <polygon id="Shape" points="12.4633068 43.64 13.5576607 43.71968 14.5681445 44.52032 15.4098775 44.04032 16 44.67968 15.7473791 45.8 12.294556 47.72 11.8731843 49.95968 10.3574586 51.32 8.3364911 53 6.40040419 51.87968 4.21068587 51.8 1.85322723 51.8 0.168750789 50.48 1.05292409 49.88 0.0424403183 48.32 0 46.28 1.05292409 43.4 6.48427435 42.32 6.61058482 41.48 4.71592775 39.56 4.96854869 35.31968 12.547177 35"></polygon>
            <polygon id="Shape" points="15.021148 40.5757576 13.6777442 41.5454545 12.9224572 42.7575758 12 43 12.0835851 34.2727273 13.2165156 34.030303 14.3494461 32.4545455 15.6082578 32.0909091 16.1117825 31 18 31.8484848 16.4471299 32.5757576 16.3635448 35.0804848 16.0281974 38.0710303"></polygon>
            <polygon id="Shape" points="37 47.9410602 33.9971169 49.4233783 32.3734367 49.6704313 30.344567 48.8472507 29.2887365 50.0825157 27.9903767 50.9056963 26.7728601 52.0589398 26.2050103 52.470036 25.1491799 52.1409614 24.0134803 53.5412579 21.9027935 54.6114915 21.6592901 56.1758312 19.6304204 57 19.8739237 55.8467565 18.8180933 54.7765229 18.1694004 53.458248 16.6265633 53.211195 15.2473604 52.964142 13.2175167 51.8118868 12 50.4936119 12.2435033 48.4351662 15.7343671 46.2116891 15.8152102 45.3054987 17.7632368 44.8113927 18.7372502 43.8231806 20.6852768 44.8944025 22.7141466 43.988212 25.3926832 43.5761276 27.0972065 43 28.0712199 43.9061904 31.7237698 44.0702336 33.9971169 45.7175831 32.7796003 46.4587421 34.3214634 47.1999012 34.80847 46.1296675 36.6756536 46.3767205"></polygon>
            <polygon id="Shape" points="9.60988508 53.6715616 11.8980982 54.3882521 12.660836 55.9097421 15.0344757 56 16.5599512 55.6411175 18 54.6568768 17.5769348 53.2234957 14.5259839 52.6862464 12.5764263 51.7020057 11.1353605 50 8 52.9548711"></polygon>
            <polygon id="Shape" points="26.1029436 64.3707444 27.7980412 64.0452842 29.6548996 64.5339632 30.7039229 64.5339632 32.8029382 65.9179019 34.7401926 66 34.3362751 64.6962046 34.4166712 61.764131 35.3852984 59.7282945 34.9009848 57.6924581 35.7088199 58.0179182 35.7088199 53.7830266 36.5960824 52.0726503 37 49.791497 36.5156864 48 33.5294086 49.4660368 31.914707 49.7103763 30.1392133 48.8141391 29.3313781 50.1990552 27.5558844 50.9320736 25.7803907 52.4792311 24.9725556 52.153771 23.6009794 53.5386871 21.5019642 54.8415051 21.3402034 56.4707607 19.2421568 56.9594396 19 57.61036 20.8558898 59.4028343 22.3088307 61.0311126 23.5196147 62.334908 24.3274498 63.637726"></polygon>
            <polygon id="Shape" points="40 71.2316618 39.1255966 71.8677581 39.2840584 74.0135103 38.409655 76 37.2956498 74.5694985 36.1816446 74.6486529 36.658939 75.6824287 34.9884086 75.2847493 34.9091777 73.5366765 33.2386472 72.3445919 31.8067639 71.4700787 30.2956498 69.8011603 29.4202918 69.7220059 29.341061 70.7548279 27.3516978 69.5627434 26 67.9729794 26.2386472 66.5424779 26.3178781 65.4305015 26.1584617 64.2384169 28.2270558 64 29.9768171 64.7152507 31.0908223 64.4768338 33.1594163 65.5888103 35.068594 65.9073353 36.4202918 68.7683382 37.7729442 69.8803147"></polygon>
            <path d="M59.4426392,81 L61.3398763,80.1599435 L62,78.0592981 L61.8347216,75.9576442 L60.9271753,74.6970553 L59.3604948,73.1006454 L58.7003711,72.0921743 L57.1336907,71.8400565 L55.4838763,71.5042356 L54.4120412,71.5042356 L53.5876289,71 L51.3608247,71 L50.9481237,72.0084712 L49.3814433,72.6801129 L47.9790515,73.0169423 L46.3292371,73.8569988 C46.3292371,73.8569988 45.5038351,74.4449375 45.3395464,74.1928197 C45.1752577,73.9407019 44.0202887,73.1843485 44.0202887,73.1843485 L42.6178969,72.7648245 L42.2061856,73.6885841 L40.9690722,73.2690601 L40.8859381,72.1758774 L39.8962474,71.2521178 L38.742268,71.7563534 L38.9065567,74.0254135 L38,76.1260589 L39.3192577,76.7987092 L41.7934845,76.8824123 L43.2780206,77.3866478 L43.8550103,77.8071803 L43.2780206,78.8993546 L43.443299,80.6641791 L44.185567,79.1514724 L46.2470928,79.3198871 L46.6597938,81 L48.6391753,80.8325938 L49.958433,79.6557079 L50.0405773,78.2267043 L50.288,76.7987092 L51.3608247,75.6218233 L51.5251134,74.4449375 L53.2570722,73.8569988 L54.3298969,72.9322307 L54.8247423,73.7732957 L55.6491546,74.6133522 L56.8041237,75.5381202 C56.8041237,75.5381202 56.556701,76.1260589 57.1336907,76.1260589 C57.7106804,76.1260589 58.3708041,75.9576442 58.3708041,75.9576442 L58.5360825,76.5465914 L57.4632577,77.6387656 L57.4632577,79.0677693 L58.7835052,80.4120613 L59.4426392,81 Z" id="Shape"></path>
            <path d="M61.7774476,83.0546548 L61.9428571,88.6186437 L61.2822095,90.582289 L62.2726857,94.8365265 L63.593981,95.8183492 L62.2726857,98.1089414 L60.1273143,99.7456398 L56,101.054409 L56,104.9817 L59.1368381,107.927168 L61.7774476,109.890813 L63.7584,111.691476 L69.0416,111.0366 L71.5177905,111.527511 L71.847619,112.509334 L74.8190476,113.982068 L76.6345905,117.0915 L79.110781,118.727217 L80.5964952,121.345738 L81.0917333,122.654508 L86.2095238,122.654508 L88.6857143,122.327561 L90.9964952,122.818472 L93.4726857,124.782117 L91.8225524,127.727585 L93.1428571,130.018177 L93.9679238,131 L94.793981,128.709408 L97.2701714,117.745394 L95.4536381,114.963891 L94.2987429,112.34537 L94.4631619,110.545689 L97.6,109.890813 L97.7654095,108.418079 L95.1238095,107.10931 L95.4536381,105.472611 L100.736838,104.9817 L101.727314,103.999877 L103.213029,104.9817 L104.698743,103.836895 L107.009524,107.927168 L108,107.10931 L104.698743,101.218374 L103.377448,100.072587 L104.863162,98.1089414 L103.542857,93.5277569 L105.193981,85.5092114 L99.910781,85.1822645 L96.1142857,85.5092114 L93.4726857,81.7458852 L84.393981,81.2549739 L83.0726857,77.1637189 L81.752381,74.5451979 L79.9368381,74.218251 L81.5869714,71.2727831 L81.4225524,66.6906168 L85.3844571,64.0730776 L85.5488762,61.7815036 L88.0250667,61.2905922 L88.6857143,59.8178583 L86.8701714,59 L84.393981,59.1639644 L83.5679238,61.2905922 L82.9082667,63.091255 L78.6155429,64.0730776 L76.4701714,64.2360602 L74.9844571,64.5639889 L71.352381,64.8909359 L70.0320762,67.5094569 L71.352381,68.9821908 L69.7012571,70.2909604 C69.7012571,70.2909604 70.3609143,71.7636944 69.7012571,71.7636944 C69.0416,71.7636944 67.2250667,72.0906413 67.2250667,72.0906413 L65.7393524,75.0361093 L64.7488762,75.5270206 L64.7488762,77.3276833 L63.593981,77.9815772 L62.9333333,75.8549493 L62.4380952,75.8549493 L61.9428571,77.4906659 L61.6130286,79.4543112 L59.5488762,80.9270451 L61.7774476,83.0546548 Z" id="Shape"></path>
            <path d="M90.842297,131.106667 L87.4163359,132.259259 L83.6644189,132.917037 L81.2173038,135.057284 L80.2384578,139.007901 L79.2596117,141.805926 L77.4653869,143.452346 L76.9759639,145.921481 L78.933656,149.70716 L81.0538365,152.012346 L80.4019251,153.822716 L83.0115286,154.645432 L84.643265,156.45679 L89.0480722,155.633086 L90.0269183,153 L91.3317201,158.26716 L96.2259503,158.26716 L99,162.711605 L98.510577,167.978765 L98.510577,172.094321 L97.3682636,175.716049 L96.8788406,179.830617 L97.6942194,182.464691 L97.6942194,184.768889 L96.3894176,187.89679 L94.7576812,189.378272 L94.5951928,191.188642 L92.1480777,193 L91.8211431,191.35358 L86.6009571,185.592593 L83.0115286,183.452346 L78.444233,181.148148 C78.444233,181.148148 73.8749796,179.17284 73.7124912,178.679012 C73.5500027,178.185185 66.5346131,171.435556 66.5346131,171.435556 L67.6769264,170.61284 L66.2086573,168.472593 L62.9451846,161.888889 L59.356735,156.45679 L57.3990429,152.670123 L56.7461526,149.049383 L55.1144162,145.098765 L51.199032,140.818272 L46.7942248,139.007901 L45.978846,136.373827 L46.9576921,135.551111 L45,132.42321 L45,129.131358 L48.1000054,127.814815 L50.3836533,126.497284 L50.8730763,128.637531 L49.730763,130.61284 L50.709609,132.259259 L52.1778781,132.259259 L53.4836587,133.081975 L56.5826853,133.740741 L58.7038447,131.600494 L58.867312,127.649877 L61.4769155,125.839506 L65.3922997,123.864198 L67.6769264,121.065185 L70.4499973,119.254815 L70.775953,116.950617 L71.9182664,116.291852 L70.775953,114.151605 L72.7336451,113 L75.0182718,114.481481 L76.6490293,116.950617 L79.2596117,118.925926 L81.0538365,122.546667 L86.6009571,122.546667 L88.5586492,122.217778 L90.842297,122.711605 L93.2894121,124.686914 L91.6586546,127.649877 L93.7788352,130.941728 L90.842297,131.106667 Z" id="Shape"></path>
            <polygon id="Shape" points="56.3265306 106 54.0401633 107.636772 51.5911837 109.110456 50.1217959 109.438596 50.1217959 113.695579 48.1626122 117.298246 48 121.22807 49.3057959 123.684211 51.4285714 122.210526 52.2445714 124.011368 50.2853878 126.794667 50.7751837 128.923649 49.632 130.888561 50.2853878 132.198175 51.9183673 132.035088 54.0401633 133.508772 56.4891429 134 58.6119184 131.871018 58.7755102 127.941193 61.387102 125.812211 64.8156735 124.175439 67.5918367 121.391158 70.8568163 119.263158 70.6932245 116.970105 71.8364082 116.642947 70.6932245 114.513965 72 113.368421 71.5102041 111.730667 69.0612245 111.239439 63.8360816 111.894737 61.876898 110.092912 59.4279184 108.45614"></polygon>
            <path d="M88.8448276,64.2456082 L91.6289828,63.918065 L95.0686379,63.0977318 L92.6117414,61.2947691 L93.4303793,59 L96.0513966,60.4754195 C96.0513966,60.4754195 95.5600172,62.1141188 96.0513966,62.1141188 C96.5427759,62.1141188 99.1637931,62.934452 99.1637931,62.934452 L100.47381,64.5731513 L101.783828,66.8689041 L107.8445,67.0321838 L109.482759,66.7046407 L113.413793,68.8361301 L118.490724,68.5076033 L118.327586,66.8689041 L122.585879,66.8689041 L127.335552,66.5403773 L125.370034,68.0157968 L126.189655,70.6390927 L127.172414,69.8197431 L130.775207,71.6227057 L132.904845,73.9174749 L134.870362,74.2460016 L136.671759,75.8847009 L137,77.5243838 L134.543103,79.3273464 L134.214862,81.4588358 L135.525862,81.7863789 L134.870362,82.9342553 L130.447948,84.2454114 L130.775207,85.3932878 L131.430707,88.1798635 L133.232103,90.3113529 L133.396224,91.7867724 L130.447948,93.589735 L126.025534,95.0651545 L123.077259,96.2130309 L120.128983,95.3936813 L117.836207,95.0651545 L118.490724,96.2130309 L118.818966,98.3445203 L118.654845,101.131096 L122.0945,102.114709 L121.275862,104.081935 L119.473483,104.573741 L118.327586,106.705231 L114.72381,107.032774 L112.266914,109 L108.991379,109 L107.8445,107.032774 L104.568966,101.131096 L103.257966,99.9832196 L104.732103,98.0159935 L103.422086,93.4264553 L104.568966,85.2290245 L99.8183103,85.0657447 L96.0513966,85.3932878 L93.4303793,81.6230992 L84.4224138,81.1312927 L82.6200345,76.5407708 L81.8013966,74.4092814 L80,74.0817382 L81.6372759,71.1308992 L81.4741379,66.5403773 L85.4051724,63.918065 L88.8448276,64.2456082 Z" id="Shape"></path>
            <polygon id="Shape" points="135.741949 90.6134286 136.398537 94.057873 138.531711 95.042 137.055126 96.5181905 135.414147 98.9785079 137.055126 101.603175 138.202925 102.422952 138.202925 105.047619 142.30488 108 146.242441 104.227841 148.86781 103.571429 151 104.391206 149.031219 101.438825 148.046829 97.6666667 146.242441 96.8468889 144.765856 94.3865714 145.750246 91.1054921 148.703417 88.8095238 148.86781 86.3492063 146.242441 83.7245397 143.28927 81.9206349 141.977078 82.5770476 141.648291 80.1167302 140.663901 78.3118413 138.039516 77 136.562931 77.4920635 134.101955 79.2959683 133.773168 81.4285714 134.921952 82.2483492 134.429757 82.9047619 130 84.2166032 130.98439 88.4818095 132.788778 90.2857143"></polygon>
            <path d="M154.333,104.837015 C154.333,104.837015 153.666,103.036328 154.333,103.036328 C155,103.036328 158.167,101.727541 158.167,101.727541 L161.5,99.9278351 L162,97.1453117 L159.833,94.3637703 L160.333,91.7452135 L161.667,88.6367207 L158.833,87.3269514 L156.167,87.1639666 L153.667,87.6548846 L149.167,87 L149,89.4545901 L146,92.0731468 L145,95.0186549 L146.5,97.473245 L148.5,98.7820324 L149.333,102.054492 L151.333,105 L154.333,104.837015 Z" id="Shape"></path>
            <polygon id="Shape" points="160.386472 104 163.090822 103.836405 165.477294 104 166.909178 100.571359 168.658939 97.1427172 172 94.2038817 171.204827 91.9184473 169.613528 91.7548521 166.749761 89.6320333 163.250239 88.1626156 161.341061 88 160.067639 91.1014511 159.590345 93.7140758 161.818355 96.8165065 161.181645 99.265536 158 101.061165"></polygon>
            <path d="M97.0232983,157.507246 L101.208565,159.724638 L101.947141,157.26087 L108.101944,155.782609 L111.794826,155.782609 L114.010555,159.231884 L118.688206,164.405797 L124.104433,165.144928 L130.259236,169.826087 L134.19831,170.811594 L134.936886,177.463768 L134.19831,178.695652 L138.137384,182.884058 L143.061227,182.391304 L144.292187,187.072464 L146.754109,189.289855 L146.507916,198.15942 L144.784572,199.637681 L145.523148,208.507246 L154.632257,208.753623 L156.601794,215.898551 L161.279444,215.405797 L159.802292,223.289855 L163.002789,225.507246 L163.248981,231.913043 L156.601794,236.84058 L153.401296,240.289855 L147.985069,245.217391 L150.939375,247.434783 L154.139873,250.884058 L156.10941,251.376812 L164.726134,257.289855 L165.218518,260 L169.403785,255.318841 L175.80478,248.666667 L173.342859,254.086957 L175.558588,252.608696 L178.759086,247.188406 L179.743854,242.753623 L183.190544,239.057971 L186.391042,234.376812 L185.652465,227.478261 L186.144849,222.550725 L192.299653,219.101449 L198.454456,215.652174 L202.147338,211.956522 L211.010255,211.463768 L214.703137,209.492754 L217.41125,206.782609 L218.642211,202.101449 L222.335093,197.666667 L223.566053,196.434783 L223.319861,190.028986 L225.53559,189.043478 L227.012743,180.42029 L226.766551,171.304348 L227.258935,168.84058 L230.705625,166.130435 L234.398507,159.478261 L238.337581,155.043478 L242.276655,149.869565 L244,144.942029 L243.261424,139.768116 L241.045694,133.855072 L236.860428,133.855072 L233.906123,131.391304 L229.967049,129.913043 L227.258935,126.956522 L221.350324,123.014493 L217.41125,123.753623 L214.456944,123.507246 L206.332604,121.043478 L203.624491,120.797101 C203.624491,120.797101 202.639722,118.826087 201.901146,118.57971 C201.162569,118.333333 194.515382,117.101449 194.515382,117.101449 L190.330116,114.144928 L186.637234,114.391304 L185.160081,116.855072 L184.667697,113.405797 L182.451967,112.666667 L178.759086,112.42029 L175.80478,114.144928 L173.835243,116.608696 L173.589051,113.405797 L176.543356,109.956522 L179.743854,107 L178.759086,105.028986 L177.528125,103.057971 L176.050972,101.086957 L175.558588,100.101449 L175.312396,96.4057971 L174.573819,94.4347826 L172.686018,93.942029 L169.239328,96.8985507 L165.957095,103.797101 L162.264213,103.550725 L161.279444,104.043478 L158.243403,100.84058 L154.4678,102.154261 L154.4678,103.961681 L151.513495,104.125275 L149.954606,103.304348 L146.754109,103.961681 L142.815035,107.73913 L138.711504,104.782609 L138.711504,102.154261 L135.921655,98.7049855 L139.040417,94.7629565 L136.906423,93.7774493 L135.675463,90.4927536 L133.295277,90 L133.459734,91.4782609 L129.52066,94.1884058 L123.119664,95.9130435 L117.867894,94.7629565 L119.18059,96.4057971 L118.688206,100.84058 L122.134896,101.826087 L121.314583,103.797101 L119.508518,104.289855 L118.360278,106.425449 L114.749132,106.753623 L112.28721,108.724638 L109.004977,108.724638 L107.855752,106.753623 L106.870984,107.574551 L104.573519,103.468928 L103.096366,104.618029 L101.619213,103.632522 L100.634444,104.618029 L95.3816892,105.110783 L95.0537613,106.753623 L97.6801389,108.067304 L97.5156826,109.545565 L94.3969207,110.202899 L94.3151849,112.666667 L97.1877547,117.429623 L94.0689928,130.15942 L90.9502309,130.898551 L86.4370367,132.130435 L83.7289233,132.704986 L81.267002,134.84058 L79.0512728,142.231884 L77.3279279,143.956522 L77,145.681159 L78.969537,149.458609 L81.1025457,151.758783 L80.4466898,153.565217 L83.0720827,154.386145 L84.7136918,156.193565 L89.1451502,155.371652 L90.1299187,152.74429 L91.4426151,158 L95.5461455,158 L97.0232983,157.507246 Z" id="Shape"></path>
            <polygon id="Shape" points="96.9855072 190.19469 98.9565217 195.150442 101.42029 195.893805 100.188406 198.371681 99.942029 202.088496 100.434783 203.823009 101.913043 204.318584 103.637681 212 106.84058 211.504425 111.028986 207.292035 114.231884 208.283186 116.695652 209.026549 117.927536 211.256637 120.637681 207.292035 124.086957 207.787611 125.072464 209.522124 127.043478 205.061947 130 197.132743 134.681159 196.884956 139.115942 196.141593 144.289855 198.371681 145.028986 200.106195 146.753623 198.619469 147 189.699115 144.536232 187.469027 143.304348 182.761062 138.376812 183.256637 134.434783 179.044248 135.173913 177.80531 134.434783 171.115044 130.492754 170.123894 124.333333 165.415929 118.913043 164.672566 112.014493 156 102.15942 157.486726 100.681159 159.964602 96.5745507 158.230088 99.3674783 162.690265 98.7101449 168.884956 98.8747246 172.106195 97.7246377 175.740743 97.2318841 179.869876 98.4637681 183.256637 97.4782609 186.973451 96 188.460177"></polygon>
            <polygon id="Shape" points="126.489933 210.456954 129.718121 213.397351 134.932886 218.298013 138.90604 218.543046 141.885906 220.258278 145.85906 222.708609 146.852349 224.423841 144.120805 227.609272 143.375839 231.284768 153.557047 233 156.288591 232.019868 156.785235 230.059603 160.013423 228.099338 159.765101 225.15894 162 224.668874 160.261745 223.443709 161.751678 215.602649 157.033557 216.092715 155.04698 208.986755 145.85906 208.741722 145.114094 199.92053 144.369128 198.205298 139.154362 196 135.42953 196.735099 129.966443 196.980132 125 209.231788"></polygon>
            <polygon id="Shape" points="106.687316 211.181149 106.19764 215.116348 105.218289 217.083947 101.056047 219.543446 100.566372 223.478645 99.3421829 225.446244 101.79056 231.103093 101.300885 233.070692 98.3628319 232.824742 95.6696165 237.497791 94.6902655 242.416789 94.20059 245.860088 92.7315634 249.549337 91.0176991 253.976436 92.7315634 258.649485 95.4247788 262.584683 94.9351032 266.027982 92.9764012 269.471281 92.2418879 276.357879 89.7935103 277.341679 88.079646 279.801178 88.8141593 286.441826 90.5280236 290.131075 88.3244838 292.836524 86.6106195 298.739323 86.3657817 304.888071 86.3657817 311.282769 85.3864307 313.742268 85.8761062 316.201767 85.6312684 318.907216 86.3657817 324.810015 88.3244838 327.269514 87.100295 330.958763 87.8348083 335.877761 86.3657817 340.79676 83.6725664 342.272459 83.1828909 347.191458 81.7138643 350.880707 80 353.586156 80.979351 357.521355 81.2241888 360.964654 81.2241888 363.670103 84.8967552 362.932253 84.8967552 365.883652 84.8967552 369.326951 86.8554572 372.032401 90.7728614 371.786451 94.9351032 372.77025 98.1179941 373.5081 100.811209 374 98.6076696 370.064801 96.8938053 368.343152 97.6283186 365.391753 96.8938053 362.194404 99.8318584 359.734904 100.566372 359.243004 103.014749 359.243004 103.259587 355.061856 104.238938 352.356406 108.40118 348.175258 111.339233 344.240059 111.828909 339.81296 109.625369 339.32106 105.463127 336.615611 105.218289 331.942563 107.911504 328.745214 110.849558 325.793814 112.318584 326.777614 113.297935 323.826215 113.787611 320.874816 115.011799 316.939617 118.19469 314.480118 116.235988 312.512518 117.460177 312.266568 120.153392 313.496318 121.867257 310.790869 119.908555 309.069219 116.480826 310.544919 115.501475 309.315169 113.787611 307.34757 114.522124 302.428571 116.480826 301.444772 120.39823 303.166421 124.070796 303.412371 126.764012 300.215022 126.764012 296.771723 127.498525 291.360825 134.353982 291.852725 139.740413 289.639175 143.168142 288.163476 146.59587 287.179676 147.575221 283.982327 151.492625 278.325479 149.289086 276.849779 148.309735 273.16053 147.330383 270.455081 143.657817 269.225331 142.678466 266.519882 143.902655 265.290133 142.923304 263.076583 143.657817 260.617084 143.168142 256.435935 145.126844 253.238586 145.861357 248.565538 147.820059 245.368189 156.389381 237.005891 163 232.086892 162.755162 225.692194 161.286136 224.708395 158.59292 225.938144 160.061947 227.905744 156.144543 230.119293 155.654867 232.086892 152.961652 233.070692 142.923304 231.349043 143.657817 227.659794 146.351032 224.462445 145.371681 222.740795 138.516224 218.559647 134.59882 218.313697 124.80531 209.213549 123.825959 207.4919 120.39823 207 117.705015 210.935199 116.480826 208.721649 110.849558 207"></polygon>
            <path d="M100,378 L100.478632,393.202703 L102.273504,393.202703 L102.034188,394.054054 L102.393162,396 L105.264957,396 L106.222222,394.662162 L104.307692,393.689189 L106.700855,394.418919 L109.094017,395.27027 L111.965812,394.054054 L114,393.202703 L113.641026,391.621622 C113.641026,391.621622 111.008547,391.378378 110.649573,391.256757 C110.290598,391.135135 107.777778,389.797297 107.777778,389.797297 L105.145299,388.581081 L104.068376,386.635135 L103.111111,384.567568 L102.512821,383.22973 L101.555556,381.891892 L101.435897,380.797297 L102.034188,381.162162 L102.034188,379.337838 L100,378 Z" id="Shape"></path>
            <path d="M140.865672,367.37837 L140.865672,369.774712 L139.432836,370.909822 L138.119403,372.675548 L138,374.567397 C138,374.567397 140.029851,375.45026 139.910448,374.69352 C139.791045,373.936781 139.791045,372.549425 140.746269,372.675548 C141.701493,372.801671 142.656716,372.801671 142.656716,372.801671 L142.537313,371.035945 L144.925373,370.783699 L146,368.891849 L143.731343,367 L142.537313,367.504493 L140.865672,367.37837 Z" id="Shape"></path>
            <polygon id="Shape" points="139.111111 368.018182 138.095238 367 135.936508 367 135.809524 369.036364 133.904762 369.8 134.666667 371.836364 132.888889 371.454545 132 370.181818 132.126984 372.345455 134.15873 374 136.31746 373.236364 137.333333 370.945455 138.47619 370.309091 140 368.909091"></polygon>
            <path d="M31,16.0408963 L32.978022,15.7147055 L32.978022,13.4284315 L36.7689011,11.9591037 L40.2304396,11.4693278 L42.702967,10 L45.1754945,10.1635852 L48.637033,10.8169462 L50.7802198,12.4488796 C50.7802198,12.4488796 52.0985714,11.4703073 52.5930769,11.7964981 C53.0875824,12.1226889 54.4069231,14.5715685 54.4069231,14.5715685 L58.1978022,14.2453777 L60.5051648,15.7147055 L63.6373626,18.4897759 L66.4392308,19.3057426 L70.8897802,20.4488796 L69.5714286,22.0817926 L73.6926374,22.0817926 L75.8348352,22.5715685 L76,23.8773111 L73.5274725,25.8364148 L68.7475824,26 L61.33,25.1830538 L63.9667033,23.22395 L61.8245055,22.0817926 L59.1868132,21.7546223 L57.5381319,18.8159667 L55.5601099,17.5102241 L52.4289011,17.5102241 L48.4728571,15.7147055 L46.1645055,15.7147055 L42.3736264,14.0817926 L43.691978,13.2658259 L42.8681319,12.77605 L39.2414286,13.2658259 L37.2634066,15.0613444 L34.7908791,15.5511204 L32.4835165,17.3466389 L31,16.0408963 Z" id="Shape"></path>
            <polygon id="Shape" points="38.4 16 38 18 39.4664 17.834 40 16.334"></polygon>
            <polygon id="Shape" points="67 33.7391758 64.7495179 32.5216484 61.0536747 32 58 32.5216484 60.5715663 34.2608242 60.4105421 36 63.9463253 35.1298905"></polygon>
            <path d="M86.0270007,26.3271703 L86.3510095,27.9591037 L86.0270007,29.4284315 L86.1894916,30.7351537 L87,31.0613444 L86.3510095,31.7147055 L86.0270007,34 L84.4050109,33.5102241 L81.9725128,33.8364148 L80.1890051,33.1840333 L77.7565069,33.0204481 L77.7565069,33.8364148 L76.6210168,32.6942574 L75,32.3670871 C75,32.3670871 75.3240088,31.5511204 75.8105084,31.5511204 C76.297008,31.5511204 79.2160058,31.7147055 79.2160058,31.7147055 L81.9725128,32.0408963 L83.5945026,31.5511204 L82.945512,30.5715685 L82.4590124,28.286274 L81.4860131,27.4693278 L79.053515,26.8169462 L79.7025055,26 L81.9725128,26 L84.4050109,26.9795519 L86.0270007,26.3271703 Z" id="Shape"></path>
            <path d="M85.667,35.3448751 L87.334,36 L88.667,33.7050954 L91,32.7214244 C91,32.7214244 89.834,33.7060791 90.834,33.8693685 C91.834,34.0326579 94.334,33.7050954 94.334,33.7050954 L96.334,32.3938619 L98.167,32.7214244 L99.334,33.7050954 L101,31.5734802 L99.667,29.2785756 L95.5,29.2785756 L94.334,27.3112335 L92.167,26.1632894 L88.834,26.1632894 L86.667,26.4918355 L85,26 L85.5,28.1306315 L85,29.9346842 L85.5,31.5734802 L85.167,34.1969309 L85.667,35.3448751 Z" id="Shape"></path>
            <polygon id="Shape" points="106 31.1767819 108.195765 31 111.803294 32.0585745 114 32.0585745 111.960471 33.1171489 109.764706 34 107.097412 34 106 32.2353564 106 31.1767819"></polygon>
            <polygon id="Shape" points="59.0691082 1 57 3.86376653 58.8963377 5.61352789 60.2753983 6.4087004 60.7926754 8 62 5.77294422 61.4827229 3.54493386"></polygon>
            <polygon id="Shape" points="80.166 19.1541301 78.333 19.4614675 78 20.6917397 80.833 21 81 19"></polygon>
            <path d="M64,1.5 C64,2.32909091 63.3301818,3 62.5,3 C61.6709091,3 61,2.32909091 61,1.5 C61,0.669818182 61.6709091,0 62.5,0 C63.3301818,0 64,0.670909091 64,1.5 Z" id="Shape"></path>
            <path d="M127,38.5 C127,39.3290909 126.329091,40 125.5,40 C124.670909,40 124,39.3290909 124,38.5 C124,37.6698182 124.670909,37 125.5,37 C126.329091,37 127,37.6709091 127,38.5 Z" id="Shape"></path>
            <path d="M130,38.5 C130,39.3290909 129.329091,40 128.5,40 C127.670909,40 127,39.3290909 127,38.5 C127,37.6698182 127.670909,37 128.5,37 C129.329091,37 130,37.6709091 130,38.5 Z" id="Shape"></path>
            <path d="M132,45.5 C132,46.3290909 131.329091,47 130.5,47 C129.670909,47 129,46.3290909 129,45.5 C129,44.6698182 129.670909,44 130.5,44 C131.329091,44 132,44.6709091 132,45.5 Z" id="Shape"></path>
            <path d="M134,52.5 C134,53.3290909 133.329091,54 132.5,54 C131.670909,54 131,53.3290909 131,52.5 C131,51.6698182 131.670909,51 132.5,51 C133.329091,51 134,51.6709091 134,52.5 Z" id="Shape"></path>
            <path d="M140,55.5 C140,56.3290909 139.329091,57 138.5,57 C137.670909,57 137,56.3290909 137,55.5 C137,54.6698182 137.670909,54 138.5,54 C139.329091,54 140,54.6709091 140,55.5 Z" id="Shape"></path>
            <path d="M132,55.5 C132,56.3290909 131.329091,57 130.5,57 C129.670909,57 129,56.3290909 129,55.5 C129,54.6698182 129.670909,54 130.5,54 C131.329091,54 132,54.6709091 132,55.5 Z" id="Shape"></path>
            <path d="M131,60.5 C131,61.3290909 130.329091,62 129.5,62 C128.670909,62 128,61.3290909 128,60.5 C128,59.6698182 128.670909,59 129.5,59 C130.329091,59 131,59.6709091 131,60.5 Z" id="Shape"></path>
            <path d="M132,67.5 C132,68.3290909 131.329091,69 130.5,69 C129.670909,69 129,68.3290909 129,67.5 C129,66.6698182 129.670909,66 130.5,66 C131.329091,66 132,66.6709091 132,67.5 Z" id="Shape"></path>
            <path d="M91.8076258,193.60336 L91.315382,201.987453 L92.9555384,209.548919 L90.9865631,214.810183 L90.6587287,223.358013 L90.0020754,227.632914 L89.3464066,235.852284 L86.3929436,240.455644 L87.3774313,246.702286 L86.0641247,250.976201 L86.3929436,257.880748 L86.3929436,263.142013 L84.0951494,268.730751 L82.1261741,275.306839 L80.4860176,282.539845 L78.8448767,283.19775 L78.5170423,289.115933 L79.1727111,297.335303 L77.860389,300.952299 L76.5480669,305.555659 L78.1882234,308.185306 L76.2192481,309.501115 L74.5790916,315.747757 L75.2347604,318.048944 L78.8448767,314.761393 L79.5015299,309.829574 L79.5015299,307.856846 L81.7983397,306.542023 L82.7828273,310.158033 L80.4860176,315.747757 L79.8293643,321.9944 L77.860389,328.242028 L75.8914137,325.282937 C75.8914137,325.282937 73.9214538,327.912583 74.2502727,328.898947 C74.5790916,329.885311 75.5635793,332.844402 75.5635793,332.844402 L75.2347604,333.830766 L73.2657851,334.160212 L69.6566533,337.119303 L69.9844877,339.42049 L73.9224383,337.119303 L75.5635793,338.434126 L76.5480669,339.42049 L75.2347604,342.379582 L74.2502727,344.02385 L73.9224383,347.969306 L71.2968097,344.680769 L70.9689753,346.325037 L69.3278344,349.612588 L69,351.256857 L70.3123221,354.544407 C70.3123221,354.544407 69.6566533,356.18769 70.6411409,356.517135 C71.6256286,356.846581 73.9224383,357.503499 73.9224383,357.503499 L74.906926,354.873853 L74.2502727,360.134131 L70.6411409,359.805672 L70.6411409,361.7784 L74.2502727,364.737492 L74.906926,362.106859 C74.906926,362.106859 77.8594045,361.449941 77.2037357,363.751128 C76.5480669,366.052315 76.5480669,367.696583 76.5480669,367.696583 L73.9224383,367.696583 L70.9689753,368.025042 C70.9689753,368.025042 72.6101163,368.682947 72.9379507,369.669311 C73.2657851,370.655675 73.5946039,371.642039 73.5946039,371.642039 L76.2192481,369.99777 C76.2192481,369.99777 78.1882234,371.312593 77.2037357,371.970498 L76.2192481,372.628403 L78.1882234,373.285321 C78.1882234,373.285321 79.8293643,373.285321 79.8293643,372.298957 C79.8293643,371.312593 81.7983397,369.99777 81.7983397,370.984134 L81.7983397,372.956862 L78.5170423,374.271685 L77.2037357,376.902317 L77.860389,378.546586 L79.1727111,381.176232 L81.4705053,382.162596 L84.0951494,380.847773 L86.0641247,380.519314 L84.7518027,382.492041 L81.1416864,383.14896 L77.5325546,382.162596 L79.8293643,385.451133 C79.8293643,385.451133 81.4695208,389.067143 82.1261741,388.080779 C82.7828273,387.094415 84.0951494,385.779592 84.0951494,385.779592 L84.0951494,384.793228 L86.0641247,385.121687 C86.0641247,385.121687 85.7372748,386.437497 87.3774313,385.779592 C89.0175877,385.121687 90.3308943,384.793228 90.3308943,384.793228 L90.0020754,382.8205 L90.0020754,380.189868 L90.6587287,378.875045 L93.6121917,378.21714 L94.9245137,377.06704 L94.5966793,378.463731 L92.1354602,380.026132 L91.5615039,381.422823 L92.1354602,383.067091 L94.7610888,382.902369 L95.7455765,382.902369 L93.9400261,385.121687 C93.9400261,385.121687 92.2171727,385.368278 92.3815821,385.779592 C92.5459915,386.190906 93.1199478,388.573961 93.1199478,388.573961 L95.9916984,389.88977 L92.2171727,389.725048 L91.1509725,388.080779 L90.1664848,385.614869 C90.1664848,385.614869 89.5925285,385.944315 89.674241,386.272774 C89.7559535,386.601233 89.4281191,387.670452 89.4281191,387.670452 L88.1975095,387.094415 L86.6390655,386.437497 L84.7518027,386.437497 L84.4239683,387.998911 L85.7362903,388.738684 L87.0486124,389.806916 L88.6897533,389.149997 C88.6897533,389.149997 89.1002847,388.492093 89.3464066,388.738684 C89.5925285,388.985275 90.0020754,389.560325 90.0020754,389.560325 L89.5098316,390.21823 L89.0175877,391.451184 L88.0331001,391.779644 L89.5925285,392.93073 C89.5925285,392.93073 90.8231381,393.342044 90.9048506,393.670503 C90.9865631,393.998962 91.1509725,394.410276 91.1509725,394.410276 L93.2016603,394.328408 L94.7610888,393.835226 C94.7610888,393.835226 95.744592,393.752371 95.6628795,393.998962 C95.581167,394.245553 94.5149669,395.561363 94.5149669,395.561363 C94.5149669,395.561363 93.2843573,396.13444 93.5304792,396.218281 C93.7766011,396.301135 95.3360296,397.944418 95.4994545,398.191009 C95.6628795,398.4376 96.6473672,398.684191 96.6473672,398.684191 L96.4839422,397.040908 C96.4839422,397.040908 98.1240987,396.712449 98.2885081,397.040908 C98.4529175,397.369368 99.6835271,398.848913 99.6835271,398.848913 C99.6835271,398.848913 100.914137,399.423963 101.241971,399.588686 C101.569805,399.753409 102.472581,400 102.472581,400 L100.749727,397.451236 L100.339196,396.218281 L100.093074,394.985326 L99.5191177,394.492144 L99.6835271,393.177321 L99.1499348,378.011977 L97.3857329,377.64209 L96.1551233,376.984185 L95.3350451,374.92959 L95.0072107,373.943226 L90.1664848,372.956862 L86.2285342,373.203453 L84.2595588,370.490952 L84.2595588,364.079587 L80.5677301,364.81936 L80.4860176,361.613677 L80.3216082,358.654586 L79.3371205,354.70913 L80.7321395,352.489811 L82.5367054,348.297765 L83.0289493,343.365946 L85.7362903,341.8864 L87.2130218,337.201171 L86.4746561,332.022761 L87.7052657,328.323897 L85.7362903,325.611396 L84.9979246,320.186395 L85.2440465,317.227303 L84.7518027,314.761393 L85.6545779,312.542075 L85.9824123,299.719344 L87.5408562,294.047752 L89.9203629,291.088661 L87.9513876,287.554519 L87.4591438,280.73184 L89.4281191,278.26593 L91.6432163,277.279566 L92.2171727,270.62161 L94.186148,267.169337 L94.6783918,263.223881 L91.9710507,259.771608 L90.4943192,255.086379 L93.6121917,246.702286 L95.0889232,238.318194 L97.7145518,234.126147 L100.749727,233.879556 L101.241971,231.906828 L98.7807519,226.235236 L100.011362,224.262508 L100.503605,220.317053 L104.687678,217.851143 L105.672166,215.878415 L106,212.179551 L102.964825,212.426142 L101.241971,204.781822 L99.6835271,204.042049 L99.2729958,202.562503 L99.5191177,198.863639 L100.749727,196.397729 L98.6163425,195.657956 L95.3350451,189 L94.4322699,190.232955 L94.268845,191.794369 L91.8076258,193.60336 Z" id="Shape"></path>
            <polygon id="Shape" points="163.777778 262.25 164.022222 264.5 162.311111 269.25 158.888889 271 152.533333 271 149.6 269.75 147.4 268.5 145.2 268 143.977778 265.5 143 263.25 143.733333 260.75 143.244444 256.5 145.2 253.25 145.933333 248.5 147.4 246 150.822222 247.5 154 251 155.955556 251.5 164.511111 257.5 165 260.25"></polygon>
        </g>
        <circle id="Oval-Copy-18" stroke="#FFFFFF" fill="#E75F52" cx="205.5" cy="91.5" r="3"></circle>
        <circle id="Oval-Copy-16" stroke="#FFFFFF" fill="#E75F52" cx="256.5" cy="290.5" r="3"></circle>
        <circle id="Oval-Copy-18" stroke="#FFFFFF" fill="#E75F52" cx="160.5" cy="69.5" r="3"></circle>
        <circle id="Oval-Copy-20" stroke="#FFFFFF" fill="#E75F52" cx="185.5" cy="16.5" r="3"></circle>
        <circle id="Oval-Copy-19" stroke="#FFFFFF" fill="#E75F52" cx="210.5" cy="100.5" r="3"></circle>
        <circle id="Oval-Copy-21" stroke="#FFFFFF" fill="#E75F52" cx="199.5" cy="156.5" r="3"></circle>
        <circle id="Oval-Copy-25" stroke="#FFFFFF" fill="#E75F52" cx="196.5" cy="164.5" r="3"></circle>
        <circle id="Oval-Copy-21" stroke="#FFFFFF" fill="#E75F52" cx="205.5" cy="166.5" r="3"></circle>
        <circle id="Oval-Copy-17" stroke="#FFFFFF" fill="#E75F52" cx="215.5" cy="267.5" r="3"></circle>
        <circle id="Oval-Copy-24" stroke="#FFFFFF" fill="#E75F52" cx="212.5" cy="277.5" r="3"></circle>
        <circle id="Oval-Copy-22" stroke="#FFFFFF" fill="#E75F52" cx="305.5" cy="161.5" r="3"></circle>
        <circle id="Oval-Copy-23" stroke="#FFFFFF" fill="#E75F52" cx="298.5" cy="153.5" r="3"></circle>
    </g>
</svg>