<?xml version="1.0" encoding="UTF-8"?>
<svg width="127px" height="78px" viewBox="0 0 127 78" version="1.1" xmlns="http://www.w3.org/2000/svg" xmlns:xlink="http://www.w3.org/1999/xlink">
    <title>logo-ikea-v</title>
    <g id="logo-ikea-v" stroke="none" stroke-width="1" fill="none" fill-rule="evenodd">
        <g id="Group-44" transform="translate(-562.000000, 0.000000)">
            <g id="Group-3" transform="translate(0.000000, 0.276000)" fill="#0058A3">
                <polygon id="Fill-2" points="563.585 50.975 687.542 50.975 687.542 0.617 563.585 0.617"></polygon>
            </g>
            <g id="Group-21" transform="translate(566.000000, 3.276000)">
                <path d="M0.0058,22.796 C0.0058,34.973 24.9718,45.069 59.5628,45.069 C94.1548,45.069 119.1208,34.973 119.1208,22.796 C119.1208,10.619 94.1548,0.523 59.5628,0.523 C24.9718,0.523 0.0058,10.619 0.0058,22.796" id="Fill-4" fill="#FFDB00"></path>
                <path d="M108.9524,14.5645 L109.5434,14.5645 C109.8444,14.5645 110.0884,14.3545 110.0884,14.0535 C110.0884,13.7525 109.8444,13.5425 109.5434,13.5425 L108.9524,13.5425 L108.9524,14.5645 Z M108.9524,16.0175 L108.5224,16.0175 L108.5224,13.1115 L109.6114,13.1115 C110.1124,13.1115 110.5194,13.5525 110.5194,14.0535 C110.5194,14.4125 110.3104,14.7535 110.0084,14.9025 L110.6364,16.0175 L110.1524,16.0175 L109.5794,14.9955 L108.9524,14.9955 L108.9524,16.0175 Z M107.4964,14.5645 C107.4964,15.6315 108.3074,16.5015 109.4364,16.5015 C110.5034,16.5015 111.3704,15.6935 111.3704,14.5645 C111.3704,13.4975 110.5654,12.6275 109.4364,12.6275 C108.3074,12.6275 107.4964,13.4355 107.4964,14.5645 L107.4964,14.5645 Z M107.0164,14.5645 C107.0164,13.1595 108.0314,12.1435 109.4374,12.1435 C110.7754,12.1435 111.8574,13.1595 111.8574,14.5645 C111.8574,15.9695 110.8414,16.9855 109.4374,16.9855 C108.0314,16.9855 107.0164,15.9695 107.0164,14.5645 L107.0164,14.5645 Z M23.0264,13.1115 L10.8794,13.1115 C11.1424,13.6375 11.1424,14.1635 11.1424,14.6885 L11.1424,29.9345 C11.1424,30.4605 11.1424,30.9865 10.8794,31.5115 L23.0264,31.5115 C22.7634,30.9865 22.7634,30.4605 22.7634,29.9345 L22.7634,14.6885 C22.7634,14.1635 22.7634,13.6375 23.0264,13.1115 L23.0264,13.1115 Z M97.5774,24.7325 C96.7334,22.5215 96.0244,20.6645 95.9524,20.4735 C95.7504,19.9455 95.5894,19.2625 95.5894,19.2625 C95.5894,19.2625 95.4594,19.9455 95.2704,20.4725 C95.2104,20.6425 94.5304,22.5195 93.7274,24.7325 L97.5774,24.7325 Z M110.7604,29.9295 C110.9634,30.4605 111.1654,30.9865 111.6254,31.5115 L99.9354,31.5115 C99.9964,30.9865 99.7874,30.4605 99.5814,29.9345 C99.5814,29.9345 99.4024,29.5085 99.1614,28.8815 C99.1444,28.8395 99.0564,28.6065 99.0564,28.6065 L92.3224,28.6065 L92.2234,28.8825 C92.2234,28.8825 92.0334,29.4045 91.8444,29.9345 C91.6584,30.4605 91.4644,30.9865 91.5444,31.5115 L82.3214,31.5115 C82.7754,30.9865 82.9634,30.4655 83.1554,29.9365 C83.4594,29.0985 88.2564,15.8755 88.6864,14.6895 C88.8774,14.1635 89.0684,13.6375 88.9964,13.1115 L104.5784,13.1115 C104.4424,13.6375 104.7204,14.1605 104.9224,14.6895 C105.3734,15.8655 110.3664,28.9005 110.7604,29.9295 L110.7604,29.9295 Z M59.5634,14.6895 L59.5634,29.9355 C59.5634,30.4605 59.5634,30.9865 59.3004,31.5115 L80.8684,31.5115 L80.8684,26.4075 C80.3424,26.6695 79.8164,26.6695 79.2914,26.6695 L70.2154,26.6695 L70.2154,24.2485 L78.9314,24.2485 L78.9314,20.3755 L70.2154,20.3755 L70.2154,17.9545 L79.2914,17.9545 C79.8164,17.9545 80.3424,17.9545 80.8684,18.2105 L80.8684,13.1125 L59.3004,13.1125 C59.5634,13.6375 59.5634,14.1635 59.5634,14.6895 L59.5634,14.6895 Z M56.0494,29.9345 C56.4104,30.4785 56.8374,30.9865 57.3634,31.5115 L43.9574,31.5115 C43.9574,30.9865 43.4524,29.8995 42.8754,29.0425 C42.2994,28.1865 39.2264,23.5225 39.2264,23.5225 L39.2264,29.9345 C39.2264,30.4605 39.2264,30.9865 39.4894,31.5115 L28.3114,31.5115 C28.5744,30.9785 28.5744,30.4605 28.5744,29.9345 L28.5744,14.6895 C28.5744,14.1635 28.5744,13.6375 28.3114,13.1115 L39.4894,13.1115 C39.2264,13.6375 39.2264,14.1635 39.2264,14.6895 L39.2264,21.3435 C39.2264,21.3435 42.8024,16.7005 43.6174,15.6125 C44.2364,14.7855 45.0094,13.6375 45.0094,13.1115 L56.6584,13.1115 C55.8574,13.6375 54.9634,14.6105 54.2434,15.4945 C53.6074,16.2745 49.9734,20.6945 49.9734,20.6945 C49.9734,20.6945 55.3494,28.8815 56.0494,29.9345 L56.0494,29.9345 Z" id="Fill-6" fill="#0058A3"></path>
                <polygon id="Fill-7" fill="#FFFFFF" points="37.4672 72.7441 37.4672 61.3011 43.8622 61.3011 43.8622 62.5671 38.9092 62.5671 38.9092 66.6221 43.5572 66.6221 43.5572 67.8881 38.9092 67.8881 38.9092 72.7441"></polygon>
                <path d="M48.9516,71.7345 C50.6826,71.7345 51.4676,70.4685 51.4676,68.4335 C51.4676,66.3975 50.6826,65.1795 48.9356,65.1795 C47.1886,65.1795 46.4356,66.3975 46.4356,68.4335 C46.4356,70.4685 47.2046,71.7345 48.9516,71.7345 M48.9196,72.9045 C46.6436,72.9045 44.9766,71.2855 44.9766,68.4335 C44.9766,65.5965 46.4996,63.9935 48.9676,63.9935 C51.2916,63.9935 52.9266,65.5965 52.9266,68.4335 C52.9266,71.2855 51.3716,72.9045 48.9196,72.9045" id="Fill-8" fill="#FFFFFF"></path>
                <path d="M61.9298,72.7441 L60.7758,72.7441 L60.5678,71.6061 L60.5038,71.6061 C59.9428,72.5031 58.8848,72.9041 57.7788,72.9041 C55.7118,72.9041 54.6538,71.9591 54.6538,69.7791 L54.6538,64.1541 L56.0798,64.1541 L56.0798,69.6831 C56.0798,71.0611 56.6888,71.7341 57.9868,71.7341 C59.8948,71.7341 60.5198,70.6291 60.5198,68.6251 L60.5198,64.1541 L61.9298,64.1541 L61.9298,72.7441 Z" id="Fill-9" fill="#FFFFFF"></path>
                <path d="M71.5616,67.1509 L71.5616,72.7439 L70.1676,72.7439 L70.1676,67.2469 C70.1676,65.8689 69.5586,65.1799 68.2446,65.1799 C66.3366,65.1799 65.7286,66.2859 65.7286,68.2889 L65.7286,72.7439 L64.3176,72.7439 L64.3176,64.1539 L65.4556,64.1539 L65.6636,65.3239 L65.7436,65.3239 C66.3046,64.4259 67.3626,63.9939 68.4526,63.9939 C70.5036,63.9939 71.5616,64.9389 71.5616,67.1509" id="Fill-10" fill="#FFFFFF"></path>
                <path d="M79.8248,68.7375 L79.8248,68.4815 C79.8248,66.3495 79.2478,65.1635 77.3408,65.1635 C75.8178,65.1635 75.0648,66.4615 75.0648,68.4975 C75.0648,70.5485 75.8178,71.7345 77.3568,71.7345 C79.1678,71.7345 79.8248,70.7405 79.8248,68.7375 M73.6068,68.4655 C73.6068,65.5165 75.0168,63.9935 77.1478,63.9935 C78.4788,63.9935 79.2798,64.5545 79.8088,65.2595 L79.9048,65.2595 C79.8728,64.9875 79.8088,64.3145 79.8088,63.9935 L79.8088,60.5635 L81.2188,60.5635 L81.2188,72.7445 L80.0808,72.7445 L79.8728,71.5905 L79.8088,71.5905 C79.2958,72.3275 78.4788,72.9045 77.1318,72.9045 C75.0008,72.9045 73.6068,71.4135 73.6068,68.4655" id="Fill-11" fill="#FFFFFF"></path>
                <path d="M87.4787,68.5933 C85.3307,68.6733 84.6417,69.2823 84.6417,70.3723 C84.6417,71.3343 85.2827,71.7663 86.2127,71.7663 C87.6547,71.7663 88.7447,70.9813 88.7447,69.3143 L88.7447,68.5453 L87.4787,68.5933 Z M90.1387,66.8943 L90.1387,72.7443 L89.1137,72.7443 L88.8407,71.5263 L88.7767,71.5263 C88.0237,72.4713 87.3347,72.9043 85.8917,72.9043 C84.3377,72.9043 83.1837,72.1033 83.1837,70.3563 C83.1837,68.6413 84.4977,67.6963 87.3027,67.6153 L88.7607,67.5673 L88.7607,67.0553 C88.7607,65.6283 88.1037,65.1473 86.9817,65.1473 C86.0847,65.1473 85.2667,65.4683 84.5617,65.8043 L84.1297,64.7473 C84.8827,64.3463 85.9407,64.0093 87.0617,64.0093 C89.1457,64.0093 90.1387,64.8913 90.1387,66.8943 L90.1387,66.8943 Z" id="Fill-12" fill="#FFFFFF"></path>
                <path d="M96.8026,71.5743 L96.8026,72.6483 C96.4976,72.7923 95.8726,72.9043 95.3606,72.9043 C94.0136,72.9043 92.8446,72.3273 92.8446,70.2443 L92.8446,65.2433 L91.6256,65.2433 L91.6256,64.5703 L92.8606,64.0093 L93.4206,62.1823 L94.2546,62.1823 L94.2546,64.1543 L96.7386,64.1543 L96.7386,65.2433 L94.2546,65.2433 L94.2546,70.2123 C94.2546,71.2533 94.8156,71.7503 95.6006,71.7503 C96.0176,71.7503 96.5306,71.6703 96.8026,71.5743" id="Fill-13" fill="#FFFFFF"></path>
                <path d="M99.928,72.744 L98.518,72.744 L98.518,64.154 L99.928,64.154 L99.928,72.744 Z M100.056,61.83 C100.056,62.439 99.671,62.727 99.239,62.727 C98.774,62.727 98.405,62.439 98.405,61.83 C98.405,61.205 98.774,60.933 99.239,60.933 C99.671,60.933 100.056,61.205 100.056,61.83 L100.056,61.83 Z" id="Fill-14" fill="#FFFFFF"></path>
                <path d="M105.8766,71.7345 C107.6076,71.7345 108.3926,70.4685 108.3926,68.4335 C108.3926,66.3975 107.6076,65.1795 105.8606,65.1795 C104.1136,65.1795 103.3606,66.3975 103.3606,68.4335 C103.3606,70.4685 104.1296,71.7345 105.8766,71.7345 M105.8446,72.9045 C103.5686,72.9045 101.9016,71.2855 101.9016,68.4335 C101.9016,65.5965 103.4246,63.9935 105.8926,63.9935 C108.2166,63.9935 109.8516,65.5965 109.8516,68.4335 C109.8516,71.2855 108.2966,72.9045 105.8446,72.9045" id="Fill-15" fill="#FFFFFF"></path>
                <path d="M119.1206,67.1509 L119.1206,72.7439 L117.7266,72.7439 L117.7266,67.2469 C117.7266,65.8689 117.1176,65.1799 115.8036,65.1799 C113.8966,65.1799 113.2876,66.2859 113.2876,68.2889 L113.2876,72.7439 L111.8766,72.7439 L111.8766,64.1539 L113.0146,64.1539 L113.2226,65.3239 L113.3026,65.3239 C113.8636,64.4259 114.9216,63.9939 116.0116,63.9939 C118.0636,63.9939 119.1206,64.9389 119.1206,67.1509" id="Fill-16" fill="#FFFFFF"></path>
                <polygon id="Fill-17" fill="#FFFFFF" points="0.006 72.744 1.448 72.744 1.448 61.301 0.006 61.301"></polygon>
                <path d="M11.2403,72.7441 L7.1853,67.2791 L6.0153,68.3051 L6.0153,72.7441 L4.5733,72.7441 L4.5733,61.3011 L6.0153,61.3011 L6.0153,66.9421 C6.6563,66.2211 7.3303,65.5001 7.9873,64.7631 L11.0803,61.3011 L12.7633,61.3011 L8.2273,66.2851 L12.9393,72.7441 L11.2403,72.7441 Z" id="Fill-18" fill="#FFFFFF"></path>
                <polygon id="Fill-19" fill="#FFFFFF" points="14.4941 72.7441 14.4941 61.3011 20.8891 61.3011 20.8891 62.5671 15.9361 62.5671 15.9361 66.1411 20.6001 66.1411 20.6001 67.3911 15.9361 67.3911 15.9361 71.4781 20.8891 71.4781 20.8891 72.7441"></polygon>
                <path d="M27.4918,64.4584 C27.3958,64.2024 27.0588,63.1444 26.9468,62.7434 C26.7868,63.4004 26.5788,64.0904 26.4498,64.4584 L25.1518,67.9204 L28.7738,67.9204 L27.4918,64.4584 Z M29.2068,69.2024 L24.6708,69.2024 L23.3088,72.7444 L21.8508,72.7444 L26.3218,61.2534 L27.6198,61.2534 L32.0758,72.7444 L30.5848,72.7444 L29.2068,69.2024 Z" id="Fill-20" fill="#FFFFFF"></path>
            </g>
        </g>
    </g>
</svg>