<?xml version="1.0" encoding="UTF-8"?>
<svg width="421px" height="39px" viewBox="0 0 421 39" version="1.1" xmlns="http://www.w3.org/2000/svg" xmlns:xlink="http://www.w3.org/1999/xlink">
    <!-- Generator: Sketch 64 (93537) - https://sketch.com -->
    <title>logo-subtitle</title>
    <desc>Created with Sketch.</desc>
    <g id="logo-subtitle" stroke="none" stroke-width="1" fill="none" fill-rule="evenodd">
        <polygon id="Line-Copy-7" fill="#000000" fill-rule="nonzero" points="5.01921251 2.93225896 5.01921251 31.6745132 3.75619168 31.6745132 3.75619168 2.93225896"></polygon>
        <path d="M33.857,14.747 C36.251,14.747 38.17,13.379 38.17,11.156 C38.17,9.142 36.878,8.325 35.092,7.432 C33.838,6.805 32.546,6.14 32.546,4.563 C32.546,3.442 33.363,2.435 34.845,2.435 C36.669,2.435 37.03,3.822 37.144,4.24 L37.467,4.24 C37.334,3.005 37.277,2.663 37.22,2.15 C35.985,1.96 35.624,1.922 35.073,1.922 C33.097,1.922 31.178,2.929 31.178,5.19 C31.178,7.47 32.907,8.344 34.142,8.952 C35.377,9.56 36.65,10.263 36.65,11.821 C36.65,13.132 35.7,14.234 34.104,14.234 C31.919,14.234 31.273,12.201 31.064,11.593 L30.76,11.593 C30.855,12.277 30.912,12.619 31.064,14.082 C31.444,14.291 32.28,14.747 33.857,14.747 Z M42.483,14.747 C43.376,14.747 44.06,14.329 44.687,13.664 L44.516,13.436 C44.231,13.607 43.832,13.873 43.262,13.873 C42.169087,13.873 42.074051,12.7008904 42.065787,12.0342616 L42.065,7.603 L44.782,7.603 L44.782,6.767 L42.065,6.767 C42.065,6.577 42.084,6.254 42.084,6.102 C42.103,5.779 42.122,5.304 42.122,5.095 L41.856,5.095 C41.248,5.931 40.792,6.425 39.652,7.356 L39.652,7.603 L40.754,7.603 C40.716,9.009 40.678,12.562 40.678,12.6 C40.678,13.398 40.697,14.747 42.483,14.747 Z M50.311,14.747 C52.477,14.747 54.51,13.113 54.51,10.624 C54.51,8.249 52.591,6.501 50.216,6.501 C47.613,6.501 46.036,8.572 46.036,10.662 C46.036,12.543 47.404,14.747 50.311,14.747 Z M50.425,14.329 C48.772,14.329 47.632,12.6 47.632,10.396 C47.632,8.629 48.506,6.919 50.273,6.919 C52.458,6.919 52.914,9.693 52.914,10.795 C52.914,12.467 52.116,14.329 50.425,14.329 Z M60.552,14.538 L60.552,14.12 L60.001,14.12 C58.8067143,14.12 58.7153764,13.8787302 58.7093857,13.2813001 L58.709,9.218 C58.709,8.743 59.222,7.888 60.077,7.888 C60.324,7.888 60.457,7.907 60.723,8.078 C60.932,8.211 61.027,8.249 61.179,8.249 C61.654,8.249 62.015,7.888 62.015,7.318 C62.015,6.748 61.635,6.501 61.198,6.501 C60.001,6.501 59.241,7.546 58.747,8.325 L58.709,8.325 L58.709,6.52 C58.709,6.425 58.652,6.311 58.538,6.311 C58.481,6.311 58.158,6.501 57.968,6.615 C57.189,7.052 56.828,7.223 56.41,7.413 L56.41,7.641 C57.227,8.135 57.322,8.211 57.322,8.781 L57.322,13.588 C57.322,14.12 56.657,14.12 56.049,14.12 L56.049,14.538 C56.315,14.519 57.075,14.5 58.063,14.5 C59.032,14.5 60.248,14.538 60.552,14.538 Z M65.074,3.575 C65.53,3.575 65.891,3.195 65.891,2.739 C65.891,2.283 65.53,1.922 65.074,1.922 C64.618,1.922 64.238,2.283 64.238,2.739 C64.238,3.195 64.618,3.575 65.074,3.575 Z M66.86,14.538 L66.86,14.12 C65.8285714,14.12 65.7277551,14.0165986 65.7204924,13.218931 L65.72,6.501 C65.72,6.463 65.72,6.349 65.625,6.349 C65.53,6.349 65.492,6.368 65.15,6.52 C64.58,6.767 64.067,6.938 63.402,7.128 L63.402,7.432 C64.048,7.717 64.333,8.135 64.333,8.515 L64.333,13.417 C64.333,14.12 64.105,14.12 63.117,14.12 L63.117,14.538 C63.402,14.519 64.238,14.5 65.017,14.5 C65.815,14.5 66.556,14.519 66.86,14.538 Z M71.876,14.747 C73.586,14.747 74.536,13.626 75.22,12.752 L74.973,12.524 C74.593,12.885 73.776,13.683 72.541,13.683 C72.104,13.683 69.52,13.55 69.71,9.446 C70.242,9.427 70.717,9.408 71.496,9.408 C71.971,9.408 74.308,9.484 74.821,9.484 C74.992,9.484 75.087,9.446 75.087,9.085 C75.087,7.755 73.947,6.501 72.142,6.501 C70.28,6.501 68.304,7.888 68.304,10.814 C68.304,13.854 70.451,14.747 71.876,14.747 Z M73.263,8.952 L69.691,8.952 C69.824,8.458 70.28,6.919 71.971,6.919 C72.959,6.919 73.605,7.565 73.605,8.458 C73.605,8.914 73.434,8.952 73.263,8.952 Z M79.115,14.747 C80.768,14.747 82.041,13.74 82.041,12.277 C82.041,11.308 81.566,10.567 79.704,9.826 C78.374,9.313 77.88,8.819 77.88,8.173 C77.88,7.489 78.526,6.9 79.362,6.9 C79.533,6.9 80.882,6.9 81.243,8.61 L81.623,8.61 L81.509,6.881 C80.464,6.501 79.666,6.501 79.495,6.501 C77.766,6.501 76.759,7.527 76.759,8.8 C76.759,10.168 77.918,10.776 79.058,11.232 C80.521,11.802 80.787,12.277 80.787,12.904 C80.787,13.721 80.198,14.253 79.21,14.253 C77.614,14.253 77.158,12.885 76.911,12.125 L76.626,12.239 C76.74,13.246 76.759,13.512 76.816,14.12 C77.253,14.348 78.032,14.747 79.115,14.747 Z M92.472,14.747 C94.638,14.747 96.671,13.113 96.671,10.624 C96.671,8.249 94.752,6.501 92.377,6.501 C89.774,6.501 88.197,8.572 88.197,10.662 C88.197,12.543 89.565,14.747 92.472,14.747 Z M92.586,14.329 C90.933,14.329 89.793,12.6 89.793,10.396 C89.793,8.629 90.667,6.919 92.434,6.919 C94.619,6.919 95.075,9.693 95.075,10.795 C95.075,12.467 94.277,14.329 92.586,14.329 Z M102.713,14.538 L102.713,14.12 C101.023267,14.1016333 100.807152,14.1010211 100.794622,12.5048761 L100.794,7.603 L103.302,7.603 L103.302,6.767 L100.794,6.767 L100.794,4.943 C100.794,4.183 100.794,3.423 100.965,2.853 C101.155,2.283 101.535,1.922 102.295,1.922 C102.618,1.922 102.789,1.979 103.055,2.169 C103.264,2.321 103.321,2.34 103.416,2.34 C103.682,2.34 104.062,2.017 104.062,1.58 C104.062,1.181 103.796,0.801 103.15,0.801 C102.561,0.801 101.763,1.067 100.984,1.846 C99.445,3.366 99.426,5.209 99.407,6.501 C99.027,6.9 98.704,7.109 98.229,7.356 L98.229,7.603 L99.407,7.603 L99.407,13.322 C99.407,14.044 99.122,14.12 98.058,14.12 L98.058,14.538 C98.742,14.538 99.673,14.5 100.224,14.5 C100.68,14.5 102.333,14.538 102.713,14.538 Z M117.286,14.5 C118.084,14.5 118.958,14.538 119.262,14.538 L119.262,14.12 C118.16,14.12 118.008,14.044 118.008,13.265 L118.008,8.192 C118.939,7.584 119.319,7.375 120.041,7.375 C121.314,7.375 121.694,8.173 121.694,9.636 L121.694,13.455 C121.694,14.044 121.523,14.12 120.497,14.12 L120.497,14.538 C120.801,14.538 121.599,14.5 122.397,14.5 C123.195,14.5 124.012,14.538 124.259,14.538 L124.259,14.12 C123.347,14.12 123.081,14.063 123.081,13.189 L123.081,8.743 C123.081,7.546 122.473,6.501 120.991,6.501 C119.889,6.501 119.205,6.957 117.875,7.85 C117.78,7.508 117.495,6.501 115.937,6.501 C114.816,6.501 114.094,6.976 112.935,7.755 L112.935,6.444 C112.935,6.33 112.897,6.273 112.802,6.273 C112.745,6.273 112.707,6.311 112.384,6.444 C111.586,6.786 111.073,6.995 110.674,7.128 L110.674,7.451 C110.883,7.527 111.548,7.736 111.548,8.762 L111.548,13.208 C111.548,14.006 111.339,14.12 110.503,14.12 L110.503,14.538 C110.807,14.519 111.453,14.5 112.232,14.5 C112.973,14.5 114.094,14.519 114.17,14.538 L114.17,14.12 C113.581,14.12 113.277,14.12 113.106,13.949 C112.967818,13.7935455 112.939554,13.4967686 112.935557,12.9301946 L112.935,8.287 C113.429,7.679 114.189,7.413 114.968,7.413 C115.709,7.413 116.621,7.888 116.621,9.332 L116.621,13.569 C116.621,14.006 116.45,14.12 115.557,14.12 L115.557,14.538 C115.823,14.538 116.507,14.5 117.286,14.5 Z M127.489,3.575 C127.945,3.575 128.306,3.195 128.306,2.739 C128.306,2.283 127.945,1.922 127.489,1.922 C127.033,1.922 126.653,2.283 126.653,2.739 C126.653,3.195 127.033,3.575 127.489,3.575 Z M129.275,14.538 L129.275,14.12 C128.243571,14.12 128.142755,14.0165986 128.135492,13.218931 L128.135,6.501 C128.135,6.463 128.135,6.349 128.04,6.349 C127.945,6.349 127.907,6.368 127.565,6.52 C126.995,6.767 126.482,6.938 125.817,7.128 L125.817,7.432 C126.463,7.717 126.748,8.135 126.748,8.515 L126.748,13.417 C126.748,14.12 126.52,14.12 125.532,14.12 L125.532,14.538 C125.817,14.519 126.653,14.5 127.432,14.5 C128.23,14.5 128.971,14.519 129.275,14.538 Z M134.101,18.509 C136.609,18.509 139.022,17.084 139.022,15.203 C139.022,13.626 137.521,13.512 136.419,13.512 C136.138385,13.512 134.85403,13.560568 134.404049,13.5680401 L134.31,13.569 C133.683,13.569 132.676,13.493 132.676,12.752 C132.676,12.334 133.132,11.821 133.417,11.821 C133.645,11.821 133.987,11.897 134.215,11.897 C136.039,11.897 137.483,10.719 137.483,9.256 C137.483,9.047 137.445,8.344 136.913,7.622 C137.616,7.755 138.148,7.774 138.927,7.774 L138.927,7.014 L137.635,7.014 C136.78,7.014 136.4,6.957 135.811,6.786 C135.26,6.634 134.975,6.577 134.462,6.577 C132.201,6.577 131.08,7.926 131.08,9.294 C131.08,10.776 132.315,11.403 132.847,11.669 C132.22,12.03 131.669,12.391 131.593,12.448 C131.479,12.524 131.27,12.657 131.27,13.132 C131.27,13.74 131.821,14.462 132.961,14.652 L132.961,14.69 C132.201,14.918 130.814,15.393 130.814,16.552 C130.814,17.863 132.372,18.509 134.101,18.509 Z M134.348,11.479 C133.455,11.479 132.505,10.719 132.505,9.161 C132.505,7.907 133.17,6.995 134.215,6.995 C135.241,6.995 136.058,7.869 136.058,9.294 C136.058,10.377 135.545,11.479 134.348,11.479 Z M134.69,17.977 C133.341,17.977 132.087,17.312 132.087,16.267 C132.087,15.906 132.258,15.545 132.486,15.317 C132.942,14.842 133.74,14.747 135.013,14.747 C137.103,14.747 137.939,15.051 137.939,16.058 C137.939,17.236 136.305,17.977 134.69,17.977 Z M144.551,14.538 L144.551,14.12 L144,14.12 C142.805714,14.12 142.714376,13.8787302 142.708386,13.2813001 L142.708,9.218 C142.708,8.743 143.221,7.888 144.076,7.888 C144.323,7.888 144.456,7.907 144.722,8.078 C144.931,8.211 145.026,8.249 145.178,8.249 C145.653,8.249 146.014,7.888 146.014,7.318 C146.014,6.748 145.634,6.501 145.197,6.501 C144,6.501 143.24,7.546 142.746,8.325 L142.708,8.325 L142.708,6.52 C142.708,6.425 142.651,6.311 142.537,6.311 C142.48,6.311 142.157,6.501 141.967,6.615 C141.188,7.052 140.827,7.223 140.409,7.413 L140.409,7.641 C141.226,8.135 141.321,8.211 141.321,8.781 L141.321,13.588 C141.321,14.12 140.656,14.12 140.048,14.12 L140.048,14.538 C140.314,14.519 141.074,14.5 142.062,14.5 C143.031,14.5 144.247,14.538 144.551,14.538 Z M153.063,14.747 C153.557,14.747 153.937,14.519 154.659,13.911 L154.545,13.607 C154.298,13.74 154.108,13.816 153.861,13.816 C153.253,13.816 153.177,13.151 153.177,12.828 L153.177,8.363 C153.177,7.242 152.436,6.501 151.372,6.501 C149.833,6.501 148.028,7.888 147.876,8.04 C147.705,8.211 147.42,8.8 147.42,9.085 C147.42,9.199 147.515,9.351 147.686,9.351 C147.8,9.351 148.066,9.256 148.161,9.218 C148.655,9.009 148.655,8.895 148.674,8.648 C148.769,7.451 149.795,7.337 150.232,7.337 C150.935,7.337 151.486,7.717 151.676,8.211 C151.809,8.572 151.771,9.427 151.771,10.206 C149.358,11.042 148.693,11.327 148.085,11.707 C147.686,11.954 147.192,12.334 147.192,13.132 C147.192,14.044 147.876,14.747 149.054,14.747 C150.137,14.747 150.878,14.215 151.847,13.512 C151.923,14.253 152.303,14.747 153.063,14.747 Z M149.928,14.006 C149.244,14.006 148.579,13.588 148.579,12.733 C148.579,11.726 149.168,11.498 151.79,10.605 L151.79,13.018 C151.258,13.531 150.688,14.006 149.928,14.006 Z M164.786,14.538 L164.786,14.12 C163.988,14.12 163.798,14.12 163.798,13.436 L163.798,8.743 C163.798,7.432 162.962,6.501 161.708,6.501 C160.644,6.501 159.77,7.033 158.497,7.869 L158.497,6.425 C158.497,6.368 158.478,6.311 158.402,6.311 C158.364,6.311 158.326,6.33 157.965,6.501 C156.901,6.995 156.635,7.09 156.179,7.261 L156.179,7.527 C156.92,7.983 157.11,8.097 157.11,8.591 L157.11,13.512 C157.11,14.063 156.996,14.12 155.932,14.12 L155.932,14.538 C156.274,14.519 157.034,14.5 157.794,14.5 C158.554,14.5 159.333,14.519 159.675,14.538 L159.675,14.12 L159.420591,14.1192292 C158.638322,14.1115207 158.497,14.0267273 158.497,13.094 L158.497,8.268 C158.801,8.021 159.599,7.394 160.739,7.394 C162.107,7.394 162.411,8.249 162.411,9.503 L162.411,13.512 C162.411,14.063 162.221,14.12 161.29,14.12 L161.29,14.538 C161.613,14.519 162.335,14.5 163.038,14.5 C163.76,14.519 164.482,14.519 164.786,14.538 Z M168.795,14.747 C169.688,14.747 170.372,14.329 170.999,13.664 L170.828,13.436 C170.543,13.607 170.144,13.873 169.574,13.873 C168.481087,13.873 168.386051,12.7008904 168.377787,12.0342616 L168.377,7.603 L171.094,7.603 L171.094,6.767 L168.377,6.767 C168.377,6.577 168.396,6.254 168.396,6.102 C168.415,5.779 168.434,5.304 168.434,5.095 L168.168,5.095 C167.56,5.931 167.104,6.425 165.964,7.356 L165.964,7.603 L167.066,7.603 C167.030533,8.91526667 166.995067,12.0978089 166.990495,12.547211 L166.990928,12.7787413 C167.00173,13.5838316 167.136571,14.747 168.795,14.747 Z M174.951,14.747 C176.604,14.747 177.877,13.74 177.877,12.277 C177.877,11.308 177.402,10.567 175.54,9.826 C174.21,9.313 173.716,8.819 173.716,8.173 C173.716,7.489 174.362,6.9 175.198,6.9 C175.369,6.9 176.718,6.9 177.079,8.61 L177.459,8.61 L177.345,6.881 C176.3,6.501 175.502,6.501 175.331,6.501 C173.602,6.501 172.595,7.527 172.595,8.8 C172.595,10.168 173.754,10.776 174.894,11.232 C176.357,11.802 176.623,12.277 176.623,12.904 C176.623,13.721 176.034,14.253 175.046,14.253 C173.45,14.253 172.994,12.885 172.747,12.125 L172.462,12.239 C172.576,13.246 172.595,13.512 172.652,14.12 C173.089,14.348 173.868,14.747 174.951,14.747 Z M187.586,14.747 C189.41,14.747 190.493,13.379 190.873,12.923 L190.607,12.695 C190.284,12.98 189.562,13.569 188.517,13.569 C187.168,13.569 185.363,12.372 185.363,10.073 C185.363,8.496 186.218,7.014 187.738,7.014 C188.555,7.014 189.106,7.432 189.391,7.85 C189.714,8.306 189.752,8.363 190.056,8.363 C190.493,8.363 190.74,7.983 190.74,7.622 C190.74,6.729 189.315,6.501 188.479,6.501 C185.724,6.501 183.995,8.629 183.995,10.966 C183.995,13.455 186.047,14.747 187.586,14.747 Z M196.421,14.747 C198.587,14.747 200.62,13.113 200.62,10.624 C200.62,8.249 198.701,6.501 196.326,6.501 C193.723,6.501 192.146,8.572 192.146,10.662 C192.146,12.543 193.514,14.747 196.421,14.747 Z M196.535,14.329 C194.882,14.329 193.742,12.6 193.742,10.396 C193.742,8.629 194.616,6.919 196.383,6.919 C198.568,6.919 199.024,9.693 199.024,10.795 C199.024,12.467 198.226,14.329 196.535,14.329 Z M210.899,14.538 L210.899,14.12 C210.101,14.12 209.911,14.12 209.911,13.436 L209.911,8.743 C209.911,7.432 209.075,6.501 207.821,6.501 C206.757,6.501 205.883,7.033 204.61,7.869 L204.61,6.425 C204.61,6.368 204.591,6.311 204.515,6.311 C204.477,6.311 204.439,6.33 204.078,6.501 C203.014,6.995 202.748,7.09 202.292,7.261 L202.292,7.527 C203.033,7.983 203.223,8.097 203.223,8.591 L203.223,13.512 C203.223,14.063 203.109,14.12 202.045,14.12 L202.045,14.538 C202.387,14.519 203.147,14.5 203.907,14.5 C204.667,14.5 205.446,14.519 205.788,14.538 L205.788,14.12 L205.533591,14.1192292 C204.751322,14.1115207 204.61,14.0267273 204.61,13.094 L204.61,8.268 C204.914,8.021 205.712,7.394 206.852,7.394 C208.22,7.394 208.524,8.249 208.524,9.503 L208.524,13.512 C208.524,14.063 208.334,14.12 207.403,14.12 L207.403,14.538 C207.726,14.519 208.448,14.5 209.151,14.5 C209.873,14.519 210.595,14.519 210.899,14.538 Z M214.908,14.747 C215.801,14.747 216.485,14.329 217.112,13.664 L216.941,13.436 C216.656,13.607 216.257,13.873 215.687,13.873 C214.594087,13.873 214.499051,12.7008904 214.490787,12.0342616 L214.49,7.603 L217.207,7.603 L217.207,6.767 L214.49,6.767 C214.49,6.577 214.509,6.254 214.509,6.102 C214.528,5.779 214.547,5.304 214.547,5.095 L214.281,5.095 C213.673,5.931 213.217,6.425 212.077,7.356 L212.077,7.603 L213.179,7.603 C213.143533,8.91526667 213.108067,12.0978089 213.103495,12.547211 L213.103928,12.7787413 C213.11473,13.5838316 213.249571,14.747 214.908,14.747 Z M222.888,14.538 L222.888,14.12 L222.337,14.12 C221.142714,14.12 221.051376,13.8787302 221.045386,13.2813001 L221.045,9.218 C221.045,8.743 221.558,7.888 222.413,7.888 C222.66,7.888 222.793,7.907 223.059,8.078 C223.268,8.211 223.363,8.249 223.515,8.249 C223.99,8.249 224.351,7.888 224.351,7.318 C224.351,6.748 223.971,6.501 223.534,6.501 C222.337,6.501 221.577,7.546 221.083,8.325 L221.045,8.325 L221.045,6.52 C221.045,6.425 220.988,6.311 220.874,6.311 C220.817,6.311 220.494,6.501 220.304,6.615 C219.525,7.052 219.164,7.223 218.746,7.413 L218.746,7.641 C219.563,8.135 219.658,8.211 219.658,8.781 L219.658,13.588 C219.658,14.12 218.993,14.12 218.385,14.12 L218.385,14.538 C218.651,14.519 219.411,14.5 220.399,14.5 C221.368,14.5 222.584,14.538 222.888,14.538 Z M227.41,3.575 C227.866,3.575 228.227,3.195 228.227,2.739 C228.227,2.283 227.866,1.922 227.41,1.922 C226.954,1.922 226.574,2.283 226.574,2.739 C226.574,3.195 226.954,3.575 227.41,3.575 Z M229.196,14.538 L229.196,14.12 C228.164571,14.12 228.063755,14.0165986 228.056492,13.218931 L228.056,6.501 C228.056,6.463 228.056,6.349 227.961,6.349 C227.866,6.349 227.828,6.368 227.486,6.52 C226.916,6.767 226.403,6.938 225.738,7.128 L225.738,7.432 C226.384,7.717 226.669,8.135 226.669,8.515 L226.669,13.417 C226.669,14.12 226.441,14.12 225.453,14.12 L225.453,14.538 C225.738,14.519 226.574,14.5 227.353,14.5 C228.151,14.5 228.892,14.519 229.196,14.538 Z M234.801,14.747 C237.442,14.747 239.209,12.429 239.209,10.168 C239.209,8.002 237.632,6.501 235.96,6.501 C235.428,6.501 234.326,6.634 233.053,7.85 L233.053,0.972 C233.053,0.877 233.015,0.801 232.92,0.801 C232.844,0.801 232.825,0.82 232.54,0.953 C232.255,1.086 231.628,1.39 230.773,1.656 L230.773,1.998 C231.077,2.017 231.685,2.036 231.685,2.91 L231.685,11.745 C231.685,12.125 231.571,13.987 231.533,14.405 L231.723,14.5 L232.255,14.234 C232.635,14.386 233.737,14.747 234.801,14.747 Z M235.257,14.329 C233.794,14.329 233.053,13.056 233.053,12.353 L233.053,8.268 C233.756,7.584 234.497,7.432 234.915,7.432 C235.998,7.432 237.822,8.705 237.822,11.08 C237.822,12.961 236.72,14.329 235.257,14.329 Z M243.332,14.747 C244.453,14.747 245.422,14.158 246.562,13.284 L246.562,14.728 L246.847,14.728 C247.113,14.728 247.512,14.595 247.778,14.538 L249.146,14.272 L249.146,13.93 L248.234,13.968 C247.987,13.987 247.949,13.93 247.949,13.797 L247.968,6.881 C247.968,6.691 247.911,6.615 247.816,6.615 C247.664,6.615 245.479,6.919 245.156,6.957 L245.156,7.28 C245.745,7.451 246.011,7.565 246.562,7.793 L246.562,12.752 C245.973,13.398 245.194,13.892 244.32,13.892 C243.294,13.892 242.705,13.246 242.705,12.087 L242.705,6.9 C242.705,6.653 242.705,6.615 242.553,6.615 C242.534,6.615 242.021,6.672 241.926,6.672 C241.85,6.691 241.071,6.748 240.349,6.767 L240.349,7.128 C240.653,7.185 241.318,7.318 241.318,8.154 L241.318,12.562 C241.318,13.835 242.059,14.747 243.332,14.747 Z M253.06,14.747 C253.953,14.747 254.637,14.329 255.264,13.664 L255.093,13.436 C254.808,13.607 254.409,13.873 253.839,13.873 C252.746087,13.873 252.651051,12.7008904 252.642787,12.0342616 L252.642,7.603 L255.359,7.603 L255.359,6.767 L252.642,6.767 C252.642,6.577 252.661,6.254 252.661,6.102 C252.68,5.779 252.699,5.304 252.699,5.095 L252.433,5.095 C251.825,5.931 251.369,6.425 250.229,7.356 L250.229,7.603 L251.331,7.603 C251.295533,8.91526667 251.260067,12.0978089 251.255495,12.547211 L251.255928,12.7787413 C251.26673,13.5838316 251.401571,14.747 253.06,14.747 Z M258.437,3.575 C258.893,3.575 259.254,3.195 259.254,2.739 C259.254,2.283 258.893,1.922 258.437,1.922 C257.981,1.922 257.601,2.283 257.601,2.739 C257.601,3.195 257.981,3.575 258.437,3.575 Z M260.223,14.538 L260.223,14.12 C259.191571,14.12 259.090755,14.0165986 259.083492,13.218931 L259.083,6.501 C259.083,6.463 259.083,6.349 258.988,6.349 C258.893,6.349 258.855,6.368 258.513,6.52 C257.943,6.767 257.43,6.938 256.765,7.128 L256.765,7.432 C257.411,7.717 257.696,8.135 257.696,8.515 L257.696,13.417 C257.696,14.12 257.468,14.12 256.48,14.12 L256.48,14.538 C256.765,14.519 257.601,14.5 258.38,14.5 C259.178,14.5 259.919,14.519 260.223,14.538 Z M270.426,14.538 L270.426,14.12 C269.628,14.12 269.438,14.12 269.438,13.436 L269.438,8.743 C269.438,7.432 268.602,6.501 267.348,6.501 C266.284,6.501 265.41,7.033 264.137,7.869 L264.137,6.425 C264.137,6.368 264.118,6.311 264.042,6.311 C264.004,6.311 263.966,6.33 263.605,6.501 C262.541,6.995 262.275,7.09 261.819,7.261 L261.819,7.527 C262.56,7.983 262.75,8.097 262.75,8.591 L262.75,13.512 C262.75,14.063 262.636,14.12 261.572,14.12 L261.572,14.538 C261.914,14.519 262.674,14.5 263.434,14.5 C264.194,14.5 264.973,14.519 265.315,14.538 L265.315,14.12 L265.060591,14.1192292 C264.278322,14.1115207 264.137,14.0267273 264.137,13.094 L264.137,8.268 C264.441,8.021 265.239,7.394 266.379,7.394 C267.747,7.394 268.051,8.249 268.051,9.503 L268.051,13.512 C268.051,14.063 267.861,14.12 266.93,14.12 L266.93,14.538 C267.253,14.519 267.975,14.5 268.678,14.5 C269.4,14.519 270.122,14.519 270.426,14.538 Z M275.138,18.509 C277.646,18.509 280.059,17.084 280.059,15.203 C280.059,13.626 278.558,13.512 277.456,13.512 C277.175385,13.512 275.89103,13.560568 275.441049,13.5680401 L275.347,13.569 C274.72,13.569 273.713,13.493 273.713,12.752 C273.713,12.334 274.169,11.821 274.454,11.821 C274.682,11.821 275.024,11.897 275.252,11.897 C277.076,11.897 278.52,10.719 278.52,9.256 C278.52,9.047 278.482,8.344 277.95,7.622 C278.653,7.755 279.185,7.774 279.964,7.774 L279.964,7.014 L278.672,7.014 C277.817,7.014 277.437,6.957 276.848,6.786 C276.297,6.634 276.012,6.577 275.499,6.577 C273.238,6.577 272.117,7.926 272.117,9.294 C272.117,10.776 273.352,11.403 273.884,11.669 C273.257,12.03 272.706,12.391 272.63,12.448 C272.516,12.524 272.307,12.657 272.307,13.132 C272.307,13.74 272.858,14.462 273.998,14.652 L273.998,14.69 C273.238,14.918 271.851,15.393 271.851,16.552 C271.851,17.863 273.409,18.509 275.138,18.509 Z M275.385,11.479 C274.492,11.479 273.542,10.719 273.542,9.161 C273.542,7.907 274.207,6.995 275.252,6.995 C276.278,6.995 277.095,7.869 277.095,9.294 C277.095,10.377 276.582,11.479 275.385,11.479 Z M275.727,17.977 C274.378,17.977 273.124,17.312 273.124,16.267 C273.124,15.906 273.295,15.545 273.523,15.317 C273.979,14.842 274.777,14.747 276.05,14.747 C278.14,14.747 278.976,15.051 278.976,16.058 C278.976,17.236 277.342,17.977 275.727,17.977 Z M288.096,14.747 C288.989,14.747 289.673,14.329 290.3,13.664 L290.129,13.436 C289.844,13.607 289.445,13.873 288.875,13.873 C287.782087,13.873 287.687051,12.7008904 287.678787,12.0342616 L287.678,7.603 L290.395,7.603 L290.395,6.767 L287.678,6.767 C287.678,6.577 287.697,6.254 287.697,6.102 C287.716,5.779 287.735,5.304 287.735,5.095 L287.469,5.095 C286.861,5.931 286.405,6.425 285.265,7.356 L285.265,7.603 L286.367,7.603 C286.331533,8.91526667 286.296067,12.0978089 286.291495,12.547211 L286.291928,12.7787413 C286.30273,13.5838316 286.437571,14.747 288.096,14.747 Z M295.924,14.747 C298.09,14.747 300.123,13.113 300.123,10.624 C300.123,8.249 298.204,6.501 295.829,6.501 C293.226,6.501 291.649,8.572 291.649,10.662 C291.649,12.543 293.017,14.747 295.924,14.747 Z M296.038,14.329 C294.385,14.329 293.245,12.6 293.245,10.396 C293.245,8.629 294.119,6.919 295.886,6.919 C298.071,6.919 298.527,9.693 298.527,10.795 C298.527,12.467 297.729,14.329 296.038,14.329 Z M308.882,14.747 C309.775,14.747 310.459,14.329 311.086,13.664 L310.915,13.436 C310.63,13.607 310.231,13.873 309.661,13.873 C308.568087,13.873 308.473051,12.7008904 308.464787,12.0342616 L308.464,7.603 L311.181,7.603 L311.181,6.767 L308.464,6.767 C308.464,6.577 308.483,6.254 308.483,6.102 C308.502,5.779 308.521,5.304 308.521,5.095 L308.255,5.095 C307.647,5.931 307.191,6.425 306.051,7.356 L306.051,7.603 L307.153,7.603 C307.117533,8.91526667 307.082067,12.0978089 307.077495,12.547211 L307.077928,12.7787413 C307.08873,13.5838316 307.223571,14.747 308.882,14.747 Z M321.156,14.519 L321.156,14.12 C320.282,14.12 320.035,14.044 320.035,13.341 L320.035,9.579 C320.035,7.546 319.009,6.501 317.66,6.501 C316.634,6.501 315.798,7.147 314.867,7.983 L314.867594,1.0254375 C314.865813,0.8971875 314.848,0.801 314.734,0.801 C314.335,0.972 313.898,1.181 313.632,1.276 C313.157,1.447 312.701,1.58 312.302,1.694 L312.302,1.979 C312.663,2.074 313.48,2.283 313.48,3.29 L313.48,13.284 C313.48,14.006 313.29,14.12 312.245,14.12 L312.245,14.519 C313.442,14.481 315.152,14.5 316.102,14.519 L316.102,14.12 C315.076,14.12 314.867,14.101 314.867,13.341 L314.867,8.401 C315.513,7.831 315.988,7.527 316.824,7.527 C318.496,7.527 318.648,8.952 318.648,11.707 C318.648,12.144 318.629,13.873 318.401,14.006 C318.325,14.044 318.135,14.12 317.679,14.12 L317.679,14.519 L319.218,14.5 C319.484,14.5 320.852,14.538 321.156,14.519 Z M326.001,14.747 C327.711,14.747 328.661,13.626 329.345,12.752 L329.098,12.524 C328.718,12.885 327.901,13.683 326.666,13.683 C326.229,13.683 323.645,13.55 323.835,9.446 C324.367,9.427 324.842,9.408 325.621,9.408 C326.096,9.408 328.433,9.484 328.946,9.484 C329.117,9.484 329.212,9.446 329.212,9.085 C329.212,7.755 328.072,6.501 326.267,6.501 C324.405,6.501 322.429,7.888 322.429,10.814 C322.429,13.854 324.576,14.747 326.001,14.747 Z M327.388,8.952 L323.816,8.952 C323.949,8.458 324.405,6.919 326.096,6.919 C327.084,6.919 327.73,7.565 327.73,8.458 C327.73,8.914 327.559,8.952 327.388,8.952 Z M342.322,14.747 C344.488,14.747 345.837,14.177 346.559,13.873 L346.882,11.384 L346.559,11.346 C345.932,14.215 343.006,14.234 342.74,14.234 C339.605,14.234 337.382,11.099 337.382,7.926 C337.382,5.722 338.541,2.435 342.55,2.435 C344.659,2.435 346.198,3.29 346.559,5.209 L346.882,5.209 L346.73,2.815 C345.343,2.245 343.861,1.922 342.36,1.922 C338.142,1.922 335.52,5.019 335.52,8.382 C335.52,11.004 337.363,14.747 342.322,14.747 Z M355.413,14.747 C358.453,14.747 361.702,12.182 361.702,8.306 C361.702,4.677 358.757,1.922 355.299,1.922 C351.898,1.922 348.858,4.658 348.858,8.287 C348.858,11.46 351.271,14.747 355.413,14.747 Z M355.565,14.234 C352.658,14.234 350.72,11.118 350.72,7.869 C350.72,5.532 351.803,2.435 355.147,2.435 C357.959,2.435 359.84,5.551 359.84,8.8 C359.84,11.897 358.168,14.234 355.565,14.234 Z M368.523,14.5 L372.665,3.974 C373.197,2.644 373.691,2.568 374.128,2.568 L374.128,2.15 C373.748,2.15 373.121,2.188 372.418,2.188 C371.696,2.188 370.898,2.15 370.499,2.15 L370.499,2.568 C370.955,2.568 371.905,2.587 371.905,3.328 C371.905,3.746 371.734,4.202 371.696,4.316 L368.675,12.296 L365.521,3.974 C365.426,3.708 365.293,3.309 365.293,3.024 C365.293,2.568 365.806,2.568 366.49,2.568 L366.49,2.15 C366.209385,2.15 365.41071,2.1823787 364.527353,2.18736004 L364.305,2.188 C363.355,2.188 362.367,2.15 361.911,2.15 L361.911,2.568 C362.671,2.568 363.241,2.568 363.944,4.392 L367.782,14.5 L368.523,14.5 Z M380.075,14.538 L380.075,14.12 C379.258,14.12 378.574,14.044 378.574,12.809 L378.574,3.689 C378.574,2.606 379.201,2.568 380.075,2.568 L380.075,2.15 C379.068,2.15 378.422,2.188 377.814,2.188 C377.206,2.188 376.579,2.169 375.382,2.15 L375.382,2.568 C376.56,2.568 376.94,2.568 376.94,4.373 L376.94,13.056 C376.94,14.006 376.427,14.12 375.382,14.12 L375.382,14.538 C376.199,14.519 377.035,14.481 377.757,14.5 C378.498,14.519 379.106,14.519 380.075,14.538 Z M390.164,13.911 C392.197,13.056 393.888,11.099 393.888,8.306 C393.888,4.962 391.095,2.15 387.314,2.15 C386.383,2.15 384.825,2.188 383.894,2.188 C383.362,2.188 382.013,2.15 381.462,2.15 L381.462,2.568 C382.241,2.568 383.096,2.644 383.096,3.879 L383.096,12.467 C383.096,14.006 382.469,14.12 381.405,14.12 L381.405,14.538 C381.861,14.538 382.64,14.5 383.495,14.5 C383.849667,14.5 384.767071,14.5331022 385.830125,14.5375159 L386.06,14.538 C386.934,14.538 388.777,14.5 390.164,13.911 Z M386.858,14.025 C385.224,14.025 384.73,13.569 384.73,12.41 L384.73,2.777 C385.3,2.701 385.68,2.663 386.231,2.663 C388.131,2.663 389.575,3.347 390.544,4.449 C391.513,5.532 392.026,6.995 392.026,8.496 C392.026,9.864 391.627,11.251 390.772,12.296 C389.917,13.341 388.625,14.025 386.858,14.025 Z M398.011,10.814 L398.809,10.795 C398.828,10.795 399.398,10.795 400.158,10.814 L400.386,9.693 C398.353,9.712 398.125,9.712 396.073,9.693 L395.845,10.814 L398.011,10.814 Z M408.86,14.538 L408.86,14.12 L408.486329,14.119543 C407.032593,14.1138305 406.84036,14.0367123 406.827724,12.9956158 L406.827,5.494 C406.827,5.019 406.865,2.682 406.884,2.15 L406.694,2.036 C405.611,2.872 403.996,3.879 402.666,4.582 L402.875,4.924 C404.186,4.24 404.509,4.069 405.326,3.613 L405.326,12.866 C405.326,14.0186667 405.202669,14.114214 403.751414,14.1197104 L403.236,14.12 L403.236,14.538 C403.578,14.519 404.775,14.5 405.953,14.5 C407.112,14.5 408.271,14.519 408.86,14.538 Z M410.817,14.842 C411.843,14.633 413.914,14.253 415.814,12.6 C417.353,11.27 418.702,9.161 418.702,6.615 C418.702,4.259 417.334,2.131 415.054,2.131 C412.983,2.131 411.178,3.841 411.178,5.931 C411.178,7.527 412.223,9.104 414.047,9.104 C415.681,9.104 416.612,7.888 417.106,7.166 L417.144,7.204 C416.916,9.104 416.137,10.947 414.769,12.315 C413.249,13.835 411.539,14.272 410.703,14.5 L410.817,14.842 Z M414.864,8.078 C413.572,8.078 412.641,6.9 412.641,5.342 C412.641,4.259 413.211,2.625 414.788,2.625 C416.308,2.625 417.106,4.373 417.106,5.988 C417.106,6.444 417.049,6.805 416.536,7.318 C415.966,7.888 415.377,8.078 414.864,8.078 Z M35.225,33.538 L35.225,33.12 L34.674,33.12 C33.4797143,33.12 33.3883764,32.8787302 33.3823857,32.2813001 L33.382,28.218 C33.382,27.743 33.895,26.888 34.75,26.888 C34.997,26.888 35.13,26.907 35.396,27.078 C35.605,27.211 35.7,27.249 35.852,27.249 C36.327,27.249 36.688,26.888 36.688,26.318 C36.688,25.748 36.308,25.501 35.871,25.501 C34.674,25.501 33.914,26.546 33.42,27.325 L33.382,27.325 L33.382,25.52 C33.382,25.425 33.325,25.311 33.211,25.311 C33.154,25.311 32.831,25.501 32.641,25.615 C31.862,26.052 31.501,26.223 31.083,26.413 L31.083,26.641 C31.9,27.135 31.995,27.211 31.995,27.781 L31.995,32.588 C31.995,33.12 31.33,33.12 30.722,33.12 L30.722,33.538 C30.988,33.519 31.748,33.5 32.736,33.5 C33.705,33.5 34.921,33.538 35.225,33.538 Z M40.963,33.747 C42.673,33.747 43.623,32.626 44.307,31.752 L44.06,31.524 C43.68,31.885 42.863,32.683 41.628,32.683 C41.191,32.683 38.607,32.55 38.797,28.446 C39.329,28.427 39.804,28.408 40.583,28.408 C41.058,28.408 43.395,28.484 43.908,28.484 C44.079,28.484 44.174,28.446 44.174,28.085 C44.174,26.755 43.034,25.501 41.229,25.501 C39.367,25.501 37.391,26.888 37.391,29.814 C37.391,32.854 39.538,33.747 40.963,33.747 Z M42.35,27.952 L38.778,27.952 C38.911,27.458 39.367,25.919 41.058,25.919 C42.046,25.919 42.692,26.565 42.692,27.458 C42.692,27.914 42.521,27.952 42.35,27.952 Z M48.202,33.747 C49.855,33.747 51.128,32.74 51.128,31.277 C51.128,30.308 50.653,29.567 48.791,28.826 C47.461,28.313 46.967,27.819 46.967,27.173 C46.967,26.489 47.613,25.9 48.449,25.9 C48.62,25.9 49.969,25.9 50.33,27.61 L50.71,27.61 L50.596,25.881 C49.551,25.501 48.753,25.501 48.582,25.501 C46.853,25.501 45.846,26.527 45.846,27.8 C45.846,29.168 47.005,29.776 48.145,30.232 C49.608,30.802 49.874,31.277 49.874,31.904 C49.874,32.721 49.285,33.253 48.297,33.253 C46.701,33.253 46.245,31.885 45.998,31.125 L45.713,31.239 C45.827,32.246 45.846,32.512 45.903,33.12 C46.34,33.348 47.119,33.747 48.202,33.747 Z M56.657,37.623 L56.657,37.186 L56.144,37.186 C55.023,37.186 55.004,36.958 55.004,36.635 L55.004,33.386 C55.707,33.652 56.239,33.747 56.676,33.747 C58.69,33.747 61.16,31.847 61.16,29.149 C61.16,27.173 59.697,25.501 57.911,25.501 C56.676,25.501 55.84,26.185 55.004,26.85 L55.004,25.501 C55.004,25.444 55.004,25.349 54.871,25.349 L54.719,25.368 C54.415,25.482 52.971,26.166 52.629,26.299 L52.629,26.584 C52.952,26.66 53.617,26.793 53.617,27.534 L53.617,36.635 C53.617,37.11 53.465,37.167 52.306,37.186 L52.306,37.623 C52.534,37.623 53.37,37.585 54.339,37.585 C55.289,37.585 56.372,37.623 56.657,37.623 Z M57.132,33.234 C56.543,33.234 55.004,32.911 55.004,31.828 L55.004,27.306 C55.27,27.059 55.84,26.489 56.866,26.489 C58.519,26.489 59.735,28.028 59.735,29.89 C59.735,31.543 58.785,33.234 57.132,33.234 Z M67.088,33.747 C69.254,33.747 71.287,32.113 71.287,29.624 C71.287,27.249 69.368,25.501 66.993,25.501 C64.39,25.501 62.813,27.572 62.813,29.662 C62.813,31.543 64.181,33.747 67.088,33.747 Z M67.202,33.329 C65.549,33.329 64.409,31.6 64.409,29.396 C64.409,27.629 65.283,25.919 67.05,25.919 C69.235,25.919 69.691,28.693 69.691,29.795 C69.691,31.467 68.893,33.329 67.202,33.329 Z M81.566,33.538 L81.566,33.12 C80.768,33.12 80.578,33.12 80.578,32.436 L80.578,27.743 C80.578,26.432 79.742,25.501 78.488,25.501 C77.424,25.501 76.55,26.033 75.277,26.869 L75.277,25.425 C75.277,25.368 75.258,25.311 75.182,25.311 C75.144,25.311 75.106,25.33 74.745,25.501 C73.681,25.995 73.415,26.09 72.959,26.261 L72.959,26.527 C73.7,26.983 73.89,27.097 73.89,27.591 L73.89,32.512 C73.89,33.063 73.776,33.12 72.712,33.12 L72.712,33.538 L72.964016,33.526752 C73.358,33.51216 73.966,33.5 74.574,33.5 C75.334,33.5 76.113,33.519 76.455,33.538 L76.455,33.12 L76.2005913,33.1192292 C75.4183223,33.1115207 75.277,33.0267273 75.277,32.094 L75.277,27.268 C75.581,27.021 76.379,26.394 77.519,26.394 C78.887,26.394 79.191,27.249 79.191,28.503 L79.191,32.512 C79.191,33.063 79.001,33.12 78.07,33.12 L78.07,33.538 C78.393,33.519 79.115,33.5 79.818,33.5 C80.54,33.519 81.262,33.519 81.566,33.538 Z M85.594,33.747 C87.247,33.747 88.52,32.74 88.52,31.277 C88.52,30.308 88.045,29.567 86.183,28.826 C84.853,28.313 84.359,27.819 84.359,27.173 C84.359,26.489 85.005,25.9 85.841,25.9 C86.012,25.9 87.361,25.9 87.722,27.61 L88.102,27.61 L87.988,25.881 C86.943,25.501 86.145,25.501 85.974,25.501 C84.245,25.501 83.238,26.527 83.238,27.8 C83.238,29.168 84.397,29.776 85.537,30.232 C87,30.802 87.266,31.277 87.266,31.904 C87.266,32.721 86.677,33.253 85.689,33.253 C84.093,33.253 83.637,31.885 83.39,31.125 L83.105,31.239 C83.219,32.246 83.238,32.512 83.295,33.12 C83.732,33.348 84.511,33.747 85.594,33.747 Z M93.593,33.747 C95.303,33.747 96.253,32.626 96.937,31.752 L96.69,31.524 C96.31,31.885 95.493,32.683 94.258,32.683 C93.821,32.683 91.237,32.55 91.427,28.446 C91.959,28.427 92.434,28.408 93.213,28.408 C93.688,28.408 96.025,28.484 96.538,28.484 C96.709,28.484 96.804,28.446 96.804,28.085 C96.804,26.755 95.664,25.501 93.859,25.501 C91.997,25.501 90.021,26.888 90.021,29.814 C90.021,32.854 92.168,33.747 93.593,33.747 Z M94.98,27.952 L91.408,27.952 C91.541,27.458 91.997,25.919 93.688,25.919 C94.676,25.919 95.322,26.565 95.322,27.458 C95.322,27.914 95.151,27.952 94.98,27.952 Z M108.831,33.747 C109.325,33.747 109.705,33.519 110.427,32.911 L110.313,32.607 C110.066,32.74 109.876,32.816 109.629,32.816 C109.021,32.816 108.945,32.151 108.945,31.828 L108.945,27.363 C108.945,26.242 108.204,25.501 107.14,25.501 C105.601,25.501 103.796,26.888 103.644,27.04 C103.473,27.211 103.188,27.8 103.188,28.085 C103.188,28.199 103.283,28.351 103.454,28.351 C103.568,28.351 103.834,28.256 103.929,28.218 C104.423,28.009 104.423,27.895 104.442,27.648 C104.537,26.451 105.563,26.337 106,26.337 C106.703,26.337 107.254,26.717 107.444,27.211 C107.577,27.572 107.539,28.427 107.539,29.206 C105.126,30.042 104.461,30.327 103.853,30.707 C103.454,30.954 102.96,31.334 102.96,32.132 C102.96,33.044 103.644,33.747 104.822,33.747 C105.905,33.747 106.646,33.215 107.615,32.512 C107.691,33.253 108.071,33.747 108.831,33.747 Z M105.696,33.006 C105.012,33.006 104.347,32.588 104.347,31.733 C104.347,30.726 104.936,30.498 107.558,29.605 L107.558,32.018 C107.026,32.531 106.456,33.006 105.696,33.006 Z M120.554,33.538 L120.554,33.12 C119.756,33.12 119.566,33.12 119.566,32.436 L119.566,27.743 C119.566,26.432 118.73,25.501 117.476,25.501 C116.412,25.501 115.538,26.033 114.265,26.869 L114.265,25.425 C114.265,25.368 114.246,25.311 114.17,25.311 C114.132,25.311 114.094,25.33 113.733,25.501 C112.669,25.995 112.403,26.09 111.947,26.261 L111.947,26.527 C112.688,26.983 112.878,27.097 112.878,27.591 L112.878,32.512 C112.878,33.063 112.764,33.12 111.7,33.12 L111.7,33.538 C112.042,33.519 112.802,33.5 113.562,33.5 C114.322,33.5 115.101,33.519 115.443,33.538 L115.443,33.12 L115.188591,33.1192292 C114.406322,33.1115207 114.265,33.0267273 114.265,32.094 L114.265,27.268 C114.569,27.021 115.367,26.394 116.507,26.394 C117.875,26.394 118.179,27.249 118.179,28.503 L118.179,32.512 C118.179,33.063 117.989,33.12 117.058,33.12 L117.058,33.538 C117.381,33.519 118.103,33.5 118.806,33.5 C119.528,33.519 120.25,33.519 120.554,33.538 Z M128.344,33.747 C128.42,33.747 128.515,33.709 128.534,33.69 C128.667,33.633 130.51,33.139 130.757,33.063 L130.757,32.778 C130.605,32.778 130.187,32.816 130.016,32.816 C129.600375,32.816 129.548422,32.7432656 129.541928,32.1777559 L129.541,20.124 C129.541,19.972 129.446,19.801 129.294,19.801 C129.275,19.801 128.705,20.029 128.686,20.029 C128.002,20.295 127.356,20.485 126.976,20.58 L126.976,20.827 C127.85,21.188 128.173,21.302 128.173,21.891 L128.173,25.805 C127.584,25.596 127.071,25.501 126.539,25.501 C124.297,25.501 121.884,27.325 121.884,30.042 C121.884,32.36 123.613,33.747 125.342,33.747 C126.805,33.747 127.774,32.816 128.23,32.398 L128.23,33.595 C128.23,33.69 128.249,33.747 128.344,33.747 Z M126.406,32.778 C124.468,32.778 123.309,31.163 123.309,29.32 C123.309,27.458 124.43,25.995 126.102,25.995 C127.375,25.995 128.173,26.793 128.173,27.667 L128.173,31.353 C128.173,32.664 126.9,32.778 126.406,32.778 Z M139.231,33.747 C140.884,33.747 142.157,32.74 142.157,31.277 C142.157,30.308 141.682,29.567 139.82,28.826 C138.49,28.313 137.996,27.819 137.996,27.173 C137.996,26.489 138.642,25.9 139.478,25.9 C139.649,25.9 140.998,25.9 141.359,27.61 L141.739,27.61 L141.625,25.881 C140.58,25.501 139.782,25.501 139.611,25.501 C137.882,25.501 136.875,26.527 136.875,27.8 C136.875,29.168 138.034,29.776 139.174,30.232 C140.637,30.802 140.903,31.277 140.903,31.904 C140.903,32.721 140.314,33.253 139.326,33.253 C137.73,33.253 137.274,31.885 137.027,31.125 L136.742,31.239 C136.856,32.246 136.875,32.512 136.932,33.12 C137.369,33.348 138.148,33.747 139.231,33.747 Z M149.795,33.747 C150.289,33.747 150.669,33.519 151.391,32.911 L151.277,32.607 C151.03,32.74 150.84,32.816 150.593,32.816 C149.985,32.816 149.909,32.151 149.909,31.828 L149.909,27.363 C149.909,26.242 149.168,25.501 148.104,25.501 C146.565,25.501 144.76,26.888 144.608,27.04 C144.437,27.211 144.152,27.8 144.152,28.085 C144.152,28.199 144.247,28.351 144.418,28.351 C144.532,28.351 144.798,28.256 144.893,28.218 C145.387,28.009 145.387,27.895 145.406,27.648 C145.501,26.451 146.527,26.337 146.964,26.337 C147.667,26.337 148.218,26.717 148.408,27.211 C148.541,27.572 148.503,28.427 148.503,29.206 C146.09,30.042 145.425,30.327 144.817,30.707 C144.418,30.954 143.924,31.334 143.924,32.132 C143.924,33.044 144.608,33.747 145.786,33.747 C146.869,33.747 147.61,33.215 148.579,32.512 C148.655,33.253 149.035,33.747 149.795,33.747 Z M146.66,33.006 C145.976,33.006 145.311,32.588 145.311,31.733 C145.311,30.726 145.9,30.498 148.522,29.605 L148.522,32.018 C147.99,32.531 147.42,33.006 146.66,33.006 Z M155.647,33.728 L158.402,27.116 C158.763,26.261 159.333,26.166 159.599,26.147 L159.599,25.729 C159.124,25.729 158.649,25.767 158.174,25.767 C157.718,25.767 157.243,25.729 156.787,25.729 L156.787,26.147 C157.186,26.166 157.775,26.204 157.775,26.831 C157.775,27.173 157.585,27.724 157.433,28.085 L155.932,31.771 L154.146,27.078 C154.108,27.021 154.051,26.831 154.051,26.66 C154.051,26.185 154.64,26.166 155.001,26.147 L155.001,25.729 C154.013,25.748 153.519,25.767 153.177,25.767 C152.645,25.767 152.132,25.748 151.505,25.729 L151.505,26.147 C151.847,26.166 152.36,26.204 152.645,26.964 L155.248,33.728 L155.647,33.728 Z M162.715,22.575 C163.171,22.575 163.532,22.195 163.532,21.739 C163.532,21.283 163.171,20.922 162.715,20.922 C162.259,20.922 161.879,21.283 161.879,21.739 C161.879,22.195 162.259,22.575 162.715,22.575 Z M164.501,33.538 L164.501,33.12 C163.469571,33.12 163.368755,33.0165986 163.361492,32.218931 L163.361,25.501 C163.361,25.463 163.361,25.349 163.266,25.349 C163.171,25.349 163.133,25.368 162.791,25.52 C162.221,25.767 161.708,25.938 161.043,26.128 L161.043,26.432 C161.689,26.717 161.974,27.135 161.974,27.515 L161.974,32.417 C161.974,33.12 161.746,33.12 160.758,33.12 L160.758,33.538 C161.043,33.519 161.879,33.5 162.658,33.5 C163.456,33.5 164.197,33.519 164.501,33.538 Z M174.704,33.538 L174.704,33.12 C173.906,33.12 173.716,33.12 173.716,32.436 L173.716,27.743 C173.716,26.432 172.88,25.501 171.626,25.501 C170.562,25.501 169.688,26.033 168.415,26.869 L168.415,25.425 C168.415,25.368 168.396,25.311 168.32,25.311 C168.282,25.311 168.244,25.33 167.883,25.501 C166.819,25.995 166.553,26.09 166.097,26.261 L166.097,26.527 C166.838,26.983 167.028,27.097 167.028,27.591 L167.028,32.512 C167.028,33.063 166.914,33.12 165.85,33.12 L165.85,33.538 C166.192,33.519 166.952,33.5 167.712,33.5 C168.472,33.5 169.251,33.519 169.593,33.538 L169.593,33.12 L169.338591,33.1192292 C168.556322,33.1115207 168.415,33.0267273 168.415,32.094 L168.415,27.268 C168.719,27.021 169.517,26.394 170.657,26.394 C172.025,26.394 172.329,27.249 172.329,28.503 L172.329,32.512 C172.329,33.063 172.139,33.12 171.208,33.12 L171.208,33.538 C171.531,33.519 172.253,33.5 172.956,33.5 C173.678,33.519 174.4,33.519 174.704,33.538 Z M179.416,37.509 C181.924,37.509 184.337,36.084 184.337,34.203 C184.337,32.626 182.836,32.512 181.734,32.512 C181.453385,32.512 180.16903,32.560568 179.719049,32.5680401 L179.625,32.569 C178.998,32.569 177.991,32.493 177.991,31.752 C177.991,31.334 178.447,30.821 178.732,30.821 C178.96,30.821 179.302,30.897 179.53,30.897 C181.354,30.897 182.798,29.719 182.798,28.256 C182.798,28.047 182.76,27.344 182.228,26.622 C182.931,26.755 183.463,26.774 184.242,26.774 L184.242,26.014 L182.95,26.014 C182.095,26.014 181.715,25.957 181.126,25.786 C180.575,25.634 180.29,25.577 179.777,25.577 C177.516,25.577 176.395,26.926 176.395,28.294 C176.395,29.776 177.63,30.403 178.162,30.669 C177.535,31.03 176.984,31.391 176.908,31.448 C176.794,31.524 176.585,31.657 176.585,32.132 C176.585,32.74 177.136,33.462 178.276,33.652 L178.276,33.69 C177.516,33.918 176.129,34.393 176.129,35.552 C176.129,36.863 177.687,37.509 179.416,37.509 Z M179.663,30.479 C178.77,30.479 177.82,29.719 177.82,28.161 C177.82,26.907 178.485,25.995 179.53,25.995 C180.556,25.995 181.373,26.869 181.373,28.294 C181.373,29.377 180.86,30.479 179.663,30.479 Z M180.005,36.977 C178.656,36.977 177.402,36.312 177.402,35.267 C177.402,34.906 177.573,34.545 177.801,34.317 C178.257,33.842 179.055,33.747 180.328,33.747 C182.418,33.747 183.254,34.051 183.254,35.058 C183.254,36.236 181.62,36.977 180.005,36.977 Z M191.538,33.5 C192.336,33.5 193.153,33.519 193.438,33.538 L193.438,33.12 C192.469,33.12 192.298,33.101 192.298,32.075 L192.298,20.067 C192.298,19.915 192.279,19.801 192.203,19.801 C192.127,19.801 192.108,19.82 191.861,19.934 C191.595,20.048 190.246,20.409 189.809,20.504 L189.809,20.789 C190.531,21.15 190.911,21.378 190.911,21.853 L190.911,31.904 C190.911,33.025 190.778,33.12 189.695,33.12 L189.695,33.538 C189.961,33.538 190.74,33.5 191.538,33.5 Z M196.763,22.575 C197.219,22.575 197.58,22.195 197.58,21.739 C197.58,21.283 197.219,20.922 196.763,20.922 C196.307,20.922 195.927,21.283 195.927,21.739 C195.927,22.195 196.307,22.575 196.763,22.575 Z M198.549,33.538 L198.549,33.12 C197.517571,33.12 197.416755,33.0165986 197.409492,32.218931 L197.409,25.501 C197.409,25.463 197.409,25.349 197.314,25.349 C197.219,25.349 197.181,25.368 196.839,25.52 C196.269,25.767 195.756,25.938 195.091,26.128 L195.091,26.432 C195.737,26.717 196.022,27.135 196.022,27.515 L196.022,32.417 C196.022,33.12 195.794,33.12 194.806,33.12 L194.806,33.538 C195.091,33.519 195.927,33.5 196.706,33.5 C197.504,33.5 198.245,33.519 198.549,33.538 Z M203.508,33.728 L206.263,27.116 C206.624,26.261 207.194,26.166 207.46,26.147 L207.46,25.729 C206.985,25.729 206.51,25.767 206.035,25.767 C205.579,25.767 205.104,25.729 204.648,25.729 L204.648,26.147 C205.047,26.166 205.636,26.204 205.636,26.831 C205.636,27.173 205.446,27.724 205.294,28.085 L203.793,31.771 L202.007,27.078 C201.969,27.021 201.912,26.831 201.912,26.66 C201.912,26.185 202.501,26.166 202.862,26.147 L202.862,25.729 C201.874,25.748 201.38,25.767 201.038,25.767 C200.506,25.767 199.993,25.748 199.366,25.729 L199.366,26.147 C199.708,26.166 200.221,26.204 200.506,26.964 L203.109,33.728 L203.508,33.728 Z M211.374,33.747 C213.084,33.747 214.034,32.626 214.718,31.752 L214.471,31.524 C214.091,31.885 213.274,32.683 212.039,32.683 C211.602,32.683 209.018,32.55 209.208,28.446 C209.74,28.427 210.215,28.408 210.994,28.408 C211.469,28.408 213.806,28.484 214.319,28.484 C214.49,28.484 214.585,28.446 214.585,28.085 C214.585,26.755 213.445,25.501 211.64,25.501 C209.778,25.501 207.802,26.888 207.802,29.814 C207.802,32.854 209.949,33.747 211.374,33.747 Z M212.761,27.952 L209.189,27.952 C209.322,27.458 209.778,25.919 211.469,25.919 C212.457,25.919 213.103,26.565 213.103,27.458 C213.103,27.914 212.932,27.952 212.761,27.952 Z M218.613,33.747 C220.266,33.747 221.539,32.74 221.539,31.277 C221.539,30.308 221.064,29.567 219.202,28.826 C217.872,28.313 217.378,27.819 217.378,27.173 C217.378,26.489 218.024,25.9 218.86,25.9 C219.031,25.9 220.38,25.9 220.741,27.61 L221.121,27.61 L221.007,25.881 C219.962,25.501 219.164,25.501 218.993,25.501 C217.264,25.501 216.257,26.527 216.257,27.8 C216.257,29.168 217.416,29.776 218.556,30.232 C220.019,30.802 220.285,31.277 220.285,31.904 C220.285,32.721 219.696,33.253 218.708,33.253 C217.112,33.253 216.656,31.885 216.409,31.125 L216.124,31.239 C216.238,32.246 216.257,32.512 216.314,33.12 C216.751,33.348 217.53,33.747 218.613,33.747 Z M233.737,33.747 C234.231,33.747 234.611,33.519 235.333,32.911 L235.219,32.607 C234.972,32.74 234.782,32.816 234.535,32.816 C233.927,32.816 233.851,32.151 233.851,31.828 L233.851,27.363 C233.851,26.242 233.11,25.501 232.046,25.501 C230.507,25.501 228.702,26.888 228.55,27.04 C228.379,27.211 228.094,27.8 228.094,28.085 C228.094,28.199 228.189,28.351 228.36,28.351 C228.474,28.351 228.74,28.256 228.835,28.218 C229.329,28.009 229.329,27.895 229.348,27.648 C229.443,26.451 230.469,26.337 230.906,26.337 C231.609,26.337 232.16,26.717 232.35,27.211 C232.483,27.572 232.445,28.427 232.445,29.206 C230.032,30.042 229.367,30.327 228.759,30.707 C228.36,30.954 227.866,31.334 227.866,32.132 C227.866,33.044 228.55,33.747 229.728,33.747 C230.811,33.747 231.552,33.215 232.521,32.512 C232.597,33.253 232.977,33.747 233.737,33.747 Z M230.602,33.006 C229.918,33.006 229.253,32.588 229.253,31.733 C229.253,30.726 229.842,30.498 232.464,29.605 L232.464,32.018 C231.932,32.531 231.362,33.006 230.602,33.006 Z M240.349,33.747 C242.173,33.747 243.256,32.379 243.636,31.923 L243.37,31.695 C243.047,31.98 242.325,32.569 241.28,32.569 C239.931,32.569 238.126,31.372 238.126,29.073 C238.126,27.496 238.981,26.014 240.501,26.014 C241.318,26.014 241.869,26.432 242.154,26.85 C242.477,27.306 242.515,27.363 242.819,27.363 C243.256,27.363 243.503,26.983 243.503,26.622 C243.503,25.729 242.078,25.501 241.242,25.501 C238.487,25.501 236.758,27.629 236.758,29.966 C236.758,32.455 238.81,33.747 240.349,33.747 Z M249.336,33.538 L249.336,33.12 L248.785,33.12 C247.590714,33.12 247.499376,32.8787302 247.493386,32.2813001 L247.493,28.218 C247.493,27.743 248.006,26.888 248.861,26.888 C249.108,26.888 249.241,26.907 249.507,27.078 C249.716,27.211 249.811,27.249 249.963,27.249 C250.438,27.249 250.799,26.888 250.799,26.318 C250.799,25.748 250.419,25.501 249.982,25.501 C248.785,25.501 248.025,26.546 247.531,27.325 L247.493,27.325 L247.493,25.52 C247.493,25.425 247.436,25.311 247.322,25.311 C247.265,25.311 246.942,25.501 246.752,25.615 C245.973,26.052 245.612,26.223 245.194,26.413 L245.194,26.641 C246.011,27.135 246.106,27.211 246.106,27.781 L246.106,32.588 C246.106,33.12 245.441,33.12 244.833,33.12 L244.833,33.538 C245.099,33.519 245.859,33.5 246.847,33.5 C247.816,33.5 249.032,33.538 249.336,33.538 Z M255.891,33.747 C258.057,33.747 260.09,32.113 260.09,29.624 C260.09,27.249 258.171,25.501 255.796,25.501 C253.193,25.501 251.616,27.572 251.616,29.662 C251.616,31.543 252.984,33.747 255.891,33.747 Z M256.005,33.329 C254.352,33.329 253.212,31.6 253.212,29.396 C253.212,27.629 254.086,25.919 255.853,25.919 C258.038,25.919 258.494,28.693 258.494,29.795 C258.494,31.467 257.696,33.329 256.005,33.329 Z M264.308,33.747 C265.961,33.747 267.234,32.74 267.234,31.277 C267.234,30.308 266.759,29.567 264.897,28.826 C263.567,28.313 263.073,27.819 263.073,27.173 C263.073,26.489 263.719,25.9 264.555,25.9 C264.726,25.9 266.075,25.9 266.436,27.61 L266.816,27.61 L266.702,25.881 C265.657,25.501 264.859,25.501 264.688,25.501 C262.959,25.501 261.952,26.527 261.952,27.8 C261.952,29.168 263.111,29.776 264.251,30.232 C265.714,30.802 265.98,31.277 265.98,31.904 C265.98,32.721 265.391,33.253 264.403,33.253 C262.807,33.253 262.351,31.885 262.104,31.125 L261.819,31.239 C261.933,32.246 261.952,32.512 262.009,33.12 C262.446,33.348 263.225,33.747 264.308,33.747 Z M271.433,33.747 C273.086,33.747 274.359,32.74 274.359,31.277 C274.359,30.308 273.884,29.567 272.022,28.826 C270.692,28.313 270.198,27.819 270.198,27.173 C270.198,26.489 270.844,25.9 271.68,25.9 C271.851,25.9 273.2,25.9 273.561,27.61 L273.941,27.61 L273.827,25.881 C272.782,25.501 271.984,25.501 271.813,25.501 C270.084,25.501 269.077,26.527 269.077,27.8 C269.077,29.168 270.236,29.776 271.376,30.232 C272.839,30.802 273.105,31.277 273.105,31.904 C273.105,32.721 272.516,33.253 271.528,33.253 C269.932,33.253 269.476,31.885 269.229,31.125 L268.944,31.239 C269.058,32.246 269.077,32.512 269.134,33.12 C269.571,33.348 270.35,33.747 271.433,33.747 Z M283.099,33.747 C283.992,33.747 284.676,33.329 285.303,32.664 L285.132,32.436 C284.847,32.607 284.448,32.873 283.878,32.873 C282.681,32.873 282.681,31.467 282.681,30.859 L282.681,26.603 L285.398,26.603 L285.398,25.767 L282.681,25.767 C282.681,25.577 282.7,25.254 282.7,25.102 C282.719,24.779 282.738,24.304 282.738,24.095 L282.472,24.095 C281.864,24.931 281.408,25.425 280.268,26.356 L280.268,26.603 L281.37,26.603 C281.332,28.009 281.294,31.562 281.294,31.6 C281.294,32.398 281.313,33.747 283.099,33.747 Z M295.373,33.519 L295.373,33.12 C294.499,33.12 294.252,33.044 294.252,32.341 L294.252,28.579 C294.252,26.546 293.226,25.501 291.877,25.501 C290.851,25.501 290.015,26.147 289.084,26.983 L289.084594,20.0254375 C289.082812,19.8971875 289.065,19.801 288.951,19.801 C288.552,19.972 288.115,20.181 287.849,20.276 C287.374,20.447 286.918,20.58 286.519,20.694 L286.519,20.979 C286.88,21.074 287.697,21.283 287.697,22.29 L287.697,32.284 C287.697,33.006 287.507,33.12 286.462,33.12 L286.462,33.519 C287.659,33.481 289.369,33.5 290.319,33.519 L290.319,33.12 C289.293,33.12 289.084,33.101 289.084,32.341 L289.084,27.401 C289.73,26.831 290.205,26.527 291.041,26.527 C292.713,26.527 292.865,27.952 292.865,30.707 C292.865,31.144 292.846,32.873 292.618,33.006 C292.542,33.044 292.352,33.12 291.896,33.12 L291.896,33.519 L293.435,33.5 C293.701,33.5 295.069,33.538 295.373,33.519 Z M300.218,33.747 C301.928,33.747 302.878,32.626 303.562,31.752 L303.315,31.524 C302.935,31.885 302.118,32.683 300.883,32.683 C300.446,32.683 297.862,32.55 298.052,28.446 C298.584,28.427 299.059,28.408 299.838,28.408 C300.313,28.408 302.65,28.484 303.163,28.484 C303.334,28.484 303.429,28.446 303.429,28.085 C303.429,26.755 302.289,25.501 300.484,25.501 C298.622,25.501 296.646,26.888 296.646,29.814 C296.646,32.854 298.793,33.747 300.218,33.747 Z M301.605,27.952 L298.033,27.952 C298.166,27.458 298.622,25.919 300.313,25.919 C301.301,25.919 301.947,26.565 301.947,27.458 C301.947,27.914 301.776,27.952 301.605,27.952 Z M312.701,37.509 C315.209,37.509 317.622,36.084 317.622,34.203 C317.622,32.626 316.121,32.512 315.019,32.512 C314.738385,32.512 313.45403,32.560568 313.004049,32.5680401 L312.91,32.569 C312.283,32.569 311.276,32.493 311.276,31.752 C311.276,31.334 311.732,30.821 312.017,30.821 C312.245,30.821 312.587,30.897 312.815,30.897 C314.639,30.897 316.083,29.719 316.083,28.256 C316.083,28.047 316.045,27.344 315.513,26.622 C316.216,26.755 316.748,26.774 317.527,26.774 L317.527,26.014 L316.235,26.014 C315.38,26.014 315,25.957 314.411,25.786 C313.86,25.634 313.575,25.577 313.062,25.577 C310.801,25.577 309.68,26.926 309.68,28.294 C309.68,29.776 310.915,30.403 311.447,30.669 C310.82,31.03 310.269,31.391 310.193,31.448 C310.079,31.524 309.87,31.657 309.87,32.132 C309.87,32.74 310.421,33.462 311.561,33.652 L311.561,33.69 C310.801,33.918 309.414,34.393 309.414,35.552 C309.414,36.863 310.972,37.509 312.701,37.509 Z M312.948,30.479 C312.055,30.479 311.105,29.719 311.105,28.161 C311.105,26.907 311.77,25.995 312.815,25.995 C313.841,25.995 314.658,26.869 314.658,28.294 C314.658,29.377 314.145,30.479 312.948,30.479 Z M313.29,36.977 C311.941,36.977 310.687,36.312 310.687,35.267 C310.687,34.906 310.858,34.545 311.086,34.317 C311.542,33.842 312.34,33.747 313.613,33.747 C315.703,33.747 316.539,34.051 316.539,35.058 C316.539,36.236 314.905,36.977 313.29,36.977 Z M320.472,33.5 L320.870032,33.5014954 C321.527556,33.5063333 322.1345,33.5221667 322.372,33.538 L322.372,33.12 C321.403,33.12 321.232,33.101 321.232,32.075 L321.232,20.067 C321.232,19.915 321.213,19.801 321.137,19.801 C321.061,19.801 321.042,19.82 320.795,19.934 C320.529,20.048 319.18,20.409 318.743,20.504 L318.743,20.789 C319.465,21.15 319.845,21.378 319.845,21.853 L319.845,31.904 C319.845,33.025 319.712,33.12 318.629,33.12 L318.629,33.538 C318.895,33.538 319.674,33.5 320.472,33.5 Z M328.148,33.747 C330.314,33.747 332.347,32.113 332.347,29.624 C332.347,27.249 330.428,25.501 328.053,25.501 C325.45,25.501 323.873,27.572 323.873,29.662 C323.873,31.543 325.241,33.747 328.148,33.747 Z M328.262,33.329 C326.609,33.329 325.469,31.6 325.469,29.396 C325.469,27.629 326.343,25.919 328.11,25.919 C330.295,25.919 330.751,28.693 330.751,29.795 C330.751,31.467 329.953,33.329 328.262,33.329 Z M338.028,33.747 C340.669,33.747 342.436,31.429 342.436,29.168 C342.436,27.002 340.859,25.501 339.187,25.501 C338.655,25.501 337.553,25.634 336.28,26.85 L336.28,19.972 C336.28,19.877 336.242,19.801 336.147,19.801 C336.071,19.801 336.052,19.82 335.767,19.953 C335.482,20.086 334.855,20.39 334,20.656 L334,20.998 C334.304,21.017 334.912,21.036 334.912,21.91 L334.912,30.745 C334.912,31.125 334.798,32.987 334.76,33.405 L334.95,33.5 L335.482,33.234 C335.862,33.386 336.964,33.747 338.028,33.747 Z M338.484,33.329 C337.021,33.329 336.28,32.056 336.28,31.353 L336.28,27.268 C336.983,26.584 337.724,26.432 338.142,26.432 C339.225,26.432 341.049,27.705 341.049,30.08 C341.049,31.961 339.947,33.329 338.484,33.329 Z M347.528,33.747 C349.238,33.747 350.188,32.626 350.872,31.752 L350.625,31.524 C350.245,31.885 349.428,32.683 348.193,32.683 C347.756,32.683 345.172,32.55 345.362,28.446 C345.894,28.427 346.369,28.408 347.148,28.408 C347.623,28.408 349.96,28.484 350.473,28.484 C350.644,28.484 350.739,28.446 350.739,28.085 C350.739,26.755 349.599,25.501 347.794,25.501 C345.932,25.501 343.956,26.888 343.956,29.814 C343.956,32.854 346.103,33.747 347.528,33.747 Z M348.915,27.952 L345.343,27.952 C345.476,27.458 345.932,25.919 347.623,25.919 C348.611,25.919 349.257,26.565 349.257,27.458 C349.257,27.914 349.086,27.952 348.915,27.952 Z" id="StoriesofmigrantscontributingtotheCOVID-19responseandsavinglivesacrosstheglobe" fill="#000000" fill-rule="nonzero"></path>
    </g>
</svg>