<?xml version="1.0" encoding="UTF-8"?>
<svg width="587px" height="41px" viewBox="0 0 587 41" version="1.1" xmlns="http://www.w3.org/2000/svg" xmlns:xlink="http://www.w3.org/1999/xlink">
    <!-- Generator: Sketch 64 (93537) - https://sketch.com -->
    <title>logo</title>
    <desc>Created with Sketch.</desc>
    <g id="logo" stroke="none" stroke-width="1" fill="none" fill-rule="evenodd">
        <path d="M5.45654297,31.0839844 C5.87646484,31.0839844 6.61132812,31.069987 7.66113281,31.0419922 C8.7109375,31.0139974 9.7117513,31 10.6635742,31 C11.6013997,31 12.5952148,31.0139974 13.6450195,31.0419922 C14.6948242,31.069987 15.4296875,31.0839844 15.8496094,31.0839844 C16.2135417,31.0839844 16.4619954,31.0454915 16.5949707,30.9685059 C16.727946,30.8915202 16.7944336,30.7270508 16.7944336,30.4750977 C16.7944336,30.2091471 16.4200033,30.0306803 15.6711426,29.9396973 C14.9222819,29.8487142 14.3273926,29.6982422 13.8864746,29.4882812 C13.4455566,29.2783203 13.2250977,28.753418 13.2250977,27.9135742 L13.2250977,27.9135742 L13.2250977,19.2211914 L16.5844727,15.2529297 L24.9829102,31 C26.1027018,31 26.9915365,31.0034993 27.6494141,31.010498 C28.3072917,31.0174967 28.8531901,31.0279948 29.2871094,31.0419922 C29.7210286,31.0559896 30.1199544,31.0664876 30.4838867,31.0734863 C30.847819,31.080485 31.3027344,31.0839844 31.8486328,31.0839844 C32.2265625,31.0839844 32.4785156,31.0559896 32.6044922,31 C32.7304688,30.9440104 32.793457,30.8320312 32.793457,30.6640625 C32.793457,30.3701172 32.6499837,30.177653 32.3630371,30.0866699 C32.0760905,29.9956868 31.7051595,29.8662109 31.2502441,29.6982422 C30.7953288,29.5302734 30.315918,29.2223307 29.8120117,28.7744141 C29.3081055,28.3264974 28.7692057,27.6056315 28.1953125,26.6118164 L28.1953125,26.6118164 L19.9018555,11.3056641 L24.3740234,6.18261719 C25.1438802,5.28678385 25.9067383,4.58341471 26.6625977,4.07250977 C27.418457,3.56160482 28.090332,3.22216797 28.6782227,3.05419922 C29.2661133,2.88623047 29.7000326,2.76375326 29.9799805,2.68676758 C30.2599284,2.6097819 30.3999023,2.48730469 30.3999023,2.31933594 C30.3999023,2.06738281 30.3089193,1.90991211 30.1269531,1.84692383 C29.944987,1.78393555 29.574056,1.75244141 29.0141602,1.75244141 C28.4822591,1.75244141 27.8313802,1.7664388 27.0615234,1.79443359 C26.2916667,1.82242839 25.7387695,1.83642578 25.402832,1.83642578 C25.1508789,1.83642578 24.5909831,1.82242839 23.7231445,1.79443359 C22.855306,1.7664388 22.0504557,1.75244141 21.3085938,1.75244141 C20.7067057,1.75244141 20.4057617,1.92740885 20.4057617,2.27734375 C20.4057617,2.50130208 20.6437174,2.66227214 21.1196289,2.76025391 C21.5955404,2.85823568 21.9839681,3.01220703 22.2849121,3.22216797 C22.5858561,3.43212891 22.7363281,3.90804036 22.7363281,4.64990234 C22.7363281,5.23779297 22.56486,5.84318034 22.2219238,6.46606445 C21.8789876,7.08894857 21.1756185,8.05826823 20.1118164,9.37402344 L20.1118164,9.37402344 L13.3300781,17.793457 L13.2250977,17.793457 L13.2250977,4.94384766 C13.2250977,4.10400391 13.449056,3.57210286 13.8969727,3.34814453 C14.3448893,3.1241862 14.9397786,2.97021484 15.6816406,2.88623047 C16.4235026,2.80224609 16.7944336,2.62727865 16.7944336,2.36132812 C16.7944336,2.109375 16.727946,1.9449056 16.5949707,1.86791992 C16.4619954,1.79093424 16.2135417,1.75244141 15.8496094,1.75244141 C15.4296875,1.75244141 14.6948242,1.7664388 13.6450195,1.79443359 C12.5952148,1.82242839 11.6013997,1.83642578 10.6635742,1.83642578 C9.7117513,1.83642578 8.7109375,1.82242839 7.66113281,1.79443359 C6.61132812,1.7664388 5.87646484,1.75244141 5.45654297,1.75244141 C5.09261068,1.75244141 4.8441569,1.79093424 4.71118164,1.86791992 C4.57820638,1.9449056 4.51171875,2.109375 4.51171875,2.36132812 C4.51171875,2.62727865 4.88264974,2.80224609 5.62451172,2.88623047 C6.3663737,2.97021484 6.96126302,3.1241862 7.40917969,3.34814453 C7.85709635,3.57210286 8.08105469,4.10400391 8.08105469,4.94384766 L8.08105469,4.94384766 L8.08105469,27.9135742 C8.08105469,28.753418 7.8605957,29.2783203 7.41967773,29.4882812 C6.97875977,29.6982422 6.38387044,29.8487142 5.63500977,29.9396973 C4.88614909,30.0306803 4.51171875,30.2091471 4.51171875,30.4750977 C4.51171875,30.7270508 4.57820638,30.8915202 4.71118164,30.9685059 C4.8441569,31.0454915 5.09261068,31.0839844 5.45654297,31.0839844 Z M42.6085937,31.3359375 C44.1343099,31.3359375 45.4920573,31.0629883 46.6818359,30.5170898 C47.8716146,29.9711914 48.8339355,29.3063151 49.5687988,28.5224609 C50.3036621,27.7386068 50.8425618,26.9652507 51.185498,26.2023926 C51.5284342,25.4395345 51.6999023,24.8481445 51.6999023,24.4282227 C51.6999023,24.1622721 51.5949219,24.0292969 51.3849609,24.0292969 C51.2589844,24.0292969 51.164502,24.0747884 51.1015137,24.1657715 C51.0385254,24.2567546 50.9475423,24.4282227 50.8285645,24.6801758 C50.7095866,24.9321289 50.5696126,25.184082 50.4086426,25.4360352 C50.2476725,25.6879883 49.9992187,25.995931 49.6632812,26.3598633 C49.0473958,27.0037435 48.3440267,27.4656576 47.5531738,27.7456055 C46.762321,28.0255534 45.7510091,28.1655273 44.5192383,28.1655273 C43.1894857,28.1655273 41.989209,27.8015951 40.9184082,27.0737305 C39.8476074,26.3458659 39.011263,25.3870443 38.409375,24.1972656 C37.807487,23.007487 37.506543,21.7617188 37.506543,20.4599609 L37.506543,20.4599609 L37.506543,19.9980469 L51.5949219,19.9980469 C51.5949219,18.5003255 51.3569661,17.1985677 50.8810547,16.0927734 C50.4051432,14.9869792 49.7682617,14.0701497 48.9704102,13.3422852 C48.1725586,12.6144206 47.2522298,12.0650228 46.2094238,11.6940918 C45.1666178,11.3231608 44.0433268,11.1376953 42.8395508,11.1376953 C41.4118164,11.1376953 40.0750651,11.4141439 38.8292969,11.967041 C37.5835286,12.5199382 36.5057292,13.2757975 35.5958984,14.2346191 C34.6860677,15.1934408 33.9861979,16.2712402 33.4962891,17.4680176 C33.0063802,18.6647949 32.7614258,19.8930664 32.7614258,21.152832 C32.7614258,23.168457 33.1883464,24.9496257 34.0421875,26.4963379 C34.8960286,28.0430501 36.0718099,29.2363281 37.5695312,30.0761719 C39.0672526,30.9160156 40.7469401,31.3359375 42.6085937,31.3359375 Z M46.8708008,18.9692383 L37.506543,18.9692383 C37.5345378,17.3735352 37.9964518,15.8408203 38.8922852,14.3710938 C39.7881185,12.9013672 41.0408854,12.1665039 42.6505859,12.1665039 C44.0783203,12.1665039 45.138623,12.6599121 45.8314941,13.6467285 C46.5243652,14.6335449 46.8708008,16.0927734 46.8708008,18.0244141 L46.8708008,18.0244141 L46.8708008,18.9692383 Z M58.5755859,40.1123047 C59.4994141,40.1123047 60.2972656,39.744873 60.9691406,39.0100098 C61.6410156,38.2751465 62.396875,36.906901 63.2367187,34.9052734 L63.2367187,34.9052734 L70.9212891,16.5126953 C71.5371745,15.0569661 72.1495605,14.0701497 72.7584473,13.5522461 C73.367334,13.0343424 73.958724,12.6914062 74.5326172,12.5234375 C75.1065104,12.3554688 75.393457,12.1385091 75.393457,11.8725586 C75.393457,11.5506185 75.1205078,11.3896484 74.5746094,11.3896484 C73.8747396,11.3896484 73.1328776,11.4036458 72.3490234,11.4316406 C71.5651693,11.4596354 71.0472656,11.4736328 70.7953125,11.4736328 L70.7157373,11.4732129 C70.4524463,11.4706934 69.9680664,11.4568359 69.2625977,11.4316406 C68.4787435,11.4036458 67.771875,11.3896484 67.1419922,11.3896484 C66.5121094,11.3896484 66.197168,11.5506185 66.197168,11.8725586 C66.197168,12.1245117 66.5331055,12.3169759 67.2049805,12.4499512 C67.8768555,12.5829264 68.4367513,12.8243815 68.884668,13.1743164 C69.3325846,13.5242513 69.556543,14.2311198 69.556543,15.2949219 C69.556543,16.2467448 69.336084,17.3595378 68.895166,18.6333008 C68.454248,19.9070638 67.540918,22.2096354 66.1551758,25.5410156 L66.1551758,25.5410156 L61.5990234,15.1689453 C61.2210937,14.2871094 61.0321289,13.762207 61.0321289,13.5942383 C61.0321289,13.1743164 61.123112,12.9153646 61.3050781,12.8173828 C61.4870443,12.719401 61.8229818,12.5864258 62.3128906,12.418457 C62.8027995,12.2504883 63.0477539,12.0545247 63.0477539,11.8305664 C63.0477539,11.6486003 62.9637695,11.5296224 62.7958008,11.4736328 C62.627832,11.4176432 62.2988932,11.3896484 61.8089844,11.3896484 C61.3190755,11.3896484 60.6751953,11.4036458 59.8773437,11.4316406 C59.0794922,11.4596354 58.505599,11.4736328 58.1556641,11.4736328 L58.0682093,11.4732858 C57.7524002,11.4709722 57.1936612,11.4570904 56.3919922,11.4316406 C55.5101562,11.4036458 54.6913086,11.3896484 53.9354492,11.3896484 C53.6275065,11.3896484 53.4070475,11.4106445 53.2740723,11.4526367 C53.141097,11.4946289 53.0746094,11.6206055 53.0746094,11.8305664 C53.0746094,12.0545247 53.291569,12.2364909 53.7254883,12.3764648 C54.1594076,12.5164388 54.5723307,12.7368978 54.9642578,13.0378418 C55.3561849,13.3387858 55.7621094,13.9371745 56.1820312,14.8330078 L56.1820312,14.8330078 L63.740625,31.6508789 L61.9769531,35.6401367 C61.6690104,36.3260091 61.2980794,36.6689453 60.8641602,36.6689453 C60.5982096,36.6689453 60.3147624,36.4169922 60.0138184,35.9130859 C59.7128743,35.4091797 59.4294271,35.0242513 59.1634766,34.7583008 C58.897526,34.4923503 58.4496094,34.359375 57.8197266,34.359375 C57.1758464,34.359375 56.640446,34.6113281 56.2135254,35.1152344 C55.7866048,35.6191406 55.5731445,36.2420247 55.5731445,36.9838867 C55.5731445,37.949707 55.8705892,38.7125651 56.4654785,39.2724609 C57.0603678,39.8323568 57.763737,40.1123047 58.5755859,40.1123047 Z M109.154102,31.5249023 C109.392057,31.5249023 109.602018,31.2939453 109.783984,30.8320312 L109.783984,30.8320312 L115.683887,16.8486328 C116.243783,15.5608724 116.772184,14.6055501 117.269092,13.982666 C117.765999,13.3597819 118.196419,12.9363607 118.560352,12.7124023 C118.924284,12.488444 119.274219,12.3099772 119.610156,12.177002 C119.946094,12.0440267 120.114063,11.9145508 120.114063,11.7885742 C120.114063,11.5226237 119.9111,11.3896484 119.505176,11.3896484 C119.26722,11.3896484 118.749316,11.4036458 117.951465,11.4316406 C117.153613,11.4596354 116.572721,11.4736328 116.208789,11.4736328 L116.103549,11.4731144 C115.803556,11.4703495 115.348727,11.4565249 114.739063,11.4316406 C114.05319,11.4036458 113.493294,11.3896484 113.059375,11.3896484 C112.569466,11.3896484 112.324512,11.5366211 112.324512,11.8305664 C112.324512,12.0125326 112.586963,12.1490072 113.111865,12.2399902 C113.636768,12.3309733 114.074186,12.5234375 114.424121,12.8173828 C114.774056,13.1113281 114.949023,13.671224 114.949023,14.4970703 C114.949023,15.0989583 114.875537,15.6903483 114.728564,16.2712402 C114.581592,16.8521322 114.32264,17.6254883 113.951709,18.5913086 C113.580778,19.5571289 112.681445,21.8037109 111.253711,25.3310547 L111.253711,25.3310547 L107.075488,14.9589844 C106.879525,14.5110677 106.781543,14.0421549 106.781543,13.5522461 C106.781543,13.1743164 106.883024,12.9013672 107.085986,12.7333984 C107.288949,12.5654297 107.519906,12.4569499 107.778857,12.407959 C108.037809,12.3589681 108.30026,12.2994792 108.566211,12.2294922 C108.832161,12.1595052 108.965137,12.0265299 108.965137,11.8305664 C108.965137,11.6486003 108.898649,11.5296224 108.765674,11.4736328 C108.632699,11.4176432 108.370247,11.3896484 107.97832,11.3896484 C107.810352,11.3896484 107.299447,11.4036458 106.445605,11.4316406 C105.591764,11.4596354 104.772917,11.4736328 103.989063,11.4736328 C103.737109,11.4736328 103.177214,11.4596354 102.309375,11.4316406 C101.441536,11.4036458 100.594694,11.3896484 99.7688477,11.3896484 C99.4749023,11.3896484 99.2649414,11.4106445 99.1389648,11.4526367 C99.0129883,11.4946289 98.95,11.6206055 98.95,11.8305664 C98.95,11.9985352 99.1459635,12.1420085 99.5378906,12.2609863 C99.9298177,12.3799642 100.304248,12.5619303 100.661182,12.8068848 C101.018115,13.0518392 101.350553,13.5522461 101.658496,14.3081055 L101.658496,14.3081055 L102.960254,17.4155273 L99.390918,25.0161133 L95.3806641,14.9589844 C95.1847005,14.5110677 95.0867188,14.0701497 95.0867188,13.6362305 C95.0867188,13.1463216 95.1916992,12.8278809 95.4016602,12.6809082 C95.6116211,12.5339355 95.9195638,12.4114583 96.3254883,12.3134766 C96.7314128,12.2154948 96.934375,12.0545247 96.934375,11.8305664 C96.934375,11.6206055 96.8783854,11.4946289 96.7664063,11.4526367 C96.6544271,11.4106445 96.4374674,11.3896484 96.1155273,11.3896484 C95.4856445,11.3896484 94.7717773,11.4036458 93.9739258,11.4316406 C93.1760742,11.4596354 92.6161784,11.4736328 92.2942383,11.4736328 C91.5943685,11.4736328 90.7895182,11.4596354 89.8796875,11.4316406 C88.9698568,11.4036458 88.3819661,11.3896484 88.1160156,11.3896484 C87.6541016,11.3896484 87.4231445,11.5366211 87.4231445,11.8305664 C87.4231445,11.9285482 87.598112,12.0405273 87.9480469,12.1665039 C88.2979818,12.2924805 88.640918,12.4954427 88.9768555,12.7753906 C89.312793,13.0553385 89.6277344,13.5522461 89.9216797,14.2661133 L89.9216797,14.2661133 L96.5144531,30.8320312 C96.6964193,31.2939453 96.9203776,31.5249023 97.1863281,31.5249023 C97.4382813,31.5249023 97.6552409,31.2939453 97.837207,30.8320312 L97.837207,30.8320312 L103.422168,18.3603516 L108.46123,30.8320312 C108.643197,31.2939453 108.874154,31.5249023 109.154102,31.5249023 Z M131.419922,31.3359375 C133.30957,31.3359375 135.059245,30.8880208 136.668945,29.9921875 C138.278646,29.0963542 139.555908,27.8680827 140.500732,26.307373 C141.445557,24.7466634 141.917969,23.0564779 141.917969,21.2368164 C141.917969,19.8650716 141.652018,18.5668132 141.120117,17.342041 C140.588216,16.1172689 139.839355,15.0359701 138.873535,14.0981445 C137.907715,13.160319 136.791423,12.4324544 135.524658,11.9145508 C134.257894,11.3966471 132.889648,11.1376953 131.419922,11.1376953 C129.964193,11.1376953 128.602946,11.4001465 127.336182,11.9250488 C126.069417,12.4499512 124.963623,13.1673177 124.018799,14.0771484 C123.073975,14.9869792 122.325114,16.0647786 121.772217,17.3105469 C121.21932,18.5563151 120.942871,19.8650716 120.942871,21.2368164 C120.942871,23.0564779 121.415283,24.7466634 122.360107,26.307373 C123.304932,27.8680827 124.582194,29.0963542 126.191895,29.9921875 C127.801595,30.8880208 129.544271,31.3359375 131.419922,31.3359375 Z M131.419922,30.3071289 C130.314128,30.3071289 129.369303,30.0166829 128.585449,29.435791 C127.801595,28.8548991 127.189209,27.8890788 126.748291,26.5383301 C126.307373,25.1875814 126.086914,23.4204102 126.086914,21.2368164 C126.086914,19.0532227 126.307373,17.2895508 126.748291,15.9458008 C127.189209,14.6020508 127.801595,13.6362305 128.585449,13.0483398 C129.369303,12.4604492 130.314128,12.1665039 131.419922,12.1665039 C132.525716,12.1665039 133.47404,12.4639486 134.264893,13.0588379 C135.055745,13.6537272 135.668132,14.6195475 136.102051,15.9562988 C136.53597,17.2930501 136.75293,19.0532227 136.75293,21.2368164 C136.75293,27.2836914 134.97526,30.3071289 131.419922,30.3071289 Z M145.161328,31.0839844 C145.791211,31.0839844 146.617057,31.069987 147.638867,31.0419922 C148.660677,31.0139974 149.39554,31 149.843457,31 C150.305371,31 151.047233,31.0139974 152.069043,31.0419922 C153.090853,31.069987 153.916699,31.0839844 154.546582,31.0839844 C155.120475,31.0839844 155.407422,30.9440104 155.407422,30.6640625 C155.407422,30.3841146 155.074984,30.2021484 154.410107,30.1181641 C153.745231,30.0341797 153.21333,29.8837077 152.814404,29.666748 C152.415479,29.4497884 152.216016,28.9353841 152.216016,28.1235352 L152.216016,28.1235352 L152.216016,22.0136719 C152.216016,20.7259115 152.320996,19.6026204 152.530957,18.6437988 C152.740918,17.6849772 153.013867,16.9116211 153.349805,16.3237305 C153.685742,15.7358398 154.046175,15.2984212 154.431104,15.0114746 C154.816032,14.724528 155.183464,14.5810547 155.533398,14.5810547 C155.897331,14.5810547 156.187777,14.6650391 156.404736,14.8330078 C156.621696,15.0009766 156.86665,15.2494303 157.1396,15.5783691 C157.412549,15.9073079 157.685498,16.1662598 157.958447,16.3552246 C158.231396,16.5441895 158.598828,16.6386719 159.060742,16.6386719 C159.746615,16.6386719 160.341504,16.4252116 160.84541,15.998291 C161.349316,15.5713704 161.60127,14.9799805 161.60127,14.2241211 C161.60127,13.6362305 161.454297,13.1008301 161.160352,12.6179199 C160.866406,12.1350098 160.463981,11.7675781 159.953076,11.515625 C159.442171,11.2636719 158.85778,11.1376953 158.199902,11.1376953 C156.856152,11.1376953 155.652376,11.6905924 154.588574,12.7963867 C153.524772,13.902181 152.719922,15.2669271 152.174023,16.890625 L152.174023,16.890625 L152.090039,16.890625 L152.090039,11.1376953 C150.508333,11.8375651 149.18208,12.327474 148.111279,12.6074219 C147.040479,12.8873698 146.095654,13.0973307 145.276807,13.2373047 C144.457959,13.3772786 144.048535,13.5382487 144.048535,13.7202148 C144.048535,13.9441732 144.199007,14.1121419 144.499951,14.2241211 C144.800895,14.3361003 145.213818,14.4760742 145.738721,14.644043 C146.263623,14.8120117 146.687044,15.0919596 147.008984,15.4838867 C147.330924,15.8758138 147.491895,16.449707 147.491895,17.2055664 L147.491895,17.2055664 L147.491895,28.1235352 C147.491895,28.9353841 147.292432,29.4497884 146.893506,29.666748 C146.49458,29.8837077 145.962679,30.0341797 145.297803,30.1181641 C144.632926,30.2021484 144.300488,30.3841146 144.300488,30.6640625 C144.300488,30.9440104 144.587435,31.0839844 145.161328,31.0839844 Z M162.975977,31.0839844 C163.605859,31.0839844 164.431706,31.069987 165.453516,31.0419922 C166.475326,31.0139974 167.210189,31 167.658105,31 C168.092025,31 168.819889,31.0139974 169.841699,31.0419922 C170.863509,31.069987 171.696354,31.0839844 172.340234,31.0839844 C172.914128,31.0839844 173.201074,30.9440104 173.201074,30.6640625 C173.201074,30.3841146 172.872135,30.2021484 172.214258,30.1181641 C171.55638,30.0341797 171.027979,29.8837077 170.629053,29.666748 C170.230127,29.4497884 170.030664,28.9353841 170.030664,28.1235352 L170.030664,28.1235352 L170.030664,22.5385742 L173.033105,20.4179688 L176.224512,26.5698242 C176.560449,27.1857096 176.801904,27.6546224 176.948877,27.9765625 C177.09585,28.2985026 177.169336,28.5924479 177.169336,28.8583984 C177.169336,29.2783203 177.053857,29.5617676 176.8229,29.7087402 C176.591943,29.8557129 176.263005,29.9501953 175.836084,29.9921875 C175.409163,30.0341797 175.087223,30.0901693 174.870264,30.1601562 C174.653304,30.2301432 174.544824,30.3841146 174.544824,30.6220703 C174.544824,30.930013 174.859766,31.0839844 175.489648,31.0839844 C176.273503,31.0839844 177.162337,31.069987 178.156152,31.0419922 C179.149967,31.0139974 179.83584,31 180.21377,31 C181.025618,31 181.655501,31.0034993 182.103418,31.010498 C182.551335,31.0174967 182.922266,31.0279948 183.216211,31.0419922 C183.510156,31.0559896 183.783105,31.0664876 184.035059,31.0734863 C184.287012,31.080485 184.615951,31.0839844 185.021875,31.0839844 C185.231836,31.0839844 185.389307,31.0769857 185.494287,31.0629883 C185.599268,31.0489909 185.683252,31.0139974 185.74624,30.9580078 C185.809229,30.9020182 185.840723,30.8180339 185.840723,30.7060547 C185.840723,30.4261068 185.753239,30.2546387 185.578271,30.1916504 C185.403304,30.1286621 185.105859,30.0761719 184.685938,30.0341797 C184.266016,29.9921875 183.905583,29.8977051 183.604639,29.7507324 C183.303695,29.6037598 183.034245,29.3343099 182.796289,28.9423828 L182.796289,28.9423828 L176.350488,17.6254883 C176.882389,16.9956055 177.41779,16.358724 177.956689,15.7148438 C178.495589,15.0709635 179.034489,14.5145671 179.573389,14.0456543 C180.112288,13.5767415 180.710677,13.1953125 181.368555,12.9013672 C181.816471,12.6914062 182.204899,12.5444336 182.533838,12.4604492 C182.862777,12.3764648 183.163721,12.3134766 183.43667,12.2714844 C183.709619,12.2294922 183.884587,12.1909993 183.961572,12.1560059 C184.038558,12.1210124 184.077051,12.0265299 184.077051,11.8725586 C184.077051,11.5506185 183.86709,11.3896484 183.447168,11.3896484 C182.859277,11.3896484 182.068424,11.4036458 181.074609,11.4316406 C180.080794,11.4596354 179.366927,11.4736328 178.933008,11.4736328 L178.766594,11.4731144 C178.302088,11.4703495 177.671687,11.4565249 176.875391,11.4316406 C175.979557,11.4036458 175.328678,11.3896484 174.922754,11.3896484 C174.46084,11.3896484 174.229883,11.5646159 174.229883,11.9145508 C174.229883,12.1665039 174.56582,12.337972 175.237695,12.4289551 C175.90957,12.5199382 176.434473,12.6529134 176.812402,12.8278809 C177.190332,13.0028483 177.379297,13.4402669 177.379297,14.1401367 C177.379297,14.8540039 176.756413,15.8513184 175.510645,17.1320801 C174.264876,18.4128418 172.438216,19.8510742 170.030664,21.4467773 L170.030664,21.4467773 L170.030664,-0.389160156 C168.92487,0.12874349 167.896061,0.541666667 166.944238,0.849609375 C165.992415,1.15755208 165.075586,1.41300456 164.19375,1.6159668 C163.311914,1.81892904 162.703027,1.97989909 162.36709,2.09887695 C162.031152,2.21785482 161.863184,2.38932292 161.863184,2.61328125 C161.863184,2.7952474 162.010156,2.93172201 162.304102,3.02270508 C162.598047,3.11368815 163.007471,3.25016276 163.532373,3.43212891 C164.057275,3.61409505 164.480697,3.90804036 164.802637,4.31396484 C165.124577,4.71988932 165.285547,5.34277344 165.285547,6.18261719 L165.285547,6.18261719 L165.285547,28.1235352 C165.285547,28.9353841 165.086084,29.4497884 164.687158,29.666748 C164.288232,29.8837077 163.759831,30.0341797 163.101953,30.1181641 C162.444076,30.2021484 162.115137,30.3841146 162.115137,30.6640625 C162.115137,30.9440104 162.402083,31.0839844 162.975977,31.0839844 Z M196.13877,31.3359375 C197.664486,31.3359375 199.022233,31.0629883 200.212012,30.5170898 C201.40179,29.9711914 202.364111,29.3063151 203.098975,28.5224609 C203.833838,27.7386068 204.372738,26.9652507 204.715674,26.2023926 C205.05861,25.4395345 205.230078,24.8481445 205.230078,24.4282227 C205.230078,24.1622721 205.125098,24.0292969 204.915137,24.0292969 C204.78916,24.0292969 204.694678,24.0747884 204.631689,24.1657715 C204.568701,24.2567546 204.477718,24.4282227 204.35874,24.6801758 C204.239762,24.9321289 204.099788,25.184082 203.938818,25.4360352 C203.777848,25.6879883 203.529395,25.995931 203.193457,26.3598633 C202.577572,27.0037435 201.874202,27.4656576 201.08335,27.7456055 C200.292497,28.0255534 199.281185,28.1655273 198.049414,28.1655273 C196.719661,28.1655273 195.519385,27.8015951 194.448584,27.0737305 C193.377783,26.3458659 192.541439,25.3870443 191.939551,24.1972656 C191.337663,23.007487 191.036719,21.7617188 191.036719,20.4599609 L191.036719,20.4599609 L191.036719,19.9980469 L205.125098,19.9980469 C205.125098,18.5003255 204.887142,17.1985677 204.41123,16.0927734 C203.935319,14.9869792 203.298438,14.0701497 202.500586,13.3422852 C201.702734,12.6144206 200.782406,12.0650228 199.7396,11.6940918 C198.696794,11.3231608 197.573503,11.1376953 196.369727,11.1376953 C194.941992,11.1376953 193.605241,11.4141439 192.359473,11.967041 C191.113704,12.5199382 190.035905,13.2757975 189.126074,14.2346191 C188.216243,15.1934408 187.516374,16.2712402 187.026465,17.4680176 C186.536556,18.6647949 186.291602,19.8930664 186.291602,21.152832 C186.291602,23.168457 186.718522,24.9496257 187.572363,26.4963379 C188.426204,28.0430501 189.601986,29.2363281 191.099707,30.0761719 C192.597428,30.9160156 194.277116,31.3359375 196.13877,31.3359375 Z M200.400977,18.9692383 L191.036719,18.9692383 C191.064714,17.3735352 191.526628,15.8408203 192.422461,14.3710938 C193.318294,12.9013672 194.571061,12.1665039 196.180762,12.1665039 C197.608496,12.1665039 198.668799,12.6599121 199.36167,13.6467285 C200.054541,14.6335449 200.400977,16.0927734 200.400977,18.0244141 L200.400977,18.0244141 L200.400977,18.9692383 Z M208.284473,31.0839844 C208.914355,31.0839844 209.740202,31.069987 210.762012,31.0419922 C211.783822,31.0139974 212.518685,31 212.966602,31 C213.428516,31 214.170378,31.0139974 215.192188,31.0419922 C216.213997,31.069987 217.039844,31.0839844 217.669727,31.0839844 C218.24362,31.0839844 218.530566,30.9440104 218.530566,30.6640625 C218.530566,30.3841146 218.198128,30.2021484 217.533252,30.1181641 C216.868376,30.0341797 216.336475,29.8837077 215.937549,29.666748 C215.538623,29.4497884 215.33916,28.9353841 215.33916,28.1235352 L215.33916,28.1235352 L215.33916,22.0136719 C215.33916,20.7259115 215.444141,19.6026204 215.654102,18.6437988 C215.864063,17.6849772 216.137012,16.9116211 216.472949,16.3237305 C216.808887,15.7358398 217.16932,15.2984212 217.554248,15.0114746 C217.939176,14.724528 218.306608,14.5810547 218.656543,14.5810547 C219.020475,14.5810547 219.310921,14.6650391 219.527881,14.8330078 C219.74484,15.0009766 219.989795,15.2494303 220.262744,15.5783691 C220.535693,15.9073079 220.808643,16.1662598 221.081592,16.3552246 C221.354541,16.5441895 221.721973,16.6386719 222.183887,16.6386719 C222.869759,16.6386719 223.464648,16.4252116 223.968555,15.998291 C224.472461,15.5713704 224.724414,14.9799805 224.724414,14.2241211 C224.724414,13.6362305 224.577441,13.1008301 224.283496,12.6179199 C223.989551,12.1350098 223.587126,11.7675781 223.076221,11.515625 C222.565316,11.2636719 221.980924,11.1376953 221.323047,11.1376953 C219.979297,11.1376953 218.775521,11.6905924 217.711719,12.7963867 C216.647917,13.902181 215.843066,15.2669271 215.297168,16.890625 L215.297168,16.890625 L215.213184,16.890625 L215.213184,11.1376953 C213.631478,11.8375651 212.305225,12.327474 211.234424,12.6074219 C210.163623,12.8873698 209.218799,13.0973307 208.399951,13.2373047 C207.581104,13.3772786 207.17168,13.5382487 207.17168,13.7202148 C207.17168,13.9441732 207.322152,14.1121419 207.623096,14.2241211 C207.92404,14.3361003 208.336963,14.4760742 208.861865,14.644043 C209.386768,14.8120117 209.810189,15.0919596 210.132129,15.4838867 C210.454069,15.8758138 210.615039,16.449707 210.615039,17.2055664 L210.615039,17.2055664 L210.615039,28.1235352 C210.615039,28.9353841 210.415576,29.4497884 210.01665,29.666748 C209.617725,29.8837077 209.085824,30.0341797 208.420947,30.1181641 C207.756071,30.2021484 207.423633,30.3841146 207.423633,30.6640625 C207.423633,30.9440104 207.710579,31.0839844 208.284473,31.0839844 Z M233.279785,31.3359375 C235.757324,31.3359375 237.709961,30.7445475 239.137695,29.5617676 C240.56543,28.3789876 241.279297,26.8217773 241.279297,24.8901367 C241.279297,23.2664388 240.789388,21.9996745 239.80957,21.0898438 C238.829753,20.180013 237.374023,19.3191732 235.442383,18.5073242 C233.510742,17.6954753 232.149495,17.0445964 231.358643,16.5546875 C230.56779,16.0647786 230.172363,15.3299154 230.172363,14.3500977 C230.172363,13.762207 230.462809,13.2513021 231.043701,12.8173828 C231.624593,12.3834635 232.383952,12.1665039 233.321777,12.1665039 C235.631348,12.1665039 237.325033,13.3142904 238.402832,15.6098633 C238.68278,16.1837565 238.903239,16.6806641 239.064209,17.1005859 C239.225179,17.5205078 239.33016,17.7689616 239.37915,17.8459473 C239.428141,17.9229329 239.501628,17.9614258 239.599609,17.9614258 C239.823568,17.9614258 239.935547,17.8214518 239.935547,17.5415039 L239.935547,17.5415039 L239.935547,12.5024414 C239.277669,12.1805013 238.332845,11.8725586 237.101074,11.5786133 C235.869303,11.284668 234.665527,11.1376953 233.489746,11.1376953 C231.236165,11.1376953 229.531982,11.7045898 228.377197,12.8383789 C227.222412,13.972168 226.64502,15.2249349 226.64502,16.5966797 C226.64502,18.1363932 227.12793,19.3436686 228.09375,20.2185059 C229.05957,21.0933431 230.466309,21.9121908 232.313965,22.6750488 C234.161621,23.4379069 235.529867,24.1167806 236.418701,24.7116699 C237.307536,25.3065592 237.751953,26.156901 237.751953,27.2626953 C237.751953,28.1865234 237.419515,28.9248861 236.754639,29.4777832 C236.089762,30.0306803 235.204427,30.3071289 234.098633,30.3071289 C233.188802,30.3071289 232.369954,30.1391602 231.64209,29.8032227 C230.914225,29.4672852 230.270345,28.9878743 229.710449,28.3649902 C229.150553,27.7421061 228.618652,26.96875 228.114746,26.0449219 C227.764811,25.3590495 227.509359,24.7291667 227.348389,24.1552734 C227.187419,23.5813802 227.015951,23.2944336 226.833984,23.2944336 C226.624023,23.2944336 226.519043,23.4274089 226.519043,23.6933594 L226.519043,23.6933594 L226.519043,30.0131836 C228.8986,30.8950195 231.152181,31.3359375 233.279785,31.3359375 Z" id="Keyworkers" fill="#000000" fill-rule="nonzero"></path>
        <polygon id="Line-Copy-6" fill="#000000" fill-rule="nonzero" points="262.25 2.80769231 262.25 32.1923077 260.75 32.1923077 260.75 2.80769231"></polygon>
        <path d="M293.856,13.08 C294.128,13.08 294.32,13.032 294.32,12.904 C294.32,12.76 294.16,12.68 293.792,12.616 C293.039059,12.4804706 292.923903,12.2173841 292.912961,11.5332758 L292.912,4.168 C292.912,3.56 292.96,3.192 293.76,3.048 C294.128,2.984 294.288,2.872 294.288,2.728 C294.288,2.6 294.096,2.552 293.824,2.552 C292.96,2.552 292.944,2.6 292.368,2.6 C291.648,2.6 291.376,2.552 290.512,2.552 C290.24,2.552 290.048,2.6 290.048,2.728 C290.048,2.872 290.208,2.984 290.576,3.048 C291.376,3.192 291.632,3.592 291.632,4.168 L291.632,7.208 C291.632,7.352 291.6,7.4 291.52,7.4 L285.584,7.4 C285.488,7.4 285.36,7.384 285.36,7.256 L285.36,4.184 C285.36,3.56 285.648,3.192 286.448,3.048 C286.816,2.984 286.976,2.872 286.976,2.728 C286.976,2.6 286.784,2.552 286.512,2.552 C285.648,2.552 285.472,2.6 284.816,2.6 C284.176,2.6 284.032,2.552 283.168,2.552 C282.896,2.552 282.704,2.6 282.704,2.728 C282.704,2.872 282.864,2.984 283.232,3.048 C284.032,3.192 284.08,3.448 284.08,4.184 L284.08,11.416 C284.08,12.184 283.92,12.472 283.12,12.616 C282.752,12.68 282.592,12.76 282.592,12.904 C282.592,13.032 282.784,13.08 283.056,13.08 C283.92,13.08 284.128,13 284.816,13 C285.552,13 285.824,13.08 286.688,13.08 C286.96,13.08 287.152,13.032 287.152,12.904 C287.152,12.76 286.992,12.68 286.624,12.616 C285.888,12.488 285.36,11.976 285.36,11.304 L285.36,8.344 C285.36,8.216 285.36,8.168 285.44,8.168 L291.552,8.168 C291.616,8.168 291.630222,8.22488889 291.632593,8.296 L291.632,11.448 C291.632,12.136 291.216,12.488 290.544,12.616 C290.176,12.68 290.016,12.76 290.016,12.904 C290.016,13.032 290.208,13.08 290.48,13.08 C291.344,13.08 291.52,13 292.192,13 C292.848,13 292.992,13.08 293.856,13.08 Z M298.704,13.224 C301.104,13.224 302.32,11.464 302.32,9.592 C302.32,7.864 300.88,6.376 299.024,6.376 C297.056,6.376 295.52,8.232 295.52,10.008 C295.52,11.88 296.912,13.224 298.704,13.224 Z M299.04,12.744 C297.76,12.744 296.832,11.224 296.832,9.64 C296.832,8.872 296.912,8.056 297.344,7.512 C297.728,7.016 298.176,6.872 298.752,6.872 C300.112,6.872 301.008,8.456 301.008,9.976 C301.008,10.6 300.944,11.368 300.688,11.864 C300.368,12.488 299.76,12.744 299.04,12.744 Z M310.128,13.368 C310.192,13.368 310.24,13.32 310.272,13.256 L312.464,8.008 C312.672,7.528 312.992,7.048 313.312,6.952 C313.488,6.888 313.68,6.824 313.68,6.664 C313.68,6.536 313.488,6.52 313.36,6.52 C313.008,6.52 313.024,6.6 312.432,6.6 C311.856,6.6 311.696,6.52 311.232,6.52 C311.12,6.52 310.912,6.536 310.912,6.664 C310.912,6.824 311.104,6.888 311.28,6.952 C311.52,7.032 311.84,7.32 311.84,7.784 C311.84,7.928 311.808,8.104 311.728,8.28 L310.512,11.112 C310.416,11.336 310.352,11.32 310.256,11.096 L309.056,8.008 C308.976,7.816 308.944,7.656 308.944,7.528 C308.944,7.144 309.248,7.032 309.488,6.952 C309.664,6.888 309.856,6.824 309.856,6.664 C309.856,6.536 309.648,6.52 309.536,6.52 C309.184,6.52 308.784,6.6 308.192,6.6 C307.6,6.6 307.28,6.52 306.992,6.52 C306.864,6.52 306.672,6.536 306.672,6.664 C306.672,6.824 306.864,6.904 307.04,6.952 C307.376,7.048 307.84,7.48 307.84,8.072 C307.84,8.216 307.808,8.376 307.744,8.552 L306.688,11.128 C306.592,11.352 306.528,11.368 306.448,11.144 L305.232,8.008 C305.184,7.88 305.152,7.736 305.152,7.592 C305.152,7.288 305.264,7.016 305.488,6.952 C305.664,6.888 305.856,6.824 305.856,6.664 C305.856,6.536 305.616,6.52 305.536,6.52 C305.424,6.52 304.208,6.6 304.208,6.6 C304.208,6.6 303.136,6.52 303.04,6.52 C302.928,6.52 302.72,6.536 302.72,6.664 C302.72,6.824 302.912,6.888 303.088,6.952 C303.408,7.048 303.76,7.32 303.92,7.736 L306.144,13.256 C306.16,13.32 306.208,13.368 306.256,13.368 C306.304,13.368 306.352,13.32 306.384,13.256 L308.128,9.144 C308.224,8.92 308.272,8.968 308.336,9.128 L310,13.256 C310.032,13.32 310.08,13.368 310.128,13.368 Z M328.56,13.048 C328.672,13.048 328.88,13.032 328.88,12.904 C328.88,12.744 328.688,12.68 328.512,12.616 C328.192,12.52 327.824,12.44 327.824,12.008 L327.824,8.6 C327.824,7.48 327.264,6.376 326.224,6.376 C325.184,6.376 324.329558,6.89008081 323.92,7.272 C323.627458,7.54479932 323.556849,7.57129858 323.456,7.336 C323.17274,6.67510498 322.736,6.376 321.968,6.376 C320.704,6.376 319.872961,7.04425708 319.44,7.448 C319.417373,7.42537256 319.408,7.352 319.408,7.256 C319.408,6.952 319.488,6.376 319.488,6.232 C319.488,6.168 319.424,6.12 319.376,6.12 C318.832,6.488 318.432,6.824 317.6,7.016 C317.536,7.032 317.488,7.112 317.488,7.208 C317.488,7.304 317.536,7.4 317.616,7.416 C318.16,7.528 318.24,7.992 318.24,8.568 L318.24,12.008 C318.24,12.44 317.872,12.52 317.552,12.616 C317.376,12.68 317.184,12.744 317.184,12.904 C317.184,13.032 317.376,13.048 317.504,13.048 C318.144,13.048 318.24,12.968 318.8,12.968 C319.36,12.968 319.456,13.048 320.096,13.048 C320.224,13.048 320.416,13.032 320.416,12.904 C320.416,12.744 320.224,12.68 320.048,12.616 C319.728,12.52 319.36,12.44 319.36,12.008 L319.36,8.712 C319.36,8.056 319.6,7.704 319.792,7.56 C320.192,7.24 320.64,7.128 321.184,7.128 C321.872,7.128 322.464,7.88 322.464,8.648 L322.464,12.008 C322.464,12.44 322.08,12.52 321.76,12.616 C321.584,12.68 321.392,12.744 321.392,12.904 C321.392,13.032 321.6,13.048 321.712,13.048 C322.352,13.048 322.48,12.968 323.04,12.968 C323.6,12.968 323.712,13.048 324.352,13.048 C324.48,13.048 324.672,13.032 324.672,12.904 C324.672,12.744 324.48,12.68 324.304,12.616 C323.984,12.52 323.584,12.44 323.584,12.008 L323.584,8.712 C323.584,8.072 323.84,7.704 324.032,7.56 C324.432,7.24 324.88,7.128 325.424,7.128 C326.112,7.128 326.704,7.88 326.704,8.648 L326.704,12.008 C326.704,12.44 326.336,12.52 326.016,12.616 C325.84,12.68 325.648,12.744 325.648,12.904 C325.648,13.032 325.856,13.048 325.968,13.048 C326.608,13.048 326.736,12.968 327.296,12.968 C327.856,12.968 327.92,13.048 328.56,13.048 Z M331.104,4.76 C331.568,4.76 331.92,4.408 331.92,3.96 C331.92,3.496 331.568,3.144 331.104,3.144 C330.656,3.144 330.304,3.496 330.304,3.96 C330.304,4.408 330.656,4.76 331.104,4.76 Z M332.544,13.048 C332.688,13.048 332.864,13.032 332.864,12.904 C332.864,12.744 332.672,12.68 332.496,12.616 C332.176,12.52 331.808,12.44 331.808,12.008 L331.808,8.296 C331.808,7.576 331.888,6.792 331.952,6.136 C331.952,6.088 331.904,6.056 331.84,6.056 C331.712,6.056 330.992,6.712 329.92,6.968 C329.856,6.984 329.808,7.08 329.808,7.16 C329.808,7.256 329.856,7.352 329.936,7.368 C330.48,7.48 330.688,7.96 330.688,8.536 L330.688,12.008 C330.688,12.44 330.32,12.52 330,12.616 C329.824,12.68 329.632,12.744 329.632,12.904 C329.632,13.032 329.824,13.048 329.952,13.048 C330.576,13.048 330.688,12.968 331.248,12.968 C331.808,12.968 331.936,13.048 332.544,13.048 Z M336.288,17.64 C337.904,17.64 339.856,15.992 339.856,14.232 C339.856,12.888 338.32,12.744 336.288,12.552 C335.776,12.504 334.752,12.344 334.752,11.896 C334.752,11.688 335.12,11.368 335.456,11.112 C335.707646,11.2520647 336.16,11.304 336.32,11.304 C337.744,11.304 338.928,9.928 338.928,8.28 C338.928,8.04 338.928,7.72 338.992,7.544 C339.216,7.512 339.072,7.416 339.984,7.416 C340.08,7.416 340.128,7.288 340.128,7.144 C340.128,7 340.096,6.792 339.984,6.792 C339.824,6.792 339.392,6.84 339.136,6.84 C338.816,6.84 338.613609,6.83909375 338.288,6.776 C337.611968,6.6450188 337.296,6.344 336.576,6.344 C335.12,6.344 333.792,7.384 333.792,8.872 C333.792,10.072 334.918178,10.9176802 335.12,10.968 C334.88,11.336 334.48,11.48 334.176,11.704 C333.952,11.88 333.808,12.056 333.808,12.296 C333.808,13.048 334.704,13.384 335.248,13.496 C335.008,13.88 334.576,14.152 334.128,14.44 C333.856,14.6 333.344,15.064 333.344,15.816 C333.344,17.224 334.944,17.64 336.288,17.64 Z M336.48,10.744 C335.568,10.744 334.944,9.68340625 334.944,8.68 C334.944,7.912 335.455656,6.824 336.368,6.824 C337.264,6.824 337.888,7.80004687 337.888,8.76 C337.888,9.8 337.28,10.744 336.48,10.744 Z M336.512,17 C335.248,17 334.48,16.2 334.48,15.144 C334.48,14.888 334.592,14.6 334.864,14.28 C335.072,14.072 335.472,13.672 335.664,13.544 C335.76,13.512 335.92,13.544 336.032,13.544 C336.4,13.56 337.2,13.624 337.6,13.704 C338.128,13.816 338.88,14.152 338.88,14.744 C338.88,16.072 337.76,17 336.512,17 Z M343.6,13.048 C343.712,13.048 343.92,13.032 343.92,12.904 C343.92,12.744 343.728,12.68 343.552,12.616 C343.232,12.52 342.704,12.36 342.688,11.928 L342.688,8.776 C342.688,7.704 343.296,7.432 343.808,7.432 C344.128,7.432 344.496,7.72 344.768,7.72 C345.088,7.72 345.392,7.208 345.392,6.888 C345.392,6.6 345.072,6.376 344.624,6.376 C344.24,6.376 343.648,6.616 343.152,7.064 C343.04,7.16 342.832,7.464 342.768,7.464 C342.752,7.464 342.752,7.464 342.752,7.432 C342.784,6.92 342.8,6.344 342.8,6.232 C342.784,6.184 342.752,6.12 342.704,6.12 L342.672,6.136 L342.672,6.136 C342.24,6.392 341.712,6.824 340.896,7.016 C340.832,7.032 340.752,7.112 340.752,7.208 C340.752,7.304 340.832,7.4 340.912,7.416 C341.44,7.528 341.568,7.992 341.568,8.568 L341.568,12.008 C341.552,12.44 341.28,12.52 340.96,12.616 C340.784,12.68 340.592,12.744 340.592,12.904 C340.592,13.032 340.8,13.048 340.912,13.048 C341.552,13.048 341.648,12.968 342.208,12.968 C342.768,12.968 342.96,13.048 343.6,13.048 Z M350.56,13.224 C351.168,13.224 351.84,12.536 351.84,12.408 C351.84,12.28 351.68,12.168 351.584,12.264 C351.408,12.424 351.232,12.488 350.944,12.488 C350.48,12.488 350.368,11.88 350.368,11.256 L350.448,7.8 C350.464,7.016 349.888,6.376 349.136,6.376 C348.288,6.376 347.248,7.064 346.752,7.512 C346.352,7.864 346.112,8.28 346.112,8.616 C346.112,8.664 346.144,8.76 346.24,8.76 C346.448,8.76 347.344,8.424 347.344,8.2 L347.328,7.976 L347.328,7.976 C347.328,7.864 347.344,7.752 347.392,7.672 C347.52,7.448 347.984,7.16 348.368,7.16 C348.944,7.16 349.328,7.64 349.312,8.184 L349.28,9.208 C349.264,9.64 349.248,9.672 348.832,9.848 L347.2,10.52 C346.416,10.84 346.032,11.288 346.032,11.96 C346.032,12.584 346.752,13.224 347.408,13.224 C348.72,13.208 349.168,12.392 349.376,12.392 C349.504,12.392 349.648,13.224 350.56,13.224 Z M348.096,12.488 C347.792,12.488 347.312,12.216 347.312,11.608 C347.312,11.24 347.68,10.76 348.912,10.344 C348.992,10.312 349.088,10.296 349.136,10.296 C349.264,10.296 349.296,10.392 349.28,10.632 L349.248,11.416 C349.232,11.816 349.168,11.96 349.056,12.056 C348.8,12.28 348.512,12.488 348.096,12.488 Z M359.616,13.048 C359.744,13.048 359.936,13.032 359.936,12.904 C359.936,12.744 359.744,12.68 359.568,12.616 C359.248,12.52 358.88,12.44 358.88,12.008 L358.88,8.6 C358.88,7.352 358.112,6.376 357.072,6.376 C356.064,6.376 355.24,6.736 354.496,7.448 C354.473373,7.42537256 354.464,7.352 354.464,7.256 C354.464,6.952 354.544,6.376 354.544,6.232 C354.544,6.168 354.48,6.12 354.432,6.12 C353.888,6.488 353.488,6.824 352.656,7.016 C352.592,7.032 352.544,7.112 352.544,7.208 C352.544,7.304 352.592,7.4 352.672,7.416 C353.216,7.528 353.298672,7.992 353.296,8.568 L353.296,12.008 C353.296,12.44 352.928,12.52 352.608,12.616 C352.432,12.68 352.24,12.744 352.24,12.904 C352.24,13.032 352.432,13.048 352.56,13.048 C353.2,13.048 353.296,12.968 353.856,12.968 C354.416,12.968 354.512,13.048 355.152,13.048 C355.28,13.048 355.472,13.032 355.472,12.904 C355.472,12.744 355.28,12.68 355.104,12.616 C354.784,12.52 354.416,12.44 354.416,12.008 L354.416,8.712 C354.416,8.056 354.656,7.704 354.848,7.56 C355.248,7.24 355.776,7.144 356.32,7.144 C357.184,7.16 357.76,7.72 357.76,8.648 L357.76,12.008 C357.76,12.44 357.392,12.52 357.072,12.616 C356.896,12.68 356.704,12.744 356.704,12.904 C356.704,13.032 356.912,13.048 357.024,13.048 C357.664,13.048 357.776,12.968 358.336,12.968 C358.896,12.968 358.976,13.048 359.616,13.048 Z M363.328,13.224 C364.304,13.224 365.2,12.424 365.2,12.248 C365.2,12.12 365.136,11.976 365.04,12.04 C364.784,12.232 364.464,12.344 363.84,12.344 C363.344,12.344 362.784,12.024 362.784,10.84 L362.784,7.816 C362.784,7.41485714 362.866776,7.37240816 363.314157,7.36839067 L365.008,7.368 C365.088,7.368 365.168,7.176 365.168,6.984 C365.168,6.792 365.088,6.6 365.008,6.6 L363.184,6.6 C362.976,6.6 362.752,6.52 362.784,6.376 L362.912,5.672 C362.928,5.528 362.736,5.512 362.64,5.512 C362.48,5.512 361.792,6.696 360.944,6.936 C360.912,6.952 360.864,7 360.864,7.048 C360.864,7.16 360.992,7.368 361.056,7.368 C361.552,7.368 361.664,7.416 361.664,7.608 L361.664,11.32 C361.664,12.648 362.336,13.224 363.328,13.224 Z M367.712,13.224 C369.488,13.224 370.016,12.408 370.016,11.304 C370.016,10.248 368.976,9.608 368.496,9.304 C367.984,8.984 367.136,8.488 367.136,7.848 C367.136,7.208 367.536,6.792 368.144,6.792 C368.672,6.792 369.136,7.272 369.152,7.72 C369.152,7.864 369.536,8.056 369.696,8.056 C369.76,8.056 369.792,8.04 369.792,7.992 C369.792,7.544 369.712,6.984 369.52,6.744 C369.36,6.584 368.96,6.376 368.32,6.376 C366.752,6.376 366.176,7.352 366.176,8.264 C366.176,9.048 366.944,9.672 367.712,10.216 C368.416,10.712 368.928,11.096 368.928,11.672 C368.928,12.312 368.576,12.792 367.808,12.792 C367.152,12.792 366.432,12.184 366.32,11.64 C366.304,11.56 366.192,11.528 366.08,11.528 C365.952,11.528 365.808,11.576 365.808,11.672 C365.824,12.04 365.904,12.424 366.016,12.648 C366.112,12.856 366.848,13.224 367.712,13.224 Z M378.784,13.224 C379.392,13.224 380.064,12.536 380.064,12.408 C380.064,12.28 379.904,12.168 379.808,12.264 C379.632,12.424 379.456,12.488 379.168,12.488 C378.704,12.488 378.592,11.88 378.592,11.256 L378.672,7.8 C378.688,7.016 378.112,6.376 377.36,6.376 C376.512,6.376 375.472,7.064 374.976,7.512 C374.576,7.864 374.336,8.28 374.336,8.616 C374.336,8.664 374.368,8.76 374.464,8.76 C374.672,8.76 375.568,8.424 375.568,8.2 L375.552,7.976 L375.552,7.976 C375.552,7.864 375.568,7.752 375.616,7.672 C375.744,7.448 376.208,7.16 376.592,7.16 C377.168,7.16 377.552,7.64 377.536,8.184 L377.504,9.208 C377.488,9.64 377.472,9.672 377.056,9.848 L375.424,10.52 C374.64,10.84 374.256,11.288 374.256,11.96 C374.256,12.584 374.976,13.224 375.632,13.224 C376.944,13.208 377.392,12.392 377.6,12.392 C377.728,12.392 377.872,13.224 378.784,13.224 Z M376.32,12.488 C376.016,12.488 375.536,12.216 375.536,11.608 C375.536,11.24 375.904,10.76 377.136,10.344 C377.216,10.312 377.312,10.296 377.36,10.296 C377.488,10.296 377.52,10.392 377.504,10.632 L377.472,11.416 C377.456,11.816 377.392,11.96 377.28,12.056 C377.024,12.28 376.736,12.488 376.32,12.488 Z M383.552,13.048 C383.664,13.048 383.872,13.032 383.872,12.904 C383.872,12.744 383.68,12.68 383.504,12.616 C383.184,12.52 382.656,12.36 382.64,11.928 L382.64,8.776 C382.64,7.704 383.248,7.432 383.76,7.432 C384.08,7.432 384.448,7.72 384.72,7.72 C385.04,7.72 385.344,7.208 385.344,6.888 C385.344,6.6 385.024,6.376 384.576,6.376 C384.192,6.376 383.6,6.616 383.104,7.064 C382.992,7.16 382.784,7.464 382.72,7.464 C382.704,7.464 382.704,7.464 382.704,7.432 C382.736,6.92 382.752,6.344 382.752,6.232 C382.736,6.184 382.704,6.12 382.656,6.12 L382.624,6.136 L382.624,6.136 C382.192,6.392 381.664,6.824 380.848,7.016 C380.784,7.032 380.704,7.112 380.704,7.208 C380.704,7.304 380.784,7.4 380.864,7.416 C381.392,7.528 381.52,7.992 381.52,8.568 L381.52,12.008 C381.504,12.44 381.232,12.52 380.912,12.616 C380.736,12.68 380.544,12.744 380.544,12.904 C380.544,13.032 380.752,13.048 380.864,13.048 C381.504,13.048 381.6,12.968 382.16,12.968 C382.72,12.968 382.912,13.048 383.552,13.048 Z M388.592,13.224 C390.064,13.224 390.96,12.312 391.12,11.752 C391.152,11.624 391.136,11.432 391.024,11.432 C390.976,11.432 390.896,11.496 390.848,11.544 C390.432,12.088 389.712,12.264 389.312,12.264 C387.872,12.264 386.896,10.92 386.896,9.48 C386.896,8.936 387.04,8.888 387.296,8.888 L390.624,8.888 C391.04,8.888 391.184,8.648 391.184,8.168 C391.184,6.984 390.32,6.376 389.088,6.376 C387.28,6.376 385.904,7.944 385.904,9.752 C385.904,11.88 387.136,13.224 388.592,13.224 Z M388.816,8.392 L387.504,8.392 C387.28,8.392 387.2,8.28 387.2,8.152 C387.2,7.736 387.936,6.872 388.832,6.872 C389.456,6.872 390.144,7.224 390.144,7.864 C390.144,8.04 390.096,8.296 389.984,8.312 C389.648,8.376 389.28,8.392 388.816,8.392 Z M398.16,13.224 C399.536,13.224 400.816,12.328 400.816,11.736 C400.816,11.624 400.72,11.512 400.624,11.512 C400.576,11.512 400.528,11.544 400.48,11.592 C400.064,12.136 399.744,12.392 399.072,12.392 C397.536,12.392 396.528,10.92 396.528,9.384 C396.528,8.216 397.12,6.984 398.288,6.984 C399.088,6.984 399.264,7.16 399.792,7.736 C399.872,7.816 400.048,7.896 400.192,7.896 C400.352,7.896 400.8,7.624 400.8,7.352 C400.8,7.288 400.768,7.224 400.72,7.16 C400.24,6.568 399.488,6.392 398.8,6.392 C396.832,6.392 395.424,8.152 395.424,10.12 C395.424,11.768 396.544,13.224 398.16,13.224 Z M404.64,13.224 C407.04,13.224 408.256,11.464 408.256,9.592 C408.256,7.864 406.816,6.376 404.96,6.376 C402.992,6.376 401.456,8.232 401.456,10.008 C401.456,11.88 402.848,13.224 404.64,13.224 Z M404.976,12.744 C403.696,12.744 402.768,11.224 402.768,9.64 C402.768,8.872 402.848,8.056 403.28,7.512 C403.664,7.016 404.112,6.872 404.688,6.872 C406.048,6.872 406.944,8.456 406.944,9.976 C406.944,10.6 406.88,11.368 406.624,11.864 C406.304,12.488 405.696,12.744 404.976,12.744 Z M416.576,13.048 C416.704,13.048 416.896,13.032 416.896,12.904 C416.896,12.744 416.704,12.68 416.528,12.616 C416.208,12.52 415.84,12.44 415.84,12.008 L415.84,8.6 C415.84,7.352 415.072,6.376 414.032,6.376 C413.024,6.376 412.2,6.736 411.456,7.448 C411.433373,7.42537256 411.424,7.352 411.424,7.256 C411.424,6.952 411.504,6.376 411.504,6.232 C411.504,6.168 411.44,6.12 411.392,6.12 C410.848,6.488 410.448,6.824 409.616,7.016 C409.552,7.032 409.504,7.112 409.504,7.208 C409.504,7.304 409.552,7.4 409.632,7.416 C410.176,7.528 410.258672,7.992 410.256,8.568 L410.256,12.008 C410.256,12.44 409.888,12.52 409.568,12.616 C409.392,12.68 409.2,12.744 409.2,12.904 C409.2,13.032 409.392,13.048 409.52,13.048 C410.16,13.048 410.256,12.968 410.816,12.968 C411.376,12.968 411.472,13.048 412.112,13.048 C412.24,13.048 412.432,13.032 412.432,12.904 C412.432,12.744 412.24,12.68 412.064,12.616 C411.744,12.52 411.376,12.44 411.376,12.008 L411.376,8.712 C411.376,8.056 411.616,7.704 411.808,7.56 C412.208,7.24 412.736,7.144 413.28,7.144 C414.144,7.16 414.72,7.72 414.72,8.648 L414.72,12.008 C414.72,12.44 414.352,12.52 414.032,12.616 C413.856,12.68 413.664,12.744 413.664,12.904 C413.664,13.032 413.872,13.048 413.984,13.048 C414.624,13.048 414.736,12.968 415.296,12.968 C415.856,12.968 415.936,13.048 416.576,13.048 Z M420.288,13.224 C421.264,13.224 422.16,12.424 422.16,12.248 C422.16,12.12 422.096,11.976 422,12.04 C421.744,12.232 421.424,12.344 420.8,12.344 C420.304,12.344 419.744,12.024 419.744,10.84 L419.744,7.816 C419.744,7.41485714 419.826776,7.37240816 420.274157,7.36839067 L421.968,7.368 C422.048,7.368 422.128,7.176 422.128,6.984 C422.128,6.792 422.048,6.6 421.968,6.6 L420.144,6.6 C419.936,6.6 419.712,6.52 419.744,6.376 L419.872,5.672 C419.888,5.528 419.696,5.512 419.6,5.512 C419.44,5.512 418.752,6.696 417.904,6.936 C417.872,6.952 417.824,7 417.824,7.048 C417.824,7.16 417.952,7.368 418.016,7.368 C418.512,7.368 418.624,7.416 418.624,7.608 L418.624,11.32 C418.624,12.648 419.296,13.224 420.288,13.224 Z M425.76,13.048 C425.872,13.048 426.08,13.032 426.08,12.904 C426.08,12.744 425.888,12.68 425.712,12.616 C425.392,12.52 424.864,12.36 424.848,11.928 L424.848,8.776 C424.848,7.704 425.456,7.432 425.968,7.432 C426.288,7.432 426.656,7.72 426.928,7.72 C427.248,7.72 427.552,7.208 427.552,6.888 C427.552,6.6 427.232,6.376 426.784,6.376 C426.4,6.376 425.808,6.616 425.312,7.064 C425.2,7.16 424.992,7.464 424.928,7.464 C424.912,7.464 424.912,7.464 424.912,7.432 C424.944,6.92 424.96,6.344 424.96,6.232 C424.944,6.184 424.912,6.12 424.864,6.12 L424.832,6.136 L424.832,6.136 C424.4,6.392 423.872,6.824 423.056,7.016 C422.992,7.032 422.912,7.112 422.912,7.208 C422.912,7.304 422.992,7.4 423.072,7.416 C423.6,7.528 423.728,7.992 423.728,8.568 L423.728,12.008 C423.712,12.44 423.44,12.52 423.12,12.616 C422.944,12.68 422.752,12.744 422.752,12.904 C422.752,13.032 422.96,13.048 423.072,13.048 C423.712,13.048 423.808,12.968 424.368,12.968 C424.928,12.968 425.12,13.048 425.76,13.048 Z M429.488,4.76 C429.952,4.76 430.304,4.408 430.304,3.96 C430.304,3.496 429.952,3.144 429.488,3.144 C429.04,3.144 428.688,3.496 428.688,3.96 C428.688,4.408 429.04,4.76 429.488,4.76 Z M430.928,13.048 C431.072,13.048 431.248,13.032 431.248,12.904 C431.248,12.744 431.056,12.68 430.88,12.616 C430.56,12.52 430.192,12.44 430.192,12.008 L430.192,8.296 C430.192,7.576 430.272,6.792 430.336,6.136 C430.336,6.088 430.288,6.056 430.224,6.056 C430.096,6.056 429.376,6.712 428.304,6.968 C428.24,6.984 428.192,7.08 428.192,7.16 C428.192,7.256 428.24,7.352 428.32,7.368 C428.864,7.48 429.072,7.96 429.072,8.536 L429.072,12.008 C429.072,12.44 428.704,12.52 428.384,12.616 C428.208,12.68 428.016,12.744 428.016,12.904 C428.016,13.032 428.208,13.048 428.336,13.048 C428.96,13.048 429.072,12.968 429.632,12.968 C430.192,12.968 430.32,13.048 430.928,13.048 Z M435.696,13.224 C438.112,13.224 439.232,11.4 439.232,9.528 C439.232,7.8 438.016,6.376 436.352,6.376 C435.808,6.376 434.816,6.648 434.016,7.32 C433.89,7.306 433.87425,7.1695 433.872281,6.9105 L433.872,3.512 C433.872,2.616 433.92,1.912 433.92,1.832 C433.92,1.784 433.872,1.72 433.824,1.72 C433.808,1.72 433.808,1.736 433.792,1.736 C433.28,1.928 432.8,2.184 431.984,2.376 C431.92,2.392 431.872,2.472 431.872,2.568 C431.872,2.664 431.92,2.76 432,2.776 C432.528,2.888 432.752,3.384 432.752,3.944 L432.752,11.32 C432.752,12.168 432.64,12.824 432.64,12.856 C432.64,12.952 432.768,13.048 432.896,13.048 C432.976,13.048 433.168,12.76 433.36,12.76 C433.584,12.76 434.704,13.224 435.696,13.224 Z M436.064,12.728 C434.944,12.728 433.872,12.008 433.872,10.888 L433.872,8.952 C433.872,8.104 433.984,7.832 434.208,7.592 C434.56,7.208 435.344,7.032 435.792,7.032 C437.312,7.032 438.032,8.648 438.032,9.88 C438.032,11.496 437.28,12.728 436.064,12.728 Z M445.584,13.304 C445.68,13.304 445.904,13.24 445.968,13.208 C446.432,13.016 447.008,12.776 447.84,12.664 C447.92,12.664 448.064,12.616 448.064,12.44 C448.064,12.248 447.904,12.216 447.824,12.232 C447.664,12.264 447.248,12.28 447.088,12.28 C446.851692,12.28 446.806249,11.8982722 446.800655,11.3235831 L446.8,7.784 C446.8,7.528 446.864,6.76 446.928,6.648 C447.008,6.52 446.88,6.36 446.736,6.36 L446.704,6.36 C446.128,6.52 446.256,6.568 444.64,6.648 C444.576,6.648 444.272,6.696 444.272,6.888 C444.272,7.112 444.56,7.16 444.64,7.16 C444.96,7.176 445.68,7.304 445.68,7.96 L445.68,10.888 C445.68,11.544 445.2,11.912 444.96,12.088 C444.56,12.392 444.16,12.408 443.616,12.408 C442.928,12.408 442.272,11.72 442.272,10.952 L442.272,7.832 C442.272,7.352 442.304,7.096 442.368,6.6 C442.384,6.44 442.304,6.36 442.144,6.376 C441.52,6.52 441.36,6.616 440.496,6.648 C440.416,6.664 440.256,6.712 440.256,6.92 C440.256,7.08 440.416,7.144 440.464,7.16 C440.944,7.352 441.152,7.608 441.152,8.072 L441.152,11.32 C441.152,12.568 441.936,13.224 442.976,13.224 C443.968,13.224 444.784,12.904 445.616,12.088 L445.616,12.184 C445.616,12.456 445.536,13.032 445.536,13.24 C445.536,13.288 445.52,13.304 445.584,13.304 Z M451.248,13.224 C452.224,13.224 453.12,12.424 453.12,12.248 C453.12,12.12 453.056,11.976 452.96,12.04 C452.704,12.232 452.384,12.344 451.76,12.344 C451.264,12.344 450.704,12.024 450.704,10.84 L450.704,7.816 C450.704,7.41485714 450.786776,7.37240816 451.234157,7.36839067 L452.928,7.368 C453.008,7.368 453.088,7.176 453.088,6.984 C453.088,6.792 453.008,6.6 452.928,6.6 L451.104,6.6 C450.896,6.6 450.672,6.52 450.704,6.376 L450.832,5.672 C450.848,5.528 450.656,5.512 450.56,5.512 C450.4,5.512 449.712,6.696 448.864,6.936 C448.832,6.952 448.784,7 448.784,7.048 C448.784,7.16 448.912,7.368 448.976,7.368 C449.472,7.368 449.584,7.416 449.584,7.608 L449.584,11.32 C449.584,12.648 450.256,13.224 451.248,13.224 Z M455.104,4.76 C455.568,4.76 455.92,4.408 455.92,3.96 C455.92,3.496 455.568,3.144 455.104,3.144 C454.656,3.144 454.304,3.496 454.304,3.96 C454.304,4.408 454.656,4.76 455.104,4.76 Z M456.544,13.048 C456.688,13.048 456.864,13.032 456.864,12.904 C456.864,12.744 456.672,12.68 456.496,12.616 L456.319195,12.5630113 C456.054347,12.4792727 455.808,12.3614545 455.808,12.008 L455.808,8.296 C455.808,7.576 455.888,6.792 455.952,6.136 C455.952,6.088 455.904,6.056 455.84,6.056 C455.712,6.056 454.992,6.712 453.92,6.968 C453.856,6.984 453.808,7.08 453.808,7.16 C453.808,7.256 453.856,7.352 453.936,7.368 C454.48,7.48 454.688,7.96 454.688,8.536 L454.688,12.008 C454.688,12.44 454.32,12.52 454,12.616 C453.824,12.68 453.632,12.744 453.632,12.904 C453.632,13.032 453.824,13.048 453.952,13.048 C454.576,13.048 454.688,12.968 455.248,12.968 C455.808,12.968 455.936,13.048 456.544,13.048 Z M464.928,13.048 C465.056,13.048 465.248,13.032 465.248,12.904 C465.248,12.744 465.056,12.68 464.88,12.616 L464.703195,12.5630113 C464.438347,12.4792727 464.192,12.3614545 464.192,12.008 L464.192,8.6 C464.192,7.352 463.424,6.376 462.384,6.376 C461.376,6.376 460.552,6.736 459.808,7.448 C459.785373,7.42537256 459.776,7.352 459.776,7.256 C459.776,6.952 459.856,6.376 459.856,6.232 C459.856,6.168 459.792,6.12 459.744,6.12 C459.2,6.488 458.8,6.824 457.968,7.016 C457.904,7.032 457.856,7.112 457.856,7.208 C457.856,7.304 457.904,7.4 457.984,7.416 C458.489143,7.52 458.596508,7.9275102 458.607129,8.44637318 L458.608,12.008 C458.608,12.44 458.24,12.52 457.92,12.616 C457.744,12.68 457.552,12.744 457.552,12.904 C457.552,13.032 457.744,13.048 457.872,13.048 C458.512,13.048 458.608,12.968 459.168,12.968 C459.728,12.968 459.824,13.048 460.464,13.048 C460.592,13.048 460.784,13.032 460.784,12.904 C460.784,12.744 460.592,12.68 460.416,12.616 L460.239195,12.5630113 C459.974347,12.4792727 459.728,12.3614545 459.728,12.008 L459.728,8.712 C459.728,8.056 459.968,7.704 460.16,7.56 C460.56,7.24 461.088,7.144 461.632,7.144 C462.496,7.16 463.072,7.72 463.072,8.648 L463.072,12.008 C463.072,12.44 462.704,12.52 462.384,12.616 C462.208,12.68 462.016,12.744 462.016,12.904 C462.016,13.032 462.224,13.048 462.336,13.048 C462.976,13.048 463.088,12.968 463.648,12.968 C464.208,12.968 464.288,13.048 464.928,13.048 Z M468.736,17.64 C470.352,17.64 472.304,15.992 472.304,14.232 C472.304,12.888 470.768,12.744 468.736,12.552 C468.224,12.504 467.2,12.344 467.2,11.896 C467.2,11.688 467.568,11.368 467.904,11.112 C468.155646,11.2520647 468.608,11.304 468.768,11.304 C470.192,11.304 471.376,9.928 471.376,8.28 C471.376,8.04 471.376,7.72 471.44,7.544 C471.664,7.512 471.52,7.416 472.432,7.416 C472.528,7.416 472.576,7.288 472.576,7.144 C472.576,7 472.544,6.792 472.432,6.792 C472.272,6.792 471.84,6.84 471.584,6.84 C471.264,6.84 471.061609,6.83909375 470.736,6.776 C470.059968,6.6450188 469.744,6.344 469.024,6.344 C467.568,6.344 466.24,7.384 466.24,8.872 C466.24,10.072 467.366178,10.9176802 467.568,10.968 C467.328,11.336 466.928,11.48 466.624,11.704 C466.4,11.88 466.256,12.056 466.256,12.296 C466.256,13.048 467.152,13.384 467.696,13.496 C467.456,13.88 467.024,14.152 466.576,14.44 C466.304,14.6 465.792,15.064 465.792,15.816 C465.792,17.224 467.392,17.64 468.736,17.64 Z M468.928,10.744 C468.016,10.744 467.392,9.68340625 467.392,8.68 C467.392,7.912 467.903656,6.824 468.816,6.824 C469.712,6.824 470.336,7.80004687 470.336,8.76 C470.336,9.8 469.728,10.744 468.928,10.744 Z M468.96,17 C467.696,17 466.928,16.2 466.928,15.144 C466.928,14.888 467.04,14.6 467.312,14.28 C467.52,14.072 467.92,13.672 468.112,13.544 C468.208,13.512 468.368,13.544 468.48,13.544 C468.848,13.56 469.648,13.624 470.048,13.704 C470.576,13.816 471.328,14.152 471.328,14.744 C471.328,16.072 470.208,17 468.96,17 Z M478.8,13.224 C479.776,13.224 480.672,12.424 480.672,12.248 C480.672,12.12 480.608,11.976 480.512,12.04 C480.256,12.232 479.936,12.344 479.312,12.344 C478.816,12.344 478.256,12.024 478.256,10.84 L478.256,7.816 C478.256,7.41485714 478.338776,7.37240816 478.786157,7.36839067 L480.48,7.368 C480.56,7.368 480.64,7.176 480.64,6.984 C480.64,6.792 480.56,6.6 480.48,6.6 L478.656,6.6 C478.448,6.6 478.224,6.52 478.256,6.376 L478.384,5.672 C478.4,5.528 478.208,5.512 478.112,5.512 C477.952,5.512 477.264,6.696 476.416,6.936 C476.384,6.952 476.336,7 476.336,7.048 C476.336,7.16 476.464,7.368 476.528,7.368 C477.024,7.368 477.136,7.416 477.136,7.608 L477.136,11.32 C477.136,12.648 477.808,13.224 478.8,13.224 Z M484.544,13.224 C486.944,13.224 488.16,11.464 488.16,9.592 C488.16,7.864 486.72,6.376 484.864,6.376 C482.896,6.376 481.36,8.232 481.36,10.008 C481.36,11.88 482.752,13.224 484.544,13.224 Z M484.88,12.744 C483.6,12.744 482.672,11.224 482.672,9.64 C482.672,8.872 482.752,8.056 483.184,7.512 C483.568,7.016 484.016,6.872 484.592,6.872 C485.952,6.872 486.848,8.456 486.848,9.976 C486.848,10.6 486.784,11.368 486.528,11.864 C486.208,12.488 485.6,12.744 484.88,12.744 Z M494.944,13.224 C495.92,13.224 496.816,12.424 496.816,12.248 C496.816,12.12 496.752,11.976 496.656,12.04 C496.4,12.232 496.08,12.344 495.456,12.344 C494.96,12.344 494.4,12.024 494.4,10.84 L494.4,7.816 C494.4,7.41485714 494.482776,7.37240816 494.930157,7.36839067 L496.624,7.368 C496.704,7.368 496.784,7.176 496.784,6.984 C496.784,6.792 496.704,6.6 496.624,6.6 L494.8,6.6 C494.592,6.6 494.368,6.52 494.4,6.376 L494.528,5.672 C494.544,5.528 494.352,5.512 494.256,5.512 C494.096,5.512 493.408,6.696 492.56,6.936 C492.528,6.952 492.48,7 492.48,7.048 C492.48,7.16 492.608,7.368 492.672,7.368 C493.168,7.368 493.28,7.416 493.28,7.608 L493.28,11.32 C493.28,12.648 493.952,13.224 494.944,13.224 Z M504.496,13.048 C504.624,13.048 504.816,13.032 504.816,12.904 C504.816,12.744 504.624,12.68 504.448,12.616 C504.128,12.52 503.792,12.344 503.792,11.912 L503.792,8.552 C503.792,7.304 503.008,6.376 501.968,6.376 C500.96,6.376 500.048,7.016 499.552,7.384 C499.472,7.288 499.424,6.984 499.424,6.792 L499.424,4.008 C499.424,2.296 499.568,2.024 499.568,1.832 L499.524,1.758 C499.508,1.736 499.488,1.72 499.456,1.72 C499.456,1.72 499.44,1.736 499.424,1.736 C498.912,1.928 498.384,2.184 497.568,2.376 C497.504,2.392 497.456,2.472 497.456,2.568 C497.456,2.664 497.504,2.76 497.584,2.776 C498.128,2.888 498.304,3.368 498.304,3.944 L498.304,11.96 C498.288,12.392 497.936,12.52 497.616,12.616 C497.44,12.68 497.248,12.744 497.248,12.904 C497.248,13.032 497.456,13.048 497.568,13.048 C498.208,13.048 498.304,12.968 498.864,12.968 C499.424,12.968 499.44,13.048 500.08,13.048 C500.208,13.048 500.4,13.032 500.4,12.904 C500.4,12.744 500.208,12.68 500.032,12.616 C499.712,12.52 499.44,12.392 499.424,11.96 L499.424,8.712 C499.424,8.056 499.52,7.832 499.856,7.56 C500.16,7.32 500.784,7.208 501.184,7.208 C501.872,7.208 502.672,7.848 502.672,8.648 L502.672,11.912 C502.672,12.344 502.368,12.52 502.048,12.616 C501.872,12.68 501.68,12.744 501.68,12.904 C501.68,13.032 501.872,13.048 502,13.048 C502.64,13.048 502.688,12.968 503.248,12.968 C503.808,12.968 503.856,13.048 504.496,13.048 Z M508.352,13.224 C509.824,13.224 510.72,12.312 510.88,11.752 C510.912,11.624 510.896,11.432 510.784,11.432 C510.736,11.432 510.656,11.496 510.608,11.544 C510.192,12.088 509.472,12.264 509.072,12.264 C507.632,12.264 506.656,10.92 506.656,9.48 C506.656,8.936 506.8,8.888 507.056,8.888 L510.384,8.888 C510.8,8.888 510.944,8.648 510.944,8.168 C510.944,6.984 510.08,6.376 508.848,6.376 C507.04,6.376 505.664,7.944 505.664,9.752 C505.664,11.88 506.896,13.224 508.352,13.224 Z M508.576,8.392 L507.264,8.392 C507.04,8.392 506.96,8.28 506.96,8.152 C506.96,7.736 507.696,6.872 508.592,6.872 C509.216,6.872 509.904,7.224 509.904,7.864 C509.904,8.04 509.856,8.296 509.744,8.312 C509.408,8.376 509.04,8.392 508.576,8.392 Z M520.528,13.24 C521.488,13.24 522.656,13.096 523.216,12.92 C523.616,12.792 523.92,12.712 524,12.584 C524.24,12.216 524.464,11.32 524.528,10.92 C524.528,10.888 524.544,10.84 524.544,10.792 C524.544,10.648 524.496,10.488 524.432,10.488 C524.416,10.488 524.416,10.488 524.4,10.504 C524.32,10.568 524.096,10.632 524,10.808 C523.584,11.624 522.816,12.744 521.024,12.744 C518.528,12.744 516.96,10.056 516.96,7.448 C516.96,5.096 518.576,2.888 520.928,2.888 C522.4,2.888 523.12,3.544 523.28,3.704 C523.472,3.88 523.76,4.232 523.84,4.872 C523.904,5.24 524.08,5.448 524.256,5.464 C524.416,5.48 524.448,5.24 524.432,5.096 C524.416,4.264 524.368,3.848 524.304,3.352 C524.288,3.128 524.224,2.888 524.096,2.872 C523.776,2.824 523.168,2.68 522.88,2.584 C522.592,2.488 521.696,2.392 521.184,2.392 C518.08,2.392 515.36,4.728 515.36,7.832 C515.36,10.744 517.616,13.24 520.528,13.24 Z M530.976,13.224 C534.48,13.224 536.352,10.52 536.352,7.64 C536.352,4.488 533.888,2.376 531.104,2.376 C527.52,2.376 525.584,4.984 525.584,7.88 C525.584,10.92 528.144,13.224 530.976,13.224 Z M531.184,12.6 C528.816,12.6 527.136,10.136 527.136,7.4 C527.136,5.16 528.496,3 530.864,3 C533.424,3 534.8,5.08 534.8,8.12 C534.8,10.856 533.584,12.6 531.184,12.6 Z M541.328,13.24 C541.552,13.24 541.936,11.944 542.016,11.736 L545.024,4.44 C545.264,3.864 545.808,3.224 546.592,3.048 C546.96,2.968 547.12,2.872 547.12,2.728 C547.12,2.6 546.928,2.552 546.656,2.552 C546.24,2.552 545.456,2.6 544.832,2.6 C544.224,2.6 543.664,2.584 543.248,2.584 C542.976,2.584 542.784,2.632 542.784,2.76 C542.784,2.904 543.088,3.016 543.312,3.08 C543.696,3.192 544.384,3.48 544.384,3.736 C544.384,3.8 544.288,4.184 544.256,4.248 L542,9.848 C541.872,10.152 541.792,10.296 541.712,10.296 C541.632,10.296 541.536,10.152 541.424,9.848 L539.392,4.472 C539.344,4.328 539.248,3.848 539.248,3.72 C539.248,3.432 539.776,3.16 540.256,3.064 C540.624,3 540.784,2.888 540.784,2.744 C540.784,2.616 540.592,2.568 540.32,2.568 C540,2.568 539.328,2.6 538.688,2.6 C537.952,2.6 537.232,2.552 536.736,2.552 C536.464,2.552 536.272,2.6 536.272,2.728 C536.272,2.872 536.448,2.968 536.8,3.08 C537.344,3.24 537.696,3.656 537.92,4.248 L540.848,12.104 C541.008,12.552 541.248,13.24 541.328,13.24 Z M551.712,13.08 C551.984,13.08 552.176,13.032 552.176,12.904 C552.176,12.76 552.016,12.68 551.648,12.616 C550.848,12.472 550.384,12.184 550.384,11.432 L550.384,4.2 C550.384,3.448 550.72,3.192 551.52,3.048 C551.888,2.984 552.048,2.872 552.048,2.728 C552.048,2.6 551.856,2.552 551.584,2.552 C550.72,2.552 550.528,2.6 549.84,2.6 C549.104,2.6 548.832,2.552 547.968,2.552 C547.696,2.552 547.504,2.6 547.504,2.728 C547.504,2.872 547.664,2.984 548.032,3.048 C548.832,3.192 549.104,3.448 549.104,4.2 L549.104,11.432 C549.104,12.184 548.656,12.472 547.856,12.616 C547.488,12.68 547.328,12.76 547.328,12.904 C547.328,13.032 547.52,13.08 547.792,13.08 C548.656,13.08 549.04,13 549.84,13 C550.576,13 550.848,13.08 551.712,13.08 Z M558.4,13.112 C561.456,13.112 563.968,10.6 563.968,7.528 C563.968,4.728 562.24,2.456 557.904,2.456 C557.472,2.456 555.856,2.584 555.168,2.584 L555.056,2.584 C554.4,2.584 554.256,2.552 553.392,2.552 C553.12,2.552 552.928,2.6 552.928,2.728 C552.928,2.872 553.088,2.984 553.456,3.048 C554.256,3.192 554.528,3.448 554.528,4.216 L554.528,11.416 C554.528,12.184 554.256,12.472 553.456,12.616 C553.088,12.68 552.928,12.76 552.928,12.904 C552.928,13.032 553.12,13.08 553.392,13.08 C554.24,13.08 554.432,13 555.072,13 C556.336,13 558.08,13.112 558.4,13.112 Z M558.208,12.552 C557.008,12.552 555.808,12.36 555.808,11.064 L555.808,3.928 C555.808,2.968 556.592,2.952 557.984,2.952 C560.176,2.952 562.448,4.728 562.448,7.8 C562.448,10.584 560.704,12.552 558.208,12.552 Z M565.088,10.28 C566.176,10.184 567.152,10.024 568.112,9.88 C568.368,9.848 568.448,9.416 568.448,9.016 C568.448,8.952 568.384,8.92 568.32,8.92 C567.296,9.032 566.272,9.176 565.248,9.32 C565.088,9.336 564.992,9.832 564.992,10.184 C564.992,10.248 565.008,10.28 565.088,10.28 Z M572.944,13.048 C573.072,13.048 573.136,12.952 573.136,12.856 C573.136,12.76 573.072,12.664 572.944,12.648 C572.24,12.552 571.808,12.536 571.808,11.912 L571.808,7.672 C571.808,6.936 572.336,6.952 572.784,6.856 C572.864,6.84 572.912,6.744 572.912,6.664 C572.912,6.584 572.88,6.504 572.784,6.504 C571.927385,6.504 571.847858,6.54489941 571.362483,6.55119162 L571.232,6.552 C570.608,6.552 570.608,6.504 569.648,6.504 C569.568,6.504 569.536,6.584 569.536,6.68 C569.536,6.76 569.568,6.856 569.648,6.856 C570.08,6.92 570.656,6.92 570.656,7.672 L570.656,11.912 C570.656,12.568 569.92,12.616 569.488,12.648 C569.36,12.648 569.312,12.728 569.312,12.824 C569.312,12.936 569.376,13.048 569.488,13.048 C570.352,13.048 570.544,12.968 571.232,12.968 C571.904,12.968 572.032,13.048 572.944,13.048 Z M574.416,15.976 C575.52,15.816 577.456,14.616 578.336,13.752 C579.2,12.904 580.352,11.464 580.352,9.64 C580.352,7.752 579.104,6.376 577.552,6.376 C575.616,6.376 574.384,8.104 574.384,9.56 C574.384,10.712 575.344,11.576 576.448,11.576 C577.04,11.576 577.68,11.224 577.92,11.048 C578.096,10.92 578.336,10.696 578.448,10.488 C578.48,10.424 578.416,10.28 578.336,10.312 C577.936,10.504 577.712,10.728 577.056,10.728 C576.208,10.728 575.488,9.704 575.488,8.728 C575.488,7.944 575.984,6.952 577.024,6.952 C578.192,6.952 579.072,8.04 579.072,9.368 C579.072,11.176 578.432,12.232 577.856,13 C577.184,13.896 575.328,15.4 574.416,15.688 C574.304,15.72 574.192,15.784 574.192,15.896 C574.192,15.96 574.256,15.976 574.336,15.976 L574.416,15.976 Z M285.472,32.048 C285.584,32.048 285.792,32.032 285.792,31.904 C285.792,31.744 285.6,31.68 285.424,31.616 C285.104,31.52 284.576,31.36 284.56,30.928 L284.56,27.776 C284.56,26.704 285.168,26.432 285.68,26.432 C286,26.432 286.368,26.72 286.64,26.72 C286.96,26.72 287.264,26.208 287.264,25.888 C287.264,25.6 286.944,25.376 286.496,25.376 C286.112,25.376 285.52,25.616 285.024,26.064 C284.912,26.16 284.704,26.464 284.64,26.464 C284.624,26.464 284.624,26.464 284.624,26.432 C284.656,25.92 284.672,25.344 284.672,25.232 C284.656,25.184 284.624,25.12 284.576,25.12 C284.56,25.12 284.56,25.136 284.544,25.136 C284.112,25.392 283.584,25.824 282.768,26.016 C282.704,26.032 282.624,26.112 282.624,26.208 C282.624,26.304 282.704,26.4 282.784,26.416 C283.312,26.528 283.44,26.992 283.44,27.568 L283.44,31.008 C283.424,31.44 283.152,31.52 282.832,31.616 C282.656,31.68 282.464,31.744 282.464,31.904 C282.464,32.032 282.672,32.048 282.784,32.048 C283.424,32.048 283.52,31.968 284.08,31.968 C284.64,31.968 284.832,32.048 285.472,32.048 Z M290.512,32.224 C291.984,32.224 292.88,31.312 293.04,30.752 C293.072,30.624 293.056,30.432 292.944,30.432 C292.896,30.432 292.816,30.496 292.768,30.544 C292.352,31.088 291.632,31.264 291.232,31.264 C289.792,31.264 288.816,29.92 288.816,28.48 C288.816,27.936 288.96,27.888 289.216,27.888 L292.544,27.888 C292.96,27.888 293.104,27.648 293.104,27.168 C293.104,25.984 292.24,25.376 291.008,25.376 C289.2,25.376 287.824,26.944 287.824,28.752 C287.824,30.88 289.056,32.224 290.512,32.224 Z M290.736,27.392 L289.424,27.392 C289.2,27.392 289.12,27.28 289.12,27.152 C289.12,26.736 289.856,25.872 290.752,25.872 C291.376,25.872 292.064,26.224 292.064,26.864 C292.064,27.04 292.016,27.296 291.904,27.312 C291.568,27.376 291.2,27.392 290.736,27.392 Z M295.968,32.224 C297.744,32.224 298.272,31.408 298.272,30.304 C298.272,29.248 297.232,28.608 296.752,28.304 C296.24,27.984 295.392,27.488 295.392,26.848 C295.392,26.208 295.792,25.792 296.4,25.792 C296.928,25.792 297.392,26.272 297.408,26.72 C297.408,26.864 297.792,27.056 297.952,27.056 C298.016,27.056 298.048,27.04 298.048,26.992 C298.048,26.544 297.968,25.984 297.776,25.744 C297.616,25.584 297.216,25.376 296.576,25.376 C295.008,25.376 294.432,26.352 294.432,27.264 C294.432,28.048 295.2,28.672 295.968,29.216 C296.672,29.712 297.184,30.096 297.184,30.672 C297.184,31.312 296.832,31.792 296.064,31.792 C295.408,31.792 294.688,31.184 294.576,30.64 C294.56,30.56 294.448,30.528 294.336,30.528 C294.208,30.528 294.064,30.576 294.064,30.672 C294.08,31.04 294.16,31.424 294.272,31.648 C294.368,31.856 295.104,32.224 295.968,32.224 Z M302.176,36.56 C302.304,36.56 302.528,36.544 302.528,36.416 C302.528,36.256 302.336,36.192 302.16,36.128 C301.84,36.032 301.232,35.952 301.232,35.52 L301.232,32.528 C301.232,32.432 301.248,31.712 301.296,31.712 C301.616,32 302.448,32.224 302.896,32.224 C304.912,32.224 306.496,30.304 306.496,28.4 C306.496,26.896 305.52,25.376 303.872,25.376 C302.864,25.376 301.584,26.128 301.28,26.432 C301.264,26.416 301.264,26.352 301.264,26.288 C301.264,26.032 301.344,25.52 301.344,25.328 C301.344,25.264 301.296,25.184 301.248,25.184 C301.232,25.184 301.232,25.2 301.216,25.2 C300.704,25.408 300.176,25.648 299.36,25.84 C299.296,25.856 299.248,25.936 299.248,26.032 C299.248,26.128 299.296,26.224 299.376,26.24 C299.904,26.352 300.112,27.168 300.112,27.408 L300.112,35.52 C300.112,35.952 299.744,36.032 299.424,36.128 C299.248,36.192 299.056,36.256 299.056,36.416 C299.056,36.544 299.28,36.56 299.392,36.56 C300.016,36.56 300.112,36.48 300.672,36.48 C301.232,36.48 301.552,36.56 302.176,36.56 Z M303.136,31.728 C302.432,31.728 301.888,31.552 301.648,31.328 C301.344,31.04 301.28,30.448 301.264,30.16 C301.248,29.824 301.232,29.264 301.232,28.72 C301.232,28.336 301.248,27.968 301.248,27.696 C301.28,27.04 301.424,26.736 301.664,26.56 C302.064,26.256 302.496,26.096 303.04,26.096 C303.728,26.096 305.216,26.448 305.216,28.912 C305.216,31.056 303.76,31.728 303.136,31.728 Z M310.8,32.224 C313.2,32.224 314.416,30.464 314.416,28.592 C314.416,26.864 312.976,25.376 311.12,25.376 C309.152,25.376 307.616,27.232 307.616,29.008 C307.616,30.88 309.008,32.224 310.8,32.224 Z M311.136,31.744 C309.856,31.744 308.928,30.224 308.928,28.64 C308.928,27.872 309.008,27.056 309.44,26.512 C309.824,26.016 310.272,25.872 310.848,25.872 C312.208,25.872 313.104,27.456 313.104,28.976 C313.104,29.6 313.04,30.368 312.784,30.864 C312.464,31.488 311.856,31.744 311.136,31.744 Z M322.736,32.048 C322.864,32.048 323.056,32.032 323.056,31.904 C323.056,31.744 322.864,31.68 322.688,31.616 C322.368,31.52 322,31.44 322,31.008 L322,27.6 C322,26.352 321.232,25.376 320.192,25.376 C319.184,25.376 318.36,25.736 317.616,26.448 C317.593373,26.4253726 317.584,26.352 317.584,26.256 C317.584,25.952 317.664,25.376 317.664,25.232 C317.664,25.168 317.6,25.12 317.552,25.12 C317.008,25.488 316.608,25.824 315.776,26.016 C315.712,26.032 315.664,26.112 315.664,26.208 C315.664,26.304 315.712,26.4 315.792,26.416 C316.336,26.528 316.418672,26.992 316.416,27.568 L316.416,31.008 C316.416,31.44 316.048,31.52 315.728,31.616 C315.552,31.68 315.36,31.744 315.36,31.904 C315.36,32.032 315.552,32.048 315.68,32.048 C316.32,32.048 316.416,31.968 316.976,31.968 C317.536,31.968 317.632,32.048 318.272,32.048 C318.4,32.048 318.592,32.032 318.592,31.904 C318.592,31.744 318.4,31.68 318.224,31.616 C317.904,31.52 317.536,31.44 317.536,31.008 L317.536,27.712 C317.536,27.056 317.776,26.704 317.968,26.56 C318.368,26.24 318.896,26.144 319.44,26.144 C320.304,26.16 320.88,26.72 320.88,27.648 L320.88,31.008 C320.88,31.44 320.512,31.52 320.192,31.616 C320.016,31.68 319.824,31.744 319.824,31.904 C319.824,32.032 320.032,32.048 320.144,32.048 C320.784,32.048 320.896,31.968 321.456,31.968 C322.016,31.968 322.096,32.048 322.736,32.048 Z M325.808,32.224 C327.584,32.224 328.112,31.408 328.112,30.304 C328.112,29.248 327.072,28.608 326.592,28.304 C326.08,27.984 325.232,27.488 325.232,26.848 C325.232,26.208 325.632,25.792 326.24,25.792 C326.768,25.792 327.232,26.272 327.248,26.72 C327.248,26.864 327.632,27.056 327.792,27.056 C327.856,27.056 327.888,27.04 327.888,26.992 C327.888,26.544 327.808,25.984 327.616,25.744 C327.456,25.584 327.056,25.376 326.416,25.376 C324.848,25.376 324.272,26.352 324.272,27.264 C324.272,28.048 325.04,28.672 325.808,29.216 C326.512,29.712 327.024,30.096 327.024,30.672 C327.024,31.312 326.672,31.792 325.904,31.792 C325.248,31.792 324.528,31.184 324.416,30.64 C324.4,30.56 324.288,30.528 324.176,30.528 C324.048,30.528 323.904,30.576 323.904,30.672 C323.92,31.04 324,31.424 324.112,31.648 C324.208,31.856 324.944,32.224 325.808,32.224 Z M331.76,32.224 C333.232,32.224 334.128,31.312 334.288,30.752 C334.32,30.624 334.304,30.432 334.192,30.432 C334.144,30.432 334.064,30.496 334.016,30.544 C333.6,31.088 332.88,31.264 332.48,31.264 C331.04,31.264 330.064,29.92 330.064,28.48 C330.064,27.936 330.208,27.888 330.464,27.888 L333.792,27.888 C334.208,27.888 334.352,27.648 334.352,27.168 C334.352,25.984 333.488,25.376 332.256,25.376 C330.448,25.376 329.072,26.944 329.072,28.752 C329.072,30.88 330.304,32.224 331.76,32.224 Z M331.984,27.392 L330.672,27.392 C330.448,27.392 330.368,27.28 330.368,27.152 C330.368,26.736 331.104,25.872 332,25.872 C332.624,25.872 333.312,26.224 333.312,26.864 C333.312,27.04 333.264,27.296 333.152,27.312 C332.816,27.376 332.448,27.392 331.984,27.392 Z M343.12,32.224 C343.728,32.224 344.4,31.536 344.4,31.408 C344.4,31.28 344.24,31.168 344.144,31.264 C343.968,31.424 343.792,31.488 343.504,31.488 C343.04,31.488 342.928,30.88 342.928,30.256 L343.008,26.8 C343.024,26.016 342.448,25.376 341.696,25.376 C340.848,25.376 339.808,26.064 339.312,26.512 C338.912,26.864 338.672,27.28 338.672,27.616 C338.672,27.664 338.704,27.76 338.8,27.76 C339.008,27.76 339.904,27.424 339.904,27.2 C339.904,27.12 339.888,27.056 339.888,26.976 C339.888,26.864 339.904,26.752 339.952,26.672 C340.08,26.448 340.544,26.16 340.928,26.16 C341.504,26.16 341.888,26.64 341.872,27.184 L341.84,28.208 C341.824,28.64 341.808,28.672 341.392,28.848 L339.76,29.52 C338.976,29.84 338.592,30.288 338.592,30.96 C338.592,31.584 339.312,32.224 339.968,32.224 C341.28,32.208 341.728,31.392 341.936,31.392 C342.064,31.392 342.208,32.224 343.12,32.224 Z M340.656,31.488 C340.352,31.488 339.872,31.216 339.872,30.608 C339.872,30.24 340.24,29.76 341.472,29.344 C341.552,29.312 341.648,29.296 341.696,29.296 C341.824,29.296 341.856,29.392 341.84,29.632 L341.808,30.416 C341.792,30.816 341.728,30.96 341.616,31.056 C341.36,31.28 341.072,31.488 340.656,31.488 Z M352.176,32.048 C352.304,32.048 352.496,32.032 352.496,31.904 C352.496,31.744 352.304,31.68 352.128,31.616 C351.808,31.52 351.44,31.44 351.44,31.008 L351.44,27.6 C351.44,26.352 350.672,25.376 349.632,25.376 C348.624,25.376 347.8,25.736 347.056,26.448 C347.033373,26.4253726 347.024,26.352 347.024,26.256 C347.024,25.952 347.104,25.376 347.104,25.232 C347.104,25.168 347.04,25.12 346.992,25.12 C346.448,25.488 346.048,25.824 345.216,26.016 C345.152,26.032 345.104,26.112 345.104,26.208 C345.104,26.304 345.152,26.4 345.232,26.416 C345.776,26.528 345.858672,26.992 345.856,27.568 L345.856,31.008 C345.856,31.44 345.488,31.52 345.168,31.616 C344.992,31.68 344.8,31.744 344.8,31.904 C344.8,32.032 344.992,32.048 345.12,32.048 C345.76,32.048 345.856,31.968 346.416,31.968 C346.976,31.968 347.072,32.048 347.712,32.048 C347.84,32.048 348.032,32.032 348.032,31.904 C348.032,31.744 347.84,31.68 347.664,31.616 C347.344,31.52 346.976,31.44 346.976,31.008 L346.976,27.712 C346.976,27.056 347.216,26.704 347.408,26.56 C347.808,26.24 348.336,26.144 348.88,26.144 C349.744,26.16 350.32,26.72 350.32,27.648 L350.32,31.008 C350.32,31.44 349.952,31.52 349.632,31.616 C349.456,31.68 349.264,31.744 349.264,31.904 C349.264,32.032 349.472,32.048 349.584,32.048 C350.224,32.048 350.336,31.968 350.896,31.968 C351.456,31.968 351.536,32.048 352.176,32.048 Z M358.448,32.304 C358.544,32.304 358.768,32.24 358.832,32.208 C359.296,32.016 359.872,31.776 360.704,31.664 C360.784,31.664 360.928,31.616 360.928,31.44 C360.928,31.248 360.768,31.216 360.688,31.232 C360.528,31.264 360.112,31.28 359.952,31.28 C359.696,31.28 359.616,30.912 359.616,30.24 L359.616,23.008 C359.616,21.568 359.728,21.024 359.728,20.832 C359.712,20.768 359.68,20.736 359.616,20.736 C359.392,20.736 358.832,21.104 357.664,21.376 C357.584,21.392 357.552,21.488 357.552,21.568 C357.552,21.664 357.6,21.76 357.68,21.776 C358.224,21.888 358.496,22.08 358.496,22.944 L358.496,25.472 C358.496,25.76 358.48,25.856 358.432,25.856 C358.4,25.856 358.336,25.792 358.272,25.712 C358.176,25.6 357.472,25.376 357.024,25.376 C354.784,25.376 353.424,27.104 353.424,28.96 C353.424,30.576 354.56,32.224 356.384,32.224 C357.44,32.224 358.16,31.584 358.48,31.088 L358.48,31.184 C358.48,31.456 358.4,32.032 358.4,32.24 C358.4,32.288 358.384,32.304 358.448,32.304 Z M356.976,31.504 C356.272,31.504 354.608,31.008 354.608,28.592 C354.608,26.448 355.904,25.936 356.528,25.936 C357.776,25.936 358.496,27.024 358.496,27.92 L358.496,30.08 C358.496,30.848 357.872,31.504 356.976,31.504 Z M366.544,32.224 C368.32,32.224 368.848,31.408 368.848,30.304 C368.848,29.248 367.808,28.608 367.328,28.304 C366.816,27.984 365.968,27.488 365.968,26.848 C365.968,26.208 366.368,25.792 366.976,25.792 C367.504,25.792 367.968,26.272 367.984,26.72 C367.984,26.864 368.368,27.056 368.528,27.056 C368.592,27.056 368.624,27.04 368.624,26.992 C368.624,26.544 368.544,25.984 368.352,25.744 C368.192,25.584 367.792,25.376 367.152,25.376 C365.584,25.376 365.008,26.352 365.008,27.264 C365.008,28.048 365.776,28.672 366.544,29.216 C367.248,29.712 367.76,30.096 367.76,30.672 C367.76,31.312 367.408,31.792 366.64,31.792 C365.984,31.792 365.264,31.184 365.152,30.64 C365.136,30.56 365.024,30.528 364.912,30.528 C364.784,30.528 364.64,30.576 364.64,30.672 C364.656,31.04 364.736,31.424 364.848,31.648 C364.944,31.856 365.68,32.224 366.544,32.224 Z M374.416,32.224 C375.024,32.224 375.696,31.536 375.696,31.408 C375.696,31.28 375.536,31.168 375.44,31.264 C375.264,31.424 375.088,31.488 374.8,31.488 C374.336,31.488 374.224,30.88 374.224,30.256 L374.304,26.8 C374.32,26.016 373.744,25.376 372.992,25.376 C372.144,25.376 371.104,26.064 370.608,26.512 C370.208,26.864 369.968,27.28 369.968,27.616 C369.968,27.664 370,27.76 370.096,27.76 C370.304,27.76 371.2,27.424 371.2,27.2 C371.2,27.12 371.184,27.056 371.184,26.976 C371.184,26.864 371.2,26.752 371.248,26.672 C371.376,26.448 371.84,26.16 372.224,26.16 C372.8,26.16 373.184,26.64 373.168,27.184 L373.136,28.208 C373.12,28.64 373.104,28.672 372.688,28.848 L371.056,29.52 C370.272,29.84 369.888,30.288 369.888,30.96 C369.888,31.584 370.608,32.224 371.264,32.224 C372.576,32.208 373.024,31.392 373.232,31.392 C373.36,31.392 373.504,32.224 374.416,32.224 Z M371.952,31.488 C371.648,31.488 371.168,31.216 371.168,30.608 C371.168,30.24 371.536,29.76 372.768,29.344 C372.848,29.312 372.944,29.296 372.992,29.296 C373.12,29.296 373.152,29.392 373.136,29.632 L373.104,30.416 C373.088,30.816 373.024,30.96 372.912,31.056 C372.656,31.28 372.368,31.488 371.952,31.488 Z M379.008,32.352 C379.088,32.352 379.44,31.632 379.44,31.632 C379.44,31.632 379.952,30.208 380.032,30.032 L381.28,27.024 C381.504,26.496 381.952,26.048 382.272,25.952 C382.448,25.888 382.64,25.824 382.64,25.664 C382.64,25.536 382.432,25.52 382.32,25.52 C382.016,25.52 381.936,25.6 381.376,25.6 C380.816,25.6 380.448,25.52 380.208,25.52 C380.096,25.52 379.888,25.536 379.888,25.664 C379.888,25.824 380.08,25.888 380.256,25.952 C380.48,26.016 380.656,26.304 380.656,26.704 C380.656,26.88 380.624,27.072 380.544,27.28 L379.392,30.24 C379.312,30.464 379.28,30.448 379.2,30.224 L378.016,27.04 C377.968,26.912 377.952,26.752 377.952,26.608 C377.952,26.304 378.048,26.016 378.272,25.952 C378.448,25.888 378.64,25.824 378.64,25.664 C378.64,25.536 378.432,25.52 378.32,25.52 C377.696,25.52 377.68,25.6 377.12,25.6 C376.56,25.6 376.576,25.52 375.952,25.52 C375.84,25.52 375.632,25.536 375.632,25.664 C375.632,25.824 375.824,25.888 376,25.952 C376.32,26.048 376.576,26.352 376.736,26.736 L378.688,31.728 C378.736,31.872 378.928,32.352 379.008,32.352 Z M384.416,23.76 C384.88,23.76 385.232,23.408 385.232,22.96 C385.232,22.496 384.88,22.144 384.416,22.144 C383.968,22.144 383.616,22.496 383.616,22.96 C383.616,23.408 383.968,23.76 384.416,23.76 Z M385.856,32.048 C386,32.048 386.176,32.032 386.176,31.904 C386.176,31.744 385.984,31.68 385.808,31.616 C385.488,31.52 385.12,31.44 385.12,31.008 L385.12,27.296 C385.12,26.576 385.2,25.792 385.264,25.136 C385.264,25.088 385.216,25.056 385.152,25.056 C385.024,25.056 384.304,25.712 383.232,25.968 C383.168,25.984 383.12,26.08 383.12,26.16 C383.12,26.256 383.168,26.352 383.248,26.368 C383.792,26.48 384,26.96 384,27.536 L384,31.008 C384,31.44 383.632,31.52 383.312,31.616 C383.136,31.68 382.944,31.744 382.944,31.904 C382.944,32.032 383.136,32.048 383.264,32.048 C383.888,32.048 384,31.968 384.56,31.968 C385.12,31.968 385.248,32.048 385.856,32.048 Z M394.24,32.048 C394.368,32.048 394.56,32.032 394.56,31.904 C394.56,31.744 394.368,31.68 394.192,31.616 C393.872,31.52 393.504,31.44 393.504,31.008 L393.504,27.6 C393.504,26.352 392.736,25.376 391.696,25.376 C390.688,25.376 389.864,25.736 389.12,26.448 C389.097373,26.4253726 389.088,26.352 389.088,26.256 C389.088,25.952 389.168,25.376 389.168,25.232 C389.168,25.168 389.104,25.12 389.056,25.12 C388.512,25.488 388.112,25.824 387.28,26.016 C387.216,26.032 387.168,26.112 387.168,26.208 C387.168,26.304 387.216,26.4 387.296,26.416 C387.84,26.528 387.922672,26.992 387.92,27.568 L387.92,31.008 C387.92,31.44 387.552,31.52 387.232,31.616 C387.056,31.68 386.864,31.744 386.864,31.904 C386.864,32.032 387.056,32.048 387.184,32.048 C387.824,32.048 387.92,31.968 388.48,31.968 C389.04,31.968 389.136,32.048 389.776,32.048 C389.904,32.048 390.096,32.032 390.096,31.904 C390.096,31.744 389.904,31.68 389.728,31.616 C389.408,31.52 389.04,31.44 389.04,31.008 L389.04,27.712 C389.04,27.056 389.28,26.704 389.472,26.56 C389.872,26.24 390.4,26.144 390.944,26.144 C391.808,26.16 392.384,26.72 392.384,27.648 L392.384,31.008 C392.384,31.44 392.016,31.52 391.696,31.616 C391.52,31.68 391.328,31.744 391.328,31.904 C391.328,32.032 391.536,32.048 391.648,32.048 C392.288,32.048 392.4,31.968 392.96,31.968 C393.52,31.968 393.6,32.048 394.24,32.048 Z M398.048,36.64 C399.664,36.64 401.616,34.992 401.616,33.232 C401.616,31.888 400.08,31.744 398.048,31.552 C397.536,31.504 396.512,31.344 396.512,30.896 C396.512,30.688 396.88,30.368 397.216,30.112 C397.467646,30.2520647 397.92,30.304 398.08,30.304 C399.504,30.304 400.688,28.928 400.688,27.28 C400.688,27.04 400.688,26.72 400.752,26.544 C400.976,26.512 400.832,26.416 401.744,26.416 C401.84,26.416 401.888,26.288 401.888,26.144 C401.888,26 401.856,25.792 401.744,25.792 C401.584,25.792 401.152,25.84 400.896,25.84 C400.576,25.84 400.373609,25.8390937 400.048,25.776 C399.371968,25.6450188 399.056,25.344 398.336,25.344 C396.88,25.344 395.552,26.384 395.552,27.872 C395.552,29.072 396.678178,29.9176802 396.88,29.968 C396.64,30.336 396.24,30.48 395.936,30.704 C395.712,30.88 395.568,31.056 395.568,31.296 C395.568,32.048 396.464,32.384 397.008,32.496 C396.768,32.88 396.336,33.152 395.888,33.44 C395.616,33.6 395.104,34.064 395.104,34.816 C395.104,36.224 396.704,36.64 398.048,36.64 Z M398.24,29.744 C397.328,29.744 396.704,28.6834063 396.704,27.68 C396.704,26.912 397.215656,25.824 398.128,25.824 C399.024,25.824 399.648,26.8000469 399.648,27.76 C399.648,28.8 399.04,29.744 398.24,29.744 Z M398.272,36 C397.008,36 396.24,35.2 396.24,34.144 C396.24,33.888 396.352,33.6 396.624,33.28 C396.832,33.072 397.232,32.672 397.424,32.544 C397.52,32.512 397.68,32.544 397.792,32.544 C398.16,32.56 398.96,32.624 399.36,32.704 C399.888,32.816 400.64,33.152 400.64,33.744 C400.64,35.072 399.52,36 398.272,36 Z M408.304,32.048 C408.416,32.048 408.624,32.032 408.624,31.904 C408.624,31.744 408.432,31.68 408.256,31.616 C407.936,31.52 407.568,31.44 407.568,31.008 L407.568,23.008 C407.568,21.568 407.68,21.024 407.68,20.832 C407.68,20.784 407.632,20.72 407.584,20.72 C407.568,20.72 407.568,20.736 407.552,20.736 C407.04,20.928 406.512,21.184 405.696,21.376 C405.632,21.392 405.584,21.472 405.584,21.568 C405.584,21.664 405.632,21.76 405.712,21.776 C406.24,21.888 406.448,22.32 406.448,22.944 L406.448,31.008 C406.448,31.44 406.08,31.52 405.76,31.616 C405.584,31.68 405.392,31.744 405.392,31.904 C405.392,32.032 405.6,32.048 405.712,32.048 C406.336,32.048 406.448,31.968 407.008,31.968 C407.568,31.968 407.68,32.048 408.304,32.048 Z M410.784,23.76 C411.248,23.76 411.6,23.408 411.6,22.96 C411.6,22.496 411.248,22.144 410.784,22.144 C410.336,22.144 409.984,22.496 409.984,22.96 C409.984,23.408 410.336,23.76 410.784,23.76 Z M412.224,32.048 C412.368,32.048 412.544,32.032 412.544,31.904 C412.544,31.744 412.352,31.68 412.176,31.616 C411.856,31.52 411.488,31.44 411.488,31.008 L411.488,27.296 C411.488,26.576 411.568,25.792 411.632,25.136 C411.632,25.088 411.584,25.056 411.52,25.056 C411.392,25.056 410.672,25.712 409.6,25.968 C409.536,25.984 409.488,26.08 409.488,26.16 C409.488,26.256 409.536,26.352 409.616,26.368 C410.16,26.48 410.368,26.96 410.368,27.536 L410.368,31.008 C410.368,31.44 410,31.52 409.68,31.616 C409.504,31.68 409.312,31.744 409.312,31.904 C409.312,32.032 409.504,32.048 409.632,32.048 C410.256,32.048 410.368,31.968 410.928,31.968 C411.488,31.968 411.616,32.048 412.224,32.048 Z M416.304,32.352 C416.384,32.352 416.736,31.632 416.736,31.632 C416.736,31.632 417.248,30.208 417.328,30.032 L418.576,27.024 C418.8,26.496 419.248,26.048 419.568,25.952 C419.744,25.888 419.936,25.824 419.936,25.664 C419.936,25.536 419.728,25.52 419.616,25.52 C419.312,25.52 419.232,25.6 418.672,25.6 C418.112,25.6 417.744,25.52 417.504,25.52 C417.392,25.52 417.184,25.536 417.184,25.664 C417.184,25.824 417.376,25.888 417.552,25.952 C417.776,26.016 417.952,26.304 417.952,26.704 C417.952,26.88 417.92,27.072 417.84,27.28 L416.688,30.24 C416.608,30.464 416.576,30.448 416.496,30.224 L415.312,27.04 C415.264,26.912 415.248,26.752 415.248,26.608 C415.248,26.304 415.344,26.016 415.568,25.952 C415.744,25.888 415.936,25.824 415.936,25.664 C415.936,25.536 415.728,25.52 415.616,25.52 C414.992,25.52 414.976,25.6 414.416,25.6 C413.856,25.6 413.872,25.52 413.248,25.52 C413.136,25.52 412.928,25.536 412.928,25.664 C412.928,25.824 413.12,25.888 413.296,25.952 C413.616,26.048 413.872,26.352 414.032,26.736 L415.984,31.728 C416.032,31.872 416.224,32.352 416.304,32.352 Z M422.864,32.224 C424.336,32.224 425.232,31.312 425.392,30.752 C425.424,30.624 425.408,30.432 425.296,30.432 C425.248,30.432 425.168,30.496 425.12,30.544 C424.704,31.088 423.984,31.264 423.584,31.264 C422.144,31.264 421.168,29.92 421.168,28.48 C421.168,27.936 421.312,27.888 421.568,27.888 L424.896,27.888 C425.312,27.888 425.456,27.648 425.456,27.168 C425.456,25.984 424.592,25.376 423.36,25.376 C421.552,25.376 420.176,26.944 420.176,28.752 C420.176,30.88 421.408,32.224 422.864,32.224 Z M423.088,27.392 L421.776,27.392 C421.552,27.392 421.472,27.28 421.472,27.152 C421.472,26.736 422.208,25.872 423.104,25.872 C423.728,25.872 424.416,26.224 424.416,26.864 C424.416,27.04 424.368,27.296 424.256,27.312 C423.92,27.376 423.552,27.392 423.088,27.392 Z M428.32,32.224 C430.096,32.224 430.624,31.408 430.624,30.304 C430.624,29.248 429.584,28.608 429.104,28.304 C428.592,27.984 427.744,27.488 427.744,26.848 C427.744,26.208 428.144,25.792 428.752,25.792 C429.28,25.792 429.744,26.272 429.76,26.72 C429.76,26.864 430.144,27.056 430.304,27.056 C430.368,27.056 430.4,27.04 430.4,26.992 C430.4,26.544 430.32,25.984 430.128,25.744 C429.968,25.584 429.568,25.376 428.928,25.376 C427.36,25.376 426.784,26.352 426.784,27.264 C426.784,28.048 427.552,28.672 428.32,29.216 C429.024,29.712 429.536,30.096 429.536,30.672 C429.536,31.312 429.184,31.792 428.416,31.792 C427.76,31.792 427.04,31.184 426.928,30.64 C426.912,30.56 426.8,30.528 426.688,30.528 C426.56,30.528 426.416,30.576 426.416,30.672 C426.432,31.04 426.512,31.424 426.624,31.648 C426.72,31.856 427.456,32.224 428.32,32.224 Z M439.392,32.224 C440,32.224 440.672,31.536 440.672,31.408 C440.672,31.28 440.512,31.168 440.416,31.264 C440.24,31.424 440.064,31.488 439.776,31.488 C439.312,31.488 439.2,30.88 439.2,30.256 L439.28,26.8 C439.296,26.016 438.72,25.376 437.968,25.376 C437.12,25.376 436.08,26.064 435.584,26.512 C435.184,26.864 434.944,27.28 434.944,27.616 C434.944,27.664 434.976,27.76 435.072,27.76 C435.28,27.76 436.176,27.424 436.176,27.2 C436.176,27.12 436.16,27.056 436.16,26.976 C436.16,26.864 436.176,26.752 436.224,26.672 C436.352,26.448 436.816,26.16 437.2,26.16 C437.776,26.16 438.16,26.64 438.144,27.184 L438.112,28.208 C438.096,28.64 438.08,28.672 437.664,28.848 L436.032,29.52 C435.248,29.84 434.864,30.288 434.864,30.96 C434.864,31.584 435.584,32.224 436.24,32.224 C437.552,32.208 438,31.392 438.208,31.392 C438.336,31.392 438.48,32.224 439.392,32.224 Z M436.928,31.488 C436.624,31.488 436.144,31.216 436.144,30.608 C436.144,30.24 436.512,29.76 437.744,29.344 C437.824,29.312 437.92,29.296 437.968,29.296 C438.096,29.296 438.128,29.392 438.112,29.632 L438.08,30.416 C438.064,30.816 438,30.96 437.888,31.056 C437.632,31.28 437.344,31.488 436.928,31.488 Z M443.984,32.224 C445.36,32.224 446.64,31.328 446.64,30.736 C446.64,30.624 446.544,30.512 446.448,30.512 C446.4,30.512 446.352,30.544 446.304,30.592 C445.888,31.136 445.568,31.392 444.896,31.392 C443.36,31.392 442.352,29.92 442.352,28.384 C442.352,27.216 442.944,25.984 444.112,25.984 C444.912,25.984 445.088,26.16 445.616,26.736 C445.696,26.816 445.872,26.896 446.016,26.896 C446.176,26.896 446.624,26.624 446.624,26.352 C446.624,26.288 446.592,26.224 446.544,26.16 C446.064,25.568 445.312,25.392 444.624,25.392 C442.656,25.392 441.248,27.152 441.248,29.12 C441.248,30.768 442.368,32.224 443.984,32.224 Z M450.192,32.048 C450.304,32.048 450.512,32.032 450.512,31.904 C450.512,31.744 450.32,31.68 450.144,31.616 C449.824,31.52 449.296,31.36 449.28,30.928 L449.28,27.776 C449.28,26.704 449.888,26.432 450.4,26.432 C450.72,26.432 451.088,26.72 451.36,26.72 C451.68,26.72 451.984,26.208 451.984,25.888 C451.984,25.6 451.664,25.376 451.216,25.376 C450.832,25.376 450.24,25.616 449.744,26.064 C449.632,26.16 449.424,26.464 449.36,26.464 C449.344,26.464 449.344,26.464 449.344,26.432 C449.376,25.92 449.392,25.344 449.392,25.232 C449.376,25.184 449.344,25.12 449.296,25.12 C449.28,25.12 449.28,25.136 449.264,25.136 C448.832,25.392 448.304,25.824 447.488,26.016 C447.424,26.032 447.344,26.112 447.344,26.208 C447.344,26.304 447.424,26.4 447.504,26.416 C448.032,26.528 448.16,26.992 448.16,27.568 L448.16,31.008 C448.144,31.44 447.872,31.52 447.552,31.616 C447.376,31.68 447.184,31.744 447.184,31.904 C447.184,32.032 447.392,32.048 447.504,32.048 C448.144,32.048 448.24,31.968 448.8,31.968 C449.36,31.968 449.552,32.048 450.192,32.048 Z M455.808,32.224 C458.208,32.224 459.424,30.464 459.424,28.592 C459.424,26.864 457.984,25.376 456.128,25.376 C454.16,25.376 452.624,27.232 452.624,29.008 C452.624,30.88 454.016,32.224 455.808,32.224 Z M456.144,31.744 C454.864,31.744 453.936,30.224 453.936,28.64 C453.936,27.872 454.016,27.056 454.448,26.512 C454.832,26.016 455.28,25.872 455.856,25.872 C457.216,25.872 458.112,27.456 458.112,28.976 C458.112,29.6 458.048,30.368 457.792,30.864 C457.472,31.488 456.864,31.744 456.144,31.744 Z M462.368,32.224 C464.144,32.224 464.672,31.408 464.672,30.304 C464.672,29.248 463.632,28.608 463.152,28.304 C462.64,27.984 461.792,27.488 461.792,26.848 C461.792,26.208 462.192,25.792 462.8,25.792 C463.328,25.792 463.792,26.272 463.808,26.72 C463.808,26.864 464.192,27.056 464.352,27.056 C464.416,27.056 464.448,27.04 464.448,26.992 C464.448,26.544 464.368,25.984 464.176,25.744 C464.016,25.584 463.616,25.376 462.976,25.376 C461.408,25.376 460.832,26.352 460.832,27.264 C460.832,28.048 461.6,28.672 462.368,29.216 C463.072,29.712 463.584,30.096 463.584,30.672 C463.584,31.312 463.232,31.792 462.464,31.792 C461.808,31.792 461.088,31.184 460.976,30.64 C460.96,30.56 460.848,30.528 460.736,30.528 C460.608,30.528 460.464,30.576 460.464,30.672 C460.48,31.04 460.56,31.424 460.672,31.648 C460.768,31.856 461.504,32.224 462.368,32.224 Z M467.536,32.224 C469.312,32.224 469.84,31.408 469.84,30.304 C469.84,29.248 468.8,28.608 468.32,28.304 C467.808,27.984 466.96,27.488 466.96,26.848 C466.96,26.208 467.36,25.792 467.968,25.792 C468.496,25.792 468.96,26.272 468.976,26.72 C468.976,26.864 469.36,27.056 469.52,27.056 C469.584,27.056 469.616,27.04 469.616,26.992 C469.616,26.544 469.536,25.984 469.344,25.744 C469.184,25.584 468.784,25.376 468.144,25.376 C466.576,25.376 466,26.352 466,27.264 C466,28.048 466.768,28.672 467.536,29.216 C468.24,29.712 468.752,30.096 468.752,30.672 C468.752,31.312 468.4,31.792 467.632,31.792 C466.976,31.792 466.256,31.184 466.144,30.64 C466.128,30.56 466.016,30.528 465.904,30.528 C465.776,30.528 465.632,30.576 465.632,30.672 C465.648,31.04 465.728,31.424 465.84,31.648 C465.936,31.856 466.672,32.224 467.536,32.224 Z M476.544,32.224 C477.52,32.224 478.416,31.424 478.416,31.248 C478.416,31.12 478.352,30.976 478.256,31.04 C478,31.232 477.68,31.344 477.056,31.344 C476.56,31.344 476,31.024 476,29.84 L476,26.816 C476,26.384 476.096,26.368 476.64,26.368 L478.224,26.368 C478.304,26.368 478.384,26.176 478.384,25.984 C478.384,25.792 478.304,25.6 478.224,25.6 L476.4,25.6 C476.192,25.6 475.968,25.52 476,25.376 L476.128,24.672 C476.144,24.528 475.952,24.512 475.856,24.512 C475.696,24.512 475.008,25.696 474.16,25.936 C474.128,25.952 474.08,26 474.08,26.048 C474.08,26.16 474.208,26.368 474.272,26.368 C474.768,26.368 474.88,26.416 474.88,26.608 L474.88,30.32 C474.88,31.648 475.552,32.224 476.544,32.224 Z M486.096,32.048 C486.224,32.048 486.416,32.032 486.416,31.904 C486.416,31.744 486.224,31.68 486.048,31.616 C485.728,31.52 485.392,31.344 485.392,30.912 L485.392,27.552 C485.392,26.304 484.608,25.376 483.568,25.376 C482.56,25.376 481.648,26.016 481.152,26.384 C481.072,26.288 481.024,25.984 481.024,25.792 L481.024,23.008 C481.024,21.296 481.168,21.024 481.168,20.832 L481.124,20.758 C481.108,20.736 481.088,20.72 481.056,20.72 C481.056,20.72 481.04,20.736 481.024,20.736 C480.512,20.928 479.984,21.184 479.168,21.376 C479.104,21.392 479.056,21.472 479.056,21.568 C479.056,21.664 479.104,21.76 479.184,21.776 C479.728,21.888 479.904,22.368 479.904,22.944 L479.904,30.96 C479.888,31.392 479.536,31.52 479.216,31.616 C479.04,31.68 478.848,31.744 478.848,31.904 C478.848,32.032 479.056,32.048 479.168,32.048 C479.808,32.048 479.904,31.968 480.464,31.968 C481.024,31.968 481.04,32.048 481.68,32.048 C481.808,32.048 482,32.032 482,31.904 C482,31.744 481.808,31.68 481.632,31.616 C481.312,31.52 481.04,31.392 481.024,30.96 L481.024,27.712 C481.024,27.056 481.12,26.832 481.456,26.56 C481.76,26.32 482.384,26.208 482.784,26.208 C483.472,26.208 484.272,26.848 484.272,27.648 L484.272,30.912 C484.272,31.344 483.968,31.52 483.648,31.616 C483.472,31.68 483.28,31.744 483.28,31.904 C483.28,32.032 483.472,32.048 483.6,32.048 C484.24,32.048 484.288,31.968 484.848,31.968 C485.408,31.968 485.456,32.048 486.096,32.048 Z M489.952,32.224 C491.424,32.224 492.32,31.312 492.48,30.752 C492.512,30.624 492.496,30.432 492.384,30.432 C492.336,30.432 492.256,30.496 492.208,30.544 C491.792,31.088 491.072,31.264 490.672,31.264 C489.232,31.264 488.256,29.92 488.256,28.48 C488.256,27.936 488.4,27.888 488.656,27.888 L491.984,27.888 C492.4,27.888 492.544,27.648 492.544,27.168 C492.544,25.984 491.68,25.376 490.448,25.376 C488.64,25.376 487.264,26.944 487.264,28.752 C487.264,30.88 488.496,32.224 489.952,32.224 Z M490.176,27.392 L488.864,27.392 C488.64,27.392 488.56,27.28 488.56,27.152 C488.56,26.736 489.296,25.872 490.192,25.872 C490.816,25.872 491.504,26.224 491.504,26.864 C491.504,27.04 491.456,27.296 491.344,27.312 C491.008,27.376 490.64,27.392 490.176,27.392 Z M499.344,36.64 C500.96,36.64 502.912,34.992 502.912,33.232 C502.912,31.888 501.376,31.744 499.344,31.552 C498.832,31.504 497.808,31.344 497.808,30.896 C497.808,30.688 498.176,30.368 498.512,30.112 C498.763646,30.2520647 499.216,30.304 499.376,30.304 C500.8,30.304 501.984,28.928 501.984,27.28 C501.984,27.04 501.984,26.72 502.048,26.544 C502.272,26.512 502.128,26.416 503.04,26.416 C503.136,26.416 503.184,26.288 503.184,26.144 C503.184,26 503.152,25.792 503.04,25.792 C502.88,25.792 502.448,25.84 502.192,25.84 C501.872,25.84 501.669609,25.8390937 501.344,25.776 C500.667968,25.6450188 500.352,25.344 499.632,25.344 C498.176,25.344 496.848,26.384 496.848,27.872 C496.848,29.072 497.974178,29.9176802 498.176,29.968 C497.936,30.336 497.536,30.48 497.232,30.704 C497.008,30.88 496.864,31.056 496.864,31.296 C496.864,32.048 497.76,32.384 498.304,32.496 C498.064,32.88 497.632,33.152 497.184,33.44 C496.912,33.6 496.4,34.064 496.4,34.816 C496.4,36.224 498,36.64 499.344,36.64 Z M499.536,29.744 C498.624,29.744 498,28.6834063 498,27.68 C498,26.912 498.511656,25.824 499.424,25.824 C500.32,25.824 500.944,26.8000469 500.944,27.76 C500.944,28.8 500.336,29.744 499.536,29.744 Z M499.568,36 C498.304,36 497.536,35.2 497.536,34.144 C497.536,33.888 497.648,33.6 497.92,33.28 C498.128,33.072 498.528,32.672 498.72,32.544 C498.816,32.512 498.976,32.544 499.088,32.544 C499.456,32.56 500.256,32.624 500.656,32.704 C501.184,32.816 501.936,33.152 501.936,33.744 C501.936,35.072 500.816,36 499.568,36 Z M506.4,32.048 C506.512,32.048 506.72,32.032 506.72,31.904 C506.72,31.744 506.528,31.68 506.352,31.616 C506.032,31.52 505.664,31.44 505.664,31.008 L505.664,23.008 C505.664,21.568 505.776,21.024 505.776,20.832 C505.776,20.784 505.728,20.72 505.68,20.72 C505.664,20.72 505.664,20.736 505.648,20.736 C505.136,20.928 504.608,21.184 503.792,21.376 C503.728,21.392 503.68,21.472 503.68,21.568 C503.68,21.664 503.728,21.76 503.808,21.776 C504.336,21.888 504.544,22.32 504.544,22.944 L504.544,31.008 C504.544,31.44 504.176,31.52 503.856,31.616 C503.68,31.68 503.488,31.744 503.488,31.904 C503.488,32.032 503.696,32.048 503.808,32.048 C504.432,32.048 504.544,31.968 505.104,31.968 C505.664,31.968 505.776,32.048 506.4,32.048 Z M510.768,32.224 C513.168,32.224 514.384,30.464 514.384,28.592 C514.384,26.864 512.944,25.376 511.088,25.376 C509.12,25.376 507.584,27.232 507.584,29.008 C507.584,30.88 508.976,32.224 510.768,32.224 Z M511.104,31.744 C509.824,31.744 508.896,30.224 508.896,28.64 C508.896,27.872 508.976,27.056 509.408,26.512 C509.792,26.016 510.24,25.872 510.816,25.872 C512.176,25.872 513.072,27.456 513.072,28.976 C513.072,29.6 513.008,30.368 512.752,30.864 C512.432,31.488 511.824,31.744 511.104,31.744 Z M519.088,32.224 C521.504,32.224 522.624,30.4 522.624,28.528 C522.624,26.8 521.408,25.376 519.744,25.376 C519.2,25.376 518.208,25.648 517.408,26.32 C517.282,26.306 517.26625,26.1695 517.264281,25.9105 L517.264,22.512 C517.264,21.616 517.312,20.912 517.312,20.832 C517.312,20.784 517.264,20.72 517.216,20.72 C517.2,20.72 517.2,20.736 517.184,20.736 C516.672,20.928 516.192,21.184 515.376,21.376 C515.312,21.392 515.264,21.472 515.264,21.568 C515.264,21.664 515.312,21.76 515.392,21.776 C515.92,21.888 516.144,22.384 516.144,22.944 L516.144,30.32 C516.144,31.168 516.032,31.824 516.032,31.856 C516.032,31.952 516.16,32.048 516.288,32.048 C516.368,32.048 516.56,31.76 516.752,31.76 C516.976,31.76 518.096,32.224 519.088,32.224 Z M519.456,31.728 C518.336,31.728 517.264,31.008 517.264,29.888 L517.264,27.952 C517.264,27.104 517.376,26.832 517.6,26.592 C517.952,26.208 518.736,26.032 519.184,26.032 C520.704,26.032 521.424,27.648 521.424,28.88 C521.424,30.496 520.672,31.728 519.456,31.728 Z M526.352,32.224 C527.824,32.224 528.72,31.312 528.88,30.752 C528.912,30.624 528.896,30.432 528.784,30.432 C528.736,30.432 528.656,30.496 528.608,30.544 C528.192,31.088 527.472,31.264 527.072,31.264 C525.632,31.264 524.656,29.92 524.656,28.48 C524.656,27.936 524.8,27.888 525.056,27.888 L528.384,27.888 C528.8,27.888 528.944,27.648 528.944,27.168 C528.944,25.984 528.08,25.376 526.848,25.376 C525.04,25.376 523.664,26.944 523.664,28.752 C523.664,30.88 524.896,32.224 526.352,32.224 Z M526.576,27.392 L525.264,27.392 C525.04,27.392 524.96,27.28 524.96,27.152 C524.96,26.736 525.696,25.872 526.592,25.872 C527.216,25.872 527.904,26.224 527.904,26.864 C527.904,27.04 527.856,27.296 527.744,27.312 C527.408,27.376 527.04,27.392 526.576,27.392 Z" id="HowmigrantsarecontributingtotheCOVID-19responseandsavinglivesacrosstheglobe" fill="#000000" fill-rule="nonzero"></path>
    </g>
</svg>