<?xml version="1.0" encoding="UTF-8"?>
<svg width="86px" height="38px" viewBox="0 0 86 38" version="1.1" xmlns="http://www.w3.org/2000/svg" xmlns:xlink="http://www.w3.org/1999/xlink">
    <!-- Generator: Sketch 64 (93537) - https://sketch.com -->
    <title>ODI-logo-white</title>
    <desc>Created with Sketch.</desc>
    <g id="ODI-logo-white" stroke="none" stroke-width="1" fill="none" fill-rule="evenodd">
        <g id="ODI-logo_RGB" fill="#FFFFFF">
            <path d="M23.3916,23.4082 C22.1296,24.6722 20.4486,25.3692 18.6596,25.3692 L18.6586,25.3692 C16.8756,25.3692 15.1996,24.6782 13.9386,23.4222 C12.6776,22.1662 11.9836,20.4962 11.9836,18.7212 C11.9836,16.9452 12.6776,15.2762 13.9386,14.0202 C15.1996,12.7642 16.8756,12.0732 18.6586,12.0732 C20.4406,12.0732 22.1176,12.7642 23.3786,14.0202 C24.6386,15.2762 25.3336,16.9452 25.3336,18.7212 C25.3336,20.4902 24.6436,22.1542 23.3916,23.4082 L23.3916,23.4082 Z M45.4846,11.8822 L54.3346,11.8822 C56.1686,11.8822 57.8926,12.5942 59.1896,13.8852 C60.4866,15.1772 61.2016,16.8942 61.2016,18.7212 C61.2016,20.5482 60.4866,22.2652 59.1896,23.5572 C57.8926,24.8482 56.1686,25.5602 54.3346,25.5602 C52.4996,25.5602 50.7766,24.8482 49.4866,23.5642 L31.6116,5.7002 C31.2926,5.3812 30.9446,5.1092 30.5786,4.8792 C27.2606,2.0372 23.0796,0.4872 18.6586,0.4862 C13.7676,0.4862 9.1696,2.3832 5.7126,5.8272 C2.2546,9.2712 0.3496,13.8502 0.3496,18.7212 C0.3496,23.5912 2.2546,28.1712 5.7126,31.6152 C9.1706,35.0592 13.7676,36.9552 18.6576,36.9552 L18.6596,36.9552 C23.5686,36.9552 28.1796,35.0452 31.6416,31.5772 C33.2816,29.9352 34.5696,28.0332 35.4676,25.9682 L41.2526,31.7502 C44.7466,35.2302 49.3926,37.1462 54.3346,37.1462 C59.2766,37.1462 63.9216,35.2302 67.4156,31.7502 C70.9106,28.2692 72.8346,23.6432 72.8346,18.7212 C72.8346,13.8002 70.9106,9.1732 67.4156,5.6932 C63.9226,2.2122 59.2766,0.2962 54.3346,0.2962 L45.4846,0.2962 L45.4846,11.8822 Z" id="Fill-1"></path>
            <path d="M79.5728,0.2959 C76.3608,0.2959 73.7558,2.8899 73.7558,6.0889 L73.7568,31.3059 C73.7568,34.5059 76.3608,37.0999 79.5728,37.0999 C82.7858,37.0999 85.3898,34.5059 85.3898,31.3059 L85.3898,6.0889 C85.3898,2.8899 82.7858,0.2959 79.5728,0.2959" id="Fill-3"></path>
        </g>
    </g>
</svg>