<?xml version="1.0" encoding="UTF-8"?>
<svg width="500px" height="10px" viewBox="0 0 500 10" version="1.1" xmlns="http://www.w3.org/2000/svg" xmlns:xlink="http://www.w3.org/1999/xlink">
    <!-- Generator: Sketch 64 (93537) - https://sketch.com -->
    <title>156</title>
    <desc>Created with Sketch.</desc>
    <defs>
        <polygon id="path-1" points="0.0005 0.907 5.0935 0.907 5.0935 5.9998 0.0005 5.9998"></polygon>
        <polygon id="path-3" points="0.1274 0.907 5.2204 0.907 5.2204 5.9998 0.1274 5.9998"></polygon>
        <polygon id="path-5" points="0.2544 0.907 5.3474 0.907 5.3474 5.9998 0.2544 5.9998"></polygon>
        <polygon id="path-7" points="0.3813 0.907 5.4743 0.907 5.4743 5.9998 0.3813 5.9998"></polygon>
        <polygon id="path-9" points="0.5083 0.907 5.6023 0.907 5.6023 5.9998 0.5083 5.9998"></polygon>
        <polygon id="path-11" points="0.6352 0.907 5.7292 0.907 5.7292 5.9998 0.6352 5.9998"></polygon>
        <polygon id="path-13" points="0.7632 0.907 5.8562 0.907 5.8562 5.9998 0.7632 5.9998"></polygon>
        <polygon id="path-15" points="0.8901 0.907 5.9831 0.907 5.9831 5.9998 0.8901 5.9998"></polygon>
        <polygon id="path-17" points="0.0171 0.907 5.1101 0.907 5.1101 5.9998 0.0171 5.9998"></polygon>
        <polygon id="path-19" points="0.144 0.907 5.237 0.907 5.237 5.9998 0.144 5.9998"></polygon>
        <polygon id="path-21" points="0.271 0.907 5.365 0.907 5.365 5.9998 0.271 5.9998"></polygon>
        <polygon id="path-23" points="0.3989 0.907 5.4919 0.907 5.4919 5.9998 0.3989 5.9998"></polygon>
        <polygon id="path-25" points="0.5258 0.907 5.6188 0.907 5.6188 5.9998 0.5258 5.9998"></polygon>
        <polygon id="path-27" points="0.6528 0.907 5.7458 0.907 5.7458 5.9998 0.6528 5.9998"></polygon>
        <polygon id="path-29" points="0.7798 0.907 5.8728 0.907 5.8728 5.9998 0.7798 5.9998"></polygon>
        <polygon id="path-31" points="0.9067 0.907 6.0007 0.907 6.0007 5.9998 0.9067 5.9998"></polygon>
        <polygon id="path-33" points="0.0337 0.907 5.1277 0.907 5.1277 5.9998 0.0337 5.9998"></polygon>
        <polygon id="path-35" points="0.1616 0.907 5.2546 0.907 5.2546 5.9998 0.1616 5.9998"></polygon>
        <polygon id="path-37" points="0.2885 0.907 5.3815 0.907 5.3815 5.9998 0.2885 5.9998"></polygon>
        <polygon id="path-39" points="0.4155 0.907 5.5085 0.907 5.5085 5.9998 0.4155 5.9998"></polygon>
        <polygon id="path-41" points="0.5424 0.907 5.6354 0.907 5.6354 5.9998 0.5424 5.9998"></polygon>
    </defs>
    <g id="156" stroke="none" stroke-width="1" fill="none" fill-rule="evenodd">
        <g id="Group-64" transform="translate(0.000000, 2.000000)">
            <g id="Group-3" transform="translate(0.000000, 0.093020)">
                <mask id="mask-2" fill="white">
                    <use xlink:href="#path-1"></use>
                </mask>
                <g id="Clip-2"></g>
                <path d="M0.0005,3.4538 C0.0005,2.0468 1.1405,0.9068 2.5465,0.9068 C3.9525,0.9068 5.0935,2.0468 5.0935,3.4538 C5.0935,4.8598 3.9525,5.9998 2.5465,5.9998 C1.1405,5.9998 0.0005,4.8598 0.0005,3.4538" id="Fill-1" fill="#65BDB8" mask="url(#mask-2)"></path>
            </g>
            <g id="Group-6" transform="translate(7.000000, 0.093020)">
                <mask id="mask-4" fill="white">
                    <use xlink:href="#path-3"></use>
                </mask>
                <g id="Clip-5"></g>
                <path d="M0.1274,3.4538 C0.1274,2.0468 1.2674,0.9068 2.6734,0.9068 C4.0804,0.9068 5.2204,2.0468 5.2204,3.4538 C5.2204,4.8598 4.0804,5.9998 2.6734,5.9998 C1.2674,5.9998 0.1274,4.8598 0.1274,3.4538" id="Fill-4" fill="#65BDB8" mask="url(#mask-4)"></path>
            </g>
            <g id="Group-9" transform="translate(14.000000, 0.093020)">
                <mask id="mask-6" fill="white">
                    <use xlink:href="#path-5"></use>
                </mask>
                <g id="Clip-8"></g>
                <path d="M0.2544,3.4538 C0.2544,2.0468 1.3944,0.9068 2.8014,0.9068 C4.2074,0.9068 5.3474,2.0468 5.3474,3.4538 C5.3474,4.8598 4.2074,5.9998 2.8014,5.9998 C1.3944,5.9998 0.2544,4.8598 0.2544,3.4538" id="Fill-7" fill="#65BDB8" mask="url(#mask-6)"></path>
            </g>
            <g id="Group-12" transform="translate(21.000000, 0.093020)">
                <mask id="mask-8" fill="white">
                    <use xlink:href="#path-7"></use>
                </mask>
                <g id="Clip-11"></g>
                <path d="M0.3813,3.4538 C0.3813,2.0468 1.5223,0.9068 2.9283,0.9068 C4.3343,0.9068 5.4743,2.0468 5.4743,3.4538 C5.4743,4.8598 4.3343,5.9998 2.9283,5.9998 C1.5223,5.9998 0.3813,4.8598 0.3813,3.4538" id="Fill-10" fill="#65BDB8" mask="url(#mask-8)"></path>
            </g>
            <g id="Group-15" transform="translate(28.000000, 0.093020)">
                <mask id="mask-10" fill="white">
                    <use xlink:href="#path-9"></use>
                </mask>
                <g id="Clip-14"></g>
                <path d="M0.5083,3.4538 C0.5083,2.0468 1.6493,0.9068 3.0553,0.9068 C4.4613,0.9068 5.6023,2.0468 5.6023,3.4538 C5.6023,4.8598 4.4613,5.9998 3.0553,5.9998 C1.6493,5.9998 0.5083,4.8598 0.5083,3.4538" id="Fill-13" fill="#65BDB8" mask="url(#mask-10)"></path>
            </g>
            <g id="Group-18" transform="translate(35.000000, 0.093020)">
                <mask id="mask-12" fill="white">
                    <use xlink:href="#path-11"></use>
                </mask>
                <g id="Clip-17"></g>
                <path d="M0.6352,3.4538 C0.6352,2.0468 1.7762,0.9068 3.1822,0.9068 C4.5882,0.9068 5.7292,2.0468 5.7292,3.4538 C5.7292,4.8598 4.5882,5.9998 3.1822,5.9998 C1.7762,5.9998 0.6352,4.8598 0.6352,3.4538" id="Fill-16" fill="#65BDB8" mask="url(#mask-12)"></path>
            </g>
            <g id="Group-21" transform="translate(42.000000, 0.093020)">
                <mask id="mask-14" fill="white">
                    <use xlink:href="#path-13"></use>
                </mask>
                <g id="Clip-20"></g>
                <path d="M0.7632,3.4538 C0.7632,2.0468 1.9032,0.9068 3.3092,0.9068 C4.7152,0.9068 5.8562,2.0468 5.8562,3.4538 C5.8562,4.8598 4.7152,5.9998 3.3092,5.9998 C1.9032,5.9998 0.7632,4.8598 0.7632,3.4538" id="Fill-19" fill="#65BDB8" mask="url(#mask-14)"></path>
            </g>
            <g id="Group-24" transform="translate(49.000000, 0.093020)">
                <mask id="mask-16" fill="white">
                    <use xlink:href="#path-15"></use>
                </mask>
                <g id="Clip-23"></g>
                <path d="M0.8901,3.4538 C0.8901,2.0468 2.0301,0.9068 3.4361,0.9068 C4.8431,0.9068 5.9831,2.0468 5.9831,3.4538 C5.9831,4.8598 4.8431,5.9998 3.4361,5.9998 C2.0301,5.9998 0.8901,4.8598 0.8901,3.4538" id="Fill-22" fill="#65BDB8" mask="url(#mask-16)"></path>
            </g>
            <g id="Group-27" transform="translate(57.000000, 0.093020)">
                <mask id="mask-18" fill="white">
                    <use xlink:href="#path-17"></use>
                </mask>
                <g id="Clip-26"></g>
                <path d="M0.0171,3.4538 C0.0171,2.0468 1.1571,0.9068 2.5641,0.9068 C3.9701,0.9068 5.1101,2.0468 5.1101,3.4538 C5.1101,4.8598 3.9701,5.9998 2.5641,5.9998 C1.1571,5.9998 0.0171,4.8598 0.0171,3.4538" id="Fill-25" fill="#65BDB8" mask="url(#mask-18)"></path>
            </g>
            <g id="Group-30" transform="translate(64.000000, 0.093020)">
                <mask id="mask-20" fill="white">
                    <use xlink:href="#path-19"></use>
                </mask>
                <g id="Clip-29"></g>
                <path d="M0.144,3.4538 C0.144,2.0468 1.285,0.9068 2.691,0.9068 C4.097,0.9068 5.237,2.0468 5.237,3.4538 C5.237,4.8598 4.097,5.9998 2.691,5.9998 C1.285,5.9998 0.144,4.8598 0.144,3.4538" id="Fill-28" fill="#65BDB8" mask="url(#mask-20)"></path>
            </g>
            <g id="Group-33" transform="translate(71.000000, 0.093020)">
                <mask id="mask-22" fill="white">
                    <use xlink:href="#path-21"></use>
                </mask>
                <g id="Clip-32"></g>
                <path d="M0.271,3.4538 C0.271,2.0468 1.412,0.9068 2.818,0.9068 C4.224,0.9068 5.365,2.0468 5.365,3.4538 C5.365,4.8598 4.224,5.9998 2.818,5.9998 C1.412,5.9998 0.271,4.8598 0.271,3.4538" id="Fill-31" fill="#65BDB8" mask="url(#mask-22)"></path>
            </g>
            <g id="Group-36" transform="translate(78.000000, 0.093020)">
                <mask id="mask-24" fill="white">
                    <use xlink:href="#path-23"></use>
                </mask>
                <g id="Clip-35"></g>
                <path d="M0.3989,3.4538 C0.3989,2.0468 1.5389,0.9068 2.9449,0.9068 C4.3509,0.9068 5.4919,2.0468 5.4919,3.4538 C5.4919,4.8598 4.3509,5.9998 2.9449,5.9998 C1.5389,5.9998 0.3989,4.8598 0.3989,3.4538" id="Fill-34" fill="#65BDB8" mask="url(#mask-24)"></path>
            </g>
            <g id="Group-39" transform="translate(85.000000, 0.093020)">
                <mask id="mask-26" fill="white">
                    <use xlink:href="#path-25"></use>
                </mask>
                <g id="Clip-38"></g>
                <path d="M0.5258,3.4538 C0.5258,2.0468 1.6658,0.9068 3.0718,0.9068 C4.4788,0.9068 5.6188,2.0468 5.6188,3.4538 C5.6188,4.8598 4.4788,5.9998 3.0718,5.9998 C1.6658,5.9998 0.5258,4.8598 0.5258,3.4538" id="Fill-37" fill="#65BDB8" mask="url(#mask-26)"></path>
            </g>
            <g id="Group-42" transform="translate(92.000000, 0.093020)">
                <mask id="mask-28" fill="white">
                    <use xlink:href="#path-27"></use>
                </mask>
                <g id="Clip-41"></g>
                <path d="M0.6528,3.4538 C0.6528,2.0468 1.7928,0.9068 3.1998,0.9068 C4.6058,0.9068 5.7458,2.0468 5.7458,3.4538 C5.7458,4.8598 4.6058,5.9998 3.1998,5.9998 C1.7928,5.9998 0.6528,4.8598 0.6528,3.4538" id="Fill-40" fill="#65BDB8" mask="url(#mask-28)"></path>
            </g>
            <g id="Group-45" transform="translate(99.000000, 0.093020)">
                <mask id="mask-30" fill="white">
                    <use xlink:href="#path-29"></use>
                </mask>
                <g id="Clip-44"></g>
                <path d="M0.7798,3.4538 C0.7798,2.0468 1.9208,0.9068 3.3268,0.9068 C4.7328,0.9068 5.8728,2.0468 5.8728,3.4538 C5.8728,4.8598 4.7328,5.9998 3.3268,5.9998 C1.9208,5.9998 0.7798,4.8598 0.7798,3.4538" id="Fill-43" fill="#65BDB8" mask="url(#mask-30)"></path>
            </g>
            <g id="Group-48" transform="translate(106.000000, 0.093020)">
                <mask id="mask-32" fill="white">
                    <use xlink:href="#path-31"></use>
                </mask>
                <g id="Clip-47"></g>
                <path d="M0.9067,3.4538 C0.9067,2.0468 2.0477,0.9068 3.4537,0.9068 C4.8597,0.9068 6.0007,2.0468 6.0007,3.4538 C6.0007,4.8598 4.8597,5.9998 3.4537,5.9998 C2.0477,5.9998 0.9067,4.8598 0.9067,3.4538" id="Fill-46" fill="#65BDB8" mask="url(#mask-32)"></path>
            </g>
            <g id="Group-51" transform="translate(114.000000, 0.093020)">
                <mask id="mask-34" fill="white">
                    <use xlink:href="#path-33"></use>
                </mask>
                <g id="Clip-50"></g>
                <path d="M0.0337,3.4538 C0.0337,2.0468 1.1747,0.9068 2.5807,0.9068 C3.9867,0.9068 5.1277,2.0468 5.1277,3.4538 C5.1277,4.8598 3.9867,5.9998 2.5807,5.9998 C1.1747,5.9998 0.0337,4.8598 0.0337,3.4538" id="Fill-49" fill="#65BDB8" mask="url(#mask-34)"></path>
            </g>
            <g id="Group-54" transform="translate(121.000000, 0.093020)">
                <mask id="mask-36" fill="white">
                    <use xlink:href="#path-35"></use>
                </mask>
                <g id="Clip-53"></g>
                <path d="M0.1616,3.4538 C0.1616,2.0468 1.3016,0.9068 2.7076,0.9068 C4.1136,0.9068 5.2546,2.0468 5.2546,3.4538 C5.2546,4.8598 4.1136,5.9998 2.7076,5.9998 C1.3016,5.9998 0.1616,4.8598 0.1616,3.4538" id="Fill-52" fill="#65BDB8" mask="url(#mask-36)"></path>
            </g>
            <g id="Group-57" transform="translate(128.000000, 0.093020)">
                <mask id="mask-38" fill="white">
                    <use xlink:href="#path-37"></use>
                </mask>
                <g id="Clip-56"></g>
                <path d="M0.2885,3.4538 C0.2885,2.0468 1.4285,0.9068 2.8345,0.9068 C4.2415,0.9068 5.3815,2.0468 5.3815,3.4538 C5.3815,4.8598 4.2415,5.9998 2.8345,5.9998 C1.4285,5.9998 0.2885,4.8598 0.2885,3.4538" id="Fill-55" fill="#65BDB8" mask="url(#mask-38)"></path>
            </g>
            <g id="Group-60" transform="translate(135.000000, 0.093020)">
                <mask id="mask-40" fill="white">
                    <use xlink:href="#path-39"></use>
                </mask>
                <g id="Clip-59"></g>
                <path d="M0.4155,3.4538 C0.4155,2.0468 1.5565,0.9068 2.9625,0.9068 C4.3685,0.9068 5.5085,2.0468 5.5085,3.4538 C5.5085,4.8598 4.3685,5.9998 2.9625,5.9998 C1.5565,5.9998 0.4155,4.8598 0.4155,3.4538" id="Fill-58" fill="#65BDB8" mask="url(#mask-40)"></path>
            </g>
            <g id="Group-63" transform="translate(142.000000, 0.093020)">
                <mask id="mask-42" fill="white">
                    <use xlink:href="#path-41"></use>
                </mask>
                <g id="Clip-62"></g>
                <path d="M0.5424,3.4538 C0.5424,2.0468 1.6834,0.9068 3.0894,0.9068 C4.4954,0.9068 5.6354,2.0468 5.6354,3.4538 C5.6354,4.8598 4.4954,5.9998 3.0894,5.9998 C1.6834,5.9998 0.5424,4.8598 0.5424,3.4538" id="Fill-61" fill="#65BDB8" mask="url(#mask-42)"></path>
            </g>
        </g>
    </g>
</svg>