<?xml version="1.0" encoding="UTF-8"?>
<svg width="500px" height="15px" viewBox="0 0 500 15" version="1.1" xmlns="http://www.w3.org/2000/svg" xmlns:xlink="http://www.w3.org/1999/xlink">
    <!-- Generator: Sketch 64 (93537) - https://sketch.com -->
    <title>231</title>
    <desc>Created with Sketch.</desc>
    <defs>
        <polygon id="path-1" points="0.7725 0.1601 5.865 0.1601 5.865 5.2531 0.7725 5.2531"></polygon>
        <polygon id="path-3" points="0 0.9072 5.093 0.9072 5.093 6 0 6"></polygon>
        <polygon id="path-5" points="0.127 0.9072 5.22 0.9072 5.22 6 0.127 6"></polygon>
        <polygon id="path-7" points="0.2544 0.9072 5.3474 0.9072 5.3474 6 0.2544 6"></polygon>
        <polygon id="path-9" points="0.3813 0.9072 5.4743 0.9072 5.4743 6 0.3813 6"></polygon>
        <polygon id="path-11" points="0.5083 0.9072 5.6013 0.9072 5.6013 6 0.5083 6"></polygon>
        <polygon id="path-13" points="0.6357 0.9072 5.7287 0.9072 5.7287 6 0.6357 6"></polygon>
        <polygon id="path-15" points="0.7627 0.9072 5.8557 0.9072 5.8557 6 0.7627 6"></polygon>
        <polygon id="path-17" points="0.8901 0.9072 5.9831 0.9072 5.9831 6 0.8901 6"></polygon>
        <polygon id="path-19" points="0.0171 0.9072 5.1101 0.9072 5.1101 6 0.0171 6"></polygon>
        <polygon id="path-21" points="0.144 0.9072 5.237 0.9072 5.237 6 0.144 6"></polygon>
        <polygon id="path-23" points="0.2715 0.9072 5.3645 0.9072 5.3645 6 0.2715 6"></polygon>
        <polygon id="path-25" points="0.3984 0.9072 5.4914 0.9072 5.4914 6 0.3984 6"></polygon>
        <polygon id="path-27" points="0.5254 0.9072 5.6184 0.9072 5.6184 6 0.5254 6"></polygon>
        <polygon id="path-29" points="0.6528 0.9072 5.7458 0.9072 5.7458 6 0.6528 6"></polygon>
        <polygon id="path-31" points="0.7798 0.9072 5.8728 0.9072 5.8728 6 0.7798 6"></polygon>
        <polygon id="path-33" points="0.9072 0.9072 6.0002 0.9072 6.0002 6 0.9072 6"></polygon>
        <polygon id="path-35" points="0.0342 0.9072 5.1272 0.9072 5.1272 6 0.0342 6"></polygon>
        <polygon id="path-37" points="0.1611 0.9072 5.2541 0.9072 5.2541 6 0.1611 6"></polygon>
        <polygon id="path-39" points="0.2886 0.9072 5.3816 0.9072 5.3816 6 0.2886 6"></polygon>
        <polygon id="path-41" points="0.4155 0.9072 5.5085 0.9072 5.5085 6 0.4155 6"></polygon>
        <polygon id="path-43" points="0.5425 0.9072 5.6355 0.9072 5.6355 6 0.5425 6"></polygon>
        <polygon id="path-45" points="0.6699 0.9072 5.7629 0.9072 5.7629 6 0.6699 6"></polygon>
        <polygon id="path-47" points="0.7969 0.9072 5.8899 0.9072 5.8899 6 0.7969 6"></polygon>
        <polygon id="path-49" points="0.9238 0.9072 6.0168 0.9072 6.0168 6 0.9238 6"></polygon>
        <polygon id="path-51" points="0.0513 0.9072 5.1443 0.9072 5.1443 6 0.0513 6"></polygon>
        <polygon id="path-53" points="0.1782 0.9072 5.2712 0.9072 5.2712 6 0.1782 6"></polygon>
        <polygon id="path-55" points="0.3057 0.9072 5.3987 0.9072 5.3987 6 0.3057 6"></polygon>
    </defs>
    <g id="231" stroke="none" stroke-width="1" fill="none" fill-rule="evenodd">
        <g id="Group-223" transform="translate(0.000000, 1.000000)">
            <path d="M0,3.5467 C0,2.1407 1.14,0.9997 2.546,0.9997 C3.953,0.9997 5.093,2.1407 5.093,3.5467 C5.093,4.9527 3.953,6.0927 2.546,6.0927 C1.14,6.0927 0,4.9527 0,3.5467" id="Fill-1" fill="#65BDB8"></path>
            <path d="M7.127,3.5467 C7.127,2.1407 8.267,0.9997 9.674,0.9997 C11.08,0.9997 12.22,2.1407 12.22,3.5467 C12.22,4.9527 11.08,6.0927 9.674,6.0927 C8.267,6.0927 7.127,4.9527 7.127,3.5467" id="Fill-3" fill="#65BDB8"></path>
            <path d="M14.2544,3.5467 C14.2544,2.1407 15.3944,0.9997 16.8004,0.9997 C18.2074,0.9997 19.3474,2.1407 19.3474,3.5467 C19.3474,4.9527 18.2074,6.0927 16.8004,6.0927 C15.3944,6.0927 14.2544,4.9527 14.2544,3.5467" id="Fill-5" fill="#65BDB8"></path>
            <path d="M21.3813,3.5467 C21.3813,2.1407 22.5213,0.9997 23.9273,0.9997 C25.3343,0.9997 26.4743,2.1407 26.4743,3.5467 C26.4743,4.9527 25.3343,6.0927 23.9273,6.0927 C22.5213,6.0927 21.3813,4.9527 21.3813,3.5467" id="Fill-7" fill="#65BDB8"></path>
            <path d="M28.5083,3.5467 C28.5083,2.1407 29.6483,0.9997 31.0553,0.9997 C32.4613,0.9997 33.6013,2.1407 33.6013,3.5467 C33.6013,4.9527 32.4613,6.0927 31.0553,6.0927 C29.6483,6.0927 28.5083,4.9527 28.5083,3.5467" id="Fill-9" fill="#65BDB8"></path>
            <path d="M35.6357,3.5467 C35.6357,2.1407 36.7757,0.9997 38.1817,0.9997 C39.5887,0.9997 40.7287,2.1407 40.7287,3.5467 C40.7287,4.9527 39.5887,6.0927 38.1817,6.0927 C36.7757,6.0927 35.6357,4.9527 35.6357,3.5467" id="Fill-11" fill="#65BDB8"></path>
            <path d="M42.7627,3.5467 C42.7627,2.1407 43.9027,0.9997 45.3087,0.9997 C46.7157,0.9997 47.8557,2.1407 47.8557,3.5467 C47.8557,4.9527 46.7157,6.0927 45.3087,6.0927 C43.9027,6.0927 42.7627,4.9527 42.7627,3.5467" id="Fill-13" fill="#65BDB8"></path>
            <path d="M49.8901,3.5467 C49.8901,2.1407 51.0301,0.9997 52.4361,0.9997 C53.8431,0.9997 54.9831,2.1407 54.9831,3.5467 C54.9831,4.9527 53.8431,6.0927 52.4361,6.0927 C51.0301,6.0927 49.8901,4.9527 49.8901,3.5467" id="Fill-15" fill="#65BDB8"></path>
            <path d="M57.0171,3.5467 C57.0171,2.1407 58.1571,0.9997 59.5631,0.9997 C60.9701,0.9997 62.1101,2.1407 62.1101,3.5467 C62.1101,4.9527 60.9701,6.0927 59.5631,6.0927 C58.1571,6.0927 57.0171,4.9527 57.0171,3.5467" id="Fill-17" fill="#65BDB8"></path>
            <path d="M64.144,3.5467 C64.144,2.1407 65.284,0.9997 66.691,0.9997 C68.097,0.9997 69.237,2.1407 69.237,3.5467 C69.237,4.9527 68.097,6.0927 66.691,6.0927 C65.284,6.0927 64.144,4.9527 64.144,3.5467" id="Fill-19" fill="#65BDB8"></path>
            <path d="M71.2715,3.5467 C71.2715,2.1407 72.4115,0.9997 73.8175,0.9997 C75.2245,0.9997 76.3645,2.1407 76.3645,3.5467 C76.3645,4.9527 75.2245,6.0927 73.8175,6.0927 C72.4115,6.0927 71.2715,4.9527 71.2715,3.5467" id="Fill-21" fill="#65BDB8"></path>
            <path d="M78.3984,3.5467 C78.3984,2.1407 79.5384,0.9997 80.9444,0.9997 C82.3514,0.9997 83.4914,2.1407 83.4914,3.5467 C83.4914,4.9527 82.3514,6.0927 80.9444,6.0927 C79.5384,6.0927 78.3984,4.9527 78.3984,3.5467" id="Fill-23" fill="#65BDB8"></path>
            <path d="M85.5254,3.5467 C85.5254,2.1407 86.6654,0.9997 88.0724,0.9997 C89.4784,0.9997 90.6184,2.1407 90.6184,3.5467 C90.6184,4.9527 89.4784,6.0927 88.0724,6.0927 C86.6654,6.0927 85.5254,4.9527 85.5254,3.5467" id="Fill-25" fill="#65BDB8"></path>
            <path d="M92.6528,3.5467 C92.6528,2.1407 93.7928,0.9997 95.1988,0.9997 C96.6058,0.9997 97.7458,2.1407 97.7458,3.5467 C97.7458,4.9527 96.6058,6.0927 95.1988,6.0927 C93.7928,6.0927 92.6528,4.9527 92.6528,3.5467" id="Fill-27" fill="#65BDB8"></path>
            <path d="M99.7798,3.5467 C99.7798,2.1407 100.9198,0.9997 102.3258,0.9997 C103.7328,0.9997 104.8728,2.1407 104.8728,3.5467 C104.8728,4.9527 103.7328,6.0927 102.3258,6.0927 C100.9198,6.0927 99.7798,4.9527 99.7798,3.5467" id="Fill-29" fill="#65BDB8"></path>
            <path d="M106.9072,3.5467 C106.9072,2.1407 108.0472,0.9997 109.4532,0.9997 C110.8602,0.9997 112.0002,2.1407 112.0002,3.5467 C112.0002,4.9527 110.8602,6.0927 109.4532,6.0927 C108.0472,6.0927 106.9072,4.9527 106.9072,3.5467" id="Fill-31" fill="#65BDB8"></path>
            <path d="M114.0342,3.5467 C114.0342,2.1407 115.1742,0.9997 116.5802,0.9997 C117.9872,0.9997 119.1272,2.1407 119.1272,3.5467 C119.1272,4.9527 117.9872,6.0927 116.5802,6.0927 C115.1742,6.0927 114.0342,4.9527 114.0342,3.5467" id="Fill-33" fill="#65BDB8"></path>
            <path d="M121.1611,3.5467 C121.1611,2.1407 122.3011,0.9997 123.7081,0.9997 C125.1141,0.9997 126.2541,2.1407 126.2541,3.5467 C126.2541,4.9527 125.1141,6.0927 123.7081,6.0927 C122.3011,6.0927 121.1611,4.9527 121.1611,3.5467" id="Fill-35" fill="#65BDB8"></path>
            <path d="M128.2886,3.5467 C128.2886,2.1407 129.4286,0.9997 130.8346,0.9997 C132.2416,0.9997 133.3816,2.1407 133.3816,3.5467 C133.3816,4.9527 132.2416,6.0927 130.8346,6.0927 C129.4286,6.0927 128.2886,4.9527 128.2886,3.5467" id="Fill-37" fill="#65BDB8"></path>
            <path d="M135.4155,3.5467 C135.4155,2.1407 136.5555,0.9997 137.9615,0.9997 C139.3685,0.9997 140.5085,2.1407 140.5085,3.5467 C140.5085,4.9527 139.3685,6.0927 137.9615,6.0927 C136.5555,6.0927 135.4155,4.9527 135.4155,3.5467" id="Fill-39" fill="#65BDB8"></path>
            <path d="M142.5425,3.5467 C142.5425,2.1407 143.6825,0.9997 145.0895,0.9997 C146.4955,0.9997 147.6355,2.1407 147.6355,3.5467 C147.6355,4.9527 146.4955,6.0927 145.0895,6.0927 C143.6825,6.0927 142.5425,4.9527 142.5425,3.5467" id="Fill-41" fill="#65BDB8"></path>
            <path d="M149.6699,3.5467 C149.6699,2.1407 150.8099,0.9997 152.2159,0.9997 C153.6229,0.9997 154.7629,2.1407 154.7629,3.5467 C154.7629,4.9527 153.6229,6.0927 152.2159,6.0927 C150.8099,6.0927 149.6699,4.9527 149.6699,3.5467" id="Fill-43" fill="#65BDB8"></path>
            <path d="M156.7969,3.5467 C156.7969,2.1407 157.9369,0.9997 159.3429,0.9997 C160.7499,0.9997 161.8899,2.1407 161.8899,3.5467 C161.8899,4.9527 160.7499,6.0927 159.3429,6.0927 C157.9369,6.0927 156.7969,4.9527 156.7969,3.5467" id="Fill-45" fill="#65BDB8"></path>
            <path d="M163.9238,3.5467 C163.9238,2.1407 165.0638,0.9997 166.4708,0.9997 C167.8768,0.9997 169.0168,2.1407 169.0168,3.5467 C169.0168,4.9527 167.8768,6.0927 166.4708,6.0927 C165.0638,6.0927 163.9238,4.9527 163.9238,3.5467" id="Fill-47" fill="#65BDB8"></path>
            <path d="M171.0513,3.5467 C171.0513,2.1407 172.1913,0.9997 173.5973,0.9997 C175.0043,0.9997 176.1443,2.1407 176.1443,3.5467 C176.1443,4.9527 175.0043,6.0927 173.5973,6.0927 C172.1913,6.0927 171.0513,4.9527 171.0513,3.5467" id="Fill-49" fill="#65BDB8"></path>
            <path d="M178.1782,3.5467 C178.1782,2.1407 179.3182,0.9997 180.7242,0.9997 C182.1312,0.9997 183.2712,2.1407 183.2712,3.5467 C183.2712,4.9527 182.1312,6.0927 180.7242,6.0927 C179.3182,6.0927 178.1782,4.9527 178.1782,3.5467" id="Fill-51" fill="#65BDB8"></path>
            <path d="M185.3057,3.5467 C185.3057,2.1407 186.4457,0.9997 187.8517,0.9997 C189.2587,0.9997 190.3987,2.1407 190.3987,3.5467 C190.3987,4.9527 189.2587,6.0927 187.8517,6.0927 C186.4457,6.0927 185.3057,4.9527 185.3057,3.5467" id="Fill-53" fill="#65BDB8"></path>
            <path d="M192.4326,3.5467 C192.4326,2.1407 193.5726,0.9997 194.9786,0.9997 C196.3856,0.9997 197.5256,2.1407 197.5256,3.5467 C197.5256,4.9527 196.3856,6.0927 194.9786,6.0927 C193.5726,6.0927 192.4326,4.9527 192.4326,3.5467" id="Fill-55" fill="#65BDB8"></path>
            <path d="M199.5596,3.5467 C199.5596,2.1407 200.6996,0.9997 202.1066,0.9997 C203.5126,0.9997 204.6526,2.1407 204.6526,3.5467 C204.6526,4.9527 203.5126,6.0927 202.1066,6.0927 C200.6996,6.0927 199.5596,4.9527 199.5596,3.5467" id="Fill-57" fill="#65BDB8"></path>
            <path d="M206.687,3.5467 C206.687,2.1407 207.827,0.9997 209.233,0.9997 C210.64,0.9997 211.78,2.1407 211.78,3.5467 C211.78,4.9527 210.64,6.0927 209.233,6.0927 C207.827,6.0927 206.687,4.9527 206.687,3.5467" id="Fill-59" fill="#65BDB8"></path>
            <path d="M213.814,3.5467 C213.814,2.1407 214.954,0.9997 216.36,0.9997 C217.767,0.9997 218.907,2.1407 218.907,3.5467 C218.907,4.9527 217.767,6.0927 216.36,6.0927 C214.954,6.0927 213.814,4.9527 213.814,3.5467" id="Fill-61" fill="#65BDB8"></path>
            <path d="M220.9409,3.5467 C220.9409,2.1407 222.0809,0.9997 223.4879,0.9997 C224.8939,0.9997 226.0339,2.1407 226.0339,3.5467 C226.0339,4.9527 224.8939,6.0927 223.4879,6.0927 C222.0809,6.0927 220.9409,4.9527 220.9409,3.5467" id="Fill-63" fill="#65BDB8"></path>
            <path d="M228.0684,3.5467 C228.0684,2.1407 229.2084,0.9997 230.6144,0.9997 C232.0214,0.9997 233.1614,2.1407 233.1614,3.5467 C233.1614,4.9527 232.0214,6.0927 230.6144,6.0927 C229.2084,6.0927 228.0684,4.9527 228.0684,3.5467" id="Fill-65" fill="#65BDB8"></path>
            <path d="M235.1953,3.5467 C235.1953,2.1407 236.3353,0.9997 237.7413,0.9997 C239.1483,0.9997 240.2883,2.1407 240.2883,3.5467 C240.2883,4.9527 239.1483,6.0927 237.7413,6.0927 C236.3353,6.0927 235.1953,4.9527 235.1953,3.5467" id="Fill-67" fill="#65BDB8"></path>
            <path d="M242.3228,3.5467 C242.3228,2.1407 243.4628,0.9997 244.8688,0.9997 C246.2758,0.9997 247.4158,2.1407 247.4158,3.5467 C247.4158,4.9527 246.2758,6.0927 244.8688,6.0927 C243.4628,6.0927 242.3228,4.9527 242.3228,3.5467" id="Fill-69" fill="#65BDB8"></path>
            <path d="M249.4497,3.5467 C249.4497,2.1407 250.5897,0.9997 251.9957,0.9997 C253.4027,0.9997 254.5427,2.1407 254.5427,3.5467 C254.5427,4.9527 253.4027,6.0927 251.9957,6.0927 C250.5897,6.0927 249.4497,4.9527 249.4497,3.5467" id="Fill-71" fill="#65BDB8"></path>
            <path d="M256.5771,3.5467 C256.5771,2.1407 257.7171,0.9997 259.1231,0.9997 C260.5291,0.9997 261.6701,2.1407 261.6701,3.5467 C261.6701,4.9527 260.5291,6.0927 259.1231,6.0927 C257.7171,6.0927 256.5771,4.9527 256.5771,3.5467" id="Fill-73" fill="#65BDB8"></path>
            <path d="M263.7041,3.5467 C263.7041,2.1407 264.8441,0.9997 266.2501,0.9997 C267.6571,0.9997 268.7971,2.1407 268.7971,3.5467 C268.7971,4.9527 267.6571,6.0927 266.2501,6.0927 C264.8441,6.0927 263.7041,4.9527 263.7041,3.5467" id="Fill-75" fill="#65BDB8"></path>
            <path d="M270.8311,3.5467 C270.8311,2.1407 271.9711,0.9997 273.3781,0.9997 C274.7841,0.9997 275.9241,2.1407 275.9241,3.5467 C275.9241,4.9527 274.7841,6.0927 273.3781,6.0927 C271.9711,6.0927 270.8311,4.9527 270.8311,3.5467" id="Fill-77" fill="#65BDB8"></path>
            <path d="M277.958,3.5467 C277.958,2.1407 279.099,0.9997 280.505,0.9997 C281.911,0.9997 283.051,2.1407 283.051,3.5467 C283.051,4.9527 281.911,6.0927 280.505,6.0927 C279.099,6.0927 277.958,4.9527 277.958,3.5467" id="Fill-79" fill="#65BDB8"></path>
            <path d="M285.085,3.5467 C285.085,2.1407 286.226,0.9997 287.632,0.9997 C289.038,0.9997 290.179,2.1407 290.179,3.5467 C290.179,4.9527 289.038,6.0927 287.632,6.0927 C286.226,6.0927 285.085,4.9527 285.085,3.5467" id="Fill-81" fill="#65BDB8"></path>
            <path d="M292.2129,3.5467 C292.2129,2.1407 293.3529,0.9997 294.7589,0.9997 C296.1649,0.9997 297.3059,2.1407 297.3059,3.5467 C297.3059,4.9527 296.1649,6.0927 294.7589,6.0927 C293.3529,6.0927 292.2129,4.9527 292.2129,3.5467" id="Fill-83" fill="#65BDB8"></path>
            <path d="M299.3398,3.5467 C299.3398,2.1407 300.4798,0.9997 301.8858,0.9997 C303.2928,0.9997 304.4328,2.1407 304.4328,3.5467 C304.4328,4.9527 303.2928,6.0927 301.8858,6.0927 C300.4798,6.0927 299.3398,4.9527 299.3398,3.5467" id="Fill-85" fill="#65BDB8"></path>
            <path d="M306.4668,3.5467 C306.4668,2.1407 307.6068,0.9997 309.0138,0.9997 C310.4198,0.9997 311.5598,2.1407 311.5598,3.5467 C311.5598,4.9527 310.4198,6.0927 309.0138,6.0927 C307.6068,6.0927 306.4668,4.9527 306.4668,3.5467" id="Fill-87" fill="#65BDB8"></path>
            <path d="M313.5937,3.5467 C313.5937,2.1407 314.7347,0.9997 316.1407,0.9997 C317.5467,0.9997 318.6867,2.1407 318.6867,3.5467 C318.6867,4.9527 317.5467,6.0927 316.1407,6.0927 C314.7347,6.0927 313.5937,4.9527 313.5937,3.5467" id="Fill-89" fill="#65BDB8"></path>
            <path d="M320.7207,3.5467 C320.7207,2.1407 321.8617,0.9997 323.2677,0.9997 C324.6737,0.9997 325.8147,2.1407 325.8147,3.5467 C325.8147,4.9527 324.6737,6.0927 323.2677,6.0927 C321.8617,6.0927 320.7207,4.9527 320.7207,3.5467" id="Fill-91" fill="#65BDB8"></path>
            <path d="M327.8477,3.5467 C327.8477,2.1407 328.9887,0.9997 330.3947,0.9997 C331.8007,0.9997 332.9417,2.1407 332.9417,3.5467 C332.9417,4.9527 331.8007,6.0927 330.3947,6.0927 C328.9887,6.0927 327.8477,4.9527 327.8477,3.5467" id="Fill-93" fill="#65BDB8"></path>
            <path d="M334.9756,3.5467 C334.9756,2.1407 336.1156,0.9997 337.5216,0.9997 C338.9276,0.9997 340.0686,2.1407 340.0686,3.5467 C340.0686,4.9527 338.9276,6.0927 337.5216,6.0927 C336.1156,6.0927 334.9756,4.9527 334.9756,3.5467" id="Fill-95" fill="#65BDB8"></path>
            <path d="M342.1025,3.5467 C342.1025,2.1407 343.2425,0.9997 344.6485,0.9997 C346.0555,0.9997 347.1955,2.1407 347.1955,3.5467 C347.1955,4.9527 346.0555,6.0927 344.6485,6.0927 C343.2425,6.0927 342.1025,4.9527 342.1025,3.5467" id="Fill-97" fill="#65BDB8"></path>
            <path d="M349.2295,3.5467 C349.2295,2.1407 350.3705,0.9997 351.7765,0.9997 C353.1825,0.9997 354.3225,2.1407 354.3225,3.5467 C354.3225,4.9527 353.1825,6.0927 351.7765,6.0927 C350.3705,6.0927 349.2295,4.9527 349.2295,3.5467" id="Fill-99" fill="#65BDB8"></path>
            <path d="M356.3564,3.5467 C356.3564,2.1407 357.4974,0.9997 358.9034,0.9997 C360.3094,0.9997 361.4494,2.1407 361.4494,3.5467 C361.4494,4.9527 360.3094,6.0927 358.9034,6.0927 C357.4974,6.0927 356.3564,4.9527 356.3564,3.5467" id="Fill-101" fill="#65BDB8"></path>
            <path d="M363.4834,3.5467 C363.4834,2.1407 364.6244,0.9997 366.0304,0.9997 C367.4364,0.9997 368.5774,2.1407 368.5774,3.5467 C368.5774,4.9527 367.4364,6.0927 366.0304,6.0927 C364.6244,6.0927 363.4834,4.9527 363.4834,3.5467" id="Fill-103" fill="#65BDB8"></path>
            <path d="M370.6113,3.5467 C370.6113,2.1407 371.7513,0.9997 373.1573,0.9997 C374.5633,0.9997 375.7043,2.1407 375.7043,3.5467 C375.7043,4.9527 374.5633,6.0927 373.1573,6.0927 C371.7513,6.0927 370.6113,4.9527 370.6113,3.5467" id="Fill-105" fill="#65BDB8"></path>
            <path d="M377.7383,3.5467 C377.7383,2.1407 378.8783,0.9997 380.2843,0.9997 C381.6913,0.9997 382.8313,2.1407 382.8313,3.5467 C382.8313,4.9527 381.6913,6.0927 380.2843,6.0927 C378.8783,6.0927 377.7383,4.9527 377.7383,3.5467" id="Fill-107" fill="#65BDB8"></path>
            <path d="M384.8652,3.5467 C384.8652,2.1407 386.0052,0.9997 387.4122,0.9997 C388.8182,0.9997 389.9582,2.1407 389.9582,3.5467 C389.9582,4.9527 388.8182,6.0927 387.4122,6.0927 C386.0052,6.0927 384.8652,4.9527 384.8652,3.5467" id="Fill-109" fill="#65BDB8"></path>
            <path d="M391.9922,3.5467 C391.9922,2.1407 393.1332,0.9997 394.5392,0.9997 C395.9452,0.9997 397.0852,2.1407 397.0852,3.5467 C397.0852,4.9527 395.9452,6.0927 394.5392,6.0927 C393.1332,6.0927 391.9922,4.9527 391.9922,3.5467" id="Fill-111" fill="#65BDB8"></path>
            <path d="M399.1191,3.5467 C399.1191,2.1407 400.2601,0.9997 401.6661,0.9997 C403.0721,0.9997 404.2131,2.1407 404.2131,3.5467 C404.2131,4.9527 403.0721,6.0927 401.6661,6.0927 C400.2601,6.0927 399.1191,4.9527 399.1191,3.5467" id="Fill-113" fill="#65BDB8"></path>
            <path d="M406.2471,3.5467 C406.2471,2.1407 407.3871,0.9997 408.7931,0.9997 C410.1991,0.9997 411.3401,2.1407 411.3401,3.5467 C411.3401,4.9527 410.1991,6.0927 408.7931,6.0927 C407.3871,6.0927 406.2471,4.9527 406.2471,3.5467" id="Fill-115" fill="#65BDB8"></path>
            <path d="M413.374,3.5467 C413.374,2.1407 414.514,0.9997 415.92,0.9997 C417.326,0.9997 418.467,2.1407 418.467,3.5467 C418.467,4.9527 417.326,6.0927 415.92,6.0927 C414.514,6.0927 413.374,4.9527 413.374,3.5467" id="Fill-117" fill="#65BDB8"></path>
            <path d="M420.501,3.5467 C420.501,2.1407 421.641,0.9997 423.048,0.9997 C424.454,0.9997 425.594,2.1407 425.594,3.5467 C425.594,4.9527 424.454,6.0927 423.048,6.0927 C421.641,6.0927 420.501,4.9527 420.501,3.5467" id="Fill-119" fill="#65BDB8"></path>
            <path d="M427.6279,3.5467 C427.6279,2.1407 428.7689,0.9997 430.1749,0.9997 C431.5809,0.9997 432.7209,2.1407 432.7209,3.5467 C432.7209,4.9527 431.5809,6.0927 430.1749,6.0927 C428.7689,6.0927 427.6279,4.9527 427.6279,3.5467" id="Fill-121" fill="#65BDB8"></path>
            <path d="M434.7549,3.5467 C434.7549,2.1407 435.8959,0.9997 437.3019,0.9997 C438.7079,0.9997 439.8489,2.1407 439.8489,3.5467 C439.8489,4.9527 438.7079,6.0927 437.3019,6.0927 C435.8959,6.0927 434.7549,4.9527 434.7549,3.5467" id="Fill-123" fill="#65BDB8"></path>
            <path d="M441.8818,3.5467 C441.8818,2.1407 443.0228,0.9997 444.4288,0.9997 C445.8348,0.9997 446.9758,2.1407 446.9758,3.5467 C446.9758,4.9527 445.8348,6.0927 444.4288,6.0927 C443.0228,6.0927 441.8818,4.9527 441.8818,3.5467" id="Fill-125" fill="#65BDB8"></path>
            <path d="M449.0098,3.5467 C449.0098,2.1407 450.1498,0.9997 451.5558,0.9997 C452.9618,0.9997 454.1028,2.1407 454.1028,3.5467 C454.1028,4.9527 452.9618,6.0927 451.5558,6.0927 C450.1498,6.0927 449.0098,4.9527 449.0098,3.5467" id="Fill-127" fill="#65BDB8"></path>
            <path d="M456.1367,3.5467 C456.1367,2.1407 457.2767,0.9997 458.6827,0.9997 C460.0897,0.9997 461.2297,2.1407 461.2297,3.5467 C461.2297,4.9527 460.0897,6.0927 458.6827,6.0927 C457.2767,6.0927 456.1367,4.9527 456.1367,3.5467" id="Fill-129" fill="#65BDB8"></path>
            <path d="M463.2637,3.5467 C463.2637,2.1407 464.4037,0.9997 465.8107,0.9997 C467.2167,0.9997 468.3567,2.1407 468.3567,3.5467 C468.3567,4.9527 467.2167,6.0927 465.8107,6.0927 C464.4037,6.0927 463.2637,4.9527 463.2637,3.5467" id="Fill-131" fill="#65BDB8"></path>
            <path d="M470.3906,3.5467 C470.3906,2.1407 471.5316,0.9997 472.9376,0.9997 C474.3436,0.9997 475.4836,2.1407 475.4836,3.5467 C475.4836,4.9527 474.3436,6.0927 472.9376,6.0927 C471.5316,6.0927 470.3906,4.9527 470.3906,3.5467" id="Fill-133" fill="#65BDB8"></path>
            <path d="M477.5176,3.5467 C477.5176,2.1407 478.6586,0.9997 480.0646,0.9997 C481.4706,0.9997 482.6116,2.1407 482.6116,3.5467 C482.6116,4.9527 481.4706,6.0927 480.0646,6.0927 C478.6586,6.0927 477.5176,4.9527 477.5176,3.5467" id="Fill-135" fill="#65BDB8"></path>
            <path d="M484.6455,3.5467 C484.6455,2.1407 485.7855,0.9997 487.1915,0.9997 C488.5975,0.9997 489.7385,2.1407 489.7385,3.5467 C489.7385,4.9527 488.5975,6.0927 487.1915,6.0927 C485.7855,6.0927 484.6455,4.9527 484.6455,3.5467" id="Fill-137" fill="#65BDB8"></path>
            <g id="Group-141" transform="translate(491.000000, 0.839600)">
                <mask id="mask-2" fill="white">
                    <use xlink:href="#path-1"></use>
                </mask>
                <g id="Clip-140"></g>
                <path d="M0.7725,2.7071 C0.7725,1.3011 1.9125,0.1601 3.3185,0.1601 C4.7255,0.1601 5.8655,1.3011 5.8655,2.7071 C5.8655,4.1131 4.7255,5.2531 3.3185,5.2531 C1.9125,5.2531 0.7725,4.1131 0.7725,2.7071" id="Fill-139" fill="#65BDB8" mask="url(#mask-2)"></path>
            </g>
            <g id="Group-144" transform="translate(0.000000, 6.839600)">
                <mask id="mask-4" fill="white">
                    <use xlink:href="#path-3"></use>
                </mask>
                <g id="Clip-143"></g>
                <path d="M0,3.4532 C0,2.0472 1.14,0.9072 2.546,0.9072 C3.953,0.9072 5.093,2.0472 5.093,3.4532 C5.093,4.8592 3.953,6.0002 2.546,6.0002 C1.14,6.0002 0,4.8592 0,3.4532" id="Fill-142" fill="#65BDB8" mask="url(#mask-4)"></path>
            </g>
            <g id="Group-147" transform="translate(7.000000, 6.839600)">
                <mask id="mask-6" fill="white">
                    <use xlink:href="#path-5"></use>
                </mask>
                <g id="Clip-146"></g>
                <path d="M0.127,3.4532 C0.127,2.0472 1.267,0.9072 2.674,0.9072 C4.08,0.9072 5.22,2.0472 5.22,3.4532 C5.22,4.8592 4.08,6.0002 2.674,6.0002 C1.267,6.0002 0.127,4.8592 0.127,3.4532" id="Fill-145" fill="#65BDB8" mask="url(#mask-6)"></path>
            </g>
            <g id="Group-150" transform="translate(14.000000, 6.839600)">
                <mask id="mask-8" fill="white">
                    <use xlink:href="#path-7"></use>
                </mask>
                <g id="Clip-149"></g>
                <path d="M0.2544,3.4532 C0.2544,2.0472 1.3944,0.9072 2.8004,0.9072 C4.2074,0.9072 5.3474,2.0472 5.3474,3.4532 C5.3474,4.8592 4.2074,6.0002 2.8004,6.0002 C1.3944,6.0002 0.2544,4.8592 0.2544,3.4532" id="Fill-148" fill="#65BDB8" mask="url(#mask-8)"></path>
            </g>
            <g id="Group-153" transform="translate(21.000000, 6.839600)">
                <mask id="mask-10" fill="white">
                    <use xlink:href="#path-9"></use>
                </mask>
                <g id="Clip-152"></g>
                <path d="M0.3813,3.4532 C0.3813,2.0472 1.5213,0.9072 2.9273,0.9072 C4.3343,0.9072 5.4743,2.0472 5.4743,3.4532 C5.4743,4.8592 4.3343,6.0002 2.9273,6.0002 C1.5213,6.0002 0.3813,4.8592 0.3813,3.4532" id="Fill-151" fill="#65BDB8" mask="url(#mask-10)"></path>
            </g>
            <g id="Group-156" transform="translate(28.000000, 6.839600)">
                <mask id="mask-12" fill="white">
                    <use xlink:href="#path-11"></use>
                </mask>
                <g id="Clip-155"></g>
                <path d="M0.5083,3.4532 C0.5083,2.0472 1.6483,0.9072 3.0553,0.9072 C4.4613,0.9072 5.6013,2.0472 5.6013,3.4532 C5.6013,4.8592 4.4613,6.0002 3.0553,6.0002 C1.6483,6.0002 0.5083,4.8592 0.5083,3.4532" id="Fill-154" fill="#65BDB8" mask="url(#mask-12)"></path>
            </g>
            <g id="Group-159" transform="translate(35.000000, 6.839600)">
                <mask id="mask-14" fill="white">
                    <use xlink:href="#path-13"></use>
                </mask>
                <g id="Clip-158"></g>
                <path d="M0.6357,3.4532 C0.6357,2.0472 1.7757,0.9072 3.1817,0.9072 C4.5887,0.9072 5.7287,2.0472 5.7287,3.4532 C5.7287,4.8592 4.5887,6.0002 3.1817,6.0002 C1.7757,6.0002 0.6357,4.8592 0.6357,3.4532" id="Fill-157" fill="#65BDB8" mask="url(#mask-14)"></path>
            </g>
            <g id="Group-162" transform="translate(42.000000, 6.839600)">
                <mask id="mask-16" fill="white">
                    <use xlink:href="#path-15"></use>
                </mask>
                <g id="Clip-161"></g>
                <path d="M0.7627,3.4532 C0.7627,2.0472 1.9027,0.9072 3.3087,0.9072 C4.7157,0.9072 5.8557,2.0472 5.8557,3.4532 C5.8557,4.8592 4.7157,6.0002 3.3087,6.0002 C1.9027,6.0002 0.7627,4.8592 0.7627,3.4532" id="Fill-160" fill="#65BDB8" mask="url(#mask-16)"></path>
            </g>
            <g id="Group-165" transform="translate(49.000000, 6.839600)">
                <mask id="mask-18" fill="white">
                    <use xlink:href="#path-17"></use>
                </mask>
                <g id="Clip-164"></g>
                <path d="M0.8901,3.4532 C0.8901,2.0472 2.0301,0.9072 3.4361,0.9072 C4.8431,0.9072 5.9831,2.0472 5.9831,3.4532 C5.9831,4.8592 4.8431,6.0002 3.4361,6.0002 C2.0301,6.0002 0.8901,4.8592 0.8901,3.4532" id="Fill-163" fill="#65BDB8" mask="url(#mask-18)"></path>
            </g>
            <g id="Group-168" transform="translate(57.000000, 6.839600)">
                <mask id="mask-20" fill="white">
                    <use xlink:href="#path-19"></use>
                </mask>
                <g id="Clip-167"></g>
                <path d="M0.0171,3.4532 C0.0171,2.0472 1.1571,0.9072 2.5631,0.9072 C3.9701,0.9072 5.1101,2.0472 5.1101,3.4532 C5.1101,4.8592 3.9701,6.0002 2.5631,6.0002 C1.1571,6.0002 0.0171,4.8592 0.0171,3.4532" id="Fill-166" fill="#65BDB8" mask="url(#mask-20)"></path>
            </g>
            <g id="Group-171" transform="translate(64.000000, 6.839600)">
                <mask id="mask-22" fill="white">
                    <use xlink:href="#path-21"></use>
                </mask>
                <g id="Clip-170"></g>
                <path d="M0.144,3.4532 C0.144,2.0472 1.284,0.9072 2.691,0.9072 C4.097,0.9072 5.237,2.0472 5.237,3.4532 C5.237,4.8592 4.097,6.0002 2.691,6.0002 C1.284,6.0002 0.144,4.8592 0.144,3.4532" id="Fill-169" fill="#65BDB8" mask="url(#mask-22)"></path>
            </g>
            <g id="Group-174" transform="translate(71.000000, 6.839600)">
                <mask id="mask-24" fill="white">
                    <use xlink:href="#path-23"></use>
                </mask>
                <g id="Clip-173"></g>
                <path d="M0.2715,3.4532 C0.2715,2.0472 1.4115,0.9072 2.8175,0.9072 C4.2245,0.9072 5.3645,2.0472 5.3645,3.4532 C5.3645,4.8592 4.2245,6.0002 2.8175,6.0002 C1.4115,6.0002 0.2715,4.8592 0.2715,3.4532" id="Fill-172" fill="#65BDB8" mask="url(#mask-24)"></path>
            </g>
            <g id="Group-177" transform="translate(78.000000, 6.839600)">
                <mask id="mask-26" fill="white">
                    <use xlink:href="#path-25"></use>
                </mask>
                <g id="Clip-176"></g>
                <path d="M0.3984,3.4532 C0.3984,2.0472 1.5384,0.9072 2.9444,0.9072 C4.3514,0.9072 5.4914,2.0472 5.4914,3.4532 C5.4914,4.8592 4.3514,6.0002 2.9444,6.0002 C1.5384,6.0002 0.3984,4.8592 0.3984,3.4532" id="Fill-175" fill="#65BDB8" mask="url(#mask-26)"></path>
            </g>
            <g id="Group-180" transform="translate(85.000000, 6.839600)">
                <mask id="mask-28" fill="white">
                    <use xlink:href="#path-27"></use>
                </mask>
                <g id="Clip-179"></g>
                <path d="M0.5254,3.4532 C0.5254,2.0472 1.6654,0.9072 3.0724,0.9072 C4.4784,0.9072 5.6184,2.0472 5.6184,3.4532 C5.6184,4.8592 4.4784,6.0002 3.0724,6.0002 C1.6654,6.0002 0.5254,4.8592 0.5254,3.4532" id="Fill-178" fill="#65BDB8" mask="url(#mask-28)"></path>
            </g>
            <g id="Group-183" transform="translate(92.000000, 6.839600)">
                <mask id="mask-30" fill="white">
                    <use xlink:href="#path-29"></use>
                </mask>
                <g id="Clip-182"></g>
                <path d="M0.6528,3.4532 C0.6528,2.0472 1.7928,0.9072 3.1988,0.9072 C4.6058,0.9072 5.7458,2.0472 5.7458,3.4532 C5.7458,4.8592 4.6058,6.0002 3.1988,6.0002 C1.7928,6.0002 0.6528,4.8592 0.6528,3.4532" id="Fill-181" fill="#65BDB8" mask="url(#mask-30)"></path>
            </g>
            <g id="Group-186" transform="translate(99.000000, 6.839600)">
                <mask id="mask-32" fill="white">
                    <use xlink:href="#path-31"></use>
                </mask>
                <g id="Clip-185"></g>
                <path d="M0.7798,3.4532 C0.7798,2.0472 1.9198,0.9072 3.3258,0.9072 C4.7328,0.9072 5.8728,2.0472 5.8728,3.4532 C5.8728,4.8592 4.7328,6.0002 3.3258,6.0002 C1.9198,6.0002 0.7798,4.8592 0.7798,3.4532" id="Fill-184" fill="#65BDB8" mask="url(#mask-32)"></path>
            </g>
            <g id="Group-189" transform="translate(106.000000, 6.839600)">
                <mask id="mask-34" fill="white">
                    <use xlink:href="#path-33"></use>
                </mask>
                <g id="Clip-188"></g>
                <path d="M0.9072,3.4532 C0.9072,2.0472 2.0472,0.9072 3.4532,0.9072 C4.8602,0.9072 6.0002,2.0472 6.0002,3.4532 C6.0002,4.8592 4.8602,6.0002 3.4532,6.0002 C2.0472,6.0002 0.9072,4.8592 0.9072,3.4532" id="Fill-187" fill="#65BDB8" mask="url(#mask-34)"></path>
            </g>
            <g id="Group-192" transform="translate(114.000000, 6.839600)">
                <mask id="mask-36" fill="white">
                    <use xlink:href="#path-35"></use>
                </mask>
                <g id="Clip-191"></g>
                <path d="M0.0342,3.4532 C0.0342,2.0472 1.1742,0.9072 2.5802,0.9072 C3.9872,0.9072 5.1272,2.0472 5.1272,3.4532 C5.1272,4.8592 3.9872,6.0002 2.5802,6.0002 C1.1742,6.0002 0.0342,4.8592 0.0342,3.4532" id="Fill-190" fill="#65BDB8" mask="url(#mask-36)"></path>
            </g>
            <g id="Group-195" transform="translate(121.000000, 6.839600)">
                <mask id="mask-38" fill="white">
                    <use xlink:href="#path-37"></use>
                </mask>
                <g id="Clip-194"></g>
                <path d="M0.1611,3.4532 C0.1611,2.0472 1.3011,0.9072 2.7081,0.9072 C4.1141,0.9072 5.2541,2.0472 5.2541,3.4532 C5.2541,4.8592 4.1141,6.0002 2.7081,6.0002 C1.3011,6.0002 0.1611,4.8592 0.1611,3.4532" id="Fill-193" fill="#65BDB8" mask="url(#mask-38)"></path>
            </g>
            <g id="Group-198" transform="translate(128.000000, 6.839600)">
                <mask id="mask-40" fill="white">
                    <use xlink:href="#path-39"></use>
                </mask>
                <g id="Clip-197"></g>
                <path d="M0.2886,3.4532 C0.2886,2.0472 1.4286,0.9072 2.8346,0.9072 C4.2416,0.9072 5.3816,2.0472 5.3816,3.4532 C5.3816,4.8592 4.2416,6.0002 2.8346,6.0002 C1.4286,6.0002 0.2886,4.8592 0.2886,3.4532" id="Fill-196" fill="#65BDB8" mask="url(#mask-40)"></path>
            </g>
            <g id="Group-201" transform="translate(135.000000, 6.839600)">
                <mask id="mask-42" fill="white">
                    <use xlink:href="#path-41"></use>
                </mask>
                <g id="Clip-200"></g>
                <path d="M0.4155,3.4532 C0.4155,2.0472 1.5555,0.9072 2.9615,0.9072 C4.3685,0.9072 5.5085,2.0472 5.5085,3.4532 C5.5085,4.8592 4.3685,6.0002 2.9615,6.0002 C1.5555,6.0002 0.4155,4.8592 0.4155,3.4532" id="Fill-199" fill="#65BDB8" mask="url(#mask-42)"></path>
            </g>
            <g id="Group-204" transform="translate(142.000000, 6.839600)">
                <mask id="mask-44" fill="white">
                    <use xlink:href="#path-43"></use>
                </mask>
                <g id="Clip-203"></g>
                <path d="M0.5425,3.4532 C0.5425,2.0472 1.6825,0.9072 3.0895,0.9072 C4.4955,0.9072 5.6355,2.0472 5.6355,3.4532 C5.6355,4.8592 4.4955,6.0002 3.0895,6.0002 C1.6825,6.0002 0.5425,4.8592 0.5425,3.4532" id="Fill-202" fill="#65BDB8" mask="url(#mask-44)"></path>
            </g>
            <g id="Group-207" transform="translate(149.000000, 6.839600)">
                <mask id="mask-46" fill="white">
                    <use xlink:href="#path-45"></use>
                </mask>
                <g id="Clip-206"></g>
                <path d="M0.6699,3.4532 C0.6699,2.0472 1.8099,0.9072 3.2159,0.9072 C4.6229,0.9072 5.7629,2.0472 5.7629,3.4532 C5.7629,4.8592 4.6229,6.0002 3.2159,6.0002 C1.8099,6.0002 0.6699,4.8592 0.6699,3.4532" id="Fill-205" fill="#65BDB8" mask="url(#mask-46)"></path>
            </g>
            <g id="Group-210" transform="translate(156.000000, 6.839600)">
                <mask id="mask-48" fill="white">
                    <use xlink:href="#path-47"></use>
                </mask>
                <g id="Clip-209"></g>
                <path d="M0.7969,3.4532 C0.7969,2.0472 1.9369,0.9072 3.3429,0.9072 C4.7499,0.9072 5.8899,2.0472 5.8899,3.4532 C5.8899,4.8592 4.7499,6.0002 3.3429,6.0002 C1.9369,6.0002 0.7969,4.8592 0.7969,3.4532" id="Fill-208" fill="#65BDB8" mask="url(#mask-48)"></path>
            </g>
            <g id="Group-213" transform="translate(163.000000, 6.839600)">
                <mask id="mask-50" fill="white">
                    <use xlink:href="#path-49"></use>
                </mask>
                <g id="Clip-212"></g>
                <path d="M0.9238,3.4532 C0.9238,2.0472 2.0638,0.9072 3.4708,0.9072 C4.8768,0.9072 6.0168,2.0472 6.0168,3.4532 C6.0168,4.8592 4.8768,6.0002 3.4708,6.0002 C2.0638,6.0002 0.9238,4.8592 0.9238,3.4532" id="Fill-211" fill="#65BDB8" mask="url(#mask-50)"></path>
            </g>
            <g id="Group-216" transform="translate(171.000000, 6.839600)">
                <mask id="mask-52" fill="white">
                    <use xlink:href="#path-51"></use>
                </mask>
                <g id="Clip-215"></g>
                <path d="M0.0513,3.4532 C0.0513,2.0472 1.1913,0.9072 2.5973,0.9072 C4.0043,0.9072 5.1443,2.0472 5.1443,3.4532 C5.1443,4.8592 4.0043,6.0002 2.5973,6.0002 C1.1913,6.0002 0.0513,4.8592 0.0513,3.4532" id="Fill-214" fill="#65BDB8" mask="url(#mask-52)"></path>
            </g>
            <g id="Group-219" transform="translate(178.000000, 6.839600)">
                <mask id="mask-54" fill="white">
                    <use xlink:href="#path-53"></use>
                </mask>
                <g id="Clip-218"></g>
                <path d="M0.1782,3.4532 C0.1782,2.0472 1.3182,0.9072 2.7242,0.9072 C4.1312,0.9072 5.2712,2.0472 5.2712,3.4532 C5.2712,4.8592 4.1312,6.0002 2.7242,6.0002 C1.3182,6.0002 0.1782,4.8592 0.1782,3.4532" id="Fill-217" fill="#65BDB8" mask="url(#mask-54)"></path>
            </g>
            <g id="Group-222" transform="translate(185.000000, 6.839600)">
                <mask id="mask-56" fill="white">
                    <use xlink:href="#path-55"></use>
                </mask>
                <g id="Clip-221"></g>
                <path d="M0.3057,3.4532 C0.3057,2.0472 1.4457,0.9072 2.8517,0.9072 C4.2587,0.9072 5.3987,2.0472 5.3987,3.4532 C5.3987,4.8592 4.2587,6.0002 2.8517,6.0002 C1.4457,6.0002 0.3057,4.8592 0.3057,3.4532" id="Fill-220" fill="#65BDB8" mask="url(#mask-56)"></path>
            </g>
        </g>
    </g>
</svg>