<?xml version="1.0" encoding="UTF-8"?>
<svg width="185px" height="301px" viewBox="0 0 185 301" version="1.1" xmlns="http://www.w3.org/2000/svg" xmlns:xlink="http://www.w3.org/1999/xlink">
    <!-- Generator: Sketch 64 (93537) - https://sketch.com -->
    <title>1</title>
    <desc>Created with Sketch.</desc>
    <g id="1" stroke="none" stroke-width="1" fill="none" fill-rule="evenodd">
        <g id="Group-4">
            <polygon id="Fill-1" fill="#FFFFFF" points="170.1999 6.4003 165.7999 8.6003 160.7999 9.6003 157.6999 12.3003 150.7999 12.4993 143.9999 16.8993 139.5999 14.5003 132.7009 15.2003 131.4999 19.4003 125.1999 22.2993 114.5999 19.9003 110.2999 22.6003 104.0009 22.1003 103.3999 19.9003 97.7999 16.8993 93.3999 20.4003 82.7999 19.9003 80.9999 28.0003 77.7999 30.7003 77.7999 35.6003 80.2999 40.1003 79.0999 43.9993 80.9999 54.1003 84.6999 57.6003 90.8999 65.3003 97.7999 74.7003 99.0999 78.7003 96.5999 84.2003 97.7999 88.2003 97.1999 98.6993 95.2999 100.4003 89.6999 101.2003 85.2999 108.2003 87.7999 111.2003 88.3999 119.0003 84.6999 118.7993 84.6999 113.2993 83.4999 113.2993 72.8999 102.0003 72.8999 99.2003 69.7009 96.7003 72.8999 92.2003 72.8999 89.2003 75.9999 85.5003 75.9999 80.5003 74.6999 73.0003 71.6009 69.8003 62.1999 72.3003 59.0999 72.3003 55.9999 69.5003 52.2999 63.1003 25.3999 72.0003 21.1009 74.0003 10.4999 76.5003 0.5009 80.2003 2.9999 87.4003 3.5999 91.9003 3.5999 98.6993 11.6999 98.4003 13.5999 99.7003 18.5999 99.0003 21.1009 101.4993 26.0999 102.4993 29.7999 106.2003 36.0999 106.7003 46.6999 111.4993 45.3999 115.5003 49.1999 123.0993 47.2999 132.4003 47.8999 139.0003 49.1999 140.8003 45.9999 144.6003 46.6999 149.1003 43.4999 149.9003 42.8999 153.2003 45.9999 155.3003 44.7999 161.6003 45.3999 165.4993 49.1999 167.5003 48.4999 171.9003 42.2999 181.5993 40.3999 181.9003 39.7999 187.9993 37.2999 192.4003 38.4999 195.2993 21.6999 214.2003 19.2009 215.7993 23.0009 230.0993 23.0009 235.0993 26.6999 243.0003 28.5999 245.0993 31.1009 254.0003 31.1009 277.4003 30.3999 283.2993 32.2999 284.4003 31.6999 289.7003 32.8999 300.4993 46.6999 300.4993 47.2999 289.2003 45.9999 289.7003 40.3999 283.8003 42.8999 282.0003 46.6999 275.2993 50.9999 272.0993 60.9999 266.9993 77.1999 261.5003 85.2999 257.2003 91.5999 248.0003 92.7999 243.5003 90.2999 243.0003 91.5999 230.4003 93.3999 226.2003 92.2009 225.4003 91.5999 218.9003 92.2009 212.5993 89.0999 210.0003 87.7999 201.7003 84.1009 194.5003 85.2999 189.3003 82.7999 185.0003 79.0999 181.5993 77.7999 177.8003 79.0999 173.9003 78.4999 169.2993 80.9999 168.8003 89.0999 162.7003 94.6999 155.4993 100.9009 151.7003 107.7999 148.9003 108.9999 145.3003 115.8999 138.2003 119.5989 132.4003 123.4009 128.9003 133.4009 123.0993 145.2009 118.3003 153.8999 116.3003 155.7999 113.2993 164.4999 108.2003 165.7999 104.0003 169.4999 102.7003 172.5989 97.2003 179.4999 89.6993 181.4009 84.7003 180.0999 83.0003 184.4999 77.2003 184.4999 70.9993 181.9999 69.2993 182.5989 67.5003 178.8999 56.3993 179.4999 46.7003 180.7999 40.5003 178.2999 31.7003 178.8999 27.2003 176.9999 20.9003 178.2999 8.7993 180.7999 6.9003 178.8999 1.0003 177.5999 0.5003"></polygon>
            <polygon id="Stroke-2" stroke="#E75F52" stroke-linecap="round" stroke-linejoin="round" points="46.7002 300.5 32.9002 300.5 31.7002 289.7 32.3002 284.4 30.4002 283.3 31.1002 277.4 31.1002 254 28.6002 245.1 26.7002 243 23.0002 235.1 23.0002 230.1 19.2002 215.8 21.7002 214.2 38.5002 195.3 37.3002 192.4 39.8002 188 40.4002 181.9 42.3002 181.6 48.5002 171.9 49.2002 167.5 45.4002 165.5 44.8002 161.6 46.0002 155.3 42.9002 153.2 43.5002 149.9 46.7002 149.1 46.0002 144.6 49.2002 140.8 47.9002 139 47.3002 132.4 49.2002 123.1 45.4002 115.5 46.7002 111.5 36.1002 106.7 29.8002 106.2 26.1002 102.5 21.1002 101.5 18.6002 99 13.6002 99.7 11.7002 98.4 3.6002 98.7 3.6002 91.9 3.0002 87.4 0.5002 80.2 10.5002 76.5 21.1002 74 25.4002 72 52.3002 63.1 56.0002 69.5 59.1002 72.3 62.2002 72.3 71.6002 69.8 74.7002 73 76.0002 80.5 76.0002 85.5 72.9002 89.2 72.9002 92.2 69.7002 96.7 72.9002 99.2 72.9002 102 83.5002 113.3 84.7002 113.3 84.7002 118.8 88.4002 119 87.8002 111.2 85.3002 108.2 89.7002 101.2 95.3002 100.4 97.2002 98.7 97.8002 88.2 96.5992 84.2 99.0992 78.7 97.8002 74.7 90.9002 65.3 84.7002 57.6 81.0002 54.1 79.1002 44 80.3002 40.1 77.8002 35.6 77.8002 30.7 81.0002 28 82.8002 19.9 93.4002 20.4 97.8002 16.9 103.4002 19.9 104.0002 22.1 110.3002 22.6 114.5992 19.9 125.2002 22.3 131.5002 19.4 132.7002 15.2 139.5992 14.5 144.0002 16.9 150.8002 12.5 157.7002 12.3 160.8002 9.6 165.8002 8.6 170.2002 6.4 177.5992 0.5 178.9002 1 180.8002 6.9 178.3002 8.8 177.0002 20.9 178.9002 27.2 178.3002 31.7 180.8002 40.5 179.5002 46.7 178.9002 56.4 182.5992 67.5 182.0002 69.3 184.5002 71 184.5002 77.2 180.0992 83 181.4002 84.7 179.5002 89.7 172.5992 97.2 169.5002 102.7 165.8002 104 164.5002 108.2 155.8002 113.3 153.9002 116.3 145.2002 118.3 133.4002 123.1 123.4002 128.9 119.5992 132.4 115.9002 138.2 109.0002 145.3 107.8002 148.9 100.9002 151.7 94.7002 155.5 89.1002 162.7 81.0002 168.8 78.5002 169.3 79.1002 173.9 77.8002 177.8 79.1002 181.6 82.8002 185 85.3002 189.3 84.1002 194.5 87.8002 201.7 89.1002 210 92.2002 212.6 91.6002 218.9 92.2002 225.4 93.4002 226.2 91.6002 230.4 90.3002 243 92.8002 243.5 91.6002 248 85.3002 257.2 77.2002 261.5 61.0002 267 51.0002 272.1 46.7002 275.3 42.9002 282 40.4002 283.8 46.0002 289.7 47.3002 289.2"></polygon>
        </g>
    </g>
</svg>