<?xml version="1.0" encoding="utf-8"?>
<!-- Generator: Adobe Illustrator 24.1.2, SVG Export Plug-In . SVG Version: 6.00 Build 0)  -->
<!DOCTYPE svg PUBLIC "-//W3C//DTD SVG 1.1//EN" "http://www.w3.org/Graphics/SVG/1.1/DTD/svg11.dtd" [
	<!ENTITY ns_extend "http://ns.adobe.com/Extensibility/1.0/">
	<!ENTITY ns_ai "http://ns.adobe.com/AdobeIllustrator/10.0/">
	<!ENTITY ns_graphs "http://ns.adobe.com/Graphs/1.0/">
	<!ENTITY ns_vars "http://ns.adobe.com/Variables/1.0/">
	<!ENTITY ns_imrep "http://ns.adobe.com/ImageReplacement/1.0/">
	<!ENTITY ns_sfw "http://ns.adobe.com/SaveForWeb/1.0/">
	<!ENTITY ns_custom "http://ns.adobe.com/GenericCustomNamespace/1.0/">
	<!ENTITY ns_adobe_xpath "http://ns.adobe.com/XPath/1.0/">
]>
<svg version="1.1" id="Livello_1" xmlns:x="&ns_extend;" xmlns:i="&ns_ai;" xmlns:graph="&ns_graphs;"
	 xmlns="http://www.w3.org/2000/svg" xmlns:xlink="http://www.w3.org/1999/xlink" x="0px" y="0px" viewBox="0 0 184 300"
	 style="enable-background:new 0 0 184 300;" xml:space="preserve">
<style type="text/css">
	.st0{fill-rule:evenodd;clip-rule:evenodd;fill:#FFFFFF;stroke:#E75F52;stroke-linecap:round;stroke-linejoin:round;}
</style>
<metadata>
	<sfw  xmlns="&ns_sfw;">
		<slices></slices>
		<sliceSourceBounds  bottomLeftOrigin="true" height="301" width="185" x="-0.5" y="-0.5"></sliceSourceBounds>
	</sfw>
</metadata>
<desc>Created with Sketch.</desc>
<g id="_x31_">
	<polygon id="Fill-60" class="st0" points="46.2,300 32.4,300 31.2,289.2 31.8,283.9 29.9,282.8 30.6,276.9 30.6,253.5 28.1,244.6 
		26.2,242.5 22.5,234.6 22.5,229.6 18.7,215.3 21.2,213.7 38,194.8 36.8,191.9 39.3,187.5 39.9,181.4 41.8,181.1 48,171.4 48.7,167 
		44.9,165 44.3,161.1 45.5,154.8 42.4,152.7 43,149.4 46.2,148.6 45.5,144.1 48.7,140.3 47.4,138.5 46.8,131.9 48.7,122.6 44.9,115 
		46.2,111 35.6,106.2 29.3,105.7 25.6,102 20.6,101 18.1,98.5 13.1,99.2 11.2,97.9 3.1,98.2 3.1,91.4 2.5,86.9 0,79.7 10,76 
		20.6,73.5 24.9,71.5 51.8,62.6 55.5,69 58.6,71.8 61.7,71.8 71.1,69.3 74.2,72.5 75.5,80 75.5,85 72.4,88.7 72.4,91.7 69.2,96.2 
		72.4,98.7 72.4,101.5 83,112.8 84.2,112.8 84.2,118.3 87.9,118.5 87.3,110.7 84.8,107.7 89.2,100.7 94.8,99.9 96.7,98.2 97.3,87.7 
		96.1,83.7 98.6,78.2 97.3,74.2 90.4,64.8 84.2,57.1 80.5,53.6 78.6,43.5 79.8,39.6 77.3,35.1 77.3,30.2 80.5,27.5 82.3,19.4 
		92.9,19.9 97.3,16.4 102.9,19.4 103.5,21.6 109.8,22.1 114.1,19.4 124.7,21.8 131,18.9 132.2,14.7 139.1,14 143.5,16.4 150.3,12 
		157.2,11.8 160.3,9.1 165.3,8.1 169.7,5.9 177.1,0 178.4,0.5 180.3,6.4 177.8,8.3 176.5,20.4 178.4,26.7 177.8,31.2 180.3,40 
		179,46.2 178.4,55.9 182.1,67 181.5,68.8 184,70.5 184,76.7 179.6,82.5 180.9,84.2 179,89.2 172.1,96.7 169,102.2 165.3,103.5 
		164,107.7 155.3,112.8 153.4,115.8 144.7,117.8 132.9,122.6 122.9,128.4 119.1,131.9 115.4,137.7 108.5,144.8 107.3,148.4 
		100.4,151.2 94.2,155 88.6,162.2 80.5,168.3 78,168.8 78.6,173.4 77.3,177.3 78.6,181.1 82.3,184.5 84.8,188.8 83.6,194 
		87.3,201.2 88.6,209.5 91.7,212.1 91.1,218.4 91.7,224.9 92.9,225.7 91.1,229.9 89.8,242.5 92.3,243 91.1,247.5 84.8,256.7 
		76.7,261 60.5,266.5 50.5,271.6 46.2,274.8 42.4,281.5 39.9,283.3 45.5,289.2 46.8,288.7 	"/>
</g>
</svg>
