<?xml version="1.0" encoding="UTF-8"?>
<svg width="146px" height="300px" viewBox="0 0 146 300" version="1.1" xmlns="http://www.w3.org/2000/svg" xmlns:xlink="http://www.w3.org/1999/xlink">
    <!-- Generator: Sketch 64 (93537) - https://sketch.com -->
    <title>10</title>
    <desc>Created with Sketch.</desc>
    <g id="10" stroke="none" stroke-width="1" fill="none" fill-rule="evenodd">
        <g id="Group-37" fill="#FFFFFF">
            <path d="M88.0543474,293.909538 L55.4531079,300.5 L38.4364402,294.923456 L27.9063241,287.488063 C27.9063241,287.488063 17.5446898,265.942323 16.9550033,264.843913 C16.3653168,263.745502 9.37163488,252.074978 9.37163488,252.074978 L11.5733558,251.605872 L12.1448463,251.307442 L16.1857151,249.195791 L18.3432938,247.761098 L18.0248631,246.141534 L18.8649137,243.258292 L19.1388652,242.306899 L19.1745833,242.184553 L19.3026295,241.741134 L19.12168,241.131093 L18.9316325,240.886739 L17.4190023,238.945088 L16.7733799,236.022979 L17.441242,235.032382 L17.4277634,233.983315 L17.9584813,232.139 L17.3256634,230.265281 L18.3429569,228.279693 L17.3303809,225.625596 L17.4671882,225.025695 L16.1361815,222.406071 L16.2558036,221.92784 L16.3134244,221.688894 L16.0081353,221.152193 L12.1300199,217.736644 L11.7098261,215.545907 L11.4843974,215.082885 L11.2899693,214.687795 L9.37938504,212.619066 L7.68142488,210.111311 L7.39365786,208.935505 L7.66828329,207.530216 L7.30065588,206.315543 L7.46475721,204.578703 L7.84485228,203.900731 L7.93785426,203.29069 L8.03995427,202.656316 L8.86214574,201.709994 L10.3346772,200.661265 L9.73791444,197.499533 L8.83114507,195.377067 L8.74724111,194.001519 L7.72994765,193.005852 L7.36737469,192.123069 L6.97380107,191.166607 L4.53687948,189.127281 L3.74568867,188.741655 L3.14858896,187.029149 L3.56406523,184.765748 L3.78646128,183.549385 L3.80330947,183.457794 L4.09916361,179.794174 L3.64358866,177.276279 L2.9234972,175.641845 L2.33515855,171.958284 L2.7637764,170.99709 L2.12725194,169.167646 L2.600349,166.352336 L2.09625128,164.162275 L2.03424995,163.264282 L1.86610506,160.683863 L2.22025393,159.404975 L1.95034599,157.419387 L2.21519947,156.497399 L2.83891931,155.706881 L2.8965401,155.458134 L3.10849028,154.545946 L2.52082556,150.897196 L2.48072688,150.140476 L2.30415789,146.857074 L2.19801432,146.247372 L2.13163247,146.208505 L1.68549251,145.949618 L1.61877369,145.34431 L1.92001926,144.544329 L2.06154402,142.290053 L1.98134665,141.904765 L1.59687105,139.972576 L1.96348757,138.328341 L0.721102353,136.52323 L1.27372285,135.283885 L1.29596245,134.478835 L0.751766051,133.820127 L0.150622781,133.63965 L0,133.190822 L0.977868704,131.200165 L0.725145917,130.185572 L1.0883928,128.887758 L1.56587039,127.179983 L1.5833925,127.063045 L2.09658824,123.842844 L2.82173416,121.837316 L2.85273482,121.749443 L2.91911667,121.563896 L2.7823094,121.134671 L2.34425657,119.768587 L2.17611168,119.246757 L2.10096877,119.212622 L1.77849449,119.071012 L1.1682532,119.256559 L0.982586197,118.690793 L1.84487635,117.714729 L3.18868765,116.192839 L3.59573982,115.73421 L5.36479933,114.353593 L5.44870329,114.290054 L5.55922739,114.255919 L6.62504362,113.919299 L7.66895722,114.104845 L8.14205428,114.773355 L9.3008725,116.412521 L9.93301643,119.939939 L10.8883086,120.247156 L11.1268789,120.774393 L11.4635056,121.515904 L11.3924063,122.155348 L11.2994043,123.0868 L11.8345027,125.638491 L11.8702208,125.804436 L13.2628919,126.448611 L14.6424213,126.04372 L14.8860461,125.780102 L15.5532342,125.058193 L15.4912329,124.452884 L14.9824177,123.794514 L14.0318431,123.243281 L13.2180757,122.009006 L13.4707985,121.56998 L14.4388952,121.516242 L14.6070401,121.325964 L14.8550454,121.043081 L14.7044226,120.82813 L13.0374631,118.442721 L13.5371803,117.656935 L13.2315542,116.925225 L12.8029364,116.422322 L12.4932667,116.056298 L11.9625489,114.788226 L11.3880258,114.729418 L10.9149287,114.680412 L10.5253986,114.143712 L11.153499,113.314666 L11.7637403,111.514287 L12.4487875,111.494347 L13.2366087,109.894047 L13.4306998,109.499296 L13.0155605,108.440766 L13.5196582,107.72832 L13.4620374,106.840805 L12.0292677,103.12784 L12.2503159,102.32279 L12.0602684,101.956766 L10.5297792,101.795553 L8.76543715,102.996031 L7.96009387,102.893287 L6.86833143,101.532272 L7.3859077,100.907361 L7.78790541,100.42913 L8.26571996,99.0285729 L8.95144112,98.9650341 L9.97715867,98.3066639 L10.4057765,98.9214356 L10.8478729,98.9359685 L11.6882604,97.7064249 L13.0192671,97.6624885 L14.2886094,99.0042389 L16.6187135,101.462988 L16.8667188,101.229111 L16.1284313,99.8434243 L15.0936157,99.2577182 L14.4257537,98.3600635 L13.8775137,97.6232837 L13.8822312,97.2964644 L14.6029966,97.5259476 L15.2442385,97.7307589 L16.4600036,99.320919 L16.5129069,98.6818132 L17.0392442,98.6919524 L17.6629641,99.5896071 L17.8044888,98.7064852 L16.2965762,97.5506196 L14.7620434,96.7797046 L14.7000421,96.750301 L13.9573741,95.5697634 L13.9216559,95.3257474 L14.5719959,95.0962641 L14.7704675,94.7741764 L14.8189903,94.6961048 L14.6033335,93.60344 L14.8550454,93.0860043 L15.8322402,94.6376356 L16.3494795,94.8083116 L16.8801974,94.4568203 L17.8439136,94.5984308 L18.3170107,95.1692661 L18.5380588,96.1446545 L19.0953968,96.5157481 L19.4623503,96.3254697 L19.3959685,95.5156878 L19.679018,95.4815526 L20.0948312,95.7938391 L20.3954029,96.0182528 L19.4091101,101.433584 L18.741248,102.858476 L18.6398219,103.062949 L17.645105,104.048477 L17.2383898,105.809989 L17.6535291,106.75158 L17.8971539,106.790785 L18.8608701,106.94659 L19.130778,108.327545 L19.1439196,108.405617 L18.4187737,111.371663 L19.4401107,113.864547 L19.4182081,114.669597 L20.1783982,114.88421 L20.4880679,115.933276 L21.5003069,116.123555 L21.8804019,116.445642 L22.3582165,116.070155 L22.4822191,114.669935 L21.9380227,114.572261 L22.0222637,114.264706 L22.344738,113.957489 L22.9728383,113.898682 L23.27341,114.298842 L23.096504,114.815939 L22.9283591,115.308703 L23.9011734,116.665324 L23.4550334,117.665047 L22.7164089,118.172681 L21.8497383,117.270295 L21.3631626,117.421369 L19.7046272,119.963259 L19.8906312,120.694969 L20.6022986,121.192802 L20.0146339,122.431809 L20.7131596,123.651552 L21.1953547,123.704951 L21.6553102,123.026979 L21.7483122,122.382803 L22.2389313,121.870437 L23.76504,122.182724 L24.5872315,123.246323 L25.1883748,123.30006 L25.3214754,122.778231 L24.2209519,121.426679 L24.3085625,121.148866 L25.612949,122.261133 L25.9802395,122.026918 L24.3796618,119.538766 L25.9317167,118.519103 L26.347193,118.006737 L26.9614778,117.255086 L26.1217642,115.020751 L25.7234731,114.928146 L25.5509477,115.371904 L25.975522,116.42604 L25.4892834,116.49938 L24.7112341,115.269498 L25.0074252,114.591526 L25.9050966,114.527987 L26.6962874,113.703672 L25.9579999,112.635003 L25.0384259,112.444725 L24.8837596,112.078701 L25.4849028,110.805221 L25.4097599,110.424664 L25.3787593,110.273252 L25.7639088,109.439137 L25.5822853,108.746293 L26.3296709,107.960845 L26.5550996,107.077723 L26.4671521,106.877644 L26.0600999,105.936053 L27.1168181,104.106608 L27.7799627,103.52124 L27.3911066,102.98454 L27.1744389,101.969947 L28.120633,101.350443 L28.5408268,100.472053 L28.7352548,99.2279766 L29.1288284,99.1597062 L29.7171671,100.466983 L30.8402672,100.701198 L31.4195078,101.608654 L31.5165533,102.535712 L32.9941392,103.023407 L34.3514291,102.135215 L35.0812925,101.217958 L35.3373849,100.525115 L34.7621879,98.8666841 L35.5449546,97.6959477 L35.9921054,97.0274384 L35.8549612,96.4762054 L35.3862447,96.4616726 L34.6520007,97.4570013 L34.2587641,97.5202021 L31.7780372,96.8175575 L31.6146098,97.0473787 L32.6137072,97.5496057 L32.4546603,97.7006794 L31.9111379,97.681077 L30.7610807,96.9446351 L29.717841,97.4813353 L29.2272219,97.7885522 L28.2274505,97.4373989 L27.6081112,96.4518714 L26.2548649,95.930042 L25.9367712,95.4761451 L24.2340935,93.0072567 L23.6730489,90.0459426 L23.0183284,88.8556039 L23.6504724,87.8653447 L23.1463746,84.0158392 L23.1018954,83.8549643 L22.5583729,81.9812454 L23.690571,80.6006282 L23.8539984,80.4005485 L24.4642397,78.644106 L24.9949576,78.4585591 L25.5068055,77.9451791 L26.365726,77.0830115 L26.4058247,75.8923347 L25.8794873,75.5753166 L24.6812444,72.1891712 L24.9022926,70.0572414 L25.4104338,69.1839207 L26.5119682,68.6522901 L27.2630604,67.8617727 L28.5061195,65.2323475 L28.8771166,64.8808562 L29.9210301,65.1542759 L30.9113665,65.8663837 L32.0031289,67.1885317 L32.2288946,67.8421703 L32.8216138,68.3007988 L33.3476142,69.8135633 L32.9850412,70.5064067 L32.4098442,71.604141 L32.4324207,72.2094496 L31.9370841,72.5998077 L31.9151814,73.4437248 L33.0645647,72.7120145 L34.5549552,72.7508813 L34.8295806,71.628475 L36.6336843,70.7554923 L36.9736807,70.0771817 L36.5582045,69.0135826 L36.6202058,68.2088704 L37.9114507,66.8721895 L38.0529755,66.0722089 L37.4693544,65.286761 L37.7743065,64.491174 L37.4157771,62.6566599 L36.9116794,62.1250293 L36.2751549,61.822544 L34.0067152,61.9982897 L33.6030327,61.5663609 L33.4979,61.4612515 L32.9452795,60.9194818 L33.0291835,59.4266577 L33.5198026,57.6262788 L33.2367531,56.2845284 L33.8560924,55.8164366 L34.5812383,54.3432149 L34.5141826,54.208364 L35.3195258,54.5409288 C35.3195258,55.1323805 35.7407305,55.3858598 36.4146579,54.8789012 C37.0885854,54.3719426 37.6782719,53.4425185 37.50979,53.1045461 C37.3413081,52.7665737 37.0885854,52.5130944 36.6673807,52.4286013 C36.2461761,52.3441082 35.0256935,52.0946846 35.4337565,51.8009866 L35.5850533,51.7080442 L36.3452434,50.5616418 L36.3192972,50.0739477 L37.3049161,49.5372475 L38.4768759,47.9954175 L38.8350683,45.3409823 L38.4414947,42.0623121 L38.5654973,39.0374592 L37.862254,38.1692081 L37.6061616,35.8175962 L37.9636801,34.6174562 L38.6979241,34.314633 L39.2815452,35.807795 L39.4146459,36.1542167 L39.2330224,36.8761257 L39.7418377,37.4956291 L40.3032192,37.6713748 L40.4888862,38.3253513 L40.8474156,38.4568226 L41.3161321,37.7007784 L42.5450388,37.0518714 L43.5003309,36.1491471 L43.6152356,33.5680519 L45.0436248,34.5779134 L45.3313918,35.758789 L44.4775257,37.349625 L44.6591492,37.4959671 L44.71677,37.5399035 L45.2693905,37.9789296 L46.5606354,36.7639189 L46.6357783,36.1298827 L46.6627354,35.9200018 L46.3395872,35.1784904 L45.9813948,34.3636389 L46.2074974,33.4805171 L45.2916301,33.0120873 L45.097202,32.6413316 L45.4772971,29.221051 L46.0700162,28.3088635 L46.1495397,27.0208507 L45.9594921,26.4500154 L46.481112,25.2934738 L46.4234912,24.0199939 L45.3448703,23.6593773 L45.3532944,23.4106296 L46.9983513,22.7275874 L50.8498466,21.1026162 L52.0881882,20.3317011 L52.4814249,19.292436 L52.8931945,18.9801495 L53.4852398,18.1899701 L53.9674349,18.2876441 L54.7545821,19.1170283 L55.3253986,18.9318195 L56.9037367,17.4825939 L57.616078,16.819492 L58.3981708,17.6488763 L58.4601721,18.2974453 L59.0966966,18.6780022 L59.8312775,18.4586581 L60.7329924,18.1220376 L62.6260545,17.0875041 L63.4617245,16.2243226 L64.1733919,15.3608032 L63.9479632,14.8291726 L64.4611589,13.8727107 L64.376918,12.6627696 L65.027258,11.1456115 L68.3480354,8.91634557 L68.4191347,8.86733958 L68.657705,8.54052027 L69.1351826,7.87708046 L68.9538961,7.22817347 L69.2719899,6.02262594 L69.6837596,5.79348066 L69.8603285,6.6083321 L70.2623263,6.77900816 L72.531103,6.68606575 L74.295108,6.05676115 L75.0873097,6.56405772 L76.1480715,6.39304369 L77.1566039,5.13443449 L77.8416511,3.94375775 L78.5000782,3.64127246 L80.4905229,3.5 L81.8127685,5.31524972 L81.9414887,5.11990168 L83.1437752,5.51972302 L84.0906432,6.31497206 L86.4470305,6.55425652 L86.5309345,6.56405772 L86.9208015,6.60292454 L87.8669956,7.44210999 L89.5076719,8.10081819 L89.8571033,8.63278674 L93.1600217,10.4331657 L97.3218605,13.4333466 L96.7250978,14.4628105 L96.9104278,15.0336459 L96.6806186,17.0875041 L97.1931404,17.6292739 L96.556279,19.9075458 L96.9013298,21.8201315 L97.0778988,22.01041 L98.8200012,23.8986618 L98.7579999,24.5036323 L99.2182923,25.4452234 L100.695204,27.3868748 L102.013069,27.9137738 L103.356881,28.9283669 L103.635887,31.7240746 L103.180312,33.2412326 L103.675985,34.2270981 L103.494362,36.1981531 L104.228606,37.2323486 L104.410566,37.3232632 L107.492099,38.9107195 L108.716963,39.920919 L110.3664,40.2183347 L114.452085,40.1057899 L116.42029,39.2814752 L120.302786,39.4085529 L120.948408,39.272012 L123.150466,40.3160087 L123.5929,40.8817745 L123.203707,41.1599258 L122.208316,40.6232256 L121.655695,40.7695677 L125.866057,44.0627707 L126.016006,43.9556334 L125.529767,43.3506629 L125.511908,42.7162887 L126.458102,43.3408617 L129.209074,44.365256 L130.203791,44.8630893 L131.402034,46.7557347 L131.504134,49.7903888 L131.124039,52.2836112 L132.122799,53.4938903 L133.334184,56.5870137 L133.409664,58.3241918 L133.92724,60.1925032 L134.157386,63.622585 L134.546579,64.5347725 L135.33777,66.3983522 L135.31115,68.935511 L134.935098,69.4090103 C134.935098,69.4090103 134.554329,70.5946175 134.301607,70.9325899 C134.048884,71.2705623 134.301607,72.1999863 134.217366,72.8759311 C134.133125,73.5518759 133.796161,73.4673828 133.374956,73.5518759 C132.953752,73.636369 132.532547,73.9743414 132.279824,74.3968069 C132.027102,74.8192724 131.942861,74.9882586 131.184692,74.8192724 C130.426524,74.6502862 130.426524,74.0588345 130.426524,73.7208621 C130.426524,73.3828897 130.847729,73.0449173 131.268933,72.6224518 C131.690138,72.1999863 131.437415,71.7775209 130.822456,71.4726698 C130.207497,71.1678187 130.342283,71.3550554 130.08956,71.6930278 C129.836837,72.0310001 129.584115,72.7069449 129.247151,73.0449173 C128.910187,73.3828897 129.247151,74.5657931 128.910187,74.9037655 C128.573223,75.2417379 128.910187,76.3124344 128.910187,76.3124344 L127.780685,76.0342831 L127.386774,75.6246606 L127.32949,74.775674 L126.843252,74.922016 L126.851676,74.5607235 L126.109008,73.6144008 L125.534148,74.1216974 L124.450472,73.8144805 L124.132379,71.9214971 L123.667706,74.4390534 L123.893471,75.0098888 L124.517191,75.2147001 L125.490005,75.7757343 L125.750478,76.5466493 L126.298718,77.1661527 L126.949058,77.0634091 L129.005548,78.5663723 L129.713172,79.3518202 L129.859077,79.8787191 L130.292412,80.0835304 L130.681268,80.1714032 L131.530417,80.9909863 L131.853565,80.8787794 L131.867044,80.4738885 L132.278139,80.161602 L132.171659,79.6347031 L131.172898,79.1662733 L131.752139,78.7370484 L131.760563,78.3855571 L131.68104,77.5757752 L131.955328,77.0002082 L131.800662,76.5706453 L133.286335,77.1955563 L133.698105,77.3658944 L133.839629,79.2250805 L134.582297,79.9371883 L134.683723,80.4691569 L133.317336,83.6112862 L132.870859,83.6062166 L132.579048,84.079716 L132.517047,86.4167951 L131.478188,87.6804738 L131.00071,87.4266566 L130.368229,86.968028 L129.766749,87.0460997 L127.528973,87.3489229 L127.183922,86.8997576 L127.542451,86.5391411 L128.400361,86.2413874 L128.599507,86.172779 L129.479656,86.2170534 L129.558842,85.3727983 L129.214128,84.7387621 L129.138649,84.5971517 L128.404405,84.3146068 L128.187737,83.9144475 L128.731596,83.5629562 L129.032168,83.3676081 L128.780119,83.1431945 L128.417546,83.1627969 L127.546832,83.2114649 L127.365208,82.977588 L126.193249,83.1482641 L125.556387,82.7727767 L123.849666,83.2898745 L122.327938,84.1682647 L122.217414,84.1831355 L121.364559,84.3149448 L120.41331,85.1392594 L120.607401,85.4660787 L122.358939,86.3978686 L123.446657,86.3056021 L123.924472,86.5590814 L123.25661,87.5493406 L123.469571,88.55954 L124.079475,88.3253252 L124.370949,87.7984262 L124.40195,86.8521035 L125.259859,86.5006122 L126.007582,86.6422227 L125.866057,87.3448673 L125.043192,88.0569751 L124.711619,88.9157629 L124.50843,90.5599986 L124.671521,92.1018287 L125.060714,92.6337972 L125.653433,93.053221 L125.81686,92.9362825 L125.057007,91.1017684 L125.436765,90.4285274 L125.932439,90.0381693 L126.485059,90.4531994 L128.054973,90.4971358 L128.359588,91.228846 L127.816066,92.0193634 L127.789446,93.0684297 L128.10754,94.2391661 L127.68802,94.9904787 L127.214249,97.3032238 L126.799109,97.6347747 L125.949961,98.3130853 L124.185619,98.7132446 L123.619183,97.5763055 L123.676804,96.8790685 L123.217185,96.7080544 L123.384993,96.2592271 L122.018268,96.4694459 L122.044888,97.0304801 L121.399266,98.6260478 L121.766219,98.3965645 L122.332655,98.4499642 L122.066791,99.3722908 L121.417125,99.5135633 L118.640207,100.523425 L117.688958,103.197124 L118.109489,103.899769 L117.751297,105.055635 L118.043444,107.290646 L118.640544,107.548857 L119.171262,107.285576 L119.188784,108.012555 L118.29583,109.719992 L117.517781,111.188482 L117.818016,111.661305 L117.884397,112.11047 L117.689295,112.18381 L116.853962,113.798642 L115.983248,114.798703 L115.373007,117.696816 L115.363909,117.979699 L116.376822,119.062562 L116.898779,119.160574 L118.061303,120.570595 L118.016824,123.273698 L118.967736,123.66845 L119.458355,123.439305 L121.231795,124.751314 L121.585944,126.176205 L122.394657,127.293542 L123.158553,129.155094 L126.046669,129.318673 L126.97332,133.8813 C126.97332,133.8813 127.226042,137.767983 127.226042,138.274941 C127.226042,138.7819 126.97332,138.950886 125.709706,139.204365 C124.446092,139.457844 123.607726,140.890171 123.607726,140.890171 L123.632998,141.462021 L123.080378,142.330272 L123.0979,146.174708 L122.978952,148.019023 L123.159901,148.673 L123.858764,149.419243 L124.415765,149.414173 L124.862579,149.414173 L125.336013,149.751132 L125.945917,150.780258 L125.490679,151.209821 L125.299621,152.010139 L124.212576,152.097674 L123.150803,152.956124 L122.726566,153.297814 L122.501137,154.136999 L122.549323,154.288073 L122.863373,155.283402 L123.825742,155.682885 L125.709706,154.666264 C125.709706,154.666264 126.046669,153.905826 126.467874,154.243799 C126.889079,154.581771 126.97332,155.08873 126.97332,155.08873 L126.937939,155.988074 L127.798881,156.859367 L128.550984,157.206127 L128.705313,157.191594 L129.479656,157.117916 L129.868512,156.239526 L130.336892,155.917438 L130.925567,155.912706 L131.955665,156.390937 L132.946675,158.161913 L133.339912,158.293722 L134.073145,158.079447 L134.62644,158.381595 L135.108298,159.567202 L136.107732,159.76255 L136.421782,158.762152 L136.864216,158.820621 L136.917456,159.157241 L136.996979,159.669608 L136.55522,160.825811 L136.200734,162.991876 L136.024165,163.128417 L135.25454,163.728656 L135.562525,165.594264 L135.891064,167.583231 L138.274746,169.954445 L138.49175,170.17379 L138.43851,171.949496 L139.146134,176.082223 L138.915988,176.65779 L137.98799,177.472641 L137.797605,177.092422 L137.443456,176.936279 L137.173885,178.2929 L137.142885,178.443974 L137.346411,179.61978 L138.655178,181.322823 L138.708755,182.127873 L138.544991,182.693977 L138.30204,183.528093 L138.482989,185.206126 L138.668656,186.933503 L139.265756,187.113642 L138.845899,187.743284 L138.571611,188.967758 L138.51399,189.226307 L138.443565,190.113823 L138.735038,191.353843 L138.79704,191.616786 L138.240712,192.690186 L137.974848,193.446231 L137.267224,194.18808 L137.054937,195.79818 L137.174559,197.052058 L137.554654,197.710766 L138.06347,200.472339 L139.075709,202.68741 L139.858475,203.238981 L140,203.804746 L139.350334,206.317233 L139.129286,207.16622 L137.209603,210.654771 L134.437403,210.801451 L133.901968,211.264473 L132.703388,213.567079 L132.947349,214.172388 L133.371587,215.24545 L134.141212,215.026444 L134.246345,215.475271 L132.137289,218.631933 L129.904567,223.276688 L127.405981,226.101123 L126.733738,227.16506 L125.128106,229.735678 L122.590433,231.345779 L121.883146,232.170093 L120.737469,235.478167 L119.852602,236.961528 L118.959312,238.44962 L118.384788,240.206063 L118.482171,242.225786 L116.761634,245.91881 L117.003237,248.235949 L117.005259,248.309627 L116.633588,249.993068 L112.211276,257.028301 L109.810073,265.946716 L108.709212,268.005644 L107.53759,268.410535 L106.603863,269.996302 L106.440773,270.708747 L104.83076,270.464393 L103.252085,271.137634 L101.222216,270.869284 L100.872784,273.158033 L100.11192,274.426106 L99.9885914,275.91386 L100.687117,276.772648 L99.6213009,278.768375 L99.7544016,279.53929 L99.2900656,280.369012 L98.432156,281.066249 L96.5266262,281.934838 L94.5537036,284.28645 L94.1207052,284.803886 L93.527986,284.662614 L93.4309405,283.852156 L93.7224141,282.169391 L93.5502256,281.315335 L92.5113665,280.032392 L92.5201276,278.417222 L91.7767856,277.87072 L92.683555,276.973404 L93.2846982,276.870998 L94.1870871,277.421893 L95.5356159,275.387299 L96.2698598,274.285171 L96.8309044,270.332922 L96.5572898,269.962504 L96.1236175,270.093976 L95.6990433,272.099504 L94.9519947,273.011691 L94.4785607,274.368313 L94.0539864,274.13376 L94.558758,273.119167 L95.0578013,267.820773 L94.0455623,268.074253 L93.5239425,268.635287 L93.3288405,270.216322 L92.9662675,270.347793 L92.5376497,270.113916 L92.3341236,270.001709 L91.7990252,269.713419 L91.484975,269.976699 L91.5510199,270.713141 L90.4501595,270.694215 L89.5474337,269.795884 L89.052434,269.635347 L88.9462904,270.712803 L88.588098,270.698608 L87.2661893,268.620078 L86.6340454,269.190913 L85.5328479,272.113361 L85.26294,271.742267 L85.2851796,270.947356 L85.8819424,270.317713 L86.2222757,268.673478 L86.8277995,268.395664 L86.3550394,264.121328 L85.8064625,264.077729 L85.8903664,265.702362 L86.2091341,266.575345 L85.8421806,266.653417 L85.5901318,266.194788 L85.2316024,266.111647 L84.9401288,268.483199 L84.0512185,270.366043 L84.0336964,268.224312 L83.6536013,267.648745 L83.0517841,267.672741 L81.4289668,268.507533 L81.3767375,268.609601 L81.0043926,269.302444 L79.4257176,268.565665 L78.4131416,268.980019 L77.8251399,270.009483 L76.9446537,270.062882 L76.6087009,270.53672 L76.1089837,269.955745 L76.6309405,268.633259 L76.4981768,268.27298 L75.1452675,270.126421 L74.9906011,271.292088 L74.211878,271.834533 L74.9151212,272.502367 L74.972742,273.268888 L74.6064625,273.580837 L76.4449365,274.805649 L76.7327035,274.454495 L77.554895,275.044933 L78.5496119,275.151733 L79.4385222,274.859048 L80.0649377,274.983422 L80.3628136,275.044595 L80.8709549,275.146663 L82.3303448,274.302408 L82.9271075,274.483223 L83.4935435,275.590759 L85.0277393,274.404814 L85.3064083,274.702229 L84.780408,275.405212 L84.9613575,276.346465 L85.7350262,276.736823 L86.4561285,276.614815 L86.8678982,277.136982 L87.389518,278.859628 L88.5661953,278.332391 L88.7693844,276.926764 L89.1275769,276.936565 L89.5123894,277.390462 L90.0340093,278.658872 L88.7646669,279.630205 L87.6419038,282.498914 L88.1240989,286.387287 L87.8454299,287.665498 L88.0219989,289.690629 L87.0626632,290.904964 L86.9036163,291.105043 L86.8901378,291.514666 L86.8857573,291.710014 L87.3544738,293.256576 L87.8804742,293.754071 L88.0179554,293.886218 L88.0543474,293.909538 Z" id="Fill-1"></path>
            <polygon id="Fill-3" points="74.2147076 0.5 77.328315 0.784012192 77.5927041 0.588113051 79.3207875 0.532141868 80 1.00401773 79.9273885 1.20407315 78.9195136 0.927819341 75.5821656 1.34400111 75.1808917 1.73607648 75.7374638 2.15613743 75.3407064 2.5 74.1368848 2.26420061 74.3606254 1.56400665 74 0.947769465"></polygon>
            <polygon id="Fill-5" points="82.7613252 2.92057958 83.6670047 3.62753758 84.0084517 4.42840539 84.5493577 4.95622191 86 6.07477142 85.9824206 6.46869673 85.2373225 6.5 82.1179851 3.46668216 81.4442191 3.33248102 81 3.5469549 81.0131846 3.15333953 81.4658553 2.65682628 81.9050034 2.5"></polygon>
            <polygon id="Fill-7" points="20.3821183 111.5 21.0610729 112.424854 22 113.063435 21.9889959 113.439167 21.6063274 113.5 20.5447043 112.63175 20 111.560833"></polygon>
            <polygon id="Fill-9" points="130.483448 134.5 132 135.784254 131.860712 136.43865 131.389132 136.73381 130.065896 138.5 130 137.870484 130.897564 136.837082 130.060899 135.080436 130.073704 134.736196"></polygon>
            <polygon id="Fill-11" points="131 146.5 131.075116 146.086777 131.44059 145.798156 132.527178 145.5 133 146.009218"></polygon>
            <polygon id="Fill-13" points="92.3425781 270.51295 92.3973487 270.813206 93.9497645 272.169628 94 272.5 93.3818245 272.15186 93.1575092 272.339181 92.4252573 271.743186 92.0083726 271.07401 92 270.5"></polygon>
            <path d="M138,251.129367 C138,251.552948 139.121107,251.764738 138.989212,250.917576 C138.857317,250.070415 138,250.705786 138,251.129367" id="Fill-15"></path>
            <path d="M140.179005,249.596954 C139.850607,249.803306 140.014806,250.422363 140.343204,250.491147 C140.671602,250.559931 141,250.216011 141,249.87209 C141,249.52817 140.507403,249.390602 140.179005,249.596954" id="Fill-17"></path>
            <path d="M138.0155,213.650594 C137.795,214.058677 140,214.874844 140,214.303527 C140,213.73221 138.236,213.24251 138.0155,213.650594" id="Fill-19"></path>
            <path d="M143.293478,215.503353 C142.804348,215.56904 142.92663,216.620022 143.660326,216.488649 C144.394022,216.357276 143.782609,215.437667 143.293478,215.503353" id="Fill-21"></path>
            <path d="M145,218.938562 C145,219.486764 146,219.815686 146,219.048202 C146,218.280719 145,218.39036 145,218.938562" id="Fill-23"></path>
            <path d="M141,213.5 C141,213.837823 142,213.5 142,213.5 C142,213.5 141,213.162177 141,213.5" id="Fill-25"></path>
            <path d="M128.478075,153.5 C128.478075,153.5 127.827362,153.732642 128.044266,154.023444 C128.261171,154.314246 128.333472,154.430567 128.622678,154.488728 C128.911884,154.546888 129.128789,154.372407 128.911884,154.139765 C128.69498,153.907123 128.478075,153.5 128.478075,153.5" id="Fill-27"></path>
            <path d="M127.155756,139.5 L125.591974,140.396961 C125.591974,140.396961 124.604323,141.652706 125.180453,142.639362 C125.756583,143.626019 126.908843,144.52298 127.320364,144.702372 C127.731886,144.881764 129.213363,145.419941 129.871797,145.419941 C130.530231,145.419941 131.27097,145.689029 131.8471,145.240549 C132.42323,144.792068 132.670143,144.52298 132.917056,143.984804 C133.163969,143.446627 132.834751,141.293921 132.258621,141.024833 C131.682491,140.755745 128.472624,139.679392 128.472624,139.679392 L127.155756,139.5 Z" id="Fill-29"></path>
            <polygon id="Fill-31" points="125 127.714286 126.142857 128.5 127 127.5 126.071429 127.571429"></polygon>
            <path d="M125.148293,101.483965 C125.756655,101.647959 126,100.5 126,100.5 C126,100.5 124.539931,101.319971 125.148293,101.483965" id="Fill-33"></path>
            <path d="M126.336265,84.5360954 C125.9224,84.6494959 125.818934,84.7061962 126.439731,84.9896975 C127.060528,85.2731989 127.888257,85.5 127.888257,85.5 C127.888257,85.5 128.198655,85.0463978 127.78479,84.8195967 C127.370926,84.5927956 126.750129,84.4226948 126.336265,84.5360954" id="Fill-35"></path>
        </g>
        <g id="Group-5" transform="translate(50.000000, 131.000000)">
            <path d="M19.5007728,0 C30.2704791,0 39,8.72986684 39,19.5 C39,30.2701332 30.2704791,39 19.5007728,39 C8.73106646,39 0,30.2701332 0,19.5 C0,8.72986684 8.73106646,0 19.5007728,0 Z" id="Stroke-1" stroke="#E75F52"></path>
            <path d="M19.5,13 C23.0899976,13 26,15.910354 26,19.5007853 C26,23.089646 23.0899976,26 19.5,26 C15.9100024,26 13,23.089646 13,19.5007853 C13,15.910354 15.9100024,13 19.5,13" id="Fill-3" fill="#E75F52"></path>
        </g>
    </g>
</svg>