<?xml version="1.0" encoding="UTF-8"?>
<svg width="139px" height="300px" viewBox="0 0 139 300" version="1.1" xmlns="http://www.w3.org/2000/svg" xmlns:xlink="http://www.w3.org/1999/xlink">
    <!-- Generator: Sketch 64 (93537) - https://sketch.com -->
    <title>12</title>
    <desc>Created with Sketch.</desc>
    <g id="12" stroke="none" stroke-width="1" fill="none" fill-rule="evenodd">
        <g id="Group-3" fill="#FFFFFF">
            <path d="M53.8696228,0.628481688 L51.8650214,1.74276994 L50.5438876,2.28235747 L49.1854011,3.43620363 L48.5508478,3.38597843 L47.2412756,3.92689937 L45.92281,4.45004148 L46.8926493,8.34716131 L44.8382441,10.0903757 L43.5793651,9.99125874 L42.3093691,9.89080834 L40.2531852,11.6451345 L38.2601454,12.7598673 L37.1013186,11.3971198 L36.6272935,9.44278179 L35.9811786,9.39166765 L34.0254916,9.88280787 L33.9747984,10.5175121 L33.2135124,12.3620659 L32.9631595,15.5302536 L32.3170446,15.4791395 L31.6322429,16.0587294 L27.5212091,11.9127059 L25.7758541,9.87080716 L25.1288498,9.81969302 L24.9798832,11.7131386 L24.1959186,13.55547 L23.075334,11.5629074 L21.9658662,9.57078938 L20.0826615,9.42233614 L19.2982522,11.2646675 L17.8904066,13.0589961 L16.4585484,14.8626585 L15.1391934,15.3853562 L13.9407904,14.6635356 L13.3555962,13.9843843 L11.6009029,11.9300403 L10.4527483,10.5672929 L8.5361928,10.4166173 L6.73080641,9.00275572 L5.47237206,8.90319426 L3.9137811,12.5958575 L2.54417764,13.7652602 L1.77088529,15.608925 L0.5,15.5093635 L1.62147401,17.4965924 L2.73049707,19.4998222 L4.57457031,20.278535 L5.6831487,22.2822093 L7.48942443,23.6840702 L8.60911973,25.6890779 L9.82931191,26.4291217 L10.3037817,28.3656809 L10.1548151,30.2595709 L12.0091159,31.0502845 L13.3676024,29.8799929 L12.9433811,27.3025068 L13.3676024,29.8799929 L15.2614794,30.0288906 L16.2940181,33.2926396 L15.5474064,34.5051559 L15.3975504,36.4092687 L15.2481391,38.3022698 L15.1480869,39.5672336 L15.7452874,40.2410513 L15.6456799,41.5109043 L16.1085881,43.4514638 L17.9139744,44.8657698 L18.5378555,44.9146616 L19.0732459,46.2294062 L20.7785801,48.9068982 L22.0374592,49.0060152 L23.893094,49.7851725 L25.2013321,49.2558078 L27.0062738,50.675003 L30.6334996,52.8657995 L31.4299151,51.024357 L30.8829631,49.7033898 L36.1626066,47.5765971 L37.4103687,47.6743807 L40.4861957,49.1886927 L41.5956634,51.1808107 L43.4499642,51.9715242 L43.4014945,52.5955612 L45.1953193,54.0138675 L45.7307097,55.3286121 L44.9449665,57.1820552 L43.1017826,56.3931196 L42.3053671,58.2461183 L43.5255592,58.9697167 L45.4314425,59.1195034 L46.5778184,60.48714 L48.2351275,63.7944471 L49.5429209,63.2650824 L51.3981111,64.0437952 L51.9828606,64.7345028 L53.1550277,66.0870274 L53.0042824,67.9920292 L52.3697291,67.941804 L51.6849274,68.5151713 L49.6296329,70.2694975 L50.8502697,70.9979851 L50.1147749,72.2118348 L48.0821588,73.9683833 L47.3359917,75.1813441 L45.4305531,75.031113 L43.5993755,74.2306211 L41.7059432,74.0812789 L40.4848617,73.3683478 L38.5416256,73.8314863 L37.3205441,73.1189996 L36.6735398,73.0687744 L37.2204919,74.383519 L38.3415212,76.3769705 L38.2410243,77.6410454 L38.1427508,78.8935641 L36.1741682,79.3940382 L34.816571,80.5469954 L36.622402,81.9670795 L38.4664753,82.7395698 L40.3101038,83.5302833 L40.8072521,85.4735095 L42.0652418,85.5726265 L43.9102044,86.3571175 L45.0801481,87.7207538 L46.8864238,89.1288373 L48.6691317,90.5413654 L49.8381861,91.916558 L53.576581,92.844613 L55.4317712,93.6295484 L56.0054038,94.3078108 L57.2762891,94.4078168 L59.0203101,96.451049 L57.6604895,97.6262297 L56.8769696,99.4698945 L58.6707944,100.871311 L58.620546,101.512238 L59.7531369,103.505245 L61.5967655,104.289291 L62.695561,106.28052 L62.7942791,105.01689 L64.6005549,106.431196 L66.8910833,109.79984 L67.4149121,111.107029 L69.544023,116.373118 L71.9737351,117.830983 L74.2033428,121.827664 L77.7918818,124.654054 L78.3881929,125.32876 L79.6355103,125.426544 L80.1331033,127.381771 L81.9260387,128.80141 L81.7770721,130.693967 L82.362711,131.367785 L84.8915859,131.566908 L84.7408406,133.471021 L84.6914815,134.100836 L84.4420181,137.269023 L84.9778532,138.570878 L86.7343252,140.61411 L87.2074609,142.568004 L89.1013379,142.716902 L89.1511417,142.087531 L90.4100207,142.186648 L90.8458036,144.753911 L92.6503006,146.185107 L93.3364364,145.583294 L93.9603175,145.632186 L95.7159001,147.686974 L95.6656516,148.327456 L96.2508459,149.001274 L101.732372,151.98234 L101.047571,152.566374 L99.6277188,154.359814 L98.3194807,154.889623 L96.2753031,156.644838 L98.0202134,158.687181 L98.4946832,160.623741 L100.299625,162.04338 L101.581182,162.143831 L102.641291,164.759986 L104.535168,164.908883 L105.008304,166.873889 L105.554811,168.178411 L105.503673,168.82956 L104.858003,168.778891 L104.708592,170.671892 L103.985548,171.875963 L101.992508,172.989362 L102.576813,173.679625 L104.310162,175.72108 L102.900982,177.52652 L103.336765,180.104006 L103.237602,181.356525 L103.087302,183.261527 L101.094706,184.364259 L100.297402,186.217257 L100.844354,187.532446 L100.645583,190.055263 L101.030228,193.273231 L102.813381,194.685759 L102.613276,197.218354 L104.369748,199.256697 L105.278667,203.782298 L105.775371,205.737081 L104.9794,207.579412 L103.272732,213.165076 L103.896168,213.214413 L103.745423,215.11897 L104.777961,218.376052 L105.737573,222.273616 L105.588162,224.166173 L104.853556,225.379578 L103.43326,227.172573 L102.125022,227.707716 L101.528266,227.022342 L99.5957021,227.509038 L98.2870193,228.038847 L96.9547687,228.57799 L96.1939273,230.422544 L94.8127622,231.585724 L94.1884365,231.536832 L92.9073236,231.435937 L91.013002,231.286595 L90.2392649,233.141371 L88.9314715,233.665847 L87.0255882,233.515616 L86.4510663,232.842243 L84.486041,233.315159 L85.6172979,235.308611 L85.5679388,235.937982 L85.4683313,237.202056 L85.9530286,239.156394 L85.317586,239.106614 L83.4125921,238.956383 L82.2639928,237.605191 L80.4105814,236.803811 L79.7760281,236.753141 L77.880817,236.604243 L77.0959631,238.458131 L73.8822864,238.849265 L73.8324826,239.472413 L75.5769484,241.515201 L75.2772364,245.312315 L75.7619338,247.267097 L77.6189026,248.040032 L78.727481,250.033483 L80.5711096,250.821975 L81.6814667,252.809204 L80.4225876,252.709198 L80.9179572,254.664425 L80.7689906,256.558759 L78.9129111,255.784935 L78.3286062,255.093783 L75.7992866,254.894216 L75.2140924,254.21462 L74.6787019,252.901653 L73.530992,251.528239 L72.2503238,251.426899 L68.9855093,252.453182 L67.0520561,252.944323 L65.0981478,253.417684 L63.1931539,253.267453 L63.242513,252.64386 L62.6190766,252.594524 L61.9716277,252.543854 L61.3979951,251.854925 L60.7127487,252.444737 L61.2490285,253.747481 L61.6732498,256.324523 L58.2719196,259.233584 L56.3269049,259.72428 L52.528034,259.424262 L52.4786749,260.053633 L50.4242697,261.795958 L49.7892717,261.745733 L51.0210255,262.47022 L51.4941612,264.43567 L52.6649943,265.78775 L55.8293119,266.037098 L57.5728883,268.091442 L58.7699573,268.831042 L60.0510701,268.932381 L61.1720995,270.924944 L61.6972623,272.226354 L61.5976548,273.490429 L61.073826,272.177018 L59.7028885,273.341087 L57.6587108,275.095858 L56.6239487,280.113044 L56.6119425,288.369089 L56.4611971,290.273646 L56.0632117,295.318834 L58.6298842,294.89392 L57.8561472,296.747807 L59.1265878,296.848258 L57.1722348,297.322064 L55.1787503,298.430574 L56.9730197,299.84888 L58.8780136,300 L60.2369449,298.828819 L62.2299847,297.720754 L65.5930727,295.441952 L66.516221,291.694174 L68.5830772,289.951849 L69.9420084,288.782002 L73.2557373,287.126793 L74.5266226,287.226799 L79.7208882,285.743155 L81.2407923,282.680307 L80.121097,280.675744 L77.3165226,276.012801 L73.816919,271.921892 L74.4519169,271.971228 L76.8829631,273.42287 L76.8318253,274.063796 L78.576291,276.111918 L81.4408967,280.153046 L84.4651412,282.307396 L85.7764921,281.749141 L87.122083,280.601073 L87.2728283,278.691182 L80.3839008,269.250622 L79.274433,267.25806 L79.9209926,267.309618 L81.0691472,268.660365 L82.7740367,271.349413 L86.8979661,275.484769 L88.6913462,276.909298 L89.4650832,275.059411 L87.6712584,273.641549 L86.4728554,272.91884 L84.667469,271.498755 L83.0733039,267.557633 L83.7078572,267.607858 L85.9383543,271.598761 L87.0971811,272.96862 L88.9906135,273.117963 L89.7145467,271.897001 L91.6688997,271.424084 L89.9150958,269.358184 L85.0160954,267.078494 L85.0667885,266.443789 L90.0631731,267.476295 L91.4950312,265.661521 L90.3139706,264.308107 L89.1044506,263.568508 L88.4698973,263.518283 L87.7459641,264.738355 L87.2225799,263.41961 L88.4698973,263.518283 L90.4629372,262.415106 L91.197098,261.201701 L90.6630416,259.8754 L90.7124007,259.247363 L91.3478433,259.297144 L93.2030335,260.075856 L93.152785,260.710561 L92.5182317,260.661224 L93.6490439,262.665788 L93.7490961,261.402157 L94.3116119,262.074197 L94.1622006,263.967198 L95.1084721,260.226087 L95.6429731,261.551499 L96.1672467,262.865355 L97.3269629,264.216102 L98.5858419,264.315663 L99.7068712,266.309115 L100.440143,265.106377 L103.030828,264.665906 L104.339955,264.141431 L105.720231,262.973806 L107.0676,261.807959 L109.024177,261.322597 L110.332415,260.794121 L112.86129,260.993689 L113.794666,257.256578 L115.737457,256.781883 L117.681583,256.291632 L119.687963,255.166232 L120.996646,254.636423 L121.7815,252.78298 L123.100855,252.258949 L125.04498,251.77892 L126.465277,249.974813 L127.77307,249.450782 L129.031504,249.549899 L130.301945,249.649905 L130.451801,247.745792 L130.651461,245.223421 L130.70082,244.588716 L132.605814,244.739392 L134.16396,241.040951 L133.629014,239.727095 L133.005133,239.677314 L133.877588,236.581575 L133.77887,237.834538 L134.512142,236.631356 L134.027889,234.677018 L134.1773,232.784461 L133.703275,230.830568 L133.802883,229.566493 L132.732991,226.94456 L135.758125,229.087798 L135.260977,227.144572 L134.676227,226.460087 L134.826083,224.566197 L134.351613,222.611414 L135.759904,220.818863 L136.257497,222.762534 L137.366075,224.766653 L137.516376,222.861651 L136.406463,220.869977 L137.815198,219.075649 L138.5,218.491614 L137.965944,217.171536 L135.623388,214.454931 L135.149808,212.501037 L135.24986,211.236518 L135.398826,209.344406 L133.59344,207.9301 L135.547793,207.451405 L134.428987,205.447286 L133.357762,202.818686 L135.052868,205.496622 L133.993204,202.868911 L133.458258,201.549277 L133.706833,198.398424 L134.193309,200.335872 L134.977273,198.497985 L133.857133,196.492977 L133.956296,195.23557 L133.472043,193.281231 L132.512432,189.38989 L131.353605,188.027142 L131.503016,186.133697 L130.967626,184.814952 L130.482928,182.860614 L130.046256,180.293795 L128.88654,178.930603 L128.390281,176.987377 L127.281703,174.983258 L127.430669,173.090257 L126.221149,172.367548 L127.62944,170.573664 L126.521306,168.570434 L126.037053,166.60454 L124.615867,168.419758 L124.132059,166.453419 L123.606007,165.163565 L121.651209,165.636927 L117.776743,158.339605 L117.303608,156.386156 L115.496887,154.983406 L115.01219,153.029068 L116.431597,151.236073 L115.212294,150.496029 L114.549282,151.087176 L115.01219,153.029068 L112.594039,151.566315 L113.367776,149.723095 L112.159146,148.983495 L111.674893,147.029157 L109.18426,146.198886 L107.812434,147.380289 L106.230275,143.434278 L104.336398,143.284935 L103.177571,141.910632 L100.140431,139.766505 L100.190235,139.138023 L102.629285,140.607443 L96.1383427,134.36974 L94.8069814,134.898661 L94.9572821,132.993659 L94.4325638,131.691804 L94.4837016,131.051322 L86.7596717,124.089131 L85.0543375,121.405417 L82.774926,118.049218 L82.2008488,117.370955 L80.9308528,117.270949 L80.2834039,117.22028 L80.334097,116.573575 L80.3843455,115.944649 L79.1863871,115.211716 L78.5407169,115.160602 L80.4337045,115.3095 L81.0313497,115.995763 L82.2515419,116.725139 L81.2305647,113.468502 L82.649972,111.675507 L80.8819384,109.631386 L79.6853141,108.892231 L77.8688108,107.477036 L76.7713493,105.486251 L74.8659107,105.33602 L69.6818727,98.5729525 L68.7115887,94.6762771 L68.6119811,95.9350184 L68.0877076,94.6278298 L65.7976239,91.2591857 L65.3115925,89.3159595 L66.880411,85.6246296 L68.2509039,84.4601162 L68.8859018,84.5103414 L68.4505636,81.9386334 L68.5497264,80.675003 L67.5287493,77.4063648 L67.5785531,76.7765497 L68.9494906,75.6124807 L69.0997912,73.7092568 L69.833952,72.4945182 L70.6067997,70.6508534 L71.3418499,69.4378926 L72.6011736,69.5365651 L73.8707248,69.6370155 L73.9205286,69.0072004 L76.5881426,67.3022105 L77.3347544,66.0892497 L78.5936334,66.1883667 L80.0632891,63.7544447 L78.7430447,64.2949212 L78.7932931,63.6539943 L80.787667,62.5397061 L79.6266168,61.1885149 L79.7769174,59.284402 L80.5626607,57.4296255 L79.9770218,56.7562522 L81.8104228,57.527409 L83.7754481,57.0553811 L82.666425,55.0628185 L82.1586045,53.1067026 L81.5854165,52.4288847 L82.9661369,51.2657046 L81.061143,51.1163625 L80.5248632,49.8016179 L82.4587611,49.3095887 L82.9661369,51.2657046 L84.7484001,52.6777883 L84.8480077,51.4141579 L86.7418847,51.5635001 L87.5387449,49.7100569 L88.7980686,49.8096183 L88.0127699,51.6639505 L89.9062023,51.8132926 L91.2264466,51.2843724 L92.6458539,49.4855991 L92.7952652,47.5925981 L92.9442318,45.699597 L94.8896912,45.2084568 L96.7835682,45.3573545 L97.5786497,43.5154676 L98.8268565,43.6136956 L99.6499526,41.135771 L101.616312,40.6459642 L102.090782,42.5883015 L104.680577,42.1647209 L104.730381,41.5362392 L99.2746457,37.9293588 L98.5902887,38.5031706 L97.2820505,39.0440915 L94.7144887,39.4747837 L93.59257,37.4817767 L92.2234112,38.6449567 L92.3234634,37.3813263 L90.4909518,36.5923907 L89.2102836,36.4914958 L87.4160142,35.0785232 L86.2447364,33.7144423 L86.3434546,32.4610347 L85.1245964,31.7209909 L83.3307716,30.3080183 L81.4871431,29.5181937 L80.1780156,30.0595591 L79.7800302,26.8464798 L79.256646,25.5326242 L79.4065019,23.6289558 L77.561984,22.8555766 L77.6126771,22.2155387 L77.0270383,21.5412765 L77.1760049,19.6491644 L77.3267502,17.7437181 L79.2206272,17.8930603 L79.8551805,17.9432855 L80.7774394,14.2066197 L78.9729424,12.7812018 L78.409982,12.1042728 L75.9811593,10.641075 L74.6226727,11.806033 L71.4472382,11.5553514 L70.3270982,9.56234444 L69.1291398,8.82852317 L67.8591439,8.72851725 L66.5006573,9.89347517 L65.242223,9.79435818 L62.7395839,8.96453123 L61.5691955,7.60000593 L59.7366839,6.82218206 L58.5169364,6.08702738 L58.0429113,4.13446723 L55.6523307,2.04100984 L53.9185372,0 L53.8696228,0.628481688 Z M115.01219,153.029068 L114.349177,153.61577 L115.01219,153.029068 Z M133.404008,234.628126 L133.877588,236.581575 L133.404008,234.628126 Z" id="Fill-1"></path>
            <polygon id="Fill-2" points="39.5 261.972264 40.6298427 264.524833 41.8550129 265.838959 42.3551303 267.722855 42.9191125 269 42.3551303 267.722855 43.1839634 265.934853 43.2882132 264.71705 43.5 262.260804 42.9336699 261 40.8411599 262.069017"></polygon>
        </g>
        <g id="Group-5" transform="translate(82.000000, 131.000000)">
            <path d="M19.5007728,0 C30.2704791,0 39,8.72986684 39,19.5 C39,30.2701332 30.2704791,39 19.5007728,39 C8.73106646,39 0,30.2701332 0,19.5 C0,8.72986684 8.73106646,0 19.5007728,0 Z" id="Stroke-1" stroke="#E75F52"></path>
            <path d="M19.5,13 C23.0899976,13 26,15.910354 26,19.5007853 C26,23.089646 23.0899976,26 19.5,26 C15.9100024,26 13,23.089646 13,19.5007853 C13,15.910354 15.9100024,13 19.5,13" id="Fill-3" fill="#E75F52"></path>
        </g>
    </g>
</svg>