<?xml version="1.0" encoding="utf-8"?>
<!-- Generator: Adobe Illustrator 24.1.2, SVG Export Plug-In . SVG Version: 6.00 Build 0)  -->
<!DOCTYPE svg PUBLIC "-//W3C//DTD SVG 1.1//EN" "http://www.w3.org/Graphics/SVG/1.1/DTD/svg11.dtd" [
	<!ENTITY ns_extend "http://ns.adobe.com/Extensibility/1.0/">
	<!ENTITY ns_ai "http://ns.adobe.com/AdobeIllustrator/10.0/">
	<!ENTITY ns_graphs "http://ns.adobe.com/Graphs/1.0/">
	<!ENTITY ns_vars "http://ns.adobe.com/Variables/1.0/">
	<!ENTITY ns_imrep "http://ns.adobe.com/ImageReplacement/1.0/">
	<!ENTITY ns_sfw "http://ns.adobe.com/SaveForWeb/1.0/">
	<!ENTITY ns_custom "http://ns.adobe.com/GenericCustomNamespace/1.0/">
	<!ENTITY ns_adobe_xpath "http://ns.adobe.com/XPath/1.0/">
]>
<svg version="1.1" id="Livello_1" xmlns:x="&ns_extend;" xmlns:i="&ns_ai;" xmlns:graph="&ns_graphs;"
	 xmlns="http://www.w3.org/2000/svg" xmlns:xlink="http://www.w3.org/1999/xlink" x="0px" y="0px" viewBox="0 0 139 300"
	 style="enable-background:new 0 0 139 300;" xml:space="preserve">
<style type="text/css">
	
		.st0{fill-rule:evenodd;clip-rule:evenodd;fill:#FFFFFF;stroke:#E75F52;stroke-linecap:round;stroke-linejoin:round;stroke-miterlimit:10;}
</style>
<metadata>
	<sfw  xmlns="&ns_sfw;">
		<slices></slices>
		<sliceSourceBounds  bottomLeftOrigin="true" height="301" width="139" x="0" y="-0.5"></sliceSourceBounds>
	</sfw>
</metadata>
<desc>Created with Sketch.</desc>
<g id="_x31_2">
	<g id="Group-3">
		<path id="Fill-1" class="st0" d="M53.9,0.6l-2,1.1l-1.3,0.5l-1.4,1.2l-0.6-0.1l-1.3,0.5l-1.3,0.5l1,3.9l-2.1,1.7L43.6,10l-1.3-0.1
			l-2.1,1.8l-2,1.1l-1.2-1.4l-0.5-2L36,9.4l-2,0.5L34,10.5l-0.8,1.8L33,15.5l-0.6-0.1l-0.7,0.6l-4.1-4.1l-1.7-2l-0.6-0.1L25,11.7
			l-0.8,1.8l-1.1-2l-1.1-2l-1.9-0.1l-0.8,1.8l-1.4,1.8l-1.4,1.8l-1.3,0.5l-1.2-0.7L13.4,14l-1.8-2.1l-1.1-1.4l-1.9-0.2L6.7,9
			L5.5,8.9l-1.6,3.7l-1.4,1.2l-0.8,1.8l-1.3-0.1l1.1,2l1.1,2l1.8,0.8l1.1,2l1.8,1.4l1.1,2l1.2,0.7l0.5,1.9l-0.1,1.9l1.9,0.8l1.4-1.2
			l-0.4-2.6l0.4,2.6l1.9,0.1l1,3.3l-0.7,1.2l-0.1,1.9l-0.1,1.9l-0.1,1.3l0.6,0.7l-0.1,1.3l0.5,1.9l1.8,1.4l0.6,0l0.5,1.3l1.7,2.7
			L22,49l1.9,0.8l1.3-0.5l1.8,1.4l3.6,2.2l0.8-1.8l-0.5-1.3l5.3-2.1l1.2,0.1l3.1,1.5l1.1,2l1.9,0.8l0,0.6l1.8,1.4l0.5,1.3l-0.8,1.9
			l-1.8-0.8l-0.8,1.9l1.2,0.7l1.9,0.1l1.1,1.4l1.7,3.3l1.3-0.5l1.9,0.8l0.6,0.7l1.2,1.4L53,68l-0.6-0.1l-0.7,0.6l-2.1,1.8l1.2,0.7
			l-0.7,1.2l-2,1.8l-0.7,1.2L45.4,75l-1.8-0.8l-1.9-0.1l-1.2-0.7l-1.9,0.5l-1.2-0.7l-0.6-0.1l0.5,1.3l1.1,2l-0.1,1.3l-0.1,1.3
			l-2,0.5l-1.4,1.2l1.8,1.4l1.8,0.8l1.8,0.8l0.5,1.9l1.3,0.1l1.8,0.8l1.2,1.4l1.8,1.4l1.8,1.4l1.2,1.4l3.7,0.9l1.9,0.8l0.6,0.7
			l1.3,0.1l1.7,2l-1.4,1.2l-0.8,1.8l1.8,1.4l-0.1,0.6l1.1,2l1.8,0.8l1.1,2l0.1-1.3l1.8,1.4l2.3,3.4l0.5,1.3l2.1,5.3l2.4,1.5l2.2,4
			l3.6,2.8l0.6,0.7l1.2,0.1l0.5,2l1.8,1.4l-0.1,1.9l0.6,0.7l2.5,0.2l-0.2,1.9l0,0.6l-0.2,3.2l0.5,1.3l1.8,2l0.5,2l1.9,0.1l0-0.6
			l1.3,0.1l0.4,2.6l1.8,1.4l0.7-0.6l0.6,0l1.8,2.1l-0.1,0.6l0.6,0.7l5.5,3l-0.7,0.6l-1.4,1.8l-1.3,0.5l-2,1.8l1.7,2l0.5,1.9l1.8,1.4
			l1.3,0.1l1.1,2.6l1.9,0.1l0.5,2l0.5,1.3l-0.1,0.7l-0.6-0.1l-0.1,1.9l-0.7,1.2l-2,1.1l0.6,0.7l1.7,2l-1.4,1.8l0.4,2.6l-0.1,1.3
			l-0.2,1.9l-2,1.1l-0.8,1.9l0.5,1.3l-0.2,2.5l0.4,3.2l1.8,1.4l-0.2,2.5l1.8,2l0.9,4.5l0.5,2l-0.8,1.8l-1.7,5.6l0.6,0l-0.2,1.9
			l1,3.3l1,3.9l-0.1,1.9l-0.7,1.2l-1.4,1.8l-1.3,0.5l-0.6-0.7l-1.9,0.5l-1.3,0.5l-1.3,0.5l-0.8,1.8l-1.4,1.2l-0.6,0l-1.3-0.1
			l-1.9-0.1l-0.8,1.9l-1.3,0.5l-1.9-0.2l-0.6-0.7l-2,0.5l1.1,2l0,0.6l-0.1,1.3l0.5,2l-0.6,0l-1.9-0.2l-1.1-1.4l-1.9-0.8l-0.6-0.1
			l-1.9-0.1l-0.8,1.9l-3.2,0.4l0,0.6l1.7,2l-0.3,3.8l0.5,2l1.9,0.8l1.1,2l1.8,0.8l1.1,2l-1.3-0.1l0.5,2l-0.1,1.9l-1.9-0.8l-0.6-0.7
			l-2.5-0.2l-0.6-0.7l-0.5-1.3l-1.1-1.4l-1.3-0.1l-3.3,1l-1.9,0.5l-2,0.5l-1.9-0.2l0-0.6l-0.6,0l-0.6-0.1l-0.6-0.7l-0.7,0.6l0.5,1.3
			l0.4,2.6l-3.4,2.9l-1.9,0.5l-3.8-0.3l0,0.6l-2.1,1.7l-0.6-0.1l1.2,0.7l0.5,2l1.2,1.4l3.2,0.2l1.7,2.1l1.2,0.7l1.3,0.1l1.1,2
			l0.5,1.3l-0.1,1.3l-0.5-1.3l-1.4,1.2l-2,1.8l-1,5l0,8.3l-0.2,1.9l-0.4,5l2.6-0.4l-0.8,1.9l1.3,0.1l-2,0.5l-2,1.1l1.8,1.4l1.9,0.2
			l1.4-1.2l2-1.1l3.4-2.3l0.9-3.7l2.1-1.7l1.4-1.2l3.3-1.7l1.3,0.1l5.2-1.5l1.5-3.1l-1.1-2l-2.8-4.7l-3.5-4.1l0.6,0l2.4,1.5
			l-0.1,0.6l1.7,2l2.9,4l3,2.2l1.3-0.6l1.3-1.1l0.2-1.9l-6.9-9.4l-1.1-2l0.6,0.1l1.1,1.4l1.7,2.7l4.1,4.1l1.8,1.4l0.8-1.8l-1.8-1.4
			l-1.2-0.7l-1.8-1.4l-1.6-3.9l0.6,0.1l2.2,4l1.2,1.4l1.9,0.1l0.7-1.2l2-0.5l-1.8-2.1l-4.9-2.3l0.1-0.6l5,1l1.4-1.8l-1.2-1.4
			l-1.2-0.7l-0.6-0.1l-0.7,1.2l-0.5-1.3l1.2,0.1l2-1.1l0.7-1.2l-0.5-1.3l0-0.6l0.6,0l1.9,0.8l-0.1,0.6l-0.6,0l1.1,2l0.1-1.3l0.6,0.7
			l-0.1,1.9l0.9-3.7l0.5,1.3l0.5,1.3l1.2,1.4l1.3,0.1l1.1,2l0.7-1.2l2.6-0.4l1.3-0.5l1.4-1.2l1.3-1.2l2-0.5l1.3-0.5l2.5,0.2l0.9-3.7
			l1.9-0.5l1.9-0.5l2-1.1l1.3-0.5l0.8-1.9l1.3-0.5l1.9-0.5l1.4-1.8l1.3-0.5l1.3,0.1l1.3,0.1l0.1-1.9l0.2-2.5l0-0.6l1.9,0.2l1.6-3.7
			l-0.5-1.3l-0.6,0l0.9-3.1l-0.1,1.3l0.7-1.2l-0.5-2l0.1-1.9l-0.5-2l0.1-1.3l-1.1-2.6l3,2.1l-0.5-1.9l-0.6-0.7l0.1-1.9l-0.5-2
			l1.4-1.8l0.5,1.9l1.1,2l0.2-1.9l-1.1-2l1.4-1.8l0.7-0.6l-0.5-1.3l-2.3-2.7l-0.5-2l0.1-1.3l0.1-1.9l-1.8-1.4l2-0.5l-1.1-2l-1.1-2.6
			l1.7,2.7l-1.1-2.6l-0.5-1.3l0.2-3.2l0.5,1.9l0.8-1.8l-1.1-2l0.1-1.3l-0.5-2l-1-3.9l-1.2-1.4l0.1-1.9l-0.5-1.3l-0.5-2l-0.4-2.6
			l-1.2-1.4l-0.5-1.9l-1.1-2l0.1-1.9l-1.2-0.7l1.4-1.8l-1.1-2l-0.5-2l-1.4,1.8l-0.5-2l-0.5-1.3l-2,0.5l-3.9-7.3l-0.5-2l-1.8-1.4
			l-0.5-2l1.4-1.8l-1.2-0.7l-0.7,0.6l0.5,1.9l-2.4-1.5l0.8-1.8l-1.2-0.7l-0.5-2l-2.5-0.8l-1.4,1.2l-1.6-3.9l-1.9-0.1l-1.2-1.4
			l-3-2.1l0-0.6l2.4,1.5l-6.5-6.2l-1.3,0.5L95,133l-0.5-1.3l0.1-0.6l-7.7-7l-1.7-2.7l-2.3-3.4l-0.6-0.7l-1.3-0.1l-0.6-0.1l0.1-0.6
			l0.1-0.6l-1.2-0.7l-0.6-0.1l1.9,0.1L81,116l1.2,0.7l-1-3.3l1.4-1.8l-1.8-2l-1.2-0.7l-1.8-1.4l-1.1-2l-1.9-0.2l-5.2-6.8l-1-3.9
			l-0.1,1.3l-0.5-1.3l-2.3-3.4l-0.5-1.9l1.6-3.7l1.4-1.2l0.6,0.1l-0.4-2.6l0.1-1.3l-1-3.3l0-0.6l1.4-1.2l0.2-1.9l0.7-1.2l0.8-1.8
			l0.7-1.2l1.3,0.1l1.3,0.1l0-0.6l2.7-1.7l0.7-1.2l1.3,0.1l1.5-2.4l-1.3,0.5l0.1-0.6l2-1.1l-1.2-1.4l0.2-1.9l0.8-1.9L80,56.8
			l1.8,0.8l2-0.5l-1.1-2l-0.5-2l-0.6-0.7l1.4-1.2l-1.9-0.1l-0.5-1.3l1.9-0.5l0.5,2l1.8,1.4l0.1-1.3l1.9,0.1l0.8-1.9l1.3,0.1L88,51.7
			l1.9,0.1l1.3-0.5l1.4-1.8l0.1-1.9l0.1-1.9l1.9-0.5l1.9,0.1l0.8-1.8l1.2,0.1l0.8-2.5l2-0.5l0.5,1.9l2.6-0.4l0-0.6l-5.5-3.6
			l-0.7,0.6L97.3,39l-2.6,0.4l-1.1-2l-1.4,1.2l0.1-1.3l-1.8-0.8l-1.3-0.1l-1.8-1.4l-1.2-1.4l0.1-1.3l-1.2-0.7l-1.8-1.4l-1.8-0.8
			l-1.3,0.5l-0.4-3.2l-0.5-1.3l0.1-1.9l-1.8-0.8l0.1-0.6L77,21.5l0.1-1.9l0.2-1.9l1.9,0.1l0.6,0.1l0.9-3.7L79,12.8l-0.6-0.7L76,10.6
			l-1.4,1.2l-3.2-0.3l-1.1-2l-1.2-0.7l-1.3-0.1l-1.4,1.2l-1.3-0.1L62.7,9l-1.2-1.4l-1.8-0.8l-1.2-0.7l-0.5-2L55.7,2l-1.7-2L53.9,0.6
			z M115,153l-0.7,0.6L115,153z M133.4,234.6l0.5,2L133.4,234.6z"/>
		<polygon id="Fill-2" class="st0" points="39.5,262 40.6,264.5 41.9,265.8 42.4,267.7 42.9,269 42.4,267.7 43.2,265.9 43.3,264.7 
			43.5,262.3 42.9,261 40.8,262.1 		"/>
	</g>
</g>
</svg>
