<?xml version="1.0" encoding="UTF-8"?>
<svg width="382px" height="300px" viewBox="0 0 382 300" version="1.1" xmlns="http://www.w3.org/2000/svg" xmlns:xlink="http://www.w3.org/1999/xlink">
    <!-- Generator: Sketch 64 (93537) - https://sketch.com -->
    <title>13</title>
    <desc>Created with Sketch.</desc>
    <g id="13" stroke="none" stroke-width="1" fill="none" fill-rule="evenodd">
        <polygon id="Path" fill="#FFFFFF" points="369.866188 84.29382 369.192866 82.5610463 365.821584 81.8133909 364.699381 82.6833045 363.574841 81.8133909 361.10132 85.1590313 357.956816 86.1465008 358.856916 87.6230026 359.979118 93.1222668 359.530237 97.721053 360.203558 98.9248252 358.405697 103.591794 357.056716 103.35198 354.812311 104.543996 355.485633 106.206237 353.687771 104.42644 353.687771 103.114517 351.441029 102.277519 350.316488 107.036181 347.396425 107.508756 347.169646 108.92648 345.374123 110.576964 339.980538 110.809725 339.980538 111.750172 341.553959 114.209441 340.880637 115.725912 339.307216 115.260391 337.509355 115.493151 334.138072 114.674962 333.013532 112.455507 330.993568 113.626364 329.869027 116.189082 327.173404 120.016702 325.824423 120.134258 324.251002 121.403861 320.206398 123.359991 317.061894 126.564564 315.488473 128.732295 310.094888 129.301265 304.701303 132.247216 301.332358 135.969035 299.983378 135.51762 299.085616 137.090518 297.060976 137.760587 297.287754 135.969035 300.207818 134.84285 299.534497 132.588128 297.961075 130.664913 299.307718 130.208797 299.307718 128.506587 301.556799 127.479149 304.027982 123.244786 302.45456 121.286305 299.534497 120.482223 298.185516 119.671087 295.938773 120.482223 295.714333 121.749475 293.689693 123.475196 292.567491 125.767535 286.949465 128.276178 285.602823 129.755031 285.151604 132.023859 283.35608 133.942371 280.882559 134.280932 279.311476 135.291913 277.286836 133.716664 275.264534 134.729996 274.142332 138.54586 275.264534 140.556065 277.513614 142.446364 280.433678 143.001228 282.23154 142.335862 284.029402 144.773971 283.129302 146.650162 283.129302 149.292819 286.276144 150.498942 288.298446 150.280288 288.971767 148.632155 290.99407 147.42368 291.669729 146.100001 294.365352 144.884473 298.185516 146.760665 299.758937 148.084344 303.13022 147.642334 305.601403 148.963662 304.925743 150.280288 305.601403 151.923719 304.252422 152.906486 302.45456 151.594563 297.060976 154.103205 294.365352 155.737232 293.689693 156.821097 294.140912 158.118914 291.894169 158.986477 292.11861 157.796811 290.320748 157.68866 291.21851 159.524883 290.096308 160.495894 289.198546 162.219263 287.625125 162.539015 286.276144 164.471634 285.827263 166.289048 284.478282 166.6088 284.478282 168.633112 286.276144 168.952864 287.625125 170.438771 291.445288 172.239727 292.34305 175.615932 295.263114 182.003919 295.038674 184.601904 298.409956 186.673238 298.858837 188.739871 301.10558 189.976558 301.781239 191.417794 301.10558 191.826888 297.734297 190.388004 295.938773 190.902899 296.836535 191.930337 297.961075 193.263421 300.432258 194.90215 302.00568 197.554211 298.634397 198.670992 295.938773 200.297965 294.589793 202.120081 295.263114 203.032315 296.836535 201.816787 298.409956 201.917885 300.207818 204.24314 302.23012 205.552713 301.781239 206.862285 301.781239 210.06921 299.983378 210.170308 300.207818 212.070011 299.085616 213.861563 300.207818 216.1492 298.185516 216.943878 296.836535 217.042625 293.46759 221.589686 293.016372 224.246449 291.445288 224.834229 290.545189 228.165763 288.971767 228.067016 288.522887 227.088951 287.400684 227.088951 288.522887 229.336619 287.625125 230.215937 286.949465 232.360156 287.849565 232.748091 287.400684 234.398575 284.029402 236.72148 284.927163 237.302206 285.151604 238.364911 283.129302 238.075723 281.558219 240.680762 281.782659 241.353181 280.658119 242.601625 279.758019 242.218393 278.411376 242.794417 277.738055 244.712929 276.613515 245.098512 276.389074 246.339902 272.568911 248.154965 272.34447 248.919078 270.097728 249.205914 269.424406 251.394805 268.299866 251.869731 267.626545 253.771785 266.502004 253.675389 265.153024 254.528845 263.355162 254.719285 262.008519 254.244359 260.659539 255.478696 259.759439 254.528845 256.839375 256.13936 256.614935 254.81333 253.468092 256.423846 252.57033 256.611935 251.44579 256.89642 249.650267 253.86583 248.076845 254.150315 249.650267 256.233405 249.650267 257.651129 248.974607 259.162898 247.625627 258.974808 247.176746 259.915255 246.054543 259.821211 243.356582 261.706807 242.45882 261.330628 241.109839 262.17703 240.885399 261.330628 237.289676 263.399612 234.594052 263.305567 230.998329 265.369848 229.876127 265.275804 228.078265 267.053248 228.078265 267.988993 229.424908 268.083038 229.200468 269.108125 230.549448 270.415347 229.649349 271.628523 227.851487 272 227.178166 270.789174 226.053625 270.137915 225.604744 268.083038 224.931423 267.429427 225.155863 266.117504 225.831523 264.523446 224.258102 263.58535 221.784581 264.243663 221.784581 262.832992 219.313398 262.456813 218.191195 261.424673 217.515536 262.456813 216.617774 262.17703 214.595472 263.679395 213.695373 262.644903 210.54853 262.929388 207.628466 260.38783 206.279486 260.199741 206.279486 258.690323 205.381724 257.272599 206.730704 255.097815 205.157283 253.86583 204.032743 254.338404 202.234882 253.581344 201.33712 254.053919 197.965837 251.204364 195.045773 252.250612 194.821333 253.86583 191.898931 255.478696 191.001169 254.528845 189.876629 255.288256 189.652188 256.611935 187.405446 254.719285 186.729786 256.233405 185.383144 254.81333 183.360842 257.178554 182.460742 256.233405 179.989559 255.001419 178.642916 257.368995 177.967257 257.46304 175.496074 256.802375 174.147093 258.596278 174.822753 260.38783 175.720514 261.424673 175.496074 266.023459 174.147093 265.275804 172.573672 265.743676 171.900351 263.211522 171.67591 261.800852 170.102489 262.362769 169.204727 263.491305 167.631306 263.867484 164.484464 262.082986 164.260023 259.915255 163.586702 260.105696 159.317657 259.162898 160.666638 256.802375 160.43986 255.097815 161.5644 253.012374 158.868777 252.727889 157.519796 252.156567 157.519796 249.205914 156.395256 247.964524 156.395256 246.723134 155.273053 245.672185 153.250751 245.766229 149.879469 247.487247 149.206147 246.913575 150.328349 245.672185 149.879469 243.466836 149.206147 243.560881 149.430588 241.449577 150.779568 240.680762 150.328349 239.907244 152.799532 236.916622 153.023973 235.367236 154.372954 235.658774 155.497494 233.815498 156.622034 233.52396 155.721934 231.969871 156.846474 228.262158 156.846474 225.325612 156.395256 224.441592 156.395256 221.589686 154.824172 220.802062 154.148513 221.883576 152.799532 218.824772 153.023973 217.538711 151.45289 215.951706 149.430588 214.757339 148.081607 217.042625 146.734964 215.951706 145.834864 216.247947 144.037003 214.36 143.363681 212.768293 140.66572 208.766691 138.194537 208.968887 136.621116 210.471251 134.823254 210.769843 132.127631 210.271406 131.229869 209.168732 128.980789 210.769843 129.432007 211.270631 124.936185 213.762816 123.813982 213.762816 122.016121 215.05593 121.56724 215.951706 118.869278 217.834952 118.644838 219.222111 116.622536 220.110833 114.600234 220.505821 112.577932 220.308327 112.577932 219.222111 110.331189 217.93605 109.206649 218.824772 106.511026 217.93605 106.062145 216.943878 103.815402 216.050453 101.344219 216.447792 99.5440196 217.637458 96.3995153 221.394544 95.2749751 223.458825 94.3772132 221.784829 95.0505346 219.715846 94.8260941 218.627278 93.7015539 217.834952 92.1304707 218.726025 90.5570496 218.92587 90.5570496 219.617099 88.759188 219.222111 88.0858666 219.91334 84.4901434 219.814593 83.8144841 219.024617 80.6699797 217.93605 79.9966584 219.222111 77.298697 219.419605 76.4009352 217.439964 74.827514 216.845131 71.6830097 216.349045 72.1318906 214.458747 70.5584695 214.757339 68.9850483 214.261253 66.2894249 212.168758 65.3893251 209.66952 64.0403444 209.368577 62.6937017 210.271406 61.7959399 210.06921 59.5491973 206.961032 57.5245574 206.660089 55.7266958 204.74628 53.2555128 203.740001 53.0310723 201.816787 49.88423 201.210199 47.4130471 204.24314 46.0640664 202.830119 44.4929832 201.412395 41.5705814 200.095769 38.8749579 197.248565 37.3015368 197.349663 35.5036752 196.023633 33.932592 193.773613 33.4813731 194.594154 31.907952 194.490704 31.6835115 193.162323 32.5836113 192.442881 31.6835115 191.314344 32.1347304 189.873109 30.3345309 187.914628 29.8879879 185.636395 31.2346306 185.328399 33.0324922 186.985937 34.1570324 186.779038 36.6282154 184.808802 35.7304536 182.417715 35.9525561 180.854222 33.4813731 179.810326 32.3591708 178.03053 31.907952 174.035981 33.4813731 172.980329 33.2569327 171.816526 29.2123286 169.590017 27.414467 164.899538 27.6389074 163.505325 26.0654863 163.185573 23.8187438 163.399525 19.7741397 162.002961 18.4274969 160.279591 15.9563139 160.820348 14.1584523 158.553871 15.0562142 157.470006 14.8317737 155.62673 13.7072335 153.886903 11.2360505 153.449595 10.7871696 152.140022 5.84246571 151.265406 4.72026341 150.498942 6.96700593 149.074165 8.08920823 149.621975 9.66262937 148.305349 8.08920823 146.760665 8.54042707 145.436986 7.41588685 142.890725 7.19144639 139.439285 4.49582295 138.20965 3.14684228 138.20965 2.69796136 139.326431 1.12454022 138.769216 0.45121884 136.751957 1.34898068 135.630474 0 133.603811 0.226778381 131.908655 2.02230206 130.664913 1.34898068 128.960353 2.47118298 126.910179 4.72026341 126.564564 6.74256547 124.62019 7.64032731 123.131933 9.88706983 123.82081 12.3582528 122.325499 13.0339121 124.965804 14.3828928 124.8506 16.4028569 123.82081 17.7518376 123.933664 19.7741397 119.555883 21.1231203 118.744747 24.0455221 119.323122 27.8633479 118.859952 29.6612095 115.958673 35.5036752 112.570712 38.2016365 111.750172 38.8749579 110.69452 41.1217004 110.576964 41.1217004 109.161591 41.5705814 108.691368 40.6728195 105.496199 41.3461409 104.066719 43.368443 103.114517 42.2462407 102.040056 44.7174236 101.085502 43.8196618 99.4044532 44.2662048 98.3229391 42.0218002 92.6355855 42.0218002 87.86987 41.3461409 86.3933681 39.7750577 86.6378843 39.0993984 85.652766 40.2216007 84.6652966 45.1663046 83.6754761 50.7843298 81.8133909 52.1333105 83.553218 54.1532746 82.8079137 55.9511362 83.1793903 56.1779146 80.9434774 54.1532746 80.0712127 58.4246571 67.1894391 58.6490976 64.8782905 59.5491973 64.748979 64.2671228 66.9308162 68.9850483 66.8038558 69.6583697 68.3391357 72.3563311 66.4182725 74.1541927 66.1620007 75.2763949 63.2042947 74.3786331 58.1470406 75.9520542 53.5623612 78.4232372 53.4306986 80.8944202 52.3773979 82.0189604 50.7903935 81.79452 48.001968 82.9167223 46.9345606 85.6146836 47.0709254 88.759188 46.403208 88.5347475 49.861702 89.4325093 51.7167339 93.2550109 54.2206742 93.4794514 55.4009352 96.3995153 57.495781 99.5440196 57.1031444 100.66856 59.0592743 102.466421 58.5373262 104.488724 60.6180653 105.162045 63.8508521 107.411125 66.8038558 108.757768 70.6291243 107.860006 73.0390198 108.533328 75.5617691 106.735466 78.0727627 106.286585 80.3227823 107.860006 83.1793903 109.431089 83.0571322 112.577932 84.29382 114.824674 84.0493038 117.747076 84.7899059 119.544938 84.4184293 124.262863 85.1590313 126.734046 87.6230026 128.531908 87.86987 129.432007 89.0948023 133.701052 91.2954484 135.947795 91.0509322 135.498914 93.4866901 136.621116 93.7312063 139.094637 100.36606 141.56582 102.757147 142.014701 104.42644 147.181507 104.066719 161.339959 105.971125 164.711242 105.018922 172.35157 106.206237 174.822753 106.323792 177.293935 109.161591 183.809723 110.69452 187.854327 112.805824 192.799031 111.867728 192.799031 113.626364 195.943535 114.209441 197.516956 112.805824 201.33712 110.809725 206.955145 108.336349 215.717675 106.916274 219.537838 107.3912 223.806883 106.916274 225.155863 106.088681 229.649349 104.186626 233.020631 99.7641742 237.065235 97.721053 239.087537 96.2727645 238.638656 94.0932784 235.940695 90.5618997 237.965335 85.0344221 239.763197 84.0493038 242.45882 84.29382 243.356582 85.5281568 246.503424 86.6378843 249.872369 87.0070098 252.34589 85.2836406 254.592632 82.9325229 255.490394 81.3173051 257.963915 81.4419143 262.23296 80.8188682 265.601905 78.4489416 265.828683 76.6950078 268.299866 73.0390198 269.646509 72.4065692 272.793351 72.6604899 273.242232 70.6291243 275.264534 71.1393168 278.635817 69.3571696 281.558219 69.6134414 282.23154 68.9762885 285.602823 70.2482432 287.849565 70.504515 289.198546 69.3571696 289.198546 67.5726713 287.849565 65.2638738 284.253842 61.91118 283.802623 60.6180653 281.782659 59.7081828 280.433678 57.7567551 278.186936 57.1031444 275.488974 57.6250925 273.915553 59.4495598 272.793351 60.6180653 269.870949 58.6689888 266.053123 58.6689888 263.58194 60.0984683 261.784079 58.0153781 261.5573 56.3202222 263.355162 54.876636 263.355162 52.3773979 268.748747 39.9470389 271.21993 41.4352964 275.488974 43.0505142 278.186936 41.4352964 281.107 38.7244577 283.802623 38.4540792 285.602823 37.3655117 285.151604 32.4375691 288.298446 27.5966179 290.545189 21.7188237 293.24315 19.3159815 294.589793 17.0448019 293.689693 14.7642177 294.365352 12.7563633 292.34305 11.752436 290.096308 12.1826905 289.871867 10.4546191 291.445288 9.44128737 295.263114 5.07996412 297.287754 5.07996412 304.252422 2.88166912 307.621367 3.02978953 310.094888 2 312.34163 2.14812041 316.161794 4.05487683 319.308636 6.39188777 321.779819 5.8088106 324.924324 7.41227283 328.520047 12.9021326 330.542349 16.7603166 330.093468 18.467228 332.11577 24.2462752 333.237972 25.3677583 333.013532 27.7329827 335.262612 30.9210982 335.487053 35.0449586 337.060474 36.1405794 336.609255 39.9470389 338.631557 42.2417297 340.204978 42.7824868 344.698463 42.3780945 344.474023 43.3185416 346.496325 44.5293672 350.316488 45.3334494 351.665469 47.6046291 353.687771 49.1986869 356.383395 49.1986869 355.485633 51.4510576 357.283494 54.2206742 356.383395 56.9714818 358.630137 60.3570912 361.10132 59.8398453 362.00142 60.4887538 367.843886 60.0984683 368.968426 57.8860666 371.439609 56.4495337 373.686351 56.5811963 375.484213 55.1399612 379.528817 53.8256864 381.551119 55.0082986 380.653357 56.9714818 382 60.0984683 380.202138 62.6893999 378.179836 64.3633957 377.057634 70.123634 376.157534 71.5178467 376.606415 73.4199009 375.259772 74.5531396 373.461911 79.5727758 371.664049 80.9434774 371.664049 83.6754761"></polygon>
        <polygon id="Path" fill="#FFFFFF" points="315.77305 202 313.501182 201.445293 311 199.447837 311.680851 199 316 201.333333"></polygon>
        <polygon id="Path" stroke="#000000" fill="#FFFFFF" points="231.18146 273 232.772978 274.113214 233 276.149811 230.954438 278.18172 229.592306 282.789255 228.22781 283.063458 227.090336 284.807103 225.271796 284.715702 225.271796 285.634397 224.136686 286 223.226234 285.360195 221.407694 285.451595 218.681066 283.982153 218 279.290247 220.499606 276.702902 221.407694 276.426357 222.318146 274.574905 223.453256 275.130341 225.044774 274.01947 226.863314 274.38976 227.773766 273.64918 229.135898 273.555435 230.500394 274.204615"></polygon>
        <g id="Group-5" transform="translate(206.000000, 260.000000)">
            <path d="M19.5007728,0 C30.2704791,0 39,8.72986684 39,19.5 C39,30.2701332 30.2704791,39 19.5007728,39 C8.73106646,39 0,30.2701332 0,19.5 C0,8.72986684 8.73106646,0 19.5007728,0 Z" id="Stroke-1" stroke="#E75F52"></path>
            <path d="M19.5,13 C23.0899976,13 26,15.910354 26,19.5007853 C26,23.089646 23.0899976,26 19.5,26 C15.9100024,26 13,23.089646 13,19.5007853 C13,15.910354 15.9100024,13 19.5,13" id="Fill-3" fill="#E75F52"></path>
        </g>
    </g>
</svg>