<?xml version="1.0" encoding="utf-8"?>
<!-- Generator: Adobe Illustrator 24.1.2, SVG Export Plug-In . SVG Version: 6.00 Build 0)  -->
<!DOCTYPE svg PUBLIC "-//W3C//DTD SVG 1.1//EN" "http://www.w3.org/Graphics/SVG/1.1/DTD/svg11.dtd" [
	<!ENTITY ns_extend "http://ns.adobe.com/Extensibility/1.0/">
	<!ENTITY ns_ai "http://ns.adobe.com/AdobeIllustrator/10.0/">
	<!ENTITY ns_graphs "http://ns.adobe.com/Graphs/1.0/">
	<!ENTITY ns_vars "http://ns.adobe.com/Variables/1.0/">
	<!ENTITY ns_imrep "http://ns.adobe.com/ImageReplacement/1.0/">
	<!ENTITY ns_sfw "http://ns.adobe.com/SaveForWeb/1.0/">
	<!ENTITY ns_custom "http://ns.adobe.com/GenericCustomNamespace/1.0/">
	<!ENTITY ns_adobe_xpath "http://ns.adobe.com/XPath/1.0/">
]>
<svg version="1.1" id="Livello_1" xmlns:x="&ns_extend;" xmlns:i="&ns_ai;" xmlns:graph="&ns_graphs;"
	 xmlns="http://www.w3.org/2000/svg" xmlns:xlink="http://www.w3.org/1999/xlink" x="0px" y="0px" viewBox="0 0 382 300"
	 style="enable-background:new 0 0 382 300;" xml:space="preserve">
<style type="text/css">
	.st0{fill-rule:evenodd;clip-rule:evenodd;fill:#FFFFFF;}
	.st1{fill-rule:evenodd;clip-rule:evenodd;fill:#FFFFFF;stroke:#E75F52;stroke-linecap:round;stroke-linejoin:round;}
</style>
<metadata>
	<sfw  xmlns="&ns_sfw;">
		<slices></slices>
		<sliceSourceBounds  bottomLeftOrigin="true" height="284.5" width="382" x="0" y="13.5"></sliceSourceBounds>
	</sfw>
</metadata>
<desc>Created with Sketch.</desc>
<g id="_x31_3">
	<polygon id="Path" class="st0" points="369.9,84.3 369.2,82.6 365.8,81.8 364.7,82.7 363.6,81.8 361.1,85.2 358,86.1 358.9,87.6 
		360,93.1 359.5,97.7 360.2,98.9 358.4,103.6 357.1,103.4 354.8,104.5 355.5,106.2 353.7,104.4 353.7,103.1 351.4,102.3 350.3,107 
		347.4,107.5 347.2,108.9 345.4,110.6 340,110.8 340,111.8 341.6,114.2 340.9,115.7 339.3,115.3 337.5,115.5 334.1,114.7 333,112.5 
		331,113.6 329.9,116.2 327.2,120 325.8,120.1 324.3,121.4 320.2,123.4 317.1,126.6 315.5,128.7 310.1,129.3 304.7,132.2 301.3,136 
		300,135.5 299.1,137.1 297.1,137.8 297.3,136 300.2,134.8 299.5,132.6 298,130.7 299.3,130.2 299.3,128.5 301.6,127.5 304,123.2 
		302.5,121.3 299.5,120.5 298.2,119.7 295.9,120.5 295.7,121.7 293.7,123.5 292.6,125.8 286.9,128.3 285.6,129.8 285.2,132 
		283.4,133.9 280.9,134.3 279.3,135.3 277.3,133.7 275.3,134.7 274.1,138.5 275.3,140.6 277.5,142.4 280.4,143 282.2,142.3 
		284,144.8 283.1,146.7 283.1,149.3 286.3,150.5 288.3,150.3 289,148.6 291,147.4 291.7,146.1 294.4,144.9 298.2,146.8 299.8,148.1 
		303.1,147.6 305.6,149 304.9,150.3 305.6,151.9 304.3,152.9 302.5,151.6 297.1,154.1 294.4,155.7 293.7,156.8 294.1,158.1 
		291.9,159 292.1,157.8 290.3,157.7 291.2,159.5 290.1,160.5 289.2,162.2 287.6,162.5 286.3,164.5 285.8,166.3 284.5,166.6 
		284.5,168.6 286.3,169 287.6,170.4 291.4,172.2 292.3,175.6 295.3,182 295,184.6 298.4,186.7 298.9,188.7 301.1,190 301.8,191.4 
		301.1,191.8 297.7,190.4 295.9,190.9 296.8,191.9 298,193.3 300.4,194.9 302,197.6 298.6,198.7 295.9,200.3 294.6,202.1 295.3,203 
		296.8,201.8 298.4,201.9 300.2,204.2 302.2,205.6 301.8,206.9 301.8,210.1 300,210.2 300.2,212.1 299.1,213.9 300.2,216.1 
		298.2,216.9 296.8,217 293.5,221.6 293,224.2 291.4,224.8 290.5,228.2 289,228.1 288.5,227.1 287.4,227.1 288.5,229.3 287.6,230.2 
		286.9,232.4 287.8,232.7 287.4,234.4 284,236.7 284.9,237.3 285.2,238.4 283.1,238.1 281.6,240.7 281.8,241.4 280.7,242.6 
		279.8,242.2 278.4,242.8 277.7,244.7 276.6,245.1 276.4,246.3 272.6,248.2 272.3,248.9 270.1,249.2 269.4,251.4 268.3,251.9 
		267.6,253.8 266.5,253.7 265.2,254.5 263.4,254.7 262,254.2 260.7,255.5 259.8,254.5 256.8,256.1 256.6,254.8 253.5,256.4 
		252.6,256.6 251.4,256.9 249.7,253.9 248.1,254.2 249.7,256.2 249.7,257.7 249,259.2 247.6,259 247.2,259.9 246.1,259.8 
		243.4,261.7 242.5,261.3 241.1,262.2 240.9,261.3 237.3,263.4 234.6,263.3 231,265.4 229.9,265.3 228.1,267.1 228.1,268 
		229.4,268.1 229.2,269.1 230.5,270.4 229.6,271.6 227.9,272 227.2,270.8 226.1,270.1 225.6,268.1 224.9,267.4 225.2,266.1 
		225.8,264.5 224.3,263.6 221.8,264.2 221.8,262.8 219.3,262.5 218.2,261.4 217.5,262.5 216.6,262.2 214.6,263.7 213.7,262.6 
		210.5,262.9 207.6,260.4 206.3,260.2 206.3,258.7 205.4,257.3 206.7,255.1 205.2,253.9 204,254.3 202.2,253.6 201.3,254.1 
		198,251.2 195,252.3 194.8,253.9 191.9,255.5 191,254.5 189.9,255.3 189.7,256.6 187.4,254.7 186.7,256.2 185.4,254.8 183.4,257.2 
		182.5,256.2 180,255 178.6,257.4 178,257.5 175.5,256.8 174.1,258.6 174.8,260.4 175.7,261.4 175.5,266 174.1,265.3 172.6,265.7 
		171.9,263.2 171.7,261.8 170.1,262.4 169.2,263.5 167.6,263.9 164.5,262.1 164.3,259.9 163.6,260.1 159.3,259.2 160.7,256.8 
		160.4,255.1 161.6,253 158.9,252.7 157.5,252.2 157.5,249.2 156.4,248 156.4,246.7 155.3,245.7 153.3,245.8 149.9,247.5 
		149.2,246.9 150.3,245.7 149.9,243.5 149.2,243.6 149.4,241.4 150.8,240.7 150.3,239.9 152.8,236.9 153,235.4 154.4,235.7 
		155.5,233.8 156.6,233.5 155.7,232 156.8,228.3 156.8,225.3 156.4,224.4 156.4,221.6 154.8,220.8 154.1,221.9 152.8,218.8 
		153,217.5 151.5,216 149.4,214.8 148.1,217 146.7,216 145.8,216.2 144,214.4 143.4,212.8 140.7,208.8 138.2,209 136.6,210.5 
		134.8,210.8 132.1,210.3 131.2,209.2 129,210.8 129.4,211.3 124.9,213.8 123.8,213.8 122,215.1 121.6,216 118.9,217.8 118.6,219.2 
		116.6,220.1 114.6,220.5 112.6,220.3 112.6,219.2 110.3,217.9 109.2,218.8 106.5,217.9 106.1,216.9 103.8,216.1 101.3,216.4 
		99.5,217.6 96.4,221.4 95.3,223.5 94.4,221.8 95.1,219.7 94.8,218.6 93.7,217.8 92.1,218.7 90.6,218.9 90.6,219.6 88.8,219.2 
		88.1,219.9 84.5,219.8 83.8,219 80.7,217.9 80,219.2 77.3,219.4 76.4,217.4 74.8,216.8 71.7,216.3 72.1,214.5 70.6,214.8 69,214.3 
		66.3,212.2 65.4,209.7 64,209.4 62.7,210.3 61.8,210.1 59.5,207 57.5,206.7 55.7,204.7 53.3,203.7 53,201.8 49.9,201.2 47.4,204.2 
		46.1,202.8 44.5,201.4 41.6,200.1 38.9,197.2 37.3,197.3 35.5,196 33.9,193.8 33.5,194.6 31.9,194.5 31.7,193.2 32.6,192.4 
		31.7,191.3 32.1,189.9 30.3,187.9 29.9,185.6 31.2,185.3 33,187 34.2,186.8 36.6,184.8 35.7,182.4 36,180.9 33.5,179.8 32.4,178 
		31.9,174 33.5,173 33.3,171.8 29.2,169.6 27.4,164.9 27.6,163.5 26.1,163.2 23.8,163.4 19.8,162 18.4,160.3 16,160.8 14.2,158.6 
		15.1,157.5 14.8,155.6 13.7,153.9 11.2,153.4 10.8,152.1 5.8,151.3 4.7,150.5 7,149.1 8.1,149.6 9.7,148.3 8.1,146.8 8.5,145.4 
		7.4,142.9 7.2,139.4 4.5,138.2 3.1,138.2 2.7,139.3 1.1,138.8 0.5,136.8 1.3,135.6 0,133.6 0.2,131.9 2,130.7 1.3,129 2.5,126.9 
		4.7,126.6 6.7,124.6 7.6,123.1 9.9,123.8 12.4,122.3 13,125 14.4,124.9 16.4,123.8 17.8,123.9 19.8,119.6 21.1,118.7 24,119.3 
		27.9,118.9 29.7,116 35.5,112.6 38.2,111.8 38.9,110.7 41.1,110.6 41.1,109.2 41.6,108.7 40.7,105.5 41.3,104.1 43.4,103.1 
		42.2,102 44.7,101.1 43.8,99.4 44.3,98.3 42,92.6 42,87.9 41.3,86.4 39.8,86.6 39.1,85.7 40.2,84.7 45.2,83.7 50.8,81.8 52.1,83.6 
		54.2,82.8 56,83.2 56.2,80.9 54.2,80.1 58.4,67.2 58.6,64.9 59.5,64.7 64.3,66.9 69,66.8 69.7,68.3 72.4,66.4 74.2,66.2 75.3,63.2 
		74.4,58.1 76,53.6 78.4,53.4 80.9,52.4 82,50.8 81.8,48 82.9,46.9 85.6,47.1 88.8,46.4 88.5,49.9 89.4,51.7 93.3,54.2 93.5,55.4 
		96.4,57.5 99.5,57.1 100.7,59.1 102.5,58.5 104.5,60.6 105.2,63.9 107.4,66.8 108.8,70.6 107.9,73 108.5,75.6 106.7,78.1 
		106.3,80.3 107.9,83.2 109.4,83.1 112.6,84.3 114.8,84 117.7,84.8 119.5,84.4 124.3,85.2 126.7,87.6 128.5,87.9 129.4,89.1 
		133.7,91.3 135.9,91.1 135.5,93.5 136.6,93.7 139.1,100.4 141.6,102.8 142,104.4 147.2,104.1 161.3,106 164.7,105 172.4,106.2 
		174.8,106.3 177.3,109.2 183.8,110.7 187.9,112.8 192.8,111.9 192.8,113.6 195.9,114.2 197.5,112.8 201.3,110.8 207,108.3 
		215.7,106.9 219.5,107.4 223.8,106.9 225.2,106.1 229.6,104.2 233,99.8 237.1,97.7 239.1,96.3 238.6,94.1 235.9,90.6 238,85 
		239.8,84 242.5,84.3 243.4,85.5 246.5,86.6 249.9,87 252.3,85.3 254.6,82.9 255.5,81.3 258,81.4 262.2,80.8 265.6,78.4 265.8,76.7 
		268.3,73 269.6,72.4 272.8,72.7 273.2,70.6 275.3,71.1 278.6,69.4 281.6,69.6 282.2,69 285.6,70.2 287.8,70.5 289.2,69.4 
		289.2,67.6 287.8,65.3 284.3,61.9 283.8,60.6 281.8,59.7 280.4,57.8 278.2,57.1 275.5,57.6 273.9,59.4 272.8,60.6 269.9,58.7 
		266.1,58.7 263.6,60.1 261.8,58 261.6,56.3 263.4,54.9 263.4,52.4 268.7,39.9 271.2,41.4 275.5,43.1 278.2,41.4 281.1,38.7 
		283.8,38.5 285.6,37.4 285.2,32.4 288.3,27.6 290.5,21.7 293.2,19.3 294.6,17 293.7,14.8 294.4,12.8 292.3,11.8 290.1,12.2 
		289.9,10.5 291.4,9.4 295.3,5.1 297.3,5.1 304.3,2.9 307.6,3 310.1,2 312.3,2.1 316.2,4.1 319.3,6.4 321.8,5.8 324.9,7.4 
		328.5,12.9 330.5,16.8 330.1,18.5 332.1,24.2 333.2,25.4 333,27.7 335.3,30.9 335.5,35 337.1,36.1 336.6,39.9 338.6,42.2 
		340.2,42.8 344.7,42.4 344.5,43.3 346.5,44.5 350.3,45.3 351.7,47.6 353.7,49.2 356.4,49.2 355.5,51.5 357.3,54.2 356.4,57 
		358.6,60.4 361.1,59.8 362,60.5 367.8,60.1 369,57.9 371.4,56.4 373.7,56.6 375.5,55.1 379.5,53.8 381.6,55 380.7,57 382,60.1 
		380.2,62.7 378.2,64.4 377.1,70.1 376.2,71.5 376.6,73.4 375.3,74.6 373.5,79.6 371.7,80.9 371.7,83.7 	"/>
	<polygon id="Path_1_" class="st0" points="315.8,202 313.5,201.4 311,199.4 311.7,199 316,201.3 	"/>
	<polygon id="Path_2_" class="st1" points="231.2,273 232.8,274.1 233,276.1 231,278.2 229.6,282.8 228.2,283.1 227.1,284.8 
		225.3,284.7 225.3,285.6 224.1,286 223.2,285.4 221.4,285.5 218.7,284 218,279.3 220.5,276.7 221.4,276.4 222.3,274.6 223.5,275.1 
		225,274 226.9,274.4 227.8,273.6 229.1,273.6 230.5,274.2 	"/>
</g>
</svg>
