<?xml version="1.0" encoding="utf-8"?>
<!-- Generator: Adobe Illustrator 24.1.2, SVG Export Plug-In . SVG Version: 6.00 Build 0)  -->
<!DOCTYPE svg PUBLIC "-//W3C//DTD SVG 1.1//EN" "http://www.w3.org/Graphics/SVG/1.1/DTD/svg11.dtd" [
	<!ENTITY ns_extend "http://ns.adobe.com/Extensibility/1.0/">
	<!ENTITY ns_ai "http://ns.adobe.com/AdobeIllustrator/10.0/">
	<!ENTITY ns_graphs "http://ns.adobe.com/Graphs/1.0/">
	<!ENTITY ns_vars "http://ns.adobe.com/Variables/1.0/">
	<!ENTITY ns_imrep "http://ns.adobe.com/ImageReplacement/1.0/">
	<!ENTITY ns_sfw "http://ns.adobe.com/SaveForWeb/1.0/">
	<!ENTITY ns_custom "http://ns.adobe.com/GenericCustomNamespace/1.0/">
	<!ENTITY ns_adobe_xpath "http://ns.adobe.com/XPath/1.0/">
]>
<svg version="1.1" id="Livello_1" xmlns:x="&ns_extend;" xmlns:i="&ns_ai;" xmlns:graph="&ns_graphs;"
	 xmlns="http://www.w3.org/2000/svg" xmlns:xlink="http://www.w3.org/1999/xlink" x="0px" y="0px" viewBox="0 0 133 300"
	 style="enable-background:new 0 0 133 300;" xml:space="preserve">
<style type="text/css">
	.st0{filter:url(#Adobe_OpacityMaskFilter);}
	.st1{fill-rule:evenodd;clip-rule:evenodd;fill:#FFFFFF;}
	
		.st2{mask:url(#mask-2_1_);fill-rule:evenodd;clip-rule:evenodd;fill:#FFFFFF;stroke:#E75F52;stroke-linecap:round;stroke-linejoin:round;}
	.st3{fill-rule:evenodd;clip-rule:evenodd;fill:#FFFFFF;stroke:#E75F52;stroke-linecap:round;stroke-linejoin:round;}
</style>
<metadata>
	<sfw  xmlns="&ns_sfw;">
		<slices></slices>
		<sliceSourceBounds  bottomLeftOrigin="true" height="301.893" width="133.819" x="-0.5" y="-1.5"></sliceSourceBounds>
	</sfw>
</metadata>
<g id="Group-6">
	<g id="Group-3">
		<defs>
			<filter id="Adobe_OpacityMaskFilter" filterUnits="userSpaceOnUse" x="-0.39" y="-0.393" width="133.71" height="301.893">
				<feColorMatrix  type="matrix" values="1 0 0 0 0  0 1 0 0 0  0 0 1 0 0  0 0 0 1 0"/>
			</filter>
		</defs>
		<mask maskUnits="userSpaceOnUse" x="-0.39" y="-0.393" width="133.71" height="301.893" id="mask-2_1_">
			<g class="st0">
				<polygon id="path-1_1_" class="st1" points="0.11,0.107 132.819,0.107 132.819,301 0.11,301 				"/>
			</g>
		</mask>
		<path id="Fill-1" class="st2" d="M32.919,0.34l-3.335,2.215l-3.461,3.292l-1.762,3.355l1.51,2.026l-4.719,3.418L15.364,26.04
			l-4.719,2.659l-1.007,5.634L0.11,47.864l8.542,7.788l-2.047,7.072l0.623,6.714l-2.58,1.343l1.958,3.133l-1.869,1.432l2.402,2.149
			L6.783,80.36l1.246,0.358l1.602-1.164l3.203,0.179l3.648,1.164l3.826,2.148l1.78,1.522l0.712-0.09l0.712-0.358l0.445,1.701v2.148
			l-0.356,1.164L22,88.954l-0.356,0.85l-0.222,0.851l0.534,1.209l0.756,0.895l-0.044,0.671v1.88l0.134,0.716
			c0,0-0.445,0.403-0.445,0.761s-0.178,0.627-0.178,0.627l-0.445,0.492l-0.089,1.298l-0.578,0.134l0.089,0.671l0.489,0.582
			L22,101.039l0.801-0.045l0.445,0.806l0.356,0.716l0.089-1.164l0.045-0.358l0.756,0.582c0,0-0.133,0.492,0.045,0.806
			c0.178,0.313,0.267,1.343,0.267,1.343l-0.312,0.851l-0.4,0.403l-0.267-0.224l-0.134-0.985l-0.311-0.537c0,0,0,0.985-0.089,1.387
			c-0.089,0.403-0.178,0.716-0.178,0.716l-0.356,0.269l-0.489-0.179l-0.579-0.224l-0.133,0.403l0.534,0.895
			c0,0,0.267,0.134-0.534,0.582c-0.801,0.448-1.246,0.761-1.246,0.761l-0.979,0.224l-2.803-0.045l-1.112-0.492l-1.068-0.358
			l-1.112-0.313l-0.267-0.045v0.985l0.534,0.716v0.806l0.133,0.716l1.646,0.492l1.335,0.627l0.667,0.268l0.4,0.851l-0.044,1.701
			l-0.045,0.761l-0.178,0.895l-0.311,1.074l-0.356,0.895l-0.445,0.895l0.489,0.224l0.267,0.089l-0.311,0.537l-0.222-0.09
			l-0.089,0.672l-0.356-0.134l-0.178-0.403l-1.424,1.119l-0.534,0.403l-0.667,0.179l-0.579,0.045h-0.49l0.223,0.716l0.578,0.716
			v1.209l-0.311,0.806l-0.712,0.806l-0.712,0.224l-1.157,0.045l-0.401-0.403l-0.534-0.537l-0.667-0.537l-0.223,0.045l0.756,1.119
			l0.49,0.806l0.667,0.537l0.534,0.358l0.311,0.851l-0.667,1.253l-0.178,0.806l0.356,0.94v1.343l0.756,0.94l0.267,0.403l0.045,0.492
			l0.044,0.448l0.623-0.045l0.489,0.403l0.401-0.851l2.18,0.045l1.157,1.209l0.356,0.851l0.579,0.671l0.133,0.94l0.623,1.164
			l-0.089,1.298v0.716l-0.623,1.029l-0.311,0.761l-0.356,0.582l-0.445,0.895l-0.356,0.582l-0.311,0.448l-0.267,0.403l-0.044,0.358
			l-0.267,0.806l-0.445,0.851v0.671l-0.044,0.671v0.492l-0.222,0.358l-0.356,0.268l-0.267,0.403l-0.623,0.313l-0.445-0.09h-0.712
			l-0.178,0.045l0.49,0.985l0.133,0.716l0.311,0.626l0.356,1.253l0.356,0.671l0.178,0.582l0.044,1.925c0,0,0.089,1.164-0.044,1.611
			c-0.133,0.448-0.222,0.851-0.222,0.851l-0.311,0.895l0.045,0.85l-0.267,0.671l-0.178,0.582l-0.4,0.447l-0.623,0.358l-0.311,0.09
			l0.044,0.358l0.267,0.447l0.712,0.045l0.89,0.403l0.267,0.134l0.311-0.671l0.401-0.269l0.133,0.358l-0.222,0.314l-0.223,0.268
			l-0.089,0.179l0.133,0.627l0.756,0.09l0.401,0.448l-0.089,1.03l0.133,0.716l-0.178,0.895l-0.311,0.85l-0.089,0.492l-0.267,0.806
			l-0.445,0.448l-0.4,0.358l-0.045,0.627l-0.089,0.448l-0.133,0.358l-0.045,0.492l0.267,0.358l0.623-1.029l0.134-0.537l0.089-0.582
			l0.356-0.716l0.311-0.627l0.311-0.447l0.311-0.537l0.178-0.492l0.312-0.716l0.133-0.851l0.267-0.448l0.356,0.179l0.267,0.403
			l0.4,0.134h0.4l0.178,0.627l0.044,0.627l0.089,0.672l0.089,0.537l0.311,0.447c0,0,0.089,0.627,0.089,0.851
			s0.044,1.387,0.044,1.701c0,0.313,0.044,0.224,0,0.492c-0.044,0.269-0.178,0.492-0.178,0.492l-0.356,0.179l-0.668-0.045
			l-0.623,0.761l-0.756,0.313l-0.356,0.179l-0.222,0.492l-0.222,0.492l-0.801,0.045l-0.178-0.224l-0.178-0.313l-0.801,0.134
			l-0.178,0.358l-0.223,0.448l-0.356,0.179h-0.178l0.044-0.358l0.222-0.985l-0.044-0.045l-0.534,0.537l-0.178,0.358l-0.222,0.492
			l-0.044,0.313l-0.356-0.403c0,0,0.178-0.403,0.133-0.716c-0.044-0.313,0.089-0.985,0.089-0.985l0.534-0.851l0.49-0.268
			l0.667-0.224c0,0-0.311-0.045-0.401-0.313c-0.089-0.268-0.089-0.806-0.089-0.806l-0.356-0.403H11.9l-0.667-0.089l-0.134-0.672
			l0.223-0.403h1.023l0.489-0.134l0.178-0.09l0.178-0.358l-0.623-0.224l-0.979,0.224l-0.756,0.179l-0.133,0.492l-0.178,0.761
			l-0.312,0.716l-0.178,0.716l-0.311,0.134l-0.623,0.089l-0.445-0.089l-0.356-0.224l-0.044,0.134c0,0-0.045,0.179-0.178,0.582
			c-0.133,0.403-0.267,0.672-0.267,0.672l-0.089,0.805l0.267,0.179l0.445-0.134l0.667-0.134l0.401,0.269l0.311,0.224l0.178,0.358
			l0.401,0.224l0.178,0.627l0.133,0.537l0.222,0.716l-0.311,0.313l-0.712,0.179l-0.089,0.537l-0.311,0.492l0.178,0.582l0.089,0.447
			l0.222,0.358l-0.222,0.224v0.627v0.85l-0.045,0.224l-0.49,0.358l-0.4,0.224c0,0-1.112,0.537-1.201,0.716
			c-0.089,0.179-0.534,0.582-0.534,0.582v0.358v0.313c0,0,0.045,1.477,0.089,1.746c0.044,0.268,0,0.985,0,0.985l0.044,0.806
			c0,0,0.134,0.895,0,1.298c-0.133,0.403-0.089,0.94-0.089,1.208c0,0.269,0.044,0.985,0.044,0.985s-0.133,0.358-0.178,0.627
			c-0.045,0.268-0.133,0.716-0.133,0.716l-0.311,0.851l-0.089,0.313l-0.267,0.671l-0.311,0.358c0,0-0.045,0.313-0.222,0.403
			c-0.178,0.09-0.49,0.224-0.49,0.224l-0.311,0.671l-0.49,0.314h-0.4l-0.356,0.09l-0.401,0.358c0,0-0.045,0.179-0.178,0.358
			c-0.133,0.179-0.222,0.403-0.222,0.403l-0.222,0.403l-0.045,0.179l0.934,0.627l0.089,0.358l0.489,0.805l0.133,0.314l0.311,0.313
			l0.267,0.761l0.578-0.179l0.311,1.432l0.133,1.029c0,0,0.445,0.224,0.489,0.403c0.044,0.179,0.401,0.94,0.401,0.94l0.311,0.403
			l0.667,0.851l0.222,0.582l0.178,0.895l0.267,0.358l0.178,0.492l0.133,0.045l0.133-0.806l-0.089-0.358l0.089-0.851l0.089-0.268
			l0.089-0.761l0.222-0.403c0,0,0.623,0.134,0.934,0.224c0.311,0.09,0.667,0.224,0.667,0.224l0.579-0.179l0.801,0.447l0.356,0.358
			l0.534,0.224l0.356,0.09l0.222,0.224v0.806l-0.222,0.448l-0.133,0.268v0.895l0.311,0.358l0.133,0.492l0.089,0.716l-0.311,0.492
			l-0.267,1.611l-0.311,0.268l-0.489,0.224l-0.356-0.358l-0.311-0.134l-0.267-0.269l-0.534-0.403l-0.044-0.268l-0.4-0.582
			l-0.045-0.985l-0.445-0.09l-0.089,0.09l-0.044,1.029l0.133,0.537l-0.4,0.134l-0.312-0.492c0,0-0.089-0.134-0.267-0.313
			c-0.178-0.179-0.311-0.537-0.311-0.537l0.089-0.403c0,0-0.311-0.358-0.311-0.537c0-0.179-0.223-0.537-0.223-0.537l-0.267,0.09
			c0,0-0.222,0.313-0.222,0.492s0.623,0.671,0.623,0.671l0.089,0.403v0.716l0.623,0.851c0,0,0.623,0.179,0.578,0.403
			s0.045,0.403,0.045,0.403s0.578-0.045,0.756-0.045c0.178,0,0.623,0.09,0.934,0.268c0.311,0.179,1.068,2.014,1.068,2.014
			s0,0.314,0.356,0.448c0.356,0.134,0.756,0.492,0.756,0.492l0.579,0.492c0,0,0.623,0.134,0.623,0.313
			c0,0.179,0.534,0.716,0.534,0.716l0.534,0.089l0.356,0.09l0.222,0.806l-0.267,0.716l-0.267,0.716l-0.178,0.582l-0.445,0.895
			l-0.312,0.716l0.223,0.895c0,0-0.223,0.716-0.133,0.94c0.089,0.224,0.222,0.895,0.222,0.895l-0.089,0.671l0.044,0.492l0.222,0.582
			l0.133,0.806l0.089,0.045l-0.445,0.761l-0.89,0.537l-0.311,0.492l-0.578,0.537l-1.335,0.403l-0.489,0.224l-0.712,0.045
			l-0.267-0.447l-0.089-0.627l-0.49-0.358l-0.178-0.671l0.089-1.029v-1.03l-0.133-0.895l-0.356-0.582l-0.49-0.716l-0.089-0.358
			l-0.756-1.253l-0.4-0.358l-0.356-0.403l-0.267-0.224l-0.222-0.313l-0.356-0.492L6.249,223.1l-0.534-0.492l-0.623-0.448
			c0,0-0.311-0.134-0.489-0.045c-0.178,0.089-0.445,0-0.445,0s-0.445-0.045-0.489-0.224c-0.045-0.179-0.223-0.314-0.223-0.314
			l-0.489,0.045l-0.801,0.671l-0.222,0.448l-0.579,0.313l-0.044,0.313l1.112,1.119c0,0,0.089,0.403,0.311,0.492
			c0.222,0.09,0.667,0.627,0.667,0.627l0.534,0.716l0.934,0.94l0.534,0.672c0,0,0.089,0.224,0.445,0.851s0.534,0.985,0.668,1.208
			c0.133,0.224,0.356,0.985,0.356,0.985l0.178,1.164l0.178,0.537l0.089,0.448l0.401,0.492l-0.401,0.268l-0.311,0.179v0.672
			l1.201,1.208l0.712,0.314l0.445,0.313l0.178,0.358l0.4,0.761l0.756,1.701l0.623,0.895c0,0,0.4,0.626,0.578,0.806
			c0.178,0.179,0.311,0.492,0.311,0.492l0.312,0.179c0,0,0.089-0.313,0.356-0.045c0.267,0.269,0.756,0.895,0.756,0.895l0.401,0.224
			l0.356,0.134l0.489,1.074h0.49l0.534,0.447l0.756,0.492l0.623,0.537l0.845,0.492l1.468,0.806l0.801,0.179l0.845,0.403l0.979,0.671
			l1.424,0.761l1.424,1.209l0.623,0.492l0.801,0.448l0.534,0.179l0.489,0.224l0.401,1.074l0.489,0.537l1.157-0.224l0.578,0.179
			l0.712,0.134l0.4,0.268l0.356,0.582l0.356,0.537l0.534-0.045l0.801,0.403l0.401,0.089l0.356,0.537l0.534,0.045l0.356-0.269
			l0.667,0.492c0,0,0.089,0.447,0.089,0.627c0,0.179-0.267,0.448-0.267,0.448l-0.311,0.761h1.201h0.356l-0.044,0.537l0.133,0.403
			l0.133,0.582l0.623,0.448v-0.671l0.133-0.672l0.356,0.179l0.534,0.403l0.489,0.895l0.178,0.224l-0.312,0.224
			c0,0-0.311-0.045-0.4,0.179c-0.089,0.224,0.267,0.626,0.267,0.626l0.667,0.179l0.712-0.358l0.445-0.089l0.801-0.313
			c0,0-0.089-0.045,0.623,0.045c0.712,0.09,0.4,0.224,0.845,0.492c0.445,0.269,1.157,1.298,1.157,1.298l0.489,0.94
			c0,0,0,0.314,0.267,0.537c0.267,0.224,0.401,0.403,0.49,0.582c0.089,0.179,0.178,0.224,0.178,0.492v0.851l0.045,0.895l0.489,0.403
			l0.222,0.582l-0.089,0.627l0.4,0.134c0,0,0.178,0.224,0.356,0.358c0.178,0.134,0.178,0.582,0.178,0.582s-0.267,0.403,0.133,0.582
			c0.4,0.179,0.445,0.582,0.445,0.582l0.356,0.269l0.356,0.448l0.045,0.671l-0.045,0.761l-0.044,0.448c0,0-0.089,0.09-0.311,0.134
			c-0.222,0.045-0.401,0.134-0.401,0.134l-0.489,0.627v0.492l-0.311,0.179l-0.534,0.09l0.4,0.627l0.222,0.224
			c0,0,0.045,0.268,0.578,0.224c0.534-0.045,0.222-0.089,0.623,0.045c0.4,0.134,0.356,0.045,0.623,0.224
			c0.267,0.179,0.667,0.313,0.667,0.313s0.356-0.045,0.534,0.09c0.178,0.134,0.311,0.806,0.311,0.806l0.356,0.224l0.401,0.224
			l0.356,0.179c0,0,0-0.09,0.445,0.403l0.445,0.492l0.712,0.045c0,0,0.133-0.134,0.4-0.269c0.267-0.134,0.445-0.268,0.445-0.268
			l0.617,1.758l0.145,0.439l-0.145,0.658l0.145-0.11l-0.182,0.292l-0.254,0.329l-0.181,0.365l-0.254,0.293l0.291,0.292l0.4,0.256
			l0.145,0.329c0,0-0.036,0.329-0.073,0.475c-0.036,0.146-0.109,0.219-0.109,0.219l-0.472,0.548c0,0-0.182-0.073-0.291,0.219
			c-0.109,0.292-0.109,0.475-0.109,0.475l-0.036,0.439l-0.327,0.11l-0.145,0.183l-0.073,0.365l-0.218,0.438l0.073,0.183l0.509,0.219
			l0.218,0.512l-0.145,0.475l-0.472,0.402l-0.291,0.439l-0.836,0.365l-0.218,0.293l-0.036,0.548l0.073,0.694l-0.363,0.512
			l0.218,0.256l0.618,0.256l0.327-0.219l0.109-0.658l0.291-0.292l0.291-0.11l0.218,0.329l-0.291,0.439l-0.327,0.475v0.585
			l-0.036,0.804l-0.363,0.439l-0.254,0.548l-0.036,0.475l-0.109,0.585l0.036,1.06l0.327,0.913l0.436,0.073l0.945-0.292l1.017-0.037
			l1.271-0.877l2.906,2.01l1.308,0.548l2.507,0.841c0,0,1.272,0.475,1.417,0.512c0.145,0.036,1.272,0.585,1.635,0.658
			S67.099,301,67.099,301l0.545-0.073c0,0,1.489-0.073,1.489-0.329s0.69-3.18,0.69-3.18l2.398,1.096c0,0,0.436-2.741,0.581-2.887
			c0.146-0.146,3.597-2.668,3.597-2.668l-1.199-3.107l-0.254-0.804l-0.4-3.545l1.925-0.914l4.686,1.937l2.652-2.302l-0.327-2.193
			l-0.436-1.974l-4.541-6.761c0,0-0.145-2.083-0.218-2.23c-0.073-0.146-0.4-1.791-0.4-1.791l-1.308-1.791l0.836-0.694l2.579,0.256
			c0,0,1.017,0.037,1.235-0.073c0.218-0.11,1.78-0.877,1.78-0.877l1.526-3.691l1.235-3.289c0,0,1.49-0.841,1.926-0.804
			c0.436,0.037,3.161,1.242,3.161,1.242l1.816-1.571l3.996,1.571l4.722-1.937c0,0,2.979-1.206,3.015-1.462
			c0.036-0.256,1.053-4.97,1.053-4.97l-1.308-2.449l3.378-4.02l-0.545-6.396l5.594-7.821c0,0,0.073-2.668,0.073-3.107
			c0-0.439-0.545-2.083-0.109-2.449c0.436-0.366,1.272-2.595,1.272-2.595l1.707-0.841l1.054-3.143l5.885,1.133l1.417-0.183
			l1.053-0.402c0,0,3.524-7.273,3.705-7.529c0.181-0.256,3.015-1.389,3.015-1.389s1.235-6.688,1.163-7.09
			c-0.073-0.402-0.254-2.485-0.254-2.485l-0.145-1.06l-0.182-1.243l-3.015-4.349l-3.597-5.08l1.853-2.741l0.036-5.847l-0.981-4.824
			l-2.47-1.425c0,0-2.615,0.767-2.797,0.694c-0.182-0.073-2.144-1.572-2.47-1.389c-0.327,0.183-6.794,2.851-6.794,2.851l-2.47-0.695
			l-3.451-8.881l-1.962-7.309l-4.941-2.668c0,0-1.49-0.695-1.49-0.841c0-0.146,0.763-2.924,0.763-2.924l-5.594-8.808l-2.289-11.622
			l0.944-0.841l1.526,1.17l2.616-7.273c0,0-3.669-3.618-3.814-4.057c-0.145-0.438-0.545-3.618-0.545-3.618l-3.488-4.057l1.308-3.289
			l2.725-0.366l3.742-2.741l-2.943-5.555l0.69-4.313c0,0-1.09-4.495-1.126-4.641c-0.036-0.146,1.889-4.751,1.889-4.751l2.579-1.462
			l-1.38-4.203l0.618-3.362c0,0,2.325-0.767,2.216-1.096c-0.109-0.329-1.308-2.339-1.308-2.339l0.618-1.572
			c0,0,2.943-2.485,2.943-2.631v-3.216l-2.216-6.871l-2.507-3.362l-0.109-5.628L93.4,46.486l-0.763-2.375l-2.942-3.143
			l-10.826-7.419h-1.126l-1.453,1.096c0,0-0.69-1.827-0.908-1.535c-0.218,0.293-0.981,0.767-0.981,0.767l-0.399,0.146L71.93,32.89
			l-0.182-3.764l-2.034-3.764l0.69-2.266l-2.216-2.229l0.145-1.572l-1.453-1.572v-1.718l-7.447-5.92l-4.141,1.681l-2.034,2.558
			l-3.015,0.11l-2.652,0.256l-1.417,2.339l-1.817-0.621l-1.017,1.718l-2.761,1.206l-1.635-0.366l-2.07-2.741l-0.654-1.498
			l-0.726-1.316l-0.472-2.12l0.182-2.997l0.436-0.877l1.417-0.767L34.04,0.656l-0.618-0.548l-0.545,0.219"/>
	</g>
	<polygon id="Fill-4" class="st3" points="0.316,213 0.684,213.207 1.421,214.172 1.842,214.655 2,215 1.684,216.586 1.421,217 
		0.684,215.897 0.263,215.069 0,213.965 	"/>
</g>
</svg>
