<?xml version="1.0" encoding="UTF-8"?>
<svg width="133px" height="300px" viewBox="0 0 133 300" version="1.1" xmlns="http://www.w3.org/2000/svg" xmlns:xlink="http://www.w3.org/1999/xlink">
    <!-- Generator: Sketch 64 (93537) - https://sketch.com -->
    <title>14</title>
    <desc>Created with Sketch.</desc>
    <defs>
        <polygon id="path-1" points="0.109762723 0.107388473 132.819361 0.107388473 132.819361 301 0.109762723 301"></polygon>
    </defs>
    <g id="14" stroke="none" stroke-width="1" fill="none" fill-rule="evenodd">
        <g id="Group-6">
            <g id="Group-3">
                <mask id="mask-2" fill="white">
                    <use xlink:href="#path-1"></use>
                </mask>
                <g id="Clip-2"></g>
                <path d="M32.9185131,0.340294813 L29.5835974,2.55572421 L26.1230107,5.84742378 L24.3612457,9.20222925 L25.8714532,11.2279072 L21.1522165,14.6460354 L15.3635909,26.0400131 L10.6445699,28.6987019 L9.63769303,34.3324764 L0.109762723,47.8644648 L8.65215656,55.6527314 L6.60563793,62.7247134 L7.22838833,69.4388784 L4.64792966,70.781668 L6.60563793,73.9148438 L4.73695559,75.3469793 L7.1393624,77.4956161 L6.78347423,80.3603207 L8.0291906,80.7181378 L9.6310107,79.5544735 L12.8342198,79.7335988 L16.4825585,80.8972631 L20.3089491,83.0456831 L22.0886055,84.5675981 L22.8005974,84.4780354 L23.5123737,84.1200016 L23.9572878,85.8210419 L23.9572878,87.969462 L23.6011841,89.1331262 L21.9997951,88.9542177 L21.6436914,89.804521 L21.4212344,90.6550412 L21.9551744,91.8635952 L22.7113559,92.7587883 L22.6669507,93.4301831 L22.6669507,95.310132 L22.8005974,96.0261997 C22.8005974,96.0261997 22.3554677,96.4291233 22.3554677,96.7871572 C22.3554677,97.1451911 22.1776314,97.4138791 22.1776314,97.4138791 L21.7325018,97.9061486 L21.6436914,99.2042653 L21.0653462,99.3385009 L21.1543721,100.009896 L21.6436914,100.591728 L21.9995796,101.039324 L22.8005974,100.994435 L23.2452959,101.800282 L23.6011841,102.516566 L23.69021,101.352685 L23.7348308,100.994435 L24.4910123,101.576484 C24.4910123,101.576484 24.3575812,102.068753 24.5356331,102.382114 C24.7136849,102.695475 24.8027109,103.724904 24.8027109,103.724904 L24.4910123,104.575424 L24.090719,104.978347 L23.8238567,104.754332 L23.69021,103.769577 L23.3787271,103.232634 C23.3787271,103.232634 23.3787271,104.21739 23.2899167,104.620097 C23.2008908,105.02302 23.1118648,105.336164 23.1118648,105.336164 L22.7557611,105.604852 L22.2666574,105.425944 L21.6880966,105.201929 L21.5546655,105.604852 L22.0886055,106.500046 C22.0886055,106.500046 22.3554677,106.634281 21.5546655,107.081878 C20.7536476,107.529474 20.3089491,107.842835 20.3089491,107.842835 L19.330095,108.066633 L16.5271793,108.021961 L15.414894,107.529474 L14.3470139,107.17144 L13.2349442,106.858296 L12.9676509,106.813406 L12.9676509,107.798162 L13.5018065,108.51423 L13.5018065,109.320077 L13.6352376,110.036145 L15.2814629,110.528414 L16.6162052,111.155136 L17.2835763,111.423607 L17.6838697,112.274128 L17.6394645,113.974951 L17.5948438,114.735909 L17.4170075,115.631102 L17.1055245,116.70542 L16.7496363,117.600613 L16.3047222,118.495806 L16.7940415,118.719605 L17.0611193,118.80895 L16.7496363,119.34611 L16.5271793,119.256547 L16.4381533,119.928159 L16.0822652,119.793706 L15.9042133,119.390999 L14.4806606,120.509991 L13.946505,120.912698 L13.2793494,121.091823 L12.7007887,121.136496 L12.2112538,121.136496 L12.4339264,121.85278 L13.0122716,122.568848 L13.0122716,123.777402 L12.7007887,124.583033 L11.9890123,125.388663 L11.277236,125.612461 L10.12033,125.657351 L9.71982107,125.254427 L9.18588104,124.717485 L8.51872545,124.180109 L8.29605284,124.224999 L9.05244992,125.34399 L9.54198476,126.149837 L10.2091404,126.68678 L10.7430804,127.044814 L11.0545634,127.895334 L10.3874078,129.148561 L10.2091404,129.954191 L10.5652441,130.894274 L10.5652441,132.237064 L11.3216412,133.17693 L11.5885034,133.579853 L11.6331241,134.072123 L11.6775293,134.519719 L12.3004953,134.475046 L12.7898146,134.87797 L13.1903235,134.02745 L15.3702733,134.072123 L16.5271793,135.280677 L16.8828519,136.131197 L17.4614126,136.802592 L17.5948438,137.742458 L18.2178097,138.906339 L18.1287838,140.204239 L18.1287838,140.920523 L17.5060334,141.949952 L17.1945504,142.710909 L16.8384467,143.292741 L16.3937481,144.187935 L16.0376444,144.769767 L15.7261614,145.217363 L15.4592992,145.620287 L15.414894,145.978321 L15.1480318,146.783951 L14.7029021,147.634471 L14.7029021,148.305866 L14.6584969,148.977261 L14.6584969,149.46953 L14.4360399,149.827564 L14.0799361,150.096035 L13.8130739,150.499176 L13.1903235,150.81232 L12.7451938,150.722757 L12.0334175,150.722757 L11.8553656,150.767647 L12.3449005,151.752403 L12.4783316,152.468471 L12.7898146,153.094976 L13.1457028,154.348419 L13.5015909,155.019814 L13.6796428,155.601646 L13.724048,157.526268 C13.724048,157.526268 13.8130739,158.690149 13.6796428,159.137746 C13.5462117,159.585342 13.4571857,159.988266 13.4571857,159.988266 L13.1457028,160.883459 L13.1903235,161.733762 L12.9232457,162.405157 L12.7451938,162.987206 L12.3449005,163.434586 L11.7219345,163.792837 L11.4106671,163.882399 L11.4550723,164.240433 L11.7219345,164.687813 L12.4339264,164.732703 L13.3237546,165.135626 L13.5906169,165.269862 L13.9020998,164.598467 L14.3026088,164.329779 L14.4360399,164.687813 L14.2135828,165.001391 L13.9909102,165.269862 L13.9020998,165.44877 L14.035531,166.075492 L14.791928,166.165055 L15.192437,166.612651 L15.103411,167.642297 L15.2368421,168.358148 L15.0587903,169.253558 L14.7473073,170.103861 L14.6584969,170.596347 L14.3916347,171.401978 L13.946505,171.849574 L13.5462117,172.207608 L13.5015909,172.83433 L13.4127806,173.281927 L13.2793494,173.639961 L13.2347287,174.13223 L13.5015909,174.490481 L14.1243413,173.461052 L14.2582036,172.923893 L14.3470139,172.341844 L14.7029021,171.625776 L15.0143851,170.999054 L15.3258681,170.551674 L15.6373511,170.014298 L15.8151874,169.522029 L16.1268859,168.805961 L16.260317,167.955441 L16.5271793,167.507845 L16.8830674,167.68697 L17.1501452,168.089677 L17.5504386,168.223912 L17.9507319,168.223912 L18.1289994,168.850634 L18.1734045,169.477139 L18.2624305,170.148751 L18.3512408,170.68591 L18.6627238,171.13329 C18.6627238,171.13329 18.7517498,171.760012 18.7517498,171.98381 C18.7517498,172.207608 18.7961549,173.371272 18.7961549,173.68485 C18.7961549,173.997994 18.8405601,173.908432 18.7961549,174.176903 C18.7517498,174.445808 18.6181031,174.669389 18.6181031,174.669389 L18.2624305,174.848515 L17.5948438,174.803625 L16.9718778,175.564799 L16.2156963,175.877943 L15.8595925,176.056852 L15.6373511,176.549338 L15.414894,177.041607 L14.6140917,177.086497 L14.4360399,176.862699 L14.2582036,176.549338 L13.4571857,176.683574 L13.2793494,177.041607 L13.0566768,177.489421 L12.7007887,177.668329 L12.5229524,177.668329 L12.5673575,177.310296 L12.7898146,176.325757 L12.7454094,176.28065 L12.2112538,176.818026 L12.0334175,177.175843 L11.8109605,177.668329 L11.7665553,177.98169 L11.4106671,177.578984 C11.4106671,177.578984 11.5885034,177.175843 11.5440982,176.862699 C11.499693,176.549338 11.6331241,175.877943 11.6331241,175.877943 L12.1668486,175.027423 L12.6563835,174.758952 L13.3237546,174.535154 C13.3237546,174.535154 13.0122716,174.490481 12.9232457,174.221793 C12.8342198,173.953321 12.8342198,173.416162 12.8342198,173.416162 L12.4783316,173.013239 L11.8999864,173.013239 L11.2326152,172.923893 L11.0989686,172.252281 L11.3216412,171.849574 L12.3449005,171.849574 L12.8342198,171.715339 L13.0122716,171.625776 L13.1903235,171.267742 L12.5673575,171.043944 L11.5885034,171.267742 L10.8321063,171.446651 L10.6986752,171.939137 L10.5208389,172.700095 L10.2091404,173.416162 L10.0313041,174.13223 L9.71982107,174.266682 L9.09685511,174.356028 L8.65215656,174.266682 L8.29605284,174.042884 L8.25164765,174.17712 C8.25164765,174.17712 8.2070269,174.356028 8.07359579,174.758952 C7.94016467,175.161876 7.80673355,175.430564 7.80673355,175.430564 L7.71770762,176.235977 L7.98478541,176.415319 L8.42969951,176.280867 L9.09685511,176.146414 L9.49757958,176.415319 L9.808847,176.638901 L9.98689887,176.996935 L10.3874078,177.220733 L10.5652441,177.847455 L10.6986752,178.384614 L10.9211323,179.100682 L10.6096493,179.414043 L9.89787293,179.593168 L9.808847,180.13011 L9.49757958,180.622597 L9.67541588,181.204646 L9.76444182,181.652025 L9.98668331,182.010059 L9.76444182,182.234074 L9.76444182,182.860579 L9.76444182,183.710883 L9.71982107,183.934681 L9.23028622,184.292932 L8.82999287,184.51673 C8.82999287,184.51673 7.71770762,185.053889 7.62889724,185.232798 C7.53987131,185.411923 7.09474165,185.81463 7.09474165,185.81463 L7.09474165,186.172881 L7.09474165,186.486025 C7.09474165,186.486025 7.1393624,187.963267 7.18376759,188.231738 C7.22817277,188.500209 7.18376759,189.216494 7.18376759,189.216494 L7.22817277,190.022124 C7.22817277,190.022124 7.36181945,190.917317 7.22817277,191.320241 C7.09474165,191.722948 7.1393624,192.260107 7.1393624,192.528578 C7.1393624,192.797266 7.18376759,193.513334 7.18376759,193.513334 C7.18376759,193.513334 7.05033647,193.871584 7.00593128,194.140056 C6.96131053,194.408527 6.87250016,194.85634 6.87250016,194.85634 L6.56101718,195.70686 L6.47199125,196.020004 L6.20491345,196.691399 L5.89364603,197.049433 C5.89364603,197.049433 5.84902528,197.362794 5.67118898,197.45214 C5.49313712,197.541703 5.18165413,197.676155 5.18165413,197.676155 L4.87038671,198.347333 L4.38085186,198.660911 L3.98055851,198.660911 L3.62467034,198.750473 L3.22416143,199.108507 C3.22416143,199.108507 3.17954068,199.287416 3.04610956,199.466324 C2.91267844,199.645667 2.82365251,199.869465 2.82365251,199.869465 L2.60119546,200.272172 L2.55657472,200.451297 L3.49102366,201.077802 L3.58004959,201.436053 L4.06936888,202.241466 L4.2028,202.555044 L4.51428298,202.868188 L4.78136078,203.629146 L5.359706,203.450237 L5.67118898,204.882373 L5.8046201,205.911801 C5.8046201,205.911801 6.2495342,206.1356 6.29393938,206.314942 C6.33834457,206.49385 6.6944483,207.254808 6.6944483,207.254808 L7.00593128,207.657515 L7.67330243,208.508035 L7.89575948,209.089867 L8.07359579,209.98506 L8.34045802,210.343311 L8.51872545,210.835363 L8.65215656,210.880253 L8.78558768,210.074406 L8.69656175,209.716589 L8.78558768,208.866069 L8.87461361,208.597597 L8.96342399,207.83664 L9.18588104,207.433716 C9.18588104,207.433716 9.808847,207.567952 10.12033,207.657515 C10.431813,207.747077 10.7877011,207.881313 10.7877011,207.881313 L11.3662619,207.702404 L12.1668486,208.149784 L12.5229524,208.508035 L13.0566768,208.731833 L13.4127806,208.821396 L13.6352376,209.044977 L13.6352376,209.850824 L13.4127806,210.298421 L13.2793494,210.566892 L13.2793494,211.462085 L13.5906169,211.820119 L13.724048,212.312605 L13.8130739,213.02889 L13.5018065,213.521159 L13.2347287,215.132637 L12.9232457,215.401108 L12.4339264,215.62469 L12.0778227,215.266873 L11.7665553,215.132637 L11.499693,214.863732 L10.9655374,214.461025 L10.9211323,214.192554 L10.5208389,213.610505 L10.4762182,212.625966 L10.0313041,212.536404 L9.94227812,212.625966 L9.89787293,213.655395 L10.0313041,214.192554 L9.6310107,214.32679 L9.31931216,213.834303 C9.31931216,213.834303 9.23028622,213.700068 9.05244992,213.521159 C8.87439806,213.342034 8.74096694,212.983783 8.74096694,212.983783 L8.82999287,212.581077 C8.82999287,212.581077 8.51872545,212.223043 8.51872545,212.044134 C8.51872545,211.865009 8.29605284,211.506975 8.29605284,211.506975 L8.0291906,211.596538 C8.0291906,211.596538 7.80673355,211.909682 7.80673355,212.088807 C7.80673355,212.267932 8.42969951,212.760202 8.42969951,212.760202 L8.51872545,213.163126 L8.51872545,213.878976 L9.14147585,214.729497 C9.14147585,214.729497 9.76422626,214.908622 9.71982107,215.13242 C9.67541588,215.356218 9.76444182,215.535344 9.76444182,215.535344 C9.76444182,215.535344 10.342787,215.490454 10.5208389,215.490454 C10.6986752,215.490454 11.1435893,215.580017 11.4550723,215.758925 C11.7665553,215.938267 12.5229524,217.77311 12.5229524,217.77311 C12.5229524,217.77311 12.5229524,218.086687 12.878625,218.220923 C13.2347287,218.355159 13.635022,218.713193 13.635022,218.713193 L14.2135828,219.205679 C14.2135828,219.205679 14.8363332,219.339914 14.8363332,219.518823 C14.8363332,219.697731 15.3702733,220.235107 15.3702733,220.235107 L15.9042133,220.324453 L16.2601015,220.414016 L16.4825585,221.219863 L16.2156963,221.935931 L15.9486185,222.652216 L15.7705666,223.234048 L15.3258681,224.129241 L15.0141695,224.845309 L15.2368421,225.740718 C15.2368421,225.740718 15.0141695,226.456569 15.103411,226.680584 C15.192437,226.904383 15.3258681,227.575778 15.3258681,227.575778 L15.2368421,228.246955 L15.2812473,228.739442 L15.5037044,229.321274 L15.6371355,230.126904 L15.7261614,230.171794 L15.2812473,230.932752 L14.3914191,231.469911 L14.0799361,231.96218 L13.5015909,232.499339 L12.1668486,232.902046 L11.6775293,233.125845 L10.9655374,233.170517 L10.6986752,232.723138 L10.6096493,232.096416 L10.1201144,231.738382 L9.94227812,231.066987 L10.0310885,230.037559 L10.0310885,229.007913 L9.89765737,228.11272 L9.54198476,227.531105 L9.05244992,226.81482 L8.96342399,226.456569 L8.2070269,225.203342 L7.80673355,224.845309 L7.45084538,224.442385 L7.18376759,224.218587 L6.96131053,223.905443 L6.60542237,223.412956 L6.24931864,223.099595 L5.71559417,222.607326 L5.0926282,222.159729 C5.0926282,222.159729 4.78136078,222.025494 4.60330891,222.115056 C4.42525705,222.204402 4.15839481,222.115056 4.15839481,222.115056 C4.15839481,222.115056 3.71348071,222.070167 3.66907553,221.891258 C3.62445478,221.71235 3.44640292,221.57768 3.44640292,221.57768 L2.95708363,221.62257 L2.15628136,222.293965 L1.93382431,222.741778 L1.35526353,223.054922 L1.31085835,223.368283 L2.4231436,224.487275 C2.4231436,224.487275 2.51216953,224.890198 2.73462658,224.979544 C2.95708363,225.069107 3.40199773,225.606266 3.40199773,225.606266 L3.93593776,226.322334 L4.87017115,227.2622 L5.40411118,227.933811 C5.40411118,227.933811 5.49313712,228.15761 5.84902528,228.784332 C6.20491345,229.411053 6.38296532,229.76887 6.51661199,229.992669 C6.65004311,230.216467 6.8722846,230.977424 6.8722846,230.977424 L7.05033647,232.141089 L7.22817277,232.678248 L7.3171987,233.125845 L7.71770762,233.618331 L7.3171987,233.886802 L7.00571572,234.065711 L7.00571572,234.737322 L8.2070269,235.945659 L8.9190188,236.259237 L9.3639329,236.572381 L9.54198476,236.930415 L9.94227812,237.691373 L10.6986752,239.392413 L11.3216412,240.287606 C11.3216412,240.287606 11.7219345,240.914111 11.8999864,241.093236 C12.0778227,241.272362 12.2112538,241.585506 12.2112538,241.585506 L12.5229524,241.764414 C12.5229524,241.764414 12.6117627,241.45127 12.878625,241.719741 C13.1457028,241.98843 13.635022,242.614935 13.635022,242.614935 L14.035531,242.838733 L14.3916347,242.973185 L14.8807384,244.047504 L15.3702733,244.047504 L15.9042133,244.494883 L16.6606104,244.98737 L17.2835763,245.524312 L18.1287838,246.016798 L19.5969572,246.822429 L20.3977595,247.001554 L21.2431825,247.404261 L22.2220366,248.075656 L23.6455893,248.836613 L25.0695731,250.045167 L25.6925391,250.537437 L26.4931258,250.985033 L27.0270658,251.164159 L27.5163851,251.38774 L27.916894,252.462059 L28.4062133,252.999218 L29.5633348,252.775419 L30.1414645,252.954545 L30.8534564,253.08878 L31.2537498,253.357252 L31.6098535,253.939301 L31.9657417,254.476243 L32.4996817,254.43157 L33.3002684,254.834494 L33.7009929,254.923839 L34.0566655,255.461216 L34.5908211,255.505888 L34.9467092,255.2372 L35.6140804,255.729687 C35.6140804,255.729687 35.7031063,256.177066 35.7031063,256.356192 C35.7031063,256.535317 35.4360285,256.803788 35.4360285,256.803788 L35.1245455,257.564746 L36.3258567,257.564746 L36.6817449,257.564746 L36.6373397,258.101905 L36.7707708,258.504829 L36.9042019,259.086444 L37.5271679,259.534257 L37.5271679,258.862863 L37.660599,258.191251 L38.0164872,258.370593 L38.5504272,258.7733 L39.0397465,259.668493 L39.2180139,259.892291 L38.9063154,260.116089 C38.9063154,260.116089 38.595048,260.0712 38.506022,260.295215 C38.4169961,260.519013 38.7728843,260.92172 38.7728843,260.92172 L39.4402554,261.100628 L40.1522473,260.742595 L40.5971614,260.653249 L41.3979637,260.339888 C41.3979637,260.339888 41.3089378,260.295215 42.0209297,260.384561 C42.732706,260.474123 42.421223,260.608359 42.8661371,260.87683 C43.3110512,261.145518 44.0230431,262.174947 44.0230431,262.174947 L44.5123624,263.114813 C44.5123624,263.114813 44.5123624,263.428391 44.7792246,263.651972 C45.0463024,263.87577 45.1797335,264.054896 45.2687595,264.234021 C45.3575699,264.41293 45.4465958,264.457819 45.4465958,264.72629 L45.4465958,265.576811 L45.4912165,266.472004 L45.9805358,266.874711 L46.2029929,267.45676 L46.1141825,268.083481 L46.5144759,268.217717 C46.5144759,268.217717 46.6923122,268.441298 46.8705796,268.575751 C47.0484159,268.709986 47.0484159,269.157583 47.0484159,269.157583 C47.0484159,269.157583 46.7815536,269.56029 47.181847,269.739415 C47.5821404,269.918324 47.6267611,270.321247 47.6267611,270.321247 L47.9826493,270.589935 L48.3385374,271.037532 L48.3831582,271.70871 L48.3385374,272.469667 L48.2941323,272.917481 C48.2941323,272.917481 48.2051063,273.007043 47.9826493,273.051716 C47.7604078,273.096389 47.5821404,273.185952 47.5821404,273.185952 L47.0928211,273.812674 L47.0928211,274.304943 L46.7815536,274.483852 L46.2476136,274.573414 L46.647907,275.200136 L46.870364,275.423935 C46.870364,275.423935 46.9149848,275.692406 47.4487092,275.647516 C47.9826493,275.602843 47.6711663,275.55817 48.0716752,275.692406 C48.4719686,275.826858 48.4275634,275.737296 48.6946412,275.916421 C48.9615034,276.095329 49.3617968,276.229565 49.3617968,276.229565 C49.3617968,276.229565 49.7179005,276.184892 49.8959524,276.319128 C50.0737887,276.453363 50.2072198,277.124758 50.2072198,277.124758 L50.5631079,277.348556 L50.9636169,277.572355 L51.319505,277.75148 C51.319505,277.75148 51.319505,277.661917 51.7646347,278.154187 L52.2093332,278.646673 L52.9213251,278.691563 C52.9213251,278.691563 53.0547562,278.55711 53.3216185,278.422658 C53.5886963,278.288422 53.7667481,278.154187 53.7667481,278.154187 L54.383894,279.912044 L54.5291809,280.350749 L54.383894,281.008482 L54.5291809,280.898968 L54.3474645,281.191294 L54.0931047,281.520269 L53.9118194,281.885676 L53.6574596,282.178218 L53.9480334,282.470327 L54.3476801,282.726221 L54.4929669,283.055195 C54.4929669,283.055195 54.4565374,283.38417 54.4203235,283.530333 C54.383894,283.676496 54.3112506,283.749577 54.3112506,283.749577 L53.839176,284.297796 C53.839176,284.297796 53.6574596,284.224715 53.5483867,284.517257 C53.4393138,284.809366 53.4393138,284.992178 53.4393138,284.992178 L53.4030998,285.430883 L53.0760966,285.540614 L52.9308097,285.723209 L52.8581663,286.088616 L52.640236,286.527105 L52.7128794,286.709917 L53.221599,286.929378 L53.4393138,287.440948 L53.2940269,287.916085 L52.8217368,288.317924 L52.531163,288.75663 L51.6956558,289.122037 L51.4777254,289.414579 L51.4415115,289.962582 L51.5141549,290.656963 L51.1507222,291.16875 L51.3686525,291.424427 L51.9862295,291.68032 L52.3132327,291.461076 L52.4220901,290.803126 L52.7128794,290.511017 L53.0034532,290.401287 L53.221599,290.730045 L52.9308097,291.16875 L52.6038065,291.643888 L52.6038065,292.228539 L52.567377,293.032651 L52.2043754,293.471357 L51.9500156,294.019359 L51.9135861,294.494713 L51.8045131,295.079365 L51.8409426,296.13937 L52.1679459,297.05278 L52.6038065,297.125861 L53.5483867,296.833752 L54.5656104,296.797103 L55.8369783,295.919909 L58.7433624,297.929973 L60.0511598,298.478193 L62.5576817,299.318954 C62.5576817,299.318954 63.8292652,299.793875 63.974552,299.830524 C64.1198389,299.866956 65.2461355,300.415175 65.6093527,300.488257 C65.9725699,300.561338 67.0986509,301.000043 67.0986509,301.000043 L67.6438,300.926962 C67.6438,300.926962 69.1330982,300.853881 69.1330982,300.597987 C69.1330982,300.342094 69.8233186,297.418404 69.8233186,297.418404 L72.2209831,298.514842 C72.2209831,298.514842 72.6570593,295.773747 72.8021306,295.627584 C72.9476331,295.481204 76.3987352,292.95957 76.3987352,292.95957 L75.1997951,289.853068 L74.9456509,289.048955 L74.5460042,285.503965 L76.4713786,284.590339 L81.1576347,286.527105 L83.809659,284.224715 L83.4826558,282.032056 L83.0467951,280.058424 L78.5056104,273.297417 C78.5056104,273.297417 78.3605391,271.214055 78.2878956,271.067892 C78.2152522,270.921512 77.8882489,269.276855 77.8882489,269.276855 L76.5804515,267.486252 L77.4159588,266.79187 L79.9953397,267.047547 C79.9953397,267.047547 81.0123478,267.084196 81.2302781,266.974466 C81.448424,266.864735 83.0105812,266.097272 83.0105812,266.097272 L84.5363089,262.406118 L85.7712473,259.117021 C85.7712473,259.117021 87.2609767,258.27626 87.6968373,258.312909 C88.1329135,258.349558 90.8573656,259.555293 90.8573656,259.555293 L92.6736671,257.983934 L96.6699183,259.555293 L101.392388,257.618527 C101.392388,257.618527 104.371416,256.412358 104.407845,256.156682 C104.443844,255.900788 105.461283,251.186278 105.461283,251.186278 L104.153486,248.737726 L107.531944,244.717381 L106.987011,238.321564 L112.581418,230.500552 C112.581418,230.500552 112.654061,227.832538 112.654061,227.39405 C112.654061,226.955345 112.109343,225.310687 112.545204,224.945497 C112.98128,224.579873 113.816787,222.350565 113.816787,222.350565 L115.524231,221.51002 L116.577884,218.366869 L122.462865,219.499739 L123.879735,219.317144 L124.933173,218.915088 C124.933173,218.915088 128.457134,211.642078 128.638635,211.386185 C128.820135,211.130508 131.653876,209.997638 131.653876,209.997638 C131.653876,209.997638 132.88903,203.309496 132.816387,202.90744 C132.743743,202.505383 132.562027,200.422238 132.562027,200.422238 L132.41674,199.362449 L132.235024,198.119848 L129.219998,193.770745 L125.623393,188.690611 L127.476124,185.949516 L127.512554,180.102136 L126.531544,175.277678 L124.061236,173.852482 C124.061236,173.852482 121.445857,174.619945 121.26414,174.546864 C121.082424,174.473783 119.12062,172.975288 118.793832,173.1581 C118.466829,173.340912 112.00027,176.008926 112.00027,176.008926 L109.529962,175.314327 L106.07886,166.433309 L104.117272,159.123867 L99.1766558,156.45607 C99.1766558,156.45607 97.687142,155.761471 97.687142,155.615525 C97.687142,155.469363 98.4500058,152.691618 98.4500058,152.691618 L92.855599,143.883899 L90.5670075,132.261785 L91.5113721,131.421241 L93.0370998,132.59076 L95.6526947,125.317967 C95.6526947,125.317967 91.9836622,121.699678 91.8383754,121.26119 C91.6930885,120.822701 91.2934418,117.642901 91.2934418,117.642901 L87.8059102,113.586123 L89.1137076,110.297026 L91.8383754,109.931402 L95.5800512,107.190524 L92.6374532,101.635469 L93.3276736,97.3227984 C93.3276736,97.3227984 92.2378065,92.8275326 92.2018081,92.6813697 C92.1653786,92.5352069 94.0905374,87.9302105 94.0905374,87.9302105 L96.6699183,86.4683654 L95.2894775,82.2654252 L95.9070545,78.9030297 C95.9070545,78.9030297 98.2320755,78.1355664 98.1230026,77.8065916 C98.0139297,77.4776169 96.8152052,75.4675527 96.8152052,75.4675527 L97.4327822,73.8959771 C97.4327822,73.8959771 100.37538,71.4109922 100.37538,71.2646125 L100.37538,68.0485967 L98.1594321,61.1776428 L95.6526947,57.8152473 L95.5436217,52.1871111 L93.400317,46.4856767 L92.6374532,44.1102055 L89.6950707,40.9670542 L78.8692587,33.5480981 L77.7429621,33.5480981 L76.2898778,34.6445362 C76.2898778,34.6445362 75.5996574,32.8170671 75.3817271,33.1093928 C75.1637968,33.4019353 74.4007173,33.8768561 74.4007173,33.8768561 L74.0012862,34.0232357 L71.9304094,32.8901486 L71.7489086,29.1259137 L69.7144613,25.361462 L70.4046817,23.0955045 L68.1887335,20.8661961 L68.3340204,19.2946205 L66.8809361,17.7230448 L66.8809361,16.0053063 L59.4335828,10.0848445 L55.2922603,11.7659339 L53.257813,14.324217 L50.2425715,14.4339476 L47.5905472,14.6896241 L46.1738924,17.028663 L44.3573754,16.4073625 L43.3403673,18.125101 L40.57927,19.3312696 L38.9444694,18.9656457 L36.8740237,16.2247674 L36.2198016,14.7262732 L35.4933673,13.4105909 L35.0210771,11.2907963 L35.2027935,8.29402464 L35.6386541,7.41683084 L37.0555245,6.64936758 L34.040283,0.655607493 L33.422706,0.107388473 L32.8777724,0.326632709" id="Fill-1" fill="#FFFFFF" mask="url(#mask-2)"></path>
            </g>
            <polygon id="Fill-4" fill="#FFFFFF" points="0.315770415 213 0.684229585 213.20688 1.42096687 214.172479 1.84211479 214.655279 2 215.000237 1.68422959 216.58624 1.42096687 217 0.684048524 215.89656 0.263081659 215.069039 0 213.965362"></polygon>
        </g>
        <g id="Group-5-Copy" transform="translate(37.000000, 131.000000)">
            <path d="M19.5007728,0 C30.2704791,0 39,8.72986684 39,19.5 C39,30.2701332 30.2704791,39 19.5007728,39 C8.73106646,39 0,30.2701332 0,19.5 C0,8.72986684 8.73106646,0 19.5007728,0 Z" id="Stroke-1" stroke="#E75F52"></path>
            <path d="M19.5,13 C23.0899976,13 26,15.910354 26,19.5007853 C26,23.089646 23.0899976,26 19.5,26 C15.9100024,26 13,23.089646 13,19.5007853 C13,15.910354 15.9100024,13 19.5,13" id="Fill-3" fill="#E75F52"></path>
        </g>
    </g>
</svg>