<?xml version="1.0" encoding="UTF-8"?>
<svg width="366px" height="300px" viewBox="0 0 366 300" version="1.1" xmlns="http://www.w3.org/2000/svg" xmlns:xlink="http://www.w3.org/1999/xlink">
    <!-- Generator: Sketch 64 (93537) - https://sketch.com -->
    <title>15</title>
    <desc>Created with Sketch.</desc>
    <g id="15" stroke="none" stroke-width="1" fill="none" fill-rule="evenodd">
        <path d="M209.967326,0 L208.184117,0.892100919 L207.290655,2.6725934 L206.84671,3.11586184 L205.956963,4.00796276 L205.51116,4.44937652 L205.51116,5.33962276 L203.726093,7.56709304 L203.726093,8.4554846 L202.836346,9.34387616 L202.388686,10.2359771 L201.054994,12.0146149 L198.376465,12.459738 L197.488576,12.459738 L192.138948,11.1262233 L191.247343,11.1262233 L189.462276,12.0127602 L189.016474,12.0127602 L188.128584,9.78899928 L187.682782,7.12011524 L187.682782,4.89264496 L187.682782,3.55542092 L182.331297,4.44566716 L181.885494,4.44566716 L180.99389,5.33405872 L179.656483,5.78103652 L178.319076,6.22430496 L176.979811,7.1145512 L172.521788,9.3401668 L172.96759,10.6755362 L173.413392,12.8992971 L174.303139,15.128622 L177.425613,19.5779986 L177.425613,20.9115132 L176.088206,21.8017595 L173.413392,22.2468826 L172.521788,21.8017595 L172.077843,21.8017595 L171.188096,21.8017595 L170.294634,21.358491 L169.403029,19.5779986 L168.959084,19.1328754 L160.486982,19.5779986 L161.376729,21.8017595 L162.270192,22.6938604 L161.376729,23.1389835 L160.039322,23.582252 L159.59352,23.1389835 L155.135497,28.4786063 L148.002659,35.1591624 L144.436241,36.9378002 L142.205372,38.7182927 L139.978217,38.7182927 L139.532415,38.7182927 L136.409941,39.6085389 L135.965996,40.9439083 L134.18093,42.2792777 L131.953775,43.1695239 L131.060313,43.1695239 L130.170566,42.2792777 L129.726621,42.7244008 L128.836874,44.0616248 L127.051807,44.5067479 L126.158345,44.5067479 L125.7144,43.6165017 L126.604147,43.1732333 L126.604147,41.8360092 L126.158345,41.3908861 L125.7144,41.3908861 L124.824653,42.7262555 L124.380708,43.6165017 L122.147982,43.6165017 L118.581563,43.1732333 L117.242298,42.7262555 L117.242298,40.0573714 L117.242298,37.8317558 L117.689958,36.9415096 L117.242298,36.053118 L116.354409,35.6098496 L115.464662,36.053118 L114.125397,34.715894 L112.786133,34.715894 L111.450583,34.715894 L110.111319,34.2707709 L108.328109,33.3805246 L105.205635,32.9391109 L104.315888,32.4921331 L103.422426,32.4921331 L102.534536,32.0507193 L99.857865,29.8213943 L98.9699753,29.3781259 L98.5223155,29.8213943 L98.0765132,30.2683721 L98.0765132,31.6055962 L98.0765132,32.0507193 L97.6325683,31.6055962 L96.7409637,30.7134953 L96.2951613,30.7134953 L94.9577543,31.6055962 L94.0661497,32.0507193 L92.7287427,31.1586184 L92.2829403,31.1586184 L92.2829403,31.6055962 L92.7287427,37.8336105 L90.0557862,38.2805883 L86.4856525,38.7238567 L85.1482455,38.2805883 L84.2584984,37.8336105 L83.812696,37.8336105 L83.3668937,36.4982411 L82.4771465,36.0549727 L81.137882,34.2744802 L78.9107279,32.4921331 L77.5714634,30.2683721 L77.5714634,29.8213943 L78.0172657,29.3781259 L78.463068,29.8213943 L78.463068,29.3781259 L77.125661,27.1525103 L79.3509577,25.3701631 L79.79676,24.4817716 L79.3509577,23.1464022 L78.463068,21.8091782 L78.0172657,19.1402942 L77.5714634,19.1402942 L76.2340564,20.0305404 L69.9909662,21.8091782 L67.7638121,22.7012791 L66.42269,23.1445476 L65.0871406,23.1445476 L64.1973934,24.0329391 L63.7515911,24.0329391 L63.7515911,23.1445476 L62.8599864,23.1445476 L61.9683817,24.4799169 L61.5225794,24.4799169 L62.4123266,22.7012791 L61.9683817,22.7012791 L61.0767771,23.1445476 L60.6328322,24.4799169 L60.1888874,24.9231854 L54.3915996,27.1506556 L50.3793786,28.9330028 L47.7045646,31.1567637 L42.7988814,34.7177487 L40.1240674,35.6098496 L38.3408581,36.9452189 L37.4492534,37.8336105 L36.113704,38.2787336 L37.0015936,39.614103 L37.0015936,40.0592261 L36.113704,39.614103 L35.6679016,39.1689799 L35.2239568,38.7238567 L34.776297,39.614103 L30.3201311,42.7299648 L21.8480293,48.0732969 L18.7255555,49.4086663 L17.3881485,50.2989125 L15.1572793,52.079405 L12.036663,52.9696513 L9.36370649,54.3050206 L6.24123266,56.0873678 L4.45802333,57.4208825 L0.891604665,59.2013749 L0,59.6483527 L0.891604665,61.4269905 L1.337407,63.207483 L2.22529664,69.8861845 L1.77949431,71.2215539 L2.67109898,73.4508788 L3.56270364,73.8922926 L5.34777048,74.3374157 L5.7917153,74.7825388 L5.34777048,76.1179082 L5.7917153,77.4569869 L6.23751764,77.8984006 L6.67960495,78.7886469 L7.12540728,80.5691394 L6.67960495,81.9045087 L6.23751764,82.3514865 L3.56270364,85.469203 L4.00850597,85.9143262 L4.90011064,85.9143262 L4.90011064,87.2459862 L5.34591297,88.1362324 L5.34591297,90.361848 L5.78800028,91.2502396 L5.34591297,92.1423405 L5.34591297,93.4777098 L4.45430831,95.7033254 L5.34591297,95.7033254 L5.78800028,95.7033254 L6.23566013,97.0405495 L7.12354977,98.3759188 L7.57120961,100.59968 L9.35627645,101.046658 L9.35627645,100.59968 L10.6918259,99.7112882 L11.5834306,100.154557 L12.0273754,101.046658 L12.4731778,101.046658 L13.8142998,101.046658 L15.1479918,101.046658 L15.5956516,101.491781 L16.0395964,102.380172 L15.5956516,103.715542 L16.0395964,104.160665 L16.4853988,104.603933 L16.4853988,105.494179 L18.2723231,106.38628 L19.1620703,107.72165 L19.6041576,109.500287 L19.6041576,109.945411 L20.9452796,110.837512 L21.3892244,111.725903 L21.3892244,113.061272 L22.2826866,114.841765 L24.0621809,116.17528 L24.9537856,115.733866 L27.1846547,114.84362 L27.6304571,115.286888 L28.5202042,116.622257 L29.4099514,117.959481 L31.1950182,117.959481 L31.6408206,118.851582 L32.0866229,118.851582 L32.9745125,118.406459 L34.313777,117.959481 L34.313777,117.07109 L34.7595794,115.288743 L34.7595794,114.845474 L35.651184,114.400351 L36.0951289,113.955228 L35.651184,112.603167 L36.988591,111.267797 L39.3049057,111.267797 L40.1946528,110.379406 L40.6423127,109.934283 L41.5320598,109.491014 L42.8694668,108.600768 L44.6545336,108.600768 L46.437743,107.710522 L47.3293476,107.265398 L47.7732925,107.710522 L49.112557,108.155645 L50.0023041,108.155645 L52.2331733,106.375152 L54.9042723,105.931884 L56.2453943,106.375152 L56.2453943,107.263544 L57.5809438,110.38126 L58.9183508,111.269652 L58.9183508,112.605021 L59.3660106,113.497122 L60.7034176,114.385514 L60.7034176,114.832492 L60.2594728,115.719028 L61.1492199,116.60742 L62.0389671,117.499521 L63.8240339,117.499521 L64.7156386,117.942789 L66.0530456,119.725136 L66.0530456,121.060506 L66.9409353,122.840998 L66.4951329,122.840998 L64.7156386,124.178222 L64.2679788,124.619636 L64.2679788,125.509882 L64.7156386,126.848961 L64.7156386,127.735498 L64.7156386,128.62389 L65.6053858,130.853214 L67.3885951,133.076975 L67.3885951,134.857468 L67.3885951,135.302591 L67.3885951,136.63796 L67.8325399,137.97333 L67.8325399,138.865431 L67.3885951,139.308699 L68.2783422,140.644068 L67.3885951,141.089192 L67.8325399,141.53246 L67.3885951,142.424561 L67.3885951,144.203199 L68.7278596,145.983691 L73.1858829,148.652575 L74.5232899,149.099553 L76.7523016,150.880046 L77.1962464,150.880046 L77.6420487,150.880046 L78.5336534,149.544676 L79.4234006,149.544676 L80.3150052,149.544676 L81.6524122,149.099553 L81.6524122,148.652575 L83.4356216,149.099553 L83.8814239,148.652575 L84.3272262,147.319061 L85.6646332,145.536713 L87.8936449,145.536713 L89.6787117,146.428814 L90.1226565,147.317206 L88.7852495,149.097698 L88.3375897,149.540967 L87.8936449,150.433068 L88.3375897,151.770292 L89.6787117,151.770292 L91.9040084,150.878191 L93.2451304,150.878191 L94.5843949,150.434922 L95.474142,150.878191 L96.3620317,151.770292 L97.2554939,151.770292 L98.5947584,150.878191 L99.0405607,150.878191 L100.821913,153.103806 L101.265857,154.44103 L102.606979,155.778254 L103.050924,156.221523 L103.942529,156.662937 L103.496727,158.890407 L104.834134,160.227631 L104.390189,161.563 L104.834134,163.343493 L104.834134,165.123985 L105.278078,166.012377 L103.942529,168.239847 L103.496727,170.018485 L103.942529,170.465463 L103.942529,170.908731 L104.386474,172.691078 L104.830418,173.581325 L105.276221,175.361817 L106.169683,176.699041 L106.169683,177.144164 L107.061288,178.032556 L107.951035,178.479534 L108.396837,178.479534 L108.396837,177.144164 L108.396837,176.699041 L110.180046,178.032556 L110.180046,177.587433 L110.180046,175.808795 L110.623991,174.026448 L111.517453,172.692933 L112.405343,172.249665 L113.296948,172.692933 L114.634355,171.804541 L116.865224,172.249665 L118.200773,171.804541 L118.200773,172.249665 L118.646576,173.138056 L119.094236,173.138056 L119.53818,172.249665 L121.765335,171.804541 L123.550401,174.026448 L124.443864,174.026448 L124.887808,174.026448 L125.333611,174.026448 L125.775698,175.363672 L127.114963,175.808795 L129.791634,174.918549 L132.020646,173.583179 L132.910393,173.138056 L133.356195,174.026448 L134.244085,173.138056 L134.691745,173.583179 L135.581492,173.138056 L136.473097,172.696642 L137.812361,172.696642 L138.258163,171.804541 L138.702108,171.359418 L139.147911,171.804541 L139.593713,173.138056 L140.48346,174.028302 L141.376922,174.028302 L141.81901,175.365526 L142.710614,175.81065 L143.156417,176.257627 L144.046164,178.479534 L144.939626,177.589287 L145.829373,178.03441 L147.610725,179.816758 L148.056527,181.153982 L148.056527,182.044228 L148.056527,182.934474 L148.056527,183.822866 L148.948132,183.822866 L148.948132,184.269844 L148.948132,185.603358 L149.393934,186.046627 L150.733199,186.046627 L152.516408,185.603358 L152.516408,184.714967 L150.733199,183.375888 L150.733199,182.487496 L151.622946,182.040519 L152.066891,181.59725 L152.958495,182.040519 L152.958495,182.932619 L153.851957,183.375888 L155.189364,183.822866 L155.633309,184.267989 L156.523056,185.158235 L156.968859,186.044772 L156.523056,187.381996 L156.079112,187.828974 L153.404298,190.05088 L152.958495,190.942981 L152.51455,192.280205 L151.177143,192.280205 L150.731341,193.168597 L151.619231,195.392357 L151.619231,196.729582 L150.731341,197.621682 L150.285539,198.510074 L150.285539,198.953342 L150.731341,199.398466 L150.731341,200.290566 L148.946274,202.071059 L148.946274,203.404574 L148.502329,204.741798 L148.946274,205.188775 L149.839736,205.633899 L150.727626,205.188775 L152.065033,204.298529 L153.404298,204.741798 L154.29776,204.741798 L155.187507,204.741798 L155.187507,206.080876 L155.187507,207.412536 L155.187507,208.302783 L155.631452,208.747906 L155.631452,209.193029 L155.631452,209.640007 L155.631452,210.083275 L156.521199,210.526544 L157.414661,211.863768 L157.860463,213.199137 L157.860463,214.089383 L157.860463,214.536361 L155.185649,216.314999 L154.295902,217.205245 L153.8501,217.205245 L152.510835,217.205245 L151.617373,217.205245 L151.175286,217.648513 L149.837879,219.874129 L149.390219,220.317398 L149.390219,221.209498 L149.390219,222.546722 L149.837879,223.880237 L150.727626,223.880237 L151.171571,224.768629 L151.615516,225.215607 L149.836021,227.439367 L149.836021,227.884491 L150.723911,228.329614 L152.063176,227.884491 L152.952923,228.329614 L152.952923,228.774737 L153.846385,228.774737 L154.736132,229.21986 L154.292187,230.557084 L154.736132,231.002207 L155.625879,231.002207 L156.963286,231.002207 L157.856748,230.557084 L159.639958,230.110106 L162.762432,229.664983 L163.650321,229.221715 L164.987728,229.221715 L165.433531,229.221715 L167.218597,230.110106 L167.662542,229.664983 L168.554147,231.004062 L169.443894,231.445476 L172.120566,231.445476 L172.56451,232.333867 L173.454258,232.780845 L174.34772,232.333867 L177.914138,233.224113 L178.358083,233.669236 L179.699205,233.669236 L181.926359,232.780845 L182.372162,232.780845 L185.046976,232.333867 L186.384383,231.002207 L187.275987,229.21986 L188.165735,229.21986 L189.057339,229.21986 L190.394746,228.774737 L191.286351,226.994244 L192.176098,226.549121 L195.296714,226.549121 L195.744374,226.103998 L197.971528,225.658875 L198.861275,225.658875 L199.308935,225.215607 L201.094002,224.768629 L201.536089,224.768629 L201.536089,223.880237 L201.983749,222.099745 L202.871639,219.427151 L203.319299,216.758267 L203.319299,215.869876 L201.534232,215.422898 L201.090287,214.977775 L201.981892,213.64426 L201.981892,212.754014 L202.423979,211.863768 L203.765101,210.08513 L206.438058,208.747906 L207.329662,208.747906 L207.775465,207.85766 L208.219409,206.969268 L208.667069,205.635753 L209.112872,204.298529 L212.67929,202.072914 L213.569037,202.072914 L214.01484,200.73569 L214.458785,199.847298 L214.906444,199.847298 L216.243851,201.182667 L218.472863,202.072914 L220.256072,201.629645 L220.256072,202.072914 L220.701875,202.96316 L222.041139,203.853406 L220.701875,204.741798 L219.360753,206.080876 L219.806555,207.412536 L219.360753,209.194884 L219.806555,210.08513 L219.806555,210.973521 L219.360753,211.418644 L218.472863,209.641861 L217.135456,210.08513 L216.689654,210.973521 L217.135456,211.863768 L216.689654,212.310745 L216.689654,213.199137 L216.689654,214.536361 L215.348532,214.536361 L215.348532,216.316853 L214.906444,216.316853 L214.906444,216.760122 L216.689654,217.652223 L216.689654,218.542469 L214.906444,220.319252 L214.458785,222.101599 L214.906444,222.989991 L214.458785,223.882092 L214.906444,224.770483 L214.458785,224.770483 L213.569037,226.999808 L212.67929,227.439367 L212.23163,227.886345 L211.785828,230.111961 L212.67929,231.445476 L213.125093,231.445476 L215.796192,231.892453 L216.689654,231.892453 L217.581258,232.780845 L218.471006,234.565047 L219.358895,235.008315 L220.252357,235.896707 L220.69816,236.786953 L221.142105,239.014423 L220.69816,239.904669 L219.804698,241.685162 L218.467291,244.801024 L218.025203,245.248002 L218.025203,245.693125 L218.467291,247.915031 L219.357038,248.360154 L219.357038,249.699233 L220.2505,251.479725 L220.2505,251.926703 L219.357038,252.81324 L218.467291,255.042565 L218.467291,255.485833 L218.467291,255.932811 L219.357038,256.37237 L219.804698,255.483979 L220.2505,255.483979 L222.035567,256.37237 L223.371116,256.37237 L224.708523,256.37237 L226.939392,255.483979 L226.939392,254.595587 L228.274942,254.148609 L228.720744,254.595587 L229.168404,254.148609 L230.060009,254.148609 L231.397416,254.595587 L231.843218,255.04071 L232.285305,255.483979 L233.178768,257.264471 L234.516175,258.152863 L236.299384,259.044964 L237.190989,259.044964 L238.080736,259.044964 L238.528396,259.488232 L238.528396,260.376624 L239.865803,260.376624 L240.75555,259.937065 L241.645297,260.376624 L244.767771,264.829709 L244.323826,266.612057 L244.767771,267.500448 L245.659375,267.055325 L246.10332,267.500448 L246.55098,267.947426 L246.994925,266.608347 L247.440727,266.608347 L248.332332,267.947426 L248.332332,268.835818 L248.332332,269.280941 L248.332332,270.169332 L248.776277,270.169332 L250.115541,270.169332 L251.452948,270.61631 L251.900608,270.169332 L252.788498,270.169332 L253.2343,271.061433 L253.680102,271.061433 L254.571707,271.061433 L256.354916,271.061433 L257.692323,270.169332 L258.583928,270.169332 L259.921335,271.953534 L262.150347,273.287049 L263.041951,274.17544 L263.487754,274.622418 L264.825161,276.404765 L263.487754,277.293157 L262.596149,279.073649 L262.150347,280.412728 L263.041951,282.636489 L263.041951,282.189511 L263.933556,281.30112 L266.16071,280.857851 L265.714908,279.967605 L266.606512,279.524336 L267.945777,280.414583 L268.391579,280.414583 L269.279469,280.857851 L270.172931,281.30112 L274.627239,284.863959 L274.185152,285.754205 L275.522559,288.873777 L276.861824,289.31519 L275.970219,291.542661 L277.309483,292.432907 L278.199231,293.321299 L278.199231,294.20969 L277.309483,294.656668 L276.416021,295.992037 L275.524417,295.992037 L275.078614,296.43716 L277.755286,297.77253 L278.201088,298.662776 L279.088978,300 L279.088978,298.662776 L279.98244,297.327407 L282.211452,297.770675 L283.548859,296.880429 L284.886266,296.435306 L286.223673,294.207835 L287.117135,294.207835 L288.006882,294.207835 L290.681696,295.545059 L290.681696,295.992037 L291.571443,297.327407 L292.463048,297.770675 L292.90885,296.880429 L292.90885,295.992037 L292.463048,294.207835 L292.90885,293.321299 L294.248115,292.431052 L294.248115,291.985929 L295.585522,291.095683 L296.475269,291.095683 L298.260336,291.538951 L300.933292,292.431052 L303.162304,292.431052 L303.162304,291.538951 L304.053908,291.985929 L304.495996,292.431052 L304.943656,292.431052 L305.83526,292.431052 L305.83526,291.538951 L306.279205,291.095683 L305.83526,290.203582 L306.279205,289.31519 L307.61847,288.873777 L308.955877,289.762168 L309.845624,290.652414 L310.293284,290.652414 L310.739086,290.652414 L312.074635,291.542661 L317.424263,287.089575 L316.980319,286.199329 L317.424263,285.310937 L316.534516,284.869523 L315.646627,285.310937 L315.200824,283.975568 L315.200824,283.530445 L317.426121,282.193221 L317.426121,280.416437 L318.319583,279.079213 L318.319583,278.632236 L318.319583,277.743844 L319.658848,277.743844 L320.10465,277.296866 L320.10465,276.410329 L320.10465,275.518228 L320.10465,275.07496 L320.548595,273.737736 L319.658848,272.845635 L315.646627,271.51212 L316.090571,270.621874 L316.534516,268.839527 L318.319583,267.062744 L316.980319,264.39386 L316.090571,264.39386 L315.200824,264.39386 L314.30922,264.835274 L312.524153,264.39386 L312.524153,263.503614 L312.969955,262.166389 L312.969955,261.274289 L311.634406,260.385897 L311.188603,259.052382 L308.510074,253.70905 L308.066129,254.152319 L306.73058,254.152319 L305.391315,254.597442 L304.945513,251.483435 L304.497853,251.038311 L304.497853,249.255964 L303.609964,247.91874 L304.497853,247.030349 L304.945513,246.140103 L304.945513,245.248002 L305.837118,244.35961 L304.945513,243.026095 L305.391315,242.579118 L307.176382,243.026095 L308.064272,242.579118 L307.620327,241.690726 L306.73058,240.80048 L305.838975,239.908379 L304.497853,239.908379 L303.162304,239.021842 L304.497853,237.23764 L305.391315,236.349249 L305.837118,236.349249 L305.837118,234.125488 L306.28292,233.680365 L306.728722,232.790118 L306.728722,231.452894 L307.172667,229.674256 L308.062414,229.227279 L308.954019,228.78401 L309.845624,229.227279 L310.291426,228.78401 L310.291426,227.893764 L310.737228,227.448641 L311.183031,227.448641 L312.520438,227.005372 L312.964383,225.22488 L312.072778,224.779757 L311.630691,223.887656 L311.184888,223.444387 L311.184888,221.663895 L311.630691,221.220627 L313.857845,219.881548 L314.749449,218.549888 L314.749449,218.104765 L315.639197,216.767541 L315.639197,216.320563 L314.30179,214.985193 L314.30179,214.096802 L314.747592,213.204701 L316.083141,212.314455 L316.974746,212.314455 L317.418691,211.871186 L317.418691,210.98094 L317.418691,210.092549 L317.866351,209.202302 L318.312153,207.863224 L318.312153,206.974832 L318.757955,205.639463 L320.095362,205.19434 L324.109441,203.413847 L324.109441,200.744963 L324.553386,199.854717 L324.109441,198.07237 L325.44499,197.183978 L327.675859,197.183978 L329.903014,195.844899 L330.346958,195.844899 L330.792761,196.290022 L330.792761,198.070515 L331.686223,198.513783 L333.02363,198.960761 L333.917092,199.849153 L334.357322,199.849153 L335.250784,199.405884 L335.696586,198.960761 L335.696586,197.182123 L338.367685,197.625392 L338.815345,197.625392 L339.705092,198.513783 L339.261148,199.405884 L339.705092,200.296131 L339.261148,201.6315 L340.152752,202.519891 L341.044357,203.411992 L341.934104,202.519891 L342.378049,202.080332 L342.823851,201.190086 L342.823851,200.29984 L341.486444,200.29984 L341.930389,199.409594 L342.378049,198.962616 L341.486444,197.629101 L342.378049,196.291877 L343.265939,196.738855 L343.713598,195.846754 L344.159401,195.846754 L345.94261,195.846754 L346.388412,194.956508 L345.94261,193.624848 L345.94261,192.734602 L345.498665,190.9504 L345.052863,190.062008 L344.161258,190.062008 L343.715456,189.61874 L344.607061,188.728493 L344.607061,188.285225 L345.052863,187.393124 L345.498665,187.393124 L346.388412,187.393124 L346.8305,186.948001 L347.276302,186.057755 L347.276302,185.171218 L347.723962,184.726095 L349.063226,184.280972 L349.954831,183.835848 L351.736183,183.388871 L352.181985,182.500479 L353.967052,182.943748 L355.748404,181.166964 L355.300744,180.276718 L355.300744,178.939494 L355.748404,178.047393 L356.192349,176.713879 L356.638151,176.27061 L357.085811,175.825487 L357.531613,174.935241 L358.423218,174.935241 L358.867163,174.490118 L359.312965,174.490118 L361.096174,175.380364 L361.987779,176.27061 L364.660735,174.488263 L366,174.488263 L366,174.041285 L365.55234,171.372401 L362.879384,168.705372 L362.435439,168.260249 L361.987779,167.815126 L359.75691,166.032778 L360.202712,165.142532 L362.435439,161.581547 L361.987779,160.248032 L362.435439,158.910808 L363.325186,157.573584 L362.879384,155.347969 L359.755052,153.567476 L359.755052,152.675375 L360.200855,150.898592 L360.200855,150.006491 L358.42136,149.1181 L356.636294,148.671122 L355.297029,148.671122 L354.851227,148.671122 L353.963337,147.784585 L352.624073,148.229708 L352.17827,148.229708 L351.286666,147.784585 L350.396918,148.229708 L349.059511,149.1181 L348.613709,149.1181 L347.722104,146.894339 L347.276302,146.449216 L346.828642,146.449216 L346.386555,145.55897 L345.496808,144.2236 L345.938895,143.333354 L345.938895,142.890086 L345.496808,142.443108 L345.051005,142.443108 L344.159401,142.443108 L344.159401,141.554716 L344.159401,140.219347 L343.713598,139.774224 L345.94261,137.993731 L346.8305,137.10163 L348.171622,135.76997 L348.615567,134.430892 L349.063226,134.430892 L349.954831,135.322992 L350.396918,134.877869 L350.842721,132.652254 L351.734325,131.760153 L352.62593,130.424783 L352.180128,129.089414 L349.952974,129.97966 L349.061369,129.534537 L347.276302,128.642436 L345.49495,128.642436 L344.603346,129.534537 L344.157543,129.534537 L343.711741,129.089414 L344.157543,128.642436 L343.264081,128.201023 L342.820136,127.312631 L344.605203,125.530284 L342.820136,125.083306 L342.820136,124.180077 L341.928532,122.844708 L341.482729,122.39773 L341.040642,121.954461 L337.916311,117.948353 L337.470508,116.611129 L337.028421,115.27576 L333.014342,115.27576 L332.122738,115.27576 L331.678793,115.27576 L330.787188,115.720883 L329.895584,115.720883 L329.451639,114.383659 L330.341386,112.603167 L329.895584,111.71292 L328.558177,110.826383 L326.329165,110.826383 L324.544098,110.826383 L323.654351,110.826383 L323.208549,109.489159 L322.318801,109.489159 L320.979537,110.377551 L319.64213,110.377551 L318.752383,110.824529 L318.30658,111.265943 L317.414976,110.824529 L316.969173,111.265943 L316.079426,111.265943 L315.633624,110.824529 L315.633624,109.934283 L315.633624,109.489159 L315.189679,108.597058 L314.298074,109.042182 L313.40647,109.489159 L312.960667,109.489159 L312.069063,110.377551 L311.626976,109.489159 L311.626976,109.042182 L308.502644,110.826383 L308.056842,110.826383 L306.273632,108.597058 L305.382028,109.042182 L304.492281,106.818421 L304.048336,106.818421 L302.265127,108.15379 L301.371664,109.491014 L301.371664,110.379406 L300.925862,110.379406 L300.481917,110.379406 L299.59217,109.491014 L298.254763,110.379406 L297.361301,110.826383 L296.915499,110.826383 L296.025751,110.379406 L297.808961,107.708667 L297.808961,106.820275 L296.917356,105.037928 L297.363158,103.702559 L296.917356,103.25929 L296.473411,102.814167 L294.692059,100.588552 L292.906993,98.8080592 L292.459333,95.688488 L292.459333,93.9117049 L292.459333,93.4665818 L293.798597,92.1293577 L294.692059,92.5744808 L295.581807,91.6842346 L296.025751,90.3470106 L296.471554,88.5683728 L299.146368,87.6762718 L300.036115,85.0092425 L301.373522,83.2268953 L301.821182,81.891526 L302.710929,81.4482575 L301.821182,80.1110335 L299.59217,80.999425 L299.146368,80.1110335 L300.483775,78.3286863 L300.483775,77.8835632 L302.712786,75.6579476 L303.604391,73.8793098 L304.050193,70.3183249 L302.710929,69.4280786 L302.710929,68.9829555 L303.602534,67.202463 L304.048336,66.3122168 L304.048336,64.9768474 L304.938083,64.9768474 L305.829688,65.4219705 L306.273632,64.0866012 L306.273632,63.6396234 L306.719435,62.304254 L306.273632,60.9688847 L306.273632,60.5256162 L306.719435,60.0804931 L308.056842,60.0804931 L309.396106,59.6335153 L309.396106,58.7451237 L307.612897,57.8567322 L307.612897,56.5213628 L308.056842,55.1841388 L309.396106,54.7390157 L310.285853,53.8506241 L310.731656,52.9585232 L310.731656,51.6250085 L309.394249,50.7347623 L308.948446,50.7347623 L308.502644,50.7347623 L306.719435,50.7347623 L306.273632,50.2877845 L306.273632,49.844516 L305.829688,49.4012476 L306.273632,48.9561245 L305.382028,48.0658782 L301.369807,46.2853857 L299.142653,46.7305089 L297.805246,47.175632 L296.465981,47.175632 L294.238827,46.7305089 L293.793025,46.2853857 L287.548077,45.3969942 L286.65833,43.6165017 L285.32278,42.2792777 L283.091911,40.9420536 L283.091911,38.2713149 L283.091911,35.1573077 L281.310559,33.3749606 L276.403019,29.8139756 L274.619809,32.0414459 L272.392655,33.3749606 L271.051533,33.8200837 L270.163644,35.1573077 L268.380434,34.7103299 L263.472894,33.8219384 L262.583146,35.6042855 L261.247597,35.6042855 L255.004507,36.047554 L253.665242,36.4926771 L252.773638,36.047554 L251.885748,35.1591624 L251.885748,34.7121846 L253.6671,29.8158303 L251.439946,28.0353378 L250.100681,27.1469463 L249.654879,27.5920694 L246.08846,28.4804609 L244.747338,28.4804609 L243.859448,28.0353378 L243.859448,26.2529907 L242.967844,22.6938604 L240.294887,19.1328754 L239.403283,18.6877523 L237.620073,16.9035505 L239.403283,12.0090508 L238.959338,8.00294276 L238.067733,5.33220404 L235.391062,5.33220404 L234.948974,4.88522624 L234.501314,2.66332 L234.055512,3.10658844 L233.611567,3.55171156 L231.8265,5.33220404 L232.718105,7.1145512 L232.272303,7.55596496 L231.8265,8.44435652 L230.489093,9.78343524 L224.246003,16.4621367 L223.802058,16.4621367 L221.574904,13.791398 L221.127244,13.791398 L220.237497,13.791398 L218.010343,14.2346664 L216.671079,13.791398 L212.213055,14.2346664 L210.873791,13.791398 L209.538241,13.3462749 L209.538241,11.122514 L210.426131,11.122514 L214.886012,12.4560286 L214.44021,10.6755362 L214.44021,10.6866642 L213.979547,10.6866642 L213.535602,8.90431708 L213.535602,7.56894772 L214.425349,7.1238246 L214.425349,5.34147744 L214.871152,4.00796276 L214.871152,3.56283964 L214.425349,3.56283964 L213.535602,1.78049248 L210.413128,0.892100919 L209.967326,0 Z M224.038,8.76 L224.518,9.24 L224.998,9.72 L224.998,9.24 L224.998,8.76 L225.48,8.76 L225.48,9.24 L225.96,8.76 L225.962,8.76 L225.962,8.28 L224.038,8.76 Z M223,9 L223.400668,9.5 L223.400668,11 L223.799666,11.5020833 L224.599332,12 L225,11.5020833 L225,11 L224.599332,10.5020833 L224.198664,10.0020833 L224.599332,10.0020833 L224.599332,9.50208333 L224.599332,9.00208333 L223.799666,10.0020833 L223.799666,10.5020833 L223.400668,9 L223,9 Z" id="Fill-1" fill="#FFFFFF"></path>
        <g id="Group-5-Copy" transform="translate(187.000000, 111.000000)">
            <path d="M19.5007728,0 C30.2704791,0 39,8.72986684 39,19.5 C39,30.2701332 30.2704791,39 19.5007728,39 C8.73106646,39 0,30.2701332 0,19.5 C0,8.72986684 8.73106646,0 19.5007728,0 Z" id="Stroke-1" stroke="#E75F52"></path>
            <path d="M19.5,13 C23.0899976,13 26,15.910354 26,19.5007853 C26,23.089646 23.0899976,26 19.5,26 C15.9100024,26 13,23.089646 13,19.5007853 C13,15.910354 15.9100024,13 19.5,13" id="Fill-3" fill="#E75F52"></path>
        </g>
    </g>
</svg>