<?xml version="1.0" encoding="UTF-8"?>
<svg width="295px" height="300px" viewBox="0 0 295 300" version="1.1" xmlns="http://www.w3.org/2000/svg" xmlns:xlink="http://www.w3.org/1999/xlink">
    <!-- Generator: Sketch 64 (93537) - https://sketch.com -->
    <title>19</title>
    <desc>Created with Sketch.</desc>
    <defs>
        <polygon id="path-1" points="0.5 0 294.5 0 294.5 300 0.5 300"></polygon>
    </defs>
    <g id="19" stroke="none" stroke-width="1" fill="none" fill-rule="evenodd">
        <g id="Group-3">
            <mask id="mask-2" fill="white">
                <use xlink:href="#path-1"></use>
            </mask>
            <g id="Clip-2"></g>
            <path d="M117.381311,56.2004817 L113.993325,55.5060999 L111.653004,53.7413127 L112.233442,50.4562137 L115.041588,46.2328582 L119.833647,43.6427417 L125.692538,41.5403745 L134.584203,39.3064591 L139.60089,35.4393047 L144.168321,29.8079638 L147.331679,31.6850774 L147.331679,30.5029463 L144.748759,28.1561038 L145.103971,23.8204218 L145.103971,7.97758276 L150.25184,3.99810186 L157.046979,2.70304363 L162.887301,1.76418647 L166.631097,0 L168.147185,3.05984539 L168.615009,4.82403186 L167.810543,6.10046913 L167.810543,8.10913088 L168.502995,9.38556815 L170.150265,9.38556815 L171.310543,10.6806264 L171.666353,11.9756846 L172.602601,13.1397954 L174.006076,13.1397954 L175.410149,11.3942299 L178.33031,10.4553727 L179.846397,10.3238246 L180.090193,11.73181 L180.782646,11.73181 L180.913829,12.4454135 L181.962091,12.9145418 L182.074106,17.6070255 L182.541931,19.1273374 L184.189201,19.371212 L184.994267,20.178521 L187.333989,19.1273374 L188.157625,20.0661945 L189.561698,19.8409409 L191.433596,22.0556346 L191.321581,26.1666637 L192.145216,26.1666637 L192.837669,25.0025529 L199.389012,24.6463518 L203.132808,27.5746491 L203.600633,28.5129055 L201.841349,29.8079638 L201.841349,31.4412028 L201.26091,32.0418792 L203.488619,32.6239346 L203.844429,34.8578499 L201.504107,36.2652347 L201.616721,37.4293454 L206.40878,37.4293454 L208.05605,38.7244037 L209.460123,38.142949 L212.024474,37.317019 L213.428547,36.3781618 L213.428547,34.9701764 L213.428547,33.9189928 L214.47681,32.8491882 L215.655656,31.1036227 L217.41554,31.1036227 L217.883365,31.4412028 L217.883365,33.562191 L216.591905,34.7263018 L217.41554,35.4393047 L216.947715,36.6034154 L216.591905,37.8984737 L218.463803,39.0812054 L218.463803,40.1323891 L217.995978,40.6015173 L218.220606,43.3045609 L221.964402,43.7742899 L223.031234,44.4686717 L223.611672,45.9889836 L226.887044,46.3457854 L227.823293,47.0587882 L228.291118,49.4050301 L229.807205,49.6302837 L230.743454,50.5691409 L231.211278,52.8030562 L231.922899,52.8030562 L232.615352,52.0894527 L234.599264,51.9771262 L236.003337,50.6814673 L238.69887,50.6814673 L240.813965,53.0283099 L242.685863,53.0283099 L243.378915,53.7413127 L245.362827,53.7413127 L245.718638,53.159858 L247.122711,51.9771262 L248.881996,51.8641991 L250.510697,53.2721845 L251.690142,53.2721845 L252.045353,53.0283099 L253.20623,53.0283099 L255.658566,54.210441 L256.837412,55.3745517 L256.950026,58.1905225 L258.597296,58.9035254 L258.597296,60.5367644 L259.289748,60.780639 L260.469194,63.0145544 L262.453106,62.7706798 L262.56572,61.3626944 L264.21299,60.6677118 C264.343574,60.7451991 265.405015,61.3626944 265.953705,61.3626944 C265.965685,61.3626944 265.995037,61.3620937 266.010012,61.3626944 C266.012408,61.3626944 266.026784,61.3626944 266.028581,61.3626944 L266.066319,61.3813154 C266.080096,61.3855201 266.105254,61.3933289 266.122026,61.3999363 C266.145388,61.4101478 266.177135,61.4275674 266.196902,61.4377789 C266.703063,61.7200968 267.27871,62.7394446 267.357779,62.8830063 L268.537224,63.7089363 L272.505648,63.5966098 L274.152918,62.0756972 L276.960466,61.8318226 L277.784101,63.1268809 L280.123823,64.5348663 L280.928889,65.698977 L281.172086,65.6238925 L283.399795,65.0039945 L284.672685,65.0039945 L285.608934,66.0551781 L287.368218,65.0039945 L289.951737,66.2990527 L292.871898,66.6372335 L294.5,67.9322918 L292.871898,68.2890935 L291.823635,71.1044636 L292.048263,73.0945044 L291,74.145688 L290.063751,74.145688 L288.884306,75.6852216 L288.884306,77.0926063 L285.852131,79.3079007 L285.49632,83.3060026 L284.092247,87.8861598 L284.448058,91.2835853 L281.396714,97.271728 L281.527897,101.025955 L282.688773,102.659194 L281.64051,104.179506 L281.64051,106.525748 L281.060072,107.933733 L281.060072,110.880652 L280.123823,112.157089 L280.928889,114.034203 L282.464145,115.79899 L281.2847,117.319302 L281.172086,119.910019 L278.944977,121.674205 L274.620743,121.787132 L273.797108,121.073529 L274.040305,119.797092 L271.101575,120.26622 L268.0688,123.776572 L268.181414,124.245701 L270.988961,123.664246 L271.812596,124.490176 L270.296509,126.36729 L269.005049,126.948744 L269.585487,128.35673 L265.841691,132.693012 L264.21299,133.518942 L264.081807,135.752257 L262.453106,137.27317 L260.693822,138.0991 L258.129471,139.375537 L258.354099,145.006878 L251.109704,151.82035 L250.978521,152.64628 L252.157967,153.116009 L250.398083,155.218376 L250.173455,157.676944 L252.382595,158.859676 L252.625792,159.554058 L250.866507,161.787973 L251.577529,162.257101 L251.446346,163.439833 L249.34982,163.665087 L247.946346,164.491017 L247.946346,166.724932 L251.802156,166.724932 L253.318244,165.316947 L255.658566,163.778014 L254.385675,162.72683 L254.254493,161.675647 L255.433938,159.08493 L256.725398,158.972603 L257.41785,160.023787 L260.001369,157.92142 L262.677734,157.451691 L266.665326,157.451691 L266.77734,158.972603 L268.892435,161.205918 L268.892435,162.839157 L267.600976,164.247142 L267.713589,165.185399 L269.940698,166.255804 L269.940698,168.00137 L269.940698,169.071174 L270.764333,168.602046 L273.329283,171.286469 L273.57248,173.876585 L273.104655,175.040696 L269.117063,176.692556 L269.061355,178.73846 L269.005049,180.672037 L270.764333,182.680098 C270.764333,182.680098 272.505648,182.553956 272.973473,182.436223 L272.992042,182.436223 L273.010611,182.436223 L273.029779,182.436223 L273.029779,182.454844 L273.048348,182.454844 L273.066918,182.474066 C273.074705,182.483677 273.095071,182.514311 273.104655,182.529929 C273.405956,183.176256 273.21667,186.772506 273.21667,186.772506 L276.380027,188.649619 L276.848451,190.301479 L278.364539,190.883535 L276.717269,193.698905 L277.316276,194.637762 L276.960466,196.627202 L273.909122,197.809934 L273.329283,198.504316 L271.812596,199.330246 L271.700582,200.738231 L270.409122,200.738231 L269.117063,199.912301 L265.617063,201.320287 L265.654202,201.395371 L266.42153,203.084473 L267.020537,204.267205 L268.761852,204.84926 L269.229677,208.359012 L272.28102,209.898546 L273.909122,209.654671 L275.201181,210.123799 L275.556392,213.521225 L277.185093,214.347155 L277.185093,215.398339 L275.912203,215.286012 L274.508129,216.806324 L274.845371,218.458184 L272.748845,220.692099 L272.28102,221.743283 L272.860859,223.263595 L274.040305,223.620397 L274.976553,224.446327 L273.329283,224.67158 L273.329283,227.017822 L275.78102,228.538134 L275.78102,230.659122 L277.540904,230.659122 L280.592247,231.485052 L283.624422,233.944221 L285.384306,233.944221 L290.887387,231.954781 L292.628102,231.823233 L293.096526,233.362166 L293.695533,234.413349 L294.032175,236.178137 L293.339723,238.749632 L290.756204,239.575562 L291.112014,241.340349 L289.35273,242.860661 L290.531576,245.563705 L288.416481,246.840142 L288.304467,248.1352 L286.207941,248.1352 L283.867619,250.256188 L281.172086,250.481442 L281.060072,254.123343 L279.880626,253.879468 L279.056991,254.949273 L276.717269,254.480145 L276.604655,257.163967 L274.620743,259.397882 L271.232757,259.86701 L270.988961,261.744124 L270.053312,263.039783 L268.181414,264.203293 L270.63375,264.090966 L270.63375,267.150211 L268.761852,267.95752 L267.133151,267.488392 L266.42153,268.558197 L263.969793,268.558197 L263.033544,269.365506 L262.808917,270.904438 L261.985282,271.486494 L261.404843,270.773491 L260.693822,270.548237 L258.933938,269.966182 L257.41785,271.017366 L257.661047,272.537677 L258.354099,273.251281 L255.545952,273.119733 L256.725398,272.537677 L256.837412,271.599421 L253.20623,271.242619 L251.109704,272.537677 L249.930258,273.363607 L248.638799,273.119733 L248.05836,270.773491 L245.961835,269.834634 L245.362827,269.027325 L242.55528,268.089068 L236.826972,268.089068 L237.538593,267.263138 L238.006418,266.080407 L235.422899,265.96808 L237.294797,264.334841 L236.939586,263.265036 L235.198271,263.978039 L228.515745,263.865713 L227.467482,261.631797 L225.239774,260.69294 L223.8363,261.857051 L225.951395,263.865713 L221.964402,264.560095 L216.947715,263.508911 L218.107992,261.51887 L219.867876,261.51887 L218.931628,260.580614 L214.008386,260.223812 L210.302328,260.055022 L208.861116,259.979937 L206.184152,260.111486 L206.184152,257.764643 L204.38713,257.633696 L202.776998,257.520768 L198.808574,260.336739 L192.481859,265.386025 L191.433596,266.681083 L188.157625,266.79401 L187.6898,267.845194 L183.478179,269.140252 L183.403303,269.77817 L183.253551,271.017366 L182.074106,272.180876 L180.314821,273.588861 L178.33031,271.711747 L177.39466,273.251281 L178.573507,274.996846 L179.97758,274.883919 L179.846397,278.751074 L179.940442,282.111257 L180.202208,292.359997 L181.849478,293.073601 L182.785727,294.368659 L182.785727,296.245773 L180.913829,296.114225 L179.378573,294.480986 L176.926237,294.480986 L175.166952,295.063041 L174.006076,296.583353 L170.486907,297.409283 L170.374893,299.061143 L169.682441,299.399324 L168.858805,298.817268 L168.03517,298.817268 L167.098922,300 L163.822951,297.184029 L159.96714,295.888971 L157.514804,296.358099 L155.511723,298.817268 L154.108249,299.061143 L152.236351,297.409283 L152.123738,295.306916 L148.623139,294.368659 L146.863854,292.716799 L146.657796,291.477604 L146.283416,289.319374 L141.135547,288.60577 L139.376262,289.319374 L137.391751,286.146601 L132.356495,286.391076 L130.371984,283.800359 L128.837327,283.800359 L125.224713,283.105977 L124.587969,282.749176 L122.17337,281.34119 L120.544669,281.097316 L120.301472,286.860205 L115.546551,286.541245 L113.281705,286.391076 L112.233442,285.921347 L111.409807,287.329333 L109.182098,286.728656 L107.553996,284.851543 L103.697587,286.503403 L102.16293,286.503403 L100.291032,284.983091 L100.066404,283.575106 L97.7260825,281.810919 L95.7421701,280.628187 L95.4426664,280.796977 L93.4024474,281.923246 L92.3350163,282.505301 L91.7551771,281.923246 L90.5943009,282.16712 L89.302841,282.862103 L88.1233955,281.454117 L85.0912203,279.107875 L84.8474243,276.648706 L80.4111758,276.648706 L77.7156426,274.996846 L74.9080952,274.527718 L73.9718467,273.251281 L71.8753209,273.251281 L71.0516858,272.068549 L71.1642992,270.548237 L70.1160363,271.711747 L69.7602259,273.476535 L67.8883279,272.894479 L66.840065,271.711747 L66.9520794,270.660564 L68.5993496,269.834634 L68.5993496,267.61994 L69.4044155,266.906337 L69.0677734,265.498351 L67.6637002,265.14215 L65.4359918,264.203293 L64.968167,265.273098 L63.3208968,265.14215 L63.2082834,263.621238 L61.1117577,263.508911 L59.7082834,262.213853 L59.7082834,260.918194 L61.224371,260.69294 L63.3208968,259.86701 L66.0164299,256.582512 L66.5028239,255.718739 L68.2441383,252.715357 L68.9365908,249.899987 L69.7602259,245.901285 L72.455759,235.57746 L74.5427007,224.371242 L74.5522848,221.630356 L75.8437447,219.866169 L76.0869416,218.101382 L77.2478179,217.632254 L77.7156426,218.345257 L80.6358035,218.214309 L79.943351,217.275452 L79.700154,216.58107 L77.3598323,214.460082 L75.7317303,216.58107 L74.9080952,219.284114 L75.0201095,217.275452 L76.0869416,209.541744 L77.6036283,199.57412 L78.1834674,189.719424 L80.0553654,186.904054 L81.2348109,187.01638 L81.1036283,189.475549 L87.0751326,194.881637 L88.7224029,201.320287 L89.302841,204.135657 L89.8832791,203.1974 L89.6586514,199.799374 L88.8350163,196.401949 L88.6660962,195.651103 L87.7867534,191.596538 L84.0429574,187.84231 L82.7508985,187.598436 L82.6388841,186.434325 L80.9916139,185.496069 L78.5392778,183.487407 L77.1352045,183.618955 L76.8920075,181.028238 L76.4241828,178.456742 L76.199555,176.222827 L73.5040219,174.233387 L73.7472189,170.122358 L75.3759199,172.112399 L77.3598323,172.356273 L77.6036283,175.171643 L78.1834674,175.641372 L78.5392778,176.448081 L77.4910149,177.856066 L77.7156426,178.794923 L79.3629129,178.794923 L79.0071025,178.212868 L78.8950881,176.579629 L80.2991614,176.692556 L80.8790005,174.101839 L79.8307376,172.581527 L80.2991614,171.887145 L81.7026356,172.112399 L81.815249,170.81674 L80.7669861,170.347611 L80.1679788,168.714372 L78.5392778,168.358171 L78.071453,167.306988 L75.6191169,167.419314 L74.327657,166.368131 L72.6803868,165.316947 L71.0516858,165.316947 L69.7602259,163.439833 L71.7441383,162.72683 L73.1482115,163.665087 L73.3914085,164.847819 L75.7317303,165.073072 L76.6673798,166.124256 L78.4272634,165.899002 L78.6518912,164.716271 L80.5237891,163.195959 L79.6624166,162.407271 L79.0071025,161.787973 L78.8950881,163.439833 L76.3115694,162.144775 L75.1512921,160.379988 L72.5677734,160.379988 L71.5195105,158.033746 L68.8239774,158.033746 L66.4842547,155.687504 L64.1445319,154.523393 L61.9168235,147.822248 L60.8685607,147.822248 L60.9811741,146.771064 L57.3679617,143.260712 L57.480575,140.445341 L61.0368817,135.846563 L58.0610132,132.936887 L55.4960637,133.406015 L55.2528667,131.641829 L56.6569399,131.641829 L57.9483998,130.34677 L57.480575,129.295587 L57.3679617,128.112855 L59.4644874,127.061671 L57.480575,127.061671 L55.9644874,128.713531 L53.8487934,128.713531 L52.5573336,127.061671 L52.3327058,127.999928 L50.1049974,127.5308 L48.8135376,126.836418 L49.9929831,125.184558 L49.5251583,124.245701 L49.0567346,123.776572 L51.2844429,121.787132 L50.5734212,121.289172 L50.3487934,120.135272 L51.1532603,119.44029 L49.5251583,119.084089 L43.1978436,119.665543 L42.1495807,118.032905 L40.7455074,117.563176 L41.6817559,116.381045 L43.4410406,117.206975 L44.9577272,117.676103 L45.5375663,116.737246 L44.3772891,115.329861 L42.8612014,114.97306 L43.1978436,115.79899 L41.5691426,116.042864 L40.2776827,114.278678 L40.9893034,115.911316 L40.2776827,117.094048 L38.7615951,115.79899 L38.4057847,114.97306 L37.93796,116.381045 L36.5338867,116.042864 L36.5338867,118.145232 L37.2455074,119.084089 L36.5338867,119.910019 L35.1304125,118.858835 L35.3736094,117.319302 L35.5982372,115.79899 L34.9057847,114.503931 L32.7900907,112.401564 L31.1619887,111.687961 L31.4986308,110.411523 L30.8061783,111.462707 L28.9342803,110.993579 L27.5769297,108.825137 L26.0141195,108.759663 L24.0110388,108.402862 L23.205973,107.239352 L23.0753894,107.933733 L19.7994181,107.70848 L18.2833305,105.249311 L17.8149067,103.24125 L17.8149067,105.249311 L16.6546295,105.474564 L14.7827315,104.423381 L13.7158994,104.536308 L12.6676365,104.06718 L13.7158994,105.474564 L13.1354612,106.525748 L10.4399281,106.657296 L7.98759199,106.188168 L8.81122711,104.536308 L8.23078898,101.495083 L5.75988362,98.6797134 L4.243796,98.7920398 L3.19553312,97.8537834 L1.90407325,97.9661098 L0.743196988,97.271728 L1.54826288,96.2019234 L5.53525586,95.9766697 L7.87557761,95.619868 L9.27905186,95.619868 L10.7957385,95.7327951 L11.5067602,94.4563579 L11.0389355,92.5792442 L9.85948999,92.3347689 L7.40715386,90.9273842 L6.11569399,92.9168243 L5.53525586,93.3859526 L5.64786925,90.2324017 L3.55134349,89.5193988 L5.1800445,87.6422852 L7.87557761,88.9373434 L10.102687,89.5193988 L12.9108335,89.6317253 L13.0228479,88.9373434 L10.4399281,88.825017 L10.9077529,87.173157 L8.56803012,88.2243406 L8.34340236,87.0602298 L10.9077529,84.6010608 L7.98759199,86.7034281 L3.55134349,87.2854835 L3.19553312,86.8163552 L2.48451138,87.5293581 L0.612613384,87.2854835 L1.08043813,84.713988 L0.5,83.6628043 L2.371898,82.1232708 L0.967824748,81.0720872 L2.61509499,79.0826471 L5.75988362,78.9697199 L6.00367962,77.5623352 L6.93932911,77.0926063 L7.76296423,77.6746617 L9.63486223,77.5623352 L9.63486223,76.7364052 L12.3118261,76.3796034 L12.5550231,77.6746617 L14.0711107,77.3178599 L14.5395345,76.1543498 L17.1224542,75.9104752 L18.5265275,76.4919299 L19.7994181,75.0839445 L20.0426151,77.7875888 L21.4466883,77.5623352 L21.6713161,78.6135188 L22.6069656,78.6135188 L22.6069656,76.2666763 L25.8829368,76.1543498 L27.84828,77.2992389 L29.5147185,75.0839445 L28.57847,73.8075073 L31.0308061,72.1556473 L32.9027041,73.5636327 L33.5017114,72.7377027 L36.1786753,72.4001225 L37.2455074,71.5741925 L37.93796,73.2068309 L38.2937703,72.0433208 L40.6334931,72.0433208 L40.5214787,73.338379 L41.7937703,73.4513062 L41.6817559,75.3284198 L43.3290262,75.6852216 L43.3290262,77.6746617 L45.5375663,79.3079007 L45.3129386,81.4288889 L47.7652747,82.5929997 L47.7652747,84.713988 L48.7015232,84.713988 L48.7015232,83.5312562 L53.0251583,81.1850143 L53.7367791,79.7770289 L55.8333048,80.1338307 L57.2373781,79.0826471 L57.2373781,81.4288889 L58.0610132,80.4906325 L59.2398597,80.8468335 L59.352473,82.4800726 L60.7565463,82.3677461 L60.9811741,81.0720872 L63.2082834,81.3165624 L63.9570426,80.4714108 L65.0801814,79.1949735 L67.8883279,79.3079007 L66.4842547,81.1850143 L68.5993496,82.4800726 L74.3462263,82.4800726 L76.5553654,82.4800726 L77.828256,81.8980172 L77.6036283,80.7158861 L75.0201095,80.1338307 L73.3914085,75.9104752 L74.9080952,72.8692508 L74.9080952,69.5841518 L73.5040219,66.7687816 L73.5040219,62.5454261 L72.9235838,61.7194962 L72.3431456,59.0158518 L69.6476125,55.9752281 L68.8239774,54.0981145 L69.0677734,51.8641991 L68.711963,51.6203245 L68.1315249,51.0382691 L69.0677734,49.874759 L69.0677734,47.2840418 L66.596868,45.2946017 L67.0646928,44.11187 L71.4074961,45.4069282 L74.4396714,47.396969 L77.1352045,45.5198554 L82.1710594,45.76373 L83.3313366,48.9359018 L82.0398768,48.9359018 L81.1036283,51.2821437 L84.1549718,54.9054235 L84.2675851,57.7207936 L85.3715557,57.4396771 L88.8350163,56.5572835 L91.0621256,57.7207936 L100.646842,59.128779 L104.633835,61.3626944 L109.650522,59.3726536 L114.10534,56.7825371 L116.83861,56.2941873" id="Fill-1" fill="#FFFFFF" mask="url(#mask-2)"></path>
        </g>
        <g id="Group-5-Copy" transform="translate(147.000000, 131.000000)">
            <path d="M19.5007728,0 C30.2704791,0 39,8.72986684 39,19.5 C39,30.2701332 30.2704791,39 19.5007728,39 C8.73106646,39 0,30.2701332 0,19.5 C0,8.72986684 8.73106646,0 19.5007728,0 Z" id="Stroke-1" stroke="#E75F52"></path>
            <path d="M19.5,13 C23.0899976,13 26,15.910354 26,19.5007853 C26,23.089646 23.0899976,26 19.5,26 C15.9100024,26 13,23.089646 13,19.5007853 C13,15.910354 15.9100024,13 19.5,13" id="Fill-3" fill="#E75F52"></path>
        </g>
    </g>
</svg>