<?xml version="1.0" encoding="UTF-8"?>
<svg width="214px" height="300px" viewBox="0 0 214 300" version="1.1" xmlns="http://www.w3.org/2000/svg" xmlns:xlink="http://www.w3.org/1999/xlink">
    <!-- Generator: Sketch 64 (93537) - https://sketch.com -->
    <title>20</title>
    <desc>Created with Sketch.</desc>
    <defs>
        <polygon id="path-1" points="0 0 214 0 214 299 0 299"></polygon>
    </defs>
    <g id="20" stroke="none" stroke-width="1" fill="none" fill-rule="evenodd">
        <g id="Group-3">
            <mask id="mask-2" fill="white">
                <use xlink:href="#path-1"></use>
            </mask>
            <g id="Clip-2"></g>
            <path d="M9.68130148,209.638877 L9.74551624,209.664391 C10.0027869,209.771795 10.1583842,209.813357 10.2728182,209.818707 L10.2728182,210.011704 C10.0530061,209.935575 9.87723882,209.782905 9.68130148,209.638877 M9.65578024,180.20325 C9.67224556,180.204073 9.69035741,180.202015 9.70682273,180.20325 L9.70682273,180.216006 C9.69118068,180.212303 9.67265719,180.205719 9.65578024,180.20325 M116.770112,58.3452406 C117.105182,59.334919 117.159517,60.1287192 116.358479,60.9044131 C116.337074,60.9328072 116.316081,60.9558517 116.294265,60.9813652 C116.387294,60.6476317 116.45192,60.2735703 116.770112,59.8756414 C117.029853,59.550961 116.932707,58.9143571 116.770112,58.3452406 M185.024225,39.5956704 C184.531912,39.6417594 184.186964,40.4158072 183.930516,40.5088082 C183.063205,40.9820432 183.11466,44.5337746 184.123572,43.415294 C184.566901,44.0062205 184.672279,44.7868524 184.946838,45.4728374 C185.271205,46.283098 185.71865,44.2383114 186.3361,43.6210483 C187.243339,42.7136717 187.041227,44.2251431 187.776816,44.8555744 C188.600082,45.5609003 187.216583,46.9085912 187.159366,47.1188722 C186.95355,47.8731676 185.649908,46.7073635 184.895384,46.5016091 C184.570606,46.4127233 185.284377,48.8323943 185.307017,48.9706612 C185.462203,49.9023169 186.832941,50.0381148 187.365183,50.4109416 C187.807276,50.7199847 189.726721,50.0735045 190.246614,49.999433 C192.163178,49.7253682 190.940216,49.479286 191.893146,48.7649069 C191.923195,48.7422739 192.477665,46.2324825 192.510596,46.0901005 C193.349916,45.9374307 190.452019,43.8449091 190.246614,43.6210483 C189.850623,43.1889642 189.148789,43.2095397 188.600082,43.0037853 C188.134525,42.8544077 187.813039,42.1046388 187.159366,41.3577506 C186.5024,40.6063357 186.118346,40.3939972 185.564288,39.8401066 C185.364646,39.6405248 185.188055,39.5804446 185.024225,39.5956704 M122.635884,25.4117891 C122.135749,25.454586 121.436385,26.1846024 121.09226,26.3376836 C120.308922,26.68582 120.679803,27.9870104 120.47481,28.8067357 C120.428295,28.9923261 122.233306,29.7832458 122.327159,29.8355074 C122.736734,30.0630717 123.449682,31.8922278 123.562058,32.0988052 C123.929646,32.7716219 123.836617,30.5898028 123.973691,29.8355074 C124.009091,29.6404523 125.306147,29.6774881 126.07055,29.6297531 C127.490684,28.5647686 125.185127,27.9359833 124.796957,27.160701 C124.354452,26.2759573 123.592107,26.0895439 122.944608,25.5146662 C122.857342,25.4368911 122.751552,25.4015014 122.635884,25.4117891 M74.371907,25.5146662 C74.3323902,25.5739235 74.2850524,25.6525216 74.2434775,25.7331774 C74.3912538,25.7270047 74.4645244,25.6763892 74.371907,25.5146662 M72.1980728,25.3089119 C71.734574,25.40932 72.8797372,26.7232672 73.1370078,27.3664553 C73.3860458,27.9886564 73.8511912,26.4854152 74.2434775,25.7331774 C74.0236654,25.7422305 73.6157371,25.6315347 73.2012226,25.5146662 L74.371907,25.5146662 C74.605303,25.1648839 73.6902427,25.4179617 73.1370078,25.4887412 C72.8245783,25.4006783 72.5228513,25.3294873 72.3137417,25.3089119 C72.2676388,25.3039738 72.2289453,25.3019162 72.1980728,25.3089119 M172.970786,23.7011475 C173.034589,23.7562896 173.097569,23.818839 173.163842,23.8686315 C174.103189,24.5727229 173.78335,24.5760149 174.604558,25.5146662 C175.144209,26.1311062 174.926455,27.2857996 175.016191,27.777964 C175.159439,28.5647686 174.192925,26.405994 173.781292,25.7204206 C173.258518,24.8484337 173.008245,23.8332418 172.970786,23.7011475 M68.1204357,23.0838844 C68.0879167,23.0822384 68.0500464,23.0879995 68.0175274,23.0970527 C67.4540018,23.2505455 66.8884179,24.7657204 66.7566954,24.8974032 C66.022342,25.6315347 67.1399257,25.5677509 67.5799615,26.3376836 C68.0237019,27.113789 69.0894199,25.3772223 69.8439433,24.8974032 C70.5733571,24.8974032 68.8836034,23.7999096 68.4032276,23.2513685 C68.3101985,23.1447877 68.2179927,23.0892341 68.1204357,23.0838844 M173.447045,18.0943416 C172.811896,18.1437227 172.12241,18.3428929 171.928943,18.3132643 C170.487815,18.0914611 170.631064,19.3222836 170.076594,19.7535447 C169.653847,20.0823401 169.390402,20.576562 169.047511,20.9880707 C167.764451,22.5275247 169.358706,21.7658221 169.459144,22.0168424 C169.725471,22.6814289 170.831117,22.4283511 171.51731,22.6341054 C171.993157,22.7764875 172.35416,23.1345 172.726688,23.4826364 C172.323699,23.4990967 171.607457,24.5628467 171.105677,24.8974032 C170.618303,25.2224951 170.007851,24.4858945 169.459144,24.2801402 C168.749489,24.0138941 168.1448,25.4298955 167.812612,25.7204206 C167.28531,26.1817218 168.735905,27.56686 168.841695,27.777964 L169.870777,29.8355074 C170.30752,30.7083173 168.714089,30.9918468 168.430062,31.2757878 C167.829901,31.875356 168.841695,32.9218226 169.047511,33.7448399 C169.480549,35.4756455 169.561229,34.3316513 170.488227,35.3908747 C170.602661,35.5209114 172.870759,36.1237716 173.163842,36.213892 C175.180844,36.8340356 174.095368,35.4892252 175.016191,34.7736116 C175.650106,34.2806242 175.564898,33.2646093 175.839457,32.5103139 C177.868396,31.1482201 178.142132,31.2897791 179.338338,32.3045595 C180.043465,32.6061954 179.063779,33.8131504 178.926705,34.5678573 C178.789631,35.3221527 180.973756,35.0275125 181.319528,34.3361779 C181.50147,34.032896 182.566776,32.9991862 182.631402,32.9218226 C182.807993,32.7098956 181.918866,30.9626297 181.808136,30.6585248 C181.63525,30.1832323 180.227054,29.2532226 179.955787,29.0124901 C179.099179,28.251199 179.046078,27.7133571 178.515072,26.9549466 C177.67287,25.7521068 179.486526,25.0130372 179.749971,24.4858945 C180.452217,23.0818269 178.684665,22.9645469 178.309255,22.4283511 C178.226105,22.3094251 176.510419,22.1012017 176.045273,22.0168424 C174.542401,21.7431891 175.119922,21.3226273 174.398741,20.7823164 C173.847153,20.3687501 174.535815,19.4103464 174.604558,18.7247729 C174.662598,18.1453687 174.082195,18.0449606 173.447045,18.0943416 M61.2897967,17.3359311 C61.0461099,17.2754394 60.8225931,19.0930732 60.5821994,19.7535447 C60.2224321,20.743223 60.8291793,20.9880707 60.9938325,21.8110881 C61.1148526,22.4160058 62.2287317,21.8110881 62.8461813,21.8110881 C63.3994161,21.8110881 63.8069328,21.2621355 64.286897,20.9880707 C65.1430938,21.4547216 62.7778502,19.7535447 62.0229151,19.1362816 C61.5692955,18.7651008 61.6112821,18.038788 61.4054655,17.4902469 C61.3704767,17.3960114 61.3243738,17.3441613 61.2897967,17.3359311 M65.6247044,16.3968683 C65.5946552,16.3927532 65.5617246,16.3997489 65.5217962,16.4100366 C65.0434785,16.5330777 63.8752639,17.5931241 63.2578143,17.9017556 C62.4892954,18.2861047 64.7672728,18.7247729 65.5217962,19.1362816 C66.2470936,19.53133 65.6592816,17.4902469 65.7276127,16.6672295 C65.7584852,16.4972764 65.7148521,16.4104481 65.6247044,16.3968683 M194.337423,57.0333509 C194.80298,57.8296202 193.958721,54.6511271 194.337423,57.0333509 M68.7634065,10.2499952 C67.6482926,10.2283531 68.6106907,12.3385697 68.6090441,12.3463883 C68.4316303,13.2336011 69.994601,14.4240957 70.2555764,14.8154404 C70.8121043,15.6495686 70.5165517,16.640893 70.6672094,17.6960012 C70.8244533,18.7951409 70.6672094,19.7642439 70.6672094,20.576562 C70.6672094,21.548134 71.7440415,21.5333197 72.5195582,22.2225968 C73.2374463,22.8604352 74.0866453,23.2192708 74.7835401,23.6628772 C75.5183051,24.1299395 75.0836206,25.7607484 75.1951731,26.543438 C75.3989315,27.968904 74.4579383,28.0178736 73.9602739,29.0124901 C73.6128556,29.7075282 72.0605874,29.6453904 71.4904756,29.8355074 C70.6001133,30.1322052 69.6418315,30.6881534 68.8148607,31.0700335 C67.8536975,31.5132283 67.6816348,32.3444759 67.1683284,32.9218226 C66.5920421,33.5699487 67.7174469,34.5678573 67.9915945,35.3908747 C68.1949413,35.9999075 70.1769545,34.6625043 70.4613929,34.5678573 C71.2982429,34.2888544 72.1322115,33.5045189 72.7253748,33.1275769 C73.0777327,32.9033047 73.5486409,33.2646093 73.9602739,33.3333312 C74.7864215,33.4707751 72.999934,34.7048897 72.5195582,35.3908747 C71.8411869,36.3595661 71.6082026,36.8225134 71.0788425,37.6541724 C70.5074958,38.5516729 72.0577059,38.958655 72.3137417,39.3002072 C72.5821265,39.6578082 74.1784395,39.4693372 74.5777235,39.5059615 C75.2062872,39.5627497 75.9180008,40.8454223 76.2242558,41.1519962 C77.2175264,42.1449667 76.3555667,42.7227249 76.4300723,43.6210483 C76.4930522,44.3757553 74.9210255,43.4836044 74.1660905,43.415294 C71.8605337,43.2054246 74.4764618,43.2601552 72.9311913,44.032557 C72.076641,44.459703 73.6173836,45.8156242 73.9602739,46.7073635 C74.5538488,48.2492865 74.8502246,47.4978717 75.8126227,48.3533982 C76.0468419,48.5612101 78.3515754,49.1340302 78.4882376,49.1764156 C79.5630116,49.5068571 80.0894902,49.7920326 81.1638525,50.2051873 C82.2349218,50.616696 82.902179,51.3635842 83.6336509,51.851222 C84.4066978,52.3660194 84.857436,53.3803883 85.2801832,53.9087655 C85.8321831,54.5980425 85.9486752,55.378263 86.3092658,56.1720632 L87.3383485,58.435361 C87.7186974,59.2715466 88.2513506,59.8690572 88.7790642,60.6986587 C88.9379545,60.948033 89.1310104,61.1793009 89.332299,61.4056307 C89.0746167,61.27724 88.8070552,61.159137 88.5991805,61.0455606 C88.1052209,60.7760224 87.8623574,60.2962032 87.5700979,60.0040321 C87.335467,59.7694721 87.1226527,59.4250394 86.7851136,58.9752604 C86.3286126,58.3662275 86.0379996,57.9353779 85.756031,57.5477367 C85.4415433,57.1148296 84.8109215,56.6959138 84.456917,56.3778176 C84.0650424,56.0251546 83.5896062,55.7794839 83.1578031,55.4774366 C82.8688367,55.2753858 82.4950739,54.4231513 82.2571499,54.0499129 L81.3441478,52.6228008 C81.039951,52.1450392 80.8250785,52.1775484 80.4434947,51.851222 C80.0051055,51.4751031 79.4168818,51.4327177 79.1443807,51.3236679 C78.3593965,51.0100983 78.3058842,51.2549459 77.5879961,51.1952772 C76.9511998,51.1421926 76.6754056,51.3578231 76.0311999,51.4652269 C75.4989583,51.5541128 74.9337861,51.7989604 74.3463858,51.9796127 C73.5848646,52.2137612 73.2271555,51.9059527 72.4038893,51.851222 C71.6575986,51.801018 71.4863592,51.5598739 70.7186636,51.3236679 C70.2666905,51.184578 69.8830485,50.3837821 69.6895809,50.1665055 C69.1132946,49.5183793 69.41461,49.8475862 68.9050083,49.2533677 C68.3530084,48.6097681 68.1117914,48.9932942 67.3486237,48.7389819 C66.9555141,48.6081221 66.1795858,49.31674 65.7918275,49.5105606 C64.8878813,49.9623972 65.4069505,50.2290548 65.0200155,50.9380843 C64.8528924,51.2446582 64.5651609,52.6577791 64.5054741,52.8799937 C64.4770715,52.9865745 63.6369284,53.9618501 63.4636309,54.1787151 C63.0565258,54.6877514 63.2981544,55.3506919 63.2063602,55.9918224 C63.143792,56.4300792 63.0079531,57.2205873 63.2063602,57.9337319 C63.8814384,60.3591641 62.8354788,60.664092 62.8074878,61.1743628 C62.0430852,60.9040016 60.8913359,60.0686389 60.7365618,59.8756414 C60.4566513,59.5254475 60.1409288,59.0250529 59.8363203,58.5896767 C59.4320966,58.0123301 58.3766695,59.145625 58.1510946,59.2324533 C57.6645443,59.4196898 57.9539223,60.6258217 57.8938239,61.0455606 C57.8271393,61.5113884 58.5265039,62.3237065 58.6656359,62.6018864 C58.9146739,63.0994004 58.7508439,63.978383 58.794477,64.6721866 C58.8434614,65.4594027 58.3655554,65.8853142 58.1510946,66.4852939 C57.9255196,67.1169597 57.235211,67.1297165 56.8519806,67.3984316 C56.3090366,67.7782541 56.296276,67.1441193 55.6812962,66.871289 C55.5697436,66.8214965 54.9798734,65.7026043 54.9094842,65.5853244 L54.1376722,64.2861915 C53.9516141,63.9763254 53.3218155,63.3705846 53.0958289,63.1162723 C52.6323301,62.5948908 53.6996946,61.775577 53.7387998,61.6887486 C53.9820749,61.1537873 54.6917303,61.0052327 55.1667549,60.6599769 C55.5652157,60.3702748 54.568652,59.8781104 54.2665133,59.4896462 C53.8203031,58.9168261 53.6659407,58.553464 53.3530996,58.0621226 C53.0970638,57.6596671 53.2674799,57.1098915 53.2242584,56.6350105 C53.1579855,55.9054056 52.3211355,55.7449172 52.0539856,55.4774366 C51.7905405,55.2144825 50.890299,55.3889622 50.3687599,55.3490458 C49.9209031,55.3144791 49.2783439,55.3490458 48.6835341,55.3490458 C48.0101024,55.3490458 47.7590063,55.4889588 46.9983084,55.6062388 C46.6422458,55.6609694 45.6279819,55.0116087 45.1846531,54.8214917 C44.6824608,54.8733418 43.9509888,55.4445159 43.3709978,55.7346295 C42.9659509,55.9370918 42.3851366,56.2720598 41.9558034,56.5062083 C41.1592934,56.9407614 41.1259511,56.424318 40.6566894,56.3778176 C40.2450564,56.3362552 39.730515,55.7383331 39.3575755,55.4774366 C38.7928149,55.0823882 38.4783272,55.4774366 38.0584615,55.4774366 C37.5044034,55.4774366 36.7037771,55.8128161 36.5016653,55.8634317 C35.7187392,56.0588983 35.4540591,56.3391357 35.0868824,56.5062083 C34.593746,56.730069 34.561227,57.4584394 34.3023098,57.9337319 C34.2590884,58.0119185 32.899876,58.1649998 32.7455136,58.1909248 C32.1745785,58.2859833 32.4598402,58.6604562 32.1025427,59.2324533 C32.01363,59.3748353 32.8352496,60.3439383 32.8743547,60.402784 C33.4662831,61.2899967 32.8068469,61.0780697 32.7455136,61.6887486 C32.6994107,62.1496384 31.8082251,61.9825658 31.4591603,62.0875006 C30.93227,62.2455199 30.654006,62.4043622 30.1600463,62.6018864 C29.5973439,62.8265701 29.9159479,63.5911533 29.7743461,64.1578007 C29.6697914,64.5742475 29.6632052,65.3470608 29.6327444,65.7137151 C29.5792321,66.3536111 30.576619,65.9676159 31.0606995,66.0997102 C31.776941,66.2947653 31.9107217,66.1639056 32.7455136,66.2281009 C33.3234464,66.2725439 34.234802,66.4552537 34.4307393,66.4852939 C35.2103724,66.6054544 35.3696744,66.7700579 36.1159651,66.9996797 C36.946229,67.2552266 36.9803945,67.5091275 37.6723497,67.9128175 C38.2865062,68.27083 38.1613698,68.6053866 38.5857635,69.2115389 C38.8944883,69.6522647 38.9167165,70.3152052 38.9714637,70.4975035 C39.1851012,71.209002 38.2099425,70.7909092 37.9296204,70.8962554 C37.3319292,71.1201162 36.6675534,70.306975 36.2443946,70.1119199 C35.741379,69.879829 35.8088868,69.2403445 35.6014238,68.8259553 C35.0955267,67.8144669 35.0984082,68.8259553 34.9580413,68.8259553 C34.7151778,68.8259553 34.8320816,70.423432 34.8168512,70.6390625 C34.7765111,71.2024179 34.6567259,71.6904672 34.5595805,72.3237791 C34.4751957,72.8698511 34.3080727,73.4126311 34.1734687,73.9953273 C34.018283,74.6677325 33.940896,74.9376822 33.7877685,75.5512417 C33.6404039,76.1396991 33.6264083,76.6927668 33.5304978,77.3647605 C33.4584621,77.8688586 33.8120549,78.503405 33.916198,78.9206748 C34.1150168,79.7157096 34.1722338,79.7869006 34.3023098,80.2193962 C34.500717,80.8811022 34.2438579,80.8123802 34.1734687,81.5181176 C34.1314821,81.9362104 33.1929587,82.364591 33.1316254,82.4184986 C32.6734778,82.8188966 32.2634913,83.2991272 31.9737016,83.5888293 C31.5867665,83.9756475 31.2319388,84.9369318 31.189129,85.0159414 C30.8384176,85.658718 30.8367711,86.321247 30.8034288,86.443465 C30.6519478,86.9977672 30.5478047,87.5615341 30.417317,88.1281816 C30.2946503,88.6602623 30.2168517,89.5425369 30.1600463,89.9412889 C30.0682522,90.5836539 29.6994289,90.9260291 29.5039032,91.3560557 C29.090212,92.2654899 29.4429815,91.6428773 29.2466326,92.5259749 C29.0634559,93.3510498 29.2466326,93.0601132 29.2466326,93.8251078 C29.2466326,94.4600657 28.9272053,94.0074062 28.3463911,94.3394937 C28.1043508,94.4773491 27.4144538,94.1724212 26.918436,94.0823008 C26.6010669,94.024278 25.8646553,93.7353989 25.3620514,93.5679149 C24.7034385,93.3481693 24.411179,93.4897282 23.8056667,93.4391127 C22.9593492,93.3687447 22.7769957,93.4391127 22.2488705,93.4391127 C21.0954747,93.4391127 22.3303739,94.0884734 22.3777117,94.4678844 C22.4308123,94.8921498 22.9885751,95.0785633 23.2911254,95.3810222 C23.7945527,95.8842973 22.9321814,96.3801652 22.7761725,96.8085458 C22.5715908,97.3710782 22.2200562,97.7521352 21.8631703,98.3644601 C21.572969,98.8615626 21.8631703,99.1179325 21.8631703,99.7788155 C21.8631703,100.278387 22.7107228,100.440933 23.0338548,100.691953 C23.6356623,101.16025 24.3230895,100.593603 24.7186689,100.563563 C25.0636174,100.536814 25.8428388,99.9376578 26.1338633,99.7788155 C26.8101765,99.4101037 27.1341317,100.779193 27.1757066,100.820755 C27.3016663,100.946677 27.090087,101.162308 27.0472771,101.335141 C27.0271071,101.415386 27.0592145,101.310451 26.918436,101.592334 C26.734436,101.960223 27.1114919,102.248279 27.3045478,102.891056 C27.4733173,103.453588 27.8071517,103.883203 27.9602792,104.189777 C28.1949101,104.658485 28.9630174,104.736672 29.3754737,104.961356 C29.3837064,104.965882 29.3923507,104.969998 29.400995,104.974113 L29.400995,105.450228 C29.3660062,105.735404 29.2445744,106.622616 29.1951784,106.993386 C29.1313753,107.471147 29.0486371,108.019277 28.9893619,108.433666 C28.9095051,108.991672 28.6814604,109.233639 28.4748206,109.771069 C28.3114022,110.196158 27.6404404,110.301916 27.3428297,110.49121 C27.0143465,110.699844 26.6438767,110.554582 26.2108387,110.594087 C25.753926,110.635649 25.3616397,111.089132 24.9759395,111.314227 C24.5470179,111.564424 24.3687808,111.988278 24.0497652,112.342999 C23.7097562,112.720764 23.5348122,113.152025 23.3294073,113.474647 C23.0210941,113.958582 22.7144275,114.226062 22.4032329,114.606296 C22.1648974,114.897645 21.3659176,114.925216 21.0654255,115.017805 C20.5014882,115.19105 20.6529691,115.246604 20.1392511,115.532191 C19.9112063,115.658524 20.997506,116.484834 21.0654255,116.560963 C21.3597431,116.887701 21.5639131,117.20127 21.7857833,117.486857 C22.0685752,117.849808 21.7137475,118.353083 21.682875,118.721383 C21.6491211,119.127131 21.3819713,119.62341 21.271242,119.955909 C21.1049422,120.453835 20.7410586,120.750944 20.4479759,121.190435 C20.2261056,121.522934 19.9869468,121.927859 19.9334345,122.013453 C19.6864547,122.408501 18.8228485,122.184229 18.5956271,122.219207 C18.514947,122.231552 17.7526026,121.544744 17.5665444,121.39619 C17.0071351,120.948468 16.6440747,121.60894 16.228737,121.704821 C15.9595289,121.766547 15.4248176,122.597384 15.3025626,122.733593 C14.8180705,123.271846 14.5171667,122.929883 14.0676634,123.042224 C13.6881377,123.136871 13.31314,122.83647 12.9356725,122.733593 C12.3388045,122.570635 12.4532385,123.794462 12.4211311,123.865242 C12.125167,124.515837 11.9065898,124.600196 11.7007733,124.894013 C11.4735518,125.218694 10.5280307,124.443 10.3629658,124.379628 C9.95215604,124.221608 9.71917173,123.494472 9.53969971,123.247979 C9.22068409,122.80931 8.96423669,122.8447 8.51061706,122.527839 C8.13561934,122.265296 7.44325253,122.117153 7.1728096,122.013453 C6.50637568,121.756671 6.65415195,122.680097 6.45245175,122.939347 C6.3174361,123.113004 6.03382092,123.41752 5.73209389,123.762365 C5.35544963,124.192391 4.64044301,123.83479 4.1884699,123.865242 C3.87974511,123.885406 3.631942,123.865242 3.05647898,123.865242 C2.49624638,123.865242 2.34847012,124.101036 1.8215798,124.27675 C1.43052839,124.406787 1.91666703,125.50963 1.92448806,125.614154 C1.94671625,125.90221 2.60574078,126.465154 2.74775419,126.642925 C3.05565572,127.027275 3.26517694,127.381583 3.46811204,127.671697 C3.70644759,128.012015 3.98965113,128.192667 4.29137817,128.494714 C4.64373607,128.846554 4.58446091,129.446946 4.70301123,129.832118 C4.93599554,130.588882 4.51407166,130.650608 4.39428643,131.169521 C4.27079652,131.704894 4.19505603,132.232036 4.08556164,132.815556 C4.00446992,133.24764 4.39058174,133.653387 4.4971947,133.947205 C4.72482778,134.573109 5.07430425,134.587924 5.42336909,134.975976 C5.74485451,135.332754 6.23799092,135.24716 6.65826828,135.387485 C7.384389,135.629041 7.04026376,135.816688 7.4815344,136.313379 C7.80960595,136.68168 7.10159708,137.452847 7.06990134,137.547906 C6.92829957,137.972994 6.68378953,138.448698 6.45245175,138.988186 C6.23634439,139.492284 6.45245175,139.405867 6.45245175,140.016958 L6.45245175,141.251484 C6.45245175,141.898787 6.0721028,141.821835 5.83500215,142.177378 C5.62506929,142.491771 5.43654135,142.632507 5.11464429,143.000396 C4.8009799,143.35882 4.46879202,143.646053 4.1884699,143.92629 C3.95672049,144.15797 3.6842194,144.574416 3.46811204,144.852185 L2.74775419,145.778079 C2.18546342,146.500688 3.08858636,146.629902 3.15938725,146.806851 C3.2894633,147.131531 3.84557956,146.943883 4.1884699,147.012605 C4.66678752,147.108075 4.60833563,147.781715 4.8059195,148.144254 C5.0475481,148.586626 4.85902016,148.728596 4.90882776,149.275903 C4.94052351,149.622393 4.39346317,150.306321 4.29137817,150.510429 C4.06127529,150.970496 3.77519031,151.155263 3.46811204,151.539201 C3.14744989,151.94001 2.61397344,151.604631 2.13030459,151.642078 C1.85615697,151.662653 1.27122639,151.642078 0.79249714,151.642078 C0.0993070636,151.642078 0.325705248,152.375386 0.0721392815,152.773727 C-0.226294689,153.242435 0.491593372,153.863402 0.586680609,154.11113 C0.756273431,154.551444 1.22553512,155.033733 1.512855,155.448533 C1.82075653,155.892963 1.73760665,156.495823 1.8215798,156.888814 L2.13030459,158.328683 C2.30072068,159.122894 1.86685943,158.855825 1.61576326,159.357454 C1.5177946,159.553744 1.13579911,159.768963 0.895405406,159.974717 C0.64183944,160.192405 0.973615688,161.068096 0.998313671,161.414998 C1.04318168,162.038845 1.26875659,162.29398 1.40994673,162.752401 C1.54084605,163.177489 1.98993772,163.11494 2.23321286,163.266787 C2.55840298,163.470484 2.61561997,164.107911 2.74775419,164.398436 C2.86671614,164.660155 2.91281904,165.47165 2.95357072,165.735839 C3.04824632,166.351044 3.14086376,166.609883 3.26229551,167.176119 C3.40183912,167.826303 3.86739611,167.512322 4.1884699,167.690505 C4.6042193,167.921362 4.9553423,168.150572 5.21755256,168.307768 C5.42007603,168.429163 5.12452349,169.702783 5.11464429,169.850926 C5.09941387,170.080959 4.41692625,170.461605 4.29137817,170.571066 C3.79165563,171.0085 4.09832226,171.343879 3.98265337,171.805592 C3.92872944,172.022046 4.22634014,172.779633 4.29137817,173.040118 C4.51818799,173.947495 4.79233561,173.469322 5.01173603,173.657381 C5.3636823,173.959017 6.20835334,173.38167 6.34954348,173.34875 C6.96205348,173.207602 7.15799081,173.716227 7.4815344,173.863135 C7.84294823,174.027739 7.62807577,174.814132 7.68735093,175.200539 C7.74003996,175.543325 7.40661718,176.323546 7.37862614,176.435065 C7.31646954,176.684027 7.46630398,177.400053 7.4815344,177.566714 C7.51940464,177.981926 7.84335986,178.289734 7.99607573,178.595485 C8.20189226,179.006994 8.50650073,179.324679 8.71643359,179.624257 C8.82222328,179.775281 8.93912707,179.976508 9.12806665,180.100373 C9.06673332,180.077328 9.01774899,180.057164 8.92225012,180.035766 C8.1899549,179.87322 8.75101076,180.100373 8.09898399,180.344397 C7.68035317,180.501593 7.61901984,181.099104 7.37862614,181.476046 C7.1728096,181.799903 6.62410273,181.339014 6.24663521,181.270292 C5.80783437,181.190871 6.17501106,181.299097 5.73209389,181.476046 C5.29823264,181.649703 5.46123933,181.882617 5.11464429,182.401941 C4.97839375,182.606872 4.75199557,183.055005 4.60010297,183.327835 C4.38070254,183.722883 3.96865785,183.819177 3.67392858,184.047975 C3.16679664,184.442612 3.32733354,184.79939 3.05647898,185.385379 C2.80332465,185.934331 2.60574078,185.949145 2.23321286,186.41415 C2.15870727,186.507563 1.39183488,186.975037 1.30703847,187.031413 C1.02630472,187.219061 1.69603171,188.19804 1.71867153,188.265939 C1.85821514,188.683621 1.39183488,189.165086 1.30703847,189.397588 C1.13579911,189.868766 1.04894454,190.301261 0.895405406,190.837869 C0.720872987,191.448959 0.974438954,191.785162 0.998313671,192.072395 C1.04647474,192.648095 1.29468948,192.961253 1.40994673,193.306921 C1.51244337,193.614318 1.95906524,193.650119 2.23321286,193.821307 C2.78191973,194.164505 2.56581237,194.112655 3.05647898,194.541447 C3.31621944,194.7686 3.1252217,195.227432 3.15938725,195.570218 C3.19190626,195.896545 4.01146769,196.336859 4.1884699,196.496525 C4.60010297,196.866882 4.5531768,197.104323 4.8059195,197.525296 C5.02737808,197.894008 5.21755256,198.142559 5.42336909,198.451191 C5.69422364,198.856938 6.29150322,198.884509 6.65826828,199.068454 C7.01721231,199.24746 7.80631289,199.221535 8.20189226,199.274208 C8.37642468,199.297253 8.7427781,200.265533 8.81934185,200.405857 C9.02968635,200.791029 8.89178927,201.48689 8.92225012,201.949015 C8.95723893,202.474511 8.92225012,203.037455 8.92225012,203.388883 C8.92225012,203.657599 8.42787881,204.212724 8.30480053,204.417655 C8.07058131,204.808588 7.65730172,205.136972 7.37862614,205.446427 C7.01556577,205.849705 6.90648301,206.233643 6.76117654,206.47561 C6.56194614,206.807698 6.90401321,207.331137 6.96699307,207.710136 C7.06866644,208.318346 7.11024138,208.13934 7.27571787,208.635619 C7.34199079,208.834789 8.20806676,209.024083 8.51061706,209.150417 L8.87079599,209.304732 C8.33773117,209.17305 7.76761938,209.112146 7.12135547,208.982933 C6.35530634,208.829851 6.3660088,209.252059 5.51351673,209.561925 C4.55729313,209.909239 5.1109396,210.429797 4.63879647,211.451985 C4.3963446,211.977893 5.75926167,212.451951 5.95067104,212.622315 C6.27174483,212.907491 7.92157014,212.749472 8.1376775,212.763874 C9.11901072,212.829304 9.16758342,213.420231 9.73275562,213.779889 C10.181024,214.065065 9.73275562,215.61028 9.73275562,215.811508 C9.73275562,216.685141 9.84636634,217.17319 9.88711802,217.701979 C9.92951622,218.251343 10.6704557,218.592483 11.0450418,219.013457 C11.5427062,219.573932 11.9131759,220.171031 12.3569164,220.762369 C12.790366,221.340127 12.9941244,222.240096 13.2316366,222.794399 C13.4749118,223.361457 13.7428849,223.942096 13.9519945,224.401751 C14.4134352,225.416532 15.207887,224.29229 15.5598332,224.260192 C16.0784909,224.21328 16.5292291,222.793987 16.717757,222.511281 C17.3561999,221.554111 17.444701,222.443793 18.183994,222.369722 C18.3247725,222.35573 18.9360476,224.02234 19.0459536,224.260192 C19.2855241,224.779105 19.5395017,225.831744 19.6374704,226.150663 C19.931788,227.10701 20.5368886,226.028445 20.7953942,225.996348 C21.31611,225.931329 21.3790898,225.133825 21.6701144,224.697626 C22.0125931,224.184063 22.5456579,225.559737 22.9824006,225.996348 C23.5430449,226.557234 23.9048703,226.423905 24.5774787,226.729245 C25.3575234,227.083965 26.3680826,227.007013 26.8542212,226.84529 C27.5379437,226.617314 27.5272413,225.92063 27.7803956,225.559325 C28.036843,225.192671 27.1571831,223.822347 27.0600377,223.385737 C27.0271071,223.238828 27.0736216,223.331417 27.2016395,222.948714 L27.2399214,223.025666 C27.2251026,222.983281 27.2205746,222.949537 27.2144001,222.910032 L27.3560019,222.910032 C27.3518856,222.927727 27.3465343,222.942953 27.3428297,222.961471 C27.3308923,223.020317 27.3189549,223.080809 27.3173084,223.141712 L27.2399214,223.025666 C27.2584449,223.079163 27.2839661,223.135951 27.3173084,223.19315 C27.3226596,223.603425 27.5482345,224.050735 27.857371,224.479115 C27.9219974,224.568001 27.9701584,224.621909 28.0249056,224.684869 C28.1767982,224.923133 28.3480376,225.103374 28.5135141,225.121892 L28.4879928,225.070453 C28.5793754,225.129299 28.6724044,225.202959 28.7835454,225.302132 C29.0597512,225.547392 29.7776392,225.632985 30.0184446,225.713641 C30.5045832,225.875364 30.3897376,226.331316 30.6358941,226.742413 C30.7968427,227.009893 30.9137465,227.50535 31.0475272,227.874062 C31.2195898,228.346062 31.560422,228.679796 31.7678851,229.005711 C31.9901669,229.35467 32.4092094,229.454255 32.7969677,229.725851 C33.2942205,230.073164 33.7132629,230.107319 34.0318669,230.240237 C34.3451197,230.370685 34.9724485,230.52212 35.0609496,230.548868 C35.4462381,230.664502 36.3234282,230.548868 36.5016653,230.548868 C36.9594012,230.548868 37.5521529,230.68837 38.0452893,230.754623 C38.1980051,230.774786 39.020448,230.045593 39.1772802,229.931605 C39.7165195,229.539026 40.2191235,229.634084 40.6179959,229.520096 C41.2477945,229.340267 41.3749891,229.794984 41.7499868,229.931605 C42.0858794,230.053412 42.5110964,230.463686 42.7790695,230.651745 C43.0762686,230.859557 43.5731097,231.084241 43.9110604,231.269008 C44.3609753,231.513856 44.5729664,231.665703 44.9401431,231.886271 C45.4744428,232.206425 45.5156061,231.990383 46.072134,232.092026 C46.6183711,232.191199 46.8744068,232.529048 47.2041249,232.709289 C47.6194627,232.935207 47.7116685,233.343424 48.027391,233.73806 C48.3101829,234.091135 48.7222276,234.254915 49.0951672,234.380837 L49.0951672,234.715394 L49.571015,234.715394 C49.3919546,234.959418 49.1861381,235.252412 49.0437131,235.448291 C48.5534581,236.12193 48.4678384,236.351552 48.027391,237.042887 C47.6882054,237.57579 47.7421293,238.274944 47.5902367,238.933358 C47.5120264,239.270795 47.3926528,240.092989 47.2942725,240.68227 C47.1320891,241.654253 46.6525366,241.789228 46.2779505,242.431181 C46.0280892,242.85915 45.022058,242.722118 44.3873199,242.868204 C43.6340314,243.04186 43.4409754,243.529087 42.9334319,243.884219 C42.3937809,244.261984 41.903526,245.13397 41.6215573,245.478815 C41.3198303,245.847527 40.441817,246.450798 40.0264792,246.790293 C39.5580408,247.173819 39.4695397,247.713718 39.1517589,248.243742 C38.8195711,248.796809 38.6248686,249.296381 38.2770387,249.992653 C37.9407345,250.664236 38.0086539,251.23541 37.8394727,252.024272 C37.6665869,252.830417 37.3430433,253.017242 36.9647525,253.773184 L36.0900322,255.522096 C35.7269719,256.248409 35.6701665,256.550456 35.3696744,257.271008 C35.3441531,257.331911 35.2334238,259.053252 35.215312,259.303037 C35.1799115,259.80014 34.3410033,260.930143 34.1994016,261.193097 C33.8351063,261.869617 33.8202875,262.146562 33.6202338,262.646134 C33.5012719,262.943243 33.0538268,263.658034 32.8871154,263.958024 C32.4972989,264.659646 32.4479029,264.946879 32.1667575,265.565377 C31.8395092,266.285105 31.834158,267.107711 31.7296032,267.597407 C31.5641267,268.367751 31.6287531,268.788724 31.5752408,269.487466 C31.5176122,270.234766 31.5752408,270.611296 31.5752408,271.236378 C31.5752408,272.182436 31.271044,272.503413 31.1504355,272.98529 C30.9763147,273.682385 30.7503281,273.853985 30.5589188,274.284423 C30.4103192,274.618156 29.4298093,274.710746 29.400995,274.721445 C28.7868384,274.95189 29.1268473,275.045302 28.6678765,275.595901 C28.2545969,276.091769 28.6678765,277.458801 28.6678765,277.923394 C28.6678765,278.715137 28.9605476,279.385896 29.1054424,280.10974 C29.2375766,280.771446 29.4652097,281.780053 29.5425967,282.141358 C29.7348294,283.03927 30.3885027,282.850387 30.417317,282.874666 C30.678704,283.092355 31.9313034,282.459454 32.0123951,282.437233 C32.1996882,282.386206 32.4100326,282.437233 32.6043235,282.437233 L32.7455136,282.437233 C33.5020952,282.437233 33.3736656,283.592338 33.6202338,284.044586 C33.9264888,284.605883 33.9343099,285.400095 34.0577998,285.935057 C34.3525291,287.211556 34.5546409,286.149864 35.0741218,286.37249 C35.5059249,286.557669 36.4827302,285.075415 36.6691999,284.906285 C37.2808867,284.350337 38.2506942,285.197221 38.2770387,285.20216 C38.8195711,285.30051 39.6333696,285.40133 40.3092711,285.498034 C40.7167878,285.556057 41.5359376,285.498034 42.2003134,285.498034 C43.0124654,285.498034 43.1874095,284.510825 43.6537897,284.044586 C44.287293,283.411274 44.6128948,283.189471 45.1204383,282.733107 C45.1998835,282.661505 46.4924113,283.412508 46.5739147,283.453248 C47.1995969,283.765994 47.317324,284.299309 47.7318385,284.764726 C48.2472031,285.344953 48.5460487,285.393923 49.0437131,285.780741 C49.4187108,286.072089 50.9578068,285.780741 51.0763571,285.780741 L53.1213502,285.780741 C53.674585,285.780741 52.8295023,284.719871 52.6841959,284.186145 C52.5174845,283.576289 51.4237754,284.093555 50.7931536,284.044586 C50.4704332,284.019895 50.0472745,282.926517 49.9184333,282.733107 C49.7159098,282.429826 50.3243035,281.712154 50.4971894,281.28007 C50.6564914,280.882141 51.5563213,280.334835 51.8094756,280.10974 C52.2952026,279.678067 52.5092518,279.108539 52.8257976,278.656702 C53.2032651,278.117215 53.597198,277.793769 53.9960704,277.344813 C54.6188712,276.644425 54.727954,277.565381 55.4499584,277.782246 C55.7298689,277.866194 56.6836227,278.471935 56.761833,278.515143 C57.3978061,278.868218 58.3141012,278.61514 58.9356672,278.656702 C59.5683472,278.698676 59.9672196,279.550911 60.1063516,279.672306 C60.3450988,279.880941 59.3345396,281.092011 59.2316313,281.28007 C58.8014748,282.068521 58.6553451,281.934781 58.2153093,282.437233 C57.6250275,283.112107 58.5882489,283.182886 58.6528753,283.311689 C58.9146739,283.835951 59.7140653,282.82117 60.2479534,282.578792 C61.1226736,282.181274 60.6460025,281.883342 60.9810719,281.28007 C61.6639711,280.051305 61.5618861,281.128635 62.1389957,280.984196 C62.8239531,280.813008 63.5047942,281.368956 64.1839887,281.562777 C64.5165882,281.657835 65.7724807,280.827822 66.075031,280.688321 C66.8834783,280.315494 67.1403374,280.688321 67.8244715,280.688321 C68.3917019,280.688321 68.9070665,281.901448 69.1235855,282.141358 C69.5685608,282.635991 70.0695182,283.087005 70.4358717,283.453248 C71.3682205,284.385726 70.8647933,283.024456 71.0146277,282.874666 C71.1903951,282.698541 70.1913616,281.811328 69.9983057,281.562777 C69.5261626,280.956213 69.0795407,280.921646 68.5448294,280.546762 C67.9590755,280.136899 67.5058675,279.884644 66.9497513,279.531158 C66.3351831,279.140225 66.1890534,278.886736 65.9206686,278.656702 C64.7964987,277.693361 66.4948967,277.740684 66.6537871,277.486372 C66.8579571,277.160045 68.3032008,278.507736 68.5448294,278.656702 C69.2096168,279.065742 69.5302789,279.736501 69.9983057,280.251299 C70.3753616,280.666099 71.0508515,280.99901 71.4517821,281.28007 C71.958914,281.634791 72.5405515,282.059468 73.0600324,282.437233 C73.383576,282.672616 73.8293746,282.238474 74.2175446,282.141358 C74.9531329,281.957825 75.5327122,282.856149 75.8253833,283.015814 C76.2184929,283.23021 76.5021081,283.599333 76.8417054,283.89027 C76.8655801,283.910845 78.3931504,283.659825 78.7327477,283.607563 C79.1472622,283.54378 79.9532397,284.32935 80.186224,284.469263 C80.6443716,284.74415 81.0308951,285.628071 81.3569084,286.076615 C81.8730963,286.786468 82.6008636,286.835849 83.2479507,287.233778 C83.6143041,287.459285 84.7775792,287.128432 85.2801832,287.09263 C86.1013911,287.033785 86.3376685,286.353972 86.7336595,286.076615 C87.0395029,285.862631 87.2045677,285.615726 87.3642813,285.343719 C87.3651046,285.342072 87.3762187,285.345365 87.377042,285.343719 L87.7759144,285.343719 C87.5857399,285.918596 87.3947422,286.537917 87.3383485,286.616515 C86.8139279,287.349823 87.2967735,286.449442 87.7499815,288.26255 C87.9557981,289.085567 89.3965138,288.674058 90.2197799,288.879813 C91.2500975,289.137417 91.255037,289.915169 91.8663121,290.525847 C92.3899094,291.049286 93.0649876,291.424582 93.5128444,291.760373 C93.9322985,292.075178 93.5128444,293.053334 93.5128444,294.023671 C93.9121285,294.023671 95.7496585,294.071818 96.6000924,294.43518 C97.7394927,294.642169 96.4272065,296.166397 96.3942758,296.492723 C96.3049515,297.384463 96.3942758,298.062629 96.3942758,298.756021 C96.3942758,299.304974 97.4921012,298.756021 98.0408081,298.756021 C98.1046112,298.756021 99.2464813,297.03468 99.4815238,296.698478 C100.109264,295.802212 100.894248,295.286591 101.539689,294.640934 L101.951322,294.229426 C102.060405,294.120376 101.887107,294.165642 101.128056,293.406408 C99.9656043,292.244308 100.752647,292.186285 100.30479,290.731602 C100.128611,290.159605 101.089774,288.848126 101.333873,288.26255 C101.706812,287.36793 102.30862,286.592236 102.774588,285.793498 C103.12036,285.201337 103.597854,286.890991 104.009487,287.439532 C104.452816,288.030459 104.558606,288.811502 104.832754,289.497076 C105.131188,290.242729 106.342212,288.948535 107.096735,288.674058 C107.42563,288.554721 107.782928,288.811502 108.125818,288.879813 C108.346042,288.924256 110.347402,288.695045 110.595616,288.674058 C111.39295,288.607805 111.967589,289.497076 112.653782,289.908584 C112.806498,290.000351 113.990766,290.502803 114.506131,290.731602 C115.268887,291.070685 114.78069,292.377636 114.917764,293.200654 C115.030551,293.875117 116.29303,294.575504 116.770112,295.052443 C117.482649,295.764764 118.144967,294.553283 119.034094,294.229426 C120.913199,293.546321 119.698882,294.29609 121.09226,294.43518 C122.032841,294.529415 122.355561,293.930259 123.150425,293.612163 C124.206675,293.189955 124.50017,292.754167 125.414407,292.171882 C126.512644,291.473552 126.755919,291.656262 128.090022,291.14311 C129.106344,290.752589 130.646263,290.925422 131.344393,290.988795 C132.039229,290.483874 133.353162,289.712706 134.058701,289.085567 C134.140204,289.013553 135.224857,287.586852 135.91105,287.439532 C136.831873,287.24242 138.068419,286.894695 138.792481,286.822269 C139.578289,286.743671 139.351067,286.429278 140.850647,286.616515 C141.734834,286.727211 143.350906,287.14983 144.143711,287.028024 C144.99538,286.897164 146.384641,287.341182 146.819326,286.616515 C147.067129,286.204183 147.435952,284.987352 148.054225,284.558971 C148.251397,284.422762 149.914807,281.659481 150.72984,282.707182 C151.340292,283.491929 150.937303,284.110839 152.170556,284.558971 C153.316131,284.975418 153.549115,284.899289 154.434538,285.381989 C154.711567,285.533424 155.56694,287.542409 156.698519,286.616515 C157.453043,285.999252 158.037562,284.456506 158.962501,284.764726 C159.579951,284.97048 160.18711,285.553588 160.81485,285.381989 C161.569373,285.176234 162.889069,284.006315 163.078832,284.764726 C163.252541,285.459764 163.803306,284.847028 163.490465,286.410761 C163.353391,287.096746 162.429275,288.209053 163.078832,288.468304 C163.154161,288.498756 164.789167,288.711094 165.136997,289.291321 C165.458894,289.82834 165.691879,290.895794 166.371896,291.348865 C166.790116,291.627456 167.254026,293.553728 168.224245,292.583391 C168.936782,291.871481 169.595395,292.047607 169.664961,291.14311 C169.746876,290.078126 169.825909,289.100381 169.870777,288.468304 C169.912764,287.885608 170.373381,285.765926 170.076594,285.587743 C169.999619,285.541654 168.195431,284.606295 168.018429,284.353217 C167.873534,284.146228 165.748272,283.480407 166.577713,282.295674 C166.813579,281.95906 167.933221,280.578448 168.018429,280.23813 C168.189256,279.555026 169.608567,277.883066 168.841695,276.946061 C168.117221,276.060906 168.609945,274.953124 166.989346,274.682763 C166.581829,274.614864 164.585409,274.453141 164.519548,274.271254 C164.244988,273.516959 164.156899,272.665547 163.696281,272.007957 C163.215906,271.322383 161.933669,270.723226 162.255566,269.950413 C162.808801,268.623709 162.479494,268.516305 163.284648,267.481361 C163.390438,267.345563 164.587879,265.698294 164.725364,265.629572 C165.554805,265.215594 165.423494,264.68804 166.371896,264.806555 C167.304245,264.923423 167.828254,265.430813 168.018429,265.012309 C168.413596,264.143203 168.287225,263.357221 169.047511,262.749011 C169.698303,262.228864 170.264299,261.232602 171.105677,261.103388 C172.056961,260.956891 173.061345,261.149888 173.781292,260.691879 C174.92522,259.96392 175.347555,260.247861 176.045273,259.251599 C176.685774,258.337227 176.972683,258.049171 177.485989,257.194055 C177.977891,256.374742 178.493667,256.611771 178.720888,255.136512 C178.870723,254.165763 178.822562,252.977326 179.132521,252.461706 C179.399671,252.016453 179.650356,250.404162 180.367421,250.404162 C180.496262,250.404162 182.182722,250.459716 182.425586,250.404162 C183.04921,250.260134 184.902382,250.383587 185.101201,249.786899 C185.364646,248.996802 186.119169,248.583236 185.924467,247.317847 C185.755286,246.217884 185.71865,245.533957 185.512834,244.643041 C185.353532,243.951295 185.155125,242.919231 184.895384,241.968234 C184.477988,240.436599 185.796037,240.288044 184.277935,239.704936 C183.248029,239.309065 182.393067,239.070802 181.60232,238.676165 C180.940414,238.3449 179.823242,237.844094 179.132521,237.441639 C178.5373,237.094325 176.903117,236.841659 176.662723,236.001358 C176.378285,235.00633 176.536763,233.99155 175.839457,233.120797 C175.119511,232.220828 175.427001,231.415505 174.192925,231.063254 C173.305855,230.809353 171.986983,230.915111 171.311493,230.240237 C170.67305,229.601987 169.865426,229.28101 169.459144,228.388448 C169.154124,227.717688 169.008818,226.832122 168.430062,226.12515 C167.810142,225.367562 167.400156,224.766348 166.577713,223.861852 C166.194483,223.440056 165.36463,221.528186 164.519548,221.598143 C164.361892,221.611723 162.339951,221.997718 162.049749,221.803897 C161.436416,221.395269 160.049624,221.018739 159.579951,220.157862 C159.183137,219.430727 159.025481,219.060369 158.345052,217.894565 C157.892255,217.118459 157.436578,216.261698 156.904336,215.425924 C156.48447,214.765864 155.733652,213.971241 155.46362,213.162626 C155.232694,212.469234 155.136372,211.499308 154.640354,210.693574 C154.144336,209.887429 153.420685,209.014619 152.993822,208.018356 C152.771952,207.500678 151.572041,205.652181 151.758923,205.137795 C151.998082,204.479793 152.183316,203.739489 152.582189,202.874909 C152.68592,202.650637 153.987504,200.506265 153.817088,200.200103 C153.595218,199.800939 153.22269,199.031007 152.788005,198.348314 C152.185375,197.401432 152.208426,196.945481 151.34729,196.084604 C150.458985,195.196569 150.039531,194.851724 149.289124,194.027061 C148.756883,193.441896 147.771433,192.45839 147.230959,191.763763 C146.855138,191.281063 145.790243,190.562569 145.790243,189.911974 C145.790243,189.766712 146.106377,188.145779 145.790243,187.648676 C145.380257,187.004665 145.201196,186.123214 144.349528,185.385379 C144.298073,185.340936 144.248266,185.28209 144.195165,185.231063 L144.195165,184.601043 C145.041071,185.292378 145.541205,185.710882 145.790243,186.208396 C146.393697,187.415351 147.211201,186.466823 148.054225,186.619905 L150.318207,187.031413 C151.086314,187.170915 151.996435,185.505951 152.582189,184.97387 C153.188113,184.423683 153.710887,183.845513 154.228721,183.327835 C155.003826,182.553376 155.70566,182.120057 156.492703,181.476046 C157.408175,180.727512 157.883611,180.591302 158.756685,180.035766 C159.976354,179.260483 160.407745,179.799971 161.638116,179.624257 C162.495959,179.502039 163.63783,179.957579 164.107915,180.035766 C165.5688,180.279379 165.644952,179.197934 166.371896,178.80124 C166.738661,178.601658 167.71135,177.759711 168.224245,177.360959 C169.141364,176.648226 169.443914,176.263877 170.28241,175.50917 C171.220934,174.665166 171.43416,174.35818 171.928943,173.863135 C172.721336,173.071393 173.252755,173.201429 173.987108,172.834364 C174.781971,172.437258 175.390777,172.196937 176.25109,171.805592 C176.343296,171.76403 178.149953,171.236475 178.309255,171.188329 C179.04402,170.968172 178.995448,169.816771 179.338338,169.130786 C179.584494,168.638621 181.669828,168.631626 182.219769,168.513523 C183.297425,168.282666 184.045774,167.811489 184.895384,167.484751 C185.438328,167.276527 186.821827,167.003697 187.365183,166.867488 C188.642892,166.548157 188.23167,166.19426 189.217531,165.427207 C190.121066,164.724762 190.346641,164.67497 191.06988,164.192681 C191.399598,163.972936 193.918793,164.192681 194.157128,164.192681 C194.756466,164.192681 195.981897,162.551173 196.215293,162.340892 C196.562712,162.028969 198.058998,161.168504 198.479275,160.900612 C199.439204,160.289933 198.479275,159.510124 198.479275,158.843068 C198.479275,157.98425 197.656009,157.334478 197.244376,156.580182 C196.797343,155.760868 199.027982,156.03123 199.919991,155.757165 C200.56996,155.55676 201.755463,156.215997 202.389789,156.374428 C203.800044,156.726679 203.250926,156.852601 204.242138,157.402788 C205.024241,157.837341 204.379212,159.186267 204.447955,160.077594 C204.478415,160.473054 206.217977,160.520378 206.917753,160.694858 C207.273816,160.783743 206.280133,162.447473 206.094487,162.958155 C205.763946,163.867589 207.87233,164.412427 208.358469,164.809944 C209.418012,165.676582 209.987712,164.321484 210.416634,164.192681 C211.112294,163.984458 211.407846,162.210444 211.651533,161.723629 C212.152079,160.723252 212.202298,159.796534 212.474799,158.843068 C212.691318,158.087538 212.921833,157.056709 213.092249,156.374428 C213.333466,155.409851 213.092249,154.981471 213.092249,153.699621 L213.092249,150.613306 C213.092249,149.875471 213.647542,148.948754 213.915515,148.144254 C214.254289,147.129474 213.476714,145.949267 213.298065,145.057939 C213.191041,144.522155 212.348016,143.316023 212.063166,142.794641 C211.624365,141.98973 212.743596,141.434194 213.092249,140.737098 C213.115712,139.510802 212.03641,138.749922 211.2399,137.445028 C210.95999,137.102653 208.796858,137.068909 208.564285,137.03352 C207.872742,136.926939 207.243355,136.763981 206.647722,136.608843 L206.647722,135.644678 C207.431059,135.703524 207.041655,135.345923 207.535203,135.181731 C207.664455,135.138522 207.914317,132.908557 207.946836,132.712678 C208.088437,131.862913 206.532053,131.455108 206.094487,131.066644 C205.257225,130.322225 205.829395,130.358849 205.477037,129.420609 C204.986371,128.1116 204.469771,128.161392 203.830505,127.363066 C202.981718,126.301785 203.672026,126.097265 203.624689,125.717031 C203.593816,125.470126 204.71387,123.902689 204.859588,123.659487 C205.365896,122.815895 205.147731,121.641449 205.271221,120.778927 C205.352724,120.208987 205.880438,118.952651 206.094487,118.309875 C206.252966,117.834994 205.786997,116.157273 205.682854,115.429314 C205.630165,115.059779 205.824044,113.453661 205.88867,112.548753 C205.99446,111.067733 205.77506,111.185425 205.682854,110.079701 C205.661449,109.82045 203.491731,108.88468 203.418872,108.845175 C202.959901,108.594566 202.610425,107.067046 202.389789,106.581877 C201.876483,105.452286 201.996268,104.744902 201.77234,103.701316 C201.637324,103.071708 202.800599,102.158982 203.007239,101.849527 C203.552241,101.031859 203.28468,99.9092637 203.418872,98.9689664 C203.515606,98.2949152 202.094237,97.148452 201.77234,96.7056686 C201.134309,95.8287436 200.38102,95.4538592 199.714174,94.8538795 C198.840277,94.0674864 198.659982,93.4041344 198.067642,92.5905818 C197.537047,91.8613884 196.218998,91.5951423 195.392027,91.1503014 C194.46256,90.6499068 193.747965,89.780389 192.922229,89.092758 C192.077558,88.3886666 191.736314,88.4339326 191.06988,88.0639862 C189.738659,87.3245051 191.06988,86.8278142 191.06988,85.5949341 C191.06988,84.9459849 192.814793,83.8509603 193.128045,83.5373907 C194.080153,82.5855711 194.02664,81.7407438 194.568761,80.6568299 C194.982452,79.8296975 195.545155,79.1227256 196.009477,78.3935322 C196.572179,77.5092 196.687437,76.631452 197.03856,75.7187257 C197.660125,74.1031426 198.360313,73.4537819 198.479275,73.2496736 C198.52085,73.0007109 197.694291,71.0522172 197.450193,70.3691128 C196.908895,68.8531148 196.760707,69.596711 196.151079,69.4814886 C196.173307,69.4349881 196.191007,69.3847841 196.215293,69.3403411 C196.347839,69.097551 196.528546,68.4008668 196.832743,67.488552 C196.996985,66.9967992 195.988484,65.4626948 195.80366,65.0194999 C195.406846,64.0676803 195.666587,62.9611335 195.597844,61.9331848 C195.560797,61.3792941 194.888188,59.9813991 194.774578,59.669887 C194.45515,58.791316 194.447741,57.7098712 194.362945,57.2008349 C194.349772,57.1205907 194.348537,57.1033074 194.337423,57.0333509 C194.253862,56.8901459 194.136135,56.634599 193.951312,56.1720632 C194.632976,54.4001068 192.729996,54.8153191 192.098963,54.1145198 C191.81082,53.794366 189.967527,54.8247838 189.629164,54.9375372 C189.137675,55.1009061 188.31482,53.247471 188.188449,53.0857481 C187.535187,52.2458589 186.585961,52.7158018 185.512834,52.4684851 C184.505156,52.2359827 184.755429,51.0804663 184.277935,50.2051873 C183.756396,49.2484296 183.557577,48.7649069 183.248852,48.1476439 C182.940539,47.5307924 183.111778,46.7756739 183.043035,46.0901005 C183.035214,46.0098563 181.571036,43.8823564 181.396503,43.6210483 C181.188628,43.3091248 182.210302,41.1618724 182.386892,40.7787579 C182.852861,39.7693271 181.431904,39.5969049 180.98487,39.0944528 C180.572002,38.6298595 178.850964,38.9302609 178.309255,38.8886985 C177.611949,38.8347908 176.937282,38.6142222 176.25109,38.4771898 C175.484217,38.3236971 175.29075,39.7117158 174.810374,40.3289789 C174.271135,41.0219595 173.712549,38.9570089 173.163842,38.2714355 C172.633659,37.6089065 171.51731,37.8599268 170.694044,37.6541724 C170.415368,37.5842159 168.942957,36.6990608 168.430062,36.4196464 C167.681301,36.0110182 166.830456,35.6925105 166.16608,35.3908747 C165.012684,34.8666126 165.993606,34.1843312 165.960263,33.9505943 C165.889051,33.4530803 166.040532,33.2300426 166.16608,32.0988052 C166.230295,31.5251621 165.443252,29.9305659 165.342814,29.6297531 C165.106948,28.9215466 164.381239,30.3161496 163.902098,30.6585248 C163.495816,30.9486384 162.941758,30.3840485 162.461382,30.2470161 C161.709329,30.0322086 161.226483,31.2070659 160.609034,31.6872965 C160.372345,31.8712409 158.40515,30.7692206 158.139235,30.6585248 C157.488032,30.3869291 156.768497,30.9074875 155.875253,31.0700335 C155.05281,31.2194111 155.179182,31.9979856 154.640354,32.7160682 C154.079298,33.4637795 154.003146,34.4670377 153.817088,34.979366 C153.500542,35.8497068 152.83205,36.5550327 152.788005,36.6254007 C152.413831,37.2241458 152.101813,35.3908747 151.758923,34.7736116 C151.580686,34.4522234 152.843164,32.6053724 152.993822,32.3045595 C153.330538,31.6313313 154.518511,30.9325896 155.051987,30.4527705 C155.736945,29.8363304 156.835182,29.9038179 157.727602,29.6297531 C158.728694,29.3215331 159.72855,29.200961 160.609034,29.0124901 C161.640174,28.7915099 162.528479,28.2742435 163.284648,27.9837183 C163.670349,27.8351637 161.22072,27.9837183 160.81485,27.9837183 C159.987468,27.9837183 158.907754,28.2557256 157.933419,28.395227 C156.73392,28.5664146 156.274537,27.7038924 155.46362,27.3664553 C154.03937,26.7730598 154.53086,27.4594563 153.405455,27.5722097 C152.470225,27.6656221 152.044184,28.7816337 151.553106,29.2182444 C150.941831,29.7614359 151.114717,31.2642656 150.935657,32.0988052 C150.877616,32.3708124 149.199388,33.8341373 149.083308,33.9505943 L147.436776,35.596629 C146.489196,36.543922 146.237688,37.0620114 145.584427,37.8599268 C145.019666,38.5496153 145.584427,39.6429939 145.584427,40.5347332 C145.584427,41.2203067 144.212454,40.5347332 143.526261,40.5347332 C143.474396,40.5347332 142.54781,38.3829543 142.497179,38.2714355 C142.133707,37.4718741 141.399353,39.6429939 140.850647,40.3289789 C140.011738,41.3770915 139.493492,40.6001631 138.792481,40.7404876 C137.982387,40.9022105 137.145949,40.6030437 136.322683,40.5347332 C135.692473,40.4820601 135.087784,40.808798 134.470334,40.9462419 C133.23173,41.2211297 133.138289,41.7935383 132.206352,42.3865223 C131.754379,42.6737554 132.892545,43.2095397 133.235435,43.6210483 C134.209359,44.7893215 133.072428,44.6008505 132.823802,46.0901005 C132.742298,46.5797958 132.280035,47.5847 132.000536,48.3533982 C131.489287,49.7587004 131.154218,49.4414272 130.55982,50.2051873 C130.230925,50.6278067 129.736554,49.5192023 129.324921,49.1764156 C128.794326,48.7344553 128.039802,47.891274 127.884205,47.7361352 C127.667274,47.5188586 125.982049,48.6003034 125.620223,48.7649069 C124.730684,49.1690084 125.339901,48.7649069 125.002774,48.7649069 C123.753056,48.7649069 124.532277,48.5628561 123.562058,48.1476439 C122.805476,47.8229635 123.562058,46.5016091 123.562058,45.6785918 C123.562058,43.9457287 121.671839,45.8501909 121.298076,45.8843461 C121.234273,45.8901072 119.794792,47.9509427 119.651544,48.1476439 C119.227973,48.7299287 117.874112,49.6015041 117.387562,49.999433 C116.515723,50.7125775 116.052224,51.3343671 115.329397,52.0569764 C114.015876,53.3701006 114.990623,52.9347244 114.724708,53.8441586 C114.401987,53.3054937 114.073093,52.7841122 113.888681,52.4684851 C113.552788,51.8923729 113.554847,52.0232327 113.271231,51.6454677 C112.957979,51.2273749 113.682864,50.6850064 113.888681,50.2051873 C114.438623,48.9216917 114.564582,49.3364925 115.329397,48.3533982 C115.881397,47.6435457 116.265862,47.2834756 116.770112,46.7073635 C117.043848,46.3942054 116.179007,45.2288128 115.946846,44.6498201 C115.766139,44.1971605 114.800037,43.9946982 114.506131,43.8268027 C113.722793,43.3790812 114.78069,42.0433241 114.917764,41.1519962 C115.225665,39.1516525 115.860403,41.4659774 116.152663,41.5635049 C118.064287,42.2001089 116.611634,41.5120663 118.005012,41.3577506 C118.865325,41.2618691 119.091723,39.6508126 119.445727,39.0944528 C119.979204,38.2557981 120.547257,37.7175448 121.09226,37.0369094 C121.56111,36.4513325 121.681306,35.8591715 122.121342,34.979366 C122.313575,34.5950169 121.762398,32.8263525 121.709709,32.5103139 C121.477136,31.1140649 121.090613,31.2724957 120.680626,30.4527705 C120.361611,29.8145205 118.417468,30.4527705 118.210828,30.4527705 C117.160752,30.4527705 117.169808,31.9395513 116.770112,32.5103139 C116.127965,33.4275667 114.805799,33.3283931 114.300314,33.5390856 C113.647464,33.8106813 113.402954,33.2024715 112.653782,32.9218226 C112.026453,32.6864396 111.135679,32.0938671 110.3898,31.6872965 C109.191124,31.0334092 109.52784,30.8251858 108.537451,29.8355074 C107.847554,29.1458189 106.894624,29.150757 106.067653,28.8067357 C104.602239,28.1960568 105.310248,29.9420882 104.832754,30.6585248 C104.302159,31.4539711 103.4933,31.9975741 103.186221,32.3045595 C102.93883,32.5518762 102.500441,32.4415919 102.157139,32.5103139 C101.272539,32.6868511 102.431698,30.7268352 102.568772,29.8355074 C102.68938,29.0519949 101.247841,28.5149761 100.92224,28.1894727 C100.233989,27.5014302 99.2403068,28.1894727 98.4524411,28.1894727 C97.4908663,28.1894727 96.3712244,28.4668295 95.3651932,28.6009814 C94.546455,28.7100312 96.6000924,27.5034877 97.217542,26.9549466 C98.2149289,26.0685569 97.217542,25.8023108 97.217542,25.1031576 L97.217542,22.6341054 C97.217542,21.3785925 96.3028933,22.0851529 96.1884593,22.0168424 C95.5310813,21.6222056 95.5026786,23.3884009 95.1593766,24.0743858 C94.8391261,24.7146934 93.7874036,24.4858945 93.1012113,24.6916489 C92.5714396,24.8504912 92.0037976,24.554205 91.4546791,24.4858945 C91.3867596,24.4772528 91.3176053,24.4858945 91.2488626,24.4858945 C90.4935159,24.4858945 91.3958156,24.4270488 92.2779452,24.0743858 C93.3033232,23.6641117 93.734303,22.6180566 94.3361105,22.0168424 C95.0799315,21.2732462 95.4829202,21.1251031 96.1884593,20.576562 C96.6544279,20.2140229 97.1492109,19.8905771 97.629175,19.5477903 C98.1634747,18.7465829 97.7666605,17.6272793 97.8349915,16.6672295 C97.9255508,15.3981367 97.4834569,15.4952528 97.217542,14.6096861 C96.963976,13.7636243 95.3610768,13.8360498 94.7477436,13.5809144 C93.921596,13.2364816 92.1330504,13.5809144 91.8663121,13.5809144 C90.7791892,13.5809144 90.5816054,12.5529657 89.8081468,11.9348797 C88.64693,11.0061046 88.9050239,11.9348797 87.7499815,11.9348797 C86.9682903,11.9348797 86.6381606,13.5224802 86.3092658,13.9924231 C85.306116,15.4248848 85.7321563,14.3220415 84.8685501,14.8154404 C84.6643801,14.9318974 82.7087114,13.5554009 82.3987517,13.3751601 C81.6314677,12.9274386 80.1936334,12.4303361 79.5173203,12.140634 C78.6430117,11.7657496 77.985222,11.3748163 77.0475219,10.9061079 C75.6953073,10.2295877 75.5067794,10.9061079 74.9893566,10.9061079 C74.3994864,10.9061079 74.3035759,11.8661577 73.9602739,12.3463883 C73.8956476,12.4369203 71.8024934,10.9735954 71.6962921,10.9061079 C71.1072452,10.530812 69.5339836,10.4069479 69.0206772,10.2888449 C68.9272365,10.267035 68.8379121,10.2499952 68.7634065,10.2499952 M66.67972,0.00112781594 C66.5101272,0.0229377762 66.3915768,0.380538823 66.075031,0.335272868 C65.9206686,0.313051399 65.4184763,2.02657356 65.3419125,2.22574376 C65.1179841,2.80761704 64.7063511,3.38167166 64.4671923,3.82033991 C64.0773758,4.53430748 63.7558903,4.6297775 63.3092685,5.13181809 C63.012481,5.46596314 62.6329553,5.71533741 62.2933581,6.00627405 C62.2682484,6.0276725 62.2880068,6.00380499 61.9973939,6.58526676 C61.6894924,7.20047225 61.3568928,7.96752443 61.1226736,8.47532615 C60.8164186,9.13908966 60.7641412,9.74935704 60.5439175,10.5201128 C60.3722666,11.1209155 60.3282218,11.9912563 60.2479534,12.5521427 C60.1648035,13.134839 59.9672196,13.7636243 59.8103874,14.4422021 C59.5300653,15.6573872 60.6620562,14.8035067 60.8394701,14.8796358 C60.979837,14.9397161 61.6989599,12.994926 61.7014297,12.9891649 C61.8944856,12.5710721 61.9216534,11.5896239 61.9973939,11.098694 C62.0681948,10.6378043 62.2180292,9.79914959 62.2933581,9.3497821 C62.4082037,8.66009355 63.0128927,8.22101378 63.3092685,7.75518595 C64.1243019,6.47498244 63.6929105,7.87452347 64.1839887,8.03830393 C64.3548164,8.09509213 65.3538499,8.51606551 65.6374651,8.62964191 C66.4072189,8.9374504 65.8535724,7.61938809 65.9206686,7.31816373 C66.0968476,6.5251865 65.5292056,5.92973343 65.3419125,5.27337708 C65.3382078,5.26062031 65.332445,5.25938578 65.3287403,5.24786354 C65.3336799,5.00301587 65.3419125,4.78203571 65.3419125,4.41167789 C65.7967671,4.0326784 66.0182256,3.43064119 66.3578229,2.94588396 C66.6336171,2.55207015 67.5116304,2.14879164 67.8244715,1.92986902 C68.2690352,1.61917996 67.3338049,0.961589085 67.091353,0.476831855 C66.899532,0.0937172699 66.7813933,-0.0124519706 66.67972,0.00112781594" id="Fill-1" fill="#FFFFFF" mask="url(#mask-2)"></path>
        </g>
        <g id="Group-5-Copy" transform="translate(72.000000, 131.000000)">
            <path d="M19.5007728,0 C30.2704791,0 39,8.72986684 39,19.5 C39,30.2701332 30.2704791,39 19.5007728,39 C8.73106646,39 0,30.2701332 0,19.5 C0,8.72986684 8.73106646,0 19.5007728,0 Z" id="Stroke-1" stroke="#E75F52"></path>
            <path d="M19.5,13 C23.0899976,13 26,15.910354 26,19.5007853 C26,23.089646 23.0899976,26 19.5,26 C15.9100024,26 13,23.089646 13,19.5007853 C13,15.910354 15.9100024,13 19.5,13" id="Fill-3" fill="#E75F52"></path>
        </g>
    </g>
</svg>