<?xml version="1.0" encoding="UTF-8"?>
<svg width="232px" height="300px" viewBox="0 0 232 300" version="1.1" xmlns="http://www.w3.org/2000/svg" xmlns:xlink="http://www.w3.org/1999/xlink">
    <!-- Generator: Sketch 64 (93537) - https://sketch.com -->
    <title>22</title>
    <desc>Created with Sketch.</desc>
    <defs>
        <polygon id="path-1" points="0.5 0 234.5 0 234.5 300 0.5 300"></polygon>
    </defs>
    <g id="22" stroke="none" stroke-width="1" fill="none" fill-rule="evenodd">
        <g id="Group-3">
            <mask id="mask-2" fill="white">
                <use xlink:href="#path-1"></use>
            </mask>
            <g id="Clip-2"></g>
            <path d="M199.278957,7.10587507 C199.217157,6.9224593 199.130477,6.47980521 199.086602,6.12258497 C199.02935,5.65857242 198.779474,5.41295013 198.210432,5.26210601 C197.746531,5.13902788 197.305369,5.15931842 197.153678,5.3106965 C196.747564,5.71597328 195.929716,5.61638946 195.929716,5.16172124 C195.929716,4.70918887 196.980317,4.20699808 197.401146,4.45822696 C197.548556,4.54579665 198.150505,4.68195683 198.738809,4.76044917 C199.802786,4.90248293 199.809475,4.91102632 199.890805,6.17144244 C199.941368,6.95583189 199.861376,7.43960101 199.681594,7.43960101 C199.521877,7.43960101 199.34049,7.28929085 199.278957,7.10587507 L199.278957,7.10587507 Z M111.074785,9.11917692 C110.366359,9.01104971 109.426784,8.24054327 110.003584,8.24054327 C110.159823,8.24054327 110.362346,8.3606846 110.453307,8.50752402 C110.544268,8.65436343 110.845242,8.77450477 111.122138,8.77450477 C111.399035,8.77450477 111.700009,8.89464611 111.79097,9.04148552 C111.881931,9.18832493 111.919118,9.29057856 111.873637,9.26868614 C111.828157,9.24652674 111.468593,9.17924759 111.074785,9.11917692 L111.074785,9.11917692 Z M104.820675,22.3672958 C104.721955,22.2076413 104.774926,21.9433303 104.938656,21.7799381 C105.157231,21.5618148 105.23642,21.6389723 105.23642,22.0701462 C105.23642,22.7149047 105.097303,22.8142215 104.820675,22.3672958 L104.820675,22.3672958 Z M142.331158,24.0380613 C141.821241,23.4760668 141.765326,23.0318108 142.172779,22.780582 C142.560701,22.5413672 143.49332,23.4264084 143.49332,24.0337896 C143.49332,24.6646651 142.90127,24.666801 142.331158,24.0380613 L142.331158,24.0380613 Z M102.047164,26.2395846 C102.060005,25.928552 102.12341,25.8652776 102.208753,26.0783282 C102.28607,26.2710883 102.276439,26.5012257 102.187618,26.5898633 C102.098797,26.6785009 102.03566,26.5209823 102.047164,26.2395846 L102.047164,26.2395846 Z M97.1168047,30.5427803 C96.7960331,30.3000948 96.7013265,30.0448612 96.848202,29.8171266 C96.9726046,29.6238326 97.0750696,29.1080258 97.0756047,28.6707113 C97.0780125,26.8979591 98.9365617,27.9026077 99.1639645,29.7992389 C99.2985334,30.9242958 99.2926477,30.9339071 98.4558056,30.9253637 C97.9916364,30.9208251 97.3888854,30.7486225 97.1168047,30.5427803 L97.1168047,30.5427803 Z M22.301303,93.1404222 C22.301303,92.9935827 22.4286485,92.8734414 22.58462,92.8734414 C22.7405916,92.8734414 22.793563,92.9935827 22.7026019,93.1404222 C22.6116408,93.2872616 22.4842953,93.4074029 22.4192849,93.4074029 C22.354542,93.4074029 22.301303,93.2872616 22.301303,93.1404222 L22.301303,93.1404222 Z M32.1264391,112.429247 C31.8928831,112.172145 31.5771945,111.633645 31.4244334,111.232373 C31.2079995,110.665039 30.9174591,110.466672 30.113791,110.338254 C29.3922555,110.223186 28.9529669,109.963146 28.6565408,109.475639 C28.2605925,108.824473 28.268886,108.726491 28.7809434,108.008847 L29.3296529,107.239676 L28.5147485,106.426452 C27.7263298,105.63966 27.6605168,105.623107 26.4873861,105.917854 C24.6767253,106.372789 22.8200488,106.292962 21.6760792,105.710677 C20.7332942,105.231179 20.7076111,105.186861 21.2699647,105.008784 C22.0083547,104.774909 22.8155007,103.847151 22.8275397,103.218946 C22.8390436,102.615035 23.3088309,102.629719 24.9766293,103.285691 C26.7129162,103.968627 26.8493578,103.958482 26.8493578,103.146594 C26.8493578,102.062652 27.7999013,101.804215 29.3489152,102.466861 C30.5183004,102.967183 30.6964771,102.979998 31.4014256,102.61637 C32.465938,102.066924 32.5453952,102.09202 33.1211254,103.158608 C33.622214,104.087167 33.6219465,104.108792 33.0927669,104.827238 C32.797946,105.227442 32.4766393,105.960571 32.3784548,106.456087 C32.2024183,107.344599 32.2115144,107.355011 33.0146474,107.194556 L33.8290167,107.031965 L33.6441517,109.764246 C33.4365464,112.835325 33.0732371,113.473409 32.1264391,112.429247 L32.1264391,112.429247 Z M28.4545536,119.037555 C28.4545536,118.704897 28.6327304,118.503594 28.9275513,118.503594 C29.187593,118.503594 29.8296714,118.212851 30.3540353,117.857233 L31.3075217,117.210606 L32.0881819,117.836676 L32.8688421,118.462745 L31.6649453,119.011391 C31.002802,119.313079 30.0094533,119.562439 29.457801,119.565643 C28.6308576,119.570716 28.4545536,119.477539 28.4545536,119.037555 L28.4545536,119.037555 Z M24.5753304,126.779997 C24.2936185,126.325062 24.7050837,125.979055 25.527479,125.979055 C26.4269238,125.979055 26.5580148,126.364041 25.7968844,126.770652 C25.146245,127.118261 24.7864136,127.120931 24.5753304,126.779997 L24.5753304,126.779997 Z M19.259992,132.515811 C19.0168048,131.883067 18.9980775,131.903357 20.0941587,131.5998 C21.4096167,131.235105 21.6814299,131.247119 21.8464975,131.676691 C22.0725626,132.264048 21.6958766,132.577751 20.530772,132.771846 C19.6428312,132.92002 19.3964336,132.870362 19.259992,132.515811 L19.259992,132.515811 Z M34.0823702,149.940577 L34.0917338,149.07289 L34.4601262,149.737138 C34.8333343,150.409929 34.7827706,150.808264 34.3244872,150.808264 C34.1859053,150.808264 34.0770195,150.417939 34.0823702,149.940577 L34.0823702,149.940577 Z M43.5749632,157.757773 C43.3903656,157.459556 44.7071613,157.059886 44.9795095,157.331672 C45.1825668,157.534577 44.5415586,158.006332 44.0541141,158.01274 C43.8788802,158.015143 43.6632489,157.900074 43.5749632,157.757773 L43.5749632,157.757773 Z M44.2389792,162.584785 C43.3325786,162.426466 43.3034175,162.384016 43.3274955,161.261896 C43.3529111,160.08371 43.6953528,159.630376 44.5667066,159.62262 C45.1526031,159.617561 45.901962,161.040302 45.7933438,161.952041 C45.6986372,162.745775 45.5370475,162.811452 44.2389792,162.584785 L44.2389792,162.584785 Z M41.5893359,162.571169 C41.323141,162.407243 41.31565,162.307926 41.5583021,162.15815 C41.7340711,162.050023 41.9981258,162.08126 42.1452687,162.228366 C42.4938638,162.576242 42.0454791,162.852834 41.5893359,162.571169 L41.5893359,162.571169 Z M44.7480938,172.726316 C44.2186467,172.487902 43.3638799,171.971295 42.8483445,171.578833 C42.3325416,171.186638 41.0502577,170.481275 39.9983193,170.011923 C38.946381,169.542304 38.0857285,169.04038 38.0857285,168.896477 C38.0857285,168.752308 38.380282,168.827329 38.7406484,169.062539 C39.1007473,169.298283 39.5903321,169.416289 39.8287036,169.324981 C40.0670752,169.233674 40.5248236,169.282798 40.8458627,169.43391 C41.1671694,169.585288 42.0318349,169.81142 42.7675497,169.936634 C44.0147868,170.149151 44.0995947,170.212692 44.0214751,170.880144 C43.9216855,171.735551 44.7459535,172.29888 45.7352892,172.050855 C46.1852791,171.938189 46.3792402,172.00173 46.3792402,172.262571 C46.3792402,172.99917 45.749736,173.178048 44.7480938,172.726316 L44.7480938,172.726316 Z M47.3370071,174.87124 C47.2658434,174.756438 47.2760096,174.401353 47.3597474,174.081777 C47.4713085,173.655676 47.7161008,173.501628 48.28327,173.501628 C49.4791409,173.501628 49.2396992,174.450211 47.926114,174.916893 C47.6732956,175.006599 47.4081708,174.986308 47.3370071,174.87124 L47.3370071,174.87124 Z M50.2790635,176.657608 C49.8555593,176.058236 49.8641204,176.035276 50.5425831,175.951177 C51.4658383,175.836909 51.6017448,176.015786 51.1167082,176.706999 L50.7164793,177.27727 L50.2790635,176.657608 Z M49.5896319,194.860088 C49.5896319,194.713249 49.7702164,194.593108 49.9909308,194.593108 C50.2116453,194.593108 50.3922298,194.713249 50.3922298,194.860088 C50.3922298,195.006928 50.2116453,195.127069 49.9909308,195.127069 C49.7702164,195.127069 49.5896319,195.006928 49.5896319,194.860088 L49.5896319,194.860088 Z M0.515050279,249.085748 C0.433720358,248.95466 0.690284156,248.766439 1.08489479,248.667389 C1.47950543,248.568606 2.14084611,248.247161 2.55445157,247.953482 L3.30648581,247.418987 L3.30648581,247.971103 C3.30648581,248.363298 3.13205453,248.525622 2.70453737,248.531763 C2.3735995,248.536301 1.86876542,248.716513 1.5833081,248.932234 C0.985105121,249.383698 0.722923138,249.42161 0.515050279,249.085748 L0.515050279,249.085748 Z M7.81735359,262.93137 C8.16461095,262.642496 8.66703724,262.406218 8.93376728,262.406218 C9.20049732,262.406218 9.75910546,262.124554 10.1748512,261.780149 C10.9207322,261.162355 10.9453452,261.160219 11.9748108,261.619693 L13.0187231,262.085308 L11.5478287,262.779724 C10.5143501,263.267765 9.64700929,263.471739 8.63118787,263.465331 L7.18570903,263.456521 L7.81735359,262.93137 Z M107.767279,268.513403 C107.539074,267.795492 108.0003,267.488464 109.316293,267.482857 C110.25346,267.47912 110.31954,267.531715 110.31954,268.279795 C110.31954,269.049233 110.27299,269.080737 109.133568,269.080737 C108.159482,269.080737 107.915492,268.979552 107.767279,268.513403 L107.767279,268.513403 Z M49.3729304,280.27524 C49.4336604,280.093159 49.7568398,279.843532 50.090988,279.720187 C50.5883312,279.536771 50.6822352,279.580556 50.6094663,279.961538 C50.5605078,280.217839 50.2373284,280.467733 49.8914087,280.516591 C49.4826188,280.574526 49.3012317,280.49016 49.3729304,280.27524 L49.3729304,280.27524 Z M30.527129,284.79469 C30.7045031,284.119229 34.3501703,283.666697 34.7260537,284.273811 C34.8084537,284.406767 35.1166513,284.452688 35.4106697,284.376064 C35.7049556,284.299174 35.9454674,284.313324 35.9454674,284.407835 C35.9454674,284.792287 34.3539158,285.147105 32.4429302,285.188754 C30.6782849,285.227466 30.4270717,285.175672 30.527129,284.79469 L30.527129,284.79469 Z M15.08354,287.569154 C15.0939738,287.203658 17.1603958,285.900525 17.7291702,285.900525 C18.6130981,285.900525 18.3867654,286.326092 17.1036789,287.076575 C15.9433899,287.75524 15.0723036,287.967756 15.08354,287.569154 L15.08354,287.569154 Z M53.6026214,296.713245 C53.6026214,296.468424 53.7321072,296.311439 53.890219,296.364034 C54.0483308,296.416629 54.1778166,296.573881 54.1778166,296.713245 C54.1778166,296.852876 54.0483308,297.010128 53.890219,297.062456 C53.7321072,297.115051 53.6026214,296.958066 53.6026214,296.713245 L53.6026214,296.713245 Z M188.579792,44.7854025 C188.680652,44.3272635 188.64079,43.696655 188.491507,43.3837535 C188.342223,43.0705851 188.141574,42.5750688 188.04553,42.2824579 C187.878322,41.7727917 187.849161,41.7783983 187.358238,42.4159483 C186.454245,43.5901296 186.719905,45.6178484 187.777729,45.6178484 C188.252867,45.6178484 188.438803,45.4248214 188.579792,44.7854025 L188.579792,44.7854025 Z M193.366486,67.081232 C193.599507,66.9923274 193.789455,66.6417817 193.789455,66.3027161 C193.789455,65.9633836 193.917603,65.6432736 194.073843,65.5914794 C194.274492,65.5247342 194.274492,65.27751 194.073843,64.750757 C193.630808,63.5875219 193.719362,63.238578 194.458287,63.238578 C195.008869,63.238578 195.127921,63.1085584 195.131131,62.504381 C195.137285,61.2805412 195.40776,60.6520685 196.084618,60.2905766 C197.880832,59.3313147 197.867455,57.3650015 196.064285,57.3650015 C195.170191,57.3650015 195.126316,57.3241534 195.279345,56.6308044 C195.820831,54.1801881 196.246475,53.1469726 197.014561,52.4186491 C197.474985,51.9821356 198.090578,51.2933252 198.382188,50.8880485 L198.91324,50.1511816 L198.320656,49.1945896 C197.787731,48.3335766 197.645136,48.2561522 196.896044,48.4198114 C196.438296,48.5199292 195.618576,48.6243187 195.074682,48.6518177 C194.503232,48.6806516 193.825572,48.9377541 193.469486,49.2608008 C192.802527,49.8657792 190.176427,50.3185785 189.902206,49.8761914 C189.815793,49.7368275 189.463988,49.6225597 189.120743,49.6225597 C188.408571,49.6225597 188.17127,49.1785707 188.17127,47.8442009 C188.17127,46.9305928 188.152543,46.914307 187.301789,47.0958539 C186.158087,47.3401413 185.763476,47.6848134 185.763476,48.4406359 C185.763476,48.7823713 185.560686,49.1756339 185.312149,49.3141969 C184.888912,49.5504749 184.889715,49.6975813 185.323653,51.6636275 C185.578076,52.8169844 185.87798,54.4845462 185.989809,55.3690534 C186.185108,56.9095323 186.149258,57.0601095 185.13638,58.938853 C184.408958,60.2887077 183.790155,61.0706943 183.15316,61.4458023 C182.285017,61.9568034 182.236058,62.059324 182.370895,63.0821273 C182.482991,63.9332619 182.76176,64.3932698 183.638464,65.1741885 C184.949642,66.3422293 185.36405,66.3953584 186.606204,65.5543691 C187.434218,64.9934425 187.613197,64.9656765 188.449504,65.2670978 C188.958618,65.4507805 189.661427,65.6099011 190.010557,65.6211142 C190.571305,65.639002 190.62722,65.735649 190.485695,66.442347 L190.325175,67.2432893 L191.634212,67.2432893 C192.354143,67.2432893 193.133733,67.1704035 193.366486,67.081232 L193.366486,67.081232 Z M126.371231,66.1508041 C126.371231,66.0287938 126.860816,65.7975885 127.458484,65.6368661 C128.056152,65.4764107 128.718295,65.2785779 128.929913,65.1976828 C129.141264,65.1167876 129.31409,65.153364 129.313823,65.2791119 C129.313555,65.4051268 128.651412,65.7022764 127.842393,65.9401562 C127.033374,66.1777691 126.371231,66.2725473 126.371231,66.1508041 L126.371231,66.1508041 Z M136.805004,75.5909764 C136.805004,74.65334 136.597666,74.1484794 135.729523,72.975633 C135.115,72.1455898 134.369119,71.4511729 133.99056,71.3561278 C133.425799,71.214628 133.32708,71.0349499 133.32708,70.1427002 C133.32708,68.9420878 132.809404,67.5439096 132.167861,67.0131519 C131.763084,66.6778241 131.77111,66.5897204 132.271663,65.888095 L132.815022,65.1266659 L131.198322,64.3121076 C130.030007,63.723682 129.581623,63.6008709 129.581623,63.8694535 C129.581623,64.1487154 129.298841,64.209053 128.441399,64.112673 C127.499416,64.0066816 126.893455,64.1775493 124.961869,65.0932933 C122.807429,66.1147617 122.635673,66.2535916 122.786026,66.8516285 C122.87565,67.2088488 122.828029,67.8480007 122.679816,68.2719661 L122.41041,69.0432735 L125.09617,69.1724922 C127.383307,69.2822213 127.845871,69.3818051 128.213728,69.8436818 C128.451297,70.1416323 129.187279,70.7172428 129.849155,71.1222526 C130.511566,71.5272624 131.511068,72.2676 132.071014,72.767121 C132.630692,73.266642 133.361859,73.7998026 133.696275,73.9517146 C134.048615,74.1119031 134.672234,74.97345 135.180278,76.0013258 C135.995718,77.6515339 136.082398,77.7391036 136.430993,77.2636108 C136.636993,76.9824801 136.805004,76.2298614 136.805004,75.5909764 L136.805004,75.5909764 Z M103.497458,86.7267436 C105.728145,86.1719576 106.306551,85.8967004 106.306551,85.38917 C106.306551,84.8253067 105.351994,84.6154598 102.212499,84.4891779 C100.761402,84.4307091 100.161059,84.4955854 100.243459,84.7014276 C101.208716,87.1117298 101.322953,87.302621 101.729335,87.1843486 C101.966101,87.1154675 102.761743,86.9096254 103.497458,86.7267436 L103.497458,86.7267436 Z M42.3098013,91.312138 C42.5722508,91.145809 42.5866976,90.9154046 42.3697286,90.3464686 C42.213222,89.9355852 42.1532947,89.3850709 42.2364974,89.1231628 C42.3346819,88.814533 42.1752324,88.4984278 41.7824945,88.2239716 C41.1080447,87.7524836 39.5453866,87.6547687 39.2896254,88.0677879 C39.1248253,88.3339677 41.4290839,91.5422754 41.7800867,91.5345469 C41.8817491,91.5323971 42.1201207,91.4322793 42.3098013,91.312138 L42.3098013,91.312138 Z M145.404305,92.8771791 C145.652041,92.8750433 145.919306,92.5720201 146.01749,92.1814273 C146.159282,91.617297 145.991272,91.2723578 145.110019,90.3184356 C144.177401,89.3087144 144.028385,88.9808621 144.028385,87.9345645 C144.028385,86.8920047 143.932341,86.6776191 143.343501,86.4098374 C142.826361,86.1748944 142.693665,85.9570381 142.803085,85.5226604 C142.916519,85.0714629 142.701691,84.7705756 141.808934,84.1306227 L140.66978,83.3144626 L139.363953,84.279598 L138.057859,85.2450004 L139.103644,86.0558209 C141.453383,87.8774306 143.172548,90.3032177 143.624143,92.4342581 C143.757107,93.0629977 143.888733,93.1687221 144.375107,93.0387025 C144.699624,92.9516668 145.162723,92.879048 145.404305,92.8771791 L145.404305,92.8771791 Z M119.551021,98.4800372 C119.628606,98.1129386 119.870991,97.2559304 120.08903,96.5753965 C120.551326,95.1337004 120.594131,94.3065941 120.21798,94.0748548 C120.071105,93.9840813 119.950448,93.4963075 119.950448,92.9911799 C119.950448,92.0850472 119.62272,91.7892326 119.262354,92.3709836 C119.145442,92.559739 118.645691,92.6104654 117.901148,92.5084787 C116.834763,92.3627072 116.696983,92.4091619 116.423297,93.0085337 C116.184123,93.5323499 116.213552,93.877289 116.56509,94.6731586 C116.808812,95.2252748 117.117545,96.457658 117.251043,97.4121142 C117.384542,98.3665704 117.631475,99.5020395 117.799753,99.9356162 L118.10581,100.723476 L118.75752,99.9356162 C119.116281,99.5020395 119.473437,98.8471357 119.551021,98.4800372 L119.551021,98.4800372 Z M67.8829785,105.284576 C68.9761168,104.828572 68.9421402,104.892114 68.5911374,103.970496 C68.4070749,103.487528 68.1331215,103.285691 67.6614615,103.285691 C66.7820817,103.285691 65.9521955,101.837053 66.4112815,101.10339 C66.5766166,100.839079 66.7117206,100.210339 66.7117206,99.7060128 C66.7117206,98.9432488 66.497427,98.6041832 65.4409406,97.6940458 C64.4005062,96.7977915 64.0002773,96.6125068 63.2337963,96.6720435 C62.3865205,96.7377208 62.2894061,96.8290282 62.2123567,97.6299705 C62.1516268,98.260579 62.3247204,98.77425 62.8143052,99.4142028 C63.5874745,100.42606 63.6754927,100.739762 63.1275859,100.529915 C62.6931129,100.363586 62.3921387,101.728392 62.7418038,102.278372 C62.8608558,102.465259 62.9598429,102.98774 62.9622507,103.439472 C62.9678689,104.583484 63.8820279,105.360932 65.3740574,105.490685 C66.0362007,105.548353 66.653666,105.616166 66.7459648,105.642063 C66.8382635,105.667426 67.3500535,105.506704 67.8829785,105.284576 L67.8829785,105.284576 Z M110.861294,105.537673 C111.004691,105.160963 111.122138,104.456134 111.122138,103.971297 C111.122138,103.162346 111.009239,103.043005 109.74702,102.519723 L108.37217,101.949452 L108.540716,103.351635 C108.633817,104.123209 108.710867,105.015993 108.711937,105.33637 C108.714077,105.882879 109.02709,106.054815 110.259345,106.18617 C110.446886,106.206193 110.717629,105.914383 110.861294,105.537673 L110.861294,105.537673 Z M68.846631,108.196001 C69.4381457,107.959723 69.9221122,107.653229 69.9221122,107.5152 C69.9221122,107.290402 69.1845248,105.705604 68.9638103,105.455977 C68.9156545,105.401246 68.3340385,105.673567 67.6718952,106.060956 L66.4674633,106.765518 L67.0175104,107.695412 C67.3198223,108.206947 67.6130381,108.625306 67.6692199,108.625306 C67.7251342,108.625306 68.2548489,108.432012 68.846631,108.196001 L68.846631,108.196001 Z M102.354291,108.955561 L103.351385,107.423892 L102.621824,107.268243 C102.220525,107.182809 101.516379,106.917163 101.057025,106.678482 L100.221788,106.244104 L99.8841623,107.832373 C99.6982271,108.705667 99.3763854,109.56134 99.168245,109.733543 C98.6489641,110.163649 99.1850995,110.485895 100.420833,110.486696 C101.266503,110.486963 101.453776,110.338788 102.354291,108.955561 L102.354291,108.955561 Z M151.238925,121.447323 C151.506725,121.304489 151.801813,120.883994 151.895182,120.512891 C152.035904,119.953299 152.223177,119.838497 152.996079,119.838497 C154.002804,119.838497 154.121321,119.581929 153.666516,118.387457 C153.190308,117.137453 151.105961,117.680225 149.794248,119.396377 C148.98951,120.449082 148.972923,120.5775 149.554539,121.219055 C150.05108,121.766899 150.52167,121.830441 151.238925,121.447323 L151.238925,121.447323 Z M65.8574889,128.406177 C67.112217,126.306907 67.145391,126.18196 66.5728712,125.708069 C66.2403281,125.432545 66.0701773,125.458442 65.6365069,125.850103 C65.124717,126.312247 65.1065248,126.310111 65.1065248,125.786294 C65.1065248,125.48781 64.9205896,125.089475 64.6931869,124.900986 C64.4655166,124.712765 64.3362983,124.411344 64.4053218,124.231666 C64.5765426,123.786075 63.8994175,122.871666 63.2782068,122.709608 C62.821261,122.590268 62.7741753,122.729899 62.8017311,124.123271 C62.8263441,125.359659 62.960378,125.80525 63.4713653,126.347755 C64.038802,126.950598 64.0743839,127.111854 63.7902642,127.796393 C63.5254069,128.434744 63.5494848,128.731359 63.9312539,129.530699 C64.1848749,130.060923 64.4695296,130.447244 64.5639686,130.389043 C64.6584076,130.330574 65.2405586,129.438324 65.8574889,128.406177 L65.8574889,128.406177 Z M153.65956,134.371327 C153.65956,134.288029 153.358586,133.826153 152.990728,133.344786 C152.622871,132.863687 152.321897,132.218929 152.321897,131.912168 C152.321897,131.577107 151.85318,130.971061 151.147963,130.394382 C150.084789,129.525093 149.868355,129.450872 148.860827,129.611595 L147.747891,129.789137 L147.827883,131.021253 C147.904933,132.207448 147.939177,132.253102 148.748196,132.253102 C149.21076,132.253102 149.812708,132.445595 150.085859,132.680805 C151.334166,133.754068 153.65956,134.854296 153.65956,134.371327 L153.65956,134.371327 Z M59.9899631,138.250024 C60.3971478,138.244417 61.1419587,137.850354 61.7623668,137.312921 L62.8324974,136.385697 L62.1906866,135.890181 C61.5989044,135.43311 61.5855278,135.37384 62.0202683,135.131155 C62.4116685,134.912497 62.4389569,134.769129 62.1807879,134.287763 C61.9239565,133.808532 61.9651566,133.573589 62.4180893,132.938976 C63.0085339,132.111335 63.148721,130.53962 62.6738505,130.065996 C62.4624997,129.855081 62.4624997,129.623342 62.6738505,129.229011 C63.0885261,128.455568 63.0826404,128.44916 61.8709851,128.333825 C60.7762415,128.229702 60.7754389,128.230236 59.9982566,129.766443 C59.5707395,130.611705 59.2208068,131.456966 59.2208068,131.64492 C59.2208068,131.832608 58.4883024,132.616997 57.5926032,133.38777 C56.2273841,134.563287 55.7955864,134.789419 54.9172768,134.789419 C54.3415466,134.789419 53.8720268,134.879659 53.8741598,134.989655 C53.8851359,135.517209 54.36937,135.825305 55.3118874,135.904331 C56.2442387,135.982556 56.411179,136.117115 57.0219561,137.284087 C57.6474474,138.47936 57.7590085,138.565328 58.493118,138.418756 C58.9302663,138.33172 59.603646,138.25563 59.9899631,138.250024 L59.9899631,138.250024 Z M150.314332,138.427833 C150.79482,138.07702 150.777163,138.007605 149.896981,136.788304 C149.391612,136.088014 148.708066,135.41629 148.377931,135.295081 C147.873096,135.110063 147.709099,135.208312 147.341777,135.917413 L146.905163,136.75947 L147.998034,137.776934 C149.186682,138.883035 149.549991,138.985289 150.314332,138.427833 L150.314332,138.427833 Z M123.427837,146.537106 C123.702325,146.390534 124.566991,146.17428 125.349791,146.056541 L126.77253,145.842422 L125.898768,145.379478 C125.163856,144.989953 125.068079,144.835638 125.29682,144.40927 C125.682334,143.690024 125.634714,143.332803 125.152352,143.332803 C124.775666,143.332803 124.775666,143.27647 125.152352,142.739572 C125.38136,142.413055 125.568633,141.805673 125.568633,141.389717 C125.568633,140.749765 125.754568,140.551131 126.77253,140.101535 C127.434941,139.809191 127.976427,139.470393 127.976427,139.348383 C127.976427,139.226372 127.783268,138.664111 127.546502,138.098913 L127.116577,137.071571 L126.610138,137.695505 C126.109852,138.31223 126.103698,138.312764 126.103698,137.748634 C126.103698,137.213071 126.018088,137.236031 124.702897,138.119737 C123.932403,138.637413 123.210065,139.061111 123.097702,139.061111 C122.985338,139.061111 122.893307,138.481496 122.893307,137.772662 C122.893307,136.729568 122.761146,136.361402 122.198257,135.837052 C121.815685,135.481166 121.206246,134.607872 120.843204,133.896636 C120.285934,132.803883 120.227879,132.476565 120.468391,131.787488 C121.184576,129.737877 120.182131,129.243161 118.981177,131.053558 C118.320371,132.050197 118.284254,132.257107 118.450125,134.084857 C118.594325,135.67366 118.550717,136.110707 118.219512,136.385163 C117.65261,136.854515 117.703174,137.044873 118.509249,137.475246 C118.893426,137.680554 119.31693,138.134688 119.450162,138.4847 C119.625931,138.945509 119.839154,139.082737 120.224134,138.982352 C120.879589,138.811217 121.214004,139.803852 120.776053,140.620546 C120.45876,141.212442 120.397762,142.844763 120.657269,143.810699 C120.747427,144.147095 121.167186,144.600695 121.589888,144.818818 C122.099537,145.081794 122.358241,145.422996 122.358241,145.831476 C122.358241,146.787 122.627379,146.964543 123.427837,146.537106 L123.427837,146.537106 Z M149.044622,146.67033 L150.181636,146.211657 L150.181636,144.772364 C150.181636,143.230817 150.138295,143.194774 148.644393,143.492992 C147.756452,143.67 146.594826,145.350377 146.835872,146.109136 C146.910514,146.344346 147.032776,146.729333 147.107418,146.96481 C147.182595,147.200287 147.393143,147.33351 147.5756,147.261158 C147.758325,147.188539 148.419666,146.922627 149.044622,146.67033 L149.044622,146.67033 Z M72.9297141,157.282548 C73.3144261,156.878873 73.7047562,156.243459 73.7970549,155.870486 C74.0100109,155.009474 73.5391535,153.745053 73.0054259,153.745053 C72.6908075,153.745053 72.5974386,153.418802 72.5974386,152.316706 C72.5974386,151.160679 72.7469893,150.682516 73.3823794,149.807087 C73.8139095,149.21252 74.0948188,148.653997 74.006533,148.565893 C73.9182472,148.477522 73.1020052,148.405438 72.1929293,148.405438 C70.8798791,148.405438 70.4405905,148.295709 70.0558786,147.871476 C69.7345719,147.517193 69.231878,147.337515 68.5611737,147.337515 C67.7438615,147.337515 67.4415496,147.184535 66.9792532,146.536572 C66.6649024,146.096054 66.2253463,145.73563 66.0024916,145.73563 C65.7793694,145.73563 65.6407875,145.645658 65.6948291,145.535395 C65.7486031,145.425399 65.9489851,145.025461 66.1402709,144.646883 C66.4543542,144.025351 66.4104789,143.843805 65.6878732,142.778017 C64.100067,140.435795 63.8528669,140.311115 60.9003767,140.362643 C58.5220115,140.404025 58.2255854,140.467032 57.6370136,141.05439 C57.0931197,141.596895 57.0449639,141.766961 57.3355043,142.116172 C57.8614735,142.74865 57.0537924,142.664284 56.2049114,141.9979 C55.3266017,141.308288 55.2993134,141.314162 54.7942118,142.288909 C54.2511205,143.336808 54.4541778,143.865964 55.4001732,143.869702 C56.3889738,143.873439 58.4762635,144.518465 59.3513627,145.090605 C59.7379474,145.343435 60.2794334,145.990864 60.5547245,146.529364 C60.9380988,147.279313 61.3134471,147.585807 62.1564424,147.837837 C62.7618688,148.01885 63.4930355,148.092536 63.780633,148.001229 C64.1848749,147.873345 64.3039269,147.961182 64.3039269,148.38755 C64.3039269,148.836078 64.4724724,148.939399 65.2028365,148.939399 C65.6972369,148.939399 66.6665076,149.016557 67.3562067,149.111068 C68.3902204,149.252301 68.6818309,149.420765 69.018387,150.07033 C69.2428469,150.503372 69.387582,150.88916 69.3399612,150.927338 C69.2920729,150.965249 69.0376493,151.111822 68.7741297,151.252787 C68.3211969,151.495206 68.3265476,151.549403 68.870709,152.239815 C69.3923976,152.901394 69.407647,153.012724 69.0341714,153.424676 C68.6601608,153.836894 68.6965452,154.057687 69.4250366,155.798669 C69.8817148,156.89062 70.4215957,157.769254 70.6768218,157.836533 C71.7177913,158.110989 72.2691761,157.975363 72.9297141,157.282548 L72.9297141,157.282548 Z M101.418997,194.467627 C101.74726,193.961698 102.093179,193.032338 102.187886,192.40173 C102.290886,191.713987 102.613798,191.011294 102.995299,190.644195 C103.370113,190.284038 103.631224,189.723112 103.631224,189.278589 C103.631224,188.53478 103.647009,188.527305 104.768238,188.743826 C105.393462,188.864502 106.417042,188.968624 107.042266,188.974765 L108.179279,188.986512 L108.179279,187.95116 C108.179279,187.174247 108.329633,186.815691 108.781228,186.514537 C109.332612,186.147172 109.348664,186.071349 108.971176,185.614545 C108.408555,184.93321 108.481859,180.876972 109.06829,180.224204 C109.290075,179.977513 109.57901,179.35705 109.710636,178.845515 C109.90968,178.072339 110.240886,177.751428 111.673255,176.945413 C113.651927,175.831302 114.0864,174.970556 112.811607,174.689159 C112.397466,174.597851 111.938113,174.48919 111.79097,174.447541 C111.643827,174.406159 111.333221,174.53698 111.100736,174.738283 C110.780232,175.015409 110.371977,175.04718 109.41635,174.869104 C108.168043,174.636296 108.14771,174.644306 107.498141,175.598228 C106.72845,176.728625 106.685109,177.158197 107.275286,177.809096 C107.808479,178.39672 107.580809,179.108224 106.859273,179.108224 C106.56579,179.108224 106.200875,179.34023 106.049184,179.623497 C105.896958,179.90703 105.501545,180.177215 105.170072,180.224204 C104.260194,180.353422 104.25297,181.511585 105.15188,183.107596 C106.003169,184.618707 105.917291,184.976194 104.467264,185.961887 C103.769271,186.436846 103.458933,186.497183 102.755323,186.295613 C100.921119,185.770996 100.078391,185.967227 98.8635253,187.202813 C97.7414934,188.343355 97.7350726,188.360442 98.2621119,188.836469 C98.6131148,189.153375 99.0681878,189.276987 99.5973673,189.199562 C100.89062,189.010006 101.13247,190.436484 99.9992013,191.567415 L99.3097697,192.255424 L99.8978065,193.824737 C100.221521,194.687886 100.561555,195.392715 100.654121,195.39085 C100.74642,195.388977 101.090735,194.973555 101.418997,194.467627 L101.418997,194.467627 Z M50.1466348,255.464719 C51.1662017,255.464719 51.1948277,255.439356 51.1948277,254.530286 C51.1948277,253.980573 51.062399,253.595854 50.8729859,253.595854 C50.6961469,253.595854 50.1846245,253.251448 49.7359722,252.830687 C48.9860783,252.126926 47.5507657,251.460008 46.7858899,251.460008 C46.6119936,251.460008 46.3128922,251.752352 46.1210713,252.109839 C45.7978918,252.712948 45.8650425,252.86753 47.0552952,254.257966 C47.8546827,255.191598 48.4809766,255.700997 48.7180106,255.610223 C48.9272211,255.530396 49.570102,255.464719 50.1466348,255.464719 L50.1466348,255.464719 Z M35.1428695,297.858592 C35.1428695,297.635396 34.9079759,297.155098 34.6211809,296.791203 L34.0994922,296.129091 L35.155176,295.536928 C35.7359894,295.211478 36.5268159,294.532012 36.9125979,294.026885 C37.3657982,293.43392 37.839866,293.109005 38.2513312,293.109005 C38.6427315,293.109005 38.8883264,292.952821 38.8883264,292.703461 C38.8883264,292.407112 39.0638278,292.341702 39.5397684,292.46131 C40.4394807,292.686374 42.089622,291.495907 44.1052128,289.167835 C44.9880705,288.147968 46.3123571,286.965778 47.0480718,286.540477 L48.385735,285.767034 L47.0839212,285.684537 C45.918549,285.610583 45.483541,285.767568 42.9371654,287.183634 C41.372367,288.053724 39.6467815,288.846123 39.1026201,288.944372 C38.5581912,289.042888 37.2641358,289.472727 36.2266442,289.899629 C35.1891527,290.326798 34.3402716,290.577226 34.3402716,290.456551 C34.3402716,290.335876 34.6856562,290.094258 35.1080903,289.919653 C35.5305243,289.745047 36.0072675,289.314941 36.1675195,288.963595 C36.3280391,288.612515 36.9567408,288.071612 37.56511,287.762181 C38.1732117,287.452484 39.4137605,286.745519 40.3214988,286.190733 C41.229237,285.636481 42.4521287,285.026163 43.0385602,284.83447 C43.6252593,284.643312 44.807486,284.012437 45.6659982,283.432821 C46.6962664,282.737604 47.4127188,282.427906 47.7733528,282.521883 C48.6690521,282.755491 51.7068852,281.356512 52.4690856,280.359339 C53.1408601,279.480171 53.1413952,279.476434 52.6630468,278.417855 C52.3992596,277.834502 52.1710543,277.35714 52.1558049,277.35714 C52.140288,277.35714 51.7392566,277.468204 51.2643862,277.604098 C50.4379779,277.840643 50.3395259,277.783509 48.9692237,276.272398 L47.537389,274.693474 L47.2618304,275.58866 C47.0844563,276.165872 47.0775004,276.646705 47.2423005,276.940918 C47.5518358,277.4925 47.3996097,277.670042 46.2930947,278.048087 C45.659845,278.264608 45.4083643,278.537195 45.3075045,279.11601 C45.1782862,279.857148 45.0405069,279.927364 42.3646455,280.620713 C39.6026386,281.336222 38.1662558,281.584247 33.4196918,282.166532 C30.7061083,282.49919 29.7638583,282.943446 29.0787073,284.213206 C28.7809434,284.765322 28.3962315,285.10065 28.0591404,285.102252 C27.7616441,285.103587 26.8838695,285.399669 26.1085599,285.759559 C24.8425955,286.347984 24.5512525,286.38723 23.2456932,286.146414 C21.924082,285.90266 21.6707286,285.939771 20.4505122,286.556763 C18.9841658,287.298436 18.5405967,287.410835 19.0374048,286.915051 C19.2139764,286.738844 19.358444,286.318349 19.358444,285.980619 C19.358444,285.340666 19.3608518,285.340132 22.1303496,285.233073 C23.0263164,285.198632 23.6151558,284.341891 23.6296025,283.05184 C23.6376285,282.324584 23.5255323,282.180415 22.8339605,282.029037 C21.6108012,281.760988 22.0953029,281.45129 23.973917,281.30098 C26.6842902,281.083658 28.0409482,280.179928 28.5893901,278.224828 C28.7381382,277.695672 28.6602862,277.624121 27.9352728,277.624121 C27.1754801,277.624121 27.138293,277.582472 27.449166,277.080281 C27.6342986,276.780996 28.0866962,276.461687 28.4545536,276.370113 C28.822411,276.278538 29.5706998,275.923721 30.117269,275.581719 C30.8339889,275.132924 31.0675449,275.072853 30.9549136,275.365464 C30.8240902,275.705865 30.9888903,275.743776 31.9675247,275.600674 C32.8089148,275.477596 33.3295333,275.204208 33.8252713,274.625126 C34.3338508,274.030827 34.6570303,273.865833 35.0604695,273.993984 C35.3611762,274.089029 35.9443973,274.039104 36.35613,273.88292 L37.1049539,273.598585 L36.5230704,273.191974 C35.945735,272.788299 35.9550986,272.770144 37.7435543,270.799559 C39.0606175,269.347985 39.7273088,268.811354 40.2201039,268.804145 C41.6845775,268.783588 44.0150543,268.030702 44.8719614,267.301311 C45.3612786,266.885088 45.9907829,266.401318 46.2711571,266.226446 C46.7112483,265.951723 46.6170768,265.90687 45.5766423,265.897259 C43.9246283,265.882041 40.6564496,266.766281 39.4683372,267.550404 C37.5228399,268.834314 36.6397146,269.168574 35.343519,269.110906 C34.1535338,269.057777 34.072739,269.096489 34.072739,269.716952 C34.072739,270.165747 33.8822557,270.439936 33.482562,270.566485 C33.1580449,270.66954 32.855198,270.647647 32.8094499,270.517895 C32.5074055,269.661153 32.2749197,269.56237 31.4998776,269.962041 C31.0755709,270.180965 30.2106378,270.498672 29.5779232,270.668739 C28.9446734,270.838538 28.3582419,271.15678 28.2739691,271.375437 C28.0085767,272.065582 26.0550534,272.889752 25.0649151,272.729296 C24.2877328,272.603548 24.1202574,272.682041 23.785574,273.327867 C23.5648596,273.753701 22.8441267,274.345865 22.0979782,274.714298 C20.8079358,275.351314 20.7964319,275.352382 20.9029099,274.795994 C20.9919983,274.330914 20.7648631,274.137353 19.5823688,273.669602 C18.7971605,273.358837 17.8236092,273.027247 17.4188324,272.932469 C16.4546447,272.707137 16.4838058,272.370741 17.4859831,272.151016 C18.0181055,272.034345 18.3279083,271.779646 18.4046901,271.39546 C18.7990332,269.424875 18.7875293,269.131197 18.3000849,268.690678 C18.0261315,268.443721 17.6561338,267.889469 17.4776896,267.45963 C17.0959205,266.539614 17.2331647,266.569516 15.8740989,267.112021 C15.092101,267.424389 14.6383657,267.836607 14.2579343,268.580415 C13.9673938,269.149351 13.62843,269.614699 13.5050974,269.614699 C13.3814974,269.614699 12.7321956,270.096332 12.0620264,270.685025 C10.710719,271.872288 10.394763,271.700085 10.9581867,270.084852 C11.4656961,268.630608 11.0357712,267.547734 9.86317566,267.328276 C9.06245048,267.178232 8.96640626,267.060761 8.87651529,266.11912 C8.78261134,265.13583 8.81872824,265.076026 9.51003258,265.076026 C9.96965365,265.076026 10.3503526,264.876591 10.529867,264.542064 C10.6874437,264.248386 11.0012595,264.008103 11.2273246,264.008103 C11.4533896,264.008103 12.1792057,263.691998 12.8400113,263.305677 C13.8734899,262.700965 14.1372771,262.646501 14.7279891,262.915084 C15.6178027,263.31956 15.7408677,263.162575 15.2635895,262.230812 C15.0498309,261.813521 14.7956749,261.10442 14.6988281,260.655893 C14.5891397,260.146493 14.2236901,259.663525 13.7255443,259.369846 C12.8878996,258.875932 12.8919126,258.401507 13.7341054,258.401507 C14.7619658,258.401507 15.0616023,258.120643 14.89921,257.309556 C14.7464489,256.54786 14.7659787,256.532642 15.8965717,256.532642 C16.6558293,256.532642 17.2387829,256.359905 17.6020922,256.02698 C17.9060093,255.748786 19.4788337,254.95879 21.0974061,254.271582 C23.7368831,253.15053 24.1809873,253.038932 25.4046816,253.189509 C26.7209421,253.351299 26.7985266,253.323533 27.6118258,252.399513 C28.0751923,251.872493 28.4564263,251.235477 28.4585666,250.983447 C28.461777,250.644915 28.519564,250.614747 28.6806187,250.868378 C28.8034162,251.061138 29.0985047,251.134825 29.355336,251.036309 C29.6266141,250.932454 30.0255053,251.05393 30.3371808,251.335595 C30.851111,251.799874 30.8626149,251.784923 30.8832149,250.633702 C30.9019422,249.56044 31.863722,246.306478 31.9116103,247.152807 C31.9281974,247.443015 32.3019405,247.478791 33.7383232,247.329014 C34.7314043,247.225159 36.1774182,247.148002 36.9513901,247.157079 L38.3583443,247.173899 L37.7705751,246.380165 C37.3946917,245.872901 36.9441668,245.586431 36.5222678,245.586431 C36.159226,245.586431 35.4895918,245.306101 35.0342513,244.962764 C34.2704456,244.387421 34.0138818,244.348975 31.7093557,244.462442 C29.3152061,244.580982 29.2191619,244.609282 29.3791464,245.152854 C29.4706426,245.464688 29.6073517,246.140416 29.682796,246.654354 L29.8200402,247.588787 L29.4264997,246.742191 C29.2103333,246.276309 28.7905746,245.765842 28.4938809,245.607523 C27.3440256,244.993467 23.8682416,245.458814 20.879367,246.627122 C19.7059689,247.085795 19.0328568,246.964319 18.0365652,246.114252 C17.1764478,245.380589 17.084149,245.357629 16.6320189,245.766109 C16.1836342,246.171119 16.1119354,246.170585 15.6587352,245.761303 C15.3655194,245.496459 14.7151475,245.31945 14.0353471,245.31945 L12.9012763,245.31945 L13.472726,246.120393 L14.0441757,246.921335 L13.4414247,246.921335 C13.1096842,246.921335 12.5839826,246.682921 12.2733772,246.391645 C11.9622367,246.100102 11.3225662,245.784798 10.8514412,245.690821 C10.046703,245.530098 9.99480171,245.566141 9.99426665,246.287256 C9.99399912,246.990216 9.86558345,247.09247 8.47334361,247.501484 C6.98024397,247.9404 6.94038161,247.937998 6.23034999,247.367994 C5.18295972,246.527538 5.05240379,245.003612 5.90021472,243.509855 C6.26191884,242.872305 6.480493,242.154928 6.39488256,241.885811 C6.28626431,241.54461 6.44143324,241.313137 6.92700497,241.092344 C7.79969643,240.695611 7.76812758,240.689203 7.9265069,241.293648 C8.042081,241.734967 10.1863551,243.108583 10.3845968,242.868567 C10.6259112,242.57649 10.7334593,239.170884 10.5060566,239.030719 C10.0290459,238.736506 10.8123815,238.114975 11.8726133,237.945709 C12.5599046,237.83598 12.9652166,237.59543 13.1519544,237.186416 C13.3023077,236.856961 13.9478639,236.284288 14.5861968,235.913718 C15.9792393,235.105034 19.5379584,233.929518 19.8004079,234.191693 C20.1457925,234.536098 20.0002548,236.100071 19.5253843,237.144233 L19.0547944,238.180118 L19.8087014,238.00311 C20.2231095,237.905662 21.284679,237.735061 22.1675367,237.62373 C24.0935041,237.381045 25.0999619,236.769926 25.7867182,235.426479 C26.2923549,234.437582 26.2920873,234.417024 25.7714688,233.756514 C25.0716034,232.86907 25.1047775,232.719828 25.9798767,232.82048 C26.5903862,232.890695 26.7297707,233.05035 26.7985266,233.760252 C26.8440071,234.230672 26.765085,234.832446 26.6227577,235.097558 C26.4087315,235.496695 26.6388096,235.81547 27.9561403,236.944798 C29.2330736,238.039953 29.863648,238.376883 31.1429891,238.647601 L32.7380187,238.985599 L34.1150091,238.023667 C35.4994905,237.056396 35.9454674,236.990986 35.9454674,237.754818 C35.9454674,238.021798 36.0950182,238.110703 36.3687041,238.006047 C36.6014575,237.916875 37.4441853,237.843989 38.2414325,237.843989 L39.6909243,237.843989 L39.6909243,236.808638 C39.6909243,235.900636 39.5879243,235.730303 38.8554199,235.427814 C37.9174505,235.03989 35.3074021,234.909604 34.4400613,235.207554 C33.9563623,235.373616 33.8097544,235.246267 33.458484,234.354017 C33.0553124,233.329612 33.0590578,233.30505 33.626227,233.301846 C35.5925919,233.289298 36.1557481,232.059584 35.6867634,228.802419 C35.5310594,227.720613 35.3376333,226.729581 35.2573735,226.599828 C35.1771137,226.470075 34.6910069,226.363817 34.1776118,226.363817 C33.2281384,226.363817 31.6916985,225.730272 31.3345424,225.192038 C30.7588122,224.32355 31.5854881,223.880896 34.3678275,223.567461 C35.1923631,223.474284 36.4454859,223.224924 37.1525747,223.012408 C37.8596634,222.799891 38.7789056,222.626086 39.1951864,222.626086 C39.8696361,222.626086 39.9704959,222.511552 40.1208493,221.572313 C40.2722728,220.628537 40.4049689,220.479561 41.3951072,220.142899 C42.3464533,219.819585 42.6816717,219.819852 43.799423,220.144767 C44.5137352,220.352745 45.1616992,220.459271 45.2395512,220.381579 C45.3174032,220.303888 45.22992,219.876185 45.045055,219.431128 C44.807486,218.858454 44.5273793,218.621375 44.0883583,218.621375 C43.2124564,218.621375 43.0936719,218.283645 43.3101058,216.404634 C43.4797215,214.932769 43.6166982,214.642828 44.5517248,213.77781 L45.6031281,212.805467 L47.1283316,213.203535 C47.9670464,213.422726 49.1867277,213.542066 49.8387048,213.469181 C50.6132118,213.382412 51.3320719,213.483064 51.9123502,213.759389 C52.7788884,214.17134 52.8198209,214.163598 53.574798,213.441949 C54.3172011,212.732047 54.4292973,212.708286 56.3164725,212.862066 C62.7458168,213.385349 61.943754,213.459035 64.2439996,212.133476 C65.8714006,211.195306 66.6665076,210.908034 67.985711,210.780685 C68.9070934,210.692047 70.157541,210.366597 70.764305,210.057701 C71.5385444,209.663637 71.9229888,209.586213 72.0540798,209.797661 C72.1814254,210.003237 72.4500281,210.019255 72.9008206,209.848121 C73.2638624,209.710359 73.8767797,209.65803 74.2628293,209.731717 C74.8706634,209.847587 75.084422,209.683127 75.8546485,208.508144 C76.8364932,207.009848 76.8354231,207.010115 80.5161371,206.738062 C82.3992993,206.598431 82.8046113,206.649424 83.61363,207.125718 L84.544376,207.67383 L85.8448522,206.751144 C87.2197024,205.775596 87.1972296,205.717929 85.3218259,205.405027 C84.7423502,205.30838 83.5986481,204.895094 82.7802658,204.486613 C81.4163844,203.805812 81.2141298,203.772707 80.3558851,204.087477 C79.0963414,204.549087 76.9140777,204.595541 77.3595195,204.151019 C77.809777,203.701957 77.7589458,201.82882 77.2393974,199.72074 C76.9967453,198.736115 76.7720179,197.89646 76.740449,197.855345 C76.6623295,197.753359 72.5974386,199.949275 72.5974386,200.093178 C72.5974386,200.155652 72.7477919,200.447995 72.9318544,200.742475 C73.2197195,201.203284 73.1258156,201.550626 72.256602,203.236609 C71.1658715,205.352699 68.8479687,208.105003 67.4097133,208.99218 C66.7628193,209.39105 66.0653618,209.54403 64.8938363,209.54403 C63.3726458,209.54403 63.2260379,209.600363 62.5160063,210.460308 C61.5745589,211.600048 60.4677764,212.080614 60.0209969,211.543716 C59.6229083,211.065019 59.8195448,210.760928 60.7856052,210.361792 C61.4664757,210.080127 62.3584295,208.848545 62.0815333,208.57222 C62.0253514,208.516154 61.0574183,208.613335 59.9305709,208.788207 C58.4190115,209.022616 57.660824,209.289864 57.0401483,209.807006 L56.1987581,210.508097 L53.7636761,209.601164 C51.1025289,208.610398 50.0267802,207.796107 49.5751851,206.429699 C49.2742109,205.519562 49.0890783,205.429856 48.0721868,205.702177 C47.5130436,205.851686 47.5055526,205.898408 47.8763529,206.947108 C48.2503635,208.004352 48.2404648,208.058282 47.5510332,208.77646 C47.0914121,209.255423 46.5938014,209.501847 46.1416713,209.474882 C45.7572269,209.451921 44.6282391,209.60063 43.6322151,209.805404 C41.8287776,210.176507 41.8207517,210.181847 41.6591619,211.1905 C41.5270008,212.016271 41.4183826,212.159373 41.0721953,211.965812 C40.7813874,211.803488 40.2316078,211.93858 39.331628,212.393782 C38.1943468,212.969126 37.8042842,213.034803 36.4553846,212.878352 C35.1725656,212.729911 34.7621706,212.786511 34.1495208,213.19686 C33.3827723,213.709997 31.8249298,213.737229 31.9929403,213.234505 C32.0435039,213.082593 33.2029904,212.444776 34.5695471,211.817104 C36.7475303,210.81646 37.3896086,210.346841 39.7770699,208.00889 C41.2747175,206.542365 42.7603263,205.261658 43.0781551,205.16341 C43.6688671,204.980795 44.856712,203.621329 45.5766423,202.304313 C45.7973568,201.900905 46.4913364,201.199813 47.1192355,200.746747 C48.2169219,199.954615 48.2907609,199.93913 49.0580445,200.335063 C49.7819879,200.708569 49.9176269,200.706433 50.5206455,200.312102 C51.6089682,199.600332 52.2649582,198.284117 52.2649582,196.81065 C52.2649582,195.72564 52.3912337,195.370823 52.9658938,194.839798 C54.0614399,193.828208 54.9402846,192.281054 54.9402846,191.364776 C54.9402846,190.671961 55.2618588,190.231176 56.8130131,188.797756 C58.6531025,187.09789 58.9497962,186.513469 58.5292349,185.419382 C58.4080426,185.103811 58.2221075,185.069637 57.7041643,185.266135 C57.3363069,185.405499 56.9117326,185.443143 56.7603091,185.3497 C56.6088857,185.256524 55.8365189,185.194851 55.0438197,185.213273 C54.2511205,185.231428 53.6026214,185.181769 53.6026214,185.103544 C53.6026214,185.024784 54.0670581,184.514584 54.6347623,183.969944 C55.3116199,183.320646 55.8314358,182.473783 56.1441815,181.511051 C56.9925275,178.898644 59.2141185,174.762578 60.4506543,173.492017 C61.1836937,172.738864 61.7596915,171.832198 61.9739852,171.093729 C62.1989801,170.317616 62.5561362,169.773242 63.0042533,169.522013 C63.6498096,169.160521 63.8175525,169.211248 65.8689928,170.392103 C67.874685,171.546528 68.0956669,171.61621 68.6505296,171.268868 C68.9820026,171.061157 69.7139719,170.745319 70.2773956,170.566976 L71.301243,170.242861 L70.7487881,169.656038 L70.1963332,169.069214 L71.7311679,169.295614 C75.96942,169.920882 75.9116329,169.933431 74.7893335,168.62923 C74.4246865,168.205531 74.4388657,168.162013 74.9418271,168.162013 C75.2468143,168.162013 75.6569418,168.10221 75.8527757,168.029057 C76.0769681,167.945492 76.3755345,168.2923 76.6575139,168.963489 C77.0617557,169.926222 77.199535,170.030879 78.0620602,170.030879 C78.5880294,170.030879 79.0182219,169.976681 79.0182219,169.91047 C79.0182219,169.844259 78.8900737,169.194695 78.7338347,168.466638 C78.474328,167.258817 78.5107125,167.021738 79.1530583,165.757318 C79.5401781,164.994821 79.8106535,164.324966 79.7542042,164.268633 C79.6977548,164.2123 79.2571285,164.279312 78.7753022,164.417341 C77.838938,164.68539 76.4317163,164.516658 76.1772928,164.106042 C76.092485,163.968814 76.2152824,163.644699 76.4504436,163.385461 C76.6856048,163.125955 76.8779608,162.712936 76.8779608,162.467581 C76.8779608,162.135724 77.11767,162.021456 77.814325,162.021456 C78.6987879,162.021456 78.7506892,161.971798 78.7506892,161.1236 L78.7506892,160.225743 L76.9448439,160.046065 C75.9517628,159.947283 75.018609,159.860781 74.871466,159.853839 C74.7243231,159.847165 73.8815953,160.142445 72.9987376,160.510345 C71.5853626,161.099304 70.2808735,161.279249 62.0791255,162.016917 C56.956143,162.477459 52.4455428,162.817326 52.0552127,162.771672 C51.0958406,162.659807 50.1246972,161.187942 50.1246972,159.846097 C50.1246972,159.280632 50.025175,158.817687 49.9037152,158.817687 C49.4012889,158.817687 48.553478,160.083176 48.4726831,160.953533 C48.4044623,161.68773 48.2565168,161.906387 47.7821814,161.973666 C46.8439444,162.106623 46.5633027,161.051515 47.2412304,159.938205 C47.7535554,159.096415 47.7744229,158.357946 47.3190824,157.183498 C47.1965525,156.868194 47.4822773,156.556894 48.3723584,156.036281 C49.4625539,155.398731 49.5749176,155.244951 49.4208188,154.600459 C49.188868,153.631586 48.8199405,152.94411 48.5318078,152.94411 C48.4020545,152.94411 48.1053608,152.871225 47.8726074,152.782053 C47.5464851,152.657106 47.4493708,152.798339 47.4493708,153.396109 C47.4493708,153.823011 47.3049032,154.316391 47.1283316,154.492599 C46.676469,154.943529 45.844175,154.891468 45.844175,154.412505 C45.844175,154.192245 46.0097777,154.012033 46.2120324,154.012033 C46.414287,154.012033 46.6550664,153.636658 46.7470976,153.177719 C46.9900173,151.96616 46.9795835,151.931185 46.2291544,151.440475 C45.5488189,150.995952 45.5330345,151.00316 44.1020024,152.413353 C43.0107368,153.488751 42.5800093,154.146592 42.3301338,155.120271 C42.0518999,156.203144 41.8705127,156.445029 41.1797435,156.651939 C39.3383163,157.204322 39.2361189,157.186969 38.2114689,156.139603 C37.229089,155.135488 37.2098267,155.129348 36.204439,155.483364 C35.306867,155.799737 35.142602,155.789324 34.7841083,155.393659 C34.4502275,155.025225 34.4309652,154.750769 34.6760251,153.835559 C34.9641577,152.757758 35.0532461,152.687542 37.6665049,151.48159 L40.3597559,150.238261 L39.6315321,149.851138 C39.0151369,149.523553 38.9279213,149.342273 39.0630252,148.66788 C39.2056201,147.956109 39.1526487,147.871476 38.5619366,147.871476 C38.1983598,147.871476 37.6833594,148.111759 37.4168969,148.405438 C37.1504344,148.699116 36.6504159,148.939399 36.3052988,148.939399 C35.5626282,148.939399 35.5222308,148.75278 36.1223065,148.091201 C36.7304082,147.420279 36.5409951,147.332442 35.1340409,147.631994 C33.9191752,147.890432 33.6489673,148.200129 33.155102,149.900263 C32.9544526,150.590408 31.8952909,151.117695 31.3727996,150.78744 C31.1657294,150.656619 30.609529,150.547691 30.1370664,150.545288 C29.183045,150.54075 29.039915,150.416604 27.9251065,148.62009 C27.17441,147.410667 27.1107372,147.371688 26.1286249,147.522532 C25.5686791,147.6085 24.9546917,147.800993 24.764476,147.950502 C24.5266395,148.137923 24.3222445,148.126443 24.1092885,147.913659 C23.9388702,147.743592 23.4021998,147.604495 22.916628,147.604495 C21.8173364,147.604495 21.8026221,147.312151 22.8569683,146.426843 C23.8120598,145.624833 24.1124989,145.591194 25.4274218,146.139572 C25.9603468,146.361967 26.4081965,146.511476 26.4223757,146.471963 C26.4362874,146.432717 26.7883604,146.024236 27.2043736,145.564762 L27.9604208,144.729113 L26.3348925,143.086647 C25.1012996,141.840381 24.7090967,141.258096 24.7090967,140.673408 C24.7090967,139.540876 23.5319531,138.262572 22.4781421,138.250825 L21.6324714,138.241213 L22.301303,137.867707 C22.7266799,137.630362 23.3706309,137.547864 24.0702288,137.641575 C25.0617047,137.774264 25.1861074,137.726208 25.3287023,137.156738 C25.4819985,136.544818 25.559583,136.527464 27.7734155,136.611296 C29.0308189,136.658552 30.0597494,136.589671 30.0597494,136.457515 C30.0597494,136.32536 29.7587752,135.935301 29.3909178,135.590362 C29.0230605,135.245422 28.7220863,134.693573 28.7220863,134.363585 C28.7220863,133.397649 29.9570169,133.291123 31.6018076,134.11556 L32.9656889,134.799031 L34.4606613,134.139054 L35.9559012,133.479345 L35.7828076,132.332395 C35.6843556,131.681229 35.3317476,130.886695 34.9673681,130.495034 C34.4189262,129.906074 34.318869,129.514681 34.285695,127.825226 C34.2640248,126.736479 34.3878924,125.583122 34.560986,125.262478 C34.7338121,124.941834 34.8753369,124.216448 34.8753369,123.650715 L34.8753369,122.621772 L37.5166866,121.757822 C39.6628334,121.05593 40.2939429,120.945399 40.8827822,121.168862 C41.3819981,121.358419 42.1586454,121.355749 43.3820721,121.160853 C44.7339145,120.945132 45.3037591,120.956346 45.7735464,121.207041 C46.2304921,121.451061 46.4680611,121.458536 46.6911833,121.235875 C46.8591938,121.068211 47.3375422,121.004402 47.7736203,121.091438 C48.9202652,121.32024 50.6624378,120.666939 50.955386,119.898301 C51.2304095,119.176385 51.0733679,118.770574 50.5193078,118.770574 C50.3122375,118.770574 49.7201878,118.569538 49.2035823,118.323648 C48.4571662,117.968297 48.3263428,117.801434 48.5676572,117.511226 C48.7851612,117.249852 48.7891742,117.064033 48.582639,116.857924 C48.1519115,116.428085 48.4938182,115.833786 49.1717459,115.833786 C49.9625724,115.833786 50.6156195,114.688706 50.1463673,114.124575 C49.8986321,113.826625 49.893549,113.595152 50.1246972,113.163978 C50.6375572,112.207653 50.074401,111.899024 47.5058202,111.727622 C42.4574793,111.390425 41.2632136,111.400838 41.0483849,111.784489 C40.724938,112.361167 37.5236425,113.682188 36.429434,113.690465 C35.8863427,113.694736 35.3675969,113.818081 35.2766358,113.964921 C35.0775916,114.286633 34.8560745,114.296244 34.3943132,114.0039 C34.1152767,113.827159 34.1572793,113.36902 34.6083393,111.67209 C34.917072,110.51019 35.2886748,109.109075 35.4342126,108.558561 C35.6576023,107.712232 35.8108985,107.55765 36.4240833,107.558451 C37.4444528,107.559786 38.8104744,108.463248 39.4645917,109.569617 C39.9242128,110.346798 40.0876752,110.452522 40.4132625,110.182871 C40.7072808,109.939385 40.7610549,109.556268 40.6267535,108.66295 C40.3966754,107.130214 39.7570049,106.102338 39.2794591,106.497736 C38.831877,106.868572 38.6347055,106.543657 38.2446429,104.790661 C38.0180428,103.772397 37.8058894,103.400492 37.4112787,103.331077 C36.6546965,103.197587 35.9577739,102.217768 35.9550986,101.283335 C35.9513532,100.025055 36.2194209,99.3415841 36.7726783,99.1971475 C37.0541227,99.1239948 37.2831306,98.8311169 37.2831306,98.5451805 C37.2831306,98.2597781 37.6442997,97.5285178 38.0857285,96.9206026 C39.0012252,95.6593855 39.0416226,95.4687613 38.4905054,95.0122242 C38.0167051,94.6197625 36.7480653,94.8696565 36.7480653,95.3555614 C36.7480653,95.5403121 36.507286,95.8972654 36.2130001,96.1487613 C35.9187142,96.4002571 35.6779348,96.8431782 35.6779348,97.1331193 C35.6779348,97.7461071 34.9352642,98.2130564 33.9603753,98.2130564 C33.4641022,98.2130564 33.1064111,97.9423379 32.6483952,97.220422 L32.0186234,96.2275206 L33.4536685,95.6455025 C35.7293011,94.7225501 35.8547739,94.5361975 34.8172823,93.6191186 C34.2431573,93.1118552 34.0548143,92.7941481 34.2733885,92.7023067 C34.7784901,92.490324 34.6741523,91.5844583 34.1040403,91.229107 C33.6107101,90.9218121 33.6107101,90.8977838 34.1029702,90.0920359 C34.7576225,89.0209092 34.7391628,88.8687301 33.954222,88.8687301 C33.5173412,88.8687301 33.1492163,88.6132296 32.8444966,88.0984907 C32.593551,87.6747922 31.9974883,87.1421656 31.5194075,86.914698 L30.650194,86.5011448 L30.5201731,87.3512115 C30.4484744,87.8186948 30.5065289,88.3462488 30.6491238,88.523257 C31.0461423,89.0163705 30.6253134,89.4438067 29.8334168,89.3516983 C29.2317359,89.2817494 29.1362268,89.3607757 29.2071229,89.869908 C29.2598269,90.2479527 29.1512086,90.4706146 28.9141747,90.4706146 C28.7068369,90.4706146 28.3285457,90.701019 28.0733196,90.9824167 C27.6947609,91.3999746 27.66667,91.6010111 27.9210935,92.0754359 C28.1816703,92.5616079 28.1415404,92.754101 27.6749635,93.2496173 C26.9397838,94.030536 26.9708176,94.4275364 27.8373558,95.3301983 C28.7111174,96.2403357 28.429138,96.6528209 27.1168904,96.3837043 C25.8744689,96.1290047 25.7912662,95.3582313 26.6944564,92.4670967 C27.0740852,91.2526013 27.3844231,89.883524 27.3844231,89.4245841 C27.3844231,88.7937085 27.547618,88.5163155 28.0532547,88.2861781 C28.9724968,87.8680863 28.9724968,86.6899002 28.0532547,86.1989226 C27.6853973,86.0024248 27.3844231,85.7367789 27.3844231,85.6086282 C27.3844231,85.1227232 29.1520112,83.0127743 29.7922168,82.7345804 C30.1600742,82.5749259 30.7157395,82.0818125 31.0271474,81.6391584 L31.592979,80.8344784 L32.4595172,82.1816633 C33.1395851,83.239174 33.4782815,83.5299161 34.0336792,83.5333868 C34.4232067,83.5355226 34.905033,83.6404461 35.1046124,83.766995 C35.5998153,84.0801634 35.277706,85.4527114 34.6112822,85.8678665 C34.1786819,86.1372501 34.0339467,86.1004067 33.7094297,85.6379961 C33.4608918,85.2842466 33.0978501,85.1189855 32.6944108,85.1761194 C32.1823534,85.2484711 32.076678,85.4094605 32.1229611,86.0462096 C32.2101768,87.2420164 32.7928628,87.6286045 34.6891342,87.7492798 C36.2935274,87.8509995 36.4074963,87.8184279 36.8633719,87.1242779 C37.2098267,86.5967239 37.3077436,86.068636 37.2141072,85.2380589 C37.1135149,84.3476781 37.1948448,83.9840503 37.5707282,83.6444508 C38.0249986,83.2343684 38.1946143,83.2503872 40.0783116,83.8825976 C42.1607856,84.5812863 42.3544793,84.5545882 41.7372815,83.655397 C41.5385047,83.3657229 41.2958526,82.7994567 41.1979357,82.3971167 C41.0537356,81.8052204 40.7939614,81.6089895 39.8367296,81.3684399 C39.1860903,81.2050477 38.4471651,80.8432888 38.1946143,80.5648278 C37.7604088,80.0858644 37.7612114,80.0297984 38.2103987,79.5345491 C38.7791731,78.9071443 40.2011091,78.4030847 41.401528,78.4030847 C41.8809465,78.4030847 43.1340694,78.8355935 44.1857402,79.3642154 C46.0573985,80.3047886 48.0933219,80.6534654 48.2963791,80.0685106 C48.3509558,79.9123269 49.3649045,79.9854796 50.8868976,80.2551302 C53.2045329,80.6660135 53.4059849,80.6665475 53.6336552,80.2604698 C53.8541021,79.8674741 53.9739567,79.8621345 54.8025053,80.2076076 C55.3102822,80.4193233 56.0005164,80.5949967 56.3362699,80.5982004 C56.6720234,80.6014042 57.4791693,80.8451576 58.1300762,81.1399044 L59.3133731,81.6754678 L60.136571,80.8852047 L60.9597689,80.0946747 L62.6182037,80.8107171 C64.1476878,81.4712275 64.2897477,81.6044509 64.4475919,82.5279373 C64.6051686,83.4516907 64.6878362,83.5291151 65.5145121,83.5291151 C66.3901464,83.5291151 66.4070009,83.5504736 66.2577177,84.4696883 C66.1469592,85.1499553 66.2333723,85.5520283 66.5704634,85.9236655 C67.0145676,86.4135751 67.0086818,86.4757817 66.4433854,87.2679136 C66.1175306,87.7247176 65.9029694,88.1505519 65.9669097,88.2146273 C66.03085,88.2784357 66.5479906,88.4909524 67.11623,88.6874502 C68.0903163,89.023846 68.2042852,89.1845684 69.1026598,91.4859424 C69.6270237,92.8288556 70.1190163,93.9306852 70.1963332,93.9344229 C70.2733826,93.9381606 70.5502789,92.9060131 70.8113907,91.6402573 C71.1059442,90.2113763 71.8569083,88.0867435 72.793005,86.0336615 L74.3002838,82.7281729 L76.9485894,82.7281729 C79.5581027,82.7281729 79.613482,82.7415219 80.711971,83.6292329 C81.9319198,84.6151928 83.3396766,85.3979804 83.8921314,85.3979804 C84.0860926,85.3979804 84.7073034,85.084545 85.2723323,84.7011606 C86.1412783,84.1119341 86.4010525,84.0499946 86.9524373,84.3006895 C87.310931,84.4635477 88.1951264,84.5970381 88.9169294,84.5970381 C90.7465851,84.5970381 91.5470428,85.0186007 91.7479598,86.0881256 C91.864604,86.7085889 92.2220276,87.177941 92.9748644,87.6985535 C93.5591557,88.1024954 94.2124704,88.7715491 94.4267641,89.1851023 C94.9112657,90.119535 95.1632814,90.1307481 95.5720713,89.2352947 C95.8588663,88.607356 96.0030664,88.5488872 96.9525397,88.67597 C98.1556339,88.8369594 98.5727173,88.509641 97.7345376,88.0619143 C97.4260724,87.8971872 96.5183342,87.1701986 95.717609,86.4466808 C94.9171514,85.7231629 94.1490652,85.1309996 94.0107508,85.1309996 C93.6008908,85.1309996 94.512642,83.1772345 95.2197308,82.5407524 C95.5870531,82.2099632 95.872778,81.6554442 95.872778,81.2725938 C95.872778,80.5058251 96.1809756,80.3984988 96.6753759,80.992798 C96.9825033,81.3620324 99.0831696,81.5868301 99.0831696,81.2504344 C99.0831696,80.8326095 98.1098859,79.729712 97.3005996,79.230458 C96.1587704,78.5264298 94.5733719,78.6943607 93.3143634,79.6525546 L92.4769862,80.2901046 L92.0708717,79.4400379 C91.5794142,78.4108271 91.7273598,76.6797239 92.2685783,77.1277176 C92.5136382,77.33089 92.6663993,77.331424 92.7913371,77.1295865 C92.8884514,76.9726018 93.5463142,76.5521071 94.2531354,76.1946199 C94.9599566,75.8368657 95.6100609,75.3587032 95.6972766,75.1315026 C95.7844922,74.9045689 96.1504768,74.7187503 96.5105758,74.7187503 C97.4517556,74.7187503 99.3507022,72.2959 99.3507022,71.0947536 C99.3507022,70.4860375 99.5342296,70.0820956 99.9398091,69.798829 C100.481295,69.4202503 100.575734,69.4311965 101.11615,69.937926 L101.703384,70.4887073 L103.804318,69.5171643 C105.697111,68.6420014 106.053197,68.5627082 107.399154,68.7164891 L108.893056,68.8873568 L109.338766,67.7227867 C109.856174,66.3710632 109.900317,65.7444593 109.496075,65.4950993 C109.33181,65.3936466 109.791163,64.9253624 110.566205,64.404483 C111.704557,63.6393161 111.924736,63.3589863 111.924736,62.6733798 C111.924736,62.1242004 112.232666,61.4962616 112.8611,60.7633995 C113.376101,60.1629598 113.797465,59.3929873 113.797465,59.0523198 C113.797465,58.328535 113.986343,58.2791436 114.607821,58.8403371 C115.013935,59.2071687 115.121751,59.1967564 115.691596,58.7364816 L116.32431,58.2249465 L115.689723,56.872689 C115.152785,55.7289434 114.981297,55.5594107 114.57759,55.7751311 C114.31514,55.915296 113.901267,56.0300977 113.65808,56.0300977 C113.414893,56.0300977 112.345297,56.6308044 111.281053,57.3650015 C109.513732,58.5843026 108.179279,59.0576595 108.179279,58.4654961 C108.179279,58.3368114 108.359864,57.7999131 108.580578,57.2726262 C109.08461,56.0688099 109.088088,56.1056533 108.438518,55.7585783 C107.964183,55.5054806 107.537468,55.7679226 105.08794,57.8183348 C103.544276,59.1107886 101.97386,60.6299091 101.598511,61.1940394 C100.814908,62.3711576 100.611584,62.3527359 100.857446,61.1267603 C100.99576,60.4360811 101.315462,60.103957 102.464515,59.4567957 C103.741448,58.7375495 103.898757,58.5533328 103.898757,57.7750839 L103.898757,56.9012559 L102.412881,57.2459281 C101.595836,57.4354844 100.758191,57.7304981 100.551924,57.9013658 C100.107017,58.2697993 99.6182349,58.0353902 99.6182349,57.4539061 C99.6182349,57.1599603 99.4438036,57.0820019 99.0162864,57.1845225 C95.7933208,57.9576988 95.1378658,57.996144 93.0345242,57.5350682 C91.8833313,57.2825044 90.8728605,56.9653313 90.7891228,56.830239 C90.7056526,56.6954138 90.0394964,56.3219077 89.3088647,56.0004629 C87.2183647,55.0809812 86.2175251,54.2167645 86.4002499,53.4897759 C86.4973643,53.1034547 86.4109512,52.794825 86.1653563,52.6519903 C85.9515977,52.5275773 85.6926261,52.1556731 85.589626,51.8251509 C85.4176025,51.2719668 85.486626,51.2244442 86.462585,51.2244442 C87.5835468,51.2244442 87.8467989,50.9409107 87.8467989,49.7341577 C87.8467989,49.2565291 87.9928717,49.0885982 88.4080823,49.0885982 C88.7406254,49.0885982 89.4889142,48.5276716 90.2444264,47.7117785 L91.5194869,46.3349587 L94.5302992,46.4935453 C97.0362774,46.6254338 97.6368882,46.7415704 98.1114911,47.1863604 C98.5673667,47.6137965 98.9114136,47.69042 99.8253051,47.5678758 C100.454274,47.4835099 101.027597,47.3198507 101.099296,47.2042481 C101.291384,46.8940164 99.6880609,45.8327679 98.7179876,45.6277267 C97.8848909,45.4517864 97.8838208,45.4496506 98.5761953,45.3116215 C99.1101904,45.2053632 99.6326816,45.443777 100.806882,46.3296191 C102.516416,47.6194031 102.697268,47.6797408 102.94313,47.0403219 C103.214409,46.3346918 101.352649,44.6350923 99.0162864,43.4553044 C96.836163,42.3542757 96.3187549,41.6131372 97.7302571,41.6131372 C98.2364288,41.6131372 98.663946,41.4048922 98.9269305,41.0300512 C99.2942528,40.5070359 99.4042088,40.4835416 99.9994689,40.8015157 C100.449994,41.0420653 101.125781,41.1013351 102.106556,40.9865333 C103.115689,40.8679939 103.928988,40.9459523 104.809171,41.2452377 C106.234584,41.7298078 106.440852,41.6497135 106.202748,40.7027328 C106.07674,40.201343 105.801984,39.9909621 105.100514,39.8598746 C104.35062,39.7194427 104.16629,39.562191 104.16629,39.062937 C104.16629,38.2390344 104.445059,38.106345 105.526426,38.4157757 C106.283008,38.6322971 106.513086,38.5887792 106.957725,38.1453242 C107.485567,37.6185712 107.485567,37.6140325 106.937393,36.8785005 C106.21987,35.914967 104.869098,35.7288814 104.4373,36.5338284 L104.137931,37.0923521 L102.842271,36.3888578 C101.634093,35.7323522 101.223431,35.0948021 101.223431,33.8747001 C101.223431,33.7665729 101.828322,33.6066514 102.567515,33.5193487 C104.472615,33.294017 104.6021,33.1386342 103.689279,32.1721638 C103.254271,31.7113551 102.560024,30.7462197 102.146418,30.0275075 L101.394652,28.7206367 L102.379172,28.9048534 L103.363692,29.0893371 L103.363692,27.6086619 C103.363692,26.1496121 103.374928,26.1282536 104.148097,26.1282536 C104.731586,26.1282536 105.086334,25.9058586 105.532846,25.2605662 C105.862982,24.7834716 106.161816,24.3530986 106.19713,24.3045081 C106.232177,24.2559176 106.511748,24.3501618 106.818608,24.514355 C107.440087,24.8459451 107.51018,24.6446416 107.125201,23.6343864 C106.906091,23.0593099 106.957993,22.9533185 107.529175,22.8102168 L108.184362,22.6462906 L107.622544,21.5473979 C107.087746,20.5013673 107.08186,20.4023174 107.498944,19.4839036 C107.739723,18.9534129 108.141825,18.2533894 108.392503,17.9282068 C108.830721,17.3592708 108.917669,17.3491256 110.688735,17.6545515 L112.52936,17.9722586 L113.333028,17.0445005 C113.791579,16.5148107 114.044397,16.3455449 113.9216,16.6504369 C113.803083,16.9441158 113.654602,17.6951326 113.591197,18.3190666 C113.478833,19.4257018 113.495688,19.4537348 114.27287,19.4537348 C115.157868,19.4537348 115.47757,19.160056 115.850778,18.0045633 C116.140515,17.107241 116.297825,17.0068562 118.479018,16.3260553 L120.084214,15.8251994 L120.268812,14.1696518 C120.484175,12.2353762 120.605635,11.9782738 121.304163,11.9782738 C122.078937,11.9782738 122.893307,12.9362007 122.893307,13.847139 C122.893307,14.5818701 122.969821,14.6480813 123.814154,14.6480813 C124.932708,14.6480813 125.089215,14.8589961 124.777004,15.9450738 C124.544786,16.7540255 124.565118,16.7839273 125.346313,16.7839273 L126.156937,16.7839273 L125.595386,17.7338448 C125.286654,18.2560592 125.033568,18.7240764 125.033568,18.7734679 C125.033568,18.8231263 125.456002,18.7686622 125.971537,18.6525256 C127.15858,18.3855448 127.886001,17.4983678 128.10511,16.0510651 C128.28837,14.8387056 127.977497,14.138682 126.930909,13.4071548 C126.623247,13.1919683 126.371231,12.7295576 126.371231,12.3798128 C126.371231,11.8373079 126.519177,11.7313166 127.374478,11.6608337 C128.109391,11.5999621 128.448087,11.4184151 128.639908,10.9824356 C128.956934,10.2613206 129.581623,9.96603986 129.581623,10.5376456 C129.581623,10.7637783 129.27717,11.4675396 128.904765,12.1018859 L128.22764,13.2547088 L128.797484,14.2185093 C129.198248,14.8963734 129.556207,15.1820428 130.004324,15.1820428 C131.027101,15.1820428 132.725399,15.9749756 133.177796,16.663786 C133.45496,17.0858825 133.594612,17.9242021 133.594612,19.1616579 C133.594612,20.186063 133.699752,21.0887249 133.827901,21.1677512 C133.955781,21.2467775 134.433594,20.4244768 134.88947,19.340535 L135.718554,17.3694161 L135.058016,15.747241 C134.694706,14.8547244 134.39721,13.6461025 134.39721,13.0608807 C134.39721,12.2823649 134.258628,11.9230088 133.880069,11.7209043 C133.087103,11.2972059 133.060349,11.3380539 133.051521,12.9794516 C133.045635,14.152565 132.979287,14.4043279 132.770612,14.0473746 C132.620793,13.7905391 132.224042,13.5801583 131.889092,13.5801583 C131.554141,13.5801583 131.023088,13.307037 130.708738,12.9730441 L130.137555,12.3659298 L131.232834,11.0868251 C132.273268,9.87232962 132.380282,9.81626366 133.350355,9.97992286 C134.326314,10.144383 134.389987,10.1096755 134.765067,9.21395509 C134.982036,8.69601243 135.506935,8.0958397 135.937663,7.87371171 L136.717521,7.47137172 L137.299137,9.12424955 C138.019067,11.1693221 138.020405,11.5772687 137.313583,12.4700523 L136.751765,13.1796872 L138.075516,14.3811005 C139.714154,15.8681833 141.353059,18.3986269 141.353059,19.4417207 C141.353059,20.7520622 140.91698,21.5255054 140.072915,21.7105231 C139.645665,21.8042334 139.0282,22.2418148 138.701275,22.683134 C138.374618,23.1244532 137.829119,23.5908685 137.489085,23.7198202 C137.149051,23.8487719 136.742134,24.3234637 136.584557,24.7743942 C136.330668,25.5005819 136.355816,25.5942921 136.801793,25.5942921 C137.078957,25.5942921 137.622048,25.4741508 138.009168,25.3273113 C138.786618,25.0325646 139.747863,25.3726981 139.747863,25.942969 C139.747863,26.1245159 139.207447,26.5677039 138.546374,26.9281279 C137.436113,27.5333733 135.734873,29.450829 135.734873,30.0974564 C135.734873,30.2499024 135.871047,30.6727999 136.037453,31.0372287 C136.336822,31.6932004 136.36411,31.6753127 138.872228,29.1723681 C140.294699,27.7528315 141.974269,26.3573231 142.704098,25.9880887 C143.760585,25.4538602 144.034003,25.1684578 144.165897,24.4614928 C144.262476,23.9419482 144.169642,23.2154936 143.934749,22.6564359 C143.643941,21.9652227 143.601938,21.4075 143.773159,20.5205899 C144.211377,18.2549912 144.088312,17.4212104 143.084797,15.8561692 C142.566052,15.0464166 141.829267,14.1797971 141.447765,13.930437 C140.805419,13.5102093 140.765022,13.3703114 140.903604,12.0327379 C140.985469,11.2382031 141.240962,10.3811949 141.470505,10.1275632 C141.708877,9.86512114 141.888124,9.18805795 141.888124,8.55317773 C141.888124,7.56908668 141.96009,7.43960101 142.503716,7.43960101 C142.842145,7.43960101 143.250668,7.30824648 143.411455,7.14779105 C143.623073,6.93660928 143.88793,6.97638941 144.368954,7.29089273 C144.961806,7.67854879 145.05143,7.68121859 145.191884,7.31572194 C145.278565,7.09012321 145.595056,6.90563951 145.895228,6.90563951 C146.195399,6.90563951 146.939675,6.5452155 147.549114,6.10469726 C148.158554,5.66417902 148.819627,5.303755 149.018136,5.303755 C149.457425,5.303755 149.491669,5.88577304 149.076726,6.30012717 C148.695224,6.68057474 150.025129,7.27540785 151.876722,7.55253387 L153.161414,7.74502699 L153.076339,6.88054332 C153.00357,6.14474437 152.845726,5.97307575 152.015839,5.72665251 C150.817026,5.37103415 148.734284,2.90092824 149.632926,2.90092824 C149.917313,2.90092824 150.216147,2.79440292 150.296942,2.6643833 C150.483145,2.36349599 149.974833,1.94406923 148.53738,1.21147405 C146.253721,0.0477049537 147.214164,-0.449680186 149.914103,0.498101481 C150.723657,0.782169 151.788972,1.01871395 152.281767,1.0235196 C153.421991,1.03446581 156.334886,2.78025294 156.334886,3.45224349 C156.334886,4.19525092 157.473773,5.36649548 159.542603,6.75159162 C160.763621,7.56908668 161.598858,7.96154838 161.885386,7.85181929 C162.130178,7.75810905 162.69708,7.8614306 163.145197,8.08115576 C163.593047,8.3011479 164.651941,8.68346433 165.497879,8.93122247 C166.947103,9.35545488 167.035924,9.42994251 167.030573,10.2127301 C167.022815,11.3201662 166.333116,12.1122981 165.029697,12.5109004 C164.441393,12.6908454 162.125363,13.9360436 159.882904,15.2781559 C155.97238,17.6187761 155.789655,17.7669504 155.398254,18.910696 C155.17433,19.5664007 154.638462,20.4674607 154.207467,20.9130516 C153.626921,21.5134913 153.375975,22.0925726 153.236323,23.1519522 L153.048515,24.5808332 L155.324415,24.3915438 C157.309508,24.2265497 157.76137,24.2735383 158.864942,24.7605112 C159.88879,25.2125096 160.333964,25.2731143 161.20077,25.0787523 C162.71661,24.7388858 163.558267,23.8695964 163.558267,22.6436208 C163.558267,22.0688113 163.735374,21.5086857 163.980701,21.3055133 C164.776076,20.6466048 165.666157,18.4672409 166.110529,16.0908453 C166.354786,14.7834405 166.594228,13.6719997 166.642919,13.6212733 C166.691342,13.57028 167.272958,13.9008022 167.935369,14.3554704 C169.249489,15.2575984 170.070279,15.3411633 173.875128,14.9596478 C175.432703,14.8034641 176.092706,14.5719918 177.636637,13.6412969 C178.66637,13.0202997 179.837628,12.5122353 180.239195,12.5122353 C180.640761,12.5122353 181.441486,12.2719526 182.018019,11.9782738 C182.595087,11.684595 183.350332,11.4443123 183.696519,11.4443123 C184.051802,11.4443123 184.668465,11.0854902 185.111767,10.6204097 C186.138289,9.54394329 186.781705,9.20327586 187.185412,9.52205087 C187.789501,9.99914547 189.549598,10.1387764 190.968324,9.82187026 C192.197636,9.54741404 192.478278,9.56369987 193.017089,9.94014273 C193.360333,10.1801584 194.073575,10.3763893 194.601952,10.3763893 C195.322952,10.3763893 195.75689,10.5790277 196.342252,11.1888117 C197.081979,11.9593182 197.199159,11.9924238 198.599692,11.8252938 C199.525355,11.7150308 200.302002,11.4435113 200.680561,11.0980382 L201.284115,10.54699 L202.882355,11.30922 C204.712278,12.1819801 205.628845,13.0371194 206.2019,14.4059298 C206.55103,15.2399776 206.556648,15.6981166 206.246042,17.9183285 C206.049673,19.3223803 205.952024,21.0334599 206.029608,21.7206684 C206.170598,22.9661336 206.173541,22.9693373 207.04222,22.8070131 C207.52137,22.7173075 208.226854,22.7861886 208.609961,22.960527 C209.234917,23.2445945 209.306348,23.4253405 209.306348,24.7135226 C209.306348,25.6388779 209.109712,26.5345983 208.752823,27.232753 C208.448104,27.828387 208.237555,28.3522033 208.284641,28.3965221 C208.331727,28.4405739 209.212979,28.7003462 210.242712,28.9734675 C211.935391,29.4222621 212.142194,29.5514808 212.390197,30.3150457 C212.541085,30.7798592 212.882457,31.4003225 213.148652,31.6937343 C213.414847,31.9871462 213.696826,32.7050574 213.775213,33.2889443 C213.898011,34.2012176 214.027229,34.3723522 214.695258,34.5055756 C215.122775,34.5910095 215.537986,34.8734751 215.617978,35.1335143 C215.698238,35.3935536 215.996269,36.1200082 216.280657,36.7479469 C216.564776,37.3758857 216.797262,38.2790815 216.797262,38.7551082 C216.797262,40.061445 217.960494,41.6131372 218.939396,41.6131372 C219.574786,41.6131372 219.840446,41.8163095 220.334311,42.6789243 C220.965421,43.7812878 221.252215,43.8824736 221.706753,43.1634944 C222.024047,42.6615706 221.22466,41.5757599 219.673238,40.4013115 C218.442588,39.4695487 218.274042,38.4093682 219.356747,38.4093682 C220.377651,38.4093682 220.965421,38.8170478 221.901517,40.1749119 C222.650876,41.2620575 222.731939,41.5586731 222.626263,42.8311034 C222.466814,44.7490931 221.139049,47.3203847 220.247898,47.4373223 C219.89529,47.4837769 218.681494,47.9493913 217.550901,48.4724066 C215.589085,49.3798742 215.427495,49.5245778 214.018668,51.6374634 C212.702943,53.6101842 212.567571,53.9401724 212.776247,54.6660931 C213.112,55.8344008 214.429331,58.1731522 214.668505,58.0255119 C214.779798,57.9568978 215.01924,57.2696894 215.200627,56.498115 C215.605137,54.7755552 215.681918,54.6781072 217.847328,53.1360264 C219.575053,51.9055121 219.618394,51.8916291 221.810556,51.8638631 C223.331212,51.8446405 224.172869,51.713286 224.492036,51.4452373 C224.815483,51.1734509 225.384525,51.088284 226.360216,51.1651745 C227.642233,51.2663602 227.86375,51.3873025 228.930135,52.5713621 C229.970034,53.7255199 230.113431,54.0442949 230.245058,55.4929325 C230.375613,56.9290219 230.520616,57.2574082 231.487479,58.3039728 C232.485376,59.3841769 232.581688,59.6156492 232.581688,60.9235879 C232.581688,62.7187665 232.997166,64.0170939 233.792005,64.7069721 C234.371481,65.2099639 234.556881,65.7514008 234.48545,66.7304193 C234.468595,66.9621586 234.07666,67.7209178 233.615166,68.4166697 L232.775381,69.6818915 L233.347634,70.4542668 C234.189024,71.5902699 234.094852,72.5767638 233.063246,73.4225588 C232.393077,73.9725391 232.268942,74.2090841 232.50223,74.4904818 C232.813103,74.8655897 232.677464,76.2303953 232.306664,76.4589309 C231.831526,76.7520757 231.317328,76.2301284 230.87697,75.0084244 C230.620673,74.2971877 230.127611,73.4492568 229.780621,73.1240743 L229.150046,72.5329789 L229.653543,71.0725942 C230.280372,69.2547223 230.370263,66.8922096 229.908234,64.3732462 C229.599769,62.6901996 229.479379,62.4376358 228.985781,62.4376358 C228.646282,62.4376358 227.776801,61.7896735 226.821442,60.825072 C225.298379,59.286462 225.170498,59.215979 224.046326,59.2899327 C222.937939,59.3628185 222.846442,59.4298306 222.504001,60.4208632 C222.140156,61.4733013 222.141226,61.4759711 223.195305,62.5567092 C224.213267,63.6003369 224.237077,63.6652133 223.859856,64.3732462 C223.481565,65.083682 223.490661,65.1074433 224.146116,65.1074433 C224.714088,65.1074433 224.823241,65.2315893 224.823241,65.8758139 C224.823241,66.2981774 225.010782,66.7990333 225.239254,66.9883227 C226.146725,67.7398735 226.203442,68.2524765 225.618081,70.4168895 C225.157389,72.1207606 224.854542,72.7049145 224.000846,73.5368265 C223.198783,74.3185462 222.950513,74.7681418 222.950513,75.4403993 C222.950513,75.9247024 223.012848,76.3206348 223.088827,76.3206348 C223.164806,76.3206348 224.385558,75.7805328 225.80134,75.1202894 L228.375539,73.9196769 L228.958761,74.5478826 C229.2798,74.8933557 229.678691,75.2233439 229.845364,75.2810118 C230.012037,75.3389466 230.262715,76.1070502 230.402367,76.9880867 C230.653312,78.5707486 230.641808,78.6182712 229.451823,80.9260528 C228.289929,83.1793703 228.214485,83.2621344 227.324136,83.2621344 C226.538928,83.2621344 226.359146,83.3820087 226.121042,84.0630766 C225.792779,85.0023149 225.707169,85.0199356 224.823241,84.3300574 C224.082443,83.7515101 221.92613,83.614549 220.275186,84.0409172 C219.760454,84.1741406 218.783157,84.3586243 218.103891,84.4509996 C216.994701,84.6018438 216.825888,84.7198493 216.447864,85.6091621 C216.18381,86.2301594 216.039075,87.2967475 216.06021,88.468259 C216.092849,90.3165667 215.787326,92.0951925 215.02031,94.5255183 C214.675728,95.6177365 214.433879,95.8849843 213.126447,96.6215842 C212.301911,97.0858637 211.06698,98.0400529 210.381829,98.7419453 C208.638587,100.52778 207.657277,100.997933 206.481204,100.610544 C205.386995,100.25012 205.306468,99.9366842 206.247915,99.7009402 C206.705396,99.5861384 206.906045,99.3762916 206.849061,99.0711326 C206.785656,98.7296642 206.240959,98.5136768 204.700506,98.219197 C202.813599,97.858506 202.59663,97.7501118 202.165635,96.9510384 C201.726346,96.1375481 201.598733,96.0772104 200.311901,96.0772104 C198.945612,96.0772104 198.605043,96.3100176 198.605043,97.2441833 C198.605043,97.4214585 199.271467,97.969036 200.085568,98.4616155 C200.899938,98.953928 201.804198,99.6910619 202.095541,100.099542 C202.387152,100.508023 202.954856,100.914635 203.35776,101.003005 C204.118088,101.170135 205.025826,102.406523 205.025826,103.275011 C205.025826,104.555985 201.773699,104.600838 199.464625,103.351635 C198.490271,102.824348 197.693292,102.640398 195.954329,102.541348 C193.831725,102.420673 193.716686,102.441765 193.911718,102.916456 C194.352879,103.991321 194.341375,104.291941 193.806845,105.645 C193.474569,106.487057 193.25439,107.6567 193.25439,108.585259 C193.25439,109.95754 193.344816,110.213574 194.074913,110.911462 C194.525973,111.342903 195.215672,112.200979 195.607072,112.818505 C196.259049,113.846915 196.438296,113.956644 197.729944,114.117634 L199.140108,114.293307 L199.140108,115.645298 C199.140108,117.228226 199.632368,118.770574 200.13747,118.770574 C200.415971,118.770574 200.400454,118.946782 200.064968,119.593676 C199.734833,120.231226 199.668217,120.939259 199.769612,122.7307 C200.047044,127.633267 200.868369,130.743326 202.051933,131.371265 C202.412835,131.56269 203.117248,132.356958 203.617534,133.136275 C204.582257,134.639109 204.606602,134.656196 206.16284,134.914366 C206.964903,135.047323 207.16796,135.198968 207.174916,135.669121 C207.179464,135.992969 207.360048,136.490888 207.576215,136.776023 C207.792113,137.061159 207.968685,137.813777 207.968685,138.448658 C207.968685,139.40872 207.823147,139.73684 207.099204,140.401355 C206.331118,141.107252 206.282159,141.231398 206.677305,141.467409 C207.081012,141.708226 207.035264,141.905791 206.209123,143.487385 C205.172701,145.471853 205.145146,145.647793 205.680211,146.861221 C205.892632,147.343388 206.139029,148.188382 206.227315,148.739164 C206.377668,149.676266 206.448565,149.740341 207.329817,149.740341 C208.6014,149.740341 209.306348,150.162171 209.306348,150.922532 C209.306348,151.868445 208.650358,151.93786 208.000521,151.060828 C207.685636,150.635795 207.038207,150.185665 206.561463,150.060451 C205.785351,149.856478 205.562764,149.943247 204.431101,150.890494 C203.33395,151.808641 203.042339,151.928249 202.223957,151.795559 C200.886561,151.579038 200.990631,151.993392 202.912586,154.538519 C204.122101,156.140137 204.879218,156.869261 205.83645,157.353298 C206.547017,157.712654 207.190165,158.106183 207.265609,158.227926 C207.341053,158.34967 207.273635,158.957318 207.115791,159.577781 C206.854947,160.602987 206.90551,160.872371 207.666373,162.519909 C208.239963,163.761637 208.50375,164.741723 208.50375,165.628366 C208.50375,166.677066 208.701992,167.231585 209.544185,168.543796 C211.115136,170.991208 211.375178,172.853132 210.666752,176.581518 L210.113227,179.496147 L211.424939,180.837191 L212.736919,182.178503 L211.2893,185.221549 C210.260102,187.385161 209.841413,188.584706 209.841413,189.372299 C209.841413,190.318479 209.682232,190.63405 208.748543,191.535377 C208.147129,192.115793 207.364864,193.157018 207.009848,193.849032 C206.412983,195.013068 206.382484,195.262695 206.599721,197.186292 L206.834882,199.265271 L205.700543,200.733665 C203.746485,203.262507 203.42063,204.135534 203.42063,206.841384 C203.42063,208.639766 203.553861,209.541894 203.955695,210.478462 C204.984626,212.873547 204.877613,213.182443 200.862483,219.390013 L197.233938,224.999812 L197.183909,227.112164 L197.133613,229.224249 L196.332888,228.995446 C194.905601,228.587767 194.135375,228.708442 193.958268,229.36735 C193.426949,231.346212 194.207609,233.225222 195.461802,232.985741 C196.100135,232.863997 196.144813,232.93181 196.267343,234.205309 C196.368202,235.250271 196.540493,235.644602 197.033021,235.959105 C197.382686,236.182568 198.065965,236.751504 198.550734,237.223793 L199.432789,238.082403 L198.751383,239.159136 C198.376837,239.751567 198.069977,240.534888 198.069977,240.899584 C198.069977,241.282167 197.851136,241.679969 197.552837,241.839356 C196.80214,242.240094 196.732314,242.198178 196.732314,241.342238 L196.732314,240.568795 L194.089359,240.623259 C192.016517,240.665709 191.280267,240.786117 190.678318,241.179914 C190.255884,241.456239 189.301595,241.823871 188.557587,241.996341 C187.363589,242.273734 187.134581,242.254511 186.613427,241.833216 C185.988204,241.327821 182.546129,240.121602 180.913912,239.835666 C180.248023,239.718995 179.670955,239.806031 179.077033,240.112525 C178.454752,240.433703 178.1297,240.478021 177.921025,240.269509 C177.712349,240.061264 177.71984,239.979835 177.948313,239.979835 C178.471607,239.979835 179.102181,238.12512 178.915978,237.134087 C178.82368,236.643377 178.662625,236.242105 178.55802,236.242105 C178.453147,236.242105 178.097061,236.782741 177.766391,237.443518 C177.228918,238.517315 177.067863,238.644932 176.247608,238.644932 C175.377057,238.644932 175.329703,238.692988 175.329703,239.579364 C175.329703,240.149101 175.460527,240.51353 175.664119,240.513263 C175.885101,240.512996 175.998535,240.944437 175.998535,241.781421 C175.998535,243.172658 175.770865,243.400393 174.346253,243.431896 C173.393837,243.452721 172.618528,244.24245 172.073831,245.745819 C171.892712,246.245607 171.588259,246.654354 171.396974,246.654354 C170.864316,246.654354 170.975877,246.286188 171.83546,245.207051 C172.556728,244.301186 172.614247,244.07265 172.535057,242.433655 C172.45239,240.722576 172.395941,240.590153 171.189101,239.287821 C169.619754,237.594362 169.453617,237.331653 169.448266,236.53872 C169.443985,235.894496 168.789601,235.19821 168.173205,235.182725 C167.711979,235.170978 167.745421,236.754441 168.23126,237.914472 C168.476855,238.501563 168.601793,239.563345 168.565676,240.759953 C168.523941,242.142112 168.609551,242.731873 168.875746,242.896066 C169.1703,243.07788 169.081211,243.359545 168.430304,244.303589 C167.327267,245.90307 167.137051,246.021343 165.3395,246.222646 L163.775771,246.397786 L164.35498,245.463353 C165.042806,244.352179 164.932583,244.094009 163.615787,243.728779 C162.254848,243.351802 162.220604,243.361147 162.220604,244.118037 C162.220604,244.6819 162.096202,244.785489 161.418006,244.785489 C160.976845,244.785489 160.615408,244.911237 160.615408,245.065285 C160.615408,245.219066 160.314702,245.623274 159.947112,245.963408 C159.33366,246.530475 159.162439,246.560377 157.873734,246.323298 C157.1011,246.181264 155.686387,246.146824 154.72969,246.246674 C153.773529,246.346792 152.268658,246.470404 151.385532,246.521665 C149.436825,246.634865 146.732872,247.451025 145.74969,248.222599 C145.352136,248.5347 144.733869,248.7902 144.376177,248.7902 C143.624411,248.7902 142.793187,249.177055 142.000488,249.895767 C141.453918,250.391284 141.434924,250.39075 140.955773,249.862395 C140.684227,249.563109 140.129899,249.324162 139.706663,249.324162 C139.000644,249.324162 138.945265,249.39945 138.945265,250.363518 C138.945265,251.041115 139.085184,251.456537 139.346564,251.556655 C139.567546,251.641021 139.747863,251.894118 139.747863,252.119183 C139.747863,252.417935 140.035728,252.527931 140.817993,252.527931 C142.017075,252.527931 142.091449,252.660086 141.419942,253.596121 C141.162843,253.95521 140.650785,254.846391 140.282928,255.57605 C139.535977,257.058861 138.347864,257.825363 135.70812,258.528323 C134.37768,258.882606 134.181846,259.024907 133.960864,259.799151 C133.637952,260.929014 132.514583,261.138594 131.563504,260.247145 C130.941223,259.663792 130.91126,259.661122 130.380743,260.140353 C129.980781,260.501578 129.484508,260.616112 128.513365,260.571794 C127.262917,260.514927 127.181855,260.552571 127.026418,261.259002 C126.732935,262.591503 126.649197,262.715916 125.835631,263.022143 C124.858601,263.390309 124.82623,263.890631 125.702399,265.076026 C126.070257,265.573678 126.371231,266.00325 126.371231,266.031016 C126.371231,266.058248 125.25776,266.282245 123.896554,266.528134 C121.986104,266.87334 121.211329,267.147797 120.496749,267.733018 C119.641983,268.433042 119.596234,268.544373 119.894801,269.198743 C120.327669,270.146257 120.302521,270.415641 119.781635,270.415641 C119.54139,270.415641 118.934626,270.669006 118.433003,270.978436 C117.69595,271.432838 117.28716,271.505723 116.304245,271.358884 C115.353702,271.216583 114.978354,271.275586 114.587488,271.628535 C114.218828,271.961193 113.538761,272.092013 112.002588,272.124318 C110.856211,272.148613 109.76762,272.059708 109.583826,271.926752 C108.73548,271.314031 109.51507,270.217274 111.857853,268.728056 C112.866183,268.087035 112.994867,267.891338 112.994867,266.999355 L112.994867,265.993372 L110.921489,266.00592 C109.360168,266.015264 108.665654,266.141012 108.109721,266.514251 C107.371866,267.009501 107.368923,267.008967 105.343701,266.023541 C104.228625,265.481036 103.169731,265.093113 102.990484,265.161994 C102.811237,265.230608 102.476554,265.764302 102.247011,266.347388 L101.829392,267.40837 L103.543741,267.568024 C105.584213,267.758115 105.771486,267.851825 105.771486,268.680266 C105.771486,269.030011 105.878766,269.382158 106.009857,269.463321 C106.140948,269.544216 106.549203,270.184703 106.917328,270.887396 L107.586427,272.164365 L106.946489,272.906838 C106.523787,273.397015 106.305481,273.984106 106.302805,274.635539 C106.29692,276.205653 106.042764,276.769516 105.209667,277.059457 C104.782952,277.207898 104.433822,277.515727 104.433822,277.743729 C104.433822,278.022724 104.181004,278.158083 103.65985,278.158083 C103.218689,278.158083 102.81953,278.330285 102.73178,278.558554 C102.647239,278.778813 102.271891,278.959025 101.89788,278.959025 C101.52387,278.959025 100.595264,279.395806 99.8344012,279.9295 C98.4937952,280.870073 98.4376133,280.884223 98.0178546,280.396716 C97.7797506,280.119857 97.2430801,279.593104 96.8251941,279.226006 L96.065669,278.558554 L96.2427756,279.710576 C96.3864406,280.646343 96.3115315,281.014243 95.8425468,281.671282 C95.3345023,282.38332 95.2850088,282.708236 95.4278712,284.390481 L95.590531,286.300996 L95.0565359,285.299818 L94.5222732,284.29864 L91.7525078,284.29864 C89.7794546,284.29864 88.8979346,284.40036 88.688189,284.65239 C88.5265993,284.846752 88.3700927,285.935766 88.3406641,287.07257 L88.2871576,289.139001 L87.0637308,289.054902 C86.1851537,288.994564 85.7030599,288.801804 85.3533947,288.37063 C84.9858049,287.918098 84.7517138,287.83213 84.3993733,288.020085 C84.1208718,288.16906 83.515178,288.175468 82.896375,288.036371 C81.548278,287.732813 80.318698,287.986979 80.1576434,288.602103 C80.0875498,288.86855 79.8111886,289.156088 79.5428534,289.240988 C79.2747857,289.326155 78.9772894,289.750387 78.8817802,290.184231 C78.7629957,290.724333 78.5460268,290.973159 78.1942214,290.973159 C77.9117069,290.973159 77.4397793,291.213441 77.1454934,291.50712 C76.8512075,291.800799 76.5620047,292.041082 76.5031476,292.041082 C76.4440229,292.041082 76.1516097,291.62833 75.8530433,291.123202 C75.1277623,289.896425 73.8203303,289.215892 72.9489765,289.612358 C72.0519396,290.020038 70.9250921,289.978389 69.1807793,289.472193 C67.7759654,289.06478 67.6684173,289.066916 67.3439002,289.50957 C67.0541624,289.904969 67.0830559,290.086249 67.5244848,290.646107 C68.219267,291.527945 68.186628,291.939362 67.378947,292.467183 C66.8136505,292.836684 66.5827699,292.853504 65.90725,292.574509 C64.8724337,292.146539 64.3039269,292.567835 64.3039269,293.762574 C64.3039269,294.934619 63.2667029,295.912036 62.2840555,295.665879 C61.8923877,295.567631 61.5106186,295.25286 61.435442,294.965856 C61.3602653,294.678585 61.1020963,294.442574 60.8615844,294.440438 C60.6213401,294.438302 60.1400489,294.360611 59.7922565,294.267701 C59.238999,294.120061 59.1828172,294.17052 59.3425341,294.673245 C59.4757654,295.092138 59.3936329,295.296111 59.0386171,295.426665 C58.7710844,295.525448 58.1664607,295.895216 57.6950682,296.248431 C56.6027324,297.067528 55.9619917,296.940713 55.6468383,295.843956 C55.5098616,295.367395 55.2391186,294.97787 55.0448899,294.97787 C54.4258194,294.97787 54.1120036,294.044772 54.5408584,293.479574 C54.751139,293.202448 54.9231625,292.55502 54.9231625,292.041082 C54.9234301,291.216912 54.7784274,291.018813 53.6941176,290.361506 C53.0180626,289.951957 52.4078207,289.673763 52.3379947,289.743178 C52.2684362,289.81286 52.2114517,290.29396 52.2114517,290.812436 C52.2114517,291.550104 52.0862464,291.789586 51.6362566,291.913465 C51.3197654,292.000768 50.6091988,292.263477 50.0570114,292.497886 C49.1324186,292.890081 49.0147042,292.888746 48.5647144,292.482401 C47.9001633,291.882495 47.8619061,291.900116 47.3450331,293.043862 C46.8797938,294.073339 45.6654632,294.97787 44.7483613,294.97787 C44.3042571,294.97787 43.38555,293.877108 43.0832382,292.983257 C43.0348148,292.840422 42.2442558,293.375719 41.3263513,294.172389 C40.1114856,295.226963 39.6927971,295.757454 39.7885738,296.122417 C39.9515011,296.743948 38.4142586,297.469067 37.0297772,297.423414 C36.5139743,297.406327 35.8951713,297.584937 35.6252309,297.828691 C35.2068098,298.206735 35.1428695,298.21074 35.1428695,297.858592 L35.1428695,297.858592 Z M48.9208003,299.838789 C49.4165383,299.334996 51.1948277,298.455561 51.1948277,298.714266 C51.1948277,299.03224 50.2124479,299.66445 49.3220992,299.91915 C48.8697016,300.048902 48.7396807,300.022738 48.9208003,299.838789 L48.9208003,299.838789 Z" id="Fill-1" fill="#FFFFFF" mask="url(#mask-2)"></path>
        </g>
        <g id="Group-5" transform="translate(110.000000, 131.000000)">
            <path d="M19.5007728,0 C30.2704791,0 39,8.72986684 39,19.5 C39,30.2701332 30.2704791,39 19.5007728,39 C8.73106646,39 0,30.2701332 0,19.5 C0,8.72986684 8.73106646,0 19.5007728,0 Z" id="Stroke-1" stroke="#E75F52"></path>
            <path d="M19.5,13 C23.0899976,13 26,15.910354 26,19.5007853 C26,23.089646 23.0899976,26 19.5,26 C15.9100024,26 13,23.089646 13,19.5007853 C13,15.910354 15.9100024,13 19.5,13" id="Fill-3" fill="#E75F52"></path>
        </g>
    </g>
</svg>