<?xml version="1.0" encoding="UTF-8"?>
<svg width="400px" height="300px" viewBox="0 0 400 300" version="1.1" xmlns="http://www.w3.org/2000/svg" xmlns:xlink="http://www.w3.org/1999/xlink">
    <!-- Generator: Sketch 64 (93537) - https://sketch.com -->
    <title>25</title>
    <desc>Created with Sketch.</desc>
    <defs>
        <polygon id="path-1" points="0.18279243 0.0025 376.677622 0.0025 376.677622 100.00145 0.18279243 100.00145"></polygon>
    </defs>
    <g id="25" stroke="none" stroke-width="1" fill="none" fill-rule="evenodd">
        <g id="Group-8">
            <path d="M11.490296,100.001 L11.4362109,101.729449 L11.4116722,102.531925 L10.587375,110.839178 L9.30786137,116.335515 L8.76801178,118.657446 L7.32273728,124.032286 L4.59744836,130.317599 L4.06511059,131.545063 L1.40893043,136.821906 L0.5,138.265363 L0.735871202,138.333861 L0.794463412,138.350361 L3.65947222,138.936343 L3.61440129,138.265363 L3.36901511,137.904374 L3.2433173,137.71838 L2.88675616,137.36289 L3.05301781,137.0184 L3.45965776,136.657911 L3.79117949,136.635412 L4.21985412,136.605913 L4.58192393,136.297922 L4.5999523,135.865935 L4.42617882,135.404448 L4.83081562,135.040959 L4.94199058,135.01146 L5.06468367,134.978461 L5.1813673,134.167985 L5.19589016,134.065488 L5.3331061,133.963491 L5.51088588,133.834995 L5.6956767,133.697999 L5.758776,133.688499 L6.1674191,133.621001 L6.81443735,133.290011 L7.66477557,132.426037 L8.68788569,131.97805 L8.37689627,131.617561 L8.3458474,131.143075 L8.7885441,129.922111 L8.76500705,129.545122 L8.35335922,129.093636 L8.55367447,128.511153 L8.38140336,128.091166 L10.1932548,125.832233 L9.98642927,125.606739 L9.56676883,125.204251 L9.4751246,125.115754 L9.60232478,124.870261 L10.3024266,124.442774 L10.3835542,124.393275 L11.0491016,123.584799 L10.5673435,122.809322 L11.2564279,122.245339 L11.3355525,122.181841 L11.8388445,121.771353 L12.0536826,121.378865 L11.4251935,119.84841 L10.5723514,119.283927 L10.8833408,118.932938 L10.6274381,118.660946 L10.9744842,118.113962 L10.8728242,117.312486 L11.3941447,116.471011 L11.3615934,115.989525 L11.3490737,115.80703 L12.3611665,114.086582 L12.601044,113.678094 L12.1843883,112.46813 L12.0611944,112.065142 L11.9995975,111.861648 L12.0922433,111.562657 L12.1984104,111.229166 L12.5319353,110.44369 L12.341135,109.742711 L12.4247666,108.833238 L12.981643,107.08529 L13.2505662,105.937824 L13.3562325,105.487337 L13.2926324,103.926383 L13.2886261,103.892384 L13.1088432,102.512425 L13.487439,101.270962 L13.4248405,100.001 L11.490296,100.001 Z M16.3369234,100.004 L16.6819664,101.381459 L17.0565559,102.193935 L17.833779,103.575894 L18.3786365,104.543365 L18.6896259,106.239815 L18.5323785,106.927294 L18.7367,107.591275 L18.7016448,108.272254 L18.6505645,108.75374 L18.83836,109.138729 L19.1067824,109.562216 L19.4773656,109.699212 L20.2195336,109.970704 L20.3507401,110.76018 L20.2215368,111.248166 L20.6947815,111.736151 L20.9031094,112.479129 L21.2366343,113.897087 L21.4559795,115.439041 L21.9387392,116.722503 L21.4414566,118.352455 L21.6097214,119.098433 L21.3187635,120.1919 L21.3613305,121.469362 L21.2937241,121.677856 L21.036319,122.463333 L20.7233265,123.422304 L20.1108626,123.90079 L19.9856656,124.427274 L18.9194877,127.097695 L17.221816,130.333099 L17.3645406,130.457095 L17.8062357,130.339099 L18.5694368,129.884112 L19.4047514,129.386127 L19.935086,129.264631 L20.5550617,128.800145 L20.8114652,127.913671 L21.2691855,127.685178 L21.4304393,127.658678 L21.73592,127.60868 L22.267757,127.868172 L22.7490144,128.729147 L22.2462231,128.997639 L22.2286955,129.007638 L21.9126982,129.003639 L21.8010225,129.346628 L22.1455647,130.174604 L22.0649378,130.676089 L21.9697881,131.278571 L23.6223889,132.225043 L23.7335638,132.598032 L23.9484019,132.785026 L24.6615242,132.739028 L23.8973215,133.413508 L24.208311,134.061488 L24.1321912,134.626971 L24.6925731,135.68444 L24.4446829,136.391919 L26.1558759,135.816436 L25.7537431,136.199425 L25.7782817,136.579413 L25.1492918,136.526915 L24.4632121,137.0169 L24.3089694,137.069399 L24.0525659,137.622882 L23.9218602,137.554385 L23.5888361,137.38339 L23.2427915,137.583884 L23.3749995,137.864875 L22.9142745,138.02887 L22.9122713,138.140367 L22.9042587,138.565854 L22.9923974,139.254334 L23.3424483,139.855816 L23.2427915,140.3983 L22.4204974,141.544766 L22.5491999,141.644263 L22.9027563,141.918255 L23.0254494,142.012752 L23.0930558,142.065251 L23.2017268,141.956254 L24.5979241,140.570795 L24.8468158,140.322802 L24.9985546,140.179307 L25.1302619,140.05631 L26.3336557,138.921344 L28.3408145,137.457887 L28.7895206,137.323891 L28.8220719,137.313892 L29.753037,137.0334 L30.4741719,136.816406 L30.6194004,136.774408 L30.6579611,136.763408 L32.210905,138.322362 L32.5524425,138.974842 L33.2290073,140.267304 L33.3466925,140.491797 L33.730797,141.226275 L34.4990059,143.796699 L35.652321,145.498649 L36.4941458,145.988634 L36.5001552,145.992634 L37.0074536,146.286625 L38.3105043,148.096571 L38.7466907,148.303065 L39.6270762,148.719053 L39.8394104,148.537058 L40.566054,147.903577 L40.8770434,147.79208 L41.2636518,147.655584 L41.463967,147.584087 L41.9342071,147.415592 L42.343351,147.47109 L43.2537838,147.599086 L44.1937631,148.240567 L45.1552762,148.768551 L46.7613037,148.876048 L48.5150637,149.530529 L49.4445264,150.522499 L49.878209,150.82049 L50.5738036,151.295476 L51.1697415,151.701964 L52.8033123,153.352415 L53.5494866,154.704875 L53.6781892,154.819372 L54.1579442,155.245359 L54.6351953,155.670846 L54.9396744,155.942338 L57.3154133,156.89531 L58.4191503,156.88681 L59.8589161,156.875811 L60.7433079,158.036776 L61.7769346,159.393736 L63.733013,159.975719 L64.6194079,160.505703 L65.6214849,161.108185 L65.7612048,161.153184 L65.914446,161.203182 L66.9781199,161.553672 L67.5084546,161.727167 L67.7227919,161.798164 L68.6617696,162.107155 L69.8902028,162.015158 L72.0921682,160.735196 L72.7091391,160.795694 L74.224524,160.94119 L74.7618696,161.753166 L74.3977967,163.753606 L74.2530689,165.243062 L75.124941,166.805516 L76.0654211,167.486495 L76.5361619,167.825985 L76.6278061,167.891483 L76.6879007,167.933482 L79.204361,168.00148 L79.9931023,167.737488 L80.7517963,166.640521 L81.4549028,165.070067 L82.8576103,164.588582 L84.6864885,164.424086 L85.2178247,164.195593 L87.2730591,163.61361 L87.5665209,163.530613 L88.3612717,163.415616 L90.3949722,163.124125 L90.5036432,163.108126 L90.6133158,163.109125 L91.3194271,163.115125 L92.2388741,163.124125 L94.4438441,163.407117 L95.3122107,163.518113 L95.318721,163.519113 L97.2487584,164.039598 L97.6829417,164.147595 L98.0174681,164.230092 L98.521261,164.354588 L99.8358298,164.344589 L100.186381,164.341589 L101.978702,165.010569 L102.298706,165.130565 L103.535152,165.376058 L105.210789,164.855074 L107.195913,163.706608 L108.888076,162.776135 L110.299797,162.387647 L110.312317,162.383647 L110.667376,162.28615 L110.855171,162.410146 L111.075518,162.556642 L111.393018,162.766136 L113.206872,168.632461 L113.601493,169.095448 L114.484884,170.132417 L114.910554,171.019391 L115.301669,171.833866 L115.820986,172.911334 L116.48403,174.233295 L117.195149,173.870806 L117.206667,173.863806 L117.212677,172.442848 L117.691931,172.217355 L118.00292,172.069859 L118.419576,172.73384 L118.581831,172.993332 L118.680487,173.73331 L118.886811,173.694311 L119.148723,173.644813 L119.639496,173.673812 L119.821282,173.682811 L121.222988,174.973773 L121.31964,175.573255 L121.406276,176.116239 L121.509439,176.303734 L121.607092,176.479228 L121.794387,176.816218 L121.845968,176.908716 L122.040775,177.229706 L122.207036,177.502698 L123.63278,177.845688 L123.693876,178.048182 L123.731435,178.176178 L123.790028,178.378172 L123.2006,179.026653 L123.085419,179.153649 L123.09243,179.312144 L123.101945,179.551137 L123.116968,179.894127 L123.282729,180.150119 L123.332808,180.225617 L124.417515,179.505638 L124.639364,179.358143 L124.755547,179.535138 L125.070543,180.016623 L125.344474,180.880598 L125.495211,181.356083 L125.535274,181.48308 L126.286957,181.791071 L126.320009,181.772571 L127.205403,181.277086 L127.541431,181.512579 L128.749332,182.358054 L128.936627,182.48855 L129.551595,182.734543 L129.620203,183.099032 L129.717857,183.600017 L129.71986,183.609517 L129.946717,184.203999 L129.865589,184.793981 L129.844055,184.954477 L129.782458,185.022475 L129.520546,185.304466 L129.442423,185.598957 L129.172498,186.607927 L129.393346,186.672426 L129.564115,186.722424 L129.987281,186.84342 L130.776523,188.093383 L130.762501,188.178381 L130.617272,189.114853 L130.6348,189.530841 L130.650324,189.923329 L131.616845,190.56181 L131.644388,191.23579 L131.650398,191.370786 L131.598817,191.867771 L131.555248,192.322758 L132.116131,192.973738 L131.968899,193.200732 L131.781604,193.482223 L131.610335,193.741216 L131.338908,193.973209 L131.027918,194.237701 L131.307859,194.862682 L131.322883,194.903181 L131.673935,195.29217 L131.713497,195.593661 L131.772089,196.033148 L131.364949,196.048647 L131.239752,196.054647 L130.576708,196.082146 L130.568696,196.082146 L129.971255,196.241641 L129.704836,196.477634 L129.327743,196.811624 L129.332751,196.95312 L129.358792,197.6201 L128.855499,198.386578 L128.774873,198.406077 L128.031202,198.602571 L127.92804,198.62857 L127.283526,199.198054 L126.96252,199.578042 L126.516318,200.108026 L125.523756,200.353519 L125.363003,200.380018 L124.393978,200.536514 L124.203178,201 L325.528514,201 L325.528514,200.840505 L325.216523,199.062058 L324.384213,197.599601 L324.58553,194.565691 L325.101341,192.787244 L325.511988,192.108264 L325.753868,191.709776 L326.754443,190.062325 L327.360397,189.22185 L328.412552,187.758893 L328.460628,187.703395 L331.836942,183.781511 L331.990683,181.987565 L332.043266,181.375083 L332.771913,180.11862 L335.617391,178.373172 L337.997136,177.655693 L339.663759,176.942715 L340.61776,175.865747 L341.45007,175.987743 L341.86923,176.274234 L342.570333,177.256205 L344.098238,178.363672 L345.067764,178.623665 L346.297198,178.363672 L347.154047,177.321703 L348.197689,176.08474 L348.569274,175.042271 L350.470766,174.261294 L351.842926,173.38432 L351.999172,173.284823 L353.191548,172.764339 L356.662511,170.727899 L356.99253,169.858925 L357.046615,169.714429 L357.221891,169.262443 L358.252513,166.608522 L358.585036,164.795075 L358.86698,163.263621 L359.240067,162.781135 L359.746364,162.129655 L359.927148,161.893162 L360.066868,161.713667 L360.122957,161.383677 L360.315259,160.280209 L359.364763,159.197242 L359.370773,158.119274 L362.01243,155.981337 L363.694577,154.315387 L366.493983,153.153421 L366.810982,153.022925 L368.482613,153.510411 L371.105741,154.367385 L371.815858,155.21236 L373.241101,156.181331 L374.212129,154.394384 L375.301844,152.85043 L377.100675,152.145451 L378.989147,153.618907 L379.109336,153.712905 L379.118351,153.720904 L380.027782,153.660406 L380.548601,153.627907 L381.635312,153.555909 L382.348935,153.509911 L383.179241,154.237389 L384.618506,153.775403 L385.343147,153.362415 L386.061277,152.953427 L387.377849,152.84493 L388.466062,151.660466 L388.360896,150.344005 L388.105995,149.971016 L387.301228,148.778551 L387.195562,147.698583 L387.920203,146.991604 L388.123523,146.979105 L389.717531,146.890607 L390.685555,145.944635 L390.956481,143.197217 L391.823846,140.814788 L393.514006,139.878815 L397.010008,138.36986 L397.680062,138.081869 L397.900409,137.985872 L399.181926,137.440388 L399.374729,137.443388 L400.5,137.459887 L400.335741,137.138397 L399.910572,136.257423 L399.729287,136.133427 L399.556515,136.01543 L399.195948,135.770937 L399.09579,135.511445 L399.043207,135.370949 L398.928527,135.071958 L398.772281,134.66697 L398.73322,134.565973 L398.343106,134.497975 L397.82479,134.405478 L397.296458,134.309981 L397.064594,133.98699 L396.35047,132.98152 L395.919291,133.158015 L395.506642,133.32801 L395.198156,132.962521 L394.796524,132.485035 L394.194577,132.475035 L392.158372,132.213543 L390.831785,132.675529 L390.116158,132.30854 L389.668955,132.191544 L389.159653,132.056548 L387.605207,131.32357 L386.536024,130.354598 L386.167444,131.068577 L385.472851,131.159074 L385.327622,131.180074 L385.26903,131.231572 L385.017134,131.451566 L384.350084,132.038048 L384.159785,132.205043 L384.115715,132.244042 L383.523784,131.520564 L382.950381,131.96705 L382.311876,132.463536 L381.924266,132.768527 L381.708427,132.938522 L381.518628,132.746027 L381.232177,132.454536 L380.997308,132.094547 L380.27467,132.205043 L379.792411,132.440536 L378.957097,131.953051 L378.120781,131.348069 L377.400147,131.462065 L376.828747,131.419567 L375.599313,131.328069 L375.164628,131.207073 L375.014392,131.076577 L374.935768,131.009579 L374.576202,130.695588 L374.42847,130.564592 L374.188092,130.210603 L374.21864,129.859113 L374.244681,129.796615 L374.384401,129.456625 L374.632791,129.084136 L374.881182,128.736146 L375.510172,128.150164 L376.663487,126.9392 L376.962458,126.670708 L378.534432,125.610739 L379.381765,125.020757 L379.275097,123.584299 L379.090807,117.721974 L378.976628,116.14952 L378.923043,115.430542 L378.805859,113.823089 L378.769802,113.295605 L377.588944,110.653684 L377.513826,110.621185 L376.507742,110.165698 L376.514252,109.327723 L377.96804,108.623244 L378.090733,108.594745 L380.388349,108.047761 L381.471053,106.803798 L381.730962,106.505307 L382.063986,105.235844 L382.109057,105.074849 L383.327475,103.893884 L383.457179,103.664891 L384.066638,102.584923 L383.943444,101.428458 L383.862316,100.692479 L383.847794,100.551484 L383.853803,100.004 L16.3369234,100.004 Z" id="Fill-1" fill="#FFFFFF"></path>
            <g id="Group-7" transform="translate(7.500000, 0.000000)">
                <path d="M117.083984,200.00145 L116.85518,200.03845 L116.429616,201.07395 L116.111694,201.42345 L115.498381,201.72945 L114.931629,202.01545 L114.553127,202.62695 L114.371887,202.92095 L114.257235,203.10545 L114.243717,203.12795 L113.822158,204.61695 L113.780102,204.77145 L113.720523,205.10445 L113.599863,205.79895 L113.563314,205.99895 L113.56031,206.03795 L113.520257,206.54295 L113.706004,206.76845 L113.731538,206.80195 L114.477527,207.03995 L114.588174,207.45295 L114.541111,207.47545 L114.524589,207.48945 L114.502059,207.50895 L114.471018,207.55095 L114.447487,207.59645 L114.436473,207.70095 L114.471018,207.79995 L114.502059,207.84195 L114.543114,207.87495 L114.588174,207.89745 L114.63824,207.90995 L114.69081,207.91395 L114.741377,207.90045 L114.807465,207.90745 L114.463508,208.58495 L114.198156,209.10545 L114.101528,209.51445 L115.012236,210.80445 L115.180459,211.49795 L115.220512,211.66195 L115.154925,212.10995 L115.132395,212.26445 L115.102356,212.47045 L115.042777,212.87945 L114.981195,213.02995 L114.904093,213.21745 L114.681297,213.76395 L114.488041,213.89545 L113.686478,214.44245 L113.577834,214.61545 L113.169292,215.26345 L112.939487,215.62995 L112.863386,216.49395 L112.863386,216.50095 L112.737219,216.56645 L112.472368,216.70445 L111.415466,217.25645 L110.997912,218.13995 L110.637935,219.02395 L110.97338,219.39695 L111.535625,220.02195 L111.541633,220.03545 L111.590198,220.14645 L111.999741,221.07045 L112.039794,221.15795 L111.980215,222.43145 L111.857552,222.72545 L110.896778,225.02045 L110.997411,227.38495 L111.153118,229.00695 L111.205688,229.56745 L111.717366,233.53245 L111.956183,234.11445 L113.546292,235.47545 L114.365378,237.16795 L115.632058,241.33595 L115.961495,242.73945 L116.302447,244.19995 L116.928277,244.50895 L117.877036,244.97695 L117.966154,244.87245 L118.625528,244.10695 L118.977495,243.71445 L119.351992,243.29845 L119.488673,243.14695 L119.617844,242.63045 L121.52938,240.97195 L125.062565,240.76045 L125.361963,241.17995 L125.594771,241.50745 L126.05388,241.69395 L126.427876,241.57445 L126.794863,241.45845 L127.314552,241.84695 L127.889314,242.43695 L128.30086,242.72495 L128.31538,242.72995 L128.810036,242.91145 L129.313704,242.60295 L129.349751,242.58045 L129.88396,242.14895 L130.644469,242.32595 L130.923839,242.50995 L131.517126,242.89995 L131.519129,242.90245 L131.52013,242.90445 L131.964219,244.01245 L131.751937,245.04295 L131.892624,246.06145 L132.526465,246.85345 L133.787637,247.10845 L134.329356,247.22645 L135.202514,247.41345 L135.874405,247.94995 L135.865393,247.99095 L135.702176,248.72245 L135.451344,250.01245 L135.097875,250.81045 L134.990733,251.05345 L135.110392,251.55995 L136.443159,252.42845 L137.475028,253.25645 L138.529927,253.31895 L139.675947,252.79845 L139.761059,252.75945 L141.134381,251.98995 L141.463818,251.84595 L141.77473,251.71145 L142.53624,251.98995 L143.029895,253.14495 L143.701786,253.96645 L143.762366,254.03895 L144.52638,254.41895 L145.125674,254.39645 L145.936249,254.97045 L146.153538,255.12595 L146.955601,256.57995 L147.247989,257.07395 L147.804227,258.01945 L148.019512,258.38445 L149.09594,259.16345 L151.771488,259.88445 L153.887295,260.36745 L155.816854,261.22195 L156.53831,261.86095 L157.530126,262.73995 L157.928154,263.09145 L158.776779,264.59795 L158.855884,264.77645 L159.212858,265.58795 L159.458183,266.14545 L160.007912,266.92495 L160.234713,267.24295 L160.421461,267.50695 L161.421787,268.61995 L161.716178,268.94745 L163.327815,269.61595 L163.372875,269.63495 L163.460491,269.67395 L163.535591,269.70295 L164.102843,270.06345 L164.757211,270.47945 L165.405571,272.04395 L165.757538,273.67095 L166.329296,277.59195 L166.357834,278.16795 L166.503527,281.27845 L166.559101,282.46195 L166.628693,283.92695 L166.381365,285.57345 L166.253195,285.76095 L165.745522,286.49795 L165.194291,287.30295 L165.086147,288.25795 L164.943959,289.52245 L164.921429,289.71695 L165.0506,290.05095 L165.85016,292.12295 L165.921755,292.31045 L166.267714,292.54195 L169.232646,294.52945 L170.452264,295.15445 L170.771187,295.31845 L172.320241,296.47045 L172.459426,296.73545 L173.184388,298.11995 L173.636988,298.14245 L173.796199,298.14945 L174.698896,298.19145 L176.763134,297.16595 L177.956216,296.29195 L178.127944,296.16395 L181.855888,296.28895 L183.395931,297.20095 L184.856868,299.55845 L186.081993,299.97845 L186.146579,299.99995 L187.297605,299.48745 L187.499874,298.39945 L187.280583,298.07995 L186.847508,297.45195 L186.772409,297.34245 L185.894244,296.38045 L185.813137,296.29145 L185.921781,296.20245 L186.268741,295.91845 L187.18796,295.52945 L188.093661,294.54245 L188.670426,293.73195 L188.713483,293.67395 L188.810111,293.53695 L188.877701,293.44295 L189.136044,293.52695 L189.230168,293.55395 L190.093313,293.86845 L190.488337,294.01395 L190.758195,294.11145 L192.388357,294.24995 L192.85798,294.28895 L193.369158,293.91595 L193.886344,293.53895 L193.739649,292.34495 L194.904694,292.31145 L196.689061,293.82445 L197.891656,294.66295 L199.060206,295.47445 L199.237441,295.45095 L201.371271,295.14645 L203.405969,294.50895 L203.469554,294.49495 L204.028795,294.38945 L205.702014,294.08195 L206.999735,293.75845 L207.81031,293.55495 L208.427129,292.92045 L209.706325,292.88695 L211.834147,294.27495 L213.278563,296.30395 L213.515377,296.63545 L215.8705,297.90295 L219.893336,298.84145 L220.5452,298.99795 L225.206883,299.49345 L228.453188,299.06995 L230.462854,297.38995 L230.514923,297.34795 L230.793793,297.02995 L232.908597,294.62345 L234.142734,293.21945 L234.163261,293.19695 L237.149222,290.85895 L241.871484,287.65395 L245.036682,286.35395 L245.228937,286.27595 L245.47226,286.28945 L246.318883,286.33945 L246.833065,286.36495 L246.862604,286.36945 L247.027823,286.62845 L247.146981,286.70945 L247.519475,288.01195 L246.562206,289.08545 L246.352928,290.47895 L246.073057,291.59445 L247.190539,291.66495 C247.818872,291.66495 249.075038,291.52545 249.075038,291.52545 L249.424001,290.61895 L250.75026,289.43345 L250.400797,288.73645 L250.75026,288.10945 L251.377592,288.80645 C251.377592,288.80645 252.494573,287.83095 252.983222,288.10945 C253.47187,288.38845 254.310482,288.38895 254.310482,288.38895 C254.310482,288.38895 254.518758,287.06395 254.658443,286.85445 C254.797628,286.64545 255.91511,285.94845 255.91511,285.94845 L255.952159,285.43695 L255.985704,284.97245 C255.985704,284.97245 257.311963,284.69395 257.591333,284.76345 C257.870203,284.83345 257.938794,284.20595 257.938794,283.99695 C257.938794,283.78795 257.659423,283.71795 257.380554,283.71795 C257.101183,283.71795 256.473851,283.92695 256.19448,283.64795 C256.077325,283.53145 255.886071,283.37745 255.70433,283.23945 C255.701326,283.23645 255.701326,283.23695 255.699324,283.23645 C255.448992,283.04345 255.215682,282.88195 255.215682,282.88195 C255.215682,282.88195 255.076498,280.58145 254.797628,280.09395 C254.660446,279.85345 254.153273,279.07695 253.639592,278.31545 C253.631081,278.30245 253.62307,278.28945 253.614058,278.27645 C253.607049,278.26495 253.599038,278.25495 253.591528,278.24395 C253.534453,278.15845 253.476376,278.07395 253.419801,277.99045 C253.406783,277.97245 253.396269,277.95545 253.384253,277.93745 C253.332184,277.86145 253.279615,277.78545 253.229048,277.71195 C253.213026,277.69045 253.199508,277.66945 253.184989,277.64745 C253.136925,277.57845 253.089863,277.51145 253.045304,277.44545 C253.030785,277.42545 253.018268,277.40745 253.003749,277.38795 C252.961693,277.32645 252.918135,277.26495 252.878082,277.20845 C252.855052,277.17545 252.834024,277.14695 252.812495,277.11645 C252.782956,277.07545 252.753417,277.03245 252.726381,276.99545 C252.701848,276.96245 252.681321,276.93545 252.658291,276.90545 C252.637763,276.87695 252.614733,276.84545 252.596208,276.82045 C252.569673,276.78595 252.550147,276.76045 252.528118,276.73345 C252.517604,276.71945 252.503585,276.69995 252.494073,276.68845 C252.465034,276.65295 252.441503,276.62495 252.423479,276.60745 C252.144109,276.32845 251.794645,275.70145 251.794645,275.49195 C251.794645,275.28295 251.864237,274.37695 251.864237,274.37695 L252.283794,274.30745 C252.283794,274.30745 252.562664,274.58695 252.911627,274.51645 C253.260589,274.44745 255.70433,272.63395 255.70433,272.63395 L254.656941,271.10145 C254.656941,271.10145 257.100182,270.61445 257.58883,270.75295 C258.077478,270.89245 259.47383,270.33445 259.7527,270.19545 C260.032571,270.05595 262.404717,269.07995 262.404717,269.07995 L263.870661,268.66095 L264.745822,269.18345 L265.764673,270.12595 L266.280858,270.60345 L266.811061,271.03295 L267.457418,271.55945 L267.70775,271.76145 L268.169362,272.13945 L268.546863,272.19495 L270.395815,272.47245 L271.90732,271.73345 L272.809016,270.82595 L274.801158,268.82245 L277.46469,266.15795 L278.011415,265.29995 L279.50039,262.96295 L281.388895,259.99995 L282.542925,257.95095 L283.00654,257.22745 L284.254195,256.86645 L285.430755,256.18595 L285.510862,256.17345 L286.214795,256.04545 L286.873168,256.10795 L287.989649,256.36595 L289.105629,256.35895 L290.826411,256.05795 L291.922866,255.86745 L292.034514,255.81895 L293.614609,255.10095 L293.885469,254.98095 L294.704054,254.33945 L294.751617,254.29945 L295.780482,253.49145 L297.024131,252.94795 L297.875761,252.87545 L298.927155,252.93695 L299.91096,252.86545 L300.235891,252.19045 L300.688992,251.04795 L301.410449,250.84195 L301.872061,251.17595 L301.942154,252.24995 L302.343686,253.58895 L303.464673,254.79295 L304.191137,255.66095 L306.23685,258.94145 L306.305941,259.94645 L305.982012,260.55195 L305.525406,261.15745 L305.723168,261.69445 L305.796265,262.90245 L305.60351,264.17595 L305.067799,264.57245 L304.232692,265.19145 L302.468352,265.86895 L302.255069,266.30745 L302.015251,266.81145 L302.280102,267.68245 L302.380735,267.88845 L302.428299,267.98345 L303.270415,269.69245 L303.889236,269.75795 L305.102846,269.88595 L307.264713,270.61245 L308.312102,270.54295 L309.556252,270.80495 L310.078445,271.13895 L310.86649,271.87545 L311.519356,271.80695 L312.500156,271.26695 L313.740301,270.45845 L314.929378,269.42445 L314.979445,269.38145 L316.808871,268.30395 L318.05252,268.03245 L318.117607,268.05895 L319.361757,268.56995 L320.211384,268.50145 L320.340555,267.56095 L320.078207,266.28445 L320.273466,265.14495 L320.405641,264.27095 L319.550507,262.39595 L319.155483,261.45545 L319.679678,260.78445 L321.054502,260.44795 L321.31685,259.90745 L321.185175,259.23995 L320.267959,258.83695 L319.020304,258.43745 L318.495107,257.49795 L318.233761,256.49195 L317.116779,255.88645 L316.040352,255.54395 L315.870126,255.48845 L315.266826,254.25095 L314.83275,252.92795 L314.664527,252.42395 L314.336592,251.42495 L313.412867,250.59095 L312.688907,250.55445 L311.363148,250.48945 L309.520705,251.12395 L306.856171,251.13495 L305.624037,250.40745 L305.618029,250.40445 L304.699811,249.88645 L304.3899,249.15745 L304.386896,248.67295 L304.383392,247.48145 L305.093333,245.90595 L305.581981,245.43795 L306.625365,244.43495 L307.540579,242.33745 L307.638709,240.87145 L307.839976,239.82295 L309.277382,239.50545 L309.685423,238.66845 L309.724976,237.92995 L309.783554,236.88645 L309.325947,236.37945 L308.750684,235.73795 L308.74768,235.19945 L308.744676,234.90245 L308.907392,233.80295 L308.946443,233.54145 L310.172569,231.75645 L311.913378,228.29645 L313.038871,225.57295 L313.2116,225.28445 L314.001648,223.97895 L314.290531,223.19695 L314.468767,222.41745 L314.729613,221.74245 L315.177207,221.06895 L315.415523,220.76995 L315.757476,220.47245 L316.233107,220.11795 L316.866447,219.71295 L317.158835,219.54895 L317.634967,219.43845 L317.998949,219.32645 L318.133127,218.90095 L318.222245,218.61895 L318.277819,218.44545 L318.192206,218.23245 L318.05202,217.89195 L317.760633,217.18795 L317.401657,214.13095 L317.343079,213.63295 L317.293514,213.47545 L317.120284,212.92195 L316.71775,211.64545 L316.505469,208.71595 L316.71024,206.09645 L317.430696,204.62995 L317.945879,203.48145 L317.945879,203.23845 L317.943376,202.22345 L317.939871,200.33895 L317.881293,199.99795 L117.083984,199.99795 L117.083984,200.00145 Z" id="Fill-2" fill="#FFFFFF"></path>
                <g id="Group-6">
                    <mask id="mask-2" fill="white">
                        <use xlink:href="#path-1"></use>
                    </mask>
                    <g id="Clip-5"></g>
                    <path d="M2.93844714,85.14695 L2.93644449,85.14795 L2.51388406,85.15745 L2.91591726,86.06295 L3.12018818,86.52295 L3.36951886,87.08245 L4.08146308,96.20945 L3.96230505,100.00145 L5.93642324,100.00145 L5.88886016,99.01695 L6.00301155,97.03245 L6.01252417,96.46645 L6.01502749,96.33745 L6.04206335,94.81795 L5.81926786,93.31195 L5.74316693,92.16245 L6.03355206,90.50645 L5.27054011,88.64595 L4.83446175,87.57945 L4.78539668,87.45845 L3.58780837,85.45845 L3.5067008,85.32345 L3.39405139,85.28845 L2.93844714,85.14695 Z M259.288935,0.00545 L258.12439,0.44095 L257.730367,0.98795 L257.858537,1.91445 L258.151927,2.82095 L258.172454,3.59995 L257.546624,4.29745 L256.805641,4.76195 L255.318168,4.74945 L254.440004,3.91745 L254.003925,4.14095 L253.680997,4.88045 L252.735743,5.41345 L251.350907,5.39795 L251.168164,5.39495 L250.398644,5.38795 L248.580733,5.75145 L247.667522,6.19945 L247.190889,7.65945 L246.730278,8.00645 L245.370475,8.59495 L244.011172,8.82845 L243.259175,8.95545 L242.360483,9.81695 L241.974972,10.69095 L241.959451,11.18495 L240.579621,13.13645 L239.224324,14.34445 L238.297595,15.57745 L238.213483,16.49545 L238.583474,17.92545 L238.190953,18.42995 L237.08799,19.31695 L234.818981,20.03095 L232.871398,20.62345 L232.350207,20.91445 L230.833695,21.76195 L229.979062,22.28945 L228.823029,22.19895 L228.227239,21.57945 L226.532992,20.08345 L225.157167,19.94295 L223.441892,18.61295 L223.192561,18.47595 L221.929887,17.77495 L221.416706,17.49095 L219.618321,17.65745 L218.337622,18.44945 L217.617668,18.83645 L215.86234,19.77995 L212.937961,21.78945 L211.258233,22.25045 L210.823657,22.37245 L209.859378,22.42445 L208.312326,21.98295 L208.087528,21.84895 L207.517272,21.51145 L206.688172,21.01995 L205.933171,20.21845 L205.463548,19.91345 L204.456212,19.97695 L203.716731,19.83145 L203.392802,17.94395 L201.698054,15.38345 L200.939548,14.55395 L200.227604,13.77895 L199.230782,13.74945 L198.054722,13.71745 L197.38183,13.69095 L195.791721,13.62845 L194.544066,13.51795 L193.207293,12.80345 L189.823806,13.16745 L188.03243,12.55795 L187.81414,12.48895 L187.141248,12.27595 L186.191989,12.45645 L185.564156,12.79445 L184.495239,14.39095 L183.955523,14.46945 L183.620078,14.22695 L183.241576,13.41845 L183.511434,12.14295 L184.056156,10.99345 L184.336027,10.04745 L184.177818,9.57545 L182.824523,9.25845 L182.548657,9.19295 L180.962553,9.10495 L180.919496,9.10195 L179.334394,9.29145 L178.89431,9.31795 L177.117454,9.41645 L177.057875,9.41945 L176.57173,9.51145 L175.363127,9.73995 L171.730309,11.98595 L169.664069,13.26195 L167.949795,13.44595 L165.564632,12.60395 L163.756734,11.74645 L161.173308,10.58045 L161.081186,10.41445 L160.457358,9.27795 L156.504115,7.75945 L154.010308,7.64395 L152.201409,7.70745 L150.503657,8.45945 L149.838775,8.53545 L148.645693,8.67245 L146.022213,9.22195 L143.579474,9.73295 L143.927435,11.86745 L142.435957,13.86095 L142.006387,14.21145 L141.277921,14.80345 L140.831329,15.16745 L139.087016,16.49945 L138.416126,16.39095 L137.15295,14.89195 L134.487415,14.60395 L133.84256,13.78545 L132.75712,9.43795 L132.848742,6.45945 L132.073213,5.30895 L131.141978,4.96245 L130.127132,4.55595 L129.064223,3.87545 L128.118468,3.88645 L128.094937,3.90845 L127.298381,4.64795 L127.159697,5.47695 L127.081593,5.95445 L126.731629,7.35195 L126.054731,8.09245 L123.88986,8.64795 L121.134205,9.15595 L118.769569,9.39195 L116.359373,9.35595 L114.116899,8.65195 L113.974209,8.60595 L113.677316,8.81595 L112.843209,9.40495 L112.718043,9.50245 L111.453366,10.50145 L110.595729,10.75045 L109.78966,10.19395 L109.700041,10.13145 L107.360939,9.63445 L107.034506,8.35395 L107.014479,8.27195 L106.943385,8.24545 L105.36429,7.69295 L105.269665,7.66045 L105.093932,7.59695 L103.684563,6.62545 L102.17456,6.56695 L101.907706,6.55595 L101.527702,6.54345 L99.9375932,6.47495 L98.0150434,5.80345 L96.458479,4.91245 L96.3828788,4.87045 L96.3388203,4.87745 L95.3965707,5.03445 L95.261892,5.00145 L95.2488748,4.99745 L93.512572,4.57845 L91.4979,4.69395 L89.3360328,5.35395 L89.1422758,5.41345 L88.7432466,5.60645 L88.1043993,5.91745 L87.4570408,6.23145 L87.0855481,5.37695 L85.8028469,4.31745 L85.5965733,4.32345 L84.4991178,4.35945 L83.8883077,4.37895 L83.6965534,4.38595 L82.2376185,4.90945 L81.8445972,5.04995 L81.7975348,5.04395 L81.007487,4.94545 L80.873309,4.92995 L79.9540899,4.43195 L79.5795932,4.22795 L78.9782958,3.88795 L78.5667499,3.65545 L78.0365467,3.35745 L76.1650647,3.10545 L74.0772958,2.47095 L72.1136915,2.51995 L70.5070607,2.93595 L67.9081138,3.52195 L64.3649146,3.78645 L64.3649146,5.03345 L63.9718934,5.43945 L63.6614817,6.53345 L63.6164219,6.69245 L63.0051112,7.60945 L62.5054485,8.09795 L61.525649,8.23845 L61.1882015,8.50695 L60.0647114,9.39695 L57.8988389,10.08445 L56.6461776,10.18595 L54.7266317,9.24945 L53.5941297,9.96995 L53.5610859,9.97995 L52.912726,10.18845 L52.4796517,10.50695 L52.2077911,10.70345 L50.9060647,12.27195 L49.2428588,12.98745 L47.6507473,13.96395 L46.7425428,14.81445 L45.8378429,15.58795 L43.9703661,16.02945 L43.116734,15.94745 L41.420985,15.35545 L40.7010301,15.22795 L37.7736477,14.70445 L34.7351178,16.82145 L33.8834883,17.75095 L33.8444365,17.77095 L32.933228,18.24645 L32.7519876,18.34095 L32.3159093,18.43595 L31.5188522,18.36745 L30.7152865,18.29845 L29.8811802,18.60395 L29.4205693,18.86445 L28.8182705,20.03345 L28.3301231,21.32645 L28.3216118,21.35295 L28.105325,22.37145 L27.7398402,23.04895 L25.8122838,24.10845 L24.8530116,24.59695 L23.770576,25.13695 L22.6575999,25.65095 L20.8642214,26.00145 L19.1844936,27.56395 L15.3373914,32.80995 L14.4552214,33.41745 L14.397645,33.45645 L13.0688827,33.74745 L12.5897473,34.13695 L12.4565707,34.52545 L12.2788349,35.04295 L12.3424193,35.70545 L12.764479,36.93845 L13.2000567,38.20545 L13.1284618,38.65745 L13.017815,38.91245 L11.450236,42.51695 L11.0622214,43.02495 L10.0548854,43.73495 L10.0528827,43.73495 L8.29605272,43.31895 L7.33778181,43.09345 L6.36649363,43.06395 L5.69660518,43.16245 L5.61049097,43.17545 L5.45929044,43.24445 L4.44794914,43.70245 L3.13070212,44.53445 L1.74937012,45.19595 L1.83598499,45.56895 L2.1794405,48.91045 L2.26555471,52.29845 L2.23901952,52.67245 L1.68478446,55.19945 L1.14657065,59.37345 L0.294941169,62.07745 L0.18279243,63.16045 L0.585326295,67.44945 L0.980350199,68.26395 L0.900243958,72.19945 L1.32781102,74.22495 L1.33431965,76.62145 L1.34833825,76.70445 L1.68929044,78.86845 L2.2184923,80.21745 L2.52640066,82.03345 L2.59499163,83.20645 L2.66658659,84.39795 L3.96480837,85.32395 L4.66123201,86.55395 L5.21746972,87.40195 L5.26252948,87.47095 L6.13368486,88.79645 L6.36449097,89.96545 L6.41355604,90.22045 L6.73698499,91.88645 L6.90220412,92.88245 L6.99132231,93.41945 L8.46027052,98.05445 L8.94691594,100.00145 L376.243547,100.00145 L376.268079,97.65595 L376.409767,95.62645 L376.590507,93.84845 L376.677622,92.99795 L376.543945,92.67645 L375.870552,91.05245 L375.563144,91.51145 L373.711689,91.49145 L372.6648,91.48195 L372.237734,91.52395 L371.977889,91.55045 L370.488414,91.70145 L369.6483,91.09895 L366.525158,89.28245 L365.457241,88.42545 L365.325066,88.31995 L362.671046,87.70045 L361.09846,87.92895 L359.931913,87.63195 L359.65054,87.55945 L359.535387,86.72495 L358.939097,85.40845 L357.503192,83.13395 L355.047936,82.68195 L354.84717,82.64195 L354.811122,82.61245 L353.949479,81.91545 L353.8148,81.80695 L352.919112,81.08045 L352.264244,79.91145 L351.399597,78.37345 L351.240887,78.08795 L350.765256,76.65645 L350.200507,74.44495 L350.037791,73.80895 L349.57718,72.00195 L348.012605,69.60945 L345.471235,68.16895 L342.985438,66.12895 L341.23812,64.69645 L337.610309,59.44145 L337.409042,59.15395 L335.428916,56.33745 L332.999694,55.13895 L332.437448,54.71695 L330.980516,53.62445 L330.932452,53.58795 L330.85485,53.56095 L328.500227,52.75295 L328.441649,52.72795 L327.866386,52.45545 L326.845532,51.96995 L326.821,51.94845 L325.992901,51.18845 L325.499247,50.67695 L325.252419,49.97645 L325.197346,49.40995 L324.674152,48.51945 L323.711876,48.14345 L323.056006,48.14045 L322.80267,47.81345 L322.008617,46.42795 L321.91299,46.35545 L320.654321,45.85445 L319.580397,45.50395 L318.091422,45.02245 L316.493302,44.32245 L315.196583,43.46495 L313.790718,42.60345 L313.127839,41.85045 L312.713289,40.98945 L312.630179,40.37095 L312.627175,39.69995 L312.708282,38.64945 L312.708282,38.19045 L312.749337,37.83095 L312.821933,37.20195 L312.836953,36.29495 L312.750839,35.24095 L312.315762,35.12695 L311.687929,35.49045 L310.844811,36.16095 L309.972654,36.59395 L308.688451,36.41595 L306.872042,36.34395 L304.867383,36.13195 L304.552466,35.63745 L304.046795,33.60445 L303.519596,33.08995 L302.457688,33.01145 L301.845375,33.16795 L301.414804,33.42495 L301.407795,34.04295 L301.209532,34.80545 L300.629763,35.20095 L300.405966,35.22845 L299.508776,35.33695 L298.613089,35.24095 L297.749944,34.39945 L296.878788,34.17695 L295.716747,34.64545 L295.166518,35.28695 L294.085584,34.06245 L293.478779,33.93145 L291.552224,34.32995 L289.831942,34.37695 L288.934252,34.94045 L288.285892,35.46995 L287.360164,35.13295 L286.622686,34.31745 L285.32146,32.71395 L284.201475,32.52445 L283.696806,31.88845 L282.935296,31.10345 L282.773581,30.93545 L282.011571,30.90645 L280.545126,31.62295 L279.597369,32.11145 L278.259094,32.19745 L276.600394,31.74545 L274.423006,30.91045 L273.416672,30.73045 L273.215905,30.69445 L272.734767,29.39845 L272.692711,29.28045 L272.351759,28.95345 L272.29969,28.75045 L271.921188,27.28345 L271.916682,27.27345 L271.510644,26.10195 L271.494622,25.86945 L271.465584,25.45645 L271.416519,24.75895 L271.387981,24.11445 L271.326399,22.43095 L270.995961,21.85645 L270.433715,21.12045 L270.024673,20.58445 L269.867965,20.52095 L269.310726,20.30195 L269.286193,20.26195 L268.666371,19.27645 L268.239806,18.59195 L267.859301,17.98045 L267.390179,17.72895 L267.176896,17.61345 L267.032204,17.50595 L266.653702,17.22495 L266.376835,17.01895 L264.868835,16.18395 L264.355654,14.89395 L264.402216,13.03745 L264.348144,10.74345 L263.142545,8.71995 L261.078308,5.36745 L260.349842,3.44545 L260.409421,2.32945 L260.713824,1.13795 L260.502544,0.50945 L259.288935,0.00545 Z" id="Fill-4" stroke="#0E0E0E" fill="#FFFFFF" mask="url(#mask-2)"></path>
                </g>
            </g>
        </g>
        <g id="Group-5-Copy" transform="translate(198.000000, 127.000000)">
            <path d="M19.5007728,0 C30.2704791,0 39,8.72986684 39,19.5 C39,30.2701332 30.2704791,39 19.5007728,39 C8.73106646,39 0,30.2701332 0,19.5 C0,8.72986684 8.73106646,0 19.5007728,0 Z" id="Stroke-1" stroke="#E75F52"></path>
            <path d="M19.5,13 C23.0899976,13 26,15.910354 26,19.5007853 C26,23.089646 23.0899976,26 19.5,26 C15.9100024,26 13,23.089646 13,19.5007853 C13,15.910354 15.9100024,13 19.5,13" id="Fill-3" fill="#E75F52"></path>
        </g>
    </g>
</svg>