<?xml version="1.0" encoding="UTF-8"?>
<svg width="150px" height="300px" viewBox="0 0 150 300" version="1.1" xmlns="http://www.w3.org/2000/svg" xmlns:xlink="http://www.w3.org/1999/xlink">
    <!-- Generator: Sketch 64 (93537) - https://sketch.com -->
    <title>26</title>
    <desc>Created with Sketch.</desc>
    <defs>
        <polygon id="path-1" points="0 0 150 0 150 301 0 301"></polygon>
    </defs>
    <g id="26" stroke="none" stroke-width="1" fill="none" fill-rule="evenodd">
        <g id="Group-3">
            <mask id="mask-2" fill="white">
                <use xlink:href="#path-1"></use>
            </mask>
            <g id="Clip-2"></g>
            <path d="M97.5110992,126.585064 L97.746162,126.585064 L97.5110992,126.585064 Z M117.016312,100.047226 C116.78125,100.164661 116.428655,100.164661 116.193593,100.164661 C116.546187,100.164661 117.251375,99.9297905 117.016312,100.047226 L117.016312,100.047226 Z M48.0441281,194.693685 C47.5740024,194.81112 47.2214082,194.927306 46.868814,194.927306 C46.0460941,194.81112 47.1038768,194.81112 48.0441281,194.693685 L48.0441281,194.693685 Z M2.92331857,269.141304 L2.92331857,269.023869 L2.92331857,268.906434 C3.1583814,269.141304 3.51097564,269.258739 3.51097564,269.493609 C4.21616411,274.54332 1.63047303,270.902831 2.68825575,269.258739 C2.68825575,269.258739 2.68825575,269.376174 2.57072433,269.493609 C2.68825575,269.376174 2.92331857,269.258739 2.92331857,269.141304 L2.92331857,269.141304 Z M1.0440663,277.831503 C1.16034738,277.714068 1.16034738,277.714068 1.27912913,277.595383 C1.51294162,278.770984 1.98306727,280.06277 1.39541021,281.235872 C0.103815,283.584574 0.809003477,279.240724 1.0440663,277.831503 L1.0440663,277.831503 Z M8.68110747,232.738916 C9.15123312,232.504046 9.73889018,232.738916 10.3265472,232.856351 C10.3265472,232.738916 10.3265472,232.621481 10.4428283,232.621481 C10.4428283,232.504046 10.5616101,232.738916 10.5616101,232.856351 C10.4428283,232.973786 10.3265472,232.973786 10.2090158,233.091221 L10.3265472,232.973786 C9.85642159,233.208656 9.38629594,233.797081 8.91617029,233.797081 C8.56357605,233.797081 8.44604464,232.973786 8.68110747,232.738916 L8.68110747,232.738916 Z M30.5356986,210.781047 C31.1233556,210.898482 30.7707614,211.720528 30.8882928,212.306454 C30.7707614,212.423889 30.5356986,212.541325 30.4181672,212.541325 C29.9480415,212.660009 29.3616348,212.660009 28.8915091,212.776195 C23.9551898,213.480806 30.4181672,210.662363 30.5356986,210.781047 L30.5356986,210.781047 Z M59.5584555,143.730591 C59.7935184,143.024731 59.3233927,141.732945 60.0285812,141.616759 C64.3759931,140.793464 60.4987068,144.903693 59.0883299,145.257248 C59.0883299,145.139813 58.8532671,145.139813 58.8532671,145.021128 C59.0883299,144.551388 59.4409241,144.200332 59.5584555,143.730591 L59.5584555,143.730591 Z M68.9584679,133.043995 C69.1935307,133.278866 68.4883422,133.513736 68.6058737,133.866041 C68.8409365,135.157828 71.8955029,135.040393 67.6656224,136.801919 C67.1954967,136.919354 66.7253711,136.332179 66.1389643,136.097309 C69.1935307,133.631171 67.4305595,133.278866 67.4305595,133.983476 C67.5493413,135.392698 66.0201826,134.453217 65.3162444,134.922957 C64.7285874,135.157828 64.2584617,137.154225 64.1409303,136.449614 C63.7883361,134.453217 66.8441528,131.048848 68.9584679,133.043995 L68.9584679,133.043995 Z M85.2915833,113.90332 C86.2318346,111.320997 95.6318469,111.906923 87.5234298,115.664847 C86.9370231,114.961486 85.0565204,114.725366 85.2915833,113.90332 L85.2915833,113.90332 Z M91.5182475,111.673302 L91.6357789,111.906923 C91.6357789,112.024358 91.5182475,112.143043 91.5182475,112.259229 C91.5182475,112.024358 91.4007161,111.906923 91.5182475,111.673302 L91.5182475,111.673302 Z M93.7513443,108.736175 C93.9864072,108.266435 94.6915956,108.032814 95.2780024,107.796694 C95.3967841,107.679259 95.748128,107.796694 95.6318469,107.915379 C95.2780024,108.85486 94.6915956,109.675656 94.22147,110.497702 C94.1039386,109.911776 93.5162815,109.3246 93.7513443,108.736175 L93.7513443,108.736175 Z M100.800728,100.399531 L100.330603,100.399531 C100.09554,100.283345 100.330603,100.399531 100.800728,100.399531 L100.800728,100.399531 Z M101.623448,99.9297905 C102.093574,99.9297905 102.328637,100.753086 102.681231,100.516966 C103.151357,100.164661 101.858511,98.8741237 102.328637,98.9903096 C102.5637,99.1077447 102.5637,99.6949203 102.916294,99.6949203 C103.151357,99.5774851 102.681231,98.9903096 102.916294,98.8741237 C103.972826,98.4043833 103.503951,101.339012 104.561734,99.8136047 C104.796796,99.5774851 103.972826,99.1077447 104.207889,98.8741237 C104.913078,97.9346428 106.088392,97.5810881 107.146174,96.8764774 C107.146174,96.9951618 107.028643,96.9951618 107.028643,96.9951618 C107.028643,97.1113476 107.498769,97.1113476 107.498769,97.2287828 C107.381237,97.6985232 106.911112,98.1682637 106.676049,98.6380042 C105.735797,101.222826 104.442952,102.278493 101.623448,102.748233 C101.858511,102.043623 102.681231,101.222826 102.328637,100.516966 C102.211105,100.399531 101.976043,100.283345 101.74098,100.283345 C101.74098,100.164661 101.505917,99.9297905 101.623448,99.9297905 L101.623448,99.9297905 Z M119.483222,90.7698512 C119.602003,91.7093322 117.956564,91.9454517 117.368907,92.6488131 C112.6689,88.0700928 119.013096,88.0700928 119.483222,90.7698512 L119.483222,90.7698512 Z M148.505979,102.513363 C149.211167,103.452844 150.856607,105.684111 149.44623,106.153852 C148.035853,106.623592 144.39363,104.74463 145.568944,105.801546 C147.80079,107.679259 143.335847,110.381516 142.74819,111.789488 C142.74819,111.906923 144.158567,116.956633 142.514377,116.370707 C138.048184,114.607931 143.335847,111.673302 141.809189,109.08848 C139.458561,104.978251 135.816337,106.506157 132.76052,103.217974 L132.644239,102.630798 C132.525458,102.630798 132.409176,102.630798 132.290395,102.748233 C132.290395,102.630798 132.174114,102.630798 132.174114,102.513363 L132.174114,102.748233 C129.823485,103.217974 130.293611,105.917732 128.296827,106.506157 C126.533856,106.975898 127.237794,104.508511 125.241011,106.741027 C125.005948,107.093333 125.241011,107.679259 125.123479,108.149 C125.005948,108.266435 123.714353,110.733821 123.714353,110.851257 C123.360508,111.789488 124.065696,114.842801 124.183228,115.664847 C124.183228,116.017153 123.949415,116.252023 123.949415,116.604328 C123.949415,117.308939 124.065696,117.896114 124.183228,118.600725 C124.535822,119.540206 125.358542,120.244817 125.476073,121.184298 C126.063731,125.294527 125.005948,122.476084 123.595571,123.766621 C121.951381,125.411962 123.47929,125.881703 123.009164,127.87685 C122.890382,128.346591 122.420257,128.58271 122.303976,129.052451 C122.303976,129.169886 120.776067,127.760664 120.541004,127.643229 C120.18841,127.40711 115.840998,125.881703 115.488404,126.351443 C115.018278,126.821183 115.370873,127.760664 115.018278,128.230405 C113.609152,130.695293 111.728649,129.169886 109.730615,129.522191 C109.142958,129.522191 108.321489,130.109367 107.851363,129.755812 C107.263706,129.286072 107.498769,128.346591 107.146174,127.760664 C106.323454,126.351443 103.621482,122.710954 102.211105,121.888908 C97.5110992,119.187901 99.6254143,126.234008 99.6254143,126.234008 C98.9202258,126.351443 98.3338191,125.529397 97.6286306,125.529397 C97.2760364,125.529397 96.6883793,125.881703 96.8059107,126.115323 C96.9234421,126.234008 97.0409736,126.351443 97.158505,126.351443 L96.9234421,126.351443 C95.9831908,126.585064 94.6915956,125.999138 94.22147,126.821183 C93.8676254,127.40711 95.3955338,127.760664 95.748128,128.346591 C96.1007222,129.052451 96.3357851,129.873247 96.3357851,130.695293 C96.3357851,132.104515 94.3377511,133.161431 94.6915956,134.570652 C94.8078767,135.627568 98.9202258,135.392698 95.0429395,137.858835 C93.9864072,138.563446 85.87799,134.570652 84.2338006,136.684484 C83.5286121,137.623965 86.4656471,144.317767 84.1162691,145.257248 L80.3552639,143.611907 C79.6513258,143.611907 77.4182289,147.722136 77.3006975,148.661617 C77.0656347,149.953403 77.0656347,151.597495 76.1266337,152.771846 C75.4214453,153.593892 74.1285997,152.302106 74.481194,154.415938 C74.9513196,156.99951 78.005886,157.233131 76.7130405,160.405129 C76.007852,162.400277 72.1305657,166.980246 71.4253772,169.094078 C71.1903144,170.150994 72.7182228,171.090475 72.3656285,172.147392 L69.7811878,174.378659 C68.8409365,174.848399 66.9604339,173.790234 66.4903082,174.848399 L67.6656224,179.42712 C67.6656224,179.42712 67.0779653,182.950173 67.0779653,183.067608 L67.4305595,187.412708 C67.3130281,187.882448 66.7253711,187.998634 66.6078396,188.468374 C65.5513073,191.640372 63.9058675,194.927306 62.8480848,198.215489 C62.1428963,200.330571 67.0779653,199.15497 66.2552454,204.909291 C65.4337758,210.428742 62.2604277,204.909291 57.4428901,207.962604 C55.9149817,208.902085 53.330541,212.89363 52.9779468,214.772592 C52.8604153,215.359767 53.5656038,215.829508 53.4480724,216.299248 C53.330541,217.591035 51.6863515,218.413081 51.6863515,219.704867 C51.6863515,233.913267 53.4480724,209.254391 53.4480724,223.462791 C53.4480724,224.167401 52.6266029,224.637142 52.6266029,225.341753 C52.5078211,226.162549 52.9779468,226.868409 53.0954782,227.690455 C53.0954782,228.393816 52.5078211,229.217111 52.6266029,229.920473 C52.7428839,231.682 54.6233865,233.208656 54.8584494,234.970183 C55.0935122,237.553756 53.2130096,240.84069 53.8006666,243.308076 C54.5058551,246.007835 58.9707985,245.774214 59.4409241,248.708843 L58.1480786,253.406247 C57.2090776,254.228293 54.8584494,253.641118 54.9759808,254.815469 C55.5636378,259.865179 58.6182042,258.573393 57.3253587,265.265945 L57.4428901,268.671564 C56.3851074,271.372571 52.6266029,271.607442 52.39154,272.429487 C52.2727583,272.664358 52.8604153,272.781793 52.8604153,273.134098 C53.0954782,273.603839 53.330541,274.191014 53.0954782,274.660755 C52.7428839,275.365365 51.5675698,275.4828 51.3337573,276.304846 C50.6285688,278.417429 53.9181981,283.114834 51.3337573,286.755323 C50.2759746,288.281979 49.8058489,287.108877 49.4532547,285.933277 C49.5707861,285.933277 49.5707861,285.933277 49.6883175,285.815842 C50.1584432,285.463536 49.4532547,284.524055 49.1006605,284.054315 C46.6337511,280.180205 47.9253463,285.933277 44.04806,282.292788 C43.6954658,281.941732 44.4006543,281.235872 44.4006543,280.766132 C44.4006543,280.06277 43.6954658,280.766132 43.6954658,280.766132 C42.9915277,279.710465 43.2265905,277.948938 43.4616533,278.183808 C43.4616533,277.948938 43.3428716,277.831503 43.3428716,277.714068 C43.1078087,276.539717 42.7564648,275.4828 42.521402,274.3072 C42.4026203,273.603839 43.4616533,272.077182 42.6376831,272.077182 C39.7006481,272.077182 44.7532485,275.716421 41.8162135,277.714068 C41.6986821,277.714068 41.5811507,277.595383 41.5811507,277.479198 C41.4636193,276.774587 41.8162135,275.952541 41.5811507,275.365365 C41.2285565,274.77694 40.0532423,273.721274 39.9357109,274.3072 C39.8181795,275.246681 40.9934937,275.835106 41.3460879,276.655902 C41.5811507,277.125643 40.8759622,278.183808 41.1110251,278.770984 C42.0512764,281.235872 42.7564648,279.944086 42.0512764,281.589427 C42.0512764,281.705612 42.0512764,282.059167 41.8162135,282.059167 C41.5811507,282.059167 41.3460879,281.353307 41.1110251,281.589427 C40.2883052,283.114834 41.3460879,285.111231 40.4058366,285.111231 C39.9357109,285.111231 40.523368,283.584574 40.1707738,283.820694 C38.1739901,285.111231 41.933745,286.403017 36.9986759,286.403017 C36.4110189,286.403017 36.9986759,285.229915 36.5285503,284.876361 C35.9408932,284.524055 34.8831105,283.232269 34.5305163,283.820694 C34.177922,284.64149 35.7058304,285.111231 36.0584246,285.933277 C36.1759561,286.285582 33.0038582,286.520452 32.651264,287.694804 C32.5337326,288.164544 33.8253278,288.634285 33.4727336,288.985341 C32.8850765,289.691201 31.3584185,289.104025 30.7707614,289.691201 C30.4181672,290.160941 31.9460755,290.278376 31.8285441,290.748117 C31.1233556,295.561707 30.1831043,289.338895 29.5954473,291.803783 C29.4779159,292.039903 29.9480415,292.273524 29.8305101,292.509643 C29.242853,293.331689 26.1882866,296.970929 26.0707552,297.089613 C25.8356924,297.323234 25.4830982,296.619873 25.2480353,296.853494 C24.5428469,297.440669 24.6603783,298.968575 23.720127,299.084761 C23.0149385,299.319631 22.8986574,297.323234 22.0759375,297.559354 C21.2532176,297.792974 21.6058119,299.319631 21.0181548,299.789372 C20.5480292,300.141677 19.7253093,299.554501 19.256434,299.789372 C18.9025894,299.908056 18.7863083,300.377796 18.4324637,300.493982 C17.2583999,301.198593 17.6109942,300.141677 15.9655544,300.141677 C15.1428345,300.141677 14.2038335,301.433463 13.7337079,300.847537 C13.2635822,300.259112 15.2603659,299.789372 15.0253031,299.084761 C14.6739592,298.498835 13.9687707,300.024242 13.2635822,300.024242 C12.3233309,300.141677 11.3830796,299.789372 10.4428283,299.438315 C8.44604464,298.498835 12.3233309,297.207048 12.6759252,296.383753 C12.7934566,295.914013 11.9707367,295.444272 11.500611,295.561707 C11.0304854,295.680392 11.1480168,296.737308 10.5603597,296.853494 C9.85642159,296.970929 9.15123312,296.501188 8.44604464,296.150132 C7.03566769,295.561707 6.2129478,293.449124 5.50900966,292.979384 C5.15516508,292.627079 4.44997661,292.861949 3.98110129,292.627079 C3.1583814,292.157338 1.74800445,289.104025 1.86553586,288.281979 C1.86553586,287.578618 2.68825575,287.108877 2.92331857,286.285582 C3.04084999,285.580971 2.10059868,283.820694 2.92331857,284.054315 C3.86356988,284.290434 3.1583814,286.285582 4.0986327,286.639137 C4.56875835,286.990193 4.68503943,285.463536 5.27394683,285.229915 C5.50900966,284.993796 5.74282215,285.229915 5.97788497,285.463536 C5.74282215,284.876361 5.62529073,284.290434 5.39022791,283.70201 C5.27394683,282.881213 7.03566769,283.114834 7.50579334,282.528908 C7.74085616,282.292788 6.44801062,282.528908 6.56554204,282.175353 C6.80060486,281.589427 7.38826193,281.235872 7.97591899,281.002251 C8.68110747,280.532511 10.0914844,280.883567 10.4428283,280.06277 C10.912954,279.004605 7.62332475,280.532511 6.91813627,279.826651 C6.44801062,280.413826 6.2129478,280.413826 6.2129478,279.35691 C6.33047921,278.417429 8.32851323,278.183808 8.0934504,277.361762 C7.74085616,276.422281 6.33047921,276.186162 5.39022791,276.422281 C3.86356988,276.892022 4.45122694,280.532511 2.92331857,280.413826 C2.10059868,280.413826 2.68825575,278.88717 2.33566151,278.301243 C2.10059868,277.948938 1.63047303,277.714068 1.16034738,277.479198 C1.16034738,277.479198 1.16034738,277.595383 1.27787879,277.595383 C1.16034738,277.595383 1.16034738,277.595383 1.04281597,277.714068 C1.04281597,277.595383 1.16034738,277.479198 1.16034738,277.479198 C0.807753143,277.244327 0.455158904,277.009457 0.455158904,276.655902 C0.455158904,276.069976 1.86553586,277.125643 2.33566151,276.774587 C3.04084999,276.186162 2.80578716,274.660755 3.62850705,274.3072 C4.21616411,273.956144 4.56875835,275.246681 5.15516508,275.365365 C5.39022791,275.4828 5.038884,274.77694 5.27394683,274.660755 C5.50900966,274.425884 5.86035356,274.77694 6.09541638,274.660755 C6.56554204,274.54332 4.92135259,274.54332 5.038884,274.073579 C5.038884,273.956144 9.85642159,271.842312 9.50382736,271.842312 C5.74282215,271.607442 8.0934504,274.77694 4.45122694,271.490006 C4.33369553,271.372571 5.038884,271.490006 5.15516508,271.255136 C5.39022791,271.020266 5.15516508,270.43309 5.50900966,270.315655 C5.97788497,269.96335 6.56554204,270.43309 7.03566769,270.080785 C7.27073051,269.96335 6.91813627,269.611045 6.91813627,269.376174 C7.1531991,268.906434 7.38826193,268.554128 7.62332475,268.319258 C8.21098182,267.966953 9.50382736,268.319258 9.62135877,267.732083 C9.73889018,267.027472 8.0934504,267.144907 8.0934504,266.557731 C7.97591899,266.322861 8.21098182,265.971805 8.44604464,265.61825 C8.21098182,265.61825 7.85838758,265.032324 7.62332475,265.265945 C7.03566769,265.61825 6.68307345,266.205426 6.33047921,266.675167 C5.86035356,267.614648 6.09541638,268.788999 5.39022791,269.493609 C5.038884,269.845915 5.15516508,268.554128 5.038884,268.201823 C4.33369553,266.911286 3.74603846,267.262342 4.21616411,266.087991 C4.68503943,265.14851 6.56554204,263.034678 5.50900966,263.269548 C4.33369553,263.623103 3.51097564,268.788999 2.10059868,266.205426 C1.74800445,265.38338 1.39541021,264.443899 1.16034738,263.504418 C1.04281597,262.564937 2.80578716,263.504418 4.92010226,262.801057 C5.39022791,262.683622 5.62529073,262.213881 5.74282215,261.626706 C4.92010226,262.447502 3.39344422,260.687225 3.39344422,260.217484 C3.39344422,259.159319 5.038884,258.925698 5.97788497,258.455958 C5.74282215,257.164171 4.68503943,258.338522 3.74603846,259.395438 C3.74603846,259.395438 3.62850705,259.395438 3.62850705,259.278003 C3.51097564,259.159319 3.39344422,258.925698 3.1583814,258.689578 C3.51097564,259.043133 3.62850705,259.512874 3.74603846,259.395438 C3.1583814,259.982614 2.68825575,260.452355 2.33566151,260.56854 C1.74800445,260.56854 1.98306727,259.395438 1.74800445,258.925698 C1.63047303,258.689578 -0.483842064,256.576996 0.102564666,256.45956 C0.925284555,256.45956 1.63047303,257.164171 2.33566151,257.750097 C2.33566151,257.633912 2.2181301,257.399041 2.33566151,257.164171 C2.57072433,256.342125 3.98110129,256.342125 4.68503943,255.75495 C4.80382118,255.637515 4.56875835,255.167774 4.33369553,255.285209 C3.39344422,255.402644 1.86553586,256.576996 1.04281597,256.107255 C-0.0137164129,255.52008 0.807753143,252.819072 1.39541021,252.466766 C2.2181301,251.879591 3.1583814,253.641118 4.21616411,253.641118 C4.33369553,253.758553 6.68307345,250.94011 9.2675142,252.233146 C10.0914844,252.584202 10.2077655,253.758553 11.0304854,254.110858 C11.8532053,254.463163 10.3252969,252.349331 13.0285194,251.644721 C16.43568,250.70524 12.910988,256.694431 16.5532115,256.45956 C18.7863083,256.22469 15.7304916,254.345728 15.848023,252.819072 C15.9655544,251.17498 21.9584061,255.050339 21.1356862,250.94011 C21.0181548,250.118064 19.4902464,251.644721 18.7863083,251.40985 C18.3161826,251.293665 18.1974009,250.587805 18.1974009,250.118064 C18.1974009,248.826278 21.4882805,247.535741 20.3129663,247.066 C17.3759313,245.8904 18.3161826,251.293665 18.0811198,251.879591 C18.0811198,251.997026 16.6707429,252.349331 15.4954287,252.466766 C15.2603659,252.584202 15.3778973,252.114461 15.2603659,251.997026 C14.4388964,251.527285 13.4986451,251.293665 12.6759252,250.823924 L12.5583938,250.70524 C12.2057995,251.527285 11.8532053,252.114461 11.6181425,252.349331 C11.500611,252.466766 7.85838758,250.823924 6.91813627,250.823924 C6.56554204,250.70524 6.80060486,251.40985 6.56554204,251.527285 C5.27394683,252.114461 3.74603846,252.349331 2.45319292,251.997026 C2.2181301,251.997026 0.455158904,250.000629 0.69022173,249.648324 C1.27787879,248.826278 2.33566151,248.475222 3.1583814,248.239102 C4.0986327,248.005481 5.86035356,249.061148 5.86035356,248.121667 C5.97788497,247.299621 4.0986327,247.886797 3.1583814,248.005481 C2.57072433,248.005481 2.10059868,248.826278 1.51294162,248.591408 C-0.953967715,247.651927 1.98306727,246.36014 2.68825575,246.36014 C3.86356988,246.477575 5.86035356,247.886797 7.27073051,246.947316 C8.68110747,245.8904 3.1583814,247.299621 2.45319292,245.656779 C2.2181301,244.950919 5.15516508,245.068354 4.56875835,244.717298 C3.86356988,244.364993 2.80578716,244.834733 2.2181301,244.247557 C0.337627491,242.719652 3.1583814,239.667588 4.92010226,239.550153 C6.2129478,239.550153 7.85838758,239.785023 8.56357605,240.84069 C8.91617029,241.31043 7.85838758,242.133725 8.21098182,242.602216 C8.56357605,243.071957 8.32851323,241.194244 8.79738855,241.076809 C9.38629594,240.959374 9.62135877,242.133725 10.2077655,242.249911 C10.6778912,242.249911 9.2675142,241.429115 9.50257702,241.194244 C10.0914844,240.489634 12.910988,242.955771 15.0253031,240.959374 C15.3778973,240.607069 14.4388964,240.370949 13.9687707,240.370949 C9.85642159,240.137328 15.9655544,241.31043 12.5583938,241.54655 C11.9707367,241.663985 8.32851323,239.901209 6.68307345,239.667588 C6.09541638,239.667588 5.62529073,239.315282 5.038884,239.315282 C4.33369553,239.315282 3.04084999,240.370949 2.92331857,239.667588 C2.80578716,238.845542 4.68503943,238.845542 4.92010226,238.022247 C5.15516508,236.96658 2.80578716,236.49684 2.80578716,235.322488 C2.80578716,234.852748 3.98110129,235.322488 4.21491378,235.674794 C4.56875835,236.261969 4.56875835,237.671191 5.27394683,237.553756 C5.97788497,237.436321 4.44997661,235.557359 5.15516508,235.439923 C6.09541638,235.322488 6.56554204,237.20145 7.50579334,237.20145 C8.21098182,237.20145 7.97591899,234.970183 8.44604464,235.439923 C9.03245137,235.909664 8.21098182,236.96658 8.21098182,237.788626 C8.21098182,237.906061 7.97591899,238.258366 8.0934504,238.258366 C8.79738855,238.022247 8.44604464,236.49684 9.15123312,236.49684 C9.50257702,236.49684 9.2675142,237.318885 9.62135877,237.553756 C10.3252969,237.906061 11.500611,238.610672 11.8532053,237.906061 C12.0882681,237.318885 10.3252969,237.553756 9.97270267,237.084015 C9.38629594,236.379404 9.15123312,235.557359 9.15123312,234.735313 C9.03245137,233.678397 10.7954226,232.856351 11.8532053,233.091221 C12.3233309,233.208656 12.0882681,234.148137 12.3233309,234.617878 C12.6759252,235.322488 13.2635822,235.792229 13.4986451,236.49684 C13.4986451,236.73171 12.910988,237.20145 13.1460508,237.20145 C13.4986451,237.20145 13.6149261,236.73171 13.6149261,236.49684 C13.1460508,234.148137 10.5603597,232.621481 14.6739592,231.918119 C16.0830858,231.682 16.3181486,233.678397 16.3181486,235.557359 C16.43568,235.322488 16.5532115,234.970183 16.7882743,234.852748 C17.4934628,234.265572 19.4902464,235.557359 19.256434,234.735313 C19.0213711,233.797081 17.3759313,234.617878 16.5532115,234.030702 C15.9655544,233.560962 16.2006172,232.504046 15.7304916,231.918119 C15.1428345,231.096073 11.9707367,230.039157 11.500611,229.686852 C11.3830796,229.569417 11.8532053,229.217111 12.2057995,229.217111 C12.6759252,229.099676 13.2635822,229.099676 13.7337079,229.333297 C13.9687707,229.450732 13.849989,230.039157 14.0850518,230.039157 C14.4388964,230.156592 15.848023,227.690455 17.4934628,228.980992 C17.9623381,229.333297 17.2583999,230.508898 17.846057,230.742519 C18.3161826,230.978638 17.6109942,229.450732 18.0811198,229.217111 C18.9025894,228.747371 20.6655606,231.329694 20.6655606,231.447129 C21.370749,231.565814 22.7798757,230.978638 22.4285318,230.390213 C22.0759375,229.686852 20.6655606,230.859954 20.0779035,230.390213 C19.2551836,229.686852 20.9006234,228.393816 22.1934689,227.924076 C21.2532176,228.277631 20.4304977,228.511251 19.6077779,228.511251 C12.5583938,228.629936 18.7863083,227.80789 18.5512455,226.398669 C18.4324637,225.459188 16.9058057,225.576623 16.3181486,224.753328 C15.4954287,223.813847 15.848023,222.99305 19.0213711,223.344106 C19.7253093,223.462791 19.7253093,224.753328 20.4304977,224.989447 C20.9006234,225.106882 21.2532176,224.283587 21.7233433,224.283587 C22.4285318,224.167401 23.0149385,224.167401 23.720127,224.283587 C23.6025956,224.167401 23.4850641,223.932531 23.3687831,223.813847 C23.2500013,223.110485 24.1902526,222.405875 24.8954411,222.288439 C25.2480353,222.171004 24.8954411,222.99305 25.1305039,223.344106 C25.4830982,223.813847 26.3058181,223.813847 26.5408809,224.402272 C26.7759437,224.872012 26.0707552,225.576623 26.5408809,225.928928 C27.1285379,226.516104 28.655196,227.571771 29.1253216,226.750974 C29.4779159,225.928928 27.2460694,225.576623 27.1285379,224.637142 C27.1285379,224.049966 28.4201331,224.519707 28.8902588,224.167401 C29.1253216,223.932531 28.0675389,224.402272 27.8324761,224.167401 C27.716195,224.049966 28.5376646,223.580226 28.3026017,223.697661 C27.716195,223.813847 27.2460694,224.637142 26.7759437,224.402272 C25.9532238,223.932531 25.718161,222.874366 25.4830982,222.053569 C25.2480353,221.701264 26.0707552,222.405875 26.4233495,222.52331 C26.7759437,222.75818 25.2480353,221.348959 26.4233495,221.583829 C26.5408809,221.583829 31.2408871,224.049966 30.7707614,220.879218 C30.3006358,217.003859 27.0110065,224.283587 27.716195,219.235126 C27.8324761,218.17821 30.65323,216.299248 31.4759499,216.768989 C32.1811384,217.121294 31.3584185,218.647951 31.9460755,219.352561 C32.1811384,219.704867 32.5337326,218.765386 32.8850765,218.530516 C33.4727336,218.295645 35.1181733,218.295645 34.6480477,217.825905 C34.2954535,217.356164 32.651264,219.000256 32.7687954,218.295645 C32.7687954,217.4736 34.0603906,217.238729 34.6480477,216.534119 C35.3532362,215.829508 35.3532362,214.420286 36.2934875,214.302851 C36.9986759,214.06923 36.6460817,215.478452 36.9986759,216.064378 C37.2337388,216.534119 38.0552083,216.768989 38.0552083,217.356164 C38.0552083,218.060775 36.9986759,218.413081 37.1162074,219.117691 C37.2337388,219.587432 37.8201455,218.530516 38.2902712,218.647951 C38.9954596,218.765386 39.8181795,220.526913 40.1707738,219.939737 C40.523368,219.000256 38.7603968,218.295645 38.8779282,217.356164 C38.8779282,216.417933 43.6954658,217.591035 43.8129972,217.591035 C44.6357171,217.003859 44.7532485,215.712073 44.6357171,214.772592 C44.5181857,214.302851 43.1078087,215.242332 43.2265905,214.772592 C43.5779344,213.245935 48.395472,213.011065 48.1604092,211.837963 C48.0441281,210.898482 45.2233742,210.898482 45.8110312,210.075187 C46.2811569,209.253141 48.395472,209.489261 48.5130034,208.54978 C48.8655976,203.852375 44.6357171,209.605447 43.6954658,210.428742 C43.2265905,210.781047 41.8162135,211.132103 42.1675574,211.720528 C42.6376831,212.541325 44.04806,212.071584 44.8707799,212.423889 C44.9883114,212.423889 44.6357171,212.541325 44.5181857,212.660009 C43.9305286,213.011065 43.2265905,213.245935 42.6376831,213.715676 C42.0512764,214.185416 39.112991,216.768989 38.1739901,216.534119 C37.586333,216.417933 37.8213958,215.478452 37.586333,215.008711 C37.3512702,214.538971 36.5285503,214.185416 36.7636131,213.715676 C37.1162074,212.89363 38.2902712,212.776195 38.9954596,212.190269 C39.112991,212.071584 38.525334,212.541325 38.2902712,212.423889 C38.0552083,212.423889 38.6428654,211.837963 38.525334,211.954149 C37.7038644,212.306454 36.4110189,214.185416 35.2357048,213.715676 C33.4739839,213.011065 36.0584246,211.484408 37.3512702,210.662363 C38.0552083,210.311307 38.9954596,210.311307 39.4655853,209.605447 C39.8181795,209.253141 38.4078026,209.959001 37.9389273,209.841566 C37.7038644,209.841566 37.8213958,209.605447 37.8213958,209.371826 C37.9389273,208.54978 37.8213958,207.726485 38.2902712,207.023123 C38.525334,206.670818 39.2305225,207.257994 39.5831167,207.023123 C39.8181795,207.023123 39.112991,207.023123 39.112991,206.788253 C39.112991,206.434698 39.2305225,206.083642 39.3480539,205.731337 C39.7006481,205.379032 40.523368,206.201077 40.7584308,205.731337 C40.9934937,205.379032 40.6408994,204.674421 40.9934937,204.20468 C41.3460879,203.73494 42.4026203,203.852375 42.6376831,203.146515 C42.7564648,202.676775 41.1110251,202.090848 41.5811507,201.973413 C42.4026203,201.739792 43.1078087,203.146515 43.9305286,202.912894 C44.5181857,202.795459 42.9915277,202.208283 42.6376831,201.621108 C42.0512764,200.800311 43.8129972,199.86083 44.7532485,199.272405 C45.6934998,198.68523 46.0460941,201.386238 47.2201579,201.855978 C47.9253463,202.090848 48.8655976,201.855978 49.3357233,201.270052 C49.5707861,200.916497 47.6902835,201.270052 47.9253463,200.800311 C48.2791909,200.094451 49.8058489,200.211886 50.1584432,199.507276 C50.7461002,197.863184 46.5162197,202.208283 47.5740024,197.745749 C47.6902835,197.042387 47.9253463,196.572647 48.0441281,196.336527 C47.5740024,196.690082 47.1038768,197.042387 46.5162197,197.276008 C44.7532485,198.098054 49.8058489,195.044741 49.4532547,194.575001 C49.3357233,194.34138 49.1006605,194.34138 48.7480662,194.457566 L48.7480662,194.34138 C48.7480662,194.10526 47.9253463,194.34138 48.0441281,194.10526 C48.395472,193.284464 52.0376955,193.518085 52.6266029,193.284464 C52.8604153,193.048344 52.39154,192.462418 52.6266029,192.226298 C54.3883237,190.583456 56.738952,191.640372 57.3253587,188.234754 C57.3253587,187.647578 56.3851074,188.821929 55.9149817,189.056799 C55.328575,189.174234 54.7409179,189.056799 54.1532609,189.056799 C53.6831352,189.174234 52.8604153,189.877596 52.8604153,189.407855 C53.0954782,187.882448 57.3253587,187.882448 56.1500446,185.886051 C56.0337635,185.533746 54.9759808,185.768616 54.1532609,185.768616 C54.2707923,186.003486 54.5058551,186.238357 54.7409179,186.708097 C54.1532609,187.295273 53.6831352,187.998634 53.0954782,188.587059 C52.8604153,188.704494 52.39154,189.407855 52.2727583,189.056799 C52.1564772,188.468374 52.1564772,185.18144 53.0954782,185.064005 C53.0954782,184.7117 53.0954782,184.47683 53.330541,184.007089 C53.6831352,183.067608 55.2110436,183.537349 56.0337635,183.067608 C56.2688263,182.950173 55.4461064,183.067608 55.328575,182.950173 C54.9759808,182.480433 54.6233865,181.893257 54.5058551,181.423517 C54.3883237,180.718906 55.4461064,178.017898 56.1500446,178.017898 C57.0902959,177.900463 57.5604215,179.42712 58.5006728,179.663239 C58.8532671,179.779425 58.1480786,178.839944 58.0305472,178.370204 C57.7954843,177.784277 57.9130158,176.727361 57.3253587,176.375056 C56.738952,176.02275 55.6811692,176.962231 55.0935122,176.492491 C53.2130096,174.965834 57.0902959,175.55301 57.6779529,175.31814 C58.7357356,174.848399 58.8532671,173.320493 60.4987068,173.674048 C61.202645,173.908918 61.5564896,174.848399 62.2604277,174.848399 C62.8480848,174.848399 61.3214267,174.143789 61.202645,173.674048 L61.202645,173.556613 C61.0863639,173.556613 60.9675822,173.674048 60.8513011,173.674048 C60.6162383,173.674048 60.8513011,172.969437 60.6162383,172.850753 C59.4409241,172.617132 58.6182042,174.729715 57.3253587,174.613529 C53.2130096,174.026353 59.5584555,173.204308 60.263644,172.617132 C60.4987068,172.499697 59.7935184,172.499697 59.4409241,172.499697 C58.6182042,172.381012 57.9130158,172.734567 57.0902959,172.617132 C56.0337635,172.381012 56.3851074,170.5033 56.6201702,169.563819 C57.4441404,165.218719 59.2058613,167.097681 62.1428963,165.92458 C63.7883361,165.218719 60.263644,164.045618 59.7935184,163.222322 C59.5584555,162.752582 60.8513011,163.106137 61.3214267,162.870017 C61.7915524,162.636396 59.3233927,160.874869 62.2604277,161.81435 C62.4954905,161.81435 61.9078335,162.282842 61.9078335,162.517712 C62.0266152,164.161803 62.6130219,161.696915 62.6130219,161.460796 C62.6130219,161.34461 62.8480848,160.757434 62.9656162,160.991055 C63.3182104,161.34461 62.8480848,162.400277 63.4357418,162.517712 C64.3759931,162.636396 65.6688387,162.166656 65.9039015,161.34461 C66.2552454,160.521315 64.611056,160.169009 64.4935245,159.348213 C64.4935245,159.229528 67.3130281,157.586686 68.2532794,158.056427 C68.8409365,158.290047 67.6656224,160.169009 68.3708108,160.051574 C69.0759993,160.051574 68.2532794,158.408732 68.8409365,158.056427 C68.9584679,157.938991 68.9584679,157.938991 69.0759993,157.820307 C68.9584679,157.702872 68.8409365,157.586686 68.7234051,157.469251 C68.3708108,157.233131 69.4285935,156.52977 69.0759993,156.412335 C68.7234051,156.2949 68.4883422,157.116946 68.0182166,157.350567 C66.8429025,157.820307 65.4337758,158.759788 64.2584617,158.056427 C63.7883361,157.702872 65.198713,156.99951 65.5513073,156.412335 C66.2552454,154.885678 66.4903082,151.362625 68.2532794,152.654411 C68.8409365,153.124152 66.4903082,153.828762 67.0779653,154.298503 C67.5480909,154.768243 68.2532794,153.476457 69.0759993,153.359022 C69.6636564,153.359022 70.2513134,153.593892 70.7214391,154.063632 C71.4253772,154.768243 72.7182228,157.350567 72.3656285,156.412335 C72.1305657,155.590289 70.9565019,154.885678 71.1903144,153.946197 C71.3078458,153.124152 72.7182228,153.006716 73.1883484,152.302106 C73.4234112,151.9498 72.4831599,152.536976 72.1305657,152.654411 C70.3688448,153.241587 69.7811878,154.063632 68.9584679,151.832365 C68.4883422,150.658014 69.546125,151.362625 69.6636564,150.776698 C69.7811878,150.658014 69.3110621,150.892884 69.3110621,150.776698 C68.9584679,149.718533 72.2480971,151.362625 72.7182228,150.776698 C73.5409427,149.367477 69.8987192,148.191877 69.6636564,148.191877 C69.4285935,148.191877 69.8987192,148.661617 69.7811878,148.897737 C69.4285935,149.601098 67.4305595,152.067235 66.7253711,151.71493 C65.9039015,151.362625 65.7851197,150.070838 66.1389643,149.248793 C66.3740271,148.544182 67.5480909,149.013922 68.0182166,148.544182 C68.3708108,148.191877 66.9604339,149.013922 66.7253711,148.661617 C66.2552454,147.958256 68.2532794,147.488515 68.8409365,147.958256 C69.0759993,148.074441 68.6058737,148.661617 68.7234051,148.544182 C70.6039077,146.666469 73.6584741,147.839571 73.4234112,145.257248 C73.4234112,144.903693 72.7182228,145.609553 72.3656285,145.373434 C72.1305657,145.257248 72.4831599,144.787507 72.2480971,144.670072 C72.1305657,144.551388 72.1305657,145.139813 72.0130343,145.139813 C71.5429086,145.373434 71.1903144,145.257248 70.8389705,145.257248 C70.133782,145.373434 69.1935307,145.960609 68.9584679,145.373434 C67.4305595,142.32137 72.0130343,144.433953 72.1305657,144.433953 C72.8357542,143.848026 72.2480971,142.554991 72.6006914,141.732945 C72.7182228,141.381889 72.9532856,142.554991 73.070817,143.024731 C73.1883484,143.142166 73.5409427,142.908545 73.5409427,143.024731 C73.5409427,143.730591 73.070817,144.433953 73.3058798,145.021128 C73.3058798,145.257248 75.8915709,149.013922 76.4779776,148.309312 C77.8883546,146.666469 72.0130343,141.499324 73.7760055,140.677278 C74.3636626,140.323724 75.5377263,141.263205 76.4779776,142.08525 C76.3604462,141.732945 76.3604462,141.381889 76.1266337,141.147019 C75.5377263,140.677278 73.7760055,140.912148 74.0110683,140.090103 C74.1285997,139.150622 75.6565081,139.268057 76.5955091,139.150622 C81.6481095,138.328576 77.4182289,140.793464 80.5903268,142.32137 C82.8234236,143.378286 78.005886,138.680881 80.1202011,138.680881 C80.7091085,138.680881 81.0604524,139.384243 81.5305781,139.384243 C82.2357665,139.268057 83.2935493,139.268057 83.1760178,138.680881 C82.4708294,133.748606 79.5337944,138.680881 78.3584803,138.444762 C78.1234174,138.328576 78.8286059,138.093706 78.7110745,137.858835 C78.7110745,137.623965 78.3584803,137.27166 78.1234174,137.389095 C77.7708232,137.505281 77.7708232,138.211141 77.3006975,138.211141 C76.5955091,138.328576 75.4214453,138.444762 75.068851,137.7414 C74.8337882,137.27166 74.9513196,136.684484 75.1863824,136.214744 C74.5987254,136.332179 73.8935369,136.449614 73.5409427,136.801919 C72.9532856,137.389095 73.5409427,138.914502 72.8357542,139.384243 C72.3656285,139.737797 72.8357542,137.975021 72.3656285,137.623965 C71.7779715,137.27166 71.072783,137.389095 70.4863763,137.505281 C70.0162506,137.623965 70.2513134,138.563446 69.8987192,138.914502 C69.546125,139.268057 69.0759993,139.620362 68.7234051,139.972668 C68.2532794,140.442408 67.9006852,140.912148 67.5480909,141.381889 L67.5480909,140.912148 C67.9006852,140.090103 68.6058737,139.268057 68.7234051,138.444762 C68.8409365,137.975021 68.2532794,137.389095 68.4883422,136.919354 C69.0759993,136.332179 70.2513134,136.567049 70.8389705,135.979873 C73.3058798,133.631171 66.9604339,134.335782 70.3688448,130.695293 C72.8357542,127.87685 72.3656285,133.161431 71.7779715,135.745003 C72.0130343,135.275263 72.3656285,134.922957 72.7182228,134.805522 C72.9532856,134.688087 73.1883484,135.510133 73.3058798,135.275263 C73.6584741,134.688087 73.070817,129.052451 75.068851,131.752209 C76.1266337,133.161431 76.4779776,134.218347 76.4779776,134.805522 C76.9481033,134.570652 77.3006975,134.335782 77.6532918,134.335782 C78.1234174,134.335782 78.3584803,135.275263 78.8286059,135.275263 C79.7688572,135.392698 80.8253896,135.157828 81.6481095,134.688087 C82.8234236,133.983476 79.1812001,134.922957 78.9461373,133.396301 C78.9461373,132.92656 79.5337944,132.340634 80.1202011,132.340634 L80.3552639,132.340634 C80.2389829,132.22195 80.1202011,132.22195 80.1202011,131.987079 C80.1202011,131.282469 81.5305781,131.518588 82.1182351,131.048848 C82.2357665,130.931413 81.6481095,130.931413 81.5305781,130.812728 C80.7091085,130.225553 80.3552639,128.933766 80.5903268,127.87685 C80.7091085,126.937369 83.0584864,127.760664 83.2935493,126.821183 C83.5286121,126.115323 82.940955,125.411962 82.7058922,124.706102 C82.7058922,125.529397 82.5883608,125.999138 82.4708294,126.115323 C81.6481095,126.115323 80.8253896,125.411962 80.1202011,125.881703 C78.9461373,126.351443 78.7110745,127.87685 78.005886,128.933766 C77.4182289,128.58271 76.3604462,128.58271 76.3604462,127.994285 C76.5955091,127.054804 78.1234174,126.937369 78.3584803,125.999138 C78.5935431,125.529397 77.0656347,126.585064 76.9481033,126.115323 C76.7130405,125.411962 78.005886,124.824786 77.8883546,124.002741 C77.8883546,123.533 76.2429148,124.120176 76.5955091,123.885305 C78.2409488,123.06326 80.9441713,123.766621 79.7688572,122.241214 C79.2987316,121.771473 77.5357604,122.006344 78.005886,121.654038 C78.5935431,121.301733 79.5337944,122.3574 80.2389829,122.006344 C80.9441713,121.536603 80.5903268,120.009947 81.2955152,119.775076 C82.4708294,119.422771 82.7058922,121.654038 82.8234236,123.533 C82.8234236,122.82714 83.0584864,122.241214 83.2935493,121.654038 C83.8812063,120.714557 84.1162691,124.002741 84.9377387,124.472481 C85.7604586,124.942222 86.8182413,124.472481 87.6409612,124.120176 C87.7584926,124.120176 84.1162691,122.82714 84.351332,122.006344 C84.5863948,121.184298 85.4078644,120.127382 86.2305842,120.244817 C87.0533041,120.244817 86.9357727,121.771473 87.5234298,122.3574 C88.1110868,122.945825 88.9338067,122.82714 89.6389952,123.415565 C89.9903391,123.766621 90.3429334,125.294527 90.5779962,124.824786 C91.5182475,122.006344 84.5863948,122.710954 87.1708355,117.191504 C87.6409612,116.252023 89.6389952,115.077672 90.5779962,115.782282 C91.4007161,116.252023 90.3429334,121.771473 90.3429334,122.006344 C90.5779962,122.241214 90.9305904,121.654038 91.0481218,121.301733 C91.1656532,120.597122 90.5779962,119.657641 91.0481218,119.070466 C91.4007161,118.48329 92.9286244,119.422771 93.0461559,118.71816 C93.0461559,118.01355 91.4007161,118.130985 91.1656532,117.426374 C90.9305904,116.839198 92.1059045,111.789488 93.8676254,113.90332 C94.3377511,114.607931 93.8676254,121.184298 93.8676254,121.419168 C93.6325626,122.241214 92.1059045,123.650435 92.9286244,123.885305 C95.0429395,124.589916 93.9864072,120.479687 94.6915956,120.009947 C95.3955338,119.540206 96.4533165,120.009947 97.158505,119.657641 C97.5110992,119.422771 96.5708479,119.187901 96.3357851,118.95303 C95.5130652,118.24842 93.7513443,117.308939 94.4565328,115.664847 C97.5110992,108.85486 94.4565328,116.604328 97.9812249,114.255626 C98.9202258,113.66845 97.9812249,111.906923 98.685163,111.084878 C98.9202258,110.851257 99.2740704,111.203562 99.5078829,111.437183 C99.7429457,111.673302 99.6254143,112.143043 99.8604771,112.376664 C100.448134,112.846404 101.153323,112.963839 101.74098,113.43358 C102.211105,113.785885 102.5637,114.491745 103.151357,114.725366 C103.737763,114.842801 102.093574,113.90332 101.858511,113.316145 C101.858511,113.19871 102.328637,113.19871 102.328637,112.963839 C102.5637,111.320997 102.211105,108.85486 101.976043,108.972295 C101.388385,108.972295 97.9812249,111.906923 97.0409736,108.502554 C96.5708479,106.623592 99.9780085,105.801546 100.91826,106.036417 C101.74098,106.153852 102.211105,107.209519 103.033825,107.445638 C103.268888,107.445638 102.916294,106.741027 103.151357,106.623592 C103.38642,106.387473 103.856545,106.623592 104.090358,106.741027 C104.795546,106.741027 105.618266,106.623592 106.205923,106.857213 C107.733831,107.326954 105.735797,110.733821 108.907895,110.497702 C109.495552,110.381516 109.848147,109.558221 109.730615,108.972295 C109.730615,108.61874 109.025427,109.08848 108.672832,108.972295 C108.321489,108.85486 107.733831,108.736175 107.733831,108.385119 C107.733831,107.915379 109.142958,108.149 108.672832,107.326954 C108.203957,106.623592 108.086426,105.917732 108.556551,103.687714 L108.556551,103.452844 C108.321489,103.922585 107.968894,104.392325 107.6163,104.978251 C107.028643,104.392325 105.97086,104.03877 105.735797,103.335409 C105.14814,101.222826 112.198775,96.173116 109.495552,101.808752 C110.553335,100.869271 112.081243,101.926188 112.433838,101.573882 C113.020244,101.222826 111.140992,101.222826 110.905929,100.634401 C110.083209,98.6380042 113.609152,98.9903096 113.844215,98.6380042 C114.31434,97.5810881 110.670866,96.2893018 110.670866,95.9369965 C110.788398,95.2336351 112.433838,96.8764774 112.6689,96.2893018 C113.139026,95.467256 111.611118,94.527775 111.846181,93.5882941 C112.198775,92.6488131 118.661752,93.237238 118.778033,93.5882941 C119.013096,93.9405994 115.840998,99.6949203 115.95853,100.047226 C115.95853,100.164661 116.076061,100.164661 116.193593,100.164661 C115.95853,100.164661 115.840998,100.164661 115.840998,100.283345 C116.076061,100.634401 116.78125,100.047226 117.133844,100.283345 C118.661752,101.339012 115.13581,101.808752 117.133844,102.395928 C117.837782,102.630798 116.663718,103.687714 116.546187,104.392325 C116.546187,104.627195 116.311124,108.032814 118.307908,106.036417 C118.661752,105.684111 118.307908,104.979501 118.426689,104.50976 C118.54297,103.805149 118.896815,103.335409 119.131878,102.748233 C119.36569,102.043623 118.072845,102.865668 118.426689,101.808752 C119.131878,99.8136047 121.01113,92.0616375 122.303976,91.3582761 C122.303976,91.3582761 123.125445,94.4103399 123.125445,94.6464595 C122.890382,95.3498209 121.716319,95.7033755 121.83385,96.5254214 C121.951381,96.9951618 123.009164,95.7033755 123.360508,96.173116 C123.830634,96.7590423 122.890382,98.2856988 123.595571,98.6380042 C124.418291,99.2251798 125.593605,98.6380042 126.298793,98.0508286 C126.767669,97.5810881 125.241011,97.2287828 125.241011,96.6428565 C125.241011,95.8195613 124.888416,94.7638946 125.358542,94.0580346 C125.711136,93.237238 126.88645,93.1185536 127.472857,92.4151922 C127.70792,92.1790726 126.88645,92.4151922 126.651388,92.2977571 C125.828668,91.9454517 124.418291,91.7093322 124.418291,90.7698512 C124.300759,90.0664898 126.181262,90.8885356 126.532606,90.3001107 C127.002731,89.4793142 125.946199,88.5398333 126.181262,87.7177874 C126.298793,87.1306118 127.121513,88.8908893 127.70792,88.5398333 C128.648171,88.1875279 129.35336,87.3654821 131.233862,88.6572684 C132.642989,89.5967493 128.765703,94.6464595 128.413108,95.3498209 C128.295577,95.5859404 129.118297,94.9975155 129.235828,94.7638946 C129.941017,94.176719 130.293611,92.8849327 131.115081,92.6488131 C131.703988,92.531378 131.350143,93.7069785 131.233862,94.2941541 C130.881268,95.1161999 129.470891,95.9369965 129.941017,96.7590423 C130.411142,97.4649023 131.585206,95.3498209 132.290395,95.8195613 C132.409176,95.9369965 132.525458,96.0556809 132.525458,96.173116 C132.76052,96.0556809 133.230646,96.4067369 133.465709,96.2893018 C134.170897,95.5859404 132.409176,94.9975155 132.409176,94.9975155 C132.290395,94.527775 132.174114,90.5362303 132.644239,89.8303703 C134.758554,87.1306118 136.168931,92.2977571 136.286463,92.2977571 C143.923504,92.6488131 132.409176,87.7177874 139.928686,90.0664898 C143.805973,91.2395917 140.986469,91.3582761 140.398812,92.8849327 C140.28128,93.1185536 140.986469,93.0011185 141.221532,92.8849327 C141.92547,92.6488131 142.513127,92.0616375 143.218315,91.9454517 C143.453378,91.9454517 143.218315,92.4151922 143.335847,92.531378 C143.688441,92.7674976 144.158567,92.7674976 144.511161,92.8849327 C144.628692,93.0011185 144.746224,93.237238 144.981287,93.3546731 C145.568944,93.8244136 146.509195,94.176719 146.979321,94.8800804 C147.095602,95.1161999 146.509195,95.1161999 146.274132,95.3498209 C145.686475,95.7033755 144.863755,95.8195613 144.511161,96.4067369 C143.805973,97.3462179 144.39363,98.9903096 143.453378,99.46005 C140.868938,100.753086 137.695589,98.9903096 135.581274,101.339012 C135.22868,101.573882 136.286463,100.986707 136.756588,100.986707 C137.342995,100.986707 137.813121,101.104142 138.400778,101.222826 C138.518309,101.339012 138.635841,101.456447 138.753372,101.456447 C139.693623,101.573882 140.986469,100.869271 141.574126,101.691317 C142.043001,102.278493 140.163749,103.099289 140.516343,103.805149 C140.868938,104.392325 141.339063,102.159808 142.043001,102.278493 C142.865721,102.513363 142.630658,104.392325 142.278064,105.566676 C142.395596,105.331806 142.513127,105.214371 142.630658,105.096936 C143.453378,104.74463 144.628692,105.331806 145.568944,104.978251 C145.804007,104.862066 144.863755,104.508511 144.863755,104.157455 C144.746224,103.335409 144.863755,102.629549 145.098818,101.926188 C145.216349,101.691317 144.981287,102.629549 145.333881,102.629549 C146.274132,102.865668 147.213133,102.629549 148.153384,102.513363 L148.505979,102.513363 Z M82.7058922,0 C82.2357665,1.05691607 81.8831723,2.34870238 81.0604524,1.99639702 C80.8266399,1.76152679 80.7091085,0.939480953 80.8266399,0 L82.7058922,0 Z M66.4903082,0 L66.4903082,0.469740476 C66.0201826,0.939480953 64.9636502,0.234870238 64.611056,0.704610715 C63.200679,2.34870238 64.3759931,3.05206379 64.3759931,4.57996965 C64.3759931,5.5194506 64.4935245,6.69255248 64.1409303,7.63203343 C64.0233989,7.86815298 63.200679,7.3984125 63.200679,7.74946855 C63.3182104,8.21920903 64.1409303,8.33789346 64.1409303,8.92506905 C64.2584617,9.98073581 62.7305534,10.804031 63.0831476,11.8596977 C63.4357418,12.7991787 65.6688387,12.9166138 63.6708047,14.5607055 C63.0831476,15.0304459 62.1428963,15.6176215 61.4377078,15.2653162 C60.8513011,15.0304459 61.4377078,13.8560947 60.9675822,13.2689192 C58.8532671,9.74711489 60.3811754,17.7314537 57.9130158,10.804031 C57.4441404,9.51099534 60.1461126,9.15868998 61.3214267,8.6889495 C61.6727706,8.57151439 60.7325193,9.15868998 60.3811754,9.04125486 C59.9110498,8.80763393 60.0285812,7.63203343 59.4409241,7.63203343 C58.5006728,7.63203343 58.0305472,8.80763393 57.2090776,9.04125486 C56.2688263,9.27737441 56.2688263,7.63203343 55.9162321,7.3984125 C55.328575,7.04610715 54.5058551,7.16229296 53.9181981,6.8099876 C52.8616657,6.10662619 51.6863515,2.23126726 51.5688201,1.40922143 C51.4512887,0.704610715 52.7428839,0.352305357 53.4480724,0.469740476 C54.6233865,0.704610715 53.4480724,1.52665655 53.6831352,1.99639702 C54.1532609,2.58232331 54.3883237,0.587175596 55.2110436,0.587175596 C57.4441404,0.704610715 57.7954843,1.05691607 59.5584555,2.23126726 C59.675987,2.34870238 59.3233927,1.87896191 59.4409241,1.76152679 C59.675987,1.17435119 58.8532671,0.587175596 58.26561,0.352305357 C57.6779529,0.117435119 57.0902959,0.117435119 56.3851074,0 L66.4903082,0 Z" id="Fill-1" fill="#FFFFFF" mask="url(#mask-2)"></path>
        </g>
        <g id="Group-5-Copy-2" transform="translate(10.000000, 229.000000)">
            <path d="M19.5007728,0 C30.2704791,0 39,8.72986684 39,19.5 C39,30.2701332 30.2704791,39 19.5007728,39 C8.73106646,39 0,30.2701332 0,19.5 C0,8.72986684 8.73106646,0 19.5007728,0 Z" id="Stroke-1" stroke="#E75F52"></path>
            <path d="M19.5,13 C23.0899976,13 26,15.910354 26,19.5007853 C26,23.089646 23.0899976,26 19.5,26 C15.9100024,26 13,23.089646 13,19.5007853 C13,15.910354 15.9100024,13 19.5,13" id="Fill-3" fill="#E75F52"></path>
        </g>
    </g>
</svg>