<?xml version="1.0" encoding="UTF-8"?>
<svg width="148px" height="300px" viewBox="0 0 148 300" version="1.1" xmlns="http://www.w3.org/2000/svg" xmlns:xlink="http://www.w3.org/1999/xlink">
    <!-- Generator: Sketch 64 (93537) - https://sketch.com -->
    <title>29</title>
    <desc>Created with Sketch.</desc>
    <g id="29" stroke="none" stroke-width="1" fill="none" fill-rule="evenodd">
        <g id="Group-30">
            <polygon id="Fill-1" fill="#FFFFFF" points="22.021 189.28 21.896 189.341 21.75 189.525 21.5 190.157 21.521 190.28 21.878 190.249 21.662 190.812 21.689 190.949 22.619 190.894 22.974 190.454 22.974 190.234 22.5 189.777 22.5 189.729"></polygon>
            <polygon id="Stroke-2" stroke="#E75F52" stroke-linecap="round" stroke-linejoin="round" points="22.021 189.28 21.896 189.341 21.75 189.525 21.5 190.157 21.521 190.28 21.878 190.249 21.662 190.812 21.689 190.949 22.619 190.894 22.974 190.454 22.974 190.234 22.5 189.777 22.5 189.729"></polygon>
            <polygon id="Fill-3" fill="#FFFFFF" points="29.6217 212.5018 29.3987 212.3158 29.2637 212.6728 29.6997 213.1418 29.7717 212.9058 30.2997 213.2808 30.4997 212.8478 30.3497 212.6138 29.7507 212.2808"></polygon>
            <polygon id="Stroke-4" stroke="#E75F52" stroke-linecap="round" stroke-linejoin="round" points="30.2998 213.28 30.4998 212.847 30.3498 212.613 29.7498 212.28 29.6218 212.502 29.3988 212.315 29.2628 212.673 29.6998 213.141 29.7718 212.906"></polygon>
            <g id="Group-29" transform="translate(0.000000, 0.781000)">
                <path d="M84.5918,289.416 L84.7088,289.312 L84.9438,289.17 L84.7368,289.339 L84.5918,289.416 Z M23.1428,296.07 L23.1658,295.919 L23.2238,295.894 L23.1928,296.002 L23.1428,296.07 Z M34.1448,210.358 L34.2378,210.515 L34.2728,210.668 L34.1448,210.358 Z M33.4178,209.469 L33.3028,209.419 L33.6508,208.996 L33.6098,209.194 C33.7098,209.223 33.8038,209.252 33.8958,209.278 L33.8928,209.295 C33.7838,209.264 33.6728,209.23 33.5558,209.194 L33.6518,209.507 L33.6348,209.499 L33.5268,209.528 L33.5118,209.675 L33.4178,209.469 Z M33.6918,87.06 L34.1568,86.647 L34.5938,85.931 L34.7578,85.325 L34.7578,83.976 L35.6058,82.902 L35.6328,82.406 L35.7418,81.25 L35.6048,80.369 L35.9328,80.121 L36.0968,79.515 L36.7258,78.744 L36.7258,78.634 L36.9168,77.175 L37.0808,76.735 L37.2998,75.661 L37.4568,74.951 L37.6008,75.193 L37.3548,75.964 L37.3548,76.707 L36.9448,78.056 L37.0818,78.249 L37.1038,78.242 L37.1088,78.249 L37.2728,78.194 L37.7378,77.726 L37.8468,77.423 L37.6558,76.872 L37.6828,76.624 L37.9818,75.884 L37.9828,75.881 L38.0378,75.826 L38.0648,75.908 L37.9278,76.817 L37.9828,77.12 L38.2288,76.982 L38.2558,76.762 L38.4198,76.734 L38.4748,77.009 L38.4748,77.119 L38.4778,77.121 L38.7438,77.341 L38.4468,77.45 L37.9548,77.808 L37.2168,78.662 L36.9158,78.827 L36.7518,78.91 L36.6698,78.993 L36.3148,79.351 L36.1798,79.709 L36.4808,80.122 L36.5358,80.645 L36.4538,81.361 L36.5628,81.802 L36.9178,82.408 L36.9258,82.403 L36.9448,82.435 L37.4098,82.16 L38.0388,82.38 L38.4488,82.352 L39.2958,81.967 L39.4598,82.05 L39.2408,82.298 L39.2958,82.326 L39.4598,82.409 L39.4868,82.519 L38.8848,82.703 L38.1748,82.491 L38.1618,82.503 L38.1208,82.491 L37.8238,82.763 L37.4648,82.739 L37.4618,82.741 L37.4378,82.739 L37.1648,82.877 L36.6458,82.905 L36.4548,83.098 L36.8378,83.373 L36.9748,83.979 L37.0008,83.975 L37.0018,83.979 L37.3038,83.928 L37.4118,84.227 L37.1108,84.282 L36.9738,84.282 L36.7828,84.475 L36.4818,85.329 L35.8258,86.21 L35.6888,86.375 L35.8798,86.871 L36.0438,87.311 L36.8638,87.201 L37.1098,86.926 L37.3828,85.935 L37.6248,85.74 L37.3558,86.431 L37.2468,87.092 L36.9188,87.395 L36.4268,87.505 L36.3448,88.276 L36.3178,88.496 L35.7708,87.395 L35.4698,86.789 L35.2658,86.502 L35.4848,86.408 L35.9928,85.487 L36.4998,84.848 L36.4578,84.755 L36.5078,84.692 L36.3708,84.389 L35.8788,84.995 L35.3318,85.16 L35.0038,85.38 L34.9558,85.506 L34.7538,85.641 L34.4998,86.309 L34.5388,86.386 L34.1018,87.033 L34.1528,87.343 L33.8008,87.886 L33.8108,87.896 L33.7458,87.996 L33.8828,88.134 L33.7738,88.657 L33.7738,89.098 L33.6098,89.181 L33.5718,89.283 L33.5548,89.292 L33.4728,89.512 L33.4728,90.145 L33.2868,90.755 L33.1728,90.778 L33.4188,88.548 L33.5558,87.805 L33.8018,87.144 L33.7198,87.061 L33.6538,87.069 L33.6918,87.06 Z M43.9448,289.065 L44.0098,289.076 L43.8628,289.203 L43.8118,289.244 L43.9448,289.065 Z M33.9378,257.898 L34.0488,257.922 L34.0478,257.926 L34.1568,258.064 L34.3868,258.114 L34.4308,258.202 L34.2938,258.285 L33.9308,258.059 L33.8838,257.845 L33.8878,257.836 L33.9378,257.898 Z M33.5548,256.053 L33.6098,256.714 L33.8188,256.767 L33.8278,256.88 L34.1218,256.954 L34.0098,257.263 L33.8638,257.253 L33.8838,257.211 L33.8288,257.101 L33.5718,257.083 L33.4188,256.413 L33.4188,255.835 L33.3368,255.725 L33.1998,255.749 L33.1998,255.669 L33.1178,255.559 L32.7568,255.623 L32.8168,255.587 L33.1998,255.532 L33.3978,255.603 L33.5548,256.053 Z M72.5008,297.223 L72.3918,297.131 L72.3508,297.077 L72.4058,296.994 L72.5828,296.994 L72.4998,297.21 L72.5008,297.223 Z M146.3628,33.262 L145.7608,32.464 L144.8598,32.106 L144.6398,31.886 L144.0928,31.088 L143.4088,30.042 L142.6708,29.381 L142.4248,29.106 L141.9328,28.858 L141.8778,28.83 L140.9208,28.582 L140.5928,28.472 L140.1008,28.197 L139.7458,27.894 L139.4458,27.784 L139.1438,27.701 L139.1268,27.704 L139.1168,27.701 L138.9808,27.727 L138.2688,27.839 L137.8598,27.784 L137.2308,27.564 L136.4378,27.564 L136.2738,27.536 L135.9458,27.453 L135.4258,27.205 L135.1798,27.205 L135.1618,27.233 L135.1528,27.233 L134.5078,28.233 L134.2778,28.362 L132.5818,28.885 L132.3088,28.417 L131.6538,27.811 L131.2428,27.618 L130.4228,26.985 L130.0258,26.958 L130.2318,26.517 L130.2318,26.49 L130.4498,26.022 L130.4468,26 L130.4498,25.995 L130.4228,25.775 L130.1218,24.619 L129.9038,24.399 L129.8208,24.041 L129.7958,24.024 L129.7928,24.013 L129.7108,23.958 L129.3828,23.729 L129.3828,23.49 L129.9298,22.967 L130.1758,22.471 L130.3398,21.452 L130.4488,20.929 L130.6678,20.571 L130.7778,19.883 L131.0238,19.525 L131.1598,18.672 L131.1058,18.342 L131.4058,17.241 L131.3788,17.131 L131.5158,16.911 L131.6538,16.691 L131.4338,16.416 L131.4248,16.411 L131.4068,16.388 L130.8328,16.085 L129.7068,15.815 L129.6298,15.452 L129.9038,15.122 L130.0938,14.654 L130.0938,14.627 L130.0938,14.131 L130.4218,13.525 L130.5308,13.085 L130.5268,13.077 L130.5308,13.058 L130.1208,12.315 L129.6558,11.599 L129.4368,11.159 L129.2718,11.034 L129.2178,10.994 L128.8898,10.947 L128.8348,10.939 L128.7528,11.793 L128.4248,12.151 L127.5238,12.399 L127.3858,12.427 L126.5358,12.539 L126.0458,12.593 L125.3628,12.731 L124.7388,12.81 L124.1058,12.759 L123.3388,12.649 L122.7098,12.539 L122.6488,12.542 L122.6278,12.539 L122.1908,12.539 L121.6978,12.043 L121.2338,10.694 L120.6588,10.006 L120.2488,9.841 L120.2328,9.84 L120.1668,9.814 L119.7838,9.786 L119.1548,9.869 L118.9908,10.172 L118.9088,10.943 L118.7728,11.824 L118.5528,12.044 L118.0328,12.292 L117.2858,12.344 L116.9668,12.237 L116.9438,12.256 L116.8848,12.237 L116.7478,12.347 L115.9548,12.595 L115.5948,12.667 L115.1078,12.512 L115.0258,12.512 L114.4778,12.512 L114.3958,12.512 L114.1768,12.512 L113.7398,12.374 L113.2758,12.154 L113.1378,12.016 L113.0558,11.933 L112.8368,11.355 L112.7278,11.3 L112.2368,10.722 L111.9348,10.722 L111.8528,10.722 L111.3878,10.915 L111.3618,10.943 L110.8418,11.521 L110.2678,12.017 L109.8158,12.065 L109.4198,11.879 L109.3248,11.885 L109.3108,11.879 L108.4628,11.934 L108.1028,12.031 L107.8338,11.989 L107.5878,11.824 L106.9868,10.778 L106.1658,10.227 L105.4008,9.952 L105.3158,9.97 L105.2638,9.952 L104.9678,10.016 L104.0608,9.677 L103.9718,9.695 L103.9238,9.677 L103.2398,9.815 L102.9938,9.953 L102.9668,9.953 L102.7768,10.036 L102.5848,10.229 L102.5578,10.257 L102.2568,10.808 L102.2308,10.836 L102.2028,10.974 L102.1488,11.249 L102.1208,11.387 L102.3398,11.745 L102.3138,11.773 L102.2318,11.993 L102.2038,12.268 L102.2038,12.351 L102.3138,12.929 L102.4768,13.287 L102.6408,13.755 L102.6408,13.92 L102.6408,14.03 L102.6138,14.085 L102.5868,14.14 L101.8758,15.627 L101.4398,15.902 L101.2758,16.04 L100.6728,16.48 L99.4698,16.893 L98.8148,17.196 L98.1578,17.747 L97.5598,17.789 L96.9588,17.954 L96.1088,18.222 L95.5658,18.174 L94.7168,17.926 L94.2798,17.926 L94.1698,17.926 L93.4318,18.449 L93.0768,19.137 L92.9408,19.467 L92.5568,19.77 L91.9838,19.88 L91.7918,19.919 L91.7918,19.247 L91.9018,18.862 L91.6548,18.642 L91.5728,18.559 L91.0808,18.063 L90.8898,17.678 L90.6708,17.375 L90.5338,17.017 L90.1238,17.017 L90.1228,17.017 L90.0418,17.017 L89.6248,17.04 L88.6748,16.466 L88.6358,16.492 L88.5928,16.466 L88.0188,16.851 L88.2378,17.374 L88.0468,17.704 L87.8828,17.814 L87.3638,18.117 L86.5438,18.392 L86.1068,18.722 L85.4338,18.857 L84.9568,18.832 L84.3828,18.667 L83.7268,18.337 L83.6178,18.282 L83.6178,18.117 L83.8908,17.236 L84.4098,16.575 L85.0938,15.969 L84.8478,15.941 L84.8328,15.945 L84.7928,15.941 L84.3528,16.071 L83.5078,15.858 L83.4848,15.866 L83.4528,15.858 L82.6138,16.13 L82.2218,16.105 L81.8118,15.83 L81.2378,15.307 L80.3078,14.619 L80.0888,14.509 L80.0518,14.518 L80.0348,14.509 L79.6798,14.592 L79.3248,14.84 L78.7788,15.198 L78.0678,15.198 L77.6018,15.115 L77.4648,15.087 L77.4498,15.09 L77.4368,15.087 L76.9718,15.17 L76.9458,15.198 L76.0148,15.776 L75.3038,16.024 L74.2918,16.162 L73.7718,16.217 L73.6628,16.795 L73.5808,17.07 L73.0618,17.4 L72.7068,17.428 L71.9078,17.643 L71.5858,17.346 L71.4218,16.933 L71.8588,14.345 L71.8858,13.877 L71.7488,13.492 L71.7318,13.496 L71.7208,13.464 L71.5028,13.519 L71.0658,13.381 L70.8748,13.436 L70.4648,13.546 L70.3558,13.794 L70.3828,14.62 L70.3558,15.363 L70.2188,15.748 L69.8088,16.188 L69.5078,16.353 L68.5508,16.628 L67.6758,16.628 L67.6488,16.628 L67.4298,16.821 L66.9928,17.619 L66.6648,17.867 L66.1728,18.831 L65.8458,19.023 L65.8448,19.023 L65.3528,18.968 L65.1888,19.133 L64.4778,19.601 L64.2588,19.684 L63.6848,19.849 L63.4388,20.179 L63.4388,20.399 L63.4118,20.399 L62.8098,20.509 L62.3178,20.509 L62.1268,20.509 L61.7988,20.344 L61.5528,20.234 L61.3068,20.096 L60.8148,20.013 L60.7058,19.985 L60.6238,19.985 L59.7488,19.655 L59.6938,19.49 L59.6388,18.884 L59.5018,17.535 L59.1738,16.351 L59.0648,16.158 L59.0098,16.075 L58.9828,16.02 L58.9558,15.992 L58.7648,15.909 L57.7808,15.881 L57.7648,15.881 L57.4528,15.33 L57.2068,14.89 L57.0698,14.587 L56.9878,14.394 L57.0428,14.311 L57.1518,14.091 L57.1468,14.058 L57.1468,14.057 L57.1518,14.091 L57.2068,14.008 L57.1048,13.725 L57.3988,13.429 L58.2738,11.942 L58.5198,11.749 L58.7388,11.419 L58.7658,11.364 L58.9298,10.979 L59.2028,10.621 L59.3398,10.428 L59.5308,10.18 L60.6518,9.574 L61.4448,8.831 L61.9638,8.583 L61.9958,8.566 L62.0188,8.555 L62.6998,8.208 L62.8638,7.217 L62.7818,6.529 L62.6998,5.95 L62.6998,5.923 L62.0988,5.069 L61.3608,4.711 L60.8138,4.629 L60.8018,4.631 L60.7868,4.629 L59.9388,4.794 L58.8758,5.343 L58.5438,5.317 L58.5438,5.097 L58.4348,4.244 L58.2438,3.253 L58.1068,2.069 L58.0798,1.352 L58.0798,1.077 L58.0798,0.912 L58.0528,0.884 L57.9158,0.746 L57.8888,0.746 L57.5328,0.719 L57.5308,0.719 L57.5058,0.719 L57.3418,0.857 L57.3148,0.885 L57.2328,0.995 L57.0418,1.215 L56.9048,1.27 L56.5218,1.408 L56.4398,1.436 L56.3848,1.436 L56.1118,1.464 L55.7288,1.492 L55.7178,1.514 L55.6468,1.519 L55.6198,1.574 L55.1838,2.039 L54.7438,2.179 L54.7398,2.181 L54.6618,2.206 L54.0328,2.619 L53.5678,2.922 L52.7748,3.252 L52.3648,3.692 L52.0078,3.897 L51.8178,3.94 L50.7238,3.857 L50.4778,3.94 L50.3958,3.967 L49.8208,4.362 L49.5488,4.409 L49.0568,4.326 L48.2638,4.574 L47.7998,4.601 L47.5268,4.463 L46.3508,4.409 L46.1308,4.47 L45.4758,4.629 L45.2848,4.629 L45.2028,4.629 L44.9968,4.652 L44.2728,4.574 L44.2498,4.58 L44.1898,4.574 L43.8068,4.684 L43.5878,4.794 L43.3148,5.592 L42.9598,5.895 L41.7838,6.137 L40.4448,6.005 L40.0618,5.95 L40.0428,5.955 L40.0078,5.95 L39.2698,6.143 L38.6958,6.363 L38.1758,6.969 L37.9018,7.299 L37.5468,8.565 L37.4098,8.841 L36.6438,9.639 L35.4958,10.245 L34.4838,10.63 L33.8548,11.153 L33.4448,12.53 L33.1718,13.053 L32.8168,13.438 L32.2428,13.768 L31.3948,14.153 L31.1218,14.318 L31.1508,14.325 L31.1928,14.494 L30.4658,15.089 L30.4248,15.176 L30.3288,15.254 L30.0558,15.832 L30.0288,16.052 L30.0068,16.083 L29.6458,16.135 L29.6158,16.173 L29.7468,15.797 L29.7188,15.499 L29.2538,16.299 L29.2808,16.499 L29.4168,16.424 L29.3168,16.55 L29.0708,16.605 L28.7158,16.467 L28.5788,16.605 L28.5608,16.678 L28.4698,16.77 L28.1478,18.093 L28.0058,18.394 L28.0098,18.452 L27.8418,18.807 L27.9238,19.633 L28.2518,20.101 L28.2518,20.249 L28.1698,20.404 L28.1698,20.559 L28.0328,20.817 L28.0058,21.12 L28.1428,21.671 L27.9518,22.194 L27.9248,22.965 L27.7878,23.653 L28.1708,25.36 L28.5808,26.461 L29.2098,27.232 L29.3188,27.37 L29.4828,27.48 L29.6738,27.728 L29.8928,28.086 L29.9748,29.132 L30.0298,29.903 L30.6588,31.775 L30.7678,32.133 L30.9048,32.739 L30.9598,33.785 L31.3698,35.464 L31.6368,35.903 L31.5338,36.318 L31.4788,36.263 L31.3698,36.703 L31.6158,37.722 L31.5068,38.493 L31.7798,38.796 L32.0258,39.236 L32.1628,40.117 L32.1628,40.145 L32.0808,40.723 L31.8348,42.678 L31.6978,43.091 L31.8068,43.421 L31.8338,43.972 L32.2168,44.825 L32.4628,45.018 L32.7638,45.706 L32.7638,46.146 L33.1738,47.247 L33.3648,47.522 L33.6108,47.907 L33.6658,48.568 L33.6108,49.174 L33.9118,50.44 L34.1578,50.853 L34.1848,51.431 L34.2668,53.193 L34.6768,54.652 L34.5948,55.258 L34.9778,56.111 L35.4428,56.524 L35.9078,57.598 L35.9348,57.681 L35.9618,57.764 L36.1528,58.232 L36.4808,58.617 L36.6998,58.727 L37.4658,58.534 L37.7668,58.534 L37.7938,58.617 L37.8168,58.656 L37.7938,58.727 L37.7118,58.81 L37.5748,58.975 L37.4108,59.058 L37.1918,59.03 L36.7548,58.727 L36.7548,58.81 L36.7878,59.173 L36.6998,59.112 L36.6998,59.195 L36.7548,59.773 L36.9738,60.461 L36.9468,60.819 L37.2478,61.865 L37.2208,62.553 L37.4118,63.599 L37.3848,64.04 L37.5488,64.838 L37.7678,65.994 L37.7988,66.164 L37.7138,66.407 L37.7138,66.609 L37.6588,66.765 L37.6588,67.299 L37.5768,67.728 L37.5748,67.81 L37.5218,68.086 L37.5008,68.953 L37.3308,69.38 L37.1668,70.096 L37.1668,70.371 L37.1668,70.784 L37.0578,71.582 L36.2098,74.198 L35.9638,75.272 L35.4448,78.631 L35.3598,79.159 L34.8408,81.114 L34.4578,82.023 L34.3758,82.932 L34.1568,83.455 L33.7468,85.658 L33.7198,85.796 L33.3368,86.622 L33.2278,87.118 L33.3198,87.098 L33.3098,87.145 L33.4888,87.106 L33.3098,87.337 L33.3058,87.345 L33.2278,87.447 L33.1458,87.64 L33.0638,87.888 L32.7908,89.402 L31.6428,94.33 L31.5608,94.743 L30.7128,98.46 L30.3298,100.635 L30.0288,101.819 L29.2358,104.903 L28.8808,105.784 L27.9788,108.785 L27.8968,109.088 L27.2678,110.685 L27.0768,111.07 L26.9128,111.373 L26.6118,112.474 L26.1748,113.493 L26.4208,113.989 L26.8308,114.429 L27.3228,114.677 L27.6778,114.98 L27.8968,115.173 L28.1978,115.669 L28.5258,115.779 L28.9628,115.751 L29.9198,115.696 L31.1228,116.825 L31.6148,117.623 L31.8878,117.651 L32.0248,117.541 L32.0368,117.515 L32.1068,117.459 L32.3528,116.936 L32.7578,116.408 L32.9808,116.358 L32.5438,117.156 L32.3798,117.486 L32.2708,117.761 L32.1618,117.871 L31.9158,117.899 L31.5878,117.706 L31.0958,117.265 L30.9048,117.1 L30.9598,116.852 L30.7408,116.577 L30.6588,116.467 L29.5648,116.054 L29.0448,115.999 L29.0388,116.066 L28.9628,116.054 L28.9358,116.357 L29.4548,117.073 L29.7518,117.347 L29.5098,117.403 L29.3458,117.32 L29.0998,116.935 L28.9908,116.715 L28.7998,116.33 L28.6628,116.083 L28.4168,116.055 L28.3078,116.11 L28.3078,116.124 L28.2258,116.165 L28.1988,117.762 L27.5428,119.331 L26.8868,121.809 L26.5858,122.718 L26.0388,124.397 L25.4918,126.269 L25.4648,126.379 L25.3828,126.599 L25.3278,126.737 L24.0978,129.986 L23.6328,131.473 L23.3048,132.492 L22.7858,133.511 L22.7038,133.676 L22.6488,133.896 L22.3758,134.805 L20.9538,138.384 L20.7078,138.852 L20.5988,139.458 L20.5438,139.761 L20.3248,140.339 L20.1058,140.89 L20.0788,141.909 L19.6958,143.231 L19.1488,145.516 L18.7658,147.14 L18.7928,147.388 L18.8198,147.498 L19.1478,147.636 L19.2568,147.774 L19.2838,148.049 L19.1198,148.489 L18.1358,150.003 L16.8778,151.435 L16.6318,151.986 L16.4948,152.124 L16.1668,152.152 L16.1398,152.648 L16.4408,152.923 L16.2768,153.198 L15.9878,153.357 L15.7848,152.923 L15.7698,152.923 L15.7568,152.895 L15.4558,152.895 L14.8268,153.418 L13.6238,154.932 L13.2408,155.152 L13.1038,155.758 L12.1738,157.438 L12.2008,157.52 L12.7748,157.741 L13.0478,158.016 L13.4308,158.842 L13.5678,158.925 L13.5868,158.903 L13.6228,158.925 L13.7748,158.747 L13.9778,158.815 L14.1148,159.062 L14.0618,159.224 L13.7328,159.2 L13.7308,159.204 L13.6778,159.2 L13.6228,159.338 L13.8138,159.916 L13.7318,160.081 L13.5368,160.125 L13.4038,159.669 L13.3508,159.674 L13.3498,159.669 L13.2408,159.685 L12.8308,159.724 L12.8098,159.747 L12.7758,159.752 L12.4788,160.076 L12.3938,160.055 L12.3388,159.917 L12.5578,159.532 L12.4758,159.367 L12.5028,159.174 L12.8038,159.064 L12.4488,158.486 L12.3668,157.935 L12.0938,157.797 L12.0388,157.659 L12.0388,157.521 L12.0038,157.571 L11.9838,157.521 L11.6008,158.072 L9.3038,159.972 L8.3198,160.578 L8.0468,160.743 L7.9178,160.765 L7.4728,160.633 L7.4678,160.648 L7.4188,160.633 L7.1998,161.239 L6.9808,161.459 L6.5388,161.485 L6.4608,161.459 L6.1328,161.266 L5.9688,160.881 L5.8318,160.798 L5.8148,160.804 L5.8038,160.798 L5.4488,160.936 L4.9568,160.964 L4.5738,161.184 L4.4368,161.514 L4.7648,161.817 L5.0928,161.9 L5.1128,161.898 L5.1208,161.9 L5.9458,161.82 L6.1598,161.928 L6.2968,162.121 L6.4608,163.002 L6.3518,163.415 L6.9258,164.048 L7.1168,164.378 L7.0348,164.818 L7.1718,165.176 L7.2538,165.478 L7.5268,165.837 L7.6358,166.443 L7.5538,167.103 L7.2528,168.178 L7.3348,168.701 L7.3078,168.811 L7.0618,169.609 L7.0068,170.215 L6.4328,172.197 L6.0498,173.209 L5.0378,175.301 L4.9558,175.631 L4.8738,175.961 L4.4388,176.537 L4.4368,176.54 L3.8628,177.641 L3.7808,177.944 L4.0268,178.715 L4.0538,179.128 L3.9718,180.174 L3.8078,181.138 L3.8898,181.496 L3.7528,182.102 L3.8348,182.46 L3.9718,182.983 L3.9168,183.562 L4.2718,184.938 L4.1628,185.489 L4.1358,185.544 C4.1518,185.548 4.1608,185.556 4.1768,185.561 L4.0268,186.04 C3.9998,186.04 2.7968,189.316 2.7968,189.316 L2.5238,190.059 L1.3758,192.509 L0.9928,193.17 L0.4998,194.656 L0.6638,195.069 L0.7458,195.675 L0.9648,195.923 L1.4838,196.198 L1.6208,196.528 L1.4838,197.354 L1.0468,198.786 L1.2108,199.116 L1.4018,199.309 L2.1948,199.639 L2.3608,199.628 L2.3868,199.639 L3.0688,199.595 L3.2348,199.667 L3.4808,199.942 L3.6448,199.997 L3.6908,199.948 L3.8368,199.997 L4.3558,199.446 L4.5748,199.253 L4.8488,199.236 L5.5588,199.501 L6.4888,199.997 L7.1718,200.575 L7.3628,200.575 L7.6358,200.575 L8.0188,200.795 L8.2648,200.823 L8.2768,200.803 L8.4558,200.823 L8.5928,200.603 L8.7018,200.41 L9.0028,200.327 L9.8228,199.831 L10.3698,199.804 L10.5338,199.721 L10.7248,199.611 L11.1618,199.501 L11.5168,199.529 L12.2278,199.611 L12.6648,199.804 L14.0048,199.859 L14.5788,199.667 L14.7698,199.612 L15.4258,199.722 L15.9178,199.337 L16.7658,199.117 L17.2308,198.842 L17.8328,198.043 L18.3518,196.997 L18.5978,196.226 L18.6798,195.427 L18.6528,194.656 L18.8988,193.087 L19.2538,192.068 L19.3908,191.683 L19.4178,191.573 L19.5428,191.315 L19.4998,191.47 L19.3918,191.71 L19.5008,191.737 L19.8558,191.352 L20.2658,191.187 L20.4298,190.994 L20.8668,190.113 L20.7848,189.838 L20.5118,189.976 L20.4058,190.078 L20.4868,189.825 L20.6758,189.756 L21.0588,189.288 L21.4688,188.765 L21.6038,188.459 L21.6998,188.499 L22.0168,188.091 L22.0168,188.461 L22.1258,188.544 L22.3448,188.048 L22.5638,186.947 L22.4268,186.699 L22.3228,186.66 L22.2488,186.584 L22.0948,186.551 L22.5358,185.873 L22.9068,185.952 L22.8368,186.094 L22.7818,186.369 L22.8368,186.975 L22.7818,187.553 L22.5628,188.186 L22.6448,188.517 L22.6978,188.563 L22.7268,188.682 L23.3448,189.226 L23.3838,189.343 L23.0828,190.307 L23.1918,190.665 L23.2288,190.684 L23.2738,190.831 L23.7218,191.057 L23.6288,191.244 L23.7318,191.368 L23.7108,191.409 L23.8478,191.574 L24.6648,191.042 L24.5038,191.574 L24.5588,191.822 L25.1608,192.62 L25.3248,193.005 L25.5158,194.106 L25.8168,195.29 L25.7898,195.51 L25.7898,195.703 L25.6368,195.908 L25.1888,195.757 L24.8058,195.785 L24.4228,195.923 L24.3408,195.951 L24.0678,196.116 L23.9588,196.254 L23.6308,196.667 L22.0728,197.135 L21.7998,197.603 L21.3078,197.823 L20.6518,198.319 L20.4058,198.512 L20.2418,198.787 L20.1868,199.806 L20.3778,199.998 L20.3988,199.991 L20.4598,200.053 L20.6238,199.998 L20.8968,199.613 L20.9788,199.475 L21.1698,199.337 L22.1268,199.254 L22.6738,199.364 L23.3568,199.392 L23.4938,199.392 L23.9808,199.556 L24.3408,199.805 L24.3408,199.833 L24.4228,200.026 L24.2998,200.149 L23.9028,199.86 L23.7388,199.75 L23.7168,199.754 L23.6298,199.695 L23.4658,199.723 L23.3568,200.301 L22.5368,199.916 L22.2908,199.916 L22.0998,200.054 L21.9908,200.137 L21.7998,200.66 L21.9638,200.99 L22.2368,201.183 L22.4008,201.513 L22.6468,201.788 L22.6738,201.926 L22.5978,201.964 L22.1818,201.568 L22.1258,201.563 L22.0728,201.513 L21.7718,201.49 L21.4988,201.238 L21.4488,201.238 L21.3888,201.183 L21.2248,201.183 L20.8418,201.403 L20.8108,201.391 L20.5688,200.55 L20.4668,200.52 L20.4598,200.495 L20.2688,200.44 L19.7768,201.046 L19.3098,201.046 L19.0368,201.376 L18.7908,201.459 L18.7358,201.597 L19.0638,202.148 L19.1458,202.176 L19.4468,202.313 L19.5558,202.478 L19.5558,202.919 L20.0478,203.304 L20.1568,203.91 L20.4848,204.516 L20.4848,204.654 L20.3898,204.788 L20.0468,204.489 L19.8008,204.049 L19.5818,203.856 L19.4998,203.553 L19.0628,203.278 L18.7898,202.7 L18.7078,202.645 L18.5168,202.535 L18.4508,202.535 L18.4068,202.507 L18.0518,202.507 L17.8058,202.727 L17.7508,203.581 L17.6958,203.581 L17.3408,202.893 L16.9858,202.673 L16.8768,202.673 L16.4118,202.673 L16.3028,202.563 L16.4938,202.233 L16.5758,202.123 L16.7178,202.087 L17.3408,202.453 L17.6418,202.481 L17.6538,202.472 L17.7518,202.481 L17.9708,202.316 L17.8618,202.206 L16.5218,201.628 L16.2208,201.16 L15.9478,201.022 L15.7568,200.829 L16.2218,200.141 L16.1128,199.921 L15.9488,199.893 L15.8998,199.926 L15.8668,199.92 L15.5658,200.14 L15.2068,200.389 L14.8008,200.471 L14.6638,200.499 L14.5818,200.527 L14.3358,200.582 L13.4338,200.582 L12.9688,200.747 L12.0388,200.83 L11.9788,200.883 L11.9568,200.885 L11.5538,201.243 L11.1368,201.243 L10.7538,200.913 L10.7028,200.999 L10.6988,200.996 L10.6168,201.134 L10.9178,201.657 L11.2458,202.097 L12.2298,203.391 L12.8588,204.437 L13.4328,205.648 L14.0068,207.3 L14.1708,207.796 L14.2258,208.181 L14.3348,208.952 L14.3348,210.136 L14.3348,211.127 L14.3348,211.568 L14.1438,212.256 L14.1168,212.284 L14.0348,212.504 L13.6248,213.468 L13.2418,214.046 L12.8318,214.872 L12.6948,215.285 L12.7068,215.332 L12.6948,215.368 L12.7498,215.588 L13.5158,215.753 L13.9538,215.698 L14.1178,215.615 L15.6488,214.927 L15.9768,214.899 L16.3048,215.009 L16.7428,214.789 L17.1258,214.899 L17.3988,214.376 L17.5898,214.293 L18.0268,214.376 L18.8198,214.706 L19.2298,214.623 L19.5578,214.706 L19.8308,214.458 L20.1858,214.375 L20.4048,214.21 L20.6508,214.018 L21.3338,214.046 L21.8258,213.661 L22.3728,213.413 L22.6738,213.11 L23.2208,212.256 L23.4118,212.091 L23.9588,212.008 L24.2268,211.873 L24.9158,211.953 L24.9218,211.95 L24.9438,211.953 L25.1898,211.843 L25.4358,211.568 L25.8458,210.659 L25.9008,210.521 L26.1738,210.328 L26.5568,210.053 L26.7478,209.915 L26.7748,209.887 L26.8568,209.887 L27.2668,209.859 L28.0328,209.997 L28.2238,210.08 L28.7428,210.328 L30.4648,211.815 L30.8478,212.008 L31.5038,212.338 L31.8318,212.448 L31.9138,212.476 L32.4878,212.421 L32.8708,212.201 L33.1168,211.843 L33.2258,210.962 L33.2228,210.954 L33.2248,210.934 L33.0338,210.328 L32.7328,209.915 L32.5688,209.887 L32.1858,210.19 L32.0218,210.162 L31.9398,210.162 L32.1308,209.556 L32.1858,209.556 L33.0338,209.749 L33.0938,209.676 L33.3348,210.107 L33.4998,210.129 L33.8278,211.065 L33.9648,211.313 L34.0738,211.313 L34.1288,211.038 L33.7708,210.247 L33.9058,210.27 L34.2298,211.242 L34.2518,211.283 L34.2118,211.506 L33.9388,212.057 L33.6108,212.47 L33.6108,212.608 L33.9798,212.757 L33.9668,212.774 L33.9668,212.912 L33.9878,212.921 L33.9118,212.967 L33.7478,213.05 L33.1458,213.188 L33.0368,213.353 L33.1188,213.381 L33.4538,213.523 L33.3658,213.657 L33.4478,213.685 L33.9668,213.905 L34.4998,214.32 L34.4998,214.375 L35.0858,214.733 L35.2908,214.716 L35.3568,214.743 L35.1948,214.865 L35.4958,215.03 L35.5038,215.045 L35.4138,215.113 L35.5968,215.214 L35.6318,215.278 L35.2488,215.526 L34.9758,215.554 L34.4558,215.196 L34.1258,215.174 L34.0188,214.976 L33.9348,214.976 L33.7998,214.728 L33.5538,214.728 L33.4448,214.866 L33.3358,215.196 L33.2808,215.389 L33.2808,215.417 L33.2268,215.555 L32.8758,215.378 L32.9528,215.197 L33.3358,214.839 L33.2538,214.728 L33.0878,214.645 L33.1168,214.619 L33.0348,214.509 L32.6528,214.316 L32.4068,214.371 L32.3248,214.784 L32.3038,214.787 L32.2708,214.619 L32.0248,214.344 L31.9948,214.335 L31.8058,214.124 L31.5328,214.041 L31.2048,214.068 L30.8768,214.343 L30.7678,214.591 L30.8218,215.031 L30.9308,215.252 L31.4228,216.133 L31.3408,216.381 L31.2038,216.381 L31.1768,216.353 L31.0128,216.024 L30.7118,214.813 L30.5748,214.51 L30.1368,214.097 L29.9868,213.995 L29.8908,213.904 L29.2348,213.456 L28.8798,213.05 L28.3608,212.61 L28.1968,212.169 L28.0058,211.894 L27.9178,211.929 L27.7598,211.701 L27.5138,211.811 L27.4188,211.79 L27.4868,211.564 L27.4318,211.454 L27.2468,211.441 L27.2678,211.371 L27.2138,211.261 L26.8308,211.233 L26.6118,211.316 L26.5568,211.454 L27.4318,212.665 L28.9078,214.207 L29.0998,214.427 L29.8108,215.225 L30.1938,215.666 L30.6858,216.464 L31.5338,218.529 L31.7528,219.493 L31.7528,219.548 L32.1898,221.943 L32.1898,221.971 L32.4358,223.375 L32.4628,223.981 L32.5718,225.908 L32.4628,228.193 L32.2988,229.157 L32.2168,229.542 L31.5058,232.571 L30.4398,235.985 L30.3848,236.123 L28.9088,240.088 L28.1978,241.354 L27.9248,241.602 L27.4058,241.877 L27.2418,242.125 L27.2968,242.318 L27.3518,242.346 L27.5328,242.477 L27.5428,242.512 L27.5978,242.54 L27.7888,242.678 L28.3908,242.65 L28.5398,242.717 L28.8288,243.008 L28.9238,243.049 L29.0748,243.201 L30.5648,243.848 L30.7148,243.999 L31.0428,244.687 L31.1248,245.43 L31.3168,246.173 L31.3708,247.137 L31.4528,248.293 L31.5618,248.954 L31.4528,250 L31.3428,250.881 L30.9328,252.891 L30.9058,253.607 L30.7418,254.323 L30.7688,254.543 L30.9818,254.69 L30.9878,254.736 L31.2578,254.922 L31.3708,255.093 L31.4798,255.258 L31.5898,255.891 L31.6718,255.946 L31.7748,255.889 L31.8088,256.084 L31.8448,256.108 L31.4538,256.551 L31.3988,256.771 L31.5358,257.514 L31.5088,257.707 L31.4548,258.175 L31.1538,259.056 L30.7708,261.314 L30.7708,262.168 L30.5248,263.324 L30.7158,263.875 L31.0438,264.371 L31.3168,264.922 L31.6168,265.528 L31.5078,265.913 L31.7808,266.932 L31.6718,268.336 L31.4538,269.217 L31.4808,269.768 L31.2348,271.255 L31.2178,271.681 L31.1528,271.613 L31.1528,271.696 L31.1528,271.834 L30.4148,274.725 L29.1028,277.148 L28.4738,278.332 L28.2278,278.772 L27.8998,279.157 L27.9818,279.68 L27.9268,280.396 L28.0088,280.562 L28.1728,280.506 L28.2038,280.537 L28.1998,280.588 L28.3038,280.746 L28.2818,281.194 L28.5008,281.855 L28.4738,282.269 L27.8178,284.085 L27.4628,284.828 L27.3808,285.02 L26.9158,285.626 L26.6428,285.846 L26.5338,285.846 L26.2058,285.901 L26.1238,286.066 L26.3698,286.728 L26.5338,287.388 L26.4518,288.104 L26.3148,288.572 L25.4668,290.472 L25.1938,290.968 L24.9748,291.353 L24.3188,291.987 L24.1548,292.4 L23.9638,293.584 L23.3078,294.244 L23.2258,294.519 L23.3078,294.85 L23.2258,295.043 L22.9528,295.318 L22.8438,295.676 L22.5978,296.006 L22.6798,296.116 L22.9258,296.171 L23.0318,296.232 L22.9538,296.337 L23.0358,296.447 L23.2818,296.474 L23.4728,296.612 L23.5548,296.227 L23.7458,296.144 L24.2398,296.295 L24.5388,296.612 L24.5658,297.466 L24.6748,297.659 L24.8118,297.631 L24.9038,297.215 L24.9218,297.769 L25.0308,297.962 L25.1678,297.934 L25.2498,297.437 L25.7688,297.383 L25.9058,297.163 L25.9058,296.695 L26.2338,296.42 L26.7808,296.227 L27.0538,296.007 L27.4638,295.319 L27.9558,295.126 L28.4478,295.043 L28.7488,295.098 L28.9128,294.988 L29.0768,294.658 L29.4048,294.354 L29.7878,294.135 L31.4828,293.777 L31.9478,293.97 L32.1668,293.915 L32.5768,293.557 L33.4518,293.392 L34.1898,293.007 L34.3808,292.897 L36.6778,292.759 L37.3618,293.007 L37.4988,292.979 L37.4168,292.318 L37.5538,291.85 L37.9638,291.299 L38.7298,290.859 L39.3318,290.749 L39.3048,290.667 L39.1138,290.639 L38.9768,290.611 L39.2228,290.336 L39.3318,289.812 L39.4138,289.729 L39.4608,289.682 L39.4958,289.728 L39.6648,289.813 L39.8238,290.032 L40.0008,290.121 L39.7958,290.142 L39.7408,290.28 L39.8498,290.363 L40.5608,290.363 L40.3958,290.446 L40.0948,290.473 L40.0678,290.583 L40.1768,290.666 L40.9148,290.694 L41.0788,290.694 L41.5168,291.052 L41.7628,291.08 L41.9818,290.915 L43.4578,290.998 L43.5128,290.806 L43.4578,290.448 L43.4028,290.062 L43.5268,289.812 L43.6758,291.19 L43.8128,291.355 L43.9928,291.386 L44.0048,291.494 L44.1418,291.659 L45.6178,291.907 L45.9458,292.127 L47.1758,292.567 L47.7778,292.595 L47.9688,292.595 L48.7068,292.54 L49.1438,292.43 L49.9638,291.879 L50.5108,291.769 L51.2768,291.907 L51.7858,292.122 L51.8698,292.177 L51.9758,292.25 L52.7538,292.953 L52.9028,293.015 L53.1088,293.201 L53.5738,293.394 L53.9838,293.339 L54.0928,293.284 L54.6398,293.009 L55.1048,292.954 L55.7608,292.734 L56.3078,292.844 L56.8818,292.761 L57.5648,292.513 L58.2208,292.43 L59.3418,292.65 L60.7358,293.228 L60.9818,293.338 L61.1728,293.338 L62.5948,293.999 L66.5268,296.935 L67.3798,297.77 L67.5888,297.931 L67.7348,298.074 L68.5278,298.68 L68.6378,298.57 L68.3648,298.157 L67.4348,297.139 L67.7078,297.111 L67.8988,297.001 L68.3638,297.193 L68.6638,297.138 L69.0038,296.818 L69.0198,296.862 L69.0468,296.917 L69.0738,297.027 L69.2378,297.22 L69.3748,297.22 L69.4018,297.33 L69.5658,297.495 L69.6278,297.495 L69.3278,297.548 L69.3158,297.546 L68.8828,297.219 L68.6098,297.164 L68.2268,297.219 L68.0628,297.384 L68.0358,297.577 L68.1448,297.715 L68.5098,297.82 L68.4998,297.852 L68.6088,297.97 L68.9838,298.063 L69.0168,298.096 L68.7438,298.564 L69.9738,299.197 L71.3138,299.5 L71.5018,299.448 L71.7648,299.5 L72.0648,299.428 L72.3918,299.193 L72.4998,298.981 L72.3638,298.887 L71.9798,298.836 L71.9138,298.783 L71.6018,298.735 L71.3028,298.417 L70.8678,298.205 L70.5138,297.805 L70.2418,297.758 L70.2388,297.758 L70.0558,297.516 L69.8628,297.477 L70.0828,297.378 L70.3228,297.405 L70.6138,297.654 L71.7498,298.645 L72.1328,298.645 L72.2618,298.549 L72.2148,298.644 L72.2698,298.754 L72.5978,298.699 L72.9348,298.455 L72.9828,298.449 L74.0858,297.901 L74.4998,297.618 L74.2928,297.499 L74.0858,297.523 L73.7908,297.747 L73.8008,297.737 L73.6368,297.599 L73.4728,297.627 L73.3418,297.772 L73.1678,297.874 L73.0898,297.737 L72.9528,297.854 L72.9528,297.654 L72.7608,297.481 L72.8858,297.472 L73.1808,297.314 L73.2548,297.161 L73.4998,297.048 L73.8828,296.36 L73.7898,296.22 L74.2388,296.057 L74.9468,295.934 L74.9218,295.974 L75.0038,296.222 L75.1938,296.298 L75.2498,296.47 L75.4958,296.58 L75.7968,296.525 L76.0428,296.58 L76.8908,296.084 L78.2578,295.038 L78.2578,294.542 L78.4218,294.267 L78.6678,294.184 L79.0508,294.322 L79.1888,294.295 L82.2778,292.23 L83.0428,291.542 L83.2888,291.101 L82.9318,291.149 L83.0968,290.853 L82.9498,290.872 L83.2888,290.633 L83.4528,290.33 L83.5348,290.165 L83.9178,289.972 L83.9728,290.082 L85.4738,289.145 L84.9298,289.586 L84.4108,289.834 L84.1108,290.164 L84.1928,290.329 L86.7068,288.76 L86.8988,288.65 L88.2098,287.934 L88.9758,287.631 L90.0148,287.438 L91.1358,287.383 L92.0378,287.686 L92.5298,287.769 L92.7208,287.631 L92.8308,287.438 L92.8588,287.273 L92.6948,286.915 L92.4478,286.364 L92.3928,286.144 L92.2558,285.593 L92.2288,284.382 L92.0658,284.024 L91.9158,283.897 L91.8738,283.805 L91.8738,283.804 L91.4768,283.464 L91.3818,283.253 L91.4638,282.868 L91.8738,281.932 L91.8738,281.712 L91.5458,281.188 L91.3558,280.308 L91.3278,280.143 L91.0818,279.592 L91.2188,279.041 L91.0548,277.94 L91.1928,277.5 L91.3828,277.225 L91.4648,276.674 L91.4098,275.931 L91.2738,275.463 L90.9718,274.912 L90.8598,274.808 L90.7798,274.664 L90.2208,274.15 L90.1788,274.086 L90.2348,273.894 L90.3988,273.866 L90.5348,273.756 L90.9178,273.701 L91.0278,273.453 L90.5898,272.627 L90.4528,271.443 L90.0978,270.644 L90.0978,270.617 L90.2618,269.818 L90.0978,269.35 L89.9698,269.257 L89.9058,269.074 L89.0468,268.466 L89.0048,268.359 L89.0588,267.891 L89.0588,267.809 L88.9768,267.616 L88.8398,267.572 L88.8398,267.561 L88.7578,267.368 L88.8168,267.564 L88.7578,267.368 L87.9918,267.093 L87.7188,265.826 L87.7188,265.799 L87.6638,265.496 L87.6548,265.467 L88.3208,265.441 L88.3568,265.39 L88.4558,265.386 L88.5928,265.193 L88.5378,265.11 L88.1548,264.972 L88.1988,264.838 L88.3458,264.917 L88.2908,264.834 L88.2098,264.803 L88.2628,264.642 L88.6178,264.119 L88.8638,263.981 L88.7818,263.761 L88.9458,263.1 L88.9188,262.907 L88.8918,262.742 L88.9388,262.541 L88.9468,262.55 L89.1658,262.578 L89.1968,262.51 L89.3028,262.523 L89.6038,261.862 L89.9318,261.587 L90.0958,260.926 L90.6698,260.238 L90.8338,259.853 L91.0528,258.779 L91.1078,257.678 L91.4078,256.742 L91.6268,256.082 L91.8458,255.036 L92.2008,254.485 L92.3098,253.879 L92.6298,253.532 L92.9398,253.493 L92.9968,253.451 L93.1048,253.437 L93.7868,252.943 L94.5258,252.145 L95.2368,251.402 L95.3728,251.292 L96.3028,250.576 L97.4238,249.062 L97.6158,248.401 L97.9448,248.016 L98.5178,246.887 L98.4628,246.639 L98.2438,246.336 L98.6548,245.427 L98.9268,244.849 L99.1728,243.693 L99.6118,242.784 L99.4738,242.261 L99.2828,241.6 L99.2828,241.49 L99.2828,241.132 L99.5838,240.664 L100.1748,240.416 L101.2518,240.113 L101.2608,240.101 L101.4158,240.057 L101.5258,239.919 L101.8538,239.506 L101.8758,239.497 L101.9898,239.451 L102.2628,239.506 L102.7818,240.029 L102.9728,240.057 L104.9138,239.864 L104.9718,239.816 L105.0508,239.808 L105.4878,239.45 L105.4878,239.092 L105.2968,238.679 L105.3238,238.569 L105.8988,237.743 L106.0538,237.604 L106.3078,237.604 L106.6098,237.604 L106.9638,237.715 L107.9478,238.513 L108.6588,238.788 L109.4798,238.705 L110.7908,238.292 L110.7978,238.278 L110.9278,238.237 L111.0658,237.962 L110.7098,237.164 L110.9558,236.613 L111.0108,236.31 L111.0108,236.2 L111.0108,235.952 L110.9558,235.649 L110.8738,235.319 L110.9288,235.099 L112.4048,232.648 L112.5418,232.125 L112.7608,231.353 L113.0888,229.592 L113.1158,229.454 L113.5268,227.774 L113.5528,227.664 L113.4998,227.502 L113.4728,227.392 L113.4178,227.254 L113.1168,227.199 L112.8168,227.281 L112.7598,227.322 L112.7068,227.337 L112.0988,227.777 L111.9418,227.777 L111.7218,227.777 L111.0928,227.998 L110.6008,227.915 L110.4098,227.998 L110.4098,228.006 L110.3008,228.053 L110.3008,228.383 L110.3008,228.658 L110.1368,228.851 L110.0288,228.989 L109.9728,229.016 L109.7268,229.126 L109.5078,229.208 L109.4168,229.245 L109.0978,229.291 L109.0418,229.311 L108.9888,229.319 L108.3218,229.559 L108.0318,229.346 L107.8408,229.236 L107.7568,229.278 L107.7328,229.263 L107.6228,229.318 L107.4318,229.676 L107.3958,229.73 L107.0768,229.703 L107.0218,229.703 L106.6668,229.4 L106.2838,229.069 L106.2288,228.959 L105.6268,227.692 L104.7788,226.481 L104.7518,226.343 L104.7248,226.205 L104.3698,224.388 L104.2338,224.085 L103.9878,223.728 L103.7958,223.534 L103.1128,222.873 L102.7298,222.35 L101.6638,220.45 L101.3908,220.119 L100.4888,219.1 L99.6688,218.027 L98.7938,216.898 L98.1108,215.466 L96.9068,214.695 L96.8518,214.695 L96.6298,214.695 L96.5748,214.695 L96.1358,214.72 L96.0828,214.585 L96.1928,214.364 L96.7938,213.868 L96.9858,213.07 L97.2858,212.629 L97.5868,212.189 L97.5318,211.886 L97.3288,211.988 L97.2588,211.996 L96.8748,212.177 L96.7118,212.107 L96.6568,211.859 L96.8208,211.006 L96.9298,210.483 L97.1208,210.015 L97.3118,209.575 L97.5028,208.611 L97.6128,208.336 L98.0228,207.923 L98.1308,207.675 L98.4048,207.042 L98.5688,206.657 L99.1148,205.693 L99.3338,204.812 L99.9628,203.793 L99.9078,203.545 L99.2798,203.353 L99.0878,203.297 L98.9238,203.132 L98.8978,202.939 L98.9238,201.287 L99.3618,198.286 L99.5258,197.928 L99.7718,197.68 L100.2368,197.405 L100.3188,197.351 L100.7828,197.103 L101.5218,196.69 L101.9588,196.249 L102.3968,195.423 L103.2978,195.01 L103.4068,194.955 L103.6258,194.735 L103.8448,194.295 L104.1178,193.717 L104.9928,192.863 L105.3208,192.726 L106.2788,192.726 L106.5788,192.644 L106.7978,192.34 L107.1538,191.239 L107.2358,191.102 L107.6998,190.413 L107.9728,190.248 L108.1638,190.166 L108.8748,189.918 L109.0388,189.67 L109.1488,189.202 L109.0928,188.899 L109.0758,188.866 L109.0658,188.816 L108.9008,188.523 L108.6278,187.99 L108.4908,187.743 L108.3818,187.357 L108.4908,187.082 L109.3928,186.531 L109.5298,186.338 L109.7768,185.402 L109.8028,185.292 L110.5408,184.136 L110.9508,183.668 L111.8528,182.017 L112.5648,180.694 L112.5648,180.501 L112.5648,180.31 L112.4828,180.116 L112.0168,179.62 L111.9618,179.399 L112.1808,178.573 L112.1258,178.326 L111.5248,177.445 L111.4988,177.421 L111.4968,177.418 L110.4308,176.399 L109.9658,176.041 L108.8448,175.215 L108.5718,175.16 L108.1618,175.242 L106.1388,176.206 L105.3728,176.261 L104.8258,176.151 L104.5308,175.962 L104.5048,175.934 L104.2798,175.656 L104.0888,175.271 L104.0638,175.015 L104.2248,174.197 L104.6618,173.013 L104.6588,172.992 L104.6618,172.985 L104.5798,172.353 L104.1148,171.939 L102.8578,171.691 L101.8728,171.498 L101.3548,171.307 L100.8338,171.003 L100.5608,170.673 L100.3418,170.398 L99.9878,169.655 L99.8238,168.205 L99.8778,167.342 L100.1518,166.571 L100.3418,166.076 L100.3358,166.063 L100.3418,166.048 L100.2338,165.801 L99.2488,164.811 L98.7568,164.397 L97.6098,163.406 L96.8168,162.085 L96.7068,161.947 L96.6528,161.782 L96.4598,161.259 L95.9458,159.787 L96.0498,159.525 L96.8698,158.864 L97.1158,158.589 L97.1478,158.513 L97.1978,158.452 L97.2428,158.27 L97.2798,158.178 L97.2798,158.125 L97.2798,158.122 L97.2538,156.854 L97.5538,155.947 L97.5468,155.914 L97.5538,155.893 L97.4998,155.645 L97.3358,155.479 L97.2268,155.369 L96.5978,155.012 L95.8328,154.736 L95.5598,154.599 L95.1228,154.213 L94.6308,154.241 L94.0838,153.966 L93.8108,153.691 L93.6198,153.25 L93.2378,151.626 L92.8818,151.104 L92.6098,151.158 L92.4718,151.187 L92.1168,151.104 L91.8168,151.02 L91.4878,150.772 L91.2688,150.552 L90.8858,149.588 L90.5848,149.175 L90.4758,149.01 L90.1208,148.708 L89.6838,148.487 L89.2188,148.267 L88.6998,147.771 L88.1808,146.835 L88.0438,146.45 L87.2788,144.358 L87.3018,144.163 L87.3868,144.056 L87.3768,144.051 L87.4418,143.973 L87.6868,143.835 L88.3168,143.642 L88.9168,143.697 L89.1628,143.669 L89.9018,143.586 L91.3168,143.916 L91.7878,144.026 L91.8428,144.053 L92.6358,144.356 L93.1008,144.439 L93.1828,144.411 L93.3748,144.356 L94.0578,144.411 L96.0278,144.604 L96.6008,144.659 L98.7608,143.805 L99.2798,143.612 L99.3068,143.584 L99.3628,143.584 L102.3148,143.777 L102.6688,143.805 L102.9148,143.888 L103.2158,143.998 L103.4348,144.026 L103.5058,144.037 L103.7898,144.081 L103.9268,144.109 L104.2958,144.026 L104.4188,143.998 L105.5948,143.723 L105.7858,143.751 L106.1408,143.779 L106.3608,143.862 L106.4148,143.89 L107.0988,144.165 L107.4008,144.193 L107.7828,144.165 L107.9468,144.076 L108.4398,143.808 L109.6958,143.34 L109.8598,143.23 L109.8608,143.23 L110.1328,142.762 L110.1888,142.597 L110.3518,142.101 L110.3518,142.073 L110.4888,140.806 L110.6258,140.531 L110.7898,140.229 L110.7898,140.145 L110.8178,139.98 L110.7358,139.429 L110.7898,139.126 L111.3368,137.887 L111.3918,137.529 L111.3918,137.033 L111.0088,135.959 L111.1178,135.546 L111.5008,135.161 L111.9388,134.693 L112.5118,134.61 L112.7578,134.472 L112.8398,134.417 L113.0038,134.087 L113.4498,133.849 L113.4428,133.949 L113.4548,133.847 L113.4698,133.839 L113.4968,133.51 L113.5258,133.288 L113.5158,133.288 L113.5258,133.178 L114.0168,132.848 L114.6468,131.884 L114.7828,130.37 L114.5648,129.187 L114.6468,128.773 L115.1118,128.25 L115.2758,128.057 L115.4118,127.479 L115.2198,126.653 L115.3838,125.992 L115.4398,125.854 L115.8758,124.643 L115.9038,124.23 L116.0948,123.872 L116.1768,123.624 L116.3688,123.486 L116.0408,123.101 L115.9868,123.018 L115.9038,122.88 L115.9038,122.77 L115.8488,122.55 L115.7668,122.412 L115.6848,122.329 L115.6848,122.301 L115.7118,122.136 L115.4118,121.558 L115.1658,121.365 L115.1128,121.338 L115.0028,121.229 L114.9758,120.953 L115.0028,120.815 L115.0298,120.677 L114.9698,120.677 L114.9748,120.649 L114.8108,120.649 L114.5598,120.557 L114.5368,120.511 L114.4548,120.373 L114.1818,120.153 L114.0998,120.07 L113.9628,119.877 L113.8538,119.354 L113.6088,119.024 L113.4168,118.418 L113.3938,118.404 L113.3898,118.39 L113.2528,118.307 L113.0018,118.155 L112.8698,117.784 L112.8498,117.777 L112.8428,117.756 L112.6788,117.701 L112.4878,117.756 L112.0778,117.673 L112.0508,117.673 L111.7788,117.535 L111.0398,117.37 L110.7128,117.59 L110.3018,117.15 L109.9188,116.462 L109.8368,115.966 L109.9738,115.498 L109.9468,115.223 L109.7278,114.92 L109.6188,113.984 L109.5368,113.571 L109.6738,112.938 L109.9198,112.195 L110.1388,111.617 L110.5228,111.066 L111.1778,110.708 L112.0798,110.625 L112.4348,110.322 L112.6808,109.771 L112.8448,109.716 L114.9498,109.578 L115.8518,109.385 L116.6178,109.027 L116.6178,108.972 L116.6998,108.476 L116.5908,107.733 L116.6998,107.265 L117.2468,106.742 L117.8488,106.274 L117.9868,106.191 L118.3408,105.888 L118.9968,105.558 L119.3798,105.475 L119.6258,105.31 L119.7628,103.878 L119.8448,103.685 L120.2008,103.327 L120.2278,103.052 L120.1998,103.035 L120.2008,103.025 L119.9278,102.86 L119.4908,102.75 L119.0808,102.365 L118.9048,102.289 L118.7528,102.035 L118.3428,101.347 L117.9048,100.494 L117.7688,100.247 L117.7688,100.246 L117.8508,100.081 L117.8248,100.01 L117.9058,99.668 L117.7418,99.228 L117.4418,98.485 L117.4478,98.375 L117.8238,97.466 L118.4258,96.778 L118.8908,95.649 L119.1638,95.236 L119.3828,95.126 L119.5738,94.493 L119.5968,94.276 L119.6558,94.081 L119.7108,93.558 L119.5198,93.145 L119.4108,92.815 L119.0008,92.209 L118.4268,91.769 L118.1258,91.824 L117.6778,91.515 L118.1808,90.502 L118.2368,90.419 L118.5368,89.896 L118.9738,89.125 L119.3018,88.244 L119.4658,87.721 L119.4658,87.629 L119.5748,87.28 L119.5748,86.812 L119.2748,85.766 L119.1368,84.968 L118.9178,83.371 L118.8638,82.903 L118.6448,82.16 L118.4258,82.022 L118.3998,81.747 L118.1798,81.279 L118.1248,81.196 L118.0428,80.811 L118.2068,79.957 L118.2618,78.911 L118.5628,77.727 L118.3438,76.791 L118.5078,76.158 L118.4668,76.004 L118.9998,75.911 L119.2188,75.773 L119.2188,75.718 L119.2028,75.439 L119.3278,75.36 L119.3278,75.305 L119.3008,74.837 L119.0548,73.626 L118.8908,73.406 L118.7808,73.378 L118.0708,73.158 L117.9598,72.938 L117.6318,72.663 L117.3598,72.278 L117.3038,70.819 L116.7298,69.222 L116.5388,69.002 L116.0198,68.672 L115.7748,68.176 L115.3368,67.598 L114.6258,66.717 L114.1338,65.946 L113.6418,65.478 L113.5598,65.285 L113.5598,65.12 L113.5598,64.979 L113.5498,64.916 L113.8068,64.787 L114.0448,64.707 L114.5998,64.787 L114.6268,64.787 L114.8458,64.842 L114.8728,64.842 L115.8018,65.145 L115.8228,65.143 L115.8298,65.145 L117.1418,65.007 L118.0988,64.787 L118.5908,64.512 L118.8368,64.374 L119.1108,63.961 L119.2188,63.796 L119.9038,63.135 L120.0678,62.722 L120.4498,61.813 L121.1608,60.794 L121.0998,60.409 L120.7728,59.968 L120.5528,59.775 L120.5268,59.527 L120.6568,59.263 L121.3458,58.756 L121.7558,58.481 L122.6858,57.627 L123.4788,56.636 L123.8338,55.7 L124.0528,55.397 L124.3538,54.874 L124.8988,54.162 L124.9018,54.158 L125.9128,53.112 L126.4318,52.892 L126.9238,52.809 L127.1148,52.837 L127.3878,52.975 L127.6078,53.085 L128.0718,53.195 L128.4268,53.278 L129.0298,53.25 L129.2478,53.25 L129.6028,52.947 L129.7668,52.727 L130.4508,52.121 L130.7518,52.011 L131.0528,51.928 L131.1908,51.9 L132.0658,51.57 L133.5408,50.028 L134.1148,49.615 L134.2518,49.532 L134.9898,49.202 L135.5368,48.706 L135.8098,47.852 L136.0558,47.632 L136.3288,47.109 L136.9858,46.724 L137.5038,46.228 L137.6128,46.035 L137.6098,46.014 L137.6128,46.007 L137.5978,45.952 L137.5578,45.731 L137.5578,45.703 L137.1488,44.987 L137.2568,44.436 L137.5298,44.078 L137.5568,44.05 L137.9668,43.995 L138.2828,44.093 L138.2948,44.105 L138.6508,44.601 L138.6898,44.608 L138.7048,44.629 L138.8688,44.657 L138.8958,44.657 L139.3878,44.602 L139.4438,44.574 L139.4978,44.546 L139.5528,44.518 L139.5798,44.49 L139.6888,44.407 L139.7158,44.379 L139.9068,44.104 L139.9068,44.076 L140.0158,43.663 L140.0978,43.388 L140.2618,43.058 L140.5628,42.838 L140.8638,42.425 L141.0288,41.902 L141.0288,41.874 L141.0008,41.709 L140.9738,41.268 L141.1118,40.965 L141.8218,39.396 L141.8768,39.148 L142.2598,38.763 L142.5058,38.323 L143.0798,37.883 L143.1888,37.718 L143.2708,37.057 L144.2828,36.203 L144.6118,35.68 L144.9388,34.882 L145.1028,34.827 L145.1578,34.689 L145.2948,34.359 L145.5408,34.056 L145.8418,33.836 L146.4158,33.561 L146.3628,33.262 Z" id="Fill-5" fill="#FFFFFF"></path>
                <path d="M84.5918,289.416 L84.7088,289.312 L84.9438,289.17 L84.7368,289.339 L84.5918,289.416 Z M23.1428,296.07 L23.1658,295.919 L23.2238,295.894 L23.1928,296.002 L23.1428,296.07 Z M34.1448,210.358 L34.2378,210.515 L34.2728,210.668 L34.1448,210.358 Z M33.4178,209.469 L33.3028,209.419 L33.6508,208.996 L33.6098,209.194 C33.7098,209.223 33.8038,209.252 33.8958,209.278 L33.8928,209.295 C33.7838,209.264 33.6728,209.23 33.5558,209.194 L33.6518,209.507 L33.6348,209.499 L33.5268,209.528 L33.5118,209.675 L33.4178,209.469 Z M33.6918,87.06 L34.1568,86.647 L34.5938,85.931 L34.7578,85.325 L34.7578,83.976 L35.6058,82.902 L35.6328,82.406 L35.7418,81.25 L35.6048,80.369 L35.9328,80.121 L36.0968,79.515 L36.7258,78.744 L36.7258,78.634 L36.9168,77.175 L37.0808,76.735 L37.2998,75.661 L37.4568,74.951 L37.6008,75.193 L37.3548,75.964 L37.3548,76.707 L36.9448,78.056 L37.0818,78.249 L37.1038,78.242 L37.1088,78.249 L37.2728,78.194 L37.7378,77.726 L37.8468,77.423 L37.6558,76.872 L37.6828,76.624 L37.9818,75.884 L37.9828,75.881 L38.0378,75.826 L38.0648,75.908 L37.9278,76.817 L37.9828,77.12 L38.2288,76.982 L38.2558,76.762 L38.4198,76.734 L38.4748,77.009 L38.4748,77.119 L38.4778,77.121 L38.7438,77.341 L38.4468,77.45 L37.9548,77.808 L37.2168,78.662 L36.9158,78.827 L36.7518,78.91 L36.6698,78.993 L36.3148,79.351 L36.1798,79.709 L36.4808,80.122 L36.5358,80.645 L36.4538,81.361 L36.5628,81.802 L36.9178,82.408 L36.9258,82.403 L36.9448,82.435 L37.4098,82.16 L38.0388,82.38 L38.4488,82.352 L39.2958,81.967 L39.4598,82.05 L39.2408,82.298 L39.2958,82.326 L39.4598,82.409 L39.4868,82.519 L38.8848,82.703 L38.1748,82.491 L38.1618,82.503 L38.1208,82.491 L37.8238,82.763 L37.4648,82.739 L37.4618,82.741 L37.4378,82.739 L37.1648,82.877 L36.6458,82.905 L36.4548,83.098 L36.8378,83.373 L36.9748,83.979 L37.0008,83.975 L37.0018,83.979 L37.3038,83.928 L37.4118,84.227 L37.1108,84.282 L36.9738,84.282 L36.7828,84.475 L36.4818,85.329 L35.8258,86.21 L35.6888,86.375 L35.8798,86.871 L36.0438,87.311 L36.8638,87.201 L37.1098,86.926 L37.3828,85.935 L37.6248,85.74 L37.3558,86.431 L37.2468,87.092 L36.9188,87.395 L36.4268,87.505 L36.3448,88.276 L36.3178,88.496 L35.7708,87.395 L35.4698,86.789 L35.2658,86.502 L35.4848,86.408 L35.9928,85.487 L36.4998,84.848 L36.4578,84.755 L36.5078,84.692 L36.3708,84.389 L35.8788,84.995 L35.3318,85.16 L35.0038,85.38 L34.9558,85.506 L34.7538,85.641 L34.4998,86.309 L34.5388,86.386 L34.1018,87.033 L34.1528,87.343 L33.8008,87.886 L33.8108,87.896 L33.7458,87.996 L33.8828,88.134 L33.7738,88.657 L33.7738,89.098 L33.6098,89.181 L33.5718,89.283 L33.5548,89.292 L33.4728,89.512 L33.4728,90.145 L33.2868,90.755 L33.1728,90.778 L33.4188,88.548 L33.5558,87.805 L33.8018,87.144 L33.7198,87.061 L33.6538,87.069 L33.6918,87.06 Z M43.9448,289.065 L44.0098,289.076 L43.8628,289.203 L43.8118,289.244 L43.9448,289.065 Z M33.9378,257.898 L34.0488,257.922 L34.0478,257.926 L34.1568,258.064 L34.3868,258.114 L34.4308,258.202 L34.2938,258.285 L33.9308,258.059 L33.8838,257.845 L33.8878,257.836 L33.9378,257.898 Z M33.5548,256.053 L33.6098,256.714 L33.8188,256.767 L33.8278,256.88 L34.1218,256.954 L34.0098,257.263 L33.8638,257.253 L33.8838,257.211 L33.8288,257.101 L33.5718,257.083 L33.4188,256.413 L33.4188,255.835 L33.3368,255.725 L33.1998,255.749 L33.1998,255.669 L33.1178,255.559 L32.7568,255.623 L32.8168,255.587 L33.1998,255.532 L33.3978,255.603 L33.5548,256.053 Z M72.5008,297.223 L72.3918,297.131 L72.3508,297.077 L72.4058,296.994 L72.5828,296.994 L72.4998,297.21 L72.5008,297.223 Z M146.3628,33.262 L145.7608,32.464 L144.8598,32.106 L144.6398,31.886 L144.0928,31.088 L143.4088,30.042 L142.6708,29.381 L142.4248,29.106 L141.9328,28.858 L141.8778,28.83 L140.9208,28.582 L140.5928,28.472 L140.1008,28.197 L139.7458,27.894 L139.4458,27.784 L139.1438,27.701 L139.1268,27.704 L139.1168,27.701 L138.9808,27.727 L138.2688,27.839 L137.8598,27.784 L137.2308,27.564 L136.4378,27.564 L136.2738,27.536 L135.9458,27.453 L135.4258,27.205 L135.1798,27.205 L135.1618,27.233 L135.1528,27.233 L134.5078,28.233 L134.2778,28.362 L132.5818,28.885 L132.3088,28.417 L131.6538,27.811 L131.2428,27.618 L130.4228,26.985 L130.0258,26.958 L130.2318,26.517 L130.2318,26.49 L130.4498,26.022 L130.4468,26 L130.4498,25.995 L130.4228,25.775 L130.1218,24.619 L129.9038,24.399 L129.8208,24.041 L129.7958,24.024 L129.7928,24.013 L129.7108,23.958 L129.3828,23.729 L129.3828,23.49 L129.9298,22.967 L130.1758,22.471 L130.3398,21.452 L130.4488,20.929 L130.6678,20.571 L130.7778,19.883 L131.0238,19.525 L131.1598,18.672 L131.1058,18.342 L131.4058,17.241 L131.3788,17.131 L131.5158,16.911 L131.6538,16.691 L131.4338,16.416 L131.4248,16.411 L131.4068,16.388 L130.8328,16.085 L129.7068,15.815 L129.6298,15.452 L129.9038,15.122 L130.0938,14.654 L130.0938,14.627 L130.0938,14.131 L130.4218,13.525 L130.5308,13.085 L130.5268,13.077 L130.5308,13.058 L130.1208,12.315 L129.6558,11.599 L129.4368,11.159 L129.2718,11.034 L129.2178,10.994 L128.8898,10.947 L128.8348,10.939 L128.7528,11.793 L128.4248,12.151 L127.5238,12.399 L127.3858,12.427 L126.5358,12.539 L126.0458,12.593 L125.3628,12.731 L124.7388,12.81 L124.1058,12.759 L123.3388,12.649 L122.7098,12.539 L122.6488,12.542 L122.6278,12.539 L122.1908,12.539 L121.6978,12.043 L121.2338,10.694 L120.6588,10.006 L120.2488,9.841 L120.2328,9.84 L120.1668,9.814 L119.7838,9.786 L119.1548,9.869 L118.9908,10.172 L118.9088,10.943 L118.7728,11.824 L118.5528,12.044 L118.0328,12.292 L117.2858,12.344 L116.9668,12.237 L116.9438,12.256 L116.8848,12.237 L116.7478,12.347 L115.9548,12.595 L115.5948,12.667 L115.1078,12.512 L115.0258,12.512 L114.4778,12.512 L114.3958,12.512 L114.1768,12.512 L113.7398,12.374 L113.2758,12.154 L113.1378,12.016 L113.0558,11.933 L112.8368,11.355 L112.7278,11.3 L112.2368,10.722 L111.9348,10.722 L111.8528,10.722 L111.3878,10.915 L111.3618,10.943 L110.8418,11.521 L110.2678,12.017 L109.8158,12.065 L109.4198,11.879 L109.3248,11.885 L109.3108,11.879 L108.4628,11.934 L108.1028,12.031 L107.8338,11.989 L107.5878,11.824 L106.9868,10.778 L106.1658,10.227 L105.4008,9.952 L105.3158,9.97 L105.2638,9.952 L104.9678,10.016 L104.0608,9.677 L103.9718,9.695 L103.9238,9.677 L103.2398,9.815 L102.9938,9.953 L102.9668,9.953 L102.7768,10.036 L102.5848,10.229 L102.5578,10.257 L102.2568,10.808 L102.2308,10.836 L102.2028,10.974 L102.1488,11.249 L102.1208,11.387 L102.3398,11.745 L102.3138,11.773 L102.2318,11.993 L102.2038,12.268 L102.2038,12.351 L102.3138,12.929 L102.4768,13.287 L102.6408,13.755 L102.6408,13.92 L102.6408,14.03 L102.6138,14.085 L102.5868,14.14 L101.8758,15.627 L101.4398,15.902 L101.2758,16.04 L100.6728,16.48 L99.4698,16.893 L98.8148,17.196 L98.1578,17.747 L97.5598,17.789 L96.9588,17.954 L96.1088,18.222 L95.5658,18.174 L94.7168,17.926 L94.2798,17.926 L94.1698,17.926 L93.4318,18.449 L93.0768,19.137 L92.9408,19.467 L92.5568,19.77 L91.9838,19.88 L91.7918,19.919 L91.7918,19.247 L91.9018,18.862 L91.6548,18.642 L91.5728,18.559 L91.0808,18.063 L90.8898,17.678 L90.6708,17.375 L90.5338,17.017 L90.1238,17.017 L90.1228,17.017 L90.0418,17.017 L89.6248,17.04 L88.6748,16.466 L88.6358,16.492 L88.5928,16.466 L88.0188,16.851 L88.2378,17.374 L88.0468,17.704 L87.8828,17.814 L87.3638,18.117 L86.5438,18.392 L86.1068,18.722 L85.4338,18.857 L84.9568,18.832 L84.3828,18.667 L83.7268,18.337 L83.6178,18.282 L83.6178,18.117 L83.8908,17.236 L84.4098,16.575 L85.0938,15.969 L84.8478,15.941 L84.8328,15.945 L84.7928,15.941 L84.3528,16.071 L83.5078,15.858 L83.4848,15.866 L83.4528,15.858 L82.6138,16.13 L82.2218,16.105 L81.8118,15.83 L81.2378,15.307 L80.3078,14.619 L80.0888,14.509 L80.0518,14.518 L80.0348,14.509 L79.6798,14.592 L79.3248,14.84 L78.7788,15.198 L78.0678,15.198 L77.6018,15.115 L77.4648,15.087 L77.4498,15.09 L77.4368,15.087 L76.9718,15.17 L76.9458,15.198 L76.0148,15.776 L75.3038,16.024 L74.2918,16.162 L73.7718,16.217 L73.6628,16.795 L73.5808,17.07 L73.0618,17.4 L72.7068,17.428 L71.9078,17.643 L71.5858,17.346 L71.4218,16.933 L71.8588,14.345 L71.8858,13.877 L71.7488,13.492 L71.7318,13.496 L71.7208,13.464 L71.5028,13.519 L71.0658,13.381 L70.8748,13.436 L70.4648,13.546 L70.3558,13.794 L70.3828,14.62 L70.3558,15.363 L70.2188,15.748 L69.8088,16.188 L69.5078,16.353 L68.5508,16.628 L67.6758,16.628 L67.6488,16.628 L67.4298,16.821 L66.9928,17.619 L66.6648,17.867 L66.1728,18.831 L65.8458,19.023 L65.8448,19.023 L65.3528,18.968 L65.1888,19.133 L64.4778,19.601 L64.2588,19.684 L63.6848,19.849 L63.4388,20.179 L63.4388,20.399 L63.4118,20.399 L62.8098,20.509 L62.3178,20.509 L62.1268,20.509 L61.7988,20.344 L61.5528,20.234 L61.3068,20.096 L60.8148,20.013 L60.7058,19.985 L60.6238,19.985 L59.7488,19.655 L59.6938,19.49 L59.6388,18.884 L59.5018,17.535 L59.1738,16.351 L59.0648,16.158 L59.0098,16.075 L58.9828,16.02 L58.9558,15.992 L58.7648,15.909 L57.7808,15.881 L57.7648,15.881 L57.4528,15.33 L57.2068,14.89 L57.0698,14.587 L56.9878,14.394 L57.0428,14.311 L57.1518,14.091 L57.1468,14.058 L57.1468,14.057 L57.1518,14.091 L57.2068,14.008 L57.1048,13.725 L57.3988,13.429 L58.2738,11.942 L58.5198,11.749 L58.7388,11.419 L58.7658,11.364 L58.9298,10.979 L59.2028,10.621 L59.3398,10.428 L59.5308,10.18 L60.6518,9.574 L61.4448,8.831 L61.9638,8.583 L61.9958,8.566 L62.0188,8.555 L62.6998,8.208 L62.8638,7.217 L62.7818,6.529 L62.6998,5.95 L62.6998,5.923 L62.0988,5.069 L61.3608,4.711 L60.8138,4.629 L60.8018,4.631 L60.7868,4.629 L59.9388,4.794 L58.8758,5.343 L58.5438,5.317 L58.5438,5.097 L58.4348,4.244 L58.2438,3.253 L58.1068,2.069 L58.0798,1.352 L58.0798,1.077 L58.0798,0.912 L58.0528,0.884 L57.9158,0.746 L57.8888,0.746 L57.5328,0.719 L57.5308,0.719 L57.5058,0.719 L57.3418,0.857 L57.3148,0.885 L57.2328,0.995 L57.0418,1.215 L56.9048,1.27 L56.5218,1.408 L56.4398,1.436 L56.3848,1.436 L56.1118,1.464 L55.7288,1.492 L55.7178,1.514 L55.6468,1.519 L55.6198,1.574 L55.1838,2.039 L54.7438,2.179 L54.7398,2.181 L54.6618,2.206 L54.0328,2.619 L53.5678,2.922 L52.7748,3.252 L52.3648,3.692 L52.0078,3.897 L51.8178,3.94 L50.7238,3.857 L50.4778,3.94 L50.3958,3.967 L49.8208,4.362 L49.5488,4.409 L49.0568,4.326 L48.2638,4.574 L47.7998,4.601 L47.5268,4.463 L46.3508,4.409 L46.1308,4.47 L45.4758,4.629 L45.2848,4.629 L45.2028,4.629 L44.9968,4.652 L44.2728,4.574 L44.2498,4.58 L44.1898,4.574 L43.8068,4.684 L43.5878,4.794 L43.3148,5.592 L42.9598,5.895 L41.7838,6.137 L40.4448,6.005 L40.0618,5.95 L40.0428,5.955 L40.0078,5.95 L39.2698,6.143 L38.6958,6.363 L38.1758,6.969 L37.9018,7.299 L37.5468,8.565 L37.4098,8.841 L36.6438,9.639 L35.4958,10.245 L34.4838,10.63 L33.8548,11.153 L33.4448,12.53 L33.1718,13.053 L32.8168,13.438 L32.2428,13.768 L31.3948,14.153 L31.1218,14.318 L31.1508,14.325 L31.1928,14.494 L30.4658,15.089 L30.4248,15.176 L30.3288,15.254 L30.0558,15.832 L30.0288,16.052 L30.0068,16.083 L29.6458,16.135 L29.6158,16.173 L29.7468,15.797 L29.7188,15.499 L29.2538,16.299 L29.2808,16.499 L29.4168,16.424 L29.3168,16.55 L29.0708,16.605 L28.7158,16.467 L28.5788,16.605 L28.5608,16.678 L28.4698,16.77 L28.1478,18.093 L28.0058,18.394 L28.0098,18.452 L27.8418,18.807 L27.9238,19.633 L28.2518,20.101 L28.2518,20.249 L28.1698,20.404 L28.1698,20.559 L28.0328,20.817 L28.0058,21.12 L28.1428,21.671 L27.9518,22.194 L27.9248,22.965 L27.7878,23.653 L28.1708,25.36 L28.5808,26.461 L29.2098,27.232 L29.3188,27.37 L29.4828,27.48 L29.6738,27.728 L29.8928,28.086 L29.9748,29.132 L30.0298,29.903 L30.6588,31.775 L30.7678,32.133 L30.9048,32.739 L30.9598,33.785 L31.3698,35.464 L31.6368,35.903 L31.5338,36.318 L31.4788,36.263 L31.3698,36.703 L31.6158,37.722 L31.5068,38.493 L31.7798,38.796 L32.0258,39.236 L32.1628,40.117 L32.1628,40.145 L32.0808,40.723 L31.8348,42.678 L31.6978,43.091 L31.8068,43.421 L31.8338,43.972 L32.2168,44.825 L32.4628,45.018 L32.7638,45.706 L32.7638,46.146 L33.1738,47.247 L33.3648,47.522 L33.6108,47.907 L33.6658,48.568 L33.6108,49.174 L33.9118,50.44 L34.1578,50.853 L34.1848,51.431 L34.2668,53.193 L34.6768,54.652 L34.5948,55.258 L34.9778,56.111 L35.4428,56.524 L35.9078,57.598 L35.9348,57.681 L35.9618,57.764 L36.1528,58.232 L36.4808,58.617 L36.6998,58.727 L37.4658,58.534 L37.7668,58.534 L37.7938,58.617 L37.8168,58.656 L37.7938,58.727 L37.7118,58.81 L37.5748,58.975 L37.4108,59.058 L37.1918,59.03 L36.7548,58.727 L36.7548,58.81 L36.7878,59.173 L36.6998,59.112 L36.6998,59.195 L36.7548,59.773 L36.9738,60.461 L36.9468,60.819 L37.2478,61.865 L37.2208,62.553 L37.4118,63.599 L37.3848,64.04 L37.5488,64.838 L37.7678,65.994 L37.7988,66.164 L37.7138,66.407 L37.7138,66.609 L37.6588,66.765 L37.6588,67.299 L37.5768,67.728 L37.5748,67.81 L37.5218,68.086 L37.5008,68.953 L37.3308,69.38 L37.1668,70.096 L37.1668,70.371 L37.1668,70.784 L37.0578,71.582 L36.2098,74.198 L35.9638,75.272 L35.4448,78.631 L35.3598,79.159 L34.8408,81.114 L34.4578,82.023 L34.3758,82.932 L34.1568,83.455 L33.7468,85.658 L33.7198,85.796 L33.3368,86.622 L33.2278,87.118 L33.3198,87.098 L33.3098,87.145 L33.4888,87.106 L33.3098,87.337 L33.3058,87.345 L33.2278,87.447 L33.1458,87.64 L33.0638,87.888 L32.7908,89.402 L31.6428,94.33 L31.5608,94.743 L30.7128,98.46 L30.3298,100.635 L30.0288,101.819 L29.2358,104.903 L28.8808,105.784 L27.9788,108.785 L27.8968,109.088 L27.2678,110.685 L27.0768,111.07 L26.9128,111.373 L26.6118,112.474 L26.1748,113.493 L26.4208,113.989 L26.8308,114.429 L27.3228,114.677 L27.6778,114.98 L27.8968,115.173 L28.1978,115.669 L28.5258,115.779 L28.9628,115.751 L29.9198,115.696 L31.1228,116.825 L31.6148,117.623 L31.8878,117.651 L32.0248,117.541 L32.0368,117.515 L32.1068,117.459 L32.3528,116.936 L32.7578,116.408 L32.9808,116.358 L32.5438,117.156 L32.3798,117.486 L32.2708,117.761 L32.1618,117.871 L31.9158,117.899 L31.5878,117.706 L31.0958,117.265 L30.9048,117.1 L30.9598,116.852 L30.7408,116.577 L30.6588,116.467 L29.5648,116.054 L29.0448,115.999 L29.0388,116.066 L28.9628,116.054 L28.9358,116.357 L29.4548,117.073 L29.7518,117.347 L29.5098,117.403 L29.3458,117.32 L29.0998,116.935 L28.9908,116.715 L28.7998,116.33 L28.6628,116.083 L28.4168,116.055 L28.3078,116.11 L28.3078,116.124 L28.2258,116.165 L28.1988,117.762 L27.5428,119.331 L26.8868,121.809 L26.5858,122.718 L26.0388,124.397 L25.4918,126.269 L25.4648,126.379 L25.3828,126.599 L25.3278,126.737 L24.0978,129.986 L23.6328,131.473 L23.3048,132.492 L22.7858,133.511 L22.7038,133.676 L22.6488,133.896 L22.3758,134.805 L20.9538,138.384 L20.7078,138.852 L20.5988,139.458 L20.5438,139.761 L20.3248,140.339 L20.1058,140.89 L20.0788,141.909 L19.6958,143.231 L19.1488,145.516 L18.7658,147.14 L18.7928,147.388 L18.8198,147.498 L19.1478,147.636 L19.2568,147.774 L19.2838,148.049 L19.1198,148.489 L18.1358,150.003 L16.8778,151.435 L16.6318,151.986 L16.4948,152.124 L16.1668,152.152 L16.1398,152.648 L16.4408,152.923 L16.2768,153.198 L15.9878,153.357 L15.7848,152.923 L15.7698,152.923 L15.7568,152.895 L15.4558,152.895 L14.8268,153.418 L13.6238,154.932 L13.2408,155.152 L13.1038,155.758 L12.1738,157.438 L12.2008,157.52 L12.7748,157.741 L13.0478,158.016 L13.4308,158.842 L13.5678,158.925 L13.5868,158.903 L13.6228,158.925 L13.7748,158.747 L13.9778,158.815 L14.1148,159.062 L14.0618,159.224 L13.7328,159.2 L13.7308,159.204 L13.6778,159.2 L13.6228,159.338 L13.8138,159.916 L13.7318,160.081 L13.5368,160.125 L13.4038,159.669 L13.3508,159.674 L13.3498,159.669 L13.2408,159.685 L12.8308,159.724 L12.8098,159.747 L12.7758,159.752 L12.4788,160.076 L12.3938,160.055 L12.3388,159.917 L12.5578,159.532 L12.4758,159.367 L12.5028,159.174 L12.8038,159.064 L12.4488,158.486 L12.3668,157.935 L12.0938,157.797 L12.0388,157.659 L12.0388,157.521 L12.0038,157.571 L11.9838,157.521 L11.6008,158.072 L9.3038,159.972 L8.3198,160.578 L8.0468,160.743 L7.9178,160.765 L7.4728,160.633 L7.4678,160.648 L7.4188,160.633 L7.1998,161.239 L6.9808,161.459 L6.5388,161.485 L6.4608,161.459 L6.1328,161.266 L5.9688,160.881 L5.8318,160.798 L5.8148,160.804 L5.8038,160.798 L5.4488,160.936 L4.9568,160.964 L4.5738,161.184 L4.4368,161.514 L4.7648,161.817 L5.0928,161.9 L5.1128,161.898 L5.1208,161.9 L5.9458,161.82 L6.1598,161.928 L6.2968,162.121 L6.4608,163.002 L6.3518,163.415 L6.9258,164.048 L7.1168,164.378 L7.0348,164.818 L7.1718,165.176 L7.2538,165.478 L7.5268,165.837 L7.6358,166.443 L7.5538,167.103 L7.2528,168.178 L7.3348,168.701 L7.3078,168.811 L7.0618,169.609 L7.0068,170.215 L6.4328,172.197 L6.0498,173.209 L5.0378,175.301 L4.9558,175.631 L4.8738,175.961 L4.4388,176.537 L4.4368,176.54 L3.8628,177.641 L3.7808,177.944 L4.0268,178.715 L4.0538,179.128 L3.9718,180.174 L3.8078,181.138 L3.8898,181.496 L3.7528,182.102 L3.8348,182.46 L3.9718,182.983 L3.9168,183.562 L4.2718,184.938 L4.1628,185.489 L4.1358,185.544 C4.1518,185.548 4.1608,185.556 4.1768,185.561 L4.0268,186.04 C3.9998,186.04 2.7968,189.316 2.7968,189.316 L2.5238,190.059 L1.3758,192.509 L0.9928,193.17 L0.4998,194.656 L0.6638,195.069 L0.7458,195.675 L0.9648,195.923 L1.4838,196.198 L1.6208,196.528 L1.4838,197.354 L1.0468,198.786 L1.2108,199.116 L1.4018,199.309 L2.1948,199.639 L2.3608,199.628 L2.3868,199.639 L3.0688,199.595 L3.2348,199.667 L3.4808,199.942 L3.6448,199.997 L3.6908,199.948 L3.8368,199.997 L4.3558,199.446 L4.5748,199.253 L4.8488,199.236 L5.5588,199.501 L6.4888,199.997 L7.1718,200.575 L7.3628,200.575 L7.6358,200.575 L8.0188,200.795 L8.2648,200.823 L8.2768,200.803 L8.4558,200.823 L8.5928,200.603 L8.7018,200.41 L9.0028,200.327 L9.8228,199.831 L10.3698,199.804 L10.5338,199.721 L10.7248,199.611 L11.1618,199.501 L11.5168,199.529 L12.2278,199.611 L12.6648,199.804 L14.0048,199.859 L14.5788,199.667 L14.7698,199.612 L15.4258,199.722 L15.9178,199.337 L16.7658,199.117 L17.2308,198.842 L17.8328,198.043 L18.3518,196.997 L18.5978,196.226 L18.6798,195.427 L18.6528,194.656 L18.8988,193.087 L19.2538,192.068 L19.3908,191.683 L19.4178,191.573 L19.5428,191.315 L19.4998,191.47 L19.3918,191.71 L19.5008,191.737 L19.8558,191.352 L20.2658,191.187 L20.4298,190.994 L20.8668,190.113 L20.7848,189.838 L20.5118,189.976 L20.4058,190.078 L20.4868,189.825 L20.6758,189.756 L21.0588,189.288 L21.4688,188.765 L21.6038,188.459 L21.6998,188.499 L22.0168,188.091 L22.0168,188.461 L22.1258,188.544 L22.3448,188.048 L22.5638,186.947 L22.4268,186.699 L22.3228,186.66 L22.2488,186.584 L22.0948,186.551 L22.5358,185.873 L22.9068,185.952 L22.8368,186.094 L22.7818,186.369 L22.8368,186.975 L22.7818,187.553 L22.5628,188.186 L22.6448,188.517 L22.6978,188.563 L22.7268,188.682 L23.3448,189.226 L23.3838,189.343 L23.0828,190.307 L23.1918,190.665 L23.2288,190.684 L23.2738,190.831 L23.7218,191.057 L23.6288,191.244 L23.7318,191.368 L23.7108,191.409 L23.8478,191.574 L24.6648,191.042 L24.5038,191.574 L24.5588,191.822 L25.1608,192.62 L25.3248,193.005 L25.5158,194.106 L25.8168,195.29 L25.7898,195.51 L25.7898,195.703 L25.6368,195.908 L25.1888,195.757 L24.8058,195.785 L24.4228,195.923 L24.3408,195.951 L24.0678,196.116 L23.9588,196.254 L23.6308,196.667 L22.0728,197.135 L21.7998,197.603 L21.3078,197.823 L20.6518,198.319 L20.4058,198.512 L20.2418,198.787 L20.1868,199.806 L20.3778,199.998 L20.3988,199.991 L20.4598,200.053 L20.6238,199.998 L20.8968,199.613 L20.9788,199.475 L21.1698,199.337 L22.1268,199.254 L22.6738,199.364 L23.3568,199.392 L23.4938,199.392 L23.9808,199.556 L24.3408,199.805 L24.3408,199.833 L24.4228,200.026 L24.2998,200.149 L23.9028,199.86 L23.7388,199.75 L23.7168,199.754 L23.6298,199.695 L23.4658,199.723 L23.3568,200.301 L22.5368,199.916 L22.2908,199.916 L22.0998,200.054 L21.9908,200.137 L21.7998,200.66 L21.9638,200.99 L22.2368,201.183 L22.4008,201.513 L22.6468,201.788 L22.6738,201.926 L22.5978,201.964 L22.1818,201.568 L22.1258,201.563 L22.0728,201.513 L21.7718,201.49 L21.4988,201.238 L21.4488,201.238 L21.3888,201.183 L21.2248,201.183 L20.8418,201.403 L20.8108,201.391 L20.5688,200.55 L20.4668,200.52 L20.4598,200.495 L20.2688,200.44 L19.7768,201.046 L19.3098,201.046 L19.0368,201.376 L18.7908,201.459 L18.7358,201.597 L19.0638,202.148 L19.1458,202.176 L19.4468,202.313 L19.5558,202.478 L19.5558,202.919 L20.0478,203.304 L20.1568,203.91 L20.4848,204.516 L20.4848,204.654 L20.3898,204.788 L20.0468,204.489 L19.8008,204.049 L19.5818,203.856 L19.4998,203.553 L19.0628,203.278 L18.7898,202.7 L18.7078,202.645 L18.5168,202.535 L18.4508,202.535 L18.4068,202.507 L18.0518,202.507 L17.8058,202.727 L17.7508,203.581 L17.6958,203.581 L17.3408,202.893 L16.9858,202.673 L16.8768,202.673 L16.4118,202.673 L16.3028,202.563 L16.4938,202.233 L16.5758,202.123 L16.7178,202.087 L17.3408,202.453 L17.6418,202.481 L17.6538,202.472 L17.7518,202.481 L17.9708,202.316 L17.8618,202.206 L16.5218,201.628 L16.2208,201.16 L15.9478,201.022 L15.7568,200.829 L16.2218,200.141 L16.1128,199.921 L15.9488,199.893 L15.8998,199.926 L15.8668,199.92 L15.5658,200.14 L15.2068,200.389 L14.8008,200.471 L14.6638,200.499 L14.5818,200.527 L14.3358,200.582 L13.4338,200.582 L12.9688,200.747 L12.0388,200.83 L11.9788,200.883 L11.9568,200.885 L11.5538,201.243 L11.1368,201.243 L10.7538,200.913 L10.7028,200.999 L10.6988,200.996 L10.6168,201.134 L10.9178,201.657 L11.2458,202.097 L12.2298,203.391 L12.8588,204.437 L13.4328,205.648 L14.0068,207.3 L14.1708,207.796 L14.2258,208.181 L14.3348,208.952 L14.3348,210.136 L14.3348,211.127 L14.3348,211.568 L14.1438,212.256 L14.1168,212.284 L14.0348,212.504 L13.6248,213.468 L13.2418,214.046 L12.8318,214.872 L12.6948,215.285 L12.7068,215.332 L12.6948,215.368 L12.7498,215.588 L13.5158,215.753 L13.9538,215.698 L14.1178,215.615 L15.6488,214.927 L15.9768,214.899 L16.3048,215.009 L16.7428,214.789 L17.1258,214.899 L17.3988,214.376 L17.5898,214.293 L18.0268,214.376 L18.8198,214.706 L19.2298,214.623 L19.5578,214.706 L19.8308,214.458 L20.1858,214.375 L20.4048,214.21 L20.6508,214.018 L21.3338,214.046 L21.8258,213.661 L22.3728,213.413 L22.6738,213.11 L23.2208,212.256 L23.4118,212.091 L23.9588,212.008 L24.2268,211.873 L24.9158,211.953 L24.9218,211.95 L24.9438,211.953 L25.1898,211.843 L25.4358,211.568 L25.8458,210.659 L25.9008,210.521 L26.1738,210.328 L26.5568,210.053 L26.7478,209.915 L26.7748,209.887 L26.8568,209.887 L27.2668,209.859 L28.0328,209.997 L28.2238,210.08 L28.7428,210.328 L30.4648,211.815 L30.8478,212.008 L31.5038,212.338 L31.8318,212.448 L31.9138,212.476 L32.4878,212.421 L32.8708,212.201 L33.1168,211.843 L33.2258,210.962 L33.2228,210.954 L33.2248,210.934 L33.0338,210.328 L32.7328,209.915 L32.5688,209.887 L32.1858,210.19 L32.0218,210.162 L31.9398,210.162 L32.1308,209.556 L32.1858,209.556 L33.0338,209.749 L33.0938,209.676 L33.3348,210.107 L33.4998,210.129 L33.8278,211.065 L33.9648,211.313 L34.0738,211.313 L34.1288,211.038 L33.7708,210.247 L33.9058,210.27 L34.2298,211.242 L34.2518,211.283 L34.2118,211.506 L33.9388,212.057 L33.6108,212.47 L33.6108,212.608 L33.9798,212.757 L33.9668,212.774 L33.9668,212.912 L33.9878,212.921 L33.9118,212.967 L33.7478,213.05 L33.1458,213.188 L33.0368,213.353 L33.1188,213.381 L33.4538,213.523 L33.3658,213.657 L33.4478,213.685 L33.9668,213.905 L34.4998,214.32 L34.4998,214.375 L35.0858,214.733 L35.2908,214.716 L35.3568,214.743 L35.1948,214.865 L35.4958,215.03 L35.5038,215.045 L35.4138,215.113 L35.5968,215.214 L35.6318,215.278 L35.2488,215.526 L34.9758,215.554 L34.4558,215.196 L34.1258,215.174 L34.0188,214.976 L33.9348,214.976 L33.7998,214.728 L33.5538,214.728 L33.4448,214.866 L33.3358,215.196 L33.2808,215.389 L33.2808,215.417 L33.2268,215.555 L32.8758,215.378 L32.9528,215.197 L33.3358,214.839 L33.2538,214.728 L33.0878,214.645 L33.1168,214.619 L33.0348,214.509 L32.6528,214.316 L32.4068,214.371 L32.3248,214.784 L32.3038,214.787 L32.2708,214.619 L32.0248,214.344 L31.9948,214.335 L31.8058,214.124 L31.5328,214.041 L31.2048,214.068 L30.8768,214.343 L30.7678,214.591 L30.8218,215.031 L30.9308,215.252 L31.4228,216.133 L31.3408,216.381 L31.2038,216.381 L31.1768,216.353 L31.0128,216.024 L30.7118,214.813 L30.5748,214.51 L30.1368,214.097 L29.9868,213.995 L29.8908,213.904 L29.2348,213.456 L28.8798,213.05 L28.3608,212.61 L28.1968,212.169 L28.0058,211.894 L27.9178,211.929 L27.7598,211.701 L27.5138,211.811 L27.4188,211.79 L27.4868,211.564 L27.4318,211.454 L27.2468,211.441 L27.2678,211.371 L27.2138,211.261 L26.8308,211.233 L26.6118,211.316 L26.5568,211.454 L27.4318,212.665 L28.9078,214.207 L29.0998,214.427 L29.8108,215.225 L30.1938,215.666 L30.6858,216.464 L31.5338,218.529 L31.7528,219.493 L31.7528,219.548 L32.1898,221.943 L32.1898,221.971 L32.4358,223.375 L32.4628,223.981 L32.5718,225.908 L32.4628,228.193 L32.2988,229.157 L32.2168,229.542 L31.5058,232.571 L30.4398,235.985 L30.3848,236.123 L28.9088,240.088 L28.1978,241.354 L27.9248,241.602 L27.4058,241.877 L27.2418,242.125 L27.2968,242.318 L27.3518,242.346 L27.5328,242.477 L27.5428,242.512 L27.5978,242.54 L27.7888,242.678 L28.3908,242.65 L28.5398,242.717 L28.8288,243.008 L28.9238,243.049 L29.0748,243.201 L30.5648,243.848 L30.7148,243.999 L31.0428,244.687 L31.1248,245.43 L31.3168,246.173 L31.3708,247.137 L31.4528,248.293 L31.5618,248.954 L31.4528,250 L31.3428,250.881 L30.9328,252.891 L30.9058,253.607 L30.7418,254.323 L30.7688,254.543 L30.9818,254.69 L30.9878,254.736 L31.2578,254.922 L31.3708,255.093 L31.4798,255.258 L31.5898,255.891 L31.6718,255.946 L31.7748,255.889 L31.8088,256.084 L31.8448,256.108 L31.4538,256.551 L31.3988,256.771 L31.5358,257.514 L31.5088,257.707 L31.4548,258.175 L31.1538,259.056 L30.7708,261.314 L30.7708,262.168 L30.5248,263.324 L30.7158,263.875 L31.0438,264.371 L31.3168,264.922 L31.6168,265.528 L31.5078,265.913 L31.7808,266.932 L31.6718,268.336 L31.4538,269.217 L31.4808,269.768 L31.2348,271.255 L31.2178,271.681 L31.1528,271.613 L31.1528,271.696 L31.1528,271.834 L30.4148,274.725 L29.1028,277.148 L28.4738,278.332 L28.2278,278.772 L27.8998,279.157 L27.9818,279.68 L27.9268,280.396 L28.0088,280.562 L28.1728,280.506 L28.2038,280.537 L28.1998,280.588 L28.3038,280.746 L28.2818,281.194 L28.5008,281.855 L28.4738,282.269 L27.8178,284.085 L27.4628,284.828 L27.3808,285.02 L26.9158,285.626 L26.6428,285.846 L26.5338,285.846 L26.2058,285.901 L26.1238,286.066 L26.3698,286.728 L26.5338,287.388 L26.4518,288.104 L26.3148,288.572 L25.4668,290.472 L25.1938,290.968 L24.9748,291.353 L24.3188,291.987 L24.1548,292.4 L23.9638,293.584 L23.3078,294.244 L23.2258,294.519 L23.3078,294.85 L23.2258,295.043 L22.9528,295.318 L22.8438,295.676 L22.5978,296.006 L22.6798,296.116 L22.9258,296.171 L23.0318,296.232 L22.9538,296.337 L23.0358,296.447 L23.2818,296.474 L23.4728,296.612 L23.5548,296.227 L23.7458,296.144 L24.2398,296.295 L24.5388,296.612 L24.5658,297.466 L24.6748,297.659 L24.8118,297.631 L24.9038,297.215 L24.9218,297.769 L25.0308,297.962 L25.1678,297.934 L25.2498,297.437 L25.7688,297.383 L25.9058,297.163 L25.9058,296.695 L26.2338,296.42 L26.7808,296.227 L27.0538,296.007 L27.4638,295.319 L27.9558,295.126 L28.4478,295.043 L28.7488,295.098 L28.9128,294.988 L29.0768,294.658 L29.4048,294.354 L29.7878,294.135 L31.4828,293.777 L31.9478,293.97 L32.1668,293.915 L32.5768,293.557 L33.4518,293.392 L34.1898,293.007 L34.3808,292.897 L36.6778,292.759 L37.3618,293.007 L37.4988,292.979 L37.4168,292.318 L37.5538,291.85 L37.9638,291.299 L38.7298,290.859 L39.3318,290.749 L39.3048,290.667 L39.1138,290.639 L38.9768,290.611 L39.2228,290.336 L39.3318,289.812 L39.4138,289.729 L39.4608,289.682 L39.4958,289.728 L39.6648,289.813 L39.8238,290.032 L40.0008,290.121 L39.7958,290.142 L39.7408,290.28 L39.8498,290.363 L40.5608,290.363 L40.3958,290.446 L40.0948,290.473 L40.0678,290.583 L40.1768,290.666 L40.9148,290.694 L41.0788,290.694 L41.5168,291.052 L41.7628,291.08 L41.9818,290.915 L43.4578,290.998 L43.5128,290.806 L43.4578,290.448 L43.4028,290.062 L43.5268,289.812 L43.6758,291.19 L43.8128,291.355 L43.9928,291.386 L44.0048,291.494 L44.1418,291.659 L45.6178,291.907 L45.9458,292.127 L47.1758,292.567 L47.7778,292.595 L47.9688,292.595 L48.7068,292.54 L49.1438,292.43 L49.9638,291.879 L50.5108,291.769 L51.2768,291.907 L51.7858,292.122 L51.8698,292.177 L51.9758,292.25 L52.7538,292.953 L52.9028,293.015 L53.1088,293.201 L53.5738,293.394 L53.9838,293.339 L54.0928,293.284 L54.6398,293.009 L55.1048,292.954 L55.7608,292.734 L56.3078,292.844 L56.8818,292.761 L57.5648,292.513 L58.2208,292.43 L59.3418,292.65 L60.7358,293.228 L60.9818,293.338 L61.1728,293.338 L62.5948,293.999 L66.5268,296.935 L67.3798,297.77 L67.5888,297.931 L67.7348,298.074 L68.5278,298.68 L68.6378,298.57 L68.3648,298.157 L67.4348,297.139 L67.7078,297.111 L67.8988,297.001 L68.3638,297.193 L68.6638,297.138 L69.0038,296.818 L69.0198,296.862 L69.0468,296.917 L69.0738,297.027 L69.2378,297.22 L69.3748,297.22 L69.4018,297.33 L69.5658,297.495 L69.6278,297.495 L69.3278,297.548 L69.3158,297.546 L68.8828,297.219 L68.6098,297.164 L68.2268,297.219 L68.0628,297.384 L68.0358,297.577 L68.1448,297.715 L68.5098,297.82 L68.4998,297.852 L68.6088,297.97 L68.9838,298.063 L69.0168,298.096 L68.7438,298.564 L69.9738,299.197 L71.3138,299.5 L71.5018,299.448 L71.7648,299.5 L72.0648,299.428 L72.3918,299.193 L72.4998,298.981 L72.3638,298.887 L71.9798,298.836 L71.9138,298.783 L71.6018,298.735 L71.3028,298.417 L70.8678,298.205 L70.5138,297.805 L70.2418,297.758 L70.2388,297.758 L70.0558,297.516 L69.8628,297.477 L70.0828,297.378 L70.3228,297.405 L70.6138,297.654 L71.7498,298.645 L72.1328,298.645 L72.2618,298.549 L72.2148,298.644 L72.2698,298.754 L72.5978,298.699 L72.9348,298.455 L72.9828,298.449 L74.0858,297.901 L74.4998,297.618 L74.2928,297.499 L74.0858,297.523 L73.7908,297.747 L73.8008,297.737 L73.6368,297.599 L73.4728,297.627 L73.3418,297.772 L73.1678,297.874 L73.0898,297.737 L72.9528,297.854 L72.9528,297.654 L72.7608,297.481 L72.8858,297.472 L73.1808,297.314 L73.2548,297.161 L73.4998,297.048 L73.8828,296.36 L73.7898,296.22 L74.2388,296.057 L74.9468,295.934 L74.9218,295.974 L75.0038,296.222 L75.1938,296.298 L75.2498,296.47 L75.4958,296.58 L75.7968,296.525 L76.0428,296.58 L76.8908,296.084 L78.2578,295.038 L78.2578,294.542 L78.4218,294.267 L78.6678,294.184 L79.0508,294.322 L79.1888,294.295 L82.2778,292.23 L83.0428,291.542 L83.2888,291.101 L82.9318,291.149 L83.0968,290.853 L82.9498,290.872 L83.2888,290.633 L83.4528,290.33 L83.5348,290.165 L83.9178,289.972 L83.9728,290.082 L85.4738,289.145 L84.9298,289.586 L84.4108,289.834 L84.1108,290.164 L84.1928,290.329 L86.7068,288.76 L86.8988,288.65 L88.2098,287.934 L88.9758,287.631 L90.0148,287.438 L91.1358,287.383 L92.0378,287.686 L92.5298,287.769 L92.7208,287.631 L92.8308,287.438 L92.8588,287.273 L92.6948,286.915 L92.4478,286.364 L92.3928,286.144 L92.2558,285.593 L92.2288,284.382 L92.0658,284.024 L91.9158,283.897 L91.8738,283.805 L91.8738,283.804 L91.4768,283.464 L91.3818,283.253 L91.4638,282.868 L91.8738,281.932 L91.8738,281.712 L91.5458,281.188 L91.3558,280.308 L91.3278,280.143 L91.0818,279.592 L91.2188,279.041 L91.0548,277.94 L91.1928,277.5 L91.3828,277.225 L91.4648,276.674 L91.4098,275.931 L91.2738,275.463 L90.9718,274.912 L90.8598,274.808 L90.7798,274.664 L90.2208,274.15 L90.1788,274.086 L90.2348,273.894 L90.3988,273.866 L90.5348,273.756 L90.9178,273.701 L91.0278,273.453 L90.5898,272.627 L90.4528,271.443 L90.0978,270.644 L90.0978,270.617 L90.2618,269.818 L90.0978,269.35 L89.9698,269.257 L89.9058,269.074 L89.0468,268.466 L89.0048,268.359 L89.0588,267.891 L89.0588,267.809 L88.9768,267.616 L88.8398,267.572 L88.8398,267.561 L88.7578,267.368 L88.8168,267.564 L88.7578,267.368 L87.9918,267.093 L87.7188,265.826 L87.7188,265.799 L87.6638,265.496 L87.6548,265.467 L88.3208,265.441 L88.3568,265.39 L88.4558,265.386 L88.5928,265.193 L88.5378,265.11 L88.1548,264.972 L88.1988,264.838 L88.3458,264.917 L88.2908,264.834 L88.2098,264.803 L88.2628,264.642 L88.6178,264.119 L88.8638,263.981 L88.7818,263.761 L88.9458,263.1 L88.9188,262.907 L88.8918,262.742 L88.9388,262.541 L88.9468,262.55 L89.1658,262.578 L89.1968,262.51 L89.3028,262.523 L89.6038,261.862 L89.9318,261.587 L90.0958,260.926 L90.6698,260.238 L90.8338,259.853 L91.0528,258.779 L91.1078,257.678 L91.4078,256.742 L91.6268,256.082 L91.8458,255.036 L92.2008,254.485 L92.3098,253.879 L92.6298,253.532 L92.9398,253.493 L92.9968,253.451 L93.1048,253.437 L93.7868,252.943 L94.5258,252.145 L95.2368,251.402 L95.3728,251.292 L96.3028,250.576 L97.4238,249.062 L97.6158,248.401 L97.9448,248.016 L98.5178,246.887 L98.4628,246.639 L98.2438,246.336 L98.6548,245.427 L98.9268,244.849 L99.1728,243.693 L99.6118,242.784 L99.4738,242.261 L99.2828,241.6 L99.2828,241.49 L99.2828,241.132 L99.5838,240.664 L100.1748,240.416 L101.2518,240.113 L101.2608,240.101 L101.4158,240.057 L101.5258,239.919 L101.8538,239.506 L101.8758,239.497 L101.9898,239.451 L102.2628,239.506 L102.7818,240.029 L102.9728,240.057 L104.9138,239.864 L104.9718,239.816 L105.0508,239.808 L105.4878,239.45 L105.4878,239.092 L105.2968,238.679 L105.3238,238.569 L105.8988,237.743 L106.0538,237.604 L106.3078,237.604 L106.6098,237.604 L106.9638,237.715 L107.9478,238.513 L108.6588,238.788 L109.4798,238.705 L110.7908,238.292 L110.7978,238.278 L110.9278,238.237 L111.0658,237.962 L110.7098,237.164 L110.9558,236.613 L111.0108,236.31 L111.0108,236.2 L111.0108,235.952 L110.9558,235.649 L110.8738,235.319 L110.9288,235.099 L112.4048,232.648 L112.5418,232.125 L112.7608,231.353 L113.0888,229.592 L113.1158,229.454 L113.5268,227.774 L113.5528,227.664 L113.4998,227.502 L113.4728,227.392 L113.4178,227.254 L113.1168,227.199 L112.8168,227.281 L112.7598,227.322 L112.7068,227.337 L112.0988,227.777 L111.9418,227.777 L111.7218,227.777 L111.0928,227.998 L110.6008,227.915 L110.4098,227.998 L110.4098,228.006 L110.3008,228.053 L110.3008,228.383 L110.3008,228.658 L110.1368,228.851 L110.0288,228.989 L109.9728,229.016 L109.7268,229.126 L109.5078,229.208 L109.4168,229.245 L109.0978,229.291 L109.0418,229.311 L108.9888,229.319 L108.3218,229.559 L108.0318,229.346 L107.8408,229.236 L107.7568,229.278 L107.7328,229.263 L107.6228,229.318 L107.4318,229.676 L107.3958,229.73 L107.0768,229.703 L107.0218,229.703 L106.6668,229.4 L106.2838,229.069 L106.2288,228.959 L105.6268,227.692 L104.7788,226.481 L104.7518,226.343 L104.7248,226.205 L104.3698,224.388 L104.2338,224.085 L103.9878,223.728 L103.7958,223.534 L103.1128,222.873 L102.7298,222.35 L101.6638,220.45 L101.3908,220.119 L100.4888,219.1 L99.6688,218.027 L98.7938,216.898 L98.1108,215.466 L96.9068,214.695 L96.8518,214.695 L96.6298,214.695 L96.5748,214.695 L96.1358,214.72 L96.0828,214.585 L96.1928,214.364 L96.7938,213.868 L96.9858,213.07 L97.2858,212.629 L97.5868,212.189 L97.5318,211.886 L97.3288,211.988 L97.2588,211.996 L96.8748,212.177 L96.7118,212.107 L96.6568,211.859 L96.8208,211.006 L96.9298,210.483 L97.1208,210.015 L97.3118,209.575 L97.5028,208.611 L97.6128,208.336 L98.0228,207.923 L98.1308,207.675 L98.4048,207.042 L98.5688,206.657 L99.1148,205.693 L99.3338,204.812 L99.9628,203.793 L99.9078,203.545 L99.2798,203.353 L99.0878,203.297 L98.9238,203.132 L98.8978,202.939 L98.9238,201.287 L99.3618,198.286 L99.5258,197.928 L99.7718,197.68 L100.2368,197.405 L100.3188,197.351 L100.7828,197.103 L101.5218,196.69 L101.9588,196.249 L102.3968,195.423 L103.2978,195.01 L103.4068,194.955 L103.6258,194.735 L103.8448,194.295 L104.1178,193.717 L104.9928,192.863 L105.3208,192.726 L106.2788,192.726 L106.5788,192.644 L106.7978,192.34 L107.1538,191.239 L107.2358,191.102 L107.6998,190.413 L107.9728,190.248 L108.1638,190.166 L108.8748,189.918 L109.0388,189.67 L109.1488,189.202 L109.0928,188.899 L109.0758,188.866 L109.0658,188.816 L108.9008,188.523 L108.6278,187.99 L108.4908,187.743 L108.3818,187.357 L108.4908,187.082 L109.3928,186.531 L109.5298,186.338 L109.7768,185.402 L109.8028,185.292 L110.5408,184.136 L110.9508,183.668 L111.8528,182.017 L112.5648,180.694 L112.5648,180.501 L112.5648,180.31 L112.4828,180.116 L112.0168,179.62 L111.9618,179.399 L112.1808,178.573 L112.1258,178.326 L111.5248,177.445 L111.4988,177.421 L111.4968,177.418 L110.4308,176.399 L109.9658,176.041 L108.8448,175.215 L108.5718,175.16 L108.1618,175.242 L106.1388,176.206 L105.3728,176.261 L104.8258,176.151 L104.5308,175.962 L104.5048,175.934 L104.2798,175.656 L104.0888,175.271 L104.0638,175.015 L104.2248,174.197 L104.6618,173.013 L104.6588,172.992 L104.6618,172.985 L104.5798,172.353 L104.1148,171.939 L102.8578,171.691 L101.8728,171.498 L101.3548,171.307 L100.8338,171.003 L100.5608,170.673 L100.3418,170.398 L99.9878,169.655 L99.8238,168.205 L99.8778,167.342 L100.1518,166.571 L100.3418,166.076 L100.3358,166.063 L100.3418,166.048 L100.2338,165.801 L99.2488,164.811 L98.7568,164.397 L97.6098,163.406 L96.8168,162.085 L96.7068,161.947 L96.6528,161.782 L96.4598,161.259 L95.9458,159.787 L96.0498,159.525 L96.8698,158.864 L97.1158,158.589 L97.1478,158.513 L97.1978,158.452 L97.2428,158.27 L97.2798,158.178 L97.2798,158.125 L97.2798,158.122 L97.2538,156.854 L97.5538,155.947 L97.5468,155.914 L97.5538,155.893 L97.4998,155.645 L97.3358,155.479 L97.2268,155.369 L96.5978,155.012 L95.8328,154.736 L95.5598,154.599 L95.1228,154.213 L94.6308,154.241 L94.0838,153.966 L93.8108,153.691 L93.6198,153.25 L93.2378,151.626 L92.8818,151.104 L92.6098,151.158 L92.4718,151.187 L92.1168,151.104 L91.8168,151.02 L91.4878,150.772 L91.2688,150.552 L90.8858,149.588 L90.5848,149.175 L90.4758,149.01 L90.1208,148.708 L89.6838,148.487 L89.2188,148.267 L88.6998,147.771 L88.1808,146.835 L88.0438,146.45 L87.2788,144.358 L87.3018,144.163 L87.3868,144.056 L87.3768,144.051 L87.4418,143.973 L87.6868,143.835 L88.3168,143.642 L88.9168,143.697 L89.1628,143.669 L89.9018,143.586 L91.3168,143.916 L91.7878,144.026 L91.8428,144.053 L92.6358,144.356 L93.1008,144.439 L93.1828,144.411 L93.3748,144.356 L94.0578,144.411 L96.0278,144.604 L96.6008,144.659 L98.7608,143.805 L99.2798,143.612 L99.3068,143.584 L99.3628,143.584 L102.3148,143.777 L102.6688,143.805 L102.9148,143.888 L103.2158,143.998 L103.4348,144.026 L103.5058,144.037 L103.7898,144.081 L103.9268,144.109 L104.2958,144.026 L104.4188,143.998 L105.5948,143.723 L105.7858,143.751 L106.1408,143.779 L106.3608,143.862 L106.4148,143.89 L107.0988,144.165 L107.4008,144.193 L107.7828,144.165 L107.9468,144.076 L108.4398,143.808 L109.6958,143.34 L109.8598,143.23 L109.8608,143.23 L110.1328,142.762 L110.1888,142.597 L110.3518,142.101 L110.3518,142.073 L110.4888,140.806 L110.6258,140.531 L110.7898,140.229 L110.7898,140.145 L110.8178,139.98 L110.7358,139.429 L110.7898,139.126 L111.3368,137.887 L111.3918,137.529 L111.3918,137.033 L111.0088,135.959 L111.1178,135.546 L111.5008,135.161 L111.9388,134.693 L112.5118,134.61 L112.7578,134.472 L112.8398,134.417 L113.0038,134.087 L113.4498,133.849 L113.4428,133.949 L113.4548,133.847 L113.4698,133.839 L113.4968,133.51 L113.5258,133.288 L113.5158,133.288 L113.5258,133.178 L114.0168,132.848 L114.6468,131.884 L114.7828,130.37 L114.5648,129.187 L114.6468,128.773 L115.1118,128.25 L115.2758,128.057 L115.4118,127.479 L115.2198,126.653 L115.3838,125.992 L115.4398,125.854 L115.8758,124.643 L115.9038,124.23 L116.0948,123.872 L116.1768,123.624 L116.3688,123.486 L116.0408,123.101 L115.9868,123.018 L115.9038,122.88 L115.9038,122.77 L115.8488,122.55 L115.7668,122.412 L115.6848,122.329 L115.6848,122.301 L115.7118,122.136 L115.4118,121.558 L115.1658,121.365 L115.1128,121.338 L115.0028,121.229 L114.9758,120.953 L115.0028,120.815 L115.0298,120.677 L114.9698,120.677 L114.9748,120.649 L114.8108,120.649 L114.5598,120.557 L114.5368,120.511 L114.4548,120.373 L114.1818,120.153 L114.0998,120.07 L113.9628,119.877 L113.8538,119.354 L113.6088,119.024 L113.4168,118.418 L113.3938,118.404 L113.3898,118.39 L113.2528,118.307 L113.0018,118.155 L112.8698,117.784 L112.8498,117.777 L112.8428,117.756 L112.6788,117.701 L112.4878,117.756 L112.0778,117.673 L112.0508,117.673 L111.7788,117.535 L111.0398,117.37 L110.7128,117.59 L110.3018,117.15 L109.9188,116.462 L109.8368,115.966 L109.9738,115.498 L109.9468,115.223 L109.7278,114.92 L109.6188,113.984 L109.5368,113.571 L109.6738,112.938 L109.9198,112.195 L110.1388,111.617 L110.5228,111.066 L111.1778,110.708 L112.0798,110.625 L112.4348,110.322 L112.6808,109.771 L112.8448,109.716 L114.9498,109.578 L115.8518,109.385 L116.6178,109.027 L116.6178,108.972 L116.6998,108.476 L116.5908,107.733 L116.6998,107.265 L117.2468,106.742 L117.8488,106.274 L117.9868,106.191 L118.3408,105.888 L118.9968,105.558 L119.3798,105.475 L119.6258,105.31 L119.7628,103.878 L119.8448,103.685 L120.2008,103.327 L120.2278,103.052 L120.1998,103.035 L120.2008,103.025 L119.9278,102.86 L119.4908,102.75 L119.0808,102.365 L118.9048,102.289 L118.7528,102.035 L118.3428,101.347 L117.9048,100.494 L117.7688,100.247 L117.7688,100.246 L117.8508,100.081 L117.8248,100.01 L117.9058,99.668 L117.7418,99.228 L117.4418,98.485 L117.4478,98.375 L117.8238,97.466 L118.4258,96.778 L118.8908,95.649 L119.1638,95.236 L119.3828,95.126 L119.5738,94.493 L119.5968,94.276 L119.6558,94.081 L119.7108,93.558 L119.5198,93.145 L119.4108,92.815 L119.0008,92.209 L118.4268,91.769 L118.1258,91.824 L117.6778,91.515 L118.1808,90.502 L118.2368,90.419 L118.5368,89.896 L118.9738,89.125 L119.3018,88.244 L119.4658,87.721 L119.4658,87.629 L119.5748,87.28 L119.5748,86.812 L119.2748,85.766 L119.1368,84.968 L118.9178,83.371 L118.8638,82.903 L118.6448,82.16 L118.4258,82.022 L118.3998,81.747 L118.1798,81.279 L118.1248,81.196 L118.0428,80.811 L118.2068,79.957 L118.2618,78.911 L118.5628,77.727 L118.3438,76.791 L118.5078,76.158 L118.4668,76.004 L118.9998,75.911 L119.2188,75.773 L119.2188,75.718 L119.2028,75.439 L119.3278,75.36 L119.3278,75.305 L119.3008,74.837 L119.0548,73.626 L118.8908,73.406 L118.7808,73.378 L118.0708,73.158 L117.9598,72.938 L117.6318,72.663 L117.3598,72.278 L117.3038,70.819 L116.7298,69.222 L116.5388,69.002 L116.0198,68.672 L115.7748,68.176 L115.3368,67.598 L114.6258,66.717 L114.1338,65.946 L113.6418,65.478 L113.5598,65.285 L113.5598,65.12 L113.5598,64.979 L113.5498,64.916 L113.8068,64.787 L114.0448,64.707 L114.5998,64.787 L114.6268,64.787 L114.8458,64.842 L114.8728,64.842 L115.8018,65.145 L115.8228,65.143 L115.8298,65.145 L117.1418,65.007 L118.0988,64.787 L118.5908,64.512 L118.8368,64.374 L119.1108,63.961 L119.2188,63.796 L119.9038,63.135 L120.0678,62.722 L120.4498,61.813 L121.1608,60.794 L121.0998,60.409 L120.7728,59.968 L120.5528,59.775 L120.5268,59.527 L120.6568,59.263 L121.3458,58.756 L121.7558,58.481 L122.6858,57.627 L123.4788,56.636 L123.8338,55.7 L124.0528,55.397 L124.3538,54.874 L124.8988,54.162 L124.9018,54.158 L125.9128,53.112 L126.4318,52.892 L126.9238,52.809 L127.1148,52.837 L127.3878,52.975 L127.6078,53.085 L128.0718,53.195 L128.4268,53.278 L129.0298,53.25 L129.2478,53.25 L129.6028,52.947 L129.7668,52.727 L130.4508,52.121 L130.7518,52.011 L131.0528,51.928 L131.1908,51.9 L132.0658,51.57 L133.5408,50.028 L134.1148,49.615 L134.2518,49.532 L134.9898,49.202 L135.5368,48.706 L135.8098,47.852 L136.0558,47.632 L136.3288,47.109 L136.9858,46.724 L137.5038,46.228 L137.6128,46.035 L137.6098,46.014 L137.6128,46.007 L137.5978,45.952 L137.5578,45.731 L137.5578,45.703 L137.1488,44.987 L137.2568,44.436 L137.5298,44.078 L137.5568,44.05 L137.9668,43.995 L138.2828,44.093 L138.2948,44.105 L138.6508,44.601 L138.6898,44.608 L138.7048,44.629 L138.8688,44.657 L138.8958,44.657 L139.3878,44.602 L139.4438,44.574 L139.4978,44.546 L139.5528,44.518 L139.5798,44.49 L139.6888,44.407 L139.7158,44.379 L139.9068,44.104 L139.9068,44.076 L140.0158,43.663 L140.0978,43.388 L140.2618,43.058 L140.5628,42.838 L140.8638,42.425 L141.0288,41.902 L141.0288,41.874 L141.0008,41.709 L140.9738,41.268 L141.1118,40.965 L141.8218,39.396 L141.8768,39.148 L142.2598,38.763 L142.5058,38.323 L143.0798,37.883 L143.1888,37.718 L143.2708,37.057 L144.2828,36.203 L144.6118,35.68 L144.9388,34.882 L145.1028,34.827 L145.1578,34.689 L145.2948,34.359 L145.5408,34.056 L145.8418,33.836 L146.4158,33.561 L146.3628,33.262 Z" id="Stroke-7" stroke="#E75F52" stroke-linecap="round" stroke-linejoin="round"></path>
                <polygon id="Fill-9" fill="#FFFFFF" points="97.2861 211.8359 97.2591 211.7259 97.0411 211.8359"></polygon>
                <polygon id="Stroke-11" stroke="#E75F52" stroke-linecap="round" stroke-linejoin="round" points="97.2861 211.8359 97.2591 211.7259 97.0411 211.8359"></polygon>
                <polygon id="Fill-13" fill="#FFFFFF" points="91.7637 144.0801 92.5567 144.3551 91.7087 144.0521"></polygon>
                <polygon id="Stroke-15" stroke="#E75F52" stroke-linecap="round" stroke-linejoin="round" points="91.7637 144.0801 92.5567 144.3551 91.7087 144.0521"></polygon>
                <polygon id="Fill-17" fill="#FFFFFF" points="34.8672 215.085 34.9222 214.947 34.8672 214.837 34.1292 214.646 34.1292 214.755 34.5942 215.113"></polygon>
                <polygon id="Stroke-19" stroke="#E75F52" stroke-linecap="round" stroke-linejoin="round" points="34.8672 215.085 34.9222 214.947 34.8672 214.837 34.1292 214.646 34.1292 214.755 34.5942 215.113"></polygon>
                <polygon id="Fill-21" fill="#FFFFFF" points="29.2632 16.0269 29.4542 15.7239 29.4272 15.5589 28.9622 15.9999 28.9892 16.1099"></polygon>
                <polygon id="Stroke-23" stroke="#E75F52" stroke-linecap="round" stroke-linejoin="round" points="29.2632 16.0269 29.4542 15.7239 29.4272 15.5589 28.9622 15.9999 28.9892 16.1099"></polygon>
                <polygon id="Fill-25" fill="#FFFFFF" points="35.2231 84.9399 35.2231 84.9399 35.5511 84.9129 35.6881 84.8299 35.8111 84.4709 35.8921 84.4249 36.0391 84.0229 36.1251 83.9489 36.5351 83.8109 36.4931 83.7419 36.5001 83.7399 36.3601 83.5249 36.3161 83.4539 35.8521 83.5359 35.2231 84.3069 35.1411 84.7199"></polygon>
                <polygon id="Stroke-27" stroke="#E75F52" stroke-linecap="round" stroke-linejoin="round" points="35.2231 84.9399 35.2231 84.9399 35.5511 84.9129 35.6881 84.8299 35.8111 84.4709 35.8921 84.4249 36.0391 84.0229 36.1251 83.9489 36.5351 83.8109 36.4931 83.7419 36.5001 83.7399 36.3601 83.5249 36.3161 83.4539 35.8521 83.5359 35.2231 84.3069 35.1411 84.7199"></polygon>
            </g>
        </g>
    </g>
</svg>