<?xml version="1.0" encoding="utf-8"?>
<!-- Generator: Adobe Illustrator 24.1.2, SVG Export Plug-In . SVG Version: 6.00 Build 0)  -->
<!DOCTYPE svg PUBLIC "-//W3C//DTD SVG 1.1//EN" "http://www.w3.org/Graphics/SVG/1.1/DTD/svg11.dtd" [
	<!ENTITY ns_extend "http://ns.adobe.com/Extensibility/1.0/">
	<!ENTITY ns_ai "http://ns.adobe.com/AdobeIllustrator/10.0/">
	<!ENTITY ns_graphs "http://ns.adobe.com/Graphs/1.0/">
	<!ENTITY ns_vars "http://ns.adobe.com/Variables/1.0/">
	<!ENTITY ns_imrep "http://ns.adobe.com/ImageReplacement/1.0/">
	<!ENTITY ns_sfw "http://ns.adobe.com/SaveForWeb/1.0/">
	<!ENTITY ns_custom "http://ns.adobe.com/GenericCustomNamespace/1.0/">
	<!ENTITY ns_adobe_xpath "http://ns.adobe.com/XPath/1.0/">
]>
<svg version="1.1" id="Livello_1" xmlns:x="&ns_extend;" xmlns:i="&ns_ai;" xmlns:graph="&ns_graphs;"
	 xmlns="http://www.w3.org/2000/svg" xmlns:xlink="http://www.w3.org/1999/xlink" x="0px" y="0px" viewBox="0 0 146 300"
	 style="enable-background:new 0 0 146 300;" xml:space="preserve">
<style type="text/css">
	
		.st0{fill-rule:evenodd;clip-rule:evenodd;fill:#FFFFFF;stroke:#E75F52;stroke-linecap:round;stroke-linejoin:round;stroke-miterlimit:10;}
</style>
<metadata>
	<sfw  xmlns="&ns_sfw;">
		<slices></slices>
		<sliceSourceBounds  bottomLeftOrigin="true" height="301" width="145" x="1" y="-0.5"></sliceSourceBounds>
	</sfw>
</metadata>
<desc>Created with Sketch.</desc>
<g>
	<polygon class="st0" points="145.3,204.8 145.1,203.8 144.5,202.1 142.8,200.9 142,199.2 141.6,197.6 141.6,193.1 141.6,188.8 
		141.8,186.8 142.2,183.9 142.6,181.4 143.6,178.4 143.8,177.8 144.3,177.1 144.1,176.9 144.3,176.7 143.8,176.1 142.4,175.9 
		138.5,175.7 134.3,175.1 131.4,174.5 130,173.2 129.2,170.8 128.7,168.3 128.6,165.9 129,163.8 129.4,162.6 129.3,162.1 
		129.4,162.1 129.2,160.4 127.9,158.8 127.1,157.1 126.1,156.5 123.6,156.5 121.9,157.1 121.5,157.7 121.7,158 121.5,158.3 
		122.2,159.1 122.5,159.4 122.3,160 121.1,161 119,161.9 117.8,162.7 116.3,163.3 114.7,162.5 114.1,161.5 113.8,160.9 114.3,160.4 
		114.7,159.7 115.4,158.3 115.4,157.7 115.4,156 115.6,154.6 115.4,154.6 115.5,154 114.5,153.8 114.1,153.4 112.4,154.2 
		110.9,154.9 109.7,155.5 108.5,156.1 107.2,156.5 106.4,156.1 103.9,154.9 101,153.6 98.9,151.8 96.3,149.1 93.8,146 91.7,142.5 
		90.7,139 89.8,135.4 89.7,134 89.7,134 89.7,134 89.6,133.9 90.1,134.2 90.7,134.2 90.7,133.1 91.1,132.3 92.4,131.1 92.8,130.4 
		94.6,128.4 95.8,127.7 97.5,126.7 101.2,125.1 101.8,124.4 102.6,124.2 104,122.4 104.6,121.5 104.5,121.2 104.5,121.2 
		104.5,121.1 105.3,120.3 106.9,119.7 109.1,118.8 110.4,118.6 110.8,117.6 111.2,117 111.6,115.9 112.8,114.5 113.6,114.3 
		114.9,114.3 115.3,114.3 116.3,112.2 117.1,110.5 118.7,108.1 119.4,107 120,106 121,105.2 123.7,100.2 123.8,99.9 123.8,99.9 
		125.2,96.8 125.6,95.6 125.6,95 126,95 126,94.2 126.4,92.7 127.5,91.7 127.9,91.9 128,91.8 128.2,91.8 129.5,90 130.5,88.9 
		129.7,88.3 129.1,87.9 127.6,86.8 126.6,84.9 126.4,83.4 126.2,81.8 126.8,79.7 127.8,78.2 127.2,77.1 126,76.1 126,74.9 125.7,75 
		125.7,74.4 126.1,73.6 126.5,73 126.4,72.7 126.5,72.7 126.3,71.6 125.2,71.2 123.4,70.6 121.7,70.2 119.8,69.6 118.2,68.1 
		116.5,66.5 114.4,65.7 113,64.5 110.5,61.8 108.6,58.3 106.5,53.9 106.1,51.4 106.3,47.9 107.1,44.4 108.8,41.3 108.4,41.2 
		108.7,40.7 109.7,40.1 110.7,39.8 111.4,39.8 112.4,38.8 115.5,37.6 117.8,37.2 118.4,35.7 119.8,33 121.7,28.5 124,25.2 
		126.3,22.1 128.1,19.4 128.5,18.4 128.5,17.3 128.5,17.2 128.5,16.9 128.3,16.1 127.5,12.9 127.2,10.8 127,10.2 126.2,10 
		125.4,10.6 124.1,11 121.8,12.1 121,12.9 119.9,14.6 118.2,16.1 117.6,16.7 116.8,17.8 114.1,19 112.4,19.2 111.1,19 110.5,19.2 
		109.2,20.5 108.4,22.6 108.2,24.3 106.9,24.3 106.1,25.3 105.1,25.9 104.2,25.8 104.1,26.1 102.3,25.8 100.4,24.6 98.7,23.7 
		97.5,23.7 96.7,22.4 97.4,21.9 98.5,21.9 98.9,22.1 99.3,22.9 100.4,22.9 100.6,22.3 101,21.7 101.9,21.1 102.5,20.3 102.4,20.1 
		102.5,20 101.4,19 101,18.6 101.5,18.3 99.6,16.5 98.2,15.9 96.9,14.3 96.1,12.9 95.9,11.8 95.9,11.1 96.5,10.3 97,9.7 97,9.6 
		97.1,9.6 97.3,9.4 97.2,9.4 97.4,9.2 97,9.1 96.9,9.1 95.4,8.5 94.2,7.7 94.4,7.5 96,7.5 98.1,7.7 98.5,7.3 98.5,7.3 98.5,7.2 
		98.3,6.4 95.8,5.2 93.2,3.7 90.7,3.3 87.8,3.9 86.1,4.1 84.9,4.7 84.8,4.8 84.8,4.8 84.6,5 85.9,5.4 86.5,5.6 87.1,5.8 86.9,6.9 
		86.5,7.9 84.7,8.5 82.8,7.8 82,7 82.2,5.8 82.2,4.8 82.8,4.3 83,4.2 83.6,4.2 84.8,3.5 84.8,3.5 84.9,3.5 85.3,2.9 85.3,2.3 
		84.3,1 81.8,0 81.7,0 81.7,0 79.7,0.1 78.7,0.2 78.7,0.2 78.6,0.2 76.3,1 72.9,2.5 72.1,2.9 65.8,5.2 62.9,6 57.2,7.4 55.3,8.5 
		53.6,10.7 51.4,13.6 48.1,15.5 45.2,15.7 42.3,16.3 41.2,17.1 41.2,18 41.8,19 41.8,20.2 41.6,21.7 40.4,22.7 37.7,24 36.3,25.2 
		36.1,26.2 35.4,28.1 34.2,29.5 32.7,31 30.1,32 26.9,33 25.9,33.9 25.9,34.7 26.3,35.7 26.9,36 26.9,36.1 28.4,37 31.1,37.2 
		32.3,37.5 32.5,37.8 32.5,39.2 32.5,40.7 32.3,41.9 31.3,44 30.5,46.9 29.8,54.5 29,59.3 28.6,61.9 28.8,64.6 29.4,67.3 30.3,68.3 
		31.3,69.4 31.7,71 31.3,76.4 30.9,79.7 30.3,82.4 30.3,84.2 30.7,85.9 31.5,87.5 33.4,90.6 33.6,91.1 33.4,91.5 32.5,92.1 
		31.5,93.3 30.3,95.6 29.6,97.9 29.4,101.4 29,103.9 29,107.4 29.2,108 29.4,109 29.6,109.6 29.1,109.6 28.5,110 27.9,110.8 
		27.9,110.9 27.6,111.3 27.4,111.9 27.6,112.5 28,113.1 28.4,113.4 28.2,114 27.1,115.1 24.6,117.4 24,118 24,118.1 22.9,119.1 
		21.9,119.1 21.6,119.5 20.9,119.5 20.6,120.3 16.7,121.8 16.5,121.9 15.8,122.2 13.9,123.9 13.5,125.1 13.5,126.8 12.7,129.7 
		11.6,130.8 9.7,131.2 8.7,131.2 8.3,131.6 8.1,131.7 7.7,131.7 7.3,132.1 5.6,133.4 4.6,135 2.9,136.5 2.3,137.9 2.1,142.1 
		1.9,143.3 1.5,144.9 1.5,146 1.9,147.6 2.7,150.1 3.2,152.2 3.4,153.4 3.8,154.9 4.2,155.5 5.4,157.7 7.1,160.4 8.5,162.5 
		9.6,165.4 9.6,166.1 9.5,166.1 9.5,167 9.5,172.2 9.9,173.8 10.7,174.6 11.6,175.5 13.9,176.3 15.1,177.1 17.2,177.5 19.5,178.8 
		20.7,179 22.4,179.4 22.8,179.6 22.8,180.4 23.2,181 24.2,181.9 27,186 29.4,190.1 30.5,192 30.7,193.4 30.7,194.1 30.9,196.1 
		30.9,196.2 30.9,196.5 31.5,200.6 31.7,203.1 31.9,203.9 32.1,204 32.6,203.9 32.9,204 34,204.8 35.6,206.1 37.7,207.5 39.8,209.2 
		41.8,210.8 45.2,213.3 50.3,217 51.8,218.2 53.6,219.7 56.7,221.5 73.3,299.6 74.3,300 74.4,299.9 74.6,300 77.1,298.5 80.6,297.1 
		82.5,296.1 84.9,295.9 86,295.7 86.8,294.4 87,294 88.2,292.6 95.6,282.2 98.9,276.4 100.2,273.3 100.6,272.1 100.2,268.8 
		98.9,263.8 97.3,258.9 94.6,252 94.2,249.7 94.2,248.5 96.3,244.2 98.9,239.4 100.6,237.5 101.1,237.2 103.3,237 105.6,237.6 
		107.4,237.4 107.5,237.4 107.6,237.3 110.7,233.4 112.3,230.9 114.6,227.8 115,227.1 115.9,226.7 116,226.6 116.1,226.6 
		116.9,225.6 117.4,225.3 118,225.3 118.4,225.1 118.4,225 118.5,224.9 119.8,222.7 121.2,220.1 131.2,214.9 131.2,215 133.9,213.6 
		142.4,209.5 145.1,206.8 145.5,206.4 145.5,206.3 145.5,205.8 145.5,205.6 	"/>
	<polygon class="st0" points="120.3,156 120.7,155.8 121.1,154.3 123,153 124.5,151.9 125.8,150.6 126.4,150.4 127.3,149.7 
		127.5,148.9 126.9,148.2 126,147.8 125.6,147.4 123.5,146.3 122.6,145.6 120,145.4 117.1,145 116.2,145.2 114.9,146.5 114.9,147.6 
		114.7,148.2 114.5,149.5 114.5,150.8 114.7,151.7 115.4,152.8 116.6,153.2 117.7,152.8 117.9,152.1 118.8,152.3 119.2,152.5 
		119.4,153.4 119.8,154.9 119.8,155.6 	"/>
	<polygon class="st0" points="129.7,113 130.4,112.8 131.5,112.2 133.7,110.8 135.2,109.8 136.1,108.8 136.5,108.2 136.5,107.6 
		135.8,107.2 134.8,107 133.4,107.2 132.1,109.2 131,110 130.6,111.2 129.5,112.4 	"/>
</g>
</svg>
