<?xml version="1.0" encoding="UTF-8"?>
<svg width="146px" height="300px" viewBox="0 0 146 300" version="1.1" xmlns="http://www.w3.org/2000/svg" xmlns:xlink="http://www.w3.org/1999/xlink">
    <!-- Generator: Sketch 64 (93537) - https://sketch.com -->
    <title>3</title>
    <desc>Created with Sketch.</desc>
    <g id="3" stroke="none" stroke-width="1" fill="none" fill-rule="evenodd">
        <g id="Group-2-Copy" transform="translate(1.000000, 0.000000)" fill="#FFFFFF">
            <polygon id="path2194" points="56.5 7.40331492 56.5 7.91896869 56.5 9.58563536 56.5 10.8379374 56.5 11.6666667 57.5430707 12.0810313 58.5769917 12.9189687 59.8213568 12.9189687 60.0226512 13.747698 61.4774604 16.4548803 62.3009373 17.9189687 63.7465967 20 65.4027003 22.0810313 66.2353269 23.1307551 67.2692479 23.9594843 68.513613 25 69.3370899 25 70.3801607 24.1712707 72.0362642 22.7071823 72.649297 21.878453 73.6923678 21.4640884 74.1041062 20.8379374 74.1041062 20.2117864 75.3484713 19.7974217 76.7941308 19.1712707 79.0724169 18.3333333 81.1402589 17.0810313 83.0068065 16.252302 84.0407275 16.4548803 84.8642044 16.6666667 85.6968311 16.878453 86.520308 17.0810313 87.9751172 17.2928177 88.3228074 17.2744015 88.7985941 15.8379374 89.8416648 14.373849 91.9095068 10.626151 92.5316894 10 93.7669047 9.78821363 95.2217139 9.37384899 96.0634903 9.61325967 96.2556349 9.37384899 95.8438965 9.17127072 94.3890873 8.54511971 93.1538719 7.70718232 93.3551663 7.50460405 95.0112698 7.50460405 97.0791118 7.70718232 97.5 7.29281768 97.2895559 6.45488029 94.8099755 5.21178637 92.1108012 3.74769797 89.6312207 3.33333333 86.7307521 3.95948435 85.0746485 4.16206262 83.8302834 4.78821363 83.6289891 5 84.8642044 5.41436464 85.486387 5.62615101 86.1085695 5.83793738 85.9072752 6.87845304 85.486387 7.91896869 83.6289891 8.54511971 81.7624414 7.91896869 80.9389645 7.08103131 81.1402589 5.83793738 81.1402589 4.78821363 81.9728855 4.16206262 82.5950681 4.16206262 83.8302834 3.54511971 84.2511716 2.91896869 84.2511716 2.29281768 83.2081009 1.04051565 80.7285204 0 77.6176077 0.211786372 75.3484713 1.04051565 70.9931935 2.91896869 64.7896675 5.21178637 61.8891988 6.04051565"></polygon>
            <polygon id="path1315" points="25.9482756 33.0351007 29.0517234 32.0027549 31.741379 30.9704063 33.1896556 29.5251199 34.4310347 28.0798364 35.0517243 26.2216123 35.2586218 25.1892636 36.7068954 23.9504475 39.3965511 22.7116317 40.6379302 21.6792848 40.8448277 20.2339993 40.8448277 18.9951829 40.2241382 17.962836 40.2241382 17.1369585 41.2586198 16.3110811 44.155173 15.6916727 47.0517232 15.4852036 50.3620685 13.6269792 52.6379321 10.7364078 54.2931032 8.46524454 56.1551719 7.43289762 61.9482753 5.9876121 64.8448285 5.16173462 71.051724 2.89057133 75.3965508 1.03234692 77.6724145 0.206469443 80.7758622 0 83.2586204 1.03234692 84.293102 2.27116329 84.293102 2.89057133 83.87931 3.50997937 82.6379309 4.1293877 82.0172413 4.1293877 81.1896543 4.74879573 81.1896543 5.78114266 80.9827568 7.01995903 81.8103438 7.84583651 83.6724125 8.46524454 85.5344811 7.84583651 85.9482761 6.81348958 86.1551707 5.78114266 85.5344811 5.57467322 84.9137916 5.36820377 83.6724125 4.95526518 83.87931 4.74879573 85.1206891 4.1293877 86.7758602 3.92291825 89.6724134 3.30351022 92.1551716 3.71644881 94.8448273 5.16173462 97.3275855 6.4005507 97.534483 7.22642818 97.120688 7.63936706 95.0517248 7.43289762 93.3965507 7.43289762 93.1896532 7.63936706 94.4310323 8.46524454 95.8793089 9.08465258 96.2931039 9.29112203 95.4655168 10.323469 94.6379298 11.3558159 94.6379298 12.1816934 94.8448273 13.2140403 95.6724143 14.6593261 96.9137934 16.3110811 98.3620671 16.9304891 100.431033 18.9951829 101.465518 20.0275299 100.844828 20.8534073 100.017241 21.4728154 99.6034462 22.0922237 99.3965516 22.7116317 98.3620671 22.7116317 97.948275 21.8857543 97.534483 21.6792848 96.4999984 21.6792848 95.6724143 22.2986929 96.4999984 23.7439772 97.7413775 23.7439772 99.3965516 24.5698556 101.25862 25.8086716 104.362068 26.2216123 105.39655 25.6022042 106.224137 24.5698556 107.465516 24.5698556 107.672413 22.9181012 108.5 20.8534073 109.741379 19.614591 110.362069 19.4081215 111.603448 19.614591 113.258619 19.4081215 115.948275 18.1693055 116.775862 17.1369585 117.396551 16.5175505 119.051723 15.0722647 120.086207 13.4205097 120.913791 12.5946322 123.189655 11.5622853 124.431034 11.1493464 125.258621 10.5299384 126.086205 10.7364078 126.293103 11.3558159 126.5 13.4205097 127.327584 16.5175505 127.534482 17.343428 127.534482 18.3757749 127.12069 19.4081215 125.258621 22.0922237 122.982757 25.1892636 120.706897 28.4927741 118.844828 33.0351007 117.396551 35.7192032 116.775862 37.1644896 114.499998 37.5774273 111.396551 38.8162434 110.362069 39.8485891 109.741379 39.8485891 108.706895 40.0550594 107.672413 40.6744675 105.810345 44.1844483 104.982758 47.6944262 104.77586 51.204407 105.189655 53.6820392 107.258621 58.0178954 109.12069 61.5278763 111.603448 64.2119758 113.258619 65.6572622 115.534483 66.4831406 117.189654 68.1348944 118.844828 69.5801808 120.706897 70.1995888 122.362068 70.6125265 124.224137 71.2319346 125.258621 71.6448752 125.465516 72.677221 125.051724 73.296629 124.637929 74.1225073 124.637929 75.1548531 124.637929 76.3936692 125.879311 77.4260179 126.5 78.4583636 125.465516 79.90365 124.844826 81.9683444 125.051724 83.6200982 125.258621 85.0653846 126.293103 86.9236087 127.741379 87.9559545 128.362069 88.3688951 129.189653 88.9883032 128.155171 90.0206489 126.913792 91.878873 126.293103 91.6724056 125.051724 92.7047514 124.637929 94.1500378 124.637929 95.5953213 124.224137 96.8341403 122.77586 99.9311805 120.086207 104.886445 119.051723 105.712323 118.431033 106.744669 117.810344 107.777015 116.155172 110.25465 115.327585 111.906403 114.293104 113.971098 113.879309 113.971098 112.63793 113.971098 111.810343 114.177568 110.568964 115.622852 110.155171 116.6552 109.741379 117.274608 109.327584 118.306954 108.086205 118.513425 105.810345 119.3393 104.155171 119.958711 103.327586 120.784586 103.534481 121.197527 102.913791 122.023402 101.465518 123.881627 100.637931 124.088097 100.017241 124.707505 96.2931039 126.359262 94.6379298 127.391607 93.3965507 128.011015 91.534482 130.07571 91.12069 130.695118 89.8793109 131.933934 89.4655159 132.759812 89.4655159 133.792158 88.6379318 133.792158 88.8448264 135.443912 89.6724134 138.953893 90.706895 142.463871 92.7758611 145.973851 95.2586193 149.070892 97.948275 151.754994 100.017241 153.613218 102.913791 154.852034 105.39655 156.09085 106.224137 156.503791 107.465516 156.09085 108.706895 155.471442 109.948274 154.852034 111.396551 154.232626 113.051725 153.406748 113.465517 153.819688 114.499998 154.026156 114.293104 155.471442 114.293104 157.123199 114.293104 157.742607 113.672414 159.187891 113.258619 159.807299 112.63793 160.426707 113.051725 161.459055 113.672414 162.491401 115.327585 163.317279 116.775862 162.697871 118.017241 161.871993 120.086207 161.046115 121.327586 160.013769 121.534481 158.981423 121.120689 158.568482 120.499999 157.742607 120.913791 157.123199 122.568965 156.503791 125.051724 156.503791 126.086205 157.123199 126.913792 158.774953 128.155171 160.426707 128.362069 162.078463 127.948274 163.317279 127.534482 165.381974 127.741379 168.272544 128.155171 170.750176 128.982758 173.227808 130.431032 174.466627 133.327585 175.086035 137.465517 175.705443 141.396549 175.91191 142.844826 176.118381 143.258621 176.737789 142.844826 177.357197 142.637928 177.976605 141.603447 181.073645 141.189655 183.551277 140.77586 186.44185 140.568965 188.506544 140.568965 192.842401 140.568965 197.591195 140.982757 199.242951 141.810344 200.894705 143.465515 202.133521 144.086205 203.785278 144.293103 204.817624 144.5 205.643502 144.5 206.26291 144.086205 206.675848 141.396549 209.35995 132.913793 213.489339 120.086207 220.096357 118.637931 222.78046 117.396551 225.051625 116.982756 225.258092 116.362067 225.258092 115.741377 225.671033 114.913793 226.703378 113.879309 227.116316 113.465517 227.942194 111.189653 231.039235 109.534482 233.516867 106.431034 237.439785 104.568966 237.646256 102.293102 237.026848 100.017241 237.233318 99.3965516 237.646256 97.7413775 239.50448 95.0517248 244.253277 92.9827586 248.589133 92.9827586 249.827949 93.3965507 252.099114 96.0862064 258.912602 97.7413775 263.867866 98.9827566 268.823131 99.3965516 272.126641 98.9827566 273.365457 97.7413775 276.4625 94.4310323 282.243643 86.9827577 292.567115 85.7413786 294.012387 85.5344811 294.425322 84.706897 295.664155 83.6724125 295.870623 81.1896543 296.07709 79.3275856 297.109427 75.8103429 298.554728 73.3275847 300 72.2931031 299.587065 55.7413798 221.541644 52.6379321 219.68342 50.7758605 218.238133 49.3275868 216.999317 44.155173 213.282869 40.8448277 210.805237 38.7758616 209.15348 36.7068954 207.501726 34.6379322 206.05644 32.9827581 204.817624 31.9482765 203.991748 31.327587 203.785278 30.913792 203.578808 30.7068974 202.752929 30.5 200.275297 29.8793104 196.145911 29.6724129 193.048871 29.4655183 191.603585 28.4310338 189.745361 25.9482756 185.615972 23.2586199 181.486586 22.2241383 180.660707 21.8103433 180.041299 21.8103433 179.215421 21.3965513 179.008951 19.7413801 178.596013 18.500001 178.389543 16.2241374 177.150727 14.1551713 176.737789 12.9137922 175.91191 10.6379314 175.086035 9.81034441 174.260157 8.98275737 173.434278 8.56896531 171.782525 8.56896531 166.62079 8.56896531 165.381974 7.5344837 162.491401 6.08620711 160.426707 4.43103596 157.742607 3.18965393 155.471442 2.77586188 154.852034 2.36206982 153.406748 2.15517233 152.167932 1.74138027 150.10324 0.913793228 147.625605 0.5 145.973851 0.5 144.941506 0.913793228 143.289749 1.12069072 142.050933 1.32758529 137.921544 1.94827483 136.476261 3.60344892 135.030974 4.63793052 133.37922 6.29310461 132.140404 6.70689666 131.727464 7.74137827 131.727464 10.2241365 131.108056 11.6724131 129.662769 12.5000001 126.772199 12.5000001 125.120443 12.9137922 123.881627 14.7758608 122.229873 19.5344826 120.371649 19.9482747 119.54577 21.3965513 119.54577 23.2586199 117.894016 25.7413781 115.622852 27.1896547 114.177568 27.3965522 113.35169 26.9827572 113.14522 26.5689652 112.525812 26.3620677 111.906403 26.5689652 111.286995 27.1896547 110.461117 27.8103443 110.048179 28.6379313 110.048179 28.6379313 109.635242 28.4310338 109.015834 28.2241363 107.983485 28.0172418 107.364077 28.0172418 103.854099 28.4310338 101.376464 28.6379313 97.866486 29.2586209 95.5953213 30.5 93.3241594 31.5344816 92.0853434 32.3620686 91.4659353 32.5689661 91.0529976 32.3620686 90.640057 30.5 87.5430168 29.6724129 85.891263 29.2586209 84.2395063 29.2586209 82.3812822 29.8793104 79.6971797 30.2931025 76.3936692 30.7068974 71.0254672 30.2931025 69.3737104 29.2586209 68.3413647 28.4310338 67.3090189 27.8103443 64.6249165 27.6034468 61.940814 28.0172418 59.2567115 28.8448288 54.5079175 29.4655183 46.8685478 30.2931025 43.977978 31.327587 41.9132835 31.5344816 40.6744675 31.5344816 39.2291811 31.5344816 37.7838976 30.913792 37.1644896 29.4655183 36.7515489 26.7758627 36.5450815 25.3275861 35.7192032 24.913794 34.6868545 24.913794 33.8609791"></polygon>
            <polygon id="path2190" points="113.926228 146.509802 113.926228 147.588235 113.713113 148.235294 113.5 149.529412 113.5 150.823529 113.713113 151.686276 114.352457 152.764706 115.631145 153.196077 116.696721 152.764706 116.909834 152.117647 117.762294 152.333334 118.188522 152.549019 118.401638 153.411765 118.827869 154.92157 118.827869 155.568628 119.254098 156 119.680326 155.784313 120.106558 154.274511 122.024591 152.980393 123.516392 151.90196 124.79508 150.607842 125.434427 150.392158 126.286884 149.745099 126.5 148.882353 125.860656 148.235294 125.008196 147.80392 124.581967 147.372548 122.450819 146.294118 121.598359 145.647059 119.040982 145.431372 116.057377 145 115.204917 145.215684"></polygon>
            <polygon id="path2192" points="132.437499 107.200001 131.124999 109.200001 130.031251 110.000001 129.593749 111.200001 128.5 112.4 128.718751 113 129.375001 112.799999 130.468749 112.199999 132.65625 110.799999 134.1875 109.800001 135.062498 108.800002 135.5 108.199999 135.5 107.6 134.84375 107.200001 133.749998 107"></polygon>
            <polygon id="path2199" points="29.1212346 110.099669 30.9758025 110.721822 33.6708642 111.54526 35.5254321 112.579132 37.1790123 112.789566 39.042716 113 41.1074074 112.579132 45.657037 110.721822 50.8279012 108.23321 53.7148148 106.165466 55.1674074 103.887288 55.788642 102.020829 57.0219753 100.986957 57.2320988 99.7426514 58.4745679 99.1204983 61.1604938 98.2970605 63.0241975 97.0527545 63.6454321 94.1524236 63.6454321 91.883395 63.2251852 90.639089 62.402963 90.016936 61.7817284 89.6052171 61.1604938 89.3947829 60.1281481 88.983064 59.717037 87.9491921 59.717037 86.494452 60.7493827 84.6371423 62.1928395 83.8045552 62.402963 82.9811174 62.6039506 82.1485303 63.6454321 81.5263773 64.8787654 80.7029395 65.5 79.8703523 65.5 78.2143274 64.6777778 77.1804555 63.2251852 76.1465836 61.3706173 74.9022776 59.717037 73.8684057 58.885679 73.2462527 57.6432099 72.8345338 57.4422222 72.6240997 55.9896296 72.2123808 55.1674074 71.3797937 55.1674074 70.9680748 54.3360494 69.7237687 53.7148148 69.5224839 53.102716 69.5224839 51.2390123 69.1016157 49.174321 67.6560249 48.5530864 67.244306 46.4792593 66.622153 45.0358025 66.2104341 44.2135802 66 43.3822222 66 42.1397531 66 41.728642 67.0338719 40.9064198 68.488612 40.9064198 69.7237687 40.9064198 70.3459217 40.4861728 71.1785089 39.4538272 71.8006619 38.6316049 71.8006619 37.5992593 71.8006619 36.5577778 70.76679 35.9365432 70.3459217 34.4930864 70.5563558 33.6708642 70.9680748 32.8395062 71.8006619 32.6293827 72.2123808 31.3960494 72.6240997 31.0762963 72.6606969 30.7748148 76.5583025 30.3637037 79.8703523 29.7424691 82.5602492 29.7424691 84.4267082 30.1535802 86.0827331 30.9758025 87.738758 32.8395062 90.8403738 33.0496296 91.261242 32.8395062 91.6729609 32.017284 92.2951139 30.9758025 93.5394199 29.7424691 95.8084485 29.1212346 98.0866264 28.9111111 101.60911 28.5 104.097722 28.5 107.611057 28.7101235 108.23321 28.9111111 109.267082 29.1212346 109.889235"></polygon>
            <polygon id="path2204" points="103.182425 25.8197309 102.803186 27.1913303 102.174203 29.7121076 101.545221 32.2236173 100.5 35.5784753 100.5 37.2559043 100.5 39.3596413 100.5 40.4068759 101.332477 40.8239163 103.219424 40.8239163 107.196814 41 107.400308 40.6200299 108.454779 39.9898356 109.5 39.7766816 110.128983 39.7766816 111.174203 38.7294469 114.309866 37.4690583 116.613052 37.0520179 117.242035 35.5784753 118.703494 32.8538117 120.590442 28.2478326 122.893628 24.883707 125.196814 21.742003 127.074512 19.0173393 127.5 17.9701046 127.5 16.92287 127.287256 16.0795217 126.454779 12.9378176 126.242035 10.8340807 126.029291 10.213154 125.196814 10 124.355087 10.6301943 123.106372 11.0472347 120.803186 12.0944694 119.961459 12.9378176 118.916238 14.6152466 117.242035 16.0795217 116.613052 16.709716 115.780576 17.7569507 113.051901 19.0173393 111.377698 19.2304933 110.128983 19.0173393 109.5 19.2304933 108.242035 20.4816143 107.400308 22.5853513 107.196814 24.2627803 105.938849 24.2627803 105.106372 25.3100149 104.051901 25.9402093"></polygon>
            <polygon id="path2229" points="86.0635575 180.005139 85.9906725 180.48033 85.781128 181.101734 86.2002169 181.723137 87.8492408 183.166987 88.2592191 184.610836 87.6396963 186.264866 86.8106291 189.161703 85.9906725 192.890124 86.6101952 195.3666 87.6396963 196.810449 88.4596529 198.053256 86.8106291 197.642033 85.781128 197.431853 83.9316703 195.777823 81.6631236 193.301347 79.8045553 191.647317 78.1555315 191.437136 76.5065076 192.05854 74.8574837 192.890124 73.2084599 194.544154 71.3498915 194.955377 68.8809111 195.777823 63.5238612 197.02063 60.2258134 197.642033 56.0986985 197.642033 48.8830803 199.085883 37.5494577 201.982719 31.5 203.499675 31.7733189 203.636749 32.3928416 203.84693 33.4223427 204.669376 35.0713666 205.912183 37.1303688 207.356032 39.1984816 209.0192 41.2574837 210.67323 44.5555315 213.149706 49.7121475 216.868989 51.1516269 218.111796 53.0101952 219.564784 56.0986985 221.419856 72.5889371 299.579639 73.6184382 300 76.0965293 298.546998 79.6041215 297.103148 81.4535792 296.070537 83.9316703 295.860341 84.9611714 295.650175 85.781128 294.416492 85.9906725 293.996131 87.229718 292.552282 94.6457701 282.216879 97.9438178 276.423205 99.1828633 273.325326 99.5928416 272.082519 99.1828633 268.774459 97.9438178 263.812369 96.2947939 258.850279 93.616269 252.023979 93.2062907 249.748545 93.2062907 248.505738 95.2652928 244.165052 97.9438178 239.413143 99.5928416 237.548932 100.212364 237.137709 102.480911 236.927529 104.749458 237.548932 106.608026 237.338752 109.696529 233.418427 111.345553 230.932813 113.6141 227.834933 114.024078 227.003349 115.053579 226.592126 115.882646 225.5595 116.502169 225.139139 117.121692 225.139139 117.53167 224.938096 118.770716 222.662663 120.210195 219.976007 130.213666 214.794598 130.514317 213.98129 131.962907 211.705857 134.021909 208.598839 135.670933 205.912183 136.5 204.468334 136.5 203.84693 132.992408 201.160274 130.514317 199.296063 128.254881 196.810449 127.635358 195.988003 127.635358 194.123793 127.635358 188.75048 127.015835 186.063824 125.77679 183.377167 125.366811 181.512957 123.717787 180.27015 121.039262 179.036481 117.741215 177.382451 115.263124 176.550867 114.443167 175.107018 112.794143 173.452988 111.345553 172.411223 108.667028 172 106.188937 172.831584 102.890889 174.275433 100.011931 175.51824 96.9143167 176.139644 93.616269 176.96209 91.7668113 179.237523 89.6986985 179.858927"></polygon>
            <polygon id="path2224" points="85.9382663 180.555177 89.5789849 180.410412 91.6502709 179.795165 93.5025663 177.542272 96.8056744 176.727974 99.9080411 176.112726 102.791417 174.882231 106.094525 173.452685 108.576419 172.629338 111.259053 173.036488 112.709866 174.067932 114.36142 175.705577 115.182635 177.135123 117.664528 177.958469 120.967636 179.596114 123.650271 180.817562 125.301825 182.048057 125.712432 183.8938 126.953379 186.553842 127.573852 189.213883 127.573852 194.533966 127.573852 196.379709 128.194326 197.194008 130.457228 199.654999 132.939122 201.500742 136.452096 204.160783 136.452096 204.776031 135.621756 206.205577 133.970202 208.865619 131.908041 211.941857 130.457228 214.194749 130.156116 215 132.939122 213.579502 141.406758 209.480866 144.089393 206.820825 144.5 206.413675 144.5 205.798428 144.299259 204.975082 144.089393 203.952685 143.468919 202.31504 141.817365 201.084545 140.987026 199.4469 140.576419 197.809255 140.576419 193.10442 140.576419 188.806734 140.786285 186.752892 141.196892 183.8938 141.607499 181.432809 142.647705 178.365619 142.848446 177.750371 143.259053 177.135123 142.848446 176.519875 141.406758 176.311777 137.483177 176.112726 133.349729 175.497478 130.457228 174.882231 129.01554 173.651735 128.194326 171.199792 127.774594 168.738802 127.573852 165.870662 127.98446 163.825868 128.395067 162.595372 128.194326 160.957728 126.953379 159.320083 126.12304 157.682438 125.091959 157.076239 122.61919 157.076239 120.967636 157.682438 120.547904 158.297686 121.168378 159.121032 121.588109 159.528182 121.378244 160.550578 120.137297 161.572975 118.075135 162.396322 116.834189 163.21062 115.392501 163.825868 113.740947 163.011569 113.120473 161.989172 112.709866 160.957728 113.321215 160.351528 113.740947 159.73628 114.36142 158.297686 114.36142 157.682438 114.36142 156.044794 114.562161 154.615248 113.531081 154.407149 113.120473 154 111.468919 154.823346 110.018107 155.429546 108.786285 156.044794 107.545338 156.660042 106.304391 157.076239 105.483177 156.660042 104.880952 156.361465 103.831622 157.275289 101.970202 160.143429 99.9080411 163.626817 98.256487 165.264462 96.185201 166.07876 95.1541203 166.485909 93.9131737 167.716405 91.8510123 169.562148 90.6100656 170.376446 88.5479042 170.991694 85.6554035 171.199792 82.3522954 171.81504 80.5 172.041234 80.5 172.430288 80.7007414 172.837437 81.9416881 173.859834 84.8341888 174.882231 86.0751354 175.28938 86.4857428 176.112726 86.6864842 176.727974 86.0751354 179.596114"></polygon>
            <polygon id="path2219" points="80.3190045 172 82.1561086 171.770642 85.4321267 171.146789 88.300905 170.93578 90.3461538 170.311927 91.5769231 169.486239 93.6221719 167.614679 94.8529412 166.366972 95.8755656 165.954128 97.9298643 165.12844 99.5678733 163.46789 101.613122 159.93578 103.459276 157.027523 104.5 156.100917 102.635747 155.155963 99.7669683 153.917431 97.7217195 152.045872 95.061086 149.348624 92.5995475 146.238532 90.5542986 142.706422 89.5316742 139.174312 88.7081448 135.651376 88.5090498 133.990826 88.6628959 133.990826 88.0927602 133.568807 87.6855204 133.568807 87.2782805 134.192661 86.2556561 134.816514 85.4321267 134.192661 84.6176471 133.366972 83.3868778 132.321101 82.1561086 132.119266 80.9343891 132.321101 79.9027149 131.908257 79.0882353 131.284404 78.2647059 130.247706 77.6493213 129 76.6266968 129 75.1968326 129.623853 72.5361991 131.284404 70.4909502 132.119266 67.6221719 131.908257 66.1832579 131.284404 65.1606335 131.908257 63.7307692 132.743119 63.5226244 132.743119 63.7307692 133.779817 63.9298643 134.192661 63.9298643 135.440367 63.5226244 137.724771 62.9072398 140.009174 62.5 140.834862 63.5226244 144.779817 63.7307692 146.853211 65.3687783 150.174312 67.2058824 153.082569 68.4366516 154.119266 70.89819 155.366972 72.9434389 157.027523 73.9660633 158.688073 74.581448 159.100917 74.1742081 159.724771 73.7669683 160.761468 73.3506787 161.807339 72.9434389 162.844037 73.1515837 163.46789 76.8348416 168.238532 79.9027149 171.348624 80.3190045 171.559633"></polygon>
            <polygon id="path2214" points="31.0829411 204 37.1809781 202.487229 48.6056136 199.598383 55.8791758 198.158516 60.0394329 198.158516 63.3639651 197.538827 68.764034 196.299448 71.2528412 195.479271 73.1263345 195.069182 74.7886006 193.419715 76.4508667 192.590425 78.1131328 191.970735 79.7753989 192.180336 81.6488922 193.829804 83.9356561 196.299448 85.7999656 197.948915 86.8377339 198.158516 88.5 198.568605 87.6734588 197.329226 86.6356905 195.88936 86.0111927 193.419715 86.8377339 189.701579 87.6734588 186.812733 88.2979566 185.163265 87.884686 183.723399 86.2224199 182.283532 85.7999656 181.663843 86.0111927 181.044154 86.2224199 179.604287 86.8377339 176.715441 86.6356905 176.095752 86.2224199 175.266461 84.9734244 174.856373 82.0621628 173.826595 80.8131673 172.796817 80.6111239 172.386728 80.6111239 171.557438 80.1886695 171.347837 77.0753645 168.258503 73.3375617 163.519702 73.1263345 162.900013 73.5396051 161.870235 73.9620595 160.831344 74.37533 159.801566 74.7886006 159.181877 74.1641029 158.771788 73.1263345 157.122321 71.0507978 155.472853 68.5528068 154.233475 67.3038113 153.203697 65.4395018 150.31485 63.7772357 147.015916 63.5660085 144.95636 62.5282402 141.037736 62.9415107 140.217559 63.5660085 137.948402 63.9792791 135.679245 63.9792791 134.439867 63.7772357 134.029778 63.5660085 133 62.1149696 133 60.6547469 133.820177 56.9169441 133.820177 55.4659052 134.439867 54.8414074 135.469644 54.0056825 137.119112 52.5546436 137.538313 52.141373 136.918624 50.4791069 136.918624 49.0188842 137.119112 46.5300769 137.538313 45.0698542 137.538313 43.4075881 137.948402 41.6994031 137.638557 41.745322 137.948402 41.745322 139.187781 40.9187809 140.217559 40.2942831 141.867026 38.8432442 143.516493 37.5942487 145.366448 35.9319826 146.405339 34.4717598 147.435117 33.4339915 148.874984 31.569682 150.114363 30.1094593 151.353741 28.0339226 152.383519 26.5828837 153.613785 26.1604293 153.613785 25.5359316 155.062765 24.7093904 155.472853 23.6716221 156.502631 22.8358971 156.712232 21.7981288 157.951611 20.5491333 159.181877 19.5113649 159.601078 19.3093215 160.011167 18.8868672 160.011167 17.8490988 160.630856 17.2246011 161.660634 16.6001033 162.280323 16.1868327 162.690412 14.1112961 163.72019 12.0357594 164.959569 10.7867639 165.579258 8.5 166.080477 8.5 167.019125 8.5 172.177127 8.91327058 173.826595 9.74899552 174.646772 10.5755367 175.476062 12.8623005 176.296239 14.1112961 177.125529 16.1868327 177.535618 18.4735966 178.774997 19.7225921 178.984598 21.3848582 179.394686 21.7981288 179.604287 21.7981288 180.424464 22.2113994 181.044154 23.2491677 181.864331 25.9583859 185.992556 28.4471932 190.12078 29.4849615 191.970735 29.6961887 193.419715 29.9074159 196.509049 30.5227299 200.637274 30.7339571 203.106918 30.9451842 203.936208"></polygon>
            <polygon id="path2209" points="9.53975128 165 11.8069065 164.500676 13.0451921 163.88333 15.1029314 162.648638 17.1606707 161.622754 17.5703975 161.214217 18.1895403 160.596871 18.8086831 159.570987 19.8375527 158.953641 20.2563846 158.953641 20.4566955 158.545103 21.4855652 158.127487 22.7238508 156.901874 23.7527204 155.667182 24.5812791 155.458374 25.6101488 154.43249 26.4296025 154.023952 27.0487453 152.580452 27.4675772 152.580452 28.9061737 151.354839 30.9639129 150.328955 32.4116145 149.094263 34.2599378 147.859571 35.2888075 146.42515 36.736509 145.399266 38.3845214 144.364304 39.622807 142.521344 41.0614035 140.878115 41.6805463 139.234885 42.5 138.209001 42.5 136.974309 42.4544748 136.665636 41.8808572 136.565772 36.527093 136.356963 34.6696647 136.765501 32.8213413 136.974309 31.3736398 136.356963 30.763602 134.096388 29.7256274 132.861696 27.877304 132.661966 26.6390184 132.04462 24.7815901 130.809929 22.104708 128.549353 21.0758383 127.732277 20.0469687 127.523469 20.4566955 126.697315 20.8664224 125.88024 22.104708 124.645548 23.3429936 124.445818 23.5524095 123.211126 23.5524095 122.384972 23.5524095 120.542013 23.5524095 118.689975 23.5524095 118 22.3141239 119.098513 20.8664224 119.098513 20.4566955 119.924667 15.7220742 121.767626 13.8646458 123.410856 13.4549189 124.645548 13.4549189 126.288777 12.6263602 129.166699 11.1877637 130.60112 8.71119254 131.218466 7.6823229 131.218466 7.27259605 131.627004 5.62458361 132.861696 4.59571397 134.504926 2.94770153 135.948426 2.32855874 137.382847 2.11914279 141.495461 1.91883189 142.721074 1.5 144.364304 1.5 145.399266 1.91883189 147.042496 2.73828559 149.502801 3.14801244 151.554568 3.35742838 152.78926 3.76715523 154.223682 4.18598712 154.841028 5.41516767 157.101603 7.0631801 159.770717 8.51088163 161.831563 9.53975128 164.700406"></polygon>
            <polygon id="path2234" points="73.2912956 130.10475 73.2912956 127.308393 73.5 125.869226 73.2912956 125.040338 72.0662914 124.011061 68.7814653 121.952505 66.5220131 120.09434 64.6708956 118.864671 63.8451521 117.826285 63.237187 115.567339 62.8197782 114.738452 62.8197782 113.709174 62.4114435 113.089785 61.3860696 112.270007 58.1012435 111.441119 54.4080827 111.03123 51.1232566 110.202342 48.8638044 109.792453 48.0380608 109.582954 47.4573181 109 45.3702739 110.001952 40.8513695 111.851008 38.8006217 112.270007 36.9495043 112.060507 35.3070912 111.851008 33.4650479 110.821731 30.7881869 110.001952 28.9461435 109.382563 28.9461435 109.582954 28.1203999 109.582954 27.5033608 110.001952 26.8953957 110.821731 26.6866913 111.441119 26.8953957 112.060507 27.3037305 112.679896 27.7120652 112.880286 27.5033608 113.709174 26.0696522 115.148341 23.6014955 117.416396 22.9935305 117.962915 22.9935305 118.655172 22.9935305 120.513338 22.9935305 122.362394 22.9935305 123.191282 22.7848261 124.430059 21.5507478 124.630449 20.3166695 125.869226 19.9083347 126.689005 19.5 127.517892 20.5253739 127.727391 21.5507478 128.54717 24.2185347 130.815224 26.0696522 132.054001 27.3037305 132.67339 29.1457738 132.87378 30.1802218 134.112557 30.7881869 136.380612 32.2309696 137 34.0730129 136.790501 35.9241304 136.380612 41.2597043 136.590111 43.5191564 137 45.1615695 136.590111 46.6043522 136.590111 49.0634347 136.171113 50.5062174 135.970722 52.1486305 135.970722 52.5569652 136.590111 53.9906738 136.171113 54.8164174 134.522446 55.4334566 133.493169 56.8671652 132.87378 60.560326 132.87378 62.0031087 132.054001 63.6455218 132.054001 65.0792304 131.225114 66.1046043 130.605725 67.547387 131.225114 70.4238783 131.434613 72.4746261 130.605725"></polygon>
            <polygon id="path2239" points="124.5 95.2181963 122.863801 95.2181963 120.820812 93.5606211 118.976697 92.5166235 117.548413 90.8590484 115.704299 90.0348397 114.0681 89.8242086 111.609281 89 109.973082 89.4121043 109.774207 90.8590484 108.951587 91.903046 106.700683 93.34999 103.844114 94.3848298 102.81358 95.0075652 102 94.3848298 99.9570108 93.5606211 98.1128967 92.9378857 96.6846123 92.9378857 95.4552029 93.1393589 93.6110888 94.7969341 90.9533949 98.1120844 88.4945761 103.295441 84.6165127 109.71511 82.9803134 114.074258 83.1791884 115.521202 84.200683 116.354569 87.2742065 116.556042 89.1092808 117.178778 90.3386902 118.213617 91.1613098 119.046984 91.3601848 119.871193 91.3601848 120.704559 89.7239855 122.151503 87.4730816 123.186343 86.2527119 123.186343 85.0233025 123.809078 83.1791884 124.843918 80.3135798 126.30002 79.5 127.746964 79.5 128.369699 80.1147047 129.193908 80.5214946 129.61517 80.5214946 130.027275 80.5214946 130.851483 80.1960627 132.005375 80.3135798 132.096954 81.3441141 132.509058 82.5644837 132.307585 83.7938931 132.509058 85.0233025 133.553056 85.8368823 134.377265 86.6595018 135 87.6809964 134.377265 88.0877863 133.754529 88.4945761 133.754529 89.064082 134.175791 89.7239855 134.175791 89.7239855 133.131794 90.1398152 132.307585 91.3601848 131.062114 91.7760145 130.439379 93.6110888 128.369699 94.8404982 127.746964 96.4766975 126.712124 100.155886 125.054549 100.770591 124.431814 101.59321 124.221183 103.021495 122.362134 103.636199 121.528768 103.428284 121.116663 104.250904 120.283297 105.887103 119.669719 108.138007 118.836353 109.358377 118.625722 109.774207 117.590882 110.180996 116.968147 110.587786 115.933307 111.817196 114.486363 112.639815 114.275732 113.860185 114.275732 114.276014 114.275732 115.297509 112.206052 116.111089 110.548477 117.747288 108.057535 118.361993 107.022696 118.976697 105.987856 119.998192 105.163647 122.655886 100.190922 124.09321 97.0772447 124.5 95.8317738"></polygon>
            <polygon id="path2244" points="124.965453 74.9094123 123.317354 75.4661953 120.430905 76.7282369 118.992234 78.4078657 117.753883 79.6699072 116.925281 79.2430402 115.277183 78.8254529 113.428763 78.4078657 111.370916 77.5634114 109.103642 76.9416703 107.655865 76.5148034 106.007766 76.3106496 104.359668 76.0972161 103.121318 76.0972161 101.272898 74.8351745 100.243974 74 99.2059454 74 98.7961971 74.6310208 97.9767006 75.048608 96.7383503 77.5634114 96.1191751 80.5050817 95.5 83.8643394 95.5 85.9708352 96.5289234 88.0680513 96.9477772 89.7476801 97.5578468 91.4273089 96.9477772 91.8448962 96.5380289 92.7543084 96.9477772 92.6893504 98.3864488 92.6893504 100.243974 93.3203712 102.301821 94.1555457 103.121318 94.7865665 104.159347 94.1555457 107.03669 93.1069377 109.303964 91.6407424 110.132566 90.5828546 110.332887 89.1166593 111.980986 88.699072 114.457686 89.5342466 116.105785 89.7476801 117.96331 90.5828546 119.401982 92.2624834 121.259507 93.3203712 123.317354 95 124.965453 95 124.965453 94.1555457 125.375201 92.6893504 126.613551 91.6407424 127.232726 91.8448962 128.471077 89.9518338 129.5 88.9032258 128.671398 88.272205 128.052223 87.8546178 126.613551 86.8060097 125.584628 84.9129474 125.375201 83.4467521 125.174879 81.7671233 125.784949 79.6699072 126.822978 78.1944322 126.203803 77.1458241 124.965453 76.0972161"></polygon>
            <path d="M113.123853,66 C113.108708,66.0427251 113.113737,66.1123956 113.09633,66.1512071 C112.999021,66.3681911 112.868276,66.527197 112.738532,66.6404066 C112.479044,66.8668259 112.215593,66.9161372 112.215596,66.9161372 L111.178899,67.9212198 L111.178899,68.321474 L111.178899,69.1308767 L111.178899,69.5311309 L111.591743,70.5362135 L111.389908,71.5412961 L110.353211,72.750953 L108.894495,74.5654384 L106.5,76.8869123 L107.233945,76.9758577 L108.692661,77.3850064 L110.977064,77.9809403 L113.050459,78.7903431 L114.912844,79.1905972 L116.573394,79.5908513 L117.408257,80 L118.655963,78.7903431 L120.105505,77.180432 L123.013761,75.9707751 L124.674312,75.4371029 L124.674312,75.3659466 L124.674312,74.360864 L125.087156,73.5603558 L125.5,72.9555273 L125.298165,71.9504447 L124.261468,71.5412961 L122.389908,70.9453621 L120.729358,70.5362135 L118.857798,69.931385 L117.197248,68.5260483 L115.536697,66.9161372 L113.252294,66.1067344 L113.123853,66 Z" id="path2249"></path>
            <polygon id="path2259" points="95.8509834 51 95.7420575 51.0912374 95.1248109 51.3010834 93.4818457 51.9123741 92.8645991 52.3320661 92.0476551 53.7736172 91.2216339 55.2151682 91.0219365 56.0454286 90.1959153 56.0454286 89.3789713 55.8355826 88.7617247 55.2151682 87.3184569 54.3940316 86.0930408 53.7736172 84.8585477 53.3630489 83.832829 53.3630489 81.7723147 53.9834632 80.5468986 53.9834632 79.52118 53.9834632 78.4863843 54.8045999 77.0521936 56.0454286 73.9750378 57.2862574 71.9145234 59.5580688 70.8888048 61.2094659 70.8888048 62.4411709 70.8888048 65.1326744 71.2972769 66.1636571 71.9145234 66.9847938 72.3320726 66.9847938 72.3320726 67.3953621 71.9145234 67.6052081 71.2972769 67.8150542 70.4803328 68.2256225 69.2458396 69.2566052 67.6028744 69.2566052 66.3683812 69.2566052 65.3426626 68.8460369 64.725416 68.8460369 63.6996974 69.0467592 63.5 69.0467592 63.6996974 69.8770196 64.1081694 70.2875879 64.725416 70.70728 65.1429652 71.1178483 65.5514372 71.7382627 66.1686838 72.5593994 67.1944024 73.1798137 68.220121 75.2417791 70.2715582 78.343851 71.0975794 79.3748337 71.0975794 81.2360768 70.8888048 83.2980422 70.8888048 84.1191789 71.9145234 85.1501616 73.5574887 86.8015586 75.618003 88.6628017 79.52118 90.7247672 83.4152799 92.3761642 86.7012103 92.9965786 87.5272315 92.7958563 88.7617247 92.7958563 88.7617247 93.826839 88.9614221 94.4472534 89.3789713 95.4782361 89.9962179 97.1296331 89.9962179 98.3704619 90.3139183 99 90.8131619 97.9507698 93.4818457 94.6479757 95.3335855 92.9965786 96.1596067 92.8597225 96.5680787 91.9655959 97.1762481 91.5550276 96.5680787 89.9036305 96.1505295 88.2522334 95.1248109 86.190268 95.1248109 84.1191789 95.7420575 80.8163847 96.3593041 77.9241589 97.5937973 75.4516252 98.4107413 75.0410568 98.8192133 74.4206425 99.5 74.4206425 99.4364599 74.2107964 98.4107413 72.148831 96.9765507 69.2566052 95.9508321 66.9847938 95.1248109 66.1636571 95.1248109 65.5432427 95.1248109 64.9228284 94.5075643 64.092568 94.3078669 63.6819996 94.9251135 63.0615852 95.9508321 61.8298803 96.7677761 60.1784832 97.3850227 59.1383767 97.7934947 57.2862574 97.3850227 56.0454286 97.1762481 55.6348603 97.1762481 55.0144459 97.1762481 54.6038776 96.7677761 54.3940316 95.7420575 54.3940316 95.1248109 53.9834632 94.5075643 53.7736172 94.5075643 53.3630489 94.9251135 52.7426345 95.5332829 51.7116518"></polygon>
            <path d="M96.0626512,51.1341463 L95.7409289,51.847561 L95.1250605,52.8810976 L94.7022254,53.5030488 L94.7022254,53.9146341 L95.3272859,54.125 L95.9523464,54.5365854 L96.9910498,54.5365854 L97.4046928,54.7469512 L97.4046928,55.1585366 L97.4046928,55.7804878 L97.6161103,56.1920732 L98.0297533,57.4359756 L97.6161103,59.2926829 L96.9910498,60.3353659 L96.1637639,61.9908537 L95.1250605,63.2256098 L94.5,63.847561 L94.7022254,64.2591463 L95.3272859,65.0914634 L95.3272859,65.7134146 L95.3272859,66.3353659 L96.1637639,67.1585366 L97.2024673,69.4359756 L98.6548137,72.3353659 L99.6935172,74.402439 L99.7578616,74.6128049 L100.116352,74.6128049 L101.155056,75.4359756 L103.021045,76.679878 L104.271166,76.679878 L105.93493,76.8902439 L106.863328,77 L109.262458,74.6128049 L110.723996,72.7469512 L111.7627,71.5030488 L111.964925,70.4695122 L111.551282,69.4359756 L111.551282,69.0243902 L111.551282,68.1920732 L111.551282,67.7804878 L112.589985,66.7469512 C112.589983,66.7469512 112.853943,66.6962439 113.113933,66.4634146 C113.243928,66.347 113.374926,66.1834927 113.472424,65.9603659 C113.489864,65.9204556 113.484825,65.8488127 113.5,65.804878 L111.964925,64.4695122 L109.473875,61.7804878 L107.598694,58.2591463 L105.521287,53.9146341 L105.107644,51.4359756 L105.309869,47.9146341 L106.146347,44.3932927 L107.810111,41.2560976 L103.857523,41.0823171 L101.982342,41.0823171 L101.816884,41 L101.982342,41.4939024 L102.193759,42.3262195 L102.405177,43.570122 L102.193759,45.2256098 L101.780116,46.0487805 L101.357281,46.8810976 L99.6935172,48.3262195 L98.8662313,48.7378049 L97.2024673,50.1920732 L96.0626512,51.1341463 Z" id="path2254"></path>
            <polygon id="path2264" points="70.3858752 78.3034224 67.8246401 78 66.9892552 78 66.1630503 78.6252341 65.3276653 79.232079 65.3276653 79.6642261 64.7034217 80.5009365 63.4641143 81.3284522 62.4175881 81.9536864 62.215627 82.7903967 62.0044857 83.6179125 60.5540371 84.4546229 59.516691 86.3211306 59.516691 87.7830751 59.9297934 88.8220671 60.9671396 89.235825 61.5913833 89.4473012 62.215627 89.8610591 63.0418318 90.4862932 63.4641143 91.7367615 63.4641143 94.0170271 62.8398706 96.9317214 60.9671396 98.1821897 58.2682036 99.0097054 57.0197163 99.6349396 56.808575 100.885408 55.5692677 101.9244 54.945024 103.800102 53.4853954 106.089562 50.5844982 108.167546 47.5 109.657075 48.0875235 110.24553 48.9229084 110.457007 51.2087419 110.870765 54.5319216 111.707475 58.2682036 112.121233 61.5913833 112.957943 62.6287294 113.785459 63.0418318 114.410693 63.0418318 115.449685 63.4641143 116.286395 64.079178 118.566661 64.9145629 119.614848 66.787294 120.856121 69.0731275 122.731824 72.3963071 124.809808 73.6356144 125.8488 73.8467557 126.68551 73.6356144 128.13826 73.6356144 130.961008 75.5083455 129.802486 76.9587941 129.177252 77.9961402 129.177252 78.6203839 130.42772 79.4557688 131.466712 80.162633 132 80.493115 130.841478 80.493115 130.013962 80.493115 129.600204 80.0800125 129.177252 79.4557688 128.349736 79.4557688 127.724502 80.2819737 126.271752 83.1920509 124.809808 85.064782 123.770816 86.3132694 123.145581 87.5525767 123.145581 89.8384102 122.106589 91.5 120.65384 91.5 119.817129 91.2980388 118.989613 90.4626539 118.152903 89.2141665 117.113911 87.3506155 116.488677 84.229397 116.286395 83.1920509 115.449685 82.9900897 113.996935 84.6516795 109.620296 88.5899228 103.174868 90.5819946 99.0280947 90.2606927 98.3936659 90.2606927 97.1431977 89.636449 95.4789716 89.2141665 94.4399796 89.0122053 93.8147454 89.0122053 92.7757534 87.7637179 92.7757534 86.928333 92.9780351 83.6051533 92.352801 79.6669101 90.6885748 75.7194868 88.6105908 73.6356144 86.7348885 71.9740246 85.0706624 70.9366785 84.0316704 70.9366785 83.2041546 71.1478197 81.1261706 71.1478197 79.2504682"></polygon>
            <polygon id="path2274" points="53.6429444 69.1859756 53.9544899 69.2865854 54.7883323 70.5304878 54.7883323 70.9420732 55.6130116 71.7743902 57.069945 72.1859756 57.2715333 72.3963415 58.5177153 72.8079268 59.3515577 73.429878 61.0100794 74.4634146 62.8701894 75.7073171 64.3271228 76.7408537 65.1518021 77.7743902 65.1518021 79 65.9856445 78.3963415 66.8103238 77.7743902 67.6441662 77.7743902 70.200672 78.0762195 70.1273671 77.9847561 68.0565058 74.875 67.0210751 72.8079268 65.9856445 72.1859756 65.3625535 71.3628049 64.9502138 70.7408537 64.5287111 70.3292683 63.90562 69.9085366 63.4932804 69.4969512 63.2916921 68.6646341 63.4932804 68.6646341 64.5287111 68.4634146 65.1518021 68.4634146 66.1872327 68.875 67.4334148 68.875 69.0919365 68.875 70.3381185 67.8414634 71.1627978 67.429878 71.7858888 67.2195122 72.2073916 67.0091463 72.2073916 66.597561 71.7858888 66.597561 71.1627978 65.7743902 70.7504582 64.7408537 70.7504582 62.0426829 70.7504582 60.8079268 71.7858888 59.152439 73.8659133 56.875 76.9722053 55.6310976 78.4199756 54.3871951 79.4645693 53.5640244 79.6020159 53.5640244 80.0784973 52.5304878 80.5 51.9085366 80.5 50.6646341 80.5 49.6310976 79.876909 49.0091463 79.0430666 49.0091463 77.7968845 48.1768293 76.5598656 47.9756098 75.1029322 46.9420732 74.2782529 45.8993902 73.8659133 45.8993902 74.2782529 45.2865854 75.5244349 45.0762195 77.3845449 44.2439024 78.2183873 43.2103659 78.8414783 42.7987805 79.0430666 41.9756098 79.6661576 41.1432927 79.6661576 40.1097561 80.0784973 39.0762195 79.6661576 38.0426829 79.253818 37.6219512 77.3845449 37.8323171 76.3491142 38.0426829 75.1029322 38.4542683 73.6551619 39.4878049 72.8213195 39.0762195 72.6197312 38.4542683 71.5843005 37.6219512 69.0919365 37.6219512 67.4334148 38.4542683 66.1872327 39.277439 65.3625535 40.1097561 65.1518021 41.3536585 64.5287111 41.3536585 63.90562 41.3536585 63.7040318 40.5213415 62.0455101 40.1097561 60.3869884 39.8993902 59.1408064 40.320122 58.5177153 40.9329268 57.693036 40.5213415 57.693036 40.320122 56.6484423 39.8993902 56.446854 39.4878049 54.9899206 37.8323171 54.1652413 37.4207317 53.3313989 37 52.5067196 37.2103659 50.6374465 38.2439024 50.5 38.3262195 51.0589493 38.6646341 51.4712889 38.8658537 51.8836286 39.4878049 52.2959682 39.8993902 52.9190593 41.3536585 53.3313989 42.3871951 53.9544899 43.6310976 54.1652413 44.8658537 54.3759927 45.8993902 54.7883323 47.554878 56.446854 49.8323171 57.4822847 51.4878049 58.7284667 52.9420732 59.1408064 53.7652439 59.1408064 55.4207317 58.930055 56.875 58.5177153 57.2865854 57.069945 59.3536585 55.4114233 61.2195122 55.200672 62.6646341 54.3759927 63.9085366 54.3759927 64.9420732 54.3759927 66.3963415 53.9544899 68.0518293 53.7529016 68.875"></polygon>
            <polygon id="path2269" points="54.091451 69.9541284 54.199622 69.6422018 54.3979354 68.8165138 54.8125909 67.1559633 54.8125909 65.6972477 54.8125909 64.6605505 55.6238732 63.412844 55.8312009 61.9633028 57.4627799 60.0917431 58.8870311 58.0183486 59.2926723 57.6055046 59.5 56.146789 59.5 54.4862385 59.0943588 53.6605505 57.8684211 52.2018349 56.849811 50.5412844 55.218232 48.2568807 54.8125909 46.5963303 54.6052632 45.559633 54.3979354 44.3211009 53.7849666 43.0733945 53.3793254 42.0366972 52.7663565 40.5779817 52.3607153 40.1651376 51.9550741 39.5412844 51.549433 39.3394495 50.9995638 39 49.3048851 39.9541284 47.2586508 39.9541284 45.0141029 40.1651376 43.1842105 39.9541284 41.750945 39.5412844 40.1193661 39.5412844 38.9024426 39.7522936 38.4877871 40.5779817 37.0635359 41.2018349 36.0449259 41.412844 35.8375981 42.0366972 35.431957 42.0366972 35.0263158 41.6146789 34.4133469 41.8256881 34.0077057 42.2385321 33.5930503 42.8623853 33.3947368 42.4495413 32.5744402 42.0366972 32.3761268 41.412844 32.313027 41.3669725 32.1687991 42.2385321 31.150189 44.3211009 30.3298924 47.2201835 29.7169235 54.9082569 28.9056412 59.6788991 28.5 62.3761468 28.6983135 65.0733945 29.3112823 67.7706422 30.1315789 68.8165138 31.150189 69.853211 31.5558302 71.5137615 31.4476592 73 31.7631579 72.9633028 32.9800814 72.5504587 33.1874091 72.1376147 34.0077057 71.3027523 34.8189881 70.8899083 36.2432393 70.6788991 36.8562082 71.1009174 37.8838325 72.1376147 38.9024426 72.1376147 39.7137249 72.1376147 40.732335 71.5137615 41.1469904 70.6788991 41.1469904 70.0550459 41.1469904 68.8165138 41.9582728 67.3577982 42.3639139 66.3211009 43.5898517 66.3211009 44.4101483 66.3211009 45.2214306 66.5321101 46.6456819 66.9449541 48.6919163 67.5688073 49.3048851 67.9816514 51.3421053 69.4311927 53.1810119 69.853211 53.7849666 69.853211"></polygon>
            <polygon id="path2279" points="101.271613 37.1801619 100.657419 37.2439271 99.8354839 37.444332 99.4290323 37.8633603 98.4083871 38.0637652 98.0019355 37.444332 97.3877419 36.8340081 95.7529032 34.9757085 94.1180645 32.917004 94.1180645 32.2975709 93.0974194 32.0880567 91.8690323 32.0880567 90.6406452 31.6781377 90.2341935 31.6781377 89.0058065 31.0587045 88.3916129 30.2388664 88.1929032 29.6194332 88.3916129 29.2004049 87.7774194 29 87.3709677 29 86.7567742 29.6194332 86.7567742 30.4392713 85.736129 31.4686235 84.9232258 33.1174089 83.8935484 33.5364372 82.6741935 33.7368421 81.4458065 35.1852227 80.8316129 36.0050607 80.623871 37.2439271 79.8109677 38.0637652 80.2174194 38.4827935 80.623871 39.5121457 80.2174194 40.541498 80.2174194 41.5708502 79.6032258 42.3997976 79.4045161 43.2196356 78.7903226 43.6295547 77.9683871 44.6589069 76.1348387 45.4878543 74.9064516 45.6973684 74.5 46.3076923 74.9064516 46.3076923 75.7193548 47.3461538 77.1554839 48.3755061 78.3748387 48.5759109 79.6032258 49.4048583 80.4251613 49.4048583 81.0393548 50.0242915 81.0393548 51.0536437 81.0393548 52.2925101 80.623871 52.9119433 80.1541935 53.9412955 81.0393548 53.9412955 82.2587097 53.9412955 84.3090323 53.3218623 85.3296774 53.3218623 86.5580645 53.7317814 87.7774194 54.3512146 89.2135484 55.1710526 89.8277419 55.7904858 90.6406452 56 91.4625806 56 91.6612903 55.1710526 92.4832258 53.7317814 93.296129 52.2925101 93.9103226 51.8734818 95.5451613 51.2631579 96.1593548 51.0536437 97.3877419 50.0242915 99.0225806 48.5759109 99.8354839 48.1659919 101.470323 46.7267206 101.885806 45.8977733 102.292258 45.0779352 102.5 43.4291498 102.292258 42.1902834 102.084516 41.361336 101.921935 40.8694332 101.271613 40.541498 101.271613 39.5121457 101.271613 37.444332"></polygon>
            <polygon id="path2284" points="97.2834395 24 97.0332947 24.4035874 96.4125651 26.0269058 95.5694847 26.8430493 94.9394904 27.2466368 93.679502 27.2466368 93.0587724 27.6502242 91.798784 28.0627803 90.9557035 28.0627803 89.9088014 28.2600897 89.0749855 29.2735426 87.8149971 29.6860987 87.5 29.9910314 87.6019108 30.2959641 88.231905 31.103139 89.4918935 31.7130045 89.9088014 31.7130045 91.1687898 32.1165919 92.4287782 32.1165919 93.4756804 32.32287 93.4756804 32.9327354 95.1525767 34.9596413 96.8294731 36.7892377 97.4594673 37.3901345 97.8763752 38 98.9232774 37.8026906 99.3401853 37.3901345 100.183266 37.1928251 100.81326 37.1300448 100.81326 35.7668161 101.860162 32.5201794 102.490156 30.0896861 103.120151 27.6502242 103.5 26.32287 101.230168 26.0269058 99.3401853 24.8161435 97.6632889 24"></polygon>
            <polygon id="path2289" points="55.9559376 38.7903226 56.2518058 37.6072106 56.4552153 36.3598988 56.4552153 35.5344719 57.2965906 34.6998735 57.5 33.0398482 56.8805259 31.5907653 56.4552153 29.7197976 55.8264952 27.8488299 55.4104305 26.8124605 55.2070211 25.7760911 54.3656458 24.5287793 53.949581 23.9051233 53.7369257 22.6669829 53.1082057 21.2087287 53.1082057 19.7596458 53.1082057 19.1359899 52.692141 17.4759646 52.692141 15.6049968 51.6473563 14.3668564 51.1295868 14 47.884282 15.8159393 44.9533372 16.0268817 42.0223924 16.6413662 40.9776076 17.4759646 40.9776076 18.3105629 41.6063277 19.3469323 41.6063277 20.5850727 41.3936723 22.043327 40.1362323 23.0796964 37.4179428 24.3270082 35.9570933 25.5651486 35.744438 26.6106894 35.115718 28.4724858 33.8675238 29.93074 32.3974285 31.3798229 29.679139 32.4161923 26.5447847 33.4525617 25.5 34.28716 25.5 35.112587 25.9160647 36.1489564 27.3769142 36.9835547 30.0952037 37.1944972 31.565299 37.6072106 32.1940191 38.2308665 32.1940191 39.6799494 32.1940191 41.1382037 32.1292979 41.5050601 32.1940191 41.5509171 32.3974285 42.1745731 33.2388038 42.5872865 33.4422132 43 33.8675238 42.3763441 34.2835886 41.9636306 34.9123086 41.7526882 35.3283733 42.1745731 35.744438 42.1745731 35.9570933 41.5509171 37.0018781 41.3399747 38.4627275 40.7163188 38.8880381 39.8908918 40.1362323 39.6799494 41.8097371 39.6799494 43.2798324 40.0926629 45.1567466 40.3036053 47.4589714 40.0926629 49.5577868 40.0926629 51.434701 39.0562935 53.320861 38.0199241 54.1529905 37.8089817 54.9943658 38.2308665 55.8264952 38.64358"></polygon>
            <polygon id="path2294" points="100.188372 19 98.755814 19.8631369 97.5 20.4655345 95.3883721 21.0769231 93.0813953 21.6883117 90.5511628 22.9110889 89.5 23.5224775 89.5 24.5384615 90.3372093 25.959041 90.5511628 26.3726274 90.5511628 26.7772228 90.9697674 27.5864136 91.044186 28 91.8162791 28 93.0813953 27.5864136 93.7046512 27.1818182 94.9697674 27.1818182 95.6023256 26.7772228 96.4488372 25.959041 97.072093 24.3316683 97.3232558 23.9270729 96.4488372 23.9270729 95.6023256 22.5064935 96.4488372 21.8951049 97.5 21.8951049 97.9186047 22.0929071 98.3372093 22.9110889 99.3883721 22.9110889 99.6023256 22.2997003 100.02093 21.6883117 100.867442 21.0769231 101.5 20.2677323 100.448837 19.2517483"></polygon>
            <polygon id="path2299" points="96.3526466 9.23342541 95.4971388 9 94.018598 9.40400552 92.7632332 9.61049724 92.1309013 10.2209945 90.0293276 13.875 88.9692418 15.3024862 88.1323319 17.7354972 87.5 18.9564917 87.5 19.566989 88.1323319 19.7645028 88.3369099 19.566989 89.3969957 19.3604972 89.8154506 19.1629834 89.8154506 20.1774862 90.2339056 20.7879834 90.8662375 21.5959945 91.2846924 22 93.3955651 20.9854972 95.7017167 20.375 97.8125894 19.7645028 99.0679542 19.1629834 100.5 18.301105 98.6494993 16.5145028 97.1802575 15.9040055 95.9155937 14.2790055 95.0786838 12.8604972 94.8648069 11.8459945 94.8648069 11.0290055 95.7017167 10.0145028"></polygon>
            <polygon id="path2309" points="83.9306755 33 84.607161 32.729443 85.4299137 31.0970822 86.4629253 30.0779841 86.4629253 29.266313 87.0845607 28.6530504 87.495937 28.6530504 88.1175724 28.8514589 87.9164551 29.266313 88.0170137 29.5729443 88.3278314 29.266313 89.5711021 28.8514589 90.3938547 27.8323607 91.4268664 27.6339523 91.5 27.6339523 91.4268664 27.2190981 91.0154901 26.4074271 91.0154901 26.0015915 90.8052311 25.5867374 89.9824784 24.1618037 89.9824784 23.1427056 91.0154901 22.529443 91.4268664 22.3220159 91.0154901 21.9161804 90.3938547 21.1045093 89.9824784 20.4912467 89.9824784 19.4721485 89.5711021 19.670557 88.5289487 19.8779841 88.3278314 20.0763926 87.706196 19.8779841 87.706196 19.2647215 88.3278314 18.0381963 88.6752158 17.001061 88.3278314 17.0190981 86.8743017 16.8116711 86.051549 16.6132626 85.2196546 16.4058355 84.396902 16.1984085 83.3638903 16 81.4989843 16.8116711 79.4329609 18.0381963 77.1566785 18.8588859 75.7122905 19.4721485 74.4690198 19.8779841 74.4690198 20.4912467 74.0576435 21.1045093 73.5 21.3209549 73.8473845 21.9161804 74.6701371 22.9352785 75.0906552 23.5485411 75.7122905 23.7559682 76.3247842 24.3692308 76.9464195 24.7750663 77.9794312 25.3883289 78.8113255 25.5867374 80.2557136 26.6058355 81.0876079 27.2190981 81.2978669 27.6339523 81.9103606 28.6530504 82.742255 30.6912467 83.7752666 32.3236074"></polygon>
            <polygon id="path2304" points="83.5 33.6872843 83.3462171 33.0103531 82.3240132 31.3766923 81.5008224 29.3368728 80.8947368 28.3169631 80.6866776 27.9017786 79.8634868 27.2880276 78.4342105 26.2681179 77.6110197 26.0695514 76.5888158 25.4558004 75.9736842 25.0496416 75.3675987 24.4358906 74.7524671 24.2282984 74.3363487 23.6145474 73.5222039 22.5946376 73.1784539 21.9989381 72.6990132 22.1884789 72.0929276 23.0007964 70.4555921 24.4358906 69.4243421 25.2482081 68.6101974 25.2482081 67.3799342 24.2282984 66.3577303 23.4159809 65.5345395 22.3870454 63.8972039 20.3472259 62.4679276 18.3074064 61.6537829 16.8723122 60.2154605 14.2187417 60.0164474 13.4064242 58.7861842 13.4064242 57.7639803 12.585081 56.7327303 12.1789222 56.7327303 11.3666047 56.7327303 10.1391027 56.7327303 8.505442 56.7327303 8 56.3256579 8.09928325 54.4893092 9.11919299 52.8519737 11.3666047 50.5995066 14.2187417 50.5 14.2728962 51.0065789 14.6339262 52.0287829 15.8524024 52.0287829 17.6936554 52.4358553 19.3273162 52.4358553 19.9410672 52.4358553 21.3671357 53.0509868 22.8022299 53.2590461 24.0207061 53.6661184 24.6344571 54.4893092 25.8619591 54.6883224 26.8818689 55.0953947 27.9017786 55.7105263 29.7430316 56.1266447 31.5842846 56.7327303 33.0103531 56.5337171 34.6440138 55.7105263 35.465357 55.7105263 36.2776745 55.5115132 37.5051765 55.2220395 38.6694983 56.5337171 40.158747 56.7327303 40.5649058 57.7639803 40.9800903 57.7639803 41.1786568 58.578125 41.5848155 59.1932566 40.9800903 60.4235197 40.5649058 62.0608553 40.772498 63.6981908 41.1786568 63.8972039 42 64.5123355 42 65.1274671 42 65.3355263 40.772498 66.1496711 39.9511548 67.3799342 39.1388373 69.0172697 38.317494 71.4777961 38.317494 72.5 39.1388373 72.6990132 39.7525883 73.5222039 40.158747 74.9514803 39.1388373 76.1817434 38.7326785 77.2039474 38.5250863 79.0493421 38.317494 79.8634868 37.5051765 80.0715461 36.2776745 80.6866776 35.465357 81.9169408 34.0302628 83.1381579 33.8316963"></polygon>
        </g>
        <g id="Group-5" transform="translate(32.000000, 131.000000)">
            <path d="M19.5007728,0 C30.2704791,0 39,8.72986684 39,19.5 C39,30.2701332 30.2704791,39 19.5007728,39 C8.73106646,39 0,30.2701332 0,19.5 C0,8.72986684 8.73106646,0 19.5007728,0 Z" id="Stroke-1" stroke="#E75F52"></path>
            <path d="M19.5,13 C23.0899976,13 26,15.910354 26,19.5007853 C26,23.089646 23.0899976,26 19.5,26 C15.9100024,26 13,23.089646 13,19.5007853 C13,15.910354 15.9100024,13 19.5,13" id="Fill-3" fill="#E75F52"></path>
        </g>
    </g>
</svg>