<?xml version="1.0" encoding="UTF-8"?>
<svg width="146px" height="301px" viewBox="0 0 146 301" version="1.1" xmlns="http://www.w3.org/2000/svg" xmlns:xlink="http://www.w3.org/1999/xlink">
    <!-- Generator: Sketch 64 (93537) - https://sketch.com -->
    <title>3</title>
    <desc>Created with Sketch.</desc>
    <g id="3" stroke="none" stroke-width="1" fill="none" fill-rule="evenodd">
        <g id="Group-8">
            <polygon id="Fill-1" fill="#FFFFFF" points="80.7003 0.4999 78.7003 0.5999 77.7003 0.7009 77.6003 0.7009 75.2993 1.4999 71.9003 2.9999 71.1003 3.3999 64.8003 5.6999 61.9003 6.4999 56.2003 7.8999 54.2993 8.9999 52.6003 11.1999 50.4003 14.0999 47.0993 15.9999 44.2003 16.2009 41.3003 16.7999 40.2003 17.5999 40.2003 18.4999 40.7993 19.4999 40.7993 20.7009 40.6003 22.1999 39.4003 23.2009 36.7003 24.4999 35.3003 25.6999 35.1003 26.6999 34.3993 28.5999 33.2003 29.9999 31.6993 31.4999 29.0993 32.4999 25.9003 33.4999 24.9003 34.3999 24.9003 35.1999 25.3003 36.1999 25.9003 36.4999 25.9003 36.5999 27.3993 37.4999 30.1003 37.7009 31.3003 37.9999 31.5003 38.2999 31.5003 39.6999 31.5003 41.2009 31.3003 42.3999 30.2993 44.4999 29.5003 47.3999 28.8003 54.9999 28.0003 59.7999 27.6003 62.3999 27.8003 65.0999 28.3993 67.7999 29.2993 68.7999 30.2993 69.8999 30.7003 71.4999 30.2993 76.8999 29.8993 80.1999 29.2993 82.8999 29.2993 84.6999 29.7003 86.3999 30.5003 87.9999 32.4003 91.0999 32.6003 91.5999 32.4003 91.9999 31.5003 92.6009 30.5003 93.7999 29.2993 96.0999 28.6003 98.3999 28.3993 101.8999 28.0003 104.3999 28.0003 107.8999 28.2003 108.4999 28.3993 109.4999 28.6003 110.0999 28.1003 110.0999 27.5003 110.4999 26.9003 111.2999 26.9003 111.3999 26.6003 111.7999 26.3993 112.3999 26.6003 112.9999 27.0003 113.5999 27.3993 113.8999 27.1993 114.4999 26.1003 115.5999 23.6003 117.8999 23.0003 118.4999 23.0003 118.5999 21.8993 119.6009 20.8993 119.6009 20.6003 119.9999 19.9003 119.9999 19.6003 120.7999 15.7003 122.2999 15.4993 122.3999 14.7993 122.6999 12.8993 124.3999 12.5003 125.5999 12.5003 127.2999 11.7003 130.1999 10.6003 131.2999 8.7003 131.6999 7.7003 131.6999 7.3003 132.0999 7.1003 132.2009 6.7003 132.2009 6.3003 132.5999 4.6003 133.8999 3.6003 135.4999 1.9003 136.9999 1.2993 138.3999 1.0993 142.5999 0.9003 143.7999 0.5003 145.3999 0.5003 146.4999 0.9003 148.0999 1.7003 150.5999 2.2003 152.6999 2.4003 153.8999 2.8003 155.4009 3.2003 155.9999 4.4003 158.2009 6.1003 160.9009 7.4993 162.9999 8.6003 165.8999 8.6003 166.5999 8.4993 166.5999 8.4993 167.4999 8.4993 172.7009 8.9003 174.2999 9.7003 175.0999 10.6003 175.9999 12.8993 176.7999 14.1003 177.5989 16.2003 177.9999 18.5003 179.2999 19.7003 179.4999 21.4003 179.9009 21.8003 180.0989 21.8003 180.8999 22.2003 181.4999 23.2003 182.4009 26.0003 186.4999 28.3993 190.5999 29.5003 192.4999 29.7003 193.8999 29.7003 194.5989 29.8993 196.5999 29.8993 196.6999 29.8993 196.9999 30.5003 201.0999 30.7003 203.5989 30.8993 204.3999 31.1003 204.4999 31.6003 204.3999 31.8993 204.4999 33.0003 205.2989 34.6003 206.5999 36.7003 207.9999 38.8003 209.6999 40.7993 211.2999 44.2003 213.7999 49.3003 217.4999 50.7993 218.6999 52.6003 220.1999 55.7003 221.9999 72.2993 300.0999 73.2993 300.4999 73.4003 300.4009 73.5993 300.4999 76.0993 298.9999 79.5993 297.5999 81.5003 296.5999 83.9003 296.3999 84.9993 296.1999 85.7993 294.9009 86.0003 294.4999 87.2003 293.0999 94.6003 282.6999 97.9003 276.9009 99.1993 273.7999 99.5993 272.5999 99.1993 269.2999 97.9003 264.2999 96.3003 259.3999 93.6003 252.4999 93.2003 250.1999 93.2003 248.9999 95.3003 244.7009 97.9003 239.9009 99.5993 237.9999 100.1003 237.6999 102.2993 237.4999 104.6003 238.0999 106.4003 237.8999 106.4993 237.8999 106.5993 237.7999 109.7003 233.9009 111.2993 231.3999 113.6003 228.2999 114.0003 227.5999 114.9003 227.1999 115.0003 227.0989 115.0993 227.0989 115.9003 226.0989 116.4003 225.7999 117.0003 225.7999 117.4003 225.5999 117.4003 225.4999 117.5003 225.3999 118.8003 223.1999 120.2003 220.5989 130.2003 215.3999 130.2003 215.4999 132.9003 214.0999 141.4013 209.9999 144.1003 207.2999 144.5003 206.9009 144.5003 206.7999 144.5003 206.2999 144.5003 206.0999 144.2993 205.2989 144.1003 204.2999 143.4993 202.5989 141.7993 201.4009 141.0003 199.7009 140.5993 198.0989 140.5993 193.5989 140.5993 189.2999 140.7993 187.2989 141.2003 184.4009 141.5993 181.8999 142.5993 178.9009 142.7993 178.2989 143.2993 177.5989 143.1003 177.3999 143.2993 177.2009 142.7993 176.5989 141.4013 176.3999 137.5003 176.2009 133.3003 175.5989 130.4003 174.9999 128.9993 173.6999 128.2003 171.2999 127.7003 168.7999 127.5993 166.4009 127.9993 164.2999 128.4003 163.0989 128.2993 162.5999 128.4003 162.5999 128.2003 160.9009 126.9003 159.2999 126.1003 157.5999 125.1003 156.9999 122.6003 156.9999 120.9003 157.5999 120.5003 158.2009 120.7003 158.4999 120.5003 158.7999 121.2003 159.5989 121.5003 159.9009 121.3003 160.4999 120.0993 161.4999 118.0003 162.3999 116.8003 163.1999 115.3003 163.7999 113.7003 162.9999 113.0993 161.9999 112.7993 161.3999 113.3003 160.9009 113.7003 160.2009 114.4013 158.7999 114.4013 158.2009 114.4013 156.4999 114.5993 155.0989 114.4013 155.0989 114.4993 154.4999 113.5003 154.2999 113.0993 153.8999 111.4003 154.7009 109.9013 155.4009 108.7003 155.9999 107.4993 156.5999 106.2003 156.9999 105.4013 156.5999 102.9003 155.4009 100.0003 154.0989 97.9003 152.2999 95.3003 149.5999 92.8003 146.4999 90.7003 142.9999 89.7003 139.4999 88.7993 135.8999 88.7003 134.4999 88.5993 134.3999 89.1003 134.6999 89.7003 134.6999 89.7003 133.5999 90.1003 132.7999 91.4003 131.5999 91.8003 130.8999 93.6003 128.8999 94.7993 128.1999 96.4993 127.1999 100.2003 125.5999 100.8003 124.8999 101.5993 124.6999 102.9993 122.8999 103.6003 121.9999 103.5003 121.6999 103.5003 121.5999 104.3003 120.7999 105.9003 120.1999 108.1003 119.2999 109.4003 119.0999 109.8003 118.0999 110.2003 117.4999 110.5993 116.3999 111.8003 114.9999 112.6003 114.7999 113.9003 114.7999 114.3003 114.7999 115.3003 112.6999 116.1003 110.9999 117.7003 108.5999 118.4003 107.4999 118.9993 106.4999 119.9993 105.6999 122.7003 100.7009 122.7993 100.3999 124.2003 97.2989 124.5993 96.0999 124.5993 95.4999 125.0003 95.4999 125.0003 94.6999 125.4003 93.1999 126.5003 92.1999 126.9003 92.3999 127.0003 92.2999 127.2003 92.2999 128.5003 90.4999 129.5003 89.3999 128.7003 88.7999 128.0993 88.3999 126.5993 87.2999 125.5993 85.3999 125.4003 83.8999 125.2003 82.2999 125.8003 80.1999 126.8003 78.6999 126.1993 77.5999 125.0003 76.5999 125.0003 75.3999 124.7003 75.4999 124.7003 74.8999 125.1003 74.0999 125.4993 73.4999 125.4003 73.1999 125.4993 73.1999 125.3003 72.0999 124.2003 71.6999 122.4003 71.0999 120.7003 70.6999 118.8003 70.1009 117.1993 68.5999 115.4993 66.9999 113.4003 66.1999 111.9993 64.9999 109.5003 62.2999 107.5993 58.7999 105.4993 54.3999 105.0993 51.8999 105.3003 48.3999 106.0993 44.8999 107.8003 41.7999 107.4003 41.6999 107.7003 41.2009 108.7003 40.5999 109.7003 40.2999 110.4003 40.2999 111.4003 39.2999 114.4993 38.0999 116.8003 37.7009 117.4003 36.1999 118.8003 33.4999 120.7003 28.9999 123.0003 25.6999 125.3003 22.5999 127.1003 19.8999 127.5003 18.8999 127.5003 17.7999 127.5003 17.6999 127.5003 17.3999 127.2993 16.5999 126.5003 13.3999 126.1993 11.2999 126.0003 10.7009 125.2003 10.4999 124.4003 11.0999 123.0993 11.4999 120.8003 12.5999 119.9993 13.3999 118.9013 15.0999 117.1993 16.5999 116.5993 17.1999 115.7993 18.2999 113.0993 19.4999 111.4003 19.7009 110.0993 19.4999 109.5003 19.7009 108.1993 20.9999 107.4003 23.0999 107.2003 24.7999 105.9003 24.7999 105.0993 25.7999 104.0993 26.3999 103.2003 26.2999 103.0993 26.5999 101.2993 26.2999 99.4003 25.1009 97.7003 24.2009 96.4993 24.2009 95.7003 22.8999 96.4013 22.3999 97.4993 22.3999 97.9003 22.5999 98.3003 23.3999 99.4003 23.3999 99.5993 22.7999 100.0003 22.1999 100.9013 21.5999 101.5003 20.7989 101.4003 20.6009 101.5003 20.4999 100.4003 19.4999 100.0003 19.0999 100.5003 18.7999 98.5993 16.9999 97.2003 16.3999 95.9003 14.7999 95.0993 13.3999 94.9003 12.2999 94.9003 11.6009 95.5003 10.7999 96.0003 10.1999 96.0003 10.0999 96.0993 10.0999 96.3003 9.8999 96.2003 9.8999 96.4013 9.7009 96.0003 9.5999 95.9003 9.5999 94.4003 8.9999 93.2003 8.1999 93.4003 7.9999 95.0003 7.9999 97.0993 8.1999 97.4993 7.7999 97.4993 7.6999 97.3003 6.8999 94.7993 5.6999 92.2003 4.1999 89.7003 3.7999 86.7993 4.3999 85.0993 4.5999 83.9003 5.2009 83.8003 5.2999 83.5993 5.4999 84.9003 5.8999 85.5003 6.0999 86.0993 6.2999 85.9003 7.3999 85.5003 8.3999 83.7003 8.9999 81.8003 8.2999 81.0003 7.4999 81.1993 6.2999 81.1993 5.2999 81.8003 4.7999 82.0003 4.6999 82.5993 4.6999 83.8003 3.9999 83.9003 3.9999 84.2993 3.3999 84.2993 2.7989 83.2993 1.4999 80.8003 0.4999"></polygon>
            <polygon id="Stroke-2" stroke="#E75F52" stroke-linecap="round" stroke-linejoin="round" points="144.2998 205.2998 144.0998 204.2998 143.4998 202.5998 141.7998 201.4008 140.9998 199.6998 140.5998 198.0998 140.5998 193.5998 140.5998 189.2998 140.7998 187.2998 141.1998 184.4008 141.5998 181.9008 142.5998 178.9008 142.7998 178.2998 143.2998 177.5998 143.0998 177.4008 143.2998 177.1998 142.7998 176.5998 141.4008 176.4008 137.4998 176.1998 133.2998 175.5998 130.4008 174.9998 128.9998 173.6998 128.1998 171.2998 127.6998 168.7998 127.5998 166.4008 127.9998 164.2998 128.4008 163.0998 128.2998 162.5998 128.4008 162.5998 128.1998 160.9008 126.9008 159.2998 126.0998 157.5998 125.0998 156.9998 122.5998 156.9998 120.9008 157.5998 120.4998 158.1998 120.6998 158.4998 120.4998 158.7998 121.1998 159.5998 121.4998 159.9008 121.2998 160.4998 120.0998 161.4998 117.9998 162.4008 116.7998 163.1998 115.2998 163.7998 113.6998 162.9998 113.0998 161.9998 112.7998 161.4008 113.2998 160.9008 113.6998 160.1998 114.4008 158.7998 114.4008 158.1998 114.4008 156.4998 114.5998 155.0998 114.4008 155.0998 114.4998 154.4998 113.4998 154.2998 113.0998 153.9008 111.4008 154.6998 109.9008 155.4008 108.6998 155.9998 107.4998 156.5998 106.1998 156.9998 105.4008 156.5998 102.9008 155.4008 99.9998 154.0998 97.9008 152.2998 95.2998 149.5998 92.7998 146.4998 90.6998 142.9998 89.6998 139.4998 88.7998 135.8998 88.6998 134.4998 88.5998 134.3998 89.0998 134.6998 89.6998 134.6998 89.6998 133.5998 90.0998 132.7998 91.4008 131.5998 91.7998 130.8998 93.5998 128.8998 94.7998 128.1998 96.4998 127.1998 100.1998 125.5998 100.7998 124.8998 101.5998 124.6998 102.9998 122.8998 103.5998 121.9998 103.4998 121.6998 103.4998 121.5998 104.2998 120.7998 105.9008 120.1998 108.0998 119.2998 109.4008 119.0998 109.7998 118.0998 110.1998 117.4998 110.5998 116.3998 111.7998 114.9998 112.5998 114.7998 113.9008 114.7998 114.2998 114.7998 115.2998 112.6998 116.0998 110.9998 117.6998 108.5998 118.4008 107.4998 118.9998 106.4998 119.9998 105.6998 122.6998 100.6998 122.7998 100.3998 124.1998 97.2998 124.5998 96.0998 124.5998 95.4998 124.9998 95.4998 124.9998 94.6998 125.4008 93.1998 126.4998 92.1998 126.9008 92.3998 126.9998 92.2998 127.1998 92.2998 128.4998 90.4998 129.4998 89.3998 128.6998 88.7998 128.0998 88.3998 126.5998 87.2998 125.5998 85.3998 125.4008 83.8998 125.1998 82.2998 125.7998 80.1998 126.7998 78.6998 126.1998 77.5998 124.9998 76.5998 124.9998 75.3998 124.6998 75.4998 124.6998 74.8998 125.0998 74.0998 125.4998 73.4998 125.4008 73.1998 125.4998 73.1998 125.2998 72.0998 124.1998 71.6998 122.4008 71.0998 120.6998 70.6998 118.7998 70.0998 117.1998 68.5998 115.4998 66.9998 113.4008 66.1998 111.9998 64.9998 109.4998 62.2998 107.5998 58.7998 105.4998 54.3998 105.0998 51.8998 105.2998 48.3998 106.0998 44.8998 107.7998 41.7998 107.4008 41.6998 107.6998 41.1998 108.6998 40.5998 109.6998 40.2998 110.4008 40.2998 111.4008 39.2998 114.4998 38.0998 116.7998 37.6998 117.4008 36.1998 118.7998 33.4998 120.6998 28.9998 122.9998 25.6998 125.2998 22.5998 127.0998 19.8998 127.4998 18.8998 127.4998 17.7998 127.4998 17.6998 127.4998 17.3998 127.2998 16.5998 126.4998 13.3998 126.1998 11.2998 125.9998 10.6998 125.1998 10.4998 124.4008 11.0998 123.0998 11.4998 120.7998 12.5998 119.9998 13.3998 118.9008 15.0998 117.1998 16.5998 116.5998 17.1998 115.7998 18.2998 113.0998 19.4998 111.4008 19.6998 110.0998 19.4998 109.4998 19.6998 108.1998 20.9998 107.4008 23.0998 107.1998 24.7998 105.9008 24.7998 105.0998 25.7998 104.0998 26.3998 103.1998 26.2998 103.0998 26.5998 101.2998 26.2998 99.4008 25.0998 97.6998 24.1998 96.4998 24.1998 95.6998 22.8998 96.4008 22.3998 97.4998 22.3998 97.9008 22.5998 98.2998 23.3998 99.4008 23.3998 99.5998 22.7998 99.9998 22.1998 100.9008 21.5998 101.4998 20.7998 101.4008 20.5998 101.4998 20.4998 100.4008 19.4998 99.9998 19.0998 100.4998 18.7998 98.5998 16.9998 97.1998 16.3998 95.9008 14.7998 95.0998 13.3998 94.9008 12.2998 94.9008 11.5998 95.4998 10.7998 95.9998 10.1998 95.9998 10.0998 96.0998 10.0998 96.2998 9.8998 96.1998 9.8998 96.4008 9.6998 95.9998 9.5998 95.9008 9.5998 94.4008 8.9998 93.1998 8.1998 93.4008 7.9998 94.9998 7.9998 97.0998 8.1998 97.4998 7.7998 97.4998 7.6998 97.2998 6.8998 94.7998 5.6998 92.1998 4.1998 89.6998 3.7998 86.7998 4.3998 85.0998 4.5998 83.9008 5.1998 83.7998 5.2998 83.5998 5.4998 84.9008 5.8998 85.4998 6.0998 86.0998 6.2998 85.9008 7.3998 85.4998 8.3998 83.6998 8.9998 81.7998 8.2998 80.9998 7.4998 81.1998 6.2998 81.1998 5.2998 81.7998 4.7998 81.9998 4.6998 82.5998 4.6998 83.7998 3.9998 83.9008 3.9998 84.2998 3.3998 84.2998 2.7998 83.2998 1.4998 80.7998 0.4998 80.6998 0.4998 78.6998 0.5998 77.6998 0.6998 77.5998 0.6998 75.2998 1.4998 71.8998 2.9998 71.0998 3.3998 64.7998 5.6998 61.8998 6.4998 56.1998 7.8998 54.2998 8.9998 52.5998 11.1998 50.3998 14.0998 47.0998 15.9998 44.1998 16.1998 41.2998 16.7998 40.1998 17.5998 40.1998 18.4998 40.7998 19.4998 40.7998 20.6998 40.5998 22.1998 39.3998 23.1998 36.6998 24.4998 35.2998 25.6998 35.0998 26.6998 34.3998 28.5998 33.1998 29.9998 31.6998 31.4998 29.0998 32.4998 25.8998 33.4998 24.8998 34.3998 24.8998 35.1998 25.2998 36.1998 25.8998 36.4998 25.8998 36.5998 27.3998 37.4998 30.0998 37.6998 31.2998 37.9998 31.4998 38.2998 31.4998 39.6998 31.4998 41.1998 31.2998 42.3998 30.2998 44.4998 29.4998 47.3998 28.7998 54.9998 27.9998 59.7998 27.5998 62.3998 27.7998 65.0998 28.3998 67.7998 29.2998 68.7998 30.2998 69.8998 30.6998 71.4998 30.2998 76.8998 29.8998 80.1998 29.2998 82.8998 29.2998 84.6998 29.6998 86.3998 30.4998 87.9998 32.3998 91.0998 32.5998 91.5998 32.3998 91.9998 31.4998 92.5998 30.4998 93.7998 29.2998 96.0998 28.5998 98.3998 28.3998 101.8998 27.9998 104.3998 27.9998 107.8998 28.1998 108.4998 28.3998 109.4998 28.5998 110.0998 28.0998 110.0998 27.4998 110.4998 26.8998 111.2998 26.8998 111.3998 26.5998 111.7998 26.3998 112.3998 26.5998 112.9998 26.9998 113.5998 27.3998 113.8998 27.1998 114.4998 26.0998 115.5998 23.5998 117.8998 22.9998 118.4998 22.9998 118.5998 21.8998 119.5998 20.8998 119.5998 20.5998 119.9998 19.8998 119.9998 19.5998 120.7998 15.6998 122.2998 15.4998 122.3998 14.7998 122.6998 12.8998 124.3998 12.4998 125.5998 12.4998 127.2998 11.6998 130.1998 10.5998 131.2998 8.6998 131.6998 7.6998 131.6998 7.2998 132.0998 7.0998 132.1998 6.6998 132.1998 6.2998 132.5998 4.5998 133.8998 3.5998 135.4998 1.8998 136.9998 1.2998 138.3998 1.0998 142.5998 0.8998 143.7998 0.4998 145.3998 0.4998 146.4998 0.8998 148.0998 1.6998 150.5998 2.1998 152.6998 2.3998 153.9008 2.7998 155.4008 3.1998 155.9998 4.3998 158.1998 6.0998 160.9008 7.4998 162.9998 8.5998 165.9008 8.5998 166.5998 8.4998 166.5998 8.4998 167.4998 8.4998 172.6998 8.8998 174.2998 9.6998 175.0998 10.5998 175.9998 12.8998 176.7998 14.0998 177.5998 16.1998 177.9998 18.4998 179.2998 19.6998 179.4998 21.3998 179.9008 21.7998 180.0998 21.7998 180.9008 22.1998 181.4998 23.1998 182.4008 25.9998 186.4998 28.3998 190.5998 29.4998 192.4998 29.6998 193.9008 29.6998 194.5998 29.8998 196.5998 29.8998 196.6998 29.8998 196.9998 30.4998 201.0998 30.6998 203.5998 30.8998 204.4008 31.0998 204.4998 31.5998 204.4008 31.8998 204.4998 32.9998 205.2998 34.5998 206.5998 36.6998 207.9998 38.7998 209.6998 40.7998 211.2998 44.1998 213.7998 49.2998 217.4998 50.7998 218.6998 52.5998 220.1998 55.6998 221.9998 72.2998 300.0998 73.2998 300.4998 73.4008 300.4008 73.5998 300.4998 76.0998 298.9998 79.5998 297.5998 81.4998 296.5998 83.9008 296.4008 84.9998 296.1998 85.7998 294.9008 85.9998 294.4998 87.1998 293.0998 94.5998 282.6998 97.9008 276.9008 99.1998 273.7998 99.5998 272.5998 99.1998 269.2998 97.9008 264.2998 96.2998 259.4008 93.5998 252.4998 93.1998 250.1998 93.1998 248.9998 95.2998 244.6998 97.9008 239.9008 99.5998 237.9998 100.0998 237.6998 102.2998 237.4998 104.5998 238.0998 106.4008 237.9008 106.4998 237.9008 106.5998 237.7998 109.6998 233.9008 111.2998 231.4008 113.5998 228.2998 113.9998 227.5998 114.9008 227.1998 114.9998 227.0998 115.0998 227.0998 115.9008 226.0998 116.4008 225.7998 116.9998 225.7998 117.4008 225.5998 117.4008 225.4998 117.4998 225.4008 118.7998 223.1998 120.1998 220.5998 130.1998 215.4008 130.1998 215.4998 132.9008 214.0998 141.4008 209.9998 144.0998 207.2998 144.4998 206.9008 144.4998 206.7998 144.4998 206.2998 144.4998 206.0998"></polygon>
            <polygon id="Fill-4" fill="#FFFFFF" points="119.2998 156.5 119.6998 156.3 120.0998 154.8 121.9998 153.5 123.4998 152.4 124.7998 151.1 125.4008 150.9 126.2998 150.2 126.4998 149.4 125.9008 148.7 124.9998 148.3 124.5998 147.9 122.4998 146.8 121.5998 146.1 118.9998 145.9 116.0998 145.5 115.1998 145.7 113.9008 147 113.9008 148.1 113.6998 148.7 113.4998 150 113.4998 151.3 113.6998 152.2 114.4008 153.3 115.5998 153.7 116.6998 153.3 116.9008 152.6 117.7998 152.8 118.1998 153 118.4008 153.9 118.7998 155.4 118.7998 156.1"></polygon>
            <polygon id="Stroke-5" stroke="#E75F52" stroke-linecap="round" stroke-linejoin="round" points="119.2998 156.5 119.6998 156.3 120.0998 154.8 121.9998 153.5 123.4998 152.4 124.7998 151.1 125.4008 150.9 126.2998 150.2 126.4998 149.4 125.9008 148.7 124.9998 148.3 124.5998 147.9 122.4998 146.8 121.5998 146.1 118.9998 145.9 116.0998 145.5 115.1998 145.7 113.9008 147 113.9008 148.1 113.6998 148.7 113.4998 150 113.4998 151.3 113.6998 152.2 114.4008 153.3 115.5998 153.7 116.6998 153.3 116.9008 152.6 117.7998 152.8 118.1998 153 118.4008 153.9 118.7998 155.4 118.7998 156.1"></polygon>
            <polygon id="Fill-6" fill="#FFFFFF" points="128.7002 113.5 129.4002 113.3 130.5002 112.7 132.7002 111.3 134.2002 110.3 135.0992 109.3 135.5002 108.7 135.5002 108.1 134.8002 107.7 133.8002 107.5 132.4002 107.7 131.0992 109.7 130.0002 110.5 129.5992 111.7 128.5002 112.9"></polygon>
            <polygon id="Stroke-7" stroke="#E75F52" stroke-linecap="round" stroke-linejoin="round" points="128.7002 113.5 129.4002 113.3 130.5002 112.7 132.7002 111.3 134.2002 110.3 135.0992 109.3 135.5002 108.7 135.5002 108.1 134.8002 107.7 133.8002 107.5 132.4002 107.7 131.0992 109.7 130.0002 110.5 129.5992 111.7 128.5002 112.9"></polygon>
        </g>
    </g>
</svg>