<?xml version="1.0" encoding="UTF-8"?>
<svg width="310px" height="300px" viewBox="0 0 310 300" version="1.1" xmlns="http://www.w3.org/2000/svg" xmlns:xlink="http://www.w3.org/1999/xlink">
    <!-- Generator: Sketch 64 (93537) - https://sketch.com -->
    <title>32</title>
    <desc>Created with Sketch.</desc>
    <defs>
        <polygon id="path-1" points="0 0 310 0 310 300 0 300"></polygon>
    </defs>
    <g id="32" stroke="none" stroke-width="1" fill="none" fill-rule="evenodd">
        <g id="Group-3">
            <mask id="mask-2" fill="white">
                <use xlink:href="#path-1"></use>
            </mask>
            <g id="Clip-2"></g>
            <path d="M111.380903,298.758612 C111.28988,298.819168 111.214027,299.004619 111.214027,299.25441 L111.214027,299.500417 L111.714657,298.758612 C111.589499,298.758612 111.471927,298.694272 111.380903,298.758612 M110.220353,292.79768 C109.484579,292.430562 107.79685,296.427225 106.488385,297.517224 L110.220353,300 C110.220353,297.755662 110.71719,295.28424 110.470668,293.293478 C110.406193,293.043687 110.326547,292.846881 110.220353,292.79768 M48.08158,264.976211 C45.5442974,265.275204 42.4343246,267.216765 42.1043641,267.379508 L43.848983,274.581828 L49.4090074,274.581828 C49.4090074,273.836238 49.1586925,273.34044 49.1586925,272.59485 C48.9083777,271.099886 48.4115406,269.620061 48.9083777,268.125097 C49.1586925,267.375723 51.4001485,267.133501 51.1498336,266.384126 C50.778154,265.513641 50.031002,265.070829 49.1586925,264.976211 C48.8325247,264.942149 48.4418818,264.934579 48.08158,264.976211 M234.915089,203.550223 C232.942912,203.940049 233.534565,208.137302 234.915089,206.362269 C236.299407,204.59102 236.322162,206.929977 237.899905,207.524178 C239.477647,208.114594 241.472581,204.965708 238.317096,205.949734 C235.161612,206.933761 238.267792,203.940049 234.915089,203.550223 M239.31077,191.13256 C238.188146,191.13256 236.591441,192.13551 234.001061,193.361759 C232.226101,195.333598 232.157833,194.368495 233.337347,195.352521 C234.524447,196.336548 231.793739,195.098945 231.596521,196.673388 C231.403096,198.247831 231.968201,198.652796 232.757072,199.243213 C233.545943,199.833629 236.534551,200.836579 235.74568,199.655747 C234.956809,198.474915 237.331007,198.633873 238.317096,197.256235 C239.303185,195.874813 241.874602,194.735612 240.888513,192.373948 C240.520626,191.484539 239.985862,191.13256 239.31077,191.13256 M283.533066,168.776225 C282.948998,168.791364 282.061518,168.863274 280.874418,169.105496 C276.141192,170.093307 274.00593,170.1198 271.836534,172.087854 C269.663346,174.055908 266.29168,175.668198 262.54075,177.632467 C259.779701,177.632467 261.979438,180.944096 263.955408,182.51854 C265.923793,184.092983 266.098255,183.097602 266.689909,181.523158 C267.281562,179.948715 268.316955,179.339376 270.091915,181.110624 C271.866875,182.885657 269.852978,185.860446 270.839067,187.238084 C271.825156,188.615722 274.77963,187.029925 275.568502,189.391589 C276.357373,191.753254 276.573554,192.20742 279.133592,190.632977 C281.697423,189.058534 281.924982,189.054749 283.699942,186.492494 C285.47111,183.934024 287.852894,181.538297 288.842775,179.373438 C289.828864,177.208579 286.999548,173.836394 286.60132,174.820421 C286.206884,175.804448 284.871871,177.976877 282.702476,175.815802 C280.53308,173.647158 283.115874,173.662297 283.115874,172.087854 C283.115874,170.513411 282.129786,173.113513 281.541925,171.342265 C280.950271,169.571016 281.507791,170.888098 283.282751,170.100877 C284.613971,169.510461 285.281477,168.730808 283.533066,168.776225 M303.2776,167.035254 C302.393913,167.054178 301.324386,167.171504 300.04247,167.36831 C297.675857,167.76192 298.074085,167.996573 298.464728,169.767821 C298.862956,171.542855 298.859163,172.314937 301.61642,171.921327 C304.381261,171.527716 303.83512,173.855318 306.596169,175.232956 C309.357218,176.614378 310.309173,176.394864 309.914737,173.245978 C309.520302,170.097092 308.299068,170.153863 307.510197,168.776225 C306.918544,167.742997 305.921077,166.993623 303.2776,167.035254 M36.9615311,0.0458856057 C35.209327,0.375156153 33.335758,2.36591831 31.6556142,3.11150794 C30.0209822,3.78897263 28.192925,4.71244405 26.2624663,5.67754738 C25.6746056,8.76587803 26.0462853,9.46983575 27.2561405,9.90129371 C28.636665,10.3933072 28.0488043,12.1645556 27.7529777,13.545978 C27.457151,14.919831 26.0197367,9.28816924 24.9350389,11.0594177 C23.8465485,12.8306662 23.4596982,10.5560501 20.2018121,11.6384797 C17.0084011,12.7019857 14.3876801,12.8041731 12.9881924,11.2221606 C12.1158829,11.4303202 11.3080486,11.5779242 10.4964215,11.6384797 C8.50148779,11.8882712 6.93512346,11.1426815 4.19303773,11.6384797 C3.94272285,11.6384797 2.94525598,12.1342779 3.19557086,12.6300761 C3.94272285,13.129659 6.18417882,12.3802846 5.93386394,13.129659 C5.68354906,14.3710468 -1.28734108,11.8655628 0.210755548,20.0821876 C0.605191117,22.4514217 1.32200191,23.7344414 2.20189664,24.4686769 C1.80746107,26.8757581 1.58369474,27.6970421 2.94904863,26.7924943 C4.62160715,25.6760022 4.45093791,27.5115909 6.68101593,26.9552372 C8.91109395,26.3988835 6.41553045,28.4426318 5.02362801,28.8589509 C3.62793293,29.2790547 3.68103002,31.4136361 2.28154228,32.6663781 C0.889639844,33.9191201 2.6721852,34.2067587 2.53185716,35.3194661 C2.39152912,36.4283887 3.91996695,33.7828702 6.84789252,32.2538437 C8.89213071,31.186553 7.48505767,31.6482887 8.67215702,32.4203714 C8.2815141,32.6625934 7.89087119,32.8896765 7.67469015,33.2492248 C6.92753816,34.2408212 7.42816792,35.5616881 6.92753816,36.5608539 C6.68101593,36.8068606 4.18924508,33.5747106 4.43955996,36.061271 C4.68987484,37.0604368 5.43323418,38.2980399 6.43070105,38.7938381 C7.6784828,39.2896362 11.2435735,37.2988741 10.9932586,38.7938381 C10.4964215,40.5348088 7.18164569,39.7854344 5.68354906,40.7808155 C4.68608219,41.7799813 5.18671195,44.0091807 6.43070105,43.763174 C7.92879768,43.5133826 9.49895466,42.0222033 10.9932586,41.7761966 C11.7442033,41.5264051 10.7467364,42.7677929 10.2461066,43.0175844 C8.50148779,44.5087636 4.68987484,43.7556046 4.19303773,45.9961582 C3.94272285,46.4957411 4.94018972,47.4835527 4.43955996,47.7371289 C3.94272285,48.2367118 2.44841887,46.4919564 2.69873375,47.237546 C2.69873375,49.2283082 5.43702683,50.9579247 4.94018972,52.9524716 C8.67974232,50.9579247 14.9679555,49.4743149 19.4584528,50.4659112 C19.9552899,50.7157027 18.7075081,51.7110838 18.957823,52.2030972 C19.4584528,52.7026801 20.452127,52.2030972 20.9489641,52.7026801 C23.9451574,55.6888234 12.2258698,56.6652809 18.2144637,60.8965966 C20.4559196,62.3953453 23.4369423,58.9134039 24.684724,58.6636125 C24.9350389,58.413821 24.684724,59.4092021 24.684724,59.6552088 C24.684724,60.1547917 24.1840943,60.6505899 24.4344092,60.8965966 C25.9325058,61.1501728 27.6657467,60.6505899 29.1638433,60.8965966 C30.1613102,60.8965966 31.4052993,61.1463881 31.6556142,62.1379844 C32.1524513,62.6375673 30.1575176,63.1333655 30.6581473,63.383157 C31.4052993,63.8789551 32.6454958,62.6337826 33.6429626,63.1333655 C34.6442222,63.3869417 38.3648115,66.8650984 41.8578419,63.8789551 C42.354679,63.383157 41.3572121,62.1417692 41.8578419,61.645971 C44.1030905,60.151007 43.9286286,62.6375673 44.9298881,63.1333655 C50.6643745,65.3777038 51.6352928,63.1295808 56.3761049,65.6161411 C57.3735718,66.115724 55.1283232,75.6342922 56.3761049,75.8840836 C58.1207238,76.1338751 64.5947768,75.622938 63.0966802,80.6036281 C61.0979538,86.0839011 54.1460269,86.3109843 50.4026816,88.3055311 L45.1764104,93.7668806 C44.1789435,94.2664635 42.3584716,92.7714995 41.6113196,93.5170891 L43.848983,99.5612853 C44.0992978,101.555832 42.6049939,103.531455 42.354679,105.522218 C42.1043641,107.266973 42.1081568,108.99659 41.3610048,110.73756 C41.1106899,111.486935 40.113223,111.486935 39.8667008,111.978948 C38.3686042,114.968876 41.1106899,112.720753 40.860375,115.211098 C40.6138528,118.696824 32.8958106,116.441132 33.6429626,121.17203 C34.3939073,126.402512 38.1334599,123.885674 34.6404295,130.857126 C31.6480289,136.583406 30.423003,136.159517 24.684724,134.668338 C22.4394754,134.168755 20.9565494,133.922748 18.7113008,133.177159 C18.210671,133.177159 17.2169968,132.431569 17.4673117,132.931152 C17.4673117,133.177159 21.4495939,140.875277 21.6999087,141.125069 C21.6999087,141.620867 19.9514972,146.824855 21.4495939,150.064575 C22.4470607,152.055337 27.1727022,155.279917 27.1727022,155.7795 C26.6758651,162.255154 21.7037014,161.812342 17.9641488,164.80227 C13.7201738,168.287996 17.9679414,166.036089 16.4698448,169.026017 C15.7226928,170.770772 13.9818666,172.000806 13.2347146,173.745561 C13.2347146,174.241359 14.7290186,173.741776 14.9793335,174.241359 C15.9768003,175.486532 15.9730077,177.216148 16.4698448,178.711112 C16.9704746,180.206076 16.716367,182.185484 17.9641488,183.180865 C19.2119305,183.926455 21.6961161,181.935693 22.4432681,183.180865 C25.4356687,188.161556 13.2385073,188.396208 12.7378775,188.646 C11.2397809,189.395374 11.497681,192.120372 9.99958442,193.365544 C1.76574192,200.586788 4.19303773,202.361821 3.69240797,212.822784 C6.93512346,212.822784 11.4900957,213.564589 12.4875626,214.064172 C13.7353444,214.809762 14.4749111,216.796739 15.9730077,216.546948 C16.4736375,216.546948 16.7201597,216.300941 16.9666819,215.801358 L16.9666819,216.297156 L23.6872572,222.757671 C24.6885167,223.999059 25.6783983,225.232877 26.4255503,226.731626 C27.0627154,227.995722 26.5924268,230.349817 27.5064554,231.197594 C26.2207472,232.083219 25.28017,232.900718 25.431876,233.354884 C25.5456555,233.699294 25.6935689,233.968009 25.9287131,234.263217 C26.0424926,238.430192 27.9084763,237.32127 29.1638433,237.98738 C29.1979772,238.002519 29.2169404,238.05172 29.2472816,238.070644 C30.3243941,240.099253 29.4255362,240.288489 27.6695394,239.47856 C27.7833188,239.857031 27.9464028,240.197656 28.0867308,240.55342 C28.0563896,240.542066 27.9198542,240.458802 27.9198542,240.473941 C28.4166913,242.964286 30.9008769,251.150633 32.6492884,252.891603 C33.3964404,253.637193 34.8869517,252.891603 35.6341037,253.637193 C36.8818855,254.632574 37.1246151,256.365975 38.1258746,257.611148 C38.8730266,258.356738 40.3597452,258.602744 41.3610048,259.348334 C42.1081568,259.847917 42.1043641,261.668367 42.8553087,261.418575 C44.8502425,260.672986 46.1700846,258.610314 47.6643886,257.361356 C48.6618554,256.615767 50.1523668,258.110731 50.4026816,257.857155 C52.6479303,254.62122 52.1321299,252.645597 56.6226272,250.408828 C62.1143839,247.668691 67.0675844,252.153583 71.0612445,250.654835 C73.8071229,249.409662 75.2824637,245.693068 78.2786569,244.943694 C81.0245353,244.444111 95.7779426,246.677095 99.0206581,247.922267 C100.765277,248.42185 101.755159,249.909245 103.499777,250.408828 C106.742493,250.904626 109.962452,249.163655 112.958646,249.91303 C115.203894,250.159036 120.502226,254.382783 122.747475,253.637193 C124.492093,253.13761 125.23166,251.154417 126.729757,250.654835 C134.216447,248.664072 135.183573,256.873128 138.175974,255.128372 C146.163294,251.143063 146.208806,241.476891 153.942018,236.499986 C158.432516,233.510058 164.633498,231.027282 169.871147,232.526031 C171.118929,232.772038 172.355333,234.01721 173.603114,234.01721 C175.601841,234.263217 178.328756,234.516793 179.083493,232.772038 C179.576538,231.027282 175.598048,230.293047 175.598048,228.302285 C175.84457,220.331666 180.319897,225.997391 182.314831,221.016701 C183.061983,219.521737 181.567679,217.296322 182.565146,215.801358 C183.312298,214.556185 185.383084,215.555351 186.380551,214.55997 C187.131496,213.560804 186.376759,211.581396 187.378018,210.336224 C187.874855,209.840426 189.115052,210.835807 189.865996,210.336224 C190.863463,209.586849 190.359041,207.853448 191.109985,207.107858 C192.854604,205.862686 195.084682,205.620464 197.083409,205.120881 C197.584038,205.120881 198.327398,205.866471 198.828028,205.366888 C199.321072,205.120881 199.321072,203.883278 199.821702,203.383695 C201.566321,202.138523 205.791332,201.650294 207.539744,200.151545 C209.7812,198.660366 200.572646,193.365544 199.821702,192.373948 C197.576453,189.134228 194.83816,177.231287 196.833094,173.491985 C201.327384,164.283764 210.509389,157.285818 217.495449,150.064575 C219.98722,147.578014 221.052955,143.361837 224.045355,141.125069 C224.545985,140.875277 232.260235,139.138091 232.260235,138.392502 C232.506757,136.647746 228.778582,136.905107 228.03143,135.160352 C227.5308,132.923583 231.012453,131.6065 232.757072,130.111536 C239.492818,124.635048 254.724099,126.394942 263.204464,123.904597 C265.449712,123.405015 267.683583,119.684636 269.177887,118.689255 C271.176613,116.944499 275.39404,115.956688 278.139918,114.961307 C281.132319,113.716134 291.911029,109.503742 293.158811,106.763605 C295.650582,102.53229 291.660714,96.7492391 292.658181,95.753858 C293.905963,94.5086855 297.1373,95.0158378 297.634137,93.0250757 C298.134767,91.526327 297.141093,90.2925086 295.893311,89.0473361 L294.899637,89.0473361 C290.905977,88.051955 286.362383,85.8114014 282.619037,88.3055311 C281.871885,88.8013293 282.873145,90.7883068 281.871885,91.0343135 C279.380114,91.7799031 275.158895,86.8143519 272.663332,86.8143519 C270.418083,86.8143519 268.688635,88.051955 266.689909,88.3055311 C265.195605,88.5515379 264.949082,85.8189708 264.448453,85.3193879 C263.200671,84.3277915 261.220908,83.8357781 259.472496,83.0901885 C251.739283,85.3269573 252.255084,81.8488006 253.499073,79.3622403 L253.499073,79.1124489 C252.255084,78.3668592 252.918798,76.1376598 251.674808,75.138494 C250.923864,74.3929043 249.437145,74.3966891 248.189363,74.1431129 C247.688734,74.1431129 246.945374,74.3966891 246.698852,74.1431129 C243.952974,71.6565526 241.480166,68.6855482 237.239984,67.9361738 C234.247583,67.4403757 235.499157,73.1553013 235.499157,73.1553013 C232.753279,72.9017251 230.523201,70.9185324 228.03143,71.1645391 C227.280486,71.1645391 227.284278,72.6557184 226.533334,72.6557184 C225.03903,72.4059269 224.29567,70.6687409 222.801366,70.4189495 C221.30327,70.1729427 220.317181,71.664122 218.819084,71.4143305 C215.576369,71.4143305 216.748297,68.1064862 215.003679,66.6115222 C211.510648,63.625379 208.290689,68.1102709 205.047973,65.6161411 C204.797658,65.6161411 202.313473,59.908785 202.059365,59.6552088 C198.820442,57.1686485 193.359027,58.4251752 189.865996,55.1892405 C189.365367,54.6896576 190.116311,53.4520545 189.865996,52.9524716 C189.365367,52.4528887 187.878648,55.1892405 186.380551,54.6896576 C183.137836,53.1946936 190.366626,50.227474 188.121377,47.7371289 C187.374225,46.7379631 185.887507,46.2459496 184.635932,45.9961582 C184.38941,45.9961582 184.639725,47.2413307 184.142888,46.9915393 C184.142888,46.9915393 181.321157,44.5087636 179.826853,43.0175844 C175.08604,44.2627569 168.137906,44.5087636 164.891398,42.7677929 C163.643616,42.0222033 162.90405,40.2850173 161.405953,39.5394277 C160.912909,39.1647405 160.161964,39.3842542 159.418605,39.5394277 C158.500783,39.0928308 157.567792,38.6802965 156.76375,38.3813037 C156.502057,37.8855055 156.39207,37.4048462 156.346558,37.0566521 C154.954656,37.2231797 153.28589,37.0642215 150.957203,36.5608539 C150.923069,36.4965137 150.904106,36.451097 150.873765,36.3943262 C150.304867,36.5911316 149.770104,36.8447078 149.462899,37.3064435 C148.962269,37.8022417 150.210051,39.5394277 149.462899,39.5394277 C147.467965,39.5394277 141.919319,34.2408212 139.920592,33.745023 C140.170907,33.4952315 140.41743,32.9994334 140.41743,32.7534266 C140.24676,32.4128019 140.011616,32.0948855 139.753716,31.8413094 C137.208848,32.2349201 136.150699,31.3000946 134.364361,32.2538437 C132.270818,33.3665511 131.007866,33.5065857 132.122905,32.2538437 C133.237944,31.0011018 132.232892,30.7096784 128.887774,30.8459283 C128.792958,30.5280119 128.78158,30.3009288 128.720898,30.0170748 C128.220268,30.270651 128.224061,31.2584627 127.727224,31.5120388 C119.493381,33.9985992 103.264633,26.0544741 97.029517,21.8231584 C96.282365,21.3235755 94.7880611,23.0645462 94.2912239,22.3189565 C93.7905942,22.0729498 95.2886908,21.3273602 94.7880611,20.8277773 C93.2899644,19.336598 90.3127344,20.831562 88.8146378,19.5863895 C87.3165412,18.3412169 87.0776042,15.3664279 85.3329854,14.866845 C83.334259,14.3672621 81.6010181,16.8576071 79.6060843,16.8576071 C78.1117803,16.8576071 77.2887754,15.3664279 75.7906787,14.866845 C74.2925821,14.6208382 71.0650372,15.3664279 69.3166257,15.1166364 C62.3305649,14.1212553 66.1004587,13.8790333 59.114398,12.1380626 C58.7123771,12.0547988 58.4127578,12.2970208 58.1169311,12.6300761 C54.9766172,12.1267084 53.2471689,11.8352851 51.8135473,10.5636195 C49.4886531,6.62372711 48.2257007,1.1245305 43.5986681,1.1245305 C41.6037343,1.1245305 40.3673305,4.68595102 38.3723968,4.43615957 C37.1246151,4.18636812 39.6201786,1.1245305 38.6227117,0.378940872 C38.0613995,0.00425369739 37.5455992,-0.0600865245 36.9615311,0.0458856057" id="Fill-1" fill="#FFFFFF" mask="url(#mask-2)"></path>
        </g>
        <g id="Group-5" transform="translate(97.000000, 120.000000)">
            <path d="M19.5007728,0 C30.2704791,0 39,8.72986684 39,19.5 C39,30.2701332 30.2704791,39 19.5007728,39 C8.73106646,39 0,30.2701332 0,19.5 C0,8.72986684 8.73106646,0 19.5007728,0 Z" id="Stroke-1" stroke="#E75F52"></path>
            <path d="M19.5,13 C23.0899976,13 26,15.910354 26,19.5007853 C26,23.089646 23.0899976,26 19.5,26 C15.9100024,26 13,23.089646 13,19.5007853 C13,15.910354 15.9100024,13 19.5,13" id="Fill-3" fill="#E75F52"></path>
        </g>
    </g>
</svg>