<?xml version="1.0" encoding="UTF-8"?>
<svg width="318px" height="300px" viewBox="0 0 318 300" version="1.1" xmlns="http://www.w3.org/2000/svg" xmlns:xlink="http://www.w3.org/1999/xlink">
    <!-- Generator: Sketch 64 (93537) - https://sketch.com -->
    <title>4</title>
    <desc>Created with Sketch.</desc>
    <g id="4" stroke="none" stroke-width="1" fill="none" fill-rule="evenodd">
        <polygon id="Path" fill="#FFFFFF" points="229.768595 2.55643168 228.357855 2.78298223 228.076293 6.12239614 226.950047 9.91785336 223.849938 15.622808 225.54224 16.0700247 225.260678 17.97658 223.849938 19.2064258 224.694622 21.3424738 223.286815 24.0375427 223.00232 27.0768507 223.849938 28.0919148 223.286815 31.4784041 224.413061 35.7740379 223.00232 39.5106508 222.157636 43.2590326 222.720759 44.2829234 220.749828 49.5259503 219.905144 50.3262328 217.93128 55.7016594 215.394294 57.1933624 211.446567 57.7670943 205.809471 54.8984347 203.835607 51.2383194 201.014126 50.2085442 197.350894 49.5259503 194.813907 47.357538 193.687661 45.8776039 190.869113 44.7389667 187.766071 42.6911851 186.073769 42.9177357 182.128975 40.0784983 182.128975 39.0575497 175.928756 35.2061904 175.3627 33.2849241 178.181248 29.6718842 179.310427 29.1040367 180.158044 25.8411204 179.028865 24.2640932 179.310427 22.0132988 179.87355 21.3424738 182.410536 20.7805108 183.536782 21.2306696 185.229084 19.0946216 184.102838 18.1972461 185.513579 16.7408497 185.79514 15.1726492 187.484509 14.39002 186.921386 13.1601742 185.513579 13.6073908 183.536782 10.9240909 181.562919 12.9365658 182.976592 13.4955867 182.128975 14.9490408 180.436673 15.0637872 179.310427 12.6011533 177.902619 13.9428033 177.055002 11.035895 175.644261 12.2657408 172.825713 13.4955867 171.133411 12.377545 170.573221 10.9240909 169.162481 11.9303284 166.625494 11.1506414 166.062371 11.4831117 164.933192 10.2503236 164.085575 10.7004825 162.959329 9.1352242 161.551521 10.0325997 158.166917 9.1352242 156.193054 6.23420031 154.222123 7.46404613 152.529821 5.23090503 150.274396 4.44827586 148.300533 5.34565141 149.429712 7.5758503 151.682204 6.9050253 153.374506 8.35553725 153.656067 11.7037778 152.24826 13.2719783 150.555958 13.04837 149.14815 13.8309992 148.018971 13.1601742 144.918862 13.8309992 143.511054 12.8218195 140.971135 12.7129575 139.560394 14.9490408 137.871025 14.5018242 137.589464 15.9582205 135.897162 16.7408497 135.6156 18.647405 134.20486 18.9857597 134.20486 20.6657644 135.052477 21.6778863 134.20486 23.1401671 131.952368 23.590326 130.823189 27.6417559 129.130887 28.203719 128.004641 30.7958103 129.978504 32.1551136 131.107683 33.9616335 129.978504 35.2061904 127.159956 34.4176768 125.752149 34.6383429 121.52286 33.6232788 118.138256 36.6802401 118.985874 33.1731199 115.882831 30.4574556 114.756585 28.9951748 112.219599 26.7414382 110.808858 27.3034012 109.401051 25.2762151 107.708749 25.8411204 108.274805 27.4152054 106.298008 29.1040367 105.734885 27.5299517 104.608639 27.8683065 103.763955 29.3335295 102.91927 29.1040367 101.790091 30.5751442 102.071653 31.5902083 100.660912 31.928563 97.8423642 31.4784041 96.1529951 32.1551136 95.3053777 33.3967283 95.5869392 35.0943863 96.9976796 35.7740379 96.7161181 36.9038484 95.0238162 35.8858421 93.8946372 36.6802401 93.3315142 38.3778981 91.3605836 37.6982464 91.6421451 39.5106508 89.9498431 39.3988467 89.1051586 41.2141932 90.7974606 44.5124161 89.1051586 45.5363069 89.3867201 46.4454513 87.9759797 47.016241 87.1312951 45.9923502 85.4389932 46.5601977 84.3127471 45.0802636 82.9020066 45.0802636 83.4651297 46.7896905 82.9020066 49.1846534 84.5943086 51.9267977 82.9020066 51.9267977 83.4651297 53.4126162 82.9020066 54.8984347 81.4912662 54.668942 79.5203356 50.4409792 77.5464721 47.9283276 76.4172932 48.7256679 76.7017876 49.9819936 75.0094856 50.2085442 74.1648011 51.8120513 72.7540606 52.7241379 71.9093761 54.0981523 71.6278146 56.6166882 71.9093761 59.7177827 73.3171836 60.1767683 73.0385551 61.4419207 69.9355126 64.0899141 67.6800876 66.17006 66.8354031 69.0563728 64.2984166 72.4163823 62.3216202 73.8080499 56.6845241 76.0147111 53.3028531 76.5943274 51.3289896 77.4122632 48.5133745 76.479581 47.3812626 76.712016 45.4103321 79.0422502 41.7470996 79.8572437 40.0547976 79.8572437 36.9546881 82.311051 33.8516456 82.8936095 32.1622765 81.8432388 30.1884131 82.7759209 29.062167 81.9579852 26.5251805 83.7115453 24.8328785 83.9439802 22.8590151 85.7004825 21.7298361 87.2245498 18.9112881 89.5753795 14.966494 91.1023891 12.711069 92.3969636 10.7372055 96.7602683 9.04490357 96.4101448 8.20021904 95.112628 5.94479405 96.5248911 4.81561508 98.5373661 6.22928849 102.568201 5.66323254 103.521478 5.66323254 106.499 4.5369865 107.569966 3.12624603 111.159468 3.12624603 115.355066 4.5369865 117.040956 5.38167103 120.415676 8.76334206 126.229493 9.61095951 126.712016 8.48178055 131.949159 6.78947857 129.145228 5.38167103 129.386489 5.66323254 127.200424 3.97093056 124.773096 3.12624603 125.741085 5.09717659 129.995528 6.78947857 131.095916 6.22928849 133.293751 4.81561508 133.170178 3.40780754 129.877839 2 131.581382 4.25249206 134.029304 7.63709603 139.672473 8.76334206 142.997175 8.76334206 146.710251 11.8634516 150.438037 12.1450131 152.680005 14.1218095 155.428033 15.2480555 158.935154 14.966494 160.573967 15.2480555 165.616924 16.9403575 171.201247 20.8851516 178.745087 21.1667131 181.316582 21.1667131 186.227139 20.040467 188.171943 20.8851516 193.909262 18.9112881 196.919148 14.966494 197.707662 15.2480555 201.526656 16.3743016 204.039308 18.0666036 203.774509 20.3220285 204.966106 23.988194 208.688008 28.2145496 210.818171 33.8516456 210.55043 35.8255091 211.621396 36.391565 210.685771 42.0257281 209.352948 42.5917841 207.622926 44.5627146 206.957985 46.2550166 204.966106 48.7949361 205.763446 50.2027436 205.098505 52.1766071 201.526656 54.9951551 200.076145 58.0952646 200.470401 59.2244436 199.681888 66.8354031 199.022832 69.0878952 199.811345 70.4986356 199.155231 71.9093761 201 73.0385551 200.076145 78.9542797 199.55243 79.5203356 200.735201 80.9281432 199.811345 82.3388836 200.208544 85.7205547 196.657291 87.1312951 192.470519 89.1051586 190.905261 91.6421451 190.384489 93.8946372 188.822173 98.1239257 187.133341 100.942474 185.062022 103.197899 184.15582 107.145626 184.932564 111.938037 184.54125 117.575133 182.737672 125.186093 179.130517 134.489354 178.103684 139.560394 178.359656 142.381875 177.203366 145.200423 178.359656 150.555958 182.346358 153.374506 181.44604 155.066808 181.575497 157.885356 183.896905 160.988398 183.640932 163.24089 184.285277 165.499248 186.227139 166.907056 188.3014 164.933192 188.692715 166.625494 192.861834 170.007165 192.861834 170.854783 194.691891 171.133411 197.316347 174.236454 200.735201 175.3627 205.230905 174.799577 207.222785 177.055002 209.085207 178.747304 209.085207 179.591988 205.895846 181.84448 203.642109 182.976592 201.394257 184.947523 199.811345 189.739934 197.442862 191.432236 192.599976 195.095469 189.340002 195.940153 192.729434 194.250784 193.776862 195.379963 196.263034 192.558482 199.55243 191.432236 202.321054 191.995359 206.690244 191.432236 209.485348 188.332127 209.352948 186.639825 212.692362 189.176811 212.55702 191.150675 211.488996 193.121605 212.024479 195.940153 203.642109 197.91695 204.966106 199.88788 207.755325 199.043196 213.630929 196.787771 215.643404 197.069332 216.717312 199.88788 216.44957 203.272484 215.508062 207.217278 218.876898 210.317388 226.061787 210.317388 227.424032 208.90958 229.204072 209.472703 231.531364 211.446567 234.555961 213.417497 236.34777 214.265115 238.424974 217.083663 240.363893 220.465334 240.922914 223.568376 243.98576 224.413061 242.452866 226.668486 242.452866 228.923911 243.706249 230.334651 243.288455 233.434761 245.383312 235.405691 245.942333 239.071857 248.187243 241.60591 246.504296 243.298212 244.544781 245.835199 242.59115 247.809062 242.452866 248.375118 241.199482 246.964378 240.505119 250.346049 238.563258 251.475228 241.199482 254.293776 242.035071 254.012214 243.844533 255.141393 246.224785 256.267639 246.080617 257.67838 248.746263 259.086187 247.90479 261.623174 251 262.18923 248.88749 260.778489 248.746263 259.930872 247.204543 265.286406 246.080617 270.926435 240.363893 273.463422 238.839826 276.563531 237.871837 285.585231 237.454043 288.119285 235.106155 289.530025 234.555961 289.811587 231.943274 288.966902 229.065788 290.940766 223.069554 290.940766 218.876898 295.167121 210.953513 296.859423 206.425444 296.859423 203.906908 299.680904 200.340944 299.959533 196.78969 300.80715 196.263034 304.191754 190.125574 306.162685 189.472402 307.007369 188.042486 309.547289 186.097682 309.262794 183.511475 311.236658 180.545722 312.644465 177.203366 313.776577 171.836766 313.210521 170.439214 315.747508 160.947629 316.029069 157.558197 316.873754 154.930799 318 153.427327 317.718438 148.078381 316.310631 145.350947 316.592192 143.988702 315.184385 141.025891 313.776577 139.5489 314.336767 136.233023 313.776577 130.486878 314.902823 127.685889 312.362904 125.379193 312.92896 123.678592 312.644465 121.866188 310.673535 121.501353 308.699671 117.158644 306.444246 116.075909 304.751944 112.595269 302.781014 110.559256 302.214958 111.277157 296.014739 105.663411 295.733177 103.521478 296.299233 99.6053901 295.733177 97.713546 294.322437 96.4101448 293.474819 98.0636695 291.503889 97.00153 290.096081 94.8713664 288.403779 96.8808991 286.711477 95.701071 285.30367 91.9262093 285.585231 91.3377663 283.611368 85.9358597 280.79282 83.8262916 279.100518 81.490173 280.79282 79.7424974 278.818956 78.2272567 276.28197 77.5270095 276.28197 76.5943274 274.589668 75.7822761 271.489558 75.4350947 269.797256 71.8338237 267.263203 71.9515123 266.697147 70.5627869 265.570901 71.0217724 264.16016 69.9831705 261.907668 68.9416265 260.496928 67.4381546 261.060051 64.554784 258.523064 62.3628339 258.523064 61.5566671 259.64931 57.1933624 257.393885 52.2680946 253.730653 47.357538 254.293776 44.2829234 253.449091 43.0324821 252.601474 39.9666941 252.319912 34.2999882 250.912105 34.0763799 249.785859 32.4934683 248.093557 32.0403672 247.245939 29.6718842 246.401255 29.4453336 242.453528 31.5902083 241.04572 30.7958103 240.198103 27.6417559 239.071857 25.5027657 239.63498 23.6991879 239.071857 22.1280452 238.790295 18.3119925 237.945611 18.1972461 238.227172 16.293633 236.816432 14.5018242 235.405691 14.0575497 236.53487 11.2565611 233.997884 10.1444039 233.434761 7.23749559 233.997884 6.46075085 232.868705 3.22725668 231.460897 2.11215723 231.460897 1"></polygon>
        <polygon id="Path" fill="#CCCCCC" points="140.908575 6.35522388 137.637137 6.69253731 137.092371 5.67462687 136 5.33731343 137.092371 8.73432836 140.639029 11 143.090479 9.29850746 145 7.26268657 144.18285 5.45373134 143.090479 5"></polygon>
        <polygon id="Path" fill="#CCCCCC" points="134.4905 8.55040872 136.7975 10 135.9305 7.20708447 134.2025 7"></polygon>
        <polygon id="Path" fill="#CCCCCC" points="184.2025 26.2788578 184.2025 29.4198056 185.6425 30 186.7975 26.3942892 186.2215 25"></polygon>
        <polygon id="Path" fill="#CCCCCC" points="205.251625 47.6855 204 49.6625 205.563719 49.8965 209 47.5685 208.063719 47.1035"></polygon>
        <polygon id="Path" fill="#FFFFFF" points="314.634816 117.709302 314.910123 119.5 313.544939 120.930233 313.820246 122.125 313 124.040698 313.820246 125 316 119.380814 315.452223 117"></polygon>
        <polygon id="Path" fill="#CCCCCC" points="-1.364 125.331374 -0.5 128 0.364 127.515062 -1.076 124"></polygon>
        <polygon id="Path" fill="#FFFFFF" points="316.068 137.2445 316.644 139.8785 316.932 137.1215"></polygon>
        <polygon id="Path" fill="#FFFFFF" points="190.283874 216 184.288333 217.801092 184 219.332323 185.429775 220.724075 189.427793 219.887204 191.142928 221 193.711172 218.913887 196 219.332323 196 217.801092 192.28437 217.385688 192.56973 216"></polygon>
        <polygon id="Path" fill="#FFFFFF" points="241.345 256.806812 241.924 261 243.076 260.184813 243.655 259.643216 243.076 256"></polygon>
        <polygon id="Path" fill="#FFFFFF" points="273 260.445361 274.751084 263 276 262.548454 276 259.693814 273.499566 257"></polygon>
        <polygon id="Path" fill="#FFFFFF" points="273.060101 268.750288 271.369899 268.167849 270.242121 269.918137 266.864646 269.623946 262.078182 271.528758 257.291717 269.918137 256.729293 269.041507 249.124848 267 248 269.775498 250.536768 277.275882 252.786465 280.090012 253.914242 282.918999 253.067677 283.216162 253.067677 286.957439 255.039091 290.722488 256.448081 291.777416 257.572929 294.350844 258.981919 294.653949 258.981919 297.239264 260.953333 296.478528 264.330808 298 266.02101 297.848447 266.302222 296.324003 269.398485 290.419383 271.369899 289.212903 273.622525 289.513037 274.750303 283.216162 276.437576 278.310008 277 269.775498 274.466162 267"></polygon>
        <polygon id="Path" points="231.458768 1 231.458768 2.11215723 232.866562 3.22725668 233.995731 6.45780864 233.432613 7.23749559 233.995731 10.1414617 236.532694 11.2565611 235.406458 14.0546075 236.814252 14.5018242 238.22498 16.293633 237.943421 18.2001883 238.788098 18.3119925 239.069656 22.1280452 239.635707 23.7021302 239.069656 25.5027657 240.195892 27.6417559 241.043502 30.7987525 242.454229 31.5872661 246.398986 29.4453336 247.243663 29.6718842 248.091273 32.0433094 249.783559 32.4934683 250.909795 34.0763799 252.317589 34.2999882 252.599148 39.9666941 253.446758 43.0324821 254.291434 44.2829234 253.728316 47.357538 257.394448 52.2680946 259.646919 57.1933624 258.520683 61.5566671 258.520683 62.3628339 261.057646 64.554784 260.494529 67.4381546 261.902323 68.9416265 264.157727 69.9802283 265.568455 71.0247146 266.69469 70.5627869 267.260741 71.9515123 269.797704 71.8338237 271.487057 75.4350947 274.590071 75.7822761 276.279424 76.5943274 276.279424 77.5270095 278.816387 78.2272567 280.790232 79.7424974 279.097946 81.490173 280.790232 83.8262916 283.608754 85.9358597 285.582599 91.3377663 285.30104 91.9262093 286.708835 95.701071 288.401121 96.8808991 290.093407 94.8713664 291.501202 97.00153 293.475047 98.0636695 294.322657 96.4101448 295.730451 97.7106037 296.293569 99.6053901 295.730451 103.521478 296.01201 105.663411 302.215104 111.277157 302.778222 110.559256 304.752067 112.595269 306.441421 116.075909 308.696825 117.158644 310.67067 121.501353 312.644515 121.866188 312.926074 123.678592 312.360023 125.37625 314.899919 127.685889 313.770751 130.486878 314.333869 136.233023 313.770751 139.5489 315.181478 141.025891 316.589273 143.988702 316.307714 145.350947 317.718441 148.075438 318 153.43027 316.873764 154.927857 316.026155 157.558197 315.744596 160.947629 313.207633 170.439214 313.770751 171.836766 312.644515 177.206308 311.233788 180.545722 309.259943 183.511475 309.544434 186.097682 307.004539 188.042486 306.159862 189.475344 304.186017 190.122632 300.804377 196.263034 299.956767 196.78969 299.678142 200.340944 296.856687 203.906908 296.856687 206.425444 295.167333 210.953513 290.938084 218.876898 290.938084 223.072496 288.964239 229.065788 289.811849 231.943274 289.527357 234.555961 288.119562 235.106155 285.582599 237.454043 276.560983 237.871837 273.460902 238.839826 270.923939 240.363893 265.286896 246.083559 259.931411 247.204543 260.776088 248.746263 262.186815 248.88749 261.620764 251 259.083801 247.90479 257.673074 248.746263 256.265279 246.083559 255.139044 246.224785 254.009875 243.844533 254.291434 242.035071 251.472912 241.199482 250.346677 238.563258 246.962104 240.505119 248.372832 241.199482 247.809714 242.449924 245.835869 242.59115 243.298906 244.541838 241.606619 246.501353 239.069656 248.187243 235.406458 245.942333 233.432613 245.383312 230.332532 243.288455 228.921805 243.706249 226.666401 242.449924 224.410997 242.449924 223.56632 243.98576 220.463306 240.922914 217.081667 240.363893 214.263145 238.422031 213.418468 236.34777 211.444623 234.555961 209.470778 231.531364 208.90766 229.204072 210.318387 227.424032 210.318387 226.061787 207.215374 218.876898 203.270616 215.508062 199.886044 216.452513 197.067522 216.717312 196.785963 215.643404 199.041367 213.630929 199.886044 207.752383 197.912198 204.966106 195.941286 203.642109 193.122764 212.024479 191.148919 211.488996 189.175074 212.55702 186.638111 212.692362 188.330397 209.352948 191.430478 209.485348 191.993596 206.690244 191.430478 202.321054 192.556714 199.549488 195.378168 196.263034 194.249 193.776862 195.941286 192.729434 195.09661 189.342945 191.430478 192.599976 189.738192 197.445804 184.948758 199.811345 182.974913 201.394257 181.845744 203.642109 179.59034 205.895846 178.745663 209.088149 177.053377 209.088149 174.797973 207.222785 175.364024 205.230905 174.234855 200.735201 171.134774 197.316347 170.853216 194.691891 170.005606 192.861834 166.623966 192.861834 164.93168 188.692715 166.905525 188.3014 165.497731 186.227139 163.242327 184.285277 160.986923 183.640932 157.886842 183.896905 155.065387 181.575497 153.373101 181.44604 150.557512 182.3493 145.199094 178.359656 142.380572 177.206308 139.56205 178.359656 134.488125 178.103684 125.184949 179.130517 117.57406 182.737672 111.937017 184.544192 107.14465 184.932564 103.199892 184.15582 100.944488 185.062022 98.1259664 187.136283 93.8967172 188.822173 91.6413131 190.384489 89.1043502 190.905261 87.130505 192.470519 85.7227105 196.657291 82.338138 200.208544 80.9274106 199.811345 79.5196161 200.735201 78.9564983 199.549488 73.0349628 200.076145 71.9087272 201 70.4979999 199.155231 69.0902054 199.811345 66.8348013 199.022832 59.2239125 199.678946 58.094744 200.470401 54.9946632 200.076145 52.1761414 201.526656 50.2022962 205.098505 48.7945017 205.763446 46.2575388 204.966106 44.5652525 206.957985 42.5914073 207.622926 42.0282895 209.352948 36.3912458 210.688714 35.8251951 211.621396 33.8542829 210.553372 28.2143063 210.818171 23.9879899 208.688008 20.3218585 204.966106 18.0664544 203.774509 16.3771011 204.039308 15.2479326 201.526656 14.9663737 197.707662 18.9111311 196.919148 20.8849763 193.90632 20.0402996 188.171943 21.1665352 186.227139 21.1665352 181.316582 20.8849763 178.745087 16.9402189 171.20419 15.2479326 165.616924 14.9663737 160.571025 15.2479326 158.938096 14.1187641 155.428033 12.1478518 152.680005 11.86336 150.438037 8.76327928 146.710251 8.76327928 143.000118 7.63704371 139.672473 4.25540406 134.029304 2 131.584324 3.40779447 129.877839 4.81852185 133.17312 6.22924923 133.293751 6.78943412 131.095916 5.10008075 129.99847 3.12623558 125.741085 3.97384517 124.770154 5.66319854 127.200424 5.38163964 129.389432 6.78943412 129.145228 8.48172039 131.949159 9.61088887 126.714958 8.76327928 126.229493 5.38163964 120.415676 4.53696296 117.038013 3.12623558 115.355066 3.12623558 111.156526 4.53696296 107.572908 5.66319854 106.496057 5.66319854 103.521478 6.22924923 102.568201 4.81852185 98.5373661 5.94475743 96.5278334 8.2001615 95.1096858 9.04777108 96.4101448 10.7371245 96.7632105 12.7109696 92.3969636 14.9663737 91.1023891 18.9111311 89.5724373 21.7325859 87.2274921 22.8588215 85.7004825 24.8326666 83.9439802 26.52202 83.7115453 29.0619159 81.9609274 30.1881514 82.7759209 32.1619966 81.8432388 33.8542829 82.8936095 36.9543636 82.311051 40.0544444 79.8572437 41.7467306 79.8572437 45.4099292 79.039308 47.3837744 76.712016 48.5129428 76.479581 51.3285318 77.4122632 53.302377 76.5943274 56.6869495 76.0147111 62.3239932 73.8080499 64.2978384 72.41344 66.8348013 69.0563728 67.679478 66.1671178 69.9348821 64.0899141 73.0349628 61.4419207 73.3194546 60.1767683 71.9087272 59.7177827 71.6271684 56.6166882 71.9087272 54.0981523 72.7534039 52.7241379 74.1641313 51.8120513 75.008808 50.2114864 76.7010943 49.9819936 76.4195354 48.7286101 77.545771 47.9283276 79.5196161 50.4409792 81.4934613 54.668942 82.9012558 54.8984347 83.4673065 53.409674 82.9012558 51.9267977 84.593542 51.9267977 82.9012558 49.1846534 83.4673065 46.7896905 82.9012558 45.0802636 84.3119831 45.0802636 85.4382187 46.5601977 87.130505 45.9923502 87.9751817 47.016241 89.3859091 46.4454513 89.1043502 45.5363069 90.7966364 44.5124161 89.1043502 41.2141932 89.9490269 39.3988467 91.6413131 39.513593 91.3568213 37.6982464 93.3306665 38.3778981 93.8967172 36.6802401 95.0229528 35.8858421 96.715239 36.9038484 96.9967979 35.7710957 95.5860706 35.0943863 95.3045117 33.3996705 96.1521213 32.1551136 97.8414746 31.4754619 100.659996 31.928563 102.070724 31.5872661 101.789165 30.5751442 102.915401 29.1069789 103.760077 29.3335295 104.607687 27.8683065 105.733922 27.5299517 106.299973 29.1069789 108.273818 27.4181476 107.707768 25.8381782 109.400054 25.2762151 110.807848 27.3034012 112.218576 26.7414382 114.755539 28.9951748 115.884707 30.4603978 118.984788 33.1731199 118.137178 36.6802401 121.521751 33.6232788 125.751 34.6412852 127.158795 34.4147346 129.977316 35.2061904 131.106485 33.9616335 129.977316 32.1551136 128.006404 30.7987525 129.13264 28.203719 130.821993 27.6417559 131.951162 23.590326 134.206566 23.1372249 135.051242 21.6778863 134.206566 20.6687066 134.206566 18.9828175 135.61436 18.647405 135.895919 16.7437919 137.588205 15.9582205 137.869764 14.5018242 139.56205 14.9490408 140.969845 12.7100153 143.509741 12.8247617 144.917535 13.8309992 148.017616 13.1601742 149.146784 13.8309992 150.557512 13.04837 152.246865 13.2719783 153.657593 11.70672 153.373101 8.35553725 151.683747 6.9050253 149.428343 7.57290809 148.299175 5.34565141 150.27302 4.45121808 152.528424 5.23090503 154.22071 7.46110392 156.194556 6.23420031 158.168401 9.13816641 161.55004 10.0296575 162.960768 9.13816641 164.087003 10.7004825 164.93168 10.2532659 166.060849 11.4831117 166.623966 11.1476992 169.160929 11.9303284 170.571657 10.9240909 171.134774 12.377545 172.824128 13.4955867 175.645583 12.2657408 177.053377 11.035895 177.900987 13.9428033 179.308781 12.5982111 180.43795 15.060845 182.127303 14.9490408 182.974913 13.4955867 181.564185 12.9365658 183.53803 10.9240909 185.508943 13.6073908 186.91967 13.1601742 187.482788 14.39002 185.793434 15.1726492 185.508943 16.7437919 184.101148 18.2001883 185.227384 19.0946216 183.53803 21.2306696 182.408862 20.7805108 179.871899 21.3424738 179.308781 22.016241 179.027222 24.2640932 180.153458 25.8381782 179.308781 29.1069789 178.179613 29.6718842 175.364024 33.2849241 175.927141 35.2061904 182.127303 39.0604919 182.127303 40.0784983 186.074993 42.9177357 187.76728 42.6911851 190.86736 44.7389667 193.685882 45.8776039 194.812118 47.357538 197.352014 49.5259503 201.015212 50.2114864 203.833734 51.2383194 205.807579 54.8984347 211.444623 57.7670943 215.38938 57.1933624 217.929276 55.7016594 219.903121 50.3262328 220.747798 49.5259503 222.721643 44.2829234 222.155592 43.2590326 223.003202 39.513593 224.410997 35.7710957 223.284761 31.4754619 223.847879 28.0919148 223.003202 27.0768507 223.284761 24.0375427 224.692555 21.3424738 223.847879 19.2064258 225.258606 17.97658 225.540165 16.0700247 223.847879 15.622808 226.947959 9.91785336 228.077128 6.12239614 228.358687 2.78004001 229.766481 2.55643168"></polygon>
        <polygon id="Path" points="137.092371 5.68025858 137.637137 6.69766285 140.908575 6.35753357 143.093317 5 144.18285 5.45648931 145 7.264545 143.093317 9.30233715 140.639029 11 137.092371 8.73247141 136 5.34012929"></polygon>
        <polygon id="Path" points="135.9335 7.20727273 136.7975 10 134.4905 8.54909091 134.2025 7"></polygon>
        <polygon id="Path" points="186.2215 25 186.7975 26.3942892 185.6425 30 184.2025 29.4198056 184.2025 26.2788578"></polygon>
        <polygon id="Path" points="209 47.57 205.563719 49.895 204 49.664 205.251625 47.687 208.063719 47.105"></polygon>
        <polygon id="Path" points="315.455061 117 316 119.383721 313.817408 125 313 124.040698 313.817408 122.127907 313.544939 120.93314 314.910123 119.502907 314.637654 117.715116"></polygon>
        <polygon id="Path" points="-1.076 124 0.364 127.515419 -0.5 128 -1.364 125.330396"></polygon>
        <polygon id="Path" points="316.6425 139.8785 316.0665 137.2475 316.9335 137.1215"></polygon>
        <polygon id="Path" points="192.572703 216 192.28437 217.385688 196 217.801092 196 219.332323 193.714144 218.913887 191.142928 221 189.427793 219.887204 185.429775 220.724075 184 219.332323 184.28536 217.801092 190.283874 216"></polygon>
        <polygon id="Path" points="243.0775 260.187605 241.9225 261 241.3465 256.806812 243.0775 256 243.6535 259.646008"></polygon>
        <polygon id="Path" points="273.499566 257 276 259.693814 276 262.548454 274.748482 263 273 260.445361"></polygon>
        <polygon id="Path" points="249.124962 267 256.727245 269.041311 257.289726 269.917857 262.076674 271.528324 266.863623 269.626665 270.244368 269.917857 271.36933 268.167737 273.059703 268.75012 274.465906 267 277 269.775232 276.437519 278.311895 274.747146 283.214607 273.622184 289.510879 271.36933 289.210774 269.397717 290.417138 266.301142 296.321192 266.019901 297.84549 264.329528 298 260.951712 296.475702 258.980099 297.236365 258.980099 294.651299 257.573896 294.348222 256.446005 291.775041 255.036872 290.717243 253.065259 286.955526 253.065259 283.214607 253.91191 282.917473 252.784019 280.088757 250.534094 277.274897 248 269.775232"></polygon>
        <g id="Group-5" transform="translate(140.000000, 99.000000)">
            <path d="M19.5007728,0 C30.2704791,0 39,8.72986684 39,19.5 C39,30.2701332 30.2704791,39 19.5007728,39 C8.73106646,39 0,30.2701332 0,19.5 C0,8.72986684 8.73106646,0 19.5007728,0 Z" id="Stroke-1" stroke="#E75F52"></path>
            <path d="M19.5,13 C23.0899976,13 26,15.910354 26,19.5007853 C26,23.089646 23.0899976,26 19.5,26 C15.9100024,26 13,23.089646 13,19.5007853 C13,15.910354 15.9100024,13 19.5,13" id="Fill-3" fill="#E75F52"></path>
        </g>
    </g>
</svg>