<?xml version="1.0" encoding="UTF-8"?>
<svg width="220px" height="300px" viewBox="0 0 220 300" version="1.1" xmlns="http://www.w3.org/2000/svg" xmlns:xlink="http://www.w3.org/1999/xlink">
    <!-- Generator: Sketch 64 (93537) - https://sketch.com -->
    <title>45</title>
    <desc>Created with Sketch.</desc>
    <g id="45" stroke="none" stroke-width="1" fill="none" fill-rule="evenodd">
        <path d="M-41.6016199,0 L-41.799809,0.166666667 L-41.8999045,0.5 L-42,0.833333333 L-42,1.83333333 L-41.8999045,2 L-41.799809,1.66666667 L-41.599618,1.165 L-41.4995224,0 L-41.6016199,0 Z M133.56745,4.14659634 L132.977029,4.43978902 L132.6855,4.87957804 L133.271504,4.5849194 L134.15787,4.43978902 L134.599581,4.7329817 L133.570395,5.75915608 L131.509076,6.78533046 L130.482834,8.54448654 L129.156229,9.42406458 L128.713045,9.57066092 L128.420044,9.42406458 L127.97686,8.83767922 L128.420044,8.25129386 L128.713045,7.81150484 L127.536621,7.6649085 L125.621068,7.81150484 L125.329538,7.95810118 L125.176412,8.39642424 L125.621068,8.54448654 L125.621068,10.0104499 L125.621068,10.450239 L123.999988,13.8219548 L123.556805,14.2617438 L123.116566,14.4083401 L120.759301,15.8743035 L120.023116,16.0208999 L119.579933,16.0208999 L118.990985,16.0208999 L115.310059,17.4868633 L114.572402,17.77859 L109.866706,21.0051754 L107.946735,22.4711388 L107.064786,23.3507169 L106.917549,23.7905059 L105.73818,24.5234876 L105.445178,24.6700839 L104.85623,24.8166803 L104.415992,24.9632766 L103.679806,25.109873 L101.471251,25.109873 L101.028068,25.109873 L100.587829,25.109873 L99.9988809,25.109873 L99.4099328,25.109873 L98.6737477,25.2564693 L96.6139017,25.2564693 L95.1415315,24.8166803 L93.6691612,24.2302949 L93.3732148,23.9371022 L92.6385021,23.6439096 L92.1953186,23.6439096 L90.1340003,24.0836986 L89.5450522,24.3754253 L89.1018688,25.109873 L88.6616301,25.6962583 L88.6616301,26.42924 L88.8088671,27.7486071 L88.219919,29.6543595 L87.6309709,30.5339375 L86.8947858,32.2930936 L86.4530747,33.759057 L86.1586007,34.198846 L85.8641266,34.4935047 L84.6862304,34.4935047 L84.5389934,34.0522497 L83.6555713,33.1726717 L82.330438,33.759057 L82.035964,33.0260753 L82.330438,31.9999009 L84.6862304,30.3873412 L85.4224155,30.5339375 L86.5988394,30.3873412 L87.0434952,30.3873412 L87.4852063,30.2407449 L87.6309709,29.9475522 L87.1892598,30.0941485 L86.7475488,30.0941485 L86.1586007,30.2407449 L85.4224155,30.2407449 L84.8349398,30.2407449 L84.3917564,30.0941485 L83.9500453,29.9475522 L78.0605644,28.0417998 L77.6188533,27.6020107 L77.4716163,27.7486071 L76.5881941,28.6281851 L74.8198775,30.3873412 L74.6741128,30.9722606 L74.5268758,31.5601119 L71.2876613,33.319268 L70.8459502,33.319268 L70.5514761,33.319268 L70.4042391,34.198846 L70.6987132,34.3454424 L70.9931872,34.0522497 L71.1404242,34.6386351 L70.6987132,35.0784241 L70.5514761,34.7837654 L70.1112374,34.6386351 L67.9012097,35.8114058 L66.7218412,36.9841765 L66.2816025,37.7171582 L66.5760765,38.7433326 L66.5760765,39.6229106 L65.3981803,40.0626997 L65.6926544,43.2878191 L65.6926544,44.3139935 L64.9579416,45.0469752 L64.8092322,45.9265533 L64.8092322,46.2197459 L64.8092322,46.659535 L64.6619952,47.8323057 L64.5147582,48.2720947 L63.7785731,50.6176361 L63.336862,51.7904069 L63.9258101,52.8165812 L64.3675212,53.4029666 L64.5147582,53.989352 L64.6619952,54.429141 L64.6619952,54.86893 L64.5147582,55.6019117 L64.3675212,55.8936384 L64.0730471,56.9212788 L63.7785731,57.2144714 L63.336862,57.6542605 L62.7479139,57.9474531 L62.1589658,57.8008568 L60.5408309,57.3596018 L58.7725142,57.6542605 L55.9735384,59.1202239 L55.6805367,59.2668202 L55.2388257,59.5600129 L54.2081665,61.0259763 L54.0609295,61.758958 L52.4413222,65.2772701 L51.5579001,66.3034445 L50.5272409,66.5966372 L50.0855298,66.7432335 L49.7910558,66.7432335 L49.6438188,66.7432335 L49.4965818,67.3296189 L45.2267081,70.8479311 L42.5764416,71.5809128 L41.3985454,71.7275091 L40.6638327,72.7536835 L40.6638327,73.3400688 L41.5457825,73.6332615 L42.5764416,74.2196469 L43.3126268,75.5390139 L43.4598638,76.858381 L43.7543378,79.3505188 L43.9015748,81.2562712 L44.0488119,82.1358492 L43.7543378,84.0416017 L43.6085732,84.3347943 L42.5764416,84.4813907 L41.5457825,84.4813907 L40.6638327,83.8950053 L40.5151233,83.0154273 L40.8095974,82.2809796 L41.2513084,81.9892529 L41.5457825,82.1358492 L42.1362029,82.4290419 L42.2819676,81.2562712 L42.2819676,80.5232895 L42.1362029,80.5232895 L41.2513084,80.6713518 L40.2191769,79.9369041 L40.0734122,79.4971151 L39.9261752,78.6175371 L37.8648569,77.0049773 L37.2759088,75.978803 L36.9829071,75.5390139 L36.3924866,75.0992249 L35.8035385,74.9526286 L35.5105369,74.8060322 L35.0658811,74.5128396 L34.3311683,73.6332615 L34.0381666,72.4604908 L33.3005091,70.9945274 L32.8587981,70.7013347 L32.8587981,71.2877201 L31.5336649,72.7536835 L31.3864278,72.9002798 L30.9447168,73.4866652 L31.0919538,74.3647773 L31.8296113,74.3647773 L32.1211406,74.8060322 L32.711561,75.6841443 L32.8587981,76.2719956 L32.8587981,76.7117847 L32.8587981,77.737959 L33.1532721,78.0311517 L34.0381666,78.9107298 L34.4798777,79.2039224 L34.9201164,80.2300968 L35.5105369,81.2562712 L35.8035385,82.7222346 L35.3618275,83.8950053 L34.0381666,84.4813907 L33.7422202,84.7745834 L32.711561,86.6803358 L33.3005091,87.5584479 L33.3005091,87.9997028 L28.8848708,91.078226 L28.5889244,90.9316296 L28.2944503,90.4918406 L28.1472133,89.7588589 L27.4125006,88.4394919 L25.938658,87.7065102 L25.7914209,88.1462992 L25.7914209,88.5860882 L25.7914209,89.1724736 L25.7914209,89.6122626 L26.233132,90.3437783 L26.3818414,90.9316296 L26.233132,91.518015 L25.938658,91.8112077 L25.3497099,91.957804 L24.7607618,91.957804 L23.2883915,96.3556942 L25.0552358,97.6750613 L26.9678447,99.4342174 L27.4125006,100.461858 L27.4125006,100.900181 L27.2637912,102.659337 L30.7974797,105.591264 L31.0919538,105.591264 L31.8296113,106.031053 L33.0075075,108.229998 L32.711561,111.308521 L32.1211406,113.214273 L31.6809019,113.945789 L30.5030057,113.214273 L30.2085316,114.973429 L30.5030057,115.413218 L30.7974797,115.853007 L31.6809019,116.879182 L32.8587981,118.491742 L34.4798777,122.010054 L34.6256424,122.596439 L34.4798777,123.476017 L33.0075075,125.088577 L32.417087,125.235173 L32.1211406,125.088577 L31.3864278,124.941981 L29.9140576,125.673496 L29.3251095,126.849199 L30.357241,126.994329 L31.8296113,127.873907 L32.417087,130.659238 L32.564324,131.685412 L32.564324,132.418394 L32.1211406,133.297972 L32.1211406,134.472209 L32.26985,137.109477 L32.417087,138.428844 L32.564324,138.868633 L32.711561,139.306956 L33.0075075,141.069044 L33.1532721,142.240349 L33.1532721,144.147567 L32.711561,145.465468 L32.564324,145.758661 L32.564324,145.903791 L31.8296113,147.665879 L32.711561,148.98378 L33.5935108,148.98378 L34.3311683,149.131843 L34.3311683,149.423569 L33.7422202,150.009955 L32.711561,149.863358 L31.0919538,150.59634 L30.9447168,151.179793 L30.9447168,153.232142 L31.0919538,153.817062 L32.1211406,155.136429 L32.564324,154.69664 L32.8587981,153.962192 L33.1532721,153.079682 L33.4477462,152.641359 L34.0381666,152.05644 L34.9201164,152.348166 L35.3618275,152.641359 L34.7728794,154.255385 L34.0381666,154.403447 L33.5935108,154.69664 L33.3005091,155.280093 L33.5935108,156.45433 L33.8894572,156.602392 L34.4798777,156.602392 L35.3618275,156.602392 L35.8035385,156.162603 L36.6869607,155.721348 L37.1286718,155.428155 L38.0120939,155.280093 L36.3924866,157.918827 L36.3924866,158.946468 L36.0965402,159.677983 L34.9201164,161.293475 L34.3311683,161.440071 L32.1211406,164.225402 L30.5030057,165.10498 L30.2085316,165.689899 L30.9447168,166.13262 L31.2391908,166.424347 L31.0919538,166.865602 L28.7361614,170.383914 L28.440215,170.674175 L25.7914209,173.897828 L24.6135247,175.805047 L24.9079988,177.857395 L25.2039452,178.442315 L24.4662877,179.175297 L23.1411545,179.323359 L22.5522064,179.030166 L22.4049694,178.446713 L21.8145489,177.713731 L21.6687843,178.446713 L21.5215472,179.326291 L20.9325991,179.912676 L18.4295697,180.49613 L17.9878587,180.49613 L15.9265403,179.912676 L14.4541701,181.377174 L14.012459,181.083981 L13.7165126,180.645658 L12.9817999,180.204403 L12.5400888,180.204403 L12.2441424,181.230577 L11.2149556,181.377174 L10.9204815,181.670366 L10.6260075,182.25382 L10.4802428,181.522304 L10.1842964,181.962093 L9.15363724,184.014442 L8.2702151,185.627001 L8.41745212,186.359983 L8.8591632,187.974009 L9.44811129,188.558928 L9.88982236,188.853587 L10.7732445,190.611277 L10.7732445,191.197662 L10.0370594,193.248545 L9.44811129,193.248545 L7.53550235,192.514098 L6.94508189,192.367501 L5.47271165,192.075774 L4.88376355,192.222371 L3.11691927,193.541738 L1.79178606,195.592621 L2.0862601,196.179006 L2.96820988,196.469267 L3.55863034,196.469267 L4.00034141,196.617329 L5.1782376,197.202248 L6.06165974,199.110933 L8.41745212,201.749667 L8.71192617,202.041394 L9.15363724,202.189456 L9.88982236,202.632177 L10.4802428,203.365159 L10.9204815,203.214164 L12.2441424,203.507357 L12.3928518,203.799084 L12.6873258,204.241805 L14.1611684,205.707768 L14.6028795,205.998029 L15.0431182,206.146091 L15.4848293,206.297085 L16.0737774,206.443682 L16.3682514,206.591744 L17.3989106,207.472788 L18.7240438,208.497496 L19.3129919,208.645559 L19.90194,208.792155 L20.4908881,208.645559 L21.8145489,209.230478 L22.5522064,210.111522 L23.1411545,210.258119 L23.8773396,210.404715 L24.4662877,210.114454 L25.938658,209.824193 L26.233132,209.969324 L26.6748431,210.410579 L26.527606,210.850368 L26.6748431,211.433821 L26.8220801,211.876542 L27.2637912,212.168269 L27.9999763,212.608058 L28.2944503,212.757586 L28.8848708,213.197375 L29.1778725,213.047847 L29.6195835,212.901251 L30.0612946,213.195909 L30.5030057,213.779363 L30.357241,214.365748 L30.357241,215.245326 L30.7974797,217.442805 L31.6809019,217.885526 L32.8587981,218.326781 L34.4798777,218.765104 L34.9201164,218.913166 L36.9829071,218.474843 L37.7176199,219.354421 L40.8095974,220.527192 L41.8402565,220.527192 L42.5764416,220.37913 L43.3126268,220.231068 L43.4598638,219.792744 L45.3724727,220.231068 L45.8156562,220.817453 L46.1101302,220.964049 L46.5518413,220.964049 L48.3172132,220.525726 L49.0548707,220.084471 L49.2021077,217.885526 L51.9981388,217.885526 L53.7664554,218.326781 L55.6805367,218.910235 L55.9735384,219.204893 L56.7111959,220.377664 L57.8890921,221.99169 L60.6865956,224.042572 L61.2755437,224.335765 L61.8644917,224.189169 L63.9258101,224.335765 L64.9579416,225.068747 L66.4288395,225.948325 L67.166497,226.240052 L68.0484467,226.38958 L68.4901578,226.537642 L68.9318689,226.685704 L69.0791059,227.126959 L69.668054,227.126959 L70.2570021,226.685704 L70.4042391,226.099319 L70.5514761,225.660996 L71.875137,225.806126 L73.9379277,227.126959 L74.9685869,228.005071 L75.4102979,228.44486 L76.7369035,229.031246 L77.1771422,228.883184 L77.6188533,228.592923 L78.0605644,228.441929 L78.3550384,228.592923 L78.7967495,229.177842 L79.0912235,229.616165 L79.2384606,230.058886 L79.3871699,230.497209 L79.3871699,230.936998 L79.5329346,231.381185 L80.8595402,232.112701 L81.2997789,231.818042 L82.183201,232.402962 L85.1264691,234.601907 L85.4224155,235.043162 L85.5696526,235.191224 L85.7168896,236.217398 L86.1586007,237.533834 L86.5988394,238.854667 L87.0434952,239.295922 L87.7782079,240.174034 L87.4852063,240.907015 L87.1892598,241.494867 L87.6309709,242.519575 L87.925445,242.96083 L88.367156,243.400619 L90.8701854,243.985538 L94.551111,246.477676 L94.9928221,247.35872 L96.6139017,247.797043 L97.3486145,247.648981 L98.3778013,247.797043 L100.146118,249.412535 L100.294827,250.435777 L100.440592,251.023629 L100.882303,251.463418 L101.618488,252.489592 L102.058727,253.514301 L101.618488,253.955556 L101.471251,254.395345 L101.028068,256.00937 L101.322542,256.304029 L102.646203,257.183607 L104.854758,258.208315 L105.886889,257.768526 L106.623075,257.035545 L107.799498,257.768526 L108.535684,259.086427 L109.124632,263.045995 L108.833102,264.069237 L108.388447,264.510492 L107.799498,264.802219 L108.095445,266.268182 L108.242682,266.561375 L108.833102,267.00263 L110.153818,267.735612 L110.597002,267.586083 L111.334659,267.586083 L111.920663,268.470059 L112.213664,269.493302 L113.54027,269.201575 L115.896062,268.320531 L117.514197,267.735612 L120.017227,268.320531 L122.227254,269.052047 L122.667493,269.201575 L123.992626,269.351103 L126.788657,267.735612 L128.409737,267.00263 L129.293159,267.149226 L130.030817,267.149226 L130.474,266.123052 L131.503187,264.510492 L133.122794,263.337721 L133.565978,263.045995 L133.858979,263.482852 L133.711742,263.924107 L134.003272,264.510492 L135.770116,264.657088 L136.656483,264.657088 L138.714856,265.391536 L139.601223,266.565773 L142.693201,266.857499 L144.165571,265.976455 L146.519891,265.391536 L148.582682,264.510492 L152.263607,266.857499 L152.263607,267.589015 L153.584323,269.054979 L153.88027,269.205973 L157.266721,269.499165 L157.561195,269.351103 L158.002906,269.201575 L158.737619,269.351103 L160.062752,270.520942 L160.209989,271.253924 L160.505936,271.841775 L161.831069,272.866483 L162.271308,272.866483 L162.714491,273.891192 L156.530536,283.419954 L155.944533,284.300998 L153.883214,287.675646 L152.703846,289.289671 L151.967661,290.462442 L150.938474,291.928406 L153.145557,292.807984 L154.472163,293.394369 L155.058166,293.394369 L155.35264,293.247773 L156.381827,292.661387 L156.677773,292.369661 L157.413958,292.073536 L157.854197,292.22453 L158.151616,292.374058 L159.769751,293.545363 L160.656118,294.718134 L161.097829,295.451116 L161.245066,296.038967 L161.392303,296.47729 L161.541012,296.770483 L161.838431,297.208806 L163.309329,298.383042 L163.600858,298.531105 L164.189806,298.97236 L164.778754,299.558745 L164.778754,300 L164.925991,299.558745 L166.10536,294.426407 L167.724967,285.629161 L170.520998,269.944818 L170.669708,268.917178 L170.964182,267.304618 L171.258656,265.985251 L172.580844,258.947161 L173.760213,252.057133 L174.939581,249.418399 L175.088291,248.685417 L174.939581,247.069925 L174.496398,245.020509 L174.201924,243.405017 L174.053214,242.966694 L174.201924,242.673501 L173.317029,241.939054 L172.580844,241.500731 L170.962709,238.419275 L170.962709,237.834356 L171.254239,237.394567 L171.548713,236.806716 L171.697422,236.223262 L171.108474,234.170914 L170.666763,233.731124 L169.636104,233.291335 L169.048628,233.141807 L168.606917,233.141807 L165.218993,230.357943 L163.600858,228.598787 L163.010438,227.867271 L163.010438,226.54937 L163.010438,224.935344 L163.010438,222.440274 L163.160619,219.508348 L163.160619,218.485105 L163.160619,215.992967 L163.160619,214.675066 L164.338516,214.38334 L165.369175,214.38334 L167.724967,214.38334 L168.462625,213.796954 L169.639048,212.91591 L173.614448,211.889736 L175.973185,213.357165 L176.70937,213.940619 L178.177323,214.088681 L179.651166,213.505227 L179.065163,211.598009 L179.356692,209.692257 L177.885794,207.200119 L177.149609,206.613734 L175.825948,205.879286 L175.089763,206.173944 L174.059104,206.613734 L170.968599,205.879286 L169.0501,206.027348 L166.843017,206.027348 L166.843017,194.886026 L166.694308,194.5943 L167.875149,194.740896 L169.347519,194.007914 L171.996313,193.424461 L173.618865,193.714722 L174.649524,194.007914 L175.235528,194.299641 L177.594265,194.299641 L180.094349,194.299641 L184.954644,194.299641 L197.026607,194.299641 L196.583424,193.568125 L195.998893,193.420063 L195.702946,193.420063 L195.261235,192.102162 L195.552765,191.075987 L195.702946,190.634732 L196.290422,189.901751 L196.733606,189.901751 L197.617028,190.049813 L197.911502,190.343006 L198.205976,190.782795 L198.498977,191.663839 L198.649159,192.103628 L199.23369,192.984672 L199.679818,193.569591 L199.971348,193.861318 L200.414531,193.861318 L200.856242,194.010846 L201.297953,194.010846 L202.034138,193.717653 L203.213507,193.277864 L203.949692,192.692945 L205.422062,190.785727 L205.569299,190.494 L205.718009,189.907615 L207.190379,188.441651 L207.63209,188.149924 L208.662749,187.563539 L210.135119,186.829091 L211.60749,187.416943 L211.901964,187.856732 L212.047728,188.295055 L212.196438,188.737776 L212.934095,190.351802 L213.668808,191.232846 L213.966227,191.524572 L214.849649,192.550747 L215.733071,194.01671 L216.470729,196.067593 L216.76373,197.828215 L216.613548,199.294178 L216.466311,199.732501 L216.319074,200.318887 L216.171837,202.078043 L216.171837,202.368303 L216.319074,203.687671 L216.466311,203.982329 L217.202497,203.832801 L219.854235,203.098353 L220,203.098353 L219.705526,202.66003 L219.553872,202.075111 L219.11805,198.99219 L217.937209,194.743828 L215.728654,188.879974 L214.843759,186.972756 L214.549285,186.681029 L214.107574,185.653389 L213.957393,185.068469 L213.810156,184.48355 L213.957393,184.193289 L214.399104,183.750568 L214.549285,183.460308 L214.256284,182.432667 L213.8131,181.994344 L213.076915,181.69822 L212.635204,181.551623 L211.900491,180.966704 L208.954278,177.74305 L208.069384,177.301795 L207.040197,175.835832 L206.747195,175.250913 L206.305484,175.101384 L203.945275,174.661595 L202.916088,174.811123 L202.767379,173.928614 L205.859356,170.848624 L208.65686,168.20989 L209.834756,167.18225 L211.014124,166.157542 L211.454363,166.009479 L212.34073,164.543516 L212.047728,163.518807 L211.455836,163.369279 L211.165779,163.222683 L210.721123,162.92949 L210.575358,162.491167 L209.983465,160.875675 L209.693408,160.141228 L208.811459,158.824793 L208.366803,158.5316 L207.923619,158.5316 L207.187434,158.67673 L206.89296,158.5316 L206.601431,158.238407 L206.158247,157.506892 L205.422062,155.307946 L205.130533,154.425436 L204.833114,153.109001 L204.540113,152.37602 L203.509453,150.910056 L203.067742,149.73582 L203.067742,149.002838 L203.214979,148.563049 L203.509453,147.978129 L202.187265,144.017096 L202.773268,140.794909 L202.921978,139.619206 L202.921978,139.182349 L203.070687,136.688745 L203.070687,135.517441 L202.776213,134.488334 L202.628976,133.904881 L202.187265,130.679761 L203.070687,129.358928 L203.659635,128.920605 L204.101346,128.774009 L205.130533,128.187624 L205.718009,127.601238 L206.306957,126.427001 L206.012483,125.842082 L205.866718,125.254231 L205.715064,124.522715 L205.715064,124.082926 L205.866718,123.203348 L206.306957,122.030577 L206.601431,121.442726 L207.779327,120.271421 L208.811459,119.391843 L209.102988,119.09865 L209.690464,118.805458 L209.839173,118.510799 L209.546171,117.631221 L208.957223,117.191432 L208.662749,116.606513 L208.511095,116.165258 L208.511095,115.580338 L209.102988,114.993953 L208.811459,114.993953 L208.366803,114.699294 L207.779327,114.114375 L207.190379,113.674586 L205.86819,113.379927 L204.839004,113.233331 L202.478794,112.941604 L200.859187,114.260971 L200.123002,114.554164 L199.534054,114.699294 L198.796396,114.845891 L198.213338,114.699294 L197.622917,114.554164 L197.036914,114.407568 L196.74244,114.554164 L196.006255,114.699294 L195.417307,114.993953 L194.23941,115.287146 L193.799172,115.433742 L192.76704,115.287146 L192.030855,115.140549 L191.29467,115.140549 L191.000196,115.140549 L189.678007,115.580338 L188.055455,116.020127 L187.173506,116.020127 L186.730322,115.726935 L185.995609,115.433742 L184.669004,115.140549 L181.133843,114.699294 L180.549312,114.699294 L180.107601,114.993953 L179.518653,115.287146 L178.932649,116.020127 L178.194992,116.753109 L177.310097,117.044836 L176.868386,116.899705 L176.279438,116.31332 L175.987909,115.872065 L174.95725,116.020127 L174.368302,116.165258 L173.926591,116.459916 L168.624585,109.863081 L161.555736,101.213897 L160.969732,101.213897 L159.791836,101.360493 L159.34718,101.505624 L159.055651,101.800282 L158.466703,101.946879 L158.024992,101.800282 L157.583281,101.65222 L157.290279,101.505624 L156.845623,101.213897 L155.816437,100.627512 L153.900883,99.8945299 L150.957615,99.1615482 L149.190771,99.3081445 L148.454585,99.4547409 L148.012874,99.6013372 L147.569691,100.03966 L146.391795,100.774108 L145.804319,101.067301 L145.511317,101.213897 L142.713814,101.505624 L141.241444,101.067301 L140.062075,100.480915 L137.706283,100.480915 L137.263099,100.334319 L136.085203,100.03966 L135.203253,99.8945299 L134.465596,99.7479335 L133.436409,100.03966 L131.668092,100.774108 L131.080617,101.067301 L130.342959,101.067301 L129.459537,100.774108 L128.283113,100.627512 L127.105217,99.7479335 L126.955035,99.7479335 L126.511852,99.0149518 L126.073085,98.4285665 L125.775667,97.8407152 L125.482665,97.4009261 L125.188191,96.2296214 L125.188191,95.7898324 L125.338373,95.0553847 L123.422819,94.0306763 L122.393632,93.8840799 L121.068499,93.7374836 L120.922734,93.7374836 L120.625316,93.442825 L119.741893,92.1234579 L119.741893,89.1929971 L119.88913,84.5019142 L121.214264,82.3029691 L121.951921,82.3029691 L122.246395,82.0097764 L122.393632,81.5699874 L122.097686,80.3957507 L121.513155,77.1720972 L121.215736,76.5842458 L120.925679,76.2910532 L120.62826,76.2910532 L116.362804,71.7465666 L115.039143,66.9088874 L114.302958,63.9769606 L112.385932,63.2425129 L111.060798,62.2178045 L111.21098,61.9231459 L110.767797,60.7503752 L110.178849,60.0188594 L107.823056,61.4848228 L107.531527,61.9231459 L106.499395,62.3644009 L104.289368,62.5095312 L103.704837,62.3644009 L103.999311,61.3382265 L106.059157,58.113107 L108.416422,55.4729069 L109.003897,54.5947948 L110.324613,51.8094644 L110.622032,49.3173266 L110.767797,47.7047669 L111.21098,46.2388035 L111.503982,45.6524181 L111.947165,41.5477206 L112.097347,40.0817572 L112.097347,39.7885645 L113.419536,37.8828121 L113.859774,37.2964267 L115.629563,34.0713072 L116.950279,31.8708962 L118.572831,29.3802244 L119.459198,27.7661986 L119.750728,27.6196023 L121.957811,27.0346829 L122.546759,27.0346829 L124.459368,25.5687195 L126.819577,21.1693633 L128.732186,18.2389025 L132.123055,17.6525171 L133.005005,17.2112622 L134.770376,16.6263428 L137.422115,15.8918951 L138.598539,15.6001684 L140.070909,14.8671867 L140.070909,14.7205903 L140.807094,13.694416 L141.694934,13.1065646 L142.722648,12.5216452 L143.458833,11.9337939 L143.751835,11.3488745 L143.751835,10.9090855 L143.751835,10.4678305 L141.840698,6.94951836 L141.396042,6.65779164 L140.807094,6.21800262 L136.392928,4.45884654 L135.774533,4.29319268 L134.007689,4 L133.56745,4.14659634 Z M30.8194842,148 L28.9605676,149.412941 L28.817574,150 L29.6769655,149.765882 L32.5368372,149.415294 L32.8213945,149.18 L32.1064265,149.062353 L31.8204394,148.356471 L31.3914586,148.237647 L31.248465,148.117647 L30.9624778,148 L30.8194842,148 Z M17.8751328,178 L17.7403375,178 L17.2064947,178.165 L16.940908,178.498333 L16.8061127,178.833333 L16.8061127,179.165 L16.8061127,179.333333 L18.1407195,181 L18.2741802,181 L18.4076409,181 L18.6745622,180.503333 L18.8080229,180.17 L18.6745622,179.166667 L18.5411016,179 L18.1407195,178 L17.8751328,178 Z" id="Fill-1" fill="#FFFFFF"></path>
        <g id="Group-5-Copy" transform="translate(80.000000, 137.000000)">
            <path d="M19.5007728,0 C30.2704791,0 39,8.72986684 39,19.5 C39,30.2701332 30.2704791,39 19.5007728,39 C8.73106646,39 0,30.2701332 0,19.5 C0,8.72986684 8.73106646,0 19.5007728,0 Z" id="Stroke-1" stroke="#E75F52"></path>
            <path d="M19.5,13 C23.0899976,13 26,15.910354 26,19.5007853 C26,23.089646 23.0899976,26 19.5,26 C15.9100024,26 13,23.089646 13,19.5007853 C13,15.910354 15.9100024,13 19.5,13" id="Fill-3" fill="#E75F52"></path>
        </g>
    </g>
</svg>