<?xml version="1.0" encoding="utf-8"?>
<!-- Generator: Adobe Illustrator 24.1.2, SVG Export Plug-In . SVG Version: 6.00 Build 0)  -->
<!DOCTYPE svg PUBLIC "-//W3C//DTD SVG 1.1//EN" "http://www.w3.org/Graphics/SVG/1.1/DTD/svg11.dtd" [
	<!ENTITY ns_extend "http://ns.adobe.com/Extensibility/1.0/">
	<!ENTITY ns_ai "http://ns.adobe.com/AdobeIllustrator/10.0/">
	<!ENTITY ns_graphs "http://ns.adobe.com/Graphs/1.0/">
	<!ENTITY ns_vars "http://ns.adobe.com/Variables/1.0/">
	<!ENTITY ns_imrep "http://ns.adobe.com/ImageReplacement/1.0/">
	<!ENTITY ns_sfw "http://ns.adobe.com/SaveForWeb/1.0/">
	<!ENTITY ns_custom "http://ns.adobe.com/GenericCustomNamespace/1.0/">
	<!ENTITY ns_adobe_xpath "http://ns.adobe.com/XPath/1.0/">
]>
<svg version="1.1" id="Livello_1" xmlns:x="&ns_extend;" xmlns:i="&ns_ai;" xmlns:graph="&ns_graphs;"
	 xmlns="http://www.w3.org/2000/svg" xmlns:xlink="http://www.w3.org/1999/xlink" x="0px" y="0px" viewBox="0 0 318 300"
	 style="enable-background:new 0 0 318 300;" xml:space="preserve">
<style type="text/css">
	
		.st0{fill-rule:evenodd;clip-rule:evenodd;fill:#FFFFFF;stroke:#E75F52;stroke-linecap:round;stroke-linejoin:round;stroke-miterlimit:10;}
	
		.st1{fill-rule:evenodd;clip-rule:evenodd;fill:#CCCCCC;stroke:#E75F52;stroke-linecap:round;stroke-linejoin:round;stroke-miterlimit:10;}
	.st2{fill:none;stroke:#E75F52;stroke-linecap:round;stroke-linejoin:round;stroke-miterlimit:10;}
</style>
<metadata>
	<sfw  xmlns="&ns_sfw;">
		<slices></slices>
		<sliceSourceBounds  bottomLeftOrigin="true" height="298" width="320.4" x="-1.9" y="1.5"></sliceSourceBounds>
	</sfw>
</metadata>
<desc>Created with Sketch.</desc>
<polygon id="Path" class="st0" points="229.8,2.6 228.4,2.8 228.1,6.1 227,9.9 223.8,15.6 225.5,16.1 225.3,18 223.8,19.2 
	224.7,21.3 223.3,24 223,27.1 223.8,28.1 223.3,31.5 224.4,35.8 223,39.5 222.2,43.3 222.7,44.3 220.7,49.5 219.9,50.3 217.9,55.7 
	215.4,57.2 211.4,57.8 205.8,54.9 203.8,51.2 201,50.2 197.4,49.5 194.8,47.4 193.7,45.9 190.9,44.7 187.8,42.7 186.1,42.9 
	182.1,40.1 182.1,39.1 175.9,35.2 175.4,33.3 178.2,29.7 179.3,29.1 180.2,25.8 179,24.3 179.3,22 179.9,21.3 182.4,20.8 
	183.5,21.2 185.2,19.1 184.1,18.2 185.5,16.7 185.8,15.2 187.5,14.4 186.9,13.2 185.5,13.6 183.5,10.9 181.6,12.9 183,13.5 
	182.1,14.9 180.4,15.1 179.3,12.6 177.9,13.9 177.1,11 175.6,12.3 172.8,13.5 171.1,12.4 170.6,10.9 169.2,11.9 166.6,11.2 
	166.1,11.5 164.9,10.3 164.1,10.7 163,9.1 161.6,10 158.2,9.1 156.2,6.2 154.2,7.5 152.5,5.2 150.3,4.4 148.3,5.3 149.4,7.6 
	151.7,6.9 153.4,8.4 153.7,11.7 152.2,13.3 150.6,13 149.1,13.8 148,13.2 144.9,13.8 143.5,12.8 141,12.7 139.6,14.9 137.9,14.5 
	137.6,16 135.9,16.7 135.6,18.6 134.2,19 134.2,20.7 135.1,21.7 134.2,23.1 132,23.6 130.8,27.6 129.1,28.2 128,30.8 130,32.2 
	131.1,34 130,35.2 127.2,34.4 125.8,34.6 121.5,33.6 118.1,36.7 119,33.2 115.9,30.5 114.8,29 112.2,26.7 110.8,27.3 109.4,25.3 
	107.7,25.8 108.3,27.4 106.3,29.1 105.7,27.5 104.6,27.9 103.8,29.3 102.9,29.1 101.8,30.6 102.1,31.6 100.7,31.9 97.8,31.5 
	96.2,32.2 95.3,33.4 95.6,35.1 97,35.8 96.7,36.9 95,35.9 93.9,36.7 93.3,38.4 91.4,37.7 91.6,39.5 89.9,39.4 89.1,41.2 90.8,44.5 
	89.1,45.5 89.4,46.4 88,47 87.1,46 85.4,46.6 84.3,45.1 82.9,45.1 83.5,46.8 82.9,49.2 84.6,51.9 82.9,51.9 83.5,53.4 82.9,54.9 
	81.5,54.7 79.5,50.4 77.5,47.9 76.4,48.7 76.7,50 75,50.2 74.2,51.8 72.8,52.7 71.9,54.1 71.6,56.6 71.9,59.7 73.3,60.2 73,61.4 
	69.9,64.1 67.7,66.2 66.8,69.1 64.3,72.4 62.3,73.8 56.7,76 53.3,76.6 51.3,77.4 48.5,76.5 47.4,76.7 45.4,79 41.7,79.9 40.1,79.9 
	37,82.3 33.9,82.9 32.2,81.8 30.2,82.8 29.1,82 26.5,83.7 24.8,83.9 22.9,85.7 21.7,87.2 18.9,89.6 15,91.1 12.7,92.4 10.7,96.8 
	9,96.4 8.2,95.1 5.9,96.5 4.8,98.5 6.2,102.6 5.7,103.5 5.7,106.5 4.5,107.6 3.1,111.2 3.1,115.4 4.5,117 5.4,120.4 8.8,126.2 
	9.6,126.7 8.5,131.9 6.8,129.1 5.4,129.4 5.7,127.2 4,124.8 3.1,125.7 5.1,130 6.8,131.1 6.2,133.3 4.8,133.2 3.4,129.9 2,131.6 
	4.3,134 7.6,139.7 8.8,143 8.8,146.7 11.9,150.4 12.1,152.7 14.1,155.4 15.2,158.9 15,160.6 15.2,165.6 16.9,171.2 20.9,178.7 
	21.2,181.3 21.2,186.2 20,188.2 20.9,193.9 18.9,196.9 15,197.7 15.2,201.5 16.4,204 18.1,203.8 20.3,205 24,208.7 28.2,210.8 
	33.9,210.6 35.8,211.6 36.4,210.7 42,209.4 42.6,207.6 44.6,207 46.3,205 48.8,205.8 50.2,205.1 52.2,201.5 55,200.1 58.1,200.5 
	59.2,199.7 66.8,199 69.1,199.8 70.5,199.2 71.9,201 73,200.1 79,199.6 79.5,200.7 80.9,199.8 82.3,200.2 85.7,196.7 87.1,192.5 
	89.1,190.9 91.6,190.4 93.9,188.8 98.1,187.1 100.9,185.1 103.2,184.2 107.1,184.9 111.9,184.5 117.6,182.7 125.2,179.1 
	134.5,178.1 139.6,178.4 142.4,177.2 145.2,178.4 150.6,182.3 153.4,181.4 155.1,181.6 157.9,183.9 161,183.6 163.2,184.3 
	165.5,186.2 166.9,188.3 164.9,188.7 166.6,192.9 170,192.9 170.9,194.7 171.1,197.3 174.2,200.7 175.4,205.2 174.8,207.2 
	177.1,209.1 178.7,209.1 179.6,205.9 181.8,203.6 183,201.4 184.9,199.8 189.7,197.4 191.4,192.6 195.1,189.3 195.9,192.7 
	194.3,193.8 195.4,196.3 192.6,199.6 191.4,202.3 192,206.7 191.4,209.5 188.3,209.4 186.6,212.7 189.2,212.6 191.2,211.5 
	193.1,212 195.9,203.6 197.9,205 199.9,207.8 199,213.6 196.8,215.6 197.1,216.7 199.9,216.4 203.3,215.5 207.2,218.9 210.3,226.1 
	210.3,227.4 208.9,229.2 209.5,231.5 211.4,234.6 213.4,236.3 214.3,238.4 217.1,240.4 220.5,240.9 223.6,244 224.4,242.5 
	226.7,242.5 228.9,243.7 230.3,243.3 233.4,245.4 235.4,245.9 239.1,248.2 241.6,246.5 243.3,244.5 245.8,242.6 247.8,242.5 
	248.4,241.2 247,240.5 250.3,238.6 251.5,241.2 254.3,242 254,243.8 255.1,246.2 256.3,246.1 257.7,248.7 259.1,247.9 261.6,251 
	262.2,248.9 260.8,248.7 259.9,247.2 265.3,246.1 270.9,240.4 273.5,238.8 276.6,237.9 285.6,237.5 288.1,235.1 289.5,234.6 
	289.8,231.9 289,229.1 290.9,223.1 290.9,218.9 295.2,211 296.9,206.4 296.9,203.9 299.7,200.3 300,196.8 300.8,196.3 304.2,190.1 
	306.2,189.5 307,188 309.5,186.1 309.3,183.5 311.2,180.5 312.6,177.2 313.8,171.8 313.2,170.4 315.7,160.9 316,157.6 316.9,154.9 
	318,153.4 317.7,148.1 316.3,145.4 316.6,144 315.2,141 313.8,139.5 314.3,136.2 313.8,130.5 314.9,127.7 312.4,125.4 312.9,123.7 
	312.6,121.9 310.7,121.5 308.7,117.2 306.4,116.1 304.8,112.6 302.8,110.6 302.2,111.3 296,105.7 295.7,103.5 296.3,99.6 
	295.7,97.7 294.3,96.4 293.5,98.1 291.5,97 290.1,94.9 288.4,96.9 286.7,95.7 285.3,91.9 285.6,91.3 283.6,85.9 280.8,83.8 
	279.1,81.5 280.8,79.7 278.8,78.2 276.3,77.5 276.3,76.6 274.6,75.8 271.5,75.4 269.8,71.8 267.3,72 266.7,70.6 265.6,71 264.2,70 
	261.9,68.9 260.5,67.4 261.1,64.6 258.5,62.4 258.5,61.6 259.6,57.2 257.4,52.3 253.7,47.4 254.3,44.3 253.4,43 252.6,40 
	252.3,34.3 250.9,34.1 249.8,32.5 248.1,32 247.2,29.7 246.4,29.4 242.5,31.6 241,30.8 240.2,27.6 239.1,25.5 239.6,23.7 
	239.1,22.1 238.8,18.3 237.9,18.2 238.2,16.3 236.8,14.5 235.4,14.1 236.5,11.3 234,10.1 233.4,7.2 234,6.5 232.9,3.2 231.5,2.1 
	231.5,1 "/>
<polygon id="Path_1_" class="st1" points="140.9,6.4 137.6,6.7 137.1,5.7 136,5.3 137.1,8.7 140.6,11 143.1,9.3 145,7.3 144.2,5.5 
	143.1,5 "/>
<polygon id="Path_2_" class="st1" points="134.5,8.6 136.8,10 135.9,7.2 134.2,7 "/>
<polygon id="Path_3_" class="st1" points="184.2,26.3 184.2,29.4 185.6,30 186.8,26.4 186.2,25 "/>
<polygon id="Path_4_" class="st1" points="205.3,47.7 204,49.7 205.6,49.9 209,47.6 208.1,47.1 "/>
<polygon id="Path_5_" class="st0" points="314.6,117.7 314.9,119.5 313.5,120.9 313.8,122.1 313,124 313.8,125 316,119.4 315.5,117 
	"/>
<polygon id="Path_6_" class="st1" points="-1.4,125.3 -0.5,128 0.4,127.5 -1.1,124 "/>
<polygon id="Path_7_" class="st0" points="316.1,137.2 316.6,139.9 316.9,137.1 "/>
<polygon id="Path_8_" class="st0" points="190.3,216 184.3,217.8 184,219.3 185.4,220.7 189.4,219.9 191.1,221 193.7,218.9 
	196,219.3 196,217.8 192.3,217.4 192.6,216 "/>
<polygon id="Path_9_" class="st0" points="241.3,256.8 241.9,261 243.1,260.2 243.7,259.6 243.1,256 "/>
<polygon id="Path_10_" class="st0" points="273,260.4 274.8,263 276,262.5 276,259.7 273.5,257 "/>
<polygon id="Path_11_" class="st0" points="273.1,268.8 271.4,268.2 270.2,269.9 266.9,269.6 262.1,271.5 257.3,269.9 256.7,269 
	249.1,267 248,269.8 250.5,277.3 252.8,280.1 253.9,282.9 253.1,283.2 253.1,287 255,290.7 256.4,291.8 257.6,294.4 259,294.7 
	259,297.2 261,296.5 264.3,298 266,297.8 266.3,296.3 269.4,290.4 271.4,289.2 273.6,289.5 274.8,283.2 276.4,278.3 277,269.8 
	274.5,267 "/>
<path id="Stroke-2" class="st2" d="M231.4,1v1.1l1.4,1.1l1.1,3.2l-0.6,0.8l0.6,2.9l2.5,1.1l-1.1,2.8l1.4,0.4l1.4,1.8l-0.3,1.9
	l0.8,0.1l0.3,3.8l0.6,1.6l-0.6,1.8l1.1,2.1l0.8,3.2l1.4,0.8l3.9-2.1l0.8,0.2l0.8,2.4l1.7,0.5l1.1,1.6l1.4,0.2l0.3,5.7l0.8,3.1
	l0.8,1.3l-0.6,3.1l3.7,4.9l2.3,4.9l-1.1,4.4v0.8l2.5,2.2l-0.6,2.9l1.4,1.5l2.3,1l1.4,1l1.1-0.5l0.6,1.4l2.5-0.1l1.7,3.6l3.1,0.3
	l1.7,0.8v0.9l2.5,0.7l2,1.5l-1.7,1.7l1.7,2.3l2.8,2.1l2,5.4l-0.3,0.6l1.4,3.8l1.7,1.2l1.7-2l1.4,2.1l2,1.1l0.8-1.7l1.4,1.3l0.6,1.9
	l-0.6,3.9l0.3,2.1l6.2,5.6l0.6-0.7l2,2l1.7,3.5l2.3,1.1l2,4.3l2,0.4l0.3,1.8l-0.6,1.7l2.5,2.3l-1.1,2.8l0.6,5.7l-0.6,3.3l1.4,1.5
	l1.4,3l-0.3,1.4l1.4,2.7l0.3,5.4l-1.1,1.5l-0.8,2.6l-0.3,3.4l-2.5,9.5l0.6,1.4l-1.1,5.4l-1.4,3.3l-2,3l0.3,2.6L307,188l-0.8,1.4
	l-2,0.6l-3.4,6.1l-0.8,0.5l-0.3,3.6l-2.8,3.6v2.5l-1.7,4.5l-4.2,7.9v4.2l-2,6l0.8,2.9l-0.3,2.6l-1.4,0.6l-2.5,2.3l-9,0.4l-3.1,1
	l-2.5,1.5l-5.6,5.7l-5.4,1.1l0.8,1.5l1.4,0.1l-0.6,2.1l-2.5-3.1l-1.4,0.8l-1.4-2.7l-1.1,0.1l-1.1-2.4l0.3-1.8l-2.8-0.8l-1.1-2.6
	l-3.4,1.9l1.4,0.7l-0.6,1.3l-2,0.1l-2.5,2l-1.7,2l-2.5,1.7l-3.7-2.2l-2-0.6l-3.1-2.1l-1.4,0.4l-2.3-1.3h-2.3l-0.8,1.5l-3.1-3.1
	l-3.4-0.6l-2.8-1.9l-0.8-2.1l-2-1.8l-2-3l-0.6-2.3l1.4-1.8V226l-3.1-7.2l-3.9-3.4l-3.4,0.9l-2.8,0.3l-0.3-1.1l2.3-2l0.8-5.9l-2-2.8
	l-2-1.3l-2.8,8.4l-2-0.5l-2,1.1l-2.5,0.1l1.7-3.3l3.1,0.1l0.6-2.8l-0.6-4.4l1.1-2.8l2.8-3.3l-1.1-2.5l1.7-1l-0.8-3.4l-3.7,3.3
	l-1.7,4.8l-4.8,2.4l-2,1.6l-1.1,2.2l-2.3,2.3l-0.8,3.2H177l-2.3-1.9l0.6-2l-1.1-4.5l-3.1-3.4l-0.3-2.6l-0.8-1.8h-3.4l-1.7-4.2l2-0.4
	l-1.4-2.1l-2.3-1.9l-2.3-0.6l-3.1,0.3l-2.8-2.3l-1.7-0.1l-2.8,0.9l-5.4-4l-2.8-1.2l-2.8,1.2l-5.1-0.3l-9.3,1l-7.6,3.6l-5.6,1.8
	l-4.8,0.4l-3.9-0.8l-2.3,0.9l-2.8,2.1l-4.2,1.7l-2.3,1.6l-2.5,0.5l-2,1.6l-1.4,4.2l-3.4,3.6l-1.4-0.4l-1.4,0.9l-0.6-1.2l-5.9,0.5
	l-1.1,0.9l-1.4-1.8l-1.4,0.7l-2.3-0.8l-7.6,0.7l-1.1,0.8l-3.1-0.4l-2.8,1.5l-2,3.6l-1.4,0.7l-2.5-0.8l-1.7,2l-2,0.7l-0.6,1.7
	l-5.6,1.3l-0.6,0.9l-2-1.1l-5.6,0.3l-4.2-2.1l-3.7-3.7l-2.3-1.2l-1.7,0.3l-1.1-2.5l-0.3-3.8l3.9-0.8l2-3l-0.8-5.7l1.1-1.9v-4.9
	l-0.3-2.6l-3.9-7.5l-1.7-5.6l-0.3-5l0.3-1.6l-1.1-3.5l-2-2.7l-0.3-2.2l-3.1-3.7V143l-1.1-3.3L4.1,134l-2.3-2.4l1.4-1.7l1.4,3.3
	l1.4,0.1l0.6-2.2L4.9,130l-2-4.3l0.8-1l1.7,2.4l-0.3,2.2l1.4-0.2l1.7,2.8l1.1-5.2l-0.8-0.5l-3.4-5.8L4.4,117l-1.4-1.7v-4.2l1.4-3.6
	l1.1-1.1v-3l0.6-1l-1.4-4l1.1-2L8,95.1l0.8,1.3l1.7,0.4l2-4.4l2.3-1.3l3.9-1.5l2.8-2.3l1.1-1.5l2-1.8l1.7-0.2l2.5-1.8l1.1,0.8l2-0.9
	l1.7,1.1l3.1-0.6l3.1-2.5h1.7l3.7-0.8l2-2.3l1.1-0.2l2.8,0.9l2-0.8l3.4-0.6l5.6-2.2l2-1.4l2.5-3.4l0.8-2.9l2.3-2.1l3.1-2.6l0.3-1.3
	l-1.4-0.5l-0.3-3.1l0.3-2.5l0.8-1.4l1.4-0.9l0.8-1.6l1.7-0.2l-0.3-1.3l1.1-0.8l2,2.5l2,4.2l1.4,0.2l0.6-1.5l-0.6-1.5h1.7l-1.7-2.7
	l0.6-2.4l-0.6-1.7h1.4l1.1,1.5L87,46l0.8,1l1.4-0.6L89,45.5l1.7-1L89,41.2l0.8-1.8l1.7,0.1l-0.3-1.8l2,0.7l0.6-1.7l1.1-0.8l1.7,1
	l0.3-1.1l-1.4-0.7l-0.3-1.7l0.8-1.2l1.7-0.7l2.8,0.5l1.4-0.3l-0.3-1l1.1-1.5l0.8,0.2l0.8-1.5l1.1-0.3l0.6,1.6l2-1.7l-0.6-1.6
	l1.7-0.6l1.4,2l1.4-0.6l2.5,2.3l1.1,1.5l3.1,2.7l-0.8,3.5l3.4-3.1l4.2,1l1.4-0.2l2.8,0.8L131,34l-1.1-1.8l-2-1.4l1.1-2.6l1.7-0.6
	l1.1-4.1l2.3-0.5l0.8-1.5l-0.8-1V19l1.4-0.3l0.3-1.9l1.7-0.8l0.3-1.5l1.7,0.4l1.4-2.2l2.5,0.1l1.4,1l3.1-0.7l1.1,0.7l1.4-0.8
	l1.7,0.2l1.4-1.6l-0.3-3.4l-1.7-1.5l-2.3,0.7l-1.1-2.2l2-0.9l2.3,0.8l1.7,2.2l2-1.2l2,2.9l3.4,0.9l1.4-0.9l1.1,1.6l0.8-0.4l1.1,1.2
	l0.6-0.3l2.5,0.8l1.4-1l0.6,1.5l1.7,1.1l2.8-1.2L177,11l0.8,2.9l1.4-1.3l1.1,2.5l1.7-0.1l0.8-1.5l-1.4-0.6l2-2l2,2.7l1.4-0.4
	l0.6,1.2l-1.7,0.8l-0.3,1.6l-1.4,1.5l1.1,0.9l-1.7,2.1l-1.1-0.5l-2.5,0.6l-0.6,0.7l-0.3,2.2l1.1,1.6l-0.8,3.3l-1.1,0.6l-2.8,3.6
	l0.6,1.9L182,39v1l3.9,2.8l1.7-0.2l3.1,2l2.8,1.1l1.1,1.5l2.5,2.2l3.7,0.7l2.8,1l2,3.7l5.6,2.9l3.9-0.6l2.5-1.5l2-5.4l0.8-0.8l2-5.2
	l-0.6-1l0.8-3.7l1.4-3.7l-1.1-4.3l0.6-3.4l-0.8-1l0.3-3l1.4-2.7l-0.8-2.1l1.4-1.2l0.3-1.9l-1.7-0.4l3.1-5.7l1.1-3.8l0.3-3.3l1.4-0.2
	L231.4,1z M136.9,5.6l0.6,1l3.4-0.3l2.3-1.3l1.1,0.5l0.8,1.8l-2,2l-2.5,1.7l-3.7-2.2l-1.1-3.3L136.9,5.6z M136.1,7.1l0.8,3l-2.3-1.6
	l-0.3-1.7L136.1,7.1z M185.7,24.9l0.6,1.4l-1.1,3.5l-1.4-0.6v-3L185.7,24.9z M209.1,47.5l-3.1,2.3l-1.4-0.2l1.1-1.9l2.5-0.6
	L209.1,47.5z M315.5,117l0.6,2.4l-2.3,5.7l-0.8-1l0.8-1.9l-0.3-1.2l1.4-1.4l-0.3-1.8L315.5,117z M-0.7,123.5l1.4,3.5l-0.8,0.5
	l-0.8-2.7L-0.7,123.5z M316.6,140l-0.6-2.6l0.8-0.1L316.6,140z M192.8,215.8l-0.3,1.3l3.7,0.4v1.5l-2.3-0.4l-2.5,2l-1.7-1.1
	l-3.9,0.8l-1.4-1.4l0.3-1.5l5.9-1.7H192.8z M243.3,260.3l-1.1,0.9l-0.6-4.4l1.7-0.9l0.6,3.8L243.3,260.3z M273.7,256.9l2.8,2.6v2.7
	l-1.4,0.4l-2-2.4L273.7,256.9z M248.6,267.3l7.6,2l0.6,0.9l4.8,1.6l4.8-1.9l3.4,0.3l1.1-1.7l1.7,0.6l1.4-1.7l2.5,2.7l-0.6,8.5
	l-1.7,4.9l-1.1,6.2l-2.3-0.3l-2,1.2l-3.1,5.8l-0.3,1.5l-1.7,0.2l-3.4-1.5l-2,0.8v-2.6l-1.4-0.3l-1.1-2.5l-1.4-1l-2-3.7v-3.7l0.8-0.3
	l-1.1-2.8l-2.3-2.8l-2.5-7.4L248.6,267.3z"/>
</svg>
