<?xml version="1.0" encoding="UTF-8"?>
<svg width="400px" height="246px" viewBox="0 0 400 246" version="1.1" xmlns="http://www.w3.org/2000/svg" xmlns:xlink="http://www.w3.org/1999/xlink">
    <!-- Generator: Sketch 64 (93537) - https://sketch.com -->
    <title>54</title>
    <desc>Created with Sketch.</desc>
    <g id="54" stroke="none" stroke-width="1" fill="none" fill-rule="evenodd">
        <g id="Group-20" transform="translate(-3.000000, 0.000000)" fill="#FFFFFF">
            <polygon id="Fill-1" points="289.328173 0 288.436656 0.0133760183 287.464152 0.215353894 286.572635 0.634692066 284.923462 1.60579099 283.560083 2.36220482 283.072827 2.64577641 282.38411 2.929348 281.276406 3.21291959 279.493372 3.49649117 278.318068 3.84761165 276.452709 4.19806333 275.777378 4.48163492 275.291461 4.8327554 274.602744 5.44002663 273.994343 6.19644046 272.102881 12.2845352 264.632073 10.0975562 260.781549 12.1086405 258.525314 14.7818378 259.146431 22.7606327 258.390783 22.4904371 256.999293 22.0985198 255.75572 21.6938952 254.783886 21.4912485 254.02623 21.5046246 253.202982 21.5721734 252.310796 21.9232939 252.217093 21.9908428 251.622079 22.4088434 251.203092 22.8281816 250.797492 23.2461821 249.974244 24.3262956 249.230644 25.6358078 248.339127 26.9994929 246.772278 28.8621034 236.96358 28.7945545 209.957032 28.2006593 183.856056 27.3098165 180.060415 27.1479667 176.803566 27.0396209 156.783247 26.2832071 137.584837 25.5675901 130.330216 25.2840185 118.387097 24.8258899 101.432205 24.2453707 75.5608021 23.2461821 68.4949253 23.0167834 66.0091181 22.9358585 55.7419446 22.584738 49.8112129 22.3820913 34.598528 21.7206472 28.7086241 21.4504517 25.9530861 31.0216615 23.8996514 38.1096136 22.291306 43.698114 18.8999261 55.5914007 18.5759814 56.6715142 15.7120156 66.7556943 13.7803948 73.424977 11.3481322 81.7000507 8.63342191 90.9602682 3.60759364 108.145776 0.5 119.944093 1.14855874 123.26469 1.56754509 125.384789 2.47244852 125.384789 16.3605743 125.587435 19.886485 125.803458 20.0216851 125.816165 22.2377614 125.897759 25.1284995 126.046233 25.8312721 126.073654 42.259419 126.883572 51.1759304 127.395873 51.486489 127.395873 51.8639783 127.409918 52.7293926 127.43667 56.296131 127.59852 60.7537174 127.787122 63.9965111 127.908843 68.5631946 127.948971 77.8846369 128.057986 77.7226645 131.256861 77.5606922 134.025028 83.1132653 133.106095 83.7076101 130.244296 84.1399826 129.866424 84.4097134 129.448423 84.4913689 129.04313 84.3963273 128.341558 89.9489004 128.233212 93.0290524 128.543535 97.5281359 129.096634 100.932902 129.245776 101.189247 130.069739 101.540633 130.069739 103.702495 130.149995 104.998944 129.353453 110.240958 128.638505 112.131751 128.678633 116.049876 128.759558 117.806138 128.786979 119.049711 128.786979 130.087257 129.083927 134.639885 129.2324 136.301775 129.218356 143.150796 129.313325 153.864398 129.367498 153.931998 129.380205 157.674764 129.5561 160.011316 129.677822 168.793296 129.610273 171.777738 129.798875 172.521338 129.853048 175.439518 129.988145 181.924436 130.123243 191.61132 130.325221 191.745851 132.566373 206.269149 131.985854 218.496054 131.446131 220.981192 131.337786 225.277475 131.16256 233.289083 130.824815 238.544484 130.717138 238.49027 135.820089 238.42267 142.164335 238.409953 149.845513 243.313968 148.792821 243.461884 149.467641 243.326684 149.872934 243.192154 150.426701 243.259754 151.16907 243.556257 152.532087 243.691457 153.342005 243.907643 154.368614 243.989299 154.908336 243.921699 155.462103 243.719568 156.069375 243.381568 157.095984 243.313968 157.365511 243.381568 157.635038 243.461884 157.918609 243.597754 158.256354 243.597754 158.594098 243.394284 158.999391 243.192154 159.349174 242.854153 159.890234 242.854153 160.362408 242.785884 160.915506 243.00207 161.590326 243.218926 162.130717 243.218926 163.561951 243.367512 163.966576 243.569643 164.236771 243.921699 164.654772 244.273085 165.060065 244.421002 165.532908 244.556202 165.937532 244.773057 166.342825 244.907588 166.612352 245.799105 167.111946 249.622189 169.258797 252.203037 170.702739 256.053562 176.116682 256.107107 175.64384 256.593693 175.509411 257.161266 176.656404 257.376783 177.264344 257.714783 177.466991 258.336569 177.196127 258.471769 176.507931 258.8767 176.035757 259.092217 175.968208 259.228086 176.777457 259.511873 177.655593 259.863259 177.655593 260.889307 176.967397 262.335011 176.278532 262.956797 174.833922 263.294797 174.090884 264.253915 173.335808 265.348232 172.512514 265.550363 171.755431 265.753163 170.257317 266.091163 169.096948 266.698894 168.340534 267.25375 167.51724 267.509425 166.42375 267.441825 165.14099 267.010122 164.115718 266.941853 163.710425 267.212253 163.089109 267.617853 162.481838 267.753053 161.455897 268.225584 160.429957 268.37417 161.792973 268.253026 163.359305 268.603743 163.628831 268.955129 164.573847 269.293129 164.439418 269.644515 164.034793 269.644515 164.439418 269.724832 165.668005 269.590302 166.612352 267.955184 168.880925 266.64535 170.109512 266.388336 171.540077 266.388336 172.161393 266.253136 173.173958 265.915135 173.862154 264.551087 175.981584 262.564583 178.317037 261.322349 179.342978 260.295632 180.449843 259.404114 181.408235 259.335845 181.610881 259.687901 182.150604 261.903308 182.677619 261.849094 183.082912 266.766494 184.337583 266.91575 185.430403 266.510149 187.200051 266.57775 187.672224 266.726336 188.0093 266.726336 188.698165 266.523536 189.103458 266.320736 189.38703 266.117935 189.724105 265.982735 190.06185 265.915135 190.534023 265.848205 191.020242 265.780605 191.628182 265.861591 192.24816 265.996122 192.721002 266.348177 193.328273 266.98268 194.071311 268.185426 205.491756 268.414998 208.151577 268.482598 208.893277 268.969184 208.758848 269.724832 208.20575 270.212088 208.069983 270.630405 208.33951 271.170536 208.259254 271.454322 207.719532 271.170536 206.895569 270.95435 206.220749 270.95435 205.816124 270.940294 205.545929 270.522647 204.857732 269.333288 203.372326 268.71217 202.089565 268.900915 201.401369 269.670618 201.468918 270.576191 202.616581 271.130378 203.223852 271.683895 203.088754 272.183867 204.574161 272.940854 204.843688 274.128874 204.89786 274.602744 204.006349 274.386557 203.196431 274.521757 202.10361 274.507702 201.360572 274.223916 200.550655 273.521143 199.457165 273.237357 198.714796 273.102826 197.904878 273.42744 195.921215 273.683115 194.287334 273.818985 193.679394 274.102771 193.261393 274.440771 193.598469 274.656288 194.421763 274.534474 195.434328 274.264743 196.730464 274.061943 197.351111 273.994343 198.161698 274.07533 198.714796 274.561916 199.592932 275.332289 200.131985 275.818206 200.46973 276.237192 201.684272 276.318178 201.955136 276.682951 204.465815 276.966737 205.626853 276.966737 206.032147 276.696337 206.166576 275.994233 206.045523 275.791433 206.045523 275.453433 206.450147 274.750661 206.261546 273.926743 206.329094 273.237357 206.679546 272.68384 207.232644 273.454212 207.354366 275.183702 207.678735 276.087936 207.88205 276.925909 208.826397 277.074495 210.189413 277.358282 210.796685 277.628682 211 278.046999 210.64888 278.182199 209.838962 278.101213 209.434337 278.168813 209.014999 278.304013 208.273299 279.749717 207.570389 280.289848 206.693591 281.748937 206.477568 283.410158 206.801268 283.815758 206.653463 283.884028 206.315718 283.815758 205.775327 283.951628 205.289109 284.086158 204.681838 284.288958 204.276544 284.072772 203.655897 283.855917 203.115506 283.37 202.845979 283.5728 201.549843 284.613572 202.359761 285.16709 201.887588 285.586076 202.224663 285.518476 202.765054 285.802262 203.372326 286.355779 203.71007 286.572635 204.047146 286.774766 204.317341 286.855752 205.127259 286.923352 205.950553 287.207138 206.08632 287.612069 205.465004 287.477538 204.992161 287.477538 204.721966 287.545138 204.452439 287.396552 203.831123 287.733883 203.560927 287.801483 203.223852 288.138814 202.26546 288.693 201.981888 289.449317 202.116986 289.801373 202.251415 290.004173 202.116986 289.720387 201.226143 289.436601 200.415557 289.017614 199.740737 288.800759 199.133465 288.936628 198.512149 287.545138 196.42014 287.261352 195.74532 286.774766 195.542673 286.288849 195.677102 285.936793 195.340027 285.788876 194.259913 286.071993 194.178988 286.274793 193.504168 286.747324 193.153048 287.518366 194.165612 288.2198 195.461748 288.922573 196.136569 289.260573 195.921215 289.395773 194.772883 289.868304 193.747612 289.652118 191.911084 290.125318 190.885144 290.814035 191.141963 291.583738 192.775175 291.94918 193.989718 293.056884 193.855289 292.759042 191.816783 291.287235 189.778278 290.449932 187.955796 290.21969 186.727208 290.35489 185.430403 290.544304 184.000507 291.503421 182.501724 291.651338 184.135605 291.732994 185.147501 292.017449 185.822321 292.435097 186.84893 292.449153 187.725728 293.151256 189.156962 294.32656 188.940939 295.434263 188.927563 296.12365 189.737481 296.204636 190.966069 296.704608 191.978633 296.920794 192.937025 297.339112 194.152236 297.691167 195.245726 298.12287 195.785448 298.32567 195.852997 298.730601 194.206409 298.784815 193.328273 298.703829 192.235453 298.487643 191.222888 298.271457 190.12873 296.893353 189.467955 296.745436 188.644661 297.569353 188.158442 298.25807 188.361089 298.960843 188.698165 299.298174 188.833263 300.067877 189.090082 300.622733 189.156962 301.17625 188.873391 301.581181 188.603864 301.716381 188.131022 302.405768 187.982548 302.621954 188.522939 303.24374 189.062661 304.067657 188.778421 304.419044 188.306916 304.404988 187.699645 303.499416 186.618863 302.526912 186.416885 301.068492 185.268554 301.757209 184.648575 302.230409 184.175733 303.62123 184.431884 304.526802 185.106704 305.702775 184.958899 306.526023 185.093997 307.025996 185.836366 307.378051 186.443637 307.647782 186.646284 308.269568 186.363381 308.269568 185.620343 308.9449 184.797049 308.863244 182.757875 308.431541 181.259761 309.052658 181.057783 310.025161 181.853656 310.444148 181.584129 309.957561 180.774212 309.741375 180.152895 309.389989 179.545624 309.093486 177.912412 308.390713 176.224359 308.74143 175.80569 310.065989 177.08845 310.687776 177.291096 311.525079 178.236112 311.660279 178.505639 310.835693 178.384586 310.768762 178.654113 311.322279 179.396482 311.944065 179.667346 312.578569 180.2064 313.132755 180.81434 313.551072 180.936061 313.686272 180.260572 313.402486 179.315557 313.605286 178.965105 313.4567 178.559812 312.632783 178.087638 312.416596 177.007525 313.240514 177.061029 313.8623 176.723953 313.781314 176.305953 313.362327 175.764893 312.875741 175.441193 312.322224 174.55035 311.768038 174.010628 311.200465 173.133161 311.336334 172.796085 312.456755 173.605335 312.929955 173.862154 313.146141 173.52441 312.862355 173.119785 312.375769 172.242318 312.781369 172.093176 313.605286 171.621671 314.091872 171.338099 314.294003 171.067904 314.565073 170.864588 314.84819 171.054528 314.646059 171.675175 314.443259 172.633567 314.591845 172.971311 315.347493 173.308387 316.321335 173.835402 317.158638 173.632755 317.847355 173.349184 318.185356 173.483613 318.402211 173.821357 318.685328 174.294199 318.955728 174.631944 319.238845 174.901471 320.063432 175.103449 320.143749 175.57696 319.521962 176.197607 318.847301 177.223547 318.293114 178.181939 317.955783 178.586564 318.50997 178.924308 319.130418 178.236112 319.805749 177.345269 320.765535 176.184231 321.035266 175.495366 321.103535 174.819877 320.819749 174.13235 320.401432 172.984019 320.387377 172.444965 321.076763 172.093176 321.846466 172.296491 322.670384 172.01292 322.738653 171.931326 323.359101 171.661799 323.845687 171.391604 324.183687 171.31001 324.332274 171.513325 324.399874 171.796897 323.642887 172.822169 323.440087 173.36256 322.684439 173.983207 322.278839 174.739621 322.764756 175.077365 323.251342 175.131538 324.075929 174.442673 324.00766 175.198418 324.373101 177.236924 323.480915 177.588044 321.549294 178.289616 320.185246 179.653301 320.117646 180.477264 320.319777 180.679911 321.56268 180.396339 322.048597 179.910121 322.386597 179.30285 323.075984 179.019278 323.778087 179.423903 324.130143 180.639114 324.61606 181.313265 324.14286 181.867032 323.386542 182.150604 321.792922 181.962002 320.954949 182.16398 320.616949 182.582649 321.035266 183.12304 321.738708 183.594545 322.562625 183.379191 323.251342 183.582507 323.805529 183.986462 323.602059 184.459305 321.265508 185.56617 321.211294 186.389464 321.56268 187.064284 322.116867 188.495518 321.980997 189.035909 321.590122 190.399594 321.373266 190.737339 321.238735 191.155339 321.738708 191.964588 321.535239 193.395822 321.549294 194.071311 321.83308 195.029703 322.116867 195.569425 322.251397 196.244914 321.08948 197.486878 320.833135 198.781676 320.495135 200.281128 320.157804 201.307068 319.536018 201.779242 317.618452 202.886107 316.996666 203.641852 317.280452 204.534033 317.631169 204.721966 318.104369 203.979597 318.860017 203.898672 319.347942 204.439063 320.049376 204.776808 320.671163 205.248981 321.08948 204.695883 321.90068 203.467295 323.616115 201.820039 325.682936 200.780053 326.656108 201.104422 327.628612 201.036873 328.453198 200.753301 328.506743 199.187638 328.575012 198.296127 328.911674 197.553758 329.115143 197.473502 329.53346 198.094149 329.412316 199.173593 329.546847 200.131985 329.695433 200.402181 330.182019 200.402181 332.11364 200.105902 333.288943 199.686564 334.532516 199.808286 334.532516 199.605639 334.518461 198.445269 334.978275 195.933922 335.464192 195.380155 335.950778 195.71723 336.450751 198.094149 336.531737 198.768969 335.774751 199.524714 335.97822 199.862458 336.747923 199.727361 337.085254 199.727361 337.369041 199.646436 338.476744 199.646436 339.152744 199.295315 339.503461 199.093337 340.463248 198.53957 341.152635 197.918923 342.178683 196.878938 343.0702 195.447704 342.503297 194.085356 343.677931 193.801116 344.975048 191.681686 345.448918 190.858392 345.718649 190.318001 345.704593 189.022533 346.66438 188.131022 347.839683 187.240179 348.177014 186.618863 348.649545 186.133313 349.420587 186.200862 349.838904 186.740584 349.906504 187.348525 349.98816 187.753818 349.98816 188.306916 350.203677 188.508894 350.419863 189.38703 350.271277 189.656556 349.798076 190.344753 349.866346 190.682497 351.10858 190.466474 352.63527 189.64318 353.581001 188.131022 354.202118 186.970652 355.647822 186.551314 357.093526 186.740584 358.566671 187.955796 358.768802 187.807322 359.727919 187.672224 361.106023 186.565359 362.565782 186.416885 363.119299 186.754629 363.52423 186.740584 363.65943 186.267742 363.308713 185.660471 363.99743 184.837177 365.240334 184.89135 366.91561 185.75611 366.98321 186.578735 366.226223 186.929855 365.402306 187.200051 365.199506 187.618051 364.71292 187.618051 364.227003 187.482954 364.037589 188.644661 364.186175 189.80503 364.524175 190.142775 364.874892 190.075226 365.699479 189.38703 365.820623 188.361089 367.887444 186.834885 370.644321 185.458493 371.535838 185.039155 372.157624 184.215861 372.562555 184.351628 373.184342 184.135605 374.223776 184.054011 376.020866 183.636011 378.236273 183.946334 380.235494 183.041447 382.506453 182.339874 384.369805 181.786776 386.031695 181.556709 386.991481 181.691806 388.233716 181.205588 390.166006 180.908641 391.963096 180.477264 393.27293 180.193692 394.462289 180.867844 395.218606 181.610881 395.637593 181.812859 396.05591 182.070348 396.39391 181.394859 395.907993 180.855136 396.59671 181.043738 397.367083 180.774212 398.460731 180.139519 398.677586 180.625069 397.853 182.056303 398.622703 182.461596 399.771234 180.274617 400.176834 178.897556 399.609262 177.141954 399.595876 175.712057 399.51422 175.023192 398.758572 174.631944 398.271986 174.901471 397.7178 175.319471 397.096682 175.319471 396.826282 175.117493 396.272765 174.793794 396.25871 174.240695 396.812896 173.483613 396.66431 173.214086 396.042523 173.29568 395.705193 173.565207 394.813675 174.118974 394.597489 173.713012 394.448234 172.903762 394.786234 171.945371 395.191834 170.716783 396.015751 170.298114 397.191055 170.284738 397.393186 170.014542 397.245269 168.785955 397.448069 168.448211 397.245269 167.976037 398.069186 167.422939 397.9206 166.734074 397.150227 165.856607 396.93471 165.384434 397.285427 165.114238 397.974814 165.371058 398.609986 166.113427 398.947317 165.775682 399.352248 165.087486 399.907104 164.884839 400.338807 166.166931 400.622593 167.328638 400.838779 167.935909 400.973979 168.205436 401.203552 170.581017 401.433124 172.768665 401.730297 174.672072 401.744352 175.549539 401.460566 175.900659 401.473283 176.372833 401.338752 176.980104 401.284538 178.276909 401.216938 179.572376 400.474007 180.665866 399.595876 183.055491 400.014862 183.744356 401.10851 182.029551 401.716241 180.800964 402.311925 178.478887 402.5 175.886614 402.406297 173.227462 402.028138 170.109512 401.716241 166.49063 401.554269 163.979952 401.406352 161.806349 401.122566 161.401724 401.190166 160.781077 400.014862 160.727573 399.461345 161.618416 399.042359 161.618416 398.690972 160.6734 398.488172 160.13234 397.042469 161.577619 396.150951 162.535342 395.596765 162.818913 395.529834 161.996288 396.339696 160.281483 396.961482 159.525069 397.096682 159.39064 397.569213 159.053564 397.838944 158.364031 397.623427 157.419684 397.339641 156.325525 397.812841 155.5029 398.231828 155.300254 398.636758 155.084231 398.988145 155.421975 399.474062 155.556404 399.623317 155.961029 399.907104 157.325383 400.204276 159.22879 400.338807 159.632746 400.825393 159.565866 401.027524 158.945219 400.812007 157.716631 400.447235 155.745675 399.947262 154.12517 399.028303 151.479394 398.298758 148.414948 397.367083 145.161901 396.096737 142.245929 395.529834 140.477619 394.192558 137.560978 392.435627 134.105284 390.746964 131.122432 389.192833 128.55758 387.802012 126.734429 386.477453 125.249691 384.870447 123.832502 382.85717 122.549742 380.560777 121.416124 377.574328 120.430312 373.913217 119.445168 372.251997 119.458544 370.873893 119.404371 369.698589 119.485296 367.969099 119.701319 366.995927 120.052439 365.969879 120.673086 365.564278 121.294402 365.429078 121.901674 365.361478 122.455441 365.712865 122.657419 366.402251 122.10432 366.740251 122.171869 366.820568 122.508945 366.550168 122.846689 366.753637 123.184434 367.171955 123.589058 367.59161 123.926803 368.009927 124.534074 368.428914 125.006916 368.847231 125.965308 369.550003 127.112301 370.670424 128.39573 371.575996 128.449235 372.819569 128.233212 374.049087 127.207271 374.183617 126.450857 373.5625 126.532451 372.535783 127.288196 371.76608 127.50355 371.076024 127.571768 370.806293 127.234023 370.37459 126.626752 370.522507 126.357225 370.657707 126.141203 370.995038 125.937887 371.616824 125.182142 372.021755 124.291299 372.629486 123.670652 373.603328 123.116885 374.426576 122.846689 375.386363 122.900862 376.223666 123.089464 377.264439 123.42654 377.885556 123.764284 378.858059 124.426397 379.831232 124.89857 380.803066 125.574059 381.722695 126.519075 382.559998 127.59852 383.126901 129.2324 383.681088 130.446943 383.91066 131.810628 384.127516 133.309411 384.275432 134.592171 384.356419 135.75254 384.369805 136.981128 384.315591 138.61434 384.329646 140.045574 384.410632 141.138394 384.491619 141.881432 384.640205 143.649742 384.707805 144.324562 384.870447 145.553149 384.870447 146.849285 384.883163 147.942775 385.032419 148.752693 385.316205 149.292415 385.735192 149.697708 386.355639 149.629491 386.490839 149.076392 386.342923 148.671768 385.990867 148.063828 385.77535 146.76836 386.247881 146.363067 386.247881 145.337126 386.234495 144.513832 386.018978 143.231072 386.153509 143.095975 387.112626 142.124207 387.868943 141.705537 388.49073 141.840635 388.909716 141.975733 389.192833 142.245929 389.328702 142.516124 389.409688 143.055178 389.679419 143.257824 389.896275 143.798215 390.180061 144.20284 390.598378 144.675682 390.801178 144.81078 391.354695 144.81078 392.259599 144.662306 392.86733 144.176088 393.570772 144.64893 392.813116 145.135148 392.881385 145.809969 392.963041 146.363067 392.273654 146.498165 391.855337 146.025991 391.368082 146.106916 390.949764 146.173796 390.746964 146.309563 390.611764 146.524917 390.760351 146.997759 391.097681 147.267955 391.517337 147.469932 392.003254 147.389008 392.421571 147.322127 392.827171 147.591654 393.110958 147.929399 392.435627 148.820242 392.21944 149.157986 392.301096 149.629491 392.233496 150.250807 392.246882 150.791198 392.463068 151.682041 392.679254 152.762154 393.110958 154.598013 392.989144 156.704067 393.20533 158.270398 393.232772 160.119633 392.679254 160.794453 391.719468 161.901319 391.044137 162.85971 389.382247 163.697049 388.152729 164.452794 384.491619 165.775682 382.978315 166.275277 381.600881 166.963473 380.911494 167.045066 380.438963 167.180164 379.952377 167.800143 379.46579 167.530616 378.912273 167.328638 377.87217 167.476443 376.913052 168.719075 376.642652 168.245564 375.93988 167.908488 373.400528 168.880925 372.562555 168.759203 369.252831 170.217189 367.537396 171.324055 366.995927 172.214897 367.279713 172.688409 366.793796 173.10574 366.037479 173.308387 365.699479 173.794605 365.010761 174.482801 364.874892 175.22517 364.388975 175.239215 364.186175 174.686117 363.835458 174.631944 363.213671 174.766373 362.038368 175.185042 361.146181 175.131538 360.173678 175.211794 358.863174 175.144245 356.580167 175.036569 355.188677 174.779749 354.49996 174.307576 354.148574 173.42944 354.621774 173.214086 355.391477 173.349184 356.351264 173.26759 357.188567 172.984019 358.080085 172.768665 359.052588 173.038191 359.606105 173.578583 360.295492 173.36256 360.781409 173.565207 361.200395 173.227462 361.605995 173.078988 362.308768 173.349184 362.929885 173.200041 362.713699 172.660319 361.741195 172.053048 360.768692 171.661799 358.755416 171.47186 354.742919 171.445776 351.149408 171.202333 345.880621 169.757723 340.394979 167.557368 339.003489 166.409706 338.314772 165.816479 336.639496 164.196643 334.694489 162.846334 333.019213 161.023183 332.51924 159.45752 332.641054 157.958737 333.667102 155.975074 334.058647 154.611389 334.478302 153.652997 333.84313 152.303357 333.896674 150.602596 333.950888 148.833618 333.450916 148.145421 332.681212 147.267955 332.329826 146.660683 331.979109 145.58057 331.979109 144.757276 332.870626 144.405487 332.92484 143.123395 332.100254 143.123395 331.19602 142.650553 330.222178 141.989778 329.66866 141.314289 328.615171 140.707018 327.507467 140.166627 326.953281 140.113122 326.534295 140.180671 325.926564 140.382649 325.372377 141.071514 324.81886 141.287537 323.792143 141.287537 323.440087 141.098266 323.22457 140.963837 322.805584 140.274972 322.454867 139.600152 321.752094 138.182294 321.333108 137.223234 320.833135 136.346436 320.41348 135.739164 320.143749 135.537187 319.874018 135.954518 320.293004 136.697556 320.779591 137.575023 321.130977 138.317392 320.995108 138.871159 320.860577 139.275784 320.657107 139.613528 320.03599 139.559355 319.130418 138.749437 318.428314 138.0064 317.942397 136.913579 317.307225 136.103661 316.483307 135.428841 315.010162 134.496532 314.808031 133.471261 314.172859 132.660674 313.551072 132.322929 313.470086 131.58056 314.91579 130.74389 315.739707 130.190792 316.091093 130.527868 316.57701 131.418711 316.996666 131.756455 317.280452 131.824004 317.482583 131.743748 318.17197 131.122432 318.3065 130.64959 318.158583 129.974769 317.184741 129.434378 317.591011 128.678633 317.860742 128.138911 317.996611 127.787122 318.131142 127.248068 318.266342 126.626752 318.671942 126.019481 319.643776 125.870338 319.495859 125.330616 319.009942 125.196187 318.320556 124.723345 317.9685 124.655127 317.698769 124.588247 317.482583 124.182954 317.618452 123.778329 317.955783 123.360328 319.266287 123.008539 319.550073 123.832502 319.901459 124.372224 320.117646 124.845066 320.75148 125.654316 321.238735 126.680925 322.359825 128.233212 323.346384 129.71795 323.561901 130.878988 323.210515 131.284282 322.454867 131.83738 321.980997 132.322929 321.778866 132.458696 321.642997 132.728223 321.576066 133.080012 321.711266 133.551517 322.130253 133.619734 322.819639 133.201734 323.156301 132.377102 323.845687 131.891553 324.669604 131.472883 325.507577 132.080823 326.048377 131.945726 326.115977 131.540432 325.007605 130.244296 324.507632 129.570145 323.116142 127.746994 321.35988 125.168766 320.806363 123.954224 320.44159 122.873441 320.305721 122.252794 320.293004 121.712403 320.495135 121.226853 320.981721 121.024207 321.184522 120.889109 321.171135 119.255897 320.549349 118.445979 317.684714 115.327361 316.415038 113.099585 315.091817 110.454477 314.105259 109.104168 313.970058 108.685499 313.753872 108.348423 313.483472 108.348423 313.200355 108.496897 313.767258 110.049184 313.781314 110.872478 312.875741 110.738049 312.591955 109.859913 312.444038 108.982446 312.241238 108.564446 311.470196 108.307626 310.781479 108.577153 310.295562 108.388551 310.984279 107.632137 311.538465 107.68631 312.429982 107.753859 312.646838 107.335859 312.348996 105.297353 312.26801 104.419887 312.40321 103.73169 312.47081 103.393946 312.60601 103.042825 312.456755 102.637532 312.322224 102.503103 311.768038 102.853555 311.362437 102.853555 311.417321 102.178735 311.822251 101.422321 310.646948 100.81505 308.768872 99.1276649 307.511913 97.5078291 307.14781 95.7395195 306.594292 94.8620527 306.107037 95.0640306 306.040106 96.09064 305.566906 96.4417604 305.148589 96.5761894 304.675388 96.846385 304.419044 97.6563029 303.851471 97.8181527 303.635285 96.2524898 303.202912 94.4166313 301.878353 93.7411423 300.149533 93.0796982 299.798146 93.0121494 298.068656 92.6884497 296.825753 92.0129608 296.542636 91.8785318 295.150477 90.3262449 294.232187 88.6248154 293.67867 87.2751751 293.732884 86.5194301 292.692111 86.5328061 290.773877 86.8966338 289.395773 87.3835209 289.395773 87.8556943 290.01689 88.0576722 290.638007 88.3285366 291.679449 87.9774161 292.705497 88.1660179 293.13787 89.0441535 293.556856 90.2727408 293.637842 91.027817 293.502642 91.6357571 294.258959 91.703306 294.610346 91.8250277 295.163863 92.432299 295.799705 92.9720213 295.934236 93.930413 295.813091 94.4701353 295.394105 94.5517291 294.975788 94.8219246 294.637787 94.9021807 294.286401 94.4841802 293.866745 94.4300073 293.597015 94.6319852 293.880801 95.509452 293.462484 95.7261435 292.921014 95.8605724 292.367497 95.8746173 291.94918 95.401775 292.273125 93.890285 291.935794 93.7551872 290.82809 93.8361121 289.314787 95.3476021 288.909856 96.3059939 289.192973 97.0490317 289.409159 97.1834606 289.274628 97.7372278 288.922573 97.9398745 288.381772 98.2903262 288.166255 98.2234461 287.680338 97.6830549 287.328283 97.0757837 287.180366 96.3875876 287.733883 95.4291959 287.382497 94.9563536 286.423379 95.5776697 285.667062 96.130768 285.180476 96.3340835 284.977676 96.9540619 285.261462 97.8321975 285.478317 98.317747 284.991062 98.7230403 284.653731 98.4528448 284.369945 97.9124536 284.221358 97.7104758 283.600241 97.5078291 283.531972 97.1032045 283.519255 96.4959333 283.802372 96.144144 283.869972 95.7395195 284.410772 95.6719706 284.829089 95.3208501 285.30229 94.6319852 285.50509 94.1598117 286.058607 93.5391645 286.058607 93.1338711 286.180421 92.2430283 285.559304 92.0403816 284.315731 92.6744049 283.6404 93.3498938 283.086213 93.4308187 281.560193 93.3773147 280.722889 92.7693746 280.235634 92.0945545 279.263799 91.4190656 278.506144 90.7449143 278.289957 90.3389521 278.425827 89.7189737 279.452544 89.4354021 279.93913 88.9625598 280.344061 88.4087927 280.965179 87.9232432 280.965179 87.450401 279.857475 87.3968969 278.546971 88.085093 277.993454 88.5030936 277.371668 88.3011157 276.952681 88.098469 276.682951 88.4362135 276.290737 90.4205458 275.521033 89.8808235 275.304847 88.3151605 275.291461 87.6396716 276.452709 86.0599639 275.413275 85.6553393 275.345675 85.250046 275.345675 84.8454214 276.237192 84.426752 276.925909 84.426752 277.196309 84.0080827 277.818096 83.5900821 278.709613 83.3198865 278.642013 82.2939459 278.155427 82.0237504 276.628737 81.0111858 276.128764 80.4714634 274.764716 81.3763511 274.21053 81.2405845 274.54853 80.2821928 275.020391 79.8100193 274.940075 78.5138832 275.223861 78.1627627 277.642068 79.2428762 279.317344 80.6466893 279.735661 80.849336 279.93913 80.7817871 280.209531 80.6466893 280.560248 80.2955688 280.965179 80.3631177 281.518696 79.9584931 281.654565 79.404726 281.370779 78.9994326 280.884862 78.9994326 280.546861 78.6616882 280.18142 77.7173413 279.831372 77.1094012 279.411716 76.4212051 279.614516 75.746385 280.168703 75.746385 280.722889 76.0700846 280.668006 77.096694 280.939076 77.3668896 281.424993 77.7039653 281.97851 77.839063 282.816482 77.6223715 283.153813 77.6223715 283.4376 78.0283337 283.167869 78.7834099 283.167869 79.1887033 283.384055 79.4588989 283.722055 79.7966433 285.397331 81.3489302 285.681118 81.0111858 284.897359 79.5130717 284.477703 78.0142889 283.424213 76.3269042 283.343897 75.638708 283.829814 75.0983169 283.343897 74.7612412 282.924241 74.4234968 282.086938 74.0864211 281.816537 73.8162256 281.803151 73.0063076 281.451765 72.3849916 281.451765 71.3055469 282.194696 70.0629148 282.951683 69.1045231 283.977731 67.7408381 284.856531 66.7015214 285.275517 66.4313259 285.612848 66.2153032 286.314952 66.4854987 286.598738 67.4438905 286.680393 68.6724777 287.16631 70.4949602 287.801483 70.5625091 288.544414 70.1445085 289.868304 70.616682 290.759821 70.6026372 291.111877 70.1304637 290.692221 69.4556436 290.342173 69.0369742 289.233801 68.7808235 288.747214 68.5781768 288.328897 68.5106279 288.045111 67.9709056 287.626124 67.4305144 287.626124 66.202596 287.747269 65.5946559 288.017669 64.5011664 288.707056 63.5427747 289.733104 63.3943009 290.909077 63.8530984 291.813311 64.1908428 292.232966 63.8530984 292.435097 63.5019779 292.773097 63.2324511 293.516698 61.5851945 294.204746 61.234074 294.826532 60.8294494 295.515919 60.2756823 295.920849 59.8576817 296.677167 59.5868173 297.92074 59.7085391 298.541857 59.0878919 298.798871 57.2513645 298.108815 57.1844845 296.812367 58.8310723 296.475036 58.8310723 296.866581 57.468056 297.339112 55.4830549 296.583464 55.3613332 295.40816 55.1593553 294.988504 56.0501981 294.515973 56.6715142 294.042773 57.562357 293.773042 57.9676503 292.86747 58.1161241 292.921014 56.4153634 292.503367 55.3894228 292.975228 55.0516783 294.556132 53.6746173 294.624401 52.9182034 294.137815 52.7162256 292.908967 53.7555422 292.62518 53.215151 292.137925 52.8780754 291.651338 52.472782 290.881635 52.2032553 289.773931 51.6762401 288.666228 51.4735935 288.800759 50.8663222 289.206359 50.4483217 291.084435 50.9071191 292.043552 50.6910964 292.463208 51.5143903 293.366773 51.7712099 294.39416 51.0154648 295.367332 51.0823449 295.920849 51.1365178 296.609567 50.5158706 298.541857 50.3667279 299.85236 50.0831564 301.905795 48.9762908 303.499416 48.6258392 304.257071 48.2747187 304.810589 49.0177565 305.080989 49.0839678 305.634506 48.6659672 306.728154 47.5731465 307.21541 47.1538084 307.971727 46.8026879 309.066044 46.5191163 309.687161 46.8568608 310.187134 47.3972519 310.390603 47.5316809 311.07932 47.0461314 311.484251 46.6408381 312.173638 46.6950109 312.727824 46.3572665 313.213741 46.2087927 313.686272 45.6697391 314.024272 45.250401 314.308059 44.9802054 314.78059 44.4946559 315.172804 42.3752258 315.861521 41.6863609 316.212907 41.4168341 317.172694 41.4027893 317.942397 41.6736537 317.874797 42.0107293 317.942397 42.3618498 317.874797 42.5644965 317.738928 42.8346921 317.942397 43.0366699 318.090314 43.2393166 318.090314 43.4419633 317.955783 43.657986 317.604397 43.792415 317.334666 44.2652572 317.198797 44.7508067 317.063597 45.0210023 317.144583 45.4262956 317.482583 45.6958224 318.104369 45.4938445 318.657887 44.7374307 318.6445 44.1843323 318.779701 43.8465878 319.401487 43.5636851 319.603618 43.4285873 319.955673 43.0226251 320.225404 42.6046246 320.563404 41.9973533 320.901405 41.5111351 320.968335 40.8904878 320.819749 40.0123522 321.15708 39.7428254 321.576066 39.391705 322.130253 39.0405845 322.251397 38.5008622 322.386597 38.0962376 322.873184 37.7444483 323.359101 37.6100193 323.980887 37.5290944 324.251287 37.5290944 324.602674 37.4608767 324.940674 37.3130717 325.075205 36.6375828 325.075205 36.4356049 324.859018 36.1520333 324.859018 35.6791911 324.926618 35.2745665 324.778032 34.9374909 324.426646 34.5315287 324.494915 34.2479571 324.292115 33.7757837 323.521742 33.573137 322.562625 33.3845352 322.143639 33.1143396 321.859853 32.709715 321.576066 32.3719706 321.576066 31.6155568 321.83308 29.9823449 321.630949 29.5777204 321.278894 29.4426226 320.927508 28.9697803 320.725377 28.7678025 320.373321 28.8353514 319.481804 29.6586453 319.076873 29.6051412 318.860017 29.3349456 318.104369 30.009097 317.280452 30.5628641 316.874852 31.5894735 315.713604 32.8314368 315.172804 33.2494374 314.970004 33.8567086 315.037604 34.6131224 315.25379 34.8151003 315.45659 34.8151003 315.726321 34.7482202 316.010107 35.1528448 315.943176 35.6925671 316.226293 35.9627627 316.374879 36.4356049 316.037549 37.3939966 315.834749 38.0146439 315.699548 38.2855083 315.415762 38.2172906 315.145362 37.9477638 314.929845 37.9477638 314.658776 38.0962376 314.455976 38.0962376 314.038328 37.8935909 313.483472 37.7584931 313.200355 37.826042 312.997555 37.7584931 312.929955 37.2856509 313.132755 36.8134774 314.091872 36.462357 314.429873 36.3272592 314.577789 36.1787854 314.699603 35.3013186 314.078486 34.8291451 313.5243 34.6264985 312.686996 34.4914007 312.213796 34.3027988 311.863079 33.9510095 311.511024 33.8975055 311.092707 33.6273099 310.754706 33.6273099 310.619506 34.167701 310.619506 34.9234461 310.565962 35.3956195 310.430762 35.6791911 309.876575 35.8818378 309.389989 35.9627627 309.052658 35.9627627 308.917458 36.6375828 308.917458 36.9887033 308.849858 37.2588989 308.579458 37.3939966 308.025941 37.056921 307.944954 36.515861 308.011885 36.1787854 307.944954 35.8958826 307.728099 35.8410409 307.390768 35.7741608 307.107651 35.8410409 306.364051 36.9351992 306.080264 36.9351992 305.810534 36.5299059 305.796478 36.1246125 305.728878 35.8550857 305.594347 35.5173413 305.174692 35.2471457 305.174692 35.0451678 305.310561 34.6933786 305.228906 34.154325 305.026775 33.5470538 304.675388 33.0735427 304.595072 32.79064 304.728933 32.3860154 304.931733 31.7646994 305.82392 31.2109322 306.526023 31.5486767 307.14781 32.088399 307.701996 32.2234968 308.119644 32.4261435 308.606899 32.6281213 309.025216 32.9658658 309.714603 33.2226853 309.916734 32.9524898 309.2153 31.9399252 309.0125 31.6028495 308.728044 31.2651051 308.309727 30.7120067 307.540024 30.2525405 306.647837 30.0505626 305.89085 29.8472471 305.404933 29.7261942 304.850747 29.5235475 304.36483 29.2533519 303.594457 29.185803 302.986726 29.4693746 302.43254 29.6051412 302.216354 29.5509683 302.081154 29.4152017 302.216354 28.9972012 302.486754 28.6601255 302.554354 28.5243589 302.83814 28.2414561 302.136037 27.6335161 301.44665 27.5117944 300.824864 27.5117944 300.757933 27.5793432 300.270677 27.9311325 299.731216 28.1331104 299.312229 28.0655615 299.028443 27.8629148 299.096043 27.3231925 299.433374 27.1205458 299.78476 26.8369742 299.85236 26.2972519 299.838974 25.8117024 299.636174 25.2713113 299.622119 25.0686646 299.622119 24.8660179 299.555188 24.1096041 300.027719 23.6374307 300.095319 22.9492345 299.946733 22.0042188 299.798146 21.3160227 299.731216 21.113376 299.865746 21.113376 300.284733 20.9782782 300.838919 21.4504517 301.541023 22.7332118 301.757209 23.6916035 302.040995 24.9068148 302.743768 26.2022822 302.810698 26.2704999 303.378271 26.9446512 303.513471 27.4857111 303.797257 27.6201401 304.135258 27.8227868 304.621175 27.8227868 304.890905 27.6067641 305.026775 27.2690196 305.026775 27.0663729 304.959175 26.7961774 304.878189 26.0404323 304.040216 24.4881454 303.405713 23.1244604 302.919796 21.6263463 302.136037 19.5202922 301.500195 17.4142382 301.000892 15.7134774 300.851636 14.9035595 300.703719 14.2822435 300.568519 13.5398745 300.486864 12.446385 300.474147 11.5555422 300.324891 10.6105265 299.500974 10.6780754 299.312229 12.9319345 299.393216 13.3372278 298.974229 13.2830549 298.352443 13.1486259 298.068656 13.2161748 297.460925 13.3646486 296.488422 13.0944531 295.651119 12.6891597 295.029332 12.0143396 294.475146 11.6090462 292.746325 10.9482709 291.908352 10.5429776 291.557635 10.0708041 291.273849 9.46286412 291.47598 9.11174364 292.097766 9.04419474 292.93507 9.31439031 294.042773 10.259406 294.192029 10.3945038 295.150477 10.380459 296.32578 9.9624584 297.083436 9.47690894 298.041884 9.54378903 298.528471 9.53041301 299.082657 9.73305968 299.636174 9.4494881 300.108705 9.4494881 299.960119 8.28844971 299.812202 6.25061333 299.731216 4.75183049 299.71716 3.79343878 299.500974 2.10538527 299.285457 2.09200926 298.25807 2.51067863 297.366553 3.06444578 296.475036 3.54999525 296.056049 3.75264192 295.718049 3.69846905 294.677946 3.09119782 293.488587 2.21373102 292.449153 1.26871533 291.827366 0.864090779 291.124594 0.526346318 290.300676 0.189270658"></polygon>
            <polygon id="Fill-2" points="306.80221 32 307.233428 32.0827191 307.607627 32.3308763 308.269779 32.7436527 308.5 33.2399672 308.427299 33.6535627 307.837847 34 307.333927 33.8353808 306.888453 33.4217854 306.658232 33.1736282 306.514255 32.7608518 306.5 32.2645373"></polygon>
            <polygon id="Fill-3" points="283.569321 87.5491071 283.5 87.0854592 283.615153 86.5063776 283.962332 85.8494898 284.493985 85.2576531 285.084073 85 285.44271 85.1294643 285.5 85.4508929 285.44271 85.7085459 285.211258 86.1071429 285.037668 86.4292092 285.037668 87.1371173 284.921942 87.3431122 284.575337 87.8577806 284.043111 88 283.74291 87.8711735"></polygon>
            <polygon id="Fill-4" points="288.430435 88.2832437 288.589328 88.0708109 288.765613 88 289.08419 88.0708109 289.5 88.4956766 289.5 88.8497312 289.259684 89.2030848 288.941107 89.5003505 288.605929 89.8544052 288.446245 90.2785698 288.462055 90.6466464 288.382213 90.8590792 288.126877 91 287.727668 90.9291891 287.232806 90.7174573 286.818577 90.5758355 286.579051 90.3634027 286.5 90.009348 286.898419 89.6559944 287.632016 89.2171068 288.190909 88.8637532"></polygon>
            <polygon id="Fill-5" points="399.90205 167 400.017084 167 400.132118 167.071654 400.316059 167.354759 400.431093 167.637864 400.5 168.219529 400.5 168.645241 400.384966 169 400.154897 169 399.914009 168.858096 399.557517 168.588339 399.5 168.290481 399.729499 167.722866"></polygon>
            <polygon id="Fill-6" points="399 172.896231 398.7831 172.843573 398.554898 172.635519 398.5 172.427465 398.608719 172.20857 398.717976 172.20857 399.05436 172.104285 399.271798 172 399.5 172.155911 399.5 172.364997 399.445102 172.833764 399.391281 172.937532 399.228202 173"></polygon>
            <polygon id="Fill-7" points="393.5 199.44453 393.562385 199.097362 393.932416 198.52883 394.685321 197.543009 395.178899 196.558563 395.487768 195.642176 395.734862 194.309874 395.783792 192.214488 395.648624 191.021054 395.512844 190.188537 395.944648 189.897053 396.698165 189.259087 396.512844 188.565438 396.438838 187.801667 396.882875 187.441437 397.253517 187.094268 397.314679 186.734038 397.240673 186.178568 397.303058 185.415485 397.425994 184.985134 397.488379 184.291484 397.796024 184 398.36422 184.347169 398.438226 184.624216 398.5 184.971384 398.377064 186.025952 398.203364 186.734038 398.142202 187.635301 397.784404 189.81387 397.166667 192.131305 396.277982 198.930996 395.203976 199.916817 394.389297 200 394.203976 199.929879 394.006422 199.860445 393.759327 199.652831"></polygon>
            <polygon id="Fill-8" points="348.816955 188.078173 348.899114 188 349.158478 188.078173 349.239831 188.390867 349.158478 188.937307 349.337294 189.48452 349.5 190.047214 349.25594 190.593653 349.011881 190.828173 348.427104 191 348.020338 190.921827 347.760169 190.843653 347.597463 190.140867 347.5 189.672601 347.581353 189.26548 347.581353 188.875387 347.662706 188.562693 348.166935 188.157121"></polygon>
            <polygon id="Fill-9" points="300.91472 192 301.943029 192.222373 302.028662 193.054384 303.5 194.695762 303.214084 194.987807 302.914013 194.941359 302.414367 195 301.2431 194.952971 300.571479 194.543062 300.5 194.238243"></polygon>
            <polygon id="Fill-10" points="308.515968 210.202897 309.200599 209.705787 309.603792 209.430223 310.288423 209.071238 310.90652 208.091378 311.523952 207.607944 312.275782 207.180581 313.028277 207.318021 313.847305 206.890657 315.350965 205 316.036261 205.261888 317.070193 205.813701 317.5 206.84963 314.693613 209.31945 313.874584 209.250389 312.839987 209.747498 312.020958 210.175545 311.335662 211.017281 310.583832 211.293529 310.315037 211.307205 309.697605 211.514391 310.046906 212.273388 310.046906 213.115808 309.643713 213.819419 308.824684 214.164046 307.723553 214.592093 307.118762 215.295705 306.017631 216 304.849301 215.80649 304.5 214.910052 304.835995 213.791384 305.10479 213.018711 305.641717 212.452539 306.394212 212.176975 306.662342 211.404302 307.011643 211.128054 307.495343 211.044632 307.696939 211.044632"></polygon>
            <polygon id="Fill-11" points="340.5 229.436114 339.670878 229.716331 338.921288 229.729549 337.891348 229.796299 337.007879 229.876267 335.978601 229.556396 334.613963 229.636364 333.369286 229.569614 332.48648 229.449993 331.3896 229.46321 328.647068 229.543178 323.576898 230.130048 319.95156 230.436701 311.951958 231.784256 310.788138 232.464312 310.038548 233.211779 309.436755 233.891834 309.035118 235.105889 308.701084 236.653033 308.366386 236.986782 307.952156 237 307.336446 236.800411 306.159371 236.066162 305.195707 235.412542 304.44678 235.012704 302.988029 233.478117 301.329122 231.277354 300.5 229.996549 300.767758 229.3958 301.102456 229.116243 301.784443 229.049493 302.747444 228.969526 303.363155 228.902776 307.964749 229.52996 308.032351 230.343516 307.148882 230.543766 306.667051 230.957483 306.399955 231.704288 306.814848 232.437876 307.296017 232.491408 307.710909 232.423998 307.911728 232.691658 308.259018 232.891908 308.807789 232.61169 308.874729 232.144441 309.142487 231.410192 309.061629 230.263548 309.049037 229.249743 309.049037 228.515494 309.383071 227.902188 310.052466 226.688133 311.135428 225.127111 311.683537 224.327434 312.018234 223.379718 312.419871 222.432663 313.918388 221.819357 314.65406 219.991335 315.389732 218.030474 316.206261 216.883169 317.021465 216.069614 317.837995 215.655897 319.135693 214.975841 319.60427 213.761786 320.487076 213.014319 322.613897 212.454545 323.028789 212.788295 323.99179 213.854971 324.472959 213.521883 324.111751 212.441328 323.89834 211.50749 325.463796 210.213467 326.827772 210 327.322859 210.733588 326.921885 212.481642 326.8682 214.028785 326.934477 214.428624 326.600442 214.909091 326.400287 215.655897 326.212061 216.723234 326.212061 217.470701 326.693893 217.390072 327.229409 216.723234 327.77818 215.642679 328.460168 215.162212 328.794202 214.615656 328.232176 213.348069 328.633813 212.601263 330.266209 211.37399 330.881257 211.44074 331.376344 212.854384 331.790574 213.454472 332.00531 213.854971 332.219384 214.52247 332.366519 215.388897 332.231977 216.936701 332.513653 218.017257 332.874861 218.750844 332.393692 218.817594 331.764063 218.497063 331.13576 217.083419 330.520049 217.163387 330.466365 218.77728 331.095994 218.964312 331.16227 219.510868 331.309405 220.311206 332.273068 220.712366 333.222814 220.364738 332.941801 219.698561 333.141956 219.484432 333.770923 219.951021 335.349635 220.952269 336.861407 221.33889 336.874662 222.219195 336.52671 222.753194 336.325891 223.153033 336.27287 223.699589 336.820978 224.833676 337.11591 225.980981 336.981368 226.647819 337.196105 227.661624 337.543395 228.062124 337.811153 228.329123 338.159106 228.515494 340.419805 228.902776"></polygon>
            <polygon id="Fill-12" points="299.5 214.260923 299.881785 214.012923 300.396903 214.012923 301.308379 214 302.132423 214.124308 303.118215 214.298462 303.5 214.857231 303.352823 215.428308 302.676685 215.875692 301.632605 216 301.176503 215.950154 300.499636 215.826462 299.735337 215.204923"></polygon>
            <polygon id="Fill-13" points="292.986962 220 292.645372 219.667544 292.5 218.724161 292.763364 218.258723 293.302477 218.179065 294.790091 218.298881 295.723598 217.820276 296.670795 217.076366 298 216 298.211213 216.199473 298.276402 216.797235 298.223598 217.674128 298.5 218.205398 298.302477 218.803818 297.829205 219.414747 296.829205 219.761027 295.539765 219.906517 294.329205 219.853193 293.723598 219.853193"></polygon>
            <polygon id="Fill-14" points="287.567138 220.507817 287.5 220.262335 287.633619 219.819492 288.098322 219.57401 288.988234 219.131168 289.665542 218.749848 290.330344 218 290.609429 218.245482 290.277028 218.626802 290.211206 218.934416 291.021474 219.056853 291.5 219.168325 291.167599 219.487513 290.755554 219.610558 290.356673 220.114315 289.679365 220.606497 288.045664 221"></polygon>
            <polygon id="Fill-15" points="343.497908 230 342.813017 229.947266 342.597366 229.408203 343.282923 229.408203 342.315822 227.962891 340.246506 227.647786 339.561615 227.31901 339.198868 226.595703 339.051108 225.334635 338.5 224.348958 338.56789 224.217448 338.769564 224.217448 339.870448 224.796224 340.354331 224.729818 340.904773 224.388672 341.30812 223.86263 342.208662 223.126953 342.879576 222.719401 343.296235 222.180339 343.699582 221.983724 344.049016 221.983724 344.11624 222.049479 343.646335 222.377604 343.229676 223.048177 342.826329 223.521484 342.826329 224.11263 343.310212 224.703776 344.142864 224.966797 344.559523 224.953776 344.827755 224.690755 344.948892 222.561849 344.868356 221.510417 344.452363 221.248047 344.250689 220.984375 344.452363 220.52474 344.236712 220.26237 344.035704 219.789062 343.753494 219.671224 343.067938 220.065104 342.665256 220.866536 342.665256 221.523438 342.745793 222.128255 342.678568 222.390625 342.476895 222.45638 342.329134 222.325521 342.114149 221.602865 342.114149 220.866536 342.383046 220.209635 342.786393 219.671224 343.538509 219.197266 344.438385 219 344.855044 219.197266 345.123277 219.789062 345.419464 221.300781 345.5 222.561849 345.191167 227.135417 345.419464 228.72526 345.352239 229.184896 345.285015 229.316406 345.016117 229.723958 343.981791 229.736979"></polygon>
            <polygon id="Fill-16" points="389.497927 221.615176 389.497927 221.819783 389.430467 221.957317 390.064328 222.983062 391.520406 224.144986 391.587867 224.213415 391.951886 225.170732 391.965245 226.757453 391.695403 227.932927 391.157055 229.46477 390.348197 230.640921 389.861947 231.474932 388.838016 232.856369 387.947671 233.963415 387.408655 234.661247 386.653231 235.359079 386.100857 235.714092 385.629301 236.056233 386.046755 236.534553 386.531669 236.808266 387.287761 236.452575 388.648326 234.784553 389.754411 233.813686 390.429016 233.25271 390.779009 232.842818 391.318693 232.349593 391.668686 232.00813 391.871067 231.584011 391.925169 230.695122 392.06009 230.339431 392.679925 229.861789 393.29976 229.642954 394.068543 230.052846 394.554125 230.873306 394.971579 231.625339 394.836658 232.390921 393.946981 233.020325 392.990511 233.294038 392.572389 233.512195 392.167626 233.649051 392.100834 234.073848 392.585748 234.893631 392.734027 235.304201 392.666567 235.508808 392.248445 235.508808 391.62861 235.249322 391.34541 235.112466 391.075568 234.976287 390.793035 235.249322 390.388272 235.672764 389.90269 236.288618 389.296214 236.575203 388.594892 236.794715 387.975056 237 387.435372 237.49187 386.882998 238.394309 385.925192 239.023713 385.58789 238.955285 385.304689 238.681572 385.022157 238.545393 384.887236 238.340108 384.752315 238.066396 384.604035 237.588076 384.320835 237.109079 383.970174 236.563008 383.687641 236.220867 382.932217 236.439702 382.04254 236.507453 381.138836 236.589431 379.966627 236.534553 379.143742 236.808266 377.41849 236.836043 376.313073 236.767615 374.937146 236.781165 374.101571 236.726965 372.996154 236.739837 372.443779 236.876694 372.173937 237.014228 372.106477 237.368564 372.658851 237.984417 373.360173 238.380759 373.710834 238.859756 373.642706 239.078591 373.642706 239.283198 373.509121 239.420732 373.023539 239.48916 372.537289 239.707995 372.268115 239.844173 371.783201 239.844173 371.5 239.995257 371.647612 240.405149 372.200654 240.678862 372.901976 241.075881 374.358054 241.621951 375.32855 242.087398 376.151435 242.428862 377.189391 242.894309 378.375628 243.441057 379.548505 243.700542 380.384748 243.905827 381.490165 244.302168 382.946243 244.766938 384.051661 244.972222 385.561841 244.26084 387.152172 244.179539 388.32505 244.165989 389.363674 244.302168 390.805726 244.426152 392.127551 244.684959 393.367221 244.945122 394.540767 245 395.982818 244.575881 396.40094 244.302168 396.886522 243.947154 397.708738 243.591463 398.800129 243.167344 399.556221 242.606369 400.041135 241.840786 400.445898 240.596206 400.5 239.434282 399.649731 237.163957 399.164816 236.275745 398.382675 234.756775 397.5471 233.457995 396.846446 232.02168 396.212585 230.367209 395.566033 228.863144 395.079115 227.838076 394.379128 226.387534 393.880188 225.361789 393.394606 224.336721 392.626491 223.447154 391.99263 222.76355 391.790248 222.558266 390.954673 221.737805 390.320144 221.122629 389.632848 221"></polygon>
            <polygon id="Fill-17" points="359.58816 231.867801 359.5 231.554461 359.735337 231.313339 360.176867 231.192778 361.455556 231 361.838798 231 362.132423 231.048344 363.5 231.288869 363.118215 231.771113 362.676685 232.084452 362.294171 232.265294 361.852641 232.144733 361.618033 232.457475 361.852641 232.939719 361.176503 233 359.735337 232.349448"></polygon>
            <polygon id="Fill-18" points="364.5 235.472386 365.054291 235.076518 366.094591 235.204258 366.85172 235 368.513255 235.497681 369.351386 236.07188 369.432387 236.646712 369.5 237.361298 369.161936 238 367.851185 237.757167 366.675659 237.578204 365.905811 236.940135 365.757196 236.429806 365.135293 236.046585"></polygon>
            <polygon id="Fill-19" points="303.564747 243.24257 302.973082 243.55779 301.789036 243.618433 301.643803 243.751726 301.5 244.115581 301.572259 244.418193 302.178948 244.842089 302.770613 244.963975 303.362994 244.951366 304.243695 244.769439 304.619299 244.951366 304.836076 244.939358 305.355482 245 305.5 244.75743 305.427741 244.515461 304.821052 243.909036 304.677249 243.727109 304.373904 243.424497 304.229387 243.181927 304.07056 243"></polygon>
        </g>
        <g id="Group-5-Copy-2" transform="translate(181.000000, 70.000000)">
            <path d="M19.5007728,0 C30.2704791,0 39,8.72986684 39,19.5 C39,30.2701332 30.2704791,39 19.5007728,39 C8.73106646,39 0,30.2701332 0,19.5 C0,8.72986684 8.73106646,0 19.5007728,0 Z" id="Stroke-1" stroke="#E75F52"></path>
            <path d="M19.5,13 C23.0899976,13 26,15.910354 26,19.5007853 C26,23.089646 23.0899976,26 19.5,26 C15.9100024,26 13,23.089646 13,19.5007853 C13,15.910354 15.9100024,13 19.5,13" id="Fill-3" fill="#E75F52"></path>
        </g>
    </g>
</svg>