<?xml version="1.0" encoding="UTF-8"?>
<svg width="204px" height="300px" viewBox="0 0 204 300" version="1.1" xmlns="http://www.w3.org/2000/svg" xmlns:xlink="http://www.w3.org/1999/xlink">
    <!-- Generator: Sketch 64 (93537) - https://sketch.com -->
    <title>55</title>
    <desc>Created with Sketch.</desc>
    <defs>
        <polygon id="path-1" points="0 0 204 0 204 299 0 299"></polygon>
    </defs>
    <g id="55" stroke="none" stroke-width="1" fill="none" fill-rule="evenodd">
        <g id="Group-3">
            <mask id="mask-2" fill="white">
                <use xlink:href="#path-1"></use>
            </mask>
            <g id="Clip-2"></g>
            <path d="M179.83933,256.149261 C179.87238,256.429068 179.790841,256.788648 179.842708,257.045319 C179.978526,257.719893 180.471621,258.110321 180.285625,258.893588 C180.478617,259.126881 180.791022,259.346678 181.063624,259.47417 C180.961579,259.952565 181.239729,260.682088 181.514019,261.066974 C181.736924,261.379799 182.301909,261.840119 182.612626,262.086185 C182.424941,262.22404 181.964173,262.513488 181.717143,262.52361 C181.539349,262.722198 181.35287,262.924161 181.1524,263.101299 C181.237558,263.231924 181.5104,263.67923 181.505575,263.838053 C181.379648,264.17787 181.24576,264.517446 181.094744,264.847383 L181.442853,265.71211 C181.243589,266.001075 181.462635,266.35704 181.495202,266.651548 C181.570951,267.329978 181.27302,268.234953 181.339602,268.820596 C181.397258,269.330563 181.666,269.683154 181.967067,270.079125 C182.017487,270.30326 181.835109,270.510766 181.778659,270.712005 C181.71666,270.932766 181.705322,271.287044 181.710147,271.519373 C182.042093,271.587577 182.499484,272.512556 182.671006,272.789471 C182.882091,273.130252 182.898978,273.456332 182.885468,273.862908 L182.707433,274.197906 L182.113018,274.475303 L182.397681,274.698715 C182.419392,274.793189 182.652913,275.786612 182.652913,275.816256 C182.653154,275.858914 182.426147,276.931146 182.402747,277.043696 L182.102644,277.289521 C182.080933,277.84769 182.289123,279.083565 182.485733,279.562201 C182.561483,279.747534 182.961217,280.116031 183.044445,280.306907 C183.227788,280.724329 183.249982,281.255745 183.415231,281.684012 C183.66009,282.317373 184.566428,283.768466 184.697904,284.415806 C184.876663,285.294271 184.798743,286.262389 184.937697,287.153144 C185.093779,288.155244 185.31379,289.160236 185.500992,290.157757 C185.593387,290.651577 185.721727,291.153832 185.740302,291.658979 C185.76129,292.22727 185.619441,293.160442 185.421142,293.693546 C185.141062,294.058669 184.380674,294.210261 183.95392,294.067345 L183.490498,294.264005 C183.388695,294.429817 183.261079,294.781444 183.299918,294.982201 C183.644892,295.214771 184.018572,295.448064 184.399973,295.618455 L184.634458,296.052746 L184.535791,296.51861 C183.882513,296.926391 183.437184,297.1539 183.284238,297.923429 C183.391107,298.279876 183.494599,298.639456 183.585547,299 L170.961939,286.901776 L164.336041,280.548395 L114.219153,231.399224 L64.0709032,184.327036 L0.00382869995,128.485149 L0.335774954,85.7527437 L0.356280355,83.1397644 C0.356521595,83.0956604 0.421173918,82.9568414 0.427928638,82.9028562 C0.47786532,82.5198988 0.399462317,82.0429494 0.386194116,81.6544489 C0.384746676,81.613478 0.457601159,81.4915293 0.459289839,81.4467023 C0.46242596,81.3324658 0.402839677,81.202323 0.403322157,81.0876044 C0.412006797,78.7428641 0.405975797,76.4017388 0.376062036,74.0572394 C0.375579556,74.0295238 0.460496039,73.7007926 0.47183432,73.6530736 C0.47521168,73.6378902 0.461943479,73.5798079 0.459531079,73.5624556 C0.336739914,72.6536247 0.342288434,71.711776 0.362552595,70.795956 C0.370031036,70.4628867 0.456636199,70.1182491 0.453500079,69.7866258 C0.452293879,69.6169581 0.361828875,69.4243949 0.349525635,69.2530401 C0.324677914,68.9139457 0.343253394,68.5538838 0.340358514,68.2126204 L0.299347713,63.6482213 C0.296694072,63.3949248 0.325401634,63.129096 0.338669834,62.8750764 C0.341082234,62.8302494 0.425274998,62.6873333 0.422138878,62.6572076 C0.24120887,61.1036876 0.321059313,59.525344 0.317440713,57.9624248 C0.317199473,57.9173568 0.384505436,57.7874549 0.390295196,57.7349158 C0.414419197,57.5047557 0.307308633,57.2206105 0.307067393,56.9856304 C0.307067393,56.7918621 0.364964995,56.5908637 0.364723755,56.3975775 C0.364241275,56.0083539 0.324677914,55.6068392 0.304896233,55.2176156 C0.302483833,55.1686916 0.379439396,55.0096281 0.376544516,54.961186 C0.367136155,54.7944104 0.275464952,54.6151024 0.262196751,54.4478448 C0.254235831,54.3456585 0.309962273,54.2179257 0.309962273,54.1135704 L0.312857153,52.1703449 C0.313339633,51.8032938 0.381851796,51.4323867 0.377750716,51.0723248 C0.376785756,50.9756817 0.304172513,50.8592761 0.302725073,50.762874 C0.294040432,50.0629947 0.261231791,49.3520291 0.275947432,48.6528728 C0.289456872,48.0416834 0.381851796,47.4256739 0.387641556,46.8147255 C0.395119997,46.0830335 0.23107679,45.3130216 0.352420515,44.5849447 L0.274258751,44.4417875 L0.24579243,36.6158641 C0.24458623,36.2639963 0.313580873,35.9171897 0.313580873,35.5759263 C0.313580873,35.4142117 0.25085847,35.2416519 0.251099711,35.0799374 L0.257854431,31.2522915 L0.259543111,30.3781654 C0.259543111,30.3302053 0.205022869,30.2174149 0.209365189,30.1747569 C0.24120887,29.8281913 0.309238553,29.4418599 0.308997313,29.0957763 C0.308756073,28.9639464 0.206470309,28.8012678 0.207676509,28.6696789 C0.23638407,24.8302238 0.179692667,20.9948658 0.185964908,17.1551697 C0.186447388,16.9927321 0.299830193,16.7972768 0.310203513,16.6321882 C0.398256117,15.2365266 0.101772144,13.8524333 0.163770827,12.4635199 C0.172696707,12.2649315 0.23566035,12.0622461 0.24265631,11.8641397 C0.271363871,11.0587001 0.153638746,10.2306059 0.149055186,9.42323825 C0.143989146,8.59562612 0.189824748,7.76608594 0.189342268,6.9382328 C0.189101028,6.52563176 0.144712866,6.11062067 0.146401546,5.69801963 C0.147125266,5.59727942 0.199233108,5.48304292 0.195614508,5.38326673 C0.143506666,3.70345993 -0.0284974614,1.98509228 0.00406993996,0.30432145 L2.47099029,0.107902147 C2.85769802,0.06789527 3.31002304,0.208642354 3.70396798,0.200207169 C3.79419174,0.198038121 3.92735623,0.120675426 4.01613255,0.120434421 C6.66084678,0.112481247 9.32075914,0.028370404 11.9623372,0.168635477 C12.005278,0.170804525 12.1437497,0.102359025 12.191274,0.102359025 C14.2905446,0.10260003 16.6990849,-0.0260967894 18.7414228,0.214667486 C18.7751964,0.218764576 18.8615603,0.168635477 18.8972638,0.170804525 C19.8986511,0.235152935 20.7613254,0.233224892 21.7557167,0.191289974 C21.7899728,0.189602937 21.900702,0.272749758 21.9373704,0.27371378 L25.3333061,0.349871448 C25.4623695,0.352763512 25.6102496,0.295886265 25.7410017,0.289138118 L26.3655721,0.283594996 C27.8894852,0.269857695 29.2358457,0.258048436 30.7546928,0.374453987 C30.7802643,0.376382029 30.9160824,0.294440234 30.9513034,0.290825154 C31.4265462,0.24358812 31.9464185,0.279979917 32.4260036,0.280461927 L38.1986358,0.285523038 C38.3583367,0.285764044 38.5158664,0.348184411 38.6635053,0.34722039 C38.9619192,0.344328327 39.2661229,0.285764044 39.5650192,0.276123832 C40.4033283,0.249131241 41.2459796,0.24816722 42.0850124,0.235875951 C48.4826974,0.144052939 54.8815887,0.0965748984 61.279515,0.0570500324 C74.7508397,-0.0258557841 88.2228881,-0.0181436151 101.69373,0.0784995023 L102.739023,0.0734383915 C113.063131,0.0348775466 123.388203,0.0319854832 133.711828,0.0874166977 C136.857357,0.104287067 140.006986,0.260217484 143.150826,0.251782299 C144.514556,0.247685209 145.887453,0.144534949 147.251424,0.112963257 C148.745664,0.0782584971 150.251726,0.123326485 151.746449,0.128628601 C151.816408,0.128869606 151.918935,0.183095794 151.987206,0.180926747 C154.707187,0.0960928878 157.425962,0.198038121 160.14715,0.190566958 C160.169103,0.190325953 160.416615,0.117301353 160.453766,0.107420136 C160.47596,0.118265374 160.648929,0.208642354 160.661715,0.208401349 C162.183939,0.195146058 163.699891,0.312033619 165.209813,0.299983355 L168.49526,0.274918806 C168.731193,0.272990764 168.971951,0.317576741 169.208607,0.317576741 C169.783964,0.317576741 170.384893,0.250095262 170.960733,0.216836533 L170.978102,0.215872512 C171.832333,0.167430451 172.69742,0.0903087611 173.552133,0.0698233122 C174.613107,0.0442767525 175.684454,0.0763304548 176.746875,0.0763304548 C177.424036,0.0763304548 178.117118,0.054157969 178.792831,0.0821145816 C179.745247,0.121398442 180.707553,0.263350553 181.658763,0.279256901 C182.328204,0.290343144 183.014773,0.169117488 183.685902,0.163815372 C186.520473,0.140678865 189.376031,0.271062721 192.211083,0.327457957 C193.091609,0.344810337 193.973824,0.429885201 194.853626,0.438079381 C196.193956,0.450852661 197.537904,0.427716154 198.878716,0.422655043 C199.091007,0.421691022 199.309812,0.368910865 199.521138,0.372525945 C199.560701,0.37324896 199.648513,0.436151339 199.687111,0.435910333 L202.1673,0.420485995 C202.207345,0.42024499 202.337615,0.490618532 202.385139,0.495679643 C202.871962,0.545808741 203.428744,0.551833873 203.909294,0.446514566 C203.920391,5.03284505 203.920632,9.61989856 203.926422,14.2067111 L203.933177,14.6075028 L203.974911,14.6089489 C203.84633,15.117952 203.954647,15.7691483 203.969363,16.2899607 C203.971775,16.3820247 203.91243,16.4899951 203.917496,16.5813361 C204.012062,18.3493508 203.957301,20.1195346 203.944274,21.8894774 C203.94355,22.0123901 203.910741,22.2495393 204,22.3500385 C203.979012,22.4984977 203.930523,22.6888919 203.931247,22.8366281 C203.938243,24.4877553 203.960437,26.1386415 203.951993,27.7892867 L203.858151,45.6901949 C203.843194,48.5555067 203.873831,51.4292536 203.813521,54.2936014 C203.800736,54.8905715 203.709788,55.4899516 203.696038,56.0866807 C203.625837,59.0599628 203.673361,62.0515614 203.673361,65.0262895 C203.673361,70.3927541 203.646342,75.7597007 203.63235,81.1264063 C203.631627,81.3917531 203.667571,81.7320526 203.630179,81.9908922 C203.534648,82.6591999 203.088595,85.2295212 203.090284,85.7539487 L203.436705,213.77258 L203.64393,213.770411 L203.38725,248.151019 L203.228756,248.580972 C203.032386,249.114076 202.787286,249.646457 202.42422,250.088219 C202.247874,250.302955 201.210542,251.421943 201.101501,251.611855 C200.968578,251.842738 201.026234,252.334148 201.148543,252.551775 L200.757011,252.877373 C200.550268,253.630033 200.428924,254.43234 200.329774,255.205243 L199.859598,255.399976 L199.31729,255.292728 C198.786562,255.593985 197.640672,255.918378 197.025028,255.884155 C196.626258,255.692556 195.979735,255.137039 195.851395,254.687323 C195.364814,254.578871 194.73759,254.096619 194.415776,253.736557 L194.610698,253.019326 C194.577406,252.936661 194.242565,252.089527 194.225679,252.066632 C194.064771,251.847076 192.610094,250.665909 192.346178,250.545165 L191.261321,250.291146 C190.892707,250.267768 190.32145,250.787858 190.139073,251.059471 L189.845001,251.048625 L189.312102,250.645183 C189.054216,250.572158 188.010371,250.555047 188.010371,250.555047 L187.938481,250.211132 L187.210901,250.156424 L185.755259,250.04773 C185.61341,250.057853 184.432299,250.628071 184.215666,250.760142 C183.90519,250.61578 183.235025,250.705434 182.950362,250.84353 L182.295395,251.545578 C181.466494,251.77863 180.241478,251.946852 179.532714,252.389097 L179.346477,252.936661 C179.718469,253.639191 179.981903,254.403419 180.497192,255.022079 L180.482718,255.447936 L179.83933,256.149261 Z" id="Fill-1" fill="#FFFFFF" mask="url(#mask-2)"></path>
        </g>
        <g id="Group-5-Copy-2" transform="translate(83.000000, 97.000000)">
            <path d="M19.5007728,0 C30.2704791,0 39,8.72986684 39,19.5 C39,30.2701332 30.2704791,39 19.5007728,39 C8.73106646,39 0,30.2701332 0,19.5 C0,8.72986684 8.73106646,0 19.5007728,0 Z" id="Stroke-1" stroke="#E75F52"></path>
            <path d="M19.5,13 C23.0899976,13 26,15.910354 26,19.5007853 C26,23.089646 23.0899976,26 19.5,26 C15.9100024,26 13,23.089646 13,19.5007853 C13,15.910354 15.9100024,13 19.5,13" id="Fill-3" fill="#E75F52"></path>
        </g>
    </g>
</svg>