<?xml version="1.0" encoding="UTF-8"?>
<svg width="156px" height="300px" viewBox="0 0 156 300" version="1.1" xmlns="http://www.w3.org/2000/svg" xmlns:xlink="http://www.w3.org/1999/xlink">
    <!-- Generator: Sketch 64 (93537) - https://sketch.com -->
    <title>56</title>
    <desc>Created with Sketch.</desc>
    <g id="56" stroke="none" stroke-width="1" fill="none" fill-rule="evenodd">
        <g id="Group-19" transform="translate(-3.000000, 0.000000)" fill="#FFFFFF">
            <polygon id="Fill-1" points="83.787487 0 83.1890523 0.333320149 82.8791518 0.499980223 82.7903313 0.544434717 82.3139144 0.7112719 81.8708714 0.911051458 81.4055792 1.12234314 81.0732528 1.26668741 80.7852484 1.33328059 80.3752262 1.3222998 79.9876298 1.24437161 79.6883242 1.27784531 79.4780156 1.2888261 79.079118 1.3890701 78.6692724 1.48895988 78.3812679 1.64446205 78.0600662 1.90003111 77.9714223 2.03339459 77.7828333 2.28896366 77.6277947 2.64459961 77.4948288 3.02237425 77.3286657 3.40014889 77.1515544 3.61108635 76.8967473 3.77792353 76.5864936 3.9111099 76.3760085 3.9778802 76.27624 4.01117679 75.9216643 4.10026289 75.5118187 4.08910499 75.2903855 4.13355948 75.0133291 4.17801398 74.7805947 4.28906166 74.6698781 4.40010934 74.5591615 4.54463072 74.5480369 4.81135768 74.6033069 4.97801775 74.7253247 5.14467783 74.7805947 5.3113379 74.7805947 5.53343326 74.7142001 5.65581595 74.6698781 5.75570573 74.5923588 5.83345682 74.4482683 6.0114519 73.9277061 6.32245625 73.3626453 6.76700119 72.9083011 7.11147924 72.5650267 7.38918699 72.2879703 7.61145946 72.0552359 7.76696163 72.0110905 7.80025823 71.7230861 8.05582729 71.4794037 8.33371215 71.3021158 8.6114199 71.11388 8.93358215 70.9475402 9.26707941 70.7593043 9.57808376 70.5820165 9.82267203 70.4599987 10.1559922 70.4381026 10.4336999 70.3383341 10.6782882 70.194067 10.9226994 70.0724023 11.3116319 69.9616857 11.9782722 69.9616857 12.1004778 69.7842213 12.5338648 69.451895 12.8783429 69.2414098 12.9782326 68.9534054 13.1893472 68.7651695 13.4672321 68.5545078 13.7560977 68.4882897 14.0005089 68.3773966 14.2783938 68.32195 14.6115368 68.222358 14.867283 67.9230524 15.2895121 67.9119277 15.4559951 67.9562497 15.7894923 68.1557868 16.0672001 68.3773966 16.3562428 68.4439678 16.4672905 68.4992378 16.5450416 68.5545078 16.7673141 68.4992378 17.0451989 68.3662719 17.4341315 68.2885761 17.5896337 68.2112334 17.7006813 67.8123358 18.3673216 67.6574738 18.6563644 67.4245628 19.1563446 67.1365584 19.7119372 66.8596786 20.2673527 66.7376608 20.60085 66.6271208 20.8897157 66.5716742 21.1341268 66.4830303 21.3452414 66.3387632 21.6452649 66.3057425 21.7341739 66.1175066 22.0120588 65.8406268 22.4009913 65.5413212 22.6119288 65.3530853 22.7676081 65.1535482 22.9675647 65.0096343 23.1565406 64.8877931 23.4340713 64.7548272 23.634205 64.588664 24.0231376 64.2893584 24.7344095 63.9681567 25.2565284 63.7465469 25.5788678 63.3478259 26.1008096 62.915731 26.6232827 62.4947607 26.9456221 61.9296999 27.3899899 61.5198542 27.6453818 61.1875279 27.8345348 60.9659181 27.8899701 60.7331837 28.0119986 60.6224671 28.1234005 60.4121585 28.3233571 60.3565354 28.5566104 60.2237461 28.7344284 60.1239775 28.8901077 59.8801185 29.0677485 59.5589168 29.3011789 59.4815741 29.37893 59.2043411 29.5232743 58.9165133 29.8011591 58.6615296 29.9566613 58.5176157 30.0122737 58.2405593 30.0234316 58.0632715 30.0567282 57.9636795 30.0567282 57.6756751 30.245527 57.5647819 30.323278 57.52046 30.3788904 57.2215075 30.7010527 56.9333265 31.0345499 56.6564467 31.7011902 56.4789823 32.1012807 56.4459616 32.1900126 56.2577257 32.5233327 56.2022791 32.6343804 56.2022791 32.767921 56.2466011 32.945739 56.3573177 33.112399 56.5233043 33.1456956 56.7673399 33.1014182 56.9998977 33.0456287 57.2767775 32.8345142 57.5759066 32.6455383 57.7420698 32.4567395 57.9636795 32.2677636 58.1852893 32.156716 58.4287952 32.0901228 58.5398649 32.1457352 58.595135 32.3123952 58.595135 32.4900361 58.4621691 32.8123755 58.2848813 33.0902603 57.9303056 33.5234703 57.46519 33.9124028 57.2324556 34.1235174 57.1771856 34.1789527 56.8226099 34.2790195 56.434837 34.3790864 56.1577806 34.5345886 55.8033815 34.67911 55.4710552 34.8457701 55.1830507 35.0680425 54.972389 35.2679992 54.8284751 35.4458172 54.6178134 35.5347262 54.4518268 35.5901614 54.274539 35.8014531 54.1636458 35.9902519 54.0419811 36.2681368 53.9423892 36.4680934 53.7317274 37.0902792 53.6098862 37.379322 53.4324218 37.5902594 53.2553106 37.8125319 53.0891474 37.979192 53.0225762 38.2568997 52.9561815 38.4793493 52.9561815 38.6569902 52.9229842 38.9237172 52.7679457 39.0347648 52.5906578 39.1904441 52.3579234 39.3569271 52.1255422 39.6238312 51.8371846 39.8347686 51.5050348 40.1126535 51.272477 40.2793135 50.9067767 40.4904281 50.7185408 40.6014758 50.5633257 40.7015427 49.9982649 41.1349297 49.8654756 41.2349966 49.1233036 41.623752 48.4251004 41.9237756 47.8490916 42.0681199 47.7161257 42.1348902 47.4724432 42.2794115 47.0848468 42.4793682 46.6192014 42.7460952 46.0544938 42.9681905 45.3675918 43.2349175 44.9022996 43.6126921 44.5035786 43.9793089 44.3481869 44.1349882 43.8496973 44.5350786 43.4509763 44.8237672 43.1627953 45.0129201 42.9968087 45.2017189 42.9745594 45.5129004 42.9745594 45.6462638 42.9636114 45.7906081 42.9636114 45.9794069 42.9413621 46.1129475 42.786147 46.3573586 42.5980877 46.6239085 42.4871945 46.9462478 42.6533577 47.3351804 42.6976796 47.3796349 42.9083414 47.5795915 43.1075253 47.6685005 43.2848131 47.7907061 43.6948353 47.9462083 43.9162685 48.0018207 44.0826083 48.1796387 44.1933249 48.4019111 44.2485949 48.7352313 44.2485949 48.9573266 44.3038649 49.2461923 44.4149347 49.5242543 44.7582091 50.1907175 44.8691023 50.4129899 45.1571067 50.8130804 45.5669523 51.6908352 46.0988158 52.668657 46.4309656 53.2352304 46.6305027 53.4909766 46.8521124 53.7353877 47.0957949 53.8908899 47.30628 53.9909568 47.5278898 54.22421 47.7604476 54.5465494 47.9045381 54.8242572 48.0043067 55.1687352 48.1038987 55.5798064 48.2147918 55.9798969 48.2368645 56.3466907 48.3475811 56.6798338 48.4473497 57.0021731 48.6800841 57.3909286 48.8683199 57.6799713 48.9015173 57.7244258 49.1785736 58.1133584 49.4445054 58.5910228 49.8764237 59.1466154 50.1201062 59.6910501 50.2753213 60.2135233 50.2862693 60.6355753 50.1644281 60.9579146 50.0537115 61.1911679 49.810029 61.4578949 49.6436893 61.6578515 49.4775261 62.0021525 49.3779341 62.2802144 49.2781656 62.4801711 49.0899297 62.6689699 48.8571953 62.7134244 48.6357621 62.7245823 48.3475811 62.6468312 48.2591138 62.5912188 48.1261479 62.5579222 47.8381435 62.4468745 47.4946925 62.4468745 47.1621895 62.5023098 46.8189151 62.6023767 46.6414507 62.6689699 46.4752875 62.9024002 46.3536229 63.2245625 46.3647475 63.5134281 46.4752875 63.791313 46.6525754 64.0691979 46.8741851 64.302274 47.0957949 64.569001 47.3174047 64.8580438 47.4169966 65.358024 47.405872 65.5246841 47.405872 65.7802531 47.3947474 65.8580042 47.2730827 66.2469367 47.1734908 66.4913479 46.9294551 66.7580749 46.7413958 66.9024191 46.6082534 67.0359597 46.4532148 67.180304 46.264979 67.3469641 46.220657 67.4023994 46.0988158 67.6691263 45.9658499 67.9914657 45.9104033 68.2137382 45.7442401 68.6138286 45.4671838 69.0581964 45.0682862 69.4915835 44.9022996 69.6470856 44.5588486 69.8358844 44.2042729 69.9138126 43.9272166 70.1249272 43.7610534 70.3470225 43.5396202 70.5804529 43.3845816 70.8916343 43.2071172 71.2026387 43.0188814 71.4470499 42.8970401 71.602552 42.8527182 71.6583415 42.730877 71.7249347 42.686555 71.7249347 42.442696 71.7582313 42.1658162 71.6916381 41.7782198 71.5804133 41.7227732 71.5582746 41.3793222 71.4470499 40.9806012 71.3250214 40.5817036 71.2470932 40.182806 71.1914808 39.9061028 71.1803229 39.8504796 71.1914808 39.5624752 71.2247774 39.3297408 71.3916146 39.1635776 71.602552 39.052861 71.8026858 38.9862898 72.0249583 38.9310198 72.3582784 38.8203032 72.6471441 38.6539634 72.9804642 38.4325302 73.3139615 38.1222765 73.513741 37.7899502 73.6361237 37.2693879 73.969621 36.9148123 74.2804482 36.7818464 74.4917399 36.7373479 74.6916966 36.837293 75.0584904 36.992155 75.3027245 37.4353745 75.7472694 37.5462677 75.8696521 37.7456282 76.0694317 37.8784175 76.2695654 38.0447573 76.5584311 38.1445258 76.8917512 38.0779546 77.169459 37.9006668 77.4363631 37.8008982 77.6694392 37.7565763 77.8474343 37.7122543 78.0583718 37.6126623 78.2808213 37.5905897 78.3474145 37.4133018 78.5252325 37.180744 78.8029403 36.9480096 79.1807149 36.6155066 79.869671 36.3940735 80.5363113 36.2279103 81.2697219 36.1281417 81.7587213 36.1170171 81.8807498 36.2279103 82.3809071 36.3495749 82.6586149 36.6045586 82.8697294 36.992155 83.0698632 37.4242499 83.1476143 37.8897187 83.2142075 38.2329931 83.2698199 38.4325302 83.4363029 38.5543715 83.8363933 38.4989249 84.1697134 38.3882083 84.5141915 38.1222765 84.7699377 37.8897187 85.0031909 37.6017143 85.2808987 37.3024087 85.5476256 37.0144042 85.8811229 36.8152203 86.1030411 36.6488806 86.4809929 36.5711847 86.6921075 36.5270393 86.9811502 36.5159147 87.2586809 36.5711847 87.4811305 36.7373479 87.6031589 36.892563 87.8365893 37.0034562 87.9587949 37.2028167 88.2588184 37.3137099 88.647751 37.3689799 88.9367937 37.4242499 89.3811616 37.4576238 89.9812087 37.4463226 90.203304 37.3246579 90.5368013 37.2137648 90.6699877 37.1473701 90.7479159 36.9700823 90.7812125 36.6932025 90.8922601 36.5159147 91.0033078 36.4606447 91.2255803 36.4606447 91.5034651 36.5379874 91.7145797 36.593434 91.9701488 36.6377559 92.125651 36.8595423 92.4589711 37.0255289 93.0147408 37.1473701 93.5813142 37.2693879 94.1145911 37.2580867 94.3591793 37.2580867 94.559136 37.1364221 95.0812549 37.0587262 95.4480488 37.0476016 95.7259336 37.0476016 95.9035745 37.3024087 96.5036216 37.7899502 97.0259176 38.2441178 97.336922 38.6205895 97.4369889 39.0194871 97.5813331 39.5292779 97.6592613 39.9945701 97.592491 40.4376131 97.3813765 40.7257941 97.159104 41.0469958 96.9148699 41.3350002 96.7035783 41.5786827 96.5369182 41.9111857 96.3702581 42.0882969 96.3258036 42.5426411 96.292507 43.3291351 96.3702581 44.0713071 96.4924637 44.1269302 96.5147795 44.8691023 96.7591907 45.4119138 96.9924439 45.7995102 97.2814867 46.0654419 97.5258978 46.2316051 97.7148737 46.5748795 98.0926484 47.1069195 98.6813605 47.649731 99.2815847 48.0484521 99.6703401 48.3364565 100.00366 48.7353541 100.39277 48.9235899 100.770545 49.0124104 101.237228 49.0789817 101.625984 49.0233585 102.181576 49.0233585 102.692714 48.9680885 103.14824 48.9680885 103.914947 49.0233585 104.315038 49.0676804 104.548468 49.0899297 104.825999 49.1342517 105.837294 49.1342517 106.84859 49.1785736 107.515053 49.1563244 107.903985 49.0346597 108.415301 48.9790365 108.693008 48.779676 109.559782 48.6910321 109.959696 48.5691909 110.304174 48.4584743 110.693106 48.4473497 111.026427 48.3807784 111.359747 48.3698304 111.537565 48.4030277 111.759837 48.4584743 112.15975 48.5691909 112.593137 48.724406 112.937616 48.8571953 113.31539 48.9569638 113.64871 48.9790365 113.715304 48.9790365 113.881964 49.0899297 114.437733 49.1785736 114.959852 49.2781656 115.30433 49.3669861 115.537584 49.610492 115.704421 49.8875483 115.937674 50.1091581 116.004444 50.4414845 116.182085 50.7404369 116.393377 50.9954206 116.648769 51.2168538 116.815429 51.5603048 117.093314 51.9480778 117.282112 52.2804041 117.404318 52.5684086 117.415476 53.0225762 117.315409 53.3107572 117.215519 53.8092467 117.05984 54.4295775 116.782132 54.6955092 116.704381 54.972389 116.648769 55.2383208 116.615472 55.3160166 116.615472 55.5596991 116.659927 55.936524 116.770974 56.3020477 117.004405 56.5346055 117.11563 56.7562153 117.2265 57.1660609 117.448773 57.3544734 117.548839 57.6645505 117.737638 57.9525549 117.937772 57.9968769 117.982226 58.2296113 118.237796 58.3844732 118.5488 58.5730623 118.848823 58.7612981 119.226598 58.9608352 119.648827 59.2043411 120.193439 59.4482002 120.760012 59.7695785 121.815762 59.9910117 122.849019 60.0907802 123.715794 60.2346941 124.504639 60.3342861 124.893572 60.5670205 125.282504 60.9438454 125.682595 61.2540991 126.060192 61.4866569 126.349235 61.7082667 126.626943 62.3951687 127.404808 62.771817 127.72697 63.0264475 127.982539 63.0820707 128.004855 63.4253451 128.21597 63.8131181 128.338175 64.1563925 128.404768 64.4334489 128.471362 64.6661833 128.526974 65.0096343 128.693811 65.2199429 128.771385 65.4969992 129.004816 65.7297336 129.171476 65.9845407 129.338313 66.4387083 129.927025 66.9260733 130.516091 67.2806489 130.982598 67.5243314 131.293779 67.6795465 131.482578 68.1225895 132.271601 68.3441992 132.782739 68.5878817 133.438222 68.7540449 134.027288 68.9313327 134.504952 69.1418179 134.916201 69.2636591 135.349411 69.4962169 135.727362 69.7732733 136.182888 69.9505611 136.516208 70.094475 136.694026 70.1278489 136.738481 70.3160848 136.927279 70.5265699 137.016188 71.2025239 137.416279 71.8781247 137.871805 72.2770223 138.071761 72.7421379 138.271895 73.2519287 138.516306 73.6504731 138.749559 74.1048173 139.049583 74.1604405 139.083057 74.6698781 139.405219 75.2238142 139.871903 75.5118187 140.027582 75.888467 140.394199 76.0989521 140.582997 76.2098453 140.705203 76.4314551 141.027365 76.6530649 141.427456 76.8081034 141.760776 76.9742666 142.160866 77.1736271 142.549799 77.4061849 142.883119 77.5170781 143.161004 77.5502754 143.449869 77.6721167 143.79417 77.7498125 143.994304 77.9159757 144.28317 78.148357 144.494284 78.4255899 144.727715 78.6581477 144.894198 78.8797575 145.005423 79.2784785 145.172083 79.3782471 145.227695 79.5666595 145.461125 79.810342 145.694201 79.8769132 145.761149 80.2092396 146.03868 80.5858879 146.527856 80.8737157 147.016678 81.0623048 147.549778 81.0843775 148.238911 80.9180377 148.660963 80.8737157 148.749872 80.6411579 149.25003 80.1981149 149.705555 79.7326461 150.083507 79.3339251 150.405669 78.9240795 150.672219 78.6358985 150.761305 78.3258214 150.761305 77.8937264 150.772286 77.4395588 150.827899 77.1626791 150.927788 77.0959312 150.950104 76.7304076 151.105606 76.3871331 151.33886 76.1102533 151.594606 75.8220724 151.80572 75.5893379 152.027993 75.5340679 152.061112 75.3015101 152.239107 75.0687757 152.350155 74.802844 152.394609 74.5148396 152.394609 74.4482683 152.372294 74.1604405 152.316858 73.8390622 152.227949 73.3183233 151.961222 73.2740014 151.939084 72.7534391 151.727792 72.3545416 151.616744 71.9667686 151.616744 71.6233176 151.727792 71.3351366 151.839017 71.1025788 152.061112 70.8922702 152.350155 70.6706604 152.716949 70.5597672 153.139001 70.3715314 153.583546 70.3051367 154.083526 70.194067 154.472281 69.9837584 154.750166 69.6955774 154.983597 69.352303 155.205692 68.9534054 155.405826 68.6765256 155.605783 68.4439678 155.817074 68.2442541 156.061485 68.0893921 156.305719 67.934177 156.539327 67.7127438 156.77258 67.535456 156.93924 67.1918284 157.094742 66.8708033 157.239264 66.5162276 157.383608 66.1727766 157.561426 65.7519829 157.716928 65.2420156 157.883588 64.787848 158.050425 64.4888955 158.183789 64.1452679 158.283679 63.7465469 158.383746 63.4030959 158.494793 63.0598215 158.59486 62.7163704 158.62798 62.084915 158.672434 61.7635367 158.661453 61.6307474 158.661453 61.1765798 158.76152 60.7331837 159.017089 59.8248485 159.628117 58.6615296 160.394824 57.9525549 160.75046 57.3765461 161.095115 57.2324556 161.217144 56.9776485 161.428436 56.5900521 161.761579 56.2466011 162.028306 56.0138667 162.295033 55.5376264 162.839467 55.2826427 163.16163 55.1830507 163.283835 54.8284751 163.606175 54.4186295 163.917179 54.3743075 163.950475 53.9644619 164.250676 53.6542082 164.472949 53.4324218 164.606312 52.8454649 164.895178 52.2360822 165.094957 51.7709665 165.250814 51.3167989 165.406139 50.9067767 165.61743 50.5633257 165.828368 50.3417159 166.072956 50.0425869 166.384138 49.9097976 166.65051 49.665762 167.028462 49.555222 167.417218 49.3890588 167.761873 49.2115944 168.095193 49.0456078 168.428513 48.7131048 168.795307 48.3698304 169.19522 47.9599847 169.550856 47.5167652 169.906315 46.8853098 170.217496 46.1429612 170.439769 45.4119138 170.673199 45.0130162 170.806386 44.3261142 171.061955 43.5616929 171.550777 43.0411306 171.928552 42.8638428 172.050757 42.7642509 172.161982 42.398374 172.517618 42.1214942 172.850938 41.9885283 173.128646 41.8446144 173.506421 41.8002925 173.806621 41.7227732 174.250812 41.7672717 174.739811 41.8115937 175.184356 41.8446144 175.695494 41.9442064 176.206455 42.0439749 176.706613 42.1437435 177.051091 42.298782 177.495459 42.398374 177.840114 42.4539972 178.173257 42.442696 178.673237 42.3874259 179.051189 42.3542286 179.229007 42.243512 179.728987 42.0660476 180.1289 41.7893444 180.573445 41.5122881 180.940062 41.4458934 181.01799 41.0581205 181.395588 40.7035448 181.651334 40.6482748 181.673473 40.3489692 181.751224 39.8617808 181.862271 39.2078996 181.884587 38.4766756 181.862271 37.8121994 181.784697 37.4133018 181.806836 37.2137648 181.840133 37.1139962 181.851291 36.7929711 181.973496 36.593434 182.128998 36.493842 182.184434 36.305253 182.317797 36.2279103 182.373409 36.0617471 182.628979 35.363897 183.27348 34.732265 183.806757 34.6104238 183.884685 33.9125737 184.318072 32.8710961 184.773598 31.7189018 185.184669 31.0542491 185.340348 30.3784717 185.473712 29.6917463 185.673669 29.0712389 185.840329 28.5173028 185.951376 27.952242 186.018147 27.3098385 186.062424 26.4124513 185.91808 25.4928149 185.740085 24.8059129 185.673669 24.2412053 185.673669 23.6759679 185.717946 23.2218003 185.840329 22.8230793 185.962534 22.6567395 186.029127 22.1916239 186.240242 21.7374563 186.506792 21.1723955 186.851447 20.4411715 187.418198 19.8097161 188.084838 18.181105 189.418118 15.4447982 191.462671 16.2978634 192.229378 15.8436958 192.451651 14.935184 192.840583 14.4366944 193.129626 14.3702998 193.17408 13.8716336 193.451611 13.7497924 193.573817 13.461788 193.851701 12.774886 194.462906 12.0992852 195.19614 11.7556576 195.52946 11.5340478 195.862957 11.30149 195.974005 11.0798802 196.196278 10.902769 196.429531 10.7918758 196.762851 10.6257126 197.096348 10.5038714 197.429668 10.3377082 197.940629 10.116275 198.440787 9.88354059 198.885332 9.71720083 199.274087 9.484643 199.729613 9.3739264 200.06311 9.31830323 200.451865 9.26303322 200.785363 9.15231663 201.296501 9.15231663 201.629821 9.09687004 201.851916 9.0304754 202.018754 8.91958222 202.185237 8.64270243 202.185237 8.35469802 202.129624 8.24398142 202.074189 8.0666936 202.129624 7.95580042 202.352074 7.90053042 202.574169 7.64554674 203.074326 7.39073964 203.585287 7.26889841 203.763105 6.89225008 204.129899 6.64856762 204.318698 6.48240444 204.596583 6.37151126 204.929903 6.31624125 205.374271 6.26079466 205.829797 6.20534807 206.329777 6.13895343 206.607662 6.08350684 207.107642 6.02823683 207.441139 5.86189707 207.78544 5.62933924 208.118937 5.40772946 208.396822 5.17517164 208.67453 4.95356186 208.896802 4.7317755 209.130056 4.55466427 209.407763 4.38850108 209.630213 4.2776079 209.907921 4.10049666 210.130016 3.98960349 210.241064 3.93433348 210.352466 3.59088247 210.574384 3.19198488 210.752202 2.90415704 210.974474 2.68237068 211.196747 2.51638408 211.419019 2.33909626 211.585679 2.0620399 211.807952 1.82948207 212.08566 1.66331888 212.430138 1.46378179 213.030185 1.37531447 213.263438 1.43076106 213.830189 1.60787229 214.596896 1.77403548 215.385742 1.8406067 215.596856 1.89587671 215.785832 2.0620399 216.063717 2.4054909 216.397037 2.85983509 216.674568 3.08126828 216.841405 3.31400269 216.897017 3.53543588 216.952453 3.71290028 217.119113 3.76817029 217.28595 3.76817029 217.463591 3.93433348 217.68604 4.05617471 217.908136 4.22233789 218.074796 4.4550723 218.241456 5.25269091 218.463728 5.58501728 218.741613 5.81757511 219.019321 5.98391488 219.419234 6.03918489 219.808167 5.98391488 220.252712 5.70685851 220.86374 5.59614192 221.26383 5.41867752 221.596973 5.24174286 221.897174 5.07540309 222.152743 4.8539699 222.430451 4.51034231 222.774929 4.1116213 223.108426 3.94528153 223.330521 3.89001152 223.664018 3.94528153 223.830501 4.05617471 224.052774 4.2557118 224.186137 4.39962571 224.286027 4.4550723 224.397252 4.4550723 224.841797 4.39962571 225.452825 4.28890912 225.908351 4.28890912 226.408508 4.34417913 226.575168 4.28890912 226.853053 4.17801594 227.130761 4.12274593 227.297244 4.06747592 227.641899 4.12274593 227.919606 4.17801594 228.030831 4.39962571 228.697472 4.22233789 228.797361 4.06747592 228.88627 3.89001152 228.975002 2.84853387 229.030969 1.81835743 229.075423 1.08713347 229.075423 0.909845648 229.464179 0.788180998 229.741886 0.58864391 230.452981 0.5 230.797459 0.5 231.241827 0.998666139 232.375328 1.77403548 233.530791 2.07316453 233.908743 2.92640631 234.853091 3.72384834 234.353287 4.46602036 234.353287 4.92018796 234.175292 5.60726655 234.230905 6.22742076 234.742043 6.96994594 235.464296 7.31322037 235.686568 8.11083897 236.019888 9.13006736 237.086619 10.326407 238.308852 10.8916443 239.431195 11.2905419 240.442313 11.9772674 241.053341 12.4316116 241.331226 12.9964958 241.831206 13.4506634 242.620229 14.1373888 243.008985 14.7580727 242.786889 15.5556913 242.509005 15.8989658 242.386976 15.7216779 242.842502 15.8436958 243.397917 16.40858 243.786673 16.40858 244.3536 16.8074776 244.909016 16.9181942 246.475727 17.095482 246.809224 17.6050962 247.031497 18.0592638 247.420429 18.5690545 247.987003 19.3664966 248.82048 19.599231 249.153623 20.2195618 249.153623 20.4522962 248.764868 20.5630128 248.209275 20.7289994 248.153663 20.9064638 248.031457 21.9256922 248.198117 22.6678642 248.48716 22.944744 249.153623 23.0001906 249.82044 23.1222084 250.442626 23.2883715 250.776124 23.7425392 251.220668 24.1414367 252.23161 24.1414367 252.676155 23.9752736 253.120522 24.0858136 253.453843 24.263278 253.742708 25.7921206 254.687411 26.3126828 255.354051 26.822297 255.631581 27.2211946 255.242826 27.4426278 254.742846 27.608791 254.353913 27.952242 254.131641 29.2594748 254.120483 30.05727 254.120483 30.2787032 254.342755 30.2232566 255.076166 30.6776007 255.131601 31.2536096 255.298261 31.6525072 255.520711 31.6525072 256.131739 31.1983396 256.643054 30.799442 256.809537 31.2536096 257.420742 31.874117 257.809675 32.7935768 258.487473 33.5800708 258.765181 34.3776894 259.042888 35.0093214 259.320773 35.2863777 259.543046 35.3525958 260.498552 35.518759 261.109934 35.8067634 261.165369 36.1947129 260.943096 36.4827174 260.665212 36.936885 260.720824 37.6792336 261.109934 38.4766756 262.387602 38.5321222 263.176448 38.310689 263.676428 38.022508 264.120973 38.022508 264.576676 38.3661356 264.743159 38.70941 265.076656 38.6539634 265.520847 38.3661356 265.632071 37.8563448 265.743296 37.8008982 266.14321 37.8563448 266.421094 38.3661356 266.421094 39.2192008 266.921075 39.7839084 267.69894 40.3046472 268.432173 40.7035448 268.821283 40.924978 268.987589 41.8334898 268.710058 42.4649452 268.432173 42.7420016 267.921035 42.7972716 267.254395 42.9636114 266.632209 43.0854526 266.187664 43.5396202 266.021004 44.159951 265.965392 44.3926854 265.687684 44.7804584 265.465411 46.0322446 265.632071 47.3947474 265.743296 49.4445054 265.454431 49.555222 265.12111 49.7877798 264.732001 50.5742738 264.62113 51.1504592 264.843226 51.3167989 265.12111 51.2057292 265.509866 51.4939102 265.787751 51.8926312 266.743257 51.3167989 267.187802 51.2613523 267.632347 51.7155199 268.032437 52.4578685 267.909877 53.7649248 267.854442 54.961441 268.187762 56.8890046 267.79883 57.7420698 267.854442 58.6505815 268.187762 59.5589168 268.576518 60.4674285 269.243335 61.0987074 269.52122 61.7746613 269.810085 62.6941212 269.79875 63.1482888 270.198841 63.5471864 270.921094 63.8242427 271.532299 64.4002516 272.099049 64.6218613 272.487805 64.6773079 273.043397 64.6218613 273.654602 64.743526 274.3324 64.9096892 274.943605 65.0318836 276.010513 64.9096892 276.788201 64.632986 277.465999 64.2340884 278.132463 64.1786418 278.410347 64.0124786 278.977098 63.6137576 279.921446 62.926679 280.876952 62.7054224 281.321674 62.4838126 282.054907 62.3065248 282.943997 62.084915 283.777298 61.7412874 284.788416 61.2318498 285.288396 60.666789 285.910759 60.1571749 286.5774 59.5921141 287.199585 59.4150028 287.81079 59.3042862 288.366383 59.1379465 289.210664 58.8499421 290.099754 58.3957744 291.221743 58.2296113 291.666465 57.7754437 292.455488 57.6645505 292.733196 57.5538339 293.121951 57.4983873 293.688879 57.4983873 293.966587 57.3765461 294.29973 57.4983873 294.799887 57.6091039 295.021982 57.6645505 295.311025 57.6091039 295.811005 57.4983873 296.42221 57.3322241 296.933348 56.7007687 297.266491 56.6453221 297.766649 56.8226099 298.155581 57.2103829 298.777767 57.1549363 298.888992 56.9333265 299.388972 56.8226099 299.666857 57.0994897 299.83334 57.5538339 299.83334 58.0743961 300 58.7501735 300 59.5477921 299.944565 60.5117505 299.666857 61.1986525 299.50002 62.0515411 299.266767 63.0709461 299.044494 63.6911003 298.933446 64.8877931 298.544514 65.1092263 298.488901 65.5081239 298.311083 66.0175615 297.977763 66.4719057 297.477783 66.3610125 297.033415 65.8515749 296.92219 65.5081239 297.033415 65.2199429 297.144286 64.8321699 297.200075 64.7105053 297.255511 64.3116077 297.422348 63.6358303 297.477783 63.2369327 297.200075 63.2922027 296.92219 63.6358303 296.533258 64.7105053 296.5221 65.0537797 296.5221 65.5633939 296.411052 66.1948493 296.18878 66.2504725 296.133167 66.2504725 295.577752 66.1286312 295.244432 65.7963049 295.077595 65.3974073 295.021982 65.1092263 294.910935 65.0537797 294.788906 64.9319385 294.233136 65.2199429 294.011041 65.6742871 294.177524 66.1286312 294.455409 66.5827988 294.233136 66.7046401 293.844204 66.6380688 293.566496 66.4719057 293.222018 66.2391713 292.944133 66.2391713 292.666425 66.3610125 292.61099 66.6380688 292.44433 66.8151801 292.499942 67.1475065 292.888698 67.6018506 292.888698 68.0561948 292.721861 68.7429203 292.388541 69.1418179 292.499942 69.307981 292.721861 69.5407154 292.944133 69.5959855 292.999746 69.3743757 293.444113 69.307981 293.666563 69.1970879 293.955429 68.9202081 294.177524 68.3996458 294.455409 68.0673195 294.511021 67.7791385 294.177524 67.3249709 294.177524 67.2140777 294.288749 66.9815199 294.455409 66.9260733 294.955389 67.1031845 295.355302 67.2697009 295.799847 67.2697009 296.300005 67.1031845 297.088851 67.4468121 297.422348 67.6129753 297.310946 67.7238685 297.144286 67.9562497 296.799985 68.5214871 296.411052 69.1970879 295.966685 69.7732733 295.622206 70.3383341 295.122226 70.9032183 294.455409 71.7010134 293.721998 72.4984555 293.110793 73.628577 292.2109 74.4261956 291.310829 74.8805398 290.477529 74.8805398 290.088596 74.758522 289.699664 74.4261956 289.410975 74.0827446 288.910818 74.0827446 288.63311 73.9607268 288.299613 73.7392936 287.966293 73.6174524 287.74402 73.5065592 287.399542 73.683847 287.232882 74.3043544 287.177447 74.703252 286.899562 74.8694152 286.232921 75.1017964 285.388286 75.3788528 284.721646 75.6115872 284.26612 76.1212014 283.76614 76.3428112 283.59948 76.575369 283.377207 76.6860856 283.154935 76.7415322 282.643797 76.6308156 282.199429 76.4535278 282.088381 76.3428112 282.032769 76.176648 281.310516 75.9439136 280.132561 75.7666258 280.188173 75.0908484 280.799378 74.3486764 279.63258 74.459393 278.954782 74.5814108 278.399367 75.3124582 278.232529 75.8773424 278.121482 76.5087978 278.010434 76.9076954 277.843597 77.1293052 277.843597 77.4173096 278.232529 77.4727562 278.621462 77.4727562 278.788299 77.5282027 279.066007 77.6498674 279.799418 77.5282027 280.299398 77.306593 280.799378 77.251323 281.243746 77.4837042 281.921544 77.6498674 282.143816 77.9380484 282.532926 78.104035 282.921682 77.993495 283.199389 77.7054906 283.488432 77.251323 283.76614 76.520099 283.988412 76.287188 284.59944 76.176648 284.944095 75.888467 285.444076 75.8330204 286.055103 75.7777504 286.455194 76.0104848 287.566202 76.4092058 287.288494 76.520099 287.177447 76.6860856 287.066222 76.9742666 286.677466 77.4837042 286.055103 77.9380484 285.666348 78.5582026 285.09942 79.06817 284.26612 79.466891 283.59948 79.9210586 282.588361 80.4859428 281.521631 80.940287 280.743766 81.3946311 280.010355 82.02591 279.343715 82.5357008 278.610304 82.5357008 278.054711 82.3029663 277.388071 82.1920732 277.332636 81.9593388 277.277024 80.9957335 277.554908 80.5413894 277.832616 80.0872218 277.943664 79.9765052 277.832616 79.9765052 277.721391 80.0872218 277.110363 80.2535615 276.599225 79.8546639 276.599225 79.2896031 276.610383 78.8908821 276.432565 78.7245424 276.32134 79.12344 275.876973 80.5413894 275.710313 80.7629991 275.265768 80.7629991 274.810242 80.8737157 274.310085 80.8737157 273.921329 81.1618967 273.587832 81.2724367 273.532397 81.7269575 273.410368 81.8376741 273.587832 81.7822275 273.865894 81.7269575 274.254649 81.6160643 274.643582 81.4499011 275.143562 81.4499011 275.765748 81.5607943 275.988197 81.7379056 276.099245 81.9593388 276.043633 82.3029663 275.82136 82.5245761 275.654877 82.7018639 275.199174 82.812404 274.865854 83.0340137 274.310085 83.1447303 273.976764 83.6656457 273.688076 84.1198133 273.354579 84.5074097 272.687938 84.8510373 272.1768 85.0172005 271.621208 85.3604749 270.898955 85.5932093 270.221157 85.8146425 269.832224 86.2135401 269.387679 86.6678843 268.654446 87.0667819 268.043418 87.6869361 267.36562 87.7423827 266.754237 87.5762195 266.587755 87.1220519 266.421094 86.7231543 266.30987 86.5458665 266.087774 86.7786009 265.920937 87.1111038 265.909956 87.3434851 265.854344 87.5652714 265.465411 87.6316661 265.187527 87.6205415 264.743159 88.0747091 264.520886 88.5400013 264.576676 88.9277743 264.632111 89.5592297 264.454293 90.1242905 264.009748 90.5784581 263.565203 90.9773557 262.887582 91.4867933 261.654368 91.7638496 260.820891 92.2732872 260.032045 93.1819756 259.031907 94.2675986 258.131837 95.286827 257.853952 96.3613254 257.454039 96.9375108 257.120718 97.3252838 255.609443 96.9818328 254.942802 96.704953 254.665095 96.1953388 254.72053 95.5638834 254.942802 95.2202558 255.2763 94.599925 255.731825 94.0903108 256.065146 93.46998 256.453901 92.8937946 256.231983 92.384357 255.842873 92.2180172 255.898486 92.040906 255.953921 91.8747428 256.287418 91.8191196 256.520848 91.8747428 256.631719 92.040906 256.853991 92.1627472 257.131699 92.1627472 257.465197 92.1073006 257.798517 91.8191196 258.131837 91.4205752 258.42088 91.1435188 258.587363 90.56751 258.976295 90.1795605 259.42084 90.0022726 259.365228 89.8915561 259.031907 90.1133424 258.198607 90.51224 256.909604 90.67805 256.631719 90.56751 256.120758 89.9470026 255.898486 88.9722728 255.565165 87.8975978 255.687371 87.0445326 255.398505 87.387807 255.009573 87.8421512 254.398368 87.387807 253.664957 86.8670682 253.276202 87.4987002 252.664997 88.119031 252.998317 88.6286452 253.331637 89.0275428 253.442862 89.3155472 253.053929 89.7144448 252.664997 89.9913246 252.709451 90.3347756 253.109542 90.8998364 253.442862 91.697455 253.387072 92.5503436 252.876111 94.256474 252.987159 95.0542692 253.431704 95.8518878 253.376092 96.4722186 252.709451 96.9263862 252.142701 96.7490984 251.420448 96.3503774 250.64276 96.9263862 249.409369 97.147996 248.953843 97.491447 248.787006 98.1672244 249.231551 98.5661219 249.464804 99.1421308 249.398211 99.1974008 248.287026 99.651745 247.664663 100.039518 247.386955 100.271899 245.987082 100.382969 245.153604 101.346574 244.698078 101.690202 244.642466 102.7647 244.698078 103.396156 245.031399 103.507049 245.309106 103.562319 246.042517 103.507049 246.320402 103.507049 246.487062 102.886541 247.220295 102.255086 247.553615 102.54309 247.886936 102.831271 247.886936 102.720378 248.331481 102.653984 248.386916 102.377104 248.675959 102.144369 248.898408 101.811866 249.175939 101.524039 249.342599 101.014248 249.620484 100.615527 249.787144 100.56008 250.187057 100.449364 250.520377 100.449364 251.07597 100.271899 251.587285 100.105913 251.976041 99.7624616 252.36515 99.4854052 252.642681 99.253024 253.209431 99.1974008 253.431704 99.3748652 253.542929 99.5962984 253.542929 99.995196 253.598364 100.393917 253.431704 100.848085 252.920566 101.246982 252.476021 101.756596 252.142701 102.554215 251.576127 103.396156 250.798262 104.193951 250.231512 105.157556 249.898192 106.298626 249.442666 107.151691 249.109169 108.170919 248.498318 109.356311 247.709295 110.552827 246.975884 111.173158 246.475727 111.117888 246.309244 111.117888 246.198019 111.062441 245.920311 111.006995 245.697862 110.896101 245.298126 110.774437 244.853581 110.552827 244.631308 110.209376 244.575873 109.589222 244.464648 109.467027 244.3536 109.52265 244.131328 109.644492 243.853443 109.52265 243.46451 109.300864 243.28687 108.724855 243.175822 108.503422 243.186803 108.392529 243.186803 108.326134 242.953549 108.447976 242.620229 108.447976 242.286732 107.927237 241.953412 106.852738 241.620269 105.88878 241.731139 104.980445 242.009024 104.415384 242.520162 104.404259 241.231159 104.127203 239.831285 104.459706 239.442353 105.877832 238.986827 106.276553 238.208962 106.331999 236.308754 106.730897 235.630956 107.473069 235.686568 107.749949 235.130975 107.639409 234.34213 107.860842 234.064245 108.370456 234.119857 108.492121 234.575383 109.400633 234.675273 109.677689 234.731062 109.677689 234.84211 109.566972 235.297636 109.8548 236.130936 110.253698 236.753299 110.541879 237.197844 111.106763 237.642212 111.560931 237.308714 112.358726 236.797753 111.837987 235.74218 111.439089 235.17543 111.272926 234.50879 111.494713 234.064245 112.070545 234.064245 112.236885 233.608719 111.671647 232.608759 111.040368 232.553146 110.874029 232.164214 111.383643 231.542028 112.347425 231.653075 112.580159 232.219826 113.25576 232.386309 113.599387 231.930783 113.311383 231.153095 111.837987 229.753044 111.372518 228.975002 111.428141 227.964061 110.464183 226.908488 110.51963 225.619662 110.51963 225.230729 110.973797 225.063892 110.5749 223.997162 110.464183 223.219296 110.231625 222.430451 110.630346 222.26379 111.428141 222.763771 111.992849 223.15288 112.048472 223.997162 112.22576 224.497319 112.735374 224.441884 113.411152 224.386094 114.441328 224.497319 115.294393 224.663979 115.117105 223.874956 115.460556 223.541636 116.080887 223.819521 116.147458 224.374936 117.055794 224.541773 117.842288 224.097228 118.584636 224.708433 119.216092 225.097189 119.03898 225.441667 118.928087 225.774987 119.326808 226.164097 119.437701 226.441804 118.983357 226.552852 118.817371 226.719512 118.872641 227.175215 118.817371 227.56397 118.706477 228.008515 118.817371 228.11974 118.928087 228.2864 119.559543 227.841855 120.235497 227.841855 120.866775 228.008515 120.866775 227.330717 121.143832 226.941785 121.886004 226.164097 121.653269 225.708571 121.597999 225.208591 121.764339 224.819481 121.143832 224.263888 120.40166 223.986181 119.947492 223.697138 119.714581 223.25277 119.493148 223.030675 119.03898 222.91945 118.928087 222.419293 118.861693 222.08615 118.47392 221.808265 118.130469 221.463787 118.008627 220.963806 118.063897 220.241731 118.185915 219.897076 118.518065 219.897076 118.750799 220.297166 119.149697 220.408214 119.37113 219.952688 119.482023 219.619368 119.548595 219.341483 120.058032 219.119388 120.512376 219.063775 120.567823 218.441412 120.67854 217.663724 120.900149 217.096974 121.476158 216.763654 121.808661 216.541381 121.985596 216.485946 122.207206 216.763654 122.495387 217.263634 122.783391 217.263634 122.838838 216.763654 122.716996 216.263496 122.827713 215.974631 123.514438 215.752535 123.747173 215.974631 124.079676 216.374721 124.655508 216.307951 124.988011 216.196903 125.220745 215.974631 125.043281 215.585698 124.821848 215.196943 124.877118 214.852288 124.932564 214.685805 125.331462 214.296872 125.497625 213.963552 125.497625 213.341366 125.896523 213.463572 126.295244 213.396802 126.35069 213.285754 126.117956 212.841209 126.007239 211.952473 126.173402 211.66343 126.406137 211.552383 126.516677 211.66343 126.915574 211.774478 127.602476 211.552383 127.879533 211.274498 128.278254 211.33011 128.566258 211.496948 128.787868 211.441158 129.076049 210.99679 129.131319 210.874585 129.242036 210.318992 129.75165 209.930059 129.807273 209.596739 129.75165 209.141214 129.984384 208.974376 130.150547 208.696492 130.438552 208.363348 131.114153 208.252124 131.790107 207.796598 132.189004 207.574325 132.477009 207.35223 132.421562 207.129958 132.022664 207.018733 131.67939 206.963298 131.568497 206.85225 131.73466 206.396547 131.900823 206.119016 132.133558 205.674294 132.809512 205.341151 133.041893 205.218769 133.041893 204.552128 133.208056 204.051971 133.496237 203.996536 134.005851 204.218808 134.404749 204.163196 134.515289 203.70767 134.626182 203.54101 134.914186 203.374173 135.080526 203.152077 135.135796 202.929805 134.515289 202.763145 133.950405 202.763145 133.662224 202.70771 133.374219 202.596308 133.263679 202.374212 133.097339 202.15194 133.097339 201.929845 133.551684 201.918687 133.88401 201.974299 134.116391 201.974299 134.515289 201.918687 134.570559 201.585367 134.338178 201.307482 134.227284 201.029597 134.393624 200.296363 134.393624 200.018656 134.338178 199.851818 133.651276 199.740948 132.809512 199.629723 132.355167 199.518498 131.95627 199.407273 131.834429 198.796246 131.889699 198.296265 131.889699 197.729692 131.945145 197.396195 131.945145 197.173922 132.056038 196.729554 132.288596 196.496124 132.399489 196.218416 132.632047 195.885096 132.79821 195.662824 132.79821 195.385116 132.510206 194.984848 132.344043 194.651705 132.111308 194.096113 132.510206 193.651745 132.853657 193.30709 133.363271 192.862899 133.584881 191.962828 133.529611 191.351623 133.806314 190.518146 134.659379 190.11841 135.235388 189.951572 135.113547 189.451592 134.659379 189.340367 134.205212 189.39598 133.928332 189.284932 133.917207 188.896 134.371375 188.606957 135.00283 188.440297 135.567715 188.162766 135.911342 187.595838 136.188222 186.762538 136.243668 186.262558 136.42078 185.806855 136.642566 185.640195 137.096734 185.529324 137.550901 185.362487 137.838906 185.084779 137.495455 184.629077 137.152004 184.518029 136.587119 184.462416 136.188222 184.584622 135.733878 184.584622 135.335157 184.473574 135.113547 184.417962 134.991706 184.251302 135.102599 183.795776 135.335157 183.740341 135.733878 183.684551 136.465102 183.684551 136.808729 183.629116 137.041287 183.184571 136.974716 182.784658 136.919446 182.062405 137.152004 181.395588 137.42906 180.495694 137.993944 179.484399 138.337395 178.817581 138.680846 178.362056 139.19046 177.917865 139.46734 177.751028 139.810968 177.584368 140.032578 177.362272 140.032578 176.962182 139.866238 176.740086 139.52261 176.628685 139.013173 176.684474 138.392842 176.684474 137.650493 176.695632 136.963768 176.639842 136.28799 176.806503 135.944539 176.695632 135.545642 176.417747 135.036204 176.08425 134.58186 175.628724 134.238409 175.462064 133.618255 175.295404 133.219357 175.295404 132.709566 175.362174 132.532455 175.362174 132.310845 175.195514 132.310845 174.573151 132.255399 174.350879 133.163911 174.295266 133.551684 174.295266 133.950405 174.184396 134.349302 174.062013 134.80347 174.406668 135.036204 174.628764 135.656358 175.184356 136.232544 175.295404 136.908321 175.406629 137.362665 175.517676 137.706116 175.462064 138.049567 175.128744 138.215731 174.895314 138.503735 174.839878 138.902456 174.895314 139.179336 174.561993 139.345676 174.062013 139.400946 173.6621 139.52261 173.43965 139.46734 173.273167 139.345676 172.93967 139.290229 172.717575 139.52261 172.495479 139.68895 171.873116 139.91056 171.428571 139.91056 171.261911 139.799843 171.039816 139.456392 170.817544 139.234782 170.539659 139.057495 170.362018 139.112765 170.084133 139.400946 169.862038 139.456392 169.639588 139.456392 169.36188 139.290229 169.250833 138.946778 169.02856 138.658597 169.19522 138.437164 169.472928 137.927373 169.639588 137.240648 169.417493 136.897197 169.19522 136.731033 168.750852 136.95282 168.128489 137.185201 167.906394 137.296094 167.683944 137.805708 167.795169 138.315323 167.961829 138.824937 167.961829 139.002225 167.739557 139.334551 167.406237 139.567109 167.573074 139.855113 167.683944 140.18744 167.573074 140.364904 167.117371 140.13217 166.784051 139.788719 166.506166 139.112765 166.283894 137.971695 166.283894 137.694992 166.228281 137.573151 165.895138 138.138035 165.161728 137.916425 164.88402 137.406987 164.439475 137.174253 164.272815 137.118983 164.050542 137.462257 163.717222 137.916425 163.717222 138.248751 164.050542 138.647649 164.606312 139.101817 164.939632 139.445268 165.106292 139.844165 165.21734 140.353779 165.050503 140.697054 165.328388 140.807947 165.828368 141.040505 166.172846 141.439402 166.106076 142.059733 166.05064 142.347914 165.21734 142.225896 164.594977 143.023692 163.983949 143.256249 163.59484 143.366966 162.917218 143.422413 162.695123 143.366966 162.195143 142.735511 162.083741 141.938069 162.250578 141.317561 162.528286 140.697054 162.761539 140.464496 162.417238 139.899435 162.417238 139.334551 162.539444 138.9911 162.261559 138.702919 161.917258 138.138035 161.861646 137.794584 161.528325 137.85003 161.028345 138.470361 160.75046 138.9911 161.305876 140.010328 161.472713 140.752677 161.583761 141.428101 161.806033 141.993339 161.583761 142.447506 161.40612 143.023692 161.017187 143.355841 160.794915 143.810362 160.461595 144.153637 160.228164 144.895809 160.394824 145.006702 160.450437 144.951255 160.73948 144.784915 161.0728 144.607804 161.68365 144.386371 162.306013 144.386371 162.917218 144.441641 163.639294 144.441641 164.928474 144.508036 165.384 144.386371 166.272736 144.220208 166.772893 144.053868 167.284031 143.710417 168.061719 143.5997 168.573034 143.322644 169.461947 143.267374 170.306405 143.090086 171.08427 142.923746 171.873116 142.647043 172.706417 142.248146 173.050895 142.015411 173.273167 142.070858 173.717712 142.248146 173.99542 142.59142 174.32874 142.813206 174.839878 142.868476 175.395294 142.75776 176.062111 142.59142 176.684474 142.303592 177.184454 142.137252 177.57321 141.971089 177.917865 141.804926 178.862036 141.683085 179.817719 141.572545 180.651196 141.461652 181.440042 141.406205 181.940022 141.406205 182.84027 141.461652 183.395686 141.417153 184.295756 141.240042 185.406765 141.073879 186.362448 141.018256 187.306973 141.073879 188.373703 141.085003 189.496047 141.085003 189.940414 140.796999 190.72926 140.453548 191.562561 140.287208 191.95167 140.287208 192.295971 140.231762 192.851564 140.409226 193.407157 140.575389 193.851701 140.575389 194.36284 140.298333 194.807207 139.954882 194.751772 139.555984 194.585112 139.323426 194.751772 139.268156 194.973867 139.21271 195.318346 139.500714 195.318346 139.899435 195.362977 140.121222 195.540795 140.409226 195.929551 140.752677 195.874115 140.863394 195.818503 140.918664 195.52946 141.151398 195.19614 141.262291 194.751772 141.428101 194.196002 141.539171 193.518381 141.539171 191.396078 141.649888 190.496007 141.816051 189.884802 141.993339 189.384822 142.159502 188.373703 142.159502 187.473633 142.270395 186.806993 142.436558 185.795874 142.713438 184.795914 142.835279 183.840231 142.768884 182.829289 142.713438 181.717927 142.990318 179.817719 143.045764 178.30662 143.278322 177.23989 143.555378 175.728791 143.721542 174.551013 143.954276 173.717712 144.175886 172.706417 144.452589 171.417591 144.618929 169.184062 145.073273 167.395079 145.01765 166.272736 144.96238 165.661885 145.183813 164.428317 145.405423 163.806131 145.637981 162.972831 145.859767 162.405903 146.258488 161.461732 146.480274 160.728145 146.712656 159.894844 146.934442 158.772678 146.989712 158.050425 146.934442 157.261402 146.934442 156.650197 146.756977 156.37249 146.701707 156.317054 146.30281 156.083801 145.505191 155.927945 144.485963 156.094782 143.688168 156.650197 142.95712 156.883628 142.048785 156.550308 141.4726 156.494872 140.796999 155.761285 140.619711 154.983597 140.398101 153.472321 140.564088 153.139001 140.785698 152.972341 140.907715 153.361273 141.129325 153.972301 141.528223 154.761324 142.048785 155.094644 142.325665 155.427965 142.669292 155.705849 143.234 155.594625 144.031795 155.194711 144.652126 154.861391 144.88486 154.694731 145.16174 154.805602 145.560461 154.972439 146.30281 155.028051 146.867871 154.405865 146.923141 153.239068 146.923141 152.061112 147.034034 150.661238 147.36636 149.372235 147.543471 148.483322 147.875798 147.194319 147.986868 146.572311 148.042138 145.905493 147.820528 145.572173 147.532523 145.516561 146.912193 145.849881 146.291685 146.072153 145.494067 145.960928 144.641001 145.627608 144.009546 145.01658 143.73249 144.738696 143.666095 144.405375 143.898829 143.94985 144.408444 144.060897 144.862611 144.460988 145.150616 144.68326 145.66023 144.627648 145.881663 144.227735 146.003681 143.94985 146.458025 143.94985 146.734728 144.338782 146.967463 144.560878 147.58797 144.838585 148.042138 144.78315 148.441035 144.560878 148.662468 143.605372 149.116813 142.549799 149.40464 141.705341 149.40464 140.47195 149.393692 139.638649 149.681697 138.849626 149.903307 138.349646 150.302204 137.560623 150.756372 136.327409 150.922358 135.493932 151.210539 134.482814 151.432326 133.082586 151.376703 132.082802 151.310131 131.405004 151.365578 130.171613 151.598136 129.338313 152.05248 128.54929 152.27409 127.493717 152.32936 127.260287 152.440253 126.593646 152.207695 125.415691 152.207695 124.015817 152.373682 122.682359 152.484575 121.671241 152.484575 120.715735 152.540021 119.882258 152.429128 119.60455 152.373682 119.426732 152.141124 118.815527 152.085677 117.982226 152.030407 117.137768 151.797849 116.193243 151.68678 115.126512 151.675832 114.448891 151.398952 114.059782 151.221664 113.393141 150.878036 112.382023 150.601157 111.604158 150.313329 111.104178 149.681697 110.259719 149.40464 110.092882 148.895203 109.759562 148.607022 109.537467 148.152854 109.704127 147.86485 109.926399 147.86485 110.259719 148.330142 110.548585 148.551752 111.104178 148.607022 111.49311 148.607022 112.048526 148.673593 112.726501 149.2941 112.837549 149.692645 112.837549 149.969701 112.781936 150.368599 113.170869 150.368599 113.615237 150.146989 114.070939 150.146989 114.459872 150.65678 115.737717 151.287882 117.137768 151.57624 117.871179 151.57624 118.426594 151.68678 119.204459 151.68678 119.493325 151.753351 119.882258 151.864244 120.382238 151.864244 120.882218 151.919514 122.004561 152.041355 122.793407 151.864244 123.793545 151.753351 124.526955 151.531918 125.304643 151.13302 126.149101 150.734122 126.149101 150.335578 126.093666 150.003075 126.315762 150.113792 126.8269 149.892358 127.16022 149.825787 127.32688 149.604177 127.715812 149.15001 127.604765 149.039117 127.32688 148.640219 127.215832 148.352391 127.604765 148.186052 127.949243 148.020065 128.115726 147.676614 128.115726 147.49915 127.893807 147.49915 127.493717 147.731884 127.049349 147.554596 126.549192 147.277716 126.160259 147.211322 125.815781 147.610219 125.815781 148.130782 125.982618 148.862005 125.704734 149.028169 125.315801 148.806559 124.982481 149.260726 124.58239 149.99195 124.24907 150.556835 123.74909 150.789746 123.126727 150.845016 122.348862 150.734122 122.004561 150.158114 121.782289 149.648499 121.560016 149.138885 121.393356 148.396713 121.337921 147.887099 121.682399 147.322038 121.793447 146.923141 122.071331 146.646261 122.69334 146.35808 122.804565 145.682479 122.860177 145.394475 122.860177 144.829237 123.304545 144.37507 123.649023 144.031795 124.093568 143.577628 124.315664 143.17873 124.093568 143.068013 123.537798 143.289447 123.137885 144.197958 122.58247 144.707573 122.137925 145.217187 121.960107 145.793372 121.793447 145.959359 121.460126 146.24754 121.182242 146.635136 121.004601 146.923141 120.948988 147.377308 120.560233 147.776206 120.226736 147.997816 119.948851 148.50743 119.715598 148.961597 119.937693 149.648499 120.048918 149.870109 120.393396 150.102667 120.560233 150.390848 120.837764 150.556835 121.060036 150.900286 121.060036 150.955732 120.60451 150.845016 119.993305 150.778444 119.271053 150.723174 118.704479 150.269007 118.204322 149.925379 117.648906 149.526835 117.082156 148.72904 116.748836 146.690406 116.482109 145.782071 116.315449 145.206062 115.982128 144.474838 115.870904 143.62195 115.648808 143.167782 115.248895 142.314717 114.748738 141.683085 114.193145 140.60841 113.526505 139.301354 113.026525 138.392842 112.859687 137.883228 112.470932 137.196326 111.959617 136.465102 111.515249 135.944539 111.515249 135.778376 111.570861 135.268762 112.193047 134.415697 112.193047 133.396468 112.026387 132.59885 111.359747 132.144682 111.026427 131.635068 111.637454 131.014561 112.870845 129.818221 113.604079 129.142444 113.659868 129.364053 113.437596 129.47477 113.037682 129.308783 112.537702 128.566258 111.981932 127.945928 111.815272 127.203579 111.593 125.951969 110.915202 124.877118 110.359786 124.079676 109.970854 123.459168 108.68185 123.392597 107.959775 121.808661 106.726207 120.722861 106.392887 119.758903 106.737188 119.194019 107.915143 118.861693 108.804056 118.462795 109.259582 117.044846 109.426242 116.30232 109.259582 115.792883 109.037309 116.46866 108.470736 117.033544 108.081803 117.83134 107.637436 118.396224 107.070685 119.083302 106.348432 119.304559 105.726247 119.648187 105.281702 120.213247 105.170477 120.955596 105.170477 121.863931 105.503974 122.484262 105.726247 122.883159 106.003954 123.22661 106.559547 123.50349 106.892867 123.957658 106.948479 124.245662 106.392887 124.245662 105.837294 124.190392 105.381768 124.300932 104.992836 124.356555 104.548468 124.522719 104.148378 124.755276 103.70401 125.087603 103.3149 125.320337 102.859374 125.375607 102.414829 125.198496 101.859414 125.087603 101.070568 125.198496 100.459186 125.431054 99.9593829 125.818827 99.170537 126.450459 98.6703797 126.904626 98.4371264 127.414241 98.3259016 128.212036 98.2148539 128.488739 97.8813567 128.710172 96.9258507 128.88746 95.8036847 129.16434 95.0258196 129.386126 94.292409 129.386126 94.1255718 129.33068 93.1146306 129.275233 92.3923779 129.386126 91.4923072 129.496843 90.6033945 129.663006 89.8699839 130.006457 89.0921188 130.405355 88.5811578 130.914969 88.1922252 131.5353 87.7476803 132.388365 87.5698623 132.953426 87.6254747 133.584881 87.1811069 133.861761 86.6811267 134.316105 86.0031514 134.825543 85.3253532 134.991706 84.7699377 135.047329 84.2699574 135.27971 83.7032069 135.789501 83.2032267 136.409832 82.6919115 136.753283 82.0252712 136.919446 81.5809033 137.085609 81.0695881 137.539777 80.6252203 138.049567 80.2919001 138.337395 80.2362877 138.902456 80.0586469 139.46734 80.0586469 139.589358 81.1252005 139.589358 81.514133 139.356624 82.1919312 138.847186 82.9697963 138.337395 83.7586422 137.883228 83.9809147 137.373613 84.8253729 137.152004 85.4920132 136.930571 86.0587638 136.753283 86.7255812 136.642566 87.169949 136.642566 87.4032023 136.819677 87.5698623 137.440185 87.5032691 137.894352 87.2253843 138.691971 87.2253843 139.201585 87.2809967 139.600483 87.2809967 139.932809 87.3366091 140.33153 87.1143366 140.165367 86.7255812 139.711199 86.380926 139.533911 86.0476059 139.821916 85.5476256 140.276083 85.6586733 141.184595 85.9919935 141.528223 86.1030411 141.860373 86.214443 142.203824 86.3254907 142.491828 86.1030411 142.203824 85.5364677 141.528223 85.25876 141.073879 85.0364875 140.785698 84.5919426 141.240042 84.3698472 141.804926 84.3698472 142.425257 83.9143215 142.53615 83.2475041 142.713438 82.8587487 142.990318 82.7365431 143.62195 82.7365431 143.954276 82.6807536 144.297727 82.1253381 144.585731 81.6698123 144.807165 81.5029751 145.316955 81.0586073 145.427495 80.8363348 145.604783 80.4920339 146.313935 80.6252203 146.324883 80.5586271 146.568742 79.1474183 146.956515 76.747407 147.266768 75.3027245 147.299966 75.1250836 147.465952 74.2804482 147.576845 73.6694203 147.853725 73.1249856 148.263747 72.569393 148.739988 71.6583415 149.526835 70.2359748 150.014023 69.35822 150.180186 69.0693543 150.91141 67.7803511 151.542866 66.5579411 152.096625 65.2579571 152.240716 64.9357948 153.514928 61.9578751 154.689018 58.8577498 154.84441 58.402224 155.442491 56.6798338 155.996428 55.179716 156.373076 53.7242298 157.015656 51.2574482 157.38118 49.7573304 158.00151 47.2351135 158.256494 46.2128373 158.5 44.2795095 157.757828 44.1461461 157.370055 43.9350315 150.025148 39.7237209 148.496305 38.8792627 146.24754 37.5125084 134.216336 30.4677994 128.654902 27.4565831 127.49176 26.8343973 126.705089 26.3898523 118.861693 21.9785851 118.130469 21.5898297 117.33285 21.0785144 114.230843 19.0118232 112.790644 18.0451594 110.287072 16.3783815 98.5549973 9.08926144 92.1736953 5.23358682 88.0747091 2.6890541"></polygon>
            <polygon id="Fill-2" points="141.587808 168.47817 141.675336 168.173943 141.868568 168 142.131432 168 142.307047 168.260845 142.5 168.521552 142.5 168.782536 142.219239 169 141.675336 168.869439 141.5 168.652114"></polygon>
            <polygon id="Fill-3" points="141.90972 174 142.172067 174.039595 142.5 174.396837 142.417951 174.642884 142.417951 174.880961 142.172067 175 142.008231 174.960405 141.663836 174.920557 141.5 174.642884 141.745885 174.365085 141.745885 174.119039"></polygon>
            <polygon id="Fill-4" points="138.708324 192.584957 138.569294 192.467891 138.5 192.292665 138.638809 192 138.999889 192.058719 139.638809 192.409544 140.069183 192.643303 140.347022 193.228073 140.5 193.649175 140.430485 193.941467 139.999889 194 139.708324 193.824401 139.277729 193.590829 139.069404 193.228073 138.860859 192.877249"></polygon>
            <polygon id="Fill-5" points="137.711481 197 137.540689 196.924191 137.5 196.697006 137.540689 196.545389 137.5 196.242395 137.540689 196.166828 137.79273 196 138.044771 196 138.337372 196.07605 138.5 196.227426 138.5 196.53042 138.337372 196.772815 137.963393 197"></polygon>
            <polygon id="Fill-6" points="140.268681 197 140.5 197.394431 140.445024 198.13821 140.378808 198.757875 140.103403 199.558053 139.816933 200.065101 139.43105 200.639864 139.310033 201.034295 138.924326 201.65396 138.582529 202.285122 138.362276 203.017585 138.020654 204.042997 137.734184 204.719062 137.403628 205.519239 137.172133 206.36432 136.665234 207.558748 136.279703 208.58416 135.651611 209.542038 135.08956 210.511232 134.759004 211.142034 134.130913 212.212709 133.678989 212.899909 133.624013 213.350738 133.183155 214.150916 132.665366 214.939777 132.103315 215.683556 131.772759 216.190604 131.486113 216.922888 130.979214 218.061097 130.417339 218.973892 130.020566 219.818973 129.745162 220.224719 129.40354 220.900784 128.84149 221.464231 128.213398 222.546042 127.706674 223.233422 127.320791 223.909486 126.979346 224.596867 126.637724 225.104095 126.472271 225.32933 126.130825 226.073108 125.800269 226.636555 125.513623 227.31262 125.116851 227.774585 124.775405 228 124.610127 227.887382 124.5 227.661968 124.5 227.211138 125.006724 226.692774 125.172177 226.298344 125.227153 225.791295 125.227153 225.160314 125.282304 224.765883 125.392607 224.653265 125.89933 224.540468 126.240952 224.315053 126.527598 223.853088 126.748027 222.951609 126.803002 222.546042 126.803002 222.264229 127.089473 222.095212 127.596372 221.588164 127.816626 221.126019 127.992969 220.618971 128.158423 220.224719 128.444893 219.661272 128.720297 219.368144 129.11707 219.142908 129.513843 218.973892 129.678945 218.63586 129.734096 218.297648 129.844223 217.835683 130.18602 217.384853 130.527466 216.821406 131.034365 215.795994 131.486113 215.108614 131.937862 214.207314 132.268593 213.68895 132.500088 213.181902 132.610039 212.618275 132.665366 212.224024 132.775493 211.649262 133.006812 211.142034 133.392694 210.623849 133.678989 210.229418 133.844443 209.665971 134.075762 209.327939 134.296191 209.091209 134.637637 208.809575 135.08956 208.471543 135.30999 208.077112 135.541309 207.445951 135.88293 206.826285 136.213486 206.60087 136.268637 206.251702 136.268637 205.688075 136.610259 205.124628 136.896729 204.77546 137.172133 204.437248 137.403628 203.9302 137.568906 203.366753 137.623882 202.904788 137.447538 202.453958 137.392563 202.228543 137.282436 201.890691 137.282436 201.665276 137.447538 201.428546 137.734184 201.372327 138.130781 201.315928 138.802958 200.80888 139.144755 199.727069 139.310033 198.701656 139.651479 197.856576 139.982035 197.293129"></polygon>
            <polygon id="Fill-7" points="135.649179 203.274654 135.723888 203.109827 136.037473 203 136.41054 203.164827 136.5 203.32948 136.5 203.714311 136.261123 203.934139 135.962765 204 135.723888 203.879138 135.574709 203.769136 135.5 203.604309 135.5 203.32948"></polygon>
            <polygon id="Fill-8" points="131.673943 209.136915 131.905867 209 132.195773 209 132.427697 209.136915 132.5 209.342395 132.5 209.767114 132.050705 210.041162 131.760799 210.315209 131.688265 210.589038 131.615962 210.794519 131.239201 211 130.717371 210.931652 130.572303 210.725953 130.5 210.315209 130.572303 209.904247 130.934742 209.6302 131.239201 209.4245 131.528875 209.287586"></polygon>
            <polygon id="Fill-9" points="130.128924 212.780172 130.025719 212.944999 129.809285 213 129.706245 213 129.60304 212.944999 129.5 212.615344 129.60304 212.395691 129.706245 212.340515 129.860723 212.109827 130.025719 212 130.39696 212 130.5 212.109827 130.448398 212.329655 130.231964 212.560343"></polygon>
            <polygon id="Fill-10" points="129.5 216.307749 129.5 216.692251 129.244023 217 128.817201 216.923247 128.62206 216.76925 128.5 216.76925 128.5 216.307749 128.68309 216.076999 129.061127 216 129.305053 216"></polygon>
            <polygon id="Fill-11" points="125.782695 218.945009 125.554391 218.725394 125.5 218.505604 125.608782 218.395622 125.663173 218.175832 125.836913 218.055166 126.162914 218 126.391218 218.109982 126.5 218.340806 126.391218 218.780385 126.228218 219"></polygon>
            <polygon id="Fill-12" points="123.560848 222.350016 123.682737 222.24992 123.743779 222.149984 124.060848 222 124.182737 222.100096 124.426711 222.200032 124.5 222.350016 124.5 222.449952 124.365863 222.649984 124.182737 223 123.804821 222.949952 123.621695 222.799968 123.5 222.550048"></polygon>
            <polygon id="Fill-13" points="120.780352 223.045501 120.929912 223.090856 121.070088 223.181713 121.163489 223.318215 121.359973 223.500072 121.5 223.590929 121.453374 223.863643 121.266423 224 120.686951 223.909144 120.546775 223.772787 120.5 223.636285 120.5 223.136357 120.546775 223"></polygon>
            <polygon id="Fill-14" points="123.111944 229 122.738877 229 122.5 228.672067 122.574471 228.426444 122.663931 228.344134 122.888056 228.098511 123.111944 228 123.425291 228.081787 123.5 228.426444 123.5 228.672067 123.275874 228.918213"></polygon>
            <polygon id="Fill-15" points="116.352368 231.066364 117.719452 231.165911 118.370737 231.110666 118.872903 231 119.364005 231.055421 119.68437 231.110666 119.801996 231.66435 119.908898 232.007644 120.079635 232.339819 120.293098 232.616572 120.453451 232.671993 120.901996 232.561327 121.062179 232.173555 121.5 232.217856 121.446719 232.838081 121.286366 233.502607 121.286366 233.956567 121.233086 234.454829 120.901996 234.787004 120.464005 235.008513 119.855277 235.008513 119.481631 234.842425 119.150371 234.842425 118.872903 235.019456 118.872903 235.683982 118.926184 235.960735 119.203993 236.182244 119.310724 236.85789 119.150371 237.356152 118.883457 238.075746 118.274729 239.138811 117.516543 240.146455 116.907815 240.700138 115.978722 241.264941 114.835995 241.984536 114.066914 242.660181 112.753281 243.490795 112.422361 243.667825 112.155447 243.889157 111.930919 244 111.824188 243.501738 111.653451 243.158444 111.333086 243.047777 110.830919 242.660181 110.670907 242.438673 110.564005 242.106498 110.5 241.608236 110.5 241.49757 110.670907 241.154099 110.670907 240.988012 110.991272 240.821924 111.108728 240.877345 111.429093 241.098854 111.546719 241.320363 111.760183 241.597116 112.144553 241.652538 112.582544 241.320363 113.127267 240.257121 113.298174 240.146455 113.629093 239.924946 114.120365 239.758859 114.38745 239.648193 114.611637 239.482106 114.440901 239.205176 114.173816 239.039265 113.789276 238.928422 113.618369 238.873001 113.735995 238.529706 114.002909 238.086866 114.280548 237.588603 114.665088 237.367095 115.102909 237.189888 115.423275 236.913134 115.476555 236.747047 115.701083 236.30403 115.807815 235.739403 115.807815 234.964211 115.754364 234.299685 115.583457 233.79048 115.316543 233.292041 115.092355 232.8492 114.985453 232.461604 115.038734 232.11831 114.985453 231.896801 115.092355 231.786135 115.423275 232.007644 115.861096 232.007644 116.021448 231.841556 115.797091 231.509382 115.914547 231.287873"></polygon>
            <polygon id="Fill-16" points="108.054517 238.390922 107.909042 238.218522 107.863689 237.931068 108.009165 237.758851 108.281714 237.459854 108.472687 237.229927 108.699884 237.115055 108.84536 237 108.93621 237 109.127182 237.344982 109.081685 237.988595 108.981707 238.620849 108.981707 238.850776 109.26353 239.022993 109.454358 239.25292 109.5 239.666789 109.409005 240.069116 108.990835 240.35657 108.572665 240.528787 108.381837 240.701186 108.054517 241 107.727197 241 107.545352 240.758714 107.5 240.35657 107.59085 240.011588 107.818047 239.436862 107.963522 239.138048 108.054517 238.850776"></polygon>
            <polygon id="Fill-17" points="111.5 239.095852 111.439164 239.43821 111.439164 239.712227 111.256074 240 110.817007 239.8631 110.695141 239.506987 110.621866 239.095852 110.5 238.547817 110.56103 238.068559 110.878037 238 111.182799 238.1369 111.317104 238.274017 111.5 238.616594"></polygon>
            <polygon id="Fill-18" points="98.8834632 253 98.6878969 253 98.6127621 252.903288 98.5 252.710018 98.5 252.265573 98.6127621 251.975899 98.8082085 251.637561 98.958598 251.44429 99.0713601 251.251174 99.3419413 251 99.3796884 251.048202 99.5 251.251174 99.387118 251.927543 99.229299 252.313929 99.0789095 252.710018"></polygon>
        </g>
        <g id="Group-5-Copy-2" transform="translate(90.000000, 131.000000)">
            <path d="M19.5007728,0 C30.2704791,0 39,8.72986684 39,19.5 C39,30.2701332 30.2704791,39 19.5007728,39 C8.73106646,39 0,30.2701332 0,19.5 C0,8.72986684 8.73106646,0 19.5007728,0 Z" id="Stroke-1" stroke="#E75F52"></path>
            <path d="M19.5,13 C23.0899976,13 26,15.910354 26,19.5007853 C26,23.089646 23.0899976,26 19.5,26 C15.9100024,26 13,23.089646 13,19.5007853 C13,15.910354 15.9100024,13 19.5,13" id="Fill-3" fill="#E75F52"></path>
        </g>
    </g>
</svg>