<?xml version="1.0" encoding="UTF-8"?>
<svg width="386px" height="300px" viewBox="0 0 386 300" version="1.1" xmlns="http://www.w3.org/2000/svg" xmlns:xlink="http://www.w3.org/1999/xlink">
    <!-- Generator: Sketch 64 (93537) - https://sketch.com -->
    <title>57</title>
    <desc>Created with Sketch.</desc>
    <defs>
        <polygon id="path-1" points="0.201916667 0.0072173913 9.939 0.0072173913 9.939 10 0.201916667 10"></polygon>
        <polygon id="path-3" points="0.186197189 0.153081053 107 0.153081053 107 40.9126916 0.186197189 40.9126916"></polygon>
    </defs>
    <g id="57" stroke="none" stroke-width="1" fill="none" fill-rule="evenodd">
        <g id="Group-29" transform="translate(-1.000000, 0.000000)">
            <path d="M0.5,185.094549 L0.844112303,202.296637 L215.482877,201.952638 L217.088735,204.361059 L220.186173,205.393056 C220.186173,205.393056 220.530286,210.095231 220.64499,210.553896 C220.759694,211.012561 225.46299,210.553896 225.46299,210.553896 L228.904541,213.420982 L228.101612,215.60007 L230.510827,216.976066 L230.05201,223.168475 L230.969643,225.576896 L229.593194,227.641317 L235.214123,236.242575 L238.311989,236.471908 L238.88551,238.535902 L243.12999,238.650568 L245.4245,239.45366 L247.603878,242.549651 L247.833286,243.926074 L286.723112,268.352996 L284.543306,277.06892 L284.08449,282 L286.723112,279.248008 L292.344469,274.889832 L296.359541,270.302324 L300.144776,266.861906 L294.982663,259.751738 L307.257714,252.526904 L303.930867,249.774913 L303.701459,244.38474 L307.487122,198.627315 L304.963204,197.480224 L317.697071,152.181036 L317.008847,134.405617 L318.5,132.914955 L318.385724,99.1987771 L316.435326,97.8223534 L316.435326,94.841029 L314.714765,93.6939379 L312.190418,94.7263627 L312.305551,97.4783544 L311.043377,98.6254455 L309.322816,94.6112685 L310.469857,90.138854 L313.337887,84.749109 L311.272786,80.8495983 L311.38749,75.1158543 L310.240021,66.3999302 L307.945939,63.418178 L309.896336,56.1933439 L313.452164,52.63826 C313.452164,52.63826 312.764367,49.5418415 312.764367,48.8538435 C312.764367,48.1658456 312.649235,43.8080975 312.649235,43.8080975 L311.502622,38.1885919 C311.502622,38.1885919 309.781632,36.2388366 309.896336,35.7801713 C310.010613,35.321506 312.305551,34.2895091 312.305551,34.2895091 L309.322816,30.8490916 L309.207684,20.2980784 L310.125745,18.2340846 L312.419827,16.1696629 L312.993775,13.8763365 L311.731602,9.51816051 L313.911408,7.11016773 C313.911408,7.11016773 312.993775,5.16041238 313.223183,4.58708077 C313.452164,4.01374916 313.337887,0 313.337887,0 L250.127796,0.687570077 L240.950184,1.94932749 L236.591,4.2430818 L233.034745,4.47241445 C233.034745,4.47241445 230.396122,7.56840516 229.937306,7.56840516 L226.839867,7.56840516 L219.727357,11.2385832 L216.056398,15.0229997 L215.024061,17.4314204 L209.632112,21.1011705 L204.928816,24.3122554 C204.928816,24.3122554 194.030214,36.0095039 194.030214,36.5828356 C194.030214,37.1561672 195.865908,39.6792541 195.865908,39.6792541 L193.91551,41.5143432 L186.918132,47.0191824 L180.608123,52.4089274 L176.478347,53.9000174 L173.495612,57.340435 L170.283469,58.7164309 L166.03899,61.8128494 L170.627582,65.1386007 L174.069133,63.3035116 L174.757785,65.0239343 L177.625816,64.565269 L177.281276,67.6616876 L173.610316,68.6936845 L176.134235,71.5603426 C176.134235,71.5603426 181.640887,67.6616876 181.640887,68.119925 C181.640887,68.5790182 181.296775,70.9874388 180.837959,71.3314378 C180.378714,71.6754368 177.855224,72.478101 177.855224,72.478101 L177.510684,75.4598533 L173.380908,79.5882688 L173.036796,75.8038523 L170.627582,76.8358492 L168.447776,79.1296035 L172.463275,83.6024458 C172.463275,83.6024458 173.036796,88.7628582 173.495612,88.7628582 C173.954857,88.7628582 174.184265,94.4966022 174.184265,94.4966022 L174.184265,98.9694445 L172.004459,100.574773 L169.365837,102.639195 L165.121357,100.34544 C165.121357,100.34544 162.712143,99.5427761 162.138622,100.460107 C161.564674,101.377437 159.614704,104.703188 159.614704,104.703188 C159.614704,104.703188 156.517265,105.276948 155.943745,105.735613 C155.370224,106.194279 152.502194,109.634696 152.502194,109.634696 L150.6665,112.043117 L149.404755,113.992444 C149.404755,113.992444 145.8485,114.221777 145.389684,114.566204 C144.930867,114.909775 139.883031,116.400865 139.883031,116.400865 C139.883031,116.400865 139.080102,115.598201 139.080102,116.974196 C139.080102,118.350192 138.506582,119.382617 137.473817,119.267951 C136.44148,119.153284 134.606214,117.662194 134.606214,117.662194 L130.820123,117.203529 L127.723112,116.286198 C127.723112,116.286198 124.396265,116.056866 123.822745,116.515531 C123.248796,116.974196 119.004316,117.088863 116.82451,117.088863 C114.644705,117.088863 112.924143,117.777289 112.350622,118.006621 C111.777102,118.235526 108.794367,119.497283 108.220847,119.841282 C107.647326,120.185281 104.320051,118.809285 104.320051,118.809285 C104.320051,118.809285 103.287715,116.974196 102.141101,116.286198 C100.993632,115.598201 98.5844184,114.221777 97.6663576,113.763112 C96.7491527,113.304446 95.2575714,112.731115 95.2575714,112.731115 L83.7858773,110.896453 L60.9567652,110.781359 L53.1556024,112.731115 L49.1405308,114.909775 L44.2078265,114.795108 C44.2078265,114.795108 38.2423572,117.318195 37.7835408,117.432862 C37.3247244,117.547528 34.6861021,118.121288 34.6861021,118.121288 L35.3743267,124.428363 L34.2272857,129.130538 L36.0629793,132.11229 L40.4217352,130.850961 L43.7490101,133.258954 L41.5692042,136.470038 C41.5692042,136.470038 40.4217352,138.075367 40.9956837,138.993125 C41.5692042,139.910456 42.8309493,141.745545 42.8309493,141.745545 L43.7490101,145.300201 L45.1254593,148.167287 L44.6666429,150.919707 L40.9956837,152.984128 L34.6861021,156.768545 L34.3419898,159.176965 L31.2445511,162.158718 L31.129847,165.025804 L28.1471123,165.369375 L22.5261834,169.383124 L18.1665716,172.020877 L16.5602861,174.429298 L11.3981736,177.755477 L5.31800024,182.112797 L2.10585741,184.636312 L0.5,185.094549 Z" id="Fill-1" fill="#FFFFFF"></path>
            <path d="M36.5210896,132.132605 L36.5,134.262008 L36.813911,136.142211 C36.813911,136.142211 37.8590645,137.841339 38.0261593,137.886608 C38.1936596,137.931877 39.5523185,138 39.5523185,138 C39.5523185,138 41.7265783,135.122999 41.7054887,135.032461 C41.6843991,134.941923 42.5,132.857349 42.5,132.857349 L40.1168717,131 L37.9008382,131.566083 L36.5210896,132.132605 Z" id="Fill-3" fill="#FFFFFF"></path>
            <polygon id="Fill-5" fill="#FFFFFF" points="283.5 279 283.5 283.585063 280.459718 288 279.5 286.471499 281.819975 282.141406"></polygon>
            <g id="Group-9" transform="translate(269.500000, 290.000000)">
                <mask id="mask-2" fill="white">
                    <use xlink:href="#path-1"></use>
                </mask>
                <g id="Clip-8"></g>
                <polygon id="Fill-7" fill="#FFFFFF" mask="url(#mask-2)" points="3.099 0.175043478 7.12233333 0.0072173913 8.97358333 0.511130435 9.939 2.61069565 7.20316667 5.88547826 3.42066667 7.9846087 1.409 10.0002609 0.201916667 9.412 0.604416667 5.38156522 2.61608333 4.96156522 2.6965 2.35852174"></polygon>
            </g>
            <g id="Group-12" transform="translate(279.500000, 254.000000)">
                <mask id="mask-4" fill="white">
                    <use xlink:href="#path-3"></use>
                </mask>
                <g id="Clip-11"></g>
                <path d="M6.90871928,26.6593653 L4.50186386,29.1599337 L4.17012088,31.5776389 L1.51402851,33.7445968 L1.43109277,35.2451968 L0.186197189,35.5783758 L0.767177108,37.7453337 L2.51011687,38.4121232 L2.67598835,39.6624074 L5.24914498,39.9955863 L8.48578755,39.1626389 L8.40285181,36.6620705 L10.892643,36.32846 L11.9712373,37.9956495 L8.40285181,40.0793126 L5.99599639,40.9126916 C5.99599639,40.9126916 8.48578755,40.9126916 8.81753052,40.7461021 C9.14970321,40.5795126 15.2912454,38.5787126 15.2912454,38.5787126 L19.3581048,38.4121232 L22.0971329,38.4958495 L22.0971329,37.7453337 L17.946908,37.6620389 L19.5239763,36.4950495 L24.7523659,36.2451653 L26.7445426,36.6620705 L30.4792293,34.9111547 L33.7163016,34.4946811 L36.1227273,35.1614705 L39.5256711,35.1614705 L39.1934984,36.4950495 L33.6329361,36.5783442 L31.3923819,38.2455337 L28.0723739,38.6624389 L24.0055145,39.5795442 L23.2586631,38.2455337 L28.1553096,37.32886 L32.9694502,35.9115547 L34.0480446,33.9111863 C34.0480446,33.9111863 35.2095747,32.9107863 35.6246831,32.9107863 C36.0397916,32.9107863 39.0276269,32.2439968 39.0276269,32.2439968 L41.1856751,31.2435968 L43.4262293,32.4943126 L45.2521048,30.5768074 L49.0697273,29.9100179 L52.0575627,28.4931442 L53.8005024,29.4931126 L56.3732293,28.0762389 L59.5273659,28.3261232 L60.7722614,26.9925442 L59.4444301,25.6593968 C59.4444301,25.6593968 61.1873699,26.5760705 62.017157,26.6593653 C62.8469442,26.74266 65.3371651,25.1587653 65.3371651,25.1587653 L66.1665225,25.9092811 L63.5937956,26.74266 L64.4240124,27.1595653 L70.1504462,24.5757021 L72.6402373,22.9085126 C72.6402373,22.9085126 75.6280727,21.3250495 75.5451369,21.8248179 C75.4622012,22.3250179 74.3002414,23.4920074 74.3002414,23.4920074 L77.7856912,21.8248179 L79.9437394,21.2413232 L80.856892,20.6578284 L84.0935345,18.5741653 L84.0105988,19.9910389 L87.4135426,18.3242811 L89.9033337,16.3234811 L95.7127032,13.9899337 L98.7005386,12.6559232 L104.676209,10.57226 L107.000129,7.90467053 L105.838169,7.15458632 L104.344037,6.57109158 L101.107394,8.90507053 C101.107394,8.90507053 98.6176028,10.4056705 98.2858598,10.3219442 C97.9536871,10.2386495 95.132153,12.0724284 95.132153,12.0724284 C95.132153,12.0724284 93.8868277,12.4060389 93.7209562,11.9054074 C93.5550847,11.4056389 92.4760606,8.90507053 92.4760606,8.90507053 L90.152141,10.0716284 L87.4135426,9.90547053 C87.4135426,9.90547053 85.2554944,10.57226 85.2554944,11.07246 C85.2554944,11.5722284 85.1725586,13.4060074 85.1725586,13.4060074 L81.8525506,12.9891021 L79.9437394,15.4901021 C79.9437394,15.4901021 78.3671008,16.9907021 78.2007996,17.4071758 C78.0353578,17.8236495 75.9598157,19.6574284 75.9598157,19.6574284 C75.9598157,19.6574284 73.3870888,17.6574916 73.0553458,17.7403547 C72.7231731,17.8236495 70.0679402,17.7403547 70.0679402,17.7403547 L71.312406,15.9065758 L74.2173056,15.3230811 L74.7153498,13.2394179 L77.3710124,12.9891021 C77.3710124,12.9891021 78.4496068,10.1553547 79.196888,10.3219442 C79.9437394,10.4885337 81.4378719,10.3219442 81.4378719,10.3219442 L81.2720004,7.15458632 L84.8403859,6.57109158 L85.5043016,9.07166 L82.1847233,8.23828105 L81.8525506,5.73728105 C81.8525506,5.73728105 85.91941,4.73731263 86.2515827,4.57072316 C86.5833257,4.40413368 90.4013779,1.98686 90.4013779,1.98686 L92.3931249,0.153081053 L88.8243096,0.903165263 L85.8364743,2.48662842 L82.1847233,2.65364947 L79.7778679,5.98802842 C79.7778679,5.98802842 76.6237313,7.65478632 76.4582896,8.07169158 C76.2919884,8.48816526 73.8851329,10.4885337 73.8851329,10.4885337 L70.9806631,13.2394179 C70.9806631,13.2394179 66.7479321,13.0728284 66.4157594,13.2394179 C66.0835867,13.4060074 64.9220566,14.4897021 64.9220566,14.4897021 L50.2316871,14.3231126 L47.741896,14.5729968 L46.4144944,15.8237126 L44.8374261,14.9899021 L43.1774221,17.4904705 L41.9325265,19.6574284 L38.4470767,18.2405547 L35.9568558,16.7403863 C35.9568558,16.7403863 33.3836992,17.9906705 32.8860847,17.6574916 C32.3880406,17.3238811 30.893908,15.5729653 30.893908,15.5729653 L29.9811851,18.4075758 L27.491394,16.2401863 L25.9976912,17.8236495 L25.499647,19.6574284 L22.6776831,18.4904389 L20.6859361,19.5741337 L18.6941892,21.7415232 L19.3581048,25.0754705 L17.0337554,21.0747337 L15.7892896,21.4079126 L14.544394,22.3250179 L15.8722253,23.3249863 L16.536141,25.9925758 L14.0463498,23.4920074 L12.7185185,24.4086811 L13.9634141,26.74266 L10.892643,25.1587653 L9.23263896,27.1595653 L7.73893614,26.4094811 L6.90871928,26.6593653 Z" id="Fill-10" fill="#FFFFFF" mask="url(#mask-4)"></path>
            </g>
            <path d="M372.785156,258 L372.636725,259.391743 C372.636725,259.391743 371.452632,259.583579 371.50147,259.82384 C371.551266,260.064101 371.945805,261.359926 371.945805,261.359926 L373.525394,261.407885 L374.216314,262.223654 L374.11768,264 L375.5,262.607791 L375.204096,259.775881 L373.476077,258 L372.785156,258 Z" id="Fill-13" fill="#FFFFFF"></path>
            <polygon id="Fill-15" fill="#FFFFFF" points="380.40393 248.040897 378.78821 248.44593 377.172926 249.21628 376.5 250.87849 378.698545 250.22965 379.59607 251 380.134498 250.797483 380.089665 249.41919 382.557642 249.41919 383.5 248.121903 381.615284 248"></polygon>
            <path d="M167.497265,65.0006875 L165.28869,65.0006875 L164.5,66.2122297 L164.657901,66.9386327 C164.657901,66.9386327 166.519258,67.1005198 166.519258,66.8984221 C166.519258,66.6968465 167.560099,64.9604768 167.497265,65.0006875" id="Fill-17" fill="#FFFFFF"></path>
            <path d="M171.933452,66.3622645 L169.76727,67.1955197 L169.5,68.6450464 L169.567249,71 L171.766624,70.7830162 C171.766624,70.7830162 172.333495,69.1886775 172.366688,68.8985847 C172.399881,68.6084919 173.5,67.3042459 173.5,67.3042459 L173.5,66 L171.933452,66.3622645 Z" id="Fill-19" fill="#FFFFFF"></path>
            <polygon id="Fill-21" fill="#FFFFFF" points="164.5 74.0292943 163.029287 74 162.048439 75.0587788 161.5 75.9414115 163.029287 76 164.5 74.7646947"></polygon>
            <path d="M169.167146,74 L168.03363,75.1428747 L166.5,75.9428501 L167.433458,77 C167.433458,77 168.83386,76.1142998 168.83386,75.8571253 C168.83386,75.5999507 169.5,74.4286242 169.5,74.4286242 L169.167146,74 Z" id="Fill-23" fill="#FFFFFF"></path>
            <polygon id="Fill-25" fill="#FFFFFF" points="191.32425 41.8592945 189.464437 43.7933631 183.81569 48.5535419 181.990944 49 181.5 47.400447 182.832976 45.2809737 184.517451 45.6526577 187.53449 42.9752211 189.570052 40.0738995 191.289183 40 191.5 41.8221261"></polygon>
            <polygon id="Fill-27" fill="#FFFFFF" points="180.08628 49 178.807992 49.9489837 178.056135 49.4746911 176.288985 49.9828617 175.91372 51.2032682 175.5 51.6102033 177.078412 53 178.356701 51.7118374 180.010697 50.0848944 180.5 49.5424472"></polygon>
        </g>
        <g id="Group-5-Copy-2" transform="translate(174.000000, 127.000000)">
            <path d="M19.5007728,0 C30.2704791,0 39,8.72986684 39,19.5 C39,30.2701332 30.2704791,39 19.5007728,39 C8.73106646,39 0,30.2701332 0,19.5 C0,8.72986684 8.73106646,0 19.5007728,0 Z" id="Stroke-1" stroke="#E75F52"></path>
            <path d="M19.5,13 C23.0899976,13 26,15.910354 26,19.5007853 C26,23.089646 23.0899976,26 19.5,26 C15.9100024,26 13,23.089646 13,19.5007853 C13,15.910354 15.9100024,13 19.5,13" id="Fill-3" fill="#E75F52"></path>
        </g>
    </g>
</svg>