<?xml version="1.0" encoding="UTF-8"?>
<svg width="400px" height="252px" viewBox="0 0 400 252" version="1.1" xmlns="http://www.w3.org/2000/svg" xmlns:xlink="http://www.w3.org/1999/xlink">
    <!-- Generator: Sketch 64 (93537) - https://sketch.com -->
    <title>59</title>
    <desc>Created with Sketch.</desc>
    <defs>
        <polygon id="path-1" points="0.0003 0 400 0 400 250.6898 0.0003 250.6898"></polygon>
    </defs>
    <g id="59" stroke="none" stroke-width="1" fill="none" fill-rule="evenodd">
        <g id="Group-3" transform="translate(0.000000, 1.000000)">
            <mask id="mask-2" fill="white">
                <use xlink:href="#path-1"></use>
            </mask>
            <g id="Clip-2"></g>
            <path d="M24.4953,157.2738 L25.2743,158.6538 L25.8063,159.5038 L25.1683,159.6098 L24.6013,159.0788 C24.6013,159.0788 24.2833,158.4418 24.2833,158.2648 L24.2833,157.3088 L24.4953,157.2738 Z M25.1333,153.4858 L25.9113,154.5128 L26.2663,154.9378 L26.9383,155.1858 L27.1853,154.5478 L26.7613,153.7698 L25.5933,152.8838 L25.1333,152.9548 L25.1333,153.4858 Z M16.0703,144.8138 L16.6013,144.5298 L18.1593,145.4508 L19.5053,145.9818 L19.1153,146.2648 L17.1333,146.1588 L16.4253,145.4508 L16.0703,144.8138 Z M15.2223,144.8138 L15.7873,145.4858 L15.7173,146.0528 L14.3013,146.0168 L14.0533,145.4858 L13.7693,144.8488 L15.2223,144.8138 Z M194.0893,245.6638 L193.8413,242.5478 L192.6383,239.3978 L192.3903,236.3178 L193.0623,232.7078 L194.5143,229.6988 L196.0363,227.3268 L197.4173,225.7698 L197.7003,225.8758 L195.6113,228.7778 L193.6993,231.6458 L192.8143,234.5478 L192.6733,236.8138 L193.0623,239.5038 L194.1953,242.6548 L194.4073,244.9198 L194.4783,245.5568 L194.0893,245.6638 Z M30.6903,2.6188 L31.5753,2.5478 L31.7883,3.1498 L32.4603,2.4408 L33.4863,2.4408 L33.8413,3.1138 L33.1683,3.8578 L33.4513,4.2118 L33.1333,5.0958 L32.5313,5.2738 C32.5313,5.2738 32.1413,5.3088 32.1413,5.1668 C32.1413,5.0248 32.7783,4.0338 32.7783,4.0338 L32.0353,3.7868 L31.8933,4.4238 L31.5753,4.7068 L30.9023,3.7158 L30.6903,2.6188 Z M286.3023,47.2198 L286.5853,48.3178 L288.0013,48.3888 L288.5673,47.8578 C288.5673,47.8578 288.5323,47.2198 288.3913,47.1498 C288.2493,47.0788 287.6823,46.3358 287.6823,46.3358 L286.7263,46.4408 L286.0183,46.5118 L285.8773,47.0078 L286.3023,47.2198 Z M248.5633,33.1498 L249.3643,32.2498 L250.3153,31.8988 L252.6683,30.1968 L253.6693,29.9458 L253.8693,30.1468 L251.6173,32.3998 L250.1653,33.2508 L249.2643,33.6508 L248.5633,33.1498 Z M353.0993,112.9548 L353.5943,114.0518 L353.6653,114.8308 L354.1603,115.6458 C354.1603,115.6458 354.5503,115.2558 354.5503,115.1138 C354.5503,114.9728 354.2313,113.7688 354.2313,113.7688 L353.9133,112.7428 L353.0993,112.9548 Z M391.9313,41.6978 L392.7093,42.5118 C392.7093,42.5118 393.2753,42.5478 393.2753,42.4058 C393.2753,42.2648 393.3823,41.5208 393.3823,41.5208 L393.7713,41.1678 L393.4173,40.3888 L392.5323,40.7068 L391.9313,41.6978 Z M388.9923,44.2818 L389.6653,43.6098 L390.2663,44.0698 L390.5153,45.1318 L389.7713,45.5218 L388.9923,44.2818 Z M383.8783,73.6998 L384.8793,72.5478 L385.5803,72.5478 L386.3813,73.1988 L385.3293,73.6498 L384.3783,74.0998 L383.8783,73.6998 Z M387.9823,73.3488 L388.9333,73.0488 L389.1343,72.2978 L389.5853,72.3478 L390.0353,73.3488 L389.4843,73.5488 L387.7823,73.5998 L387.9823,73.3488 Z M359.9663,142.3708 L361.0993,141.2738 L362.4793,140.1408 L363.1513,139.8578 L363.2233,138.9728 L362.9393,136.2828 L362.3023,135.2558 L362.0183,134.4418 L362.3383,134.3358 L363.5413,136.7428 L363.7183,138.6898 L363.6473,140.1758 L362.1603,140.8488 L360.9223,141.9108 L360.4263,142.4418 L359.9663,142.3708 Z M336.0723,248.1058 L336.6023,248.5658 L337.8073,247.6458 L340.1423,245.8048 L341.7703,244.1058 L342.8683,241.2028 L343.2933,240.4598 L343.3643,238.9728 L343.0453,239.1858 L342.6203,240.4248 L341.9833,242.4418 L340.5673,244.7428 L338.6563,246.5838 L337.1693,247.4338 L336.0723,248.1058 Z M330.1603,250.3008 L331.2233,250.0178 L331.7893,249.9108 L332.4263,248.8848 L333.4523,248.1768 L334.0183,248.3888 L334.7623,248.5308 L334.9393,248.9908 L333.4173,249.5218 L331.5763,250.1588 L330.5503,250.6898 L330.1603,250.3008 Z M346.4833,113.7318 L346.5723,113.4428 L348.4603,113.4158 L349.8053,113.8408 L350.7253,113.9828 L351.1503,113.0618 L350.5133,112.1418 L350.5133,111.3628 L349.4513,110.4418 L348.5313,108.0358 L349.0983,105.6988 L349.0263,104.7788 L348.4603,104.2118 C348.4603,104.2118 349.0983,103.5038 349.0983,103.2208 C349.0983,102.9378 349.3093,102.3008 349.3093,102.3008 L350.1593,101.7338 L351.0093,101.0258 L351.2213,101.4508 L350.5843,102.1588 L350.0173,103.7878 L350.1593,104.2828 L350.9373,104.4248 L351.1503,106.8318 L350.2293,107.2568 L350.3713,108.8148 L350.5843,108.7438 L351.0793,107.8938 L351.7873,108.6728 L351.0793,109.2388 L350.9373,110.7258 L352.0703,112.2118 L353.7693,112.4248 L354.4773,112.0708 L355.8953,113.9028 L356.4903,114.1378 L356.7963,114.2728 L356.8583,115.1258 L356.5223,116.4818 L355.8273,118.3138 L355.6333,120.6998 L356.2763,122.7328 L357.2243,121.8938 L358.0243,119.7128 L357.8223,118.2288 L358.0063,116.2208 L359.2843,114.5658 L359.6223,113.1558 L359.4043,112.9128 L360.2833,111.1498 L360.3833,109.0208 L360.2833,108.7078 L359.2923,105.4868 L358.8673,105.6988 L357.3093,104.6368 L356.5313,102.5838 L355.6823,101.0258 L354.6903,100.6018 L353.7693,99.0448 L353.9883,98.1238 L354.2123,98.3448 L354.6903,99.3278 L356.1063,100.6018 L358.2293,101.5928 L360.0003,101.8758 L360.0703,102.5128 L359.7173,102.9378 L359.8583,104.1418 L360.2123,104.1418 L361.1333,103.0798 L361.4863,100.9558 L362.6903,99.1858 L364.0353,96.3538 L364.5313,93.9468 L364.2483,93.4508 L364.1773,89.3448 L363.4693,87.8578 L362.9743,88.2118 L361.7693,88.3538 L361.5573,88.1418 L362.0533,87.7168 L362.9743,86.8668 L363.0013,86.3878 L363.2373,86.3508 L363.7523,86.5838 L365.5213,86.0878 L368.0703,85.2388 L369.2033,84.8148 L372.3183,82.4778 L374.0173,81.2038 L375.5043,79.6458 L373.6633,78.9378 L373.0973,79.5748 L371.8233,80.7788 L368.3533,82.4778 L367.3623,82.4068 L366.6543,82.1238 L366.1593,82.4068 L365.1683,83.5398 L364.5313,84.1068 L363.9653,84.2478 L363.8233,83.6818 L364.6733,82.9028 L364.3233,82.1678 L364.7673,82.2688 L366.9373,80.7788 L368.4953,79.3628 L369.3453,78.4418 L369.6993,78.7258 L370.9023,78.0878 L373.1683,77.5928 L376.2533,76.0638 L376.6373,75.9648 L377.9113,75.5398 L378.9743,74.6908 L379.4693,73.9118 L380.0353,73.9828 L381.3093,73.3098 L381.5373,73.1458 L382.4423,72.7078 L382.2293,71.7168 L382.5843,71.0798 L383.8583,70.4418 L384.2123,71.7878 L384.0003,72.5658 L382.9373,73.2038 L382.9373,73.6288 L383.7873,72.9908 L385.4863,71.0088 L387.1853,70.1588 L389.0263,69.5218 L388.8853,68.4608 L388.4603,67.1858 L387.6103,66.1238 L386.8323,65.7698 L385.9113,65.8408 L385.6993,66.0528 L386.1243,66.6198 L386.7613,66.2658 L387.6823,66.9738 L388.0353,68.1768 L387.2573,68.9558 L386.2663,69.3798 L384.7083,69.1678 L383.0093,66.5488 L382.0173,65.4158 L381.2383,65.4158 L380.7433,65.7698 L379.8933,64.6368 L380.0353,63.9998 L381.0973,61.7338 L379.8323,59.8018 L379.5843,59.5868 L379.9653,59.1148 L380.4413,57.6738 L380.6053,57.1838 L381.0973,54.4418 L381.1683,52.5308 L381.8053,51.9648 L381.3803,50.5488 L382.7253,48.9908 L383.4333,49.6288 L384.0003,49.4158 L386.3363,48.0708 L386.4773,46.7958 L387.7523,46.5838 L388.4603,45.4508 L388.3903,44.7438 L388.2483,43.3988 L388.6013,42.8318 L388.4603,42.3368 L387.8933,41.6988 L388.8143,41.1328 L389.5933,42.5488 L390.2293,42.4068 L390.3713,42.9738 L390.3713,43.6818 L391.2213,43.7528 L391.4333,42.5488 L391.6453,42.2658 L390.9373,41.6288 L391.3623,40.9908 L392.4253,40.3538 L392.8493,39.7168 L393.6283,39.6458 C393.6283,39.6458 393.7693,40.5658 394.0533,40.5658 L394.6193,40.5658 L396.7433,38.1588 L398.2293,36.8148 L399.0793,36.5308 L400.0003,34.4778 L400.0003,33.6288 L399.0093,31.9998 L398.1593,31.0798 L396.9563,31.1498 L397.1683,31.6458 L397.0973,31.8578 L396.7433,31.8578 L395.4693,30.8668 L395.3983,28.7438 L395.0443,27.8938 L392.4253,27.8938 L388.4603,14.7958 L387.6103,14.3718 L384.9913,13.3098 L384.3533,13.2388 L383.5753,14.0178 L381.8053,15.2918 L381.8053,15.7168 L381.4513,16.0708 L380.2483,15.7878 L379.6823,14.7958 L379.6823,14.3008 L379.1153,14.2298 L378.5493,14.2298 L377.6283,16.0708 L376.3533,19.9648 L375.5753,22.0878 L375.6453,24.2118 L375.7173,24.8498 L375.3623,26.0528 L375.0093,26.4778 L375.0093,29.0968 L375.8583,30.1588 L375.2213,31.9288 L374.0883,33.9828 L373.7343,36.3898 L373.7343,37.5218 L373.0713,37.3428 L372.4493,37.3948 L372.0743,37.5948 L371.6823,37.5928 L371.3983,38.3008 L371.1153,38.0878 L370.6903,37.6638 L370.0533,38.5128 L370.0313,40.7168 L369.6293,40.8488 L358.1343,43.8038 L357.8613,43.9778 L354.5493,44.8848 L352.5663,45.5218 L351.1503,45.4508 L348.7433,46.0178 L347.3933,46.5638 L346.3363,47.3628 L345.4163,48.4248 L344.2123,50.0528 L342.9373,52.0358 L342.3013,53.3098 L342.0173,53.6638 L339.4693,56.0708 L339.5403,57.2038 L339.8933,57.6988 L340.6733,58.0528 L341.4513,58.0528 L341.4513,58.6908 L340.9563,59.6108 L341.0983,60.2478 L341.7343,61.1678 L341.6633,62.1588 L340.8143,62.6548 L339.8933,62.6548 L339.1853,63.5038 L338.4073,64.9198 L337.4863,65.6988 L335.2213,65.9118 L334.0883,66.4068 L333.1683,66.9738 L332.4603,66.9028 L331.6103,66.3368 L328.8493,66.4068 L327.4333,66.6198 L325.6633,67.1858 L323.7523,67.8228 L322.4773,68.6018 L323.3273,71.2918 L324.1063,71.3628 L324.6733,72.7078 L324.7433,73.1328 L324.2483,73.5578 L323.3273,74.7608 L323.1153,75.4688 L322.2663,76.2478 L321.4863,76.7438 L321.0613,77.4508 L320.4953,77.9468 L319.8703,78.4398 L319.4303,78.6668 L317.0263,81.1328 L316.4603,81.3448 L314.6203,82.6628 L314.1733,82.6138 L311.5043,84.3898 L309.8053,85.3798 L308.3183,87.0088 L306.5493,88.7078 L305.1333,89.0618 L303.8583,89.2748 L301.4513,90.4068 L300.5313,90.4778 L299.0443,89.1328 L296.7783,89.4158 L295.6453,88.7788 L294.6033,88.1868 L294.0993,88.0448 L294.1593,87.7878 L294.2293,87.1498 L295.1503,85.5218 L296.0263,84.7608 L295.9293,82.5488 L296.6283,81.8488 L297.1063,81.6988 L297.2033,80.1418 L297.8763,78.8148 L298.3363,79.0798 L298.4073,79.3628 L298.7613,79.4338 L299.6103,79.0088 L299.4693,74.8318 L298.0533,71.2208 L297.0613,67.2568 L296.0003,65.8408 L294.8673,65.0618 L294.1593,65.5578 L292.4603,66.3368 L291.6103,68.5308 L290.4073,70.1588 L289.9113,70.4418 L289.2743,70.1588 C289.2743,70.1588 288.1413,69.5218 288.2123,69.2388 C288.2833,68.9558 288.4253,67.0448 288.4253,67.0448 L289.9113,66.4778 L290.2663,64.9908 L290.5493,63.8578 L291.6103,63.1498 L291.4693,58.7608 L290.7613,57.7698 L290.1943,57.4158 L289.8413,56.4958 L290.1943,56.1418 L290.9023,56.2828 L290.9743,55.5748 L289.9113,54.5838 L289.3453,53.4508 L288.2123,53.4508 L286.2293,52.8148 L283.8233,51.3278 L282.6193,51.3278 L282.3363,51.6108 L281.9113,51.3988 L280.5663,50.4068 L279.2923,51.1858 L278.0173,52.1768 L278.1593,53.7338 L278.5843,53.8758 L279.5043,54.0878 L279.7173,54.4418 L278.5843,54.7958 L277.4513,54.9378 L276.8143,55.7168 L276.6733,56.6368 L276.8143,57.3448 L276.9563,59.7528 L275.3983,60.6728 L275.1153,60.6018 L275.1153,58.7608 L275.6823,57.6988 L275.9653,56.6368 L275.6103,56.2828 L274.7613,56.6368 L274.3363,58.4778 L273.1333,58.9738 L272.3533,59.8228 L272.2833,60.2478 L272.5663,60.6018 L272.2833,61.7338 L271.2923,61.9468 L271.2923,62.4418 L271.6453,63.5038 L271.1503,66.1948 L270.4423,67.9648 L270.7253,70.0178 L270.9373,70.5128 L270.5843,71.5748 L270.4423,71.9288 L270.3013,73.1328 L271.8583,75.7528 L273.1333,78.5838 L273.7693,80.7078 L273.4163,82.7608 L272.9913,85.3798 L271.9293,87.6458 L271.7873,88.8498 L270.3603,90.2008 L269.9113,90.5478 L268.6733,91.2568 L267.7523,92.1068 L267.2573,92.2478 L266.6193,91.8228 L265.2743,91.4338 L264.8973,91.5188 L264.7783,91.1148 L264.4253,89.9828 L263.8583,88.3538 L263.1503,87.5748 L262.5133,86.4418 L262.4113,84.0388 L262.2803,83.5658 L262.4423,82.2658 L261.7343,80.2828 L261.4513,77.5928 L260.9563,76.5308 L261.3803,75.1858 L261.7343,73.9118 L262.3713,72.7788 L262.0883,71.2918 L261.8053,69.7338 L262.0173,68.9558 L262.8673,67.8938 L262.9373,66.6908 L262.5843,66.1238 L262.8673,64.9908 L263.0793,63.5748 L264.2833,61.0968 L265.5573,58.1238 L265.6283,57.1328 L265.4863,56.7078 L265.1333,56.9198 L263.2923,59.6818 L262.0883,61.4508 L261.2383,62.2298 L260.8853,63.2208 L260.2483,63.5748 L259.7523,64.4248 L259.1153,64.2828 L259.0443,63.5038 L259.6103,62.4418 L260.5313,60.3898 L261.3093,59.6818 L261.7923,58.6778 L262.0403,58.2868 L263.4333,55.2208 L263.8583,53.4508 L264.7083,51.5398 L265.0613,51.4688 L265.5573,52.1768 L265.8413,52.1768 L267.8233,51.1148 L268.4603,51.8228 L268.6733,51.8938 L269.2383,51.3988 L269.7343,50.0528 L270.7963,49.6988 L273.8413,49.4158 L274.6903,48.2828 L276.9563,48.2118 L279.5043,48.7788 L280.2833,48.7788 L281.6993,48.1418 L282.6903,48.2118 L283.6103,47.9288 L285.2393,48.1418 L285.5933,48.2828 L286.1593,48.1418 L285.5933,47.7168 L285.0263,47.4338 L283.6103,46.0878 L283.6103,43.0448 L282.9743,42.8318 L282.4773,43.3278 L279.7873,44.0358 L278.9373,44.2478 L277.6633,43.8938 L277.4513,43.7528 L277.4513,41.2748 L276.8143,41.2038 L275.6823,41.7698 L273.6993,42.6198 L270.7963,42.7608 L269.3093,43.2568 L267.5403,44.8148 L266.8323,45.2388 L266.3363,45.2388 L265.7693,45.5928 L265.0613,45.3798 L264.3533,44.8148 L263.7173,45.2388 L262.0173,45.3098 L260.8143,44.1068 L260.1773,42.7608 L259.5403,42.2658 L258.1243,41.8408 L257.1333,41.8408 L256.5663,41.2748 L255.0093,42.5488 L254.5843,43.0448 L254.2293,42.8318 L254.3713,41.6988 L255.4333,40.2828 L255.6453,39.2208 L256.6373,38.8668 L257.2743,37.5218 L258.9023,37.0968 L259.0443,36.6728 L258.5493,36.1768 L256.4953,36.3898 L254.5843,37.4508 L253.5933,38.4418 L253.0263,39.2208 L252.2483,39.5748 L251.3983,40.8498 L251.3273,41.4158 L249.4163,42.3368 L248.3533,43.1858 L245.7343,43.6108 L245.4513,43.8938 L245.4513,44.3188 L243.8933,45.3098 L242.6903,45.6638 L242.3763,45.9178 L241.9313,46.1028 L241.6993,46.6548 L241.2033,46.5838 L240.9203,46.0878 L239.7173,45.7338 L239.2213,45.8048 L238.4423,46.2298 L238.0173,45.9468 L238.3013,45.0968 L239.1503,43.7528 L239.6453,43.2568 L238.7963,42.6198 L237.8763,42.9738 L236.6013,43.8228 L233.3453,45.2388 L232.0703,45.5218 L230.7963,45.3098 L230.3663,44.9248 L230.1763,44.6828 L231.8583,43.3988 L232.4253,43.3278 L234.4073,41.1328 L235.1853,40.7788 L236.1773,39.0798 L237.2383,37.5218 L238.5843,36.3898 L240.6753,35.5108 L244.7243,33.7318 L246.4493,32.9278 L246.7173,31.9288 L244.7723,32.0918 L244.4603,32.5658 L244.1773,32.5658 L243.3983,31.2208 L239.5043,31.3628 L239.0793,31.7168 L238.6543,31.7168 L238.4423,31.1498 L238.0883,30.3718 L236.9563,30.5838 L235.5403,31.9998 L234.8323,32.3538 L233.4863,32.3538 L232.3533,31.9288 L232.3533,31.0088 L231.7873,30.9378 L231.5753,31.1498 L230.4423,30.5838 L230.2293,29.3098 L229.5933,29.5218 L229.3803,29.9468 L228.3183,29.7338 L225.9823,28.6728 L224.2833,27.5398 L223.0093,27.5398 L222.4423,27.1148 L221.4513,27.3988 L220.9563,27.8938 L220.8143,28.4608 L218.6903,28.4608 L218.6903,27.5398 L215.9293,27.3988 L215.7873,26.7608 L213.6633,26.7608 L212.9563,26.0528 L212.3183,23.3628 L211.9653,20.9558 L211.1153,20.6018 L210.1243,20.3898 L209.8413,20.4608 L209.6993,24.0708 L196.5033,24.0548 L196.0223,24.0348 L183.5753,23.7878 L175.4333,23.5038 L163.8233,22.9378 L152.8983,22.1128 L152.3363,21.9018 L138.9023,20.6728 L126.0883,19.1148 L113.2743,17.3448 L99.1153,15.0088 L91.0443,13.5218 L76.7133,10.4858 L76.2223,10.4158 L70.5303,9.3088 L70.2153,9.1328 L63.5753,7.6458 L53.5213,5.1678 L44.7433,2.6908 L40.9913,1.8408 L36.7433,0.6368 L34.8323,-0.0002 L34.3363,0.3538 L34.1943,0.7078 L35.2573,2.8318 L35.7523,3.9648 L34.9743,5.5218 L34.9743,6.5128 L35.2573,7.1498 L34.9023,7.9288 L35.1153,9.3448 L35.5403,9.9118 L35.4693,10.4778 L34.8323,10.5488 L34.5493,9.6988 L34.0533,8.6368 L33.2743,7.9998 L33.4163,7.0798 L34.4073,6.8668 L34.2663,6.0878 L34.1243,5.5928 L33.2033,6.1588 L32.6373,6.6548 L32.6373,7.7168 L31.6453,7.7878 L30.1593,7.3628 L28.8853,6.7258 L27.5403,6.4418 L25.5573,5.5218 L24.1413,4.6728 L22.9373,3.5398 L21.8763,2.2658 L20.9563,2.0528 L19.9653,6.1588 L20.7433,7.5748 L20.7433,11.0448 L20.4603,12.3188 L21.0983,15.4338 L22.3013,16.6368 L20.3903,16.9198 L20.3183,18.5488 L21.4513,19.0448 L20.7433,20.8148 L19.5403,20.9558 L19.3983,22.2298 L20.3903,23.5038 L19.4693,24.6368 L18.4773,27.4688 L17.0613,31.8578 L15.6453,34.6908 L13.4513,40.8498 L10.6193,46.7958 L7.0793,52.3188 L6.2293,53.5928 L5.8763,57.3448 L5.3093,59.9648 L6.4953,61.5088 L6.2853,61.9308 L5.5933,63.9998 L5.5213,67.2568 L3.2573,72.4248 L1.9113,73.5578 L1.7693,74.0528 L0.9913,74.4068 L0.3533,76.2478 L0.0003,77.6638 L1.2033,79.5038 L1.9113,81.3448 L2.4073,82.9028 L2.2663,85.7338 L1.4863,87.0798 L1.2033,89.6288 L0.7783,91.2568 L1.5583,92.9558 L2.7613,94.9378 L3.7523,97.0618 L4.3183,98.8318 L4.1773,100.2478 L4.0353,100.4608 L4.0353,101.3798 L6.5133,104.1418 L6.3013,105.2038 L6.0173,106.1948 L5.7343,107.0448 L5.8053,110.6548 L6.7253,112.2828 L7.5753,113.4158 L8.7783,113.6288 L9.2033,114.8318 L8.7083,116.3898 L7.7873,117.0968 L7.2923,117.0968 L6.9373,118.7958 L7.1503,120.0708 L8.5663,121.9828 L9.2743,124.3188 L9.9113,126.3718 L10.4773,127.7168 L11.9653,130.2658 L12.6013,131.3988 L12.8143,132.6728 L13.5213,133.0968 L13.5213,134.1588 L13.1683,135.0088 L12.3903,138.1238 L12.1773,138.9738 L13.2393,140.1768 L15.0793,140.3898 L17.0613,141.1678 L18.7613,142.0878 L20.0353,142.0878 L21.3093,143.4338 L22.4423,145.5578 L22.9373,146.5488 L24.6373,147.4688 L26.7613,147.8228 L27.3983,148.7438 L27.6823,150.1588 L27.0443,150.4418 L27.1853,150.8668 L28.6013,151.2208 L29.8053,151.2918 L31.0793,153.3448 L32.7783,155.1858 L33.1333,156.1768 L34.2663,158.0178 L34.4073,159.4338 L34.4073,163.5398 L34.6193,164.3188 L39.0093,164.9558 L47.6453,166.1588 L53.7363,166.5868 L54.1773,166.9128 L53.0263,167.8578 L52.8853,168.4958 L53.0983,168.9198 L61.3803,173.5928 L66.6903,176.9198 L73.1333,180.6728 L80.4953,185.0618 L85.8763,186.1238 L96.8803,187.3088 L97.5833,187.6598 L104.3533,188.5308 L104.9203,184.1418 L112.2123,185.2738 L117.6673,185.9828 L118.0883,185.9818 L118.9373,186.1948 L120.0703,187.4688 L120.7083,189.3798 L122.7613,190.3718 L123.3273,191.7878 L126.4423,195.2568 L127.0093,195.9648 L129.2033,196.8848 L129.6993,197.8048 L130.4073,198.2298 L130.6193,199.4338 L132.0353,202.2658 L132.0353,205.8048 L133.0263,207.8578 L136.2833,211.2568 L138.5493,212.1768 L139.3273,213.0258 L139.3273,213.3098 L141.0263,214.3008 L141.8763,214.5838 L142.6543,215.0798 L143.7873,215.5038 L144.8493,214.4418 L146.7613,211.7528 L147.1853,210.1238 L148.1773,208.7078 L149.7343,208.0708 L151.7173,207.2918 L153.0613,208.2828 L156.3183,208.5658 L159.2923,209.0618 L160.4253,209.9818 L160.4253,210.4778 L161.5573,211.8228 L164.1773,214.1588 L164.2483,214.7958 L165.0263,215.6458 L165.3803,217.4868 L167.7173,222.8668 L167.6453,223.7168 L169.4863,224.8498 L171.0443,227.7528 L172.5313,229.6638 L173.9463,230.2298 L174.6543,231.2208 L174.0883,233.1328 L174.3713,233.5578 L174.9373,233.8408 L174.7963,235.3278 L174.5133,235.6108 L174.7963,236.6018 L176.2123,237.4508 L176.7783,240.2828 L177.6993,241.9818 L181.0263,243.4688 L183.2923,243.9648 L185.1333,245.3098 L186.5493,245.5928 L187.1153,245.3798 L189.5213,245.8758 L192.0003,247.5748 L193.3453,246.7258 L193.7693,246.0878 L192.9913,244.8848 L192.5663,242.1948 L191.7873,239.1498 L191.4333,238.0878 L191.7873,236.1068 L192.2833,234.4068 L192.8493,232.4248 L193.4863,230.0178 L192.4953,229.1678 L192.9203,228.3188 L194.6903,228.1768 L196.3903,225.7698 L197.8763,225.4868 L200.4253,223.9288 L201.2033,223.2918 L203.9653,221.8048 L206.4423,220.7438 L208.7783,219.3278 L209.9823,218.4068 L212.4603,216.0708 L213.0263,215.7168 L213.9463,215.0798 L215.0793,214.2298 L215.5043,213.3798 L219.8233,211.3988 L222.3043,210.7038 L222.5853,210.6478 L224.6373,209.9818 L228.1773,209.8408 L232.7083,211.3988 L235.5403,211.8938 L237.1683,211.2568 L238.5843,211.7528 L240.0003,212.1768 L240.3533,211.2568 L238.9373,210.7608 L237.8053,210.9738 L236.6013,210.2658 C236.6013,210.2658 236.6733,209.6988 236.9563,209.6278 C237.2383,209.5578 238.3013,209.2038 238.3013,209.2038 L239.0793,209.8408 L239.8583,209.4158 L241.2743,209.6988 L241.9113,210.7608 L242.0533,211.7528 L244.0353,211.8938 L244.8143,212.6728 L244.4603,213.3798 L243.8933,213.7338 L244.6013,214.4418 L248.2833,215.9998 L249.8413,215.4338 L250.2663,214.3718 L251.3983,214.0878 L252.1773,213.4508 L252.7433,213.8758 L253.0983,215.1498 L252.1063,215.5038 L252.3903,215.7878 L253.8763,215.2208 L254.8673,213.7338 L255.2213,213.5218 L254.3013,213.3798 L254.6543,212.6728 L254.5843,212.0358 L255.5043,211.8228 L256.0003,211.2568 L256.2833,211.6108 C256.2833,211.6108 256.2123,212.9558 256.5663,212.9558 C256.9203,212.9558 258.4073,213.2388 258.4073,213.2388 L260.1773,214.0878 L260.6013,214.7258 L261.8763,214.7258 L262.3713,215.1498 L263.3623,213.8048 L263.3623,213.1678 L262.7963,213.1678 L261.3093,211.9648 L258.7613,211.6108 L257.3453,210.6198 L257.8413,209.4158 L258.8323,209.5578 L258.9023,209.2738 L258.1243,208.8498 L258.1243,208.6368 L259.5403,208.6368 L260.3183,207.2918 L259.7523,206.4418 L259.6103,205.2388 L258.9743,205.3098 L258.1243,206.2298 L257.8413,207.3628 L256.4953,207.0798 L256.0703,206.3008 L256.8493,205.4508 L257.7343,204.6728 L258.0653,204.4468 L258.5493,204.1068 L259.6823,202.2658 L260.4603,202.6198 L263.4333,201.7698 L264.3533,201.9118 L264.9913,202.2658 L267.2573,202.2658 L267.3683,201.7148 L267.8233,201.6278 L269.0263,201.6278 L269.3093,201.6988 L269.8763,200.4958 L270.5133,198.5838 L271.5043,198.8668 L272.8493,201.4868 L272.8493,201.9118 L271.6453,202.7608 L272.8493,202.9028 L275.2763,201.7758 L275.5733,201.8258 L277.0973,201.5578 L279.7173,200.6368 L282.3363,200.4248 L284.2483,200.1418 L287.5753,200.9198 L291.1153,202.6198 L291.8233,203.2568 L293.0973,203.7528 L293.8053,204.6018 L293.9463,205.8048 L295.3623,205.2388 L297.0613,205.2388 L298.6193,204.3898 L300.2483,202.8318 L301.5933,202.9028 L301.8053,202.4068 L301.4513,201.9818 L301.5213,201.1328 L303.2923,200.7788 L304.4253,200.7788 L305.6993,201.4158 L307.5403,202.0528 L308.6013,203.6818 L309.8053,204.1068 L310.3013,205.5928 L311.7873,206.3008 L312.4953,207.4338 L313.3453,207.7168 L315.6103,208.2828 L316.1773,209.6278 L317.5213,211.2568 L317.5213,215.4338 L316.8853,217.4868 L317.0263,218.6908 L317.5933,220.8148 L318.3713,222.5838 L318.7253,222.3718 L319.3623,220.3898 L318.2293,219.9648 L318.0883,219.6818 L318.7963,219.3988 L320.7783,219.8228 L320.8493,220.5308 L319.4333,222.9378 L318.5133,223.9998 L320.0703,225.6278 L321.2033,226.9738 L322.4773,229.3098 L323.7523,231.0088 L324.6733,233.2038 L325.4513,233.3448 L326.1593,232.4248 L326.9373,232.9198 L328.0703,234.6908 L328.3533,236.2478 L329.6993,238.1588 L330.0533,237.5928 L331.7523,237.7338 L333.3093,238.7258 L334.7963,240.9908 L335.1503,242.4778 L335.2923,243.7528 L335.7873,244.1768 L336.3533,244.3898 L337.4163,243.9648 L338.0533,243.2568 L339.7523,243.1858 L341.0983,242.5488 L342.3013,241.1328 L342.0883,240.2828 L341.9463,239.2208 L342.2293,238.3718 L342.0883,237.5218 L343.1503,236.9558 L343.2923,235.4688 L343.0093,234.6908 L342.7963,229.4508 L342.2293,226.1238 L340.2483,222.5128 L338.6903,219.9648 L337.5573,217.6278 L336.2833,216.3538 L335.0093,213.0968 L335.3623,212.5308 L335.8583,211.9648 L335.1503,210.6908 L333.3803,209.0618 L331.2573,206.6548 L329.6283,203.8938 L327.2923,199.7878 L325.6583,195.5208 L324.6663,192.3158 L324.6583,191.9268 L324.3183,189.1678 L325.3093,184.7788 L325.9463,182.9378 L325.7343,181.8048 L327.1943,179.0708 L326.9713,178.4788 L327.2213,178.0528 L328.1413,177.4868 L330.3363,175.0798 L329.9113,173.6638 L331.1853,173.5928 L332.7433,172.1068 L333.4513,171.7528 L334.4423,170.2658 L335.6453,169.0618 L336.5663,167.5038 L337.6283,167.2208 L338.1243,166.0178 L338.8323,165.6638 L339.0443,162.9028 L340.1773,160.2118 L342.5513,157.8218 L342.6743,157.4698 L345.0613,156.8848 L347.1153,156.6728 L347.3273,155.6108 L348.1773,152.7788 L349.6633,150.7258 L352.4953,148.3898 L354.7613,147.3278 L355.9653,147.0448 L356.4603,147.2568 L357.0263,147.2568 L358.3713,145.1328 L359.2213,143.5748 L358.6543,143.7878 L357.6633,144.7788 L357.3803,144.0708 L355.5403,144.0708 L356.3903,141.3098 L356.0353,140.7438 L355.1853,140.7438 L355.1853,140.3188 L355.0443,139.7528 L355.7523,140.3188 L356.3903,140.3898 L357.4513,140.5308 L359.0793,139.8228 L359.6453,138.5488 L359.9293,137.6278 L361.0613,137.0618 L361.2033,135.2208 L360.8493,134.9378 L361.9113,134.8668 L361.6283,133.8758 L360.5663,132.8148 L359.0093,129.9818 L358.2603,127.9248 L357.8563,127.5198 L356.2773,124.8868 L353.7363,125.6248 L353.0483,124.9708 L354.1663,124.3658 L353.9503,123.2598 L353.1743,122.4788 L353.1213,121.8598 L352.1223,121.1848 L352.0833,120.4768 L353.2633,120.5188 L353.3593,119.9118 L352.8213,119.5658 L353.0313,118.7208 L352.4293,118.2378 L352.6223,116.1838 L352.2413,115.6588 L350.8453,115.4828 L349.9013,114.5678 L347.7753,114.1548 L346.4833,113.7318 Z" id="Fill-1" fill="#FFFFFF" mask="url(#mask-2)"></path>
        </g>
        <g id="Group-5-Copy-2" transform="translate(151.000000, 107.000000)">
            <path d="M19.5007728,0 C30.2704791,0 39,8.72986684 39,19.5 C39,30.2701332 30.2704791,39 19.5007728,39 C8.73106646,39 0,30.2701332 0,19.5 C0,8.72986684 8.73106646,0 19.5007728,0 Z" id="Stroke-1" stroke="#E75F52"></path>
            <path d="M19.5,13 C23.0899976,13 26,15.910354 26,19.5007853 C26,23.089646 23.0899976,26 19.5,26 C15.9100024,26 13,23.089646 13,19.5007853 C13,15.910354 15.9100024,13 19.5,13" id="Fill-3" fill="#E75F52"></path>
        </g>
    </g>
</svg>