<?xml version="1.0" encoding="utf-8"?>
<!-- Generator: Adobe Illustrator 24.1.2, SVG Export Plug-In . SVG Version: 6.00 Build 0)  -->
<!DOCTYPE svg PUBLIC "-//W3C//DTD SVG 1.1//EN" "http://www.w3.org/Graphics/SVG/1.1/DTD/svg11.dtd" [
	<!ENTITY ns_extend "http://ns.adobe.com/Extensibility/1.0/">
	<!ENTITY ns_ai "http://ns.adobe.com/AdobeIllustrator/10.0/">
	<!ENTITY ns_graphs "http://ns.adobe.com/Graphs/1.0/">
	<!ENTITY ns_vars "http://ns.adobe.com/Variables/1.0/">
	<!ENTITY ns_imrep "http://ns.adobe.com/ImageReplacement/1.0/">
	<!ENTITY ns_sfw "http://ns.adobe.com/SaveForWeb/1.0/">
	<!ENTITY ns_custom "http://ns.adobe.com/GenericCustomNamespace/1.0/">
	<!ENTITY ns_adobe_xpath "http://ns.adobe.com/XPath/1.0/">
]>
<svg version="1.1" id="Livello_1" xmlns:x="&ns_extend;" xmlns:i="&ns_ai;" xmlns:graph="&ns_graphs;"
	 xmlns="http://www.w3.org/2000/svg" xmlns:xlink="http://www.w3.org/1999/xlink" x="0px" y="0px" viewBox="0 0 160 300"
	 style="enable-background:new 0 0 160 300;" xml:space="preserve">
<style type="text/css">
	.st0{fill:#FFFFFF;stroke:#E75F52;stroke-linecap:round;stroke-linejoin:round;stroke-miterlimit:10;}
</style>
<metadata>
	<sfw  xmlns="&ns_sfw;">
		<slices></slices>
		<sliceSourceBounds  bottomLeftOrigin="true" height="301" width="160" x="0" y="-1"></sliceSourceBounds>
	</sfw>
</metadata>
<desc>Created with Sketch.</desc>
<g>
	<polygon class="st0" points="89.3,62.6 90.2,62.6 90.4,62.5 90.5,62.4 90.7,62.1 90.9,61.7 90.9,61.5 91.2,61.2 91.3,61.2 
		91.4,61.3 91.5,61.1 90.1,61.1 90.1,60.1 88.8,60.1 87.7,61 87.6,60.9 88,60.6 88,60.7 88.5,60.1 88.8,59.7 89.1,59.8 89.1,59.8 
		88.8,59.7 89.2,58.8 89.6,59 89.6,59 89.2,58.8 89.2,58.7 89.1,58.6 89.1,58.6 88.9,58.5 88.9,58.5 88.6,58.4 88.7,58.3 88.6,58.2 
		88.6,58.1 88.5,57.5 88.3,57.6 88.3,57.5 87.5,57.5 87.3,57.5 87.3,57.6 87,57.6 87,57.5 85.4,57.5 85.1,57.5 85,57.6 84.3,57.6 
		84.1,57.7 80.8,61.3 80.6,61.2 80.6,61.3 80.3,61.9 79.8,62.2 79.8,62.2 79.5,62.4 79.5,62.5 79.5,62.5 79.6,62.6 80,62.9 
		80.2,63.2 79.9,63.4 80,63.5 79.9,63.7 79.6,64.1 80.3,64.9 80.6,64.8 80.7,65.6 80.9,65.7 81.1,65.8 81.1,65.8 81,65.8 81,66 
		81.2,66.2 81.3,66.2 81.5,66.2 81.5,66.3 81.3,66.3 81.3,66.4 81.4,66.4 81.5,67.7 81.4,67.9 81.3,68 81.2,68.2 81.3,68.4 
		81.3,68.5 81.8,69.2 81.7,69.3 82.1,69.6 81.9,69.8 81.9,69.9 81.9,70 82,70 82.2,70 82.3,70.1 82.4,70 82.6,69.9 82.8,69.7 
		82.9,69.6 83.4,69.8 83,70.5 83.8,71 83.9,70.9 84,70.9 83.9,71 84,71 84.1,70.9 83.9,70.8 84,70.7 84.2,70.9 84.2,71 84.9,71.4 
		84.8,71.5 85.1,71.7 85.6,71.9 86,72.2 86.4,71.6 86.6,72.5 89.1,70.9 89,70.5 89,70.3 89,70.2 89,70 89.1,69.8 89.4,69.7 
		89.7,69.6 89.7,69.8 89.7,69.8 89.7,69.9 89.8,69.9 89.9,70 90,70.1 90.2,70.1 90.3,70 90.5,69.8 90.6,69.7 90.5,69.4 90.4,69.2 
		90.3,69.2 90.1,69.1 90,69.1 90,69 89.9,68.9 90.1,68.9 90.1,68.8 90.1,68.7 90,68.6 89.9,68.5 89.9,68.2 90.5,68.3 90.5,67.9 
		90,67.8 90,67.6 90.2,67.3 90.4,66.9 90.6,66.9 90.6,65.8 90.5,65.6 90.2,65.7 90.1,65.1 90.2,65.1 90.2,64.8 90.1,64.8 90.1,64.4 
		90.2,64.3 90.2,64.3 90,64.3 90,64.3 90,64.1 90,64.1 89.8,63.8 89.7,63.6 89.6,63.5 89.2,63.3 89,63.2 88.8,62.8 88.8,62.7 
		88.7,62.4 89.2,62.7 	"/>
	<polygon class="st0" points="71.6,33.6 71.6,33.7 71.5,33.8 71.5,33.9 71.4,34 71,33.9 70.9,34 70.9,34 70.9,34.9 70.9,35.1 
		70.5,35.2 70.5,35.2 70.6,35.2 70.6,35.3 70.8,35.4 70.9,35.4 71,35.4 71.1,35.5 71.2,35.5 71.3,35.5 71.4,35.5 71.4,35.5 
		71.5,35.5 71.5,35.5 71.5,35.5 71.5,35.6 71.6,35.6 71.7,35.6 71.8,35.7 71.9,35.7 72,35.7 72.5,35.3 72.2,35.3 72.3,35.3 
		72.4,35.3 72.4,35.3 72.4,35.3 72.5,35.3 72.5,35.2 72.6,35.2 72.6,35.2 72.8,35.1 73.1,34.9 73.1,34.9 73,34.9 73,34.9 72,35 
		72.2,34.7 73.2,34.5 73,34.3 73.1,34.2 73.4,34.4 73.5,34.4 73.4,34.3 73.4,34.3 73.3,34.2 73.3,34.1 73.2,34 73.2,33.9 73.2,33.8 
		73.3,33.6 73.3,33.6 73.3,33.5 73.4,33.4 73.4,33.4 73.4,33.4 73.5,33.4 73.5,33.4 72.8,33 72.1,32.5 71.8,33 71.8,33 71.7,33.1 
		71.7,33.1 71.8,33.2 71.8,33.2 71.8,33.2 71.7,33.4 	"/>
	<polygon class="st0" points="41.2,32.3 45.4,30.5 46.1,31.3 46.2,31.5 46.3,31.7 46.4,31.8 46.5,31.8 46.5,31.7 46.3,31.4 
		46.2,31.2 46.1,31 45.6,30.5 45.9,30.3 46.1,30.3 46.2,30.2 46.2,30.1 46.3,29.9 46.2,29.8 46.1,29.7 45.9,29.6 45.8,29.5 
		45.6,29.4 45.5,29.3 45.4,29.2 45.3,29.1 45.2,29.1 45.2,29.1 45.2,29 45.2,29 45.2,28.9 45.2,28.9 45.1,28.8 45.1,28.7 45,28.6 
		45,28.5 45,28.5 45,28.3 45,28.2 45,28.1 45,28 45,27.8 45,27.7 45,27.6 44.8,27.5 44.4,27.6 44,27.7 43.8,27.8 43.7,27.8 
		43.6,27.9 43.1,28 42.7,28.1 42.6,28.2 42.4,28.2 42,28.3 41.6,28.4 41.2,28.5 40.8,28.6 40.7,28.7 40.6,28.7 40.5,28.9 40.5,32.5 
			"/>
	<polygon class="st0" points="46.4,32.7 46.4,32.7 46.3,32.7 46.2,32.7 46.1,32.7 46,32.8 45.9,32.8 45.8,32.8 45.8,32.8 45.8,32.7 
		45.8,32.4 45.8,32.3 45.8,32.1 45.7,31.8 45.6,31.5 45.5,31.5 45.6,31.8 45.6,32.7 45.6,33 45.7,33.9 45.6,34.7 45.6,35.4 
		45.7,35.7 45.8,35.7 45.9,36.2 46,36.4 46.1,36.5 46.2,36.5 46.1,36.4 46,36.2 46,36.1 45.9,35.9 45.9,35.7 45.9,35.5 48.2,35.5 
		50.5,35.6 49.4,33.1 49.4,32.9 49.4,32.8 49.3,32.6 49.3,32.5 49.1,32.5 49,32.6 48.9,32.6 48.8,32.7 48.7,32.7 48.5,32.7 
		48.4,32.7 48.3,32.7 48.2,32.8 48,32.8 48,32.9 47.9,32.9 47.9,32.9 47.9,32.9 47.8,32.9 47.8,32.9 47.8,32.9 47.7,32.8 47.7,32.8 
		47.7,32.7 47.6,32.7 47.6,32.6 47.5,32.6 47.5,32.6 47.4,32.6 47.4,32.6 47.3,32.6 47.2,32.7 47.1,32.7 47.1,32.7 47,32.7 47,32.6 
		46.9,32.6 46.8,32.5 46.7,32.5 46.6,32.6 46.5,32.7 46.5,32.7 	"/>
	<polygon class="st0" points="75.2,60.3 75.4,60.2 75.5,60.2 75.5,60.2 75.5,60.2 75.5,60.2 75.6,60.2 75.8,60.1 76,60.5 76.2,60.5 
		76.5,60.6 76.6,60.8 77.3,60.5 77.5,60.7 77.7,61 77.9,61.2 78.1,61.4 78.2,61.5 78.3,61.5 78.5,61.3 78.5,61.2 78,60.8 78,60.8 
		78.1,60.7 78.2,60.6 78.2,60.5 78.1,60.4 78.1,60.4 78,60.3 77.9,60.3 77.8,60.3 77.7,60.2 77.4,59.9 76.9,58.3 76.8,57.7 
		76.7,57.4 76.6,57.2 76.6,57.1 76.4,56.5 76.3,56.1 76.3,55.8 76.3,55.5 76.3,55.2 76.4,54.9 76.5,54.6 76.5,54.5 76.3,54.5 
		76.3,54.5 76.2,54.7 76,54.6 75.9,54.6 75.9,54.6 75.9,54.7 75.8,54.9 75.8,55.3 75.8,55.7 75.9,56 75.9,56.4 76,57 76.1,57.3 
		76.1,57.5 76.2,57.8 76.3,58.1 76.5,58.4 76.2,58.5 75.8,58.2 76,58.1 75.9,58 75.7,58 75.6,57.9 75.6,57.6 75.5,57.4 75.3,57.5 
		75.1,57.2 75.1,57.2 75.1,57.1 75,57.1 74.9,56.7 74.7,56.4 74.9,56.1 75,56.1 75,56.1 75,56.2 75,56.2 75,56.2 75.1,56.2 
		75.1,56.2 75.1,56.2 75.1,56.1 75.1,56.1 75.1,56.1 75,56 75.1,55.8 75,55.7 75,55.6 75.3,55.5 75.3,55.5 75.3,55.5 75.4,55.4 
		75.4,55.4 75.4,55.4 75.4,55.4 75.4,55.3 75.4,55.3 75.3,55.3 75.3,55.4 75,55.5 74.9,55.5 74.9,55.5 74.8,55.5 74.7,55.5 
		74.6,55.5 74.6,55.5 74.5,55.5 74.5,55.5 74.4,55.5 74.4,55.5 74.3,55.6 74.3,55.6 74.3,55.6 74.4,56 74.4,56.1 74.3,56.1 
		74.2,56.2 74.1,56.2 74.1,56.2 74,56.2 74,56.2 73.9,56.1 73.9,56.1 73.9,56.1 73.8,56.1 73.8,56.1 73.8,56.1 73.7,56.2 73.7,56.2 
		73.7,56.3 73.7,56.3 73.7,56.3 73.7,56.4 73.8,56.4 73.8,56.4 73.9,56.4 73.9,56.4 74,56.4 74,56.4 74,56.3 74.2,56.3 74.2,56.4 
		74.3,56.4 74.3,56.4 74.3,56.4 74.4,56.5 74.4,56.5 74.7,56.5 74.8,56.7 74.8,56.8 75,57.2 74.8,57.3 74.7,57.3 74.7,57.4 
		74.6,57.3 74.5,57.3 74.5,57.2 74.6,57.2 74.6,57.1 74.5,57 74.3,56.7 74.1,56.7 74.1,56.8 73.8,57 73.8,57.1 73.8,57.1 73.5,57.3 
		73.5,57.3 73.2,57.5 73.3,57.6 73.3,57.7 73.2,57.7 73.2,57.8 73,58.2 73,58.3 73,58.3 73,58.4 73,58.4 72.9,58.6 72.9,58.6 
		73,58.6 73,58.7 73,58.9 73,59.2 72.9,59.2 72.9,59.2 72.9,59.2 72.8,59.2 72.8,59.2 72.8,59.2 72.7,59.2 72.7,59.2 72.6,59.1 
		72.6,59.1 72.5,59.1 72.5,59.2 72.6,59.3 72.6,59.4 72.7,59.5 72.9,59.7 72.8,60.1 72.7,60.3 72.6,60.3 72.6,60.5 72.6,60.5 
		72.6,60.6 72.6,60.7 72.7,60.8 72.5,61 73.3,61.4 73.7,61.3 73.8,61.2 73.7,61.1 73.7,61 74,60.9 74.2,60.9 74.3,60.8 74.6,60.6 
		74.6,60.8 74.9,60.7 74.7,60.4 75,60.3 74.9,60.2 75.1,60.2 	"/>
	<polygon class="st0" points="86.5,77.3 86.5,77.3 86.5,77.3 86.5,77.4 86.5,77.4 86.5,77.5 86.5,77.6 86.5,77.7 86.5,77.6 
		86.5,77.4 	"/>
	<polygon class="st0" points="87.4,35.6 87.5,35.6 87.6,35.5 87.6,35.5 87.6,35.4 87.4,35.5 	"/>
	<polygon class="st0" points="100.7,11 100.5,11.1 100.4,11.2 100.1,11.4 100,11.6 100,11.7 99.8,11.9 99.7,12 99.6,12.4 99.6,12.5 
		99.5,12.7 99.5,12.8 99.5,12.8 99.5,12.8 99.5,12.8 99.6,12.7 99.6,12.7 99.6,12.6 99.6,12.5 99.7,12.4 99.8,12.1 99.8,12 
		99.9,11.8 100.1,11.6 100.1,11.5 100.3,11.4 100.4,11.3 100.5,11.2 100.8,11 101,10.9 101.4,10.7 101.7,10.6 101.9,10.6 
		102.1,10.6 102.6,10.6 102.9,10.6 103,10.6 103.2,10.6 103.4,10.7 103.7,10.8 104,11 104.2,11.1 104.4,11.2 104.5,11.4 104.6,11.5 
		104.8,11.6 105.1,11.7 105.4,12 105.9,12.2 106.6,12.5 107,12.8 107.1,12.9 107.5,13.3 107.6,13.8 107.9,14.7 108.2,15.4 108.4,16 
		108.4,16.1 108.4,16.2 108.4,16.3 108.3,16.6 108.2,16.8 108,17.1 107.8,17.3 107.7,17.5 107.6,17.7 107.5,17.8 107.3,18.3 
		106.9,18.9 106.6,19.5 106.6,19.5 106.6,19.5 106.6,19.5 106.6,19.5 106.6,19.5 106.9,19 107.2,18.6 107.4,18.2 107.6,17.8 
		107.9,17.3 108.3,16.7 108.4,16.6 108.5,16.3 108.5,16.2 108.5,16.1 108.5,16 108.2,15.2 108,14.7 107.8,14.2 107.6,13.5 
		107.5,13.2 107.4,13.1 107.1,12.7 106.8,12.6 106.5,12.4 106.1,12.2 105.6,11.9 105.1,11.6 104.6,11.4 104.5,11.3 104.4,11.2 
		104.2,11.1 104,10.9 103.8,10.8 103.6,10.7 103.4,10.6 103.2,10.6 103,10.5 102.9,10.5 102.7,10.5 102.3,10.5 101.9,10.5 
		101.7,10.6 101.5,10.6 101.1,10.7 101,10.8 	"/>
	<polygon class="st0" points="106.6,17.4 106.6,17.4 106.7,17.5 106.7,17.5 106.7,17.5 106.7,17.5 106.7,17.4 106.8,17.5 
		106.8,17.5 106.9,17.5 106.9,17.5 107,17.5 107,17.4 107.1,17.4 107.2,17.2 107.3,17 107.3,17 107.3,17 107.5,16.6 107.5,16.5 
		107.4,16.3 107.3,16 107.3,15.8 107.2,15.7 107.2,15.6 107.2,15.6 107.1,15.5 107.1,15.5 107.1,15.5 107,15.5 106.9,15.5 
		106.9,15.5 106.9,15.5 106.9,15.5 106.8,15.6 106.8,15.6 106.8,15.6 106.7,15.6 106.7,15.7 106.7,15.7 106.6,15.7 106.6,15.8 
		106.7,15.9 106.7,15.9 106.7,16.1 106.8,16.2 106.8,16.3 106.8,16.4 106.8,16.5 106.8,16.6 106.7,16.8 106.6,17 106.6,17 
		106.5,17.1 106.5,17.2 106.5,17.3 	"/>
	<polygon class="st0" points="103.5,14.5 103.5,14.5 103.9,14.8 104,14.9 104,14.9 104,14.9 104.1,14.9 104.1,14.9 104.2,14.9 
		104.2,14.9 104.6,14.5 104.6,14.5 104.7,14.5 104.7,14.5 104.8,14.5 104.9,14.5 104.9,14.5 105.4,14.7 105.5,14.8 105.5,14.8 
		105.6,14.9 105.6,15.1 105.7,15.2 105.7,15.4 105.7,15.4 105.8,15.4 105.8,15.5 105.9,15.5 105.9,15.5 106,15.5 106.1,15.5 
		106.1,15.5 106.1,15.5 106.2,15.5 106.2,15.5 106.2,15.5 106.2,15.4 106.4,15.4 106.4,15.4 106.4,15.4 106.5,15.3 106.5,15.2 
		106.5,15.2 106.5,15.2 106.4,14.9 106.3,14.6 106.2,14.4 106.1,14.3 106,14.2 105.8,14.1 105.6,14 105.5,13.9 105.5,13.9 
		105.3,13.9 105.2,13.8 105.1,13.7 105,13.7 104.8,13.6 104.7,13.6 104.6,13.6 104.5,13.5 104.5,13.5 104.4,13.5 104.4,13.5 
		104.4,13.5 104.2,13.7 104.1,13.6 104.1,13.6 104.1,13.7 104.1,13.7 104.1,13.7 103.9,14 103.8,14 103.6,14.2 103.6,14.2 
		103.5,14.3 103.5,14.3 103.5,14.3 103.5,14.4 	"/>
	<polygon class="st0" points="102.6,12.4 102.6,12.5 102.7,12.5 102.8,12.5 102.9,12.6 103,12.6 103,12.6 103.1,12.7 103.1,12.7 
		103.2,12.6 103.2,12.6 103.3,12.6 103.3,12.6 103.4,12.5 103.4,12.5 103.4,12.5 103.5,12.5 103.5,12.5 103.5,12.5 103.5,12.5 
		103.5,12.5 103.4,12.4 103.5,12.4 103.5,12.3 103.5,12.3 103.5,12.2 103.5,12.2 103.4,12.1 103.4,12.1 103.3,12 103.2,11.9 
		103,11.8 102.8,11.7 102.6,11.6 102.5,11.6 102.4,11.6 102.3,11.5 102.3,11.5 102.2,11.5 102.1,11.5 101.9,11.5 101.8,11.5 
		101.7,11.5 101.7,11.6 101.6,11.6 101.6,11.7 101.6,11.7 101.5,11.8 101.5,11.8 101.6,11.9 101.5,11.9 101.5,11.9 101.5,11.9 
		101.5,11.9 101.5,12 101.5,12 101.6,12 101.6,12 101.6,12.1 101.6,12.1 101.6,12.2 101.7,12.2 101.7,12.4 101.7,12.4 101.7,12.5 
		101.7,12.6 101.7,12.7 101.7,12.9 101.7,13 101.7,13.1 101.7,13.1 101.8,13.2 101.9,13.3 102,13.3 102.1,13.4 102.3,13.5 
		102.4,13.5 102.5,13.5 102.6,13.5 102.7,13.4 102.7,13.4 102.8,13.4 102.8,13.3 102.8,13.3 102.8,13.2 102.8,13.2 102.8,13.1 
		102.8,13 102.7,13 102.7,12.9 102.6,12.9 102.5,12.9 102.4,12.9 102.4,12.8 102.3,12.8 102.3,12.7 102.3,12.6 102.3,12.6 
		102.3,12.5 102.4,12.5 102.4,12.5 102.5,12.5 102.5,12.5 102.5,12.5 102.5,12.5 102.5,12.4 102.5,12.4 	"/>
	<path class="st0" d="M114.4,43.2l-0.4-0.5l0.3-0.4l1.1,0l2.4,0l-0.5-1.2h-1.6l0,1l-1.2,0l-0.1,0l-0.1,0l-0.3,0.4l-0.8-0.3l-1.5-0.1
		l0-0.1l0,0l-0.1,0l0,0.1H111l-0.8,0l-0.4-0.1l-2.5,0l-1.8,0l-1.9,0l0-0.2l-0.5,0l0,0l0-0.5l0-0.1l0.5,0l0-0.2l-0.1,0l0-1.2l-1.3,0
		l-1.5,0v-0.9l0.8,0l0,0v-0.6l0,0l-0.8,0l0-0.8l0-0.7l0-0.7l0,0l0,0l0.1,0l0,0l0.1,0.1l0,0l0-0.1l0-0.1l-0.1-0.1l0.2,0l0,0l0.3,0
		l0.1-0.9l0-0.2l0,0l0,0l0,0l0,0l-0.1,0l-0.1,0l0,0l0,0l0,0l0,0l0,0l0,0l0-0.1l0.1-0.1l0,0l0,0l-0.1-0.1l-0.1-0.1l-0.1-0.1l0,0l0,0
		l0,0l0,0l-0.1,0l-0.1,0l-0.1,0l0-0.1l0-0.4l0.4,0.1l0,0.1l0.1,0l0,0.2l0.1,0l0-0.3l-0.6-0.1l0.1-0.8l0.2-1.5l0.2,0l4.2,0.3l0-0.8
		l0.1-2.1l-3-0.1l-0.1,1.9l0,0.7l-0.7,0l-0.4,0l-0.2,0l-0.1,0l-0.1,0l0,0l0-0.1l0-0.2l0.1-0.9l0.2-1.1l0.2-1.2l0.1-0.6l0.1-0.6
		l0-0.1l0,0l0.1,0l0,0v0l0,0l0,0l0-0.1l0-0.1l0-0.1l0.8,0l0-0.4h0l0,0.3l0,0l-0.1,0h-0.1h-0.1l-0.1,0l-0.1,0l0,0l-0.1,0l0-0.6l0.4,0
		l0,0l0.1,0l0,0l0,0l0,0l-0.8,0l0-0.1l0-0.2l1.6-0.3l-0.2,1l0,0l0,0l0,0l0.1,0l0.1,0l0.1,0l0.2-0.3l0.1,0l0.1,0l0.1,0l0.1,0.1
		l-0.4,0.3l-0.4,0.2l-0.1,0l-0.1,0.1l0,0.1l0,0.1l0,0.2l0.1,0.1l0,0l0.1,0l0.2,0l0.2,0l0.2,0l0.2-0.1l0.4-0.2l0.4-0.2l0.3-0.1l0.2,0
		l0.2,0l0.4,0l0.3,0l0.4-0.1l0.4-0.1l0.6-0.2l0.2-0.1l0.1,0l0.1-0.1l0.2-0.3l0.1-0.2l0-0.2v-0.2l0-0.2l-0.1-0.3l-0.1,0l-0.1,0l0,0
		l0,0l0,0l0,0l0-0.1l0-0.1l-0.3-0.4l-0.3-0.4l-0.6-0.6l-0.4-0.3l-0.3-0.1l-0.3-0.1l-0.6-0.2h-0.1l-0.1,0l-0.1,0l-0.1,0l0,0l0,0
		l0,0.1l0,0.1l0,0.1l0,0.2l0,0.2l0,0.2l0,0.2l0,0.2l-0.1,0.2h0l-0.1,0.3l-0.1,0.1l-0.1,0.1l-0.4,0.3l-0.2,0.2l-0.1,0.1l-0.1,0.1
		l-0.1,0.1l0,0.1l0,0.1l-0.1,0l-1.6,0.3l-0.1-0.2l-0.1-0.2l-0.1-0.2l-0.1-0.2l-0.1-0.2l-0.1-0.2l-0.1-0.2l0-0.1l0-0.1l0-0.1l0-0.1
		l0-0.1l0-0.1l0,0l0,0l0,0l0,0l0,0l0,0l0,0l0,0l0,0l0-0.1l0,0l0.1-0.1l0.1-0.1l0.1-0.1l0.1-0.1l0.1-0.1l0.1-0.1l0.1,0l0,0l0,0l0.1,0
		l0.2,0l0.1,0.1l0,0.7l0,0l0,0l0,0l0,0l1.9,0l0,0l0,0l0,0l0,0l0-0.5l0-0.8l0,0l0,0.1l-0.2,0l-0.2,0l-0.4,0l-0.3,0l-0.2,0h0l0,0l0,0
		l0,0l0,0l0,0l-0.1,0l0,0l0,0l-0.1,0l-0.1,0l-0.1,0l-0.1,0l-0.2,0l0.6-1.4l0.1,0l0,0l0,0l0,0l0,0l0,0l0-0.1l0,0l0,0l0,0l0.1,0l0.1,0
		l0.1,0h0l0,0l0,0l0,0.1l0,0l0,0h0l0.2,0.1l0.1,0.1l0.1,0l0.1,0l0.1,0l0.1-0.1l0.1,0l0.1,0l0.1,0l0.1,0l0.1,0l0.2-0.1l0.1-0.1
		l0.1-0.1l0.1-0.2l0.1-0.2l0-0.1l0-0.1l0.1-0.2l0.1-0.2l0-0.1l0,0l0-0.1v-0.1l0-0.1l0-0.1l0-0.1l0,0l0,0l0,0l0,0l0,0l-0.1,0l-0.1,0
		l-0.2,0l0,0l-0.1,0l0,0l-0.1,0l0,0l-0.1,0l0,0l0,0l0,0l-0.1,0l0,0l0,0l-0.1,0l-0.1,0l-0.2-0.1l-0.1,0l0,0l0,0l0,0l0,0l0,0v0l0,0
		l0,0l0,0l0,0l0,0l0,0l0,0l0.2,0l0.1,0l0,0l0.1,0h0.2l0-0.1l0-0.3l0-0.3l0-0.1l-0.1-0.1h-0.2l-0.1,0l-0.1,0l-0.1,0h-0.2l0,0l0,0l0,0
		l0,0l0,0l0,0l0,0l0,0l0-0.1l0,0l0,0l0,0l0,0l0,0l0.2-0.1l0.1,0l0.1,0L105,16l0,0l0,0v0l-0.1-0.3l0-0.1l-0.1-0.2l0-0.1l0,0l0,0l0,0
		l-0.2,0.1l0,0l0,0l0,0l-0.1,0.1l0,0l0,0l0,0l0,0l0,0l0,0h0l0,0l0,0l0,0l0,0l0,0l-0.1,0l-0.1,0l-0.1,0l-0.1,0l-0.1,0l0,0l0,0
		l-0.1-0.1l-0.1,0l-0.1,0l-0.1-0.1l-0.1,0l-0.1,0l-0.1,0l-0.1,0l-0.1,0l-0.1,0l-0.1,0.1l-0.1,0.1l-0.1,0h-0.1l-0.1,0l0,0l0-0.1
		l-0.1-0.1l-0.1-0.1l-0.1-0.1l-0.2-0.1l-0.1,0l-0.1,0l-0.1,0l-0.1,0l-0.1,0l-0.1,0l-0.1,0l-0.1,0l-0.1,0l-0.1,0l-0.1-0.1l0-0.1
		l0-0.1l0-0.1l0-0.2l0-0.2l0-0.1l0-0.1l0-0.1l0.1-0.1l0.1-0.1l0.1-0.1l0.1-0.1l0.1-0.1l0-0.1l0-0.1l0-0.1l0-0.1l0-0.1l0-0.1l0,0l0,0
		l0,0l0,0l0,0l0,0l0,0l0,0l0,0l0,0l0,0l0,0l0,0l-0.1,0l-0.1,0l-0.1,0l-0.1,0l-0.1,0.1l-0.1,0.2l-0.2,0.2l-0.1,0.2l-0.1,0.1l0,0.3
		l0,0.3l0,0.3l0,0.2l0,0.1l0,0l0,0.1l0,0.1l0,0.1l0.1,0.1l0.1,0.1l0,0l0,0l0,0l0,0.1l0,0.1l0,0l0,0l-0.1,0.1l-0.1,0l-0.1,0l0,0l0,0
		l0,0l-0.1-0.1l-0.1-0.1l-0.1-0.1l0,0l0,0l0,0l0,0.1h0l0,0l0,0l0,0l0.1,0.1l-0.2,0.2L99.3,16l0,0l0.2,0.1l0,0l0.1,0l0.1-0.1l0,0l0,0
		l0,0l0,0l0.3-0.3l0.1-0.1l0.1-0.1l0.1,0l0.1,0l0.1,0l0,0l0.1,0l0.1,0l0.1,0l0.1,0.1l0,0.1l0,0.1l0,0l0,0l0,0.1l0,0l0,0.1l0,0.1l0,0
		l0,0l0,0.1l0,0.1l-0.1,0.1l-0.1,0.1l-0.1,0.1l-0.1,0l-0.1,0l-0.1,0l-0.1,0l-0.1,0l0,0l0.1,0l0.1,0l0.1,0l0.3,0.2l-0.5,0.8l-0.2,0.5
		l0.1,0.1l0,0l0.3,0.2l0.2,0.1l0,0l0,0l0,0l0,0l-0.1,0.3l-0.1,0.4l0,0l0,0.1l0,0.1l-0.1,0l-0.1,0l-0.4-0.1l-0.1,0h-0.1l-0.1,0l0,0
		l0,0l0,0l0,0l0,0l0,0l0,0l0,0l0,0l-0.1,0l0,0l0,0l0-0.1l0-0.1l0-0.1l-0.1-0.1l-0.1-0.1L99,18.8l-0.1,0l-0.1,0l-0.1,0l-0.1,0l-0.1,0
		l-0.1,0l-0.1,0l-0.1,0l-0.1,0.1l-0.1,0.1L98.1,19L98,19.1l0,0.1l0,0.1l0,0.1v0.1l0,0.1l0,0.1l0,0.1l-0.1,0.1L97.8,20l-0.1,0.2
		l-0.1,0l-0.9-0.5L96,19.1l-1.2-0.7l0-0.1l-0.2-0.1l0,0l-0.3-0.2l0.6-1l0,0l0,0l0,0l-0.1-0.1l0,0l0,0l-0.1,0l0,0v0l0,0l0,0l0,0l0,0
		l0,0l0.1,0l0,0l0.1,0.1l0,0l-0.1,0.1l0,0l-0.3,0.6l-0.6-0.3l0.5-0.7l0.1,0l0,0l0,0l0.1,0l0,0l0,0l0,0l0,0l0,0l-0.2-0.1l0,0
		l-0.2-0.1l0.2-0.3l0.1-0.2l0.2-0.3l0.2-0.3l0,0l0.2-0.1l0.1,0.1l0.4-0.6l0,0l0.1-0.1l-0.3-0.2l-0.1-0.1l0-0.2h0.1l0-0.4l0-0.1
		l0.1,0l0.1,0l0.2-0.1l0.1-0.1l0,0l0,0l0,0l0,0l0,0l0,0l-0.2,0.1l-0.2,0l0-0.1l0-0.1l0-0.2l0.1-0.1l0.1-0.1l0-0.1l0-0.4l0.2-0.3
		l0.3-0.2l0.2-0.1l0.3,0.1l0,0.1l-0.1,0.1l-0.1,0.1l0,0l0,0l0.1-0.1l0.1-0.1l0.1-0.2l0-0.2l0-0.2l0-0.1l0,0l0,0l0,0.2l0,0.2
		l-0.3-0.2l-0.1-0.2l0-0.2l0.2-0.5l0.3-0.1l0.2,0l0.1,0.1l0,0.1l0,0.1l0,0l0,0h0l0-0.1l0-0.1l0-0.1l0-0.1l0.2-0.1l0.1-0.1l0,0l0,0
		l0,0l0,0l0,0l0,0l-0.2,0.1l-0.1,0l-0.1-0.1l-0.1-0.2l0-0.3l0.2-0.3l0.2-0.2l0.2,0l0.1,0.2L98,9.9l0,0.1l0,0.1l0,0l0,0l0-0.1l0-0.1
		l-0.1-0.1l-0.1-0.2l0-0.1l-0.6-1L97.1,8l-0.2-0.4l-0.4-0.4l0,0L97,6.7l0.7,0.8l0.2,0L98,7.1l0,0l0.2,0.1L98,7.5l-0.2,0.4l-0.1,0.3
		l0.1,0.3L98,8.7l0.2-0.1l0.2-0.3l0.2,0l0.2,0l0.2,0l0.2,0l0,0l0,0l-0.1,0l-0.2,0l-0.2,0l-0.1-0.3l0.1-0.3l0.2-0.3l0.3-0.1l0.4,0.2
		l-0.1,0.2l0,0l0,0l0,0l0.3-0.4l0,0l0,0l0,0l-0.1,0.2l-0.4-0.2V7l0.2-0.3l0.2-0.2l0.2,0l0.1,0.2l0,0.1l0,0.2l0,0l0,0l0,0l0-0.1
		l0-0.1l0-0.2l-0.1-0.1l-0.1-0.2l0-0.1l0.1-0.2l0-0.2l-0.1-0.2l-0.2-0.2l-0.2,0l-0.2,0.1L99,5.7l-0.4,0.4l-0.3,0.5L98.2,7L98.1,7
		l0.2-0.6l0.2-0.3l0.3-0.3l-0.1-0.2l-0.2-0.1l-0.1-0.3l0-0.3l0.1-0.3l0.2-0.2l0.2-0.1l0.7,0.1l0,0.3l-0.1,0.1l0,0.2l-0.2,0.2l0.1,0
		L99.6,5l0.2-0.3l0-0.3l-0.1-0.2L99.6,4l-1.2-0.4l0.1-0.4l1.3,0.4l0.2,0.1l0.1,0.2l0.1,0.2l0,0.2l-0.1,0.3L99.9,5l0,0.2l0.1,0.1
		l0.1,0.1l0.2,0l0.2-0.2l0.5-0.8l0.1-0.2l0-0.2l-0.1-0.3l-0.2-0.3L100.3,3l-0.2-0.2l-0.3-0.6l-0.3-0.5l-0.4-0.4L98.8,1l-0.5-0.2
		l-0.6-0.2l-0.5,0l-0.3,0l-0.3-0.1l-0.1,0l-0.1,0.1l0.1,0.3L96.7,1l0,0.2l-0.2,0.2l-0.1,0.4l0.3-0.1l0.2,0l0-0.2l0.3-0.1l0.4,0
		L98,1.4l0.3,0.2l0.2,0.2l0,0.2l0,0.3l-0.2,0l-0.1,0.1l0,0.1l-0.2,0l0-0.2l-0.1-0.2l-0.1-0.1l-0.1,0l-0.1,0.2l-0.2,0.1l-0.3,0
		l-0.3,0l-0.3-0.1l-0.1-0.3l-0.1,0.4l-0.2,0.3L95.8,3l-0.2,0.2l-0.1,0.2l-0.4,0l-0.4-0.1l-0.1-0.1l-0.3,0l-0.2,0.1l-0.1,0.2
		l-0.3,0.2l-0.5,0.2L93,4.2l0.1,0.1l0.1-0.2L93.4,4l0.2,0l-0.5,0.6l-0.2,0.4l0,0.4L93,5.4l0.2-0.4l0.5-0.7L93.9,4l0.5,0.3l-0.1,0.4
		l0.1,0.1L94,5.4l-0.1,0.2l0,0.2l0.1,0.1l0.1,0.1l0.2,0l0.9-0.1l0.2-0.1l0.1-0.1l0.1-0.3l0-0.1L95.4,5l0.1-0.4l0.3-0.1L96,4.4
		l0.2,0.1L96,4.7l-0.3,0.1l0,0.2l0.2,0.2l-0.2,0.7l0.1,0.1L96.1,6l0.3,0.2l0.4,0.3L96.4,7l-0.3-0.3l-0.3-0.2l-0.4-0.1l-0.4,0
		l-0.4,0.1l-0.5,0.2l-0.4,0l-0.8,0l-0.4,0.4l-0.3-0.6l0.2-0.4l0.2,0l0.1-0.2L92.6,6l0.2-0.3l-0.1-0.3L92.2,5l-0.3-0.4l-0.5-0.5
		l-1.1-0.4l-0.4-0.1l0-0.4L90,3.1l0.7-0.5l0.7-0.9l0.1-0.6l-0.4,0.1l-0.5,0.5l-0.1,0.2L90,2.3L90,2.4l-0.2,0.3l-0.1,0.5l-0.4,0.2
		l-1,0.4l-0.2,0.7l1.5,0.7L90,5.9v0l0.2,0.5L90,6.3v0l-2.2-1.1l-2.7,3.8l3.7,2.5l1.2,0.8l4.6,2.9l0,0.1l-0.4,0.6l-0.1,0.1L94,15.9
		l-0.3-0.2h-0.3l0,0l-0.4,0.8l0,0.1l0.5,0.3l-0.1,0.2l-0.2,0.5l-0.1,0.1L93,17.9L92.8,18l-0.4,0.1l-0.1-0.2l-0.1-0.2l-0.1,0
		l-0.2,0.1l-0.1,0.1l-0.1-0.3l-0.4,0l0-0.1l-1,0.1v0l0,0l-0.4,0l0-0.2l0,0l0,0.2l-0.3,0l-0.2,0l-0.1-0.6l0.1,0l0-0.3l-0.2,0l-0.2,0
		v0.3l0.2,0l0.1,0.6l0,0l0,0l-0.2,0l-0.2-0.3l0,0l0.2-0.1l0,0l0,0l0,0l0-0.1l0,0l-0.2,0l-0.2,0l-0.5-0.8l0,0l0-0.2l0.3-0.1l0-1
		l-0.8,0l0,1l0.2,0.2l0,0.1l0.1,0.1l0.1,0l0.8,1.3l-0.2,0.1l-0.8,0.1l0-0.2l0,0l0,0.1l-0.1,0l-0.2-0.6l0.4-0.1l0-0.2l0.1-0.1l0-0.1
		l-0.1,0l-0.4,0l0-0.3l-0.1,0l-0.2,0l0,0l-0.1,0l-0.1,0l0-0.5l0-0.1l0-0.3l-0.2-0.2l-0.3,0.5l-0.3,0.4l0.3,0.2l0.2,0l0.3,0l0.1,0
		l0.1,0l0.1,0l0,0.1l0,0.3l-0.6,0l0,0.5l-0.4,0.1l-0.2,0l-0.1-0.1l0-0.1L85.7,17l-0.1,0.2l-0.1,0.1l0,0l0.1,0.1l0.1-0.2l0.1,0l0,0.1
		l0,0l0,0l0,0l0.2,0l0.5-0.1l0,0.3l0,0l0.1,0l0.3-0.1l0-0.2l0.4-0.1l0.2,0.5l0,0l-1,0.5L86.5,18l-0.3,0.1l-0.2,0.1L86,18.3l0,0.2
		l0,0.1l0,0.1l0.1,0.1L86,18.9l-0.1,0l-0.2,0.1l0.1,0.3l0.1,0l0.1,0.2l0.2,0.3L86,19.8l-0.5-0.3l-0.2-0.1l-0.2,0l-0.2,0l-0.1,0
		l-0.1,0.1l-0.2,0.2l-0.4-0.2l0,0l0,0l0,0l0,0l0,0l0,0l0.4,0.2l0,0l0,0.1l0,0.1l0,0l0,0.4l-0.1,0.1l-0.1,0.1l-0.1,0.1l-0.1,0l0,0
		l-0.1,0l-0.2,0.1l-0.3,0.1l-0.2-0.1l-0.3-0.1L83,20.6l0,0l0,0l0,0l0,0l0,0l0,0l-0.1-0.1l-0.5-0.2l-0.8-0.4l-0.1,0l-0.1,0l0,0l0,0
		l0,0l0,0l-0.1-0.1l-0.1,0l-0.1,0l0,0l0,0.1l-0.2,0l-0.2,0l-0.3-0.5l0-0.1l0-0.1l-0.1-0.4l0,0l0.1,0.6l-0.1,0.1l-0.6,0.2l-0.3,0.1
		l-0.3,0l-0.4-0.1l-0.4-0.2L78,19.4l-0.1-0.1l0,0l0,0l-0.2-0.2l-0.9-1.2l-0.2-0.4L76.4,17l-0.1-0.3l0-0.3l0-0.1l0,0l0-0.1l0-0.1
		l0-0.1l0,0l0.1,0l0.1,0l0.1,0l0.2,0l0,0l0,0l-0.2,0l-0.1,0l0,0l-0.1,0l-0.1,0l-0.1,0l-0.1,0l-0.1,0l-0.1,0l-0.2,0l-0.1-0.4l0,0
		l0.1,0.3l0,0l0,0l-0.1,0l0,0l-0.1,0l-0.1,0L75.2,16l-0.1,0l-0.1,0l-0.1,0l-0.2,0l-0.1,0l0.1-0.5l0,0l-0.1,0.4l-0.2,0.1l-0.3,0
		l-0.1,0l-0.1,0l-0.1,0l-0.2-0.1l-0.2-0.1l-0.1,0l0,0l0,0l0.1-0.1l0.2-0.1l0.2-0.1l0,0l-0.1,0.1l-0.1,0.1l0,0l0,0l0,0l-0.1,0
		l-0.1,0.1l-0.3,0.1l-0.2,0L71.8,15l-0.2,0.4l-0.1,0.2l0,0.2l0,0.3l0.1,0.2l0.1,0.2l0.2,0.2l0.3,0.1l0.2,0l0.2,0l0.1,0l0.1,0l0.2,0
		l0.1,0l0.1,0l0.1,0l0.1,0.1l0.1,0.1l0.1,0.1l0,0.1l0,0.1l0,0.2l-0.1,0.1l-0.1,0.1l0,0.6l-0.1,0l-0.1,0l-0.3,0l-0.3,0.1L72,18.3
		L72,18.4l-0.1,0.1l-0.1,0.2l-0.1,0.2l0,0.2l0,0.1l0.1,0.1l0.1,0.1l0.1,0l0.2,0l0.2,0l0.2,0l0.2,0.1l0.1,0.1l0.1,0.1l0,0l0,0.1
		l0,0.1l0,0.2l0,0l0.1-0.2l0-0.1l0-0.1h0.2l0.3,0.1l0.5,0.2l0.1,0.1l0.1,0.1l0.2,0.1l0.2,0.1l0.2,0.2l0.2,0.2l0.2,0.2l0.2,0.2l0,0.1
		l0.2,0.2l0.3,0.3l0.3,0.4l0.2,0.2l0.2,0.3l0.1,0.3l0.1,0.2l0,0.2l0,0.1l0.1,0l0.1,0.1l0.1,0.2l0.1,0.3l0.1,0.6l0.1,0.9l0,0.7
		l-0.1,0.4l-0.2,0.3L77,27l-0.1,0.1l-0.2,0.1l-0.3,0.1l-0.2,0.1l-0.2,0l-0.5,0l-0.1-0.3l-0.1-0.3l-0.1-0.2l-0.1-0.2l0,0l0,0l0.1,0.2
		l0.1,0.2l0.1,0.1l0,0.1l0.1,0.3l0.3,1l0.7,1l0.2,0.2l0.3,0.3l0.4,0.3l0.1,0l0.2,0.1h0.5l0.1-0.3l0.2-0.3l0.2-0.2l0.2-0.2l0.5-0.3
		l1,0l0.6,0.3l0,1.1l0,0.5l0.1,0.3l0,0.1l-0.1,0.1l0,0.2l0.1,0.1l0.1,0.1l0,0.1l0,0l0.1,0.2l0,0l0.1,0.1l0,0.2l0,0.1l0,0.1l0,0.2
		l0,0.1l0,0.1l0,0l-0.1,0.1l-0.1,0.1l-0.1,0L81,33l-0.8,0.6l-0.2,0l-0.2-0.2h-0.1l-0.6,0.4l-0.1,0.1l-1.2-0.3l-0.2-0.1l-0.1-0.2
		l0.1-0.2l0.5-0.4l-0.1-0.1l-0.4-0.2l0-0.3l0.1-0.3l0.2-0.7l0,0l0-0.1l0,0l-0.2,0l-0.1,0l-0.1,0.4l-0.1,0.3l0,0.1l0,0.1L77.3,32
		L77.2,32l-0.1,0.1l-0.1,0.1l-0.1,0l-0.1,0l-0.2,0l-0.3,0.1l-0.1,0l-0.1,0l-0.1,0l-0.1,0l-0.1,0l-0.1-0.1l-0.2-0.1l-0.2-0.3
		l-0.2-0.5l0.2-0.2l0,0l0,0l0,0l0,0l-0.2-0.2l-0.2-0.1l-0.1-0.1l-0.1-0.1l-0.1-0.1l-0.1-0.2l0-0.1l0-0.2l0-0.1l0-0.2l0-0.1l-0.1-0.1
		l-0.1-0.1l0-0.1L74,28.9l-0.3-0.4l0,0l0,0l0,0l0,0l0.1,0.1l0,0.1l-0.1,0.1l-0.1,0.1l-0.1,0.1L73.4,29l-0.1,0.1l-0.2,0.1L73,29.3
		l-0.1,0.1l-0.2,0l-0.2,0l-0.2,0l-0.2,0l-0.1,0l-0.1,0l-0.1-0.1l-0.1-0.1L71.6,29L71.5,29l0-0.1l0.1-0.1l0.1-0.1l0.1,0l0.1,0l0.1,0
		l0,0l0,0l0,0l0,0l0,0l0,0l-0.1,0l-0.1,0l-0.1,0l-0.1,0l-0.1,0.1l-0.1,0.1l-0.8,0.7l0,0l0,0l0,0l0,0l0,0.1l-0.2,0.5l0,0l0,0l0,0l0,0
		l0,0l0,0l0.2-0.4l0.1,0l0.1,0l0.1,0l0.1,0l0.1,0.1l0.1,0.1l0.1,0.1l0.1,0.2l0.1,0.1l0,0.2l0,0.1l0,0.1l0,0.1l0,0.1l-0.1,0l-0.1-0.1
		l0,0l0,0l0,0l0,0l0,0l0.4,0.3l0,0l0.7,0.6l0.6,0.5l0,0L73,32.5l0,0l0,0l0.1,0l0.1-0.1l0.1-0.1l0.1,0l0.1,0l0.1,0l0.1,0h0.1l0.1,0
		l0.1,0l-0.1,0l0.1,0.2l0.2-0.1l0.2,0.1l-0.1,0.1l0,0l-0.1,0l-0.1,0l-0.1,0l-0.1,0l-0.1,0.1l-0.1,0.1l-0.1,0.1l-0.1,0.1l0,0.1l0,0
		l0,0.1l0,0.1l0,0.1l0,0.1l0,0.1l0,0l0.1,0l0.1,0l0.1,0l0.1,0l0.1,0l0.1,0l0.1,0l0.1-0.1l0.1-0.1l0.1-0.1l0-0.1l0-0.1l0-0.1l0-0.1
		l0-0.1l0-0.1l0-0.1l0-0.1l0-0.1l0,0l0.1-0.1l0,0l0.2-0.3l0,0.1l0.4,0.4l-0.2,0.3l0,0l0,0l0,0.1l0,0.1l0,0.1l0,0.1l0,0.1l0,0.1
		l-0.1,0.1l-0.1,0.1l-0.1,0.1L74.5,34l-0.1,0.1l-0.1,0.1l-0.1,0.1l0,0l0.2,0.3L74,34.8l-0.5,0.3l-0.2,0.1l-0.2,0.1l0,0l0,0l0,0l0,0
		l0,0l0,0l0,0l0,0l0,0l-0.4,0.3l-0.2,0.2l0,0l-0.2,0.1l0,0l-0.1,0l0,0l0,0l-0.1,0l-0.1,0l-0.1,0l-0.1,0l-0.1-0.1l-0.1,0l-0.1-0.1
		l0,0l0,0l-0.1-0.2l-0.2,0l-0.1,0l-0.1,0l-0.2,0l-0.1,0l-0.2,0l0.2,0.6l0,0l0,0l0,0l0,0l0,0l0,0l0,0l0,0l0,0l0,0l0,0l0,0l0,0l0,0
		l0,0l0,0l0,0l0,0.1l0,0l0,0l-0.1,0l0,0l0,0l0,0h0l0.3-0.1l0,0l0,0l0,0l0-0.1l0,0l0,0l0,0l-0.4-0.5l-0.1,0l-0.1,0l-0.1,0l-0.1,0
		l-0.1,0l0,0l0,0l0,0.1l-0.1,0.4l0.2,0.3l0.2,0l0.2-0.1l-0.5,0.2l-0.2,0l-0.1-0.3h0l-0.1,0.7l0,0l0,0.1l0.2-0.1l0.1,0.2l-0.3,0.1
		l0,0l0.3-0.1l0.1,0.2L69,37.8l0,0.1L68.7,38l-0.1,0l-0.1,0.1l-0.3,0.1l0,0l0,0l0,0l0,0l0,0L68,38.3l-0.1,0l-0.3,0.1l-0.1,0
		l-0.5,0.2l0,0l0,0l0-0.1l0.1-0.1l0.1-0.1l0.1-0.1l0.1-0.1l0,0l0,0l0,0l0,0l0,0l0,0h0.1l0,0l0,0l0,0l0.2,0l0.1,0l0,0l0.1,0l0.1,0
		l0.1,0l0.1,0l0.1-0.1l0-0.1l0,0l0,0l0.1-0.1l0,0l0,0l0,0v0l0-0.1l0-0.1l0-0.2l0-0.5l0,0l0-0.1l0-0.2l0-0.1l0,0v0l0-0.1l0-0.1l0-0.2
		v0v0l0,0l0-0.1l0-0.1l0-0.1l0,0l0,0l0,0l0,0l0,0l0,0l0,0v-0.1l0-0.6l0,0l0,0l0-0.1l0-0.1l0-0.1l0-0.1l0-0.1l-0.1-0.1l-0.4-0.4
		l-0.1-0.1l-0.1-0.1l-0.1,0l-0.1,0l-0.1,0l-0.1,0l-0.1,0l-0.1,0l-0.1,0L67,33.7l-0.1,0.1l-0.1,0.1L66.7,34l0,0.1l0,0.1l0,0l0,0l0,0
		l0,0v0l0,0.3v0.3l0,0.2l0,0.1l0,0.1l0,0.1l0,0.1l0,0.1l0.1,0.1l0.1,0l0,0l0,0H67l0.4,0l0.4,0l0,0l0,0l0.1,0l0-0.1l0-0.1l0-0.1
		l0-0.1l0-0.1l0-0.1l0-0.1l0,0l0,0l0,0l0,0l0,0l0,0l0.1-0.1l0,0l0,0l0,0l0,0l0,0.1l0,0.1l0,0.1l0,0.1l0,0.1l0,0.1l0,0.1l0,0.1l0,0.1
		l0,0.1l0,0l0,0l0,0l0,0l0,0l0,0l0,0l0,0.1l0,0.1l0,0.1l0,0.1l0,0.1l0,0.1l0,0.1l0,0.1l0,0.1l0,0.1l0,0l0,0l0,0.2h-0.6l0-0.5l0-0.1
		l0,0l0,0l0,0l0,0l0,0l0,0l-0.1,0l-0.3,0l0,0l0,0l0,0.2h-0.1l0,0.2l0,0l0,0.8l0,0.1l0,0.1l0,0.1l0,0.1l0,0.1l0,0.2l0.1,0.3l0,0.2
		l0,0.1l0,0l0,0l0,0.1l0,0l0,0l0,0l0,0l0,0l-0.1,0l-0.1,0l-0.1,0l-0.1,0l0,0h0l0,0l0,0l0-0.1l0.3,0l0,0l0,0l0,0l0,0l0,0l0,0l-0.3,0
		l0,0l0,0l0,0l0,0l0,0v-0.1l0,0l0,0l0,0l0,0l0,0l0,0l0-0.2l-0.3-1.8l0-0.1l0.1,0l0-0.3l-0.2,0l-0.1-0.1l0-0.1l0,0l-0.5,0l-0.1-0.1
		l0,0l-0.1,0L65,34.7l0,0l-0.1-0.1l0,0l-0.1-0.1l-0.1-0.1l0-0.1l0-0.1l0,0l0,0l0,0l-0.1,0l-0.1,0l-0.1,0l-0.1,0l0,0l-0.1,0l-0.1,0
		l0,0l0,0.1l0,0.1l0,0.1l0,0.1l0,0.1l0,0.1l0,0.1l0.1,0.1l0.1,0.1l0,0.1l0,0.1l0,0l0,0l0.3-0.3l0,0l-0.3,0.3l0,0l0,0l0,0.1l0,0.1
		l0,0.1l0,0l0,0.1l0,0.1l-0.1,0.1l-0.1,0l-0.1,0l-0.1,0l-0.1,0l-0.1,0l-0.1,0l-0.1,0l-0.1,0l-0.1-0.1l0-0.1l0-0.1l0-0.1l0-0.1l0-0.1
		l0-0.1l0-0.1l0,0l0,0l0,0l0,0l0,0l0,0l0,0l0,0l0,0l0,0l0,0l0,0l0,0l0,0l0,0v0l0,0l0,0l0,0l0,0l0,0l0,0l0,0l0,0l0,0l0,0l0.1-0.1
		l0.1,0l0.1,0l0.1,0l0.1,0l0,0l0-0.1l0-0.1l0,0l0-0.1l0-0.1l0-0.1l0-0.1l0-0.1l0,0l0,0l-0.1,0l-0.1,0l-0.1,0l0.1-0.1l0.1-0.1
		l0.1-0.1l0.1-0.1l0,0.1l0,0.1l0,0l0,0l0,0l0,0h0.1l0.1,0l0.1,0l0,0l0,0l0,0l0,0l0,0l0,0l0,0l-1.4-1.7l0,0l0,0l0,0l0,0v0.1l0,0
		l0,2.7v0.4l0,0v0.1l0,0l0,0.1l0,0.1l0,0.1l-0.1,0l0-0.1l0,0l0,0l0,0l0,0.1l0,0v0.1l-0.2,0l-0.2,0l-0.6-0.1l-0.3,0l-0.3,0l-0.3,0
		l-0.2-0.1l0.1-0.2l0.2,0l0.1,0l0.2,0l0.2-0.1l0.1,0l0-0.1l0-0.1l0,0l0.1-0.1l0.1-0.1l0.1-0.1l0.1-0.1l0-0.1l0.1-0.1l0-0.1l0-0.1
		l0-0.1l0-0.1l0-0.1l0,0l0,0l0,0l0,0l0,0l0,0l-0.1,0l0,0l-0.1,0l0-0.1l0.1,0l0.1,0l0.1,0l0.1,0l0,0l0,0l0,0l0,0l0-0.1l0-0.1l0-0.1
		l0-0.1l0-0.1l0-0.1L62,33.4l-0.1-0.1l-0.1-0.1l-0.1-0.1l-0.1-0.1l-0.1,0l-0.1,0l-0.1,0l0,0l0,0l0,0l0,0l0,0l0,0l0,0l0,0l0,0l0,0.1
		l0.1,0l0.1,0l0.1,0.1l0.1,0.1l0.1,0.1l0,0.1l0,0.1l0,0.1l0,0.1l0,0.1l0,0l0,0.1l0,0.1l-0.1,0l-0.1,0l-0.1,0l-0.1,0l-0.1,0l-0.1,0
		l-0.1,0l-0.1,0l-0.1,0l-0.2,0l-0.1,0l-0.1,0l-0.1-0.1l0-0.1l0,0l0,0l0,0l0-0.1l0.1,0h0l0-0.1l0-0.1l0-0.1l0-0.1l0.1-0.1l0.1-0.1
		l0.1,0l0,0l0,0l0,0l0,0l0,0l0,0l0,0l0,0l0,0l0,0l-0.1,0l-0.1,0l-0.1,0l-0.1,0.1l-0.1,0.1l-0.1,0.1l-0.1,0.1l-0.1,0.1l-0.1,0.1
		l0,0.1l0,0.1l0,0l0,0l0,0l0,0l0,0l0,0l0.1,0l0,0.1l-0.1,0l-0.1,0l0,0.1l0,0l0,0.1l0,0.1l0,0l0,0.1l0,0.1l0,0.1l0,0.1l0.1,0.1l0,0.1
		l0,0.1l-0.1,0l-0.1,0l-0.1,0l-0.1-0.1l-0.1-0.1l-0.1,0l0,0l0,0l-0.3-0.1l-0.3-0.1l0,0l0,0l0,0l0-0.1l0,0l0,0l0,0l0,0l0,0l0,0h0
		l0.1,0l0,0l0,0l0,0.1l0,0.1l0.1,0.1l0,0l0,0l0,0l0,0l0,0l0.1,0.1h0l0,0l0,0l0-0.1l0.1-0.1l0,0.1l0,0l0,0l0,0h0l0,0l0,0l0-0.1l0-0.1
		l-0.1-0.1v0v0l0,0l0,0l0,0l0,0l-0.1-0.1l0,0v0l0,0l0,0l0,0l0,0l0,0l0,0l0,0l0-0.1l0-0.1l0-0.1l0-0.1l0,0l0,0.2l0,0.1l0,0.1l0,0.1
		l0,0.1l0,0l0,0l0,0l0,0l0,0l0,0l0,0.1l0,0.1l0,0l0,0l0,0l0,0l0,0l0,0l0,0h0l0,0l-0.1-0.2l-0.2-0.3l-0.2-0.3l0,0v0l0-0.1l0.1-0.2
		l0.1-0.2l0-0.1l0,0l0.1,0h0.1l0.1,0l0,0l0,0l0,0l0,0l0,0l0,0.1l0,0.1l0,0v0l0,0l0,0l0,0v0l0,0l0,0l0,0l0,0l0,0l0,0l-0.1,0l0-0.1
		l0,0l0,0l0,0l0,0l-0.1,0l0-0.1l0,0l-0.2-0.1l0,0l0,0l0,0l0,0l-0.1,0l0,0l0,0l-0.1,0l0,0l0,0l0,0l0,0h0l0,0l0,0l0,0l0,0l0,0l0,0l0,0
		l-0.1,0l0,0l0,0l0,0l0,0l0,0l0.1,0l0,0l0,0l0,0.1l0,0l0,0l0,0l0,0.1l0,0l-0.1,0l-0.1,0l-0.1,0l-0.1,0h0l0,0l0,0l0,0l0,0.1l0,0l0,0
		l-0.1,0l-0.2,0l0,0l0,0l0-0.1l0-0.1l0-0.1l0,0l0,0l0,0l0,0.1l0,0l0,0l0,0l0,0l0,0l0-0.1l0,0l0,0l0,0l0.1,0l0,0l0,0v0l0-0.1l0,0l0,0
		l0,0l0,0l0,0l0,0l-0.1,0l-0.1,0l-0.1,0l0,0l0,0l0,0l0,0l0,0l0,0v0.1l-0.1,0l-0.1,0l-0.1,0l-0.1,0l-0.1,0l0,0l0,0l0,0l0,0l0,0l0,0
		l0,0l0,0l0,0l0,0l0,0l0,0l0,0l0,0l0,0l0,0l0,0l0,0l0,0l0,0l0,0l0,0l0,0l0,0l0-0.1l0-0.1l0.2-0.1l0,0l0,0l0,0l0,0l0,0l0-0.1l0,0l0,0
		l0,0l0,0l0,0l0,0l0,0l0,0l0,0l0,0l-0.1,0l-0.1,0l-0.1-0.1l0,0l-0.1,0l0,0l0,0l0,0l0,0l0,0l0.1,0.2l0.1,0.2l0,0l0,0l0,0.1l0,0.1l0,0
		l0,0l0,0l0.1,0l0,0.2l0,0l0,0l0,0l0,0l0,0l0,0l0.1,0l0.1,0.1l0.1,0.1l0.1,0l0,0l0,0l0,0.2l0,0.1l0.1,0.1l0.1,0.1l0,0l0,0.1l0,0.1
		l0,0l0,0l-0.6,0.2l0,0l0,0l0,0l0,0l0,0l0,0l-0.1,0L56,34.2l-0.2,0.1l-0.2,0.1l0,0l0,0l0,0.1l0,0.1l0,0l0,0l-0.2,0.1l-0.2,0.1
		l-0.3,0.1L54.5,35l-0.2,0.1l-0.2,0.2l-0.1,0.1l0,0l0,0.1l-0.1,0l-0.1,0l-0.1,0l0,0.1l0,0.1l-0.1,0.1l-0.2,0.2l-0.3,0.2l-0.3,0.1
		l0,0.2l-0.1,0.2l-0.1,0.2l-0.3,0.3l0,0.2l0.1,0.2l0,0.2l-0.1,0l-0.3,0l0-0.1l-0.1,0v-0.2l-0.5-0.1l0-0.4h0v-0.2l0,0v0l0,0l0,0
		l-0.1,0l0,0.1l-0.1,0l0-0.1l0,0l0,0l0,0l0,0l0,0l0,0l0,0l0,0l0,0l0.2,0l0,0l0,0v0.2l-0.2,0.2l-0.3,0l-0.3,0l0-0.4l0-0.1l0,0l0,0.1
		l0,0.5h-0.2l0,0l0-0.2l-0.4,0l0,0.2l-0.3,0l0.1,0.2l-0.1,0l-0.3,0L49,38L49,38l-0.2,0l0-0.1l-0.1-0.1l1.4-1l0.1,0.1l0.2-0.1
		l-0.1-0.2l-1.5,1.2l-0.1,0l-0.6,0l-0.2,0l-0.1,0l-0.1,0l-0.1,0l-0.1,0l0-0.1l0-0.1l-0.1-0.2l-0.1-0.2L47,37l-0.1-0.2l-0.1-0.2
		l0-0.1l-0.1,0l0.4,0.5l0.1,0.3l0,0.2l0,0.1l-0.1,0.1l-0.2,0l-0.2,0l-0.1-0.1l-0.4-0.2l-0.8,0l-0.2,0.1h-0.2l-0.2,0l0,0.2L44.4,38
		L42,38.2l-0.8,0l-0.4,0l0-0.1l-0.3,0l0,0.2l-0.7,0.1l-1.6,0.3l-0.5,0l-0.4,0.1l-0.3,0l-0.5,0.1L36,38.9l-0.1-0.1l-1,0.4l0-0.1
		l0-0.1l0-0.1l0,0l0.4-0.2l0.4-0.1l-0.2-0.3l-0.6,0.3l-0.1,0.3l0,0l0,0.1l0,0l0,0l-0.1,0l0,0l-0.2,0.1l-0.6,0.3l-0.6,0.3L33,39.8
		l-0.1,0l0-0.1l-1.8,0.8l0.2,0.7l0,0.1l0.2,0l0,0.4L31.3,42L31,42.3l-0.4,0.3l-0.2,0l0,0l0,0l0.1,0l0,0l0-0.1l-0.1,0l-0.1,0l0,0.1
		l0,0.1l0,0l-0.2,0l-0.3,0.4v0l0.1,0.1l0,0.1l-0.1,0.1l-0.3,0.2l-0.2,0l-0.1,0l-0.1-0.2l-0.1-0.1l-0.5-0.8l0,0l0.2-0.2l0.2-0.1
		l0.8-0.9l0.1,0l0.1-0.2l0.1-0.1l0.1-0.1l0.1,0l-0.1-0.2l0-0.1l0-0.1l0-0.2l0.4-0.1l0.1,0l0.1,0L31,40l0.6-0.4l0.5-0.4l0.3-0.1
		l0.3-0.1l0.1,0l0.1-0.1l0.4-0.2l0.3-0.1l0.1-0.1l0.1-0.1l0.1-0.1l0.2-0.1l0.1-0.1l0.1-0.1l0.1,0l0.1,0l0.2-0.1l0.1-0.1l0.1-0.1l0,0
		l0,0.1l0.1,0l0.1,0l0.1,0l0-0.1l0-0.1l0.1,0l0.1-0.1l0.1-0.1l0.1-0.1l0.2-0.2l0.1-0.1l0,0l0-0.1l0.1-0.1l0.2-0.2l0-0.1l0-0.1
		l0.1-0.1l0.1-0.1l0-0.1l0.1-0.1l0.1-0.1l0.1-0.2l0.1-0.1l0-0.1v-0.1l0-0.1l0,0l0,0l0,0l0,0l-0.1,0l0,0l-0.1,0l-0.1,0l-0.1,0l0,0
		l0,0l-0.1,0l-0.1,0H36l0,0l0,0l0,0l-0.1,0l-0.1,0l-0.1,0l-0.1,0l0,0l0,0h0l0,0l0,0l0,0l0,0l0,0l-0.1,0l0,0l0,0l0,0l0,0l0,0l0,0l0,0
		l0,0l0,0L35,36l-0.1,0l-0.1,0.1l-0.1,0l0,0l0,0.1l-0.1,0.1l-0.1,0l-0.1,0l-0.1,0L34,36.5l-0.1,0l-0.1,0l-0.1,0l-0.1,0l0-0.1
		l-0.2,0.1l0,0.1l-0.1,0l-0.1,0l-0.2,0l-0.2,0l-0.3,0.1l-0.2,0l-0.2,0l-0.1-0.1l-0.3,0.2l-0.4,0.2l-0.8-1.8L29,36.3L28.8,36l-0.1,0
		l0,0l0-0.1l0,0l-0.1-0.4l0-0.4l0.1-0.2l-0.1-0.5l0-0.4l0-0.3l0-0.2l0,0l0.2,0l0.2,0l0.1,0l0.1,0.9l0,0.5l0,0.5l0.2,0.1l0.1,0l0.1,0
		l1.4-0.7l0.6,0l0.4-0.2l0.6-0.1l0.7-0.1l0.2,0l0.1,0.3l0,0l0.1,0l0.1,0l0.1,0l0.1,0l0.1,0l0.2-0.1l0.1-0.1l0.1,0l0.1-0.1l0.1-0.1
		l0-0.1l0-0.1l0.1-0.2l0.1-0.2l0.1-0.2l0.1-0.2l0.1-0.2l0.1-0.2l0,0l0.1-0.1l0.1-0.3l0,0l0.1,0l0.1,0l0.1,0l0,0.2l0,0.2l0,0.2l0,0.1
		l0,0.1l0.1,0l0.1,0l0.1,0l0-0.1l0-0.1l0.1-0.1l0.2-0.1l0.5-0.3l0.4-0.3l0.1,0l0.1-0.1l0.2-0.2l0.3-0.2l0-0.2l0-0.1l0-0.1l0-0.1
		l0-0.1l0.1-0.2l0.1-0.1l0.1-0.1l0.1-0.2l0.2,0.1l0-0.1l0-0.1l0.1-0.4l0.1-0.4l-0.1-0.2l-0.1-0.2L38.7,29l-0.1-0.1l-0.1,0l-0.4,0.3
		l-0.3,0.3l0,0l-0.1,0l0,0.2l-0.1,0.3l0,0.1l0,0l0,0l0,0l0-0.1l0-0.1l0-0.2l0,0l-0.1,0l-0.1,0l-0.2-0.6l0.2-0.2l0.1-0.1l0,0l0.2-0.4
		l0.2-0.2l0.2-0.2l0.1-0.1l0.1,0l0.1,0l0.1-0.1l0.4-0.6l0,0v0l0-0.1l0.1-0.1l0.1-0.1l0.1,0l0.1,0l0.1-0.1l0.1-0.1l0.1-0.1l0,0l0-0.1
		l0-0.1l0-0.1l-0.1-0.3l-0.1-0.1l0-0.1l-0.1-0.1l-0.1,0l0,0l0,0l0,0l-0.1,0.1l-0.1,0.1l-0.1,0.1l-0.2,0.1L38.3,26l-0.1,0.1l0,0l0,0
		l0,0l-0.1,0l-0.1,0l-0.2,0.1l-0.1,0.1l-0.1,0l0,0l0,0l0,0l0,0v0l0,0l0,0l0,0l0,0l0,0l0,0l0,0.1l-0.1,0.1l-0.2,0.1l-0.1,0l-0.1,0
		l0,0l0-0.1l0,0l0,0L36.7,27l0,0.1l0,0l-0.1,0.1l-0.1,0.1l0,0l0,0l-0.1-0.1l-0.1,0l-0.1-0.1l0-0.1l0-0.1l0-0.1l0,0l0,0l0,0l-0.1-0.1
		l0,0l0,0l0,0l-0.1,0l-0.1,0l0,0l-0.1,0l-0.1,0l-0.1,0h0l0,0l0,0l0,0l0,0l0,0l0,0l0,0l0,0v0.1V27l0,0l0,0l-0.1,0l-0.1,0l0,0L35,27.2
		l-0.2-0.1l-0.1,0.1l-0.1,0.1l-0.1,0.1l-0.1,0.1l-0.1,0L34,27.6l-0.2,0.1l-0.1,0.1L33.6,28l-0.1,0.2l-0.1,0.1l-0.1,0.1l-0.1,0.1
		l-0.1,0.2l0,0.1l0,0.1l-0.1,0.2l0,0.2l0,0l0,0l0,0l0.1,0l0,0l0.1,0.1l0.1,0.1l0,0.1l0,0.1l0,0.1l0,0.1l0,0.1l0,0l0.1,0l0.1,0
		l0.3,0.1l0.3,0l0.2,0l0.2,0l0.3-0.1l0.2,0.3l0.2,0.3l-0.3-0.1l-0.2,0.5l0,0.1l0,0.1l0,0l0,0l-0.1,0l-0.1,0l-0.1,0l-0.1-0.1l0-0.1
		l-0.1,0L34,31.2l-0.4,0.2l0,0l-0.1,0l-0.1,0l-0.2,0l-0.1,0l0,0l0,0l0,0.1L33,31.7l-0.1,0.1l-0.1,0.1l-0.1,0l-0.2,0l-0.2,0l0.1-0.2
		l0,0l-0.1-0.1l-0.2,0l-0.2,0l-0.1,0h-0.1l0,0l0,0.2l0,0.1l0,0l0,0l0,0l0,0l-0.1,0l-0.2,0l-0.1,0l-0.1,0l0-0.2l0,0l0,0l-0.1,0
		l-0.1,0.1l-0.2,0.2L30.4,32l-0.2,0.1L30,32.1l-0.2,0.1l-0.4,0.1l-0.1,0l0,0l0,0l0.5,0.3l0,0l0,0.1l-0.2,0.5l-0.5,0.2l-0.1,0l-0.1,0
		l-0.2,0l-0.3-0.1l0,0l0-0.1l0,0l-0.1,0L28,33.2l-0.4,0.2l-0.3,0.2L27,33.7l0.1,0.1l-0.5,0.3l-0.2,0.1l-0.1,0l-0.2,0.1l-0.2,0.4
		l-0.4,0.7L25.1,36l-0.1,0.3l-0.2,0.4l-0.4,0.7l0.2,0.2l0.2,0l0.1,0.2l0.3,0.7L25,38.5l0.2,0.4l0.2-0.1l0.3,0.7l3.4-1.7l0.2,0.4
		l-3.1,1.4l-0.6,0.3L25.3,40l0.1,0.2l-0.1,0.2l-0.1,0.2L25,40.7l-0.1,0.1l-0.1,0.1l-0.1,0l0,0l0,0l-0.1,0l0,0v-0.2l-0.1,0l-0.1,0
		l0,0l-0.5-0.1L23.8,41l-0.1,0.3l-0.1,0.3l0,0.2l-0.1,0.4l-0.1,0.6l-0.1,0.6l0,0.6l0,0.3l0,0.3l0,0.2l0,0.2l0,0.2l0,0.1l0,0.1l0,0.1
		l0,0.1l0.1,0l0.1,0l0.2,0l0.2,0l0.1,0l0,0l0.2,0l0.1-0.2l0.1-0.1l0.1-0.1l0.2-0.2l0.2-0.1l0.2-0.1l0-0.1l0.2-0.1l0.2-0.1l0.1,0
		L26,44l0.2-0.3l0.1-0.1l0.1-0.1l0.1-0.1l0,0l0,0l0.1-0.1l0.1-0.1l0.1-0.1l0.1,0l0.1,0l0.2-0.1l0.1-0.1l0.1,0l0.1,0l0.4-0.6l0-0.1
		l0.1-0.1l0-0.1l0.2,0.1l0,0.1l0.2,0.2l0.3-0.2l0.5,0.8l0.1,0.2l0.1,0.1L29,43.7l0,0l0.1,0.2l0,0.1l-0.4,0.2l0,0l0,0.1l0,0l-0.2,0.1
		l-0.1,0.1l-0.2,0.1l-0.2-0.5l0,0l-0.1-0.2L27.4,44l-0.3,0.1l-0.1,0L27,44.3l-0.1,0.1l-0.3,0l0,0l0,0l0,0.1l-0.1,0.3l-0.2,0.4
		L26,45.3l-0.3-0.1l0,0l0,0l0.4,0.1l0,0.1l-0.4-0.1l0,0l0,0l0.2,0l-0.2,0.6l-0.2,0.1l-0.9,0.2l-0.1,0l-0.2,0.1l-0.1,0l-0.1,0l0,0
		l-0.1,0v0l0,0.1l0.1,0l0.1,0l0,0l0-0.1l0.2-0.1l0,0l0.1,0l0-0.1l0.2,0l0,0.2l0,0l0-0.2l0.1,0l0,0.1l0,0l0-0.1l0.2,0l0,0.2l0,0
		l0-0.2l0.2,0l0,0.1l0,0l0-0.1l0.1,0l0.1,0.1l0.1,0l0.1,0l0.1,0.1v0h-0.1l0,0l0,0.3l0,0.1l0,0.3l0,0.1l0,0.1l0,0.1l0,0l0,0l0,0.1
		l0,0l0,0l0,0l0,0l0,0l0-0.1l0.1,0l0,0.2l0,0.2l0,0.1l0,0.1l0,0l-0.1,0l0,0l0.1,0l0,0.1l0.1,0l-0.1,0l0,0l0,0l0,0.1l0,0.1l0,0.1l0,0
		l0,0l0,0.1l0,0l0,0l0,0l0,0l0,0l0,0l0,0.1l0,0.1l0,0l0,0l0,0.1l0,0.1l0,0.1l0,0.1l0,0.1l0,0v0l0,0.1l0,0.1L26.3,50l0,0l0,0l0,0l0,0
		l0.5-0.2l0.3-0.1l0.2,0.2l-0.6,0.2l-0.1,0.1l0.2,0.3l0,0.1l0,0l0,0.1l0,0l0,0l0.1,0.1l0,0.1l0,0l0,0l0.1,0l0,0l0.2,0.3l0,0l0,0.1
		l0.1,0.2l0.1,0l0.9-0.5l0.3-0.1l0,0l0,0l0.1,0.3l0.1,0l0.2,0.2l0,0l0.1,0.1l0.1,0.1l0,0l0,0.1l0.1,0.5l0.1,0.4l0,0.3l-0.1,0.1
		l0,0.2l-0.1,0.2l-0.6-0.1l-0.1,1l0,0l0,0l0,0l0.2,0L28.7,55l0,0.1l0.1,0.3l0.1,0l0,0.1l-0.1,0l-0.1,0l0,0l0.2,0l0,0.1l0.1,0
		l0.1,0.4l-0.1,0.1l0,0l-0.1,0l0.2,0.5l0.2,0.9l-0.4,0l0,0.1l0,0.2v0.2l0.1,0.6l-0.1,0l0,0.2l0.1,0l-0.1,0.4l0.2,0.4l-0.1,0.1
		l-0.2,0.3l-0.7-0.5l-0.3,0.8l0.6,0.4l-0.1,0.2L28,61.3l-0.1,0.1l-0.1,0.1l-0.1,0l-0.2,0.3l0,0.2l0.3,0.1l0,0.1L27.3,62l0,0l0,0.1
		l-0.1,0.1v0.1l0,0.1l0,0.2L27,62.9L26.9,63l-0.1,0.1l-1.2,0l-0.1-0.1l0-0.2l0,0l0,0.1L25.4,63L25.3,63l-0.1,0.1l-1.5,0l0-0.1
		l-0.1-0.1l-0.3,0l-0.2,0.2l-1,0l0,0.1l0,0.1l1.2,0v0.1h0.2l0-0.1l0,0l3,0l0.8,0.1l-0.8,0.1l-1.5,0.2l-1,0.1l-0.9,0.1l-0.4,0.1
		l-0.3,0.1L21.9,64l-0.4,0l0,0.2l0.1,0.1l0.3-0.1l0.4-0.1l0.7-0.1l0.8-0.1l0.8-0.1l1.5-0.2l1.7-0.1l0,0.3l-0.1,0.1l-0.2-0.1
		l-0.2-0.1v0l0.2,0.1l0.2,0.1l0,0.1l0,0.1l0,0.1l0.1,0.1l0,0.1l-0.1,0.1l-0.1,0.1l-0.1,0.1l0,0.1l-0.1,0.1L27.2,65l0,0l-0.1,0L27,65
		l0,0.1l-0.1,0l-0.1,0l-0.3-0.1L26.1,65l0,0l0.1,0.1l0.1,0l0.1,0l0.1,0l0.1,0l0.1,0l0,0.1l0.1,0l-0.3,0.4L26,65.5L26,65.8l-0.1,0
		l-0.1,0l0,0l0,0l0,0l0,0l0,0l0.9,0.2l0,0.3l0,0.1l0,0l-0.1,0.1l-0.2,0l0,0l0,0l0.1,0l0,0.1l0,0l0-0.1l0.1,0l0.1,0l0,0.1l0,0.2
		l-0.1,0l0,0l0,0l0,0l0,0l0.1,0l0.1,0l0,0.1l-0.4,0l0,0.9l0.7,0l0.1,0l0,0l0,0.2l0.1,0.5l0.1,0.1l0.1,0.1l0,0.1l0,0.1l0.1,0.1l0,0.1
		l0,0.1l0,0.1l0.1,0l0,0.2l0,0.5l0.1,0.6l0.2,0.5l0.1,0.2L28,72l0,0.1l0,0l0,0.1l0,0.1l0,0l0,0.1l0,0l-0.3,0l0,0l0,0l0,0l0,0l0,0
		l0,0l0,0l0.1,0l0,0.1l0,0.2l0,0.1l-0.2,0.1L26.9,73l0-0.2l-0.2,0l0,0.2l0,0l0.1,0l0,0l0,0l0.2,0l0.1,0.1l0,0.1l0,0l-0.1,0l-0.1,0
		l-0.5,0.1l0,0l0,0l0,0l0,0l0,0l0,0l0,0l0,0l0.9-0.2l0-0.3l0,0l0.7-0.1l0.1,0.2l0.1,0.1l0,0.2l0.2,0.3l-0.1,0l-0.1,0l-0.1,0l-0.1,0
		l-0.1,0l0,0l0,0l0,0l0,0l0.1,0l0.1,0l0.1,0l0.1,0l0.2,0l0,0l0,0.1l0,0.1l0,0.1l0,0l-0.1,0l0,0l0,0l0.1,0l0.1,0.2l0,0.1l0.1,0.1
		l0,0.1l0,0.1l0.1,0.3l0,0.1l0,0.1l-0.1,0.2l-0.3,0.2l-2,1.1l0,0l0.1,0l0.1,0.1l0,0.3l-0.1,0.1l0.1,0.2l0.1,0l0.1,0.1l0,0.1l0,0.2
		l0,0.1l0,0l-0.1,0.3l0,0.2l0.1,0l0.1,0l0-0.2l0-0.2l0-0.1l0.1-0.1l1-0.5l0.5-0.2l0.2,0.1l0.2,0.1l0.2,0.2l0.2,0.3L29.3,78l0,0l0,0
		l0,0l0,0l0,0l0,0l-0.1,0l-0.1-0.1l-0.1,0L29,78.1l0.1,0.1l0.1,0.1l0.2,0l0.2-0.1l0.1-0.1l0-0.1l0.4-0.2l0.1,0l0,0l0,0L29.9,78
		l0,0.1l-0.1,0.1l-0.2,0.1l-0.3,0.1L29,78.4l-0.1,0l0,0.1l0,0l0,0.1l0.2,0l0.3-0.1l0,0.1L29,78.9l0-0.1l-0.3,0l0.1,0.2l0.9-0.3
		l0.6-0.2l0.2,0.3l0.1,0.2l0,0.2l0,0.2l-0.1,0.1l-0.1,0l-0.1,0l-0.3-0.8l-1.2,0.4l-0.1,0l0,0.1l0.1,0l0.2,0.6l-0.1,0l0,0.1l1.2-0.3
		l0,0l0.1,0l0,0l0.1,0l-0.1,0L30,79.7l0,0l0.1,0l0.2,0.3l0.1,0l0,0.1l0.1,0.3l0.1,0.2l0,0.1l-0.1,0l-0.1,0l-0.3,0.1l0,0l0.5-0.1
		l0.1,0.2l0.3,0.7L31,81.8l-0.6,0.1l-0.1,0l0.1,0l0.3-0.1l0.3-0.1l0,0l0,0l0,0.1l0,0l0,0l0,0l0,0l0,0l0,0l0.1,0.2l0.2,0.3l0.1,0.2
		l0.1,0.2l0,0.1l-0.1,0.1l-0.1,0l-0.1,0l0,0l0,0l0.1,0l0,0l0,0l0.1-0.1l0.1,0l0,0l0,0.1l0.1,0l0,0.1l0,0.1l0,0.1l0.2-0.1l0.1,0.1
		l0,0.1l0,0.1l-0.1,0.1l0.1,0.2l0.1,0.2l0.1,0.2l0,0.1l0,0.1l-0.1,0l-0.3,0.1l0,0l0.4-0.2l0,0L32,85l0.4,0.8l0.1,0l0,0l0.1,0
		l0.1,0.2l0,0.1l0.1,0l0,0.1l-0.1,0.1l0.2,0.3l0.1,0.3l0,0.1l0.2,0.4l0,0L33,87.1l0.1,0l0,0l0,0.1l0.1,0.1l0.1,0l0,0l-0.3,0.1l0,0
		l0.5-0.2l0.1,0.2l0,0l-0.1-0.2l0.4-0.1l0.1,0.2L34,87.5l-0.3,0.1l0,0.2L33.3,88l0.2,0.2l0.1-0.1l0,0l0,0l0,0l0,0l0,0l0,0l0,0
		l-0.1,0.1l0,0l0,0l0,0l0,0l0,0l0.1,0l0,0l0,0l0,0l0,0l0-0.1l0.1,0l0,0.2l0.1,0l0,0.1l0,0l0,0l0.1,0.2l0.6-0.4l0.1,0.1l0,0.1l0,0
		l0.1,0.1v0.2l-0.5,0.3v0l0,0l0.1,0l0.2-0.1l0,0l0,0.1l0,0.1l0.1,0.1l0.1,0.1l0,0l0-0.1l0,0.1l0.1,0.1l0.1,0l0,0l-0.2,0.1l-0.2,0.2
		l0,0.1l0.1-0.1l0.2,0.2l0,0.1l0.1,0.2l0,0.1l0.1,0.1l0.5-0.3l-0.2-0.4l0.2-0.1l0.4,0.6l-0.6,0.2l0,0.2l0,0l0,0l-0.1,0l0,0l0,0
		l0.1,0l0.1,0.1l0.1,0l0,0l0.1,0l0,0.1l0,0l0.1-0.1l0-0.1l0-0.2l0.1,0l0,0l0.3-0.1l0,0.2V91l-0.1,0l-0.1,0l0,0.1L36,91.3l0,0
		l0.6-0.1l0,0.1l0,0.1l-0.3,0.1l-0.1,0.2l0.4-0.2l0.1,0.3L36.6,92l-0.2,0.2l0,0.1l0,0l0,0l0,0l0.2-0.1l0.2-0.1l0.2,0.7l0.4-0.1
		l0.1,0.2l0.1,0.3l-0.1,0.1l-0.1,0l0,0l0,0l0,0l0,0l0.1,0l0.1,0l0,0.1l0.1,0.2l0.1,0.4l0,0.1l0,0.1l0,0l0,0l0,0l0.1,0l0,0.4l0,0.4
		l-0.1,0.2l0.1,0.4l0.1,0.3l0,0.2l0,0.3l-0.1,0.2l0,0l0.1,0.3l0.1,0l0.1,0.4l0.1,0l0,0.3l0,0.2l0,0.2l0,0.3l-0.1,0l-0.1,0l-0.9,0.1
		l0,0l0,0.1l0,0.1l0,0l0-0.2l0.2,0l0,0.1l0,0l0,0l0-0.1l0-0.1l0.6-0.1l0.1,0.2l0,0.3L38.1,99L37.9,99l-0.4,0.1l0,0.1l0,0l0-0.1
		l0.1,0l0.2-0.1l0.1,0l0,0l0,0l0,0l0.2-0.1l0.1,0.1l0.1,0.1l0,0.2l-0.1,0l-0.1,0l0,0l0.2,0l0,0.5l-0.6,0.1l0,0l-0.1,0l0,0.1l0,0
		l0-0.1l0.6-0.1l0.1,0.5l0.3,0l0.1,0.2l0,0.2l0,0l0,0l0,0l0,0.3l0,0.2l0,0.1l-0.1,0.2l-0.1,0.1l-0.1,0.2l-0.1,0.1l-0.3,0l-0.2,0
		l-0.2,0l0-0.1l0.1-0.1l0.1,0l0,0l0,0l0,0l0,0l0,0l-0.1,0l0,0l-0.1,0l0,0l0,0l-0.1,0.1l0,0.1l0,0l-0.1,0v0l0,0l0.1,0l0,0.1l0.1,0.1
		l0,0l0.4,0.1l0.2,0l0.2,0l-0.1,0.2l0,0.1l0.1,0l0,0.1l0,0l0,0.2l-0.1,0.2l-0.1,0.5l0,0l0.1,0l0,0l0,0l0,0.1l-0.2,0.6l-0.5,0.1l0,0
		l0.5-0.1l0,0l0,0l0,0.1l0,0.1l-0.2,0l0,0.1l0,0.1l0,0.1l-0.7-0.2l0,0l0.7,0.1l0,0.6l0,0.3l0,0.4l0,0l-0.3,0.1l0,0l0.3-0.1l0.2,0
		l0,0l0,0.1l0,0.1l0,0.2l0,0.2l0.4,0.4l0.1,0.1l0.1,0.1l0,0.1l0.1,0.2l0,0.1l0,0.1l0,0.3l-0.1,0.1l0.1,0l0,0.5l0,0.3l0,0.2l0,0.1
		l0,0.1l0,0.1l-0.4,0l0,0.2l0.1,0v0l0,0l0,0.1l0,0.1l0.1,0l0.1,0l0,0l0,0l0-0.1l0-0.1l0,0l0.1,0l0.1,0l0,0.1l0,0l0,0.1l0,0.1l0,0.1
		l-0.1,0.1l-0.1,0l-0.1,0h-0.1l0,0l0,0l0,0l0.1,0l0.1,0l0,0l0,0.1l0,0.1l0,0.1l0,0l0.1,0l0,0l0,0.1l0,0.1l0,0.1l-0.1,0l0,0l0,0.1
		l-0.1,0l0,0.4l0.1,0l0,0l0,0l0.1,0.1l0.1,0l0,0l0.2,0.1l0.3,0.6l0.1,0l0.1,0.1l0,0.1l0,0.1l0,0.1l-0.1,0.2l-0.2,0l0,0l0,0v0l0.1,0
		l0.1,0l0,0l0.1,0.1l0,0.1l0,0.1l0,0.1l0,0.1l-0.1,0.2l0,0l0,0l0,0v0l0,0.1l0,0.1l0,0l0,0.1l0,0.1l-0.1,0.3l-0.2,0.4l-0.1,0l0,0l0,0
		l0,0l0,0l0,0l0,0l0,0l0.1,0l0,0l-0.2,0.4l-0.2,0.2l-0.5-0.2l0-0.1l0-0.1l0,0l-0.1,0l0,0.1l0,0l0,0l0,0l0.1,0l0,0l0,0l0.5,0.2l0,0
		l0,0.2l-0.1,0.1l0,0l0,0l-0.3-0.1l0,0l0,0l0.1,0.1l0.1,0.1l0,0.1l-0.2,0.4l-0.1,0.2l-0.1,0.1l0,0l0,0l-0.1,0.2l-0.2,0.4l-0.3,0.5
		l-0.4,0.5l-0.2,0.2l-0.1,0.3l-0.2,0.4l0,0.3l0,0.1l-0.1,0.2l0,0.1l0.1,0.2l-0.3,0.5l-0.3,0.4l-0.3,0.5l-0.6-0.1l0,0.1l0.1,0l0-0.1
		l0.1,0l0,0l0,0l0.1,0l0.1,0l0,0.1l0,0.1l0,0l0,0l0,0.1l0,0.1l0,0.1l-0.2,0.3l-0.1,0.2l-0.4-0.1l0,0.1l0,0l0,0.1l0,0l0,0l0.1,0l0,0
		l0,0l0,0l0.1,0l0,0l0,0.1l0,0.1l0,0.1l0,0l-0.1,0h0l0,0l0,0l0,0l0,0l0,0l0,0l0,0l0,0l-0.1,0l0,0l0,0l0,0.1l0,0l0,0l0.1,0.1l0,0.2
		l0.1,0.1l0.1,0.1l0,0.3l-0.1,0.2l-0.1,0.2l-0.1,0.2l-0.3-0.1l0,0.3l0,0l0,0l0,0l0,0l0-0.2l0.2,0l0,0l0,0.1l0,0l0,0.1l0,0l0-0.1
		l0-0.1l0.2,0l0,0.1l0,0.1l0,0l0,0.7l0.1,0.2l0,0.1l0,0.1l0.1,0.2l0,0.1l0,0.1l0,1.1l-0.1,0.5l-0.1,0.1l-0.1,0.4l-0.2,0.4l-0.1,0.4
		l-0.2,0.3l-0.2,0.3l-0.2,0.4l-0.2,0.2l-0.2,0.3l-0.2,0.2l-0.2,0.3l-0.2,0.3l-0.2,0.2l-0.2,0.2l-0.3-0.2l-0.2-0.1l-0.2,0.2l0,0l0,0
		l0-0.1l0.1-0.1l0.1,0l0.1,0l0.1,0.1l0,0.1l0.1,0l0,0l0.2,0.1l-0.1,0.2l-0.1,0h-0.1l-0.1,0l0,0l0.1,0l0.1,0l0,0.1l-0.1,0.3l-0.1,0.1
		l-0.1,0l0,0.1l0,0.1l-0.1,0.1l-0.1,0l-0.1,0.1l-0.1,0.1l-0.1,0.1l0,0.1l-0.1,0l0,0.3l-0.2,0.2l-0.2,0.3l-0.1,0.1l-0.1,0.2l-0.2,0.2
		l-0.2,0.2l-0.1,0.2l-0.2,0.2l-0.2,0.3l-0.1,0.1l-0.2,0.2l-0.1,0.1l-0.2,0.3l0,0.4l0.1,0.1l0,0.2l0,0.1l-0.1,0.1l0,0.1l0,0.1
		l-0.2,0.2l-0.2,0.2l0,0.2l-0.1,0.2l-0.2,0.2l-0.3,0.1l-0.1-0.1l0,0l0-0.1l0-0.1l0-0.1l0,0l-0.1,0.2l-0.1,0l-0.1,0l0,0l-0.1,0
		l-0.1,0.3l0,0l0.1-0.3l0.2,0.1l-0.1,0.2l0,0l-0.1,0l0,0l0.1,0l0,0l0,0l0,0.1l0,0.1l0,0.2l0,0l0,0l0-0.1l0-0.1l0.1,0l0.1,0l0.1,0.1
		l0.1,0.1l0,0.1l0,0.1l0,0.3l0.1,0.5l0,0.3l0,0.1l0,0l-0.1,0.2L29,141l-0.1,0.1l-0.1,0l-0.1,0l-0.1,0l0,0l0.2,0.1l0.2,0.2l0.2,0.2
		l0.2,0.3l0.2,0.3l0,0l0,0.2l0,0.2l0,0.1l0,0.1l0.1,0l0.1,0.2l0,0.2l0.1,0.7l-0.1,0.8l-0.1,0.5l-0.8,0l0,0.2H29l0-0.1l0.7,0l0.1,0.3
		l-0.1,0.4l0.1,0.6l0.1,0.3l0.2,0.3l0.1,0.4l0.1,0.4l0,0.5l0,0.4l0.1,0.1l0,0.3l0.2,0.1l0,0.8l0.2,0l0.1,0.2l0,0.3l0.1,0l0.1,0.6
		l0.2,0.1l0.1,0.3l0.1,0.4l0,0.4l0,0.5l0.4-0.2l0.2,0.2l0.2-0.1l0.2,0.4l0.2,0.5l0.2,0.6l0.4,0.9l0.2,0.2l0.2,0.3l0.3,0.3l0.3,0.3
		l0.7,0.7l0.2,0.1l0.3,0.1l0.2,0.2l0.1,0.2l0.1-0.1l0.2,0.1l0.3,0.3l0.3,0.1l0.2,0.2l0.3,0.1l0.4,0.4l0.1,0l0.6,0.5l0.2,0.1l0.2,0
		l0.4,0l0.5,0.2l0.2,0.1l0.5,0.4L41,160l0.5,0.8l0.3,0.3l0.3,0.1l0.4,0.4l0.5,0.7l0.2,0l0.2,0.6h0.2l-0.1,0.2l0.2,0.2l0.2,0.1l0,0.2
		l0.2-0.1l0.1,0.2l0.2,0.3l0.1,0.2l0.6,0.2l0.1,0.2l0.4,0.4l0.2,0.5l0.2,0.2l0.2,0.1l0.2,0.4l0.3,0.3l0.3,0.1l0.1,0.2l0.2,0.1
		l0.4,0.4l0,0l0.1,0.4l0.3,0.3l0.3,0l0.1,0.2l0.3,0.3l0.2,0.6l0.2,0.2l0.4,0.1l0.3,0.3l0.3,0.4l0.1,0.2l0.3,0.3l0.1,0.2l-0.1,0.2
		l0.6,0.2l0,0.2l0.2,0l0.5,1l0.3,0.5l0.2,0.3l0.1,0.9l0.2,0.5l0.4,0.3l0,0.1h0.1v-0.1l-0.1,0l-0.5-1l-0.4-1.4l-0.5-0.9l-0.8-0.8h0.2
		l-0.5-0.5l-0.3-0.8l0.5-0.2l0.3-0.4l0.1,0l0.4,0.3l0.2,0.3v0.2l0.3,0.4l0.1,0.3l0.2,0.2l0.2,0.4l0.3,0.3l0.4,1.8l0.4,1l0,0.2
		l0.1,0.1l0.2,0.6l0.4,0.7l0.2,0.6l0.2,0.3l0.1,0.3l0.1,0.1l0.2,0.5l0.3,0.4l0.1,0.3l0.2,0l0.4,0.4l0.2,0.5l0.1,0.2l0.2-0.1l0.1,0.4
		l0.2,0.2l0.2,0.2l0.2,0.3l0.2,0.3l0.2,0.2l0.2,0.5l0.2,0.4l0.2,0.4l0.2,0.2l0.2,0.3l0.1,0.3l0.2,0.4l0.2,0.5l0.2,0.2l0.2,0.3
		l0.2,0.2l0.1,0.3l0.5,0.8l0.3,0.4l0.2,0.3l0.2,0.4l0.3,0.4l0.1,0.3l0.2,0.4l0.3,0.5l0.5,1.3l0.2,0.4l0.2,0.6l0.2,0.4l0.3,0.9
		l0.1,1.4l0,0.5l0,0.2l0.1,1.1l0,0.9l0,0.7l0.1,0.5l0.2,0.7l0.1,1l0.1,0.3l0.1,0.2l0.3,1.2l0.1,0.6l0.2,0.4l0.2,0.6l0.2,0.5l0.2,0.8
		l0.1,0.4l0.3,0.3l0.2,0.6l0.2,0.1l0.3,0.5l0.2,0.2l0.1,0.4l-0.1,0.5l-0.1,0.4L66,207l0.2,0.3l0.3,0.2l0.3,0.7l0.3,0.6l0.2,0.4
		l0.3,0.3l0.2,0.3l0.2,0.3l0.1,0.3l0.1,0.5l0,0.2l0.1,0.3l0.1,0.2l0.2,0.7L69,213l0.1,0.5l0.1,0l-0.1-0.8l-0.2-0.6l-0.2-0.6
		l-0.1-0.3l-0.1-0.3l0-0.2l-0.2-0.6l-0.1-0.4l-0.1-0.4l0-0.3l0.1-0.4l0.1-0.1l0.1-0.2l0.1-0.3l0.2-0.2l0.1-0.3l0.1-0.3l0.1-0.2
		l0.2-0.2l0.1-0.2l0.1-0.1l0-0.1l0.1-0.2l0.2-0.2l0.1-0.1l0.2,0.2l0.6-0.8l0.4-0.4l0.2-0.3l0.3-0.3l0.3-0.3l0.6-0.7l0.7-0.7l0.5-0.5
		l0.4-0.4l0.3-0.1l0.7,0.3l0.7,0.4l0.8,0.4l0.8,0.4l0.1-0.2l0-0.1l-0.1-0.1l-0.2-0.1l-0.2-0.2l-0.2-0.3l-0.1-0.3l0.2,0l0.1,0.3
		l0.1,0.2l0.2,0.2l0.1,0l0.1,0l0.1-0.1l0.2-0.4l0-0.2l0-0.2l0-1.1l0-0.2l-0.1-0.2l-0.1-0.2l-0.1-0.1l-0.1,0l-0.1,0l-0.1,0.1
		l-0.1,0.1v0.1l0,0.1l0.1,0.2v0.1l0,0l-0.1,0l-0.1,0l0,0.1l0.1,0.2l0.1,0.3v0.2l-0.1,0.2l-0.1,0.1l-0.2,0.1l-0.1,0.1l-0.2,0l0,0
		l-0.1-0.2l-0.1,0l-0.2,0l-0.3,0l-0.4-0.1l-0.3-0.2l-0.3-0.2l-0.2-0.3l-0.2-0.3l-0.1-0.4l0-0.4l0.1-0.3l0.1-0.3l0.1-0.2l0.2-0.2
		l0.2-0.2l0.2-0.1l0.3-0.1l0.3,0l-0.2,0.2l-0.3,0.1l-0.2,0.1l-0.2,0.2l-0.2,0.2l-0.1,0.2l-0.1,0.2l0,0.2l0,0.3l0,0.2l0.1,0.2
		l0.1,0.3l0.2,0.3l0.3,0.2l0.3,0.1l0.3,0l0.3,0l0.2,0l0.2-0.1l0.1,0l0.1-0.1l0-0.1l0-0.1l0-0.1l0.1,0l0.1,0l0-0.1l0-0.1l-0.2-0.6
		l-0.3-0.2l0-0.1l0-0.1l0.1,0l0.1,0l0.5-0.2l0.1-0.1l0-0.1l0-0.1l0-0.1l-0.1-0.2l-0.2-0.2l-0.2-0.2l-0.2-0.1l-0.3-0.1l-0.2,0l-0.2,0
		l0.1-0.1l0.1-0.1h0.2l0.2,0l0.2,0l0.2,0.1l0.1,0l0.1,0l0-0.1l0-0.1l-0.1-0.4l-0.1-0.4l-0.1-0.3l-0.1-0.4l0-0.3l0-0.3l0-0.3l0.7,0
		l0.1,0.4l0.1,0.3l0.1,0.4l0.1,0.3l0.2,0.3l0.3,0.4l0.3,0.3l0.4,0.3l0.4,0.2l0.2,0.1l0.1-0.2l0.2-0.2l0.1-0.2l0,0l-0.2,0.1l-0.2,0
		l-0.2-0.1l-0.2-0.3l-0.2-0.4l-0.2-0.5l-0.2-0.4l-0.1-0.4l-0.1-0.7l0-0.5l0-0.4l0.1-0.3l0.1-0.3l0.1-0.3l0-0.1l-0.1-0.1v-0.1l0-0.2
		l0.1-0.1l0.1-0.1l0.1,0l0.1,0l0.1,0.1l0.1,0.1l0.1,0.1l0.1,0l0.2,0l0.1-0.1l0.1-0.1l0.1-0.1l0-0.2l0-0.3l0.1-0.2l0.2-0.1l0.2,0.1
		l0.2-0.3l0.3-0.2l0.4-0.2l0.4-0.1l0.3-0.1l0.4,0l0.4,0l0.2,0.4l0,0l0-0.1l0-0.1l0-0.2l0-0.2l-0.5-0.1l-0.4-0.1l-0.4,0l-0.4,0
		l-0.4,0l-0.4,0.1l-0.4,0.1l-0.4,0.2l-0.3,0.1l-0.2,0.1l-0.3-0.5l-0.5,0.4l-0.1-0.1l0.5-0.4l0-0.1l0-0.1l0.1,0l0.1,0l0.1-0.1l0-0.1
		l0-0.1l0.1,0l0.1,0l0.1,0l0.1,0l0.1,0l0.1,0l0.1,0l0.1,0l0.1,0l0.1,0l0,0l0,0l0,0l0-0.1l0-0.1l-0.1,0l-0.1,0l-0.1,0l0,0l0,0l0-0.1
		l0,0l0,0l-0.1,0l-0.1,0l-0.1,0l-0.1,0l-0.1,0l-0.1,0l-0.1,0l-0.1,0l-0.1-0.1l0,0v0l0,0l0,0l0.1,0l0.1,0l0.1,0l0.1,0l0.1,0l0.1,0
		l0.1,0l0.1,0l0.3,0l0-0.4l0.1-0.2l0.1-0.1l0.1-0.1l0.1,0l0.1,0l0.1,0l0.1,0l0.1,0.1l0.1,0l0.1,0l0.1,0l0,0l0,0l0,0l0,0.1l0,0h0l0,0
		l0-0.1l0-0.1l0,0l0,0l0,0l0,0l0,0l0,0l0,0l0,0l0,0l0,0l0,0l0,0.1l0,0l0,0l0,0.1l0,0l0,0l0.4,0.2l0.1-0.1l0.2,0l0,0.2l0.3-0.1l0-0.1
		l0-0.1l0-0.1l0-0.1l0-0.1l0.1-0.1l0.1-0.1l0.1-0.2l0.2,0.1l0.2,0.1l0.2,0.1l0.2,0.1l0.1-0.3l0,0l0-0.1l0.1,0l0-0.3l-0.1,0l-0.1,0
		l-0.1,0l-0.1-0.1l-0.1-0.1l-0.1-0.1l-0.1-0.1l0-0.1l0-0.1l0-0.1l0-0.1l0-0.1l-0.1,0l-0.1,0l0,0l-0.1-0.1l0,0l0,0l0,0l0,0l0,0l0,0
		l0,0l0,0l0,0l0,0l0,0l0,0.1l0,0l0,0l0,0l0,0l0,0l0-0.1l0-0.1l0.1-0.3l0-0.1l0.1-0.1l0,0l0,0l0,0l0,0l0-0.1l0-0.1l0-0.1l0-0.1l0,0
		l0.1,0l0.1,0l0,0l0,0l0,0l0.1-0.4l-0.2-0.2l-0.2-0.2l-0.2-0.3l-0.1-0.3l-0.1-0.2l0-0.2l0-0.2l0-0.3l0.1-0.3l0.1-0.2l0.1-0.2
		l0.2-0.2l0.2-0.2l0.2-0.1l0.1-0.1l0.1,0.2l-0.1,0.1l-0.2,0.1l-0.2,0.1l-0.2,0.2l-0.1,0.2l-0.1,0.2l-0.1,0.2l0,0.3l0,0.2l0,0.2
		l0.1,0.2l0.1,0.2l0.2,0.2l0.2,0.2l0.2,0.2l0.1,0l0.1,0l0.1,0l0.1,0l0.1,0l0.1,0l0.1,0l0,0.1l0,0.1l0.1,0.1l0.1,0.1l0.1,0l0.1,0
		l0.1-0.1l0-0.1l0-0.1l0.1-0.1l0.2,0l0.1,0l0.1,0.1l0,0.1l0,0.1l-0.1,0l0.2,0l0,0l0.1,0.1l0.1,0l0.1,0l0.1,0l0.1-0.1l0.1-0.1l0-0.3
		l0-0.2l0-0.1l-0.1-0.1l-0.1-0.1l-0.1-0.1l-0.2-0.1l-0.2,0h-0.2l-0.2,0l-0.2,0.1l-0.1,0.1l-0.1,0.1l-0.1,0.1l-0.1,0.1l-0.1,0.3
		l-0.1,0l-0.1,0l0.1-0.1l0-0.1l0-0.1l-0.1-0.1l-0.4-0.3l0.1-0.3l0-0.2l0-0.2l0.1-0.2l0.1-0.1l0.1-0.1l0.1-0.1l0.1-0.1l0.1,0l0,0l0,0
		l0,0l0,0l0,0l0.1,0l0.4,0.1l0.1,0l0.1,0l0.1-0.1l0-0.1l0-0.1l0,0l0.1,0.1l-0.1,0.1l-0.1,0.1l-0.1,0.1l0,0.2l0,0.1l0,0.1l0,0.1
		l0.1,0.1l0.1,0.1l0.1,0.1l0.2,0.1l0.2,0l0.2,0l0.2,0l0.2,0l0.1-0.1l0.1-0.1l0.2-0.2l0-0.1l0-0.1l-0.1-0.1l-0.1-0.1l-0.1,0l-0.1,0
		l-0.1,0l-0.1,0.1l-0.1,0l-0.2-0.1l-0.1-0.1l0-0.1l0.1-0.1l0.1-0.1l0-0.1l0-0.1l-0.1-0.1l-0.1-0.1l-0.1,0l-0.1,0l-0.1,0l0,0
		l-0.1-0.1l-0.1-0.1l0-0.1l-0.1-0.1l-0.1-0.1l-0.2,0l-0.2,0l-0.3,0l-0.2,0l-0.1,0.1l-0.1-0.1l0.1,0l0.1-0.5l0-0.2l0-0.1l-0.5-0.7
		l-0.2-0.4l-0.1-0.4l-0.1-0.4l0-0.8l0.3-0.2l0.1-0.1l0.1-0.1l0-0.2l-0.1-0.2l0-0.2l0-0.3l-0.1-0.2l0-0.2l-0.1-0.6l0-0.2l0.2-0.1
		l-0.1-0.2l-0.1-0.3l0-0.2l0.1-0.8l0-0.1l0-0.1l0.1-0.1l0.1-0.3l0.1-0.1l-0.1-0.5l0.1-0.5l0-0.3l0-0.3l0.1-0.2l0-0.2l0.1-0.4
		l-0.1-0.5l0.1-0.7l0-1l0,0l0-0.5l0-0.5l0-0.5l0.4,0.1l0.1,0l0,0l0.2-0.6l0-0.6l0,0l0,0l-0.1-0.1l-0.1-0.1l0.1-0.1l0,0l0.1-0.2
		l0.1-0.1l0.1-0.6l0.1,0l1.8-0.2l0,0l0.1,0l0.1,0.2l0-0.2l0.1,0l0.1,0.2l-0.1-0.3l-0.6,0.1l-0.1,0l-1.4,0.2l-0.5,0.1l0-0.1l-0.3,0.2
		l-0.4,0.2l-0.5,0l-0.3-0.1l-0.1-0.4l0.1-0.2l0.2,0.1l0.3,0l-0.2-0.1l-0.1-0.1l0-0.2l0-0.2l0-0.1l0.4-0.2l0.1-0.3l0.1-0.2l-0.1-0.2
		l0.2-0.2l0.2,0l0.1-0.2l-0.1-0.2l0.1-0.2l-0.1-0.3l0-0.2l0.2-0.3l0-0.3l0.1-0.1l0-0.2l0-0.4l0-0.3l0.2-0.1l0.1-0.1v-0.2l0-0.2
		l0.1-0.2l0.2-0.2l0-0.3l0.2-0.3l0-0.2l0.1-0.2l0-0.2l0.1,0l0.1-0.1l0-0.2l0-0.2l-0.1-0.3l0-0.4l0-0.3l0.1-0.2l0.2-0.1l0.1-0.1
		l0.1-0.1l0.1-0.1l0.1-0.3l0.1-0.2l-0.1-0.2l-0.1-0.1l0-0.2l-0.1-0.2l-0.2-0.1l-0.2-0.1l-0.1-0.2l-0.2-0.3l0.1-0.4l0.2,0l-0.1-0.2
		l0.1-0.2l0-0.2v-0.1l0.1-0.2l0-0.1l-0.1-0.2l0-0.4l0.1-0.1l0.2-0.3l-0.1-0.2l0-0.3l-0.1-0.2l0.1-0.3l0.2,0L85,152l0,0.2l0.1,0
		l0.2,0l0.1-0.1H85l0-0.2l0.1,0l0,0l0.2,0l0,0.1l0,0l0-0.2l0,0l0,0.1l-0.4-0.2l-0.1,0l0-0.3l0.1-0.3l0.3-0.3l0.2,0l2.3,0l0,0.2
		l0.2,0l0-0.3l0.1,0l0-0.1l-0.3,0l-0.2,0l-0.1,0.1l-2.2-0.1l0-0.1l0-0.4l0.3,0l0-0.1l-0.3,0l0-0.1l-0.1-0.1l0.4,0l0.1-0.1l-0.1-0.2
		l0-0.1l-0.1,0l0-0.1l0.1,0l0,0.1l0,0l0-0.1l-0.1-0.1l0,0v0h-0.2l0.1-0.1l0-0.1l-0.4,0l0.1-0.2l0.2-0.1l0.1,0.1l0,0l-0.1-0.2l0-0.7
		l-0.7,0l0-0.3l0.1-0.1l0.1-0.2l0-0.4l0.1-0.1l0-0.1l-0.1-0.1l0-0.2l0-0.2l0.1-0.2l0,0l0-0.6l0.1-0.1l-0.1-0.1l-0.1-0.2l0-0.1
		l-0.1,0l-0.1-0.2l0.1-0.1l-0.1-0.5l0.2-0.2l-0.1,0l-0.1-0.1l0.1-0.2l0-0.2l-0.1-0.2l0-0.2l-0.1-0.2l0.1-0.3l0.4,0.1l0.5,0.1l0-0.1
		l0.3,0.1l0,0l-0.3-0.1l0.1-0.1l-0.1,0l-0.1,0.1l-0.3-0.1l0.1-0.3l0.8,0.2l0.1-0.1l0.2,0.1l0,0.1l-0.1,0l0,0l0.1,0l0-0.1l0.4,0.1
		l0,0.1l0.1,0l-0.1,0.2l0.1,0l0.1-0.2l0-0.1l-0.8-0.3l-0.3,0l-0.2,0l-0.1,0l-0.2-0.1l-0.3-0.1l0-0.1l0-0.2l0.1-0.4l0.1-0.4l0.1-0.3
		l0.6,0.1l0-0.1l-0.6-0.1l0-0.1h0.4l0-0.3l0.2,0v0l0.1,0l0-0.1l-0.1,0l0,0l-0.3,0L86,140l0-0.4l0-0.8l0.1-0.4l0.1-0.3l0.2-0.3
		l0.1-0.2l-0.1-0.2l-0.2-0.2l0-0.7l0.2-0.1l0.2-0.5l0.1-0.2l0-0.1l-0.1-0.1l-0.1-0.1l-0.1-0.1l0-0.1l0.1-0.8l1.1,0l0-0.1l-0.9,0
		l0-0.1l-0.1-0.3l0-0.4l0.1-0.3l0.2-0.2l0.2-0.3l0.1-0.4v-0.3l0.2-0.2l0-0.9l-0.1,0l-0.1-0.2l0-0.5l0-0.5l0.1-0.4l1,0.2l0.1-0.5
		l-0.1,0l0.1-0.6l0.2-0.5l-0.7-0.2l0.1-0.4l2.1,0.5l0.3-1.9l-0.1-0.1l0-0.2l-1.2-0.1l-0.1-0.1l-0.1-0.7l0-0.5l0.1-0.4l-0.1-0.7
		l0.1-0.5l0-0.5l0.1-0.5l0-0.3l1.7,0l0.1-0.5l0-0.2l-0.1-0.2l-0.1-0.1l0-0.1l0-0.1l0-0.3l-0.1-0.2l-0.1-0.2v-0.1l0.1-0.1l0.1-0.1
		l0.1,0l0.1,0l0,0.1l0.1,0l0.1,0l0.1-0.1l0.2,0l0.1-0.1l0.1-0.1l0-0.1l0-0.6l-0.1-0.1l-0.1,0l-0.4,0l0-0.2l-0.1,0.2l-1,0.8l-0.2-0.4
		l0.2-0.2l0,0l0.3-0.4l0.5-0.6l0,0l0,0l0.1,0l0.2-0.2l0.1-0.1l0.1-0.1l0.1-0.1l0.2-0.3l0.1-0.3l0.2-0.3l0.1-0.1l0.1-0.3l0-0.3
		l-0.1-0.1l-0.4-0.1l-0.2-0.2l-0.4-0.1l0-0.2l0,0h0l0,0l0-0.2l0,0l0,0l0,0l-0.1,0l0,0.1l0,0.2l0,0.2l-0.1,0l-0.1,0h-0.1l-0.1,0
		l-0.1-0.1l-0.1-0.1l0.1-0.1l-0.1,0l-0.4-0.2l0.1-0.2l-0.2-0.3l-0.1-0.1l-0.4-0.2l-0.2-0.1l-0.2,0l-0.2-0.1l-0.1-0.1l-0.2-0.3
		l-0.1-0.3l0-0.3l0-0.7l0-0.2l0.1-0.1l0.1-0.3l0-0.1l-0.1,0l-0.2-0.1l-0.1-0.1l0-0.1l0.2,0l0.2-0.1l-0.1-0.2l0-0.2l-0.1-0.1l0-0.1
		l0-0.5l-0.1-0.3l-0.1-0.3l0-0.2l-0.1-0.5l0-0.5l-0.1-0.3l0-1l0.1-0.3l0-0.3l0-0.2l0-0.4l0.1-0.6l0.2-0.4l0.3-0.4l0.2-0.2l0.2-0.2
		l0.1,0.1l0.2-0.1l0.3,0l0.3,0l0.1,0.1l0,0l0-0.2l0.2,0l0,0.1l0.1,0l0-0.2l-0.2,0l0-0.1l0-0.1l0.1,0l0.2-0.2l0-0.1l-0.2-0.1l-0.2,0
		l-0.1,0l-0.1,0l0-0.1l-0.2-1.3l0-0.2l-0.1-0.1l0-0.1l0.7,0l0.2,0.1l0.3,0.2l0.2,0l0.4-0.1l0.5,0l0.1,0l0-0.2l0.1-0.1l0-0.2
		l-0.1-0.1l0-1.7l-0.1,0l0-0.2l-0.1,0l0-1.2l0.3,0l0-2.7l-0.6,0l-1.9,0l-0.1-0.3l-0.3-0.1l-0.3,0L87,94.3l-0.2-0.1l0-0.1l0.2,0
		l0-0.1l0-0.6l3.5,0l-0.1-1.5l-1.9,0l-1.4,0l-0.7,0l0-0.4l0-0.3l0.1-0.3l0.2-0.2l0.1-0.2l0.1-0.2l0.1-0.2l0.2-0.4l0.3-0.4l0.4-0.3
		l0.2-0.2l0.2-0.2l0.3-0.4l0.2-0.1l0.3,0.2l0.3,0.2l0.3,0.3l0.2,0.2l0.2,0.2l0.2,0.1l0.1,0.1l0.4,0.3l0,0l-0.1-0.1v-0.1l0,0l0,0l0,0
		l0.1,0.1l0,0l0,0l0.1-0.1l0.1,0l-0.2-0.1l-0.2,0l-0.2-0.2l-0.1-0.1l-0.1,0l0-0.1L90,89L90,88.8l0,0l-0.1,0l-0.1-0.1l-0.3-0.3l0-0.1
		l0-0.1l0.1-0.1l0.4,0h0.3l-0.2,0l-0.2-0.1l0.3-0.1l0.2-0.2l0.3-0.2l0.1,0l-0.1-0.1l0-0.1l-0.1,0l0,0.2l-0.3,0.2l-0.1,0.1l-0.2,0
		l-0.2-0.1l-0.2-0.1l-0.2,0.1l-0.1-0.1l0.7-0.3l0.4,0l-0.3-0.4L90,86.5l-0.3,0l0-0.4l0.1-0.1l0.1,0.2l0.2,0.1l0.2,0l0.1,0l0,0.1
		l0,0.1l0.1,0.5l0,0l0,0l0,0l0.1,0.2l0,0.1l0,0.1l0,0.1l0,0.1l0,0.1l0,0l0.1,0l0-0.5l0.1-0.1l0.3-0.1l0.1,0l0,0.3l0,0.1l0,0.1
		l0.1,0.1l0.1,0.1l0.1,0.1l0.1,0l0,0h0.2l0,0.1h0.1l0,0.1l0,0.1l0.1,0l0.3,0l0,0.1l0,0l0,0l0.2,0l0,0.1l0,0.1h0.1l0-0.1l0-0.1l0-0.1
		l0.1,0l0.4,0.1l0.1,0.1l0.1,0l0.1,0l0.1,0l0.1,0l0.1,0l0.1-0.1l0-0.3l0-0.1l0,0l0,0h0l0,0l0,0l0,0l0,0.3l-0.1,0.1l-0.1,0l-0.1,0
		l-0.1,0l-0.1,0l-0.1,0l0-0.1l0-0.2v-0.1l0-0.1l0-0.2l0.1-0.1l0.1,0l0.1,0l0,0.1l0,0.1l0,0.2l0,0l0,0l0,0l0,0l0,0l0,0l0-0.1l0-0.1
		l0-0.1l-0.1-0.1l-0.1,0l-1.2,0l0,0.2l-0.1,0l0,0.1H92l-0.1,0l-0.1,0l-0.1-0.1l-0.1-0.1l-0.1-0.1l0-0.1l0-0.2l0-0.1l0.4,0.1l0.1,0
		l0.2,0l0.2,0h0.3l0.1-0.1h0.1l0,0l-0.1,0L92.6,87L92,87l0-0.1l0-0.3l0-0.1l0.4,0v-0.1l-0.2,0l-0.1-0.1v-0.1l0.1-0.1l0.4,0l0.1,0.2
		l0.1,0l0.7,0.1l0.1,0l0-0.1l-0.1,0l-0.6-0.1l0.1-0.2l0-0.1l0.7,0l0,0.3l0.1,0l0.1-0.2l0.1,0l0,0l-0.2,0l-0.4,0L93,85.8l0-0.1l0-0.1
		l0.1,0l0.1,0l0.2,0l0,0.1l0.1,0l0,0l0-0.1l0.1-0.1l0-0.2l-0.1,0l0,0l0,0.1l0,0.1l-0.1,0l-0.1,0l0,0l0-0.1l0,0l0,0l0,0l0,0l0,0
		l0,0.1l-0.2,0l0-0.1l0.1,0l0,0l-0.1,0L93,85.2l0.2-0.1l0,0.1l0,0l-0.1-0.3l0,0l0-0.1l0,0l0.1,0l0.1,0.1l0.1,0.2l0,0l-0.1-0.1
		l-0.1-0.1l-0.2-0.1h-0.1l0-0.1l-0.1-0.2l-0.2-0.3L92.8,84l-0.1-0.1l-0.1-0.1l0-0.1l-0.4,0l0-0.2l0-0.2l0.4,0l0,0.1l0.1,0l0-0.4
		l-0.1,0l0,0.2l-0.7,0l-0.3-0.2l-0.2-0.3l-0.1-0.2l-0.1-0.4l0-0.2l0.1,0l0.1-0.1l0-0.1l0.1-0.1l0-0.2l-0.1-0.3l0-0.2l-0.1-0.2l0-0.2
		l-0.1-0.3l0-0.2l1-0.1l0-0.1l0,0h0l0,0v0.1L91.1,80l0-0.3l0.9-0.1l0,0.1l0,0l0.1,0l0-0.4l-0.2,0l0,0l-0.7,0.1l0-0.1l0-0.1l0.5-0.1
		l0,0l-0.5,0.1l-0.1,0l0-0.1l0.1-0.1l0.5-0.1l0-0.1l-0.3,0l0-0.3l-0.3,0.1l-0.5-0.1l-0.1-0.2l0-0.1l-0.1-0.1l-0.1-0.4l0.2-0.2v-0.4
		l0.2-0.2l0-0.1l0-0.1l0.3-0.3l0.2-0.2l0.3-0.2l0.2-0.1l0.2-0.1l0.4-0.2l0.1,0l0.3-0.2l0.4-0.2l0.1,0.2l-0.1,0.1l-0.1,0.2l0,0
		l0.1-0.2h0.1l0.1,0l0-0.1l0.1-0.1l0-0.1l-0.2,0.1l-0.1-0.2l0.4-0.2l0.8,1.5l3.3-1.7l-1-2L96.4,73L96,72.1l0.1-0.2l0-0.1l1.7-0.9
		l0.7-0.3l0.3-0.1l0.3-0.1l0.3,0l0.2,0l0.3,0.1l0.5,0.2l0.2,0.1l0.3,0l0.3,0l0.2-0.1l0.2-0.1l0.2-0.1l0.2-0.1l0.3-0.1l0.2,0l0,0
		l1.6-0.2l0.1,0.1l0.1-0.1l0.2,0l0.2,0l0-0.2l0.3-0.1l0.1,0.1l0.1,0l0.3-0.2l0-0.1l-0.1-0.2l0.2-0.1l-0.1-0.1l-0.4-0.5l-0.7,0
		l-1.2,1l-0.7,0.1l0,0.3l-0.3,0l-0.2-0.1l-0.1-0.1l-0.1-0.1l-0.1-0.2l-0.3-0.7l0.1,0l0-0.1l1.2-0.6l-0.1-0.1l-0.3,0.1l0-0.1
		l-0.1,0.1l0.1,0.1l-1.2,0.6l0,0l-2.7,1.4l0-0.1l2.7-1.4l0-0.1l1.1-0.5l0.5-0.3l-0.1-0.1l-0.1,0.1l0,0.1l-0.4,0.3l-0.4,0.2l-0.7,0.4
		l0.1,0.1l-2.5,1.3L95.8,71l-0.4-0.1l-0.1,0.3l0.1,0.3l-5,2.5L90,74.2L89,72l0-0.3l-0.1-0.4l-2.6,1.6l-0.4,0.5l0,0l-0.3,0.4
		l-0.1-0.3l0-0.1l-0.2-0.2l-0.1,0l-0.2-0.1l-0.2,0L84.7,73l-0.2-0.3l-0.1-0.3l-0.2-0.2l0.1-0.2L84,71.9l-0.1,0.2L83.4,72l-0.3,0
		l-0.3,0l-0.3,0l0,0.1l0-0.1l-0.3,0l0.1,0.3l-0.2,0l-0.1,0l-0.1,0l0,0.1l-0.2,0H81l0-1.6l-1.2,0l0,0.6l-0.2,0.2l-0.1-0.4l-0.2,0
		l0-0.4L79,71.1l-0.3,0.1l-0.2-0.1l-0.4-1.2l0-0.1l0.1-0.1l-0.1-0.2L78,68.8l-0.7-0.6L77,67.8l-0.1-0.2l-0.1,0l-0.3-0.5l-0.1,0
		l-0.1,0.1l-0.1,0v-0.1l-0.5-0.1l-0.1-0.2l0-0.2l-0.2-0.1l-0.1,0.2l-0.2,0l-0.1-0.1l0-0.2l0.1-0.2l0,0l-0.1,0.1l-0.1,0l-0.5-0.1
		l0.2-0.4l0,0L74.6,66l-0.4-0.2l0-0.1l-0.1,0l-0.4-0.2l0,0L72.9,65l0-0.2l-0.2-0.2l-0.3,0.3l-0.2-0.3l0.2-0.2l0.4-0.4l-1.2-1.5
		l-0.4,0.2l-0.1,0L71,62.5l0.1,0l-0.1-0.1l0-0.1L70.7,62l0,0l-0.2-0.1l-0.4-0.2l0.1-0.4l-0.3-0.1l-0.4-0.1L69.3,61l-0.2-0.1
		l-0.1-0.1L69,60.8l-0.1-0.1l-0.1-0.1l-0.1-0.1l0-0.1l0.1,0l-0.2-0.4l-0.5,0.1l-0.1-0.2l0.4-0.1l-0.1-0.4l-0.2,0l-0.3-0.1l0-0.1
		l0.1,0l-0.2-0.5l0.1,0l-0.1-0.3l0-0.3l0-0.1l0.1-0.1l0.1,0l0-0.1l0-0.1l0-0.2l-0.2-0.1l0.8-0.2l-0.2-0.7l-0.8,0.1l-0.2-0.7l1-0.3
		l0-0.1l0,0l-0.5-2.1l-1.4,0.4l-0.1,0l0-0.1l0.1-0.1l0.1-0.1l0-0.3l0-0.1l0-0.1l0.3,0l0.3,0l0.4,0l0.1-0.1l0-0.1l0-0.1l-0.9,0
		l-0.1,0l0-0.1l0-0.3l0.1-0.1l0.1-0.1l0.3-0.6l0.5,0l0,0.3l0.9,0.1l0.1,0l0-0.1l0-0.1l0,0l0-0.1l0,0l0-0.1l0,0l0-0.1l0,0l0-0.1
		l0-0.5l0,0l0.3,0v0.2v0.3v0.1l0,0l0,0.5l0.4,0l0.3,0l0.2,0l0.5,0l0,0l0-0.3l0,0l-0.4,0l-0.1,0l0-0.1l0-0.1l0.2,0l0,0l0.1,0l0.1,0
		l0,0.1l0.3,0l0-0.1l0.3,0l0,0.1l0.1,0.1l0.1,0.1l0,0.1l-0.2,0l0,0l0.2-0.1l0-0.1l0.1,0l0,0.1l0.1,0l0.5,0l0.5,0l1.3,0.2l0.1-0.1
		l0.2,0.1l0.5-0.2l0.3,0.3l0.3,0.4l0.3,0.1l0.4,0l0.5,0.3l0.2,0.2l-0.1,0.2l0,0.2l0,0.1l0,0.1l-0.1,0.2l0,0.1l0,0.1l0.3,0.1l0.1-0.3
		l0.1,0l0.1-0.1l0.7,0.1l0.1,0l0.1,0.1l0.2,0.1l0.1,0l0.5,0.2l0.3-0.1l0.2-0.1l0.4-0.2l0,0l1.1-0.5l1.3-0.8l0.3,0.3L82,53l0.4,0.1
		l0-0.1l0.3,0.1l0.1-0.3l-0.5-0.1l-0.1-0.1l-0.4-0.4l0.3-0.2l0.2,0.3l0.1,0l-0.2-0.3l0.4-0.3l0.3-0.1L84,52l0.5-0.8l0.5,0.3
		l-0.1,0.8l0.1,0l0.1-1l0.1-0.1l2.6,1.7l0-0.1l-2.6-1.6l0.1-0.1l0-0.1l1.4-1.4l1.6-1.6L88.3,48l0,0L88,47.7l-0.1-0.1l0.3-1.4
		l0.1-0.2l0.3-0.3l0.5-0.5l0.3-0.3l0-0.1l-0.1-0.2l-0.1-0.1l-0.1,0l-0.3,0.4l-0.5,0.6l0,0l0.3-0.3l-0.6,0l-0.4,0l-0.4,0l0-0.1l0-0.1
		l0.1-0.2v-0.1l-0.4-0.1l-0.3,0l-0.2,0l-0.3-0.1l-0.2,0l0,0.4l-0.1,0.2l-0.1,0l0,0l0-0.7l0.1-0.2l0-0.3l0-1.4l-0.3,0l-0.6,0l0,0.4
		l0,0.1l0,0.1l-0.2,0h-0.2l0-0.8l0-0.2l0.4-0.2l0,0.1l0.1,0l0.3,0l0.4,0l0.1,0l0.1-0.1l0-0.2l0-0.2l-0.2-0.1l-0.7-0.2l-0.1,0
		l-0.4-0.1l0,0l0.1,0.3L84,41.5l-0.2-0.3l-0.4,0l-0.6,0.5l0,0.7L82,42.5l0,0.8l0,0l-1.2,0l-0.2-0.1l-0.8-0.7l0.4-0.2l0.7,0l0.8,0
		l0.4,0l0.4-0.1l0.1,0l0,0l0-0.4l0,0l0.1-0.1l-0.3-0.1l-0.3,0.3l0,0l-0.1,0.1l0,0l0-0.1l0.1-0.1l0-0.1L82,41.7l0,0.1l0,0.1l-0.1,0.1
		l0,0.1l0,0l0,0l-0.1-0.1l0-0.1h0l0-0.3l0.1,0l0-0.1l0.3,0l0-0.2h-0.3l0,0l-0.2,0l0-0.2l-0.1,0l0,0l0-0.1h-0.1l0-0.3h-0.2v0.3
		l-0.1,0l0,0.1l-0.3,0l0,0h-0.1l-0.1-0.1l0,0l0,0l0.1-0.1l0.1-0.1l0.1,0l0.1,0l0.1-0.1l0,0l0,0l-0.1,0l-0.1,0.1l-0.1,0.1l-0.1,0.1
		l0,0l0,0l-0.1-0.1l0-0.1l0,0l0,0l0,0l0,0l0,0l0,0l0,0l0,0l0,0l0,0l0,0l-0.1,0l-0.1-0.1l0-0.1l0-0.1l0,0l0,0l0,0l0-0.2l0-0.3l0,0
		l0,0l0,0l0,0l0,0l0,0l0,0l0,0l0-0.1l0,0l0,0l0,0l0,0l0,0v0l0,0l0,0v-0.1l0,0l0-0.2l0.1,0l0,0l0-0.2l0,0l0,0l0,0l0,0l0,0l0-0.1
		l0-0.1l1-0.1l0,0.1l-0.1,0.2l0,0.1l0,0.1l0,0l0,0h0l0,0l0,0l0,0l0,0l0,0l0-0.1l0-0.1l0-0.1l0.1,0l0.1,0l0.1,0l0.1-0.1l0.1,0l0-0.1
		l0-0.1h0l0,0l0,0.1l-0.1,0.1l-0.1,0.1l-0.1,0l0,0l0,0l0-0.4l-0.1-0.2l0,0l0,0l0,0l0-0.1l0.1,0l0.2,0.1l0,0l-0.1,0L81,37.9L81,37.9
		L80.9,38l0,0l0,0.1l0.1,0.1l0.1,0.2v0.1l-1,0.1l0-0.1l0.1-0.1l0-0.2l0-0.2L80,38l-0.1-0.1l-0.1-0.1l-0.1-0.1l-0.2-0.2l0-0.4
		l0.4-0.3l0.3-0.3l0.1-0.2l0.1,0l0.2-0.1l0.3-0.2l0-0.2L81,35.8l0.1-0.1l0-0.1L81,35.6l-0.8,0.6l0,0l-0.4,0.3l-0.4-0.2l0.1-0.2
		l0.1-0.1l0.2,0.1l0.1-0.2l0.3-0.1l-0.5-1.2l-0.3,0.1l-0.1-0.2l0.3-0.2l0.1,0.1l0.5-0.3l0.3,0.5l0,0l0,0.1l0.1,0l0,0l-0.1-0.1l0,0
		l0-0.1l0.1,0l0.1,0l0,0l0.1,0.1l0.1,0l0,0.1l-0.1,0.1l0,0l0.1-0.1l-0.3-0.7l0.2-0.1l0-0.1l0.1,0l0,0.1l0,0l0,0l0,0l-0.1-0.2l0-0.2
		l0,0l0.1,0l0.2,0.3l0,0l0,0l0,0l0,0l0-0.1l0.1-0.1l0.1,0.1l0.1-0.1l0,0l0,0l0.1-0.1l0.1,0l0.3,0l0.1,0.1l0.2,0.2l-0.1,0.1l0.1,0.3
		l0.1,0.1l0,0l0.1,0.2l0,0l0.2,0.3l0,0.1l0.1,0.2l0.2,0.2l0.1,0.1l0.4,0.1l0.4,0.4l0.2,0.1l0,0.2l0,0.1l0,0l0,0h0l0,0l0,0v0l0-0.1
		l0.3,0l0,0.3l-0.2,0l0,0l0,0l0,0l0,0l0,0l0,0l0,0h0l0,0l0.1,0.1l0.2,0l0.2,0l0.2-0.1l0,0l0-0.1l0.1,0l0.2-0.1l0,0l0.1,0l0,0
		l0.1-0.1l0,0l0.1,0l0.1,0l0,0l0.1-0.1l0.1,0l0.5-0.5l0.3,0.3L86.4,36l0,0l0,0l-0.1,0.1l0,0l0.1,0.1l0,0l0.5-0.6l-0.1-0.1l0,0l0,0
		l0,0l-0.1-0.1l0,0l-0.2-0.1l0.2-0.2l0.2-0.5l0,0l0,0l0,0l0,0l0,0l0,0l0,0l0,0l0,0l0,0l0,0l0,0l-0.1,0l0-0.2l0.1-0.2l0.8,0.3
		l-0.5,1.3l0,0l0,0l0,0l0,0v0l0,0l0,0l0,0l0,0l0,0l0.6-1.4l0,0l0,0l-0.1,0l0-0.1l-0.1,0l0-0.1l0-0.1l-0.1-0.1l-0.3-0.1l0-0.2
		l0.1-0.1l0-0.1l0-0.1l0-0.1l0-0.1l0-0.1l0-0.1l0-0.1l0-0.1l0.1-0.2l0.1-0.2l0-0.2l0.1-0.2l0-0.2l0-0.2l0-0.2l0-0.1l0-0.1l0-0.1
		l0-0.1l0-0.1l0,0l0.1-0.1l0.1-0.1l0,0l0.1-0.1l0.1-0.1l0.1-0.1l0.1-0.1l0.1-0.1l0,0l0,0l0,0l0,0l0-0.1l0.1-0.1v0l-0.1-0.2l0,0l0,0
		l0,0l-0.1,0l-0.1,0l-0.1,0l-0.1,0l-0.1,0L88,29.3l0-0.1l0-0.1l0-0.1l0,0l0,0l0,0l0,0l0-0.1l0-0.1l0-0.1l0-0.1l0-0.1l0-0.1l0-0.1
		l0,0l0,0l0,0l0,0l0.2-0.2l0,0l0,0l0,0l0,0l0.1,0l0,0l0,0l0,0l0,0l0,0h0l0,0l-0.1,0l0,0l0,0l0,0l0,0l0-0.1l0-0.1l0-0.1l0-0.1l0-0.1
		l0,0l0,0l0,0l0-0.1l0-0.1l0-0.1l0-0.1l0,0l0,0l0,0l0,0l0,0l0.1,0l0.1,0l0.1,0l0.1,0l0.1,0l0.1,0l0.1,0l0.1,0l0,0l0,0l0,0l0,0l0.1,0
		l0.5,0.1l0.1,0l0,0l0,0l0,0l0.1,0l0,0l0.1,0l0.1,0l0.1,0l0.1,0.1l0.1,0v0l0,0l0.1,0l0.2,0h0l0.3,0l0,0l0.1,0l0,0l0,0l0,0l0,0l0,0
		l0,0l0,0l0.1,0l0,0l0,0l0.1,0l0,0l0.1,0l0.1,0l0.3,0.2l0.1,0l0.2,0.1l0,0l0,0l0,0l0,0l0,0l0,0l0,0l0,0l0,0l0,0l0,0l-0.6,0.2l0,0
		l-0.1,0l-0.1,0H91l-0.1,0l-0.1,0l-0.1,0l-0.1,0l0,0l0,0l0,0l-0.1,0l-0.1,0l-0.1,0l-0.1,0l0,0l-0.1,0l-0.1,0L90,28.7l-0.2,0.1l0,0
		l0,0l0,0l0,0l0,0l0,0L89.3,29l-0.1,0l-0.1,0L89,29l-0.1,0l-0.1,0.1l-0.1,0l-0.1,0.1l-0.1,0.1l0,0.1l0,0.2l0,0l0,0l0,0.1l0,0.1
		l0,0.1l0,0.1l0,0.1l0,0.1l0,0.1l0,0.1l0,0.1v0l0,0.1l0,0.1l0,0.1l0,0.1l0,0l0,0l0,0l0,0l0,0l0,0l0,0l0,0.1l0,0l0,0.1l0,0.1l0,0.1
		l0,0.1l0,0.1l-0.1,0.1l-0.1,0.1l0,0l0,0l0,0.1l0,0.1l0.1,0.1l0.1,0.1l0.1,0l0.1,0l0.1,0l0.1,0l0,0l0,0l0,0l0,0.1l0.1,0.1l0.1,0.1
		l0.1,0.1l0,0.1l0,0l0.1-0.1l0,0l0,0l0,0l0,0l0,0l-0.1,0h0l0-0.1l0,0l0,0l0,0l0,0l0,0.1l0,0l0,0l0,0l0,0l0.1,0l0,0l0,0l0.1,0
		l0.6,0.8l0,0.1l-0.1,0l-0.1,0l-0.1,0l-0.2,0.1l-0.2,0.2l-0.1,0.2l-0.1,0.1l0,0.1l0.1,0.2l0.2,0.1l-0.1,0.3l0,0l-0.1,0.1l0,0.2
		l0.2,0.1l0.3,0.1l0.7,0.2l0.2,0.1l0.2,0.1l0.1-0.1l0.2,0l0.2,0l0.1,0.1l0.1,0l0.1-0.1l0,0l0.1,0.2l-0.3,0.2l0,0.1l-0.1,0.1l0,0
		l0.1-0.1l0,0.1L91.7,36l0,0.5l0,0l0.1,0.1l0,0.1l0,0.1l0,0l0,0.2l0.3,0.7l0.1,0l0.1,0.1l0.1,0.1l0,0l0-0.1l0-0.1l0.1,0h0.1l0.1,0
		l0.1,0l0-0.1l0-0.2l0.1-0.1l0-0.1l0.1-0.1l0-0.1l0,0l0.1,0l0,0l0-0.1l0-0.1l0,0l0-0.1l0-0.2l0-0.2l0-0.2l0,0l-0.1-0.1l0.4-0.3
		l0.1-0.1l0.2-0.1l0.1,0l0-0.1l0.1,0l0.1-0.1l0.1-0.1l0.1-0.1l0-0.1l0.1-0.1l0-0.1l0,0l0,0l-0.1-0.1l-0.1,0.1l0,0l-0.1,0l-0.1,0l0,0
		l0,0l-0.1,0l-0.1,0.1l0,0.1L93,35.4l-0.3,0.2l0,0.2l-0.2,0.2l-0.1,0l-0.2-0.4L92,35.2l0-0.1l1.4-0.8l0.2-0.1L94,34l0.3-0.1l0.1-0.1
		l0.1-0.1l0.1,0l0.1,0l0.1,0l0.1,0l0,0.1l0,0l-0.2,0l-0.2,0.3l0.1,0.4l0,0l0,0l0,0l0.1,0.4l0,0.4l-0.1,0.1l0.2,0.1l0,0.1l0.2,0.1
		l0.7,0l0,0l0-1l0.2-0.3l0.6,0.1l0.1,0.2l-0.1,0.1l0,0.1l0.1,0.1l0.1,0l0.1,0l0.1-0.1l0.2,0l0,0.7l-0.3,0.1l-1,0l0,0.3l0.8,0
		l0.1,0.2l-0.1,0.1l-0.2,0l-0.1-0.1l-0.2,0l0,0.1h-0.4l0,0.6l0.7,0l0,0.2l0.1,0l0-0.2l0.5,0l0.1,0.2l0.1,0.1l0.1,0l0,0.1l-0.1,0
		l0,0.1l-0.2,0l-0.1,0.1l0,0.1l0.1,0l0.2,0l0,0.2l-0.1,0l0,0.1l0,0.1l0.1,0l0,0.2l-0.1,0l0,0.2l0,0.1l0.1,0h0.1l0.2,0l0.2,0l0.2,0
		l0,0.1l-0.4,0l-0.4,0l-0.2,0.1l-0.1-0.1l-0.1,0l-0.1,0l0,0.1l-0.1,0l0,0l-0.1,0l0,0l-0.1,0l0,0l-0.2,0l-0.4,0l-1,0l-0.2,0.2l0,0.2
		l0.1,0l1,0l0,0.5l-0.2,0.1l-0.5,0l-0.2,0l-0.1,0.1l0,0.8l0.1,0.1l0.4,0l0.1,0l0-0.3l0-0.1l0.1,0l0.2,0.1l0,0.1l0,0.1l0,0.1l0.1,0.1
		l0,0.2l0,0.5l0,0.4l0,0.1l0.1,0l0.4,0l0.1,0.1l0,0.1l-1.3,0l-0.2-0.2l-0.2,0l-0.2,0.2l-3.8,0l0,0l0,0l0,0l0,0.6l-0.1,0l0,0l-0.1,0
		l0,0l0,0l0,0l0,0l0,0v0.3l0,0.1l0,0.1l-0.7,0.6l0,0.1l0.1,0.1l0.2,0.2l0.1,0l0.5-0.6l0.5-0.5l0.4-0.3l0.5-0.2l0.5-0.2l0.5-0.1
		l3.4,0h0l2.1,0l0.1,0.1l0,0.1l0,0l0,0l0,0.1l0.1,0l0.1,0.2l0.2,0l0,0.1l-0.2,0.1l0,0.2l0.1,0l0.1-0.1l0.4,0l0.2,0.2l0,0.6l-0.1,0.3
		l0,0.4l0,0.1l0,0.1l0,0.1l-0.1,0l-0.1-0.1l-0.1,0l0,0h0.1l0.1,0l0.1,0.1l0,0.1l0,0l0,0l-0.1,0l-0.1,0l0,0l0,0l0,0l0,0l0,0l0,0l0,0
		l0,0l-0.1,0l0,0l0,0l0,0l0,0.1l-0.1,0l-0.1,0l-0.1,0l0.1-0.1l-0.2-0.5l-0.1-0.1l-0.1-0.1l-0.1-0.1l-0.1,0l-0.2,0l-0.5,0l-0.1,0
		l-0.1,0l0,0l0,0l0,0l0,0.4l0.2,0v0.2l0.5,0.6l-0.4,0l0.2,0.3l0.4,0.5l0.2,0l0,0.4l0.2,0l0,0.1l0.1,0.2l0.1,0.4l0,0.1l0.1,0.1h0.1
		l0.1,0.1l0.1,0.1l0.1,0.3l0,0.2l0.1,0.2l0.1,0l0.1,0l0,0.2l0,0.1l0,0.1l0.1,0l0.1,0.1l-0.1,0.1l0.2,0.9l0.1,0.3l0,0l0,0l0,0h0
		l0,0.1l0,0l0,0l0,0.1l0,0.1l0,0.1l0,0l0,0l0.1,0l0.1,0.3l-0.4,0.2l0.1,0.2l0.1,0l0.1,0.1l0.6-0.3l0.6,1.6l0,0.2h0.1l0,0.1l-0.1,0.4
		l-0.2,0.4l0,0.1l-0.1,0.2l0,0.3l0.1,0l0.1,0.1l0,0.2l0.7,1.4l0.1,0.5l0.5,0.6l0.1,0.2l0,0.3l-0.1,0.2l-0.2-0.2l0.2,0.3l0.2,0l0.1,0
		l0.1,0.1l0.2-0.1l0.1,0l0,0l-0.6-1.2l0.2-0.1l0.6,1.2l0.3-0.1l0.8-0.4l-0.3-0.6l1.4-0.7l-0.2-0.3l-0.4,0.2l-0.1-0.2l-0.2,0.1
		l-0.1-0.2l0.2-0.1l-0.2-0.2l0-0.1l0.3-0.2l0.1-0.1l-1.2-2.5l1.5-0.9l2,3.8l2.1-1.1l1.3,2.5l0.3-0.2l-1.3-2.5l0.2-0.1l-1.1-2.1
		l1.7-0.8l-1.5-3l0-3.8l5,0l1.8,3.5l0,0.2l0.1,0.2l0.2,0.1l1.9,3.9l-0.4,0.2l0.4,0.7l-1,0.5l3.3,6.5l1.5-1.6l-5.4-10.4L114.4,43.2z
		 M30.4,40.1l-0.1,0l-0.8-1.7l0.3-0.1l0.8,1.7L30.4,40.1z M81.5,33.2L81.5,33.2l-0.1-0.1l0,0l-0.1-0.1l0.1-0.1l0,0.1L81.5,33.2
		L81.5,33.2L81.5,33.2l0.1,0.1l0,0L81.5,33.2z"/>
	<polygon class="st0" points="78.4,30.4 78.3,30.6 78.6,30.6 78.7,30.4 	"/>
	<polygon class="st0" points="90.5,40.7 90.5,40.7 90.6,40.7 90.7,40.6 90.7,40.5 90.6,40.4 90.6,40.4 90.5,40.3 90.4,40.3 
		90.3,40.3 90.3,40.4 90.3,40.4 90.4,40.4 90.4,40.5 90.5,40.6 90.5,40.7 	"/>
	<polygon class="st0" points="93.6,41.4 93.5,41.3 93.4,41.4 93.4,41.5 93.4,41.6 93.5,41.7 93.5,41.6 93.6,41.6 93.5,41.5 
		93.6,41.4 	"/>
	<polygon class="st0" points="99.4,59.4 99.5,59.5 99.6,59.4 99.7,59.2 100,58.8 100.3,58.3 100.3,58.1 100.4,58 100.5,57.8 
		100.5,57.6 100.4,57.6 100.1,57.5 99.9,57.5 99.4,57.5 99.1,57.6 98.8,57.7 98.7,57.6 98.5,57.7 98.5,57.8 98.5,58 98.6,58.1 
		98.8,58.1 98.9,58.3 98.9,58.4 99,58.5 99.2,58.6 99.4,58.8 99.4,59 99.4,59.2 	"/>
	<polygon class="st0" points="142.8,300.1 142.8,299.9 142.3,299.8 142.2,299.7 142.2,299.6 142.1,299.6 142,299.5 141.8,299.4 
		141.7,299.3 141.6,299.2 141.1,299 141.1,298.9 140.5,298.7 140.5,298.5 139.9,298.3 139.9,298.1 139.4,298 139.2,297.8 
		138.8,297.6 138.6,297.4 138.1,297.2 137.9,297 137.6,296.9 137.4,296.7 136.9,296.5 136.8,296.2 136,296 135.9,295.9 135.7,295.8 
		135.7,295.5 135.5,295.2 135.5,294.3 135.6,293.7 135.8,293.6 136.2,293.3 136.2,293.1 136.6,293 136.7,292.9 136.9,292.8 
		137.1,291.9 137.1,291.9 137.3,291.8 137.4,291.2 137.5,291.1 137.6,290.6 137.8,290.5 137.9,290.4 138.2,290.3 138.2,290.2 
		137.8,289.5 137.7,289.4 137.6,289.1 137.6,288.8 137.7,288.7 138,288.1 138.2,288 138.2,287.8 138.5,287.5 138.9,287.3 139.2,287 
		139.4,286.9 139.4,286.7 139.6,286.8 140,286.4 140.3,286.3 140.6,286 141.2,285.8 141.4,285.8 142,285.6 142,285.8 142.3,285.7 
		142.2,285.5 142.2,285.2 142.4,284.6 142.3,283.5 142.1,283.2 142,283.2 142.1,283.7 141.7,283.8 141.5,283.7 141.5,283.2 
		141.6,283.1 141.6,283 141.2,282.6 141.2,282.4 140.9,282.1 140.6,282.3 140.1,282.2 140.1,282.4 140,282.5 139.8,283 139.4,283.2 
		138.7,283.2 138.2,283.7 138.2,283.9 137.2,283.9 136.6,283.8 136.6,283.6 136.6,282.8 136.9,282.8 137.2,282.3 137.4,282.2 
		137.4,282 137.5,281.9 137.6,281.6 137.9,281.3 138.2,281.1 138.3,281 138.5,281 138.5,280.8 138.6,280.7 139.3,280.5 139.3,280.1 
		139.2,279.9 139,279.8 138.7,279.5 138.5,279.5 138.5,279.3 138.2,279.2 138.1,279 138,278.8 138,278.4 138.2,278.4 138.1,277.8 
		138.3,277.3 138.6,276.8 138.9,276.5 139.3,276.2 139.6,276.2 139.7,276.3 139.7,275.8 139.5,275.5 139.6,275 139.7,274.8 
		140.2,274.5 141,274.5 141.5,274.6 141.6,274.5 141.6,274.8 141.9,274.8 141.9,275 142,275.3 142.1,275.7 142.5,275.5 142.5,275.5 
		142.6,275.1 142.7,275 142.9,274.3 142.9,274.1 142.7,273.5 142.6,273.3 142.4,273.3 142.3,273.2 141.7,273.1 141.6,272.3 
		141.7,271.7 141.9,271.5 141.9,271 141.5,270.8 140.9,270.3 140.9,270 140.8,269.9 140.8,268.8 140.7,268.7 140.4,268.8 
		140.1,268.6 140.1,268.8 139.5,268.9 138.9,268.7 138.9,268 138.7,268 138.4,267.7 138.5,267.6 138.5,267 138.6,266.9 138.5,266.3 
		137.9,266.2 137.9,266 137.6,265.5 137.5,264.8 137.2,264.4 136.7,264.3 136.7,263.9 136.8,263.8 136.8,263.6 136.6,263.3 
		136.6,263 136.7,262.9 136.8,262.4 136.9,262.3 136.9,262.1 136.8,262 136.8,261.7 137,261.3 137.2,261.3 137.2,261.1 137.4,261 
		137.5,260.9 138,260.7 138.4,260.7 139.1,260.5 139.3,260.3 139.5,259.4 140,258.7 140,258.5 140.2,258.6 140.3,258.9 140.5,259.2 
		140.7,259.7 140.9,259.9 141,260.1 141.6,260 142,259.6 142.4,259.4 142.7,259.1 142.9,259 143,258.6 143.8,257.8 144,257.5 
		144.2,257 144.7,256.8 145.3,256.7 145.5,256.6 146.7,256.6 147.3,256.9 147.5,257.2 147.6,257.4 147.6,258 147.4,258.3 
		146.5,258.7 146.5,258.8 146.8,258.7 146.9,258.6 147.3,258.5 147.4,258.4 148.6,258 148.6,258 148.6,257.9 148.5,257.8 
		148.6,257.3 149,257.2 149,257 149.2,257 149.5,256.8 149.9,256.7 150.2,256.3 150.1,255.8 150,255.3 149.8,255.2 149.8,255 
		149.4,255.1 149.3,255 149.2,254.8 149.1,254.7 149.2,254.4 148.7,254.5 148.6,254.3 147.5,254.3 147.5,254.1 147.3,254.1 
		147.1,253.7 146.9,253.4 146.9,252.9 147,252.7 147,252.3 147.2,252.3 147.1,252.1 146.9,251.6 146.3,251.5 146.2,251.5 
		146.2,251.8 145.9,251.9 145.9,252.2 145.8,252.1 145.1,252.1 145,252 144.8,252.1 144.8,251.6 144.7,251.4 144.7,250.7 
		144.9,250.7 145,250.4 145.1,250.2 145.6,250.1 145.8,249.9 145.7,249.7 145.6,249.8 145.4,249.7 145.6,249 145.9,248.8 
		146.1,248.8 146.2,248.7 146.5,248.6 146.8,248.6 147,248.5 147.5,248.6 147.5,248.4 148,248.3 147.9,247.8 148.1,247.9 148,247.1 
		148.1,247 148.4,246.6 148.7,246.5 148.8,246.3 149,245.9 149,245.3 149.5,245.1 149.9,244.5 150.1,244.6 150.1,244.3 150.2,244.2 
		150.2,243.9 150.1,243.7 150.1,243.4 149.9,243 149.9,242.3 150.2,242 150.2,241.5 149.9,241 149.9,240.3 150,240.2 150,239.7 
		150.2,239.7 150.3,239.5 150.3,239.4 150.5,239.4 150.9,239.1 151.2,239 151.2,238.8 151.4,238.7 151.5,238.5 151.3,238.5 
		151.4,238.4 151.3,238.1 151.1,238.1 151.1,237.9 151,237.8 151.1,237.3 151.3,237 151.5,236.9 151.4,236.7 151.3,236.5 
		151.1,236.5 151.1,236.7 151.2,236.7 151,237 150.8,237.1 150.7,237.2 150.4,237.1 150.4,238 150.5,238.3 150.3,238.4 150.1,238.6 
		149.8,238.6 149.7,238.3 149.3,238.4 149,238.6 149.2,238.9 149.2,239.4 148.5,239.5 148.1,239.2 148.6,238.7 148.6,238.1 
		148.5,238 148.3,238.1 148.1,238.3 148,238.3 148,238.3 147.8,238.4 147.7,238.9 147.3,238.8 147.4,239.5 147.2,239.5 147,239.7 
		147,240 146.8,240 146.7,240.5 146.3,240.6 146.1,240.9 145.8,240.9 145.8,241 146.2,241.1 146.2,241.3 146.4,241.4 146.4,241.4 
		146.4,242.2 146.2,242.5 145.4,242.8 145.2,242.8 144.8,242.6 144.9,242.3 144.7,242 144.6,241.8 144.4,241.8 144.5,241.6 
		144.3,241.6 144.3,241.4 144.1,241.4 144.1,241.6 143.9,241.6 143.5,241.9 143.1,241.9 142.8,241.7 142.2,241.6 142.2,241.4 
		141.6,241.5 141.6,241.9 141.4,242 141.1,242.2 140.9,242.2 140.8,242.2 140.7,242.8 140.5,242.8 140.1,244 139.8,244.1 
		139.7,244.3 139.6,244.5 139.3,244.5 139.1,244.7 138.9,245.4 138.7,245.4 138.6,245.7 138.4,245.7 138.2,246.7 138,247 
		137.7,247.1 137.5,247.6 137.3,247.6 137.3,247.8 137.1,248.1 136.7,248.5 136.4,248.9 136.1,249.4 135.9,249.5 135.5,250 
		135.2,250.1 134.9,250.3 134.9,250.5 134.5,250.6 134.3,251.1 134.2,251.7 134,252 133.8,252.3 133.6,252.5 133.4,253 133.2,253 
		133,253.6 132.9,253.7 132.7,254.1 132.5,254.2 132.1,254.5 131.8,254.5 131.4,254.3 131.3,254 131.2,254 131,253.8 131,253.4 
		130.7,253 130.2,253.1 130.3,253.7 130.7,253.7 130.7,253.9 131.1,254.1 131.1,254.2 131.3,254.3 131.3,254.4 131.5,254.5 
		131.8,254.7 132,254.9 132.1,255.6 132,256.8 131.9,256.9 131.8,257.3 131.6,257.5 131.4,257.9 131.2,258.1 131,258.4 130.9,258.6 
		130.6,258.7 130.6,259 130.4,259.2 130.6,260.1 130.7,260.2 130.9,260.8 131.1,261.1 131.1,261.4 131.2,261.7 130.7,265 130.5,265 
		130.3,265.5 130.1,265.7 129.9,266.1 129.7,266.3 129.5,266.8 129.4,267.5 129.2,267.6 128.8,267.9 128.8,268 128.5,268.1 
		128.5,268.2 128.7,268.2 128.8,268.1 129.2,267.9 129.2,267.7 129.4,267.7 129.6,267.5 129.8,267.4 129.8,267.6 130,267.8 
		130.2,268.1 130.3,268.4 130.7,268.7 130.7,268.8 130.5,269.1 130.5,269.2 130.4,269.3 130.4,269.4 130.3,269.5 130.2,269.6 
		130.1,269.7 130,269.8 129.9,269.8 129.8,269.9 129.8,269.9 129.2,270.2 129.2,270.6 129.3,270.6 129.3,270.3 129.4,270.2 
		129.8,270.1 129.8,270 130,270 130.1,269.9 130.1,269.8 130.2,269.8 130.3,270 130.4,270.1 130.5,270.2 130.6,270.2 130.7,270.3 
		130.8,270.3 130.9,270.4 131.1,270.4 131.2,270.3 131.2,270.2 131.7,270 131.9,270 132.1,270.3 132.6,270.8 132.8,271.1 
		133.1,271.3 133.6,272.2 133.7,274.3 133.6,274.9 133.6,276.2 133.4,276.2 133.4,276.8 133.2,276.8 133.2,277.4 133,277.4 
		133,277.8 132.8,278.1 132.7,278.8 132.9,279.5 133.1,279.7 133.5,280.8 133.6,282.5 133.3,285.1 133.1,285.1 132.9,285.7 
		132.7,285.7 132.6,286.3 132.4,286.3 132.2,287.4 131.7,288 131.7,288.2 131.5,288.2 131.3,288.6 131,289 130.8,289.4 130.6,289.4 
		130.4,290 130.4,292.4 130.5,292.8 130.5,293.5 130.8,293.8 131,294.2 131.5,294.5 131.5,294.7 131.8,295.1 132,295.1 132,295.3 
		132.3,295.4 132.5,295.5 132.6,295.7 132.8,295.8 133.1,296 133.2,296.2 133.4,296.3 133.5,296.4 133.7,296.4 133.8,296.5 
		134.4,296.5 134.4,296.7 135.1,297 135.5,297.3 136.2,297.4 136.2,297.7 136.7,297.9 136.8,297.9 137.2,297.7 138.4,297.9 
		138.7,298.1 139.1,298.2 139.2,298.3 140.3,298.7 140.4,298.8 141,299.1 141,299.3 141.6,299.4 141.6,299.6 141.9,299.6 
		141.9,299.7 142.1,299.7 142.3,299.9 142.7,300.1 142.7,300.3 142.9,300.3 143.1,300.5 143,300.1 	"/>
	<polygon class="st0" points="158.3,271.6 158.5,271.6 158.4,271.4 158.2,271.2 158.2,271 157.9,271 157.9,270.8 157.3,270.6 
		157.2,270.4 157.1,270.3 157.1,270.1 157.1,270 156.7,270.1 156.5,269.9 156.4,269.4 156.2,269.2 156.1,269 155.3,269.1 
		154.5,269.4 154.2,269.4 154.1,269.3 153.7,269.3 153,268.8 152.8,268.7 152.8,268.5 152.3,268.5 151.8,268.8 150.3,268.8 
		150,268.7 149.7,268.7 149.6,268.6 149.1,268.4 149,268.2 148.8,268 148.8,267.7 149,267.7 149.4,267.2 149.6,267.1 149.9,266.7 
		149.9,266.3 149.6,266 149.7,266 149.7,265.8 149.8,265.8 149.8,265.6 149.6,265.6 149.4,265.4 149.3,265 148.7,264.9 148.5,264.7 
		148.4,264.7 148.3,264.8 147.8,264.8 147.7,264.5 147.3,264.5 147.2,264.9 146.7,265 146.6,265.9 145.7,266 145.5,265.9 
		145.1,265.9 144.9,266 144.7,265.9 144.7,266.1 144.5,266.1 144.5,266.2 144.7,266.2 144.9,266.6 145.1,267 145.3,267 145.5,268.1 
		145.7,268.5 145.7,268.7 145.6,268.8 145.6,269.7 145.7,270.2 145.9,270.3 146.1,270.5 146.3,270.5 146.3,270.9 146.6,270.9 
		146.8,271.1 147,271.2 147,271.4 147.4,271.5 147.4,271.6 147.4,272.1 147.2,272.4 147,272.7 146.8,272.7 146.6,273.4 146.9,273.8 
		146.9,274.2 147.1,274.5 147.1,274.7 147.3,275.1 147.7,275.5 147.7,276.3 147.6,276.5 147.6,276.6 147.8,277 148,277 148,277.2 
		148.4,277.3 148.4,277.5 148.5,277.5 148.5,277.2 148.7,277.2 148.8,277 149,276.8 149,276.6 149.1,276.6 149.4,276.6 149.4,276.5 
		149.2,276.5 149.2,276.4 150.7,275.7 150.8,275.6 152.8,275.2 153.2,275.2 154.6,275.7 154.8,275.9 154.8,276.1 156,275.9 
		156,276.2 156.7,276.2 157,276.1 157.1,276 157.3,275.4 157.5,275.4 157.6,274.8 157.8,274.8 157.8,274.7 156.7,274.6 156.8,274.1 
		157,274.1 157,273.8 157.3,273.7 157.8,273.2 158.1,272.7 158.3,272.2 158.5,272.2 158.4,271.8 	"/>
	<polygon class="st0" points="159.4,257.8 159.3,257.4 159.1,257.2 159.1,257 158.9,257 158.9,256.8 159,256.7 159,256.5 
		158.9,256.3 158.7,256.3 158.5,256.8 158.2,256.7 158.1,256.2 157.8,256.1 157.4,255.9 156.8,255.8 156.5,254.5 156.4,254.5 
		155.6,254.6 155.6,255 155.7,255 155.5,255.3 155.6,255.7 155.8,255.7 155.8,255.8 155.5,255.9 155.5,256 155.5,256.6 155.3,256.6 
		155.2,256.7 155.1,256.7 154.9,256.5 154.7,256.5 154.6,256.9 154.5,257 154.5,257.2 154.4,257.1 153.7,257 153.6,257.1 
		153.5,257.3 153.3,257.6 152.9,257.5 152.8,257.6 152.8,257.8 152.6,257.8 152.4,258 152.5,258.3 152.3,258.3 152.2,258.9 
		152,259.2 152.1,259.8 151.6,259.7 151.5,259.8 151.6,260 151.8,260.2 151.8,260.4 151.7,260.5 152,260.5 151.9,260.6 152,261 
		152.2,261.1 152.3,261.2 152.6,261.3 152.9,261.6 153.1,261.6 153.1,261.9 153.3,262.1 153.5,263 153.4,263.1 153.4,263.3 
		153.5,263.4 153.7,263.4 153.7,263.9 153.9,264.2 154,264.5 154.1,264.5 154.1,264.3 154.3,264.1 154.3,263.1 154.5,263.1 
		154.5,262.9 155.2,262.3 155.4,262.3 155.6,262.2 156,262.2 156.4,262 156.7,262 156.7,261.8 157,261.6 157.7,261.4 157.9,261.4 
		158.1,261 158.4,260.7 158.7,259.1 158.9,259.1 159,258.6 159.2,258.6 159.2,258.4 159.3,258.4 159.5,258 159.5,257.9 	"/>
	<polygon class="st0" points="142.6,229.4 142.5,229.6 142.7,229.6 142.8,229.8 143.1,230 143,230.2 143.2,230.3 143.4,230.5 
		143.5,230.7 143.5,230.9 143.7,231.1 143.9,231.1 144,231 144.2,230.9 143.8,231.3 143.8,231.5 144.5,231.5 144.6,231.3 
		144.8,231.1 145.7,231 146,230.9 146,230.8 146.5,230.6 146.6,230.5 147,230.4 147.7,230.4 148.4,229.6 148.4,229.2 148.2,228.9 
		148.3,228.4 148.4,228.3 148.4,228.1 148.5,228.1 148.4,227.1 148.3,227.1 148.3,227.3 148,227.6 147.9,227.8 147.7,227.7 
		147.6,227.3 147.4,227 147,226.9 147,226.7 146.7,226.7 146.5,226.8 146.4,226.8 145.9,226.5 145.8,226.5 145.7,226.5 145.7,226.7 
		145.5,226.7 145.4,227.6 144.7,227.7 144.6,227.6 144.6,227.9 144.5,227.9 144.4,227.6 143.9,227.6 143.7,227.8 143.4,227.9 
		142.7,228.5 142.7,228.7 142.5,228.9 142.5,229.2 	"/>
	<polygon class="st0" points="136.7,229.9 136.9,230.1 137.1,230.4 137.3,230.4 137.4,230.4 137.7,230.4 137.9,230.5 138.1,231 
		138.3,230.9 138.3,231.2 138.6,231.2 138.6,231.3 138.7,231.5 138.8,231.5 138.8,231.3 139.1,231 139.7,231 140.1,231.2 
		140.2,231.2 140.3,231.1 141.1,230.8 141.5,230.4 141.5,228.7 141.1,227.7 141,227.4 140.1,227.3 139.9,227.2 139.8,227 
		139.7,226.8 139.9,226.8 139.8,226.5 139.4,226.6 139.4,226.7 139.5,226.7 139.3,227.4 139.1,227.6 138.8,227.6 138.4,227.8 
		138.1,227.8 137.6,228.4 137.2,228.4 136.9,228.7 136.6,228.8 136.5,229.5 136.6,229.6 	"/>
	<polygon class="st0" points="143.5,264.3 142.8,264.1 142.9,263.8 142.7,263.5 142.5,262.7 141.9,262.7 141.9,262.5 141.7,262.5 
		141.6,262.9 141.5,262.9 141.5,263 141.6,263 141.5,263.8 141.3,263.8 140.9,264.2 140.5,264.4 140.5,264.6 140.7,264.6 
		140.7,264.8 140.9,264.8 140.9,265 141.1,265.2 141.2,265.6 141.5,265.9 141.6,266.3 141.6,266.3 141.7,266.5 141.8,266.5 
		141.8,266.3 141.7,266.3 141.7,266.2 142.2,265.7 142.5,265.6 142.7,265.3 143.1,265.1 143.4,264.7 143.5,264.5 	"/>
	<polygon class="st0" points="145.5,276.3 145.2,275.9 144.9,275.5 144.4,275.5 144.3,275.5 144.3,275.6 144.4,275.6 144.4,275.7 
		144,275.8 144.2,276.1 143.8,276.2 143.6,276.6 143.5,276.7 143.5,277.1 144.3,277.2 144.4,276.8 144.5,275.9 144.6,275.8 
		144.7,277.5 144.9,277.3 145.1,277.2 145.3,276.9 145.5,276.5 	"/>
	<polygon class="st0" points="145.9,259.7 146.3,259.5 146.3,259.3 146.5,259.1 146.5,258.7 146,258.6 145.5,258.5 145.5,258.7 
		145.6,258.7 145.7,259.2 145.8,259.3 145.8,259.7 145.7,259.7 145.7,259.9 145.7,259.9 145.7,260.1 145.8,260.1 145.8,260.3 
		145.9,260.4 146,260.4 146,260.5 146.1,260.5 146.1,260.4 146.1,260.4 146,260.3 145.9,260.3 145.9,260.1 145.8,260.1 145.8,259.9 
		145.8,259.9 145.8,259.8 	"/>
	<polygon class="st0" points="151.5,249.5 150.5,249.5 150.5,249.8 150.8,250 150.8,250.5 151.2,250.4 151.2,250.3 151.3,250 
		151.5,250.1 151.5,250 	"/>
	<polygon class="st0" points="158.5,234.5 158.8,234.3 159.2,234.3 159.3,234.4 159.5,233.9 159.4,233.7 159.2,233.7 159.2,233.5 
		158.8,233.6 158.5,233.7 158.5,233.9 158.6,233.9 	"/>
	<polygon class="st0" points="128.5,251.5 128.2,251.6 127.9,251.9 127.7,252.1 127.5,252.1 127.7,252.5 127.7,252.5 127.8,252.3 
		127.9,252.1 128.3,252 128.4,251.8 128.4,251.6 128.5,251.6 	"/>
	<polygon class="st0" points="144.5,280.9 144.4,280.5 143.9,280.6 143.5,280.9 143.6,281.4 143.6,281.4 144.4,281.4 144.5,281.5 
		144.5,281.1 144.4,281.1 144.4,280.9 	"/>
	<polygon class="st0" points="149.9,251.7 149.5,251.9 149.6,252.5 150.1,252 150.1,251.9 150.2,252 150.5,251.9 150.5,251.6 
		150,251.5 	"/>
	<polygon class="st0" points="146.3,282.5 146.3,282.6 146.4,282.6 146.3,282.9 146.4,283.2 146.7,283.5 146.7,282.6 146.7,282.5 	
		"/>
	<polygon class="st0" points="125.3,252.6 125.3,253.1 125.4,253.1 125.4,253.5 125.6,253.4 125.7,253.3 125.7,252.6 125.4,252.5 	
		"/>
	<polygon class="st0" points="155.5,267.5 155.5,267.7 155.7,267.7 156.5,267.7 156.3,267.3 	"/>
	<polygon class="st0" points="157.7,267.9 157.7,267.5 157.3,267.7 157.4,268.5 157.6,268.4 157.7,268.1 157.6,268.1 157.6,267.9 	
		"/>
	<polygon class="st0" points="146.6,278.8 146.5,278.5 146.4,278.5 146.4,279.2 146.4,279.5 146.5,279.4 146.6,279.2 146.5,279.2 
		146.5,278.8 	"/>
	<polygon class="st0" points="150.5,251.6 151.5,251.6 151.5,251.5 150.5,251.4 	"/>
	<polygon class="st0" points="156.7,264.4 156.3,264.5 156.3,264.6 156.7,264.6 	"/>
	<rect x="151.4" y="279.4" class="st0" width="0.2" height="0.2"/>
	<polygon class="st0" points="145.4,282.5 145.6,282.6 145.6,282.4 145.4,282.4 	"/>
	<polygon class="st0" points="148.6,283.5 148.6,283.4 148.4,283.4 148.4,283.4 148.4,283.4 148.4,283.6 148.4,283.6 148.4,283.6 
		148.4,283.6 148.6,283.6 148.6,283.6 148.6,283.6 	"/>
	<polygon class="st0" points="100.6,78.3 100.5,78.3 100.5,78.5 100.3,78.5 100.3,78.7 100.5,78.7 100.6,78.7 100.7,78.7 
		100.7,78.4 	"/>
	<polygon class="st0" points="100.4,79.9 100.2,79.8 100.2,79.5 99.8,79.6 99.8,79.7 99.9,79.7 99.9,79.8 99.5,79.8 99.5,80.1 
		100,80 100.1,80.4 100,80.5 100.3,80.5 100.4,80.5 100.5,80.5 100.5,80.3 100.4,80.2 	"/>
	<polygon class="st0" points="103.9,66.1 104,66.1 104,66.1 104.4,66.5 104.5,66.5 104.5,66.4 103.7,65.5 103.5,65.6 103.9,66 
		103.9,66 	"/>
	<polygon class="st0" points="109.3,206.6 109.2,206.8 108.8,207.1 108.6,207.2 108.5,207.3 108.5,207.4 108.7,207.5 109,207.2 
		109.4,206.7 109.5,206.6 109.5,206.5 	"/>
	<polygon class="st0" points="80.3,219.5 80.2,219.8 80,220 79.8,220.2 79.5,220.5 80.2,220.3 80.4,220 80.5,219.9 80.4,219.6 	"/>
	<polygon class="st0" points="93.5,114.4 93.5,114.5 93.5,114.5 93.5,114.5 93.5,114.6 93.5,114.5 93.5,114.5 93.5,114.5 
		93.5,114.4 	"/>
	<polygon class="st0" points="91.6,111.4 91.6,111.3 91.5,111.3 91.5,111.3 91.5,111.3 91.4,111.3 91.5,111.3 91.5,111.4 
		91.5,111.4 91.5,111.5 91.5,111.5 91.5,111.6 91.5,111.6 91.5,111.6 91.5,111.7 91.6,111.7 91.6,111.7 91.6,111.7 91.5,111.6 
		91.5,111.6 91.5,111.6 91.6,111.6 91.6,111.5 91.6,111.5 91.6,111.4 91.6,111.4 	"/>
	<polygon class="st0" points="22.5,51.6 22.5,51.7 22.5,51.7 22.5,51.8 22.6,51.8 22.6,51.7 22.6,51.7 22.7,51.7 22.7,51.8 
		22.8,51.9 22.8,52.2 22.8,52.3 22.7,52.5 22.6,52.5 22.6,52.5 22.6,52.4 22.6,52.4 22.6,52.5 22.6,52.7 22.6,52.7 22.6,52.9 
		22.6,52.9 22.7,52.9 22.7,53 22.8,53.1 22.7,53.4 22.7,53.5 22.7,53.6 22.8,53.8 22.8,54 22.8,54.1 22.9,54.3 22.9,54.5 23,54.5 
		23.1,54.4 23.2,54.2 23.3,54.1 23.3,53.8 23.2,53.7 23.2,53.6 23.2,53.4 23.2,53.3 23.1,53.2 23.4,53 23.4,52.9 23.5,52.9 
		23.5,52.9 23.5,52.8 23.5,52.8 23.5,52.8 23.4,52.7 23.4,52.5 23.4,52.5 23.4,52.5 23.4,52.3 23.4,52.2 23.4,52.2 23.4,52.1 
		23.4,52.1 23.3,52 23.3,51.8 23.4,51.7 23.3,51.6 23.1,51.6 23.1,51.2 23.2,51.2 23.1,51.1 23.1,51 23.1,50.9 23.1,50.8 23.1,50.7 
		23,50.8 22.9,50.8 22.9,50.7 22.8,50.6 22.8,50.6 22.8,50.5 22.8,50.5 22.7,50.6 22.7,50.7 22.7,50.8 22.7,50.9 22.6,50.9 
		22.6,50.9 22.6,50.9 22.6,50.9 22.7,51 22.7,51.1 22.6,51.4 22.6,51.4 22.6,51.4 22.5,51.4 22.5,51.5 22.5,51.5 	"/>
	<polygon class="st0" points="8.5,54.5 8.6,54.6 8.6,54.5 8.7,54.5 8.7,54.5 8.8,54.6 8.8,54.6 8.8,54.8 8.8,54.9 8.7,55 8.8,55.1 
		8.8,55 9,55 9.1,55.2 9.1,55.2 9.1,55.3 9.2,55.3 9.3,55.3 9.4,55.4 9.4,55.5 9.5,55.5 9.6,55.5 9.7,55.5 9.7,55.4 9.7,55.3 
		9.8,55.3 9.9,55.3 10,55.3 10.1,55.3 10.2,55.3 10.2,55.4 10.3,55.5 10.4,55.6 10.4,55.6 10.3,55.7 10.3,55.9 10.4,56 10.5,56 
		10.6,56 10.6,55.9 10.6,55.8 10.6,55.7 10.7,55.6 10.8,55.6 10.9,55.6 11.1,55.7 11.2,55.8 11.3,55.9 11.3,56.1 11.3,56.3 
		11.3,56.4 11.3,56.5 11.3,56.5 11.2,56.6 11.2,56.7 11.2,56.8 11.2,56.8 11.3,56.9 11.4,56.9 11.6,61.2 11.6,61.3 11.5,61.3 
		11.5,61.3 11.5,61.4 11.5,61.4 11.5,61.5 11.6,61.5 11.6,61.5 11.6,61.5 11.7,61.5 11.7,61.5 11.7,61.5 11.8,61.4 12,61.4 12,61.3 
		11.8,61.3 11.7,61.3 11.7,61.3 11.7,61.2 11.5,56.9 11.6,56.9 11.6,56.8 11.7,56.8 11.7,56.7 11.8,56.7 12,56.7 12,56.7 12,56.6 
		12,56.6 12,56.5 12,56.4 12,56.2 12.1,56.1 12.2,56 12.4,55.9 12.6,55.9 12.8,55.8 12.9,55.8 13.1,55.9 13.3,56 13.4,56.2 
		13.3,56.2 13.4,56.3 13.4,56.3 13.4,56.3 13.5,56.3 13.5,56.3 13.5,56.2 13.4,56.2 13.3,56 13.2,55.8 13.2,55.7 13.1,55.6 
		13.2,55.6 13.2,55.5 13.3,55.5 13.4,55.4 13.4,55.4 13.5,55.4 13.5,55.3 13.5,55.3 13.5,55.3 13.4,55.3 13.4,55.3 13.4,55.3 
		13.4,55.4 13.3,55.4 13.3,55.4 13.2,55.5 13.2,55.5 13.1,55.4 13,55.4 13,55.4 12.9,55.3 12.9,55.2 12.9,55.2 12.9,55.1 12.9,55.1 
		12.9,55 12.9,55 13,54.9 13,54.9 13.1,54.9 13.2,54.9 13.2,54.9 13.2,54.9 13.3,54.9 13.4,54.9 13.4,55 13.4,55.1 13.4,55.1 
		13.4,55.1 13.5,55.1 13.5,55.1 13.5,55 13.4,55 13.4,54.9 13.3,54.8 13.2,54.8 13,54.8 12.9,54.9 12.7,55 12.5,55.1 12.5,55.1 
		12.4,55.1 12.3,55 12.2,55 12.1,54.9 12.1,54.8 12,54.7 12,54.7 12,54.7 12,54.8 11.9,54.8 11.8,54.8 11.7,54.8 11.7,54.7 
		11.7,54.6 11.7,54.5 11.7,54.3 11.8,54.3 11.9,54.3 12,54.3 12,54.4 12,54.4 12,54.4 12,54.4 12,54.4 12,54.5 11.9,54.5 11.9,54.5 
		12,54.5 12,54.6 12,54.6 12,54.6 12.1,54.5 12.1,54.5 12.1,54.5 12,54.4 12,54.3 11.9,54.2 11.8,54.2 11.7,54.3 11.6,54.4 
		11.6,54.4 11.6,54.5 11.6,54.5 11.5,54.5 11.3,54.5 11.2,54.5 11.1,54.4 10.9,54.3 10.9,54.3 10.8,54.2 10.9,54.1 10.9,54.1 
		10.9,54.2 11,54.2 11,54.1 11,54.1 10.9,54.1 10.9,54.1 10.8,54.1 10.7,54.2 10.7,54.3 10.4,54.1 10.4,54 10.4,54 10.5,54 10.5,54 
		10.5,53.9 10.5,53.9 10.4,53.9 10.4,53.9 10.3,54 10.2,54.1 10.2,54.2 10.1,54.2 9.8,54.1 9.7,54 9.5,53.9 9.5,53.8 9.6,53.7 
		9.7,53.6 9.8,53.6 9.8,53.6 9.9,53.6 10,53.7 10,53.7 10.1,53.7 10,53.7 9.9,53.6 9.8,53.5 9.7,53.5 9.6,53.6 9.5,53.5 9.4,53.5 
		9.5,53.7 9.5,53.7 9.3,53.9 9.1,53.8 9,53.9 9,53.7 8.9,53.7 8.8,53.8 8.9,53.8 8.9,53.9 8.7,54 8.7,54.1 8.6,54.1 8.5,54.1 
		8.5,54.2 8.5,54.4 	"/>
	<polygon class="st0" points="18.3,78.1 18.3,77.9 18.4,77.7 18.5,77.7 18.5,77.6 18.4,77.6 18.4,77.7 18.2,77.7 18,77.6 17.7,77.7 
		17.1,77.5 17.1,77.4 17.1,77.3 17,77.3 17,77.2 16.9,77.2 16.8,77.2 16.7,77.3 16.4,77.1 16.5,77 16.5,76.9 16.4,76.7 16.4,76.5 
		16.4,76.4 16.3,76.3 16.2,76.2 16.3,75.9 16.3,75.7 16.4,75.7 16.4,75.6 16.4,75.5 16.3,75.4 16.2,75.1 16.3,74.8 16.2,74.7 
		16.2,74.5 16.2,74.1 16.4,74 16.3,73.7 16.3,73.5 16.3,73.3 16.2,73.2 16.1,73.1 16.1,72.9 16.2,72.9 16.3,72.8 16.1,72.6 
		16.1,72.4 16.2,72 16.2,71.3 16.3,70.8 16.3,70.4 16.4,70.2 16.3,70 16.1,69.8 16.1,69.5 16.2,69.3 16.3,69.3 16.4,69.3 16.4,69.1 
		16.3,68.9 16.3,68.7 16.4,68.4 16.6,68.3 16.7,68.1 16.8,68 16.9,67.8 17.1,67.5 17.1,67.2 17.1,66.9 17.2,66.6 17.2,66.6 
		17.2,66.4 17.4,66.4 17.4,66.4 17.5,66.1 17.5,65.9 17.4,65.7 17.3,65.6 17.2,65.4 17.1,65.1 17.1,65 17.1,64.8 18.1,64.7 
		18.4,64.7 18.4,64.6 18.4,64.4 18.2,64.4 18.1,64.5 17.5,64.6 17,64.7 16.8,64.5 16.7,64.4 16.8,64.3 16.7,64.2 16.7,64 16.7,63.3 
		16.7,63.3 16.7,63.2 16.6,63 16.5,62.8 16.2,62.8 15.8,62.8 15.4,62.7 15,62.7 14.7,62.7 14.5,62.7 14.3,62.7 14,62.7 13.5,62.8 
		13.1,62.8 12.8,62.8 12.4,62.7 12.1,62.6 12.3,61.1 12.2,61.1 12.1,62.2 11.8,62.3 11.7,62.3 11.7,62.2 11.5,62 11,61.5 10.7,61.2 
		10.5,61 10.5,61 10.4,60.9 10.4,60.9 10.1,60.7 9.9,60.5 9.8,60.4 9.5,60 9.5,59.9 9.4,59.9 9.4,59.7 9.2,59.7 9.1,59.7 8.9,59.6 
		8.6,59.5 8.3,59.4 8.1,59.4 7.9,59.3 7.6,59.2 7.2,59 7,58.9 7,58.8 6.1,58.7 5.1,58.4 4.7,58.2 4.2,58.1 3.3,57.9 0.9,57.6 
		0.8,57.5 0.7,57.5 0.5,57.7 0.5,57.8 1.2,57.8 1.5,57.9 1.8,57.9 2.2,58 3.2,58.1 4.1,58.3 4.6,58.5 5.3,58.7 5.6,58.8 6,58.9 
		6.2,59 6.6,59.1 7,59.2 7.2,59.1 8.1,59.5 8.5,59.7 9.1,59.8 9.9,60.6 10.4,61 10.8,61.4 10.9,61.6 10.9,61.6 11,61.7 11.7,62.5 
		11.7,62.5 11.5,62.7 11.6,62.7 11.7,62.6 11.8,62.5 11.9,62.7 11.8,62.9 11.8,63.1 11.6,63.2 11.4,63.1 11.3,63 11,62.7 10.9,62.7 
		10.9,62.7 9.5,61.4 9.1,61.9 9.3,62 9.1,62.2 8.9,62.1 8.7,62.3 8.9,62.4 8.7,62.9 8.5,63.2 8.4,63.3 8.2,63.2 7.5,62.9 6.9,62.5 
		6.4,62.2 6,61.8 5.4,61.4 4.9,61.2 4.6,61 4.1,60.7 3.7,60.5 3.4,60.4 2.7,60.1 2.2,59.9 1.7,59.8 1.1,59.7 0.5,59.5 0.5,60 
		1.2,60.1 1.7,60.3 2.4,60.4 2.8,60.6 3.4,60.8 3.9,61 4.2,61.2 4.7,61.5 5.5,61.9 6.6,62.5 7.2,62.9 7.9,63.2 8.4,63.5 8.5,63.4 
		9,63.6 8.9,63.7 8.8,63.7 8.8,63.7 8.8,63.7 8.8,63.9 8.8,64 8.9,64.1 8.8,64.2 8.5,64.4 8.4,64.3 8.3,64.2 8.2,64.1 8.1,64.1 
		8,64.2 8,64.5 8,64.7 8.1,64.9 8.1,65 8.1,65.2 7.9,65.3 7.6,65.1 7.5,65.1 7.3,65.3 7.2,65.4 7,65.6 7,65.7 7,65.7 7,65.8 7,66 
		6.7,66.1 6.6,66.1 6.4,66.3 5.9,66.3 6,66.6 5.5,66.6 5.4,66.4 5.3,66.2 4.8,66.4 4.8,66.6 4.8,66.7 4.4,66.8 4.4,67 4.2,67 
		4.1,67.1 4.2,67.2 4.1,67.3 3.8,67.3 3.7,67.4 3.7,67.6 3.4,67.9 3.4,68 3.4,68 3.5,68 3.6,67.9 4,67.8 4,67.6 4.2,67.6 4.2,67.3 
		4.3,67.2 4.4,67.2 4.5,67.5 4.3,67.9 4.1,67.9 3.9,68.1 3.8,68.5 3.7,68.5 3.7,68.2 3.3,68.5 3.3,68.6 3.6,68.6 3.6,68.7 3.6,69.1 
		3.4,69.3 2.9,69.3 2.7,69.5 2.8,69.7 2.7,70.3 2.6,70.2 2.6,69.7 2.5,69.7 2.4,70.2 2.3,70.3 2.4,70.6 2.6,70.6 2.7,70.7 2.7,71.6 
		2.6,71.7 2.6,71.8 2.7,71.9 2.7,72.2 2.5,72.2 2.5,71.9 2.4,71.9 2.4,72.3 2.6,72.3 2.7,72.4 2.7,72.7 2.6,72.8 2.6,73 2.7,73.2 
		2.7,73.4 2.6,73.6 2.6,73.7 2.9,73.9 2.9,74.2 3.3,74.6 3.8,74.7 4,75.1 4,75.8 4.1,75.9 4,76.7 3.8,77 3.7,77.2 3.7,77.3 
		3.6,77.9 3.7,78 3.8,78 3.9,78.1 4.1,78.1 4.1,78 4.2,78 4.4,78.2 4.9,78.4 4.9,78.7 5.2,79.2 5.2,80.6 5,80.9 4.8,81.2 4.6,81.2 
		4.6,81.9 5,82 5.3,82.2 5.8,82.3 5.9,82.4 6.4,82.4 6.8,82.5 6.9,82.6 7.1,82.5 7.5,82.5 7.8,82.5 8.2,82.5 8.8,82.7 8.9,82.8 
		9.1,82.9 9.3,82.9 9.4,82.9 9.5,82.9 9.6,82.8 9.7,82.7 9.9,82.6 10,82.4 10.1,82.3 10.3,82.2 10.6,82.1 11.2,81.9 11.7,81.8 
		12.1,81.8 13.1,81.8 13.2,81.8 13.4,81.8 13.5,81.9 13.6,81.9 13.7,82 13.7,82.3 13.6,82.3 13.5,82.3 13.5,82.3 13.5,82.4 
		13.6,82.4 13.6,82.4 13.5,82.4 13.5,82.5 13.5,82.5 13.5,82.6 13.5,82.5 13.6,82.5 13.7,82.5 13.8,82.6 13.8,82.6 13.8,82.6 
		13.8,82.6 13.8,82.5 13.8,82.5 13.7,82.5 13.8,82.4 13.8,82.4 13.8,82.3 13.8,82.3 13.8,82.3 13.7,82.3 13.7,82.3 13.8,81.8 
		13.9,81.8 14,81.8 14.6,81.9 14.8,81.9 15,81.9 15.3,82 15.6,82.1 16,82.3 16.3,82.5 16.6,82.7 16.8,82.9 17,83.1 17.2,83.3 
		17.5,83.4 17.9,83.5 18.1,83.5 18.3,83.5 18.4,83.4 18.5,83.3 18.4,83 18.5,82.8 18.4,82.6 18.2,82.5 18.1,82.3 17.9,82.1 
		17.9,81.7 17.8,81.5 17.5,81.1 17.5,80.8 17.6,80.4 17.7,80.3 17.8,80.2 17.8,80.1 17.9,80.1 17.9,80 17.9,79.9 18.1,79.7 
		18.2,79.6 18.2,79.5 18.2,79.4 18.3,79.1 18.4,79 18.4,79 18.4,78.9 18.4,78.7 18.3,78.7 18.2,78.6 18.2,78.5 18.2,78.3 	"/>
	<polygon class="st0" points="18.5,45.5 18.5,45.4 18.5,45.5 18.5,45.6 18.5,45.5 	"/>
	<polygon class="st0" points="18.7,46.4 18.6,46.4 18.6,46.3 18.5,46.3 18.5,46.3 18.5,46.4 18.4,46.4 18.4,46.4 18.4,46.4 
		18.4,46.4 18.3,46.5 18.3,46.6 18.4,46.5 18.4,46.5 18.4,46.5 18.4,46.5 18.4,46.6 18.4,46.6 18.4,46.6 18.3,46.6 18.4,46.6 
		18.4,46.7 18.5,46.6 18.5,46.6 18.6,46.6 18.7,46.5 18.7,46.5 18.6,46.5 	"/>
	<polygon class="st0" points="12.6,53.3 12.6,53.3 12.7,53.4 12.7,53.4 12.7,53.4 12.7,53.4 12.8,53.5 12.8,53.5 12.9,53.5 
		12.9,53.5 12.9,53.5 12.9,53.5 12.9,53.5 12.9,53.5 12.9,53.5 12.9,53.4 12.9,53.4 13,53.4 13,53.3 13.1,53.3 13.1,53.3 13.2,53.3 
		13.3,53.3 13.3,53.3 13.3,53.3 13.3,53.3 13.3,53.2 13.3,53.2 13.3,53.3 13.2,53.2 13.1,53.3 13.1,53.3 13,53.3 12.9,53.4 
		12.9,53.4 12.9,53.4 12.9,53.5 12.9,53.4 12.8,53.4 12.8,53.4 12.8,53.4 12.7,53.4 12.7,53.3 12.7,53.3 12.7,53.3 12.7,53.3 
		12.6,53.3 12.6,53.2 12.5,53.1 12.6,52.9 12.7,52.9 12.9,52.8 13,52.8 13,52.8 13,52.7 13.1,52.6 13.1,52.6 13.1,52.6 13.1,52.6 
		13.2,52.6 13.3,52.7 13.3,52.7 13.4,52.8 13.4,52.9 13.5,52.9 13.5,53 13.4,53 13.4,53.1 13.4,53.1 13.4,53.1 13.4,53.2 13.4,53.2 
		13.4,53.2 13.4,53.1 13.4,53.1 13.4,53.1 13.5,53 13.5,53 13.5,52.9 13.5,52.9 13.4,52.8 13.4,52.7 13.4,52.7 13.4,52.7 13.3,52.6 
		13.2,52.6 13.2,52.5 13.1,52.5 13.1,52.5 13,52.6 13,52.7 12.9,52.7 12.9,52.8 12.8,52.8 12.7,52.8 12.7,52.8 12.7,52.8 12.5,53.1 
		12.5,53.1 12.5,53.2 	"/>
	<polygon class="st0" points="28.6,81.6 28.7,81.6 28.7,81.6 28.8,81.6 28.8,81.6 28.8,81.6 28.9,81.6 29,81.6 29,81.6 29,81.6 
		29,81.6 29.1,81.6 29.1,81.6 29.2,81.6 29.3,81.7 29.3,81.7 29.3,81.6 29.4,81.6 29.5,81.5 29.5,81.5 29.5,81.5 29.5,81.5 
		29.5,81.4 29.4,81.4 29.4,81.4 29.4,81.4 29.4,81.3 29.3,81.4 29.2,81.4 29.1,81.4 28.8,81.5 28.8,81.5 28.7,81.5 28.5,81.6 
		28.5,81.6 28.5,81.6 28.5,81.6 28.5,81.6 	"/>
</g>
</svg>
