<?xml version="1.0" encoding="utf-8"?>
<!-- Generator: Adobe Illustrator 24.1.2, SVG Export Plug-In . SVG Version: 6.00 Build 0)  -->
<!DOCTYPE svg PUBLIC "-//W3C//DTD SVG 1.1//EN" "http://www.w3.org/Graphics/SVG/1.1/DTD/svg11.dtd" [
	<!ENTITY ns_extend "http://ns.adobe.com/Extensibility/1.0/">
	<!ENTITY ns_ai "http://ns.adobe.com/AdobeIllustrator/10.0/">
	<!ENTITY ns_graphs "http://ns.adobe.com/Graphs/1.0/">
	<!ENTITY ns_vars "http://ns.adobe.com/Variables/1.0/">
	<!ENTITY ns_imrep "http://ns.adobe.com/ImageReplacement/1.0/">
	<!ENTITY ns_sfw "http://ns.adobe.com/SaveForWeb/1.0/">
	<!ENTITY ns_custom "http://ns.adobe.com/GenericCustomNamespace/1.0/">
	<!ENTITY ns_adobe_xpath "http://ns.adobe.com/XPath/1.0/">
]>
<svg version="1.1" id="Livello_1" xmlns:x="&ns_extend;" xmlns:i="&ns_ai;" xmlns:graph="&ns_graphs;"
	 xmlns="http://www.w3.org/2000/svg" xmlns:xlink="http://www.w3.org/1999/xlink" x="0px" y="0px" viewBox="0 0 400 296"
	 style="enable-background:new 0 0 400 296;" xml:space="preserve">
<style type="text/css">
	
		.st0{fill-rule:evenodd;clip-rule:evenodd;fill:#FFFFFF;stroke:#E75F52;stroke-linecap:round;stroke-linejoin:round;stroke-miterlimit:10;}
</style>
<metadata>
	<sfw  xmlns="&ns_sfw;">
		<slices></slices>
		<sliceSourceBounds  bottomLeftOrigin="true" height="298" width="401" x="-0.5" y="-1.5"></sliceSourceBounds>
	</sfw>
</metadata>
<desc>Created with Sketch.</desc>
<path id="Fill-49" class="st0" d="M387.3,86l-0.7-1.8l-3.5-0.8l-1.2,0.9l-1.2-0.9l-2.6,3.5l-3.3,1l0.9,1.5l1.2,5.7l-0.5,4.8l0.7,1.3
	l-1.9,4.9l-1.4-0.3l-2.4,1.2l0.7,1.7l-1.9-1.9v-1.4l-2.4-0.9l-1.2,5l-3.1,0.5l-0.2,1.5l-1.9,1.7l-5.6,0.2v1l1.6,2.6l-0.7,1.6
	l-1.6-0.5l-1.9,0.2l-3.5-0.9l-1.2-2.3l-2.1,1.2l-1.2,2.7l-2.8,4l-1.4,0.1l-1.6,1.3l-4.2,2l-3.3,3.3l-1.6,2.3l-5.6,0.6l-5.6,3.1
	l-3.5,3.9l-1.4-0.5l-0.9,1.6l-2.1,0.7l0.2-1.9l3.1-1.2l-0.7-2.4l-1.6-2l1.4-0.5v-1.8l2.4-1.1l2.6-4.4l-1.6-2l-3.1-0.8l-1.4-0.8
	l-2.4,0.8l-0.2,1.3l-2.1,1.8l-1.2,2.4l-5.9,2.6l-1.4,1.5l-0.5,2.4l-1.9,2l-2.6,0.4l-1.6,1.1l-2.1-1.6l-2.1,1.1l-1.2,4l1.2,2.1l2.4,2
	l3.1,0.6l1.9-0.7l1.9,2.5l-0.9,2v2.8l3.3,1.3l2.1-0.2l0.7-1.7l2.1-1.3l0.7-1.4l2.8-1.3l4,2l1.6,1.4l3.5-0.5l2.6,1.4l-0.7,1.4
	l0.7,1.7l-1.4,1l-1.9-1.4l-5.6,2.6l-2.8,1.7l-0.7,1.1l0.5,1.4l-2.4,0.9l0.2-1.2l-1.9-0.1l0.9,1.9l-1.2,1l-0.9,1.8l-1.6,0.3l-1.4,2
	l-0.5,1.9l-1.4,0.3v2.1l1.9,0.3l1.4,1.6l4,1.9l0.9,3.5l3.1,6.7l-0.2,2.7l3.5,2.2l0.5,2.2l2.4,1.3l0.7,1.5l-0.7,0.4l-3.5-1.5
	l-1.9,0.5l0.9,1.1l1.2,1.4l2.6,1.7l1.6,2.8l-3.5,1.2l-2.8,1.7l-1.4,1.9l0.7,1l1.6-1.3l1.6,0.1l1.9,2.4l2.1,1.4L316,214v3.3l-1.9,0.1
	l0.2,2l-1.2,1.9l1.2,2.4l-2.1,0.8l-1.4,0.1l-3.5,4.7l-0.5,2.8l-1.6,0.6l-0.9,3.5l-1.6-0.1l-0.5-1h-1.2l1.2,2.3l-0.9,0.9l-0.7,2.2
	l0.9,0.4l-0.5,1.7l-3.5,2.4l0.9,0.6l0.2,1.1l-2.1-0.3l-1.6,2.7l0.2,0.7l-1.2,1.3l-0.9-0.4l-1.4,0.6l-0.7,2l-1.2,0.4l-0.2,1.3l-4,1.9
	l-0.2,0.8l-2.4,0.3l-0.7,2.3l-1.2,0.5l-0.7,2l-1.2-0.1l-1.4,0.9l-1.9,0.2l-1.4-0.5l-1.4,1.3l-0.9-1l-3.1,1.7l-0.2-1.4l-3.3,1.7
	l-0.9,0.2l-1.2,0.3l-1.9-3.2l-1.6,0.3l1.6,2.2v1.5l-0.7,1.6l-1.4-0.2l-0.5,1l-1.2-0.1l-2.8,2l-0.9-0.4l-1.4,0.9l-0.2-0.9l-3.8,2.2
	l-2.8-0.1l-3.8,2.2l-1.2-0.1l-1.9,1.9v1l1.4,0.1L240,279l1.4,1.4l-0.9,1.3l-1.9,0.4l-0.7-1.3l-1.2-0.7l-0.5-2.1l-0.7-0.7l0.2-1.4
	l0.7-1.7l-1.6-1l-2.6,0.7v-1.5l-2.6-0.4l-1.2-1.1l-0.7,1.1l-0.9-0.3l-2.1,1.6l-0.9-1.1l-3.3,0.3l-3.1-2.7l-1.4-0.2v-1.6l-0.9-1.5
	l1.4-2.3l-1.6-1.3l-1.2,0.5l-1.9-0.8l-0.9,0.5l-3.5-3l-3.1,1.1l-0.2,1.7l-3.1,1.7l-0.9-1l-1.2,0.8l-0.2,1.4l-2.4-2l-0.7,1.6
	l-1.4-1.5l-2.1,2.5l-0.9-1l-2.6-1.3l-1.4,2.5l-0.7,0.1l-2.6-0.7l-1.4,1.9l0.7,1.9l0.9,1.1l-0.2,4.8l-1.4-0.8l-1.6,0.5l-0.7-2.6
	l-0.2-1.5l-1.6,0.6l-0.9,1.2l-1.6,0.4l-3.3-1.9l-0.2-2.3l-0.7,0.2l-4.5-1l1.4-2.5l-0.2-1.8l1.2-2.2l-2.8-0.3l-1.4-0.6v-3.1l-1.2-1.3
	v-1.3l-1.2-1.1l-2.1,0.1l-3.5,1.8l-0.7-0.6l1.2-1.3l-0.5-2.3l-0.7,0.1l0.2-2.2l1.4-0.8l-0.5-0.8l2.6-3.1l0.2-1.6l1.4,0.3l1.2-1.9
	l1.2-0.3l-0.9-1.6l1.2-3.9v-3.1l-0.5-0.9v-3l-1.6-0.8l-0.7,1.1l-1.4-3.2l0.2-1.3l-1.6-1.7l-2.1-1.2l-1.4,2.4l-1.4-1.1l-0.9,0.3
	l-1.9-2l-0.7-1.7l-2.8-4.2l-2.6,0.2l-1.6,1.6l-1.9,0.3l-2.8-0.5l-0.9-1.2l-2.4,1.7l0.5,0.5l-4.7,2.6h-1.2l-1.9,1.4l-0.5,0.9l-2.8,2
	l-0.2,1.4l-2.1,0.9l-2.1,0.4l-2.1-0.2v-1.1l-2.4-1.3l-1.2,0.9l-2.8-0.9l-0.5-1l-2.4-0.9l-2.6,0.4l-1.9,1.2l-3.3,3.9l-1.2,2.2
	l-0.9-1.7l0.7-2.2l-0.2-1.1l-1.2-0.8l-1.6,0.9l-1.6,0.2v0.7l-1.9-0.4l-0.7,0.7l-3.8-0.1l-0.7-0.8l-3.3-1.1l-0.7,1.3l-2.8,0.2L80,225
	l-1.6-0.6l-3.3-0.5l0.5-2l-1.6,0.3l-1.6-0.5l-2.8-2.2l-0.9-2.6l-1.4-0.3l-1.4,0.9l-0.9-0.2l-2.4-3.2l-2.1-0.3l-1.9-2l-2.6-1.1
	l-0.2-2l-3.3-0.6l-2.6,3.2l-1.4-1.5l-1.6-1.5l-3.1-1.4l-2.8-3l-1.6,0.1l-1.9-1.4l-1.6-2.4l-0.5,0.9l-1.6-0.1l-0.2-1.4l0.9-0.8
	l-0.9-1.2l0.5-1.5l-1.9-2l-0.5-2.4l1.4-0.3l1.9,1.7l1.2-0.2l2.6-2.1l-0.9-2.5l0.2-1.6l-2.6-1.1l-1.2-1.9l-0.5-4.2l1.6-1.1l-0.2-1.2
	l-4.2-2.3l-1.9-4.9l0.2-1.5l-1.6-0.3l-2.4,0.2l-4.2-1.5l-1.4-1.8l-2.6,0.6l-1.9-2.4l0.9-1.1l-0.2-1.9l-1.2-1.8l-2.6-0.5l-0.5-1.4
	l-5.2-0.9l-1.2-0.8l2.4-1.5l1.2,0.6l1.6-1.4l-1.6-1.6l0.5-1.4l-1.2-2.7l-0.2-3.6l-2.8-1.3H3.3l-0.5,1.2l-1.6-0.6l-0.7-2.1l0.9-1.2
	L0,137.5l0.2-1.8l1.9-1.3l-0.7-1.8l1.2-2.1l2.4-0.4l2.1-2l0.9-1.6l2.4,0.7l2.6-1.6l0.7,2.8l1.4-0.1l2.1-1.1l1.4,0.1l2.1-4.6l1.4-0.8
	l3.1,0.6l4-0.5l1.9-3l6.1-3.5l2.8-0.9l0.7-1.1l2.4-0.1v-1.5l0.5-0.5l-0.9-3.3l0.7-1.5l2.1-1l-1.2-1.1l2.6-1l-0.9-1.8l0.5-1.1
	L44,94.7v-5l-0.7-1.5l-1.6,0.3l-0.7-1l1.2-1l5.2-1l5.9-1.9l1.4,1.8l2.1-0.8l1.9,0.4l0.2-2.3l-2.1-0.9l4.5-13.5l0.2-2.4l0.9-0.1
	l4.9,2.3l4.9-0.1l0.7,1.6l2.8-2l1.9-0.3l1.2-3.1l-0.9-5.3l1.6-4.8l2.6-0.1l2.6-1.1l1.2-1.7L85.6,48l1.2-1.1l2.8,0.1l3.3-0.7L92.7,50
	l0.9,1.9l4,2.6l0.2,1.2l3.1,2.2l3.3-0.4l1.2,2l1.9-0.5l2.1,2.2l0.7,3.4l2.4,3.1l1.4,4l-0.9,2.5l0.7,2.6l-1.9,2.6l-0.5,2.4l1.6,3
	l1.6-0.1l3.3,1.3l2.4-0.3l3.1,0.8l1.9-0.4l4.9,0.8l2.6,2.6l1.9,0.3l0.9,1.3l4.5,2.3l2.4-0.3l-0.5,2.5l1.2,0.3l2.6,6.9l2.6,2.5
	l0.5,1.7l5.4-0.4l14.8,2l3.5-1l8,1.2l2.6,0.1l2.6,3l6.8,1.6l4.2,2.2l5.2-1v1.8l3.3,0.6l1.6-1.5l4-2.1l5.9-2.6l9.2-1.5l4,0.5l4.5-0.5
	l1.4-0.9l4.7-2l3.5-4.6l4.2-2.1l2.1-1.5l-0.5-2.3l-2.8-3.7l2.1-5.8l1.9-1l2.8,0.3l0.9,1.3l3.3,1.2l3.5,0.4l2.6-1.8l2.4-2.5l0.9-1.7
	l2.6,0.1l4.5-0.7l3.5-2.5l0.2-1.8l2.6-3.8l1.4-0.7l3.3,0.3l0.5-2.1l2.1,0.5l3.5-1.9l3.1,0.3l0.7-0.7l3.5,1.3l2.4,0.3l1.4-1.2v-1.9
	l-1.4-2.4l-3.8-3.5l-0.5-1.4l-2.1-1l-1.4-2l-2.4-0.7l-2.8,0.5l-1.6,1.9l-1.2,1.2l-3.1-2h-4l-2.6,1.5l-1.9-2.2l-0.2-1.8l1.9-1.5v-2.6
	l5.6-13l2.6,1.6l4.5,1.7l2.8-1.7l3.1-2.8l2.8-0.3l1.9-1.1l-0.5-5.1l3.3-5.1l2.4-6.1l2.8-2.5l1.4-2.4l-0.9-2.4l0.7-2.1l-2.1-1
	l-2.4,0.4l-0.2-1.8l1.6-1.1l4-4.6h2.1l7.3-2.3l3.5,0.2l2.6-1.1l2.4,0.2l4,2l3.3,2.4l2.6-0.6l3.3,1.7l3.8,5.7l2.1,4l-0.5,1.8l2.1,6
	l1.2,1.2l-0.2,2.5l2.4,3.3l0.2,4.3l1.6,1.1l-0.5,4l2.1,2.4l1.6,0.6l4.7-0.4l-0.2,1l2.1,1.3l4,0.8l1.4,2.4l2.1,1.7h2.8l-0.9,2.4
	l1.9,2.9l-0.9,2.9l2.4,3.5l2.6-0.5l0.9,0.7l6.1-0.4l1.2-2.3l2.6-1.5l2.4,0.1l1.9-1.5l4.2-1.4l2.1,1.2l-0.9,2.1l1.4,3.3l-1.9,2.7
	l-2.1,1.7l-1.2,6l-0.9,1.5l0.5,2l-1.4,1.2l-1.9,5.2l-1.9,1.4v2.9L387.3,86z M315.8,200l-2.3-0.6l-2.5-2l0.7-0.4l4.3,2.3L315.8,200z
	 M242.1,283l1.7,1.2l0.2,2.2l-2.2,2.2l-1.5,5l-1.5,0.3l-1.2,1.9l-1.9-0.1v1l-1.2,0.4l-1-0.7l-1.9,0.1l-2.9-1.6l-0.7-5.1l2.7-2.8
	l1-0.3l1-2l1.2,0.6l1.7-1.2l1.9,0.4l1-0.8l1.5-0.1l1.5,0.7L242.1,283z"/>
</svg>
