<?xml version="1.0" encoding="UTF-8"?>
<svg width="400px" height="296px" viewBox="0 0 400 296" version="1.1" xmlns="http://www.w3.org/2000/svg" xmlns:xlink="http://www.w3.org/1999/xlink">
    <!-- Generator: Sketch 64 (93537) - https://sketch.com -->
    <title>7</title>
    <desc>Created with Sketch.</desc>
    <g id="7" stroke="none" stroke-width="1" fill="none" fill-rule="evenodd">
        <path d="M387.294437,85.9513232 L386.589389,84.1415373 L383.05925,83.3606527 L381.884169,84.2692291 L380.70664,83.3606527 L378.116566,86.8549883 L374.823891,87.8863452 L375.766404,89.4284694 L376.941485,95.1721454 L376.471452,99.975322 L377.176501,101.232595 L375.293923,106.106985 L373.881378,105.856512 L371.531216,107.101507 L372.236265,108.837625 L370.353687,106.978727 L370.353687,105.608495 L368.001077,104.734298 L366.823548,109.704456 L363.76589,110.198034 L363.528425,111.678768 L361.648296,113.402607 L356.000563,113.645713 L356.000563,114.627957 L357.648124,117.196527 L356.943076,118.780397 L355.295514,118.294186 L353.412937,118.537291 L349.882798,117.682738 L348.705269,115.364641 L346.590123,116.587536 L345.412594,119.264152 L342.589952,123.261888 L341.177407,123.384669 L339.529845,124.710699 L335.294658,126.753768 L332.001983,130.100767 L330.354422,132.364841 L324.706689,132.959099 L319.058956,136.035981 L315.531265,139.923214 L314.11872,139.451737 L313.178655,141.094541 L311.058613,141.79439 L311.296078,139.923214 L314.353736,138.746976 L313.648688,136.392045 L312.001126,134.383354 L313.411223,133.906965 L313.411223,132.129102 L315.766281,131.056 L318.353907,126.633443 L316.706346,124.587919 L313.648688,123.7481 L312.236142,122.900913 L309.883532,123.7481 L309.648516,125.071674 L307.528474,126.874093 L306.353393,129.268315 L300.470644,131.888453 L299.060547,133.433032 L298.588067,135.802698 L296.707937,137.806477 L294.117863,138.160085 L292.47275,139.215998 L290.352708,137.570738 L288.235114,138.629107 L287.060033,142.614565 L288.235114,144.714113 L290.590172,146.688425 L293.647831,147.267949 L295.530408,146.573011 L297.412986,149.11948 L296.470473,151.079059 L296.470473,153.839166 L299.765596,155.098895 L301.88319,154.870523 L302.588238,153.149139 L304.705832,151.886955 L305.413329,150.504445 L308.235971,149.234894 L312.236142,151.194472 L313.883704,152.576982 L317.413843,152.115327 L320.001469,153.49538 L319.293972,154.870523 L320.001469,156.586996 L318.588924,157.613441 L316.706346,156.24321 L311.058613,158.863348 L308.235971,160.569998 L307.528474,161.702035 L308.000955,163.057533 L305.648345,163.963653 L305.883361,162.721114 L304.000783,162.608156 L304.940848,164.525989 L303.765767,165.540156 L302.825702,167.34012 L301.178141,167.674083 L299.765596,169.692596 L299.295563,171.590784 L297.883018,171.924747 L297.883018,174.039029 L299.765596,174.372992 L301.178141,175.924938 L305.178312,177.805937 L306.118377,181.332196 L309.176036,188.004093 L308.94102,190.717544 L312.471158,192.880938 L312.941191,195.03942 L315.293801,196.331072 L316.001297,197.836362 L315.293801,198.263639 L311.763662,196.760804 L309.883532,197.298583 L310.823597,198.371686 L312.001126,199.764017 L314.588752,201.475579 L316.236314,204.245509 L312.706175,205.411925 L309.883532,207.111208 L308.470987,209.014307 L309.176036,209.967084 L310.823597,208.697533 L312.471158,208.803124 L314.353736,211.231724 L316.47133,212.5995 L316.001297,213.967276 L316.001297,217.31673 L314.11872,217.422322 L314.353736,219.406456 L313.178655,221.277632 L314.353736,223.666942 L312.236142,224.496939 L310.823597,224.600075 L307.295906,229.349228 L306.823426,232.124069 L305.178312,232.737972 L304.2358,236.217574 L302.588238,236.114438 L302.118206,235.092904 L300.943125,235.092904 L302.118206,237.440469 L301.178141,238.358868 L300.470644,240.598386 L301.413157,241.003562 L300.943125,242.727401 L297.412986,245.153545 L298.353051,245.760082 L298.588067,246.870018 L296.470473,246.567978 L294.82536,249.288796 L295.060376,249.991101 L293.882847,251.29503 L292.940334,250.894766 L291.530237,251.496391 L290.825188,253.50017 L289.647659,253.90289 L289.412643,255.199453 L285.412472,257.095185 L285.177456,257.893259 L282.824846,258.192844 L282.119797,260.479018 L280.942268,260.975052 L280.237219,262.961642 L279.05969,262.860962 L277.647145,263.752349 L275.764568,263.951253 L274.354471,263.45522 L272.941925,264.744416 L271.999412,263.752349 L268.941754,265.434443 L268.706738,264.049478 L265.411615,265.731572 L264.47155,265.928021 L263.294021,266.22515 L261.413892,263.059866 L259.76633,263.356995 L261.413892,265.532667 L261.413892,267.013401 L260.706395,268.59236 L259.29385,268.395911 L258.823817,269.378156 L257.648736,269.279931 L254.823646,271.249332 L253.883581,270.856434 L252.471036,271.740454 L252.23602,270.856434 L248.470865,273.017372 L245.648222,272.919148 L241.883067,275.075175 L240.707986,274.97695 L238.825409,276.833393 L238.825409,277.810726 L240.235506,277.908951 L240.00049,278.979598 L241.413035,280.344918 L240.470522,281.612013 L238.587944,282 L237.882896,280.73536 L236.705367,280.055155 L236.235334,277.908951 L235.530286,277.226291 L235.765302,275.856059 L236.472799,274.191155 L234.825237,273.211365 L232.235163,273.898937 L232.235163,272.42557 L229.647537,272.032672 L228.472456,270.954658 L227.764959,272.032672 L226.824895,271.740454 L224.707301,273.30959 L223.764788,272.229121 L220.469665,272.52625 L217.412007,269.871733 L215.999461,269.675285 L215.999461,268.098782 L215.059397,266.618048 L216.471942,264.346607 L214.82438,263.059866 L213.646851,263.553444 L211.764274,262.762737 L210.824209,263.256315 L207.29407,260.280114 L204.236412,261.372861 L204.001395,263.059866 L200.941289,264.744416 L200.001224,263.752349 L198.823695,264.545512 L198.588679,265.928021 L196.236069,263.951253 L195.528572,265.532667 L194.118475,264.049478 L192.000881,266.519823 L191.058368,265.532667 L188.470742,264.245927 L187.060645,266.718728 L186.353149,266.816952 L183.765522,266.126926 L182.352977,268.000557 L183.060474,269.871733 L184.000539,270.954658 L183.765522,275.757835 L182.352977,274.97695 L180.705416,275.465617 L180.000367,272.820923 L179.765351,271.347556 L178.11779,271.934447 L177.177725,273.113141 L175.530163,273.506039 L172.235041,271.64223 L172.000024,269.378156 L171.294976,269.57706 L166.824772,268.59236 L168.237317,266.126926 L167.999853,264.346607 L169.177382,262.168479 L166.35474,261.87135 L164.942195,261.274637 L164.942195,258.192844 L163.764666,256.896281 L163.764666,255.599718 L162.589585,254.502059 L160.471991,254.600284 L156.941852,256.397792 L156.236803,255.798622 L157.411884,254.502059 L156.941852,252.198696 L156.236803,252.29692 L156.471819,250.091781 L157.884365,249.288796 L157.411884,248.480899 L159.99951,245.357361 L160.234527,243.739113 L161.647072,244.043609 L162.824601,242.118409 L164.00213,241.813913 L163.059617,240.190754 L164.237146,236.318254 L164.237146,233.251195 L163.764666,232.327885 L163.764666,229.349228 L162.119552,228.526598 L161.412056,229.65618 L159.99951,226.461429 L160.234527,225.118209 L158.589413,223.460671 L156.471819,222.21322 L155.059274,224.600075 L153.649177,223.460671 L152.706664,223.770078 L150.824087,221.798222 L150.119038,220.135773 L147.293948,215.956321 L144.706322,216.167504 L143.05876,217.73664 L141.176183,218.048503 L138.35354,217.527913 L137.413475,216.376231 L135.058417,218.048503 L135.530898,218.571548 L130.82323,221.174496 L129.648149,221.174496 L127.765571,222.525083 L127.295539,223.460671 L124.470449,225.427616 L124.235432,226.876427 L122.117839,227.804648 L120.000245,228.217191 L117.882651,228.01092 L117.882651,226.876427 L115.530041,225.533207 L114.352512,226.461429 L111.52987,225.533207 L111.059837,224.496939 L108.707227,223.563807 L106.119601,223.978805 L104.234576,225.221345 L100.941901,229.145412 L99.7643718,231.301439 L98.824307,229.553044 L99.5293556,227.392105 L99.2943394,226.255157 L98.1168104,225.427616 L96.4716971,226.358293 L94.8241357,226.56702 L94.8241357,227.28897 L92.9415581,226.876427 L92.2365095,227.598377 L88.4713543,227.495241 L87.7638577,226.670156 L84.471183,225.533207 L83.7661344,226.876427 L80.941044,227.082698 L80.0009792,225.015073 L78.3534178,224.393803 L75.0607431,223.875669 L75.5307755,221.901358 L73.8832141,222.21322 L72.2356527,221.695086 L69.4130103,219.509592 L68.4704975,216.899276 L67.0579523,216.584958 L65.6478552,217.527913 L64.7077904,217.31673 L62.3551805,214.070412 L60.2351386,213.756093 L58.352561,211.757225 L55.7649349,210.706223 L55.5299187,208.697533 L52.2347959,208.063985 L49.6471697,211.231724 L48.2346245,209.755902 L46.5895112,208.275168 L43.5294046,206.900025 L40.7067622,203.926279 L39.0592008,204.031871 L37.1766232,202.646906 L35.5315099,200.296885 L35.0590295,201.153894 L33.4114681,201.045847 L33.1764519,199.658426 L34.1189647,198.907009 L33.1764519,197.728315 L33.6489323,196.223025 L31.7639067,194.177501 L31.2963224,191.798013 L32.7064195,191.476328 L34.5889971,193.207534 L35.7665261,192.99144 L38.3541523,190.933638 L37.4140875,188.43628 L37.6466556,186.803299 L35.0590295,185.713007 L33.8839485,183.854109 L33.4114681,179.682024 L35.0590295,178.579455 L34.8240133,177.363927 L30.5888257,175.038463 L28.7062481,170.139517 L28.9412643,168.683339 L27.2937029,168.349376 L24.9410929,168.572837 L20.7059054,167.114203 L19.2958083,165.31424 L16.7081821,165.879031 L14.8256045,163.511821 L15.7656693,162.379784 L15.5306531,160.454584 L14.3531241,158.637432 L11.7654979,158.180688 L11.2954655,156.812912 L6.11776514,155.899424 L4.9426842,155.098895 L7.29529417,153.610794 L8.47037511,154.182952 L10.1179365,152.807809 L8.47037511,151.194472 L8.94285557,149.811963 L7.76532654,147.152535 L7.53031036,143.547697 L4.70766802,142.263412 L3.2951228,142.263412 L2.82509043,143.429828 L1.17752903,142.847848 L0.472480461,140.740933 L1.41254521,139.569606 L0,137.452869 L0.237464273,135.682373 L2.11759378,134.383354 L1.41254521,132.603036 L2.58762615,130.461742 L4.9426842,130.100767 L7.06027798,128.069976 L8.00034273,126.515574 L10.3529527,127.235068 L12.9405788,125.673299 L13.6480755,128.430951 L15.0606207,128.310626 L17.1757664,127.235068 L18.5883116,127.352938 L20.7059054,122.780588 L22.1184506,121.933402 L25.1785572,122.537483 L29.1762805,122.053727 L31.0588581,119.023502 L37.1766232,115.484966 L40.0017137,114.627957 L40.7067622,113.525388 L43.0593722,113.402607 L43.0593722,111.924329 L43.5294046,111.433206 L42.5893398,108.09603 L43.2943884,106.603018 L45.4119822,105.608495 L44.2369012,104.486281 L46.8245274,103.489302 L45.8844626,101.73354 L46.3520469,100.603959 L44.001885,94.6638337 L44.001885,89.6863087 L43.2943884,88.1441845 L41.6492751,88.3995681 L40.9417784,87.3706668 L42.1168594,86.3393098 L47.2945597,85.3054973 L53.1773087,83.3606527 L54.5898539,85.1778054 L56.7049996,84.3993765 L58.5875772,84.7873632 L58.8250415,82.4520764 L56.7049996,81.5410444 L61.1776514,68.0867475 L61.4126676,65.6728812 L62.3551805,65.5378225 L67.2954166,67.8166302 L72.2356527,67.6840272 L72.9407013,69.2875417 L75.7657917,67.2813069 L77.6483693,67.0136452 L78.8234502,63.9244856 L77.8833855,58.6424647 L79.5309469,53.8540217 L82.118573,53.7165075 L84.7061992,52.6163934 L85.8837282,50.9588554 L85.648712,48.0464999 L86.8237929,46.9316521 L89.6488834,47.0740776 L92.9415581,46.3766839 L92.7065419,49.9888888 L93.6466066,51.9263665 L97.6492261,54.541593 L97.8842423,55.7743101 L100.941901,57.9622602 L104.234576,57.552173 L105.412105,59.595242 L107.294682,59.0500962 L109.412276,61.2233126 L110.117324,64.5997788 L112.472383,67.6840272 L113.88248,71.6793076 L112.942415,74.1963096 L113.647463,76.831181 L111.764886,79.4537744 L111.294854,81.8037949 L112.942415,84.7873632 L114.587528,84.6596714 L117.882651,85.9513232 L120.235261,85.6959395 L123.295368,86.4694572 L125.177945,86.0814706 L130.118181,86.8549883 L132.705807,89.4284694 L134.588385,89.6863087 L135.530898,90.9656824 L140.001102,93.264135 L142.353712,93.0087514 L141.883679,95.5527652 L143.05876,95.8081488 L145.648834,102.737885 L148.236461,105.235242 L148.706493,106.978727 L154.116761,106.603018 L168.942366,108.592064 L172.472505,107.597541 L180.472848,108.837625 L183.060474,108.960405 L185.6481,111.924329 L192.470914,113.525388 L196.706101,115.730527 L201.883802,114.750738 L201.883802,116.587536 L205.176476,117.196527 L206.824038,115.730527 L210.824209,113.645713 L216.706958,111.062409 L225.882382,109.57922 L229.882553,110.075253 L234.352757,109.57922 L235.765302,108.714844 L240.470522,106.728254 L244.000661,102.109249 L248.235849,99.975322 L250.353442,98.4626651 L249.88341,96.186313 L247.05832,92.4979841 L249.178361,86.7248409 L251.060939,85.6959395 L253.883581,85.9513232 L254.823646,87.2405193 L258.118769,88.3995681 L261.64646,88.7850991 L264.236534,86.9851357 L266.589144,84.5295239 L267.529209,82.8425187 L270.119283,82.9726661 L274.589487,82.321929 L278.117178,79.8466723 L278.354642,78.0147859 L280.942268,74.1963096 L282.352365,73.5357501 L285.647488,73.8009561 L286.11752,71.6793076 L288.235114,72.2121753 L291.765253,70.3508216 L294.82536,70.6184833 L295.530408,69.9530125 L299.060547,71.2814984 L301.413157,71.5491601 L302.825702,70.3508216 L302.825702,68.4870123 L301.413157,66.0756015 L297.648002,62.5738991 L297.175522,61.2233126 L295.060376,60.2729909 L293.647831,58.2348331 L291.295221,57.552173 L288.47013,58.0973189 L286.822569,60.0028736 L285.647488,61.2233126 L282.587381,59.1876105 L278.589658,59.1876105 L276.002032,60.6806224 L274.119454,58.5049504 L273.88199,56.7344543 L275.764568,55.2267087 L275.764568,52.6163934 L281.4123,39.633574 L283.999927,41.1879762 L288.47013,42.8749815 L291.295221,41.1879762 L294.352879,38.3566558 L297.175522,38.0742605 L299.060547,36.9373122 L298.588067,31.79035 L301.88319,26.7342453 L304.2358,20.5952159 L307.06089,18.0855807 L308.470987,15.7134597 L307.528474,13.3315163 L308.235971,11.2344238 L306.118377,10.1858776 L303.765767,10.6352546 L303.530751,8.83037992 L305.178312,7.77201125 L309.176036,3.21685142 L311.296078,3.21685142 L318.588924,0.920854414 L322.116615,1.07555796 L324.706689,0 L327.059299,0.154703541 L331.05947,2.14620469 L334.354593,4.58708279 L336.942219,3.97809107 L340.234894,5.65281829 L344.000049,11.3866718 L346.117643,15.4163307 L345.64761,17.1991048 L347.765204,23.2349986 L348.940285,24.4063254 L348.705269,26.8766708 L351.060327,30.2064804 L351.295343,34.5136234 L352.942905,35.6579385 L352.470424,39.633574 L354.588018,42.030251 L356.235579,42.5950418 L360.940799,42.1726765 L360.705783,43.1549212 L362.823377,44.4195613 L366.823548,45.2593805 L368.236093,47.6315015 L370.353687,49.2964063 L373.176329,49.2964063 L372.236265,51.6488823 L374.118842,54.541593 L373.176329,57.4146588 L375.528939,60.9507397 L378.116566,60.4105051 L379.059078,61.088254 L385.176844,60.6806224 L386.354373,58.3698918 L388.941999,56.869513 L391.294609,57.0070272 L393.177186,55.5017372 L397.412374,54.1290502 L399.529968,55.364223 L398.589903,57.4146588 L400,60.6806224 L398.117422,63.3867066 L395.999829,65.1351022 L394.824748,71.151351 L393.882235,72.6075288 L394.352267,74.5941187 L392.94217,75.7777236 L391.059593,81.0204547 L389.177015,82.4520764 L389.177015,85.3054973 L387.294437,85.9513232 Z M315.77305,200 L313.501182,199.445293 L311,197.447837 L311.680851,197 L316,199.333333 L315.77305,200 Z M242.060224,283 L243.757843,284.198846 L244,286.392104 L241.818067,288.580314 L240.365127,293.542275 L238.909664,293.83757 L237.696358,295.715342 L235.756582,295.61691 L235.756582,296.606274 L234.545799,297 L233.574649,296.310979 L231.634873,296.40941 L228.72647,294.826933 L228,289.774112 L230.666246,286.987741 L231.634873,286.689922 L232.606022,284.696052 L233.816806,285.294213 L235.514425,284.097891 L237.454201,284.496665 L238.425351,283.699117 L239.878291,283.598161 L241.333754,284.297278 L242.060224,283 Z" id="Fill-49" fill="#FFFFFF"></path>
        <g id="Group-5" transform="translate(181.000000, 158.000000)">
            <path d="M19.5007728,0 C30.2704791,0 39,8.72986684 39,19.5 C39,30.2701332 30.2704791,39 19.5007728,39 C8.73106646,39 0,30.2701332 0,19.5 C0,8.72986684 8.73106646,0 19.5007728,0 Z" id="Stroke-1" stroke="#E75F52"></path>
            <path d="M19.5,13 C23.0899976,13 26,15.910354 26,19.5007853 C26,23.089646 23.0899976,26 19.5,26 C15.9100024,26 13,23.089646 13,19.5007853 C13,15.910354 15.9100024,13 19.5,13" id="Fill-3" fill="#E75F52"></path>
        </g>
    </g>
</svg>