<?xml version="1.0" encoding="UTF-8"?>
<svg width="310px" height="300px" viewBox="0 0 310 300" version="1.1" xmlns="http://www.w3.org/2000/svg" xmlns:xlink="http://www.w3.org/1999/xlink">
    <!-- Generator: Sketch 64 (93537) - https://sketch.com -->
    <title>8</title>
    <desc>Created with Sketch.</desc>
    <g id="8" stroke="none" stroke-width="1" fill="none" fill-rule="evenodd">
        <g id="Group-3" transform="translate(-1.000000, -1.000000)" fill="#FFFFFF" fill-rule="nonzero">
            <path d="M216.489254,133.5 L217,134.775094 L216.552809,136.199812 L215.148603,136.5 L214,135.900565 C214.445809,135.258312 215.698035,133.739492 216.489254,133.5 Z" id="path27"></path>
            <path d="M311,298.439692 C270.935209,299.024847 230.254144,299.694097 190.192855,300.5 L190.998212,297.097688 L183.130219,287.833308 C182.895614,287.552994 180.787678,285.100246 180.766669,285.047687 C180.321972,284.091465 179.4851,280.874861 179.127941,279.708054 C178.315581,278.957863 177.282272,278.180342 176.592816,277.325034 C176.322846,276.992511 174.145229,274.346697 174.046835,274.164493 C174.039832,274.153981 172.758263,270.219072 172.741105,270.134978 C172.629056,269.584862 172.054801,261.960319 172.072308,261.609926 C172.177355,259.567137 172.825143,257.461278 173.017728,255.411481 C173.164793,253.856088 173.059747,252.027039 172.79713,250.474449 L171.599598,243.389511 C171.561081,243.175772 171.403511,242.87093 171.326477,242.664199 C171.193418,242.303645 170.170964,239.47913 170.07292,239.314445 C169.677245,238.662715 168.791351,237.590514 168,236.64095 L168.101545,236.556856 C168.101545,236.556856 171.953255,234.104108 172.653566,233.228126 C173.353877,232.352145 175.980044,229.373808 176.505277,227.972237 C177.03051,226.570667 177.380666,224.643508 177.380666,224.643508 C177.380666,224.643508 178.60621,212.379767 178.60621,211.503785 C178.60621,210.627804 180.181909,207.299074 181.232376,206.247896 C182.282842,205.196719 184.733931,202.568774 186.309631,201.517596 C187.88533,200.466419 191.03673,197.312885 191.737041,196.6121 C192.437352,195.911315 198.039839,192.232193 198.039839,192.232193 L199.615539,170.507852 L203.467249,163.5 L217.648547,171.55903 L235.506477,172.259815 C235.506477,172.259815 239.183109,169.63187 240.758809,171.033441 C242.334509,172.435011 245.485908,172.785404 247.411763,172.435011 C249.337618,172.084619 254.940106,169.982263 254.940106,169.982263 L255.171209,169.894665 C255.310921,170.273089 255.457986,170.655017 255.619058,170.991394 C255.748615,171.2647 255.976567,171.502967 256.106124,171.776273 C256.498298,172.6032 256.645364,173.601818 256.848454,174.491816 C257.149237,175.805788 256.90798,177.144288 257.075705,178.475779 C257.240628,179.76172 257.590783,181.531203 257.947592,182.775097 C258.238221,183.777219 258.61989,184.744303 258.773959,185.791977 C258.899665,186.629415 258.770107,187.42831 258.82298,188.248229 C258.861498,188.868774 259.040077,189.775941 259.211653,190.371958 C259.376226,190.939244 259.72288,191.633372 260.08319,192.102547 C260.265621,192.340814 260.618928,192.579081 260.762492,192.82786 C260.913059,193.087151 260.923563,193.500614 261.053121,193.777424 C261.18618,194.05073 261.452298,194.288997 261.588859,194.558449 C261.753432,194.884665 262.239798,196.068992 262.317182,196.401864 C262.593805,197.617727 262.264659,198.970242 262.317182,200.20012 C262.355349,201.170708 262.513269,202.635349 262.800397,203.549873 C262.978976,204.114005 263.276258,204.863846 263.52872,205.392938 C263.787485,205.939901 264.236034,206.416435 264.498651,206.959544 C264.656221,207.278401 264.729753,207.642809 264.887323,207.961316 C265.153442,208.504775 265.601641,208.980959 265.860405,209.527921 C266.305453,210.46347 266.333466,211.549687 266.781665,212.484885 C266.910872,212.758191 267.127968,212.999962 267.268381,213.269764 C267.968692,214.615271 268.637489,216.206054 269.596915,217.400893 C269.99259,217.894946 270.598009,218.220811 271.00454,218.686833 C271.193624,218.904077 271.309175,219.233446 271.487754,219.468209 C271.855418,219.944392 272.391156,220.322816 272.751816,220.806358 C272.993073,221.135727 273.179005,221.556549 273.396102,221.906941 C273.945846,222.789931 275.167889,225.021932 275.661608,225.666303 C275.990754,226.093782 276.56851,226.640395 276.971189,227.004803 C277.969132,227.908816 280.798389,229.380115 282.069453,229.853495 C283.298849,230.312509 284.748143,230.340541 285.900154,230.970897 L286.435892,231.864748 C286.232802,233.007028 285.990845,234.173836 285.854634,235.326627 C285.763594,236.06946 285.788105,236.822804 285.707569,237.562132 C285.595519,238.602798 285.105301,240.105982 285.126311,241.080074 C285.133314,241.51456 285.746086,243.697506 285.949176,244.149513 C286.089238,244.457858 286.29583,244.734668 286.436242,245.043014 C286.569301,245.344352 286.632329,245.698248 286.775893,245.992578 C287.322136,247.113834 288.23254,248.119461 288.764776,249.233709 C289.041399,249.811857 289.146446,250.505634 289.444078,251.077125 C289.685335,251.539293 290.715142,253.217673 291.04779,253.533377 C291.261035,253.740108 291.622045,253.915305 291.870656,254.090501 C292.371728,254.451405 292.847589,254.885892 293.376324,255.208253 C293.922917,255.540776 294.504175,255.768882 295.025556,256.157817 C295.519276,256.52573 295.922305,256.987897 296.38451,257.387695 C297.098827,258.000882 297.935699,258.46305 298.664022,259.062572 C300.173192,259.265449 301.769901,258.529625 303.128505,258.950446 L303.713264,259.675759 C303.580205,260.411583 303.244056,260.957845 302.984941,261.630599 C302.862386,261.953311 302.809863,262.310361 302.694312,262.636226 C302.477215,263.239252 301.990499,263.84508 301.818923,264.423579 C301.643845,265.012238 301.664855,265.85318 301.640344,266.469871 C301.618984,267.0305 301.49678,267.671718 301.528294,268.221834 C301.605328,269.490256 302.249964,270.853283 302.596268,272.072649 L301.675359,272.184424 C301.083947,271.480135 300.30275,270.747815 299.392346,270.509898 L298.471437,270.846275 L298.471437,271.683713 C299.024682,272.762922 300.547859,272.51064 301.237315,274.139965 C301.121764,275.15295 300.274387,275.849881 299.441017,276.319758 C298.639161,275.955349 298.135287,275.314131 297.403112,274.865628 L296.772832,275.538382 C296.895737,276.218144 297.112483,276.974992 297.161505,277.658257 C297.210527,278.387074 297.101979,279.091363 297.210527,279.837699 L298.082414,280.283048 C298.313516,280.205962 299.87521,279.680373 299.976755,279.613798 C300.186848,279.477145 300.396942,279.105729 300.607035,278.944548 C300.845141,278.762344 301.191795,278.674746 301.4299,278.496396 C301.888954,278.160019 302.371819,277.542978 302.64529,277.045421 L303.566199,277.49077 C303.583707,278.300176 303.496168,279.158638 303.324592,279.950526 C303.247557,280.297414 303.083335,280.661823 303.033963,281.012215 C302.816866,282.525911 303.170873,285.329052 303.615221,286.81822 C303.783295,287.385506 304.035407,288.132193 304.294522,288.661285 C304.434234,288.952111 304.6937,289.207898 304.82991,289.498724 C304.963319,289.78955 304.983979,290.161316 305.120539,290.448288 C305.250097,290.721594 305.516215,290.959861 305.653126,291.229663 C305.800191,291.520489 305.852714,291.884897 305.992777,292.179227 C306.724601,293.713947 307.953997,294.799813 308.177747,296.59067 C308.177747,296.59067 308.752002,296.758508 309.035628,296.962086 C309.763951,297.487675 310.173633,297.554249 310.845932,298.265897 L311,298.439692 Z" id="Path"></path>
            <path d="M267.969686,102.682767 C268.047122,103.409067 267.962295,104.292499 267.871132,105.018798 C267.163652,105.678754 266.635682,105.427342 265.97044,105.685737 C265.287951,105.954608 265.372075,106.412037 264.263338,106.356168 C264.199982,106.352676 263.105324,106.15015 263.041968,106.132691 C261.820245,105.752082 259.821352,104.5055 258.504595,104.016645 C258.177254,103.894431 257.808027,103.863004 257.480333,103.737298 C257.089988,103.590642 256.107964,103.028458 255.822508,102.738636 C254.24599,101.13938 255.379013,98.6706595 252.602244,97.2634538 C252.260471,97.0923543 251.79973,96.8234838 251.433671,96.7257127 C250.254538,96.4149402 249.065198,96.7257127 247.871634,96.7257127 C246.499265,96.7257127 243.362772,96.4708094 242.359629,95.5035737 L242.117115,94.7214048 L242.55357,93.77512 C243.264569,93.914793 244.028014,93.9985969 244.749572,93.9985969 C244.331068,90.112195 239.329434,89.5639783 236.277768,90.1959988 C235.528051,90.3531309 234.655141,90.4788366 233.968428,90.8280192 C233.592162,91.0165778 231.740396,92.1409456 231.480282,92.3853734 C231.075506,92.7659824 230.737605,93.4294293 230.406392,93.8868584 C230.001967,94.4525342 229.681313,94.895996 229.431407,95.5594429 C229.170942,96.2508244 229.086467,96.9910914 228.847121,97.6719974 C228.709849,98.0630819 228.445864,98.4821009 228.259314,98.8592181 C227.428642,100.549262 226.964028,101.097478 225.773984,102.51516 C225.597994,102.721177 225.432564,103.059884 225.235807,103.237967 C225.01406,103.437001 224.65152,103.555724 224.408302,103.737298 C224.148189,103.932841 223.936649,104.215679 223.676184,104.407729 C223.440358,104.578828 223.127096,104.6766 222.894789,104.851191 C222.384418,105.238783 222.042997,105.727639 221.430552,106.020952 C221.128202,106.164117 220.758271,106.209511 220.455568,106.356168 C220.191583,106.478382 219.941677,106.750744 219.674173,106.855499 C219.353871,106.981204 218.920584,106.946286 218.600282,107.078976 C218.315178,107.194206 218.054713,107.501486 217.773129,107.634176 C217.143085,107.934473 216.615115,107.934473 216.066027,108.468722 C215.861878,108.667756 215.721087,108.978529 215.527498,109.19153 C215.326869,109.415007 215.041765,109.582615 214.844657,109.806091 C214.626429,110.054011 214.478597,110.389226 214.26037,110.640638 C214.063261,110.864115 213.778509,111.031722 213.577881,111.251707 C213.377252,111.4682 213.23646,111.75453 213.039352,111.974515 C212.036209,113.123326 210.684958,113.996282 209.674424,115.148585 C208.639603,116.32533 207.918044,117.816339 206.893783,118.986101 C206.555882,119.373694 205.936397,119.967304 205.528101,120.267601 C205.397868,120.365372 204.778384,120.637734 204.697428,120.714555 C204.697428,120.714555 203.127598,122.903929 203.039603,123.050586 C202.712262,123.595311 202.539791,124.272725 202.21245,124.831417 C201.610564,125.861506 200.705976,126.867151 199.773229,127.614402 C199.259339,128.022946 198.636334,128.319751 198.161162,128.780672 C197.062984,129.859646 197.003148,130.798947 195.510753,131.860462 L194.989823,132.234087 C193.613933,132.827698 192.030024,132.269006 190.600633,133.012764 C189.129357,133.777474 189.249031,135.205631 188.161413,135.73988 L187.869269,136.797903 C188.389848,138.107338 190.058584,138.66603 191.381677,138.634604 L193.479477,138.18765 C194.053556,137.964173 194.51113,137.433416 195.186931,137.353104 C195.605435,137.300726 196.123198,137.419448 196.552613,137.408973 C196.943311,137.398497 197.334009,137.30771 197.724706,137.297234 C199.702833,137.251841 203.458459,137.904812 205.235957,137.408973 C205.235957,137.408973 205.732249,140.390992 205.732249,141.962313 C205.732249,143.533635 205.908239,146.676278 206.260219,147.374643 C206.612199,148.073008 208.020118,149.295147 209.956008,149.295147 C210.353745,149.295147 211.860219,149.249753 214.000257,149.179917 L214.003777,149.295147 C214.003777,149.295147 214.179767,152.961564 214.179767,154.707477 C214.179767,156.45339 213.475807,157.326346 212.595857,158.548485 C211.715907,159.770624 209.780018,160.468989 207.140169,160.64358 C204.500319,160.818172 204.324329,163.611632 204.324329,163.611632 L200.452551,170.595283 L198.868641,192.244602 C198.868641,192.244602 193.236963,195.911019 192.533003,196.609384 C191.829043,197.307749 188.661224,200.450392 187.077315,201.49794 C185.493405,202.545488 183.029546,205.164357 181.973606,206.211905 C180.917666,207.259452 179.333757,210.576687 179.333757,211.449643 C179.333757,212.322599 178.101827,224.543989 178.101827,224.543989 C178.101827,224.543989 177.749847,226.464493 177.221878,227.861223 C176.693908,229.257954 174.054058,232.226005 173.350099,233.098962 C172.646139,233.971918 168.77436,236.416196 168.77436,236.416196 L168.672286,236.5 C168.232311,235.979718 167.820494,235.494354 167.531871,235.134696 C167.493153,235.089302 167.088376,234.202379 167.035579,234.09064 L164.768829,229.299856 C164.466126,228.660852 164.202141,228.21704 163.758646,227.665681 L159.724957,222.675862 C159.658081,222.59555 159.594724,222.445402 159.545447,222.350773 L155.342807,214.598921 C154.878194,213.743772 154.677565,213.37329 154.403021,213.069501 C154.124957,212.758728 153.769457,212.521634 152.973982,211.903231 L150.344693,209.864005 C130.697175,207.276562 111.056697,204.647218 91.4056591,202.087709 C60.9593981,198.120996 30.5025778,194.028576 0,190.470056 C0.520930246,189.464411 1.12281587,188.193386 1.73878068,187.254085 C2.90383414,185.483729 7.0818355,181.070062 8.788938,179.795546 C9.72872432,179.093689 10.9148966,178.639751 11.8441235,177.930911 L13.4878696,176.370065 C15.4167194,174.536856 17.3596485,172.675713 19.0597114,170.626012 C20.397235,169.016629 21.6467636,167.252908 22.7132627,165.451126 C23.2940295,164.46678 23.7656826,163.345904 24.3992464,162.395779 C25.0257706,161.459969 25.8775619,160.618439 26.5498435,159.710914 C27.2186053,158.806531 27.7888128,157.818344 28.4575746,156.913962 C29.1404156,155.995611 29.9006921,155.087737 30.6257707,154.200464 C31.7908242,152.779291 34.0857331,150.307078 34.9762422,148.885905 C35.803395,147.572979 36.7607803,145.100766 37.4084233,143.613249 C37.5914529,143.190738 37.6336905,142.921867 37.8800764,142.534274 C38.1194227,142.157157 38.34117,142.010501 38.6333134,141.675285 L40.1397873,139.964291 C40.9739797,139.171646 42.1531123,138.557085 42.9274681,137.722539 C43.6419873,136.947353 44.7084864,135.051292 45.5884361,133.986285 C46.7992469,132.526702 48.0030182,131.063627 49.2419874,129.628487 C49.949467,128.807908 50.9596493,127.903525 51.5474557,127.01311 C51.8184803,126.597582 51.8888762,126.314745 52.1071038,125.871283 L53.2334394,123.591121 C54.1837852,121.40873 54.834948,119.062223 55.8768084,116.91475 C56.1020756,116.453829 57.5099952,114.149224 57.5909505,113.883845 C57.6155891,113.79655 57.8514157,110.650415 57.8760543,110.350118 C58.6011328,109.508588 59.6429933,108.530877 60.2378394,107.612527 C60.8256458,106.697668 61.1037099,105.465054 61.6422391,104.511785 C62.205407,103.513123 63.0818369,102.633183 63.6203662,101.627537 C64.2222518,100.496186 65.1901965,97.751611 65.7815227,96.3723399 C65.9504731,95.9742718 65.9751117,95.708893 66.2179778,95.349235 C66.8691406,94.3854911 68.1644266,93.6452241 68.787431,92.6744966 C69.3541187,91.7945565 69.5160294,90.4048099 70.0088013,89.4550334 C70.4945335,88.5262078 71.3076071,87.6288086 71.8778145,86.7349012 L72.9231948,84.9680375 C73.1238233,84.6223467 73.2998133,84.4582309 73.444125,84.0846056 C73.6236348,83.6097173 73.6236348,83.3129121 73.7362684,82.8205647 L74.3240748,80.292483 C74.5458221,78.6618004 74.4296688,76.947314 74.6197379,75.2921887 L74.8907624,72.9561574 C74.897802,72.9352064 76.5978649,69.960171 76.6612213,69.8693835 C76.928726,69.49925 77.1328744,69.3316424 77.4355771,68.9859516 L78.9807688,67.2155961 C79.5087386,66.3112132 79.6812088,64.9389258 80.1211837,63.9647064 C80.5787575,62.9485852 81.3531133,62.0162677 81.7895684,60.9931628 C82.2189838,59.9735497 82.4336916,58.747919 82.7856715,57.6898958 C83.4473937,55.6890797 84.9855458,52.8991111 86.0168469,50.9297214 C86.4427426,50.1161261 86.960153,49.2711043 87.3226923,48.4295743 C88.3539934,46.051641 89.902705,41.1700688 90.5081104,38.624528 C90.7720953,37.5106356 90.8072933,36.2326274 91.1416742,35.1501615 C91.5077333,33.9803999 92.5003166,32.1402078 93.1444398,31.075201 L94.3306121,29.1023195 C94.7846661,28.0687392 94.8832205,26.8081901 95.3161558,25.7606424 C95.347834,25.6803304 96.9211841,22.7646561 96.9423029,22.7367214 C97.5125103,21.9964544 98.8641131,20.9174803 99.6349491,20.1876888 C100.550097,19.1261738 101.440606,17.8586411 102.457828,16.9228318 C103.11251,16.3222378 104.51339,15.3131002 105.280707,14.855671 C107.258834,13.675434 112.535012,11.5419285 114.928476,11.0216465 C116.07241,10.7737269 117.255063,10.6375457 118.398997,10.3686751 C118.919928,10.2429694 119.630927,9.87632772 120.116659,9.68078549 L121.577376,9.09765061 C123.847646,7.87201982 125.892649,6.11912337 127.948212,4.57573645 C128.025647,4.51637541 130.010814,2.99393945 130.105849,2.95203754 C131.263863,2.4561983 132.717539,2.35493536 133.836836,1.80322691 C134.389444,1.53435634 134.98781,0.947729639 135.5017,0.563628822 L149.394347,0.563628822 L178.819866,0.563628822 L187.658081,0.563628822 C188.55915,0.563628822 190.600281,0.420463972 191.437994,0.563628822 C191.916686,0.647432637 199.677843,4.16719285 200.691545,4.6106547 C211.286492,9.24779911 220.20883,13.375137 230.796385,18.0332323 C231.479226,19.541701 231.356033,21.9755035 231.919201,23.707449 C232.267309,24.7794394 232.914952,26.1133168 233.527397,27.0491261 C233.858259,27.551949 234.291194,28.0652473 234.551659,28.6064803 C234.695971,28.9032855 234.752288,29.2559599 234.893079,29.552765 C235.023312,29.8216356 235.245059,30.0625716 235.382684,30.3314421 C235.632589,30.8237896 235.812099,31.3894653 236.002168,31.9097473 C236.276712,32.677949 236.646291,33.3937732 236.698736,34.2283195 C236.790603,35.6913945 236.371395,37.6363413 236.406945,39.2355975 C236.420672,39.9339626 236.558296,40.6532786 236.600534,41.3516438 C236.649811,42.1407964 236.628692,42.9613754 236.748365,43.7435443 C236.804682,44.0997105 236.938435,44.4454013 236.99088,44.8015675 C237.050716,45.1891601 237.001439,45.6465893 237.089434,46.0271983 C237.15631,46.3205116 237.392137,46.6208086 237.480132,46.9176138 C237.68428,47.595028 237.701879,48.3457705 237.920107,49.0301683 C238.113696,49.6517132 238.476235,50.2383399 238.652225,50.8668686 C238.74374,51.2090675 238.747259,51.5861846 238.845814,51.9248917 C239.116838,52.8572092 239.60609,53.8034939 239.968278,54.7078767 C240.324129,55.6017841 240.594802,56.6423481 241.042168,57.4908617 C241.33044,58.0425702 241.85841,58.4685729 242.161464,58.9923468 C242.326895,59.2751846 242.403978,59.6453181 242.552162,59.9386315 C242.689434,60.2109939 242.904142,60.4449462 243.041414,60.7173086 C243.491948,61.6042323 243.731295,62.6028944 244.163878,63.5002936 C244.82208,64.8725811 245.863941,66.1889993 246.649208,67.5089094 C246.944871,68.1025198 247.395405,68.4482105 247.771672,68.9545252 C248.577706,70.0334993 248.841691,71.3883277 250.453759,71.5699026 L251.432263,71.18231 C251.805713,70.6934544 252.164381,70.1906315 252.505801,69.6773331 L253.188642,69.5655947 C254.522646,71.3324585 253.808127,72.6104666 254.698636,74.464626 C254.828869,74.7334966 255.050616,74.9744326 255.187888,75.2433031 C255.342759,75.547092 255.423715,75.8857991 255.578586,76.1895879 C255.86017,76.7447882 256.342382,77.2441192 256.602847,77.8028113 C256.7366,78.0926328 256.757367,78.4627664 256.894991,78.7490961 C257.024871,79.0214585 257.292728,79.2589026 257.43,79.5277732 C257.577832,79.8210865 257.623589,80.1842364 257.771421,80.4740579 C257.912213,80.7464203 258.169158,80.9838644 258.30995,81.252735 C258.457782,81.5460484 258.503539,81.9091982 258.65137,82.1990198 C258.788995,82.4713822 259.05298,82.7088263 259.186732,82.9776969 C259.619315,83.8506533 259.767147,84.9435947 260.210993,85.8165511 C260.485186,86.3577841 260.970918,86.8221969 261.234903,87.3773971 C261.537606,88.0024339 262.111333,89.4864598 262.456625,90.0486437 C262.611144,90.3000552 262.906807,90.5340075 263.090189,90.7714516 C263.614639,91.445374 264.167247,92.346265 264.554425,93.107483 C264.888806,93.7709298 264.927524,94.4588195 265.187989,95.1117909 C265.293583,95.3736778 265.543489,95.6320729 265.673721,95.890468 C266.113696,96.7564407 266.455117,97.6957418 266.895092,98.5617146 C267.032716,98.834077 267.27523,99.1169148 267.384696,99.3962609 C267.65572,100.105101 267.613131,100.890762 267.726116,101.624046 C267.779617,101.973927 267.930616,102.330093 267.969686,102.682767 Z" id="Path"></path>
            <path d="M242,140.644975 C242,140.644975 239.853473,141.580725 238.785549,142.404448 C237.717626,143.228171 238.429575,145.205107 238.429575,145.205107 L240.03146,147.511532 C240.03146,147.511532 237.781701,147.59061 234.506379,147.702636 C228.561959,147.906919 219.235424,148.226524 213.863768,148.391269 C211.699442,148.457166 210.175871,148.5 209.773619,148.5 C207.815759,148.5 206.391861,147.346787 206.035886,146.687809 C205.679911,146.02883 205.501924,143.063427 205.501924,141.580725 C205.501924,140.098023 205,137.284185 205,137.284185 C205.633635,137.11944 208.08986,136.160626 208.748413,135.867381 C209.335415,135.607084 209.851934,135.284185 210.474889,135.079901 L211.560612,135.392916 C211.596565,138.038715 208.040023,137.778418 207.844593,142.341845 C207.805436,143.234761 207.784077,144.002471 208.17209,144.829489 C208.488907,145.498353 208.631297,146.20346 209.29341,146.684514 C210.69239,147.076606 216.113527,146.836079 217.530662,146.420923 C218.655542,146.091433 220.243188,145.511532 221.182961,144.845964 C222.407514,143.976112 223.340523,142.615321 224.735588,141.956343 C225.629084,141.534596 226.71801,141.386326 227.593708,140.961285 C227.739657,140.888797 229.092361,140.104613 229.224072,140.015651 C229.473254,139.841021 229.66548,139.560956 229.914662,139.383031 C230.299115,139.109555 231.110381,138.64168 231.541466,138.440692 C231.815567,138.308896 232.224937,138.272652 232.481239,138.124382 C232.588032,138.061779 232.620069,137.995881 232.709063,137.913509 C233.03656,137.616969 233.609679,137.244646 233.862421,136.915157 C234.036848,136.687809 234.097364,136.322076 234.253993,136.074959 C234.734914,135.336903 235.645853,134.51318 236.624784,134.5 C237.728661,135.471993 237.553877,135.992586 238.105638,136.813015 C238.621801,137.580725 241.195141,139.71911 242,140.644975 Z" id="Path"></path>
            <path d="M237.472672,164.659895 C237.992973,165.361444 238.166406,166.764543 237.819539,167.641479 C237.472672,168.518416 235.738337,171.5 235.738337,171.5 L218.048116,170.798451 L204,162.730634 C204,162.730634 204.173434,159.924437 206.774937,159.74905 C209.37644,159.573663 211.284208,158.872113 212.151376,157.644402 C213.018544,156.416691 213.712278,155.539754 213.712278,153.785881 C213.712278,152.032008 213.538844,148.348875 213.538844,148.348875 L213.535376,148.233119 C218.7696,148.057732 227.857517,147.71748 233.64985,147.5 L233.657134,147.647325 L233.483701,153.961269 C233.483701,153.961269 233.136834,158.170564 234.524302,159.924437 C235.91177,161.67831 236.952372,163.958346 237.472672,164.659895 Z" id="Path"></path>
            <path d="M216.488558,133.5 L217,134.776295 L216.552603,136.203297 L215.147289,136.5 L214,135.901884 C214.442789,135.256672 215.696514,133.740188 216.488558,133.5 Z" id="Path"></path>
            <path d="M271.207746,23.4167152 C271.753625,24.1205774 272.343272,24.8184686 272.857988,25.5441069 C273.57684,26.5577526 274.112915,27.7564958 274.895844,28.7350187 C275.955739,30.0595018 277.454368,31.7439941 278.34129,33.157338 C279.303844,34.6900996 280.275852,36.4701262 281.350453,37.9157831 C281.709003,38.3987224 282.17855,38.8110648 282.515042,39.3150778 C283.030808,40.0888344 283.453085,40.9837649 284.019273,41.7223986 C284.65479,42.5509469 285.862096,43.8157211 286.348451,44.6892266 C286.497263,44.9565116 286.535429,45.3207356 286.688443,45.5848596 C286.848811,45.8619789 287.142934,46.0973021 287.319408,46.3680993 C287.647846,46.8738685 287.834474,47.4923821 288.192675,47.9918291 C288.388757,48.2647338 288.690584,48.4961934 288.87196,48.7754202 C289.018321,49.0005577 289.079247,49.3215806 289.211602,49.5590112 C289.529186,50.1287039 289.99313,50.5579053 290.376191,51.0703478 C290.742445,51.5603117 291.007506,52.1696933 291.395119,52.6378811 C291.578946,52.8598575 291.841556,53.0319596 292.026434,53.2535848 C292.617482,53.9627153 293.094032,54.7989906 293.627656,55.5488637 C294.339855,56.5491628 295.18546,57.4665719 295.908513,58.4594951 C296.289473,58.9824745 296.585697,59.5377669 296.927791,60.0828737 C297.254828,60.6037457 297.669402,61.1000317 297.946719,61.6504069 C298.907522,63.5600368 300.152995,69.1368445 299.984574,71.2227912 C299.901589,72.2557545 299.6887,73.839093 299.353609,74.8053229 C299.269574,75.0476706 299.074892,75.2959893 298.965646,75.5330686 C298.529713,76.4799809 298.171863,77.2295027 297.606726,78.1079254 C297.244324,78.6716473 296.980313,79.279624 296.636469,79.8429947 C296.296476,80.4007457 295.793315,80.8310008 295.423209,81.3546826 C295.270545,81.570337 295.194213,81.8741497 295.035247,82.0824283 C294.848968,82.3265321 294.553794,82.5165468 294.355961,82.7543286 C293.75616,83.4736448 293.212031,84.2691775 292.608728,84.9934109 C291.644423,86.1503579 290.478434,87.1864823 289.406284,88.2398169 C288.292467,89.3342452 287.483977,90.727569 286.446142,91.8785451 C284.834415,93.6655963 281.099047,96.5737691 278.778974,97.1968486 C277.847583,97.4465721 276.984821,97.3714092 276.045026,97.4581627 C274.966924,97.5572092 272.658755,97.4915294 271.645429,97.140652 C271.611465,97.1290615 270.021798,96.2422093 269.946867,96.1891738 C269.420946,95.8172227 269.195101,95.283004 268.830598,94.789879 C268.642219,94.534887 268.384161,94.3188815 268.199633,94.0621334 C267.554663,93.1633394 266.840713,91.4777933 266.50072,90.4237563 C266.139719,89.3015809 265.985304,87.3835215 265.627454,86.3368603 C265.505603,85.981417 265.248595,85.6207052 265.09348,85.2736913 C264.716021,84.4282841 264.415595,83.5077139 264.074552,82.6426379 C263.589948,81.4126353 263.172923,80.2026528 262.618991,79.0042608 C262.480333,78.7046628 262.392096,78.3358728 262.230678,78.0524313 C261.311892,76.437131 259.232019,75.7367812 258.397269,74.0782797 C258.105947,73.5001574 257.598234,71.6277578 257.572323,70.9990586 C257.555866,70.5990092 257.761052,70.1013183 257.717984,69.7114545 L257.459225,69.1147171 C256.893738,67.8099029 256.27818,67.7087491 255.388456,66.8008231 C254.490679,65.8848189 254.409795,64.3759409 253.641923,63.3299821 C252.709132,62.7114685 251.699658,62.7697725 250.681431,62.4901945 C249.785755,62.2439833 248.514721,61.513779 248.190835,60.6058531 C247.983548,60.0263259 247.906516,59.3983292 248.158272,58.7956209 C249.044143,58.2389235 250.258103,58.3119791 251.264075,58.1240718 C251.620875,57.6256784 251.811355,56.5832319 251.603718,55.9966802 L252.089021,55.1568926 C253.083439,54.8074201 254.30125,55.1783175 255.243495,55.5488637 C255.605897,54.997786 255.75576,53.9490174 255.680479,53.3094301 L256.214103,52.5258391 L257.281701,52.3021065 L258.154967,52.6937264 L258.834603,52.0780227 C258.802389,50.9189683 259.529994,50.0644291 259.659199,48.9429562 C259.389586,47.9243933 258.531375,47.2149115 258.688591,46.0881701 L259.367876,45.4162698 L259.610528,44.3527496 L259.125225,43.5691586 C257.956084,42.6173291 256.313544,43.58672 255.097484,43.9052844 L254.709171,42.9534549 L255.000493,41.7778928 C255.452883,41.1548132 257.146894,40.884016 257.863295,40.9381052 C258.20924,40.9637449 258.583547,41.1769406 258.931243,41.2180344 C259.338464,41.2661527 259.846527,41.1386567 260.241493,41.2180344 C260.463136,41.2626404 261.737671,41.9928447 261.940056,42.1698639 C262.621792,42.76625 263.065078,43.7286164 263.589948,44.4647915 L264.609226,44.7447207 C266.613117,44.0584201 268.351947,42.385167 267.423357,40.0983176 C267.688769,38.9547173 268.449988,38.7401166 269.316252,38.1950098 C269.448607,38.1117686 270.00359,37.6730841 270.092528,37.6351514 C270.698982,37.3773496 271.47876,37.4335462 272.082413,37.075293 C272.492435,36.8318916 273.101341,36.1835236 273.392663,35.787689 L273.586644,34.6121269 C272.832428,33.4137349 270.36039,32.9300931 269.0736,32.5409318 C268.199283,32.8865408 267.19016,33.2820242 266.50142,33.9402266 L265.336832,34.0519172 C264.828068,33.8390727 264.281489,33.0684772 264.172243,32.5405806 L264.512236,31.5329057 C264.428901,29.7191612 262.231378,29.6014997 263.007654,26.7748119 L262.376689,26.1591082 C261.506574,26.1032628 260.628405,26.0842965 259.75654,26.1029116 C259.368227,25.6034645 259.072352,24.8216296 258.979914,24.1996038 C259.745685,23.1308152 260.879111,23.2958926 261.940056,23.1360836 C262.686219,23.0240417 263.224045,22.6682471 263.880921,22.3524926 C265.71429,21.47126 266.674743,21.2211853 268.66918,21.8488308 C269.060645,21.972112 269.59742,22.1378919 269.947217,22.3524926 C270.415363,22.6394464 270.81173,23.1157123 271.305787,23.4160128 L271.207746,23.4160128 L271.207746,23.4167152 Z" id="path29"></path>
            <path d="M251.568014,45.5 L252.74266,45.6853104 L253.437276,46.2880785 C254.135746,46.4882254 255.172085,46.5144074 255.893284,46.3805882 L256,47.354559 C254.820731,48.2371836 253.463474,49.6489757 251.621564,49.4872291 C251.094919,49.3042459 250.436517,48.7872967 250.233101,48.3747846 C249.502656,48.6194409 248.393118,48.6659867 247.616827,48.560095 C246.820117,48.0006728 246.846315,46.7093179 247.403395,46.0565131 C248.736767,46.0410949 250.339432,45.9314213 251.568014,45.5 Z" id="path31"></path>
            <path d="M248,52.3888772 L247.952243,53.7650085 C246.979925,55.0893378 245.883921,55.1629116 244.476293,55.5 L244.095268,54.3633591 C244.543634,53.5889568 244.311377,51.8659773 243.61873,51.3122965 L242.618926,51.0131212 C241.953077,50.3539596 241.453863,49.4590613 241,48.6197188 C241.102042,48.6088329 242.056494,48.4928415 242.095318,48.500349 C242.861834,48.6407399 243.50054,49.2931448 244.143025,49.6970502 C245.592225,50.6073389 246.798861,50.8779856 248,52.3888772 Z" id="path33"></path>
            <path d="M242.450767,40.5292147 C242.672052,41.0112493 243.140034,41.6561141 243.575899,41.9581031 C243.839536,42.141018 244.218933,42.2618854 244.50551,42.4153904 C245.350065,42.8690912 246.190032,43.3869915 247,43.9016639 C246.560605,44.3614618 246.0898,44.7789383 245.630289,45.2164995 C244.41516,46.3735261 243.260735,47.7963173 241.374691,47.4459097 C240.967413,46.3010774 241.359515,45.8728413 241.27693,45.159473 C241.23105,44.7631574 240.741187,43.5229224 240.543547,43.1015007 C240.234736,42.4433657 239.782283,42.1951752 239.369358,41.6726124 C238.713619,40.842322 238.017293,38.7821978 238,37.7284643 L239.076075,37.5 C239.518646,37.9016955 240.090036,38.2721879 240.494843,38.7004241 C240.862241,39.0888493 241.101173,39.7344314 241.521862,40.072286 C241.574801,40.1146075 242.341712,40.4754162 242.450767,40.5292147 Z" id="path35"></path>
            <path d="M252.113375,27.8742337 C252.462764,26.9774251 252.979993,25.8255028 253.961838,25.5 C254.776213,25.6374262 255.603186,25.7372372 256.426825,25.7968258 C256.792886,26.3949464 256.981104,27.3587922 256.940348,28.0522546 L257.608003,28.9431043 C258.252316,29.0257835 259.008151,29.3129261 259.559096,29.6551882 C260.041867,30.6756432 260.63505,32.9753911 261.099667,33.6915716 C261.32123,34.0330889 262.275658,34.7749671 262.640237,34.9976795 L263,35.9473729 C262.220082,36.8676445 259.855132,38.1804561 258.68618,38.5 C256.558725,38.4229072 256.496851,36.0702745 254.680622,35.5317424 C253.230826,35.102332 252.416451,35.8211196 251.086328,35.8881568 C250.282327,35.9283791 248.739904,35.3265341 248.210448,34.7008537 C247.995554,33.7336561 247.341979,32.8070532 246.618748,32.1482267 L245.334939,32.0294219 C244.828084,31.7951642 244.195628,31.1333582 244,30.6052541 L244.307892,29.4771672 C245.570952,28.7274681 246.537236,28.1122157 247.953687,27.6373689 C248.726195,27.736435 249.302705,28.2258065 249.90515,28.3494528 C250.511671,28.4734716 251.645795,28.3405145 252.113375,27.8742337 Z" id="path37"></path>
            <path d="M297.947166,61.6486474 C298.90618,63.5593429 300.153003,69.136888 299.984589,71.2231989 C299.900908,72.2558174 299.686976,73.8398683 299.35435,74.805753 C299.266817,75.0481023 299.074244,75.2974761 298.965703,75.5328008 C298.528037,76.4811239 298.170901,77.2292455 297.607187,78.1073225 C297.243049,78.6728041 296.980449,79.2804333 296.634168,79.8424026 C296.294189,80.4008596 295.793849,80.8293612 295.422708,81.3562074 C295.268649,81.5704581 295.195121,81.8725166 295.03406,82.0832551 C294.84849,82.3256044 294.554378,82.515269 294.354802,82.7541059 C293.756075,83.4741291 293.209868,84.2679107 292.607989,84.9949584 C291.645124,86.1505077 290.479181,87.1866386 289.404273,88.240331 C288.29085,89.3326587 287.482043,90.727045 286.44565,91.879082 C284.835038,93.6668468 281.09912,96.5750378 278.778089,97.1967163 C277.846735,97.4460901 276.985408,97.3723317 276.043201,97.456627 C274.968643,97.558484 272.657415,97.4917501 271.645531,97.1405193 C271.610168,97.1299824 270.020564,96.2413685 269.947036,96.1886839 C269.421837,95.8163792 269.194601,95.2825084 268.830463,94.7907853 C268.641391,94.5343868 268.385444,94.320136 268.200223,94.0602253 C267.555629,93.1645867 266.841357,91.4786789 266.501729,90.4249865 C266.141092,89.301048 265.987033,87.3833278 265.626396,86.33666 C265.507351,85.9819169 265.248253,85.6201492 265.094194,85.2724307 C264.716051,84.4294768 264.414936,83.5057398 264.075307,82.6417121 C263.588623,81.4124043 263.171964,80.200658 262.618754,79.002961 C262.482203,78.7044148 262.391168,78.3356225 262.230107,78.0511256 C261.313109,76.4354639 259.232969,75.7365146 258.396502,74.0787053 C258.105891,73.4991744 257.598199,71.6271143 257.573339,70.9984112 C257.555832,70.5980081 257.762411,70.0992603 257.716894,69.7093942 L257.457795,69.1123018 C256.894431,67.8092355 256.277847,67.7073786 255.38851,66.8012032 C254.492169,65.8844908 254.408137,64.3741984 253.641697,63.3275306 C252.710343,62.7093644 251.698109,62.7690736 250.683073,62.488089 C249.786383,62.2422274 248.515751,61.5116674 248.190127,60.6054919 C247.983549,60.0259611 247.906519,59.397258 248.158615,58.793141 C249.044451,58.2381963 250.259413,58.3119548 251.264294,58.1222902 C251.62143,57.6235425 251.810501,56.5838993 251.603923,55.9973439 L252.090608,55.1579023 C253.085335,54.8066715 254.300297,55.1789761 255.241804,55.5477685 C255.605942,54.9963361 255.756849,53.9496683 255.67947,53.3104283 L256.215173,52.5236713 L257.283079,52.3023959 L258.15491,52.6922621 L258.834168,52.0776082 C258.802306,50.9185466 259.530582,50.0650557 259.660131,48.9411172 C259.390529,47.9225479 258.532703,47.2130617 258.687112,46.0891231 L259.36602,45.41476 L259.611113,44.3505307 L259.124428,43.567286 C257.954634,42.6154505 256.312861,43.5848475 255.097899,43.9044676 L254.709252,42.9526321 L254.999862,41.7760089 C255.451534,41.1543304 257.146177,40.8838827 257.863949,40.9365673 C258.210581,40.9646658 258.581722,41.1754043 258.931855,41.217552 C259.338009,41.2667243 259.845702,41.1367689 260.241352,41.217552 C260.461936,41.263212 261.73677,41.993772 261.939497,42.1693874 C262.622256,42.7664798 263.063773,43.7288522 263.588973,44.4629245 L264.607509,44.7439092 C266.613771,44.0590091 268.35043,42.3836382 267.422578,40.0971257 C267.689029,38.9556256 268.448818,38.7413749 269.316797,38.1934548 C269.446346,38.1126717 270.003058,37.6736332 270.090591,37.6349978 C270.699822,37.3785994 271.477117,37.4347963 272.082847,37.0765409 C272.492503,36.8306793 273.101734,36.1844147 273.392344,35.7875239 L273.584917,34.6109007 C272.832132,33.4132037 270.360193,32.9285052 269.071354,32.5421513 C268.199873,32.8863575 267.187639,33.2832483 266.501378,33.9400499 L265.335436,34.0524437 C264.827743,33.8381929 264.281536,33.0689975 264.173345,32.5421513 L264.512974,31.5341189 C264.428942,29.7182557 262.229757,29.6023495 263.007402,26.7749416 L262.376813,26.1602877 C261.505332,26.1040908 260.626148,26.083017 259.754667,26.1040908 C259.36602,25.6018308 259.071908,24.8220984 258.980873,24.2004199 C259.744163,23.129166 260.878594,23.2942444 261.939146,23.1361906 C262.68528,23.0237967 263.224484,22.6690536 263.878883,22.3529459 C265.713579,21.4713566 266.672944,21.2219827 268.669051,21.8471736 C269.0612,21.9701043 269.596553,22.1386951 269.946686,22.3529459 C270.416215,22.6409552 270.811865,23.1151167 271.305202,23.4171752 L271.207515,23.4171752 C271.753722,24.1196368 272.341946,24.8185861 272.856641,25.5421215 C273.577915,26.5571785 274.113618,27.7548755 274.894064,28.7348095 C275.954967,30.0589496 277.453886,31.7448574 278.339723,33.1568052 C279.302588,34.6881715 280.275607,36.4689116 281.350866,37.9159825 C281.708351,38.3971687 282.177179,38.811621 282.513307,39.3138811 C283.031154,40.0865888 283.451663,40.9822273 284.018878,41.719812 C284.65612,42.5487167 285.860578,43.8131476 286.347262,44.6877122 C286.49782,44.9546476 286.535984,45.3199277 286.686891,45.5833508 C286.847952,45.8608231 287.142064,46.0961477 287.317131,46.3665954 C287.646256,46.8723678 287.835327,47.490534 288.192463,47.9892817 C288.388537,48.2632417 288.689652,48.4950541 288.871721,48.7760387 C289.018777,49.0008264 289.078299,49.3204464 289.21135,49.5592834 C289.529971,50.1282773 289.991796,50.5567788 290.377292,51.0695758 C290.741431,51.5612989 291.007532,52.1689282 291.396179,52.6360651 C291.578248,52.8608529 291.840848,53.0329559 292.026418,53.2542314 C292.617793,53.9602053 293.094324,54.7996469 293.626176,55.5477685 C294.340447,56.5487762 295.184267,57.4654886 295.909392,58.4594718 C296.287536,58.9828056 296.585149,59.5377503 296.928279,60.082158 C297.253553,60.6019796 297.66671,61.1007273 297.947166,61.6486474 Z" id="Path"></path>
            <path d="M262.640608,34.9985673 L263,35.9484241 C262.218229,36.8684814 259.854391,38.1833811 258.683587,38.5 C256.556873,38.4255014 256.497962,36.0713467 254.678399,35.5312321 C253.229715,35.1028653 252.414598,35.8217765 251.084476,35.8888252 C250.280474,35.9297994 248.739163,35.326361 248.209337,34.7005731 C247.994442,33.7358166 247.342349,32.8083095 246.619859,32.1489971 L245.334198,32.0297994 C244.826602,31.7951289 244.19674,31.1320917 244,30.6068768 L244.307521,29.4782235 C245.570952,28.725788 246.538348,28.1111748 247.953316,27.6381089 C248.723972,27.734957 249.302334,28.2266476 249.906262,28.3495702 C250.510189,28.4724928 251.643572,28.3421203 252.110411,27.8727794 C252.462393,26.9787966 252.97777,25.8240688 253.959244,25.5 C254.774361,25.6378223 255.600963,25.7383954 256.426825,25.7979943 C256.793627,26.3939828 256.978881,27.3587393 256.938125,28.0515759 L257.605039,28.9418338 C258.249722,29.0237822 259.005558,29.3143266 259.557984,29.6570201 C260.039644,30.6776504 260.632086,32.9759312 261.099296,33.6911175 C261.32123,34.0338109 262.273805,34.7750716 262.640608,34.9985673 Z" id="Path"></path>
            <path d="M255.892139,46.378895 L256,47.3538282 C254.820845,48.2385436 253.461408,49.6500141 251.620063,49.4870402 C251.096165,49.3036945 250.437441,48.7885806 250.23289,48.3753253 C249.50136,48.6197862 248.39193,48.6663501 247.617255,48.5586709 C246.820237,47.9999033 246.846817,46.707753 247.401532,46.0558574 C248.738241,46.0413062 250.340751,45.9307167 251.565747,45.5 L252.741049,45.6833456 L253.438295,46.285767 C254.135927,46.4865742 255.17178,46.5127664 255.892139,46.378895 Z" id="Path"></path>
            <path d="M253.996665,142.517068 C254.028156,143.680221 253.831863,145.064759 253.608279,146.213855 C253.405338,147.254016 252.939974,148.241466 252.737033,149.292169 C252.639062,149.794679 252.555086,150.307731 252.485106,150.824297 L252.36964,150.810241 C252.36964,150.810241 250.620151,152.391566 249.920355,153.094378 C249.220559,153.797189 247.646018,154.5 246.946223,154.5 C246.246427,154.5 234,154.5 234,154.5 L234.174949,148.174699 L234.167601,148.027108 C237.386662,147.907631 239.598367,147.823293 239.598367,147.823293 L238.023826,145.363454 C238.023826,145.363454 237.32403,143.25502 238.373724,142.376506 C239.423418,141.497992 241.533302,140.5 241.533302,140.5 C242.275085,141.427711 242.628482,142.935241 243.618693,143.634538 C244.14354,144.007028 245.354187,144.298695 245.980504,144.326807 C246.557486,144.351406 247.477717,144.460341 248.030556,144.309237 C248.079892,144.295181 249.563109,143.36747 249.633089,143.300703 C249.853524,143.089859 250.007479,142.745482 250.213919,142.517068 C250.619801,142.067269 251.120155,141.694779 251.522537,141.22741 L252.736683,141.171185 C253.216043,141.39257 253.811219,142.018072 253.996665,142.517068 Z" id="Path"></path>
            <path d="M254.732361,168.166362 C254.819344,168.399085 254.906326,168.645154 255,168.895331 L254.779198,168.98089 C254.779198,168.98089 249.426417,171.034323 247.586399,171.376561 C245.74638,171.7188 242.735441,171.376561 241.229971,170.007607 C239.724502,168.638652 236.211739,171.205442 236.211739,171.205442 C236.211739,171.205442 237.884483,168.296413 238.219032,167.440816 C238.553581,166.585219 238.386307,165.216265 237.884483,164.531787 C237.38266,163.84731 236.379014,161.622758 235.040818,159.911565 C233.702623,158.200371 234.037172,154.093506 234.037172,154.093506 C234.037172,154.093506 245.74638,154.093506 246.415478,154.093506 C247.084575,154.093506 248.590045,153.409029 249.259143,152.724552 C249.92824,152.040074 251.600984,150.5 251.600984,150.5 L251.711385,150.51369 C251.50062,152.057186 251.413302,153.652019 251.440066,155.185248 C251.457128,155.972397 251.70436,156.673986 251.764913,157.423489 C251.798368,157.810219 251.687967,158.234253 251.721422,158.621325 C251.764913,159.179174 251.968653,159.811973 252.076043,160.366742 C252.099462,160.496793 252.092771,160.572085 252.136262,160.695291 C252.236961,160.969082 252.474491,161.242873 252.60162,161.513242 C252.976314,162.317845 253.427955,163.392132 253.668496,164.241227 C253.762169,164.573198 253.765515,164.942816 253.852498,165.277868 C254.056238,166.061252 254.454685,167.423704 254.732361,168.166362 Z" id="Path"></path>
            <path d="M248,52.3886265 L247.951546,53.7660379 C246.979038,55.090905 245.882818,55.1622152 244.477663,55.5 L244.09622,54.3627911 C244.542955,53.5896392 244.309278,51.8669366 243.618557,51.3114682 L242.618557,51.0149682 C241.95189,50.3544112 241.453265,49.461158 241,48.6204491 C241.099656,48.6091896 242.054639,48.4928415 242.092784,48.5003479 C242.862543,48.6429681 243.498282,49.2960188 244.140893,49.6976074 C245.590722,50.6096264 246.800687,50.8798543 248,52.3886265 Z" id="Path"></path>
            <path d="M247,43.9026586 C246.558824,44.3617848 246.089412,44.777868 245.630588,45.2154726 C244.412941,46.374049 243.258824,47.7944707 241.373765,47.4465391 C240.964706,46.2987236 241.356118,45.8718797 241.275294,45.1580819 C241.229412,44.7635203 240.738471,43.5224447 240.541176,43.0991877 C240.234118,42.4427807 239.778824,42.195283 239.369412,41.6715921 C238.712941,40.8394259 238.014118,38.7805317 238,37.7259762 L239.072941,37.5 C239.517647,37.9017354 240.089412,38.2711886 240.491765,38.6980325 C240.858824,39.0890071 241.099176,39.7346534 241.518824,40.0718242 C241.571765,40.1148673 242.341176,40.4735597 242.450941,40.5273635 C242.669412,41.0115982 243.138824,41.6536575 243.573294,41.958546 C243.838,42.1414791 244.219176,42.2598476 244.505059,42.4140853 C245.348235,42.8696246 246.188235,43.3861416 247,43.9026586 Z" id="Path"></path>
        </g>
        <g id="Group-5" transform="translate(114.000000, 131.000000)">
            <path d="M19.5007728,0 C30.2704791,0 39,8.72986684 39,19.5 C39,30.2701332 30.2704791,39 19.5007728,39 C8.73106646,39 0,30.2701332 0,19.5 C0,8.72986684 8.73106646,0 19.5007728,0 Z" id="Stroke-1" stroke="#E75F52"></path>
            <path d="M19.5,13 C23.0899976,13 26,15.910354 26,19.5007853 C26,23.089646 23.0899976,26 19.5,26 C15.9100024,26 13,23.089646 13,19.5007853 C13,15.910354 15.9100024,13 19.5,13" id="Fill-3" fill="#E75F52"></path>
        </g>
    </g>
</svg>