<?xml version="1.0" encoding="utf-8"?>
<!-- Generator: Adobe Illustrator 24.1.2, SVG Export Plug-In . SVG Version: 6.00 Build 0)  -->
<!DOCTYPE svg PUBLIC "-//W3C//DTD SVG 1.1//EN" "http://www.w3.org/Graphics/SVG/1.1/DTD/svg11.dtd" [
	<!ENTITY ns_extend "http://ns.adobe.com/Extensibility/1.0/">
	<!ENTITY ns_ai "http://ns.adobe.com/AdobeIllustrator/10.0/">
	<!ENTITY ns_graphs "http://ns.adobe.com/Graphs/1.0/">
	<!ENTITY ns_vars "http://ns.adobe.com/Variables/1.0/">
	<!ENTITY ns_imrep "http://ns.adobe.com/ImageReplacement/1.0/">
	<!ENTITY ns_sfw "http://ns.adobe.com/SaveForWeb/1.0/">
	<!ENTITY ns_custom "http://ns.adobe.com/GenericCustomNamespace/1.0/">
	<!ENTITY ns_adobe_xpath "http://ns.adobe.com/XPath/1.0/">
]>
<svg version="1.1" id="Livello_1" xmlns:x="&ns_extend;" xmlns:i="&ns_ai;" xmlns:graph="&ns_graphs;"
	 xmlns="http://www.w3.org/2000/svg" xmlns:xlink="http://www.w3.org/1999/xlink" x="0px" y="0px" viewBox="0 0 262 300"
	 style="enable-background:new 0 0 262 300;" xml:space="preserve">
<style type="text/css">
	.st0{filter:url(#Adobe_OpacityMaskFilter);}
	.st1{fill-rule:evenodd;clip-rule:evenodd;fill:#FFFFFF;}
	
		.st2{mask:url(#mask-2_1_);fill-rule:evenodd;clip-rule:evenodd;fill:#FFFFFF;stroke:#E75F52;stroke-linecap:round;stroke-linejoin:round;stroke-miterlimit:10;}
	
		.st3{fill-rule:evenodd;clip-rule:evenodd;fill:#FFFFFF;stroke:#E75F52;stroke-linecap:round;stroke-linejoin:round;stroke-miterlimit:10;}
	.st4{filter:url(#Adobe_OpacityMaskFilter_1_);}
	
		.st5{mask:url(#mask-4_1_);fill-rule:evenodd;clip-rule:evenodd;fill:#777775;stroke:#E75F52;stroke-linecap:round;stroke-linejoin:round;stroke-miterlimit:10;}
	
		.st6{fill-rule:evenodd;clip-rule:evenodd;fill:#777775;stroke:#E75F52;stroke-linecap:round;stroke-linejoin:round;stroke-miterlimit:10;}
</style>
<metadata>
	<sfw  xmlns="&ns_sfw;">
		<slices></slices>
		<sliceSourceBounds  bottomLeftOrigin="true" height="300.9" width="261.1" x="0.5" y="-0.5"></sliceSourceBounds>
	</sfw>
</metadata>
<desc>Created with Sketch.</desc>
<g id="Group-107" transform="translate(1.000000, 0.000000)">
	<g id="Group-3" transform="translate(95.000000, 0.000000)">
		<g id="Clip-2">
		</g>
		<defs>
			<filter id="Adobe_OpacityMaskFilter" filterUnits="userSpaceOnUse" x="-0.5" y="-0.4" width="108.8" height="166.8">
				<feColorMatrix  type="matrix" values="1 0 0 0 0  0 1 0 0 0  0 0 1 0 0  0 0 0 1 0"/>
			</filter>
		</defs>
		<mask maskUnits="userSpaceOnUse" x="-0.5" y="-0.4" width="108.8" height="166.8" id="mask-2_1_">
			<g class="st0">
				<polygon id="path-1_1_" class="st1" points="0,0.1 107.8,0.1 107.8,165.9 0,165.9 				"/>
			</g>
		</mask>
		<path id="Fill-1" class="st2" d="M35.7,100.3c0.1-1.3,0.4-2.7,0.5-4c0.1-0.8,0.1-1.7,0.1-2.5c0-0.5,0-0.5,0.3-0.9
			c0.2-0.3,0.4-0.5,0.6-0.8c0.4-0.8,0.5-1.4,0.6-2.3c0-0.8-0.1-1.5-0.2-2.3c0-0.3-0.3-0.6,0-0.7c0.2-0.1,0.8-0.3,0.9-0.2
			c0.4,0.6,1.2,0.7,1.8,0.9c-0.5-0.7,0.4-0.7,0.6-1.2c0.1-0.2,0-0.5-0.3-0.7c-0.4-0.2-0.8,0.2-1,0.6c-0.2,0.5-0.3,0.2-0.3-0.2
			c0-0.4,0.1-0.6,0.4-0.9c0.2-0.2,0.4-0.3,0.7-0.5c0.1-0.1,0.1-0.2,0.2-0.3c0.1-0.1,0.3-0.1,0.4-0.2c-0.1-0.2-0.3-0.3-0.1-0.5
			c0.1-0.2,0.1-0.3,0.1-0.6c-0.5,0-0.8,0-1.3,0.2c-0.1,0.1-0.1,0.5-0.2,0.6c-0.1,0.3-0.1,0.4-0.3,0.6c0-0.4,0.2-1.6,0-1.9
			c-0.2-0.3-0.5-0.7-0.4-1.1c0.1-0.4,0.2-0.7,0.4-1c0.5-0.6,1.1-0.7,1.8-0.7c0.4,0,0.5,0,0.8-0.3c0.2-0.3,0.4-0.6,0.6-0.8
			c-0.3,0.1-0.6,0.2-0.8,0.4c-0.3,0.2-0.3,0.4-0.7,0.3c-0.5,0-0.5,0-0.8-0.5c-0.2-0.3-0.2-0.7-0.4-1c-0.2-0.6-0.4-1.3-0.5-1.9
			c-0.1-0.5-0.1-1.1-0.2-1.7c-0.1-0.7-0.2-1.2-0.6-1.8c-0.1-0.2-0.5-0.6-0.5-0.8c0-0.1,0-0.7,0.1-0.8c0.2-0.2,0.5-0.4,0.7-0.6
			c0.2-0.1,0.5,0.2,0.7,0.2c0.3,0,0.4,0.1,0.6-0.1c0.2-0.2,0.5-0.8,0.7-0.7c-0.1-0.2-0.2-0.6-0.4-0.6c-0.3,0-0.6-0.1-0.9-0.1
			c0.1-0.2,0.2-0.4,0.3-0.6c-0.3,0.2-0.6,0.6-0.9,0.7c-0.2,0.1-0.4,0.1-0.6,0.2c-0.3,0.1-0.2,0-0.4-0.2c-0.4-0.7-0.8-1.3-1.1-2
			c-0.8-1.6-1.5-3.2-1.9-4.9c0.4,0,0.9,0.7,1.2,1c0.2,0.2,0.4,0.6,0.6,0.8c0.2,0.2,0.4,0.3,0.6,0.5c0.1,0.2,0.2,0.4,0.3,0.7
			c0.1,0.4,0.2,0.5,0.6,0.9c0.2,0.2-0.1-1.1-0.1-1.3c-0.2-0.5,0.4-0.8,0.7-1.1c0.4-0.4,0.6-0.6,1.1-0.7c0.3,0,0.4,0,0.6-0.2
			c0.2-0.3,0.3-0.3,0.7-0.3c0.3,0,0.5,0.1,0.8,0.1c0.3,0,0.4-0.1,0.7-0.3c-0.3,0-0.6,0-0.9-0.1c0,0,0,0,0,0c-0.2,0.1-2-0.6-1.1-0.7
			c-0.3-0.5-0.2-0.2-0.6-0.2c-0.4,0-0.7,0-0.9-0.5c-0.1-0.3,0.1-0.6,0.3-0.9c0.1-0.2,0.8,0,1,0c-0.1-0.6-0.1-0.5-0.7-0.6
			c-0.4,0-0.8,0-1.2,0c-0.7,0-1.3,0.5-1.8,1c-0.4,0.4-1.5,1.1-2,0.8c-0.5-0.3-0.5-0.3-0.7-0.9c-0.1-0.4-0.2-0.8-0.3-1.1
			c-0.5-1.6-1-3.1-1.8-4.5c-0.7-1.3-1.4-2.7-2.3-3.9c-0.3-0.4-1.2-1.2-1.2-1.7c-0.1-0.6-0.2-1.5,0.5-1.8c0,0.5,0,1,0.3,1.4
			c0.1-0.3,0.3-1.6,0.8-1c0.3,0.4,0.4,0.9,0.6,1.3c0.1,0.2,0.3,0.3,0.3,0.6c0,0.5,0,0.2,0.3,0.4c0.6,0.3,0.7,0.7,0.7,1.3
			c0.1,0,0.2,0,0.3,0c0,0.1-0.1,0.5,0,0.5c0.2,0.1,0.4,0.1,0.6,0.2c0.3,0.3,0.7,0.5,1,0.8c-0.1-0.3-0.5-0.6-0.5-0.9
			c0-0.4-0.6-0.6,0.2-0.6c0.1,0,0.1-0.3,0-0.3c-0.1,0-0.6-0.1-0.6-0.2c0.1-0.4,0.6-0.3,1-0.3c-0.1-0.1-0.4-0.1-0.5-0.3
			c-0.1-0.1-0.2-0.2-0.3-0.3c-0.1-0.1,0.1-0.2,0.2-0.2c0-0.5-0.3-0.9-0.3-1.4c0-0.5,0.4-0.8,0.3-1.3c0-0.2,0.2-0.5,0.2-0.7
			c0-0.2-0.3-0.1-0.1-0.5c-0.4-0.2-0.6-0.3-0.9-0.6c0.1,0.2,0.2,0.5,0.2,0.7c0.1,0.3-0.3,0.3-0.5,0.2c0.1,0.2,0,0.4,0,0.7
			c-0.6-0.1-0.9-0.6-1.2-1.1c0,0.2,0,0.6-0.2,0.7c-0.4,0.1-0.5-0.3-0.5-0.5c-0.1-0.2,0-0.5,0.1-0.7c0.1-0.3,0-0.5,0.1-0.8
			c0.5,0.3,0.7,0.7,1.3,0.7c0.1,0,0.1-0.2,0.2-0.2c0.1,0,0.2,0,0.3,0c0.2-0.1,0.1-0.3,0.3-0.4c0.1-0.1,0.2,0,0.3-0.1
			c0.2-0.2,0.5,0,0.7-0.2c0.2-0.2,0-0.4,0.3-0.6c0.2-0.1,0.7-0.2,0.7-0.5c0-0.3-0.3-0.5-0.6-0.6c0,0.2-0.1,0.3-0.1,0.5
			c0,0.2-0.2,0.2-0.4,0.3c-0.4,0.3-0.3,0.4-0.8,0.4c0-0.3,0.1-0.7,0.1-1c-0.1,0.3-0.3,0.7-0.4,1c-0.1-0.1-0.1-0.3-0.2-0.4
			c0,0.1,0.1,0.4,0,0.5c-0.2,0.1-0.3,0.1-0.4,0.4c-0.1,0.2-0.3,0.2-0.5,0.3c-0.1,0.1-0.3-0.3-0.4-0.3c-0.1-0.1-0.4-0.2-0.5-0.3
			c0-0.1,0.1-0.6,0.2-0.6c0.4-0.3,0.5,0.4,0.9,0.1c-0.2-0.4-0.3-0.5-0.2-0.9c0,0.1,0.7-0.1,0.8-0.2c0.4-0.3,0.3-0.5,0.3-0.9
			c0-0.5,0.4-0.3,0.7-0.3c-0.1-0.4-0.1-0.6-0.5-0.5c0,0-0.5-0.6-0.6-0.7c0,0.7,0,1.4-0.1,2.1c-0.2-0.1-0.5-0.3-0.7-0.2
			c-0.5,0.1-0.4,0.1-0.8-0.2c0.2,0,0.3,0,0.5,0c0-0.5-0.1-0.4-0.7-0.4c-0.4,0-0.7,0-0.7-0.5c0-0.2,0.7-0.5,0.5-0.8
			c-0.1-0.1-0.5,0-0.6,0c-0.1,0-0.2,0.3-0.2,0.4c-0.1-0.1-0.2-0.2-0.2-0.3c-0.3,0.4-0.5,1-0.1,1.5c0.3,0.4,0.3,0.4,0.8,0.6
			c0.3,0.1,0.5,0.2,0.8,0.3c-0.2,0.2-0.6,0.7-0.9,0.7c-0.5-0.2-0.7-0.3-1.1-0.7c-0.3-0.3-0.7-0.5-0.9-0.9C27.3,41.3,27.2,41,27,41
			c-0.2,0-0.5,0.2-0.7,0.2c-0.1,0-0.8-0.7-1-0.8c-0.3-0.3-0.4-0.7-0.7-1.1c-0.4-0.8-0.8-1.6-1.2-2.3c-0.6,0.2-0.3,1.1-0.1,1.5
			c0.3,0.6,0.7,1,1.2,1.5c0.4,0.4,0.7,0.8,1.1,1.3c0.3,0.4,1.1,1,0.7,1.5c0.6,0,0.7,0.2,1.1,0.6c0.3,0.4,0.5,0.5,0,0.9
			c0.3,0.2,0.7,0.3,0.8,0.7c0,0.1,0,1,0,1.1c-0.8,0.4-1.3,0.4-2.2,0.4c-0.6,0-0.6-1.6-0.7-2c-0.1-0.7-0.6-1.5-1-2.1
			c-0.7-1.4-1.7-2.7-2.6-3.9c-0.9-1.3-1.8-2.6-2.7-3.9c-0.8-1.2-1.7-2.3-2.6-3.4c-0.5-0.7-1.1-1.4-1.5-2.1c-0.4-0.6-0.8-1.3-1.3-1.9
			c-0.1-0.1-0.3-0.2-0.3-0.4c0-0.2,0.4-0.9,0.2-1.1c-0.3-0.3,1.7-0.1,1.4-0.4c0,0-0.1-1-0.6-1.1c-0.4,0,0.2-0.3-0.1-0.3
			c-0.1,0-0.9,0.2-1.1,0.4c-0.3,0.1-0.5-0.4-0.7-0.2c-0.1,0.1,0.1,0.5,0.1,0.7c0,0.1-0.2,0-0.2,0.1c0,0.3,0.2,0.8,0.2,0.8
			c-0.1-0.1-0.7-0.8-0.8-0.9c-0.1-0.2,0.1-0.3,0-0.5c-0.1-0.2-0.8-1.1-1-1.3c-0.1-0.1,0.4-0.6,0.3-0.7c-0.1-0.2-0.3,0-0.4-0.2
			c-0.1-0.1-0.5,0.2-0.6,0.1c-0.1-0.2-0.1-0.2-0.2-0.4c-0.1-0.1,0.4-0.5,0.3-0.6c-0.1-0.1-0.2-0.1-0.2-0.3c0-0.2-0.5-0.1-0.7-0.2
			c-0.3-0.3-0.5-0.7-0.7-0.9c-0.3-0.2-0.4-0.5-0.7-0.8c-0.1-0.1-0.9-0.4-0.5-0.7c0.1-0.1,0.3-0.4,0.5-0.4c0.1,0,0.3,0.2,0.4,0.2
			c0.4,0,0.8,0,1.1-0.4c0.2-0.3,0.2-0.7,0.3-1c0.2-0.5,0.1-0.8,0.1-1.3c0-0.8-0.5-1.5-0.9-2.2C8,11.7,7.2,10.4,6.3,9.2
			C5.9,8.5,5.4,7.9,4.9,7.2C4.9,7.1,4.7,7,4.6,6.8c-0.1-0.1,0-0.3-0.1-0.4C4.2,6.1,3.9,5.8,3.7,5.5C3.1,4.8,2.5,4,1.8,3.5
			C1.5,3.4,1.6,3.3,1.3,3.3C1.1,3.3,1,2.9,0.9,2.8C0.8,2.7,0.8,2.4,0.7,2.3C0.5,2.2,0.2,2.1,0,2.1C0.5,1.8,0.5,1.5,0.6,1
			c0.6,0.2,1.2,0.4,1.8,0.5c0.4,0,0.8-0.1,1.2-0.2C3.8,1.2,3.9,0.6,4,0.6c0.7,0,1.4,0.1,2.1,0.2c0.1,0,0.5-0.6,0.6-0.6
			C7,0,7.3,0.4,7.6,0.5C6.9,0.7,6.8,1,6.8,1.7c0,0.3-0.1,0.5-0.2,0.8C6.5,2.7,6.7,2.9,6.5,3.1C6.3,3.2,6.6,4.3,6.6,4.6
			c0,0.5,0.2,1,0.4,1.5c0.3,0.6,0.6,1,1.1,1.5C8.6,8,9,8.2,9.3,8.7c0.2,0.2,0.3,0.5,0.5,0.7c0.1,0.2-0.4,0.4-0.5,0.3
			C9,9.4,9,9.1,8.8,8.9C8.6,8.7,8.3,8.6,8.1,8.4c0.2,0.4,0.3,0.7,0.5,1.1c0.2,0.4,0.5,0.4,0.9,0.4c-0.1,0.4-0.1,0.6,0.4,0.8
			c0.4,0.2,0.7,0.4,1.1,0.5c0.4,0.1,0.8,0.2,0.5,0.7c-0.1,0.1-0.2,0.3-0.3,0.4c-0.3,0.2-0.3,0-0.3,0.4c0,0.4,0.1,0.8,0.5,0.8
			c0.2,0,0.3-0.1,0.4-0.2c0.1-0.1,0.1-0.2,0.1-0.3c0.1-0.1,0.3,0,0.3,0c0.3-0.3,0-0.9-0.2-1.2c-0.2-0.4-0.3-0.6-0.3-1
			c0.4,0.1,1.1-0.1,1.4-0.3c0.4-0.3,0.3-1,0.4-1.5C14.3,9,14.2,10,14.4,10c0.3,0,0.4,0,0.6,0.2c0.1,0.2,0.3,0.3,0.1,0.5
			c-0.1,0.2-0.4,0.1-0.6,0.2c-0.2,0.2-0.5,0.1-0.7,0.1c-0.5,0-0.3,0.8-0.3,1.1c0.2,1.1,1.1,1.4,2.1,1.5c0.6,0,0.8-0.2,0.8-0.7
			c0-0.5,0.4-0.7,0.5-1.2c0.4,0.3,0.5,0.3,0.3,0.7c0.3,0,0.5,0,0.7,0c0.1,0,0.5,0.5,0.7,0.6c0.2,0.1,0.4-0.4,0.6-0.2
			c0.3,0.2,0.4,0.5,0.6,0.8c0.1,0.1,0.5,0,0.7,0.1c0.3,0.2,0.5,0.1,0.8,0.1c0.2,0,0.6-0.1,0.8,0c0.3,0.1,0.4,0.3,0.8,0.3
			c0.2,0,0.6,0,0.8,0.1C24,14.6,24,15,24,15.3c0,0.7,0.3,1.1,0.9,1.3c0.5,0.2,1.1-0.1,1.6,0c0.3,0.1,1.1,0.8,1.1,1.1
			c-0.2,0-0.4,0.1-0.5,0.1c-0.2,0-0.3,0.3-0.4,0.5c-0.4-0.1-0.1-0.3-0.2-0.5c-0.1-0.1-0.2-0.2-0.3-0.4c-0.1-0.1-0.1,0.1-0.2,0
			c-0.4-0.5-0.8-0.2-1,0.3c0.5-0.3,1.1,0.4,1.2,0.8c-0.6-0.2-0.9,0-1.3,0.4c0.3-0.1,1.3-0.3,1.5,0c0.3,0.5,0.7,0.9,0.1,1.2
			c0.3,0.2,0.5,0.3,0.8,0.5c0.1,0.1,0,0.7,0,0.9c0.2,0,0.4,0.1,0.6,0c0.2,0,0.4-0.2,0.6-0.2c0.5-0.1,0.8,0,1.1,0.3
			c0.2-0.4-0.6-0.8-0.9-0.8c-0.2,0-0.5,0-0.7,0c-0.3,0-0.3-0.1-0.4-0.4c0.3,0.1,0.7,0.1,0.2-0.2c-0.1-0.1-0.3-0.6-0.4-0.8
			c0.3,0.1,0.6,0.4,0.9,0.6c0.4,0.2,0.6,0.2,1,0.1c-0.1-0.2-0.4-0.5-0.1-0.7c0.1-0.1,0.7,0.1,0.8,0.1C29.8,19,30.3,19,30.8,19
			c0-0.1,0-0.3,0-0.4c0.1,0,0.1,0,0.2,0c0-0.1,0-0.2,0-0.3c0,0,0.7-0.1,0.8-0.3c0,0.1,0.1,0.2,0.1,0.4c-0.4,0.1-0.6,0.1-0.7,0.5
			c-0.1,0.3-0.2,0.6,0.1,0.9c-0.6,0.1-0.3,0.5-0.2,0.9c0.3,0.5,0.5,0.8,1.1,1c-0.2,0.4-0.7,0.1-1.1,0c0.1,0.2,0.2,0.5,0.4,0.7
			c0.3,0.3,0.3,0.5,0.4,0.9c0.1,0.4,0.4,0.5,0.7,0.8c0.2,0.2,0.5,0,0.7-0.1c0.1,0.5,0.4,0.9,0.6,1.4c0.2,0.5-0.1,0.9,0.2,1.4
			c0.1,0.2,0.3,0.2,0.5,0.2c0.3,0,0.4,0.2,0.5,0.5c0.2,0.5,0.1,1.1,0.1,1.6c-0.7-0.3-0.6,0.5-0.6,1c0,0.2,0.3,0.5,0.3,0.7
			c0.1,0.4-0.1,0.4-0.5,0.7c0.1,0,1-0.2,1,0c0,0.3,0,0.7,0,1c0,0.7,0.3,1.1,0.7,1.6c-0.4,0.3-0.6,0.2-1.1,0.2
			c-0.1,0-0.1-0.4-0.2-0.5c-0.1-0.1-0.4-0.2-0.6-0.3c0,0.4,0,0.6-0.3,0.9c-0.1,0.2-0.3,0.5-0.4,0.8c-0.1,0.8,0,1.3,0.4,2
			c0.3,0.5,0.5,1.3,1.2,1.4c0.5,0.1,0.7,0,0.9,0.5c0.2,0.3,0.2,0.7,0.3,1c0.6,1.3,1.4,2.5,2.6,3.4c0.3,0.2,0.6,0.3,0.9,0.4
			c0.5,0.1,0,0.6-0.1,0.8c-0.1,0.2-0.6,0.1-0.7,0.3c-0.3,0.4-0.1,0.5,0.2,0.9c0-0.2,0-0.4,0-0.6c0.2,0,0.3,0.1,0.4,0.3
			c0.1,0.2,0.4,0.2,0.5,0.3c0.3,0.2,0.7,0.1,1,0.3c-0.3,0.1-0.6,0.3-0.9,0.2c-0.4,0-0.6,0.1-1,0.2c-0.4,0-0.8,0-0.7,0.5
			c0.1,0.4,0.4,0.5,0.8,0.6c-0.2,0.5-0.5,1-0.8,1.4c0-0.4-0.2-2.1-0.8-1.7c0.1,0.5,0.1,1.1,0.3,1.5c0.1,0.2,0.3,0.7,0.2,0.9
			c-0.1,0.3-0.2,0.6-0.2,0.9c0,0.3,0,0.5,0.1,0.8c0.1,0.3,0.5,0.4,0.7,0.5c0,0,0.5-0.3,0.6-0.3c0.3-0.1,0.6-0.1,0.9-0.2
			c-0.1,0.2-0.1,0.4-0.3,0.5c-0.2,0.1-0.6,0-0.8,0.1c-0.3,0.1-0.4,0.3-0.6,0.5c-0.1,0.1-0.2,0-0.2,0.1c-0.1,0.1,0,0.4,0,0.5
			c0.1,0,0.3,0,0.4,0c0,0.6,0,1.2,0.2,1.8c0.1,0.3,0.1,0.7,0.2,1c0.1,0.3,0.5,0.6,0.7,0.8c0.2,0.3-0.3,0.5,0.3,0.6
			c0.1,0,0.9,0.1,0.9,0.1c0,0.3,0.1,0.7-0.3,0.5c-0.3-0.1-0.7-0.2-1-0.3c0.1,0.2,0.1,0.3,0.2,0.5c0.1,0.2,0.5,0.2,0.6,0.3
			c0.3,0.3,0.2,0.7,0.2,1.1c0.2,0,0.7,0.1,0.6-0.2c0-0.3-0.1-0.4-0.4-0.6c0.5-0.3,0.5-0.8,0.6-1.3c0.2,0.3,0.3,0.4,0.6,0.6
			c0.4,0.2,0.3,0.7,0,1c0.4,0,0.4,0.2,0.4,0.6c0.1-0.2,0.1-0.4,0.2-0.6c0.1,0.1,0.2,0.2,0.3,0.3c0.2-0.4,0.1-0.6,0-1
			c-0.1-0.4,0.8-0.3,0.9-0.2c0.2,0,0.5,0.1,0.7,0.2c0.1,0,0,0.4,0,0.4c0,0.1,0.1,0.2,0.1,0.3c0,0.2,0,0.4,0,0.6c0.2,0,0.5,0,0.7-0.1
			c0.4-0.1,0.4-0.2,0.7,0.2c0.1,0.2,0.5-0.3,0.6-0.3c0.1,0,0.6,0.3,0.7,0.4c0.3,0.3,0.9,0.7,1,1.1c0.1,0.6,0.2,1.1,0.4,1.7
			c0.1,0.3,0.1,0.4,0,0.8c-0.1,0.3,0,0.5,0,0.9c0.1,0.5,0.1,1.1,0.5,1.5c0.2,0.3,0.9,0.7,1.3,0.6c0.3-0.1,0.6-0.1,0.8-0.2
			c0.4-0.2,0.6-0.2,1,0c0.1-0.3,0.2-0.5,0.5-0.7c0.3-0.2,0.4,0,0.7,0.2c-0.2-0.3-0.2-0.7-0.4-1c-0.1-0.2-0.6-0.8-0.6-1.1
			c0.1-0.9,0.1-1.5-0.1-2.4c-0.1-0.4-0.2-0.8-0.4-1.1c-0.2-0.4-0.5-0.7-0.7-1.1c-0.2-0.3-0.5-0.7-0.5-1.1c0-0.3,0-0.3,0.3-0.3
			c0.2,0,0.5,0,0.7,0c-0.2-0.1-0.6-0.1-0.6-0.4c0.2,0,0.5,0.1,0.7,0.1c-0.1-0.1-1.1-0.5-0.5-0.5c0.5,0,0.7-0.1,1-0.4
			c0.2-0.1,0-0.8-0.2-0.9c-0.3-0.1-0.4,0.3-0.4,0.5c-0.1,0.2-0.3,0.2-0.5,0.3c0.1-0.4,0.2-0.7,0.5-1c0.4-0.3-0.1-0.5-0.4-0.7
			c-0.3-0.3-0.1-0.7-0.1-1.1c0-0.1,0.3-0.3,0.2-0.3c-0.1-0.2-0.1-0.4-0.2-0.6c0.5,0,0.6,0.1,0.6-0.4c0,0.1-0.6-0.2-0.7-0.4
			c-0.4-0.6-1.1-0.6-1.6-1.2c-0.2-0.3-0.3-0.7-0.3-1.1c0-0.5,0-0.6,0.5-0.8c0.4-0.1,0.6-0.1,0.9,0.2c0.3,0.3,0.3,0.4,0.4,0.9
			c0-0.1,0.1-0.2,0.1-0.3c0.2,0.3,0.3,0.4,0.6,0.5c-0.1-0.4,0.1-0.3,0.5-0.3c0.1,0,0.4,0.5,0.5,0.6c0.3,0.2,0.2,0.3,0.1,0.7
			c-0.1,0.3-0.1,0.4-0.2,0.7c0.3,0.1,1,0.1,1.1,0.4c0.1,0.3,0.2,0.4,0,0.6c-0.2,0.2,0,0.4,0.1,0.6c-0.2,0-0.4,0.1-0.6,0.1
			c0.2,0.5,0.3,0.2,0.6,0.3c0.1,0.1,0.5,0.5,0.5,0.6c0,0.4-0.2,1.6,0.5,1.2c0.3-0.2,0.4-0.3,0.6-0.6c0.1-0.2,0.5-0.2,0.8-0.2
			c0.3-0.1,0.6-0.2,0.9-0.2c0.3-0.1,0.4-0.3,0.7,0c0.1,0.1,0.5,0.4,0.5,0.5c0.1,0.4-0.3,0.2-0.5,0.4c-0.3,0.2-0.5,0.3-0.8,0.4
			c-0.2,0.1-0.1,0.6-0.2,0.7c-0.2,0.2-0.5,0.2-0.7,0.5c-0.1,0.2,0,0.6-0.1,0.8c-0.3,0.3-0.4-0.2-0.4,0.5c0,0.4,0.1,0.4,0.5,0.7
			c0-0.6-0.1-1.1,0.3-1.6c0.2,0.2,0.5,0.5,0.7,0.7c0-0.2,0-0.5,0-0.7c0.3,0,0.5,0,0.7,0.2c0.1,0.1,0.3,0.3,0.4,0.4
			c0.1,0.1-0.1,0.3-0.1,0.4c0,0.2,0.3,0.6,0.4,0.8c0.1,0.3,0.3,0.7,0.4,1c-0.3,0-0.4-0.1-0.4,0.2c0,0.2-0.1,0.7,0.1,0.9
			c0.2,0.3,0.2,0.3,0.1,0.6c-0.1,0.3-0.2,0.6-0.3,0.9c0.2-0.2,0.6-0.9,0.9-0.4c0.2,0.3,0,1.1,0,1.5c0,0.8,0,1.6,0,2.5
			c-0.3-0.3-0.5-0.5-0.7-0.9c0,0.7,0.1,1.1,0.6,1.5c0.3,0.2,0.1,0.3,0.1,0.6c0,0.2,0.2,0.5,0.2,0.7c0.2,0.5,0.3,1,0.4,1.5
			c0.1,0.5,0,0.9,0.3,1.4c0.4,0.9,1.3,1.5,1.7,2.4c0.1,0.2,0.3,0.5,0.1,0.6c-0.3,0.1-0.5-0.2-0.7-0.4c-0.4-0.4-0.8-0.9-1.2-1.3
			c0,0.2,0,0.4,0.1,0.6c0.1,0.2,0.3,0.4,0.1,0.6c-0.4,0.2-0.4,0.8-0.3,1.2c0.2,0.6,0.3,0.7,0.8,1.1c0.5,0.4,0.9,0.8,1.4,1.2
			c0.3,0.2,0.9,0.2,1.4,0.2c0.5,0,0.9-0.1,0.5-0.6c-0.2-0.3-0.9,0-1.3-0.2c-0.6-0.3-0.9-0.9-1.1-1.4c0.2-0.1,0.4-0.1,0.5-0.2
			c0.1,0,0.3,0.4,0.4,0.5c0.4,0.1,0.6,0.6,1,0.8c0.3,0.1,0.8,0.2,1,0.5c0.1,0.2,0.3,0.4,0.4,0.7c0.2,0.3,0.6,0.4,0.9,0.6
			c0.7,0.6,1.6,0.9,2.5,1.3c0.4,0.1,0.6,0.2,1,0.2c0.5,0,0.6,0.3,0.8,0.8c0.5,0.7,1.3,1,2.1,1.3c0.6,0.3,1.3,0.7,2,0.9
			c0.7,0.3,1.6,0.4,2.4,0.5c0.3,0.1,0.7,0.4,1,0.6c0.3,0.2,0.6,0.3,0.9,0.4c0.2,0.1,1,0.2,1.1,0.4c0.2,0.3,0.3,0.9,0.6,1
			c0.5,0.3,0.5,0.4,0.5,1c0,0.6,0.9,0.2,0.9-0.1c0-0.1-0.3-0.3-0.1-0.4c0.2-0.1,0.6,0.1,0.7-0.1c0.1-0.3-0.1-0.5,0.3-0.4
			c0.3,0.1,0.6,0.2,0.9,0.3c0.9,0.2,1.8-0.1,2.7-0.3c1.5-0.3,2.7-1.4,3.5-2.7c0.2-0.3,0.5-1,0.8-1.1c0.1,0,0.2,0.1,0.3,0
			c0.1-0.1,0.2-0.2,0.3-0.3c0.1-0.2,0.3-0.4,0.4-0.6c0.1-0.3,0.2-0.3,0.1-0.5c-0.1-0.3,0.5-0.5,0.7-0.7c0.2-0.2,0.1-0.6,0.2-0.8
			c0.1-0.1,0.5-0.1,0.7-0.1c0.5-0.1,1-0.1,1.5-0.3c0.2-0.1,0.7-0.2,0.8-0.4c0.2-0.2,0.2-0.6,0.3-0.8c0.8,0.4,1.6,0,1.7-0.9
			c0-0.1,0-0.4,0-0.4c0.2,0,0.4,0,0.6,0c0.4,0,0.8,0,1.3,0c0.4,0,0.8,0,1.2,0.1c0.2,0,0.3,0,0.5,0c0.2,0,0.3-0.2,0.5-0.2
			c0.3,0,0.8,0.2,1.1,0.3c0.4,0,0.8,0.2,1.2,0.3c-0.3,0.1-0.8,0.3-0.7,0.7c0,0,0.5,0.9,0.4,0.9c1,0.3,1.9,0.4,2.8,1.1
			c0.2,0.1,0.9,0.6,1,0.8c0.1,0.3-0.5,1.1-0.7,1.3c-0.4,0.6-0.8,1.3-1.3,1.9c-0.2,0.3-0.5,0.5-0.8,0.8c-0.2,0.2-0.1,0.9-0.1,1.2
			c0,0.2-0.1,0.3-0.2,0.5c-0.1,0.1,0,0.4,0,0.6c0,0.4-0.4,0.7-0.7,0.8c-0.8,0.4-0.1,1.6,0.1,2.2c0,0.1-0.6,0.6-0.7,0.6
			c-0.2,0-0.3,0-0.4,0.2c0,0.2,0,0.5,0,0.7c0,0.4,0.5,0.2,0.3,0.6c-0.1,0.3-0.3,0.5-0.3,0.8c0,0.3-0.5,0.5-0.3,0.8
			c0.2,0.4,0.3,0.5,0.7,0.7c-0.4,0.3-0.5,0.3-0.5,0.8c0,0.3,0,0.7-0.3,0.8c-0.4,0.1-0.5,0.5,0,0.6c0.2,0,0.3,0,0.3,0.1
			c0,0.1,0.1,0.4,0,0.5c-0.3,0.2-0.5,0.5-0.8,0.7c-0.3,0.3-0.2,1-0.3,1.4c-0.1,0.7-0.8,1.1-1.4,1.4c-0.6,0.3-0.9,1.2-1.4,1.5
			c-0.5,0.3-0.7,0.3-1,0.8c-0.3,0.4-0.5,0.5-0.8,0.1c-0.1-0.2-0.6-0.4-0.9-0.4c-0.5,0-0.6,0.2-0.8,0.6c-0.1,0.2-0.4,0.7-0.3,1
			c0.1,0.4,0.5,0.3,0.8,0.3c-0.2,0.2-0.7,0.5-0.8,0.8c-0.1,0.2-0.2,0.4-0.3,0.6c-0.1,0.2,0,0.4,0,0.5c0,0.1-0.2,0.2-0.2,0.3
			c0,0.2-0.1,0.4-0.1,0.6c0,0.4-0.1,0.8-0.1,1.2c-0.1,0.8-0.3,1.7-0.2,2.5c0,0.4,0,0.7,0.4,0.9c0.5,0.2,0.8,0.3,1.3,0.4
			c-0.1,0.5-0.3,0.5-0.7,0.8c-0.2,0.2-0.7,0.5-0.7,0.7c-0.1,0.8-0.6,1.4-1.2,1.9c-0.2-0.6-0.6-1.6-0.5-2.2c0-0.3,0.3-0.7,0.4-1
			c0.1-0.4,0.2-0.9,0.3-1.3c0-0.2-0.6-0.2-0.8-0.2c-0.5-0.1-1-0.2-1.5-0.3c-0.9-0.2-1.7-0.2-2.6-0.2c-0.7,0-1.5,0-2.2,0
			c-0.7,0-1.7-0.1-2.3,0.5c-0.5,0.6-1.3,0.7-1.9,1c-0.6,0.3-1.3,1-1.9,1.1c-0.5,0.1-0.7,0.1-1.2,0.4c-0.3,0.2-0.4,0.7-0.5,1
			c-0.1,0.3-0.2,0.7-0.3,1c-0.1,0.3-0.5,0.6-0.7,0.8c-0.5,0.3-1,1-1.2,1.6c-0.2,0.7-0.2,1.4-0.2,2.1c0.1,0,0.2-0.1,0.3-0.1
			c0,0.7,0,1.5,0.3,2.2c0.1,0.3,0.2,0.7,0.4,0.9c0.3,0.4,0.4,0.5,0.9,0.5c0.3,0,0.9-0.1,1.1,0.1c0.4,0.3,0,0.7-0.2,1
			c-0.5,0.5-0.8,1.5-0.9,2.2c0,0.2-0.1,0.4-0.2,0.6c-0.1,0.2,0,0.5,0,0.7c-0.1,0.4-0.4,0.5-0.6,0.8c-0.2,0.4-0.2,0.8-0.6,0.8
			c-0.3,0-0.4,0.8-0.5,1c-0.1,0.4-0.3,0.7-0.5,1.1c-0.2,0.3-0.2,0.7-0.2,1.1c0,0.3-0.4,0.6-0.4,0.9c0,0.2,0.1,0.4,0,0.6
			c-0.1,0.2-0.3,0.3-0.4,0.5c-0.2,0.4-0.3,0.6-0.6,1c-0.2,0.2-0.6,0.4-0.9,0.5c-0.3,0.1-0.8,0.2-1.1,0.5c-0.3,0.3-0.4,1-0.6,1.4
			c-0.2,0.3-0.2,0.7-0.3,1c-0.2,0.4-0.3,0.8-0.5,1.2c-0.1,0.4-0.3,0.6-0.2,0.9c0.1,0.4,0.1,0.8-0.1,1.1c-0.2,0.3-0.7,0.1-1,0.1
			c-0.3,0.1-0.6,0.4-0.9,0.6c-0.3,0.2-0.7,0.4-0.8,0.8c-0.1,0.4-0.2,0.8-0.6,0.9c-0.7,0.2-0.7,1.4-1.4,1.6c-0.5,0.2-0.6,0.3-0.8,0.8
			c-0.1,0.3-0.4,0.6-0.6,0.9c-0.2,0.3-0.4,0.6-0.6,0.9c-0.4,0.4-0.4,0.5-0.5,1.1c-0.1,0.9-0.6,1.2-1,1.9c-0.2,0.3-0.4,0.5-0.4,0.9
			c0,0.1-0.3,0.2-0.3,0.3c-0.1,0.1,0,0.4-0.1,0.6c-0.3,0.4-0.5,0.8-0.7,1.2c-0.2,0.5-0.6,0.8-0.7,1.3c-0.1,0.4-0.1,0.9-0.6,1
			c-0.3,0-0.5,0.6-0.7,0.8c-0.3,0.4-0.7,0.4-0.9,0.9c-0.1,0.4-0.3,0.7-0.6,1.1c-0.1,0.1-0.3,0.1-0.5,0.2c-0.1,0-0.2,0.3-0.3,0.4
			c-0.1,0.1-0.4,0.1-0.5,0.2c-0.1,0.1-0.1,0.6-0.2,0.8c-0.2,0.4-0.6,0.5-0.9,0.7c-0.3,0.2-0.6,0.5-1,0.7c-0.3,0.2-0.7,0.2-1,0.3
			c-0.3,0.1-0.6,0.4-0.8,0.7c-0.3,0.3-0.3,0.5-0.7,0.6c-0.4,0.1-0.7,0.3-1.1,0.5c-0.6,0.3-0.9,1-1.4,1.4c-0.3,0.2-0.7-0.1-1,0
			c-0.5,0.1-0.7,0.3-1.1,0.6c-0.4,0.4-1.9,0-2-0.5c-0.3-0.9-0.2-1.8-0.2-2.8c0-0.7-0.9-1.3-1.4-1.5c-0.4-0.2-0.6-0.3-1-0.3
			c-0.2,0-0.5-0.1-0.7,0c-0.2,0.1-0.3,0.4-0.5,0.5c-0.2,0.1-0.9,0.6-1,0.5c-0.1,0-0.5-0.1-0.5-0.2c-0.1-0.2-0.1-0.3-0.3-0.5
			c-0.2-0.2-0.5-0.8-0.4-1.1c0.1-0.3,0.4-0.5,0.4-0.8c0-0.2,0-0.5,0-0.7c0-0.4-0.1-0.6-0.5-0.8c-0.1,0-0.4-0.3-0.4-0.2
			c-0.1,0.2-0.2,0.3-0.4,0.4c-0.8,0.4-1.1,0.8-1.1,1.7c0,0.2,0,0.4-0.1,0.6c-0.1,0.2-0.1,0.2-0.3,0.2c-0.4,0-0.7,0-0.9-0.4
			c-0.6-0.6-0.8-1.6-0.3-2.4c0.4-0.6,1.3-0.7,1.7-1.3c0.2-0.3,0.4-0.7,0.6-1c0.1-0.1,0.4-0.2,0.5-0.3c0.2-0.2,0.3-0.5,0.6-0.7
			c0,0.3,0,0.5-0.1,0.7c0.1,0,0.4,0,0.4-0.1c0-0.2,0.1-0.4,0-0.6c-0.3-0.4-0.4-0.6,0-1c0.3-0.2,0.5-0.4,0.8-0.3
			c0.2,0.1,0.4-0.1,0.5-0.3c0-0.1,0.3-0.8,0.2-0.8c0,0,0,0,0,0c0.2-1,0.4-2.1,1.2-2.8c0.4-0.4,1-0.7,1.2-1.1c0.3-0.4,0.4-1,0.6-1.4
			c0.5-1.1,0.8-2.2,1.4-3.3c0.3-0.5,0.2-1.4,0.3-2c0.1-0.5,0.2-1.2,0.8-0.8c0.2-0.3-0.2-0.4-0.4-0.4c-0.3-0.1-0.2-0.2-0.2-0.5
			c-0.1-0.3,0.1-0.8,0.1-1.1c0.1-0.9,0.2-1.6,0-2.5c-0.1-0.7,0-1.5-0.2-2.2c-0.2-0.8-0.4-1.5-0.7-2.3c-0.3-0.7-0.6-1.3-1-1.9
			c-0.5-0.7-1-1.1-1.6-1.7c-0.5-0.5-1.1-1.3-1.7-1.6c-0.8-0.4-1.6-0.5-2.5-0.5c-0.3,0-0.6,0.1-1,0.1c0.4-0.3-1.3-0.9-1.7-1
			c-0.3-0.1-0.9-0.1-1.2-0.2c-0.3-0.2-0.5-0.6-0.7-0.8c-0.7-0.5-1.4-1-2-1.5c-0.3-0.2-0.4-0.6-0.6-0.9c-0.2-0.3-0.5-0.6-0.8-0.9
			c-0.4-0.5-0.9-1.3-1.6-1.5c-0.3-0.1-0.7-0.1-1-0.3c-0.5-0.2-1.1-0.1-1.6-0.3c-0.8-0.2-1.5-0.5-2.2-0.8c-0.4-0.2-0.7-0.4-1.1-0.5
			c-0.4-0.2-0.6-0.6-0.9-1c-0.6-0.7-1.3-1.7-1.4-2.6c0-0.6,0-1.2,0-1.8c0-0.4,0-1.3,0.3-1.6c0.8-0.7,1.7-1.4,2.5-2.2
			c0.1-0.1,0.4,0.2,0.6,0c0.2-0.2,0.4-0.4,0.6-0.6c0.2-0.2,0.4-0.4,0.5-0.6c0.1-0.1,0.6-0.1,0.7-0.1c0,0-0.1,0-0.1,0
			c0-0.2,0.7-0.5,0.8-0.7c0.2-0.2,0.4-0.3,0.7-0.5c0.3-0.2,0.9-0.4,1.3-0.5c-0.1-0.4,1.5-0.2,1.7,0c0,0-0.1,0-0.1,0
			c0.5,0.1,1.5,0.2,1.9-0.2c0.5-0.5,0.8-1.1,1.3-1.6c0.5-0.4,1.1-0.8,1.5-1.4C34.9,101.5,35.3,100.9,35.7,100.3"/>
	</g>
	<polygon id="Fill-4" class="st3" points="125,19.3 124.4,19 124,19.2 124.5,19.5 124.9,20 	"/>
	<polygon id="Fill-6" class="st3" points="118.9,13.2 118.9,13.7 119,14 119.1,13 	"/>
	<polygon id="Fill-8" class="st3" points="134,36.1 133.5,35.8 133,35.8 133.3,36.2 	"/>
	<polygon id="Fill-10" class="st3" points="134.7,34.1 135,33.9 134.5,33.8 134,33.9 134.3,34.2 	"/>
	<polygon id="Fill-12" class="st3" points="141,41 140.9,42.1 140.8,43 140.3,43 140,42.2 140,41.3 140.5,41 140.7,41.2 	"/>
	<polygon id="Fill-14" class="st3" points="135.6,47 136,47.3 136,47.7 135.9,48 135.4,47.9 135,47.7 135.3,47.6 135.6,47.4 
		135.2,47.4 135,47.3 135.1,47 	"/>
	<path id="Fill-16" class="st3" d="M139.4,56l0.8-0.1l0.7,0.5l0.3-0.2l0-0.5l0.7-0.2l0.3-0.5l0.7,0.4l-0.3,0.6l-0.3,0.2l0,0.6
		l-0.1,1.1l-0.4-0.3l-0.2,0.4l-0.7-0.4l-0.2,0c0,0-0.4,0.1-0.5-0.1c-0.1-0.2-0.2-0.5-0.3-0.5c-0.1,0-0.7-0.1-0.7-0.1l-0.2-0.6
		L139.4,56z"/>
	<polygon id="Fill-18" class="st3" points="143,57 142.8,57.8 142.8,59 142.4,58.6 142,58 142.2,57.7 142.2,57.1 	"/>
	<polygon id="Fill-20" class="st3" points="135.1,55.2 135,55.4 135.1,55.7 135.8,56 136,55.8 135.8,55.2 135.4,55 	"/>
	<polygon id="Fill-22" class="st3" points="136.5,54.7 136.5,54 137,54.2 137,54.8 137,55.6 136.5,56 136,55.3 136,54.8 	"/>
	<path id="Fill-24" class="st3" d="M145.3,39l0.8,0.2l0,0.5l0.6,0.4l-0.1,0.5l-0.6,0.1l0.6,0.6l0.8,0.4l0.5,0.4l-0.3,0.4l0.1,0.8
		l0.2,0.7l0.5,0.4l0.4,0.7l0.1,0.6l-0.3,0.3l-0.6,0l-0.6-0.3l0-0.4l-0.3-0.2l-0.6-0.1l-0.3-0.5c0,0-0.1-0.3-0.3-0.4
		c-0.2-0.1-0.3-0.1-0.5-0.3c-0.2-0.2-0.5-0.5-0.7-0.6c-0.2-0.2-0.5-0.4-0.5-0.4l-0.4-0.3L144,42l0.5,0c0,0,0.2,0.1,0.2,0
		c0.1-0.1,0.2-0.2,0.1-0.4c-0.1-0.2-0.3-0.4-0.3-0.4l-0.5-0.5c0,0,0.5,0,0.6,0c0.2,0,0.4,0.1,0.4-0.1c0-0.2,0.1-0.2,0-0.3
		c-0.1-0.1-0.5-0.5-0.5-0.5s-0.2-0.2,0.1-0.4C144.9,39.2,145.3,39,145.3,39"/>
	<path id="Fill-26" class="st3" d="M153.6,51l0.8,0.5L155,52l-0.7,0l-0.7,0l0.1-0.3c0,0-0.7-0.3-0.7-0.4C153,51.2,153.6,51,153.6,51
		"/>
	<polygon id="Fill-28" class="st3" points="162,68.3 162,69 161.5,69 161,68.5 161.6,68.4 162,68 	"/>
	<path id="Fill-30" class="st3" d="M164.4,76c0,0,0.1,0,0.1-0.1c0.2-0.1,0.5-0.5,0.5-0.5l-0.9-0.5l-0.1,0.6l0,0.3L164.4,76z"/>
	<polygon id="Fill-32" class="st3" points="178,74.3 178.3,75 178.7,74.9 179,74.3 178.7,74 178.2,74.1 	"/>
	<path id="Fill-34" class="st3" d="M134,149.7c0.3-0.4,0.6-0.8,0.8-1.3c0.2-0.4,0-0.5,0.4-0.4c0.3,0,0.5,0,0.8,0
		c-0.3,0.2-0.4,0.2-0.5,0.5c-0.1,0.3-0.1,0.6-0.3,0.8C134.9,149.5,134.1,150.5,134,149.7"/>
	<polygon id="Fill-36" class="st3" points="103.7,157.5 104.7,158 105,157.7 104.5,157.4 103.9,157 103,157 	"/>
	<path id="Fill-38" class="st3" d="M115.2,151l0.6-0.4l0.6-0.4c0,0,0.7-0.6,0.7-0.7c0-0.1,0.5-0.9,0.5-0.9l0,0.7c0,0,0.3,0.1,0.3,0
		c0-0.1,0-0.6,0-0.6s0.2-0.3,0.3-0.4c0.2-0.1,0.4-0.3,0.4-0.3s0-0.5,0-0.6c0-0.1,0-0.4,0-0.4s-0.2,0-0.1-0.2c0-0.1-0.1-0.3,0.1-0.4
		c0.2-0.1,0.2-0.3,0.2-0.3s0-0.7,0-0.8c0-0.1,0.2-0.8,0.2-0.8l-0.1-0.6l-0.3,0.7l-0.1,0.5l-0.2,0.6l-0.5,0.1l-0.3,0.3
		c0,0-0.2,0.3,0,0.3c0.2,0,0.6-0.1,0.6-0.1l-0.1,0.3l-0.3,0.4l-0.1-0.2l-0.3,0.2l-0.3,0.3l0.3-0.4c0,0-0.3-0.3-0.2-0.4
		c0-0.1,0.2-0.4,0.2-0.4s0.3-0.3,0.2-0.5c0-0.1-0.5-0.8-0.5-0.8s0.1,0.6,0,0.7c-0.1,0.1-0.3,0.1-0.3,0.3c0,0.1-0.5,0.4-0.5,0.4
		l-0.1,0.3l0,0.4l-0.3,0.2l0,0.6l0.2,0.5l0.3,0l0.1-0.3c0,0,0.1,0.2,0.1,0.3c0,0.1-0.1,0.7-0.1,0.7l-0.4-0.4c0,0-0.2,0.3-0.3,0
		c-0.1-0.3-0.2-0.4-0.2-0.4l-0.2,0.3c0,0-0.2,0.4-0.2,0.6c0,0.1,0.1,0.4,0.1,0.5c0,0.1,0.2,0.2,0.2,0.3c0,0.1,0,0.4,0,0.4l-0.3,0.6
		L115.2,151z"/>
	<polygon id="Fill-40" class="st3" points="118.3,143.8 118,144.2 119,144.2 	"/>
	<polygon id="Fill-42" class="st3" points="120.1,150 120.8,149.7 121,149 120.5,149 120,149.5 	"/>
	<path id="Fill-44" class="st3" d="M122.5,157l0.4-0.2l0.1-0.4c0,0,0.1-0.3-0.1-0.3c-0.2,0-0.6,0.4-0.6,0.4l-0.3,0.4L122.5,157z"/>
	<path id="Fill-46" class="st3" d="M73.4,243.4c0.4-2,0.4-3.9,0-6c-0.1-0.9,0-1.9,0.2-2.7c0.1-0.9,1.1-1.7,1-2.5
		c0-0.4-0.3-1-0.2-1.4c0.1-0.5,0.4-0.7,0.7-1.2c0.3-0.4,0.5-0.9,0.9-1.3c0.4-0.3,0.6-0.9,1.1-1.1c1-0.4,0.4-2-0.1-2.7
		c-0.3-0.4-1.8-2.1-1.5-2.5c0.4,0.7,1.4,1.1,2,1.6c0.7,0.6,0.9,1.3,1.1,2.1c0.8-0.7,1.7-1.1,2.6-1.6c0.9-0.5,1.8-1.3,2.7-1.7
		c0.9-0.4,1.8-1.3,2.7-1.7c0.7-0.2,1-0.4,1.5-0.9c0.4-0.3,0.9-0.5,1.2-0.8c-0.3-0.3-0.8-0.6-1.1-1c-0.5-0.6-0.7-1.2-1.1-1.9
		c-0.6-1-2.6-0.9-2.8-2.1c0.8,0.4,1.6,0.9,2.5,1.3c0.7,0.4,1.8,0.9,2.3,1.5c0.4,0.4,0.6,1,1,1.4c0.5,0.6,0.6,0.4,1.2,0.1
		c0.4-0.2,0.9,0.1,1.1-0.4c0.1-0.3,0-1.2-0.4-1.1c0.1-0.7,0.7-1.3,1.1-1.9c0.4,0.5,0.6-0.2,1-0.2c0.4,0,0.8,1,1.2,1.1
		c0.3,0.1,0.7-0.1,1.1-0.1c0.5,0.1,0.7,0.4,0.9,0.8c-1.3,0.4-3.1,0.4-4,1.3c1.1,0,2.2-0.3,3.2-0.4c0.5,0,0.9-0.2,1.4-0.4
		c0.5-0.2,0.7-0.5,1.2-0.7c-0.4,0.4-0.8,0.6-0.5,1.2c0.1,0.3,0.9,0.2,1.1,0.6c0.4,0.6,2,0.9,2.5,0.4c-0.7-0.2-0.7-1-0.8-1.6
		c-0.1-0.7,0.2-1.1,0.4-1.7c0.2,0.2,0.3,0.4,0.4,0.7c0.1,0.2-0.2,0.2-0.2,0.4c0,0.2,0.1,0.2,0.1,0.4c-0.1,0.2-0.1,0.3-0.1,0.4
		c0,0.5,0.7,1.9,1.3,1.2c0.3-0.3,0.5-0.6,0.8-0.9c0.1-0.1,0.3-0.1,0.4-0.2c0.1-0.1,0-0.4,0.1-0.6c0.1-0.4,1.1-1.8,0-1.8
		c0.3-0.4,0.1-0.9-0.3-1.1c-0.4-0.1,0-0.7-0.7-0.8c-0.5-0.1-0.7,0.4-1-0.2c-0.2-0.3-0.9-0.6-1-0.1c0,0.2-0.3,1.3-0.5,0.9
		c-0.1-0.2,0.2-0.9,0.1-1.3c-0.1-0.2-0.8-0.6-0.9-0.3c-0.1,0.4-0.1,1.2-0.7,1.2c0.3-0.4,0.4-0.8,0.3-1.3c-0.3,0.1-0.7,0.5-1.1,0.5
		c-0.5,0.1-0.8-0.1-1,0.5c-0.1-0.2-0.2-0.3-0.3-0.5c0,0.2-0.1,0.3-0.1,0.5c-0.3,0-0.2-0.3-0.2-0.6c0-0.4,0.4-0.3,0.7-0.4
		c0.3-0.1,1.4-0.3,1.5-0.4c0.1-0.2-0.2-0.4-0.4-0.5c-0.4-0.2-0.4-0.2-0.6-0.7c-0.2-0.5-0.3-1.1-0.4-1.6c-0.3-1.3-0.4-2.4-0.2-3.8
		c0.1-0.5,0-1.1,0.2-1.6c0.4-0.8,0.2-0.8-0.6-1.2c0.3,0,0.9,0.2,1.1-0.2c0.2-0.4,0.5-1,0.1-1.4c0.4,0.3,0.8,0.6,1.3,0.2
		c0.2-0.2,0.2-0.6,0.4-0.8c0.1-0.1,0.5-0.1,0.7-0.2c0.5-0.2,1.1-0.3,1.5-0.6c0.2-0.1,0.5-0.4,0.7-0.4c0.1,0,0.8,0.1,0.8,0
		c0.4-1.2,1-1.6,2.2-1.9c0.6-0.2,0.6-0.9,0.9-1.4c0.4-0.6,0.5-0.7,0.7-1.4c0.2-0.6,0.4-0.8,0.9-1.2c0.2-0.2,0.4-1.6,0.6-1.9
		c0.4-1.1,0.9-2.2,1.4-3.3c0.2-0.3,0.5,0,0.3-0.5c-0.1-0.3,0-0.4,0.1-0.8c0.2-0.5,0.2-1.1,0.5-1.5c0.3-0.3,0.9-0.9,1.3-1.1
		c0.4-0.2,1,0.2,1.5,0.3c0.1-0.4,0-0.5-0.2-0.7c-0.2-0.2-0.1-0.4-0.1-0.7c0-0.4,0-0.4,0.3-0.7c0.2-0.2,0.6-0.1,0.7-0.3
		c0.1-0.1,0.1-0.7,0.1-0.8c0-0.3,0.2-0.3,0.5-0.5c0.3-0.2,0.1-0.3,0.3-0.5c0.2-0.2,0.5-0.4,0.8-0.5c0.5-0.2,0.5-1,0.9-1.1
		c0.8-0.2,0.3-0.7,0.3-1.3c0-0.9,0.6-2.3,1.3-2.9c1-0.8,2-1.8,2.6-2.9c0.3-0.5,0.5-0.8,0.6-1.4c0-0.2,0.3-0.5,0.5-0.5
		c0.1,0,0.9-0.4,0.3-0.5c-0.7-0.1-0.9-0.2-1.3-0.7c-0.6-0.6-0.5-1.1-0.5-1.9c0-0.3,0-1.1-0.3-1.3c-0.3-0.3-0.6-0.4-0.8-0.8
		c-0.1-0.3-0.5-0.3-0.6-0.5c-0.6-0.9-0.4-1.7-0.2-2.8c0.1,0.1,0.2,0.1,0.3,0.2c-0.2-0.7,1.4-3.1,1.9-2c-0.2,0.2-1.1,0.6-0.9,0.9
		c0.2,0.3,0.8-0.2,1-0.4c0.2-0.1,0.4-0.2,0.6-0.2c0.3-0.1,0.2-0.4,0.3-0.6c0.3-0.4,0.9-0.6,0.9-1.2c0-0.3,0.5-0.8,0.7-0.9
		c0.3-0.2,1,0,1-0.4c0.1-0.9,0.4-1.6,0.3-2.5c-0.2,0.3-0.4,0.6-0.7,0.8c-0.1,0.1-0.9,0.2-1,0.3c-0.3,0.5,0.9,0.6,1.1,0.2
		c0,0.8-0.6,0.7-1.1,1c-0.3,0.2-0.5,0.5-0.9,0.7c-0.4,0.2,0.1,0.7-0.3,0.8c-0.4,0.1-0.5,0.2-0.9,0.3c-0.5,0-0.2-0.2-0.7-0.3
		c-0.4-0.1-1.1,0.9-1.2,0.2c-0.1,0.2-0.5,0.7-0.7,0.7c-0.2,0-0.9-0.3-1.1-0.4c-0.2,0-0.6,0.6-0.9,0.4c-0.3-0.3,0.5-0.5,0.6-0.6
		c0.4-0.1,0.6-0.3,0.8-0.5c0.1-0.1,0.7,0.3,0.7-0.1c0.1-0.4,0.4-0.1,0.6-0.2c0.3-0.1,0.4-0.6,0.8-0.2c0-0.1,0.1-0.2,0.1-0.3
		c0.4,0.3,0.4-0.2,0.7-0.4c0.1,0.1,0.3,0.2,0.5,0.3c0-0.3,0.2-1.1-0.2-1.2c-0.7-0.3-0.4-0.6-0.2-1.1c0.1,0.2,0.4,1.4,0.8,0.9
		c0.1-0.1,0-0.1-0.1-0.3c-0.2-0.3,0.1-0.1,0.2-0.1c0.1,0,0.3,0,0.4,0c0.2,0,0-0.2,0.1-0.3c0-0.1-0.1-0.2,0-0.3
		c0.1-0.1,0.2-0.3,0.3-0.4c0.2-0.2,0.1-0.6,0.3-0.8c0.1-0.2,0.6-0.3,0.6-0.4c0-0.4,0.1-0.8,0.1-1.2c-0.5,0.4-0.1,1-0.7,1.3
		c-0.2,0.1-0.5,0.2-0.7,0.3c-0.2,0.1-0.2,0.6-0.4,0.6c-0.2,0-0.9-0.1-0.8-0.5c0.1-0.3,0.6-0.2,0.5-0.4c-0.1-0.6,0.7-0.6,0.4-1.3
		c-0.2,0.3-0.4,1-0.9,0.8c-0.5-0.2,0.1-1-0.5-0.9c0.3,0.3,0,0.9,0,1.3c-0.2-0.3-0.4-0.6-0.7-0.7c0,0.4-0.1,0.8-0.1,1.2
		c-0.2-0.4-0.5-0.8-0.4-1.2c0.1-0.4,0.2-0.8,0.2-1.2c-0.8,0.1-0.5,0.7-0.6,1.4c-0.8-0.1-0.5-0.2-0.7-1c0,0.3-0.2,0.4-0.5,0.5
		c-0.3,0.1-0.2,0.3-0.3,0.5c-0.1,0.1-0.5,0.4-0.3,0.6c0.2,0.1,0.4,0.4,0.6,0.3c0.3-0.1,0.7-0.8,1.1-0.4c0.6,0.6-0.5,0.8-0.7,1
		c0,0,0.6,1,0.8,1.1c-0.3-0.2-0.6-0.5-0.8-0.1c-0.1,0.2-0.1,0.6-0.4,0.5c-0.1,0-0.3,0-0.4,0.1c0.1-0.5,0-1,0.4-1.3
		c-0.3,0.1-0.9,0.1-0.9,0.5c0,0.1,0,0.2-0.1,0.3c-0.2,0.1-0.1,0.3-0.1,0.3c-0.3,0.2-0.8,0-0.8,0.4c0,0.2,0.3,0.5,0.3,0.8
		c0,0.3,1.2,0,1.5,0c0.3,0,0.4,0.2,0.6-0.2c0.1-0.2,0.5-0.3,0.8-0.2c-0.1,0.1,0,0.3-0.1,0.4c0.5,0,0.9,0,1.3-0.1
		c-0.6,0.6-1.3,0.7-2.2,0.9c-0.3,0.1-2.7,0.2-1.7,0.7c-0.4,0.2-1.2,0.3-1.3,0.5c0.2,0.1,0.5,0.3,0.6,0.5c-0.7,0-1.5-0.2-2.2-0.2
		c0.4-0.1,0.8-0.3,1.1-0.6c0.1-0.1,0.5-0.1,0.7-0.1c0.2-0.1,0.2-0.4,0.3-0.6c0.1-0.3,0.3-1,0-1.2c-0.3-0.2-1,0-1.2,0.3
		c0-0.1-0.1-0.8,0.1-0.8c0.2-0.1,0.6,0.1,0.7-0.1c0.1-0.4,0.5,0.1,0.5-0.4c0-0.1,0.5-0.2,0.6-0.4c-0.5-0.3-0.1-0.5,0.3-0.5
		c0.3,0,0.3-0.5,0.8-0.4c-0.5-0.1-1.7-0.5-2.1-0.1c-0.5,0.5-0.5,1.2-1.3,1.1c0.5-0.5,0.5-0.7,0.5-1.4c0-0.2,0.1-0.2,0.2-0.3
		c0.2-0.2-0.1-0.2,0-0.3c0.1-0.3,0.2-0.4,0.6-0.5c0.1,1.1,1.3-0.1,1.8-0.4c-0.2-0.1-0.3-0.2-0.5-0.3c0.4-0.2,1.3-0.1,0.8-0.8
		c0.3,0.1,0.5-0.1,0.4-0.4c0.4-0.1,0.8,0.8,0.8-0.1c0-0.2-0.4-0.7-0.7-0.5c-0.4,0.2-1.1,0.5-1.2,1c-0.1,0.7-0.4,0.7-1,0.7
		c0-0.4,0.1-0.7,0.1-1.1c-0.4,0.2-0.4,0.9-0.7,1c-0.5,0.2-0.9,0.3-1.3,0.6c-0.5,0.4-0.8,0.2-0.9,0.9c-0.1,0.7,0.6,0.2,0.8,0
		c0.6,0.4-0.4,0.7-0.7,0.8c-0.2,0.1-0.9,0.9-0.9,0.5c0-0.3,0-1-0.4-1.1c-0.3,0-1.4,1-1.4,1.2c0,0,0-0.1,0-0.1
		c-0.3,0.3-0.3,0.7-0.6,1c-0.3,0.3-1.2,0.9-1,0c-0.5,0.4-1.1,0.7-1.6,1.2c-0.4,0.3-0.3,0.7-0.6,1c-0.6,0.7-1.7,0.8-1.7,1.9
		c-0.9-0.2-1.6-0.7-2.2-1.3c0.2-0.1,0.4-0.2,0.7-0.3c-0.4-0.6-0.9-1.3-1.3-1.9c-0.4-0.6-0.4-1.4-0.6-2.2c-0.1-0.8-0.3-1.4,0.2-2.1
		c0.3-0.4,0.2-0.8,0.2-1.3c0-0.5,0.2-1,0.2-1.6c-0.4,0.1-0.7,0.2-1,0.2c0.3-0.5,0.3-0.8,0.3-1.3c0-0.5-0.6-0.7-0.9-0.4
		c-0.8,0.6-1.4,0.8-2.3,0.5c-0.8-0.3-1.3-1.1-1.9-1.7c-0.1-0.1-0.5-0.3-0.6-0.4c0-0.1,0.3-0.3,0.2-0.5c-0.2-0.5-0.3-0.9-0.4-1.3
		c0.5,0.2,0.4-1.2,0.6-1.6c0.3-0.8,0.6-1.2,1.4-1.2c0.8,0,1.4,0.1,2.2,0.2c0.4,0.1,1.4,0.9,1.7,0.6c0.6-0.6-1-1-1.3-1.1
		c-0.7-0.3-1.2-0.5-1.9-0.3c-1,0.2-3.8-0.2-4.1,1.3c0.1,0,0.6-0.1,0.6,0c0,0,0,0.7,0,0.7c-0.4,0.5-1-0.3-1,0.5
		c0,0.4-0.1,0.9-0.5,1.1c-0.6,0.1-0.4-0.6-0.4-1c-0.8,0.8-1.8,1.2-2.7,2c-0.4,0.4-1,0.6-1.3,0.9c-0.2,0.1-0.3,0.5-0.4,0.7
		c-0.2,0.2-0.7,0.1-0.9,0.2c-0.3,0-0.6,1-0.8,1.2c-0.3,0.4-0.8,0.9-1,1.4c-0.4,1.3-0.3,2.4-0.2,3.7c0.1,1.2,0,2.4,0,3.5
		c0,0.5,0.2,1,0.2,1.4c0,0.6-0.4,1.1-0.4,1.6c0,0.4,0.1,1.3-0.3,1.6c-0.5,0.5-0.9,0.9-1.3,1.5c-0.6,1-0.9,2.1-1.5,3.1
		c-0.6,1-1.4,1.9-2.3,2.7c-0.4,0.3-0.8,0.6-1.1,0.9c-0.5,0.4-1,0.1-1.6,0.2c-0.6,0.1-0.9,0.3-1.5,0.3c-0.6,0-1,0.1-0.9,0.8
		c0.1,0.6,0.2,1.1,0.1,1.7c-0.1,0.6-0.5,1-0.6,1.5c-0.2,1.2-0.2,2.5-0.7,3.5c-0.6,1.1-0.1,2.2-0.3,3.4c-0.2,1.2-0.8,2-1.2,3.2
		c-0.1,0.5-0.7,0.7-0.7,1.1c0,0.6-0.3,1.1-0.5,1.7c-0.1,0.5-0.2,1-0.4,1.4c-0.1,0.2-0.2,0.6-0.3,0.8c-0.2,0.2-0.4,0.4-0.6,0.7
		c-0.2,0.6-0.5,1-0.8,1.5c-0.3,0.4-0.8,0.7-1.1,1.2c-0.4,0.5-0.7,1-1.1,1.4c-0.3,0.4-0.6,1.1-0.9,1.5c-0.3,0.5-0.4,0.9-0.7,1.3
		c-0.3,0.3-0.8,0.9-1.2,1.1c-0.5,0.3-1.1,0.5-1.5,0.9c-0.4,0.4-0.7,1-1.2,1.2c-0.6,0.2-1.1,0.4-1.8,0.4c-0.5,0-0.9,0.8-1.2,1.1
		c-0.4,0.3-0.9,0.7-1.4,0.9c-0.2,0.1-0.6,0-0.7,0.2c-0.2,0.3-0.3,0.5-0.6,0.8c-0.3,0.4-0.3,1-0.6,1.4c-0.1,0.2-0.4,0.3-0.5,0.5
		c-0.1,0.1-0.3,0.2-0.4,0.4c-0.1,0.1,0,0.3-0.1,0.4c-0.3,0.4-0.8,0.8-1.2,1c-0.4,0.2-0.6,1-0.9,1.4c-0.4,0.6-0.7,0.7-1.4,1
		c-0.2,0.1-0.5,0.1-0.8,0.1c-0.2,0-0.6,0.4-0.7,0.6c-1,0.8-1,2-1.6,3.1c-0.2,0.4-0.2,0.4-0.7,0.4c-0.2,0-0.3,0.4-0.4,0.6
		c-0.1,0.1-0.3,0.5-0.5,0.5c-0.4,0-0.6-0.1-0.9,0.2c-0.5,0.5-0.8,0.5-1.5,0.5c-0.5,0-1,0.5-1.5,0.8c-0.8,0.5-1.5,1.2-2.4,1.7
		c-0.3,0.2-0.7,0.9-1,1.2c-0.3,0.4-0.6,0.9-1,1.2c-0.3,0.3-0.9,0.8-0.6,1.4c0.4,0.6,0.9,1.2-0.1,1c-0.8-0.2-1.1-1.1-1.9-0.4
		c-0.5,0.5-0.8,1.2-1.3,1.7c-0.4,0.5-1.2,0.4-1.7,0.7c-0.7,0.3-1.1,0-1.4-0.7c-1,0.7-1.7,1.1-2.9,1.2c-0.2,0-0.4,0-0.6,0
		c-0.5,0-0.3,0-0.5,0.3c-0.1,0.1,0,0.2-0.1,0.3c-0.1,0.1-0.2,0.2-0.4,0.4c-0.2,0.2-0.2,0.5-0.1,0.7c0,0.1-0.7,0.8-0.8,1.1
		c-0.2,0.5-0.6,0.8-1,1.1c-0.4,0.3-0.7,0.6-1,1c-0.3,0.5-0.8,0.6-1.3,0.8c0.2,0.5,1.1,0.3,1.1,0.9c0,0.8-0.6,0.7-1.2,0.7
		c-0.8,0-0.2,0.6-0.7,1c-0.1,0.1-0.7,0.3-0.8,0.4c-0.1,0.2-0.2,0.5-0.4,0.8c-0.4,0.5-0.7,0.6-0.8,1.3c0,0.1,0,0.3-0.1,0.4
		c0,0.1-0.3,0.1-0.3,0.1c-0.1,0.2,0,0.6,0,0.9c0,0.8-0.2,1.2,0.5,1.6c0.4,0.3,1.2,0.9,0.9,1.5c-0.2-0.8-0.3-0.8-1-1
		c-0.8-0.3-0.7-0.3-0.9-1.1c-0.3,0.2-0.4,0.6-0.7,0.8c-0.1,0.1-0.3,0-0.4,0c-0.2,0.1-0.3,0.2-0.5,0.3c-0.1,0.1-0.7,0.7-0.7,0.8
		c0,0.3,0.6,0.3,0.3,0.8c-0.3-0.2-0.5-0.6-0.8-0.4c-0.4,0.3-0.4,0.4-0.5,0.9c-0.1,0.5,1.4,1,1,1.8c-0.2-0.2-0.7-0.9-1-0.9
		c-0.6,0-1.2,0.1-0.7,0.8c0.2,0.3,1,0.6,0.5,1c-0.5,0.4-0.3,0.7-0.3,1.3c-0.5-0.4-0.4-0.4-0.3-1c0.1-0.6,0.3-0.6-0.3-1.1
		c-0.5-0.4-1.7,0.4-1.9,1c-0.1,0.5,0.4,1.8,0.6,2.2c0.1,0.2,0.8,0.9,0.7,1.1c-0.1,0.3-0.7,0.5-0.9,0.7c0.2-0.6,0.2-1-0.5-1.1
		c0.6-0.8,0-1.6-0.6-2.2c-0.2,0.3-0.3,0.3-0.6,0.5c-0.6,0.3-0.1,0.4-0.5,0.8c-0.1,0.1-0.2,0.2-0.3,0.3c-0.1,0.1,0.1,0.3-0.1,0.4
		c-0.4,0.2-0.2,0.5-0.6,0.7c-0.7,0.4-0.5,1.1,0.2,1.1c0.3,0,0.5,0.4,0.8,0.4c0.4,0,0.7,0,1,0.3c-0.9,0.2-2.1-0.1-3-0.4
		c-0.3-0.1-0.2,1.1,0,1.3c0.5,0.5,0.9,0.4,1.6,0.5c-0.2,0.2-0.8,0.2-0.8,0.3c-0.1,0.4,0,0.6,0.4,0.7c-0.3,0.7-1.4-1.4-1.7-1.7
		c-0.2,0.2-1,0.9-0.3,1.1c0.5,0.1,0.5,1.2,1.2,1.4c-0.7,0.3-1.4-1.7-2-1.2c-0.3,0.3,0,2,0.1,2.3c0.1,0.4,0.3,0.7,0.5,1
		c0.3,0.5,0.5,0.3,1.1,0.2c0.3-0.1,0.6-0.6,0.8-0.3c0.2,0.3,0.6,0.7,0.4,1c-0.4-0.4-0.8-0.6-1.4-0.4c-0.3,0.1-0.6,0.1-0.8,0.3
		c-0.1,0.1-0.2,0.6-0.1,0.6c1.2,0.4,1.6,1.4,2.1,2.5c-0.6,0.1-1.2-1.3-1.6-1.7c-0.6-0.6-1.3-0.9-1.9-1.5c0.2,0,0.9,0.1,0.9-0.1
		c0-0.4-0.1-0.6-0.3-0.9c-0.4-0.8-0.4-1.3-0.4-2.2c-0.7-0.1-0.6,0.8-1,1.3c-0.3,0.5-0.3,0.3-0.1,0.7c0.1,0.2,0.6,0.6,0.6,0.8
		c0,0.3-0.4,0.4-0.6,0.4c-0.5-0.1-0.5-0.2-0.7,0.3c-0.3,0.6-0.6,1.2-0.9,1.9c0.4,0.1,1,0.5,1.3,0.1c0.1,0.3,0.8,1.5,1.2,0.9
		c0.2-0.3,0.3-0.5,0.6-0.6c0.3,0,0.7-0.2,0.7,0.2c-0.2,0-0.6-0.1-0.7,0c-0.1,0.2-0.4,0.6-0.6,0.7c-0.6,0.2-1.1-0.4-1.5-0.6
		c-1.5-0.5-1.6,1.5-1.4,2.5c-0.7-0.2-0.5,1.1-0.5,1.5c0.2,0,0.7,0,0.9-0.1c0.4-0.3,0.7-0.6,1.3-0.6c0.3,0,1.1-0.6,1.3-0.7
		c0.5-0.3,0.9-0.7,1.3-1c0,1-0.8,1.1-1.5,1.6c0.5,0,0.9,0,1.4,0.1c-0.5,0.1-0.9,0.2-1.4,0.4c-0.4,0.1-0.7,0-1.1,0.2
		c-0.4,0.3-0.8,0.5-1.1,0.8c-0.3,0.3,0.1,1,0.1,1.3c0.6-0.1,1.2-0.2,1.7-0.6c0.3-0.2,0.2-0.4,0.5-0.5c0.4-0.1,0.8-0.3,1.2-0.4
		c-0.2,0.7-0.5,0.8-1.2,1.1c-0.6,0.2-1.8,0.5-2,1.1c-0.4,1,0.9,0.4,1.2,0.4c0.7,0.1,1.5,0,2.2,0.2c-0.8,0.2-1.3,0.4-1.4,1.3
		c-0.4-0.1-1.1-0.4-1.5-0.1c-0.5,0.4-0.9,0.3-1.4,0.5c-0.3,0.1-0.5,0.1-0.6,0.4c-0.2,0.3-0.2,0.5-0.5,0.4c-0.5-0.3-1-0.2-1.6,0
		c-0.6,0.2-0.7,1-0.8,1.4c-0.1,0.9,0.1,1,0.4,1.8c0.2,0.4,0,1.2,0.2,1.5c0.3,0.5,1-0.2,1.3-0.5c-0.2,0.6,0.5,0.4,0.5-0.1
		c0.1-0.4,0.5-0.9,0.7-1.3c0.2-0.3,0.2-0.7,0.3-1c0.2-0.5,0.3-0.5,0.8-0.7c-0.4,0.6-0.6,1.4-0.8,2c0.8,0.3,1.2,0.1,1.8-0.4
		c0.3,0.6-1.6,1-2,1.2c-0.5,0.4-0.3,0.6-0.4,1.2c-0.1,0.4-0.2,0.9-0.4,1.3c0.2-0.2,0.5-0.3,0.7-0.5c0.2-0.2,0.4,0.1,0.6,0
		c0.1-0.1,0.2-0.6,0.4-0.7c0.2-0.2,0.4-0.4,0.6-0.5c0.3-0.3,0.4-0.3,0.4-0.7c0-0.3,0.1-0.4,0.4-0.5c0.9-0.3,1.2-0.9,1.9-1.5
		c-0.2,0.4-0.3,0.9-0.6,1.3c-0.2,0.2-0.1,0.3-0.4,0.4c-0.2,0-0.7,0-0.8,0.2c-0.1,0.4-0.2,0.4-0.1,0.7c0.1,0.3,0.3,0.5-0.1,0.5
		c0,0-0.7,1-0.9,1.1c-0.4,0.3-0.4,0.9-0.7,1c-0.7,0.2-0.1,0.7,0.1,1c0.3,0.5,0.5,0.4,1.1,0.4c0.5,0,0.9,0.2,1.4,0.3
		c-0.2-0.6,1.3-0.4,1.7-0.4c0.6,0,1.2,0.1,1.7,0.2c0.8,0.1,1.5,0.2,2.4,0.2c0.4,0,0.6,0.1,0.9-0.2c0.3-0.2,0.8-0.2,1.1-0.2
		c1,0.1,0.6-0.3,0.7-1.1c0.1-0.8,0.8-1.1,1.5-1.3c0.5-0.2,1.3,0.3,1.8,0.5c0.3,0.1,0.3,0.5,0.7,0.2c0.3-0.2,0.4-0.5,0.6-0.9
		c0.2,0.3-0.4,1.3-0.2,1.5c0.4,0.3,0.8,0.6,1.3,0.9c0.8,0.6-0.1,0.8-0.2,1.3c-0.1,0.4,0.3,0.6,0.6,0.8c0.2,0.1,1,0.9,1.3,0.8
		c0.1-0.1,0.2-0.5,0.3-0.6c0.2-0.1,0.5,0.4,0.7,0.4c0.5-0.1,0.6-0.6,1.2-0.6c0.5,0,0.9,0.3,1.4,0.5c-0.1-0.8,0.2-1.4,1.1-1.1
		c1,0.3,1.4,0.9,1.9,1.7c0.2,0.3,0.9,2.2,1.2,1c0-0.1,0-0.3,0-0.4c0.1-0.2,0.3-0.1,0.3-0.3c0-0.5,0.1-0.9,0.1-1.4
		c0.2,0.6,0.2,1.7,0.9,2.1c-0.4,0.4-0.7,0.7-1.2,0.9c0.6,0.2,1.9,1,2.3,0c0.1-0.3-0.2-1,0.2-1c0.5,0,1,0,1.4,0.1
		c-0.2,0.4-0.8,1.5,0.2,1.5c0.6,0,0.8-0.1,1.3-0.4c0.3-0.2,0.2-0.8,0.4-0.9c0.2-0.1,0.6-0.1,0.9-0.1c0.7-0.1,0.4,0.7,0.3,1
		c-0.1,0.6,1,0.6,1.2,1.1c0.2,0.4,0.3,0.6,0.4,1.1c0,0.2,0.8,0.1,1,0.1c0.6,0,1.5,0.2,2,0.1c0.4-0.1,1.8-0.2,1.7-0.7
		c-0.1-0.3-0.1-0.7,0.3-0.8c0.3-0.1,0.2,1,0.2,1.1c0.3,0.5,1-0.1,1.3-0.3c0.6-0.7,0.7-0.2,1.4-0.2c0.5,0,1.1-0.5,1.5-0.6
		c0.2-0.1,0.2-0.3,0.2-0.5c0-0.4,0.2-0.3,0.5-0.5c-0.1,0-0.2,0-0.3-0.1c0.1,0.1,0.7,0,1,0c0.5,0,0.6,0.2,1,0.5
		c-0.1-0.9,0.4-0.9,1.1-1.3c0.3-0.2,0.5-0.4,0.6-0.7c0.2-0.5,0.1-0.5-0.5-0.7c0.4-0.2,3-0.1,1.9-1.4c-1-1.2,0.6-1.6,1.3-2.3
		c0.4-0.4,0.6-0.8,1.1-1.1c0.5-0.3,0.7-0.7,1.2-1.1c0.9-0.8,2.2-1.5,2.3-2.8c0.1-1.2,0.3-2,1-3c0.4-0.6,0.7-0.9,1.3-1.2
		c0.2-0.1,0.5-0.1,0.8-0.1c0.3,0,0.6-0.2,0.9-0.4c1-0.5,2.3-0.3,3.3-0.7c0.1-0.1,0.1-0.2,0.3-0.2c0.1,0,0.3,0,0.4,0
		c0.1-0.1,0.5-0.3,0.5-0.4c-0.1-0.3-0.3-0.4-0.4-0.6c-0.1-0.3,0.1-0.7,0.2-0.9c0-0.1,0.1-0.3,0.1-0.4c-0.3,0.2-0.5,0.4-0.8,0.6
		c-0.2,0.1-0.3,0-0.5,0.1c-0.1,0-0.1,0.5-0.2,0.6c-0.5,0.8-1.2,1-2,1.1c0.1-0.5,0.7-0.4,0.9-0.8c0.2-0.3,0-0.6,0.5-0.6
		c-0.7-0.2,0.3-0.6,0.7-0.8c0.6-0.2,0.7-0.7,0-0.7c-0.6,0-0.6-0.6-1.2-0.5c-0.4,0.1,0.5-1,0.5-1c0.4-0.5,0.5-0.7,0.6-1.3
		c-0.9,0,0.4-0.5,0.6-0.6c0,0-0.1,0-0.1,0c0.4-0.3,0.5-0.6,0.6-1.1c0.1-0.5,0.2-0.6,0.6-1c0.3-0.3,0.5-0.7,0.8-1.1
		c0.1-0.1-0.3-0.5-0.3-0.7c0.2-0.7,0.9-1.2,0.9-1.9c0-0.2-0.5-0.5-0.6-0.7c-0.1-0.3,0-0.6,0.1-0.9c0.1-0.8,0.5-1.4,0.7-2.2
		c0.1-0.3,0.2-0.7,0.5-0.9c0.2-0.2,0.7-0.5,0.7-0.8C71.1,245.8,72.8,244.5,73.4,243.4"/>
	<path id="Fill-48" class="st3" d="M4,265.9c0-1.2-0.2-3.4-1.7-2.8c-0.4,0.1-0.5,0.2-0.7,0.6C1.4,264,1.2,264,1,264.4
		c-0.2,0.4-0.4,0.5-0.4,1.1c0,0.5-0.4,0.9-0.7,1.3c0.4,0.5,0.9-0.3,1-0.6c0.3-0.6,0.3-0.9,0.3-1.6c0.1,0.4,0.1,1,0.3,1.3
		c0.2,0.2,0.2,0.3,0.5,0.4c0.4,0.2-0.1,0.4,0.1,0.6c0.1,0.1,0.5,0.1,0.5,0c0.2-0.4,0.3,0,0.5-0.3c0.4-0.5-0.5-0.7,0.1-1.2
		c0.2,0.2,0.1,0.3,0.1,0.5C3.5,265.9,3.9,265.9,4,265.9"/>
	<path id="Fill-50" class="st3" d="M0.9,266l-0.5,0.1L0,266.7l0.5,0.3c0,0,0.6-0.2,0.8-0.2c0.2,0,0.8-0.1,0.8-0.1l-0.6-0.6L0.9,266z
		"/>
	<polygon id="Fill-52" class="st3" points="3.3,274 3.7,274 4,274.4 3.6,274.9 3.3,275 3,274.7 	"/>
	<path id="Fill-54" class="st3" d="M34.8,288c0-0.2,0-0.4,0.1-0.6c0.1-0.2,0.1-0.7,0.1-0.9c0-0.2-0.2-0.5-0.2-0.5l-0.3,0.6l-0.4,0.2
		c0,0-0.2,0.6,0,0.6c0.2,0,0.4,0,0.4,0L34.8,288z"/>
	<path id="Fill-56" class="st3" d="M23.1,286.8c-0.3-0.1-0.6-0.1-0.9,0c-0.2,0-0.3,0.6-0.3,0.8c-0.1,0.4-0.1,0.7-0.1,1.1
		c0.1,0.4,0.5,0.8,0.7,1.2c0.3,0.6,0.4,1.4,0.2,2.1c-0.1,0.4-0.3,0.4-0.6,0.6c-0.2,0.2-0.5-0.2-0.7-0.4c0,0.5,0.1,0.9,0.4,1.3
		c0.2,0.2,0.6,0.7,0.3,0.9c-0.2,0.1-0.5,0-0.7,0.1c-0.6,0.1-0.8,0.4-1.1,1c-0.1,0.2,0.1,0.3,0.2,0.5c0.1,0.3,0.1,0.6,0.1,0.8
		c0,0.3-0.1,0.4-0.3,0.7c-0.1,0.2-0.4,0.2-0.5,0.4c-0.1,0.1-0.1,0.3-0.2,0.4c0,0.1-0.2-0.1-0.3,0.1c-0.3,0.4-0.3,0.8-0.3,1.3
		c0,0.3,1.3,0.5,1.5,0.4c0.1-0.1,0.4-0.7,0.3-0.8c-0.2-0.2-0.5-0.4-0.4-0.7c0.2,0.3,0.2,0.4,0.6,0.3c0.3-0.2,0.1-0.4,0.2-0.7
		c0.1-0.3,0.6-0.5,0.8-0.7c0.2-0.3,0.5-0.2,0.8-0.3c0,0.1,0.1,0.2,0,0.3c0.5-0.2,2.1,0.4,2.3-0.2c0.1-0.3,0.4-0.5,0.5-0.8
		c0.1-0.4,0.8-0.4,1.1-0.5c0.1-0.1,1-0.2,1-0.3c0.1-0.2,0.9,0,1.1-0.2c0.3-0.1,0.2-0.4,0.3-0.7c0-0.1,0.7,0,0.8-0.1
		c-0.2-0.1-0.5-0.2-0.6-0.4c-0.3-0.4,0-0.3,0.3-0.3c-0.3-0.5,0.6-0.5,0.1-1.1c-0.2-0.3-0.6-0.7-0.9-0.7c-0.4,0-0.5,0.4-0.9,0.5
		c-0.1,0-0.4-0.1-0.4-0.1c-0.1-0.3,0.5-0.4,0.6-0.4c-0.3-0.1-0.5-0.2-0.8-0.3c-0.3-0.1-0.5-0.4-0.8-0.5c-0.3-0.1-0.6,0.3-0.8,0.5
		c-0.1,0.1-0.3,0.5-0.3,0.5c-0.2-0.1-0.3-0.1-0.5-0.2c0.2-0.3,0.6-0.5,0.7-0.8c0.1-0.4,0.1-0.8,0.3-1.2c0.3,0.4,0.4,0.8,1,0.8
		c0-0.3,1.2-0.2,1.4-0.2c0.2,0,0-0.9-0.1-0.9c-0.6,0.1-0.6-0.1-1-0.5c-0.3-0.3-0.7-0.6-1-0.9c-0.2-0.2-0.2-0.2-0.3-0.6
		c0-0.1,0-0.5,0-0.5c-0.3-0.3-0.6-0.6-0.9-0.9c-0.2-0.2-0.8-0.3-1.1-0.4C23.6,285.8,23.4,286.5,23.1,286.8"/>
	<polygon id="Fill-58" class="st3" points="20.9,289 20.5,289 20,288.7 20,288.1 20.6,288 21,288.4 	"/>
	<path id="Fill-60" class="st3" d="M18.5,298.9l-0.4,0.1l-0.1-0.5l0.3-0.5c0,0,0.9,0.1,0.6,0.1C18.7,298.2,18.5,298.9,18.5,298.9"/>
	<path id="Fill-62" class="st3" d="M250.5,223.8c-0.4,0.1-0.1,0.3-0.1,0.5c0,0.4-0.2,0.4-0.5,0.3c-0.1,0-0.3,0-0.4,0.1
		c0,0-0.1,0.1-0.2,0.1c-0.1,0.1,0.1,0.1,0,0.2c0,0.1-0.1,0.1-0.1,0.2c0,0.1-0.2,0.1-0.3,0.1c0.1,0,0.1,0.1,0.2,0.1
		c0.2,0,0,0.1,0,0.2c0,0-0.1,0.1,0,0.1c0.1,0,0.2,0.1,0.3,0.1c0.1,0,0.1,0.1,0.2,0c0-0.1,0.2,0,0.3,0c0.2,0,0.4,0,0.7,0
		c-0.1-0.1-0.1-0.2-0.1-0.3c0.2,0,0.3,0.1,0.5,0.2c0.1,0,0.1,0.1,0.2,0c0.1-0.1,0.1,0,0.2,0c0.2,0,0.3,0.2,0.5,0
		c0.1-0.1-0.1-0.2,0-0.3c0.1,0.1,0.2,0.1,0.2,0.2c0.1-0.1,0-0.3,0.2-0.3c0.1-0.1,0.2,0.3,0.3,0c0,0,0.1,0.2,0.1,0.2
		c0.1,0,0.1-0.1,0.2-0.1c0,0,0,0.1,0,0.1c0,0.1,0.1,0,0.1,0c0.1,0.1,0.3,0,0.4,0.1c0.1,0.2,0.3,0.4,0.4,0.6c0.2,0.3,0.2,0.5,0.4,0.8
		c0.1,0.1,0.1,0.2,0.1,0.4c0,0.1,0,0.1,0,0.2c0,0.1,0.1,0.1,0.1,0.2c0,0.2,0.1,0.7-0.2,0.8c-0.3,0.1-0.2-0.3-0.5,0
		c-0.2,0.2-0.4,0.4-0.6,0.5c-0.1,0-0.3,0.1-0.3,0.1c-0.1,0.1-0.2,0.2-0.3,0.2c-0.3,0.1-0.6,0.1-0.5,0.5c0.1,0.3,0.3,0.4,0.3,0.7
		c0,0.1,0,0.2-0.1,0.3c-0.1,0.1,0.1,0.1,0.2,0.2c0.2,0.4,0,1,0.6,1c0.3,0,0.5,0.1,0.8,0c0,0,0.2-0.2,0.2-0.2
		c0.1-0.1,0.2-0.2,0.2-0.3c0,0,0.3-0.1,0.3-0.1c0.1,0,0.1-0.1,0.2-0.1c0.1,0,0.1-0.1,0.1-0.2c0.1-0.1,0.2-0.1,0.4-0.2
		c0.1,0,0.2-0.1,0.4-0.2c0.1,0,0.3,0,0.4,0c0.2,0,0.3-0.2,0.5-0.2c0.2,0,0.3,0.1,0.5,0.1c0,0,0.1-0.1,0.2-0.1c0.1,0,0.2,0.1,0.2,0.1
		c0-0.3,0-0.3-0.3-0.5c-0.3-0.1-0.5-0.2-0.7-0.4c-0.3-0.5-0.3-1.2-0.3-1.7c-0.2,0.1-0.2,0.5-0.3,0.7c-0.1-0.2-0.3-0.1-0.5-0.2
		c-0.3-0.1-0.3-0.3-0.1-0.6c0.2-0.4-0.5-0.8-0.6-1.2c0-0.1,0-0.5,0-0.6c0.1-0.1,0.4-0.1,0.3-0.3c0,0,0.3-0.2,0.3-0.2
		c0,0,0.5-0.2,0.6-0.2c-0.1-0.1-0.2-0.2-0.4-0.2c-0.1,0-0.1,0.1-0.2,0c-0.1-0.1-0.1-0.1-0.2-0.1c-0.1,0-0.3,0-0.4-0.1
		c-0.1-0.1-0.2-0.3-0.3-0.4c-0.1-0.1-0.2-0.3-0.1-0.4c0,0,0.2-0.4,0.2-0.4c0.1-0.1,0.4,0,0.5,0c0.1,0,0.1,0.1,0.2,0.2
		c0,0.1,0,0.2,0,0.2c0.1,0.1,0.3-0.1,0.4-0.1c0.2,0,0.3,0,0.5,0c0.3,0,0.8,0.4,0.9,0.6c0.1,0.3,0.4,0.7-0.1,0.7
		c-0.2,0-0.2,0.2-0.2,0.3c-0.1,0.1-0.2,0.2-0.3,0.3c-0.1-0.1-0.1-0.1-0.2-0.2c-0.1,0.2,0.1,0.5,0.1,0.8c0,0.3-0.1,0.6-0.3,0.8
		c0.1,0,0.2,0.1,0.2,0.2c0-0.8,0.5-1.7,1.1-2.3c0.3-0.4,0.4-0.7,0.9-0.9c0.2,0,0.5-0.1,0.6-0.1c0.2,0,0.2,0.2,0.5,0.2
		c-0.1-0.2-0.1-0.3,0.1-0.5c0.1-0.1,0.2,0,0.3,0c0-0.1,0.2,0,0.3,0c0-0.1-0.1-0.2-0.1-0.4c-0.1,0.1-0.2,0.1-0.4,0.1
		c-0.2,0-0.3-0.1-0.5-0.1c0,0.2-0.2,0-0.3-0.1c0.1,0.4-0.5,0.3-0.7,0.3c-0.3,0-0.7,0-1,0c-0.3,0-0.7,0-1,0c-0.4-0.1-0.6-0.2-0.8-0.6
		c-0.2,0.2-0.7-0.1-0.9-0.2c-0.1-0.1-0.3-0.1-0.4-0.2c0-0.1-0.3-0.1-0.4-0.2c-0.2-0.2-0.4-0.1-0.5,0.1c-0.1,0.2,0,0.8-0.4,0.7
		c0.1,0.1,0.2,0.1,0.3,0.1c-0.1,0.2-0.3,0-0.5,0c-0.2,0-0.5,0.2-0.6,0.2C251.6,224.2,250.5,224.4,250.5,223.8"/>
	<polygon id="Fill-64" class="st3" points="257.1,230 257.1,229.9 256.9,229.9 256.9,230 257,230.1 	"/>
	<polygon id="Fill-66" class="st3" points="254,230.9 253.9,230.9 253.9,231.1 254.1,231 	"/>
	<polygon id="Fill-68" class="st3" points="256,224.9 256,225 256,225.1 256,224.9 	"/>
	<polygon id="Fill-70" class="st3" points="256.1,225 256,224.9 256,225 255.9,225.1 	"/>
	<polygon id="Fill-72" class="st3" points="255.9,225 256,224.9 256,224.9 256.1,225 256,225.1 	"/>
	<polygon id="Fill-74" class="st3" points="256,226.9 255.8,226.9 255.8,227 255.9,227.1 256,227.1 256.1,227.1 256.1,226.9 
		256.2,226.9 256.1,226.9 	"/>
	<g id="Group-78" transform="translate(259.000000, 223.000000)">
		<g id="Clip-77">
		</g>
		<defs>
			<filter id="Adobe_OpacityMaskFilter_1_" filterUnits="userSpaceOnUse" x="-0.2" y="-0.3" width="1.1" height="1.3">
				<feColorMatrix  type="matrix" values="1 0 0 0 0  0 1 0 0 0  0 0 1 0 0  0 0 0 1 0"/>
			</filter>
		</defs>
		<mask maskUnits="userSpaceOnUse" x="-0.2" y="-0.3" width="1.1" height="1.3" id="mask-4_1_">
			<g class="st4">
				<polygon id="path-3_1_" class="st1" points="0.3,0.2 0.4,0.2 0.4,0.4 0.3,0.4 				"/>
			</g>
		</mask>
		<polygon id="Fill-76" class="st5" points="0.3,0.4 0.4,0.4 0.4,0.3 0.4,0.2 		"/>
	</g>
	<polygon id="Fill-79" class="st6" points="248,224.9 247.9,224.9 247.9,225 248,225.1 248.1,225 248.1,224.9 	"/>
	<polygon id="Fill-81" class="st6" points="249.9,219 250,219.1 250.1,219.1 250.1,219 250,218.9 	"/>
	<polygon id="Fill-83" class="st6" points="250.1,219 250,218.9 249.9,218.9 250,219 250,219.1 	"/>
	<polygon id="Fill-85" class="st6" points="260,236.1 260.1,236 260.1,235.9 260,235.9 259.9,235.9 259.9,236.1 	"/>
	<polygon id="Fill-87" class="st6" points="259,237 258.9,237.2 258.9,237.3 258.8,237.5 258.9,237.6 259,237.7 259,237.8 
		259.1,238 259.1,237.8 259.1,237.6 259.2,237.4 259.1,237.3 	"/>
	<polygon id="Fill-89" class="st6" points="258.1,239.1 258,238.9 257.9,239 	"/>
	<polygon id="Fill-91" class="st6" points="257.9,238.1 258,238.1 258.1,237.9 258,237.9 	"/>
	<polygon id="Fill-93" class="st6" points="258.1,238.1 258,238.1 257.9,237.9 258.1,237.9 	"/>
	<polygon id="Fill-95" class="st6" points="256.1,235.9 256,235.9 255.9,236 255.9,236.1 256,236.1 	"/>
	<polygon id="Fill-97" class="st6" points="258,234.9 258,235.1 258,235.1 258,234.9 	"/>
	<polygon id="Fill-99" class="st6" points="256.9,236.1 257.1,236 257,235.9 256.9,235.9 256.9,236 	"/>
	<polygon id="Fill-101" class="st6" points="257.1,235.1 257,235.1 256.9,235.1 256.9,235 256.9,235 257.1,234.9 	"/>
	<polygon id="Fill-103" class="st6" points="256.8,235.2 256.9,235.2 257.1,235.1 257.2,235 257.1,234.8 257,234.8 256.9,234.9 
		256.8,235 	"/>
	<path id="Fill-105" class="st6" d="M258.1,234.3c0.2,0,0.4,0.1,0.6,0c0.2-0.1,0.3-0.4,0.5-0.2c0.3,0.3,0.4,0.9,0.8,0.9
		c0,0.1-0.1,0.3-0.1,0.3c-0.1,0.1-0.3,0.1-0.4,0.2c-0.1,0.1-0.2,0.2-0.3,0.3c-0.1,0.1-0.1,0.1-0.1,0.2c0,0.1,0.1,0.1,0.1,0.1
		c0,0.1-0.2,0.2-0.2,0.3c-0.2,0.2-0.1,0.1-0.3,0.2c-0.1,0-0.5,0.8-0.6,0.1c0.2,0,0.1-0.3-0.1-0.3c0.1-0.3,0.2-0.4,0.1-0.7
		c0-0.1,0.1-0.1,0-0.3c0-0.1-0.2,0.1-0.1-0.1c0.1-0.2,0.3,0,0.4-0.2C258.7,234.6,258.2,234.5,258.1,234.3
		C258,234.3,258.1,234.3,258.1,234.3"/>
</g>
</svg>
