<?xml version="1.0" encoding="UTF-8"?>
<svg width="386px" height="300px" viewBox="0 0 386 300" version="1.1" xmlns="http://www.w3.org/2000/svg" xmlns:xlink="http://www.w3.org/1999/xlink">
    <!-- Generator: Sketch 64 (93537) - https://sketch.com -->
    <title>112</title>
    <desc>Created with Sketch.</desc>
    <g id="112" stroke="none" stroke-width="1" fill="none" fill-rule="evenodd">
        <g id="Group-5">
            <path d="M385.2303,182.04 L359.4163,181.841 L315.7343,166.975 L282.3723,155.522 C282.3723,155.522 274.2253,148.288 273.8293,147.484 C273.4313,146.68 270.0623,146.473 270.0623,146.473 L267.4743,141.451 L264.1063,137.241 L259.1453,132.02 C259.1453,132.02 258.5483,129.808 258.5483,129.004 C258.5483,128.2 254.9653,125.589 254.9653,125.589 C254.9653,125.589 252.5903,122.768 251.7963,121.562 C251.0013,120.357 251.9953,118.746 251.9953,118.746 L250.0043,114.933 L250.2043,111.917 C250.2043,111.917 252.1963,108.062 252.9913,107.661 C253.1893,107.56 253.5883,106.319 253.5113,105.992 C254.0243,105.771 255.2173,105.693 255.5783,105.226 C255.6973,104.705 255.6783,103.069 255.5013,102.791 C255.3253,102.514 252.1943,102.776 252.1943,102.776 L251.3683,100.74 L249.0093,100.862 C249.0093,100.862 249.0053,100.861 249.0043,100.861 C248.9693,100.853 247.5523,100.521 246.4733,100.62 C246.4713,100.62 246.4703,100.62 246.4683,100.62 C246.2013,100.645 245.9573,100.697 245.7573,100.787 C245.7363,100.797 245.7143,100.808 245.6943,100.818 C245.6043,100.865 245.5223,100.918 245.4583,100.984 L245.4583,100.985 C245.4573,100.985 245.4573,100.986 245.4563,100.986 C245.3703,101.076 245.2693,101.165 245.1653,101.253 C245.1273,101.284 245.0903,101.315 245.0523,101.345 C244.9843,101.399 244.9123,101.452 244.8383,101.504 C244.3583,101.845 243.7803,102.152 243.2523,102.363 L243.2713,102.363 C242.8243,102.542 242.4093,102.654 242.1203,102.654 C241.7223,102.654 237.0843,102.681 235.2913,102.685 C234.0823,103.198 233.2273,103.791 232.6723,104.323 C231.0683,104.282 226.6563,103.328 226.6563,103.328 C226.6563,103.328 226.6883,102.888 226.7143,102.363 L226.7173,102.363 C226.7283,102.148 226.7353,101.925 226.7413,101.707 C226.7453,101.556 226.7483,101.41 226.7483,101.276 C226.7483,101.227 226.7483,101.168 226.7473,101.103 C226.7473,101.073 226.7463,101.036 226.7463,101.003 C226.7463,100.975 226.7463,100.949 226.7453,100.918 C226.7313,99.759 226.6653,97.028 226.5803,96.04 C226.4913,95.019 226.3803,92.365 226.3803,92.365 C226.3803,92.365 226.7483,84.993 226.9473,84.189 C227.1453,83.385 229.9483,81.785 229.9483,81.785 C229.9483,81.785 234.7423,74.964 235.3363,74.16 C235.9323,73.356 238.0943,70.327 238.6903,69.322 C239.2863,68.317 241.8593,64.3 241.8593,64.3 L241.2783,63.091 C241.2783,63.091 238.6123,59.78 238.0163,58.574 C237.4203,57.368 235.1673,55.146 234.3733,54.945 C233.5783,54.744 229.9473,53.253 229.7493,52.45 C229.5503,51.646 226.9763,46.013 226.5803,45.009 C226.1823,44.004 219.4263,39.183 218.2353,38.379 C217.0433,37.575 212.0773,34.165 210.8853,32.959 C209.6943,31.753 206.5493,24.982 205.4973,24.109 C204.4833,22.366 200.8933,19.229 199.7403,18.934 C199.7403,18.934 195.1753,18.033 193.9373,17.556 C193.2393,17.288 187.0623,12.458 187.0623,12.458 L183.6933,10.651 L177.9213,11.447 L174.5533,10.054 L172.4713,10.176 C172.4713,10.176 170.1643,9.869 168.7963,8.079 C166.3283,9.589 162.8383,10.651 162.0443,10.651 C161.6473,10.651 160.8003,12.299 160.1303,11.646 C159.4603,10.993 158.9593,8.037 158.8593,7.635 C158.6613,6.831 155.8133,6.364 155.8133,6.364 C154.7933,6.364 154.7093,7.459 154.5113,8.263 C154.3133,9.066 148.2233,11.61 147.4533,11.416 C145.8003,11.002 143.6673,12.338 142.3853,12.458 C139.6103,12.718 138.0063,10.039 138.0063,10.039 C138.0063,10.039 135.6783,6.28 135.4803,5.476 C135.2813,4.672 133.3673,5.369 133.3673,5.369 C133.3673,5.369 129.2783,4.215 128.8813,3.21 C128.4843,2.206 126.4623,0.5 126.4623,0.5 C126.4623,0.5 122.4593,9.136 122.2673,9.916 C122.0683,10.72 118.3163,19.953 117.7963,20.649 C117.3003,21.312 114.3143,17.044 113.8923,15.688 C113.6933,15.052 111.7793,12.244 111.7793,12.244 L107.5683,11.784 C107.5683,11.784 105.7733,12.037 105.4253,12.948 C105.1373,13.698 105.5673,15.611 104.6283,16.255 C104.6283,16.255 101.6593,16.34 101.3373,15.214 L91.9513,15.474 L90.7573,20.496 C90.7573,20.496 89.9613,23.918 89.9613,24.722 C89.9613,25.525 90.5583,27.323 90.5583,29.131 C90.5583,30.939 89.7623,31.144 89.7623,31.948 C89.7623,32.752 88.3823,34.366 87.5873,34.566 C86.7933,34.768 85.3973,39.177 85.0003,40.584 C84.6033,41.99 82.8113,45.009 82.8113,45.009 C82.8113,45.009 81.6323,50.235 81.6323,51.24 C81.6323,52.245 82.4133,54.861 82.4133,55.665 C82.4133,56.469 82.2133,58.268 82.2133,58.268 C82.2133,58.268 79.6403,57.67 78.8453,57.67 L71.0983,57.67 C71.0983,57.67 62.7693,69.116 62.5703,69.919 C62.3713,70.723 59.7823,76.756 59.3853,77.56 C58.9883,78.363 53.6283,79.971 53.6283,82.382 C53.6283,84.793 55.0223,86.599 55.4193,87.603 C55.8173,88.608 54.0263,90.015 54.0263,90.818 C54.0263,91.622 51.2413,95.037 51.6383,95.84 C51.7373,96.041 51.8063,96.3 51.8533,96.575 L51.8523,96.575 C51.8703,96.679 51.8843,96.784 51.8973,96.89 C51.8973,96.891 51.8973,96.891 51.8973,96.892 C51.9703,97.525 51.9533,98.164 51.9463,98.336 L51.9463,98.343 C51.9453,98.366 51.9443,98.382 51.9443,98.382 L49.9693,103.511 C49.9693,103.511 50.2953,104.29 51.1483,105.731 C50.6913,106.548 48.8503,109.431 48.0553,110.034 C47.2613,110.636 46.2643,110.6 46.2643,110.6 C46.2643,110.6 42.4353,106.126 41.3183,106.099 C39.7443,106.061 37.2873,109.116 36.6643,109.911 C36.0403,110.706 34.7653,113.126 34.7653,113.126 C34.7653,113.126 34.3673,116.133 34.3673,117.138 C34.3673,118.143 34.4813,121.899 34.6733,123.186 C34.8733,124.516 33.6473,126.768 33.6473,126.768 L31.9633,128.253 C31.9633,128.253 31.8093,129.795 31.5813,130.565 C31.2313,131.745 28.8353,137.485 28.6563,138.558 C28.5223,139.364 28.5033,142.735 28.6103,143.625 C28.8473,145.584 28.8403,148.701 28.8403,149.505 C28.8403,150.309 29.0243,153.723 29.2233,154.526 C29.4213,155.33 29.1163,161.562 29.1163,162.366 C29.1163,163.17 29.6013,165.298 28.8403,166.714 C28.0343,168.214 25.6553,169.853 25.6553,169.853 L21.1083,170.343 L19.2713,170.787 L16.3003,170.389 C16.3003,170.389 11.3363,169.992 9.9463,169.792 C8.5573,169.591 7.4953,169.28 6.7013,169.884 C5.9063,170.486 4.6183,172.02 4.4193,172.823 C4.2213,173.627 4.6483,177.256 4.2513,178.06 C3.8543,178.863 2.7183,179.753 1.9243,180.356 C1.1293,180.959 0.5003,182.733 0.5003,183.938 C0.5003,185.144 0.8173,185.782 1.4183,186.343 C2.3123,187.176 3.8073,187.185 3.8073,187.185 L6.8993,187.889 L9.4113,189.068 L15.7043,189.481 L19.8683,192.1 L23.6503,194.503 L26.4003,197.407 L26.4063,197.412 C26.4063,197.412 26.6203,199.732 26.6203,200.536 C26.6203,200.537 26.6213,200.538 26.6213,200.539 C26.6213,200.588 26.6333,200.643 26.6543,200.702 C26.6573,200.711 26.6643,200.72 26.6673,200.728 C26.8323,201.144 27.4503,201.78 28.1673,202.357 L28.1823,202.357 C29.0813,203.08 30.1183,203.712 30.5703,203.705 C31.3893,203.692 30.9073,206.088 32.9743,208.038 C34.5193,209.496 36.6883,208.849 37.5373,209.171 C38.2793,209.453 39.2673,213.221 39.4663,214.024 C39.6653,214.828 42.8503,214.561 42.8503,214.561 C42.8503,214.561 46.2333,217.677 46.2333,220.088 C46.2333,222.499 48.0783,222.375 48.0093,226.028 C47.9733,227.978 49.5253,229.097 49.7243,230.101 C49.9223,231.105 51.2203,231.742 51.4083,233.516 L51.3773,236.807 C51.7273,238.365 52.9553,239.103 52.9553,239.103 C54.2713,240.286 54.2913,243.034 55.5423,244.049 C57.2203,245.41 59.1253,245.993 59.1253,245.993 C59.1253,246.8 59.0633,248.336 59.0633,248.336 C59.0583,248.348 59.6133,250.622 60.5953,250.449 C61.4013,250.307 62.4183,249.477 62.8153,248.673 C63.2123,247.869 65.9083,248.535 65.9083,248.535 C65.9083,248.535 65.9443,249.221 66.6273,249.423 C67.3103,249.626 68.6633,248.87 69.5973,249.225 C70.5323,249.578 71.5013,249.998 72.1853,250.557 C72.9423,251.174 72.1893,251.892 72.3383,252.394 C72.9343,254.403 72.5463,256.202 72.2463,256.681 C71.3353,258.133 72.1393,260.914 72.1393,261.718 C72.1393,262.119 71.9323,264.054 72.0933,264.826 C72.2543,265.598 72.8643,265.461 73.1653,265.882 C73.7603,266.716 74.6823,267.85 75.0793,268.653 C75.4763,269.457 75.8603,270.651 76.2583,271.455 C76.6553,272.259 78.2723,273.919 80.7293,273.568 C80.7293,273.568 95.3763,273.723 99.5003,273.875 C103.3543,274.017 103.4683,276.891 104.8583,276.891 C106.2483,276.891 121.5473,287.486 121.5473,287.486 L130.8563,294.529 L138.6653,295.478 C138.6653,295.478 144.9753,294.877 145.7693,295.279 C146.5633,295.681 148.8923,297.285 148.8923,297.285 C148.8923,297.285 151.2273,297.529 154.4043,297.529 C157.5813,297.529 158.6763,298.586 158.6763,298.586 C158.6763,298.586 162.4033,298.729 164.1723,298.984 C166.2603,299.285 169.3013,300.5 169.3013,300.5 C169.0513,297.943 171.3683,296.672 171.3683,296.672 C174.4773,294.817 175.6893,292.936 176.7433,288.925 L183.1273,285.817 L188.5173,283.107 L194.3503,280.611 L200.0913,277.947 C200.0913,277.947 201.9223,278.91 202.8013,279.738 C203.6803,280.567 202.8943,281.853 204.1333,281.821 C206.1973,281.768 207.1183,283.847 208.0533,284.807 C209.0563,285.836 209.3873,286.294 211.0393,286.444 C212.4223,286.571 222.2033,286.123 223.1963,286.123 C224.1883,286.123 226.7813,287.53 227.9723,287.73 C229.1643,287.932 230.1493,284.125 230.9433,283.321 C231.7373,282.518 235.3093,280.906 236.3013,280.504 C237.2943,280.103 241.4613,280.504 241.4613,280.504 L245.6413,279.692 L253.5873,278.896 C253.5873,278.896 255.1653,276.684 255.1653,275.88 C255.1653,275.076 258.7493,271.264 259.1453,270.46 C259.5423,269.656 268.0723,265.239 268.0723,265.239 L277.4113,262.82 C277.4113,262.82 284.1653,262.225 284.9593,262.024 C285.7533,261.823 291.1163,261.81 291.9113,261.81 C292.7053,261.81 307.3893,263.218 307.3893,263.218 L365.7423,202.357 L365.7543,202.357 L385.2303,182.04 Z" id="Fill-1" fill="#FFFFFF"></path>
            <path d="M385.2303,182.04 L359.4163,181.841 L315.7343,166.975 L282.3723,155.522 C282.3723,155.522 274.2253,148.288 273.8293,147.484 C273.4313,146.68 270.0623,146.473 270.0623,146.473 L267.4743,141.451 L264.1063,137.241 L259.1453,132.02 C259.1453,132.02 258.5483,129.808 258.5483,129.004 C258.5483,128.2 254.9653,125.589 254.9653,125.589 C254.9653,125.589 252.5903,122.768 251.7963,121.562 C251.0013,120.357 251.9953,118.746 251.9953,118.746 L250.0043,114.933 L250.2043,111.917 C250.2043,111.917 252.1963,108.062 252.9913,107.661 C253.1893,107.56 253.5883,106.319 253.5113,105.992 C254.0243,105.771 255.2173,105.693 255.5783,105.226 C255.6973,104.705 255.6783,103.069 255.5013,102.791 C255.3253,102.514 252.1943,102.776 252.1943,102.776 L251.3683,100.74 L249.0093,100.862 C249.0093,100.862 249.0053,100.861 249.0043,100.861 C248.9693,100.853 247.5523,100.521 246.4733,100.62 C246.4713,100.62 246.4703,100.62 246.4683,100.62 C246.2013,100.645 245.9573,100.697 245.7573,100.787 C245.7363,100.797 245.7143,100.808 245.6943,100.818 C245.6043,100.865 245.5223,100.918 245.4583,100.984 L245.4583,100.985 C245.4573,100.985 245.4573,100.986 245.4563,100.986 C245.3703,101.076 245.2693,101.165 245.1653,101.253 C245.1273,101.284 245.0903,101.315 245.0523,101.345 C244.9843,101.399 244.9123,101.452 244.8383,101.504 C244.3583,101.845 243.7803,102.152 243.2523,102.363 L243.2713,102.363 C242.8243,102.542 242.4093,102.654 242.1203,102.654 C241.7223,102.654 237.0843,102.681 235.2913,102.685 C234.0823,103.198 233.2273,103.791 232.6723,104.323 C231.0683,104.282 226.6563,103.328 226.6563,103.328 C226.6563,103.328 226.6883,102.888 226.7143,102.363 L226.7173,102.363 C226.7283,102.148 226.7353,101.925 226.7413,101.707 C226.7453,101.556 226.7483,101.41 226.7483,101.276 C226.7483,101.227 226.7483,101.168 226.7473,101.103 C226.7473,101.073 226.7463,101.036 226.7463,101.003 C226.7463,100.975 226.7463,100.949 226.7453,100.918 C226.7313,99.759 226.6653,97.028 226.5803,96.04 C226.4913,95.019 226.3803,92.365 226.3803,92.365 C226.3803,92.365 226.7483,84.993 226.9473,84.189 C227.1453,83.385 229.9483,81.785 229.9483,81.785 C229.9483,81.785 234.7423,74.964 235.3363,74.16 C235.9323,73.356 238.0943,70.327 238.6903,69.322 C239.2863,68.317 241.8593,64.3 241.8593,64.3 L241.2783,63.091 C241.2783,63.091 238.6123,59.78 238.0163,58.574 C237.4203,57.368 235.1673,55.146 234.3733,54.945 C233.5783,54.744 229.9473,53.253 229.7493,52.45 C229.5503,51.646 226.9763,46.013 226.5803,45.009 C226.1823,44.004 219.4263,39.183 218.2353,38.379 C217.0433,37.575 212.0773,34.165 210.8853,32.959 C209.6943,31.753 206.5493,24.982 205.4973,24.109 C204.4833,22.366 200.8933,19.229 199.7403,18.934 C199.7403,18.934 195.1753,18.033 193.9373,17.556 C193.2393,17.288 187.0623,12.458 187.0623,12.458 L183.6933,10.651 L177.9213,11.447 L174.5533,10.054 L172.4713,10.176 C172.4713,10.176 170.1643,9.869 168.7963,8.079 C166.3283,9.589 162.8383,10.651 162.0443,10.651 C161.6473,10.651 160.8003,12.299 160.1303,11.646 C159.4603,10.993 158.9593,8.037 158.8593,7.635 C158.6613,6.831 155.8133,6.364 155.8133,6.364 C154.7933,6.364 154.7093,7.459 154.5113,8.263 C154.3133,9.066 148.2233,11.61 147.4533,11.416 C145.8003,11.002 143.6673,12.338 142.3853,12.458 C139.6103,12.718 138.0063,10.039 138.0063,10.039 C138.0063,10.039 135.6783,6.28 135.4803,5.476 C135.2813,4.672 133.3673,5.369 133.3673,5.369 C133.3673,5.369 129.2783,4.215 128.8813,3.21 C128.4843,2.206 126.4623,0.5 126.4623,0.5 C126.4623,0.5 122.4593,9.136 122.2673,9.916 C122.0683,10.72 118.3163,19.953 117.7963,20.649 C117.3003,21.312 114.3143,17.044 113.8923,15.688 C113.6933,15.052 111.7793,12.244 111.7793,12.244 L107.5683,11.784 C107.5683,11.784 105.7733,12.037 105.4253,12.948 C105.1373,13.698 105.5673,15.611 104.6283,16.255 C104.6283,16.255 101.6593,16.34 101.3373,15.214 L91.9513,15.474 L90.7573,20.496 C90.7573,20.496 89.9613,23.918 89.9613,24.722 C89.9613,25.525 90.5583,27.323 90.5583,29.131 C90.5583,30.939 89.7623,31.144 89.7623,31.948 C89.7623,32.752 88.3823,34.366 87.5873,34.566 C86.7933,34.768 85.3973,39.177 85.0003,40.584 C84.6033,41.99 82.8113,45.009 82.8113,45.009 C82.8113,45.009 81.6323,50.235 81.6323,51.24 C81.6323,52.245 82.4133,54.861 82.4133,55.665 C82.4133,56.469 82.2133,58.268 82.2133,58.268 C82.2133,58.268 79.6403,57.67 78.8453,57.67 L71.0983,57.67 C71.0983,57.67 62.7693,69.116 62.5703,69.919 C62.3713,70.723 59.7823,76.756 59.3853,77.56 C58.9883,78.363 53.6283,79.971 53.6283,82.382 C53.6283,84.793 55.0223,86.599 55.4193,87.603 C55.8173,88.608 54.0263,90.015 54.0263,90.818 C54.0263,91.622 51.2413,95.037 51.6383,95.84 C51.7373,96.041 51.8063,96.3 51.8533,96.575 L51.8523,96.575 C51.8703,96.679 51.8843,96.784 51.8973,96.89 C51.8973,96.891 51.8973,96.891 51.8973,96.892 C51.9703,97.525 51.9533,98.164 51.9463,98.336 L51.9463,98.343 C51.9453,98.366 51.9443,98.382 51.9443,98.382 L49.9693,103.511 C49.9693,103.511 50.2953,104.29 51.1483,105.731 C50.6913,106.548 48.8503,109.431 48.0553,110.034 C47.2613,110.636 46.2643,110.6 46.2643,110.6 C46.2643,110.6 42.4353,106.126 41.3183,106.099 C39.7443,106.061 37.2873,109.116 36.6643,109.911 C36.0403,110.706 34.7653,113.126 34.7653,113.126 C34.7653,113.126 34.3673,116.133 34.3673,117.138 C34.3673,118.143 34.4813,121.899 34.6733,123.186 C34.8733,124.516 33.6473,126.768 33.6473,126.768 L31.9633,128.253 C31.9633,128.253 31.8093,129.795 31.5813,130.565 C31.2313,131.745 28.8353,137.485 28.6563,138.558 C28.5223,139.364 28.5033,142.735 28.6103,143.625 C28.8473,145.584 28.8403,148.701 28.8403,149.505 C28.8403,150.309 29.0243,153.723 29.2233,154.526 C29.4213,155.33 29.1163,161.562 29.1163,162.366 C29.1163,163.17 29.6013,165.298 28.8403,166.714 C28.0343,168.214 25.6553,169.853 25.6553,169.853 L21.1083,170.343 L19.2713,170.787 L16.3003,170.389 C16.3003,170.389 11.3363,169.992 9.9463,169.792 C8.5573,169.591 7.4953,169.28 6.7013,169.884 C5.9063,170.486 4.6183,172.02 4.4193,172.823 C4.2213,173.627 4.6483,177.256 4.2513,178.06 C3.8543,178.863 2.7183,179.753 1.9243,180.356 C1.1293,180.959 0.5003,182.733 0.5003,183.938 C0.5003,185.144 0.8173,185.782 1.4183,186.343 C2.3123,187.176 3.8073,187.185 3.8073,187.185 L6.8993,187.889 L9.4113,189.068 L15.7043,189.481 L19.8683,192.1 L23.6503,194.503 L26.4003,197.407 L26.4063,197.412 C26.4063,197.412 26.6203,199.732 26.6203,200.536 C26.6203,200.537 26.6213,200.538 26.6213,200.539 C26.6213,200.588 26.6333,200.643 26.6543,200.702 C26.6573,200.711 26.6643,200.72 26.6673,200.728 C26.8323,201.144 27.4503,201.78 28.1673,202.357 L28.1823,202.357 C29.0813,203.08 30.1183,203.712 30.5703,203.705 C31.3893,203.692 30.9073,206.088 32.9743,208.038 C34.5193,209.496 36.6883,208.849 37.5373,209.171 C38.2793,209.453 39.2673,213.221 39.4663,214.024 C39.6653,214.828 42.8503,214.561 42.8503,214.561 C42.8503,214.561 46.2333,217.677 46.2333,220.088 C46.2333,222.499 48.0783,222.375 48.0093,226.028 C47.9733,227.978 49.5253,229.097 49.7243,230.101 C49.9223,231.105 51.2203,231.742 51.4083,233.516 L51.3773,236.807 C51.7273,238.365 52.9553,239.103 52.9553,239.103 C54.2713,240.286 54.2913,243.034 55.5423,244.049 C57.2203,245.41 59.1253,245.993 59.1253,245.993 C59.1253,246.8 59.0633,248.336 59.0633,248.336 C59.0583,248.348 59.6133,250.622 60.5953,250.449 C61.4013,250.307 62.4183,249.477 62.8153,248.673 C63.2123,247.869 65.9083,248.535 65.9083,248.535 C65.9083,248.535 65.9443,249.221 66.6273,249.423 C67.3103,249.626 68.6633,248.87 69.5973,249.225 C70.5323,249.578 71.5013,249.998 72.1853,250.557 C72.9423,251.174 72.1893,251.892 72.3383,252.394 C72.9343,254.403 72.5463,256.202 72.2463,256.681 C71.3353,258.133 72.1393,260.914 72.1393,261.718 C72.1393,262.119 71.9323,264.054 72.0933,264.826 C72.2543,265.598 72.8643,265.461 73.1653,265.882 C73.7603,266.716 74.6823,267.85 75.0793,268.653 C75.4763,269.457 75.8603,270.651 76.2583,271.455 C76.6553,272.259 78.2723,273.919 80.7293,273.568 C80.7293,273.568 95.3763,273.723 99.5003,273.875 C103.3543,274.017 103.4683,276.891 104.8583,276.891 C106.2483,276.891 121.5473,287.486 121.5473,287.486 L130.8563,294.529 L138.6653,295.478 C138.6653,295.478 144.9753,294.877 145.7693,295.279 C146.5633,295.681 148.8923,297.285 148.8923,297.285 C148.8923,297.285 151.2273,297.529 154.4043,297.529 C157.5813,297.529 158.6763,298.586 158.6763,298.586 C158.6763,298.586 162.4033,298.729 164.1723,298.984 C166.2603,299.285 169.3013,300.5 169.3013,300.5 C169.0513,297.943 171.3683,296.672 171.3683,296.672 C174.4773,294.817 175.6893,292.936 176.7433,288.925 L183.1273,285.817 L188.5173,283.107 L194.3503,280.611 L200.0913,277.947 C200.0913,277.947 201.9223,278.91 202.8013,279.738 C203.6803,280.567 202.8943,281.853 204.1333,281.821 C206.1973,281.768 207.1183,283.847 208.0533,284.807 C209.0563,285.836 209.3873,286.294 211.0393,286.444 C212.4223,286.571 222.2033,286.123 223.1963,286.123 C224.1883,286.123 226.7813,287.53 227.9723,287.73 C229.1643,287.932 230.1493,284.125 230.9433,283.321 C231.7373,282.518 235.3093,280.906 236.3013,280.504 C237.2943,280.103 241.4613,280.504 241.4613,280.504 L245.6413,279.692 L253.5873,278.896 C253.5873,278.896 255.1653,276.684 255.1653,275.88 C255.1653,275.076 258.7493,271.264 259.1453,270.46 C259.5423,269.656 268.0723,265.239 268.0723,265.239 L277.4113,262.82 C277.4113,262.82 284.1653,262.225 284.9593,262.024 C285.7533,261.823 291.1163,261.81 291.9113,261.81 C292.7053,261.81 307.3893,263.218 307.3893,263.218 L365.7423,202.357 L365.7543,202.357 L385.2303,182.04 Z" id="Stroke-3" stroke="#E75F52" stroke-linecap="round" stroke-linejoin="round"></path>
        </g>
    </g>
</svg>