<?xml version="1.0" encoding="UTF-8"?>
<svg width="320px" height="299px" viewBox="0 0 320 299" version="1.1" xmlns="http://www.w3.org/2000/svg" xmlns:xlink="http://www.w3.org/1999/xlink">
    <!-- Generator: Sketch 64 (93537) - https://sketch.com -->
    <title>145</title>
    <desc>Created with Sketch.</desc>
    <g id="145" stroke="none" stroke-width="1" fill="none" fill-rule="evenodd">
        <g id="Group-55">
            <polygon id="Fill-1" fill="#FFFFFF" points="231.6996 2.0998 230.2996 2.2998 229.9996 5.5998 228.8996 9.3998 225.7006 15.0998 227.4006 15.5998 227.1996 17.4998 225.7006 18.6998 226.6006 20.7998 225.1996 23.4998 224.9006 26.6008 225.7006 27.6008 225.1996 30.9998 226.3006 35.2998 224.9006 38.9998 224.0996 42.7998 224.6006 43.7998 222.6006 48.9998 221.8006 49.7998 219.8006 55.1998 217.3006 56.6998 213.2996 57.2998 207.7006 54.3998 205.6996 50.6998 202.8996 49.6998 199.3006 48.9998 196.6996 46.8998 195.6006 45.3998 192.8006 44.1998 189.7006 42.1998 187.9996 42.3998 183.9996 39.5998 183.9996 38.5998 177.8006 34.7008 177.2996 32.7998 180.0996 29.2008 181.1996 28.5998 182.1006 25.2998 180.8996 23.7998 181.1996 21.4998 181.7996 20.7998 184.3006 20.2998 185.3996 20.6998 187.0996 18.6008 185.9996 17.7008 187.3996 16.1998 187.6996 14.6998 189.3996 13.8998 188.8006 12.6998 187.3996 13.1008 185.3996 10.3998 183.4996 12.3998 184.8996 12.9998 183.9996 14.3998 182.3006 14.5998 181.1996 12.0998 179.8006 13.3998 178.9996 10.5008 177.4996 11.7998 174.6996 12.9998 172.9996 11.8998 172.4996 10.3998 171.0996 11.3998 168.4996 10.6998 167.9996 10.9998 166.8006 9.7998 165.9996 10.1998 164.8996 8.6008 163.4996 9.4998 160.0996 8.6008 158.1006 5.6998 156.1006 6.9998 154.4006 4.6998 152.1996 3.8998 150.1996 4.7998 151.2996 7.0998 153.6006 6.3998 155.2996 7.8998 155.5996 11.2008 154.0996 12.7998 152.5006 12.4998 151.0006 13.2998 149.9006 12.6998 146.7996 13.2998 145.4006 12.2998 142.9006 12.2008 141.4996 14.3998 139.7996 13.9998 139.4996 15.4998 137.7996 16.1998 137.5006 18.0998 136.0996 18.4998 136.0996 20.2008 136.9996 21.2008 136.0996 22.5998 133.9006 23.1008 132.6996 27.0998 131.0006 27.6998 129.8996 30.2998 131.9006 31.6998 133.0006 33.4998 131.9006 34.7008 129.1006 33.8998 127.7006 34.0998 123.3996 33.0998 119.9996 36.1998 120.8996 32.6998 117.8006 29.9998 116.6996 28.5008 114.1006 26.1998 112.6996 26.7998 111.3006 24.7998 109.6006 25.2998 110.1996 26.8998 108.1996 28.5998 107.6006 26.9998 106.4996 27.3998 105.6996 28.7998 104.7996 28.5998 103.6996 30.0998 104.0006 31.1008 102.5996 31.3998 99.7006 30.9998 98.0996 31.6998 97.1996 32.8998 97.4996 34.5998 98.9006 35.2998 98.6006 36.3998 96.9006 35.3998 95.7996 36.1998 95.2006 37.8998 93.3006 37.1998 93.5006 38.9998 91.7996 38.8998 90.9996 40.6998 92.6996 43.9998 90.9996 44.9998 91.2996 45.8998 89.9006 46.5008 89.0006 45.4998 87.2996 46.0998 86.2006 44.6008 84.7996 44.6008 85.4006 46.2998 84.7996 48.6998 86.4996 51.3998 84.7996 51.3998 85.4006 52.8998 84.7996 54.3998 83.4006 54.1998 81.3996 49.8998 79.3996 47.3998 78.2996 48.2008 78.6006 49.4998 76.8996 49.6998 76.1006 51.2998 74.6996 52.1998 73.7996 53.6008 73.5006 56.0998 73.7996 59.1998 75.1996 59.6998 74.8996 60.8998 71.8006 63.6008 69.6006 65.6998 68.6996 68.5998 66.1996 71.8998 64.1996 73.2998 58.5996 75.4998 55.1996 76.1008 53.1996 76.8998 50.3996 75.9998 49.3006 76.2008 47.2996 78.4998 43.6006 79.3998 42.0006 79.3998 38.8996 81.7998 35.8006 82.3998 34.0996 81.2998 32.1006 82.2998 31.0006 81.4998 28.4006 83.2008 26.6996 83.3998 24.7996 85.2008 23.5996 86.6998 20.7996 89.0998 16.9006 90.6008 14.5996 91.8998 12.5996 96.2998 10.8996 95.8998 10.0996 94.5998 7.8006 96.0008 6.6996 97.9998 8.0996 102.0998 7.6006 102.9998 7.6006 105.9998 6.3996 107.0998 5.0006 110.6998 5.0006 114.8998 6.3996 116.4998 7.2996 119.8998 10.7006 125.7008 11.5006 126.1998 10.4006 131.3998 8.6996 128.5998 7.2996 128.8998 7.6006 126.6998 5.9006 124.2998 5.0006 125.1998 7.0006 129.4998 8.6996 130.5998 8.0996 132.7998 6.6996 132.7008 5.2996 129.3998 3.8996 131.1008 6.2006 133.4998 9.5006 139.2008 10.7006 142.4998 10.7006 146.2008 13.7996 149.8998 14.0006 152.1998 16.0006 154.8998 17.0996 158.3998 16.9006 160.0988 17.0996 165.0998 18.7996 170.7008 22.7996 178.1998 23.1006 180.7998 23.1006 185.6998 21.8996 187.7008 22.7996 193.3998 20.7996 196.4008 16.9006 197.1998 17.0996 200.9998 18.2996 203.4998 19.9996 203.2998 22.1996 204.4998 25.9006 208.1998 30.1006 210.2998 35.8006 210.0998 37.7006 211.0998 38.2996 210.2008 43.9006 208.8998 44.5006 207.0998 46.5006 206.4998 48.1996 204.4998 50.6996 205.2998 52.0996 204.5998 54.0996 200.9998 56.8996 199.5998 60.0006 199.9998 61.0996 199.1998 68.6996 198.4998 71.0006 199.2998 72.3996 198.6998 73.7996 200.4998 74.8996 199.5998 80.9006 199.0998 81.3996 200.2008 82.7996 199.2998 84.1996 199.6998 87.6006 196.1998 89.0006 191.9998 90.9996 190.4008 93.5006 189.8998 95.7996 188.2998 99.9996 186.5998 102.7996 184.5998 105.1006 183.6998 108.9996 184.3998 113.7996 183.9998 119.5006 182.2008 127.0996 178.5998 136.4006 177.5998 141.4996 177.9008 144.2996 176.6998 147.1006 177.9008 152.5006 181.7998 155.2996 180.8998 157.0006 181.0998 159.7996 183.3998 162.8996 183.0998 165.1006 183.7998 167.3996 185.6998 168.8006 187.7998 166.8006 188.1998 168.4996 192.3998 171.8996 192.3998 172.7996 194.1998 172.9996 196.7998 176.1006 200.2008 177.2996 204.7008 176.6996 206.7008 178.9996 208.5998 180.6006 208.5998 181.4996 205.4008 183.6996 203.0998 184.8996 200.9008 186.8006 199.2998 191.5996 196.8998 193.3006 192.0998 196.9996 188.7998 197.8006 192.2008 196.1996 193.2998 197.3006 195.7998 194.4996 199.0998 193.3006 201.7998 193.8996 206.1998 193.3006 208.9998 190.1996 208.8998 188.4996 212.1998 191.1006 212.0998 193.1006 210.9998 194.9996 211.4998 197.8006 203.0998 199.7996 204.4998 201.8006 207.2998 200.8996 213.0998 198.7006 215.0988 198.9996 216.1998 201.8006 215.8998 205.1996 214.9998 209.1006 218.4008 212.2006 225.5998 212.2006 226.8998 210.8006 228.6998 211.4006 231.0008 213.2996 234.0998 215.3006 235.7998 216.1996 237.9008 218.9996 239.9008 222.3996 240.3998 225.4996 243.4998 226.3006 241.9998 228.5996 241.9998 230.8006 243.1998 232.1996 242.7998 235.3006 244.8998 237.3006 245.4008 240.9996 247.6998 243.4996 245.9998 245.1996 243.9998 247.6996 242.0988 249.6996 241.9998 250.3006 240.7008 248.9006 240.0008 252.1996 238.0998 253.4006 240.7008 256.1996 241.4998 255.8996 243.2998 256.9996 245.6998 258.2006 245.5988 259.6006 248.1998 260.9996 247.3998 263.4996 250.4998 264.1006 248.3998 262.7006 248.1998 261.7996 246.6998 267.2006 245.5988 272.8006 239.9008 275.3996 238.2998 278.4996 237.3998 287.4996 236.9998 289.9996 234.5998 291.4006 234.0998 291.6996 231.3998 290.8996 228.5988 292.8006 222.5998 292.8006 218.4008 297.0996 210.4998 298.7996 205.8998 298.7996 203.3998 301.5996 199.7998 301.8996 196.2998 302.6996 195.7998 306.0996 189.5998 308.1006 188.9998 308.8996 187.4998 311.3996 185.5998 311.2006 182.9998 313.0996 179.9998 314.4996 176.6998 315.7006 171.2998 315.0996 169.8998 317.5996 160.4008 317.8996 157.0998 318.8006 154.4008 319.8996 152.8998 319.5996 147.5998 318.1996 144.8998 318.4996 143.4998 317.1006 140.4998 315.7006 138.9998 316.1996 135.6998 315.7006 129.9998 316.7996 127.1998 314.3006 124.8998 314.8006 123.1998 314.4996 121.3998 312.6006 120.9998 310.5996 116.7008 308.3006 115.5998 306.7006 112.1008 304.6996 110.0998 304.0996 110.7998 297.8996 105.1998 297.6006 102.9998 298.1996 99.0998 297.6006 97.1998 296.1996 95.8998 295.3996 97.5998 293.3996 96.4998 291.9996 94.3998 290.3006 96.3998 288.6006 95.1998 287.1996 91.3998 287.4996 90.7998 285.4996 85.3998 282.6996 83.2998 280.9996 80.9998 282.6996 79.1998 280.7006 77.6998 278.1996 76.9998 278.1996 76.1008 276.4996 75.2998 273.4006 74.8998 271.7006 71.2998 269.1996 71.4998 268.6006 70.0998 267.4996 70.4998 266.1006 69.4998 263.8006 68.3998 262.4006 66.8998 262.9996 64.0998 260.3996 61.8998 260.3996 61.0998 261.4996 56.6998 259.3006 51.7998 255.5996 46.8998 256.1996 43.7998 255.3006 42.4998 254.4996 39.4998 254.1996 33.7998 252.7996 33.5998 251.6996 31.9998 249.9996 31.4998 249.1006 29.2008 248.2996 28.8998 244.4006 31.1008 242.9006 30.2998 242.0996 27.0998 240.9996 24.9998 241.4996 23.1998 240.9996 21.5998 240.6996 17.7998 239.8006 17.7008 240.1006 15.7998 238.6996 13.9998 237.3006 13.5998 238.4006 10.7998 235.8996 9.6008 235.3006 6.7008 235.8996 6.0008 234.7996 2.6998 233.3996 1.5998 233.3996 0.4998"></polygon>
            <polygon id="Stroke-2" stroke="#E75F52" stroke-linecap="round" stroke-linejoin="round" points="231.6998 2.1001 230.3008 2.3001 229.9998 5.6001 228.8998 9.4001 225.6998 15.1001 227.3998 15.6001 227.1998 17.5001 225.6998 18.7001 226.5998 20.8001 225.1998 23.5001 224.8998 26.6001 225.6998 27.6001 225.1998 31.0001 226.3008 35.3001 224.8998 39.0001 224.0998 42.8001 224.5998 43.8001 222.5998 49.0001 221.8008 49.8001 219.8008 55.2001 217.3008 56.7001 213.3008 57.3001 207.6998 54.4001 205.6998 50.7001 202.8998 49.7001 199.3008 49.0001 196.6998 46.9001 195.5998 45.4001 192.8008 44.2001 189.6998 42.2001 187.9998 42.4001 183.9998 39.6001 183.9998 38.6001 177.8008 34.7001 177.3008 32.8001 180.0998 29.2001 181.1998 28.6001 182.0998 25.3001 180.8998 23.8001 181.1998 21.5001 181.8008 20.8001 184.3008 20.3001 185.3998 20.7001 187.0998 18.6001 185.9998 17.7001 187.3998 16.2001 187.6998 14.7001 189.3998 13.9001 188.8008 12.7001 187.3998 13.1001 185.3998 10.4001 183.4998 12.4001 184.8998 13.0001 183.9998 14.4001 182.3008 14.6001 181.1998 12.1001 179.8008 13.4001 178.9998 10.5001 177.4998 11.8001 174.6998 13.0001 172.9998 11.9001 172.4998 10.4001 171.0998 11.4001 168.4998 10.7001 167.9998 11.0001 166.8008 9.8001 165.9998 10.2001 164.8998 8.6001 163.4998 9.5001 160.0998 8.6001 158.0998 5.7001 156.0998 7.0001 154.3998 4.7001 152.1998 3.9001 150.1998 4.8001 151.2998 7.1001 153.5998 6.4001 155.2998 7.9001 155.5998 11.2001 154.0998 12.8001 152.4998 12.5001 150.9998 13.3001 149.8998 12.7001 146.7998 13.3001 145.3998 12.3001 142.8998 12.2001 141.4998 14.4001 139.7998 14.0001 139.4998 15.5001 137.7998 16.2001 137.4998 18.1001 136.0998 18.5001 136.0998 20.2001 136.9998 21.2001 136.0998 22.6001 133.8998 23.1001 132.6998 27.1001 130.9998 27.7001 129.8998 30.3001 131.8998 31.7001 132.9998 33.5001 131.8998 34.7001 129.0998 33.9001 127.6998 34.1001 123.3998 33.1001 119.9998 36.2001 120.8998 32.7001 117.7998 30.0001 116.6998 28.5001 114.0998 26.2001 112.6998 26.8001 111.2998 24.8001 109.5998 25.3001 110.1998 26.9001 108.1998 28.6001 107.5998 27.0001 106.4998 27.4001 105.6998 28.8001 104.7998 28.6001 103.6998 30.1001 103.9998 31.1001 102.5998 31.4001 99.6998 31.0001 98.0998 31.7001 97.1998 32.9001 97.4998 34.6001 98.8998 35.3001 98.5998 36.4001 96.8998 35.4001 95.7998 36.2001 95.1998 37.9001 93.2998 37.2001 93.4998 39.0001 91.7998 38.9001 90.9998 40.7001 92.6998 44.0001 90.9998 45.0001 91.2998 45.9001 89.8998 46.5001 88.9998 45.5001 87.2998 46.1001 86.1998 44.6001 84.7998 44.6001 85.3998 46.3001 84.7998 48.7001 86.4998 51.4001 84.7998 51.4001 85.3998 52.9001 84.7998 54.4001 83.3998 54.2001 81.3998 49.9001 79.3998 47.4001 78.2998 48.2001 78.5998 49.5001 76.8998 49.7001 76.0998 51.3001 74.6998 52.2001 73.7998 53.6001 73.4998 56.1001 73.7998 59.2001 75.1998 59.7001 74.8998 60.9001 71.7998 63.6001 69.5998 65.7001 68.6998 68.6001 66.1998 71.9001 64.1998 73.3001 58.5998 75.5001 55.1998 76.1001 53.1998 76.9001 50.3998 76.0001 49.2998 76.2001 47.2998 78.5001 43.5998 79.4001 41.9998 79.4001 38.8998 81.8001 35.7998 82.4001 34.0998 81.3001 32.0998 82.3001 30.9998 81.5001 28.3998 83.2001 26.6998 83.4001 24.7998 85.2001 23.5998 86.7001 20.7998 89.1001 16.8998 90.6001 14.5998 91.9001 12.5998 96.3001 10.8998 95.9001 10.0998 94.6001 7.7998 96.0001 6.6998 98.0001 8.0998 102.1001 7.5998 103.0001 7.5998 106.0001 6.3998 107.1001 4.9998 110.7001 4.9998 114.9001 6.3998 116.5001 7.2998 119.9001 10.6998 125.7001 11.4998 126.2001 10.3998 131.4001 8.6998 128.6001 7.2998 128.9001 7.5998 126.7001 5.8998 124.3001 4.9998 125.2001 6.9998 129.5001 8.6998 130.6001 8.0998 132.8001 6.6998 132.7001 5.2998 129.4001 3.8998 131.1001 6.1998 133.5001 9.4998 139.2001 10.6998 142.5001 10.6998 146.2001 13.7998 149.9001 13.9998 152.2001 15.9998 154.9001 17.0998 158.4001 16.8998 160.1001 17.0998 165.1001 18.7998 170.7001 22.7998 178.2001 23.0998 180.8001 23.0998 185.7001 21.8998 187.7001 22.7998 193.4001 20.7998 196.4001 16.8998 197.2001 17.0998 201.0001 18.2998 203.5001 19.9998 203.3001 22.1998 204.5001 25.8998 208.2001 30.0998 210.3001 35.7998 210.1001 37.6998 211.1001 38.2998 210.2001 43.8998 208.9001 44.4998 207.1001 46.4998 206.5001 48.1998 204.5001 50.6998 205.3001 52.0998 204.6001 54.0998 201.0001 56.8998 199.6001 59.9998 200.0001 61.0998 199.2001 68.6998 198.5001 70.9998 199.3001 72.3998 198.7001 73.7998 200.5001 74.8998 199.6001 80.8998 199.1001 81.3998 200.2001 82.7998 199.3001 84.1998 199.7001 87.5998 196.2001 88.9998 192.0001 90.9998 190.4001 93.4998 189.9001 95.7998 188.3001 99.9998 186.6001 102.7998 184.6001 105.0998 183.7001 108.9998 184.4001 113.7998 184.0001 119.4998 182.2001 127.0998 178.6001 136.3998 177.6001 141.4998 177.9001 144.2998 176.7001 147.0998 177.9001 152.4998 181.8001 155.2998 180.9001 156.9998 181.1001 159.7998 183.4001 162.8998 183.1001 165.0998 183.8001 167.3998 185.7001 168.8008 187.8001 166.8008 188.2001 168.4998 192.4001 171.8998 192.4001 172.8008 194.2001 172.9998 196.8001 176.0998 200.2001 177.3008 204.7001 176.6998 206.7001 178.9998 208.6001 180.5998 208.6001 181.4998 205.4001 183.6998 203.1001 184.8998 200.9001 186.8008 199.3001 191.5998 196.9001 193.3008 192.1001 196.9998 188.8001 197.8008 192.2001 196.1998 193.3001 197.3008 195.8001 194.4998 199.1001 193.3008 201.8001 193.8998 206.2001 193.3008 209.0001 190.1998 208.9001 188.4998 212.2001 191.0998 212.1001 193.0998 211.0001 194.9998 211.5001 197.8008 203.1001 199.8008 204.5001 201.8008 207.3001 200.8998 213.1001 198.6998 215.1001 198.9998 216.2001 201.8008 215.9001 205.1998 215.0001 209.0998 218.4001 212.1998 225.6001 212.1998 226.9001 210.8008 228.7001 211.3998 231.0001 213.3008 234.1001 215.3008 235.8001 216.1998 237.9001 218.9998 239.9001 222.3998 240.4001 225.4998 243.5001 226.3008 242.0001 228.5998 242.0001 230.8008 243.2001 232.1998 242.8001 235.3008 244.9001 237.3008 245.4001 240.9998 247.7001 243.4998 246.0001 245.1998 244.0001 247.6998 242.1001 249.6998 242.0001 250.3008 240.7001 248.8998 240.0001 252.1998 238.1001 253.3998 240.7001 256.1998 241.5001 255.8998 243.3001 256.9998 245.7001 258.1998 245.6001 259.5998 248.2001 260.9998 247.4001 263.4998 250.5001 264.0998 248.4001 262.6998 248.2001 261.8008 246.7001 267.1998 245.6001 272.8008 239.9001 275.3998 238.3001 278.4998 237.4001 287.4998 237.0001 289.9998 234.6001 291.3998 234.1001 291.6998 231.4001 290.8998 228.6001 292.8008 222.6001 292.8008 218.4001 297.0998 210.5001 298.8008 205.9001 298.8008 203.4001 301.5998 199.8001 301.8998 196.3001 302.6998 195.8001 306.0998 189.6001 308.0998 189.0001 308.8998 187.5001 311.3998 185.6001 311.1998 183.0001 313.0998 180.0001 314.4998 176.7001 315.6998 171.3001 315.0998 169.9001 317.5998 160.4001 317.8998 157.1001 318.8008 154.4001 319.8998 152.9001 319.5998 147.6001 318.1998 144.9001 318.4998 143.5001 317.0998 140.5001 315.6998 139.0001 316.1998 135.7001 315.6998 130.0001 316.8008 127.2001 314.3008 124.9001 314.8008 123.2001 314.4998 121.4001 312.5998 121.0001 310.5998 116.7001 308.3008 115.6001 306.6998 112.1001 304.6998 110.1001 304.0998 110.8001 297.8998 105.2001 297.5998 103.0001 298.1998 99.1001 297.5998 97.2001 296.1998 95.9001 295.3998 97.6001 293.3998 96.5001 291.9998 94.4001 290.3008 96.4001 288.5998 95.2001 287.1998 91.4001 287.4998 90.8001 285.4998 85.4001 282.6998 83.3001 280.9998 81.0001 282.6998 79.2001 280.6998 77.7001 278.1998 77.0001 278.1998 76.1001 276.4998 75.3001 273.3998 74.9001 271.6998 71.3001 269.1998 71.5001 268.5998 70.1001 267.4998 70.5001 266.0998 69.5001 263.8008 68.4001 262.3998 66.9001 262.9998 64.1001 260.3998 61.9001 260.3998 61.1001 261.4998 56.7001 259.3008 51.8001 255.5998 46.9001 256.1998 43.8001 255.3008 42.5001 254.4998 39.5001 254.1998 33.8001 252.8008 33.6001 251.6998 32.0001 249.9998 31.5001 249.0998 29.2001 248.3008 28.9001 244.3998 31.1001 242.8998 30.3001 242.0998 27.1001 240.9998 25.0001 241.4998 23.2001 240.9998 21.6001 240.6998 17.8001 239.8008 17.7001 240.0998 15.8001 238.6998 14.0001 237.3008 13.6001 238.3998 10.8001 235.8998 9.6001 235.3008 6.7001 235.8998 6.0001 234.8008 2.7001 233.3998 1.6001 233.3998 0.5001"></polygon>
            <polygon id="Fill-4" fill="#FFFFFF" points="142.7999 5.8999 139.4999 6.1999 138.9999 5.1999 137.8999 4.7999 138.9999 8.1999 142.4999 10.4999 144.9999 8.7999 146.8999 6.7999 146.0999 4.9999 144.9999 4.4999"></polygon>
            <polygon id="Stroke-5" stroke="#E75F52" stroke-linecap="round" stroke-linejoin="round" points="142.7999 5.8999 139.4999 6.1999 138.9999 5.1999 137.8999 4.7999 138.9999 8.1999 142.4999 10.4999 144.9999 8.7999 146.8999 6.7999 146.0999 4.9999 144.9999 4.4999"></polygon>
            <polygon id="Fill-6" fill="#FFFFFF" points="136.4 8.1001 138.7 9.5001 137.8 6.7001 136.1 6.5001"></polygon>
            <polygon id="Stroke-7" stroke="#E75F52" stroke-linecap="round" stroke-linejoin="round" points="136.4 8.1001 138.7 9.5001 137.8 6.7001 136.1 6.5001"></polygon>
            <polygon id="Fill-8" fill="#FFFFFF" points="186.1002 25.7998 186.1002 28.8998 187.4992 29.4998 188.7002 25.8998 188.1002 24.4998"></polygon>
            <polygon id="Stroke-9" stroke="#E75F52" stroke-linecap="round" stroke-linejoin="round" points="186.1002 25.7998 186.1002 28.8998 187.4992 29.4998 188.7002 25.8998 188.1002 24.4998"></polygon>
            <polygon id="Fill-10" fill="#FFFFFF" points="207.1998 47.2002 205.8998 49.2002 207.4998 49.4002 210.8998 47.1002 209.9998 46.6002"></polygon>
            <polygon id="Stroke-11" stroke="#E75F52" stroke-linecap="round" stroke-linejoin="round" points="207.1998 47.2002 205.8998 49.2002 207.4998 49.4002 210.8998 47.1002 209.9998 46.6002"></polygon>
            <polygon id="Fill-12" fill="#FFFFFF" points="316.4996 117.2002 316.8006 119.0002 315.3996 120.4002 315.6996 121.6002 314.8996 123.5002 315.6996 124.5002 317.8996 118.9002 317.3996 116.5002"></polygon>
            <polygon id="Stroke-13" stroke="#E75F52" stroke-linecap="round" stroke-linejoin="round" points="316.4996 117.2002 316.8006 119.0002 315.3996 120.4002 315.6996 121.6002 314.8996 123.5002 315.6996 124.5002 317.8996 118.9002 317.3996 116.5002"></polygon>
            <polygon id="Fill-14" fill="#FFFFFF" points="0.5004 124.7995 1.4004 127.5005 2.2994 127.0005 0.8004 123.4995"></polygon>
            <polygon id="Stroke-15" stroke="#E75F52" stroke-linecap="round" stroke-linejoin="round" points="0.5001 124.7998 1.4001 127.4998 2.3001 126.9998 0.8001 123.4998"></polygon>
            <polygon id="Fill-17" fill="#FFFFFF" points="317.9997 136.7002 318.4997 139.4002 318.8007 136.6002"></polygon>
            <polygon id="Stroke-18" stroke="#E75F52" stroke-linecap="round" stroke-linejoin="round" points="317.9996 136.7002 318.4996 139.4002 318.8006 136.6002"></polygon>
            <polygon id="Fill-19" fill="#FFFFFF" points="192.1998 215.5 186.1998 217.3 185.8998 218.8 187.3008 220.2 191.3008 219.4 192.9998 220.5 195.5998 218.4 197.8998 218.8 197.8998 217.3 194.1998 216.9 194.4998 215.5"></polygon>
            <polygon id="Stroke-20" stroke="#E75F52" stroke-linecap="round" stroke-linejoin="round" points="192.1998 215.5 186.1998 217.3 185.8998 218.8 187.3008 220.2 191.3008 219.4 192.9998 220.5 195.5998 218.4 197.8998 218.8 197.8998 217.3 194.1998 216.9 194.4998 215.5"></polygon>
            <polygon id="Fill-21" fill="#FFFFFF" points="243.1998 256.2998 243.8008 260.4998 244.9998 259.6998 245.5998 259.0998 244.9998 255.4998"></polygon>
            <polygon id="Stroke-22" stroke="#E75F52" stroke-linecap="round" stroke-linejoin="round" points="243.1998 256.2998 243.8008 260.4998 244.9998 259.6998 245.5998 259.0998 244.9998 255.4998"></polygon>
            <polygon id="Fill-23" fill="#FFFFFF" points="274.9 259.9004 276.7 262.5004 277.9 262.0004 277.9 259.2004 275.4 256.5004"></polygon>
            <polygon id="Stroke-24" stroke="#E75F52" stroke-linecap="round" stroke-linejoin="round" points="274.9 259.9004 276.7 262.5004 277.9 262.0004 277.9 259.2004 275.4 256.5004"></polygon>
            <polygon id="Fill-25" fill="#FFFFFF" points="274.9995 268.3 273.3005 267.701 272.1005 269.401 268.8005 269.099 263.9995 271 259.2005 269.401 258.6005 268.5 250.9995 266.5 249.9005 269.3 252.3995 276.8 254.7005 279.599 255.8005 282.4 254.9995 282.7 254.9995 286.5 256.8995 290.201 258.3005 291.299 259.4995 293.9 260.9005 294.2 260.9005 296.7 262.8995 296 266.2005 297.5 267.9005 297.3 268.2005 295.799 271.3005 289.9 273.3005 288.7 275.4995 289 276.6995 282.7 278.3005 277.799 278.9005 269.3 276.3995 266.5"></polygon>
            <polygon id="Stroke-26" stroke="#E75F52" stroke-linecap="round" stroke-linejoin="round" points="274.9996 268.2998 273.3006 267.6998 272.1006 269.4008 268.8006 269.0998 263.9996 270.9998 259.1996 269.4008 258.6006 268.4998 250.9996 266.4998 249.8996 269.2998 252.3996 276.7998 254.6996 279.5998 255.8006 282.4008 254.9996 282.6998 254.9996 286.4998 256.8996 290.1998 258.3006 291.2998 259.4996 293.9008 260.8996 294.1998 260.8996 296.6998 262.8996 295.9998 266.1996 297.4998 267.8996 297.2998 268.1996 295.7998 271.3006 289.9008 273.3006 288.6998 275.4996 288.9998 276.6996 282.6998 278.3006 277.7998 278.8996 269.2998 276.3996 266.4998"></polygon>
            <polygon id="Fill-28" fill="#FFFFFF" points="231.6996 2.0998 230.2996 2.2998 229.9996 5.5998 228.8006 9.3998 225.7006 15.0998 227.4006 15.5998 227.1996 17.4998 225.7006 18.6998 226.6006 20.7998 225.1996 23.4998 224.9006 26.6008 225.7006 27.6008 225.1996 30.9998 226.3006 35.2998 224.9006 38.9998 224.0996 42.7998 224.6006 43.7998 222.6006 48.9998 221.8006 49.7998 219.8006 55.1998 217.3006 56.6998 213.2996 57.2998 207.7006 54.3998 205.6996 50.6998 202.8996 49.6998 199.3006 48.9998 196.6996 46.8998 195.6006 45.3998 192.8006 44.1998 189.7006 42.1998 187.9996 42.3998 183.9996 39.5998 183.9996 38.5998 177.8006 34.7008 177.2996 32.7998 180.0996 29.2008 181.1996 28.5998 182.1006 25.2998 180.8996 23.7998 181.1996 21.4998 181.7996 20.7998 184.3006 20.2998 185.3996 20.6998 187.0996 18.6008 185.9996 17.7008 187.3996 16.1998 187.6996 14.6998 189.3996 13.8998 188.8006 12.6998 187.3996 13.1008 185.3996 10.3998 183.4996 12.3998 184.8996 12.9998 183.9996 14.3998 182.3006 14.5998 181.1996 12.0998 179.8006 13.3998 178.9996 10.5008 177.4996 11.7998 174.6996 12.9998 172.9996 11.8998 172.4996 10.3998 171.0996 11.3998 168.4996 10.5998 167.9996 10.9998 166.8006 9.7998 165.9996 10.1998 164.8996 8.6008 163.4996 9.4998 160.0996 8.6008 158.1006 5.6998 156.1006 6.9998 154.4006 4.6998 152.1996 3.9998 150.1996 4.7998 151.2996 7.0998 153.6006 6.3998 155.2996 7.8998 155.5996 11.2008 154.0996 12.7998 152.5006 12.4998 151.0006 13.2998 149.9006 12.6998 146.7996 13.2998 145.4006 12.2998 142.9006 12.2008 141.4996 14.3998 139.7996 13.9998 139.4996 15.4998 137.7996 16.1998 137.5006 18.0998 136.0996 18.4998 136.0996 20.2008 136.9996 21.2008 136.0996 22.5998 133.9006 23.1008 132.6996 27.0998 131.0006 27.6998 129.8996 30.2998 131.9006 31.6998 133.0006 33.4998 131.9006 34.7008 129.1006 33.8998 127.7006 34.0998 123.3996 33.0998 119.9996 36.1998 120.8996 32.6998 117.8006 29.9998 116.6996 28.5008 114.1006 26.1998 112.6996 26.7998 111.3006 24.7998 109.6006 25.2998 110.1996 26.8998 108.1996 28.5998 107.6006 26.9998 106.4996 27.3998 105.6996 28.7998 104.7996 28.5998 103.6996 30.0998 104.0006 31.1008 102.5996 31.3998 99.7006 30.9998 98.0996 31.6998 97.1996 32.8998 97.4996 34.5998 98.9006 35.2998 98.6006 36.3998 96.9006 35.3998 95.7996 36.1998 95.2006 37.8998 93.3006 37.1998 93.5006 38.9998 91.7996 38.8998 90.9996 40.6998 92.6996 43.9998 90.9996 44.9998 91.2996 45.8998 89.9006 46.5008 89.0006 45.4998 87.2996 46.0998 86.2006 44.6008 84.7996 44.6008 85.4006 46.2998 84.7996 48.6998 86.4996 51.3998 84.7996 51.3998 85.4006 52.8998 84.7996 54.3998 83.4006 54.1998 81.3996 49.8998 79.3996 47.3998 78.2996 48.2008 78.6006 49.4998 76.8996 49.6998 76.1006 51.2998 74.6996 52.1998 73.7996 53.6008 73.5006 56.0998 73.7996 59.1998 75.1996 59.6998 74.8996 60.8998 71.8006 63.6008 69.6006 65.6998 68.6996 68.5998 66.1996 71.8998 64.1996 73.2998 58.5996 75.4998 55.1996 76.1008 53.1996 76.8998 50.3996 75.9998 49.3006 76.2008 47.2996 78.4998 43.6006 79.3998 42.0006 79.3998 38.8996 81.7998 35.8006 82.3998 34.0996 81.2998 32.1006 82.2998 31.0006 81.4998 28.4006 83.2008 26.6996 83.3998 24.7996 85.2008 23.5996 86.6998 20.7996 89.0998 16.9006 90.6008 14.5996 91.8998 12.5996 96.2998 10.8996 95.8998 10.0996 94.5998 7.8006 96.0008 6.6996 97.9998 8.0996 102.0998 7.6006 102.9998 7.6006 105.9998 6.3996 107.0998 5.0006 110.6998 5.0006 114.8998 6.3996 116.4998 7.2996 119.8998 10.7006 125.7008 11.5006 126.1998 10.4006 131.3998 8.6996 128.5998 7.2996 128.8998 7.6006 126.6998 5.9006 124.2998 5.0006 125.1998 7.0006 129.4998 8.6996 130.5998 8.0996 132.7998 6.6996 132.7008 5.2996 129.3998 3.8996 131.1008 6.2006 133.4998 9.5006 139.2008 10.7006 142.4998 10.7006 146.2008 13.7996 149.8998 14.0006 152.1998 16.0006 154.8998 17.0996 158.3998 16.9006 160.0988 17.0996 165.0998 18.7996 170.7008 22.7996 178.1998 23.1006 180.7998 23.1006 185.6998 21.8996 187.7008 22.7996 193.3998 20.7996 196.4008 16.9006 197.1998 17.0996 200.9998 18.2996 203.4998 19.9996 203.2998 22.1996 204.4998 25.9006 208.1998 30.1006 210.2998 35.8006 210.0998 37.7006 211.0998 38.2996 210.2008 43.9006 208.8998 44.5006 207.0998 46.5006 206.4998 48.1996 204.4998 50.6996 205.2998 52.0996 204.5998 54.0996 200.9998 56.8996 199.5998 60.0006 199.9998 61.0996 199.1998 68.6996 198.4998 71.0006 199.2998 72.3996 198.6998 73.7996 200.4998 74.8996 199.5998 80.9006 198.9998 81.3996 200.2008 82.7996 199.2998 84.1996 199.6998 87.6006 196.1998 89.0006 191.9998 90.9996 190.4008 93.5006 189.8998 95.7996 188.2998 99.9996 186.5998 102.7996 184.5998 105.1006 183.6998 108.9996 184.3998 113.7996 183.9998 119.5006 182.2008 127.0996 178.5998 136.4006 177.5998 141.4996 177.9008 144.2996 176.6998 147.1006 177.9008 152.5006 181.7998 155.2996 180.8998 157.0006 181.0998 159.7996 183.3998 162.8996 183.0998 165.1006 183.7998 167.3996 185.6998 168.8006 187.7998 166.8006 188.1998 168.4996 192.3998 171.8996 192.3998 172.7996 194.1998 172.9996 196.7998 176.1006 200.2008 177.2996 204.7008 176.6996 206.7008 178.9996 208.5998 180.6006 208.5998 181.4996 205.4008 183.6996 203.0998 184.8996 200.9008 186.8006 199.2998 191.5996 196.8998 193.3006 192.0998 196.9996 188.7998 197.8006 192.2008 196.0996 193.2998 197.3006 195.7998 194.4996 198.9998 193.3006 201.7998 193.8996 206.1998 193.3006 208.9998 190.1996 208.8998 188.4996 212.1998 191.1006 212.0998 192.9996 210.9998 194.9996 211.4998 197.8006 203.0998 199.7996 204.4998 201.8006 207.2998 200.8996 213.0998 198.7006 215.0988 198.9996 216.1998 201.8006 215.9998 205.1996 214.9998 209.1006 218.4008 212.2006 225.5998 212.2006 226.8998 210.8006 228.6998 211.4006 231.0008 213.2996 234.0998 215.3006 235.7998 216.1996 237.9008 218.9996 239.9008 222.3996 240.3998 225.4996 243.4998 226.3006 241.8998 228.5996 241.8998 230.8006 243.1998 232.1996 242.7998 235.3006 244.8998 237.3006 245.4008 240.9996 247.6998 243.4996 245.9998 245.1996 243.9998 247.6996 242.0988 249.6996 241.8998 250.3006 240.7008 248.9006 240.0008 252.1996 238.0998 253.4006 240.7008 256.1996 241.4998 255.8996 243.2998 256.9996 245.6998 258.2006 245.5988 259.6006 248.1998 260.9996 247.3998 263.4996 250.4998 264.1006 248.3998 262.7006 248.1998 261.7996 246.6998 267.2006 245.5988 272.8006 239.9008 275.3996 238.2998 278.4996 237.3998 287.4996 236.9998 289.9996 234.5998 291.4006 234.0998 291.6996 231.3998 290.8996 228.5988 292.8006 222.5998 292.8006 218.4008 297.0996 210.4998 298.7996 205.8998 298.7996 203.3998 301.5996 199.7998 301.8996 196.2998 302.6996 195.7998 306.0996 189.5998 308.1006 188.9998 308.8996 187.4998 311.3996 185.5998 311.2006 182.9998 313.0996 179.9998 314.4996 176.6998 315.7006 171.2998 315.0996 169.8998 317.5996 160.4008 317.8996 157.0998 318.8006 154.4008 319.8996 152.8998 319.5996 147.5998 318.1996 144.8998 318.4996 143.4998 317.1006 140.4998 315.7006 138.9998 316.1996 135.6998 315.7006 129.9998 316.7996 127.1998 314.3006 124.8998 314.8006 123.1998 314.4996 121.3998 312.6006 120.9998 310.5996 116.7008 308.3006 115.5998 306.7006 112.1008 304.6996 110.0998 304.0996 110.7998 297.8996 105.1998 297.6006 102.9998 298.1996 99.0998 297.6006 97.1998 296.1996 95.8998 295.3996 97.5998 293.3996 96.4998 291.9996 94.3998 290.3006 96.3998 288.6006 95.1998 287.1996 91.3998 287.4996 90.7998 285.4996 85.3998 282.6996 83.2998 280.9996 80.9998 282.6996 79.1998 280.7006 77.6998 278.1996 76.9998 278.1996 76.1008 276.4996 75.2998 273.4006 74.8998 271.7006 71.2998 269.1996 71.4998 268.6006 70.0998 267.4996 70.4998 266.1006 69.4998 263.8006 68.3998 262.4006 66.8998 262.9996 64.0998 260.3996 61.8998 260.3996 61.0998 261.4996 56.6998 259.3006 51.7998 255.5996 46.8998 256.1996 43.7998 255.3006 42.4998 254.4996 39.4998 254.1996 33.7998 252.7996 33.5998 251.6996 31.9998 249.9996 31.4998 249.1006 29.2008 248.2996 28.8998 244.4006 31.1008 242.9006 30.2998 242.0996 27.0998 240.9996 24.9998 241.4996 23.1998 240.9996 21.5998 240.6996 17.7998 239.8006 17.7008 240.1006 15.7998 238.6996 13.9998 237.3006 13.5998 238.4006 10.7998 235.8996 9.6008 235.3006 6.7008 235.8996 6.0008 234.7996 2.6998 233.3996 1.5998 233.3996 0.4998"></polygon>
            <polygon id="Stroke-29" stroke="#E75F52" stroke-linecap="round" stroke-linejoin="round" points="233.4 0.5 233.4 1.6 234.8 2.7 235.9 6 235.3 6.7 235.9 9.6 238.4 10.8 237.3 13.6 238.7 14 240.1 15.8 239.8 17.7 240.7 17.8 241 21.6 241.5 23.2 241 25 242.1 27.1 242.9 30.3 244.4 31.1 248.3 28.9 249.1 29.2 250 31.5 251.7 32 252.8 33.6 254.2 33.8 254.5 39.5 255.3 42.5 256.2 43.8 255.6 46.9 259.3 51.8 261.5 56.7 260.4 61.1 260.4 61.9 263 64.1 262.4 66.9 263.8 68.4 266.1 69.5 267.5 70.5 268.6 70.1 269.2 71.5 271.7 71.3 273.4 74.9 276.5 75.3 278.2 76.1 278.2 77 280.7 77.7 282.7 79.2 281 81 282.7 83.3 285.5 85.4 287.5 90.8 287.2 91.4 288.6 95.2 290.3 96.4 292 94.4 293.4 96.5 295.4 97.6 296.2 95.9 297.6 97.2 298.2 99.1 297.6 103 297.9 105.2 304.1 110.8 304.7 110.1 306.7 112.1 308.3 115.6 310.6 116.7 312.6 121 314.5 121.4 314.8 123.2 314.3 124.9 316.8 127.2 315.7 130 316.2 135.7 315.7 139 317.1 140.5 318.5 143.5 318.2 144.9 319.6 147.6 319.9 152.9 318.8 154.4 317.9 157.1 317.6 160.4 315.1 169.9 315.7 171.3 314.5 176.7 313.1 180 311.2 183 311.4 185.6 308.9 187.5 308.1 189 306.1 189.6 302.7 195.8 301.9 196.3 301.6 199.8 298.8 203.4 298.8 205.9 297.1 210.5 292.8 218.4 292.8 222.6 290.9 228.6 291.7 231.4 291.4 234.1 290 234.6 287.5 237 278.5 237.4 275.4 238.3 272.8 239.9 267.2 245.6 261.8 246.7 262.7 248.2 264.1 248.4 263.5 250.5 261 247.4 259.6 248.2 258.2 245.6 257 245.7 255.9 243.3 256.2 241.5 253.4 240.7 252.2 238.1 248.9 240 250.3 240.7 249.7 241.9 247.7 242.1 245.2 244 243.5 246 241 247.7 237.3 245.4 235.3 244.9 232.2 242.8 230.8 243.2 228.6 241.9 226.3 241.9 225.5 243.5 222.4 240.4 219 239.9 216.2 237.9 215.3 235.8 213.3 234.1 211.4 231 210.8 228.7 212.2 226.9 212.2 225.6 209.1 218.4 205.2 215 201.8 216 199 216.2 198.7 215.1 200.9 213.1 201.8 207.3 199.8 204.5 197.8 203.1 195 211.5 193 211 191.1 212.1 188.5 212.2 190.2 208.9 193.3 209 193.9 206.2 193.3 201.8 194.5 199 197.3 195.8 196.1 193.3 197.8 192.2 197 188.8 193.3 192.1 191.6 196.9 186.8 199.3 184.9 200.9 183.7 203.1 181.5 205.4 180.6 208.6 179 208.6 176.7 206.7 177.3 204.7 176.1 200.2 173 196.8 172.8 194.2 171.9 192.4 168.5 192.4 166.8 188.2 168.8 187.8 167.4 185.7 165.1 183.8 162.9 183.1 159.8 183.4 157 181.1 155.3 180.9 152.5 181.8 147.1 177.9 144.3 176.7 141.5 177.9 136.4 177.6 127.1 178.6 119.5 182.2 113.8 184 109 184.4 105.1 183.7 102.8 184.6 100 186.6 95.8 188.3 93.5 189.9 91 190.4 89 192 87.6 196.2 84.2 199.7 82.8 199.3 81.4 200.2 80.9 199 74.9 199.6 73.8 200.5 72.4 198.7 71 199.3 68.7 198.5 61.1 199.2 60 200 56.9 199.6 54.1 201 52.1 204.6 50.7 205.3 48.2 204.5 46.5 206.5 44.5 207.1 43.9 208.9 38.3 210.2 37.7 211.1 35.8 210.1 30.1 210.3 25.9 208.2 22.2 204.5 20 203.3 18.3 203.5 17.1 201 16.9 197.2 20.8 196.4 22.8 193.4 21.9 187.7 23.1 185.7 23.1 180.8 22.8 178.2 18.8 170.7 17.1 165.1 16.9 160.1 17.1 158.4 16 154.9 14 152.2 13.8 149.9 10.7 146.2 10.7 142.5 9.5 139.2 6.2 133.5 3.9 131.1 5.3 129.4 6.7 132.7 8.1 132.8 8.7 130.6 7 129.5 5 125.2 5.9 124.3 7.6 126.7 7.3 128.9 8.7 128.6 10.4 131.4 11.5 126.2 10.7 125.7 7.3 119.9 6.4 116.5 5 114.9 5 110.7 6.4 107.1 7.6 106 7.6 103 8.1 102.1 6.7 98 7.8 96 10.1 94.6 10.9 95.9 12.6 96.3 14.6 91.9 16.9 90.6 20.8 89.1 23.6 86.7 24.8 85.2 26.7 83.4 28.4 83.2 31 81.5 32.1 82.3 34.1 81.3 35.8 82.4 38.9 81.8 42 79.4 43.6 79.4 47.3 78.5 49.3 76.2 50.4 76 53.2 76.9 55.2 76.1 58.6 75.5 64.2 73.3 66.2 71.9 68.7 68.6 69.6 65.7 71.8 63.6 74.9 60.9 75.2 59.7 73.8 59.2 73.5 56.1 73.8 53.6 74.7 52.2 76.1 51.3 76.9 49.7 78.6 49.5 78.3 48.2 79.4 47.4 81.4 49.9 83.4 54.2 84.8 54.4 85.4 52.9 84.8 51.4 86.5 51.4 84.8 48.7 85.4 46.3 84.8 44.6 86.2 44.6 87.3 46.1 89 45.5 89.9 46.5 91.3 45.9 91 45 92.7 44 91 40.7 91.8 38.9 93.5 39 93.3 37.2 95.2 37.9 95.8 36.2 96.9 35.4 98.6 36.4 98.9 35.3 97.5 34.6 97.2 32.9 98.1 31.7 99.7 31 102.6 31.4 104 31.1 103.7 30.1 104.8 28.6 105.7 28.8 106.5 27.4 107.6 27 108.2 28.6 110.2 26.9 109.6 25.3 111.3 24.8 112.7 26.8 114.1 26.2 116.7 28.5 117.8 30 120.9 32.7 120 36.2 123.4 33.1 127.7 34.1 129.1 33.9 131.9 34.7 133 33.5 131.9 31.7 129.9 30.3 131 27.7 132.7 27.1 133.9 23.1 136.1 22.6 137 21.2 136.1 20.2 136.1 18.5 137.5 18.1 137.8 16.2 139.5 15.5 139.8 14 141.5 14.4 142.9 12.2 145.4 12.3 146.8 13.3 149.9 12.7 151 13.3 152.5 12.5 154.1 12.8 155.6 11.2 155.3 7.9 153.6 6.4 151.3 7.1 150.2 4.8 152.2 4 154.4 4.7 156.1 7 158.1 5.7 160.1 8.6 163.5 9.5 164.9 8.6 166 10.2 166.8 9.8 168 11 168.5 10.6 171.1 11.4 172.5 10.4 173 11.9 174.7 13 177.5 11.8 179 10.5 179.8 13.4 181.2 12.1 182.3 14.6 184 14.4 184.9 13 183.5 12.4 185.4 10.4 187.4 13.1 188.8 12.7 189.4 13.9 187.7 14.7 187.4 16.2 186 17.7 187.1 18.6 185.4 20.7 184.3 20.3 181.8 20.8 181.2 21.5 180.9 23.8 182.1 25.3 181.2 28.6 180.1 29.2 177.3 32.8 177.8 34.7 184 38.6 184 39.6 188 42.4 189.7 42.2 192.8 44.2 195.6 45.4 196.7 46.9 199.3 49 202.9 49.7 205.7 50.7 207.7 54.4 213.3 57.3 217.3 56.7 219.8 55.2 221.8 49.8 222.6 49 224.6 43.8 224.1 42.8 224.9 39 226.3 35.3 225.2 31 225.7 27.6 224.9 26.6 225.2 23.5 226.6 20.8 225.7 18.7 227.2 17.5 227.4 15.6 225.7 15.1 228.8 9.4 230 5.6 230.3 2.3 231.7 2.1"></polygon>
            <polygon id="Fill-31" fill="#FFFFFF" points="139.0001 5.2002 139.5001 6.2002 142.8001 5.9002 145.0001 4.5002 146.1001 5.0002 146.9001 6.8002 145.0001 8.8002 142.5001 10.5002 139.0001 8.2002 137.9001 4.8002"></polygon>
            <polygon id="Stroke-32" stroke="#E75F52" stroke-linecap="round" stroke-linejoin="round" points="139.0001 5.2002 139.5001 6.2002 142.8001 5.9002 145.0001 4.5002 146.1001 5.0002 146.9001 6.8002 145.0001 8.8002 142.5001 10.5002 139.0001 8.2002 137.9001 4.8002"></polygon>
            <polygon id="Fill-33" fill="#FFFFFF" points="137.7999 6.7002 138.6999 9.5002 136.3999 8.0002 136.0999 6.5002"></polygon>
            <polygon id="Stroke-34" stroke="#E75F52" stroke-linecap="round" stroke-linejoin="round" points="137.7999 6.7002 138.6999 9.5002 136.3999 8.0002 136.0999 6.5002"></polygon>
            <polygon id="Fill-35" fill="#FFFFFF" points="188.1002 24.5 188.7002 25.9 187.4992 29.5 186.1002 28.9 186.1002 25.8"></polygon>
            <polygon id="Stroke-36" stroke="#E75F52" stroke-linecap="round" stroke-linejoin="round" points="188.1002 24.5 188.7002 25.9 187.4992 29.5 186.1002 28.9 186.1002 25.8"></polygon>
            <polygon id="Fill-37" fill="#FFFFFF" points="210.9 47.1001 207.5 49.4001 205.9 49.2001 207.2 47.2001 210 46.6001"></polygon>
            <polygon id="Stroke-38" stroke="#E75F52" stroke-linecap="round" stroke-linejoin="round" points="210.9 47.1001 207.5 49.4001 205.9 49.2001 207.2 47.2001 210 46.6001"></polygon>
            <polygon id="Fill-39" fill="#FFFFFF" points="317.4 116.5 317.9 118.9 315.7 124.5 314.9 123.5 315.7 121.6 315.4 120.4 316.8 119 316.5 117.2"></polygon>
            <polygon id="Stroke-40" stroke="#E75F52" stroke-linecap="round" stroke-linejoin="round" points="317.4 116.5 317.9 118.9 315.7 124.5 314.9 123.5 315.7 121.6 315.4 120.4 316.8 119 316.5 117.2"></polygon>
            <polygon id="Fill-41" fill="#FFFFFF" points="0.5004 124.7995 1.4004 127.5005 2.2994 127.0005 0.8004 123.4995"></polygon>
            <polygon id="Stroke-42" stroke="#E75F52" stroke-linecap="round" stroke-linejoin="round" points="0.7999 123.5 2.2999 127 1.3999 127.5 0.4999 124.8"></polygon>
            <polygon id="Fill-44" fill="#FFFFFF" points="317.9997 136.7002 318.4997 139.4002 318.8007 136.6002"></polygon>
            <polygon id="Stroke-45" stroke="#E75F52" stroke-linecap="round" stroke-linejoin="round" points="318.4996 139.3999 317.9996 136.6999 318.8006 136.5999"></polygon>
            <polygon id="Fill-46" fill="#FFFFFF" points="194.4996 215.5 194.1996 216.9 197.8996 217.3 197.8996 218.8 195.6006 218.4 192.9996 220.5 191.3006 219.4 187.3006 220.2 185.8996 218.8 186.1996 217.3 192.1996 215.5"></polygon>
            <polygon id="Stroke-47" stroke="#E75F52" stroke-linecap="round" stroke-linejoin="round" points="194.4996 215.5 194.1996 216.9 197.8996 217.3 197.8996 218.8 195.6006 218.4 192.9996 220.5 191.3006 219.4 187.3006 220.2 185.8996 218.8 186.1996 217.3 192.1996 215.5"></polygon>
            <polygon id="Fill-48" fill="#FFFFFF" points="244.9996 259.7002 243.8006 260.5002 243.1996 256.3002 244.9996 255.5002 245.6006 259.0992"></polygon>
            <polygon id="Stroke-49" stroke="#E75F52" stroke-linecap="round" stroke-linejoin="round" points="244.9996 259.7002 243.8006 260.5002 243.1996 256.3002 244.9996 255.5002 245.6006 259.0992"></polygon>
            <polygon id="Fill-50" fill="#FFFFFF" points="275.4 256.5 277.9 259.2 277.9 262 276.6 262.5 274.9 259.9"></polygon>
            <polygon id="Stroke-51" stroke="#E75F52" stroke-linecap="round" stroke-linejoin="round" points="275.4 256.5 277.9 259.2 277.9 262 276.6 262.5 274.9 259.9"></polygon>
            <polygon id="Fill-52" fill="#FFFFFF" points="274.9995 268.3 273.3005 267.701 272.1005 269.401 268.8005 269.099 263.9995 271 259.2005 269.401 258.6005 268.5 250.9995 266.5 249.9005 269.3 252.3995 276.8 254.7005 279.599 255.8005 282.4 254.9995 282.7 254.9995 286.5 256.8995 290.201 258.3005 291.299 259.4995 293.8 260.9005 294.2 260.9005 296.7 262.8995 296 266.2005 297.5 267.9005 297.3 268.2005 295.799 271.3005 289.9 273.3005 288.7 275.4995 289 276.6005 282.7 278.3005 277.799 278.9005 269.3 276.3995 266.5"></polygon>
            <polygon id="Stroke-53" stroke="#E75F52" stroke-linecap="round" stroke-linejoin="round" points="250.9996 266.5 258.6006 268.5 259.1996 269.4 263.9996 271 268.8006 269.1 272.1006 269.4 273.3006 267.7 274.9996 268.3 276.3996 266.5 278.8996 269.3 278.3006 277.8 276.6006 282.7 275.4996 289 273.3006 288.7 271.3006 289.9 268.1996 295.8 267.8996 297.3 266.1996 297.5 262.8996 296 260.8996 296.7 260.8996 294.2 259.4996 293.8 258.3006 291.3 256.8996 290.2 254.9996 286.5 254.9996 282.7 255.8006 282.4 254.6996 279.6 252.3996 276.8 249.8996 269.3"></polygon>
        </g>
    </g>
</svg>