<?xml version="1.0" encoding="UTF-8"?>
<svg width="147px" height="301px" viewBox="0 0 147 301" version="1.1" xmlns="http://www.w3.org/2000/svg" xmlns:xlink="http://www.w3.org/1999/xlink">
    <!-- Generator: Sketch 64 (93537) - https://sketch.com -->
    <title>150</title>
    <desc>Created with Sketch.</desc>
    <g id="150" stroke="none" stroke-width="1" fill="none" fill-rule="evenodd">
        <g id="Group-73">
            <path d="M88.5996,293.9004 L55.9996,300.5004 L38.9996,294.9004 L28.4996,287.5004 C28.4996,287.5004 18.0996,266.0004 17.4996,264.9004 C16.8996,263.7994 9.8996,252.0994 9.8996,252.0994 L12.0996,251.5994 L12.7006,251.2994 L16.7006,249.2004 L18.8996,247.7994 L18.5996,246.2004 L19.3996,243.2994 L19.7006,242.2994 L19.7006,242.2004 L19.7996,241.7994 L19.5996,241.2004 L19.3996,241.0004 L17.8996,239.0994 L17.2996,236.2004 L17.9996,235.2004 L17.9996,234.2004 L18.4996,232.4004 L17.8996,230.5004 L18.8996,228.5004 L17.8996,225.7994 L17.9996,225.2004 L16.7006,222.5994 L16.7996,222.0994 L16.8996,221.9004 L16.5996,221.4004 L12.7006,218.0004 L12.2996,215.7994 L12.0996,215.2994 L11.8996,214.9004 L9.9996,212.7994 L8.2996,210.2994 L7.9996,209.0994 L8.2996,207.7004 L7.8996,206.5004 L8.0996,204.7994 L8.4996,204.0994 L8.5996,203.5004 L8.7006,202.9004 L9.4996,202.0004 L10.9996,201.0004 L10.3996,197.7994 L9.4996,195.7004 L9.2006,194.0004 L8.2006,193.0004 L7.7996,192.0994 L7.3996,191.0994 L4.9996,189.0994 L4.2006,188.7004 L3.5996,187.0004 L3.9996,184.7004 L4.2006,183.5004 L4.2006,183.4004 L4.4996,179.7004 L3.9996,177.2004 L3.2996,175.5994 L2.7996,172.0004 L3.2006,171.0004 L2.5996,169.2004 L3.0996,166.4004 L2.5996,164.2004 L2.4996,163.2994 L2.2996,160.7004 L2.7006,159.4004 L2.3996,157.4004 L2.7006,156.5004 L3.2996,155.7004 L3.3996,155.5004 L3.5996,154.5994 L2.9996,151.0004 L2.9996,150.2004 L2.7996,146.9004 L2.7006,146.2994 L2.5996,146.2994 L2.2006,146.0004 L2.0996,145.4004 L2.3996,144.6004 L2.4996,142.2994 L2.4996,141.9004 L2.0996,140.0004 L2.4996,138.4004 L1.2996,136.6004 L1.8996,135.4004 L1.8996,134.6004 L1.3996,133.9004 L0.7996,133.7004 L0.4996,133.2004 L1.4996,131.2004 L1.2006,130.2004 L1.5996,128.9004 L2.0996,127.2004 L2.0996,127.1004 L2.5996,123.9004 L3.2996,121.9004 L3.2996,121.7994 L3.3996,121.6004 L3.2996,121.2004 L2.8996,119.7994 L2.7006,119.2994 L2.5996,119.2994 L2.2996,119.2004 L1.7006,119.4004 L1.4996,118.7004 L2.3996,117.7004 L3.7006,116.2004 L4.0996,115.7004 L5.8996,114.2994 L5.9996,114.2004 L6.0996,114.2004 L7.2006,113.9004 L8.2006,114.1004 L8.7006,114.7994 L9.8996,116.4004 L10.4996,119.9004 L11.4996,120.2004 L11.7006,120.7004 L11.9996,121.4004 L11.8996,122.0004 L11.7996,122.9004 L12.2996,125.5004 L12.2996,125.7004 L13.7006,126.2994 L15.0996,125.9004 L15.2996,125.6004 L15.9996,124.9004 L15.8996,124.2994 L15.3996,123.6004 L14.3996,123.0004 L13.5996,121.7994 L13.8996,121.4004 L14.8996,121.2994 L15.0996,121.1004 L15.2996,120.7994 L15.0996,120.6004 L13.3996,118.2004 L13.8996,117.4004 L13.5996,116.7004 L13.2006,116.2004 L12.8996,115.7994 L12.3996,114.5004 L11.7996,114.4004 L11.2996,114.4004 L10.8996,113.9004 L11.4996,113.1004 L12.0996,111.2994 L12.7996,111.2994 L13.5996,109.7004 L13.7996,109.2994 L13.3996,108.2004 L13.8996,107.5004 L13.7996,106.6004 L12.3996,102.9004 L12.5996,102.1004 L12.3996,101.7004 L10.8996,101.5004 L9.2996,103.0004 L8.4996,102.9004 L7.3996,101.5004 L7.8996,100.9004 L8.2996,100.4004 L8.7996,99.0004 L9.4996,99.0004 L10.4996,98.2994 L10.8996,98.9004 L11.2996,98.9004 L12.0996,97.7004 L13.3996,97.7004 L14.7006,99.0004 L16.9996,101.5004 L17.2006,101.2994 L16.4996,99.9004 L15.4996,99.2994 L14.7996,98.4004 L14.2996,97.7004 L14.2996,97.4004 L14.9996,97.6004 L15.5996,97.7994 L16.7996,99.4004 L16.8996,98.7994 L17.3996,98.7994 L17.9996,99.7004 L18.0996,98.7994 L16.5996,97.6004 L15.0996,96.7994 L14.9996,96.7994 L14.4996,95.6004 L14.4996,95.4004 L15.2006,95.2004 L15.3996,94.9004 L15.3996,94.7994 L15.2006,93.7004 L15.4996,93.2004 L16.4996,94.7994 L16.9996,95.0004 L17.4996,94.6004 L18.4996,94.7004 L18.9996,95.2994 L19.2006,96.2994 L19.7996,96.7004 L20.2006,96.5004 L20.0996,95.7004 L20.3996,95.7004 L20.7996,96.0004 L21.0996,96.2004 L20.0996,101.6004 L19.3996,103.0004 L19.2996,103.2004 L18.2996,104.2004 L17.8996,106.0004 L18.2996,106.9004 L18.4996,106.9004 L19.4996,107.1004 L19.7996,108.5004 L19.7996,108.6004 L19.0996,111.6004 L20.0996,114.1004 L20.0996,114.9004 L20.8996,115.1004 L21.2006,116.1004 L22.2006,116.2994 L22.5996,116.6004 L23.0996,116.2004 L23.2006,114.7994 L22.7006,114.7004 L22.7996,114.4004 L23.0996,114.1004 L23.7006,114.0004 L23.9996,114.4004 L23.7996,114.9004 L23.5996,115.4004 L24.5996,116.7994 L24.2006,117.7994 L23.4996,118.2994 L22.5996,117.4004 L22.0996,117.6004 L20.3996,120.1004 L20.5996,120.7994 L21.2996,121.2994 L20.7006,122.5004 L21.3996,123.7004 L21.8996,123.7994 L22.3996,123.1004 L22.4996,122.5004 L22.9996,122.0004 L24.4996,122.2994 L25.2996,123.4004 L25.8996,123.5004 L25.9996,123.0004 L24.8996,121.6004 L24.9996,121.2994 L26.2996,122.4004 L26.4996,122.0004 L24.8996,119.5004 L26.4996,118.5004 L26.8996,118.0004 L27.4996,117.2004 L26.7006,115.0004 L26.2996,114.9004 L26.0996,115.2994 L26.4996,116.4004 L25.9996,116.5004 L25.2006,115.2994 L25.4996,114.6004 L26.3996,114.5004 L27.2006,113.7004 L26.4996,112.6004 L25.5996,112.4004 L25.3996,112.0004 L25.9996,110.7004 L25.8996,110.2994 L25.8996,110.1004 L26.2996,109.2994 L26.0996,108.6004 L26.7996,107.7994 L26.9996,106.9004 L26.8996,106.7004 L26.4996,105.7994 L27.5996,104.0004 L28.2996,103.4004 L27.8996,102.9004 L27.7006,101.9004 L28.5996,101.2994 L28.9996,100.4004 L29.2006,99.2004 L29.5996,99.1004 L30.2006,100.4004 L31.2996,100.6004 L31.8996,101.5004 L31.9996,102.4004 L33.4996,103.0004 L34.8996,102.1004 L35.5996,101.2004 L35.8996,100.5004 L35.2996,98.7994 L36.0996,97.6004 L36.4996,97.0004 L36.3996,96.4004 L35.8996,96.4004 L35.2006,97.4004 L34.7996,97.5004 L32.2996,96.7994 L32.0996,97.0004 L33.0996,97.5004 L32.8996,97.7004 L32.3996,97.7004 L31.2006,97.0004 L30.2006,97.5004 L29.7006,97.7994 L28.7006,97.4004 L28.0996,96.4004 L26.7006,95.9004 L26.3996,95.4004 L24.7006,93.0004 L24.0996,90.0004 L23.4996,88.9004 L24.0996,87.9004 L23.5996,84.0004 L23.5996,83.7994 L23.0996,82.0004 L24.2006,80.6004 L24.3996,80.4004 L24.9996,78.6004 L25.4996,78.4004 L25.9996,77.9004 L26.8996,77.0004 L26.8996,75.7994 L26.3996,75.5004 L25.2006,72.1004 L25.3996,70.0004 L25.8996,69.1004 L26.9996,68.6004 L27.7996,67.7994 L28.9996,65.2004 L29.3996,64.7994 L30.3996,65.1004 L31.3996,65.7994 L32.4996,67.1004 L32.7006,67.7994 L33.2996,68.2994 L33.7996,69.7994 L33.4996,70.5004 L32.8996,71.6004 L32.8996,72.2004 L32.3996,72.6004 L32.3996,73.4004 L33.4996,72.7004 L34.9996,72.7004 L35.2996,71.6004 L37.0996,70.7004 L37.3996,70.0004 L37.0996,69.0004 L37.2006,68.2004 L38.4996,66.9004 L38.5996,66.1004 L37.9996,65.2994 L38.2996,64.5004 L37.8996,62.7004 L37.3996,62.2004 L36.7996,61.9004 L34.4996,62.0004 L34.0996,61.6004 L33.9996,61.5004 L33.3996,61.0004 L33.4996,59.5004 L33.9996,57.7004 L33.7006,56.4004 L34.2996,55.9004 L34.9996,54.4004 L34.8996,54.2994 L35.7006,54.6004 C35.7006,55.2004 36.0996,55.4004 36.7996,54.9004 C37.4996,54.4004 38.0996,53.5004 37.8996,53.1004 C37.7006,52.7994 37.4996,52.5004 37.0996,52.4004 C36.7006,52.2994 35.4996,52.1004 35.8996,51.7994 L36.0996,51.7004 L36.8996,50.6004 L36.8996,50.1004 L37.8996,49.6004 L39.0996,48.1004 L39.4996,45.4004 L39.0996,42.1004 L39.2006,39.1004 L38.4996,38.2004 L38.2006,35.7994 L38.5996,34.6004 L39.2996,34.2994 L39.8996,35.7994 L39.9996,36.1004 L39.7996,36.7994 L40.2996,37.4004 L40.8996,37.6004 L41.0996,38.2994 L41.4996,38.4004 L41.9996,37.6004 L43.2006,37.0004 L44.2006,36.1004 L44.2996,33.5004 L45.7006,34.5004 L45.9996,35.7004 L45.0996,37.2994 L45.2996,37.4004 L45.3996,37.4004 L45.9996,37.7994 L47.2996,36.6004 L47.3996,36.0004 L47.3996,35.7994 L47.0996,35.1004 L46.4996,34.4004 L46.7006,33.5004 L45.7996,33.0004 L45.5996,32.6004 L45.9996,29.2004 L46.5996,28.2994 L46.7006,27.0004 L46.4996,26.5004 L46.9996,25.2994 L46.8996,24.0004 L45.7996,23.6004 L45.7996,23.4004 L47.3996,22.7004 L51.2996,21.1004 L52.4996,20.2994 L52.8996,19.2994 L53.2996,19.0004 L53.8996,18.2004 L54.3996,18.2994 L55.2006,19.1004 L55.7996,18.9004 L57.3996,17.5004 L58.0996,16.7994 L58.8996,17.6004 L58.9996,18.2004 L59.5996,18.6004 L60.2996,18.4004 L61.2006,18.1004 L63.0996,17.1004 L63.8996,16.2004 L64.5996,15.2994 L64.3996,14.7994 L64.8996,13.7994 L64.7996,12.6004 L65.4996,11.1004 L68.7996,8.9004 L68.8996,8.9004 L69.0996,8.6004 L69.5996,7.9004 L69.4996,7.2004 L69.7996,6.0004 L70.2006,5.7994 L70.3996,6.6004 L70.7996,6.7994 L73.0996,6.7004 L74.9006,6.1004 L75.7006,6.6004 L76.7996,6.4004 L77.7996,5.1004 L78.4996,3.9004 L79.2006,3.6004 L81.2006,3.5004 L82.4996,5.2994 L82.5996,5.1004 L83.7996,5.5004 L84.7006,6.2994 L87.0996,6.5004 L87.2006,6.5004 L87.5996,6.5004 L88.4996,7.2994 L90.0996,8.0004 L90.4006,8.5004 L93.7006,10.2994 L97.9006,13.2994 L97.2996,14.2994 L97.4996,14.9004 L97.2996,17.0004 L97.7996,17.5004 L97.2006,19.7994 L97.4996,21.7004 L97.7006,21.9004 L99.4006,23.7994 L99.2996,24.4004 L99.7996,25.2994 L101.2996,27.2004 L102.5996,27.7004 L103.9006,28.7004 L104.2006,31.5004 L103.7006,33.0004 L104.2006,34.0004 L103.9996,36.0004 L104.7006,37.0004 L104.9006,37.1004 L107.9996,38.7004 L109.2006,39.7004 L110.7996,40.0004 L114.9006,39.9004 L116.9006,39.1004 L120.7996,39.2004 L121.4006,39.1004 L123.5996,40.1004 L123.9996,40.7004 L123.5996,41.0004 L122.5996,40.5004 L121.9996,40.6004 L126.2006,43.9004 L126.4996,44.0004 L125.9996,43.4004 L125.9996,42.7994 L126.9006,43.4004 L129.7006,44.4004 L130.7006,44.9004 L131.9006,46.7994 L131.9996,49.7994 L131.5996,52.2994 L132.5996,53.5004 L133.7996,56.6004 L133.9006,58.2994 L134.4006,60.2004 L134.5996,63.6004 L134.9996,64.5004 L135.7996,66.4004 L135.7996,68.9004 L135.4006,69.4004 C135.4006,69.4004 134.9996,70.6004 134.7996,70.9004 C134.4996,71.2004 134.7996,72.2004 134.7006,72.7994 C134.5996,73.4004 134.2996,73.4004 133.9006,73.5004 C133.4996,73.6004 133.0996,73.9004 132.7996,74.2994 C132.4996,74.7004 132.4996,74.9004 131.7006,74.7004 C130.9006,74.5004 130.9006,73.9004 130.9006,73.6004 C130.9006,73.2994 131.2996,72.9004 131.7006,72.5004 C132.0996,72.1004 131.9006,71.7004 131.2996,71.4004 C130.7006,71.1004 130.7996,71.2994 130.5996,71.6004 C130.2996,71.9004 130.0996,72.6004 129.7996,73.0004 C129.4996,73.2994 129.7996,74.5004 129.4996,74.9004 C129.2006,75.2004 129.4996,76.2994 129.4996,76.2994 L128.4006,76.0004 L127.9996,75.6004 L127.9006,74.7994 L127.4006,74.9004 L127.4006,74.5004 L126.7006,73.6004 L126.0996,74.1004 L124.9996,73.7994 L124.7006,71.9004 L124.2006,74.4004 L124.4006,75.0004 L124.9996,75.2004 L125.9996,75.7994 L126.2996,76.6004 L126.7996,77.2004 L127.4996,77.1004 L129.5996,78.6004 L130.2996,79.4004 L130.4006,79.9004 L130.7996,80.1004 L131.2006,80.2004 L131.9996,81.0004 L132.2996,80.9004 L132.2996,80.5004 L132.7006,80.2004 L132.5996,79.7004 L131.5996,79.2004 L132.2006,78.7994 L132.2006,78.4004 L132.0996,77.6004 L132.4996,77.0004 L132.2996,76.6004 L133.7996,77.2004 L134.2006,77.4004 L134.2996,79.2994 L134.9996,80.0004 L135.0996,80.5004 L133.7006,83.6004 L133.2996,83.6004 L132.9996,84.1004 L132.9006,86.4004 L131.9006,87.7004 L131.4006,87.4004 L130.7996,86.9004 L130.2006,87.0004 L127.9996,87.2994 L127.7006,86.9004 L128.0996,86.5004 L128.9996,86.2004 L129.2006,86.1004 L130.0996,86.1004 L130.2006,85.2994 L129.9006,84.7004 L129.7996,84.6004 L129.0996,84.2994 L128.9006,83.9004 L129.4006,83.5004 L129.7006,83.2994 L129.4006,83.1004 L128.9996,83.1004 L128.0996,83.1004 L127.9006,82.9004 L126.7006,83.1004 L126.0996,82.7004 L124.4006,83.2004 L122.9006,84.1004 L122.7996,84.1004 L121.9006,84.2004 L120.9006,85.0004 L121.0996,85.2994 L122.9006,86.2004 L123.9996,86.1004 L124.4996,86.4004 L123.7996,87.4004 L123.9996,88.4004 L124.5996,88.2004 L124.9006,87.7004 L124.9006,86.7994 L125.7996,86.4004 L126.4996,86.5004 L126.4006,87.2004 L125.5996,87.9004 L125.2996,88.7994 L125.0996,90.4004 L125.2996,91.9004 L125.7006,92.4004 L126.2996,92.7994 L126.4996,92.7004 L125.7006,90.9004 L126.0996,90.2004 L126.5996,89.7994 L127.2006,90.2004 L128.7996,90.2004 L129.0996,90.9004 L128.5996,91.7004 L128.5996,92.7004 L128.9006,93.9004 L128.4996,94.7004 L127.9996,97.0004 L127.5996,97.2994 L126.7996,98.0004 L124.9996,98.4004 L124.4006,97.2994 L124.4996,96.6004 L123.9996,96.4004 L124.2006,96.0004 L122.7996,96.2004 L122.7996,96.7994 L122.2006,98.4004 L122.5996,98.2004 L123.2006,98.2994 L122.9006,99.2004 L122.2996,99.2994 L119.4996,100.2994 L118.4996,103.0004 L118.9006,103.7004 L118.4996,104.9004 L118.7996,107.1004 L119.4006,107.4004 L119.9006,107.1004 L119.9006,107.7994 L118.9996,109.5004 L118.2006,111.0004 L118.4996,111.5004 L118.5996,111.9004 L118.4006,112.0004 L117.5996,113.6004 L116.7006,114.6004 L116.0996,117.5004 L116.0996,117.7994 L117.0996,118.9004 L117.5996,119.0004 L118.7996,120.4004 L118.7996,123.1004 L119.7996,123.5004 L120.2996,123.2994 L122.0996,124.6004 L122.4996,126.0004 L123.2996,127.1004 L124.0996,129.0004 L126.9996,129.2004 L127.9006,133.7994 C127.9006,133.7994 128.2006,137.7004 128.2006,138.2004 C128.2006,138.7004 127.9006,138.9004 126.7006,139.1004 C125.4006,139.4004 124.5996,140.7994 124.5996,140.7994 L124.5996,141.4004 L123.9996,142.2994 L123.9996,146.1004 L123.4996,148.0004 L123.7006,148.7004 L124.4006,149.4004 L124.9996,149.4004 L125.4006,149.4004 L125.9006,149.7004 L126.4996,150.7004 L125.9996,151.0994 L125.7996,151.9004 L124.7006,152.0004 L123.5996,152.9004 L123.2006,153.2004 L122.9996,154.0004 L122.9996,154.2004 L123.2996,155.2004 L124.2996,155.5994 L126.2006,154.5994 C126.2006,154.5994 126.4996,153.7994 126.9996,154.2004 C127.4006,154.5004 127.4996,155.0004 127.4996,155.0004 L127.4996,155.9004 L128.4006,156.7994 L129.2006,157.0994 L129.4006,157.0994 L130.2006,157.0004 L130.5996,156.0994 L131.0996,155.7994 L131.7006,155.7994 L132.7006,156.2994 L133.7006,158.0994 L134.0996,158.2004 L134.7996,158.0004 L135.4006,158.2994 L135.9006,159.5004 L136.9006,159.7004 L137.2006,158.7004 L137.5996,158.7994 L137.7006,159.0994 L137.7996,159.5994 L137.4006,160.7994 L136.9996,163.0004 L136.7996,163.0994 L135.9996,163.7004 L136.2996,165.5994 L136.5996,167.5994 L138.9996,170.0004 L139.2006,170.2004 L139.0996,172.0004 L139.7996,176.0994 L139.5996,176.7004 L138.7006,177.5004 L138.4996,177.0994 L138.0996,176.9004 L137.7996,178.2994 L137.7996,178.5004 L137.9996,179.7004 L139.2996,181.4004 L139.4006,182.2004 L139.2006,182.7994 L138.9996,183.5994 L139.2006,185.2994 L139.4006,187.0004 L139.9996,187.2004 L139.5996,187.7994 L139.2996,189.0004 L139.2006,189.2994 L139.0996,190.2004 L139.4006,191.4004 L139.4996,191.7004 L138.9006,192.7994 L138.5996,193.5994 L137.9006,194.2994 L137.7006,195.9004 L137.7996,197.2004 L138.2006,197.9004 L138.7006,200.7004 L139.7006,202.9004 L140.4996,203.5004 L140.5996,204.0994 L139.9996,206.5994 L139.7996,207.4004 L137.9006,210.9004 L135.0996,211.0004 L134.5996,211.5004 L133.4006,213.7994 L133.5996,214.4004 L133.9996,215.5004 L134.7996,215.2994 L134.9006,215.7004 L132.7996,218.9004 L130.5996,223.5004 L128.0996,226.2994 L127.4006,227.4004 L125.7996,230.0004 L123.2996,231.5994 L122.5996,232.4004 L121.4996,235.7004 L120.5996,237.2004 L119.7006,238.7004 L119.0996,240.5004 L119.2006,242.5004 L117.4996,246.2004 L117.7006,248.5004 L117.7006,248.5994 L117.2996,250.2994 L112.9006,257.2994 L110.4996,266.2004 L109.4006,268.2994 L108.2006,268.7004 L107.2996,270.2994 L107.0996,271.0004 L105.4996,270.7994 L103.9006,271.5004 L101.9006,271.2004 L101.5996,273.5004 L100.7996,274.7994 L100.7006,276.2994 L101.4006,277.2004 L100.2996,279.2004 L100.4006,280.0004 L99.9006,280.7994 L98.9996,281.5004 L97.0996,282.4004 L95.0996,284.7994 L94.7006,285.2994 L94.0996,285.2004 L93.9996,284.4004 L94.2996,282.7004 L94.0996,281.7994 L93.0996,280.5004 L93.0996,278.9004 L92.4006,278.4004 L93.2996,277.5004 L93.9006,277.4004 L94.7996,278.0004 L96.0996,276.0004 L96.7996,274.9004 L97.4006,270.9004 L97.0996,270.5004 L96.7006,270.5994 L96.2996,272.5994 L95.4996,273.0004 L94.9996,274.4004 L94.5996,274.2004 L95.0996,273.2004 L95.5996,267.9004 L94.5996,268.2004 L94.0996,268.7994 L93.9006,270.4004 L93.4996,270.5004 L93.0996,270.2994 L92.9006,270.2004 L92.4006,269.9004 L92.0996,270.2004 L92.2006,270.9004 L91.0996,270.9004 L90.2006,270.0004 L89.7006,269.7994 L89.5996,270.9004 L89.2006,270.9004 L87.9006,268.7994 L87.2996,269.4004 L86.2006,272.2994 L85.9006,271.9004 L85.9006,271.0994 L86.4996,270.5004 L86.7996,268.9004 L87.4006,268.5994 L86.9006,264.2994 L86.4006,264.2994 L86.4996,265.9004 L86.7996,266.7994 L86.4006,266.9004 L86.0996,266.4004 L85.7006,266.2994 L85.4006,268.7004 L84.4996,270.5994 L84.4996,268.5004 L84.0996,267.9004 L83.4996,267.9004 L81.9006,268.7004 L81.7996,268.7994 L81.4006,269.5004 L79.7996,268.7994 L78.7996,269.2004 L78.2006,270.2004 L77.2996,270.2994 L76.9996,270.7994 L76.4996,270.2004 L76.9996,268.9004 L76.9006,268.5004 L75.4996,270.4004 L75.2996,271.5994 L74.4996,272.0994 L75.2006,272.7994 L75.2996,273.5994 L74.9006,273.9004 L76.7006,275.0994 L76.9996,274.7004 L77.7996,275.2994 L78.7996,275.4004 L79.7006,275.0994 L80.2996,275.2004 L80.5996,275.2994 L81.0996,275.4004 L82.5996,274.5994 L83.2006,274.7994 L83.7996,275.9004 L85.2996,274.7004 L85.5996,275.0004 L85.0996,275.7004 L85.2996,276.5994 L86.0996,277.0004 L86.7996,276.9004 L87.2006,277.4004 L87.7006,279.0994 L88.9006,278.5994 L89.0996,277.2004 L89.4996,277.2004 L89.9006,277.7004 L90.4006,279.0004 L89.0996,280.0004 L87.9996,282.9004 L88.4996,286.7994 L88.2006,288.0994 L88.4006,290.0994 L87.4006,291.2994 L87.2006,291.5004 L87.2006,291.9004 L87.2006,292.0994 L87.7006,293.5994 L88.2006,294.0994 L88.5996,293.9004 Z" id="Fill-1" fill="#FFFFFF"></path>
            <path d="M88.5996,293.9004 L55.9996,300.5004 L38.9996,294.9004 L28.4996,287.5004 C28.4996,287.5004 18.0996,266.0004 17.4996,264.9004 C16.8996,263.7994 9.8996,252.0994 9.8996,252.0994 L12.0996,251.5994 L12.7006,251.2994 L16.7006,249.2004 L18.8996,247.7994 L18.5996,246.2004 L19.3996,243.2994 L19.7006,242.2994 L19.7006,242.2004 L19.7996,241.7994 L19.5996,241.2004 L19.3996,241.0004 L17.8996,239.0994 L17.2996,236.2004 L17.9996,235.2004 L17.9996,234.2004 L18.4996,232.4004 L17.8996,230.5004 L18.8996,228.5004 L17.8996,225.7994 L17.9996,225.2004 L16.7006,222.5994 L16.7996,222.0994 L16.8996,221.9004 L16.5996,221.4004 L12.7006,218.0004 L12.2996,215.7994 L12.0996,215.2994 L11.8996,214.9004 L9.9996,212.7994 L8.2996,210.2994 L7.9996,209.0994 L8.2996,207.7004 L7.8996,206.5004 L8.0996,204.7994 L8.4996,204.0994 L8.5996,203.5004 L8.7006,202.9004 L9.4996,202.0004 L10.9996,201.0004 L10.3996,197.7994 L9.4996,195.7004 L9.2006,194.0004 L8.2006,193.0004 L7.7996,192.0994 L7.3996,191.0994 L4.9996,189.0994 L4.2006,188.7004 L3.5996,187.0004 L3.9996,184.7004 L4.2006,183.5004 L4.2006,183.4004 L4.4996,179.7004 L3.9996,177.2004 L3.2996,175.5994 L2.7996,172.0004 L3.2006,171.0004 L2.5996,169.2004 L3.0996,166.4004 L2.5996,164.2004 L2.4996,163.2994 L2.2996,160.7004 L2.7006,159.4004 L2.3996,157.4004 L2.7006,156.5004 L3.2996,155.7004 L3.3996,155.5004 L3.5996,154.5994 L2.9996,151.0004 L2.9996,150.2004 L2.7996,146.9004 L2.7006,146.2994 L2.5996,146.2994 L2.2006,146.0004 L2.0996,145.4004 L2.3996,144.6004 L2.4996,142.2994 L2.4996,141.9004 L2.0996,140.0004 L2.4996,138.4004 L1.2996,136.6004 L1.8996,135.4004 L1.8996,134.6004 L1.3996,133.9004 L0.7996,133.7004 L0.4996,133.2004 L1.4996,131.2004 L1.2006,130.2004 L1.5996,128.9004 L2.0996,127.2004 L2.0996,127.1004 L2.5996,123.9004 L3.2996,121.9004 L3.2996,121.7994 L3.3996,121.6004 L3.2996,121.2004 L2.8996,119.7994 L2.7006,119.2994 L2.5996,119.2994 L2.2996,119.2004 L1.7006,119.4004 L1.4996,118.7004 L2.3996,117.7004 L3.7006,116.2004 L4.0996,115.7004 L5.8996,114.2994 L5.9996,114.2004 L6.0996,114.2004 L7.2006,113.9004 L8.2006,114.1004 L8.7006,114.7994 L9.8996,116.4004 L10.4996,119.9004 L11.4996,120.2004 L11.7006,120.7004 L11.9996,121.4004 L11.8996,122.0004 L11.7996,122.9004 L12.2996,125.5004 L12.2996,125.7004 L13.7006,126.2994 L15.0996,125.9004 L15.2996,125.6004 L15.9996,124.9004 L15.8996,124.2994 L15.3996,123.6004 L14.3996,123.0004 L13.5996,121.7994 L13.8996,121.4004 L14.8996,121.2994 L15.0996,121.1004 L15.2996,120.7994 L15.0996,120.6004 L13.3996,118.2004 L13.8996,117.4004 L13.5996,116.7004 L13.2006,116.2004 L12.8996,115.7994 L12.3996,114.5004 L11.7996,114.4004 L11.2996,114.4004 L10.8996,113.9004 L11.4996,113.1004 L12.0996,111.2994 L12.7996,111.2994 L13.5996,109.7004 L13.7996,109.2994 L13.3996,108.2004 L13.8996,107.5004 L13.7996,106.6004 L12.3996,102.9004 L12.5996,102.1004 L12.3996,101.7004 L10.8996,101.5004 L9.2996,103.0004 L8.4996,102.9004 L7.3996,101.5004 L7.8996,100.9004 L8.2996,100.4004 L8.7996,99.0004 L9.4996,99.0004 L10.4996,98.2994 L10.8996,98.9004 L11.2996,98.9004 L12.0996,97.7004 L13.3996,97.7004 L14.7006,99.0004 L16.9996,101.5004 L17.2006,101.2994 L16.4996,99.9004 L15.4996,99.2994 L14.7996,98.4004 L14.2996,97.7004 L14.2996,97.4004 L14.9996,97.6004 L15.5996,97.7994 L16.7996,99.4004 L16.8996,98.7994 L17.3996,98.7994 L17.9996,99.7004 L18.0996,98.7994 L16.5996,97.6004 L15.0996,96.7994 L14.9996,96.7994 L14.4996,95.6004 L14.4996,95.4004 L15.2006,95.2004 L15.3996,94.9004 L15.3996,94.7994 L15.2006,93.7004 L15.4996,93.2004 L16.4996,94.7994 L16.9996,95.0004 L17.4996,94.6004 L18.4996,94.7004 L18.9996,95.2994 L19.2006,96.2994 L19.7996,96.7004 L20.2006,96.5004 L20.0996,95.7004 L20.3996,95.7004 L20.7996,96.0004 L21.0996,96.2004 L20.0996,101.6004 L19.3996,103.0004 L19.2996,103.2004 L18.2996,104.2004 L17.8996,106.0004 L18.2996,106.9004 L18.4996,106.9004 L19.4996,107.1004 L19.7996,108.5004 L19.7996,108.6004 L19.0996,111.6004 L20.0996,114.1004 L20.0996,114.9004 L20.8996,115.1004 L21.2006,116.1004 L22.2006,116.2994 L22.5996,116.6004 L23.0996,116.2004 L23.2006,114.7994 L22.7006,114.7004 L22.7996,114.4004 L23.0996,114.1004 L23.7006,114.0004 L23.9996,114.4004 L23.7996,114.9004 L23.5996,115.4004 L24.5996,116.7994 L24.2006,117.7994 L23.4996,118.2994 L22.5996,117.4004 L22.0996,117.6004 L20.3996,120.1004 L20.5996,120.7994 L21.2996,121.2994 L20.7006,122.5004 L21.3996,123.7004 L21.8996,123.7994 L22.3996,123.1004 L22.4996,122.5004 L22.9996,122.0004 L24.4996,122.2994 L25.2996,123.4004 L25.8996,123.5004 L25.9996,123.0004 L24.8996,121.6004 L24.9996,121.2994 L26.2996,122.4004 L26.4996,122.0004 L24.8996,119.5004 L26.4996,118.5004 L26.8996,118.0004 L27.4996,117.2004 L26.7006,115.0004 L26.2996,114.9004 L26.0996,115.2994 L26.4996,116.4004 L25.9996,116.5004 L25.2006,115.2994 L25.4996,114.6004 L26.3996,114.5004 L27.2006,113.7004 L26.4996,112.6004 L25.5996,112.4004 L25.3996,112.0004 L25.9996,110.7004 L25.8996,110.2994 L25.8996,110.1004 L26.2996,109.2994 L26.0996,108.6004 L26.7996,107.7994 L26.9996,106.9004 L26.8996,106.7004 L26.4996,105.7994 L27.5996,104.0004 L28.2996,103.4004 L27.8996,102.9004 L27.7006,101.9004 L28.5996,101.2994 L28.9996,100.4004 L29.2006,99.2004 L29.5996,99.1004 L30.2006,100.4004 L31.2996,100.6004 L31.8996,101.5004 L31.9996,102.4004 L33.4996,103.0004 L34.8996,102.1004 L35.5996,101.2004 L35.8996,100.5004 L35.2996,98.7994 L36.0996,97.6004 L36.4996,97.0004 L36.3996,96.4004 L35.8996,96.4004 L35.2006,97.4004 L34.7996,97.5004 L32.2996,96.7994 L32.0996,97.0004 L33.0996,97.5004 L32.8996,97.7004 L32.3996,97.7004 L31.2006,97.0004 L30.2006,97.5004 L29.7006,97.7994 L28.7006,97.4004 L28.0996,96.4004 L26.7006,95.9004 L26.3996,95.4004 L24.7006,93.0004 L24.0996,90.0004 L23.4996,88.9004 L24.0996,87.9004 L23.5996,84.0004 L23.5996,83.7994 L23.0996,82.0004 L24.2006,80.6004 L24.3996,80.4004 L24.9996,78.6004 L25.4996,78.4004 L25.9996,77.9004 L26.8996,77.0004 L26.8996,75.7994 L26.3996,75.5004 L25.2006,72.1004 L25.3996,70.0004 L25.8996,69.1004 L26.9996,68.6004 L27.7996,67.7994 L28.9996,65.2004 L29.3996,64.7994 L30.3996,65.1004 L31.3996,65.7994 L32.4996,67.1004 L32.7006,67.7994 L33.2996,68.2994 L33.7996,69.7994 L33.4996,70.5004 L32.8996,71.6004 L32.8996,72.2004 L32.3996,72.6004 L32.3996,73.4004 L33.4996,72.7004 L34.9996,72.7004 L35.2996,71.6004 L37.0996,70.7004 L37.3996,70.0004 L37.0996,69.0004 L37.2006,68.2004 L38.4996,66.9004 L38.5996,66.1004 L37.9996,65.2994 L38.2996,64.5004 L37.8996,62.7004 L37.3996,62.2004 L36.7996,61.9004 L34.4996,62.0004 L34.0996,61.6004 L33.9996,61.5004 L33.3996,61.0004 L33.4996,59.5004 L33.9996,57.7004 L33.7006,56.4004 L34.2996,55.9004 L34.9996,54.4004 L34.8996,54.2994 L35.7006,54.6004 C35.7006,55.2004 36.0996,55.4004 36.7996,54.9004 C37.4996,54.4004 38.0996,53.5004 37.8996,53.1004 C37.7006,52.7994 37.4996,52.5004 37.0996,52.4004 C36.7006,52.2994 35.4996,52.1004 35.8996,51.7994 L36.0996,51.7004 L36.8996,50.6004 L36.8996,50.1004 L37.8996,49.6004 L39.0996,48.1004 L39.4996,45.4004 L39.0996,42.1004 L39.2006,39.1004 L38.4996,38.2004 L38.2006,35.7994 L38.5996,34.6004 L39.2996,34.2994 L39.8996,35.7994 L39.9996,36.1004 L39.7996,36.7994 L40.2996,37.4004 L40.8996,37.6004 L41.0996,38.2994 L41.4996,38.4004 L41.9996,37.6004 L43.2006,37.0004 L44.2006,36.1004 L44.2996,33.5004 L45.7006,34.5004 L45.9996,35.7004 L45.0996,37.2994 L45.2996,37.4004 L45.3996,37.4004 L45.9996,37.7994 L47.2996,36.6004 L47.3996,36.0004 L47.3996,35.7994 L47.0996,35.1004 L46.4996,34.4004 L46.7006,33.5004 L45.7996,33.0004 L45.5996,32.6004 L45.9996,29.2004 L46.5996,28.2994 L46.7006,27.0004 L46.4996,26.5004 L46.9996,25.2994 L46.8996,24.0004 L45.7996,23.6004 L45.7996,23.4004 L47.3996,22.7004 L51.2996,21.1004 L52.4996,20.2994 L52.8996,19.2994 L53.2996,19.0004 L53.8996,18.2004 L54.3996,18.2994 L55.2006,19.1004 L55.7996,18.9004 L57.3996,17.5004 L58.0996,16.7994 L58.8996,17.6004 L58.9996,18.2004 L59.5996,18.6004 L60.2996,18.4004 L61.2006,18.1004 L63.0996,17.1004 L63.8996,16.2004 L64.5996,15.2994 L64.3996,14.7994 L64.8996,13.7994 L64.7996,12.6004 L65.4996,11.1004 L68.7996,8.9004 L68.8996,8.9004 L69.0996,8.6004 L69.5996,7.9004 L69.4996,7.2004 L69.7996,6.0004 L70.2006,5.7994 L70.3996,6.6004 L70.7996,6.7994 L73.0996,6.7004 L74.9006,6.1004 L75.7006,6.6004 L76.7996,6.4004 L77.7996,5.1004 L78.4996,3.9004 L79.2006,3.6004 L81.2006,3.5004 L82.4996,5.2994 L82.5996,5.1004 L83.7996,5.5004 L84.7006,6.2994 L87.0996,6.5004 L87.2006,6.5004 L87.5996,6.5004 L88.4996,7.2994 L90.0996,8.0004 L90.4006,8.5004 L93.7006,10.2994 L97.9006,13.2994 L97.2996,14.2994 L97.4996,14.9004 L97.2996,17.0004 L97.7996,17.5004 L97.2006,19.7994 L97.4996,21.7004 L97.7006,21.9004 L99.4006,23.7994 L99.2996,24.4004 L99.7996,25.2994 L101.2996,27.2004 L102.5996,27.7004 L103.9006,28.7004 L104.2006,31.5004 L103.7006,33.0004 L104.2006,34.0004 L103.9996,36.0004 L104.7006,37.0004 L104.9006,37.1004 L107.9996,38.7004 L109.2006,39.7004 L110.7996,40.0004 L114.9006,39.9004 L116.9006,39.1004 L120.7996,39.2004 L121.4006,39.1004 L123.5996,40.1004 L123.9996,40.7004 L123.5996,41.0004 L122.5996,40.5004 L121.9996,40.6004 L126.2006,43.9004 L126.4996,44.0004 L125.9996,43.4004 L125.9996,42.7994 L126.9006,43.4004 L129.7006,44.4004 L130.7006,44.9004 L131.9006,46.7994 L131.9996,49.7994 L131.5996,52.2994 L132.5996,53.5004 L133.7996,56.6004 L133.9006,58.2994 L134.4006,60.2004 L134.5996,63.6004 L134.9996,64.5004 L135.7996,66.4004 L135.7996,68.9004 L135.4006,69.4004 C135.4006,69.4004 134.9996,70.6004 134.7996,70.9004 C134.4996,71.2004 134.7996,72.2004 134.7006,72.7994 C134.5996,73.4004 134.2996,73.4004 133.9006,73.5004 C133.4996,73.6004 133.0996,73.9004 132.7996,74.2994 C132.4996,74.7004 132.4996,74.9004 131.7006,74.7004 C130.9006,74.5004 130.9006,73.9004 130.9006,73.6004 C130.9006,73.2994 131.2996,72.9004 131.7006,72.5004 C132.0996,72.1004 131.9006,71.7004 131.2996,71.4004 C130.7006,71.1004 130.7996,71.2994 130.5996,71.6004 C130.2996,71.9004 130.0996,72.6004 129.7996,73.0004 C129.4996,73.2994 129.7996,74.5004 129.4996,74.9004 C129.2006,75.2004 129.4996,76.2994 129.4996,76.2994 L128.4006,76.0004 L127.9996,75.6004 L127.9006,74.7994 L127.4006,74.9004 L127.4006,74.5004 L126.7006,73.6004 L126.0996,74.1004 L124.9996,73.7994 L124.7006,71.9004 L124.2006,74.4004 L124.4006,75.0004 L124.9996,75.2004 L125.9996,75.7994 L126.2996,76.6004 L126.7996,77.2004 L127.4996,77.1004 L129.5996,78.6004 L130.2996,79.4004 L130.4006,79.9004 L130.7996,80.1004 L131.2006,80.2004 L131.9996,81.0004 L132.2996,80.9004 L132.2996,80.5004 L132.7006,80.2004 L132.5996,79.7004 L131.5996,79.2004 L132.2006,78.7994 L132.2006,78.4004 L132.0996,77.6004 L132.4996,77.0004 L132.2996,76.6004 L133.7996,77.2004 L134.2006,77.4004 L134.2996,79.2994 L134.9996,80.0004 L135.0996,80.5004 L133.7006,83.6004 L133.2996,83.6004 L132.9996,84.1004 L132.9006,86.4004 L131.9006,87.7004 L131.4006,87.4004 L130.7996,86.9004 L130.2006,87.0004 L127.9996,87.2994 L127.7006,86.9004 L128.0996,86.5004 L128.9996,86.2004 L129.2006,86.1004 L130.0996,86.1004 L130.2006,85.2994 L129.9006,84.7004 L129.7996,84.6004 L129.0996,84.2994 L128.9006,83.9004 L129.4006,83.5004 L129.7006,83.2994 L129.4006,83.1004 L128.9996,83.1004 L128.0996,83.1004 L127.9006,82.9004 L126.7006,83.1004 L126.0996,82.7004 L124.4006,83.2004 L122.9006,84.1004 L122.7996,84.1004 L121.9006,84.2004 L120.9006,85.0004 L121.0996,85.2994 L122.9006,86.2004 L123.9996,86.1004 L124.4996,86.4004 L123.7996,87.4004 L123.9996,88.4004 L124.5996,88.2004 L124.9006,87.7004 L124.9006,86.7994 L125.7996,86.4004 L126.4996,86.5004 L126.4006,87.2004 L125.5996,87.9004 L125.2996,88.7994 L125.0996,90.4004 L125.2996,91.9004 L125.7006,92.4004 L126.2996,92.7994 L126.4996,92.7004 L125.7006,90.9004 L126.0996,90.2004 L126.5996,89.7994 L127.2006,90.2004 L128.7996,90.2004 L129.0996,90.9004 L128.5996,91.7004 L128.5996,92.7004 L128.9006,93.9004 L128.4996,94.7004 L127.9996,97.0004 L127.5996,97.2994 L126.7996,98.0004 L124.9996,98.4004 L124.4006,97.2994 L124.4996,96.6004 L123.9996,96.4004 L124.2006,96.0004 L122.7996,96.2004 L122.7996,96.7994 L122.2006,98.4004 L122.5996,98.2004 L123.2006,98.2994 L122.9006,99.2004 L122.2996,99.2994 L119.4996,100.2994 L118.4996,103.0004 L118.9006,103.7004 L118.4996,104.9004 L118.7996,107.1004 L119.4006,107.4004 L119.9006,107.1004 L119.9006,107.7994 L118.9996,109.5004 L118.2006,111.0004 L118.4996,111.5004 L118.5996,111.9004 L118.4006,112.0004 L117.5996,113.6004 L116.7006,114.6004 L116.0996,117.5004 L116.0996,117.7994 L117.0996,118.9004 L117.5996,119.0004 L118.7996,120.4004 L118.7996,123.1004 L119.7996,123.5004 L120.2996,123.2994 L122.0996,124.6004 L122.4996,126.0004 L123.2996,127.1004 L124.0996,129.0004 L126.9996,129.2004 L127.9006,133.7994 C127.9006,133.7994 128.2006,137.7004 128.2006,138.2004 C128.2006,138.7004 127.9006,138.9004 126.7006,139.1004 C125.4006,139.4004 124.5996,140.7994 124.5996,140.7994 L124.5996,141.4004 L123.9996,142.2994 L123.9996,146.1004 L123.4996,148.0004 L123.7006,148.7004 L124.4006,149.4004 L124.9996,149.4004 L125.4006,149.4004 L125.9006,149.7004 L126.4996,150.7004 L125.9996,151.0994 L125.7996,151.9004 L124.7006,152.0004 L123.5996,152.9004 L123.2006,153.2004 L122.9996,154.0004 L122.9996,154.2004 L123.2996,155.2004 L124.2996,155.5994 L126.2006,154.5994 C126.2006,154.5994 126.4996,153.7994 126.9996,154.2004 C127.4006,154.5004 127.4996,155.0004 127.4996,155.0004 L127.4996,155.9004 L128.4006,156.7994 L129.2006,157.0994 L129.4006,157.0994 L130.2006,157.0004 L130.5996,156.0994 L131.0996,155.7994 L131.7006,155.7994 L132.7006,156.2994 L133.7006,158.0994 L134.0996,158.2004 L134.7996,158.0004 L135.4006,158.2994 L135.9006,159.5004 L136.9006,159.7004 L137.2006,158.7004 L137.5996,158.7994 L137.7006,159.0994 L137.7996,159.5994 L137.4006,160.7994 L136.9996,163.0004 L136.7996,163.0994 L135.9996,163.7004 L136.2996,165.5994 L136.5996,167.5994 L138.9996,170.0004 L139.2006,170.2004 L139.0996,172.0004 L139.7996,176.0994 L139.5996,176.7004 L138.7006,177.5004 L138.4996,177.0994 L138.0996,176.9004 L137.7996,178.2994 L137.7996,178.5004 L137.9996,179.7004 L139.2996,181.4004 L139.4006,182.2004 L139.2006,182.7994 L138.9996,183.5994 L139.2006,185.2994 L139.4006,187.0004 L139.9996,187.2004 L139.5996,187.7994 L139.2996,189.0004 L139.2006,189.2994 L139.0996,190.2004 L139.4006,191.4004 L139.4996,191.7004 L138.9006,192.7994 L138.5996,193.5994 L137.9006,194.2994 L137.7006,195.9004 L137.7996,197.2004 L138.2006,197.9004 L138.7006,200.7004 L139.7006,202.9004 L140.4996,203.5004 L140.5996,204.0994 L139.9996,206.5994 L139.7996,207.4004 L137.9006,210.9004 L135.0996,211.0004 L134.5996,211.5004 L133.4006,213.7994 L133.5996,214.4004 L133.9996,215.5004 L134.7996,215.2994 L134.9006,215.7004 L132.7996,218.9004 L130.5996,223.5004 L128.0996,226.2994 L127.4006,227.4004 L125.7996,230.0004 L123.2996,231.5994 L122.5996,232.4004 L121.4996,235.7004 L120.5996,237.2004 L119.7006,238.7004 L119.0996,240.5004 L119.2006,242.5004 L117.4996,246.2004 L117.7006,248.5004 L117.7006,248.5994 L117.2996,250.2994 L112.9006,257.2994 L110.4996,266.2004 L109.4006,268.2994 L108.2006,268.7004 L107.2996,270.2994 L107.0996,271.0004 L105.4996,270.7994 L103.9006,271.5004 L101.9006,271.2004 L101.5996,273.5004 L100.7996,274.7994 L100.7006,276.2994 L101.4006,277.2004 L100.2996,279.2004 L100.4006,280.0004 L99.9006,280.7994 L98.9996,281.5004 L97.0996,282.4004 L95.0996,284.7994 L94.7006,285.2994 L94.0996,285.2004 L93.9996,284.4004 L94.2996,282.7004 L94.0996,281.7994 L93.0996,280.5004 L93.0996,278.9004 L92.4006,278.4004 L93.2996,277.5004 L93.9006,277.4004 L94.7996,278.0004 L96.0996,276.0004 L96.7996,274.9004 L97.4006,270.9004 L97.0996,270.5004 L96.7006,270.5994 L96.2996,272.5994 L95.4996,273.0004 L94.9996,274.4004 L94.5996,274.2004 L95.0996,273.2004 L95.5996,267.9004 L94.5996,268.2004 L94.0996,268.7994 L93.9006,270.4004 L93.4996,270.5004 L93.0996,270.2994 L92.9006,270.2004 L92.4006,269.9004 L92.0996,270.2004 L92.2006,270.9004 L91.0996,270.9004 L90.2006,270.0004 L89.7006,269.7994 L89.5996,270.9004 L89.2006,270.9004 L87.9006,268.7994 L87.2996,269.4004 L86.2006,272.2994 L85.9006,271.9004 L85.9006,271.0994 L86.4996,270.5004 L86.7996,268.9004 L87.4006,268.5994 L86.9006,264.2994 L86.4006,264.2994 L86.4996,265.9004 L86.7996,266.7994 L86.4006,266.9004 L86.0996,266.4004 L85.7006,266.2994 L85.4006,268.7004 L84.4996,270.5994 L84.4996,268.5004 L84.0996,267.9004 L83.4996,267.9004 L81.9006,268.7004 L81.7996,268.7994 L81.4006,269.5004 L79.7996,268.7994 L78.7996,269.2004 L78.2006,270.2004 L77.2996,270.2994 L76.9996,270.7994 L76.4996,270.2004 L76.9996,268.9004 L76.9006,268.5004 L75.4996,270.4004 L75.2996,271.5994 L74.4996,272.0994 L75.2006,272.7994 L75.2996,273.5994 L74.9006,273.9004 L76.7006,275.0994 L76.9996,274.7004 L77.7996,275.2994 L78.7996,275.4004 L79.7006,275.0994 L80.2996,275.2004 L80.5996,275.2994 L81.0996,275.4004 L82.5996,274.5994 L83.2006,274.7994 L83.7996,275.9004 L85.2996,274.7004 L85.5996,275.0004 L85.0996,275.7004 L85.2996,276.5994 L86.0996,277.0004 L86.7996,276.9004 L87.2006,277.4004 L87.7006,279.0994 L88.9006,278.5994 L89.0996,277.2004 L89.4996,277.2004 L89.9006,277.7004 L90.4006,279.0004 L89.0996,280.0004 L87.9996,282.9004 L88.4996,286.7994 L88.2006,288.0994 L88.4006,290.0994 L87.4006,291.2994 L87.2006,291.5004 L87.2006,291.9004 L87.2006,292.0994 L87.7006,293.5994 L88.2006,294.0994 L88.5996,293.9004 Z" id="Stroke-3" stroke="#E75F52" stroke-linecap="round" stroke-linejoin="round"></path>
            <polygon id="Fill-5" fill="#FFFFFF" points="74.7002 0.5 77.8002 0.8 78.0992 0.6 79.8002 0.5 80.5002 1 80.4002 1.2 79.4002 0.9 76.0992 1.3 75.7002 1.7 76.2002 2.2 75.8002 2.5 74.5992 2.3 74.9002 1.6 74.5002 0.9"></polygon>
            <polygon id="Stroke-7" stroke="#E75F52" stroke-linecap="round" stroke-linejoin="round" points="74.7002 0.5 77.8002 0.8 78.0992 0.6 79.8002 0.5 80.5002 1 80.4002 1.2 79.4002 0.9 76.0992 1.3 75.7002 1.7 76.2002 2.2 75.8002 2.5 74.5992 2.3 74.9002 1.6 74.5002 0.9"></polygon>
            <polygon id="Fill-9" fill="#FFFFFF" points="83.2998 2.8999 84.1998 3.5999 84.4998 4.3999 84.9998 4.9999 86.4998 6.0999 86.4998 6.4999 85.6998 6.4999 82.5998 3.4999 81.9008 3.2999 81.4998 3.4999 81.4998 3.1999 81.9998 2.6999 82.4008 2.4999"></polygon>
            <polygon id="Stroke-11" stroke="#E75F52" stroke-linecap="round" stroke-linejoin="round" points="83.2998 2.8999 84.1998 3.5999 84.4998 4.3999 84.9998 4.9999 86.4998 6.0999 86.4998 6.4999 85.6998 6.4999 82.5998 3.4999 81.9008 3.2999 81.4998 3.4999 81.4998 3.1999 81.9998 2.6999 82.4008 2.4999"></polygon>
            <polygon id="Fill-13" fill="#FFFFFF" points="20.8999 111.5 21.5999 112.4 22.4999 113.1 22.4999 113.4 22.0999 113.5 20.9999 112.6 20.4999 111.6"></polygon>
            <polygon id="Stroke-15" stroke="#E75F52" stroke-linecap="round" stroke-linejoin="round" points="20.8999 111.5 21.5999 112.4 22.4999 113.1 22.4999 113.4 22.0999 113.5 20.9999 112.6 20.4999 111.6"></polygon>
            <polygon id="Fill-17" fill="#FFFFFF" points="131 134.5 132.5 135.8 132.4 136.4 131.9 136.7 130.6 138.5 130.5 137.9 131.4 136.8 130.6 135.1 130.6 134.7"></polygon>
            <polygon id="Stroke-19" stroke="#E75F52" stroke-linecap="round" stroke-linejoin="round" points="131 134.5 132.5 135.8 132.4 136.4 131.9 136.7 130.6 138.5 130.5 137.9 131.4 136.8 130.6 135.1 130.6 134.7"></polygon>
            <polygon id="Fill-21" fill="#FFFFFF" points="131.5 146.5 131.6 146.1 131.9 145.8 133 145.5 133.5 146"></polygon>
            <polygon id="Stroke-23" stroke="#E75F52" stroke-linecap="round" stroke-linejoin="round" points="131.5 146.5 131.6 146.1 131.9 145.8 133 145.5 133.5 146"></polygon>
            <polygon id="Fill-25" fill="#FFFFFF" points="92.7998 270.5 92.9008 270.8 94.4008 272.2 94.4998 272.5 93.9008 272.2 93.6998 272.3 92.9008 271.7 92.4998 271.1 92.4998 270.5"></polygon>
            <polygon id="Stroke-27" stroke="#E75F52" stroke-linecap="round" stroke-linejoin="round" points="92.7998 270.5 92.9008 270.8 94.4008 272.2 94.4998 272.5 93.9008 272.2 93.6998 272.3 92.9008 271.7 92.4998 271.1 92.4998 270.5"></polygon>
            <g id="Group-32" transform="translate(138.000000, 250.000000)">
                <path d="M0.5,1.0996 C0.5,1.4996 1.6,1.7006 1.5,0.9006 C1.4,0.0996 0.5,0.7006 0.5,1.0996" id="Fill-29" fill="#FFFFFF"></path>
                <path d="M0.5,1.0996 C0.5,1.4996 1.6,1.7006 1.5,0.9006 C1.4,0.0996 0.5,0.7006 0.5,1.0996" id="Stroke-31" stroke="#E75F52" stroke-linecap="round" stroke-linejoin="round"></path>
            </g>
            <g id="Group-36" transform="translate(140.000000, 249.000000)">
                <path d="M0.7002,0.5996 C0.4002,0.7996 0.5002,1.4006 0.9002,1.4996 C1.3002,1.5996 1.5992,1.2006 1.5992,0.9006 C1.5992,0.5996 1.0002,0.4006 0.7002,0.5996" id="Fill-33" fill="#FFFFFF"></path>
                <path d="M0.7002,0.5996 C0.4002,0.7996 0.5002,1.4006 0.9002,1.4996 C1.3002,1.5996 1.5992,1.2006 1.5992,0.9006 C1.5992,0.5996 1.0002,0.4006 0.7002,0.5996" id="Stroke-35" stroke="#E75F52" stroke-linecap="round" stroke-linejoin="round"></path>
            </g>
            <g id="Group-40" transform="translate(138.000000, 213.000000)">
                <path d="M0.5,0.7002 C0.3,1.0992 2.5,1.9002 2.5,1.4002 C2.5,0.9002 0.7,0.2002 0.5,0.7002" id="Fill-37" fill="#FFFFFF"></path>
                <path d="M0.5,0.7002 C0.3,1.0992 2.5,1.9002 2.5,1.4002 C2.5,0.9002 0.7,0.2002 0.5,0.7002" id="Stroke-39" stroke="#E75F52" stroke-linecap="round" stroke-linejoin="round"></path>
            </g>
            <g id="Group-44" transform="translate(143.000000, 215.000000)">
                <path d="M0.7998,0.5 C0.2998,0.6 0.4008,1.6 1.1998,1.5 C1.9008,1.4 1.2998,0.4 0.7998,0.5" id="Fill-41" fill="#FFFFFF"></path>
                <path d="M0.7998,0.5 C0.2998,0.6 0.4008,1.6 1.1998,1.5 C1.9008,1.4 1.2998,0.4 0.7998,0.5" id="Stroke-43" stroke="#E75F52" stroke-linecap="round" stroke-linejoin="round"></path>
            </g>
            <g id="Group-48" transform="translate(145.000000, 218.000000)">
                <path d="M0.5,0.9004 C0.5,1.4004 1.5,1.7994 1.5,1.0004 C1.5,0.2004 0.5,0.4004 0.5,0.9004" id="Fill-45" fill="#FFFFFF"></path>
                <path d="M0.5,0.9004 C0.5,1.4004 1.5,1.7994 1.5,1.0004 C1.5,0.2004 0.5,0.4004 0.5,0.9004" id="Stroke-47" stroke="#E75F52" stroke-linecap="round" stroke-linejoin="round"></path>
            </g>
            <g id="Group-52" transform="translate(141.000000, 213.000000)">
                <path d="M0.5,0.5 C0.5,0.8 1.5,0.5 1.5,0.5 C1.5,0.5 0.5,0.2 0.5,0.5" id="Fill-49" fill="#FFFFFF"></path>
                <path d="M0.5,0.5 C0.5,0.8 1.5,0.5 1.5,0.5 C1.5,0.5 0.5,0.2 0.5,0.5" id="Stroke-51" stroke="#E75F52" stroke-linecap="round" stroke-linejoin="round"></path>
            </g>
            <g id="Group-56" transform="translate(128.000000, 153.000000)">
                <path d="M1,0.5 C1,0.5 0.3,0.7 0.6,1 C0.9,1.3 0.9,1.4 1.2,1.5 C1.5,1.6 1.7,1.4 1.5,1.2 C1.2,0.9 1,0.5 1,0.5" id="Fill-53" fill="#FFFFFF"></path>
                <path d="M1,0.5 C1,0.5 0.3,0.7 0.6,1 C0.9,1.3 0.9,1.4 1.2,1.5 C1.5,1.6 1.7,1.4 1.5,1.2 C1.2,0.9 1,0.5 1,0.5" id="Stroke-55" stroke="#E75F52" stroke-linecap="round" stroke-linejoin="round"></path>
            </g>
            <path d="M127.7002,139.5 L126.0992,140.4 C126.0992,140.4 125.0992,141.7 125.7002,142.6 C126.3002,143.6 127.4002,144.5 127.8002,144.7 C128.2002,144.9 129.7002,145.4 130.4002,145.4 C131.0992,145.4 131.8002,145.7 132.4002,145.2 C133.0002,144.8 133.2002,144.5 133.5002,143.9 C133.8002,143.3 133.4002,141.2 132.8002,140.9 C132.2002,140.6 129.0002,139.6 129.0002,139.6 L127.7002,139.5 Z" id="Fill-57" fill="#FFFFFF"></path>
            <path d="M127.7002,139.5 L126.0992,140.4 C126.0992,140.4 125.0992,141.7 125.7002,142.6 C126.3002,143.6 127.4002,144.5 127.8002,144.7 C128.2002,144.9 129.7002,145.4 130.4002,145.4 C131.0992,145.4 131.8002,145.7 132.4002,145.2 C133.0002,144.8 133.2002,144.5 133.5002,143.9 C133.8002,143.3 133.4002,141.2 132.8002,140.9 C132.2002,140.6 129.0002,139.6 129.0002,139.6 L127.7002,139.5 Z" id="Stroke-59" stroke="#E75F52" stroke-linecap="round" stroke-linejoin="round"></path>
            <polygon id="Fill-61" fill="#FFFFFF" points="125.5 127.7002 126.6 128.5002 127.5 127.5002 126.6 127.6002"></polygon>
            <polygon id="Stroke-63" stroke="#E75F52" stroke-linecap="round" stroke-linejoin="round" points="125.5 127.7002 126.6 128.5002 127.5 127.5002 126.6 127.6002"></polygon>
            <g id="Group-68" transform="translate(125.000000, 100.000000)">
                <path d="M0.5996,1.5 C1.2006,1.7 1.4996,0.5 1.4996,0.5 C1.4996,0.5 -0.0004,1.3 0.5996,1.5" id="Fill-65" fill="#FFFFFF"></path>
                <path d="M0.5996,1.5 C1.2006,1.7 1.4996,0.5 1.4996,0.5 C1.4996,0.5 -0.0004,1.3 0.5996,1.5" id="Stroke-67" stroke="#E75F52" stroke-linecap="round" stroke-linejoin="round"></path>
            </g>
            <g id="Group-72" transform="translate(126.000000, 84.000000)">
                <path d="M0.7998,0.5 C0.4008,0.6 0.2998,0.7 0.9008,1 C1.4998,1.3 2.2998,1.5 2.2998,1.5 C2.2998,1.5 2.5998,1 2.1998,0.8 C1.7998,0.6 1.2998,0.4 0.7998,0.5" id="Fill-69" fill="#FFFFFF"></path>
                <path d="M0.7998,0.5 C0.4008,0.6 0.2998,0.7 0.9008,1 C1.4998,1.3 2.2998,1.5 2.2998,1.5 C2.2998,1.5 2.5998,1 2.1998,0.8 C1.7998,0.6 1.2998,0.4 0.7998,0.5" id="Stroke-71" stroke="#E75F52" stroke-linecap="round" stroke-linejoin="round"></path>
            </g>
        </g>
    </g>
</svg>