<?xml version="1.0" encoding="UTF-8"?>
<svg width="256px" height="300px" viewBox="0 0 256 300" version="1.1" xmlns="http://www.w3.org/2000/svg" xmlns:xlink="http://www.w3.org/1999/xlink">
    <!-- Generator: Sketch 64 (93537) - https://sketch.com -->
    <title>34</title>
    <desc>Created with Sketch.</desc>
    <g id="34" stroke="none" stroke-width="1" fill="none" fill-rule="evenodd">
        <g id="Group-31" transform="translate(4.000000, 4.000000)" fill="#FFFFFF">
            <path d="M216.11976,9.48179158 L212.255489,9.96390456 L211.772455,10.446339 L210.323353,10.9281305 L209.840319,10.9281305 L209.357285,11.4102435 L208.391218,11.4102435 L207.42515,12.3744695 L206.942116,12.3744695 L206.459082,12.3744695 L205.976048,12.3744695 L205.00998,12.8565825 L204.043912,13.3390169 L203.560878,12.8565825 L203.077844,13.3390169 L200.662675,13.3390169 L199.213573,13.8208084 L197.281437,14.3029214 L196.315369,14.3029214 L195.349301,14.7853558 L194.383234,14.7853558 L192.934132,15.2671474 L191.48503,15.7492604 L191.001996,16.2316948 L191.001996,16.7134863 L190.035928,17.1955993 L189.552894,16.7134863 L189.06986,16.2316948 L186.654691,14.7853558 L186.171657,14.7853558 L184.239521,15.7492604 L184.239521,15.2671474 L183.756487,15.2671474 L183.756487,15.7492604 L183.273453,15.7492604 L183.273453,15.2671474 L182.790419,15.7492604 L183.273453,16.2316948 L183.756487,16.2316948 L184.239521,16.7134863 L184.722555,16.7134863 L185.205589,17.1955993 L185.688623,17.1955993 L185.688623,17.6780337 L185.205589,17.6780337 L184.722555,17.6780337 L184.239521,17.6780337 L184.239521,17.1955993 L183.273453,16.7134863 L183.273453,16.2316948 L182.307385,16.2316948 L181.824351,17.1955993 L182.307385,17.1955993 L182.790419,17.6780337 L183.273453,17.6780337 L183.273453,18.1598253 L182.790419,18.6419383 L182.307385,18.1598253 L182.307385,18.6419383 L182.790419,19.1243727 L183.273453,19.1243727 L183.756487,19.1243727 L184.239521,19.1243727 L184.722555,19.1243727 L185.205589,19.1243727 L185.205589,19.6061642 L184.239521,19.6061642 L183.756487,19.6061642 L182.790419,19.1243727 L182.790419,19.6061642 L182.307385,19.1243727 L182.307385,19.6061642 L182.790419,20.0882772 L183.273453,20.0882772 L183.756487,20.0882772 L184.239521,20.0882772 L184.722555,20.0882772 L185.205589,20.0882772 L185.688623,19.6061642 L185.688623,20.0882772 L185.688623,20.5707116 L185.205589,20.5707116 L185.688623,21.0525032 L186.171657,20.5707116 L186.654691,20.5707116 L186.654691,21.0525032 L186.171657,21.5346162 L185.205589,21.5346162 L185.205589,22.0170506 L185.688623,22.4988421 L186.171657,22.0170506 L186.654691,22.0170506 L186.171657,22.4988421 L185.688623,22.4988421 L185.205589,22.4988421 L185.688623,22.9809551 L185.688623,23.4633895 L185.205589,23.4633895 L185.205589,22.9809551 L184.722555,22.4988421 L184.722555,22.0170506 L184.239521,22.0170506 L184.722555,21.5346162 L184.239521,21.5346162 L183.756487,21.0525032 L183.756487,21.5346162 L183.273453,22.4988421 L183.273453,22.0170506 L183.273453,21.5346162 L182.307385,21.0525032 L181.824351,21.5346162 L181.824351,22.0170506 L182.790419,22.9809551 L182.790419,23.4633895 L182.307385,23.4633895 L182.307385,22.9809551 L181.824351,23.4633895 L181.824351,22.9809551 L181.341317,22.4988421 L181.341317,22.0170506 L181.341317,21.5346162 L181.341317,20.5707116 L180.858283,20.0882772 L180.858283,19.6061642 L181.341317,19.1243727 L180.858283,19.1243727 L180.858283,18.6419383 L180.858283,18.1598253 L180.37525,17.6780337 L180.858283,16.7134863 L180.858283,16.2316948 L180.858283,15.7492604 L181.824351,15.2671474 L179.409182,16.2316948 L178.926148,16.2316948 L177.96008,15.7492604 L176.510978,15.7492604 L176.510978,16.2316948 L176.027944,16.2316948 L175.54491,16.2316948 L175.061876,15.7492604 L173.129741,16.2316948 L172.163673,16.2316948 L171.680639,16.2316948 L171.197605,16.7134863 L169.265469,17.1955993 L168.782435,17.1955993 L168.299401,17.1955993 L166.367265,18.1598253 L165.401198,18.1598253 L164.918164,18.1598253 L164.43513,18.1598253 L163.952096,18.1598253 L163.952096,17.6780337 L163.469062,17.1955993 L163.469062,18.1598253 L162.502994,18.6419383 L161.536926,19.1243727 L161.053892,19.6061642 L160.087824,20.0882772 L159.60479,20.5707116 L158.638723,21.0525032 L157.672655,21.0525032 L156.223553,22.0170506 L154.291417,22.9809551 L153.325349,23.4633895 L150.91018,24.9097285 L149.461078,24.9097285 L148.978044,25.39152 L148.011976,25.873633 L147.528942,25.873633 L147.045908,26.3560674 L146.07984,26.837859 L145.113772,27.319972 L144.630739,27.8024064 L143.664671,28.7663109 L143.181637,29.7305369 L142.698603,30.2126499 L142.698603,30.6950843 L142.215569,30.6950843 L142.215569,31.1768758 L141.249501,31.6589888 L140.766467,32.1414232 L140.283433,32.1414232 L139.317365,33.1053278 L138.834331,33.5877622 L138.351297,33.5877622 L137.868263,34.0695537 L137.38523,35.0341011 L136.902196,35.0341011 L136.419162,35.5158927 L135.936128,36.4804401 L135.453094,37.926779 L134.97006,38.4085706 L134.97006,38.8906836 L135.453094,38.8906836 L134.97006,39.373118 L134.487026,39.8549095 L134.003992,40.3370225 L134.003992,40.8194569 L134.487026,40.8194569 L134.487026,41.7833615 L134.003992,42.7475874 L134.003992,44.1939264 L134.003992,45.1584738 L134.003992,45.6402653 L133.520958,46.1223783 L133.520958,46.6048127 L132.55489,47.0866043 L132.071856,47.0866043 L132.55489,47.5687173 L132.071856,48.0511517 L132.071856,48.5329433 L131.588822,49.0150562 L132.071856,49.0150562 L132.55489,49.4974906 L133.037924,50.4613952 L133.037924,50.9438296 L133.037924,51.4256212 L133.037924,51.9077341 L133.520958,52.8719601 L133.037924,52.8719601 L133.520958,53.3540731 L133.037924,53.3540731 L133.037924,52.8719601 L133.037924,52.3901685 L133.037924,51.9077341 L132.55489,51.9077341 L132.55489,51.4256212 L132.55489,50.9438296 L132.071856,50.9438296 L131.588822,50.9438296 L131.588822,50.4613952 L131.105788,50.4613952 L131.588822,51.4256212 L131.588822,51.9077341 L132.071856,52.3901685 L132.55489,52.8719601 L132.071856,52.8719601 L132.071856,53.3540731 L132.071856,53.8365075 L132.55489,53.8365075 L133.037924,53.8365075 L133.037924,54.800412 L133.037924,55.2828464 L133.520958,54.800412 L133.520958,55.2828464 L133.037924,55.2828464 L133.037924,55.764638 L133.520958,55.764638 L134.003992,56.246751 L134.003992,56.7291854 L134.003992,57.210977 L134.003992,57.6930899 L133.520958,58.1755243 L133.520958,59.1394289 L134.003992,60.5857678 L134.003992,61.5499938 L134.487026,62.0321068 L134.487026,62.1931325 L135.453094,61.5499938 L134.487026,62.5145412 L134.487026,62.1931325 L134.003992,62.5145412 L134.003992,62.9963328 L134.003992,63.9608801 L133.520958,63.9608801 L133.037924,64.4426717 L133.520958,64.9247847 L134.003992,65.8890107 L134.003992,66.3711236 L134.003992,67.3353496 L134.003992,67.8174626 L133.520958,68.299897 L133.037924,68.299897 L132.55489,68.299897 L131.588822,69.2638015 L131.105788,69.7462359 L130.622754,70.2280275 L131.105788,70.7101405 L131.105788,71.1925749 L131.105788,71.6743665 L132.071856,71.6743665 L132.071856,72.1564795 L132.55489,72.1564795 L133.520958,73.1207054 L134.487026,74.0852528 L134.97006,74.0852528 L135.453094,74.0852528 L135.936128,74.0852528 L136.902196,74.0852528 L136.902196,73.6028184 L138.351297,74.0852528 L139.317365,74.0852528 L139.800399,74.5670444 L141.732535,75.5315917 L142.698603,75.5315917 L142.698603,76.0133833 L143.664671,76.0133833 L144.147705,75.5315917 L144.630739,75.5315917 L144.630739,75.0491574 L145.113772,74.5670444 L145.113772,74.0852528 L146.07984,73.6028184 L147.045908,74.0852528 L147.528942,73.6028184 L148.49501,73.1207054 L148.978044,73.1207054 L149.461078,73.6028184 L149.461078,74.5670444 L149.944112,74.5670444 L150.427146,74.5670444 L151.393214,74.5670444 L151.876248,74.5670444 L152.359281,74.5670444 L152.359281,75.0491574 L152.842315,75.0491574 L153.325349,74.5670444 L153.325349,75.0491574 L153.325349,75.5315917 L152.842315,75.5315917 L150.427146,76.0133833 L149.944112,76.0133833 L149.944112,76.4954963 L148.49501,78.9060612 L146.07984,82.7632865 L146.07984,83.2450781 L145.596806,84.691417 L145.596806,89.5125469 L145.596806,91.9231118 L145.596806,92.8876592 L145.596806,93.3694507 L145.596806,93.8515637 L146.07984,93.8515637 L146.562874,94.3339981 L147.045908,94.8157897 L148.011976,96.2621286 L149.461078,98.1905806 L149.944112,98.673015 L150.427146,98.673015 L155.257485,98.673015 L155.740519,98.673015 L157.189621,98.673015 L161.053892,98.673015 L161.536926,98.673015 L161.053892,99.1548065 L161.053892,100.119354 L161.053892,100.601145 L161.053892,101.083258 L161.536926,101.565693 L161.536926,102.047484 L159.60479,101.565693 L160.087824,102.047484 L160.570858,102.047484 L161.053892,102.047484 L161.053892,102.529597 L161.536926,103.012032 L161.536926,103.493823 L161.536926,103.975936 L162.01996,104.458371 L162.502994,104.940162 L162.502994,105.422275 L162.502994,105.90471 L162.986028,106.386501 L162.986028,107.351049 L162.986028,108.314953 L162.986028,108.797388 L162.502994,110.243727 L162.01996,111.207631 L162.01996,111.690066 L162.01996,112.171857 L161.536926,113.136404 L161.536926,113.618196 L161.536926,114.100309 L161.053892,113.618196 L161.053892,114.582743 L160.570858,114.582743 L160.570858,114.100309 L160.570858,113.618196 L162.01996,110.725518 L162.502994,109.761292 L162.502994,109.279179 L162.502994,108.314953 L162.502994,105.90471 L162.01996,104.940162 L159.60479,102.529597 L159.60479,102.047484 L159.121756,102.047484 L156.706587,102.047484 L156.223553,102.047484 L154.291417,101.565693 L149.944112,100.119354 L149.461078,100.119354 L148.978044,99.1548065 L148.49501,99.1548065 L148.011976,99.6369195 L144.630739,100.601145 L144.147705,100.601145 L143.664671,101.083258 L139.800399,104.458371 L139.800399,104.940162 L139.317365,104.940162 L137.38523,104.940162 L136.902196,104.940162 L136.902196,105.422275 L136.419162,106.868614 L136.419162,106.386501 L135.936128,107.351049 L135.936128,107.83284 L135.936128,108.314953 L135.936128,108.797388 L135.936128,109.279179 L134.97006,109.761292 L134.487026,109.761292 L134.003992,110.243727 L133.520958,111.207631 L133.037924,111.207631 L132.55489,111.207631 L132.55489,111.690066 L124.343313,116.992987 L122.894212,117.957213 L122.894212,118.439326 L122.411178,118.439326 L122.411178,118.92176 L121.928144,118.92176 L121.636391,118.92176 L118.546906,120.849891 L118.063872,121.332004 L116.131737,122.778343 L115.648703,122.778343 L115.648703,123.260777 L116.61477,124.224682 L116.61477,125.188908 L116.61477,126.635247 L116.131737,127.11736 L116.61477,127.11736 L117.097804,128.081586 L116.61477,128.081586 L117.097804,128.563699 L117.580838,128.081586 L118.063872,128.081586 L119.996008,127.599794 L120.479042,127.599794 L120.962076,127.599794 L121.44511,128.081586 L121.928144,128.081586 L122.411178,128.081586 L123.377246,128.081586 L124.826347,128.563699 L125.792415,129.527925 L127.241517,130.010037 L127.724551,130.492472 L127.724551,130.974263 L128.207585,130.974263 L132.55489,134.831489 L133.037924,135.795393 L133.520958,135.795393 L134.487026,136.277828 L135.453094,135.795393 L137.868263,134.831489 L138.351297,134.831489 L139.317365,134.831489 L139.800399,134.349054 L141.249501,133.866941 L141.732535,133.866941 L142.215569,131.938811 L142.698603,131.456376 L142.698603,130.010037 L143.181637,130.010037 L143.181637,129.046133 L143.181637,128.563699 L143.181637,128.081586 L143.181637,127.599794 L142.698603,127.599794 L142.698603,127.11736 L142.215569,126.153455 L142.698603,125.671021 L144.147705,124.224682 L145.113772,124.707116 L146.562874,124.224682 L147.045908,124.224682 L147.528942,123.742569 L147.045908,123.742569 L147.528942,123.260777 L148.011976,122.778343 L148.49501,122.29623 L149.944112,120.849891 L153.808383,118.92176 L154.291417,118.92176 L154.774451,118.92176 L155.257485,119.403552 L155.740519,119.403552 L157.672655,117.957213 L158.155689,116.992987 L159.121756,116.029082 L159.60479,115.064535 L160.087824,114.582743 L160.087824,115.064535 L160.570858,115.064535 L160.570858,115.546648 L160.087824,115.546648 L160.570858,116.029082 L160.087824,116.510874 L159.60479,116.992987 L158.155689,118.439326 L157.189621,119.403552 L156.223553,119.885665 L156.223553,120.368099 L155.740519,120.368099 L155.257485,120.849891 L154.774451,120.849891 L154.291417,121.332004 L154.291417,121.814438 L153.808383,121.814438 L153.808383,122.29623 L153.325349,122.29623 L152.842315,122.29623 L151.876248,122.778343 L151.393214,123.260777 L150.91018,123.260777 L150.427146,123.742569 L149.461078,124.224682 L148.978044,124.224682 L148.49501,124.707116 L148.011976,125.188908 L148.011976,125.671021 L147.528942,125.671021 L147.045908,125.671021 L147.045908,126.153455 L147.045908,126.635247 L146.562874,126.635247 L146.562874,127.11736 L146.07984,127.11736 L146.07984,127.599794 L145.596806,127.599794 L145.596806,128.081586 L144.630739,128.563699 L144.147705,129.046133 L143.664671,129.527925 L143.664671,130.010037 L143.181637,130.974263 L143.181637,131.938811 L142.698603,132.902715 L142.698603,133.38515 L142.215569,134.349054 L141.732535,134.831489 L139.800399,134.831489 L139.317365,134.831489 L138.351297,135.795393 L137.868263,135.31328 L137.38523,135.795393 L135.936128,136.277828 L134.97006,136.277828 L134.487026,136.759619 L133.520958,136.759619 L133.037924,136.277828 L132.55489,135.795393 L132.071856,135.31328 L131.588822,135.31328 L131.588822,134.831489 L131.105788,134.349054 L130.622754,134.349054 L130.139721,134.349054 L129.656687,134.349054 L129.173653,133.866941 L128.207585,133.866941 L127.724551,133.38515 L126.758483,132.420602 L126.758483,131.938811 L127.241517,131.456376 L126.758483,131.456376 L126.275449,131.456376 L125.792415,130.974263 L125.309381,130.974263 L124.826347,130.492472 L124.343313,130.492472 L124.343313,130.010037 L123.860279,129.527925 L123.377246,130.010037 L122.894212,130.010037 L122.411178,130.010037 L120.479042,130.010037 L119.996008,130.492472 L119.512974,130.492472 L119.02994,130.974263 L118.546906,130.974263 L118.546906,130.492472 L118.063872,130.492472 L117.580838,130.010037 L117.097804,129.527925 L116.61477,128.563699 L116.131737,128.563699 L116.131737,128.081586 L115.165669,128.081586 L114.682635,128.081586 L114.199601,127.11736 L112.750499,127.11736 L112.267465,127.11736 L111.784431,127.11736 L110.818363,127.599794 L110.335329,127.11736 L110.335329,127.599794 L109.852295,127.599794 L109.852295,127.11736 L110.335329,127.11736 L110.335329,126.635247 L109.852295,126.153455 L109.369261,126.153455 L108.886228,126.635247 L108.403194,126.635247 L107.92016,126.635247 L107.92016,126.153455 L108.403194,126.153455 L108.403194,125.671021 L108.403194,125.188908 L107.437126,124.707116 L106.954092,124.707116 L106.954092,125.188908 L106.471058,125.188908 L105.988024,124.707116 L105.50499,124.707116 L105.50499,124.224682 L105.988024,124.224682 L106.471058,124.224682 L106.954092,123.742569 L105.50499,122.778343 L105.50499,122.29623 L106.471058,122.778343 L106.954092,123.260777 L107.437126,123.260777 L107.92016,122.778343 L107.92016,123.260777 L108.403194,123.742569 L108.886228,123.260777 L108.886228,122.778343 L108.886228,122.29623 L109.369261,122.29623 L109.852295,121.814438 L109.852295,120.849891 L110.335329,120.368099 L110.818363,119.885665 L111.301397,119.403552 L111.784431,119.403552 L112.267465,119.403552 L112.267465,118.92176 L112.750499,118.439326 L112.750499,117.957213 L113.716567,116.992987 L113.233533,116.992987 L112.750499,116.992987 L112.267465,116.510874 L112.267465,116.992987 L111.301397,116.510874 L111.301397,116.029082 L111.301397,115.546648 L111.301397,115.064535 L111.784431,114.582743 L111.784431,114.100309 L111.301397,114.100309 L110.818363,114.582743 L110.335329,114.100309 L111.301397,113.618196 L112.267465,113.618196 L112.267465,113.136404 L111.784431,112.65397 L111.784431,112.171857 L111.784431,111.690066 L112.267465,111.207631 L112.750499,111.690066 L112.750499,111.207631 L113.233533,110.725518 L113.716567,109.761292 L113.233533,109.761292 L113.233533,108.797388 L112.750499,108.797388 L112.750499,108.314953 L112.267465,107.83284 L112.267465,107.351049 L111.784431,106.386501 L111.784431,105.90471 L110.818363,104.458371 L110.818363,103.975936 L110.335329,103.493823 L110.335329,102.529597 L109.852295,101.565693 L109.852295,101.083258 L109.369261,100.601145 L109.852295,100.119354 L109.369261,99.6369195 L109.369261,99.1548065 L109.369261,98.673015 L109.369261,98.1905806 L109.369261,97.226676 L109.369261,96.7442416 L109.852295,96.7442416 L109.852295,96.2621286 L110.335329,96.2621286 L110.818363,95.7803371 L111.301397,95.7803371 L111.784431,95.7803371 L111.784431,96.2621286 L112.267465,96.7442416 L112.267465,96.2621286 L112.750499,95.7803371 L113.233533,95.7803371 L113.716567,95.7803371 L114.199601,95.7803371 L114.682635,96.2621286 L115.165669,96.7442416 L115.648703,96.7442416 L116.131737,97.226676 L116.131737,97.7084676 L117.097804,97.7084676 L117.580838,97.7084676 L118.063872,97.7084676 L118.546906,97.226676 L119.512974,96.2621286 L119.996008,96.2621286 L120.962076,96.2621286 L120.962076,95.7803371 L121.44511,95.2979027 L121.928144,95.2979027 L121.928144,94.8157897 L122.894212,94.3339981 L122.894212,93.8515637 L123.377246,93.3694507 L123.377246,92.4052248 L123.377246,91.9231118 L123.860279,90.9588858 L124.343313,90.9588858 L124.826347,90.9588858 L125.309381,90.9588858 L125.792415,90.4767728 L126.275449,90.4767728 L125.792415,89.9949813 L126.275449,89.9949813 L126.758483,89.5125469 L127.241517,89.0304339 L126.758483,88.5486423 L126.275449,88.0662079 L126.275449,87.5840949 L126.275449,87.1023034 L126.275449,86.619869 L126.275449,86.137756 L126.275449,85.6559644 L126.275449,85.17353 L125.792415,85.17353 L125.309381,84.691417 L124.343313,84.2096255 L122.894212,84.2096255 L122.411178,84.2096255 L121.928144,83.7271911 L120.962076,83.7271911 L120.479042,83.7271911 L119.996008,84.691417 L119.512974,85.17353 L119.512974,85.6559644 L119.02994,85.17353 L118.546906,85.17353 L118.063872,85.17353 L117.580838,85.17353 L116.61477,84.2096255 L116.131737,83.7271911 L115.648703,83.2450781 L116.131737,82.2808521 L115.648703,82.2808521 L115.165669,81.7987391 L114.682635,81.7987391 L115.648703,74.5670444 L114.682635,73.1207054 L113.233533,70.2280275 L113.233533,69.7462359 L112.750499,69.2638015 L111.301397,66.3711236 L110.818363,66.3711236 L110.335329,66.3711236 L110.335329,67.3353496 L109.369261,68.299897 L108.886228,68.299897 L107.92016,68.7816886 L107.437126,68.7816886 L106.954092,69.7462359 L106.471058,69.7462359 L105.988024,69.7462359 L104.538922,69.7462359 L104.055888,69.7462359 L104.055888,70.2280275 L103.08982,70.2280275 L102.123752,69.7462359 L100.674651,70.2280275 L100.191617,69.7462359 L98.742515,68.7816886 L98.259481,68.7816886 L96.8103792,67.8174626 L96.3273453,67.3353496 L95.8443114,66.853558 L95.3612774,65.8890107 L95.3612774,64.9247847 L95.3612774,63.9608801 L95.8443114,62.9963328 L95.8443114,62.5145412 L95.3612774,62.5145412 L95.3612774,62.9963328 L94.8782435,62.9963328 L94.3952096,62.9963328 L94.3952096,62.5145412 L94.3952096,62.0321068 L93.4291417,62.0321068 L92.4630739,62.0321068 L91.9800399,62.0321068 L91.497006,62.0321068 L90.5309381,63.4784457 L90.5309381,63.9608801 L90.5309381,64.4426717 L90.5309381,65.4072191 L90.0479042,66.853558 L90.0479042,68.299897 L90.0479042,70.2280275 L89.0818363,73.1207054 L88.5988024,76.0133833 L87.6327345,78.9060612 L87.6327345,79.8706086 L87.1497006,79.8706086 L87.1497006,80.8345132 L86.1836327,82.7632865 L86.1836327,83.7271911 L85.2175649,86.619869 L85.2175649,87.1023034 L85.2175649,87.5840949 L85.2175649,88.0662079 L85.2175649,88.5486423 L85.2175649,89.9949813 L84.7345309,91.9231118 L84.7345309,92.8876592 L84.7345309,93.8515637 L84.251497,95.7803371 L84.251497,96.7442416 L84.251497,97.226676 L84.251497,98.1905806 L83.7684631,98.673015 L83.7684631,99.1548065 L83.2854291,102.529597 L82.8023952,106.868614 L82.3193613,109.279179 L81.8363273,110.243727 L81.3532934,111.207631 L80.8702595,112.171857 L80.3872255,113.618196 L81.3532934,113.136404 L81.8363273,113.136404 L82.8023952,112.65397 L83.2854291,113.136404 L82.8023952,113.136404 L82.8023952,113.618196 L81.8363273,113.618196 L81.3532934,114.100309 L82.3193613,114.100309 L82.3193613,114.582743 L81.3532934,114.100309 L80.8702595,114.100309 L80.8702595,114.582743 L79.9041916,114.100309 L79.9041916,115.064535 L80.3872255,116.029082 L79.9041916,116.510874 L79.9041916,117.475421 L79.4211577,118.439326 L78.9381238,120.368099 L78.4550898,121.814438 L77.489022,124.224682 L75.5568862,128.081586 L72.6586826,134.349054 L71.6926148,135.795393 L71.2095808,136.759619 L69.760479,139.170506 L69.2774451,139.652297 L69.2774451,140.13441 L68.3113772,141.580749 L67.8283433,142.544975 L66.3792415,144.473427 L63.4810379,148.330331 L62.0319361,149.294878 L62.0319361,149.77667 L61.0658683,150.741217 L60.5828343,150.741217 L60.5828343,151.223009 L60.5828343,151.705122 L61.0658683,151.705122 L60.5828343,152.187556 L60.5828343,151.705122 L60.0998004,151.705122 L59.6167665,152.187556 L59.1337325,153.151461 L58.6506986,153.633895 L57.2015968,155.080234 L56.2355289,156.044139 L54.7864271,157.972912 L54.3033932,158.454704 L53.3373253,159.419251 L52.8542914,159.901042 L52.8542914,160.383155 L51.8882236,161.829494 L50.9221557,162.311929 L49.9560878,163.275833 L49.4730539,163.275833 L48.99002,162.79372 L46.5748503,162.311929 L46.0918164,162.79372 L45.6087824,162.79372 L45.1257485,162.79372 L44.6427146,163.275833 L44.6427146,163.758268 L44.1596806,164.240059 L43.6766467,165.204607 L44.1596806,165.686398 L44.6427146,166.168511 L44.6427146,166.650946 L43.6766467,167.61485 L43.1936128,168.579076 L42.2275449,170.025415 L42.7105788,170.025415 L43.1936128,170.025415 L43.6766467,170.507528 L44.1596806,170.025415 L46.0918164,169.543624 L46.5748503,169.543624 L47.0578842,170.507528 L46.5748503,170.507528 L46.5748503,170.989963 L45.6087824,171.953867 L45.6087824,172.436301 L45.1257485,172.918093 L45.1257485,173.400206 L45.6087824,173.88264 L47.5409182,176.775318 L47.5409182,177.25711 L47.5409182,177.739223 L47.0578842,178.221657 L48.0239521,177.739223 L48.506986,178.221657 L48.99002,178.703449 L49.4730539,179.185562 L49.4730539,179.667996 L49.9560878,179.667996 L50.4391218,179.667996 L50.9221557,179.667996 L51.4051896,179.667996 L50.9221557,180.149788 L51.4051896,180.631901 L51.8882236,180.631901 L51.8882236,180.149788 L52.3712575,180.149788 L52.8542914,180.149788 L53.3373253,180.149788 L53.8203593,180.631901 L54.7864271,182.07824 L55.2694611,182.07824 L55.752495,182.07824 L56.2355289,182.07824 L56.2355289,182.560674 L57.2015968,182.560674 L57.6846307,183.524579 L58.1676647,184.007013 L58.6506986,184.007013 L59.1337325,184.007013 L58.6506986,184.488805 L58.1676647,184.488805 L58.6506986,185.453352 L59.1337325,185.935144 L60.5828343,186.417257 L60.5828343,186.899691 L61.5489022,186.899691 L62.5149701,187.381483 L63.4810379,187.381483 L63.4810379,187.863596 L65.4131737,188.34603 L66.3792415,189.309934 L66.8622754,189.309934 L67.8283433,189.792369 L69.2774451,190.756273 L69.760479,190.756273 L70.243513,191.238708 L71.2095808,191.238708 L71.2095808,191.720499 L73.1417166,191.720499 L73.6247505,191.720499 L74.5908184,192.202612 L75.0738523,192.202612 L75.5568862,192.202612 L76.0399202,192.685047 L76.5229541,192.685047 L77.005988,193.166838 L77.489022,193.166838 L78.4550898,192.685047 L78.9381238,192.685047 L80.3872255,192.202612 L80.8702595,192.202612 L81.3532934,191.720499 L82.3193613,191.720499 L82.8023952,190.756273 L83.2854291,191.238708 L83.7684631,191.238708 L84.7345309,190.756273 L84.7345309,191.238708 L84.7345309,191.720499 L83.7684631,192.202612 L83.2854291,192.685047 L82.8023952,192.685047 L82.3193613,193.166838 L81.8363273,193.648951 L77.9720559,194.613177 L77.489022,194.613177 L77.005988,194.613177 L75.5568862,195.09529 L74.5908184,195.09529 L73.1417166,194.613177 L72.6586826,194.131386 L72.1756487,194.131386 L71.6926148,193.648951 L71.2095808,193.648951 L70.243513,193.648951 L69.760479,194.131386 L68.7944112,194.613177 L68.3113772,195.09529 L68.3113772,195.577725 L67.8283433,196.541629 L67.3453094,197.024064 L66.8622754,197.505855 L66.3792415,197.987968 L65.4131737,198.470403 L64.9301397,198.470403 L64.4471058,198.952194 L63.9640719,198.952194 L63.9640719,198.470403 L63.4810379,198.470403 L62.998004,198.952194 L62.0319361,198.952194 L61.5489022,198.952194 L61.0658683,199.434307 L60.5828343,199.434307 L60.0998004,199.434307 L59.6167665,200.398533 L59.1337325,200.398533 L59.1337325,199.916742 L58.6506986,199.916742 L58.1676647,199.916742 L57.6846307,199.916742 L56.7185629,199.434307 L55.752495,199.434307 L55.2694611,199.434307 L54.7864271,199.434307 L53.8203593,198.952194 L52.3712575,197.987968 L51.8882236,197.987968 L50.4391218,197.505855 L50.4391218,197.987968 L49.4730539,198.952194 L48.99002,198.952194 L49.4730539,199.916742 L49.9560878,199.916742 L50.4391218,200.880646 L50.9221557,201.844872 L51.8882236,201.844872 L52.8542914,201.844872 L53.3373253,201.844872 L53.8203593,201.844872 L53.8203593,201.36308 L54.3033932,201.36308 L54.3033932,201.844872 L54.3033932,202.326985 L53.8203593,202.809419 L53.3373253,202.809419 L52.8542914,202.809419 L52.3712575,202.809419 L51.8882236,202.809419 L51.4051896,202.809419 L50.9221557,203.291211 L50.4391218,203.291211 L49.4730539,202.326985 L47.5409182,201.844872 L47.0578842,201.844872 L46.0918164,202.326985 L45.6087824,202.809419 L45.1257485,202.809419 L44.1596806,203.291211 L43.6766467,203.773324 L43.1936128,203.291211 L42.2275449,203.773324 L41.744511,204.255758 L41.744511,205.219663 L42.2275449,205.219663 L42.2275449,205.702097 L42.7105788,205.702097 L43.1936128,205.702097 L43.6766467,206.183889 L44.1596806,206.666002 L44.6427146,206.666002 L44.6427146,207.148436 L44.6427146,207.630228 L45.1257485,208.112341 L45.6087824,208.112341 L46.0918164,208.594775 L46.5748503,209.076567 L46.5748503,210.041114 L47.0578842,210.522906 L47.5409182,210.522906 L47.5409182,211.005019 L48.0239521,211.005019 L48.506986,211.005019 L50.4391218,211.005019 L50.9221557,211.005019 L51.4051896,211.005019 L51.8882236,211.487453 L52.3712575,211.487453 L52.3712575,211.005019 L53.3373253,211.487453 L54.3033932,211.969245 L53.8203593,212.451358 L53.8203593,212.933792 L53.8203593,213.415584 L54.3033932,213.415584 L56.2355289,214.380131 L56.7185629,214.861923 L56.7185629,217.754601 L56.7185629,218.236713 L57.2015968,220.165487 L56.7185629,220.165487 L56.2355289,220.165487 L55.752495,220.165487 L55.2694611,219.683052 L54.7864271,219.683052 L54.3033932,219.683052 L53.8203593,219.683052 L53.3373253,220.165487 L52.8542914,220.165487 L52.3712575,220.647278 L51.8882236,220.647278 L51.4051896,220.647278 L50.9221557,220.647278 L50.9221557,220.165487 L50.4391218,220.165487 L48.99002,219.200939 L48.506986,219.200939 L48.0239521,217.754601 L47.5409182,217.754601 L46.5748503,216.308262 L46.5748503,215.82647 L46.0918164,215.344036 L46.5748503,214.861923 L46.0918164,214.380131 L46.0918164,213.897697 L46.0918164,213.415584 L45.6087824,213.415584 L45.1257485,212.933792 L44.1596806,211.969245 L43.6766467,211.487453 L43.1936128,211.487453 L42.7105788,211.487453 L42.2275449,211.005019 L41.744511,211.005019 L40.7784431,210.522906 L40.2954092,210.522906 L39.8123752,210.041114 L39.3293413,210.522906 L38.8463074,210.522906 L38.8463074,211.005019 L37.8802395,209.55868 L38.3632735,209.55868 L37.8802395,209.076567 L37.8802395,208.594775 L37.3972056,208.594775 L36.9141717,208.594775 L36.4311377,208.594775 L35.9481038,209.076567 L35.4650699,209.076567 L34.9820359,209.076567 L34.0159681,209.076567 L33.5329341,209.076567 L33.0499002,209.076567 L32.5668663,209.076567 L32.5668663,208.594775 L32.0838323,208.112341 L31.1177645,208.112341 L30.1516966,208.594775 L29.6686627,208.594775 L29.1856287,209.076567 L27.7365269,208.594775 L27.253493,208.594775 L26.7704591,208.112341 L26.2874251,208.594775 L25.3213573,209.076567 L25.3213573,209.55868 L24.8383234,210.041114 L24.8383234,210.522906 L24.3552894,211.005019 L23.8722555,211.005019 L23.3892216,211.487453 L23.8722555,211.487453 L24.3552894,211.487453 L23.3892216,211.969245 L23.3892216,211.487453 L22.4231537,210.522906 L21.9401198,210.041114 L21.9401198,209.55868 L21.4570858,208.112341 L21.4570858,207.630228 L20.9740519,207.630228 L20.491018,207.148436 L19.5249501,206.666002 L19.0419162,206.183889 L18.5588822,205.702097 L18.5588822,205.219663 L18.5588822,204.255758 L19.0419162,203.773324 L18.5588822,203.773324 L18.0758483,203.773324 L17.5928144,203.291211 L16.1437126,203.291211 L15.6606786,203.291211 L15.1776447,203.291211 L14.2115768,203.291211 L14.2115768,203.773324 L13.7285429,203.773324 L13.245509,203.773324 L12.762475,204.255758 L11.7964072,204.73755 L11.3133733,205.219663 L10.3473054,205.702097 L9.86427146,205.702097 L9.38123752,206.183889 L8.89820359,206.666002 L7.93213573,207.148436 L7.4491018,207.630228 L6.96606786,207.630228 L6.48303393,208.112341 L6,208.594775 L6,209.076567 L6,209.55868 L6,210.041114 L6.48303393,211.005019 L6.96606786,211.005019 L7.4491018,211.487453 L7.93213573,211.969245 L8.89820359,212.451358 L8.89820359,212.933792 L9.38123752,212.933792 L9.86427146,213.415584 L10.3473054,213.897697 L10.3473054,214.380131 L10.8303393,214.861923 L10.8303393,215.344036 L11.3133733,215.82647 L11.3133733,216.308262 L11.7964072,216.790375 L12.2794411,217.272809 L13.245509,217.754601 L13.245509,218.236713 L13.7285429,218.236713 L14.2115768,218.719148 L14.2115768,219.200939 L14.6946108,219.200939 L15.6606786,219.200939 L16.1437126,219.200939 L16.1437126,218.719148 L16.1437126,217.754601 L16.6267465,217.754601 L16.6267465,218.719148 L17.1097804,219.200939 L17.5928144,219.200939 L18.5588822,219.200939 L19.0419162,218.719148 L19.0419162,218.236713 L19.5249501,218.236713 L20.491018,218.236713 L20.9740519,218.236713 L20.007984,217.754601 L20.491018,217.272809 L21.4570858,216.790375 L21.9401198,216.790375 L21.9401198,217.272809 L23.3892216,216.308262 L23.3892216,215.82647 L23.3892216,215.344036 L23.8722555,215.82647 L23.8722555,216.308262 L24.3552894,216.308262 L23.8722555,216.790375 L23.3892216,216.790375 L22.4231537,217.272809 L23.3892216,217.754601 L23.8722555,217.754601 L24.3552894,217.754601 L23.8722555,218.236713 L24.3552894,218.719148 L24.3552894,219.200939 L23.8722555,218.719148 L23.3892216,219.200939 L22.9061876,219.200939 L23.3892216,218.236713 L22.4231537,217.754601 L21.9401198,217.272809 L21.4570858,218.236713 L21.9401198,218.719148 L23.3892216,219.683052 L23.8722555,220.165487 L23.8722555,220.647278 L24.3552894,220.647278 L24.3552894,221.611826 L24.3552894,222.093617 L24.8383234,222.093617 L25.3213573,222.57573 L25.8043912,222.57573 L25.8043912,222.093617 L26.2874251,222.093617 L27.253493,222.57573 L27.7365269,222.57573 L27.7365269,223.058165 L28.7025948,223.539956 L28.7025948,224.022069 L29.1856287,224.022069 L30.1516966,224.986295 L30.6347305,224.986295 L31.6007984,224.986295 L32.5668663,224.504504 L33.0499002,224.504504 L33.5329341,224.022069 L34.499002,224.022069 L34.9820359,224.022069 L35.4650699,224.504504 L35.9481038,224.022069 L36.4311377,222.093617 L36.9141717,222.093617 L36.9141717,221.611826 L36.9141717,221.129391 L37.3972056,221.129391 L37.3972056,220.165487 L37.3972056,219.683052 L37.3972056,219.200939 L37.3972056,218.719148 L37.3972056,218.236713 L38.3632735,218.719148 L39.3293413,218.236713 L39.8123752,218.236713 L40.7784431,217.272809 L41.261477,217.754601 L41.744511,218.236713 L42.2275449,218.719148 L42.2275449,219.200939 L42.7105788,219.200939 L42.7105788,219.683052 L43.1936128,219.683052 L43.6766467,219.683052 L44.1596806,220.165487 L44.6427146,220.647278 L45.6087824,220.647278 L45.6087824,221.129391 L45.6087824,222.093617 L46.5748503,222.57573 L47.0578842,222.57573 L47.5409182,223.058165 L48.0239521,223.058165 L48.99002,223.539956 L49.9560878,224.022069 L50.9221557,224.022069 L51.4051896,224.504504 L52.3712575,224.504504 L53.8203593,224.022069 L54.7864271,223.539956 L55.2694611,223.539956 L55.752495,223.539956 L55.752495,224.022069 L56.2355289,224.022069 L56.7185629,224.022069 L57.6846307,224.504504 L58.1676647,225.950843 L58.1676647,226.914747 L59.6167665,226.914747 L60.5828343,226.432634 L63.9640719,226.432634 L63.9640719,226.914747 L64.4471058,227.397182 L64.4471058,228.843521 L64.9301397,228.361086 L66.3792415,228.843521 L66.8622754,228.843521 L67.3453094,228.843521 L67.8283433,228.843521 L68.3113772,228.843521 L68.7944112,228.361086 L69.760479,227.878973 L70.243513,227.878973 L70.243513,227.397182 L70.243513,226.914747 L67.8283433,223.539956 L67.3453094,222.093617 L67.8283433,221.611826 L68.3113772,221.611826 L68.3113772,221.129391 L68.3113772,220.647278 L68.3113772,220.165487 L68.3113772,219.683052 L67.8283433,219.683052 L67.3453094,219.200939 L67.8283433,218.719148 L71.2095808,217.272809 L72.1756487,217.272809 L72.6586826,216.790375 L73.1417166,216.308262 L73.6247505,216.308262 L74.1077844,216.308262 L77.489022,215.82647 L77.9720559,216.790375 L77.005988,219.200939 L77.489022,222.093617 L79.9041916,221.129391 L80.3872255,221.129391 L81.3532934,221.129391 L83.2854291,221.611826 L84.251497,222.093617 L84.7345309,222.093617 L84.7345309,221.611826 L85.2175649,222.093617 L86.1836327,221.611826 L85.7005988,219.683052 L87.1497006,219.200939 L87.6327345,219.200939 L88.1157685,217.754601 L89.0818363,217.272809 L89.5648703,216.790375 L90.0479042,215.82647 L91.0139721,215.344036 L91.497006,214.861923 L91.0139721,214.380131 L91.497006,214.380131 L91.9800399,214.380131 L91.9800399,213.897697 L92.9461078,213.415584 L93.4291417,213.897697 L93.4291417,214.380131 L93.9121756,214.380131 L94.3952096,214.380131 L95.3612774,214.861923 L95.8443114,214.861923 L95.8443114,215.344036 L95.8443114,215.82647 L96.3273453,216.308262 L96.8103792,215.82647 L97.2934132,216.308262 L96.8103792,217.272809 L96.8103792,218.236713 L97.2934132,218.236713 L97.2934132,218.719148 L96.8103792,218.719148 L96.3273453,219.200939 L95.8443114,219.683052 L96.3273453,221.611826 L96.3273453,222.093617 L96.8103792,222.093617 L97.2934132,222.093617 L97.2934132,222.57573 L96.8103792,222.57573 L95.3612774,222.093617 L94.8782435,221.611826 L93.9121756,221.611826 L93.9121756,221.129391 L93.4291417,221.129391 L92.4630739,221.611826 L92.4630739,222.093617 L92.4630739,222.57573 L92.9461078,223.058165 L93.9121756,223.539956 L94.3952096,223.539956 L95.8443114,223.058165 L96.8103792,223.058165 L97.7764471,223.058165 L98.259481,223.539956 L98.742515,223.539956 L98.742515,223.058165 L99.2255489,223.058165 L99.7085828,223.058165 L100.191617,223.058165 L100.674651,223.058165 L101.640719,224.022069 L101.640719,224.504504 L102.123752,224.504504 L102.606786,224.986295 L103.08982,224.986295 L105.021956,222.093617 L107.92016,220.165487 L107.92016,219.200939 L108.403194,219.200939 L108.403194,218.719148 L107.92016,218.236713 L107.92016,217.754601 L108.403194,217.272809 L108.403194,216.790375 L108.886228,216.308262 L109.852295,215.82647 L110.335329,215.82647 L109.852295,216.308262 L110.335329,216.790375 L110.335329,217.272809 L110.818363,217.272809 L112.750499,217.272809 L114.199601,221.611826 L113.716567,222.57573 L112.267465,225.468408 L115.165669,228.843521 L115.165669,229.325312 L115.648703,229.807425 L116.131737,230.28986 L116.131737,233.664329 L118.063872,234.146442 L118.546906,233.664329 L119.996008,233.182537 L120.479042,233.182537 L120.479042,232.700103 L123.377246,234.628876 L122.411178,238.485459 L122.894212,238.967893 L124.826347,238.485459 L126.758483,238.967893 L128.207585,238.967893 L129.173653,238.967893 L129.656687,238.485459 L130.139721,237.521554 L131.588822,238.003346 L133.520958,238.485459 L134.487026,238.967893 L135.936128,237.521554 L136.419162,237.03912 L137.868263,236.557007 L138.351297,236.075215 L138.834331,235.592781 L138.834331,235.110668 L139.317365,235.110668 L141.249501,235.592781 L141.249501,236.075215 L141.732535,237.03912 L143.181637,238.003346 L143.664671,238.485459 L143.664671,238.967893 L143.664671,239.449685 L143.664671,239.931798 L143.664671,240.414232 L143.664671,241.378137 L144.147705,243.30691 L144.630739,243.30691 L145.596806,243.788702 L149.461078,245.235041 L149.944112,245.717154 L149.944112,246.199588 L150.427146,247.163493 L150.91018,246.68138 L151.393214,247.163493 L151.876248,247.163493 L152.359281,247.163493 L153.325349,247.163493 L153.808383,247.163493 L154.291417,247.163493 L155.257485,247.163493 L155.740519,246.68138 L156.223553,246.68138 L156.706587,247.163493 L157.672655,247.163493 L158.155689,247.645927 L158.155689,248.127718 L158.638723,248.127718 L158.155689,248.609831 L157.672655,248.609831 L157.672655,249.092266 L158.155689,249.092266 L158.155689,249.574057 L158.155689,250.05617 L158.155689,250.538605 L158.638723,250.538605 L158.638723,250.05617 L159.121756,250.05617 L159.60479,250.05617 L159.60479,249.574057 L160.087824,249.574057 L160.570858,249.574057 L160.570858,249.092266 L161.536926,248.609831 L161.536926,249.092266 L162.01996,249.092266 L162.01996,250.05617 L163.469062,251.020396 L162.986028,251.502509 L162.502994,251.984944 L162.502994,252.466735 L161.536926,252.948848 L161.053892,252.948848 L161.053892,253.431283 L160.570858,253.913074 L160.087824,254.395187 L160.570858,254.877622 L161.536926,254.877622 L162.01996,255.359413 L162.01996,255.841526 L161.536926,256.323961 L161.536926,256.805752 L161.053892,256.805752 L160.570858,256.323961 L160.087824,256.323961 L159.60479,256.323961 L159.60479,256.805752 L159.60479,257.287865 L160.087824,257.7703 L160.087824,258.252091 L159.60479,258.252091 L159.60479,258.734204 L160.087824,259.69843 L159.60479,259.69843 L159.60479,260.180543 L159.121756,260.180543 L158.155689,259.69843 L157.672655,261.144769 L157.672655,262.109316 L157.189621,262.591108 L157.189621,263.073221 L157.672655,263.073221 L158.155689,263.555655 L158.155689,264.037447 L157.672655,265.001994 L157.672655,265.483786 L157.672655,265.965899 L157.672655,266.448333 L157.189621,266.930125 L156.706587,267.412238 L156.223553,268.376464 L155.740519,268.376464 L155.257485,269.341011 L154.774451,270.304916 L154.774451,270.78735 L155.257485,270.78735 L155.740519,270.78735 L156.223553,270.304916 L156.706587,270.304916 L157.189621,270.78735 L157.189621,271.269142 L156.223553,271.751255 L156.223553,272.233689 L156.223553,272.715481 L155.257485,273.680028 L155.257485,274.16182 L154.774451,274.643933 L155.257485,275.126367 L154.774451,275.608159 L154.291417,275.608159 L153.808383,275.608159 L153.325349,275.608159 L152.842315,276.090272 L152.842315,276.572706 L152.842315,277.054498 L151.876248,278.019045 L151.876248,278.500836 L151.393214,278.500836 L150.91018,278.982949 L150.427146,278.982949 L150.427146,279.465384 L149.944112,279.465384 L149.461078,279.465384 L149.944112,279.947175 L149.461078,280.429288 L149.461078,280.911723 L149.461078,281.393514 L149.461078,281.875627 L149.461078,282.358062 L149.461078,282.839853 L149.461078,283.321966 L149.944112,283.321966 L149.944112,283.804401 L149.944112,284.286192 L150.427146,284.286192 L150.427146,284.768305 L150.91018,285.25074 L151.393214,285.25074 L151.876248,285.25074 L151.876248,285.732531 L152.842315,285.732531 L153.325349,286.214644 L153.325349,286.697079 L152.842315,287.17887 L153.325349,288.625209 L153.325349,289.589756 L152.359281,291.036095 L152.359281,291.517887 L152.842315,291.517887 L153.325349,291.517887 L153.808383,291.036095 L154.291417,291.036095 L154.774451,290.553661 L154.774451,291.036095 L155.257485,291.517887 L155.740519,291.517887 L156.223553,291.036095 L156.223553,290.553661 L156.706587,290.071548 L157.672655,288.625209 L158.638723,288.625209 L158.638723,289.589756 L159.121756,290.553661 L159.60479,290.071548 L160.570858,291.517887 L161.053892,291.517887 L161.536926,291.036095 L162.01996,291.517887 L162.502994,291.036095 L162.986028,290.553661 L162.986028,291.036095 L162.986028,292 L163.469062,291.517887 L163.952096,291.036095 L163.952096,290.553661 L164.43513,290.553661 L164.918164,290.553661 L165.884232,290.071548 L165.884232,290.553661 L165.884232,291.517887 L166.850299,292 L166.850299,291.517887 L167.333333,291.517887 L167.816367,291.517887 L167.816367,292 L168.782435,291.517887 L169.265469,291.036095 L169.748503,291.036095 L170.231537,291.036095 L170.714571,291.036095 L171.197605,291.036095 L171.680639,291.517887 L172.646707,292 L173.129741,292 L173.129741,291.517887 L174.095808,291.517887 L174.578842,291.517887 L174.578842,290.553661 L175.061876,289.589756 L173.612774,288.625209 L173.129741,288.625209 L172.646707,288.143418 L172.646707,287.660983 L172.163673,287.660983 L171.680639,287.17887 L171.680639,286.697079 L171.680639,286.214644 L172.163673,285.732531 L172.646707,286.214644 L173.612774,286.697079 L174.095808,285.732531 L174.578842,285.25074 L174.578842,284.768305 L175.061876,284.768305 L174.578842,284.286192 L174.578842,283.804401 L174.095808,283.321966 L174.095808,282.839853 L174.095808,282.358062 L174.578842,281.875627 L175.54491,281.875627 L176.027944,281.393514 L176.510978,281.393514 L176.510978,280.911723 L176.994012,280.911723 L176.994012,281.393514 L177.96008,281.875627 L177.96008,280.911723 L177.96008,280.429288 L178.443114,280.429288 L178.443114,279.947175 L178.926148,279.465384 L178.926148,278.500836 L178.443114,278.019045 L178.443114,278.500836 L177.96008,277.53661 L177.96008,277.054498 L177.96008,276.572706 L178.443114,276.090272 L178.443114,275.608159 L178.926148,275.126367 L178.926148,274.643933 L178.443114,274.16182 L177.96008,274.16182 L177.477046,274.16182 L176.510978,274.16182 L176.510978,273.680028 L176.510978,273.197594 L176.027944,273.680028 L175.54491,273.197594 L174.095808,272.715481 L174.095808,271.751255 L174.095808,271.269142 L173.129741,270.78735 L173.612774,270.304916 L174.095808,270.304916 L174.095808,269.822803 L174.578842,267.894672 L174.095808,267.894672 L172.163673,267.894672 L171.680639,267.894672 L171.197605,268.376464 L170.714571,268.376464 L170.231537,267.894672 L170.231537,267.412238 L169.748503,267.412238 L168.782435,267.894672 L168.299401,267.894672 L167.816367,268.376464 L167.333333,268.376464 L166.850299,268.858577 L166.367265,268.858577 L165.884232,268.376464 L166.850299,267.412238 L166.850299,265.965899 L166.367265,265.965899 L165.884232,265.483786 L165.884232,265.001994 L165.401198,265.001994 L165.401198,264.51956 L164.918164,264.51956 L164.918164,264.037447 L164.918164,263.555655 L164.918164,263.073221 L164.918164,262.109316 L164.43513,261.626882 L163.952096,260.662977 L164.43513,260.662977 L165.401198,260.662977 L165.884232,260.662977 L165.884232,260.180543 L166.850299,259.69843 L167.333333,259.216639 L167.333333,259.69843 L168.299401,261.144769 L168.782435,262.109316 L168.782435,262.591108 L169.265469,262.109316 L169.748503,262.109316 L169.748503,262.591108 L170.231537,262.591108 L170.231537,262.109316 L170.714571,261.626882 L170.714571,261.144769 L171.197605,260.662977 L171.197605,260.180543 L171.197605,259.69843 L171.680639,259.216639 L171.680639,258.734204 L172.163673,258.252091 L172.163673,257.7703 L172.646707,257.287865 L173.612774,256.805752 L174.095808,256.323961 L175.061876,255.841526 L175.54491,255.841526 L176.027944,255.359413 L176.510978,254.877622 L176.510978,254.395187 L176.994012,253.913074 L177.477046,253.913074 L177.96008,253.913074 L178.443114,253.431283 L178.443114,252.948848 L178.443114,252.466735 L178.926148,251.984944 L179.409182,251.984944 L179.892216,251.984944 L180.37525,251.502509 L180.858283,251.502509 L180.858283,251.020396 L181.824351,251.020396 L182.307385,250.538605 L182.790419,250.538605 L183.756487,250.538605 L183.273453,250.05617 L183.756487,250.05617 L184.239521,249.574057 L182.307385,248.127718 L181.824351,248.127718 L184.722555,246.68138 L183.756487,245.717154 L180.858283,247.163493 L180.37525,247.645927 L179.892216,248.127718 L179.409182,248.127718 L178.926148,248.127718 L177.96008,248.127718 L177.96008,247.645927 L177.477046,247.163493 L177.477046,243.788702 L176.994012,243.30691 L177.477046,242.824476 L178.443114,242.824476 L177.477046,240.896024 L178.443114,240.414232 L178.926148,239.449685 L180.858283,237.521554 L180.858283,237.03912 L181.341317,236.557007 L182.307385,235.110668 L182.790419,234.146442 L182.790419,233.664329 L183.273453,233.182537 L183.273453,232.700103 L183.273453,232.21799 L183.756487,231.736198 L183.756487,231.253764 L184.239521,231.253764 L184.722555,231.253764 L185.205589,231.253764 L185.205589,230.771651 L187.620758,228.361086 L187.137725,226.914747 L186.654691,225.950843 L186.654691,225.468408 L187.137725,224.986295 L187.620758,224.504504 L186.171657,224.504504 L186.171657,224.022069 L186.654691,221.129391 L186.654691,219.683052 L187.137725,219.683052 L186.654691,218.719148 L187.137725,218.236713 L187.137725,216.790375 L186.654691,215.82647 L186.171657,214.861923 L186.654691,213.897697 L186.171657,213.415584 L186.171657,212.451358 L186.171657,211.969245 L185.688623,211.005019 L184.722555,210.522906 L183.756487,210.041114 L182.790419,207.148436 L181.824351,206.666002 L181.341317,206.183889 L180.858283,205.702097 L180.37525,204.73755 L180.37525,204.255758 L179.892216,204.255758 L178.443114,203.291211 L178.443114,202.326985 L178.443114,201.36308 L178.926148,201.36308 L178.926148,200.880646 L179.409182,199.434307 L179.409182,198.952194 L179.892216,198.470403 L179.892216,197.987968 L178.926148,197.505855 L178.443114,197.505855 L177.96008,197.505855 L177.96008,197.024064 L177.477046,197.024064 L176.994012,197.024064 L174.578842,196.059516 L174.095808,195.577725 L174.095808,195.09529 L174.095808,194.613177 L174.578842,194.131386 L174.095808,193.648951 L174.095808,193.166838 L174.095808,192.202612 L174.578842,192.202612 L175.061876,192.202612 L175.061876,191.720499 L174.578842,191.720499 L174.578842,191.238708 L174.578842,190.756273 L174.095808,190.756273 L172.646707,189.792369 L172.163673,189.309934 L171.197605,189.309934 L170.714571,189.309934 L169.265469,189.309934 L169.265469,188.827821 L169.265469,188.34603 L169.748503,187.863596 L170.714571,187.381483 L171.197605,187.381483 L171.680639,186.417257 L171.680639,185.935144 L171.197605,185.935144 L171.197605,184.970918 L171.680639,184.970918 L171.197605,184.488805 L170.714571,184.488805 L170.714571,184.007013 L170.714571,183.524579 L170.714571,183.042466 L169.748503,182.07824 L169.265469,182.07824 L168.782435,182.07824 L168.782435,181.596127 L169.265469,181.114335 L169.748503,181.114335 L168.782435,180.631901 L169.748503,179.185562 L170.231537,179.185562 L170.231537,179.667996 L171.197605,179.667996 L171.680639,179.667996 L172.646707,179.185562 L173.129741,179.185562 L173.612774,178.703449 L174.095808,178.221657 L174.578842,178.703449 L175.061876,178.221657 L175.54491,177.739223 L176.027944,177.739223 L175.54491,177.25711 L176.027944,176.775318 L176.510978,176.292884 L176.994012,176.775318 L177.96008,177.739223 L178.443114,177.739223 L178.926148,177.739223 L180.858283,178.221657 L182.307385,178.221657 L182.790419,178.703449 L182.790419,177.739223 L182.790419,177.25711 L182.790419,176.775318 L182.790419,176.292884 L181.824351,175.810771 L181.341317,175.810771 L181.341317,175.328979 L181.341317,174.846545 L180.858283,173.88264 L180.37525,173.400206 L179.409182,173.400206 L178.926148,173.400206 L179.409182,172.918093 L179.409182,172.436301 L179.892216,172.436301 L180.37525,172.918093 L182.307385,171.953867 L182.790419,172.436301 L183.273453,172.436301 L183.756487,172.918093 L184.722555,173.400206 L184.722555,173.88264 L183.756487,173.88264 L184.239521,174.364432 L184.722555,174.846545 L185.205589,175.328979 L186.171657,175.810771 L187.137725,175.810771 L187.137725,175.328979 L188.103792,175.328979 L188.586826,175.810771 L189.06986,175.810771 L189.06986,175.328979 L189.552894,175.328979 L189.552894,174.846545 L190.035928,175.328979 L191.48503,175.810771 L191.48503,176.292884 L191.968064,177.25711 L191.968064,177.739223 L192.934132,177.25711 L193.9002,177.25711 L194.383234,177.25711 L194.866267,177.739223 L195.349301,177.739223 L195.832335,178.221657 L195.832335,178.703449 L195.832335,179.185562 L196.315369,179.185562 L196.798403,179.185562 L197.281437,179.185562 L198.247505,179.667996 L198.730539,179.667996 L198.247505,178.703449 L198.730539,179.185562 L198.247505,178.221657 L198.247505,177.739223 L198.730539,177.25711 L198.247505,177.25711 L198.247505,176.775318 L197.764471,176.775318 L197.281437,176.292884 L197.281437,175.810771 L197.281437,174.846545 L198.247505,175.328979 L198.730539,175.328979 L199.213573,175.810771 L199.696607,175.810771 L199.696607,176.292884 L200.179641,176.292884 L200.662675,176.292884 L201.145709,175.810771 L201.628743,176.775318 L202.111776,176.775318 L202.59481,177.25711 L203.077844,176.775318 L204.526946,176.292884 L204.526946,175.810771 L204.526946,175.328979 L205.00998,175.328979 L205.493014,174.846545 L205.976048,174.846545 L206.459082,174.846545 L206.942116,174.364432 L206.942116,173.88264 L207.42515,173.88264 L207.908184,173.400206 L207.908184,173.88264 L208.391218,173.88264 L208.874251,173.400206 L209.840319,172.918093 L212.255489,171.953867 L212.738523,171.953867 L213.221557,171.953867 L213.221557,171.471754 L214.187625,170.989963 L215.153693,170.507528 L215.636727,170.507528 L216.11976,170.025415 L216.11976,170.507528 L216.602794,170.507528 L217.085828,170.507528 L217.085828,170.989963 L217.568862,171.471754 L218.53493,172.436301 L219.500998,171.953867 L219.500998,171.471754 L219.984032,171.471754 L220.467066,170.989963 L220.9501,170.989963 L220.9501,170.507528 L221.433134,170.025415 L221.916168,170.025415 L222.882236,168.579076 L223.365269,168.097285 L223.365269,167.61485 L223.365269,167.132737 L223.365269,165.686398 L224.331337,165.204607 L225.297405,165.204607 L225.780439,164.240059 L225.297405,163.758268 L225.297405,162.79372 L225.297405,162.311929 L223.848303,161.829494 L224.331337,161.829494 L221.433134,159.901042 L220.9501,159.419251 L220.467066,158.454704 L218.051896,157.490478 L216.11976,157.490478 L216.11976,157.008365 L216.11976,156.044139 L216.11976,155.562026 L216.602794,155.080234 L216.602794,154.5978 L216.602794,154.115687 L218.051896,154.115687 L219.017964,153.633895 L219.984032,153.151461 L219.984032,152.669348 L219.984032,152.187556 L219.984032,151.705122 L220.467066,151.705122 L220.467066,151.223009 L220.9501,149.294878 L224.814371,149.294878 L226.263473,149.294878 L226.746507,148.812444 L227.229541,148.330331 L227.712575,147.848539 L227.712575,147.366105 L228.195609,144.955861 L228.678643,144.955861 L228.678643,144.473427 L230.127745,143.509522 L230.127745,143.027088 L231.576846,142.544975 L233.025948,142.544975 L233.508982,141.580749 L233.508982,141.098636 L233.992016,140.616845 L233.992016,140.13441 L234.47505,139.652297 L234.47505,139.170506 L234.47505,138.688071 L234.47505,138.205958 L234.958084,137.724167 L235.924152,137.241732 L236.407186,137.724167 L236.89022,137.724167 L237.373253,137.724167 L238.339321,137.724167 L239.788423,136.759619 L239.788423,136.277828 L238.339321,134.349054 L237.856287,133.866941 L237.856287,132.902715 L237.373253,132.902715 L237.373253,132.420602 L237.373253,131.938811 L237.373253,131.456376 L237.373253,130.974263 L237.856287,129.527925 L237.856287,129.046133 L238.339321,129.046133 L238.339321,128.563699 L238.822355,128.563699 L238.822355,128.081586 L238.822355,127.599794 L239.305389,126.635247 L239.305389,126.153455 L240.271457,124.707116 L240.271457,122.29623 L239.305389,120.368099 L239.305389,119.885665 L239.305389,119.403552 L238.822355,119.403552 L238.339321,119.403552 L237.856287,119.403552 L237.373253,118.439326 L236.89022,117.475421 L235.924152,116.510874 L235.924152,116.029082 L235.441118,115.064535 L235.441118,114.100309 L234.958084,113.136404 L234.958084,112.65397 L234.47505,112.65397 L233.992016,112.65397 L233.508982,113.618196 L233.025948,115.064535 L232.05988,115.546648 L232.05988,116.029082 L231.576846,116.029082 L229.161677,115.546648 L228.195609,115.064535 L226.746507,114.582743 L225.780439,114.582743 L226.263473,113.618196 L225.297405,113.618196 L223.848303,113.618196 L220.9501,113.618196 L219.984032,113.618196 L219.500998,113.136404 L217.568862,112.171857 L217.085828,111.690066 L216.11976,111.207631 L216.602794,107.351049 L215.636727,105.90471 L214.670659,103.975936 L215.153693,103.975936 L216.11976,104.458371 L217.085828,104.458371 L217.568862,103.012032 L218.53493,103.012032 L219.500998,103.493823 L219.984032,103.012032 L217.085828,100.601145 L217.085828,99.6369195 L217.568862,97.7084676 L217.568862,97.226676 L217.085828,96.7442416 L216.602794,96.2621286 L217.085828,95.7803371 L217.568862,95.7803371 L218.051896,95.2979027 L218.53493,94.3339981 L219.500998,94.3339981 L219.984032,94.3339981 L220.467066,93.8515637 L220.9501,93.8515637 L221.433134,93.8515637 L221.916168,93.8515637 L222.399202,93.8515637 L222.882236,93.8515637 L223.365269,94.3339981 L223.848303,93.8515637 L224.331337,93.8515637 L225.297405,93.8515637 L226.263473,93.8515637 L226.746507,93.3694507 L227.229541,93.8515637 L228.195609,93.8515637 L228.678643,93.8515637 L229.644711,94.3339981 L229.644711,94.8157897 L230.127745,94.8157897 L231.093812,94.8157897 L231.576846,94.8157897 L232.05988,94.8157897 L233.025948,94.8157897 L233.508982,94.3339981 L233.992016,94.3339981 L234.47505,94.8157897 L234.958084,94.3339981 L234.958084,94.8157897 L235.441118,94.8157897 L236.89022,95.2979027 L237.373253,95.2979027 L238.339321,94.3339981 L238.339321,93.8515637 L238.339321,92.8876592 L238.339321,90.9588858 L238.822355,86.137756 L238.822355,79.8706086 L238.822355,76.9779307 L240.271457,74.0852528 L239.788423,73.1207054 L239.788423,72.6389138 L240.754491,71.1925749 L243.652695,66.3711236 L245.58483,62.9963328 L246.550898,59.1394289 L247.033932,56.7291854 L247.516966,56.246751 L247.516966,55.764638 L246.550898,51.4256212 L246.550898,49.0150562 L246.550898,48.5329433 L246.550898,45.1584738 L245.101796,44.1939264 L245.101796,43.2297004 L245.101796,42.7475874 L245.101796,42.2657959 L245.58483,41.7833615 L245.58483,40.8194569 L245.58483,40.3370225 L246.067864,38.8906836 L246.550898,38.8906836 L247.033932,38.4085706 L248,38.4085706 L247.033932,37.926779 L246.550898,37.4443446 L247.033932,36.9622316 L247.033932,36.4804401 L247.033932,34.5516667 L246.550898,33.1053278 L246.550898,32.6232148 L246.067864,32.6232148 L244.618762,32.1414232 L244.135729,32.1414232 L244.135729,31.6589888 L243.652695,31.6589888 L243.169661,31.6589888 L242.686627,31.6589888 L242.203593,31.6589888 L242.203593,31.1768758 L241.720559,31.1768758 L241.237525,31.1768758 L240.271457,31.1768758 L239.788423,30.6950843 L239.305389,30.6950843 L238.822355,30.2126499 L238.339321,29.7305369 L238.339321,29.2487453 L238.339321,28.2841979 L238.822355,27.8024064 L238.339321,26.837859 L238.339321,26.3560674 L238.822355,26.3560674 L239.305389,25.39152 L239.305389,24.9097285 L238.339321,25.39152 L237.856287,25.873633 L236.407186,25.873633 L235.924152,25.873633 L235.441118,25.873633 L234.958084,25.873633 L233.992016,25.39152 L233.992016,24.9097285 L233.508982,24.9097285 L233.025948,24.9097285 L232.05988,24.4272941 L231.093812,23.9451811 L231.093812,24.4272941 L230.127745,23.9451811 L229.161677,23.4633895 L228.678643,23.4633895 L228.678643,22.9809551 L229.161677,22.9809551 L228.678643,22.4988421 L227.712575,21.5346162 L227.229541,21.5346162 L226.746507,21.0525032 L226.746507,20.5707116 L226.746507,19.6061642 L226.746507,18.6419383 L226.263473,18.1598253 L226.263473,17.6780337 L226.263473,17.1955993 L226.263473,16.2316948 L225.780439,15.2671474 L225.297405,15.2671474 L225.297405,13.8208084 L225.780439,12.3744695 L225.780439,11.8926779 L224.331337,10.446339 L223.365269,9.96390456 L222.882236,10.9281305 L223.365269,11.4102435 L222.882236,11.4102435 L222.399202,11.4102435 L221.916168,11.4102435 L221.916168,10.9281305 L222.399202,11.4102435 L222.399202,10.9281305 L222.882236,9.96390456 L222.399202,9.96390456 L221.433134,9.48179158 L220.467066,10.446339 L219.984032,9.96390456 L219.017964,9.48179158 L217.568862,9.48179158 L217.085828,9 L216.11976,9.48179158 Z M181.824351,24.4272941 L182.307385,24.4272941 L182.307385,24.9097285 L181.824351,24.4272941 Z M180.858283,24.9097285 L181.341317,24.9097285 L180.858283,25.39152 L180.858283,24.9097285 Z M133.520958,53.8365075 L134.003992,53.8365075 L133.520958,54.3182991 L133.520958,53.8365075 Z M113.525285,90.8586063 L113.565538,90.8785336 L113.263803,91.0189892 L113.525285,90.8586063 Z M112.015965,91.9231118 L112.116436,91.843081 L112.015965,91.9330754 L112.015965,91.9231118 Z M111.301397,92.5058257 L111.321685,92.5058257 L112.015965,92.3952611 L112.015965,92.1037434 L112.055896,92.4052248 L111.331345,92.5157893 L111.321685,92.5058257 L110.335329,92.8876592 L111.301397,92.5058257 Z M71.6926148,181.114335 L72.1756487,181.114335 L71.6926148,181.596127 L71.6926148,181.114335 Z M184.722555,22.0170506 L185.205589,22.4988421 L184.722555,21.5346162 L184.722555,22.0170506 Z M229.161677,22.9809551 L229.644711,23.4633895 L229.644711,22.9809551 L229.161677,22.9809551 Z M246.067864,32.1414232 L246.550898,32.6232148 L246.550898,31.6589888 L246.067864,32.1414232 Z M134.487026,39.373118 L134.97006,39.373118 L134.97006,38.8906836 L134.487026,39.373118 Z M130.139721,50.4613952 L129.656687,50.4613952 L129.173653,50.4613952 L129.656687,50.9438296 L130.139721,50.9438296 L130.622754,50.4613952 L131.588822,49.0150562 L130.139721,50.4613952 Z M95.3612774,62.0321068 L95.8443114,62.5145412 L95.8443114,62.0321068 L95.3612774,62.0321068 Z M155.257485,99.6369195 L154.774451,99.6369195 L154.291417,99.6369195 L154.291417,100.119354 L154.774451,100.119354 L154.774451,100.601145 L155.257485,101.083258 L155.257485,100.601145 L155.740519,100.601145 L156.223553,100.119354 L155.740519,99.6369195 L155.257485,99.6369195 Z M114.682635,114.100309 L114.682635,114.582743 L114.199601,115.546648 L114.682635,115.546648 L115.165669,115.064535 L115.648703,115.064535 L116.131737,114.582743 L116.61477,114.582743 L116.61477,114.100309 L115.648703,114.582743 L115.165669,114.100309 L114.682635,113.618196 L114.682635,114.100309 Z M121.44511,118.92176 L121.636391,118.92176 L122.411178,118.439326 L121.44511,118.92176 Z M106.471058,124.707116 L106.954092,124.707116 L106.471058,124.224682 L106.471058,124.707116 Z M147.528942,125.188908 L148.011976,125.188908 L147.045908,124.707116 L147.528942,125.188908 Z M46.5748503,178.703449 L47.0578842,178.703449 L47.0578842,178.221657 L46.5748503,178.703449 Z M32.5668663,202.326985 L32.0838323,202.326985 L31.1177645,202.809419 L30.6347305,202.326985 L29.6686627,202.326985 L28.7025948,202.809419 L28.2195609,203.291211 L27.253493,202.809419 L26.2874251,203.291211 L25.8043912,203.291211 L25.3213573,203.773324 L24.8383234,203.773324 L24.3552894,203.291211 L23.8722555,203.291211 L23.3892216,202.809419 L22.9061876,202.809419 L22.4231537,202.809419 L22.4231537,202.326985 L21.9401198,202.326985 L21.9401198,202.809419 L20.491018,203.291211 L19.0419162,203.773324 L19.5249501,203.773324 L19.5249501,204.255758 L19.5249501,204.73755 L20.007984,204.73755 L20.007984,205.702097 L20.491018,205.702097 L20.9740519,206.183889 L21.4570858,206.183889 L21.9401198,206.666002 L22.4231537,207.148436 L22.9061876,206.666002 L22.9061876,207.148436 L22.4231537,207.148436 L23.3892216,208.112341 L23.3892216,208.594775 L23.3892216,209.076567 L22.9061876,209.55868 L23.3892216,210.041114 L23.3892216,210.522906 L23.8722555,209.55868 L24.3552894,209.55868 L24.8383234,208.594775 L25.3213573,208.112341 L27.253493,207.630228 L28.2195609,207.630228 L28.7025948,208.112341 L29.6686627,208.112341 L30.1516966,208.112341 L30.6347305,208.112341 L30.6347305,207.630228 L31.1177645,207.630228 L32.0838323,207.630228 L32.5668663,208.112341 L33.0499002,208.594775 L34.0159681,208.594775 L34.499002,207.630228 L35.4650699,207.630228 L35.9481038,207.148436 L35.9481038,206.666002 L35.9481038,206.183889 L35.9481038,205.702097 L35.4650699,205.702097 L35.4650699,205.219663 L34.9820359,204.73755 L34.499002,203.773324 L34.499002,203.291211 L34.0159681,202.809419 L33.5329341,202.809419 L33.0499002,202.809419 L33.0499002,202.326985 L32.5668663,202.326985 Z M102.123752,224.986295 L101.640719,224.986295 L102.123752,225.468408 L102.606786,224.986295 L102.123752,224.986295 Z" id="Fill-1"></path>
            <polygon id="Fill-2" points="174 10.3333333 174 10.6666667 173.5 11 173 11 173 10.6666667 173 10.3333333 173.5 10 174 10"></polygon>
            <polygon id="Fill-3" points="153.829787 10.5 155.297872 10.5 156.765957 10.5 163.12766 10 166.06383 9.5 167.531915 9.5 168.510638 10 169 10 169 10.5 169 11 168.510638 11 167.042553 11 166.06383 11 164.595745 11 163.617021 11.5 162.638298 12 162.148936 12 160.191489 12.5 158.234043 13 157.255319 13 156.765957 13 156.276596 13 154.808511 12.5 154.319149 12.5 153.340426 12.5 152.851064 12.5 152.851064 13 152.361702 13.5 151.87234 14 150.893617 14 150.404255 14.5 149.914894 14.5 149.425532 14.5 149.914894 14.5 149.425532 15 148.93617 14.5 147.957447 14.5 147.468085 14 146.489362 13.5 146 12.5 146 12 146.489362 11.5 146.978723 10.5 147.468085 10 148.446809 9 148.93617 9 149.425532 9 149.914894 9.5 150.404255 9.5 150.893617 10 150.404255 10 149.914894 9.5 149.425532 9.5 148.446809 9.5 147.957447 10 148.93617 10 149.425532 10 151.382979 10.5"></polygon>
            <polygon id="Fill-4" points="192 4.5 192 5.5 191.517241 5.5 191.034483 5.5 190.551724 5.5 190.068966 5.5 189.103448 6 187.655172 6.5 187.172414 7 187.172414 7.5 186.206897 8 185.724138 8 184.758621 8 184.275862 8 182.827586 8.5 182.344828 8.5 180.896552 8.5 180.413793 8.5 179.931034 9.5 179.931034 10 179.448276 10 179.448276 10.5 178.965517 10.5 178.482759 10.5 178.482759 11 178 10 178 9.5 178.482759 9.5 178.965517 9 178.482759 8.5 178.482759 8 178.482759 7 178.965517 6.5 179.931034 6 179.931034 5.5 179.448276 5.5 178.965517 5.5 178.482759 5.5 178 5.5 178.482759 5.5 178.965517 5 179.931034 5.5 181.37931 5.5 186.206897 5 187.655172 5 190.551724 4.5 191.517241 4"></polygon>
            <polygon id="Fill-5" points="123.5 32.2411894 123.5 32.2411894 123 31.7588106 123.5 31.7588106 124.5 31.7588106 125 31.7588106 124.5 31.7588106 124.5 32.2411894 124 32.2411894 123.5 32.2411894 123.5 31.7588106"></polygon>
            <polygon id="Fill-6" points="135.307692 15.7826087 133.384615 15.7826087 132.423077 16.2608696 131.942308 16.2608696 131.461538 16.7391304 130.5 17.6956522 130.019231 18.173913 129.538462 18.173913 129.057692 18.173913 129.057692 18.6521739 128.576923 18.6521739 128.096154 18.173913 128.096154 18.6521739 127.615385 18.6521739 127.134615 19.1304348 126.653846 19.1304348 126.653846 19.6086957 126.173077 19.1304348 125.692308 19.1304348 125.211538 19.1304348 124.730769 19.1304348 124.25 19.6086957 123.769231 20.0869565 123.288462 19.6086957 122.807692 20.0869565 122.326923 20.0869565 121.846154 20.5652174 121.846154 21.0434783 121.365385 21.0434783 120.403846 21.5217391 120.884615 21.5217391 120.403846 22 119.923077 22 118.961538 22 118.480769 21.0434783 118 21.0434783 118 20.5652174 118.480769 20.0869565 119.442308 18.6521739 120.403846 17.2173913 121.365385 16.7391304 122.326923 16.2608696 124.25 15.7826087 127.134615 15.3043478 128.096154 15.3043478 130.980769 14.3478261 133.384615 13.3913043 138.673077 11.4782609 140.115385 11.4782609 141.557692 11 142.038462 11.4782609 142.519231 11.4782609 143 11.9565217 143 12.9130435 143 13.3913043 143 12.9130435 143 12.4347826 142.519231 11.9565217 142.519231 12.4347826 142.038462 12.9130435 141.557692 13.3913043 140.596154 13.3913043 140.115385 13.3913043 139.153846 13.8695652 138.673077 13.3913043 138.673077 13.8695652 139.153846 13.8695652 138.673077 14.3478261 138.192308 14.3478261 137.711538 14.3478261 137.711538 13.8695652 137.230769 13.8695652 137.711538 14.3478261 137.711538 14.826087 137.230769 14.826087 136.75 14.826087 136.269231 14.3478261 136.75 14.826087 137.230769 15.3043478 137.711538 15.3043478 138.192308 15.3043478 137.711538 15.7826087 136.75 15.7826087 135.788462 15.7826087"></polygon>
            <polygon id="Fill-7" points="118 27 118 27 117.5 27.3333333 117 27.6666667 116.5 27.6666667 116 27.6666667 115.5 27.6666667 115.5 28 115 28 115 27.6666667 115.5 27.6666667 115 27.6666667 115.5 27.3333333 116 27 117 27"></polygon>
            <polygon id="Fill-8" points="111.65625 27.5 111.65625 28 111.1875 28.5 110.25 29 107.4375 30 106.5 30.5 106.5 31 106.5 32 106.96875 32 106.96875 31.5 107.4375 31.5 106.96875 32 106.5 33 105.09375 34 104.625 34.5 104.15625 34.5 104.15625 35 103.6875 35.5 102.75 36 102.28125 36 101.34375 36 99.9375 36 99.46875 36.5 99.46875 37 99.9375 37 99.46875 37 99 37 99 36 99 35.5 99 35 101.8125 33.5 103.21875 32 104.15625 31.5 105.09375 30.5 105.5625 30 107.4375 28.5 108.375 28 108.84375 27.5 110.25 27 111.1875 26.5 112.125 26 112.59375 26 114 26.5 114 27 113.53125 27.5 113.0625 27.5 112.59375 27.5"></polygon>
            <polygon id="Fill-9" points="89 60.8 88 61.2 87.5 61.6 87 61.6 87 62 86.5 62 86 61.6 86 61.2 86 60.8 86 60.4 86.5 60.4 87 60.4 87.5 60.4 89 60 90 60 90 60.4"></polygon>
            <polygon id="Fill-10" points="100 53.6511628 99 54.627907 98.5 55.1162791 98 55.1162791 97.5 55.1162791 97 55.1162791 95.5 57.0697674 95.5 57.5581395 95.5 58.0465116 95 58.0465116 94.5 58.0465116 94 57.5581395 93 57.0697674 92.5 57.0697674 93 57.5581395 93.5 58.0465116 94 58.5348837 94.5 58.5348837 93.5 58.5348837 93.5 59.0232558 92.5 59.0232558 92 59.0232558 92.5 59.0232558 92 59.5116279 91.5 59.5116279 91 60 90.5 60 90.5 59.5116279 90.5 58.5348837 90 56.5813953 90 55.6046512 90 55.1162791 90.5 53.6511628 90.5 53.1627907 91 51.6976744 91.5 50.2325581 92 48.7674419 92.5 48.2790698 93.5 46.8139535 94.5 44.8604651 96 43.3953488 96 43.8837209 96 44.372093 96.5 43.8837209 97 43.3953488 97.5 42.9069767 98 42.9069767 98 43.3953488 98 42.9069767 97.5 42.9069767 97.5 42.4186047 97 42.9069767 96 43.3953488 97.5 40.4651163 98 39.9767442 99 39.4883721 99 39 99.5 39 100 39 100.5 39.4883721 101 39.9767442 101 40.4651163 101 40.9534884 101.5 40.9534884 101 40.9534884 101 41.4418605 101.5 41.9302326 102 42.4186047 103 43.8837209 103 44.372093 102.5 44.8604651 102.5 47.7906977 102.5 49.255814 102.5 49.744186 102 50.7209302 101.5 50.7209302 101 51.2093023 101 52.1860465 100 53.1627907"></polygon>
            <polygon id="Fill-11" points="119 59 119 59 112 64.5384615 111.5 65 111 65 111 64.5384615 112 64.5384615"></polygon>
            <polygon id="Fill-12" points="102.5 70 101.5 69.5454545 100 70 102 69.0909091 102.5 68.6363636 103.5 68.1818182 104 68.1818182 105 66.8181818 105 66.3636364 106 65.4545455 107 65.4545455 107.5 65 108 65 108.5 65.4545455 109 65.4545455 109.5 65 110 65 110.5 65.4545455 110.5 65 111 65 111 65.9090909 110.5 65.4545455 110.5 66.3636364 110 66.3636364 110 67.2727273 109 68.1818182 108.5 68.1818182 107.5 68.6363636 107 68.6363636 106.5 69.5454545 106 69.5454545 105.5 69.5454545 104 69.5454545 103.5 69.5454545 103.5 70"></polygon>
            <path d="M33.9473684,184.142857 L33.4605263,185.095238 L32.9736842,185.571429 L32,186.047619 L32.4868421,186.047619 L33.4605263,186.52381 L33.9473684,187 L34.4342105,187 L34.4342105,186.52381 L33.9473684,186.047619 L33.4605263,185.571429 L33.9473684,184.142857 Z M43.1973684,177.47619 L41.7368421,177.952381 L41.25,177.952381 L40.7631579,177.952381 L41.7368421,177.47619 L40.2763158,177.952381 L37.3552632,178.904762 L36.3815789,179.380952 L35.8947368,179.380952 L34.4342105,179.857143 L33.9473684,179.857143 L33.4605263,180.809524 L33.4605263,181.285714 L33.4605263,181.761905 L33.9473684,183.190476 L33.9473684,183.666667 L34.4342105,183.666667 L34.4342105,184.142857 L34.9210526,184.142857 L35.8947368,183.666667 L35.8947368,183.190476 L35.4078947,183.190476 L35.4078947,182.714286 L35.8947368,182.714286 L36.3815789,182.714286 L36.8684211,182.714286 L37.3552632,182.238095 L37.8421053,182.238095 L38.3289474,182.238095 L38.8157895,182.238095 L39.3026316,181.761905 L39.7894737,181.285714 L40.7631579,181.761905 L41.7368421,181.761905 L42.7105263,182.238095 L42.7105263,182.714286 L43.1973684,183.190476 L43.6842105,184.142857 L44.1710526,184.142857 L44.1710526,185.095238 L44.1710526,185.571429 L43.6842105,185.571429 L43.6842105,186.047619 L44.1710526,186.047619 L43.6842105,186.52381 L43.6842105,187 L44.1710526,187.952381 L44.6578947,187.952381 L44.6578947,188.428571 L45.1447368,188.904762 L45.1447368,189.380952 L45.6315789,190.333333 L45.6315789,191.285714 L46.1184211,191.285714 L46.6052632,191.285714 L47.0921053,191.761905 L47.5789474,191.285714 L47.5789474,191.761905 L48.5526316,191.761905 L49.5263158,191.761905 L50.0131579,191.761905 L50.5,191.761905 L50.9868421,192.238095 L52.4473684,192.714286 L52.9342105,193.666667 L53.4210526,194.142857 L54.3947368,194.142857 L54.8815789,194.142857 L54.8815789,194.619048 L55.8552632,194.619048 L56.3421053,195.095238 L56.8289474,195.095238 L56.8289474,195.571429 L56.8289474,196.047619 L57.8026316,196.52381 L58.2894737,197 L59.75,197 L60.2368421,197 L60.7236842,197 L61.6973684,196.52381 L62.6710526,196.52381 L63.1578947,196.52381 L64.6184211,196.047619 L65.5921053,195.571429 L66.0789474,195.095238 L66.5657895,194.142857 L66.5657895,193.666667 L66.0789474,193.666667 L66.0789474,193.190476 L66.5657895,193.190476 L67.0526316,193.190476 L67.5394737,193.190476 L68.0263158,193.190476 L69,192.714286 L68.5131579,192.714286 L68.5131579,192.238095 L68.5131579,191.761905 L68.0263158,191.761905 L67.5394737,192.238095 L66.5657895,192.238095 L65.5921053,192.238095 L64.6184211,192.238095 L64.1315789,192.238095 L63.1578947,192.238095 L62.1842105,190.809524 L61.2105263,190.809524 L60.7236842,190.333333 L60.2368421,190.333333 L59.75,189.857143 L59.75,189.380952 L58.7763158,188.904762 L58.7763158,188.428571 L58.7763158,187.952381 L58.2894737,187.952381 L56.8289474,186.52381 L55.3684211,185.095238 L54.8815789,185.095238 L54.8815789,184.619048 L53.9078947,184.619048 L53.4210526,184.142857 L52.9342105,184.142857 L51.9605263,183.190476 L50.9868421,182.714286 L50.5,182.714286 L48.5526316,181.761905 L48.0657895,181.285714 L46.6052632,180.809524 L46.6052632,180.333333 L46.1184211,179.857143 L45.6315789,179.857143 L45.6315789,180.333333 L45.1447368,179.857143 L45.6315789,179.857143 L45.6315789,179.380952 L45.6315789,178.904762 L45.1447368,178.904762 L45.1447368,179.380952 L44.6578947,179.380952 L44.6578947,178.904762 L43.6842105,178.428571 L43.6842105,177.952381 L43.1973684,177.47619 Z M43.1973684,177 L42.2236842,177.47619 L43.1973684,177.47619 L43.1973684,177 Z" id="Fill-13"></path>
            <polygon id="Fill-14" points="40.5 184.2 41 184.6 40.5 184.2 39.5 184.2 38.5 184.6 37.5 185 37 185 37 184.6 38 184.2 38 183.8 38.5 183.4 39 183 39 183.4 39.5 183.4"></polygon>
            <polygon id="Fill-15" points="62 187.5 63 188 64.5 188.5 65.5 189 66 189.5 65.5 189.5 64.5 190 63 190 62.5 190 62 189.5 61.5 189 61 189 60 188 59.5 188 59 187.5 59.5 187 60.5 187"></polygon>
            <path d="M11.0168067,222 L10.5381345,222 L9.57983193,222 L9.57983193,222.488889 L9.10115966,222.488889 L8.62184874,222.488889 L7.66418487,222.977778 L7.18487395,222.977778 L6.70588235,222.977778 L6.22721008,223.466667 L5.74789916,223.466667 L5.26890756,223.466667 L4.79023529,223.466667 L4.31092437,223.466667 L3.83193277,223.466667 L3.83193277,223.955556 L3.3532605,223.955556 L2.87394958,224.444444 L2.39495798,224.444444 L1.91628571,224.444444 L1.43697479,224.933333 L0.957983193,224.933333 L0.957983193,225.422222 L1.43697479,225.911111 L1.43697479,226.888889 L1.43697479,227.377778 L1.43697479,227.866667 L1.91628571,228.355556 L1.91628571,229.333333 L0.479310924,230.8 L0,231.288889 L0.479310924,231.777778 L1.43697479,232.755556 L0.957983193,232.755556 L0.479310924,232.755556 L0.479310924,233.244444 L0.957983193,233.733333 L1.43697479,234.222222 L1.43697479,234.711111 L0.957983193,235.2 L1.43697479,235.688889 L1.91628571,235.688889 L2.39495798,236.666667 L2.87394958,236.666667 L3.3532605,237.644444 L3.83193277,237.155556 L4.31092437,237.644444 L4.31092437,238.133333 L4.31092437,238.622222 L4.79023529,238.622222 L5.26890756,239.111111 L5.74789916,239.111111 L7.18487395,239.111111 L11.0168067,238.622222 L10.5381345,235.2 L10.0588235,234.711111 L11.0168067,234.222222 L11.4957983,234.711111 L11.9751092,234.711111 L11.9751092,234.222222 L12.4537815,234.222222 L12.9327731,234.222222 L12.9327731,233.733333 L13.412084,233.733333 L13.8907563,234.222222 L14.3697479,234.711111 L14.8490588,234.222222 L14.3697479,233.244444 L15.3277311,232.755556 L15.8067227,233.244444 L16.7647059,233.733333 L17.2436975,234.222222 L18.2016807,234.711111 L18.6806723,234.711111 L18.6806723,234.222222 L19.6386555,234.222222 L20.596958,235.2 L21.0756303,235.2 L21.5546218,235.688889 L21.5546218,236.177778 L22.9915966,236.177778 L23.4709076,236.666667 L23.4709076,236.177778 L25.3865546,236.666667 L25.8655462,236.666667 L26.3448571,237.644444 L26.8235294,237.644444 L26.8235294,237.155556 L27.302521,237.644444 L27.7818319,238.133333 L28.2605042,238.133333 L28.2605042,238.622222 L27.7818319,239.111111 L27.7818319,240.088889 L27.7818319,241.555556 L27.7818319,242.533333 L28.2605042,243.022222 L28.7394958,243.022222 L28.7394958,242.533333 L29.2188067,243.022222 L29.697479,243.022222 L30.1764706,243.022222 L30.6557815,243.022222 L31.1344538,243.022222 L31.6134454,243.022222 L32.0927563,243.022222 L32.5714286,243.022222 L33.5297311,242.044444 L34.0084034,242.044444 L34.487395,242.044444 L34.487395,243.022222 L34.0084034,243.022222 L33.5297311,243.511111 L34.0084034,244 L34.487395,244 L34.9667059,244 L35.9243697,243.511111 L36.4036807,243.511111 L35.9243697,242.533333 L36.8823529,242.044444 L37.3613445,243.022222 L37.8406555,243.022222 L37.8406555,242.533333 L38.3193277,242.533333 L38.7983193,242.533333 L39.2776303,242.044444 L39.2776303,241.555556 L40.2352941,241.555556 L40.714605,240.577778 L41.1932773,240.577778 L41.6722689,240.088889 L42.6302521,239.6 L43.1092437,239.6 L43.1092437,240.088889 L43.5885546,240.088889 L44.0672269,239.6 L44.0672269,240.088889 L45.0255294,240.088889 L45.5042017,239.6 L45.9831933,239.6 L46.4625042,239.111111 L47.4201681,238.133333 L48.3781513,237.644444 L49.3364538,237.155556 L51.7310924,235.2 L52.2104034,234.711111 L57,228.844444 L56.5213277,228.844444 L56.5213277,228.355556 L56.0420168,228.355556 L56.0420168,227.866667 L56.0420168,227.377778 L55.5630252,227.866667 L55.5630252,227.377778 L55.5630252,226.888889 L55.0843529,226.4 L54.605042,226.4 L54.1260504,226.4 L54.605042,225.911111 L54.1260504,225.911111 L53.6473782,225.911111 L53.6473782,226.4 L53.1680672,226.888889 L53.1680672,227.377778 L53.6473782,227.866667 L54.1260504,227.866667 L54.1260504,228.355556 L54.1260504,228.844444 L53.6473782,228.355556 L53.1680672,228.844444 L53.6473782,228.844444 L53.1680672,229.333333 L53.6473782,229.333333 L53.6473782,229.822222 L53.1680672,229.333333 L52.2104034,229.333333 L52.6890756,229.822222 L52.6890756,230.311111 L52.2104034,229.333333 L51.7310924,228.844444 L51.2521008,228.844444 L51.7310924,229.333333 L52.2104034,229.822222 L51.7310924,229.822222 L51.7310924,229.333333 L51.2521008,229.333333 L51.2521008,228.844444 L51.2521008,228.355556 L50.7734286,227.866667 L50.2941176,227.377778 L49.8151261,227.377778 L48.8571429,227.377778 L48.8571429,227.866667 L49.3364538,227.866667 L49.8151261,227.866667 L50.2941176,227.866667 L49.8151261,228.355556 L49.8151261,228.844444 L50.2941176,228.355556 L50.7734286,228.844444 L50.2941176,228.844444 L50.2941176,229.333333 L50.2941176,229.822222 L50.7734286,229.822222 L50.7734286,230.311111 L50.2941176,230.311111 L49.3364538,228.355556 L48.8571429,228.355556 L47.4201681,227.377778 L47.4201681,226.888889 L46.9411765,226.888889 L46.9411765,227.377778 L45.0255294,226.888889 L44.5462185,226.4 L44.5462185,225.911111 L44.0672269,225.422222 L44.0672269,224.933333 L43.5885546,224.444444 L44.0672269,223.955556 L43.5885546,223.955556 L43.1092437,223.466667 L43.1092437,222.977778 L42.1515798,222.977778 L41.6722689,222.977778 L41.1932773,222.488889 L40.2352941,222.488889 L39.7563025,223.466667 L39.7563025,223.955556 L39.2776303,223.955556 L39.2776303,224.933333 L39.2776303,225.422222 L39.2776303,225.911111 L39.2776303,226.4 L38.7983193,226.888889 L38.7983193,226.4 L38.3193277,226.888889 L37.8406555,226.888889 L36.4036807,227.377778 L35.4453782,227.866667 L34.9667059,228.355556 L34.487395,228.355556 L34.487395,228.844444 L33.5297311,228.844444 L33.5297311,229.333333 L33.0504202,229.822222 L32.5714286,229.822222 L31.6134454,229.822222 L31.1344538,229.822222 L30.6557815,229.333333 L30.1764706,229.333333 L30.1764706,229.822222 L29.697479,229.333333 L29.697479,229.822222 L29.697479,230.311111 L29.2188067,229.333333 L29.2188067,228.844444 L28.7394958,228.844444 L28.2605042,228.844444 L28.2605042,228.355556 L26.8235294,228.355556 L26.8235294,229.822222 L25.8655462,229.333333 L25.8655462,228.844444 L26.3448571,228.355556 L25.8655462,228.355556 L24.9078824,228.355556 L24.4285714,228.355556 L23.9495798,228.355556 L23.4709076,228.355556 L23.4709076,227.866667 L22.9915966,227.377778 L22.512605,226.888889 L22.0339328,226.888889 L22.0339328,226.4 L21.5546218,225.911111 L20.1176471,225.911111 L19.1599832,225.422222 L18.6806723,225.422222 L17.2436975,224.933333 L16.7647059,224.933333 L16.7647059,224.444444 L16.2860336,224.444444 L15.3277311,223.955556 L14.8490588,223.955556 L14.3697479,223.466667 L13.8907563,222.977778 L13.412084,222.977778 L12.9327731,222.488889 L12.4537815,222.488889 L12.4537815,222 L11.0168067,222 Z M54.605042,226.888889 L55.0843529,226.888889 L54.605042,227.377778 L54.605042,226.888889 Z M53.6473782,226.888889 L54.1260504,227.377778 L53.6473782,227.377778 L53.6473782,226.888889 Z M51.2521008,230.8 L51.7310924,230.8 L51.7310924,230.311111 L51.2521008,230.311111 L51.2521008,230.8 Z M52.2104034,226.888889 L51.7310924,226.888889 L51.7310924,227.377778 L51.7310924,227.866667 L52.2104034,228.355556 L52.6890756,228.355556 L53.1680672,228.355556 L53.6473782,228.355556 L54.1260504,228.355556 L53.6473782,227.866667 L53.1680672,227.866667 L53.1680672,227.377778 L52.6890756,227.377778 L52.6890756,226.888889 L52.2104034,226.888889 Z M52.6890756,228.355556 L52.2104034,228.844444 L53.1680672,228.844444 L52.6890756,228.355556 Z" id="Fill-16"></path>
            <polygon id="Fill-17" points="119 58 121 56.1176471 121.5 55.6470588 127 50.9411765 127.5 50.9411765 129 50.4705882 129.5 50.4705882 129.5 50 129.5 50.4705882 130 50.9411765 129.5 50.4705882 129 50.4705882 128 50.9411765 127 50.9411765 122.5 55.1764706 122 55.6470588 121.5 55.6470588 121 56.1176471"></polygon>
            <polygon id="Fill-18" points="22.5 208.666667 22.5 208.666667 22 208.333333 22 208 22.5 208 23 208.333333 23 208.666667 22.5 209"></polygon>
            <polygon id="Fill-19" points="24.5 197 24.5 197 24 197.5 24 198.5 24 199 24.5 199.5 25 199 24.5 198.5 25 199 24.5 199.5 23.5 199 23.5 199.5 23.5 200 23 199.5 22.5 200 23 200 23 200.5 22.5 200.5 22.5 200 22 200.5 22 201 22 202 21.5 202 22 201 22 200.5 21.5 200 21 200 21.5 200 22 199 23 198.5 23 198 23 197.5 23 198 23.5 198 24 198 24 197.5"></polygon>
            <polygon id="Fill-20" points="126.48 90 126.48 90 127.44 90 130.8 91.4594595 131.28 91.9459459 133.68 94.3783784 134.64 95.8378378 134.64 96.3243243 137.04 100.216216 138 102.648649 138 103.135135 137.52 103.135135 137.04 103.621622 136.08 104.108108 135.6 106.054054 135.12 107.027027 135.6 107.027027 135.12 108 135.12 107.027027 135.6 106.054054 136.08 104.108108 136.56 103.621622 137.52 103.135135 138 103.135135 138 102.648649 137.04 100.216216 133.68 94.3783784 131.28 91.9459459 130.8 91.4594595 127.92 90 127.44 90.972973 126.96 90.972973 126.48 90.972973 126 90.972973 126.48 90.972973 126.96 90.4864865 127.44 90 126.96 90"></polygon>
            <polygon id="Fill-21" points="192 5 193 5 193 5.5 192 6"></polygon>
            <path d="M198.500042,0 L198,1 L198,1.5 L198.500042,2 L198.99975,3.5 L199.500125,4 L200.000167,3 L199.500125,3 L199.500125,2.5 L199.500125,2 L200.000167,2 L201.00025,2 L201.500292,2 L201.00025,1.5 L200.499875,1 L200.499875,0.5 L200.000167,0 L198.500042,0 Z M201.500292,2 L202,2.5 L201.500292,2 Z" id="Fill-22"></path>
            <polygon id="Fill-23" points="206.428571 1 207.285714 1 208.142857 1 209 1.5 209 2 209 1.5 208.142857 1.5 207.285714 1.5 206.857143 1.5 206.428571 1.5 206 2 206 1.5"></polygon>
            <polygon id="Fill-24" points="37 188.241189 37 188.241189 37 187.758811 37.3333333 187.758811 38 188.241189 37.6666667 188.241189"></polygon>
            <polygon id="Fill-25" points="55 199 55 198.6 54.5714286 198.2 54.1428571 197.8 54.1428571 198.2 53.7142857 198.2 52.8571429 197.4 53.2857143 197 52.8571429 197 52.8571429 197.4 52 197.4 52 197 52.8571429 197 54.1428571 197 54.5714286 197 54.1428571 197 53.7142857 197 53.7142857 197.4 54.5714286 197.4 54.5714286 197.8 55 198.2 55 198.6"></polygon>
            <polygon id="Fill-26" points="42 186.5 42.4 186.5 42.8 186 42.8 186.5 42.8 187 43.2 188.5 44 189.5 43.6 190 43.2 190 43.2 189.5 42.8 189 42.8 188.5 42.4 187.5 42 187"></polygon>
            <polygon id="Fill-27" points="40.5 187.758811 40 188.241189 39.5 188.241189 39 188.241189 39 187.758811 39.5 187.758811 40 187.758811 41 187.758811"></polygon>
            <polygon id="Fill-28" points="38.2153846 199.064516 37.7384615 199.548387 37.2615385 199.548387 36.7846154 199.548387 35.8307692 199.064516 35.3538462 199.064516 36.3076923 198.580645 36.3076923 198.096774 36.3076923 198.580645 35.3538462 199.064516 34.8769231 199.064516 35.3538462 198.096774 34.8769231 197.612903 34.8769231 196.645161 34.4 196.645161 34.4 196.16129 34.4 195.677419 33.9230769 194.709677 32.9692308 194.225806 32.4923077 194.709677 32.4923077 194.225806 31.0615385 193.741935 31.0615385 193.258065 31.0615385 192.774194 30.5846154 192.290323 29.6307692 192.290323 29.1538462 192.290323 28.6769231 192.774194 28.6769231 193.258065 29.1538462 193.258065 29.6307692 192.774194 30.1076923 193.258065 29.6307692 192.774194 29.1538462 193.258065 28.2 193.258065 27.7230769 194.225806 26.7692308 194.709677 26.2923077 194.709677 25.8153846 194.709677 24.8615385 195.193548 24.3846154 195.677419 24.3846154 196.645161 24.8615385 196.645161 24.8615385 197.129032 24.3846154 197.129032 23.9076923 196.645161 24.3846154 196.645161 24.3846154 195.677419 23.9076923 195.193548 23.4307692 195.193548 22.9538462 195.193548 22.9538462 194.709677 22.4769231 194.225806 22 193.258065 22 192.290323 22 191.322581 22 190.83871 22.4769231 189.870968 23.4307692 188.903226 24.3846154 188.419355 24.8615385 188.419355 25.3384615 188.419355 27.2461538 187.935484 27.7230769 187.451613 28.6769231 187.451613 29.6307692 187.451613 31.0615385 187.935484 31.0615385 187.451613 31.0615385 186.967742 31.5384615 186.483871 31.5384615 186 32.0153846 186 32.4923077 186 32.0153846 186.483871 32.4923077 186.483871 32.0153846 186.967742 32.0153846 186.483871 31.5384615 186.483871 31.5384615 186.967742 31.0615385 187.935484 31.5384615 187.935484 32.0153846 187.935484 32.4923077 187.935484 32.9692308 187.935484 34.4 187.935484 35.3538462 187.451613 35.8307692 187.935484 36.3076923 188.419355 36.3076923 188.903226 36.7846154 188.903226 37.2615385 188.903226 37.7384615 188.903226 38.6923077 188.419355 39.1692308 188.903226 40.6 188.903226 40.6 189.387097 40.6 188.903226 41.0769231 189.387097 41.0769231 190.354839 41.5538462 190.83871 42.5076923 191.806452 42.9846154 192.774194 42.9846154 193.741935 43.4615385 193.741935 44.4153846 193.741935 44.8923077 193.741935 45.8461538 194.225806 47.2769231 195.193548 47.7538462 195.193548 47.7538462 195.677419 48.2307692 195.677419 49.1846154 194.709677 49.6615385 194.709677 50.1384615 194.709677 51.5692308 194.709677 52.0461538 194.225806 52.5230769 194.225806 52.5230769 195.193548 52.5230769 195.677419 53 195.677419 52.5230769 196.16129 52.0461538 196.16129 52.5230769 195.677419 52.0461538 195.193548 52.0461538 194.709677 51.5692308 194.709677 51.5692308 195.193548 51.0923077 194.709677 49.6615385 195.193548 49.1846154 195.193548 48.7076923 195.677419 48.2307692 195.677419 48.2307692 196.16129 48.7076923 196.645161 48.7076923 197.129032 48.2307692 197.612903 48.7076923 197.612903 48.7076923 197.129032 48.2307692 197.612903 48.2307692 198.096774 47.7538462 198.096774 47.2769231 198.580645 46.8 199.548387 46.3230769 199.548387 45.8461538 200.032258 45.3692308 199.548387 44.4153846 200.032258 43.9384615 200.516129 42.9846154 200.516129 42.9846154 201 41.5538462 201 41.0769231 201 40.1230769 201 39.6461538 201 38.6923077 200.032258"></polygon>
            <polygon id="Fill-29" points="34.2415584 209.241189 34.2415584 208.758811 33.7584416 208.758811 34.2415584 208.758811"></polygon>
            <polygon id="Fill-30" points="69 193 68.5 193.5 69 193.5 68.5 193.5 68.5 194 68 193.5"></polygon>
        </g>
        <g id="Group-5-Copy" transform="translate(216.000000, 49.000000)">
            <path d="M19.5007728,0 C30.2704791,0 39,8.72986684 39,19.5 C39,30.2701332 30.2704791,39 19.5007728,39 C8.73106646,39 0,30.2701332 0,19.5 C0,8.72986684 8.73106646,0 19.5007728,0 Z" id="Stroke-1" stroke="#E75F52"></path>
            <path d="M19.5,13 C23.0899976,13 26,15.910354 26,19.5007853 C26,23.089646 23.0899976,26 19.5,26 C15.9100024,26 13,23.089646 13,19.5007853 C13,15.910354 15.9100024,13 19.5,13" id="Fill-3" fill="#E75F52"></path>
        </g>
    </g>
</svg>