<?xml version="1.0" encoding="UTF-8"?>
<svg width="294px" height="301px" viewBox="0 0 294 301" version="1.1" xmlns="http://www.w3.org/2000/svg" xmlns:xlink="http://www.w3.org/1999/xlink">
    <!-- Generator: Sketch 64 (93537) - https://sketch.com -->
    <title>83</title>
    <desc>Created with Sketch.</desc>
    <g id="83" stroke="none" stroke-width="1" fill="none" fill-rule="evenodd">
        <g id="Group-137" transform="translate(-1.000000, 0.000000)">
            <path d="M132.2869,190.9417 C131.7269,188.6467 129.5819,187.1677 127.6169,186.0857 C128.0259,184.2737 129.3609,182.2857 127.4309,180.6687 C124.9629,180.3387 122.2289,181.3777 123.3209,184.2167 L120.1449,182.3487 C118.2219,180.4367 119.5139,177.6507 120.7989,176.0907 C119.8279,173.6397 118.9569,170.9167 115.5689,171.9817 C115.2879,171.9207 114.8709,171.6557 114.9149,171.3287 C117.7799,170.4737 120.7019,169.7397 123.4139,168.2467 C126.1639,168.7297 128.5059,167.6557 130.5129,166.0047 L132.6609,166.0977 C133.2049,166.9937 132.0709,167.6707 132.4739,168.5257 L133.5949,169.2737 C138.2569,169.5467 137.6559,176.8787 142.7479,175.8107 C143.9879,179.1287 145.8369,183.0327 150.2199,181.6017 C153.3499,174.7427 145.4859,166.6767 150.3129,160.0267 C150.5929,159.0747 150.8169,158.1097 150.6869,157.0387 C148.8039,155.5987 146.7689,153.8107 144.3359,153.3017 C141.7689,152.2547 138.4539,151.8847 136.5829,149.6597 L138.7319,149.5657 L147.9779,150.0327 C151.9609,153.9897 151.6879,161.5887 157.3179,163.4827 C156.7209,165.8427 159.8749,169.8597 161.8949,167.1257 C164.0089,169.8267 167.5259,168.4117 168.5259,165.5377 L168.1529,160.1207 C167.7349,159.7677 167.4099,159.1057 166.7509,159.2797 C162.9739,159.7647 159.3159,158.6087 156.7579,155.8237 C155.7669,152.4057 155.1519,148.9307 154.4229,145.4567 L155.9169,143.2147 C154.9609,140.8237 151.6409,140.0967 152.4609,136.9577 L151.4339,136.1167 C146.6629,136.1837 141.4889,136.9417 138.2649,132.8467 C133.3669,132.7097 129.3009,129.0667 128.5509,124.2547 C127.0659,122.6677 125.4319,121.3227 123.6939,120.1447 L116.0359,123.1337 C115.5199,125.9157 111.8899,126.0327 109.6839,126.6827 C112.4019,125.1627 117.1669,122.9457 115.1949,119.3037 C119.4019,119.7457 123.3179,118.6787 126.4029,115.9417 C127.3669,117.9087 130.9669,118.0937 132.0069,115.9417 C132.4029,114.3257 131.5249,112.9367 130.1389,112.2067 C128.8839,112.4747 128.0109,113.8357 126.8699,113.9807 C124.9869,108.0747 119.5519,103.7477 116.2229,98.4757 C114.3899,98.0677 112.7709,97.2377 111.5519,95.6737 L110.7119,92.7787 C110.9399,86.9697 105.3859,83.7417 103.5199,78.6757 C101.8889,77.3477 100.7909,75.6507 100.2509,73.7257 C99.2909,69.9597 102.1409,67.5027 103.2399,64.3857 L103.2399,61.7707 C102.4119,60.0367 102.9499,56.6947 105.3879,56.8197 C106.5799,54.3707 109.1649,54.1057 110.7119,52.4307 C111.4389,52.8517 112.1589,53.5697 112.5799,54.2977 C111.7179,55.7617 109.1569,55.0587 108.4699,56.9137 L110.6189,61.8637 C114.5219,65.6517 119.6969,67.2487 124.0679,70.0827 C123.7239,73.5837 124.9039,76.5607 126.1229,79.6097 C128.4539,80.6307 130.9489,81.3537 132.8479,83.3457 C135.2909,84.0697 137.9839,83.7497 140.5999,83.8127 C140.9549,83.7457 141.2799,83.4207 141.3469,83.0657 L136.3969,77.5547 C132.0809,76.6887 125.7579,72.3387 126.8699,67.4677 C129.4289,66.8707 132.4099,69.1797 135.2759,69.3357 C138.0579,72.1267 140.3379,75.4177 141.0669,79.2357 L144.8029,81.1037 L146.2039,81.5707 C152.2599,79.3967 148.0869,70.4507 142.9339,69.5227 C142.0649,68.8957 141.2979,68.1047 140.3199,67.6547 C139.5379,66.9267 138.8659,65.8457 138.8249,64.8527 L140.9729,63.6387 C146.0579,63.5557 150.1669,66.8357 154.3289,69.3357 C155.1009,70.9157 155.7479,72.5727 156.7579,74.0057 C158.6229,74.0587 160.8279,73.6307 162.2679,72.6047 C161.0989,68.8197 158.1309,65.9217 155.4499,62.9847 C152.7659,62.4947 150.9709,60.2027 149.1919,58.4077 C147.4889,58.3377 147.0999,62.1307 144.8029,60.1827 C143.9429,59.5757 143.8019,58.5717 143.5879,57.6607 C145.8609,56.9697 146.7359,55.3547 144.9899,53.2707 C141.9909,52.9157 138.8019,49.8267 138.4519,46.9197 C142.1689,44.5997 146.8309,47.1167 150.6869,47.5737 C156.0889,46.7067 157.6319,40.8117 161.8949,38.2337 L165.5369,38.3267 C168.8179,43.2097 175.6619,43.3107 179.1739,38.7007 C182.1329,38.6517 183.0449,35.9207 184.6839,34.1237 C186.5279,34.2137 183.9679,36.5977 185.5249,37.3927 C187.9159,37.9967 190.3289,38.3327 192.9039,38.2337 C199.5379,42.2637 207.6529,41.0487 214.8529,43.1837 L216.1599,47.1067 C216.6829,47.9817 217.5579,47.3807 218.2149,47.1067 C221.1399,45.6567 221.6369,42.4557 222.8849,39.8207 C224.7379,38.2897 226.3649,36.3467 228.0219,34.4977 C225.6879,31.3367 226.5979,27.9167 226.2469,24.5037 C228.6959,24.1557 230.5089,22.2857 232.2249,20.3947 C233.0799,19.9907 233.7569,21.1257 234.6529,20.5807 C237.6569,16.3407 234.7089,11.1437 233.9059,6.5707 C229.8229,3.4257 224.7719,2.3547 220.1759,0.4997 C218.9709,2.2707 216.4959,2.7937 215.3199,4.6097 C215.7789,6.6017 217.9509,7.5987 218.9619,9.1867 C218.9889,12.4247 220.5289,15.4697 218.5879,18.3387 C215.8309,19.0727 212.1939,21.1897 209.7149,18.8067 L208.2209,18.8067 C206.4059,19.9147 204.4819,20.6527 202.2439,20.3007 C199.0349,22.1287 195.1939,21.7807 191.7829,22.9157 L189.6339,22.8227 C189.2599,22.4257 188.7629,22.1047 188.7009,21.5147 C183.9589,19.9347 179.1959,14.4857 174.2239,18.0597 C172.5719,16.2017 170.7489,15.1967 168.3389,14.9767 L166.2849,9.5597 C163.0719,8.8787 159.1139,13.0457 157.0379,9.0927 C155.6189,8.7527 155.1609,10.5337 154.0489,10.9607 C152.8589,10.9937 152.0019,9.5547 150.7799,9.9337 C149.6339,11.1287 149.8129,12.8307 149.0989,14.2297 C147.5219,15.6217 146.6569,12.9217 145.0829,13.2027 C141.5339,15.2727 137.3639,18.7487 133.1279,16.5647 L130.5129,16.1917 L126.4029,17.6857 C125.4849,17.4017 125.5589,16.0357 124.5349,15.8177 C122.6199,16.8947 121.9929,19.4547 120.0519,20.3007 C116.2339,19.7807 112.4269,19.2177 108.4699,19.1797 C106.2459,20.9877 107.1309,24.7857 105.1079,26.6517 L103.9869,25.9047 L102.9589,25.9987 C99.9109,31.2167 92.9739,27.1507 88.6689,26.2777 C86.7999,26.7587 85.0919,28.7547 83.0649,27.0257 C77.4199,28.4117 76.5169,37.6927 70.0829,36.0857 C69.4339,36.9847 68.7909,38.0697 67.7479,38.6077 C65.7899,35.8917 61.6439,37.2127 59.1549,38.6077 C54.9899,38.2967 51.2349,38.3217 47.2929,39.4477 C46.3829,41.0317 46.4409,43.0507 46.4529,44.9587 L46.9199,45.9857 C51.7689,48.9257 47.2669,57.8357 42.4359,55.5127 C39.0449,60.5827 37.1929,66.4177 35.5249,72.1377 C34.7379,73.2757 33.3059,73.0627 32.2559,73.7257 L31.2279,73.6317 C27.8809,70.8487 26.9309,76.7367 24.1299,76.8077 C23.9689,77.0217 23.6549,77.1417 23.6629,77.4617 C23.7909,80.1137 26.0979,82.2457 26.1849,84.8397 C25.9549,85.0847 25.6279,85.5007 25.2509,85.2137 C21.4179,82.3147 24.2479,89.9787 20.5809,90.8177 C17.8279,91.4097 15.6099,89.1527 12.9219,89.5097 L12.8289,90.5377 C15.3169,95.7497 21.1809,99.3327 21.5149,105.3877 L22.6359,107.6297 C23.7809,109.1267 25.7119,108.8387 27.3059,109.3107 C28.4679,114.4817 35.2099,116.9887 35.7119,122.5737 C36.5869,123.1247 37.5799,123.0797 38.6069,123.0407 C40.2729,122.2077 38.7009,118.6797 40.3819,118.2767 C42.3949,121.5587 47.3019,120.3177 50.0959,121.6397 C50.2509,122.6637 50.2509,123.7917 50.0959,124.8147 C49.2459,124.1937 48.2659,124.6607 47.5739,125.2827 C46.0979,121.5607 40.8889,123.0387 37.9539,124.2547 L37.3929,126.6827 C31.8989,127.6397 28.4479,133.9797 29.3609,139.3847 L30.3879,140.2257 C32.3199,139.2777 34.6939,139.2207 36.2719,137.5177 C37.0849,135.7927 36.7079,133.8077 37.5799,132.0997 C38.5079,131.9867 39.4709,132.0287 40.1949,131.3527 C40.4829,131.2067 40.8409,131.2067 41.1289,131.3527 C41.9509,133.6457 41.8159,136.9897 44.8649,137.3307 C45.5259,139.1487 45.1889,141.9917 47.4799,142.5607 L49.5349,152.0877 C52.4899,153.6827 54.4039,150.1087 56.9129,149.1927 L62.8909,152.5547 C65.9509,152.3517 68.4639,149.2607 71.4839,151.0607 C73.6549,149.1107 76.6509,150.0897 78.9559,148.4457 C81.4219,149.5247 83.8859,150.6157 86.4279,151.4337 L93.1529,151.4337 C94.6879,151.2907 93.0939,148.6407 94.5539,148.9127 C97.1659,149.6557 96.9439,152.6877 98.1029,154.7037 C100.1909,154.7497 99.8599,150.7537 102.0259,151.1537 L104.2669,153.7687 C107.1549,160.0557 117.1529,154.7067 119.9579,161.2407 C117.8359,163.3067 113.8129,161.9977 111.0849,161.8947 L108.0969,163.3887 C105.2569,165.2337 110.2429,165.7007 110.9919,167.0317 C110.0099,168.1877 108.6119,166.9787 107.4429,167.0317 C106.6939,166.2097 105.7949,165.6317 104.8279,165.1637 C99.9149,159.4897 92.1959,158.1167 85.3999,156.1977 C84.1189,154.9897 83.3939,152.9977 81.2909,153.2087 L79.6099,150.7807 C75.5149,150.8097 70.1879,150.9557 68.4019,155.4507 L66.5339,157.3177 C65.0539,157.6817 63.7229,156.8167 62.4239,156.3837 C60.6189,156.0247 59.1099,155.2797 57.3809,156.3837 C57.4479,160.9047 54.4219,164.8057 50.5619,167.1257 C50.0209,166.7197 49.3699,166.6997 48.6939,166.7517 C48.3389,166.8187 48.0149,167.1437 47.9469,167.4987 C46.9159,171.4217 49.5409,173.8417 53.0839,174.3167 C54.6019,175.7627 55.1729,178.2847 54.2979,180.2017 C54.2899,180.5207 54.6039,180.6407 54.7659,180.8547 L57.5669,180.6687 C61.6919,184.9227 67.1879,188.4797 67.3739,194.7717 L63.7319,199.7217 C63.0349,201.4247 63.3099,203.3597 63.2649,205.2317 C64.2539,207.1457 65.5789,208.8517 66.9069,210.5557 C67.4179,212.8047 66.5159,214.9327 66.7209,217.0937 L67.7479,217.5607 C72.0419,216.0707 71.7139,220.5187 73.7249,222.4177 C75.0789,221.6577 75.7689,220.1857 76.7139,219.0547 L76.8079,209.8087 C78.1339,209.0767 79.6639,208.4117 81.1039,207.9407 C82.9589,208.5647 83.3659,210.3277 82.6919,211.9577 L82.7849,214.1047 C83.7749,215.1407 85.4669,214.2197 86.7079,214.6657 C88.3919,219.4207 92.9129,225.4287 89.1369,230.3567 C88.9899,230.6447 88.9899,231.0037 89.1369,231.2907 C91.2469,232.8617 94.5439,233.1907 95.1139,236.1477 C97.9079,234.9187 96.6769,230.7097 95.7679,228.3957 C96.7609,225.4247 97.5019,222.4117 98.8499,219.5227 L104.6409,218.4017 C105.5419,219.8427 105.3739,221.7227 105.5749,223.4457 L105.9489,224.1927 C109.1949,225.4557 108.9709,231.6547 113.6069,231.1037 C114.2419,234.7197 117.5149,234.7957 120.7049,234.2797 C120.0289,230.8357 117.1549,228.0977 115.1949,225.0327 C114.7249,222.9357 115.4709,221.3667 117.4359,221.2967 C116.1209,215.1397 114.1059,209.2217 111.3659,203.4577 C110.9889,203.3777 110.6609,203.2167 110.4319,202.8967 C110.8429,197.7947 105.1559,193.5087 105.5749,188.1397 C107.8949,187.4907 110.5049,186.8187 112.5799,188.4207 L116.5959,190.7547 C116.9219,191.2467 116.2909,191.5607 116.0359,191.8767 C112.3969,193.0007 117.2369,198.1357 119.6779,197.7597 L121.2659,197.1067 L122.1999,196.1717 C123.1829,191.2957 129.6089,193.9897 132.2869,190.9417" id="Fill-1" fill="#FFFFFF"></path>
            <path d="M132.2869,190.9417 C131.7269,188.6467 129.5819,187.1677 127.6169,186.0857 C128.0259,184.2737 129.3609,182.2857 127.4309,180.6687 C124.9629,180.3387 122.2289,181.3777 123.3209,184.2167 L120.1449,182.3487 C118.2219,180.4367 119.5139,177.6507 120.7989,176.0907 C119.8279,173.6397 118.9569,170.9167 115.5689,171.9817 C115.2879,171.9207 114.8709,171.6557 114.9149,171.3287 C117.7799,170.4737 120.7019,169.7397 123.4139,168.2467 C126.1639,168.7297 128.5059,167.6557 130.5129,166.0047 L132.6609,166.0977 C133.2049,166.9937 132.0709,167.6707 132.4739,168.5257 L133.5949,169.2737 C138.2569,169.5467 137.6559,176.8787 142.7479,175.8107 C143.9879,179.1287 145.8369,183.0327 150.2199,181.6017 C153.3499,174.7427 145.4859,166.6767 150.3129,160.0267 C150.5929,159.0747 150.8169,158.1097 150.6869,157.0387 C148.8039,155.5987 146.7689,153.8107 144.3359,153.3017 C141.7689,152.2547 138.4539,151.8847 136.5829,149.6597 L138.7319,149.5657 L147.9779,150.0327 C151.9609,153.9897 151.6879,161.5887 157.3179,163.4827 C156.7209,165.8427 159.8749,169.8597 161.8949,167.1257 C164.0089,169.8267 167.5259,168.4117 168.5259,165.5377 L168.1529,160.1207 C167.7349,159.7677 167.4099,159.1057 166.7509,159.2797 C162.9739,159.7647 159.3159,158.6087 156.7579,155.8237 C155.7669,152.4057 155.1519,148.9307 154.4229,145.4567 L155.9169,143.2147 C154.9609,140.8237 151.6409,140.0967 152.4609,136.9577 L151.4339,136.1167 C146.6629,136.1837 141.4889,136.9417 138.2649,132.8467 C133.3669,132.7097 129.3009,129.0667 128.5509,124.2547 C127.0659,122.6677 125.4319,121.3227 123.6939,120.1447 L116.0359,123.1337 C115.5199,125.9157 111.8899,126.0327 109.6839,126.6827 C112.4019,125.1627 117.1669,122.9457 115.1949,119.3037 C119.4019,119.7457 123.3179,118.6787 126.4029,115.9417 C127.3669,117.9087 130.9669,118.0937 132.0069,115.9417 C132.4029,114.3257 131.5249,112.9367 130.1389,112.2067 C128.8839,112.4747 128.0109,113.8357 126.8699,113.9807 C124.9869,108.0747 119.5519,103.7477 116.2229,98.4757 C114.3899,98.0677 112.7709,97.2377 111.5519,95.6737 L110.7119,92.7787 C110.9399,86.9697 105.3859,83.7417 103.5199,78.6757 C101.8889,77.3477 100.7909,75.6507 100.2509,73.7257 C99.2909,69.9597 102.1409,67.5027 103.2399,64.3857 L103.2399,61.7707 C102.4119,60.0367 102.9499,56.6947 105.3879,56.8197 C106.5799,54.3707 109.1649,54.1057 110.7119,52.4307 C111.4389,52.8517 112.1589,53.5697 112.5799,54.2977 C111.7179,55.7617 109.1569,55.0587 108.4699,56.9137 L110.6189,61.8637 C114.5219,65.6517 119.6969,67.2487 124.0679,70.0827 C123.7239,73.5837 124.9039,76.5607 126.1229,79.6097 C128.4539,80.6307 130.9489,81.3537 132.8479,83.3457 C135.2909,84.0697 137.9839,83.7497 140.5999,83.8127 C140.9549,83.7457 141.2799,83.4207 141.3469,83.0657 L136.3969,77.5547 C132.0809,76.6887 125.7579,72.3387 126.8699,67.4677 C129.4289,66.8707 132.4099,69.1797 135.2759,69.3357 C138.0579,72.1267 140.3379,75.4177 141.0669,79.2357 L144.8029,81.1037 L146.2039,81.5707 C152.2599,79.3967 148.0869,70.4507 142.9339,69.5227 C142.0649,68.8957 141.2979,68.1047 140.3199,67.6547 C139.5379,66.9267 138.8659,65.8457 138.8249,64.8527 L140.9729,63.6387 C146.0579,63.5557 150.1669,66.8357 154.3289,69.3357 C155.1009,70.9157 155.7479,72.5727 156.7579,74.0057 C158.6229,74.0587 160.8279,73.6307 162.2679,72.6047 C161.0989,68.8197 158.1309,65.9217 155.4499,62.9847 C152.7659,62.4947 150.9709,60.2027 149.1919,58.4077 C147.4889,58.3377 147.0999,62.1307 144.8029,60.1827 C143.9429,59.5757 143.8019,58.5717 143.5879,57.6607 C145.8609,56.9697 146.7359,55.3547 144.9899,53.2707 C141.9909,52.9157 138.8019,49.8267 138.4519,46.9197 C142.1689,44.5997 146.8309,47.1167 150.6869,47.5737 C156.0889,46.7067 157.6319,40.8117 161.8949,38.2337 L165.5369,38.3267 C168.8179,43.2097 175.6619,43.3107 179.1739,38.7007 C182.1329,38.6517 183.0449,35.9207 184.6839,34.1237 C186.5279,34.2137 183.9679,36.5977 185.5249,37.3927 C187.9159,37.9967 190.3289,38.3327 192.9039,38.2337 C199.5379,42.2637 207.6529,41.0487 214.8529,43.1837 L216.1599,47.1067 C216.6829,47.9817 217.5579,47.3807 218.2149,47.1067 C221.1399,45.6567 221.6369,42.4557 222.8849,39.8207 C224.7379,38.2897 226.3649,36.3467 228.0219,34.4977 C225.6879,31.3367 226.5979,27.9167 226.2469,24.5037 C228.6959,24.1557 230.5089,22.2857 232.2249,20.3947 C233.0799,19.9907 233.7569,21.1257 234.6529,20.5807 C237.6569,16.3407 234.7089,11.1437 233.9059,6.5707 C229.8229,3.4257 224.7719,2.3547 220.1759,0.4997 C218.9709,2.2707 216.4959,2.7937 215.3199,4.6097 C215.7789,6.6017 217.9509,7.5987 218.9619,9.1867 C218.9889,12.4247 220.5289,15.4697 218.5879,18.3387 C215.8309,19.0727 212.1939,21.1897 209.7149,18.8067 L208.2209,18.8067 C206.4059,19.9147 204.4819,20.6527 202.2439,20.3007 C199.0349,22.1287 195.1939,21.7807 191.7829,22.9157 L189.6339,22.8227 C189.2599,22.4257 188.7629,22.1047 188.7009,21.5147 C183.9589,19.9347 179.1959,14.4857 174.2239,18.0597 C172.5719,16.2017 170.7489,15.1967 168.3389,14.9767 L166.2849,9.5597 C163.0719,8.8787 159.1139,13.0457 157.0379,9.0927 C155.6189,8.7527 155.1609,10.5337 154.0489,10.9607 C152.8589,10.9937 152.0019,9.5547 150.7799,9.9337 C149.6339,11.1287 149.8129,12.8307 149.0989,14.2297 C147.5219,15.6217 146.6569,12.9217 145.0829,13.2027 C141.5339,15.2727 137.3639,18.7487 133.1279,16.5647 L130.5129,16.1917 L126.4029,17.6857 C125.4849,17.4017 125.5589,16.0357 124.5349,15.8177 C122.6199,16.8947 121.9929,19.4547 120.0519,20.3007 C116.2339,19.7807 112.4269,19.2177 108.4699,19.1797 C106.2459,20.9877 107.1309,24.7857 105.1079,26.6517 L103.9869,25.9047 L102.9589,25.9987 C99.9109,31.2167 92.9739,27.1507 88.6689,26.2777 C86.7999,26.7587 85.0919,28.7547 83.0649,27.0257 C77.4199,28.4117 76.5169,37.6927 70.0829,36.0857 C69.4339,36.9847 68.7909,38.0697 67.7479,38.6077 C65.7899,35.8917 61.6439,37.2127 59.1549,38.6077 C54.9899,38.2967 51.2349,38.3217 47.2929,39.4477 C46.3829,41.0317 46.4409,43.0507 46.4529,44.9587 L46.9199,45.9857 C51.7689,48.9257 47.2669,57.8357 42.4359,55.5127 C39.0449,60.5827 37.1929,66.4177 35.5249,72.1377 C34.7379,73.2757 33.3059,73.0627 32.2559,73.7257 L31.2279,73.6317 C27.8809,70.8487 26.9309,76.7367 24.1299,76.8077 C23.9689,77.0217 23.6549,77.1417 23.6629,77.4617 C23.7909,80.1137 26.0979,82.2457 26.1849,84.8397 C25.9549,85.0847 25.6279,85.5007 25.2509,85.2137 C21.4179,82.3147 24.2479,89.9787 20.5809,90.8177 C17.8279,91.4097 15.6099,89.1527 12.9219,89.5097 L12.8289,90.5377 C15.3169,95.7497 21.1809,99.3327 21.5149,105.3877 L22.6359,107.6297 C23.7809,109.1267 25.7119,108.8387 27.3059,109.3107 C28.4679,114.4817 35.2099,116.9887 35.7119,122.5737 C36.5869,123.1247 37.5799,123.0797 38.6069,123.0407 C40.2729,122.2077 38.7009,118.6797 40.3819,118.2767 C42.3949,121.5587 47.3019,120.3177 50.0959,121.6397 C50.2509,122.6637 50.2509,123.7917 50.0959,124.8147 C49.2459,124.1937 48.2659,124.6607 47.5739,125.2827 C46.0979,121.5607 40.8889,123.0387 37.9539,124.2547 L37.3929,126.6827 C31.8989,127.6397 28.4479,133.9797 29.3609,139.3847 L30.3879,140.2257 C32.3199,139.2777 34.6939,139.2207 36.2719,137.5177 C37.0849,135.7927 36.7079,133.8077 37.5799,132.0997 C38.5079,131.9867 39.4709,132.0287 40.1949,131.3527 C40.4829,131.2067 40.8409,131.2067 41.1289,131.3527 C41.9509,133.6457 41.8159,136.9897 44.8649,137.3307 C45.5259,139.1487 45.1889,141.9917 47.4799,142.5607 L49.5349,152.0877 C52.4899,153.6827 54.4039,150.1087 56.9129,149.1927 L62.8909,152.5547 C65.9509,152.3517 68.4639,149.2607 71.4839,151.0607 C73.6549,149.1107 76.6509,150.0897 78.9559,148.4457 C81.4219,149.5247 83.8859,150.6157 86.4279,151.4337 L93.1529,151.4337 C94.6879,151.2907 93.0939,148.6407 94.5539,148.9127 C97.1659,149.6557 96.9439,152.6877 98.1029,154.7037 C100.1909,154.7497 99.8599,150.7537 102.0259,151.1537 L104.2669,153.7687 C107.1549,160.0557 117.1529,154.7067 119.9579,161.2407 C117.8359,163.3067 113.8129,161.9977 111.0849,161.8947 L108.0969,163.3887 C105.2569,165.2337 110.2429,165.7007 110.9919,167.0317 C110.0099,168.1877 108.6119,166.9787 107.4429,167.0317 C106.6939,166.2097 105.7949,165.6317 104.8279,165.1637 C99.9149,159.4897 92.1959,158.1167 85.3999,156.1977 C84.1189,154.9897 83.3939,152.9977 81.2909,153.2087 L79.6099,150.7807 C75.5149,150.8097 70.1879,150.9557 68.4019,155.4507 L66.5339,157.3177 C65.0539,157.6817 63.7229,156.8167 62.4239,156.3837 C60.6189,156.0247 59.1099,155.2797 57.3809,156.3837 C57.4479,160.9047 54.4219,164.8057 50.5619,167.1257 C50.0209,166.7197 49.3699,166.6997 48.6939,166.7517 C48.3389,166.8187 48.0149,167.1437 47.9469,167.4987 C46.9159,171.4217 49.5409,173.8417 53.0839,174.3167 C54.6019,175.7627 55.1729,178.2847 54.2979,180.2017 C54.2899,180.5207 54.6039,180.6407 54.7659,180.8547 L57.5669,180.6687 C61.6919,184.9227 67.1879,188.4797 67.3739,194.7717 L63.7319,199.7217 C63.0349,201.4247 63.3099,203.3597 63.2649,205.2317 C64.2539,207.1457 65.5789,208.8517 66.9069,210.5557 C67.4179,212.8047 66.5159,214.9327 66.7209,217.0937 L67.7479,217.5607 C72.0419,216.0707 71.7139,220.5187 73.7249,222.4177 C75.0789,221.6577 75.7689,220.1857 76.7139,219.0547 L76.8079,209.8087 C78.1339,209.0767 79.6639,208.4117 81.1039,207.9407 C82.9589,208.5647 83.3659,210.3277 82.6919,211.9577 L82.7849,214.1047 C83.7749,215.1407 85.4669,214.2197 86.7079,214.6657 C88.3919,219.4207 92.9129,225.4287 89.1369,230.3567 C88.9899,230.6447 88.9899,231.0037 89.1369,231.2907 C91.2469,232.8617 94.5439,233.1907 95.1139,236.1477 C97.9079,234.9187 96.6769,230.7097 95.7679,228.3957 C96.7609,225.4247 97.5019,222.4117 98.8499,219.5227 L104.6409,218.4017 C105.5419,219.8427 105.3739,221.7227 105.5749,223.4457 L105.9489,224.1927 C109.1949,225.4557 108.9709,231.6547 113.6069,231.1037 C114.2419,234.7197 117.5149,234.7957 120.7049,234.2797 C120.0289,230.8357 117.1549,228.0977 115.1949,225.0327 C114.7249,222.9357 115.4709,221.3667 117.4359,221.2967 C116.1209,215.1397 114.1059,209.2217 111.3659,203.4577 C110.9889,203.3777 110.6609,203.2167 110.4319,202.8967 C110.8429,197.7947 105.1559,193.5087 105.5749,188.1397 C107.8949,187.4907 110.5049,186.8187 112.5799,188.4207 L116.5959,190.7547 C116.9219,191.2467 116.2909,191.5607 116.0359,191.8767 C112.3969,193.0007 117.2369,198.1357 119.6779,197.7597 L121.2659,197.1067 L122.1999,196.1717 C123.1829,191.2957 129.6089,193.9897 132.2869,190.9417 Z" id="Stroke-3" stroke="#E75F52" stroke-linecap="round" stroke-linejoin="round"></path>
            <path d="M169.3665,54.2981 C171.2755,53.6051 173.7845,53.0681 174.3165,50.6551 L174.9705,49.8151 C174.6985,48.0041 174.1165,46.1891 173.0095,44.6781 L167.8725,43.8381 L167.7795,44.1171 C166.7025,44.3471 166.2575,45.4551 165.9105,46.3591 C164.7705,47.7761 163.9405,49.5191 163.7625,51.3091 C164.1085,52.4561 165.3095,52.4651 166.2845,52.5241 C167.1995,53.3371 167.9235,54.7131 169.3665,54.2981" id="Fill-5" fill="#FFFFFF"></path>
            <path d="M169.3665,54.2981 C171.2755,53.6051 173.7845,53.0681 174.3165,50.6551 L174.9705,49.8151 C174.6985,48.0041 174.1165,46.1891 173.0095,44.6781 L167.8725,43.8381 L167.7795,44.1171 C166.7025,44.3471 166.2575,45.4551 165.9105,46.3591 C164.7705,47.7761 163.9405,49.5191 163.7625,51.3091 C164.1085,52.4561 165.3095,52.4651 166.2845,52.5241 C167.1995,53.3371 167.9235,54.7131 169.3665,54.2981 Z" id="Stroke-7" stroke="#E75F52" stroke-linecap="round" stroke-linejoin="round"></path>
            <path d="M205.1389,57.3806 L204.3919,56.6326 C202.5579,56.1316 200.9509,55.0376 198.8809,55.4196 C198.8189,55.6056 198.6949,55.7306 198.5069,55.7926 C196.3809,55.1346 195.3189,57.2946 195.9859,59.0616 C197.3889,60.5376 198.8399,62.3316 201.1219,61.7706 L203.0839,61.4896 C203.7289,61.4736 204.1759,61.1316 204.7649,60.9296 C205.6599,60.0566 205.1399,58.5016 205.1389,57.3806" id="Fill-9" fill="#FFFFFF"></path>
            <path d="M205.1389,57.3806 L204.3919,56.6326 C202.5579,56.1316 200.9509,55.0376 198.8809,55.4196 C198.8189,55.6056 198.6949,55.7306 198.5069,55.7926 C196.3809,55.1346 195.3189,57.2946 195.9859,59.0616 C197.3889,60.5376 198.8399,62.3316 201.1219,61.7706 L203.0839,61.4896 C203.7289,61.4736 204.1759,61.1316 204.7649,60.9296 C205.6599,60.0566 205.1399,58.5016 205.1389,57.3806 Z" id="Stroke-11" stroke="#E75F52" stroke-linecap="round" stroke-linejoin="round"></path>
            <path d="M196.5462,77.5549 L195.1452,77.0879 C194.4402,78.2789 192.7402,78.3539 191.7822,79.3289 L191.1292,79.2359 C190.3272,78.3199 189.4112,76.7719 188.0462,77.8349 L183.2832,78.3019 C182.9682,78.6459 182.6532,78.9899 182.1622,79.0489 C181.5692,81.0549 181.3202,83.5959 182.1622,85.5869 C182.3762,85.7489 182.4972,86.0619 182.8172,86.0539 C184.8422,85.8879 187.2042,87.3799 188.5142,85.0269 L189.4472,84.6529 C189.4922,86.8889 191.6992,88.6979 193.9312,88.2019 C194.4382,87.9009 194.4462,87.3239 194.3982,86.8019 L194.3042,86.1479 C192.5412,83.1659 196.9262,81.6989 196.6392,78.9559 L196.5462,77.5549 Z" id="Fill-13" fill="#FFFFFF"></path>
            <path d="M196.5462,77.5549 L195.1452,77.0879 C194.4402,78.2789 192.7402,78.3539 191.7822,79.3289 L191.1292,79.2359 C190.3272,78.3199 189.4112,76.7719 188.0462,77.8349 L183.2832,78.3019 C182.9682,78.6459 182.6532,78.9899 182.1622,79.0489 C181.5692,81.0549 181.3202,83.5959 182.1622,85.5869 C182.3762,85.7489 182.4972,86.0619 182.8172,86.0539 C184.8422,85.8879 187.2042,87.3799 188.5142,85.0269 L189.4472,84.6529 C189.4922,86.8889 191.6992,88.6979 193.9312,88.2019 C194.4382,87.9009 194.4462,87.3239 194.3982,86.8019 L194.3042,86.1479 C192.5412,83.1659 196.9262,81.6989 196.6392,78.9559 L196.5462,77.5549 Z" id="Stroke-15" stroke="#E75F52" stroke-linecap="round" stroke-linejoin="round"></path>
            <path d="M14.4168,99.7835 L11.8018,98.6635 C11.6318,97.0545 11.1238,95.5975 11.3338,93.8995 C11.3248,92.2645 8.8928,91.5205 9.1868,89.8835 L9.5598,89.5105 C11.6728,89.6895 12.2948,87.2005 12.8288,85.6805 C11.8328,84.3215 10.1458,83.1825 8.3458,83.4385 C6.4328,85.5365 3.1178,82.6255 0.9668,84.2795 L0.4998,86.4275 C1.4848,88.8185 3.0358,90.8595 4.3298,93.0585 C6.3938,94.8265 7.3198,97.3265 7.5988,99.8775 L8.4388,101.2785 C10.9498,103.3425 14.2498,104.2075 16.9378,105.8545 C17.3718,105.9735 17.7178,105.6995 17.9658,105.3875 L18.0598,104.7335 C16.8678,103.1325 16.7488,100.1365 14.4168,99.7835" id="Fill-17" fill="#FFFFFF"></path>
            <path d="M14.4168,99.7835 L11.8018,98.6635 C11.6318,97.0545 11.1238,95.5975 11.3338,93.8995 C11.3248,92.2645 8.8928,91.5205 9.1868,89.8835 L9.5598,89.5105 C11.6728,89.6895 12.2948,87.2005 12.8288,85.6805 C11.8328,84.3215 10.1458,83.1825 8.3458,83.4385 C6.4328,85.5365 3.1178,82.6255 0.9668,84.2795 L0.4998,86.4275 C1.4848,88.8185 3.0358,90.8595 4.3298,93.0585 C6.3938,94.8265 7.3198,97.3265 7.5988,99.8775 L8.4388,101.2785 C10.9498,103.3425 14.2498,104.2075 16.9378,105.8545 C17.3718,105.9735 17.7178,105.6995 17.9658,105.3875 L18.0598,104.7335 C16.8678,103.1325 16.7488,100.1365 14.4168,99.7835 Z" id="Stroke-19" stroke="#E75F52" stroke-linecap="round" stroke-linejoin="round"></path>
            <path d="M238.1087,121.5462 C236.8007,119.1892 235.4167,116.8802 233.6257,114.8212 C233.3937,114.2492 232.8467,113.7342 232.2247,113.6072 L229.5157,110.3382 L229.6097,109.6842 C230.9367,108.4072 230.2117,105.7762 228.1157,106.1352 C227.4367,104.9952 226.2157,105.0082 225.0327,105.1082 C224.3457,105.9432 222.7197,105.2582 221.6707,105.4822 L220.6427,105.9482 C219.9277,106.3142 220.4237,107.2642 219.7097,107.6292 C216.8137,108.5252 214.0447,109.5542 210.9297,109.6842 C209.8487,110.3052 210.0837,111.5232 210.0887,112.5792 C209.4717,113.5042 209.7057,114.7852 209.8087,115.8492 C211.5567,117.0612 213.5967,117.6802 215.5997,118.2762 C217.4937,119.7692 219.2857,121.4242 221.3897,122.5732 C224.4577,122.9302 227.4817,123.2582 230.2627,124.5342 L234.6527,124.0672 C234.9107,123.4742 235.0907,122.8322 235.5877,122.3872 C236.4057,122.0722 237.8197,122.7412 238.1087,121.5462" id="Fill-21" fill="#FFFFFF"></path>
            <path d="M238.1087,121.5462 C236.8007,119.1892 235.4167,116.8802 233.6257,114.8212 C233.3937,114.2492 232.8467,113.7342 232.2247,113.6072 L229.5157,110.3382 L229.6097,109.6842 C230.9367,108.4072 230.2117,105.7762 228.1157,106.1352 C227.4367,104.9952 226.2157,105.0082 225.0327,105.1082 C224.3457,105.9432 222.7197,105.2582 221.6707,105.4822 L220.6427,105.9482 C219.9277,106.3142 220.4237,107.2642 219.7097,107.6292 C216.8137,108.5252 214.0447,109.5542 210.9297,109.6842 C209.8487,110.3052 210.0837,111.5232 210.0887,112.5792 C209.4717,113.5042 209.7057,114.7852 209.8087,115.8492 C211.5567,117.0612 213.5967,117.6802 215.5997,118.2762 C217.4937,119.7692 219.2857,121.4242 221.3897,122.5732 C224.4577,122.9302 227.4817,123.2582 230.2627,124.5342 L234.6527,124.0672 C234.9107,123.4742 235.0907,122.8322 235.5877,122.3872 C236.4057,122.0722 237.8197,122.7412 238.1087,121.5462 Z" id="Stroke-23" stroke="#E75F52" stroke-linecap="round" stroke-linejoin="round"></path>
            <path d="M145.7366,116.596 L146.6706,114.914 C148.1616,113.6 148.8896,110.772 147.2306,109.311 L145.4566,109.217 L145.3626,109.497 C143.4386,109.723 142.7426,111.902 141.4406,113.047 L141.2536,116.222 L135.4626,113.047 C133.1806,114.5 134.7216,117.235 134.6216,119.304 C134.6136,119.623 134.9276,119.744 135.0896,119.958 C135.8696,120.408 136.6926,120.518 137.6106,120.425 C138.8486,121.421 141.2496,120.216 140.9726,118.557 L141.4406,117.53 C142.9286,118.446 144.3596,117.093 145.7366,116.596" id="Fill-25" fill="#FFFFFF"></path>
            <path d="M145.7366,116.596 L146.6706,114.914 C148.1616,113.6 148.8896,110.772 147.2306,109.311 L145.4566,109.217 L145.3626,109.497 C143.4386,109.723 142.7426,111.902 141.4406,113.047 L141.2536,116.222 L135.4626,113.047 C133.1806,114.5 134.7216,117.235 134.6216,119.304 C134.6136,119.623 134.9276,119.744 135.0896,119.958 C135.8696,120.408 136.6926,120.518 137.6106,120.425 C138.8486,121.421 141.2496,120.216 140.9726,118.557 L141.4406,117.53 C142.9286,118.446 144.3596,117.093 145.7366,116.596 Z" id="Stroke-27" stroke="#E75F52" stroke-linecap="round" stroke-linejoin="round"></path>
            <path d="M164.6033,133.4075 C165.1243,133.4815 165.5683,133.5885 166.0043,133.8755 C168.1193,133.6475 170.7793,134.6125 172.2623,132.6605 C173.3083,130.0015 170.6463,128.9185 168.7123,128.1775 L168.1523,125.3755 C166.3993,124.4485 165.1293,122.3535 163.0153,122.2935 L161.9883,123.1345 C161.8323,124.7795 161.8323,126.5315 161.9883,128.1775 C162.8543,129.0955 163.7453,129.9755 164.7903,130.6055 C165.0213,131.3995 163.8463,131.8605 163.8563,132.6605 L164.6033,133.4075 Z" id="Fill-29" fill="#FFFFFF"></path>
            <path d="M164.6033,133.4075 C165.1243,133.4815 165.5683,133.5885 166.0043,133.8755 C168.1193,133.6475 170.7793,134.6125 172.2623,132.6605 C173.3083,130.0015 170.6463,128.9185 168.7123,128.1775 L168.1523,125.3755 C166.3993,124.4485 165.1293,122.3535 163.0153,122.2935 L161.9883,123.1345 C161.8323,124.7795 161.8323,126.5315 161.9883,128.1775 C162.8543,129.0955 163.7453,129.9755 164.7903,130.6055 C165.0213,131.3995 163.8463,131.8605 163.8563,132.6605 L164.6033,133.4075 Z" id="Stroke-31" stroke="#E75F52" stroke-linecap="round" stroke-linejoin="round"></path>
            <path d="M222.3245,141.0667 L221.2975,140.2257 C218.8455,141.8567 217.5715,137.7147 214.9455,138.7317 C213.4815,140.2177 209.8505,139.5617 209.7155,142.4677 C210.8215,145.1497 213.1965,147.0497 214.5725,149.5657 L214.4785,152.0877 L212.9845,152.8357 C210.1575,152.5247 210.3165,156.4067 212.2375,157.5047 C212.5335,158.4207 213.4255,159.1487 214.1985,159.6537 C216.2175,159.9137 217.7605,158.6907 219.3355,157.6917 C219.9465,156.0317 220.5915,154.3627 221.6705,152.9277 C221.3075,150.7197 220.6735,148.5897 220.9235,146.2037 C221.6485,144.5807 221.9965,142.7337 222.3245,141.0667" id="Fill-33" fill="#FFFFFF"></path>
            <path d="M222.3245,141.0667 L221.2975,140.2257 C218.8455,141.8567 217.5715,137.7147 214.9455,138.7317 C213.4815,140.2177 209.8505,139.5617 209.7155,142.4677 C210.8215,145.1497 213.1965,147.0497 214.5725,149.5657 L214.4785,152.0877 L212.9845,152.8357 C210.1575,152.5247 210.3165,156.4067 212.2375,157.5047 C212.5335,158.4207 213.4255,159.1487 214.1985,159.6537 C216.2175,159.9137 217.7605,158.6907 219.3355,157.6917 C219.9465,156.0317 220.5915,154.3627 221.6705,152.9277 C221.3075,150.7197 220.6735,148.5897 220.9235,146.2037 C221.6485,144.5807 221.9965,142.7337 222.3245,141.0667 Z" id="Stroke-35" stroke="#E75F52" stroke-linecap="round" stroke-linejoin="round"></path>
            <path d="M35.6184,163.0159 L36.7394,163.0159 C37.8394,161.9469 39.7404,161.8689 40.4744,160.4009 C40.1414,158.8369 38.6934,157.7409 37.5794,156.5709 L35.2444,152.5549 C35.3064,152.3679 35.4314,152.2439 35.6184,152.1809 C38.4204,152.9539 37.9474,149.6839 38.6074,148.0719 C38.6154,147.7519 38.3014,147.6319 38.1394,147.4179 L37.2064,147.2309 C35.7054,145.5239 36.1304,142.6349 34.1234,141.3469 L34.0304,141.6269 C32.5004,142.0079 31.7624,144.8609 30.1074,143.3079 C28.6064,144.7949 29.4994,147.2249 28.0534,148.7249 C25.9914,148.4989 24.4014,149.6089 22.6354,150.4069 C22.3204,152.8649 21.1294,155.1209 21.5144,157.6919 C22.2084,158.0159 22.8504,158.3079 23.6634,158.1589 C24.8424,159.0329 27.3124,158.6329 26.6524,156.6639 C26.5894,156.2899 27.0874,156.1979 27.3054,156.3839 C28.1854,157.5899 26.9114,158.8859 27.4924,160.3069 L33.0034,160.7739 L35.6184,163.0159 Z" id="Fill-37" fill="#FFFFFF"></path>
            <path d="M35.6184,163.0159 L36.7394,163.0159 C37.8394,161.9469 39.7404,161.8689 40.4744,160.4009 C40.1414,158.8369 38.6934,157.7409 37.5794,156.5709 L35.2444,152.5549 C35.3064,152.3679 35.4314,152.2439 35.6184,152.1809 C38.4204,152.9539 37.9474,149.6839 38.6074,148.0719 C38.6154,147.7519 38.3014,147.6319 38.1394,147.4179 L37.2064,147.2309 C35.7054,145.5239 36.1304,142.6349 34.1234,141.3469 L34.0304,141.6269 C32.5004,142.0079 31.7624,144.8609 30.1074,143.3079 C28.6064,144.7949 29.4994,147.2249 28.0534,148.7249 C25.9914,148.4989 24.4014,149.6089 22.6354,150.4069 C22.3204,152.8649 21.1294,155.1209 21.5144,157.6919 C22.2084,158.0159 22.8504,158.3079 23.6634,158.1589 C24.8424,159.0329 27.3124,158.6329 26.6524,156.6639 C26.5894,156.2899 27.0874,156.1979 27.3054,156.3839 C28.1854,157.5899 26.9114,158.8859 27.4924,160.3069 L33.0034,160.7739 L35.6184,163.0159 Z" id="Stroke-39" stroke="#E75F52" stroke-linecap="round" stroke-linejoin="round"></path>
            <path d="M190.1946,187.5793 C190.7406,187.1243 191.2476,186.5833 191.0356,185.8053 C192.2086,184.0023 190.6526,182.1923 189.8216,180.6683 L188.7946,180.2013 C186.5486,181.1853 184.3326,179.8503 182.1626,179.3603 C182.3946,176.2153 181.0436,173.6063 180.8546,170.5813 L179.7346,169.8333 C176.1936,170.4613 176.8946,164.3923 173.1026,165.6313 C172.7296,166.5763 171.1126,166.0083 170.8616,167.1253 L171.3276,171.5153 L172.0756,172.2623 C173.1566,172.6353 174.3266,173.3363 174.6906,174.5033 L178.6126,178.8003 L178.7996,180.4813 L187.3926,187.5793 C188.2926,187.7343 189.2956,187.7343 190.1946,187.5793" id="Fill-41" fill="#FFFFFF"></path>
            <path d="M190.1946,187.5793 C190.7406,187.1243 191.2476,186.5833 191.0356,185.8053 C192.2086,184.0023 190.6526,182.1923 189.8216,180.6683 L188.7946,180.2013 C186.5486,181.1853 184.3326,179.8503 182.1626,179.3603 C182.3946,176.2153 181.0436,173.6063 180.8546,170.5813 L179.7346,169.8333 C176.1936,170.4613 176.8946,164.3923 173.1026,165.6313 C172.7296,166.5763 171.1126,166.0083 170.8616,167.1253 L171.3276,171.5153 L172.0756,172.2623 C173.1566,172.6353 174.3266,173.3363 174.6906,174.5033 L178.6126,178.8003 L178.7996,180.4813 L187.3926,187.5793 C188.2926,187.7343 189.2956,187.7343 190.1946,187.5793 Z" id="Stroke-43" stroke="#E75F52" stroke-linecap="round" stroke-linejoin="round"></path>
            <path d="M37.9534,170.3938 C36.6344,169.4588 36.7814,167.4328 35.2454,166.7508 C34.1554,167.8308 32.2064,168.0078 31.2284,169.4598 L31.1354,173.1028 L36.8324,180.4818 L40.1014,181.3218 C41.3814,180.9028 40.5104,179.2638 41.3154,178.4258 C42.5774,177.9298 44.2804,177.8128 44.9584,176.4648 L41.8764,171.3288 C40.6094,170.7758 39.3394,170.5338 37.9534,170.3938" id="Fill-45" fill="#FFFFFF"></path>
            <path d="M37.9534,170.3938 C36.6344,169.4588 36.7814,167.4328 35.2454,166.7508 C34.1554,167.8308 32.2064,168.0078 31.2284,169.4598 L31.1354,173.1028 L36.8324,180.4818 L40.1014,181.3218 C41.3814,180.9028 40.5104,179.2638 41.3154,178.4258 C42.5774,177.9298 44.2804,177.8128 44.9584,176.4648 L41.8764,171.3288 C40.6094,170.7758 39.3394,170.5338 37.9534,170.3938 Z" id="Stroke-47" stroke="#E75F52" stroke-linecap="round" stroke-linejoin="round"></path>
            <path d="M253.426,179.4534 L254.453,179.3604 C254.95,177.6264 253.438,176.3384 253.333,174.6904 L252.586,173.9434 L248.196,173.8494 C246.384,173.2794 244.599,172.6224 242.592,172.7284 L242.498,173.0094 C240.081,173.3884 238.161,175.1824 235.96,176.1844 C235.197,177.4804 234.857,178.9514 235.213,180.4814 C235.515,180.9874 236.092,180.9974 236.614,180.9484 L237.736,180.5744 C240.373,179.1874 242.383,182.4744 244.833,182.8164 C247.874,182.1524 250.078,179.0834 253.426,179.4534" id="Fill-49" fill="#FFFFFF"></path>
            <path d="M253.426,179.4534 L254.453,179.3604 C254.95,177.6264 253.438,176.3384 253.333,174.6904 L252.586,173.9434 L248.196,173.8494 C246.384,173.2794 244.599,172.6224 242.592,172.7284 L242.498,173.0094 C240.081,173.3884 238.161,175.1824 235.96,176.1844 C235.197,177.4804 234.857,178.9514 235.213,180.4814 C235.515,180.9874 236.092,180.9974 236.614,180.9484 L237.736,180.5744 C240.373,179.1874 242.383,182.4744 244.833,182.8164 C247.874,182.1524 250.078,179.0834 253.426,179.4534 Z" id="Stroke-51" stroke="#E75F52" stroke-linecap="round" stroke-linejoin="round"></path>
            <path d="M218.4016,180.2942 L217.6546,180.6682 C215.9906,182.8602 214.1096,185.1462 214.1986,188.0462 C214.1906,188.3652 214.5046,188.4862 214.6656,188.7002 L217.9346,188.7942 C219.6826,187.0532 222.0916,186.7902 224.1926,185.7112 L229.4226,179.7332 C229.5696,179.4462 229.5696,179.0872 229.4226,178.8002 L227.6476,178.7062 L227.5546,178.9862 L223.1656,180.5742 C221.7106,180.0642 219.9836,180.1202 218.4016,180.2942" id="Fill-53" fill="#FFFFFF"></path>
            <path d="M218.4016,180.2942 L217.6546,180.6682 C215.9906,182.8602 214.1096,185.1462 214.1986,188.0462 C214.1906,188.3652 214.5046,188.4862 214.6656,188.7002 L217.9346,188.7942 C219.6826,187.0532 222.0916,186.7902 224.1926,185.7112 L229.4226,179.7332 C229.5696,179.4462 229.5696,179.0872 229.4226,178.8002 L227.6476,178.7062 L227.5546,178.9862 L223.1656,180.5742 C221.7106,180.0642 219.9836,180.1202 218.4016,180.2942 Z" id="Stroke-55" stroke="#E75F52" stroke-linecap="round" stroke-linejoin="round"></path>
            <path d="M158.5325,179.8274 L158.4385,180.1074 C157.3985,180.2464 157.1715,181.3464 156.5715,181.9754 C155.5175,181.7464 155.1735,183.0044 155.8235,183.6564 C155.8995,184.4724 156.0285,185.2604 156.5715,185.8984 C156.5765,186.6004 156.9945,187.3954 157.6915,187.5794 L158.4385,187.2064 C159.6095,185.2264 161.6775,183.8024 162.6415,181.6954 C162.9185,179.3234 160.0565,179.8284 158.5325,179.8274" id="Fill-57" fill="#FFFFFF"></path>
            <path d="M158.5325,179.8274 L158.4385,180.1074 C157.3985,180.2464 157.1715,181.3464 156.5715,181.9754 C155.5175,181.7464 155.1735,183.0044 155.8235,183.6564 C155.8995,184.4724 156.0285,185.2604 156.5715,185.8984 C156.5765,186.6004 156.9945,187.3954 157.6915,187.5794 L158.4385,187.2064 C159.6095,185.2264 161.6775,183.8024 162.6415,181.6954 C162.9185,179.3234 160.0565,179.8284 158.5325,179.8274 Z" id="Stroke-59" stroke="#E75F52" stroke-linecap="round" stroke-linejoin="round"></path>
            <path d="M179.4539,186.926 C177.7719,188.872 176.5959,191.184 176.0919,193.651 L176.9319,195.052 C179.1469,195.351 181.2629,194.118 182.7229,192.437 L182.3489,189.261 L180.1079,187.019 L179.4539,186.926 Z" id="Fill-61" fill="#FFFFFF"></path>
            <path d="M179.4539,186.926 C177.7719,188.872 176.5959,191.184 176.0919,193.651 L176.9319,195.052 C179.1469,195.351 181.2629,194.118 182.7229,192.437 L182.3489,189.261 L180.1079,187.019 L179.4539,186.926 Z" id="Stroke-63" stroke="#E75F52" stroke-linecap="round" stroke-linejoin="round"></path>
            <path d="M192.9036,187.2991 L192.1566,187.2991 C191.4266,188.8141 191.8496,190.7741 191.8766,192.4371 L192.2496,192.8101 L198.0406,191.3161 L198.7876,190.5691 C198.8046,189.3841 197.2056,188.7231 196.5466,187.7671 C195.3656,187.4191 193.9426,188.0651 192.9036,187.2991" id="Fill-65" fill="#FFFFFF"></path>
            <path d="M192.9036,187.2991 L192.1566,187.2991 C191.4266,188.8141 191.8496,190.7741 191.8766,192.4371 L192.2496,192.8101 L198.0406,191.3161 L198.7876,190.5691 C198.8046,189.3841 197.2056,188.7231 196.5466,187.7671 C195.3656,187.4191 193.9426,188.0651 192.9036,187.2991 Z" id="Stroke-67" stroke="#E75F52" stroke-linecap="round" stroke-linejoin="round"></path>
            <path d="M163.4827,189.8215 C163.1477,188.9045 162.2497,187.8175 161.1477,188.0465 L158.5327,191.7825 C159.5037,193.2985 159.1787,195.1595 159.3727,196.9195 L161.8947,197.7595 L162.9217,197.2935 L163.1087,196.7325 C163.4527,196.4185 163.7967,196.1025 163.8567,195.6115 C165.4137,194.1295 165.4387,191.0405 163.4827,189.8215" id="Fill-69" fill="#FFFFFF"></path>
            <path d="M163.4827,189.8215 C163.1477,188.9045 162.2497,187.8175 161.1477,188.0465 L158.5327,191.7825 C159.5037,193.2985 159.1787,195.1595 159.3727,196.9195 L161.8947,197.7595 L162.9217,197.2935 L163.1087,196.7325 C163.4527,196.4185 163.7967,196.1025 163.8567,195.6115 C165.4137,194.1295 165.4387,191.0405 163.4827,189.8215 Z" id="Stroke-71" stroke="#E75F52" stroke-linecap="round" stroke-linejoin="round"></path>
            <path d="M247.0755,207.4739 C248.1595,209.0919 246.8135,210.9249 247.1685,212.6109 C247.7565,213.3939 248.9925,213.1639 249.6905,212.7039 L252.9595,212.6109 C254.1265,211.5289 253.8375,209.7599 253.7065,208.3149 C253.0335,207.5339 252.2585,206.9169 251.2785,206.6329 C250.5055,205.6489 249.3755,205.2429 248.2895,204.7649 C248.1455,204.1449 248.2555,203.5039 247.8225,202.9909 C248.1435,200.5929 245.5475,198.8219 243.3395,199.2539 C242.9275,199.8259 241.6545,199.7209 241.4715,200.7489 L243.0585,204.3919 L243.6195,204.5779 L246.9815,206.8199 L247.0755,207.4739 Z" id="Fill-73" fill="#FFFFFF"></path>
            <path d="M247.0755,207.4739 C248.1595,209.0919 246.8135,210.9249 247.1685,212.6109 C247.7565,213.3939 248.9925,213.1639 249.6905,212.7039 L252.9595,212.6109 C254.1265,211.5289 253.8375,209.7599 253.7065,208.3149 C253.0335,207.5339 252.2585,206.9169 251.2785,206.6329 C250.5055,205.6489 249.3755,205.2429 248.2895,204.7649 C248.1455,204.1449 248.2555,203.5039 247.8225,202.9909 C248.1435,200.5929 245.5475,198.8219 243.3395,199.2539 C242.9275,199.8259 241.6545,199.7209 241.4715,200.7489 L243.0585,204.3919 L243.6195,204.5779 L246.9815,206.8199 L247.0755,207.4739 Z" id="Stroke-75" stroke="#E75F52" stroke-linecap="round" stroke-linejoin="round"></path>
            <path d="M163.7625,199.6282 C162.4275,201.3512 159.0545,202.8082 160.8675,205.5122 C162.7615,205.7952 164.6665,206.2492 166.6585,205.8862 C167.6245,204.5352 166.9825,202.4462 167.0315,200.8422 C166.0975,200.1402 165.0075,199.4592 163.7625,199.6282" id="Fill-77" fill="#FFFFFF"></path>
            <path d="M163.7625,199.6282 C162.4275,201.3512 159.0545,202.8082 160.8675,205.5122 C162.7615,205.7952 164.6665,206.2492 166.6585,205.8862 C167.6245,204.5352 166.9825,202.4462 167.0315,200.8422 C166.0975,200.1402 165.0075,199.4592 163.7625,199.6282 Z" id="Stroke-79" stroke="#E75F52" stroke-linecap="round" stroke-linejoin="round"></path>
            <path d="M203.3645,208.2209 L203.2705,202.7099 C202.1325,201.9169 201.1935,200.4649 199.6285,200.7489 L199.5345,201.0299 C197.7345,201.9809 196.1995,203.3619 194.6775,204.7649 L193.7445,204.9519 C193.5825,205.1659 193.2685,205.2859 193.2765,205.6059 L193.3705,206.6329 L195.0515,209.8089 C195.4965,211.2389 196.0105,213.0039 197.3865,213.8249 L198.8815,213.8249 L199.7215,213.1709 C201.7265,212.2749 202.7415,210.1269 203.3645,208.2209" id="Fill-81" fill="#FFFFFF"></path>
            <path d="M203.3645,208.2209 L203.2705,202.7099 C202.1325,201.9169 201.1935,200.4649 199.6285,200.7489 L199.5345,201.0299 C197.7345,201.9809 196.1995,203.3619 194.6775,204.7649 L193.7445,204.9519 C193.5825,205.1659 193.2685,205.2859 193.2765,205.6059 L193.3705,206.6329 L195.0515,209.8089 C195.4965,211.2389 196.0105,213.0039 197.3865,213.8249 L198.8815,213.8249 L199.7215,213.1709 C201.7265,212.2749 202.7415,210.1269 203.3645,208.2209 Z" id="Stroke-83" stroke="#E75F52" stroke-linecap="round" stroke-linejoin="round"></path>
            <path d="M185.5247,211.1165 C186.8227,211.9595 188.3337,212.2215 189.6337,211.3035 C190.5787,211.1925 191.4427,210.7565 192.0627,209.9955 L192.4367,203.8315 L188.7947,203.3645 C188.7317,203.5515 188.6067,203.6755 188.4207,203.7375 C186.5557,203.9405 185.0247,205.5605 185.0577,207.4735 C184.4857,208.2875 184.6457,209.4225 184.7777,210.3695 L185.5247,211.1165 Z" id="Fill-85" fill="#FFFFFF"></path>
            <path d="M185.5247,211.1165 C186.8227,211.9595 188.3337,212.2215 189.6337,211.3035 C190.5787,211.1925 191.4427,210.7565 192.0627,209.9955 L192.4367,203.8315 L188.7947,203.3645 C188.7317,203.5515 188.6067,203.6755 188.4207,203.7375 C186.5557,203.9405 185.0247,205.5605 185.0577,207.4735 C184.4857,208.2875 184.6457,209.4225 184.7777,210.3695 L185.5247,211.1165 Z" id="Stroke-87" stroke="#E75F52" stroke-linecap="round" stroke-linejoin="round"></path>
            <path d="M171.6082,215.3196 C172.8182,214.3206 174.4742,213.5946 174.9702,211.9576 C174.0202,210.5836 173.8532,208.3826 172.0752,207.7546 C171.6482,207.0356 170.8572,207.0346 170.1142,207.0996 L170.0202,207.3806 C169.1402,207.4496 168.9592,208.3516 168.6192,208.9676 L170.5812,214.8526 C170.8282,215.1646 171.1752,215.4386 171.6082,215.3196" id="Fill-89" fill="#FFFFFF"></path>
            <path d="M171.6082,215.3196 C172.8182,214.3206 174.4742,213.5946 174.9702,211.9576 C174.0202,210.5836 173.8532,208.3826 172.0752,207.7546 C171.6482,207.0356 170.8572,207.0346 170.1142,207.0996 L170.0202,207.3806 C169.1402,207.4496 168.9592,208.3516 168.6192,208.9676 L170.5812,214.8526 C170.8282,215.1646 171.1752,215.4386 171.6082,215.3196 Z" id="Stroke-91" stroke="#E75F52" stroke-linecap="round" stroke-linejoin="round"></path>
            <path d="M207.9407,220.4563 C208.6657,220.6713 209.4837,220.6113 210.0887,220.1763 C212.8357,219.9813 214.4097,217.1393 217.0937,216.7203 L218.5877,215.9733 L219.3357,215.2263 C219.4257,214.2403 219.7807,212.8823 218.7747,212.2373 C218.7967,211.2373 217.8917,210.1993 216.8137,210.4623 L212.6107,214.1043 C211.3727,214.3813 210.5977,215.3253 209.9957,216.3473 L207.1937,217.6543 C206.9567,218.6373 207.3607,219.7003 207.9407,220.4563" id="Fill-93" fill="#FFFFFF"></path>
            <path d="M207.9407,220.4563 C208.6657,220.6713 209.4837,220.6113 210.0887,220.1763 C212.8357,219.9813 214.4097,217.1393 217.0937,216.7203 L218.5877,215.9733 L219.3357,215.2263 C219.4257,214.2403 219.7807,212.8823 218.7747,212.2373 C218.7967,211.2373 217.8917,210.1993 216.8137,210.4623 L212.6107,214.1043 C211.3727,214.3813 210.5977,215.3253 209.9957,216.3473 L207.1937,217.6543 C206.9567,218.6373 207.3607,219.7003 207.9407,220.4563 Z" id="Stroke-95" stroke="#E75F52" stroke-linecap="round" stroke-linejoin="round"></path>
            <path d="M263.1399,212.3303 L257.1619,212.3303 L257.0689,212.6103 C254.4469,213.1633 252.1329,214.6803 250.1579,216.5333 L249.9709,217.0943 L248.9439,217.9343 C247.0709,218.8723 246.9859,221.7293 248.1029,223.2583 L248.2889,224.1923 C249.5969,224.9793 252.1139,224.0063 251.5589,222.0443 L251.6519,221.3903 L252.3989,220.6433 L257.0689,220.4563 L257.8169,219.7093 C259.0119,217.0763 262.1809,216.8383 264.5409,215.9733 L265.2879,215.2263 C265.2009,214.0543 264.2769,212.7463 263.1399,212.3303" id="Fill-97" fill="#FFFFFF"></path>
            <path d="M263.1399,212.3303 L257.1619,212.3303 L257.0689,212.6103 C254.4469,213.1633 252.1329,214.6803 250.1579,216.5333 L249.9709,217.0943 L248.9439,217.9343 C247.0709,218.8723 246.9859,221.7293 248.1029,223.2583 L248.2889,224.1923 C249.5969,224.9793 252.1139,224.0063 251.5589,222.0443 L251.6519,221.3903 L252.3989,220.6433 L257.0689,220.4563 L257.8169,219.7093 C259.0119,217.0763 262.1809,216.8383 264.5409,215.9733 L265.2879,215.2263 C265.2009,214.0543 264.2769,212.7463 263.1399,212.3303 Z" id="Stroke-99" stroke="#E75F52" stroke-linecap="round" stroke-linejoin="round"></path>
            <path d="M169.3665,216.4397 C169.5965,215.5467 168.7925,214.5007 167.8725,214.5727 L167.7795,214.8527 L164.9765,215.4127 L164.1365,216.4397 C164.4245,217.2517 165.0005,218.0737 164.7905,218.9617 C164.0885,219.6897 162.9345,219.3127 162.2685,220.1757 C161.2465,219.8847 160.1235,219.5887 158.9995,219.8957 C157.5295,221.4237 157.6555,223.6807 157.8785,225.6867 C158.0925,225.8477 158.2135,226.1627 158.5325,226.1537 L163.0155,225.7807 C164.5475,225.7857 166.2265,225.9547 167.4055,224.9397 L166.8455,221.0167 L169.2735,219.3357 C169.7675,218.4607 170.0255,217.3087 169.3665,216.4397" id="Fill-101" fill="#FFFFFF"></path>
            <path d="M169.3665,216.4397 C169.5965,215.5467 168.7925,214.5007 167.8725,214.5727 L167.7795,214.8527 L164.9765,215.4127 L164.1365,216.4397 C164.4245,217.2517 165.0005,218.0737 164.7905,218.9617 C164.0885,219.6897 162.9345,219.3127 162.2685,220.1757 C161.2465,219.8847 160.1235,219.5887 158.9995,219.8957 C157.5295,221.4237 157.6555,223.6807 157.8785,225.6867 C158.0925,225.8477 158.2135,226.1627 158.5325,226.1537 L163.0155,225.7807 C164.5475,225.7857 166.2265,225.9547 167.4055,224.9397 L166.8455,221.0167 L169.2735,219.3357 C169.7675,218.4607 170.0255,217.3087 169.3665,216.4397 Z" id="Stroke-103" stroke="#E75F52" stroke-linecap="round" stroke-linejoin="round"></path>
            <path d="M194.7717,226.5276 L196.9187,223.8186 C197.0747,222.9196 197.0747,221.9166 196.9187,221.0166 L192.1567,218.3076 L191.4097,218.3076 L191.3157,218.5886 C189.6317,218.9286 190.4097,221.1306 190.3807,222.3246 C191.9397,223.5966 192.7417,225.9846 194.7717,226.5276" id="Fill-105" fill="#FFFFFF"></path>
            <path d="M194.7717,226.5276 L196.9187,223.8186 C197.0747,222.9196 197.0747,221.9166 196.9187,221.0166 L192.1567,218.3076 L191.4097,218.3076 L191.3157,218.5886 C189.6317,218.9286 190.4097,221.1306 190.3807,222.3246 C191.9397,223.5966 192.7417,225.9846 194.7717,226.5276 Z" id="Stroke-107" stroke="#E75F52" stroke-linecap="round" stroke-linejoin="round"></path>
            <path d="M230.263,223.1653 L229.049,226.8083 L226.247,225.1263 C225.077,225.5863 224.94,227.0363 224.285,228.0213 C224.642,229.1463 225.617,229.8903 226.434,230.7303 C226.617,231.7133 227.607,232.1443 228.396,232.5053 C230.19,232.2413 229.821,230.2933 230.731,229.2353 C232.116,229.1023 234.021,229.3823 234.373,227.6473 C233.822,225.7323 232.041,224.0683 230.263,223.1653" id="Fill-109" fill="#FFFFFF"></path>
            <path d="M230.263,223.1653 L229.049,226.8083 L226.247,225.1263 C225.077,225.5863 224.94,227.0363 224.285,228.0213 C224.642,229.1463 225.617,229.8903 226.434,230.7303 C226.617,231.7133 227.607,232.1443 228.396,232.5053 C230.19,232.2413 229.821,230.2933 230.731,229.2353 C232.116,229.1023 234.021,229.3823 234.373,227.6473 C233.822,225.7323 232.041,224.0683 230.263,223.1653 Z" id="Stroke-111" stroke="#E75F52" stroke-linecap="round" stroke-linejoin="round"></path>
            <path d="M197.387,239.6028 L198.134,239.6028 L198.787,239.8828 L199.534,239.5098 C200.481,238.0898 200.458,236.4438 200.375,234.7468 C199.99,233.5388 198.902,232.7648 198.04,231.8508 L196.266,231.7578 C196.274,232.0778 195.96,232.1978 195.799,232.4118 C193.833,232.8198 196.027,234.6088 195.519,235.8678 C195.527,236.1868 195.213,236.3068 195.052,236.5208 C192.485,237.3938 195.778,240.1988 197.387,239.6028" id="Fill-113" fill="#FFFFFF"></path>
            <path d="M197.387,239.6028 L198.134,239.6028 L198.787,239.8828 L199.534,239.5098 C200.481,238.0898 200.458,236.4438 200.375,234.7468 C199.99,233.5388 198.902,232.7648 198.04,231.8508 L196.266,231.7578 C196.274,232.0778 195.96,232.1978 195.799,232.4118 C193.833,232.8198 196.027,234.6088 195.519,235.8678 C195.527,236.1868 195.213,236.3068 195.052,236.5208 C192.485,237.3938 195.778,240.1988 197.387,239.6028 Z" id="Stroke-115" stroke="#E75F52" stroke-linecap="round" stroke-linejoin="round"></path>
            <path d="M294.802,232.5979 L290.039,232.5049 L289.198,233.1589 C285.29,234.3839 281.869,236.7649 278.924,239.6969 L278.365,241.7509 L277.616,243.2449 C276.881,244.1829 275.174,243.5999 274.722,244.8329 C274.639,246.8599 277.554,247.0159 277.71,248.9439 C277.258,250.8969 276.24,252.6859 275.469,254.5469 C276.281,255.8879 277.894,256.4359 279.204,257.1619 L280.606,257.0689 C282.945,254.8949 284.021,251.4639 287.05,250.0639 C287.511,250.3299 287.968,250.5609 288.545,250.4379 C288.981,250.1509 289.425,250.0439 289.946,249.9709 L290.412,248.9439 C290.233,246.3759 291.167,244.1679 292.561,242.1249 C293.178,238.9009 295.332,236.0659 294.802,232.5979" id="Fill-117" fill="#FFFFFF"></path>
            <path d="M294.802,232.5979 L290.039,232.5049 L289.198,233.1589 C285.29,234.3839 281.869,236.7649 278.924,239.6969 L278.365,241.7509 L277.616,243.2449 C276.881,244.1829 275.174,243.5999 274.722,244.8329 C274.639,246.8599 277.554,247.0159 277.71,248.9439 C277.258,250.8969 276.24,252.6859 275.469,254.5469 C276.281,255.8879 277.894,256.4359 279.204,257.1619 L280.606,257.0689 C282.945,254.8949 284.021,251.4639 287.05,250.0639 C287.511,250.3299 287.968,250.5609 288.545,250.4379 C288.981,250.1509 289.425,250.0439 289.946,249.9709 L290.412,248.9439 C290.233,246.3759 291.167,244.1679 292.561,242.1249 C293.178,238.9009 295.332,236.0659 294.802,232.5979 Z" id="Stroke-119" stroke="#E75F52" stroke-linecap="round" stroke-linejoin="round"></path>
            <path d="M111.739,235.9602 L109.965,235.8672 C108.85,237.8472 107.788,240.3382 108.843,242.5922 L108.937,244.7402 C110.226,246.4382 112.323,246.6722 114.074,247.4482 L115.475,247.3562 C115.549,246.8342 115.656,246.3912 115.942,245.9542 C115.495,244.2532 117.355,243.3732 117.436,241.8452 L111.739,235.9602 Z" id="Fill-121" fill="#FFFFFF"></path>
            <path d="M111.739,235.9602 L109.965,235.8672 C108.85,237.8472 107.788,240.3382 108.843,242.5922 L108.937,244.7402 C110.226,246.4382 112.323,246.6722 114.074,247.4482 L115.475,247.3562 C115.549,246.8342 115.656,246.3912 115.942,245.9542 C115.495,244.2532 117.355,243.3732 117.436,241.8452 L111.739,235.9602 Z" id="Stroke-123" stroke="#E75F52" stroke-linecap="round" stroke-linejoin="round"></path>
            <path d="M260.805,271.4524 C259.716,270.3194 259.392,268.2924 260.152,266.8764 C260.024,264.7724 261.127,263.0304 260.899,260.8984 C261.229,260.3854 261.45,259.7444 261.179,259.1244 C260.024,258.2264 257.925,258.4734 256.882,259.4974 L254.921,266.1294 C254.582,267.1514 254.611,268.3174 253.894,269.2114 L254.921,272.4794 L254.174,275.8424 C255.73,276.8384 256.791,278.8534 258.657,279.2044 C259.516,278.7454 259.338,277.5444 259.497,276.6824 C260.121,276.0084 261.382,276.2224 261.646,275.0954 L261.272,272.8534 C260.986,272.4174 260.878,271.9734 260.805,271.4524" id="Fill-125" fill="#FFFFFF"></path>
            <path d="M260.805,271.4524 C259.716,270.3194 259.392,268.2924 260.152,266.8764 C260.024,264.7724 261.127,263.0304 260.899,260.8984 C261.229,260.3854 261.45,259.7444 261.179,259.1244 C260.024,258.2264 257.925,258.4734 256.882,259.4974 L254.921,266.1294 C254.582,267.1514 254.611,268.3174 253.894,269.2114 L254.921,272.4794 L254.174,275.8424 C255.73,276.8384 256.791,278.8534 258.657,279.2044 C259.516,278.7454 259.338,277.5444 259.497,276.6824 C260.121,276.0084 261.382,276.2224 261.646,275.0954 L261.272,272.8534 C260.986,272.4174 260.878,271.9734 260.805,271.4524 Z" id="Stroke-127" stroke="#E75F52" stroke-linecap="round" stroke-linejoin="round"></path>
            <path d="M226.8079,281.9133 C225.1059,282.7883 224.8099,284.9623 223.4459,286.2093 L217.5609,285.1823 C214.7959,286.3813 212.8769,289.5293 209.7149,289.6653 C209.3959,289.6743 209.2759,289.3603 209.0619,289.1983 C208.7049,286.7813 211.1069,284.2263 209.6219,281.9133 C205.6839,280.4933 201.6309,282.2803 197.7599,282.5663 C194.0459,280.1993 189.2429,281.7293 185.1519,280.6053 C184.4209,279.5263 184.5359,277.9033 183.1899,277.3373 L170.4879,277.3373 C166.7139,279.6303 162.2649,279.9403 157.8789,279.8583 C157.2409,278.2383 157.6239,275.0243 155.1699,275.0953 C154.7089,274.8293 154.2519,274.5993 153.6759,274.7223 C153.3559,274.7293 153.2359,274.4163 153.0219,274.2543 C153.6319,273.1963 155.4649,273.1233 155.9169,271.7323 C155.8619,270.3003 153.9369,270.2533 153.2089,269.2113 L151.5269,269.5843 L148.0719,272.1063 C145.7509,271.8813 143.1909,272.6083 141.0669,271.6393 L139.7589,266.9693 C139.3949,266.4853 139.2229,265.5353 138.3579,265.7553 C138.2959,265.9413 138.1709,266.0663 137.9839,266.1293 C134.6869,266.5063 136.4939,270.8463 136.8639,272.8533 C136.8719,273.1733 136.5579,273.2933 136.3969,273.5073 C135.9269,273.7673 135.3689,273.5593 135.0889,273.1343 C134.1339,271.9583 135.2779,270.0793 133.7819,269.2113 C132.9399,269.2523 131.9289,269.5333 131.3529,270.3313 L129.1119,284.3423 L133.5009,287.0503 C139.3549,287.7993 145.6689,286.9493 151.0599,289.2923 C155.2889,289.1323 159.3469,289.5553 163.3889,290.0393 C165.6049,291.0183 167.4919,292.9413 170.1139,292.6543 C170.5749,292.9203 171.0319,293.1503 171.6079,293.0273 C171.9279,293.0193 172.0479,293.3333 172.2619,293.4953 L172.4489,300.0323 C172.6629,300.1943 172.7839,300.5083 173.1029,300.50045 L176.4649,300.50045 L177.2119,300.1263 L179.8279,300.1263 L180.5749,299.7523 C189.4999,298.8033 198.4329,297.8643 207.0999,296.0173 C210.5559,295.7803 214.2859,296.4983 217.5609,295.6423 C219.3949,296.3073 221.5399,295.9133 223.5379,296.0173 L227.9279,293.3083 C228.0899,293.0943 228.4039,292.9743 228.3959,292.6543 L228.7689,284.8093 C228.1149,283.8233 227.9769,282.3733 226.8079,281.9133" id="Fill-129" fill="#FFFFFF"></path>
            <path d="M226.8079,281.9133 C225.1059,282.7883 224.8099,284.9623 223.4459,286.2093 L217.5609,285.1823 C214.7959,286.3813 212.8769,289.5293 209.7149,289.6653 C209.3959,289.6743 209.2759,289.3603 209.0619,289.1983 C208.7049,286.7813 211.1069,284.2263 209.6219,281.9133 C205.6839,280.4933 201.6309,282.2803 197.7599,282.5663 C194.0459,280.1993 189.2429,281.7293 185.1519,280.6053 C184.4209,279.5263 184.5359,277.9033 183.1899,277.3373 L170.4879,277.3373 C166.7139,279.6303 162.2649,279.9403 157.8789,279.8583 C157.2409,278.2383 157.6239,275.0243 155.1699,275.0953 C154.7089,274.8293 154.2519,274.5993 153.6759,274.7223 C153.3559,274.7293 153.2359,274.4163 153.0219,274.2543 C153.6319,273.1963 155.4649,273.1233 155.9169,271.7323 C155.8619,270.3003 153.9369,270.2533 153.2089,269.2113 L151.5269,269.5843 L148.0719,272.1063 C145.7509,271.8813 143.1909,272.6083 141.0669,271.6393 L139.7589,266.9693 C139.3949,266.4853 139.2229,265.5353 138.3579,265.7553 C138.2959,265.9413 138.1709,266.0663 137.9839,266.1293 C134.6869,266.5063 136.4939,270.8463 136.8639,272.8533 C136.8719,273.1733 136.5579,273.2933 136.3969,273.5073 C135.9269,273.7673 135.3689,273.5593 135.0889,273.1343 C134.1339,271.9583 135.2779,270.0793 133.7819,269.2113 C132.9399,269.2523 131.9289,269.5333 131.3529,270.3313 L129.1119,284.3423 L133.5009,287.0503 C139.3549,287.7993 145.6689,286.9493 151.0599,289.2923 C155.2889,289.1323 159.3469,289.5553 163.3889,290.0393 C165.6049,291.0183 167.4919,292.9413 170.1139,292.6543 C170.5749,292.9203 171.0319,293.1503 171.6079,293.0273 C171.9279,293.0193 172.0479,293.3333 172.2619,293.4953 L172.4489,300.0323 C172.6629,300.1943 172.7839,300.5083 173.1029,300.50045 L176.4649,300.50045 L177.2119,300.1263 L179.8279,300.1263 L180.5749,299.7523 C189.4999,298.8033 198.4329,297.8643 207.0999,296.0173 C210.5559,295.7803 214.2859,296.4983 217.5609,295.6423 C219.3949,296.3073 221.5399,295.9133 223.5379,296.0173 L227.9279,293.3083 C228.0899,293.0943 228.4039,292.9743 228.3959,292.6543 L228.7689,284.8093 C228.1149,283.8233 227.9769,282.3733 226.8079,281.9133 Z" id="Stroke-131" stroke="#E75F52" stroke-linecap="round" stroke-linejoin="round"></path>
            <path d="M251.1848,275.8421 L247.5418,275.9361 C246.6488,277.3261 245.1598,279.2491 246.6088,280.7921 L246.7948,281.3531 C247.6838,282.0661 248.4658,281.5611 249.3168,281.0721 C250.7858,281.3001 252.2748,280.2861 252.7728,278.9241 C253.5378,278.0841 254.1988,277.0041 254.1738,275.8421 C253.2238,275.6211 252.0938,275.0891 251.1848,275.8421" id="Fill-133" fill="#FFFFFF"></path>
            <path d="M251.1848,275.8421 L247.5418,275.9361 C246.6488,277.3261 245.1598,279.2491 246.6088,280.7921 L246.7948,281.3531 C247.6838,282.0661 248.4658,281.5611 249.3168,281.0721 C250.7858,281.3001 252.2748,280.2861 252.7728,278.9241 C253.5378,278.0841 254.1988,277.0041 254.1738,275.8421 C253.2238,275.6211 252.0938,275.0891 251.1848,275.8421 Z" id="Stroke-135" stroke="#E75F52" stroke-linecap="round" stroke-linejoin="round"></path>
        </g>
    </g>
</svg>