<?xml version="1.0" encoding="UTF-8"?>
<svg width="329px" height="300px" viewBox="0 0 329 300" version="1.1" xmlns="http://www.w3.org/2000/svg" xmlns:xlink="http://www.w3.org/1999/xlink">
    <!-- Generator: Sketch 64 (93537) - https://sketch.com -->
    <title>105</title>
    <desc>Created with Sketch.</desc>
    <g id="105" stroke="none" stroke-width="1" fill="none" fill-rule="evenodd">
        <g id="Group-5">
            <path d="M255.386,300.5005 C254.11,299.7055 253.976,298.5075 253.211,297.9685 C252.712,297.6155 251.057,298.4725 250.561,297.8225 C250.103,297.2225 249.734,296.6085 248.926,296.4795 C248.068,296.3445 246.782,297.1295 245.913,297.2755 C245.321,297.3765 243.291,296.5085 242.67,296.3405 C242.338,296.2495 241.978,296.6115 241.663,296.4635 C241.279,296.2825 240.723,295.7305 240.254,295.8815 L239.447,295.3205 C238.99,295.3185 238.49,295.1385 238.052,295.1695 C237.816,295.1865 237.512,295.3035 237.282,295.2905 C237.197,295.2855 236.635,295.1155 236.519,295.0835 C235.372,294.7735 234.609,294.9075 233.47,295.2585 C232.482,295.5635 231.407,295.5415 230.391,295.8865 C230.343,295.9015 230.249,295.9715 230.202,295.9735 C228.719,296.0305 228.017,295.0125 226.958,296.6395 L226.696,296.7015 C225.956,296.2625 225.081,296.0105 224.223,296.0875 C224.097,296.2015 223.896,296.2835 223.737,296.3215 C222.475,296.6205 221.707,295.7955 220.66,295.9445 C219.892,296.0535 219.121,296.5895 218.364,296.8235 C217.286,297.1575 216.215,297.2745 215.096,297.3385 C215.07,297.3395 215.015,297.3835 214.99,297.3965 L213.307,297.2735 C211.891,298.4085 211.22,295.8605 209.729,295.0345 C209.317,294.9825 207.565,295.1095 207.188,295.1685 C206.86,295.2205 206.231,295.5335 205.951,295.7275 L205.579,295.6885 C205.146,295.3925 204.812,294.9765 204.399,294.6835 C203.51,294.0535 202.722,293.0745 201.578,293.3395 L201.242,293.2015 C201.104,292.8845 200.954,292.5705 200.83,292.2475 C200.1,292.0265 199.263,291.9675 198.593,291.6295 C196.526,290.5855 198.502,290.4865 195.266,290.4855 L195.172,290.5145 L195.058,290.4285 C193.689,289.2125 193.98,290.0505 193.029,289.6525 C192.195,289.3045 191.551,288.9105 190.793,288.4095 C190.439,288.1755 189.818,288.3965 189.43,288.3885 C188.247,288.3615 187.843,288.1435 186.626,288.2105 C186.278,288.0415 185.981,287.7645 185.597,287.6735 C184.545,288.0975 184.616,287.9945 183.906,288.9165 C183.43,289.0335 183.079,288.4565 182.632,288.3635 C182.607,288.3585 180.887,288.8035 180.803,288.8355 C180.671,289.1465 180.638,289.5945 180.349,289.8035 C179.969,290.0865 178.835,289.5625 178.406,289.4845 C176.919,289.2125 175.438,290.3335 174.328,290.5065 C174.157,290.9185 173.889,290.7985 173.544,290.7585 L173.517,290.6555 C172.927,289.5935 172.047,288.8205 171.117,288.0295 C169.782,286.8955 170.083,285.8615 168.955,284.7725 C168.926,284.7715 168.859,284.7585 168.831,284.7695 C168.023,285.0985 167.076,285.4465 166.22,285.6045 C165.714,285.6985 165.164,285.3375 164.558,285.4965 C164.075,285.1825 163.494,285.1635 162.995,284.9005 C160.796,283.7445 159.995,282.3935 159.352,280.0935 C158.933,278.6005 160.158,274.9135 161.629,274.1605 C161.022,273.1635 160.262,273.0515 159.158,272.8535 L159.13,272.7715 C158.773,272.5905 158.522,272.0935 158.407,272.0385 L158.407,272.2085 C157.533,271.8605 156.888,272.3825 156.003,272.2295 C155.257,272.1035 154.651,271.7395 153.846,271.6465 C153.289,271.4605 152.832,271.4665 152.33,271.1025 C152.091,270.9295 151.973,270.6385 151.64,270.5785 C151.088,270.4805 150.459,270.4865 149.893,270.4195 L149.786,270.4385 C148.591,269.1245 146.469,268.6475 144.844,268.0965 C144.503,267.9795 144.319,267.2635 143.964,266.9685 C143.78,266.8135 142.971,266.8405 142.457,266.5975 C142.405,266.5715 141.83,266.5275 141.733,266.5175 C141.376,266.0785 140.985,265.8055 140.412,265.8155 L140.25,265.9015 C140.212,266.1655 139.986,266.4805 139.701,266.5145 L139.358,266.4125 C139.106,266.4365 138.534,267.3665 137.337,267.4885 C136.888,267.5345 136.266,266.6475 135.64,266.7025 L135.351,266.3785 C132.865,265.7415 133.982,266.3925 131.825,264.7915 C131.662,264.8145 131.442,264.9655 131.339,265.0885 C130.962,265.1425 130.616,264.6575 130.212,264.6135 L128.061,264.3785 C127.7,264.3395 127.546,264.5295 127.293,264.5405 C126.87,264.5585 126.323,264.5215 125.913,264.5985 C125.582,264.6585 125.302,265.0495 124.851,264.9495 C124.529,264.8785 124.18,264.6665 123.861,264.5615 C123.434,264.4215 123.013,264.4465 122.587,264.3615 C121.305,264.1065 121.512,263.6965 119.731,263.9395 C118.545,262.8025 117.571,265.0955 116.167,261.5475 L116.201,261.3235 L116.434,261.1755 L116.449,261.0035 L116.273,260.9375 C116.109,261.0415 115.654,261.2335 115.453,261.1335 L115.044,260.6725 C115.095,260.1915 115.782,259.9645 115.814,259.6385 L115.705,259.4295 L115.465,259.2825 L114.981,259.2745 L114.792,259.1585 C114.722,259.0495 114.68,258.8165 114.739,258.6935 C114.836,258.5755 115.09,258.4795 115.238,258.4695 L115.358,258.3445 C115.655,257.7685 114.548,257.2765 114.519,256.9795 C114.628,256.8845 114.785,256.6575 114.782,256.5035 C114.745,256.2165 114.434,256.0775 114.293,255.8615 C114.074,255.5245 113.945,255.0845 113.709,254.7635 C113.528,254.5155 113.174,254.2425 112.949,254.0225 C112.799,253.3975 113.188,252.9595 112.797,252.1445 C112.36,251.7245 112.47,251.9075 112.283,251.3785 L111.508,250.8205 C111.499,250.7935 111.466,250.6545 111.451,250.6395 C110.647,249.8045 110.823,249.6305 110.287,248.7815 C109.877,248.1325 109.229,247.4085 108.667,246.8635 L108.593,246.0655 C106.964,245.8875 107.336,245.1955 106.826,245.0345 C106.607,244.9655 106.041,244.9485 105.905,244.7525 C105.661,244.4055 105.598,244.1405 105.155,243.9315 C104.984,243.0505 104.505,243.2975 104.087,242.7515 C103.734,242.2895 103.605,241.4855 103.273,240.9385 C103.122,240.6915 103.737,240.2575 103.869,240.1655 L103.964,239.8185 C103.908,239.4805 103.587,238.9545 103.402,238.6795 C103.396,238.4785 104.068,238.2335 104.123,237.9535 L103.907,237.4925 L104.378,236.6105 C104.228,236.0255 103.034,235.7115 103.486,234.9815 C103.606,234.7885 104.064,234.1875 103.984,233.9585 C103.772,233.6425 103.604,233.2925 103.426,232.8885 C103.522,232.0685 104.289,231.8195 104.42,231.3935 C104.595,230.8215 104.733,229.9345 104.782,229.3385 L105.182,229.0035 C104.711,228.0065 105.439,227.5915 105.292,227.1145 L104.958,226.0295 L105.189,225.4065 C104.836,224.2535 103.91,223.8575 104.089,222.3655 C104.16,221.7715 103.904,220.6475 104.233,220.3085 C104.438,220.2575 104.694,220.0155 104.795,219.8385 L104.801,219.6765 C104.723,219.5865 104.636,219.3775 104.668,219.2545 L104.787,219.1525 C105.378,217.8155 105.169,217.4425 104.342,216.4415 C104.085,216.1315 103.628,215.6145 103.181,215.5835 C102.734,215.8545 102.125,216.2235 101.577,216.0725 L100.665,215.2875 C99.793,214.9835 99.264,215.9215 98.479,215.8025 C97.195,215.6075 95.719,214.9145 94.45,214.8355 C93.85,214.7995 93.446,215.1975 92.949,215.3715 C92.7,215.4585 90.549,215.2975 90.323,215.2465 C90.137,215.2045 89.873,215.0605 89.764,214.8865 L89.517,214.8425 C88.842,215.2535 87.372,216.1015 86.538,216.0015 L86.444,215.9125 C86.18,214.9555 86.88,213.3975 86.927,212.4475 C86.979,211.4135 87.137,207.9035 86.985,207.1915 C86.865,206.6315 86.648,206.1145 86.553,205.5315 C86.475,205.0435 86.487,204.4725 86.259,204.0215 L86.288,203.9285 L85.477,203.2575 C85.55,202.5465 85.051,202.0345 84.865,201.4075 C84.787,201.1485 84.798,200.7135 84.772,200.4375 C84.769,200.4105 84.683,200.2865 84.666,200.2575 L84.253,200.0535 L84.118,199.4895 C83.482,199.0905 83.576,197.6875 82.507,197.6605 C81.893,197.8735 79.662,197.9575 79.081,197.6675 C78.691,197.2725 78.296,196.2865 78.115,195.7475 C77.723,195.4095 77.215,195.3235 76.827,195.0025 C76.472,195.0335 76.037,195.0175 75.693,194.9135 C75.236,195.3685 74.67,194.8955 74.223,194.8715 C73.891,194.8545 73.462,194.9965 73.141,194.8625 C72.925,194.7725 72.71,194.5825 72.491,194.5115 C72.279,194.4405 71.985,194.4885 71.776,194.4135 C71.482,194.3075 71.305,194.0705 70.933,193.9795 C70.295,193.5835 70.271,194.1405 69.289,193.6395 C69.108,193.5455 68.768,193.6005 68.556,193.6045 L68.235,193.3565 L68.074,193.4815 C68.004,193.4975 67.062,193.1045 66.457,193.1975 C66.36,193.1705 66.224,193.0625 66.198,192.9605 L66.393,192.5115 C66.3,192.2865 65.964,191.6515 65.643,191.6745 C65.504,191.7845 65.278,191.7315 65.132,191.6685 C63.411,190.9265 63.648,191.6665 62.619,191.5065 C62.185,190.8575 61.99,189.6485 61.695,189.3505 C61.517,189.1695 59.844,188.8505 59.541,188.7885 C59.206,188.7215 58.657,189.1935 58.384,189.0255 C58.133,188.6705 57.148,187.0625 57.022,186.7835 C56.462,185.5445 56.969,185.4125 55.61,184.6685 L55.029,184.6405 C54.539,183.8965 54.428,184.2605 53.759,183.9285 C53.619,183.8585 53.294,183.5075 53.168,183.4545 C52.425,183.1435 51.183,183.4495 50.601,182.9915 C49.712,182.2935 49.907,182.2135 49.556,181.2715 C49.392,180.8325 49.132,180.5365 48.911,180.1715 C48.808,180.0015 48.836,179.8055 48.657,179.6505 C47.579,179.3535 48.267,180.4905 45.969,179.1985 C45.776,178.8465 46.872,177.5685 47.061,177.3545 L47.035,177.1115 C46.431,176.7425 45.501,175.3135 44.905,175.4645 C44.056,175.6785 42.943,176.1595 42.129,175.6205 C41.81,175.4085 41.6,175.0935 41.25,174.9045 C40.974,174.7565 40.492,174.8745 40.259,174.6855 C39.231,173.8495 39.419,173.7965 38.944,172.4925 C38.892,172.3525 38.651,171.9855 38.626,171.8715 C38.458,171.0915 38.396,170.2305 38.284,169.4385 C38.24,169.1215 37.592,168.9045 37.362,168.6345 C37.23,167.6535 37.28,166.9135 36.865,165.9725 C36.716,165.6355 36.438,165.3295 36.297,164.9905 C35.978,164.2195 35.894,163.3275 35.399,162.6285 C35.442,162.4555 35.531,162.0365 35.486,161.8575 L35.186,161.5695 L34.99,161.5485 C34.848,161.1165 34.462,160.6375 34.126,160.3445 C34.065,160.1635 34.254,159.7545 34.346,159.6105 C33.833,158.8275 33.42,158.0345 32.901,157.2595 C32.121,156.0945 31.887,156.8095 31.08,154.8835 C30.968,154.6135 30.936,154.2135 30.77,153.9975 C30.664,152.9095 31.368,152.2405 32.178,151.6745 C32.38,151.3325 32.032,150.0815 31.907,149.6455 L31.944,149.5355 L31.844,149.5235 C31.679,148.9325 30.472,146.4565 30.045,145.9735 C29.139,145.8835 28.55,145.3065 27.906,144.7755 C27.238,144.2265 25.832,143.2745 24.958,143.0365 C25.032,142.7055 25.098,142.1805 25.003,141.8445 C24.412,141.3095 23.424,139.2555 23.847,138.5705 C23.328,137.6195 23.755,137.4065 23.751,136.5885 L24.019,136.2705 C23.214,135.4225 23.735,134.2685 23.45,133.8205 C23.101,133.2695 22.26,133.0925 21.991,132.4885 C21.682,132.4905 21.456,132.3015 21.178,132.2595 C20.947,132.2255 20.579,132.3725 20.368,132.2015 C18.492,130.6835 18.505,128.8855 17.567,127.8755 C17.22,127.5035 16.545,127.6395 16.133,127.3615 C15.992,127.2685 15.594,126.6575 15.555,126.5995 C14.63,125.1975 13.642,124.0725 12.485,122.8545 C12.364,122.7285 11.268,119.2515 11.193,119.0285 L11.13,118.9085 C10.819,118.3795 10.394,117.7895 10.146,117.2335 C10.017,116.9435 10.034,116.5215 9.928,116.2145 C9.809,115.8745 9.522,115.6785 9.361,115.4135 C8.888,114.6355 8.647,113.6465 8.212,112.8605 C7.92,112.3305 7.524,111.8065 7.191,111.2975 C6.926,110.8925 6.184,111.1755 5.964,110.8195 L5.74,110.0435 C5.57,109.6705 4.374,109.6595 4.086,109.2985 C3.901,108.4135 2.766,107.3295 2.407,106.3605 C2.19,105.7715 2.105,104.4135 1.811,103.9505 C1.249,103.0635 0.127,102.6265 0.68,101.4465 C0.093,100.5735 1.116,99.3025 1.304,98.4735 C1.413,97.9915 1.45,97.5055 1.607,97.0325 L1.91,97.0045 C2.052,97.0265 2.876,97.9425 3.313,98.1525 L3.634,98.1485 C4.406,98.5885 4.78,99.1765 5.637,98.7495 C6.03,98.7495 6.349,99.1445 6.531,99.4485 C6.834,99.6015 8.038,99.1475 8.56,99.1535 L8.794,99.4045 L9.126,99.4215 L9.496,99.1545 C9.687,99.1045 10.868,99.3325 11.029,99.4515 L11.912,100.1095 C12.023,100.1925 12.263,100.1585 12.371,100.1355 C13.365,99.9205 13.452,98.2995 14.618,99.1685 L15.121,99.1125 L15.537,99.4115 C16.676,98.5955 17.483,99.7175 18.744,97.8645 C19.098,97.7215 19.608,97.6855 19.981,97.7435 L20.125,97.9835 C20.11,98.1795 20.114,98.6235 20.219,98.8025 L20.741,98.7235 C21.111,99.0265 22.291,99.4585 22.795,99.4185 C23.165,99.7935 24.116,100.3145 24.141,100.8545 C24.639,101.2175 25.403,100.7675 25.907,101.2065 C26.009,101.4975 26.134,102.1765 26.405,102.3035 C26.419,102.4255 26.478,102.7115 26.582,102.7965 L26.663,102.8055 C26.508,102.9045 26.16,103.2055 26.137,103.4095 L26.221,103.6505 C26.353,103.6475 26.679,103.6865 26.777,103.7955 L26.808,103.8765 L26.673,104.3035 C26.777,104.4385 26.833,104.8015 26.962,104.8455 L27.355,104.8405 L27.612,105.1905 C27.841,105.0685 28.552,105.3235 28.763,105.4185 L29.01,105.8705 C29.184,105.9465 29.701,105.5915 30.582,105.9305 L30.782,105.8155 C31.074,105.7495 31.22,106.5315 32.103,105.8385 L32.187,105.3825 C32.249,105.2845 32.977,104.9995 33.127,104.9035 C33.449,104.8505 33.719,105.2265 34.046,105.1035 L34.437,104.7525 C34.793,104.6595 34.77,105.2485 35.61,104.9425 L36.36,105.1925 C36.406,104.8085 36.643,104.1135 36.949,103.8465 C36.774,103.7275 36.614,103.5545 36.497,103.3785 L36.631,103.0125 C36.888,102.6985 37.552,102.7355 37.903,102.5835 C38.064,102.5145 38.488,102.1875 38.619,102.1455 C38.899,102.0585 39.282,102.1355 39.571,102.0615 C40.446,101.8355 41.096,101.0045 42.001,100.9485 L42.054,101.1205 L41.919,101.5575 C41.995,101.6735 42.225,101.7555 42.356,101.7535 C42.48,101.9825 42.836,102.3985 43.112,102.4605 C43.298,102.3065 44.392,102.3315 44.67,102.3135 C44.876,102.3435 45.279,102.9385 45.377,103.1025 L45.589,103.1295 C45.692,103.0365 45.889,102.9515 46.03,102.9605 C46.159,103.0475 46.349,103.1045 46.505,103.0945 C47.159,102.5615 47.812,103.1195 48.452,103.3265 C49.035,103.5145 49.66,102.6805 50.343,103.7915 C50.775,103.7435 51.439,104.1765 51.704,104.4775 C52.019,104.4115 52.281,104.4905 52.585,104.5525 L52.885,104.8995 C53.603,104.7855 53.897,105.3745 54.528,105.4125 C55.046,105.4435 55.579,105.4305 56.1,105.4395 C56.553,105.6415 56.647,106.2635 56.731,106.6905 C56.94,106.9505 57.256,107.0105 57.556,107.1125 C57.696,107.4235 57.796,107.8465 57.786,108.1885 C58.047,108.2425 58.341,108.4115 58.553,108.5645 C60.341,108.3035 60.148,109.0645 61.491,109.3655 C62.146,109.1055 62.621,107.1275 65.017,106.8045 C65.206,106.9415 65.705,107.0215 65.929,107.0465 C66.152,106.8235 66.79,106.3335 67.124,106.4325 C67.383,106.0625 67.036,105.5635 67.461,105.3015 C67.782,105.3805 68.417,105.6025 68.727,105.5865 L69.344,105.2485 C69.555,105.2515 69.783,105.2905 69.981,105.3645 C70.736,104.9645 71.987,104.4985 72.828,104.3475 C73.737,104.8485 74.142,103.9825 74.962,103.8205 L76.072,104.3105 C76.36,104.0565 77.849,101.7975 78.127,101.4375 C78.787,100.5805 79.977,99.9935 80.76,99.1965 C80.817,98.7145 80.687,98.0215 80.519,97.5735 C80.535,97.5195 80.636,97.1495 80.658,97.1245 C83.101,94.3835 85.185,91.4895 87.372,88.5465 C88.169,87.4745 89.356,86.8655 90.383,86.0395 C91.986,84.7525 93.564,83.4385 95.163,82.1485 C95.227,82.0975 95.282,82.0215 95.339,81.9625 L95.449,81.9695 L95.526,81.8155 C96.556,81.0525 97.758,80.3295 98.407,79.1775 C100.375,77.2505 100.449,76.9085 100.786,74.0935 C100.847,73.5945 100.757,73.1205 100.968,72.6425 C101.177,72.1685 101.484,71.8165 101.766,71.3965 C103.064,69.4585 104.362,67.5155 105.694,65.6005 L105.71,65.4475 C105.973,65.3315 108.655,61.1005 109.296,60.1555 C111.89,58.9205 114.483,57.6815 117.086,56.4665 C118.456,55.8275 122.343,54.1655 123.073,53.2495 C124.475,52.4435 126.354,50.3395 127.763,49.3705 C127.958,49.2365 133.536,46.9775 133.861,46.8385 C136.153,45.8625 138.486,44.9555 140.783,43.9805 C141.584,43.6405 142.562,43.1225 143.395,42.9115 C144.571,42.6145 145.848,42.4785 147.049,42.2715 C147.136,42.2555 147.234,42.2015 147.316,42.1705 C147.526,41.8085 147.928,41.2115 148.412,41.2025 C148.933,40.6775 149.374,40.2025 150.102,39.9475 C150.268,39.5315 150.709,39.3085 150.838,38.8725 C150.988,38.3665 150.72,37.7785 150.818,37.2355 C150.968,36.4015 152.077,36.2655 151.821,34.7875 L152.069,34.4065 C152.066,34.3795 152.07,34.3065 152.055,34.2855 C151.536,33.5305 151.707,33.6045 151.834,32.6135 L151.648,32.3875 L151.115,32.2515 L150.925,31.9145 C151.031,30.0435 152.822,29.4185 152.416,28.5115 C152.284,28.3635 151.851,28.2375 151.669,28.2015 C151.208,27.8635 151.73,26.5305 151.758,26.1065 C151.782,25.7505 151.615,25.2895 151.759,24.9545 C152.017,24.3525 152.39,23.7805 152.66,23.1775 L152.495,22.6675 L152.098,22.3755 C151.976,22.1275 151.994,21.6675 152.089,21.4165 C152.189,21.3175 152.45,21.0265 152.471,20.8785 C152.375,20.6065 151.891,20.5275 151.865,20.2615 L151.954,19.9555 C152.907,19.2925 153.28,18.1745 153.767,17.2005 C153.981,16.7715 154.312,16.4075 154.504,15.9555 C154.58,15.7745 154.575,15.5575 154.715,15.4055 C155.568,14.8625 158.033,15.0655 159.059,15.1815 C159.85,14.9995 160.244,13.5665 160.723,12.9385 C160.996,12.5805 164.341,10.0565 165.064,9.5685 C165.559,9.2345 166.19,8.9515 166.618,8.5295 C167.032,8.1225 167.331,7.5005 167.941,7.3335 C169.109,7.5945 170.323,6.7025 171.221,6.0925 C171.546,5.8705 171.916,5.9375 172.25,5.8205 C172.71,5.6605 172.829,5.1295 173.608,4.9665 C174.072,4.8695 175.018,5.2935 175.347,4.9555 C175.556,4.7415 175.823,4.3935 176.06,4.2245 C176.463,3.9355 178.732,4.0205 179.405,3.8785 C180.427,3.6635 180.524,2.1325 181.993,1.9385 C183.281,1.7705 183.117,2.9725 184.804,2.8365 C185.542,2.7765 186.312,2.4865 187.014,2.2815 C187.454,2.1525 188.017,2.1165 188.437,1.9775 C191.105,1.0885 190.804,0.1945 194.255,0.6015 C194.546,0.6355 194.939,0.5935 195.211,0.6595 C195.563,0.7445 195.897,1.0005 196.243,1.1045 C196.614,1.2145 197.388,0.9835 197.626,1.1465 L198.775,1.9325 C198.854,1.9865 201.356,1.6885 201.656,1.6345 C202.065,1.5615 202.43,1.3485 202.865,1.3235 C203.366,1.2945 203.909,1.3595 204.406,1.3015 C206.293,1.0815 207.375,0.2625 208.903,2.3055 L208.967,2.6105 L209.133,2.7855 L209.449,2.8415 C209.989,2.5855 210.79,1.7145 211.277,1.2675 L211.465,1.3115 C211.5,1.3615 211.803,1.8165 211.834,1.8335 C212.703,2.3035 212.74,2.0705 213.698,2.1095 C215.399,2.1785 215.289,2.6955 217.042,1.5455 C217.322,1.3625 217.71,1.1765 217.916,0.8995 C218.003,0.9615 218.204,1.2855 218.205,1.3705 C218.251,5.4025 218.172,9.4355 218.152,13.4715 C218.144,14.8765 218.046,16.3385 218.182,17.7485 L239.074,17.7485 C239.457,17.9585 239.884,18.1845 240.222,18.4665 C240.67,19.3735 240.409,19.8175 241.574,20.3465 C242.219,20.3895 242.64,19.9735 243.177,19.7115 C243.339,19.4495 243.615,18.9015 243.609,18.5785 C244.105,18.5015 244.915,18.3545 245.024,17.7485 C245.198,17.8955 245.354,18.2375 245.364,18.4635 C245.774,18.1955 246.211,17.9535 246.657,17.7485 L246.598,17.5515 L248.22,16.9695 C248.491,17.2835 249.44,17.3545 249.805,17.3265 C249.967,17.5855 250.039,17.7715 250.294,17.9335 C251.228,17.8635 251.018,18.1795 252.201,17.8425 L252.591,17.7485 L252.69,17.8105 L252.685,18.1225 C252.766,18.2145 253.422,18.1785 253.561,18.1785 C254.348,18.8945 255.368,18.7355 256.547,20.0885 C256.553,20.4115 256.731,21.0345 256.957,21.2775 C257.131,21.4625 257.415,21.5825 257.597,21.7625 C258.207,22.3645 258.663,23.2365 259.299,23.7915 L259.971,23.5795 L260.228,23.7055 L260.393,23.9805 L260.278,24.3935 L260.393,24.6375 L261.052,24.5465 C261.3,24.4795 261.68,24.6055 261.876,24.7515 L262.526,24.6615 C263.353,25.6035 265.838,26.0755 266.999,26.1755 C267.386,26.2085 267.882,26.0025 268.266,26.1245 C268.498,26.1975 268.746,26.3855 268.979,26.4375 C269.713,26.6015 270.59,26.4895 271.349,26.6345 C271.828,26.7255 272.662,27.5395 273.088,27.8115 C273.268,27.9265 273.705,28.0145 273.918,28.1025 C274.122,28.1865 274.445,28.2355 274.668,28.1775 L275.295,29.0445 C275.413,29.1315 275.666,29.1465 275.803,29.1125 C275.836,29.2385 275.926,29.5595 276.026,29.6515 C276.214,29.6995 276.425,29.8475 276.57,29.9715 L276.657,30.1755 L276.52,30.7395 L276.959,30.7145 L277.146,30.9395 L277.181,31.3345 L277.398,31.5195 L277.571,31.2995 L277.928,31.3845 L278.073,31.7505 L278.322,31.8045 L278.529,32.0295 C278.8,32.0135 279.208,32.2285 279.392,32.4155 C280.051,32.4635 280.338,33.3885 280.321,33.9435 L280.557,34.1885 C280.406,34.5225 280.51,34.9085 280.394,35.2685 L280.655,35.9385 C281.563,36.1605 285.232,37.2295 286.12,37.2015 C287.491,37.1565 295.459,36.7435 296.257,36.8955 C297.058,37.0465 297.912,37.5345 298.727,37.5385 C298.761,37.5635 298.86,37.6505 298.896,37.6615 C300.927,38.2495 302.824,38.8965 304.747,39.7515 C305.544,40.1055 313.973,43.9195 314.18,44.3135 C314.252,45.2715 313.985,46.6215 313.755,47.5655 C313.792,48.0715 316.218,48.8105 316.584,49.0035 C317.021,48.8315 317.998,49.0485 318.226,48.8245 C318.449,48.8255 318.725,48.8915 318.924,48.9915 L319.227,48.6095 L319.648,48.5425 L320.095,48.9395 L320.735,48.9645 C320.908,49.1095 321.522,49.5405 321.772,49.4785 C321.927,49.4315 322.769,48.8135 322.886,48.6775 L323.027,48.6475 L323.206,48.7605 C323.535,48.7365 325.032,48.7105 325.345,48.9065 C325.249,49.8315 325.164,50.9005 324.847,51.7835 C324.684,52.2405 324.414,52.6615 324.328,53.1455 L324.218,53.2155 C324,53.6455 323.765,54.1495 323.669,54.6265 C323.294,55.3975 322.739,56.3335 322.562,57.1465 C321.705,57.9405 320.199,57.6405 319.35,58.3155 C319.29,58.9135 321.845,62.0595 322.175,62.6025 C322.443,63.0425 322.677,63.5815 322.968,63.9935 C323.165,64.2735 323.474,64.4695 323.644,64.8275 C324.074,65.7325 324.444,66.6855 324.84,67.6055 C325.838,69.9265 326.051,71.4905 326.105,74.0465 C326.112,74.3905 326.008,75.3595 326.276,75.6455 C326.651,75.5905 327.798,76.7265 328.144,77.0925 C327.221,77.8535 325.784,80.6355 326.166,81.7715 C326.038,81.7895 325.651,81.8085 325.555,81.8905 C325.387,82.2665 325.018,82.7895 324.663,83.0175 C324.497,83.4135 324.497,84.6475 324.681,85.0295 C324.794,85.2645 325.021,85.4675 325.14,85.7005 C325.278,85.9705 325.295,86.3105 325.466,86.6035 C325.789,86.8355 326.248,86.8225 326.63,86.8635 C327.05,87.2185 327.793,87.8935 328.06,88.3895 C327.922,88.8175 328.131,89.4815 327.88,89.8255 C327.276,90.6525 327.427,90.0775 327.006,91.3465 C326.786,92.0085 326.719,92.5975 326.844,93.2575 L327.094,93.5425 L326.771,93.6825 C326.666,93.5985 326.519,93.5235 326.385,93.5085 C326.305,93.7055 326.307,94.1295 326.316,94.3355 C326.443,94.7025 327.057,94.8925 327.356,95.2025 L327.365,95.4155 L326.82,95.7055 C327.048,96.4295 326.57,96.6155 326.67,97.1205 C326.565,97.1415 325.903,97.2815 325.844,97.2765 C325.562,97.2535 325.249,97.0495 324.958,97.1395 L324.572,97.8245 C324.586,98.0385 324.669,99.2945 324.621,99.4745 C324.523,99.8435 323.954,101.5925 324.401,101.9335 C324.613,102.0185 324.864,102.0615 325.09,102.0585 L325.29,102.2215 L325.27,102.4805 C324.785,102.8865 325.206,103.7985 324.672,104.2295 L324.21,104.1045 C323.453,104.3515 324.045,105.9035 324.105,106.3595 C324.141,106.6365 324.032,106.9895 324.11,107.2915 C324.185,107.5845 324.461,107.8395 324.507,108.1745 C324.542,108.4305 324.478,108.7805 324.542,109.0235 C324.681,109.5505 324.962,110.1245 325.157,110.6375 C325.302,111.0175 324.66,111.9765 325.336,112.6915 L325.719,112.7655 C325.889,112.8925 326.058,113.1115 326.145,113.3045 C326.032,114.2225 326.115,114.5495 326.339,115.4205 C326.424,115.7525 326.729,116.0615 326.615,116.4545 C326.534,116.7325 326.349,116.9935 326.267,117.2715 C326.052,117.9995 326.211,119.3945 326.786,119.8855 C327.129,119.9435 327.761,120.2305 327.924,120.5705 L327.871,120.9955 C327.992,121.2105 328.33,121.4855 328.525,121.6265 L328.554,121.8095 L328.205,122.5865 C328.097,122.7075 327.824,122.7775 327.669,122.7655 L327.242,123.0965 L326.973,124.2375 C326.721,125.3075 328.076,126.4125 326.157,127.1365 C325.986,127.2015 325.328,127.5075 325.164,127.4235 L324.733,126.9255 L324.581,126.9235 C324.355,127.1515 323.733,127.7065 323.354,127.6345 C322.957,128.0125 322.719,128.0925 322.219,127.8685 L322.015,128.1605 L321.701,128.1885 C321.553,128.3215 321.435,128.6895 321.399,128.8755 C321.835,129.7975 322.156,130.4465 321.457,131.3765 C321.563,131.5975 321.864,131.6765 322,131.9045 C322.232,132.2925 322.216,132.8135 322.437,133.2435 C323.13,134.2315 323.733,135.2455 324.321,136.2725 C324.565,136.7005 323.592,138.1465 323.445,138.6545 C323.351,138.9765 323.376,139.2955 323.215,139.6245 C322.99,140.0845 322.199,140.7855 321.731,140.9465 C320.827,141.2585 320.217,140.2075 319.363,140.1225 C318.318,140.0205 316.956,141.2185 316.129,141.7375 C315.805,141.9405 315.303,141.7505 315.084,141.9115 C314.668,142.2165 314.034,142.5585 313.829,143.0645 L313.855,143.6115 C314.282,144.1485 315.266,146.3465 314.906,146.8085 C314.529,146.9215 314.145,147.0335 313.757,147.1025 L313.674,147.3045 C313.716,147.4965 314.126,150.5595 314.307,150.7295 C315.639,151.9905 317.614,150.3355 319.257,150.6445 L319.753,151.0165 C320.013,151.5335 319.636,152.3275 320.284,153.3075 C320.465,153.3355 320.7,153.4245 320.841,153.5435 C321.035,153.8795 321.179,154.5045 321.107,154.8925 C321.072,155.0765 320.923,155.2815 320.869,155.4675 C320.674,156.1325 320.655,156.8085 320.52,157.4795 C320.341,158.3685 319.967,159.3115 319.902,160.2165 C319.842,161.0455 320.24,162.1025 319.945,162.8585 C319.854,162.9755 318.426,164.5215 318.234,164.6885 C317.785,165.0795 317.271,165.4015 316.864,165.8415 L316.83,166.2455 C317.03,166.5375 317.343,166.9225 317.24,167.3015 C316.8,167.7965 317.046,168.3695 317.024,168.9195 C317.011,169.2205 316.775,169.7865 316.872,170.0815 C317.332,171.4705 318.856,170.7225 319.736,170.9135 C319.841,171.5085 319.581,172.1915 319.539,172.7845 C319.499,173.3645 320.048,173.5615 320.048,174.2665 C320.048,175.1195 319.583,176.6225 320.067,177.4035 C319.945,177.7455 319.171,179.4425 319.327,179.7565 L319.469,179.9195 C319.785,180.1315 320.563,180.0875 320.905,180.0115 L321.057,180.1135 C321.939,180.1925 324.041,179.3805 324.682,178.7625 L324.937,178.7735 C325.25,178.9225 325.52,180.1065 325.374,180.3965 C325.214,180.5865 324.685,181.1895 324.452,181.2805 L324.379,181.4925 C324.42,181.6075 324.489,181.7825 324.591,181.8585 L325.93,182.8495 C326.623,183.3615 327.531,183.0595 328.459,184.3125 C328.49,184.5695 328.509,184.8915 328.608,185.1335 C328.077,186.0685 327.286,192.3725 326.935,193.9795 C326.873,194.2605 326.822,194.5435 326.704,194.8075 C326.584,194.9035 326.434,194.9945 326.284,195.0375 L326.253,195.1485 C326.016,195.3195 325.063,195.2985 324.963,195.6255 C323.735,195.9825 323.145,195.4015 322.559,196.7555 C323.014,197.2185 322.894,198.4235 322.88,199.0545 L322.46,199.2745 C322.239,199.2585 322.004,199.1715 321.806,199.0755 C321.782,198.9845 321.7,198.8925 321.623,198.8415 L321.524,198.5065 L321.238,198.5045 C321.191,198.6565 320.845,198.8435 320.714,198.8965 C320.634,199.1915 320.128,200.8635 320.199,201.0585 L320.825,201.9225 C320.845,202.0335 320.868,202.3755 320.782,202.4695 C320.478,202.6095 320.148,202.7415 319.818,202.8065 C319.638,202.9325 319.404,203.6585 319.534,203.8255 C319.815,204.2315 320.543,204.2845 320.644,204.5535 C320.717,205.2195 320.178,206.0265 320.538,206.6265 C319.775,207.6365 318.326,208.3155 317.868,209.5315 C317.772,209.7865 317.914,210.0695 317.883,210.3415 C317.643,210.6965 317.361,211.0825 317.056,211.3885 C316.127,212.3185 315.214,213.3955 314.575,214.5565 C314.013,215.5775 313.06,218.1145 311.91,218.7245 C311.389,218.7445 310.822,218.6535 310.282,218.6585 C309.008,218.6715 308.529,218.5935 308.11,218.7185 C307.707,218.8385 307.361,219.1455 306.419,219.8995 C304.988,221.0465 304.869,220.9375 304.618,222.9595 L304.617,223.1015 C304.666,223.7505 304.939,224.2415 305.042,224.8545 C305.106,225.2365 305.096,225.8525 305.101,226.2635 C305.113,227.3395 305.055,228.4805 305.173,229.5525 C305.294,230.6565 306.382,233.2825 305.972,234.2655 C304.247,238.3965 304.142,238.4785 301.331,241.6375 C300.989,242.0225 300.485,242.3535 300.261,242.8205 C300.053,243.2535 299.982,243.6515 299.672,244.0595 C299.818,244.5415 301.086,245.0805 301.314,245.5225 L301.332,245.7855 C300.855,246.4095 300.727,246.3675 301.041,247.1395 C302.015,247.9085 301.934,248.0435 302.38,249.0845 C302.743,249.9315 304.615,251.4435 304.427,252.4935 C303.365,252.0825 303.586,251.4135 302.179,251.7635 C301.782,251.8625 301.332,252.1905 301.061,252.4715 C295.84,257.8435 290.878,263.5025 285.8,269.0105 C282.551,272.5335 279.282,276.0185 276.042,279.5305 C272.338,283.5485 268.631,287.5875 264.874,291.5595 C263.924,292.5635 262.996,293.5905 262.042,294.5895 L259.092,297.6785 C257.979,298.8445 256.737,299.6085 255.386,300.5005" id="Fill-1" fill="#FFFFFF"></path>
            <path d="M255.386,300.5005 C254.11,299.7055 253.976,298.5075 253.211,297.9685 C252.712,297.6155 251.057,298.4725 250.561,297.8225 C250.103,297.2225 249.734,296.6085 248.926,296.4795 C248.068,296.3445 246.782,297.1295 245.913,297.2755 C245.321,297.3765 243.291,296.5085 242.67,296.3405 C242.338,296.2495 241.978,296.6115 241.663,296.4635 C241.279,296.2825 240.723,295.7305 240.254,295.8815 L239.447,295.3205 C238.99,295.3185 238.49,295.1385 238.052,295.1695 C237.816,295.1865 237.512,295.3035 237.282,295.2905 C237.197,295.2855 236.635,295.1155 236.519,295.0835 C235.372,294.7735 234.609,294.9075 233.47,295.2585 C232.482,295.5635 231.407,295.5415 230.391,295.8865 C230.343,295.9015 230.249,295.9715 230.202,295.9735 C228.719,296.0305 228.017,295.0125 226.958,296.6395 L226.696,296.7015 C225.956,296.2625 225.081,296.0105 224.223,296.0875 C224.097,296.2015 223.896,296.2835 223.737,296.3215 C222.475,296.6205 221.707,295.7955 220.66,295.9445 C219.892,296.0535 219.121,296.5895 218.364,296.8235 C217.286,297.1575 216.215,297.2745 215.096,297.3385 C215.07,297.3395 215.015,297.3835 214.99,297.3965 L213.307,297.2735 C211.891,298.4085 211.22,295.8605 209.729,295.0345 C209.317,294.9825 207.565,295.1095 207.188,295.1685 C206.86,295.2205 206.231,295.5335 205.951,295.7275 L205.579,295.6885 C205.146,295.3925 204.812,294.9765 204.399,294.6835 C203.51,294.0535 202.722,293.0745 201.578,293.3395 L201.242,293.2015 C201.104,292.8845 200.954,292.5705 200.83,292.2475 C200.1,292.0265 199.263,291.9675 198.593,291.6295 C196.526,290.5855 198.502,290.4865 195.266,290.4855 L195.172,290.5145 L195.058,290.4285 C193.689,289.2125 193.98,290.0505 193.029,289.6525 C192.195,289.3045 191.551,288.9105 190.793,288.4095 C190.439,288.1755 189.818,288.3965 189.43,288.3885 C188.247,288.3615 187.843,288.1435 186.626,288.2105 C186.278,288.0415 185.981,287.7645 185.597,287.6735 C184.545,288.0975 184.616,287.9945 183.906,288.9165 C183.43,289.0335 183.079,288.4565 182.632,288.3635 C182.607,288.3585 180.887,288.8035 180.803,288.8355 C180.671,289.1465 180.638,289.5945 180.349,289.8035 C179.969,290.0865 178.835,289.5625 178.406,289.4845 C176.919,289.2125 175.438,290.3335 174.328,290.5065 C174.157,290.9185 173.889,290.7985 173.544,290.7585 L173.517,290.6555 C172.927,289.5935 172.047,288.8205 171.117,288.0295 C169.782,286.8955 170.083,285.8615 168.955,284.7725 C168.926,284.7715 168.859,284.7585 168.831,284.7695 C168.023,285.0985 167.076,285.4465 166.22,285.6045 C165.714,285.6985 165.164,285.3375 164.558,285.4965 C164.075,285.1825 163.494,285.1635 162.995,284.9005 C160.796,283.7445 159.995,282.3935 159.352,280.0935 C158.933,278.6005 160.158,274.9135 161.629,274.1605 C161.022,273.1635 160.262,273.0515 159.158,272.8535 L159.13,272.7715 C158.773,272.5905 158.522,272.0935 158.407,272.0385 L158.407,272.2085 C157.533,271.8605 156.888,272.3825 156.003,272.2295 C155.257,272.1035 154.651,271.7395 153.846,271.6465 C153.289,271.4605 152.832,271.4665 152.33,271.1025 C152.091,270.9295 151.973,270.6385 151.64,270.5785 C151.088,270.4805 150.459,270.4865 149.893,270.4195 L149.786,270.4385 C148.591,269.1245 146.469,268.6475 144.844,268.0965 C144.503,267.9795 144.319,267.2635 143.964,266.9685 C143.78,266.8135 142.971,266.8405 142.457,266.5975 C142.405,266.5715 141.83,266.5275 141.733,266.5175 C141.376,266.0785 140.985,265.8055 140.412,265.8155 L140.25,265.9015 C140.212,266.1655 139.986,266.4805 139.701,266.5145 L139.358,266.4125 C139.106,266.4365 138.534,267.3665 137.337,267.4885 C136.888,267.5345 136.266,266.6475 135.64,266.7025 L135.351,266.3785 C132.865,265.7415 133.982,266.3925 131.825,264.7915 C131.662,264.8145 131.442,264.9655 131.339,265.0885 C130.962,265.1425 130.616,264.6575 130.212,264.6135 L128.061,264.3785 C127.7,264.3395 127.546,264.5295 127.293,264.5405 C126.87,264.5585 126.323,264.5215 125.913,264.5985 C125.582,264.6585 125.302,265.0495 124.851,264.9495 C124.529,264.8785 124.18,264.6665 123.861,264.5615 C123.434,264.4215 123.013,264.4465 122.587,264.3615 C121.305,264.1065 121.512,263.6965 119.731,263.9395 C118.545,262.8025 117.571,265.0955 116.167,261.5475 L116.201,261.3235 L116.434,261.1755 L116.449,261.0035 L116.273,260.9375 C116.109,261.0415 115.654,261.2335 115.453,261.1335 L115.044,260.6725 C115.095,260.1915 115.782,259.9645 115.814,259.6385 L115.705,259.4295 L115.465,259.2825 L114.981,259.2745 L114.792,259.1585 C114.722,259.0495 114.68,258.8165 114.739,258.6935 C114.836,258.5755 115.09,258.4795 115.238,258.4695 L115.358,258.3445 C115.655,257.7685 114.548,257.2765 114.519,256.9795 C114.628,256.8845 114.785,256.6575 114.782,256.5035 C114.745,256.2165 114.434,256.0775 114.293,255.8615 C114.074,255.5245 113.945,255.0845 113.709,254.7635 C113.528,254.5155 113.174,254.2425 112.949,254.0225 C112.799,253.3975 113.188,252.9595 112.797,252.1445 C112.36,251.7245 112.47,251.9075 112.283,251.3785 L111.508,250.8205 C111.499,250.7935 111.466,250.6545 111.451,250.6395 C110.647,249.8045 110.823,249.6305 110.287,248.7815 C109.877,248.1325 109.229,247.4085 108.667,246.8635 L108.593,246.0655 C106.964,245.8875 107.336,245.1955 106.826,245.0345 C106.607,244.9655 106.041,244.9485 105.905,244.7525 C105.661,244.4055 105.598,244.1405 105.155,243.9315 C104.984,243.0505 104.505,243.2975 104.087,242.7515 C103.734,242.2895 103.605,241.4855 103.273,240.9385 C103.122,240.6915 103.737,240.2575 103.869,240.1655 L103.964,239.8185 C103.908,239.4805 103.587,238.9545 103.402,238.6795 C103.396,238.4785 104.068,238.2335 104.123,237.9535 L103.907,237.4925 L104.378,236.6105 C104.228,236.0255 103.034,235.7115 103.486,234.9815 C103.606,234.7885 104.064,234.1875 103.984,233.9585 C103.772,233.6425 103.604,233.2925 103.426,232.8885 C103.522,232.0685 104.289,231.8195 104.42,231.3935 C104.595,230.8215 104.733,229.9345 104.782,229.3385 L105.182,229.0035 C104.711,228.0065 105.439,227.5915 105.292,227.1145 L104.958,226.0295 L105.189,225.4065 C104.836,224.2535 103.91,223.8575 104.089,222.3655 C104.16,221.7715 103.904,220.6475 104.233,220.3085 C104.438,220.2575 104.694,220.0155 104.795,219.8385 L104.801,219.6765 C104.723,219.5865 104.636,219.3775 104.668,219.2545 L104.787,219.1525 C105.378,217.8155 105.169,217.4425 104.342,216.4415 C104.085,216.1315 103.628,215.6145 103.181,215.5835 C102.734,215.8545 102.125,216.2235 101.577,216.0725 L100.665,215.2875 C99.793,214.9835 99.264,215.9215 98.479,215.8025 C97.195,215.6075 95.719,214.9145 94.45,214.8355 C93.85,214.7995 93.446,215.1975 92.949,215.3715 C92.7,215.4585 90.549,215.2975 90.323,215.2465 C90.137,215.2045 89.873,215.0605 89.764,214.8865 L89.517,214.8425 C88.842,215.2535 87.372,216.1015 86.538,216.0015 L86.444,215.9125 C86.18,214.9555 86.88,213.3975 86.927,212.4475 C86.979,211.4135 87.137,207.9035 86.985,207.1915 C86.865,206.6315 86.648,206.1145 86.553,205.5315 C86.475,205.0435 86.487,204.4725 86.259,204.0215 L86.288,203.9285 L85.477,203.2575 C85.55,202.5465 85.051,202.0345 84.865,201.4075 C84.787,201.1485 84.798,200.7135 84.772,200.4375 C84.769,200.4105 84.683,200.2865 84.666,200.2575 L84.253,200.0535 L84.118,199.4895 C83.482,199.0905 83.576,197.6875 82.507,197.6605 C81.893,197.8735 79.662,197.9575 79.081,197.6675 C78.691,197.2725 78.296,196.2865 78.115,195.7475 C77.723,195.4095 77.215,195.3235 76.827,195.0025 C76.472,195.0335 76.037,195.0175 75.693,194.9135 C75.236,195.3685 74.67,194.8955 74.223,194.8715 C73.891,194.8545 73.462,194.9965 73.141,194.8625 C72.925,194.7725 72.71,194.5825 72.491,194.5115 C72.279,194.4405 71.985,194.4885 71.776,194.4135 C71.482,194.3075 71.305,194.0705 70.933,193.9795 C70.295,193.5835 70.271,194.1405 69.289,193.6395 C69.108,193.5455 68.768,193.6005 68.556,193.6045 L68.235,193.3565 L68.074,193.4815 C68.004,193.4975 67.062,193.1045 66.457,193.1975 C66.36,193.1705 66.224,193.0625 66.198,192.9605 L66.393,192.5115 C66.3,192.2865 65.964,191.6515 65.643,191.6745 C65.504,191.7845 65.278,191.7315 65.132,191.6685 C63.411,190.9265 63.648,191.6665 62.619,191.5065 C62.185,190.8575 61.99,189.6485 61.695,189.3505 C61.517,189.1695 59.844,188.8505 59.541,188.7885 C59.206,188.7215 58.657,189.1935 58.384,189.0255 C58.133,188.6705 57.148,187.0625 57.022,186.7835 C56.462,185.5445 56.969,185.4125 55.61,184.6685 L55.029,184.6405 C54.539,183.8965 54.428,184.2605 53.759,183.9285 C53.619,183.8585 53.294,183.5075 53.168,183.4545 C52.425,183.1435 51.183,183.4495 50.601,182.9915 C49.712,182.2935 49.907,182.2135 49.556,181.2715 C49.392,180.8325 49.132,180.5365 48.911,180.1715 C48.808,180.0015 48.836,179.8055 48.657,179.6505 C47.579,179.3535 48.267,180.4905 45.969,179.1985 C45.776,178.8465 46.872,177.5685 47.061,177.3545 L47.035,177.1115 C46.431,176.7425 45.501,175.3135 44.905,175.4645 C44.056,175.6785 42.943,176.1595 42.129,175.6205 C41.81,175.4085 41.6,175.0935 41.25,174.9045 C40.974,174.7565 40.492,174.8745 40.259,174.6855 C39.231,173.8495 39.419,173.7965 38.944,172.4925 C38.892,172.3525 38.651,171.9855 38.626,171.8715 C38.458,171.0915 38.396,170.2305 38.284,169.4385 C38.24,169.1215 37.592,168.9045 37.362,168.6345 C37.23,167.6535 37.28,166.9135 36.865,165.9725 C36.716,165.6355 36.438,165.3295 36.297,164.9905 C35.978,164.2195 35.894,163.3275 35.399,162.6285 C35.442,162.4555 35.531,162.0365 35.486,161.8575 L35.186,161.5695 L34.99,161.5485 C34.848,161.1165 34.462,160.6375 34.126,160.3445 C34.065,160.1635 34.254,159.7545 34.346,159.6105 C33.833,158.8275 33.42,158.0345 32.901,157.2595 C32.121,156.0945 31.887,156.8095 31.08,154.8835 C30.968,154.6135 30.936,154.2135 30.77,153.9975 C30.664,152.9095 31.368,152.2405 32.178,151.6745 C32.38,151.3325 32.032,150.0815 31.907,149.6455 L31.944,149.5355 L31.844,149.5235 C31.679,148.9325 30.472,146.4565 30.045,145.9735 C29.139,145.8835 28.55,145.3065 27.906,144.7755 C27.238,144.2265 25.832,143.2745 24.958,143.0365 C25.032,142.7055 25.098,142.1805 25.003,141.8445 C24.412,141.3095 23.424,139.2555 23.847,138.5705 C23.328,137.6195 23.755,137.4065 23.751,136.5885 L24.019,136.2705 C23.214,135.4225 23.735,134.2685 23.45,133.8205 C23.101,133.2695 22.26,133.0925 21.991,132.4885 C21.682,132.4905 21.456,132.3015 21.178,132.2595 C20.947,132.2255 20.579,132.3725 20.368,132.2015 C18.492,130.6835 18.505,128.8855 17.567,127.8755 C17.22,127.5035 16.545,127.6395 16.133,127.3615 C15.992,127.2685 15.594,126.6575 15.555,126.5995 C14.63,125.1975 13.642,124.0725 12.485,122.8545 C12.364,122.7285 11.268,119.2515 11.193,119.0285 L11.13,118.9085 C10.819,118.3795 10.394,117.7895 10.146,117.2335 C10.017,116.9435 10.034,116.5215 9.928,116.2145 C9.809,115.8745 9.522,115.6785 9.361,115.4135 C8.888,114.6355 8.647,113.6465 8.212,112.8605 C7.92,112.3305 7.524,111.8065 7.191,111.2975 C6.926,110.8925 6.184,111.1755 5.964,110.8195 L5.74,110.0435 C5.57,109.6705 4.374,109.6595 4.086,109.2985 C3.901,108.4135 2.766,107.3295 2.407,106.3605 C2.19,105.7715 2.105,104.4135 1.811,103.9505 C1.249,103.0635 0.127,102.6265 0.68,101.4465 C0.093,100.5735 1.116,99.3025 1.304,98.4735 C1.413,97.9915 1.45,97.5055 1.607,97.0325 L1.91,97.0045 C2.052,97.0265 2.876,97.9425 3.313,98.1525 L3.634,98.1485 C4.406,98.5885 4.78,99.1765 5.637,98.7495 C6.03,98.7495 6.349,99.1445 6.531,99.4485 C6.834,99.6015 8.038,99.1475 8.56,99.1535 L8.794,99.4045 L9.126,99.4215 L9.496,99.1545 C9.687,99.1045 10.868,99.3325 11.029,99.4515 L11.912,100.1095 C12.023,100.1925 12.263,100.1585 12.371,100.1355 C13.365,99.9205 13.452,98.2995 14.618,99.1685 L15.121,99.1125 L15.537,99.4115 C16.676,98.5955 17.483,99.7175 18.744,97.8645 C19.098,97.7215 19.608,97.6855 19.981,97.7435 L20.125,97.9835 C20.11,98.1795 20.114,98.6235 20.219,98.8025 L20.741,98.7235 C21.111,99.0265 22.291,99.4585 22.795,99.4185 C23.165,99.7935 24.116,100.3145 24.141,100.8545 C24.639,101.2175 25.403,100.7675 25.907,101.2065 C26.009,101.4975 26.134,102.1765 26.405,102.3035 C26.419,102.4255 26.478,102.7115 26.582,102.7965 L26.663,102.8055 C26.508,102.9045 26.16,103.2055 26.137,103.4095 L26.221,103.6505 C26.353,103.6475 26.679,103.6865 26.777,103.7955 L26.808,103.8765 L26.673,104.3035 C26.777,104.4385 26.833,104.8015 26.962,104.8455 L27.355,104.8405 L27.612,105.1905 C27.841,105.0685 28.552,105.3235 28.763,105.4185 L29.01,105.8705 C29.184,105.9465 29.701,105.5915 30.582,105.9305 L30.782,105.8155 C31.074,105.7495 31.22,106.5315 32.103,105.8385 L32.187,105.3825 C32.249,105.2845 32.977,104.9995 33.127,104.9035 C33.449,104.8505 33.719,105.2265 34.046,105.1035 L34.437,104.7525 C34.793,104.6595 34.77,105.2485 35.61,104.9425 L36.36,105.1925 C36.406,104.8085 36.643,104.1135 36.949,103.8465 C36.774,103.7275 36.614,103.5545 36.497,103.3785 L36.631,103.0125 C36.888,102.6985 37.552,102.7355 37.903,102.5835 C38.064,102.5145 38.488,102.1875 38.619,102.1455 C38.899,102.0585 39.282,102.1355 39.571,102.0615 C40.446,101.8355 41.096,101.0045 42.001,100.9485 L42.054,101.1205 L41.919,101.5575 C41.995,101.6735 42.225,101.7555 42.356,101.7535 C42.48,101.9825 42.836,102.3985 43.112,102.4605 C43.298,102.3065 44.392,102.3315 44.67,102.3135 C44.876,102.3435 45.279,102.9385 45.377,103.1025 L45.589,103.1295 C45.692,103.0365 45.889,102.9515 46.03,102.9605 C46.159,103.0475 46.349,103.1045 46.505,103.0945 C47.159,102.5615 47.812,103.1195 48.452,103.3265 C49.035,103.5145 49.66,102.6805 50.343,103.7915 C50.775,103.7435 51.439,104.1765 51.704,104.4775 C52.019,104.4115 52.281,104.4905 52.585,104.5525 L52.885,104.8995 C53.603,104.7855 53.897,105.3745 54.528,105.4125 C55.046,105.4435 55.579,105.4305 56.1,105.4395 C56.553,105.6415 56.647,106.2635 56.731,106.6905 C56.94,106.9505 57.256,107.0105 57.556,107.1125 C57.696,107.4235 57.796,107.8465 57.786,108.1885 C58.047,108.2425 58.341,108.4115 58.553,108.5645 C60.341,108.3035 60.148,109.0645 61.491,109.3655 C62.146,109.1055 62.621,107.1275 65.017,106.8045 C65.206,106.9415 65.705,107.0215 65.929,107.0465 C66.152,106.8235 66.79,106.3335 67.124,106.4325 C67.383,106.0625 67.036,105.5635 67.461,105.3015 C67.782,105.3805 68.417,105.6025 68.727,105.5865 L69.344,105.2485 C69.555,105.2515 69.783,105.2905 69.981,105.3645 C70.736,104.9645 71.987,104.4985 72.828,104.3475 C73.737,104.8485 74.142,103.9825 74.962,103.8205 L76.072,104.3105 C76.36,104.0565 77.849,101.7975 78.127,101.4375 C78.787,100.5805 79.977,99.9935 80.76,99.1965 C80.817,98.7145 80.687,98.0215 80.519,97.5735 C80.535,97.5195 80.636,97.1495 80.658,97.1245 C83.101,94.3835 85.185,91.4895 87.372,88.5465 C88.169,87.4745 89.356,86.8655 90.383,86.0395 C91.986,84.7525 93.564,83.4385 95.163,82.1485 C95.227,82.0975 95.282,82.0215 95.339,81.9625 L95.449,81.9695 L95.526,81.8155 C96.556,81.0525 97.758,80.3295 98.407,79.1775 C100.375,77.2505 100.449,76.9085 100.786,74.0935 C100.847,73.5945 100.757,73.1205 100.968,72.6425 C101.177,72.1685 101.484,71.8165 101.766,71.3965 C103.064,69.4585 104.362,67.5155 105.694,65.6005 L105.71,65.4475 C105.973,65.3315 108.655,61.1005 109.296,60.1555 C111.89,58.9205 114.483,57.6815 117.086,56.4665 C118.456,55.8275 122.343,54.1655 123.073,53.2495 C124.475,52.4435 126.354,50.3395 127.763,49.3705 C127.958,49.2365 133.536,46.9775 133.861,46.8385 C136.153,45.8625 138.486,44.9555 140.783,43.9805 C141.584,43.6405 142.562,43.1225 143.395,42.9115 C144.571,42.6145 145.848,42.4785 147.049,42.2715 C147.136,42.2555 147.234,42.2015 147.316,42.1705 C147.526,41.8085 147.928,41.2115 148.412,41.2025 C148.933,40.6775 149.374,40.2025 150.102,39.9475 C150.268,39.5315 150.709,39.3085 150.838,38.8725 C150.988,38.3665 150.72,37.7785 150.818,37.2355 C150.968,36.4015 152.077,36.2655 151.821,34.7875 L152.069,34.4065 C152.066,34.3795 152.07,34.3065 152.055,34.2855 C151.536,33.5305 151.707,33.6045 151.834,32.6135 L151.648,32.3875 L151.115,32.2515 L150.925,31.9145 C151.031,30.0435 152.822,29.4185 152.416,28.5115 C152.284,28.3635 151.851,28.2375 151.669,28.2015 C151.208,27.8635 151.73,26.5305 151.758,26.1065 C151.782,25.7505 151.615,25.2895 151.759,24.9545 C152.017,24.3525 152.39,23.7805 152.66,23.1775 L152.495,22.6675 L152.098,22.3755 C151.976,22.1275 151.994,21.6675 152.089,21.4165 C152.189,21.3175 152.45,21.0265 152.471,20.8785 C152.375,20.6065 151.891,20.5275 151.865,20.2615 L151.954,19.9555 C152.907,19.2925 153.28,18.1745 153.767,17.2005 C153.981,16.7715 154.312,16.4075 154.504,15.9555 C154.58,15.7745 154.575,15.5575 154.715,15.4055 C155.568,14.8625 158.033,15.0655 159.059,15.1815 C159.85,14.9995 160.244,13.5665 160.723,12.9385 C160.996,12.5805 164.341,10.0565 165.064,9.5685 C165.559,9.2345 166.19,8.9515 166.618,8.5295 C167.032,8.1225 167.331,7.5005 167.941,7.3335 C169.109,7.5945 170.323,6.7025 171.221,6.0925 C171.546,5.8705 171.916,5.9375 172.25,5.8205 C172.71,5.6605 172.829,5.1295 173.608,4.9665 C174.072,4.8695 175.018,5.2935 175.347,4.9555 C175.556,4.7415 175.823,4.3935 176.06,4.2245 C176.463,3.9355 178.732,4.0205 179.405,3.8785 C180.427,3.6635 180.524,2.1325 181.993,1.9385 C183.281,1.7705 183.117,2.9725 184.804,2.8365 C185.542,2.7765 186.312,2.4865 187.014,2.2815 C187.454,2.1525 188.017,2.1165 188.437,1.9775 C191.105,1.0885 190.804,0.1945 194.255,0.6015 C194.546,0.6355 194.939,0.5935 195.211,0.6595 C195.563,0.7445 195.897,1.0005 196.243,1.1045 C196.614,1.2145 197.388,0.9835 197.626,1.1465 L198.775,1.9325 C198.854,1.9865 201.356,1.6885 201.656,1.6345 C202.065,1.5615 202.43,1.3485 202.865,1.3235 C203.366,1.2945 203.909,1.3595 204.406,1.3015 C206.293,1.0815 207.375,0.2625 208.903,2.3055 L208.967,2.6105 L209.133,2.7855 L209.449,2.8415 C209.989,2.5855 210.79,1.7145 211.277,1.2675 L211.465,1.3115 C211.5,1.3615 211.803,1.8165 211.834,1.8335 C212.703,2.3035 212.74,2.0705 213.698,2.1095 C215.399,2.1785 215.289,2.6955 217.042,1.5455 C217.322,1.3625 217.71,1.1765 217.916,0.8995 C218.003,0.9615 218.204,1.2855 218.205,1.3705 C218.251,5.4025 218.172,9.4355 218.152,13.4715 C218.144,14.8765 218.046,16.3385 218.182,17.7485 L239.074,17.7485 C239.457,17.9585 239.884,18.1845 240.222,18.4665 C240.67,19.3735 240.409,19.8175 241.574,20.3465 C242.219,20.3895 242.64,19.9735 243.177,19.7115 C243.339,19.4495 243.615,18.9015 243.609,18.5785 C244.105,18.5015 244.915,18.3545 245.024,17.7485 C245.198,17.8955 245.354,18.2375 245.364,18.4635 C245.774,18.1955 246.211,17.9535 246.657,17.7485 L246.598,17.5515 L248.22,16.9695 C248.491,17.2835 249.44,17.3545 249.805,17.3265 C249.967,17.5855 250.039,17.7715 250.294,17.9335 C251.228,17.8635 251.018,18.1795 252.201,17.8425 L252.591,17.7485 L252.69,17.8105 L252.685,18.1225 C252.766,18.2145 253.422,18.1785 253.561,18.1785 C254.348,18.8945 255.368,18.7355 256.547,20.0885 C256.553,20.4115 256.731,21.0345 256.957,21.2775 C257.131,21.4625 257.415,21.5825 257.597,21.7625 C258.207,22.3645 258.663,23.2365 259.299,23.7915 L259.971,23.5795 L260.228,23.7055 L260.393,23.9805 L260.278,24.3935 L260.393,24.6375 L261.052,24.5465 C261.3,24.4795 261.68,24.6055 261.876,24.7515 L262.526,24.6615 C263.353,25.6035 265.838,26.0755 266.999,26.1755 C267.386,26.2085 267.882,26.0025 268.266,26.1245 C268.498,26.1975 268.746,26.3855 268.979,26.4375 C269.713,26.6015 270.59,26.4895 271.349,26.6345 C271.828,26.7255 272.662,27.5395 273.088,27.8115 C273.268,27.9265 273.705,28.0145 273.918,28.1025 C274.122,28.1865 274.445,28.2355 274.668,28.1775 L275.295,29.0445 C275.413,29.1315 275.666,29.1465 275.803,29.1125 C275.836,29.2385 275.926,29.5595 276.026,29.6515 C276.214,29.6995 276.425,29.8475 276.57,29.9715 L276.657,30.1755 L276.52,30.7395 L276.959,30.7145 L277.146,30.9395 L277.181,31.3345 L277.398,31.5195 L277.571,31.2995 L277.928,31.3845 L278.073,31.7505 L278.322,31.8045 L278.529,32.0295 C278.8,32.0135 279.208,32.2285 279.392,32.4155 C280.051,32.4635 280.338,33.3885 280.321,33.9435 L280.557,34.1885 C280.406,34.5225 280.51,34.9085 280.394,35.2685 L280.655,35.9385 C281.563,36.1605 285.232,37.2295 286.12,37.2015 C287.491,37.1565 295.459,36.7435 296.257,36.8955 C297.058,37.0465 297.912,37.5345 298.727,37.5385 C298.761,37.5635 298.86,37.6505 298.896,37.6615 C300.927,38.2495 302.824,38.8965 304.747,39.7515 C305.544,40.1055 313.973,43.9195 314.18,44.3135 C314.252,45.2715 313.985,46.6215 313.755,47.5655 C313.792,48.0715 316.218,48.8105 316.584,49.0035 C317.021,48.8315 317.998,49.0485 318.226,48.8245 C318.449,48.8255 318.725,48.8915 318.924,48.9915 L319.227,48.6095 L319.648,48.5425 L320.095,48.9395 L320.735,48.9645 C320.908,49.1095 321.522,49.5405 321.772,49.4785 C321.927,49.4315 322.769,48.8135 322.886,48.6775 L323.027,48.6475 L323.206,48.7605 C323.535,48.7365 325.032,48.7105 325.345,48.9065 C325.249,49.8315 325.164,50.9005 324.847,51.7835 C324.684,52.2405 324.414,52.6615 324.328,53.1455 L324.218,53.2155 C324,53.6455 323.765,54.1495 323.669,54.6265 C323.294,55.3975 322.739,56.3335 322.562,57.1465 C321.705,57.9405 320.199,57.6405 319.35,58.3155 C319.29,58.9135 321.845,62.0595 322.175,62.6025 C322.443,63.0425 322.677,63.5815 322.968,63.9935 C323.165,64.2735 323.474,64.4695 323.644,64.8275 C324.074,65.7325 324.444,66.6855 324.84,67.6055 C325.838,69.9265 326.051,71.4905 326.105,74.0465 C326.112,74.3905 326.008,75.3595 326.276,75.6455 C326.651,75.5905 327.798,76.7265 328.144,77.0925 C327.221,77.8535 325.784,80.6355 326.166,81.7715 C326.038,81.7895 325.651,81.8085 325.555,81.8905 C325.387,82.2665 325.018,82.7895 324.663,83.0175 C324.497,83.4135 324.497,84.6475 324.681,85.0295 C324.794,85.2645 325.021,85.4675 325.14,85.7005 C325.278,85.9705 325.295,86.3105 325.466,86.6035 C325.789,86.8355 326.248,86.8225 326.63,86.8635 C327.05,87.2185 327.793,87.8935 328.06,88.3895 C327.922,88.8175 328.131,89.4815 327.88,89.8255 C327.276,90.6525 327.427,90.0775 327.006,91.3465 C326.786,92.0085 326.719,92.5975 326.844,93.2575 L327.094,93.5425 L326.771,93.6825 C326.666,93.5985 326.519,93.5235 326.385,93.5085 C326.305,93.7055 326.307,94.1295 326.316,94.3355 C326.443,94.7025 327.057,94.8925 327.356,95.2025 L327.365,95.4155 L326.82,95.7055 C327.048,96.4295 326.57,96.6155 326.67,97.1205 C326.565,97.1415 325.903,97.2815 325.844,97.2765 C325.562,97.2535 325.249,97.0495 324.958,97.1395 L324.572,97.8245 C324.586,98.0385 324.669,99.2945 324.621,99.4745 C324.523,99.8435 323.954,101.5925 324.401,101.9335 C324.613,102.0185 324.864,102.0615 325.09,102.0585 L325.29,102.2215 L325.27,102.4805 C324.785,102.8865 325.206,103.7985 324.672,104.2295 L324.21,104.1045 C323.453,104.3515 324.045,105.9035 324.105,106.3595 C324.141,106.6365 324.032,106.9895 324.11,107.2915 C324.185,107.5845 324.461,107.8395 324.507,108.1745 C324.542,108.4305 324.478,108.7805 324.542,109.0235 C324.681,109.5505 324.962,110.1245 325.157,110.6375 C325.302,111.0175 324.66,111.9765 325.336,112.6915 L325.719,112.7655 C325.889,112.8925 326.058,113.1115 326.145,113.3045 C326.032,114.2225 326.115,114.5495 326.339,115.4205 C326.424,115.7525 326.729,116.0615 326.615,116.4545 C326.534,116.7325 326.349,116.9935 326.267,117.2715 C326.052,117.9995 326.211,119.3945 326.786,119.8855 C327.129,119.9435 327.761,120.2305 327.924,120.5705 L327.871,120.9955 C327.992,121.2105 328.33,121.4855 328.525,121.6265 L328.554,121.8095 L328.205,122.5865 C328.097,122.7075 327.824,122.7775 327.669,122.7655 L327.242,123.0965 L326.973,124.2375 C326.721,125.3075 328.076,126.4125 326.157,127.1365 C325.986,127.2015 325.328,127.5075 325.164,127.4235 L324.733,126.9255 L324.581,126.9235 C324.355,127.1515 323.733,127.7065 323.354,127.6345 C322.957,128.0125 322.719,128.0925 322.219,127.8685 L322.015,128.1605 L321.701,128.1885 C321.553,128.3215 321.435,128.6895 321.399,128.8755 C321.835,129.7975 322.156,130.4465 321.457,131.3765 C321.563,131.5975 321.864,131.6765 322,131.9045 C322.232,132.2925 322.216,132.8135 322.437,133.2435 C323.13,134.2315 323.733,135.2455 324.321,136.2725 C324.565,136.7005 323.592,138.1465 323.445,138.6545 C323.351,138.9765 323.376,139.2955 323.215,139.6245 C322.99,140.0845 322.199,140.7855 321.731,140.9465 C320.827,141.2585 320.217,140.2075 319.363,140.1225 C318.318,140.0205 316.956,141.2185 316.129,141.7375 C315.805,141.9405 315.303,141.7505 315.084,141.9115 C314.668,142.2165 314.034,142.5585 313.829,143.0645 L313.855,143.6115 C314.282,144.1485 315.266,146.3465 314.906,146.8085 C314.529,146.9215 314.145,147.0335 313.757,147.1025 L313.674,147.3045 C313.716,147.4965 314.126,150.5595 314.307,150.7295 C315.639,151.9905 317.614,150.3355 319.257,150.6445 L319.753,151.0165 C320.013,151.5335 319.636,152.3275 320.284,153.3075 C320.465,153.3355 320.7,153.4245 320.841,153.5435 C321.035,153.8795 321.179,154.5045 321.107,154.8925 C321.072,155.0765 320.923,155.2815 320.869,155.4675 C320.674,156.1325 320.655,156.8085 320.52,157.4795 C320.341,158.3685 319.967,159.3115 319.902,160.2165 C319.842,161.0455 320.24,162.1025 319.945,162.8585 C319.854,162.9755 318.426,164.5215 318.234,164.6885 C317.785,165.0795 317.271,165.4015 316.864,165.8415 L316.83,166.2455 C317.03,166.5375 317.343,166.9225 317.24,167.3015 C316.8,167.7965 317.046,168.3695 317.024,168.9195 C317.011,169.2205 316.775,169.7865 316.872,170.0815 C317.332,171.4705 318.856,170.7225 319.736,170.9135 C319.841,171.5085 319.581,172.1915 319.539,172.7845 C319.499,173.3645 320.048,173.5615 320.048,174.2665 C320.048,175.1195 319.583,176.6225 320.067,177.4035 C319.945,177.7455 319.171,179.4425 319.327,179.7565 L319.469,179.9195 C319.785,180.1315 320.563,180.0875 320.905,180.0115 L321.057,180.1135 C321.939,180.1925 324.041,179.3805 324.682,178.7625 L324.937,178.7735 C325.25,178.9225 325.52,180.1065 325.374,180.3965 C325.214,180.5865 324.685,181.1895 324.452,181.2805 L324.379,181.4925 C324.42,181.6075 324.489,181.7825 324.591,181.8585 L325.93,182.8495 C326.623,183.3615 327.531,183.0595 328.459,184.3125 C328.49,184.5695 328.509,184.8915 328.608,185.1335 C328.077,186.0685 327.286,192.3725 326.935,193.9795 C326.873,194.2605 326.822,194.5435 326.704,194.8075 C326.584,194.9035 326.434,194.9945 326.284,195.0375 L326.253,195.1485 C326.016,195.3195 325.063,195.2985 324.963,195.6255 C323.735,195.9825 323.145,195.4015 322.559,196.7555 C323.014,197.2185 322.894,198.4235 322.88,199.0545 L322.46,199.2745 C322.239,199.2585 322.004,199.1715 321.806,199.0755 C321.782,198.9845 321.7,198.8925 321.623,198.8415 L321.524,198.5065 L321.238,198.5045 C321.191,198.6565 320.845,198.8435 320.714,198.8965 C320.634,199.1915 320.128,200.8635 320.199,201.0585 L320.825,201.9225 C320.845,202.0335 320.868,202.3755 320.782,202.4695 C320.478,202.6095 320.148,202.7415 319.818,202.8065 C319.638,202.9325 319.404,203.6585 319.534,203.8255 C319.815,204.2315 320.543,204.2845 320.644,204.5535 C320.717,205.2195 320.178,206.0265 320.538,206.6265 C319.775,207.6365 318.326,208.3155 317.868,209.5315 C317.772,209.7865 317.914,210.0695 317.883,210.3415 C317.643,210.6965 317.361,211.0825 317.056,211.3885 C316.127,212.3185 315.214,213.3955 314.575,214.5565 C314.013,215.5775 313.06,218.1145 311.91,218.7245 C311.389,218.7445 310.822,218.6535 310.282,218.6585 C309.008,218.6715 308.529,218.5935 308.11,218.7185 C307.707,218.8385 307.361,219.1455 306.419,219.8995 C304.988,221.0465 304.869,220.9375 304.618,222.9595 L304.617,223.1015 C304.666,223.7505 304.939,224.2415 305.042,224.8545 C305.106,225.2365 305.096,225.8525 305.101,226.2635 C305.113,227.3395 305.055,228.4805 305.173,229.5525 C305.294,230.6565 306.382,233.2825 305.972,234.2655 C304.247,238.3965 304.142,238.4785 301.331,241.6375 C300.989,242.0225 300.485,242.3535 300.261,242.8205 C300.053,243.2535 299.982,243.6515 299.672,244.0595 C299.818,244.5415 301.086,245.0805 301.314,245.5225 L301.332,245.7855 C300.855,246.4095 300.727,246.3675 301.041,247.1395 C302.015,247.9085 301.934,248.0435 302.38,249.0845 C302.743,249.9315 304.615,251.4435 304.427,252.4935 C303.365,252.0825 303.586,251.4135 302.179,251.7635 C301.782,251.8625 301.332,252.1905 301.061,252.4715 C295.84,257.8435 290.878,263.5025 285.8,269.0105 C282.551,272.5335 279.282,276.0185 276.042,279.5305 C272.338,283.5485 268.631,287.5875 264.874,291.5595 C263.924,292.5635 262.996,293.5905 262.042,294.5895 L259.092,297.6785 C257.979,298.8445 256.737,299.6085 255.386,300.5005 Z" id="Stroke-3" stroke="#E75F52" stroke-linecap="round" stroke-linejoin="round"></path>
        </g>
    </g>
</svg>