<?xml version="1.0" encoding="UTF-8"?>
<svg width="311px" height="300px" viewBox="0 0 311 300" version="1.1" xmlns="http://www.w3.org/2000/svg" xmlns:xlink="http://www.w3.org/1999/xlink">
    <!-- Generator: Sketch 64 (93537) - https://sketch.com -->
    <title>126</title>
    <desc>Created with Sketch.</desc>
    <g id="126" stroke="none" stroke-width="1" fill="none" fill-rule="evenodd">
        <path d="M101.0022,4.592 L99.6172,6.716 L96.1562,8.998 L90.9632,9.649 L88.5402,11.6 L84.3872,10.95 L74.3482,8.51 L70.8852,9.975 L69.5012,13.223 L71.5782,15.167 L70.8852,17.43 L71.9252,19.526 L71.2332,21.618 L72.9632,22.743 L71.5782,27.069 L74.6932,29.305 L74.3482,31.218 L77.8102,32.173 L78.5022,35.19 L81.2702,35.19 L84.7332,37.409 L82.6562,39.464 L79.5402,40.096 L76.0782,43.72 L77.4632,46.705 L76.4252,49.681 L77.4632,51.088 L74.6932,52.805 L71.9252,57.008 L69.8482,59.026 L70.8852,60.73 L69.1562,62.278 L65.3482,63.669 L64.3092,67.984 L60.8482,73.662 L56.0012,76.26 L53.5782,80.984 L51.1552,83.87 L50.8092,85.386 L45.6162,86.446 L41.1162,88.11 L39.0392,85.689 L36.2702,84.78 L33.8472,87.052 L33.1552,89.168 L29.0002,93.689 L27.9622,97.746 L31.4242,100.292 L34.5392,100.74 L33.8472,106.71 L35.5772,109.683 L39.0392,109.683 L39.3842,112.502 L41.4622,115.611 L43.1932,120.481 L41.4622,124.891 L38.3472,124.598 L38.0002,123.276 L34.1922,124.45 L32.8072,125.918 L30.0392,125.625 L29.0002,124.745 L23.1152,125.038 L20.6922,124.598 L20.6922,128.117 L17.9232,127.97 L15.5002,129.288 L15.8462,131.189 L19.3072,134.546 L18.9622,135.275 L22.0772,137.894 L25.8842,139.784 L30.3842,140.8 L31.4242,139.638 L35.5772,138.331 L36.9622,138.766 L34.8842,142.685 L32.8072,142.975 L29.3472,144.857 L25.5382,145.725 L25.5382,144.423 L23.4622,144.133 L22.7702,145.581 L25.1922,148.759 L29.3472,152.507 L33.5002,157.393 L38.3472,160.834 L42.5012,161.835 L53.2322,156.82 L55.3092,152.219 L53.5782,149.336 L55.3092,147.749 L55.3092,146.158 L57.0392,146.158 L57.3852,151.499 L59.8092,151.931 L57.7322,154.952 L60.5012,158.397 L60.8482,163.98 L59.4632,166.264 L58.4242,170.824 L59.8092,175.938 L59.8092,179.48 L61.8852,188.655 L64.3092,196.522 L65.3482,205.332 L66.0402,208.957 L68.4632,212.575 L69.5012,215.631 L70.5402,216.186 L70.5402,218.821 L72.6172,221.73 L74.0022,222.56 L76.4252,229.468 L77.4632,231.26 L79.5402,240.75 L82.3102,247.194 L86.1172,252.256 L89.2332,258.127 L89.9252,261.398 L91.3102,263.85 L92.3482,267.93 L94.0792,269.696 L93.3872,270.783 L93.7332,273.905 L96.1562,279.464 L100.3102,284.743 L103.4252,287.178 L105.1562,287.584 L110.6942,284.743 L112.4262,278.922 L114.1562,277.567 L119.3492,275.94 L118.6562,274.041 L119.3492,272.141 L122.1182,268.338 L121.7712,267.25 L123.5032,265.754 L127.6572,266.163 L127.6572,257.581 L126.9632,253.486 L128.0032,249.111 L130.0802,245.824 L131.4652,242.672 L132.5032,235.941 L129.7342,233.326 L131.4652,231.949 L130.4262,226.984 L131.1182,223.944 L129.7342,219.514 L130.0802,216.602 L131.8112,212.853 L134.5802,210.906 L138.7342,211.183 L140.4652,209.792 L141.1572,206.448 L142.8882,205.751 L146.0032,206.448 L151.5422,203.797 L151.8882,201.561 L151.1952,199.323 L152.9272,197.503 L160.1962,193.576 L164.0042,189.078 L168.5042,186.824 L171.6192,183.156 L176.1192,177.214 L179.9282,173.95 L178.8892,173.099 L181.6582,170.113 L182.6962,171.819 L189.6202,170.113 L191.6972,167.263 L193.7732,166.264 L194.1202,164.409 L196.5432,162.408 L194.8132,157.107 L195.8502,155.526 L198.6202,153.226 L203.1202,152.219 L207.6202,149.048 L208.6592,153.226 L210.3902,152.507 L213.5052,153.226 L214.5442,152.219 L216.2742,152.65 L215.9282,149.336 L216.2742,147.171 L214.1972,138.476 L215.2362,136.293 L212.8132,135.711 L213.1592,133.233 L211.4282,131.335 L211.7742,129.142 L213.1592,128.41 L213.1592,124.598 L210.7352,124.304 L207.6202,122.393 L206.2352,120.922 L207.9672,117.679 L209.0052,118.564 L210.3902,115.315 L214.8902,115.315 L213.5052,111.761 L211.0822,111.761 L206.9282,107.454 L207.6202,104.922 L209.0052,104.325 L210.7352,101.638 L212.4672,101.937 L213.8512,104.027 L216.2742,102.385 L216.9672,105.071 L221.1212,106.858 L222.5052,104.773 L223.8902,107.156 L223.5442,113.095 L228.7362,115.462 L233.2362,115.611 L237.3912,115.019 L239.4682,115.758 L244.6602,115.167 L247.0832,118.122 L245.6992,123.423 L243.9682,123.716 L241.8912,125.918 L238.4282,126.652 L237.0442,128.703 L236.3512,131.774 L237.7362,134.983 L239.4682,136.293 L240.5062,138.476 L242.5832,137.167 L242.2362,135.275 L243.9682,132.942 L243.6212,131.335 L246.0442,130.458 L248.1212,135.129 L248.1212,138.621 L249.5062,141.38 L250.1992,148.759 L251.2372,147.026 L254.0062,148.614 L254.3522,146.448 L255.7372,146.593 L255.7372,144.568 L255.0452,140.509 L255.3912,138.185 L257.8142,136.876 L258.5062,128.117 L260.2372,127.531 L264.7372,129.288 L266.4682,124.304 L270.6222,116.792 L269.2372,114.576 L269.5832,112.947 L273.3922,109.238 L273.3922,107.304 L274.7772,105.965 L273.7372,103.878 L273.7372,101.339 L275.4692,99.244 L277.1992,99.094 L284.4692,92.937 L290.3542,92.034 L291.7382,91.28 L291.3922,89.016 L294.8542,85.992 L295.8922,85.992 L295.8922,82.504 L293.8142,80.832 L292.4302,81.288 L289.6612,78.397 L288.6222,75.955 L284.4692,69.828 L280.6612,70.135 L278.2372,72.436 L275.4692,72.896 L271.3142,72.13 L269.9292,70.442 L266.4682,72.896 L267.1602,73.662 L260.2372,77.481 L258.5062,77.481 L255.7372,79.462 L255.0452,80.832 L250.8912,83.718 L250.5452,85.84 L247.4282,87.203 L244.3142,87.808 L241.1992,87.505 L240.8512,89.772 L242.2362,91.28 L244.3142,90.677 L245.3522,92.485 L244.6602,93.991 L245.3522,96.395 L241.8912,97.895 L238.7762,97.145 L237.0442,97.895 L231.1592,98.045 L229.0822,96.846 L226.3132,98.494 L223.5442,98.944 L219.0442,97.295 L216.6212,97.595 L213.1592,94.141 L214.5442,92.335 L213.1592,89.772 L214.1972,86.597 L213.8512,84.931 L212.1202,83.718 L209.6972,85.084 L207.2742,85.386 L207.2742,86.446 L207.6202,87.354 L206.2352,90.375 L205.8902,94.592 L207.6202,98.494 L206.9282,101.638 L204.8502,101.489 L199.6582,102.684 L197.2352,101.787 L196.8902,100.292 L193.7732,102.086 L189.6202,99.843 L186.8502,99.393 L185.1202,100.292 L183.0432,97.295 L179.9282,98.494 L178.8892,97.295 L173.6962,95.343 L173.3502,92.184 L170.5812,91.582 L168.5042,90.224 L165.7342,91.732 L161.5812,90.677 L155.6962,90.375 L154.6572,88.11 L152.2342,88.413 L148.7722,85.84 L147.3882,86.446 L141.8492,83.566 L140.1182,80.832 L137.6952,79.919 L133.8882,77.481 L132.5032,78.09 L129.7342,75.649 L131.8112,70.442 L131.1182,69.368 L133.8882,65.058 L137.3492,61.35 L138.7342,60.73 L136.3112,58.56 L131.8112,56.542 L127.6572,52.181 L125.2342,52.337 L122.4632,50.307 L120.0412,46.862 L119.3492,48.116 L116.9262,47.959 L116.5792,45.921 L117.9632,44.821 L116.5792,43.091 L117.2712,40.885 L114.5032,37.883 L113.8112,34.397 L115.8872,33.921 L118.6562,36.458 L120.3882,36.141 L124.1952,33.127 L122.8112,29.464 L123.1562,27.069 L119.3492,25.468 L117.6182,22.743 L116.9262,16.622 L119.3492,15.005 L119.0032,13.223 L112.7712,9.813 L110.0022,2.626 L110.3492,0.493 L107.9262,0 L101.0022,4.592 Z M252.6212,236.216 L252.2762,240.888 L251.5832,241.3 L251.5832,245.688 L250.8912,248.974 L249.8522,250.341 L250.5452,253.349 L252.2762,250.615 L251.9292,248.564 L253.3142,247.332 L254.0062,244.18 L253.6602,238.965 L254.3522,239.102 L255.0452,236.904 L254.3522,233.877 L252.6212,236.216 Z M248.1212,261.262 L248.1212,263.577 L250.1992,263.168 L250.1992,261.125 L248.1212,261.262 Z M260.5832,296.36 L260.5832,297.978 L262.6602,300 L263.0072,297.978 L262.3142,295.955 L260.5832,296.36 Z" id="Fill-1" fill="#FFFFFF"></path>
        <g id="Group-5" transform="translate(79.000000, 59.000000)">
            <path d="M19.5007728,0 C30.2704791,0 39,8.72986684 39,19.5 C39,30.2701332 30.2704791,39 19.5007728,39 C8.73106646,39 0,30.2701332 0,19.5 C0,8.72986684 8.73106646,0 19.5007728,0 Z" id="Stroke-1" stroke="#E75F52"></path>
            <path d="M19.5,13 C23.0899976,13 26,15.910354 26,19.5007853 C26,23.089646 23.0899976,26 19.5,26 C15.9100024,26 13,23.089646 13,19.5007853 C13,15.910354 15.9100024,13 19.5,13" id="Fill-3" fill="#E75F52"></path>
        </g>
    </g>
</svg>