<?xml version="1.0" encoding="UTF-8"?>
<svg width="382px" height="284px" viewBox="0 0 382 284" version="1.1" xmlns="http://www.w3.org/2000/svg" xmlns:xlink="http://www.w3.org/1999/xlink">
    <!-- Generator: Sketch 64 (93537) - https://sketch.com -->
    <title>13</title>
    <desc>Created with Sketch.</desc>
    <g id="13" stroke="none" stroke-width="1" fill="none" fill-rule="evenodd">
        <polygon id="Path" fill="#FFFFFF" points="315.77305 194 313.501182 193.445293 311 191.447837 311.680851 191 316 193.333333"></polygon>
        <g id="Group-6">
            <polygon id="Fill-1" fill="#FFFFFF" points="310.0995 0.0001 307.5995 1.0001 304.2995 0.9001 297.2995 3.1001 295.2995 3.1001 291.4005 7.4001 289.9005 8.5001 290.0995 10.2001 292.3005 9.8001 294.4005 10.8001 293.7005 12.8001 294.5995 15.0001 293.2005 17.3001 290.5005 19.7001 288.2995 25.6001 285.2005 30.4001 285.5995 35.4001 283.7995 36.4991 281.0995 36.7001 278.1995 39.4001 275.4995 41.1001 271.2005 39.4001 268.7005 37.9001 263.4005 50.4001 263.4005 52.9001 261.5995 54.3001 261.8005 56.0001 263.5995 58.1001 266.0995 56.7001 269.9005 56.7001 272.7995 58.6001 273.9005 57.4001 275.4995 55.6001 278.1995 55.1001 280.4005 55.8001 281.7995 57.7001 283.7995 58.6001 284.3005 59.8991 287.8005 63.3001 289.2005 65.6001 289.2005 67.4001 287.8005 68.5001 285.5995 68.2001 282.2005 67.0001 281.5995 67.6001 278.5995 67.4001 275.3005 69.1001 273.2005 68.6001 272.7995 70.7001 269.5995 70.4001 268.2995 71.0001 265.7995 74.7001 265.5995 76.4001 262.2005 78.7991 258.0005 79.4001 255.5005 79.3001 254.5995 80.9001 252.2995 83.2991 249.9005 85.0001 246.5005 84.6001 243.4005 83.5001 242.4995 82.3001 239.7995 82.0001 237.9995 83.0001 235.9005 88.6001 238.5995 92.1001 239.0995 94.2991 237.0995 95.7001 233.0005 97.7991 229.5995 102.2001 225.1995 104.1001 223.7995 104.8991 219.5005 105.4001 215.7005 104.8991 207.0005 106.3001 201.2995 108.8001 197.4995 110.8001 195.9005 112.2001 192.7995 111.6001 192.7995 109.9001 187.9005 110.8001 183.7995 108.7001 177.3005 107.2001 174.7995 104.3001 172.3995 104.2001 164.7005 103.0001 161.2995 103.9991 147.2005 102.1001 142.0005 102.4001 141.5995 100.8001 139.1005 98.4001 136.6005 91.7001 135.5005 91.5001 135.9005 89.1001 133.7005 89.3001 129.4005 87.1001 128.5005 85.9001 126.7005 85.6001 124.2995 83.2001 119.5005 82.3991 117.7005 82.8001 114.7995 82.0001 112.5995 82.3001 109.3995 81.1001 107.9005 81.2001 106.2995 78.3001 106.7005 76.1001 108.5005 73.6001 107.9005 71.0001 108.8005 68.6001 107.3995 64.8001 105.2005 61.9001 104.4995 58.6001 102.5005 56.5001 100.7005 57.1001 99.5005 55.1001 96.3995 55.5001 93.5005 53.4001 93.2995 52.2001 89.3995 49.7001 88.4995 47.9001 88.7995 44.4001 85.5995 45.1001 82.8995 44.9001 81.8005 46.0001 81.9995 48.8001 80.9005 50.4001 78.3995 51.4001 75.9995 51.6001 74.4005 56.1001 75.2995 61.2001 74.2005 64.2001 72.3995 64.3991 69.7005 66.2991 69.0005 64.8001 64.2995 64.9001 59.4995 62.7001 58.5995 62.9001 58.4005 65.2001 54.1995 78.1001 56.2005 78.8991 55.9995 81.2001 54.1995 80.7991 52.1005 81.6001 50.7995 79.7991 45.1995 81.7001 40.2005 82.7001 39.1005 83.7001 39.7995 84.6001 41.3005 84.4001 42.0005 85.9001 42.0005 90.6001 44.2995 96.3001 43.7995 97.4001 44.7005 99.1001 42.2005 100.0001 43.3995 101.1001 41.3005 102.1001 40.6995 103.5001 41.5995 106.7001 41.1005 107.2001 41.1005 108.6001 38.8995 108.7001 38.2005 109.8001 35.4995 110.6001 29.7005 114.0001 27.9005 116.9001 24.0005 117.3001 21.1005 116.7001 19.8005 117.6001 17.8005 121.9001 16.3995 121.8001 14.4005 122.8991 12.9995 123.0001 12.4005 120.2991 9.9005 121.8001 7.6005 121.1001 6.7005 122.6001 4.6995 124.6001 2.5005 124.9001 1.2995 127.0001 1.9995 128.7001 0.1995 129.9001 0.0005 131.6001 1.2995 133.6001 0.5005 134.7991 1.0995 136.8001 2.7005 137.2991 3.1005 136.2001 4.5005 136.2001 7.2005 137.3991 7.3995 140.8991 8.4995 143.4001 8.1005 144.8001 9.7005 146.2991 8.1005 147.6001 7.0005 147.1001 4.6995 148.5001 5.7995 149.3001 10.8005 150.0991 11.2005 151.4011 13.6995 151.9001 14.7995 153.5991 15.1005 155.5001 14.2005 156.5991 16.0005 158.8001 18.3995 158.3001 19.8005 160.0001 23.7995 161.4011 26.1005 161.2001 27.6005 161.5001 27.3995 162.9001 29.2005 167.6001 33.3005 169.7991 33.4995 171.0001 31.8995 172.0001 32.4005 175.9991 33.4995 177.7991 36.0005 178.9001 35.7005 180.4001 36.6005 182.8001 34.2005 184.8001 33.0005 184.9991 31.2005 183.2991 29.8995 183.5991 30.2995 185.9001 32.1005 187.9001 31.6995 189.3001 32.5995 190.4001 31.6995 191.2001 31.8995 192.5001 33.4995 192.5991 33.9005 191.8001 35.4995 193.9991 37.2995 195.3001 38.8995 195.2001 41.5995 198.1001 44.4995 199.4001 46.0995 200.8001 47.4005 202.2001 49.8995 199.2001 53.0005 199.8001 53.2995 201.7001 55.7005 202.7001 57.5005 204.7001 59.4995 205.0001 61.7995 208.1001 62.7005 208.3001 63.9995 207.4001 65.4005 207.7001 66.2995 210.2001 69.0005 212.3001 70.6005 212.8001 72.0995 212.5001 71.7005 214.3001 74.7995 214.7991 76.4005 215.4011 77.3005 217.4001 80.0005 217.2001 80.7005 215.9001 83.7995 217.0001 84.5005 217.8001 88.1005 217.9001 88.7995 217.2001 90.6005 217.5991 90.6005 216.9001 92.0995 216.7001 93.6995 215.7991 94.7995 216.5991 95.1005 217.7001 94.4005 219.8001 95.3005 221.5001 96.3995 219.4001 99.5005 215.5991 101.2995 214.4011 103.7995 214.0991 106.1005 214.9001 106.4995 215.9001 109.2005 216.8001 110.2995 215.9001 112.5995 217.2001 112.5995 218.2991 114.5995 218.5001 116.6005 218.1001 118.6005 217.2001 118.8995 215.7991 121.5995 214.0001 122.0005 213.0991 123.7995 211.8001 124.9005 211.8001 129.4005 209.2991 128.9995 208.8001 131.2005 207.2001 132.1005 208.3001 134.8005 208.8001 136.6005 208.5001 138.2005 207.0001 140.7005 206.7991 143.3995 210.8001 144.0005 212.4001 145.8005 214.2001 146.7005 214.0001 148.1005 215.0001 149.4005 212.8001 151.4995 214.0001 153.0005 215.5001 152.8005 216.8001 154.0995 219.9011 154.8005 218.8001 156.4005 219.5991 156.4005 222.4001 156.7995 223.3001 156.7995 226.3001 155.7005 229.9991 156.6005 231.5001 155.5005 231.7991 154.3995 233.7001 153.0005 233.4011 152.8005 234.9001 150.3005 237.9011 150.7995 238.7001 149.4005 239.4001 149.2005 241.6001 149.8995 241.5001 150.3005 243.7001 149.2005 244.9001 149.8995 245.5001 153.2995 243.8001 155.2995 243.7001 156.4005 244.7001 156.4005 246.0001 157.5005 247.2001 157.5005 250.2001 158.8995 250.7001 161.6005 251.0001 160.3995 253.1001 160.7005 254.8001 159.3005 257.2001 163.6005 258.0991 164.2995 257.9001 164.5005 260.0991 167.5995 261.9001 169.2005 261.4991 170.1005 260.4011 171.7005 259.7991 171.9005 261.2001 172.6005 263.7001 174.1005 263.2991 175.5005 264.0001 175.6995 259.4011 174.7995 258.4001 174.1005 256.6001 175.5005 254.8001 178.0005 255.5001 178.6005 255.4001 180.0005 253.0001 182.5005 254.2001 183.4005 255.2001 185.4005 252.8001 186.7005 254.2001 187.3995 252.7001 189.7005 254.5991 189.9005 253.3001 190.9995 252.4991 191.8995 253.5001 194.7995 251.9001 195.0005 250.3001 198.0005 249.2001 201.2995 252.1001 202.2005 251.5991 204.0005 252.3001 205.2005 251.9001 206.7005 253.1001 205.4005 255.2991 206.2995 256.7001 206.2995 258.2001 207.5995 258.4001 210.5005 260.9001 213.7005 260.5991 214.5995 261.7001 216.5995 260.2001 217.5005 260.5001 218.2005 259.4011 219.2995 260.5001 221.7995 260.7991 221.7995 262.2001 224.2995 261.5991 225.8005 262.5001 225.1995 264.1001 224.9005 265.4001 225.5995 266.0991 226.0995 268.0991 227.2005 268.7991 227.9005 270.0001 229.5995 269.5991 230.4995 268.4011 229.2005 267.0991 229.4005 266.0991 228.0995 265.9991 228.0995 265.0991 229.9005 263.2991 231.0005 263.4001 234.5995 261.3001 237.2995 261.4001 240.9005 259.3001 241.0995 260.2001 242.4995 259.3001 243.4005 259.7001 246.0995 257.8001 247.2005 257.9001 247.5995 256.9991 249.0005 257.2001 249.7005 255.7001 249.7005 254.2001 248.0995 252.2001 249.7005 251.9001 251.4005 254.9011 252.5995 254.5991 253.5005 254.4001 256.5995 252.8001 256.7995 254.1001 259.7995 252.4991 260.7005 253.5001 261.9995 252.2001 263.4005 252.7001 265.2005 252.4991 266.4995 251.7001 267.5995 251.7991 268.2995 249.9001 269.4005 249.4001 270.0995 247.2001 272.2995 246.9011 272.5995 246.2001 276.4005 244.3001 276.5995 243.1001 277.7005 242.7001 278.4005 240.7991 279.8005 240.2001 280.7005 240.6001 281.7995 239.4001 281.5995 238.7001 283.0995 236.1001 285.2005 236.4001 284.9005 235.3001 284.0005 234.7001 287.4005 232.4011 287.8005 230.7001 286.9005 230.4001 287.5995 228.2001 288.5005 227.2991 287.4005 225.1001 288.5005 225.1001 288.9995 226.1001 290.5005 226.2001 291.4005 222.7991 293.0005 222.2001 293.4995 219.5991 296.8005 215.0001 298.2005 214.9001 300.2005 214.0991 299.0995 211.9001 300.2005 210.1001 299.9995 208.2001 301.7995 208.1001 301.7995 204.9001 302.2005 203.6001 300.2005 202.2001 298.4005 199.9001 296.8005 199.8001 295.2995 201.0001 294.5995 200.1001 295.9005 198.3001 298.5995 196.7001 302.0005 195.6001 300.4005 192.9011 297.9995 191.2991 296.8005 189.9001 295.9005 188.9001 297.7005 188.4011 301.0995 189.8001 301.7995 189.4001 301.0995 188.0001 298.9005 186.7001 298.4005 184.7001 295.0005 182.5991 295.2995 180.0001 292.3005 173.5991 291.4005 170.2001 287.5995 168.4001 286.2995 166.9991 284.4995 166.6001 284.4995 164.5991 285.7995 164.2991 286.2995 162.4991 287.5995 160.5001 289.2005 160.2001 290.0995 158.5001 291.2005 157.5001 290.2995 155.7001 292.0995 155.8001 291.9005 157.0001 294.0995 156.1001 293.7005 154.8001 294.4005 153.7001 297.0995 152.0991 302.4995 149.6001 304.2995 150.9001 305.5995 149.9001 304.9005 148.2991 305.5995 147.0001 303.0995 145.6001 299.7995 146.1001 298.2005 144.8001 294.4005 142.9001 291.6995 144.1001 290.9995 145.3991 288.9995 146.6001 288.2995 148.2991 286.2995 148.5001 283.0995 147.2991 283.0995 144.7001 284.0005 142.7991 282.2005 140.3001 280.4005 141.0001 277.4995 140.4001 275.3005 138.6001 274.0995 136.5001 275.3005 132.7001 277.2995 131.7001 279.2995 133.3001 280.9005 132.3001 283.4005 131.8991 285.2005 130.0001 285.5995 127.8001 286.9005 126.3001 292.5995 123.7991 293.7005 121.5001 295.7005 119.7001 295.9005 118.5001 298.2005 117.7001 299.5005 118.5001 302.4995 119.2991 304.0005 121.2001 301.5995 125.5001 299.2995 126.4991 299.2995 128.2001 297.9995 128.7001 299.5005 130.6001 300.2005 132.7991 297.2995 134.0001 297.0995 135.8001 299.0995 135.1001 299.9995 133.5001 301.3005 134.0001 304.7005 130.2001 310.0995 127.3001 315.5005 126.7001 317.0995 124.6001 320.2005 121.4001 324.2995 119.3991 325.8005 118.1001 327.2005 118.0001 329.9005 114.2001 331.0005 111.6001 333.0005 110.5001 334.0995 112.7001 337.5005 113.5001 339.3005 113.3001 340.9005 113.7001 341.5995 112.2001 340.0005 109.8001 340.0005 108.8001 345.4005 108.6001 347.2005 106.9001 347.4005 105.5001 350.2995 105.0001 351.4005 100.3001 353.6995 101.1001 353.6995 102.4001 355.5005 104.2001 354.7995 102.5001 357.0995 101.3991 358.4005 101.6001 360.1995 96.8991 359.4995 95.7001 360.0005 91.1001 358.9005 85.6001 358.0005 84.1001 361.0995 83.2001 363.6005 79.7991 364.6995 80.7001 365.7995 79.7991 369.1995 80.6001 369.9005 82.3001 371.6995 81.7001 371.6995 78.8991 373.5005 77.6001 375.3005 72.6001 376.5995 71.4001 376.1995 69.5001 377.1005 68.1001 378.1995 62.4001 380.2005 60.7001 381.9995 58.1001 380.6995 55.0001 381.6005 53.0001 379.5005 51.7991 375.4995 53.1001 373.6995 54.6001 371.4005 54.4001 369.0005 55.9001 367.7995 58.1001 361.9995 58.5001 361.0995 57.8001 358.5995 58.4001 356.4005 55.0001 357.3005 52.2001 355.5005 49.5001 356.4005 47.2001 353.6995 47.2001 351.7005 45.6001 350.2995 43.3001 346.5005 42.5001 344.5005 41.3001 344.6995 40.4001 340.1995 40.8001 338.5995 40.2001 336.6005 37.9001 337.0995 34.1001 335.5005 33.0001 335.2995 28.9001 333.0005 25.7001 333.1995 23.4001 332.1005 22.2001 330.0995 16.5001 330.4995 14.8001 328.5005 10.9001 324.9005 5.4001 321.7995 3.8001 319.3005 4.4001 316.2005 2.1001 312.3005 0.1001"></polygon>
            <polygon id="Fill-2" fill="#FFFFFF" points="315.7998 200 313.4998 199.4 310.9998 197.4 311.6998 197 315.9998 199.3"></polygon>
            <polygon id="Fill-3" fill="#FFFFFF" points="230.4999 272.2006 229.0999 271.5996 227.7999 271.5996 226.9009 272.4006 224.9999 271.9996 223.4999 273.0996 222.2999 272.5996 221.3999 274.4006 220.4999 274.6996 217.9999 277.2996 218.6999 281.9996 221.3999 283.4996 223.1999 283.4006 224.0999 283.9996 225.2999 283.5996 225.2999 282.6996 227.0999 282.7996 228.2009 281.0996 229.5999 280.7996 230.9999 276.2006 232.9999 274.0996 232.7989 272.0996 231.1999 270.9996"></polygon>
            <polygon id="Stroke-4" stroke="#E75F52" stroke-linecap="round" stroke-linejoin="round" points="231.2002 271 232.8002 272.1 233.0002 274.1 231.0002 276.2 229.5992 280.8 228.2002 281.1 227.0992 282.8 225.3002 282.7 225.3002 283.6 224.0992 284 223.2002 283.4 221.4002 283.5 218.7002 282 218.0002 277.3 220.5002 274.7 221.4002 274.4 222.3002 272.6 223.5002 273.1 225.0002 272 226.9002 272.4 227.8002 271.6 229.0992 271.6 230.5002 272.2"></polygon>
        </g>
    </g>
</svg>