<?xml version="1.0" encoding="UTF-8"?>
<svg width="412px" height="300px" viewBox="0 0 412 300" version="1.1" xmlns="http://www.w3.org/2000/svg" xmlns:xlink="http://www.w3.org/1999/xlink">
    <!-- Generator: Sketch 64 (93537) - https://sketch.com -->
    <title>137</title>
    <desc>Created with Sketch.</desc>
    <defs>
        <polygon id="path-1" points="0.4632 0.446 27.041 0.446 27.041 42.724 0.4632 42.724"></polygon>
    </defs>
    <g id="137" stroke="none" stroke-width="1" fill="none" fill-rule="evenodd">
        <g id="Group-106" transform="translate(14.000000, 28.000000)">
            <path d="M131.848,228.6747 L132.52,228.1367 L133.931,228.8087 L137.089,230.2857 L138.5,231.1597 L139.172,232.1687 L139.978,233.9827 L141.658,235.0577 L141.524,235.5957 L139.911,236.9397 L138.164,237.5447 L137.559,237.2757 L136.282,238.0147 L135.274,239.3587 L134.333,240.5687 L133.594,240.5017 L132.116,239.4267 L131.982,237.5447 L132.251,236.5357 L131.579,234.1847 L130.705,233.4457 L130.638,232.3697 L131.579,231.9677 L132.453,230.6907 L132.655,230.2867 L131.983,229.5487 L131.848,228.6747 Z M124.926,222.2237 L125.867,221.0137 L127.816,222.0217 L129.63,222.4907 L131.444,223.6337 L131.444,224.4397 L129.966,225.1787 L127.95,225.5817 L126.942,224.9767 L124.926,222.2237 Z M122.037,222.6937 L122.843,224.3067 L124.12,223.8367 L124.254,223.1637 L123.582,222.2907 L122.036,222.1557 L122.037,222.6937 Z M119.819,220.5437 L120.357,219.7367 L122.306,220.1407 L122.575,219.9387 L125.129,220.2077 L124.995,220.7447 L123.92,221.3507 L122.106,221.2167 L119.819,220.5437 Z M111.419,216.8477 L112.965,219.1327 L113.973,218.9987 L114.443,218.7967 L115.048,219.3347 L116.594,219.2677 L116.997,218.6617 L115.787,217.9237 L114.981,216.3777 L114.107,214.8997 L111.688,216.1097 L111.419,216.8477 Z M98.651,212.6807 L101.205,213.7557 L102.079,213.6207 L102.751,212.0087 L102.482,210.5977 L100.735,210.3957 L99.055,211.1347 L98.651,212.6807 Z M94.417,214.2267 L95.223,212.7487 L96.164,212.6137 L96.298,212.9497 L95.424,214.2277 L94.417,214.2267 Z" id="Fill-1" fill="#FFFFFF"></path>
            <g id="Group-105" transform="translate(0.000000, 0.123000)">
                <path d="M287.2816,131.5146 L265.7116,133.5976 L259.1596,134.3366 L257.2386,134.5496 L255.6316,134.5366 L255.6316,136.1506 L252.1366,136.3526 L249.2466,136.6206 L244.6356,136.6436 L244.5246,139.0696 L243.6356,141.6786 L243.2216,142.9326 L242.6606,144.7536 L242.5266,145.8276 L240.8466,146.7696 L241.4516,148.2466 L241.0496,150.0616 L240.4106,150.7676 L243.8046,150.7336 L253.8176,149.9276 L256.0356,149.8606 L259.3956,149.6586 L270.9536,148.5826 L275.1816,148.2466 L278.6816,147.8446 L282.1766,147.3736 L284.1916,147.0376 L284.3256,145.0226 L285.0646,144.4166 L286.2066,144.1486 L286.4756,142.6026 L288.2226,141.4606 L289.8366,140.8556 L291.5836,139.3776 L293.3966,138.5036 L293.6656,137.2266 L295.2786,135.6136 L295.5486,135.5466 C295.5486,135.5466 295.5486,136.0166 295.8846,136.0166 C296.2196,136.0166 296.6896,136.1506 296.6896,136.1506 L297.6316,134.6726 L298.5056,134.4036 L299.4456,134.5366 L300.1176,133.0596 L301.3276,131.9846 L301.5296,131.1106 L301.6026,129.4756 L300.6556,129.4966 L299.6476,130.3036 L296.3546,130.3696 L291.3686,131.1606 L287.2816,131.5146 Z" id="Fill-2" fill="#FFFFFF"></path>
                <polygon id="Fill-4" fill="#FFFFFF" points="363.8988 57.6254 364.0238 56.9894 364.4768 55.6214 363.4198 55.2414 363.2178 53.9644 361.6048 53.4944 361.4708 52.3524 358.4468 42.6084 356.5338 36.5634 356.1608 36.5614 355.8918 37.2334 355.6228 37.0314 355.2198 36.6284 354.6148 37.4344 354.2168 39.7144 354.3468 42.0704 355.1528 43.2124 355.1528 44.8924 353.6068 46.5724 352.5318 47.0424 352.5318 47.5124 353.0018 48.2514 353.0018 51.8134 352.6658 55.6434 352.5988 57.6594 353.0028 58.1974 352.9348 60.0794 352.7328 60.8184 353.3378 61.6584 360.5278 59.9444 361.4688 59.6754 362.3428 58.3314"></polygon>
                <path d="M312.4896,98.8154 L312.9516,100.8704 L313.3546,103.2224 L313.4886,103.0884 L314.3626,102.0804 L315.3036,100.8034 L316.3116,100.7364 L316.9176,100.1314 L317.6556,99.0564 L318.1936,99.3254 L319.4036,99.1914 L320.4786,98.3174 L321.3126,97.7134 L322.0796,97.5114 L322.7636,97.9814 L323.9736,98.5864 L324.7796,99.3254 L325.3506,99.8634 L324.9136,101.9464 L322.5616,100.6694 L320.6796,99.9304 L320.6126,102.1484 L320.4106,103.0224 L319.7386,104.1644 L319.4696,104.8364 L318.1926,105.8444 L317.9906,106.7854 L316.5796,106.9194 L316.4456,108.1964 L315.9756,110.4814 L314.9006,110.4814 L314.3626,110.1454 L313.6906,109.0034 L312.9516,109.0704 L312.8176,110.8844 L311.9436,113.6394 L309.8606,118.1414 L310.1966,118.6794 L310.1306,119.8214 L309.2566,120.6274 L308.6506,120.4934 L307.3066,121.5024 L306.2316,121.0984 L305.4926,123.0474 C305.4926,123.0474 303.9466,123.3834 303.6786,123.4504 C303.4096,123.5174 302.6716,122.9124 302.6716,122.9124 L301.6626,123.8534 L300.5886,124.1224 L299.3786,123.7864 L298.8406,123.2484 L297.9286,121.9914 L296.6226,121.1654 L295.5486,120.0234 L294.3386,118.4774 L294.0686,117.5364 L292.9936,116.9314 L292.6576,116.2594 L292.5566,114.0754 L293.4646,114.0414 L294.2696,113.7054 L294.3376,112.5634 L295.0096,111.9584 L295.0756,109.8754 L295.4786,108.2624 L296.0166,107.9934 L296.5546,108.4634 L296.7576,109.2024 L297.4956,108.7994 L297.6976,108.1274 L297.2276,107.3884 L297.2276,106.3804 L297.6316,105.8424 L298.5716,104.4314 L299.1096,103.8264 L299.9836,104.0284 L300.9256,103.3564 L302.2016,101.9454 L303.1426,100.3324 L303.2766,97.9804 L303.4786,95.8974 L303.4786,93.9484 L303.0096,92.6714 L303.4116,92.0664 L303.9456,91.5284 L305.3966,99.7704 L307.3216,99.4584 L312.4896,98.8154 Z" id="Fill-6" fill="#FFFFFF"></path>
                <polygon id="Fill-8" fill="#FFFFFF" points="146.1229 49.2607 146.4589 44.4257 147.3979 34.0557 147.9679 27.7837 148.4919 21.8677 135.2069 20.5007 123.0439 19.0227 110.8809 17.3427 97.4409 15.1247 89.7799 13.7137 76.1769 10.8317 74.3149 19.7057 75.7409 22.8417 75.1709 24.7427 75.9309 26.6437 77.2609 27.2137 78.7819 31.4907 80.3029 33.0117 80.4929 33.4867 81.9189 33.9617 82.1089 34.8167 79.1629 42.1347 79.1629 43.1797 80.2079 44.5097 80.5879 44.5097 82.5839 43.2747 82.8689 42.7997 83.5339 43.0847 83.4389 45.2707 84.5789 50.4977 85.8139 51.5427 86.1939 51.8277 86.9539 52.7777 86.7639 54.2037 87.0489 55.6297 87.5239 56.0097 88.4739 55.0597 89.6139 55.0597 90.9439 55.7247 91.9889 55.3447 93.6999 55.3447 95.2209 56.0097 96.3609 55.8197 96.5509 54.5847 97.7859 54.2997 98.3559 54.8697 98.5459 56.1997 99.6189 57.2337 100.2559 52.4927 108.5239 53.7277 120.3079 55.4387 127.0559 56.2937 140.3949 57.6637 145.1639 58.1637 145.8679 51.5507"></polygon>
                <polygon id="Fill-10" fill="#FFFFFF" points="54.785 159.3125 53.693 160.2095 53.559 160.8145 53.761 161.2175 61.623 165.6525 66.663 168.8105 72.778 172.3725 79.767 176.5385 84.874 177.5465 95.986 179.0045 96.838 173.4715 98.398 162.2805 101.293 140.1655 103.063 127.3605 92.372 125.7645 81.063 123.8635 67.167 121.2375 65.952 128.7585 65.762 128.9485 65.049 130.0415 64.004 129.9935 63.481 128.8535 62.341 128.7105 61.961 128.2355 61.581 128.2355 61.201 128.4735 60.393 128.9015 60.345 131.8005 60.25 132.5135 60.012 137.7405 59.394 138.6435 59.156 140.0215 60.296 142.0645 60.819 144.4875 61.152 144.9155 61.58 145.1535 61.532 146.1035 60.867 146.6735 59.441 147.3865 58.633 148.1945 58.015 149.7155 57.777 151.7585 56.589 152.8985 55.734 153.1835 55.686 155.6065 55.496 156.3195 55.686 156.6525 57.207 156.8905 56.969 158.0305 56.351 158.9335"></polygon>
                <polyline id="Fill-12" fill="#FFFFFF" points="199.2865 100.7705 199.8565 101.8155 199.7625 102.7655 200.8075 104.3815 202.1385 106.0925 199.5715 106.0925 181.2295 105.9025 164.4095 105.3325 155.3325 104.9995 156.0455 95.7335 142.1705 94.5935 143.9765 76.2995 150.4385 76.7275 158.8025 77.2025 166.2145 77.6775 176.0995 78.1525 180.5655 77.9625 181.4205 78.9125 183.4165 80.1475 183.8915 80.5275 185.6985 79.9575 187.3135 79.7675 188.4535 79.6725 189.2135 80.2425 191.3055 80.9075 192.5395 81.5725 192.7295 82.2375 193.1095 83.0925 193.8695 83.0925 194.5345 83.0445 195.0105 85.2775 196.1495 88.4135 196.5295 90.4095 197.4795 91.9305 197.7655 94.1165 198.4305 95.8275 198.5245 98.5835 199.3295 100.8705"></polyline>
                <polygon id="Fill-14" fill="#FFFFFF" points="252.4115 80.7172 252.4725 78.9642 251.8005 77.0822 251.5305 74.5282 251.0605 73.5202 251.4645 72.2432 251.8005 71.0332 252.4045 69.9582 252.1365 68.5472 251.8665 67.0692 252.0685 66.3302 252.8745 65.3222 252.9415 64.1802 252.6055 63.6422 252.8745 62.5672 253.0765 61.2232 254.2195 58.8712 255.4295 56.0492 255.4955 55.1082 255.3615 54.7052 255.0255 54.9072 253.2785 57.5282 252.1375 59.2082 251.3305 59.9472 250.9945 60.8882 250.3905 61.2242 249.9205 62.0302 249.3145 61.8962 249.2475 61.1572 249.7855 60.1492 250.6595 58.2002 251.3985 57.5282 251.8565 56.5752 251.1795 56.1992 250.6085 55.6292 249.9435 51.3522 248.4235 50.8772 247.8525 49.9272 242.6255 48.7872 241.5805 48.3122 238.1595 47.3622 234.7385 46.8872 233.0065 44.6402 232.7855 45.1642 232.3155 45.0972 232.0475 44.6272 230.9045 44.2912 230.4345 44.3582 229.6955 44.7612 229.2925 44.4922 229.5615 43.6862 230.3675 42.4092 230.8385 41.9392 230.0315 41.3342 229.1575 41.6702 227.9475 42.4762 224.8565 43.8202 223.6465 44.0892 222.4365 43.8872 222.0285 43.5222 221.1485 44.7012 221.0545 45.8412 221.0545 49.3572 220.5785 50.0222 218.3925 51.6382 217.4425 54.1092 217.6335 54.2042 218.6785 55.0592 218.9635 56.3892 218.2025 57.7192 218.2025 59.3352 218.3925 62.0912 219.6285 63.3262 221.0545 63.3262 221.8135 64.6572 223.2395 64.8472 224.8555 67.2232 227.8025 68.9342 228.6565 70.0742 229.0365 73.1632 229.3215 74.5412 230.2715 75.2062 230.3665 75.7762 229.5125 77.2022 229.6065 78.5322 230.6515 80.1482 231.6965 80.6232 232.9325 80.8132 233.4425 81.8582 237.2565 81.8582 248.3275 81.1932"></polygon>
                <polygon id="Fill-16" fill="#FFFFFF" points="153.5506 132.3222 149.1076 132.1332 146.4346 131.9302 146.5416 132.0132 146.3156 136.8122 155.3796 137.2632 168.3046 137.7382 167.7346 147.6222 167.5446 155.0352 167.6396 155.7002 169.4456 157.2212 170.3006 157.6962 170.5856 157.6012 170.8706 156.7462 171.4406 157.5072 172.2956 157.5072 172.2956 156.9362 173.4356 157.5072 173.2456 159.1222 174.9566 159.2182 176.0016 159.6922 177.7126 159.9772 178.7576 160.7372 179.7076 159.8832 181.1336 160.1682 182.1786 161.5932 182.5586 161.5932 182.5586 162.5442 183.5086 162.8282 184.4586 161.8792 185.2186 162.1632 186.2636 162.1632 186.6436 163.2092 188.6396 163.9682 189.2096 163.6832 189.9696 161.9722 190.4446 161.9722 190.9196 162.8272 192.6316 163.1122 194.1516 163.6822 195.3866 164.0622 196.1466 163.6822 196.4316 162.6372 198.2376 162.6372 199.0926 163.0172 200.2326 162.1622 200.7076 162.1622 200.9926 162.8272 202.7036 162.8272 203.3686 161.9722 204.1296 162.1622 204.9836 163.2072 206.3136 163.9682 207.6446 164.3472 208.7846 165.0122 208.6896 149.1412 208.1196 144.5792 208.1196 141.1582 207.4546 138.3072 207.2646 135.4562 207.1706 133.6032 201.6576 133.9362 182.3656 133.7462 163.6436 132.8912"></polygon>
                <path d="M248.3714,194.8515 L247.8504,193.9055 L247.3744,192.2885 L245.9484,190.9595 L246.4244,187.8235 L246.1394,187.4435 L245.3794,187.5385 L241.9574,187.8235 L231.8844,188.1085 L231.6934,187.4435 L231.9784,184.1175 L233.4044,181.5515 L235.5914,177.7505 L235.2114,176.8955 L235.6854,176.8955 L235.9714,175.5655 L235.0204,174.8055 L235.1154,174.0455 L234.2614,172.1445 L234.1174,169.8635 L229.6034,169.8635 L221.6204,170.2435 L212.3914,170.2555 L212.4024,174.2355 L212.6874,178.1315 L212.9734,179.7475 L214.0174,181.4585 L214.3974,183.5495 L216.2034,185.8305 L216.2994,187.1615 L216.5844,187.4465 L216.2994,190.9625 L215.0634,193.0535 L215.7284,193.9085 L215.4434,194.9535 L215.1584,197.9945 L214.5894,199.3245 L214.6404,200.8275 L216.5884,200.1955 L219.9474,200.0615 L224.2484,201.5385 L226.9364,202.0095 L228.4824,201.4045 L229.8264,201.8745 L231.1714,202.2775 L231.5074,201.4035 L230.1624,200.9335 L229.0884,201.1355 L227.9454,200.4635 C227.9454,200.4635 228.0134,199.9255 228.2814,199.8585 C228.5514,199.7915 229.5594,199.4555 229.5594,199.4555 L230.2984,200.0605 L231.0364,199.6575 L232.3814,199.9265 L232.9854,200.9345 L233.1194,201.8755 L235.0024,202.0095 L235.7404,202.7475 L235.4044,203.4205 L234.8664,203.7565 L235.5384,204.4285 L239.0324,205.9065 L240.5114,205.3685 L240.9134,204.3605 L241.9884,204.0915 L242.7274,203.4865 L243.2664,203.8895 L243.6014,205.0995 L242.6604,205.4355 L242.9304,205.7045 L244.3414,205.1665 L245.2814,203.7555 L245.6174,203.5535 L244.7434,203.4195 L245.0794,202.7475 L245.0134,202.1425 L245.8874,201.9405 L246.3564,201.4025 L246.6254,201.7385 C246.6254,201.7385 246.5594,203.0155 246.8944,203.0155 C247.2304,203.0155 248.6424,203.2845 248.6424,203.2845 L250.3214,204.0905 L250.7254,204.6955 L251.9344,204.6955 L252.4044,205.0985 L253.3464,203.8215 L253.3464,203.2165 L252.8084,203.2165 L251.3964,202.0745 L248.9774,201.7385 L247.6344,200.7975 L248.1034,199.6555 L249.0454,199.7895 L249.1114,199.5205 L248.3724,199.1175 L248.3724,198.9155 L249.7174,198.9155 L250.4554,197.6385 L249.9174,196.8325 L249.7834,195.6905 L249.1794,195.7575 L248.3724,196.6315 L248.1034,197.7065 L246.8264,197.4375 L246.4244,196.6985 L247.1624,195.8925 L248.0034,195.1535 L248.3714,194.8515 Z" id="Fill-18" fill="#FFFFFF"></path>
                <polygon id="Fill-20" fill="#FFFFFF" points="284.1898 147.0371 282.1738 147.3731 278.6798 147.8441 275.1178 148.2141 275.1178 149.1201 275.1848 149.9941 275.4538 151.4051 276.8648 154.6981 277.8728 158.7981 278.4778 161.3511 279.1498 163.3671 279.7548 166.2581 280.6288 168.8791 281.7038 170.2891 281.9058 171.7001 282.7118 172.0361 282.7788 172.9101 282.0398 174.9271 281.8378 176.2701 281.7708 177.0761 282.4428 178.8911 282.5768 181.1081 282.2408 182.1161 282.5098 182.4521 283.1148 182.7881 283.3838 184.1991 284.4598 185.8121 285.0638 186.4171 288.3568 186.4841 292.8548 186.2161 301.7968 185.6781 304.0608 185.3971 305.9638 185.4091 306.0308 186.6191 307.1058 186.9551 307.2398 185.1411 306.5678 183.2601 307.0388 182.5881 309.4578 182.9241 311.5258 183.0561 311.2038 180.4371 312.1448 176.2711 312.7508 174.5241 312.5478 173.4491 314.2278 170.5591 313.9788 169.8881 313.2198 170.2901 312.1448 169.7531 311.8768 168.8791 311.3378 167.4001 310.3968 166.5261 309.3218 166.2581 308.6498 164.2411 307.5078 161.7561 305.7608 160.9491 304.8868 160.1431 304.3488 159.0681 303.4748 158.2631 302.5338 157.7251 301.5928 156.5151 300.3158 155.5731 298.4338 154.8351 298.2318 154.2291 297.2238 153.0191 297.0218 152.4141 295.6108 150.2651 294.1998 150.3321 292.5198 149.3231 291.9818 148.7851 291.8478 148.0471 292.1838 147.2401 293.1248 146.8381 293.0578 145.8891 292.3188 146.0991 289.8998 146.5021 287.0098 146.8381"></polygon>
                <polygon id="Fill-22" fill="#FFFFFF" points="361.0667 72.9834 360.6647 71.2354 360.3287 69.4214 359.6567 66.9354 357.5067 67.4054 348.4347 69.3874 348.7037 70.7654 349.3087 73.7894 349.3087 77.1494 348.8387 78.0904 349.6007 78.9674 351.6607 77.5534 353.1387 76.2094 353.9447 75.3354 354.2807 75.6044 355.4227 74.9994 357.5727 74.5294"></polygon>
                <polygon id="Fill-24" fill="#FFFFFF" points="348.3665 62.7016 348.0305 60.3496 346.7545 55.7796 346.4845 55.6456 345.2745 55.1076 345.6105 53.8976 345.2745 53.0236 344.1995 51.1416 344.6025 49.5286 344.2665 47.3786 343.2595 44.6906 342.9245 42.6446 354.2125 39.6506 354.3465 42.0696 355.1525 43.2116 355.1525 44.8916 353.6065 46.5716 352.5315 47.0416 352.5315 47.5116 353.0025 48.2506 353.0025 51.8126 352.6655 55.6426 352.5985 57.6586 353.0025 58.1966 352.9345 60.0786 352.7325 60.8176 353.3385 61.6576 350.4475 62.2286"></polygon>
                <polygon id="Fill-26" fill="#FFFFFF" points="339.9671 92.6054 340.4371 92.3364 341.3781 91.7984 341.9831 90.6564 342.6551 89.7154 343.9991 88.4384 343.9991 88.1024 342.9901 87.4304 341.5131 86.4224 341.1101 85.3474 339.9681 85.2134 339.9011 84.7434 339.5651 83.6014 340.5061 83.1314 340.5721 82.1234 340.0341 81.5854 340.1021 80.9134 340.9071 79.6364 340.9071 78.3594 341.8821 77.3514 341.3111 76.9484 340.2361 76.8814 339.2951 76.0754 338.2861 73.8574 337.0371 73.4704 336.0691 72.5804 328.3411 74.2604 310.4661 77.8894 306.7701 78.4944 306.5641 75.5494 304.2821 77.8894 303.7441 78.0914 301.9971 79.3424 303.2071 87.2974 303.9081 91.7664 305.3941 99.7734 307.3191 99.4614 312.2831 98.8364 328.0501 95.6504 334.2341 94.4764 337.6841 93.8024 338.2201 93.2784 339.0941 92.6064"></polygon>
                <polygon id="Fill-28" fill="#FFFFFF" points="297.9857 122.0791 296.6897 123.3841 294.9427 124.8611 293.0607 127.0791 292.3217 127.8181 292.3217 128.6921 290.7087 129.5661 288.3567 130.9771 287.2707 131.5611 265.7107 133.5981 259.1587 134.3371 257.2377 134.5501 255.6307 134.5371 255.6307 136.1501 252.1357 136.3521 249.2457 136.6211 244.9097 136.7061 245.3277 136.1891 246.2337 135.4571 247.0897 134.9821 247.1837 133.6521 247.5637 132.8921 246.8957 131.8381 247.2287 131.0451 248.1707 130.3061 249.0447 130.0361 250.1857 130.5741 251.6637 131.1121 252.1337 130.9781 252.2007 130.0371 251.6627 129.0291 251.7977 128.0891 252.6027 127.4831 253.6777 127.2151 254.3497 126.9451 254.0137 126.2061 253.7447 125.4001 254.2147 125.0641 254.6517 123.6861 255.8947 122.9801 258.3137 122.5771 259.7927 122.3761 260.3967 123.1821 261.1357 123.5171 261.8757 122.1741 263.0857 121.5681 263.8907 122.2401 264.2267 122.7111 265.1007 122.5091 265.0337 121.0981 266.2437 120.4261 266.7147 120.0901 267.1837 120.7621 269.1327 120.7621 269.4687 119.8881 269.3357 118.9461 270.5457 117.4691 272.4937 115.8551 272.6957 113.9741 273.8387 113.8391 275.4507 113.1001 276.5927 112.2941 276.4597 111.4891 275.8537 110.8841 276.0897 109.9761 277.8027 109.8751 278.8107 109.5391 280.0207 110.2111 280.6927 112.0251 283.1117 112.1601 283.8507 112.8981 284.7247 112.9651 285.7327 112.3601 287.0097 112.5621 287.5477 113.1671 288.6897 112.0931 289.4287 111.5551 290.1007 111.5551 290.3697 112.6971 291.1087 113.1001 292.5877 113.9741 292.6537 116.2591 292.9897 116.9311 294.0647 117.5351 294.3347 118.4761 295.5447 120.0221 296.6187 121.1641"></polygon>
                <path d="M232.9525,44.6513 L233.7225,44.2213 L234.8635,43.8853 L236.3425,42.9443 L236.3425,42.5413 L236.6105,42.2723 L239.0975,41.8693 L240.1045,41.0633 L241.9195,40.1893 L241.9855,39.6513 L242.7915,38.4413 L243.5305,38.1053 L244.0685,37.3663 L245.0105,36.4253 L246.8235,35.4173 L248.7725,35.2153 L249.2425,35.6853 L249.1085,36.0883 L247.5625,36.4913 L246.9575,37.7683 L246.0165,38.1043 L245.8145,39.1123 L244.8065,40.4563 L244.6735,41.5313 L245.0095,41.7333 L245.4115,41.2633 L246.8905,40.0533 L247.4285,40.5913 L248.3685,40.5913 L249.7135,40.9943 L250.3175,41.4643 L250.9235,42.7413 L252.0645,43.8833 L253.6785,43.8163 L254.2825,43.4133 L254.9545,43.9513 L255.6265,44.1533 L256.1645,43.8173 L256.6355,43.8173 L257.3065,43.4143 L258.9865,41.9363 L260.3975,41.4663 L263.1525,41.3323 L265.0345,40.5263 L266.1095,39.9883 L266.7155,40.0553 L266.7155,42.4073 L266.9165,42.5413 L268.1265,42.8773 L268.9325,42.6753 L271.4865,42.0033 L271.9565,41.5333 L272.5615,41.7353 L272.5615,44.6253 L273.9055,45.9023 L274.4435,46.1713 L274.9815,46.5743 L274.4435,46.7083 L274.1075,46.5743 L272.5615,46.3723 L271.6875,46.6413 L270.7465,46.5743 L269.4025,47.1793 L268.6635,47.1793 L266.2445,46.6413 L264.0955,46.7083 L263.2885,47.7833 L260.3985,48.0523 L259.3905,48.3883 L258.9215,49.6653 L258.3835,50.1353 L258.1815,50.0683 L257.5755,49.3963 L255.6935,50.4043 L255.4255,50.4043 L254.9545,49.7323 L254.6185,49.7993 L253.8125,51.6133 L253.4095,53.2933 L251.8515,56.6753 L251.1745,56.1983 L250.6035,55.6283 L249.9385,51.3513 L248.4175,50.8763 L247.8485,49.9263 L242.6205,48.7863 L241.5755,48.3113 L238.1545,47.3613 L234.7335,46.8863 L232.9525,44.6513 Z M287.6165,71.9083 L286.2725,68.4813 L285.3315,64.7183 L284.3235,63.3743 L283.2485,62.6353 L282.5765,63.1053 L280.9645,63.8443 L280.1575,65.9273 L279.0155,67.4733 L278.5465,67.7423 L277.9405,67.4733 C277.9405,67.4733 276.8655,66.8683 276.9325,66.5993 C276.9995,66.3303 277.1355,64.5163 277.1355,64.5163 L278.5465,63.9783 L278.8825,62.5673 L279.1505,61.4923 L280.1585,60.8203 L280.0245,56.6543 L279.3525,55.7133 L278.8145,55.3773 L278.4785,54.5033 L278.8145,54.1673 L279.4865,54.3013 L279.5545,53.6293 L278.5465,52.6883 L278.0085,51.6133 L276.9325,51.6133 L275.0515,51.0083 L272.7655,49.5973 L271.6235,49.5973 L271.3545,49.8663 L270.9515,49.6643 L269.6755,48.7233 L268.4655,49.4623 L267.2555,50.4033 L267.3895,51.8813 L267.7925,52.0153 L268.6655,52.2173 L268.8675,52.5533 L267.7925,52.8893 L266.7185,53.0233 L266.1125,53.7623 L265.9785,54.6363 L266.1125,55.3083 L266.2465,57.5933 L264.7685,58.4673 L264.4995,58.4003 L264.4995,56.6533 L265.0375,55.6453 L265.3065,54.6373 L264.9715,54.3013 L264.1645,54.6373 L263.7625,56.3843 L262.6195,56.8543 L261.8815,57.6603 L261.8135,58.0633 L262.0825,58.3993 L261.8135,59.4743 L260.8725,59.6763 L260.8725,60.1463 L261.2085,61.1543 L260.7385,63.7083 L260.0665,65.3883 L260.3355,67.3373 L260.5375,67.8073 L260.2015,68.8153 L260.0675,69.1513 L259.9335,70.2933 L261.4115,72.7793 L262.6215,75.4673 L263.2265,77.4833 L262.8905,79.4323 L262.4875,81.9183 L261.4795,84.0683 L261.3465,85.2103 L260.0635,86.5033 L259.7555,86.8233 L261.6815,86.7563 L270.8205,85.8153 L273.3745,85.5463 L273.5095,86.0503 L276.7345,85.5463 L280.9695,84.8743 L283.1375,84.6823 L282.5805,84.2023 L282.6475,83.5973 L283.5215,82.0513 L284.3535,81.3293 L284.2625,79.2293 L284.9265,78.5653 L285.3785,78.4223 L285.4715,76.9443 L286.1085,75.6843 L286.5465,75.9363 L286.6125,76.2053 L286.9485,76.2723 L287.7555,75.8693 L287.6165,71.9083 Z M275.1185,45.6993 L275.3885,46.7413 L276.7315,46.8083 L277.2695,46.3043 C277.2695,46.3043 277.2355,45.6993 277.1015,45.6323 C276.9685,45.5653 276.4305,44.8593 276.4305,44.8593 L275.5225,44.9603 L274.8505,45.0273 L274.7175,45.4973 L275.1185,45.6993 Z M239.2975,32.3443 L240.0565,31.4893 L240.9605,31.1563 L243.1925,29.5403 L244.1425,29.3023 L244.3325,29.4923 L242.1945,31.6303 L240.8165,32.4383 L239.9625,32.8183 L239.2975,32.3443 Z" id="Fill-30" fill="#FFFFFF"></path>
                <polygon id="Fill-32" fill="#FFFFFF" points="55.995 72.0473 57.969 64.3713 59.775 57.0063 60.345 55.2483 61.39 52.7773 60.867 51.8273 59.822 51.8753 59.489 51.4473 59.679 50.9723 59.822 49.6893 61.675 47.4083 62.435 47.2183 62.91 46.7433 63.148 45.4123 63.528 45.1273 65.144 42.7043 66.76 40.8983 66.855 39.3303 65.429 38.2373 64.883 36.4083 65.049 32.3933 66.57 25.5503 68.423 16.9023 69.991 11.2953 70.308 9.7143 76.177 10.8323 74.315 19.7063 75.741 22.8423 75.171 24.7433 75.931 26.6443 77.262 27.2143 78.783 31.4913 80.304 33.0123 80.494 33.4873 81.92 33.9623 82.11 34.8173 79.164 42.1353 79.164 43.1803 80.209 44.5103 80.589 44.5103 82.585 43.2753 82.87 42.8003 83.535 43.0853 83.44 45.2713 84.58 50.4983 85.815 51.5433 86.195 51.8283 86.955 52.7783 86.765 54.2043 87.05 55.6303 87.525 56.0103 88.475 55.0603 89.615 55.0603 90.945 55.7253 91.99 55.3453 93.701 55.3453 95.222 56.0103 96.362 55.8203 96.552 54.5853 97.787 54.3003 98.357 54.8703 98.547 56.2003 99.64 57.0553 98.072 67.2243 95.934 79.8163 93.938 79.4833 90.469 78.9133 86.192 78.1533 81.203 77.2983 75.929 76.3243 72.603 75.4923 68.754 74.7323 64.715 73.9243"></polygon>
                <path d="M187.5897,234.0625 L187.3547,231.1055 L186.2127,228.1155 L185.9777,225.1925 L186.6157,221.7655 L187.9937,218.9095 L189.4387,216.6585 L190.7487,215.1805 L191.0177,215.2815 L189.0357,218.0365 L187.2217,220.7585 L186.3817,223.5135 L186.2477,225.6635 L186.6177,228.2175 L187.6927,231.2075 L187.8947,233.3575 L187.9617,233.9625 L187.5897,234.0625 Z M145.9477,136.8125 L155.3797,137.2635 L168.3047,137.7385 L167.7347,147.6225 L167.5447,155.0355 L167.6397,155.7005 L169.4457,157.2215 L170.3007,157.6965 L170.5857,157.6015 L170.8707,156.7465 L171.4407,157.5065 L172.2957,157.5065 L172.2957,156.9365 L173.4357,157.5065 L173.2457,159.1225 L174.9567,159.2175 L176.0017,159.6925 L177.7127,159.9775 L178.7577,160.7375 L179.7077,159.8825 L181.1337,160.1675 L182.1787,161.5935 L182.5587,161.5935 L182.5587,162.5435 L183.5087,162.8285 L184.4587,161.8785 L185.2187,162.1635 L186.2637,162.1635 L186.6437,163.2085 L188.6397,163.9685 L189.2097,163.6835 L189.9697,161.9725 L190.4447,161.9725 L190.9197,162.8275 L192.6317,163.1125 L194.1517,163.6825 L195.3867,164.0625 L196.1467,163.6825 L196.4317,162.6375 L198.2377,162.6375 L199.0927,163.0175 L200.2327,162.1625 L200.7077,162.1625 L200.9927,162.8275 L202.7037,162.8275 L203.3687,161.9725 L204.1297,162.1625 L204.9837,163.2075 L206.3137,163.9675 L207.6447,164.3475 L208.7847,164.8705 L209.7347,165.6785 L210.9697,165.1085 L212.1097,165.5835 L212.3887,170.1985 L212.3947,174.2315 L212.6797,178.1275 L212.9647,179.7435 L214.0097,181.4545 L214.3897,183.5455 L216.1957,185.8265 L216.2907,187.1575 L216.5757,187.4425 L216.2907,190.9585 L215.0557,193.0495 L215.7207,193.9045 L215.4357,194.9495 L215.1507,197.9905 L214.5807,199.3205 L214.6987,200.8105 L212.0107,201.5365 L207.9117,203.4185 L207.5087,204.2245 L206.4337,205.0305 L205.5597,205.6355 L205.0217,205.9715 L202.6707,208.1895 L201.5277,209.0635 L199.3097,210.4075 L196.9577,211.4155 L194.3377,212.8265 L193.5977,213.4315 L191.1787,214.9095 L189.7677,215.1785 L188.1547,217.4635 L186.4747,217.5975 L186.0717,218.4035 L187.0127,219.2095 L186.4077,221.4945 L185.8697,223.3765 L185.3997,224.9895 L185.0637,226.8715 L185.3997,227.8795 L186.1387,230.7695 L186.5417,233.3235 L187.2807,234.4655 L186.8777,235.0705 L185.6007,235.8765 L183.2487,234.2635 L180.9637,233.7935 L180.4257,233.9955 L179.0817,233.7265 L177.3347,232.4495 L175.1847,231.9795 L172.0267,230.5685 L171.1527,228.9555 L170.6147,226.2675 L169.2707,225.4615 L169.0017,224.5205 L169.2707,224.2505 L169.4047,222.8405 L168.8667,222.5715 L168.5977,222.1675 L169.1357,220.3545 L168.4637,219.4135 L167.1197,218.8745 L165.7087,217.0615 L164.2307,214.3065 L162.4837,213.2315 L162.5507,212.4255 L160.3327,207.3185 L159.9967,205.5715 L159.2577,204.7655 L159.1907,204.1605 L156.7047,201.9425 L155.6297,200.6655 L155.6297,200.1955 L154.5547,199.3215 L151.7327,198.8515 L148.6417,198.5825 L147.3647,197.6415 L145.4827,198.3805 L144.0047,198.9855 L143.0637,200.3295 L142.6607,201.8745 L140.8467,204.4295 L139.8387,205.4375 L138.7637,205.0345 L138.0247,204.5645 L137.2187,204.2955 L135.6057,203.3545 L135.6057,203.0855 L134.8667,202.2795 L132.7167,201.4055 L129.6257,198.1795 L128.6847,196.2305 L128.6847,192.8705 L127.3407,190.1825 L127.1387,189.0405 L126.4667,188.6375 L125.9967,187.7635 L123.9137,186.8895 L123.3757,186.2175 L120.4187,182.9245 L119.8807,181.5805 L117.9317,180.6395 L117.3267,178.8255 L116.2517,177.6155 L115.4457,177.4135 L115.1757,175.4695 L118.5017,175.7545 L130.5707,176.8945 L142.6407,177.5595 L143.5907,167.6755 L145.2067,144.5825 L145.8717,136.7885 L146.4417,136.8005 L145.9477,136.8125 Z" id="Fill-34" fill="#FFFFFF"></path>
                <path d="M26.6117,150.1621 L27.3507,151.4731 L27.8547,152.2781 L27.2497,152.3801 L26.7117,151.8761 C26.7117,151.8761 26.4097,151.2701 26.4097,151.1021 L26.4097,150.1951 L26.6117,150.1621 Z M27.2167,146.5671 L27.9557,147.5411 L28.2917,147.9441 L28.9297,148.1801 L29.1647,147.5741 L28.7617,146.8361 L27.6527,145.9951 L27.2157,146.0621 C27.2167,146.0631 27.2167,146.5671 27.2167,146.5671 L27.2167,146.5671 Z M18.6147,138.3361 L19.1187,138.0661 L20.5967,138.9401 L21.8737,139.4441 L21.5037,139.7141 L19.6217,139.6121 L18.9497,138.9401 C18.9507,138.9391 18.6147,138.3361 18.6147,138.3361 L18.6147,138.3361 Z M17.8077,138.3361 L18.3457,138.9741 L18.2787,139.5121 L16.9347,139.4771 L16.6997,138.9741 L16.4307,138.3681 L17.8077,138.3361 Z M54.6337,159.2681 L56.3527,158.9321 L56.9707,158.0281 L57.2087,156.8891 L55.6877,156.6501 L55.4977,156.3171 L55.6877,155.6041 L55.7357,153.1821 L56.5907,152.8961 L57.7787,151.7571 L58.0167,149.7141 L58.6347,148.1921 L59.4427,147.3851 L60.8687,146.6721 L61.5337,146.1011 L61.5817,145.1511 L61.1537,144.9131 L60.8207,144.4851 L60.2977,142.0621 L59.1577,140.0191 L59.3977,138.6611 L58.3497,137.3111 L52.3147,127.8551 L44.2367,115.7861 L34.7807,101.7211 L29.6337,93.9961 L30.3137,91.2661 L33.2127,80.4791 L36.5867,67.4121 L30.9797,65.8911 L25.3727,64.4651 L20.1457,62.7541 L17.0097,61.8991 L12.2577,60.6641 L9.3267,59.6621 L8.6697,61.6251 L8.6027,64.7161 L6.4527,69.6221 L5.1757,70.6971 L5.0417,71.1671 L4.3027,71.5031 L3.6977,73.2501 L3.3617,74.5941 L4.5037,76.3411 L5.1757,78.0881 L5.6457,79.5661 L5.5107,82.2571 L4.7717,83.5351 L4.5027,85.9541 L4.0997,87.4991 L4.8387,89.1121 L5.9807,90.9951 L6.9217,93.0101 L7.4597,94.6901 L7.3257,96.0351 L7.1917,96.2361 L7.1917,97.1101 L9.5437,99.7311 L9.3407,100.7371 L9.0717,101.6791 L8.8027,102.4841 L8.8697,105.9121 L9.7437,107.4571 L10.5497,108.5331 L11.6917,108.7341 L12.0947,109.8761 L11.6247,111.3541 L10.7507,112.0261 L10.2807,112.0261 L9.9447,113.6401 L10.1467,114.8491 L11.4907,116.6631 L12.1627,118.8821 L12.7677,120.8301 L13.3057,122.1071 L14.7167,124.5261 L15.3217,125.6011 L15.5237,126.8111 L16.1957,127.2151 L16.1957,128.2231 L15.8597,129.0281 L15.1207,131.9851 L14.9187,132.7911 L15.9267,133.9331 L17.6737,134.1361 L19.5557,134.8741 L21.1687,135.7481 L22.3787,135.7481 L23.5887,137.0251 L24.6637,139.0411 L25.1337,139.9821 L26.7467,140.8561 L28.7627,141.1921 L29.3677,142.0661 L29.6367,143.4101 L29.0317,143.6801 L29.1657,144.0821 L30.5097,144.4181 L31.6517,144.4851 L32.8617,146.4341 L34.4747,148.1821 L34.8107,149.1221 L35.8857,150.8691 L36.0197,152.2141 L36.0197,156.1111 L36.2217,156.8501 L40.3877,157.4551 L48.5857,158.5981 L54.6337,159.2681 Z" id="Fill-36" fill="#FFFFFF"></path>
                <polyline id="Fill-38" fill="#FFFFFF" points="153.6698 132.4179 155.3808 105.0469 156.0458 95.7339 142.1708 94.5949 132.0018 93.7389 116.5108 92.0279 107.9098 90.9829 106.8168 100.2019 105.4868 109.5149 103.9268 121.1479 103.3008 125.7659 103.0628 127.3819 117.3658 129.0929 132.7208 130.9329 146.3398 131.8489 149.1078 132.1339 153.8598 132.3709"></polyline>
                <polygon id="Fill-40" fill="#FFFFFF" points="193.7747 51.6367 193.4897 48.1207 192.7297 45.0797 191.9697 39.4727 191.7797 35.3857 191.0197 33.9597 190.3547 31.8687 190.3547 27.5917 190.6397 25.9757 189.8267 23.6897 177.6107 23.4557 169.8827 23.1867 158.8617 22.6487 148.4917 21.8657 147.9677 27.7817 147.3977 34.0537 146.4587 44.4237 146.1897 49.4717 169.5407 50.9697"></polygon>
                <polygon id="Fill-42" fill="#FFFFFF" points="233.4759 81.9536 233.4989 82.7136 234.4499 82.9986 234.8299 83.4736 235.0199 84.2336 236.6359 85.6596 236.9209 86.6096 236.6359 88.0356 235.8759 89.5566 235.5909 90.6016 234.6409 91.3616 233.8809 91.6466 231.6949 92.2166 231.4099 92.9766 231.1239 93.8316 231.4099 94.4016 232.1699 95.0666 232.0749 96.7776 231.3149 97.4426 231.0299 98.1076 231.0299 99.2476 230.2699 99.4376 229.6049 99.9126 229.5099 100.4826 229.6049 101.3376 228.8919 102.0746 227.5139 100.6726 227.0389 99.7226 223.8079 100.0076 219.7209 100.1976 209.1719 100.5776 203.5649 100.6726 199.6689 100.7676 199.2159 100.8176 198.5279 98.5816 198.4329 95.8256 197.7679 94.1146 197.4829 91.9286 196.5329 90.4076 196.1529 88.4116 195.0129 85.2756 194.5379 83.0426 193.9679 82.1396 193.3029 80.9996 194.0629 79.1936 194.6329 76.8176 193.4929 75.9626 193.3029 74.8226 193.6829 73.7776 194.3959 73.7776 199.1949 73.7776 219.8179 73.4926 227.3259 73.2076 229.0369 73.1596 229.3219 74.5376 230.2719 75.2026 230.3669 75.7726 229.5119 77.1986 229.6069 78.5286 230.6519 80.1446 231.6969 80.6196 232.9319 80.8096"></polygon>
                <polygon id="Fill-44" fill="#FFFFFF" points="313.9603 169.8867 313.2213 170.2887 312.1463 169.7517 311.8763 168.8777 311.3393 167.3997 310.3973 166.5257 309.3223 166.2567 308.6503 164.2407 307.5093 161.7547 305.7623 160.9487 304.8883 160.1427 304.3503 159.0677 303.4763 158.2617 302.5343 157.7237 301.5943 156.5137 300.3163 155.5727 298.4353 154.8337 298.2323 154.2287 297.2253 153.0187 297.0233 152.4127 295.6113 150.2637 294.2003 150.3297 292.5213 149.3227 291.9823 148.7837 291.8493 148.0457 292.1853 147.2397 293.1253 146.8367 292.9913 145.9627 295.5463 144.8877 299.3093 143.0057 302.3323 142.6697 309.1873 142.4677 310.1283 143.2737 310.8003 144.6167 312.6133 144.4157 317.8563 143.8107 319.0653 144.1467 324.3083 147.3047 328.5103 150.6807 326.2563 152.9497 325.1813 155.5037 324.9793 158.1247 324.3073 158.4607 323.8373 159.6027 322.8283 159.8707 321.9543 161.3497 320.8133 162.4907 319.8713 163.9027 319.1993 164.2387 317.7223 165.6497 316.5123 165.7167 316.9143 167.0607 314.8313 169.3457"></polygon>
                <polygon id="Fill-46" fill="#FFFFFF" points="257.5785 192.2636 256.9065 185.9466 255.7655 178.1516 255.8315 172.3056 256.1685 159.4036 256.1005 152.4816 256.1705 149.8136 259.3935 149.6596 270.9515 148.5846 275.1805 148.2146 275.1185 149.1206 275.1855 149.9946 275.4545 151.4066 276.8655 154.6996 277.8745 158.7986 278.4785 161.3526 279.1505 163.3676 279.7565 166.2586 280.6305 168.8796 281.7045 170.2896 281.9065 171.7016 282.7135 172.0366 282.7795 172.9106 282.0405 174.9276 281.8395 176.2716 281.7715 177.0766 282.4435 178.8916 282.5775 181.1096 282.2415 182.1176 282.5115 182.4526 283.1155 182.7886 283.4515 184.2676 280.8315 184.2676 278.0095 184.5356 267.3915 185.7456 263.1565 186.2846 263.0225 187.5616 263.7625 188.3006 264.8375 189.1066 265.0775 192.4056 262.3495 193.4756 261.2085 193.3416 262.3495 192.5346 262.3495 192.1326 261.0725 189.6466 260.1325 189.3776 259.5265 191.1916 258.9885 192.3326 258.7205 192.2666"></polygon>
                <path d="M353.2728,61.6933 L360.5308,59.9463 L361.4718,59.6773 L362.3458,58.3333 L363.8988,57.6423 L365.0998,59.4763 L364.0918,61.6263 L363.9588,62.2313 L364.7638,63.3063 L365.2338,62.9703 L365.9728,62.9703 L366.9138,64.0453 L368.5268,66.5313 L370.0048,66.7333 L370.9458,66.3303 L371.6848,65.5913 L371.3488,64.4493 L370.4748,63.7773 L369.8698,64.1133 L369.4668,63.5753 L369.6688,63.3733 L370.5438,63.3063 L371.2818,63.6423 L372.0878,64.6503 L372.4908,65.8603 L372.6258,66.8683 L370.8778,67.4733 L369.2648,68.2793 L367.6518,70.1613 L366.8458,70.7663 L366.8458,70.3633 L367.8538,69.7583 L368.0558,69.0193 L367.7198,67.7423 L366.5098,68.3473 L366.1738,68.9523 L366.3768,69.8933 L365.2338,70.4983 L364.0918,68.6163 L362.6808,66.8023 L362.0088,66.3323 L359.6228,66.9703 L357.5058,67.4073 L348.4338,69.3893 L348.0308,67.0033 L348.2998,62.6013 L350.4498,62.2313 L353.2728,61.6933 L353.2728,61.6933 Z M367.7378,70.8333 L368.6878,69.7403 L369.3528,69.7403 L370.1128,70.3583 L369.1148,70.7863 L368.2118,71.2143 L367.7378,70.8333 Z M371.6348,70.5003 L372.5378,70.2153 L372.7278,69.5023 L373.1558,69.5503 L373.5848,70.5003 L373.0608,70.6903 L371.4448,70.7383 L371.6348,70.5003 Z" id="Fill-48" fill="#FFFFFF"></path>
                <polygon id="Fill-50" fill="#FFFFFF" points="339.4955 94.0175 339.8335 93.1435 339.9335 92.6055 339.0945 92.6055 338.2205 93.2775 337.6145 93.8825 338.2205 95.6295 339.1605 97.9815 340.0345 102.0135 340.7065 104.6345 342.7905 104.5675 345.3435 104.0635 344.4015 101.0065 343.9995 101.2085 342.5205 100.2005 341.7815 98.2515 340.9755 96.7735 340.0345 96.3705 339.1605 94.8925"></polygon>
                <path d="M298.0335,121.7705 L298.8405,123.2485 L299.3785,123.7865 L300.5885,124.1225 L301.6625,123.8535 L302.6715,122.9125 C302.6715,122.9125 303.4095,123.5175 303.6795,123.4505 C303.9475,123.3835 305.4925,123.0475 305.4925,123.0475 L306.2315,121.0985 L307.3065,121.5015 L308.6505,120.4935 L309.2565,120.6275 L310.1305,119.8215 L310.1965,118.6795 L309.8605,118.1415 L311.9435,113.6395 L312.8175,110.8845 L312.9515,109.0705 L313.6905,109.0035 L314.3625,110.1455 L314.9005,110.4815 L315.9755,110.4815 L316.4455,108.1965 L316.5795,106.9195 L317.9905,106.7855 L318.1925,105.8445 L319.4705,104.8365 L319.7385,104.1645 L320.4105,103.0225 L320.6125,102.1485 L320.6795,99.9305 L322.5615,100.6695 L324.9135,101.9465 L325.2495,99.8295 L326.9965,100.6695 L326.9965,101.8795 L329.2815,102.4175 L330.0885,102.9555 L330.4905,102.1495 L331.4315,102.8215 L330.8265,104.1655 L330.6925,105.3075 L329.9535,106.3825 L329.9535,107.2565 L330.2225,107.9955 L332.3275,108.5595 L333.1115,109.2055 L335.2625,109.3395 L336.3375,110.2805 L337.6805,110.5495 L338.2195,111.0875 L338.0165,112.9695 L338.4205,113.3725 L338.4865,114.3135 L339.0245,115.1875 L338.9585,115.9265 L337.6135,115.4565 L337.6135,115.8595 L338.4205,116.5315 L338.4205,117.0015 L339.0245,117.4715 L339.5625,118.1435 L339.6305,119.0835 L338.6885,119.6895 L338.8225,119.8915 L339.8975,119.6895 L341.2415,119.4205 L341.7125,119.3535 L343.4055,122.2745 L341.3765,122.9825 L336.6045,124.1925 L328.6375,125.7825 L320.0735,127.3515 L312.9505,128.4265 L306.3755,129.2325 L303.4085,129.7705 L301.5335,129.5135 L300.6535,129.5005 L299.6455,130.3075 L296.3525,130.3745 L291.3665,131.1645 L287.2115,131.5525 L288.3565,130.9795 L290.7095,129.5685 L292.3215,128.6945 L292.3215,127.8205 L293.0605,127.0815 L294.9425,124.8635 L296.6895,123.3855 L298.0335,121.7705 Z" id="Fill-52" fill="#FFFFFF"></path>
                <polygon id="Fill-54" fill="#FFFFFF" points="301.9984 79.2485 299.0404 80.9805 297.4284 81.9215 296.0174 83.4675 294.3374 85.0805 292.9924 85.4165 291.7824 85.6185 289.4974 86.6935 288.6234 86.7605 287.2134 85.4835 285.0624 85.7525 283.9874 85.1475 282.9974 84.5855 280.9644 84.8775 276.7294 85.5495 273.5044 86.0535 274.0414 92.1355 274.7804 97.8475 275.8554 107.5915 276.0914 109.9775 277.8054 109.8765 278.8124 109.5405 280.0224 110.2125 280.6944 112.0265 283.1134 112.1605 283.8524 112.8995 284.7274 112.9665 285.7344 112.3615 287.0124 112.5635 287.5504 113.1685 288.6914 112.0935 289.4314 111.5555 290.1024 111.5555 290.3714 112.6975 291.1104 113.1005 292.5564 114.0745 293.4634 114.0405 294.2694 113.7045 294.3364 112.5625 295.0084 111.9575 295.0744 109.8745 295.4774 108.2615 296.0164 107.9925 296.5544 108.4625 296.7564 109.2015 297.4944 108.7985 297.6964 108.1265 297.2274 107.3875 297.2274 106.3795 297.6304 105.8415 298.5704 104.4305 299.1084 103.8255 299.9824 104.0275 300.9244 103.3555 302.2004 101.9445 303.1424 100.3315 303.2754 97.9795 303.4774 95.8965 303.4774 93.9475 303.0084 92.6705 303.4104 92.0655 303.9814 91.7635 303.2094 87.2945"></polygon>
                <polygon id="Fill-56" fill="#FFFFFF" points="145.1839 58.0654 140.3989 57.6634 127.0599 56.2934 120.3119 55.4384 108.5279 53.7274 100.2599 52.4924 99.6699 57.1384 98.0739 67.2234 95.8879 79.8634 95.2519 84.2344 94.5579 89.1764 97.2699 89.5624 104.2899 90.5124 107.9609 91.0014 116.5109 92.0274 132.0019 93.7384 142.1709 94.5934 143.9769 76.1564 144.6419 65.6074"></polygon>
                <path d="M32.492,3.3623 L33.332,3.2953 L33.534,3.8663 L34.172,3.1943 L35.146,3.1943 L35.482,3.8323 L34.844,4.5383 L35.113,4.8743 L34.811,5.7143 L34.24,5.8823 C34.24,5.8823 33.87,5.9163 33.87,5.7813 C33.87,5.6473 34.475,4.7063 34.475,4.7063 L33.769,4.4713 L33.635,5.0763 L33.333,5.3453 L32.695,4.4043 L32.492,3.3623 Z M36.423,0.8773 L38.237,1.4823 L42.269,2.6243 L45.831,3.4303 L54.164,5.7823 L63.706,8.1343 L70.408,9.6793 L69.991,11.2943 L68.423,16.9013 L66.57,25.5493 L65.049,32.3923 L64.97,36.4243 L59.157,35.0053 L52.885,33.5323 L46.47,33.5803 L46.28,33.0103 L43.999,33.8653 L42.146,33.6273 L41.148,32.9623 L40.625,33.2473 L38.677,33.1523 L37.964,32.5823 L35.778,31.7273 L35.445,31.7753 L33.639,31.1573 L32.831,31.9173 L30.265,31.7743 L27.794,30.0633 L28.079,29.7303 L28.174,26.4993 L27.224,24.8833 L25.513,24.6453 L25.228,23.6003 L24.251,23.4073 L23.453,22.7843 L22.714,23.1873 L21.773,21.9773 L21.907,20.7673 L23.049,20.6333 L23.721,18.9533 L22.646,18.4833 L22.713,16.9373 L24.527,16.6683 L23.385,15.5263 L22.78,12.5693 L23.049,11.3593 L23.049,8.0663 L22.31,6.7223 L23.251,2.8243 L24.125,3.0263 L25.133,4.2363 L26.275,5.3113 L27.619,6.1173 L29.501,6.9913 L30.778,7.2603 L31.988,7.8653 L33.399,8.2683 L34.34,8.2013 L34.34,7.1933 L34.878,6.7233 L35.752,6.1853 L35.886,6.6553 L36.02,7.3943 L35.079,7.5963 L34.945,8.4703 L35.684,9.0753 L36.154,10.0833 L36.423,10.8893 L37.028,10.8223 L37.095,10.2843 L36.692,9.7463 L36.49,8.4023 L36.826,7.6633 L36.557,7.0583 L36.557,6.1173 L37.296,4.6393 L36.826,3.5643 L35.818,1.5483 L35.952,1.2123 L36.423,0.8773 Z" id="Fill-58" fill="#FFFFFF"></path>
                <polyline id="Fill-60" fill="#FFFFFF" points="55.995 72.0473 64.716 73.9223 68.755 74.7303 72.604 75.4903 75.954 76.3693 75.455 78.6743 73.982 85.9443 72.414 94.4503 71.606 98.1563 70.703 103.8113 69.325 110.7013 67.995 117.0213 67.177 121.3863 65.952 128.7583 65.762 128.9483 65.049 130.0413 64.004 129.9933 63.481 128.8533 62.341 128.7113 61.961 128.2353 61.581 128.2353 61.201 128.4733 60.393 128.9013 60.345 131.8003 60.25 132.5133 60.012 137.7403 59.396 138.6533 58.349 137.3133 52.314 127.8573 44.236 115.7873 34.78 101.7223 29.633 93.9983 30.313 91.2683 33.212 80.4813 36.491 67.4503 50.461 70.8353 56.163 72.0703"></polyline>
                <polygon id="Fill-62" fill="#FFFFFF" points="115.5169 177.4794 115.1799 175.4674 118.5059 175.7524 130.5749 176.8924 142.6449 177.5574 143.5949 167.6734 145.2109 144.5794 145.8759 136.7864 146.4459 136.7984 146.4399 131.9274 132.7199 130.9284 117.3649 129.0884 103.0379 127.3774 101.2919 140.1634 98.3969 162.2784 96.8369 173.4694 95.9849 179.0024 102.4119 179.8294 102.9499 175.6634 109.8719 176.7384"></polygon>
                <polygon id="Fill-64" fill="#FFFFFF" points="254.6214 123.6523 254.6214 122.1063 254.8234 120.2243 255.7654 119.0143 256.5044 117.4013 257.5784 115.6543 257.3774 113.2353 256.6384 112.0933 256.5044 110.7493 256.8404 108.4643 256.6384 105.5743 256.1004 98.9213 255.5614 92.5373 255.2254 87.6993 254.6874 87.3633 254.3514 86.2883 253.8134 84.7423 253.1424 84.0033 252.5364 82.9283 252.4394 80.6463 248.3234 81.1913 237.0154 81.9043 233.4034 81.7263 233.4994 82.7123 234.4484 82.9973 234.8284 83.4723 235.0184 84.2323 236.6354 85.6583 236.9204 86.6083 236.6354 88.0343 235.8754 89.5553 235.5904 90.6003 234.6404 91.3603 233.8804 91.6453 231.6934 92.2153 231.4084 92.9753 231.1244 93.8303 231.4084 94.4003 232.1694 95.0653 232.0734 96.7763 231.3134 97.4413 231.0284 98.1063 231.0284 99.2463 230.2684 99.4363 229.6034 99.9113 229.5094 100.4813 229.6034 101.3363 228.8914 101.8823 228.4634 103.0463 228.6524 104.5673 229.6024 107.6083 232.6434 110.7443 234.9254 112.2653 234.8294 114.0713 235.2104 114.6413 237.8704 114.8313 239.0114 115.4013 238.7254 116.9223 237.7754 119.3933 237.4904 120.7233 238.4404 122.3403 241.1014 124.5253 243.0034 124.8103 243.8574 126.9013 244.7134 128.2313 244.3334 129.4663 244.9974 131.1773 245.7584 132.0323 246.9904 131.8913 247.2284 131.0393 248.1704 130.3003 249.0444 130.0313 250.1854 130.5693 251.6634 131.1073 252.1344 130.9733 252.2004 130.0323 251.6624 129.0243 251.7974 128.0843 252.6024 127.4783 253.6784 127.2103 254.3504 126.9403 254.0144 126.2013 253.7444 125.3953 254.2154 125.0593"></polygon>
                <polygon id="Fill-66" fill="#FFFFFF" points="193.68 51.6367 193.49 48.1207 192.73 45.0797 191.97 39.4727 191.78 35.3857 191.02 33.9597 190.355 31.8687 190.355 27.5917 190.64 25.9757 189.883 23.7097 202.409 23.7247 202.543 20.2977 202.812 20.2307 203.753 20.4327 204.559 20.7687 204.895 23.0537 205.499 25.6077 206.172 26.2797 208.188 26.2797 208.322 26.8847 210.943 27.0187 210.943 27.8927 212.959 27.8927 213.093 27.3547 213.563 26.8847 214.504 26.6157 215.042 27.0187 216.252 27.0187 217.865 28.0937 220.083 29.1017 221.091 29.3037 221.293 28.9007 221.898 28.6987 222.1 29.9087 223.175 30.4467 223.377 30.2447 223.914 30.3117 223.914 31.1857 224.99 31.5887 226.267 31.5887 226.939 31.2527 228.283 29.9087 229.358 29.7067 229.694 30.4457 229.896 30.9837 230.299 30.9837 230.701 30.6477 234.398 30.5137 235.137 31.7907 235.406 31.7907 235.702 31.3397 237.549 31.1857 237.295 32.1337 235.658 32.8977 231.815 34.5857 229.829 35.4197 228.553 36.4947 227.545 37.9727 226.604 39.5857 225.865 39.9217 223.983 42.0047 223.445 42.0717 222.034 43.3487 222.32 43.5747 221.149 44.6997 221.054 45.8397 221.054 49.3557 220.578 50.0207 218.393 51.6367 217.443 54.1077 217.633 54.2027 218.678 55.0577 218.963 56.3877 218.202 57.7177 218.202 59.3337 218.393 62.0897 219.628 63.3247 221.054 63.3247 221.814 64.6547 223.24 64.8447 224.856 67.2207 227.802 68.9317 228.657 70.0717 229.036 73.2077 227.326 73.2077 219.818 73.4927 199.195 73.7777 194.396 73.7777 194.634 70.9267 194.538 58.2867 194.349 57.0517 192.638 55.6257 192.163 54.8657 192.163 54.2007 193.018 53.5357 193.588 52.9657"></polygon>
                <polygon id="Fill-68" fill="#FFFFFF" points="243.6019 141.6259 241.5779 142.0159 239.0119 141.8249 239.2969 140.5909 240.6279 139.4499 240.8179 138.5009 240.0579 137.2659 235.4959 137.4549 226.8479 137.8359 217.1539 138.1199 207.4599 138.3109 208.1239 141.1609 208.1239 144.5819 208.6949 149.1449 208.7889 164.8719 209.7399 165.6809 210.9749 165.1099 212.1149 165.5859 212.3879 170.2549 221.6179 170.2419 229.6009 169.8619 234.0909 169.9219 234.7089 168.8159 234.5429 167.0109 233.9729 165.7749 234.5429 165.2049 233.9729 164.3509 234.1629 163.5909 234.5429 161.0239 235.7779 159.8849 235.4929 159.0289 237.0139 156.8439 238.1539 156.4639 238.1539 155.4189 237.8689 154.8489 239.0089 152.6619 240.1489 152.1879 240.0259 150.6689 241.0449 150.1989 241.4479 148.2509 240.8429 146.7719 242.5229 145.8309 242.6569 144.7569 243.2179 142.9359"></polygon>
                <polygon id="Fill-70" fill="#FFFFFF" points="207.1751 133.6523 201.6621 133.9373 182.3711 133.7473 163.6491 132.8923 153.6111 132.3693 155.3341 104.9993 164.4101 105.3323 181.2311 105.9023 199.5721 106.0923 202.0911 106.0923 203.3741 107.2323 204.3231 107.3273 204.8941 107.7073 204.8941 108.9423 204.1341 109.6073 203.9441 110.5573 204.7991 111.9833 205.8441 113.2183 206.8891 113.9783 207.4591 118.8253"></polygon>
                <polygon id="Fill-72" fill="#FFFFFF" points="341.5716 117.1523 341.0276 115.9493 341.1886 112.8243 342.2106 111.0503 342.1556 109.3303 344.5746 108.4163 344.3056 109.3303 343.0156 110.9973 342.8846 114.2633 342.5786 115.6203 341.8326 117.1863"></polygon>
                <path d="M52.618,222.4365 L53.626,221.8315 L53.223,221.0915 L52.484,221.4955 L52.618,222.4365 Z M35.012,230.7025 L35.482,233.1215 L36.692,233.4575 L38.775,232.2475 L40.589,231.1715 L39.917,230.1645 L40.119,229.1565 L39.245,229.6945 L38.035,229.3585 L38.707,228.8875 L39.513,229.2235 L41.126,228.4855 L41.328,227.8795 L40.32,227.5435 L40.656,226.7385 L39.514,227.5435 L37.565,229.0225 L35.549,230.2325 L35.012,230.7025 Z M31.383,235.8755 L31.988,236.6155 L32.391,236.1455 L32.055,235.3385 L31.383,235.8755 Z M21.572,236.6825 L22.042,235.7425 L22.916,235.8755 L22.58,236.6815 L21.572,236.6815 L21.572,236.6825 Z M20.362,235.4065 L21.034,236.2115 L21.908,235.5405 L21.303,235.0015 L20.362,235.4065 Z M0,237.2885 L1.411,236.3465 L2.822,235.9445 L3.897,236.0785 L4.099,236.7495 L4.905,236.9525 L5.711,236.1465 L5.577,235.4735 L6.719,235.2055 L7.929,236.2805 L7.459,237.0185 L5.645,237.4895 L4.503,237.2875 L2.957,236.8175 L1.143,237.4215 L0.471,237.5555 L0,237.2885 Z M5.712,206.9135 L6.182,207.9885 L6.652,208.6605 L6.182,208.9965 L5.308,207.7185 L5.308,206.9135 L5.712,206.9135 Z M14.314,212.7585 L15.86,213.0945 L17.406,213.4985 L17.742,213.9015 L17.07,215.4475 L15.793,215.3795 L14.382,213.9025 C14.381,213.9025 14.314,212.7585 14.314,212.7585 L14.314,212.7585 Z M15.389,198.8485 L16.263,201.0675 L16.196,201.4695 L14.986,201.3355 L14.247,199.6565 L13.508,199.0505 L12.5,199.0505 L12.433,197.9755 L13.172,196.9675 L13.642,197.9755 L14.247,198.5815 L15.389,198.8485 Z M63.236,186.8205 L63.102,222.3015 L63.774,222.7055 L65.051,222.7725 L65.656,222.3015 L66.731,222.3015 L66.798,223.5115 L69.688,226.3335 L69.89,227.4095 L71.301,226.6035 L71.57,226.5365 L71.704,225.2585 L72.309,224.5865 L72.779,224.5205 L73.585,223.9155 L74.862,224.7895 L75.131,225.9995 L75.937,226.4685 L76.407,227.4765 L78.02,228.2155 L79.431,230.7025 L80.573,232.3155 L81.514,233.4575 L82.119,235.0025 L84.202,235.7425 L86.352,236.6165 L86.755,238.4295 L86.957,239.7075 L86.554,241.1185 L85.815,242.0585 L85.143,241.7225 L84.538,240.4465 L83.396,239.8405 L82.657,239.3715 L82.321,239.7075 L82.926,240.8485 L82.993,242.3955 L82.523,242.5965 L81.717,241.7905 L80.843,241.2525 L81.045,241.9245 L81.583,242.6645 L81.247,242.9995 C81.247,242.9995 80.911,242.8665 80.709,242.5965 C80.507,242.3285 79.835,241.1855 79.835,241.1855 L79.432,240.2455 C79.432,240.2455 79.298,240.7835 79.029,240.6485 C78.76,240.5135 78.491,240.0425 78.491,240.0425 L79.23,239.2375 L78.625,238.6315 L78.625,236.5485 L78.289,236.5485 L77.953,237.9595 L77.483,238.1625 L77.08,236.6165 L76.811,235.0705 L76.475,234.8685 L76.609,237.2195 L76.609,237.6905 L76.004,237.1525 L74.526,234.6655 L73.652,234.4635 L73.383,232.9175 L72.711,231.7075 L72.039,231.2385 L72.039,230.2965 L72.913,229.7585 L72.711,229.6245 L71.636,229.8945 L70.225,228.8855 L69.15,227.6755 L67.134,226.6005 L65.454,225.5265 L65.992,224.1815 L65.992,223.5095 L65.253,224.1815 L64.043,224.6525 L62.497,224.1815 L60.145,223.1735 L57.86,223.1735 L57.591,223.3755 L54.903,221.7625 L54.029,221.6285 L52.887,219.2095 L51.409,219.3435 L49.931,219.9495 L50.133,221.8315 L50.603,220.6215 L51.006,220.7545 L50.401,222.5695 L51.745,221.4265 L52.014,222.0985 L50.401,223.9135 L49.863,223.7795 L49.661,222.9725 L49.123,222.6365 L48.585,223.1075 L47.443,222.3685 L46.166,223.2425 L45.427,224.1165 L44.016,224.9905 L42.067,224.9225 L41.865,224.0485 L43.411,223.7805 L43.411,223.2425 L42.47,222.9725 L42.873,221.9645 L43.814,220.3515 L43.814,219.6135 L43.881,219.2775 L45.695,218.3355 L46.098,218.8735 L47.24,218.8735 L46.702,217.7985 L45.156,217.6655 L43.076,218.8075 L42.068,220.2185 L41.329,221.2935 L40.859,222.2355 L39.112,222.8395 L37.835,223.9155 L37.701,224.5865 L38.642,224.9905 L38.978,225.8645 L37.836,227.2075 L35.148,228.9555 L31.922,230.7025 L31.048,231.1715 L28.83,231.6425 L26.612,232.5825 L27.351,233.1215 L26.746,233.7265 L26.544,234.1965 L25.402,233.7925 L24.058,233.8605 L23.722,234.8005 L23.319,234.8005 L23.453,233.7925 L21.975,234.3315 L20.765,234.7345 L19.354,234.1965 L18.144,235.0015 L16.8,235.0015 L15.927,235.5405 L15.255,235.8755 L14.381,235.7425 L13.306,235.2725 L12.365,235.5405 L11.962,235.9435 L11.29,235.4725 L11.29,234.6665 L12.567,234.1285 L15.188,234.3985 L17.002,233.7265 L17.876,232.8525 L19.086,232.5825 L19.825,232.2475 L20.967,232.3145 L21.639,232.8525 L22.042,232.7175 L22.983,231.5765 L24.26,231.1725 L25.671,230.9045 L26.209,230.7705 L26.478,230.9715 L26.814,230.9715 L27.352,229.4255 L29.032,228.8215 L29.838,227.2755 L30.779,225.3925 L31.451,224.7885 L31.585,223.7125 L30.913,224.2505 L29.502,224.5205 L29.233,223.5115 L28.695,223.3775 L28.292,223.7815 L28.225,224.9915 L27.62,224.9235 L27.015,222.5045 L26.477,223.0425 L26.007,222.8405 L25.873,222.0355 L24.193,222.1015 L23.319,222.5725 L22.244,222.4385 L22.849,221.8325 L23.051,220.7575 L22.782,219.9525 L23.387,219.5485 L23.925,219.4825 L23.656,218.7435 L23.656,216.9285 L23.253,216.5265 L22.917,217.1305 L20.363,217.1305 L19.758,216.5925 L19.489,214.9805 L18.615,213.5015 L18.615,213.0985 L19.489,212.7625 L19.556,211.8885 L20.026,211.4185 L19.69,211.2165 L19.152,211.4185 L18.682,210.2775 L19.085,208.1945 L20.967,206.8495 L22.042,206.1775 L22.848,204.6315 L23.99,204.0935 L25.065,204.5645 L25.199,205.5725 L26.207,205.4385 L27.551,204.4295 L28.223,204.6995 L28.626,204.9675 L29.298,204.9675 L30.239,204.4295 L30.575,202.6165 C30.575,202.6165 30.709,201.4065 30.978,201.2055 C31.247,201.0025 31.381,200.8015 31.381,200.8015 L30.911,199.9965 L29.836,200.3325 L28.492,200.6675 L27.686,200.4655 L26.208,199.7265 L24.125,199.6605 L22.647,198.1145 L22.849,196.5005 L23.118,195.4935 L22.244,194.7535 L21.438,193.2075 L21.64,192.8725 L24.462,192.6695 L25.336,192.6695 L25.739,193.0735 L26.008,193.0735 L25.941,192.4015 L27.554,192.1315 L28.629,192.2655 L29.234,192.7365 L28.629,193.6105 L28.427,194.2145 L29.569,194.8865 L31.652,195.6255 L32.391,195.2225 L31.45,193.4095 L31.047,192.0655 L31.45,191.7295 L30.039,190.9225 L29.837,190.4535 L30.039,189.7815 L29.703,188.1675 L28.493,186.2185 L27.485,184.4715 L28.695,183.6655 L30.039,183.6655 L30.778,183.9345 L32.525,183.8685 L34.071,182.3895 L34.541,181.1135 L36.087,180.1055 L36.759,180.5075 L37.901,180.2395 L39.447,179.3655 L39.917,179.2975 L40.32,179.6335 L42.202,179.5675 L43.344,178.2905 L43.814,178.2905 L45.292,179.2975 L46.098,180.1715 L45.896,180.6415 L46.165,181.1125 L46.837,180.4405 L48.45,180.5745 L48.584,182.1205 L49.39,182.7245 L52.347,182.9945 L54.968,184.7415 L55.573,184.3375 L57.723,185.4135 L58.597,185.1445 L59.403,184.8075 L61.419,185.6145 L63.236,186.8205 Z" id="Fill-74" fill="#FFFFFF"></path>
                <path d="M322.3607,236.3808 L322.8647,236.8178 L324.0067,235.9438 L326.2247,234.1968 L327.7707,232.5838 L328.8127,229.8288 L329.2157,229.1228 L329.2827,227.7118 L328.9807,227.9138 L328.5777,229.0898 L327.9727,231.0048 L326.6297,233.1898 L324.8147,234.9368 L323.4037,235.7418 L322.3607,236.3808 Z M316.7507,238.4638 L317.7577,238.1948 L318.2967,238.0938 L318.9007,237.1198 L319.8757,236.4478 L320.4137,236.6508 L321.1197,236.7838 L321.2877,237.2208 L319.8417,237.7248 L318.0947,238.3298 L317.1217,238.8338 L316.7507,238.4638 Z M311.6077,183.0568 L312.4757,186.4668 L314.0257,190.5168 L316.2447,194.4148 L317.7907,197.0358 L319.8057,199.3208 L321.4857,200.8668 L322.1577,202.0768 L321.6877,202.6148 L321.3517,203.1528 L322.5617,206.2438 L323.7717,207.4538 L324.8467,209.6718 L326.3247,212.0908 L328.2077,215.5178 L328.7447,218.6758 L328.9467,223.6498 L329.2157,224.3878 L329.0827,225.7988 L328.0737,226.3368 L328.2087,227.1428 L327.9387,227.9488 L328.0727,228.9568 L328.2747,229.7628 L327.1327,231.1078 L325.8557,231.7118 L324.2427,231.7788 L323.6377,232.4508 L322.6307,232.8548 L322.0917,232.6518 L321.6227,232.2488 L321.4877,231.0388 L321.1517,229.6278 L319.7407,227.4778 L318.2627,226.5368 L316.6497,226.4028 L316.3137,226.9418 L315.0367,225.1268 L314.7677,223.6498 L313.6927,221.9688 L312.9537,221.4988 L312.2817,222.3728 L311.5437,222.2388 L310.6697,220.1558 L309.4597,218.5428 L308.2497,216.3248 L307.1737,215.0478 L305.6957,213.5018 L306.5697,212.4938 L307.9137,210.2088 L307.8467,209.5368 L305.9647,209.1338 L305.2937,209.4028 L305.4267,209.6718 L306.5027,210.0748 L305.8967,211.9568 L305.5607,212.1588 L304.8217,210.4798 L304.2837,208.4628 L304.1497,207.3208 L304.7557,205.3718 L304.7557,201.4068 L303.4777,199.8608 L302.9397,198.5838 L300.7907,198.0458 L299.9837,197.7768 L299.3117,196.7018 L297.9007,196.0298 L297.4307,194.6188 L296.2887,194.2158 L295.2807,192.6698 L293.5337,192.0658 L292.3237,191.4598 L291.2497,191.4598 L289.5687,191.7958 L289.5027,192.6018 L289.8387,193.0048 L289.6357,193.4748 L288.3587,193.4078 L286.8127,194.8858 L285.3357,195.6928 L283.7217,195.6928 L282.3787,196.2308 L282.2437,195.0878 L281.5717,194.2818 L280.3617,193.8118 L279.6897,193.2068 L276.3307,191.5938 L273.1727,190.8548 L271.3577,191.1238 L268.8727,191.3258 L266.3857,192.1998 L264.9397,192.4548 L264.8407,189.1098 L263.7657,188.3028 L263.0267,187.5638 L263.1607,186.2868 L267.3947,185.7488 L278.0127,184.5388 L280.8357,184.2698 L283.3887,184.2028 L284.4647,185.8168 L285.0687,186.4208 L288.3617,186.4878 L292.8597,186.2188 L301.8017,185.6808 L304.0657,185.4018 L305.9687,185.4128 L306.0357,186.6228 L307.1107,186.9588 L307.2447,185.1448 L306.5727,183.2628 L307.0437,182.5908 L309.4627,182.9268 L311.6077,183.0568 Z" id="Fill-76" fill="#FFFFFF"></path>
                <path d="M345.0414,136.0166 L346.1154,134.9746 L347.4264,133.9006 L348.0634,133.6306 L348.1314,132.7906 L347.8614,130.2376 L347.2574,129.2626 L346.9874,128.4906 L347.2904,128.3886 L348.4324,130.6736 L348.6004,132.5226 L348.5324,133.9326 L347.1224,134.5716 L345.9454,135.5796 L345.4764,136.0826 L345.0414,136.0166 Z M343.4224,122.3036 L344.1334,124.2566 L345.6104,126.9456 L346.6194,127.9536 L346.8884,128.8946 L345.8804,128.9606 L346.2164,129.2306 L346.0824,130.9776 L345.0074,131.5146 L344.7374,132.3886 L344.1994,133.5986 L342.6534,134.2716 L341.6454,134.1366 L341.0414,134.0706 L340.3694,133.5326 L340.5034,134.0706 L340.5034,134.4726 L341.3094,134.4726 L341.6454,135.0106 L340.8394,137.6316 L342.5864,137.6316 L342.8544,138.3036 L343.7964,137.3636 L344.3344,137.1616 L343.5274,138.6386 L342.2514,140.6556 L341.7134,140.6556 L341.2434,140.4536 L340.1014,140.7216 L337.9514,141.7306 L335.2634,143.9486 L333.8524,145.8976 L333.0464,148.5846 L332.8444,149.5926 L330.8954,149.7946 L328.4434,150.7176 L324.3094,147.3076 L319.0664,144.1506 L317.8564,143.8146 L312.6144,144.4186 L310.8014,144.6206 L310.1294,143.2776 L309.1874,142.4706 L302.3344,142.6726 L299.3104,143.0086 L295.5474,144.8906 L292.9934,145.9656 L292.3204,146.0996 L289.9014,146.5026 L287.0124,146.8386 L284.1894,147.0406 L284.3234,145.0256 L285.0624,144.4196 L286.2054,144.1516 L286.4744,142.6056 L288.2214,141.4626 L289.8344,140.8586 L291.5814,139.3796 L293.3954,138.5056 L293.6644,137.2296 L295.2764,135.6166 L295.5464,135.5486 C295.5464,135.5486 295.5464,136.0196 295.8824,136.0196 C296.2184,136.0196 296.6874,136.1536 296.6874,136.1536 L297.6294,134.6746 L298.5034,134.4066 L299.4434,134.5396 L300.1164,133.0626 L301.3264,131.9876 L301.5274,131.1136 L301.5274,129.4666 L303.4104,129.7696 L306.3764,129.2316 L312.9524,128.4246 L320.0754,127.3496 L328.6394,125.7816 L336.6054,124.1916 L341.3774,122.9816 L343.4224,122.3036 Z" id="Fill-78" fill="#FFFFFF"></path>
                <polygon id="Fill-80" fill="#FFFFFF" points="360.8646 72.9829 360.6646 71.2349 360.3286 69.4209 359.6226 66.9679 362.0086 66.3299 362.6796 66.7999 364.0916 68.6139 365.3006 70.4619 364.0906 71.1009 363.5526 71.0339 363.0826 71.7729 362.0736 72.5789"></polygon>
                <g id="Group-84" transform="translate(356.000000, 13.000000)">
                    <mask id="mask-2" fill="white">
                        <use xlink:href="#path-1"></use>
                    </mask>
                    <g id="Clip-83"></g>
                    <path d="M19.3822,27.458 L20.1212,28.231 C20.1212,28.231 20.6582,28.265 20.6582,28.13 C20.6582,27.996 20.7602,27.29 20.7602,27.29 L21.1302,26.954 L20.7942,26.215 L19.9542,26.517 L19.3822,27.458 Z M16.5932,29.91 L17.2312,29.272 L17.8022,29.709 L18.0372,30.717 L17.3312,31.087 L16.5932,29.91 Z M25.2942,17.378 L26.1002,18.252 L27.0412,19.798 L27.0412,20.604 L26.1672,22.553 L25.3612,22.822 L23.9492,24.099 L21.9342,26.384 L21.3962,26.384 C21.1272,26.384 20.9922,25.51 20.9922,25.51 L20.2542,25.577 L19.8512,26.182 L18.8432,26.787 L18.4402,27.392 L19.1112,27.997 L18.9092,28.266 L18.7082,29.408 L17.9022,29.341 L17.9022,28.669 L17.7682,28.131 L17.1632,28.265 L16.4242,26.921 L15.5502,27.459 L16.0882,28.064 L16.2222,28.534 L15.8862,29.072 L16.0202,30.349 L16.0872,31.021 L15.4152,32.096 L14.2052,32.298 L14.0702,33.508 L11.8532,34.785 L11.3152,34.987 L10.6432,34.382 L9.3652,35.86 L9.7692,37.204 L9.1642,37.742 L9.0972,39.556 L8.4412,42.724 L7.4172,42.243 L7.2152,40.966 L5.6022,40.496 L5.4682,39.354 L2.4442,29.61 L0.4632,23.468 L1.4782,23.325 L2.1072,23.495 L2.1072,22.42 L2.4432,20.135 L3.5182,18.186 L4.1232,16.506 L3.3172,15.498 L3.3172,13.012 L3.6532,12.609 L3.9882,11.467 L3.9222,10.862 L3.8552,8.846 L4.5942,6.83 L5.8042,3.134 L6.6782,1.387 L7.2162,1.387 L7.7542,1.454 L7.7542,1.924 L8.2922,2.865 L9.4342,3.134 L9.7702,2.798 L9.7702,2.395 L11.4492,1.185 L12.1892,0.446 L12.7942,0.513 L15.2792,1.521 L16.0862,1.924 L19.8492,14.356 L22.3352,14.356 L22.6712,15.162 L22.7372,17.178 L23.9472,18.119 L24.2832,18.119 L24.3512,17.917 L24.1492,17.447 L25.2942,17.378 Z" id="Fill-82" fill="#FFFFFF" mask="url(#mask-2)"></path>
                </g>
                <polygon id="Fill-85" fill="#FFFFFF" points="341.7806 77.351 341.3106 76.948 340.2356 76.881 339.2956 76.075 338.2876 73.857 337.0386 73.47 336.0686 72.58 328.3416 74.26 310.4666 77.889 306.7696 78.494 306.4636 75.617 307.5746 74.866 308.1126 74.396 308.5156 73.724 309.2556 73.254 310.0606 72.515 310.2626 71.843 311.1366 70.701 311.6066 70.298 311.5406 69.895 311.0026 68.618 310.2626 68.551 309.4576 65.997 310.6676 65.258 312.4806 64.653 314.1606 64.115 315.5056 63.913 318.1266 63.846 318.9316 64.384 319.6036 64.451 320.4776 63.913 321.5526 63.443 323.7026 63.241 324.5766 62.502 325.3156 61.158 325.9876 60.352 326.8616 60.352 327.6686 59.882 327.7346 58.941 327.1306 58.067 326.9956 57.462 327.4666 56.588 327.4666 55.983 326.7266 55.983 325.9876 55.647 325.6516 55.177 325.5856 54.102 328.0046 51.817 328.2726 51.481 328.8786 50.271 330.0886 48.389 331.2296 46.843 332.1036 45.835 333.1076 45.076 334.3886 44.558 336.6746 44.02 338.0176 44.087 339.8996 43.482 343.0456 42.621 343.2606 44.691 344.2686 47.379 344.6046 49.529 344.2016 51.142 345.2766 53.024 345.6126 53.898 345.2766 55.108 346.4866 55.646 346.7566 55.78 348.0326 60.35 348.2346 62.5 348.0326 67.002 348.3686 69.287 348.7046 70.765 349.3096 73.789 349.3096 77.149 348.8406 78.09 349.6046 78.918 349.5116 79.569 348.7066 80.308 348.8406 80.846 349.3786 80.712 349.9826 80.174 350.9246 79.099 351.3936 78.83 352.0656 79.099 353.0076 79.166 356.3006 77.553 357.5096 76.411 358.0486 75.806 359.7956 76.478 358.3846 77.956 356.7706 79.166 353.8136 81.384 352.7386 81.787 350.3196 82.593 348.6396 83.063 348.0096 82.841 347.7666 81.449 347.9686 80.307 347.9016 79.433 346.8266 78.963 344.9446 78.56 343.3326 78.09"></polygon>
                <path d="M338.5228,108.0952 L338.9928,109.1372 L339.0598,109.8762 L339.5298,110.6492 C339.5298,110.6492 339.8998,110.2792 339.8998,110.1452 C339.8998,110.0112 339.5978,108.8682 339.5978,108.8682 L339.2958,107.8942 L338.5228,108.0952 Z M345.3418,104.0302 L342.7898,104.5672 L340.7068,104.6342 L340.0338,102.0132 L339.1598,97.9812 L338.2188,95.6292 L337.6828,93.8012 L334.2328,94.4752 L328.0488,95.6492 L312.4808,98.7882 L312.9508,100.8712 L313.3538,103.2232 L313.4878,103.0892 L314.3618,102.0812 L315.3028,100.8042 L316.3108,100.7372 L316.9168,100.1322 L317.6548,99.0572 L318.1928,99.3262 L319.4028,99.1922 L320.4778,98.3182 L321.3118,97.7142 L322.0798,97.5122 L322.7628,97.9822 L323.9728,98.5872 L324.7788,99.3262 L325.2828,99.9642 L326.9978,100.6702 L326.9978,101.8802 L329.2818,102.4182 L330.0878,102.9562 L330.4908,102.1502 L331.4318,102.8222 L330.8278,104.1662 L330.6928,105.3082 L329.9548,106.3832 L329.9548,107.2572 L330.2228,107.9962 L332.3288,108.5602 L334.1208,108.5342 L335.3968,108.9372 L336.2708,109.0712 L336.6738,108.1972 L336.0688,107.3232 L336.0688,106.5842 L335.0608,105.7102 L334.1868,103.4252 L334.7248,101.2072 L334.6578,100.3332 L334.1208,99.7952 C334.1208,99.7952 334.7248,99.1232 334.7248,98.8542 C334.7248,98.5852 334.9268,97.9802 334.9268,97.9802 L335.7328,97.4422 L336.5398,96.7702 L336.7408,97.1732 L336.1358,97.8452 L335.5978,99.3912 L335.7318,99.8612 L336.4708,99.9952 L336.6728,102.2802 L335.7988,102.6832 L335.9328,104.1612 L336.1348,104.0942 L336.6048,103.2882 L337.2768,104.0272 L336.6048,104.5652 L336.4708,105.9762 L337.5458,107.3872 L339.1598,107.5892 L339.8318,107.2532 L341.1748,109.4032 L341.9148,109.6052 L341.9148,111.0832 L340.9728,113.0992 L340.7708,115.9892 L341.3768,117.4002 L341.9808,117.4672 L342.7878,115.7202 L343.1238,114.2422 L343.1898,111.2852 L344.4668,109.2692 L345.3408,106.3792 L345.3418,104.0302 Z" id="Fill-87" fill="#FFFFFF"></path>
                <polygon id="Fill-89" fill="#FFFFFF" points="103.016 127.4746 92.372 125.7636 81.063 123.8636 67.135 121.2936 67.996 117.0206 69.326 110.7016 70.704 103.8106 71.607 98.1566 72.415 94.4506 73.983 85.9436 75.456 78.6736 75.919 76.3576 81.205 77.2956 86.194 78.1506 90.471 78.9116 93.94 79.4806 95.936 79.8136 95.252 84.2326 94.558 89.1746 97.27 89.5606 104.29 90.5116 108.103 90.9996 106.817 100.1996 105.487 109.5126 103.927 121.1466 103.301 125.7626"></polygon>
                <path d="M55.995,72.0468 L36.491,67.4488 L50.461,70.8338 L56.163,72.0688 M56.116,71.8788 L57.969,64.3708 L59.775,57.0058 L60.345,55.2478 L61.39,52.7768 L60.867,51.8268 L59.822,51.8748 L59.489,51.4468 L59.679,50.9718 L59.822,49.6888 L61.675,47.4078 L62.435,47.2178 L62.91,46.7428 L63.148,45.4128 L63.528,45.1278 L65.144,42.7048 L66.76,40.8988 L66.855,39.3308 L65.429,38.2378 L64.993,36.4968 L59.156,35.0068 L52.884,33.5338 L46.469,33.5818 L46.279,33.0118 L43.998,33.8668 L42.145,33.6288 L41.147,32.9638 L40.624,33.2488 L38.676,33.1538 L37.963,32.5838 L35.777,31.7288 L35.444,31.7768 L33.638,31.1588 L32.83,31.9188 L30.264,31.7758 L27.793,30.0648 L28.078,29.7318 L28.173,26.5008 L27.223,24.8848 L25.512,24.6468 L25.227,23.6018 L24.248,23.4078 L21.838,24.2638 L20.897,26.9518 L19.553,31.1178 L18.209,33.8058 L16.126,39.6518 L13.438,45.2968 L10.078,50.5388 L9.272,51.7488 L8.936,55.3108 L8.398,57.7968 L9.324,59.6638 L12.255,60.6668 L17.007,61.9018 L20.143,62.7568 L25.37,64.4678 L30.977,65.8938 L36.584,67.5098" id="Fill-91" fill="#FFFFFF"></path>
                <polygon id="Fill-93" fill="#FFFFFF" points="194.3949 83.0258 193.9989 82.1758 193.2999 81.0018 194.0599 79.1958 194.6299 76.8198 193.4899 75.9648 193.2999 74.8248 193.6799 73.7798 194.4399 73.7798 194.6299 70.9288 194.5349 58.2888 194.3449 57.0538 192.6339 55.6278 192.1589 54.8678 192.1589 54.2028 193.0139 53.5378 193.5839 52.9678 193.7269 51.6378 169.5399 50.9728 146.1889 49.3568 145.8699 51.5518 145.1989 58.1478 144.6399 65.6078 143.9749 76.2988 150.4369 76.7268 158.7999 77.2018 166.2129 77.6768 176.0969 78.1518 180.5639 77.9618 181.4189 78.9118 183.4149 80.1468 183.8899 80.5268 185.6959 79.9568 187.3119 79.7668 188.4519 79.6718 189.2119 80.2418 191.3029 80.9068 192.5389 81.5718 192.7279 82.2368 193.1079 83.0918 193.8679 83.0918"></polygon>
                <polygon id="Fill-95" fill="#FFFFFF" points="257.5238 192.3457 257.0418 192.8677 254.8908 192.8677 254.2868 192.5327 253.4128 192.3987 250.5898 193.2037 249.8508 192.8677 248.7758 194.6157 248.3178 194.9387 247.8508 193.9047 247.3768 192.2877 245.9498 190.9567 246.4248 187.8217 246.1398 187.4417 245.3798 187.5357 241.9598 187.8217 231.8848 188.1067 231.6948 187.4417 231.9798 184.1157 233.4058 181.5487 235.5918 177.7477 235.2118 176.8937 235.6868 176.8937 235.9718 175.5627 235.0218 174.8017 235.1168 174.0417 234.2618 172.1407 234.1428 169.9197 234.7128 168.8157 234.5468 167.0087 233.9768 165.7747 234.5468 165.2037 233.9768 164.3487 234.1678 163.5887 234.5468 161.0237 235.7818 159.8827 235.4978 159.0287 237.0178 156.8417 238.1578 156.4617 238.1578 155.4167 237.8738 154.8467 239.0128 152.6607 240.1528 152.1857 240.1978 150.7677 243.8038 150.7367 253.8168 149.9297 256.0978 149.8347 256.1008 152.4847 256.1688 159.4067 255.8328 172.3077 255.7648 178.1547 256.9068 185.9497"></polygon>
                <polygon id="Fill-97" fill="#FFFFFF" points="254.6888 123.7187 254.6228 122.1067 254.8238 120.2237 255.7648 119.0137 256.5038 117.4007 257.5798 115.6537 257.3768 113.2347 256.6378 112.0937 256.5038 110.7487 256.8398 108.4637 256.6378 105.5737 256.0998 98.9207 255.5618 92.5367 255.1598 87.6647 256.4358 88.0347 257.0418 88.4377 257.5108 88.3037 258.3848 87.4977 259.5608 86.8257 261.6778 86.7587 270.8168 85.8177 273.3718 85.5487 273.4378 86.0187 274.0428 92.1347 274.7818 97.8457 275.8568 107.5897 276.0588 109.9417 275.8568 110.8827 276.4618 111.4887 276.5958 112.2937 275.4548 113.0997 273.8408 113.8387 272.6998 113.9727 272.4978 115.8547 270.5478 117.4677 269.3378 118.9467 269.4718 119.8867 269.1358 120.7607 267.1868 120.7607 266.7168 120.0887 266.2478 120.4247 265.0378 121.0967 265.1038 122.5077 264.2298 122.7097 263.8938 122.2397 263.0878 121.5687 261.8778 122.1727 261.1388 123.5167 260.3998 123.1807 259.7948 122.3747 258.3168 122.5767 255.8978 122.9807"></polygon>
                <polygon id="Fill-99" fill="#FFFFFF" points="228.8431 102.0058 227.5131 100.6758 227.0381 99.7258 223.8071 100.0108 219.7201 100.2008 209.1711 100.5808 203.5641 100.6758 200.2841 100.7238 199.3351 100.7718 199.8581 101.8168 199.7631 102.7668 200.8081 104.3828 202.0911 106.0938 203.3741 107.2338 204.3231 107.3288 204.8941 107.7088 204.8941 108.9438 204.1341 109.6088 203.9441 110.5588 204.7991 111.9848 205.8441 113.2198 206.8891 113.9798 207.4591 118.8268 207.1741 133.5098 207.2691 135.4578 207.4591 138.3098 217.1531 138.1188 226.8471 137.8338 235.4951 137.4538 240.0571 137.2638 240.8171 138.4988 240.6271 139.4488 239.2961 140.5888 239.0111 141.8238 241.5771 142.0138 243.6681 141.7298 244.5231 139.0688 244.4641 136.7288 245.6641 136.1218 246.2341 135.4568 247.0891 134.9828 247.1841 133.6518 247.5641 132.8908 246.9941 131.8808 245.7591 132.0348 244.9991 131.1798 244.3341 129.4688 244.7141 128.2348 243.8591 126.9038 243.0041 124.8138 241.1031 124.5278 238.4421 122.3418 237.4921 120.7268 237.7771 119.3958 238.7271 116.9238 239.0121 115.4028 237.8721 114.8328 235.2111 114.6428 234.8311 114.0728 234.9261 112.2668 232.6451 110.7458 229.6041 107.6098 228.6541 104.5688 228.4641 103.0478"></polygon>
                <polygon id="Fill-101" fill="#FFFFFF" points="341.7806 77.3505 340.9066 78.3585 340.9066 79.6355 340.1006 80.9125 340.0336 81.5845 340.5716 82.1225 340.5056 83.1305 339.5636 83.6005 339.8996 84.7425 339.9676 85.2125 341.1086 85.3465 341.5116 86.4215 342.9896 87.4295 343.9976 88.1015 343.9976 88.4375 342.6536 89.7145 341.9816 90.6555 341.3776 91.7975 340.4356 92.3355 339.9316 92.6375 339.8306 93.1415 339.5776 94.2255 340.0316 95.1585 341.3766 96.3685 343.3916 97.3095 345.0716 97.5785 345.1386 98.1835 344.8026 98.5865 344.9366 99.7285 345.2726 99.7285 346.1466 98.7205 346.4826 96.7045 347.6246 95.0245 348.9016 92.3365 349.3716 90.0515 349.1026 89.5815 349.0356 85.6835 348.3636 84.2725 347.8936 84.6085 346.7526 84.7425 346.5506 84.5405 347.0196 84.1375 347.8936 83.3315 347.9206 82.8765 347.7596 81.4495 347.9626 80.3075 347.8946 79.4335 346.8196 78.9635 344.9376 78.5605 343.3246 78.0905"></polygon>
                <polygon id="Stroke-103" stroke="#E75F52" stroke-linecap="round" stroke-linejoin="round" points="341.7806 77.3505 340.9066 78.3585 340.9066 79.6355 340.1006 80.9125 340.0336 81.5845 340.5716 82.1225 340.5056 83.1305 339.5636 83.6005 339.8996 84.7425 339.9676 85.2125 341.1086 85.3465 341.5116 86.4215 342.9896 87.4295 343.9976 88.1015 343.9976 88.4375 342.6536 89.7145 341.9816 90.6555 341.3776 91.7975 340.4356 92.3355 339.9316 92.6375 339.8306 93.1415 339.5776 94.2255 340.0316 95.1585 341.3766 96.3685 343.3916 97.3095 345.0716 97.5785 345.1386 98.1835 344.8026 98.5865 344.9366 99.7285 345.2726 99.7285 346.1466 98.7205 346.4826 96.7045 347.6246 95.0245 348.9016 92.3365 349.3716 90.0515 349.1026 89.5815 349.0356 85.6835 348.3636 84.2725 347.8936 84.6085 346.7526 84.7425 346.5506 84.5405 347.0196 84.1375 347.8936 83.3315 347.9206 82.8765 347.7596 81.4495 347.9626 80.3075 347.8946 79.4335 346.8196 78.9635 344.9376 78.5605 343.3246 78.0905"></polygon>
            </g>
        </g>
    </g>
</svg>