<?xml version="1.0" encoding="UTF-8"?>
<svg width="150px" height="301px" viewBox="0 0 150 301" version="1.1" xmlns="http://www.w3.org/2000/svg" xmlns:xlink="http://www.w3.org/1999/xlink">
    <!-- Generator: Sketch 64 (93537) - https://sketch.com -->
    <title>152</title>
    <desc>Created with Sketch.</desc>
    <g id="152" stroke="none" stroke-width="1" fill="none" fill-rule="evenodd">
        <g id="Group-5" transform="translate(-1.000000, 0.000000)">
            <path d="M66.989,0.4996 L66.989,0.9696 C66.519,1.4396 65.462,0.7346 65.11,1.2046 C63.7,2.8486 64.875,3.5516 64.875,5.0796 C64.875,6.0186 64.993,7.1926 64.64,8.1316 C64.522,8.3676 63.7,7.8976 63.7,8.2486 C63.818,8.7186 64.64,8.8366 64.64,9.4246 C64.758,10.4806 63.23,11.3036 63.582,12.3596 C63.935,13.2986 66.168,13.4166 64.17,15.0606 C63.582,15.5306 62.642,16.1176 61.937,15.7656 C61.351,15.5306 61.937,14.3566 61.467,13.7696 C59.353,10.2476 60.881,18.2326 58.412,11.3046 C57.943,10.0116 60.645,9.6596 61.82,9.1896 C62.171,9.0726 61.231,9.6596 60.88,9.5416 C60.41,9.3076 60.527,8.1326 59.94,8.1326 C59,8.1326 58.53,9.3086 57.708,9.5416 C56.768,9.7776 56.768,8.1326 56.415,7.8986 C55.827,7.5466 55.005,7.6626 54.417,7.3106 C53.36,6.6076 52.185,2.7316 52.068,1.9096 C51.95,1.2046 53.242,0.8526 53.947,0.9706 C55.122,1.2056 53.947,2.0276 54.182,2.4976 C54.652,3.0836 54.887,1.0886 55.71,1.0886 C57.943,1.2056 58.294,1.5586 60.057,2.7326 C60.175,2.8496 59.822,2.3806 59.939,2.2626 C60.174,1.6756 59.351,1.0886 58.764,0.8536 C58.177,0.6186 57.589,0.6166 56.884,0.4996 L66.989,0.4996 Z M83.205,0.4996 C82.735,1.5566 82.382,2.8486 81.559,2.4956 C81.326,2.2616 81.208,1.4386 81.326,0.4996 L83.205,0.4996 Z M149.005,103.0126 C149.71,103.9516 151.356,106.1836 149.945,106.6526 C148.535,107.1226 144.891,105.2436 146.068,106.3006 C148.3,108.1786 143.835,110.8806 143.247,112.2886 C143.247,112.4056 144.657,117.4556 143.012,116.8696 C138.547,115.1066 143.834,112.1726 142.307,109.5876 C139.957,105.4776 136.315,107.0056 133.259,103.7166 L133.142,103.1296 C133.024,103.1296 132.908,103.1296 132.789,103.2466 C132.789,103.1296 132.673,103.1296 132.673,103.0116 L132.673,103.2466 C130.322,103.7166 130.792,106.4166 128.796,107.0046 C127.033,107.4746 127.737,105.0066 125.74,107.2396 C125.505,107.5916 125.74,108.1776 125.622,108.6476 C125.504,108.7646 124.213,111.2326 124.213,111.3496 C123.859,112.2876 124.564,115.3416 124.681,116.1636 C124.681,116.5156 124.448,116.7506 124.448,117.1026 C124.448,117.8076 124.564,118.3946 124.681,119.0986 C125.035,120.0376 125.857,120.7426 125.974,121.6826 C126.563,125.7926 125.505,122.9746 124.093,124.2646 C122.45,125.9096 123.978,126.3796 123.508,128.3746 C123.388,128.8446 122.919,129.0806 122.802,129.5506 C122.802,129.6676 121.275,128.2586 121.04,128.1416 C120.687,127.9056 116.34,126.3796 115.987,126.8496 C115.516,127.3196 115.869,128.2586 115.516,128.7286 C114.108,131.1936 112.226,129.6676 110.229,130.0206 C109.64,130.0206 108.82,130.6076 108.349,130.2546 C107.761,129.7846 107.997,128.8456 107.645,128.2596 C106.822,126.8506 104.12,123.2096 102.71,122.3876 C98.01,119.6866 100.124,126.7326 100.124,126.7326 C99.419,126.8496 98.832,126.0276 98.127,126.0276 C97.774,126.0276 97.187,126.3796 97.303,126.6136 C97.422,126.7326 97.539,126.8496 97.657,126.8496 L97.422,126.8496 C96.482,127.0836 95.19,126.4976 94.719,127.3196 C94.366,127.9056 95.893,128.2586 96.247,128.8446 C96.599,129.5506 96.835,130.3716 96.835,131.1936 C96.835,132.6026 94.837,133.6596 95.191,135.0686 C95.306,136.1256 99.42,135.8906 95.542,138.3566 C94.485,139.0616 86.377,135.0686 84.733,137.1826 C84.028,138.1216 86.965,144.8156 84.615,145.7556 L80.854,144.1106 C80.15,144.1106 77.917,148.2206 77.799,149.1606 C77.564,150.4526 77.564,152.0966 76.625,153.2706 C75.92,154.0926 74.627,152.8006 74.98,154.9146 C75.45,157.4986 78.505,157.7316 77.212,160.9036 C76.507,162.8986 72.63,167.4786 71.924,169.5926 C71.689,170.6496 73.217,171.5886 72.864,172.6456 L70.28,174.8766 C69.34,175.3466 67.459,174.2886 66.989,175.3466 L68.164,179.9256 C68.164,179.9256 67.576,183.4486 67.576,183.5656 L67.929,187.9106 C67.811,188.3806 67.224,188.4966 67.106,188.9666 C66.049,192.1386 64.404,195.4256 63.346,198.7136 C62.641,200.8286 67.576,199.6526 66.753,205.4076 C65.932,210.9266 62.758,205.4076 57.941,208.4606 C56.413,209.3996 53.829,213.3916 53.476,215.2696 C53.358,215.8576 54.064,216.3276 53.946,216.7976 C53.828,218.0896 52.184,218.9116 52.184,220.2036 C52.184,234.4116 53.946,209.7536 53.946,223.9616 C53.946,224.6666 53.125,225.1356 53.125,225.8406 C53.006,226.6616 53.476,227.3676 53.594,228.1896 C53.594,228.8926 53.006,229.7166 53.125,230.4196 C53.241,232.1816 55.122,233.7076 55.357,235.4696 C55.592,238.0536 53.712,241.3396 54.299,243.8076 C55.004,246.5076 59.469,246.2736 59.939,249.2086 L58.646,253.9056 C57.707,254.7276 55.356,254.1406 55.474,255.3146 C56.062,260.3646 59.116,259.0726 57.823,265.7646 L57.941,269.1706 C56.883,271.8716 53.125,272.1066 52.89,272.9286 C52.771,273.1636 53.359,273.2806 53.359,273.6336 C53.594,274.1036 53.829,274.6906 53.594,275.1606 C53.241,275.8656 52.066,275.9826 51.832,276.8046 C51.127,278.9176 54.416,283.6146 51.832,287.2546 C50.774,288.7816 50.304,287.6086 49.951,286.4326 C50.069,286.4326 50.069,286.4326 50.186,286.3156 C50.656,285.9636 49.951,285.0236 49.598,284.5536 C47.131,280.6796 48.423,286.4326 44.545,282.7916 C44.192,282.4406 44.898,281.7346 44.898,281.2646 C44.898,280.5616 44.193,281.2646 44.193,281.2646 C43.489,280.2086 43.724,278.4476 43.959,278.6826 C43.959,278.4476 43.84,278.3306 43.84,278.2126 C43.605,277.0386 43.254,275.9816 43.019,274.8056 C42.9,274.1026 43.959,272.5756 43.135,272.5756 C40.198,272.5756 45.251,276.2146 42.314,278.2126 C42.196,278.2126 42.079,278.0936 42.079,277.9776 C41.961,277.2726 42.314,276.4506 42.079,275.8636 C41.726,275.2756 40.551,274.2196 40.434,274.8056 C40.316,275.7446 41.492,276.3336 41.844,277.1546 C42.079,277.6246 41.374,278.6826 41.609,279.2696 C42.549,281.7346 43.254,280.4426 42.549,282.0876 C42.549,282.2036 42.549,282.5576 42.314,282.5576 C42.079,282.5576 41.844,281.8516 41.609,282.0876 C40.786,283.6126 41.844,285.6096 40.904,285.6096 C40.434,285.6096 41.022,284.0826 40.669,284.3186 C38.672,285.6096 42.432,286.9006 37.497,286.9006 C36.909,286.9006 37.497,285.7276 37.027,285.3736 C36.439,285.0206 35.382,283.7286 35.029,284.3176 C34.676,285.1386 36.204,285.6086 36.557,286.4306 C36.675,286.7826 33.502,287.0176 33.15,288.1926 C33.032,288.6626 34.324,289.1316 33.971,289.4836 C33.383,290.1886 31.857,289.6026 31.269,290.1886 C30.916,290.6596 32.444,290.7766 32.327,291.2466 C31.622,296.0606 30.682,289.8376 30.094,292.3026 C29.976,292.5386 30.447,292.7726 30.329,293.0086 C29.741,293.8306 26.687,297.4696 26.569,297.5886 C26.334,297.8226 25.981,297.1186 25.746,297.3526 C25.041,297.9386 25.158,299.4676 24.218,299.5836 C23.513,299.8186 23.397,297.8216 22.574,298.0586 C21.751,298.2926 22.104,299.8186 21.516,300.2886 C21.046,300.6406 20.223,300.0536 19.754,300.2886 C19.4,300.4076 19.284,300.8766 18.93,300.9936 C17.756,301.6986 18.109,300.6416 16.463,300.6416 C15.64,300.6416 14.701,301.9336 14.231,301.3476 C13.761,300.7596 15.758,300.2896 15.523,299.5846 C15.172,298.9986 14.466,300.5226 13.761,300.5226 C12.821,300.6406 11.88,300.2886 10.94,299.9366 C8.943,298.9986 12.821,297.7066 13.173,296.8826 C13.291,296.4126 12.468,295.9436 11.998,296.0606 C11.528,296.1796 11.645,297.2366 11.058,297.3526 C10.354,297.4696 9.649,297.0006 8.944,296.6496 C7.534,296.0616 6.711,293.9486 6.007,293.4786 C5.653,293.1266 4.948,293.3616 4.479,293.1266 C3.656,292.6566 2.246,289.6036 2.363,288.7816 C2.363,288.0786 3.186,287.6086 3.421,286.7856 C3.539,286.0806 2.598,284.3206 3.421,284.5546 C4.361,284.7906 3.656,286.7856 4.596,287.1396 C5.066,287.4906 5.182,285.9636 5.771,285.7296 C6.006,285.4946 6.24,285.7296 6.475,285.9646 C6.24,285.3776 6.122,284.7916 5.887,284.2026 C5.771,283.3816 7.532,283.6156 8.003,283.0296 C8.238,282.7936 6.945,283.0296 7.063,282.6756 C7.298,282.0896 7.886,281.7366 8.473,281.5026 C9.178,281.0326 10.589,281.3836 10.94,280.5636 C11.41,279.5056 8.12,281.0336 7.415,280.3276 C6.945,280.9146 6.71,280.9146 6.71,279.8576 C6.828,278.9186 8.826,278.6846 8.591,277.8626 C8.238,276.9236 6.828,276.6866 5.888,276.9236 C4.361,277.3936 4.949,281.0336 3.421,280.9156 C2.598,280.9156 3.186,279.3886 2.833,278.8026 C2.598,278.4506 2.128,278.2156 1.658,277.9806 C1.658,277.9806 1.658,278.0966 1.776,278.0966 C1.658,278.0966 1.658,278.0966 1.541,278.2156 C1.541,278.0966 1.659,277.9806 1.659,277.9806 C1.306,277.7456 0.954,277.5106 0.954,277.1576 C0.954,276.5716 2.364,277.6276 2.835,277.2766 C3.54,276.6886 3.305,275.1626 4.128,274.8096 C4.716,274.4586 5.068,275.7486 5.655,275.8676 C5.89,275.9846 5.539,275.2796 5.774,275.1626 C6.009,274.9276 6.36,275.2786 6.595,275.1626 C7.065,275.0456 5.421,275.0456 5.538,274.5756 C5.538,274.4586 10.356,272.3446 10.003,272.3446 C6.242,272.1096 8.593,275.2796 4.95,271.9926 C4.832,271.8756 5.538,271.9926 5.654,271.7576 C5.889,271.5226 5.654,270.9356 6.008,270.8186 C6.477,270.4666 7.065,270.9356 7.535,270.5836 C7.77,270.4666 7.417,270.1136 7.417,269.8786 C7.652,269.4086 7.887,269.0566 8.122,268.8216 C8.71,268.4696 10.003,268.8216 10.12,268.2346 C10.238,267.5296 8.592,267.6476 8.592,267.0606 C8.474,266.8256 8.71,266.4746 8.945,266.1216 C8.71,266.1216 8.357,265.5356 8.122,265.7706 C7.534,266.1216 7.182,266.7086 6.829,267.1786 C6.359,268.1176 6.594,269.2926 5.889,269.9966 C5.538,270.3486 5.654,269.0576 5.538,268.7046 C4.833,267.4136 4.245,267.7656 4.715,266.5906 C5.184,265.6516 7.064,263.5376 6.008,263.7726 C4.833,264.1266 4.01,269.2916 2.6,266.7086 C2.247,265.8866 1.895,264.9466 1.66,264.0076 C1.542,263.0686 3.305,264.0076 5.42,263.3046 C5.89,263.1876 6.125,262.7176 6.243,262.1306 C5.42,262.9516 3.894,261.1916 3.894,260.7216 C3.894,259.6636 5.539,259.4296 6.478,258.9596 C6.243,257.6676 5.185,258.8426 4.246,259.8986 C4.246,259.8986 4.128,259.8986 4.128,259.7816 C4.01,259.6626 3.893,259.4296 3.658,259.1936 C4.011,259.5476 4.128,260.0166 4.246,259.8996 C3.658,260.4866 3.188,260.9566 2.836,261.0726 C2.248,261.0726 2.483,259.8996 2.248,259.4296 C2.13,259.1936 0.016,257.0806 0.603,256.9636 C1.426,256.9636 2.131,257.6686 2.836,258.2546 C2.836,258.1386 2.718,257.9036 2.836,257.6686 C3.071,256.8466 4.481,256.8466 5.185,256.2596 C5.304,256.1426 5.069,255.6726 4.834,255.7896 C3.894,255.9066 2.366,257.0816 1.543,256.6116 C0.486,256.0246 1.308,253.3236 1.896,252.9706 C2.719,252.3836 3.659,254.1446 4.717,254.1446 C4.835,254.2616 7.184,251.4436 9.768,252.7366 C10.592,253.0876 10.708,254.2616 11.531,254.6146 C12.354,254.9666 10.826,252.8526 13.529,252.1486 C16.936,251.2096 13.411,257.1986 17.054,256.9636 C19.287,256.7286 16.231,254.8496 16.349,253.3236 C16.467,251.6796 22.459,255.5546 21.637,251.4446 C21.519,250.6226 19.992,252.1496 19.288,251.9146 C18.818,251.7986 18.699,251.0926 18.699,250.6226 C18.699,249.3306 21.99,248.0406 20.815,247.5706 C17.878,246.3946 18.818,251.7986 18.583,252.3846 C18.583,252.5016 17.173,252.8546 15.997,252.9716 C15.762,253.0886 15.879,252.6196 15.762,252.5016 C14.941,252.0316 14,251.7986 13.178,251.3286 L13.06,251.2096 C12.707,252.0316 12.355,252.6186 12.12,252.8536 C12.002,252.9706 8.36,251.3286 7.42,251.3286 C7.067,251.2096 7.302,251.9146 7.067,252.0316 C5.775,252.6186 4.247,252.8536 2.955,252.5016 C2.72,252.5016 0.957,250.5056 1.192,250.1526 C1.78,249.3306 2.837,248.9796 3.66,248.7436 C4.6,248.5096 6.362,249.5656 6.362,248.6266 C6.48,247.8046 4.6,248.3916 3.66,248.5106 C3.072,248.5106 2.602,249.3316 2.015,249.0966 C-0.452,248.1576 2.485,246.8656 3.19,246.8656 C4.365,246.9826 6.362,248.3926 7.772,247.4526 C9.182,246.3946 3.66,247.8046 2.954,246.1616 C2.719,245.4556 5.656,245.5736 5.07,245.2226 C4.365,244.8706 3.307,245.3396 2.719,244.7526 C0.838,243.2246 3.659,240.1726 5.421,240.0556 C6.714,240.0556 8.359,240.2906 9.064,241.3466 C9.417,241.8166 8.359,242.6396 8.711,243.1086 C9.064,243.5786 8.829,241.7006 9.297,241.5836 C9.886,241.4666 10.121,242.6406 10.707,242.7566 C11.177,242.7566 9.767,241.9356 10.002,241.7006 C10.591,240.9956 13.41,243.4626 15.525,241.4656 C15.878,241.1136 14.939,240.8776 14.468,240.8776 C10.356,240.6436 16.465,241.8166 13.058,242.0536 C12.47,242.1706 8.828,240.4086 7.183,240.1746 C6.595,240.1746 6.125,239.8226 5.539,239.8226 C4.834,239.8226 3.541,240.8786 3.423,240.1746 C3.305,239.3526 5.185,239.3526 5.42,238.5296 C5.655,237.4736 3.306,237.0046 3.306,235.8296 C3.306,235.3596 4.481,235.8296 4.715,236.1816 C5.069,236.7686 5.069,238.1776 5.774,238.0606 C6.478,237.9436 4.95,236.0646 5.655,235.9466 C6.595,235.8296 7.065,237.7086 8.006,237.7086 C8.711,237.7086 8.476,235.4776 8.946,235.9466 C9.532,236.4166 8.711,237.4736 8.711,238.2956 C8.711,238.4126 8.476,238.7656 8.593,238.7656 C9.297,238.5296 8.946,237.0036 9.651,237.0036 C10.002,237.0036 9.767,237.8256 10.121,238.0606 C10.825,238.4126 12,239.1176 12.353,238.4126 C12.588,237.8256 10.825,238.0606 10.472,237.5906 C9.886,236.8856 9.651,236.0636 9.651,235.2416 C9.532,234.1846 11.295,233.3626 12.353,233.5976 C12.823,233.7146 12.588,234.6546 12.823,235.1246 C13.176,235.8296 13.763,236.2986 13.998,237.0036 C13.998,237.2386 13.41,237.7086 13.645,237.7086 C13.998,237.7086 14.114,237.2386 14.114,237.0036 C13.645,234.6546 11.059,233.1286 15.173,232.4246 C16.582,232.1886 16.817,234.1846 16.817,236.0636 C16.935,235.8286 17.052,235.4766 17.287,235.3586 C17.992,234.7716 19.989,236.0636 19.755,235.2416 C19.52,234.3036 17.874,235.1246 17.052,234.5366 C16.464,234.0666 16.699,233.0096 16.229,232.4236 C15.641,231.6016 12.469,230.5446 11.999,230.1926 C11.881,230.0756 12.352,229.7226 12.704,229.7226 C13.174,229.6056 13.762,229.6056 14.232,229.8386 C14.467,229.9556 14.348,230.5446 14.583,230.5446 C14.937,230.6616 16.346,228.1956 17.991,229.4866 C18.46,229.8386 17.756,231.0146 18.344,231.2486 C18.814,231.4846 18.109,229.9566 18.579,229.7236 C19.4,229.2536 21.163,231.8366 21.163,231.9536 C21.868,232.0726 23.277,231.4856 22.926,230.8956 C22.573,230.1936 21.163,231.3666 20.575,230.8956 C19.752,230.1936 21.398,228.9006 22.691,228.4306 C21.751,228.7846 20.928,229.0176 20.105,229.0176 C13.056,229.1366 19.284,228.3146 19.048,226.9046 C18.929,225.9656 17.403,226.0826 16.815,225.2596 C15.992,224.3206 16.345,223.4996 19.518,223.8506 C20.222,223.9696 20.222,225.2596 20.927,225.4956 C21.397,225.6126 21.75,224.7896 22.22,224.7896 C22.925,224.6736 23.512,224.6736 24.217,224.7896 C24.099,224.6736 23.982,224.4386 23.866,224.3196 C23.747,223.6166 24.687,222.9116 25.393,222.7946 C25.746,222.6776 25.393,223.4996 25.628,223.8506 C25.981,224.3206 26.803,224.3206 27.038,224.9086 C27.273,225.3786 26.568,226.0826 27.038,226.4356 C27.626,227.0226 29.152,228.0786 29.622,227.2576 C29.975,226.4356 27.743,226.0836 27.625,225.1436 C27.625,224.5566 28.917,225.0266 29.387,224.6736 C29.622,224.4386 28.564,224.9086 28.329,224.6736 C28.213,224.5566 29.034,224.0866 28.799,224.2036 C28.213,224.3196 27.742,225.1426 27.272,224.9086 C26.449,224.4386 26.214,223.3806 25.979,222.5596 C25.744,222.2076 26.567,222.9116 26.919,223.0296 C27.272,223.2646 25.744,221.8556 26.919,222.0906 C27.037,222.0906 31.737,224.5566 31.266,221.3856 C30.796,217.5106 27.506,224.7896 28.211,219.7416 C28.327,218.6846 31.148,216.8056 31.971,217.2756 C32.676,217.6276 31.853,219.1546 32.441,219.8596 C32.676,220.2116 33.029,219.2726 33.38,219.0376 C33.968,218.8026 35.613,218.8026 35.143,218.3326 C34.79,217.8626 33.146,219.5066 33.264,218.8026 C33.264,217.9796 34.556,217.7456 35.143,217.0406 C35.848,216.3356 35.848,214.9266 36.788,214.8096 C37.493,214.5756 37.141,215.9856 37.493,216.5716 C37.728,217.0416 38.55,217.2766 38.55,217.8636 C38.55,218.5686 37.493,218.9206 37.611,219.6256 C37.729,220.0956 38.315,219.0386 38.785,219.1556 C39.49,219.2726 40.313,221.0346 40.666,220.4476 C41.019,219.5086 39.256,218.8036 39.373,217.8636 C39.373,216.9256 44.191,218.0986 44.308,218.0986 C45.131,217.5116 45.248,216.2196 45.131,215.2806 C45.013,214.8106 43.603,215.7506 43.722,215.2806 C44.073,213.7536 48.891,213.5186 48.656,212.3456 C48.54,211.4066 45.719,211.4066 46.307,210.5826 C46.777,209.7606 48.891,209.9966 49.009,209.0576 C49.362,204.3606 45.132,210.1136 44.191,210.9366 C43.722,211.2886 42.312,211.6396 42.663,212.2286 C43.133,213.0496 44.544,212.5796 45.366,212.9316 C45.484,212.9316 45.131,213.0486 45.013,213.1676 C44.425,213.5186 43.721,213.7536 43.132,214.2236 C42.546,214.6936 39.607,217.2766 38.668,217.0416 C38.08,216.9256 38.315,215.9856 38.08,215.5166 C37.845,215.0466 37.022,214.6936 37.257,214.2236 C37.61,213.4016 38.784,213.2846 39.489,212.6986 C39.607,212.5796 39.019,213.0496 38.784,212.9326 C38.549,212.9326 39.137,212.3466 39.019,212.4626 C38.198,212.8146 36.905,214.6936 35.729,214.2246 C33.967,213.5196 36.552,211.9936 37.845,211.1716 C38.549,210.8206 39.489,210.8206 39.959,210.1146 C40.312,209.7626 38.901,210.4686 38.432,210.3506 C38.197,210.3506 38.314,210.1146 38.314,209.8806 C38.432,209.0586 38.314,208.2356 38.783,207.5316 C39.018,207.1796 39.723,207.7666 40.076,207.5316 C40.311,207.5316 39.606,207.5316 39.606,207.2966 C39.606,206.9426 39.724,206.5916 39.841,206.2396 C40.194,205.8876 41.016,206.7096 41.251,206.2396 C41.486,205.8876 41.133,205.1826 41.486,204.7126 C41.839,204.2426 42.895,204.3606 43.13,203.6546 C43.249,203.1846 41.603,202.5986 42.073,202.4816 C42.894,202.2476 43.6,203.6546 44.422,203.4206 C45.01,203.3036 43.483,202.7156 43.129,202.1286 C42.543,201.3076 44.304,200.3686 45.245,199.7796 C46.185,199.1926 46.538,201.8936 47.712,202.3636 C48.417,202.5986 49.357,202.3636 49.828,201.7776 C50.063,201.4236 48.183,201.7776 48.418,201.3076 C48.772,200.6016 50.299,200.7196 50.651,200.0146 C51.239,198.3706 47.009,202.7156 48.067,198.2526 C48.183,197.5496 48.418,197.0796 48.537,196.8436 C48.067,197.1976 47.597,197.5496 47.009,197.7826 C45.246,198.6036 50.299,195.5516 49.946,195.0816 C49.828,194.8476 49.593,194.8476 49.241,194.9646 L49.241,194.8486 C49.241,194.6126 48.418,194.8486 48.537,194.6126 C48.888,193.7916 52.531,194.0256 53.119,193.7916 C53.353,193.5556 52.884,192.9696 53.119,192.7336 C54.881,191.0906 57.231,192.1476 57.818,188.7416 C57.818,188.1546 56.878,189.3286 56.408,189.5636 C55.822,189.6806 55.234,189.5636 54.646,189.5636 C54.176,189.6806 53.353,190.3846 53.353,189.9146 C53.588,188.3896 57.818,188.3896 56.643,186.3926 C56.527,186.0406 55.469,186.2756 54.646,186.2756 C54.764,186.5106 54.999,186.7456 55.234,187.2146 C54.646,187.8016 54.176,188.5056 53.589,189.0936 C53.354,189.2106 52.885,189.9146 52.766,189.5626 C52.65,188.9756 52.65,185.6876 53.589,185.5706 C53.589,185.2186 53.589,184.9836 53.824,184.5136 C54.177,183.5746 55.705,184.0436 56.527,183.5746 C56.762,183.4576 55.939,183.5746 55.822,183.4576 C55.469,182.9876 55.117,182.4006 54.999,181.9306 C54.881,181.2256 55.939,178.5246 56.643,178.5246 C57.583,178.4076 58.053,179.9336 58.994,180.1696 C59.347,180.2856 58.641,179.3466 58.524,178.8766 C58.289,178.2906 58.406,177.2336 57.819,176.8816 C57.233,176.5296 56.175,177.4686 55.587,176.9986 C53.706,175.4716 57.584,176.0596 58.171,175.8246 C59.229,175.3536 59.346,173.8266 60.992,174.1806 C61.696,174.4156 62.05,175.3536 62.754,175.3536 C63.342,175.3536 61.815,174.6496 61.696,174.1806 L61.696,174.0636 C61.58,174.0636 61.461,174.1806 61.345,174.1806 C61.11,174.1806 61.345,173.4756 61.11,173.3576 C59.935,173.1236 59.112,175.2366 57.819,175.1206 C53.707,174.5336 60.052,173.7116 60.757,173.1246 C60.992,173.0076 60.287,173.0076 59.934,173.0076 C59.111,172.8886 58.406,173.2426 57.583,173.1246 C56.526,172.8886 56.878,171.0106 57.113,170.0716 C57.937,165.7266 59.699,167.6056 62.636,166.4326 C64.281,165.7266 60.757,164.5536 60.287,163.7306 C60.052,163.2606 61.345,163.6146 61.815,163.3786 C62.285,163.1446 59.817,161.3836 62.754,162.3226 C62.989,162.3226 62.401,162.7906 62.401,163.0256 C62.52,164.6696 63.106,162.2046 63.106,161.9686 C63.106,161.8526 63.341,161.2656 63.459,161.4986 C63.812,161.8526 63.341,162.9076 63.929,163.0256 C64.869,163.1446 66.162,162.6746 66.397,161.8526 C66.748,161.0296 65.104,160.6766 64.987,159.8566 C64.987,159.7376 67.807,158.0946 68.747,158.5646 C69.335,158.7986 68.159,160.6776 68.865,160.5596 C69.57,160.5596 68.747,158.9166 69.335,158.5646 C69.453,158.4476 69.453,158.4476 69.57,158.3286 C69.452,158.2116 69.335,158.0946 69.217,157.9776 C68.864,157.7416 69.922,157.0386 69.57,156.9206 C69.217,156.8036 68.982,157.6256 68.512,157.8586 C67.337,158.3286 65.928,159.2676 64.752,158.5646 C64.282,158.2106 65.692,157.5076 66.045,156.9206 C66.749,155.3936 66.984,151.8706 68.747,153.1626 C69.335,153.6326 66.984,154.3366 67.572,154.8066 C68.042,155.2766 68.747,153.9846 69.57,153.8676 C70.158,153.8676 70.745,154.1026 71.215,154.5726 C71.919,155.2776 73.212,157.8596 72.859,156.9216 C72.624,156.0996 71.45,155.3946 71.684,154.4556 C71.802,153.6336 73.212,153.5166 73.682,152.8116 C73.917,152.4596 72.977,153.0466 72.624,153.1636 C70.862,153.7506 70.275,154.5726 69.452,152.3416 C68.982,151.1676 70.04,151.8716 70.157,151.2856 C70.275,151.1666 69.804,151.4016 69.804,151.2856 C69.451,150.2276 72.741,151.8716 73.211,151.2856 C74.034,149.8766 70.391,148.7006 70.156,148.7006 C69.921,148.7006 70.391,149.1706 70.274,149.4066 C69.921,150.1096 67.923,152.5756 67.218,152.2236 C66.397,151.8716 66.278,150.5796 66.632,149.7576 C66.867,149.0526 68.041,149.5226 68.511,149.0526 C68.864,148.7006 67.453,149.5226 67.218,149.1696 C66.748,148.4666 68.746,147.9966 69.334,148.4666 C69.569,148.5826 69.099,149.1696 69.216,149.0526 C71.097,147.1746 74.151,148.3476 73.916,145.7656 C73.916,145.4116 73.211,146.1176 72.858,145.8816 C72.623,145.7656 72.976,145.2956 72.74,145.1786 C72.622,145.0596 72.622,145.6486 72.505,145.6486 C72.035,145.8826 71.682,145.7656 71.331,145.7656 C70.626,145.8816 69.686,146.4686 69.45,145.8816 C67.922,142.8296 72.505,144.9426 72.622,144.9426 C73.327,144.3566 72.74,143.0636 73.092,142.2416 C73.21,141.8906 73.445,143.0636 73.562,143.5336 C73.68,143.6506 74.032,143.4176 74.032,143.5336 C74.032,144.2396 73.562,144.9426 73.797,145.5296 C73.797,145.7656 76.383,149.5226 76.968,148.8176 C78.379,147.1746 72.504,142.0076 74.267,141.1856 C74.855,140.8316 76.029,141.7716 76.968,142.5936 C76.85,142.2416 76.85,141.8906 76.618,141.6556 C76.029,141.1856 74.267,141.4206 74.502,140.5986 C74.62,139.6596 76.147,139.7766 77.086,139.6596 C82.138,138.8376 77.909,141.3026 81.081,142.8306 C83.314,143.8876 78.497,139.1906 80.611,139.1906 C81.2,139.1906 81.551,139.8936 82.021,139.8936 C82.725,139.7776 83.784,139.7776 83.666,139.1906 C82.961,134.2586 80.024,139.1906 78.847,138.9546 C78.613,138.8386 79.318,138.6036 79.201,138.3686 C79.201,138.1336 78.847,137.7816 78.613,137.8986 C78.26,138.0146 78.26,138.7206 77.79,138.7206 C77.085,138.8376 75.911,138.9546 75.558,138.2506 C75.323,137.7806 75.44,137.1936 75.676,136.7236 C75.088,136.8406 74.383,136.9586 74.031,137.3106 C73.443,137.8976 74.031,139.4236 73.326,139.8926 C72.856,140.2466 73.326,138.4836 72.856,138.1326 C72.268,137.7806 71.563,137.8976 70.977,138.0136 C70.507,138.1326 70.742,139.0716 70.389,139.4226 C70.036,139.7766 69.566,140.1286 69.214,140.4806 C68.744,140.9506 68.391,141.4196 68.039,141.8896 L68.039,141.4196 C68.392,140.5976 69.097,139.7756 69.214,138.9526 C69.332,138.4826 68.744,137.8966 68.979,137.4276 C69.567,136.8406 70.742,137.0756 71.33,136.4886 C73.797,134.1396 67.451,134.8446 70.86,131.2036 C73.327,128.3856 72.857,133.6696 72.269,136.2536 C72.504,135.7836 72.857,135.4316 73.209,135.3146 C73.444,135.1976 73.679,136.0196 73.797,135.7846 C74.15,135.1976 73.562,129.5616 75.56,132.2616 C76.618,133.6706 76.968,134.7276 76.968,135.3146 C77.439,135.0796 77.792,134.8446 78.143,134.8446 C78.614,134.8446 78.848,135.7836 79.319,135.7836 C80.259,135.9006 81.316,135.6666 82.138,135.1966 C83.314,134.4916 79.672,135.4316 79.437,133.9046 C79.437,133.4346 80.025,132.8486 80.611,132.8486 L80.845,132.8486 C80.73,132.7296 80.611,132.7296 80.611,132.4946 C80.611,131.7896 82.021,132.0266 82.609,131.5566 C82.726,131.4396 82.138,131.4396 82.021,131.3206 C81.2,130.7336 80.845,129.4416 81.081,128.3846 C81.2,127.4456 83.549,128.2686 83.784,127.3286 C84.018,126.6226 83.43,125.9196 83.196,125.2136 C83.196,126.0366 83.078,126.5066 82.961,126.6226 C82.137,126.6226 81.316,125.9196 80.61,126.3886 C79.435,126.8586 79.201,128.3836 78.496,129.4406 C77.908,129.0896 76.85,129.0896 76.85,128.5016 C77.086,127.5626 78.614,127.4446 78.848,126.5066 C79.084,126.0366 77.555,127.0926 77.439,126.6226 C77.204,125.9196 78.497,125.3316 78.379,124.5096 C78.379,124.0396 76.734,124.6266 77.086,124.3926 C78.731,123.5706 81.434,124.2736 80.259,122.7486 C79.789,122.2786 78.026,122.5136 78.496,122.1616 C79.084,121.8096 80.024,122.8646 80.729,122.5136 C81.433,122.0436 81.08,120.5176 81.786,120.2826 C82.961,119.9306 83.196,122.1616 83.314,124.0406 C83.314,123.3346 83.549,122.7486 83.784,122.1616 C84.372,121.2226 84.607,124.5106 85.427,124.9796 C86.251,125.4496 87.308,124.9796 88.131,124.6276 C88.249,124.6276 84.606,123.3346 84.841,122.5136 C85.076,121.6916 85.898,120.6346 86.719,120.7516 C87.543,120.7516 87.425,122.2786 88.012,122.8646 C88.6,123.4526 89.423,123.3346 90.129,123.9226 C90.48,124.2736 90.833,125.8016 91.068,125.3316 C92.008,122.5136 85.076,123.2176 87.661,117.6986 C88.131,116.7596 90.129,115.5846 91.068,116.2896 C91.89,116.7596 90.833,122.2786 90.833,122.5136 C91.068,122.7486 91.421,122.1616 91.538,121.8086 C91.656,121.1036 91.068,120.1646 91.538,119.5776 C91.89,118.9906 93.419,119.9296 93.536,119.2256 C93.536,118.5206 91.89,118.6386 91.655,117.9336 C91.42,117.3466 92.594,112.2966 94.357,114.4106 C94.827,115.1156 94.357,121.6916 94.357,121.9266 C94.122,122.7486 92.594,124.1576 93.418,124.3926 C95.532,125.0976 94.475,120.9866 95.18,120.5176 C95.885,120.0476 96.943,120.5176 97.648,120.1656 C98.001,119.9306 97.059,119.6956 96.825,119.4606 C96.002,118.7556 94.241,117.8166 94.946,116.1726 C98.001,109.3626 94.946,117.1116 98.47,114.7636 C99.41,114.1766 98.47,112.4146 99.175,111.5926 C99.41,111.3586 99.763,111.7116 99.998,111.9446 C100.233,112.1806 100.116,112.6506 100.35,112.8836 C100.939,113.3536 101.643,113.4706 102.232,113.9406 C102.702,114.2926 103.054,114.9986 103.641,115.2326 C104.228,115.3496 102.584,114.4106 102.348,113.8236 C102.348,113.7066 102.819,113.7066 102.819,113.4716 C103.053,111.8286 102.701,109.3626 102.466,109.4796 C101.878,109.4796 98.47,112.4146 97.531,109.0096 C97.061,107.1306 100.468,106.3086 101.408,106.5436 C102.231,106.6606 102.701,107.7166 103.524,107.9526 C103.759,107.9526 103.406,107.2476 103.641,107.1306 C103.877,106.8946 104.346,107.1306 104.581,107.2476 C105.286,107.2476 106.109,107.1306 106.697,107.3636 C108.224,107.8336 106.226,111.2406 109.399,111.0036 C109.987,110.8876 110.339,110.0646 110.221,109.4786 C110.221,109.1246 109.516,109.5946 109.164,109.4786 C108.813,109.3616 108.224,109.2426 108.224,108.8916 C108.224,108.4216 109.634,108.6556 109.164,107.8336 C108.695,107.1306 108.578,106.4246 109.048,104.1946 L109.048,103.9596 C108.813,104.4296 108.46,104.8986 108.108,105.4846 C107.52,104.8986 106.463,104.5456 106.227,103.8416 C105.638,101.7286 112.69,96.6796 109.987,102.3146 C111.045,101.3756 112.573,102.4316 112.925,102.0796 C113.51,101.7286 111.632,101.7286 111.397,101.1406 C110.574,99.1446 114.099,99.4966 114.335,99.1446 C114.804,98.0876 111.162,96.7956 111.162,96.4436 C111.28,95.7406 112.925,97.3826 113.16,96.7956 C113.63,95.9736 112.102,95.0336 112.337,94.0946 C112.69,93.1556 119.153,93.7436 119.269,94.0946 C119.504,94.4466 116.332,100.2016 116.449,100.5536 C116.449,100.6706 116.567,100.6706 116.683,100.6706 C116.449,100.6706 116.331,100.6706 116.331,100.7896 C116.566,101.1406 117.271,100.5536 117.624,100.7896 C119.152,101.8456 115.626,102.3146 117.624,102.9026 C118.328,103.1376 117.154,104.1946 117.036,104.8986 C117.036,105.1336 116.801,108.5386 118.798,106.5426 C119.152,106.1906 118.798,105.4856 118.917,105.0156 C119.033,104.3106 119.386,103.8416 119.622,103.2536 C119.856,102.5486 118.563,103.3706 118.917,102.3146 C119.622,100.3196 121.501,92.5676 122.794,91.8646 C122.794,91.8646 123.615,94.9166 123.615,95.1526 C123.38,95.8556 122.206,96.2096 122.323,97.0316 C122.441,97.5016 123.498,96.2096 123.849,96.6796 C124.32,97.2656 123.38,98.7926 124.085,99.1446 C124.908,99.7316 126.083,99.1446 126.788,98.5576 C127.257,98.0876 125.73,97.7356 125.73,97.1496 C125.73,96.3266 125.377,95.2706 125.847,94.5646 C126.201,93.7436 127.376,93.6256 127.962,92.9216 C128.197,92.6856 127.376,92.9216 127.14,92.8046 C126.318,92.4526 124.908,92.2166 124.908,91.2766 C124.79,90.5736 126.671,91.3956 127.022,90.8066 C127.492,89.9856 126.436,89.0466 126.671,88.2246 C126.789,87.6376 127.611,89.3976 128.198,89.0466 C129.137,88.6946 129.843,87.8726 131.723,89.1636 C133.133,90.1026 129.256,95.1526 128.903,95.8566 C128.785,96.0926 129.608,95.5046 129.725,95.2706 C130.43,94.6836 130.784,93.3916 131.605,93.1556 C132.194,93.0386 131.84,94.2136 131.723,94.8006 C131.371,95.6226 129.961,96.4436 130.43,97.2656 C130.901,97.9716 132.075,95.8566 132.78,96.3266 C132.899,96.4436 133.014,96.5626 133.014,96.6806 C133.25,96.5636 133.719,96.9146 133.955,96.7966 C134.66,96.0936 132.898,95.5046 132.898,95.5046 C132.779,95.0346 132.663,91.0436 133.133,90.3376 C135.247,87.6376 136.658,92.8046 136.775,92.8046 C144.412,93.1556 132.898,88.2246 140.417,90.5736 C144.294,91.7466 141.474,91.8656 140.886,93.3916 C140.769,93.6256 141.474,93.5076 141.71,93.3916 C142.414,93.1556 143.002,92.5686 143.707,92.4526 C143.942,92.4526 143.707,92.9226 143.825,93.0386 C144.177,93.2746 144.648,93.2746 145,93.3926 C145.118,93.5086 145.235,93.7446 145.469,93.8626 C146.057,94.3326 146.998,94.6846 147.468,95.3876 C147.584,95.6236 146.998,95.6236 146.762,95.8576 C146.175,96.2116 145.353,96.3276 145,96.9146 C144.295,97.8536 144.882,99.4986 143.942,99.9676 C141.358,101.2606 138.183,99.4976 136.07,101.8466 C135.717,102.0816 136.775,101.4946 137.245,101.4946 C137.831,101.4946 138.301,101.6116 138.888,101.7306 C139.007,101.8466 139.124,101.9646 139.242,101.9646 C140.181,102.0816 141.474,101.3776 142.063,102.1996 C142.532,102.7866 140.653,103.6076 141.005,104.3136 C141.358,104.9006 141.828,102.6686 142.532,102.7866 C143.355,103.0216 143.12,104.9006 142.766,106.0746 C142.884,105.8396 143.002,105.7226 143.12,105.6046 C143.943,105.2526 145.118,105.8396 146.057,105.4856 C146.293,105.3696 145.353,105.0156 145.353,104.6646 C145.235,103.8426 145.353,103.1366 145.588,102.4336 C145.706,102.1986 145.469,103.1366 145.823,103.1366 C146.762,103.3726 147.702,103.1366 148.643,103.0206 L149.005,103.0206 L149.005,103.0126 Z M119.982,91.2696 C120.1,92.2086 118.455,92.4456 117.868,93.1486 C113.168,88.5696 119.511,88.5696 119.982,91.2696 L119.982,91.2696 Z M102.122,100.4296 C102.592,100.4296 102.827,101.2526 103.179,101.0166 C103.65,100.6646 102.357,99.3736 102.827,99.4896 C103.062,99.6066 103.062,100.1946 103.415,100.1946 C103.65,100.0776 103.179,99.4896 103.415,99.3736 C104.471,98.9036 104.003,101.8386 105.059,100.3126 C105.295,100.0766 104.47,99.6066 104.706,99.3736 C105.411,98.4346 106.587,98.0806 107.643,97.3756 C107.643,97.4946 107.526,97.4946 107.526,97.4946 C107.526,97.6106 107.996,97.6106 107.996,97.7286 C107.878,98.1986 107.408,98.6676 107.173,99.1376 C106.233,101.7226 104.94,102.7776 102.12,103.2476 C102.355,102.5426 103.177,101.7226 102.825,101.0166 C102.707,100.8996 102.471,100.7826 102.237,100.7826 C102.24,100.6646 102.005,100.4296 102.122,100.4296 L102.122,100.4296 Z M101.3,100.8996 L100.83,100.8996 C100.594,100.7826 100.83,100.8996 101.3,100.8996 L101.3,100.8996 Z M94.25,109.2356 C94.485,108.7656 95.19,108.5326 95.777,108.2966 C95.896,108.1796 96.247,108.2966 96.131,108.4156 C95.777,109.3546 95.191,110.1756 94.72,110.9976 C94.602,110.4116 94.014,109.8246 94.25,109.2356 L94.25,109.2356 Z M92.016,112.1726 L92.135,112.4066 C92.135,112.5236 92.016,112.6426 92.016,112.7586 C92.016,112.5236 91.9,112.4066 92.016,112.1726 L92.016,112.1726 Z M85.791,114.4026 C86.731,111.8206 96.131,112.4066 88.023,116.1646 C87.435,115.4606 85.555,115.2246 85.791,114.4026 L85.791,114.4026 Z M69.457,133.5436 C69.692,133.7786 68.987,134.0136 69.104,134.3656 C69.339,135.6576 72.394,135.5396 68.164,137.3016 C67.694,137.4186 67.224,136.8316 66.637,136.5966 C69.692,134.1306 67.929,133.7786 67.929,134.4826 C68.048,135.8916 66.519,134.9526 65.815,135.4216 C65.227,135.6566 64.757,137.6526 64.64,136.9486 C64.287,134.9526 67.343,131.5486 69.457,133.5436 L69.457,133.5436 Z M60.057,144.2306 C60.292,143.5246 59.822,142.2326 60.527,142.1166 C64.874,141.2936 60.997,145.4036 59.587,145.7566 C59.587,145.6396 59.352,145.6396 59.352,145.5206 C59.587,145.0506 59.94,144.6996 60.057,144.2306 L60.057,144.2306 Z M31.035,211.2806 C31.623,211.3976 31.27,212.2196 31.388,212.8056 C31.27,212.9226 31.035,213.0406 30.918,213.0406 C30.448,213.1596 29.861,213.1596 29.391,213.2756 C24.454,213.9806 30.917,211.1616 31.035,211.2806 L31.035,211.2806 Z M9.18,233.2386 C9.65,233.0036 10.238,233.2386 10.825,233.3556 C10.825,233.2386 10.825,233.1206 10.941,233.1206 C10.941,233.0036 11.06,233.2376 11.06,233.3556 C10.941,233.4726 10.825,233.4726 10.707,233.5906 L10.825,233.4736 C10.355,233.7086 9.885,234.2966 9.415,234.2966 C9.063,234.2966 8.945,233.4736 9.18,233.2386 L9.18,233.2386 Z M1.543,278.3316 C1.659,278.2146 1.659,278.2146 1.778,278.0956 C2.012,279.2716 2.482,280.5626 1.894,281.7356 C0.603,284.0846 1.308,279.7406 1.543,278.3316 L1.543,278.3316 Z M3.422,269.6406 L3.422,269.5236 L3.422,269.4066 C3.657,269.6416 4.01,269.7586 4.01,269.9936 C4.715,275.0436 2.129,271.4026 3.187,269.7586 C3.187,269.7586 3.187,269.8756 3.069,269.9936 C3.187,269.8756 3.422,269.7586 3.422,269.6406 L3.422,269.6406 Z M48.543,195.1936 C48.073,195.3106 47.72,195.4276 47.368,195.4276 C46.545,195.3106 47.603,195.3106 48.543,195.1936 L48.543,195.1936 Z M117.514,100.5466 C117.28,100.6636 116.927,100.6636 116.692,100.6636 C117.045,100.6646 117.75,100.4296 117.514,100.5466 L117.514,100.5466 Z M98.01,127.0846 L98.245,127.0846 L98.01,127.0846 Z" id="Fill-1" fill="#FFFFFF"></path>
            <path d="M66.989,0.4996 L66.989,0.9696 C66.519,1.4396 65.462,0.7346 65.11,1.2046 C63.7,2.8486 64.875,3.5516 64.875,5.0796 C64.875,6.0186 64.993,7.1926 64.64,8.1316 C64.522,8.3676 63.7,7.8976 63.7,8.2486 C63.818,8.7186 64.64,8.8366 64.64,9.4246 C64.758,10.4806 63.23,11.3036 63.582,12.3596 C63.935,13.2986 66.168,13.4166 64.17,15.0606 C63.582,15.5306 62.642,16.1176 61.937,15.7656 C61.351,15.5306 61.937,14.3566 61.467,13.7696 C59.353,10.2476 60.881,18.2326 58.412,11.3046 C57.943,10.0116 60.645,9.6596 61.82,9.1896 C62.171,9.0726 61.231,9.6596 60.88,9.5416 C60.41,9.3076 60.527,8.1326 59.94,8.1326 C59,8.1326 58.53,9.3086 57.708,9.5416 C56.768,9.7776 56.768,8.1326 56.415,7.8986 C55.827,7.5466 55.005,7.6626 54.417,7.3106 C53.36,6.6076 52.185,2.7316 52.068,1.9096 C51.95,1.2046 53.242,0.8526 53.947,0.9706 C55.122,1.2056 53.947,2.0276 54.182,2.4976 C54.652,3.0836 54.887,1.0886 55.71,1.0886 C57.943,1.2056 58.294,1.5586 60.057,2.7326 C60.175,2.8496 59.822,2.3806 59.939,2.2626 C60.174,1.6756 59.351,1.0886 58.764,0.8536 C58.177,0.6186 57.589,0.6166 56.884,0.4996 L66.989,0.4996 Z M83.205,0.4996 C82.735,1.5566 82.382,2.8486 81.559,2.4956 C81.326,2.2616 81.208,1.4386 81.326,0.4996 L83.205,0.4996 Z M149.005,103.0126 C149.71,103.9516 151.356,106.1836 149.945,106.6526 C148.535,107.1226 144.891,105.2436 146.068,106.3006 C148.3,108.1786 143.835,110.8806 143.247,112.2886 C143.247,112.4056 144.657,117.4556 143.012,116.8696 C138.547,115.1066 143.834,112.1726 142.307,109.5876 C139.957,105.4776 136.315,107.0056 133.259,103.7166 L133.142,103.1296 C133.024,103.1296 132.908,103.1296 132.789,103.2466 C132.789,103.1296 132.673,103.1296 132.673,103.0116 L132.673,103.2466 C130.322,103.7166 130.792,106.4166 128.796,107.0046 C127.033,107.4746 127.737,105.0066 125.74,107.2396 C125.505,107.5916 125.74,108.1776 125.622,108.6476 C125.504,108.7646 124.213,111.2326 124.213,111.3496 C123.859,112.2876 124.564,115.3416 124.681,116.1636 C124.681,116.5156 124.448,116.7506 124.448,117.1026 C124.448,117.8076 124.564,118.3946 124.681,119.0986 C125.035,120.0376 125.857,120.7426 125.974,121.6826 C126.563,125.7926 125.505,122.9746 124.093,124.2646 C122.45,125.9096 123.978,126.3796 123.508,128.3746 C123.388,128.8446 122.919,129.0806 122.802,129.5506 C122.802,129.6676 121.275,128.2586 121.04,128.1416 C120.687,127.9056 116.34,126.3796 115.987,126.8496 C115.516,127.3196 115.869,128.2586 115.516,128.7286 C114.108,131.1936 112.226,129.6676 110.229,130.0206 C109.64,130.0206 108.82,130.6076 108.349,130.2546 C107.761,129.7846 107.997,128.8456 107.645,128.2596 C106.822,126.8506 104.12,123.2096 102.71,122.3876 C98.01,119.6866 100.124,126.7326 100.124,126.7326 C99.419,126.8496 98.832,126.0276 98.127,126.0276 C97.774,126.0276 97.187,126.3796 97.303,126.6136 C97.422,126.7326 97.539,126.8496 97.657,126.8496 L97.422,126.8496 C96.482,127.0836 95.19,126.4976 94.719,127.3196 C94.366,127.9056 95.893,128.2586 96.247,128.8446 C96.599,129.5506 96.835,130.3716 96.835,131.1936 C96.835,132.6026 94.837,133.6596 95.191,135.0686 C95.306,136.1256 99.42,135.8906 95.542,138.3566 C94.485,139.0616 86.377,135.0686 84.733,137.1826 C84.028,138.1216 86.965,144.8156 84.615,145.7556 L80.854,144.1106 C80.15,144.1106 77.917,148.2206 77.799,149.1606 C77.564,150.4526 77.564,152.0966 76.625,153.2706 C75.92,154.0926 74.627,152.8006 74.98,154.9146 C75.45,157.4986 78.505,157.7316 77.212,160.9036 C76.507,162.8986 72.63,167.4786 71.924,169.5926 C71.689,170.6496 73.217,171.5886 72.864,172.6456 L70.28,174.8766 C69.34,175.3466 67.459,174.2886 66.989,175.3466 L68.164,179.9256 C68.164,179.9256 67.576,183.4486 67.576,183.5656 L67.929,187.9106 C67.811,188.3806 67.224,188.4966 67.106,188.9666 C66.049,192.1386 64.404,195.4256 63.346,198.7136 C62.641,200.8286 67.576,199.6526 66.753,205.4076 C65.932,210.9266 62.758,205.4076 57.941,208.4606 C56.413,209.3996 53.829,213.3916 53.476,215.2696 C53.358,215.8576 54.064,216.3276 53.946,216.7976 C53.828,218.0896 52.184,218.9116 52.184,220.2036 C52.184,234.4116 53.946,209.7536 53.946,223.9616 C53.946,224.6666 53.125,225.1356 53.125,225.8406 C53.006,226.6616 53.476,227.3676 53.594,228.1896 C53.594,228.8926 53.006,229.7166 53.125,230.4196 C53.241,232.1816 55.122,233.7076 55.357,235.4696 C55.592,238.0536 53.712,241.3396 54.299,243.8076 C55.004,246.5076 59.469,246.2736 59.939,249.2086 L58.646,253.9056 C57.707,254.7276 55.356,254.1406 55.474,255.3146 C56.062,260.3646 59.116,259.0726 57.823,265.7646 L57.941,269.1706 C56.883,271.8716 53.125,272.1066 52.89,272.9286 C52.771,273.1636 53.359,273.2806 53.359,273.6336 C53.594,274.1036 53.829,274.6906 53.594,275.1606 C53.241,275.8656 52.066,275.9826 51.832,276.8046 C51.127,278.9176 54.416,283.6146 51.832,287.2546 C50.774,288.7816 50.304,287.6086 49.951,286.4326 C50.069,286.4326 50.069,286.4326 50.186,286.3156 C50.656,285.9636 49.951,285.0236 49.598,284.5536 C47.131,280.6796 48.423,286.4326 44.545,282.7916 C44.192,282.4406 44.898,281.7346 44.898,281.2646 C44.898,280.5616 44.193,281.2646 44.193,281.2646 C43.489,280.2086 43.724,278.4476 43.959,278.6826 C43.959,278.4476 43.84,278.3306 43.84,278.2126 C43.605,277.0386 43.254,275.9816 43.019,274.8056 C42.9,274.1026 43.959,272.5756 43.135,272.5756 C40.198,272.5756 45.251,276.2146 42.314,278.2126 C42.196,278.2126 42.079,278.0936 42.079,277.9776 C41.961,277.2726 42.314,276.4506 42.079,275.8636 C41.726,275.2756 40.551,274.2196 40.434,274.8056 C40.316,275.7446 41.492,276.3336 41.844,277.1546 C42.079,277.6246 41.374,278.6826 41.609,279.2696 C42.549,281.7346 43.254,280.4426 42.549,282.0876 C42.549,282.2036 42.549,282.5576 42.314,282.5576 C42.079,282.5576 41.844,281.8516 41.609,282.0876 C40.786,283.6126 41.844,285.6096 40.904,285.6096 C40.434,285.6096 41.022,284.0826 40.669,284.3186 C38.672,285.6096 42.432,286.9006 37.497,286.9006 C36.909,286.9006 37.497,285.7276 37.027,285.3736 C36.439,285.0206 35.382,283.7286 35.029,284.3176 C34.676,285.1386 36.204,285.6086 36.557,286.4306 C36.675,286.7826 33.502,287.0176 33.15,288.1926 C33.032,288.6626 34.324,289.1316 33.971,289.4836 C33.383,290.1886 31.857,289.6026 31.269,290.1886 C30.916,290.6596 32.444,290.7766 32.327,291.2466 C31.622,296.0606 30.682,289.8376 30.094,292.3026 C29.976,292.5386 30.447,292.7726 30.329,293.0086 C29.741,293.8306 26.687,297.4696 26.569,297.5886 C26.334,297.8226 25.981,297.1186 25.746,297.3526 C25.041,297.9386 25.158,299.4676 24.218,299.5836 C23.513,299.8186 23.397,297.8216 22.574,298.0586 C21.751,298.2926 22.104,299.8186 21.516,300.2886 C21.046,300.6406 20.223,300.0536 19.754,300.2886 C19.4,300.4076 19.284,300.8766 18.93,300.9936 C17.756,301.6986 18.109,300.6416 16.463,300.6416 C15.64,300.6416 14.701,301.9336 14.231,301.3476 C13.761,300.7596 15.758,300.2896 15.523,299.5846 C15.172,298.9986 14.466,300.5226 13.761,300.5226 C12.821,300.6406 11.88,300.2886 10.94,299.9366 C8.943,298.9986 12.821,297.7066 13.173,296.8826 C13.291,296.4126 12.468,295.9436 11.998,296.0606 C11.528,296.1796 11.645,297.2366 11.058,297.3526 C10.354,297.4696 9.649,297.0006 8.944,296.6496 C7.534,296.0616 6.711,293.9486 6.007,293.4786 C5.653,293.1266 4.948,293.3616 4.479,293.1266 C3.656,292.6566 2.246,289.6036 2.363,288.7816 C2.363,288.0786 3.186,287.6086 3.421,286.7856 C3.539,286.0806 2.598,284.3206 3.421,284.5546 C4.361,284.7906 3.656,286.7856 4.596,287.1396 C5.066,287.4906 5.182,285.9636 5.771,285.7296 C6.006,285.4946 6.24,285.7296 6.475,285.9646 C6.24,285.3776 6.122,284.7916 5.887,284.2026 C5.771,283.3816 7.532,283.6156 8.003,283.0296 C8.238,282.7936 6.945,283.0296 7.063,282.6756 C7.298,282.0896 7.886,281.7366 8.473,281.5026 C9.178,281.0326 10.589,281.3836 10.94,280.5636 C11.41,279.5056 8.12,281.0336 7.415,280.3276 C6.945,280.9146 6.71,280.9146 6.71,279.8576 C6.828,278.9186 8.826,278.6846 8.591,277.8626 C8.238,276.9236 6.828,276.6866 5.888,276.9236 C4.361,277.3936 4.949,281.0336 3.421,280.9156 C2.598,280.9156 3.186,279.3886 2.833,278.8026 C2.598,278.4506 2.128,278.2156 1.658,277.9806 C1.658,277.9806 1.658,278.0966 1.776,278.0966 C1.658,278.0966 1.658,278.0966 1.541,278.2156 C1.541,278.0966 1.659,277.9806 1.659,277.9806 C1.306,277.7456 0.954,277.5106 0.954,277.1576 C0.954,276.5716 2.364,277.6276 2.835,277.2766 C3.54,276.6886 3.305,275.1626 4.128,274.8096 C4.716,274.4586 5.068,275.7486 5.655,275.8676 C5.89,275.9846 5.539,275.2796 5.774,275.1626 C6.009,274.9276 6.36,275.2786 6.595,275.1626 C7.065,275.0456 5.421,275.0456 5.538,274.5756 C5.538,274.4586 10.356,272.3446 10.003,272.3446 C6.242,272.1096 8.593,275.2796 4.95,271.9926 C4.832,271.8756 5.538,271.9926 5.654,271.7576 C5.889,271.5226 5.654,270.9356 6.008,270.8186 C6.477,270.4666 7.065,270.9356 7.535,270.5836 C7.77,270.4666 7.417,270.1136 7.417,269.8786 C7.652,269.4086 7.887,269.0566 8.122,268.8216 C8.71,268.4696 10.003,268.8216 10.12,268.2346 C10.238,267.5296 8.592,267.6476 8.592,267.0606 C8.474,266.8256 8.71,266.4746 8.945,266.1216 C8.71,266.1216 8.357,265.5356 8.122,265.7706 C7.534,266.1216 7.182,266.7086 6.829,267.1786 C6.359,268.1176 6.594,269.2926 5.889,269.9966 C5.538,270.3486 5.654,269.0576 5.538,268.7046 C4.833,267.4136 4.245,267.7656 4.715,266.5906 C5.184,265.6516 7.064,263.5376 6.008,263.7726 C4.833,264.1266 4.01,269.2916 2.6,266.7086 C2.247,265.8866 1.895,264.9466 1.66,264.0076 C1.542,263.0686 3.305,264.0076 5.42,263.3046 C5.89,263.1876 6.125,262.7176 6.243,262.1306 C5.42,262.9516 3.894,261.1916 3.894,260.7216 C3.894,259.6636 5.539,259.4296 6.478,258.9596 C6.243,257.6676 5.185,258.8426 4.246,259.8986 C4.246,259.8986 4.128,259.8986 4.128,259.7816 C4.01,259.6626 3.893,259.4296 3.658,259.1936 C4.011,259.5476 4.128,260.0166 4.246,259.8996 C3.658,260.4866 3.188,260.9566 2.836,261.0726 C2.248,261.0726 2.483,259.8996 2.248,259.4296 C2.13,259.1936 0.016,257.0806 0.603,256.9636 C1.426,256.9636 2.131,257.6686 2.836,258.2546 C2.836,258.1386 2.718,257.9036 2.836,257.6686 C3.071,256.8466 4.481,256.8466 5.185,256.2596 C5.304,256.1426 5.069,255.6726 4.834,255.7896 C3.894,255.9066 2.366,257.0816 1.543,256.6116 C0.486,256.0246 1.308,253.3236 1.896,252.9706 C2.719,252.3836 3.659,254.1446 4.717,254.1446 C4.835,254.2616 7.184,251.4436 9.768,252.7366 C10.592,253.0876 10.708,254.2616 11.531,254.6146 C12.354,254.9666 10.826,252.8526 13.529,252.1486 C16.936,251.2096 13.411,257.1986 17.054,256.9636 C19.287,256.7286 16.231,254.8496 16.349,253.3236 C16.467,251.6796 22.459,255.5546 21.637,251.4446 C21.519,250.6226 19.992,252.1496 19.288,251.9146 C18.818,251.7986 18.699,251.0926 18.699,250.6226 C18.699,249.3306 21.99,248.0406 20.815,247.5706 C17.878,246.3946 18.818,251.7986 18.583,252.3846 C18.583,252.5016 17.173,252.8546 15.997,252.9716 C15.762,253.0886 15.879,252.6196 15.762,252.5016 C14.941,252.0316 14,251.7986 13.178,251.3286 L13.06,251.2096 C12.707,252.0316 12.355,252.6186 12.12,252.8536 C12.002,252.9706 8.36,251.3286 7.42,251.3286 C7.067,251.2096 7.302,251.9146 7.067,252.0316 C5.775,252.6186 4.247,252.8536 2.955,252.5016 C2.72,252.5016 0.957,250.5056 1.192,250.1526 C1.78,249.3306 2.837,248.9796 3.66,248.7436 C4.6,248.5096 6.362,249.5656 6.362,248.6266 C6.48,247.8046 4.6,248.3916 3.66,248.5106 C3.072,248.5106 2.602,249.3316 2.015,249.0966 C-0.452,248.1576 2.485,246.8656 3.19,246.8656 C4.365,246.9826 6.362,248.3926 7.772,247.4526 C9.182,246.3946 3.66,247.8046 2.954,246.1616 C2.719,245.4556 5.656,245.5736 5.07,245.2226 C4.365,244.8706 3.307,245.3396 2.719,244.7526 C0.838,243.2246 3.659,240.1726 5.421,240.0556 C6.714,240.0556 8.359,240.2906 9.064,241.3466 C9.417,241.8166 8.359,242.6396 8.711,243.1086 C9.064,243.5786 8.829,241.7006 9.297,241.5836 C9.886,241.4666 10.121,242.6406 10.707,242.7566 C11.177,242.7566 9.767,241.9356 10.002,241.7006 C10.591,240.9956 13.41,243.4626 15.525,241.4656 C15.878,241.1136 14.939,240.8776 14.468,240.8776 C10.356,240.6436 16.465,241.8166 13.058,242.0536 C12.47,242.1706 8.828,240.4086 7.183,240.1746 C6.595,240.1746 6.125,239.8226 5.539,239.8226 C4.834,239.8226 3.541,240.8786 3.423,240.1746 C3.305,239.3526 5.185,239.3526 5.42,238.5296 C5.655,237.4736 3.306,237.0046 3.306,235.8296 C3.306,235.3596 4.481,235.8296 4.715,236.1816 C5.069,236.7686 5.069,238.1776 5.774,238.0606 C6.478,237.9436 4.95,236.0646 5.655,235.9466 C6.595,235.8296 7.065,237.7086 8.006,237.7086 C8.711,237.7086 8.476,235.4776 8.946,235.9466 C9.532,236.4166 8.711,237.4736 8.711,238.2956 C8.711,238.4126 8.476,238.7656 8.593,238.7656 C9.297,238.5296 8.946,237.0036 9.651,237.0036 C10.002,237.0036 9.767,237.8256 10.121,238.0606 C10.825,238.4126 12,239.1176 12.353,238.4126 C12.588,237.8256 10.825,238.0606 10.472,237.5906 C9.886,236.8856 9.651,236.0636 9.651,235.2416 C9.532,234.1846 11.295,233.3626 12.353,233.5976 C12.823,233.7146 12.588,234.6546 12.823,235.1246 C13.176,235.8296 13.763,236.2986 13.998,237.0036 C13.998,237.2386 13.41,237.7086 13.645,237.7086 C13.998,237.7086 14.114,237.2386 14.114,237.0036 C13.645,234.6546 11.059,233.1286 15.173,232.4246 C16.582,232.1886 16.817,234.1846 16.817,236.0636 C16.935,235.8286 17.052,235.4766 17.287,235.3586 C17.992,234.7716 19.989,236.0636 19.755,235.2416 C19.52,234.3036 17.874,235.1246 17.052,234.5366 C16.464,234.0666 16.699,233.0096 16.229,232.4236 C15.641,231.6016 12.469,230.5446 11.999,230.1926 C11.881,230.0756 12.352,229.7226 12.704,229.7226 C13.174,229.6056 13.762,229.6056 14.232,229.8386 C14.467,229.9556 14.348,230.5446 14.583,230.5446 C14.937,230.6616 16.346,228.1956 17.991,229.4866 C18.46,229.8386 17.756,231.0146 18.344,231.2486 C18.814,231.4846 18.109,229.9566 18.579,229.7236 C19.4,229.2536 21.163,231.8366 21.163,231.9536 C21.868,232.0726 23.277,231.4856 22.926,230.8956 C22.573,230.1936 21.163,231.3666 20.575,230.8956 C19.752,230.1936 21.398,228.9006 22.691,228.4306 C21.751,228.7846 20.928,229.0176 20.105,229.0176 C13.056,229.1366 19.284,228.3146 19.048,226.9046 C18.929,225.9656 17.403,226.0826 16.815,225.2596 C15.992,224.3206 16.345,223.4996 19.518,223.8506 C20.222,223.9696 20.222,225.2596 20.927,225.4956 C21.397,225.6126 21.75,224.7896 22.22,224.7896 C22.925,224.6736 23.512,224.6736 24.217,224.7896 C24.099,224.6736 23.982,224.4386 23.866,224.3196 C23.747,223.6166 24.687,222.9116 25.393,222.7946 C25.746,222.6776 25.393,223.4996 25.628,223.8506 C25.981,224.3206 26.803,224.3206 27.038,224.9086 C27.273,225.3786 26.568,226.0826 27.038,226.4356 C27.626,227.0226 29.152,228.0786 29.622,227.2576 C29.975,226.4356 27.743,226.0836 27.625,225.1436 C27.625,224.5566 28.917,225.0266 29.387,224.6736 C29.622,224.4386 28.564,224.9086 28.329,224.6736 C28.213,224.5566 29.034,224.0866 28.799,224.2036 C28.213,224.3196 27.742,225.1426 27.272,224.9086 C26.449,224.4386 26.214,223.3806 25.979,222.5596 C25.744,222.2076 26.567,222.9116 26.919,223.0296 C27.272,223.2646 25.744,221.8556 26.919,222.0906 C27.037,222.0906 31.737,224.5566 31.266,221.3856 C30.796,217.5106 27.506,224.7896 28.211,219.7416 C28.327,218.6846 31.148,216.8056 31.971,217.2756 C32.676,217.6276 31.853,219.1546 32.441,219.8596 C32.676,220.2116 33.029,219.2726 33.38,219.0376 C33.968,218.8026 35.613,218.8026 35.143,218.3326 C34.79,217.8626 33.146,219.5066 33.264,218.8026 C33.264,217.9796 34.556,217.7456 35.143,217.0406 C35.848,216.3356 35.848,214.9266 36.788,214.8096 C37.493,214.5756 37.141,215.9856 37.493,216.5716 C37.728,217.0416 38.55,217.2766 38.55,217.8636 C38.55,218.5686 37.493,218.9206 37.611,219.6256 C37.729,220.0956 38.315,219.0386 38.785,219.1556 C39.49,219.2726 40.313,221.0346 40.666,220.4476 C41.019,219.5086 39.256,218.8036 39.373,217.8636 C39.373,216.9256 44.191,218.0986 44.308,218.0986 C45.131,217.5116 45.248,216.2196 45.131,215.2806 C45.013,214.8106 43.603,215.7506 43.722,215.2806 C44.073,213.7536 48.891,213.5186 48.656,212.3456 C48.54,211.4066 45.719,211.4066 46.307,210.5826 C46.777,209.7606 48.891,209.9966 49.009,209.0576 C49.362,204.3606 45.132,210.1136 44.191,210.9366 C43.722,211.2886 42.312,211.6396 42.663,212.2286 C43.133,213.0496 44.544,212.5796 45.366,212.9316 C45.484,212.9316 45.131,213.0486 45.013,213.1676 C44.425,213.5186 43.721,213.7536 43.132,214.2236 C42.546,214.6936 39.607,217.2766 38.668,217.0416 C38.08,216.9256 38.315,215.9856 38.08,215.5166 C37.845,215.0466 37.022,214.6936 37.257,214.2236 C37.61,213.4016 38.784,213.2846 39.489,212.6986 C39.607,212.5796 39.019,213.0496 38.784,212.9326 C38.549,212.9326 39.137,212.3466 39.019,212.4626 C38.198,212.8146 36.905,214.6936 35.729,214.2246 C33.967,213.5196 36.552,211.9936 37.845,211.1716 C38.549,210.8206 39.489,210.8206 39.959,210.1146 C40.312,209.7626 38.901,210.4686 38.432,210.3506 C38.197,210.3506 38.314,210.1146 38.314,209.8806 C38.432,209.0586 38.314,208.2356 38.783,207.5316 C39.018,207.1796 39.723,207.7666 40.076,207.5316 C40.311,207.5316 39.606,207.5316 39.606,207.2966 C39.606,206.9426 39.724,206.5916 39.841,206.2396 C40.194,205.8876 41.016,206.7096 41.251,206.2396 C41.486,205.8876 41.133,205.1826 41.486,204.7126 C41.839,204.2426 42.895,204.3606 43.13,203.6546 C43.249,203.1846 41.603,202.5986 42.073,202.4816 C42.894,202.2476 43.6,203.6546 44.422,203.4206 C45.01,203.3036 43.483,202.7156 43.129,202.1286 C42.543,201.3076 44.304,200.3686 45.245,199.7796 C46.185,199.1926 46.538,201.8936 47.712,202.3636 C48.417,202.5986 49.357,202.3636 49.828,201.7776 C50.063,201.4236 48.183,201.7776 48.418,201.3076 C48.772,200.6016 50.299,200.7196 50.651,200.0146 C51.239,198.3706 47.009,202.7156 48.067,198.2526 C48.183,197.5496 48.418,197.0796 48.537,196.8436 C48.067,197.1976 47.597,197.5496 47.009,197.7826 C45.246,198.6036 50.299,195.5516 49.946,195.0816 C49.828,194.8476 49.593,194.8476 49.241,194.9646 L49.241,194.8486 C49.241,194.6126 48.418,194.8486 48.537,194.6126 C48.888,193.7916 52.531,194.0256 53.119,193.7916 C53.353,193.5556 52.884,192.9696 53.119,192.7336 C54.881,191.0906 57.231,192.1476 57.818,188.7416 C57.818,188.1546 56.878,189.3286 56.408,189.5636 C55.822,189.6806 55.234,189.5636 54.646,189.5636 C54.176,189.6806 53.353,190.3846 53.353,189.9146 C53.588,188.3896 57.818,188.3896 56.643,186.3926 C56.527,186.0406 55.469,186.2756 54.646,186.2756 C54.764,186.5106 54.999,186.7456 55.234,187.2146 C54.646,187.8016 54.176,188.5056 53.589,189.0936 C53.354,189.2106 52.885,189.9146 52.766,189.5626 C52.65,188.9756 52.65,185.6876 53.589,185.5706 C53.589,185.2186 53.589,184.9836 53.824,184.5136 C54.177,183.5746 55.705,184.0436 56.527,183.5746 C56.762,183.4576 55.939,183.5746 55.822,183.4576 C55.469,182.9876 55.117,182.4006 54.999,181.9306 C54.881,181.2256 55.939,178.5246 56.643,178.5246 C57.583,178.4076 58.053,179.9336 58.994,180.1696 C59.347,180.2856 58.641,179.3466 58.524,178.8766 C58.289,178.2906 58.406,177.2336 57.819,176.8816 C57.233,176.5296 56.175,177.4686 55.587,176.9986 C53.706,175.4716 57.584,176.0596 58.171,175.8246 C59.229,175.3536 59.346,173.8266 60.992,174.1806 C61.696,174.4156 62.05,175.3536 62.754,175.3536 C63.342,175.3536 61.815,174.6496 61.696,174.1806 L61.696,174.0636 C61.58,174.0636 61.461,174.1806 61.345,174.1806 C61.11,174.1806 61.345,173.4756 61.11,173.3576 C59.935,173.1236 59.112,175.2366 57.819,175.1206 C53.707,174.5336 60.052,173.7116 60.757,173.1246 C60.992,173.0076 60.287,173.0076 59.934,173.0076 C59.111,172.8886 58.406,173.2426 57.583,173.1246 C56.526,172.8886 56.878,171.0106 57.113,170.0716 C57.937,165.7266 59.699,167.6056 62.636,166.4326 C64.281,165.7266 60.757,164.5536 60.287,163.7306 C60.052,163.2606 61.345,163.6146 61.815,163.3786 C62.285,163.1446 59.817,161.3836 62.754,162.3226 C62.989,162.3226 62.401,162.7906 62.401,163.0256 C62.52,164.6696 63.106,162.2046 63.106,161.9686 C63.106,161.8526 63.341,161.2656 63.459,161.4986 C63.812,161.8526 63.341,162.9076 63.929,163.0256 C64.869,163.1446 66.162,162.6746 66.397,161.8526 C66.748,161.0296 65.104,160.6766 64.987,159.8566 C64.987,159.7376 67.807,158.0946 68.747,158.5646 C69.335,158.7986 68.159,160.6776 68.865,160.5596 C69.57,160.5596 68.747,158.9166 69.335,158.5646 C69.453,158.4476 69.453,158.4476 69.57,158.3286 C69.452,158.2116 69.335,158.0946 69.217,157.9776 C68.864,157.7416 69.922,157.0386 69.57,156.9206 C69.217,156.8036 68.982,157.6256 68.512,157.8586 C67.337,158.3286 65.928,159.2676 64.752,158.5646 C64.282,158.2106 65.692,157.5076 66.045,156.9206 C66.749,155.3936 66.984,151.8706 68.747,153.1626 C69.335,153.6326 66.984,154.3366 67.572,154.8066 C68.042,155.2766 68.747,153.9846 69.57,153.8676 C70.158,153.8676 70.745,154.1026 71.215,154.5726 C71.919,155.2776 73.212,157.8596 72.859,156.9216 C72.624,156.0996 71.45,155.3946 71.684,154.4556 C71.802,153.6336 73.212,153.5166 73.682,152.8116 C73.917,152.4596 72.977,153.0466 72.624,153.1636 C70.862,153.7506 70.275,154.5726 69.452,152.3416 C68.982,151.1676 70.04,151.8716 70.157,151.2856 C70.275,151.1666 69.804,151.4016 69.804,151.2856 C69.451,150.2276 72.741,151.8716 73.211,151.2856 C74.034,149.8766 70.391,148.7006 70.156,148.7006 C69.921,148.7006 70.391,149.1706 70.274,149.4066 C69.921,150.1096 67.923,152.5756 67.218,152.2236 C66.397,151.8716 66.278,150.5796 66.632,149.7576 C66.867,149.0526 68.041,149.5226 68.511,149.0526 C68.864,148.7006 67.453,149.5226 67.218,149.1696 C66.748,148.4666 68.746,147.9966 69.334,148.4666 C69.569,148.5826 69.099,149.1696 69.216,149.0526 C71.097,147.1746 74.151,148.3476 73.916,145.7656 C73.916,145.4116 73.211,146.1176 72.858,145.8816 C72.623,145.7656 72.976,145.2956 72.74,145.1786 C72.622,145.0596 72.622,145.6486 72.505,145.6486 C72.035,145.8826 71.682,145.7656 71.331,145.7656 C70.626,145.8816 69.686,146.4686 69.45,145.8816 C67.922,142.8296 72.505,144.9426 72.622,144.9426 C73.327,144.3566 72.74,143.0636 73.092,142.2416 C73.21,141.8906 73.445,143.0636 73.562,143.5336 C73.68,143.6506 74.032,143.4176 74.032,143.5336 C74.032,144.2396 73.562,144.9426 73.797,145.5296 C73.797,145.7656 76.383,149.5226 76.968,148.8176 C78.379,147.1746 72.504,142.0076 74.267,141.1856 C74.855,140.8316 76.029,141.7716 76.968,142.5936 C76.85,142.2416 76.85,141.8906 76.618,141.6556 C76.029,141.1856 74.267,141.4206 74.502,140.5986 C74.62,139.6596 76.147,139.7766 77.086,139.6596 C82.138,138.8376 77.909,141.3026 81.081,142.8306 C83.314,143.8876 78.497,139.1906 80.611,139.1906 C81.2,139.1906 81.551,139.8936 82.021,139.8936 C82.725,139.7776 83.784,139.7776 83.666,139.1906 C82.961,134.2586 80.024,139.1906 78.847,138.9546 C78.613,138.8386 79.318,138.6036 79.201,138.3686 C79.201,138.1336 78.847,137.7816 78.613,137.8986 C78.26,138.0146 78.26,138.7206 77.79,138.7206 C77.085,138.8376 75.911,138.9546 75.558,138.2506 C75.323,137.7806 75.44,137.1936 75.676,136.7236 C75.088,136.8406 74.383,136.9586 74.031,137.3106 C73.443,137.8976 74.031,139.4236 73.326,139.8926 C72.856,140.2466 73.326,138.4836 72.856,138.1326 C72.268,137.7806 71.563,137.8976 70.977,138.0136 C70.507,138.1326 70.742,139.0716 70.389,139.4226 C70.036,139.7766 69.566,140.1286 69.214,140.4806 C68.744,140.9506 68.391,141.4196 68.039,141.8896 L68.039,141.4196 C68.392,140.5976 69.097,139.7756 69.214,138.9526 C69.332,138.4826 68.744,137.8966 68.979,137.4276 C69.567,136.8406 70.742,137.0756 71.33,136.4886 C73.797,134.1396 67.451,134.8446 70.86,131.2036 C73.327,128.3856 72.857,133.6696 72.269,136.2536 C72.504,135.7836 72.857,135.4316 73.209,135.3146 C73.444,135.1976 73.679,136.0196 73.797,135.7846 C74.15,135.1976 73.562,129.5616 75.56,132.2616 C76.618,133.6706 76.968,134.7276 76.968,135.3146 C77.439,135.0796 77.792,134.8446 78.143,134.8446 C78.614,134.8446 78.848,135.7836 79.319,135.7836 C80.259,135.9006 81.316,135.6666 82.138,135.1966 C83.314,134.4916 79.672,135.4316 79.437,133.9046 C79.437,133.4346 80.025,132.8486 80.611,132.8486 L80.845,132.8486 C80.73,132.7296 80.611,132.7296 80.611,132.4946 C80.611,131.7896 82.021,132.0266 82.609,131.5566 C82.726,131.4396 82.138,131.4396 82.021,131.3206 C81.2,130.7336 80.845,129.4416 81.081,128.3846 C81.2,127.4456 83.549,128.2686 83.784,127.3286 C84.018,126.6226 83.43,125.9196 83.196,125.2136 C83.196,126.0366 83.078,126.5066 82.961,126.6226 C82.137,126.6226 81.316,125.9196 80.61,126.3886 C79.435,126.8586 79.201,128.3836 78.496,129.4406 C77.908,129.0896 76.85,129.0896 76.85,128.5016 C77.086,127.5626 78.614,127.4446 78.848,126.5066 C79.084,126.0366 77.555,127.0926 77.439,126.6226 C77.204,125.9196 78.497,125.3316 78.379,124.5096 C78.379,124.0396 76.734,124.6266 77.086,124.3926 C78.731,123.5706 81.434,124.2736 80.259,122.7486 C79.789,122.2786 78.026,122.5136 78.496,122.1616 C79.084,121.8096 80.024,122.8646 80.729,122.5136 C81.433,122.0436 81.08,120.5176 81.786,120.2826 C82.961,119.9306 83.196,122.1616 83.314,124.0406 C83.314,123.3346 83.549,122.7486 83.784,122.1616 C84.372,121.2226 84.607,124.5106 85.427,124.9796 C86.251,125.4496 87.308,124.9796 88.131,124.6276 C88.249,124.6276 84.606,123.3346 84.841,122.5136 C85.076,121.6916 85.898,120.6346 86.719,120.7516 C87.543,120.7516 87.425,122.2786 88.012,122.8646 C88.6,123.4526 89.423,123.3346 90.129,123.9226 C90.48,124.2736 90.833,125.8016 91.068,125.3316 C92.008,122.5136 85.076,123.2176 87.661,117.6986 C88.131,116.7596 90.129,115.5846 91.068,116.2896 C91.89,116.7596 90.833,122.2786 90.833,122.5136 C91.068,122.7486 91.421,122.1616 91.538,121.8086 C91.656,121.1036 91.068,120.1646 91.538,119.5776 C91.89,118.9906 93.419,119.9296 93.536,119.2256 C93.536,118.5206 91.89,118.6386 91.655,117.9336 C91.42,117.3466 92.594,112.2966 94.357,114.4106 C94.827,115.1156 94.357,121.6916 94.357,121.9266 C94.122,122.7486 92.594,124.1576 93.418,124.3926 C95.532,125.0976 94.475,120.9866 95.18,120.5176 C95.885,120.0476 96.943,120.5176 97.648,120.1656 C98.001,119.9306 97.059,119.6956 96.825,119.4606 C96.002,118.7556 94.241,117.8166 94.946,116.1726 C98.001,109.3626 94.946,117.1116 98.47,114.7636 C99.41,114.1766 98.47,112.4146 99.175,111.5926 C99.41,111.3586 99.763,111.7116 99.998,111.9446 C100.233,112.1806 100.116,112.6506 100.35,112.8836 C100.939,113.3536 101.643,113.4706 102.232,113.9406 C102.702,114.2926 103.054,114.9986 103.641,115.2326 C104.228,115.3496 102.584,114.4106 102.348,113.8236 C102.348,113.7066 102.819,113.7066 102.819,113.4716 C103.053,111.8286 102.701,109.3626 102.466,109.4796 C101.878,109.4796 98.47,112.4146 97.531,109.0096 C97.061,107.1306 100.468,106.3086 101.408,106.5436 C102.231,106.6606 102.701,107.7166 103.524,107.9526 C103.759,107.9526 103.406,107.2476 103.641,107.1306 C103.877,106.8946 104.346,107.1306 104.581,107.2476 C105.286,107.2476 106.109,107.1306 106.697,107.3636 C108.224,107.8336 106.226,111.2406 109.399,111.0036 C109.987,110.8876 110.339,110.0646 110.221,109.4786 C110.221,109.1246 109.516,109.5946 109.164,109.4786 C108.813,109.3616 108.224,109.2426 108.224,108.8916 C108.224,108.4216 109.634,108.6556 109.164,107.8336 C108.695,107.1306 108.578,106.4246 109.048,104.1946 L109.048,103.9596 C108.813,104.4296 108.46,104.8986 108.108,105.4846 C107.52,104.8986 106.463,104.5456 106.227,103.8416 C105.638,101.7286 112.69,96.6796 109.987,102.3146 C111.045,101.3756 112.573,102.4316 112.925,102.0796 C113.51,101.7286 111.632,101.7286 111.397,101.1406 C110.574,99.1446 114.099,99.4966 114.335,99.1446 C114.804,98.0876 111.162,96.7956 111.162,96.4436 C111.28,95.7406 112.925,97.3826 113.16,96.7956 C113.63,95.9736 112.102,95.0336 112.337,94.0946 C112.69,93.1556 119.153,93.7436 119.269,94.0946 C119.504,94.4466 116.332,100.2016 116.449,100.5536 C116.449,100.6706 116.567,100.6706 116.683,100.6706 C116.449,100.6706 116.331,100.6706 116.331,100.7896 C116.566,101.1406 117.271,100.5536 117.624,100.7896 C119.152,101.8456 115.626,102.3146 117.624,102.9026 C118.328,103.1376 117.154,104.1946 117.036,104.8986 C117.036,105.1336 116.801,108.5386 118.798,106.5426 C119.152,106.1906 118.798,105.4856 118.917,105.0156 C119.033,104.3106 119.386,103.8416 119.622,103.2536 C119.856,102.5486 118.563,103.3706 118.917,102.3146 C119.622,100.3196 121.501,92.5676 122.794,91.8646 C122.794,91.8646 123.615,94.9166 123.615,95.1526 C123.38,95.8556 122.206,96.2096 122.323,97.0316 C122.441,97.5016 123.498,96.2096 123.849,96.6796 C124.32,97.2656 123.38,98.7926 124.085,99.1446 C124.908,99.7316 126.083,99.1446 126.788,98.5576 C127.257,98.0876 125.73,97.7356 125.73,97.1496 C125.73,96.3266 125.377,95.2706 125.847,94.5646 C126.201,93.7436 127.376,93.6256 127.962,92.9216 C128.197,92.6856 127.376,92.9216 127.14,92.8046 C126.318,92.4526 124.908,92.2166 124.908,91.2766 C124.79,90.5736 126.671,91.3956 127.022,90.8066 C127.492,89.9856 126.436,89.0466 126.671,88.2246 C126.789,87.6376 127.611,89.3976 128.198,89.0466 C129.137,88.6946 129.843,87.8726 131.723,89.1636 C133.133,90.1026 129.256,95.1526 128.903,95.8566 C128.785,96.0926 129.608,95.5046 129.725,95.2706 C130.43,94.6836 130.784,93.3916 131.605,93.1556 C132.194,93.0386 131.84,94.2136 131.723,94.8006 C131.371,95.6226 129.961,96.4436 130.43,97.2656 C130.901,97.9716 132.075,95.8566 132.78,96.3266 C132.899,96.4436 133.014,96.5626 133.014,96.6806 C133.25,96.5636 133.719,96.9146 133.955,96.7966 C134.66,96.0936 132.898,95.5046 132.898,95.5046 C132.779,95.0346 132.663,91.0436 133.133,90.3376 C135.247,87.6376 136.658,92.8046 136.775,92.8046 C144.412,93.1556 132.898,88.2246 140.417,90.5736 C144.294,91.7466 141.474,91.8656 140.886,93.3916 C140.769,93.6256 141.474,93.5076 141.71,93.3916 C142.414,93.1556 143.002,92.5686 143.707,92.4526 C143.942,92.4526 143.707,92.9226 143.825,93.0386 C144.177,93.2746 144.648,93.2746 145,93.3926 C145.118,93.5086 145.235,93.7446 145.469,93.8626 C146.057,94.3326 146.998,94.6846 147.468,95.3876 C147.584,95.6236 146.998,95.6236 146.762,95.8576 C146.175,96.2116 145.353,96.3276 145,96.9146 C144.295,97.8536 144.882,99.4986 143.942,99.9676 C141.358,101.2606 138.183,99.4976 136.07,101.8466 C135.717,102.0816 136.775,101.4946 137.245,101.4946 C137.831,101.4946 138.301,101.6116 138.888,101.7306 C139.007,101.8466 139.124,101.9646 139.242,101.9646 C140.181,102.0816 141.474,101.3776 142.063,102.1996 C142.532,102.7866 140.653,103.6076 141.005,104.3136 C141.358,104.9006 141.828,102.6686 142.532,102.7866 C143.355,103.0216 143.12,104.9006 142.766,106.0746 C142.884,105.8396 143.002,105.7226 143.12,105.6046 C143.943,105.2526 145.118,105.8396 146.057,105.4856 C146.293,105.3696 145.353,105.0156 145.353,104.6646 C145.235,103.8426 145.353,103.1366 145.588,102.4336 C145.706,102.1986 145.469,103.1366 145.823,103.1366 C146.762,103.3726 147.702,103.1366 148.643,103.0206 L149.005,103.0206 L149.005,103.0126 Z M119.982,91.2696 C120.1,92.2086 118.455,92.4456 117.868,93.1486 C113.168,88.5696 119.511,88.5696 119.982,91.2696 Z M102.122,100.4296 C102.592,100.4296 102.827,101.2526 103.179,101.0166 C103.65,100.6646 102.357,99.3736 102.827,99.4896 C103.062,99.6066 103.062,100.1946 103.415,100.1946 C103.65,100.0776 103.179,99.4896 103.415,99.3736 C104.471,98.9036 104.003,101.8386 105.059,100.3126 C105.295,100.0766 104.47,99.6066 104.706,99.3736 C105.411,98.4346 106.587,98.0806 107.643,97.3756 C107.643,97.4946 107.526,97.4946 107.526,97.4946 C107.526,97.6106 107.996,97.6106 107.996,97.7286 C107.878,98.1986 107.408,98.6676 107.173,99.1376 C106.233,101.7226 104.94,102.7776 102.12,103.2476 C102.355,102.5426 103.177,101.7226 102.825,101.0166 C102.707,100.8996 102.471,100.7826 102.237,100.7826 C102.24,100.6646 102.005,100.4296 102.122,100.4296 Z M101.3,100.8996 L100.83,100.8996 C100.594,100.7826 100.83,100.8996 101.3,100.8996 Z M94.25,109.2356 C94.485,108.7656 95.19,108.5326 95.777,108.2966 C95.896,108.1796 96.247,108.2966 96.131,108.4156 C95.777,109.3546 95.191,110.1756 94.72,110.9976 C94.602,110.4116 94.014,109.8246 94.25,109.2356 Z M92.016,112.1726 L92.135,112.4066 C92.135,112.5236 92.016,112.6426 92.016,112.7586 C92.016,112.5236 91.9,112.4066 92.016,112.1726 Z M85.791,114.4026 C86.731,111.8206 96.131,112.4066 88.023,116.1646 C87.435,115.4606 85.555,115.2246 85.791,114.4026 Z M69.457,133.5436 C69.692,133.7786 68.987,134.0136 69.104,134.3656 C69.339,135.6576 72.394,135.5396 68.164,137.3016 C67.694,137.4186 67.224,136.8316 66.637,136.5966 C69.692,134.1306 67.929,133.7786 67.929,134.4826 C68.048,135.8916 66.519,134.9526 65.815,135.4216 C65.227,135.6566 64.757,137.6526 64.64,136.9486 C64.287,134.9526 67.343,131.5486 69.457,133.5436 Z M60.057,144.2306 C60.292,143.5246 59.822,142.2326 60.527,142.1166 C64.874,141.2936 60.997,145.4036 59.587,145.7566 C59.587,145.6396 59.352,145.6396 59.352,145.5206 C59.587,145.0506 59.94,144.6996 60.057,144.2306 Z M31.035,211.2806 C31.623,211.3976 31.27,212.2196 31.388,212.8056 C31.27,212.9226 31.035,213.0406 30.918,213.0406 C30.448,213.1596 29.861,213.1596 29.391,213.2756 C24.454,213.9806 30.917,211.1616 31.035,211.2806 Z M9.18,233.2386 C9.65,233.0036 10.238,233.2386 10.825,233.3556 C10.825,233.2386 10.825,233.1206 10.941,233.1206 C10.941,233.0036 11.06,233.2376 11.06,233.3556 C10.941,233.4726 10.825,233.4726 10.707,233.5906 L10.825,233.4736 C10.355,233.7086 9.885,234.2966 9.415,234.2966 C9.063,234.2966 8.945,233.4736 9.18,233.2386 Z M1.543,278.3316 C1.659,278.2146 1.659,278.2146 1.778,278.0956 C2.012,279.2716 2.482,280.5626 1.894,281.7356 C0.603,284.0846 1.308,279.7406 1.543,278.3316 Z M3.422,269.6406 L3.422,269.5236 L3.422,269.4066 C3.657,269.6416 4.01,269.7586 4.01,269.9936 C4.715,275.0436 2.129,271.4026 3.187,269.7586 C3.187,269.7586 3.187,269.8756 3.069,269.9936 C3.187,269.8756 3.422,269.7586 3.422,269.6406 Z M48.543,195.1936 C48.073,195.3106 47.72,195.4276 47.368,195.4276 C46.545,195.3106 47.603,195.3106 48.543,195.1936 Z M117.514,100.5466 C117.28,100.6636 116.927,100.6636 116.692,100.6636 C117.045,100.6646 117.75,100.4296 117.514,100.5466 Z M98.01,127.0846 L98.245,127.0846 L98.01,127.0846 Z" id="Stroke-3" stroke="#E75F52"></path>
        </g>
    </g>
</svg>