<?xml version="1.0" encoding="UTF-8"?>
<svg width="400px" height="222px" viewBox="0 0 400 222" version="1.1" xmlns="http://www.w3.org/2000/svg" xmlns:xlink="http://www.w3.org/1999/xlink">
    <!-- Generator: Sketch 64 (93537) - https://sketch.com -->
    <title>158</title>
    <desc>Created with Sketch.</desc>
    <g id="158" stroke="none" stroke-width="1" fill="none" fill-rule="evenodd">
        <g id="Group-5" transform="translate(-2.000000, 0.000000)">
            <path d="M287.456937,216.440628 L287.051927,216.359402 L286.638897,215.729564 C286.53731,214.55644 287.43555,212.018445 286.24057,211.207512 C286.503893,210.788064 286.620183,210.023736 286.594787,209.540371 C286.338147,209.243429 285.677833,207.941142 285.488027,207.842605 L284.91727,207.881221 L283.73432,207.870568 C283.331983,207.885215 282.94435,208.102263 282.562063,208.11691 C282.205173,208.132889 281.78145,207.983752 281.43258,208.021037 C280.813703,208.088947 279.370103,208.782701 279.180297,208.772049 L278.4732,208.072968 L277.53486,208.20879 L277.063017,208.011716 C276.866527,207.753389 276.603203,207.348588 276.533697,207.025013 C276.234283,207.036998 275.725013,206.782666 275.48575,206.62687 L275.20505,206.179459 L274.07423,206.014343 C273.60506,206.144838 273.014253,206.66016 272.71484,207.02235 C272.412753,206.999713 271.978337,206.344575 271.866057,206.115543 C272.102647,205.6668 272.206907,204.692082 272.24166,204.200728 C271.803233,202.594841 271.17901,202.34983 269.818283,201.781244 L268.990887,202.435051 C268.73692,202.480325 267.793233,202.403093 267.58204,202.218003 C267.33342,201.999624 266.983213,201.60947 266.705187,201.449681 C266.566173,201.371117 265.810957,201.208664 265.708033,201.136759 C265.11188,200.735953 264.499687,199.702645 263.74848,199.586798 L262.73395,200.681358 L261.285003,200.999606 C260.751673,201.116785 259.848087,200.297862 258.694543,200.93569 C258.28285,201.983645 257.722787,203.155437 257.061137,204.072897 C256.88336,204.319239 256.581273,204.508324 256.396813,204.752003 C256.16958,205.046283 256.027893,205.444426 255.79264,205.729384 C255.51595,206.060948 254.91445,206.409823 254.56157,206.682797 C254.516123,206.716086 254.191313,206.841255 254.12047,206.87055 C253.617883,206.632197 253.337183,206.183454 252.994997,205.762674 L252.607363,205.684111 L251.719817,206.700107 C251.6864,206.704102 251.50194,206.740055 251.479217,206.732065 C251.035443,206.562955 249.046483,205.779984 248.640137,205.783979 C248.10547,205.789306 247.477237,206.090243 246.933213,206.140843 C246.239483,206.206091 245.115347,205.926458 244.350773,205.90249 C244.210423,205.898495 244.124877,205.925127 243.9872,205.891837 C243.51001,205.782648 243.098317,205.337899 242.55964,205.377847 C241.2604,205.475052 239.76868,205.721395 238.46944,205.546958 C237.5311,205.423121 235.01683,204.403129 234.241563,203.937075 C233.77774,203.656112 232.256613,202.293903 231.947843,201.758608 L231.947843,202.182051 C231.5562,202.144766 231.152527,201.43237 230.873163,201.191354 C230.258297,200.657389 229.548527,200.175357 228.898907,199.678677 L228.90158,199.170013 L229.381443,198.494901 C229.023217,198.112737 228.844103,198.035505 228.373597,197.818457 L228.09958,198.682654 L227.330997,198.219263 L227.488723,197.300472 L227.18931,197.221908 L226.943363,196.910318 L225.88606,197.247208 L225.69358,196.65066 L224.760587,196.349722 L224.18181,195.662626 C223.81289,195.775811 222.504293,195.352368 222.466867,194.886314 L222.977473,194.441566 L222.893263,194.121986 L222.402707,193.755801 L221.65952,193.911596 C221.26654,193.694548 219.002227,193.63729 218.701477,193.609327 C218.432807,194.29376 217.83799,195.096704 217.245847,195.533463 C216.545433,195.436257 215.064407,195.215215 214.43751,194.869003 L213.187727,195.124667 C213.051387,194.79843 211.36585,193.086015 210.92475,192.711841 L209.791257,192.534741 L209.114903,191.65856 C208.371717,191.540049 207.48016,191.598639 206.74633,191.742449 C205.32679,190.771726 204.547513,190.626584 202.8446,190.035362 C202.297903,189.582624 202.398153,188.571953 202.0025,187.939452 L200.51479,187.41614 L200.296913,186.820923 L199.70477,187.28165 L199.458823,187.251024 L199.07119,186.883507 C197.993837,187.07925 197.055497,186.602544 196.415233,185.754326 L195.749573,185.617173 L194.46771,184.22567 C193.712493,184.077865 192.878413,184.027265 192.10983,184.053896 L191.734227,184.602508 L191.101983,184.345513 L190.504493,184.501308 L190.206417,184.404102 C190.12889,183.908754 189.645017,183.1391 189.15847,182.940694 L188.968663,183.490637 L189.29882,184.384129 L188.802917,185.426757 L188.52088,185.53861 L188.42865,185.79161 L188.503503,186.208396 L187.9274,186.550612 C186.711033,186.297612 185.51739,185.782289 184.488157,186.787634 C184.255577,187.016666 184.200773,187.361545 183.847893,187.490709 C183.34397,187.489377 182.924257,186.963402 182.580733,186.653144 L182.5941,185.655789 C182.356173,185.414773 182.194437,184.878145 182.186417,184.550576 L181.41115,184.260291 L181.905717,183.927396 C182.003293,183.691706 181.969877,183.264268 181.842893,183.044557 C181.155847,182.623777 180.393947,182.702341 179.63071,182.691688 L179.287187,182.43203 L178.87282,182.446677 L178.220527,182.882104 C177.883687,182.76093 177.121787,182.665056 176.762223,182.800878 C176.609843,182.495946 176.588457,181.953992 176.669993,181.627754 L176.351867,181.32948 C175.54051,181.554517 174.88688,181.553186 174.242607,180.971284 C173.714623,181.345459 173.320307,181.462638 172.71346,181.494596 C172.774947,182.360124 172.70945,183.284242 171.79517,183.553221 C171.63076,183.690374 171.31798,184.140449 171.33001,184.377471 C171.352733,184.820887 171.416893,185.309578 171.399517,185.750331 C171.368773,186.575912 171.132183,186.871523 171.55858,187.806294 L171.14956,188.309632 C171.58665,188.98208 172.23627,190.377578 172.182803,191.217806 C172.086563,191.377596 171.886063,191.858297 171.982303,192.050045 L171.649473,192.442861 L171.579967,193.615985 L171.144213,193.627969 C170.943713,193.829038 171.062677,195.056756 171.070697,195.352368 L171.59066,196.042127 L170.991833,196.585412 C170.86084,197.418983 170.374293,198.291169 170.052157,199.070144 L170.192507,199.657371 C169.89844,200.340473 169.965273,200.106115 169.961263,200.955664 C170.15909,201.376444 171.11748,201.472317 171.493083,201.613465 C171.5265,201.626781 171.944877,201.990303 172.001017,202.03824 L172.11597,202.640115 L171.95557,202.970347 L172.01973,203.140789 L170.902277,203.728017 C170.30345,203.68008 169.70997,203.616164 169.11248,203.548253 C168.99218,203.448385 168.589843,203.091521 168.529693,203.058231 C168.099287,202.826536 166.334887,202.45103 165.85235,202.520272 L165.765467,201.999624 C165.14258,201.506939 164.37266,202.272598 163.842003,202.096829 L163.279267,201.606807 L162.786037,201.775918 L162.156467,201.524249 L161.29298,202.060877 L161.326397,202.329856 L161.149957,202.614815 L161.448033,203.075542 L161.450707,203.423085 C160.86391,204.417776 160.625983,204.664119 161.219463,205.882516 C159.886807,206.227396 159.80928,208.275369 158.268103,208.027695 L158.12107,208.23409 C157.15867,208.489753 156.678807,209.259408 156.309887,210.138252 L156.375383,210.673548 C155.83938,211.322028 155.732447,212.464525 155.556007,213.274127 L155.842053,213.48718 L155.961017,213.887986 C155.761853,214.300776 155.969037,214.697588 155.910223,215.10372 C155.860767,215.451263 155.692347,215.853401 155.687,216.19828 C155.684327,216.468591 155.85141,216.873392 155.914233,217.138377 C155.696357,217.593778 155.431697,218.041189 155.192433,218.485938 L155.216493,218.81617 L154.894357,219.145071 C154.246073,218.973297 153.254267,219.183687 152.608657,219.248934 C152.37875,218.576485 152.16221,217.492578 151.64893,216.946629 L151.342833,216.934645 C150.98327,217.248898 150.744007,217.306156 150.310927,217.372735 L149.769577,215.543142 L149.172087,215.195599 C148.56925,216.111727 146.742027,216.678981 146.522813,217.319472 C146.045623,217.069135 145.763587,216.74556 145.375953,216.362065 L144.449643,216.387365 L144.06201,215.999875 L143.72116,215.922643 C143.539373,215.99588 143.28407,216.066454 143.11966,216.166322 L142.629103,215.584421 L142.619747,215.095731 L142.363107,214.804114 L141.885917,214.652314 L141.099957,213.552427 C140.59336,213.634985 139.69512,213.545769 139.51868,214.162292 L140.193697,215.147662 C140.255183,215.580426 139.525363,217.208951 139.324863,217.560488 C139.20991,217.761557 138.385187,218.44599 138.14726,218.599122 C137.555117,218.219621 136.989707,218.339464 136.27459,218.303511 L135.968493,218.679017 C135.870917,218.951991 136.3588,219.780235 136.505833,219.995952 C136.373503,220.332842 135.870917,220.733648 135.554127,220.874795 L135.290803,220.258273 L135.03149,220.189031 C134.37385,220.311536 133.57987,222.286272 132.820643,222.934752 L132.261917,223 L131.89567,221.597844 C131.627,221.571213 131.006787,221.458028 130.82901,221.22367 C130.597767,220.918738 130.365187,220.555216 130.108547,220.275584 C129.785073,219.926709 129.410807,219.740288 129.122087,219.299534 C128.734453,219.198334 128.06612,219.351466 127.758687,219.609793 C127.405807,219.689688 127.010153,219.117108 126.737473,218.978623 C126.665293,218.94267 126.224193,218.909381 126.111913,218.87476 C125.394123,218.648391 124.74584,218.246253 123.962553,218.271553 C123.597643,218.620428 122.73282,218.259569 122.353207,218.119753 C122.160727,218.046516 121.30125,218.155705 120.83609,217.998579 L119.808193,218.628417 L118.92733,218.439332 L118.913963,217.74691 L117.21105,217.782863 L117.104117,216.998561 L116.715147,217.22493 L116.371623,217.170335 L115.69527,216.354075 L116.08424,215.535153 L116.0281,215.286147 L115.766113,215.034478 L115.33838,215.216905 L114.954757,215.138341 C114.75292,214.941267 114.025773,214.360697 114.053843,214.094381 L114.879903,213.017131 C115.188673,212.777447 115.906463,212.834705 116.237957,212.967863 L116.671037,212.540425 C116.804703,212.158261 116.672373,211.190201 116.295433,210.958506 L115.385163,210.828011 C115.132533,210.670884 113.989683,209.164865 113.868047,208.971786 C113.84666,208.934502 113.741063,208.439153 113.723687,208.368579 C113.424273,208.068974 112.392367,207.773362 112.096963,208.003726 C111.6572,207.938479 111.142583,207.770699 110.71485,207.646862 L110.50232,207.09825 L109.602743,206.847913 C109.570663,206.782666 109.414273,206.435123 109.37952,206.39917 C108.10835,205.007667 106.246373,202.363146 104.02617,202.548236 C102.912727,202.617478 102.311227,202.657425 101.7926,201.625449 C102.140133,201.317854 102.371377,200.48961 102.39811,200.052851 C101.51992,199.239255 101.71641,198.946307 101.384917,198.209942 C101.26328,197.939631 100.931787,197.652009 100.764703,197.377703 C100.034883,197.308461 100.218007,197.395014 99.6846767,197.052798 L98.60866,194.774461 L98.7503467,194.156607 C98.54851,193.826375 98.05528,193.095336 97.69839,192.898262 L97.5085833,192.28973 L96.7573767,193.034084 C96.43524,193.111315 95.9446833,192.88761 95.6278933,192.785078 C95.4340767,193.038078 94.4596467,193.11531 94.1749367,193.119305 L93.9463667,192.935547 C93.9436933,192.630614 93.8113633,191.926208 93.52398,191.735791 L93.0681767,191.755765 C92.7553967,191.603965 91.8077,188.545322 90.95758,187.737051 L91.4067,187.125855 C90.9990167,187.032645 90.31197,187.164471 89.9778033,187.41614 C89.6329433,187.123192 89.4725433,186.827581 89.2439733,186.440091 L89.3241733,186.021974 C89.1343667,185.6478 89.0154033,185.56391 88.6745533,185.272294 L88.3056333,185.236341 L88.0129033,185.495999 C86.78718,184.980677 87.5022967,185.763647 86.5439067,185.545268 L85.7713133,184.984672 C85.42779,185.156446 84.6926233,185.416104 84.2942967,185.340204 L84.0710733,185.968711 L84.3237033,187.232382 L83.9146833,187.643841 L83.30249,187.587914 L82.4791033,186.678444 L82.1689967,186.673118 C81.9283967,186.578575 81.63834,186.203069 81.5314067,185.98469 C81.1798633,185.867511 80.1519667,185.432083 79.9675067,185.071225 L79.40076,184.94073 L79.12006,184.405434 L78.7752,184.354834 L78.0507267,183.698364 L78.24588,181.786212 L77.8863167,181.225617 C78.1309267,180.930005 77.90904,179.739571 77.82483,179.409339 L77.4144733,178.927306 L77.4612567,178.6277 L77.8515633,178.233552 L77.80478,178.047131 L77.27546,177.755514 L76.42935,177.497188 C76.3718733,176.90996 75.0632767,175.485167 74.5954433,175.423915 L74.3708833,174.692876 L70.8688167,171.824649 C70.3074167,171.616922 68.5497,172.527724 67.5859633,172.210808 C67.3199667,172.122924 66.9911467,171.901881 66.61688,171.654207 C65.9565667,171.017711 65.2521433,170.466436 64.47554,169.971087 L64.3097933,169.51036 C64.52767,168.969738 64.7014367,168.214731 64.6426233,167.626172 L64.38331,167.278629 C63.5746267,167.33855 62.8782233,166.024279 62.35826,165.602168 C61.9986967,165.313214 61.4413067,165.058882 61.0376333,164.820529 C60.7048033,164.386433 60.7850033,163.767248 60.78233,163.254589 C60.6901,162.921693 59.7544333,162.508903 59.4697233,162.413029 L59.3173433,162.013555 L59.45502,161.373064 C59.34675,161.166669 59.17432,160.899021 58.99387,160.745889 L58.01142,160.580773 C57.72671,160.428972 57.5369033,159.721902 57.5088333,159.439607 L57.14526,159.10538 L56.0959767,158.997522 L55.77785,158.606037 C55.3835333,157.599361 56.4528667,156.974849 55.7484433,155.595331 L54.7659933,155.432878 C53.2528867,154.251764 52.6072767,152.057318 50.4298467,151.997397 L49.1880833,151.961444 L48.8619367,151.652517 L47.2499167,151.316958 L47.1068933,151.773691 L47.3795733,152.415513 L46.9825833,153.225115 C46.8208467,152.712456 46.0282033,152.456792 45.5496767,152.499403 L45.0925367,152.01737 C44.0298867,152.170502 42.3189533,152.258387 41.2817,151.872228 L41.0798633,151.57129 L41.1761033,150.665815 C41.0277333,150.276993 40.28722,149.653813 39.9717667,149.410133 C39.92632,148.480689 39.9089433,148.00132 39.6402733,147.150439 C39.2419467,146.753628 38.2046933,145.952015 37.5991833,145.910736 L36.8773833,144.857455 C36.0312733,144.910718 34.6184167,144.616439 33.9460733,144.058506 L33.48626,141.298137 L32.32336,139.969218 L33.05318,139.457891 C33.3793267,138.473852 32.4222733,137.742814 32.9622867,136.240789 L32.4383133,135.508419 C31.62161,135.539046 30.2328133,135.325993 29.7222067,134.56566 L29.8999833,134.174174 C29.59255,133.965116 28.9282267,132.973088 28.8654033,132.67215 C28.5927233,131.351221 29.1527867,130.71872 28.99907,130.100866 L28.2478633,129.331212 C28.34544,128.735995 28.1583067,128.289915 27.9350833,127.76394 L28.0299867,127.384439 L27.5675,127.144754 L26.7721833,127.429713 L26.28029,126.785227 L25.9287467,126.738622 L25.81112,126.404395 C25.94345,126.204658 26.17202,125.670693 26.05573,125.425682 L25.6654233,125.355108 L25.5050233,124.996913 L26.10786,124.465612 L26.0303333,123.654678 L26.2976667,123.187293 C26.3096967,122.890351 25.9447867,122.398997 25.7482967,122.211244 L25.69483,121.3324 C24.98506,121.541458 24.3341033,121.510832 23.7031967,121.12201 L23.3944267,120.532119 C22.66728,120.457551 22.1633567,119.956876 21.4335367,119.934239 C20.91892,119.659933 20.2840033,118.014098 20.12093,117.501439 L19.5087367,117.312354 C19.3015533,116.99677 18.9927833,116.622595 18.83372,116.287036 C18.68936,115.983436 18.6385667,114.790339 18.9887733,114.590601 L22.6325267,112.508007 L22.7301033,112.330907 L22.4574233,110.23766 L22.83971,109.655759 C22.81966,108.973989 22.69134,108.234961 23.0656067,107.622434 C23.3556633,107.618439 24.0373633,107.706324 24.2579133,107.935356 L24.42767,106.342784 L25.16551,106.052499 C25.6279967,105.423992 25.6427,104.719586 25.8739433,104.013847 C26.1025133,103.324088 27.6009167,103.093724 27.49532,101.656948 C27.4725967,101.350684 27.34695,100.969851 27.2801167,100.664919 C27.27477,100.635624 27.0462,100.359987 27.01412,100.320039 C26.0610767,100.165576 24.9543167,99.9458649 24.0734533,99.5277483 L23.9050333,99.2521108 L23.5588367,99.3666269 L23.1337767,99.1722159 L22.77956,98.3546247 C22.77154,98.0789873 22.9252567,97.5743178 23.1698667,97.4065385 L23.7927533,97.252075 C24.0387,96.9125216 24.10286,96.1415358 24.0614233,95.7473876 L23.7232467,95.2360602 L23.2019467,95.1734758 C22.87981,94.9604228 22.5362867,94.4091479 22.49485,94.0229892 L20.7237667,94.8472383 L20.3388067,94.4131427 L20.7104,93.9524154 L20.7037167,93.5050039 L20.3441533,93.2746402 L19.9391433,93.3478772 C19.3536833,93.2133875 18.6666367,92.7633128 18.24826,92.3478593 L17.77909,92.4171016 L17.59864,92.0575745 L17.1361533,92.0229534 L16.90491,91.4983101 L16.1884567,91.2226727 C16.0440967,90.8564877 15.71795,90.4090763 15.3864567,90.1893653 L14.9707533,90.1174598 L14.62723,90.4570132 C14.2569733,89.9869648 13.90543,89.5675166 13.92548,88.923031 C13.23576,88.5142354 11.47136,88.5741566 10.4394533,88.2239506 L11.1452133,87.0148743 L10.9233267,86.5940945 L10.37663,86.3104675 C10.0063733,85.7006031 10.0143933,85.6393503 9.46769667,85.2305547 L8.66436,85.25186 L8.59084333,84.5780797 L7.75141667,84.5181585 L7.33304,84.1839315 C7.00956667,83.4382457 6.53638667,81.9069266 6.70614333,81.0693617 C7.18734333,80.7231504 7.718,79.9401803 7.85300333,79.3622738 L7.75141667,79.0107363 L7.42928,78.8070042 C7.21808667,77.1358691 6.51901,76.3249358 5.48844,75.1731176 L5.25452333,75.1771123 L5.01526,75.5459605 L4.34826333,73.770962 C3.38319,73.3581716 2.84451333,73.1038395 1.84869667,72.9693497 L1.26724667,71.9933003 L0.943773333,72.0731952 L0.5,71.7762525 L1.09481667,71.1890249 L0.86892,70.8068609 L1.05739,70.5764973 L1.6228,70.3714337 L1.82597333,70.4673076 L2.18954667,70.4100496 C2.39272,70.0185645 2.93006,69.5884636 3.28695,69.3527736 L3.13590667,68.8520989 C2.77367,68.6230668 2.31920333,68.0598077 2.23098333,67.6310384 L2.58252667,66.9053263 L1.68428667,65.9079716 L2.61460667,65.9332716 C3.79488333,65.0091539 4.97917,65.9106347 5.67022667,65.3313967 L6.13004,65.4059652 L6.18618,66.5484624 L6.86921667,66.8001314 L6.75693667,68.0105392 L7.03362667,68.5378456 L6.98951667,69.3900579 L7.28759333,69.8973906 C8.19519,70.2129755 9.25784,70.0491909 10.2015267,70.0225593 L10.7843133,71.5072729 L10.55708,71.7136681 C10.3097967,71.7509524 9.91548,71.5778468 9.75508,71.3940885 L9.29393,71.8894369 C9.70428667,72.2875799 10.1948433,72.8814653 10.6519833,73.2063713 C11.1973433,73.59253 11.9285,73.5246193 12.3295,74.2010629 C12.1985067,74.4993372 11.9819667,74.8189168 11.75607,75.0519436 L12.1864767,75.773661 L11.55557,76.5419836 C11.6130467,76.8269421 11.8990933,77.2863379 12.1864767,77.3981907 L12.4203933,78.1891503 L14.1005833,78.5952827 C14.4320767,77.9001971 14.7448567,77.2104377 15.00417,76.4847256 L14.3598967,75.8295874 L14.3211333,75.4993551 C14.55104,75.1997492 14.7702533,74.894817 14.9827833,74.5832268 L14.5857933,73.201045 L15.07234,72.6897176 C15.3784367,72.6084911 15.92246,72.729665 16.2004867,72.8521705 L16.37559,72.2369798 L15.9652333,71.0065982 C15.9973133,70.7456082 16.2004867,70.2569177 16.4571267,70.1304174 L16.4370767,69.5977847 C16.5333167,69.3221473 16.8942167,68.9985729 17.14952,68.8787305 L17.3286333,68.4845823 C17.5692333,68.3034872 18.04776,68.1636711 18.3471733,68.2129396 L18.7708967,67.9399654 C19.0609533,67.005195 18.69738,66.6869469 18.7227767,66.4326148 L18.8323833,65.3034335 C19.5782433,65.3154177 19.9712233,64.9612169 20.7972833,65.1196752 L21.1007067,64.7787902 L21.0525867,64.0637308 C21.4589333,63.6056667 22.2288533,63.1449394 22.75951,62.8679704 L23.6377,63.0357497 L23.9892433,62.8999283 C24.2846467,62.6123067 23.7833967,61.2594196 24.08682,60.6495551 C24.62416,60.4418284 25.0813,59.8226429 25.02917,59.2354153 L26.55297,58.5176927 L27.1999167,58.6681615 L27.49131,58.4857348 L28.0714233,58.6535141 C28.5552967,58.4950558 29.2583833,58.1847973 29.6273033,57.8159491 L30.6057433,58.0516391 L31.5721533,57.1488267 L32.3180133,57.1448319 L32.6909433,57.4990327 C33.5825,57.6601541 34.2053867,57.6321908 34.8590167,56.9743894 C35.3616033,57.472401 36.1221667,58.3845345 36.7370333,58.644193 L37.0645167,58.2820027 L36.94288,57.7227384 L38.47069,56.0462769 C39.6122033,54.7892637 40.6975767,55.00498 41.9045867,54.1034991 L42.1585533,54.126136 L42.6116833,55.0542485 C42.91778,54.7386636 43.67968,53.7559563 43.61552,53.2659342 C44.7196067,53.6014928 47.6803233,55.7067236 48.4689567,56.3951514 L49.03704,56.4590673 L50.6463867,57.74937 C50.95783,57.1980952 52.4749467,56.9996895 53.0403567,56.8625366 C53.06709,56.8558787 53.63651,56.364525 53.6819567,56.3259091 L53.9038433,55.5482654 L55.48913,54.4177524 L55.7644833,53.7080193 L55.4196233,52.317848 C55.54527,51.951663 55.7163633,51.6067833 55.8781,51.2565773 L55.7885433,50.5788022 C56.2256333,49.7931689 56.22296,49.2911626 56.3192,48.4442766 L57.1265467,48.7159193 L57.7374033,49.4962262 C59.4095733,49.8863797 60.7475767,49.0994148 61.8396333,47.9422703 C62.71515,48.2445393 62.4130633,48.0128441 62.7057933,48.9689198 C63.7403733,48.5880874 64.7669333,49.3364364 65.83493,48.9862304 L66.0327567,48.6972771 L65.8843867,48.2179077 C66.46049,47.7451962 67.1314967,46.4122828 67.5177933,45.7704604 L67.46299,45.4402281 C67.58329,45.2897594 67.6928967,45.1259748 67.78379,44.9568639 L67.45898,43.9541828 C67.6274,43.8156983 68.5269767,43.1552338 68.52163,42.9661492 L68.3665767,42.5666746 L69.3891267,41.2071296 L70.5774233,41.285693 L70.7565367,41.4241775 L71.26046,42.6678748 L71.7242833,42.7064907 L72.11058,42.4761271 C72.39529,42.5014271 73.0382267,42.4907745 73.29754,42.3323162 L73.5434867,41.9661312 C73.3469967,41.4481459 73.30556,40.5519914 73.6557667,40.0832746 L74.1543433,40.0233534 L74.4751433,39.5626261 C74.8547567,39.6092315 75.6661133,39.1711411 75.9615167,38.9780617 C76.0590933,38.6691348 76.3919233,38.2510181 76.6833167,38.1032125 C76.4093,37.7756434 76.4681133,36.4986565 76.4547467,36.0086344 L76.6632667,36.3495193 C76.91456,36.7609781 77.4118,37.019305 77.7579967,37.3548636 C78.3207333,37.8981489 78.3742,38.3668657 78.59876,38.6358452 C78.81129,38.8915089 79.2096167,39.1604884 79.46893,39.381531 C79.4863067,39.39751 79.5772,39.6052368 79.5945767,39.6385263 L80.4741033,39.795653 C80.7334167,40.1272168 81.3001633,40.4401385 81.6797767,40.5906073 C81.9832,40.1471905 82.2986533,39.5679525 82.6501967,39.1698095 C83.1033267,38.655819 83.7476,38.4733922 84.0256267,37.745017 L85.00273,37.3601899 L85.29947,36.7157043 L85.2326367,36.3015824 L84.8810933,36.3934615 L84.64183,36.2310085 L84.5763333,36.0219502 L85.5226933,34.6384367 L85.70047,34.5545471 L86.3995467,34.6157998 L86.26588,34.236299 L86.55861,33.2056547 C86.5572733,32.9073804 85.94909,32.1443841 85.7619567,31.9326626 L85.8154233,31.6130829 C86.2632067,31.3068191 86.1068167,31.45063 86.3728133,30.9273183 L87.16011,30.5291754 C87.4702167,30.6370335 87.9955267,30.6796441 88.3123167,30.571786 L88.55158,30.7528811 L88.9900067,30.6303756 L89.5527433,30.8021496 C90.1408767,30.6396967 90.7303467,30.4812384 91.3158067,30.3081328 C91.37462,29.7275631 93.0842167,28.9086404 93.6576467,28.9299457 C94.22172,29.3067833 94.61871,29.5637786 95.0451067,30.0498059 C95.3779367,30.1403535 95.6840333,30.2135905 96.03424,30.2202484 L96.5181133,29.8780319 C96.6972267,29.4838837 96.8389133,29.1669672 97.2345667,28.9259509 L97.55804,28.893993 C97.7197767,29.0404669 98.0940433,29.22822 98.3226133,29.1869409 C100.077657,27.8460381 99.7140833,28.7621664 102.20162,28.7435242 L103.262933,29.4718994 L104.65173,29.2961307 L105.14095,28.9113035 L105.308033,27.909954 C105.721063,28.1349913 106.362663,28.2148862 106.822477,28.1922494 C107.131247,28.0377859 107.485463,27.5464322 107.625813,27.2468263 L107.55898,26.8566728 L106.940103,26.2081925 L106.798417,25.4132382 C107.288973,24.7394578 107.480117,24.2347883 107.67126,23.4664656 L107.909187,23.5104078 C108.804753,23.6808503 109.753787,24.0816564 110.420783,23.2121335 C110.500983,23.1096017 110.629303,22.6262375 110.708167,22.5263689 C111.130553,21.981752 112.746583,21.0642921 113.440313,21.0083657 L113.79854,21.6941303 L114.57648,21.6448618 C114.703463,21.8086463 115.083077,22.1655102 115.316993,22.1628471 C115.57497,21.9644414 116.298107,21.5090404 116.64965,21.5343405 C116.855497,21.656846 117.36744,21.7607094 117.597347,21.7074461 C118.130677,21.5822774 118.41004,20.8978444 118.79099,20.5769332 L119.774777,19.9990267 C119.854977,19.9644056 120.14236,20.0110109 120.227907,19.9777214 C121.131493,19.6275154 122.133993,19.0376246 122.883863,18.4197707 C123.70324,18.4330865 124.903567,18.2280229 125.64408,17.9310802 C126.262957,17.683406 127.421847,16.1068132 127.309567,15.4436854 L127.05961,15.1760375 C127.158523,15.0988058 127.451253,14.8364841 127.555513,14.8231683 C127.675813,14.8085209 128.345483,14.7406103 128.421673,14.7153102 C128.894853,14.5581836 129.143473,14.2119723 129.727597,14.1720248 L130.489497,14.8751 C131.016143,15.1760375 131.556157,14.760584 132.06008,14.6833522 C132.86609,14.5595151 133.509027,14.6979996 134.3137,14.3318147 L134.524893,13.986935 C134.9152,14.0881352 135.900323,14.1706933 136.255877,13.8910611 L136.516527,13.4889234 L136.53925,12.4915686 C137.015103,11.9855676 137.62596,10.6233594 136.72772,10.2105691 L136.02998,10.1493163 C133.645367,9.93892637 134.79891,9.78046814 133.376697,9.33172509 C132.943617,9.19457216 132.430337,9.43692005 131.9478,9.191909 L131.913047,8.51679704 L131.3864,8.22118588 L131.288823,7.72051114 C131.520067,7.50213173 132.030673,7.36231564 132.34078,7.37696304 L132.62549,7.13994148 L132.44504,6.42754523 L131.71522,6.39825043 C131.344963,6.6712247 130.55232,7.08667821 130.068447,7.07336239 L130.03503,6.78574073 C129.639377,6.53007703 129.29719,6.27707649 128.79995,6.23579746 L128.493853,5.67653311 L129.17689,4.95082104 L128.73178,4.29568281 C128.981737,4.00140324 129.535117,3.74174479 129.901363,3.65519197 L129.87864,3.0613065 L130.166023,2.59924763 L129.937453,1.72306682 C130.310383,1.40615036 130.7849,0.792291157 130.911883,0.308926972 L131.397093,0.00932107243 L131.91572,0 C132.44103,0.2996059 132.99842,0.808270138 133.349963,1.29962381 C133.673437,1.43544515 134.26157,1.09855497 134.57435,0.972054696 L135.60893,1.35954499 C135.750617,1.55262435 135.860223,1.93345674 135.82146,2.17314146 C136.604747,3.14253299 137.59789,3.32629128 138.758117,2.9521168 L139.87557,2.0240043 C140.267213,1.9654147 140.474397,1.99337792 140.883417,2.06262017 L141.585167,2.74305846 L142.102457,2.75504269 C142.544893,2.25969427 142.400533,1.35421867 142.761433,0.740359467 L143.16377,0.800280647 L143.451153,1.52199797 L142.928517,2.50870007 L143.03144,3.15185406 C143.322833,3.59127605 144.345383,3.62989192 144.781137,3.51138114 L145.021737,3.67649728 L145.073867,3.96678211 L144.885397,4.31698812 L145.019063,4.65654147 C145.40937,4.67518361 146.378453,4.25307219 146.723313,4.0919508 C147.215207,4.99476324 147.73116,5.78172807 148.55321,6.41689258 L148.542517,7.45685794 L148.67752,7.59267929 L148.471673,7.69254792 C148.47301,8.83504508 147.324813,10.4542485 146.715293,11.4316295 L146.709947,11.8564041 L147.072183,12.2798471 C147.900917,12.6939691 149.754873,11.6619932 150.687867,11.3424136 L151.044757,10.6646384 C151.26798,10.739207 151.7973,11.016176 151.858787,11.2784976 L151.9176,12.8337852 C151.918937,12.8590852 151.763883,13.2266018 151.763883,13.2266018 C150.856287,14.0401982 150.985943,15.1161163 150.523457,16.1986923 C150.340333,16.6287932 150.12112,16.8178778 150.043593,17.3931212 C150.515437,17.871159 151.38427,17.7846062 151.747843,18.3199021 C152.918763,18.132149 153.579077,18.6328238 154.486673,19.3745148 L155.580067,19.3864991 C155.78725,19.4544097 156.00379,19.7659999 156.05191,19.9657371 L155.944977,20.1375112 L156.01582,20.6554965 L156.510387,20.6648176 L157.139957,20.2187377 C158.444543,20.3998328 158.776037,21.33194 159.988393,20.6768018 L160.60326,20.9457813 C160.625983,20.9031707 160.76366,20.6661492 160.769007,20.6355228 C160.84787,20.1241954 160.89198,19.5516152 161.017627,19.052272 C161.262237,18.06557 162.220627,17.5302741 162.292807,16.3904401 C163.224463,16.8817938 164.491623,17.2546367 164.911337,15.9110706 L165.576997,16.1028184 C165.705317,16.355819 166.118347,16.6114827 166.396373,16.6367827 L166.735887,16.046892 C167.670217,16.2972294 170.01874,17.2865946 170.657667,17.1694154 C170.918317,17.1201469 171.19768,16.8271989 171.456993,16.7845883 L172.357907,16.6367827 C172.470187,16.5329193 172.578457,16.422398 172.698757,16.3265242 C172.811037,15.9350391 172.506277,14.7219681 172.43677,14.3398041 L172.82173,13.2811966 L172.722817,13.0255329 C172.407363,12.7951693 172.102603,12.5514898 171.793833,12.3144683 L171.66284,11.789825 C172.744203,11.3850242 172.955397,10.8989968 173.66383,9.97221592 C173.6117,9.69125216 173.261493,8.33437033 173.47536,8.15061205 L173.945867,7.83236401 C173.666503,7.47017376 173.204017,6.73380904 173.161243,6.25976593 L172.34855,6.19451842 C172.15607,6.38227145 171.701603,6.55271392 171.43026,6.48347167 L170.919653,5.88026512 L171.88339,4.12790351 C172.010373,4.09860871 173.229413,3.8868872 173.312287,3.72842897 L173.400507,3.0027169 L174.182457,2.41415776 L174.20518,2.76036902 L174.43776,2.98940109 C174.48989,3.23574372 174.67034,3.72842897 174.51796,3.93881889 L174.71445,4.28503015 C175.128817,4.15986147 175.54051,4.00672956 175.95354,3.86691348 L176.219537,3.07861707 L177.258127,3.78302383 L178.565387,3.86025557 L178.80064,4.0480086 L178.27934,4.78836807 L178.364887,5.16653729 C178.58811,5.49144324 180.210823,5.87627038 180.61717,5.9987759 L181.068963,5.66055413 L180.563703,5.17852153 L181.024853,4.04401385 C181.296197,3.74440795 182.495187,3.48874425 182.872127,3.42882307 C183.06728,4.43949364 183.00312,5.40755359 183.001783,6.44219263 C183.229017,6.66323521 183.698187,6.83634084 184.00562,6.87761987 L184.303697,6.56203499 L184.381223,6.10263928 L186.753807,5.23844271 L187.05723,6.45684003 L187.448873,6.78440915 L188.754797,6.86563564 L189.06223,7.3503314 C189.059557,8.58071296 189.215947,8.27711232 190.09681,9.11600884 C189.77601,9.80709978 189.245353,10.3117693 188.738757,10.8643757 L188.494147,12.1426942 C188.69331,12.6540216 189.42313,14.0069087 189.14243,14.582152 C189.834823,15.3078641 190.568653,16.2239924 191.004407,17.1321311 C191.910667,17.2732788 192.714003,17.8578432 193.494617,18.3079178 C193.528033,18.32656 193.60155,18.3531916 193.62561,18.383818 C194.621427,19.5742521 194.874057,21.1721502 194.284587,22.618248 C194.82861,23.2334388 194.601377,23.8512928 194.88876,24.5024363 C195.299117,24.767421 195.56244,24.8273422 196.058343,24.9605004 C196.72935,24.0843196 197.61155,23.4944289 197.63962,22.2813579 C198.078047,21.8978623 198.503107,21.3492506 199.14738,21.5729564 L199.5163,22.5743058 L200.132503,22.8060011 C200.227407,23.0843017 200.54286,23.3106706 200.768757,23.4491551 C202.261813,24.3666149 202.498403,23.5117394 202.951533,23.8206664 L203.671997,24.7381262 C204.226713,24.5330626 205.56338,24.3732728 206.019183,24.8846002 C207.986757,24.6568997 208.725933,24.5144205 210.20295,26.1389503 C210.927423,26.1203081 212.74128,26.4918194 213.223817,27.0604048 L213.128913,27.6409745 C213.15832,27.8180749 213.93225,28.1909178 214.097997,28.2841285 L215.611103,28.2148862 L216.31419,28.5810712 C216.70316,28.0750702 217.382187,27.6529587 218.043837,27.6822535 C218.25102,27.8580223 218.701477,27.9552278 218.962127,27.8913119 C219.248173,27.7288589 219.63046,27.3094106 219.703977,26.9791784 C220.602217,26.1695766 222.041807,27.8913119 221.68358,29.2734938 C221.953587,29.7781633 222.375973,30.6237177 222.988167,30.7954917 C223.276887,31.7875202 223.847643,32.9779543 223.679223,34.0418881 L224.846133,34.3028781 L225.190993,33.812856 C225.686897,33.6490715 226.192157,33.4559921 226.694743,33.3188392 C226.817717,33.2842181 227.167923,33.2788917 227.262827,33.2416075 C227.519467,33.1417388 227.75071,32.9033857 228.00735,32.8008539 C228.97777,32.4160268 230.20483,32.0964471 231.092377,32.8434645 C231.485357,33.8887562 232.08151,35.3588225 231.938487,36.4374037 C231.815513,37.3508688 231.81284,38.5426345 231.222033,39.3122888 C231.421197,39.5825999 231.643083,39.8116319 231.899723,40.0340061 C232.48652,39.9421269 233.086683,39.9088374 233.666797,40.0752851 L234.51959,39.3841942 L235.099703,39.6332 C235.528773,39.3828626 235.563527,37.6504747 236.02334,37.0552577 C236.277307,36.7250254 236.811973,36.4413985 237.11807,36.1391294 C237.16619,36.0911925 237.656747,35.2642802 237.724917,35.1550905 C238.23285,35.2549591 238.728753,35.2682749 239.24337,35.2829223 L239.923733,35.7769392 C241.166833,35.5279334 242.417953,37.5079955 243.078267,38.3495551 C243.39372,38.0752493 244.118193,37.7210485 244.559293,37.7743118 L245.024453,37.1977369 C245.04584,36.3814773 245.2704,34.7449633 245.96814,34.2309727 C246.93054,34.2323043 248.08542,34.6277841 248.83128,35.2283275 C250.421913,35.481328 250.857667,34.2948886 252.679543,35.5186123 L253.108613,36.6291515 C254.254137,37.1071893 254.627067,38.1618021 255.405007,38.9927091 C256.549193,40.212438 257.405997,40.3376067 258.199977,42.0300472 C258.33097,42.3056846 258.490033,42.7624171 258.34701,43.0873231 C257.871157,42.9648176 257.041087,43.1565654 256.6187,43.3682869 L256.058637,43.2457813 L255.818037,43.4694871 C255.843433,43.9621723 255.96106,44.5240998 256.160223,44.9768376 C255.866157,45.3430226 255.573427,45.6892339 255.2152,46.000824 C255.40768,46.2924404 255.292727,47.0594315 255.19916,47.3590374 C253.898583,47.9715651 253.73551,49.4695946 252.679543,49.745232 C252.0072,49.7878426 250.98465,49.3257837 250.520827,48.8544038 L249.947397,49.1207201 L249.87789,49.5801158 L250.320327,49.8477638 L250.432607,50.1553592 C250.081063,50.5907864 249.113317,51.0022452 248.60672,51.162035 L247.8368,51.0022452 L247.66838,51.7346152 C247.41174,51.6880098 246.955937,51.747931 246.744743,51.9170419 L246.988017,52.2099898 L246.88242,52.416385 L246.456023,52.2779005 L246.318347,52.7492805 L245.633973,52.7040067 L245.2303,53.2100078 L245.461543,53.8917776 L245.838483,54.1660835 L245.68343,54.5083 L245.076583,54.5202842 L244.54058,54.0728728 L243.93106,54.0861886 C243.809423,54.2805995 243.667737,54.4656894 243.536743,54.654774 C243.76264,56.2659879 244.41627,55.7759658 244.62078,57.5549591 L245.17817,57.6774646 L245.608577,57.3658745 L246.223443,57.4138114 L246.655187,58.0716128 L246.49345,58.8705619 L247.11099,58.9184988 L247.60823,59.5656476 L247.4358,59.7826954 L247.637637,60.2753807 C247.962447,60.3752493 248.363447,60.8426345 248.501123,61.1342509 L250.09844,59.9611274 C250.861677,59.8585956 252.4082,59.9451484 253.06985,60.4258494 C253.648627,61.4298621 253.079207,62.3393324 253.437433,63.0956709 C253.758233,63.7721144 254.49741,64.5297844 254.93851,65.1716069 C255.8167,65.2701439 256.697563,65.2275333 257.578427,65.279465 C257.622537,65.3140861 257.892543,65.5204813 257.90992,65.5497761 C258.201313,66.0424613 258.480677,66.5990625 258.810833,67.0637846 C259.34149,67.8134651 259.384263,67.4739117 259.695707,68.5018929 C259.93898,68.8174778 260.313247,68.9586254 260.529787,69.2276049 C261.168713,70.0159014 261.044403,70.6896817 262.22067,70.946677 L262.819497,72.4540276 L263.277973,72.7509703 L263.661597,72.7509703 C264.003783,73.0918553 265.030343,73.9081149 264.996927,74.366179 L264.889993,74.7456798 L265.309707,75.4354392 C265.09985,75.7323819 264.96351,76.7204156 265.004947,77.0386636 C265.110543,77.8109811 265.611793,78.0546605 265.225497,79.1385681 C265.25223,79.4914373 266.32691,80.2451126 266.6036,80.4208814 L266.697167,80.6765451 L266.381713,81.3196991 L266.59959,81.6206365 L268.016457,82.157264 C268.290473,83.0294501 269.0096,83.5980355 269.63516,84.2212157 L270.708503,84.2185526 C271.156287,84.6965904 271.654863,85.0414701 272.287107,85.1386756 C273.090443,85.2625127 273.389857,85.3144444 274.183837,85.0840807 C274.774643,84.086726 275.336043,83.0667343 275.865363,82.03609 L276.932023,81.9721741 C277.54689,81.5021258 278.295423,80.5899922 278.610877,79.8962381 C278.827417,79.4182003 278.89826,78.7910253 279.073363,78.2890189 C279.188317,77.9561235 279.498423,77.5553174 279.677537,77.247722 L280.603847,77.1372007 L280.77093,76.3422464 C281.046283,75.9600824 281.51278,75.5899027 281.9218,75.3648653 C282.203837,75.4767182 282.493893,75.9161402 282.568747,76.1917776 L283.47768,76.4700782 C284.140667,76.0173404 284.450773,75.203744 284.633897,74.4580582 C285.778083,73.7350093 286.375573,73.9280886 287.557187,74.1744312 C287.839223,74.105189 288.50221,73.8841464 288.70271,73.6511196 L288.5383,72.8974443 C288.765533,72.6577596 289.19995,72.3315221 289.534117,72.2622798 C290.047397,73.0732131 290.227847,74.1531259 291.119403,74.6577954 L291.900017,74.439416 C292.10319,74.1091837 292.28364,73.7589777 292.441367,73.4061086 C291.984227,72.7163492 291.51372,71.8867738 291.270447,71.0918194 C291.64605,70.9187138 291.973533,70.2036544 292.052397,69.8361378 L291.767687,68.1250552 C291.376043,67.1569953 288.788257,66.3287514 287.793777,66.0757509 L286.981083,65.0091539 C286.949003,64.5817161 286.963707,64.1382994 287.017173,63.7121932 C285.44258,61.8626261 286.531963,61.1768615 285.6912,59.73609 C284.988113,59.2673733 283.318617,58.2314026 282.914943,57.6108855 C283.382777,56.75601 283.912097,55.9051293 284.26364,54.9956589 C284.605827,54.5868633 285.508077,54.3538365 286.013337,54.4004419 C287.366043,55.4084493 288.97539,56.103535 290.56335,56.641494 C291.03653,56.7999522 291.89868,56.7187257 292.40394,56.7480205 C292.639193,56.9384367 293.463917,57.943781 293.63902,57.95976 L294.338097,57.6202066 C295.05856,58.3259449 296.194727,58.1847973 297.084947,57.9477757 L297.56481,58.5363349 C297.489957,58.7280826 297.463223,59.1288888 297.594217,59.3086523 L298.47508,59.3366155 L299.404063,60.2607333 L299.853183,60.0796381 L300.218093,60.296686 L300.82895,59.7747059 L301.33421,60.0370275 C301.63095,59.7227742 302.237797,59.7054637 302.63345,59.6308951 L302.995687,60.3659282 L302.579983,60.2820386 L302.162943,60.7174658 L302.13621,61.0450349 C303.446143,62.3593061 307.191483,65.8214188 308.7888,65.7082343 C309.668327,65.4459127 310.612013,65.1689437 311.436737,64.7628112 C311.69204,64.8440377 312.00883,65.0464382 312.171903,65.2594913 C311.68402,65.4246074 311.11059,65.5497761 310.5933,65.5670866 L310.558547,65.8294083 L311.07851,66.2235565 L311.758873,66.2754881 L312.01284,66.6975996 C311.7963,67.4313011 311.58778,68.1490237 311.265643,68.8467726 L311.49555,70.1770228 L312.134477,70.4286917 L312.387107,70.8521347 L312.73464,70.9400191 L312.844247,70.7349555 C312.635727,70.3368126 312.56221,69.7202902 312.5983,69.2782051 C312.940487,68.8827253 313.774567,68.9879202 314.227697,68.8387831 C314.565873,68.7269302 315.199453,68.4046874 315.54966,68.6243984 L315.77823,68.8560936 L315.819667,69.1756733 C315.450747,69.3194841 315.151333,69.4766107 314.802463,69.6750164 L314.974893,69.9786171 L315.482827,69.7309429 L316.25141,69.9666328 C316.46394,70.4380128 316.554833,71.1024721 316.52008,71.6137995 C316.81682,71.7416313 317.431687,71.6737207 317.729763,71.60581 C317.932937,71.1477459 318.142793,70.6896817 318.3727,70.2449334 C319.369853,70.1091121 320.352303,69.8774169 321.398913,69.6523795 C323.885113,70.2981967 324.040167,69.9639697 326.230963,69.5059055 C326.451513,69.838801 326.724193,70.1783543 327.015587,70.4513286 C327.586343,70.5032603 328.106307,69.9959276 328.624933,69.8241536 C329.0393,69.6856691 329.50446,69.5991163 329.92952,69.4899266 C330.47488,68.6230668 331.302277,68.0385024 331.957243,67.2688482 L331.584313,65.2461754 L331.885063,64.954559 C332.815383,65.5417866 334.138683,65.9945244 334.558397,67.0531319 L335.57961,67.1370216 L335.845607,67.6882964 C335.777437,68.113071 335.4152,68.3194662 335.217373,68.6576879 C334.84979,69.2901893 334.578447,69.9826118 334.379283,70.6843554 C334.586467,71.7283155 334.95806,72.2263271 335.953877,72.6417806 C336.431067,73.2050397 336.102247,74.9760435 336.046107,75.7283872 L334.947367,76.1052248 C334.61721,76.0466352 334.26834,75.8974981 333.966253,75.7616767 L333.507777,75.8748612 C333.156233,76.4514361 333.176283,77.4474592 332.98113,77.671165 L332.280717,78.0067236 C331.91046,78.0120499 331.44129,77.9121813 331.107123,77.7470651 C330.45884,78.4647877 329.459013,78.2224398 329.017913,78.8136621 C328.163783,78.8669254 327.197373,78.9641309 326.379333,79.2317788 L326.25636,79.8895802 C326.40072,80.8682928 328.520673,82.1306324 329.25584,82.5301069 C329.333367,83.0827133 329.914817,83.8723413 330.32651,84.2185526 L331.22475,84.4422583 L331.468023,84.2238789 L331.49743,83.8963098 L332.35958,83.8030991 C333.055983,84.3610318 333.890063,84.7724906 334.7736,84.958912 C334.86182,85.7099242 335.193313,86.3291097 335.494063,87.0188691 L335.830903,87.254559 L335.98061,87.9123604 L336.2573,88.1733505 L336.254627,88.5595092 C336.583447,88.9536574 336.961723,89.5608587 337.05529,90.0761808 C337.078013,90.1960232 337.0192,90.5249239 337.04727,90.6274557 C337.10742,90.8484982 337.32396,91.0682092 337.386783,91.2892518 C337.469657,91.5861945 337.254453,91.8085687 337.610007,92.2892697 L338.473493,92.7193706 L338.718103,93.246677 C339.675157,93.6887622 339.274157,93.9098047 339.835557,94.5542903 C340.486513,95.3013077 341.118757,95.306634 341.946153,95.6688243 C342.44473,95.8872037 342.546317,96.1615095 343.368367,96.1615095 C343.814813,96.1615095 344.28131,96.0150355 344.757163,96.0150355 C345.241037,96.0150355 345.76501,95.7713561 346.17403,95.542324 C346.69132,95.2507076 349.877933,92.8458709 350.293637,92.3358751 L350.62513,92.301254 C351.448517,92.8005971 352.230467,93.7113991 353.302473,93.5036723 C353.663373,92.7606497 353.48426,91.3957783 353.24366,90.6074819 C352.476413,90.5315818 351.909667,90.7100137 351.296137,91.1347883 L350.928553,90.8511614 C350.85771,90.3731235 351.063557,89.5302323 351.19856,89.0801576 C351.718523,88.6180988 352.451017,88.4383352 353.134053,88.4290142 C353.707483,88.891073 355.049497,90.2186601 355.811397,90.2133337 C355.80605,90.4729922 355.779317,90.7326506 355.764613,90.9923091 C355.84214,91.2772676 356.3875,91.4596943 356.637457,91.610163 C356.677557,92.2067116 356.370123,92.8525288 356.637457,93.4157879 C357.32183,94.0349734 357.332523,94.1454947 358.161257,94.4837165 L358.6732,94.3012898 L358.996673,94.784654 L359.412377,94.9337911 L359.64763,95.2307339 L360.06467,95.3812026 L360.556563,95.0110229 L360.3173,94.647501 C360.479037,94.109542 360.85464,93.9018153 361.27168,93.5835672 C361.882537,93.4304353 362.42255,93.6727832 362.921127,93.9963576 C363.48119,94.7713382 362.93984,95.8299457 363.478517,96.6448737 L364.189623,97.0243745 C364.90073,96.6062578 366.125117,96.9191796 366.8135,97.2094644 C367.12227,97.8765869 367.239897,99.019084 367.225193,99.7447961 C367.87615,100.32936 368.62201,100.780767 369.385247,101.202878 C370.204623,100.939225 370.204623,100.587687 371.146973,100.118971 C370.844887,99.7487908 370.59092,99.3919269 370.227347,99.0656894 L370.304873,98.7540992 L371.43703,98.8579626 C372.388737,99.7487908 372.13076,99.4491849 373.65857,99.6995223 C374.145117,99.7794172 374.670427,99.7621066 375.16633,99.783412 C375.933577,100.332024 376.695477,100.635624 377.521537,101.083036 C379.63347,102.226865 379.51718,102.81276 382.126353,102.293444 C382.471213,101.862011 382.710477,101.060399 382.76929,100.523771 L383.07004,100.407924 L383.564607,100.857998 C383.856,100.782098 384.29309,100.739488 384.592503,100.822046 L384.993503,101.863343 C384.871867,102.35736 384.019073,105.085771 384.34923,105.579787 L384.572453,105.774198 L385.687233,105.537177 L386.163087,105.794172 L386.235267,106.284194 C385.699263,107.064501 385.068357,107.750266 384.54973,108.543888 C384.556413,108.602478 384.607207,109.209679 384.619237,109.228321 C385.910457,111.18841 386.822063,113.244372 387.51713,115.482761 L387.803177,116.412205 C388.057143,117.220475 387.76976,117.211154 387.828573,117.835666 C387.883377,118.42023 388.276357,120.116666 388.60384,120.59204 L388.893897,121.007494 L389.49807,121.203236 C389.431237,120.612014 389.336333,120.024787 389.25346,119.437559 L390.285367,119.466854 C390.491213,119.615991 390.707753,119.757139 390.92563,119.887634 C391.168903,119.872986 391.516437,119.693223 391.686193,119.524112 L392.334477,119.689228 C393.288857,120.478856 392.450767,121.393653 394.457103,122.285812 C395.142813,122.363044 395.99026,121.755843 396.71607,121.649316 C397.304203,121.853048 397.93912,122.094065 398.425667,122.486881 C398.798597,122.962256 398.735773,123.777184 398.856073,124.347101 C399.139447,125.706646 399.576537,127.134102 399.694163,128.516284 C399.720897,128.842521 399.660747,129.190064 399.694163,129.516301 C399.704857,129.62416 400.195413,131.705422 400.218137,131.782654 C400.47344,132.589592 401.217963,133.167499 401.5,134.011722 C401.437177,134.606939 400.807607,134.805344 400.676613,135.376593 C400.668593,135.515077 400.775527,136.248779 400.937263,136.29139 C400.59374,136.459169 392.3572,139.44058 391.84392,139.42327 C390.98979,139.395307 389.980607,139.138311 389.127813,139.009148 C388.289723,138.881316 387.426237,138.471189 386.628247,138.187562 C384.310467,138.8427 383.624757,138.852021 382.205217,141.122368 C382.00739,141.437953 381.888427,141.798812 381.673223,142.102412 C380.705477,143.459294 379.674907,144.862781 378.503987,146.059873 C378.111007,146.459348 377.621787,146.776264 377.1994,147.145113 C376.89063,147.414092 376.596563,147.676414 376.4375,148.067899 C376.04853,149.022643 376.29314,150.254356 375.805257,151.145184 C375.62748,151.467427 375.413613,152.002723 375.183707,152.277029 C374.502007,153.09462 372.36334,154.17187 371.351483,154.512755 C370.557503,154.779071 369.671293,154.882934 368.857263,155.134603 C367.686343,155.496793 366.550177,155.988147 365.363217,156.287753 C364.372747,156.539422 362.716617,156.973518 361.910607,157.645966 C361.406683,158.065415 360.785133,159.661981 360.591317,160.255867 C360.5178,160.475578 360.57394,160.791163 360.519137,161.021526 C360.298587,161.953633 359.6757,162.881746 360.290567,163.823174 C360.107443,164.31586 359.44312,166.847197 359.17044,167.254661 C358.718647,167.931104 358.125167,168.511674 357.668027,169.206759 C357.637283,169.253365 357.62258,169.33326 357.603867,169.385191 C356.422253,172.62493 357.416733,174.579692 354.7033,177.426614 C353.994867,178.168305 353.3399,178.945949 352.607407,179.665003 C351.91635,179.683645 351.179847,180.270872 350.506167,180.503899 C349.744267,180.767552 348.879443,180.577136 348.17101,180.867421 C347.025487,181.341464 344.059423,184.943393 343.33896,185.860853 C342.81766,186.526644 342.105217,187.566609 341.42218,188.033994 C341.031873,188.298979 338.822363,188.866233 338.264973,188.858243 C338.075167,188.85558 336.411017,188.621222 336.210517,188.574616 C335.163907,189.002054 334.137347,190.481441 333.80318,191.504096 C333.501093,192.434872 332.598843,194.50415 331.947887,195.108688 C331.343713,195.671947 328.648993,196.127348 327.961947,196.438938 C326.026453,197.312456 323.907837,199.979614 321.691643,198.130047 C321.17168,197.697283 320.647707,197.269845 320.10101,196.867708 C317.030687,196.111369 316.82083,198.682654 313.394953,198.909023 C310.816523,199.079465 308.145863,196.355049 305.832093,195.373673 C305.675703,195.305762 304.844297,194.930256 304.804197,194.928925 C304.685233,194.919604 303.72818,194.839709 303.670703,194.84903 C303.027767,194.946235 302.215073,195.352368 301.54674,195.529468 C300.783503,195.729205 299.398717,196.608049 298.684937,197.144677 C297.4806,198.050152 296.841673,199.052833 295.93274,200.204652 C295.39139,200.889085 294.811277,201.27258 294.17636,201.837171 C292.357157,203.45238 291.552483,205.802621 291.143463,208.126232 C290.98841,209.00907 290.088833,209.324655 289.562187,209.989114 C289.270793,210.355299 289.237377,210.722816 289.17589,211.166233 C289.0997,211.709518 289.086333,212.282098 288.99143,212.814731 C288.856427,213.634985 287.84457,215.607058 287.456937,216.440628" id="Fill-1" fill="#FFFFFF"></path>
            <path d="M287.456937,216.440628 L287.051927,216.359402 L286.638897,215.729564 C286.53731,214.55644 287.43555,212.018445 286.24057,211.207512 C286.503893,210.788064 286.620183,210.023736 286.594787,209.540371 C286.338147,209.243429 285.677833,207.941142 285.488027,207.842605 L284.91727,207.881221 L283.73432,207.870568 C283.331983,207.885215 282.94435,208.102263 282.562063,208.11691 C282.205173,208.132889 281.78145,207.983752 281.43258,208.021037 C280.813703,208.088947 279.370103,208.782701 279.180297,208.772049 L278.4732,208.072968 L277.53486,208.20879 L277.063017,208.011716 C276.866527,207.753389 276.603203,207.348588 276.533697,207.025013 C276.234283,207.036998 275.725013,206.782666 275.48575,206.62687 L275.20505,206.179459 L274.07423,206.014343 C273.60506,206.144838 273.014253,206.66016 272.71484,207.02235 C272.412753,206.999713 271.978337,206.344575 271.866057,206.115543 C272.102647,205.6668 272.206907,204.692082 272.24166,204.200728 C271.803233,202.594841 271.17901,202.34983 269.818283,201.781244 L268.990887,202.435051 C268.73692,202.480325 267.793233,202.403093 267.58204,202.218003 C267.33342,201.999624 266.983213,201.60947 266.705187,201.449681 C266.566173,201.371117 265.810957,201.208664 265.708033,201.136759 C265.11188,200.735953 264.499687,199.702645 263.74848,199.586798 L262.73395,200.681358 L261.285003,200.999606 C260.751673,201.116785 259.848087,200.297862 258.694543,200.93569 C258.28285,201.983645 257.722787,203.155437 257.061137,204.072897 C256.88336,204.319239 256.581273,204.508324 256.396813,204.752003 C256.16958,205.046283 256.027893,205.444426 255.79264,205.729384 C255.51595,206.060948 254.91445,206.409823 254.56157,206.682797 C254.516123,206.716086 254.191313,206.841255 254.12047,206.87055 C253.617883,206.632197 253.337183,206.183454 252.994997,205.762674 L252.607363,205.684111 L251.719817,206.700107 C251.6864,206.704102 251.50194,206.740055 251.479217,206.732065 C251.035443,206.562955 249.046483,205.779984 248.640137,205.783979 C248.10547,205.789306 247.477237,206.090243 246.933213,206.140843 C246.239483,206.206091 245.115347,205.926458 244.350773,205.90249 C244.210423,205.898495 244.124877,205.925127 243.9872,205.891837 C243.51001,205.782648 243.098317,205.337899 242.55964,205.377847 C241.2604,205.475052 239.76868,205.721395 238.46944,205.546958 C237.5311,205.423121 235.01683,204.403129 234.241563,203.937075 C233.77774,203.656112 232.256613,202.293903 231.947843,201.758608 L231.947843,202.182051 C231.5562,202.144766 231.152527,201.43237 230.873163,201.191354 C230.258297,200.657389 229.548527,200.175357 228.898907,199.678677 L228.90158,199.170013 L229.381443,198.494901 C229.023217,198.112737 228.844103,198.035505 228.373597,197.818457 L228.09958,198.682654 L227.330997,198.219263 L227.488723,197.300472 L227.18931,197.221908 L226.943363,196.910318 L225.88606,197.247208 L225.69358,196.65066 L224.760587,196.349722 L224.18181,195.662626 C223.81289,195.775811 222.504293,195.352368 222.466867,194.886314 L222.977473,194.441566 L222.893263,194.121986 L222.402707,193.755801 L221.65952,193.911596 C221.26654,193.694548 219.002227,193.63729 218.701477,193.609327 C218.432807,194.29376 217.83799,195.096704 217.245847,195.533463 C216.545433,195.436257 215.064407,195.215215 214.43751,194.869003 L213.187727,195.124667 C213.051387,194.79843 211.36585,193.086015 210.92475,192.711841 L209.791257,192.534741 L209.114903,191.65856 C208.371717,191.540049 207.48016,191.598639 206.74633,191.742449 C205.32679,190.771726 204.547513,190.626584 202.8446,190.035362 C202.297903,189.582624 202.398153,188.571953 202.0025,187.939452 L200.51479,187.41614 L200.296913,186.820923 L199.70477,187.28165 L199.458823,187.251024 L199.07119,186.883507 C197.993837,187.07925 197.055497,186.602544 196.415233,185.754326 L195.749573,185.617173 L194.46771,184.22567 C193.712493,184.077865 192.878413,184.027265 192.10983,184.053896 L191.734227,184.602508 L191.101983,184.345513 L190.504493,184.501308 L190.206417,184.404102 C190.12889,183.908754 189.645017,183.1391 189.15847,182.940694 L188.968663,183.490637 L189.29882,184.384129 L188.802917,185.426757 L188.52088,185.53861 L188.42865,185.79161 L188.503503,186.208396 L187.9274,186.550612 C186.711033,186.297612 185.51739,185.782289 184.488157,186.787634 C184.255577,187.016666 184.200773,187.361545 183.847893,187.490709 C183.34397,187.489377 182.924257,186.963402 182.580733,186.653144 L182.5941,185.655789 C182.356173,185.414773 182.194437,184.878145 182.186417,184.550576 L181.41115,184.260291 L181.905717,183.927396 C182.003293,183.691706 181.969877,183.264268 181.842893,183.044557 C181.155847,182.623777 180.393947,182.702341 179.63071,182.691688 L179.287187,182.43203 L178.87282,182.446677 L178.220527,182.882104 C177.883687,182.76093 177.121787,182.665056 176.762223,182.800878 C176.609843,182.495946 176.588457,181.953992 176.669993,181.627754 L176.351867,181.32948 C175.54051,181.554517 174.88688,181.553186 174.242607,180.971284 C173.714623,181.345459 173.320307,181.462638 172.71346,181.494596 C172.774947,182.360124 172.70945,183.284242 171.79517,183.553221 C171.63076,183.690374 171.31798,184.140449 171.33001,184.377471 C171.352733,184.820887 171.416893,185.309578 171.399517,185.750331 C171.368773,186.575912 171.132183,186.871523 171.55858,187.806294 L171.14956,188.309632 C171.58665,188.98208 172.23627,190.377578 172.182803,191.217806 C172.086563,191.377596 171.886063,191.858297 171.982303,192.050045 L171.649473,192.442861 L171.579967,193.615985 L171.144213,193.627969 C170.943713,193.829038 171.062677,195.056756 171.070697,195.352368 L171.59066,196.042127 L170.991833,196.585412 C170.86084,197.418983 170.374293,198.291169 170.052157,199.070144 L170.192507,199.657371 C169.89844,200.340473 169.965273,200.106115 169.961263,200.955664 C170.15909,201.376444 171.11748,201.472317 171.493083,201.613465 C171.5265,201.626781 171.944877,201.990303 172.001017,202.03824 L172.11597,202.640115 L171.95557,202.970347 L172.01973,203.140789 L170.902277,203.728017 C170.30345,203.68008 169.70997,203.616164 169.11248,203.548253 C168.99218,203.448385 168.589843,203.091521 168.529693,203.058231 C168.099287,202.826536 166.334887,202.45103 165.85235,202.520272 L165.765467,201.999624 C165.14258,201.506939 164.37266,202.272598 163.842003,202.096829 L163.279267,201.606807 L162.786037,201.775918 L162.156467,201.524249 L161.29298,202.060877 L161.326397,202.329856 L161.149957,202.614815 L161.448033,203.075542 L161.450707,203.423085 C160.86391,204.417776 160.625983,204.664119 161.219463,205.882516 C159.886807,206.227396 159.80928,208.275369 158.268103,208.027695 L158.12107,208.23409 C157.15867,208.489753 156.678807,209.259408 156.309887,210.138252 L156.375383,210.673548 C155.83938,211.322028 155.732447,212.464525 155.556007,213.274127 L155.842053,213.48718 L155.961017,213.887986 C155.761853,214.300776 155.969037,214.697588 155.910223,215.10372 C155.860767,215.451263 155.692347,215.853401 155.687,216.19828 C155.684327,216.468591 155.85141,216.873392 155.914233,217.138377 C155.696357,217.593778 155.431697,218.041189 155.192433,218.485938 L155.216493,218.81617 L154.894357,219.145071 C154.246073,218.973297 153.254267,219.183687 152.608657,219.248934 C152.37875,218.576485 152.16221,217.492578 151.64893,216.946629 L151.342833,216.934645 C150.98327,217.248898 150.744007,217.306156 150.310927,217.372735 L149.769577,215.543142 L149.172087,215.195599 C148.56925,216.111727 146.742027,216.678981 146.522813,217.319472 C146.045623,217.069135 145.763587,216.74556 145.375953,216.362065 L144.449643,216.387365 L144.06201,215.999875 L143.72116,215.922643 C143.539373,215.99588 143.28407,216.066454 143.11966,216.166322 L142.629103,215.584421 L142.619747,215.095731 L142.363107,214.804114 L141.885917,214.652314 L141.099957,213.552427 C140.59336,213.634985 139.69512,213.545769 139.51868,214.162292 L140.193697,215.147662 C140.255183,215.580426 139.525363,217.208951 139.324863,217.560488 C139.20991,217.761557 138.385187,218.44599 138.14726,218.599122 C137.555117,218.219621 136.989707,218.339464 136.27459,218.303511 L135.968493,218.679017 C135.870917,218.951991 136.3588,219.780235 136.505833,219.995952 C136.373503,220.332842 135.870917,220.733648 135.554127,220.874795 L135.290803,220.258273 L135.03149,220.189031 C134.37385,220.311536 133.57987,222.286272 132.820643,222.934752 L132.261917,223 L131.89567,221.597844 C131.627,221.571213 131.006787,221.458028 130.82901,221.22367 C130.597767,220.918738 130.365187,220.555216 130.108547,220.275584 C129.785073,219.926709 129.410807,219.740288 129.122087,219.299534 C128.734453,219.198334 128.06612,219.351466 127.758687,219.609793 C127.405807,219.689688 127.010153,219.117108 126.737473,218.978623 C126.665293,218.94267 126.224193,218.909381 126.111913,218.87476 C125.394123,218.648391 124.74584,218.246253 123.962553,218.271553 C123.597643,218.620428 122.73282,218.259569 122.353207,218.119753 C122.160727,218.046516 121.30125,218.155705 120.83609,217.998579 L119.808193,218.628417 L118.92733,218.439332 L118.913963,217.74691 L117.21105,217.782863 L117.104117,216.998561 L116.715147,217.22493 L116.371623,217.170335 L115.69527,216.354075 L116.08424,215.535153 L116.0281,215.286147 L115.766113,215.034478 L115.33838,215.216905 L114.954757,215.138341 C114.75292,214.941267 114.025773,214.360697 114.053843,214.094381 L114.879903,213.017131 C115.188673,212.777447 115.906463,212.834705 116.237957,212.967863 L116.671037,212.540425 C116.804703,212.158261 116.672373,211.190201 116.295433,210.958506 L115.385163,210.828011 C115.132533,210.670884 113.989683,209.164865 113.868047,208.971786 C113.84666,208.934502 113.741063,208.439153 113.723687,208.368579 C113.424273,208.068974 112.392367,207.773362 112.096963,208.003726 C111.6572,207.938479 111.142583,207.770699 110.71485,207.646862 L110.50232,207.09825 L109.602743,206.847913 C109.570663,206.782666 109.414273,206.435123 109.37952,206.39917 C108.10835,205.007667 106.246373,202.363146 104.02617,202.548236 C102.912727,202.617478 102.311227,202.657425 101.7926,201.625449 C102.140133,201.317854 102.371377,200.48961 102.39811,200.052851 C101.51992,199.239255 101.71641,198.946307 101.384917,198.209942 C101.26328,197.939631 100.931787,197.652009 100.764703,197.377703 C100.034883,197.308461 100.218007,197.395014 99.6846767,197.052798 L98.60866,194.774461 L98.7503467,194.156607 C98.54851,193.826375 98.05528,193.095336 97.69839,192.898262 L97.5085833,192.28973 L96.7573767,193.034084 C96.43524,193.111315 95.9446833,192.88761 95.6278933,192.785078 C95.4340767,193.038078 94.4596467,193.11531 94.1749367,193.119305 L93.9463667,192.935547 C93.9436933,192.630614 93.8113633,191.926208 93.52398,191.735791 L93.0681767,191.755765 C92.7553967,191.603965 91.8077,188.545322 90.95758,187.737051 L91.4067,187.125855 C90.9990167,187.032645 90.31197,187.164471 89.9778033,187.41614 C89.6329433,187.123192 89.4725433,186.827581 89.2439733,186.440091 L89.3241733,186.021974 C89.1343667,185.6478 89.0154033,185.56391 88.6745533,185.272294 L88.3056333,185.236341 L88.0129033,185.495999 C86.78718,184.980677 87.5022967,185.763647 86.5439067,185.545268 L85.7713133,184.984672 C85.42779,185.156446 84.6926233,185.416104 84.2942967,185.340204 L84.0710733,185.968711 L84.3237033,187.232382 L83.9146833,187.643841 L83.30249,187.587914 L82.4791033,186.678444 L82.1689967,186.673118 C81.9283967,186.578575 81.63834,186.203069 81.5314067,185.98469 C81.1798633,185.867511 80.1519667,185.432083 79.9675067,185.071225 L79.40076,184.94073 L79.12006,184.405434 L78.7752,184.354834 L78.0507267,183.698364 L78.24588,181.786212 L77.8863167,181.225617 C78.1309267,180.930005 77.90904,179.739571 77.82483,179.409339 L77.4144733,178.927306 L77.4612567,178.6277 L77.8515633,178.233552 L77.80478,178.047131 L77.27546,177.755514 L76.42935,177.497188 C76.3718733,176.90996 75.0632767,175.485167 74.5954433,175.423915 L74.3708833,174.692876 L70.8688167,171.824649 C70.3074167,171.616922 68.5497,172.527724 67.5859633,172.210808 C67.3199667,172.122924 66.9911467,171.901881 66.61688,171.654207 C65.9565667,171.017711 65.2521433,170.466436 64.47554,169.971087 L64.3097933,169.51036 C64.52767,168.969738 64.7014367,168.214731 64.6426233,167.626172 L64.38331,167.278629 C63.5746267,167.33855 62.8782233,166.024279 62.35826,165.602168 C61.9986967,165.313214 61.4413067,165.058882 61.0376333,164.820529 C60.7048033,164.386433 60.7850033,163.767248 60.78233,163.254589 C60.6901,162.921693 59.7544333,162.508903 59.4697233,162.413029 L59.3173433,162.013555 L59.45502,161.373064 C59.34675,161.166669 59.17432,160.899021 58.99387,160.745889 L58.01142,160.580773 C57.72671,160.428972 57.5369033,159.721902 57.5088333,159.439607 L57.14526,159.10538 L56.0959767,158.997522 L55.77785,158.606037 C55.3835333,157.599361 56.4528667,156.974849 55.7484433,155.595331 L54.7659933,155.432878 C53.2528867,154.251764 52.6072767,152.057318 50.4298467,151.997397 L49.1880833,151.961444 L48.8619367,151.652517 L47.2499167,151.316958 L47.1068933,151.773691 L47.3795733,152.415513 L46.9825833,153.225115 C46.8208467,152.712456 46.0282033,152.456792 45.5496767,152.499403 L45.0925367,152.01737 C44.0298867,152.170502 42.3189533,152.258387 41.2817,151.872228 L41.0798633,151.57129 L41.1761033,150.665815 C41.0277333,150.276993 40.28722,149.653813 39.9717667,149.410133 C39.92632,148.480689 39.9089433,148.00132 39.6402733,147.150439 C39.2419467,146.753628 38.2046933,145.952015 37.5991833,145.910736 L36.8773833,144.857455 C36.0312733,144.910718 34.6184167,144.616439 33.9460733,144.058506 L33.48626,141.298137 L32.32336,139.969218 L33.05318,139.457891 C33.3793267,138.473852 32.4222733,137.742814 32.9622867,136.240789 L32.4383133,135.508419 C31.62161,135.539046 30.2328133,135.325993 29.7222067,134.56566 L29.8999833,134.174174 C29.59255,133.965116 28.9282267,132.973088 28.8654033,132.67215 C28.5927233,131.351221 29.1527867,130.71872 28.99907,130.100866 L28.2478633,129.331212 C28.34544,128.735995 28.1583067,128.289915 27.9350833,127.76394 L28.0299867,127.384439 L27.5675,127.144754 L26.7721833,127.429713 L26.28029,126.785227 L25.9287467,126.738622 L25.81112,126.404395 C25.94345,126.204658 26.17202,125.670693 26.05573,125.425682 L25.6654233,125.355108 L25.5050233,124.996913 L26.10786,124.465612 L26.0303333,123.654678 L26.2976667,123.187293 C26.3096967,122.890351 25.9447867,122.398997 25.7482967,122.211244 L25.69483,121.3324 C24.98506,121.541458 24.3341033,121.510832 23.7031967,121.12201 L23.3944267,120.532119 C22.66728,120.457551 22.1633567,119.956876 21.4335367,119.934239 C20.91892,119.659933 20.2840033,118.014098 20.12093,117.501439 L19.5087367,117.312354 C19.3015533,116.99677 18.9927833,116.622595 18.83372,116.287036 C18.68936,115.983436 18.6385667,114.790339 18.9887733,114.590601 L22.6325267,112.508007 L22.7301033,112.330907 L22.4574233,110.23766 L22.83971,109.655759 C22.81966,108.973989 22.69134,108.234961 23.0656067,107.622434 C23.3556633,107.618439 24.0373633,107.706324 24.2579133,107.935356 L24.42767,106.342784 L25.16551,106.052499 C25.6279967,105.423992 25.6427,104.719586 25.8739433,104.013847 C26.1025133,103.324088 27.6009167,103.093724 27.49532,101.656948 C27.4725967,101.350684 27.34695,100.969851 27.2801167,100.664919 C27.27477,100.635624 27.0462,100.359987 27.01412,100.320039 C26.0610767,100.165576 24.9543167,99.9458649 24.0734533,99.5277483 L23.9050333,99.2521108 L23.5588367,99.3666269 L23.1337767,99.1722159 L22.77956,98.3546247 C22.77154,98.0789873 22.9252567,97.5743178 23.1698667,97.4065385 L23.7927533,97.252075 C24.0387,96.9125216 24.10286,96.1415358 24.0614233,95.7473876 L23.7232467,95.2360602 L23.2019467,95.1734758 C22.87981,94.9604228 22.5362867,94.4091479 22.49485,94.0229892 L20.7237667,94.8472383 L20.3388067,94.4131427 L20.7104,93.9524154 L20.7037167,93.5050039 L20.3441533,93.2746402 L19.9391433,93.3478772 C19.3536833,93.2133875 18.6666367,92.7633128 18.24826,92.3478593 L17.77909,92.4171016 L17.59864,92.0575745 L17.1361533,92.0229534 L16.90491,91.4983101 L16.1884567,91.2226727 C16.0440967,90.8564877 15.71795,90.4090763 15.3864567,90.1893653 L14.9707533,90.1174598 L14.62723,90.4570132 C14.2569733,89.9869648 13.90543,89.5675166 13.92548,88.923031 C13.23576,88.5142354 11.47136,88.5741566 10.4394533,88.2239506 L11.1452133,87.0148743 L10.9233267,86.5940945 L10.37663,86.3104675 C10.0063733,85.7006031 10.0143933,85.6393503 9.46769667,85.2305547 L8.66436,85.25186 L8.59084333,84.5780797 L7.75141667,84.5181585 L7.33304,84.1839315 C7.00956667,83.4382457 6.53638667,81.9069266 6.70614333,81.0693617 C7.18734333,80.7231504 7.718,79.9401803 7.85300333,79.3622738 L7.75141667,79.0107363 L7.42928,78.8070042 C7.21808667,77.1358691 6.51901,76.3249358 5.48844,75.1731176 L5.25452333,75.1771123 L5.01526,75.5459605 L4.34826333,73.770962 C3.38319,73.3581716 2.84451333,73.1038395 1.84869667,72.9693497 L1.26724667,71.9933003 L0.943773333,72.0731952 L0.5,71.7762525 L1.09481667,71.1890249 L0.86892,70.8068609 L1.05739,70.5764973 L1.6228,70.3714337 L1.82597333,70.4673076 L2.18954667,70.4100496 C2.39272,70.0185645 2.93006,69.5884636 3.28695,69.3527736 L3.13590667,68.8520989 C2.77367,68.6230668 2.31920333,68.0598077 2.23098333,67.6310384 L2.58252667,66.9053263 L1.68428667,65.9079716 L2.61460667,65.9332716 C3.79488333,65.0091539 4.97917,65.9106347 5.67022667,65.3313967 L6.13004,65.4059652 L6.18618,66.5484624 L6.86921667,66.8001314 L6.75693667,68.0105392 L7.03362667,68.5378456 L6.98951667,69.3900579 L7.28759333,69.8973906 C8.19519,70.2129755 9.25784,70.0491909 10.2015267,70.0225593 L10.7843133,71.5072729 L10.55708,71.7136681 C10.3097967,71.7509524 9.91548,71.5778468 9.75508,71.3940885 L9.29393,71.8894369 C9.70428667,72.2875799 10.1948433,72.8814653 10.6519833,73.2063713 C11.1973433,73.59253 11.9285,73.5246193 12.3295,74.2010629 C12.1985067,74.4993372 11.9819667,74.8189168 11.75607,75.0519436 L12.1864767,75.773661 L11.55557,76.5419836 C11.6130467,76.8269421 11.8990933,77.2863379 12.1864767,77.3981907 L12.4203933,78.1891503 L14.1005833,78.5952827 C14.4320767,77.9001971 14.7448567,77.2104377 15.00417,76.4847256 L14.3598967,75.8295874 L14.3211333,75.4993551 C14.55104,75.1997492 14.7702533,74.894817 14.9827833,74.5832268 L14.5857933,73.201045 L15.07234,72.6897176 C15.3784367,72.6084911 15.92246,72.729665 16.2004867,72.8521705 L16.37559,72.2369798 L15.9652333,71.0065982 C15.9973133,70.7456082 16.2004867,70.2569177 16.4571267,70.1304174 L16.4370767,69.5977847 C16.5333167,69.3221473 16.8942167,68.9985729 17.14952,68.8787305 L17.3286333,68.4845823 C17.5692333,68.3034872 18.04776,68.1636711 18.3471733,68.2129396 L18.7708967,67.9399654 C19.0609533,67.005195 18.69738,66.6869469 18.7227767,66.4326148 L18.8323833,65.3034335 C19.5782433,65.3154177 19.9712233,64.9612169 20.7972833,65.1196752 L21.1007067,64.7787902 L21.0525867,64.0637308 C21.4589333,63.6056667 22.2288533,63.1449394 22.75951,62.8679704 L23.6377,63.0357497 L23.9892433,62.8999283 C24.2846467,62.6123067 23.7833967,61.2594196 24.08682,60.6495551 C24.62416,60.4418284 25.0813,59.8226429 25.02917,59.2354153 L26.55297,58.5176927 L27.1999167,58.6681615 L27.49131,58.4857348 L28.0714233,58.6535141 C28.5552967,58.4950558 29.2583833,58.1847973 29.6273033,57.8159491 L30.6057433,58.0516391 L31.5721533,57.1488267 L32.3180133,57.1448319 L32.6909433,57.4990327 C33.5825,57.6601541 34.2053867,57.6321908 34.8590167,56.9743894 C35.3616033,57.472401 36.1221667,58.3845345 36.7370333,58.644193 L37.0645167,58.2820027 L36.94288,57.7227384 L38.47069,56.0462769 C39.6122033,54.7892637 40.6975767,55.00498 41.9045867,54.1034991 L42.1585533,54.126136 L42.6116833,55.0542485 C42.91778,54.7386636 43.67968,53.7559563 43.61552,53.2659342 C44.7196067,53.6014928 47.6803233,55.7067236 48.4689567,56.3951514 L49.03704,56.4590673 L50.6463867,57.74937 C50.95783,57.1980952 52.4749467,56.9996895 53.0403567,56.8625366 C53.06709,56.8558787 53.63651,56.364525 53.6819567,56.3259091 L53.9038433,55.5482654 L55.48913,54.4177524 L55.7644833,53.7080193 L55.4196233,52.317848 C55.54527,51.951663 55.7163633,51.6067833 55.8781,51.2565773 L55.7885433,50.5788022 C56.2256333,49.7931689 56.22296,49.2911626 56.3192,48.4442766 L57.1265467,48.7159193 L57.7374033,49.4962262 C59.4095733,49.8863797 60.7475767,49.0994148 61.8396333,47.9422703 C62.71515,48.2445393 62.4130633,48.0128441 62.7057933,48.9689198 C63.7403733,48.5880874 64.7669333,49.3364364 65.83493,48.9862304 L66.0327567,48.6972771 L65.8843867,48.2179077 C66.46049,47.7451962 67.1314967,46.4122828 67.5177933,45.7704604 L67.46299,45.4402281 C67.58329,45.2897594 67.6928967,45.1259748 67.78379,44.9568639 L67.45898,43.9541828 C67.6274,43.8156983 68.5269767,43.1552338 68.52163,42.9661492 L68.3665767,42.5666746 L69.3891267,41.2071296 L70.5774233,41.285693 L70.7565367,41.4241775 L71.26046,42.6678748 L71.7242833,42.7064907 L72.11058,42.4761271 C72.39529,42.5014271 73.0382267,42.4907745 73.29754,42.3323162 L73.5434867,41.9661312 C73.3469967,41.4481459 73.30556,40.5519914 73.6557667,40.0832746 L74.1543433,40.0233534 L74.4751433,39.5626261 C74.8547567,39.6092315 75.6661133,39.1711411 75.9615167,38.9780617 C76.0590933,38.6691348 76.3919233,38.2510181 76.6833167,38.1032125 C76.4093,37.7756434 76.4681133,36.4986565 76.4547467,36.0086344 L76.6632667,36.3495193 C76.91456,36.7609781 77.4118,37.019305 77.7579967,37.3548636 C78.3207333,37.8981489 78.3742,38.3668657 78.59876,38.6358452 C78.81129,38.8915089 79.2096167,39.1604884 79.46893,39.381531 C79.4863067,39.39751 79.5772,39.6052368 79.5945767,39.6385263 L80.4741033,39.795653 C80.7334167,40.1272168 81.3001633,40.4401385 81.6797767,40.5906073 C81.9832,40.1471905 82.2986533,39.5679525 82.6501967,39.1698095 C83.1033267,38.655819 83.7476,38.4733922 84.0256267,37.745017 L85.00273,37.3601899 L85.29947,36.7157043 L85.2326367,36.3015824 L84.8810933,36.3934615 L84.64183,36.2310085 L84.5763333,36.0219502 L85.5226933,34.6384367 L85.70047,34.5545471 L86.3995467,34.6157998 L86.26588,34.236299 L86.55861,33.2056547 C86.5572733,32.9073804 85.94909,32.1443841 85.7619567,31.9326626 L85.8154233,31.6130829 C86.2632067,31.3068191 86.1068167,31.45063 86.3728133,30.9273183 L87.16011,30.5291754 C87.4702167,30.6370335 87.9955267,30.6796441 88.3123167,30.571786 L88.55158,30.7528811 L88.9900067,30.6303756 L89.5527433,30.8021496 C90.1408767,30.6396967 90.7303467,30.4812384 91.3158067,30.3081328 C91.37462,29.7275631 93.0842167,28.9086404 93.6576467,28.9299457 C94.22172,29.3067833 94.61871,29.5637786 95.0451067,30.0498059 C95.3779367,30.1403535 95.6840333,30.2135905 96.03424,30.2202484 L96.5181133,29.8780319 C96.6972267,29.4838837 96.8389133,29.1669672 97.2345667,28.9259509 L97.55804,28.893993 C97.7197767,29.0404669 98.0940433,29.22822 98.3226133,29.1869409 C100.077657,27.8460381 99.7140833,28.7621664 102.20162,28.7435242 L103.262933,29.4718994 L104.65173,29.2961307 L105.14095,28.9113035 L105.308033,27.909954 C105.721063,28.1349913 106.362663,28.2148862 106.822477,28.1922494 C107.131247,28.0377859 107.485463,27.5464322 107.625813,27.2468263 L107.55898,26.8566728 L106.940103,26.2081925 L106.798417,25.4132382 C107.288973,24.7394578 107.480117,24.2347883 107.67126,23.4664656 L107.909187,23.5104078 C108.804753,23.6808503 109.753787,24.0816564 110.420783,23.2121335 C110.500983,23.1096017 110.629303,22.6262375 110.708167,22.5263689 C111.130553,21.981752 112.746583,21.0642921 113.440313,21.0083657 L113.79854,21.6941303 L114.57648,21.6448618 C114.703463,21.8086463 115.083077,22.1655102 115.316993,22.1628471 C115.57497,21.9644414 116.298107,21.5090404 116.64965,21.5343405 C116.855497,21.656846 117.36744,21.7607094 117.597347,21.7074461 C118.130677,21.5822774 118.41004,20.8978444 118.79099,20.5769332 L119.774777,19.9990267 C119.854977,19.9644056 120.14236,20.0110109 120.227907,19.9777214 C121.131493,19.6275154 122.133993,19.0376246 122.883863,18.4197707 C123.70324,18.4330865 124.903567,18.2280229 125.64408,17.9310802 C126.262957,17.683406 127.421847,16.1068132 127.309567,15.4436854 L127.05961,15.1760375 C127.158523,15.0988058 127.451253,14.8364841 127.555513,14.8231683 C127.675813,14.8085209 128.345483,14.7406103 128.421673,14.7153102 C128.894853,14.5581836 129.143473,14.2119723 129.727597,14.1720248 L130.489497,14.8751 C131.016143,15.1760375 131.556157,14.760584 132.06008,14.6833522 C132.86609,14.5595151 133.509027,14.6979996 134.3137,14.3318147 L134.524893,13.986935 C134.9152,14.0881352 135.900323,14.1706933 136.255877,13.8910611 L136.516527,13.4889234 L136.53925,12.4915686 C137.015103,11.9855676 137.62596,10.6233594 136.72772,10.2105691 L136.02998,10.1493163 C133.645367,9.93892637 134.79891,9.78046814 133.376697,9.33172509 C132.943617,9.19457216 132.430337,9.43692005 131.9478,9.191909 L131.913047,8.51679704 L131.3864,8.22118588 L131.288823,7.72051114 C131.520067,7.50213173 132.030673,7.36231564 132.34078,7.37696304 L132.62549,7.13994148 L132.44504,6.42754523 L131.71522,6.39825043 C131.344963,6.6712247 130.55232,7.08667821 130.068447,7.07336239 L130.03503,6.78574073 C129.639377,6.53007703 129.29719,6.27707649 128.79995,6.23579746 L128.493853,5.67653311 L129.17689,4.95082104 L128.73178,4.29568281 C128.981737,4.00140324 129.535117,3.74174479 129.901363,3.65519197 L129.87864,3.0613065 L130.166023,2.59924763 L129.937453,1.72306682 C130.310383,1.40615036 130.7849,0.792291157 130.911883,0.308926972 L131.397093,0.00932107243 L131.91572,0 C132.44103,0.2996059 132.99842,0.808270138 133.349963,1.29962381 C133.673437,1.43544515 134.26157,1.09855497 134.57435,0.972054696 L135.60893,1.35954499 C135.750617,1.55262435 135.860223,1.93345674 135.82146,2.17314146 C136.604747,3.14253299 137.59789,3.32629128 138.758117,2.9521168 L139.87557,2.0240043 C140.267213,1.9654147 140.474397,1.99337792 140.883417,2.06262017 L141.585167,2.74305846 L142.102457,2.75504269 C142.544893,2.25969427 142.400533,1.35421867 142.761433,0.740359467 L143.16377,0.800280647 L143.451153,1.52199797 L142.928517,2.50870007 L143.03144,3.15185406 C143.322833,3.59127605 144.345383,3.62989192 144.781137,3.51138114 L145.021737,3.67649728 L145.073867,3.96678211 L144.885397,4.31698812 L145.019063,4.65654147 C145.40937,4.67518361 146.378453,4.25307219 146.723313,4.0919508 C147.215207,4.99476324 147.73116,5.78172807 148.55321,6.41689258 L148.542517,7.45685794 L148.67752,7.59267929 L148.471673,7.69254792 C148.47301,8.83504508 147.324813,10.4542485 146.715293,11.4316295 L146.709947,11.8564041 L147.072183,12.2798471 C147.900917,12.6939691 149.754873,11.6619932 150.687867,11.3424136 L151.044757,10.6646384 C151.26798,10.739207 151.7973,11.016176 151.858787,11.2784976 L151.9176,12.8337852 C151.918937,12.8590852 151.763883,13.2266018 151.763883,13.2266018 C150.856287,14.0401982 150.985943,15.1161163 150.523457,16.1986923 C150.340333,16.6287932 150.12112,16.8178778 150.043593,17.3931212 C150.515437,17.871159 151.38427,17.7846062 151.747843,18.3199021 C152.918763,18.132149 153.579077,18.6328238 154.486673,19.3745148 L155.580067,19.3864991 C155.78725,19.4544097 156.00379,19.7659999 156.05191,19.9657371 L155.944977,20.1375112 L156.01582,20.6554965 L156.510387,20.6648176 L157.139957,20.2187377 C158.444543,20.3998328 158.776037,21.33194 159.988393,20.6768018 L160.60326,20.9457813 C160.625983,20.9031707 160.76366,20.6661492 160.769007,20.6355228 C160.84787,20.1241954 160.89198,19.5516152 161.017627,19.052272 C161.262237,18.06557 162.220627,17.5302741 162.292807,16.3904401 C163.224463,16.8817938 164.491623,17.2546367 164.911337,15.9110706 L165.576997,16.1028184 C165.705317,16.355819 166.118347,16.6114827 166.396373,16.6367827 L166.735887,16.046892 C167.670217,16.2972294 170.01874,17.2865946 170.657667,17.1694154 C170.918317,17.1201469 171.19768,16.8271989 171.456993,16.7845883 L172.357907,16.6367827 C172.470187,16.5329193 172.578457,16.422398 172.698757,16.3265242 C172.811037,15.9350391 172.506277,14.7219681 172.43677,14.3398041 L172.82173,13.2811966 L172.722817,13.0255329 C172.407363,12.7951693 172.102603,12.5514898 171.793833,12.3144683 L171.66284,11.789825 C172.744203,11.3850242 172.955397,10.8989968 173.66383,9.97221592 C173.6117,9.69125216 173.261493,8.33437033 173.47536,8.15061205 L173.945867,7.83236401 C173.666503,7.47017376 173.204017,6.73380904 173.161243,6.25976593 L172.34855,6.19451842 C172.15607,6.38227145 171.701603,6.55271392 171.43026,6.48347167 L170.919653,5.88026512 L171.88339,4.12790351 C172.010373,4.09860871 173.229413,3.8868872 173.312287,3.72842897 L173.400507,3.0027169 L174.182457,2.41415776 L174.20518,2.76036902 L174.43776,2.98940109 C174.48989,3.23574372 174.67034,3.72842897 174.51796,3.93881889 L174.71445,4.28503015 C175.128817,4.15986147 175.54051,4.00672956 175.95354,3.86691348 L176.219537,3.07861707 L177.258127,3.78302383 L178.565387,3.86025557 L178.80064,4.0480086 L178.27934,4.78836807 L178.364887,5.16653729 C178.58811,5.49144324 180.210823,5.87627038 180.61717,5.9987759 L181.068963,5.66055413 L180.563703,5.17852153 L181.024853,4.04401385 C181.296197,3.74440795 182.495187,3.48874425 182.872127,3.42882307 C183.06728,4.43949364 183.00312,5.40755359 183.001783,6.44219263 C183.229017,6.66323521 183.698187,6.83634084 184.00562,6.87761987 L184.303697,6.56203499 L184.381223,6.10263928 L186.753807,5.23844271 L187.05723,6.45684003 L187.448873,6.78440915 L188.754797,6.86563564 L189.06223,7.3503314 C189.059557,8.58071296 189.215947,8.27711232 190.09681,9.11600884 C189.77601,9.80709978 189.245353,10.3117693 188.738757,10.8643757 L188.494147,12.1426942 C188.69331,12.6540216 189.42313,14.0069087 189.14243,14.582152 C189.834823,15.3078641 190.568653,16.2239924 191.004407,17.1321311 C191.910667,17.2732788 192.714003,17.8578432 193.494617,18.3079178 C193.528033,18.32656 193.60155,18.3531916 193.62561,18.383818 C194.621427,19.5742521 194.874057,21.1721502 194.284587,22.618248 C194.82861,23.2334388 194.601377,23.8512928 194.88876,24.5024363 C195.299117,24.767421 195.56244,24.8273422 196.058343,24.9605004 C196.72935,24.0843196 197.61155,23.4944289 197.63962,22.2813579 C198.078047,21.8978623 198.503107,21.3492506 199.14738,21.5729564 L199.5163,22.5743058 L200.132503,22.8060011 C200.227407,23.0843017 200.54286,23.3106706 200.768757,23.4491551 C202.261813,24.3666149 202.498403,23.5117394 202.951533,23.8206664 L203.671997,24.7381262 C204.226713,24.5330626 205.56338,24.3732728 206.019183,24.8846002 C207.986757,24.6568997 208.725933,24.5144205 210.20295,26.1389503 C210.927423,26.1203081 212.74128,26.4918194 213.223817,27.0604048 L213.128913,27.6409745 C213.15832,27.8180749 213.93225,28.1909178 214.097997,28.2841285 L215.611103,28.2148862 L216.31419,28.5810712 C216.70316,28.0750702 217.382187,27.6529587 218.043837,27.6822535 C218.25102,27.8580223 218.701477,27.9552278 218.962127,27.8913119 C219.248173,27.7288589 219.63046,27.3094106 219.703977,26.9791784 C220.602217,26.1695766 222.041807,27.8913119 221.68358,29.2734938 C221.953587,29.7781633 222.375973,30.6237177 222.988167,30.7954917 C223.276887,31.7875202 223.847643,32.9779543 223.679223,34.0418881 L224.846133,34.3028781 L225.190993,33.812856 C225.686897,33.6490715 226.192157,33.4559921 226.694743,33.3188392 C226.817717,33.2842181 227.167923,33.2788917 227.262827,33.2416075 C227.519467,33.1417388 227.75071,32.9033857 228.00735,32.8008539 C228.97777,32.4160268 230.20483,32.0964471 231.092377,32.8434645 C231.485357,33.8887562 232.08151,35.3588225 231.938487,36.4374037 C231.815513,37.3508688 231.81284,38.5426345 231.222033,39.3122888 C231.421197,39.5825999 231.643083,39.8116319 231.899723,40.0340061 C232.48652,39.9421269 233.086683,39.9088374 233.666797,40.0752851 L234.51959,39.3841942 L235.099703,39.6332 C235.528773,39.3828626 235.563527,37.6504747 236.02334,37.0552577 C236.277307,36.7250254 236.811973,36.4413985 237.11807,36.1391294 C237.16619,36.0911925 237.656747,35.2642802 237.724917,35.1550905 C238.23285,35.2549591 238.728753,35.2682749 239.24337,35.2829223 L239.923733,35.7769392 C241.166833,35.5279334 242.417953,37.5079955 243.078267,38.3495551 C243.39372,38.0752493 244.118193,37.7210485 244.559293,37.7743118 L245.024453,37.1977369 C245.04584,36.3814773 245.2704,34.7449633 245.96814,34.2309727 C246.93054,34.2323043 248.08542,34.6277841 248.83128,35.2283275 C250.421913,35.481328 250.857667,34.2948886 252.679543,35.5186123 L253.108613,36.6291515 C254.254137,37.1071893 254.627067,38.1618021 255.405007,38.9927091 C256.549193,40.212438 257.405997,40.3376067 258.199977,42.0300472 C258.33097,42.3056846 258.490033,42.7624171 258.34701,43.0873231 C257.871157,42.9648176 257.041087,43.1565654 256.6187,43.3682869 L256.058637,43.2457813 L255.818037,43.4694871 C255.843433,43.9621723 255.96106,44.5240998 256.160223,44.9768376 C255.866157,45.3430226 255.573427,45.6892339 255.2152,46.000824 C255.40768,46.2924404 255.292727,47.0594315 255.19916,47.3590374 C253.898583,47.9715651 253.73551,49.4695946 252.679543,49.745232 C252.0072,49.7878426 250.98465,49.3257837 250.520827,48.8544038 L249.947397,49.1207201 L249.87789,49.5801158 L250.320327,49.8477638 L250.432607,50.1553592 C250.081063,50.5907864 249.113317,51.0022452 248.60672,51.162035 L247.8368,51.0022452 L247.66838,51.7346152 C247.41174,51.6880098 246.955937,51.747931 246.744743,51.9170419 L246.988017,52.2099898 L246.88242,52.416385 L246.456023,52.2779005 L246.318347,52.7492805 L245.633973,52.7040067 L245.2303,53.2100078 L245.461543,53.8917776 L245.838483,54.1660835 L245.68343,54.5083 L245.076583,54.5202842 L244.54058,54.0728728 L243.93106,54.0861886 C243.809423,54.2805995 243.667737,54.4656894 243.536743,54.654774 C243.76264,56.2659879 244.41627,55.7759658 244.62078,57.5549591 L245.17817,57.6774646 L245.608577,57.3658745 L246.223443,57.4138114 L246.655187,58.0716128 L246.49345,58.8705619 L247.11099,58.9184988 L247.60823,59.5656476 L247.4358,59.7826954 L247.637637,60.2753807 C247.962447,60.3752493 248.363447,60.8426345 248.501123,61.1342509 L250.09844,59.9611274 C250.861677,59.8585956 252.4082,59.9451484 253.06985,60.4258494 C253.648627,61.4298621 253.079207,62.3393324 253.437433,63.0956709 C253.758233,63.7721144 254.49741,64.5297844 254.93851,65.1716069 C255.8167,65.2701439 256.697563,65.2275333 257.578427,65.279465 C257.622537,65.3140861 257.892543,65.5204813 257.90992,65.5497761 C258.201313,66.0424613 258.480677,66.5990625 258.810833,67.0637846 C259.34149,67.8134651 259.384263,67.4739117 259.695707,68.5018929 C259.93898,68.8174778 260.313247,68.9586254 260.529787,69.2276049 C261.168713,70.0159014 261.044403,70.6896817 262.22067,70.946677 L262.819497,72.4540276 L263.277973,72.7509703 L263.661597,72.7509703 C264.003783,73.0918553 265.030343,73.9081149 264.996927,74.366179 L264.889993,74.7456798 L265.309707,75.4354392 C265.09985,75.7323819 264.96351,76.7204156 265.004947,77.0386636 C265.110543,77.8109811 265.611793,78.0546605 265.225497,79.1385681 C265.25223,79.4914373 266.32691,80.2451126 266.6036,80.4208814 L266.697167,80.6765451 L266.381713,81.3196991 L266.59959,81.6206365 L268.016457,82.157264 C268.290473,83.0294501 269.0096,83.5980355 269.63516,84.2212157 L270.708503,84.2185526 C271.156287,84.6965904 271.654863,85.0414701 272.287107,85.1386756 C273.090443,85.2625127 273.389857,85.3144444 274.183837,85.0840807 C274.774643,84.086726 275.336043,83.0667343 275.865363,82.03609 L276.932023,81.9721741 C277.54689,81.5021258 278.295423,80.5899922 278.610877,79.8962381 C278.827417,79.4182003 278.89826,78.7910253 279.073363,78.2890189 C279.188317,77.9561235 279.498423,77.5553174 279.677537,77.247722 L280.603847,77.1372007 L280.77093,76.3422464 C281.046283,75.9600824 281.51278,75.5899027 281.9218,75.3648653 C282.203837,75.4767182 282.493893,75.9161402 282.568747,76.1917776 L283.47768,76.4700782 C284.140667,76.0173404 284.450773,75.203744 284.633897,74.4580582 C285.778083,73.7350093 286.375573,73.9280886 287.557187,74.1744312 C287.839223,74.105189 288.50221,73.8841464 288.70271,73.6511196 L288.5383,72.8974443 C288.765533,72.6577596 289.19995,72.3315221 289.534117,72.2622798 C290.047397,73.0732131 290.227847,74.1531259 291.119403,74.6577954 L291.900017,74.439416 C292.10319,74.1091837 292.28364,73.7589777 292.441367,73.4061086 C291.984227,72.7163492 291.51372,71.8867738 291.270447,71.0918194 C291.64605,70.9187138 291.973533,70.2036544 292.052397,69.8361378 L291.767687,68.1250552 C291.376043,67.1569953 288.788257,66.3287514 287.793777,66.0757509 L286.981083,65.0091539 C286.949003,64.5817161 286.963707,64.1382994 287.017173,63.7121932 C285.44258,61.8626261 286.531963,61.1768615 285.6912,59.73609 C284.988113,59.2673733 283.318617,58.2314026 282.914943,57.6108855 C283.382777,56.75601 283.912097,55.9051293 284.26364,54.9956589 C284.605827,54.5868633 285.508077,54.3538365 286.013337,54.4004419 C287.366043,55.4084493 288.97539,56.103535 290.56335,56.641494 C291.03653,56.7999522 291.89868,56.7187257 292.40394,56.7480205 C292.639193,56.9384367 293.463917,57.943781 293.63902,57.95976 L294.338097,57.6202066 C295.05856,58.3259449 296.194727,58.1847973 297.084947,57.9477757 L297.56481,58.5363349 C297.489957,58.7280826 297.463223,59.1288888 297.594217,59.3086523 L298.47508,59.3366155 L299.404063,60.2607333 L299.853183,60.0796381 L300.218093,60.296686 L300.82895,59.7747059 L301.33421,60.0370275 C301.63095,59.7227742 302.237797,59.7054637 302.63345,59.6308951 L302.995687,60.3659282 L302.579983,60.2820386 L302.162943,60.7174658 L302.13621,61.0450349 C303.446143,62.3593061 307.191483,65.8214188 308.7888,65.7082343 C309.668327,65.4459127 310.612013,65.1689437 311.436737,64.7628112 C311.69204,64.8440377 312.00883,65.0464382 312.171903,65.2594913 C311.68402,65.4246074 311.11059,65.5497761 310.5933,65.5670866 L310.558547,65.8294083 L311.07851,66.2235565 L311.758873,66.2754881 L312.01284,66.6975996 C311.7963,67.4313011 311.58778,68.1490237 311.265643,68.8467726 L311.49555,70.1770228 L312.134477,70.4286917 L312.387107,70.8521347 L312.73464,70.9400191 L312.844247,70.7349555 C312.635727,70.3368126 312.56221,69.7202902 312.5983,69.2782051 C312.940487,68.8827253 313.774567,68.9879202 314.227697,68.8387831 C314.565873,68.7269302 315.199453,68.4046874 315.54966,68.6243984 L315.77823,68.8560936 L315.819667,69.1756733 C315.450747,69.3194841 315.151333,69.4766107 314.802463,69.6750164 L314.974893,69.9786171 L315.482827,69.7309429 L316.25141,69.9666328 C316.46394,70.4380128 316.554833,71.1024721 316.52008,71.6137995 C316.81682,71.7416313 317.431687,71.6737207 317.729763,71.60581 C317.932937,71.1477459 318.142793,70.6896817 318.3727,70.2449334 C319.369853,70.1091121 320.352303,69.8774169 321.398913,69.6523795 C323.885113,70.2981967 324.040167,69.9639697 326.230963,69.5059055 C326.451513,69.838801 326.724193,70.1783543 327.015587,70.4513286 C327.586343,70.5032603 328.106307,69.9959276 328.624933,69.8241536 C329.0393,69.6856691 329.50446,69.5991163 329.92952,69.4899266 C330.47488,68.6230668 331.302277,68.0385024 331.957243,67.2688482 L331.584313,65.2461754 L331.885063,64.954559 C332.815383,65.5417866 334.138683,65.9945244 334.558397,67.0531319 L335.57961,67.1370216 L335.845607,67.6882964 C335.777437,68.113071 335.4152,68.3194662 335.217373,68.6576879 C334.84979,69.2901893 334.578447,69.9826118 334.379283,70.6843554 C334.586467,71.7283155 334.95806,72.2263271 335.953877,72.6417806 C336.431067,73.2050397 336.102247,74.9760435 336.046107,75.7283872 L334.947367,76.1052248 C334.61721,76.0466352 334.26834,75.8974981 333.966253,75.7616767 L333.507777,75.8748612 C333.156233,76.4514361 333.176283,77.4474592 332.98113,77.671165 L332.280717,78.0067236 C331.91046,78.0120499 331.44129,77.9121813 331.107123,77.7470651 C330.45884,78.4647877 329.459013,78.2224398 329.017913,78.8136621 C328.163783,78.8669254 327.197373,78.9641309 326.379333,79.2317788 L326.25636,79.8895802 C326.40072,80.8682928 328.520673,82.1306324 329.25584,82.5301069 C329.333367,83.0827133 329.914817,83.8723413 330.32651,84.2185526 L331.22475,84.4422583 L331.468023,84.2238789 L331.49743,83.8963098 L332.35958,83.8030991 C333.055983,84.3610318 333.890063,84.7724906 334.7736,84.958912 C334.86182,85.7099242 335.193313,86.3291097 335.494063,87.0188691 L335.830903,87.254559 L335.98061,87.9123604 L336.2573,88.1733505 L336.254627,88.5595092 C336.583447,88.9536574 336.961723,89.5608587 337.05529,90.0761808 C337.078013,90.1960232 337.0192,90.5249239 337.04727,90.6274557 C337.10742,90.8484982 337.32396,91.0682092 337.386783,91.2892518 C337.469657,91.5861945 337.254453,91.8085687 337.610007,92.2892697 L338.473493,92.7193706 L338.718103,93.246677 C339.675157,93.6887622 339.274157,93.9098047 339.835557,94.5542903 C340.486513,95.3013077 341.118757,95.306634 341.946153,95.6688243 C342.44473,95.8872037 342.546317,96.1615095 343.368367,96.1615095 C343.814813,96.1615095 344.28131,96.0150355 344.757163,96.0150355 C345.241037,96.0150355 345.76501,95.7713561 346.17403,95.542324 C346.69132,95.2507076 349.877933,92.8458709 350.293637,92.3358751 L350.62513,92.301254 C351.448517,92.8005971 352.230467,93.7113991 353.302473,93.5036723 C353.663373,92.7606497 353.48426,91.3957783 353.24366,90.6074819 C352.476413,90.5315818 351.909667,90.7100137 351.296137,91.1347883 L350.928553,90.8511614 C350.85771,90.3731235 351.063557,89.5302323 351.19856,89.0801576 C351.718523,88.6180988 352.451017,88.4383352 353.134053,88.4290142 C353.707483,88.891073 355.049497,90.2186601 355.811397,90.2133337 C355.80605,90.4729922 355.779317,90.7326506 355.764613,90.9923091 C355.84214,91.2772676 356.3875,91.4596943 356.637457,91.610163 C356.677557,92.2067116 356.370123,92.8525288 356.637457,93.4157879 C357.32183,94.0349734 357.332523,94.1454947 358.161257,94.4837165 L358.6732,94.3012898 L358.996673,94.784654 L359.412377,94.9337911 L359.64763,95.2307339 L360.06467,95.3812026 L360.556563,95.0110229 L360.3173,94.647501 C360.479037,94.109542 360.85464,93.9018153 361.27168,93.5835672 C361.882537,93.4304353 362.42255,93.6727832 362.921127,93.9963576 C363.48119,94.7713382 362.93984,95.8299457 363.478517,96.6448737 L364.189623,97.0243745 C364.90073,96.6062578 366.125117,96.9191796 366.8135,97.2094644 C367.12227,97.8765869 367.239897,99.019084 367.225193,99.7447961 C367.87615,100.32936 368.62201,100.780767 369.385247,101.202878 C370.204623,100.939225 370.204623,100.587687 371.146973,100.118971 C370.844887,99.7487908 370.59092,99.3919269 370.227347,99.0656894 L370.304873,98.7540992 L371.43703,98.8579626 C372.388737,99.7487908 372.13076,99.4491849 373.65857,99.6995223 C374.145117,99.7794172 374.670427,99.7621066 375.16633,99.783412 C375.933577,100.332024 376.695477,100.635624 377.521537,101.083036 C379.63347,102.226865 379.51718,102.81276 382.126353,102.293444 C382.471213,101.862011 382.710477,101.060399 382.76929,100.523771 L383.07004,100.407924 L383.564607,100.857998 C383.856,100.782098 384.29309,100.739488 384.592503,100.822046 L384.993503,101.863343 C384.871867,102.35736 384.019073,105.085771 384.34923,105.579787 L384.572453,105.774198 L385.687233,105.537177 L386.163087,105.794172 L386.235267,106.284194 C385.699263,107.064501 385.068357,107.750266 384.54973,108.543888 C384.556413,108.602478 384.607207,109.209679 384.619237,109.228321 C385.910457,111.18841 386.822063,113.244372 387.51713,115.482761 L387.803177,116.412205 C388.057143,117.220475 387.76976,117.211154 387.828573,117.835666 C387.883377,118.42023 388.276357,120.116666 388.60384,120.59204 L388.893897,121.007494 L389.49807,121.203236 C389.431237,120.612014 389.336333,120.024787 389.25346,119.437559 L390.285367,119.466854 C390.491213,119.615991 390.707753,119.757139 390.92563,119.887634 C391.168903,119.872986 391.516437,119.693223 391.686193,119.524112 L392.334477,119.689228 C393.288857,120.478856 392.450767,121.393653 394.457103,122.285812 C395.142813,122.363044 395.99026,121.755843 396.71607,121.649316 C397.304203,121.853048 397.93912,122.094065 398.425667,122.486881 C398.798597,122.962256 398.735773,123.777184 398.856073,124.347101 C399.139447,125.706646 399.576537,127.134102 399.694163,128.516284 C399.720897,128.842521 399.660747,129.190064 399.694163,129.516301 C399.704857,129.62416 400.195413,131.705422 400.218137,131.782654 C400.47344,132.589592 401.217963,133.167499 401.5,134.011722 C401.437177,134.606939 400.807607,134.805344 400.676613,135.376593 C400.668593,135.515077 400.775527,136.248779 400.937263,136.29139 C400.59374,136.459169 392.3572,139.44058 391.84392,139.42327 C390.98979,139.395307 389.980607,139.138311 389.127813,139.009148 C388.289723,138.881316 387.426237,138.471189 386.628247,138.187562 C384.310467,138.8427 383.624757,138.852021 382.205217,141.122368 C382.00739,141.437953 381.888427,141.798812 381.673223,142.102412 C380.705477,143.459294 379.674907,144.862781 378.503987,146.059873 C378.111007,146.459348 377.621787,146.776264 377.1994,147.145113 C376.89063,147.414092 376.596563,147.676414 376.4375,148.067899 C376.04853,149.022643 376.29314,150.254356 375.805257,151.145184 C375.62748,151.467427 375.413613,152.002723 375.183707,152.277029 C374.502007,153.09462 372.36334,154.17187 371.351483,154.512755 C370.557503,154.779071 369.671293,154.882934 368.857263,155.134603 C367.686343,155.496793 366.550177,155.988147 365.363217,156.287753 C364.372747,156.539422 362.716617,156.973518 361.910607,157.645966 C361.406683,158.065415 360.785133,159.661981 360.591317,160.255867 C360.5178,160.475578 360.57394,160.791163 360.519137,161.021526 C360.298587,161.953633 359.6757,162.881746 360.290567,163.823174 C360.107443,164.31586 359.44312,166.847197 359.17044,167.254661 C358.718647,167.931104 358.125167,168.511674 357.668027,169.206759 C357.637283,169.253365 357.62258,169.33326 357.603867,169.385191 C356.422253,172.62493 357.416733,174.579692 354.7033,177.426614 C353.994867,178.168305 353.3399,178.945949 352.607407,179.665003 C351.91635,179.683645 351.179847,180.270872 350.506167,180.503899 C349.744267,180.767552 348.879443,180.577136 348.17101,180.867421 C347.025487,181.341464 344.059423,184.943393 343.33896,185.860853 C342.81766,186.526644 342.105217,187.566609 341.42218,188.033994 C341.031873,188.298979 338.822363,188.866233 338.264973,188.858243 C338.075167,188.85558 336.411017,188.621222 336.210517,188.574616 C335.163907,189.002054 334.137347,190.481441 333.80318,191.504096 C333.501093,192.434872 332.598843,194.50415 331.947887,195.108688 C331.343713,195.671947 328.648993,196.127348 327.961947,196.438938 C326.026453,197.312456 323.907837,199.979614 321.691643,198.130047 C321.17168,197.697283 320.647707,197.269845 320.10101,196.867708 C317.030687,196.111369 316.82083,198.682654 313.394953,198.909023 C310.816523,199.079465 308.145863,196.355049 305.832093,195.373673 C305.675703,195.305762 304.844297,194.930256 304.804197,194.928925 C304.685233,194.919604 303.72818,194.839709 303.670703,194.84903 C303.027767,194.946235 302.215073,195.352368 301.54674,195.529468 C300.783503,195.729205 299.398717,196.608049 298.684937,197.144677 C297.4806,198.050152 296.841673,199.052833 295.93274,200.204652 C295.39139,200.889085 294.811277,201.27258 294.17636,201.837171 C292.357157,203.45238 291.552483,205.802621 291.143463,208.126232 C290.98841,209.00907 290.088833,209.324655 289.562187,209.989114 C289.270793,210.355299 289.237377,210.722816 289.17589,211.166233 C289.0997,211.709518 289.086333,212.282098 288.99143,212.814731 C288.856427,213.634985 287.84457,215.607058 287.456937,216.440628 Z" id="Stroke-3" stroke="#E75F52" stroke-linecap="round" stroke-linejoin="round"></path>
        </g>
    </g>
</svg>