<?xml version="1.0" encoding="UTF-8"?>
<svg width="311px" height="300px" viewBox="0 0 311 300" version="1.1" xmlns="http://www.w3.org/2000/svg" xmlns:xlink="http://www.w3.org/1999/xlink">
    <!-- Generator: Sketch 64 (93537) - https://sketch.com -->
    <title>164</title>
    <desc>Created with Sketch.</desc>
    <g id="164" stroke="none" stroke-width="1" fill="none" fill-rule="evenodd">
        <g id="Group-4" transform="translate(15.000000, 0.000000)">
            <path d="M86.0022,5.0917 L84.6172,7.2157 L81.1562,9.4977 L75.9632,10.1487 L73.5402,12.0997 L69.3872,11.4497 L59.3482,9.0097 L55.8852,10.4747 L54.5012,13.7227 L56.5782,15.6667 L55.8852,17.9297 L56.9252,20.0257 L56.2332,22.1177 L57.9632,23.2427 L56.5782,27.5687 L59.6932,29.8047 L59.3482,31.7177 L62.8102,32.6727 L63.5022,35.6897 L66.2702,35.6897 L69.7332,37.9087 L67.6562,39.9637 L64.5402,40.5957 L61.0782,44.2197 L62.4632,47.2047 L61.4252,50.1807 L62.4632,51.5877 L59.6932,53.3047 L56.9252,57.5077 L54.8482,59.5257 L55.8852,61.2297 L54.1562,62.7777 L50.3482,64.1687 L49.3092,68.4837 L45.8482,74.1617 L41.0012,76.7597 L38.5782,81.4837 L36.1552,84.3697 L35.8092,85.8857 L30.6162,86.9457 L26.1162,88.6097 L24.0392,86.1887 L21.2702,85.2797 L18.8472,87.5517 L18.1552,89.6677 L14.0002,94.1887 L12.9622,98.2457 L16.4242,100.7917 L19.5392,101.2397 L18.8472,107.2097 L20.5772,110.1827 L24.0392,110.1827 L24.3842,113.0017 L26.4622,116.1107 L28.1932,120.9807 L26.4622,125.3907 L23.3472,125.0977 L23.0002,123.7757 L19.1922,124.9497 L17.8072,126.4177 L15.0392,126.1247 L14.0002,125.2447 L8.1152,125.5377 L5.6922,125.0977 L5.6922,128.6167 L2.9232,128.4697 L0.5002,129.7877 L0.8462,131.6887 L4.3072,135.0457 L3.9622,135.7747 L7.0772,138.3937 L10.8842,140.2837 L15.3842,141.2997 L16.4242,140.1377 L20.5772,138.8307 L21.9622,139.2657 L19.8842,143.1847 L17.8072,143.4747 L14.3472,145.3567 L10.5382,146.2247 L10.5382,144.9227 L8.4622,144.6327 L7.7702,146.0807 L10.1922,149.2587 L14.3472,153.0067 L18.5002,157.8927 L23.3472,161.3337 L27.5012,162.3347 L38.2322,157.3197 L40.3092,152.7187 L38.5782,149.8357 L40.3092,148.2487 L40.3092,146.6577 L42.0392,146.6577 L42.3852,151.9987 L44.8092,152.4307 L42.7322,155.4517 L45.5012,158.8967 L45.8482,164.4797 L44.4632,166.7637 L43.4242,171.3237 L44.8092,176.4377 L44.8092,179.9797 L46.8852,189.1547 L49.3092,197.0217 L50.3482,205.8317 L51.0402,209.4567 L53.4632,213.0747 L54.5012,216.1307 L55.5402,216.6857 L55.5402,219.3207 L57.6172,222.2297 L59.0022,223.0597 L61.4252,229.9677 L62.4632,231.7597 L64.5402,241.2497 L67.3102,247.6937 L71.1172,252.7557 L74.2332,258.6267 L74.9252,261.8977 L76.3102,264.3497 L77.3482,268.4297 L79.0792,270.1957 L78.3872,271.2827 L78.7332,274.4047 L81.1562,279.9637 L85.3102,285.2427 L88.4252,287.6777 L90.1562,288.0837 L95.6942,285.2427 L97.4262,279.4217 L99.1562,278.0667 L104.3492,276.4397 L103.6562,274.5407 L104.3492,272.6407 L107.1182,268.8377 L106.7712,267.7497 L108.5032,266.2537 L112.6572,266.6627 L112.6572,258.0807 L111.9632,253.9857 L113.0032,249.6107 L115.0802,246.3237 L116.4652,243.1717 L117.5032,236.4407 L114.7342,233.8257 L116.4652,232.4487 L115.4262,227.4837 L116.1182,224.4437 L114.7342,220.0137 L115.0802,217.1017 L116.8112,213.3527 L119.5802,211.4057 L123.7342,211.6827 L125.4652,210.2917 L126.1572,206.9477 L127.8882,206.2507 L131.0032,206.9477 L136.5422,204.2967 L136.8882,202.0607 L136.1952,199.8227 L137.9272,198.0027 L145.1962,194.0757 L149.0042,189.5777 L153.5042,187.3237 L156.6192,183.6557 L161.1192,177.7137 L164.9282,174.4497 L163.8892,173.5987 L166.6582,170.6127 L167.6962,172.3187 L174.6202,170.6127 L176.6972,167.7627 L178.7732,166.7637 L179.1202,164.9087 L181.5432,162.9077 L179.8132,157.6067 L180.8502,156.0257 L183.6202,153.7257 L188.1202,152.7187 L192.6202,149.5477 L193.6592,153.7257 L195.3902,153.0067 L198.5052,153.7257 L199.5442,152.7187 L201.2742,153.1497 L200.9282,149.8357 L201.2742,147.6707 L199.1972,138.9757 L200.2362,136.7927 L197.8132,136.2107 L198.1592,133.7327 L196.4282,131.8347 L196.7742,129.6417 L198.1592,128.9097 L198.1592,125.0977 L195.7352,124.8037 L192.6202,122.8927 L191.2352,121.4217 L192.9672,118.1787 L194.0052,119.0637 L195.3902,115.8147 L199.8902,115.8147 L198.5052,112.2607 L196.0822,112.2607 L191.9282,107.9537 L192.6202,105.4217 L194.0052,104.8247 L195.7352,102.1377 L197.4672,102.4367 L198.8512,104.5267 L201.2742,102.8847 L201.9672,105.5707 L206.1212,107.3577 L207.5052,105.2727 L208.8902,107.6557 L208.5442,113.5947 L213.7362,115.9617 L218.2362,116.1107 L222.3912,115.5187 L224.4682,116.2577 L229.6602,115.6667 L232.0832,118.6217 L230.6992,123.9227 L228.9682,124.2157 L226.8912,126.4177 L223.4282,127.1517 L222.0442,129.2027 L221.3512,132.2737 L222.7362,135.4827 L224.4682,136.7927 L225.5062,138.9757 L227.5832,137.6667 L227.2362,135.7747 L228.9682,133.4417 L228.6212,131.8347 L231.0442,130.9577 L233.1212,135.6287 L233.1212,139.1207 L234.5062,141.8797 L235.1992,149.2587 L236.2372,147.5257 L239.0062,149.1137 L239.3522,146.9477 L240.7372,147.0927 L240.7372,145.0677 L240.0452,141.0087 L240.3912,138.6847 L242.8142,137.3757 L243.5062,128.6167 L245.2372,128.0307 L249.7372,129.7877 L251.4682,124.8037 L255.6222,117.2917 L254.2372,115.0757 L254.5832,113.4467 L258.3922,109.7377 L258.3922,107.8037 L259.7772,106.4647 L258.7372,104.3777 L258.7372,101.8387 L260.4692,99.7437 L262.1992,99.5937 L269.4692,93.4367 L275.3542,92.5337 L276.7382,91.7797 L276.3922,89.5157 L279.8542,86.4917 L280.8922,86.4917 L280.8922,83.0037 L278.8142,81.3317 L277.4302,81.7877 L274.6612,78.8967 L273.6222,76.4547 L269.4692,70.3277 L265.6612,70.6347 L263.2372,72.9357 L260.4692,73.3957 L256.3142,72.6297 L254.9292,70.9417 L251.4682,73.3957 L252.1602,74.1617 L245.2372,77.9807 L243.5062,77.9807 L240.7372,79.9617 L240.0452,81.3317 L235.8912,84.2177 L235.5452,86.3397 L232.4282,87.7027 L229.3142,88.3077 L226.1992,88.0047 L225.8512,90.2717 L227.2362,91.7797 L229.3142,91.1767 L230.3522,92.9847 L229.6602,94.4907 L230.3522,96.8947 L226.8912,98.3947 L223.7762,97.6447 L222.0442,98.3947 L216.1592,98.5447 L214.0822,97.3457 L211.3132,98.9937 L208.5442,99.4437 L204.0442,97.7947 L201.6212,98.0947 L198.1592,94.6407 L199.5442,92.8347 L198.1592,90.2717 L199.1972,87.0967 L198.8512,85.4307 L197.1202,84.2177 L194.6972,85.5837 L192.2742,85.8857 L192.2742,86.9457 L192.6202,87.8537 L191.2352,90.8747 L190.8902,95.0917 L192.6202,98.9937 L191.9282,102.1377 L189.8502,101.9887 L184.6582,103.1837 L182.2352,102.2867 L181.8902,100.7917 L178.7732,102.5857 L174.6202,100.3427 L171.8502,99.8927 L170.1202,100.7917 L168.0432,97.7947 L164.9282,98.9937 L163.8892,97.7947 L158.6962,95.8427 L158.3502,92.6837 L155.5812,92.0817 L153.5042,90.7237 L150.7342,92.2317 L146.5812,91.1767 L140.6962,90.8747 L139.6572,88.6097 L137.2342,88.9127 L133.7722,86.3397 L132.3882,86.9457 L126.8492,84.0657 L125.1182,81.3317 L122.6952,80.4187 L118.8882,77.9807 L117.5032,78.5897 L114.7342,76.1487 L116.8112,70.9417 L116.1182,69.8677 L118.8882,65.5577 L122.3492,61.8497 L123.7342,61.2297 L121.3112,59.0597 L116.8112,57.0417 L112.6572,52.6807 L110.2342,52.8367 L107.4632,50.8067 L105.0412,47.3617 L104.3492,48.6157 L101.9262,48.4587 L101.5792,46.4207 L102.9632,45.3207 L101.5792,43.5907 L102.2712,41.3847 L99.5032,38.3827 L98.8112,34.8967 L100.8872,34.4207 L103.6562,36.9577 L105.3882,36.6407 L109.1952,33.6267 L107.8112,29.9637 L108.1562,27.5687 L104.3492,25.9677 L102.6182,23.2427 L101.9262,17.1217 L104.3492,15.5047 L104.0032,13.7227 L97.7712,10.3127 L95.0022,3.1257 L95.3492,0.9927 L92.9262,0.4997 L86.0022,5.0917 Z M237.6212,236.7157 L237.2762,241.3877 L236.5832,241.7997 L236.5832,246.1877 L235.8912,249.4737 L234.8522,250.8407 L235.5452,253.8487 L237.2762,251.1147 L236.9292,249.0637 L238.3142,247.8317 L239.0062,244.6797 L238.6602,239.4647 L239.3522,239.6017 L240.0452,237.4037 L239.3522,234.3767 L237.6212,236.7157 Z M233.1212,261.7617 L233.1212,264.0767 L235.1992,263.6677 L235.1992,261.6247 L233.1212,261.7617 Z M245.5832,296.8597 L245.5832,298.4777 L247.6602,300.4997 L248.0072,298.4777 L247.3142,296.4547 L245.5832,296.8597 Z" id="Fill-1" fill="#FFFFFF"></path>
            <path d="M123.7345,61.2303 L122.3495,61.8493 L118.8875,65.5573 L116.1185,69.8673 L116.8105,70.9423 L114.7335,76.1483 L117.5035,78.5903 L118.8875,77.9803 L122.6955,80.4183 L125.1185,81.3323 L126.8495,84.0663 L132.3875,86.9453 L133.7725,86.3403 L137.2345,88.9123 L139.6575,88.6093 L140.6965,90.8753 L146.5815,91.1763 L150.7345,92.2313 L153.5045,90.7243 L155.5815,92.0813 L158.3505,92.6843 L158.6965,95.8433 L163.8885,97.7943 L164.9275,98.9943 L168.0435,97.7943 L170.1205,100.7913 L171.8505,99.8933 L174.6205,100.3423 L178.7735,102.5853 L181.8895,100.7913 L182.2355,102.2873 L184.6585,103.1833 L189.8505,101.9883 L191.9275,102.1373 L192.6205,98.9943 L190.8895,95.0923 L191.2355,90.8753 L192.6205,87.8543 L192.2745,86.9453 L192.2745,85.8863 L194.6975,85.5833 L197.1205,84.2183 L198.8515,85.4313 L199.1975,87.0973 L198.1595,90.2713 L199.5445,92.8343 L198.1595,94.6413 L201.6215,98.0953 L204.0445,97.7943 L208.5445,99.4443 L211.3135,98.9943 L214.0825,97.3453 L216.1595,98.5443 L222.0445,98.3953 L223.7755,97.6453 L226.8905,98.3953 L230.3525,96.8953 L229.6605,94.4903 L230.3525,92.9853 L229.3135,91.1763 L227.2365,91.7793 L225.8515,90.2713 L226.1985,88.0043 L229.3135,88.3073 L232.4285,87.7023 L235.5455,86.3403 L235.8905,84.2183 L240.0455,81.3323 L240.7375,79.9623 L243.5055,77.9803 L245.2375,77.9803 L252.1605,74.1613 L251.4675,73.3953 L254.9295,70.9423 L256.3145,72.6293 L260.4685,73.3953 L263.2375,72.9363 L265.6615,70.6353 L269.4685,70.3283 L273.6225,76.4543 L274.6615,78.8963 L277.4305,81.7883 L278.8145,81.3323 L280.8915,83.0033 L280.8915,86.4913 L279.8535,86.4913 L276.3915,89.5163 L276.7385,91.7793 L275.3535,92.5333 L269.4685,93.4373 L262.1995,99.5933 L260.4685,99.7433 L258.7375,101.8383 L258.7375,104.3773 L259.7765,106.4643 L258.3915,107.8043 L258.3915,109.7373 L254.5835,113.4463 L254.2375,115.0753 L255.6225,117.2923 L251.4675,124.8033 L249.7375,129.7883 L245.2375,128.0313 L243.5055,128.6173 L242.8145,137.3763 L240.3905,138.6853 L240.0455,141.0093 L240.7375,145.0673 L240.7375,147.0923 L239.3525,146.9483 L239.0055,149.1143 L236.2375,147.5253 L235.1985,149.2583 L234.5055,141.8793 L233.1215,139.1213 L233.1215,135.6283 L231.0445,130.9583 L228.6215,131.8343 L228.9675,133.4413 L227.2365,135.7743 L227.5835,137.6673 L225.5055,138.9753 L224.4675,136.7933 L222.7365,135.4823 L221.3515,132.2733 L222.0445,129.2023 L223.4285,127.1513 L226.8905,126.4183 L228.9675,124.2163 L230.6985,123.9223 L232.0835,118.6213 L229.6605,115.6673 L224.4675,116.2583 L222.3905,115.5193 L218.2365,116.1103 L213.7365,115.9623 L208.5445,113.5943 L208.8895,107.6563 L207.5055,105.2723 L206.1215,107.3583 L201.9665,105.5703 L201.2745,102.8843 L198.8515,104.5263 L197.4665,102.4363 L195.7355,102.1373 L194.0055,104.8253 L192.6205,105.4213 L191.9275,107.9533 L196.0825,112.2613 L198.5055,112.2613 L199.8895,115.8143 L195.3895,115.8143 L194.0055,119.0633 L192.9665,118.1783 L191.2355,121.4213 L192.6205,122.8933 L195.7355,124.8033 L198.1595,125.0973 L198.1595,128.9093 L196.7745,129.6413 L196.4275,131.8343 L198.1595,133.7323 L197.8125,136.2113 L200.2365,136.7933 L199.1975,138.9753 L201.2745,147.6703 L200.9275,149.8353 L201.2745,153.1503 L199.5445,152.7183 L198.5055,153.7263 L195.3895,153.0063 L193.6595,153.7263 L192.6205,149.5473 L188.1205,152.7183 L183.6205,153.7263 L180.8505,156.0263 L179.8125,157.6063 L181.5435,162.9073 L179.1205,164.9083 L178.7735,166.7643 L176.6975,167.7633 L174.6205,170.6123 L167.6965,172.3193 L166.6585,170.6123 L163.8885,173.5983 L164.9275,174.4503 L161.1195,177.7133 L156.6195,183.6553 L153.5045,187.3233 L149.0045,189.5773 L145.1965,194.0753 L137.9265,198.0023 L136.1955,199.8233 L136.8875,202.0613 L136.5425,204.2963 L131.0035,206.9483 L127.8875,206.2513 L126.1575,206.9483 L125.4645,210.2923 L123.7345,211.6833 L119.5805,211.4053 L116.8105,213.3523 L115.0805,217.1023 L114.7335,220.0143 L116.1185,224.4433 L115.4255,227.4833 L116.4645,232.4483 L114.7335,233.8263 L117.5035,236.4403 L116.4645,243.1713 L115.0805,246.3243 L113.0035,249.6103 L111.9635,253.9853 L112.6575,258.0813 L112.6575,266.6623 L108.5035,266.2533 L106.7715,267.7503 L107.1185,268.8373 L104.3485,272.6413 L103.6565,274.5413 L104.3485,276.4393 L99.1565,278.0663 L97.4255,279.4213 L95.6945,285.2433 L90.1565,288.0833 L88.4245,287.6773 L85.3095,285.2433 L81.1565,279.9633 L78.7325,274.4053 L78.3865,271.2833 L79.0795,270.1963 L77.3475,268.4293 L76.3095,264.3493 L74.9245,261.8973 L74.2325,258.6263 L71.1175,252.7553 L67.3095,247.6943 L64.5405,241.2503 L62.4635,231.7593 L61.4245,229.9673 L59.0025,223.0603 L57.6175,222.2293 L55.5405,219.3203 L55.5405,216.6863 L54.5015,216.1303 L53.4635,213.0743 L51.0405,209.4563 L50.3475,205.8323 L49.3085,197.0223 L46.8855,189.1543 L44.8085,179.9793 L44.8085,176.4373 L43.4235,171.3233 L44.4635,166.7643 L45.8475,164.4803 L45.5015,158.8973 L42.7315,155.4523 L44.8085,152.4303 L42.3855,151.9983 L42.0395,146.6583 L40.3085,146.6583 L40.3085,148.2483 L38.5785,149.8353 L40.3085,152.7183 L38.2315,157.3193 L27.5015,162.3343 L23.3465,161.3333 L18.5005,157.8933 L14.3465,153.0063 L10.1925,149.2583 L7.7695,146.0803 L8.4625,144.6333 L10.5385,144.9223 L10.5385,146.2253 L14.3465,145.3563 L17.8075,143.4743 L19.8845,143.1853 L21.9625,139.2663 L20.5775,138.8303 L16.4235,140.1383 L15.3845,141.2993 L10.8845,140.2833 L7.0775,138.3943 L3.9625,135.7743 L4.3075,135.0453 L0.8455,131.6883 L0.5005,129.7883 L2.9225,128.4703 L5.6925,128.6173 L5.6925,125.0973 L8.1155,125.5383 L14.0005,125.2443 L15.0395,126.1253 L17.8075,126.4183 L19.1925,124.9503 L23.0005,123.7753 L23.3465,125.0973 L26.4625,125.3913 L28.1935,120.9803 L26.4625,116.1103 L24.3845,113.0013 L24.0395,110.1833 L20.5775,110.1833 L18.8465,107.2093 L19.5395,101.2403 L16.4235,100.7913 L12.9625,98.2453 L14.0005,94.1893 L18.1545,89.6673 L18.8465,87.5513 L21.2695,85.2793 L24.0395,86.1883 L26.1165,88.6093 L30.6165,86.9453 L35.8085,85.8863 L36.1545,84.3703 L38.5785,81.4833 L41.0015,76.7593 L45.8475,74.1613 L49.3085,68.4833 L50.3475,64.1683 L54.1555,62.7773 L55.8855,61.2303 L54.8475,59.5253 L56.9245,57.5083 L59.6935,53.3053 L62.4635,51.5873 L61.4245,50.1813 L62.4635,47.2043 L61.0785,44.2203 L64.5405,40.5953 L67.6555,39.9633 L69.7325,37.9083 L66.2705,35.6903 L63.5025,35.6903 L62.8095,32.6723 L59.3475,31.7173 L59.6935,29.8043 L56.5785,27.5683 L57.9635,23.2423 L56.2325,22.1183 L56.9245,20.0253 L55.8855,17.9293 L56.5785,15.6663 L54.5015,13.7233 L55.8855,10.4753 L59.3475,9.0093 L69.3865,11.4503 L73.5405,12.1003 L75.9635,10.1493 L81.1565,9.4983 L84.6175,7.2153 L86.0025,5.0913 L92.9255,0.5003 L95.3485,0.9933 L95.0025,3.1263 L97.7715,10.3123 L104.0035,13.7233 L104.3485,15.5043 L101.9255,17.1223 L102.6185,23.2423 L104.3485,25.9683 L108.1565,27.5683 L107.8105,29.9643 L109.1955,33.6263 L105.3875,36.6413 L103.6565,36.9583 L100.8865,34.4203 L98.8105,34.8973 L99.5035,38.3833 L102.2715,41.3843 L101.5795,43.5903 L102.9635,45.3203 L101.5795,46.4203 L101.9255,48.4593 L104.3485,48.6153 L105.0415,47.3613 L107.4635,50.8063 L110.2335,52.8363 L112.6575,52.6813 L116.8105,57.0423 L121.3105,59.0603 L123.7345,61.2303 Z M239.3525,234.3763 L240.0455,237.4033 L239.3525,239.6023 L238.6605,239.4653 L239.0055,244.6803 L238.3135,247.8313 L236.9295,249.0633 L237.2755,251.1153 L235.5455,253.8493 L234.8525,250.8413 L235.8905,249.4733 L236.5835,246.1873 L236.5835,241.7993 L237.2755,241.3873 L237.6215,236.7163 L239.3525,234.3763 Z M235.1985,261.6253 L235.1985,263.6683 L233.1215,264.0763 L233.1215,261.7613 L235.1985,261.6253 Z M247.3145,296.4553 L248.0065,298.4783 L247.6605,300.5003 L245.5835,298.4783 L245.5835,296.8593 L247.3145,296.4553 Z" id="Stroke-2" stroke="#E75F52" stroke-linecap="round" stroke-linejoin="round"></path>
        </g>
    </g>
</svg>