<?xml version="1.0" encoding="UTF-8"?>
<svg width="272px" height="301px" viewBox="0 0 272 301" version="1.1" xmlns="http://www.w3.org/2000/svg" xmlns:xlink="http://www.w3.org/1999/xlink">
    <!-- Generator: Sketch 64 (93537) - https://sketch.com -->
    <title>196</title>
    <desc>Created with Sketch.</desc>
    <g id="196" stroke="none" stroke-width="1" fill="none" fill-rule="evenodd">
        <g id="Group-5">
            <path d="M39.4517,54.3537 C39.4227,54.6907 39.3507,55.0857 39.3597,55.4207 C39.3597,55.4307 39.4777,55.6907 39.4897,55.7167 C39.6507,55.8387 39.8127,55.9147 39.9657,55.9957 C40.0177,56.1527 40.0617,56.2807 40.0867,56.4417 C39.9067,56.7127 39.6757,57.4617 39.7487,57.7857 C39.7607,57.8337 40.2847,58.8637 40.3897,59.0757 L39.7037,59.2147 L39.5957,59.8937 L38.8127,59.7247 C38.8057,60.2167 39.0157,60.3947 39.2737,60.8117 L39.1347,61.0377 C38.9257,61.0807 38.7167,61.1337 38.5067,61.1667 C38.4007,61.3227 38.2817,61.4687 38.1737,61.6237 L38.8817,62.0187 L39.2677,62.7157 L39.7317,62.8987 L39.8537,63.0927 C39.7687,63.7657 38.8537,64.8327 38.9547,65.1727 L39.0527,65.4967 L39.5657,65.7397 L39.6947,65.9827 L39.5387,66.3327 L39.0247,66.5317 L39.1787,67.4797 L38.4467,67.7027 L38.6267,69.3227 L38.5187,69.5877 L38.0537,69.7217 L37.9897,69.8387 L38.5827,70.8177 L38.0807,70.7707 L37.9587,72.0567 C38.1997,72.2817 38.5117,72.6987 38.5677,73.0357 C38.5737,73.0677 38.5597,73.0847 38.5547,73.1167 C38.5547,73.1167 38.2037,74.4377 38.1597,74.9937 C38.1547,75.0687 38.1277,75.1127 38.1447,75.1857 C38.2427,75.5947 38.4817,76.0677 38.6337,76.4657 C38.5007,76.7287 38.2327,77.4997 38.3147,77.8077 L38.7407,78.8427 C38.6837,79.2497 38.5027,80.1087 38.5157,80.4267 C38.5287,80.7487 38.7127,81.1267 38.7587,81.4527 C38.8097,81.8257 38.7787,82.2227 38.8187,82.5997 C38.8387,82.7867 38.9667,82.9797 38.9917,83.1677 C39.0237,83.4037 39.0587,83.9737 39.0557,83.9867 C39.0067,84.1827 38.9757,84.5057 38.8807,84.6807 C38.7287,84.9617 38.4617,85.3407 38.3637,85.6367 C38.2157,86.0787 38.0527,86.9497 37.9637,87.4247 C37.8467,88.0457 37.8927,88.7117 37.7847,89.3347 C37.7847,89.3347 37.5997,90.0397 37.5457,90.1337 C37.3247,90.5227 36.9417,90.9357 36.6677,91.2977 C36.6157,91.3677 36.5517,92.4027 36.4427,92.6137 C36.4077,92.6837 35.9527,93.5627 35.9517,93.5737 C35.9437,93.6187 36.0877,96.6627 36.0877,96.6627 C36.2907,96.8907 36.6147,97.1807 36.7717,97.4337 C36.7767,97.4397 36.8667,97.8847 36.8737,97.9227 C36.8187,98.0017 36.3177,98.7257 36.2907,98.7507 C36.6347,99.5017 36.9847,100.2497 37.3347,100.9987 L36.9397,103.5567 L35.8147,104.6197 L36.4207,107.6397 L37.5057,108.3137 C37.3157,108.7117 37.1067,109.1047 36.8997,109.4947 L37.5477,110.5137 L37.0837,111.7997 C37.0187,111.9797 37.6637,115.3337 37.7397,115.7457 L37.4137,116.6447 L36.2457,118.8447 C35.4457,121.3227 33.0037,129.2557 33.0037,129.2557 C33.0037,129.2557 32.8427,133.8277 32.8417,135.0457 C32.8417,135.0457 32.8617,138.7067 32.7997,140.3337 C32.7837,140.7537 32.6597,141.2457 32.5957,141.6657 C32.5897,141.6977 31.7247,144.3047 31.5537,144.6637 C31.2837,145.2267 31.0737,145.5137 30.7677,146.0567 L29.1957,148.8437 C28.9317,149.3107 28.7357,149.8187 28.4757,150.2877 C28.2857,150.6287 27.9407,151.0997 27.8077,151.4517 C27.6677,151.8207 27.5767,152.4927 27.4877,152.8967 C27.6617,153.2727 27.9897,154.1107 28.1987,154.4237 C28.5327,154.9237 28.7637,155.1757 29.1257,155.6577 L30.9787,158.1247 C31.0007,158.1527 31.4707,159.1527 31.4757,159.1757 C31.5767,159.6657 31.7147,160.1767 31.7847,160.6707 C31.7847,160.6707 31.8657,161.6447 31.8477,161.7897 C31.8107,162.0947 31.2477,164.5037 31.0407,164.9387 C30.9187,165.1967 30.6937,165.4787 30.5377,165.7207 C30.5377,165.7207 28.6597,168.5687 28.6577,168.5797 C28.6097,168.8557 28.3937,169.7927 28.4047,170.0407 C28.4217,170.4197 28.5037,170.8287 28.5517,171.2077 C28.5547,171.2297 29.0527,172.5497 29.0607,172.6047 L29.0567,174.0827 C28.0927,175.1037 26.8097,175.8237 25.6357,176.5887 L24.5257,179.0177 C24.3087,179.4907 24.1387,179.7387 23.9707,180.2317 C23.9157,180.3907 23.9667,180.4957 23.9637,180.6647 L23.9517,181.5287 C23.9767,181.7897 24.1117,182.1367 24.1797,182.3957 C24.1897,182.4327 24.2647,182.6967 24.2647,182.7137 C24.2577,182.9987 24.0217,183.8147 23.9467,184.1597 L22.7537,184.5827 L22.1337,185.3277 C22.0127,185.4727 21.9167,185.5357 21.8237,185.6997 C21.8137,185.7167 21.2927,187.1327 21.2747,187.1927 C21.2557,187.2607 21.2747,190.1007 21.2697,190.1177 C21.1757,190.4387 20.3887,192.1537 20.3887,192.1537 C20.3887,192.1537 19.0307,194.5527 18.8637,194.9287 C18.7607,195.1627 18.6107,196.1447 18.5317,196.5207 C18.4347,196.6097 17.6077,197.3667 17.6037,197.3747 C17.6037,197.3747 15.9667,200.4297 15.7647,200.9067 C15.7467,200.9497 15.6427,201.9557 15.6167,202.0887 C15.3107,203.6317 14.3687,207.9797 14.2057,208.5967 C14.1867,208.6677 13.7937,209.8457 13.7757,209.8787 C13.5557,210.3097 13.1527,210.6847 12.9177,211.1107 C12.9007,211.1417 12.7167,211.8947 12.6807,212.0367 C13.4097,213.4157 14.1167,214.7677 14.8267,216.1217 C14.9067,216.2717 15.1417,217.1197 15.1547,217.2397 C15.1567,217.2537 14.9567,218.0937 14.9567,218.0937 C14.6117,218.4747 13.8407,219.2387 13.5707,219.6207 C13.5627,219.6317 13.1747,220.8397 13.1737,220.8547 C13.1627,221.1347 13.3397,221.9627 13.3877,222.2837 L12.1997,224.9137 C12.8697,227.7857 13.4937,230.6667 14.1527,233.5407 C14.1527,233.5407 9.3927,240.3097 9.3317,240.4627 C9.1727,240.8637 8.0627,245.3717 8.0337,245.6247 C8.0077,245.8467 8.0857,247.1147 8.0877,247.1747 C8.0877,247.1747 8.2337,251.2247 8.2307,251.2297 L6.5347,254.6297 C6.4917,254.7157 6.4207,254.8237 6.3927,254.9137 C6.3177,255.1477 6.1137,256.2607 6.1137,256.2607 C6.1147,256.5747 6.2417,257.0127 6.2957,257.3297 C6.2977,257.3437 6.2787,257.4657 6.2767,257.4867 C6.2237,257.9037 6.2027,258.3687 6.1157,258.7767 C6.1157,258.7767 5.1417,262.6297 5.0507,263.2167 C5.0027,263.5267 5.0507,265.6347 5.0507,265.6347 C5.0717,266.1367 5.1837,266.6437 5.2157,267.1457 C5.2437,267.6047 5.2267,268.0817 5.2327,268.5427 L4.4137,269.5487 C4.1017,269.8427 3.2147,270.4717 3.1967,270.4917 C2.9337,270.7967 2.5707,271.1417 2.3517,271.4737 C2.1187,271.8267 1.9347,272.3137 1.7447,272.6977 C1.4677,273.2577 1.1807,273.9177 0.9737,274.5097 L1.5647,274.6007 L1.6967,274.9137 L2.5167,275.4207 L2.7157,275.6197 L2.7487,275.7057 L2.6867,277.1967 L2.5897,277.7397 L1.6477,279.8007 L1.5177,280.0627 L1.6027,280.6227 L1.0027,281.7767 L1.3987,282.8467 L1.2537,283.5207 L1.5817,284.2747 L1.5007,284.4897 L1.1117,284.8047 L1.0307,285.0017 L0.6057,285.2007 L0.9677,285.9577 L0.7907,286.5007 L0.6437,286.5507 L0.8417,286.9927 L0.6297,287.3567 L0.9817,287.6757 L0.5797,288.0337 L0.4997,288.1017 L0.6017,288.1477 C1.4547,288.2497 2.2847,288.4367 3.1447,288.5107 C3.1657,288.5127 3.1847,288.5217 3.2057,288.5247 C3.7697,288.5967 4.3437,288.6397 4.9037,288.7367 C7.1517,289.1307 9.3937,289.5657 11.6377,289.9857 C15.1277,290.6397 18.6207,291.2687 22.1137,291.9107 C24.2237,292.2987 26.3397,292.6677 28.4537,293.0387 C29.5147,293.2257 30.5747,293.4387 31.6377,293.6127 C32.5827,293.7687 33.5437,293.9227 34.4937,294.0507 C34.7847,294.0897 35.0787,294.0947 35.3697,294.1447 C38.7117,294.7257 42.0217,295.5077 45.3607,296.1037 C46.9747,296.3937 48.6117,296.6407 50.2347,296.8757 C50.7507,296.9507 51.2707,297.0067 51.7847,297.0987 C52.6777,297.2587 53.5697,297.4627 54.4567,297.6507 C56.0327,297.9847 57.6187,298.2797 59.1967,298.6047 C60.9057,298.9567 62.6137,299.3397 64.3297,299.6547 C66.1757,299.9937 68.0477,300.2337 69.9047,300.4997 C73.5937,297.3027 77.3657,294.1837 81.1047,291.0487 C82.6207,289.7777 96.9647,277.9577 96.9777,277.9337 C97.6457,276.6297 101.4397,270.3537 102.5697,268.4367 C103.8897,266.1957 105.2277,263.9667 106.5457,261.7267 C107.1937,260.6227 107.8027,259.4957 108.4447,258.3877 C109.2077,257.0697 110.0147,255.7777 110.7877,254.4657 C111.3637,253.4887 111.9077,252.4917 112.4937,251.5207 C120.2747,249.9647 128.0537,248.3957 135.8287,246.8117 C139.4707,246.0697 143.1147,245.3177 146.7617,244.6067 C149.0867,244.1537 157.2297,242.5877 158.9557,242.1657 C158.9707,242.1477 159.0017,242.1167 159.0117,242.0967 C160.1227,239.6937 161.2287,237.2837 162.2647,234.8467 C163.0477,233.0077 163.7747,231.1427 164.5447,229.2977 C166.0877,225.5997 167.6247,221.8867 169.3267,218.2577 C172.6227,216.2577 175.9147,214.2777 179.2667,212.3767 C181.9157,210.8757 184.5517,209.3467 187.1897,207.8277 C188.1217,207.2917 189.0457,206.7287 189.9927,206.2217 L189.9177,206.1317 C188.0577,203.8877 186.1317,201.6997 184.2717,199.4567 C183.2197,198.1867 182.1367,196.9417 181.0797,195.6757 C180.8397,195.3887 180.6137,195.0897 180.3657,194.8097 C179.2197,193.5147 178.0937,192.1887 176.9887,190.8567 C176.6407,190.4387 176.2577,190.0437 175.9177,189.6197 C175.5147,189.1177 175.1257,188.5547 174.7677,188.0207 C174.4937,187.6087 174.3877,187.2307 174.0377,186.8357 C170.3737,182.6987 166.7397,178.5317 163.1077,174.3667 C162.7937,174.0067 162.4367,173.6927 162.1037,173.3517 C161.6777,172.9137 161.2937,172.4527 160.8937,171.9937 C160.6817,171.7497 159.8937,170.8937 159.7177,170.7017 C159.3767,170.3287 159.0127,169.9817 158.6797,169.6007 C155.7937,166.2917 152.9077,162.9817 150.0307,159.6647 C148.6427,158.0627 147.2647,156.4437 145.8447,154.8707 L145.7737,154.7917 C145.3497,154.3077 144.9257,153.8247 144.5067,153.3377 C144.2747,153.0687 144.0437,152.7617 143.7887,152.5167 C143.6727,152.4057 143.5397,152.3037 143.4277,152.1867 C142.8447,151.5807 142.3087,150.9067 141.7507,150.2757 C140.4747,148.8327 139.2017,147.3887 137.9317,145.9417 C134.6017,142.1487 131.2297,138.3927 127.9097,134.5927 C136.2187,132.1207 144.5497,129.7027 152.8847,127.3187 C154.3947,126.8867 155.9117,126.4787 157.4187,126.0377 C158.8317,125.6247 160.2297,125.1457 161.6417,124.7267 L170.1247,122.2027 C171.7117,121.7297 173.3097,121.2937 174.8967,120.8247 C177.6657,120.0057 180.4247,119.1477 183.1977,118.3397 C186.2207,117.4577 189.2617,116.6247 192.2837,115.7377 C192.9377,115.5457 193.5847,115.3267 194.2397,115.1367 C197.9407,114.0587 201.6487,112.9927 205.3557,111.9327 C211.0837,110.2947 216.8297,108.7207 222.5717,107.1307 C225.6307,106.2847 228.6787,105.4007 231.7367,104.5557 C233.7257,104.0057 235.7237,103.4907 237.7157,102.9507 C241.2517,101.9917 244.7827,101.0167 248.3187,100.0577 C249.1877,99.8227 250.0567,99.5927 250.9277,99.3657 L252.0367,99.0737 C252.1127,99.0537 252.1607,99.0567 252.2317,99.0217 C252.2467,99.0157 252.5137,98.7757 252.5427,98.7507 C254.2617,97.2287 255.9757,95.7017 257.6807,94.1627 C259.3697,92.6367 261.0377,91.0727 262.7627,89.5867 C263.3817,89.0537 264.8977,87.8147 265.0127,87.7097 L271.2567,82.2717 L268.6887,73.2927 L255.2097,76.9827 L251.6137,64.5357 L257.8457,62.8297 L239.4977,0.9157 L239.3747,0.4997 C238.5357,0.9587 237.7187,1.4857 236.8997,1.9807 L224.9787,9.1817 C224.5487,9.4417 222.1167,10.8787 221.3277,11.3107 C216.0447,14.5407 210.8097,17.8497 205.5317,21.0847 C202.2317,23.1077 198.8967,25.0717 195.6037,27.1057 C193.7897,28.2257 191.9867,29.3697 190.1627,30.4727 C189.2087,31.0507 188.2257,31.5817 187.2647,32.1467 C184.4177,33.8237 181.5617,35.4877 178.7027,37.1447 C177.3317,37.9397 175.9407,38.7167 174.5887,39.5437 L165.6247,45.0267 C165.1207,45.3357 164.3827,45.7867 163.9107,46.1527 C163.5667,46.4197 163.2327,46.7007 162.8697,46.9427 C161.5587,47.8187 160.1257,48.5327 158.8037,49.3957 C157.3337,50.3527 155.7967,51.2187 154.3127,52.1557 C150.9027,54.3097 147.4517,56.4017 144.0257,58.5297 C143.4897,58.8627 142.9767,59.2637 142.4497,59.6147 C141.2977,60.3807 140.1447,61.1467 138.9857,61.9027 C138.6847,62.0987 137.1797,62.9687 136.7307,63.2007 C136.2487,63.4507 135.7827,63.7767 135.3187,64.0617 L132.3107,65.9137 C130.1577,67.2337 128.0047,68.5417 125.8877,69.9177 C124.5117,70.8117 120.5577,73.3047 120.0367,73.7457 C119.7567,73.9827 119.5007,74.2717 119.2407,74.5327 C118.7217,75.0547 118.2077,75.5827 117.6937,76.1097 C117.1867,76.0667 116.6627,75.9367 116.1597,75.8517 C114.7687,75.6187 113.3667,75.3397 111.9677,75.1807 C111.6017,75.1387 110.8397,74.8907 110.5067,74.9037 C110.2677,75.1797 109.9957,75.4927 109.7177,75.7317 C109.7177,75.7317 109.1417,75.0117 109.0257,74.9077 C108.9007,74.7977 108.7507,74.7147 108.4037,74.5187 C108.3767,74.5027 107.3037,74.3087 107.2437,74.2957 L107.1987,74.2817 C106.4587,74.0997 105.7167,73.9907 104.9667,73.8677 C104.7527,73.8327 104.5097,73.8287 104.2907,73.8057 C103.4427,73.7157 96.8507,73.0217 96.6617,72.9337 C96.3227,72.7657 96.0057,72.5377 95.6877,72.3347 C95.5737,72.2627 91.4527,71.7907 90.7657,71.7197 C90.2327,71.3217 89.6797,70.9287 89.1627,70.5137 C88.6547,70.1047 88.2097,69.5737 87.7517,69.1097 C86.7167,68.0637 85.6927,66.9947 84.6317,65.9737 C84.4497,65.7977 84.2287,65.6327 84.0097,65.4857 C83.6717,65.2377 83.3027,64.9787 83.1767,64.8927 C82.9957,64.7697 81.8647,63.9687 81.4677,63.7157 C81.2637,63.5857 80.5367,62.9487 80.3287,62.9387 C80.3287,62.9387 79.9847,63.2467 79.9677,63.2527 C79.5957,63.3917 79.1817,63.2417 78.8097,63.3787 L78.5197,63.2527 C78.5197,63.2527 78.2647,62.6357 78.1907,62.4097 C78.1397,62.2517 78.1697,62.0797 78.0997,61.9197 C78.0787,61.8727 77.6147,61.3887 77.5557,61.3117 C77.2717,61.2067 77.0017,61.5547 76.7577,61.6047 C76.7067,61.6147 75.9637,61.7637 75.7047,61.9197 C75.5957,61.8617 75.2687,61.3527 75.2397,61.2837 C75.0497,61.3487 74.8897,61.2477 74.7067,61.2417 C74.3747,61.2297 74.0197,61.2907 73.6877,61.2767 C73.5697,61.2717 73.3607,61.1777 73.2057,61.1727 C73.0157,61.1677 71.6757,61.6157 71.4967,61.6277 C71.3947,61.8487 70.6357,61.9557 70.4047,62.0527 C70.3707,62.0107 70.3357,61.9547 70.3257,61.8997 C70.3967,61.6857 70.2437,60.7907 70.2267,60.5087 C70.3897,60.4167 70.4887,59.9357 70.4007,59.7447 C70.1677,59.6627 69.9957,59.2917 69.9697,59.0637 C69.9547,58.9377 70.0047,58.8087 69.9637,58.6797 C69.9077,58.5057 69.8117,58.1537 69.7467,58.0047 C69.7427,57.9927 69.4557,57.5907 69.3157,57.3787 L67.2917,55.9217 C67.3057,55.8397 67.1047,55.6357 67.0987,55.5597 C67.0917,55.4607 67.0437,54.8257 67.0467,54.7847 C67.0907,54.2167 67.2237,53.6767 67.2997,53.1127 C67.3127,53.1047 67.3437,52.9357 67.3437,52.8657 C67.3437,52.8657 67.2647,52.0927 67.2287,51.9037 C67.1827,51.8647 66.9617,51.5157 66.9287,51.5147 C66.8977,51.5247 65.8767,51.2827 65.5867,51.3357 C65.5867,51.3357 64.9887,51.4767 64.7817,51.4457 C64.6737,51.4297 63.3807,51.1487 63.2907,51.0377 C63.1287,50.8387 62.6497,50.2227 62.6497,50.2227 C62.7347,50.2087 63.8147,50.0227 63.8757,49.9527 C63.9007,49.7877 63.4787,49.3567 63.4137,49.2137 C63.3707,49.1217 63.3547,49.0317 63.3307,48.9347 C63.3097,48.9257 63.0297,48.8557 63.0037,48.8637 C62.9627,48.8957 62.7077,48.9567 62.4617,49.0617 C62.4077,49.0607 61.9067,48.7597 61.7937,48.7077 C61.7937,48.6837 61.6777,48.5657 61.6247,48.5357 C61.6277,48.4487 61.6717,48.0497 61.6717,48.0497 C61.7107,48.0327 61.5677,46.9987 61.3207,47.0447 C61.3207,47.0447 60.8397,46.9007 60.7517,46.9407 C60.7317,46.9757 60.4447,47.1467 60.4347,47.2107 C60.1427,47.2917 59.6287,46.9907 59.5727,46.8717 C59.4027,46.8617 58.2887,47.5067 58.1807,47.3057 C58.2057,47.2157 58.1507,46.9197 58.1077,46.9207 C57.8747,46.6617 57.9717,46.5987 57.8467,46.4067 C57.7327,46.2317 57.3417,46.2127 57.1617,46.2627 C57.0787,46.2867 56.5347,46.7947 56.5347,46.7947 C56.4327,46.8147 56.0637,46.3737 55.9097,46.3067 C55.5817,46.3197 55.8347,46.5827 55.3607,46.6567 C55.1807,46.6847 54.9047,46.3237 54.7587,46.2317 C54.4397,46.0297 54.0427,46.1077 53.7047,46.0327 C53.6147,45.9637 53.6287,45.6567 53.6287,45.6567 C53.5947,45.6427 53.1097,45.7347 52.9737,45.6047 C52.8977,45.5327 53.0707,45.0267 53.0867,44.9817 C53.1007,44.9107 52.9087,44.6487 52.8547,44.5997 L52.8027,44.5997 C52.7167,44.6647 52.1217,45.1787 52.0557,45.1937 C51.7857,45.2577 51.4957,45.3247 51.2187,45.3117 C51.1187,45.3077 50.8447,45.2777 50.7617,45.3227 L50.7047,45.3297 C50.6157,45.3287 50.3467,45.3637 50.2747,45.4147 C50.1927,45.4967 49.9707,46.0187 49.9317,46.0567 C49.7707,46.4197 49.4547,46.5557 49.2037,46.2497 C49.1847,46.2257 48.9097,46.8097 48.8617,46.9307 C48.8147,46.9787 48.1737,47.0197 48.1737,47.0197 C48.1427,46.9887 48.1387,47.3887 47.8277,47.4737 C47.6667,47.4777 47.7087,47.2747 47.5447,47.2697 C47.4247,47.2657 46.6837,47.7397 46.6557,47.7647 C46.5387,47.8687 46.1817,48.0577 46.0497,47.9367 C45.9297,47.9427 45.3187,48.2917 45.3537,48.3017 C45.4677,48.5297 45.2387,48.8567 45.0447,48.9687 C44.9677,49.1987 45.2967,49.4577 45.2517,49.6357 C45.1237,49.7067 44.5167,50.2427 44.3477,49.9237 C44.3217,49.8747 44.3497,49.7677 44.2977,49.6597 C43.9077,49.4317 43.6347,50.3667 43.3147,50.1097 C43.2887,50.0607 43.0857,49.8417 43.0157,49.7717 C42.6657,49.9197 42.2367,50.0567 41.9087,50.2417 C41.8897,50.2507 41.5807,50.6077 41.5037,50.6917 C41.5357,51.0277 41.5787,51.3647 41.6177,51.7007 L40.9147,51.9717 L40.9417,52.4097 C40.9417,52.4097 40.2777,52.7057 40.0647,52.8607 L39.3397,53.3967 C39.3087,53.6417 38.9157,54.3077 38.9157,54.3077 L39.4517,54.3537 Z" id="Fill-1" fill="#FFFFFF"></path>
            <path d="M39.4517,54.3537 C39.4227,54.6907 39.3507,55.0857 39.3597,55.4207 C39.3597,55.4307 39.4777,55.6907 39.4897,55.7167 C39.6507,55.8387 39.8127,55.9147 39.9657,55.9957 C40.0177,56.1527 40.0617,56.2807 40.0867,56.4417 C39.9067,56.7127 39.6757,57.4617 39.7487,57.7857 C39.7607,57.8337 40.2847,58.8637 40.3897,59.0757 L39.7037,59.2147 L39.5957,59.8937 L38.8127,59.7247 C38.8057,60.2167 39.0157,60.3947 39.2737,60.8117 L39.1347,61.0377 C38.9257,61.0807 38.7167,61.1337 38.5067,61.1667 C38.4007,61.3227 38.2817,61.4687 38.1737,61.6237 L38.8817,62.0187 L39.2677,62.7157 L39.7317,62.8987 L39.8537,63.0927 C39.7687,63.7657 38.8537,64.8327 38.9547,65.1727 L39.0527,65.4967 L39.5657,65.7397 L39.6947,65.9827 L39.5387,66.3327 L39.0247,66.5317 L39.1787,67.4797 L38.4467,67.7027 L38.6267,69.3227 L38.5187,69.5877 L38.0537,69.7217 L37.9897,69.8387 L38.5827,70.8177 L38.0807,70.7707 L37.9587,72.0567 C38.1997,72.2817 38.5117,72.6987 38.5677,73.0357 C38.5737,73.0677 38.5597,73.0847 38.5547,73.1167 C38.5547,73.1167 38.2037,74.4377 38.1597,74.9937 C38.1547,75.0687 38.1277,75.1127 38.1447,75.1857 C38.2427,75.5947 38.4817,76.0677 38.6337,76.4657 C38.5007,76.7287 38.2327,77.4997 38.3147,77.8077 L38.7407,78.8427 C38.6837,79.2497 38.5027,80.1087 38.5157,80.4267 C38.5287,80.7487 38.7127,81.1267 38.7587,81.4527 C38.8097,81.8257 38.7787,82.2227 38.8187,82.5997 C38.8387,82.7867 38.9667,82.9797 38.9917,83.1677 C39.0237,83.4037 39.0587,83.9737 39.0557,83.9867 C39.0067,84.1827 38.9757,84.5057 38.8807,84.6807 C38.7287,84.9617 38.4617,85.3407 38.3637,85.6367 C38.2157,86.0787 38.0527,86.9497 37.9637,87.4247 C37.8467,88.0457 37.8927,88.7117 37.7847,89.3347 C37.7847,89.3347 37.5997,90.0397 37.5457,90.1337 C37.3247,90.5227 36.9417,90.9357 36.6677,91.2977 C36.6157,91.3677 36.5517,92.4027 36.4427,92.6137 C36.4077,92.6837 35.9527,93.5627 35.9517,93.5737 C35.9437,93.6187 36.0877,96.6627 36.0877,96.6627 C36.2907,96.8907 36.6147,97.1807 36.7717,97.4337 C36.7767,97.4397 36.8667,97.8847 36.8737,97.9227 C36.8187,98.0017 36.3177,98.7257 36.2907,98.7507 C36.6347,99.5017 36.9847,100.2497 37.3347,100.9987 L36.9397,103.5567 L35.8147,104.6197 L36.4207,107.6397 L37.5057,108.3137 C37.3157,108.7117 37.1067,109.1047 36.8997,109.4947 L37.5477,110.5137 L37.0837,111.7997 C37.0187,111.9797 37.6637,115.3337 37.7397,115.7457 L37.4137,116.6447 L36.2457,118.8447 C35.4457,121.3227 33.0037,129.2557 33.0037,129.2557 C33.0037,129.2557 32.8427,133.8277 32.8417,135.0457 C32.8417,135.0457 32.8617,138.7067 32.7997,140.3337 C32.7837,140.7537 32.6597,141.2457 32.5957,141.6657 C32.5897,141.6977 31.7247,144.3047 31.5537,144.6637 C31.2837,145.2267 31.0737,145.5137 30.7677,146.0567 L29.1957,148.8437 C28.9317,149.3107 28.7357,149.8187 28.4757,150.2877 C28.2857,150.6287 27.9407,151.0997 27.8077,151.4517 C27.6677,151.8207 27.5767,152.4927 27.4877,152.8967 C27.6617,153.2727 27.9897,154.1107 28.1987,154.4237 C28.5327,154.9237 28.7637,155.1757 29.1257,155.6577 L30.9787,158.1247 C31.0007,158.1527 31.4707,159.1527 31.4757,159.1757 C31.5767,159.6657 31.7147,160.1767 31.7847,160.6707 C31.7847,160.6707 31.8657,161.6447 31.8477,161.7897 C31.8107,162.0947 31.2477,164.5037 31.0407,164.9387 C30.9187,165.1967 30.6937,165.4787 30.5377,165.7207 C30.5377,165.7207 28.6597,168.5687 28.6577,168.5797 C28.6097,168.8557 28.3937,169.7927 28.4047,170.0407 C28.4217,170.4197 28.5037,170.8287 28.5517,171.2077 C28.5547,171.2297 29.0527,172.5497 29.0607,172.6047 L29.0567,174.0827 C28.0927,175.1037 26.8097,175.8237 25.6357,176.5887 L24.5257,179.0177 C24.3087,179.4907 24.1387,179.7387 23.9707,180.2317 C23.9157,180.3907 23.9667,180.4957 23.9637,180.6647 L23.9517,181.5287 C23.9767,181.7897 24.1117,182.1367 24.1797,182.3957 C24.1897,182.4327 24.2647,182.6967 24.2647,182.7137 C24.2577,182.9987 24.0217,183.8147 23.9467,184.1597 L22.7537,184.5827 L22.1337,185.3277 C22.0127,185.4727 21.9167,185.5357 21.8237,185.6997 C21.8137,185.7167 21.2927,187.1327 21.2747,187.1927 C21.2557,187.2607 21.2747,190.1007 21.2697,190.1177 C21.1757,190.4387 20.3887,192.1537 20.3887,192.1537 C20.3887,192.1537 19.0307,194.5527 18.8637,194.9287 C18.7607,195.1627 18.6107,196.1447 18.5317,196.5207 C18.4347,196.6097 17.6077,197.3667 17.6037,197.3747 C17.6037,197.3747 15.9667,200.4297 15.7647,200.9067 C15.7467,200.9497 15.6427,201.9557 15.6167,202.0887 C15.3107,203.6317 14.3687,207.9797 14.2057,208.5967 C14.1867,208.6677 13.7937,209.8457 13.7757,209.8787 C13.5557,210.3097 13.1527,210.6847 12.9177,211.1107 C12.9007,211.1417 12.7167,211.8947 12.6807,212.0367 C13.4097,213.4157 14.1167,214.7677 14.8267,216.1217 C14.9067,216.2717 15.1417,217.1197 15.1547,217.2397 C15.1567,217.2537 14.9567,218.0937 14.9567,218.0937 C14.6117,218.4747 13.8407,219.2387 13.5707,219.6207 C13.5627,219.6317 13.1747,220.8397 13.1737,220.8547 C13.1627,221.1347 13.3397,221.9627 13.3877,222.2837 L12.1997,224.9137 C12.8697,227.7857 13.4937,230.6667 14.1527,233.5407 C14.1527,233.5407 9.3927,240.3097 9.3317,240.4627 C9.1727,240.8637 8.0627,245.3717 8.0337,245.6247 C8.0077,245.8467 8.0857,247.1147 8.0877,247.1747 C8.0877,247.1747 8.2337,251.2247 8.2307,251.2297 L6.5347,254.6297 C6.4917,254.7157 6.4207,254.8237 6.3927,254.9137 C6.3177,255.1477 6.1137,256.2607 6.1137,256.2607 C6.1147,256.5747 6.2417,257.0127 6.2957,257.3297 C6.2977,257.3437 6.2787,257.4657 6.2767,257.4867 C6.2237,257.9037 6.2027,258.3687 6.1157,258.7767 C6.1157,258.7767 5.1417,262.6297 5.0507,263.2167 C5.0027,263.5267 5.0507,265.6347 5.0507,265.6347 C5.0717,266.1367 5.1837,266.6437 5.2157,267.1457 C5.2437,267.6047 5.2267,268.0817 5.2327,268.5427 L4.4137,269.5487 C4.1017,269.8427 3.2147,270.4717 3.1967,270.4917 C2.9337,270.7967 2.5707,271.1417 2.3517,271.4737 C2.1187,271.8267 1.9347,272.3137 1.7447,272.6977 C1.4677,273.2577 1.1807,273.9177 0.9737,274.5097 L1.5647,274.6007 L1.6967,274.9137 L2.5167,275.4207 L2.7157,275.6197 L2.7487,275.7057 L2.6867,277.1967 L2.5897,277.7397 L1.6477,279.8007 L1.5177,280.0627 L1.6027,280.6227 L1.0027,281.7767 L1.3987,282.8467 L1.2537,283.5207 L1.5817,284.2747 L1.5007,284.4897 L1.1117,284.8047 L1.0307,285.0017 L0.6057,285.2007 L0.9677,285.9577 L0.7907,286.5007 L0.6437,286.5507 L0.8417,286.9927 L0.6297,287.3567 L0.9817,287.6757 L0.5797,288.0337 L0.4997,288.1017 L0.6017,288.1477 C1.4547,288.2497 2.2847,288.4367 3.1447,288.5107 C3.1657,288.5127 3.1847,288.5217 3.2057,288.5247 C3.7697,288.5967 4.3437,288.6397 4.9037,288.7367 C7.1517,289.1307 9.3937,289.5657 11.6377,289.9857 C15.1277,290.6397 18.6207,291.2687 22.1137,291.9107 C24.2237,292.2987 26.3397,292.6677 28.4537,293.0387 C29.5147,293.2257 30.5747,293.4387 31.6377,293.6127 C32.5827,293.7687 33.5437,293.9227 34.4937,294.0507 C34.7847,294.0897 35.0787,294.0947 35.3697,294.1447 C38.7117,294.7257 42.0217,295.5077 45.3607,296.1037 C46.9747,296.3937 48.6117,296.6407 50.2347,296.8757 C50.7507,296.9507 51.2707,297.0067 51.7847,297.0987 C52.6777,297.2587 53.5697,297.4627 54.4567,297.6507 C56.0327,297.9847 57.6187,298.2797 59.1967,298.6047 C60.9057,298.9567 62.6137,299.3397 64.3297,299.6547 C66.1757,299.9937 68.0477,300.2337 69.9047,300.4997 C73.5937,297.3027 77.3657,294.1837 81.1047,291.0487 C82.6207,289.7777 96.9647,277.9577 96.9777,277.9337 C97.6457,276.6297 101.4397,270.3537 102.5697,268.4367 C103.8897,266.1957 105.2277,263.9667 106.5457,261.7267 C107.1937,260.6227 107.8027,259.4957 108.4447,258.3877 C109.2077,257.0697 110.0147,255.7777 110.7877,254.4657 C111.3637,253.4887 111.9077,252.4917 112.4937,251.5207 C120.2747,249.9647 128.0537,248.3957 135.8287,246.8117 C139.4707,246.0697 143.1147,245.3177 146.7617,244.6067 C149.0867,244.1537 157.2297,242.5877 158.9557,242.1657 C158.9707,242.1477 159.0017,242.1167 159.0117,242.0967 C160.1227,239.6937 161.2287,237.2837 162.2647,234.8467 C163.0477,233.0077 163.7747,231.1427 164.5447,229.2977 C166.0877,225.5997 167.6247,221.8867 169.3267,218.2577 C172.6227,216.2577 175.9147,214.2777 179.2667,212.3767 C181.9157,210.8757 184.5517,209.3467 187.1897,207.8277 C188.1217,207.2917 189.0457,206.7287 189.9927,206.2217 L189.9177,206.1317 C188.0577,203.8877 186.1317,201.6997 184.2717,199.4567 C183.2197,198.1867 182.1367,196.9417 181.0797,195.6757 C180.8397,195.3887 180.6137,195.0897 180.3657,194.8097 C179.2197,193.5147 178.0937,192.1887 176.9887,190.8567 C176.6407,190.4387 176.2577,190.0437 175.9177,189.6197 C175.5147,189.1177 175.1257,188.5547 174.7677,188.0207 C174.4937,187.6087 174.3877,187.2307 174.0377,186.8357 C170.3737,182.6987 166.7397,178.5317 163.1077,174.3667 C162.7937,174.0067 162.4367,173.6927 162.1037,173.3517 C161.6777,172.9137 161.2937,172.4527 160.8937,171.9937 C160.6817,171.7497 159.8937,170.8937 159.7177,170.7017 C159.3767,170.3287 159.0127,169.9817 158.6797,169.6007 C155.7937,166.2917 152.9077,162.9817 150.0307,159.6647 C148.6427,158.0627 147.2647,156.4437 145.8447,154.8707 L145.7737,154.7917 C145.3497,154.3077 144.9257,153.8247 144.5067,153.3377 C144.2747,153.0687 144.0437,152.7617 143.7887,152.5167 C143.6727,152.4057 143.5397,152.3037 143.4277,152.1867 C142.8447,151.5807 142.3087,150.9067 141.7507,150.2757 C140.4747,148.8327 139.2017,147.3887 137.9317,145.9417 C134.6017,142.1487 131.2297,138.3927 127.9097,134.5927 C136.2187,132.1207 144.5497,129.7027 152.8847,127.3187 C154.3947,126.8867 155.9117,126.4787 157.4187,126.0377 C158.8317,125.6247 160.2297,125.1457 161.6417,124.7267 L170.1247,122.2027 C171.7117,121.7297 173.3097,121.2937 174.8967,120.8247 C177.6657,120.0057 180.4247,119.1477 183.1977,118.3397 C186.2207,117.4577 189.2617,116.6247 192.2837,115.7377 C192.9377,115.5457 193.5847,115.3267 194.2397,115.1367 C197.9407,114.0587 201.6487,112.9927 205.3557,111.9327 C211.0837,110.2947 216.8297,108.7207 222.5717,107.1307 C225.6307,106.2847 228.6787,105.4007 231.7367,104.5557 C233.7257,104.0057 235.7237,103.4907 237.7157,102.9507 C241.2517,101.9917 244.7827,101.0167 248.3187,100.0577 C249.1877,99.8227 250.0567,99.5927 250.9277,99.3657 L252.0367,99.0737 C252.1127,99.0537 252.1607,99.0567 252.2317,99.0217 C252.2467,99.0157 252.5137,98.7757 252.5427,98.7507 C254.2617,97.2287 255.9757,95.7017 257.6807,94.1627 C259.3697,92.6367 261.0377,91.0727 262.7627,89.5867 C263.3817,89.0537 264.8977,87.8147 265.0127,87.7097 L271.2567,82.2717 L268.6887,73.2927 L255.2097,76.9827 L251.6137,64.5357 L257.8457,62.8297 L239.4977,0.9157 L239.3747,0.4997 C238.5357,0.9587 237.7187,1.4857 236.8997,1.9807 L224.9787,9.1817 C224.5487,9.4417 222.1167,10.8787 221.3277,11.3107 C216.0447,14.5407 210.8097,17.8497 205.5317,21.0847 C202.2317,23.1077 198.8967,25.0717 195.6037,27.1057 C193.7897,28.2257 191.9867,29.3697 190.1627,30.4727 C189.2087,31.0507 188.2257,31.5817 187.2647,32.1467 C184.4177,33.8237 181.5617,35.4877 178.7027,37.1447 C177.3317,37.9397 175.9407,38.7167 174.5887,39.5437 L165.6247,45.0267 C165.1207,45.3357 164.3827,45.7867 163.9107,46.1527 C163.5667,46.4197 163.2327,46.7007 162.8697,46.9427 C161.5587,47.8187 160.1257,48.5327 158.8037,49.3957 C157.3337,50.3527 155.7967,51.2187 154.3127,52.1557 C150.9027,54.3097 147.4517,56.4017 144.0257,58.5297 C143.4897,58.8627 142.9767,59.2637 142.4497,59.6147 C141.2977,60.3807 140.1447,61.1467 138.9857,61.9027 C138.6847,62.0987 137.1797,62.9687 136.7307,63.2007 C136.2487,63.4507 135.7827,63.7767 135.3187,64.0617 L132.3107,65.9137 C130.1577,67.2337 128.0047,68.5417 125.8877,69.9177 C124.5117,70.8117 120.5577,73.3047 120.0367,73.7457 C119.7567,73.9827 119.5007,74.2717 119.2407,74.5327 C118.7217,75.0547 118.2077,75.5827 117.6937,76.1097 C117.1867,76.0667 116.6627,75.9367 116.1597,75.8517 C114.7687,75.6187 113.3667,75.3397 111.9677,75.1807 C111.6017,75.1387 110.8397,74.8907 110.5067,74.9037 C110.2677,75.1797 109.9957,75.4927 109.7177,75.7317 C109.7177,75.7317 109.1417,75.0117 109.0257,74.9077 C108.9007,74.7977 108.7507,74.7147 108.4037,74.5187 C108.3767,74.5027 107.3037,74.3087 107.2437,74.2957 L107.1987,74.2817 C106.4587,74.0997 105.7167,73.9907 104.9667,73.8677 C104.7527,73.8327 104.5097,73.8287 104.2907,73.8057 C103.4427,73.7157 96.8507,73.0217 96.6617,72.9337 C96.3227,72.7657 96.0057,72.5377 95.6877,72.3347 C95.5737,72.2627 91.4527,71.7907 90.7657,71.7197 C90.2327,71.3217 89.6797,70.9287 89.1627,70.5137 C88.6547,70.1047 88.2097,69.5737 87.7517,69.1097 C86.7167,68.0637 85.6927,66.9947 84.6317,65.9737 C84.4497,65.7977 84.2287,65.6327 84.0097,65.4857 C83.6717,65.2377 83.3027,64.9787 83.1767,64.8927 C82.9957,64.7697 81.8647,63.9687 81.4677,63.7157 C81.2637,63.5857 80.5367,62.9487 80.3287,62.9387 C80.3287,62.9387 79.9847,63.2467 79.9677,63.2527 C79.5957,63.3917 79.1817,63.2417 78.8097,63.3787 L78.5197,63.2527 C78.5197,63.2527 78.2647,62.6357 78.1907,62.4097 C78.1397,62.2517 78.1697,62.0797 78.0997,61.9197 C78.0787,61.8727 77.6147,61.3887 77.5557,61.3117 C77.2717,61.2067 77.0017,61.5547 76.7577,61.6047 C76.7067,61.6147 75.9637,61.7637 75.7047,61.9197 C75.5957,61.8617 75.2687,61.3527 75.2397,61.2837 C75.0497,61.3487 74.8897,61.2477 74.7067,61.2417 C74.3747,61.2297 74.0197,61.2907 73.6877,61.2767 C73.5697,61.2717 73.3607,61.1777 73.2057,61.1727 C73.0157,61.1677 71.6757,61.6157 71.4967,61.6277 C71.3947,61.8487 70.6357,61.9557 70.4047,62.0527 C70.3707,62.0107 70.3357,61.9547 70.3257,61.8997 C70.3967,61.6857 70.2437,60.7907 70.2267,60.5087 C70.3897,60.4167 70.4887,59.9357 70.4007,59.7447 C70.1677,59.6627 69.9957,59.2917 69.9697,59.0637 C69.9547,58.9377 70.0047,58.8087 69.9637,58.6797 C69.9077,58.5057 69.8117,58.1537 69.7467,58.0047 C69.7427,57.9927 69.4557,57.5907 69.3157,57.3787 L67.2917,55.9217 C67.3057,55.8397 67.1047,55.6357 67.0987,55.5597 C67.0917,55.4607 67.0437,54.8257 67.0467,54.7847 C67.0907,54.2167 67.2237,53.6767 67.2997,53.1127 C67.3127,53.1047 67.3437,52.9357 67.3437,52.8657 C67.3437,52.8657 67.2647,52.0927 67.2287,51.9037 C67.1827,51.8647 66.9617,51.5157 66.9287,51.5147 C66.8977,51.5247 65.8767,51.2827 65.5867,51.3357 C65.5867,51.3357 64.9887,51.4767 64.7817,51.4457 C64.6737,51.4297 63.3807,51.1487 63.2907,51.0377 C63.1287,50.8387 62.6497,50.2227 62.6497,50.2227 C62.7347,50.2087 63.8147,50.0227 63.8757,49.9527 C63.9007,49.7877 63.4787,49.3567 63.4137,49.2137 C63.3707,49.1217 63.3547,49.0317 63.3307,48.9347 C63.3097,48.9257 63.0297,48.8557 63.0037,48.8637 C62.9627,48.8957 62.7077,48.9567 62.4617,49.0617 C62.4077,49.0607 61.9067,48.7597 61.7937,48.7077 C61.7937,48.6837 61.6777,48.5657 61.6247,48.5357 C61.6277,48.4487 61.6717,48.0497 61.6717,48.0497 C61.7107,48.0327 61.5677,46.9987 61.3207,47.0447 C61.3207,47.0447 60.8397,46.9007 60.7517,46.9407 C60.7317,46.9757 60.4447,47.1467 60.4347,47.2107 C60.1427,47.2917 59.6287,46.9907 59.5727,46.8717 C59.4027,46.8617 58.2887,47.5067 58.1807,47.3057 C58.2057,47.2157 58.1507,46.9197 58.1077,46.9207 C57.8747,46.6617 57.9717,46.5987 57.8467,46.4067 C57.7327,46.2317 57.3417,46.2127 57.1617,46.2627 C57.0787,46.2867 56.5347,46.7947 56.5347,46.7947 C56.4327,46.8147 56.0637,46.3737 55.9097,46.3067 C55.5817,46.3197 55.8347,46.5827 55.3607,46.6567 C55.1807,46.6847 54.9047,46.3237 54.7587,46.2317 C54.4397,46.0297 54.0427,46.1077 53.7047,46.0327 C53.6147,45.9637 53.6287,45.6567 53.6287,45.6567 C53.5947,45.6427 53.1097,45.7347 52.9737,45.6047 C52.8977,45.5327 53.0707,45.0267 53.0867,44.9817 C53.1007,44.9107 52.9087,44.6487 52.8547,44.5997 L52.8027,44.5997 C52.7167,44.6647 52.1217,45.1787 52.0557,45.1937 C51.7857,45.2577 51.4957,45.3247 51.2187,45.3117 C51.1187,45.3077 50.8447,45.2777 50.7617,45.3227 L50.7047,45.3297 C50.6157,45.3287 50.3467,45.3637 50.2747,45.4147 C50.1927,45.4967 49.9707,46.0187 49.9317,46.0567 C49.7707,46.4197 49.4547,46.5557 49.2037,46.2497 C49.1847,46.2257 48.9097,46.8097 48.8617,46.9307 C48.8147,46.9787 48.1737,47.0197 48.1737,47.0197 C48.1427,46.9887 48.1387,47.3887 47.8277,47.4737 C47.6667,47.4777 47.7087,47.2747 47.5447,47.2697 C47.4247,47.2657 46.6837,47.7397 46.6557,47.7647 C46.5387,47.8687 46.1817,48.0577 46.0497,47.9367 C45.9297,47.9427 45.3187,48.2917 45.3537,48.3017 C45.4677,48.5297 45.2387,48.8567 45.0447,48.9687 C44.9677,49.1987 45.2967,49.4577 45.2517,49.6357 C45.1237,49.7067 44.5167,50.2427 44.3477,49.9237 C44.3217,49.8747 44.3497,49.7677 44.2977,49.6597 C43.9077,49.4317 43.6347,50.3667 43.3147,50.1097 C43.2887,50.0607 43.0857,49.8417 43.0157,49.7717 C42.6657,49.9197 42.2367,50.0567 41.9087,50.2417 C41.8897,50.2507 41.5807,50.6077 41.5037,50.6917 C41.5357,51.0277 41.5787,51.3647 41.6177,51.7007 L40.9147,51.9717 L40.9417,52.4097 C40.9417,52.4097 40.2777,52.7057 40.0647,52.8607 L39.3397,53.3967 C39.3087,53.6417 38.9157,54.3077 38.9157,54.3077 L39.4517,54.3537 Z" id="Stroke-3" stroke="#E75F52" stroke-linecap="round" stroke-linejoin="round"></path>
        </g>
    </g>
</svg>