<?xml version="1.0" encoding="UTF-8"?>
<svg width="311px" height="300px" viewBox="0 0 311 300" version="1.1" xmlns="http://www.w3.org/2000/svg" xmlns:xlink="http://www.w3.org/1999/xlink">
    <!-- Generator: Sketch 64 (93537) - https://sketch.com -->
    <title>198</title>
    <desc>Created with Sketch.</desc>
    <g id="198" stroke="none" stroke-width="1" fill="none" fill-rule="evenodd">
        <g id="Group-4">
            <path d="M37.4606,0.5459 C35.7086,0.8749 33.8346,2.8659 32.1546,3.6119 C30.5196,4.2889 28.6916,5.2129 26.7616,6.1779 C26.1736,9.2659 26.5456,9.9699 27.7556,10.4019 C29.1366,10.8939 28.5486,12.6649 28.2526,14.0469 C27.9566,15.4209 26.5196,9.7889 25.4346,11.5599 C24.3466,13.3309 23.9596,11.0569 20.7016,12.1389 C17.5086,13.2029 14.8876,13.3049 13.4876,11.7229 C12.6156,11.9309 11.8076,12.0789 10.9956,12.1389 C9.0006,12.3889 7.4346,11.6429 4.6926,12.1389 C4.4426,12.1389 3.4446,12.6349 3.6956,13.1309 C4.4426,13.6309 6.6846,12.8809 6.4336,13.6309 C6.1836,14.8719 -0.7874,12.3669 0.7106,20.5839 C1.1046,22.9529 1.8216,24.2359 2.7016,24.9699 C2.3076,27.3769 2.0836,28.1979 3.4486,27.2939 C5.1216,26.1779 4.9506,28.0129 7.1806,27.4569 C9.4106,26.9009 6.9156,28.9439 5.5236,29.3609 C4.1276,29.7809 4.1806,31.9159 2.7816,33.1679 C1.3896,34.4209 3.1726,34.7079 3.0316,35.8209 C2.8916,36.9299 4.4196,34.2839 7.3476,32.7549 C9.3916,31.6879 7.9846,32.1489 9.1716,32.9219 C8.7806,33.1639 8.3906,33.3909 8.1746,33.7509 C7.4276,34.7429 7.9276,36.0629 7.4276,37.0629 C7.1806,37.3089 4.6896,34.0769 4.9396,36.5629 C5.1896,37.5619 5.9336,38.7999 6.9306,39.2959 C8.1786,39.7919 11.7436,37.8009 11.4936,39.2959 C10.9966,41.0369 7.6816,40.2879 6.1836,41.2829 C5.1866,42.2819 5.6866,44.5109 6.9306,44.2649 C8.4286,44.0149 9.9986,42.5239 11.4936,42.2779 C12.2446,42.0279 11.2466,43.2699 10.7466,43.5189 C9.0016,45.0099 5.1906,44.2569 4.6936,46.4979 C4.4436,46.9979 5.4406,47.9849 4.9406,48.2389 C4.4436,48.7389 2.9496,46.9939 3.1996,47.7389 C3.1996,49.7299 5.9376,51.4589 5.4406,53.4539 C9.1806,51.4589 15.4686,49.9759 19.9586,50.9669 C20.4556,51.2169 19.2076,52.2119 19.4576,52.7039 C19.9586,53.2039 20.9516,52.7039 21.4486,53.2039 C24.4446,56.1899 12.7256,57.1669 18.7146,61.3979 C20.9556,62.8969 23.9366,59.4149 25.1846,59.1649 C25.4346,58.9149 25.1846,59.9109 25.1846,60.1569 C25.1846,60.6569 24.6836,61.1519 24.9346,61.3979 C26.4326,61.6519 28.1656,61.1519 29.6636,61.3979 C30.6606,61.3979 31.9046,61.6479 32.1556,62.6389 C32.6526,63.1389 30.6576,63.6339 31.1586,63.8839 C31.9056,64.3799 33.1456,63.1349 34.1436,63.6339 C35.1446,63.8879 38.8656,67.3659 42.3586,64.3799 C42.8556,63.8839 41.8576,62.6429 42.3586,62.1469 C44.6036,60.6519 44.4296,63.1389 45.4306,63.6339 C51.1646,65.8779 52.1356,63.6299 56.8766,66.1169 C57.8736,66.6169 55.6286,76.1349 56.8766,76.3849 C58.6216,76.6349 65.0956,76.1239 63.5976,81.1049 C61.5986,86.5849 54.6466,86.8119 50.9036,88.8069 L45.6776,94.2679 C44.6806,94.7679 42.8596,93.2729 42.1126,94.0179 L44.3506,100.0619 C44.6006,102.0569 43.1066,104.0319 42.8566,106.0229 C42.6066,107.7679 42.6096,109.4969 41.8626,111.2379 C41.6126,111.9869 40.6146,111.9869 40.3686,112.4789 C38.8706,115.4689 41.6126,113.2209 41.3626,115.7109 C41.1156,119.1969 33.3976,116.9409 34.1456,121.6719 C34.8966,126.9019 38.6356,124.3859 35.1426,131.3569 C32.1506,137.0829 30.9256,136.6589 25.1866,135.1679 C22.9416,134.6679 21.4586,134.4219 19.2136,133.6769 C18.7126,133.6769 17.7196,132.9309 17.9696,133.4309 C17.9696,133.6769 21.9516,141.3749 22.2026,141.6249 C22.2026,142.1209 20.4546,147.3249 21.9526,150.5639 C22.9496,152.5549 27.6756,155.7789 27.6756,156.2789 C27.1786,162.7549 22.2066,162.3119 18.4666,165.3019 C14.2226,168.7879 18.4706,166.5359 16.9726,169.5259 C16.2256,171.2709 14.4846,172.5009 13.7376,174.2459 C13.7376,174.7419 15.2316,174.2419 15.4826,174.7419 C16.4796,175.9869 16.4766,177.7169 16.9736,179.2119 C17.4746,180.7069 17.2206,182.6859 18.4676,183.6819 C19.7156,184.4279 22.1996,182.4369 22.9466,183.6819 C25.9386,188.6629 13.7416,188.8979 13.2416,189.1479 C11.7436,189.8959 12.0016,192.6209 10.5036,193.8669 C2.2696,201.0879 4.6966,202.8629 4.1966,213.3239 C7.4396,213.3239 11.9946,214.0669 12.9916,214.5659 C14.2396,215.3109 14.9786,217.2979 16.4766,217.0479 C16.9776,217.0479 17.2236,216.8019 17.4706,216.3019 L17.4706,216.7979 L24.1916,223.2589 C25.1926,224.4999 26.1826,225.7339 26.9296,227.2329 C27.5666,228.4969 27.0966,230.8509 28.0106,231.6989 C26.7246,232.5849 25.7846,233.4019 25.9356,233.8569 C26.0496,234.1999 26.1976,234.4689 26.4326,234.7639 C26.5466,238.9309 28.4126,237.8219 29.6676,238.4879 C29.7016,238.5029 29.7206,238.5519 29.7506,238.5709 C30.8276,240.5999 29.9286,240.7889 28.1726,239.9789 C28.2866,240.3579 28.4496,240.6979 28.5896,241.0539 C28.5596,241.0429 28.4226,240.9589 28.4226,240.9749 C28.9196,243.4649 31.4036,251.6519 33.1516,253.3929 C33.8986,254.1389 35.3896,253.3929 36.1366,254.1389 C37.3846,255.1339 37.6276,256.8679 38.6286,258.1129 C39.3756,258.8589 40.8626,259.1059 41.8636,259.8499 C42.6106,260.3499 42.6066,262.1699 43.3576,261.9199 C45.3526,261.1739 46.6726,259.1119 48.1666,257.8629 C49.1636,257.1169 50.6546,258.6119 50.9046,258.3589 C53.1496,255.1229 52.6336,253.1479 57.1246,250.9109 C62.6166,248.1709 67.5696,252.6559 71.5636,251.1569 C74.3096,249.9119 75.7846,246.1949 78.7806,245.4459 C81.5266,244.9459 96.2796,247.1789 99.5226,248.4249 C101.2676,248.9249 102.2566,250.4119 104.0016,250.9119 C107.2446,251.4079 110.4646,249.6669 113.4606,250.4159 C115.7056,250.6619 121.0046,254.8859 123.2496,254.1399 C124.9946,253.6399 125.7336,251.6569 127.2316,251.1579 C134.7186,249.1669 135.6856,257.3759 138.6776,255.6319 C146.6646,251.6479 146.7106,241.9819 154.4436,237.0039 C158.9336,234.0139 165.1346,231.5309 170.3726,233.0299 C171.6206,233.2759 172.8566,234.5219 174.1056,234.5219 C176.1046,234.7669 178.8306,235.0219 179.5846,233.2759 C180.0776,231.5309 176.0996,230.7969 176.0996,228.8059 C176.3466,220.8349 180.8216,226.5009 182.8166,221.5199 C183.5646,220.0249 182.0696,217.7999 183.0666,216.3049 C183.8146,215.0599 185.8846,216.0589 186.8816,215.0649 C187.6326,214.0659 186.8776,212.0849 187.8786,210.8399 C188.3756,210.3439 189.6156,211.3399 190.3666,210.8399 C191.3636,210.0909 190.8596,208.3579 191.6106,207.6119 C193.3566,206.3669 195.5856,206.1249 197.5836,205.6249 C198.0846,205.6249 198.8276,206.3709 199.3286,205.8709 C199.8216,205.6249 199.8216,204.3869 200.3226,203.8879 C202.0676,202.6429 206.2926,202.1549 208.0406,200.6559 C210.2816,199.1649 201.0736,193.8699 200.3226,192.8779 C198.0776,189.6379 195.3386,177.7349 197.3336,173.9959 C201.8276,164.7879 211.0096,157.7899 217.9956,150.5689 C220.4876,148.0819 221.5526,143.8659 224.5456,141.6299 C225.0466,141.3799 232.7606,139.6429 232.7606,138.8969 C233.0076,137.1519 229.2786,137.4099 228.5316,135.6649 C228.0306,133.4279 231.5126,132.1109 233.2576,130.6159 C239.9936,125.1399 255.2246,126.8989 263.7046,124.4089 C265.9496,123.9089 268.1836,120.1889 269.6776,119.1939 C271.6766,117.4489 275.8936,116.4609 278.6396,115.4659 C281.6316,114.2209 292.4106,110.0079 293.6586,107.2679 C296.1506,103.0369 292.1606,97.2539 293.1576,96.2579 C294.4056,95.0129 297.6366,95.5199 298.1336,93.5289 C298.6346,92.0299 297.6406,90.7959 296.3936,89.5509 L295.3986,89.5509 C291.4046,88.5559 286.8616,86.3149 283.1176,88.8089 C282.3706,89.3049 283.3716,91.2919 282.3706,91.5379 C279.8786,92.2839 275.6576,87.3179 273.1616,87.3179 C270.9166,87.3179 269.1866,88.5559 267.1896,88.8089 C265.6946,89.0549 265.4476,86.3219 264.9476,85.8229 C263.6996,84.8309 261.7196,84.3389 259.9716,83.5939 C252.2386,85.8309 252.7546,82.3529 253.9986,79.8659 L253.9986,79.6159 C252.7546,78.8699 253.4186,76.6409 252.1746,75.6419 C251.4236,74.8959 249.9366,74.8999 248.6896,74.6469 C248.1886,74.6469 247.4456,74.9009 247.1986,74.6469 C244.4526,72.1599 241.9796,69.1889 237.7396,68.4399 C234.7476,67.9439 235.9986,73.6589 235.9986,73.6589 C233.2526,73.4049 231.0226,71.4219 228.5306,71.6679 C227.7796,71.6679 227.7836,73.1589 227.0326,73.1589 C225.5386,72.9089 224.7946,71.1719 223.3006,70.9219 C221.8026,70.6759 220.8166,72.1669 219.3186,71.9169 C216.0756,71.9169 217.2476,68.6089 215.5036,67.1139 C212.0106,64.1279 208.7906,68.6129 205.5476,66.1189 C205.2976,66.1189 202.8146,60.4119 202.5586,60.1579 C199.3196,57.6709 193.8586,58.9279 190.3656,55.6919 C189.8646,55.1919 190.6156,53.9549 190.3656,53.4549 C189.8646,52.9549 188.3786,55.6919 186.8806,55.1919 C183.6376,53.6969 190.8666,50.7299 188.6216,48.2389 C187.8746,47.2399 186.3876,46.7479 185.1366,46.4979 C184.8896,46.4979 185.1406,47.7429 184.6436,47.4929 C184.6436,47.4929 181.8216,45.0099 180.3276,43.5189 C175.5866,44.7639 168.6386,45.0099 165.3926,43.2689 C164.1446,42.5229 163.4056,40.7859 161.9076,40.0409 C161.4146,39.6659 160.6636,39.8859 159.9206,40.0409 C159.0026,39.5939 158.0696,39.1819 157.2656,38.8829 C157.0036,38.3869 156.8936,37.9069 156.8486,37.5579 C155.4566,37.7249 153.7876,37.5659 151.4596,37.0619 C151.4256,36.9979 151.4066,36.9519 151.3766,36.8949 C150.8076,37.0919 150.2726,37.3449 149.9656,37.8069 C149.4646,38.3029 150.7126,40.0399 149.9656,40.0399 C147.9706,40.0399 142.4216,34.7409 140.4236,34.2459 C140.6736,33.9959 140.9206,33.4999 140.9206,33.2539 C140.7496,32.9129 140.5146,32.5949 140.2566,32.3419 C137.7116,32.7359 136.6536,31.8009 134.8676,32.7549 C132.7736,33.8679 131.5116,34.0079 132.6266,32.7549 C133.7416,31.5019 132.7366,31.2109 129.3916,31.3469 C129.2966,31.0289 129.2856,30.8019 129.2246,30.5179 C128.7236,30.7719 128.7276,31.7589 128.2306,32.0129 C119.9966,34.4999 103.7676,26.5549 97.5326,22.3239 C96.7856,21.8239 95.2916,23.5649 94.7946,22.8199 C94.2936,22.5739 95.7916,21.8279 95.2916,21.3289 C93.7936,19.8379 90.8166,21.3329 89.3186,20.0879 C87.8206,18.8429 87.5816,15.8679 85.8366,15.3679 C83.8376,14.8679 82.1046,17.3589 80.1096,17.3589 C78.6156,17.3589 77.7926,15.8679 76.2946,15.3679 C74.7966,15.1219 71.5686,15.8679 69.8206,15.6179 C62.8346,14.6229 66.6046,14.3799 59.6186,12.6389 C59.2166,12.5559 58.9166,12.7979 58.6216,13.1309 C55.4816,12.6279 53.7516,12.3359 52.3186,11.0649 C49.9936,7.1249 48.7306,1.6259 44.1036,1.6259 C42.1086,1.6259 40.8726,5.1869 38.8776,4.9379 C37.6296,4.6879 40.1256,1.6259 39.1276,0.8809 C38.5596,0.5039 38.0446,0.4399 37.4606,0.5459 M303.7766,167.5349 C302.8926,167.5539 301.8236,167.6709 300.5416,167.8679 C298.1746,168.2619 298.5736,168.4959 298.9636,170.2679 C299.3616,172.0429 299.3576,172.8159 302.1156,172.4219 C304.8806,172.0279 304.3346,174.3569 307.0956,175.7339 C309.8566,177.1149 310.8096,176.8969 310.4146,173.7469 C310.0216,170.5979 308.7986,170.6549 308.0096,169.2769 C307.4176,168.2429 306.4196,167.4939 303.7766,167.5349 M284.0316,169.2759 C283.4476,169.2909 282.5596,169.3629 281.3726,169.6059 C276.6396,170.5929 274.5046,170.6189 272.3346,172.5869 C270.1616,174.5549 266.7896,176.1669 263.0386,178.1319 C260.2776,178.1319 262.4776,181.4439 264.4536,183.0179 C266.4216,184.5919 266.5966,183.5969 267.1886,182.0239 C267.7796,180.4489 268.8146,179.8389 270.5896,181.6099 C272.3646,183.3849 270.3506,186.3599 271.3366,187.7369 C272.3226,189.1149 275.2776,187.5289 276.0656,189.8909 C276.8556,192.2529 277.0706,192.7069 279.6306,191.1319 C282.1946,189.5579 282.4216,189.5539 284.1966,186.9919 C285.9676,184.4339 288.3506,182.0379 289.3396,179.8729 C290.3256,177.7079 287.4966,174.3359 287.0986,175.3199 C286.7046,176.3039 285.3696,178.4759 283.1996,176.3159 C281.0306,174.1469 283.6126,174.1609 283.6126,172.5869 C283.6126,171.0129 282.6266,173.6129 282.0386,171.8409 C281.4466,170.0699 282.0046,171.3869 283.7796,170.5999 C285.1126,170.0099 285.7796,169.2319 284.0316,169.2759 M239.8096,191.6329 C238.6876,191.6329 237.0906,192.6359 234.4996,193.8619 C232.7246,195.8339 232.6566,194.8689 233.8356,195.8529 C235.0226,196.8369 232.2916,195.5989 232.0946,197.1739 C231.9016,198.7479 232.4666,199.1529 233.2556,199.7439 C234.0446,200.3339 237.0326,201.3369 236.2446,200.1569 C235.4556,198.9759 237.8296,199.1349 238.8156,197.7569 C239.8016,196.3759 242.3736,195.2359 241.3866,192.8749 C241.0206,191.9849 240.4846,191.6329 239.8096,191.6329 M235.4136,204.0499 C233.4416,204.4409 234.0326,208.6369 235.4136,206.8619 C236.7976,205.0909 236.8206,207.4299 238.3986,208.0249 C239.9766,208.6139 241.9716,205.4659 238.8156,206.4499 C235.6596,207.4339 238.7666,204.4409 235.4136,204.0499 M48.5806,265.4759 C46.0436,265.7749 42.9336,267.7169 42.6036,267.8789 L44.3486,275.0809 L49.9086,275.0809 C49.9086,274.3349 49.6586,273.8399 49.6586,273.0939 C49.4086,271.5989 48.9116,270.1189 49.4086,268.6239 C49.6586,267.8749 51.9006,267.6319 51.6496,266.8829 C51.2776,266.0129 50.5306,265.5699 49.6586,265.4749 C49.3316,265.4419 48.9406,265.4349 48.5806,265.4759 M110.7186,293.2979 C109.9826,292.9309 108.2946,296.9279 106.9866,298.0179 L110.7186,300.4999 C110.7186,298.2559 111.2156,295.7839 110.9686,293.7929 C110.9046,293.5439 110.8256,293.3469 110.7186,293.2979 M111.8796,299.2589 C111.7886,299.3199 111.7126,299.5049 111.7126,299.7549 L111.7126,300.0009 L112.2136,299.2589 C112.0886,299.2589 111.9706,299.1939 111.8796,299.2589" id="Fill-1" fill="#FFFFFF"></path>
            <path d="M37.4606,0.5459 C35.7086,0.8749 33.8346,2.8659 32.1546,3.6119 C30.5196,4.2889 28.6916,5.2129 26.7616,6.1779 C26.1736,9.2659 26.5456,9.9699 27.7556,10.4019 C29.1366,10.8939 28.5486,12.6649 28.2526,14.0469 C27.9566,15.4209 26.5196,9.7889 25.4346,11.5599 C24.3466,13.3309 23.9596,11.0569 20.7016,12.1389 C17.5086,13.2029 14.8876,13.3049 13.4876,11.7229 C12.6156,11.9309 11.8076,12.0789 10.9956,12.1389 C9.0006,12.3889 7.4346,11.6429 4.6926,12.1389 C4.4426,12.1389 3.4446,12.6349 3.6956,13.1309 C4.4426,13.6309 6.6846,12.8809 6.4336,13.6309 C6.1836,14.8719 -0.7874,12.3669 0.7106,20.5839 C1.1046,22.9529 1.8216,24.2359 2.7016,24.9699 C2.3076,27.3769 2.0836,28.1979 3.4486,27.2939 C5.1216,26.1779 4.9506,28.0129 7.1806,27.4569 C9.4106,26.9009 6.9156,28.9439 5.5236,29.3609 C4.1276,29.7809 4.1806,31.9159 2.7816,33.1679 C1.3896,34.4209 3.1726,34.7079 3.0316,35.8209 C2.8916,36.9299 4.4196,34.2839 7.3476,32.7549 C9.3916,31.6879 7.9846,32.1489 9.1716,32.9219 C8.7806,33.1639 8.3906,33.3909 8.1746,33.7509 C7.4276,34.7429 7.9276,36.0629 7.4276,37.0629 C7.1806,37.3089 4.6896,34.0769 4.9396,36.5629 C5.1896,37.5619 5.9336,38.7999 6.9306,39.2959 C8.1786,39.7919 11.7436,37.8009 11.4936,39.2959 C10.9966,41.0369 7.6816,40.2879 6.1836,41.2829 C5.1866,42.2819 5.6866,44.5109 6.9306,44.2649 C8.4286,44.0149 9.9986,42.5239 11.4936,42.2779 C12.2446,42.0279 11.2466,43.2699 10.7466,43.5189 C9.0016,45.0099 5.1906,44.2569 4.6936,46.4979 C4.4436,46.9979 5.4406,47.9849 4.9406,48.2389 C4.4436,48.7389 2.9496,46.9939 3.1996,47.7389 C3.1996,49.7299 5.9376,51.4589 5.4406,53.4539 C9.1806,51.4589 15.4686,49.9759 19.9586,50.9669 C20.4556,51.2169 19.2076,52.2119 19.4576,52.7039 C19.9586,53.2039 20.9516,52.7039 21.4486,53.2039 C24.4446,56.1899 12.7256,57.1669 18.7146,61.3979 C20.9556,62.8969 23.9366,59.4149 25.1846,59.1649 C25.4346,58.9149 25.1846,59.9109 25.1846,60.1569 C25.1846,60.6569 24.6836,61.1519 24.9346,61.3979 C26.4326,61.6519 28.1656,61.1519 29.6636,61.3979 C30.6606,61.3979 31.9046,61.6479 32.1556,62.6389 C32.6526,63.1389 30.6576,63.6339 31.1586,63.8839 C31.9056,64.3799 33.1456,63.1349 34.1436,63.6339 C35.1446,63.8879 38.8656,67.3659 42.3586,64.3799 C42.8556,63.8839 41.8576,62.6429 42.3586,62.1469 C44.6036,60.6519 44.4296,63.1389 45.4306,63.6339 C51.1646,65.8779 52.1356,63.6299 56.8766,66.1169 C57.8736,66.6169 55.6286,76.1349 56.8766,76.3849 C58.6216,76.6349 65.0956,76.1239 63.5976,81.1049 C61.5986,86.5849 54.6466,86.8119 50.9036,88.8069 L45.6776,94.2679 C44.6806,94.7679 42.8596,93.2729 42.1126,94.0179 L44.3506,100.0619 C44.6006,102.0569 43.1066,104.0319 42.8566,106.0229 C42.6066,107.7679 42.6096,109.4969 41.8626,111.2379 C41.6126,111.9869 40.6146,111.9869 40.3686,112.4789 C38.8706,115.4689 41.6126,113.2209 41.3626,115.7109 C41.1156,119.1969 33.3976,116.9409 34.1456,121.6719 C34.8966,126.9019 38.6356,124.3859 35.1426,131.3569 C32.1506,137.0829 30.9256,136.6589 25.1866,135.1679 C22.9416,134.6679 21.4586,134.4219 19.2136,133.6769 C18.7126,133.6769 17.7196,132.9309 17.9696,133.4309 C17.9696,133.6769 21.9516,141.3749 22.2026,141.6249 C22.2026,142.1209 20.4546,147.3249 21.9526,150.5639 C22.9496,152.5549 27.6756,155.7789 27.6756,156.2789 C27.1786,162.7549 22.2066,162.3119 18.4666,165.3019 C14.2226,168.7879 18.4706,166.5359 16.9726,169.5259 C16.2256,171.2709 14.4846,172.5009 13.7376,174.2459 C13.7376,174.7419 15.2316,174.2419 15.4826,174.7419 C16.4796,175.9869 16.4766,177.7169 16.9736,179.2119 C17.4746,180.7069 17.2206,182.6859 18.4676,183.6819 C19.7156,184.4279 22.1996,182.4369 22.9466,183.6819 C25.9386,188.6629 13.7416,188.8979 13.2416,189.1479 C11.7436,189.8959 12.0016,192.6209 10.5036,193.8669 C2.2696,201.0879 4.6966,202.8629 4.1966,213.3239 C7.4396,213.3239 11.9946,214.0669 12.9916,214.5659 C14.2396,215.3109 14.9786,217.2979 16.4766,217.0479 C16.9776,217.0479 17.2236,216.8019 17.4706,216.3019 L17.4706,216.7979 L24.1916,223.2589 C25.1926,224.4999 26.1826,225.7339 26.9296,227.2329 C27.5666,228.4969 27.0966,230.8509 28.0106,231.6989 C26.7246,232.5849 25.7846,233.4019 25.9356,233.8569 C26.0496,234.1999 26.1976,234.4689 26.4326,234.7639 C26.5466,238.9309 28.4126,237.8219 29.6676,238.4879 C29.7016,238.5029 29.7206,238.5519 29.7506,238.5709 C30.8276,240.5999 29.9286,240.7889 28.1726,239.9789 C28.2866,240.3579 28.4496,240.6979 28.5896,241.0539 C28.5596,241.0429 28.4226,240.9589 28.4226,240.9749 C28.9196,243.4649 31.4036,251.6519 33.1516,253.3929 C33.8986,254.1389 35.3896,253.3929 36.1366,254.1389 C37.3846,255.1339 37.6276,256.8679 38.6286,258.1129 C39.3756,258.8589 40.8626,259.1059 41.8636,259.8499 C42.6106,260.3499 42.6066,262.1699 43.3576,261.9199 C45.3526,261.1739 46.6726,259.1119 48.1666,257.8629 C49.1636,257.1169 50.6546,258.6119 50.9046,258.3589 C53.1496,255.1229 52.6336,253.1479 57.1246,250.9109 C62.6166,248.1709 67.5696,252.6559 71.5636,251.1569 C74.3096,249.9119 75.7846,246.1949 78.7806,245.4459 C81.5266,244.9459 96.2796,247.1789 99.5226,248.4249 C101.2676,248.9249 102.2566,250.4119 104.0016,250.9119 C107.2446,251.4079 110.4646,249.6669 113.4606,250.4159 C115.7056,250.6619 121.0046,254.8859 123.2496,254.1399 C124.9946,253.6399 125.7336,251.6569 127.2316,251.1579 C134.7186,249.1669 135.6856,257.3759 138.6776,255.6319 C146.6646,251.6479 146.7106,241.9819 154.4436,237.0039 C158.9336,234.0139 165.1346,231.5309 170.3726,233.0299 C171.6206,233.2759 172.8566,234.5219 174.1056,234.5219 C176.1046,234.7669 178.8306,235.0219 179.5846,233.2759 C180.0776,231.5309 176.0996,230.7969 176.0996,228.8059 C176.3466,220.8349 180.8216,226.5009 182.8166,221.5199 C183.5646,220.0249 182.0696,217.7999 183.0666,216.3049 C183.8146,215.0599 185.8846,216.0589 186.8816,215.0649 C187.6326,214.0659 186.8776,212.0849 187.8786,210.8399 C188.3756,210.3439 189.6156,211.3399 190.3666,210.8399 C191.3636,210.0909 190.8596,208.3579 191.6106,207.6119 C193.3566,206.3669 195.5856,206.1249 197.5836,205.6249 C198.0846,205.6249 198.8276,206.3709 199.3286,205.8709 C199.8216,205.6249 199.8216,204.3869 200.3226,203.8879 C202.0676,202.6429 206.2926,202.1549 208.0406,200.6559 C210.2816,199.1649 201.0736,193.8699 200.3226,192.8779 C198.0776,189.6379 195.3386,177.7349 197.3336,173.9959 C201.8276,164.7879 211.0096,157.7899 217.9956,150.5689 C220.4876,148.0819 221.5526,143.8659 224.5456,141.6299 C225.0466,141.3799 232.7606,139.6429 232.7606,138.8969 C233.0076,137.1519 229.2786,137.4099 228.5316,135.6649 C228.0306,133.4279 231.5126,132.1109 233.2576,130.6159 C239.9936,125.1399 255.2246,126.8989 263.7046,124.4089 C265.9496,123.9089 268.1836,120.1889 269.6776,119.1939 C271.6766,117.4489 275.8936,116.4609 278.6396,115.4659 C281.6316,114.2209 292.4106,110.0079 293.6586,107.2679 C296.1506,103.0369 292.1606,97.2539 293.1576,96.2579 C294.4056,95.0129 297.6366,95.5199 298.1336,93.5289 C298.6346,92.0299 297.6406,90.7959 296.3936,89.5509 L295.3986,89.5509 C291.4046,88.5559 286.8616,86.3149 283.1176,88.8089 C282.3706,89.3049 283.3716,91.2919 282.3706,91.5379 C279.8786,92.2839 275.6576,87.3179 273.1616,87.3179 C270.9166,87.3179 269.1866,88.5559 267.1896,88.8089 C265.6946,89.0549 265.4476,86.3219 264.9476,85.8229 C263.6996,84.8309 261.7196,84.3389 259.9716,83.5939 C252.2386,85.8309 252.7546,82.3529 253.9986,79.8659 L253.9986,79.6159 C252.7546,78.8699 253.4186,76.6409 252.1746,75.6419 C251.4236,74.8959 249.9366,74.8999 248.6896,74.6469 C248.1886,74.6469 247.4456,74.9009 247.1986,74.6469 C244.4526,72.1599 241.9796,69.1889 237.7396,68.4399 C234.7476,67.9439 235.9986,73.6589 235.9986,73.6589 C233.2526,73.4049 231.0226,71.4219 228.5306,71.6679 C227.7796,71.6679 227.7836,73.1589 227.0326,73.1589 C225.5386,72.9089 224.7946,71.1719 223.3006,70.9219 C221.8026,70.6759 220.8166,72.1669 219.3186,71.9169 C216.0756,71.9169 217.2476,68.6089 215.5036,67.1139 C212.0106,64.1279 208.7906,68.6129 205.5476,66.1189 C205.2976,66.1189 202.8146,60.4119 202.5586,60.1579 C199.3196,57.6709 193.8586,58.9279 190.3656,55.6919 C189.8646,55.1919 190.6156,53.9549 190.3656,53.4549 C189.8646,52.9549 188.3786,55.6919 186.8806,55.1919 C183.6376,53.6969 190.8666,50.7299 188.6216,48.2389 C187.8746,47.2399 186.3876,46.7479 185.1366,46.4979 C184.8896,46.4979 185.1406,47.7429 184.6436,47.4929 C184.6436,47.4929 181.8216,45.0099 180.3276,43.5189 C175.5866,44.7639 168.6386,45.0099 165.3926,43.2689 C164.1446,42.5229 163.4056,40.7859 161.9076,40.0409 C161.4146,39.6659 160.6636,39.8859 159.9206,40.0409 C159.0026,39.5939 158.0696,39.1819 157.2656,38.8829 C157.0036,38.3869 156.8936,37.9069 156.8486,37.5579 C155.4566,37.7249 153.7876,37.5659 151.4596,37.0619 C151.4256,36.9979 151.4066,36.9519 151.3766,36.8949 C150.8076,37.0919 150.2726,37.3449 149.9656,37.8069 C149.4646,38.3029 150.7126,40.0399 149.9656,40.0399 C147.9706,40.0399 142.4216,34.7409 140.4236,34.2459 C140.6736,33.9959 140.9206,33.4999 140.9206,33.2539 C140.7496,32.9129 140.5146,32.5949 140.2566,32.3419 C137.7116,32.7359 136.6536,31.8009 134.8676,32.7549 C132.7736,33.8679 131.5116,34.0079 132.6266,32.7549 C133.7416,31.5019 132.7366,31.2109 129.3916,31.3469 C129.2966,31.0289 129.2856,30.8019 129.2246,30.5179 C128.7236,30.7719 128.7276,31.7589 128.2306,32.0129 C119.9966,34.4999 103.7676,26.5549 97.5326,22.3239 C96.7856,21.8239 95.2916,23.5649 94.7946,22.8199 C94.2936,22.5739 95.7916,21.8279 95.2916,21.3289 C93.7936,19.8379 90.8166,21.3329 89.3186,20.0879 C87.8206,18.8429 87.5816,15.8679 85.8366,15.3679 C83.8376,14.8679 82.1046,17.3589 80.1096,17.3589 C78.6156,17.3589 77.7926,15.8679 76.2946,15.3679 C74.7966,15.1219 71.5686,15.8679 69.8206,15.6179 C62.8346,14.6229 66.6046,14.3799 59.6186,12.6389 C59.2166,12.5559 58.9166,12.7979 58.6216,13.1309 C55.4816,12.6279 53.7516,12.3359 52.3186,11.0649 C49.9936,7.1249 48.7306,1.6259 44.1036,1.6259 C42.1086,1.6259 40.8726,5.1869 38.8776,4.9379 C37.6296,4.6879 40.1256,1.6259 39.1276,0.8809 C38.5596,0.5039 38.0446,0.4399 37.4606,0.5459 M303.7766,167.5349 C302.8926,167.5539 301.8236,167.6709 300.5416,167.8679 C298.1746,168.2619 298.5736,168.4959 298.9636,170.2679 C299.3616,172.0429 299.3576,172.8159 302.1156,172.4219 C304.8806,172.0279 304.3346,174.3569 307.0956,175.7339 C309.8566,177.1149 310.8096,176.8969 310.4146,173.7469 C310.0216,170.5979 308.7986,170.6549 308.0096,169.2769 C307.4176,168.2429 306.4196,167.4939 303.7766,167.5349 M284.0316,169.2759 C283.4476,169.2909 282.5596,169.3629 281.3726,169.6059 C276.6396,170.5929 274.5046,170.6189 272.3346,172.5869 C270.1616,174.5549 266.7896,176.1669 263.0386,178.1319 C260.2776,178.1319 262.4776,181.4439 264.4536,183.0179 C266.4216,184.5919 266.5966,183.5969 267.1886,182.0239 C267.7796,180.4489 268.8146,179.8389 270.5896,181.6099 C272.3646,183.3849 270.3506,186.3599 271.3366,187.7369 C272.3226,189.1149 275.2776,187.5289 276.0656,189.8909 C276.8556,192.2529 277.0706,192.7069 279.6306,191.1319 C282.1946,189.5579 282.4216,189.5539 284.1966,186.9919 C285.9676,184.4339 288.3506,182.0379 289.3396,179.8729 C290.3256,177.7079 287.4966,174.3359 287.0986,175.3199 C286.7046,176.3039 285.3696,178.4759 283.1996,176.3159 C281.0306,174.1469 283.6126,174.1609 283.6126,172.5869 C283.6126,171.0129 282.6266,173.6129 282.0386,171.8409 C281.4466,170.0699 282.0046,171.3869 283.7796,170.5999 C285.1126,170.0099 285.7796,169.2319 284.0316,169.2759 M239.8096,191.6329 C238.6876,191.6329 237.0906,192.6359 234.4996,193.8619 C232.7246,195.8339 232.6566,194.8689 233.8356,195.8529 C235.0226,196.8369 232.2916,195.5989 232.0946,197.1739 C231.9016,198.7479 232.4666,199.1529 233.2556,199.7439 C234.0446,200.3339 237.0326,201.3369 236.2446,200.1569 C235.4556,198.9759 237.8296,199.1349 238.8156,197.7569 C239.8016,196.3759 242.3736,195.2359 241.3866,192.8749 C241.0206,191.9849 240.4846,191.6329 239.8096,191.6329 M235.4136,204.0499 C233.4416,204.4409 234.0326,208.6369 235.4136,206.8619 C236.7976,205.0909 236.8206,207.4299 238.3986,208.0249 C239.9766,208.6139 241.9716,205.4659 238.8156,206.4499 C235.6596,207.4339 238.7666,204.4409 235.4136,204.0499 M48.5806,265.4759 C46.0436,265.7749 42.9336,267.7169 42.6036,267.8789 L44.3486,275.0809 L49.9086,275.0809 C49.9086,274.3349 49.6586,273.8399 49.6586,273.0939 C49.4086,271.5989 48.9116,270.1189 49.4086,268.6239 C49.6586,267.8749 51.9006,267.6319 51.6496,266.8829 C51.2776,266.0129 50.5306,265.5699 49.6586,265.4749 C49.3316,265.4419 48.9406,265.4349 48.5806,265.4759 M110.7186,293.2979 C109.9826,292.9309 108.2946,296.9279 106.9866,298.0179 L110.7186,300.4999 C110.7186,298.2559 111.2156,295.7839 110.9686,293.7929 C110.9046,293.5439 110.8256,293.3469 110.7186,293.2979 M111.8796,299.2589 C111.7886,299.3199 111.7126,299.5049 111.7126,299.7549 L111.7126,300.0009 L112.2136,299.2589 C112.0886,299.2589 111.9706,299.1939 111.8796,299.2589" id="Stroke-3" stroke="#E75F52" stroke-linecap="round" stroke-linejoin="round"></path>
        </g>
    </g>
</svg>