<?xml version="1.0" encoding="UTF-8"?>
<svg width="400px" height="252px" viewBox="0 0 400 252" version="1.1" xmlns="http://www.w3.org/2000/svg" xmlns:xlink="http://www.w3.org/1999/xlink">
    <!-- Generator: Sketch 64 (93537) - https://sketch.com -->
    <title>207</title>
    <desc>Created with Sketch.</desc>
    <g id="207" stroke="none" stroke-width="1" fill="none" fill-rule="evenodd">
        <g id="Group-13" transform="translate(-1.000000, 0.000000)">
            <path d="M346.9834,114.2319 L347.0724,113.9429 L348.9604,113.9159 L350.3044,114.3409 L351.2244,114.4829 L351.6504,113.5619 L351.0124,112.6419 L351.0124,111.8629 L349.9514,110.9419 L349.0314,108.5359 L349.5974,106.1989 L349.5264,105.2789 L348.9604,104.7119 C348.9604,104.7119 349.5974,104.0039 349.5974,103.7209 C349.5974,103.4379 349.8084,102.8009 349.8084,102.8009 L350.6594,102.2339 L351.5084,101.5259 L351.7204,101.9509 L351.0844,102.6589 L350.5164,104.2879 L350.6594,104.7829 L351.4374,104.9249 L351.6504,107.3319 L350.7294,107.7569 L350.8714,109.3149 L351.0844,109.2439 L351.5794,108.3939 L352.2874,109.1729 L351.5794,109.7389 L351.4374,111.2259 L352.5704,112.7119 L354.2694,112.9249 L354.9764,112.5709 L356.3954,114.4029 L356.9904,114.6379 L357.2964,114.7729 L357.3584,115.6259 L357.0224,116.9819 L356.3274,118.8139 L356.1324,121.1999 L356.7764,123.2329 L357.7234,122.3939 L358.5244,120.2129 L358.3224,118.7289 L358.5054,116.7209 L359.7844,115.0659 L360.1224,113.6559 L359.9044,113.4129 L360.7834,111.6499 L360.8824,109.5209 L360.7834,109.2079 L359.7924,105.9869 L359.3674,106.1989 L357.8084,105.1369 L357.0314,103.0839 L356.1814,101.5259 L355.1904,101.1019 L354.2694,99.5449 L354.4884,98.6239 L354.7124,98.8449 L355.1904,99.8279 L356.6064,101.1019 L358.7294,102.0929 L360.5004,102.3759 L360.5704,103.0129 L360.2164,103.4379 L360.3584,104.6419 L360.7124,104.6419 L361.6324,103.5799 L361.9864,101.4559 L363.1904,99.6859 L364.5354,96.8539 L365.0314,94.4469 L364.7484,93.9509 L364.6764,89.8449 L363.9684,88.3579 L363.4734,88.7119 L362.2694,88.8539 L362.0564,88.6419 L362.5524,88.2169 L363.4734,87.3669 L363.5014,86.8879 L363.7374,86.8509 L364.2524,87.0839 L366.0214,86.5879 L368.5704,85.7389 L369.7034,85.3149 L372.8184,82.9779 L374.5164,81.7039 L376.0044,80.1459 L374.1634,79.4379 L373.5964,80.0749 L372.3234,81.2789 L368.8534,82.9779 L367.8624,82.9069 L367.1544,82.6239 L366.6594,82.9069 L365.6684,84.0399 L365.0314,84.6069 L364.4644,84.7479 L364.3234,84.1819 L365.1724,83.4029 L364.8234,82.6679 L365.2664,82.7689 L367.4374,81.2789 L368.9954,79.8629 L369.8444,78.9419 L370.1994,79.2259 L371.4024,78.5879 L373.6684,78.0929 L376.7534,76.5639 L377.1364,76.4649 L378.4114,76.0399 L379.4734,75.1909 L379.9684,74.4119 L380.5354,74.4829 L381.8084,73.8099 L382.0374,73.6459 L382.9424,73.2079 L382.7294,72.2169 L383.0844,71.5799 L384.3584,70.9419 L384.7124,72.2879 L384.5004,73.0659 L383.4374,73.7039 L383.4374,74.1289 L384.2874,73.4909 L385.9864,71.5089 L387.6844,70.6589 L389.5264,70.0219 L389.3844,68.9609 L388.9604,67.6859 L388.1104,66.6239 L387.3324,66.2699 L386.4114,66.3409 L386.1994,66.5529 L386.6244,67.1199 L387.2604,66.7659 L388.1814,67.4739 L388.5354,68.6769 L387.7564,69.4559 L386.7654,69.8799 L385.2084,69.6679 L383.5084,67.0489 L382.5164,65.9159 L381.7384,65.9159 L381.2434,66.2699 L380.3924,65.1369 L380.5354,64.4999 L381.5964,62.2339 L380.3324,60.3019 L380.0844,60.0869 L380.4644,59.6149 L380.9414,58.1739 L381.1054,57.6839 L381.5964,54.9419 L381.6684,53.0309 L382.3044,52.4649 L381.8794,51.0489 L383.2244,49.4909 L383.9324,50.1289 L384.5004,49.9159 L386.8364,48.5709 L386.9764,47.2959 L388.2524,47.0839 L388.9604,45.9509 L388.8894,45.2439 L388.7484,43.8989 L389.1004,43.3319 L388.9604,42.8369 L388.3924,42.1989 L389.3144,41.6329 L390.0924,43.0489 L390.7284,42.9069 L390.8714,43.4739 L390.8714,44.1819 L391.7204,44.2529 L391.9324,43.0489 L392.1444,42.7659 L391.4364,42.1289 L391.8624,41.4909 L392.9244,40.8539 L393.3484,40.2169 L394.1284,40.1459 C394.1284,40.1459 394.2684,41.0659 394.5524,41.0659 L395.1194,41.0659 L397.2434,38.6589 L398.7284,37.3149 L399.5794,37.0309 L400.5004,34.9779 L400.5004,34.1289 L399.5084,32.4999 L398.6594,31.5799 L397.4564,31.6499 L397.6684,32.1459 L397.5964,32.3579 L397.2434,32.3579 L395.9684,31.3669 L395.8984,29.2439 L395.5444,28.3939 L392.9244,28.3939 L388.9604,15.2959 L388.1104,14.8719 L385.4914,13.8099 L384.8524,13.7389 L384.0754,14.5179 L382.3044,15.7919 L382.3044,16.2169 L381.9514,16.5709 L380.7484,16.2879 L380.1814,15.2959 L380.1814,14.8009 L379.6154,14.7299 L379.0484,14.7299 L378.1284,16.5709 L376.8524,20.4649 L376.0754,22.5879 L376.1444,24.7119 L376.2164,25.3499 L375.8624,26.5529 L375.5084,26.9779 L375.5084,29.5969 L376.3584,30.6589 L375.7204,32.4289 L374.5874,34.4829 L374.2344,36.8899 L374.2344,38.0219 L373.5714,37.8429 L372.9494,37.8949 L372.5744,38.0949 L372.1814,38.0929 L371.8984,38.8009 L371.6154,38.5879 L371.1904,38.1639 L370.5524,39.0129 L370.5314,41.2169 L370.1294,41.3489 L358.6334,44.3039 L358.3614,44.4779 L355.0484,45.3849 L353.0664,46.0219 L351.6504,45.9509 L349.2434,46.5179 L347.8924,47.0639 L346.8364,47.8629 L345.9164,48.9249 L344.7124,50.5529 L343.4364,52.5359 L342.8004,53.8099 L342.5164,54.1639 L339.9684,56.5709 L340.0404,57.7039 L340.3924,58.1989 L341.1724,58.5529 L341.9514,58.5529 L341.9514,59.1909 L341.4564,60.1109 L341.5974,60.7479 L342.2344,61.6679 L342.1634,62.6589 L341.3144,63.1549 L340.3924,63.1549 L339.6844,64.0039 L338.9074,65.4199 L337.9864,66.1989 L335.7204,66.4119 L334.5874,66.9069 L333.6684,67.4739 L332.9604,67.4029 L332.1104,66.8369 L329.3484,66.9069 L327.9324,67.1199 L326.1634,67.6859 L324.2524,68.3229 L322.9764,69.1019 L323.8274,71.7919 L324.6054,71.8629 L325.1724,73.2079 L325.2434,73.6329 L324.7484,74.0579 L323.8274,75.2609 L323.6154,75.9689 L322.7654,76.7479 L321.9864,77.2439 L321.5604,77.9509 L320.9954,78.4469 L320.3704,78.9399 L319.9294,79.1669 L317.5264,81.6329 L316.9604,81.8449 L315.1204,83.1629 L314.6724,83.1139 L312.0044,84.8899 L310.3044,85.8799 L308.8184,87.5089 L307.0484,89.2079 L305.6324,89.5619 L304.3584,89.7749 L301.9514,90.9069 L301.0314,90.9779 L299.5444,89.6329 L297.2784,89.9159 L296.1444,89.2789 L295.1024,88.6869 L294.5984,88.5449 L294.6594,88.2879 L294.7284,87.6499 L295.6504,86.0219 L296.5264,85.2609 L296.4284,83.0489 L297.1284,82.3489 L297.6064,82.1989 L297.7034,80.6419 L298.3764,79.3149 L298.8364,79.5799 L298.9074,79.8629 L299.2604,79.9339 L300.1104,79.5089 L299.9684,75.3319 L298.5524,71.7209 L297.5604,67.7569 L296.5004,66.3409 L295.3674,65.5619 L294.6594,66.0579 L292.9604,66.8369 L292.1104,69.0309 L290.9074,70.6589 L290.4114,70.9419 L289.7744,70.6589 C289.7744,70.6589 288.6404,70.0219 288.7124,69.7389 C288.7834,69.4559 288.9244,67.5449 288.9244,67.5449 L290.4114,66.9779 L290.7654,65.4909 L291.0484,64.3579 L292.1104,63.6499 L291.9684,59.2609 L291.2604,58.2699 L290.6944,57.9159 L290.3404,56.9959 L290.6944,56.6419 L291.4024,56.7829 L291.4734,56.0749 L290.4114,55.0839 L289.8444,53.9509 L288.7124,53.9509 L286.7284,53.3149 L284.3234,51.8279 L283.1194,51.8279 L282.8364,52.1109 L282.4114,51.8989 L281.0664,50.9069 L279.7924,51.6859 L278.5164,52.6769 L278.6594,54.2339 L279.0844,54.3759 L280.0044,54.5879 L280.2164,54.9419 L279.0844,55.2959 L277.9514,55.4379 L277.3144,56.2169 L277.1724,57.1369 L277.3144,57.8449 L277.4564,60.2529 L275.8984,61.1729 L275.6154,61.1019 L275.6154,59.2609 L276.1814,58.1989 L276.4644,57.1369 L276.1104,56.7829 L275.2604,57.1369 L274.8364,58.9779 L273.6324,59.4739 L272.8534,60.3229 L272.7834,60.7479 L273.0664,61.1019 L272.7834,62.2339 L271.7924,62.4469 L271.7924,62.9419 L272.1444,64.0039 L271.6504,66.6949 L270.9424,68.4649 L271.2244,70.5179 L271.4374,71.0129 L271.0844,72.0749 L270.9424,72.4289 L270.8004,73.6329 L272.3584,76.2529 L273.6324,79.0839 L274.2684,81.2079 L273.9164,83.2609 L273.4914,85.8799 L272.4284,88.1459 L272.2874,89.3499 L270.8604,90.7009 L270.4114,91.0479 L269.1724,91.7569 L268.2524,92.6069 L267.7564,92.7479 L267.1194,92.3229 L265.7744,91.9339 L265.3974,92.0189 L265.2784,91.6149 L264.9244,90.4829 L264.3584,88.8539 L263.6504,88.0749 L263.0124,86.9419 L262.9114,84.5389 L262.7804,84.0659 L262.9424,82.7659 L262.2344,80.7829 L261.9514,78.0929 L261.4564,77.0309 L261.8794,75.6859 L262.2344,74.4119 L262.8714,73.2789 L262.5874,71.7919 L262.3044,70.2339 L262.5164,69.4559 L263.3674,68.3939 L263.4374,67.1909 L263.0844,66.6239 L263.3674,65.4909 L263.5794,64.0749 L264.7834,61.5969 L266.0564,58.6239 L266.1284,57.6329 L265.9864,57.2079 L265.6324,57.4199 L263.7924,60.1819 L262.5874,61.9509 L261.7384,62.7299 L261.3844,63.7209 L260.7484,64.0749 L260.2524,64.9249 L259.6154,64.7829 L259.5444,64.0039 L260.1104,62.9419 L261.0314,60.8899 L261.8084,60.1819 L262.2924,59.1779 L262.5404,58.7869 L263.9324,55.7209 L264.3584,53.9509 L265.2084,52.0399 L265.5614,51.9689 L266.0564,52.6769 L266.3404,52.6769 L268.3234,51.6149 L268.9604,52.3229 L269.1724,52.3939 L269.7384,51.8989 L270.2344,50.5529 L271.2954,50.1989 L274.3404,49.9159 L275.1904,48.7829 L277.4564,48.7119 L280.0044,49.2789 L280.7834,49.2789 L282.1994,48.6419 L283.1904,48.7119 L284.1104,48.4289 L285.7394,48.6419 L286.0924,48.7829 L286.6594,48.6419 L286.0924,48.2169 L285.5264,47.9339 L284.1104,46.5879 L284.1104,43.5449 L283.4744,43.3319 L282.9774,43.8279 L280.2874,44.5359 L279.4374,44.7479 L278.1634,44.3939 L277.9514,44.2529 L277.9514,41.7749 L277.3144,41.7039 L276.1814,42.2699 L274.1994,43.1199 L271.2954,43.2609 L269.8094,43.7569 L268.0404,45.3149 L267.3324,45.7389 L266.8364,45.7389 L266.2694,46.0929 L265.5614,45.8799 L264.8534,45.3149 L264.2164,45.7389 L262.5174,45.8099 L261.3144,44.6069 L260.6764,43.2609 L260.0404,42.7659 L258.6244,42.3409 L257.6324,42.3409 L257.0664,41.7749 L255.5084,43.0489 L255.0844,43.5449 L254.7294,43.3319 L254.8714,42.1989 L255.9334,40.7829 L256.1454,39.7209 L257.1364,39.3669 L257.7744,38.0219 L259.4024,37.5969 L259.5444,37.1729 L259.0484,36.6769 L256.9954,36.8899 L255.0844,37.9509 L254.0924,38.9419 L253.5264,39.7209 L252.7484,40.0749 L251.8984,41.3499 L251.8274,41.9159 L249.9164,42.8369 L248.8534,43.6859 L246.2344,44.1109 L245.9514,44.3939 L245.9514,44.8189 L244.3934,45.8099 L243.1904,46.1639 L242.8764,46.4179 L242.4304,46.6029 L242.1994,47.1549 L241.7034,47.0839 L241.4204,46.5879 L240.2164,46.2339 L239.7204,46.3049 L238.9424,46.7299 L238.5174,46.4469 L238.8004,45.5969 L239.6504,44.2529 L240.1454,43.7569 L239.2954,43.1199 L238.3764,43.4739 L237.1014,44.3229 L233.8444,45.7389 L232.5704,46.0219 L231.2954,45.8099 L230.8664,45.4249 L230.6754,45.1829 L232.3584,43.8989 L232.9244,43.8279 L234.9074,41.6329 L235.6854,41.2789 L236.6764,39.5799 L237.7384,38.0219 L239.0844,36.8899 L241.1744,36.0109 L245.2234,34.2319 L246.9494,33.4279 L247.2164,32.4289 L245.2724,32.5919 L244.9604,33.0659 L244.6764,33.0659 L243.8984,31.7209 L240.0044,31.8629 L239.5794,32.2169 L239.1544,32.2169 L238.9424,31.6499 L238.5874,30.8719 L237.4564,31.0839 L236.0404,32.4999 L235.3324,32.8539 L233.9864,32.8539 L232.8524,32.4289 L232.8524,31.5089 L232.2874,31.4379 L232.0754,31.6499 L230.9424,31.0839 L230.7294,29.8099 L230.0924,30.0219 L229.8794,30.4469 L228.8184,30.2339 L226.4824,29.1729 L224.7834,28.0399 L223.5084,28.0399 L222.9424,27.6149 L221.9514,27.8989 L221.4564,28.3939 L221.3144,28.9609 L219.1904,28.9609 L219.1904,28.0399 L216.4284,27.8989 L216.2874,27.2609 L214.1634,27.2609 L213.4564,26.5529 L212.8184,23.8629 L212.4644,21.4559 L211.6154,21.1019 L210.6244,20.8899 L210.3404,20.9609 L210.1994,24.5709 L197.0034,24.5549 L196.5224,24.5349 L184.0754,24.2879 L175.9334,24.0039 L164.3234,23.4379 L153.3984,22.6129 L152.8364,22.4019 L139.4014,21.1729 L126.5874,19.6149 L113.7744,17.8449 L99.6154,15.5089 L91.5444,14.0219 L77.2124,10.9859 L76.7224,10.9159 L71.0294,9.8089 L70.7144,9.6329 L64.0754,8.1459 L54.0214,5.6679 L45.2434,3.1909 L41.4914,2.3409 L37.2434,1.1369 L35.3324,0.4999 L34.8364,0.8539 L34.6934,1.2079 L35.7564,3.3319 L36.2524,4.4649 L35.4744,6.0219 L35.4744,7.0129 L35.7564,7.6499 L35.4014,8.4289 L35.6154,9.8449 L36.0404,10.4119 L35.9694,10.9779 L35.3324,11.0489 L35.0484,10.1989 L34.5534,9.1369 L33.7744,8.4999 L33.9164,7.5799 L34.9074,7.3669 L34.7664,6.5879 L34.6244,6.0929 L33.7034,6.6589 L33.1374,7.1549 L33.1374,8.2169 L32.1454,8.2879 L30.6594,7.8629 L29.3844,7.2259 L28.0404,6.9419 L26.0574,6.0219 L24.6414,5.1729 L23.4374,4.0399 L22.3764,2.7659 L21.4564,2.5529 L20.4644,6.6589 L21.2434,8.0749 L21.2434,11.5449 L20.9604,12.8189 L21.5984,15.9339 L22.8004,17.1369 L20.8904,17.4199 L20.8174,19.0489 L21.9514,19.5449 L21.2434,21.3149 L20.0404,21.4559 L19.8984,22.7299 L20.8904,24.0039 L19.9694,25.1369 L18.9774,27.9689 L17.5614,32.3579 L16.1454,35.1909 L13.9514,41.3499 L11.1194,47.2959 L7.5794,52.8189 L6.7294,54.0929 L6.3764,57.8449 L5.8094,60.4649 L6.9954,62.0089 L6.7854,62.4309 L6.0924,64.4999 L6.0214,67.7569 L3.7564,72.9249 L2.4114,74.0579 L2.2694,74.5529 L1.4914,74.9069 L0.8534,76.7479 L0.5004,78.1639 L1.7034,80.0039 L2.4114,81.8449 L2.9074,83.4029 L2.7664,86.2339 L1.9854,87.5799 L1.7034,90.1289 L1.2774,91.7569 L2.0584,93.4559 L3.2614,95.4379 L4.2524,97.5619 L4.8174,99.3319 L4.6764,100.7479 L4.5354,100.9609 L4.5354,101.8799 L7.0134,104.6419 L6.8004,105.7039 L6.5174,106.6949 L6.2334,107.5449 L6.3054,111.1549 L7.2254,112.7829 L8.0754,113.9159 L9.2774,114.1289 L9.7034,115.3319 L9.2084,116.8899 L8.2874,117.5969 L7.7924,117.5969 L7.4374,119.2959 L7.6504,120.5709 L9.0664,122.4829 L9.7744,124.8189 L10.4114,126.8719 L10.9774,128.2169 L12.4644,130.7659 L13.1014,131.8989 L13.3144,133.1729 L14.0214,133.5969 L14.0214,134.6589 L13.6684,135.5089 L12.8904,138.6239 L12.6764,139.4739 L13.7384,140.6769 L15.5794,140.8899 L17.5614,141.6679 L19.2614,142.5879 L20.5354,142.5879 L21.8094,143.9339 L22.9414,146.0579 L23.4374,147.0489 L25.1374,147.9689 L27.2614,148.3229 L27.8984,149.2439 L28.1824,150.6589 L27.5444,150.9419 L27.6854,151.3669 L29.1014,151.7209 L30.3054,151.7919 L31.5794,153.8449 L33.2774,155.6859 L33.6324,156.6769 L34.7664,158.5179 L34.9074,159.9339 L34.9074,164.0399 L35.1194,164.8189 L39.5084,165.4559 L48.1454,166.6589 L54.2354,167.0869 L54.6774,167.4129 L53.5254,168.3579 L53.3844,168.9959 L53.5984,169.4199 L61.8794,174.0929 L67.1904,177.4199 L73.6324,181.1729 L80.9954,185.5629 L86.3764,186.6239 L97.3794,187.8089 L98.0834,188.1599 L104.8534,189.0309 L105.4204,184.6419 L112.7124,185.7739 L118.1674,186.4829 L118.5874,186.4819 L119.4374,186.6949 L120.5694,187.9689 L121.2084,189.8799 L123.2614,190.8719 L123.8274,192.2879 L126.9414,195.7569 L127.5084,196.4649 L129.7034,197.3849 L130.1994,198.3049 L130.9074,198.7309 L131.1194,199.9339 L132.5354,202.7659 L132.5354,206.3049 L133.5254,208.3579 L136.7834,211.7569 L139.0484,212.6769 L139.8274,213.5259 L139.8274,213.8099 L141.5254,214.8009 L142.3764,215.0839 L143.1534,215.5799 L144.2874,216.0039 L145.3494,214.9419 L147.2614,212.2529 L147.6854,210.6239 L148.6774,209.2079 L150.2334,208.5709 L152.2164,207.7919 L153.5614,208.7829 L156.8174,209.0659 L159.7924,209.5619 L160.9244,210.4819 L160.9244,210.9779 L162.0574,212.3229 L164.6774,214.6589 L164.7484,215.2959 L165.5254,216.1459 L165.8794,217.9869 L168.2164,223.3669 L168.1454,224.2169 L169.9854,225.3499 L171.5444,228.2529 L173.0314,230.1639 L174.4454,230.7309 L175.1534,231.7209 L174.5874,233.6329 L174.8714,234.0579 L175.4374,234.3409 L175.2964,235.8279 L175.0134,236.1109 L175.2964,237.1019 L176.7124,237.9509 L177.2774,240.7829 L178.1994,242.4819 L181.5254,243.9689 L183.7924,244.4649 L185.6324,245.8099 L187.0484,246.0929 L187.6154,245.8799 L190.0214,246.3759 L192.5004,248.0749 L193.8454,247.2259 L194.2694,246.5879 L193.4914,245.3849 L193.0664,242.6949 L192.2874,239.6499 L191.9334,238.5879 L192.2874,236.6069 L192.7834,234.9069 L193.3494,232.9249 L193.9854,230.5179 L192.9954,229.6679 L193.4204,228.8189 L195.1904,228.6769 L196.8904,226.2699 L198.3764,225.9869 L200.9244,224.4289 L201.7034,223.7919 L204.4644,222.3049 L206.9424,221.2439 L209.2784,219.8279 L210.4824,218.9069 L212.9604,216.5709 L213.5264,216.2169 L214.4464,215.5799 L215.5794,214.7309 L216.0044,213.8799 L220.3234,211.8989 L222.8034,211.2039 L223.0854,211.1489 L225.1364,210.4819 L228.6764,210.3409 L233.2084,211.8989 L236.0404,212.3939 L237.6684,211.7569 L239.0844,212.2529 L240.5004,212.6769 L240.8524,211.7569 L239.4364,211.2609 L238.3044,211.4739 L237.1004,210.7659 C237.1004,210.7659 237.1724,210.1989 237.4564,210.1279 C237.7384,210.0579 238.8004,209.7039 238.8004,209.7039 L239.5794,210.3409 L240.3584,209.9159 L241.7744,210.1989 L242.4114,211.2609 L242.5524,212.2529 L244.5354,212.3939 L245.3144,213.1729 L244.9604,213.8799 L244.3924,214.2339 L245.1004,214.9419 L248.7834,216.4999 L250.3404,215.9339 L250.7654,214.8719 L251.8984,214.5879 L252.6764,213.9509 L253.2434,214.3759 L253.5974,215.6499 L252.6064,216.0039 L252.8894,216.2879 L254.3764,215.7209 L255.3674,214.2339 L255.7204,214.0229 L254.8004,213.8799 L255.1544,213.1729 L255.0844,212.5359 L256.0044,212.3229 L256.5004,211.7569 L256.7834,212.1109 C256.7834,212.1109 256.7124,213.4559 257.0664,213.4559 C257.4204,213.4559 258.9074,213.7389 258.9074,213.7389 L260.6764,214.5879 L261.1004,215.2259 L262.3764,215.2259 L262.8714,215.6499 L263.8624,214.3049 L263.8624,213.6679 L263.2954,213.6679 L261.8084,212.4649 L259.2604,212.1109 L257.8444,211.1199 L258.3404,209.9159 L259.3324,210.0579 L259.4024,209.7739 L258.6244,209.3499 L258.6244,209.1369 L260.0404,209.1369 L260.8184,207.7919 L260.2524,206.9419 L260.1104,205.7389 L259.4734,205.8099 L258.6244,206.7309 L258.3404,207.8629 L256.9954,207.5799 L256.5704,206.8009 L257.3484,205.9509 L258.2344,205.1729 L258.5644,204.9469 L259.0484,204.6069 L260.1814,202.7659 L260.9604,203.1199 L263.9324,202.2699 L264.8524,202.4119 L265.4914,202.7659 L267.7564,202.7659 L267.8684,202.2149 L268.3234,202.1279 L269.5264,202.1279 L269.8084,202.1989 L270.3764,200.9959 L271.0124,199.0839 L272.0044,199.3669 L273.3484,201.9869 L273.3484,202.4119 L272.1444,203.2609 L273.3484,203.4029 L275.7764,202.2759 L276.0734,202.3259 L277.5964,202.0579 L280.2164,201.1369 L282.8364,200.9249 L284.7484,200.6419 L288.0754,201.4199 L291.6154,203.1199 L292.3234,203.7569 L293.5964,204.2529 L294.3044,205.1019 L294.4464,206.3049 L295.8624,205.7389 L297.5604,205.7389 L299.1194,204.8899 L300.7484,203.3319 L302.0924,203.4029 L302.3044,202.9069 L301.9514,202.4819 L302.0204,201.6329 L303.7924,201.2789 L304.9244,201.2789 L306.1994,201.9159 L308.0404,202.5529 L309.1004,204.1819 L310.3044,204.6069 L310.8004,206.0929 L312.2874,206.8009 L312.9954,207.9339 L313.8444,208.2169 L316.1104,208.7829 L316.6764,210.1279 L318.0204,211.7569 L318.0204,215.9339 L317.3844,217.9869 L317.5254,219.1909 L318.0924,221.3149 L318.8714,223.0839 L319.2244,222.8719 L319.8624,220.8899 L318.7284,220.4649 L318.5874,220.1819 L319.2964,219.8989 L321.2784,220.3229 L321.3484,221.0309 L319.9324,223.4379 L319.0124,224.4999 L320.5704,226.1279 L321.7034,227.4739 L322.9764,229.8099 L324.2524,231.5089 L325.1724,233.7039 L325.9514,233.8449 L326.6594,232.9249 L327.4364,233.4199 L328.5704,235.1909 L328.8524,236.7479 L330.1994,238.6589 L330.5524,238.0929 L332.2524,238.2339 L333.8084,239.2259 L335.2954,241.4909 L335.6504,242.9779 L335.7924,244.2529 L336.2874,244.6769 L336.8524,244.8899 L337.9164,244.4649 L338.5524,243.7569 L340.2524,243.6859 L341.5974,243.0489 L342.8004,241.6329 L342.5874,240.7829 L342.4464,239.7209 L342.7284,238.8719 L342.5874,238.0219 L343.6504,237.4559 L343.7924,235.9689 L343.5084,235.1909 L343.2954,229.9509 L342.7284,226.6239 L340.7484,223.0129 L339.1894,220.4649 L338.0564,218.1279 L336.7834,216.8539 L335.5084,213.5969 L335.8624,213.0309 L336.3584,212.4649 L335.6504,211.1909 L333.8794,209.5619 L331.7564,207.1549 L330.1284,204.3939 L327.7924,200.2879 L326.1584,196.0209 L325.1664,192.8159 L325.1584,192.4269 L324.8184,189.6679 L325.8084,185.2789 L326.4464,183.4379 L326.2344,182.3049 L327.6944,179.5709 L327.4704,178.9789 L327.7204,178.5529 L328.6404,177.9869 L330.8364,175.5799 L330.4114,174.1639 L331.6844,174.0929 L333.2434,172.6069 L333.9514,172.2529 L334.9424,170.7659 L336.1444,169.5619 L337.0664,168.0039 L338.1284,167.7209 L338.6244,166.5179 L339.3324,166.1639 L339.5444,163.4029 L340.6764,160.7119 L343.0504,158.3219 L343.1734,157.9699 L345.5604,157.3849 L347.6154,157.1729 L347.8274,156.1109 L348.6764,153.2789 L350.1634,151.2259 L352.9954,148.8899 L355.2604,147.8279 L356.4644,147.5449 L356.9604,147.7569 L357.5264,147.7569 L358.8714,145.6329 L359.7204,144.0749 L359.1544,144.2879 L358.1634,145.2789 L357.8794,144.5709 L356.0404,144.5709 L356.8894,141.8099 L356.5354,141.2439 L355.6844,141.2439 L355.6844,140.8189 L355.5444,140.2529 L356.2524,140.8189 L356.8894,140.8899 L357.9514,141.0309 L359.5794,140.3229 L360.1454,139.0489 L360.4284,138.1279 L361.5604,137.5619 L361.7034,135.7209 L361.3484,135.4379 L362.4114,135.3669 L362.1284,134.3759 L361.0664,133.3149 L359.5084,130.4819 L358.7594,128.4249 L358.3564,128.0199 L356.7774,125.3869 L354.2364,126.1249 L353.5474,125.4709 L354.6664,124.8659 L354.4504,123.7599 L353.6734,122.9789 L353.6214,122.3599 L352.6224,121.6849 L352.5834,120.9769 L353.7624,121.0189 L353.8594,120.4119 L353.3214,120.0659 L353.5314,119.2209 L352.9284,118.7379 L353.1224,116.6839 L352.7414,116.1589 L351.3444,115.9829 L350.4014,115.0679 L348.2754,114.6549 L346.9834,114.2319 Z M330.6604,250.8009 L331.7224,250.5179 L332.2894,250.4109 L332.9254,249.3849 L333.9524,248.6769 L334.5174,248.8889 L335.2614,249.0309 L335.4394,249.4909 L333.9174,250.0229 L332.0764,250.6589 L331.0494,251.1899 L330.6604,250.8009 Z M336.5724,248.6069 L337.1014,249.0659 L338.3064,248.1469 L340.6414,246.3049 L342.2694,244.6069 L343.3684,241.7029 L343.7934,240.9599 L343.8644,239.4729 L343.5454,239.6859 L343.1204,240.9249 L342.4834,242.9419 L341.0674,245.2429 L339.1564,247.0839 L337.6694,247.9339 L336.5724,248.6069 Z M360.4654,142.8709 L361.5984,141.7739 L362.9784,140.6409 L363.6514,140.3579 L363.7224,139.4729 L363.4394,136.7829 L362.8014,135.7559 L362.5174,134.9419 L362.8374,134.8359 L364.0414,137.2429 L364.2174,139.1899 L364.1474,140.6759 L362.6604,141.3489 L361.4214,142.4109 L360.9254,142.9419 L360.4654,142.8709 Z M388.4824,73.8489 L389.4324,73.5489 L389.6334,72.7979 L390.0854,72.8479 L390.5354,73.8489 L389.9844,74.0489 L388.2824,74.0999 L388.4824,73.8489 Z M384.3784,74.1999 L385.3794,73.0479 L386.0804,73.0479 L386.8804,73.6989 L385.8294,74.1499 L384.8784,74.5999 L384.3784,74.1999 Z M389.4924,44.7819 L390.1654,44.1099 L390.7654,44.5699 L391.0144,45.6319 L390.2714,46.0219 L389.4924,44.7819 Z M392.4304,42.1979 L393.2094,43.0119 C393.2094,43.0119 393.7754,43.0479 393.7754,42.9059 C393.7754,42.7649 393.8814,42.0209 393.8814,42.0209 L394.2714,41.6679 L393.9174,40.8889 L393.0324,41.2069 L392.4304,42.1979 Z M353.5984,113.4549 L354.0934,114.5519 L354.1654,115.3309 L354.6604,116.1459 C354.6604,116.1459 355.0494,115.7559 355.0494,115.6139 C355.0494,115.4729 354.7314,114.2689 354.7314,114.2689 L354.4134,113.2429 L353.5984,113.4549 Z M249.0634,33.6499 L249.8644,32.7499 L250.8154,32.3989 L253.1684,30.6969 L254.1694,30.4459 L254.3694,30.6469 L252.1174,32.8999 L250.6654,33.7509 L249.7634,34.1509 L249.0634,33.6499 Z M286.8014,47.7199 L287.0854,48.8179 L288.5014,48.8889 L289.0674,48.3579 C289.0674,48.3579 289.0324,47.7199 288.8904,47.6499 C288.7494,47.5789 288.1814,46.8359 288.1814,46.8359 L287.2254,46.9409 L286.5174,47.0119 L286.3774,47.5079 L286.8014,47.7199 Z M31.1904,3.1189 L32.0754,3.0479 L32.2884,3.6499 L32.9604,2.9409 L33.9854,2.9409 L34.3404,3.6139 L33.6684,4.3579 L33.9514,4.7119 L33.6324,5.5959 L33.0304,5.7739 C33.0304,5.7739 32.6414,5.8089 32.6414,5.6669 C32.6414,5.5249 33.2774,4.5339 33.2774,4.5339 L32.5354,4.2869 L32.3934,4.9239 L32.0754,5.2069 L31.4014,4.2159 L31.1904,3.1189 Z M194.5884,246.1639 L194.3404,243.0479 L193.1384,239.8989 L192.8904,236.8179 L193.5624,233.2079 L195.0144,230.1989 L196.5364,227.8269 L197.9174,226.2699 L198.2004,226.3759 L196.1104,229.2779 L194.1994,232.1469 L193.3144,235.0479 L193.1724,237.3149 L193.5624,240.0039 L194.6944,243.1549 L194.9074,245.4199 L194.9784,246.0569 L194.5884,246.1639 Z M15.7224,145.3149 L16.2874,145.9859 L16.2164,146.5529 L14.8004,146.5169 L14.5534,145.9859 L14.2694,145.3489 L15.7224,145.3149 Z M16.5694,145.3149 L17.1014,145.0299 L18.6594,145.9509 L20.0044,146.4819 L19.6154,146.7649 L17.6324,146.6589 L16.9244,145.9509 L16.5694,145.3149 Z M25.6324,153.9859 L26.4114,155.0129 L26.7664,155.4379 L27.4384,155.6859 L27.6854,155.0479 L27.2614,154.2699 L26.0924,153.3839 L25.6324,153.4549 L25.6324,153.9859 Z M24.9954,157.7739 L25.7744,159.1539 L26.3064,160.0039 L25.6684,160.1099 L25.1014,159.5789 C25.1014,159.5789 24.7834,158.9419 24.7834,158.7649 L24.7834,157.8089 L24.9954,157.7739 Z" id="Fill-1" fill="#FFFFFF"></path>
            <path d="M346.9834,114.2319 L347.0724,113.9429 L348.9604,113.9159 L350.3044,114.3409 L351.2244,114.4829 L351.6504,113.5619 L351.0124,112.6419 L351.0124,111.8629 L349.9514,110.9419 L349.0314,108.5359 L349.5974,106.1989 L349.5264,105.2789 L348.9604,104.7119 C348.9604,104.7119 349.5974,104.0039 349.5974,103.7209 C349.5974,103.4379 349.8084,102.8009 349.8084,102.8009 L350.6594,102.2339 L351.5084,101.5259 L351.7204,101.9509 L351.0844,102.6589 L350.5164,104.2879 L350.6594,104.7829 L351.4374,104.9249 L351.6504,107.3319 L350.7294,107.7569 L350.8714,109.3149 L351.0844,109.2439 L351.5794,108.3939 L352.2874,109.1729 L351.5794,109.7389 L351.4374,111.2259 L352.5704,112.7119 L354.2694,112.9249 L354.9764,112.5709 L356.3954,114.4029 L356.9904,114.6379 L357.2964,114.7729 L357.3584,115.6259 L357.0224,116.9819 L356.3274,118.8139 L356.1324,121.1999 L356.7764,123.2329 L357.7234,122.3939 L358.5244,120.2129 L358.3224,118.7289 L358.5054,116.7209 L359.7844,115.0659 L360.1224,113.6559 L359.9044,113.4129 L360.7834,111.6499 L360.8824,109.5209 L360.7834,109.2079 L359.7924,105.9869 L359.3674,106.1989 L357.8084,105.1369 L357.0314,103.0839 L356.1814,101.5259 L355.1904,101.1019 L354.2694,99.5449 L354.4884,98.6239 L354.7124,98.8449 L355.1904,99.8279 L356.6064,101.1019 L358.7294,102.0929 L360.5004,102.3759 L360.5704,103.0129 L360.2164,103.4379 L360.3584,104.6419 L360.7124,104.6419 L361.6324,103.5799 L361.9864,101.4559 L363.1904,99.6859 L364.5354,96.8539 L365.0314,94.4469 L364.7484,93.9509 L364.6764,89.8449 L363.9684,88.3579 L363.4734,88.7119 L362.2694,88.8539 L362.0564,88.6419 L362.5524,88.2169 L363.4734,87.3669 L363.5014,86.8879 L363.7374,86.8509 L364.2524,87.0839 L366.0214,86.5879 L368.5704,85.7389 L369.7034,85.3149 L372.8184,82.9779 L374.5164,81.7039 L376.0044,80.1459 L374.1634,79.4379 L373.5964,80.0749 L372.3234,81.2789 L368.8534,82.9779 L367.8624,82.9069 L367.1544,82.6239 L366.6594,82.9069 L365.6684,84.0399 L365.0314,84.6069 L364.4644,84.7479 L364.3234,84.1819 L365.1724,83.4029 L364.8234,82.6679 L365.2664,82.7689 L367.4374,81.2789 L368.9954,79.8629 L369.8444,78.9419 L370.1994,79.2259 L371.4024,78.5879 L373.6684,78.0929 L376.7534,76.5639 L377.1364,76.4649 L378.4114,76.0399 L379.4734,75.1909 L379.9684,74.4119 L380.5354,74.4829 L381.8084,73.8099 L382.0374,73.6459 L382.9424,73.2079 L382.7294,72.2169 L383.0844,71.5799 L384.3584,70.9419 L384.7124,72.2879 L384.5004,73.0659 L383.4374,73.7039 L383.4374,74.1289 L384.2874,73.4909 L385.9864,71.5089 L387.6844,70.6589 L389.5264,70.0219 L389.3844,68.9609 L388.9604,67.6859 L388.1104,66.6239 L387.3324,66.2699 L386.4114,66.3409 L386.1994,66.5529 L386.6244,67.1199 L387.2604,66.7659 L388.1814,67.4739 L388.5354,68.6769 L387.7564,69.4559 L386.7654,69.8799 L385.2084,69.6679 L383.5084,67.0489 L382.5164,65.9159 L381.7384,65.9159 L381.2434,66.2699 L380.3924,65.1369 L380.5354,64.4999 L381.5964,62.2339 L380.3324,60.3019 L380.0844,60.0869 L380.4644,59.6149 L380.9414,58.1739 L381.1054,57.6839 L381.5964,54.9419 L381.6684,53.0309 L382.3044,52.4649 L381.8794,51.0489 L383.2244,49.4909 L383.9324,50.1289 L384.5004,49.9159 L386.8364,48.5709 L386.9764,47.2959 L388.2524,47.0839 L388.9604,45.9509 L388.8894,45.2439 L388.7484,43.8989 L389.1004,43.3319 L388.9604,42.8369 L388.3924,42.1989 L389.3144,41.6329 L390.0924,43.0489 L390.7284,42.9069 L390.8714,43.4739 L390.8714,44.1819 L391.7204,44.2529 L391.9324,43.0489 L392.1444,42.7659 L391.4364,42.1289 L391.8624,41.4909 L392.9244,40.8539 L393.3484,40.2169 L394.1284,40.1459 C394.1284,40.1459 394.2684,41.0659 394.5524,41.0659 L395.1194,41.0659 L397.2434,38.6589 L398.7284,37.3149 L399.5794,37.0309 L400.5004,34.9779 L400.5004,34.1289 L399.5084,32.4999 L398.6594,31.5799 L397.4564,31.6499 L397.6684,32.1459 L397.5964,32.3579 L397.2434,32.3579 L395.9684,31.3669 L395.8984,29.2439 L395.5444,28.3939 L392.9244,28.3939 L388.9604,15.2959 L388.1104,14.8719 L385.4914,13.8099 L384.8524,13.7389 L384.0754,14.5179 L382.3044,15.7919 L382.3044,16.2169 L381.9514,16.5709 L380.7484,16.2879 L380.1814,15.2959 L380.1814,14.8009 L379.6154,14.7299 L379.0484,14.7299 L378.1284,16.5709 L376.8524,20.4649 L376.0754,22.5879 L376.1444,24.7119 L376.2164,25.3499 L375.8624,26.5529 L375.5084,26.9779 L375.5084,29.5969 L376.3584,30.6589 L375.7204,32.4289 L374.5874,34.4829 L374.2344,36.8899 L374.2344,38.0219 L373.5714,37.8429 L372.9494,37.8949 L372.5744,38.0949 L372.1814,38.0929 L371.8984,38.8009 L371.6154,38.5879 L371.1904,38.1639 L370.5524,39.0129 L370.5314,41.2169 L370.1294,41.3489 L358.6334,44.3039 L358.3614,44.4779 L355.0484,45.3849 L353.0664,46.0219 L351.6504,45.9509 L349.2434,46.5179 L347.8924,47.0639 L346.8364,47.8629 L345.9164,48.9249 L344.7124,50.5529 L343.4364,52.5359 L342.8004,53.8099 L342.5164,54.1639 L339.9684,56.5709 L340.0404,57.7039 L340.3924,58.1989 L341.1724,58.5529 L341.9514,58.5529 L341.9514,59.1909 L341.4564,60.1109 L341.5974,60.7479 L342.2344,61.6679 L342.1634,62.6589 L341.3144,63.1549 L340.3924,63.1549 L339.6844,64.0039 L338.9074,65.4199 L337.9864,66.1989 L335.7204,66.4119 L334.5874,66.9069 L333.6684,67.4739 L332.9604,67.4029 L332.1104,66.8369 L329.3484,66.9069 L327.9324,67.1199 L326.1634,67.6859 L324.2524,68.3229 L322.9764,69.1019 L323.8274,71.7919 L324.6054,71.8629 L325.1724,73.2079 L325.2434,73.6329 L324.7484,74.0579 L323.8274,75.2609 L323.6154,75.9689 L322.7654,76.7479 L321.9864,77.2439 L321.5604,77.9509 L320.9954,78.4469 L320.3704,78.9399 L319.9294,79.1669 L317.5264,81.6329 L316.9604,81.8449 L315.1204,83.1629 L314.6724,83.1139 L312.0044,84.8899 L310.3044,85.8799 L308.8184,87.5089 L307.0484,89.2079 L305.6324,89.5619 L304.3584,89.7749 L301.9514,90.9069 L301.0314,90.9779 L299.5444,89.6329 L297.2784,89.9159 L296.1444,89.2789 L295.1024,88.6869 L294.5984,88.5449 L294.6594,88.2879 L294.7284,87.6499 L295.6504,86.0219 L296.5264,85.2609 L296.4284,83.0489 L297.1284,82.3489 L297.6064,82.1989 L297.7034,80.6419 L298.3764,79.3149 L298.8364,79.5799 L298.9074,79.8629 L299.2604,79.9339 L300.1104,79.5089 L299.9684,75.3319 L298.5524,71.7209 L297.5604,67.7569 L296.5004,66.3409 L295.3674,65.5619 L294.6594,66.0579 L292.9604,66.8369 L292.1104,69.0309 L290.9074,70.6589 L290.4114,70.9419 L289.7744,70.6589 C289.7744,70.6589 288.6404,70.0219 288.7124,69.7389 C288.7834,69.4559 288.9244,67.5449 288.9244,67.5449 L290.4114,66.9779 L290.7654,65.4909 L291.0484,64.3579 L292.1104,63.6499 L291.9684,59.2609 L291.2604,58.2699 L290.6944,57.9159 L290.3404,56.9959 L290.6944,56.6419 L291.4024,56.7829 L291.4734,56.0749 L290.4114,55.0839 L289.8444,53.9509 L288.7124,53.9509 L286.7284,53.3149 L284.3234,51.8279 L283.1194,51.8279 L282.8364,52.1109 L282.4114,51.8989 L281.0664,50.9069 L279.7924,51.6859 L278.5164,52.6769 L278.6594,54.2339 L279.0844,54.3759 L280.0044,54.5879 L280.2164,54.9419 L279.0844,55.2959 L277.9514,55.4379 L277.3144,56.2169 L277.1724,57.1369 L277.3144,57.8449 L277.4564,60.2529 L275.8984,61.1729 L275.6154,61.1019 L275.6154,59.2609 L276.1814,58.1989 L276.4644,57.1369 L276.1104,56.7829 L275.2604,57.1369 L274.8364,58.9779 L273.6324,59.4739 L272.8534,60.3229 L272.7834,60.7479 L273.0664,61.1019 L272.7834,62.2339 L271.7924,62.4469 L271.7924,62.9419 L272.1444,64.0039 L271.6504,66.6949 L270.9424,68.4649 L271.2244,70.5179 L271.4374,71.0129 L271.0844,72.0749 L270.9424,72.4289 L270.8004,73.6329 L272.3584,76.2529 L273.6324,79.0839 L274.2684,81.2079 L273.9164,83.2609 L273.4914,85.8799 L272.4284,88.1459 L272.2874,89.3499 L270.8604,90.7009 L270.4114,91.0479 L269.1724,91.7569 L268.2524,92.6069 L267.7564,92.7479 L267.1194,92.3229 L265.7744,91.9339 L265.3974,92.0189 L265.2784,91.6149 L264.9244,90.4829 L264.3584,88.8539 L263.6504,88.0749 L263.0124,86.9419 L262.9114,84.5389 L262.7804,84.0659 L262.9424,82.7659 L262.2344,80.7829 L261.9514,78.0929 L261.4564,77.0309 L261.8794,75.6859 L262.2344,74.4119 L262.8714,73.2789 L262.5874,71.7919 L262.3044,70.2339 L262.5164,69.4559 L263.3674,68.3939 L263.4374,67.1909 L263.0844,66.6239 L263.3674,65.4909 L263.5794,64.0749 L264.7834,61.5969 L266.0564,58.6239 L266.1284,57.6329 L265.9864,57.2079 L265.6324,57.4199 L263.7924,60.1819 L262.5874,61.9509 L261.7384,62.7299 L261.3844,63.7209 L260.7484,64.0749 L260.2524,64.9249 L259.6154,64.7829 L259.5444,64.0039 L260.1104,62.9419 L261.0314,60.8899 L261.8084,60.1819 L262.2924,59.1779 L262.5404,58.7869 L263.9324,55.7209 L264.3584,53.9509 L265.2084,52.0399 L265.5614,51.9689 L266.0564,52.6769 L266.3404,52.6769 L268.3234,51.6149 L268.9604,52.3229 L269.1724,52.3939 L269.7384,51.8989 L270.2344,50.5529 L271.2954,50.1989 L274.3404,49.9159 L275.1904,48.7829 L277.4564,48.7119 L280.0044,49.2789 L280.7834,49.2789 L282.1994,48.6419 L283.1904,48.7119 L284.1104,48.4289 L285.7394,48.6419 L286.0924,48.7829 L286.6594,48.6419 L286.0924,48.2169 L285.5264,47.9339 L284.1104,46.5879 L284.1104,43.5449 L283.4744,43.3319 L282.9774,43.8279 L280.2874,44.5359 L279.4374,44.7479 L278.1634,44.3939 L277.9514,44.2529 L277.9514,41.7749 L277.3144,41.7039 L276.1814,42.2699 L274.1994,43.1199 L271.2954,43.2609 L269.8094,43.7569 L268.0404,45.3149 L267.3324,45.7389 L266.8364,45.7389 L266.2694,46.0929 L265.5614,45.8799 L264.8534,45.3149 L264.2164,45.7389 L262.5174,45.8099 L261.3144,44.6069 L260.6764,43.2609 L260.0404,42.7659 L258.6244,42.3409 L257.6324,42.3409 L257.0664,41.7749 L255.5084,43.0489 L255.0844,43.5449 L254.7294,43.3319 L254.8714,42.1989 L255.9334,40.7829 L256.1454,39.7209 L257.1364,39.3669 L257.7744,38.0219 L259.4024,37.5969 L259.5444,37.1729 L259.0484,36.6769 L256.9954,36.8899 L255.0844,37.9509 L254.0924,38.9419 L253.5264,39.7209 L252.7484,40.0749 L251.8984,41.3499 L251.8274,41.9159 L249.9164,42.8369 L248.8534,43.6859 L246.2344,44.1109 L245.9514,44.3939 L245.9514,44.8189 L244.3934,45.8099 L243.1904,46.1639 L242.8764,46.4179 L242.4304,46.6029 L242.1994,47.1549 L241.7034,47.0839 L241.4204,46.5879 L240.2164,46.2339 L239.7204,46.3049 L238.9424,46.7299 L238.5174,46.4469 L238.8004,45.5969 L239.6504,44.2529 L240.1454,43.7569 L239.2954,43.1199 L238.3764,43.4739 L237.1014,44.3229 L233.8444,45.7389 L232.5704,46.0219 L231.2954,45.8099 L230.8664,45.4249 L230.6754,45.1829 L232.3584,43.8989 L232.9244,43.8279 L234.9074,41.6329 L235.6854,41.2789 L236.6764,39.5799 L237.7384,38.0219 L239.0844,36.8899 L241.1744,36.0109 L245.2234,34.2319 L246.9494,33.4279 L247.2164,32.4289 L245.2724,32.5919 L244.9604,33.0659 L244.6764,33.0659 L243.8984,31.7209 L240.0044,31.8629 L239.5794,32.2169 L239.1544,32.2169 L238.9424,31.6499 L238.5874,30.8719 L237.4564,31.0839 L236.0404,32.4999 L235.3324,32.8539 L233.9864,32.8539 L232.8524,32.4289 L232.8524,31.5089 L232.2874,31.4379 L232.0754,31.6499 L230.9424,31.0839 L230.7294,29.8099 L230.0924,30.0219 L229.8794,30.4469 L228.8184,30.2339 L226.4824,29.1729 L224.7834,28.0399 L223.5084,28.0399 L222.9424,27.6149 L221.9514,27.8989 L221.4564,28.3939 L221.3144,28.9609 L219.1904,28.9609 L219.1904,28.0399 L216.4284,27.8989 L216.2874,27.2609 L214.1634,27.2609 L213.4564,26.5529 L212.8184,23.8629 L212.4644,21.4559 L211.6154,21.1019 L210.6244,20.8899 L210.3404,20.9609 L210.1994,24.5709 L197.0034,24.5549 L196.5224,24.5349 L184.0754,24.2879 L175.9334,24.0039 L164.3234,23.4379 L153.3984,22.6129 L152.8364,22.4019 L139.4014,21.1729 L126.5874,19.6149 L113.7744,17.8449 L99.6154,15.5089 L91.5444,14.0219 L77.2124,10.9859 L76.7224,10.9159 L71.0294,9.8089 L70.7144,9.6329 L64.0754,8.1459 L54.0214,5.6679 L45.2434,3.1909 L41.4914,2.3409 L37.2434,1.1369 L35.3324,0.4999 L34.8364,0.8539 L34.6934,1.2079 L35.7564,3.3319 L36.2524,4.4649 L35.4744,6.0219 L35.4744,7.0129 L35.7564,7.6499 L35.4014,8.4289 L35.6154,9.8449 L36.0404,10.4119 L35.9694,10.9779 L35.3324,11.0489 L35.0484,10.1989 L34.5534,9.1369 L33.7744,8.4999 L33.9164,7.5799 L34.9074,7.3669 L34.7664,6.5879 L34.6244,6.0929 L33.7034,6.6589 L33.1374,7.1549 L33.1374,8.2169 L32.1454,8.2879 L30.6594,7.8629 L29.3844,7.2259 L28.0404,6.9419 L26.0574,6.0219 L24.6414,5.1729 L23.4374,4.0399 L22.3764,2.7659 L21.4564,2.5529 L20.4644,6.6589 L21.2434,8.0749 L21.2434,11.5449 L20.9604,12.8189 L21.5984,15.9339 L22.8004,17.1369 L20.8904,17.4199 L20.8174,19.0489 L21.9514,19.5449 L21.2434,21.3149 L20.0404,21.4559 L19.8984,22.7299 L20.8904,24.0039 L19.9694,25.1369 L18.9774,27.9689 L17.5614,32.3579 L16.1454,35.1909 L13.9514,41.3499 L11.1194,47.2959 L7.5794,52.8189 L6.7294,54.0929 L6.3764,57.8449 L5.8094,60.4649 L6.9954,62.0089 L6.7854,62.4309 L6.0924,64.4999 L6.0214,67.7569 L3.7564,72.9249 L2.4114,74.0579 L2.2694,74.5529 L1.4914,74.9069 L0.8534,76.7479 L0.5004,78.1639 L1.7034,80.0039 L2.4114,81.8449 L2.9074,83.4029 L2.7664,86.2339 L1.9854,87.5799 L1.7034,90.1289 L1.2774,91.7569 L2.0584,93.4559 L3.2614,95.4379 L4.2524,97.5619 L4.8174,99.3319 L4.6764,100.7479 L4.5354,100.9609 L4.5354,101.8799 L7.0134,104.6419 L6.8004,105.7039 L6.5174,106.6949 L6.2334,107.5449 L6.3054,111.1549 L7.2254,112.7829 L8.0754,113.9159 L9.2774,114.1289 L9.7034,115.3319 L9.2084,116.8899 L8.2874,117.5969 L7.7924,117.5969 L7.4374,119.2959 L7.6504,120.5709 L9.0664,122.4829 L9.7744,124.8189 L10.4114,126.8719 L10.9774,128.2169 L12.4644,130.7659 L13.1014,131.8989 L13.3144,133.1729 L14.0214,133.5969 L14.0214,134.6589 L13.6684,135.5089 L12.8904,138.6239 L12.6764,139.4739 L13.7384,140.6769 L15.5794,140.8899 L17.5614,141.6679 L19.2614,142.5879 L20.5354,142.5879 L21.8094,143.9339 L22.9414,146.0579 L23.4374,147.0489 L25.1374,147.9689 L27.2614,148.3229 L27.8984,149.2439 L28.1824,150.6589 L27.5444,150.9419 L27.6854,151.3669 L29.1014,151.7209 L30.3054,151.7919 L31.5794,153.8449 L33.2774,155.6859 L33.6324,156.6769 L34.7664,158.5179 L34.9074,159.9339 L34.9074,164.0399 L35.1194,164.8189 L39.5084,165.4559 L48.1454,166.6589 L54.2354,167.0869 L54.6774,167.4129 L53.5254,168.3579 L53.3844,168.9959 L53.5984,169.4199 L61.8794,174.0929 L67.1904,177.4199 L73.6324,181.1729 L80.9954,185.5629 L86.3764,186.6239 L97.3794,187.8089 L98.0834,188.1599 L104.8534,189.0309 L105.4204,184.6419 L112.7124,185.7739 L118.1674,186.4829 L118.5874,186.4819 L119.4374,186.6949 L120.5694,187.9689 L121.2084,189.8799 L123.2614,190.8719 L123.8274,192.2879 L126.9414,195.7569 L127.5084,196.4649 L129.7034,197.3849 L130.1994,198.3049 L130.9074,198.7309 L131.1194,199.9339 L132.5354,202.7659 L132.5354,206.3049 L133.5254,208.3579 L136.7834,211.7569 L139.0484,212.6769 L139.8274,213.5259 L139.8274,213.8099 L141.5254,214.8009 L142.3764,215.0839 L143.1534,215.5799 L144.2874,216.0039 L145.3494,214.9419 L147.2614,212.2529 L147.6854,210.6239 L148.6774,209.2079 L150.2334,208.5709 L152.2164,207.7919 L153.5614,208.7829 L156.8174,209.0659 L159.7924,209.5619 L160.9244,210.4819 L160.9244,210.9779 L162.0574,212.3229 L164.6774,214.6589 L164.7484,215.2959 L165.5254,216.1459 L165.8794,217.9869 L168.2164,223.3669 L168.1454,224.2169 L169.9854,225.3499 L171.5444,228.2529 L173.0314,230.1639 L174.4454,230.7309 L175.1534,231.7209 L174.5874,233.6329 L174.8714,234.0579 L175.4374,234.3409 L175.2964,235.8279 L175.0134,236.1109 L175.2964,237.1019 L176.7124,237.9509 L177.2774,240.7829 L178.1994,242.4819 L181.5254,243.9689 L183.7924,244.4649 L185.6324,245.8099 L187.0484,246.0929 L187.6154,245.8799 L190.0214,246.3759 L192.5004,248.0749 L193.8454,247.2259 L194.2694,246.5879 L193.4914,245.3849 L193.0664,242.6949 L192.2874,239.6499 L191.9334,238.5879 L192.2874,236.6069 L192.7834,234.9069 L193.3494,232.9249 L193.9854,230.5179 L192.9954,229.6679 L193.4204,228.8189 L195.1904,228.6769 L196.8904,226.2699 L198.3764,225.9869 L200.9244,224.4289 L201.7034,223.7919 L204.4644,222.3049 L206.9424,221.2439 L209.2784,219.8279 L210.4824,218.9069 L212.9604,216.5709 L213.5264,216.2169 L214.4464,215.5799 L215.5794,214.7309 L216.0044,213.8799 L220.3234,211.8989 L222.8034,211.2039 L223.0854,211.1489 L225.1364,210.4819 L228.6764,210.3409 L233.2084,211.8989 L236.0404,212.3939 L237.6684,211.7569 L239.0844,212.2529 L240.5004,212.6769 L240.8524,211.7569 L239.4364,211.2609 L238.3044,211.4739 L237.1004,210.7659 C237.1004,210.7659 237.1724,210.1989 237.4564,210.1279 C237.7384,210.0579 238.8004,209.7039 238.8004,209.7039 L239.5794,210.3409 L240.3584,209.9159 L241.7744,210.1989 L242.4114,211.2609 L242.5524,212.2529 L244.5354,212.3939 L245.3144,213.1729 L244.9604,213.8799 L244.3924,214.2339 L245.1004,214.9419 L248.7834,216.4999 L250.3404,215.9339 L250.7654,214.8719 L251.8984,214.5879 L252.6764,213.9509 L253.2434,214.3759 L253.5974,215.6499 L252.6064,216.0039 L252.8894,216.2879 L254.3764,215.7209 L255.3674,214.2339 L255.7204,214.0229 L254.8004,213.8799 L255.1544,213.1729 L255.0844,212.5359 L256.0044,212.3229 L256.5004,211.7569 L256.7834,212.1109 C256.7834,212.1109 256.7124,213.4559 257.0664,213.4559 C257.4204,213.4559 258.9074,213.7389 258.9074,213.7389 L260.6764,214.5879 L261.1004,215.2259 L262.3764,215.2259 L262.8714,215.6499 L263.8624,214.3049 L263.8624,213.6679 L263.2954,213.6679 L261.8084,212.4649 L259.2604,212.1109 L257.8444,211.1199 L258.3404,209.9159 L259.3324,210.0579 L259.4024,209.7739 L258.6244,209.3499 L258.6244,209.1369 L260.0404,209.1369 L260.8184,207.7919 L260.2524,206.9419 L260.1104,205.7389 L259.4734,205.8099 L258.6244,206.7309 L258.3404,207.8629 L256.9954,207.5799 L256.5704,206.8009 L257.3484,205.9509 L258.2344,205.1729 L258.5644,204.9469 L259.0484,204.6069 L260.1814,202.7659 L260.9604,203.1199 L263.9324,202.2699 L264.8524,202.4119 L265.4914,202.7659 L267.7564,202.7659 L267.8684,202.2149 L268.3234,202.1279 L269.5264,202.1279 L269.8084,202.1989 L270.3764,200.9959 L271.0124,199.0839 L272.0044,199.3669 L273.3484,201.9869 L273.3484,202.4119 L272.1444,203.2609 L273.3484,203.4029 L275.7764,202.2759 L276.0734,202.3259 L277.5964,202.0579 L280.2164,201.1369 L282.8364,200.9249 L284.7484,200.6419 L288.0754,201.4199 L291.6154,203.1199 L292.3234,203.7569 L293.5964,204.2529 L294.3044,205.1019 L294.4464,206.3049 L295.8624,205.7389 L297.5604,205.7389 L299.1194,204.8899 L300.7484,203.3319 L302.0924,203.4029 L302.3044,202.9069 L301.9514,202.4819 L302.0204,201.6329 L303.7924,201.2789 L304.9244,201.2789 L306.1994,201.9159 L308.0404,202.5529 L309.1004,204.1819 L310.3044,204.6069 L310.8004,206.0929 L312.2874,206.8009 L312.9954,207.9339 L313.8444,208.2169 L316.1104,208.7829 L316.6764,210.1279 L318.0204,211.7569 L318.0204,215.9339 L317.3844,217.9869 L317.5254,219.1909 L318.0924,221.3149 L318.8714,223.0839 L319.2244,222.8719 L319.8624,220.8899 L318.7284,220.4649 L318.5874,220.1819 L319.2964,219.8989 L321.2784,220.3229 L321.3484,221.0309 L319.9324,223.4379 L319.0124,224.4999 L320.5704,226.1279 L321.7034,227.4739 L322.9764,229.8099 L324.2524,231.5089 L325.1724,233.7039 L325.9514,233.8449 L326.6594,232.9249 L327.4364,233.4199 L328.5704,235.1909 L328.8524,236.7479 L330.1994,238.6589 L330.5524,238.0929 L332.2524,238.2339 L333.8084,239.2259 L335.2954,241.4909 L335.6504,242.9779 L335.7924,244.2529 L336.2874,244.6769 L336.8524,244.8899 L337.9164,244.4649 L338.5524,243.7569 L340.2524,243.6859 L341.5974,243.0489 L342.8004,241.6329 L342.5874,240.7829 L342.4464,239.7209 L342.7284,238.8719 L342.5874,238.0219 L343.6504,237.4559 L343.7924,235.9689 L343.5084,235.1909 L343.2954,229.9509 L342.7284,226.6239 L340.7484,223.0129 L339.1894,220.4649 L338.0564,218.1279 L336.7834,216.8539 L335.5084,213.5969 L335.8624,213.0309 L336.3584,212.4649 L335.6504,211.1909 L333.8794,209.5619 L331.7564,207.1549 L330.1284,204.3939 L327.7924,200.2879 L326.1584,196.0209 L325.1664,192.8159 L325.1584,192.4269 L324.8184,189.6679 L325.8084,185.2789 L326.4464,183.4379 L326.2344,182.3049 L327.6944,179.5709 L327.4704,178.9789 L327.7204,178.5529 L328.6404,177.9869 L330.8364,175.5799 L330.4114,174.1639 L331.6844,174.0929 L333.2434,172.6069 L333.9514,172.2529 L334.9424,170.7659 L336.1444,169.5619 L337.0664,168.0039 L338.1284,167.7209 L338.6244,166.5179 L339.3324,166.1639 L339.5444,163.4029 L340.6764,160.7119 L343.0504,158.3219 L343.1734,157.9699 L345.5604,157.3849 L347.6154,157.1729 L347.8274,156.1109 L348.6764,153.2789 L350.1634,151.2259 L352.9954,148.8899 L355.2604,147.8279 L356.4644,147.5449 L356.9604,147.7569 L357.5264,147.7569 L358.8714,145.6329 L359.7204,144.0749 L359.1544,144.2879 L358.1634,145.2789 L357.8794,144.5709 L356.0404,144.5709 L356.8894,141.8099 L356.5354,141.2439 L355.6844,141.2439 L355.6844,140.8189 L355.5444,140.2529 L356.2524,140.8189 L356.8894,140.8899 L357.9514,141.0309 L359.5794,140.3229 L360.1454,139.0489 L360.4284,138.1279 L361.5604,137.5619 L361.7034,135.7209 L361.3484,135.4379 L362.4114,135.3669 L362.1284,134.3759 L361.0664,133.3149 L359.5084,130.4819 L358.7594,128.4249 L358.3564,128.0199 L356.7774,125.3869 L354.2364,126.1249 L353.5474,125.4709 L354.6664,124.8659 L354.4504,123.7599 L353.6734,122.9789 L353.6214,122.3599 L352.6224,121.6849 L352.5834,120.9769 L353.7624,121.0189 L353.8594,120.4119 L353.3214,120.0659 L353.5314,119.2209 L352.9284,118.7379 L353.1224,116.6839 L352.7414,116.1589 L351.3444,115.9829 L350.4014,115.0679 L348.2754,114.6549 L346.9834,114.2319 Z M330.6604,250.8009 L331.7224,250.5179 L332.2894,250.4109 L332.9254,249.3849 L333.9524,248.6769 L334.5174,248.8889 L335.2614,249.0309 L335.4394,249.4909 L333.9174,250.0229 L332.0764,250.6589 L331.0494,251.1899 L330.6604,250.8009 Z M336.5724,248.6069 L337.1014,249.0659 L338.3064,248.1469 L340.6414,246.3049 L342.2694,244.6069 L343.3684,241.7029 L343.7934,240.9599 L343.8644,239.4729 L343.5454,239.6859 L343.1204,240.9249 L342.4834,242.9419 L341.0674,245.2429 L339.1564,247.0839 L337.6694,247.9339 L336.5724,248.6069 Z M360.4654,142.8709 L361.5984,141.7739 L362.9784,140.6409 L363.6514,140.3579 L363.7224,139.4729 L363.4394,136.7829 L362.8014,135.7559 L362.5174,134.9419 L362.8374,134.8359 L364.0414,137.2429 L364.2174,139.1899 L364.1474,140.6759 L362.6604,141.3489 L361.4214,142.4109 L360.9254,142.9419 L360.4654,142.8709 Z M388.4824,73.8489 L389.4324,73.5489 L389.6334,72.7979 L390.0854,72.8479 L390.5354,73.8489 L389.9844,74.0489 L388.2824,74.0999 L388.4824,73.8489 Z M384.3784,74.1999 L385.3794,73.0479 L386.0804,73.0479 L386.8804,73.6989 L385.8294,74.1499 L384.8784,74.5999 L384.3784,74.1999 Z M389.4924,44.7819 L390.1654,44.1099 L390.7654,44.5699 L391.0144,45.6319 L390.2714,46.0219 L389.4924,44.7819 Z M392.4304,42.1979 L393.2094,43.0119 C393.2094,43.0119 393.7754,43.0479 393.7754,42.9059 C393.7754,42.7649 393.8814,42.0209 393.8814,42.0209 L394.2714,41.6679 L393.9174,40.8889 L393.0324,41.2069 L392.4304,42.1979 Z M353.5984,113.4549 L354.0934,114.5519 L354.1654,115.3309 L354.6604,116.1459 C354.6604,116.1459 355.0494,115.7559 355.0494,115.6139 C355.0494,115.4729 354.7314,114.2689 354.7314,114.2689 L354.4134,113.2429 L353.5984,113.4549 Z M249.0634,33.6499 L249.8644,32.7499 L250.8154,32.3989 L253.1684,30.6969 L254.1694,30.4459 L254.3694,30.6469 L252.1174,32.8999 L250.6654,33.7509 L249.7634,34.1509 L249.0634,33.6499 Z M286.8014,47.7199 L287.0854,48.8179 L288.5014,48.8889 L289.0674,48.3579 C289.0674,48.3579 289.0324,47.7199 288.8904,47.6499 C288.7494,47.5789 288.1814,46.8359 288.1814,46.8359 L287.2254,46.9409 L286.5174,47.0119 L286.3774,47.5079 L286.8014,47.7199 Z M31.1904,3.1189 L32.0754,3.0479 L32.2884,3.6499 L32.9604,2.9409 L33.9854,2.9409 L34.3404,3.6139 L33.6684,4.3579 L33.9514,4.7119 L33.6324,5.5959 L33.0304,5.7739 C33.0304,5.7739 32.6414,5.8089 32.6414,5.6669 C32.6414,5.5249 33.2774,4.5339 33.2774,4.5339 L32.5354,4.2869 L32.3934,4.9239 L32.0754,5.2069 L31.4014,4.2159 L31.1904,3.1189 Z M194.5884,246.1639 L194.3404,243.0479 L193.1384,239.8989 L192.8904,236.8179 L193.5624,233.2079 L195.0144,230.1989 L196.5364,227.8269 L197.9174,226.2699 L198.2004,226.3759 L196.1104,229.2779 L194.1994,232.1469 L193.3144,235.0479 L193.1724,237.3149 L193.5624,240.0039 L194.6944,243.1549 L194.9074,245.4199 L194.9784,246.0569 L194.5884,246.1639 Z M15.7224,145.3149 L16.2874,145.9859 L16.2164,146.5529 L14.8004,146.5169 L14.5534,145.9859 L14.2694,145.3489 L15.7224,145.3149 Z M16.5694,145.3149 L17.1014,145.0299 L18.6594,145.9509 L20.0044,146.4819 L19.6154,146.7649 L17.6324,146.6589 L16.9244,145.9509 L16.5694,145.3149 Z M25.6324,153.9859 L26.4114,155.0129 L26.7664,155.4379 L27.4384,155.6859 L27.6854,155.0479 L27.2614,154.2699 L26.0924,153.3839 L25.6324,153.4549 L25.6324,153.9859 Z M24.9954,157.7739 L25.7744,159.1539 L26.3064,160.0039 L25.6684,160.1099 L25.1014,159.5789 C25.1014,159.5789 24.7834,158.9419 24.7834,158.7649 L24.7834,157.8089 L24.9954,157.7739 Z" id="Stroke-3" stroke="#E75F52" stroke-linecap="round" stroke-linejoin="round"></path>
            <path d="M134.4199,237.4648 L135.1009,236.9198 L136.5319,237.6008 L139.7349,239.0998 L141.1659,239.9858 L141.8469,241.0078 L142.6649,242.8478 L144.3689,243.9378 L144.2329,244.4838 L142.5969,245.8458 L140.8249,246.4588 L140.2119,246.1858 L138.9169,246.9358 L137.8949,248.2988 L136.9409,249.5268 L136.1909,249.4578 L134.6919,248.3678 L134.5559,246.4598 L134.8289,245.4388 L134.1479,243.0528 L133.2619,242.3028 L133.1939,241.2128 L134.1479,240.8038 L135.0339,239.5088 L135.2379,239.0998 L134.5569,238.3498 L134.4199,237.4648 Z M127.4009,230.9228 L128.3549,229.6958 L130.3309,230.7178 L132.1709,231.1948 L134.0109,232.3528 L134.0109,233.1708 L132.5119,233.9208 L130.4679,234.3298 L129.4459,233.7168 L127.4009,230.9228 Z M124.4709,231.4008 L125.2889,233.0358 L126.5839,232.5588 L126.7199,231.8778 L126.0389,230.9918 L124.4719,230.8568 L124.4709,231.4008 Z M122.2219,229.2198 L122.7669,228.4018 L124.7429,228.8108 L125.0159,228.6078 L127.6059,228.8798 L127.4699,229.4248 L126.3799,230.0378 L124.5399,229.9028 L122.2219,229.2198 Z M113.7029,225.4718 L115.2699,227.7888 L116.2919,227.6528 L116.7689,227.4488 L117.3819,227.9938 L118.9489,227.9258 L119.3579,227.3138 L118.1309,226.5638 L117.3129,224.9958 L116.4269,223.4968 L113.9739,224.7238 L113.7029,225.4718 Z M100.7559,221.2458 L103.3459,222.3358 L104.2319,222.1998 L104.9129,220.5648 L104.6399,219.1328 L102.8679,218.9288 L101.1639,219.6788 L100.7559,221.2458 Z M96.4619,222.8148 L97.2799,221.3158 L98.2339,221.1788 L98.3699,221.5198 L97.4839,222.8158 L96.4619,222.8158 L96.4619,222.8148 Z" id="Fill-5" fill="#FFFFFF"></path>
            <path d="M134.4199,237.4648 L135.1009,236.9198 L136.5319,237.6008 L139.7349,239.0998 L141.1659,239.9858 L141.8469,241.0078 L142.6649,242.8478 L144.3689,243.9378 L144.2329,244.4838 L142.5969,245.8458 L140.8249,246.4588 L140.2119,246.1858 L138.9169,246.9358 L137.8949,248.2988 L136.9409,249.5268 L136.1909,249.4578 L134.6919,248.3678 L134.5559,246.4598 L134.8289,245.4388 L134.1479,243.0528 L133.2619,242.3028 L133.1939,241.2128 L134.1479,240.8038 L135.0339,239.5088 L135.2379,239.0998 L134.5569,238.3498 L134.4199,237.4648 Z M127.4009,230.9228 L128.3549,229.6958 L130.3309,230.7178 L132.1709,231.1948 L134.0109,232.3528 L134.0109,233.1708 L132.5119,233.9208 L130.4679,234.3298 L129.4459,233.7168 L127.4009,230.9228 Z M124.4709,231.4008 L125.2889,233.0358 L126.5839,232.5588 L126.7199,231.8778 L126.0389,230.9918 L124.4719,230.8568 L124.4709,231.4008 Z M122.2219,229.2198 L122.7669,228.4018 L124.7429,228.8108 L125.0159,228.6078 L127.6059,228.8798 L127.4699,229.4248 L126.3799,230.0378 L124.5399,229.9028 L122.2219,229.2198 Z M113.7029,225.4718 L115.2699,227.7888 L116.2919,227.6528 L116.7689,227.4488 L117.3819,227.9938 L118.9489,227.9258 L119.3579,227.3138 L118.1309,226.5638 L117.3129,224.9958 L116.4269,223.4968 L113.9739,224.7238 L113.7029,225.4718 Z M100.7559,221.2458 L103.3459,222.3358 L104.2319,222.1998 L104.9129,220.5648 L104.6399,219.1328 L102.8679,218.9288 L101.1639,219.6788 L100.7559,221.2458 Z M96.4619,222.8148 L97.2799,221.3158 L98.2339,221.1788 L98.3699,221.5198 L97.4839,222.8158 L96.4619,222.8158 L96.4619,222.8148 Z" id="Stroke-7" stroke="#E75F52" stroke-linecap="round" stroke-linejoin="round"></path>
            <path d="M54.0752,231.2637 L55.0972,230.6517 L54.6882,229.9017 L53.9382,230.3097 L54.0752,231.2637 Z M36.2212,239.6467 L36.6982,242.0987 L37.9252,242.4407 L40.0382,241.2127 L41.8782,240.1227 L41.1972,239.1007 L41.4012,238.0787 L40.5152,238.6237 L39.2882,238.2837 L39.9692,237.8057 L40.7872,238.1477 L42.4232,237.3977 L42.6272,236.7847 L41.6052,236.4437 L41.9462,235.6247 L40.7882,236.4437 L38.8122,237.9427 L36.7682,239.1687 C36.7662,239.1687 36.2212,239.6467 36.2212,239.6467 L36.2212,239.6467 Z M32.5412,244.8927 L33.1542,245.6427 L33.5632,245.1657 L33.2222,244.3477 L32.5412,244.8927 Z M22.5912,245.7107 L23.0682,244.7567 L23.9542,244.8927 L23.6132,245.7107 L22.5912,245.7107 Z M21.3652,244.4157 L22.0462,245.2347 L22.9322,244.5527 L22.3192,244.0077 L21.3652,244.4157 Z M0.7162,246.3247 L2.1472,245.3697 L3.5782,244.9607 L4.6682,245.0967 L4.8722,245.7787 L5.6902,245.9827 L6.5082,245.1637 L6.3722,244.4837 L7.5302,244.2097 L8.7572,245.2997 L8.2802,246.0497 L6.4402,246.5277 L5.2822,246.3237 L3.7152,245.8457 L1.8752,246.4587 L1.1942,246.594711 C1.1932,246.5967 0.7162,246.3247 0.7162,246.3247 L0.7162,246.3247 Z M6.5092,215.5227 L6.9862,216.6127 L7.4632,217.2927 L6.9862,217.6337 L6.1002,216.3397 L6.1002,215.5227 L6.5092,215.5227 Z M15.2312,221.4507 L16.7982,221.7917 L18.3652,222.2007 L18.7062,222.6107 L18.0252,224.1767 L16.7302,224.1097 L15.2992,222.6107 C15.3002,222.6097 15.2312,221.4507 15.2312,221.4507 L15.2312,221.4507 Z M16.3222,207.3447 L17.2082,209.5937 L17.1402,210.0027 L15.9132,209.8677 L15.1632,208.1627 L14.4132,207.5497 L13.3912,207.5497 L13.3232,206.4597 L14.0732,205.4377 L14.5502,206.4597 L15.1632,207.0737 L16.3222,207.3447 Z M64.8422,195.1467 L64.7062,231.1267 L65.3872,231.5357 L66.6822,231.6037 L67.2952,231.1267 L68.3852,231.1267 L68.4532,232.3537 L71.3832,235.2157 L71.5872,236.3057 L73.0182,235.4887 L73.2912,235.4197 L73.4272,234.1247 L74.0402,233.4447 L74.5172,233.3757 L75.3352,232.7627 L76.6302,233.6497 L76.9032,234.8757 L77.7212,235.3527 L78.1982,236.3747 L79.8342,237.1247 L81.2652,239.6467 L82.4232,241.2827 L83.3772,242.4407 L83.9902,244.0067 L86.1032,244.7567 L88.2842,245.6427 L88.6932,247.4837 L88.8972,248.7787 L88.4882,250.2087 L87.7382,251.1627 L87.0572,250.8227 L86.4442,249.5277 L85.2852,248.9137 L84.5352,248.4367 L84.1942,248.7787 L84.8072,249.9357 L84.8752,251.5027 L84.3982,251.7067 L83.5802,250.8887 L82.6942,250.3437 L82.8982,251.0257 L83.4432,251.7757 L83.1022,252.1167 C83.1022,252.1167 82.7612,251.9807 82.5572,251.7067 C82.3532,251.4337 81.6712,250.2767 81.6712,250.2767 L81.2622,249.3227 C81.2622,249.3227 81.1262,249.8677 80.8532,249.7317 C80.5802,249.5947 80.3082,249.1177 80.3082,249.1177 L81.0582,248.2997 L80.4452,247.6877 L80.4452,245.5747 L80.1042,245.5747 L79.7632,247.0047 L79.2862,247.2087 L78.8772,245.6417 L78.6042,244.0757 L78.2632,243.8707 L78.3992,246.2557 L78.3992,246.7337 L77.7862,246.1887 L76.2872,243.6667 L75.4012,243.4627 L75.1282,241.8967 L74.4472,240.6687 L73.7662,240.1927 L73.7662,239.2387 L74.6522,238.6937 L74.4482,238.5567 L73.3582,238.8297 L71.9272,237.8077 L70.8372,236.5807 L68.7932,235.4917 L67.0892,234.4017 L67.6342,233.0377 L67.6342,232.3577 L66.8842,233.0377 L65.6572,233.5147 L64.0902,233.0377 L61.7052,232.0157 L59.3902,232.0157 L59.1172,232.2197 L56.3912,230.5837 L55.5052,230.4487 L54.3472,227.9947 L52.8482,228.1307 L51.3492,228.7437 L51.5532,230.6527 L52.0302,229.4247 L52.4392,229.5607 L51.8262,231.4017 L53.1892,230.2427 L53.4622,230.9237 L51.8262,232.7637 L51.2812,232.6277 L51.0772,231.8097 L50.5322,231.4687 L49.9872,231.9467 L48.8292,231.1967 L47.5342,232.0817 L46.7842,232.9677 L45.3532,233.8537 L43.3772,233.7857 L43.1732,232.9007 L44.7402,232.6267 L44.7402,232.0817 L43.7862,231.8087 L44.1952,230.7867 L45.1492,229.1517 L45.1492,228.4017 L45.2172,228.0597 L47.0572,227.1067 L47.4662,227.6517 L48.6242,227.6517 L48.0792,226.5607 L46.5122,226.4247 L44.3992,227.5827 L43.3772,229.0137 L42.6272,230.1037 L42.1502,231.0577 L40.3782,231.6707 L39.0832,232.7607 L38.9472,233.4427 L39.9012,233.8507 L40.2422,234.7377 L39.0832,236.0997 L36.3572,237.8717 L33.0862,239.6437 L32.2002,240.1207 L29.9512,240.5977 L27.7022,241.5517 L28.4522,242.0967 L27.8392,242.7097 L27.6352,243.1877 L26.4772,242.7787 L25.1142,242.8457 L24.7732,243.7997 L24.3642,243.7997 L24.5002,242.7787 L23.0012,243.3237 L21.7742,243.7327 L20.3432,243.1877 L19.1162,244.0047 L17.7532,244.0047 L16.8672,244.5497 L16.1862,244.8907 L15.3002,244.7547 L14.2102,244.2787 L13.2562,244.5507 L12.8472,244.9597 L12.1662,244.4837 L12.1662,243.6647 L13.4612,243.1197 L16.1192,243.3927 L17.9592,242.7117 L18.8452,241.8267 L20.0722,241.5527 L20.8222,241.2117 L21.9802,241.2807 L22.6612,241.8257 L23.0702,241.6897 L24.0242,240.5317 L25.3192,240.1217 L26.7502,239.8487 L27.2952,239.7127 L27.5682,239.9167 L27.9092,239.9167 L28.4542,238.3497 L30.1582,237.7377 L30.9762,236.1697 L31.9302,234.2617 L32.6112,233.6497 L32.7472,232.5587 L32.0662,233.1037 L30.6352,233.3767 L30.3622,232.3547 L29.8172,232.2187 L29.4082,232.6277 L29.3402,233.8547 L28.7272,233.7867 L28.1142,231.3337 L27.5692,231.8787 L27.0922,231.6747 L26.9562,230.8577 L25.2522,230.9247 L24.3662,231.4027 L23.2762,231.2657 L23.8892,230.6537 L24.0932,229.5627 L23.8202,228.7447 L24.4332,228.3357 L24.9782,228.2677 L24.7052,227.5177 L24.7052,225.6777 L24.2962,225.2687 L23.9552,225.8817 L21.3652,225.8817 L20.7522,225.3367 L20.4792,223.7017 L19.5932,222.2017 L19.5932,221.7927 L20.4792,221.4517 L20.5472,220.5667 L21.0242,220.0887 L20.6832,219.8847 L20.1382,220.0887 L19.6612,218.9307 L20.0702,216.8187 L21.9782,215.4547 L23.0682,214.7747 L23.8862,213.2067 L25.0442,212.6617 L26.1342,213.1387 L26.2702,214.1607 L27.2922,214.0257 L28.6552,213.0027 L29.3362,213.2767 L29.7452,213.5487 L30.4262,213.5487 L31.3802,213.0037 L31.7212,211.1637 C31.7212,211.1637 31.8572,209.9367 32.1302,209.7337 C32.4032,209.5297 32.5392,209.3247 32.5392,209.3247 L32.0622,208.5057 L30.9722,208.8467 L29.6092,209.1877 L28.7912,208.9847 L27.2922,208.2347 L25.1792,208.1657 L23.6802,206.5987 L23.8842,204.9627 L24.1572,203.9417 L23.2712,203.1917 L22.4532,201.6237 L22.6572,201.2837 L25.5192,201.0787 L26.4052,201.0787 L26.8142,201.4887 L27.0872,201.4887 L27.0192,200.8067 L28.6552,200.5347 L29.7452,200.6697 L30.3582,201.1477 L29.7452,202.0337 L29.5412,202.6467 L30.7002,203.3267 L32.8132,204.0767 L33.5632,203.6677 L32.6092,201.8277 L32.2002,200.4647 L32.6092,200.1237 L31.1782,199.3057 L30.9742,198.8287 L31.1782,198.1487 L30.8372,196.5117 L29.6102,194.5357 L28.5882,192.7637 L29.8152,191.9467 L31.1782,191.9467 L31.9282,192.2187 L33.7002,192.1517 L35.2672,190.6527 L35.7442,189.3577 L37.3112,188.3347 L37.9922,188.7437 L39.1502,188.4707 L40.7172,187.5847 L41.1942,187.5167 L41.6032,187.8587 L43.5112,187.7897 L44.6692,186.4947 L45.1462,186.4947 L46.6452,187.5167 L47.4632,188.4037 L47.2592,188.8797 L47.5322,189.3577 L48.2132,188.6757 L49.8492,188.8127 L49.9852,190.3787 L50.8032,190.9927 L53.8012,191.2647 L56.4592,193.0367 L57.0722,192.6277 L59.2532,193.7177 L60.1392,193.4457 L60.9572,193.1047 L63.0012,193.9217 L64.8422,195.1467 Z" id="Fill-9" fill="#FFFFFF"></path>
            <path d="M54.0752,231.2637 L55.0972,230.6517 L54.6882,229.9017 L53.9382,230.3097 L54.0752,231.2637 Z M36.2212,239.6467 L36.6982,242.0987 L37.9252,242.4407 L40.0382,241.2127 L41.8782,240.1227 L41.1972,239.1007 L41.4012,238.0787 L40.5152,238.6237 L39.2882,238.2837 L39.9692,237.8057 L40.7872,238.1477 L42.4232,237.3977 L42.6272,236.7847 L41.6052,236.4437 L41.9462,235.6247 L40.7882,236.4437 L38.8122,237.9427 L36.7682,239.1687 C36.7662,239.1687 36.2212,239.6467 36.2212,239.6467 Z M32.5412,244.8927 L33.1542,245.6427 L33.5632,245.1657 L33.2222,244.3477 L32.5412,244.8927 Z M22.5912,245.7107 L23.0682,244.7567 L23.9542,244.8927 L23.6132,245.7107 L22.5912,245.7107 Z M21.3652,244.4157 L22.0462,245.2347 L22.9322,244.5527 L22.3192,244.0077 L21.3652,244.4157 Z M0.7162,246.3247 L2.1472,245.3697 L3.5782,244.9607 L4.6682,245.0967 L4.8722,245.7787 L5.6902,245.9827 L6.5082,245.1637 L6.3722,244.4837 L7.5302,244.2097 L8.7572,245.2997 L8.2802,246.0497 L6.4402,246.5277 L5.2822,246.3237 L3.7152,245.8457 L1.8752,246.4587 L1.1942,246.594711 C1.1932,246.5967 0.7162,246.3247 0.7162,246.3247 Z M6.5092,215.5227 L6.9862,216.6127 L7.4632,217.2927 L6.9862,217.6337 L6.1002,216.3397 L6.1002,215.5227 L6.5092,215.5227 Z M15.2312,221.4507 L16.7982,221.7917 L18.3652,222.2007 L18.7062,222.6107 L18.0252,224.1767 L16.7302,224.1097 L15.2992,222.6107 C15.3002,222.6097 15.2312,221.4507 15.2312,221.4507 Z M16.3222,207.3447 L17.2082,209.5937 L17.1402,210.0027 L15.9132,209.8677 L15.1632,208.1627 L14.4132,207.5497 L13.3912,207.5497 L13.3232,206.4597 L14.0732,205.4377 L14.5502,206.4597 L15.1632,207.0737 L16.3222,207.3447 Z M64.8422,195.1467 L64.7062,231.1267 L65.3872,231.5357 L66.6822,231.6037 L67.2952,231.1267 L68.3852,231.1267 L68.4532,232.3537 L71.3832,235.2157 L71.5872,236.3057 L73.0182,235.4887 L73.2912,235.4197 L73.4272,234.1247 L74.0402,233.4447 L74.5172,233.3757 L75.3352,232.7627 L76.6302,233.6497 L76.9032,234.8757 L77.7212,235.3527 L78.1982,236.3747 L79.8342,237.1247 L81.2652,239.6467 L82.4232,241.2827 L83.3772,242.4407 L83.9902,244.0067 L86.1032,244.7567 L88.2842,245.6427 L88.6932,247.4837 L88.8972,248.7787 L88.4882,250.2087 L87.7382,251.1627 L87.0572,250.8227 L86.4442,249.5277 L85.2852,248.9137 L84.5352,248.4367 L84.1942,248.7787 L84.8072,249.9357 L84.8752,251.5027 L84.3982,251.7067 L83.5802,250.8887 L82.6942,250.3437 L82.8982,251.0257 L83.4432,251.7757 L83.1022,252.1167 C83.1022,252.1167 82.7612,251.9807 82.5572,251.7067 C82.3532,251.4337 81.6712,250.2767 81.6712,250.2767 L81.2622,249.3227 C81.2622,249.3227 81.1262,249.8677 80.8532,249.7317 C80.5802,249.5947 80.3082,249.1177 80.3082,249.1177 L81.0582,248.2997 L80.4452,247.6877 L80.4452,245.5747 L80.1042,245.5747 L79.7632,247.0047 L79.2862,247.2087 L78.8772,245.6417 L78.6042,244.0757 L78.2632,243.8707 L78.3992,246.2557 L78.3992,246.7337 L77.7862,246.1887 L76.2872,243.6667 L75.4012,243.4627 L75.1282,241.8967 L74.4472,240.6687 L73.7662,240.1927 L73.7662,239.2387 L74.6522,238.6937 L74.4482,238.5567 L73.3582,238.8297 L71.9272,237.8077 L70.8372,236.5807 L68.7932,235.4917 L67.0892,234.4017 L67.6342,233.0377 L67.6342,232.3577 L66.8842,233.0377 L65.6572,233.5147 L64.0902,233.0377 L61.7052,232.0157 L59.3902,232.0157 L59.1172,232.2197 L56.3912,230.5837 L55.5052,230.4487 L54.3472,227.9947 L52.8482,228.1307 L51.3492,228.7437 L51.5532,230.6527 L52.0302,229.4247 L52.4392,229.5607 L51.8262,231.4017 L53.1892,230.2427 L53.4622,230.9237 L51.8262,232.7637 L51.2812,232.6277 L51.0772,231.8097 L50.5322,231.4687 L49.9872,231.9467 L48.8292,231.1967 L47.5342,232.0817 L46.7842,232.9677 L45.3532,233.8537 L43.3772,233.7857 L43.1732,232.9007 L44.7402,232.6267 L44.7402,232.0817 L43.7862,231.8087 L44.1952,230.7867 L45.1492,229.1517 L45.1492,228.4017 L45.2172,228.0597 L47.0572,227.1067 L47.4662,227.6517 L48.6242,227.6517 L48.0792,226.5607 L46.5122,226.4247 L44.3992,227.5827 L43.3772,229.0137 L42.6272,230.1037 L42.1502,231.0577 L40.3782,231.6707 L39.0832,232.7607 L38.9472,233.4427 L39.9012,233.8507 L40.2422,234.7377 L39.0832,236.0997 L36.3572,237.8717 L33.0862,239.6437 L32.2002,240.1207 L29.9512,240.5977 L27.7022,241.5517 L28.4522,242.0967 L27.8392,242.7097 L27.6352,243.1877 L26.4772,242.7787 L25.1142,242.8457 L24.7732,243.7997 L24.3642,243.7997 L24.5002,242.7787 L23.0012,243.3237 L21.7742,243.7327 L20.3432,243.1877 L19.1162,244.0047 L17.7532,244.0047 L16.8672,244.5497 L16.1862,244.8907 L15.3002,244.7547 L14.2102,244.2787 L13.2562,244.5507 L12.8472,244.9597 L12.1662,244.4837 L12.1662,243.6647 L13.4612,243.1197 L16.1192,243.3927 L17.9592,242.7117 L18.8452,241.8267 L20.0722,241.5527 L20.8222,241.2117 L21.9802,241.2807 L22.6612,241.8257 L23.0702,241.6897 L24.0242,240.5317 L25.3192,240.1217 L26.7502,239.8487 L27.2952,239.7127 L27.5682,239.9167 L27.9092,239.9167 L28.4542,238.3497 L30.1582,237.7377 L30.9762,236.1697 L31.9302,234.2617 L32.6112,233.6497 L32.7472,232.5587 L32.0662,233.1037 L30.6352,233.3767 L30.3622,232.3547 L29.8172,232.2187 L29.4082,232.6277 L29.3402,233.8547 L28.7272,233.7867 L28.1142,231.3337 L27.5692,231.8787 L27.0922,231.6747 L26.9562,230.8577 L25.2522,230.9247 L24.3662,231.4027 L23.2762,231.2657 L23.8892,230.6537 L24.0932,229.5627 L23.8202,228.7447 L24.4332,228.3357 L24.9782,228.2677 L24.7052,227.5177 L24.7052,225.6777 L24.2962,225.2687 L23.9552,225.8817 L21.3652,225.8817 L20.7522,225.3367 L20.4792,223.7017 L19.5932,222.2017 L19.5932,221.7927 L20.4792,221.4517 L20.5472,220.5667 L21.0242,220.0887 L20.6832,219.8847 L20.1382,220.0887 L19.6612,218.9307 L20.0702,216.8187 L21.9782,215.4547 L23.0682,214.7747 L23.8862,213.2067 L25.0442,212.6617 L26.1342,213.1387 L26.2702,214.1607 L27.2922,214.0257 L28.6552,213.0027 L29.3362,213.2767 L29.7452,213.5487 L30.4262,213.5487 L31.3802,213.0037 L31.7212,211.1637 C31.7212,211.1637 31.8572,209.9367 32.1302,209.7337 C32.4032,209.5297 32.5392,209.3247 32.5392,209.3247 L32.0622,208.5057 L30.9722,208.8467 L29.6092,209.1877 L28.7912,208.9847 L27.2922,208.2347 L25.1792,208.1657 L23.6802,206.5987 L23.8842,204.9627 L24.1572,203.9417 L23.2712,203.1917 L22.4532,201.6237 L22.6572,201.2837 L25.5192,201.0787 L26.4052,201.0787 L26.8142,201.4887 L27.0872,201.4887 L27.0192,200.8067 L28.6552,200.5347 L29.7452,200.6697 L30.3582,201.1477 L29.7452,202.0337 L29.5412,202.6467 L30.7002,203.3267 L32.8132,204.0767 L33.5632,203.6677 L32.6092,201.8277 L32.2002,200.4647 L32.6092,200.1237 L31.1782,199.3057 L30.9742,198.8287 L31.1782,198.1487 L30.8372,196.5117 L29.6102,194.5357 L28.5882,192.7637 L29.8152,191.9467 L31.1782,191.9467 L31.9282,192.2187 L33.7002,192.1517 L35.2672,190.6527 L35.7442,189.3577 L37.3112,188.3347 L37.9922,188.7437 L39.1502,188.4707 L40.7172,187.5847 L41.1942,187.5167 L41.6032,187.8587 L43.5112,187.7897 L44.6692,186.4947 L45.1462,186.4947 L46.6452,187.5167 L47.4632,188.4037 L47.2592,188.8797 L47.5322,189.3577 L48.2132,188.6757 L49.8492,188.8127 L49.9852,190.3787 L50.8032,190.9927 L53.8012,191.2647 L56.4592,193.0367 L57.0722,192.6277 L59.2532,193.7177 L60.1392,193.4457 L60.9572,193.1047 L63.0012,193.9217 L64.8422,195.1467 Z" id="Stroke-11" stroke="#E75F52" stroke-linecap="round" stroke-linejoin="round"></path>
        </g>
    </g>
</svg>