<?xml version="1.0" encoding="UTF-8"?>
<svg width="310px" height="301px" viewBox="0 0 310 301" version="1.1" xmlns="http://www.w3.org/2000/svg" xmlns:xlink="http://www.w3.org/1999/xlink">
    <!-- Generator: Sketch 64 (93537) - https://sketch.com -->
    <title>212</title>
    <desc>Created with Sketch.</desc>
    <g id="212" stroke="none" stroke-width="1" fill="none" fill-rule="evenodd">
        <g id="Group-32" transform="translate(14.000000, 1.000000)" fill="#FFFFFF">
            <polygon id="Fill-1" points="205.1802 0.0003 200.8102 0.0833 194.7122 0.1983 194.2212 0.1953 181.7632 0.1183 178.3862 0.0683 176.6982 0.0413 176.4032 0.0413 170.3302 0.1823 169.3152 0.0843 169.1312 0.0853 168.2702 0.0913 167.7432 0.1163 165.3682 0.2313 161.5612 0.1213 156.8652 0.2033 154.5142 0.2433 153.6072 0.0413 150.2992 0.2933 144.4402 0.2923 138.8552 0.2903 138.3152 1.3913 137.6452 5.3453 136.8322 6.3123 136.5202 6.3953 135.7092 6.6133 135.6552 6.6293 134.9762 6.9893 133.7752 7.2163 124.8582 9.9303 124.6262 9.9743 123.0692 10.2723 121.7112 10.8593 119.9462 11.2223 119.6532 11.4253 117.2912 12.1553 115.9862 12.5583 115.3532 12.6043 113.8572 12.3163 112.7702 11.7573 112.3832 11.5583 110.3842 10.0583 107.6852 9.1233 106.9132 8.4293 106.6842 7.9803 105.9592 7.4223 105.5282 7.4023 101.8712 8.2363 99.6422 8.7443 99.4622 8.9483 93.2162 10.1823 91.9692 10.2293 91.4502 10.5263 89.8102 10.8833 89.2562 11.0033 85.5432 11.6023 84.9782 12.0093 84.3942 13.1113 83.5142 13.9893 83.0862 14.2383 80.8202 14.1583 78.9722 15.3133 78.9872 15.7363 78.8142 16.1863 78.9272 16.4333 79.2012 16.6563 79.6292 16.7453 79.8352 17.0353 79.7282 18.4743 79.1382 18.5663 78.8452 18.7913 78.7392 20.6333 77.7712 22.0053 77.6622 23.1513 77.0542 23.8273 77.0772 24.0733 78.0512 24.5203 78.1672 24.8553 77.9862 25.1473 76.6282 25.1073 76.3792 25.2673 76.1342 25.7833 77.0002 27.9583 76.9912 28.2253 76.9802 28.6323 76.6872 28.8133 76.3692 28.7683 76.0512 28.4553 75.5962 27.3793 75.3472 27.3353 74.9752 27.7143 74.2412 28.4623 73.3392 29.0043 72.3652 29.0743 72.1452 30.0853 72.2382 30.9163 72.0822 31.5453 71.6322 32.2663 71.4992 33.2543 71.2072 33.4353 70.7522 32.8983 70.3682 32.9443 70.1202 33.1923 69.9422 33.8213 70.2842 34.9883 70.5142 35.6603 70.5292 36.0493 70.5382 36.2893 70.0252 37.8853 69.9152 39.1183 69.8372 39.1113 69.1022 39.0333 67.6532 38.5003 67.0442 38.9963 66.7892 39.7663 66.1062 41.8283 65.5662 42.4823 65.5432 42.9083 65.9092 43.7373 65.7522 44.1643 64.9152 44.0333 64.4182 44.1923 63.4952 45.0493 63.2032 45.7453 63.3852 45.7683 64.1112 46.4833 64.2962 47.2453 64.1642 48.0103 62.0732 51.2743 62.1442 51.8803 62.0112 52.1043 61.4462 52.4213 61.3572 52.7813 61.2712 53.7003 60.9122 54.4443 61.2982 54.8463 61.3002 55.2053 60.7602 55.6333 60.9672 56.5773 60.6972 56.9133 60.6542 57.4523 60.6322 57.7443 60.4292 57.9253 60.2042 57.8593 59.5002 57.0533 59.0032 57.1223 58.4852 57.5743 58.2392 58.4953 58.1542 59.6633 57.7022 59.5753 57.0002 59.1073 54.2402 58.9843 53.7022 59.7723 53.6622 60.8943 53.8232 61.9383 54.3042 62.9783 54.3752 63.5633 54.1292 64.0133 53.7912 64.2833 51.8252 64.2473 51.6452 64.4943 51.6712 65.1453 51.3812 66.0663 51.0232 66.7643 50.7522 66.8553 50.5942 67.1713 50.7122 68.0233 50.6012 68.3373 50.1502 68.6543 48.9332 69.0403 48.3932 69.6933 47.9642 69.7853 47.8952 69.7453 47.1262 69.2963 46.5152 69.2763 45.5922 69.8423 45.2202 69.6843 43.9952 68.8163 42.9112 68.8653 42.4572 68.5763 42.1202 68.7363 41.6552 70.5563 40.4842 71.3033 39.7382 71.2403 38.1952 70.1043 37.2202 69.7273 36.3852 69.7103 35.7152 70.5603 35.5312 70.7933 34.6892 73.3563 34.0652 74.7283 34.5212 79.1693 34.3232 79.9113 32.9502 80.9293 32.6612 81.5813 32.6422 82.1883 31.9122 84.7733 31.2392 86.0043 30.8632 86.6873 29.8342 88.1963 28.8892 88.8313 28.2362 89.1493 26.5192 89.0923 25.7762 89.2533 25.0782 89.6393 24.3482 91.9993 23.2682 92.6133 22.3632 92.8003 21.4862 92.9823 19.5432 92.8593 18.0262 92.0623 15.2512 89.3193 14.1182 88.7653 13.0342 88.6833 12.5152 88.8883 11.6492 89.4473 9.8402 90.6103 8.9832 90.7063 6.9712 90.3383 5.8642 90.3683 3.8822 91.1223 3.0512 91.6433 2.5582 92.1863 1.8602 92.5723 0.6762 93.6503 0.0002 94.0393 1.4162 96.8803 1.7402 97.8893 1.6682 98.1853 1.0372 100.7433 1.0232 102.0903 1.3422 102.5823 2.1532 102.7253 3.4202 102.9503 3.8252 102.7233 4.4062 102.0463 5.0772 102.1553 5.8112 102.9123 6.0632 103.3603 6.2202 103.3373 6.5452 102.9193 6.9182 103.2563 7.5812 103.5623 8.1662 103.9533 10.2052 105.3763 10.4102 105.6003 10.4792 106.0253 11.1612 106.7173 12.3372 107.0483 12.7422 106.9783 13.5122 107.1203 13.8362 107.5063 14.6712 108.8743 14.4452 108.9873 14.5372 109.3003 15.4732 110.7993 16.3302 110.8393 17.1752 112.2763 17.2182 112.3513 17.3192 112.5683 17.6832 113.3593 16.4232 113.6443 15.8482 113.4003 14.3132 113.2513 13.4082 112.7633 13.0702 112.7423 13.0032 112.9903 13.5482 113.5473 13.3702 113.8633 12.9622 113.6633 11.7832 112.5263 10.3572 111.8623 9.6582 111.7983 8.5392 113.2183 7.7292 113.5833 7.4642 113.6713 6.8112 114.5083 6.1592 115.0273 5.6122 117.6103 5.9352 118.9113 5.8742 120.0103 6.7352 126.3763 6.7762 126.6883 6.6632 127.0303 6.4332 126.6133 6.2712 125.5943 5.9972 125.1483 5.8442 125.7323 6.0342 127.3003 5.8422 128.9393 5.8962 130.2633 6.4022 132.0323 7.3792 133.1703 7.8322 133.4373 8.1952 133.9283 8.9902 135.0003 9.4262 135.9853 10.1862 138.9413 10.5982 139.8353 11.4192 141.3123 12.9402 143.4783 13.5532 144.1263 13.9812 144.3013 14.1312 144.4483 14.5712 144.8823 14.8662 145.0593 15.3832 145.0343 15.9672 144.5163 16.5242 143.5913 16.6552 142.9423 16.6742 142.1243 17.0372 141.8163 17.3072 141.1113 17.2052 140.6273 17.2912 139.9093 18.2962 138.4453 19.0072 136.7143 18.9592 136.3783 18.2802 135.6873 19.3402 135.9263 19.6352 136.1723 20.2442 136.3033 20.8562 136.6593 20.5412 136.8843 20.5872 137.2893 21.3842 138.4733 21.7452 138.6283 23.0742 138.5533 23.4142 138.8203 23.7772 139.4023 24.1832 139.3333 24.5422 139.0833 25.7512 137.7313 26.7632 137.4793 27.8192 136.5323 28.0892 136.5523 27.8452 137.2043 28.0932 137.4273 28.9042 137.4673 28.9652 137.4313 30.1402 136.6983 30.8842 136.6723 31.8092 136.8913 33.0232 137.5723 33.5282 137.6693 34.0472 138.0243 35.0832 137.8843 35.5112 138.2183 34.6352 138.4693 34.4112 138.7623 34.8192 139.1633 35.3152 139.2293 35.9492 139.8313 36.4672 139.7613 37.0722 140.2753 36.2722 141.1073 35.1212 141.0013 33.9012 141.1743 33.2602 141.0013 32.8172 141.1043 32.2572 140.4773 31.8742 140.7493 30.4572 140.8013 29.3332 141.4353 28.7922 141.3953 27.7292 140.6143 27.4382 141.1313 27.2852 141.9173 25.8882 143.2483 25.7972 143.3033 25.4392 143.5183 24.7712 144.4913 23.8412 146.6243 23.4392 146.9403 22.4232 146.9233 22.1552 147.0603 21.7092 147.8263 21.1022 148.0743 20.4332 148.0653 19.9532 148.0593 19.7292 148.2843 19.3742 149.5653 19.4452 150.0583 19.1562 150.5983 18.8402 150.2183 18.5692 150.3103 18.1202 150.7613 17.3352 151.0343 16.9762 151.4623 16.9822 152.4043 17.6612 153.1193 21.0482 154.3773 21.8132 154.5073 21.4022 155.1023 21.0402 155.6263 20.7822 155.1653 19.8822 155.3033 19.5462 155.5753 19.1382 155.2173 18.0782 154.9553 18.3242 154.6393 18.2102 154.3943 17.3962 153.8373 16.7882 153.9073 16.2012 153.6873 15.4512 152.7263 14.6782 151.4093 14.2252 150.9853 13.7752 150.8983 13.3402 149.8253 12.5552 149.2453 11.8922 148.7573 11.8002 148.4653 10.6292 148.4953 10.1292 148.0483 10.2632 147.6673 9.8122 147.4443 9.7622 147.4343 9.4952 147.3803 9.2042 147.7183 8.8202 147.4513 8.0762 147.3653 7.6722 147.5703 7.3322 147.3933 6.4342 147.8473 6.0712 147.3563 5.8452 147.2673 5.5752 147.4263 5.4912 148.0553 5.2422 148.2353 5.0172 148.2143 4.6292 147.2533 3.8842 147.0553 3.6332 147.5113 2.8282 148.9763 2.8092 147.9593 2.9192 147.6673 3.1882 147.4633 2.9392 147.2413 2.3972 147.1313 1.9892 146.7983 1.2252 146.8033 1.0682 147.1183 2.9392 150.5823 3.0082 151.0763 2.7912 152.4003 2.5462 152.7603 2.2882 152.8223 1.9612 152.8973 1.6222 152.6313 1.4672 152.9023 1.7022 154.4473 1.8382 154.5363 2.3092 154.3313 3.2852 155.4693 3.3422 155.5713 4.4242 157.5483 4.5192 158.1973 6.1492 159.7583 6.7422 160.8973 7.0592 161.2553 7.4432 161.3883 7.4482 161.4663 7.4672 161.7683 7.9642 161.9673 8.6172 161.8513 9.1382 162.2963 9.7242 162.3823 10.3102 162.7153 10.5842 163.2073 11.0462 165.0653 11.2052 165.4023 11.5452 165.6683 11.1652 166.1413 11.8682 166.8773 12.1872 167.5693 12.6832 167.7923 13.6032 167.2703 14.0752 167.2453 14.3482 167.4683 13.6732 167.7183 13.6342 167.7993 13.4502 168.1693 13.6352 168.8853 13.0112 170.0783 13.2382 170.3233 13.7562 170.4323 13.8932 170.7453 14.0342 171.6193 13.7882 171.9573 14.1752 172.6053 14.5702 174.5083 14.2822 175.5203 14.0372 175.7233 13.8182 176.7553 13.8472 177.8083 13.6702 178.4833 13.7852 178.7293 13.9712 178.7413 14.3932 178.7693 15.3552 177.8453 16.0282 177.5043 17.1232 176.2423 18.3812 175.9663 20.1532 174.7903 21.5222 174.1553 22.0552 173.1883 22.7512 172.6463 23.9442 172.2203 24.4132 172.0543 24.8402 172.0753 25.2012 172.0943 25.9442 172.3373 26.5752 172.2453 27.4292 171.9033 27.8802 171.9743 28.6682 172.3453 29.8942 172.1823 30.7692 173.7683 30.3912 174.6903 30.4622 175.1383 31.8452 177.0373 32.4552 177.3933 32.7712 177.8613 33.8342 178.7533 34.5372 179.8033 34.7852 179.9593 36.6922 183.1563 36.9662 183.6963 37.0322 183.8283 37.0572 184.2303 37.4892 185.2153 38.1892 185.6153 38.2392 186.4903 38.9122 186.3573 39.4552 187.4513 39.5282 187.7373 39.2822 188.1883 39.1292 188.9733 38.9442 192.3363 39.3102 193.7253 41.2442 195.3703 41.3922 195.7433 41.4832 197.6913 42.3142 199.1923 44.8112 200.3803 49.3972 202.8433 48.7462 202.9993 48.1172 202.7983 46.2512 201.7463 43.4372 200.7603 41.4832 200.5813 39.7952 200.9403 38.0592 202.3173 37.5922 202.6893 34.4682 203.7203 36.5582 205.6913 37.3012 207.2603 37.9072 207.8873 39.1232 207.7303 40.0682 208.2453 40.5552 208.7203 41.1022 209.2543 42.6082 211.0453 43.7552 212.6583 46.8132 214.8533 48.0052 215.3463 49.0842 215.5033 49.2652 215.6823 49.7562 214.9753 50.5452 213.8453 51.8942 213.1733 53.6252 212.6113 54.7502 212.9263 55.8972 212.7463 57.3372 212.7243 58.4002 213.2263 57.7402 213.3523 56.3912 213.1273 55.2452 213.2853 54.5482 213.6203 54.0752 213.5983 53.1752 213.1953 51.9162 214.2043 51.7142 214.1363 51.3332 214.3143 50.7932 214.8073 51.2872 217.4983 51.1772 217.8573 51.6912 218.5073 52.0292 218.9323 52.5252 219.2003 53.0182 220.1193 53.9172 220.5223 54.1652 220.4103 54.3682 220.0073 54.5932 220.0293 55.1772 221.0833 55.7852 221.5983 56.3692 222.5173 57.5382 222.8983 58.7962 224.3323 59.1342 224.4663 59.6282 224.4453 60.7032 223.9683 60.8422 223.9063 62.0332 223.7943 64.5512 224.8033 65.3162 224.9153 66.2152 225.2513 66.7552 225.2743 67.9002 224.2653 68.1262 223.7723 68.5762 223.2793 68.5992 224.2213 67.9232 224.7583 67.6772 225.2513 68.1712 225.8343 70.5542 226.1483 71.0482 225.9693 71.4302 225.6103 71.8362 225.4763 73.1382 224.2213 75.8372 222.4743 76.0572 222.2323 76.2432 222.0253 77.9282 221.0853 79.3672 219.9433 80.2012 218.8003 80.8762 216.8953 81.3142 216.7323 81.5272 217.2103 81.8692 217.5503 81.9102 217.5913 81.2562 219.3833 81.5942 219.7193 81.8402 220.3693 81.8192 220.9303 81.4962 221.6713 80.7852 220.4813 80.5362 220.3243 80.1332 220.6823 78.8962 222.1843 78.0632 224.0663 77.8832 224.8273 77.4342 225.4553 76.8492 225.8583 75.3432 225.9703 74.7122 226.6643 74.5552 227.4493 74.5772 227.5103 74.7792 228.0543 75.5442 229.1753 77.0722 229.8713 77.7232 230.6113 78.3532 230.9013 78.8252 230.3203 78.9612 229.8273 80.3992 229.1093 80.4902 228.9533 82.1992 228.2123 82.3562 227.8763 82.5582 227.7203 82.7822 227.7423 83.1892 227.2723 83.3442 226.8013 83.5022 226.7333 83.6832 227.4293 83.4342 227.9003 79.9492 230.0503 79.6132 230.3653 79.5222 230.8563 79.7252 231.3953 80.1512 231.8663 81.5692 233.0323 81.8822 233.7713 82.2182 235.4533 82.3722 235.8993 82.6682 236.7523 82.4422 237.6043 82.6432 238.4563 82.9822 238.8153 83.3872 238.8823 83.8582 238.7473 84.5762 238.8823 86.2852 238.7713 88.9602 239.4893 89.4542 239.0623 89.3192 238.5933 87.9492 238.7943 87.4472 238.5533 87.3422 238.5023 87.3202 238.2793 88.0842 238.3463 88.8032 238.1443 88.9162 237.9203 89.3882 238.0333 89.6342 238.3243 89.9702 239.8033 90.3992 240.0503 91.0282 240.0723 91.3192 240.3863 91.6112 240.3653 91.9492 240.1173 92.1732 239.6023 92.1632 238.7593 92.3102 238.3023 92.5782 238.1233 93.0962 238.1683 93.4112 238.5943 94.0402 238.7293 94.8722 239.2673 95.4102 239.7383 96.2872 240.9963 96.5562 241.1743 97.9052 241.2653 98.1512 241.4663 97.7242 241.7573 96.9822 241.8473 96.4882 241.6453 95.8592 241.0843 95.2762 240.2763 94.6242 239.7153 93.6352 239.1773 93.3422 239.2443 92.6682 240.5893 92.0152 240.9033 90.7112 240.9473 89.9252 240.6783 88.0612 241.3283 87.4532 241.3123 86.2602 241.2833 83.6992 243.3433 83.3852 243.8143 83.1142 244.7103 82.1242 246.4143 80.6622 248.5433 80.4802 249.1813 80.7972 249.5523 81.3662 249.8773 81.4262 249.9103 82.4822 251.1673 83.0452 251.4573 83.6742 251.5023 84.7972 251.0773 86.1192 250.9223 87.4712 250.7643 88.0552 250.9883 89.5382 251.9983 90.4602 253.0073 91.9932 253.7323 92.1222 253.7933 93.4022 254.9373 94.6382 255.9463 95.0872 255.9243 96.2122 255.2753 96.7272 255.0053 97.4932 254.9163 98.0762 255.1183 98.4052 255.4413 98.3832 255.6953 97.5142 255.4093 95.0422 256.3273 94.5482 256.2373 92.4132 255.0263 90.4372 254.3303 87.6582 252.8903 87.4922 252.8043 87.0622 252.7653 86.5052 252.7143 85.6732 252.8033 85.9212 252.3333 85.6732 252.1313 85.0442 252.1763 84.5042 252.3323 84.4812 252.9613 81.1102 253.2513 80.7062 253.5283 78.7492 254.8653 77.8522 254.9553 77.2212 255.1783 77.4692 255.3583 80.3012 255.6723 81.6652 255.9213 85.7172 256.6603 87.4682 257.1093 93.5532 259.1863 94.5682 259.5323 98.2992 260.8353 105.1002 263.5583 106.6562 264.1803 108.3412 264.6523 110.1602 265.5063 115.1682 267.3033 116.6262 267.9543 119.1902 269.1003 128.0952 272.5293 131.6772 273.9093 132.5282 274.2693 139.5112 277.2343 141.1552 277.9323 147.5082 280.9443 150.6542 282.5483 153.4572 283.9783 161.3152 288.6523 161.3632 288.6843 162.8402 289.6633 163.8722 290.8093 165.3742 292.6493 166.5182 294.0633 166.9222 294.1773 167.7312 293.6633 169.4412 293.3503 170.2712 292.9253 170.9442 293.4653 169.0102 295.3013 168.5682 295.6403 168.0442 295.5693 168.0442 295.7663 171.7502 297.0273 171.0852 296.9723 172.9142 297.3913 174.6682 298.2143 176.4162 299.0343 178.2572 299.6873 179.5362 299.6233 180.5262 299.9093 181.3912 299.6843 182.6422 298.4983 183.8932 298.3123 184.6442 298.4383 185.1442 298.0013 184.4272 296.7523 184.2402 296.0023 185.1792 295.3173 185.5552 294.7553 185.6542 293.8773 185.7412 293.8863 186.9142 294.0043 187.2522 293.6683 187.6802 292.2793 188.1522 292.0103 188.8942 291.9673 189.7712 290.9823 189.7952 290.0173 190.2942 287.9543 190.1142 287.5053 189.3302 286.6293 189.2862 286.1363 189.5562 285.6653 189.9092 285.4103 190.0502 285.3083 190.1912 285.2683 190.6792 285.1293 193.2422 285.4483 193.3792 284.0123 193.5372 283.5643 193.0462 281.1873 193.0692 280.7833 192.0362 279.9513 191.4542 278.9643 191.9052 278.5383 192.3992 278.5393 193.1182 278.8553 193.4772 278.8103 193.6812 278.2733 193.3232 277.5543 193.5712 277.1053 194.6052 276.5913 194.7632 275.5603 195.2812 274.8663 195.1892 274.2933 195.4892 273.6043 195.2622 272.9153 194.9952 272.5563 195.4452 271.8613 195.8712 271.9973 196.1612 272.3803 196.7682 272.4243 197.0602 272.7613 196.4532 273.5003 196.7442 273.6803 197.0822 273.6133 197.5532 273.0993 197.7362 271.8433 198.3682 270.6793 198.8852 270.0743 199.3572 269.9853 199.9642 270.2113 200.6582 270.2343 201.1982 269.7873 201.7172 269.4073 202.5702 269.3643 202.9082 269.0053 203.7182 268.9173 204.1222 268.5593 204.9312 268.7843 206.1452 268.4283 207.2022 267.6903 207.9892 267.6243 208.2812 267.3783 208.3722 267.1323 207.9922 266.3243 208.4662 265.5863 208.4442 264.8223 208.9642 264.1283 208.8952 263.8573 209.1202 263.4783 210.3342 263.0543 211.1912 261.9803 211.8622 261.6683 211.9352 260.3003 212.2062 259.6953 213.3552 258.4863 213.8282 257.5453 214.0952 257.3693 214.8412 256.8753 215.8092 255.8913 216.3522 254.9503 216.8912 255.0183 218.0822 254.7073 219.0722 254.1483 220.0142 253.8173 220.0842 253.7923 221.3222 252.8073 221.9532 251.8003 222.5832 251.5313 222.7432 250.8603 223.4832 250.6813 223.6882 250.4363 224.8792 249.9003 225.3292 249.2293 227.8742 247.1953 228.2802 246.7923 228.1242 246.3213 228.2732 246.2263 229.2272 245.6283 230.3312 244.5773 231.7032 243.9523 232.1092 243.3923 232.4012 243.3043 232.5812 243.4613 233.1182 244.3593 233.6582 244.3373 234.3782 243.6213 234.9402 243.5113 235.5252 243.1763 236.5612 242.1473 238.0682 241.4833 238.0892 241.4743 238.3832 241.3443 240.0702 240.2713 240.8372 239.6463 241.1542 239.0183 241.5822 238.5943 241.6962 237.9893 242.7992 237.9463 243.4072 236.9623 243.0482 236.4453 243.5442 235.9303 243.7422 235.4083 243.8152 235.2143 245.5682 235.1743 245.8852 234.7933 245.9532 234.3233 246.2722 232.3973 246.7912 231.5903 247.9192 230.1153 248.3902 229.9813 250.1702 228.3933 250.8932 227.1183 251.7722 226.4023 252.4042 225.5973 252.9032 224.6443 253.0142 224.4333 254.2532 223.4053 255.2072 221.6863 256.0572 220.8103 258.1962 219.8743 258.6902 219.4283 258.9622 218.8683 259.3222 218.6233 260.3792 218.5353 261.6162 218.1803 264.0342 217.8133 264.0622 205.4893 264.0722 201.3143 264.0842 195.3703 263.8482 192.2413 265.0832 191.7223 265.8932 191.5463 266.7282 191.1003 267.5852 190.2513 271.8612 183.2053 272.7852 182.2673 274.0932 181.6433 275.4192 181.4653 278.2822 181.0773 278.9112 181.1463 280.3912 182.1393 280.8192 182.1873 282.7732 182.0933 284.2852 182.0203 285.4802 181.3093 286.0872 181.1323 286.7622 181.2023 287.1482 181.4563 287.7582 181.2843 288.7992 180.2123 290.1282 179.7253 290.7642 178.0003 293.2702 175.7013 293.5472 173.7963 293.4612 172.4283 292.4552 170.6983 292.4302 170.3183 292.3842 169.5783 292.9302 163.3653 293.2502 162.0893 293.5462 161.4853 294.7182 160.0933 294.7892 160.0103 295.2682 158.6213 294.5802 155.7253 295.2762 149.8743 295.0202 148.0243 293.5462 147.6453 291.6152 146.6413 290.6692 146.2573 290.2642 146.4563 289.1572 146.9233 288.5232 147.3563 287.4882 147.6963 286.6362 147.8033 285.3412 147.2343 284.9862 147.7353 284.5752 148.8773 283.8292 149.9063 283.1482 151.4053 282.2872 152.3443 281.4752 152.7883 280.9102 153.3913 279.5022 155.9653 278.8252 156.7703 277.7772 157.3693 277.6512 157.4403 276.9942 158.5803 275.7522 159.4733 275.1382 160.6583 273.0152 162.5573 272.1352 163.0473 268.9752 165.3233 268.2562 165.5673 267.6022 165.3623 266.4332 165.2913 266.1622 164.9553 265.7602 163.5343 264.7212 162.9223 261.1872 162.6973 258.9022 162.0763 258.3032 162.0763 257.2122 162.0763 255.8552 163.8673 255.5132 165.3003 254.9032 165.7483 254.6552 166.7113 254.6032 168.6843 253.2982 168.9503 252.8232 168.9043 253.0062 168.2073 253.4792 167.7833 253.0812 165.6063 254.0802 163.6493 254.4862 162.8533 254.6932 161.4413 255.0552 160.2533 255.4622 159.8283 257.0862 159.1383 257.6732 158.7373 258.1472 158.0443 258.9142 157.7543 259.2512 157.4863 259.2752 157.3063 259.3452 156.2733 259.2152 154.7273 258.8582 153.9403 259.2822 152.2923 259.3822 151.9023 259.3642 150.8473 259.4052 150.7053 259.5232 150.3093 259.5952 148.8523 259.7752 148.6493 260.2932 148.5173 260.5882 148.1823 260.5432 147.8033 260.5682 147.2633 260.7042 147.1513 261.4462 147.4443 261.5602 147.0643 261.2242 146.1203 261.3982 145.3383 262.0892 143.4093 262.2522 142.4673 262.6692 142.3073 263.6702 142.0463 264.2132 141.6893 264.9402 140.2343 265.3922 139.7643 266.0912 139.5423 266.2732 139.2073 266.1662 137.6143 266.4372 137.1883 266.7992 137.0553 267.7212 137.1923 268.4002 136.5893 269.0412 136.3093 269.1672 136.2553 269.8902 135.6303 271.1752 135.4993 271.6482 135.8153 271.9652 135.7723 272.6662 135.0123 273.9982 134.3663 274.3592 133.7173 275.9852 133.0733 276.2352 132.8263 276.3052 132.2453 275.9902 131.6603 276.2862 130.9433 277.1942 129.4883 276.6322 128.8803 275.8872 128.9453 275.7102 128.0473 274.7902 126.8103 273.1932 126.0853 273.5322 125.5033 273.0142 124.8053 272.4802 124.0873 273.2032 123.5513 273.0902 123.2143 271.9402 123.3423 271.7162 123.0073 271.5192 121.4353 270.7132 119.9303 268.0822 117.8553 267.6552 117.1353 267.3172 117.0893 266.7542 117.4243 266.6302 117.3013 266.3932 117.0643 266.0552 117.0853 265.7182 116.8153 265.8802 115.4923 266.0612 115.1333 265.6372 113.8533 265.7282 113.3373 265.0942 109.9433 264.8202 108.4873 265.1192 106.6263 265.0972 106.0123 265.0592 104.8983 265.2172 104.2923 264.9272 103.7753 264.6152 101.7103 264.7092 101.2843 264.6002 100.2733 264.9472 97.7133 264.9932 97.3813 265.2422 96.7983 265.6502 96.5083 265.7862 96.1263 265.8612 94.6243 266.0412 94.1543 265.9232 93.4883 265.4432 92.8763 265.0222 92.3403 263.1722 91.1913 262.7482 91.0603 262.2922 90.9193 262.2242 91.0983 261.2092 90.9163 258.5462 89.7433 257.1012 89.7623 253.8702 90.3373 251.7482 89.9733 251.4102 89.4793 251.5402 89.1923 251.7282 88.7833 252.1162 86.3163 252.1202 84.9023 253.2522 83.6483 253.2792 81.7403 252.3802 79.7853 252.8792 78.4183 253.3982 78.3303 253.5492 78.5403 253.8502 78.9583 255.1372 78.7603 256.3592 78.3143 256.7202 78.3373 257.8042 77.8463 258.2132 77.1973 258.1482 75.5803 258.2392 75.5803 257.1572 74.3213 257.0912 73.2663 257.5022 71.7413 257.8442 70.8773 258.4332 69.3863 258.2542 68.3543 257.7142 67.4983 255.7052 66.0133 253.9452 65.4703 253.5402 65.0203 253.6742 64.7063 253.5872 63.6733 252.2312 61.4073 251.6462 60.5763 250.9232 61.1763 250.6752 61.0413 249.9522 60.1193 248.8002 60.0043 247.8272 60.4293 246.8562 60.2693 246.5362 60.0493 245.9082 59.6163 244.9812 59.5473 244.4592 60.5113 243.9622 60.5103 243.4652 59.9483 243.2842 59.4323 243.6952 58.5133 244.4642 57.9303 244.7132 57.2343 244.2862 56.6723 243.3362 56.1313 242.2522 55.1873 241.4392 54.9163 240.6712 54.4653 240.6252 54.3643 240.1292 53.2983 240.1322 52.6243 240.9232 51.7053 240.9242 51.1673 240.1582 49.7503 240.1812 49.3243 240.5652 48.7863 241.9252 48.1603 242.3332 47.4873 242.2212 47.1283 241.8812 46.8583 239.3252 46.4713 239.0012 46.2213 237.6982 45.2123 238.0622 44.6513 239.1492 43.7333 239.1032 43.1943 237.2742 41.6653 235.5792 39.7073 234.7422 39.6613 234.0652 38.9203 233.9042 37.6403 233.6842 35.8883 233.0972 35.0343 233.0522 34.2253 232.5782 33.7763 231.9232 33.5953 230.8362 33.6163 229.7962 33.4573 229.0042 32.8503 228.5062 31.9073 228.2152 29.5483 227.8972 28.7573 227.5822 27.9773 226.9502 26.8973 224.9842 24.3813 224.1472 23.5483 221.5922 19.7963 220.6102 18.8363 218.5592 16.8283 215.9782 15.1203 215.8652 14.8943 211.4282 12.8263 210.4472 11.9683 210.2962 11.8373 209.7292 10.7363 209.3002 8.5813 209.0522 5.4373 208.6462 3.3473 208.2842 2.4043 206.3582 0.9123 205.2582 0.0413"></polygon>
            <polygon id="Fill-2" points="79.1597 238.9928 78.6417 239.3518 78.3737 239.2628 77.4977 238.0738 76.8897 237.9168 75.9007 238.2298 75.3837 238.7678 74.9567 239.5078 74.4607 239.5528 74.1687 239.2618 73.8547 239.2618 73.6537 240.2468 73.7877 240.7868 74.0117 240.9648 74.2597 240.4488 75.0237 240.2028 75.2257 240.0018 75.8567 238.8358 76.1927 238.8808 76.7557 238.4098 77.5187 238.5898 77.7017 239.2358 77.7217 239.3058 79.2257 241.0328 79.3837 241.8408 79.3167 242.4458 79.6067 243.2078 79.4277 243.9708 78.9557 244.8218 77.9437 245.6288 76.4377 247.3318 76.1457 248.4078 76.0487 249.6908 75.8977 251.7028 76.0327 252.7578 76.2677 253.4198 76.3687 253.6988 76.2567 254.6398 75.2667 254.9088 73.8507 254.9308 72.4117 254.6168 72.2547 254.2138 72.0437 253.0418 72.6007 253.7458 72.8177 253.2498 72.8737 252.9158 73.0197 252.0378 72.9747 251.1408 72.3917 249.9538 71.6267 248.9228 70.6387 248.1378 68.6617 246.9718 64.5727 245.3638 60.9077 243.9228 56.9747 242.6228 54.7947 242.0398 53.4247 241.8608 52.8267 241.6438 51.4447 241.1428 48.3207 240.3578 46.6577 239.7308 40.9427 238.3118 40.6117 238.2298 36.5417 237.4468 35.1717 237.3808 34.8127 237.2228 35.7997 236.4828 37.8907 236.7288 39.4867 236.5948 40.6117 236.9078 40.1607 236.1238 39.1507 235.9228 38.6107 235.4208 38.4747 235.2948 39.2387 234.3078 43.1957 232.7168 44.6797 232.6718 45.9817 232.8878 46.2977 232.9398 47.6007 232.2008 48.1627 232.1548 48.5897 232.4468 49.1967 232.4468 49.6927 231.9308 50.8377 231.5058 54.6817 232.0198 56.7497 231.7288 57.3127 231.7738 57.5607 232.0648 58.9087 231.4818 59.2677 231.5268 60.1217 230.8778 61.2247 230.6978 63.5167 230.9448 66.6407 230.4298 69.4947 230.7058 70.5767 230.8108 71.7207 232.1108 71.8327 232.4468 71.0257 232.7378 70.2147 233.2538 69.5407 233.8818 69.5007 234.5518 69.3497 234.5948 68.9337 234.3068 68.4617 233.5448 68.0117 233.5898 67.8767 233.9478 67.9227 234.4638 68.3887 234.4878 68.5607 234.2748 69.1587 235.0018 69.4377 234.9768 69.8557 234.5538 70.0137 233.8698 70.1197 233.7408 70.3497 233.7688 70.5297 234.1048 70.0347 235.2258 70.1687 235.6748 70.4857 235.8308 71.0817 235.8278 70.9757 235.6578 70.5697 235.5948 70.3497 235.2938 70.9347 233.9718 72.2607 233.2768 73.4297 233.2098 74.7327 233.4118 75.9257 234.0618 76.3057 234.0398 77.4007 234.8668 78.5317 235.7208 79.1157 236.3478 79.0477 236.5278 79.7667 237.2228 79.9247 237.6488"></polygon>
            <polygon id="Fill-3" points="10.4444 107.5518 10.6484 107.7978 10.3124 108.1588 8.4674 109.0448 7.8144 109.1398 7.4964 108.9608 6.5874 107.6878 6.5624 107.2398 6.9434 106.7878 7.9984 106.2888 8.8344 106.2158 9.2184 106.3928 9.7884 107.2868"></polygon>
            <polygon id="Fill-4" points="23.6836 142.6553 23.4346 142.3203 23.0956 142.3883 21.7046 143.2713 21.5246 143.1373 21.2506 142.6683 21.5376 141.6583 21.2396 140.8063 21.3066 140.5143 22.2726 140.0613 23.7396 140.3223 23.9886 140.5673 23.8126 141.4653 24.4686 141.9323 24.0886 142.4283"></polygon>
            <polygon id="Fill-5" points="76.9595 230.857 77.0955 231.888 76.7115 232.067 75.2505 231.574 74.6215 230.834 73.9485 229.556 73.8575 228.794 74.1945 228.726 75.4765 229.961 75.8135 230.005"></polygon>
            <polygon id="Fill-6" points="33.5977 235.4752 33.8897 236.5062 33.3057 237.5382 30.2707 236.1042 30.9227 235.4312 31.1917 235.9922 31.6857 235.7002 31.8207 235.2302"></polygon>
            <polygon id="Fill-7" points="10.9912 181.772 10.8852 182.648 10.6832 182.963 10.3242 183.077 10.1012 183.482 9.7652 183.551 9.6122 184.494 9.3452 184.698 8.4002 184.703 8.1342 185.534 6.5842 186.014 6.4272 185.858 6.6942 185.296 7.1102 184.935 7.1622 184.889 8.1502 184.48 8.4162 183.851 9.8502 182.811 10.3852 182.068"></polygon>
            <polygon id="Fill-8" points="28.4702 228.5963 28.6732 228.9323 27.3012 229.4493 26.4482 230.4803 26.3362 231.1083 26.6732 232.3633 25.8722 231.9793 24.8072 231.4663 24.6042 231.1083 24.5132 230.5033 24.6042 230.2793 25.0992 230.5473 25.3452 230.5033 26.0202 229.9883 26.2672 229.9643 26.6942 229.3593 27.0992 229.2253 28.0212 228.4393"></polygon>
            <polygon id="Fill-9" points="92.189 254.2867 91.965 254.2987 91.761 254.3087 90.142 253.5897 88.212 252.5577 87.738 252.4227 87.269 252.2887 87.157 251.7507 86.571 251.7057 86.122 251.5037 86.481 251.1677 87.584 251.1677 89.539 252.4467 90.189 253.2997 91.786 253.7597"></polygon>
            <polygon id="Fill-10" points="33.7627 139.6187 33.7637 139.8427 32.6127 139.8037 31.8927 139.9857 31.4427 139.9437 31.0577 139.6777 30.3587 139.7037 30.0017 139.9737 29.2367 140.2027 28.8517 140.0927 28.8067 139.9137 29.6367 139.3037 31.0317 139.0497 31.7737 138.6857 32.4057 138.6827 32.8357 138.9727 33.3547 139.0817"></polygon>
            <polygon id="Fill-11" points="83.1836 240.0699 83.3186 240.8989 82.7336 241.8409 82.3726 241.8859 81.9016 241.5059 80.9796 239.7109 81.0246 239.3069"></polygon>
            <polygon id="Fill-12" points="77.7271 223.147 77.8171 223.327 77.5911 224.379 77.3221 224.85 76.1971 225.342 75.5451 225.477 75.3431 225.119 75.4771 224.693 76.6021 223.662"></polygon>
            <polygon id="Fill-13" points="19.7612 138.482 19.5172 139.066 18.4192 140.285 17.9032 140.354 17.7872 140.063 18.0322 139.502 19.1702 137.723"></polygon>
            <polygon id="Fill-14" points="81.1617 233.3463 80.9607 234.0403 78.8017 232.9183 78.7117 232.6953 79.0507 232.5163 79.9717 232.4263 80.7577 232.7633"></polygon>
            <polygon id="Fill-15" points="173.2599 298.3044 176.4369 300.0004 176.8639 299.9324 176.3709 299.3484 174.1939 298.4264 173.1719 298.1424"></polygon>
            <polygon id="Fill-16" points="29.1616 138.8345 29.0496 139.1715 28.5566 139.5555 28.0836 139.5805 27.8126 139.4015 27.6296 139.0215 27.9426 138.6615 28.5266 138.3895 28.9106 138.5435"></polygon>
            <polygon id="Fill-17" points="81.2696 250.5152 81.2016 250.6952 80.5496 250.5822 80.1886 250.1572 80.0336 249.7312 80.2546 249.3732 80.6826 249.7352 80.9086 250.1342 81.1116 250.2022"></polygon>
            <polygon id="Fill-18" points="31.438 230.4556 31.641 230.8146 31.012 231.4866 30.561 231.3516 30.45 231.2186 30.495 230.9036 31.212 230.3446"></polygon>
            <polygon id="Fill-19" points="14.6338 110.1983 14.4548 110.4233 13.6148 109.8223 13.3208 109.3973 13.4528 109.1283 13.6788 109.0593 14.4508 109.8173"></polygon>
            <polygon id="Fill-20" points="24.0858 227.1864 23.5698 227.5444 23.6598 227.9474 25.0318 227.4324 25.0318 227.2744 24.6928 227.0964"></polygon>
            <polygon id="Fill-21" points="29.3706 234.1101 29.3476 234.9611 29.8436 234.8711 30.0676 234.6251 30.2246 234.2431 30.0676 234.0201 29.6176 233.9521"></polygon>
            <polygon id="Fill-22" points="17.8281 142.1157 17.6071 142.4707 17.6081 142.9357 17.8311 143.0017 18.1411 142.7357 18.5411 142.2247 18.5841 141.9377 18.3831 141.8267"></polygon>
            <polygon id="Fill-23" points="80.7786 235.0047 81.2736 235.8787 81.4766 235.9457 81.6336 235.6307 81.4106 234.8467 81.1406 234.5337"></polygon>
            <polygon id="Fill-24" points="19.0665 140.0988 18.6475 140.7188 18.6925 140.9858 18.9365 141.0728 19.3135 140.9398 19.5125 140.6518 19.4455 140.2088 19.2675 140.0548"></polygon>
            <polygon id="Fill-25" points="79.6536 239.9349 79.5856 240.6069 79.7436 240.9649 80.0366 240.9219 80.1476 239.8449 79.9466 239.5759"></polygon>
            <polygon id="Fill-26" points="80.1936 241.1004 80.4856 241.6624 80.8236 242.1104 81.0696 242.1774 81.1156 241.9084 80.5966 240.9434 80.2606 240.8764"></polygon>
            <polygon id="Fill-27" points="79.902 244.1973 80.147 243.9253 80.349 243.0513 79.838 242.2783"></polygon>
            <polygon id="Fill-28" points="17.6463 140.7441 17.4703 141.3871 17.7593 141.5851 18.0483 141.5401 18.2263 141.2741 18.2703 140.9861 18.0703 140.7441"></polygon>
            <polygon id="Fill-29" points="169.1703 294.1356 168.6083 294.4486 168.5623 294.6946 169.0323 294.8526 169.3483 294.6526 169.6643 294.1136"></polygon>
            <polygon id="Fill-30" points="16.785 142.761 16.787 143.336 16.92 143.557 17.187 143.645 17.343 143.312 17.118 142.517"></polygon>
            <polygon id="Fill-31" points="29.3598 235.4817 29.6368 235.5857 30.2928 235.5217 30.4718 235.3197 30.4278 234.9617"></polygon>
        </g>
        <g id="Group-5-Copy-2" transform="translate(1.000000, 132.000000)">
            <path d="M19.5007728,0 C30.2704791,0 39,8.72986684 39,19.5 C39,30.2701332 30.2704791,39 19.5007728,39 C8.73106646,39 0,30.2701332 0,19.5 C0,8.72986684 8.73106646,0 19.5007728,0 Z" id="Stroke-1" stroke="#E75F52"></path>
            <path d="M19.5,13 C23.0899976,13 26,15.910354 26,19.5007853 C26,23.089646 23.0899976,26 19.5,26 C15.9100024,26 13,23.089646 13,19.5007853 C13,15.910354 15.9100024,13 19.5,13" id="Fill-3" fill="#E75F52"></path>
        </g>
    </g>
</svg>