<?xml version="1.0" encoding="UTF-8"?>
<svg width="367px" height="301px" viewBox="0 0 367 301" version="1.1" xmlns="http://www.w3.org/2000/svg" xmlns:xlink="http://www.w3.org/1999/xlink">
    <!-- Generator: Sketch 64 (93537) - https://sketch.com -->
    <title>219</title>
    <desc>Created with Sketch.</desc>
    <g id="219" stroke="none" stroke-width="1" fill="none" fill-rule="evenodd">
        <g id="Group-4">
            <path d="M208.6839,1.392 L207.7909,3.172 L207.3469,3.615 L206.4569,4.507 L206.0109,4.948 L206.0109,5.838 L204.2249,8.065 L204.2249,8.953 L203.3359,9.84 L202.8879,10.733 L201.5539,12.512 L198.8749,12.957 L197.9869,12.957 L192.6369,11.623 L191.7449,11.623 L189.9599,12.51 L189.5139,12.51 L188.6259,10.286 L188.1799,7.617 L188.1799,5.392 L188.1799,4.055 L182.8289,4.944 L182.3829,4.944 L181.4909,5.833 L180.1539,6.28 L178.8169,6.723 L177.4779,7.613 L173.0199,9.838 L173.4659,11.174 L173.9129,13.398 L174.8019,15.626 L177.9239,20.076 L177.9239,21.41 L176.5869,22.3 L173.9129,22.745 L173.0199,22.3 L172.5759,22.3 L171.6859,22.3 L170.7929,21.857 L169.9009,20.077 L169.4569,19.631 L160.9849,20.077 L161.8749,22.301 L162.7679,23.193 L161.8749,23.638 L160.5379,24.081 L160.0919,23.638 L155.6329,28.978 L148.5009,35.659 L144.9349,37.438 L142.7039,39.218 L140.4779,39.218 L140.0309,39.218 L136.9089,40.108 L136.4649,41.443 L134.6809,42.778 L132.4529,43.668 L131.5599,43.668 L130.6699,42.778 L130.2259,43.223 L129.3359,44.56 L127.5509,45.005 L126.6579,45.005 L126.2139,44.115 L127.1039,43.672 L127.1039,42.335 L126.6579,41.89 L126.2139,41.89 L125.3239,43.225 L124.8799,44.115 L122.6469,44.115 L119.0809,43.672 L117.7419,43.225 L117.7419,40.556 L117.7419,38.33 L118.1899,37.44 L117.7419,36.551 L116.8539,36.109 L115.9639,36.551 L114.6249,35.215 L113.2859,35.215 L111.9499,35.215 L110.6109,34.77 L108.8279,33.88 L105.7059,33.439 L104.8159,32.992 L103.9229,32.992 L103.0359,32.551 L100.3579,30.322 L99.4699,29.879 L99.0219,30.322 L98.5759,30.769 L98.5759,32.105 L98.5759,32.551 L98.1319,32.105 L97.2399,31.213 L96.7939,31.213 L95.4569,32.105 L94.5649,32.551 L93.2279,31.659 L92.7819,31.659 L92.7819,32.105 L93.2279,38.334 L90.5549,38.781 L86.9849,39.224 L85.6479,38.781 L84.7579,38.334 L84.3119,38.334 L83.8669,36.999 L82.9759,36.556 L81.6369,34.776 L79.4109,32.994 L78.0709,30.77 L78.0709,30.322 L78.5169,29.88 L78.9629,30.322 L78.9629,29.88 L77.6259,27.654 L79.8509,25.872 L80.2969,24.984 L79.8509,23.649 L78.9629,22.312 L78.5169,19.643 L78.0709,19.643 L76.7339,20.533 L70.4919,22.312 L68.2639,23.204 L66.9229,23.647 L65.5869,23.647 L64.6969,24.535 L64.2509,24.535 L64.2509,23.647 L63.3599,23.647 L62.4679,24.982 L62.0219,24.982 L62.9119,23.203 L62.4679,23.203 L61.5759,23.646 L61.1319,24.981 L60.6879,25.424 L54.8909,27.65 L50.8789,29.433 L48.2039,31.657 L43.2979,35.218 L40.6229,36.109 L38.8399,37.445 L37.9489,38.332 L36.6119,38.778 L37.4999,40.113 L37.4999,40.558 L36.6119,40.113 L36.1659,39.668 L35.7219,39.223 L35.2739,40.113 L30.8199,43.23 L22.3479,48.573 L19.2259,49.908 L17.8889,50.797 L15.6579,52.578 L12.5369,53.468 L9.8639,54.803 L6.7419,56.584 L4.9589,57.919 L1.3929,59.699 L0.4999,60.148 L1.3919,61.927 L1.8379,63.707 L2.7259,70.386 L2.2799,71.721 L3.1719,73.95 L4.0649,74.391 L5.8489,74.836 L6.2929,75.28 L5.8489,76.616 L6.2929,77.955 L6.7389,78.396 L7.1809,79.286 L7.6269,81.065 L7.1799,82.405 L6.7369,82.852 L4.0629,85.97 L4.5089,86.415 L5.3999,86.415 L5.3999,87.747 L5.8469,88.637 L5.8469,90.863 L6.2879,91.751 L5.8469,92.643 L5.8469,93.978 L4.9549,96.204 L5.8469,96.204 L6.2879,96.204 L6.7359,97.541 L7.6239,98.875 L8.0719,101.1 L9.8569,101.547 L9.8569,101.1 L11.1929,100.212 L12.0849,100.655 L12.5289,101.547 L12.9749,101.547 L14.3159,101.547 L15.6499,101.547 L16.0979,101.992 L16.5419,102.88 L16.0979,104.214 L16.5419,104.66 L16.9879,105.103 L16.9879,105.993 L18.7749,106.885 L19.6649,108.22 L20.1069,109.999 L20.1069,110.444 L21.4479,111.336 L21.8929,112.224 L21.8929,113.559 L22.7849,115.338 L24.5639,116.673 L25.4569,116.232 L27.6869,115.342 L28.1329,115.785 L29.0229,117.12 L29.9129,118.457 L31.6979,118.457 L32.1439,119.349 L32.5899,119.349 L33.4779,118.904 L34.8169,118.457 L34.8169,117.568 L35.2629,115.787 L35.2629,115.344 L36.1549,114.899 L36.5989,114.454 L36.1549,113.102 L37.4919,111.767 L39.8079,111.767 L40.6979,110.879 L41.1459,110.434 L42.0359,109.991 L43.3729,109.101 L45.1589,109.101 L46.9409,108.211 L47.8329,107.766 L48.2769,108.211 L49.6159,108.656 L50.5059,108.656 L52.7369,106.876 L55.4089,106.433 L56.7489,106.876 L56.7489,107.764 L58.0849,110.881 L59.4219,111.77 L59.4219,113.104 L59.8699,113.997 L61.2069,114.885 L61.2069,115.332 L60.7639,116.218 L61.6529,117.107 L62.5429,117.999 L64.3289,117.999 L65.2199,118.441 L66.5569,120.224 L66.5569,121.559 L67.4449,123.338 L66.9989,123.338 L65.2199,124.676 L64.7719,125.117 L64.7719,126.007 L65.2199,127.346 L65.2199,128.233 L65.2199,129.121 L66.1099,131.35 L67.8929,133.574 L67.8929,135.354 L67.8929,135.799 L67.8929,137.134 L68.3369,138.468 L68.3369,139.361 L67.8929,139.804 L68.7839,141.139 L67.8929,141.584 L68.3369,142.027 L67.8929,142.919 L67.8929,144.698 L69.2319,146.478 L73.6899,149.147 L75.0269,149.594 L77.2559,151.375 L77.7009,151.375 L78.1459,151.375 L79.0379,150.04 L79.9279,150.04 L80.8199,150.04 L82.1569,149.595 L82.1569,149.148 L83.9399,149.595 L84.3859,149.148 L84.8319,147.814 L86.1689,146.032 L88.3979,146.032 L90.1829,146.924 L90.6269,147.812 L89.2899,149.592 L88.8419,150.036 L88.3979,150.928 L88.8419,152.264 L90.1829,152.264 L92.4089,151.372 L93.7499,151.372 L95.0879,150.93 L95.9779,151.372 L96.8659,152.264 L97.7589,152.264 L99.0979,151.372 L99.5439,151.372 L101.3259,153.598 L101.7689,154.936 L103.1099,156.273 L103.5539,156.716 L104.4459,157.157 L103.9999,159.383 L105.3369,160.721 L104.8929,162.055 L105.3369,163.836 L105.3369,165.616 L105.7809,166.504 L104.4449,168.732 L103.9989,170.509 L104.4449,170.956 L104.4449,171.4 L104.8899,173.181 L105.3329,174.072 L105.7789,175.852 L106.6719,177.189 L106.6719,177.634 L107.5649,178.522 L108.4549,178.968 L108.8999,178.968 L108.8999,177.634 L108.8999,177.189 L110.6829,178.524 L110.6829,178.078 L110.6829,176.299 L111.1269,174.517 L112.0199,173.182 L112.9089,172.74 L113.7999,173.182 L115.1369,172.295 L117.3679,172.74 L118.7039,172.295 L118.7039,172.74 L119.1499,173.628 L119.5979,173.628 L120.0419,172.74 L122.2689,172.295 L124.0529,174.517 L124.9469,174.517 L125.3909,174.517 L125.8369,174.517 L126.2789,175.854 L127.6179,176.299 L130.2949,175.409 L132.5239,174.074 L133.4139,173.629 L133.8599,174.517 L134.7479,173.629 L135.1959,174.074 L136.0859,173.629 L136.9779,173.188 L138.3169,173.188 L138.7629,172.296 L139.2069,171.85 L139.6529,172.296 L140.0989,173.629 L140.9889,174.52 L141.8809,174.52 L142.3229,175.857 L143.2159,176.302 L143.6629,176.749 L144.5519,178.971 L145.4449,178.081 L146.3349,178.526 L148.1169,180.307 L148.5619,181.646 L148.5619,182.535 L148.5619,183.425 L148.5619,184.313 L149.4539,184.313 L149.4539,184.76 L149.4539,186.094 L149.8999,186.537 L151.2389,186.537 L153.0219,186.094 L153.0219,185.206 L151.2389,183.867 L151.2389,182.98 L152.1289,182.532 L152.5729,182.089 L153.4649,182.532 L153.4649,183.423 L154.3579,183.867 L155.6949,184.314 L156.1389,184.759 L157.0279,185.649 L157.4749,186.536 L157.0279,187.873 L156.5849,188.32 L153.9099,190.542 L153.4639,191.433 L153.0199,192.772 L151.6829,192.772 L151.2369,193.659 L152.1249,195.883 L152.1249,197.219 L151.2369,198.112 L150.7909,199 L150.7909,199.443 L151.2369,199.888 L151.2369,200.78 L149.4519,202.56 L149.4519,203.895 L149.0079,205.231 L149.4519,205.678 L150.3449,206.123 L151.2329,205.678 L152.5699,204.788 L153.9089,205.231 L154.8019,205.231 L155.6919,205.231 L155.6919,206.57 L155.6919,207.902 L155.6919,208.792 L156.1359,209.237 L156.1359,209.682 L156.1359,210.129 L156.1359,210.572 L157.0259,211.015 L157.9189,212.352 L158.3649,213.688 L158.3649,214.577 L158.3649,215.024 L155.6899,216.802 L154.7999,217.693 L154.3539,217.693 L153.0149,217.693 L152.1229,217.693 L151.6809,218.135 L150.3429,220.362 L149.8949,220.805 L149.8949,221.697 L149.8949,223.034 L150.3429,224.368 L151.2329,224.368 L151.6769,225.255 L152.1209,225.703 L150.3419,227.926 L150.3419,228.372 L151.2299,228.817 L152.5689,228.372 L153.4589,228.817 L153.4589,229.261 L154.3519,229.261 L155.2419,229.707 L154.7979,231.044 L155.2419,231.489 L156.1319,231.489 L157.4689,231.489 L158.3619,231.044 L160.1449,230.597 L163.2669,230.152 L164.1549,229.708 L165.4919,229.708 L165.9389,229.708 L167.7229,230.597 L168.1669,230.152 L169.0589,231.491 L169.9489,231.931 L172.6259,231.931 L173.0699,232.82 L173.9599,233.267 L174.8529,232.82 L178.4189,233.71 L178.8619,234.155 L180.2039,234.155 L182.4309,233.267 L182.8769,233.267 L185.5519,232.82 L186.8889,231.488 L187.7819,229.706 L188.6709,229.706 L189.5639,229.706 L190.9009,229.26 L191.7919,227.481 L192.6819,227.036 L195.8029,227.036 L196.2509,226.591 L198.4779,226.146 L199.3679,226.146 L199.8159,225.703 L201.6009,225.255 L202.0429,225.255 L202.0429,224.368 L202.4909,222.588 L203.3789,219.915 L203.8279,217.246 L203.8279,216.358 L202.0419,215.911 L201.5969,215.466 L202.4899,214.131 L202.4899,213.242 L202.9319,212.352 L204.2729,210.573 L206.9459,209.236 L207.8379,209.236 L208.2839,208.345 L208.7269,207.458 L209.1759,206.124 L209.6219,204.787 L213.1889,202.562 L214.0789,202.562 L214.5239,201.223 L214.9679,200.336 L215.4159,200.336 L216.7529,201.671 L218.9829,202.562 L220.7649,202.118 L220.7649,202.562 L221.2109,203.451 L222.5499,204.341 L221.2109,205.229 L219.8699,206.569 L220.3159,207.901 L219.8699,209.682 L220.3159,210.572 L220.3159,211.46 L219.8699,211.905 L218.9829,210.128 L217.6439,210.571 L217.1989,211.459 L217.6439,212.348 L217.1989,212.796 L217.1989,213.683 L217.1989,215.021 L215.8589,215.021 L215.8589,216.801 L215.4159,216.801 L215.4159,217.244 L217.1989,218.135 L217.1989,219.026 L215.4159,220.803 L214.9679,222.585 L215.4159,223.472 L214.9679,224.365 L215.4159,225.253 L214.9679,225.253 L214.0789,227.482 L213.1889,227.922 L212.7399,228.369 L212.2939,230.595 L213.1879,231.929 L213.6329,231.929 L216.3029,232.376 L217.1969,232.376 L218.0889,233.263 L218.9799,235.047 L219.8669,235.491 L220.7599,236.378 L221.2059,237.269 L221.6499,239.496 L221.2059,240.385 L220.3139,242.167 L218.9759,245.283 L218.5339,245.73 L218.5339,246.175 L218.9759,248.397 L219.8659,248.842 L219.8659,250.181 L220.7589,251.961 L220.7589,252.408 L219.8659,253.295 L218.9759,255.524 L218.9759,255.967 L218.9759,256.414 L219.8659,256.854 L220.3149,255.966 L220.7599,255.966 L222.5449,256.854 L223.8809,256.854 L225.2179,256.854 L227.4489,255.966 L227.4489,255.078 L228.7859,254.63 L229.2319,255.078 L229.6789,254.63 L230.5709,254.63 L231.9089,255.078 L232.3549,255.523 L232.7959,255.966 L233.6899,257.746 L235.0259,258.634 L236.8089,259.526 L237.7009,259.526 L238.5909,259.526 L239.0389,259.968 L239.0389,260.857 L240.3759,260.857 L241.2659,260.416 L242.1559,260.857 L245.2779,265.311 L244.8339,267.092 L245.2779,267.98 L246.1699,267.535 L246.6139,267.98 L247.0629,268.426 L247.5059,267.088 L247.9519,267.088 L248.8439,268.426 L248.8439,269.316 L248.8439,269.759 L248.8439,270.649 L249.2879,270.649 L250.6269,270.649 L251.9639,271.095 L252.4119,270.649 L253.2999,270.649 L253.7459,271.54 L254.1919,271.54 L255.0839,271.54 L256.8669,271.54 L258.2039,270.649 L259.0959,270.649 L260.4329,272.431 L262.6619,273.765 L263.5529,274.654 L263.9999,275.102 L265.3369,276.883 L263.9999,277.771 L263.1089,279.55 L262.6619,280.89 L263.5529,283.114 L263.5529,282.667 L264.4459,281.779 L266.6729,281.336 L266.2259,280.446 L267.1189,280.003 L268.4579,280.893 L268.9049,280.893 L269.7919,281.336 L270.6849,281.779 L275.1389,285.342 L274.6969,286.232 L276.0349,289.352 L277.3729,289.792 L276.4819,292.02 L277.8199,292.91 L278.7099,293.797 L278.7099,294.687 L277.8199,295.133 L276.9259,296.468 L276.0359,296.468 L275.5889,296.913 L278.2659,298.248 L278.7119,299.137 L279.5989,300.475 L279.5989,299.137 L280.4929,297.802 L282.7219,298.246 L284.0589,297.356 L285.3959,296.911 L286.7339,294.684 L287.6259,294.684 L288.5159,294.684 L291.1919,296.021 L291.1919,296.468 L292.0809,297.802 L292.9729,298.246 L293.4189,297.356 L293.4189,296.468 L292.9729,294.683 L293.4189,293.797 L294.7579,292.907 L294.7579,292.462 L296.0949,291.572 L296.9859,291.572 L298.7699,292.015 L301.4429,292.907 L303.6719,292.907 L303.6719,292.015 L304.5649,292.462 L305.0059,292.907 L305.4539,292.907 L306.3459,292.907 L306.3459,292.015 L306.7899,291.572 L306.3459,290.68 L306.7899,289.792 L308.1289,289.351 L309.4659,290.239 L310.3559,291.129 L310.8029,291.129 L311.2499,291.129 L312.5859,292.019 L317.9369,287.566 L317.4919,286.676 L317.9369,285.788 L317.0459,285.346 L316.1579,285.788 L315.7119,284.453 L315.7119,284.007 L317.9379,282.671 L317.9379,280.894 L318.8299,279.557 L318.8299,279.11 L318.8299,278.221 L320.1689,278.221 L320.6149,277.776 L320.6149,276.887 L320.6149,275.996 L320.6149,275.553 L321.0599,274.215 L320.1689,273.324 L316.1569,271.99 L316.6019,271.099 L317.0449,269.318 L318.8299,267.541 L317.4909,264.871 L316.6019,264.871 L315.7109,264.871 L314.8189,265.313 L313.0339,264.871 L313.0339,263.982 L313.4809,262.644 L313.4809,261.753 L312.1439,260.865 L311.6979,259.531 L309.0199,254.188 L308.5749,254.63 L307.2389,254.63 L305.8999,255.076 L305.4539,251.962 L305.0059,251.516 L305.0059,249.735 L304.1179,248.398 L305.0059,247.51 L305.4539,246.62 L305.4539,245.728 L306.3459,244.839 L305.4539,243.505 L305.8999,243.058 L307.6859,243.505 L308.5729,243.058 L308.1289,242.171 L307.2389,241.281 L306.3469,240.389 L305.0059,240.389 L303.6699,239.501 L305.0059,237.718 L305.8989,236.83 L306.3449,236.83 L306.3449,234.606 L306.7909,234.161 L307.2379,233.271 L307.2379,231.933 L307.6809,230.155 L308.5709,229.708 L309.4629,229.265 L310.3549,229.708 L310.8009,229.265 L310.8009,228.375 L311.2469,227.929 L311.6929,227.929 L313.0299,227.487 L313.4749,225.707 L312.5819,225.262 L312.1409,224.37 L311.6939,223.927 L311.6939,222.147 L312.1409,221.704 L314.3669,220.365 L315.2589,219.033 L315.2589,218.588 L316.1489,217.251 L316.1489,216.803 L314.8129,215.469 L314.8129,214.581 L315.2569,213.688 L316.5939,212.798 L317.4869,212.798 L317.9299,212.356 L317.9299,211.465 L317.9299,210.578 L318.3779,209.687 L318.8239,208.349 L318.8239,207.46 L319.2709,206.126 L320.6069,205.68 L324.6209,203.901 L324.6209,201.232 L325.0659,200.341 L324.6209,198.559 L325.9569,197.672 L328.1889,197.672 L330.4149,196.333 L330.8599,196.333 L331.3049,196.778 L331.3049,198.558 L332.1979,199 L333.5359,199.448 L334.4279,200.336 L334.8679,200.336 L335.7619,199.892 L336.2069,199.448 L336.2069,197.668 L338.8779,198.112 L339.3259,198.112 L340.2169,199 L339.7729,199.891 L340.2169,200.782 L339.7729,202.117 L340.6639,203.005 L341.5559,203.896 L342.4459,203.005 L342.8909,202.564 L343.3359,201.674 L343.3359,200.785 L341.9989,200.785 L342.4439,199.894 L342.8919,199.448 L341.9989,198.114 L342.8919,196.777 L343.7789,197.224 L344.2279,196.332 L344.6739,196.332 L346.4559,196.332 L346.9019,195.442 L346.4559,194.11 L346.4559,193.22 L346.0129,191.435 L345.5669,190.548 L344.6739,190.548 L344.2279,190.104 L345.1199,189.215 L345.1199,188.771 L345.5669,187.88 L346.0129,187.88 L346.9019,187.88 L347.3449,187.435 L347.7899,186.544 L347.7899,185.658 L348.2379,185.212 L349.5769,184.768 L350.4699,184.323 L352.2499,183.876 L352.6969,182.989 L354.4809,183.43 L356.2619,181.654 L355.8139,180.764 L355.8139,179.426 L356.2619,178.535 L356.7059,177.201 L357.1529,176.758 L357.6009,176.312 L358.0469,175.422 L358.9389,175.422 L359.3829,174.978 L359.8279,174.978 L361.6109,175.868 L362.5029,176.758 L365.1769,174.976 L366.4999,174.976 L366.4999,174.529 L366.0519,171.86 L363.3789,169.193 L362.9349,168.748 L362.4879,168.302 L360.2559,166.52 L360.7019,165.63 L362.9349,162.07 L362.4879,160.736 L362.9349,159.399 L363.8249,158.061 L363.3789,155.836 L360.2549,154.055 L360.2549,153.163 L360.7009,151.387 L360.7009,150.494 L358.9209,149.607 L357.1349,149.159 L355.7969,149.159 L355.3509,149.159 L354.4629,148.273 L353.1239,148.717 L352.6779,148.717 L351.7859,148.273 L350.8969,148.717 L349.5579,149.606 L349.1139,149.606 L348.2209,147.382 L347.7749,146.937 L347.3269,146.937 L346.8849,146.047 L345.9949,144.712 L346.4359,143.821 L346.4359,143.379 L345.9949,142.931 L345.5489,142.931 L344.6569,142.931 L344.6569,142.044 L344.6569,140.709 L344.2109,140.264 L346.4409,138.483 L347.3279,137.591 L348.6689,136.259 L349.1139,134.92 L349.5609,134.92 L350.4529,135.811 L350.8949,135.367 L351.3409,133.14 L352.2329,132.249 L353.1249,130.914 L352.6789,129.578 L350.4519,130.468 L349.5599,130.024 L347.7749,129.132 L345.9939,129.132 L345.1009,130.024 L344.6559,130.024 L344.2099,129.578 L344.6559,129.132 L343.7629,128.691 L343.3189,127.802 L345.1029,126.021 L343.3189,125.574 L343.3189,124.67 L342.4269,123.336 L341.9799,122.888 L341.5389,122.446 L338.4149,118.44 L337.9689,117.103 L337.5269,115.768 L333.5129,115.768 L332.6209,115.768 L332.1769,115.768 L331.2859,116.213 L330.3929,116.213 L329.9489,114.876 L330.8389,113.095 L330.3929,112.206 L329.0549,111.319 L326.8269,111.319 L325.0419,111.319 L324.1519,111.319 L323.7059,109.981 L322.8159,109.981 L321.4759,110.87 L320.1399,110.87 L319.2499,111.317 L318.8039,111.758 L317.9119,111.317 L317.4659,111.758 L316.5759,111.758 L316.1299,111.317 L316.1299,110.427 L316.1299,109.981 L315.6859,109.09 L314.7939,109.534 L313.9009,109.981 L313.4559,109.981 L312.5639,110.87 L312.1219,109.981 L312.1219,109.534 L308.9979,111.319 L308.5519,111.319 L306.7689,109.09 L305.8769,109.534 L304.9869,107.311 L304.5429,107.311 L302.7599,108.646 L301.8669,109.982 L301.8669,110.871 L301.4209,110.871 L300.9759,110.871 L300.0869,109.982 L298.7499,110.871 L297.8569,111.318 L297.4109,111.318 L296.5199,110.871 L298.3039,108.199 L298.3039,107.312 L297.4119,105.53 L297.8579,104.194 L297.4119,103.752 L296.9679,103.306 L295.1869,101.08 L293.4019,99.3 L292.9549,96.181 L292.9549,94.403 L292.9549,93.959 L294.2929,92.621 L295.1859,93.067 L296.0769,92.177 L296.5189,90.839 L296.9659,89.061 L299.6409,88.169 L300.5319,85.501 L301.8679,83.719 L302.3159,82.385 L303.2059,81.942 L302.3159,80.605 L300.0869,81.493 L299.6409,80.605 L300.9769,78.823 L300.9769,78.378 L303.2069,76.151 L304.0979,74.373 L304.5449,70.812 L303.2059,69.922 L303.2059,69.477 L304.0969,67.697 L304.5439,66.807 L304.5439,65.472 L305.4339,65.472 L306.3259,65.917 L306.7699,64.582 L306.7699,64.14 L307.2159,62.805 L306.7699,61.47 L306.7699,61.027 L307.2159,60.582 L308.5519,60.582 L309.8919,60.135 L309.8919,59.247 L308.1089,58.358 L308.1089,57.024 L308.5519,55.687 L309.8919,55.242 L310.7829,54.354 L311.2269,53.461 L311.2269,52.128 L309.8909,51.238 L309.4449,51.238 L308.9989,51.238 L307.2159,51.238 L306.7699,50.791 L306.7699,50.348 L306.3259,49.905 L306.7699,49.46 L305.8779,48.57 L301.8659,46.79 L299.6389,47.234 L298.3009,47.68 L296.9629,47.68 L294.7369,47.234 L294.2899,46.79 L288.0449,45.901 L287.1549,44.122 L285.8179,42.785 L283.5879,41.448 L283.5879,38.777 L283.5879,35.663 L281.8059,33.881 L276.8989,30.32 L275.1169,32.546 L272.8889,33.881 L271.5479,34.326 L270.6599,35.663 L268.8769,35.216 L263.9689,34.328 L263.0789,36.109 L261.7429,36.109 L255.4999,36.553 L254.1609,36.998 L253.2679,36.553 L252.3809,35.665 L252.3809,35.218 L254.1619,30.322 L251.9339,28.542 L250.5959,27.654 L250.1499,28.099 L246.5839,28.987 L245.2429,28.987 L244.3549,28.542 L244.3549,26.759 L243.4629,23.201 L240.7899,19.64 L239.8979,19.195 L238.1149,17.411 L239.8979,12.516 L239.4539,8.509 L238.5609,5.839 L235.8849,5.839 L235.4429,5.392 L234.9949,3.169 L234.5489,3.612 L234.1049,4.058 L232.3209,5.838 L233.2119,7.62 L232.7649,8.061 L232.3209,8.949 L230.9819,10.288 L224.7399,16.966 L224.2959,16.966 L222.0689,14.296 L221.6219,14.296 L220.7299,14.296 L218.5039,14.739 L217.1649,14.296 L212.7069,14.739 L211.3689,14.296 L210.0319,13.851 L210.0319,11.627 L210.9199,11.627 L215.3799,12.961 L214.9339,11.181 L214.9339,11.192 L214.4729,11.192 L214.0289,9.41 L214.0289,8.069 L214.9189,7.624 L214.9189,5.841 L215.3659,4.507 L215.3659,4.063 L214.9189,4.063 L214.0289,2.28 L210.9069,1.393 L210.4669,0.5 L208.6839,1.392 Z M224.5379,9.26 L224.9569,9.679 L225.0989,9.502 L225.0989,9.821 L225.4979,10.22 L225.4979,9.74 L225.4979,9.26 L225.9799,9.26 L225.9799,9.74 L226.4599,9.26 L226.4619,9.26 L226.4619,8.78 L224.5379,9.26 Z M223.4999,9.5 L223.9009,10 L223.9009,11.5 L224.2999,12.002 L225.0999,12.5 L225.4999,12.002 L225.4999,11.5 L225.0989,11.002 L224.6989,10.502 L225.0989,10.502 L225.0989,10.001 L225.0989,9.821 L225.0179,9.74 L224.9569,9.679 L224.2989,10.502 L224.2989,11.002 L223.9009,9.5 L223.4999,9.5 Z" id="Fill-1" fill="#FFFFFF"></path>
            <path d="M223.5,9.4999 L223.901,9.9999 L223.901,11.4999 L224.3,12.0019 L225.1,12.4999 L225.5,12.0019 L225.5,11.4999 L225.099,11.0019 L224.698,10.5019 L225.099,10.5019 L225.099,10.0019 L225.099,9.5019 L224.299,10.5019 L224.299,11.0019 L223.901,9.4999 L223.5,9.4999 Z M224.538,9.2599 L225.018,9.7399 L225.498,10.2199 L225.498,9.7399 L225.498,9.2599 L225.98,9.2599 L225.98,9.7399 L226.46,9.2599 L226.462,9.2599 L226.462,8.7799 L224.538,9.2599 Z M210.467,0.4999 L208.684,1.3919 L207.791,3.1719 L207.347,3.6149 L206.457,4.5069 L206.011,4.9479 L206.011,5.8379 L204.226,8.0649 L204.226,8.9529 L203.336,9.8409 L202.888,10.7329 L201.554,12.5119 L198.875,12.9569 L197.987,12.9569 L192.637,11.6229 L191.745,11.6229 L189.96,12.5099 L189.514,12.5099 L188.626,10.2859 L188.18,7.6169 L188.18,5.3929 L188.18,4.0549 L182.829,4.9449 L182.383,4.9449 L181.491,5.8329 L180.154,6.2799 L178.817,6.7229 L177.478,7.6129 L173.02,9.8389 L173.466,11.1739 L173.912,13.3979 L174.802,15.6269 L177.924,20.0759 L177.924,21.4099 L176.587,22.2999 L173.912,22.7449 L173.02,22.2999 L172.576,22.2999 L171.686,22.2999 L170.793,21.8569 L169.901,20.0769 L169.457,19.6319 L160.985,20.0769 L161.875,22.3009 L162.768,23.1929 L161.875,23.6379 L160.538,24.0809 L160.092,23.6379 L155.634,28.9779 L148.501,35.6589 L144.935,37.4379 L142.704,39.2179 L140.477,39.2179 L140.031,39.2179 L136.909,40.1079 L136.465,41.4429 L134.68,42.7779 L132.453,43.6679 L131.56,43.6679 L130.67,42.7779 L130.226,43.2229 L129.336,44.5599 L127.551,45.0049 L126.658,45.0049 L126.214,44.1149 L127.104,43.6719 L127.104,42.3349 L126.658,41.8899 L126.214,41.8899 L125.324,43.2249 L124.88,44.1149 L122.647,44.1149 L119.081,43.6719 L117.742,43.2249 L117.742,40.5559 L117.742,38.3299 L118.19,37.4399 L117.742,36.5519 L116.854,36.1089 L115.964,36.5519 L114.625,35.2149 L113.286,35.2149 L111.95,35.2149 L110.611,34.7699 L108.828,33.8799 L105.706,33.4389 L104.816,32.9919 L103.923,32.9919 L103.035,32.5509 L100.358,30.3219 L99.47,29.8789 L99.022,30.3219 L98.576,30.7689 L98.576,32.1059 L98.576,32.5509 L98.132,32.1059 L97.24,31.2139 L96.794,31.2139 L95.457,32.1059 L94.565,32.5509 L93.228,31.6589 L92.782,31.6589 L92.782,32.1059 L93.228,38.3339 L90.555,38.7809 L86.985,39.2239 L85.648,38.7809 L84.758,38.3339 L84.312,38.3339 L83.866,36.9989 L82.976,36.5559 L81.637,34.7759 L79.41,32.9939 L78.071,30.7699 L78.071,30.3229 L78.517,29.8799 L78.963,30.3229 L78.963,29.8799 L77.626,27.6539 L79.851,25.8719 L80.297,24.9839 L79.851,23.6489 L78.963,22.3119 L78.517,19.6429 L78.071,19.6429 L76.734,20.5329 L70.491,22.3119 L68.264,23.2039 L66.923,23.6469 L65.587,23.6469 L64.697,24.5349 L64.251,24.5349 L64.251,23.6469 L63.36,23.6469 L62.468,24.9819 L62.022,24.9819 L62.912,23.2029 L62.468,23.2029 L61.576,23.6459 L61.132,24.9809 L60.688,25.4239 L54.891,27.6509 L50.879,29.4329 L48.204,31.6569 L43.298,35.2179 L40.623,36.1099 L38.84,37.4449 L37.948,38.3329 L36.612,38.7779 L37.5,40.1129 L37.5,40.5579 L36.612,40.1129 L36.166,39.6679 L35.722,39.2229 L35.274,40.1129 L30.82,43.2299 L22.348,48.5729 L19.226,49.9079 L17.889,50.7979 L15.658,52.5779 L12.537,53.4679 L9.864,54.8029 L6.742,56.5849 L4.959,57.9189 L1.393,59.6989 L0.5,60.1479 L1.392,61.9269 L1.838,63.7069 L2.726,70.3859 L2.28,71.7209 L3.172,73.9499 L4.064,74.3909 L5.849,74.8359 L6.293,75.2809 L5.849,76.6159 L6.293,77.9549 L6.739,78.3959 L7.181,79.2859 L7.627,81.0659 L7.18,82.4049 L6.738,82.8519 L4.063,85.9699 L4.509,86.4149 L5.4,86.4149 L5.4,87.7469 L5.846,88.6369 L5.846,90.8629 L6.288,91.7509 L5.846,92.6429 L5.846,93.9779 L4.954,96.2039 L5.846,96.2039 L6.288,96.2039 L6.736,97.5409 L7.624,98.8759 L8.072,101.0999 L9.857,101.5469 L9.857,101.0999 L11.193,100.2119 L12.085,100.6549 L12.529,101.5469 L12.975,101.5469 L14.316,101.5469 L15.65,101.5469 L16.098,101.9919 L16.542,102.8799 L16.098,104.2149 L16.542,104.6599 L16.988,105.1029 L16.988,105.9929 L18.775,106.8849 L19.665,108.2199 L20.107,109.9989 L20.107,110.4439 L21.448,111.3359 L21.892,112.2239 L21.892,113.5589 L22.785,115.3389 L24.564,116.6729 L25.456,116.2319 L27.687,115.3419 L28.133,115.7849 L29.023,117.1199 L29.913,118.4569 L31.698,118.4569 L32.144,119.3489 L32.59,119.3489 L33.478,118.9039 L34.817,118.4569 L34.817,117.5689 L35.263,115.7869 L35.263,115.3439 L36.155,114.8989 L36.599,114.4539 L36.155,113.1019 L37.492,111.7669 L39.808,111.7669 L40.698,110.8789 L41.146,110.4339 L42.036,109.9909 L43.373,109.1009 L45.158,109.1009 L46.941,108.2109 L47.833,107.7659 L48.277,108.2109 L49.616,108.6559 L50.506,108.6559 L52.737,106.8759 L55.408,106.4329 L56.749,106.8759 L56.749,107.7639 L58.085,110.8819 L59.422,111.7699 L59.422,113.1049 L59.87,113.9969 L61.207,114.8849 L61.207,115.3319 L60.763,116.2189 L61.653,117.1069 L62.543,117.9989 L64.328,117.9989 L65.22,118.4419 L66.557,120.2239 L66.557,121.5589 L67.445,123.3389 L66.999,123.3389 L65.22,124.6759 L64.772,125.1169 L64.772,126.0069 L65.22,127.3459 L65.22,128.2329 L65.22,129.1209 L66.11,131.3499 L67.893,133.5739 L67.893,135.3539 L67.893,135.7989 L67.893,137.1339 L68.337,138.4689 L68.337,139.3609 L67.893,139.8039 L68.783,141.1389 L67.893,141.5839 L68.337,142.0269 L67.893,142.9189 L67.893,144.6979 L69.232,146.4779 L73.69,149.1469 L75.027,149.5939 L77.256,151.3749 L77.7,151.3749 L78.146,151.3749 L79.038,150.0399 L79.928,150.0399 L80.82,150.0399 L82.157,149.5949 L82.157,149.1479 L83.94,149.5949 L84.386,149.1479 L84.832,147.8139 L86.169,146.0319 L88.398,146.0319 L90.183,146.9239 L90.627,147.8119 L89.29,149.5929 L88.842,150.0359 L88.398,150.9279 L88.842,152.2649 L90.183,152.2649 L92.408,151.3729 L93.749,151.3729 L95.088,150.9299 L95.978,151.3729 L96.866,152.2649 L97.759,152.2649 L99.098,151.3729 L99.544,151.3729 L101.325,153.5989 L101.769,154.9359 L103.11,156.2729 L103.554,156.7159 L104.446,157.1569 L104,159.3839 L105.337,160.7209 L104.893,162.0559 L105.337,163.8359 L105.337,165.6159 L105.781,166.5039 L104.445,168.7309 L103.999,170.5099 L104.445,170.9569 L104.445,171.3999 L104.889,173.1819 L105.333,174.0719 L105.779,175.8519 L106.672,177.1889 L106.672,177.6339 L107.564,178.5219 L108.454,178.9689 L108.9,178.9689 L108.9,177.6339 L108.9,177.1889 L110.683,178.5229 L110.683,178.0779 L110.683,176.2989 L111.127,174.5169 L112.02,173.1829 L112.908,172.7399 L113.8,173.1829 L115.137,172.2949 L117.368,172.7399 L118.704,172.2949 L118.704,172.7399 L119.15,173.6279 L119.598,173.6279 L120.042,172.7399 L122.269,172.2949 L124.054,174.5169 L124.947,174.5169 L125.391,174.5169 L125.837,174.5169 L126.279,175.8539 L127.618,176.2989 L130.295,175.4089 L132.524,174.0739 L133.414,173.6289 L133.86,174.5169 L134.748,173.6289 L135.196,174.0739 L136.086,173.6289 L136.978,173.1879 L138.317,173.1879 L138.763,172.2959 L139.207,171.8509 L139.653,172.2959 L140.099,173.6299 L140.989,174.5199 L141.882,174.5199 L142.324,175.8569 L143.216,176.3019 L143.662,176.7489 L144.552,178.9709 L145.445,178.0809 L146.335,178.5259 L148.116,180.3079 L148.562,181.6459 L148.562,182.5349 L148.562,183.4249 L148.562,184.3129 L149.454,184.3129 L149.454,184.7599 L149.454,186.0939 L149.9,186.5369 L151.239,186.5369 L153.022,186.0939 L153.022,185.2059 L151.239,183.8669 L151.239,182.9789 L152.129,182.5319 L152.573,182.0889 L153.465,182.5319 L153.465,183.4239 L154.358,183.8669 L155.695,184.3139 L156.139,184.7589 L157.029,185.6489 L157.475,186.5359 L157.029,187.8729 L156.585,188.3199 L153.91,190.5419 L153.464,191.4339 L153.02,192.7709 L151.683,192.7709 L151.237,193.6589 L152.125,195.8829 L152.125,197.2199 L151.237,198.1119 L150.791,198.9999 L150.791,199.4429 L151.237,199.8879 L151.237,200.7799 L149.452,202.5609 L149.452,203.8949 L149.008,205.2309 L149.452,205.6779 L150.345,206.1229 L151.233,205.6779 L152.57,204.7879 L153.909,205.2309 L154.802,205.2309 L155.692,205.2309 L155.692,206.5699 L155.692,207.9019 L155.692,208.7919 L156.136,209.2369 L156.136,209.6819 L156.136,210.1289 L156.136,210.5719 L157.026,211.0149 L157.919,212.3529 L158.365,213.6869 L158.365,214.5769 L158.365,215.0239 L155.69,216.8029 L154.8,217.6929 L154.354,217.6929 L153.015,217.6929 L152.122,217.6929 L151.68,218.1359 L150.343,220.3619 L149.895,220.8049 L149.895,221.6969 L149.895,223.0339 L150.343,224.3679 L151.233,224.3679 L151.677,225.2559 L152.121,225.7029 L150.342,227.9269 L150.342,228.3719 L151.23,228.8169 L152.569,228.3719 L153.459,228.8169 L153.459,229.2619 L154.352,229.2619 L155.242,229.7069 L154.798,231.0439 L155.242,231.4889 L156.132,231.4889 L157.469,231.4889 L158.362,231.0439 L160.145,230.5969 L163.267,230.1519 L164.155,229.7089 L165.492,229.7089 L165.938,229.7089 L167.723,230.5969 L168.167,230.1519 L169.059,231.4909 L169.949,231.9319 L172.626,231.9319 L173.07,232.8199 L173.96,233.2679 L174.853,232.8199 L178.419,233.7099 L178.863,234.1549 L180.204,234.1549 L182.431,233.2679 L182.877,233.2679 L185.552,232.8199 L186.889,231.4879 L187.781,229.7059 L188.671,229.7059 L189.563,229.7059 L190.9,229.2609 L191.792,227.4809 L192.682,227.0359 L195.803,227.0359 L196.251,226.5909 L198.478,226.1459 L199.368,226.1459 L199.816,225.7029 L201.601,225.2559 L202.043,225.2559 L202.043,224.3679 L202.491,222.5879 L203.379,219.9149 L203.827,217.2459 L203.827,216.3579 L202.042,215.9109 L201.598,215.4659 L202.49,214.1319 L202.49,213.2419 L202.932,212.3529 L204.273,210.5729 L206.946,209.2359 L207.838,209.2359 L208.284,208.3459 L208.728,207.4579 L209.176,206.1239 L209.622,204.7869 L213.188,202.5619 L214.078,202.5619 L214.524,201.2239 L214.968,200.3359 L215.416,200.3359 L216.753,201.6709 L218.982,202.5619 L220.765,202.1179 L220.765,202.5619 L221.211,203.4509 L222.55,204.3409 L221.211,205.2289 L219.87,206.5679 L220.316,207.8999 L219.87,209.6819 L220.316,210.5719 L220.316,211.4599 L219.87,211.9049 L218.982,210.1279 L217.645,210.5709 L217.199,211.4589 L217.645,212.3489 L217.199,212.7959 L217.199,213.6839 L217.199,215.0209 L215.858,215.0209 L215.858,216.8009 L215.416,216.8009 L215.416,217.2439 L217.199,218.1359 L217.199,219.0259 L215.416,220.8029 L214.968,222.5849 L215.416,223.4729 L214.968,224.3649 L215.416,225.2529 L214.968,225.2529 L214.078,227.4819 L213.188,227.9219 L212.74,228.3689 L212.294,230.5949 L213.187,231.9289 L213.633,231.9289 L216.304,232.3759 L217.197,232.3759 L218.089,233.2639 L218.979,235.0479 L219.867,235.4909 L220.76,236.3789 L221.206,237.2699 L221.65,239.4959 L221.206,240.3859 L220.313,242.1669 L218.976,245.2829 L218.534,245.7299 L218.534,246.1749 L218.976,248.3969 L219.866,248.8419 L219.866,250.1809 L220.759,251.9609 L220.759,252.4079 L219.866,253.2949 L218.976,255.5239 L218.976,255.9669 L218.976,256.4139 L219.866,256.8539 L220.314,255.9659 L220.76,255.9659 L222.545,256.8539 L223.881,256.8539 L225.218,256.8539 L227.449,255.9659 L227.449,255.0779 L228.785,254.6309 L229.231,255.0779 L229.679,254.6309 L230.571,254.6309 L231.908,255.0779 L232.354,255.5229 L232.796,255.9659 L233.689,257.7459 L235.026,258.6339 L236.809,259.5259 L237.701,259.5259 L238.591,259.5259 L239.039,259.9689 L239.039,260.8569 L240.376,260.8569 L241.266,260.4169 L242.156,260.8569 L245.278,265.3109 L244.834,267.0919 L245.278,267.9799 L246.17,267.5349 L246.614,267.9799 L247.062,268.4269 L247.506,267.0879 L247.952,267.0879 L248.844,268.4269 L248.844,269.3149 L248.844,269.7599 L248.844,270.6479 L249.288,270.6479 L250.627,270.6479 L251.964,271.0949 L252.412,270.6479 L253.3,270.6479 L253.746,271.5399 L254.192,271.5399 L255.084,271.5399 L256.867,271.5399 L258.204,270.6479 L259.096,270.6479 L260.433,272.4319 L262.662,273.7659 L263.554,274.6539 L264,275.1019 L265.337,276.8829 L264,277.7709 L263.108,279.5509 L262.662,280.8899 L263.554,283.1139 L263.554,282.6669 L264.446,281.7789 L266.673,281.3359 L266.227,280.4459 L267.119,280.0029 L268.458,280.8939 L268.904,280.8939 L269.792,281.3359 L270.685,281.7789 L275.139,285.3419 L274.697,286.2319 L276.034,289.3529 L277.373,289.7929 L276.481,292.0209 L277.82,292.9099 L278.71,293.7979 L278.71,294.6869 L277.82,295.1329 L276.927,296.4679 L276.035,296.4679 L275.589,296.9129 L278.266,298.2479 L278.712,299.1379 L279.6,300.4759 L279.6,299.1379 L280.493,297.8029 L282.722,298.2459 L284.059,297.3559 L285.396,296.9109 L286.733,294.6849 L287.626,294.6849 L288.516,294.6849 L291.191,296.0209 L291.191,296.4679 L292.081,297.8029 L292.973,298.2459 L293.419,297.3559 L293.419,296.4679 L292.973,294.6839 L293.419,293.7969 L294.758,292.9069 L294.758,292.4619 L296.095,291.5719 L296.985,291.5719 L298.771,292.0149 L301.443,292.9069 L303.672,292.9069 L303.672,292.0149 L304.564,292.4619 L305.006,292.9069 L305.454,292.9069 L306.346,292.9069 L306.346,292.0149 L306.79,291.5719 L306.346,290.6799 L306.79,289.7919 L308.129,289.3509 L309.466,290.2389 L310.356,291.1289 L310.804,291.1289 L311.25,291.1289 L312.586,292.0199 L317.937,287.5659 L317.492,286.6759 L317.937,285.7879 L317.046,285.3469 L316.158,285.7879 L315.712,284.4529 L315.712,284.0079 L317.938,282.6709 L317.938,280.8949 L318.83,279.5569 L318.83,279.1099 L318.83,278.2219 L320.169,278.2219 L320.615,277.7749 L320.615,276.8879 L320.615,275.9959 L320.615,275.5529 L321.06,274.2159 L320.169,273.3239 L316.157,271.9899 L316.602,271.0999 L317.045,269.3179 L318.83,267.5409 L317.491,264.8719 L316.602,264.8719 L315.711,264.8719 L314.819,265.3129 L313.034,264.8719 L313.034,263.9819 L313.48,262.6449 L313.48,261.7529 L312.145,260.8649 L311.698,259.5309 L309.02,254.1869 L308.575,254.6309 L307.239,254.6309 L305.9,255.0759 L305.454,251.9619 L305.006,251.5169 L305.006,249.7349 L304.118,248.3979 L305.006,247.5099 L305.454,246.6199 L305.454,245.7279 L306.346,244.8399 L305.454,243.5059 L305.9,243.0589 L307.686,243.5059 L308.573,243.0589 L308.129,242.1709 L307.239,241.2809 L306.347,240.3889 L305.006,240.3889 L303.67,239.5019 L305.006,237.7179 L305.899,236.8299 L306.345,236.8299 L306.345,234.6059 L306.791,234.1609 L307.237,233.2709 L307.237,231.9339 L307.682,230.1549 L308.571,229.7079 L309.463,229.2649 L310.355,229.7079 L310.801,229.2649 L310.801,228.3749 L311.247,227.9299 L311.693,227.9299 L313.03,227.4869 L313.475,225.7069 L312.582,225.2619 L312.141,224.3699 L311.694,223.9269 L311.694,222.1459 L312.141,221.7039 L314.367,220.3649 L315.259,219.0329 L315.259,218.5879 L316.149,217.2509 L316.149,216.8039 L314.813,215.4689 L314.813,214.5809 L315.258,213.6879 L316.594,212.7989 L317.486,212.7989 L317.931,212.3549 L317.931,211.4659 L317.931,210.5779 L318.378,209.6869 L318.824,208.3489 L318.824,207.4609 L319.271,206.1259 L320.607,205.6809 L324.621,203.9009 L324.621,201.2309 L325.065,200.3419 L324.621,198.5599 L325.957,197.6719 L328.188,197.6719 L330.415,196.3329 L330.859,196.3329 L331.306,196.7779 L331.306,198.5579 L332.198,199.0009 L333.535,199.4479 L334.429,200.3359 L334.868,200.3359 L335.762,199.8929 L336.207,199.4479 L336.207,197.6689 L338.878,198.1119 L339.326,198.1119 L340.217,198.9999 L339.772,199.8919 L340.217,200.7819 L339.772,202.1169 L340.664,203.0049 L341.557,203.8959 L342.446,203.0049 L342.891,202.5639 L343.336,201.6749 L343.336,200.7849 L341.999,200.7849 L342.443,199.8949 L342.892,199.4479 L341.999,198.1139 L342.892,196.7769 L343.779,197.2239 L344.228,196.3319 L344.674,196.3319 L346.456,196.3319 L346.902,195.4419 L346.456,194.1099 L346.456,193.2199 L346.013,191.4359 L345.566,190.5479 L344.674,190.5479 L344.229,190.1039 L345.12,189.2149 L345.12,188.7709 L345.566,187.8799 L346.013,187.8799 L346.902,187.8799 L347.345,187.4349 L347.79,186.5449 L347.79,185.6579 L348.238,185.2129 L349.577,184.7679 L350.47,184.3229 L352.25,183.8759 L352.696,182.9879 L354.481,183.4309 L356.263,181.6539 L355.814,180.7639 L355.814,179.4269 L356.263,178.5349 L356.706,177.2009 L357.152,176.7579 L357.601,176.3119 L358.047,175.4229 L358.938,175.4229 L359.383,174.9779 L359.828,174.9779 L361.611,175.8679 L362.503,176.7579 L365.177,174.9759 L366.5,174.9759 L366.5,174.5289 L366.052,171.8599 L363.379,169.1929 L362.935,168.7479 L362.487,168.3029 L360.256,166.5209 L360.702,165.6309 L362.935,162.0699 L362.487,160.7359 L362.935,159.3979 L363.825,158.0619 L363.379,155.8359 L360.255,154.0559 L360.255,153.1639 L360.701,151.3869 L360.701,150.4949 L358.921,149.6069 L357.136,149.1599 L355.797,149.1599 L355.351,149.1599 L354.463,148.2729 L353.124,148.7179 L352.678,148.7179 L351.786,148.2729 L350.896,148.7179 L349.559,149.6059 L349.113,149.6059 L348.221,147.3819 L347.775,146.9369 L347.327,146.9369 L346.885,146.0469 L345.995,144.7119 L346.437,143.8219 L346.437,143.3789 L345.995,142.9319 L345.549,142.9319 L344.657,142.9319 L344.657,142.0439 L344.657,140.7089 L344.211,140.2639 L346.44,138.4829 L347.328,137.5909 L348.669,136.2589 L349.113,134.9199 L349.561,134.9199 L350.453,135.8119 L350.895,135.3669 L351.341,133.1409 L352.233,132.2489 L353.125,130.9139 L352.679,129.5789 L350.452,130.4689 L349.56,130.0239 L347.775,129.1319 L345.994,129.1319 L345.102,130.0239 L344.656,130.0239 L344.21,129.5789 L344.656,129.1319 L343.763,128.6909 L343.319,127.8029 L345.104,126.0209 L343.319,125.5739 L343.319,124.6709 L342.427,123.3359 L341.98,122.8889 L341.539,122.4459 L338.415,118.4399 L337.969,117.1029 L337.527,115.7679 L333.513,115.7679 L332.621,115.7679 L332.177,115.7679 L331.285,116.2129 L330.393,116.2129 L329.949,114.8759 L330.839,113.0959 L330.393,112.2059 L329.056,111.3189 L326.827,111.3189 L325.042,111.3189 L324.152,111.3189 L323.706,109.9819 L322.815,109.9819 L321.477,110.8699 L320.14,110.8699 L319.25,111.3169 L318.804,111.7579 L317.912,111.3169 L317.466,111.7579 L316.576,111.7579 L316.13,111.3169 L316.13,110.4269 L316.13,109.9819 L315.686,109.0899 L314.794,109.5349 L313.901,109.9819 L313.456,109.9819 L312.563,110.8699 L312.122,109.9819 L312.122,109.5349 L308.998,111.3189 L308.552,111.3189 L306.769,109.0899 L305.877,109.5349 L304.986,107.3109 L304.543,107.3109 L302.76,108.6459 L301.867,109.9829 L301.867,110.8709 L301.421,110.8709 L300.977,110.8709 L300.087,109.9829 L298.75,110.8709 L297.856,111.3179 L297.411,111.3179 L296.521,110.8709 L298.304,108.1999 L298.304,107.3119 L297.412,105.5299 L297.857,104.1949 L297.412,103.7519 L296.968,103.3069 L295.187,101.0809 L293.401,99.3009 L292.954,96.1809 L292.954,94.4039 L292.954,93.9589 L294.293,92.6219 L295.186,93.0669 L296.076,92.1769 L296.52,90.8399 L296.966,89.0609 L299.641,88.1689 L300.531,85.5019 L301.868,83.7199 L302.315,82.3849 L303.206,81.9419 L302.315,80.6049 L300.087,81.4929 L299.641,80.6049 L300.978,78.8229 L300.978,78.3779 L303.207,76.1519 L304.099,74.3729 L304.545,70.8119 L303.206,69.9219 L303.206,69.4769 L304.098,67.6969 L304.544,66.8069 L304.544,65.4719 L305.434,65.4719 L306.326,65.9169 L306.77,64.5819 L306.77,64.1399 L307.216,62.8049 L306.77,61.4699 L306.77,61.0269 L307.216,60.5819 L308.553,60.5819 L309.892,60.1349 L309.892,59.2469 L308.108,58.3589 L308.108,57.0239 L308.553,55.6869 L309.892,55.2419 L310.782,54.3539 L311.228,53.4619 L311.228,52.1279 L309.891,51.2379 L309.445,51.2379 L308.999,51.2379 L307.216,51.2379 L306.77,50.7909 L306.77,50.3479 L306.326,49.9049 L306.77,49.4599 L305.878,48.5699 L301.866,46.7899 L299.639,47.2349 L298.302,47.6799 L296.963,47.6799 L294.736,47.2349 L294.29,46.7899 L288.045,45.9019 L287.155,44.1219 L285.818,42.7849 L283.588,41.4479 L283.588,38.7769 L283.588,35.6629 L281.807,33.8809 L276.898,30.3199 L275.116,32.5469 L272.889,33.8809 L271.548,34.3259 L270.66,35.6629 L268.877,35.2159 L263.969,34.3279 L263.079,36.1099 L261.743,36.1099 L255.5,36.5529 L254.161,36.9979 L253.269,36.5529 L252.381,35.6649 L252.381,35.2179 L254.162,30.3219 L251.935,28.5419 L250.596,27.6539 L250.149,28.0989 L246.584,28.9869 L245.243,28.9869 L244.354,28.5419 L244.354,26.7599 L243.463,23.2009 L240.79,19.6399 L239.897,19.1949 L238.115,17.4109 L239.897,12.5159 L239.454,8.5099 L238.562,5.8389 L235.885,5.8389 L235.442,5.3919 L234.995,3.1699 L234.549,3.6129 L234.104,4.0579 L232.32,5.8379 L233.212,7.6199 L232.766,8.0609 L232.32,8.9489 L230.982,10.2879 L224.74,16.9669 L224.296,16.9669 L222.068,14.2959 L221.621,14.2959 L220.73,14.2959 L218.504,14.7389 L217.165,14.2959 L212.707,14.7389 L211.368,14.2959 L210.032,13.8509 L210.032,11.6269 L210.92,11.6269 L215.38,12.9609 L214.934,11.1809 L214.934,11.1919 L214.473,11.1919 L214.029,9.4099 L214.029,8.0689 L214.919,7.6239 L214.919,5.8409 L215.365,4.5069 L215.365,4.0629 L214.919,4.0629 L214.029,2.2809 L210.907,1.3929 L210.467,0.4999 Z" id="Stroke-2" stroke="#E75F52" stroke-linecap="round" stroke-linejoin="round"></path>
        </g>
    </g>
</svg>