<?xml version="1.0" encoding="UTF-8"?>
<svg width="322px" height="301px" viewBox="0 0 322 301" version="1.1" xmlns="http://www.w3.org/2000/svg" xmlns:xlink="http://www.w3.org/1999/xlink">
    <!-- Generator: Sketch 64 (93537) - https://sketch.com -->
    <title>223</title>
    <desc>Created with Sketch.</desc>
    <defs>
        <polygon id="path-1" points="0.630323077 0.344206897 125.480169 0.344206897 125.480169 154.745372 0.630323077 154.745372"></polygon>
        <polygon id="path-3" points="0 0.375892571 126.871601 0.375892571 126.871601 187.135093 0 187.135093"></polygon>
    </defs>
    <g id="223" stroke="none" stroke-width="1" fill="none" fill-rule="evenodd">
        <g id="Group-37" transform="translate(0.000000, 2.000000)">
            <path d="M283.076301,213.835838 C283.61627,213.813219 284.190454,213.898311 284.699414,214.132044 C285.134596,214.334541 285.278944,214.630747 285.251144,214.949572 C285.224413,215.268397 284.987041,215.604455 284.735768,215.988984 C284.232154,216.761273 283.554253,217.618654 283.592746,218.366169 C283.50186,218.776548 283.077371,219.664088 282.487148,219.777185 C282.192036,219.833195 281.840255,219.695324 281.492751,219.220318 C281.143108,218.744235 280.775288,217.934247 280.423506,216.621248 C280.207519,215.8188 280.46093,215.138066 280.975236,214.653366 C281.491681,214.167589 282.266883,213.868152 283.076301,213.835838 L283.076301,213.835838 Z M312.970232,147 L311.937342,147.743207 L311.164279,148.485337 L309.873701,148.597356 L308.804457,148.708299 L308.694324,149.59907 L309.026859,150.862521 L309.873701,150.787124 L309.099568,151.715594 L308.952012,152.38448 L307.735212,152.941346 L306.814593,152.607442 L306.335572,151.789914 L305.56037,152.718384 L304.787306,153.683476 L304.418417,154.352362 L303.60686,154.87153 L303.05513,153.609155 L302.980283,152.755006 L302.464907,151.938556 L301.985886,151.34399 L301.211753,150.342277 L299.884821,150.044994 L297.968735,150.008372 L297.267311,149.636769 L296.383046,149.301787 L295.535135,149.377185 L295.277448,148.74492 L294.208203,148.85694 L292.512382,149.451506 L291.00154,149.190845 L289.453274,148.708299 L288.790343,148.74492 L287.867585,150.155936 L286.578076,150.044994 L286.467944,151.381689 L285.620033,151.45601 L285.693811,152.087197 L284.660921,152.644064 L222,152.569743 L222,206.11295 L222,206.149572 L222.073778,206.409155 L223.40071,206.186193 L225.575553,207.226683 L226.791284,206.372534 L228.855994,206.706438 L231.363372,207.003721 L233.38959,208.71202 L233.979813,211.124749 L235.269321,212.276181 L235.306745,211.124749 L236.559899,210.493562 L237.701852,210.754223 L239.730208,210.901787 L240.908515,211.38541 L241.646294,214.653366 L243.342115,217.102717 L244.669048,217.140416 L246.585133,217.956867 L248.907532,220.07339 L249.350199,221.596426 L250.861041,222.710159 L252.778196,223.52661 L254.325392,223.304725 L254.03135,221.558727 L254.621573,220.778898 L255.469484,220.667956 L256.463881,221.187124 L258.639793,220.854296 L260.333476,221.708446 L261.40272,221.558727 L262.840854,222.227613 L264.241564,222.487197 L265.014627,221.66967 L266.047517,221.299143 L267.300671,222.004651 L269.586716,222.562595 L271.318891,222.078972 L272.572046,221.66967 L273.456311,221.522105 L274.304221,221.187124 L275.373466,220.778898 L277.031863,221.66967 L276.81053,223.044064 L277.474531,224.492778 L278.322441,225.717454 L278.727685,227.017528 L278.543775,228.613807 L288.20012,233.440343 L290.227407,233.590061 L291.075318,234.368813 L291.84945,234.368813 L291.664471,234.889058 L291.813096,235 L293.102605,234.368813 L292.844917,232.32661 L293.360293,232.067026 L293.876738,232.067026 L293.360293,230.804651 L292.365895,230.545067 L292.844917,229.542277 L292.365895,228.279902 L292.844917,228.539486 L293.360293,226.756867 L294.355759,222.710159 L294.098071,220.18541 L294.613447,218.662375 L294.098071,218.662375 L295.350156,217.660661 L294.613447,216.65787 L295.608913,216.880832 L297.6362,212.090918 L299.368376,211.570673 L298.631667,210.047638 L299.368376,209.825753 L299.368376,210.828543 L299.884821,210.56896 L299.368376,209.045924 L298.889355,209.305508 L299.147042,208.78634 L298.115222,208.562301 L299.884821,207.78355 L300.400197,206.002007 L299.884821,205.2588 L300.657885,204.999217 L300.657885,203.216597 L302.649887,201.211016 L301.912108,200.951432 L303.165262,200.691848 L301.65442,200.209302 L303.386596,199.948641 L303.644284,198.687344 L302.907575,199.16989 L302.39113,198.687344 L303.165262,198.946928 L302.907575,198.166022 L303.644284,198.687344 L303.903041,196.644064 L303.903041,196.38448 L303.386596,196.903647 L303.386596,196.161518 L303.165262,196.38448 L302.907575,195.641273 L303.644284,196.161518 L303.903041,194.899143 L303.903041,195.901934 L304.897438,195.381689 L305.155126,194.119315 L304.676105,193.636769 L305.671571,193.636769 L306.40828,191.594565 L305.671571,192.596279 L305.413883,191.594565 L306.150592,191.594565 L306.150592,190.591775 L306.40828,191.594565 L307.44117,189.811946 L307.183482,189.3294 L307.661434,189.3294 L307.661434,190.072607 L310.684188,188.289988 L309.689791,188.067026 L308.694324,188.810233 L308.436637,188.549572 L308.915658,188.067026 L308.694324,187.547858 L309.689791,188.067026 L310.4265,187.547858 L310.684188,188.067026 L311.679654,186.545067 L313.449254,185.504578 L313.706942,183.500073 L312.932809,183.24049 L312.932809,183.759657 L311.937342,183.24049 L312.932809,183.24049 L313.190497,183.24049 L313.449254,181.456793 L315.218853,179.972534 L317.466404,172.620171 L317.208716,167.570673 L318.978316,163.003721 L319.236004,162.223892 L319.973782,157.954223 L319.236004,157.433978 L319.973782,157.693562 L319.752449,156.691848 L321.742312,152.867026 L321.226936,152.867026 L321.742312,152.644064 L322,150.60186 L321.226936,149.59907 L321.44827,147.334982 L320.304179,147.371603 L319.236004,147.259584 L318.609426,147.743207 L318.020273,148.002791 L317.356272,148.077111 L316.249604,147.743207 L315.033874,148.300073 L314.075831,147.334982 L312.970232,147 Z" id="Fill-1" fill="#FFFFFF"></path>
            <polygon id="Fill-3" fill="#FFFFFF" points="139.896959 8.55926431 142.34596 10 144.794961 8.55926431 145.529974 7.36069482 146.26603 7.59979564 146.26603 6.63930518 147 6.40020436 146.022068 4.95946866 145.041008 4.95946866 144.797046 4.23910082 144.062033 5.19959128 144.550999 6.40020436 143.818071 4.71934605 143.573067 5.4397139 143.083058 5.20061308 143.083058 6.64032698 142.838054 5.4397139 142.59305 5.4397139 141.858036 5.20061308 140.38801 5.68085831 141.368028 7.12159401 140.38801 6.64134877 140.143006 5.44073569 139.65404 5.92098093 139.898002 6.16110354 139.65404 6.16110354 139.65404 5.92098093 139.65404 4.96049046 137.93901 4 138.542659 7.15326975 137.695048 7.36171662 138.182971 6.88044959 137.695048 7.12159401 138.182971 6.16110354 137.695048 5.20061308 135.980017 6.40122616 136.960035 6.88044959 136.470026 6.88044959 136.470026 7.84094005 136.713988 8.0013624 136.713988 8.5613079 136.470026 7.84094005 136.225022 8.32220708 135.490009 7.84094005 135.490009 8.80143052 135 8.80143052 139.65404 9.28269755"></polygon>
            <polygon id="Fill-5" fill="#FFFFFF" points="126 34.2270223 126 133 197 133 197 46.4951265 196.105274 45.3128007 193.573457 44.5367319 190.257134 42.2824878 189.512609 42.5408201 189.773031 43.0585566 188.506582 42.5408201 187.724237 42.8002244 187.724237 41.7658233 184.930918 40.5084632 183.924892 38.5136233 179.864044 36.001047 179.603622 36.2593793 179.603622 35.7427147 178.859097 36.001047 177.592649 34.7447588 177.070725 32.9707341 178.597595 32.4529976 179.864044 29.4602019 181.390914 28.6841331 181.652416 27.1695127 182.918865 24.398604 181.875017 25.1736009 181.390914 24.9152686 181.130492 22.6610246 181.652416 22.8829116 182.136519 22.4026923 181.390914 22.14436 181.652416 21.4047364 182.398021 20.8880718 182.658443 21.6266235 183.404048 20.1484482 183.66447 21.4047364 183.924892 20.1484482 184.669416 20.3703353 184.930918 19.6307117 185.451762 20.8880718 184.930918 21.6266235 185.935865 21.1464041 186.71821 19.6307117 185.935865 18.8557148 187.462735 19.1140471 185.935865 17.3775396 186.457789 17.5983547 186.71821 17.1181354 187.240134 17.8577589 186.978632 16.8598031 187.724237 16.8598031 188.246161 15.6035149 187.985739 14.8274461 188.506582 14.8274461 188.506582 15.6035149 190.033453 13.8294902 188.506582 12.3148697 187.724237 12.8326063 188.246161 13.3128256 187.462735 13.3128256 186.457789 11.0585816 185.935865 11.0585816 186.71821 10.0606257 183.66447 12.3148697 185.451762 12.8326063 184.669416 14.3472267 183.924892 14.8274461 182.918865 14.605559 182.398021 15.0857784 182.398021 14.3472267 181.875017 14.3472267 182.658443 13.0909386 181.875017 13.3128256 181.652416 12.8326063 182.658443 11.5752462 180.609649 12.573202 180.348147 13.3492708 179.603622 12.8326063 181.652416 10.5783622 178.859097 12.0554655 178.597595 11.5752462 177.331147 11.8346504 176.065779 12.573202 177.070725 13.0909386 175.542775 12.8326063 176.065779 13.5711579 173.009877 12.3148697 172.228613 10.5783622 171.222586 11.8346504 168.167765 11.0585816 167.42216 12.573202 167.944083 11.3169139 167.42216 10.318958 166.901316 10.5783622 166.640895 9.80229341 165.634868 10.5783622 164.890343 9.80229341 165.634868 9.06266982 164.628841 8.80433753 162.356366 10.0606257 162.580047 9.06266982 162.095944 9.54288919 161.57402 8.80433753 160.829495 9.2845569 161.052096 8.54600523 159.563047 8.80433753 157.774675 5.77402468 157.252751 5.77402468 157.514253 6.55009348 156.992329 6.29176119 155.725881 7.28971706 153.975329 4.7760688 153.453405 5.51569238 153.192984 4 152.448459 4.51773651 152.708881 5.25736009 151.404612 4 151.665033 5.51569238 152.186957 5.77402468 151.665033 6.55009348 151.18093 4.7760688 150.138163 4 150.138163 5.03547302 148.871714 4.7760688 149.132136 5.25736009 148.648033 5.77402468 149.914481 5.51569238 150.138163 6.03235697 149.914481 6.29176119 150.920508 6.55009348 151.18093 7.28971706 152.186957 6.77198056 154.459432 6.55009348 154.459432 7.03031285 154.980275 7.03031285 154.459432 7.28971706 155.241778 7.54804936 154.719854 7.54804936 155.241778 7.80638165 154.719854 8.02826873 155.986302 8.02826873 156.247805 8.02826873 154.980275 9.2845569 155.986302 10.0606257 155.502199 10.318958 155.241778 11.8346504 156.508226 12.3148697 154.757674 11.8346504 153.975329 12.3148697 153.713827 13.8294902 153.229724 12.573202 152.448459 13.0909386 152.186957 12.3148697 150.920508 13.5711579 149.65406 12.8326063 146.115136 13.3128256 145.109109 12.573202 144.848687 11.3169139 144.326764 12.8326063 142.31579 12.3148697 142.799893 14.0878225 141.533445 13.8294902 141.049342 14.3472267 142.31579 15.3451826 141.273023 15.0857784 141.757127 15.8618472 141.273023 16.3420666 140.78892 15.3451826 140.78892 15.6035149 140.266996 15.8618472 140.527418 14.5691138 139.000548 14.3472267 139.260969 16.0837343 138.740126 16.0837343 140.266996 16.8598031 139.521391 16.8598031 139.521391 17.3400224 138.254943 16.0837343 137.472597 16.3420666 137.734099 16.8598031 137.212176 16.3420666 137.212176 18.1160912 135.461624 18.5963106 135.461624 20.3703353 136.951754 22.14436 136.467651 21.8849558 134.418857 23.3995762 133.673252 23.1412439 133.673252 22.6610246 132.890906 23.1412439 132.667225 25.395488 133.152408 25.1736009 132.146382 25.9132245 132.406803 27.1695127 131.624458 27.6861772 131.140355 27.1695127 131.624458 28.4258008 131.140355 27.9455815 130.618431 28.9424654 130.358009 28.1674685 129.353063 29.9404213 129.353063 30.7164901 130.097588 31.4561137 130.618431 30.9383772 130.618431 31.714446 131.624458 31.4561137 131.884879 31.9727783 132.890906 31.4561137 132.667225 31.9727783 131.401857 32.7124018 132.146382 32.7124018 132.146382 33.2290664 131.884879 33.2290664 132.071821 33.5613611 132.257682 33.6363954 132.890906 33.2290664 132.667225 33.96869 134.418857 32.9707341 134.418857 33.7103577 133.41283 33.7103577 133.933673 34.2270223 133.152408 33.96869 132.667225 33.96869 131.624458 33.96869 132.146382 34.965574 131.624458 34.4853546 131.884879 36.2593793 131.140355 36.4812664 130.358009 34.7447588 129.613485 34.4853546 129.873906 35.7427147 128.831139 34.2270223 129.091561 34.7447588 128.607458 34.7447588 128.345955 34.7447588 128.831139 35.4833105 128.345955 36.001047 129.091561 36.2593793 128.345955 36.2593793 128.085534 37.2573352 128.085534 36.4812664 127.564691 37.5156675 128.085534 36.2593793 127.825112 36.001047 127.304269 35.4833105 127.304269 34.4853546 126.819085 35.2249782 126.819085 34.2270223"></polygon>
            <polygon id="Fill-7" fill="#FFFFFF" points="185.790594 28.0472329 187.631579 29 190 29 189.735722 27.8090412 189.472564 28.2854247 188.159015 28.0472329 188.159015 27.096493 188.947368 26.8562741 188.684211 26.1437259 190 25.1909588 189.209406 24.7125481 189.209406 25.428137 188.159015 25.428137 187.894737 24.47537 188.159015 24 186.840985 24.2371782 187.368421 24.9527671 185.528555 25.428137 185.528555 26.6180823 185.790594 27.5708494 185 28.5236165"></polygon>
            <g id="Group-11" transform="translate(196.000000, 0.000000)">
                <mask id="mask-2" fill="white">
                    <use xlink:href="#path-1"></use>
                </mask>
                <g id="Clip-10"></g>
                <polygon id="Fill-9" fill="#FFFFFF" mask="url(#mask-2)" points="37.9414 0.343993103 36.9387846 0.602682759 36.1590923 2.11313103 34.6740154 2.59202759 34.8969385 3.84485517 34.1538615 7.12444138 33.8943231 7.12444138 33.6347846 8.89357931 34.4144769 8.89357931 33.4118615 9.11485517 33.1523231 10.6253034 33.6347846 11.3992345 34.1538615 10.8829241 33.6347846 11.6568552 33.1523231 11.3992345 32.8927846 12.3944414 32.6321692 10.6253034 31.3700154 12.6520621 32.1130923 12.9096828 31.3700154 12.9096828 30.3674 15.4164069 31.1094 15.4164069 30.8498615 14.4212 31.6306308 14.6414069 31.1094 14.9000966 32.1130923 15.6740276 33.4118615 15.6740276 32.1130923 16.1529241 33.4118615 16.6681655 32.8927846 16.9268552 33.1523231 18.1796828 32.1130923 16.4105448 31.6306308 17.6633724 30.3674 18.6585793 31.1094 20.9440276 30.8498615 21.6805448 31.3700154 21.4229241 31.1094 21.6805448 31.6306308 21.9381655 30.6280154 21.9381655 29.3281692 25.6966483 30.6280154 28.4609931 29.8472462 30.9666483 30.8498615 35.4990621 29.3281692 39.5162345 28.5850923 42.537131 29.1052462 43.7910276 27.3240154 48.8023379 25.2810923 51.3079931 24.7986308 54.5875793 22.4972462 56.3556483 18.2272462 57.3519241 17.7081692 57.0932345 16.1864769 56.0980276 14.4041692 55.8404069 13.4015538 54.5875793 11.6203231 53.8136483 11.1367846 51.5656138 10.1352462 50.5704069 6.83016923 49.576269 2.78416923 49.0599586 0.630323077 46.2218552 0.630323077 132.488441 25.2810923 132.488441 25.2810923 152.460993 88.3930923 152.534752 89.4323231 151.982097 89.3580154 151.355683 90.2120154 151.281924 90.3240154 149.955338 91.6227846 150.065441 92.5510923 148.665097 93.2187846 148.628752 94.7781692 149.107648 96.2998615 149.366338 98.0078615 148.776269 99.0847846 148.665097 99.3454 149.292579 100.1994 149.218821 101.090015 149.5502 101.7954 149.918993 103.725246 149.955338 105.061708 150.250372 105.8414 151.245579 106.323862 151.834579 106.842938 152.645924 106.918323 153.493614 107.474015 154.745372 108.2914 154.230131 108.662938 153.566303 109.442631 152.60851 110.222323 151.688131 110.704785 152.498407 111.633092 152.829786 112.857554 152.277131 113.006169 151.613303 113.785862 150.691855 112.932938 150.766683 112.598015 149.512786 112.710015 148.628752 113.785862 148.518648 115.085708 148.407476 115.864323 147.670959 116.904631 146.933372 118.018169 147.265821 118.983092 148.223614 120.208631 147.670959 121.322169 148.002338 121.990938 147.928579 122.5854 147.670959 123.216477 147.192062 124.292323 147.302166 125.443554 147.265821 125.480169 146.74951 124.477554 145.754303 123.772169 142.733407 123.216477 140.485372 122.4734 139.452752 121.693708 139.969062 122.213862 139.195131 121.173554 138.716234 121.953246 137.942303 121.173554 137.205786 122.213862 136.689476 121.433092 135.95189 121.433092 135.179028 122.695246 136.689476 121.953246 134.441441 121.693708 135.179028 122.213862 133.188614 121.693708 132.857234 121.953246 130.682959 121.433092 130.682959 122.4734 126.665786 121.953246 126.665786 121.433092 125.634234 120.950631 127.145752 121.173554 125.892924 120.431554 125.892924 120.950631 125.412959 119.9114 124.639028 119.9114 123.128579 120.691092 122.392062 119.1694 122.870959 120.431554 122.392062 120.170938 121.138166 117.387092 120.365303 118.166785 119.886407 116.645092 118.117269 116.904631 117.122062 116.124938 116.605752 115.864323 117.122062 116.124938 116.348131 114.603246 115.611614 114.603246 115.869234 113.341092 114.616407 112.078938 111.336821 111.076323 111.078131 111.335862 110.083993 110.815708 110.82051 110.815708 110.083993 110.072631 109.825303 110.556169 110.82051 109.553554 110.341614 109.553554 110.82051 108.550938 110.341614 108.550938 110.82051 105.246938 106.32551 104.504938 107.319648 103.465708 105.8092 103.984785 105.55051 103.242785 104.040062 103.725246 103.561166 102.983246 100.79789 103.465708 100.79789 103.725246 98.771131 103.242785 97.5183034 103.242785 98.2911655 102.722631 98.0335448 102.203554 97.0394069 102.983246 97.2970276 103.242785 97.0394069 102.463092 95.7855103 102.463092 96.7807172 102.203554 95.7855103 101.721092 95.5278897 101.460477 96.2644069 102.203554 97.5183034 101.721092 97.2970276 102.203554 98.5498552 98.6755538 96.0067862 97.4144769 94.0174414 97.1538615 94.5326828 96.4118615 95.7855103 97.1538615 97.5183034 97.6740154 98.5498552 97.1538615 98.0335448 95.6321692 96.2644069 94.1104769 98.0335448 94.8901692 96.2644069 93.8498615 96.2644069 94.3700154 96.0067862 94.1104769 95.5278897 93.1078615 95.7855103 94.1104769 95.270269 92.5877077 91.7694069 93.1078615 89.0050621 92.8472462 89.4850276 91.8457077 88.4898207 91.5861692 89.0050621 91.5861692 86.7206828 90.5835538 87.2369931 90.8430923 86.4630621 90.5835538 86.4630621 91.0660154 85.2102345 90.0634 84.2150276 89.3214 84.730269 89.5443231 83.736131 87.7997077 83.736131 87.5390923 82.9622 88.0592462 82.7035103 86.7960154 81.9669931 87.0189385 81.4506828 86.2769385 80.7141655 87.0189385 80.4565448 86.5364769 79.9402345 87.2784769 80.1989241 87.5390923 79.6826138 88.8023231 80.7141655 87.2784769 78.2085103 86.7960154 78.4297862 86.7960154 77.6922 86.0174 77.6922 85.7567846 76.6980621 85.0147846 76.6980621 84.7552462 76.6980621 84.7552462 77.6922 84.0121692 77.4345793 82.9729385 76.4393724 83.2335538 76.1817517 83.2335538 75.924131 81.9703231 75.1865448 80.4486308 75.4441655 79.9650923 73.6760966 79.1864769 73.6760966 79.7055538 74.9289241 78.6663231 74.6713034 77.1823231 73.1597862 78.1838615 73.6760966 76.6621692 70.3965103 76.6621692 71.4280621 74.3974 71.6493379 73.3581692 69.4013034 73.1352462 70.3965103 72.3555538 70.3965103 71.6135538 69.4013034 69.0515538 68.4060966 67.5664769 66.6380276 68.0489385 63.8736828 67.0463231 63.8736828 65.2640154 60.8517172 66.5272462 56.5769241 66.0447846 56.5769241 66.0447846 54.5875793 64.5220154 51.8243034 65.0044769 50.5704069 63.7423231 50.8290966 60.7355538 46.8119241 60.7355538 45.5590966 61.2180154 45.5590966 61.2180154 43.7910276 60.2164769 42.537131 59.9558615 39.7738552 58.9532462 38.7786483 60.2164769 37.2682 60.2164769 37.0095103 59.4357077 37.2682 59.2138615 36.0153724 60.2164769 34.7625448 59.6952462 34.7625448 59.2138615 33.7299241 57.6910923 33.5086483 56.6518615 31.9982 54.9072462 31.4818897 53.6450923 28.2033724 52.1223231 29.455131 51.1197077 28.9773034 50.6006308 30.4877517 49.0789385 31.224269 47.8157077 30.230131 47.0726308 26.9505448 45.7738615 24.960131 46.2940154 22.4544759 45.5509385 19.9488207 45.7738615 17.6633724 44.2898615 18.1796828 45.0318615 15.8953034 43.5101692 14.9000966 43.5101692 13.9048897 42.2469385 13.647269 41.9874 11.878131 43.5101692 10.6253034 42.2469385 10.1464069 41.2443231 10.4040276 40.4657077 9.63116552 40.4657077 5.87161379 39.4630923 2.84964828 38.7210923 2.84964828 38.2009385 1.85551034 38.2009385 2.3344069 37.1994 2.84964828 38.4604769 0.822889655 38.2009385 0.602682759"></polygon>
            </g>
            <polygon id="Fill-12" fill="#FFFFFF" points="318.385069 117.052985 319.305501 118.632463 317.459725 121.00056 317.921415 121.00056 317.459725 122.842164 317 124.158396 317.921415 126 320 118.894589 319.537328 117.841604 319.537328 116"></polygon>
            <polygon id="Fill-14" fill="#FFFFFF" points="208.947007 48.1811847 209.777383 48.4541231 210.612491 46.8164925 210.891649 47.6353078 212 47.3623693 210.612491 46 208.388692 46.8164925 207 48.1811847 208.388692 49"></polygon>
            <g id="Group-18" transform="translate(0.000000, 24.000000)">
                <mask id="mask-4" fill="white">
                    <use xlink:href="#path-3"></use>
                </mask>
                <g id="Clip-17"></g>
                <path d="M2.02306695,103.33651 L-0.000322881356,98.7933554 L-0.000322881356,101.317927 L2.02306695,104.598795 L2.02306695,103.33651 Z M95.2981093,21.8186354 L94.0367195,22.3364411 L93.5922195,21.8551611 L94.0367195,22.0775383 L95.2981093,21.8186354 Z M126.871601,154.620761 L126.871601,108.439367 L126.871601,9.44823543 L125.388499,9.44823543 L124.905253,8.93042971 L123.904321,8.70805257 L122.382474,8.93042971 L123.384482,9.70821257 L123.643864,10.7083726 L122.641855,9.44823543 L123.384482,10.7083726 L123.125101,10.4483954 L122.864643,10.9672754 L122.382474,10.4483954 L122.123092,11.4850811 L121.603253,10.1894926 L121.121084,10.9672754 L122.382474,14.4855611 L121.863711,14.4855611 L121.603253,13.2264983 L120.341864,11.9674354 L120.341864,14.0042811 L119.600313,14.744464 L120.082482,13.7453783 L119.600313,12.9665211 L120.082482,12.7452183 L119.823101,11.2261783 L120.601245,9.44823543 L120.082482,9.44823543 L121.121084,9.18933257 L120.601245,8.44914971 L121.121084,8.19024686 L119.339855,6.93010971 L119.080474,7.44898971 L116.817075,3.89417829 L115.035847,2.89401829 L114.776465,1.89385829 L114.034914,1.63495543 L114.294296,2.37621257 L113.515075,1.63495543 L112.995236,2.11623543 L112.995236,1.63495543 L112.513067,2.11623543 L111.994304,0.857172571 L110.472457,0.375892571 L110.472457,0.857172571 L109.470448,0.634795429 L109.990287,1.89385829 L110.992296,2.37621257 L110.546719,2.33861257 L109.211067,2.11623543 L109.470448,2.89401829 L108.951686,3.411824 L108.728897,2.89401829 L108.469516,4.41305829 L107.690296,2.89401829 L107.208126,3.15292114 L107.690296,1.89385829 L106.169525,2.89401829 L105.946736,3.411824 L106.428906,3.89417829 L105.426897,4.41305829 L105.167516,3.15292114 L104.685347,3.15292114 L105.167516,2.63511543 L104.685347,2.63511543 L105.167516,2.11623543 L104.425965,2.63511543 L103.645669,2.37621257 L103.645669,2.89401829 L103.422881,2.37621257 L103.422881,2.89401829 L104.907058,3.63420114 L103.906126,4.41305829 L104.165508,5.15324114 L103.422881,5.67104686 L103.906126,6.67120686 L102.904118,6.67120686 L102.904118,7.93026971 L102.124897,7.19008686 L102.385355,6.18992686 L101.38227,6.412304 L101.38227,5.67104686 L100.640719,7.67136686 L100.863508,5.412144 L101.38227,4.67196114 L100.381338,4.15308114 L100.381338,6.93010971 L99.6021178,6.67120686 L99.1199483,7.67136686 L98.8605669,6.93010971 L98.340728,7.44898971 L98.6001093,6.412304 L97.5981008,7.44898971 L98.0802703,7.67136686 L96.5594992,8.44914971 L97.3387195,9.44823543 L98.0802703,9.44823543 L97.0793381,10.2270926 L98.6001093,10.7083726 L98.8605669,10.2270926 L99.3416602,10.4483954 L98.340728,11.4850811 L99.6021178,11.9674354 L98.340728,11.9674354 L97.8574822,11.2261783 L96.8199568,11.9674354 L96.0773297,10.2270926 L95.5574907,10.4483954 L95.8179483,11.4850811 L94.2961008,11.7085326 L94.8159398,11.9674354 L94.5565585,12.7452183 L96.0773297,11.7085326 L94.5565585,13.0041211 L95.0753212,13.4854011 L96.336711,12.7452183 L96.336711,13.2264983 L96.8199568,13.2264983 L96.0773297,14.0042811 L97.5981008,15.263344 L96.336711,14.263184 L95.8179483,14.744464 L95.2981093,13.7453783 L94.2961008,13.4854011 L94.2961008,12.9665211 L93.55455,13.4854011 L93.0357873,14.4855611 L92.7753297,14.0042811 L92.5159483,14.744464 L91.5139398,14.4855611 L91.7733212,14.744464 L90.7713127,15.5222469 L91.2545585,15.744624 L90.5119314,16.0035269 L91.5139398,18.7816297 L91.7733212,18.3368754 L91.7733212,18.5216526 L92.2931602,17.7814697 L91.8475839,18.188624 L92.5159483,17.0036869 L93.2951686,16.5224069 L92.7753297,17.0036869 L93.55455,17.0036869 L92.5159483,17.7814697 L92.2931602,19.5594126 L92.7753297,19.5594126 L91.7733212,20.0406926 L92.2931602,20.2995954 L91.7733212,20.5584983 L91.2545585,19.2994354 L90.7713127,21.5586583 L92.5159483,21.2997554 L93.5168805,21.8186354 L91.2545585,22.0775383 L90.7713127,21.5586583 L90.25255,22.0775383 L90.6981263,22.3364411 L89.5109992,22.5588183 L90.25255,22.3364411 L89.5109992,22.0775383 L88.7307025,21.0773783 L86.9871432,20.2995954 L87.7297703,21.0773783 L87.2099314,21.0773783 L87.7297703,21.8186354 L86.7277619,21.0773783 L86.7277619,21.2997554 L85.466372,20.8174011 L85.9485415,20.8174011 L85.6891602,20.2995954 L86.2079229,20.2995954 L85.2069907,19.7817897 L85.2069907,20.2995954 L84.4266941,20.0406926 L84.6871517,20.5584983 L84.2049822,20.0406926 L84.6871517,20.8174011 L84.2049822,21.0773783 L85.2069907,21.2997554 L85.466372,21.8186354 L84.6871517,21.5586583 L85.466372,22.0775383 L84.9465331,22.0775383 L84.6871517,22.0775383 L83.6851432,22.0775383 L84.9465331,22.8177211 L83.2029737,22.8177211 L83.6851432,23.595504 L83.9456008,23.0776983 L84.6871517,23.3366011 L83.6851432,24.076784 L85.466372,24.595664 L85.9485415,26.1136297 L86.9871432,25.595824 L86.9871432,25.114544 L87.470389,25.3369211 L86.2079229,26.5949097 L86.7277619,27.1137897 L85.9485415,26.8548869 L87.2476008,29.1506354 L84.9465331,26.8548869 L84.2049822,27.1137897 L85.2069907,28.8917326 L84.6871517,28.6317554 L84.2049822,29.8908183 L84.2049822,31.1509554 L82.6831347,29.6319154 L81.9049907,27.1137897 L80.9029822,26.3725326 L80.9029822,24.3356869 L80.1603551,24.3356869 L79.3811347,23.595504 L79.6415924,22.5588183 L80.4208127,22.3364411 L79.9009737,21.5586583 L79.1217534,21.8186354 L77.6375754,24.3356869 L78.3802025,25.114544 L76.3395924,24.8545669 L76.1168042,25.595824 L76.5989737,26.5949097 L75.5969653,26.1136297 L75.5969653,26.5949097 L74.5949568,26.8548869 L73.8168127,27.8915726 L74.3355754,28.1139497 L73.0741856,29.1506354 L72.8148042,31.4098583 L73.5563551,33.1878011 L73.0741856,34.928144 L74.8554144,35.1870469 L74.8554144,36.1872069 L71.2929568,38.7429326 L70.2920246,38.9642354 L69.5128042,40.0009211 L70.0315669,40.7421783 L68.7701771,41.0010811 L69.0295585,42.0012411 L67.7681686,44.2969897 L64.7266263,48.0752526 L57.6393805,51.111184 L55.859228,51.3335611 L54.1145924,51.3335611 L53.3364483,51.8524411 L52.3344398,52.592624 L51.5918127,51.8524411 L49.2918212,51.3335611 L49.5512025,51.8524411 L49.5512025,52.111344 L49.2918212,51.8524411 L48.8096517,51.592464 L48.5491941,51.8524411 L46.7690415,54.111664 L41.4641008,55.1483497 L41.4641008,54.6294697 L39.4600839,55.8885326 L39.682872,56.4074126 L38.9402449,56.4074126 L38.4204059,57.4075726 L37.1590161,57.6664754 L37.1590161,57.4075726 L35.1560754,58.4066583 L33.6353042,57.6664754 L33.3748466,56.8886926 L31.5946941,57.9253783 L30.8520669,57.6664754 L30.3333042,57.4075726 L31.1114483,56.1485097 L30.5926856,56.1485097 L29.3312958,57.6664754 L29.5906771,57.9253783 L29.0708381,57.9253783 L26.5480585,59.1844411 L25.7688381,58.6666354 L25.54605,59.9256983 L23.5054398,60.924784 L22.763889,62.443824 L21.5024992,62.7027269 L20.2411093,64.7395726 L15.4172619,65.9986354 L13.4143212,67.2587726 L13.1549398,68.7767383 L12.6351008,68.9991154 L12.1152619,68.7767383 L12.3757195,69.7768983 L11.6330924,71.0359611 L12.1152619,71.5537669 L11.6330924,71.294864 L11.8924737,71.776144 L10.8549483,73.0352069 L10.3717025,72.2939497 L9.11031271,73.0352069 L9.5924822,71.294864 L9.11031271,71.776144 L8.85093136,70.0358011 L9.85186356,66.9987954 L8.07171102,67.5176754 L5.54893136,73.5540869 L6.81032119,76.8499954 L6.32815169,78.3679611 L6.58753305,81.3673669 L4.0270839,84.9232526 L3.54491441,89.440624 L5.54893136,92.7376069 L5.28955,93.2554126 L5.80831271,95.2557326 L6.81032119,96.0335154 L9.5924822,101.588647 L10.3717025,101.811024 L10.6321602,103.069013 L9.85186356,103.069013 L10.1123212,105.847115 L8.85093136,107.365081 L7.58954153,105.365835 L7.33016017,102.587733 L7.33016017,103.84787 L6.06769407,104.846955 L6.32815169,102.069927 L4.28754153,98.810544 L3.54491441,100.80979 L4.0270839,101.32867 L4.0270839,100.291984 L4.80630424,104.106773 L7.33016017,106.106018 L7.06970254,108.401767 L5.54893136,109.143024 L5.28955,107.365081 L5.06676186,108.884121 L4.54692288,105.847115 L4.28754153,107.365081 L3.28553305,103.32899 L3.54491441,106.624898 L2.76569407,106.106018 L2.76569407,103.32899 L2.54290593,105.365835 L1.50430424,104.588053 L8.07171102,114.179275 L9.5924822,118.216441 L9.11031271,119.475504 L9.5924822,122.030155 L12.3757195,125.289538 L13.1549398,126.808578 L12.8955585,127.807664 L15.1578805,130.84467 L16.1964822,134.400555 L15.9371008,138.917927 L15.9371008,139.436807 L16.679728,143.472898 L21.7252873,154.064281 L21.9846686,157.842544 L23.2460585,157.101287 L23.2460585,157.583641 L21.9846686,157.842544 L22.2451263,159.101607 L21.7252873,159.878315 L21.9846686,161.657333 L20.9826602,163.656578 L21.7252873,169.470613 L18.9797195,172.728921 L17.6806602,172.728921 L16.1964822,171.729835 L16.1964822,177.02499 L17.1984907,179.803093 L17.457872,179.321813 L18.94205,179.06291 L21.7252873,180.580875 L24.0252788,184.098087 L27.0678975,185.098247 L27.2906856,184.35699 L28.3292873,185.098247 L27.0678975,185.098247 L29.0708381,186.358384 L29.8500585,185.617127 L31.3342364,186.358384 L34.8956178,185.877104 L36.8996347,187.135093 L37.4194737,186.099481 L39.682872,186.87619 L40.2016347,186.617287 L38.9402449,186.099481 L39.4600839,185.098247 L39.9422534,184.839344 L39.682872,185.877104 L41.7234822,185.877104 L41.4641008,185.098247 L43.2442534,184.839344 L43.504711,183.321378 L45.7670331,182.321218 L46.0264144,181.321058 L47.2888805,180.803253 L46.7690415,180.321973 L50.0710415,181.321058 L50.3304229,180.321973 L51.3324314,180.580875 L51.3324314,179.543115 L52.5938212,179.803093 L51.5918127,178.802933 L55.1166008,175.507024 L55.859228,175.507024 L59.161228,176.025904 L60.4226178,175.025744 L66.7672364,174.247961 L70.0315669,175.248121 L71.8127958,174.507938 L72.8148042,176.284807 L74.0761941,176.284807 L74.5949568,175.248121 L76.3395924,175.765927 L76.5989737,175.025744 L79.9009737,174.766841 L80.6425246,175.248121 L80.9029822,176.284807 L82.6831347,175.025744 L83.9456008,175.507024 L87.470389,171.988738 L88.5079144,167.952647 L89.5109992,166.914887 L94.0733127,165.433447 L103.163499,160.100693 L105.167516,159.619413 L108.988279,160.100693 L113.255694,159.878315 L121.380465,157.361264 L126.871601,154.620761 Z" id="Fill-16" fill="#FFFFFF" mask="url(#mask-4)"></path>
            </g>
            <polygon id="Fill-19" fill="#FFFFFF" points="222 240 222 206.391163 222 206.354697 222 153.039172 222 133 197.454884 133 127 133 127 179.10597 127.554383 178.808879 135.353274 178.033439 136.611091 177.773886 141.674526 178.291919 144.447513 176.776432 149.216064 179.290445 152.764329 182.062939 155.019392 182.062939 154.759893 181.582445 155.277818 181.323965 157.014956 181.323965 160.046369 183.837978 163.077782 183.837978 162.301431 183.097931 162.819356 182.839451 163.336208 183.319945 163.816602 182.580971 166.589588 185.353464 165.850769 185.611944 165.850769 186.870023 167.365939 186.092438 168.363185 186.350918 169.361503 188.38551 168.622683 189.384036 168.881109 188.607524 167.624365 188.607524 168.104759 189.642516 167.624365 190.38149 168.622683 190.641043 168.104759 191.380017 169.619929 192.895503 169.139535 191.380017 169.879428 192.895503 170.618247 192.416082 172.13449 193.413536 171.39567 192.674562 172.651342 192.895503 172.13449 193.413536 173.64966 195.447055 173.64966 196.926076 176.421575 199.477627 177.937817 206.280692 178.196244 205.50418 178.455742 206.280692 178.936136 206.502706 177.937817 206.761186 177.420965 205.76266 177.679391 205.50418 176.681073 205.2457 176.681073 204.764133 175.904723 206.280692 176.940572 205.76266 179.970912 209.533679 181.227657 208.793633 182.484401 210.310192 182.965867 207.536626 181.227657 208.276673 181.966476 207.75864 182.225975 205.76266 183.224293 205.2457 183.741145 205.76266 183.741145 203.987621 187.511378 199.699641 190.542791 198.183082 189.76644 198.441562 190.284365 197.443036 190.801217 197.962141 192.538355 197.443036 194.314096 192.416082 195.829266 190.641043 196.826512 191.158003 196.826512 186.092438 198.083256 188.866004 198.342755 191.158003 199.081574 191.896977 197.08601 193.673088 198.601181 196.445582 195.57084 199.477627 194.830948 201.732088 194.314096 201.99164 194.830948 203.508199 194.054597 204.986147 194.572522 204.764133 194.830948 206.243154 194.314096 209.275199 193.795099 209.793232 190.801217 209.015647 189.508014 212.824205 192.057961 212.565725 194.054597 211.050239 195.829266 211.789213 196.826512 211.308719 196.30966 210.791759 197.566404 208.018193 197.82483 205.50418 199.34 201.99164 202.889338 208.092198 203.111306 208.535153 202.630912 208.793633 202.371413 208.018193 202.112987 213.564252 199.34 216.078265 202.889338 216.337817 204.36805 215.079738 205.662325 215.339291 209.431485 218.333798 205.662325 215.597771 208.914633 218.111784 211.059248 220.885349 209.431485 218.370264 210.689302 219.36879 212.204472 222.659316 211.538569 221.624323 213.461216 226.689888 213.20279 227.946895 211.946046 229.203901 212.944364 230.719388 212.462898 231.458362 214.459535 234.231927 217.379428 238.150956 217.490947 238.52098 219.006118 239.777986"></polygon>
            <polygon id="Fill-21" fill="#FFFFFF" points="196.14124 217.751171 196.400221 216.499574 194.579602 216.499574 195.100885 215 186.520177 216.749681 186 217.999149 187.561638 219.750958 189.901328 219.500851 191.720841 219.000639 193.800443 220 194.840797 219.249681 195.100885 218.249255 198.48093 218.249255 199 217.249894 197.17938 216.499574"></polygon>
            <polygon id="Fill-23" fill="#FFFFFF" points="245.665721 255 245 256.500532 245.222222 259.500532 245.222222 260.499823 245.665721 261 247 259.500532 246.777778 256.000355"></polygon>
            <polygon id="Fill-25" fill="#FFFFFF" points="276.054224 258.085508 276.054224 259.129373 277.105086 260.173237 277.896034 262 280 261.215991 279.475689 259.913381 278.946897 260.434203 279.475689 259.129373 279.736724 258.608551 278.684741 258.608551 276.578535 256 275 257.826763"></polygon>
            <path d="M280.490297,275.671071 L279.982757,274.184676 L280.744607,272.2 L279.982757,271.456802 L280.744607,269.471071 L278.711204,266.991282 L277.439651,266.744253 L276.933194,268.231704 L275.406248,267.488507 L273.626073,269.471071 L272.355602,268.727873 L271.085131,269.720211 L270.066806,269.225098 L268.288796,269.968296 L269.558185,271.208718 L269.303874,271.703831 L267.779092,269.968296 L266.509703,270.959578 L266.759685,271.954027 L266.255393,270.711493 L263.966597,271.208718 L258.118534,267.73448 L256.593752,267.73448 L256.082967,266.496169 L256.082967,267.488507 L255.06897,267.240422 L255.06897,267.73448 L251.509703,266 L251.764014,267.98362 L251,269.471071 L252.01616,273.688507 L253.797417,276.169351 L253.287714,276.663409 L255.831902,279.888507 L255.831902,282.119155 L256.593752,281.374902 L257.865306,283.608718 L258.372845,283.608718 L257.865306,285.344253 L257.609913,283.856802 L255.322199,281.871071 L256.082967,286.336591 L256.846981,286.584676 L258.118534,290.303831 L259.390087,290.8 L260.660558,293.528929 L261.424573,293.528929 L260.914869,293.280845 L261.424573,292.287451 L261.933194,293.775958 L263.966597,293.775958 L263.711204,294.272127 L261.933194,293.775958 L261.933194,294.519155 L261.424573,294.272127 L262.186422,296.256802 L263.966597,295.511493 L266.759685,296.009774 L266.509703,295.26552 L267.524782,297 L269.049564,297 L270.066806,295.511493 L269.303874,294.768296 L270.322199,295.01638 L270.577592,294.025098 L269.813578,293.775958 L270.83082,293.280845 L269.813578,292.041478 L270.066806,291.544253 L270.066806,292.287451 L270.577592,292.784676 L270.83082,292.041478 L270.83082,292.784676 L271.846981,293.280845 L272.101291,290.551916 L272.865306,290.8 L272.865306,289.313605 L271.591588,287.328929 L273.371762,289.560633 L273.880384,289.313605 L273.371762,290.8 L274.390087,290.055747 L274.134694,288.81638 L274.898709,288.569351 L273.626073,287.825098 L274.898709,288.071071 L275.406248,289.313605 L276.422408,289.06552 L277.693961,286.831704 L276.933194,285.591282 L277.948272,285.096169 L278.202583,283.113605 L277.439651,283.359578 L278.711204,280.880845 L279.474136,280.880845 L278.711204,280.631704 L279.727365,279.144253 L279.219825,280.631704 L280.490297,281.127873 L280.490297,282.61638 L281,281.871071 L280.23815,280.135536 L280.490297,275.671071 Z M275.406248,289.560633 L274.898709,291.04914 L275.913787,291.296169 L275.406248,291.793393 L276.16918,292.784676 L276.933194,292.536591 L276.933194,291.544253 L277.948272,292.784676 L277.439651,290.551916 L276.16918,290.8 L275.406248,289.560633 Z" id="Fill-27" fill="#FFFFFF"></path>
            <polygon id="Fill-29" fill="#FFFFFF" points="277 263.249335 279.667045 263.249335 279.933863 264 281 263.249335 279.933863 262"></polygon>
            <path d="M282.793628,213.003409 C283.344698,212.980671 283.91217,213.070538 284.432626,213.307658 C284.87873,213.511212 285.024152,213.799221 284.996817,214.118628 C284.967295,214.439118 284.740963,214.796422 284.484015,215.185124 C283.969026,215.959282 283.265974,216.815727 283.30643,217.568229 C283.213491,217.980752 282.7816,218.875093 282.17914,218.987698 C281.877364,219.045083 281.509983,218.908658 281.15463,218.431171 C280.799277,217.951518 280.43955,217.11348 280.079824,215.79254 C279.857865,214.986983 280.115906,214.302693 280.641828,213.815462 C281.169938,213.327147 281.965929,213.035891 282.793628,213.003409" id="Fill-31" fill="#FFFFFF"></path>
            <polygon id="Fill-33" fill="#FFFFFF" points="292 234.528755 291.258969 233.797738 291.480525 233.797738 290.628716 233.029587 288.588461 232.88211 278.874395 228.127848 279.060459 226.555472 278.652839 225.274867 277.799954 224.06853 277.132058 222.641509 277.35469 221.288756 275.686564 220.410263 274.611047 220.812375 273.758162 221.14234 272.86871 221.288756 271.608205 221.690868 269.865868 222.167249 267.566413 221.617661 266.305908 220.922717 265.268034 221.288756 264.48936 222.092981 263.080433 221.837284 261.634939 221.178414 260.559422 221.32589 258.853653 220.484531 256.666052 220.812375 255.665822 220.300981 254.812937 220.410263 254.219252 221.178414 254.515019 222.898266 252.958746 223.116829 251.030345 222.312604 249.51064 221.215548 249.065376 219.715319 246.729354 217.630489 244.802028 216.826264 243.467312 216.78913 241.761543 214.376456 241.020512 211.157435 239.834217 210.681054 237.795037 210.5357 236.64531 210.280003 235.384804 210.900678 235.347161 212.034868 234.050088 210.900678 233.456403 208.524077 231.417224 206.841359 228.896213 206.548528 226.81939 206.219623 225.596528 207.060982 223.410002 206.037134 222.074211 206.256758 222 206 222 239.246944 222.518399 239.283017 225.299685 241.514263 225.299685 242.757734 226.078359 242.502038 226.81939 243.014492 228.341246 241.258566 231.380656 242.757734 233.382193 242.24528 242.726281 247.2563 246.544365 243.525886 249.547207 241.514263 251.328263 241.514263 251.846662 240.015095 250.066682 240.526488 249.065376 239.759398 250.325882 239.759398 253.588999 237.271394 255.108704 240.270792 253.588999 242.24528 251.328263 241.76996 253.588999 243.74657 255.108704 242.757734 255.887378 243.014492 256.11001 241.002869 257.88999 241.002869 258.409465 242.502038 257.408159 242.757734 257.148959 244.257963 258.891296 245.501435 260.670201 245.245738 260.9294 245.757131 260.188369 245.501435 261.448875 247.73162 262.450181 247.000603 263.451487 247.511996 263.192287 246.744906 264.230161 248.756529 265.490666 250 265.972498 246.744906 264.452793 247.73162 263.969886 245.757131 266.490897 245.757131 269.494814 244.769357 274.31528 239.759398 277.61389 237.783849 273.573174 239.50264 275.834985 238.040607 275.759699 237.930265 275.092879 237.271394 276.835215 237.783849 278.874395 237.015698 278.615196 237.528152 289.737113 236.540378"></polygon>
            <polygon id="Stroke-35" stroke="#E75F52" stroke-linecap="round" stroke-linejoin="round" points="292 234.528755 291.258969 233.797738 291.480525 233.797738 290.628716 233.029587 288.588461 232.88211 278.874395 228.127848 279.060459 226.555472 278.652839 225.274867 277.799954 224.06853 277.132058 222.641509 277.35469 221.288756 275.686564 220.410263 274.611047 220.812375 273.758162 221.14234 272.86871 221.288756 271.608205 221.690868 269.865868 222.167249 267.566413 221.617661 266.305908 220.922717 265.268034 221.288756 264.48936 222.092981 263.080433 221.837284 261.634939 221.178414 260.559422 221.32589 258.853653 220.484531 256.666052 220.812375 255.665822 220.300981 254.812937 220.410263 254.219252 221.178414 254.515019 222.898266 252.958746 223.116829 251.030345 222.312604 249.51064 221.215548 249.065376 219.715319 246.729354 217.630489 244.802028 216.826264 243.467312 216.78913 241.761543 214.376456 241.020512 211.157435 239.834217 210.681054 237.795037 210.5357 236.64531 210.280003 235.384804 210.900678 235.347161 212.034868 234.050088 210.900678 233.456403 208.524077 231.417224 206.841359 228.896213 206.548528 226.81939 206.219623 225.596528 207.060982 223.410002 206.037134 222.074211 206.256758 222 206 222 239.246944 222.518399 239.283017 225.299685 241.514263 225.299685 242.757734 226.078359 242.502038 226.81939 243.014492 228.341246 241.258566 231.380656 242.757734 233.382193 242.24528 242.726281 247.2563 246.544365 243.525886 249.547207 241.514263 251.328263 241.514263 251.846662 240.015095 250.066682 240.526488 249.065376 239.759398 250.325882 239.759398 253.588999 237.271394 255.108704 240.270792 253.588999 242.24528 251.328263 241.76996 253.588999 243.74657 255.108704 242.757734 255.887378 243.014492 256.11001 241.002869 257.88999 241.002869 258.409465 242.502038 257.408159 242.757734 257.148959 244.257963 258.891296 245.501435 260.670201 245.245738 260.9294 245.757131 260.188369 245.501435 261.448875 247.73162 262.450181 247.000603 263.451487 247.511996 263.192287 246.744906 264.230161 248.756529 265.490666 250 265.972498 246.744906 264.452793 247.73162 263.969886 245.757131 266.490897 245.757131 269.494814 244.769357 274.31528 239.759398 277.61389 237.783849 273.573174 239.50264 275.834985 238.040607 275.759699 237.930265 275.092879 237.271394 276.835215 237.783849 278.874395 237.015698 278.615196 237.528152 289.737113 236.540378"></polygon>
        </g>
    </g>
</svg>