<?xml version="1.0" encoding="UTF-8"?>
<svg width="301px" height="193px" viewBox="0 0 301 193" version="1.1" xmlns="http://www.w3.org/2000/svg" xmlns:xlink="http://www.w3.org/1999/xlink">
    <!-- Generator: Sketch 64 (93537) - https://sketch.com -->
    <title>232</title>
    <desc>Created with Sketch.</desc>
    <g id="232" stroke="none" stroke-width="1" fill="none" fill-rule="evenodd">
        <g id="Group-5">
            <path d="M233.7792,73.6474 L233.4562,73.0174 L233.3662,72.8404 L233.2452,72.6074 L233.2052,72.5294 L233.1312,72.3854 L233.1622,72.2964 L233.2492,72.0494 L233.2782,71.9634 L233.7752,71.4244 L235.3412,70.2934 L235.9932,69.6424 L236.1562,69.1414 L236.2022,69.0014 L236.2082,68.9244 L236.2152,68.8434 L236.2552,68.3154 L235.7072,66.0984 L235.4442,65.0444 L235.3382,64.8044 L234.3972,62.5704 L234.3492,62.4344 L234.3122,62.3294 L234.2872,62.1794 L234.1382,61.2944 L234.1592,60.0584 L235.1932,56.2254 L237.0012,52.2034 L237.7932,51.3084 L237.7562,51.1534 L237.9542,51.1284 L238.6752,49.2844 L238.9892,48.8584 L239.0862,48.7274 L240.1792,47.9814 L240.7062,47.1744 L240.8382,46.3804 L241.4122,45.0264 L242.6462,42.9574 L242.8092,42.6844 C242.8092,42.6844 244.1392,42.6604 244.5622,42.5784 C244.9852,42.4964 245.3852,42.3104 245.7232,41.8374 C246.0612,41.3644 246.2302,40.6844 245.7232,40.2114 C245.2172,39.7394 244.7102,39.6264 244.7102,39.6264 L244.9382,38.4884 L244.6462,36.7574 L244.5922,36.4434 L244.7342,35.6264 L245.0432,35.0574 L245.1212,34.9134 L244.9242,34.6714 L244.4522,34.0974 L244.0302,34.0574 L243.1732,33.8644 L242.2472,32.9534 L242.0232,32.9344 L241.6522,33.2934 L241.2992,33.3444 L240.7562,32.7784 L240.3172,31.8374 L239.6362,31.0764 L239.1662,30.4534 L239.0482,30.4704 L238.7032,30.1414 L238.5282,29.9724 L238.2092,30.7934 L237.6842,31.2884 L237.0242,31.5854 L234.7162,31.7784 L233.6872,31.4224 L233.4142,31.0524 L231.9292,30.1324 L231.0332,29.3294 L230.8892,29.2034 L230.2882,29.0824 L230.5932,28.8334 L230.6532,28.4574 L230.5952,28.3724 L230.4472,28.1524 L229.7022,27.7074 L229.3442,27.4904 L228.0092,26.3024 L227.5592,26.0694 L226.9872,25.2864 L226.8862,24.6694 L227.0892,23.6084 L226.8072,23.0184 L223.4082,21.0994 L221.7372,19.6004 L220.0352,18.4564 L218.7552,17.9974 L217.8982,17.4854 L216.9552,17.1954 L215.9352,16.3784 L214.6782,15.9654 L214.1332,15.5144 C214.1332,15.5144 213.9752,15.1894 213.9902,15.1894 L212.8822,15.5634 L212.0582,14.9044 L211.3872,14.3594 L210.8282,14.2174 L209.8832,13.8344 L208.1302,12.8674 L205.3622,12.6204 L204.2012,12.1264 L202.9332,12.1264 L200.5262,13.6084 L198.1812,14.8224 C198.1812,14.8224 196.0072,15.5634 195.3302,15.6244 C194.6542,15.6854 193.6622,14.7394 193.6622,14.7394 L193.0082,12.9494 L192.0782,12.7024 L192.3322,12.0434 L191.9092,11.4064 L193.2612,11.2414 L193.0922,10.1714 L191.6562,10.1714 L191.0022,9.5334 L189.9872,9.8634 L189.8182,8.8754 L189.2492,8.2984 L189.5642,7.7444 L188.6572,6.5084 L187.9802,7.4144 L188.4882,8.1344 L187.8962,8.2164 L186.7352,9.3694 L186.9042,10.1714 L188.3192,10.3364 L188.9112,11.3234 L188.4882,11.5704 L188.1502,12.6194 L188.1242,12.9914 L187.4502,12.8594 L186.3582,12.0524 L185.5272,11.8384 L184.4022,11.5514 L183.8662,11.6064 L183.9682,11.0764 L184.2212,9.0394 L183.2292,8.7924 L182.6372,7.9904 L182.6372,7.0844 L183.5242,6.4814 L184.6442,6.0354 L183.2292,4.5534 L181.9622,5.2114 L180.9472,4.7394 L180.8842,3.6684 L180.7162,2.7624 L179.6392,2.0434 L179.2162,1.1374 L178.6252,1.7134 L178.5402,2.6804 L178.8792,3.6684 L178.6252,4.5524 L177.0412,5.4584 L177.0412,4.6354 L176.5342,4.3274 L176.8722,3.5034 L176.4492,2.6804 L176.5342,1.5494 L175.8802,0.9734 L174.1892,1.0554 L173.3662,0.5004 L173.0282,1.7964 L173.7042,2.2084 L173.8732,3.0924 L173.1972,3.2574 L172.0362,3.0104 L170.7672,3.3394 L170.0292,3.9164 L169.4372,3.5044 L167.9382,3.9984 L166.9242,5.0474 L166.3542,5.8714 L165.7622,7.0854 L165.9312,7.8254 L165.8472,8.5454 L164.7492,9.6164 L163.4182,9.8624 L162.5732,10.9124 L163.3342,11.3234 L163.8412,12.2074 L163.5872,12.8664 L162.7422,13.1134 L163.0802,14.0804 L163.7562,13.9154 L164.4312,14.4094 L165.3402,15.1504 L166.2692,15.0684 L166.2692,16.0354 L167.5142,16.5284 L167.3462,15.7054 L168.1062,15.9524 C168.1062,15.9524 168.7602,15.7054 169.2682,15.6234 C169.7752,15.5404 170.8512,15.9524 170.8512,15.9524 L170.6822,14.4914 L172.9432,13.6074 L173.1962,14.2444 L173.9572,14.3264 L174.6952,13.6064 L176.0292,13.4274 L176.0552,13.7384 L176.0602,13.8084 L176.5502,14.9994 L176.8772,15.7924 L176.7142,16.3044 L176.3212,16.6014 L175.7632,16.5514 L175.9432,15.8864 L175.8912,15.3604 L175.2102,15.9284 L175.0292,16.6394 L175.5852,18.8264 L175.4482,19.4264 L174.9392,20.3464 L174.9142,20.6844 L174.8892,20.9194 L174.5912,21.1594 L174.0722,20.9754 L172.6042,20.5204 L173.3652,19.1414 L172.2662,18.1534 L171.4432,18.0714 L171.2742,17.4954 L170.1132,17.4344 L169.7752,18.0714 L169.2682,18.8124 L167.5142,19.2234 L167.0082,20.1904 L166.1842,20.6844 L166.8392,21.7334 L168.0222,21.4044 L168.5532,22.1624 L167.9432,22.3434 L167.7672,22.3944 L166.9732,22.6274 L165.7572,22.9304 L165.0912,22.9914 L164.5892,23.2524 L164.1882,23.2844 L164.0232,23.2324 L163.1092,22.9434 L162.8602,22.8174 L162.2712,22.4824 L161.9162,22.5174 L161.1622,23.2894 L160.3872,23.4444 L159.1382,23.3514 L157.8582,23.0184 L157.6172,22.8844 L157.4542,22.7954 L157.1762,22.6434 L156.2712,21.5014 L155.4552,21.0214 L155.3302,20.6514 L155.4162,19.8984 L155.0672,19.4444 L154.4782,19.1794 L153.3462,19.2814 L152.5882,18.6014 L152.2712,18.6344 C152.2712,18.6344 152.0612,18.8384 151.9412,18.8974 C151.8212,18.9564 151.4912,19.0434 151.1312,19.1604 C150.7702,19.2774 150.5002,19.0144 150.2902,18.4584 C150.0792,17.9024 149.2382,18.1664 149.0282,18.3124 C148.8182,18.4584 148.3072,19.1894 148.1872,19.3364 C148.0672,19.4824 147.6772,20.0094 147.2262,20.2724 C146.7762,20.5364 145.7852,20.8574 145.3952,20.9164 C145.0042,20.9744 144.3582,21.6274 144.3582,21.6274 L144.0152,21.8624 L142.9952,21.9864 L142.5662,22.4184 L142.0432,23.9814 L141.7622,24.2334 L141.3622,24.2674 L140.5352,23.8844 L140.0052,23.6324 L139.7322,23.6994 L139.5852,23.7344 L139.0132,24.5064 L138.6262,24.6434 L138.5362,24.6754 L137.7342,24.8604 L136.9002,25.1524 L136.3882,25.1494 L135.7022,24.6464 L135.2502,24.5064 L134.5652,24.5974 L133.5352,24.6104 L132.7192,24.6194 L132.5472,24.7794 L132.3012,25.3614 L132.0642,25.5704 L131.5762,25.6324 L130.7652,25.3754 L130.1032,24.9354 L129.9112,24.5434 L129.8122,23.8394 L129.7732,23.5684 L129.6912,22.9794 L129.6672,22.8124 L129.2582,21.9894 L129.0722,21.8424 L128.9402,21.8014 L128.3732,21.6254 L127.7042,21.5604 L125.2512,22.0704 L124.5272,21.7454 L124.1472,21.7374 L123.5802,22.0244 L123.5272,22.3784 L123.2642,23.0514 L122.6702,23.7724 L122.3062,24.2114 L121.9402,24.4694 L121.4522,24.6294 L120.9792,24.7774 L120.9312,24.7934 L120.0172,25.0724 L119.6722,25.1504 L119.5772,25.1714 L116.8712,25.7834 L116.5722,25.9544 L115.4862,26.7024 L114.5582,26.8714 L113.9512,26.6974 L113.4792,26.2764 L113.0372,25.8794 L112.4502,25.3544 L112.0522,24.9984 L111.7792,24.7534 L111.6542,24.5424 L111.5382,24.3464 L111.3752,24.2104 L111.8512,23.8424 L112.8722,24.0184 L113.2932,23.5494 L114.1942,23.6084 C114.1942,23.6084 114.7942,23.3154 114.8542,22.9644 C114.9142,22.6134 114.7342,22.2044 114.7342,22.2044 L114.1942,21.4434 L115.1542,20.7414 L115.9352,19.9814 L115.0342,20.1564 L113.7132,20.8584 L112.4522,20.6244 L111.1312,22.3214 L109.8092,22.4964 L109.6292,21.5024 L108.6082,21.3264 L108.3082,22.6724 L107.4672,22.5554 L106.8662,22.7894 L106.4462,23.9004 L105.4852,24.1934 L104.0432,25.7144 L103.3222,25.7144 L102.5422,26.4754 L102.8422,27.1774 L103.5632,27.1774 L104.1632,26.8844 L104.8242,27.5284 L104.3432,28.4644 L103.7432,28.3474 L102.7222,28.3474 L103.3222,28.7574 L103.3832,29.4004 L103.6832,30.2204 L103.2622,30.5124 L102.7222,31.1564 L102.1812,31.8584 L100.9802,31.9754 L98.3982,30.3374 L97.6772,31.6834 L99.7792,32.5604 L99.2382,33.6724 L98.2172,34.0234 L97.7972,34.8424 L96.6562,36.0714 C96.6562,36.0714 96.2962,36.3054 95.8152,36.3644 C95.3352,36.4224 95.2152,36.8904 95.2152,36.8904 L94.5542,36.4814 L93.1122,36.4814 C93.1122,36.4814 92.6922,36.4814 92.3922,36.0714 C92.0922,35.6624 91.3712,35.8964 91.3712,35.8964 L89.6892,36.1894 C89.6892,36.1894 88.7882,36.5984 88.4282,36.5984 C88.0682,36.5984 87.8272,37.0074 87.4072,37.1254 C86.9872,37.2424 85.9662,37.9444 85.9662,37.9444 L86.0262,37.3004 L85.3042,37.0664 C85.3042,37.0664 85.3642,36.8914 85.3642,36.5394 C85.3642,36.1884 84.8842,35.8964 84.4642,36.0134 C84.0432,36.1304 83.6232,36.4224 83.6232,36.4224 L82.6022,36.4224 L82.5422,36.0714 L81.8812,35.7794 L80.8602,35.6624 L81.3412,34.1994 L81.5212,32.7944 L82.0612,31.6834 L82.4222,30.8644 L80.1992,31.0394 L78.9382,29.8694 L78.0972,29.8694 L77.4972,30.5714 L76.1152,30.6294 C76.1152,30.6294 75.9352,30.6884 75.2752,31.0394 C74.6142,31.3904 74.4342,30.6884 74.4342,30.6884 L73.4732,30.5714 L72.8722,30.2784 L72.0922,30.2204 L71.0102,29.8114 L69.8692,30.3374 L69.1492,30.8644 L69.1492,32.3854 L69.8692,33.0294 L69.8092,33.7904 L69.9292,34.3754 C69.9292,34.3754 69.2092,35.0194 68.7882,35.0194 C68.3682,35.0194 67.7072,35.3114 67.7072,35.3114 L67.5872,35.9554 L67.1672,36.4814 L66.0262,36.5404 L65.9662,38.2954 L65.6052,39.2314 L64.3432,39.5244 L64.0432,40.4024 C64.0432,40.4024 64.0432,40.9284 63.8632,41.1634 C63.6832,41.3974 62.8422,41.5724 62.8422,41.5724 L62.1212,42.3334 L62.0012,43.0944 L61.7012,43.8554 C61.7012,43.8554 62.4222,43.6794 62.7822,43.5624 C63.1422,43.4444 63.2622,43.2694 63.7432,43.5034 C64.2232,43.7374 64.1632,43.9134 64.7642,43.7374 C65.3642,43.5624 65.4252,43.5624 65.8452,43.5624 C66.2662,43.5624 67.8872,43.3284 67.8872,43.3284 L68.5482,42.9774 L69.5692,42.9774 L70.5902,42.2164 L71.8512,42.4504 L72.1522,43.0944 L72.9322,43.2694 L73.2332,44.3224 L73.8932,45.3174 L73.4132,46.3124 L72.8722,46.9564 L71.3112,46.9564 L70.7102,47.6584 L70.1102,48.7704 L70.2902,49.3554 L69.5092,49.8234 L68.7282,49.9984 L68.0682,50.4084 L66.5062,50.3494 L66.1462,50.8764 L66.5662,51.8714 L66.5662,53.2754 L66.3262,53.9194 L66.8662,54.4454 L66.8662,55.0894 L66.1462,55.4404 L65.9662,56.1424 L65.2442,56.3174 L64.8842,57.0794 L63.8632,57.4294 L63.2022,58.1324 L61.7612,59.0684 L61.2802,60.2384 L60.6522,60.7954 L59.3592,61.4094 L59.2992,62.1694 L60.1002,62.1874 L59.6592,63.2224 L57.9772,64.5094 L56.2962,65.6804 L54.9142,66.4994 L53.8332,66.6164 L52.5122,67.8454 L52.9322,68.2544 L52.8722,69.6594 L51.3112,69.6594 L50.5302,70.0684 L50.2902,71.0634 L49.1492,71.8824 L50.7102,72.5264 L50.8902,73.4624 L50.1702,73.8134 L49.5692,74.7494 L48.6082,74.7494 L46.9872,75.8024 L46.1462,77.2074 L46.0862,77.7924 L46.0862,78.3774 C46.0862,78.3774 44.9442,79.2554 44.6442,79.4304 C44.3432,79.6064 43.0822,79.6654 43.0822,79.6654 L41.7612,80.3674 L37.2572,82.0644 L36.5362,81.4204 L34.9142,83.2344 L34.1942,84.4634 L32.6322,85.8094 L33.3532,86.8624 L34.5542,88.9684 L34.1942,93.2404 L32.8722,95.5224 C32.8722,95.5224 32.9922,96.4584 32.5722,96.9264 C32.1522,97.3944 32.6322,97.7464 33.1122,98.0964 C33.5932,98.4484 34.3142,98.8574 34.3142,98.8574 L33.6532,100.7304 L32.8722,101.7254 L32.0312,102.4864 C32.0312,102.4864 30.4702,103.0124 30.1702,103.1294 C29.8692,103.2464 29.6292,103.6564 29.5692,104.1244 C29.5092,104.5924 28.7882,104.9434 28.7882,104.9434 L22.3012,108.5714 L21.5212,109.2734 L21.3412,110.0344 L18.7582,112.5494 L15.6352,115.0664 L15.3352,115.7684 L12.4522,117.6994 L11.2512,119.1624 L12.5122,120.8594 L14.1942,122.6144 L13.0522,124.1354 L12.4522,123.9014 L11.2512,125.3654 L10.1102,128.5244 L8.6682,129.8704 L8.4882,131.0404 L9.1492,131.5674 L9.2692,132.4444 L8.0082,134.4934 L9.9892,135.1944 L10.2902,135.9554 L10.8902,136.1894 L13.2332,138.2954 L13.7132,137.9454 L14.9142,139.2324 L12.9922,142.4504 L11.6112,144.4984 L11.3712,146.3124 L10.2302,147.7164 L10.8302,148.1844 L10.9502,148.8284 L11.4912,149.2964 L11.6712,150.5844 L11.1312,151.4614 L10.2302,151.8714 L9.1492,151.2274 L7.3472,151.5204 L6.5662,152.5734 L5.6052,151.9884 L4.3432,152.8074 L3.2022,153.9184 L1.8812,154.0944 L1.4612,155.8494 L2.9622,156.7864 L2.4222,157.3714 L1.8212,157.4884 L0.6202,160.0624 L0.5002,160.8814 L1.5212,162.1684 L2.4822,160.9994 L4.7642,161.0574 L5.5452,161.6424 L6.6262,161.1164 L6.8662,160.2384 L8.5482,160.3554 L9.2092,160.2964 L10.3502,160.9404 L11.3112,160.8824 L12.0922,161.2334 L14.6142,159.2444 L15.5752,159.0094 L15.8752,157.2544 L18.6982,154.9144 L19.6592,155.0894 L20.2592,154.6214 C20.2592,154.6214 21.3412,154.2114 21.5812,154.0364 C21.8212,153.8604 22.9622,153.0994 22.9622,153.0994 L23.9232,151.5204 L23.8032,150.4664 L23.1422,150.4664 L22.7822,149.7644 L21.4012,150.9934 L20.6202,150.8764 L19.2382,148.0084 L19.9592,146.9564 L19.1782,145.4344 L18.0372,144.7324 L20.0792,140.1684 L25.7252,135.8374 L31.3112,134.7854 L38.0372,130.8054 L48.1882,131.0404 L57.4372,133.9074 L56.5962,136.8914 L56.5362,138.8234 C56.5362,138.8234 55.9952,139.6414 55.5752,139.8174 C55.1542,139.9934 54.3742,140.4034 54.3742,140.4034 L55.3352,142.5684 L55.8752,142.4514 L56.3562,143.0944 L56.3562,143.6794 L57.3172,144.0884 L58.3982,145.0844 L58.4582,145.7274 C58.4582,145.7274 58.7582,145.9034 59.1782,146.2534 C59.5992,146.6054 59.7792,146.3724 59.7792,146.3724 L60.8602,147.4244 L60.0792,150.5264 L59.2382,151.1694 L58.6382,152.4574 L57.9172,152.6914 L57.7372,153.6854 C57.7372,153.6854 57.4372,154.0374 57.3172,154.3294 C57.1962,154.6224 56.8962,155.5584 56.8962,155.5584 L57.1962,157.5474 L56.4162,158.7174 C56.4162,158.7174 55.8752,159.4194 55.8152,159.7714 C55.7552,160.1224 56.3562,161.5854 56.3562,161.5854 L56.9562,161.4684 L57.1962,162.0534 L57.7372,161.8774 L59.2382,161.8774 L59.6592,162.4044 L63.0822,162.8144 L62.8422,164.7454 L62.1812,165.5644 L62.6022,166.6174 L62.4822,167.8454 L61.8212,168.4904 L61.5212,169.8944 L62.3012,170.3624 L62.9022,169.8354 L63.5632,169.6014 L64.3432,168.2554 L65.6052,168.5484 L65.3642,169.3094 L65.7252,169.7774 L66.3102,169.3564 L67.3472,171.6494 L68.4882,172.9954 L68.7282,173.9314 L69.3292,174.6924 L70.0502,174.6334 L70.4702,175.8624 L71.3712,176.9164 L70.3502,177.6184 L71.0102,178.6134 L72.0922,178.8464 L72.3322,179.3154 L72.2722,180.9534 L72.5722,182.1824 L74.1332,183.2934 L74.2542,184.2894 L74.7942,184.8744 L74.9142,185.5764 C74.9142,185.5764 75.8152,186.0434 76.0552,186.2784 C76.2962,186.5124 76.2362,186.8634 76.2362,187.1564 C76.2362,187.4484 76.5362,188.0914 76.5362,188.0914 C76.5362,188.0914 77.3172,188.1504 77.9172,187.8574 C78.5182,187.5654 78.6982,186.8044 78.6982,186.8044 L80.5002,186.1614 L81.2202,187.3894 C81.4612,187.7984 82.8422,187.9744 82.8422,187.9744 L82.6622,186.8044 L83.8032,185.8094 L84.2832,184.9904 L86.7462,184.8744 L87.7072,184.0544 L88.3682,182.2984 L90.1702,182.8254 L90.5902,183.5274 L91.7312,183.0594 L92.8722,183.3524 L92.9322,183.9964 L94.6742,184.6984 L95.8152,183.4114 L96.4162,183.5864 L97.6772,182.7674 L98.8182,181.3634 L100.3202,181.1874 L100.5002,179.9004 L102.1212,178.6714 L103.5032,178.6134 L105.0642,179.1984 L105.0642,177.4424 L105.6052,176.3894 L107.4672,176.1554 L107.8872,177.0334 L108.0082,177.7354 L111.9112,177.7934 C111.9112,177.7934 112.6322,177.0334 113.2932,177.2674 C113.9532,177.5014 114.2542,178.2034 114.2542,178.2034 L114.4342,179.1394 L115.5752,179.3154 L116.4762,179.9594 L116.5362,181.3634 L116.9562,182.1824 L117.9772,182.2984 L118.8782,180.8354 L120.2592,180.9534 L121.5212,182.0064 L122.4222,182.9424 L123.6832,182.1234 C123.6832,182.1234 124.7642,182.4744 125.0642,182.5334 C125.3642,182.5914 126.6262,182.9424 126.6262,182.9424 L127.3472,182.4164 C127.3472,182.4164 126.5062,181.4204 126.8662,180.8354 C127.2272,180.2514 127.2872,179.4314 127.2872,179.4314 L127.5872,177.6184 C127.5872,177.6184 128.4282,177.2084 128.7882,176.7404 C129.1492,176.2724 129.6292,175.2184 129.6292,175.2184 L133.3532,175.2774 L134.7342,175.2184 L134.9182,174.8684 L135.2152,173.6974 L135.9352,173.5224 L136.0552,171.7084 L137.2572,170.4204 C137.2572,170.4204 136.6562,169.4254 136.6562,168.7244 L136.6562,167.4364 L137.0162,166.8514 L137.3772,164.9794 L139.1182,164.8034 L139.9592,164.4524 L141.2802,164.3354 L142.2412,163.8674 L142.7222,163.3404 L142.6622,162.2884 L143.8032,161.5274 L144.7042,161.5274 L145.4852,160.4164 L144.9442,159.8884 C144.9442,159.8884 145.1242,158.9534 145.3642,158.6604 C145.6052,158.3674 146.1462,157.6064 146.1462,157.6064 L145.5452,156.5534 L144.7642,154.7974 L144.8242,154.0374 L142.6622,152.0474 L142.6622,151.1694 L140.6202,150.4094 L140.7402,149.2974 L142.9022,147.3674 L143.4432,146.4894 L144.7042,145.5534 L145.3042,145.6694 L146.2662,146.1964 L147.5272,145.8454 C147.5272,145.8454 148.0082,145.6114 148.3082,145.6114 C148.6082,145.6114 148.8482,145.4364 148.8482,145.4364 L149.3892,144.9094 L149.9892,143.6804 L150.1102,142.8614 L150.8902,141.9844 L151.9112,141.9844 C151.9112,141.9844 151.9112,141.5154 152.3322,141.3984 C152.7522,141.2824 152.8722,140.9304 152.8722,140.9304 L152.6922,140.2874 L152.8722,139.8764 L153.7132,139.3504 L154.4942,139.5264 L155.3942,138.7074 L156.1162,138.4154 L156.1752,136.6004 L154.6742,135.8394 L155.7562,133.9094 L156.8372,133.9094 L158.6982,132.3874 L159.8402,131.2164 L161.5812,131.2754 L163.1422,130.5154 L164.8842,130.1054 L165.3652,130.2224 L165.7852,130.5734 L165.7852,131.1594 C165.7852,131.1594 166.3262,131.2754 166.5062,131.7444 C166.6862,132.2114 166.6262,132.9144 166.6262,132.9144 L166.2062,133.0314 L166.2652,134.4944 L166.8662,135.1374 L166.7462,135.6644 L166.5062,136.1904 L166.9862,136.7174 L166.9262,137.2444 L166.5062,137.5944 L166.8662,140.5794 L166.3262,141.0464 L166.6862,143.1544 L165.0052,145.0264 L164.9442,146.0804 L164.5242,146.0804 C164.5242,146.0804 164.2842,146.8984 164.6442,147.4844 C165.0052,148.0694 165.6052,148.6544 165.6052,148.6544 L165.9662,149.7664 L165.4252,150.0584 L165.0642,150.6434 L165.9662,151.1124 L166.5062,151.5214 L166.8062,152.4584 L167.7672,152.6324 L168.8482,152.9844 L169.6292,153.4524 L170.8302,153.6864 L171.4842,155.4814 L172.3322,156.6704 L173.2322,157.4314 L174.1932,158.8944 L174.7942,159.7714 L175.3352,159.8884 L175.3942,161.5274 L176.1752,162.3464 L176.4162,163.1654 L178.5182,163.1654 L179.4192,164.2774 L180.5002,164.2774 L180.9802,165.0964 L182.5422,165.3894 L184.5242,162.7554 L185.9052,165.1554 L186.6262,165.3894 L187.8272,165.9744 L188.5482,165.9164 L189.2092,165.3894 L191.1312,167.1444 L192.2712,167.9054 L192.3912,168.6074 L192.2712,169.4854 L191.7912,170.6554 L191.0702,170.5964 C191.0702,170.5964 190.5902,172.1184 190.5302,172.4114 C190.4692,172.7034 190.1092,172.9374 189.8092,173.0544 C189.5082,173.1714 189.2092,173.1714 189.2092,173.1714 L188.2482,174.7514 L188.0672,175.5704 L190.8302,176.1554 L191.6712,176.9744 L192.5722,178.0284 L193.6532,179.4914 L194.6742,179.4914 C194.6742,179.4914 194.5532,180.4864 194.8542,181.0714 C195.1542,181.6564 196.2962,183.1194 196.2962,183.1194 L197.1362,184.4644 L197.1362,185.3424 L197.4372,185.9864 L197.6172,187.2144 L198.2172,188.0344 L197.1362,189.3794 L196.5362,190.2574 L196.2962,191.1934 L197.5572,191.1344 L197.9772,190.4324 L199.2992,190.2574 L200.0192,191.0774 L201.1612,190.6674 L201.7612,191.2524 L201.7612,191.8964 L202.4822,192.4224 L203.0872,192.5974 L203.3832,191.9544 L203.8032,190.6674 L204.4642,189.8474 L204.4642,188.9124 L205.1252,187.0974 L205.9662,186.8634 L206.9262,185.4604 L206.3262,184.2304 L205.0642,182.8844 L204.4642,182.8844 L204.1642,182.2994 L202.6622,182.0064 L202.9022,181.3634 L202.2422,180.8364 L202.3622,179.4914 L200.8602,178.2614 L201.2202,177.2094 L202.1222,177.0334 L202.1812,176.5064 L202.9632,176.3314 L203.1422,175.2194 L202.5422,173.4634 L201.7612,172.2354 L202.2422,171.3574 L202.6622,170.4214 L204.6442,169.1344 L205.7252,169.3094 L206.5662,168.9594 L206.5662,168.1394 L207.3462,167.2034 L206.2652,164.3954 L206.3262,163.7514 L207.5272,163.1664 L208.1872,162.5224 L209.4492,161.9964 L210.0502,160.8254 L211.1902,159.7724 L211.8512,159.5384 L212.0922,158.6604 L213.7132,158.5434 L214.0132,158.0754 L214.7942,155.0334 L215.8152,154.3304 L216.1752,153.8624 L216.2962,153.0434 L217.0162,152.6334 L217.7372,152.5754 L218.0972,149.4734 L218.7582,149.0644 L218.7582,148.1864 L219.3592,147.7774 L219.5992,147.1924 L220.2002,146.4314 L220.2002,145.1444 L220.8002,144.5004 L220.8602,143.0374 L221.1612,141.7504 L220.0192,140.6974 L219.7792,139.2934 L220.2592,138.0644 L219.8402,137.0694 L220.0192,135.7234 L218.7582,134.6114 L217.9182,133.5004 L217.9182,131.8024 L219.0582,131.6264 L219.5392,130.9834 L219.7792,128.2334 L220.1392,127.3564 L222.4822,126.3614 L225.1252,126.3614 L225.6652,126.0684 L226.5062,126.4774 L226.5062,127.2384 L226.2062,127.6484 L227.2872,128.7024 L227.5272,129.4614 L228.7282,130.1064 L229.5692,129.2284 L229.6292,127.7074 L230.5902,126.8874 L232.2122,126.1854 L232.3912,127.1224 L232.2122,128.5264 L232.4522,130.2824 L232.1512,130.9254 L231.7312,134.6704 L232.2712,135.3724 L232.7522,137.8304 L232.2122,138.7654 L234.2542,139.7024 L234.8542,140.2874 L235.6352,142.8034 L236.2362,144.0904 L237.7372,145.7294 L238.5182,145.5534 L239.2392,146.0214 L240.2002,146.4904 L241.8212,146.5484 L242.5422,147.2504 L243.9832,147.2504 L246.3852,145.8454 L246.9862,146.4904 L248.0672,146.9584 L248.6682,146.7824 L248.9082,145.7294 L249.5082,144.6174 L248.9082,144.1494 L248.9082,143.5644 L249.3882,142.7454 L249.3882,142.1014 L250.1702,141.1654 L250.8902,141.1654 L251.6112,141.6914 L251.8512,142.2774 L252.8122,142.6274 L253.7732,141.9254 L254.9742,141.6914 L255.9962,140.9894 L256.7162,140.2284 L257.4972,139.8774 L259.0582,139.9364 L259.9602,139.5854 L260.0802,138.9414 L261.6412,138.2394 L263.0832,139.4094 C263.0832,139.4094 263.3232,138.7654 263.7432,138.6484 C264.1642,138.5314 265.1252,138.4154 265.1252,138.4154 L265.2452,139.1164 L265.9662,140.1114 L266.9862,140.7544 L267.6472,140.8724 L267.7072,142.1594 L266.8062,143.9734 L267.6472,144.5004 C267.6472,144.5004 268.2482,145.4954 268.1282,145.9624 C268.0082,146.4304 267.8272,147.3674 267.8272,147.3674 L269.5692,147.9534 L271.6712,149.1814 C271.6712,149.1814 272.3912,149.7664 272.3322,150.4684 C272.2712,151.1704 272.1512,152.1064 272.1512,152.1064 L271.6712,152.8674 L272.7522,153.7454 C272.7522,153.7454 273.4132,152.4584 274.6142,152.8084 C275.8152,153.1604 276.2362,153.2184 276.2362,153.2184 L277.2572,152.9254 L279.6592,150.4684 L279.5392,149.5324 L278.7582,149.0644 L278.6982,148.0104 L278.0972,147.7764 L278.1582,146.8994 L277.4972,146.7824 L277.0772,145.9624 L275.8152,145.0274 L275.4552,143.9154 L274.8542,142.8624 L275.0942,140.9894 L276.3562,140.1114 L276.3562,138.4154 L277.7372,137.4794 L278.7582,137.7124 C278.7582,137.7124 278.8182,137.1864 278.8182,136.7774 C278.8182,136.3674 278.6982,135.3144 278.6982,135.3144 L277.9182,135.4904 L277.6772,134.6124 L277.3172,133.9104 L276.4762,133.8514 L275.5152,134.1434 L275.2152,134.5534 L273.4132,134.4954 L273.0522,134.0274 L272.3912,134.0274 L271.6112,132.7404 L270.6502,132.3304 L270.7702,131.1604 L271.4912,130.3994 L270.8902,129.2874 L270.8902,125.8934 L271.4302,125.3084 L271.3712,123.9044 L270.8902,123.5524 L271.0102,122.7334 L272.1512,122.1484 L272.8122,120.9194 L273.4722,120.5094 L272.9922,119.9834 L273.1122,119.2224 L274.2542,119.1064 L274.5532,118.4624 L274.4942,116.7074 L274.9142,115.9464 L276.7172,116.4144 L277.3772,115.8294 L278.9992,115.4184 L280.0802,114.4244 L282.1222,115.0684 L282.5422,114.2494 L284.1032,113.5464 L284.2842,114.8344 L285.4252,116.1794 L284.2842,118.2864 L284.7642,119.9244 L285.6652,119.1644 L287.4072,120.0424 L287.8272,120.6854 L288.0082,121.8554 L289.7492,121.6794 L290.7702,122.6744 L291.3712,121.2704 L292.3912,121.2704 L294.3132,122.3234 L295.6952,121.7384 L298.0382,123.2014 L299.1192,122.3814 L299.4192,121.3874 L299.2992,120.5684 L299.8402,119.2814 L300.0802,118.4034 L300.2002,116.0624 L299.2992,114.5994 L298.0822,113.5154 L295.6952,113.6644 L295.3352,114.1904 L294.5532,113.8384 C294.5532,113.8384 294.3742,113.2534 294.2542,112.8444 C294.1332,112.4344 293.8932,111.9084 293.8932,111.9084 C293.8932,111.9084 293.9532,110.5034 293.6532,109.9774 C293.3522,109.4504 293.1732,108.9234 293.1732,108.9234 L294.1932,107.6954 L294.6742,106.8764 L295.2152,106.9344 C295.2152,106.9344 295.5752,106.1734 295.2152,105.5884 C294.8542,105.0034 294.4942,104.5934 294.4942,104.5934 L294.4942,103.7744 C294.4942,103.7744 295.1542,103.1894 295.7562,102.8964 C296.3562,102.6044 297.0772,101.8434 297.0772,101.8434 L297.0162,100.4394 L295.9352,99.1524 L296.1752,97.7474 L297.0772,97.8064 L297.6772,96.8704 L298.0382,94.9974 L298.5782,93.4764 L299.2392,92.6564 L299.6592,92.3054 L299.4192,91.0184 L298.9382,89.7314 L299.2992,88.3854 L299.7792,87.0404 L300.2592,86.2204 L300.5002,84.5234 L300.0192,83.7634 L298.3982,82.5924 L296.8372,82.3004 L296.0552,81.7154 L295.9352,80.8374 L294.4942,79.6084 L294.3742,79.1404 L293.5922,78.6724 L292.8122,79.5504 L291.3712,79.5504 L290.4102,81.1884 L290.1702,81.9494 L289.9292,82.3584 L289.8092,83.1784 L289.0892,83.5294 L288.7882,84.5824 L289.1482,85.1084 L289.2092,85.9864 L288.4272,85.8694 L287.8872,86.3374 L286.4462,85.7524 L284.2232,85.3424 L283.8032,87.2734 L283.2032,88.7364 L283.6232,89.4974 L283.5032,91.6624 L281.7612,91.7214 L280.9212,91.7214 L280.0802,92.8914 L278.3382,93.6524 L278.2172,93.1264 L276.4162,93.4764 L275.8762,93.9444 L274.6742,94.0034 L274.6742,93.5354 L274.0132,93.1844 L273.9532,92.3644 L271.4912,91.9554 L271.6112,90.8434 L269.8692,89.0294 L269.0892,88.5614 L268.2172,88.4244 L266.8642,87.9314 L266.3572,86.7174 L265.4492,87.1074 L263.9502,87.0244 L262.2822,86.3054 L260.0222,85.0704 L259.2602,82.0664 L260.5912,79.8644 L260.5292,78.8154 L259.4302,78.1574 L259.4302,77.4984 L259.7682,76.7784 L258.8392,76.5314 L258.2692,77.1074 L256.9172,77.4984 L256.0932,76.6964 L255.2482,76.4494 L254.2562,75.7914 L253.5802,74.9884 L252.1652,75.3184 L251.0662,75.1534 L250.6662,74.5774 L249.1442,74.4124 L248.3212,73.8364 L247.2222,73.6104 L246.6532,72.9524 L244.9002,73.2814 L243.8852,73.9184 L243.0622,73.9184 L241.8792,73.0344 L240.1272,73.5284 L239.1332,74.0834 L238.3732,74.0014 L238.1192,73.2814 L237.5282,72.7054 L236.0282,73.2814 L234.0222,73.6104 L233.7792,73.6474 Z M183.4662,11.6484 L183.2012,11.6744 L182.6242,11.7344 L182.0122,11.4414 L181.5452,11.4094 L180.2592,11.9884 L180.2942,11.4884 L180.2942,10.7474 L179.6392,10.0064 L179.8082,9.3694 L181.1382,9.5334 L182.2152,9.2874 L182.5532,10.1714 L183.2372,11.0774 L183.4662,11.6484 Z M199.0642,178.9104 L199.8402,178.9054 L200.0202,177.2084 L198.8792,177.0904 L198.5182,178.8464 L199.0642,178.9104 Z" id="Fill-1" fill="#FFFFFF"></path>
            <path d="M233.7792,73.6474 L233.4562,73.0174 L233.3662,72.8404 L233.2452,72.6074 L233.2052,72.5294 L233.1312,72.3854 L233.1622,72.2964 L233.2492,72.0494 L233.2782,71.9634 L233.7752,71.4244 L235.3412,70.2934 L235.9932,69.6424 L236.1562,69.1414 L236.2022,69.0014 L236.2082,68.9244 L236.2152,68.8434 L236.2552,68.3154 L235.7072,66.0984 L235.4442,65.0444 L235.3382,64.8044 L234.3972,62.5704 L234.3492,62.4344 L234.3122,62.3294 L234.2872,62.1794 L234.1382,61.2944 L234.1592,60.0584 L235.1932,56.2254 L237.0012,52.2034 L237.7932,51.3084 L237.7562,51.1534 L237.9542,51.1284 L238.6752,49.2844 L238.9892,48.8584 L239.0862,48.7274 L240.1792,47.9814 L240.7062,47.1744 L240.8382,46.3804 L241.4122,45.0264 L242.6462,42.9574 L242.8092,42.6844 C242.8092,42.6844 244.1392,42.6604 244.5622,42.5784 C244.9852,42.4964 245.3852,42.3104 245.7232,41.8374 C246.0612,41.3644 246.2302,40.6844 245.7232,40.2114 C245.2172,39.7394 244.7102,39.6264 244.7102,39.6264 L244.9382,38.4884 L244.6462,36.7574 L244.5922,36.4434 L244.7342,35.6264 L245.0432,35.0574 L245.1212,34.9134 L244.9242,34.6714 L244.4522,34.0974 L244.0302,34.0574 L243.1732,33.8644 L242.2472,32.9534 L242.0232,32.9344 L241.6522,33.2934 L241.2992,33.3444 L240.7562,32.7784 L240.3172,31.8374 L239.6362,31.0764 L239.1662,30.4534 L239.0482,30.4704 L238.7032,30.1414 L238.5282,29.9724 L238.2092,30.7934 L237.6842,31.2884 L237.0242,31.5854 L234.7162,31.7784 L233.6872,31.4224 L233.4142,31.0524 L231.9292,30.1324 L231.0332,29.3294 L230.8892,29.2034 L230.2882,29.0824 L230.5932,28.8334 L230.6532,28.4574 L230.5952,28.3724 L230.4472,28.1524 L229.7022,27.7074 L229.3442,27.4904 L228.0092,26.3024 L227.5592,26.0694 L226.9872,25.2864 L226.8862,24.6694 L227.0892,23.6084 L226.8072,23.0184 L223.4082,21.0994 L221.7372,19.6004 L220.0352,18.4564 L218.7552,17.9974 L217.8982,17.4854 L216.9552,17.1954 L215.9352,16.3784 L214.6782,15.9654 L214.1332,15.5144 C214.1332,15.5144 213.9752,15.1894 213.9902,15.1894 L212.8822,15.5634 L212.0582,14.9044 L211.3872,14.3594 L210.8282,14.2174 L209.8832,13.8344 L208.1302,12.8674 L205.3622,12.6204 L204.2012,12.1264 L202.9332,12.1264 L200.5262,13.6084 L198.1812,14.8224 C198.1812,14.8224 196.0072,15.5634 195.3302,15.6244 C194.6542,15.6854 193.6622,14.7394 193.6622,14.7394 L193.0082,12.9494 L192.0782,12.7024 L192.3322,12.0434 L191.9092,11.4064 L193.2612,11.2414 L193.0922,10.1714 L191.6562,10.1714 L191.0022,9.5334 L189.9872,9.8634 L189.8182,8.8754 L189.2492,8.2984 L189.5642,7.7444 L188.6572,6.5084 L187.9802,7.4144 L188.4882,8.1344 L187.8962,8.2164 L186.7352,9.3694 L186.9042,10.1714 L188.3192,10.3364 L188.9112,11.3234 L188.4882,11.5704 L188.1502,12.6194 L188.1242,12.9914 L187.4502,12.8594 L186.3582,12.0524 L185.5272,11.8384 L184.4022,11.5514 L183.8662,11.6064 L183.9682,11.0764 L184.2212,9.0394 L183.2292,8.7924 L182.6372,7.9904 L182.6372,7.0844 L183.5242,6.4814 L184.6442,6.0354 L183.2292,4.5534 L181.9622,5.2114 L180.9472,4.7394 L180.8842,3.6684 L180.7162,2.7624 L179.6392,2.0434 L179.2162,1.1374 L178.6252,1.7134 L178.5402,2.6804 L178.8792,3.6684 L178.6252,4.5524 L177.0412,5.4584 L177.0412,4.6354 L176.5342,4.3274 L176.8722,3.5034 L176.4492,2.6804 L176.5342,1.5494 L175.8802,0.9734 L174.1892,1.0554 L173.3662,0.5004 L173.0282,1.7964 L173.7042,2.2084 L173.8732,3.0924 L173.1972,3.2574 L172.0362,3.0104 L170.7672,3.3394 L170.0292,3.9164 L169.4372,3.5044 L167.9382,3.9984 L166.9242,5.0474 L166.3542,5.8714 L165.7622,7.0854 L165.9312,7.8254 L165.8472,8.5454 L164.7492,9.6164 L163.4182,9.8624 L162.5732,10.9124 L163.3342,11.3234 L163.8412,12.2074 L163.5872,12.8664 L162.7422,13.1134 L163.0802,14.0804 L163.7562,13.9154 L164.4312,14.4094 L165.3402,15.1504 L166.2692,15.0684 L166.2692,16.0354 L167.5142,16.5284 L167.3462,15.7054 L168.1062,15.9524 C168.1062,15.9524 168.7602,15.7054 169.2682,15.6234 C169.7752,15.5404 170.8512,15.9524 170.8512,15.9524 L170.6822,14.4914 L172.9432,13.6074 L173.1962,14.2444 L173.9572,14.3264 L174.6952,13.6064 L176.0292,13.4274 L176.0552,13.7384 L176.0602,13.8084 L176.5502,14.9994 L176.8772,15.7924 L176.7142,16.3044 L176.3212,16.6014 L175.7632,16.5514 L175.9432,15.8864 L175.8912,15.3604 L175.2102,15.9284 L175.0292,16.6394 L175.5852,18.8264 L175.4482,19.4264 L174.9392,20.3464 L174.9142,20.6844 L174.8892,20.9194 L174.5912,21.1594 L174.0722,20.9754 L172.6042,20.5204 L173.3652,19.1414 L172.2662,18.1534 L171.4432,18.0714 L171.2742,17.4954 L170.1132,17.4344 L169.7752,18.0714 L169.2682,18.8124 L167.5142,19.2234 L167.0082,20.1904 L166.1842,20.6844 L166.8392,21.7334 L168.0222,21.4044 L168.5532,22.1624 L167.9432,22.3434 L167.7672,22.3944 L166.9732,22.6274 L165.7572,22.9304 L165.0912,22.9914 L164.5892,23.2524 L164.1882,23.2844 L164.0232,23.2324 L163.1092,22.9434 L162.8602,22.8174 L162.2712,22.4824 L161.9162,22.5174 L161.1622,23.2894 L160.3872,23.4444 L159.1382,23.3514 L157.8582,23.0184 L157.6172,22.8844 L157.4542,22.7954 L157.1762,22.6434 L156.2712,21.5014 L155.4552,21.0214 L155.3302,20.6514 L155.4162,19.8984 L155.0672,19.4444 L154.4782,19.1794 L153.3462,19.2814 L152.5882,18.6014 L152.2712,18.6344 C152.2712,18.6344 152.0612,18.8384 151.9412,18.8974 C151.8212,18.9564 151.4912,19.0434 151.1312,19.1604 C150.7702,19.2774 150.5002,19.0144 150.2902,18.4584 C150.0792,17.9024 149.2382,18.1664 149.0282,18.3124 C148.8182,18.4584 148.3072,19.1894 148.1872,19.3364 C148.0672,19.4824 147.6772,20.0094 147.2262,20.2724 C146.7762,20.5364 145.7852,20.8574 145.3952,20.9164 C145.0042,20.9744 144.3582,21.6274 144.3582,21.6274 L144.0152,21.8624 L142.9952,21.9864 L142.5662,22.4184 L142.0432,23.9814 L141.7622,24.2334 L141.3622,24.2674 L140.5352,23.8844 L140.0052,23.6324 L139.7322,23.6994 L139.5852,23.7344 L139.0132,24.5064 L138.6262,24.6434 L138.5362,24.6754 L137.7342,24.8604 L136.9002,25.1524 L136.3882,25.1494 L135.7022,24.6464 L135.2502,24.5064 L134.5652,24.5974 L133.5352,24.6104 L132.7192,24.6194 L132.5472,24.7794 L132.3012,25.3614 L132.0642,25.5704 L131.5762,25.6324 L130.7652,25.3754 L130.1032,24.9354 L129.9112,24.5434 L129.8122,23.8394 L129.7732,23.5684 L129.6912,22.9794 L129.6672,22.8124 L129.2582,21.9894 L129.0722,21.8424 L128.9402,21.8014 L128.3732,21.6254 L127.7042,21.5604 L125.2512,22.0704 L124.5272,21.7454 L124.1472,21.7374 L123.5802,22.0244 L123.5272,22.3784 L123.2642,23.0514 L122.6702,23.7724 L122.3062,24.2114 L121.9402,24.4694 L121.4522,24.6294 L120.9792,24.7774 L120.9312,24.7934 L120.0172,25.0724 L119.6722,25.1504 L119.5772,25.1714 L116.8712,25.7834 L116.5722,25.9544 L115.4862,26.7024 L114.5582,26.8714 L113.9512,26.6974 L113.4792,26.2764 L113.0372,25.8794 L112.4502,25.3544 L112.0522,24.9984 L111.7792,24.7534 L111.6542,24.5424 L111.5382,24.3464 L111.3752,24.2104 L111.8512,23.8424 L112.8722,24.0184 L113.2932,23.5494 L114.1942,23.6084 C114.1942,23.6084 114.7942,23.3154 114.8542,22.9644 C114.9142,22.6134 114.7342,22.2044 114.7342,22.2044 L114.1942,21.4434 L115.1542,20.7414 L115.9352,19.9814 L115.0342,20.1564 L113.7132,20.8584 L112.4522,20.6244 L111.1312,22.3214 L109.8092,22.4964 L109.6292,21.5024 L108.6082,21.3264 L108.3082,22.6724 L107.4672,22.5554 L106.8662,22.7894 L106.4462,23.9004 L105.4852,24.1934 L104.0432,25.7144 L103.3222,25.7144 L102.5422,26.4754 L102.8422,27.1774 L103.5632,27.1774 L104.1632,26.8844 L104.8242,27.5284 L104.3432,28.4644 L103.7432,28.3474 L102.7222,28.3474 L103.3222,28.7574 L103.3832,29.4004 L103.6832,30.2204 L103.2622,30.5124 L102.7222,31.1564 L102.1812,31.8584 L100.9802,31.9754 L98.3982,30.3374 L97.6772,31.6834 L99.7792,32.5604 L99.2382,33.6724 L98.2172,34.0234 L97.7972,34.8424 L96.6562,36.0714 C96.6562,36.0714 96.2962,36.3054 95.8152,36.3644 C95.3352,36.4224 95.2152,36.8904 95.2152,36.8904 L94.5542,36.4814 L93.1122,36.4814 C93.1122,36.4814 92.6922,36.4814 92.3922,36.0714 C92.0922,35.6624 91.3712,35.8964 91.3712,35.8964 L89.6892,36.1894 C89.6892,36.1894 88.7882,36.5984 88.4282,36.5984 C88.0682,36.5984 87.8272,37.0074 87.4072,37.1254 C86.9872,37.2424 85.9662,37.9444 85.9662,37.9444 L86.0262,37.3004 L85.3042,37.0664 C85.3042,37.0664 85.3642,36.8914 85.3642,36.5394 C85.3642,36.1884 84.8842,35.8964 84.4642,36.0134 C84.0432,36.1304 83.6232,36.4224 83.6232,36.4224 L82.6022,36.4224 L82.5422,36.0714 L81.8812,35.7794 L80.8602,35.6624 L81.3412,34.1994 L81.5212,32.7944 L82.0612,31.6834 L82.4222,30.8644 L80.1992,31.0394 L78.9382,29.8694 L78.0972,29.8694 L77.4972,30.5714 L76.1152,30.6294 C76.1152,30.6294 75.9352,30.6884 75.2752,31.0394 C74.6142,31.3904 74.4342,30.6884 74.4342,30.6884 L73.4732,30.5714 L72.8722,30.2784 L72.0922,30.2204 L71.0102,29.8114 L69.8692,30.3374 L69.1492,30.8644 L69.1492,32.3854 L69.8692,33.0294 L69.8092,33.7904 L69.9292,34.3754 C69.9292,34.3754 69.2092,35.0194 68.7882,35.0194 C68.3682,35.0194 67.7072,35.3114 67.7072,35.3114 L67.5872,35.9554 L67.1672,36.4814 L66.0262,36.5404 L65.9662,38.2954 L65.6052,39.2314 L64.3432,39.5244 L64.0432,40.4024 C64.0432,40.4024 64.0432,40.9284 63.8632,41.1634 C63.6832,41.3974 62.8422,41.5724 62.8422,41.5724 L62.1212,42.3334 L62.0012,43.0944 L61.7012,43.8554 C61.7012,43.8554 62.4222,43.6794 62.7822,43.5624 C63.1422,43.4444 63.2622,43.2694 63.7432,43.5034 C64.2232,43.7374 64.1632,43.9134 64.7642,43.7374 C65.3642,43.5624 65.4252,43.5624 65.8452,43.5624 C66.2662,43.5624 67.8872,43.3284 67.8872,43.3284 L68.5482,42.9774 L69.5692,42.9774 L70.5902,42.2164 L71.8512,42.4504 L72.1522,43.0944 L72.9322,43.2694 L73.2332,44.3224 L73.8932,45.3174 L73.4132,46.3124 L72.8722,46.9564 L71.3112,46.9564 L70.7102,47.6584 L70.1102,48.7704 L70.2902,49.3554 L69.5092,49.8234 L68.7282,49.9984 L68.0682,50.4084 L66.5062,50.3494 L66.1462,50.8764 L66.5662,51.8714 L66.5662,53.2754 L66.3262,53.9194 L66.8662,54.4454 L66.8662,55.0894 L66.1462,55.4404 L65.9662,56.1424 L65.2442,56.3174 L64.8842,57.0794 L63.8632,57.4294 L63.2022,58.1324 L61.7612,59.0684 L61.2802,60.2384 L60.6522,60.7954 L59.3592,61.4094 L59.2992,62.1694 L60.1002,62.1874 L59.6592,63.2224 L57.9772,64.5094 L56.2962,65.6804 L54.9142,66.4994 L53.8332,66.6164 L52.5122,67.8454 L52.9322,68.2544 L52.8722,69.6594 L51.3112,69.6594 L50.5302,70.0684 L50.2902,71.0634 L49.1492,71.8824 L50.7102,72.5264 L50.8902,73.4624 L50.1702,73.8134 L49.5692,74.7494 L48.6082,74.7494 L46.9872,75.8024 L46.1462,77.2074 L46.0862,77.7924 L46.0862,78.3774 C46.0862,78.3774 44.9442,79.2554 44.6442,79.4304 C44.3432,79.6064 43.0822,79.6654 43.0822,79.6654 L41.7612,80.3674 L37.2572,82.0644 L36.5362,81.4204 L34.9142,83.2344 L34.1942,84.4634 L32.6322,85.8094 L33.3532,86.8624 L34.5542,88.9684 L34.1942,93.2404 L32.8722,95.5224 C32.8722,95.5224 32.9922,96.4584 32.5722,96.9264 C32.1522,97.3944 32.6322,97.7464 33.1122,98.0964 C33.5932,98.4484 34.3142,98.8574 34.3142,98.8574 L33.6532,100.7304 L32.8722,101.7254 L32.0312,102.4864 C32.0312,102.4864 30.4702,103.0124 30.1702,103.1294 C29.8692,103.2464 29.6292,103.6564 29.5692,104.1244 C29.5092,104.5924 28.7882,104.9434 28.7882,104.9434 L22.3012,108.5714 L21.5212,109.2734 L21.3412,110.0344 L18.7582,112.5494 L15.6352,115.0664 L15.3352,115.7684 L12.4522,117.6994 L11.2512,119.1624 L12.5122,120.8594 L14.1942,122.6144 L13.0522,124.1354 L12.4522,123.9014 L11.2512,125.3654 L10.1102,128.5244 L8.6682,129.8704 L8.4882,131.0404 L9.1492,131.5674 L9.2692,132.4444 L8.0082,134.4934 L9.9892,135.1944 L10.2902,135.9554 L10.8902,136.1894 L13.2332,138.2954 L13.7132,137.9454 L14.9142,139.2324 L12.9922,142.4504 L11.6112,144.4984 L11.3712,146.3124 L10.2302,147.7164 L10.8302,148.1844 L10.9502,148.8284 L11.4912,149.2964 L11.6712,150.5844 L11.1312,151.4614 L10.2302,151.8714 L9.1492,151.2274 L7.3472,151.5204 L6.5662,152.5734 L5.6052,151.9884 L4.3432,152.8074 L3.2022,153.9184 L1.8812,154.0944 L1.4612,155.8494 L2.9622,156.7864 L2.4222,157.3714 L1.8212,157.4884 L0.6202,160.0624 L0.5002,160.8814 L1.5212,162.1684 L2.4822,160.9994 L4.7642,161.0574 L5.5452,161.6424 L6.6262,161.1164 L6.8662,160.2384 L8.5482,160.3554 L9.2092,160.2964 L10.3502,160.9404 L11.3112,160.8824 L12.0922,161.2334 L14.6142,159.2444 L15.5752,159.0094 L15.8752,157.2544 L18.6982,154.9144 L19.6592,155.0894 L20.2592,154.6214 C20.2592,154.6214 21.3412,154.2114 21.5812,154.0364 C21.8212,153.8604 22.9622,153.0994 22.9622,153.0994 L23.9232,151.5204 L23.8032,150.4664 L23.1422,150.4664 L22.7822,149.7644 L21.4012,150.9934 L20.6202,150.8764 L19.2382,148.0084 L19.9592,146.9564 L19.1782,145.4344 L18.0372,144.7324 L20.0792,140.1684 L25.7252,135.8374 L31.3112,134.7854 L38.0372,130.8054 L48.1882,131.0404 L57.4372,133.9074 L56.5962,136.8914 L56.5362,138.8234 C56.5362,138.8234 55.9952,139.6414 55.5752,139.8174 C55.1542,139.9934 54.3742,140.4034 54.3742,140.4034 L55.3352,142.5684 L55.8752,142.4514 L56.3562,143.0944 L56.3562,143.6794 L57.3172,144.0884 L58.3982,145.0844 L58.4582,145.7274 C58.4582,145.7274 58.7582,145.9034 59.1782,146.2534 C59.5992,146.6054 59.7792,146.3724 59.7792,146.3724 L60.8602,147.4244 L60.0792,150.5264 L59.2382,151.1694 L58.6382,152.4574 L57.9172,152.6914 L57.7372,153.6854 C57.7372,153.6854 57.4372,154.0374 57.3172,154.3294 C57.1962,154.6224 56.8962,155.5584 56.8962,155.5584 L57.1962,157.5474 L56.4162,158.7174 C56.4162,158.7174 55.8752,159.4194 55.8152,159.7714 C55.7552,160.1224 56.3562,161.5854 56.3562,161.5854 L56.9562,161.4684 L57.1962,162.0534 L57.7372,161.8774 L59.2382,161.8774 L59.6592,162.4044 L63.0822,162.8144 L62.8422,164.7454 L62.1812,165.5644 L62.6022,166.6174 L62.4822,167.8454 L61.8212,168.4904 L61.5212,169.8944 L62.3012,170.3624 L62.9022,169.8354 L63.5632,169.6014 L64.3432,168.2554 L65.6052,168.5484 L65.3642,169.3094 L65.7252,169.7774 L66.3102,169.3564 L67.3472,171.6494 L68.4882,172.9954 L68.7282,173.9314 L69.3292,174.6924 L70.0502,174.6334 L70.4702,175.8624 L71.3712,176.9164 L70.3502,177.6184 L71.0102,178.6134 L72.0922,178.8464 L72.3322,179.3154 L72.2722,180.9534 L72.5722,182.1824 L74.1332,183.2934 L74.2542,184.2894 L74.7942,184.8744 L74.9142,185.5764 C74.9142,185.5764 75.8152,186.0434 76.0552,186.2784 C76.2962,186.5124 76.2362,186.8634 76.2362,187.1564 C76.2362,187.4484 76.5362,188.0914 76.5362,188.0914 C76.5362,188.0914 77.3172,188.1504 77.9172,187.8574 C78.5182,187.5654 78.6982,186.8044 78.6982,186.8044 L80.5002,186.1614 L81.2202,187.3894 C81.4612,187.7984 82.8422,187.9744 82.8422,187.9744 L82.6622,186.8044 L83.8032,185.8094 L84.2832,184.9904 L86.7462,184.8744 L87.7072,184.0544 L88.3682,182.2984 L90.1702,182.8254 L90.5902,183.5274 L91.7312,183.0594 L92.8722,183.3524 L92.9322,183.9964 L94.6742,184.6984 L95.8152,183.4114 L96.4162,183.5864 L97.6772,182.7674 L98.8182,181.3634 L100.3202,181.1874 L100.5002,179.9004 L102.1212,178.6714 L103.5032,178.6134 L105.0642,179.1984 L105.0642,177.4424 L105.6052,176.3894 L107.4672,176.1554 L107.8872,177.0334 L108.0082,177.7354 L111.9112,177.7934 C111.9112,177.7934 112.6322,177.0334 113.2932,177.2674 C113.9532,177.5014 114.2542,178.2034 114.2542,178.2034 L114.4342,179.1394 L115.5752,179.3154 L116.4762,179.9594 L116.5362,181.3634 L116.9562,182.1824 L117.9772,182.2984 L118.8782,180.8354 L120.2592,180.9534 L121.5212,182.0064 L122.4222,182.9424 L123.6832,182.1234 C123.6832,182.1234 124.7642,182.4744 125.0642,182.5334 C125.3642,182.5914 126.6262,182.9424 126.6262,182.9424 L127.3472,182.4164 C127.3472,182.4164 126.5062,181.4204 126.8662,180.8354 C127.2272,180.2514 127.2872,179.4314 127.2872,179.4314 L127.5872,177.6184 C127.5872,177.6184 128.4282,177.2084 128.7882,176.7404 C129.1492,176.2724 129.6292,175.2184 129.6292,175.2184 L133.3532,175.2774 L134.7342,175.2184 L134.9182,174.8684 L135.2152,173.6974 L135.9352,173.5224 L136.0552,171.7084 L137.2572,170.4204 C137.2572,170.4204 136.6562,169.4254 136.6562,168.7244 L136.6562,167.4364 L137.0162,166.8514 L137.3772,164.9794 L139.1182,164.8034 L139.9592,164.4524 L141.2802,164.3354 L142.2412,163.8674 L142.7222,163.3404 L142.6622,162.2884 L143.8032,161.5274 L144.7042,161.5274 L145.4852,160.4164 L144.9442,159.8884 C144.9442,159.8884 145.1242,158.9534 145.3642,158.6604 C145.6052,158.3674 146.1462,157.6064 146.1462,157.6064 L145.5452,156.5534 L144.7642,154.7974 L144.8242,154.0374 L142.6622,152.0474 L142.6622,151.1694 L140.6202,150.4094 L140.7402,149.2974 L142.9022,147.3674 L143.4432,146.4894 L144.7042,145.5534 L145.3042,145.6694 L146.2662,146.1964 L147.5272,145.8454 C147.5272,145.8454 148.0082,145.6114 148.3082,145.6114 C148.6082,145.6114 148.8482,145.4364 148.8482,145.4364 L149.3892,144.9094 L149.9892,143.6804 L150.1102,142.8614 L150.8902,141.9844 L151.9112,141.9844 C151.9112,141.9844 151.9112,141.5154 152.3322,141.3984 C152.7522,141.2824 152.8722,140.9304 152.8722,140.9304 L152.6922,140.2874 L152.8722,139.8764 L153.7132,139.3504 L154.4942,139.5264 L155.3942,138.7074 L156.1162,138.4154 L156.1752,136.6004 L154.6742,135.8394 L155.7562,133.9094 L156.8372,133.9094 L158.6982,132.3874 L159.8402,131.2164 L161.5812,131.2754 L163.1422,130.5154 L164.8842,130.1054 L165.3652,130.2224 L165.7852,130.5734 L165.7852,131.1594 C165.7852,131.1594 166.3262,131.2754 166.5062,131.7444 C166.6862,132.2114 166.6262,132.9144 166.6262,132.9144 L166.2062,133.0314 L166.2652,134.4944 L166.8662,135.1374 L166.7462,135.6644 L166.5062,136.1904 L166.9862,136.7174 L166.9262,137.2444 L166.5062,137.5944 L166.8662,140.5794 L166.3262,141.0464 L166.6862,143.1544 L165.0052,145.0264 L164.9442,146.0804 L164.5242,146.0804 C164.5242,146.0804 164.2842,146.8984 164.6442,147.4844 C165.0052,148.0694 165.6052,148.6544 165.6052,148.6544 L165.9662,149.7664 L165.4252,150.0584 L165.0642,150.6434 L165.9662,151.1124 L166.5062,151.5214 L166.8062,152.4584 L167.7672,152.6324 L168.8482,152.9844 L169.6292,153.4524 L170.8302,153.6864 L171.4842,155.4814 L172.3322,156.6704 L173.2322,157.4314 L174.1932,158.8944 L174.7942,159.7714 L175.3352,159.8884 L175.3942,161.5274 L176.1752,162.3464 L176.4162,163.1654 L178.5182,163.1654 L179.4192,164.2774 L180.5002,164.2774 L180.9802,165.0964 L182.5422,165.3894 L184.5242,162.7554 L185.9052,165.1554 L186.6262,165.3894 L187.8272,165.9744 L188.5482,165.9164 L189.2092,165.3894 L191.1312,167.1444 L192.2712,167.9054 L192.3912,168.6074 L192.2712,169.4854 L191.7912,170.6554 L191.0702,170.5964 C191.0702,170.5964 190.5902,172.1184 190.5302,172.4114 C190.4692,172.7034 190.1092,172.9374 189.8092,173.0544 C189.5082,173.1714 189.2092,173.1714 189.2092,173.1714 L188.2482,174.7514 L188.0672,175.5704 L190.8302,176.1554 L191.6712,176.9744 L192.5722,178.0284 L193.6532,179.4914 L194.6742,179.4914 C194.6742,179.4914 194.5532,180.4864 194.8542,181.0714 C195.1542,181.6564 196.2962,183.1194 196.2962,183.1194 L197.1362,184.4644 L197.1362,185.3424 L197.4372,185.9864 L197.6172,187.2144 L198.2172,188.0344 L197.1362,189.3794 L196.5362,190.2574 L196.2962,191.1934 L197.5572,191.1344 L197.9772,190.4324 L199.2992,190.2574 L200.0192,191.0774 L201.1612,190.6674 L201.7612,191.2524 L201.7612,191.8964 L202.4822,192.4224 L203.0872,192.5974 L203.3832,191.9544 L203.8032,190.6674 L204.4642,189.8474 L204.4642,188.9124 L205.1252,187.0974 L205.9662,186.8634 L206.9262,185.4604 L206.3262,184.2304 L205.0642,182.8844 L204.4642,182.8844 L204.1642,182.2994 L202.6622,182.0064 L202.9022,181.3634 L202.2422,180.8364 L202.3622,179.4914 L200.8602,178.2614 L201.2202,177.2094 L202.1222,177.0334 L202.1812,176.5064 L202.9632,176.3314 L203.1422,175.2194 L202.5422,173.4634 L201.7612,172.2354 L202.2422,171.3574 L202.6622,170.4214 L204.6442,169.1344 L205.7252,169.3094 L206.5662,168.9594 L206.5662,168.1394 L207.3462,167.2034 L206.2652,164.3954 L206.3262,163.7514 L207.5272,163.1664 L208.1872,162.5224 L209.4492,161.9964 L210.0502,160.8254 L211.1902,159.7724 L211.8512,159.5384 L212.0922,158.6604 L213.7132,158.5434 L214.0132,158.0754 L214.7942,155.0334 L215.8152,154.3304 L216.1752,153.8624 L216.2962,153.0434 L217.0162,152.6334 L217.7372,152.5754 L218.0972,149.4734 L218.7582,149.0644 L218.7582,148.1864 L219.3592,147.7774 L219.5992,147.1924 L220.2002,146.4314 L220.2002,145.1444 L220.8002,144.5004 L220.8602,143.0374 L221.1612,141.7504 L220.0192,140.6974 L219.7792,139.2934 L220.2592,138.0644 L219.8402,137.0694 L220.0192,135.7234 L218.7582,134.6114 L217.9182,133.5004 L217.9182,131.8024 L219.0582,131.6264 L219.5392,130.9834 L219.7792,128.2334 L220.1392,127.3564 L222.4822,126.3614 L225.1252,126.3614 L225.6652,126.0684 L226.5062,126.4774 L226.5062,127.2384 L226.2062,127.6484 L227.2872,128.7024 L227.5272,129.4614 L228.7282,130.1064 L229.5692,129.2284 L229.6292,127.7074 L230.5902,126.8874 L232.2122,126.1854 L232.3912,127.1224 L232.2122,128.5264 L232.4522,130.2824 L232.1512,130.9254 L231.7312,134.6704 L232.2712,135.3724 L232.7522,137.8304 L232.2122,138.7654 L234.2542,139.7024 L234.8542,140.2874 L235.6352,142.8034 L236.2362,144.0904 L237.7372,145.7294 L238.5182,145.5534 L239.2392,146.0214 L240.2002,146.4904 L241.8212,146.5484 L242.5422,147.2504 L243.9832,147.2504 L246.3852,145.8454 L246.9862,146.4904 L248.0672,146.9584 L248.6682,146.7824 L248.9082,145.7294 L249.5082,144.6174 L248.9082,144.1494 L248.9082,143.5644 L249.3882,142.7454 L249.3882,142.1014 L250.1702,141.1654 L250.8902,141.1654 L251.6112,141.6914 L251.8512,142.2774 L252.8122,142.6274 L253.7732,141.9254 L254.9742,141.6914 L255.9962,140.9894 L256.7162,140.2284 L257.4972,139.8774 L259.0582,139.9364 L259.9602,139.5854 L260.0802,138.9414 L261.6412,138.2394 L263.0832,139.4094 C263.0832,139.4094 263.3232,138.7654 263.7432,138.6484 C264.1642,138.5314 265.1252,138.4154 265.1252,138.4154 L265.2452,139.1164 L265.9662,140.1114 L266.9862,140.7544 L267.6472,140.8724 L267.7072,142.1594 L266.8062,143.9734 L267.6472,144.5004 C267.6472,144.5004 268.2482,145.4954 268.1282,145.9624 C268.0082,146.4304 267.8272,147.3674 267.8272,147.3674 L269.5692,147.9534 L271.6712,149.1814 C271.6712,149.1814 272.3912,149.7664 272.3322,150.4684 C272.2712,151.1704 272.1512,152.1064 272.1512,152.1064 L271.6712,152.8674 L272.7522,153.7454 C272.7522,153.7454 273.4132,152.4584 274.6142,152.8084 C275.8152,153.1604 276.2362,153.2184 276.2362,153.2184 L277.2572,152.9254 L279.6592,150.4684 L279.5392,149.5324 L278.7582,149.0644 L278.6982,148.0104 L278.0972,147.7764 L278.1582,146.8994 L277.4972,146.7824 L277.0772,145.9624 L275.8152,145.0274 L275.4552,143.9154 L274.8542,142.8624 L275.0942,140.9894 L276.3562,140.1114 L276.3562,138.4154 L277.7372,137.4794 L278.7582,137.7124 C278.7582,137.7124 278.8182,137.1864 278.8182,136.7774 C278.8182,136.3674 278.6982,135.3144 278.6982,135.3144 L277.9182,135.4904 L277.6772,134.6124 L277.3172,133.9104 L276.4762,133.8514 L275.5152,134.1434 L275.2152,134.5534 L273.4132,134.4954 L273.0522,134.0274 L272.3912,134.0274 L271.6112,132.7404 L270.6502,132.3304 L270.7702,131.1604 L271.4912,130.3994 L270.8902,129.2874 L270.8902,125.8934 L271.4302,125.3084 L271.3712,123.9044 L270.8902,123.5524 L271.0102,122.7334 L272.1512,122.1484 L272.8122,120.9194 L273.4722,120.5094 L272.9922,119.9834 L273.1122,119.2224 L274.2542,119.1064 L274.5532,118.4624 L274.4942,116.7074 L274.9142,115.9464 L276.7172,116.4144 L277.3772,115.8294 L278.9992,115.4184 L280.0802,114.4244 L282.1222,115.0684 L282.5422,114.2494 L284.1032,113.5464 L284.2842,114.8344 L285.4252,116.1794 L284.2842,118.2864 L284.7642,119.9244 L285.6652,119.1644 L287.4072,120.0424 L287.8272,120.6854 L288.0082,121.8554 L289.7492,121.6794 L290.7702,122.6744 L291.3712,121.2704 L292.3912,121.2704 L294.3132,122.3234 L295.6952,121.7384 L298.0382,123.2014 L299.1192,122.3814 L299.4192,121.3874 L299.2992,120.5684 L299.8402,119.2814 L300.0802,118.4034 L300.2002,116.0624 L299.2992,114.5994 L298.0822,113.5154 L295.6952,113.6644 L295.3352,114.1904 L294.5532,113.8384 C294.5532,113.8384 294.3742,113.2534 294.2542,112.8444 C294.1332,112.4344 293.8932,111.9084 293.8932,111.9084 C293.8932,111.9084 293.9532,110.5034 293.6532,109.9774 C293.3522,109.4504 293.1732,108.9234 293.1732,108.9234 L294.1932,107.6954 L294.6742,106.8764 L295.2152,106.9344 C295.2152,106.9344 295.5752,106.1734 295.2152,105.5884 C294.8542,105.0034 294.4942,104.5934 294.4942,104.5934 L294.4942,103.7744 C294.4942,103.7744 295.1542,103.1894 295.7562,102.8964 C296.3562,102.6044 297.0772,101.8434 297.0772,101.8434 L297.0162,100.4394 L295.9352,99.1524 L296.1752,97.7474 L297.0772,97.8064 L297.6772,96.8704 L298.0382,94.9974 L298.5782,93.4764 L299.2392,92.6564 L299.6592,92.3054 L299.4192,91.0184 L298.9382,89.7314 L299.2992,88.3854 L299.7792,87.0404 L300.2592,86.2204 L300.5002,84.5234 L300.0192,83.7634 L298.3982,82.5924 L296.8372,82.3004 L296.0552,81.7154 L295.9352,80.8374 L294.4942,79.6084 L294.3742,79.1404 L293.5922,78.6724 L292.8122,79.5504 L291.3712,79.5504 L290.4102,81.1884 L290.1702,81.9494 L289.9292,82.3584 L289.8092,83.1784 L289.0892,83.5294 L288.7882,84.5824 L289.1482,85.1084 L289.2092,85.9864 L288.4272,85.8694 L287.8872,86.3374 L286.4462,85.7524 L284.2232,85.3424 L283.8032,87.2734 L283.2032,88.7364 L283.6232,89.4974 L283.5032,91.6624 L281.7612,91.7214 L280.9212,91.7214 L280.0802,92.8914 L278.3382,93.6524 L278.2172,93.1264 L276.4162,93.4764 L275.8762,93.9444 L274.6742,94.0034 L274.6742,93.5354 L274.0132,93.1844 L273.9532,92.3644 L271.4912,91.9554 L271.6112,90.8434 L269.8692,89.0294 L269.0892,88.5614 L268.2172,88.4244 L266.8642,87.9314 L266.3572,86.7174 L265.4492,87.1074 L263.9502,87.0244 L262.2822,86.3054 L260.0222,85.0704 L259.2602,82.0664 L260.5912,79.8644 L260.5292,78.8154 L259.4302,78.1574 L259.4302,77.4984 L259.7682,76.7784 L258.8392,76.5314 L258.2692,77.1074 L256.9172,77.4984 L256.0932,76.6964 L255.2482,76.4494 L254.2562,75.7914 L253.5802,74.9884 L252.1652,75.3184 L251.0662,75.1534 L250.6662,74.5774 L249.1442,74.4124 L248.3212,73.8364 L247.2222,73.6104 L246.6532,72.9524 L244.9002,73.2814 L243.8852,73.9184 L243.0622,73.9184 L241.8792,73.0344 L240.1272,73.5284 L239.1332,74.0834 L238.3732,74.0014 L238.1192,73.2814 L237.5282,72.7054 L236.0282,73.2814 L234.0222,73.6104 L233.7792,73.6474 Z M183.4662,11.6484 L183.2012,11.6744 L182.6242,11.7344 L182.0122,11.4414 L181.5452,11.4094 L180.2592,11.9884 L180.2942,11.4884 L180.2942,10.7474 L179.6392,10.0064 L179.8082,9.3694 L181.1382,9.5334 L182.2152,9.2874 L182.5532,10.1714 L183.2372,11.0774 L183.4662,11.6484 Z M199.0642,178.9104 L199.8402,178.9054 L200.0202,177.2084 L198.8792,177.0904 L198.5182,178.8464 L199.0642,178.9104 Z" id="Stroke-3" stroke="#E75F52" stroke-linecap="round" stroke-linejoin="round"></path>
        </g>
    </g>
</svg>