<?xml version="1.0" encoding="UTF-8"?>
<svg width="301px" height="278px" viewBox="0 0 301 278" version="1.1" xmlns="http://www.w3.org/2000/svg" xmlns:xlink="http://www.w3.org/1999/xlink">
    <!-- Generator: Sketch 64 (93537) - https://sketch.com -->
    <title>234</title>
    <desc>Created with Sketch.</desc>
    <g id="234" stroke="none" stroke-width="1" fill="none" fill-rule="evenodd">
        <g id="Group-9">
            <path d="" id="Fill-1" fill="#FFFFFF"></path>
            <path d="M96.0072,184.5582 L96.0072,184.5582 L96.0072,184.5582 Z" id="Stroke-3" stroke="#E75F52" stroke-linecap="round" stroke-linejoin="round"></path>
            <g id="Group-8" transform="translate(0.000000, 0.012000)">
                <path d="M300.456,237.6897 C300.445,237.6077 300.431,237.5317 300.414,237.4557 C300.381,237.3027 300.332,237.1607 300.276,237.0307 C300.25,236.9697 300.223,236.9057 300.191,236.8497 C300.187,236.8457 300.183,236.8437 300.181,236.8397 C300.146,236.7817 300.115,236.7327 300.074,236.6797 C300.033,236.6277 299.983,236.5767 299.936,236.5317 C299.794,236.3967 299.625,236.2967 299.416,236.2347 C299.149,236.1547 298.9,236.0887 298.651,236.0327 C298.619,236.0257 298.587,236.0177 298.556,236.0107 C298.552,236.0107 298.549,236.0117 298.545,236.0107 C298.504,236.0027 298.469,235.9987 298.428,235.9907 C297.921,235.8867 297.44,235.8177 297.005,235.7777 C296.532,235.7337 296.099,235.7157 295.709,235.6927 C295.515,235.6807 295.331,235.6687 295.157,235.6507 C294.895,235.6247 294.661,235.5927 294.445,235.5337 C293.586,235.2967 293.089,234.6957 292.948,232.9737 C292.89,232.2557 292.895,231.3447 292.959,230.1807 C293.003,229.3617 293.089,227.7947 293.107,226.0177 C293.118,224.9687 293.107,223.8387 293.044,222.7567 L293.044,222.7047 C293.044,222.6787 293.035,222.6557 293.033,222.6297 C292.991,221.9657 292.929,221.3227 292.842,220.7177 C292.837,220.6797 292.837,220.6387 292.831,220.6017 C292.782,220.2717 292.717,219.9647 292.651,219.6677 C292.585,219.3687 292.512,219.0857 292.428,218.8277 C292.26,218.3117 292.055,217.8887 291.802,217.5857 C291.738,217.5087 291.669,217.4327 291.6,217.3737 C291.53,217.3127 291.462,217.2667 291.387,217.2237 C291.236,217.1387 291.075,217.0857 290.898,217.0757 C290.516,217.0517 290.15,216.9437 289.794,216.7677 C289.679,216.7107 289.567,216.6347 289.454,216.5657 C289.451,216.5647 289.446,216.5677 289.443,216.5657 C289.328,216.4957 289.217,216.4237 289.103,216.3427 C288.988,216.2597 288.877,216.1787 288.764,216.0877 C288.543,215.9107 288.331,215.7117 288.116,215.5137 C288.112,215.5127 288.107,215.5157 288.105,215.5137 C287.89,215.3147 287.681,215.1127 287.469,214.9097 C287.254,214.7047 287.043,214.5057 286.831,214.3147 C286.727,214.2187 286.628,214.1277 286.523,214.0387 C286.311,213.8587 286.1,213.7007 285.886,213.5597 C285.78,213.4907 285.684,213.4257 285.578,213.3697 C285.352,213.2487 285.118,213.1297 284.888,213.0187 C284.196,212.6827 283.487,212.3797 282.774,212.0847 C281.824,211.6887 280.873,211.3067 279.949,210.8627 C279.612,210.7007 279.289,210.5177 278.982,210.3317 C278.979,210.3307 278.975,210.3337 278.973,210.3317 C278.046,209.7677 277.261,209.0967 276.561,208.3457 C276.328,208.0947 276.105,207.8367 275.893,207.5707 C275.423,206.9817 275,206.3517 274.605,205.6967 C274.429,205.4017 274.256,205.1017 274.09,204.7967 C274.067,204.7547 274.046,204.7127 274.023,204.6717 C273.878,204.4027 273.737,204.1297 273.598,203.8547 L273.419,203.4947 C273.342,203.3357 273.266,203.1777 273.189,203.0187 C272.896,202.4067 272.611,201.7897 272.328,201.1637 C272.316,201.1387 272.306,201.1147 272.294,201.0897 C271.711,199.7997 271.125,198.4987 270.455,197.2477 C269.827,196.0447 269.164,194.8437 268.434,193.6967 C268.322,193.5197 268.207,193.3447 268.091,193.1697 C268.056,193.1187 268.021,193.0657 267.986,193.0127 C267.305,191.9997 266.566,191.0347 265.737,190.1687 C265.336,189.7487 264.79,189.2727 264.321,188.7297 C264.301,188.7067 264.28,188.6827 264.261,188.6597 C264.21,188.5997 264.162,188.5397 264.114,188.4777 C264.064,188.4157 264.018,188.3507 263.972,188.2867 C263.887,188.1667 263.806,188.0447 263.734,187.9197 C263.726,187.9047 263.718,187.8887 263.71,187.8737 C263.674,187.8087 263.641,187.7437 263.608,187.6757 C263.589,187.6337 263.571,187.5897 263.554,187.5467 C263.536,187.5047 263.519,187.4637 263.505,187.4227 C263.485,187.3707 263.469,187.3167 263.453,187.2627 C263.443,187.2287 263.435,187.1947 263.426,187.1607 C263.411,187.1017 263.398,187.0427 263.389,186.9827 C263.383,186.9517 263.379,186.9197 263.375,186.8877 C263.367,186.8257 263.36,186.7627 263.357,186.6987 C263.355,186.6687 263.357,186.6377 263.356,186.6077 C263.356,186.5417 263.356,186.4757 263.361,186.4077 C263.363,186.3817 263.369,186.3547 263.372,186.3297 C263.38,186.2587 263.389,186.1887 263.403,186.1177 C263.42,186.0337 263.441,185.9447 263.465,185.8587 C263.479,185.8097 263.496,185.7597 263.513,185.7107 C263.525,185.6727 263.538,185.6357 263.552,185.5967 C263.555,185.5897 263.56,185.5837 263.562,185.5767 C263.612,185.4327 263.666,185.2877 263.732,185.1407 C263.756,185.0867 263.78,185.0357 263.807,184.9807 C263.871,184.8467 263.939,184.7117 264.015,184.5757 C265.392,182.0707 268.511,179.1907 269.975,177.3497 C272.203,174.5517 275.091,171.6107 276.506,168.3337 C277.884,165.1457 279.286,159.3557 275.922,157.5007 C272.699,155.7277 265.963,157.9927 263.549,155.1007 C260.36,151.2877 263.094,144.7337 262.402,140.0417 C261.729,135.5127 256.49,128.2777 258.93,123.4627 C260.272,120.8197 265.742,116.4987 260.544,116.1667 C256.493,115.9087 255.685,107.8487 257.283,104.4097 C258.175,102.4937 261.521,102.0277 262.01,100.5547 C262.329,99.6337 260.756,98.0897 260.395,97.4007 C265.887,96.7437 266.042,88.8627 266.077,85.1877 C266.095,83.1627 267.544,81.6727 268.33,79.9857 C268.594,79.4227 268.782,78.8377 268.82,78.2057 C268.907,76.7567 268.641,72.9327 267.83,71.4147 C267.741,71.2457 267.645,71.1047 267.542,70.9987 C267.177,70.6227 266.978,70.3497 266.893,70.1267 C266.889,70.1167 266.886,70.1067 266.883,70.0977 C266.876,70.0767 266.868,70.0557 266.863,70.0357 C266.826,69.8957 266.836,69.7737 266.875,69.6537 C266.878,69.6447 266.88,69.6347 266.884,69.6257 L266.884,69.6257 C267.062,69.1407 267.719,68.6797 267.744,67.1647 C267.758,66.3957 267.505,65.7567 267.27,65.1127 C267.078,64.5817 266.897,64.0457 266.887,63.4327 C266.874,62.6237 267.85,57.5517 266.632,57.5597 C263.327,57.5807 257.329,58.7637 254.567,57.3157 C252.06,55.9927 251.412,52.2237 249.193,50.4977 C246.691,48.5517 241.916,48.8327 240.485,45.6657 C239.076,42.5537 238.567,41.0577 235.143,39.6967 C231.666,38.3157 228.495,38.9797 224.714,38.6987 C221.319,38.4447 219.913,35.4567 216.749,34.8857 C213.91,34.3697 208.836,34.2627 207.796,31.3387 C206.702,28.2647 206.392,27.4607 202.879,28.3007 C201.38,28.6617 200.632,28.1427 199.587,27.4407 C198.225,26.5257 197.527,28.0737 196.178,27.6957 C194.311,27.1697 190.895,28.3427 191.972,30.8497 C187.356,31.8487 183.532,29.3017 178.803,31.0087 C175.555,32.1807 171.019,34.9697 168.725,37.7737 C166.418,40.5967 168.918,41.9647 164.508,43.2117 C160.802,44.2597 157.828,45.1277 154.121,44.9857 C154.378,47.0967 156.598,52.2697 155.683,54.3417 C150.59,55.9917 143.257,51.0477 128.782,58.3777 C122.239,60.3157 114.655,58.5357 109.208,55.9457 C106.322,54.5677 102.534,53.0747 100.213,50.9437 C98.089,48.9977 97.607,45.6187 94.797,44.3377 C90.468,42.3707 84.839,43.5477 80.619,41.1517 C75.647,38.3387 77.224,30.2477 75.553,25.3587 C75.386,24.8687 72.948,25.3517 72.218,24.9987 C70.412,24.1187 69.06,22.3857 67.418,21.2707 C65.087,19.6877 59.357,16.1947 65.58,14.7927 C68.937,14.0367 61.787,9.1967 67.938,6.9757 C65.751,3.8057 62.519,-0.7323 57.701,2.2927 C55.857,3.4507 54.306,5.0177 52.581,6.3387 C51.094,7.4777 48.633,7.8667 47.739,9.6097 C46.964,11.1217 40.847,15.8567 39.168,16.3427 C36.126,17.2257 31.93,16.9337 29.005,16.4917 C24.282,15.7767 23.059,14.0897 20.126,11.0537 C18.693,9.5707 16.979,8.3717 15.538,6.8907 C14.047,5.3577 13.351,3.1397 11.63,1.8247 C10.599,1.0417 9.493,0.4017 8.656,0.4977 C8.006,0.5717 7.519,1.0917 7.361,2.3457 C6.625,8.1107 4.993,5.9217 0.5,7.5597 C1.52,8.9837 3.764,12.2107 2.751,14.1127 C1.853,15.8097 4.292,16.5827 4.578,17.9147 C5.224,20.9317 3.883,26.1347 7.499,27.3977 C5.582,29.0207 4.275,32.4427 3.761,34.6947 C3.417,36.1997 6.857,36.9917 7.732,37.4557 C10.552,38.9427 8.315,41.9657 9.485,44.2947 C10.63,46.5807 12.725,45.2137 12.267,48.5747 C12.135,49.5367 13.855,56.5107 14.349,56.7317 C16.269,57.5837 16.339,58.3507 15.868,60.5227 C15.06,64.2507 23.795,65.7997 20.731,71.3877 C20.735,71.3867 20.739,71.3857 20.743,71.3847 C20.742,71.3877 20.741,71.3897 20.739,71.3917 C21.785,71.1527 22.538,71.1687 23.143,71.3447 C24.605,71.7797 25.197,73.1667 26.934,74.2017 C28.556,75.1697 30.601,74.2807 32.414,74.0847 C33.904,73.9237 34.846,75.0687 36.407,74.6157 C36.236,75.0997 35.976,75.4727 35.662,75.7747 C34.293,77.0807 31.891,77.0577 31.158,78.9537 C30.109,81.6587 32.68,83.5967 33.59,85.6227 C34.135,86.8287 34.141,88.7327 32.071,88.7347 C29.872,88.7347 29.863,87.9797 29.257,90.6467 C28.841,92.4747 26.199,92.0907 26.156,94.5547 C26.127,95.9787 26.644,97.2757 26.729,98.6747 C25.558,98.6737 24.518,98.3707 23.596,97.7517 C23.155,99.2547 21.696,101.1037 23.107,102.3387 C24.543,103.5807 24.83,104.5337 23.936,106.4917 C22.956,108.6417 21.203,109.0477 22.895,110.7507 C24.035,111.8997 25.037,113.2197 26.208,114.3297 C27.81,115.8437 37.761,124.5367 32.092,126.2877 C34.501,127.2627 32.243,129.2537 35.703,128.9427 C37.769,128.7547 39.496,130.1687 40.981,131.2897 C43.701,133.3437 45.727,137.3917 49.35,138.0867 C54.097,138.9987 53.307,141.1147 55.903,144.7777 C58.453,148.3787 60.83,149.3157 59.29,154.4737 C58.138,158.3557 55.599,166.1767 61.149,165.9647 C64.677,165.8317 63.009,170.9367 63.071,173.4947 C63.173,177.5177 67.582,177.7567 68.488,181.0027 C68.927,182.5757 68.783,184.6227 70.41,185.3887 C79.909,178.8757 74.711,174.6497 81.423,180.5787 C82.258,182.7977 84.872,181.0997 86.234,183.4457 C88.258,186.9457 93.823,176.6367 95.368,182.5007 C95.554,183.2107 95.773,183.8867 96.014,184.5457 L96.008,184.5457 C96.035,184.6207 96.064,184.6937 96.093,184.7677 C96.139,184.8897 96.186,185.0107 96.234,185.1307 C96.278,185.2487 96.321,185.3667 96.369,185.4807 C96.378,185.5017 96.392,185.5227 96.4,185.5437 C96.431,185.6167 96.466,185.6867 96.498,185.7577 C96.551,185.8777 96.599,186.0027 96.654,186.1227 C96.665,186.1487 96.675,186.1757 96.687,186.2027 C96.76,186.3587 96.845,186.5157 96.921,186.6697 C96.946,186.7197 96.97,186.7687 96.996,186.8187 C97.063,186.9527 97.126,187.0887 97.197,187.2217 C97.198,187.2237 97.2,187.2257 97.202,187.2287 C97.264,187.3457 97.334,187.4587 97.399,187.5747 C97.497,187.7517 97.592,187.9287 97.696,188.1037 C97.715,188.1357 97.736,188.1687 97.756,188.2007 C97.793,188.2617 97.831,188.3237 97.869,188.3847 C97.955,188.5297 98.041,188.6747 98.132,188.8147 C98.151,188.8447 98.176,188.8707 98.195,188.8997 C98.235,188.9607 98.277,189.0197 98.319,189.0787 C98.645,189.5667 98.993,190.0457 99.363,190.5167 C99.371,190.5267 99.377,190.5367 99.385,190.5457 C99.592,190.8097 99.801,191.0727 100.022,191.3327 C100.051,191.3657 100.084,191.4017 100.117,191.4367 C101.083,192.5147 103.316,194.3067 104.069,196.2587 C104.074,196.2707 104.078,196.2827 104.082,196.2937 C104.115,196.3797 104.145,196.4667 104.171,196.5537 C104.172,196.5577 104.173,196.5607 104.174,196.5637 C104.425,197.3967 104.384,198.2517 103.842,199.0887 C103.791,199.1697 103.746,199.2477 103.705,199.3217 C103.69,199.3497 103.678,199.3767 103.664,199.4037 C103.642,199.4467 103.621,199.4897 103.602,199.5307 C103.586,199.5667 103.573,199.6007 103.56,199.6347 C103.548,199.6637 103.539,199.6917 103.529,199.7197 C103.517,199.7567 103.505,199.7937 103.496,199.8297 C103.49,199.8517 103.487,199.8737 103.482,199.8957 C103.476,199.9257 103.467,199.9587 103.463,199.9877 C103.461,199.9997 103.463,200.0087 103.462,200.0207 C103.457,200.0707 103.456,200.1177 103.458,200.1637 C103.459,200.1867 103.462,200.2107 103.465,200.2327 C103.47,200.2687 103.477,200.3027 103.486,200.3357 C103.49,200.3507 103.49,200.3667 103.495,200.3797 C103.498,200.3887 103.503,200.3967 103.507,200.4047 C103.519,200.4367 103.532,200.4667 103.548,200.4967 C103.548,200.4967 103.548,200.4977 103.548,200.4977 C103.55,200.5017 103.555,200.5047 103.557,200.5097 C103.58,200.5487 103.606,200.5857 103.635,200.6207 C103.646,200.6327 103.658,200.6457 103.67,200.6587 C103.694,200.6837 103.72,200.7087 103.748,200.7317 C103.76,200.7417 103.769,200.7527 103.782,200.7627 C103.789,200.7687 103.8,200.7727 103.808,200.7787 C103.863,200.8187 103.923,200.8547 103.988,200.8877 C104,200.8947 104.013,200.9007 104.025,200.9077 C104.1,200.9437 104.18,200.9757 104.265,201.0047 C104.267,201.0047 104.268,201.0057 104.27,201.0067 C104.271,201.0067 104.271,201.0067 104.272,201.0077 C105.024,201.2627 106.113,201.2647 106.721,201.4047 C106.82,201.4267 106.913,201.4587 107.003,201.4917 C107.016,201.4967 107.029,201.5017 107.042,201.5057 C107.198,201.5687 107.334,201.6517 107.456,201.7397 C107.487,201.7617 107.523,201.7797 107.552,201.8037 L107.556,201.8037 C107.625,201.8607 107.686,201.9207 107.743,201.9847 C107.757,202.0017 107.771,202.0197 107.786,202.0387 C107.814,202.0737 107.84,202.1107 107.864,202.1477 C107.888,202.1847 107.912,202.2207 107.932,202.2587 C107.936,202.2667 107.939,202.2757 107.944,202.2837 C107.968,202.3327 107.991,202.3807 108.008,202.4297 C108.062,202.5807 108.083,202.7277 108.072,202.8767 C108.067,202.9507 108.052,203.0287 108.03,203.0987 C107.985,203.2407 107.912,203.3677 107.796,203.4817 C107.738,203.5387 107.67,203.5937 107.594,203.6407 C107.587,203.6457 107.577,203.6487 107.569,203.6537 C107.53,203.6757 107.484,203.6947 107.44,203.7147 C107.404,203.7297 107.367,203.7437 107.329,203.7577 C107.236,203.7907 107.132,203.8227 107.021,203.8427 C106.991,203.8477 106.958,203.8517 106.927,203.8567 C106.749,203.8807 106.549,203.8867 106.328,203.8727 C106.289,203.8697 106.253,203.8677 106.214,203.8637 C106.213,203.8657 106.214,203.8667 106.213,203.8687 L106.211,203.8687 C106.199,203.9957 106.198,204.1157 106.201,204.2317 C106.201,204.2567 106.203,204.2807 106.204,204.3057 C106.209,204.3917 106.217,204.4767 106.229,204.5577 C106.232,204.5777 106.231,204.5987 106.235,204.6177 C106.236,204.6217 106.234,204.6257 106.235,204.6277 C106.238,204.6447 106.244,204.6607 106.247,204.6757 C106.266,204.7717 106.289,204.8637 106.318,204.9517 L106.32,204.9577 C106.323,204.9667 106.328,204.9757 106.331,204.9857 C106.359,205.0677 106.392,205.1467 106.428,205.2227 C106.441,205.2517 106.455,205.2787 106.47,205.3057 C106.503,205.3717 106.54,205.4347 106.58,205.4967 C106.592,205.5157 106.602,205.5357 106.615,205.5537 C106.665,205.6277 106.717,205.7007 106.773,205.7697 L106.776,205.7697 C106.85,205.8597 106.927,205.9467 107.01,206.0307 C107.086,206.1067 107.162,206.1817 107.244,206.2527 C107.571,206.5387 107.947,206.7977 108.316,207.0497 C108.505,207.1777 108.688,207.2997 108.869,207.4317 C109.047,207.5627 109.221,207.6937 109.378,207.8357 C109.61,208.0437 109.793,208.2737 109.941,208.5157 C110.164,208.8787 110.305,209.2777 110.398,209.6947 C110.46,209.9717 110.507,210.2527 110.536,210.5437 C110.668,211.8567 110.571,213.2737 111.173,214.4417 C113.433,218.8337 114.145,221.7167 117.885,224.8597 C118.097,225.0377 118.327,225.1827 118.576,225.2947 C118.824,225.4077 119.095,225.4897 119.372,225.5497 C119.649,225.6117 119.935,225.6527 120.232,225.6777 C120.381,225.6897 120.526,225.6927 120.678,225.6987 C121.138,225.7177 121.61,225.7127 122.08,225.7097 C122.388,225.7077 122.692,225.7047 122.994,225.7097 C123.607,225.7207 124.199,225.7657 124.735,225.9007 C126.255,226.2817 127.435,227.6307 128.835,228.3227 C129.895,228.8427 133.395,230.2277 134.463,231.9647 C134.512,232.0437 134.553,232.1187 134.591,232.1987 C134.631,232.2817 134.659,232.3587 134.686,232.4427 C134.713,232.5247 134.736,232.6047 134.75,232.6867 C134.766,232.7727 134.77,232.8547 134.771,232.9417 C134.773,233.1097 134.753,233.2797 134.697,233.4517 C134.669,233.5377 134.635,233.6207 134.591,233.7067 C134.459,233.9707 134.251,234.2327 133.954,234.5027 C134.305,234.6747 134.649,234.8517 134.995,235.0347 C134.997,235.0357 135.002,235.0327 135.005,235.0347 C136.038,235.5807 137.047,236.1797 138.042,236.7867 C139.372,237.5977 140.682,238.4337 142.015,239.2397 C142.269,239.3947 142.539,239.5437 142.822,239.6857 C143.671,240.1117 144.619,240.4947 145.508,240.9497 C145.657,241.0257 145.799,241.1027 145.944,241.1827 C145.947,241.1847 145.952,241.1817 145.955,241.1827 C146.096,241.2617 146.232,241.3547 146.369,241.4377 C146.649,241.6107 146.915,241.7797 147.165,241.9797 C147.289,242.0787 147.402,242.1907 147.516,242.2977 C147.632,242.4077 147.741,242.5087 147.845,242.6267 C147.947,242.7447 148.042,242.8617 148.132,242.9887 C148.225,243.1197 148.309,243.2497 148.387,243.3917 C148.463,243.5307 148.532,243.6577 148.609,243.7857 C148.612,243.7897 148.618,243.7927 148.62,243.7957 C148.851,244.1797 149.083,244.5177 149.321,244.8157 C149.559,245.1137 149.797,245.3687 150.043,245.5897 C150.125,245.6647 150.204,245.7367 150.288,245.8027 C150.706,246.1377 151.137,246.3757 151.594,246.5457 C151.866,246.6487 152.153,246.7217 152.443,246.7797 C152.831,246.8567 153.229,246.8987 153.654,246.9187 C154.504,246.9577 155.438,246.9067 156.479,246.8647 C156.999,246.8437 157.547,246.8267 158.125,246.8227 C158.713,246.8187 159.282,246.9557 159.846,247.1727 C160.184,247.3027 160.521,247.4597 160.854,247.6397 C161.299,247.8817 161.743,248.1607 162.183,248.4477 C162.621,248.7337 163.059,249.0267 163.499,249.3077 C163.939,249.5877 164.379,249.8597 164.826,250.0837 C165.051,250.1947 165.279,250.2927 165.506,250.3797 C165.62,250.4237 165.731,250.4607 165.846,250.4977 C166.074,250.5707 166.304,250.6277 166.536,250.6677 C166.652,250.6867 166.769,250.7107 166.887,250.7197 C167.004,250.7307 167.129,250.7307 167.248,250.7307 C167.838,250.7287 168.447,250.5927 169.074,250.2737 C169.596,250.0097 170.057,249.6627 170.498,249.2757 C170.82,248.9937 171.128,248.6937 171.433,248.3837 C172.152,247.6527 172.854,246.8907 173.673,246.3017 C173.806,246.2067 173.948,246.1117 174.088,246.0257 C174.092,246.0237 174.094,246.0177 174.098,246.0147 C174.163,245.9757 174.233,245.9467 174.3,245.9097 C174.423,245.8407 174.553,245.7767 174.683,245.7177 C174.946,245.5977 175.215,245.4957 175.511,245.4197 C175.698,245.3737 177.132,245.5147 178.441,245.4737 C178.609,245.4677 178.769,245.4647 178.931,245.4527 C179.241,245.4277 179.537,245.3837 179.79,245.3257 C179.983,245.2797 180.15,245.2257 180.29,245.1557 C180.472,245.0617 180.607,244.9417 180.661,244.7937 C180.662,244.7907 180.66,244.7867 180.661,244.7837 C180.673,244.7497 180.679,244.7147 180.683,244.6767 L180.683,244.6667 C180.688,244.5827 180.678,244.4917 180.64,244.3907 C180.554,244.1577 180.498,243.9417 180.47,243.7427 C180.47,243.7397 180.471,243.7357 180.47,243.7317 C180.452,243.6007 180.443,243.4777 180.449,243.3607 C180.449,243.3567 180.448,243.3527 180.449,243.3497 C180.458,243.1687 180.496,243.0027 180.555,242.8507 C180.594,242.7497 180.645,242.6547 180.704,242.5637 C180.935,242.2047 181.31,241.9287 181.766,241.7037 C181.881,241.6467 182.003,241.5947 182.127,241.5437 C182.248,241.4947 182.382,241.4407 182.509,241.3957 C182.64,241.3487 182.777,241.3007 182.913,241.2577 C183.455,241.0857 184.031,240.9407 184.569,240.7797 C184.89,240.6837 185.206,240.5557 185.515,240.4187 C185.671,240.3487 185.828,240.2837 185.982,240.2067 C186.44,239.9757 186.893,239.7097 187.342,239.4417 C187.642,239.2617 187.944,239.0787 188.244,238.8997 C188.542,238.7227 188.846,238.5417 189.146,238.3787 C189.451,238.2167 189.76,238.0657 190.071,237.9337 C190.224,237.8687 190.383,237.8077 190.538,237.7527 C190.854,237.6407 191.185,237.5477 191.516,237.4877 C191.68,237.4577 191.846,237.4377 192.015,237.4237 C192.382,237.3927 192.749,237.3727 193.108,237.3707 L193.119,237.3707 C193.3,237.3707 193.471,237.3747 193.649,237.3807 C193.829,237.3877 194.004,237.3987 194.181,237.4137 C194.36,237.4267 194.535,237.4447 194.712,237.4657 C194.886,237.4877 195.051,237.5117 195.222,237.5407 C195.737,237.6277 196.235,237.7497 196.719,237.9017 C196.879,237.9517 197.03,238.0027 197.186,238.0607 C197.346,238.1197 197.499,238.1757 197.653,238.2417 C197.806,238.3057 197.952,238.3827 198.1,238.4537 C199.433,239.0947 200.583,240.0087 201.466,241.1827 C201.662,241.4437 201.839,241.7157 202.008,242.0017 C202.346,242.5717 202.629,243.1827 202.847,243.8487 C203.011,244.3487 203.14,244.8797 203.229,245.4307 C203.289,245.7987 203.332,246.1777 203.356,246.5677 C203.617,249.3587 203.884,253.1167 204.674,256.5077 C204.849,257.2617 205.046,257.9927 205.279,258.6957 C205.436,259.1697 205.611,259.6357 205.8,260.0767 C205.819,260.1237 205.843,260.1687 205.863,260.2147 C205.887,260.2677 205.903,260.3217 205.927,260.3747 C206.047,260.6387 206.176,260.9007 206.31,261.1497 C206.392,261.3027 206.476,261.4487 206.564,261.5947 C206.734,261.8807 206.914,262.1557 207.105,262.4137 C207.297,262.6697 207.498,262.9107 207.711,263.1347 C208.361,263.4777 208.964,263.7617 209.538,264.0057 C209.541,264.0067 209.545,264.0047 209.548,264.0057 C211.409,264.4837 213.894,264.6167 214.71,265.6837 C215.132,265.8147 215.555,265.9557 215.974,266.1197 C215.976,266.1187 215.981,266.1207 215.984,266.1197 C217.056,265.5697 217.568,266.5827 218.405,267.4047 C218.712,267.6107 219.027,267.8277 219.351,268.0847 C219.851,268.3057 220.345,268.3607 220.838,268.3287 C221.331,268.2967 221.822,268.1817 222.313,268.0517 C222.557,267.9887 222.804,267.9197 223.047,267.8617 C223.17,267.8317 223.295,267.8017 223.418,267.7767 C223.665,267.7257 223.913,267.6867 224.162,267.6697 C224.286,267.6627 224.409,267.6557 224.533,267.6597 C224.658,267.6637 224.78,267.6727 224.905,267.6917 C224.908,267.6917 224.912,267.6907 224.916,267.6917 C225.037,267.7097 225.165,267.7417 225.287,267.7767 C225.602,267.8657 225.909,267.9257 226.211,267.9667 C226.514,268.0087 226.811,268.0297 227.103,268.0417 C227.686,268.0667 228.247,268.0557 228.803,268.0737 C229.332,268.0907 229.851,268.1347 230.374,268.2757 C230.399,268.2827 230.424,268.2897 230.449,268.2957 C230.452,268.2977 230.456,268.2947 230.459,268.2957 C230.593,268.3357 230.728,268.3817 230.863,268.4347 C230.866,268.4357 230.87,268.4327 230.874,268.4347 C230.916,268.4517 230.959,268.4697 231.001,268.4877 C231.183,268.5647 231.36,268.6667 231.543,268.7747 C231.592,268.8037 231.642,268.8277 231.691,268.8597 C231.833,268.9497 231.973,269.0437 232.116,269.1567 C232.746,269.6527 233.36,270.1497 234.007,270.5377 C234.114,270.6017 234.215,270.6607 234.325,270.7177 C234.328,270.7187 234.333,270.7167 234.336,270.7177 C234.37,270.7367 234.407,270.7527 234.442,270.7707 C234.736,270.9187 235.04,271.0467 235.355,271.1317 C235.593,271.1967 235.834,271.2407 236.088,271.2597 C236.595,271.2977 237.141,271.2377 237.734,271.0467 C238.086,270.9347 238.466,270.8307 238.87,270.7397 C239.68,270.5557 240.578,270.4227 241.494,270.3677 C241.951,270.3397 242.416,270.3317 242.874,270.3457 C243.103,270.3537 243.328,270.3697 243.554,270.3887 C243.78,270.4087 244.003,270.4307 244.224,270.4627 C244.447,270.4957 244.665,270.5337 244.882,270.5807 C245.308,270.6717 245.709,270.7897 246.093,270.9407 C246.287,271.0177 246.475,271.1017 246.655,271.1957 C246.744,271.2427 246.825,271.2837 246.91,271.3347 C246.914,271.3357 246.917,271.3417 246.921,271.3447 C247.171,271.4947 247.41,271.6667 247.621,271.8547 C247.659,271.8877 247.724,271.9187 247.812,271.9497 C247.901,271.9807 248.008,272.0067 248.142,272.0347 C248.146,272.0357 248.148,272.0347 248.152,272.0347 C248.284,272.0627 248.431,272.0947 248.599,272.1197 C248.602,272.1207 248.605,272.1197 248.609,272.1197 C248.629,272.1227 248.652,272.1277 248.673,272.1297 C249.178,272.2027 249.819,272.2607 250.52,272.3107 C251.01,272.3457 251.532,272.3717 252.05,272.3957 C252.567,272.4197 253.077,272.4457 253.568,272.4597 C254.064,272.4737 254.524,272.4777 254.938,272.4807 C255.556,272.4857 256.059,272.4777 256.341,272.4597 C256.435,272.4537 256.499,272.4477 256.542,272.4387 C256.501,272.3957 256.458,272.3537 256.426,272.3107 C256.422,272.3087 256.429,272.3027 256.426,272.2997 C256.358,272.2107 256.31,272.1257 256.276,272.0347 C256.243,271.9407 256.235,271.8507 256.234,271.7587 C256.228,271.4477 256.39,271.1577 256.648,270.9407 C256.723,270.8787 256.807,270.8307 256.893,270.7817 C257.281,270.5647 257.778,270.4917 258.199,270.6967 C258.292,270.7427 258.381,270.8037 258.465,270.8777 C258.507,270.9147 258.543,270.9497 258.581,270.9947 C258.7,271.1277 258.798,271.2937 258.879,271.5037 C258.905,271.5727 258.932,271.6387 258.953,271.7157 C258.997,271.8747 259.029,272.0507 259.049,272.2477 C259.056,272.3167 259.067,272.3837 259.081,272.4497 C259.094,272.5097 259.105,272.5727 259.123,272.6287 C259.131,272.6557 259.145,272.6787 259.155,272.7047 C259.167,272.7367 259.173,272.7687 259.186,272.7987 C259.19,272.8037 259.196,272.8057 259.197,272.8097 C259.221,272.8607 259.244,272.9117 259.271,272.9597 C259.292,272.9947 259.312,273.0317 259.336,273.0647 C259.346,273.0797 259.357,273.0927 259.367,273.1077 C259.371,273.1117 259.375,273.1147 259.378,273.1187 C259.411,273.1617 259.447,273.2067 259.484,273.2457 C259.643,273.4187 259.837,273.5627 260.058,273.6807 C260.168,273.7407 260.286,273.7927 260.408,273.8397 C260.652,273.9367 260.92,274.0107 261.194,274.0737 C261.331,274.1047 261.468,274.1337 261.608,274.1587 C262.03,274.2347 262.464,274.2877 262.872,274.3387 C263.28,274.3917 263.665,274.4457 263.987,274.5197 C264.095,274.5447 264.191,274.5747 264.284,274.6047 C264.781,274.7677 266.255,275.3827 267.863,275.8687 C267.867,275.8697 267.871,275.8677 267.874,275.8687 C268.812,276.1527 269.786,276.3927 270.645,276.4737 C270.769,276.4857 270.89,276.4907 271.007,276.4957 C271.359,276.5097 271.688,276.4907 271.974,276.4317 C272.163,276.3927 272.333,276.3397 272.483,276.2617 C272.636,276.1817 272.763,276.0807 272.865,275.9537 C272.915,275.8947 272.967,275.8337 273.004,275.7627 L273.004,275.7527 C273.042,275.6777 273.065,275.6047 273.089,275.5177 C273.113,275.4287 273.134,275.3357 273.142,275.2317 C273.15,275.1307 273.15,275.0277 273.142,274.9137 C273.134,274.7987 273.114,274.6807 273.089,274.5517 C273.315,274.6397 273.52,274.6847 273.705,274.7007 C273.827,274.7107 273.939,274.7087 274.045,274.6897 C274.144,274.6727 274.245,274.6447 274.331,274.6047 C274.335,274.6027 274.338,274.5957 274.342,274.5937 C274.41,274.5617 274.474,274.5237 274.533,274.4777 C274.667,274.3727 274.779,274.2347 274.873,274.0747 C274.926,273.9847 274.969,273.8897 275.011,273.7877 L275.011,273.7767 C275.054,273.6697 275.096,273.5647 275.128,273.4477 C275.225,273.0987 275.278,272.7027 275.309,272.3107 C275.309,272.3077 275.308,272.3037 275.309,272.2997 C275.317,272.1717 275.324,272.0447 275.329,271.9187 L275.329,271.9077 C275.349,271.3877 275.335,270.8967 275.329,270.5267 C275.325,270.3057 275.326,270.0897 275.329,269.8787 C275.336,269.4577 275.35,269.0577 275.383,268.6687 C275.398,268.4767 275.425,268.2807 275.446,268.0947 L275.446,268.0847 C275.622,266.5727 275.981,265.2567 276.444,263.8257 C276.676,263.1117 276.928,262.3767 277.198,261.5747 C277.298,261.2807 277.366,260.9737 277.411,260.6497 C277.414,260.6357 277.407,260.6217 277.411,260.6077 C277.492,259.9827 277.501,259.3087 277.517,258.6427 C277.529,258.1297 277.546,257.6257 277.612,257.1347 C277.679,256.6447 277.794,256.1687 277.995,255.7437 C278.062,255.6017 278.141,255.4717 278.228,255.3397 C278.271,255.2767 278.318,255.2097 278.366,255.1487 L278.366,255.1377 C278.616,254.8237 278.942,254.5497 279.365,254.3207 C280.292,253.8167 281.787,253.0647 283.114,252.7587 C283.355,252.7037 283.589,252.6657 283.814,252.6427 C283.928,252.6307 284.037,252.6227 284.144,252.6217 C284.358,252.6187 284.563,252.6417 284.749,252.6847 C284.718,252.5707 284.698,252.4637 284.675,252.3557 C284.632,252.1497 284.602,251.9477 284.59,251.7607 C284.566,251.3817 284.602,251.0447 284.696,250.7417 C284.703,250.7187 284.71,250.6997 284.718,250.6777 C284.761,250.5497 284.813,250.4217 284.877,250.3057 C284.95,250.1707 285.033,250.0527 285.132,249.9347 C285.135,249.9307 285.139,249.9267 285.143,249.9237 C285.191,249.8647 285.236,249.8097 285.291,249.7537 C285.371,249.6717 285.453,249.5947 285.546,249.5197 C285.707,249.3897 285.883,249.2787 286.077,249.1697 C286.53,248.9137 287.064,248.7097 287.659,248.5437 C288.055,248.4327 288.484,248.3387 288.923,248.2557 C290.676,247.9247 292.707,247.7677 294.509,247.4707 C294.734,247.4327 294.961,247.3957 295.179,247.3537 C296.476,247.0997 297.615,246.7387 298.375,246.1427 C298.379,246.1397 298.382,246.1347 298.386,246.1317 C298.393,246.1267 298.398,246.1177 298.407,246.1117 C298.519,246.0187 298.631,245.9177 298.726,245.8137 C298.775,245.7587 298.829,245.7027 298.874,245.6437 C298.878,245.6417 298.871,245.6357 298.874,245.6327 C298.967,245.5117 299.051,245.3887 299.118,245.2517 C299.185,245.1137 299.237,244.9697 299.277,244.8157 C299.298,244.7387 299.317,244.6537 299.331,244.5717 C299.638,242.9487 300.466,240.3637 300.500082,238.4857 C300.504,238.2047 300.492,237.9327 300.456,237.6897" id="Fill-4" fill="#FFFFFF"></path>
                <path d="M300.456,237.6897 C300.445,237.6077 300.431,237.5317 300.414,237.4557 C300.381,237.3027 300.332,237.1607 300.276,237.0307 C300.25,236.9697 300.223,236.9057 300.191,236.8497 C300.187,236.8457 300.183,236.8437 300.181,236.8397 C300.146,236.7817 300.115,236.7327 300.074,236.6797 C300.033,236.6277 299.983,236.5767 299.936,236.5317 C299.794,236.3967 299.625,236.2967 299.416,236.2347 C299.149,236.1547 298.9,236.0887 298.651,236.0327 C298.619,236.0257 298.587,236.0177 298.556,236.0107 C298.552,236.0107 298.549,236.0117 298.545,236.0107 C298.504,236.0027 298.469,235.9987 298.428,235.9907 C297.921,235.8867 297.44,235.8177 297.005,235.7777 C296.532,235.7337 296.099,235.7157 295.709,235.6927 C295.515,235.6807 295.331,235.6687 295.157,235.6507 C294.895,235.6247 294.661,235.5927 294.445,235.5337 C293.586,235.2967 293.089,234.6957 292.948,232.9737 C292.89,232.2557 292.895,231.3447 292.959,230.1807 C293.003,229.3617 293.089,227.7947 293.107,226.0177 C293.118,224.9687 293.107,223.8387 293.044,222.7567 L293.044,222.7047 C293.044,222.6787 293.035,222.6557 293.033,222.6297 C292.991,221.9657 292.929,221.3227 292.842,220.7177 C292.837,220.6797 292.837,220.6387 292.831,220.6017 C292.782,220.2717 292.717,219.9647 292.651,219.6677 C292.585,219.3687 292.512,219.0857 292.428,218.8277 C292.26,218.3117 292.055,217.8887 291.802,217.5857 C291.738,217.5087 291.669,217.4327 291.6,217.3737 C291.53,217.3127 291.462,217.2667 291.387,217.2237 C291.236,217.1387 291.075,217.0857 290.898,217.0757 C290.516,217.0517 290.15,216.9437 289.794,216.7677 C289.679,216.7107 289.567,216.6347 289.454,216.5657 C289.451,216.5647 289.446,216.5677 289.443,216.5657 C289.328,216.4957 289.217,216.4237 289.103,216.3427 C288.988,216.2597 288.877,216.1787 288.764,216.0877 C288.543,215.9107 288.331,215.7117 288.116,215.5137 C288.112,215.5127 288.107,215.5157 288.105,215.5137 C287.89,215.3147 287.681,215.1127 287.469,214.9097 C287.254,214.7047 287.043,214.5057 286.831,214.3147 C286.727,214.2187 286.628,214.1277 286.523,214.0387 C286.311,213.8587 286.1,213.7007 285.886,213.5597 C285.78,213.4907 285.684,213.4257 285.578,213.3697 C285.352,213.2487 285.118,213.1297 284.888,213.0187 C284.196,212.6827 283.487,212.3797 282.774,212.0847 C281.824,211.6887 280.873,211.3067 279.949,210.8627 C279.612,210.7007 279.289,210.5177 278.982,210.3317 C278.979,210.3307 278.975,210.3337 278.973,210.3317 C278.046,209.7677 277.261,209.0967 276.561,208.3457 C276.328,208.0947 276.105,207.8367 275.893,207.5707 C275.423,206.9817 275,206.3517 274.605,205.6967 C274.429,205.4017 274.256,205.1017 274.09,204.7967 C274.067,204.7547 274.046,204.7127 274.023,204.6717 C273.878,204.4027 273.737,204.1297 273.598,203.8547 L273.419,203.4947 C273.342,203.3357 273.266,203.1777 273.189,203.0187 C272.896,202.4067 272.611,201.7897 272.328,201.1637 C272.316,201.1387 272.306,201.1147 272.294,201.0897 C271.711,199.7997 271.125,198.4987 270.455,197.2477 C269.827,196.0447 269.164,194.8437 268.434,193.6967 C268.322,193.5197 268.207,193.3447 268.091,193.1697 C268.056,193.1187 268.021,193.0657 267.986,193.0127 C267.305,191.9997 266.566,191.0347 265.737,190.1687 C265.336,189.7487 264.79,189.2727 264.321,188.7297 C264.301,188.7067 264.28,188.6827 264.261,188.6597 C264.21,188.5997 264.162,188.5397 264.114,188.4777 C264.064,188.4157 264.018,188.3507 263.972,188.2867 C263.887,188.1667 263.806,188.0447 263.734,187.9197 C263.726,187.9047 263.718,187.8887 263.71,187.8737 C263.674,187.8087 263.641,187.7437 263.608,187.6757 C263.589,187.6337 263.571,187.5897 263.554,187.5467 C263.536,187.5047 263.519,187.4637 263.505,187.4227 C263.485,187.3707 263.469,187.3167 263.453,187.2627 C263.443,187.2287 263.435,187.1947 263.426,187.1607 C263.411,187.1017 263.398,187.0427 263.389,186.9827 C263.383,186.9517 263.379,186.9197 263.375,186.8877 C263.367,186.8257 263.36,186.7627 263.357,186.6987 C263.355,186.6687 263.357,186.6377 263.356,186.6077 C263.356,186.5417 263.356,186.4757 263.361,186.4077 C263.363,186.3817 263.369,186.3547 263.372,186.3297 C263.38,186.2587 263.389,186.1887 263.403,186.1177 C263.42,186.0337 263.441,185.9447 263.465,185.8587 C263.479,185.8097 263.496,185.7597 263.513,185.7107 C263.525,185.6727 263.538,185.6357 263.552,185.5967 C263.555,185.5897 263.56,185.5837 263.562,185.5767 C263.612,185.4327 263.666,185.2877 263.732,185.1407 C263.756,185.0867 263.78,185.0357 263.807,184.9807 C263.871,184.8467 263.939,184.7117 264.015,184.5757 C265.392,182.0707 268.511,179.1907 269.975,177.3497 C272.203,174.5517 275.091,171.6107 276.506,168.3337 C277.884,165.1457 279.286,159.3557 275.922,157.5007 C272.699,155.7277 265.963,157.9927 263.549,155.1007 C260.36,151.2877 263.094,144.7337 262.402,140.0417 C261.729,135.5127 256.49,128.2777 258.93,123.4627 C260.272,120.8197 265.742,116.4987 260.544,116.1667 C256.493,115.9087 255.685,107.8487 257.283,104.4097 C258.175,102.4937 261.521,102.0277 262.01,100.5547 C262.329,99.6337 260.756,98.0897 260.395,97.4007 C265.887,96.7437 266.042,88.8627 266.077,85.1877 C266.095,83.1627 267.544,81.6727 268.33,79.9857 C268.594,79.4227 268.782,78.8377 268.82,78.2057 C268.907,76.7567 268.641,72.9327 267.83,71.4147 C267.741,71.2457 267.645,71.1047 267.542,70.9987 C267.177,70.6227 266.978,70.3497 266.893,70.1267 C266.889,70.1167 266.886,70.1067 266.883,70.0977 C266.876,70.0767 266.868,70.0557 266.863,70.0357 C266.826,69.8957 266.836,69.7737 266.875,69.6537 C266.878,69.6447 266.88,69.6347 266.884,69.6257 L266.884,69.6257 C267.062,69.1407 267.719,68.6797 267.744,67.1647 C267.758,66.3957 267.505,65.7567 267.27,65.1127 C267.078,64.5817 266.897,64.0457 266.887,63.4327 C266.874,62.6237 267.85,57.5517 266.632,57.5597 C263.327,57.5807 257.329,58.7637 254.567,57.3157 C252.06,55.9927 251.412,52.2237 249.193,50.4977 C246.691,48.5517 241.916,48.8327 240.485,45.6657 C239.076,42.5537 238.567,41.0577 235.143,39.6967 C231.666,38.3157 228.495,38.9797 224.714,38.6987 C221.319,38.4447 219.913,35.4567 216.749,34.8857 C213.91,34.3697 208.836,34.2627 207.796,31.3387 C206.702,28.2647 206.392,27.4607 202.879,28.3007 C201.38,28.6617 200.632,28.1427 199.587,27.4407 C198.225,26.5257 197.527,28.0737 196.178,27.6957 C194.311,27.1697 190.895,28.3427 191.972,30.8497 C187.356,31.8487 183.532,29.3017 178.803,31.0087 C175.555,32.1807 171.019,34.9697 168.725,37.7737 C166.418,40.5967 168.918,41.9647 164.508,43.2117 C160.802,44.2597 157.828,45.1277 154.121,44.9857 C154.378,47.0967 156.598,52.2697 155.683,54.3417 C150.59,55.9917 143.257,51.0477 128.782,58.3777 C122.239,60.3157 114.655,58.5357 109.208,55.9457 C106.322,54.5677 102.534,53.0747 100.213,50.9437 C98.089,48.9977 97.607,45.6187 94.797,44.3377 C90.468,42.3707 84.839,43.5477 80.619,41.1517 C75.647,38.3387 77.224,30.2477 75.553,25.3587 C75.386,24.8687 72.948,25.3517 72.218,24.9987 C70.412,24.1187 69.06,22.3857 67.418,21.2707 C65.087,19.6877 59.357,16.1947 65.58,14.7927 C68.937,14.0367 61.787,9.1967 67.938,6.9757 C65.751,3.8057 62.519,-0.7323 57.701,2.2927 C55.857,3.4507 54.306,5.0177 52.581,6.3387 C51.094,7.4777 48.633,7.8667 47.739,9.6097 C46.964,11.1217 40.847,15.8567 39.168,16.3427 C36.126,17.2257 31.93,16.9337 29.005,16.4917 C24.282,15.7767 23.059,14.0897 20.126,11.0537 C18.693,9.5707 16.979,8.3717 15.538,6.8907 C14.047,5.3577 13.351,3.1397 11.63,1.8247 C10.599,1.0417 9.493,0.4017 8.656,0.4977 C8.006,0.5717 7.519,1.0917 7.361,2.3457 C6.625,8.1107 4.993,5.9217 0.5,7.5597 C1.52,8.9837 3.764,12.2107 2.751,14.1127 C1.853,15.8097 4.292,16.5827 4.578,17.9147 C5.224,20.9317 3.883,26.1347 7.499,27.3977 C5.582,29.0207 4.275,32.4427 3.761,34.6947 C3.417,36.1997 6.857,36.9917 7.732,37.4557 C10.552,38.9427 8.315,41.9657 9.485,44.2947 C10.63,46.5807 12.725,45.2137 12.267,48.5747 C12.135,49.5367 13.855,56.5107 14.349,56.7317 C16.269,57.5837 16.339,58.3507 15.868,60.5227 C15.06,64.2507 23.795,65.7997 20.731,71.3877 C20.735,71.3867 20.739,71.3857 20.743,71.3847 C20.742,71.3877 20.741,71.3897 20.739,71.3917 C21.785,71.1527 22.538,71.1687 23.143,71.3447 C24.605,71.7797 25.197,73.1667 26.934,74.2017 C28.556,75.1697 30.601,74.2807 32.414,74.0847 C33.904,73.9237 34.846,75.0687 36.407,74.6157 C36.236,75.0997 35.976,75.4727 35.662,75.7747 C34.293,77.0807 31.891,77.0577 31.158,78.9537 C30.109,81.6587 32.68,83.5967 33.59,85.6227 C34.135,86.8287 34.141,88.7327 32.071,88.7347 C29.872,88.7347 29.863,87.9797 29.257,90.6467 C28.841,92.4747 26.199,92.0907 26.156,94.5547 C26.127,95.9787 26.644,97.2757 26.729,98.6747 C25.558,98.6737 24.518,98.3707 23.596,97.7517 C23.155,99.2547 21.696,101.1037 23.107,102.3387 C24.543,103.5807 24.83,104.5337 23.936,106.4917 C22.956,108.6417 21.203,109.0477 22.895,110.7507 C24.035,111.8997 25.037,113.2197 26.208,114.3297 C27.81,115.8437 37.761,124.5367 32.092,126.2877 C34.501,127.2627 32.243,129.2537 35.703,128.9427 C37.769,128.7547 39.496,130.1687 40.981,131.2897 C43.701,133.3437 45.727,137.3917 49.35,138.0867 C54.097,138.9987 53.307,141.1147 55.903,144.7777 C58.453,148.3787 60.83,149.3157 59.29,154.4737 C58.138,158.3557 55.599,166.1767 61.149,165.9647 C64.677,165.8317 63.009,170.9367 63.071,173.4947 C63.173,177.5177 67.582,177.7567 68.488,181.0027 C68.927,182.5757 68.783,184.6227 70.41,185.3887 C79.909,178.8757 74.711,174.6497 81.423,180.5787 C82.258,182.7977 84.872,181.0997 86.234,183.4457 C88.258,186.9457 93.823,176.6367 95.368,182.5007 C95.554,183.2107 95.773,183.8867 96.014,184.5457 L96.008,184.5457 C96.035,184.6207 96.064,184.6937 96.093,184.7677 C96.139,184.8897 96.186,185.0107 96.234,185.1307 C96.278,185.2487 96.321,185.3667 96.369,185.4807 C96.378,185.5017 96.392,185.5227 96.4,185.5437 C96.431,185.6167 96.466,185.6867 96.498,185.7577 C96.551,185.8777 96.599,186.0027 96.654,186.1227 C96.665,186.1487 96.675,186.1757 96.687,186.2027 C96.76,186.3587 96.845,186.5157 96.921,186.6697 C96.946,186.7197 96.97,186.7687 96.996,186.8187 C97.063,186.9527 97.126,187.0887 97.197,187.2217 C97.198,187.2237 97.2,187.2257 97.202,187.2287 C97.264,187.3457 97.334,187.4587 97.399,187.5747 C97.497,187.7517 97.592,187.9287 97.696,188.1037 C97.715,188.1357 97.736,188.1687 97.756,188.2007 C97.793,188.2617 97.831,188.3237 97.869,188.3847 C97.955,188.5297 98.041,188.6747 98.132,188.8147 C98.151,188.8447 98.176,188.8707 98.195,188.8997 C98.235,188.9607 98.277,189.0197 98.319,189.0787 C98.645,189.5667 98.993,190.0457 99.363,190.5167 C99.371,190.5267 99.377,190.5367 99.385,190.5457 C99.592,190.8097 99.801,191.0727 100.022,191.3327 C100.051,191.3657 100.084,191.4017 100.117,191.4367 C101.083,192.5147 103.316,194.3067 104.069,196.2587 C104.074,196.2707 104.078,196.2827 104.082,196.2937 C104.115,196.3797 104.145,196.4667 104.171,196.5537 C104.172,196.5577 104.173,196.5607 104.174,196.5637 C104.425,197.3967 104.384,198.2517 103.842,199.0887 C103.791,199.1697 103.746,199.2477 103.705,199.3217 C103.69,199.3497 103.678,199.3767 103.664,199.4037 C103.642,199.4467 103.621,199.4897 103.602,199.5307 C103.586,199.5667 103.573,199.6007 103.56,199.6347 C103.548,199.6637 103.539,199.6917 103.529,199.7197 C103.517,199.7567 103.505,199.7937 103.496,199.8297 C103.49,199.8517 103.487,199.8737 103.482,199.8957 C103.476,199.9257 103.467,199.9587 103.463,199.9877 C103.461,199.9997 103.463,200.0087 103.462,200.0207 C103.457,200.0707 103.456,200.1177 103.458,200.1637 C103.459,200.1867 103.462,200.2107 103.465,200.2327 C103.47,200.2687 103.477,200.3027 103.486,200.3357 C103.49,200.3507 103.49,200.3667 103.495,200.3797 C103.498,200.3887 103.503,200.3967 103.507,200.4047 C103.519,200.4367 103.532,200.4667 103.548,200.4967 C103.548,200.4967 103.548,200.4977 103.548,200.4977 C103.55,200.5017 103.555,200.5047 103.557,200.5097 C103.58,200.5487 103.606,200.5857 103.635,200.6207 C103.646,200.6327 103.658,200.6457 103.67,200.6587 C103.694,200.6837 103.72,200.7087 103.748,200.7317 C103.76,200.7417 103.769,200.7527 103.782,200.7627 C103.789,200.7687 103.8,200.7727 103.808,200.7787 C103.863,200.8187 103.923,200.8547 103.988,200.8877 C104,200.8947 104.013,200.9007 104.025,200.9077 C104.1,200.9437 104.18,200.9757 104.265,201.0047 C104.267,201.0047 104.268,201.0057 104.27,201.0067 C104.271,201.0067 104.271,201.0067 104.272,201.0077 C105.024,201.2627 106.113,201.2647 106.721,201.4047 C106.82,201.4267 106.913,201.4587 107.003,201.4917 C107.016,201.4967 107.029,201.5017 107.042,201.5057 C107.198,201.5687 107.334,201.6517 107.456,201.7397 C107.487,201.7617 107.523,201.7797 107.552,201.8037 L107.556,201.8037 C107.625,201.8607 107.686,201.9207 107.743,201.9847 C107.757,202.0017 107.771,202.0197 107.786,202.0387 C107.814,202.0737 107.84,202.1107 107.864,202.1477 C107.888,202.1847 107.912,202.2207 107.932,202.2587 C107.936,202.2667 107.939,202.2757 107.944,202.2837 C107.968,202.3327 107.991,202.3807 108.008,202.4297 C108.062,202.5807 108.083,202.7277 108.072,202.8767 C108.067,202.9507 108.052,203.0287 108.03,203.0987 C107.985,203.2407 107.912,203.3677 107.796,203.4817 C107.738,203.5387 107.67,203.5937 107.594,203.6407 C107.587,203.6457 107.577,203.6487 107.569,203.6537 C107.53,203.6757 107.484,203.6947 107.44,203.7147 C107.404,203.7297 107.367,203.7437 107.329,203.7577 C107.236,203.7907 107.132,203.8227 107.021,203.8427 C106.991,203.8477 106.958,203.8517 106.927,203.8567 C106.749,203.8807 106.549,203.8867 106.328,203.8727 C106.289,203.8697 106.253,203.8677 106.214,203.8637 C106.213,203.8657 106.214,203.8667 106.213,203.8687 L106.211,203.8687 C106.199,203.9957 106.198,204.1157 106.201,204.2317 C106.201,204.2567 106.203,204.2807 106.204,204.3057 C106.209,204.3917 106.217,204.4767 106.229,204.5577 C106.232,204.5777 106.231,204.5987 106.235,204.6177 C106.236,204.6217 106.234,204.6257 106.235,204.6277 C106.238,204.6447 106.244,204.6607 106.247,204.6757 C106.266,204.7717 106.289,204.8637 106.318,204.9517 L106.32,204.9577 C106.323,204.9667 106.328,204.9757 106.331,204.9857 C106.359,205.0677 106.392,205.1467 106.428,205.2227 C106.441,205.2517 106.455,205.2787 106.47,205.3057 C106.503,205.3717 106.54,205.4347 106.58,205.4967 C106.592,205.5157 106.602,205.5357 106.615,205.5537 C106.665,205.6277 106.717,205.7007 106.773,205.7697 L106.776,205.7697 C106.85,205.8597 106.927,205.9467 107.01,206.0307 C107.086,206.1067 107.162,206.1817 107.244,206.2527 C107.571,206.5387 107.947,206.7977 108.316,207.0497 C108.505,207.1777 108.688,207.2997 108.869,207.4317 C109.047,207.5627 109.221,207.6937 109.378,207.8357 C109.61,208.0437 109.793,208.2737 109.941,208.5157 C110.164,208.8787 110.305,209.2777 110.398,209.6947 C110.46,209.9717 110.507,210.2527 110.536,210.5437 C110.668,211.8567 110.571,213.2737 111.173,214.4417 C113.433,218.8337 114.145,221.7167 117.885,224.8597 C118.097,225.0377 118.327,225.1827 118.576,225.2947 C118.824,225.4077 119.095,225.4897 119.372,225.5497 C119.649,225.6117 119.935,225.6527 120.232,225.6777 C120.381,225.6897 120.526,225.6927 120.678,225.6987 C121.138,225.7177 121.61,225.7127 122.08,225.7097 C122.388,225.7077 122.692,225.7047 122.994,225.7097 C123.607,225.7207 124.199,225.7657 124.735,225.9007 C126.255,226.2817 127.435,227.6307 128.835,228.3227 C129.895,228.8427 133.395,230.2277 134.463,231.9647 C134.512,232.0437 134.553,232.1187 134.591,232.1987 C134.631,232.2817 134.659,232.3587 134.686,232.4427 C134.713,232.5247 134.736,232.6047 134.75,232.6867 C134.766,232.7727 134.77,232.8547 134.771,232.9417 C134.773,233.1097 134.753,233.2797 134.697,233.4517 C134.669,233.5377 134.635,233.6207 134.591,233.7067 C134.459,233.9707 134.251,234.2327 133.954,234.5027 C134.305,234.6747 134.649,234.8517 134.995,235.0347 C134.997,235.0357 135.002,235.0327 135.005,235.0347 C136.038,235.5807 137.047,236.1797 138.042,236.7867 C139.372,237.5977 140.682,238.4337 142.015,239.2397 C142.269,239.3947 142.539,239.5437 142.822,239.6857 C143.671,240.1117 144.619,240.4947 145.508,240.9497 C145.657,241.0257 145.799,241.1027 145.944,241.1827 C145.947,241.1847 145.952,241.1817 145.955,241.1827 C146.096,241.2617 146.232,241.3547 146.369,241.4377 C146.649,241.6107 146.915,241.7797 147.165,241.9797 C147.289,242.0787 147.402,242.1907 147.516,242.2977 C147.632,242.4077 147.741,242.5087 147.845,242.6267 C147.947,242.7447 148.042,242.8617 148.132,242.9887 C148.225,243.1197 148.309,243.2497 148.387,243.3917 C148.463,243.5307 148.532,243.6577 148.609,243.7857 C148.612,243.7897 148.618,243.7927 148.62,243.7957 C148.851,244.1797 149.083,244.5177 149.321,244.8157 C149.559,245.1137 149.797,245.3687 150.043,245.5897 C150.125,245.6647 150.204,245.7367 150.288,245.8027 C150.706,246.1377 151.137,246.3757 151.594,246.5457 C151.866,246.6487 152.153,246.7217 152.443,246.7797 C152.831,246.8567 153.229,246.8987 153.654,246.9187 C154.504,246.9577 155.438,246.9067 156.479,246.8647 C156.999,246.8437 157.547,246.8267 158.125,246.8227 C158.713,246.8187 159.282,246.9557 159.846,247.1727 C160.184,247.3027 160.521,247.4597 160.854,247.6397 C161.299,247.8817 161.743,248.1607 162.183,248.4477 C162.621,248.7337 163.059,249.0267 163.499,249.3077 C163.939,249.5877 164.379,249.8597 164.826,250.0837 C165.051,250.1947 165.279,250.2927 165.506,250.3797 C165.62,250.4237 165.731,250.4607 165.846,250.4977 C166.074,250.5707 166.304,250.6277 166.536,250.6677 C166.652,250.6867 166.769,250.7107 166.887,250.7197 C167.004,250.7307 167.129,250.7307 167.248,250.7307 C167.838,250.7287 168.447,250.5927 169.074,250.2737 C169.596,250.0097 170.057,249.6627 170.498,249.2757 C170.82,248.9937 171.128,248.6937 171.433,248.3837 C172.152,247.6527 172.854,246.8907 173.673,246.3017 C173.806,246.2067 173.948,246.1117 174.088,246.0257 C174.092,246.0237 174.094,246.0177 174.098,246.0147 C174.163,245.9757 174.233,245.9467 174.3,245.9097 C174.423,245.8407 174.553,245.7767 174.683,245.7177 C174.946,245.5977 175.215,245.4957 175.511,245.4197 C175.698,245.3737 177.132,245.5147 178.441,245.4737 C178.609,245.4677 178.769,245.4647 178.931,245.4527 C179.241,245.4277 179.537,245.3837 179.79,245.3257 C179.983,245.2797 180.15,245.2257 180.29,245.1557 C180.472,245.0617 180.607,244.9417 180.661,244.7937 C180.662,244.7907 180.66,244.7867 180.661,244.7837 C180.673,244.7497 180.679,244.7147 180.683,244.6767 L180.683,244.6667 C180.688,244.5827 180.678,244.4917 180.64,244.3907 C180.554,244.1577 180.498,243.9417 180.47,243.7427 C180.47,243.7397 180.471,243.7357 180.47,243.7317 C180.452,243.6007 180.443,243.4777 180.449,243.3607 C180.449,243.3567 180.448,243.3527 180.449,243.3497 C180.458,243.1687 180.496,243.0027 180.555,242.8507 C180.594,242.7497 180.645,242.6547 180.704,242.5637 C180.935,242.2047 181.31,241.9287 181.766,241.7037 C181.881,241.6467 182.003,241.5947 182.127,241.5437 C182.248,241.4947 182.382,241.4407 182.509,241.3957 C182.64,241.3487 182.777,241.3007 182.913,241.2577 C183.455,241.0857 184.031,240.9407 184.569,240.7797 C184.89,240.6837 185.206,240.5557 185.515,240.4187 C185.671,240.3487 185.828,240.2837 185.982,240.2067 C186.44,239.9757 186.893,239.7097 187.342,239.4417 C187.642,239.2617 187.944,239.0787 188.244,238.8997 C188.542,238.7227 188.846,238.5417 189.146,238.3787 C189.451,238.2167 189.76,238.0657 190.071,237.9337 C190.224,237.8687 190.383,237.8077 190.538,237.7527 C190.854,237.6407 191.185,237.5477 191.516,237.4877 C191.68,237.4577 191.846,237.4377 192.015,237.4237 C192.382,237.3927 192.749,237.3727 193.108,237.3707 L193.119,237.3707 C193.3,237.3707 193.471,237.3747 193.649,237.3807 C193.829,237.3877 194.004,237.3987 194.181,237.4137 C194.36,237.4267 194.535,237.4447 194.712,237.4657 C194.886,237.4877 195.051,237.5117 195.222,237.5407 C195.737,237.6277 196.235,237.7497 196.719,237.9017 C196.879,237.9517 197.03,238.0027 197.186,238.0607 C197.346,238.1197 197.499,238.1757 197.653,238.2417 C197.806,238.3057 197.952,238.3827 198.1,238.4537 C199.433,239.0947 200.583,240.0087 201.466,241.1827 C201.662,241.4437 201.839,241.7157 202.008,242.0017 C202.346,242.5717 202.629,243.1827 202.847,243.8487 C203.011,244.3487 203.14,244.8797 203.229,245.4307 C203.289,245.7987 203.332,246.1777 203.356,246.5677 C203.617,249.3587 203.884,253.1167 204.674,256.5077 C204.849,257.2617 205.046,257.9927 205.279,258.6957 C205.436,259.1697 205.611,259.6357 205.8,260.0767 C205.819,260.1237 205.843,260.1687 205.863,260.2147 C205.887,260.2677 205.903,260.3217 205.927,260.3747 C206.047,260.6387 206.176,260.9007 206.31,261.1497 C206.392,261.3027 206.476,261.4487 206.564,261.5947 C206.734,261.8807 206.914,262.1557 207.105,262.4137 C207.297,262.6697 207.498,262.9107 207.711,263.1347 C208.361,263.4777 208.964,263.7617 209.538,264.0057 C209.541,264.0067 209.545,264.0047 209.548,264.0057 C211.409,264.4837 213.894,264.6167 214.71,265.6837 C215.132,265.8147 215.555,265.9557 215.974,266.1197 C215.976,266.1187 215.981,266.1207 215.984,266.1197 C217.056,265.5697 217.568,266.5827 218.405,267.4047 C218.712,267.6107 219.027,267.8277 219.351,268.0847 C219.851,268.3057 220.345,268.3607 220.838,268.3287 C221.331,268.2967 221.822,268.1817 222.313,268.0517 C222.557,267.9887 222.804,267.9197 223.047,267.8617 C223.17,267.8317 223.295,267.8017 223.418,267.7767 C223.665,267.7257 223.913,267.6867 224.162,267.6697 C224.286,267.6627 224.409,267.6557 224.533,267.6597 C224.658,267.6637 224.78,267.6727 224.905,267.6917 C224.908,267.6917 224.912,267.6907 224.916,267.6917 C225.037,267.7097 225.165,267.7417 225.287,267.7767 C225.602,267.8657 225.909,267.9257 226.211,267.9667 C226.514,268.0087 226.811,268.0297 227.103,268.0417 C227.686,268.0667 228.247,268.0557 228.803,268.0737 C229.332,268.0907 229.851,268.1347 230.374,268.2757 C230.399,268.2827 230.424,268.2897 230.449,268.2957 C230.452,268.2977 230.456,268.2947 230.459,268.2957 C230.593,268.3357 230.728,268.3817 230.863,268.4347 C230.866,268.4357 230.87,268.4327 230.874,268.4347 C230.916,268.4517 230.959,268.4697 231.001,268.4877 C231.183,268.5647 231.36,268.6667 231.543,268.7747 C231.592,268.8037 231.642,268.8277 231.691,268.8597 C231.833,268.9497 231.973,269.0437 232.116,269.1567 C232.746,269.6527 233.36,270.1497 234.007,270.5377 C234.114,270.6017 234.215,270.6607 234.325,270.7177 C234.328,270.7187 234.333,270.7167 234.336,270.7177 C234.37,270.7367 234.407,270.7527 234.442,270.7707 C234.736,270.9187 235.04,271.0467 235.355,271.1317 C235.593,271.1967 235.834,271.2407 236.088,271.2597 C236.595,271.2977 237.141,271.2377 237.734,271.0467 C238.086,270.9347 238.466,270.8307 238.87,270.7397 C239.68,270.5557 240.578,270.4227 241.494,270.3677 C241.951,270.3397 242.416,270.3317 242.874,270.3457 C243.103,270.3537 243.328,270.3697 243.554,270.3887 C243.78,270.4087 244.003,270.4307 244.224,270.4627 C244.447,270.4957 244.665,270.5337 244.882,270.5807 C245.308,270.6717 245.709,270.7897 246.093,270.9407 C246.287,271.0177 246.475,271.1017 246.655,271.1957 C246.744,271.2427 246.825,271.2837 246.91,271.3347 C246.914,271.3357 246.917,271.3417 246.921,271.3447 C247.171,271.4947 247.41,271.6667 247.621,271.8547 C247.659,271.8877 247.724,271.9187 247.812,271.9497 C247.901,271.9807 248.008,272.0067 248.142,272.0347 C248.146,272.0357 248.148,272.0347 248.152,272.0347 C248.284,272.0627 248.431,272.0947 248.599,272.1197 C248.602,272.1207 248.605,272.1197 248.609,272.1197 C248.629,272.1227 248.652,272.1277 248.673,272.1297 C249.178,272.2027 249.819,272.2607 250.52,272.3107 C251.01,272.3457 251.532,272.3717 252.05,272.3957 C252.567,272.4197 253.077,272.4457 253.568,272.4597 C254.064,272.4737 254.524,272.4777 254.938,272.4807 C255.556,272.4857 256.059,272.4777 256.341,272.4597 C256.435,272.4537 256.499,272.4477 256.542,272.4387 C256.501,272.3957 256.458,272.3537 256.426,272.3107 C256.422,272.3087 256.429,272.3027 256.426,272.2997 C256.358,272.2107 256.31,272.1257 256.276,272.0347 C256.243,271.9407 256.235,271.8507 256.234,271.7587 C256.228,271.4477 256.39,271.1577 256.648,270.9407 C256.723,270.8787 256.807,270.8307 256.893,270.7817 C257.281,270.5647 257.778,270.4917 258.199,270.6967 C258.292,270.7427 258.381,270.8037 258.465,270.8777 C258.507,270.9147 258.543,270.9497 258.581,270.9947 C258.7,271.1277 258.798,271.2937 258.879,271.5037 C258.905,271.5727 258.932,271.6387 258.953,271.7157 C258.997,271.8747 259.029,272.0507 259.049,272.2477 C259.056,272.3167 259.067,272.3837 259.081,272.4497 C259.094,272.5097 259.105,272.5727 259.123,272.6287 C259.131,272.6557 259.145,272.6787 259.155,272.7047 C259.167,272.7367 259.173,272.7687 259.186,272.7987 C259.19,272.8037 259.196,272.8057 259.197,272.8097 C259.221,272.8607 259.244,272.9117 259.271,272.9597 C259.292,272.9947 259.312,273.0317 259.336,273.0647 C259.346,273.0797 259.357,273.0927 259.367,273.1077 C259.371,273.1117 259.375,273.1147 259.378,273.1187 C259.411,273.1617 259.447,273.2067 259.484,273.2457 C259.643,273.4187 259.837,273.5627 260.058,273.6807 C260.168,273.7407 260.286,273.7927 260.408,273.8397 C260.652,273.9367 260.92,274.0107 261.194,274.0737 C261.331,274.1047 261.468,274.1337 261.608,274.1587 C262.03,274.2347 262.464,274.2877 262.872,274.3387 C263.28,274.3917 263.665,274.4457 263.987,274.5197 C264.095,274.5447 264.191,274.5747 264.284,274.6047 C264.781,274.7677 266.255,275.3827 267.863,275.8687 C267.867,275.8697 267.871,275.8677 267.874,275.8687 C268.812,276.1527 269.786,276.3927 270.645,276.4737 C270.769,276.4857 270.89,276.4907 271.007,276.4957 C271.359,276.5097 271.688,276.4907 271.974,276.4317 C272.163,276.3927 272.333,276.3397 272.483,276.2617 C272.636,276.1817 272.763,276.0807 272.865,275.9537 C272.915,275.8947 272.967,275.8337 273.004,275.7627 L273.004,275.7527 C273.042,275.6777 273.065,275.6047 273.089,275.5177 C273.113,275.4287 273.134,275.3357 273.142,275.2317 C273.15,275.1307 273.15,275.0277 273.142,274.9137 C273.134,274.7987 273.114,274.6807 273.089,274.5517 C273.315,274.6397 273.52,274.6847 273.705,274.7007 C273.827,274.7107 273.939,274.7087 274.045,274.6897 C274.144,274.6727 274.245,274.6447 274.331,274.6047 C274.335,274.6027 274.338,274.5957 274.342,274.5937 C274.41,274.5617 274.474,274.5237 274.533,274.4777 C274.667,274.3727 274.779,274.2347 274.873,274.0747 C274.926,273.9847 274.969,273.8897 275.011,273.7877 L275.011,273.7767 C275.054,273.6697 275.096,273.5647 275.128,273.4477 C275.225,273.0987 275.278,272.7027 275.309,272.3107 C275.309,272.3077 275.308,272.3037 275.309,272.2997 C275.317,272.1717 275.324,272.0447 275.329,271.9187 L275.329,271.9077 C275.349,271.3877 275.335,270.8967 275.329,270.5267 C275.325,270.3057 275.326,270.0897 275.329,269.8787 C275.336,269.4577 275.35,269.0577 275.383,268.6687 C275.398,268.4767 275.425,268.2807 275.446,268.0947 L275.446,268.0847 C275.622,266.5727 275.981,265.2567 276.444,263.8257 C276.676,263.1117 276.928,262.3767 277.198,261.5747 C277.298,261.2807 277.366,260.9737 277.411,260.6497 C277.414,260.6357 277.407,260.6217 277.411,260.6077 C277.492,259.9827 277.501,259.3087 277.517,258.6427 C277.529,258.1297 277.546,257.6257 277.612,257.1347 C277.679,256.6447 277.794,256.1687 277.995,255.7437 C278.062,255.6017 278.141,255.4717 278.228,255.3397 C278.271,255.2767 278.318,255.2097 278.366,255.1487 L278.366,255.1377 C278.616,254.8237 278.942,254.5497 279.365,254.3207 C280.292,253.8167 281.787,253.0647 283.114,252.7587 C283.355,252.7037 283.589,252.6657 283.814,252.6427 C283.928,252.6307 284.037,252.6227 284.144,252.6217 C284.358,252.6187 284.563,252.6417 284.749,252.6847 C284.718,252.5707 284.698,252.4637 284.675,252.3557 C284.632,252.1497 284.602,251.9477 284.59,251.7607 C284.566,251.3817 284.602,251.0447 284.696,250.7417 C284.703,250.7187 284.71,250.6997 284.718,250.6777 C284.761,250.5497 284.813,250.4217 284.877,250.3057 C284.95,250.1707 285.033,250.0527 285.132,249.9347 C285.135,249.9307 285.139,249.9267 285.143,249.9237 C285.191,249.8647 285.236,249.8097 285.291,249.7537 C285.371,249.6717 285.453,249.5947 285.546,249.5197 C285.707,249.3897 285.883,249.2787 286.077,249.1697 C286.53,248.9137 287.064,248.7097 287.659,248.5437 C288.055,248.4327 288.484,248.3387 288.923,248.2557 C290.676,247.9247 292.707,247.7677 294.509,247.4707 C294.734,247.4327 294.961,247.3957 295.179,247.3537 C296.476,247.0997 297.615,246.7387 298.375,246.1427 C298.379,246.1397 298.382,246.1347 298.386,246.1317 C298.393,246.1267 298.398,246.1177 298.407,246.1117 C298.519,246.0187 298.631,245.9177 298.726,245.8137 C298.775,245.7587 298.829,245.7027 298.874,245.6437 C298.878,245.6417 298.871,245.6357 298.874,245.6327 C298.967,245.5117 299.051,245.3887 299.118,245.2517 C299.185,245.1137 299.237,244.9697 299.277,244.8157 C299.298,244.7387 299.317,244.6537 299.331,244.5717 C299.638,242.9487 300.466,240.3637 300.500082,238.4857 C300.504,238.2047 300.492,237.9327 300.456,237.6897 Z" id="Stroke-6" stroke="#E75F52" stroke-linecap="round" stroke-linejoin="round"></path>
            </g>
        </g>
    </g>
</svg>