<?xml version="1.0" encoding="UTF-8"?>
<svg width="400px" height="300px" viewBox="0 0 400 300" version="1.1" xmlns="http://www.w3.org/2000/svg" xmlns:xlink="http://www.w3.org/1999/xlink">
    <!-- Generator: Sketch 64 (93537) - https://sketch.com -->
    <title>25</title>
    <desc>Created with Sketch.</desc>
    <g id="25" stroke="none" stroke-width="1" fill="none" fill-rule="evenodd">
        <g id="Group-9" transform="translate(-1.000000, -1.000000)">
            <polygon id="Fill-1" fill="#FFFFFF" points="10.4364 86.6428 10.0134 86.6518 10.4144 87.5578 10.6194 88.0178 10.8684 88.5778 11.5804 97.7048 11.4604 101.4978 11.4894 101.4978 11.4364 103.2238 11.4114 104.0268 10.5864 112.3338 9.3074 117.8288 8.7674 120.1508 7.3214 125.5258 4.5964 131.8108 4.0654 133.0378 1.4084 138.3158 0.5004 139.7598 0.7364 139.8288 0.7944 139.8438 3.6604 140.4298 3.6144 139.7598 3.3704 139.3978 3.2444 139.2118 2.8874 138.8568 3.0524 138.5128 3.4594 138.1528 3.7914 138.1298 4.2214 138.1008 4.5824 137.7938 4.6004 137.3608 4.4274 136.8998 4.8324 136.5378 4.9424 136.5088 5.0664 136.4748 5.1834 135.6648 5.1974 135.5628 5.3354 135.4608 5.5124 135.3328 5.6984 135.1968 5.7614 135.1858 6.1704 135.1198 6.8164 134.7888 7.6674 133.9248 8.6904 133.4758 8.3794 133.1168 8.3474 132.6418 8.7914 131.4208 8.7674 131.0448 8.3544 130.5928 8.5544 130.0118 8.3824 129.5908 10.1954 127.3318 9.9884 127.1068 9.5684 126.7058 9.4764 126.6158 9.6034 126.3718 10.3034 125.9448 10.3844 125.8958 11.0504 125.0868 10.5674 124.3128 11.2574 123.7478 11.3364 123.6848 11.8384 123.2748 12.0534 122.8838 11.4254 121.3528 10.5734 120.7888 10.8834 120.4378 10.6284 120.1658 10.9754 119.6188 10.8734 118.8168 11.3944 117.9768 11.3604 117.4958 11.3484 117.3138 12.3594 115.5948 12.6014 115.1868 12.1834 113.9758 12.0604 113.5728 11.9994 113.3568 12.0924 113.0578 12.1984 112.7248 12.5324 111.9398 12.3414 111.2388 12.4254 110.3298 12.9834 108.5818 13.2514 107.4358 13.3574 106.9848 13.2934 105.4248 13.2904 105.3898 13.1104 104.0108 13.4894 102.7688 13.4264 101.4988 11.4894 101.4988 11.4894 101.4978 13.4354 101.4978 13.3874 100.5128 13.5004 98.5278 13.5114 97.9618 13.5144 97.8338 13.5414 96.3138 13.3184 94.8068 13.2424 93.6578 13.5324 92.0028 12.7694 90.1418 12.3324 89.0768 12.2844 88.9548 11.0864 86.9548 11.0054 86.8198 10.8914 86.7848 10.4384 86.6418"></polygon>
            <g id="Group-8" transform="translate(0.000000, 0.993000)">
                <polygon id="Stroke-2" stroke="#E75F52" stroke-linecap="round" stroke-linejoin="round" points="13.2422 92.6647 13.5322 91.0087 12.7692 89.1487 12.3332 88.0827 12.2842 87.9617 11.0862 85.9617 11.0052 85.8267 10.8922 85.7917 10.4382 85.6487 10.4362 85.6497 10.0132 85.6587 10.4152 86.5647 10.6192 87.0247 10.8682 87.5847 11.5802 96.7117 11.4612 100.5037 11.4902 100.5037 11.4362 102.2307 11.4112 103.0327 10.5872 111.3397 9.3082 116.8357 8.7672 119.1577 7.3222 124.5327 4.5962 130.8177 4.0652 132.0447 1.4092 137.3217 0.5002 138.7667 0.7362 138.8347 0.7952 138.8507 3.6602 139.4367 3.6152 138.7667 3.3702 138.4047 3.2442 138.2187 2.8872 137.8637 3.0532 137.5197 3.4602 137.1597 3.7922 137.1367 4.2212 137.1077 4.5832 136.7997 4.6012 136.3677 4.4272 135.9067 4.8322 135.5447 4.9432 135.5157 5.0662 135.4817 5.1832 134.6717 5.1982 134.5697 5.3352 134.4677 5.5132 134.3397 5.6982 134.2037 5.7622 134.1927 6.1702 134.1257 6.8172 133.7947 7.6672 132.9307 8.6902 132.4827 8.3792 132.1237 8.3472 131.6487 8.7912 130.4277 8.7672 130.0507 8.3552 129.5997 8.5552 129.0187 8.3832 128.5977 10.1952 126.3387 9.9882 126.1137 9.5682 125.7117 9.4762 125.6227 9.6032 125.3777 10.3032 124.9517 10.3842 124.9017 11.0502 124.0937 10.5682 123.3187 11.2572 122.7547 11.3362 122.6917 11.8392 122.2817 12.0542 121.8907 11.4262 120.3597 10.5732 119.7957 10.8842 119.4447 10.6282 119.1727 10.9752 118.6257 10.8742 117.8237 11.3942 116.9837 11.3612 116.5027 11.3472 116.3207 12.3602 114.6017 12.6012 114.1927 12.1832 112.9827 12.0612 112.5797 12.0002 112.3637 12.0932 112.0647 12.1992 111.7317 12.5332 110.9467 12.3422 110.2457 12.4262 109.3367 12.9832 107.5887 13.2522 106.4417 13.3582 105.9917 13.2942 104.4317 13.2902 104.3967 13.1102 103.0177 13.4892 101.7757 13.4262 100.5057 11.4902 100.5057 11.4902 100.5037 13.4352 100.5037 13.3872 99.5197 13.5012 97.5347 13.5112 96.9687 13.5142 96.8397 13.5412 95.3197 13.3182 93.8137"></polygon>
                <path d="M400.335,137.6467 L399.91,136.7657 L399.728,136.6427 L399.556,136.5237 L399.196,136.2797 L399.095,136.0217 L399.042,135.8807 L398.926,135.5817 L398.772,135.1767 L398.732,135.0767 L398.342,135.0077 L397.824,134.9157 L397.296,134.8207 L397.064,134.4977 L396.35,133.4927 L395.919,133.6687 L395.506,133.8387 L395.198,133.4747 L394.795,132.9977 L394.193,132.9867 L392.158,132.7267 L390.83,133.1877 L390.115,132.8207 L389.667,132.7037 L389.158,132.5687 L387.604,131.8367 L386.535,130.8667 L386.166,131.5807 L385.471,131.6707 L385.327,131.6917 L385.266,131.7427 L385.014,131.9627 L384.347,132.5487 L384.158,132.7157 L384.114,132.7547 L383.523,132.0317 L382.95,132.4777 L382.311,132.9737 L381.923,133.2787 L381.707,133.4487 L381.517,133.2567 L381.232,132.9647 L380.996,132.6047 L380.273,132.7157 L379.791,132.9507 L378.956,132.4637 L378.12,131.8587 L377.398,131.9727 L376.828,131.9307 L375.598,131.8387 L375.164,131.7177 L375.014,131.5877 L374.934,131.5217 L374.575,131.2067 L374.427,131.0757 L374.187,130.7207 L374.218,130.3707 L374.244,130.3087 L374.384,129.9687 L374.632,129.5957 L374.88,129.2487 L375.509,128.6627 L376.662,127.4527 L376.961,127.1837 L378.533,126.1237 L379.38,125.5337 L379.273,124.0977 L379.089,118.2357 L378.974,116.6637 L378.921,115.9447 L378.803,114.3377 L378.767,113.8107 L377.587,111.1687 L377.512,111.1357 L376.506,110.6807 L376.513,109.8427 L377.967,109.1387 L378.09,109.1097 L380.387,108.5627 L381.471,107.3187 L381.731,107.0207 L382.064,105.7517 L382.109,105.5907 L383.327,104.4097 L383.457,104.1807 L384.066,103.1007 L383.943,101.9447 L383.862,101.2097 L383.848,101.0677 L383.854,100.5207 L383.747,100.5207 L383.769,98.1577 L383.911,96.1277 L384.092,94.3497 L384.179,93.4987 L384.045,93.1777 L383.372,91.5537 L383.065,92.0127 L381.214,91.9927 L380.167,91.9837 L379.74,92.0257 L379.48,92.0527 L377.991,92.2037 L377.151,91.6017 L374.028,89.7847 L372.96,88.9277 L372.828,88.8217 L370.174,88.2027 L368.602,88.4317 L367.435,88.1347 L367.153,88.0617 L367.038,87.2277 L366.442,85.9107 L365.006,83.6367 L362.551,83.1847 L362.35,83.1447 L362.314,83.1147 L361.452,82.4177 L361.317,82.3097 L360.421,81.5837 L359.766,80.4137 L358.901,78.8757 L358.742,78.5907 L358.266,77.1587 L357.701,74.9467 L357.538,74.3107 L357.077,72.5037 L355.512,70.1107 L352.971,68.6707 L350.485,66.6307 L348.738,65.1977 L345.11,59.9427 L344.909,59.6557 L342.929,56.8387 L340.5,55.6407 L339.938,55.2187 L338.481,54.1267 L338.434,54.0907 L338.356,54.0637 L336,53.2557 L335.941,53.2307 L335.366,52.9587 L334.345,52.4727 L334.32,52.4507 L333.492,51.6907 L332.998,51.1787 L332.751,50.4787 L332.696,49.9117 L332.173,49.0217 L331.211,48.6457 L330.555,48.6427 L330.302,48.3157 L329.508,46.9307 L329.412,46.8577 L328.153,46.3567 L327.079,46.0057 L325.59,45.5247 L323.992,44.8247 L322.695,43.9677 L321.289,43.1067 L320.626,42.3537 L320.211,41.4927 L320.128,40.8757 L320.125,40.2037 L320.206,39.1527 L320.206,38.6917 L320.247,38.3337 L320.32,37.7037 L320.335,36.7967 L320.249,35.7427 L319.814,35.6287 L319.186,35.9927 L318.343,36.6627 L317.471,37.0957 L316.187,36.9177 L314.371,36.8457 L312.366,36.6337 L312.051,36.1397 L311.545,34.1067 L311.019,33.5927 L309.956,33.5147 L309.344,33.6707 L308.913,33.9277 L308.906,34.5457 L308.708,35.3087 L308.128,35.7047 L307.904,35.7327 L307.007,35.8407 L306.111,35.7447 L305.248,34.9027 L304.377,34.6807 L303.215,35.1497 L302.665,35.7907 L301.584,34.5667 L300.978,34.4357 L299.05,34.8337 L297.33,34.8807 L296.432,35.4437 L295.784,35.9737 L294.858,35.6367 L294.121,34.8217 L292.82,33.2177 L291.7,33.0277 L291.195,32.3917 L290.434,31.6067 L290.271,31.4387 L289.509,31.4097 L288.043,32.1257 L287.095,32.6147 L285.757,32.7007 L284.098,32.2487 L281.921,31.4137 L280.915,31.2337 L280.714,31.1977 L280.233,29.9017 L280.191,29.7837 L279.85,29.4567 L279.8,29.2517 L279.421,27.7847 L279.417,27.7747 L279.011,26.6027 L278.995,26.3697 L278.966,25.9567 L278.917,25.2587 L278.888,24.6147 L278.826,22.9307 L278.496,22.3557 L277.935,21.6197 L277.525,21.0837 L277.368,21.0207 L276.811,20.8017 L276.786,20.7617 L276.166,19.7757 L275.739,19.0917 L275.359,18.4807 L274.891,18.2297 L274.677,18.1137 L274.532,18.0067 L274.154,17.7257 L273.877,17.5197 L272.369,16.6847 L271.856,15.3947 L271.903,13.5377 L271.85,11.2437 L270.644,9.2197 L268.579,5.8677 L267.852,3.9457 L267.911,2.8297 L268.215,1.6387 L268.004,1.0107 L266.789,0.5067 L265.624,0.9417 L265.231,1.4887 L265.358,2.4157 L265.651,3.3217 L265.672,4.1007 L265.046,4.7977 L264.305,5.2617 L262.818,5.2507 L261.94,4.4177 L261.504,4.6417 L261.181,5.3807 L260.236,5.9137 L258.852,5.8987 L258.668,5.8957 L257.898,5.8887 L256.08,6.2527 L255.167,6.7007 L254.69,8.1607 L254.229,8.5077 L252.869,9.0967 L251.51,9.3307 L250.758,9.4587 L249.859,10.3187 L249.473,11.1927 L249.457,11.6867 L248.077,13.6377 L246.722,14.8457 L245.795,16.0787 L245.711,16.9967 L246.081,18.4267 L245.688,18.9317 L244.585,19.8187 L242.316,20.5327 L240.368,21.1257 L239.847,21.4157 L238.33,22.2627 L237.475,22.7907 L236.319,22.7007 L235.723,22.0817 L234.029,20.5857 L232.653,20.4447 L230.938,19.1147 L230.689,18.9777 L229.426,18.2767 L228.913,17.9927 L227.115,18.1597 L225.834,18.9517 L225.114,19.3387 L223.359,20.2817 L220.436,22.2927 L218.755,22.7527 L218.32,22.8757 L217.356,22.9267 L215.809,22.4857 L215.584,22.3517 L215.014,22.0147 L214.186,21.5237 L213.43,20.7217 L212.96,20.4177 L211.953,20.4797 L211.214,20.3337 L210.891,18.4467 L209.195,15.8857 L208.436,15.0567 L207.725,14.2817 L206.727,14.2517 L205.551,14.2197 L204.878,14.1937 L203.288,14.1317 L202.04,14.0207 L200.703,13.3057 L197.32,13.6697 L195.529,13.0607 L195.311,12.9917 L194.638,12.7787 L193.689,12.9597 L193.061,13.2977 L191.992,14.8947 L191.452,14.9727 L191.117,14.7297 L190.739,13.9217 L191.009,12.6457 L191.554,11.4967 L191.834,10.5507 L191.676,10.0787 L190.323,9.7617 L190.047,9.6967 L188.461,9.6087 L188.418,9.6057 L186.833,9.7947 L186.393,9.8217 L184.616,9.9197 L184.556,9.9227 L184.07,10.0147 L182.861,10.2437 L179.228,12.4897 L177.162,13.7657 L175.448,13.9497 L173.063,13.1077 L171.255,12.2507 L168.672,11.0847 L168.58,10.9187 L167.956,9.7827 L164.003,8.2637 L161.509,8.1487 L159.7,8.2117 L158.002,8.9637 L157.337,9.0397 L156.144,9.1767 L153.521,9.7257 L151.078,10.2367 L151.426,12.3707 L149.935,14.3647 L149.505,14.7147 L148.777,15.3067 L148.33,15.6707 L146.586,17.0027 L145.915,16.8937 L144.652,15.3947 L141.986,15.1067 L141.341,14.2887 L140.256,9.9417 L140.348,6.9627 L139.572,5.8127 L138.641,5.4667 L137.626,5.0607 L136.563,4.3797 L135.617,4.3907 L135.593,4.4127 L134.796,5.1527 L134.657,5.9817 L134.579,6.4597 L134.229,7.8567 L133.552,8.5967 L131.387,9.1527 L128.631,9.6607 L126.266,9.8967 L123.856,9.8607 L121.614,9.1567 L121.471,9.1107 L121.174,9.3207 L120.34,9.9097 L120.215,10.0067 L118.95,11.0057 L118.092,11.2547 L117.286,10.6977 L117.196,10.6357 L114.857,10.1387 L114.531,8.8577 L114.511,8.7757 L114.44,8.7507 L112.861,8.1967 L112.77,8.1617 L112.594,8.0987 L111.185,7.1277 L109.675,7.0687 L109.408,7.0577 L109.028,7.0447 L107.438,6.9757 L105.515,6.3047 L103.958,5.4137 L103.883,5.3717 L103.839,5.3787 L102.897,5.5357 L102.762,5.5027 L102.749,5.4987 L101.013,5.0797 L98.998,5.1947 L96.836,5.8547 L96.642,5.9137 L96.243,6.1067 L95.604,6.4177 L94.957,6.7317 L94.586,5.8767 L93.303,4.8177 L93.097,4.8237 L92,4.8597 L91.389,4.8797 L91.197,4.8867 L89.738,5.4097 L89.345,5.5517 L89.298,5.5457 L88.508,5.4467 L88.373,5.4317 L87.454,4.9337 L87.08,4.7297 L86.479,4.3897 L86.067,4.1577 L85.537,3.8597 L83.666,3.6077 L81.578,2.9727 L79.614,3.0217 L78.007,3.4377 L75.408,4.0237 L71.865,4.2877 L71.865,5.5347 L71.472,5.9407 L71.162,7.0347 L71.117,7.1937 L70.506,8.1107 L70.006,8.5997 L69.026,8.7407 L68.689,9.0097 L67.566,9.8997 L65.4,10.5877 L64.147,10.6897 L62.227,9.7527 L61.095,10.4727 L61.062,10.4827 L60.414,10.6907 L59.981,11.0097 L59.709,11.2057 L58.407,12.7737 L56.744,13.4887 L55.152,14.4657 L54.244,15.3167 L53.339,16.0897 L51.472,16.5307 L50.618,16.4487 L48.922,15.8567 L48.202,15.7297 L45.275,15.2057 L42.236,17.3227 L41.384,18.2527 L41.345,18.2727 L40.434,18.7487 L40.253,18.8427 L39.817,18.9377 L39.02,18.8697 L38.216,18.8007 L37.382,19.1067 L36.921,19.3667 L36.319,20.5357 L35.831,21.8287 L35.822,21.8547 L35.606,22.8737 L35.241,23.5507 L33.313,24.6097 L32.354,25.0987 L31.272,25.6387 L30.159,26.1527 L28.366,26.5037 L26.686,28.0657 L22.839,33.3117 L21.957,33.9187 L21.899,33.9587 L20.57,34.2487 L20.091,34.6377 L19.958,35.0267 L19.78,35.5437 L19.844,36.2057 L20.266,37.4387 L20.702,38.7057 L20.63,39.1577 L20.519,39.4127 L18.951,43.0167 L18.563,43.5247 L17.556,44.2347 L17.554,44.2347 L15.797,43.8187 L14.839,43.5927 L13.868,43.5637 L13.198,43.6617 L13.11,43.6767 L12.959,43.7457 L11.948,44.2037 L10.631,45.0357 L9.25,45.6967 L9.337,46.0697 L9.68,49.4107 L9.766,52.7987 L9.739,53.1727 L9.185,55.6997 L8.647,59.8737 L7.795,62.5777 L7.683,63.6617 L8.086,67.9507 L8.481,68.7647 L8.4,72.7007 L8.828,74.7267 L8.835,77.1227 L8.849,77.2057 L9.19,79.3697 L9.719,80.7187 L10.027,82.5347 L10.096,83.7087 L10.168,84.8987 L11.466,85.8247 L12.162,87.0547 L12.718,87.9027 L12.763,87.9717 L13.634,89.2977 L13.865,90.4667 L13.914,90.7217 L14.237,92.3877 L14.402,93.3837 L14.491,93.9207 L15.96,98.5557 L16.368,100.5207 L16.341,100.5207 L16.682,101.8827 L17.057,102.6947 L17.834,104.0767 L18.379,105.0437 L18.69,106.7397 L18.533,107.4267 L18.737,108.0907 L18.703,108.7717 L18.651,109.2527 L18.839,109.6377 L19.107,110.0607 L19.478,110.1977 L20.22,110.4687 L20.351,111.2577 L20.223,111.7457 L20.695,112.2337 L20.903,112.9767 L21.237,114.3947 L21.457,115.9367 L21.939,117.2197 L21.442,118.8497 L21.61,119.5957 L21.319,120.6887 L21.362,121.9657 L21.294,122.1737 L21.037,122.9587 L20.724,123.9177 L20.112,124.3957 L19.987,124.9217 L18.921,127.5917 L17.223,130.8277 L17.366,130.9507 L17.808,130.8327 L18.571,130.3787 L19.405,129.8797 L19.937,129.7587 L20.557,129.2947 L20.812,128.4087 L21.27,128.1817 L21.431,128.1537 L21.736,128.1037 L22.268,128.3627 L22.749,129.2247 L22.246,129.4917 L22.228,129.5017 L21.912,129.4977 L21.8,129.8407 L22.145,130.6687 L22.064,131.1707 L21.97,131.7717 L23.622,132.7177 L23.733,133.0907 L23.949,133.2777 L24.662,133.2317 L23.897,133.9057 L24.208,134.5537 L24.132,135.1197 L24.692,136.1757 L24.444,136.8827 L26.155,136.3087 L25.753,136.6907 L25.778,137.0707 L25.149,137.0197 L24.463,137.5087 L24.31,137.5607 L24.053,138.1137 L23.922,138.0457 L23.589,137.8757 L23.243,138.0747 L23.375,138.3557 L22.915,138.5197 L22.912,138.6307 L22.904,139.0557 L22.992,139.7437 L23.342,140.3447 L23.242,140.8867 L22.42,142.0337 L22.549,142.1317 L22.903,142.4057 L23.026,142.5007 L23.095,142.5517 L23.204,142.4427 L24.599,141.0577 L24.848,140.8097 L25,140.6677 L25.132,140.5437 L26.336,139.4087 L28.342,137.9457 L28.791,137.8127 L28.824,137.8017 L29.755,137.5217 L30.476,137.3047 L30.621,137.2637 L30.66,137.2517 L32.213,138.8117 L32.555,139.4627 L33.232,140.7547 L33.35,140.9787 L33.734,141.7127 L34.502,144.2837 L35.655,145.9847 L36.497,146.4747 L36.503,146.4797 L37.01,146.7727 L38.313,148.5827 L38.749,148.7887 L39.629,149.2057 L39.841,149.0227 L40.568,148.3897 L40.879,148.2787 L41.267,148.1417 L41.466,148.0707 L41.936,147.9017 L42.346,147.9567 L43.255,148.0847 L44.195,148.7257 L45.157,149.2537 L46.764,149.3607 L48.517,150.0157 L49.446,151.0067 L49.88,151.3047 L50.576,151.7807 L51.172,152.1857 L52.806,153.8357 L53.552,155.1887 L53.681,155.3017 L54.161,155.7277 L54.639,156.1537 L54.942,156.4237 L57.318,157.3767 L58.422,157.3707 L59.862,157.3587 L60.746,158.5187 L61.78,159.8757 L63.736,160.4587 L64.622,160.9877 L65.624,161.5897 L65.765,161.6347 L65.918,161.6847 L66.981,162.0357 L67.511,162.2087 L67.726,162.2807 L68.664,162.5887 L69.892,162.4977 L72.094,161.2167 L72.711,161.2777 L74.226,161.4227 L74.764,162.2357 L74.399,164.2357 L74.254,165.7237 L75.126,167.2877 L76.066,167.9667 L76.538,168.3047 L76.629,168.3717 L76.689,168.4137 L79.205,168.4817 L79.994,168.2167 L80.753,167.1207 L81.456,165.5497 L82.859,165.0697 L84.688,164.9047 L85.219,164.6757 L87.274,164.0937 L87.567,164.0107 L88.362,163.8957 L90.396,163.6057 L90.505,163.5887 L90.615,163.5897 L91.321,163.5957 L92.241,163.6057 L94.445,163.8877 L95.313,163.9997 L95.32,164.0007 L97.25,164.5197 L97.684,164.6277 L98.019,164.7097 L98.523,164.8337 L99.838,164.8237 L100.19,164.8217 L101.981,165.4897 L102.301,165.6107 L103.538,165.8557 L105.213,165.3347 L107.199,164.1857 L108.89,163.2557 L110.302,162.8697 L110.315,162.8637 L110.67,162.7657 L110.858,162.8897 L111.079,163.0367 L111.396,163.2467 L113.21,169.1117 L113.605,169.5737 L114.488,170.6107 L114.914,171.4997 L115.305,172.3107 L115.824,173.3887 L116.487,174.7107 L117.199,174.3487 L117.21,174.3417 L117.216,172.9207 L117.694,172.6957 L118.006,172.5477 L118.423,173.2117 L118.586,173.4707 L118.685,174.2107 L118.891,174.1717 L119.152,174.1237 L119.643,174.1527 L119.826,174.1627 L121.227,175.4527 L121.324,176.0507 L121.412,176.5937 L121.514,176.7827 L121.612,176.9577 L121.799,177.2937 L121.852,177.3847 L122.046,177.7077 L122.212,177.9797 L123.638,178.3237 L123.699,178.5257 L123.737,178.6537 L123.796,178.8547 L123.207,179.5027 L123.092,179.6297 L123.099,179.7887 L123.109,180.0277 L123.124,180.3707 L123.29,180.6257 L123.34,180.7027 L124.425,179.9827 L124.647,179.8347 L124.763,180.0117 L125.078,180.4937 L125.352,181.3567 L125.503,181.8327 L125.543,181.9597 L126.295,182.2667 L126.328,182.2487 L127.213,181.7527 L127.549,181.9877 L128.757,182.8337 L128.944,182.9637 L129.559,183.2097 L129.628,183.5757 L129.727,184.0757 L129.728,184.0847 L129.955,184.6777 L129.874,185.2677 L129.852,185.4287 L129.79,185.4977 L129.528,185.7797 L129.45,186.0737 L129.18,187.0827 L129.401,187.1467 L129.573,187.1957 L129.995,187.3177 L130.784,188.5667 L130.77,188.6527 L130.625,189.5877 L130.643,190.0037 L130.659,190.3967 L131.626,191.0347 L131.653,191.7087 L131.661,191.8427 L131.608,192.3397 L131.564,192.7947 L132.125,193.4457 L131.978,193.6727 L131.791,193.9547 L131.62,194.2127 L131.349,194.4447 L131.038,194.7097 L131.318,195.3347 L131.333,195.3747 L131.684,195.7627 L131.725,196.0647 L131.783,196.5027 L131.376,196.5187 L131.251,196.5257 L130.588,196.5527 L130.58,196.5527 L129.983,196.7117 L129.717,196.9487 L129.34,197.2827 L129.345,197.4227 L129.371,198.0897 L128.868,198.8567 L128.787,198.8757 L128.043,199.0737 L127.94,199.0977 L127.295,199.6677 L126.974,200.0467 L126.595,200.4987 L124.584,200.4987 L124.584,200.5027 L124.355,200.5407 L123.929,201.5757 L123.611,201.9247 L122.998,202.2317 L122.431,202.5167 L122.052,203.1277 L121.871,203.4217 L121.756,203.6067 L121.742,203.6287 L121.32,205.1187 L121.278,205.2737 L121.218,205.6057 L121.097,206.3007 L121.06,206.5007 L121.057,206.5407 L121.017,207.0447 L121.203,207.2697 L121.229,207.3037 L121.975,207.5427 L122.086,207.9557 L122.039,207.9767 L122.022,207.9917 L121.999,208.0107 L121.968,208.0527 L121.944,208.0987 L121.933,208.2037 L121.968,208.3017 L121.999,208.3437 L122.04,208.3767 L122.085,208.3987 L122.135,208.4117 L122.188,208.4157 L122.239,208.4007 L122.305,208.4087 L121.961,209.0847 L121.696,209.6067 L121.599,210.0147 L122.51,211.3047 L122.678,211.9997 L122.718,212.1637 L122.652,212.6107 L122.629,212.7647 L122.599,212.9707 L122.539,213.3797 L122.477,213.5307 L122.4,213.7177 L122.177,214.2637 L121.984,214.3967 L121.182,214.9427 L121.073,215.1167 L120.664,215.7637 L120.434,216.1307 L120.358,216.9957 L120.358,217.0017 L120.232,217.0677 L119.967,217.2067 L118.91,217.7577 L118.492,218.6407 L118.132,219.5247 L118.467,219.8987 L119.029,220.5237 L119.035,220.5367 L119.084,220.6477 L119.494,221.5717 L119.534,221.6587 L119.474,222.9317 L119.351,223.2257 L118.39,225.5217 L118.491,227.8857 L118.647,229.5077 L118.7,230.0697 L119.212,234.0347 L119.451,234.6167 L121.041,235.9767 L121.86,237.6697 L123.127,241.8377 L123.456,243.2427 L123.797,244.7027 L124.423,245.0107 L125.372,245.4787 L125.461,245.3757 L126.12,244.6087 L126.472,244.2157 L126.846,243.7997 L126.983,243.6487 L127.112,243.1317 L129.024,241.4737 L132.557,241.2617 L132.856,241.6807 L133.089,242.0077 L133.548,242.1947 L133.922,242.0757 L134.289,241.9597 L134.809,242.3477 L135.384,242.9377 L135.796,243.2257 L135.811,243.2317 L136.306,243.4137 L136.81,243.1037 L136.846,243.0817 L137.38,242.6497 L138.141,242.8277 L138.42,243.0107 L139.013,243.4007 L139.015,243.4047 L139.016,243.4067 L139.46,244.5137 L139.248,245.5447 L139.389,246.5637 L140.023,247.3557 L141.284,247.6107 L141.826,247.7287 L142.699,247.9157 L143.371,248.4517 L143.362,248.4927 L143.199,249.2227 L142.948,250.5127 L142.595,251.3107 L142.488,251.5537 L142.608,252.0607 L143.941,252.9287 L144.973,253.7567 L146.028,253.8197 L147.174,253.2977 L147.259,253.2587 L148.632,252.4897 L148.961,252.3447 L149.272,252.2107 L150.034,252.4897 L150.528,253.6437 L151.2,254.4657 L151.261,254.5397 L152.025,254.9187 L152.624,254.8977 L153.435,255.4707 L153.652,255.6267 L154.454,257.0817 L154.746,257.5757 L155.302,258.5197 L155.517,258.8847 L156.593,259.6647 L159.269,260.3847 L161.385,260.8687 L163.315,261.7217 L164.036,262.3607 L165.028,263.2407 L165.426,263.5917 L166.275,265.0987 L166.354,265.2767 L166.711,266.0877 L166.956,266.6447 L167.506,267.4247 L167.733,267.7437 L167.92,268.0067 L168.92,269.1207 L169.214,269.4477 L170.826,270.1157 L170.871,270.1337 L170.959,270.1727 L171.034,270.2027 L171.601,270.5637 L172.255,270.9787 L172.903,272.5427 L173.255,274.1697 L173.827,278.0907 L173.856,278.6677 L174.002,281.7787 L174.058,282.9617 L174.128,284.4267 L173.881,286.0747 L173.753,286.2617 L173.245,286.9997 L172.694,287.8037 L172.586,288.7587 L172.444,290.0237 L172.421,290.2167 L172.55,290.5507 L173.35,292.6237 L173.422,292.8107 L173.768,293.0427 L176.733,295.0307 L177.953,295.6557 L178.272,295.8197 L179.821,296.9707 L179.96,297.2357 L180.685,298.6217 L181.138,298.6427 L181.297,298.6497 L182.2,298.6917 L184.264,297.6677 L185.457,296.7927 L185.629,296.6657 L189.357,296.7907 L190.897,297.7027 L192.358,300.0587 L193.583,300.4787 L193.648,300.5007 L194.799,299.9887 L195.001,298.8997 L194.782,298.5817 L194.349,297.9537 L194.274,297.8437 L193.396,296.8817 L193.315,296.7927 L193.424,296.7047 L193.771,296.4197 L194.69,296.0317 L195.596,295.0437 L196.173,294.2337 L196.216,294.1757 L196.313,294.0397 L196.381,293.9447 L196.639,294.0287 L196.733,294.0557 L197.596,294.3707 L197.991,294.5157 L198.261,294.6147 L199.891,294.7517 L200.361,294.7917 L200.872,294.4177 L201.389,294.0417 L201.242,292.8467 L202.407,292.8147 L204.191,294.3277 L205.394,295.1667 L206.563,295.9767 L206.74,295.9547 L208.874,295.6487 L210.909,295.0107 L210.973,294.9977 L211.532,294.8907 L213.205,294.5837 L214.503,294.2607 L215.314,294.0577 L215.931,293.4227 L217.21,293.3897 L219.338,294.7787 L220.782,296.8067 L221.02,297.1377 L223.374,298.4067 L227.398,299.3447 L228.049,299.5007 L232.711,299.9967 L235.957,299.5737 L237.967,297.8927 L238.02,297.8507 L238.298,297.5337 L240.413,295.1267 L241.648,293.7227 L241.668,293.7017 L244.654,291.3637 L249.376,288.1587 L252.541,286.8577 L252.733,286.7807 L252.976,286.7937 L253.823,286.8437 L254.337,286.8707 L254.367,286.8747 L254.532,287.1327 L254.651,287.2137 L255.023,288.5167 L254.066,289.5897 L253.857,290.9827 L253.577,292.0987 L254.694,292.1687 C255.322,292.1687 256.579,292.0307 256.579,292.0307 L256.928,291.1247 L258.254,289.9377 L257.905,289.2417 L258.254,288.6147 L258.881,289.3107 C258.881,289.3107 259.998,288.3357 260.487,288.6147 C260.976,288.8927 261.814,288.8937 261.814,288.8937 C261.814,288.8937 262.023,287.5697 262.162,287.3597 C262.301,287.1507 263.419,286.4547 263.419,286.4547 L263.456,285.9417 L263.49,285.4767 C263.49,285.4767 264.816,285.1987 265.096,285.2677 C265.375,285.3377 265.443,284.7107 265.443,284.5007 C265.443,284.2927 265.164,284.2217 264.885,284.2217 C264.606,284.2217 263.979,284.4307 263.699,284.1517 C263.582,284.0367 263.391,283.8807 263.209,283.7437 C263.206,283.7407 263.206,283.7407 263.204,283.7407 C262.954,283.5467 262.72,283.3857 262.72,283.3857 C262.72,283.3857 262.581,281.0847 262.302,280.5977 C262.165,280.3567 261.658,279.5817 261.144,278.8197 C261.136,278.8057 261.127,278.7927 261.118,278.7807 C261.111,278.7677 261.104,278.7577 261.095,278.7477 C261.038,278.6617 260.981,278.5777 260.923,278.4937 C260.91,278.4747 260.899,278.4587 260.887,278.4407 C260.835,278.3647 260.782,278.2887 260.732,278.2147 C260.716,278.1947 260.702,278.1727 260.688,278.1507 C260.64,278.0827 260.593,278.0147 260.548,277.9497 C260.533,277.9287 260.522,277.9117 260.506,277.8907 C260.464,277.8307 260.42,277.7677 260.38,277.7107 C260.357,277.6777 260.336,277.6497 260.314,277.6197 C260.284,277.5787 260.255,277.5357 260.229,277.4987 C260.203,277.4647 260.183,277.4377 260.16,277.4087 C260.139,277.3787 260.116,277.3477 260.098,277.3237 C260.071,277.2887 260.052,277.2627 260.03,277.2357 C260.019,277.2217 260.005,277.2027 259.996,277.1907 C259.967,277.1567 259.943,277.1267 259.925,277.1097 C259.647,276.8317 259.296,276.2047 259.296,275.9947 C259.296,275.7857 259.366,274.8787 259.366,274.8787 L259.786,274.8097 C259.786,274.8097 260.065,275.0887 260.414,275.0187 C260.763,274.9507 263.207,273.1357 263.207,273.1357 L262.16,271.6037 C262.16,271.6037 264.604,271.1167 265.092,271.2547 C265.581,271.3947 266.977,270.8357 267.256,270.6987 C267.536,270.5577 269.908,269.5827 269.908,269.5827 L271.374,269.1637 L272.249,269.6847 L273.268,270.6277 L273.784,271.1067 L274.314,271.5367 L274.96,272.0627 L275.21,272.2637 L275.672,272.6417 L276.05,272.6987 L277.899,272.9747 L279.411,272.2357 L280.313,271.3287 L282.305,269.3247 L284.969,266.6607 L285.516,265.8017 L287.005,263.4647 L288.893,260.5017 L290.047,258.4537 L290.511,257.7287 L291.759,257.3687 L292.936,256.6867 L293.016,256.6747 L293.72,256.5467 L294.378,256.6087 L295.494,256.8677 L296.61,256.8597 L298.331,256.5587 L299.427,256.3687 L299.539,256.3197 L301.119,255.6017 L301.39,255.4817 L302.209,254.8397 L302.257,254.7997 L303.286,253.9927 L304.53,253.4487 L305.382,253.3757 L306.433,253.4377 L307.417,253.3657 L307.742,252.6907 L308.195,251.5467 L308.916,251.3407 L309.378,251.6747 L309.448,252.7497 L309.85,254.0877 L310.971,255.2927 L311.697,256.1607 L313.743,259.4407 L313.813,260.4447 L313.488,261.0497 L313.031,261.6557 L313.231,262.1917 L313.302,263.3997 L313.109,264.6737 L312.573,265.0697 L311.738,265.6897 L309.974,266.3677 L309.761,266.8057 L309.522,267.3097 L309.786,268.1807 L309.887,268.3867 L309.936,268.4817 L310.777,270.1907 L311.397,270.2567 L312.61,270.3847 L314.772,271.1127 L315.819,271.0427 L317.063,271.3037 L317.585,271.6377 L318.373,272.3757 L319.026,272.3057 L320.007,271.7657 L321.247,270.9577 L322.436,269.9227 L322.486,269.8797 L324.315,268.8027 L325.559,268.5317 L325.624,268.5577 L326.868,269.0697 L327.718,269.0007 L327.847,268.0597 L327.585,266.7847 L327.78,265.6447 L327.912,264.7717 L327.057,262.8967 L326.662,261.9567 L327.186,261.2857 L328.561,260.9487 L328.823,260.4087 L328.691,259.7417 L327.774,259.3377 L326.526,258.9387 L326.001,257.9997 L325.74,256.9937 L324.623,256.3877 L323.547,256.0457 L323.377,255.9917 L322.774,254.7527 L322.34,253.4297 L322.172,252.9257 L321.844,251.9267 L320.92,251.0927 L320.196,251.0567 L318.87,250.9927 L317.028,251.6257 L314.363,251.6367 L313.131,250.9107 L313.125,250.9077 L312.207,250.3887 L311.897,249.6607 L311.895,249.1747 L311.89,247.9837 L312.6,246.4087 L313.089,245.9407 L314.132,244.9377 L315.047,242.8387 L315.145,241.3737 L315.346,240.3257 L316.783,240.0067 L317.191,239.1697 L317.231,238.4307 L317.29,237.3867 L316.832,236.8797 L316.257,236.2387 L316.254,235.7007 L316.251,235.4037 L316.414,234.3027 L316.453,234.0417 L317.679,232.2557 L319.42,228.7957 L320.545,226.0737 L320.718,225.7857 L321.508,224.4787 L321.797,223.6977 L321.975,222.9177 L322.236,222.2437 L322.684,221.5697 L322.922,221.2707 L323.264,220.9727 L323.74,220.6197 L324.373,220.2137 L324.665,220.0497 L325.141,219.9397 L325.505,219.8277 L325.639,219.4017 L325.729,219.1207 L325.784,218.9467 L325.698,218.7327 L325.558,218.3927 L325.267,217.6897 L324.908,214.6317 L324.849,214.1337 L324.799,213.9757 L324.626,213.4227 L324.223,212.1467 L324.011,209.2157 L324.216,206.5967 L324.936,205.1297 L325.451,203.9817 L325.451,203.7397 L325.448,202.7237 L325.445,201.5017 L325.529,201.5017 L325.529,201.3417 L325.444,200.8597 L325.444,200.8387 L325.385,200.4987 L325.381,200.4987 L325.216,199.5627 L324.384,198.1017 L324.585,195.0687 L325.1,193.2907 L325.512,192.6117 L325.754,192.2127 L326.755,190.5667 L327.361,189.7247 L328.413,188.2627 L328.461,188.2087 L331.837,184.2877 L331.992,182.4917 L332.044,181.8797 L332.773,180.6257 L335.619,178.8787 L337.998,178.1627 L339.665,177.4487 L340.619,176.3727 L341.452,176.4957 L341.87,176.7807 L342.571,177.7617 L344.098,178.8707 L345.07,179.1287 L346.298,178.8707 L347.156,177.8277 L348.199,176.5897 L348.571,175.5477 L350.471,174.7667 L351.844,173.8897 L352.001,173.7907 L353.191,173.2697 L356.663,171.2347 L356.994,170.3667 L357.047,170.2197 L357.221,169.7677 L358.253,167.1147 L358.586,165.3007 L358.868,163.7687 L359.241,163.2887 L359.747,162.6367 L359.928,162.4007 L360.068,162.2207 L360.124,161.8917 L360.316,160.7907 L359.366,159.7067 L359.372,158.6277 L362.014,156.4897 L363.696,154.8237 L366.495,153.6627 L366.813,153.5307 L368.485,154.0177 L371.107,154.8757 L371.818,155.7197 L373.242,156.6877 L374.213,154.9027 L375.302,153.3567 L377.101,152.6537 L378.991,154.1257 L379.11,154.2197 L379.119,154.2277 L380.028,154.1677 L380.548,154.1347 L381.636,154.0627 L382.349,154.0167 L383.18,154.7447 L384.619,154.2827 L385.344,153.8697 L386.062,153.4597 L387.379,153.3507 L388.467,152.1677 L388.362,150.8507 L388.107,150.4777 L387.302,149.2867 L387.197,148.2067 L387.921,147.4987 L388.124,147.4867 L389.718,147.3977 L390.685,146.4527 L390.957,143.7047 L391.825,141.3227 L393.514,140.3867 L397.009,138.8777 L397.68,138.5897 L397.9,138.4947 L399.181,137.9487 L399.374,137.9517 L400.499,137.9677 L400.335,137.6467 Z" id="Fill-4" fill="#FFFFFF"></path>
                <path d="M400.335,137.6467 L399.91,136.7657 L399.728,136.6427 L399.556,136.5237 L399.196,136.2797 L399.095,136.0217 L399.042,135.8807 L398.926,135.5817 L398.772,135.1767 L398.732,135.0767 L398.342,135.0077 L397.824,134.9157 L397.296,134.8207 L397.064,134.4977 L396.35,133.4927 L395.919,133.6687 L395.506,133.8387 L395.198,133.4747 L394.795,132.9977 L394.193,132.9867 L392.158,132.7267 L390.83,133.1877 L390.115,132.8207 L389.667,132.7037 L389.158,132.5687 L387.604,131.8367 L386.535,130.8667 L386.166,131.5807 L385.471,131.6707 L385.327,131.6917 L385.266,131.7427 L385.014,131.9627 L384.347,132.5487 L384.158,132.7157 L384.114,132.7547 L383.523,132.0317 L382.95,132.4777 L382.311,132.9737 L381.923,133.2787 L381.707,133.4487 L381.517,133.2567 L381.232,132.9647 L380.996,132.6047 L380.273,132.7157 L379.791,132.9507 L378.956,132.4637 L378.12,131.8587 L377.398,131.9727 L376.828,131.9307 L375.598,131.8387 L375.164,131.7177 L375.014,131.5877 L374.934,131.5217 L374.575,131.2067 L374.427,131.0757 L374.187,130.7207 L374.218,130.3707 L374.244,130.3087 L374.384,129.9687 L374.632,129.5957 L374.88,129.2487 L375.509,128.6627 L376.662,127.4527 L376.961,127.1837 L378.533,126.1237 L379.38,125.5337 L379.273,124.0977 L379.089,118.2357 L378.974,116.6637 L378.921,115.9447 L378.803,114.3377 L378.767,113.8107 L377.587,111.1687 L377.512,111.1357 L376.506,110.6807 L376.513,109.8427 L377.967,109.1387 L378.09,109.1097 L380.387,108.5627 L381.471,107.3187 L381.731,107.0207 L382.064,105.7517 L382.109,105.5907 L383.327,104.4097 L383.457,104.1807 L384.066,103.1007 L383.943,101.9447 L383.862,101.2097 L383.848,101.0677 L383.854,100.5207 L383.747,100.5207 L383.769,98.1577 L383.911,96.1277 L384.092,94.3497 L384.179,93.4987 L384.045,93.1777 L383.372,91.5537 L383.065,92.0127 L381.214,91.9927 L380.167,91.9837 L379.74,92.0257 L379.48,92.0527 L377.991,92.2037 L377.151,91.6017 L374.028,89.7847 L372.96,88.9277 L372.828,88.8217 L370.174,88.2027 L368.602,88.4317 L367.435,88.1347 L367.153,88.0617 L367.038,87.2277 L366.442,85.9107 L365.006,83.6367 L362.551,83.1847 L362.35,83.1447 L362.314,83.1147 L361.452,82.4177 L361.317,82.3097 L360.421,81.5837 L359.766,80.4137 L358.901,78.8757 L358.742,78.5907 L358.266,77.1587 L357.701,74.9467 L357.538,74.3107 L357.077,72.5037 L355.512,70.1107 L352.971,68.6707 L350.485,66.6307 L348.738,65.1977 L345.11,59.9427 L344.909,59.6557 L342.929,56.8387 L340.5,55.6407 L339.938,55.2187 L338.481,54.1267 L338.434,54.0907 L338.356,54.0637 L336,53.2557 L335.941,53.2307 L335.366,52.9587 L334.345,52.4727 L334.32,52.4507 L333.492,51.6907 L332.998,51.1787 L332.751,50.4787 L332.696,49.9117 L332.173,49.0217 L331.211,48.6457 L330.555,48.6427 L330.302,48.3157 L329.508,46.9307 L329.412,46.8577 L328.153,46.3567 L327.079,46.0057 L325.59,45.5247 L323.992,44.8247 L322.695,43.9677 L321.289,43.1067 L320.626,42.3537 L320.211,41.4927 L320.128,40.8757 L320.125,40.2037 L320.206,39.1527 L320.206,38.6917 L320.247,38.3337 L320.32,37.7037 L320.335,36.7967 L320.249,35.7427 L319.814,35.6287 L319.186,35.9927 L318.343,36.6627 L317.471,37.0957 L316.187,36.9177 L314.371,36.8457 L312.366,36.6337 L312.051,36.1397 L311.545,34.1067 L311.019,33.5927 L309.956,33.5147 L309.344,33.6707 L308.913,33.9277 L308.906,34.5457 L308.708,35.3087 L308.128,35.7047 L307.904,35.7327 L307.007,35.8407 L306.111,35.7447 L305.248,34.9027 L304.377,34.6807 L303.215,35.1497 L302.665,35.7907 L301.584,34.5667 L300.978,34.4357 L299.05,34.8337 L297.33,34.8807 L296.432,35.4437 L295.784,35.9737 L294.858,35.6367 L294.121,34.8217 L292.82,33.2177 L291.7,33.0277 L291.195,32.3917 L290.434,31.6067 L290.271,31.4387 L289.509,31.4097 L288.043,32.1257 L287.095,32.6147 L285.757,32.7007 L284.098,32.2487 L281.921,31.4137 L280.915,31.2337 L280.714,31.1977 L280.233,29.9017 L280.191,29.7837 L279.85,29.4567 L279.8,29.2517 L279.421,27.7847 L279.417,27.7747 L279.011,26.6027 L278.995,26.3697 L278.966,25.9567 L278.917,25.2587 L278.888,24.6147 L278.826,22.9307 L278.496,22.3557 L277.935,21.6197 L277.525,21.0837 L277.368,21.0207 L276.811,20.8017 L276.786,20.7617 L276.166,19.7757 L275.739,19.0917 L275.359,18.4807 L274.891,18.2297 L274.677,18.1137 L274.532,18.0067 L274.154,17.7257 L273.877,17.5197 L272.369,16.6847 L271.856,15.3947 L271.903,13.5377 L271.85,11.2437 L270.644,9.2197 L268.579,5.8677 L267.852,3.9457 L267.911,2.8297 L268.215,1.6387 L268.004,1.0107 L266.789,0.5067 L265.624,0.9417 L265.231,1.4887 L265.358,2.4157 L265.651,3.3217 L265.672,4.1007 L265.046,4.7977 L264.305,5.2617 L262.818,5.2507 L261.94,4.4177 L261.504,4.6417 L261.181,5.3807 L260.236,5.9137 L258.852,5.8987 L258.668,5.8957 L257.898,5.8887 L256.08,6.2527 L255.167,6.7007 L254.69,8.1607 L254.229,8.5077 L252.869,9.0967 L251.51,9.3307 L250.758,9.4587 L249.859,10.3187 L249.473,11.1927 L249.457,11.6867 L248.077,13.6377 L246.722,14.8457 L245.795,16.0787 L245.711,16.9967 L246.081,18.4267 L245.688,18.9317 L244.585,19.8187 L242.316,20.5327 L240.368,21.1257 L239.847,21.4157 L238.33,22.2627 L237.475,22.7907 L236.319,22.7007 L235.723,22.0817 L234.029,20.5857 L232.653,20.4447 L230.938,19.1147 L230.689,18.9777 L229.426,18.2767 L228.913,17.9927 L227.115,18.1597 L225.834,18.9517 L225.114,19.3387 L223.359,20.2817 L220.436,22.2927 L218.755,22.7527 L218.32,22.8757 L217.356,22.9267 L215.809,22.4857 L215.584,22.3517 L215.014,22.0147 L214.186,21.5237 L213.43,20.7217 L212.96,20.4177 L211.953,20.4797 L211.214,20.3337 L210.891,18.4467 L209.195,15.8857 L208.436,15.0567 L207.725,14.2817 L206.727,14.2517 L205.551,14.2197 L204.878,14.1937 L203.288,14.1317 L202.04,14.0207 L200.703,13.3057 L197.32,13.6697 L195.529,13.0607 L195.311,12.9917 L194.638,12.7787 L193.689,12.9597 L193.061,13.2977 L191.992,14.8947 L191.452,14.9727 L191.117,14.7297 L190.739,13.9217 L191.009,12.6457 L191.554,11.4967 L191.834,10.5507 L191.676,10.0787 L190.323,9.7617 L190.047,9.6967 L188.461,9.6087 L188.418,9.6057 L186.833,9.7947 L186.393,9.8217 L184.616,9.9197 L184.556,9.9227 L184.07,10.0147 L182.861,10.2437 L179.228,12.4897 L177.162,13.7657 L175.448,13.9497 L173.063,13.1077 L171.255,12.2507 L168.672,11.0847 L168.58,10.9187 L167.956,9.7827 L164.003,8.2637 L161.509,8.1487 L159.7,8.2117 L158.002,8.9637 L157.337,9.0397 L156.144,9.1767 L153.521,9.7257 L151.078,10.2367 L151.426,12.3707 L149.935,14.3647 L149.505,14.7147 L148.777,15.3067 L148.33,15.6707 L146.586,17.0027 L145.915,16.8937 L144.652,15.3947 L141.986,15.1067 L141.341,14.2887 L140.256,9.9417 L140.348,6.9627 L139.572,5.8127 L138.641,5.4667 L137.626,5.0607 L136.563,4.3797 L135.617,4.3907 L135.593,4.4127 L134.796,5.1527 L134.657,5.9817 L134.579,6.4597 L134.229,7.8567 L133.552,8.5967 L131.387,9.1527 L128.631,9.6607 L126.266,9.8967 L123.856,9.8607 L121.614,9.1567 L121.471,9.1107 L121.174,9.3207 L120.34,9.9097 L120.215,10.0067 L118.95,11.0057 L118.092,11.2547 L117.286,10.6977 L117.196,10.6357 L114.857,10.1387 L114.531,8.8577 L114.511,8.7757 L114.44,8.7507 L112.861,8.1967 L112.77,8.1617 L112.594,8.0987 L111.185,7.1277 L109.675,7.0687 L109.408,7.0577 L109.028,7.0447 L107.438,6.9757 L105.515,6.3047 L103.958,5.4137 L103.883,5.3717 L103.839,5.3787 L102.897,5.5357 L102.762,5.5027 L102.749,5.4987 L101.013,5.0797 L98.998,5.1947 L96.836,5.8547 L96.642,5.9137 L96.243,6.1067 L95.604,6.4177 L94.957,6.7317 L94.586,5.8767 L93.303,4.8177 L93.097,4.8237 L92,4.8597 L91.389,4.8797 L91.197,4.8867 L89.738,5.4097 L89.345,5.5517 L89.298,5.5457 L88.508,5.4467 L88.373,5.4317 L87.454,4.9337 L87.08,4.7297 L86.479,4.3897 L86.067,4.1577 L85.537,3.8597 L83.666,3.6077 L81.578,2.9727 L79.614,3.0217 L78.007,3.4377 L75.408,4.0237 L71.865,4.2877 L71.865,5.5347 L71.472,5.9407 L71.162,7.0347 L71.117,7.1937 L70.506,8.1107 L70.006,8.5997 L69.026,8.7407 L68.689,9.0097 L67.566,9.8997 L65.4,10.5877 L64.147,10.6897 L62.227,9.7527 L61.095,10.4727 L61.062,10.4827 L60.414,10.6907 L59.981,11.0097 L59.709,11.2057 L58.407,12.7737 L56.744,13.4887 L55.152,14.4657 L54.244,15.3167 L53.339,16.0897 L51.472,16.5307 L50.618,16.4487 L48.922,15.8567 L48.202,15.7297 L45.275,15.2057 L42.236,17.3227 L41.384,18.2527 L41.345,18.2727 L40.434,18.7487 L40.253,18.8427 L39.817,18.9377 L39.02,18.8697 L38.216,18.8007 L37.382,19.1067 L36.921,19.3667 L36.319,20.5357 L35.831,21.8287 L35.822,21.8547 L35.606,22.8737 L35.241,23.5507 L33.313,24.6097 L32.354,25.0987 L31.272,25.6387 L30.159,26.1527 L28.366,26.5037 L26.686,28.0657 L22.839,33.3117 L21.957,33.9187 L21.899,33.9587 L20.57,34.2487 L20.091,34.6377 L19.958,35.0267 L19.78,35.5437 L19.844,36.2057 L20.266,37.4387 L20.702,38.7057 L20.63,39.1577 L20.519,39.4127 L18.951,43.0167 L18.563,43.5247 L17.556,44.2347 L17.554,44.2347 L15.797,43.8187 L14.839,43.5927 L13.868,43.5637 L13.198,43.6617 L13.11,43.6767 L12.959,43.7457 L11.948,44.2037 L10.631,45.0357 L9.25,45.6967 L9.337,46.0697 L9.68,49.4107 L9.766,52.7987 L9.739,53.1727 L9.185,55.6997 L8.647,59.8737 L7.795,62.5777 L7.683,63.6617 L8.086,67.9507 L8.481,68.7647 L8.4,72.7007 L8.828,74.7267 L8.835,77.1227 L8.849,77.2057 L9.19,79.3697 L9.719,80.7187 L10.027,82.5347 L10.096,83.7087 L10.168,84.8987 L11.466,85.8247 L12.162,87.0547 L12.718,87.9027 L12.763,87.9717 L13.634,89.2977 L13.865,90.4667 L13.914,90.7217 L14.237,92.3877 L14.402,93.3837 L14.491,93.9207 L15.96,98.5557 L16.368,100.5207 L16.341,100.5207 L16.682,101.8827 L17.057,102.6947 L17.834,104.0767 L18.379,105.0437 L18.69,106.7397 L18.533,107.4267 L18.737,108.0907 L18.703,108.7717 L18.651,109.2527 L18.839,109.6377 L19.107,110.0607 L19.478,110.1977 L20.22,110.4687 L20.351,111.2577 L20.223,111.7457 L20.695,112.2337 L20.903,112.9767 L21.237,114.3947 L21.457,115.9367 L21.939,117.2197 L21.442,118.8497 L21.61,119.5957 L21.319,120.6887 L21.362,121.9657 L21.294,122.1737 L21.037,122.9587 L20.724,123.9177 L20.112,124.3957 L19.987,124.9217 L18.921,127.5917 L17.223,130.8277 L17.366,130.9507 L17.808,130.8327 L18.571,130.3787 L19.405,129.8797 L19.937,129.7587 L20.557,129.2947 L20.812,128.4087 L21.27,128.1817 L21.431,128.1537 L21.736,128.1037 L22.268,128.3627 L22.749,129.2247 L22.246,129.4917 L22.228,129.5017 L21.912,129.4977 L21.8,129.8407 L22.145,130.6687 L22.064,131.1707 L21.97,131.7717 L23.622,132.7177 L23.733,133.0907 L23.949,133.2777 L24.662,133.2317 L23.897,133.9057 L24.208,134.5537 L24.132,135.1197 L24.692,136.1757 L24.444,136.8827 L26.155,136.3087 L25.753,136.6907 L25.778,137.0707 L25.149,137.0197 L24.463,137.5087 L24.31,137.5607 L24.053,138.1137 L23.922,138.0457 L23.589,137.8757 L23.243,138.0747 L23.375,138.3557 L22.915,138.5197 L22.912,138.6307 L22.904,139.0557 L22.992,139.7437 L23.342,140.3447 L23.242,140.8867 L22.42,142.0337 L22.549,142.1317 L22.903,142.4057 L23.026,142.5007 L23.095,142.5517 L23.204,142.4427 L24.599,141.0577 L24.848,140.8097 L25,140.6677 L25.132,140.5437 L26.336,139.4087 L28.342,137.9457 L28.791,137.8127 L28.824,137.8017 L29.755,137.5217 L30.476,137.3047 L30.621,137.2637 L30.66,137.2517 L32.213,138.8117 L32.555,139.4627 L33.232,140.7547 L33.35,140.9787 L33.734,141.7127 L34.502,144.2837 L35.655,145.9847 L36.497,146.4747 L36.503,146.4797 L37.01,146.7727 L38.313,148.5827 L38.749,148.7887 L39.629,149.2057 L39.841,149.0227 L40.568,148.3897 L40.879,148.2787 L41.267,148.1417 L41.466,148.0707 L41.936,147.9017 L42.346,147.9567 L43.255,148.0847 L44.195,148.7257 L45.157,149.2537 L46.764,149.3607 L48.517,150.0157 L49.446,151.0067 L49.88,151.3047 L50.576,151.7807 L51.172,152.1857 L52.806,153.8357 L53.552,155.1887 L53.681,155.3017 L54.161,155.7277 L54.639,156.1537 L54.942,156.4237 L57.318,157.3767 L58.422,157.3707 L59.862,157.3587 L60.746,158.5187 L61.78,159.8757 L63.736,160.4587 L64.622,160.9877 L65.624,161.5897 L65.765,161.6347 L65.918,161.6847 L66.981,162.0357 L67.511,162.2087 L67.726,162.2807 L68.664,162.5887 L69.892,162.4977 L72.094,161.2167 L72.711,161.2777 L74.226,161.4227 L74.764,162.2357 L74.399,164.2357 L74.254,165.7237 L75.126,167.2877 L76.066,167.9667 L76.538,168.3047 L76.629,168.3717 L76.689,168.4137 L79.205,168.4817 L79.994,168.2167 L80.753,167.1207 L81.456,165.5497 L82.859,165.0697 L84.688,164.9047 L85.219,164.6757 L87.274,164.0937 L87.567,164.0107 L88.362,163.8957 L90.396,163.6057 L90.505,163.5887 L90.615,163.5897 L91.321,163.5957 L92.241,163.6057 L94.445,163.8877 L95.313,163.9997 L95.32,164.0007 L97.25,164.5197 L97.684,164.6277 L98.019,164.7097 L98.523,164.8337 L99.838,164.8237 L100.19,164.8217 L101.981,165.4897 L102.301,165.6107 L103.538,165.8557 L105.213,165.3347 L107.199,164.1857 L108.89,163.2557 L110.302,162.8697 L110.315,162.8637 L110.67,162.7657 L110.858,162.8897 L111.079,163.0367 L111.396,163.2467 L113.21,169.1117 L113.605,169.5737 L114.488,170.6107 L114.914,171.4997 L115.305,172.3107 L115.824,173.3887 L116.487,174.7107 L117.199,174.3487 L117.21,174.3417 L117.216,172.9207 L117.694,172.6957 L118.006,172.5477 L118.423,173.2117 L118.586,173.4707 L118.685,174.2107 L118.891,174.1717 L119.152,174.1237 L119.643,174.1527 L119.826,174.1627 L121.227,175.4527 L121.324,176.0507 L121.412,176.5937 L121.514,176.7827 L121.612,176.9577 L121.799,177.2937 L121.852,177.3847 L122.046,177.7077 L122.212,177.9797 L123.638,178.3237 L123.699,178.5257 L123.737,178.6537 L123.796,178.8547 L123.207,179.5027 L123.092,179.6297 L123.099,179.7887 L123.109,180.0277 L123.124,180.3707 L123.29,180.6257 L123.34,180.7027 L124.425,179.9827 L124.647,179.8347 L124.763,180.0117 L125.078,180.4937 L125.352,181.3567 L125.503,181.8327 L125.543,181.9597 L126.295,182.2667 L126.328,182.2487 L127.213,181.7527 L127.549,181.9877 L128.757,182.8337 L128.944,182.9637 L129.559,183.2097 L129.628,183.5757 L129.727,184.0757 L129.728,184.0847 L129.955,184.6777 L129.874,185.2677 L129.852,185.4287 L129.79,185.4977 L129.528,185.7797 L129.45,186.0737 L129.18,187.0827 L129.401,187.1467 L129.573,187.1957 L129.995,187.3177 L130.784,188.5667 L130.77,188.6527 L130.625,189.5877 L130.643,190.0037 L130.659,190.3967 L131.626,191.0347 L131.653,191.7087 L131.661,191.8427 L131.608,192.3397 L131.564,192.7947 L132.125,193.4457 L131.978,193.6727 L131.791,193.9547 L131.62,194.2127 L131.349,194.4447 L131.038,194.7097 L131.318,195.3347 L131.333,195.3747 L131.684,195.7627 L131.725,196.0647 L131.783,196.5027 L131.376,196.5187 L131.251,196.5257 L130.588,196.5527 L130.58,196.5527 L129.983,196.7117 L129.717,196.9487 L129.34,197.2827 L129.345,197.4227 L129.371,198.0897 L128.868,198.8567 L128.787,198.8757 L128.043,199.0737 L127.94,199.0977 L127.295,199.6677 L126.974,200.0467 L126.595,200.4987 L124.584,200.4987 L124.584,200.5027 L124.355,200.5407 L123.929,201.5757 L123.611,201.9247 L122.998,202.2317 L122.431,202.5167 L122.052,203.1277 L121.871,203.4217 L121.756,203.6067 L121.742,203.6287 L121.32,205.1187 L121.278,205.2737 L121.218,205.6057 L121.097,206.3007 L121.06,206.5007 L121.057,206.5407 L121.017,207.0447 L121.203,207.2697 L121.229,207.3037 L121.975,207.5427 L122.086,207.9557 L122.039,207.9767 L122.022,207.9917 L121.999,208.0107 L121.968,208.0527 L121.944,208.0987 L121.933,208.2037 L121.968,208.3017 L121.999,208.3437 L122.04,208.3767 L122.085,208.3987 L122.135,208.4117 L122.188,208.4157 L122.239,208.4007 L122.305,208.4087 L121.961,209.0847 L121.696,209.6067 L121.599,210.0147 L122.51,211.3047 L122.678,211.9997 L122.718,212.1637 L122.652,212.6107 L122.629,212.7647 L122.599,212.9707 L122.539,213.3797 L122.477,213.5307 L122.4,213.7177 L122.177,214.2637 L121.984,214.3967 L121.182,214.9427 L121.073,215.1167 L120.664,215.7637 L120.434,216.1307 L120.358,216.9957 L120.358,217.0017 L120.232,217.0677 L119.967,217.2067 L118.91,217.7577 L118.492,218.6407 L118.132,219.5247 L118.467,219.8987 L119.029,220.5237 L119.035,220.5367 L119.084,220.6477 L119.494,221.5717 L119.534,221.6587 L119.474,222.9317 L119.351,223.2257 L118.39,225.5217 L118.491,227.8857 L118.647,229.5077 L118.7,230.0697 L119.212,234.0347 L119.451,234.6167 L121.041,235.9767 L121.86,237.6697 L123.127,241.8377 L123.456,243.2427 L123.797,244.7027 L124.423,245.0107 L125.372,245.4787 L125.461,245.3757 L126.12,244.6087 L126.472,244.2157 L126.846,243.7997 L126.983,243.6487 L127.112,243.1317 L129.024,241.4737 L132.557,241.2617 L132.856,241.6807 L133.089,242.0077 L133.548,242.1947 L133.922,242.0757 L134.289,241.9597 L134.809,242.3477 L135.384,242.9377 L135.796,243.2257 L135.811,243.2317 L136.306,243.4137 L136.81,243.1037 L136.846,243.0817 L137.38,242.6497 L138.141,242.8277 L138.42,243.0107 L139.013,243.4007 L139.015,243.4047 L139.016,243.4067 L139.46,244.5137 L139.248,245.5447 L139.389,246.5637 L140.023,247.3557 L141.284,247.6107 L141.826,247.7287 L142.699,247.9157 L143.371,248.4517 L143.362,248.4927 L143.199,249.2227 L142.948,250.5127 L142.595,251.3107 L142.488,251.5537 L142.608,252.0607 L143.941,252.9287 L144.973,253.7567 L146.028,253.8197 L147.174,253.2977 L147.259,253.2587 L148.632,252.4897 L148.961,252.3447 L149.272,252.2107 L150.034,252.4897 L150.528,253.6437 L151.2,254.4657 L151.261,254.5397 L152.025,254.9187 L152.624,254.8977 L153.435,255.4707 L153.652,255.6267 L154.454,257.0817 L154.746,257.5757 L155.302,258.5197 L155.517,258.8847 L156.593,259.6647 L159.269,260.3847 L161.385,260.8687 L163.315,261.7217 L164.036,262.3607 L165.028,263.2407 L165.426,263.5917 L166.275,265.0987 L166.354,265.2767 L166.711,266.0877 L166.956,266.6447 L167.506,267.4247 L167.733,267.7437 L167.92,268.0067 L168.92,269.1207 L169.214,269.4477 L170.826,270.1157 L170.871,270.1337 L170.959,270.1727 L171.034,270.2027 L171.601,270.5637 L172.255,270.9787 L172.903,272.5427 L173.255,274.1697 L173.827,278.0907 L173.856,278.6677 L174.002,281.7787 L174.058,282.9617 L174.128,284.4267 L173.881,286.0747 L173.753,286.2617 L173.245,286.9997 L172.694,287.8037 L172.586,288.7587 L172.444,290.0237 L172.421,290.2167 L172.55,290.5507 L173.35,292.6237 L173.422,292.8107 L173.768,293.0427 L176.733,295.0307 L177.953,295.6557 L178.272,295.8197 L179.821,296.9707 L179.96,297.2357 L180.685,298.6217 L181.138,298.6427 L181.297,298.6497 L182.2,298.6917 L184.264,297.6677 L185.457,296.7927 L185.629,296.6657 L189.357,296.7907 L190.897,297.7027 L192.358,300.0587 L193.583,300.4787 L193.648,300.5007 L194.799,299.9887 L195.001,298.8997 L194.782,298.5817 L194.349,297.9537 L194.274,297.8437 L193.396,296.8817 L193.315,296.7927 L193.424,296.7047 L193.771,296.4197 L194.69,296.0317 L195.596,295.0437 L196.173,294.2337 L196.216,294.1757 L196.313,294.0397 L196.381,293.9447 L196.639,294.0287 L196.733,294.0557 L197.596,294.3707 L197.991,294.5157 L198.261,294.6147 L199.891,294.7517 L200.361,294.7917 L200.872,294.4177 L201.389,294.0417 L201.242,292.8467 L202.407,292.8147 L204.191,294.3277 L205.394,295.1667 L206.563,295.9767 L206.74,295.9547 L208.874,295.6487 L210.909,295.0107 L210.973,294.9977 L211.532,294.8907 L213.205,294.5837 L214.503,294.2607 L215.314,294.0577 L215.931,293.4227 L217.21,293.3897 L219.338,294.7787 L220.782,296.8067 L221.02,297.1377 L223.374,298.4067 L227.398,299.3447 L228.049,299.5007 L232.711,299.9967 L235.957,299.5737 L237.967,297.8927 L238.02,297.8507 L238.298,297.5337 L240.413,295.1267 L241.648,293.7227 L241.668,293.7017 L244.654,291.3637 L249.376,288.1587 L252.541,286.8577 L252.733,286.7807 L252.976,286.7937 L253.823,286.8437 L254.337,286.8707 L254.367,286.8747 L254.532,287.1327 L254.651,287.2137 L255.023,288.5167 L254.066,289.5897 L253.857,290.9827 L253.577,292.0987 L254.694,292.1687 C255.322,292.1687 256.579,292.0307 256.579,292.0307 L256.928,291.1247 L258.254,289.9377 L257.905,289.2417 L258.254,288.6147 L258.881,289.3107 C258.881,289.3107 259.998,288.3357 260.487,288.6147 C260.976,288.8927 261.814,288.8937 261.814,288.8937 C261.814,288.8937 262.023,287.5697 262.162,287.3597 C262.301,287.1507 263.419,286.4547 263.419,286.4547 L263.456,285.9417 L263.49,285.4767 C263.49,285.4767 264.816,285.1987 265.096,285.2677 C265.375,285.3377 265.443,284.7107 265.443,284.5007 C265.443,284.2927 265.164,284.2217 264.885,284.2217 C264.606,284.2217 263.979,284.4307 263.699,284.1517 C263.582,284.0367 263.391,283.8807 263.209,283.7437 C263.206,283.7407 263.206,283.7407 263.204,283.7407 C262.954,283.5467 262.72,283.3857 262.72,283.3857 C262.72,283.3857 262.581,281.0847 262.302,280.5977 C262.165,280.3567 261.658,279.5817 261.144,278.8197 C261.136,278.8057 261.127,278.7927 261.118,278.7807 C261.111,278.7677 261.104,278.7577 261.095,278.7477 C261.038,278.6617 260.981,278.5777 260.923,278.4937 C260.91,278.4747 260.899,278.4587 260.887,278.4407 C260.835,278.3647 260.782,278.2887 260.732,278.2147 C260.716,278.1947 260.702,278.1727 260.688,278.1507 C260.64,278.0827 260.593,278.0147 260.548,277.9497 C260.533,277.9287 260.522,277.9117 260.506,277.8907 C260.464,277.8307 260.42,277.7677 260.38,277.7107 C260.357,277.6777 260.336,277.6497 260.314,277.6197 C260.284,277.5787 260.255,277.5357 260.229,277.4987 C260.203,277.4647 260.183,277.4377 260.16,277.4087 C260.139,277.3787 260.116,277.3477 260.098,277.3237 C260.071,277.2887 260.052,277.2627 260.03,277.2357 C260.019,277.2217 260.005,277.2027 259.996,277.1907 C259.967,277.1567 259.943,277.1267 259.925,277.1097 C259.647,276.8317 259.296,276.2047 259.296,275.9947 C259.296,275.7857 259.366,274.8787 259.366,274.8787 L259.786,274.8097 C259.786,274.8097 260.065,275.0887 260.414,275.0187 C260.763,274.9507 263.207,273.1357 263.207,273.1357 L262.16,271.6037 C262.16,271.6037 264.604,271.1167 265.092,271.2547 C265.581,271.3947 266.977,270.8357 267.256,270.6987 C267.536,270.5577 269.908,269.5827 269.908,269.5827 L271.374,269.1637 L272.249,269.6847 L273.268,270.6277 L273.784,271.1067 L274.314,271.5367 L274.96,272.0627 L275.21,272.2637 L275.672,272.6417 L276.05,272.6987 L277.899,272.9747 L279.411,272.2357 L280.313,271.3287 L282.305,269.3247 L284.969,266.6607 L285.516,265.8017 L287.005,263.4647 L288.893,260.5017 L290.047,258.4537 L290.511,257.7287 L291.759,257.3687 L292.936,256.6867 L293.016,256.6747 L293.72,256.5467 L294.378,256.6087 L295.494,256.8677 L296.61,256.8597 L298.331,256.5587 L299.427,256.3687 L299.539,256.3197 L301.119,255.6017 L301.39,255.4817 L302.209,254.8397 L302.257,254.7997 L303.286,253.9927 L304.53,253.4487 L305.382,253.3757 L306.433,253.4377 L307.417,253.3657 L307.742,252.6907 L308.195,251.5467 L308.916,251.3407 L309.378,251.6747 L309.448,252.7497 L309.85,254.0877 L310.971,255.2927 L311.697,256.1607 L313.743,259.4407 L313.813,260.4447 L313.488,261.0497 L313.031,261.6557 L313.231,262.1917 L313.302,263.3997 L313.109,264.6737 L312.573,265.0697 L311.738,265.6897 L309.974,266.3677 L309.761,266.8057 L309.522,267.3097 L309.786,268.1807 L309.887,268.3867 L309.936,268.4817 L310.777,270.1907 L311.397,270.2567 L312.61,270.3847 L314.772,271.1127 L315.819,271.0427 L317.063,271.3037 L317.585,271.6377 L318.373,272.3757 L319.026,272.3057 L320.007,271.7657 L321.247,270.9577 L322.436,269.9227 L322.486,269.8797 L324.315,268.8027 L325.559,268.5317 L325.624,268.5577 L326.868,269.0697 L327.718,269.0007 L327.847,268.0597 L327.585,266.7847 L327.78,265.6447 L327.912,264.7717 L327.057,262.8967 L326.662,261.9567 L327.186,261.2857 L328.561,260.9487 L328.823,260.4087 L328.691,259.7417 L327.774,259.3377 L326.526,258.9387 L326.001,257.9997 L325.74,256.9937 L324.623,256.3877 L323.547,256.0457 L323.377,255.9917 L322.774,254.7527 L322.34,253.4297 L322.172,252.9257 L321.844,251.9267 L320.92,251.0927 L320.196,251.0567 L318.87,250.9927 L317.028,251.6257 L314.363,251.6367 L313.131,250.9107 L313.125,250.9077 L312.207,250.3887 L311.897,249.6607 L311.895,249.1747 L311.89,247.9837 L312.6,246.4087 L313.089,245.9407 L314.132,244.9377 L315.047,242.8387 L315.145,241.3737 L315.346,240.3257 L316.783,240.0067 L317.191,239.1697 L317.231,238.4307 L317.29,237.3867 L316.832,236.8797 L316.257,236.2387 L316.254,235.7007 L316.251,235.4037 L316.414,234.3027 L316.453,234.0417 L317.679,232.2557 L319.42,228.7957 L320.545,226.0737 L320.718,225.7857 L321.508,224.4787 L321.797,223.6977 L321.975,222.9177 L322.236,222.2437 L322.684,221.5697 L322.922,221.2707 L323.264,220.9727 L323.74,220.6197 L324.373,220.2137 L324.665,220.0497 L325.141,219.9397 L325.505,219.8277 L325.639,219.4017 L325.729,219.1207 L325.784,218.9467 L325.698,218.7327 L325.558,218.3927 L325.267,217.6897 L324.908,214.6317 L324.849,214.1337 L324.799,213.9757 L324.626,213.4227 L324.223,212.1467 L324.011,209.2157 L324.216,206.5967 L324.936,205.1297 L325.451,203.9817 L325.451,203.7397 L325.448,202.7237 L325.445,201.5017 L325.529,201.5017 L325.529,201.3417 L325.444,200.8597 L325.444,200.8387 L325.385,200.4987 L325.381,200.4987 L325.216,199.5627 L324.384,198.1017 L324.585,195.0687 L325.1,193.2907 L325.512,192.6117 L325.754,192.2127 L326.755,190.5667 L327.361,189.7247 L328.413,188.2627 L328.461,188.2087 L331.837,184.2877 L331.992,182.4917 L332.044,181.8797 L332.773,180.6257 L335.619,178.8787 L337.998,178.1627 L339.665,177.4487 L340.619,176.3727 L341.452,176.4957 L341.87,176.7807 L342.571,177.7617 L344.098,178.8707 L345.07,179.1287 L346.298,178.8707 L347.156,177.8277 L348.199,176.5897 L348.571,175.5477 L350.471,174.7667 L351.844,173.8897 L352.001,173.7907 L353.191,173.2697 L356.663,171.2347 L356.994,170.3667 L357.047,170.2197 L357.221,169.7677 L358.253,167.1147 L358.586,165.3007 L358.868,163.7687 L359.241,163.2887 L359.747,162.6367 L359.928,162.4007 L360.068,162.2207 L360.124,161.8917 L360.316,160.7907 L359.366,159.7067 L359.372,158.6277 L362.014,156.4897 L363.696,154.8237 L366.495,153.6627 L366.813,153.5307 L368.485,154.0177 L371.107,154.8757 L371.818,155.7197 L373.242,156.6877 L374.213,154.9027 L375.302,153.3567 L377.101,152.6537 L378.991,154.1257 L379.11,154.2197 L379.119,154.2277 L380.028,154.1677 L380.548,154.1347 L381.636,154.0627 L382.349,154.0167 L383.18,154.7447 L384.619,154.2827 L385.344,153.8697 L386.062,153.4597 L387.379,153.3507 L388.467,152.1677 L388.362,150.8507 L388.107,150.4777 L387.302,149.2867 L387.197,148.2067 L387.921,147.4987 L388.124,147.4867 L389.718,147.3977 L390.685,146.4527 L390.957,143.7047 L391.825,141.3227 L393.514,140.3867 L397.009,138.8777 L397.68,138.5897 L397.9,138.4947 L399.181,137.9487 L399.374,137.9517 L400.499,137.9677 L400.335,137.6467 Z" id="Stroke-6" stroke="#E75F52" stroke-linecap="round" stroke-linejoin="round"></path>
            </g>
        </g>
    </g>
</svg>