<?xml version="1.0" encoding="UTF-8"?>
<svg width="318px" height="302px" viewBox="0 0 318 302" version="1.1" xmlns="http://www.w3.org/2000/svg" xmlns:xlink="http://www.w3.org/1999/xlink">
    <!-- Generator: Sketch 64 (93537) - https://sketch.com -->
    <title>254</title>
    <desc>Created with Sketch.</desc>
    <defs>
        <polygon id="path-1" points="1 0.5 1.5 0.5 1.5 1 1 1"></polygon>
    </defs>
    <g id="254" stroke="none" stroke-width="1" fill="none" fill-rule="evenodd">
        <g id="Group-49">
            <polygon id="Fill-1" fill="#FFFFFF" points="217.8478 216.1582 218.0888 215.8372 218.1848 215.2112 217.7908 214.2962 217.4708 214.1392 217.0158 214.3702 217.3528 216.1502 217.5228 216.3042 217.5228 216.3052"></polygon>
            <polygon id="Stroke-2" stroke="#E75F52" stroke-linecap="round" stroke-linejoin="round" points="217.8478 216.1582 218.0888 215.8372 218.1848 215.2112 217.7908 214.2962 217.4708 214.1392 217.0158 214.3702 217.3528 216.1502 217.5228 216.3042 217.5228 216.3052"></polygon>
            <polygon id="Fill-3" fill="#FFFFFF" points="192.0861 235.379 192.0861 235.38 192.0811 235.813 191.8381 236.241 192.0041 236.568 192.4511 236.77 192.4521 236.771 192.9901 236.714 193.3381 236.416 193.9721 235.625 193.9091 235.473"></polygon>
            <polygon id="Stroke-4" stroke="#E75F52" stroke-linecap="round" stroke-linejoin="round" points="192.0861 235.379 192.0861 235.38 192.0811 235.813 191.8381 236.241 192.0041 236.568 192.4511 236.77 192.4521 236.771 192.9901 236.714 193.3381 236.416 193.9721 235.625 193.9091 235.473"></polygon>
            <polygon id="Fill-5" fill="#FFFFFF" points="216.4865 205.6602 216.0155 205.5442 216.0145 205.5442 215.5615 205.6232 216.3715 207.9562 216.5285 208.4092 216.6485 211.7012 216.5635 213.0632 216.7735 213.3702 217.1375 213.4192 217.5555 212.8202 217.9455 212.6322 218.0575 212.3312 217.3005 209.9162 217.2455 209.3302 217.4115 208.3372 216.7895 206.8772 216.7955 206.5092"></polygon>
            <polygon id="Stroke-6" stroke="#E75F52" stroke-linecap="round" stroke-linejoin="round" points="216.4865 205.6602 216.0155 205.5442 216.0145 205.5442 215.5615 205.6232 216.3715 207.9562 216.5285 208.4092 216.6485 211.7012 216.5635 213.0632 216.7735 213.3702 217.1375 213.4192 217.5555 212.8202 217.9455 212.6322 218.0575 212.3312 217.3005 209.9162 217.2455 209.3302 217.4115 208.3372 216.7895 206.8772 216.7955 206.5092"></polygon>
            <g id="Group-9" transform="translate(0.000000, 300.000000)">
                <mask id="mask-2" fill="white">
                    <use xlink:href="#path-1"></use>
                </mask>
                <g id="Clip-8"></g>
                <path d="" id="Fill-7" fill="#FFFFFF" mask="url(#mask-2)"></path>
            </g>
            <path d="" id="Stroke-10" stroke="#E75F52" stroke-linecap="round" stroke-linejoin="round"></path>
            <path d="M28.8721,50.4994 L28.8731,50.4994 L28.8721,50.4994 Z" id="Fill-11" fill="#FFFFFF"></path>
            <path d="M28.8717,50.4996 L28.8727,50.4996 L28.8717,50.4996 Z" id="Stroke-12" stroke="#E75F52" stroke-linecap="round" stroke-linejoin="round"></path>
            <path d="M217.4707,214.1401 L217.4707,214.1381 L217.4707,214.1401 Z" id="Fill-13" fill="#FFFFFF"></path>
            <polygon id="Stroke-14" stroke="#E75F52" stroke-linecap="round" stroke-linejoin="round" points="217.4708 214.1397 217.4708 214.1397 217.4708 214.1387"></polygon>
            <polygon id="Fill-15" fill="#FFFFFF" points="220.3341 43.0655 220.1871 44.1895 219.9861 44.6205 219.6171 44.7005 219.7831 46.5235 220.3131 47.1815 220.9211 48.4055 221.2211 48.5405 221.5091 48.1325 221.2461 46.9805 221.3171 46.6135 221.7221 46.9655 221.9441 46.9195 222.0951 46.6695 221.2291 43.9675 221.0371 42.4055 221.0361 42.4055 220.5141 42.6575"></polygon>
            <polygon id="Stroke-16" stroke="#E75F52" stroke-linecap="round" stroke-linejoin="round" points="220.3341 43.0655 220.1871 44.1895 219.9861 44.6205 219.6171 44.7005 219.7831 46.5235 220.3131 47.1815 220.9211 48.4055 221.2211 48.5405 221.5091 48.1325 221.2461 46.9805 221.3171 46.6135 221.7221 46.9655 221.9441 46.9195 222.0951 46.6695 221.2291 43.9675 221.0371 42.4055 221.0361 42.4055 220.5141 42.6575"></polygon>
            <polygon id="Fill-17" fill="#FFFFFF" points="4.3165 34.8196 3.7745 34.9456 3.9255 35.1206 4.3585 35.0586 4.6585 35.3856 5.1345 35.3026 4.8365 34.6716 4.5125 34.6476"></polygon>
            <polygon id="Stroke-18" stroke="#E75F52" stroke-linecap="round" stroke-linejoin="round" points="4.5128 34.6475 4.5128 34.6475 4.3168 34.8195 3.7748 34.9455 3.9248 35.1205 4.3588 35.0585 4.6588 35.3855 5.1348 35.3025 4.8368 34.6715"></polygon>
            <polygon id="Fill-19" fill="#FFFFFF" points="104.6323 132.205 104.8013 132.466 105.7053 132.629 105.8353 132.413 105.5593 132.151"></polygon>
            <polygon id="Stroke-20" stroke="#E75F52" stroke-linecap="round" stroke-linejoin="round" points="105.5592 132.1514 104.6322 132.2044 104.8012 132.4664 105.7052 132.6284 105.8352 132.4134"></polygon>
            <polygon id="Fill-21" fill="#FFFFFF" points="119.8459 150.4939 119.7579 150.7309 119.8839 150.9489 120.3149 150.9329 120.9229 150.5279 120.8399 150.3329 120.5819 150.2009"></polygon>
            <polygon id="Stroke-22" stroke="#E75F52" stroke-linecap="round" stroke-linejoin="round" points="120.5817 150.2002 119.8467 150.4942 119.7577 150.7302 119.8837 150.9482 120.3147 150.9322 120.9237 150.5282 120.8397 150.3332"></polygon>
            <path d="M120.5812,150.2005 L120.5822,150.2005 L120.5812,150.2005 Z" id="Fill-23" fill="#FFFFFF"></path>
            <path d="M120.5812,150.2002 L120.5812,150.2002 L120.5812,150.2002 Z" id="Stroke-24" stroke="#E75F52" stroke-linecap="round" stroke-linejoin="round"></path>
            <polygon id="Fill-25" fill="#FFFFFF" points="78.7807 158.3527 78.6677 158.8707 78.8587 159.1767 79.3967 159.2257 79.5947 158.6867 79.4267 158.3167 79.0627 158.2477"></polygon>
            <polygon id="Stroke-26" stroke="#E75F52" stroke-linecap="round" stroke-linejoin="round" points="79.0621 158.2471 79.0621 158.2471 78.7811 158.3521 78.6681 158.8711 78.8591 159.1761 79.3961 159.2261 79.5951 158.6861 79.4271 158.3161"></polygon>
            <polygon id="Fill-27" fill="#FFFFFF" points="98.9947 137.1613 99.4397 137.8163 99.7857 137.8423 100.3957 137.1563 100.3327 137.0043"></polygon>
            <polygon id="Stroke-28" stroke="#E75F52" stroke-linecap="round" stroke-linejoin="round" points="100.3326 137.0049 98.9946 137.1619 99.4396 137.8169 99.7856 137.8419 100.3956 137.1569"></polygon>
            <polygon id="Fill-29" fill="#FFFFFF" points="32.7358 0.5215 32.3768 0.8075 32.0748 1.9895 31.6728 2.7485 31.3898 3.1985 28.4348 7.9045 28.0588 8.7555 26.4948 11.1765 24.9488 13.9675 25.7238 13.9335 26.2818 14.5025 26.7568 14.6795 27.3138 15.2695 27.5178 16.8535 27.4068 17.2635 27.1228 17.6725 26.5788 17.8635 26.0778 18.3135 25.2758 18.5445 23.2438 18.1585 23.0718 18.0055 22.9458 17.5285 22.6248 17.2345 22.0858 16.7415 21.8688 16.9345 21.2838 16.8435 20.9368 17.0565 20.8908 17.2725 21.1258 17.6215 21.0158 17.8365 20.2798 17.8315 19.5578 18.8215 20.3508 19.8035 21.1268 20.1355 21.6228 20.5065 22.3148 20.5775 22.6598 20.7755 24.1098 22.4825 24.9828 22.9315 25.2158 23.0525 25.6028 23.3795 25.7948 23.8155 25.7028 24.4865 25.3538 24.8725 24.5748 24.9105 24.2058 25.0795 24.0488 25.5555 23.2498 25.3965 23.0368 25.8495 24.4298 26.5765 24.5568 26.9245 24.3378 27.3125 23.7308 27.5025 23.7228 28.4345 23.5058 28.6705 23.0298 28.6015 22.5988 28.2515 22.7098 27.8405 22.4538 27.4715 22.1848 27.4385 22.0648 27.4245 21.8468 27.5735 21.5248 27.2895 21.0288 27.1325 20.4218 27.1495 20.1168 27.4285 19.2738 27.3135 18.7948 27.6995 18.5828 27.1995 18.2598 27.0875 17.3928 27.1455 17.2178 27.4265 16.8078 27.2485 16.4348 27.9185 15.9578 27.9125 15.8918 28.1515 16.6218 28.9165 16.7268 29.2425 16.6388 29.5435 16.2898 29.7585 15.4678 29.7085 14.8668 29.1625 14.5658 29.1275 14.2618 29.0915 13.9828 28.8295 13.7738 27.8525 14.2098 27.4885 14.1678 27.1845 13.5678 26.5505 13.2198 26.6345 12.6828 26.2835 12.0118 26.2355 11.6628 26.4915 9.7998 26.1505 9.0708 26.0165 8.8098 26.1665 7.7928 26.1795 9.2578 26.9705 9.6438 27.4515 9.5858 27.5655 9.1378 28.4645 8.0328 28.6945 7.8358 29.0615 7.5518 29.2535 6.7298 29.3555 6.1638 29.6545 4.7778 29.8605 4.4518 30.2045 4.0258 30.4245 3.6258 30.6305 2.3908 30.8825 1.5008 31.4155 1.9968 31.5935 3.5568 31.1945 3.7968 31.0175 3.9048 30.9365 4.2558 30.9235 4.4038 30.9185 5.2228 31.2285 5.7168 31.6435 8.2188 32.7255 9.3638 33.0595 9.6858 33.3225 10.3628 35.0015 12.8518 35.0595 13.8688 35.5025 14.0168 35.5675 14.7298 35.6165 15.7988 35.3195 15.9438 35.2805 16.5188 36.4105 16.4958 36.5465 16.4508 36.8005 15.0688 36.5075 14.9778 37.1785 15.1458 37.5905 15.4698 37.8315 15.7268 38.2675 15.8948 38.8315 16.3268 38.8145 17.6658 39.2375 18.8268 39.9405 18.9078 39.8215 19.3178 39.2175 19.3968 39.1005 20.0268 38.7815 20.5898 38.7225 21.3468 38.7275 22.1648 39.2545 22.9868 39.1105 23.3538 39.1575 23.6758 39.4845 24.3468 39.4475 24.7538 39.9485 26.0738 39.8295 26.5198 40.9175 26.9458 41.5485 27.9988 42.5335 28.5878 43.4275 28.6188 43.4705 28.5698 44.0765 28.1028 45.6115 28.2238 46.5875 27.9888 47.3035 28.4668 48.5835 28.8728 50.4995 28.9258 50.7505 29.1748 51.9255 29.0208 52.2925 27.9548 52.9975 27.2648 52.8185 27.1978 53.0135 27.4338 53.3405 27.3778 53.4525 27.1478 53.9225 26.6718 53.9615 26.2788 54.4555 26.6678 54.4385 27.0778 54.6155 27.1408 54.7895 26.7908 55.3505 26.3148 55.3235 26.1168 55.6475 25.9008 55.6235 25.5948 56.2065 25.9588 56.4695 25.7148 57.2455 24.8898 57.7375 24.9158 57.8635 24.9308 57.9325 25.0588 57.9805 25.4698 58.1335 25.6668 57.8105 26.4688 57.5785 26.6908 56.9305 27.0368 56.7835 27.0458 55.6985 27.5328 55.6045 27.9978 55.5135 28.6518 54.9325 29.0868 54.7645 30.9178 55.4085 31.2388 55.7355 31.3438 56.0615 31.2098 56.8185 30.6668 57.0305 30.3178 57.3525 30.1378 58.2395 29.4908 58.1255 29.3758 58.8625 29.1778 59.2925 28.9168 59.5075 27.8598 59.3035 27.6418 59.6045 26.9078 59.5335 26.8638 59.5975 26.7918 59.7055 26.7318 59.7925 26.8978 60.5735 26.6368 60.8325 25.9208 61.1495 24.9258 61.2285 24.8608 61.3785 25.2218 62.0755 25.1338 62.2925 25.2188 62.4875 24.6728 63.1975 24.2828 63.2165 23.8968 62.9535 23.8338 62.7585 23.6758 62.9095 22.9628 63.5955 21.8798 63.9975 20.1168 65.4775 19.4908 65.4935 19.3428 65.3645 18.9108 64.9895 18.6778 64.4245 18.2238 64.5065 17.5988 64.3085 17.0338 64.7355 17.0538 64.9095 16.7698 65.2975 16.8098 65.6435 16.4188 65.9225 16.1338 66.4615 14.6848 66.7095 14.6398 66.9045 15.3058 67.3645 15.5818 67.9085 15.2118 68.2745 15.7038 68.7975 15.7198 69.5605 15.7198 69.5775 15.7378 69.5955 15.9558 69.8175 16.3878 69.8865 16.6018 70.0605 16.4928 70.3205 16.7838 70.5105 17.2008 70.7805 17.3868 72.0395 17.7078 72.3455 17.6158 73.0815 17.1348 73.8135 16.5698 74.1125 16.3358 73.6555 15.7318 73.5855 15.9818 74.8435 15.7408 75.7025 15.4488 76.7465 15.1008 77.1325 14.7318 77.3235 13.6528 77.1425 13.4628 76.7075 13.2038 76.6185 13.1008 76.8705 12.8958 77.3745 12.6568 77.6535 12.3748 77.7165 11.5628 79.3765 11.2378 79.5695 11.0588 80.3265 10.8408 80.6495 10.4528 80.6025 10.1898 81.0555 9.8898 80.7275 9.5658 80.7475 8.9358 81.1965 8.5848 82.0385 8.6258 82.3425 8.8628 82.3655 9.1848 82.6935 9.4228 82.5865 9.6368 82.8705 10.0888 83.0265 10.3868 83.5485 11.1588 84.3555 11.2178 84.4545 11.6708 85.2045 12.0498 86.3115 11.6138 86.9795 11.3698 87.2015 10.4598 88.0325 10.9858 89.8995 10.6978 90.8495 10.7768 91.8035 11.8588 94.1955 11.8308 95.0615 12.0618 96.0165 11.9928 96.5575 13.0358 97.9765 13.4658 98.5625 14.3408 100.4995 14.5258 100.9095 14.5868 101.5815 15.1848 102.3235 15.8528 105.1665 16.4088 105.7785 16.4448 106.7525 17.8318 108.5175 18.2598 109.2155 18.4938 109.3035 18.6648 109.7165 18.9058 109.9265 19.8208 110.7225 20.0768 111.1585 20.4108 112.4395 20.9228 113.1795 22.7188 115.0585 22.8948 115.1575 23.3848 115.4325 24.0708 116.0665 24.3458 116.6745 26.2028 119.0085 26.7968 120.1825 26.7078 120.5295 27.3678 121.4435 27.7488 122.2485 27.9518 123.5925 27.8188 124.0035 27.5378 124.1315 27.3408 124.5415 28.6918 125.2235 28.8458 124.9865 28.8258 124.6835 29.1728 124.4915 29.7768 124.4545 30.4648 124.6535 30.9358 125.0705 31.0388 125.7205 31.3818 125.9405 31.5068 125.9405 32.8468 125.9315 33.4278 126.0665 34.2708 125.9025 35.1258 126.6465 36.1378 126.7635 36.6958 127.1575 37.7108 126.8855 38.4418 127.1735 38.5628 127.2175 38.9358 127.3525 39.9268 127.3615 40.7718 126.9365 41.1588 126.9835 42.1008 127.7495 42.1798 128.5515 42.4158 128.6185 42.5908 128.3615 43.0438 128.4305 43.9758 127.8325 44.2748 128.0295 44.4418 128.6385 46.1578 129.6305 46.5458 129.6555 46.8068 129.4415 47.0938 128.6425 47.5468 128.5595 48.3248 128.4595 49.2928 128.6195 49.7648 128.8625 50.2128 129.3425 50.6348 129.5185 51.2868 129.7875 52.1048 129.8825 52.3688 129.3425 52.7118 129.3245 53.5938 129.5935 55.0968 130.3235 55.9998 130.4835 58.1218 131.7815 58.8698 132.4175 58.8858 132.8945 59.9418 133.0555 60.7658 133.3295 60.9518 133.3915 61.8088 133.8765 64.3328 135.8505 64.8788 137.3075 64.7658 137.7395 64.5058 137.9965 64.5228 138.3645 66.2178 139.2485 67.6068 140.3245 68.3538 141.1125 68.4798 141.2575 68.5238 141.3095 69.2898 142.2915 69.6678 143.3555 70.1358 143.8155 70.4748 144.4695 70.9748 146.1415 74.8308 150.4045 75.3338 150.7695 75.7698 151.0865 76.1328 151.5455 76.3408 154.2765 76.6368 154.9295 77.4458 155.7825 78.4988 156.0095 78.9698 156.3405 79.1568 156.9045 79.5608 157.4075 79.6918 157.2565 79.5898 156.7365 79.7458 156.2615 81.0858 155.8205 81.3268 155.2785 81.4388 155.0245 82.6178 151.3775 82.6698 150.4035 83.4888 148.3565 84.7968 146.7895 86.0738 146.3055 86.7278 145.4685 86.8418 145.4045 87.1828 145.2125 88.6958 144.8175 89.4548 144.3075 89.9028 143.5625 89.9608 143.4685 89.9028 143.1485 89.5148 142.7915 88.3568 142.3235 88.2538 141.7805 88.4138 141.0675 89.0918 140.0575 89.6568 139.6105 89.9038 139.5725 90.4558 139.4885 90.7738 139.8175 91.6328 140.1955 91.9958 140.5295 92.4428 140.9415 93.5178 141.2565 94.1028 140.9595 94.2798 140.5505 94.2848 140.0525 93.9938 139.1615 94.3478 138.2775 94.6698 138.3675 94.8868 138.1535 95.7698 138.2715 96.0738 138.1015 96.2978 137.3685 97.1088 135.9695 96.8558 135.4685 96.9658 135.2535 98.5068 134.8395 98.5868 134.8175 98.8918 134.4535 99.1608 133.6335 99.3138 133.4395 99.7898 133.3145 100.7598 133.2845 100.9808 132.7235 102.0208 132.3235 102.1978 131.9355 102.1568 131.7395 100.8878 131.4005 100.3278 131.4795 99.5748 131.2985 99.1408 131.5535 98.5638 131.6055 98.5158 131.6105 98.3408 131.8255 97.9098 131.8625 97.3078 131.6395 96.5608 131.0255 96.3928 130.6555 96.4608 130.3745 97.4408 129.4545 98.1718 129.5495 98.3248 129.3555 97.9418 128.8965 97.5318 128.9565 97.3398 128.7815 97.3658 128.4135 97.1988 128.0005 96.7238 128.0155 95.8288 127.1185 95.7248 126.7055 95.8828 126.0355 96.6038 125.1995 97.0218 125.0645 97.1878 125.0105 97.4068 124.6025 97.1538 124.2095 97.0298 123.6235 97.1218 123.1265 96.8658 122.7995 96.0078 122.4855 95.2598 121.9145 94.3338 121.7085 93.3678 121.2655 92.0098 121.3355 91.6188 121.5695 90.3288 121.3595 89.9038 121.4145 89.0968 121.5195 88.6458 121.3845 88.2758 120.9905 87.5158 120.1805 86.9438 119.2635 84.6938 117.8745 84.2838 117.8705 83.8068 118.0815 83.1528 118.8765 82.7628 118.9155 82.6398 118.3725 82.2498 118.4545 82.1058 117.8685 81.4168 117.8175 80.7648 118.2875 79.8828 118.1685 79.4978 117.8185 79.2788 117.7645 79.1318 117.7285 78.8338 117.3565 78.6898 116.7485 77.5918 116.4985 76.0968 115.1575 75.9578 115.0315 75.7108 114.8105 74.8968 114.4345 74.4488 113.8875 74.6018 113.6945 74.4538 113.3895 74.2398 113.3665 74.2338 113.3575 73.8568 112.7115 73.2078 112.8775 72.9108 112.3545 72.5028 112.2645 72.0148 111.3705 71.4318 111.4295 71.0698 111.0565 71.3088 110.8645 71.6118 110.9335 72.0668 110.5045 72.4488 111.2235 73.0038 111.7485 73.4758 112.0355 74.4248 112.1105 74.9368 112.6135 75.2588 112.6605 75.2898 112.6085 75.4358 112.3595 75.5298 111.4715 75.3388 111.1665 75.0128 111.5105 74.4738 111.5045 73.4648 110.9735 72.7208 109.8395 72.1848 109.5965 71.9128 108.7265 71.4418 108.2885 69.3798 107.4225 68.7158 106.9395 67.7648 105.9425 67.6698 105.8445 67.6298 105.8855 67.5848 105.9295 67.3868 106.1235 67.2368 105.6435 67.1348 105.3195 67.5938 104.8045 67.4888 104.5005 66.9098 104.1475 67.4498 104.0455 67.5378 103.8505 67.3478 103.3935 66.8548 103.0635 65.6908 103.0295 65.3258 102.7885 65.0448 102.8725 65.2138 103.1765 65.1688 103.4375 64.9308 103.6455 64.3628 104.1425 64.1048 104.1625 63.9988 103.9445 64.3038 103.5365 64.6398 103.3285 64.7178 103.2805 64.3758 102.8445 64.2928 102.8395 63.8588 102.8175 63.4658 103.3535 63.1218 103.1345 63.6898 102.5335 64.0198 102.4575 65.4828 102.1185 65.8048 102.5125 66.4298 102.4965 66.5368 102.6485 67.1178 102.7425 68.2938 103.8155 67.2108 102.0075 66.8248 100.4985 66.8238 100.4985 66.6338 99.7555 66.5658 99.4885 66.6348 99.0565 66.9378 98.9075 67.0488 98.6705 66.8868 97.5205 67.1508 97.0035 66.9018 96.0695 66.9578 94.7705 67.1788 94.1445 66.9318 92.9715 64.9618 91.2825 64.1898 90.8425 63.1558 90.6155 63.0458 90.4865 62.8778 90.2885 62.7778 89.5495 63.1108 88.6645 63.1138 88.3205 62.8818 87.8625 61.7008 87.1145 61.1478 86.2205 60.4208 85.4325 59.5818 85.0775 59.1508 85.0945 57.9798 85.6465 57.2688 85.4665 56.8778 85.7445 56.5548 85.6545 56.1708 85.1085 55.5698 84.7345 56.2828 84.6985 56.9258 85.1805 57.4278 84.7105 57.8158 84.6045 60.4498 84.6755 61.1788 85.3325 61.4518 86.0295 61.8578 86.4015 62.3748 86.5575 63.8298 88.0235 63.8688 88.4575 63.3178 89.5355 63.3958 89.6165 63.7008 89.9295 64.6058 90.2415 66.0008 91.0135 66.5358 91.4745 67.1178 91.6965 67.1778 92.0865 67.8828 92.7865 68.4618 93.7415 68.4778 93.7685 68.5788 94.4195 68.3788 95.1105 68.0308 95.3025 68.5808 96.4765 68.7648 97.4545 69.5338 98.1985 70.2628 98.6835 70.9738 98.8415 71.5308 99.1295 72.3498 99.3545 72.6318 99.2065 73.4388 99.3335 73.8168 99.3915 73.8368 99.4025 74.8048 99.9215 75.4748 99.8425 75.8158 100.0625 76.2468 100.1315 76.5038 100.3945 77.1968 100.2285 77.7648 99.4985 79.1728 98.9075 79.7978 99.0215 80.2908 99.4175 81.9888 100.0205 82.5738 99.7885 82.7778 100.2845 82.8058 100.3535 82.7378 100.4985 82.7368 100.5015 82.6958 100.5905 82.4358 100.7395 82.1718 100.6865 81.9918 100.6505 81.7468 100.6015 81.6398 100.4975 81.6378 100.4975 81.4258 100.2955 80.9528 100.2035 80.8668 100.4975 80.8658 100.4975 80.8668 100.4995 80.8408 100.5925 81.5238 101.1185 81.8688 101.3835 82.6138 102.2575 82.5688 102.4955 82.7598 102.7565 83.7718 102.9405 84.2438 103.2275 84.5038 103.1435 85.0718 102.4785 85.4378 102.5265 86.3378 103.1215 87.7538 103.7645 87.9748 103.9555 88.4388 104.3585 89.9038 106.0205 90.0598 106.1955 90.8538 106.5725 91.8438 106.7155 92.8088 107.2025 93.1708 107.7045 93.3358 108.4865 93.6328 108.9665 93.2008 108.9605 92.7248 109.1505 92.5498 109.3655 92.6988 109.5845 94.0098 109.9885 94.4208 109.8845 94.9568 110.1295 96.1888 112.0065 97.0738 111.8005 97.0278 112.2325 97.2388 112.5155 97.7128 112.5425 99.2548 113.5795 100.0458 114.2155 101.5708 115.1575 102.6588 115.8285 103.6208 116.5985 105.1458 117.1565 105.7068 117.0995 106.3308 117.2355 104.4928 117.6035 103.9088 117.8775 103.7548 118.1365 103.9438 118.5285 104.2658 118.6195 105.2818 118.4355 107.1578 118.4365 107.9168 118.1435 109.2738 118.2665 110.5908 118.0885 111.7948 118.4285 113.1108 118.4655 113.6238 118.6665 113.9448 118.9955 114.1338 119.3875 114.0638 119.8625 113.9718 120.3815 114.3268 121.3395 115.3708 122.4565 116.5238 123.3365 116.5648 123.6395 116.1368 124.3295 115.9278 124.6715 115.3598 125.3145 114.9028 125.5895 114.9198 125.9155 115.7478 126.5815 117.4628 127.9615 117.9358 128.6765 118.0538 128.8565 117.8808 129.0065 117.6008 128.9595 117.5338 129.1325 117.7018 129.4585 118.2578 129.8995 119.3068 130.4095 120.0588 131.2405 120.1788 131.3735 120.4338 131.8315 120.6018 132.0235 121.7948 133.3655 123.2728 135.7875 123.4298 135.4215 122.9208 134.6795 122.7688 134.0745 122.7348 133.9405 122.8038 133.5945 123.9208 135.6005 124.3708 135.9955 124.8648 136.0675 124.8738 135.9895 124.9838 135.1165 125.2738 134.7945 126.0238 134.6735 126.3768 133.9635 126.6578 133.9035 127.3448 134.1505 127.5638 133.8705 128.1038 133.7905 128.3008 133.5995 128.3988 132.6035 128.6418 132.0875 129.2288 131.7035 129.5088 131.6855 129.7448 131.8835 129.2218 132.2885 128.8158 133.8645 128.5528 134.1645 128.0328 134.3535 127.7058 134.7815 126.7578 134.7045 126.4758 134.9615 125.8278 134.9965 125.6088 135.2975 125.5108 136.2705 125.3568 136.5285 124.8368 136.8035 124.5778 136.7355 124.4308 136.4735 123.6818 136.0525 124.1708 138.4205 123.6128 139.9505 123.2648 140.2055 123.0018 140.6785 122.5258 140.7815 121.4568 141.9155 121.0368 142.7545 120.9658 143.2515 120.7028 143.6595 120.3788 143.7645 119.9868 144.2145 119.7748 145.6185 120.2038 145.9505 120.3728 146.0815 120.4348 146.3635 120.1708 146.7935 120.2928 147.3355 119.6408 148.0205 119.6798 148.3235 119.8498 148.5215 120.8418 148.2515 121.4218 148.4975 121.9118 149.0445 121.9488 149.3925 121.8158 149.7585 121.3588 150.1655 121.5058 150.5125 122.2928 151.2585 122.5938 151.3715 123.1368 151.0965 123.6898 151.5805 123.9038 151.6045 124.2228 152.0635 124.3458 152.5195 124.8138 153.0185 124.9418 153.1545 124.8268 153.8235 125.5668 155.0245 125.8868 155.2895 128.1528 156.6175 129.2818 157.6055 129.6688 157.6105 129.8148 157.9375 130.6248 158.6625 130.7498 158.5425 130.3818 158.1605 130.3378 157.8285 130.5708 157.8805 131.2298 158.4755 132.2248 158.1195 132.4348 158.5565 131.9328 159.1555 132.1428 159.5915 133.0758 160.6855 137.0678 160.0025 137.2218 159.6795 137.9298 159.9475 138.4908 159.8255 139.3928 159.9665 140.7858 160.5265 141.2978 160.5505 141.4318 160.5565 142.5448 161.0485 143.1038 161.0765 143.4748 160.7145 143.8178 160.8485 143.9818 161.4785 144.3888 161.6575 145.4628 161.8015 145.7248 161.5445 146.1928 161.9625 147.0818 162.1705 151.2158 163.1365 151.3448 163.0725 151.1978 162.7885 151.2648 162.6385 151.3578 162.6335 151.8678 162.6035 152.1738 162.2185 152.4098 162.3075 152.4458 162.8275 152.2498 163.0645 152.4078 163.2055 152.5468 163.3265 152.9108 163.4195 153.7438 163.9935 153.9598 163.9105 154.9628 163.9865 155.3368 164.0155 155.5488 164.2135 156.3018 164.2245 157.9388 164.7215 158.1998 164.6385 158.2028 164.3785 157.9028 164.1545 156.4158 163.8935 156.1358 163.7805 155.8168 163.4165 156.4018 163.3055 157.3408 163.7845 158.4598 163.8215 159.1748 165.0005 159.4198 165.1755 160.2838 165.7955 161.7818 166.4445 161.9518 166.6845 163.0008 167.0025 163.5388 166.9895 163.6948 166.7735 163.5718 166.3185 163.3148 166.1615 162.6058 166.1305 161.7268 165.8375 160.9588 165.3065 159.5118 163.5655 159.2638 163.2685 159.0128 162.7235 159.2108 162.4015 159.5328 162.5145 160.0218 162.9965 160.7348 164.4155 161.4568 165.1615 163.3848 165.8165 164.0238 166.2585 164.5518 167.0445 165.3788 167.9235 166.5548 168.5465 167.2088 169.4215 167.1758 169.4815 166.9008 169.9595 167.3768 171.3725 167.2208 171.7595 166.7058 171.6235 166.1568 172.3945 166.5448 172.4215 166.9988 172.2555 167.5788 172.3085 168.1138 172.5755 168.6858 173.1675 169.0628 174.0385 169.4738 173.8505 170.0098 173.9225 170.2968 173.4945 170.5558 173.3685 170.7908 173.5005 171.0538 174.6525 171.7708 174.1865 172.1818 174.0835 174.7978 174.7075 176.1858 175.4415 177.1728 175.7155 178.5158 176.5575 179.1588 176.8055 179.5028 176.8105 179.7068 175.9475 180.0118 175.7135 180.2678 175.9335 179.8478 176.6645 180.1628 177.1445 184.5258 179.0285 186.2538 179.9905 188.8788 181.4535 189.0558 181.1105 189.2728 181.0705 189.3718 181.6565 191.1808 182.9825 191.4428 182.6835 191.7448 182.6445 192.0428 182.8655 191.9698 183.3835 192.8188 184.2185 193.1538 184.4585 194.9478 185.7455 195.3298 186.0545 196.1938 187.2805 196.7688 187.6995 197.0838 188.1395 196.8368 188.8925 196.9628 189.0685 198.0998 189.1945 201.2638 190.5205 203.1618 191.6325 203.7728 192.1855 204.2858 192.6465 204.5568 193.1485 204.6218 194.6005 204.8878 195.4475 204.4488 196.0485 204.9178 196.4015 205.1318 196.4045 205.3598 195.8415 205.7758 195.5715 206.6648 195.4645 207.0588 195.6235 207.6608 196.1865 208.1348 196.9955 209.1608 197.6875 209.3608 198.4745 209.7208 198.8035 211.1388 200.0935 211.3408 200.4585 211.3638 200.4975 211.3638 200.4975 211.3638 200.4995 211.6598 201.0325 212.2578 201.2365 212.3818 201.5855 212.2908 201.9525 213.5238 202.7505 214.1078 203.9725 214.4948 203.9575 214.8878 203.5295 215.6338 203.9535 216.4338 205.0505 216.7958 205.2285 217.4388 205.2815 217.6118 205.6745 217.6888 205.8475 218.1598 205.9415 218.1578 206.1155 217.8318 206.3485 217.7558 207.0835 218.0638 207.9965 219.3028 208.4285 219.2998 208.6015 218.1618 208.5615 217.8368 208.7075 217.6328 209.3535 217.6478 209.8295 218.0478 210.5355 218.6818 211.0155 219.0618 211.4995 219.2028 212.1075 219.8638 212.4215 220.3348 212.5375 221.1548 212.3125 221.7758 212.3665 222.6668 213.1815 225.3498 214.6755 226.5508 214.7825 227.4478 215.0355 228.0528 215.3625 228.3948 215.0505 228.6288 215.1205 228.2998 215.6125 227.9968 215.6945 226.8688 215.1125 226.1168 215.0355 225.5558 215.1985 225.4228 215.4995 223.8298 214.2835 222.1208 213.6275 221.5538 212.8605 221.2968 212.8135 220.5208 213.0165 219.8558 212.9415 218.8778 212.3405 218.7128 212.0625 218.3748 211.4875 218.3508 211.7465 218.3208 212.0705 218.8228 213.0315 218.9178 213.8345 218.6568 215.3655 218.7568 215.8005 218.4918 216.3595 217.3368 217.3575 217.0938 217.7655 217.1108 218.0465 217.3228 218.2245 217.6668 218.1865 218.5818 217.4655 218.9428 217.5795 219.1348 217.7135 219.2968 218.3215 219.5098 218.4765 220.9068 218.8745 221.1998 218.9575 221.2168 219.2185 220.9768 219.4515 220.5268 219.4235 219.9538 218.9375 219.0568 218.7065 218.7198 218.2685 218.6508 218.4615 218.8148 219.0055 219.1558 219.2715 220.0098 219.5665 220.2908 219.4845 221.8648 220.4845 222.2128 220.1875 222.5898 219.3925 223.4138 218.9305 224.0808 218.8325 224.8748 218.9325 225.0308 219.1085 225.1268 219.2185 225.0348 219.6495 224.4538 219.6835 223.7278 219.3895 223.3828 219.4495 222.9868 220.0705 223.1738 220.4625 223.7478 220.8395 223.9888 221.9915 223.1338 221.6735 222.8178 221.2785 222.1998 220.9665 219.7148 220.5805 218.7758 220.1745 218.1148 219.6925 218.0358 220.7255 217.4128 222.1225 219.2388 222.1085 220.4088 222.8625 220.8368 222.9575 221.1008 223.9135 221.5248 224.2665 221.6958 224.2695 221.7848 224.0765 221.5428 223.1855 221.6588 222.5595 222.0488 222.3285 222.4348 222.3765 222.8988 222.9255 223.4408 223.1415 223.5808 223.1975 224.6588 222.9565 225.7278 223.2975 226.3588 222.7675 226.8078 222.8615 227.3918 222.5685 227.6898 222.8115 227.1648 223.4305 227.2018 223.8205 227.4558 223.9535 228.4118 223.3005 229.6588 223.2985 229.9828 223.0665 230.1388 222.7655 230.5218 222.9665 230.6868 223.4015 230.4238 223.6805 228.7028 223.9325 227.6598 224.6715 227.4228 224.7105 226.9768 224.3795 226.6098 224.5025 226.3218 225.1265 226.3508 225.9485 225.7468 227.4525 224.9448 227.9815 224.2108 228.1625 224.0118 228.5285 224.0868 229.1995 223.7808 229.5405 223.4598 229.4935 223.0058 229.6375 222.6228 229.4135 222.4548 229.1955 222.5008 229.0005 222.9918 229.0955 223.2138 228.6885 223.1788 228.1905 223.3818 227.5875 223.9238 227.2505 224.6758 227.2405 225.1068 227.0735 225.5898 226.4545 225.9338 225.0755 226.5558 223.8085 226.4948 223.5485 225.8888 223.8845 225.0558 223.6115 224.5168 223.7755 222.8198 223.8115 222.3318 223.4135 222.1328 223.7345 222.2978 224.2145 223.1888 224.9005 223.5218 225.5115 223.2408 225.6805 222.6238 225.2815 221.9588 225.2275 220.8088 224.6455 220.0978 224.8505 219.8158 224.9315 219.4638 225.5325 218.9418 225.9785 218.3798 226.1645 218.0298 226.6335 217.5528 226.8645 215.2158 229.3795 216.4408 230.6985 216.8708 230.7495 217.6508 230.2215 217.8948 229.7495 218.2158 228.4565 219.1788 228.6455 220.6598 228.6695 221.0928 228.5045 221.2968 227.7495 221.4738 227.4275 221.6248 227.4305 221.6968 228.2755 222.0868 228.0655 222.2568 228.1765 222.4618 228.7855 221.7228 229.3585 220.9758 229.0865 220.0478 229.3745 218.7138 229.5475 218.5818 229.6525 219.0848 230.5265 219.0588 230.7865 218.5698 230.4755 218.0188 231.3965 217.1748 231.7505 216.1018 231.7985 215.8828 232.0105 215.7278 232.3975 215.7198 233.0045 215.9168 234.0235 216.1108 234.0055 216.2148 233.8875 216.3708 233.7065 216.7148 233.7555 216.9458 234.0625 216.5958 234.5335 215.9468 234.7835 215.4448 235.3805 215.1298 236.3055 215.2418 237.3895 214.9278 238.2715 214.5988 238.6995 214.1668 238.8645 211.3528 239.0355 210.4018 239.3675 209.6588 240.0015 209.3808 240.2385 209.1588 240.7755 208.9358 242.7625 208.7578 243.0625 208.0888 243.3115 207.5858 243.9755 207.3798 244.7945 206.7398 245.9735 206.7128 246.3195 207.5308 247.5655 207.8138 248.7375 208.1278 249.2405 208.4768 248.8795 208.8868 248.6905 208.9768 248.9275 209.0108 249.0175 210.0148 249.3145 211.1538 250.5005 211.1548 250.5005 211.1548 250.5005 213.0358 252.4585 216.6408 256.5195 217.4278 256.9795 218.6178 257.6765 219.8218 258.7995 220.5358 259.7415 220.7788 260.6335 223.0908 262.3365 223.6898 262.4315 224.6588 262.1455 225.2558 262.3715 225.3868 262.2445 226.0758 262.1305 227.4298 261.9105 228.5868 261.8865 230.6018 262.0065 235.0258 262.9025 236.0288 263.2675 237.4488 264.1455 237.5798 264.2235 240.2598 265.4585 243.8628 266.6895 246.3308 267.8795 248.3628 268.5945 248.4618 268.6305 249.4598 267.9775 249.8158 267.1835 249.4958 265.7285 250.2608 263.6865 250.1608 263.2745 249.1768 261.8065 249.0988 261.4175 250.0578 260.5465 250.3858 260.0975 250.5008 259.6885 249.7348 258.8165 248.8588 257.8215 248.5678 257.3185 249.0828 253.4975 248.9608 253.0405 248.7088 252.7325 248.6148 253.2515 248.2028 253.4825 247.6518 253.0395 246.9058 252.7885 246.1308 251.7375 245.1158 250.7235 244.7408 250.5005 244.8818 250.5005 244.8618 250.4805 242.3238 249.5275 241.0538 249.7215 240.3368 248.9965 239.7368 249.0065 239.0978 248.6495 238.2938 247.9435 237.2408 246.7135 236.1828 245.8515 235.7608 245.4125 235.5648 244.9895 235.1718 244.6875 235.1158 244.1455 235.4418 242.6355 234.7338 241.3035 234.0118 240.7935 233.3158 240.0035 232.7438 239.5825 232.3788 239.5975 232.0518 239.8735 231.7978 239.6095 232.1968 238.8595 232.1368 238.5985 231.7758 238.3105 231.3698 238.2605 230.9558 238.6655 230.6148 238.5075 230.4078 237.9845 230.5308 237.0345 231.0818 236.1995 231.6588 236.2965 231.9418 236.1275 232.0748 235.8485 232.6328 235.8365 233.3798 236.0855 234.7758 236.1095 234.8708 236.4565 234.9378 236.6955 235.4498 236.8135 236.1608 236.6525 237.0078 236.1035 237.8858 234.9075 238.2068 234.9565 238.5328 234.7875 238.7438 234.9875 238.8028 235.3775 239.2098 235.4065 239.4048 235.2795 239.4988 234.7405 239.9558 234.4445 239.9828 234.0555 240.3518 233.8235 240.5418 233.9575 240.6148 234.6935 240.7648 234.7835 241.6868 234.8645 242.4978 235.1165 242.7168 234.8395 243.1238 234.9325 243.2578 235.1035 243.7108 235.6775 244.2468 235.7745 244.4568 236.0595 244.7558 236.0645 245.2378 235.5965 245.8338 235.9105 245.6898 236.8165 245.1468 237.2405 245.1138 237.8885 244.8448 238.5335 245.1308 239.4035 244.8238 239.7885 245.0348 239.9865 245.5908 240.1915 245.7778 240.5625 246.0968 240.7185 246.7398 240.7955 247.1218 240.9955 248.0438 242.1575 248.3408 242.5315 249.0368 242.0245 249.5528 241.9685 250.8968 242.4265 251.6528 242.1575 251.9288 242.2925 252.3988 243.7505 253.0458 244.8215 253.3448 244.9135 253.8358 243.7755 255.1448 243.8205 255.5078 243.9785 255.5888 244.2185 255.3888 244.6045 255.5358 244.7585 255.9418 244.8515 256.0308 244.8145 256.3968 244.6655 256.9468 245.1285 257.8668 245.1895 258.1848 245.4765 258.5058 245.5045 258.8298 245.3575 259.0298 244.9495 258.9978 244.4085 258.8518 244.1255 258.2108 243.8965 258.1918 243.7665 258.3668 243.5975 258.6458 243.6235 258.9198 243.9095 259.3538 243.6145 259.8368 244.2285 260.7098 244.6335 262.5158 246.9165 262.6348 247.3745 262.7358 247.7645 262.9268 247.8755 263.3828 247.6675 263.9778 247.9605 264.0158 248.2205 263.6858 248.6905 263.3258 248.4465 262.8108 248.4145 262.3078 248.9475 260.9868 249.7235 260.5698 248.9595 261.0758 248.2755 260.6758 247.8135 261.0938 247.1935 261.0348 246.8895 260.4578 246.7275 260.1408 246.4625 259.9208 245.5715 259.4948 245.3905 259.3908 245.5885 258.7388 246.8485 258.8758 247.5645 261.0258 250.4995 261.0258 250.4995 261.0258 250.5005 261.1408 250.6575 261.5008 250.9675 262.1398 251.1955 262.5568 251.9165 263.0858 252.3815 263.5358 252.3885 265.0508 251.5715 265.6298 251.6255 265.9988 251.8345 267.3168 252.0255 267.7118 252.7885 268.5008 253.0415 268.9638 253.5695 270.1808 253.9175 270.3988 253.7255 270.8928 252.4155 271.0688 252.2235 271.4998 252.1885 271.4198 251.7545 271.5118 251.4745 271.9008 251.2875 272.3448 251.3235 272.0128 252.2625 272.2358 252.9815 272.1228 253.3035 271.8848 253.4295 271.1858 252.9405 270.8138 253.3665 270.7448 254.0465 270.3658 254.3965 269.6848 254.0595 268.8728 253.9145 268.3228 253.4715 267.8308 253.3555 266.9668 252.4735 265.9958 252.0435 265.2388 251.9015 264.1468 253.0495 263.0778 252.8355 262.7748 253.0255 262.7448 253.4575 263.0208 253.6575 263.1428 254.0485 262.8208 254.1075 262.4378 253.7975 262.1338 252.8625 261.6878 252.5715 261.4298 252.6115 261.8898 253.3115 262.3538 254.9865 263.4588 256.2635 264.9398 257.9755 265.8398 259.3115 266.6898 260.9715 266.7248 261.3835 266.4598 261.8545 265.7598 262.5985 265.5418 264.1525 265.0378 264.7275 264.0198 265.3355 263.5418 265.7415 262.4738 266.6495 262.0518 267.5085 261.9298 268.3485 262.0578 269.6065 262.7468 270.6355 263.6588 271.2575 264.9228 272.5345 267.7218 274.1495 269.5698 275.2155 274.4538 278.9835 276.2198 279.7085 277.3668 280.8375 277.9678 281.4285 281.2858 286.3575 282.5008 289.1055 282.6708 290.3665 282.8558 290.8235 283.0538 291.0605 283.2268 291.2675 283.4438 291.5265 283.6438 292.2655 284.5008 293.4275 284.7118 294.8375 284.6328 295.6365 284.4058 296.3465 284.1008 296.6435 283.6498 296.6985 283.5188 296.8485 283.5458 297.6925 283.3628 298.2945 284.4228 300.1085 284.7618 300.3095 285.3818 300.3645 285.4858 300.4995 285.5698 298.6595 286.0908 295.9735 286.0098 293.1365 284.8428 290.0755 284.8038 289.9715 284.3868 288.8795 284.6388 287.3555 284.4578 285.3505 283.7298 284.5855 282.2598 283.7225 282.4258 280.8625 282.0818 280.1055 281.9988 279.5355 281.8628 278.5995 281.6798 278.2075 280.6698 277.6585 278.4788 277.0585 277.1478 277.5335 276.7908 277.4985 276.1208 276.4565 273.9788 274.7195 273.5438 274.4315 272.8448 274.2155 271.8168 273.8985 271.1768 272.8565 271.1068 272.1595 271.2278 271.6065 271.5368 271.2795 272.1768 270.9575 274.2558 270.3035 276.5128 269.0405 278.2468 267.4835 278.3918 267.3545 280.5648 264.7285 282.5618 262.6555 283.5538 262.7035 284.2388 262.9115 285.1768 262.9025 286.4048 262.5725 287.1988 262.3585 287.7398 262.0925 288.2858 261.8235 289.0138 261.2555 290.0628 259.7755 290.9548 257.8745 291.3058 256.2755 291.3798 255.9365 291.3408 254.4345 290.9178 252.1585 291.1758 251.7335 291.2728 251.6445 291.9338 251.0405 292.1468 250.4995 292.1468 250.4995 292.2378 250.2675 292.2218 249.6695 291.6688 248.4065 291.7148 246.7385 291.2568 246.2295 291.2068 245.9505 291.8268 245.2395 291.8978 244.5455 291.4068 243.5765 290.4278 242.1665 289.6438 241.3995 289.3998 240.4485 288.7108 239.7115 288.4988 238.6095 288.2168 238.2555 286.9618 237.6045 285.5068 236.5175 284.8758 234.9335 283.5948 233.4065 283.6018 233.1015 283.9118 232.6625 283.9478 232.3015 283.8918 232.1595 283.6338 231.5175 284.0698 231.1875 284.1618 231.1185 285.7588 230.7395 285.8918 229.6235 287.5718 228.8745 287.9418 228.6065 288.0208 228.5485 288.2908 228.0325 288.2998 227.5855 287.0308 226.3285 286.8538 225.8775 287.0528 225.1375 287.8968 224.1795 288.1508 223.8915 288.9378 223.3855 289.6088 223.1375 292.0938 222.7785 292.7658 222.5315 293.5228 221.6895 294.0078 221.4755 297.3138 220.7985 297.9148 220.4375 298.4018 219.7935 298.4138 219.7775 298.8628 219.2265 299.5178 217.9355 300.9938 217.1425 302.3258 216.4275 302.4848 215.8705 302.4328 214.8645 301.1468 213.7255 300.5798 213.2225 300.4778 212.8995 299.9178 211.1215 299.5558 210.7035 297.8768 209.5145 294.4158 208.6225 292.9668 207.0275 292.1758 206.5255 291.5788 206.1465 288.1058 203.9465 287.5278 203.1885 286.4208 201.1535 285.8678 200.9925 285.2748 201.0555 282.5428 202.5295 282.4358 202.4585 282.3848 202.4225 282.1418 202.2605 281.9298 201.7345 281.8688 200.5005 281.8698 200.5005 281.8258 199.6095 281.8218 190.6985 281.8148 178.7965 281.8148 177.6825 281.6168 176.3745 281.5638 167.7945 281.6038 166.9075 281.6978 164.7775 281.8888 164.5565 282.9328 164.2065 288.6308 163.0145 290.3098 162.5255 290.5008 162.3065 290.3608 161.8555 289.9518 161.8765 289.7788 161.4875 289.4158 161.3065 289.0878 161.5815 288.8298 161.5555 288.7448 161.4235 289.2278 160.9575 289.0808 160.7165 288.0898 160.7615 287.6878 160.3425 287.5638 160.0375 287.8108 159.5015 287.5618 159.0415 287.8938 158.5275 287.7288 158.0695 287.8448 157.6385 287.5288 157.3085 286.9008 157.4475 286.6658 157.3565 286.7058 156.3405 286.4088 156.0955 286.8058 155.6265 287.1618 153.7935 288.0168 153.1945 288.2748 153.0125 288.3408 152.7305 288.5078 152.0225 288.7088 151.6795 289.0428 151.7035 289.4948 151.3885 290.7188 151.2925 291.1668 151.3015 291.5228 151.8415 292.7308 152.5615 293.5308 153.2745 294.4758 152.8835 295.2138 152.6125 295.4958 152.6995 296.8638 153.6285 297.5818 154.4215 298.1928 154.3935 298.5178 154.4005 299.2848 154.7035 299.5668 154.9125 299.8768 155.7395 300.5258 155.8325 300.9708 155.9655 301.0078 156.1705 300.8928 156.5715 300.7328 157.0445 302.3648 158.3965 302.5608 158.2925 302.8158 157.4095 303.3608 158.1135 303.8528 158.3835 304.0818 158.7995 303.9268 159.0565 303.2528 159.4545 304.0338 160.2485 304.0798 161.2465 304.3558 161.4455 305.6248 161.4505 305.8008 161.3015 306.2828 161.1935 306.4348 161.6895 306.5928 161.9795 306.7988 161.8205 307.0898 161.4995 307.7518 161.0615 307.9958 161.0665 308.5018 162.1425 308.9818 162.6025 309.5918 162.6155 309.9678 162.2135 310.2958 162.0575 310.7018 162.0655 311.6738 162.3305 312.0048 162.0515 312.4728 161.1615 312.8988 160.2685 313.1638 159.2495 312.8608 158.2195 312.7068 157.7665 312.6378 157.1915 312.7248 156.9065 313.1008 156.4635 313.7538 156.3955 314.3648 156.4095 314.9328 156.5025 315.4128 156.9215 315.8448 157.6685 316.1598 158.2075 316.3988 158.4185 316.6848 158.3835 317.1318 158.4345 317.1818 157.9845 316.6798 156.6635 316.5198 155.9565 316.3298 155.7945 316.0068 155.6795 315.2848 155.1455 312.7468 153.9035 312.1318 153.3725 311.7998 152.7375 311.4618 152.4055 311.3218 151.8605 310.8768 151.3975 311.0268 150.3835 310.3918 149.7635 309.8328 149.7095 309.2698 149.8925 308.8908 149.6825 308.4588 149.4435 307.8988 149.4325 307.3308 149.8545 306.7698 149.9295 305.6318 149.7125 304.7598 149.1965 304.2138 149.5545 303.7388 149.6325 302.8578 149.5065 301.6178 148.9625 300.9718 148.9495 299.0968 147.8945 298.7538 147.8235 298.0148 148.1335 296.2998 147.6885 295.7068 147.1575 295.4628 146.4165 294.7388 145.9915 294.4128 145.0095 292.9988 142.1665 292.6198 141.7265 292.7228 140.7755 293.4308 139.8365 293.2418 139.5515 292.8768 139.4575 292.8138 139.5085 291.8048 140.3245 290.8578 140.3295 289.9988 140.1395 289.2588 139.4095 288.3808 139.0255 286.7228 136.6105 284.1898 133.7475 282.4278 131.0505 278.2118 125.8155 277.2858 124.5635 276.4708 124.2895 276.3878 124.1355 276.7808 123.9055 276.8478 123.6895 276.3858 123.0525 274.6488 121.3315 272.7028 117.9155 272.6718 117.3525 272.9888 116.4485 272.8238 116.0765 272.9398 115.6025 272.4498 115.1565 272.3578 115.1565 271.1028 114.5065 270.4498 114.7985 270.2788 114.6405 269.8988 114.2905 269.5748 114.2845 268.9198 114.7065 268.3378 114.7175 268.0128 114.9065 267.8228 115.1575 267.6588 115.3755 267.1808 115.5625 266.5178 115.2685 266.2858 115.1565 265.7268 114.8845 265.2388 114.3345 260.7728 108.2105 259.2448 106.7535 258.9358 106.2575 258.6988 105.8765 258.1738 105.3975 257.9038 105.6235 257.8318 106.0125 257.0128 106.0125 256.6028 106.0125 256.4978 105.8795 256.8038 105.6675 257.3878 105.5925 257.6068 105.3575 257.5678 105.1615 257.2908 104.9405 256.4778 104.5795 255.8488 104.7415 255.2298 104.3405 255.2248 104.6435 255.5568 105.4075 255.4458 105.5565 255.1668 105.4875 254.4088 104.3125 253.8078 104.1855 253.4908 105.0685 253.0778 105.2985 252.7758 105.8075 252.1658 106.8425 251.1018 107.2345 250.5498 108.0055 249.9798 108.5365 249.4168 108.6565 249.2398 108.8925 248.2238 109.0045 248.1328 109.2855 248.2138 109.5895 248.1028 109.7405 247.7408 109.5165 247.5148 110.0975 247.1308 109.8305 247.4008 109.1205 247.7078 108.7805 248.6478 108.4955 248.9228 108.4105 250.0348 107.7605 250.6918 107.1425 251.2468 106.2645 251.2988 105.6815 251.4768 105.4235 252.2988 105.3505 253.4568 103.9075 253.9858 103.8215 254.7158 104.1685 254.8028 103.9665 255.2158 103.8005 256.0718 104.2485 256.6348 104.1285 257.2038 104.6075 257.2938 104.6825 257.3188 104.6215 257.4438 104.3335 255.2098 101.7205 255.0958 102.0855 255.5988 102.8745 255.2748 102.9115 254.9348 102.6675 254.6078 101.5575 254.3768 101.2075 254.5528 101.0155 254.6298 101.0265 254.7258 101.0395 254.5808 100.6915 254.4178 100.4975 254.4148 100.4975 251.1738 96.6465 250.0158 94.8925 249.6338 94.5405 249.4358 94.7755 250.3338 96.6235 250.6368 97.5335 250.5608 97.7075 250.3728 97.6445 249.8748 97.8985 249.8418 97.6645 250.1548 96.8235 250.0748 96.4715 249.5708 95.6445 248.9998 95.0275 249.0258 94.7465 248.7508 94.3955 248.5878 93.8935 246.3548 90.5835 243.3508 86.8485 242.9458 86.4955 242.8318 86.8625 241.4028 85.8625 241.3868 85.5705 241.6668 85.6495 242.1338 86.0695 242.4988 86.1425 242.5288 85.7085 240.2128 83.3935 239.2898 81.7525 236.8618 78.3315 236.2998 77.7335 236.0338 77.4505 234.9888 75.3105 233.1988 72.5075 231.5228 69.2945 230.4898 67.7165 230.3808 67.4405 229.9498 66.3645 229.6458 65.1675 229.3288 64.6855 227.5588 60.5175 227.3798 60.8615 228.7468 64.6105 228.6528 64.9995 228.3188 64.3435 226.9878 61.1145 227.1568 60.0345 227.0848 59.1665 226.2038 57.4625 225.9988 56.6575 224.9428 54.2835 224.0168 52.2045 223.6838 51.1715 223.6858 51.1715 223.3588 50.1565 222.2558 47.4515 222.1278 47.4995 221.9298 47.5765 221.6068 48.8055 221.4748 48.9335 220.8698 48.8815 220.5078 48.6155 220.3248 47.8965 219.5788 47.2555 219.2328 45.8205 218.9198 45.1005 218.5928 45.1325 218.8678 44.2835 218.8898 44.2115 219.2598 44.0865 219.3288 43.8285 218.5078 41.0415 218.6898 40.4595 218.6078 40.2415 218.2218 39.9535 217.8688 39.1025 217.2138 36.6865 217.3328 35.9945 218.1368 38.0205 218.3858 39.3905 218.6518 39.8045 218.7248 39.5325 218.5138 37.9575 218.1658 36.7025 217.9718 35.2685 217.4508 33.9385 217.4618 33.2745 217.4628 33.1595 218.1228 33.8625 218.6558 35.7565 218.9228 37.9655 219.5838 41.0855 219.6298 42.3845 219.8298 42.6275 220.1048 42.5625 220.4628 41.6465 220.9688 41.3855 219.7458 37.9635 219.0768 35.1355 216.8718 30.8965 216.4828 30.4505 215.2998 29.0935 213.3568 27.3505 212.4098 27.0315 211.3988 26.8105 211.2968 27.0045 211.3248 27.3665 212.6408 28.8305 212.8938 29.2925 212.5428 30.7285 213.0258 31.1955 213.3748 31.7915 213.4948 32.4485 213.2008 34.2455 213.2158 35.3265 213.9318 37.4085 214.0868 37.8645 213.8748 38.8425 212.9298 40.1955 212.8508 40.3655 212.0658 40.7645 211.0888 40.9655 210.4248 41.0845 209.8358 40.8495 209.5578 40.7245 209.0368 40.7815 208.4028 41.3135 207.2108 41.4025 206.2308 41.8425 205.3578 42.5295 205.1798 42.6715 204.7548 42.7985 202.8988 42.8515 202.1768 42.7555 201.9078 42.9935 201.5338 43.5455 201.2928 43.7795 201.0948 44.0665 200.5318 44.5645 200.0678 44.9425 198.5268 44.8205 198.1638 44.8635 197.4358 45.1885 197.1228 45.8655 196.5888 46.4175 195.8408 46.8765 195.2778 47.4715 194.3838 47.5535 193.7368 47.3495 192.8698 47.3115 192.0758 47.2505 191.4648 47.8195 190.3478 48.2615 189.5488 48.4895 188.8518 48.4045 188.4268 47.8425 188.3598 47.4795 188.1728 47.1145 187.7438 46.8895 186.6608 46.7045 185.8458 46.4495 185.3808 45.9495 185.2648 45.1605 185.0768 44.8425 184.5508 44.5205 183.9508 44.3415 183.5708 44.0945 183.2388 43.7515 182.1468 43.1655 181.8838 42.5465 181.6258 42.1325 181.1318 41.3515 180.8948 41.0575 180.5618 40.7875 179.9108 40.7525 179.5948 40.9165 179.3948 41.4445 179.3038 42.0975 178.4418 41.7165 178.0228 41.6305 177.6268 41.7435 177.1868 42.1835 176.9218 43.0615 176.3538 43.2235 175.4228 43.1565 175.2328 43.0505 173.9368 42.3305 173.3208 42.1895 172.9268 42.2095 171.9578 42.8135 171.1188 42.6285 170.5538 40.9745 170.3988 40.8145 170.0008 41.0185 168.9928 41.1455 168.2008 41.1335 168.1938 41.1305 167.7428 41.1235 166.6108 41.3215 165.6958 40.9665 165.0738 40.9585 164.6358 41.2005 164.0678 41.7525 163.6418 41.0665 163.5288 40.3745 163.0998 40.0565 162.7278 39.8645 162.0478 39.7295 161.6138 39.5975 161.3738 39.0965 161.1278 38.9675 160.6958 38.7755 160.5178 38.1995 161.8918 37.7965 162.2068 37.4895 162.1908 36.9885 162.5978 36.3145 162.4828 35.6895 162.1828 35.0015 162.4298 34.4355 162.2038 33.7615 161.8058 33.2675 161.0318 32.9915 160.2278 32.7305 159.5538 32.0355 159.0598 31.8415 158.3158 31.7065 157.1328 31.4265 156.4548 31.4285 156.1478 31.1755 156.0868 30.6805 155.4828 29.8585 155.0558 29.4785 154.4378 29.2205 153.4448 29.0825 152.5158 29.1295 152.0448 28.6525 151.7228 27.7495 151.1188 26.5575 150.7488 26.3025 150.1948 25.9215 150.1398 25.4225 150.4488 24.9465 150.8058 23.9145 150.8258 23.4405 149.9528 22.0065 149.5638 21.6055 149.3038 21.4955 149.0648 21.6245 147.6758 23.0125 145.7628 23.4725 145.5648 23.5765 145.3238 23.7025 144.5898 24.4945 143.9268 24.9605 143.2648 25.1875 142.6728 25.2045 141.9778 25.0375 140.6338 24.2945 137.4998 20.8655 136.1388 20.1105 135.6988 19.8665 132.4518 18.7415 130.6218 17.9515 130.1818 17.3925 129.6848 16.2275 126.3798 17.3145 125.9348 17.0535 119.8538 13.5005 119.5648 13.4565 115.6688 15.8475 109.0068 19.9395 105.4788 22.0075 97.8868 26.4595 95.0248 25.2615 90.9398 23.5555 89.8998 23.1795 83.9068 21.0165 74.8508 17.7515 72.7088 16.9795 70.6638 16.2435 68.8688 15.2865 66.9758 14.2785 62.2118 12.0915 61.9338 11.9475 56.6378 9.2115 51.3348 9.2335 50.7298 9.0115 41.4888 5.6145 40.9918 5.2935 40.4358 4.3135 40.2248 4.0405 38.6438 2.0035 37.9408 1.3115 37.2318 1.1195 33.1968 0.4995"></polygon>
            <polygon id="Stroke-30" stroke="#E75F52" stroke-linecap="round" stroke-linejoin="round" points="316.6798 156.6631 316.5208 155.9571 316.3288 155.7951 316.0068 155.6801 315.2838 155.1451 312.7458 153.9041 312.1318 153.3721 311.7998 152.7371 311.4608 152.4051 311.3218 151.8611 310.8768 151.3971 311.0268 150.3831 310.3918 149.7641 309.8328 149.7091 309.2698 149.8921 308.8908 149.6831 308.4588 149.4431 307.8998 149.4331 307.3308 149.8541 306.7698 149.9291 305.6318 149.7121 304.7598 149.1971 304.2138 149.5541 303.7388 149.6321 302.8578 149.5061 301.6178 148.9621 300.9718 148.9501 299.0968 147.8951 298.7538 147.8231 298.0148 148.1331 296.2998 147.6881 295.7068 147.1571 295.4628 146.4171 294.7388 145.9911 294.4118 145.0091 292.9988 142.1661 292.6198 141.7261 292.7238 140.7761 293.4308 139.8361 293.2418 139.5511 292.8768 139.4571 292.8148 139.5081 291.8048 140.3251 290.8578 140.3291 289.9988 140.1391 289.2578 139.4101 288.3808 139.0251 286.7228 136.6111 284.1898 133.7471 282.4278 131.0501 278.2118 125.8161 277.2848 124.5641 276.4708 124.2891 276.3878 124.1361 276.7808 123.9051 276.8478 123.6891 276.3858 123.0531 274.6488 121.3311 272.7028 117.9161 272.6708 117.3521 272.9898 116.4481 272.8238 116.0771 272.9398 115.6021 272.4508 115.1561 272.3588 115.1561 271.1028 114.5071 270.4508 114.7991 270.2798 114.6411 269.8988 114.2901 269.5758 114.2841 268.9198 114.7061 268.3378 114.7171 268.0128 114.9061 267.8238 115.1571 267.6588 115.3761 267.1808 115.5621 266.5178 115.2681 266.2858 115.1561 265.7268 114.8851 265.2398 114.3351 260.7738 108.2111 259.2448 106.7531 258.9358 106.2581 258.6988 105.8761 258.1738 105.3981 257.9048 105.6231 257.8318 106.0121 257.0128 106.0121 256.6028 106.0121 256.4968 105.8791 256.8038 105.6681 257.3878 105.5931 257.6078 105.3581 257.5678 105.1621 257.2908 104.9401 256.4778 104.5791 255.8488 104.7411 255.2308 104.3411 255.2248 104.6431 255.5568 105.4081 255.4468 105.5571 255.1658 105.4881 254.4088 104.3121 253.8078 104.1851 253.4908 105.0681 253.0768 105.2981 252.7758 105.8081 252.1658 106.8421 251.1018 107.2351 250.5488 108.0051 249.9798 108.5371 249.4168 108.6571 249.2398 108.8921 248.2238 109.0041 248.1328 109.2851 248.2138 109.5891 248.1028 109.7401 247.7408 109.5171 247.5148 110.0981 247.1308 109.8311 247.4018 109.1211 247.7078 108.7801 248.6478 108.4951 248.9228 108.4111 250.0338 107.7601 250.6918 107.1421 251.2468 106.2651 251.2988 105.6811 251.4768 105.4241 252.2988 105.3511 253.4558 103.9071 253.9858 103.8221 254.7148 104.1681 254.8028 103.9661 255.2158 103.8001 256.0718 104.2481 256.6348 104.1281 257.2038 104.6071 257.2938 104.6821 257.3198 104.6221 257.4448 104.3341 255.2088 101.7201 255.0958 102.0861 255.5988 102.8751 255.2758 102.9121 254.9348 102.6681 254.6088 101.5581 254.3768 101.2071 254.5528 101.0161 254.6298 101.0261 254.7258 101.0401 254.5798 100.6921 254.4168 100.4981 254.4148 100.4981 251.1738 96.6471 250.0158 94.8931 249.6338 94.5401 249.4358 94.7751 250.3338 96.6231 250.6368 97.5331 250.5608 97.7071 250.3728 97.6441 249.8738 97.8981 249.8418 97.6651 250.1558 96.8231 250.0758 96.4721 249.5718 95.6441 248.9988 95.0271 249.0258 94.7471 248.7508 94.3951 248.5868 93.8931 246.3548 90.5841 243.3508 86.8491 242.9468 86.4961 242.8318 86.8621 241.4028 85.8621 241.3868 85.5711 241.6658 85.6501 242.1338 86.0691 242.4988 86.1421 242.5288 85.7081 240.2128 83.3931 239.2888 81.7531 236.8628 78.3321 236.2998 77.7331 236.0338 77.4511 234.9898 75.3101 233.1998 72.5071 231.5228 69.2941 230.4908 67.7171 230.3798 67.4401 229.9508 66.3641 229.6458 65.1681 229.3288 64.6851 227.5588 60.5171 227.3798 60.8621 228.7468 64.6111 228.6538 64.9991 228.3188 64.3431 226.9878 61.1151 227.1568 60.0351 227.0838 59.1661 226.2028 57.4621 225.9988 56.6571 224.9428 54.2841 224.0168 52.2051 223.6838 51.1711 223.6858 51.1711 223.3588 50.1571 222.2558 47.4511 222.1278 47.5001 221.9298 47.5761 221.6078 48.8061 221.4748 48.9341 220.8698 48.8811 220.5078 48.6151 220.3248 47.8961 219.5778 47.2561 219.2328 45.8201 218.9198 45.1001 218.5928 45.1331 218.8668 44.2841 218.8898 44.2111 219.2598 44.0871 219.3288 43.8281 218.5078 41.0411 218.6908 40.4591 218.6078 40.2411 218.2218 39.9531 217.8678 39.1021 217.2138 36.6861 217.3328 35.9951 218.1368 38.0191 218.3858 39.3911 218.6518 39.8051 218.7248 39.5331 218.5138 37.9581 218.1648 36.7021 217.9718 35.2681 217.4508 33.9381 217.4618 33.2741 217.4628 33.1591 218.1228 33.8631 218.6568 35.7571 218.9218 37.9651 219.5838 41.0851 219.6298 42.3841 219.8288 42.6271 220.1048 42.5621 220.4618 41.6461 220.9688 41.3851 219.7458 37.9631 219.0768 35.1361 216.8718 30.8961 216.4828 30.4501 215.2998 29.0941 213.3568 27.3511 212.4098 27.0321 211.3988 26.8101 211.2968 27.0051 211.3248 27.3661 212.6408 28.8301 212.8948 29.2931 212.5418 30.7281 213.0258 31.1951 213.3748 31.7911 213.4938 32.4481 213.2008 34.2451 213.2158 35.3261 213.9318 37.4091 214.0868 37.8641 213.8738 38.8431 212.9298 40.1951 212.8508 40.3651 212.0668 40.7651 211.0888 40.9661 210.4248 41.0841 209.8358 40.8501 209.5578 40.7251 209.0368 40.7811 208.4028 41.3131 207.2108 41.4021 206.2308 41.8421 205.3578 42.5301 205.1798 42.6711 204.7548 42.7991 202.8988 42.8511 202.1768 42.7561 201.9088 42.9931 201.5338 43.5451 201.2918 43.7801 201.0938 44.0661 200.5318 44.5641 200.0678 44.9421 198.5268 44.8201 198.1638 44.8631 197.4358 45.1881 197.1218 45.8651 196.5888 46.4181 195.8408 46.8771 195.2778 47.4721 194.3838 47.5541 193.7368 47.3501 192.8698 47.3111 192.0758 47.2501 191.4638 47.8191 190.3478 48.2611 189.5488 48.4891 188.8518 48.4041 188.4268 47.8431 188.3608 47.4791 188.1728 47.1141 187.7428 46.8901 186.6608 46.7041 185.8458 46.4491 185.3798 45.9501 185.2648 45.1601 185.0768 44.8431 184.5508 44.5201 183.9508 44.3421 183.5708 44.0951 183.2388 43.7511 182.1468 43.1651 181.8838 42.5461 181.6248 42.1321 181.1308 41.3511 180.8948 41.0581 180.5618 40.7871 179.9108 40.7521 179.5948 40.9161 179.3948 41.4441 179.3038 42.0981 178.4428 41.7161 178.0228 41.6311 177.6268 41.7431 177.1868 42.1841 176.9218 43.0611 176.3548 43.2241 175.4228 43.1561 175.2328 43.0511 173.9368 42.3301 173.3218 42.1891 172.9268 42.2091 171.9578 42.8131 171.1188 42.6291 170.5538 40.9751 170.3988 40.8141 170.0008 41.0181 168.9928 41.1451 168.2008 41.1341 168.1938 41.1301 167.7428 41.1231 166.6108 41.3211 165.6958 40.9671 165.0738 40.9581 164.6348 41.2001 164.0678 41.7521 163.6418 41.0661 163.5298 40.3741 163.0998 40.0571 162.7288 39.8641 162.0478 39.7291 161.6148 39.5981 161.3738 39.0971 161.1278 38.9681 160.6968 38.7751 160.5178 38.1991 161.8918 37.7971 162.2068 37.4901 162.1908 36.9881 162.5978 36.3141 162.4828 35.6891 162.1828 35.0011 162.4298 34.4351 162.2028 33.7611 161.8058 33.2681 161.0318 32.9911 160.2278 32.7301 159.5538 32.0361 159.0598 31.8421 158.3158 31.7061 157.1328 31.4271 156.4548 31.4291 156.1478 31.1761 156.0868 30.6811 155.4838 29.8581 155.0548 29.4781 154.4368 29.2211 153.4448 29.0821 152.5158 29.1301 152.0458 28.6521 151.7228 27.7491 151.1188 26.5581 150.7498 26.3031 150.1948 25.9211 150.1398 25.4231 150.4488 24.9461 150.8058 23.9141 150.8258 23.4401 149.9528 22.0061 149.5638 21.6051 149.3038 21.4961 149.0638 21.6251 147.6758 23.0131 145.7628 23.4731 145.5648 23.5771 145.3248 23.7031 144.5898 24.4951 143.9258 24.9601 143.2648 25.1871 142.6728 25.2051 141.9778 25.0371 140.6338 24.2941 137.4998 20.8661 136.1388 20.1101 135.6988 19.8661 132.4518 18.7411 130.6208 17.9521 130.1818 17.3931 129.6848 16.2271 126.3798 17.3141 125.9348 17.0541 119.8538 13.5001 119.5658 13.4561 115.6688 15.8481 109.0068 19.9391 105.4788 22.0071 97.8868 26.4591 95.0248 25.2621 90.9398 23.5551 89.8998 23.1791 83.9068 21.0171 74.8498 17.7521 72.7088 16.9791 70.6638 16.2431 68.8688 15.2871 66.9748 14.2781 62.2118 12.0921 61.9328 11.9481 56.6378 9.2121 51.3338 9.2331 50.7298 9.0111 41.4898 5.6141 40.9918 5.2931 40.4368 4.3131 40.2248 4.0401 38.6438 2.0041 37.9408 1.3111 37.2318 1.1201 33.1968 0.5001 32.7358 0.5211 32.3768 0.8081 32.0758 1.9891 31.6728 2.7491 31.3898 3.1991 28.4348 7.9041 28.0588 8.7561 26.4948 11.1771 24.9498 13.9681 25.7238 13.9341 26.2828 14.5021 26.7568 14.6801 27.3148 15.2691 27.5178 16.8531 27.4078 17.2641 27.1218 17.6731 26.5788 17.8631 26.0768 18.3131 25.2758 18.5451 23.2428 18.1591 23.0718 18.0061 22.9458 17.5281 22.6248 17.2341 22.0858 16.7411 21.8678 16.9341 21.2838 16.8431 20.9368 17.0571 20.8908 17.2721 21.1258 17.6211 21.0158 17.8371 20.2798 17.8311 19.5578 18.8211 20.3508 19.8031 21.1268 20.1351 21.6218 20.5071 22.3148 20.5781 22.6588 20.7761 24.1108 22.4821 24.9828 22.9321 25.2158 23.0521 25.6028 23.3801 25.7948 23.8151 25.7028 24.4861 25.3538 24.8731 24.5748 24.9101 24.2048 25.0801 24.0488 25.5561 23.2498 25.3961 23.0358 25.8501 24.4298 26.5761 24.5568 26.9251 24.3378 27.3121 23.7308 27.5031 23.7228 28.4341 23.5048 28.6711 23.0298 28.6011 22.5988 28.2511 22.7098 27.8411 22.4528 27.4711 22.1848 27.4381 22.0648 27.4241 21.8468 27.5731 21.5248 27.2891 21.0288 27.1331 20.4218 27.1491 20.1178 27.4291 19.2738 27.3131 18.7948 27.6991 18.5818 27.1991 18.2588 27.0881 17.3928 27.1451 17.2178 27.4261 16.8078 27.2491 16.4348 27.9181 15.9578 27.9131 15.8918 28.1511 16.6208 28.9161 16.7268 29.2421 16.6388 29.5441 16.2898 29.7591 15.4678 29.7081 14.8668 29.1621 14.5658 29.1271 14.2618 29.0921 13.9828 28.8291 13.7738 27.8521 14.2088 27.4881 14.1678 27.1841 13.5678 26.5511 13.2198 26.6351 12.6828 26.2841 12.0118 26.2351 11.6628 26.4921 9.7988 26.1501 9.0708 26.0171 8.8098 26.1661 7.7918 26.1801 9.2578 26.9711 9.6438 27.4511 9.5858 27.5651 9.1378 28.4651 8.0328 28.6941 7.8348 29.0611 7.5518 29.2541 6.7298 29.3551 6.1638 29.6541 4.7788 29.8601 4.4508 30.2041 4.0258 30.4251 3.6258 30.6311 2.3908 30.8821 1.4998 31.4161 1.9958 31.5941 3.5568 31.1941 3.7968 31.0171 3.9058 30.9361 4.2558 30.9241 4.4038 30.9191 5.2228 31.2281 5.7168 31.6431 8.2188 32.7261 9.3638 33.0591 9.6858 33.3221 10.3628 35.0011 12.8518 35.0591 13.8688 35.5031 14.0168 35.5671 14.7298 35.6161 15.7988 35.3201 15.9438 35.2801 16.5188 36.4111 16.4948 36.5471 16.4508 36.8011 15.0688 36.5081 14.9778 37.1791 15.1468 37.5911 15.4698 37.8321 15.7268 38.2681 15.8948 38.8321 16.3268 38.8141 17.6648 39.2371 18.8268 39.9401 18.9088 39.8211 19.3178 39.2181 19.3968 39.1011 20.0268 38.7811 20.5888 38.7221 21.3468 38.7271 22.1638 39.2551 22.9878 39.1101 23.3548 39.1571 23.6758 39.4841 24.3468 39.4471 24.7538 39.9481 26.0748 39.8301 26.5198 40.9171 26.9468 41.5491 27.9988 42.5331 28.5878 43.4271 28.6178 43.4711 28.5698 44.0771 28.1028 45.6111 28.2238 46.5871 27.9888 47.3041 28.4668 48.5831 28.8728 50.4991 28.9258 50.7501 29.1748 51.9261 29.0208 52.2921 27.9548 52.9981 27.2648 52.8191 27.1988 53.0131 27.4338 53.3401 27.3778 53.4531 27.1478 53.9231 26.6718 53.9611 26.2788 54.4561 26.6678 54.4381 27.0768 54.6161 27.1408 54.7891 26.7898 55.3501 26.3148 55.3241 26.1178 55.6471 25.9018 55.6231 25.5938 56.2061 25.9588 56.4691 25.7148 57.2461 24.8898 57.7371 24.9158 57.8631 24.9308 57.9331 25.0588 57.9801 25.4698 58.1331 25.6668 57.8101 26.4688 57.5791 26.6908 56.9311 27.0368 56.7831 27.0458 55.6991 27.5338 55.6041 27.9978 55.5131 28.6518 54.9331 29.0858 54.7641 30.9178 55.4091 31.2398 55.7361 31.3438 56.0611 31.2088 56.8181 30.6668 57.0311 30.3178 57.3531 30.1378 58.2401 29.4908 58.1251 29.3758 58.8621 29.1778 59.2921 28.9168 59.5071 27.8598 59.3031 27.6418 59.6051 26.9078 59.5341 26.8638 59.5971 26.7908 59.7051 26.7318 59.7921 26.8978 60.5741 26.6368 60.8321 25.9208 61.1501 24.9258 61.2281 24.8608 61.3791 25.2218 62.0751 25.1338 62.2921 25.2188 62.4881 24.6728 63.1981 24.2838 63.2161 23.8968 62.9541 23.8338 62.7581 23.6758 62.9101 22.9628 63.5951 21.8798 63.9971 20.1178 65.4771 19.4908 65.4941 19.3428 65.3651 18.9108 64.9901 18.6778 64.4241 18.2238 64.5071 17.5988 64.3091 17.0338 64.7361 17.0528 64.9101 16.7698 65.2971 16.8098 65.6441 16.4188 65.9221 16.1338 66.4611 14.6848 66.7091 14.6398 66.9051 15.3058 67.3651 15.5818 67.9091 15.2118 68.2741 15.7038 68.7971 15.7198 69.5601 15.7198 69.5781 15.7378 69.5951 15.9558 69.8181 16.3878 69.8861 16.6018 70.0611 16.4928 70.3211 16.7838 70.5111 17.2008 70.7811 17.3858 72.0391 17.7068 72.3461 17.6158 73.0811 17.1348 73.8131 16.5708 74.1121 16.3358 73.6551 15.7328 73.5851 15.9818 74.8441 15.7418 75.7021 15.4488 76.7461 15.1008 77.1321 14.7328 77.3241 13.6538 77.1421 13.4618 76.7071 13.2038 76.6181 13.1008 76.8701 12.8958 77.3741 12.6568 77.6531 12.3748 77.7161 11.5628 79.3771 11.2378 79.5691 11.0588 80.3261 10.8408 80.6491 10.4518 80.6021 10.1898 81.0561 9.8898 80.7271 9.5668 80.7471 8.9368 81.1971 8.5838 82.0381 8.6258 82.3421 8.8628 82.3661 9.1848 82.6931 9.4228 82.5861 9.6368 82.8701 10.0888 83.0261 10.3868 83.5481 11.1588 84.3561 11.2178 84.4541 11.6698 85.2041 12.0498 86.3111 11.6138 86.9791 11.3698 87.2011 10.4598 88.0321 10.9858 89.8991 10.6978 90.8501 10.7768 91.8041 11.8588 94.1951 11.8298 95.0611 12.0618 96.0171 11.9928 96.5581 13.0348 97.9761 13.4658 98.5621 14.3408 100.5001 14.5268 100.9101 14.5858 101.5811 15.1848 102.3231 15.8528 105.1661 16.4088 105.7781 16.4448 106.7521 17.8318 108.5181 18.2588 109.2151 18.4938 109.3031 18.6638 109.7161 18.9058 109.9261 19.8208 110.7231 20.0758 111.1591 20.4108 112.4391 20.9228 113.1801 22.7188 115.0581 22.8958 115.1571 23.3848 115.4321 24.0708 116.0661 24.3458 116.6741 26.2018 119.0081 26.7968 120.1831 26.7068 120.5291 27.3678 121.4441 27.7488 122.2481 27.9508 123.5931 27.8198 124.0031 27.5368 124.1311 27.3398 124.5411 28.6928 125.2241 28.8458 124.9871 28.8258 124.6841 29.1728 124.4911 29.7768 124.4541 30.4648 124.6541 30.9358 125.0701 31.0378 125.7211 31.3808 125.9401 31.5058 125.9401 32.8468 125.9321 33.4278 126.0671 34.2708 125.9021 35.1258 126.6461 36.1378 126.7631 36.6958 127.1581 37.7108 126.8851 38.4418 127.1741 38.5638 127.2171 38.9358 127.3521 39.9268 127.3611 40.7718 126.9361 41.1588 126.9831 42.1008 127.7491 42.1798 128.5521 42.4158 128.6191 42.5908 128.3611 43.0428 128.4301 43.9758 127.8321 44.2748 128.0301 44.4428 128.6391 46.1578 129.6301 46.5448 129.6551 46.8068 129.4411 47.0938 128.6421 47.5468 128.5591 48.3248 128.4591 49.2928 128.6201 49.7648 128.8631 50.2128 129.3431 50.6348 129.5181 51.2858 129.7881 52.1048 129.8821 52.3678 129.3431 52.7128 129.3251 53.5948 129.5931 55.0968 130.3231 55.9998 130.4831 58.1218 131.7821 58.8698 132.4171 58.8868 132.8941 59.9418 133.0561 60.7648 133.3301 60.9518 133.3911 61.8078 133.8761 64.3328 135.8511 64.8788 137.3081 64.7658 137.7401 64.5058 137.9961 64.5228 138.3651 66.2178 139.2481 67.6078 140.3251 68.3538 141.1121 68.4798 141.2571 68.5238 141.3091 69.2898 142.2911 69.6668 143.3561 70.1358 143.8161 70.4748 144.4691 70.9748 146.1411 74.8298 150.4051 75.3338 150.7691 75.7698 151.0871 76.1328 151.5451 76.3408 154.2761 76.6368 154.9291 77.4468 155.7821 78.4988 156.0101 78.9698 156.3401 79.1578 156.9041 79.5608 157.4071 79.6918 157.2571 79.5898 156.7361 79.7458 156.2621 81.0858 155.8211 81.3268 155.2781 81.4378 155.0241 82.6178 151.3781 82.6698 150.4041 83.4888 148.3561 84.7968 146.7891 86.0738 146.3051 86.7278 145.4681 86.8428 145.4051 87.1828 145.2121 88.6958 144.8181 89.4548 144.3071 89.9028 143.5631 89.9598 143.4681 89.9028 143.1491 89.5148 142.7911 88.3568 142.3231 88.2538 141.7801 88.4128 141.0671 89.0918 140.0581 89.6578 139.6101 89.9038 139.5731 90.4548 139.4891 90.7748 139.8171 91.6328 140.1951 91.9958 140.5291 92.4428 140.9411 93.5168 141.2561 94.1018 140.9591 94.2798 140.5501 94.2848 140.0521 93.9928 139.1611 94.3478 138.2771 94.6698 138.3681 94.8868 138.1541 95.7698 138.2721 96.0738 138.1011 96.2968 137.3681 97.1098 135.9701 96.8558 135.4691 96.9658 135.2531 98.5068 134.8391 98.5868 134.8171 98.8918 134.4531 99.1608 133.6331 99.3138 133.4401 99.7898 133.3151 100.7598 133.2841 100.9808 132.7231 102.0198 132.3241 102.1978 131.9351 102.1568 131.7401 100.8878 131.4001 100.3268 131.4801 99.5758 131.2981 99.1408 131.5531 98.5638 131.6061 98.5158 131.6101 98.3408 131.8251 97.9088 131.8631 97.3078 131.6401 96.5608 131.0251 96.3928 130.6551 96.4598 130.3741 97.4408 129.4551 98.1718 129.5491 98.3258 129.3561 97.9418 128.8961 97.5318 128.9571 97.3398 128.7811 97.3658 128.4131 97.1988 128.0001 96.7238 128.0161 95.8278 127.1181 95.7248 126.7051 95.8828 126.0361 96.6038 125.2001 97.0218 125.0641 97.1878 125.0111 97.4068 124.6031 97.1528 124.2091 97.0298 123.6231 97.1218 123.1261 96.8658 122.7991 96.0078 122.4861 95.2598 121.9141 94.3338 121.7081 93.3678 121.2651 92.0098 121.3361 91.6188 121.5691 90.3278 121.3601 89.9038 121.4141 89.0968 121.5191 88.6458 121.3841 88.2758 120.9901 87.5158 120.1801 86.9438 119.2641 84.6938 117.8741 84.2838 117.8711 83.8068 118.0811 83.1528 118.8761 82.7628 118.9151 82.6398 118.3721 82.2508 118.4551 82.1058 117.8691 81.4168 117.8171 80.7648 118.2871 79.8828 118.1691 79.4978 117.8181 79.2788 117.7641 79.1318 117.7281 78.8338 117.3571 78.6898 116.7481 77.5918 116.4981 76.0968 115.1571 75.9568 115.0311 75.7108 114.8111 74.8968 114.4341 74.4488 113.8871 74.6018 113.6951 74.4538 113.3891 74.2388 113.3661 74.2338 113.3571 73.8568 112.7111 73.2078 112.8771 72.9108 112.3551 72.5028 112.2641 72.0148 111.3711 71.4318 111.4291 71.0698 111.0571 71.3088 110.8641 71.6108 110.9331 72.0668 110.5041 72.4488 111.2231 73.0038 111.7481 73.4758 112.0361 74.4248 112.1111 74.9368 112.6141 75.2598 112.6611 75.2898 112.6081 75.4348 112.3591 75.5298 111.4721 75.3388 111.1671 75.0128 111.5101 74.4728 111.5041 73.4648 110.9741 72.7218 109.8401 72.1838 109.5961 71.9128 108.7271 71.4418 108.2881 69.3798 107.4221 68.7168 106.9391 67.7638 105.9421 67.6708 105.8451 67.6298 105.8851 67.5848 105.9291 67.3868 106.1241 67.2368 105.6431 67.1348 105.3191 67.5938 104.8051 67.4888 104.5001 66.9088 104.1471 67.4498 104.0451 67.5378 103.8501 67.3478 103.3931 66.8548 103.0631 65.6908 103.0291 65.3258 102.7881 65.0448 102.8721 65.2138 103.1771 65.1688 103.4371 64.9298 103.6451 64.3628 104.1431 64.1038 104.1631 63.9988 103.9441 64.3038 103.5371 64.6398 103.3291 64.7168 103.2811 64.3758 102.8441 64.2918 102.8391 63.8588 102.8171 63.4648 103.3541 63.1218 103.1341 63.6888 102.5341 64.0198 102.4571 65.4838 102.1191 65.8048 102.5121 66.4298 102.4961 66.5368 102.6491 67.1178 102.7421 68.2938 103.8151 67.2118 102.0071 66.8258 100.4991 66.8238 100.4991 66.6338 99.7561 66.5658 99.4881 66.6348 99.0561 66.9378 98.9071 67.0488 98.6701 66.8878 97.5201 67.1508 97.0031 66.9018 96.0691 66.9568 94.7701 67.1788 94.1441 66.9318 92.9721 64.9618 91.2831 64.1898 90.8431 63.1558 90.6151 63.0458 90.4861 62.8778 90.2881 62.7778 89.5501 63.1108 88.6651 63.1138 88.3201 62.8808 87.8631 61.7008 87.1141 61.1478 86.2201 60.4208 85.4331 59.5818 85.0781 59.1508 85.0951 57.9798 85.6461 57.2688 85.4661 56.8768 85.7451 56.5548 85.6541 56.1708 85.1091 55.5698 84.7351 56.2828 84.6991 56.9268 85.1811 57.4278 84.7101 57.8158 84.6051 60.4498 84.6761 61.1788 85.3331 61.4518 86.0291 61.8578 86.4011 62.3748 86.5581 63.8298 88.0241 63.8688 88.4571 63.3178 89.5361 63.3958 89.6171 63.7008 89.9291 64.6058 90.2421 66.0008 91.0141 66.5358 91.4741 67.1178 91.6971 67.1778 92.0871 67.8828 92.7871 68.4618 93.7411 68.4778 93.7681 68.5788 94.4191 68.3778 95.1101 68.0308 95.3021 68.5808 96.4771 68.7648 97.4551 69.5338 98.1991 70.2628 98.6831 70.9738 98.8421 71.5318 99.1291 72.3498 99.3541 72.6318 99.2061 73.4398 99.3331 73.8168 99.3921 73.8368 99.4021 74.8048 99.9221 75.4748 99.8431 75.8168 100.0621 76.2468 100.1321 76.5038 100.3941 77.1968 100.2281 77.7648 99.4981 79.1728 98.9071 79.7978 99.0221 80.2908 99.4171 81.9898 100.0201 82.5748 99.7881 82.7778 100.2851 82.8058 100.3541 82.7388 100.4991 82.7368 100.5021 82.6958 100.5901 82.4358 100.7391 82.1718 100.6861 81.9928 100.6511 81.7468 100.6011 81.6398 100.4981 81.6378 100.4981 81.4258 100.2961 80.9528 100.2041 80.8668 100.4981 80.8668 100.4981 80.8668 100.4991 80.8408 100.5931 81.5238 101.1181 81.8678 101.3831 82.6138 102.2571 82.5688 102.4951 82.7598 102.7571 83.7718 102.9411 84.2428 103.2281 84.5038 103.1441 85.0718 102.4791 85.4378 102.5271 86.3378 103.1211 87.7538 103.7651 87.9748 103.9551 88.4388 104.3581 89.9038 106.0201 90.0588 106.1961 90.8528 106.5731 91.8448 106.7151 92.8088 107.2021 93.1708 107.7041 93.3358 108.4861 93.6328 108.9661 93.2008 108.9611 92.7248 109.1501 92.5498 109.3651 92.6978 109.5841 94.0098 109.9891 94.4208 109.8851 94.9568 110.1291 96.1878 112.0061 97.0738 111.8001 97.0268 112.2321 97.2388 112.5161 97.7138 112.5431 99.2548 113.5801 100.0458 114.2161 101.5708 115.1571 102.6588 115.8291 103.6208 116.5981 105.1458 117.1571 105.7068 117.0991 106.3308 117.2351 104.4928 117.6031 103.9088 117.8781 103.7548 118.1361 103.9438 118.5281 104.2658 118.6201 105.2818 118.4361 107.1578 118.4371 107.9168 118.1431 109.2738 118.2671 110.5918 118.0881 111.7948 118.4291 113.1098 118.4661 113.6248 118.6661 113.9448 118.9961 114.1338 119.3871 114.0638 119.8631 113.9718 120.3811 114.3268 121.3391 115.3708 122.4561 116.5238 123.3361 116.5638 123.6401 116.1378 124.3301 115.9278 124.6721 115.3588 125.3151 114.9028 125.5901 114.9208 125.9151 115.7478 126.5811 117.4628 127.9611 117.9358 128.6771 118.0538 128.8561 117.8798 129.0061 117.5998 128.9591 117.5338 129.1321 117.7018 129.4581 118.2578 129.8991 119.3068 130.4101 120.0578 131.2401 120.1798 131.3731 120.4328 131.8311 120.6018 132.0231 121.7948 133.3651 123.2728 135.7881 123.4298 135.4221 122.9208 134.6791 122.7688 134.0741 122.7348 133.9401 122.8048 133.5951 123.9218 135.6011 124.3708 135.9961 124.8648 136.0671 124.8738 135.9901 124.9838 135.1161 125.2738 134.7941 126.0238 134.6741 126.3768 133.9641 126.6588 133.9031 127.3448 134.1501 127.5638 133.8711 128.1038 133.7911 128.3008 133.5991 128.3988 132.6031 128.6418 132.0871 129.2288 131.7041 129.5098 131.6861 129.7448 131.8841 129.2218 132.2891 128.8158 133.8641 128.5528 134.1641 128.0338 134.3531 127.7048 134.7811 126.7578 134.7051 126.4748 134.9611 125.8278 134.9961 125.6088 135.2971 125.5108 136.2701 125.3568 136.5281 124.8358 136.8041 124.5778 136.7351 124.4308 136.4741 123.6808 136.0531 124.1698 138.4201 123.6128 139.9501 123.2648 140.2061 123.0018 140.6791 122.5258 140.7811 121.4568 141.9161 121.0368 142.7551 120.9658 143.2521 120.7028 143.6601 120.3788 143.7641 119.9858 144.2141 119.7748 145.6191 120.2038 145.9511 120.3728 146.0811 120.4338 146.3641 120.1708 146.7931 120.2938 147.3361 119.6398 148.0201 119.6798 148.3241 119.8488 148.5211 120.8428 148.2521 121.4218 148.4981 121.9108 149.0451 121.9498 149.3921 121.8158 149.7591 121.3588 150.1651 121.5058 150.5131 122.2928 151.2591 122.5938 151.3711 123.1358 151.0971 123.6898 151.5801 123.9048 151.6041 124.2228 152.0631 124.3458 152.5191 124.8138 153.0181 124.9418 153.1541 124.8268 153.8241 125.5658 155.0241 125.8868 155.2891 128.1528 156.6171 129.2818 157.6051 129.6688 157.6101 129.8148 157.9371 130.6248 158.6621 130.7498 158.5431 130.3808 158.1601 130.3378 157.8291 130.5718 157.8801 131.2298 158.4751 132.2248 158.1191 132.4348 158.5561 131.9328 159.1551 132.1428 159.5911 133.0758 160.6851 137.0678 160.0021 137.2218 159.6801 137.9298 159.9471 138.4908 159.8261 139.3928 159.9671 140.7858 160.5261 141.2978 160.5511 141.4308 160.5571 142.5448 161.0481 143.1038 161.0771 143.4738 160.7141 143.8168 160.8491 143.9818 161.4781 144.3888 161.6571 145.4628 161.8021 145.7238 161.5451 146.1928 161.9631 147.0818 162.1711 151.2148 163.1361 151.3448 163.0721 151.1978 162.7891 151.2648 162.6391 151.3578 162.6331 151.8678 162.6031 152.1738 162.2181 152.4098 162.3081 152.4458 162.8271 152.2488 163.0641 152.4088 163.2051 152.5468 163.3271 152.9108 163.4201 153.7428 163.9941 153.9588 163.9101 154.9628 163.9861 155.3358 164.0161 155.5488 164.2141 156.3028 164.2251 157.9388 164.7221 158.1998 164.6391 158.2028 164.3781 157.9038 164.1551 156.4148 163.8931 156.1358 163.7801 155.8168 163.4171 156.4018 163.3061 157.3408 163.7841 158.4598 163.8211 159.1758 165.0011 159.4198 165.1761 160.2838 165.7961 161.7818 166.4441 161.9508 166.6841 163.0008 167.0031 163.5388 166.9891 163.6948 166.7731 163.5718 166.3181 163.3148 166.1621 162.6058 166.1311 161.7268 165.8371 160.9588 165.3061 159.5118 163.5651 159.2638 163.2681 159.0128 162.7241 159.2108 162.4011 159.5338 162.5151 160.0218 162.9971 160.7348 164.4151 161.4558 165.1611 163.3848 165.8161 164.0248 166.2581 164.5518 167.0451 165.3788 167.9231 166.5548 168.5461 167.2088 169.4221 167.1758 169.4811 166.9008 169.9591 167.3768 171.3731 167.2208 171.7591 166.7058 171.6231 166.1578 172.3941 166.5448 172.4221 166.9988 172.2561 167.5788 172.3081 168.1138 172.5751 168.6868 173.1681 169.0628 174.0391 169.4738 173.8501 170.0098 173.9231 170.2958 173.4941 170.5558 173.3681 170.7908 173.5011 171.0538 174.6521 171.7708 174.1861 172.1818 174.0841 174.7978 174.7071 176.1858 175.4411 177.1718 175.7161 178.5158 176.5581 179.1588 176.8061 179.5018 176.8101 179.7068 175.9471 180.0118 175.7141 180.2678 175.9341 179.8478 176.6641 180.1628 177.1441 184.5258 179.0281 186.2528 179.9901 188.8788 181.4541 189.0558 181.1101 189.2728 181.0701 189.3718 181.6561 191.1808 182.9821 191.4428 182.6841 191.7448 182.6441 192.0428 182.8661 191.9698 183.3841 192.8188 184.2191 193.1538 184.4591 194.9478 185.7451 195.3298 186.0551 196.1938 187.2801 196.7688 187.7001 197.0838 188.1391 196.8358 188.8921 196.9618 189.0681 198.0998 189.1941 201.2638 190.5201 203.1608 191.6331 203.7728 192.1851 204.2848 192.6461 204.5568 193.1481 204.6208 194.6011 204.8878 195.4481 204.4488 196.0481 204.9168 196.4011 205.1318 196.4041 205.3608 195.8411 205.7768 195.5711 206.6638 195.4641 207.0588 195.6231 207.6598 196.1861 208.1348 196.9951 209.1608 197.6871 209.3608 198.4751 209.7208 198.8031 211.1388 200.0941 211.3408 200.4581 211.3648 200.4981 211.3638 200.4981 211.3638 200.5001 211.6588 201.0321 212.2578 201.2361 212.3818 201.5851 212.2898 201.9521 213.5248 202.7511 214.1078 203.9731 214.4938 203.9571 214.8878 203.5301 215.6338 203.9541 216.4338 205.0501 216.7958 205.2281 217.4398 205.2811 217.6128 205.6751 217.6888 205.8481 218.1598 205.9421 218.1578 206.1151 217.8308 206.3491 217.7558 207.0831 218.0638 207.9971 219.3028 208.4291 219.2998 208.6011 218.1618 208.5611 217.8368 208.7081 217.6328 209.3531 217.6478 209.8301 218.0478 210.5351 218.6818 211.0161 219.0618 211.4991 219.2018 212.1071 219.8638 212.4221 220.3338 212.5371 221.1548 212.3121 221.7768 212.3661 222.6658 213.1821 225.3498 214.6761 226.5508 214.7821 227.4488 215.0351 228.0528 215.3621 228.3948 215.0511 228.6288 215.1201 228.2998 215.6121 227.9968 215.6941 226.8678 215.1121 226.1168 215.0351 225.5558 215.1981 225.4228 215.5001 223.8298 214.2831 222.1208 213.6281 221.5538 212.8601 221.2968 212.8131 220.5208 213.0171 219.8558 212.9411 218.8768 212.3411 218.7128 212.0621 218.3738 211.4871 218.3508 211.7471 218.3218 212.0711 218.8228 213.0311 218.9178 213.8341 218.6578 215.3661 218.7568 215.8011 218.4918 216.3591 217.3368 217.3571 217.0938 217.7661 217.1108 218.0471 217.3238 218.2251 217.6668 218.1861 218.5808 217.4661 218.9438 217.5801 219.1348 217.7131 219.2968 218.3211 219.5098 218.4761 220.9078 218.8751 221.1998 218.9581 221.2168 219.2191 220.9768 219.4521 220.5278 219.4241 219.9538 218.9371 219.0568 218.7071 218.7198 218.2681 218.6508 218.4621 218.8148 219.0061 219.1558 219.2711 220.0098 219.5661 220.2898 219.4841 221.8648 220.4841 222.2128 220.1871 222.5898 219.3921 223.4138 218.9311 224.0808 218.8331 224.8748 218.9331 225.0308 219.1091 225.1268 219.2191 225.0338 219.6491 224.4538 219.6841 223.7278 219.3901 223.3828 219.4491 222.9868 220.0701 223.1738 220.4631 223.7478 220.8401 223.9888 221.9911 223.1338 221.6741 222.8178 221.2791 222.1998 220.9671 219.7138 220.5801 218.7758 220.1751 218.1158 219.6921 218.0358 220.7261 217.4128 222.1221 219.2388 222.1081 220.4088 222.8631 220.8368 222.9571 221.1008 223.9131 221.5258 224.2671 221.6968 224.2691 221.7848 224.0761 221.5418 223.1851 221.6588 222.5591 222.0488 222.3281 222.4348 222.3771 222.8988 222.9261 223.4408 223.1421 223.5808 223.1971 224.6588 222.9561 225.7278 223.2981 226.3598 222.7671 226.8078 222.8611 227.3918 222.5681 227.6898 222.8111 227.1638 223.4311 227.2008 223.8201 227.4558 223.9541 228.4118 223.3001 229.6588 223.2991 229.9828 223.0661 230.1388 222.7661 230.5218 222.9671 230.6868 223.4021 230.4238 223.6801 228.7018 223.9321 227.6588 224.6721 227.4228 224.7111 226.9768 224.3791 226.6098 224.5031 226.3218 225.1261 226.3508 225.9481 225.7468 227.4531 224.9448 227.9811 224.2108 228.1631 224.0118 228.5281 224.0868 229.2001 223.7808 229.5411 223.4588 229.4931 223.0058 229.6371 222.6228 229.4141 222.4548 229.1951 222.5008 229.0011 222.9918 229.0961 223.2138 228.6881 223.1788 228.1901 223.3818 227.5881 223.9238 227.2501 224.6758 227.2401 225.1078 227.0741 225.5898 226.4551 225.9338 225.0751 226.5558 223.8091 226.4948 223.5491 225.8888 223.8851 225.0558 223.6111 224.5168 223.7751 222.8198 223.8111 222.3308 223.4141 222.1328 223.7351 222.2968 224.2151 223.1888 224.9001 223.5228 225.5121 223.2408 225.6811 222.6238 225.2811 221.9588 225.2271 220.8088 224.6451 220.0978 224.8511 219.8168 224.9321 219.4628 225.5321 218.9418 225.9781 218.3798 226.1641 218.0298 226.6341 217.5528 226.8641 215.2158 229.3801 216.4418 230.6981 216.8698 230.7501 217.6508 230.2221 217.8948 229.7501 218.2158 228.4561 219.1788 228.6451 220.6598 228.6701 221.0918 228.5041 221.2968 227.7501 221.4738 227.4281 221.6248 227.4311 221.6978 228.2751 222.0868 228.0651 222.2568 228.1771 222.4618 228.7861 221.7228 229.3581 220.9758 229.0861 220.0478 229.3741 218.7138 229.5471 218.5818 229.6521 219.0838 230.5261 219.0588 230.7861 218.5698 230.4751 218.0188 231.3961 217.1748 231.7501 216.1018 231.7981 215.8828 232.0111 215.7278 232.3971 215.7188 233.0041 215.9158 234.0231 216.1108 234.0061 216.2138 233.8881 216.3708 233.7071 216.7148 233.7561 216.9468 234.0621 216.5958 234.5331 215.9478 234.7831 215.4448 235.3811 215.1298 236.3061 215.2418 237.3901 214.9278 238.2711 214.5988 238.6991 214.1668 238.8651 211.3528 239.0361 210.4028 239.3671 209.6588 240.0021 209.3808 240.2381 209.1588 240.7751 208.9358 242.7631 208.7578 243.0621 208.0888 243.3111 207.5858 243.9751 207.3798 244.7941 206.7408 245.9741 206.7128 246.3191 207.5318 247.5651 207.8138 248.7381 208.1278 249.2411 208.4768 248.8791 208.8868 248.6901 208.9768 248.9281 209.0108 249.0171 210.0148 249.3141 211.1538 250.5001 211.1548 250.5001 211.1548 250.5011 213.0348 252.4581 216.6408 256.5191 217.4278 256.9791 218.6168 257.6771 219.8218 258.8001 220.5358 259.7411 220.7798 260.6331 223.0908 262.3371 223.6898 262.4321 224.6588 262.1451 225.2558 262.3711 225.3868 262.2441 226.0758 262.1311 227.4298 261.9101 228.5868 261.8871 230.6018 262.0071 235.0268 262.9031 236.0288 263.2671 237.4498 264.1451 237.5788 264.2241 240.2598 265.4591 243.8638 266.6891 246.3308 267.8791 248.3628 268.5951 248.4608 268.6311 249.4588 267.9771 249.8158 267.1841 249.4958 265.7281 250.2608 263.6861 250.1598 263.2741 249.1768 261.8071 249.0988 261.4171 250.0578 260.5471 250.3858 260.0981 250.5008 259.6881 249.7348 258.8171 248.8598 257.8211 248.5678 257.3181 249.0818 253.4981 248.9608 253.0411 248.7088 252.7331 248.6148 253.2511 248.2028 253.4821 247.6528 253.0401 246.9068 252.7891 246.1298 251.7371 245.1168 250.7241 244.7408 250.5001 244.8818 250.5001 244.8618 250.4801 242.3238 249.5271 241.0538 249.7221 240.3368 248.9961 239.7368 249.0071 239.0978 248.6491 238.2938 247.9431 237.2418 246.7141 236.1828 245.8511 235.7608 245.4121 235.5648 244.9891 235.1718 244.6871 235.1168 244.1451 235.4418 242.6361 234.7338 241.3041 234.0118 240.7941 233.3168 240.0031 232.7428 239.5821 232.3778 239.5981 232.0518 239.8741 231.7978 239.6091 232.1968 238.8591 232.1368 238.5991 231.7768 238.3101 231.3688 238.2611 230.9548 238.6651 230.6148 238.5081 230.4088 237.9841 230.5308 237.0341 231.0808 236.2001 231.6588 236.2961 231.9418 236.1271 232.0758 235.8481 232.6328 235.8361 233.3798 236.0861 234.7758 236.1101 234.8708 236.4561 234.9378 236.6961 235.4508 236.8131 236.1608 236.6521 237.0078 236.1031 237.8858 234.9071 238.2068 234.9561 238.5328 234.7881 238.7438 234.9871 238.8028 235.3771 239.2088 235.4061 239.4048 235.2791 239.4988 234.7401 239.9548 234.4441 239.9828 234.0561 240.3518 233.8231 240.5418 233.9571 240.6158 234.6931 240.7648 234.7831 241.6868 234.8641 242.4978 235.1161 242.7168 234.8391 243.1228 234.9331 243.2578 235.1031 243.7108 235.6781 244.2458 235.7741 244.4558 236.0591 244.7558 236.0641 245.2378 235.5971 245.8338 235.9101 245.6898 236.8161 245.1468 237.2401 245.1138 237.8891 244.8448 238.5331 245.1298 239.4041 244.8238 239.7881 245.0348 239.9861 245.5898 240.1911 245.7778 240.5621 246.0968 240.7191 246.7398 240.7951 247.1218 240.9951 248.0438 242.1571 248.3408 242.5311 249.0358 242.0241 249.5528 241.9691 250.8968 242.4261 251.6528 242.1581 251.9288 242.2921 252.3988 243.7501 253.0458 244.8221 253.3448 244.9141 253.8358 243.7751 255.1448 243.8201 255.5068 243.9781 255.5878 244.2181 255.3888 244.6041 255.5358 244.7581 255.9428 244.8511 256.0318 244.8141 256.3968 244.6651 256.9468 245.1291 257.8668 245.1891 258.1848 245.4761 258.5058 245.5041 258.8298 245.3571 259.0308 244.9501 258.9968 244.4091 258.8518 244.1251 258.2108 243.8961 258.1928 243.7671 258.3668 243.5971 258.6458 243.6231 258.9198 243.9091 259.3538 243.6141 259.8368 244.2281 260.7088 244.6341 262.5158 246.9161 262.6348 247.3741 262.7368 247.7651 262.9268 247.8761 263.3818 247.6681 263.9778 247.9601 264.0158 248.2211 263.6858 248.6901 263.3258 248.4461 262.8108 248.4151 262.3078 248.9471 260.9868 249.7241 260.5698 248.9591 261.0758 248.2751 260.6758 247.8131 261.0938 247.1931 261.0348 246.8901 260.4578 246.7271 260.1408 246.4631 259.9208 245.5711 259.4938 245.3911 259.3908 245.5891 258.7398 246.8491 258.8758 247.5641 261.0258 250.4991 261.0268 250.4991 261.0258 250.5011 261.1408 250.6571 261.4998 250.9671 262.1398 251.1951 262.5568 251.9171 263.0848 252.3811 263.5348 252.3891 265.0508 251.5721 265.6298 251.6261 265.9988 251.8351 267.3178 252.0251 267.7118 252.7891 268.5008 253.0421 268.9638 253.5691 270.1808 253.9171 270.3988 253.7261 270.8928 252.4151 271.0688 252.2241 271.4988 252.1881 271.4198 251.7551 271.5118 251.4751 271.9008 251.2871 272.3448 251.3231 272.0128 252.2631 272.2358 252.9811 272.1228 253.3041 271.8848 253.4301 271.1858 252.9401 270.8138 253.3661 270.7438 254.0471 270.3658 254.3961 269.6848 254.0591 268.8728 253.9151 268.3228 253.4721 267.8308 253.3551 266.9668 252.4741 265.9958 252.0441 265.2398 251.9011 264.1468 253.0501 263.0778 252.8361 262.7748 253.0251 262.7448 253.4571 263.0208 253.6571 263.1428 254.0491 262.8208 254.1071 262.4388 253.7981 262.1338 252.8621 261.6878 252.5721 261.4298 252.6111 261.8898 253.3111 262.3538 254.9861 263.4588 256.2641 264.9398 257.9761 265.8388 259.3111 266.6898 260.9721 266.7248 261.3841 266.4588 261.8541 265.7598 262.5991 265.5408 264.1521 265.0368 264.7271 264.0198 265.3361 263.5418 265.7411 262.4738 266.6491 262.0508 267.5081 261.9298 268.3491 262.0578 269.6061 262.7468 270.6361 263.6588 271.2581 264.9218 272.5351 267.7218 274.1491 269.5698 275.2161 274.4538 278.9831 276.2198 279.7091 277.3668 280.8371 277.9678 281.4291 281.2858 286.3571 282.5008 289.1051 282.6708 290.3661 282.8558 290.8231 283.0538 291.0601 283.2268 291.2671 283.4438 291.5261 283.6438 292.2661 284.5008 293.4281 284.7108 294.8381 284.6328 295.6371 284.4058 296.3461 284.1008 296.6431 283.6498 296.6991 283.5188 296.8491 283.5458 297.6921 283.3638 298.2951 284.4228 300.1091 284.7618 300.3091 285.3818 300.3641 285.4858 300.5001 285.5708 298.6591 286.0908 295.9741 286.0098 293.1371 284.8428 290.0761 284.8038 289.9721 284.3868 288.8801 284.6388 287.3551 284.4578 285.3501 283.7298 284.5861 282.2598 283.7231 282.4258 280.8621 282.0818 280.1051 281.9988 279.5361 281.8638 278.6001 281.6798 278.2071 280.6698 277.6581 278.4788 277.0591 277.1478 277.5331 276.7898 277.4981 276.1208 276.4561 273.9788 274.7191 273.5428 274.4321 272.8448 274.2161 271.8178 273.8981 271.1768 272.8561 271.1078 272.1591 271.2278 271.6061 271.5368 271.2791 272.1768 270.9571 274.2558 270.3041 276.5128 269.0411 278.2468 267.4841 278.3918 267.3541 280.5658 264.7281 282.5628 262.6551 283.5538 262.7031 284.2398 262.9111 285.1768 262.9021 286.4048 262.5721 287.1998 262.3581 287.7408 262.0931 288.2848 261.8241 289.0138 261.2551 290.0628 259.7751 290.9548 257.8751 291.3058 256.2751 291.3798 255.9361 291.3408 254.4341 290.9178 252.1591 291.1748 251.7331 291.2728 251.6441 291.9338 251.0401 292.1478 250.4991 292.1468 250.4991 292.2378 250.2671 292.2218 249.6691 291.6678 248.4061 291.7148 246.7391 291.2568 246.2291 291.2068 245.9501 291.8268 245.2391 291.8978 244.5461 291.4068 243.5761 290.4278 242.1661 289.6438 241.3991 289.3998 240.4491 288.7108 239.7121 288.4988 238.6091 288.2168 238.2561 286.9608 237.6041 285.5068 236.5171 284.8758 234.9341 283.5948 233.4061 283.6018 233.1011 283.9118 232.6621 283.9478 232.3011 283.8918 232.1601 283.6338 231.5171 284.0698 231.1871 284.1608 231.1181 285.7588 230.7391 285.8918 229.6241 287.5718 228.8751 287.9418 228.6061 288.0208 228.5481 288.2908 228.0321 288.2998 227.5851 287.0308 226.3291 286.8538 225.8781 287.0528 225.1371 287.8968 224.1801 288.1508 223.8921 288.9378 223.3861 289.6088 223.1381 292.0938 222.7781 292.7658 222.5311 293.5228 221.6891 294.0078 221.4761 297.3148 220.7981 297.9138 220.4371 298.4018 219.7941 298.4138 219.7771 298.8638 219.2261 299.5188 217.9351 300.9938 217.1421 302.3258 216.4281 302.4848 215.8711 302.4328 214.8641 301.1468 213.7261 300.5788 213.2231 300.4778 212.8991 299.9178 211.1211 299.5558 210.7041 297.8768 209.5141 294.4158 208.6221 292.9668 207.0271 292.1758 206.5251 291.5778 206.1461 288.1058 203.9461 287.5278 203.1881 286.4208 201.1531 285.8678 200.9931 285.2748 201.0561 282.5418 202.5291 282.4368 202.4581 282.3848 202.4231 282.1418 202.2611 281.9298 201.7341 281.8678 200.5011 281.8698 200.5011 281.8258 199.6091 281.8218 190.6981 281.8148 178.7961 281.8148 177.6831 281.6168 176.3741 281.5648 167.7951 281.6038 166.9071 281.6978 164.7771 281.8888 164.5571 282.9328 164.2061 288.6308 163.0151 290.3098 162.5251 290.4998 162.3071 290.3608 161.8551 289.9518 161.8761 289.7788 161.4871 289.4158 161.3071 289.0868 161.5821 288.8298 161.5561 288.7438 161.4241 289.2278 160.9571 289.0808 160.7161 288.0898 160.7621 287.6878 160.3431 287.5638 160.0371 287.8108 159.5011 287.5618 159.0411 287.8938 158.5271 287.7298 158.0691 287.8448 157.6391 287.5288 157.3091 286.9018 157.4471 286.6658 157.3561 286.7058 156.3401 286.4088 156.0961 286.8058 155.6271 287.1618 153.7931 288.0168 153.1941 288.2748 153.0131 288.3408 152.7301 288.5078 152.0221 288.7078 151.6791 289.0428 151.7031 289.4948 151.3891 290.7188 151.2921 291.1668 151.3011 291.5228 151.8411 292.7308 152.5611 293.5308 153.2741 294.4758 152.8841 295.2138 152.6121 295.4958 152.7001 296.8648 153.6291 297.5808 154.4221 298.1928 154.3931 298.5178 154.4001 299.2848 154.7031 299.5668 154.9131 299.8758 155.7391 300.5258 155.8331 300.9708 155.9661 301.0078 156.1701 300.8928 156.5711 300.7328 157.0441 302.3658 158.3961 302.5618 158.2921 302.8158 157.4091 303.3618 158.1131 303.8528 158.3831 304.0818 158.7991 303.9268 159.0571 303.2518 159.4541 304.0338 160.2491 304.0788 161.2461 304.3558 161.4451 305.6248 161.4501 305.8008 161.3011 306.2828 161.1941 306.4348 161.6891 306.5918 161.9791 306.7988 161.8201 307.0898 161.4991 307.7508 161.0611 307.9948 161.0661 308.5018 162.1421 308.9818 162.6021 309.5918 162.6151 309.9668 162.2141 310.2958 162.0571 310.7008 162.0651 311.6738 162.3311 312.0048 162.0521 312.4728 161.1611 312.8988 160.2681 313.1638 159.2501 312.8608 158.2201 312.7068 157.7671 312.6378 157.1911 312.7248 156.9061 313.1008 156.4641 313.7538 156.3951 314.3648 156.4091 314.9328 156.5021 315.4128 156.9221 315.8448 157.6691 316.1588 158.2081 316.3988 158.4181 316.6848 158.3831 317.1318 158.4341 317.1818 157.9841"></polygon>
            <polygon id="Fill-32" fill="#FFFFFF" points="100.9293 129.8443 100.5553 130.5543 100.2513 130.7453 100.4233 130.9003 100.4233 130.8993 101.3103 130.5853 101.5303 130.1763 101.9433 129.8343 101.9013 129.7253 101.9013 129.7253"></polygon>
            <polygon id="Stroke-33" stroke="#E75F52" stroke-linecap="round" stroke-linejoin="round" points="100.9293 129.8443 100.5553 130.5543 100.2513 130.7453 100.4233 130.9003 100.4233 130.8993 101.3103 130.5853 101.5303 130.1763 101.9433 129.8343 101.9013 129.7253 101.9013 129.7253"></polygon>
            <polygon id="Fill-34" fill="#FFFFFF" points="82.296 116.3995 81.97 116.5905 81.968 116.8515 82.546 117.2465 82.798 117.8345 83.185 117.9905 83.751 117.4765 85.497 117.5385 85.328 117.2335 84.258 116.3995 83.247 116.2145 83.05 116.4295"></polygon>
            <polygon id="Stroke-35" stroke="#E75F52" stroke-linecap="round" stroke-linejoin="round" points="82.296 116.3995 81.97 116.5905 81.968 116.8515 82.546 117.2465 82.798 117.8345 83.185 117.9905 83.751 117.4765 85.497 117.5385 85.328 117.2335 84.258 116.3995 83.247 116.2145 83.05 116.4295"></polygon>
            <path d="" id="Fill-36" fill="#FFFFFF"></path>
            <path d="M83.2462,116.2144 L83.2462,116.2144 L83.2462,116.2144 Z" id="Stroke-38" stroke="#E75F52" stroke-linecap="round" stroke-linejoin="round"></path>
            <polygon id="Fill-39" fill="#FFFFFF" points="75.0387 104.8848 75.5077 105.4748 77.8407 105.9018 77.8417 105.9018 78.0257 105.9358 78.3947 105.7228 79.1457 106.0768 79.6217 106.0388 79.7977 105.6728 79.6067 105.3888 79.2387 105.4508 78.9167 105.2298 78.4267 105.1248 77.7547 104.9798 76.6597 104.4918 76.3947 104.5608 76.1847 104.6168 75.7317 104.5678 74.7017 104.0378 73.7307 103.9408 73.7307 103.9398 72.3447 104.5958 71.8487 104.5698 71.5857 105.0218 71.8607 105.4148 72.3397 107.2178 72.4847 107.4428 72.6367 107.6748 72.9997 108.0468 74.4387 108.7768 75.9247 108.9008 77.8927 108.4888 78.3667 108.5588 80.0997 107.8418 80.1227 107.6468 80.5787 107.4348 80.8197 107.0048 80.7797 106.6778 79.9387 106.6698 79.3517 107.0318 78.7907 107.1348 78.5327 106.9798 78.0447 106.3248 77.5977 106.2078 77.5277 106.1898 77.2037 106.2508 76.9027 106.0958 76.6627 106.3748 76.4837 106.3868 76.3827 106.3938 76.1487 106.0238 75.6087 105.9958 75.1807 105.7748 74.8187 105.2078 74.9087 104.9478"></polygon>
            <polygon id="Stroke-40" stroke="#E75F52" stroke-linecap="round" stroke-linejoin="round" points="75.0387 104.8848 75.5077 105.4748 77.8407 105.9018 77.8417 105.9018 78.0257 105.9358 78.3947 105.7228 79.1457 106.0768 79.6217 106.0388 79.7977 105.6728 79.6067 105.3888 79.2387 105.4508 78.9167 105.2298 78.4267 105.1248 77.7547 104.9798 76.6597 104.4918 76.3947 104.5608 76.1847 104.6168 75.7317 104.5678 74.7017 104.0378 73.7307 103.9408 73.7307 103.9398 72.3447 104.5958 71.8487 104.5698 71.5857 105.0218 71.8607 105.4148 72.3397 107.2178 72.4847 107.4428 72.6367 107.6748 72.9997 108.0468 74.4387 108.7768 75.9247 108.9008 77.8927 108.4888 78.3667 108.5588 80.0997 107.8418 80.1227 107.6468 80.5787 107.4348 80.8197 107.0048 80.7797 106.6778 79.9387 106.6698 79.3517 107.0318 78.7907 107.1348 78.5327 106.9798 78.0447 106.3248 77.5977 106.2078 77.5277 106.1898 77.2037 106.2508 76.9027 106.0958 76.6627 106.3748 76.4837 106.3868 76.3827 106.3938 76.1487 106.0238 75.6087 105.9958 75.1807 105.7748 74.8187 105.2078 74.9087 104.9478"></polygon>
            <polygon id="Fill-41" fill="#FFFFFF" points="85.4011 115.3093 85.3691 115.3943 85.7331 115.6573 87.6041 116.1333 87.8441 115.9403 85.9531 115.3203 85.4581 115.1583"></polygon>
            <polygon id="Stroke-42" stroke="#E75F52" stroke-linecap="round" stroke-linejoin="round" points="87.6046 116.1333 87.8436 115.9403 85.9536 115.3203 85.4586 115.1573 85.4576 115.1573 85.4006 115.3093 85.3686 115.3933 85.7336 115.6573"></polygon>
            <polygon id="Fill-43" fill="#FFFFFF" points="89.9069 116.0289 88.8769 116.1259 88.3789 116.3369 88.4409 116.5329 89.0459 116.4969 89.9069 116.7829 91.6879 117.3709 92.9809 117.4939 93.2409 117.2809 93.1359 117.0409 92.7689 117.1019 92.2999 116.6849 91.3309 116.5669 89.9069 116.0299"></polygon>
            <polygon id="Stroke-44" stroke="#E75F52" stroke-linecap="round" stroke-linejoin="round" points="89.9069 116.0289 88.8769 116.1259 88.3789 116.3369 88.4409 116.5329 89.0459 116.4969 89.9069 116.7829 91.6879 117.3709 92.9809 117.4939 93.2409 117.2809 93.1359 117.0409 92.7689 117.1019 92.2999 116.6849 91.3309 116.5669 89.9069 116.0299"></polygon>
            <polygon id="Fill-45" fill="#FFFFFF" points="98.128 120.0433 98.129 120.0433 98.129 120.0423"></polygon>
            <polygon id="Stroke-46" stroke="#E75F52" stroke-linecap="round" stroke-linejoin="round" points="98.1281 120.0435 98.1291 120.0435 98.1281 120.0425"></polygon>
            <polygon id="Fill-47" fill="#FFFFFF" points="97.2555 120.9639 97.1895 121.1809 97.4855 121.6169 97.9565 121.9039 99.5955 121.8239 99.7465 121.8169 99.9205 121.7099 99.6015 121.3389 99.6995 120.2569 99.2755 120.1989 98.1295 120.0439 98.3185 120.3269 98.2735 120.6079"></polygon>
            <polygon id="Stroke-48" stroke="#E75F52" stroke-linecap="round" stroke-linejoin="round" points="97.2555 120.9639 97.1895 121.1809 97.4855 121.6169 97.9565 121.9039 99.5955 121.8239 99.7465 121.8169 99.9205 121.7099 99.6015 121.3389 99.6995 120.2569 99.2755 120.1989 98.1295 120.0439 98.3185 120.3269 98.2735 120.6079"></polygon>
        </g>
    </g>
</svg>