<?xml version="1.0" encoding="UTF-8"?>
<svg width="355px" height="301px" viewBox="0 0 355 301" version="1.1" xmlns="http://www.w3.org/2000/svg" xmlns:xlink="http://www.w3.org/1999/xlink">
    <!-- Generator: Sketch 64 (93537) - https://sketch.com -->
    <title>257</title>
    <desc>Created with Sketch.</desc>
    <defs>
        <polygon id="path-1" points="0.4502 0.088 34.261 0.088 34.261 34.064 0.4502 34.064"></polygon>
    </defs>
    <g id="257" stroke="none" stroke-width="1" fill="none" fill-rule="evenodd">
        <g id="Group-163" transform="translate(0.000000, 1.000000)">
            <polyline id="Fill-1" fill="#FFFFFF" points="267.3448 154.2052 267.8398 154.7002 266.3558 156.1842 267.6748 157.8342 266.6848 159.1532 267.0148 160.1422 269.6538 161.2972 271.1378 161.6272 272.1268 163.1112 271.7978 164.2662 272.7868 164.7612 272.2918 165.9152 273.4478 167.0692 272.6218 168.5542 274.7668 170.2032 273.9418 170.2032 275.2608 172.3482 276.9098 171.8522 276.4148 172.6772 278.5598 175.3162 277.8998 175.9752 279.3838 175.6452 279.7138 177.2952 280.7028 179.4392 279.7138 179.9342 281.1988 181.4182 279.5488 182.0782 278.3948 181.5832 277.0748 182.5722 276.0858 181.7482 273.7768 184.0572 270.4788 183.7272 267.6748 182.5722 269.6538 184.7172 269.8188 186.3662 265.8608 184.8822 266.8498 186.2012 268.8288 187.5202 268.1688 188.8402 266.5198 189.9942 268.0038 190.9842 267.8398 192.4682 271.1378 194.9422 271.7978 194.6122 273.6118 197.2512 272.2918 198.0762 273.1168 199.0652 275.7558 200.0552 276.0858 199.3952 275.2608 198.0762 276.0858 196.9212 277.8998 198.9002 277.7358 199.5602 278.5598 200.5502 278.0648 201.3742 278.7248 202.1992 279.2188 201.3742 280.3738 202.1992 282.5178 201.7042 282.6828 200.8802 284.9908 202.6932 286.4758 202.0342 287.9598 203.3532 289.1158 202.0342 287.9598 199.0652 287.4658 196.7562 286.6408 195.4362 286.6408 194.2822 287.4658 192.6332 288.6198 193.2932 287.1358 194.7772 287.3008 195.7672 289.4448 197.2512 290.1048 198.4052 315.5028 182.9022 317.9068 186.1072 318.9668 184.5522 318.8018 176.4712 315.8328 175.4802 298.8458 182.5722 287.9598 172.1832"></polyline>
            <polyline id="Fill-2" fill="#FFFFFF" points="55.4152 76.6906 53.7662 75.0416 53.2712 73.7216 53.2712 71.7426 52.7762 71.4136 52.9412 69.4336 52.1872 68.3626 49.9492 64.4876 10.9332 118.0066 11.1682 120.7296"></polyline>
            <polyline id="Fill-3" fill="#FFFFFF" points="9.5655 121.7052 9.5655 121.8802 17.7295 128.5592 29.6865 136.8892 40.9015 143.6502 55.4155 151.0722 55.0855 145.3002 56.0745 144.9702 55.5805 144.1442 52.4465 143.4852 51.4565 142.1662 49.6425 142.0012 48.3235 141.3412 48.4885 139.0322 49.9725 137.0532 48.8175 135.5692 48.1585 129.9612 46.6735 129.9612 46.0145 128.8072 46.6735 127.9822 47.1685 126.8282 47.1685 123.5292 48.3235 122.5402 47.8285 120.3952 49.6425 119.9012 49.1485 117.5922 50.1375 116.6022 48.4885 115.4482 49.1485 112.9742 49.3125 112.3142 47.6635 110.6652 48.1585 110.3352 47.4985 109.5112 48.1585 108.5212 47.3335 107.2012 48.6525 105.5532 48.4885 104.7272 48.9825 104.2332 50.6325 103.4082 51.2925 103.5732 52.4465 99.9452 50.9615 99.7802 50.3025 98.6252 49.6425 98.6252 49.3125 98.1312 51.6215 94.8322 52.6115 91.8632 49.8075 89.0592 47.6635 87.5752 48.3235 87.4102 49.9725 84.7712 50.1375 83.7822 55.4155 76.6902"></polyline>
            <polyline id="Fill-4" fill="#FFFFFF" points="49.9264 65.1496 49.8074 64.9806 5.4424 115.6136 6.5964 116.9326 7.2574 116.7676 7.9164 118.4176 9.4014 118.4176 11.3804 120.0656 9.5654 120.3956 9.5654 121.7056"></polyline>
            <polyline id="Fill-5" fill="#FFFFFF" points="133.59 35.7887 132.766 35.6237 130.786 36.6137 128.478 36.7787 127.983 37.4377 129.797 38.2627 130.786 38.9227 131.281 38.4277 131.611 38.5927 131.611 38.9227 132.766 39.0877"></polyline>
            <line x1="133.755" y1="35.9537" x2="132.93" y2="39.0877" id="Stroke-6" stroke="#FFFFFF"></line>
            <polygon id="Fill-7" fill="#FFFFFF" points="122.5404 77.5146 123.1994 78.1756 123.5294 76.8556 122.5404 76.6906"></polygon>
            <polygon id="Fill-8" fill="#FFFFFF" points="107.8615 48.6535 107.8615 46.6745 110.0065 45.6845 111.1605 46.0145 111.3255 44.6955 113.3035 44.6955 117.2615 41.7265 118.7465 41.5615 119.9015 42.7155 120.3955 42.5505 120.8905 41.5615 121.7155 41.5615 122.5405 44.2005 121.8805 44.6955 121.0555 44.3645 121.2205 45.5195 121.2205 46.5085 120.7255 46.5085 120.5605 48.3235 118.5815 48.8185 117.4265 50.1375 116.4375 48.1585 117.7575 46.1795 117.5915 45.8495 114.4585 49.6425 113.3035 49.6425 113.3035 50.4665 112.3145 50.9625 110.6655 50.4665 110.8305 49.1475 109.8405 49.3125"></polygon>
            <polygon id="Fill-9" fill="#FFFFFF" points="63.8263 76.6906 62.8363 74.8766 61.3523 75.7016 60.5283 75.2066 59.2083 75.7016 57.0643 75.7016 57.3943 76.1956 57.7243 77.8446 58.2193 78.3396 59.5383 78.3396"></polygon>
            <polygon id="Fill-10" fill="#FFFFFF" points="89.3898 71.4132 98.7908 62.5072 98.2958 60.0332 99.2858 59.2082 99.2858 57.7242 101.7598 58.0542 103.0788 58.7142 105.7178 58.5492 106.2118 61.3522 107.5318 62.8372 108.8508 63.4962 110.8298 63.6612 112.3148 64.9802 113.7988 69.7642 112.3148 71.2482 110.4998 71.0832 104.3978 74.0522 103.0788 75.5362 100.9348 76.1952 98.2958 80.4832 95.8218 79.9892 95.4918 79.3292 94.3378 80.1532 91.5338 80.1532 91.2038 79.1642 92.0288 77.5152 92.1938 76.6902"></polygon>
            <polygon id="Fill-11" fill="#FFFFFF" points="122.8693 79.8244 118.5813 98.2964 101.0993 93.0174 101.0993 92.5234 105.7183 92.3584 109.8413 93.3474 113.1393 95.4924 115.4483 95.3274 113.6343 93.0174 110.9953 91.5334 111.3253 90.8744 107.8613 90.8744 106.3773 90.3794 104.0683 88.8944 102.0893 88.2354 101.2643 86.2564 102.5833 84.4414 109.1813 84.4414 109.3463 83.7824 106.2123 83.4524 103.5733 83.1224 102.7483 82.1334 103.4083 81.4734 102.9133 80.8134 102.0893 80.3184 101.5943 79.6594 102.4193 78.6704 103.0783 78.6704 104.3983 77.3494 105.0573 77.6794 105.2233 75.7014 108.5213 73.2264 110.5003 72.8974 111.3253 73.2264 115.4483 71.7424 116.4373 75.2064 113.7993 77.3494 115.6133 77.5144 117.4273 75.2064 118.5813 75.8664 120.5603 78.6704 120.3953 79.9894 119.2413 80.3184 119.4063 80.8134 120.7253 80.6484"></polygon>
            <polygon id="Fill-12" fill="#FFFFFF" points="132.2706 41.5612 131.1166 42.0562 131.1166 45.1892 127.8176 45.1892 126.3336 43.5402 126.9936 42.3862 127.1576 41.2312 128.8066 40.4072 132.7656 40.5722"></polygon>
            <polygon id="Fill-13" fill="#FFFFFF" points="125.0138 41.7262 125.1788 40.7362 124.6838 39.4172 125.6728 38.7572 126.6628 40.9012"></polygon>
            <polygon id="Fill-14" fill="#FFFFFF" points="112.6447 54.755 111.6547 52.942 113.7987 52.116 116.4377 50.797 116.4377 51.292"></polygon>
            <polygon id="Fill-15" fill="#FFFFFF" points="122.8693 48.8185 122.3753 47.4985 124.8483 48.1585 124.5183 48.8185"></polygon>
            <polyline id="Stroke-16" stroke="#FFFFFF" points="122.7814 80.2062 118.5814 98.2962 101.2854 93.0792"></polyline>
            <polyline id="Fill-17" fill="#FFFFFF" points="127.8068 58.4288 126.3328 58.2188 126.3328 56.4048 125.3438 55.7448 125.8378 55.0848 125.0138 54.2608 125.0138 53.2708 123.1998 52.1168 123.1998 51.2918 122.3748 50.1378 119.9018 49.9728 119.2418 50.7968 119.0768 50.7968 117.2618 52.9418 118.5808 54.0958 117.0978 53.6008 115.6138 54.7548 117.5918 56.0748 114.7878 55.7448 113.9638 56.4048 116.1078 58.7138 116.6028 59.5378 119.4068 60.5278 120.0658 59.3728 120.8908 59.5378 120.5608 60.6928 125.1788 60.6928 125.1788 61.8468 122.7048 61.1878 120.3958 62.1768 119.0768 62.3418 118.7458 63.8258 120.8908 65.6408 122.2098 65.6408 126.9218 64.2108"></polyline>
            <line x1="128.1153" y1="58.7033" x2="127.0563" y2="63.8473" id="Stroke-18" stroke="#FFFFFF"></line>
            <path d="M96.9762,152.3917 L95.4922,153.0507 L97.1412,153.3807 L98.6252,152.5567 L96.9762,152.3917 Z M98.1312,151.2367 L96.1522,151.4017 L96.1522,152.2267 L98.1312,151.2367 Z M87.7402,140.8467 L88.0702,142.0007 L88.4002,142.0007 L89.0592,141.5057 L89.8842,141.5057 L88.0702,142.8257 L88.5652,144.3097 L90.5442,146.6197 L92.0282,147.6087 L93.0182,149.5877 L94.1722,150.4127 L97.9662,150.7427 L99.9452,149.5877 L102.5832,147.2787 L104.0682,146.7847 L105.7182,147.1137 L108.8512,148.2687 L109.6762,148.9277 L109.5112,149.4227 L108.8512,149.5877 L107.2012,148.1037 L105.0582,147.6087 L103.4082,147.9387 L101.5942,148.7627 L102.5832,149.4227 L105.7182,148.5977 L105.8822,148.9277 L103.7382,149.9167 L104.7272,150.5777 L102.4192,150.5777 L100.7692,151.7317 L97.6362,154.0407 L96.3162,154.8657 L94.9972,154.8657 L94.5022,154.2047 L92.8532,154.5357 L92.1932,155.6897 L90.7092,157.0087 L86.7512,156.6797 L83.7822,156.0197 L82.7922,155.5247 L81.8032,154.0407 L79.9892,153.2157 L77.3502,149.5877 L77.5152,148.5977 L80.8132,152.8857 L82.1332,152.2267 L84.1122,153.7107 L84.7722,152.5567 L85.7612,152.3917 L86.5862,150.9077 L88.5652,151.0727 L88.4002,151.0727 L89.2252,151.2367 L89.8842,150.0817 L89.3902,148.1037 L88.5652,147.6087 L89.0592,146.4547 L87.7402,145.1347 L87.5762,142.9907 L87.2462,142.3307 L87.7402,140.8467 Z M71.9082,109.1807 L73.3922,110.1697 L76.8552,110.6647 L77.6802,110.3347 L78.5042,110.6647 L82.6282,110.4997 L84.1122,110.1697 L84.9362,110.8297 L86.7512,110.3347 L88.0702,110.6647 L89.2252,112.3147 L87.7402,111.9847 L85.4322,112.3147 L84.1122,113.3037 L84.4422,113.9637 L86.5862,115.6137 L88.4002,116.2727 L89.7202,116.2727 L91.5342,114.6227 L92.0282,114.6227 L91.5342,115.4487 L91.5342,116.9327 L89.2252,118.7457 L88.7302,119.2417 L88.7302,120.0657 L89.2252,120.5607 L88.5652,120.8907 L88.2352,120.3957 L86.9162,120.3957 L85.4322,118.5807 L84.4422,118.9117 L83.4522,118.7457 L83.2882,119.4067 L83.7822,121.3847 L82.7922,121.2207 L81.3082,122.2097 L80.3192,122.2097 L78.1752,123.3647 L77.3502,123.0347 L77.3502,122.5397 L78.6692,122.7047 L79.9892,121.7147 L82.1332,120.3957 L81.1432,118.4167 L78.8342,118.5807 L77.3502,119.9017 L76.8552,120.8907 L75.5362,120.8907 L72.8972,118.2517 L73.7222,118.0867 L74.2162,118.5807 L74.7112,118.5807 L74.8762,117.2617 L75.7012,117.0977 L76.5252,116.6027 L77.6802,116.6027 L77.8452,116.4377 L77.8452,115.2837 L77.3502,114.2927 L77.3502,113.9637 L79.1642,115.1187 L80.9782,115.6137 L79.6592,112.9737 L77.1852,112.1497 L76.3602,112.4797 L75.5362,111.8197 L74.3812,111.8197 L74.2162,110.8297 L72.4022,110.6647 L71.2482,111.8197 L71.4132,109.3457 L71.9082,109.1807 Z M55.5802,76.8557 L50.2302,86.9887 L53.5132,91.1727 L56.4662,144.8357 L55.7762,151.2157 L92.0232,165.1067 L130.2502,172.7287 L132.7702,149.0977 L111.8092,135.8987 L109.1562,129.7897 L104.0292,127.4757 L88.2872,103.5327 L92.7092,93.1827 L89.2252,89.3897 L87.7402,89.0597 L87.0802,89.8847 L85.7612,90.8737 L84.4422,90.7087 L83.7822,90.0497 L84.7722,88.0707 L84.6072,86.7507 L86.2562,84.7717 L85.7612,84.2777 L83.4522,86.2557 L82.2982,87.0807 L81.1432,88.5657 L80.1542,87.9057 L79.9892,85.1017 L80.3192,80.3187 L79.8242,78.5047 L78.6692,78.8337 L78.9992,80.8137 L76.6902,80.9787 L77.0202,82.1327 L75.5362,82.6277 L75.7012,81.6377 L71.7432,80.8137 L70.2582,81.6377 L69.4342,81.6377 L69.4342,80.9787 L67.2892,80.8137 L63.9912,81.6377 L63.0012,82.7927 L62.0122,81.8027 L62.3422,80.8137 L68.2792,79.9897 L68.9392,80.3187 L75.3712,79.8247 L74.3812,78.6697 L73.2272,78.5047 L72.2372,77.6797 L69.7642,78.5047 L65.6402,77.3497 L64.6512,78.8337 L62.8362,78.0097 L61.5172,78.8337 L58.7132,79.1637 L57.8892,78.5047 L56.7342,79.3287 L56.5692,78.1747 L56.0752,77.1857 L55.5802,76.8557 Z" id="Fill-19" fill="#FFFFFF"></path>
            <polyline id="Fill-20" fill="#FFFFFF" points="56.7345 151.8859 55.4155 151.0729 55.0855 145.2999 56.0745 144.9699 55.5805 144.1449 52.4465 143.4859 51.4565 142.1659 49.6425 142.0009 48.3235 141.3409 48.4885 139.0319 49.9725 137.0529 48.8175 135.5699 48.1585 129.9609 46.6735 129.9609 46.0145 128.8069 46.6735 127.9829 47.1685 126.8279 47.1685 123.5299 48.3235 122.5399 47.8285 120.3959 49.6425 119.9019 49.1485 117.5919 50.1375 116.6029 48.4885 115.4479 49.1485 112.9739 49.3125 112.3149 47.6635 110.6649 48.1585 110.3349 47.4985 109.5109 48.1585 108.5219 47.3335 107.2009 48.6525 105.5529 48.4885 104.7279 48.9835 104.2339 50.6325 103.4079 51.2925 103.5729 52.4465 99.9459 50.9625 99.7809 50.3025 98.6249 49.6425 98.6249 49.3125 98.1309 51.6215 94.8319 52.6115 91.8639 49.8075 89.0599 47.6635 87.5749 48.3235 87.4099 49.9725 84.7719 50.1375 83.7819 55.4155 76.6909"></polyline>
            <polyline id="Stroke-21" stroke="#FFFFFF" points="104.1134 127.6037 88.2864 103.5327 92.7094 93.1827 92.5464 93.0057"></polyline>
            <polyline id="Fill-22" fill="#FFFFFF" points="55.4152 151.2365 67.7842 156.6795 79.6592 161.2975 91.8642 165.0905 102.0892 168.0595 115.1182 170.6985 126.1682 172.3475 130.2912 172.6765 130.7862 164.7605"></polyline>
            <polyline id="Fill-23" fill="#FFFFFF" points="130.2911 172.6769 133.7551 142.4959 112.1491 134.7439 109.1811 129.1369 103.9031 127.4879"></polyline>
            <polyline id="Fill-24" fill="#FFFFFF" points="101.2853 93.0792 118.5813 98.2962 122.7813 80.2062 129.1373 103.2432 123.0343 104.7272"></polyline>
            <path d="M126.1681,104.0685 L126.6631,104.2335 L126.6631,105.3875 L129.4671,107.2015 L130.1261,106.8725 L128.9721,108.1915 L129.9611,108.8505 L132.6011,108.8505 L133.5901,109.6755 L136.2291,109.5105 L137.7131,108.5215 L137.8781,106.3775 L137.5481,105.5525 L136.5591,105.0575 L135.2391,106.2125 L134.5791,103.7385 L136.3941,104.7275 L136.7241,103.7385 L137.8781,102.9135 L138.3731,102.2545 L138.5371,103.9035 L140.3521,102.9135 L140.0221,104.3975 L141.1771,103.4085 L141.3411,100.6045 L140.0221,100.7695 L138.7021,99.6155 L136.7241,97.3055 L135.8981,97.4705 L134.4141,94.6675 L133.4251,92.1935 L134.5791,90.8745 L133.5901,88.4005 L133.2601,79.4945 L130.6211,76.3605 L129.7971,76.8555 L128.9721,75.3715 L128.3131,75.7015 L127.1571,84.6065 L127.8171,86.5865 L126.3331,88.2355 L126.1681,85.9255 L125.6731,85.4315 L126.1681,84.2775 L125.6731,82.4635 L126.0031,80.8135 L125.6731,80.1535 L123.8591,76.6905 L123.5291,78.0095 L123.6941,78.6705 L122.7051,79.8245 L122.7761,80.2055 M101.4911,93.1415 L101.4291,93.1825 L101.4291,95.4925 L102.5841,97.9655 L104.2331,99.6155 L107.6961,101.2645 L107.3661,102.7495 L108.3561,106.2125 L111.6541,107.5315 L117.2621,108.1915 L121.0561,106.5425 L123.6941,106.7075 L126.0031,104.8925 L126.1681,104.0685" id="Fill-25" fill="#FFFFFF"></path>
            <polygon id="Fill-26" fill="#FFFFFF" points="192.3038 101.5939 194.1168 100.1099 194.1168 99.2849 192.4688 99.7809 191.6438 99.7809 190.8198 100.7699"></polygon>
            <path d="M123.3648,78.1752 L123.8598,76.6902 L123.3648,78.1752 Z" id="Fill-27" fill="#FFFFFF"></path>
            <polygon id="Fill-28" fill="#FFFFFF" points="139.1974 81.3087 140.5164 83.9477 140.8464 84.7717 143.6504 87.7407 144.8044 90.2137 144.8044 91.3697 147.1134 93.0177 148.1034 92.0287 148.2684 90.2137 148.7624 90.2137 149.2584 90.7087 152.0614 88.8947 151.8964 87.9057 151.7314 85.7617 152.3914 84.4417 150.7424 82.4627 150.7424 81.6377 150.4124 80.3187 148.5974 80.6487 148.5974 79.6597 150.4124 77.8447 150.7424 76.3607 151.5664 76.1957 150.4124 74.0517 146.7844 75.3717 146.2894 75.2057 145.7944 73.3917 143.4854 73.8867 143.6504 75.8667 142.3314 76.3607 142.1664 78.3397 143.9804 79.6597 143.3204 82.4627 142.4964 81.8027 140.6814 78.9987"></polygon>
            <polygon id="Fill-29" fill="#FFFFFF" points="129.1368 111.4894 130.2908 112.3144 130.7858 111.8194 129.9608 110.5004"></polygon>
            <polygon id="Fill-30" fill="#FFFFFF" points="136.5587 110.6652 137.5477 111.8192 138.3727 110.9952 137.3827 109.8412"></polygon>
            <polygon id="Fill-31" fill="#FFFFFF" points="140.6817 109.3458 141.5057 110.9948 142.3307 110.1698 141.8357 109.0158"></polygon>
            <polygon id="Fill-32" fill="#FFFFFF" points="152.7208 106.2121 154.0408 107.3661 154.8658 106.3771 153.5458 105.2231"></polygon>
            <polygon id="Fill-33" fill="#FFFFFF" points="176.3058 114.4581 177.7898 113.6341 178.1198 116.4371 177.4598 116.9331"></polygon>
            <polygon id="Fill-34" fill="#FFFFFF" points="173.9972 101.2648 175.9762 101.4298 176.1412 100.9348 175.1512 100.1098"></polygon>
            <polygon id="Fill-35" fill="#FFFFFF" points="177.7901 91.8634 178.4491 91.0394 174.8211 86.9164 173.5021 80.3184 173.8321 77.5144 175.8111 74.2174 174.4911 73.2264 171.5221 73.5564 167.8941 78.0094 167.3991 80.4834 166.5751 85.1014 167.3991 92.1934 168.5541 92.6884 171.8531 92.8534 173.3371 94.1734 171.6871 94.6674 169.8731 93.5124 168.7191 94.3384 168.8841 96.4814 169.3791 96.3164 171.6871 98.4614 171.6871 99.2854 174.4911 99.4504 174.8211 97.8004 178.4491 101.7594 180.5941 99.4504 181.4181 100.2744 185.2121 99.6154 187.0251 100.7694 188.5101 99.6154 189.5001 100.6044 190.4891 99.7804 189.3351 98.2964 192.1391 97.9664 192.9631 98.9554 195.2721 97.9664 193.6231 95.3274 192.4691 95.3274 192.4691 94.3384 196.5921 95.6574 198.0761 98.1314 200.0551 97.3054 200.5501 98.4614 199.8901 99.1204 201.5391 99.2854 204.5081 101.0994 204.0131 102.5844 202.6931 103.2434 202.8581 105.3874 205.1681 103.7384 205.4971 102.0894 208.7961 103.7384 210.2801 103.7384 210.2801 105.0574 213.5791 106.7074 217.2071 111.6544 216.7121 112.1494 216.5481 116.7674 213.9081 120.5604 214.7331 121.5504 217.5371 122.8694 217.7021 124.6834 216.3831 124.5184 216.0531 126.1684 214.5681 126.1684 213.5791 127.6524 210.9401 128.1474 210.6101 127.6524 207.8071 127.8174 207.3111 128.6414 207.4771 129.4674 208.3011 130.4564 206.1571 131.7754 206.8161 133.7554 207.6421 134.9094 209.6201 136.2284 211.1041 136.5584 211.7651 135.5694 214.2381 133.7554 213.5791 132.6004 214.4031 131.9404 217.2071 132.7644 217.3721 132.1054 218.6911 129.9614 219.3521 132.4354 219.8461 131.2814 226.1131 134.9094 227.5981 134.5794 228.7521 134.7444 228.9171 137.3834 230.7311 138.5374 231.3911 138.0434 235.5141 138.5374 236.1741 137.8784 237.1631 137.8784 237.8231 139.0324 240.6271 140.0214 243.9251 139.1974 248.3781 139.1974 249.5321 139.5274 250.3571 137.7134 248.8731 136.5584 246.3991 135.0744 241.9461 133.5904 240.2971 133.2594 236.3391 130.4564 237.6581 129.1364 240.2971 131.2814 241.7811 130.9514 244.7501 132.4354 247.7191 131.6104 249.5321 132.1054 250.5221 132.7644 250.6871 131.9404 250.1921 130.9514 250.0271 129.6324 248.8731 128.6414 247.5541 126.8284 249.5321 127.8174 249.5321 126.3334 247.2241 124.8484 247.2241 123.8594 243.9251 122.8694 244.9151 122.3754 244.0901 120.8904 242.9361 121.7154 241.1211 119.4064 240.4621 120.0654 238.3171 119.5714 234.6891 116.4374 233.2051 117.0974 232.8751 116.4374 231.3911 115.1184 231.7211 113.9644 232.7101 115.1184 234.1941 114.1294 233.7001 113.4684 232.3801 113.1384 231.3911 111.8194 232.8751 111.9844 231.8861 110.5004 233.5351 109.6754 235.3491 111.3254 238.1521 112.3144 239.4721 110.8304 238.8121 112.8094 240.6271 113.4684 241.7811 114.9534 243.4311 116.4374 245.0801 115.1184 246.7281 115.9424 246.7281 114.1294 245.2441 110.5004 246.2341 110.6654 247.3891 108.6854 246.8941 106.0474 245.4091 106.0474 245.4091 104.5624 246.7281 104.3974 246.8941 103.9034 246.0691 102.7494 247.0591 101.7594 243.2661 100.7694 241.1211 102.9134 240.7921 99.9454 238.8121 102.0894 237.9871 101.5934 236.8331 99.2854 234.6891 98.7904 233.7001 99.7804 234.1941 97.9664 233.7001 97.3054 231.2261 99.9454 228.5871 99.6154 227.1031 97.3054 226.1131 97.6354 221.1651 97.9664 221.1651 97.1414 222.8141 96.9764 223.6401 96.3164 222.8141 94.0084 221.8251 93.6774 224.1341 93.1824 225.1241 92.0284 224.7941 91.2044 221.4951 91.6984 220.0111 91.8634 220.1761 90.8744 222.3201 89.0594 219.6811 86.5864 218.8561 86.7514 219.0211 88.4004 218.0321 88.8944 217.2071 88.2354 215.5581 89.7194 215.0631 89.2244 218.1961 86.0914 217.8671 85.4314 214.5681 84.7714 213.5791 86.2564 212.9191 86.5864 213.5791 85.1014 211.6001 86.7514 211.4351 84.1124 210.4451 83.7824 209.9501 85.7614 209.4561 84.9364 208.1361 85.9264 208.7961 86.7514 209.9501 85.9264 209.2911 87.2464 208.1361 86.9164 207.8071 85.1014 209.2911 83.7824 209.1261 82.9584 206.6521 81.1434 205.6621 82.1334 205.1681 84.6064 202.3641 81.3084 200.3851 83.7824 200.0551 83.4524 201.5391 81.3084 200.7151 79.3294 199.0651 79.6594 198.9001 78.5054 196.9211 77.5144 196.0971 78.1754 194.1171 77.0204 190.9841 78.6704 190.9841 83.4524 190.4891 83.4524 190.1591 80.6484 188.5101 81.3084 188.6751 80.1534 187.6861 80.8134 187.1901 84.2774 186.3661 84.2774 186.8601 80.9784 186.5311 78.8344 185.7061 76.3604 184.8821 75.8664 184.0571 75.7014 183.8931 74.3824 182.5721 72.4024 178.6141 73.3914 177.6251 75.0414 176.6361 76.3604 176.1411 78.8344 175.6451 80.3184 175.8111 83.2874 177.2951 83.9474 175.8111 86.7514 177.2951 88.5654 179.1091 88.8944 179.1091 92.1934"></polygon>
            <polygon id="Fill-36" fill="#FFFFFF" points="200.3849 102.4191 201.5389 100.7701 200.7149 99.9451 199.3959 101.1001"></polygon>
            <polygon id="Fill-37" fill="#FFFFFF" points="195.7667 105.7179 197.0857 104.3979 197.0857 101.7589 196.2617 101.5939"></polygon>
            <polygon id="Fill-38" fill="#FFFFFF" points="195.4366 101.0997 197.7466 99.1207 196.0966 99.4507"></polygon>
            <polygon id="Fill-39" fill="#FFFFFF" points="203.0235 107.8615 203.1885 113.4685 204.5075 114.6235 206.4875 114.1295 208.4655 114.2935 209.2915 111.9845 208.7955 110.1705 207.4765 108.5215 207.9715 106.8725 205.1685 106.7075"></polygon>
            <polygon id="Fill-40" fill="#FFFFFF" points="212.589 107.3663 213.084 108.3563 211.765 109.0153 209.785 109.1803 209.126 108.1913 209.785 106.3773 210.776 107.3663"></polygon>
            <polygon id="Fill-41" fill="#FFFFFF" points="205.8273 103.7384 206.6523 105.7174 207.8063 106.3774 207.9723 105.8824"></polygon>
            <polygon id="Fill-42" fill="#FFFFFF" points="211.1046 142.4962 210.9406 143.8152 209.7856 144.9702 208.6306 143.9802 207.9716 143.6502 207.6416 142.8252 208.4656 141.8362"></polygon>
            <polygon id="Fill-43" fill="#FFFFFF" points="210.7755 140.3517 212.9195 141.6707 213.9085 141.3407 213.9085 140.5167"></polygon>
            <polygon id="Fill-44" fill="#FFFFFF" points="193.2931 149.2579 194.4471 150.0819 195.7671 148.9279 197.9111 148.4329 198.2401 150.5769 196.0971 153.7109 196.4271 154.3699 194.7771 155.0299 193.4581 155.0299 192.7981 154.8649 191.4791 153.3809 192.9631 151.0719"></polygon>
            <polygon id="Fill-45" fill="#FFFFFF" points="204.1778 153.8761 204.3428 151.5661 206.4878 150.2471 207.4768 152.8861 207.6418 156.3501 206.4878 157.1741"></polygon>
            <polygon id="Fill-46" fill="#FFFFFF" points="247.7189 150.0822 247.2239 151.7312 246.5639 152.8862 247.7189 153.7112 248.8729 152.2272 248.8729 150.2472"></polygon>
            <polygon id="Fill-47" fill="#FFFFFF" points="252.5011 139.5275 253.8201 138.2085 254.8111 138.5375 255.8001 140.1865 254.8111 140.8465"></polygon>
            <polygon id="Fill-48" fill="#FFFFFF" points="231.7208 138.8673 233.8648 140.8463 235.0198 140.5163 235.0198 139.6923"></polygon>
            <polygon id="Fill-49" fill="#FFFFFF" points="146.1241 107.3663 146.4541 105.0573 148.2691 103.0783 151.0721 105.3873 151.2371 106.3773 153.3811 108.6853 153.2161 110.0053 154.3701 110.1703 154.8651 110.9953 151.7311 113.6343 144.6401 110.3353 143.6501 109.1803 144.3101 107.8613 145.6291 108.1913"></polygon>
            <polygon id="Fill-50" fill="#FFFFFF" points="184.3868 128.9718 185.2118 131.7758 186.3658 131.4458"></polygon>
            <polygon id="Fill-51" fill="#FFFFFF" points="186.3663 128.3126 188.0153 130.9516 189.9943 130.9516 190.1593 130.2916 188.8403 129.3016"></polygon>
            <polygon id="Fill-52" fill="#FFFFFF" points="181.7482 130.7863 183.2322 129.9613 185.5412 134.5793 186.2012 134.4143 186.3662 132.7653 187.0252 132.6003 188.6752 134.2493 189.9942 134.2493 192.9632 136.2283 195.1072 137.0533 197.0862 140.1863 196.0972 141.6713 196.5922 141.8363 197.4162 140.8473 199.0652 141.0123 199.5602 139.8563 201.3742 141.5063 201.2092 142.6613 198.9002 145.1353 196.9212 144.1443 195.4362 143.8153 194.4472 142.6613 193.1282 142.3313 191.8092 141.5063 190.6542 142.9903 191.3132 144.3093 189.9942 145.3003 189.5002 145.6293 188.1812 148.4323 186.0362 149.7533 185.2122 147.6083 185.2122 146.1243 184.3872 145.7943 180.2642 147.6083 179.7692 146.6193 182.0782 142.9903 182.5722 134.9093 181.9132 134.0853"></polygon>
            <polygon id="Fill-53" fill="#FFFFFF" points="133.59 79.6593 130.786 74.7113 132.436 73.3913 134.414 73.3913 136.229 75.5363"></polygon>
            <polyline id="Fill-54" fill="#FFFFFF" points="127.0568 63.8468 129.4668 63.1658 130.4558 64.4868 131.7758 64.3218 132.6008 64.8158 134.5788 64.1568 135.8988 62.6718 136.0638 61.8468 137.0528 59.7028 137.0528 57.8888 135.7338 56.4048 134.5788 56.4048 133.7548 57.0648 132.4358 55.7448 131.9408 55.4148 132.9298 54.7548 132.4358 53.1068 132.7658 51.4568 132.6008 50.1378 131.7758 49.8078 130.6208 51.6218 128.6418 52.7768 129.9608 54.7548 130.2908 55.7448 129.3018 55.5798 128.6418 56.4048 130.9518 59.3728 130.1258 59.5378 128.1478 58.5488"></polyline>
            <line x1="128.1153" y1="58.7033" x2="127.0563" y2="63.8473" id="Fill-55" fill="#FFFFFF"></line>
            <polyline id="Fill-56" fill="#FFFFFF" points="133.59 35.7887 134.909 37.9327 134.579 39.0877 133.755 39.7467 132.766 39.2527"></polyline>
            <path d="M132.93,39.0873 L133.755,35.9533 L132.93,39.0873 Z" id="Fill-57" fill="#FFFFFF"></path>
            <polygon id="Fill-58" fill="#FFFFFF" points="137.548 61.5177 138.702 61.5177 138.867 63.1657 139.527 64.4867 137.878 64.6507 136.724 63.8267 137.383 62.6717"></polygon>
            <polygon id="Fill-59" fill="#FFFFFF" points="141.1769 61.3527 143.1559 59.0427 144.4749 60.0337 143.3209 57.8887 143.4859 55.5807 144.4749 55.2497 145.9589 58.5487 147.1139 59.5387 146.2889 57.3937 146.2889 56.2397 145.1349 55.4157 147.4439 53.7657 147.7739 55.4157 148.4329 55.4157 149.2579 53.7657 150.5769 55.4157 151.2379 56.7347 151.2379 59.3737 150.9069 60.1987 151.2379 61.8467 150.9069 63.0017 150.4119 64.8157 148.5979 66.1347 147.4439 65.6407 145.9589 66.2997 144.8049 63.4967 146.9489 61.5177 147.1139 60.8577"></polygon>
            <polygon id="Fill-60" fill="#FFFFFF" points="143.4855 44.5299 144.3095 45.6839 146.1245 45.8489 145.9595 45.1899"></polygon>
            <polygon id="Fill-61" fill="#FFFFFF" points="148.4327 29.192 149.5877 31.006 150.5777 31.006 150.4117 28.202 148.9277 27.708"></polygon>
            <polygon id="Fill-62" fill="#FFFFFF" points="152.2267 65.9699 155.8547 68.9389 158.3297 68.6099 158.3297 63.9909 155.8547 61.3529 154.3707 62.0119 153.7107 63.6609"></polygon>
            <polygon id="Fill-63" fill="#FFFFFF" points="152.0616 63.4962 151.4016 62.3422 153.0506 61.3522 154.0406 62.0122"></polygon>
            <polygon id="Fill-64" fill="#FFFFFF" points="155.1954 59.3732 156.1844 60.6922 157.3394 60.3622 156.0194 59.0432"></polygon>
            <polygon id="Fill-65" fill="#FFFFFF" points="138.0431 44.3649 138.2081 46.5089 138.3731 48.3229 139.6921 49.1479 140.1871 48.6539 139.0321 44.6949"></polygon>
            <polygon id="Fill-66" fill="#FFFFFF" points="154.2052 45.3546 153.0512 47.1686 156.6802 47.4986 157.6692 47.9936 158.3292 45.8496 155.8542 45.5196 155.5242 45.8496"></polygon>
            <polygon id="Fill-67" fill="#FFFFFF" points="161.9571 45.8493 161.2971 46.8393 161.4621 48.1583 162.7811 49.6423 164.1011 49.6423 163.9361 47.8283"></polygon>
            <polygon id="Fill-68" fill="#FFFFFF" points="184.3868 71.7423 187.0258 72.0723 188.6748 71.4133 190.8198 71.2483 194.9428 74.8763 195.4368 76.0303 190.8198 76.3603 189.3348 77.1853 189.0048 78.6703 187.3558 78.9993 186.5318 76.1953 185.0468 75.0413 184.2218 72.5673"></polygon>
            <polygon id="Fill-69" fill="#FFFFFF" points="156.0196 72.7326 158.4936 72.0726 160.9676 73.8866 163.9366 73.0616 164.9256 75.8666 163.2766 78.8346 163.2766 80.3186 161.2966 83.1226 160.1426 82.9586 158.8236 82.1326 158.1646 82.7936 158.8236 84.4416 157.1736 88.0706 155.5246 87.7406 155.1956 85.2666 153.8756 82.4626 154.2056 76.3606 153.8756 75.2066 155.6896 75.3716 155.0306 74.2166"></polygon>
            <polygon id="Fill-70" fill="#FFFFFF" points="147.2784 74.382 150.2474 73.227 149.9174 72.733 148.5974 72.733 146.9494 73.392"></polygon>
            <polygon id="Fill-71" fill="#FFFFFF" points="151.7316 81.3087 150.7426 80.4837 151.4016 79.1637 152.7206 80.3187"></polygon>
            <polygon id="Fill-72" fill="#FFFFFF" points="138.5372 53.6007 139.8572 52.9417 141.3412 54.5897 141.1772 55.4147 139.3622 55.4147 139.3622 54.5897"></polygon>
            <polygon id="Fill-73" fill="#FFFFFF" points="139.0323 56.2394 142.0013 56.0744 142.0013 56.8994 139.5273 57.5584"></polygon>
            <polygon id="Fill-74" fill="#FFFFFF" points="140.1866 59.5382 141.5056 58.0542 142.9906 58.2192 141.6706 59.7032"></polygon>
            <polygon id="Fill-75" fill="#FFFFFF" points="146.1241 52.1163 144.3101 53.9303 144.9701 54.7553 146.9491 53.1063"></polygon>
            <polygon id="Fill-76" fill="#FFFFFF" points="141.3409 40.9015 140.5169 39.2525 141.6709 38.5925 142.9899 39.2525 143.1549 38.4275 140.8469 34.9645 140.8469 33.4805 142.9899 32.4905 144.4749 34.4695 144.8049 36.1185 146.1239 35.1295 146.9489 37.2735 148.9279 38.4275 148.5979 41.0665 149.2579 45.0245 148.1039 45.6845 146.2889 44.2005 146.1239 42.2205 145.7939 41.7265 142.9899 40.7365"></polygon>
            <polygon id="Fill-77" fill="#FFFFFF" points="151.8966 45.1896 151.0726 43.0456 152.2266 43.2106 150.5776 41.3966 150.9076 39.2526 150.4126 37.9326 151.0726 37.9326 153.7106 39.2526 154.2056 40.0766 155.1956 40.4066 154.8656 41.2316 155.8546 43.5406 153.5456 45.0246"></polygon>
            <polygon id="Fill-78" fill="#FFFFFF" points="184.7169 0.0003 183.2329 0.1653 182.0779 2.8033 181.0889 2.8033 181.9129 1.4843 181.5829 0.3293 180.2639 0.9893 177.7909 0.8243 177.4599 1.6493 176.3059 1.6493 175.4799 2.9683 172.3479 2.6393 172.1829 3.9583 173.0069 4.7833 173.0069 5.1133 170.0379 4.7833 168.7189 6.4323 169.3789 7.5863 168.2239 7.0923 168.0599 9.5653 168.5539 10.3903 167.3989 10.8853 165.0909 8.9063 165.0909 10.5553 163.9369 11.2153 166.0809 12.8643 164.4309 13.0283 163.7709 12.5343 162.7809 12.5343 161.9569 14.3493 161.4619 13.8543 158.6579 15.9973 159.6479 17.1523 160.6369 16.3283 161.1329 16.4923 160.3079 17.8123 161.7919 19.1313 160.9679 19.9563 161.2969 20.9453 164.9259 19.9563 166.7399 18.3073 165.5849 20.6153 162.4529 21.2753 162.4529 21.9353 165.0909 23.2543 165.7499 21.6043 166.0809 23.7493 169.2139 23.2543 169.3789 22.4303 170.2039 22.2643 170.5329 23.2543 173.6669 20.9453 174.3259 19.6253 175.9759 19.7913 173.9969 22.9243 170.8629 24.9043 171.0289 25.7283 173.1719 27.2123 172.8419 28.0373 174.1609 29.5213 173.1719 29.3563 172.1829 27.8723 171.5229 27.8723 169.7089 25.8933 166.0809 25.8933 166.0809 26.8833 166.5759 27.8723 166.9039 29.3563 168.8839 30.6773 170.3679 33.4803 170.5329 35.2943 173.1719 35.6243 173.6669 35.1293 174.4909 35.6243 172.8419 37.2733 171.8519 36.2843 168.7189 36.4483 167.3989 37.6033 167.2339 38.7583 166.5759 39.7473 166.7399 42.5503 167.5649 42.5503 168.3889 41.7263 169.0489 42.3853 169.5439 42.3853 170.3679 41.8913 170.0379 43.3763 170.5329 44.8603 172.5129 46.1793 173.3369 45.3553 173.6669 44.2003 174.1609 45.3553 173.9969 46.1793 172.6769 46.8393 170.5329 47.0033 169.8729 46.0143 168.7189 44.2003 166.4099 44.2003 166.4099 45.3553 166.7399 46.0143 167.0699 47.8283 168.0599 48.1583 168.2239 48.6533 167.2339 49.8083 166.5759 49.6423 164.7609 52.1163 165.0909 54.4263 164.9259 55.0853 166.9039 55.2503 167.5649 55.5793 169.5439 54.0953 170.5329 54.7553 173.5019 55.7453 173.1719 54.5893 173.5019 53.7653 175.8109 53.2703 176.1409 54.2613 177.2949 53.4363 177.1299 52.4463 179.2749 52.4463 179.4389 54.7553 179.9329 55.0853 183.7279 51.2923 184.2219 49.3123 183.2329 47.4983 182.5719 47.9933 182.5719 48.8183 182.2439 49.1473 181.0889 48.1583 181.5829 47.3343 181.0889 46.5083 180.0989 47.1683 176.8009 47.3343 176.4709 44.5293 177.6249 45.8493 180.0989 46.1793 182.4079 44.2003 181.2529 41.3963 182.4079 40.7363 182.9029 41.0663 184.8819 39.2533 183.3979 38.4273 184.8819 37.9323 184.5519 36.6133 183.2329 35.6243 184.7169 35.6243 184.3869 33.6453 183.0669 32.9853 182.5719 32.3253 180.9239 32.6553 181.5829 31.3363 184.3869 31.0063 183.3979 29.8513 179.4389 31.0063 181.4179 29.5213 182.4079 29.3563 184.5519 27.2123 184.0559 25.8933 185.2119 26.5533 186.5309 24.5743 186.6959 22.4303 184.5519 23.4193 186.2009 21.2753 186.0359 20.2853 186.8609 19.9563 188.1809 14.8433 188.5099 12.6993 189.3349 10.2253 188.5099 9.4013 187.3559 10.0603 185.3779 13.8543 184.3869 14.0183 186.0359 10.5553 184.3869 11.3803 183.8929 11.0493 186.5309 9.8963 188.6749 6.2673 188.3449 2.4733 187.6859 1.4843 186.2009 1.8143"></polygon>
            <polygon id="Fill-79" fill="#FFFFFF" points="156.1847 18.6368 158.1637 18.8018 160.9677 23.4198 161.2967 24.7388 162.2877 24.7388 163.4417 27.5428 163.9367 27.5428 163.9367 25.8928 163.2767 25.0688 164.7607 25.3988 164.7607 27.7078 165.5847 28.5328 166.4107 31.0058 168.8837 32.3248 169.0487 34.7998 166.9047 35.9538 165.5847 38.9228 165.7497 39.9118 165.0907 40.2418 164.9257 42.2208 164.2657 42.0558 163.9367 41.0668 162.4527 41.8908 162.1217 42.5508 160.9677 42.7158 158.6587 40.9018 159.4837 39.7468 158.1637 39.5818 156.3497 36.1188 158.6587 33.8098 155.3607 34.6348 154.5357 33.1498 154.7007 31.8308 153.7107 30.8408 153.7107 27.8728 155.6897 29.3568 154.3707 27.2128 153.7107 27.3778 154.3707 24.5738 156.0197 24.4088 155.8547 23.7488 154.7007 22.5948 154.8657 20.9458 155.6897 20.9458 156.3497 21.6048 157.3387 20.2858 155.8547 19.4608"></polygon>
            <polygon id="Fill-80" fill="#FFFFFF" points="163.1114 51.9513 163.7714 55.5803 164.5954 55.5803 164.1004 53.2703"></polygon>
            <polygon id="Fill-81" fill="#FFFFFF" points="152.0616 53.2706 154.3706 56.2396 154.7006 55.7456 154.3706 57.2296 157.6686 56.7346 158.8236 56.4046 159.1536 58.5486 160.4726 59.8686 160.8026 62.0116 159.8126 64.4866 161.1326 65.3106 160.9676 67.6196 161.6266 67.6196 162.7816 68.9386 163.9366 68.7736 165.7496 69.4336 167.2346 67.2906 168.2246 67.7846 167.7296 69.1036 172.8416 69.1036 174.3266 68.6096 175.3166 67.7846 177.2946 67.7846 178.4496 66.2996 181.0886 67.6196 182.2436 66.2996 183.2326 66.2996 183.7276 63.9916 184.5516 63.6616 184.5516 62.5066 183.3976 62.5066 183.3976 61.6816 184.0566 60.0336 183.0676 59.3736 181.7486 59.3736 181.9136 58.2186 180.2636 58.0536 179.4396 57.0646 175.4806 58.2186 174.3266 60.0336 172.5126 60.3626 171.6876 61.1876 171.8526 62.6716 170.2036 61.0226 167.7296 61.5176 167.7296 60.5276 166.7406 60.5276 166.5756 62.0116 166.0806 61.8466 166.2456 60.3626 165.0906 58.8776 163.1116 58.8776 162.4526 58.3836 163.7716 57.0646 165.0906 56.5696 162.7816 55.5806 162.7816 54.7546 161.2966 53.6006 160.1426 53.4356 159.1536 54.7546 158.6586 54.2606 157.5036 52.2816 156.5146 52.2816 153.5456 50.9616 152.2266 51.9516"></polygon>
            <polygon id="Fill-82" fill="#FFFFFF" points="218.1964 203.6837 220.5064 202.0347 221.0004 202.8587 219.0214 204.1777"></polygon>
            <polygon id="Fill-83" fill="#FFFFFF" points="216.2179 216.8771 213.5789 216.8771 211.7649 217.7021 211.1049 218.8561 211.9299 219.5161 215.2289 219.6811 217.7019 220.3411 218.5269 220.0111"></polygon>
            <polygon id="Fill-84" fill="#FFFFFF" points="224.464 222.6495 225.783 222.9795 223.64 224.6285 223.475 223.8035"></polygon>
            <polygon id="Fill-85" fill="#FFFFFF" points="219.8458 193.4581 217.8668 195.6021 217.2068 194.7771 215.8878 195.9321 216.7118 193.7881 217.0418 191.8091 217.3718 192.6331 218.0328 191.6441 218.0328 190.8191 218.5268 190.4891 218.8568 191.9741"></polygon>
            <polygon id="Fill-86" fill="#FFFFFF" points="214.8985 193.4581 216.2175 192.3041 215.8875 193.2931"></polygon>
            <polyline id="Fill-87" fill="#FFFFFF" points="119.5714 122.0451 118.5814 121.2211 119.2414 118.7461 117.5924 115.4481 114.9534 112.1491 112.9734 113.1391 112.3144 112.6451 108.1914 112.3151 101.4294 109.5111 101.0994 108.3571 102.9134 107.0371 103.4084 107.5311 105.2224 108.0261 105.8824 106.5421 105.0574 103.4081 102.7484 101.1001 100.4394 101.1001 96.6464 98.6251 96.6464 97.4711 92.7804 93.2861 92.5234 107.3661 137.7134 142.6611"></polyline>
            <polyline id="Fill-88" fill="#FFFFFF" points="92.8531 93.1828 87.9161 103.7278 87.9051 103.7388 104.2331 127.8178 109.5111 129.1368 112.1491 134.5788 133.2601 142.4958 130.3221 172.3988 130.5281 172.5638 130.6931 172.7288 137.3831 173.5018 147.7731 173.9958 155.9471 174.1618 157.5041 151.5668 102.4191 112.6448"></polyline>
            <polyline id="Fill-89" fill="#FFFFFF" points="156.0196 174.1613 156.8446 171.8523 156.6796 170.6983 157.8336 169.8733 159.4836 164.1003 159.1536 163.4413 161.1326 161.7923 160.1426 160.9683 164.5956 156.8453 163.9366 156.1843 165.7496 155.6893 164.2656 154.3703 164.7606 153.7113 167.3996 153.8763 169.0486 152.0613 169.3786 150.5773 165.4206 147.9383 164.4306 148.4323 160.4726 146.1243 159.1536 146.4543 160.4726 145.1353 164.1006 147.2783 166.0806 147.1133 168.8836 148.4323 170.8636 147.6083 171.3576 144.9703 172.5126 144.6403 174.4916 144.9703 177.2946 142.9903 177.6246 140.6823 178.4496 139.6923 179.4396 135.5693 173.6666 135.2393 170.5336 132.6003 168.0596 131.7753 168.0596 131.1163 171.3576 131.4453 174.9866 133.9203 178.4496 134.2493 181.2526 130.7863 181.0886 130.2913 181.9136 128.4773 181.2526 127.6523 179.2746 126.8283 179.1096 125.3443 182.4086 125.8383 183.3976 126.9933 185.2116 127.3223 185.7066 126.3333 187.3556 127.1573 188.1806 126.9933 187.1906 125.6733 187.1906 124.5183 188.3446 125.5093 190.4896 124.1893 192.3036 120.0653 193.1276 120.0653 192.9626 116.2723 190.9846 114.7883 188.0156 110.3353 188.0156 109.6763 189.4996 109.8413 190.9846 107.5313 189.6646 105.8823 190.1596 104.7273 188.8396 104.0683 187.3556 104.0683 186.5316 103.0783 186.2016 101.7593 182.5726 101.9243 180.7586 101.4303 178.9446 101.9243 179.4396 105.7183 181.4176 107.2013 181.0886 109.0163 181.5826 109.3463 180.9236 109.8413 180.0986 109.3463 179.4396 109.8413 180.0986 114.7883 178.9446 116.4373 178.7796 119.9013 177.2946 119.9013 177.6246 120.8913 176.3056 121.7153 176.4706 120.8913 173.0066 115.9423 173.0066 112.6443 173.8316 113.7993 174.9866 113.7993 174.3266 111.6543 171.5226 108.0263 170.5336 107.0373 168.7186 108.5213 169.2136 111.4893 168.7186 111.9843 169.0486 114.4583 167.8946 114.6233 166.9046 110.0053 165.4206 107.5313 166.7406 105.7183 166.0806 105.2233 164.1006 104.8923 163.1116 105.8823 161.6266 104.2333 162.7816 101.9243 161.7916 100.9343 163.1116 101.7593 163.9366 100.9343 162.4526 99.6153 162.6176 98.7903 160.8026 96.9763 160.1426 92.8533 157.3386 89.3903 156.6796 90.0503 156.0196 88.5653 155.0306 88.7293 154.8656 89.8853 153.3806 90.8743 154.5356 91.6983 153.8756 93.0173 153.0506 92.1933 151.8966 93.3483 152.3916 94.0083 152.3916 95.8213 151.7316 96.8113 153.2156 97.9663 152.5566 98.6253 151.5666 99.6153 151.7316 101.7593 155.3606 105.5533 156.1846 105.2233 157.5036 106.8723 158.4936 106.2123 158.9886 107.5313 157.6686 107.0373 157.1736 108.5213 156.1846 110.8303 157.3386 111.8193 157.9986 111.1603 158.3296 109.8413 158.8236 109.8413 158.9886 113.3043 158.3296 113.1393 156.5146 116.4373 154.5356 116.9323 153.8756 117.7573 154.5356 120.0653 154.5356 122.8693 154.0406 122.8693 153.0506 121.7153 152.0616 122.3753 152.3916 121.0563 151.8966 120.2303 152.3916 118.7463 152.2266 115.7773 152.8856 115.1183 151.8966 115.1183 149.2576 113.9643 147.7736 112.6443 147.7736 113.7993 145.7936 114.1293 146.4546 115.4483 146.6196 116.7673 148.2686 117.2623 148.7626 117.2623 149.7526 118.7463 148.7626 119.2413 145.7936 116.7673 145.2996 118.2523 143.4856 117.9223 142.1656 117.0983 140.5166 117.0983 139.6926 118.0873 136.0636 117.9223 132.2706 114.2933 131.6106 114.9533 130.1256 114.1293 129.9606 113.6343 128.1476 111.9843 128.4776 110.5003 127.3226 107.8613 126.4986 107.6963 124.0246 108.8503 120.5606 108.8503 119.2416 110.9953 120.7256 111.9843 121.7146 111.1603 122.8696 111.6543 125.6726 111.1603 126.3326 110.1703 127.1576 110.5003 127.3226 111.6543 121.2206 113.7993 120.0656 114.7883 120.7256 116.9323 121.2206 120.0653 121.5496 121.7153 121.0556 121.7153 120.2306 120.7253 119.5716 122.0453"></polyline>
            <polygon id="Fill-90" fill="#FFFFFF" points="99.1202 112.9738 102.0892 110.6648 129.1372 131.4458 123.5292 132.7648"></polygon>
            <path d="M1.3194,171.5223 L0.8244,172.8413 L0.0004,173.6673 L0.8244,174.4913 L0.4954,177.2953 L2.8034,177.4603 L4.2884,175.4803 L7.5864,173.0073 L5.6074,172.5133 L4.2884,174.6563 L2.4744,174.1613 L2.6384,173.8323 L4.4534,173.6673 L5.1134,172.6773 L4.6184,171.5223 L3.7934,171.1933 L3.6284,170.0383 L2.9694,169.3793 L1.3194,171.5223 Z M9.5654,176.3053 L10.7194,177.7903 L11.7104,177.1303 L10.8844,176.3053 L9.5654,176.3053 Z M11.2154,178.1203 L11.8744,183.2323 L12.3694,182.0783 L11.7104,177.7903 L11.2154,178.1203 Z M0.1654,177.9553 L0.3294,178.4493 L0.3294,180.5943 L1.1544,186.3663 L2.3094,186.5313 L2.3094,185.7063 L1.8144,185.3763 L1.8144,182.9023 L1.3194,181.2533 L2.1434,179.1093 L3.9584,178.9443 L3.1334,177.7903 L0.1654,177.9553 Z M8.9054,179.9333 L10.0614,182.9023 L10.8844,182.0783 L10.2254,179.7693 L9.8954,178.9443 L8.9054,179.9333 Z M14.3484,182.7373 L16.1634,181.9123 L14.8434,181.7483 L14.3484,182.7373 Z M11.5454,186.6963 L11.7104,187.8513 L12.8644,189.9943 L14.5134,187.1903 L13.6894,184.3873 L11.5454,186.6963 Z M9.8954,189.0043 L11.2154,189.0043 L11.3794,187.3563 L10.3904,187.1903 L9.8954,189.0043 Z M13.1944,194.1173 L13.1944,194.9423 L17.1524,194.4473 L16.9874,193.6233 L13.1944,194.1173 Z M6.9274,201.5393 L6.4324,202.8583 L7.4214,204.5083 L9.4014,204.5083 L9.2354,205.3323 L7.7514,205.4973 L6.7614,206.9813 L9.0714,208.9613 L8.5764,209.2903 L9.2354,210.6103 L10.5554,210.9403 L10.7194,213.4143 L10.0614,213.4143 L9.8954,214.0733 L10.3904,215.2283 L11.5454,215.2283 L12.0394,217.8673 L11.5454,218.5263 L12.6994,220.3413 L14.1844,220.0103 L14.3484,220.8363 L13.6894,221.8253 L16.4924,225.6183 L18.8014,226.9383 L19.7914,225.1243 L20.1204,221.3303 L17.1524,217.8673 L16.9874,210.9403 L11.2154,205.3323 L10.3904,203.3533 L8.0814,201.3743 L6.9274,201.5393 Z M8.5764,212.2603 L10.0614,213.2493 L9.7304,211.1043 L8.5764,212.2603 Z M18.6374,217.5373 L20.2864,220.0103 L20.7814,218.6913 L18.9664,216.0523 L18.6374,217.5373 Z" id="Fill-91" fill="#FFFFFF"></path>
            <polygon id="Fill-92" fill="#FFFFFF" points="9.401 121.715 21.77 132.601 38.922 194.117 39.582 219.187 24.079 224.959 22.1 224.299 22.76 223.145 22.595 221.33 21.441 220.671 21.11 218.692 21.77 218.527 21.605 217.207 19.956 216.877 19.131 214.073 19.956 213.744 19.956 212.424 17.977 209.95 17.317 209.95 14.513 208.136 15.998 206.487 13.359 203.684 12.369 204.343 10.885 200.88 13.524 198.405 12.369 198.076 13.029 195.767 17.977 194.612 17.977 192.963 14.184 193.293 13.359 190.985 14.184 190.489 15.173 189.335 14.678 188.675 14.843 186.531 14.513 184.057 17.647 181.583 14.513 181.088 13.524 182.572 13.029 182.408 12.534 177.295 13.029 176.471 12.205 174.491 16.987 171.193 16.987 170.203 17.977 169.379 19.297 166.245 20.616 165.585 20.945 164.101 19.791 163.277 19.461 161.627 17.482 157.999 16.657 157.504 16.987 156.35 16.657 155.195 17.647 154.205 16.987 153.381 18.142 152.557 18.637 143.486 18.966 142.99 18.142 137.713 18.801 136.889 18.142 135.074 17.812 133.59 18.472 133.59 18.307 130.951 15.338 130.126 14.184 130.621 13.359 131.941 12.369 131.776 11.71 131.445 9.071 131.281 10.061 129.137"></polygon>
            <polygon id="Fill-93" fill="#FFFFFF" points="67.4547 156.8449 50.4677 198.2399 50.6737 198.1169 51.6217 199.0659 52.4057 199.5809 50.9617 200.3949 52.6317 202.3849 52.3227 202.8899 54.0027 203.7249 53.3637 205.0539 55.2087 207.3729 55.0647 210.1879 56.2497 211.0229 56.2907 212.7649 57.1467 213.1769 58.3427 214.9189 58.3837 216.8159 59.9097 217.2389 59.7857 220.1239 60.9707 222.3619 61.7857 223.7219 61.4347 225.0819 62.9087 227.5979 64.3727 229.2879 64.0217 232.4629 63.0217 236.2969 64.3207 238.8129 64.4857 240.7919 54.0957 237.3279 44.3647 233.6989 32.1607 228.7519 24.7797 225.2059 53.3947 150.4949 55.4147 151.2369 67.3717 156.5149"></polygon>
            <polygon id="Fill-94" fill="#FFFFFF" points="9.5655 121.88 17.7295 128.56 29.6865 136.889 40.9015 143.651 55.1075 150.914 55.0855 150.907 56.8165 152.804 33.4805 228.092 24.8215 225.206 27.0475 184.387 18.3065 130.456 10.7205 127.487"></polygon>
            <polygon id="Fill-95" fill="#FFFFFF" points="67.7843 156.6798 67.7023 156.9378 67.4543 156.8448 50.4673 198.2408 50.6733 198.1168 51.6213 199.0658 52.4053 199.5808 50.9623 200.3948 52.6323 202.3848 52.3233 202.8898 54.0033 203.7248 53.3643 205.0538 55.2093 207.3728 55.0643 210.1878 56.2503 211.0228 56.2913 212.7648 57.1463 213.1768 58.3423 214.9188 58.3843 216.8158 59.9093 217.2388 59.7853 220.1238 60.9713 222.3618 61.7853 223.7218 61.4343 225.0818 62.9093 227.5978 64.3723 229.2878 64.0223 232.4628 63.0223 236.2968 64.3213 238.8128 64.4863 240.7918 71.4123 242.7708 83.2873 245.9048 100.4393 174.8218 100.6253 172.8218 100.9343 172.6768 102.0063 168.3678 102.0893 168.2248 102.0893 168.0598 91.8643 165.0908 79.6593 161.2968"></polygon>
            <polyline id="Fill-96" fill="#FFFFFF" points="100.7697 172.5128 98.9557 173.5018 96.9767 174.9868 96.4817 175.6458 95.4917 175.3168 94.9977 175.6458 95.1627 176.1408 96.1517 176.3058 97.1417 176.9648 98.4607 175.6458 99.4507 174.9868 100.7697 174.6568"></polyline>
            <polyline id="Fill-97" fill="#FFFFFF" points="100.4025 174.6466 83.2875 245.7396 90.5445 247.3886 99.9445 249.2036 108.8505 250.6876 115.9425 251.6766 124.6835 252.6666 126.9935 201.2086 128.2195 190.6336 128.9715 186.0366 128.7565 185.9546 128.7345 186.1696 128.7565 185.9546 130.2915 172.6766 126.1685 172.3476 115.1185 170.6986 102.0895 168.0596 101.0235 172.1706"></polyline>
            <polyline id="Fill-98" fill="#FFFFFF" points="127.9825 193.2931 127.3225 193.6231 126.9935 194.7771 125.3435 196.4271 123.8595 197.5811 122.5405 197.7461 122.0455 197.0861 122.2105 196.4271 123.3645 196.2621 123.5295 196.7561 125.5085 195.4371 125.8375 194.2821 125.6725 193.2931 124.3535 191.1481 126.0035 189.0051 126.6635 189.1701 127.3225 187.8511 128.9715 186.3661"></polyline>
            <polyline id="Fill-99" fill="#FFFFFF" points="101.0231 172.171 100.9351 172.513 103.0271 171.409 104.6001 171.585 104.8541 172.749 107.9111 172.76 112.2891 174.749 110.5641 174.924 109.0031 174.275 107.4421 175.275 104.0681 174.625 100.4401 174.491 100.4021 174.647"></polyline>
            <polyline id="Fill-100" fill="#FFFFFF" points="178.7276 195.59 178.7586 195.592 178.8726 195.529 178.8206 195.592 178.9446 195.602 178.8106 195.787 161.9566 218.032 154.7006 225.618 154.5356 251.408 154.3706 251.378 154.3706 254.151 150.5776 254.151 136.5586 253.655 124.9006 252.687 124.8486 252.831 124.7666 252.677 124.6836 252.666 124.6836 252.594 124.7046 252.161 126.9936 201.209 127.9206 193.139 140.3516 196.097"></polyline>
            <polyline id="Fill-101" fill="#FFFFFF" points="155.8644 174.1202 155.8544 173.8322 146.6194 173.9962 135.5694 173.3372 130.5284 172.7082 130.4764 172.6982 130.2914 172.3482 130.0534 174.7082 128.7454 186.0672"></polyline>
            <polyline id="Fill-102" fill="#FFFFFF" points="178.7276 195.59 175.4806 195.437 173.1716 193.788 170.2036 193.293 166.9046 195.437 164.5956 194.612 165.0906 193.623 163.6066 186.861 162.2876 185.212 162.7816 183.233 161.2966 182.737 160.4726 183.398 156.8446 183.233 156.8446 182.243 155.6896 180.924 156.0196 179.11 155.8646 174.12 147.1136 197.251"></polyline>
            <polygon id="Fill-103" fill="#FFFFFF" points="155.8546 174.1613 155.5246 178.1203 147.7736 198.9003 127.9826 193.9523 129.3016 185.2123 142.5786 175.1513"></polygon>
            <polyline id="Fill-104" fill="#FFFFFF" points="129.1564 186.1837 129.7974 186.3667 129.1364 188.1807 130.1264 187.8507 130.7864 187.8507 128.4154 191.1277 128.8064 192.6327 127.9414 192.9627 127.9214 193.1387"></polyline>
            <polygon id="Fill-105" fill="#FFFFFF" points="142.4962 214.2384 142.9902 215.7224 142.1662 216.0524 142.3312 217.2074 142.6612 217.5374 142.8252 219.0214 142.9902 219.5154 142.8252 220.3414 143.9802 221.4954 144.8052 223.9684 145.3002 227.7624 146.1242 229.2474 146.2892 230.8954 147.1132 232.2164 147.4432 234.3594 149.0932 237.4934 148.7632 238.1524 148.5982 240.2974 148.7632 241.4514 147.9382 242.1114 147.1132 243.5954 146.4542 243.4304 146.1242 240.2974 146.4542 238.9774 146.7842 237.3284 146.2892 236.8334 146.9492 234.8544 146.6192 234.1944 146.1242 234.3594 145.3002 236.3394 144.9702 236.0094 144.8052 233.8644 145.1352 233.3704 145.1352 232.8754 143.6502 231.8854 143.8152 230.8954 143.1552 230.8954 142.3312 232.3804 141.6712 232.0504 141.1772 229.7414 140.0212 229.2474 139.6922 228.4224 139.5272 227.5974 138.7022 226.6074 138.8672 226.2784 137.8782 225.2884 138.2082 224.6294 139.3622 224.6294 139.8572 224.2994 139.8572 223.9684 138.3732 223.8034 137.5482 224.1344 136.5592 222.1554 138.8672 218.6914 138.7022 217.3724 141.5062 218.6914 142.0012 217.8674 141.1772 217.2074 141.3412 215.8874 140.3512 215.3924"></polygon>
            <polygon id="Fill-106" fill="#FFFFFF" points="216.712 270.9728 219.516 270.9728 220.176 270.3138 221.99 270.1488 222.815 269.6538 223.475 270.3138 224.299 269.9838 224.464 271.9628 223.64 272.7868 219.681 271.7978 216.877 271.7978"></polygon>
            <polygon id="Fill-107" fill="#FFFFFF" points="224.9591 226.9376 225.1241 229.4126 225.0821 229.4216 234.3591 272.1266 254.6351 274.3646 255.9651 273.7766 256.9541 271.9626 257.1191 270.9726 257.9431 269.9836 259.7581 267.1796 261.1181 266.6236 262.3761 266.3656 262.3971 266.3556 261.7371 263.7156 261.4071 262.2316 258.9341 262.0676 254.3151 265.3656 253.1301 266.0146 252.1921 266.2926 250.1921 265.8606 249.2031 264.0456 247.0591 264.3756 244.5851 262.7266 239.1431 262.8916 236.0091 261.0776 233.2051 258.2736 232.0511 255.4696 225.2781 228.2156 225.2681 228.3086 225.1241 227.6076"></polygon>
            <path d="M178.8156,258.9951 L181.5836,260.0881 L182.7276,260.2121 L182.7076,260.0971 L182.9026,260.0881 L183.3976,259.0991 L183.5626,257.9441 L184.7166,256.7891 L185.3776,257.6141 L186.0366,257.1191 L186.8606,254.3161 L187.5206,254.4811 L186.8606,256.6241 L188.5096,254.1501 L188.0156,253.1611 L188.3446,252.6661 L190.9846,253.8201 L195.6016,253.4911 L197.5816,254.4811 L197.7466,255.4701 L200.7156,258.7681 L203.1886,258.7681 L205.3326,258.2731 L205.3326,260.2531 L207.6416,262.7261 L206.9806,264.7061 L208.7966,265.3651 L208.6306,267.0151 L208.3006,268.0041 L210.4456,267.8391 L213.4146,269.3231 L214.8986,268.8291 L218.6916,268.8291 L223.8036,268.4991 L224.4636,269.1601 L226.7726,269.1601 L228.0916,268.0041 L231.5556,271.6331 L233.0396,272.4571 L233.2056,273.1171 L235.6786,275.9211 L234.8546,278.3941 L233.2056,278.5591 L231.3906,277.4051 L229.9066,277.4051 L228.9166,275.9211 L227.1026,274.2721 L225.2876,274.7671 L227.7626,277.5701 L228.0916,279.7141 L226.6086,281.5281 L227.5976,289.1151 L224.9596,291.5881 L224.7936,294.2271 L224.9596,296.7011 L221.9906,298.1851 L222.8146,300.0001 L225.7826,300.0001 L225.9486,298.8461 L228.2566,297.0321 L228.9166,296.8661 L230.0716,294.5581 L231.2256,293.0731 L236.6686,292.7431 L237.8236,292.0831 L236.5036,291.7541 L236.5036,291.0931 L237.9866,290.5991 L242.2756,288.7851 L243.5956,288.7851 L243.9256,287.7951 L243.2656,287.1361 L242.6056,285.8171 L241.2866,286.4761 L238.9776,286.9711 L237.9866,286.3111 L239.6366,283.6721 L241.2866,281.6931 L247.0586,278.7251 L248.5426,278.3941 L248.7076,278.7251 L251.0166,278.2301 L252.1716,277.4051 L250.6876,276.7451 L251.0166,276.2511 L251.8416,276.2511 L252.9966,275.0961 L253.6866,274.5391 L254.4086,274.4681 L254.6356,274.3661 L235.5136,271.4681 L225.2776,228.2161 L225.2676,228.3091 L225.1246,227.6081 L224.9596,226.9381 L225.1246,229.4121 L223.1446,229.7411 L220.5066,228.0921 L217.5376,225.1241 L216.8776,225.2881 L214.8986,222.9801 L211.5996,219.6801 L210.6106,219.6801 L210.7756,216.5481 L209.7856,213.4141 L208.3006,209.6201 L208.3006,206.9811 L208.9606,206.6531 L207.8066,203.8471 L207.1466,204.5081 L205.6626,204.5081 L203.6836,204.0131 L203.5186,204.1781 L195.6016,204.8371 L191.8086,202.6941 L190.9846,202.8581 L188.1806,201.5391 L186.2006,201.5391 L184.5526,201.0441 L184.3866,200.3851 L182.2436,197.5811 L179.0166,195.5601 L178.8156,258.9951 Z M183.8926,248.5431 L184.2216,247.5531 L183.2326,247.0581 L184.3866,245.7391 L184.3866,245.0791 L183.8926,244.5851 L185.5416,243.2661 L186.3666,243.2661 L187.1896,242.7711 L187.1896,245.0791 L187.8506,245.7391 L187.6856,248.3781 L187.3556,248.8731 L186.6956,249.2031 L186.2006,248.7081 L185.5416,249.3671 L185.0476,248.8731 L184.8816,248.2131 L184.0566,248.7081 L183.8926,248.5431 Z" id="Fill-108" fill="#FFFFFF"></path>
            <polyline id="Fill-109" fill="#FFFFFF" points="179.2433 195.5714 179.1193 195.4064 179.0163 195.5604 178.9853 195.4674 178.9443 195.4364 161.9573 218.0324 154.7003 225.6184 154.5353 251.4084 154.5463 251.4084 154.5353 251.4914 154.5353 251.5114 156.1843 251.1814 156.8453 255.6344 157.8343 256.2954 160.3073 256.4594 161.1333 257.1194 162.1223 257.2844 163.7713 256.4594 166.2453 256.7894 168.3893 258.9334 168.2243 259.4274 169.8733 258.4384 172.1823 260.2534 173.8323 260.4184 175.8103 258.7684 176.3053 258.7684 176.9653 259.7584 180.0983 259.7584 180.7593 260.2534 181.9023 259.8824"></polyline>
            <polygon id="Fill-110" fill="#FFFFFF" points="234.6896 270.4787 234.3596 272.2917 252.1716 275.0957 255.4696 273.2827"></polygon>
            <polyline id="Fill-111" fill="#FFFFFF" points="269.4064 156.1847 270.0654 154.8657 269.4064 153.2157 268.5814 153.3807 266.4374 151.7317 265.4484 151.5667 264.7884 151.0727 262.1494 149.9167 260.6654 147.9387 260.5414 147.7837 260.2374 147.3767 259.5784 148.1957 259.2634 148.9277 260.2534 149.0927 260.2534 150.2477 260.5834 151.5667 261.7374 152.2267 262.2314 151.4017 262.8914 153.0507 264.0464 154.3707 262.3964 155.6897 264.8714 155.0307 265.8604 155.1957 267.3444 154.2057"></polyline>
            <path d="M317.7296,176.1407 L315.0906,172.3477 L312.4526,171.3577 L310.3076,171.1927 L309.1536,172.3477 L309.1536,174.1617 L308.3296,173.6667 L307.9996,172.0177 L306.0196,170.3687 L303.0506,172.6767 L303.5456,173.3367 L301.5666,175.9757 L301.5666,178.1197 L300.9076,178.4497 L298.7626,182.7377 M317.9766,186.1287 L319.0486,185.2117 L320.0386,181.4177 L320.3686,178.4497 L319.5436,177.1297 L318.8836,175.8107 L317.7296,176.1407" id="Fill-112" fill="#FFFFFF"></path>
            <g id="Group-162" transform="translate(210.000000, 144.000000)">
                <path d="M88.7628,38.7374 L88.5978,34.4494 L91.0728,30.4914 L91.0728,29.1724 L94.0408,25.2144 L93.8758,23.7294 L91.7318,23.8944 L90.9078,23.0694 L90.2468,23.5644 L90.2468,24.8834 L88.9278,25.3794 L85.9588,24.3884 L84.9698,25.3794 L83.6508,24.7184 L82.4958,26.2034 L80.6818,26.5334 L81.0118,25.0494 L79.6928,23.3994 L77.2178,24.2244 L75.7338,23.5644 L74.9088,24.2244 L74.9088,23.2344 L73.7548,22.7404 L72.7658,23.3994 L71.1168,22.0804 L70.4558,19.9364 L70.7858,17.4624 L70.2908,16.9674 L68.6418,17.1334 L68.3128,16.4724 L66.1678,15.9774 L66.9928,14.8234 L66.1068,13.5244 L66.0958,13.5244 C65.9358,13.7904 64.4178,13.8344 64.1898,13.8344 L64.0248,12.6794 L62.2098,12.0194 L61.8798,11.1954 L59.4068,12.1844" id="Fill-113" fill="#FFFFFF"></path>
                <polygon id="Fill-115" fill="#FFFFFF" points="74.3322 37.7482 74.9912 38.5722 74.8272 39.2322 75.6512 40.8822 74.9912 40.8822 74.3322 41.5412 74.3322 42.2012 72.6832 43.3552 71.6932 42.6962 70.3742 42.5312 71.0332 43.3552 70.5392 43.8512 69.8792 44.1812 70.7032 45.0052 69.7142 45.6642 68.7252 45.3352 69.7142 47.3132 72.6832 47.6442 72.6832 48.3042 70.8682 48.1392 68.8902 48.1392 67.4052 45.5002 66.9102 45.1702 66.4152 45.1702 62.2922 43.8512 60.6442 44.0162 61.1382 41.5412 61.9632 42.8602 66.0862 44.5102 66.5802 43.8512 65.4262 41.8712 66.4152 40.8822 68.3952 42.3662 68.7252 41.7062 68.2292 41.2122 69.7142 40.2222 69.0552 38.2432 71.6932 40.2222 73.3432 40.8822 73.6722 40.3872 72.5182 39.7272 72.8482 39.0672"></polygon>
                <polyline id="Fill-117" fill="#FFFFFF" points="72.3673 96.2716 73.5073 96.4616 75.8163 94.8126 77.1363 94.6476 79.1153 95.9666 79.6093 96.6266 82.4133 102.7286 83.4033 104.5426 85.3823 104.7086 85.8773 106.1926 86.8663 107.1816 88.3503 107.3466 89.1753 103.3886 83.4033 86.5666"></polyline>
                <polyline id="Fill-119" fill="#FFFFFF" points="72.5157 95.9669 73.8367 94.8129 74.4967 93.1629 73.5067 91.3489 74.4967 89.8639 76.8057 88.8749 77.4657 89.3699 78.1247 89.2049 80.4347 87.0609 82.2477 85.9059 82.3137 85.7429 84.7227 87.3909"></polyline>
                <polyline id="Fill-121" fill="#FFFFFF" points="88.3507 107.3468 89.1747 106.5228 89.9997 106.5228 92.4737 105.2028 92.8037 103.8838 93.9577 103.7188 94.9477 102.2348 96.2667 100.0898 96.9267 99.4308 97.5867 98.6058 98.0807 96.6268 99.2357 95.9668 99.5657 94.4828 100.8847 93.8238 101.0497 92.6678 97.4217 92.6678 96.4317 92.9978 94.2877 90.8548 93.4627 91.0198 92.6387 89.2048 91.4847 89.0398 91.1547 89.5348 90.4957 89.3698 91.1547 88.0508 91.1547 87.2258 90.8247 84.9168 90.3297 83.7628 88.5157 84.7518 87.6917 86.4018 86.7017 86.5668 85.8767 85.4118 82.5787 85.5758 82.5577 85.5868 82.2897 85.9578 82.2477 85.9068"></polyline>
                <polyline id="Stroke-123" stroke="#FFFFFF" points="98.9874 96.1095 99.2354 95.9665 99.5654 94.4825 100.7904 93.8705"></polyline>
                <polygon id="Fill-125" fill="#FFFFFF" points="98.9874 96.1095 99.2354 95.9665 99.5654 94.4825 100.7904 93.8705 107.9764 95.4715"></polygon>
                <polyline id="Fill-127" fill="#FFFFFF" points="101.1525 93.4913 101.2145 93.3283 102.3695 93.6583 103.3585 93.4933 104.8425 93.8233 105.0075 92.9983 105.9985 92.5043 107.9765 92.6683 109.9565 90.0293 110.6155 90.0293 111.2755 90.6893 112.4295 89.6993 113.9145 90.6893 114.0795 91.1833 116.3875 90.8543 116.3875 91.1833 115.0685 92.1743 113.5845 93.6583 110.1215 98.7703 108.6365 100.4203 107.1525 101.5743 107.4825 102.5633 106.1635 103.7193 105.0075 103.2233 104.0185 104.3783 104.6785 105.3673 105.0075 105.8623 103.0295 111.6353 102.0395 112.6243 102.0395 113.6143 100.2255 114.7683 100.0605 113.7793 98.7415 113.1193 97.9165 113.6143 95.6075 111.3043 96.1025 109.3263 94.9475 108.9963 98.0815 103.7193 98.4115 102.5633 100.7195 99.4303 101.0495 99.4303 101.3805 100.5853 101.8755 100.5853 102.3695 99.5953 103.6885 98.1113 104.6785 97.6163 104.6785 97.2863 103.5235 97.1213 101.2145 98.4403 98.9065 100.0903 98.4115 100.2553 99.7305 96.1323 99.5645 96.0203 99.2355 96.1323"></polyline>
                <polygon id="Fill-129" fill="#FFFFFF" points="111.1105 87.2257 111.4405 80.2987 111.9345 79.6397 111.6055 78.6497 112.0995 77.9907 113.9145 79.6397 114.4095 80.4637 114.2445 83.2677 115.7285 82.2787 116.2225 82.6077 118.5325 81.7837 118.2025 82.1137 119.3565 83.5977 118.0375 84.2567 118.3675 86.5667 113.7495 89.3707"></polygon>
                <polygon id="Fill-131" fill="#FFFFFF" points="96.1027 87.2257 95.7727 89.3707 95.4427 90.0297 98.4117 91.5137 99.7307 91.5137 103.3587 91.3487 103.8537 92.3387 104.3487 92.3387 104.5137 91.3487 107.1527 91.0197 107.6467 90.1947 106.6577 88.5447 106.6577 87.8857 107.4827 86.7317 107.3177 85.7417 105.5027 87.0607 104.6787 87.5557 104.3487 86.7317 103.5237 87.0607 103.1947 88.0507 101.8747 88.3797 101.7097 88.8747 99.7307 89.0397 99.2357 89.6997 98.5767 89.2047 97.9157 89.0397"></polygon>
                <g id="Group-135" transform="translate(110.000000, 37.000000)">
                    <mask id="mask-2" fill="white">
                        <use xlink:href="#path-1"></use>
                    </mask>
                    <g id="Clip-134"></g>
                    <polygon id="Fill-133" fill="#FFFFFF" mask="url(#mask-2)" points="4.0792 0.088 2.7602 0.088 2.5952 0.748 1.9342 0.748 0.6152 5.036 0.4502 9.489 0.7802 11.798 2.4302 18.066 2.1002 20.374 3.4192 21.859 4.0792 22.189 3.0902 22.684 3.0902 25.487 3.4192 26.642 2.1002 26.642 1.1102 27.961 2.1002 28.456 3.2552 27.631 3.4192 27.301 4.2442 26.642 4.7382 27.301 4.2442 27.631 4.2442 30.435 3.2552 32.414 4.4092 33.238 4.2442 34.064 5.3982 34.064 6.5532 33.568 8.5322 31.424 10.0162 30.27 10.8412 30.105 12.6552 28.785 13.8092 28.95 15.2942 28.126 15.9542 26.807 17.7672 24.992 18.2632 24.168 18.7582 23.673 19.4172 24.168 19.5822 25.487 21.3962 24.662 21.0662 23.343 22.3862 22.024 23.5402 22.684 22.7162 23.838 22.3862 26.477 21.3962 28.62 22.2212 29.445 24.6942 27.301 24.8592 26.642 24.5302 23.673 25.6842 22.354 24.8592 18.89 25.3542 18.561 26.1792 18.561 27.6632 20.209 28.8182 22.354 28.6532 23.343 29.6422 24.332 30.3032 24.003 30.6322 21.199 31.2922 20.869 31.2922 22.189 33.1062 23.838 33.4352 22.684 34.2612 21.859 34.2612 21.034 33.4352 18.725 32.9412 15.262 30.9622 14.602 30.6322 16.746 29.9732 17.735 29.1472 17.076 29.3122 15.097 28.9822 14.273 29.3122 13.282 28.6532 12.788 27.8282 13.612 27.8282 17.9 28.3232 18.561 27.9932 18.396 26.3442 17.405 26.6742 16.581 26.1792 15.921 24.6942 15.921 24.5302 15.756 25.8502 14.108 25.8502 13.612 26.3442 13.117 26.0152 10.314 25.3542 10.149 25.3542 10.974 24.5302 11.963 24.6942 13.117 23.2102 13.777 23.3752 12.623 22.7162 11.963 21.3962 12.128 20.9012 11.633 21.3962 8.994 20.9012 8.5 19.5822 8.335 16.1182 9.984 16.1182 10.809 14.6352 12.952 13.4792 11.633 13.1502 12.458 11.9952 13.282 9.3562 12.623 10.0162 11.468 10.5112 10.314 10.1822 9.489 9.3562 10.149 8.0372 10.644 7.7072 10.479 6.7182 10.644 7.2132 12.293 6.5532 13.282 7.0482 15.262 5.5632 13.117 5.2332 8.005 3.7492 6.191 4.4092 5.86 4.9032 6.356 4.5742 3.552 4.2442 2.728 3.2552 3.882 2.9252 3.057 4.2442 1.572"></polygon>
                </g>
                <path d="M77.5187,47.6476 L79.0147,47.8976 L80.2837,47.5716 L81.8297,46.8146 L81.3177,46.1996 L82.2327,45.7316 L83.7397,46.0596 L86.4137,45.9606 L88.4217,45.3626 L91.2837,45.1996 L91.5537,43.8926 L93.4457,42.9026 L93.2137,41.9936 L93.9327,41.0566 L95.1187,40.3976 L97.2327,40.0876 L97.7447,39.1626 L98.0207,37.7056 L99.7517,37.8526 L100.9217,37.6606 L102.7897,38.3996 L104.7927,38.6636 L106.2697,38.6016 L106.3467,40.0186 L105.5027,38.9026 L80.1047,54.4056 L79.4447,53.2516 L77.3007,51.7666 L77.1357,50.7776 L78.6207,49.2936 L77.4987,48.6486 L77.5187,47.6476 Z" id="Stroke-136" stroke="#B00000" stroke-dasharray="2,2"></path>
                <polygon id="Fill-138" fill="#FFFFFF" points="52.2316 122.1906 52.3456 122.1486 52.3356 122.1126"></polygon>
                <polygon id="Stroke-140" stroke="#E75F52" stroke-linecap="round" stroke-linejoin="round" points="52.2316 122.1906 52.3456 122.1486 52.3356 122.1126"></polygon>
                <polygon id="Fill-142" fill="#FFFFFF" points="52.3966 122.3546 52.3546 122.1866 52.3756 122.3656"></polygon>
                <polygon id="Stroke-144" stroke="#E75F52" stroke-linecap="round" stroke-linejoin="round" points="52.3966 122.3546 52.3546 122.1866 52.3756 122.3656"></polygon>
                <polygon id="Fill-146" fill="#FFFFFF" points="52.3458 122.1486 52.3548 122.1866 52.3538 122.1796"></polygon>
                <polygon id="Stroke-148" stroke="#E75F52" stroke-linecap="round" stroke-linejoin="round" points="52.3458 122.1486 52.3548 122.1866 52.3538 122.1796"></polygon>
                <polygon id="Fill-150" fill="#FFFFFF" points="105.338 76.3409 103.689 78.6499 104.019 80.7939 104.679 80.9589 105.503 80.4639 104.679 79.4749 104.514 78.4849 105.503 77.1649"></polygon>
                <polygon id="Stroke-152" stroke="#E75F52" stroke-linecap="round" stroke-linejoin="round" points="105.338 76.3409 103.689 78.6499 104.019 80.7939 104.679 80.9589 105.503 80.4639 104.679 79.4749 104.514 78.4849 105.503 77.1649"></polygon>
                <polygon id="Fill-154" fill="#FFFFFF" points="95.6075 67.1046 92.9685 66.7756 91.6495 67.4346 90.0005 67.1046 84.5575 69.0836 87.8555 69.5796 89.5045 70.7336 93.6285 70.5686 95.7725 69.5796 99.0705 69.0836 99.2355 67.9296 98.2465 67.2696"></polygon>
                <polygon id="Stroke-156" stroke="#E75F52" stroke-linecap="round" stroke-linejoin="round" points="95.6075 67.1046 92.9685 66.7756 91.6495 67.4346 90.0005 67.1046 84.5575 69.0836 87.8555 69.5796 89.5045 70.7336 93.6285 70.5686 95.7725 69.5796 99.0705 69.0836 99.2355 67.9296 98.2465 67.2696"></polygon>
                <path d="M54.3761,51.4366 L52.5621,51.4366 L51.5721,52.4266 L51.9021,53.2506 L51.7371,53.5816 L51.2421,52.9206 L49.9231,52.7566 L49.5931,51.7666 L48.6041,52.5916 L47.9431,51.7666 L46.1301,51.1076 L46.2951,50.4476 L48.2731,49.6236 L47.9431,48.7976 L47.2841,48.7976 L46.4591,47.6436 L47.1191,47.4786 L49.0991,45.8296 L50.4181,46.1596 L52.5621,45.0046 L51.7371,46.1596 L51.4071,46.6546 L52.0671,47.3136 L53.0571,46.8196 L54.1371,47.8996 L54.1471,47.9786 L52.0671,48.1386 L52.7271,49.2926 L52.5621,49.7886 L52.2311,49.4576 L51.4071,49.1276 L50.4181,47.8086 L48.4391,47.8086 L48.2731,48.4676 L49.7581,49.4576 L49.7581,50.2826 L50.9121,49.7886 L51.0771,50.1176 L50.7481,51.1076 L54.3761,50.7776 L54.3761,51.4366 Z M18.2571,64.9606 L18.9171,64.4656 L20.7311,63.3116 L20.7311,62.8166 L22.3801,61.0026 L21.5561,60.3426 L23.3701,60.3426 L23.8641,61.3326 L23.2051,62.1576 L22.2161,63.8066 L22.3801,64.3006 L22.8751,64.3006 L24.8551,63.3116 L25.1841,63.3116 L25.6791,63.9716 L23.8641,64.9606 L21.0611,66.7756 L19.9061,66.9406 L19.5761,65.9506 L19.2471,65.4566 L18.4221,65.2906 L18.2571,64.9606 Z M49.0441,4.6866 L49.1061,5.1106 L48.7871,5.0476 L48.7691,4.9276 L49.0441,4.6866 Z M105.5091,38.9116 L105.1001,39.1486 L105.5031,38.9026 L105.5091,38.9116 Z M107.9771,42.2016 L107.5011,42.0526 L107.5611,41.8916 L106.4941,40.5126 L106.1781,39.8556 L106.3031,40.0326 L106.2701,38.6016 L104.7931,38.6636 L102.7891,38.3996 L100.9221,37.6606 L99.7521,37.8526 L98.0211,37.7056 L97.7441,39.1626 L97.2321,40.0876 L95.1181,40.3976 L93.9331,41.0566 L93.2141,41.9936 L93.4451,42.9026 L91.5541,43.8926 L91.2831,45.1996 L88.4221,45.3626 L86.4131,45.9596 L83.7391,46.0596 L82.2321,45.7316 L81.3171,46.1996 L81.8291,46.8146 L80.2831,47.5716 L79.0151,47.8976 L77.5191,47.6476 L77.4991,48.6246 L77.4661,48.6326 L76.6411,50.2826 L76.6411,51.4366 L77.4661,52.7566 L77.9601,55.0656 L79.1151,58.0346 L77.9601,59.3536 L76.4761,58.0346 L74.9911,58.6936 L72.6831,56.8796 L72.5181,57.7046 L70.3741,58.1996 L69.2191,57.3736 L68.7251,58.1996 L68.0641,57.3736 L68.5601,56.5496 L67.7351,55.5596 L67.8991,54.9006 L66.0861,52.9206 L65.2611,54.0766 L66.0861,55.3956 L65.7561,56.0546 L63.1171,55.0656 L62.2921,54.0766 L63.6111,53.2506 L61.7981,50.6126 L61.1381,50.9426 L57.8401,48.4676 L58.0041,46.9846 L56.5201,45.9946 L58.1691,44.8396 L58.8291,43.5206 L56.8501,42.2016 L55.8601,40.8816 L59.8181,42.3666 L59.6531,40.7166 L57.6751,38.5726 L60.4791,39.7276 L63.7761,40.0566 L66.0861,37.7486 L67.0751,38.5726 L68.3951,37.5826 L69.5491,38.0786 L71.1981,37.4176 L69.7141,35.9336 L70.7031,35.4396 L69.7141,33.2946 L69.3841,31.6456 L67.8991,31.9756 L68.5601,31.3166 L66.4161,28.6766 L66.9101,27.8526 L65.2611,28.3476 L63.9411,26.2036 L64.7671,26.2036 L62.6221,24.5536 L63.4471,23.0696 L62.2921,21.9156 L62.7871,20.7606 L61.7981,20.2656 L62.1271,19.1116 L61.1381,17.6266 L59.6531,17.2966 L57.0151,16.1426 L56.6851,15.1536 L57.6751,13.8336 L56.3551,12.1846 L57.8401,10.7006 L57.3451,10.2056 L55.8601,11.1956 L54.8711,11.0306 L52.3971,11.6896 L54.0461,10.3706 L52.8921,9.0506 L52.2311,7.4016 L51.7371,8.2266 L50.5831,7.5666 L50.2531,6.2476 L50.2531,5.0926 L49.2641,4.9276 L49.5931,4.2686 L49.7581,4.0616 L50.0881,3.7736 L50.0191,3.7356 L50.2531,3.4436 L49.7971,3.6146 L48.2731,2.7846 L48.4391,7.7316 L48.9341,9.0506 L49.5931,14.8236 L48.2731,14.8236 L48.6041,17.2966 L45.9651,20.9256 L44.1501,19.4416 L43.1611,19.2766 L40.8521,17.9576 L38.0481,20.1006 L37.2241,21.4206 L36.7291,21.2556 L35.9041,19.7716 L36.8941,20.1006 L37.2241,19.6066 L36.8941,18.9466 L37.8841,17.9576 L36.5631,16.3076 L35.9041,16.8026 L35.4091,15.9776 L35.4091,15.3186 L34.0901,12.5146 L33.7601,12.5146 L33.5961,11.8546 L33.9251,11.6896 L32.4401,9.7106 L31.6161,7.8966 L31.9461,7.4016 L32.4401,6.4126 L31.2861,5.4226 L30.7911,5.9166 L31.6161,6.9076 L30.1321,6.9076 L29.8021,6.0826 L28.3171,6.4126 L28.3171,7.2376 L24.0291,7.0726 L23.2051,5.4226 L23.3701,4.5976 L23.0401,4.1036 L22.5451,4.4326 L19.4121,3.1136 L18.4221,1.9586 L14.4641,0.8046 L11.3301,4.4326 L10.3411,3.7736 L9.3521,4.2686 L2.5891,4.1036 L0.9391,6.2476 L1.4351,8.2266 L3.7441,11.1956 L4.2381,14.1646 L3.5791,16.1426 L4.0731,17.1326 L4.7331,16.6376 L6.3831,20.2656 L8.1961,22.7406 L7.3721,23.7296 L7.2071,26.8636 L6.5481,29.1716 L5.2291,29.9976 L6.2181,31.8106 L7.5371,33.1296 L9.3521,33.6246 L12.8141,35.7686 L16.2781,39.3976 L17.7631,43.1906 L18.2571,48.3036 L17.4331,51.2726 L13.9691,57.3736 L12.3201,58.5286 L10.8361,60.3426 L8.1961,60.8376 L8.5261,61.6626 L9.6811,61.9926 L10.8361,63.6416 L11.9901,64.4656 L12.8141,65.2906 L12.6491,66.2806 L13.6401,69.2486 L15.1241,71.2276 L15.9481,72.8766 L16.7721,75.5166 L17.5981,75.6806 L18.2571,77.4956 L17.2681,79.4746 L17.1031,80.9586 L18.4221,82.2786 L18.4221,83.4326 L17.5981,83.9276 L17.1031,82.6086 L15.6181,81.7836 L14.7941,82.7726 L15.3301,85.2566 L15.5611,85.3516 L22.0511,111.4696 L23.2051,114.2736 L26.0091,117.0776 L29.1431,118.8916 L34.5851,118.7266 L37.0591,120.3756 L39.2031,120.0456 L40.1921,121.8606 L42.1921,122.2926 L43.1301,122.0146 L44.3151,121.3656 L48.9341,118.0676 L51.4071,118.2316 L51.7371,119.7156 L52.3361,122.1126 L52.3451,122.1056 L52.2051,120.9506 L52.4061,122.0606 L52.3451,122.1056 L52.3541,122.1796 L52.3971,122.3336 L52.5721,122.0666 L67.2401,116.7476 L67.0751,114.4386 L68.2301,114.4386 L68.8901,113.4496 L69.5491,114.1086 L69.7141,112.6246 L70.7031,112.4596 L69.7141,111.6346 L70.8681,109.4916 L70.5391,108.8316 L70.8681,108.3356 L70.7031,107.1816 L69.7141,105.6976 L70.2091,104.2126 L69.7141,102.2346 L70.7271,96.9176 L71.3691,95.3076 L72.0231,95.3076 L72.1881,96.2966 L72.5381,95.6996 L72.6421,95.8946 L73.8371,94.8126 L74.4971,93.1636 L73.5081,91.3486 L74.4971,89.8646 L76.8061,88.8746 L77.4661,89.3706 L78.1251,89.2056 L80.4351,87.0606 L82.2481,85.9066 L81.9961,85.2756 L82.5781,85.0826 L84.5581,83.4326 L85.2171,83.7626 L87.0311,83.7626 L88.6811,81.1236 L89.8351,79.1446 L89.6701,76.5056 L88.3511,75.0216 L84.5581,74.6916 L81.7541,75.3516 L75.6511,81.4536 L70.2091,89.0406 L68.8901,91.8436 L67.0751,99.7596 L66.2511,101.4096 L64.2721,103.2236 L62.9521,105.5326 L61.9631,105.8626 L59.1591,108.5006 L56.3551,113.4496 L55.6951,117.0776 L54.3761,118.7266 L53.3251,119.4766 L53.3201,119.4426 L54.8711,117.7376 L55.3651,115.0986 L55.5301,113.2846 L57.1801,110.4806 L61.1381,105.6976 L64.4371,102.0696 L65.4261,100.2546 L65.2611,98.1116 L66.2511,97.1216 L67.5701,89.0406 L69.3841,84.0916 L71.0331,80.6286 L73.3431,79.4746 L73.3431,75.1866 L74.3321,72.2176 L77.3011,69.7446 L87.3611,64.6306 L87.8551,64.6306 L94.1231,61.4976 L95.2771,61.4976 L97.9161,59.3536 L101.7101,57.0436 L101.8751,56.5496 L101.8751,54.7356 L102.5341,52.4266 L103.1941,50.2826 L102.6991,49.6236 L102.6991,48.9626 L103.3591,48.3036 L103.1941,46.9846 L105.5031,45.3346 L105.3381,44.5096 L105.9981,42.8606 L107.9771,42.2016 Z" id="Fill-158" fill="#FFFFFF"></path>
                <path d="M54.3761,51.4366 L52.5621,51.4366 L51.5721,52.4266 L51.9021,53.2506 L51.7371,53.5816 L51.2421,52.9206 L49.9231,52.7566 L49.5931,51.7666 L48.6041,52.5916 L47.9431,51.7666 L46.1301,51.1076 L46.2951,50.4476 L48.2731,49.6236 L47.9431,48.7976 L47.2841,48.7976 L46.4591,47.6436 L47.1191,47.4786 L49.0991,45.8296 L50.4181,46.1596 L52.5621,45.0046 L51.7371,46.1596 L51.4071,46.6546 L52.0671,47.3136 L53.0571,46.8196 L54.1371,47.8996 L54.1471,47.9786 L52.0671,48.1386 L52.7271,49.2926 L52.5621,49.7886 L52.2311,49.4576 L51.4071,49.1276 L50.4181,47.8086 L48.4391,47.8086 L48.2731,48.4676 L49.7581,49.4576 L49.7581,50.2826 L50.9121,49.7886 L51.0771,50.1176 L50.7481,51.1076 L54.3761,50.7776 L54.3761,51.4366 Z M18.2571,64.9606 L18.9171,64.4656 L20.7311,63.3116 L20.7311,62.8166 L22.3801,61.0026 L21.5561,60.3426 L23.3701,60.3426 L23.8641,61.3326 L23.2051,62.1576 L22.2161,63.8066 L22.3801,64.3006 L22.8751,64.3006 L24.8551,63.3116 L25.1841,63.3116 L25.6791,63.9716 L23.8641,64.9606 L21.0611,66.7756 L19.9061,66.9406 L19.5761,65.9506 L19.2471,65.4566 L18.4221,65.2906 L18.2571,64.9606 Z M49.0441,4.6866 L49.1061,5.1106 L48.7871,5.0476 L48.7691,4.9276 L49.0441,4.6866 Z M105.5091,38.9116 L105.1001,39.1486 L105.5031,38.9026 L105.5091,38.9116 Z M107.9771,42.2016 L107.5011,42.0526 L107.5611,41.8916 L106.4941,40.5126 L106.1781,39.8556 L106.3031,40.0326 L106.2701,38.6016 L104.7931,38.6636 L102.7891,38.3996 L100.9221,37.6606 L99.7521,37.8526 L98.0211,37.7056 L97.7441,39.1626 L97.2321,40.0876 L95.1181,40.3976 L93.9331,41.0566 L93.2141,41.9936 L93.4451,42.9026 L91.5541,43.8926 L91.2831,45.1996 L88.4221,45.3626 L86.4131,45.9596 L83.7391,46.0596 L82.2321,45.7316 L81.3171,46.1996 L81.8291,46.8146 L80.2831,47.5716 L79.0151,47.8976 L77.5191,47.6476 L77.4991,48.6246 L77.4661,48.6326 L76.6411,50.2826 L76.6411,51.4366 L77.4661,52.7566 L77.9601,55.0656 L79.1151,58.0346 L77.9601,59.3536 L76.4761,58.0346 L74.9911,58.6936 L72.6831,56.8796 L72.5181,57.7046 L70.3741,58.1996 L69.2191,57.3736 L68.7251,58.1996 L68.0641,57.3736 L68.5601,56.5496 L67.7351,55.5596 L67.8991,54.9006 L66.0861,52.9206 L65.2611,54.0766 L66.0861,55.3956 L65.7561,56.0546 L63.1171,55.0656 L62.2921,54.0766 L63.6111,53.2506 L61.7981,50.6126 L61.1381,50.9426 L57.8401,48.4676 L58.0041,46.9846 L56.5201,45.9946 L58.1691,44.8396 L58.8291,43.5206 L56.8501,42.2016 L55.8601,40.8816 L59.8181,42.3666 L59.6531,40.7166 L57.6751,38.5726 L60.4791,39.7276 L63.7761,40.0566 L66.0861,37.7486 L67.0751,38.5726 L68.3951,37.5826 L69.5491,38.0786 L71.1981,37.4176 L69.7141,35.9336 L70.7031,35.4396 L69.7141,33.2946 L69.3841,31.6456 L67.8991,31.9756 L68.5601,31.3166 L66.4161,28.6766 L66.9101,27.8526 L65.2611,28.3476 L63.9411,26.2036 L64.7671,26.2036 L62.6221,24.5536 L63.4471,23.0696 L62.2921,21.9156 L62.7871,20.7606 L61.7981,20.2656 L62.1271,19.1116 L61.1381,17.6266 L59.6531,17.2966 L57.0151,16.1426 L56.6851,15.1536 L57.6751,13.8336 L56.3551,12.1846 L57.8401,10.7006 L57.3451,10.2056 L55.8601,11.1956 L54.8711,11.0306 L52.3971,11.6896 L54.0461,10.3706 L52.8921,9.0506 L52.2311,7.4016 L51.7371,8.2266 L50.5831,7.5666 L50.2531,6.2476 L50.2531,5.0926 L49.2641,4.9276 L49.5931,4.2686 L49.7581,4.0616 L50.0881,3.7736 L50.0191,3.7356 L50.2531,3.4436 L49.7971,3.6146 L48.2731,2.7846 L48.4391,7.7316 L48.9341,9.0506 L49.5931,14.8236 L48.2731,14.8236 L48.6041,17.2966 L45.9651,20.9256 L44.1501,19.4416 L43.1611,19.2766 L40.8521,17.9576 L38.0481,20.1006 L37.2241,21.4206 L36.7291,21.2556 L35.9041,19.7716 L36.8941,20.1006 L37.2241,19.6066 L36.8941,18.9466 L37.8841,17.9576 L36.5631,16.3076 L35.9041,16.8026 L35.4091,15.9776 L35.4091,15.3186 L34.0901,12.5146 L33.7601,12.5146 L33.5961,11.8546 L33.9251,11.6896 L32.4401,9.7106 L31.6161,7.8966 L31.9461,7.4016 L32.4401,6.4126 L31.2861,5.4226 L30.7911,5.9166 L31.6161,6.9076 L30.1321,6.9076 L29.8021,6.0826 L28.3171,6.4126 L28.3171,7.2376 L24.0291,7.0726 L23.2051,5.4226 L23.3701,4.5976 L23.0401,4.1036 L22.5451,4.4326 L19.4121,3.1136 L18.4221,1.9586 L14.4641,0.8046 L11.3301,4.4326 L10.3411,3.7736 L9.3521,4.2686 L2.5891,4.1036 L0.9391,6.2476 L1.4351,8.2266 L3.7441,11.1956 L4.2381,14.1646 L3.5791,16.1426 L4.0731,17.1326 L4.7331,16.6376 L6.3831,20.2656 L8.1961,22.7406 L7.3721,23.7296 L7.2071,26.8636 L6.5481,29.1716 L5.2291,29.9976 L6.2181,31.8106 L7.5371,33.1296 L9.3521,33.6246 L12.8141,35.7686 L16.2781,39.3976 L17.7631,43.1906 L18.2571,48.3036 L17.4331,51.2726 L13.9691,57.3736 L12.3201,58.5286 L10.8361,60.3426 L8.1961,60.8376 L8.5261,61.6626 L9.6811,61.9926 L10.8361,63.6416 L11.9901,64.4656 L12.8141,65.2906 L12.6491,66.2806 L13.6401,69.2486 L15.1241,71.2276 L15.9481,72.8766 L16.7721,75.5166 L17.5981,75.6806 L18.2571,77.4956 L17.2681,79.4746 L17.1031,80.9586 L18.4221,82.2786 L18.4221,83.4326 L17.5981,83.9276 L17.1031,82.6086 L15.6181,81.7836 L14.7941,82.7726 L15.3301,85.2566 L15.5611,85.3516 L22.0511,111.4696 L23.2051,114.2736 L26.0091,117.0776 L29.1431,118.8916 L34.5851,118.7266 L37.0591,120.3756 L39.2031,120.0456 L40.1921,121.8606 L42.1921,122.2926 L43.1301,122.0146 L44.3151,121.3656 L48.9341,118.0676 L51.4071,118.2316 L51.7371,119.7156 L52.3361,122.1126 L52.3451,122.1056 L52.2051,120.9506 L52.4061,122.0606 L52.3451,122.1056 L52.3541,122.1796 L52.3971,122.3336 L52.5721,122.0666 L67.2401,116.7476 L67.0751,114.4386 L68.2301,114.4386 L68.8901,113.4496 L69.5491,114.1086 L69.7141,112.6246 L70.7031,112.4596 L69.7141,111.6346 L70.8681,109.4916 L70.5391,108.8316 L70.8681,108.3356 L70.7031,107.1816 L69.7141,105.6976 L70.2091,104.2126 L69.7141,102.2346 L70.7271,96.9176 L71.3691,95.3076 L72.0231,95.3076 L72.1881,96.2966 L72.5381,95.6996 L72.6421,95.8946 L73.8371,94.8126 L74.4971,93.1636 L73.5081,91.3486 L74.4971,89.8646 L76.8061,88.8746 L77.4661,89.3706 L78.1251,89.2056 L80.4351,87.0606 L82.2481,85.9066 L81.9961,85.2756 L82.5781,85.0826 L84.5581,83.4326 L85.2171,83.7626 L87.0311,83.7626 L88.6811,81.1236 L89.8351,79.1446 L89.6701,76.5056 L88.3511,75.0216 L84.5581,74.6916 L81.7541,75.3516 L75.6511,81.4536 L70.2091,89.0406 L68.8901,91.8436 L67.0751,99.7596 L66.2511,101.4096 L64.2721,103.2236 L62.9521,105.5326 L61.9631,105.8626 L59.1591,108.5006 L56.3551,113.4496 L55.6951,117.0776 L54.3761,118.7266 L53.3251,119.4766 L53.3201,119.4426 L54.8711,117.7376 L55.3651,115.0986 L55.5301,113.2846 L57.1801,110.4806 L61.1381,105.6976 L64.4371,102.0696 L65.4261,100.2546 L65.2611,98.1116 L66.2511,97.1216 L67.5701,89.0406 L69.3841,84.0916 L71.0331,80.6286 L73.3431,79.4746 L73.3431,75.1866 L74.3321,72.2176 L77.3011,69.7446 L87.3611,64.6306 L87.8551,64.6306 L94.1231,61.4976 L95.2771,61.4976 L97.9161,59.3536 L101.7101,57.0436 L101.8751,56.5496 L101.8751,54.7356 L102.5341,52.4266 L103.1941,50.2826 L102.6991,49.6236 L102.6991,48.9626 L103.3591,48.3036 L103.1941,46.9846 L105.5031,45.3346 L105.3381,44.5096 L105.9981,42.8606 L107.9771,42.2016 Z" id="Stroke-160" stroke="#E75F52" stroke-linecap="round" stroke-linejoin="round"></path>
            </g>
        </g>
    </g>
</svg>