<?xml version="1.0" encoding="UTF-8"?>
<svg width="301px" height="232px" viewBox="0 0 301 232" version="1.1" xmlns="http://www.w3.org/2000/svg" xmlns:xlink="http://www.w3.org/1999/xlink">
    <!-- Generator: Sketch 64 (93537) - https://sketch.com -->
    <title>258</title>
    <desc>Created with Sketch.</desc>
    <g id="258" stroke="none" stroke-width="1" fill="none" fill-rule="evenodd">
        <g id="Group-5">
            <path d="M107.8998,226.059 L109.6468,229.464 C109.6488,229.472 103.4888,229.188 102.7318,229.188 C101.9728,229.188 97.5198,228.998 96.4778,228.998 C95.4348,228.998 94.1088,228.998 93.6348,229.188 C93.1608,229.377 89.4658,231.462 88.8028,231.652 C88.1388,231.841 87.1918,231.652 86.4338,231.368 C85.6758,231.083 82.7378,230.136 81.9808,229.851 C81.2218,229.567 81.0328,228.998 80.5588,228.051 C80.0848,227.104 79.1378,224.451 79.1378,224.451 L78.0008,222.65 C78.0008,222.65 76.8638,221.229 76.3898,220.661 C75.9158,220.092 75.4418,219.144 74.8738,218.576 C74.3048,218.007 73.5418,215.175 73.5418,215.175 C73.4218,215.078 73.2998,214.938 73.1708,214.738 C73.0508,214.554 72.3798,214.375 72.1888,214.365 C71.8708,214.476 71.5238,214.544 71.1958,214.62 C70.4108,215.165 70.4748,214.782 69.7438,214.855 C69.3748,214.892 69.0658,215.061 68.6778,215.038 C67.4618,214.965 66.5308,215.896 65.1918,215.819 C64.4238,215.774 64.3298,216.102 63.6428,216.108 C63.1758,216.113 63.1168,216.462 62.5658,216.311 C62.5468,216.306 62.5448,216.297 62.5258,216.295 C62.1428,216.402 62.1728,216.527 61.6918,216.323 C61.5738,216.272 61.4358,216.182 61.3038,216.194 C61.0638,216.384 60.9118,216.415 60.6228,216.307 C60.0628,216.64 59.9318,216.437 59.4448,216.463 C59.2438,216.474 58.5588,216.801 58.5258,216.865 C58.3748,217.158 58.4038,217.364 58.1688,217.668 C57.9458,217.955 57.9978,218.283 57.7848,218.575 L57.7038,218.682 C57.3878,219.102 58.1078,219.761 57.8798,220.384 C57.7428,220.755 57.6968,221.01 57.4178,221.306 C57.1598,221.58 57.3178,222.237 56.5288,223.072 C56.0988,223.526 56.5118,223.667 55.6168,224.199 C55.2288,224.429 54.9948,224.59 54.6728,224.881 C54.2588,225.256 54.0708,225.158 53.6588,225.306 C53.4908,225.535 53.5498,225.722 53.2498,225.926 C53.0988,226.03 52.9268,226.086 52.7498,226.113 L51.8488,225.812 C51.6858,225.762 51.6388,225.58 51.4648,225.552 C51.3248,225.584 50.9738,225.824 50.8138,225.899 C50.7528,225.927 50.6838,225.926 50.6198,225.942 C50.4498,225.985 50.3298,225.943 50.1678,225.963 C49.8838,225.999 49.4978,226.232 49.0178,226.255 C48.5588,226.278 48.1648,225.728 47.4938,225.855 C46.9488,225.958 46.5868,226.585 46.0448,226.64 C45.7198,226.672 45.4448,226.568 45.1358,226.526 C44.4508,226.434 44.5678,226.606 44.2268,226.64 C44.1098,226.652 43.9958,226.59 43.8748,226.613 C43.6948,226.646 43.5348,226.784 43.3498,226.813 C43.2478,226.83 43.1568,226.802 43.0598,226.843 C43.0208,226.86 42.9778,226.867 42.9398,226.883 C42.7228,226.982 42.6378,227.311 42.4048,227.354 C42.0988,227.411 41.7318,227.143 41.4218,227.36 C41.1118,227.577 40.7618,228.325 40.4768,228.404 C40.2848,228.456 40.1078,228.413 39.9098,228.449 L33.5888,228.46 C33.4018,228.753 33.3868,228.645 33.2988,228.788 C33.4498,228.523 33.6668,228.288 33.7758,227.989 C33.8058,227.905 33.5868,226.412 33.5848,226.393 C33.5728,226.302 33.2788,223.947 33.2448,223.861 C33.0808,223.44 32.6198,222.851 32.3688,222.445 C31.6498,221.283 30.9568,220.106 30.2588,218.93 C29.8208,218.191 29.3908,217.4 28.9208,216.688 C28.6658,216.3 28.3778,215.89 28.1498,215.501 C27.9198,215.109 26.9478,213.389 26.6848,213.106 C26.5868,212.999 26.1328,212.888 26.0038,212.738 C25.8538,212.564 25.7478,212.306 25.6008,212.147 C25.2088,211.725 25.2948,212.187 24.7008,211.322 C24.4308,211.342 23.8488,210.365 23.7278,210.163 C23.6008,209.951 22.7498,209.721 22.5858,209.348 C22.5708,209.344 22.5358,209.341 22.5238,209.332 C22.1768,209.057 21.7978,208.868 21.4118,208.653 C21.1908,208.531 20.9448,207.712 20.8538,207.508 C20.8098,207.411 20.0538,206.489 19.8738,206.252 L19.8588,205.952 C19.6128,205.577 19.2658,205.705 19.0808,204.94 C19.1138,204.802 19.2408,204.362 19.2878,204.244 C19.6078,203.437 19.8858,202.627 20.1698,201.802 L20.2948,201.739 C20.3378,201.621 21.0318,199.789 21.0298,199.736 C21.0138,199.139 21.0018,198.55 20.9588,197.955 L20.6568,197.771 L20.6268,197.707 L20.4428,197.663 C20.2888,197.132 20.3358,196.298 20.2988,195.721 C19.9888,195.613 17.8238,195.934 17.5018,195.981 L17.4798,195.332 C17.3988,195.219 17.3138,195.109 17.2178,195.008 C16.7928,194.565 16.6918,194.597 16.1478,194.322 C15.8588,194.175 15.5278,194.05 15.2298,193.91 C15.2118,193.901 13.5348,192.114 13.5088,191.97 C13.4758,191.781 13.2608,190.736 13.3048,190.615 L13.3348,190.58 C13.4608,189.611 14.8938,184.211 14.7978,183.949 L14.7438,183.907 L14.3138,184.042 L13.8738,183.944 C13.7748,184.021 13.4628,184.082 13.3678,183.983 C12.7428,183.923 12.2938,185.005 11.5608,184.487 L11.8158,184.425 C11.9158,184.187 11.9778,183.683 12.1228,183.491 C12.0318,183.284 12.1498,183.053 12.1598,182.843 C12.1828,182.396 12.1708,182.053 12.0778,181.613 C12.0248,181.356 11.8678,181.217 11.8868,180.923 C11.6978,180.83 11.3908,180.143 11.3218,179.956 C11.3048,179.908 11.3138,179.71 11.2988,179.647 C11.2408,179.411 10.9548,178.787 10.9948,178.549 C10.7038,178.251 11.0748,178.077 10.9278,177.821 C10.6948,177.597 10.4958,177.113 10.1438,177.16 C9.7398,176.974 10.5898,175.907 10.7678,175.84 C10.8918,175.639 11.6508,173.582 11.5808,173.462 L11.4498,173.332 C10.3688,173.105 9.5138,172.626 8.5198,172.127 L8.4898,172.068 C8.3258,172.028 7.1428,171.258 6.9168,171.138 L6.8658,171.936 C6.5168,172.565 5.4888,172.786 4.8598,172.965 L3.9608,173.222 C3.4328,173.305 2.8468,173.073 2.3178,173.252 C2.3028,173.245 2.2018,173.19 2.1958,173.182 C1.9528,172.845 1.7258,172.538 1.3638,172.314 C1.2648,171.707 0.9398,171.857 0.8298,171.433 C1.0028,170.865 0.4698,170.591 0.50041037,170.057 C0.6358,169.615 0.6568,169.345 0.6998,168.9 L0.7488,168.712 C0.8758,168.454 1.0628,168.19 1.2008,167.927 C1.4348,167.485 1.3688,167.121 1.7848,166.488 L2.0398,166.362 C2.1998,166.199 2.0778,166.014 2.1738,165.871 L2.0638,165.763 L2.0428,165.665 C2.2248,165.605 2.3468,165.443 2.4298,165.277 L2.7438,165.19 C2.8978,164.982 3.1638,164.696 3.4328,164.637 C3.6018,164.511 3.4568,164.133 3.6168,164.017 C3.7108,163.93 4.0818,163.975 4.2048,163.979 C4.3648,163.984 4.4978,163.874 4.6578,163.89 C4.7108,163.857 4.7668,163.69 4.7818,163.634 L4.8528,163.579 C5.0358,163.513 5.7318,163.655 5.8468,163.36 L5.9968,162.976 C6.3778,162.909 6.5638,162.292 6.6718,162.009 C6.8328,161.946 7.0548,161.666 7.1428,161.53 L7.3388,161.455 C7.4368,161.251 7.4998,161.021 7.7378,160.943 L7.7418,160.9 C8.0108,160.642 8.1388,160.303 8.4628,160.08 L8.4378,159.488 C8.4038,159.453 8.3578,159.379 8.3608,159.327 C8.1848,159.143 8.0808,158.998 7.8158,159 C7.6448,158.845 7.6328,158.702 7.6398,158.48 C7.5758,158.357 7.5278,158.306 7.3858,158.283 C7.2688,158.184 7.3288,157.963 7.2498,157.844 L7.3458,157.531 C7.1298,157.125 7.4478,156.726 7.3468,156.404 C7.3128,156.294 7.1988,156.208 7.2008,156.082 C7.0718,155.932 6.8128,155.728 6.6118,155.685 C6.6118,155.685 6.3988,155.534 6.3688,155.48 L6.2528,155.15 C6.2138,155.18 6.1318,155.179 6.0888,155.163 C5.9198,155.039 5.8428,154.667 5.7978,154.484 C5.5458,154.279 5.5058,154.223 5.4568,153.893 C5.5318,153.69 5.6678,153.561 5.6918,153.328 L5.5938,153.205 C5.6128,153.15 5.6148,153.074 5.5928,153.019 L5.4158,152.837 L5.3368,152.821 C5.2068,152.713 5.0848,152.555 4.9998,152.411 C4.9438,152.232 5.4568,151.529 5.5618,151.362 L5.6368,151.328 C5.9448,150.678 6.6448,150.128 7.1278,149.637 C7.2048,149.557 7.4828,149.087 7.5258,149.058 C7.8378,148.842 8.3168,148.762 8.5978,148.552 C8.7658,148.426 8.9578,148.163 9.1038,148.004 C9.2438,147.852 9.6098,147.742 9.7928,147.765 C9.9448,147.702 10.2998,147.293 10.4058,147.165 L11.0038,147.168 C11.3968,147.17 12.2358,145.882 12.9778,145.901 C13.1328,145.67 13.7378,144.845 13.7428,144.686 L13.2838,144.233 L13.3688,143.851 C12.0298,143.379 12.8088,143.633 11.9558,143.809 L11.3538,143.158 C10.9568,142.728 10.8978,142.187 11.6018,142.113 L11.6438,142.02 L11.5288,141.508 C11.4418,141.48 11.3808,141.41 11.3168,141.349 C11.2798,140.51 11.2998,140.176 11.4248,139.374 C11.4268,139.359 11.3938,139.212 11.3898,139.188 C11.1688,139.017 10.8318,138.766 10.5488,138.713 L10.3088,138.784 L10.2538,138.742 C10.4108,138.183 10.5788,137.654 10.7358,137.098 C10.8678,137.01 10.9458,137.241 11.3048,136.927 L11.3808,136.927 L11.4668,137.079 C11.5318,136.371 14.2028,136.178 14.4268,136.095 L16.2158,135.427 L16.2788,135.338 C16.0868,134.34 15.7558,133.385 15.3908,132.434 C15.4958,131.888 16.0948,131.451 16.6398,131.586 C16.7068,131.5 16.8538,131.54 16.9308,131.436 C17.0488,131.254 16.9148,131.003 16.8558,130.828 L16.8048,130.806 C16.8278,130.618 16.7928,130.48 16.8598,130.288 C16.9648,129.987 18.1038,128.988 18.3188,128.825 C18.3348,128.814 18.3638,128.822 18.3788,128.811 C18.8728,128.467 18.7828,128.106 19.3618,127.903 C19.5378,127.84 19.7218,127.958 19.8658,127.921 L20.2068,127.662 C20.2008,127.643 20.1838,127.614 20.1858,127.594 C20.2048,127.278 20.1218,127.046 20.0378,126.74 C19.9658,126.477 20.4948,126.212 20.6528,126.123 C20.7178,126.086 20.7708,126.093 20.8378,126.025 C20.9408,125.922 20.9788,125.691 21.0438,125.563 C21.1018,125.449 21.2498,125.395 21.2748,125.27 C21.2358,125.191 21.1128,124.902 21.0448,124.859 C20.9708,124.496 21.2868,124.264 21.3488,123.955 C21.2628,123.409 21.1308,123.848 21.1078,122.809 C21.0978,122.403 21.3518,122.449 21.0778,121.974 C20.9188,121.856 20.0548,121.065 20.0318,121.065 C19.8208,120.663 19.8988,120.578 19.9938,120.16 C19.8968,120.02 19.9228,119.759 19.9838,119.614 C20.0478,119.461 20.1358,119.358 20.2368,119.226 C20.6898,118.635 20.7948,119.131 21.2218,118.88 C21.3988,118.776 21.5588,118.575 21.6858,118.417 L21.7238,118.417 L21.7448,118.362 C22.1248,118.221 22.1478,117.627 22.3138,117.527 C23.0398,117.356 22.9988,116.902 23.4698,116.552 C23.7848,116.471 24.0358,116.514 24.3178,116.64 C24.4388,116.694 24.9818,116.652 25.1238,116.576 C25.1888,116.584 25.2948,116.673 25.3378,116.717 C25.4898,116.685 26.9218,116.963 27.2508,116.989 C27.7208,117.026 28.2648,116.899 28.7368,116.862 C29.2668,116.821 29.8618,116.298 30.3588,116.103 C31.2908,115.737 32.1398,115.718 33.1328,115.671 C33.2818,115.664 33.4268,115.721 33.5738,115.746 C33.8808,115.796 34.2398,115.926 34.5508,115.927 C34.8358,115.928 35.4218,115.882 35.7098,115.948 C36.3098,116.082 36.8658,116.264 37.4538,116.427 C37.7848,116.518 38.1508,116.55 38.4898,116.63 C38.5048,116.633 38.5268,116.655 38.5408,116.663 C38.7498,116.68 39.0078,116.695 39.2148,116.644 C39.2378,114.623 39.1858,112.607 39.1858,110.587 L39.1858,94.603 L39.1858,46.648 L39.1858,37.426 L57.0918,37.426 L57.0978,0.558 L170.2478,0.523 L171.9648,0.523 L203.4688,0.523 C204.0908,0.936 204.6838,1.383 205.2848,1.824 C206.9838,3.068 208.6838,4.312 210.3798,5.56 C210.4418,5.604 210.5358,5.584 210.6048,5.577 C213.1918,5.29 215.7788,5.006 218.3668,4.726 C218.8418,3.327 219.3148,1.918 219.7998,0.523 L269.8758,0.499 L269.8218,0.635 C269.8758,0.719 269.8388,0.871 269.8428,0.97 C269.7688,1.087 269.6778,1.193 269.5228,1.143 C269.4398,1.088 269.3768,1.002 269.2708,0.992 L269.1758,1.019 L269.1288,1.105 L269.1338,1.219 C269.2528,1.478 269.9318,1.531 270.0168,1.792 C270.1308,2.146 269.6978,2.449 269.7068,2.755 C269.8378,2.87 269.9238,3.17 269.8018,3.313 C269.7428,3.335 269.6858,3.366 269.6328,3.399 C269.4878,3.368 269.2018,3.381 269.0608,3.432 C269.0158,3.469 268.9798,3.559 268.9768,3.616 L269.0248,3.697 C269.0778,3.72 269.1818,3.722 269.2338,3.691 L269.2968,3.735 L269.3138,3.837 C269.6118,3.976 269.7008,3.83 269.9748,3.756 L270.0648,3.778 L270.1218,3.843 C270.1318,3.893 270.1238,3.993 270.0848,4.032 C270.1098,4.078 270.1928,4.814 270.1798,4.866 C269.9168,4.907 269.7148,4.909 269.6278,5.206 L269.6758,5.288 C269.8528,5.325 269.9788,5.142 270.1528,5.142 C270.4878,5.225 270.2558,5.709 270.3168,5.921 C270.5158,6.102 270.9148,7.168 270.7688,7.365 L270.6848,7.409 C270.5738,7.384 270.4628,7.34 270.3478,7.354 L270.2748,7.409 L270.2428,7.506 C270.3148,7.766 270.8668,7.697 271.0778,7.723 C271.1208,7.762 271.1588,7.816 271.1838,7.869 C271.1468,8.031 271.0118,8.148 270.9788,8.334 C271.0888,8.481 271.2448,8.502 271.3518,8.626 C271.3378,8.788 271.2408,9.059 271.2678,9.2 C271.3678,9.34 271.5518,9.434 271.6078,9.616 C271.6418,9.72 271.6108,9.834 271.6458,9.941 C271.7408,10.041 271.9088,9.974 272.0238,10.087 C272.2418,10.303 272.7508,11.796 272.9168,12.159 C273.0708,12.499 273.2358,12.839 273.3948,13.176 C273.4978,13.396 273.6588,13.596 273.7568,13.82 C273.8068,13.932 273.8328,14.071 273.8938,14.177 C273.9568,14.289 275.2248,15.556 275.4168,15.746 C275.7288,16.054 276.1768,16.534 276.3578,16.931 C276.4248,17.079 276.4008,17.261 276.4678,17.423 C276.5348,17.586 276.6678,17.624 276.7368,17.759 L276.7038,17.867 L276.6198,17.91 C276.5478,18.09 276.6958,18.365 276.4568,18.473 C276.3648,18.468 276.2428,18.441 276.1628,18.5 L276.0528,18.473 C275.9648,18.502 275.9198,18.58 275.9108,18.667 L275.8218,18.624 C275.6968,18.422 275.4518,17.788 275.4168,17.558 L275.4698,17.537 C275.5488,17.699 275.8088,17.99 275.9748,18.067 C275.9978,17.977 275.9678,17.84 275.9218,17.758 C275.8168,17.574 275.6248,17.455 275.5378,17.25 C275.4568,17.059 275.4078,16.811 275.2968,16.639 C275.1668,16.628 275.0338,16.699 274.9348,16.574 C274.9278,16.562 274.9028,15.652 274.8508,15.443 C274.7328,15.376 274.5078,15.231 274.3768,15.308 C274.2478,15.477 274.0278,15.578 273.9308,15.773 L273.9308,15.887 C274.2468,16.4 274.0878,16.165 274.0468,16.612 C274.0068,17.044 273.7168,17.184 273.6788,17.413 C273.6638,17.503 273.7718,17.663 273.8198,17.743 L273.7628,17.775 C273.6878,17.715 273.4368,17.662 273.3478,17.705 C273.2748,17.762 273.2598,17.867 273.2258,17.948 C272.9378,18.615 273.4178,18.368 273.4738,18.808 C273.4928,18.956 273.3928,19.275 273.4528,19.376 C273.5128,19.419 273.6138,19.516 273.6368,19.587 C273.6778,19.719 273.6348,19.883 273.6678,20.02 C273.7198,20.232 273.8948,20.392 273.9418,20.61 C273.9718,20.749 273.9168,20.935 273.9518,21.048 C273.9718,21.113 274.0208,21.126 274.0098,21.227 C274.0848,21.261 274.1628,21.367 274.1778,21.449 C274.1908,21.518 274.1688,21.6 274.1778,21.67 C274.1948,21.804 274.2828,21.919 274.2988,22.044 C274.3088,22.122 274.2828,22.19 274.2768,22.266 C274.2768,22.272 274.3948,23.062 274.4038,23.088 C274.4348,23.176 274.5148,23.24 274.5568,23.315 C274.6288,23.447 274.5228,23.607 274.5668,23.748 C274.6168,23.908 274.7278,23.994 274.7448,24.181 C274.7658,24.394 274.7158,24.659 274.6668,24.868 C274.7228,24.95 274.8058,24.984 274.8658,25.052 C274.9518,25.148 275.2138,25.642 275.2708,25.777 C275.3778,26.03 275.2998,26.362 275.4958,26.81 C275.5998,27.046 275.8348,27.303 275.8538,27.562 C275.8748,27.852 275.7788,28.127 275.7848,28.407 C275.7888,28.583 275.9418,28.725 275.9218,28.851 C275.7768,28.95 275.5868,28.994 275.4228,29.104 L275.3228,29.104 L275.3278,29.007 C275.4068,28.967 275.5108,28.934 275.5548,28.851 L275.4968,28.785 L275.3918,28.774 L275.3128,28.812 C275.2488,28.886 275.2418,28.989 275.2128,29.078 C275.0388,29.615 275.3108,29.697 275.3448,30.17 C275.3668,30.487 275.1638,30.728 275.1498,31.041 C275.1288,31.528 275.2488,31.984 275.2608,32.459 C275.2698,32.846 275.1748,33.257 275.2238,33.639 C275.2788,34.075 275.4578,34.458 275.5598,34.877 C275.6348,35.187 275.5668,35.546 275.6588,35.835 C275.7618,36.151 275.8748,36.353 275.8748,36.701 L275.8278,36.782 C275.8118,36.729 275.7538,36.668 275.7068,36.642 C275.5858,36.709 275.5248,36.786 275.4338,36.885 C275.4558,36.983 275.4598,37.089 275.5018,37.183 C275.3288,37.459 276.0208,38.37 276.1488,38.67 C276.2068,38.809 276.1778,38.941 276.2108,39.081 C276.4108,39.266 276.4998,39.602 276.7158,39.807 C276.7438,39.908 276.6648,40 276.6838,40.109 C276.7118,40.151 276.7438,40.192 276.7808,40.226 L276.7678,40.191 L276.7888,40.234 C276.8288,40.361 276.8398,40.438 276.7678,40.585 L276.8158,40.666 C276.8468,40.619 276.8928,40.573 276.9418,40.542 C277.0138,40.851 276.8298,41.002 276.8048,41.272 C276.7788,41.544 276.9208,41.607 276.9148,41.759 L276.8518,41.83 C276.8028,41.819 276.7418,41.824 276.6938,41.84 C276.9308,42.328 276.7078,43.011 276.7778,43.112 C276.8298,43.12 276.9108,43.166 276.9358,43.215 L276.8888,43.301 L276.7678,43.301 L276.6148,43.187 L276.5208,43.215 C276.4648,43.303 276.5378,43.411 276.4888,43.517 C276.4388,43.549 276.3918,43.598 276.3578,43.647 C276.3498,43.699 276.3728,43.775 276.4048,43.815 C276.3608,44.062 276.4448,44.307 276.4098,44.427 L276.3308,44.475 C276.2238,44.4 276.1558,44.32 276.0678,44.226 L276.0528,44.123 L275.9638,44.075 L275.9058,44.14 C275.8458,44.533 276.4058,44.714 276.4468,44.865 C276.4468,45.939 276.4958,45.633 276.9728,46.407 C276.9488,46.556 277.0598,46.743 277.2028,46.791 C277.3258,46.96 277.3478,47.587 277.3608,47.814 L277.6238,48.842 C277.7848,49.221 278.0168,49.365 278.1388,49.93 C278.2378,50.393 278.1838,50.89 278.2178,51.358 C278.2358,51.612 278.3418,51.862 278.3808,52.114 C278.3998,52.241 278.3678,52.476 278.4168,52.575 C278.4728,52.577 278.5488,52.615 278.5848,52.656 C278.6218,52.849 278.7428,53.01 278.7478,53.214 C278.7498,53.29 278.7138,53.354 278.7638,53.43 L278.8788,53.452 C279.0788,53.684 279.1028,53.947 279.2578,54.182 C279.3438,54.312 279.4828,54.394 279.5468,54.539 C279.6948,54.878 279.7578,55.554 279.6928,55.913 C279.6188,56.327 279.1458,56.396 279.3528,57.017 C280.1278,57.514 279.5178,57.826 279.7308,58.483 C279.8808,58.948 280.2498,59.075 280.5288,59.338 C280.7778,59.573 281.1838,60.538 281.1588,60.874 L281.2228,60.939 L281.3008,60.902 L281.3378,60.804 C281.5088,60.811 281.8238,61.586 282.1628,61.032 C282.1988,61.024 282.2748,61.012 282.3098,61.032 C282.4348,61.084 282.4928,61.197 282.6298,61.226 C282.8008,61.263 282.9988,61.178 283.1768,61.183 C283.3008,61.186 283.4328,61.276 283.5598,61.215 C283.5898,61.168 283.6368,61.122 283.6868,61.096 C283.7948,61.08 283.9058,61.12 284.0118,61.085 C284.1268,61.048 284.2918,60.845 284.3428,60.837 C284.3578,60.901 284.3448,60.981 284.3218,61.042 C284.7938,61.664 285.2808,60.986 285.7248,61.48 L285.7188,61.556 C285.5858,61.655 285.6698,61.82 285.6508,61.951 C285.6288,62.102 285.4818,62.228 285.4508,62.411 C285.4858,62.512 285.5678,62.771 285.6408,62.838 C285.6938,62.834 285.7558,62.801 285.7928,62.763 C285.8318,62.564 285.9698,62.409 286.0138,62.189 C285.9888,62.097 285.9018,62.052 285.8708,61.962 L285.8868,61.837 L285.9918,61.848 C286.3638,62.312 285.9878,62.402 286.0398,62.698 C286.0728,62.747 286.1038,62.8 286.1288,62.854 C286.2108,62.922 286.3228,62.915 286.4118,62.974 C287.1468,63.453 287.2438,63.378 287.9568,63.693 C288.1428,63.775 288.7968,64.192 289.0018,64.326 C289.9198,64.925 290.3528,66.226 291.1548,66.734 C291.3568,66.86 292.2128,67.381 292.2278,67.6 C291.7968,67.89 291.6678,67.631 291.6338,68.351 C291.5478,68.444 291.4708,68.541 291.4348,68.665 L291.4918,68.714 L291.5758,68.665 L291.6918,68.665 C291.7378,68.76 291.7938,68.919 291.8648,68.99 C291.9688,69.092 292.7988,69.639 292.9048,69.644 C293.1468,69.822 293.3488,69.967 293.6828,69.942 C293.7568,69.936 293.8058,69.9 293.8928,69.91 C294.2518,69.95 294.4508,69.947 294.6228,69.558 C294.7098,69.362 294.5948,69.209 294.6438,69.017 C294.7218,68.907 295.0148,68.964 295.1488,68.919 C295.1878,68.877 295.2018,68.779 295.1908,68.725 L295.2748,68.703 C295.3518,68.75 295.3968,68.834 295.4578,68.898 L295.4628,68.99 C295.3948,69.109 295.1398,69.14 295.0168,69.152 C294.9698,69.186 294.9338,69.28 294.9328,69.336 C295.2228,69.653 294.7628,70.031 294.5018,70.137 C294.2478,70.24 293.9118,70.091 293.7448,70.207 L293.7088,70.305 C293.7498,70.344 293.8038,70.375 293.8558,70.396 C293.9888,70.373 294.7928,70.193 294.8378,70.207 C295.0818,70.286 295.2518,70.514 295.4628,70.629 C295.5248,70.663 296.3968,70.841 296.4868,70.846 C296.6178,70.852 296.7338,70.773 296.8238,70.689 L296.8238,70.575 L296.7758,70.494 C296.7198,70.46 296.6548,70.433 296.5928,70.413 C296.6238,70.324 296.7268,70.283 296.8078,70.251 C297.2618,70.361 297.6008,70.813 297.4328,71.257 C297.5578,71.323 297.7108,71.29 297.7898,71.435 L297.8058,71.538 C297.7398,71.556 297.6728,71.568 297.6068,71.576 L297.5428,71.646 L297.5738,71.733 C297.6998,71.816 297.8578,71.873 297.9998,71.922 C298.1838,71.951 298.4758,72.089 298.6298,71.96 L298.6778,71.879 L298.6358,71.798 L298.6668,71.728 C298.7888,71.762 298.9828,72.033 298.9828,72.161 C298.9328,72.182 298.8818,72.261 298.8718,72.312 C298.8728,72.466 298.9828,72.532 299.0188,72.658 C299.0528,72.777 299.0348,72.955 299.0928,73.059 C299.1328,73.104 299.2018,73.138 299.2608,73.151 C299.5668,73.052 299.7518,72.467 299.5438,72.215 C299.4838,72.142 299.3908,72.128 299.3448,72.031 L299.3658,71.976 C299.5508,72.068 299.6088,72.223 299.7488,72.355 C299.8678,72.469 300.0138,72.525 300.1328,72.621 C300.2788,72.738 300.4718,73.17 300.4998,73.356 C300.3168,73.464 300.3238,73.585 300.4108,73.72 C299.0668,75.029 298.5528,75.449 298.1858,75.973 C297.8438,76.459 297.6288,77.034 296.9948,78.495 C296.8348,78.863 296.8998,78.998 296.8148,79.259 C296.7388,79.487 296.5808,79.745 296.4758,79.965 C296.3578,80.21 296.1918,80.434 296.1108,80.692 C295.9678,80.906 295.1748,80.809 294.8958,81.222 L294.8108,81.825 C294.7948,81.935 294.6498,82.098 294.6458,82.13 C294.6288,82.24 294.6258,82.376 294.5318,82.455 C294.2328,82.588 293.9588,82.509 293.6778,82.371 L293.3668,82.703 C293.3428,82.558 293.2058,82.093 293.0348,82.024 L292.8508,82.189 L292.2078,82.186 C292.1328,82.224 291.8608,82.371 291.8238,82.449 C291.8278,82.905 291.6818,83.005 291.7138,83.497 C291.7188,83.582 291.8158,83.837 291.7828,83.894 C291.5828,83.85 291.3438,83.843 291.1408,83.867 C291.1288,83.607 291.1658,82.583 290.9778,82.362 L290.8918,82.342 C290.7578,82.47 290.3998,82.675 290.2038,82.628 L289.9938,82.472 L289.9428,82.482 C289.8078,82.665 289.3558,83.198 289.3148,83.433 L289.4618,83.701 C289.4538,83.712 289.4428,83.735 289.4328,83.744 C289.3468,83.811 289.2328,83.925 289.1388,83.975 C288.9508,84.074 288.7948,84.087 288.5228,84.253 L288.4008,84.327 C288.3708,84.335 288.1658,84.335 288.1228,84.337 L288.0868,84.351 C287.8938,84.429 287.7558,84.414 287.5508,84.41 L287.4008,84.244 C287.3078,83.762 287.3998,83.764 286.9558,83.534 C286.8998,83.505 286.1988,83.591 286.0668,83.605 L285.8428,83.895 C285.9388,84.103 285.9768,84.394 285.9718,84.621 L285.8088,84.769 C285.7928,85.079 285.6828,85.351 285.6768,85.675 C285.6088,85.703 285.4428,85.649 285.3838,85.622 L285.2068,85.736 C284.0378,85.78 283.5958,85.757 283.1718,85.833 C282.7418,85.911 282.3298,86.09 281.1948,86.543 C281.1078,86.755 281.0318,86.873 281.0298,87.09 L280.7858,87.096 C280.7598,87.214 280.8178,87.408 280.8818,87.505 L281.2108,87.632 C281.2738,87.687 281.3268,87.822 281.3128,87.905 C281.2638,88.002 281.0248,88.045 280.9188,88.076 L280.8398,88.163 L280.8868,88.313 L280.8318,88.362 L280.8548,88.569 L280.7808,88.702 L280.8898,88.915 L281.0668,88.996 L281.0858,89.071 L280.9738,89.202 L280.6888,89.247 C280.5158,89.44 280.4538,89.627 280.3158,89.837 L280.3498,90.039 L280.3298,90.086 L280.1918,90.183 C280.0898,90.46 279.9098,90.601 279.7948,90.867 L279.5128,90.853 L279.3908,90.924 C279.3868,90.968 279.0648,91.833 279.0358,91.887 C278.8668,91.781 278.6688,91.67 278.4848,91.596 C278.1028,91.442 277.9518,91.107 277.5378,91.016 C277.1848,91.154 276.8528,91.266 276.4828,91.361 C276.0578,91.472 275.9548,91.064 275.5028,91.587 C275.0928,91.615 274.6818,91.631 274.2748,91.702 L274.1848,91.637 C274.1088,91.398 273.9278,91.132 273.6488,91.135 C273.4208,91.31 273.4018,91.144 273.2168,91.142 C272.9328,91.14 272.8868,91.144 272.6808,90.916 L272.5258,90.895 C272.2898,90.954 272.1008,91.3 272.0048,91.499 L272.2088,91.73 C272.2478,91.953 272.3818,92.421 272.2038,92.62 L271.8808,92.803 C271.8038,93.08 271.3338,93.253 272.0428,93.836 L272.0678,94.001 C271.7418,94.666 272.2058,94.646 272.2058,95.222 C272.2058,95.456 272.0508,95.66 272.0038,95.888 C272.0268,96.064 272.3658,96.31 272.4928,96.425 L272.5088,96.513 C272.3678,96.539 272.2048,96.755 272.1558,96.875 L271.8968,96.925 C271.7858,96.992 271.6858,97.256 271.6588,97.372 C271.6498,97.431 271.7938,97.588 271.8318,97.625 C271.8658,97.731 271.7998,97.811 271.7358,97.886 C271.3738,98.308 271.2328,98.504 271.0398,98.605 C270.8668,98.695 270.6518,98.707 270.1978,98.736 C270.1108,98.781 270.0498,99.017 270.0678,99.108 L270.2798,99.382 C270.2828,99.419 270.2918,99.462 270.2878,99.5 C270.1668,100.739 269.7228,100.764 270.1718,102.044 C270.2598,102.296 270.4958,102.318 270.5938,102.506 C270.6868,102.684 270.7278,102.856 270.8768,103.006 L271.2988,103.167 L271.3658,103.288 C271.2728,103.408 271.1008,104.259 271.0548,104.449 C270.9818,104.483 270.8118,104.586 270.7798,104.668 C270.7178,104.931 271.1098,105.297 271.0178,105.809 L271.2518,105.828 L271.2978,105.928 C271.2838,105.946 271.2378,106.013 271.2238,106.024 C270.9278,106.226 270.1608,106.848 270.0438,107.244 C270.0008,107.388 270.0048,107.554 269.9638,107.699 L269.6728,108.601 C269.3968,109.462 269.1468,110.332 268.8878,111.2 C268.8828,111.215 268.8548,111.241 268.8438,111.254 C268.8538,111.367 268.6548,111.588 268.6658,111.738 C268.6998,112.24 268.3688,112.594 268.1888,113.046 C268.0288,113.443 267.9338,113.923 267.8138,114.34 C267.7888,114.364 267.7578,114.385 267.7388,114.413 C267.3228,115.043 266.8848,115.792 266.5908,116.493 C266.4968,116.716 266.4828,116.996 266.4038,117.228 C266.2998,117.539 266.1638,117.823 266.0688,118.135 C265.8798,118.761 265.6758,119.386 265.4998,120.016 C265.4588,120.166 265.3888,120.393 265.3688,120.545 C265.3518,120.683 265.3838,120.881 265.3478,121.011 C265.3068,121.159 265.1538,121.353 265.0718,121.497 C265.0918,122.292 264.6778,122.738 264.4708,123.545 L264.4388,123.625 C264.2978,123.974 264.0248,124.455 263.9578,124.815 C263.6958,126.23 263.0368,125.299 262.4168,126.106 L261.9188,126.753 C262.0988,127.726 262.2158,128.657 262.3338,129.643 C262.3708,129.953 262.3608,130.245 262.4308,130.552 L262.4448,130.619 C262.4878,131.18 262.4658,131.75 262.5138,132.308 C262.5468,132.691 262.6498,133.074 262.6918,133.455 C262.8128,134.556 262.8988,135.663 263.0008,136.764 C263.0228,136.994 263.0378,137.223 263.0538,137.454 C263.1588,138.975 263.3028,140.496 263.4968,142.016 C263.4998,142.043 263.5248,142.081 263.5358,142.108 C263.6798,142.452 263.7328,142.802 263.8808,143.138 L264.1128,143.27 C264.0878,143.75 262.8708,147.183 262.5838,147.913 C262.5318,148.043 262.2658,148.334 262.1708,148.435 C262.1668,148.459 262.1508,148.509 262.1538,148.533 C262.2548,149.34 262.2898,149.058 262.5638,149.74 C262.6538,149.965 262.7098,150.236 262.7778,150.469 C262.8528,150.721 262.9838,150.913 263.0318,151.18 C262.8018,151.424 262.8148,151.555 262.6358,151.77 L262.5098,151.812 C262.3308,152.316 261.6838,152.889 261.6258,153.088 C261.3598,154.004 261.0978,154.89 260.7818,155.788 C260.7048,156.009 260.8048,156.487 260.7618,156.75 C260.7228,156.991 259.9938,158.538 259.7928,159.119 C259.3908,160.282 259.4848,160.666 258.5668,161.309 C258.4528,161.519 258.1028,162.957 258.0148,163.294 L257.9818,163.416 C257.8068,164.313 257.3858,165.385 257.3018,166.253 C257.2998,166.276 257.2848,166.301 257.2778,166.323 C257.1238,166.782 256.7728,167.308 256.7408,167.776 C256.7558,167.804 256.7898,167.883 256.8088,167.904 C256.9368,168.042 257.2908,168.371 257.3258,168.56 C257.3588,168.745 257.2398,168.933 257.2258,169.107 C257.1948,169.477 257.2998,171.012 257.1828,171.287 C257.0608,171.575 256.8858,171.771 256.8528,172.088 C256.8408,172.202 256.9278,172.278 256.8408,172.414 C256.5998,172.35 256.2158,172.424 256.0608,172.361 C256.0148,172.27 256.0118,172.106 256.0348,172.009 C255.8808,171.756 255.5728,171.771 255.4638,171.628 C255.4388,171.625 255.3108,171.605 255.2918,171.611 C254.7458,171.791 254.9798,171.687 254.4828,171.6 C254.3008,171.568 253.9698,171.663 253.7908,171.699 C253.6188,171.733 253.3718,171.893 253.1998,171.963 C252.9108,172.08 252.3188,172.151 252.0008,172.211 C251.7368,172.261 251.4768,172.442 251.2128,172.51 C251.0168,172.561 250.7918,172.578 250.5898,172.61 C250.4658,172.629 250.3138,172.695 250.1918,172.733 L249.8378,172.556 C249.2328,172.851 249.2388,172.483 248.9238,172.584 C248.7878,172.709 248.6918,172.759 248.5008,172.797 L248.4678,172.849 C248.5428,173.195 248.5738,173.484 248.3658,173.769 C248.2248,173.853 247.8578,173.849 247.7038,173.835 C247.6918,173.842 247.6558,173.857 247.6498,173.869 C247.3598,174.355 247.0438,175.047 246.7448,175.488 C246.4158,175.973 246.1568,176.38 245.8998,176.907 C245.6808,177.353 245.3978,177.752 245.1548,178.19 C244.8018,178.828 244.4058,179.538 243.9828,180.133 C243.9178,180.224 243.8698,180.298 243.8278,180.4 C244.1498,180.855 244.0888,181.258 243.6778,181.545 C243.5658,181.52 243.3508,181.526 243.2468,181.589 C242.8548,182.269 242.4758,182.924 242.1308,183.626 L242.2768,183.822 C242.4338,184.032 242.2468,184.628 241.9888,184.678 L241.6288,184.667 L241.5668,184.748 C241.5718,184.958 241.5208,185.425 241.4068,185.614 C241.2768,185.83 241.1828,186.071 240.9878,186.235 C240.8628,186.34 240.6718,186.448 240.5638,186.546 C240.4788,186.623 239.2198,187.624 239.1808,187.677 C239.0568,187.711 238.9448,187.727 238.8408,187.802 C238.5948,187.981 238.3348,188.154 238.1178,188.37 C237.9578,188.529 237.1928,189.612 237.1358,189.871 C237.0938,190.066 237.1988,190.406 237.2588,190.622 C237.3268,190.87 237.4248,191.303 237.6878,191.416 C237.8998,191.896 237.7708,191.923 237.7308,192.417 C237.7058,192.717 237.7798,193.037 237.7608,193.337 C237.7278,193.829 237.3878,194.245 237.2458,194.693 C237.1888,194.875 237.2838,195.165 237.2198,195.341 C237.1278,195.596 236.9468,195.876 236.8238,196.12 C236.6688,196.424 236.3448,196.76 236.1368,197.039 L236.1408,197.09 L236.0698,197.151 C236.0378,197.555 235.3108,198.802 235.3288,198.856 C235.5388,199.458 236.1468,199.678 236.2798,200.469 C236.2748,200.506 236.2488,200.616 236.2108,200.635 C236.0858,201.47 235.7488,202.247 235.6418,203.072 C235.6358,203.112 235.3378,203.921 235.3048,204.015 C235.2768,204.09 235.2778,204.239 235.2978,204.317 L235.4408,204.371 L235.4078,204.596 C235.4188,204.671 235.6538,204.929 235.7108,204.997 C235.7508,205.356 234.7258,206.185 234.5278,206.577 C234.5148,206.605 234.4468,206.894 234.4348,206.942 C234.3528,207.259 233.7008,207.53 233.5548,208.109 C233.2828,208.346 233.1998,207.701 232.3348,208.83 C232.2758,208.825 232.1948,208.762 232.1678,208.711 C232.1448,208.421 232.2868,208.122 232.1338,207.851 L231.8968,207.861 C231.7128,207.776 231.0288,206.82 230.7678,206.58 C230.6058,206.431 230.3958,206.345 230.2328,206.218 C229.8948,205.958 229.5938,205.63 229.2658,205.349 C229.1928,205.288 229.1208,205.215 229.0288,205.184 C228.5058,205.594 228.0288,205.984 227.4568,206.318 C227.0108,206.579 226.5438,206.896 226.3088,207.371 C226.1148,207.761 225.8328,208.107 225.6428,208.474 C225.6328,208.494 225.1498,209.442 225.1348,209.457 L224.2008,210.419 C223.5828,211.056 223.6718,210.697 223.5188,211.633 C223.4818,211.859 223.2748,212.076 223.3008,212.3 L223.4398,212.473 C223.5128,212.471 223.7208,212.482 223.7808,212.534 C223.9038,212.706 223.9848,212.902 224.0768,213.091 L224.0538,213.287 C223.7988,213.514 223.5168,214.238 223.5488,214.583 C223.5508,214.613 223.6398,214.844 223.6548,214.89 C223.9198,215.65 224.0868,216.458 224.3038,217.238 C224.3658,217.463 224.4918,217.773 224.5158,218.001 C224.5198,218.044 224.4388,218.417 224.4318,218.494 C224.3958,218.929 224.4568,218.825 224.2228,219.284 C224.1828,219.363 224.2048,219.497 224.1708,219.58 C224.0538,219.863 222.9478,220.572 222.7228,220.729 C222.1068,221.16 222.2768,222.487 222.2348,223.143 L222.2328,223.191 C222.2548,223.376 222.3058,223.642 222.2368,223.823 C222.1818,223.97 222.0638,224.113 221.9958,224.257 C221.9158,224.429 221.9158,224.614 221.8628,224.788 C221.7208,225.263 221.5128,225.724 221.3578,226.196 C221.2738,226.45 221.2158,226.716 221.1268,226.969 C221.0948,227.06 221.0278,227.139 220.9918,227.229 C220.8898,227.493 220.8468,227.791 220.7548,228.061 C220.5678,228.614 220.3578,229.149 220.1928,229.71 C220.1118,229.988 220.2388,230.961 220.3088,231.639 L217.0068,231.272 C217.0068,231.272 217.1018,228.524 217.1018,227.955 C217.1018,227.387 217.9548,225.871 218.5238,225.397 C219.0918,224.923 218.8078,219.239 218.8078,219.239 L217.2908,219.048 L216.3438,217.438 L212.9328,213.837 L210.0898,210.237 L205.1628,208.625 C205.1628,208.625 205.1628,208.152 205.2578,207.678 C205.3528,207.205 205.4468,206.257 205.4468,206.257 L204.3108,196.403 L203.3618,194.507 C203.3618,194.507 203.0778,193.655 203.5518,193.181 C204.0248,192.707 203.9308,191.57 203.9308,191.096 C203.9308,190.622 204.4048,187.78 204.4048,186.927 C204.4048,186.075 205.1628,183.99 205.2578,183.516 C205.3528,183.042 205.3528,182.569 206.1098,182 C206.8678,181.431 205.8258,180.93 205.4468,180.93 L195.4088,180.93 L195.0968,180.957 C195.3848,181.946 194.8678,182.241 195.2808,183.442 C195.5688,184.277 195.5108,184.149 195.4828,184.965 C195.2888,185.254 195.0318,185.868 195.0198,186.122 L184.7908,186.169 L188.9598,189.77 C188.9598,189.77 189.7178,190.338 189.8128,190.717 C189.9068,191.096 189.6228,198.297 189.6228,198.772 C189.6228,199.246 191.9918,202.657 191.9918,202.657 L190.3808,203.604 L181.9478,211.373 C181.9478,211.373 180.9058,213.364 180.7168,213.837 C180.5268,214.311 180.3378,215.163 179.8628,215.542 C179.3898,215.922 172.1888,224.734 172.1888,224.734 L170.3888,226.535 C169.9138,227.008 169.5348,227.103 168.6828,227.103 C167.8298,227.103 161.7658,227.008 161.7658,227.008 L152.9538,219.997 L146.3208,216.585 L139.2138,221.133 L138.6458,226.913 C138.6458,226.913 131.9188,227.198 131.3498,227.198 C130.9698,227.198 130.6328,227.24 130.3368,227.353 C130.1908,227.409 130.0538,227.482 129.9278,227.577 C129.7868,227.683 129.3158,228.171 128.7508,228.783 L128.7428,225.671 L128.7218,218.788 L107.9188,218.788 L107.8998,226.059 Z" id="Fill-1" fill="#FFFFFF"></path>
            <path d="M107.8998,226.059 L109.6468,229.464 C109.6488,229.472 103.4888,229.188 102.7318,229.188 C101.9728,229.188 97.5198,228.998 96.4778,228.998 C95.4348,228.998 94.1088,228.998 93.6348,229.188 C93.1608,229.377 89.4658,231.462 88.8028,231.652 C88.1388,231.841 87.1918,231.652 86.4338,231.368 C85.6758,231.083 82.7378,230.136 81.9808,229.851 C81.2218,229.567 81.0328,228.998 80.5588,228.051 C80.0848,227.104 79.1378,224.451 79.1378,224.451 L78.0008,222.65 C78.0008,222.65 76.8638,221.229 76.3898,220.661 C75.9158,220.092 75.4418,219.144 74.8738,218.576 C74.3048,218.007 73.5418,215.175 73.5418,215.175 C73.4218,215.078 73.2998,214.938 73.1708,214.738 C73.0508,214.554 72.3798,214.375 72.1888,214.365 C71.8708,214.476 71.5238,214.544 71.1958,214.62 C70.4108,215.165 70.4748,214.782 69.7438,214.855 C69.3748,214.892 69.0658,215.061 68.6778,215.038 C67.4618,214.965 66.5308,215.896 65.1918,215.819 C64.4238,215.774 64.3298,216.102 63.6428,216.108 C63.1758,216.113 63.1168,216.462 62.5658,216.311 C62.5468,216.306 62.5448,216.297 62.5258,216.295 C62.1428,216.402 62.1728,216.527 61.6918,216.323 C61.5738,216.272 61.4358,216.182 61.3038,216.194 C61.0638,216.384 60.9118,216.415 60.6228,216.307 C60.0628,216.64 59.9318,216.437 59.4448,216.463 C59.2438,216.474 58.5588,216.801 58.5258,216.865 C58.3748,217.158 58.4038,217.364 58.1688,217.668 C57.9458,217.955 57.9978,218.283 57.7848,218.575 L57.7038,218.682 C57.3878,219.102 58.1078,219.761 57.8798,220.384 C57.7428,220.755 57.6968,221.01 57.4178,221.306 C57.1598,221.58 57.3178,222.237 56.5288,223.072 C56.0988,223.526 56.5118,223.667 55.6168,224.199 C55.2288,224.429 54.9948,224.59 54.6728,224.881 C54.2588,225.256 54.0708,225.158 53.6588,225.306 C53.4908,225.535 53.5498,225.722 53.2498,225.926 C53.0988,226.03 52.9268,226.086 52.7498,226.113 L51.8488,225.812 C51.6858,225.762 51.6388,225.58 51.4648,225.552 C51.3248,225.584 50.9738,225.824 50.8138,225.899 C50.7528,225.927 50.6838,225.926 50.6198,225.942 C50.4498,225.985 50.3298,225.943 50.1678,225.963 C49.8838,225.999 49.4978,226.232 49.0178,226.255 C48.5588,226.278 48.1648,225.728 47.4938,225.855 C46.9488,225.958 46.5868,226.585 46.0448,226.64 C45.7198,226.672 45.4448,226.568 45.1358,226.526 C44.4508,226.434 44.5678,226.606 44.2268,226.64 C44.1098,226.652 43.9958,226.59 43.8748,226.613 C43.6948,226.646 43.5348,226.784 43.3498,226.813 C43.2478,226.83 43.1568,226.802 43.0598,226.843 C43.0208,226.86 42.9778,226.867 42.9398,226.883 C42.7228,226.982 42.6378,227.311 42.4048,227.354 C42.0988,227.411 41.7318,227.143 41.4218,227.36 C41.1118,227.577 40.7618,228.325 40.4768,228.404 C40.2848,228.456 40.1078,228.413 39.9098,228.449 L33.5888,228.46 C33.4018,228.753 33.3868,228.645 33.2988,228.788 C33.4498,228.523 33.6668,228.288 33.7758,227.989 C33.8058,227.905 33.5868,226.412 33.5848,226.393 C33.5728,226.302 33.2788,223.947 33.2448,223.861 C33.0808,223.44 32.6198,222.851 32.3688,222.445 C31.6498,221.283 30.9568,220.106 30.2588,218.93 C29.8208,218.191 29.3908,217.4 28.9208,216.688 C28.6658,216.3 28.3778,215.89 28.1498,215.501 C27.9198,215.109 26.9478,213.389 26.6848,213.106 C26.5868,212.999 26.1328,212.888 26.0038,212.738 C25.8538,212.564 25.7478,212.306 25.6008,212.147 C25.2088,211.725 25.2948,212.187 24.7008,211.322 C24.4308,211.342 23.8488,210.365 23.7278,210.163 C23.6008,209.951 22.7498,209.721 22.5858,209.348 C22.5708,209.344 22.5358,209.341 22.5238,209.332 C22.1768,209.057 21.7978,208.868 21.4118,208.653 C21.1908,208.531 20.9448,207.712 20.8538,207.508 C20.8098,207.411 20.0538,206.489 19.8738,206.252 L19.8588,205.952 C19.6128,205.577 19.2658,205.705 19.0808,204.94 C19.1138,204.802 19.2408,204.362 19.2878,204.244 C19.6078,203.437 19.8858,202.627 20.1698,201.802 L20.2948,201.739 C20.3378,201.621 21.0318,199.789 21.0298,199.736 C21.0138,199.139 21.0018,198.55 20.9588,197.955 L20.6568,197.771 L20.6268,197.707 L20.4428,197.663 C20.2888,197.132 20.3358,196.298 20.2988,195.721 C19.9888,195.613 17.8238,195.934 17.5018,195.981 L17.4798,195.332 C17.3988,195.219 17.3138,195.109 17.2178,195.008 C16.7928,194.565 16.6918,194.597 16.1478,194.322 C15.8588,194.175 15.5278,194.05 15.2298,193.91 C15.2118,193.901 13.5348,192.114 13.5088,191.97 C13.4758,191.781 13.2608,190.736 13.3048,190.615 L13.3348,190.58 C13.4608,189.611 14.8938,184.211 14.7978,183.949 L14.7438,183.907 L14.3138,184.042 L13.8738,183.944 C13.7748,184.021 13.4628,184.082 13.3678,183.983 C12.7428,183.923 12.2938,185.005 11.5608,184.487 L11.8158,184.425 C11.9158,184.187 11.9778,183.683 12.1228,183.491 C12.0318,183.284 12.1498,183.053 12.1598,182.843 C12.1828,182.396 12.1708,182.053 12.0778,181.613 C12.0248,181.356 11.8678,181.217 11.8868,180.923 C11.6978,180.83 11.3908,180.143 11.3218,179.956 C11.3048,179.908 11.3138,179.71 11.2988,179.647 C11.2408,179.411 10.9548,178.787 10.9948,178.549 C10.7038,178.251 11.0748,178.077 10.9278,177.821 C10.6948,177.597 10.4958,177.113 10.1438,177.16 C9.7398,176.974 10.5898,175.907 10.7678,175.84 C10.8918,175.639 11.6508,173.582 11.5808,173.462 L11.4498,173.332 C10.3688,173.105 9.5138,172.626 8.5198,172.127 L8.4898,172.068 C8.3258,172.028 7.1428,171.258 6.9168,171.138 L6.8658,171.936 C6.5168,172.565 5.4888,172.786 4.8598,172.965 L3.9608,173.222 C3.4328,173.305 2.8468,173.073 2.3178,173.252 C2.3028,173.245 2.2018,173.19 2.1958,173.182 C1.9528,172.845 1.7258,172.538 1.3638,172.314 C1.2648,171.707 0.9398,171.857 0.8298,171.433 C1.0028,170.865 0.4698,170.591 0.50041037,170.057 C0.6358,169.615 0.6568,169.345 0.6998,168.9 L0.7488,168.712 C0.8758,168.454 1.0628,168.19 1.2008,167.927 C1.4348,167.485 1.3688,167.121 1.7848,166.488 L2.0398,166.362 C2.1998,166.199 2.0778,166.014 2.1738,165.871 L2.0638,165.763 L2.0428,165.665 C2.2248,165.605 2.3468,165.443 2.4298,165.277 L2.7438,165.19 C2.8978,164.982 3.1638,164.696 3.4328,164.637 C3.6018,164.511 3.4568,164.133 3.6168,164.017 C3.7108,163.93 4.0818,163.975 4.2048,163.979 C4.3648,163.984 4.4978,163.874 4.6578,163.89 C4.7108,163.857 4.7668,163.69 4.7818,163.634 L4.8528,163.579 C5.0358,163.513 5.7318,163.655 5.8468,163.36 L5.9968,162.976 C6.3778,162.909 6.5638,162.292 6.6718,162.009 C6.8328,161.946 7.0548,161.666 7.1428,161.53 L7.3388,161.455 C7.4368,161.251 7.4998,161.021 7.7378,160.943 L7.7418,160.9 C8.0108,160.642 8.1388,160.303 8.4628,160.08 L8.4378,159.488 C8.4038,159.453 8.3578,159.379 8.3608,159.327 C8.1848,159.143 8.0808,158.998 7.8158,159 C7.6448,158.845 7.6328,158.702 7.6398,158.48 C7.5758,158.357 7.5278,158.306 7.3858,158.283 C7.2688,158.184 7.3288,157.963 7.2498,157.844 L7.3458,157.531 C7.1298,157.125 7.4478,156.726 7.3468,156.404 C7.3128,156.294 7.1988,156.208 7.2008,156.082 C7.0718,155.932 6.8128,155.728 6.6118,155.685 C6.6118,155.685 6.3988,155.534 6.3688,155.48 L6.2528,155.15 C6.2138,155.18 6.1318,155.179 6.0888,155.163 C5.9198,155.039 5.8428,154.667 5.7978,154.484 C5.5458,154.279 5.5058,154.223 5.4568,153.893 C5.5318,153.69 5.6678,153.561 5.6918,153.328 L5.5938,153.205 C5.6128,153.15 5.6148,153.074 5.5928,153.019 L5.4158,152.837 L5.3368,152.821 C5.2068,152.713 5.0848,152.555 4.9998,152.411 C4.9438,152.232 5.4568,151.529 5.5618,151.362 L5.6368,151.328 C5.9448,150.678 6.6448,150.128 7.1278,149.637 C7.2048,149.557 7.4828,149.087 7.5258,149.058 C7.8378,148.842 8.3168,148.762 8.5978,148.552 C8.7658,148.426 8.9578,148.163 9.1038,148.004 C9.2438,147.852 9.6098,147.742 9.7928,147.765 C9.9448,147.702 10.2998,147.293 10.4058,147.165 L11.0038,147.168 C11.3968,147.17 12.2358,145.882 12.9778,145.901 C13.1328,145.67 13.7378,144.845 13.7428,144.686 L13.2838,144.233 L13.3688,143.851 C12.0298,143.379 12.8088,143.633 11.9558,143.809 L11.3538,143.158 C10.9568,142.728 10.8978,142.187 11.6018,142.113 L11.6438,142.02 L11.5288,141.508 C11.4418,141.48 11.3808,141.41 11.3168,141.349 C11.2798,140.51 11.2998,140.176 11.4248,139.374 C11.4268,139.359 11.3938,139.212 11.3898,139.188 C11.1688,139.017 10.8318,138.766 10.5488,138.713 L10.3088,138.784 L10.2538,138.742 C10.4108,138.183 10.5788,137.654 10.7358,137.098 C10.8678,137.01 10.9458,137.241 11.3048,136.927 L11.3808,136.927 L11.4668,137.079 C11.5318,136.371 14.2028,136.178 14.4268,136.095 L16.2158,135.427 L16.2788,135.338 C16.0868,134.34 15.7558,133.385 15.3908,132.434 C15.4958,131.888 16.0948,131.451 16.6398,131.586 C16.7068,131.5 16.8538,131.54 16.9308,131.436 C17.0488,131.254 16.9148,131.003 16.8558,130.828 L16.8048,130.806 C16.8278,130.618 16.7928,130.48 16.8598,130.288 C16.9648,129.987 18.1038,128.988 18.3188,128.825 C18.3348,128.814 18.3638,128.822 18.3788,128.811 C18.8728,128.467 18.7828,128.106 19.3618,127.903 C19.5378,127.84 19.7218,127.958 19.8658,127.921 L20.2068,127.662 C20.2008,127.643 20.1838,127.614 20.1858,127.594 C20.2048,127.278 20.1218,127.046 20.0378,126.74 C19.9658,126.477 20.4948,126.212 20.6528,126.123 C20.7178,126.086 20.7708,126.093 20.8378,126.025 C20.9408,125.922 20.9788,125.691 21.0438,125.563 C21.1018,125.449 21.2498,125.395 21.2748,125.27 C21.2358,125.191 21.1128,124.902 21.0448,124.859 C20.9708,124.496 21.2868,124.264 21.3488,123.955 C21.2628,123.409 21.1308,123.848 21.1078,122.809 C21.0978,122.403 21.3518,122.449 21.0778,121.974 C20.9188,121.856 20.0548,121.065 20.0318,121.065 C19.8208,120.663 19.8988,120.578 19.9938,120.16 C19.8968,120.02 19.9228,119.759 19.9838,119.614 C20.0478,119.461 20.1358,119.358 20.2368,119.226 C20.6898,118.635 20.7948,119.131 21.2218,118.88 C21.3988,118.776 21.5588,118.575 21.6858,118.417 L21.7238,118.417 L21.7448,118.362 C22.1248,118.221 22.1478,117.627 22.3138,117.527 C23.0398,117.356 22.9988,116.902 23.4698,116.552 C23.7848,116.471 24.0358,116.514 24.3178,116.64 C24.4388,116.694 24.9818,116.652 25.1238,116.576 C25.1888,116.584 25.2948,116.673 25.3378,116.717 C25.4898,116.685 26.9218,116.963 27.2508,116.989 C27.7208,117.026 28.2648,116.899 28.7368,116.862 C29.2668,116.821 29.8618,116.298 30.3588,116.103 C31.2908,115.737 32.1398,115.718 33.1328,115.671 C33.2818,115.664 33.4268,115.721 33.5738,115.746 C33.8808,115.796 34.2398,115.926 34.5508,115.927 C34.8358,115.928 35.4218,115.882 35.7098,115.948 C36.3098,116.082 36.8658,116.264 37.4538,116.427 C37.7848,116.518 38.1508,116.55 38.4898,116.63 C38.5048,116.633 38.5268,116.655 38.5408,116.663 C38.7498,116.68 39.0078,116.695 39.2148,116.644 C39.2378,114.623 39.1858,112.607 39.1858,110.587 L39.1858,94.603 L39.1858,46.648 L39.1858,37.426 L57.0918,37.426 L57.0978,0.558 L170.2478,0.523 L171.9648,0.523 L203.4688,0.523 C204.0908,0.936 204.6838,1.383 205.2848,1.824 C206.9838,3.068 208.6838,4.312 210.3798,5.56 C210.4418,5.604 210.5358,5.584 210.6048,5.577 C213.1918,5.29 215.7788,5.006 218.3668,4.726 C218.8418,3.327 219.3148,1.918 219.7998,0.523 L269.8758,0.499 L269.8218,0.635 C269.8758,0.719 269.8388,0.871 269.8428,0.97 C269.7688,1.087 269.6778,1.193 269.5228,1.143 C269.4398,1.088 269.3768,1.002 269.2708,0.992 L269.1758,1.019 L269.1288,1.105 L269.1338,1.219 C269.2528,1.478 269.9318,1.531 270.0168,1.792 C270.1308,2.146 269.6978,2.449 269.7068,2.755 C269.8378,2.87 269.9238,3.17 269.8018,3.313 C269.7428,3.335 269.6858,3.366 269.6328,3.399 C269.4878,3.368 269.2018,3.381 269.0608,3.432 C269.0158,3.469 268.9798,3.559 268.9768,3.616 L269.0248,3.697 C269.0778,3.72 269.1818,3.722 269.2338,3.691 L269.2968,3.735 L269.3138,3.837 C269.6118,3.976 269.7008,3.83 269.9748,3.756 L270.0648,3.778 L270.1218,3.843 C270.1318,3.893 270.1238,3.993 270.0848,4.032 C270.1098,4.078 270.1928,4.814 270.1798,4.866 C269.9168,4.907 269.7148,4.909 269.6278,5.206 L269.6758,5.288 C269.8528,5.325 269.9788,5.142 270.1528,5.142 C270.4878,5.225 270.2558,5.709 270.3168,5.921 C270.5158,6.102 270.9148,7.168 270.7688,7.365 L270.6848,7.409 C270.5738,7.384 270.4628,7.34 270.3478,7.354 L270.2748,7.409 L270.2428,7.506 C270.3148,7.766 270.8668,7.697 271.0778,7.723 C271.1208,7.762 271.1588,7.816 271.1838,7.869 C271.1468,8.031 271.0118,8.148 270.9788,8.334 C271.0888,8.481 271.2448,8.502 271.3518,8.626 C271.3378,8.788 271.2408,9.059 271.2678,9.2 C271.3678,9.34 271.5518,9.434 271.6078,9.616 C271.6418,9.72 271.6108,9.834 271.6458,9.941 C271.7408,10.041 271.9088,9.974 272.0238,10.087 C272.2418,10.303 272.7508,11.796 272.9168,12.159 C273.0708,12.499 273.2358,12.839 273.3948,13.176 C273.4978,13.396 273.6588,13.596 273.7568,13.82 C273.8068,13.932 273.8328,14.071 273.8938,14.177 C273.9568,14.289 275.2248,15.556 275.4168,15.746 C275.7288,16.054 276.1768,16.534 276.3578,16.931 C276.4248,17.079 276.4008,17.261 276.4678,17.423 C276.5348,17.586 276.6678,17.624 276.7368,17.759 L276.7038,17.867 L276.6198,17.91 C276.5478,18.09 276.6958,18.365 276.4568,18.473 C276.3648,18.468 276.2428,18.441 276.1628,18.5 L276.0528,18.473 C275.9648,18.502 275.9198,18.58 275.9108,18.667 L275.8218,18.624 C275.6968,18.422 275.4518,17.788 275.4168,17.558 L275.4698,17.537 C275.5488,17.699 275.8088,17.99 275.9748,18.067 C275.9978,17.977 275.9678,17.84 275.9218,17.758 C275.8168,17.574 275.6248,17.455 275.5378,17.25 C275.4568,17.059 275.4078,16.811 275.2968,16.639 C275.1668,16.628 275.0338,16.699 274.9348,16.574 C274.9278,16.562 274.9028,15.652 274.8508,15.443 C274.7328,15.376 274.5078,15.231 274.3768,15.308 C274.2478,15.477 274.0278,15.578 273.9308,15.773 L273.9308,15.887 C274.2468,16.4 274.0878,16.165 274.0468,16.612 C274.0068,17.044 273.7168,17.184 273.6788,17.413 C273.6638,17.503 273.7718,17.663 273.8198,17.743 L273.7628,17.775 C273.6878,17.715 273.4368,17.662 273.3478,17.705 C273.2748,17.762 273.2598,17.867 273.2258,17.948 C272.9378,18.615 273.4178,18.368 273.4738,18.808 C273.4928,18.956 273.3928,19.275 273.4528,19.376 C273.5128,19.419 273.6138,19.516 273.6368,19.587 C273.6778,19.719 273.6348,19.883 273.6678,20.02 C273.7198,20.232 273.8948,20.392 273.9418,20.61 C273.9718,20.749 273.9168,20.935 273.9518,21.048 C273.9718,21.113 274.0208,21.126 274.0098,21.227 C274.0848,21.261 274.1628,21.367 274.1778,21.449 C274.1908,21.518 274.1688,21.6 274.1778,21.67 C274.1948,21.804 274.2828,21.919 274.2988,22.044 C274.3088,22.122 274.2828,22.19 274.2768,22.266 C274.2768,22.272 274.3948,23.062 274.4038,23.088 C274.4348,23.176 274.5148,23.24 274.5568,23.315 C274.6288,23.447 274.5228,23.607 274.5668,23.748 C274.6168,23.908 274.7278,23.994 274.7448,24.181 C274.7658,24.394 274.7158,24.659 274.6668,24.868 C274.7228,24.95 274.8058,24.984 274.8658,25.052 C274.9518,25.148 275.2138,25.642 275.2708,25.777 C275.3778,26.03 275.2998,26.362 275.4958,26.81 C275.5998,27.046 275.8348,27.303 275.8538,27.562 C275.8748,27.852 275.7788,28.127 275.7848,28.407 C275.7888,28.583 275.9418,28.725 275.9218,28.851 C275.7768,28.95 275.5868,28.994 275.4228,29.104 L275.3228,29.104 L275.3278,29.007 C275.4068,28.967 275.5108,28.934 275.5548,28.851 L275.4968,28.785 L275.3918,28.774 L275.3128,28.812 C275.2488,28.886 275.2418,28.989 275.2128,29.078 C275.0388,29.615 275.3108,29.697 275.3448,30.17 C275.3668,30.487 275.1638,30.728 275.1498,31.041 C275.1288,31.528 275.2488,31.984 275.2608,32.459 C275.2698,32.846 275.1748,33.257 275.2238,33.639 C275.2788,34.075 275.4578,34.458 275.5598,34.877 C275.6348,35.187 275.5668,35.546 275.6588,35.835 C275.7618,36.151 275.8748,36.353 275.8748,36.701 L275.8278,36.782 C275.8118,36.729 275.7538,36.668 275.7068,36.642 C275.5858,36.709 275.5248,36.786 275.4338,36.885 C275.4558,36.983 275.4598,37.089 275.5018,37.183 C275.3288,37.459 276.0208,38.37 276.1488,38.67 C276.2068,38.809 276.1778,38.941 276.2108,39.081 C276.4108,39.266 276.4998,39.602 276.7158,39.807 C276.7438,39.908 276.6648,40 276.6838,40.109 C276.7118,40.151 276.7438,40.192 276.7808,40.226 L276.7678,40.191 L276.7888,40.234 C276.8288,40.361 276.8398,40.438 276.7678,40.585 L276.8158,40.666 C276.8468,40.619 276.8928,40.573 276.9418,40.542 C277.0138,40.851 276.8298,41.002 276.8048,41.272 C276.7788,41.544 276.9208,41.607 276.9148,41.759 L276.8518,41.83 C276.8028,41.819 276.7418,41.824 276.6938,41.84 C276.9308,42.328 276.7078,43.011 276.7778,43.112 C276.8298,43.12 276.9108,43.166 276.9358,43.215 L276.8888,43.301 L276.7678,43.301 L276.6148,43.187 L276.5208,43.215 C276.4648,43.303 276.5378,43.411 276.4888,43.517 C276.4388,43.549 276.3918,43.598 276.3578,43.647 C276.3498,43.699 276.3728,43.775 276.4048,43.815 C276.3608,44.062 276.4448,44.307 276.4098,44.427 L276.3308,44.475 C276.2238,44.4 276.1558,44.32 276.0678,44.226 L276.0528,44.123 L275.9638,44.075 L275.9058,44.14 C275.8458,44.533 276.4058,44.714 276.4468,44.865 C276.4468,45.939 276.4958,45.633 276.9728,46.407 C276.9488,46.556 277.0598,46.743 277.2028,46.791 C277.3258,46.96 277.3478,47.587 277.3608,47.814 L277.6238,48.842 C277.7848,49.221 278.0168,49.365 278.1388,49.93 C278.2378,50.393 278.1838,50.89 278.2178,51.358 C278.2358,51.612 278.3418,51.862 278.3808,52.114 C278.3998,52.241 278.3678,52.476 278.4168,52.575 C278.4728,52.577 278.5488,52.615 278.5848,52.656 C278.6218,52.849 278.7428,53.01 278.7478,53.214 C278.7498,53.29 278.7138,53.354 278.7638,53.43 L278.8788,53.452 C279.0788,53.684 279.1028,53.947 279.2578,54.182 C279.3438,54.312 279.4828,54.394 279.5468,54.539 C279.6948,54.878 279.7578,55.554 279.6928,55.913 C279.6188,56.327 279.1458,56.396 279.3528,57.017 C280.1278,57.514 279.5178,57.826 279.7308,58.483 C279.8808,58.948 280.2498,59.075 280.5288,59.338 C280.7778,59.573 281.1838,60.538 281.1588,60.874 L281.2228,60.939 L281.3008,60.902 L281.3378,60.804 C281.5088,60.811 281.8238,61.586 282.1628,61.032 C282.1988,61.024 282.2748,61.012 282.3098,61.032 C282.4348,61.084 282.4928,61.197 282.6298,61.226 C282.8008,61.263 282.9988,61.178 283.1768,61.183 C283.3008,61.186 283.4328,61.276 283.5598,61.215 C283.5898,61.168 283.6368,61.122 283.6868,61.096 C283.7948,61.08 283.9058,61.12 284.0118,61.085 C284.1268,61.048 284.2918,60.845 284.3428,60.837 C284.3578,60.901 284.3448,60.981 284.3218,61.042 C284.7938,61.664 285.2808,60.986 285.7248,61.48 L285.7188,61.556 C285.5858,61.655 285.6698,61.82 285.6508,61.951 C285.6288,62.102 285.4818,62.228 285.4508,62.411 C285.4858,62.512 285.5678,62.771 285.6408,62.838 C285.6938,62.834 285.7558,62.801 285.7928,62.763 C285.8318,62.564 285.9698,62.409 286.0138,62.189 C285.9888,62.097 285.9018,62.052 285.8708,61.962 L285.8868,61.837 L285.9918,61.848 C286.3638,62.312 285.9878,62.402 286.0398,62.698 C286.0728,62.747 286.1038,62.8 286.1288,62.854 C286.2108,62.922 286.3228,62.915 286.4118,62.974 C287.1468,63.453 287.2438,63.378 287.9568,63.693 C288.1428,63.775 288.7968,64.192 289.0018,64.326 C289.9198,64.925 290.3528,66.226 291.1548,66.734 C291.3568,66.86 292.2128,67.381 292.2278,67.6 C291.7968,67.89 291.6678,67.631 291.6338,68.351 C291.5478,68.444 291.4708,68.541 291.4348,68.665 L291.4918,68.714 L291.5758,68.665 L291.6918,68.665 C291.7378,68.76 291.7938,68.919 291.8648,68.99 C291.9688,69.092 292.7988,69.639 292.9048,69.644 C293.1468,69.822 293.3488,69.967 293.6828,69.942 C293.7568,69.936 293.8058,69.9 293.8928,69.91 C294.2518,69.95 294.4508,69.947 294.6228,69.558 C294.7098,69.362 294.5948,69.209 294.6438,69.017 C294.7218,68.907 295.0148,68.964 295.1488,68.919 C295.1878,68.877 295.2018,68.779 295.1908,68.725 L295.2748,68.703 C295.3518,68.75 295.3968,68.834 295.4578,68.898 L295.4628,68.99 C295.3948,69.109 295.1398,69.14 295.0168,69.152 C294.9698,69.186 294.9338,69.28 294.9328,69.336 C295.2228,69.653 294.7628,70.031 294.5018,70.137 C294.2478,70.24 293.9118,70.091 293.7448,70.207 L293.7088,70.305 C293.7498,70.344 293.8038,70.375 293.8558,70.396 C293.9888,70.373 294.7928,70.193 294.8378,70.207 C295.0818,70.286 295.2518,70.514 295.4628,70.629 C295.5248,70.663 296.3968,70.841 296.4868,70.846 C296.6178,70.852 296.7338,70.773 296.8238,70.689 L296.8238,70.575 L296.7758,70.494 C296.7198,70.46 296.6548,70.433 296.5928,70.413 C296.6238,70.324 296.7268,70.283 296.8078,70.251 C297.2618,70.361 297.6008,70.813 297.4328,71.257 C297.5578,71.323 297.7108,71.29 297.7898,71.435 L297.8058,71.538 C297.7398,71.556 297.6728,71.568 297.6068,71.576 L297.5428,71.646 L297.5738,71.733 C297.6998,71.816 297.8578,71.873 297.9998,71.922 C298.1838,71.951 298.4758,72.089 298.6298,71.96 L298.6778,71.879 L298.6358,71.798 L298.6668,71.728 C298.7888,71.762 298.9828,72.033 298.9828,72.161 C298.9328,72.182 298.8818,72.261 298.8718,72.312 C298.8728,72.466 298.9828,72.532 299.0188,72.658 C299.0528,72.777 299.0348,72.955 299.0928,73.059 C299.1328,73.104 299.2018,73.138 299.2608,73.151 C299.5668,73.052 299.7518,72.467 299.5438,72.215 C299.4838,72.142 299.3908,72.128 299.3448,72.031 L299.3658,71.976 C299.5508,72.068 299.6088,72.223 299.7488,72.355 C299.8678,72.469 300.0138,72.525 300.1328,72.621 C300.2788,72.738 300.4718,73.17 300.4998,73.356 C300.3168,73.464 300.3238,73.585 300.4108,73.72 C299.0668,75.029 298.5528,75.449 298.1858,75.973 C297.8438,76.459 297.6288,77.034 296.9948,78.495 C296.8348,78.863 296.8998,78.998 296.8148,79.259 C296.7388,79.487 296.5808,79.745 296.4758,79.965 C296.3578,80.21 296.1918,80.434 296.1108,80.692 C295.9678,80.906 295.1748,80.809 294.8958,81.222 L294.8108,81.825 C294.7948,81.935 294.6498,82.098 294.6458,82.13 C294.6288,82.24 294.6258,82.376 294.5318,82.455 C294.2328,82.588 293.9588,82.509 293.6778,82.371 L293.3668,82.703 C293.3428,82.558 293.2058,82.093 293.0348,82.024 L292.8508,82.189 L292.2078,82.186 C292.1328,82.224 291.8608,82.371 291.8238,82.449 C291.8278,82.905 291.6818,83.005 291.7138,83.497 C291.7188,83.582 291.8158,83.837 291.7828,83.894 C291.5828,83.85 291.3438,83.843 291.1408,83.867 C291.1288,83.607 291.1658,82.583 290.9778,82.362 L290.8918,82.342 C290.7578,82.47 290.3998,82.675 290.2038,82.628 L289.9938,82.472 L289.9428,82.482 C289.8078,82.665 289.3558,83.198 289.3148,83.433 L289.4618,83.701 C289.4538,83.712 289.4428,83.735 289.4328,83.744 C289.3468,83.811 289.2328,83.925 289.1388,83.975 C288.9508,84.074 288.7948,84.087 288.5228,84.253 L288.4008,84.327 C288.3708,84.335 288.1658,84.335 288.1228,84.337 L288.0868,84.351 C287.8938,84.429 287.7558,84.414 287.5508,84.41 L287.4008,84.244 C287.3078,83.762 287.3998,83.764 286.9558,83.534 C286.8998,83.505 286.1988,83.591 286.0668,83.605 L285.8428,83.895 C285.9388,84.103 285.9768,84.394 285.9718,84.621 L285.8088,84.769 C285.7928,85.079 285.6828,85.351 285.6768,85.675 C285.6088,85.703 285.4428,85.649 285.3838,85.622 L285.2068,85.736 C284.0378,85.78 283.5958,85.757 283.1718,85.833 C282.7418,85.911 282.3298,86.09 281.1948,86.543 C281.1078,86.755 281.0318,86.873 281.0298,87.09 L280.7858,87.096 C280.7598,87.214 280.8178,87.408 280.8818,87.505 L281.2108,87.632 C281.2738,87.687 281.3268,87.822 281.3128,87.905 C281.2638,88.002 281.0248,88.045 280.9188,88.076 L280.8398,88.163 L280.8868,88.313 L280.8318,88.362 L280.8548,88.569 L280.7808,88.702 L280.8898,88.915 L281.0668,88.996 L281.0858,89.071 L280.9738,89.202 L280.6888,89.247 C280.5158,89.44 280.4538,89.627 280.3158,89.837 L280.3498,90.039 L280.3298,90.086 L280.1918,90.183 C280.0898,90.46 279.9098,90.601 279.7948,90.867 L279.5128,90.853 L279.3908,90.924 C279.3868,90.968 279.0648,91.833 279.0358,91.887 C278.8668,91.781 278.6688,91.67 278.4848,91.596 C278.1028,91.442 277.9518,91.107 277.5378,91.016 C277.1848,91.154 276.8528,91.266 276.4828,91.361 C276.0578,91.472 275.9548,91.064 275.5028,91.587 C275.0928,91.615 274.6818,91.631 274.2748,91.702 L274.1848,91.637 C274.1088,91.398 273.9278,91.132 273.6488,91.135 C273.4208,91.31 273.4018,91.144 273.2168,91.142 C272.9328,91.14 272.8868,91.144 272.6808,90.916 L272.5258,90.895 C272.2898,90.954 272.1008,91.3 272.0048,91.499 L272.2088,91.73 C272.2478,91.953 272.3818,92.421 272.2038,92.62 L271.8808,92.803 C271.8038,93.08 271.3338,93.253 272.0428,93.836 L272.0678,94.001 C271.7418,94.666 272.2058,94.646 272.2058,95.222 C272.2058,95.456 272.0508,95.66 272.0038,95.888 C272.0268,96.064 272.3658,96.31 272.4928,96.425 L272.5088,96.513 C272.3678,96.539 272.2048,96.755 272.1558,96.875 L271.8968,96.925 C271.7858,96.992 271.6858,97.256 271.6588,97.372 C271.6498,97.431 271.7938,97.588 271.8318,97.625 C271.8658,97.731 271.7998,97.811 271.7358,97.886 C271.3738,98.308 271.2328,98.504 271.0398,98.605 C270.8668,98.695 270.6518,98.707 270.1978,98.736 C270.1108,98.781 270.0498,99.017 270.0678,99.108 L270.2798,99.382 C270.2828,99.419 270.2918,99.462 270.2878,99.5 C270.1668,100.739 269.7228,100.764 270.1718,102.044 C270.2598,102.296 270.4958,102.318 270.5938,102.506 C270.6868,102.684 270.7278,102.856 270.8768,103.006 L271.2988,103.167 L271.3658,103.288 C271.2728,103.408 271.1008,104.259 271.0548,104.449 C270.9818,104.483 270.8118,104.586 270.7798,104.668 C270.7178,104.931 271.1098,105.297 271.0178,105.809 L271.2518,105.828 L271.2978,105.928 C271.2838,105.946 271.2378,106.013 271.2238,106.024 C270.9278,106.226 270.1608,106.848 270.0438,107.244 C270.0008,107.388 270.0048,107.554 269.9638,107.699 L269.6728,108.601 C269.3968,109.462 269.1468,110.332 268.8878,111.2 C268.8828,111.215 268.8548,111.241 268.8438,111.254 C268.8538,111.367 268.6548,111.588 268.6658,111.738 C268.6998,112.24 268.3688,112.594 268.1888,113.046 C268.0288,113.443 267.9338,113.923 267.8138,114.34 C267.7888,114.364 267.7578,114.385 267.7388,114.413 C267.3228,115.043 266.8848,115.792 266.5908,116.493 C266.4968,116.716 266.4828,116.996 266.4038,117.228 C266.2998,117.539 266.1638,117.823 266.0688,118.135 C265.8798,118.761 265.6758,119.386 265.4998,120.016 C265.4588,120.166 265.3888,120.393 265.3688,120.545 C265.3518,120.683 265.3838,120.881 265.3478,121.011 C265.3068,121.159 265.1538,121.353 265.0718,121.497 C265.0918,122.292 264.6778,122.738 264.4708,123.545 L264.4388,123.625 C264.2978,123.974 264.0248,124.455 263.9578,124.815 C263.6958,126.23 263.0368,125.299 262.4168,126.106 L261.9188,126.753 C262.0988,127.726 262.2158,128.657 262.3338,129.643 C262.3708,129.953 262.3608,130.245 262.4308,130.552 L262.4448,130.619 C262.4878,131.18 262.4658,131.75 262.5138,132.308 C262.5468,132.691 262.6498,133.074 262.6918,133.455 C262.8128,134.556 262.8988,135.663 263.0008,136.764 C263.0228,136.994 263.0378,137.223 263.0538,137.454 C263.1588,138.975 263.3028,140.496 263.4968,142.016 C263.4998,142.043 263.5248,142.081 263.5358,142.108 C263.6798,142.452 263.7328,142.802 263.8808,143.138 L264.1128,143.27 C264.0878,143.75 262.8708,147.183 262.5838,147.913 C262.5318,148.043 262.2658,148.334 262.1708,148.435 C262.1668,148.459 262.1508,148.509 262.1538,148.533 C262.2548,149.34 262.2898,149.058 262.5638,149.74 C262.6538,149.965 262.7098,150.236 262.7778,150.469 C262.8528,150.721 262.9838,150.913 263.0318,151.18 C262.8018,151.424 262.8148,151.555 262.6358,151.77 L262.5098,151.812 C262.3308,152.316 261.6838,152.889 261.6258,153.088 C261.3598,154.004 261.0978,154.89 260.7818,155.788 C260.7048,156.009 260.8048,156.487 260.7618,156.75 C260.7228,156.991 259.9938,158.538 259.7928,159.119 C259.3908,160.282 259.4848,160.666 258.5668,161.309 C258.4528,161.519 258.1028,162.957 258.0148,163.294 L257.9818,163.416 C257.8068,164.313 257.3858,165.385 257.3018,166.253 C257.2998,166.276 257.2848,166.301 257.2778,166.323 C257.1238,166.782 256.7728,167.308 256.7408,167.776 C256.7558,167.804 256.7898,167.883 256.8088,167.904 C256.9368,168.042 257.2908,168.371 257.3258,168.56 C257.3588,168.745 257.2398,168.933 257.2258,169.107 C257.1948,169.477 257.2998,171.012 257.1828,171.287 C257.0608,171.575 256.8858,171.771 256.8528,172.088 C256.8408,172.202 256.9278,172.278 256.8408,172.414 C256.5998,172.35 256.2158,172.424 256.0608,172.361 C256.0148,172.27 256.0118,172.106 256.0348,172.009 C255.8808,171.756 255.5728,171.771 255.4638,171.628 C255.4388,171.625 255.3108,171.605 255.2918,171.611 C254.7458,171.791 254.9798,171.687 254.4828,171.6 C254.3008,171.568 253.9698,171.663 253.7908,171.699 C253.6188,171.733 253.3718,171.893 253.1998,171.963 C252.9108,172.08 252.3188,172.151 252.0008,172.211 C251.7368,172.261 251.4768,172.442 251.2128,172.51 C251.0168,172.561 250.7918,172.578 250.5898,172.61 C250.4658,172.629 250.3138,172.695 250.1918,172.733 L249.8378,172.556 C249.2328,172.851 249.2388,172.483 248.9238,172.584 C248.7878,172.709 248.6918,172.759 248.5008,172.797 L248.4678,172.849 C248.5428,173.195 248.5738,173.484 248.3658,173.769 C248.2248,173.853 247.8578,173.849 247.7038,173.835 C247.6918,173.842 247.6558,173.857 247.6498,173.869 C247.3598,174.355 247.0438,175.047 246.7448,175.488 C246.4158,175.973 246.1568,176.38 245.8998,176.907 C245.6808,177.353 245.3978,177.752 245.1548,178.19 C244.8018,178.828 244.4058,179.538 243.9828,180.133 C243.9178,180.224 243.8698,180.298 243.8278,180.4 C244.1498,180.855 244.0888,181.258 243.6778,181.545 C243.5658,181.52 243.3508,181.526 243.2468,181.589 C242.8548,182.269 242.4758,182.924 242.1308,183.626 L242.2768,183.822 C242.4338,184.032 242.2468,184.628 241.9888,184.678 L241.6288,184.667 L241.5668,184.748 C241.5718,184.958 241.5208,185.425 241.4068,185.614 C241.2768,185.83 241.1828,186.071 240.9878,186.235 C240.8628,186.34 240.6718,186.448 240.5638,186.546 C240.4788,186.623 239.2198,187.624 239.1808,187.677 C239.0568,187.711 238.9448,187.727 238.8408,187.802 C238.5948,187.981 238.3348,188.154 238.1178,188.37 C237.9578,188.529 237.1928,189.612 237.1358,189.871 C237.0938,190.066 237.1988,190.406 237.2588,190.622 C237.3268,190.87 237.4248,191.303 237.6878,191.416 C237.8998,191.896 237.7708,191.923 237.7308,192.417 C237.7058,192.717 237.7798,193.037 237.7608,193.337 C237.7278,193.829 237.3878,194.245 237.2458,194.693 C237.1888,194.875 237.2838,195.165 237.2198,195.341 C237.1278,195.596 236.9468,195.876 236.8238,196.12 C236.6688,196.424 236.3448,196.76 236.1368,197.039 L236.1408,197.09 L236.0698,197.151 C236.0378,197.555 235.3108,198.802 235.3288,198.856 C235.5388,199.458 236.1468,199.678 236.2798,200.469 C236.2748,200.506 236.2488,200.616 236.2108,200.635 C236.0858,201.47 235.7488,202.247 235.6418,203.072 C235.6358,203.112 235.3378,203.921 235.3048,204.015 C235.2768,204.09 235.2778,204.239 235.2978,204.317 L235.4408,204.371 L235.4078,204.596 C235.4188,204.671 235.6538,204.929 235.7108,204.997 C235.7508,205.356 234.7258,206.185 234.5278,206.577 C234.5148,206.605 234.4468,206.894 234.4348,206.942 C234.3528,207.259 233.7008,207.53 233.5548,208.109 C233.2828,208.346 233.1998,207.701 232.3348,208.83 C232.2758,208.825 232.1948,208.762 232.1678,208.711 C232.1448,208.421 232.2868,208.122 232.1338,207.851 L231.8968,207.861 C231.7128,207.776 231.0288,206.82 230.7678,206.58 C230.6058,206.431 230.3958,206.345 230.2328,206.218 C229.8948,205.958 229.5938,205.63 229.2658,205.349 C229.1928,205.288 229.1208,205.215 229.0288,205.184 C228.5058,205.594 228.0288,205.984 227.4568,206.318 C227.0108,206.579 226.5438,206.896 226.3088,207.371 C226.1148,207.761 225.8328,208.107 225.6428,208.474 C225.6328,208.494 225.1498,209.442 225.1348,209.457 L224.2008,210.419 C223.5828,211.056 223.6718,210.697 223.5188,211.633 C223.4818,211.859 223.2748,212.076 223.3008,212.3 L223.4398,212.473 C223.5128,212.471 223.7208,212.482 223.7808,212.534 C223.9038,212.706 223.9848,212.902 224.0768,213.091 L224.0538,213.287 C223.7988,213.514 223.5168,214.238 223.5488,214.583 C223.5508,214.613 223.6398,214.844 223.6548,214.89 C223.9198,215.65 224.0868,216.458 224.3038,217.238 C224.3658,217.463 224.4918,217.773 224.5158,218.001 C224.5198,218.044 224.4388,218.417 224.4318,218.494 C224.3958,218.929 224.4568,218.825 224.2228,219.284 C224.1828,219.363 224.2048,219.497 224.1708,219.58 C224.0538,219.863 222.9478,220.572 222.7228,220.729 C222.1068,221.16 222.2768,222.487 222.2348,223.143 L222.2328,223.191 C222.2548,223.376 222.3058,223.642 222.2368,223.823 C222.1818,223.97 222.0638,224.113 221.9958,224.257 C221.9158,224.429 221.9158,224.614 221.8628,224.788 C221.7208,225.263 221.5128,225.724 221.3578,226.196 C221.2738,226.45 221.2158,226.716 221.1268,226.969 C221.0948,227.06 221.0278,227.139 220.9918,227.229 C220.8898,227.493 220.8468,227.791 220.7548,228.061 C220.5678,228.614 220.3578,229.149 220.1928,229.71 C220.1118,229.988 220.2388,230.961 220.3088,231.639 L217.0068,231.272 C217.0068,231.272 217.1018,228.524 217.1018,227.955 C217.1018,227.387 217.9548,225.871 218.5238,225.397 C219.0918,224.923 218.8078,219.239 218.8078,219.239 L217.2908,219.048 L216.3438,217.438 L212.9328,213.837 L210.0898,210.237 L205.1628,208.625 C205.1628,208.625 205.1628,208.152 205.2578,207.678 C205.3528,207.205 205.4468,206.257 205.4468,206.257 L204.3108,196.403 L203.3618,194.507 C203.3618,194.507 203.0778,193.655 203.5518,193.181 C204.0248,192.707 203.9308,191.57 203.9308,191.096 C203.9308,190.622 204.4048,187.78 204.4048,186.927 C204.4048,186.075 205.1628,183.99 205.2578,183.516 C205.3528,183.042 205.3528,182.569 206.1098,182 C206.8678,181.431 205.8258,180.93 205.4468,180.93 L195.4088,180.93 L195.0968,180.957 C195.3848,181.946 194.8678,182.241 195.2808,183.442 C195.5688,184.277 195.5108,184.149 195.4828,184.965 C195.2888,185.254 195.0318,185.868 195.0198,186.122 L184.7908,186.169 L188.9598,189.77 C188.9598,189.77 189.7178,190.338 189.8128,190.717 C189.9068,191.096 189.6228,198.297 189.6228,198.772 C189.6228,199.246 191.9918,202.657 191.9918,202.657 L190.3808,203.604 L181.9478,211.373 C181.9478,211.373 180.9058,213.364 180.7168,213.837 C180.5268,214.311 180.3378,215.163 179.8628,215.542 C179.3898,215.922 172.1888,224.734 172.1888,224.734 L170.3888,226.535 C169.9138,227.008 169.5348,227.103 168.6828,227.103 C167.8298,227.103 161.7658,227.008 161.7658,227.008 L152.9538,219.997 L146.3208,216.585 L139.2138,221.133 L138.6458,226.913 C138.6458,226.913 131.9188,227.198 131.3498,227.198 C130.9698,227.198 130.6328,227.24 130.3368,227.353 C130.1908,227.409 130.0538,227.482 129.9278,227.577 C129.7868,227.683 129.3158,228.171 128.7508,228.783 L128.7428,225.671 L128.7218,218.788 L107.9188,218.788 L107.8998,226.059 Z" id="Stroke-3" stroke="#E75F52" stroke-linecap="round" stroke-linejoin="round"></path>
        </g>
    </g>
</svg>