<?xml version="1.0" encoding="UTF-8"?>
<svg width="216px" height="301px" viewBox="0 0 216 301" version="1.1" xmlns="http://www.w3.org/2000/svg" xmlns:xlink="http://www.w3.org/1999/xlink">
    <!-- Generator: Sketch 64 (93537) - https://sketch.com -->
    <title>288</title>
    <desc>Created with Sketch.</desc>
    <g id="288" stroke="none" stroke-width="1" fill="none" fill-rule="evenodd">
        <g id="Group-4" transform="translate(1.000000, 1.000000)">
            <path d="M67.1772,0.5006 C67.0072,0.5226 66.8892,0.8796 66.5722,0.8346 C66.4182,0.8126 65.9152,2.5256 65.8392,2.7246 C65.6152,3.3066 65.2032,3.8806 64.9642,4.3196 C64.5742,5.0336 64.2532,5.1286 63.8062,5.6306 C63.5092,5.9646 63.1302,6.2146 62.7902,6.5046 C62.7652,6.5256 62.7852,6.5026 62.4942,7.0836 C62.1862,7.6986 61.8532,8.4656 61.6192,8.9736 C61.3132,9.6376 61.2602,10.2476 61.0402,11.0186 C60.8682,11.6196 60.8242,12.4896 60.7442,13.0506 C60.6612,13.6336 60.4632,14.2616 60.3062,14.9406 C60.0262,16.1556 61.1582,15.3016 61.3352,15.3776 C61.4752,15.4376 62.1942,13.4926 62.1972,13.4876 C62.3902,13.0696 62.4172,12.0876 62.4932,11.5976 C62.5642,11.1366 62.7142,10.2976 62.7892,9.8486 C62.9042,9.1586 63.5092,8.7196 63.8052,8.2536 C64.6202,6.9736 64.1892,8.3726 64.6802,8.5366 C64.8512,8.5936 65.8502,9.0146 66.1332,9.1276 C66.9032,9.4356 66.3492,8.1176 66.4162,7.8166 C66.5922,7.0236 66.0252,6.4286 65.8372,5.7716 C65.8332,5.7586 65.8282,5.7576 65.8242,5.7456 C65.8292,5.5006 65.8372,5.2796 65.8372,4.9096 C66.2922,4.5306 66.5132,3.9286 66.8532,3.4436 C67.1292,3.0496 68.0072,2.6466 68.3202,2.4276 C68.7652,2.1166 67.8292,1.4596 67.5872,0.9746 C67.3972,0.5936 67.2782,0.4876 67.1772,0.5006 M69.2602,10.7494292 C68.1452,10.7276 69.1072,12.8386 69.1062,12.8456 C68.9292,13.7326 70.4922,14.9236 70.7532,15.3146 C71.3102,16.1486 71.0142,17.1396 71.1652,18.1956 C71.3222,19.2946 71.1652,20.2636 71.1652,21.0766 C71.1652,22.0486 72.2422,22.0336 73.0172,22.7226 C73.7352,23.3606 74.5842,23.7196 75.2812,24.1626 C76.0162,24.6296 75.5812,26.2606 75.6932,27.0436 C75.8972,28.4686 74.9562,28.5176 74.4582,29.5126 C74.1112,30.2076 72.5582,30.1456 71.9882,30.3356 C71.0982,30.6326 70.1392,31.1886 69.3122,31.5706 C68.3512,32.0136 68.1792,32.8446 67.6652,33.4226 C67.0892,34.0706 68.2142,35.0686 68.4882,35.8916 C68.6912,36.5006 70.6732,35.1636 70.9582,35.0686 C71.7952,34.7896 72.6292,34.0056 73.2222,33.6286 C73.5742,33.4046 74.0452,33.7656 74.4572,33.8346 C75.2832,33.9716 73.4972,35.2066 73.0162,35.8926 C72.3382,36.8616 72.1052,37.3246 71.5752,38.1556 C71.0042,39.0536 72.5542,39.4596 72.8102,39.8016 C73.0782,40.1596 74.6752,39.9706 75.0742,40.0076 C75.7032,40.0646 76.4142,41.3466 76.7212,41.6536 C77.7142,42.6466 76.8522,43.2246 76.9272,44.1226 C76.9902,44.8776 75.4182,43.9856 74.6632,43.9166 C72.3572,43.7066 74.9732,43.7616 73.4282,44.5336 C72.5732,44.9606 74.1142,46.3166 74.4572,47.2086 C75.0512,48.7506 75.3472,47.9996 76.3092,48.8546 C76.5432,49.0626 78.8482,49.6356 78.9852,49.6776 C80.0602,50.0076 80.5862,50.2936 81.6612,50.7066 C82.7322,51.1186 83.3992,51.8646 84.1312,52.3526 C84.9042,52.8676 85.3552,53.8816 85.7782,54.4106 C86.3302,55.0996 86.4462,55.8796 86.8072,56.6736 L87.8362,58.9366 C88.2162,59.7726 88.7492,60.3706 89.2772,61.1996 C89.4362,61.4486 89.6292,61.6806 89.8302,61.9066 C89.5722,61.7786 89.3052,61.6606 89.0972,61.5466 C88.6032,61.2766 88.3602,60.7976 88.0682,60.5046 C87.8332,60.2696 87.6212,59.9256 87.2832,59.4756 C86.8272,58.8666 86.5362,58.4356 86.2542,58.0476 C85.9402,57.6146 85.3092,57.1956 84.9552,56.8776 C84.5632,56.5246 84.0882,56.2796 83.6562,55.9776 C83.3672,55.7756 82.9932,54.9236 82.7552,54.5496 L81.8422,53.1226 C81.5382,52.6446 81.3232,52.6776 80.9412,52.3506 C80.5032,51.9746 79.9142,51.9316 79.6422,51.8226 C78.8572,51.5086 78.8042,51.7536 78.0862,51.6946 C77.4492,51.6416 77.1732,51.8576 76.5292,51.9646 C75.9972,52.0536 75.4322,52.2986 74.8442,52.4786 C74.0822,52.7126 73.7252,52.4046 72.9022,52.3506 C72.1562,52.3006 71.9842,52.0596 71.2172,51.8226 C70.7652,51.6836 70.3812,50.8826 70.1882,50.6656 C69.6122,50.0176 69.9132,50.3466 69.4032,49.7526 C68.8512,49.1086 68.6102,49.4926 67.8472,49.2386 C67.4542,49.1076 66.6782,49.8166 66.2902,50.0106 C65.3862,50.4626 65.9052,50.7286 65.5182,51.4386 C65.3512,51.7456 65.0632,53.1586 65.0032,53.3806 C64.9752,53.4876 64.1342,54.4626 63.9612,54.6796 C63.5542,55.1886 63.7962,55.8516 63.7042,56.4926 C63.6412,56.9306 63.5062,57.7216 63.7042,58.4346 C64.3792,60.8596 63.3332,61.1646 63.3052,61.6756 C62.5412,61.4056 61.3892,60.5696 61.2342,60.3766 C60.9542,60.0266 60.6382,59.5256 60.3342,59.0906 C59.9302,58.5136 58.8742,59.6466 58.6492,59.7336 C58.1622,59.9206 58.4522,61.1266 58.3922,61.5466 C58.3252,62.0126 59.0252,62.8246 59.1642,63.1026 C59.4132,63.6006 59.2492,64.4786 59.2932,65.1726 C59.3422,65.9596 58.8642,66.3856 58.6502,66.9856 C58.4242,67.6176 57.7342,67.6296 57.3512,67.8986 C56.8082,68.2786 56.7952,67.6446 56.1802,67.3716 C56.0682,67.3216 55.4792,66.2026 55.4082,66.0856 L54.6362,64.7866 C54.4502,64.4766 53.8202,63.8706 53.5942,63.6166 C53.1312,63.0956 54.1982,62.2756 54.2372,62.1886 C54.4802,61.6536 55.1902,61.5046 55.6652,61.1596 C56.0632,60.8696 55.0672,60.3776 54.7652,59.9896 C54.3192,59.4166 54.1642,59.0536 53.8522,58.5616 C53.5962,58.1596 53.7662,57.6096 53.7232,57.1346 C53.6572,56.4046 52.8202,56.2446 52.5532,55.9766 C52.2902,55.7136 51.3892,55.8886 50.8682,55.8486 C50.4202,55.8136 49.7782,55.8486 49.1832,55.8486 C48.5102,55.8486 48.2582,55.9886 47.4982,56.1056 C47.1422,56.1606 46.1282,55.5106 45.6842,55.3206 C45.1822,55.3726 44.4502,55.9436 43.8702,56.2336 C43.4652,56.4356 42.8842,56.7706 42.4552,57.0056 C41.6582,57.4406 41.6252,56.9236 41.1562,56.8776 C40.7442,56.8356 40.2302,56.2386 39.8572,55.9776 C39.2922,55.5826 38.9782,55.9776 38.5582,55.9776 C38.0042,55.9776 37.2032,56.3126 37.0012,56.3636 C36.2182,56.5586 35.9532,56.8396 35.5862,57.0066 C35.0932,57.2306 35.0602,57.9586 34.8012,58.4346 C34.7582,58.5126 33.3992,58.6656 33.2442,58.6916 C32.6732,58.7866 32.9582,59.1616 32.6012,59.7336 C32.5122,59.8756 33.3342,60.8446 33.3732,60.9036 C33.9652,61.7906 33.3052,61.5786 33.2442,62.1896 C33.1982,62.6506 32.3072,62.4836 31.9582,62.5886 C31.4312,62.7466 31.1532,62.9056 30.6592,63.1026 C30.0962,63.3276 30.4152,64.0916 30.2732,64.6586 C30.1682,65.0746 30.1622,65.8476 30.1312,66.2146 C30.0772,66.8546 31.0752,66.4686 31.5592,66.6006 C32.2752,66.7956 32.4092,66.6646 33.2442,66.7286 C33.8222,66.7726 34.7332,66.9556 34.9292,66.9856 C35.7092,67.1056 35.8682,67.2706 36.6142,67.4996 C37.4442,67.7556 37.4782,68.0086 38.1702,68.4126 C38.7842,68.7706 38.6592,69.1056 39.0832,69.7116 C39.3922,70.1526 39.4142,70.8156 39.4692,70.9976 C39.6832,71.7086 38.7072,71.2906 38.4272,71.3966 C37.8292,71.6206 37.1652,70.8076 36.7422,70.6126 C36.2392,70.3806 36.3062,69.7406 36.0992,69.3266 C35.5932,68.3156 35.5962,69.3266 35.4562,69.3266 C35.2132,69.3266 35.3302,70.9236 35.3152,71.1396 C35.2752,71.7026 35.1552,72.1906 35.0582,72.8246 C34.9742,73.3706 34.8062,73.9136 34.6722,74.4966 C34.5172,75.1686 34.4392,75.4386 34.2862,76.0526 C34.1392,76.6406 34.1252,77.1946 34.0292,77.8666 C33.9572,78.3706 34.3112,79.0056 34.4152,79.4226 C34.6142,80.2176 34.6712,80.2886 34.8012,80.7216 C34.9992,81.3836 34.7432,81.3146 34.6722,82.0206 C34.6302,82.4386 33.6912,82.8666 33.6302,82.9206 C33.1722,83.3206 32.7622,83.8016 32.4722,84.0906 C32.0852,84.4776 31.7302,85.4386 31.6872,85.5176 C31.3362,86.1606 31.3352,86.8226 31.3012,86.9456 C31.1502,87.4996 31.0452,88.0636 30.9152,88.6306 C30.7922,89.1626 30.7152,90.0446 30.6582,90.4436 C30.5662,91.0856 30.1972,91.4286 30.0022,91.8586 C29.5882,92.7676 29.9412,92.1456 29.7452,93.0286 C29.5622,93.8536 29.7452,93.5626 29.7452,94.3276 C29.7452,94.9626 29.4262,94.5096 28.8452,94.8416 C28.6032,94.9796 27.9132,94.6746 27.4172,94.5846 C27.1002,94.5266 26.3632,94.2376 25.8612,94.0706 C25.2022,93.8506 24.9102,93.9926 24.3052,93.9416 C23.4592,93.8716 23.2762,93.9416 22.7482,93.9416 C21.5952,93.9416 22.8302,94.5906 22.8772,94.9706 C22.9302,95.3946 23.4882,95.5816 23.7902,95.8836 C24.2932,96.3866 23.4312,96.8826 23.2752,97.3116 C23.0702,97.8746 22.7192,98.2556 22.3622,98.8676 C22.0722,99.3646 22.3622,99.6206 22.3622,100.2816 C22.3622,100.7816 23.2102,100.9436 23.5332,101.1946 C24.1352,101.6626 24.8222,101.0966 25.2182,101.0666 C25.5632,101.0396 26.3422,100.4406 26.6332,100.2816 C27.3092,99.9126 27.6332,101.2816 27.6752,101.3236 C27.8012,101.4496 27.5892,101.6656 27.5472,101.8376 C27.5272,101.9176 27.5592,101.8126 27.4182,102.0946 C27.2342,102.4626 27.6112,102.7506 27.8042,103.3936 C27.9732,103.9566 28.3072,104.3856 28.4602,104.6926 C28.6952,105.1616 29.4632,105.2396 29.8752,105.4646 C29.8832,105.4696 29.8922,105.4736 29.9012,105.4776 L29.9012,105.9536 C29.8662,106.2386 29.7452,107.1256 29.6952,107.4966 C29.6312,107.9746 29.5482,108.5226 29.4892,108.9366 C29.4092,109.4946 29.1812,109.7366 28.9742,110.2736 C28.8112,110.6986 28.1402,110.8046 27.8422,110.9936 C27.5142,111.2026 27.1432,111.0566 26.7102,111.0966 C26.2532,111.1386 25.8612,111.5916 25.4752,111.8166 C25.0462,112.0666 24.8682,112.4906 24.5492,112.8456 C24.2092,113.2236 24.0342,113.6546 23.8292,113.9776 C23.5212,114.4616 23.2142,114.7286 22.9032,115.1096 C22.6652,115.4006 21.8662,115.4286 21.5652,115.5216 C21.0012,115.6946 21.1532,115.7506 20.6392,116.0356 C20.4112,116.1616 21.4972,116.9886 21.5652,117.0646 C21.8592,117.3916 22.0632,117.7046 22.2852,117.9906 C22.5682,118.3536 22.2132,118.8566 22.1822,119.2256 C22.1482,119.6316 21.8812,120.1276 21.7702,120.4606 C21.6042,120.9586 21.2402,121.2556 20.9472,121.6956 C20.7252,122.0276 20.4862,122.4326 20.4322,122.5186 C20.1852,122.9136 19.3212,122.6896 19.0942,122.7246 C19.0132,122.7366 18.2512,122.0506 18.0652,121.9016 C17.5062,121.4536 17.1432,122.1146 16.7272,122.2106 C16.4582,122.2726 15.9232,123.1036 15.8012,123.2396 C15.3172,123.7776 15.0162,123.4356 14.5662,123.5486 C14.1862,123.6436 13.8112,123.3426 13.4342,123.2396 C12.8372,123.0766 12.9522,124.3006 12.9192,124.3716 C12.6232,125.0226 12.4042,125.1066 12.1992,125.4006 C11.9722,125.7256 11.0262,124.9496 10.8612,124.8866 C10.4502,124.7286 10.2172,124.0016 10.0382,123.7546 C9.7192,123.3156 9.4632,123.3516 9.0092,123.0346 C8.6342,122.7716 7.9422,122.6236 7.6712,122.5206 C7.0052,122.2636 7.1522,123.1876 6.9512,123.4466 C6.8162,123.6206 6.5322,123.9246 6.2312,124.2696 C5.8542,124.6996 5.1392,124.3416 4.6872,124.3726 C4.3782,124.3926 4.1302,124.3726 3.5552,124.3726 C2.9952,124.3726 2.8472,124.6086 2.3202,124.7846 C1.9292,124.9146 2.4152,126.0176 2.4232,126.1216 C2.4452,126.4096 3.1042,126.9726 3.2462,127.1506 C3.5542,127.5346 3.7632,127.8896 3.9662,128.1796 C4.2042,128.5196 4.4882,128.7006 4.7892,129.0026 C5.1412,129.3546 5.0822,129.9546 5.2012,130.3396 C5.4342,131.0966 5.0122,131.1576 4.8922,131.6766 C4.7692,132.2116 4.6932,132.7396 4.5832,133.3226 C4.5022,133.7546 4.8882,134.1606 4.9952,134.4546 C5.2232,135.0806 5.5722,135.0956 5.9212,135.4836 C6.2422,135.8406 6.7362,135.7546 7.1562,135.8946 C7.8822,136.1366 7.5382,136.3236 7.9792,136.8206 C8.3072,137.1886 7.5992,137.9596 7.5672,138.0556 C7.4252,138.4806 7.1812,138.9566 6.9502,139.4956 C6.7342,139.9996 6.9502,139.9136 6.9502,140.5246 L6.9502,141.7596 C6.9502,142.4066 6.5702,142.3296 6.3332,142.6856 C6.1232,142.9996 5.9352,143.1406 5.6132,143.5086 C5.2992,143.8666 4.9672,144.1546 4.6872,144.4346 C4.4552,144.6666 4.1832,145.0826 3.9672,145.3606 L3.2472,146.2866 C2.6852,147.0096 3.5882,147.1386 3.6592,147.3156 C3.7892,147.6406 4.3452,147.4526 4.6882,147.5216 C5.1662,147.6166 5.1082,148.2906 5.3052,148.6536 C5.5472,149.0956 5.3582,149.2376 5.4082,149.7856 C5.4402,150.1316 4.8932,150.8156 4.7912,151.0206 C4.5612,151.4806 4.2752,151.6656 3.9682,152.0496 C3.6472,152.4506 3.1142,152.1146 2.6302,152.1526 C2.3562,152.1736 1.7712,152.1526 1.2922,152.1526 C0.5992,152.1526 0.8252,152.8856 0.5722,153.2846 C0.2742,153.7536 0.9912,154.3746 1.0872,154.6216 C1.2572,155.0626 1.7262,155.5446 2.0132,155.9586 C2.3212,156.4026 2.2382,157.0056 2.3222,157.3986 L2.6312,158.8386 C2.8012,159.6326 2.3682,159.3656 2.1162,159.8676 C2.0182,160.0636 1.6362,160.2796 1.3962,160.4846 C1.1422,160.7026 1.4742,161.5776 1.4992,161.9246 C1.5442,162.5486 1.7692,162.8036 1.9112,163.2616 C2.0422,163.6876 2.4912,163.6246 2.7342,163.7756 C3.0592,163.9806 3.1162,164.6166 3.2492,164.9076 C3.3682,165.1696 3.4142,165.9806 3.4552,166.2446 C3.5502,166.8596 3.6422,167.1186 3.7642,167.6856 C3.9042,168.3346 4.3692,168.0216 4.6902,168.1986 C5.1062,168.4296 5.4572,168.6586 5.7192,168.8156 C5.9222,168.9376 5.6262,170.2106 5.6162,170.3586 C5.6012,170.5886 4.9182,170.9696 4.7932,171.0786 C4.2932,171.5166 4.6002,171.8526 4.4842,172.3136 C4.4302,172.5296 4.7282,173.2876 4.7932,173.5486 C5.0202,174.4556 5.2942,173.9786 5.5132,174.1656 C5.8652,174.4676 6.7102,173.8906 6.8512,173.8566 C7.4642,173.7156 7.6592,174.2246 7.9832,174.3706 C8.3442,174.5356 8.1302,175.3216 8.1892,175.7076 C8.2422,176.0506 7.9082,176.8306 7.8802,176.9426 C7.8182,177.1916 7.9682,177.9076 7.9832,178.0746 C8.0212,178.4896 8.3452,178.7976 8.4982,179.1046 C8.7042,179.5156 9.0082,179.8326 9.2182,180.1326 C9.3242,180.2836 9.4412,180.4846 9.6302,180.6086 C9.5692,180.5856 9.5202,180.5656 9.4242,180.5436 C8.6922,180.3806 9.2532,180.6086 8.6012,180.8536 C8.1822,181.0096 8.1212,181.6076 7.8812,181.9846 C7.6752,182.3096 7.1262,181.8486 6.7492,181.7786 C6.3102,181.6996 6.6772,181.8086 6.2342,181.9846 C5.8002,182.1586 5.9632,182.3926 5.6172,182.9106 C5.4812,183.1156 5.2542,183.5636 5.1022,183.8366 C4.8832,184.2316 4.4712,184.3276 4.1762,184.5576 C3.6692,184.9516 3.8292,185.3086 3.5592,185.8946 C3.3062,186.4426 3.1082,186.4576 2.7362,186.9226 C2.6612,187.0166 1.8952,187.4836 1.8102,187.5396 C1.5292,187.7286 2.1992,188.7066 2.2222,188.7746 C2.3622,189.1926 1.8952,189.6736 1.8102,189.9066 C1.6392,190.3776 1.5522,190.8116 1.3982,191.3476 C1.2232,191.9576 1.4772,192.2936 1.5012,192.5816 C1.5492,193.1576 1.7972,193.4716 1.9132,193.8166 C2.0152,194.1236 2.4622,194.1596 2.7362,194.3306 C3.2852,194.6736 3.0692,194.6216 3.5592,195.0506 C3.8192,195.2776 3.6282,195.7366 3.6622,196.0796 C3.6952,196.4056 4.5142,196.8476 4.6912,197.0056 C5.1032,197.3756 5.0562,197.6136 5.3082,198.0346 C5.5292,198.4036 5.7202,198.6516 5.9252,198.9606 C6.1962,199.3666 6.7932,199.3946 7.1602,199.5776 C7.5192,199.7566 8.3082,199.7306 8.7042,199.7836 C8.8792,199.8076 9.2452,200.7746 9.3212,200.9156 C9.5312,201.3006 9.3932,201.9966 9.4242,202.4586 C9.4592,202.9836 9.4242,203.5466 9.4242,203.8986 C9.4242,204.1676 8.9302,204.7236 8.8072,204.9276 C8.5732,205.3186 8.1602,205.6466 7.8812,205.9566 C7.5182,206.3596 7.4092,206.7436 7.2642,206.9856 C7.0652,207.3176 7.4072,207.8416 7.4702,208.2216 C7.5722,208.8286 7.6132,208.6496 7.7792,209.1466 C7.8452,209.3456 8.7112,209.5336 9.0142,209.6606 L9.3742,209.8146 C8.8412,209.6836 8.2712,209.6216 7.6252,209.4926 C6.8592,209.3396 6.8702,209.7626 6.0172,210.0716 C5.0612,210.4186 5.6142,210.9396 5.1422,211.9616 C4.9002,212.4876 6.2622,212.9616 6.4542,213.1316 C6.7752,213.4166 8.4252,213.2586 8.6412,213.2736 C9.6222,213.3386 9.6712,213.9306 10.2362,214.2896 C10.6842,214.5746 10.2362,216.1196 10.2362,216.3216 C10.2362,217.1956 10.3502,217.6846 10.3902,218.2116 C10.4322,218.7616 11.1732,219.1036 11.5482,219.5226 C12.0462,220.0826 12.4162,220.6816 12.8602,221.2716 C13.2932,221.8506 13.4972,222.7496 13.7352,223.3046 C13.9782,223.8706 14.2462,224.4516 14.4552,224.9106 C14.9162,225.9256 15.7112,224.8016 16.0632,224.7696 C16.5822,224.7226 17.0322,223.3026 17.2212,223.0206 C17.8592,222.0636 17.9482,222.9526 18.6872,222.8776 C18.8282,222.8636 19.4392,224.5306 19.5492,224.7686 C19.7892,225.2866 20.0432,226.3396 20.1412,226.6576 C20.4352,227.6136 21.0402,226.5356 21.2992,226.5036 C21.8202,226.4386 21.8832,225.6416 22.1742,225.2046 C22.5162,224.6906 23.0502,226.0666 23.4862,226.5036 C24.0472,227.0646 24.4082,226.9326 25.0812,227.2366 C25.8612,227.5916 26.8722,227.5156 27.3582,227.3536 C28.0422,227.1246 28.0312,226.4276 28.2842,226.0666 C28.5402,225.6996 27.6612,224.3296 27.5642,223.8936 C27.5312,223.7456 27.5782,223.8386 27.7062,223.4556 L27.7442,223.5326 C27.7292,223.4906 27.7252,223.4566 27.7182,223.4166 L27.8602,223.4166 C27.8562,223.4356 27.8512,223.4496 27.8472,223.4676 C27.8352,223.5266 27.8232,223.5866 27.8212,223.6476 L27.7442,223.5316 C27.7632,223.5846 27.7882,223.6426 27.8212,223.6986 C27.8262,224.1086 28.0522,224.5576 28.3612,224.9846 C28.4262,225.0736 28.4742,225.1276 28.5292,225.1906 C28.6812,225.4296 28.8522,225.6096 29.0182,225.6276 L28.9922,225.5766 C29.0832,225.6366 29.1762,225.7096 29.2882,225.8096 C29.5642,226.0546 30.2822,226.1406 30.5232,226.2206 C31.0092,226.3816 30.8942,226.8376 31.1402,227.2486 C31.3012,227.5166 31.4182,228.0126 31.5522,228.3806 C31.7242,228.8536 32.0652,229.1876 32.2722,229.5136 C32.4942,229.8616 32.9132,229.9616 33.3012,230.2326 C33.7982,230.5796 34.2172,230.6136 34.5362,230.7466 C34.8492,230.8766 35.4772,231.0286 35.5652,231.0566 C35.9502,231.1716 36.8272,231.0566 37.0062,231.0566 C37.4642,231.0566 38.0562,231.1946 38.5502,231.2626 C38.7032,231.2816 39.5252,230.5536 39.6822,230.4386 C40.2212,230.0456 40.7242,230.1416 41.1232,230.0266 C41.7532,229.8476 41.8802,230.3016 42.2552,230.4386 C42.5912,230.5616 43.0162,230.9716 43.2842,231.1586 C43.5812,231.3666 44.0782,231.5906 44.4162,231.7756 C44.8662,232.0216 45.0782,232.1726 45.4452,232.3936 C45.9792,232.7126 46.0202,232.4966 46.5772,232.5996 C47.1232,232.6976 47.3792,233.0356 47.7092,233.2156 C48.1242,233.4416 48.2172,233.8506 48.5322,234.2446 C48.8152,234.5986 49.2272,234.7626 49.6002,234.8886 L49.6002,235.2236 L50.0762,235.2236 C49.8972,235.4666 49.6912,235.7606 49.5492,235.9556 C49.0592,236.6296 48.9732,236.8586 48.5332,237.5506 C48.1942,238.0836 48.2482,238.7826 48.0962,239.4406 C48.0182,239.7776 47.8982,240.6016 47.8002,241.1896 C47.6382,242.1616 47.1582,242.2966 46.7842,242.9386 C46.5342,243.3666 45.5282,243.2306 44.8932,243.3756 C44.1402,243.5496 43.9472,244.0366 43.4392,244.3926 C42.8992,244.7706 42.4092,245.6426 42.1272,245.9866 C41.8252,246.3556 40.9472,246.9586 40.5322,247.2976 C40.0642,247.6826 39.9752,248.2216 39.6572,248.7506 C39.3252,249.3046 39.1302,249.8046 38.7822,250.4996 C38.4462,251.1716 38.5142,251.7426 38.3442,252.5316 C38.1712,253.3376 37.8482,253.5246 37.4692,254.2806 L36.5942,256.0296 C36.2312,256.7556 36.1742,257.0586 35.8742,257.7786 C35.8482,257.8396 35.7382,259.5616 35.7202,259.8116 C35.6852,260.3086 34.8462,261.4376 34.7042,261.7006 C34.3402,262.3776 34.3252,262.6536 34.1252,263.1536 C34.0062,263.4506 33.5592,264.1656 33.3922,264.4656 C33.0022,265.1676 32.9532,265.4546 32.6722,266.0726 C32.3452,266.7926 32.3392,267.6146 32.2352,268.1046 C32.0702,268.8746 32.1342,269.2956 32.0812,269.9946 C32.0232,270.7416 32.0812,271.1186 32.0812,271.7436 C32.0812,272.6896 31.7772,273.0116 31.6562,273.4926 C31.4822,274.1896 31.2562,274.3616 31.0642,274.7916 C30.9152,275.1256 29.9352,275.2186 29.9062,275.2296 C29.2922,275.4586 29.6322,275.5536 29.1732,276.1036 C28.7602,276.5996 29.1732,277.9666 29.1732,278.4316 C29.1732,279.2236 29.4662,279.8936 29.6112,280.6166 C29.7432,281.2786 29.9712,282.2866 30.0482,282.6486 C30.2402,283.5466 30.8942,283.3576 30.9232,283.3826 C31.1842,283.6006 32.4372,282.9676 32.5182,282.9446 C32.7052,282.8946 32.9162,282.9446 33.1102,282.9446 L33.2512,282.9446 C34.0082,282.9446 33.8792,284.1006 34.1262,284.5526 C34.4322,285.1126 34.4402,285.9066 34.5642,286.4416 C34.8592,287.7186 35.0612,286.6566 35.5802,286.8786 C36.0122,287.0636 36.9892,285.5816 37.1752,285.4126 C37.7872,284.8566 38.7562,285.7036 38.7832,285.7086 C39.3262,285.8076 40.1392,285.9076 40.8152,286.0046 C41.2232,286.0626 42.0422,286.0046 42.7062,286.0046 C43.5182,286.0046 43.6932,285.0186 44.1592,284.5526 C44.7932,283.9186 45.1182,283.6966 45.6262,283.2406 C45.7052,283.1686 46.9982,283.9196 47.0792,283.9606 C47.7052,284.2736 47.8222,284.8076 48.2372,285.2716 C48.7522,285.8526 49.0512,285.9006 49.5492,286.2876 C49.9242,286.5786 51.4632,286.2876 51.5822,286.2876 L53.6272,286.2876 C54.1802,286.2876 53.3352,285.2276 53.1902,284.6926 C53.0232,284.0826 51.9302,284.6006 51.2992,284.5516 C50.9762,284.5256 50.5532,283.4336 50.4242,283.2396 C50.2212,282.9376 50.8302,282.2196 51.0032,281.7866 C51.1622,281.3896 52.0622,280.8416 52.3152,280.6166 C52.8012,280.1856 53.0152,279.6156 53.3312,279.1636 C53.7082,278.6246 54.1022,278.3006 54.5012,277.8526 C55.1242,277.1516 55.2332,278.0726 55.9552,278.2886 C56.2352,278.3726 57.1892,278.9796 57.2672,279.0216 C57.9032,279.3746 58.8192,279.1216 59.4412,279.1636 C60.0742,279.2056 60.4732,280.0586 60.6122,280.1806 C60.8512,280.3896 59.8402,281.6006 59.7372,281.7876 C59.3072,282.5756 59.1612,282.4426 58.7212,282.9446 C58.1312,283.6196 59.0942,283.6906 59.1592,283.8186 C59.4212,284.3436 60.2202,283.3276 60.7542,283.0856 C61.6292,282.6876 61.1522,282.3916 61.4872,281.7866 C62.1702,280.5586 62.0682,281.6366 62.6452,281.4906 C63.3302,281.3196 64.0112,281.8756 64.6902,282.0696 C65.0232,282.1646 66.2782,281.3346 66.5812,281.1956 C67.3892,280.8226 67.6462,281.1956 68.3302,281.1956 C68.8972,281.1956 69.4132,282.4086 69.6292,282.6486 C70.0742,283.1446 70.5752,283.5956 70.9412,283.9606 C71.8732,284.8936 71.3702,283.5316 71.5202,283.3816 C71.6962,283.2056 70.6972,282.3186 70.5042,282.0696 C70.0322,281.4626 69.5852,281.4296 69.0512,281.0546 C68.4652,280.6446 68.0122,280.3926 67.4562,280.0376 C66.8412,279.6466 66.6952,279.3946 66.4272,279.1636 C65.3032,278.2006 67.0012,278.2476 67.1602,277.9936 C67.3642,277.6676 68.8092,279.0156 69.0512,279.1636 C69.7162,279.5726 70.0362,280.2436 70.5042,280.7596 C70.8812,281.1736 71.5572,281.5066 71.9572,281.7876 C72.4642,282.1436 73.0462,282.5666 73.5652,282.9446 C73.8892,283.1806 74.3342,282.7456 74.7232,282.6486 C75.4592,282.4646 76.0382,283.3636 76.3312,283.5226 C76.7242,283.7366 77.0082,284.1066 77.3472,284.3966 C77.3712,284.4176 78.8982,284.1666 79.2382,284.1136 C79.6532,284.0506 80.4582,284.8356 80.6912,284.9766 C81.1492,285.2506 81.5362,286.1356 81.8622,286.5826 C82.3782,287.2926 83.1062,287.3426 83.7532,287.7396 C84.1192,287.9666 85.2832,287.6356 85.7852,287.5996 C86.6062,287.5396 86.8422,286.8596 87.2382,286.5826 C87.5442,286.3686 87.7092,286.1216 87.8692,285.8506 C87.8702,285.8486 87.8812,285.8526 87.8822,285.8506 L88.2812,285.8506 C88.0912,286.4256 87.9002,287.0436 87.8432,287.1226 C87.3192,287.8556 87.8012,286.9556 88.2552,288.7696 C88.4612,289.5926 89.9022,289.1816 90.7252,289.3866 C91.7552,289.6446 91.7602,290.4206 92.3722,291.0316 C92.8962,291.5556 93.5712,291.9316 94.0192,292.2676 C94.4382,292.5816 94.0192,293.5606 94.0192,294.5296 C94.4182,294.5296 96.2562,294.5776 97.1062,294.9406 C98.2452,295.1476 96.9332,296.6716 96.9002,296.9986 C96.8112,297.8916 96.9002,298.5686 96.9002,299.2626 C96.9002,299.8116 97.9982,299.2626 98.5472,299.2626 C98.6112,299.2626 99.7532,297.5406 99.9882,297.2036 C100.6162,296.3086 101.4012,295.7916 102.0462,295.1466 L102.4582,294.7346 C102.5672,294.6256 102.3942,294.6706 101.6352,293.9116 C100.4732,292.7496 101.2602,292.6916 100.8122,291.2366 C100.6362,290.6646 101.5972,289.3546 101.8412,288.7686 C102.2142,287.8726 102.8162,287.0986 103.2822,286.2996 C103.6282,285.7066 104.1052,287.3966 104.5172,287.9446 C104.9602,288.5356 105.0662,289.3166 105.3402,290.0026 C105.6382,290.7486 106.8492,289.4536 107.6042,289.1806 C107.9332,289.0616 108.2902,289.3166 108.6332,289.3866 C108.8532,289.4306 110.8552,289.2006 111.1032,289.1806 C111.9002,289.1136 112.4742,290.0026 113.1612,290.4136 C113.3142,290.5066 114.4982,291.0086 115.0122,291.2366 C115.7762,291.5756 115.2882,292.8836 115.4252,293.7056 C115.5382,294.3806 116.8002,295.0806 117.2772,295.5586 C117.9902,296.2706 118.6522,295.0596 119.5412,294.7346 C121.4202,294.0526 120.2062,294.8026 121.5982,294.9406 C122.5402,295.0346 122.8622,294.4366 123.6572,294.1176 C124.7132,293.6956 125.0072,293.2606 125.9212,292.6786 C127.0192,291.9796 127.2622,292.1616 128.5962,291.6486 C129.6132,291.2586 131.1532,291.4316 131.8502,291.4946 C132.5462,290.9896 133.8602,290.2196 134.5652,289.5926 C134.6462,289.5206 135.7312,288.0936 136.4172,287.9456 C137.3382,287.7486 138.5742,287.4006 139.2982,287.3286 C140.0842,287.2496 139.8572,286.9366 141.3562,287.1226 C142.2402,287.2336 143.8562,287.6556 144.6492,287.5336 C145.5012,287.4026 146.8892,287.8476 147.3252,287.1226 C147.5732,286.7106 147.9422,285.4936 148.5602,285.0646 C148.7572,284.9296 150.4212,282.1656 151.2362,283.2126 C151.8452,283.9976 151.4432,284.6166 152.6762,285.0646 C153.8232,285.4806 154.0552,285.4046 154.9412,285.8886 C155.2182,286.0386 156.0732,288.0486 157.2052,287.1226 C157.9602,286.5056 158.5442,284.9626 159.4682,285.2716 C160.0862,285.4776 160.6942,286.0606 161.3212,285.8886 C162.0762,285.6826 163.3952,284.5126 163.5852,285.2716 C163.7592,285.9666 164.3092,285.3536 163.9972,286.9166 C163.8602,287.6036 162.9362,288.7146 163.5852,288.9756 C163.6602,289.0046 165.2952,289.2186 165.6432,289.7986 C165.9652,290.3346 166.1982,291.4016 166.8782,291.8556 C167.2962,292.1356 167.7602,294.0616 168.7302,293.0916 C169.4432,292.3786 170.1012,292.5556 170.1712,291.6506 C170.2532,290.5856 170.3322,289.6076 170.3772,288.9766 C170.4192,288.3936 170.8802,286.2736 170.5832,286.0956 C170.5062,286.0496 168.7022,285.1136 168.5252,284.8596 C168.3802,284.6526 166.2552,283.9866 167.0842,282.8026 C167.3202,282.4646 168.4402,281.0846 168.5252,280.7436 C168.6962,280.0616 170.1152,278.3896 169.3472,277.4516 C168.6242,276.5666 169.1162,275.4586 167.4962,275.1886 C167.0882,275.1206 165.0922,274.9586 165.0262,274.7766 C164.7512,274.0226 164.6632,273.1706 164.2032,272.5146 C163.7222,271.8276 162.4402,271.2296 162.7612,270.4556 C163.3152,269.1286 162.9862,269.0216 163.7912,267.9866 C163.8972,267.8516 165.0932,266.2036 165.2322,266.1356 C166.0612,265.7216 165.9292,265.1926 166.8792,265.3126 C167.8112,265.4296 168.3352,265.9366 168.5262,265.5186 C168.9212,264.6486 168.7952,263.8626 169.5542,263.2546 C170.2062,262.7346 170.7722,261.7386 171.6132,261.6086 C172.5642,261.4616 173.5692,261.6556 174.2892,261.1966 C175.4322,260.4696 175.8552,260.7526 176.5522,259.7576 C177.1942,258.8436 177.4802,258.5556 177.9942,257.6986 C178.4862,256.8796 179.0022,257.1166 179.2292,255.6416 C179.3792,254.6696 179.3312,253.4816 179.6402,252.9666 C179.9082,252.5216 180.1592,250.9076 180.8762,250.9076 C181.0052,250.9076 182.6912,250.9636 182.9332,250.9076 C183.5572,250.7646 185.4112,250.8876 185.6102,250.2906 C185.8732,249.5006 186.6282,249.0866 186.4322,247.8216 C186.2632,246.7226 186.2272,246.0376 186.0212,245.1466 C185.8622,244.4546 185.6632,243.4236 185.4042,242.4726 C184.9872,240.9396 186.3042,240.7916 184.7872,240.2086 C183.7572,239.8136 182.9022,239.5746 182.1112,239.1806 C181.4492,238.8496 180.3322,238.3486 179.6402,237.9446 C179.0462,237.5986 177.4122,237.3456 177.1712,236.5046 C176.8862,235.5106 177.0452,234.4946 176.3472,233.6236 C175.6282,232.7246 175.9362,231.9186 174.7012,231.5656 C173.8142,231.3126 172.4952,231.4176 171.8202,230.7426 C171.1812,230.1056 170.3742,229.7836 169.9682,228.8916 C169.6632,228.2206 169.5172,227.3346 168.9392,226.6276 C168.3192,225.8696 167.9092,225.2696 167.0872,224.3646 C166.7042,223.9426 165.8742,222.0306 165.0292,222.1016 C164.8712,222.1146 162.8482,222.5006 162.5582,222.3076 C161.9462,221.8976 160.5582,221.5216 160.0892,220.6606 C159.6922,219.9346 159.5352,219.5636 158.8542,218.3976 C158.4012,217.6216 157.9462,216.7656 157.4132,215.9296 C156.9932,215.2696 156.2422,214.4746 155.9712,213.6656 C155.7412,212.9736 155.6452,212.0026 155.1492,211.1966 C154.6532,210.3916 153.9282,209.5186 153.5022,208.5216 C153.2802,208.0036 152.0802,206.1556 152.2662,205.6416 C152.5062,204.9826 152.6912,204.2426 153.0902,203.3776 C153.1942,203.1536 154.4952,201.0096 154.3252,200.7026 C154.1032,200.3046 153.7312,199.5336 153.2962,198.8516 C152.6932,197.9036 152.7162,197.4476 151.8552,196.5866 C150.9672,195.6986 150.5472,195.3546 149.7972,194.5286 C149.2642,193.9436 148.2792,192.9596 147.7392,192.2666 C147.3632,191.7826 146.2982,191.0646 146.2982,190.4136 C146.2982,190.2696 146.6142,188.6476 146.2982,188.1506 C145.8872,187.5066 145.7092,186.6256 144.8572,185.8886 C144.8052,185.8446 144.7562,185.7846 144.7032,185.7336 L144.7032,185.1046 C145.5492,185.7946 146.0492,186.2136 146.2982,186.7106 C146.9012,187.9176 147.7182,186.9696 148.5622,187.1226 L150.8262,187.5346 C151.5932,187.6736 152.5042,186.0106 153.0902,185.4776 C153.6962,184.9276 154.2182,184.3496 154.7372,183.8306 C155.5112,183.0576 156.2142,182.6226 157.0012,181.9796 C157.9162,181.2306 158.3912,181.0946 159.2642,180.5386 C160.4852,179.7646 160.9162,180.3036 162.1462,180.1266 C163.0042,180.0046 164.1462,180.4596 164.6162,180.5386 C166.0772,180.7826 166.1532,179.7006 166.8802,179.3046 C167.2472,179.1046 168.2182,178.2626 168.7322,177.8636 C169.6492,177.1506 169.9522,176.7676 170.7902,176.0126 C171.7292,175.1676 171.9422,174.8606 172.4372,174.3656 C173.2292,173.5736 173.7602,173.7036 174.4952,173.3366 C175.2902,172.9396 175.8992,172.6996 176.7592,172.3086 C176.8502,172.2666 178.6582,171.7386 178.8172,171.6906 C179.5512,171.4716 179.5032,170.3186 179.8452,169.6326 C180.0922,169.1416 182.1762,169.1346 182.7272,169.0166 C183.8042,168.7846 184.5522,168.3136 185.4032,167.9866 C185.9462,167.7786 187.3292,167.5056 187.8732,167.3696 C189.1512,167.0506 188.7392,166.6966 189.7242,165.9306 C190.6292,165.2286 190.8542,165.1786 191.5772,164.6946 C191.9072,164.4756 194.4262,164.6946 194.6642,164.6946 C195.2622,164.6946 196.4892,163.0536 196.7212,162.8426 C197.0692,162.5306 198.5662,161.6706 198.9862,161.4026 C199.9462,160.7916 198.9862,160.0126 198.9862,159.3456 C198.9862,158.4856 198.1632,157.8356 197.7512,157.0816 C197.3032,156.2636 199.5352,156.5326 200.4262,156.2586 C201.0772,156.0596 202.2612,156.7176 202.8972,156.8756 C204.3062,157.2286 203.7582,157.3546 204.7492,157.9036 C205.5312,158.3386 204.8852,159.6876 204.9552,160.5786 C204.9852,160.9746 206.7242,161.0216 207.4252,161.1956 C207.7812,161.2846 206.7872,162.9486 206.6022,163.4586 C206.2712,164.3676 208.3802,164.9126 208.8662,165.3116 C209.9262,166.1786 210.4952,164.8226 210.9242,164.6936 C211.6202,164.4856 211.9152,162.7116 212.1592,162.2256 C212.6602,161.2256 212.7102,160.2976 212.9822,159.3446 C213.1992,158.5876 213.4282,157.5586 213.5982,156.8746 C213.8402,155.9096 213.5982,155.4816 213.5982,154.1996 L213.5982,151.1136 C213.5982,150.3766 214.1542,149.4486 214.4222,148.6456 C214.7602,147.6296 213.9832,146.4496 213.8042,145.5586 C213.6982,145.0226 212.8552,143.8166 212.5702,143.2956 C212.1312,142.4906 213.2502,141.9366 213.5982,141.2376 C213.6222,140.0116 212.5432,139.2516 211.7472,137.9456 C211.4672,137.6046 209.3032,137.5696 209.0712,137.5346 C208.3792,137.4276 207.7502,137.2646 207.1542,137.1096 L207.1542,136.1466 C207.9372,136.2046 207.5482,135.8466 208.0412,135.6826 C208.1702,135.6396 208.4202,133.4096 208.4532,133.2136 C208.5942,132.3636 207.0382,131.9556 206.6002,131.5676 C205.7632,130.8236 206.3362,130.8596 205.9842,129.9216 C205.4932,128.6126 204.9772,128.6626 204.3372,127.8636 C203.4882,126.8026 204.1782,126.5976 204.1312,126.2176 C204.0992,125.9706 205.2192,124.4036 205.3662,124.1596 C205.8722,123.3156 205.6542,122.1416 205.7782,121.2786 C205.8592,120.7096 206.3862,119.4526 206.6002,118.8096 C206.7592,118.3346 206.2942,116.6566 206.1892,115.9286 C206.1352,115.5586 206.3302,113.9526 206.3952,113.0476 C206.5012,111.5666 206.2812,111.6846 206.1892,110.5786 C206.1682,110.3196 203.9982,109.3836 203.9252,109.3436 C203.4662,109.0926 203.1172,107.5656 202.8962,107.0806 C202.3832,105.9506 202.5022,105.2436 202.2792,104.1996 C202.1442,103.5696 203.3062,102.6576 203.5132,102.3476 C204.0582,101.5296 203.7912,100.4076 203.9262,99.4666 C204.0232,98.7926 202.6002,97.6466 202.2792,97.2036 C201.6402,96.3266 200.8872,95.9516 200.2202,95.3526 C199.3462,94.5656 199.1672,93.9016 198.5742,93.0886 C198.0432,92.3596 196.7242,92.0936 195.8982,91.6486 C194.9682,91.1486 194.2542,90.2786 193.4272,89.5906 C192.5832,88.8866 192.2422,88.9316 191.5762,88.5626 C190.2452,87.8226 191.5762,87.3256 191.5762,86.0926 C191.5762,85.4436 193.3212,84.3486 193.6342,84.0346 C194.5862,83.0836 194.5332,82.2376 195.0752,81.1536 C195.4892,80.3266 196.0512,79.6196 196.5152,78.8906 C197.0792,78.0066 197.1942,77.1286 197.5452,76.2156 C198.1672,74.5996 198.8672,73.9506 198.9862,73.7466 C199.0282,73.4986 198.2012,71.5496 197.9572,70.8656 C197.4162,69.3496 197.2672,70.0936 196.6582,69.9786 C196.6792,69.9306 196.6982,69.8806 196.7212,69.8366 C196.8552,69.5936 197.0352,68.8976 197.3392,67.9846 C197.5032,67.4926 196.4952,65.9596 196.3092,65.5156 C195.9132,64.5636 196.1732,63.4586 196.1042,62.4296 C196.0672,61.8766 195.3932,60.4786 195.2812,60.1676 C194.9622,59.2876 194.9542,58.2076 194.8692,57.6976 C194.8562,57.6176 194.8552,57.5996 194.8432,57.5306 C194.7592,57.3876 194.6412,57.1316 194.4572,56.6696 C195.1382,54.8976 193.2362,55.3136 192.6052,54.6116 C192.3172,54.2926 190.4732,55.3216 190.1352,55.4356 C189.6432,55.5976 188.8212,53.7446 188.6942,53.5836 C188.0412,52.7426 187.0922,53.2126 186.0172,52.9656 C185.0102,52.7326 185.2602,51.5776 184.7832,50.7026 C184.2602,49.7456 184.0632,49.2626 183.7542,48.6456 C183.4462,48.0276 183.6172,47.2726 183.5482,46.5866 C183.5402,46.5066 182.0762,44.3786 181.9012,44.1176 C181.6932,43.8056 182.7152,41.6586 182.8902,41.2756 C183.3572,40.2666 181.9362,40.0936 181.4892,39.5916 C181.0762,39.1266 179.3552,39.4276 178.8132,39.3856 C178.1162,39.3326 177.4412,39.1116 176.7552,38.9736 C175.9882,38.8206 175.7952,40.2086 175.3142,40.8256 C174.7752,41.5196 174.2162,39.4536 173.6672,38.7686 C173.1362,38.1046 172.0202,38.3556 171.1972,38.1506 C170.9182,38.0816 169.4462,37.1956 168.9322,36.9166 C168.1842,36.5066 167.3332,36.1886 166.6692,35.8866 C165.5152,35.3626 166.4972,34.6796 166.4632,34.4466 C166.3912,33.9486 166.5432,33.7256 166.6692,32.5946 C166.7332,32.0216 165.9462,30.4266 165.8452,30.1256 C165.6102,29.4176 164.8842,30.8126 164.4052,31.1546 C163.9992,31.4446 163.4452,30.8806 162.9642,30.7426 C162.2122,30.5276 161.7292,31.7026 161.1122,32.1826 C160.8752,32.3666 158.9082,31.2646 158.6412,31.1536 C157.9912,30.8816 157.2712,31.4026 156.3782,31.5656 C155.5552,31.7146 155.6812,32.4936 155.1432,33.2116 C154.5822,33.9596 154.5062,34.9626 154.3202,35.4746 C154.0032,36.3446 153.3352,37.0506 153.2912,37.1206 C152.9172,37.7196 152.6052,35.8856 152.2612,35.2696 C152.0842,34.9476 153.3452,33.1006 153.4972,32.7996 C153.8342,32.1266 155.0222,31.4276 155.5542,30.9476 C156.2402,30.3326 157.3382,30.3986 158.2312,30.1256 C159.2322,29.8166 160.2322,29.6956 161.1122,29.5076 C162.1432,29.2866 163.0312,28.7706 163.7882,28.4796 C164.1742,28.3296 161.7232,28.4796 161.3182,28.4796 C160.4912,28.4796 159.4112,28.7506 158.4372,28.8906 C157.2372,29.0626 156.7782,28.1996 155.9672,27.8616 C154.5432,27.2696 155.0342,27.9546 153.9092,28.0676 C152.9732,28.1606 152.5482,29.2766 152.0562,29.7136 C151.4462,30.2566 151.6192,31.7596 151.4402,32.5946 C151.3822,32.8666 149.7042,34.3296 149.5882,34.4466 L147.9412,36.0926 C146.9932,37.0406 146.7422,37.5576 146.0892,38.3556 C145.5242,39.0456 146.0892,40.1386 146.0892,41.0306 C146.0892,41.7166 144.7172,41.0306 144.0312,41.0306 C143.9792,41.0306 143.0522,38.8786 143.0022,38.7686 C142.6382,37.9676 141.9042,40.1396 141.3552,40.8256 C140.5152,41.8746 139.9982,41.0966 139.2972,41.2376 C138.4872,41.3996 137.6502,41.1006 136.8272,41.0316 C136.1972,40.9796 135.5922,41.3056 134.9742,41.4436 C133.7362,41.7186 133.6422,42.2916 132.7112,42.8836 C132.2592,43.1706 133.3972,43.7076 133.7402,44.1186 C134.7142,45.2866 133.5772,45.0986 133.3282,46.5876 C133.2462,47.0776 132.7842,48.0836 132.5052,48.8506 C131.9942,50.2556 131.6592,49.9386 131.0642,50.7026 C130.7352,51.1266 130.2412,50.0166 129.8292,49.6736 C129.2982,49.2316 128.5442,48.3886 128.3872,48.2336 C128.1712,48.0166 126.4862,49.0976 126.1242,49.2626 C125.2342,49.6676 125.8442,49.2626 125.5072,49.2626 C124.2572,49.2626 125.0372,49.0616 124.0662,48.6466 C123.3082,48.3206 124.0662,47.0006 124.0662,46.1766 C124.0662,44.4436 122.1762,46.3486 121.8022,46.3826 C121.7382,46.3886 120.2992,48.4496 120.1552,48.6466 C119.7312,49.2286 118.3782,50.0996 117.8902,50.4986 C117.0182,51.2106 116.5552,51.8336 115.8332,52.5556 C114.5182,53.8686 115.4942,53.4336 115.2282,54.3426 C114.9052,53.8036 114.5762,53.2826 114.3912,52.9666 C114.0552,52.3906 114.0572,52.5216 113.7752,52.1446 C113.4622,51.7256 114.1872,51.1836 114.3912,50.7036 C114.9422,49.4206 115.0682,49.8346 115.8332,48.8526 C116.3852,48.1416 116.7682,47.7816 117.2742,47.2066 C117.5482,46.8926 116.6822,45.7276 116.4512,45.1476 C116.2702,44.6946 115.3032,44.4926 115.0102,44.3246 C114.2262,43.8766 115.2852,42.5426 115.4222,41.6496 C115.7302,39.6496 116.3652,41.9636 116.6572,42.0626 C118.5692,42.6986 117.1162,42.0106 118.5092,41.8556 C119.3692,41.7596 119.5952,40.1486 119.9502,39.5926 C120.4832,38.7536 121.0522,38.2156 121.5962,37.5346 C122.0662,36.9486 122.1862,36.3566 122.6262,35.4776 C122.8182,35.0926 122.2662,33.3236 122.2142,33.0076 C121.9812,31.6116 121.5942,31.7706 121.1842,30.9496 C120.8662,30.3126 118.9222,30.9496 118.7152,30.9496 C117.6652,30.9496 117.6742,32.4376 117.2742,33.0076 C116.6322,33.9246 115.3092,33.8256 114.8032,34.0366 C114.1512,34.3086 113.9072,33.6996 113.1572,33.4196 C112.5302,33.1856 111.6382,32.5916 110.8922,32.1856 C109.6942,31.5306 110.0312,31.3226 109.0412,30.3336 C108.3512,29.6426 107.3982,29.6476 106.5712,29.3036 C105.1062,28.6926 105.8142,30.4386 105.3362,31.1556 C104.8052,31.9506 103.9972,32.4946 103.6892,32.8016 C103.4422,33.0486 103.0032,32.9386 102.6602,33.0076 C101.7752,33.1856 102.9352,31.2246 103.0722,30.3336 C103.1932,29.5486 101.7512,29.0116 101.4252,28.6876 C100.7372,27.9996 99.7432,28.6876 98.9552,28.6876 C97.9932,28.6876 96.8742,28.9636 95.8682,29.0986 C95.0492,29.2086 97.1032,28.0016 97.7202,27.4526 C98.7172,26.5666 97.7202,26.2996 97.7202,25.6006 L97.7202,23.1316 C97.7202,21.8756 96.8052,22.5836 96.6912,22.5146 C96.0342,22.1196 96.0052,23.8866 95.6622,24.5726 C95.3422,25.2126 94.2902,24.9846 93.6042,25.1896 C93.0742,25.3486 92.5072,25.0526 91.9572,24.9836 C91.8892,24.9746 91.8202,24.9836 91.7512,24.9836 C90.9962,24.9836 91.8982,24.9246 92.7802,24.5716 C93.8052,24.1616 94.2362,23.1156 94.8382,22.5136 C95.5822,21.7706 95.9852,21.6216 96.6902,21.0736 C97.1562,20.7106 97.6512,20.3876 98.1312,20.0446 C98.6652,19.2436 98.2682,18.1246 98.3372,17.1636 C98.4282,15.8956 97.9852,15.9916 97.7202,15.1056 C97.4662,14.2596 95.8642,14.3326 95.2502,14.0766 C94.4242,13.7326 92.6352,14.0766 92.3692,14.0766 C91.2822,14.0766 91.0842,13.0486 90.3112,12.4306 C89.1502,11.5016 89.4082,12.4306 88.2532,12.4306 C87.4712,12.4306 87.1412,14.0196 86.8122,14.4886 C85.8092,15.9206 86.2352,14.8186 85.3712,15.3126 C85.1672,15.4276 83.2112,14.0516 82.9012,13.8716 C82.1342,13.4236 80.6962,12.9266 80.0202,12.6366 C79.1462,12.2616 78.4882,11.8706 77.5502,11.4016 C76.1982,10.7246 76.0092,11.4016 75.4922,11.4016 C74.9022,11.4016 74.8062,12.3616 74.4632,12.8416 C74.3982,12.9326 72.3052,11.4686 72.1992,11.4016 C71.6102,11.0266 70.0372,10.9026 69.5232,10.7846 C69.4242,10.7666 69.3352,10.7494292 69.2602,10.7494292 M194.8342,57.5326 C195.3002,58.3296 194.4562,55.1506 194.8342,57.5326 M66.1222,16.8966 C66.0922,16.8926 66.0592,16.8996 66.0192,16.9096 C65.5412,17.0326 64.3722,18.0926 63.7552,18.4016 C62.9862,18.7856 65.2642,19.2246 66.0192,19.6366 C66.7442,20.0316 66.1562,17.9906 66.2252,17.1676 C66.2552,16.9966 66.2122,16.9096 66.1222,16.8966 M61.7872,17.8356 C61.5432,17.7756 61.3202,19.5926 61.0792,20.2536 C60.7192,21.2436 61.3262,21.4886 61.4912,22.3116 C61.6122,22.9166 62.7262,22.3116 63.3432,22.3116 C63.8962,22.3116 64.3042,21.7626 64.7842,21.4886 C65.6402,21.9556 63.2752,20.2536 62.5202,19.6366 C62.0662,19.2656 62.1082,18.5396 61.9032,17.9906 C61.8672,17.8956 61.8212,17.8436 61.7872,17.8356 M173.9442,18.5936 C173.3092,18.6426 172.6192,18.8426 172.4262,18.8126 C170.9852,18.5906 171.1282,19.8216 170.5742,20.2526 C170.1512,20.5816 169.8872,21.0756 169.5452,21.4876 C168.2612,23.0266 169.8562,22.2656 169.9572,22.5166 C170.2222,23.1816 171.3292,22.9286 172.0142,23.1336 C172.4912,23.2756 172.8522,23.6336 173.2232,23.9826 C172.8212,23.9986 172.1052,25.0626 171.6032,25.3976 C171.1162,25.7226 170.5052,24.9856 169.9562,24.7806 C169.2462,24.5146 168.6412,25.9306 168.3082,26.2206 C167.7822,26.6816 169.2322,28.0666 169.3382,28.2786 L170.3672,30.3366 C170.8032,31.2096 169.2102,31.4926 168.9262,31.7766 C168.3262,32.3766 169.3382,33.4226 169.5432,34.2456 C169.9752,35.9766 170.0562,34.8326 170.9842,35.8916 C171.0972,36.0216 173.3672,36.6246 173.6602,36.7146 C175.6762,37.3346 174.5922,35.9896 175.5112,35.2746 C176.1462,34.7816 176.0612,33.7656 176.3352,33.0116 C178.3642,31.6496 178.6372,31.7906 179.8342,32.8056 C180.5392,33.1076 179.5582,34.3146 179.4222,35.0686 C179.2852,35.8226 181.4682,35.5286 181.8152,34.8366 C181.9972,34.5336 183.0622,33.4996 183.1272,33.4226 C183.3032,33.2106 182.4142,31.4636 182.3032,31.1596 C182.1312,30.6846 180.7222,29.7546 180.4522,29.5136 C179.5942,28.7526 179.5422,28.2146 179.0102,27.4556 C178.1692,26.2526 179.9822,25.5136 180.2462,24.9866 C180.9482,23.5826 179.1802,23.4656 178.8042,22.9286 C178.7212,22.8096 177.0062,22.6016 176.5412,22.5166 C175.0382,22.2426 175.6162,21.8226 174.8942,21.2816 C174.3422,20.8676 175.0312,19.9096 175.0992,19.2236 C175.1602,18.6446 174.5792,18.5446 173.9442,18.5936 M68.6172,23.5836 C68.5842,23.5816 68.5472,23.5876 68.5142,23.5966 C67.9502,23.7496 67.3852,25.2656 67.2532,25.3966 C66.5192,26.1306 67.6362,26.0666 68.0762,26.8366 C68.5202,27.6126 69.5852,25.8766 70.3402,25.3966 C71.0692,25.3966 69.3802,24.2996 68.8992,23.7506 C68.8072,23.6446 68.7152,23.5886 68.6172,23.5836 M173.4682,24.2006 C173.5322,24.2556 173.5942,24.3186 173.6612,24.3676 C174.5992,25.0716 174.2812,25.0746 175.1022,26.0136 C175.6412,26.6296 175.4242,27.7846 175.5132,28.2766 C175.6572,29.0636 174.6912,26.9046 174.2792,26.2186 C173.7562,25.3476 173.5052,24.3326 173.4682,24.2006 M72.6952,25.8086 C72.2312,25.9086 73.3772,27.2226 73.6342,27.8666 C73.8832,28.4886 74.3482,26.9856 74.7402,26.2336 C74.5202,26.2426 74.1122,26.1316 73.6982,26.0146 L74.8692,26.0146 C75.1022,25.6646 74.1872,25.9176 73.6342,25.9886 C73.3222,25.9006 73.0202,25.8296 72.8112,25.8086 C72.7652,25.8036 72.7262,25.8016 72.6952,25.8086 M74.8692,26.0146 C74.8292,26.0736 74.7822,26.1526 74.7412,26.2336 C74.8882,26.2266 74.9622,26.1756 74.8692,26.0146 M123.1332,25.9116 C122.6332,25.9546 121.9322,26.6846 121.5892,26.8376 C120.8052,27.1856 121.1772,28.4866 120.9712,29.3066 C120.9252,29.4926 122.7302,30.2836 122.8242,30.3356 C123.2342,30.5636 123.9472,32.3926 124.0582,32.5986 C124.4272,33.2716 124.3342,31.0896 124.4702,30.3356 C124.5062,30.1406 125.8022,30.1776 126.5682,30.1296 C127.9882,29.0646 125.6822,28.4356 125.2942,27.6606 C124.8502,26.7756 124.0892,26.5896 123.4422,26.0146 C123.3542,25.9366 123.2492,25.9016 123.1332,25.9116 M185.5212,40.0956 C185.0292,40.1416 184.6832,40.9156 184.4262,41.0086 C183.5602,41.4816 183.6112,45.0336 184.6202,43.9146 C185.0632,44.5056 185.1692,45.2866 185.4432,45.9726 C185.7662,46.7826 186.2152,44.7376 186.8322,44.1206 C187.7392,43.2136 187.5372,44.7246 188.2732,45.3556 C189.0952,46.0606 187.7132,47.4086 187.6562,47.6186 C187.4502,48.3726 186.1472,47.2066 185.3912,47.0016 C185.0672,46.9126 185.7812,49.3326 185.8032,49.4706 C185.9592,50.4026 187.3302,50.5376 187.8622,50.9106 C188.3032,51.2196 190.2232,50.5736 190.7432,50.4986 C192.6602,50.2246 191.4372,49.9786 192.3892,49.2636 C192.4202,49.2406 192.9742,46.7316 193.0072,46.5886 C193.8452,46.4356 190.9482,44.3436 190.7432,44.1196 C190.3462,43.6876 189.6452,43.7076 189.0952,43.5026 C188.6302,43.3536 188.3082,42.6036 187.6552,41.8566 C186.9982,41.1056 186.6142,40.8926 186.0602,40.3386 C185.8622,40.1406 185.6852,40.0796 185.5212,40.0956 M117.2662,58.8446 C117.6022,59.8346 117.6562,60.6276 116.8552,61.4036 C116.8342,61.4316 116.8132,61.4546 116.7912,61.4806 C116.8842,61.1466 116.9492,60.7726 117.2662,60.3746 C117.5272,60.0506 117.4292,59.4136 117.2662,58.8446 M10.1782,210.1386 L10.2422,210.1646 C10.4992,210.2716 10.6552,210.3136 10.7692,210.3186 L10.7692,210.5116 C10.5502,210.4356 10.3742,210.2826 10.1782,210.1386" id="Fill-1" fill="#FFFFFF"></path>
            <path d="M67.1772,0.5006 C67.0072,0.5226 66.8892,0.8796 66.5722,0.8346 C66.4182,0.8126 65.9152,2.5256 65.8392,2.7246 C65.6152,3.3066 65.2032,3.8806 64.9642,4.3196 C64.5742,5.0336 64.2532,5.1286 63.8062,5.6306 C63.5092,5.9646 63.1302,6.2146 62.7902,6.5046 C62.7652,6.5256 62.7852,6.5026 62.4942,7.0836 C62.1862,7.6986 61.8532,8.4656 61.6192,8.9736 C61.3132,9.6376 61.2602,10.2476 61.0402,11.0186 C60.8682,11.6196 60.8242,12.4896 60.7442,13.0506 C60.6612,13.6336 60.4632,14.2616 60.3062,14.9406 C60.0262,16.1556 61.1582,15.3016 61.3352,15.3776 C61.4752,15.4376 62.1942,13.4926 62.1972,13.4876 C62.3902,13.0696 62.4172,12.0876 62.4932,11.5976 C62.5642,11.1366 62.7142,10.2976 62.7892,9.8486 C62.9042,9.1586 63.5092,8.7196 63.8052,8.2536 C64.6202,6.9736 64.1892,8.3726 64.6802,8.5366 C64.8512,8.5936 65.8502,9.0146 66.1332,9.1276 C66.9032,9.4356 66.3492,8.1176 66.4162,7.8166 C66.5922,7.0236 66.0252,6.4286 65.8372,5.7716 C65.8332,5.7586 65.8282,5.7576 65.8242,5.7456 C65.8292,5.5006 65.8372,5.2796 65.8372,4.9096 C66.2922,4.5306 66.5132,3.9286 66.8532,3.4436 C67.1292,3.0496 68.0072,2.6466 68.3202,2.4276 C68.7652,2.1166 67.8292,1.4596 67.5872,0.9746 C67.3972,0.5936 67.2782,0.4876 67.1772,0.5006 M69.2602,10.7494292 C68.1452,10.7276 69.1072,12.8386 69.1062,12.8456 C68.9292,13.7326 70.4922,14.9236 70.7532,15.3146 C71.3102,16.1486 71.0142,17.1396 71.1652,18.1956 C71.3222,19.2946 71.1652,20.2636 71.1652,21.0766 C71.1652,22.0486 72.2422,22.0336 73.0172,22.7226 C73.7352,23.3606 74.5842,23.7196 75.2812,24.1626 C76.0162,24.6296 75.5812,26.2606 75.6932,27.0436 C75.8972,28.4686 74.9562,28.5176 74.4582,29.5126 C74.1112,30.2076 72.5582,30.1456 71.9882,30.3356 C71.0982,30.6326 70.1392,31.1886 69.3122,31.5706 C68.3512,32.0136 68.1792,32.8446 67.6652,33.4226 C67.0892,34.0706 68.2142,35.0686 68.4882,35.8916 C68.6912,36.5006 70.6732,35.1636 70.9582,35.0686 C71.7952,34.7896 72.6292,34.0056 73.2222,33.6286 C73.5742,33.4046 74.0452,33.7656 74.4572,33.8346 C75.2832,33.9716 73.4972,35.2066 73.0162,35.8926 C72.3382,36.8616 72.1052,37.3246 71.5752,38.1556 C71.0042,39.0536 72.5542,39.4596 72.8102,39.8016 C73.0782,40.1596 74.6752,39.9706 75.0742,40.0076 C75.7032,40.0646 76.4142,41.3466 76.7212,41.6536 C77.7142,42.6466 76.8522,43.2246 76.9272,44.1226 C76.9902,44.8776 75.4182,43.9856 74.6632,43.9166 C72.3572,43.7066 74.9732,43.7616 73.4282,44.5336 C72.5732,44.9606 74.1142,46.3166 74.4572,47.2086 C75.0512,48.7506 75.3472,47.9996 76.3092,48.8546 C76.5432,49.0626 78.8482,49.6356 78.9852,49.6776 C80.0602,50.0076 80.5862,50.2936 81.6612,50.7066 C82.7322,51.1186 83.3992,51.8646 84.1312,52.3526 C84.9042,52.8676 85.3552,53.8816 85.7782,54.4106 C86.3302,55.0996 86.4462,55.8796 86.8072,56.6736 L87.8362,58.9366 C88.2162,59.7726 88.7492,60.3706 89.2772,61.1996 C89.4362,61.4486 89.6292,61.6806 89.8302,61.9066 C89.5722,61.7786 89.3052,61.6606 89.0972,61.5466 C88.6032,61.2766 88.3602,60.7976 88.0682,60.5046 C87.8332,60.2696 87.6212,59.9256 87.2832,59.4756 C86.8272,58.8666 86.5362,58.4356 86.2542,58.0476 C85.9402,57.6146 85.3092,57.1956 84.9552,56.8776 C84.5632,56.5246 84.0882,56.2796 83.6562,55.9776 C83.3672,55.7756 82.9932,54.9236 82.7552,54.5496 L81.8422,53.1226 C81.5382,52.6446 81.3232,52.6776 80.9412,52.3506 C80.5032,51.9746 79.9142,51.9316 79.6422,51.8226 C78.8572,51.5086 78.8042,51.7536 78.0862,51.6946 C77.4492,51.6416 77.1732,51.8576 76.5292,51.9646 C75.9972,52.0536 75.4322,52.2986 74.8442,52.4786 C74.0822,52.7126 73.7252,52.4046 72.9022,52.3506 C72.1562,52.3006 71.9842,52.0596 71.2172,51.8226 C70.7652,51.6836 70.3812,50.8826 70.1882,50.6656 C69.6122,50.0176 69.9132,50.3466 69.4032,49.7526 C68.8512,49.1086 68.6102,49.4926 67.8472,49.2386 C67.4542,49.1076 66.6782,49.8166 66.2902,50.0106 C65.3862,50.4626 65.9052,50.7286 65.5182,51.4386 C65.3512,51.7456 65.0632,53.1586 65.0032,53.3806 C64.9752,53.4876 64.1342,54.4626 63.9612,54.6796 C63.5542,55.1886 63.7962,55.8516 63.7042,56.4926 C63.6412,56.9306 63.5062,57.7216 63.7042,58.4346 C64.3792,60.8596 63.3332,61.1646 63.3052,61.6756 C62.5412,61.4056 61.3892,60.5696 61.2342,60.3766 C60.9542,60.0266 60.6382,59.5256 60.3342,59.0906 C59.9302,58.5136 58.8742,59.6466 58.6492,59.7336 C58.1622,59.9206 58.4522,61.1266 58.3922,61.5466 C58.3252,62.0126 59.0252,62.8246 59.1642,63.1026 C59.4132,63.6006 59.2492,64.4786 59.2932,65.1726 C59.3422,65.9596 58.8642,66.3856 58.6502,66.9856 C58.4242,67.6176 57.7342,67.6296 57.3512,67.8986 C56.8082,68.2786 56.7952,67.6446 56.1802,67.3716 C56.0682,67.3216 55.4792,66.2026 55.4082,66.0856 L54.6362,64.7866 C54.4502,64.4766 53.8202,63.8706 53.5942,63.6166 C53.1312,63.0956 54.1982,62.2756 54.2372,62.1886 C54.4802,61.6536 55.1902,61.5046 55.6652,61.1596 C56.0632,60.8696 55.0672,60.3776 54.7652,59.9896 C54.3192,59.4166 54.1642,59.0536 53.8522,58.5616 C53.5962,58.1596 53.7662,57.6096 53.7232,57.1346 C53.6572,56.4046 52.8202,56.2446 52.5532,55.9766 C52.2902,55.7136 51.3892,55.8886 50.8682,55.8486 C50.4202,55.8136 49.7782,55.8486 49.1832,55.8486 C48.5102,55.8486 48.2582,55.9886 47.4982,56.1056 C47.1422,56.1606 46.1282,55.5106 45.6842,55.3206 C45.1822,55.3726 44.4502,55.9436 43.8702,56.2336 C43.4652,56.4356 42.8842,56.7706 42.4552,57.0056 C41.6582,57.4406 41.6252,56.9236 41.1562,56.8776 C40.7442,56.8356 40.2302,56.2386 39.8572,55.9776 C39.2922,55.5826 38.9782,55.9776 38.5582,55.9776 C38.0042,55.9776 37.2032,56.3126 37.0012,56.3636 C36.2182,56.5586 35.9532,56.8396 35.5862,57.0066 C35.0932,57.2306 35.0602,57.9586 34.8012,58.4346 C34.7582,58.5126 33.3992,58.6656 33.2442,58.6916 C32.6732,58.7866 32.9582,59.1616 32.6012,59.7336 C32.5122,59.8756 33.3342,60.8446 33.3732,60.9036 C33.9652,61.7906 33.3052,61.5786 33.2442,62.1896 C33.1982,62.6506 32.3072,62.4836 31.9582,62.5886 C31.4312,62.7466 31.1532,62.9056 30.6592,63.1026 C30.0962,63.3276 30.4152,64.0916 30.2732,64.6586 C30.1682,65.0746 30.1622,65.8476 30.1312,66.2146 C30.0772,66.8546 31.0752,66.4686 31.5592,66.6006 C32.2752,66.7956 32.4092,66.6646 33.2442,66.7286 C33.8222,66.7726 34.7332,66.9556 34.9292,66.9856 C35.7092,67.1056 35.8682,67.2706 36.6142,67.4996 C37.4442,67.7556 37.4782,68.0086 38.1702,68.4126 C38.7842,68.7706 38.6592,69.1056 39.0832,69.7116 C39.3922,70.1526 39.4142,70.8156 39.4692,70.9976 C39.6832,71.7086 38.7072,71.2906 38.4272,71.3966 C37.8292,71.6206 37.1652,70.8076 36.7422,70.6126 C36.2392,70.3806 36.3062,69.7406 36.0992,69.3266 C35.5932,68.3156 35.5962,69.3266 35.4562,69.3266 C35.2132,69.3266 35.3302,70.9236 35.3152,71.1396 C35.2752,71.7026 35.1552,72.1906 35.0582,72.8246 C34.9742,73.3706 34.8062,73.9136 34.6722,74.4966 C34.5172,75.1686 34.4392,75.4386 34.2862,76.0526 C34.1392,76.6406 34.1252,77.1946 34.0292,77.8666 C33.9572,78.3706 34.3112,79.0056 34.4152,79.4226 C34.6142,80.2176 34.6712,80.2886 34.8012,80.7216 C34.9992,81.3836 34.7432,81.3146 34.6722,82.0206 C34.6302,82.4386 33.6912,82.8666 33.6302,82.9206 C33.1722,83.3206 32.7622,83.8016 32.4722,84.0906 C32.0852,84.4776 31.7302,85.4386 31.6872,85.5176 C31.3362,86.1606 31.3352,86.8226 31.3012,86.9456 C31.1502,87.4996 31.0452,88.0636 30.9152,88.6306 C30.7922,89.1626 30.7152,90.0446 30.6582,90.4436 C30.5662,91.0856 30.1972,91.4286 30.0022,91.8586 C29.5882,92.7676 29.9412,92.1456 29.7452,93.0286 C29.5622,93.8536 29.7452,93.5626 29.7452,94.3276 C29.7452,94.9626 29.4262,94.5096 28.8452,94.8416 C28.6032,94.9796 27.9132,94.6746 27.4172,94.5846 C27.1002,94.5266 26.3632,94.2376 25.8612,94.0706 C25.2022,93.8506 24.9102,93.9926 24.3052,93.9416 C23.4592,93.8716 23.2762,93.9416 22.7482,93.9416 C21.5952,93.9416 22.8302,94.5906 22.8772,94.9706 C22.9302,95.3946 23.4882,95.5816 23.7902,95.8836 C24.2932,96.3866 23.4312,96.8826 23.2752,97.3116 C23.0702,97.8746 22.7192,98.2556 22.3622,98.8676 C22.0722,99.3646 22.3622,99.6206 22.3622,100.2816 C22.3622,100.7816 23.2102,100.9436 23.5332,101.1946 C24.1352,101.6626 24.8222,101.0966 25.2182,101.0666 C25.5632,101.0396 26.3422,100.4406 26.6332,100.2816 C27.3092,99.9126 27.6332,101.2816 27.6752,101.3236 C27.8012,101.4496 27.5892,101.6656 27.5472,101.8376 C27.5272,101.9176 27.5592,101.8126 27.4182,102.0946 C27.2342,102.4626 27.6112,102.7506 27.8042,103.3936 C27.9732,103.9566 28.3072,104.3856 28.4602,104.6926 C28.6952,105.1616 29.4632,105.2396 29.8752,105.4646 C29.8832,105.4696 29.8922,105.4736 29.9012,105.4776 L29.9012,105.9536 C29.8662,106.2386 29.7452,107.1256 29.6952,107.4966 C29.6312,107.9746 29.5482,108.5226 29.4892,108.9366 C29.4092,109.4946 29.1812,109.7366 28.9742,110.2736 C28.8112,110.6986 28.1402,110.8046 27.8422,110.9936 C27.5142,111.2026 27.1432,111.0566 26.7102,111.0966 C26.2532,111.1386 25.8612,111.5916 25.4752,111.8166 C25.0462,112.0666 24.8682,112.4906 24.5492,112.8456 C24.2092,113.2236 24.0342,113.6546 23.8292,113.9776 C23.5212,114.4616 23.2142,114.7286 22.9032,115.1096 C22.6652,115.4006 21.8662,115.4286 21.5652,115.5216 C21.0012,115.6946 21.1532,115.7506 20.6392,116.0356 C20.4112,116.1616 21.4972,116.9886 21.5652,117.0646 C21.8592,117.3916 22.0632,117.7046 22.2852,117.9906 C22.5682,118.3536 22.2132,118.8566 22.1822,119.2256 C22.1482,119.6316 21.8812,120.1276 21.7702,120.4606 C21.6042,120.9586 21.2402,121.2556 20.9472,121.6956 C20.7252,122.0276 20.4862,122.4326 20.4322,122.5186 C20.1852,122.9136 19.3212,122.6896 19.0942,122.7246 C19.0132,122.7366 18.2512,122.0506 18.0652,121.9016 C17.5062,121.4536 17.1432,122.1146 16.7272,122.2106 C16.4582,122.2726 15.9232,123.1036 15.8012,123.2396 C15.3172,123.7776 15.0162,123.4356 14.5662,123.5486 C14.1862,123.6436 13.8112,123.3426 13.4342,123.2396 C12.8372,123.0766 12.9522,124.3006 12.9192,124.3716 C12.6232,125.0226 12.4042,125.1066 12.1992,125.4006 C11.9722,125.7256 11.0262,124.9496 10.8612,124.8866 C10.4502,124.7286 10.2172,124.0016 10.0382,123.7546 C9.7192,123.3156 9.4632,123.3516 9.0092,123.0346 C8.6342,122.7716 7.9422,122.6236 7.6712,122.5206 C7.0052,122.2636 7.1522,123.1876 6.9512,123.4466 C6.8162,123.6206 6.5322,123.9246 6.2312,124.2696 C5.8542,124.6996 5.1392,124.3416 4.6872,124.3726 C4.3782,124.3926 4.1302,124.3726 3.5552,124.3726 C2.9952,124.3726 2.8472,124.6086 2.3202,124.7846 C1.9292,124.9146 2.4152,126.0176 2.4232,126.1216 C2.4452,126.4096 3.1042,126.9726 3.2462,127.1506 C3.5542,127.5346 3.7632,127.8896 3.9662,128.1796 C4.2042,128.5196 4.4882,128.7006 4.7892,129.0026 C5.1412,129.3546 5.0822,129.9546 5.2012,130.3396 C5.4342,131.0966 5.0122,131.1576 4.8922,131.6766 C4.7692,132.2116 4.6932,132.7396 4.5832,133.3226 C4.5022,133.7546 4.8882,134.1606 4.9952,134.4546 C5.2232,135.0806 5.5722,135.0956 5.9212,135.4836 C6.2422,135.8406 6.7362,135.7546 7.1562,135.8946 C7.8822,136.1366 7.5382,136.3236 7.9792,136.8206 C8.3072,137.1886 7.5992,137.9596 7.5672,138.0556 C7.4252,138.4806 7.1812,138.9566 6.9502,139.4956 C6.7342,139.9996 6.9502,139.9136 6.9502,140.5246 L6.9502,141.7596 C6.9502,142.4066 6.5702,142.3296 6.3332,142.6856 C6.1232,142.9996 5.9352,143.1406 5.6132,143.5086 C5.2992,143.8666 4.9672,144.1546 4.6872,144.4346 C4.4552,144.6666 4.1832,145.0826 3.9672,145.3606 L3.2472,146.2866 C2.6852,147.0096 3.5882,147.1386 3.6592,147.3156 C3.7892,147.6406 4.3452,147.4526 4.6882,147.5216 C5.1662,147.6166 5.1082,148.2906 5.3052,148.6536 C5.5472,149.0956 5.3582,149.2376 5.4082,149.7856 C5.4402,150.1316 4.8932,150.8156 4.7912,151.0206 C4.5612,151.4806 4.2752,151.6656 3.9682,152.0496 C3.6472,152.4506 3.1142,152.1146 2.6302,152.1526 C2.3562,152.1736 1.7712,152.1526 1.2922,152.1526 C0.5992,152.1526 0.8252,152.8856 0.5722,153.2846 C0.2742,153.7536 0.9912,154.3746 1.0872,154.6216 C1.2572,155.0626 1.7262,155.5446 2.0132,155.9586 C2.3212,156.4026 2.2382,157.0056 2.3222,157.3986 L2.6312,158.8386 C2.8012,159.6326 2.3682,159.3656 2.1162,159.8676 C2.0182,160.0636 1.6362,160.2796 1.3962,160.4846 C1.1422,160.7026 1.4742,161.5776 1.4992,161.9246 C1.5442,162.5486 1.7692,162.8036 1.9112,163.2616 C2.0422,163.6876 2.4912,163.6246 2.7342,163.7756 C3.0592,163.9806 3.1162,164.6166 3.2492,164.9076 C3.3682,165.1696 3.4142,165.9806 3.4552,166.2446 C3.5502,166.8596 3.6422,167.1186 3.7642,167.6856 C3.9042,168.3346 4.3692,168.0216 4.6902,168.1986 C5.1062,168.4296 5.4572,168.6586 5.7192,168.8156 C5.9222,168.9376 5.6262,170.2106 5.6162,170.3586 C5.6012,170.5886 4.9182,170.9696 4.7932,171.0786 C4.2932,171.5166 4.6002,171.8526 4.4842,172.3136 C4.4302,172.5296 4.7282,173.2876 4.7932,173.5486 C5.0202,174.4556 5.2942,173.9786 5.5132,174.1656 C5.8652,174.4676 6.7102,173.8906 6.8512,173.8566 C7.4642,173.7156 7.6592,174.2246 7.9832,174.3706 C8.3442,174.5356 8.1302,175.3216 8.1892,175.7076 C8.2422,176.0506 7.9082,176.8306 7.8802,176.9426 C7.8182,177.1916 7.9682,177.9076 7.9832,178.0746 C8.0212,178.4896 8.3452,178.7976 8.4982,179.1046 C8.7042,179.5156 9.0082,179.8326 9.2182,180.1326 C9.3242,180.2836 9.4412,180.4846 9.6302,180.6086 C9.5692,180.5856 9.5202,180.5656 9.4242,180.5436 C8.6922,180.3806 9.2532,180.6086 8.6012,180.8536 C8.1822,181.0096 8.1212,181.6076 7.8812,181.9846 C7.6752,182.3096 7.1262,181.8486 6.7492,181.7786 C6.3102,181.6996 6.6772,181.8086 6.2342,181.9846 C5.8002,182.1586 5.9632,182.3926 5.6172,182.9106 C5.4812,183.1156 5.2542,183.5636 5.1022,183.8366 C4.8832,184.2316 4.4712,184.3276 4.1762,184.5576 C3.6692,184.9516 3.8292,185.3086 3.5592,185.8946 C3.3062,186.4426 3.1082,186.4576 2.7362,186.9226 C2.6612,187.0166 1.8952,187.4836 1.8102,187.5396 C1.5292,187.7286 2.1992,188.7066 2.2222,188.7746 C2.3622,189.1926 1.8952,189.6736 1.8102,189.9066 C1.6392,190.3776 1.5522,190.8116 1.3982,191.3476 C1.2232,191.9576 1.4772,192.2936 1.5012,192.5816 C1.5492,193.1576 1.7972,193.4716 1.9132,193.8166 C2.0152,194.1236 2.4622,194.1596 2.7362,194.3306 C3.2852,194.6736 3.0692,194.6216 3.5592,195.0506 C3.8192,195.2776 3.6282,195.7366 3.6622,196.0796 C3.6952,196.4056 4.5142,196.8476 4.6912,197.0056 C5.1032,197.3756 5.0562,197.6136 5.3082,198.0346 C5.5292,198.4036 5.7202,198.6516 5.9252,198.9606 C6.1962,199.3666 6.7932,199.3946 7.1602,199.5776 C7.5192,199.7566 8.3082,199.7306 8.7042,199.7836 C8.8792,199.8076 9.2452,200.7746 9.3212,200.9156 C9.5312,201.3006 9.3932,201.9966 9.4242,202.4586 C9.4592,202.9836 9.4242,203.5466 9.4242,203.8986 C9.4242,204.1676 8.9302,204.7236 8.8072,204.9276 C8.5732,205.3186 8.1602,205.6466 7.8812,205.9566 C7.5182,206.3596 7.4092,206.7436 7.2642,206.9856 C7.0652,207.3176 7.4072,207.8416 7.4702,208.2216 C7.5722,208.8286 7.6132,208.6496 7.7792,209.1466 C7.8452,209.3456 8.7112,209.5336 9.0142,209.6606 L9.3742,209.8146 C8.8412,209.6836 8.2712,209.6216 7.6252,209.4926 C6.8592,209.3396 6.8702,209.7626 6.0172,210.0716 C5.0612,210.4186 5.6142,210.9396 5.1422,211.9616 C4.9002,212.4876 6.2622,212.9616 6.4542,213.1316 C6.7752,213.4166 8.4252,213.2586 8.6412,213.2736 C9.6222,213.3386 9.6712,213.9306 10.2362,214.2896 C10.6842,214.5746 10.2362,216.1196 10.2362,216.3216 C10.2362,217.1956 10.3502,217.6846 10.3902,218.2116 C10.4322,218.7616 11.1732,219.1036 11.5482,219.5226 C12.0462,220.0826 12.4162,220.6816 12.8602,221.2716 C13.2932,221.8506 13.4972,222.7496 13.7352,223.3046 C13.9782,223.8706 14.2462,224.4516 14.4552,224.9106 C14.9162,225.9256 15.7112,224.8016 16.0632,224.7696 C16.5822,224.7226 17.0322,223.3026 17.2212,223.0206 C17.8592,222.0636 17.9482,222.9526 18.6872,222.8776 C18.8282,222.8636 19.4392,224.5306 19.5492,224.7686 C19.7892,225.2866 20.0432,226.3396 20.1412,226.6576 C20.4352,227.6136 21.0402,226.5356 21.2992,226.5036 C21.8202,226.4386 21.8832,225.6416 22.1742,225.2046 C22.5162,224.6906 23.0502,226.0666 23.4862,226.5036 C24.0472,227.0646 24.4082,226.9326 25.0812,227.2366 C25.8612,227.5916 26.8722,227.5156 27.3582,227.3536 C28.0422,227.1246 28.0312,226.4276 28.2842,226.0666 C28.5402,225.6996 27.6612,224.3296 27.5642,223.8936 C27.5312,223.7456 27.5782,223.8386 27.7062,223.4556 L27.7442,223.5326 C27.7292,223.4906 27.7252,223.4566 27.7182,223.4166 L27.8602,223.4166 C27.8562,223.4356 27.8512,223.4496 27.8472,223.4676 C27.8352,223.5266 27.8232,223.5866 27.8212,223.6476 L27.7442,223.5316 C27.7632,223.5846 27.7882,223.6426 27.8212,223.6986 C27.8262,224.1086 28.0522,224.5576 28.3612,224.9846 C28.4262,225.0736 28.4742,225.1276 28.5292,225.1906 C28.6812,225.4296 28.8522,225.6096 29.0182,225.6276 L28.9922,225.5766 C29.0832,225.6366 29.1762,225.7096 29.2882,225.8096 C29.5642,226.0546 30.2822,226.1406 30.5232,226.2206 C31.0092,226.3816 30.8942,226.8376 31.1402,227.2486 C31.3012,227.5166 31.4182,228.0126 31.5522,228.3806 C31.7242,228.8536 32.0652,229.1876 32.2722,229.5136 C32.4942,229.8616 32.9132,229.9616 33.3012,230.2326 C33.7982,230.5796 34.2172,230.6136 34.5362,230.7466 C34.8492,230.8766 35.4772,231.0286 35.5652,231.0566 C35.9502,231.1716 36.8272,231.0566 37.0062,231.0566 C37.4642,231.0566 38.0562,231.1946 38.5502,231.2626 C38.7032,231.2816 39.5252,230.5536 39.6822,230.4386 C40.2212,230.0456 40.7242,230.1416 41.1232,230.0266 C41.7532,229.8476 41.8802,230.3016 42.2552,230.4386 C42.5912,230.5616 43.0162,230.9716 43.2842,231.1586 C43.5812,231.3666 44.0782,231.5906 44.4162,231.7756 C44.8662,232.0216 45.0782,232.1726 45.4452,232.3936 C45.9792,232.7126 46.0202,232.4966 46.5772,232.5996 C47.1232,232.6976 47.3792,233.0356 47.7092,233.2156 C48.1242,233.4416 48.2172,233.8506 48.5322,234.2446 C48.8152,234.5986 49.2272,234.7626 49.6002,234.8886 L49.6002,235.2236 L50.0762,235.2236 C49.8972,235.4666 49.6912,235.7606 49.5492,235.9556 C49.0592,236.6296 48.9732,236.8586 48.5332,237.5506 C48.1942,238.0836 48.2482,238.7826 48.0962,239.4406 C48.0182,239.7776 47.8982,240.6016 47.8002,241.1896 C47.6382,242.1616 47.1582,242.2966 46.7842,242.9386 C46.5342,243.3666 45.5282,243.2306 44.8932,243.3756 C44.1402,243.5496 43.9472,244.0366 43.4392,244.3926 C42.8992,244.7706 42.4092,245.6426 42.1272,245.9866 C41.8252,246.3556 40.9472,246.9586 40.5322,247.2976 C40.0642,247.6826 39.9752,248.2216 39.6572,248.7506 C39.3252,249.3046 39.1302,249.8046 38.7822,250.4996 C38.4462,251.1716 38.5142,251.7426 38.3442,252.5316 C38.1712,253.3376 37.8482,253.5246 37.4692,254.2806 L36.5942,256.0296 C36.2312,256.7556 36.1742,257.0586 35.8742,257.7786 C35.8482,257.8396 35.7382,259.5616 35.7202,259.8116 C35.6852,260.3086 34.8462,261.4376 34.7042,261.7006 C34.3402,262.3776 34.3252,262.6536 34.1252,263.1536 C34.0062,263.4506 33.5592,264.1656 33.3922,264.4656 C33.0022,265.1676 32.9532,265.4546 32.6722,266.0726 C32.3452,266.7926 32.3392,267.6146 32.2352,268.1046 C32.0702,268.8746 32.1342,269.2956 32.0812,269.9946 C32.0232,270.7416 32.0812,271.1186 32.0812,271.7436 C32.0812,272.6896 31.7772,273.0116 31.6562,273.4926 C31.4822,274.1896 31.2562,274.3616 31.0642,274.7916 C30.9152,275.1256 29.9352,275.2186 29.9062,275.2296 C29.2922,275.4586 29.6322,275.5536 29.1732,276.1036 C28.7602,276.5996 29.1732,277.9666 29.1732,278.4316 C29.1732,279.2236 29.4662,279.8936 29.6112,280.6166 C29.7432,281.2786 29.9712,282.2866 30.0482,282.6486 C30.2402,283.5466 30.8942,283.3576 30.9232,283.3826 C31.1842,283.6006 32.4372,282.9676 32.5182,282.9446 C32.7052,282.8946 32.9162,282.9446 33.1102,282.9446 L33.2512,282.9446 C34.0082,282.9446 33.8792,284.1006 34.1262,284.5526 C34.4322,285.1126 34.4402,285.9066 34.5642,286.4416 C34.8592,287.7186 35.0612,286.6566 35.5802,286.8786 C36.0122,287.0636 36.9892,285.5816 37.1752,285.4126 C37.7872,284.8566 38.7562,285.7036 38.7832,285.7086 C39.3262,285.8076 40.1392,285.9076 40.8152,286.0046 C41.2232,286.0626 42.0422,286.0046 42.7062,286.0046 C43.5182,286.0046 43.6932,285.0186 44.1592,284.5526 C44.7932,283.9186 45.1182,283.6966 45.6262,283.2406 C45.7052,283.1686 46.9982,283.9196 47.0792,283.9606 C47.7052,284.2736 47.8222,284.8076 48.2372,285.2716 C48.7522,285.8526 49.0512,285.9006 49.5492,286.2876 C49.9242,286.5786 51.4632,286.2876 51.5822,286.2876 L53.6272,286.2876 C54.1802,286.2876 53.3352,285.2276 53.1902,284.6926 C53.0232,284.0826 51.9302,284.6006 51.2992,284.5516 C50.9762,284.5256 50.5532,283.4336 50.4242,283.2396 C50.2212,282.9376 50.8302,282.2196 51.0032,281.7866 C51.1622,281.3896 52.0622,280.8416 52.3152,280.6166 C52.8012,280.1856 53.0152,279.6156 53.3312,279.1636 C53.7082,278.6246 54.1022,278.3006 54.5012,277.8526 C55.1242,277.1516 55.2332,278.0726 55.9552,278.2886 C56.2352,278.3726 57.1892,278.9796 57.2672,279.0216 C57.9032,279.3746 58.8192,279.1216 59.4412,279.1636 C60.0742,279.2056 60.4732,280.0586 60.6122,280.1806 C60.8512,280.3896 59.8402,281.6006 59.7372,281.7876 C59.3072,282.5756 59.1612,282.4426 58.7212,282.9446 C58.1312,283.6196 59.0942,283.6906 59.1592,283.8186 C59.4212,284.3436 60.2202,283.3276 60.7542,283.0856 C61.6292,282.6876 61.1522,282.3916 61.4872,281.7866 C62.1702,280.5586 62.0682,281.6366 62.6452,281.4906 C63.3302,281.3196 64.0112,281.8756 64.6902,282.0696 C65.0232,282.1646 66.2782,281.3346 66.5812,281.1956 C67.3892,280.8226 67.6462,281.1956 68.3302,281.1956 C68.8972,281.1956 69.4132,282.4086 69.6292,282.6486 C70.0742,283.1446 70.5752,283.5956 70.9412,283.9606 C71.8732,284.8936 71.3702,283.5316 71.5202,283.3816 C71.6962,283.2056 70.6972,282.3186 70.5042,282.0696 C70.0322,281.4626 69.5852,281.4296 69.0512,281.0546 C68.4652,280.6446 68.0122,280.3926 67.4562,280.0376 C66.8412,279.6466 66.6952,279.3946 66.4272,279.1636 C65.3032,278.2006 67.0012,278.2476 67.1602,277.9936 C67.3642,277.6676 68.8092,279.0156 69.0512,279.1636 C69.7162,279.5726 70.0362,280.2436 70.5042,280.7596 C70.8812,281.1736 71.5572,281.5066 71.9572,281.7876 C72.4642,282.1436 73.0462,282.5666 73.5652,282.9446 C73.8892,283.1806 74.3342,282.7456 74.7232,282.6486 C75.4592,282.4646 76.0382,283.3636 76.3312,283.5226 C76.7242,283.7366 77.0082,284.1066 77.3472,284.3966 C77.3712,284.4176 78.8982,284.1666 79.2382,284.1136 C79.6532,284.0506 80.4582,284.8356 80.6912,284.9766 C81.1492,285.2506 81.5362,286.1356 81.8622,286.5826 C82.3782,287.2926 83.1062,287.3426 83.7532,287.7396 C84.1192,287.9666 85.2832,287.6356 85.7852,287.5996 C86.6062,287.5396 86.8422,286.8596 87.2382,286.5826 C87.5442,286.3686 87.7092,286.1216 87.8692,285.8506 C87.8702,285.8486 87.8812,285.8526 87.8822,285.8506 L88.2812,285.8506 C88.0912,286.4256 87.9002,287.0436 87.8432,287.1226 C87.3192,287.8556 87.8012,286.9556 88.2552,288.7696 C88.4612,289.5926 89.9022,289.1816 90.7252,289.3866 C91.7552,289.6446 91.7602,290.4206 92.3722,291.0316 C92.8962,291.5556 93.5712,291.9316 94.0192,292.2676 C94.4382,292.5816 94.0192,293.5606 94.0192,294.5296 C94.4182,294.5296 96.2562,294.5776 97.1062,294.9406 C98.2452,295.1476 96.9332,296.6716 96.9002,296.9986 C96.8112,297.8916 96.9002,298.5686 96.9002,299.2626 C96.9002,299.8116 97.9982,299.2626 98.5472,299.2626 C98.6112,299.2626 99.7532,297.5406 99.9882,297.2036 C100.6162,296.3086 101.4012,295.7916 102.0462,295.1466 L102.4582,294.7346 C102.5672,294.6256 102.3942,294.6706 101.6352,293.9116 C100.4732,292.7496 101.2602,292.6916 100.8122,291.2366 C100.6362,290.6646 101.5972,289.3546 101.8412,288.7686 C102.2142,287.8726 102.8162,287.0986 103.2822,286.2996 C103.6282,285.7066 104.1052,287.3966 104.5172,287.9446 C104.9602,288.5356 105.0662,289.3166 105.3402,290.0026 C105.6382,290.7486 106.8492,289.4536 107.6042,289.1806 C107.9332,289.0616 108.2902,289.3166 108.6332,289.3866 C108.8532,289.4306 110.8552,289.2006 111.1032,289.1806 C111.9002,289.1136 112.4742,290.0026 113.1612,290.4136 C113.3142,290.5066 114.4982,291.0086 115.0122,291.2366 C115.7762,291.5756 115.2882,292.8836 115.4252,293.7056 C115.5382,294.3806 116.8002,295.0806 117.2772,295.5586 C117.9902,296.2706 118.6522,295.0596 119.5412,294.7346 C121.4202,294.0526 120.2062,294.8026 121.5982,294.9406 C122.5402,295.0346 122.8622,294.4366 123.6572,294.1176 C124.7132,293.6956 125.0072,293.2606 125.9212,292.6786 C127.0192,291.9796 127.2622,292.1616 128.5962,291.6486 C129.6132,291.2586 131.1532,291.4316 131.8502,291.4946 C132.5462,290.9896 133.8602,290.2196 134.5652,289.5926 C134.6462,289.5206 135.7312,288.0936 136.4172,287.9456 C137.3382,287.7486 138.5742,287.4006 139.2982,287.3286 C140.0842,287.2496 139.8572,286.9366 141.3562,287.1226 C142.2402,287.2336 143.8562,287.6556 144.6492,287.5336 C145.5012,287.4026 146.8892,287.8476 147.3252,287.1226 C147.5732,286.7106 147.9422,285.4936 148.5602,285.0646 C148.7572,284.9296 150.4212,282.1656 151.2362,283.2126 C151.8452,283.9976 151.4432,284.6166 152.6762,285.0646 C153.8232,285.4806 154.0552,285.4046 154.9412,285.8886 C155.2182,286.0386 156.0732,288.0486 157.2052,287.1226 C157.9602,286.5056 158.5442,284.9626 159.4682,285.2716 C160.0862,285.4776 160.6942,286.0606 161.3212,285.8886 C162.0762,285.6826 163.3952,284.5126 163.5852,285.2716 C163.7592,285.9666 164.3092,285.3536 163.9972,286.9166 C163.8602,287.6036 162.9362,288.7146 163.5852,288.9756 C163.6602,289.0046 165.2952,289.2186 165.6432,289.7986 C165.9652,290.3346 166.1982,291.4016 166.8782,291.8556 C167.2962,292.1356 167.7602,294.0616 168.7302,293.0916 C169.4432,292.3786 170.1012,292.5556 170.1712,291.6506 C170.2532,290.5856 170.3322,289.6076 170.3772,288.9766 C170.4192,288.3936 170.8802,286.2736 170.5832,286.0956 C170.5062,286.0496 168.7022,285.1136 168.5252,284.8596 C168.3802,284.6526 166.2552,283.9866 167.0842,282.8026 C167.3202,282.4646 168.4402,281.0846 168.5252,280.7436 C168.6962,280.0616 170.1152,278.3896 169.3472,277.4516 C168.6242,276.5666 169.1162,275.4586 167.4962,275.1886 C167.0882,275.1206 165.0922,274.9586 165.0262,274.7766 C164.7512,274.0226 164.6632,273.1706 164.2032,272.5146 C163.7222,271.8276 162.4402,271.2296 162.7612,270.4556 C163.3152,269.1286 162.9862,269.0216 163.7912,267.9866 C163.8972,267.8516 165.0932,266.2036 165.2322,266.1356 C166.0612,265.7216 165.9292,265.1926 166.8792,265.3126 C167.8112,265.4296 168.3352,265.9366 168.5262,265.5186 C168.9212,264.6486 168.7952,263.8626 169.5542,263.2546 C170.2062,262.7346 170.7722,261.7386 171.6132,261.6086 C172.5642,261.4616 173.5692,261.6556 174.2892,261.1966 C175.4322,260.4696 175.8552,260.7526 176.5522,259.7576 C177.1942,258.8436 177.4802,258.5556 177.9942,257.6986 C178.4862,256.8796 179.0022,257.1166 179.2292,255.6416 C179.3792,254.6696 179.3312,253.4816 179.6402,252.9666 C179.9082,252.5216 180.1592,250.9076 180.8762,250.9076 C181.0052,250.9076 182.6912,250.9636 182.9332,250.9076 C183.5572,250.7646 185.4112,250.8876 185.6102,250.2906 C185.8732,249.5006 186.6282,249.0866 186.4322,247.8216 C186.2632,246.7226 186.2272,246.0376 186.0212,245.1466 C185.8622,244.4546 185.6632,243.4236 185.4042,242.4726 C184.9872,240.9396 186.3042,240.7916 184.7872,240.2086 C183.7572,239.8136 182.9022,239.5746 182.1112,239.1806 C181.4492,238.8496 180.3322,238.3486 179.6402,237.9446 C179.0462,237.5986 177.4122,237.3456 177.1712,236.5046 C176.8862,235.5106 177.0452,234.4946 176.3472,233.6236 C175.6282,232.7246 175.9362,231.9186 174.7012,231.5656 C173.8142,231.3126 172.4952,231.4176 171.8202,230.7426 C171.1812,230.1056 170.3742,229.7836 169.9682,228.8916 C169.6632,228.2206 169.5172,227.3346 168.9392,226.6276 C168.3192,225.8696 167.9092,225.2696 167.0872,224.3646 C166.7042,223.9426 165.8742,222.0306 165.0292,222.1016 C164.8712,222.1146 162.8482,222.5006 162.5582,222.3076 C161.9462,221.8976 160.5582,221.5216 160.0892,220.6606 C159.6922,219.9346 159.5352,219.5636 158.8542,218.3976 C158.4012,217.6216 157.9462,216.7656 157.4132,215.9296 C156.9932,215.2696 156.2422,214.4746 155.9712,213.6656 C155.7412,212.9736 155.6452,212.0026 155.1492,211.1966 C154.6532,210.3916 153.9282,209.5186 153.5022,208.5216 C153.2802,208.0036 152.0802,206.1556 152.2662,205.6416 C152.5062,204.9826 152.6912,204.2426 153.0902,203.3776 C153.1942,203.1536 154.4952,201.0096 154.3252,200.7026 C154.1032,200.3046 153.7312,199.5336 153.2962,198.8516 C152.6932,197.9036 152.7162,197.4476 151.8552,196.5866 C150.9672,195.6986 150.5472,195.3546 149.7972,194.5286 C149.2642,193.9436 148.2792,192.9596 147.7392,192.2666 C147.3632,191.7826 146.2982,191.0646 146.2982,190.4136 C146.2982,190.2696 146.6142,188.6476 146.2982,188.1506 C145.8872,187.5066 145.7092,186.6256 144.8572,185.8886 C144.8052,185.8446 144.7562,185.7846 144.7032,185.7336 L144.7032,185.1046 C145.5492,185.7946 146.0492,186.2136 146.2982,186.7106 C146.9012,187.9176 147.7182,186.9696 148.5622,187.1226 L150.8262,187.5346 C151.5932,187.6736 152.5042,186.0106 153.0902,185.4776 C153.6962,184.9276 154.2182,184.3496 154.7372,183.8306 C155.5112,183.0576 156.2142,182.6226 157.0012,181.9796 C157.9162,181.2306 158.3912,181.0946 159.2642,180.5386 C160.4852,179.7646 160.9162,180.3036 162.1462,180.1266 C163.0042,180.0046 164.1462,180.4596 164.6162,180.5386 C166.0772,180.7826 166.1532,179.7006 166.8802,179.3046 C167.2472,179.1046 168.2182,178.2626 168.7322,177.8636 C169.6492,177.1506 169.9522,176.7676 170.7902,176.0126 C171.7292,175.1676 171.9422,174.8606 172.4372,174.3656 C173.2292,173.5736 173.7602,173.7036 174.4952,173.3366 C175.2902,172.9396 175.8992,172.6996 176.7592,172.3086 C176.8502,172.2666 178.6582,171.7386 178.8172,171.6906 C179.5512,171.4716 179.5032,170.3186 179.8452,169.6326 C180.0922,169.1416 182.1762,169.1346 182.7272,169.0166 C183.8042,168.7846 184.5522,168.3136 185.4032,167.9866 C185.9462,167.7786 187.3292,167.5056 187.8732,167.3696 C189.1512,167.0506 188.7392,166.6966 189.7242,165.9306 C190.6292,165.2286 190.8542,165.1786 191.5772,164.6946 C191.9072,164.4756 194.4262,164.6946 194.6642,164.6946 C195.2622,164.6946 196.4892,163.0536 196.7212,162.8426 C197.0692,162.5306 198.5662,161.6706 198.9862,161.4026 C199.9462,160.7916 198.9862,160.0126 198.9862,159.3456 C198.9862,158.4856 198.1632,157.8356 197.7512,157.0816 C197.3032,156.2636 199.5352,156.5326 200.4262,156.2586 C201.0772,156.0596 202.2612,156.7176 202.8972,156.8756 C204.3062,157.2286 203.7582,157.3546 204.7492,157.9036 C205.5312,158.3386 204.8852,159.6876 204.9552,160.5786 C204.9852,160.9746 206.7242,161.0216 207.4252,161.1956 C207.7812,161.2846 206.7872,162.9486 206.6022,163.4586 C206.2712,164.3676 208.3802,164.9126 208.8662,165.3116 C209.9262,166.1786 210.4952,164.8226 210.9242,164.6936 C211.6202,164.4856 211.9152,162.7116 212.1592,162.2256 C212.6602,161.2256 212.7102,160.2976 212.9822,159.3446 C213.1992,158.5876 213.4282,157.5586 213.5982,156.8746 C213.8402,155.9096 213.5982,155.4816 213.5982,154.1996 L213.5982,151.1136 C213.5982,150.3766 214.1542,149.4486 214.4222,148.6456 C214.7602,147.6296 213.9832,146.4496 213.8042,145.5586 C213.6982,145.0226 212.8552,143.8166 212.5702,143.2956 C212.1312,142.4906 213.2502,141.9366 213.5982,141.2376 C213.6222,140.0116 212.5432,139.2516 211.7472,137.9456 C211.4672,137.6046 209.3032,137.5696 209.0712,137.5346 C208.3792,137.4276 207.7502,137.2646 207.1542,137.1096 L207.1542,136.1466 C207.9372,136.2046 207.5482,135.8466 208.0412,135.6826 C208.1702,135.6396 208.4202,133.4096 208.4532,133.2136 C208.5942,132.3636 207.0382,131.9556 206.6002,131.5676 C205.7632,130.8236 206.3362,130.8596 205.9842,129.9216 C205.4932,128.6126 204.9772,128.6626 204.3372,127.8636 C203.4882,126.8026 204.1782,126.5976 204.1312,126.2176 C204.0992,125.9706 205.2192,124.4036 205.3662,124.1596 C205.8722,123.3156 205.6542,122.1416 205.7782,121.2786 C205.8592,120.7096 206.3862,119.4526 206.6002,118.8096 C206.7592,118.3346 206.2942,116.6566 206.1892,115.9286 C206.1352,115.5586 206.3302,113.9526 206.3952,113.0476 C206.5012,111.5666 206.2812,111.6846 206.1892,110.5786 C206.1682,110.3196 203.9982,109.3836 203.9252,109.3436 C203.4662,109.0926 203.1172,107.5656 202.8962,107.0806 C202.3832,105.9506 202.5022,105.2436 202.2792,104.1996 C202.1442,103.5696 203.3062,102.6576 203.5132,102.3476 C204.0582,101.5296 203.7912,100.4076 203.9262,99.4666 C204.0232,98.7926 202.6002,97.6466 202.2792,97.2036 C201.6402,96.3266 200.8872,95.9516 200.2202,95.3526 C199.3462,94.5656 199.1672,93.9016 198.5742,93.0886 C198.0432,92.3596 196.7242,92.0936 195.8982,91.6486 C194.9682,91.1486 194.2542,90.2786 193.4272,89.5906 C192.5832,88.8866 192.2422,88.9316 191.5762,88.5626 C190.2452,87.8226 191.5762,87.3256 191.5762,86.0926 C191.5762,85.4436 193.3212,84.3486 193.6342,84.0346 C194.5862,83.0836 194.5332,82.2376 195.0752,81.1536 C195.4892,80.3266 196.0512,79.6196 196.5152,78.8906 C197.0792,78.0066 197.1942,77.1286 197.5452,76.2156 C198.1672,74.5996 198.8672,73.9506 198.9862,73.7466 C199.0282,73.4986 198.2012,71.5496 197.9572,70.8656 C197.4162,69.3496 197.2672,70.0936 196.6582,69.9786 C196.6792,69.9306 196.6982,69.8806 196.7212,69.8366 C196.8552,69.5936 197.0352,68.8976 197.3392,67.9846 C197.5032,67.4926 196.4952,65.9596 196.3092,65.5156 C195.9132,64.5636 196.1732,63.4586 196.1042,62.4296 C196.0672,61.8766 195.3932,60.4786 195.2812,60.1676 C194.9622,59.2876 194.9542,58.2076 194.8692,57.6976 C194.8562,57.6176 194.8552,57.5996 194.8432,57.5306 C194.7592,57.3876 194.6412,57.1316 194.4572,56.6696 C195.1382,54.8976 193.2362,55.3136 192.6052,54.6116 C192.3172,54.2926 190.4732,55.3216 190.1352,55.4356 C189.6432,55.5976 188.8212,53.7446 188.6942,53.5836 C188.0412,52.7426 187.0922,53.2126 186.0172,52.9656 C185.0102,52.7326 185.2602,51.5776 184.7832,50.7026 C184.2602,49.7456 184.0632,49.2626 183.7542,48.6456 C183.4462,48.0276 183.6172,47.2726 183.5482,46.5866 C183.5402,46.5066 182.0762,44.3786 181.9012,44.1176 C181.6932,43.8056 182.7152,41.6586 182.8902,41.2756 C183.3572,40.2666 181.9362,40.0936 181.4892,39.5916 C181.0762,39.1266 179.3552,39.4276 178.8132,39.3856 C178.1162,39.3326 177.4412,39.1116 176.7552,38.9736 C175.9882,38.8206 175.7952,40.2086 175.3142,40.8256 C174.7752,41.5196 174.2162,39.4536 173.6672,38.7686 C173.1362,38.1046 172.0202,38.3556 171.1972,38.1506 C170.9182,38.0816 169.4462,37.1956 168.9322,36.9166 C168.1842,36.5066 167.3332,36.1886 166.6692,35.8866 C165.5152,35.3626 166.4972,34.6796 166.4632,34.4466 C166.3912,33.9486 166.5432,33.7256 166.6692,32.5946 C166.7332,32.0216 165.9462,30.4266 165.8452,30.1256 C165.6102,29.4176 164.8842,30.8126 164.4052,31.1546 C163.9992,31.4446 163.4452,30.8806 162.9642,30.7426 C162.2122,30.5276 161.7292,31.7026 161.1122,32.1826 C160.8752,32.3666 158.9082,31.2646 158.6412,31.1536 C157.9912,30.8816 157.2712,31.4026 156.3782,31.5656 C155.5552,31.7146 155.6812,32.4936 155.1432,33.2116 C154.5822,33.9596 154.5062,34.9626 154.3202,35.4746 C154.0032,36.3446 153.3352,37.0506 153.2912,37.1206 C152.9172,37.7196 152.6052,35.8856 152.2612,35.2696 C152.0842,34.9476 153.3452,33.1006 153.4972,32.7996 C153.8342,32.1266 155.0222,31.4276 155.5542,30.9476 C156.2402,30.3326 157.3382,30.3986 158.2312,30.1256 C159.2322,29.8166 160.2322,29.6956 161.1122,29.5076 C162.1432,29.2866 163.0312,28.7706 163.7882,28.4796 C164.1742,28.3296 161.7232,28.4796 161.3182,28.4796 C160.4912,28.4796 159.4112,28.7506 158.4372,28.8906 C157.2372,29.0626 156.7782,28.1996 155.9672,27.8616 C154.5432,27.2696 155.0342,27.9546 153.9092,28.0676 C152.9732,28.1606 152.5482,29.2766 152.0562,29.7136 C151.4462,30.2566 151.6192,31.7596 151.4402,32.5946 C151.3822,32.8666 149.7042,34.3296 149.5882,34.4466 L147.9412,36.0926 C146.9932,37.0406 146.7422,37.5576 146.0892,38.3556 C145.5242,39.0456 146.0892,40.1386 146.0892,41.0306 C146.0892,41.7166 144.7172,41.0306 144.0312,41.0306 C143.9792,41.0306 143.0522,38.8786 143.0022,38.7686 C142.6382,37.9676 141.9042,40.1396 141.3552,40.8256 C140.5152,41.8746 139.9982,41.0966 139.2972,41.2376 C138.4872,41.3996 137.6502,41.1006 136.8272,41.0316 C136.1972,40.9796 135.5922,41.3056 134.9742,41.4436 C133.7362,41.7186 133.6422,42.2916 132.7112,42.8836 C132.2592,43.1706 133.3972,43.7076 133.7402,44.1186 C134.7142,45.2866 133.5772,45.0986 133.3282,46.5876 C133.2462,47.0776 132.7842,48.0836 132.5052,48.8506 C131.9942,50.2556 131.6592,49.9386 131.0642,50.7026 C130.7352,51.1266 130.2412,50.0166 129.8292,49.6736 C129.2982,49.2316 128.5442,48.3886 128.3872,48.2336 C128.1712,48.0166 126.4862,49.0976 126.1242,49.2626 C125.2342,49.6676 125.8442,49.2626 125.5072,49.2626 C124.2572,49.2626 125.0372,49.0616 124.0662,48.6466 C123.3082,48.3206 124.0662,47.0006 124.0662,46.1766 C124.0662,44.4436 122.1762,46.3486 121.8022,46.3826 C121.7382,46.3886 120.2992,48.4496 120.1552,48.6466 C119.7312,49.2286 118.3782,50.0996 117.8902,50.4986 C117.0182,51.2106 116.5552,51.8336 115.8332,52.5556 C114.5182,53.8686 115.4942,53.4336 115.2282,54.3426 C114.9052,53.8036 114.5762,53.2826 114.3912,52.9666 C114.0552,52.3906 114.0572,52.5216 113.7752,52.1446 C113.4622,51.7256 114.1872,51.1836 114.3912,50.7036 C114.9422,49.4206 115.0682,49.8346 115.8332,48.8526 C116.3852,48.1416 116.7682,47.7816 117.2742,47.2066 C117.5482,46.8926 116.6822,45.7276 116.4512,45.1476 C116.2702,44.6946 115.3032,44.4926 115.0102,44.3246 C114.2262,43.8766 115.2852,42.5426 115.4222,41.6496 C115.7302,39.6496 116.3652,41.9636 116.6572,42.0626 C118.5692,42.6986 117.1162,42.0106 118.5092,41.8556 C119.3692,41.7596 119.5952,40.1486 119.9502,39.5926 C120.4832,38.7536 121.0522,38.2156 121.5962,37.5346 C122.0662,36.9486 122.1862,36.3566 122.6262,35.4776 C122.8182,35.0926 122.2662,33.3236 122.2142,33.0076 C121.9812,31.6116 121.5942,31.7706 121.1842,30.9496 C120.8662,30.3126 118.9222,30.9496 118.7152,30.9496 C117.6652,30.9496 117.6742,32.4376 117.2742,33.0076 C116.6322,33.9246 115.3092,33.8256 114.8032,34.0366 C114.1512,34.3086 113.9072,33.6996 113.1572,33.4196 C112.5302,33.1856 111.6382,32.5916 110.8922,32.1856 C109.6942,31.5306 110.0312,31.3226 109.0412,30.3336 C108.3512,29.6426 107.3982,29.6476 106.5712,29.3036 C105.1062,28.6926 105.8142,30.4386 105.3362,31.1556 C104.8052,31.9506 103.9972,32.4946 103.6892,32.8016 C103.4422,33.0486 103.0032,32.9386 102.6602,33.0076 C101.7752,33.1856 102.9352,31.2246 103.0722,30.3336 C103.1932,29.5486 101.7512,29.0116 101.4252,28.6876 C100.7372,27.9996 99.7432,28.6876 98.9552,28.6876 C97.9932,28.6876 96.8742,28.9636 95.8682,29.0986 C95.0492,29.2086 97.1032,28.0016 97.7202,27.4526 C98.7172,26.5666 97.7202,26.2996 97.7202,25.6006 L97.7202,23.1316 C97.7202,21.8756 96.8052,22.5836 96.6912,22.5146 C96.0342,22.1196 96.0052,23.8866 95.6622,24.5726 C95.3422,25.2126 94.2902,24.9846 93.6042,25.1896 C93.0742,25.3486 92.5072,25.0526 91.9572,24.9836 C91.8892,24.9746 91.8202,24.9836 91.7512,24.9836 C90.9962,24.9836 91.8982,24.9246 92.7802,24.5716 C93.8052,24.1616 94.2362,23.1156 94.8382,22.5136 C95.5822,21.7706 95.9852,21.6216 96.6902,21.0736 C97.1562,20.7106 97.6512,20.3876 98.1312,20.0446 C98.6652,19.2436 98.2682,18.1246 98.3372,17.1636 C98.4282,15.8956 97.9852,15.9916 97.7202,15.1056 C97.4662,14.2596 95.8642,14.3326 95.2502,14.0766 C94.4242,13.7326 92.6352,14.0766 92.3692,14.0766 C91.2822,14.0766 91.0842,13.0486 90.3112,12.4306 C89.1502,11.5016 89.4082,12.4306 88.2532,12.4306 C87.4712,12.4306 87.1412,14.0196 86.8122,14.4886 C85.8092,15.9206 86.2352,14.8186 85.3712,15.3126 C85.1672,15.4276 83.2112,14.0516 82.9012,13.8716 C82.1342,13.4236 80.6962,12.9266 80.0202,12.6366 C79.1462,12.2616 78.4882,11.8706 77.5502,11.4016 C76.1982,10.7246 76.0092,11.4016 75.4922,11.4016 C74.9022,11.4016 74.8062,12.3616 74.4632,12.8416 C74.3982,12.9326 72.3052,11.4686 72.1992,11.4016 C71.6102,11.0266 70.0372,10.9026 69.5232,10.7846 C69.4242,10.7666 69.3352,10.7494292 69.2602,10.7494292 M194.8342,57.5326 C195.3002,58.3296 194.4562,55.1506 194.8342,57.5326 M66.1222,16.8966 C66.0922,16.8926 66.0592,16.8996 66.0192,16.9096 C65.5412,17.0326 64.3722,18.0926 63.7552,18.4016 C62.9862,18.7856 65.2642,19.2246 66.0192,19.6366 C66.7442,20.0316 66.1562,17.9906 66.2252,17.1676 C66.2552,16.9966 66.2122,16.9096 66.1222,16.8966 M61.7872,17.8356 C61.5432,17.7756 61.3202,19.5926 61.0792,20.2536 C60.7192,21.2436 61.3262,21.4886 61.4912,22.3116 C61.6122,22.9166 62.7262,22.3116 63.3432,22.3116 C63.8962,22.3116 64.3042,21.7626 64.7842,21.4886 C65.6402,21.9556 63.2752,20.2536 62.5202,19.6366 C62.0662,19.2656 62.1082,18.5396 61.9032,17.9906 C61.8672,17.8956 61.8212,17.8436 61.7872,17.8356 M173.9442,18.5936 C173.3092,18.6426 172.6192,18.8426 172.4262,18.8126 C170.9852,18.5906 171.1282,19.8216 170.5742,20.2526 C170.1512,20.5816 169.8872,21.0756 169.5452,21.4876 C168.2612,23.0266 169.8562,22.2656 169.9572,22.5166 C170.2222,23.1816 171.3292,22.9286 172.0142,23.1336 C172.4912,23.2756 172.8522,23.6336 173.2232,23.9826 C172.8212,23.9986 172.1052,25.0626 171.6032,25.3976 C171.1162,25.7226 170.5052,24.9856 169.9562,24.7806 C169.2462,24.5146 168.6412,25.9306 168.3082,26.2206 C167.7822,26.6816 169.2322,28.0666 169.3382,28.2786 L170.3672,30.3366 C170.8032,31.2096 169.2102,31.4926 168.9262,31.7766 C168.3262,32.3766 169.3382,33.4226 169.5432,34.2456 C169.9752,35.9766 170.0562,34.8326 170.9842,35.8916 C171.0972,36.0216 173.3672,36.6246 173.6602,36.7146 C175.6762,37.3346 174.5922,35.9896 175.5112,35.2746 C176.1462,34.7816 176.0612,33.7656 176.3352,33.0116 C178.3642,31.6496 178.6372,31.7906 179.8342,32.8056 C180.5392,33.1076 179.5582,34.3146 179.4222,35.0686 C179.2852,35.8226 181.4682,35.5286 181.8152,34.8366 C181.9972,34.5336 183.0622,33.4996 183.1272,33.4226 C183.3032,33.2106 182.4142,31.4636 182.3032,31.1596 C182.1312,30.6846 180.7222,29.7546 180.4522,29.5136 C179.5942,28.7526 179.5422,28.2146 179.0102,27.4556 C178.1692,26.2526 179.9822,25.5136 180.2462,24.9866 C180.9482,23.5826 179.1802,23.4656 178.8042,22.9286 C178.7212,22.8096 177.0062,22.6016 176.5412,22.5166 C175.0382,22.2426 175.6162,21.8226 174.8942,21.2816 C174.3422,20.8676 175.0312,19.9096 175.0992,19.2236 C175.1602,18.6446 174.5792,18.5446 173.9442,18.5936 M68.6172,23.5836 C68.5842,23.5816 68.5472,23.5876 68.5142,23.5966 C67.9502,23.7496 67.3852,25.2656 67.2532,25.3966 C66.5192,26.1306 67.6362,26.0666 68.0762,26.8366 C68.5202,27.6126 69.5852,25.8766 70.3402,25.3966 C71.0692,25.3966 69.3802,24.2996 68.8992,23.7506 C68.8072,23.6446 68.7152,23.5886 68.6172,23.5836 M173.4682,24.2006 C173.5322,24.2556 173.5942,24.3186 173.6612,24.3676 C174.5992,25.0716 174.2812,25.0746 175.1022,26.0136 C175.6412,26.6296 175.4242,27.7846 175.5132,28.2766 C175.6572,29.0636 174.6912,26.9046 174.2792,26.2186 C173.7562,25.3476 173.5052,24.3326 173.4682,24.2006 M72.6952,25.8086 C72.2312,25.9086 73.3772,27.2226 73.6342,27.8666 C73.8832,28.4886 74.3482,26.9856 74.7402,26.2336 C74.5202,26.2426 74.1122,26.1316 73.6982,26.0146 L74.8692,26.0146 C75.1022,25.6646 74.1872,25.9176 73.6342,25.9886 C73.3222,25.9006 73.0202,25.8296 72.8112,25.8086 C72.7652,25.8036 72.7262,25.8016 72.6952,25.8086 M74.8692,26.0146 C74.8292,26.0736 74.7822,26.1526 74.7412,26.2336 C74.8882,26.2266 74.9622,26.1756 74.8692,26.0146 M123.1332,25.9116 C122.6332,25.9546 121.9322,26.6846 121.5892,26.8376 C120.8052,27.1856 121.1772,28.4866 120.9712,29.3066 C120.9252,29.4926 122.7302,30.2836 122.8242,30.3356 C123.2342,30.5636 123.9472,32.3926 124.0582,32.5986 C124.4272,33.2716 124.3342,31.0896 124.4702,30.3356 C124.5062,30.1406 125.8022,30.1776 126.5682,30.1296 C127.9882,29.0646 125.6822,28.4356 125.2942,27.6606 C124.8502,26.7756 124.0892,26.5896 123.4422,26.0146 C123.3542,25.9366 123.2492,25.9016 123.1332,25.9116 M185.5212,40.0956 C185.0292,40.1416 184.6832,40.9156 184.4262,41.0086 C183.5602,41.4816 183.6112,45.0336 184.6202,43.9146 C185.0632,44.5056 185.1692,45.2866 185.4432,45.9726 C185.7662,46.7826 186.2152,44.7376 186.8322,44.1206 C187.7392,43.2136 187.5372,44.7246 188.2732,45.3556 C189.0952,46.0606 187.7132,47.4086 187.6562,47.6186 C187.4502,48.3726 186.1472,47.2066 185.3912,47.0016 C185.0672,46.9126 185.7812,49.3326 185.8032,49.4706 C185.9592,50.4026 187.3302,50.5376 187.8622,50.9106 C188.3032,51.2196 190.2232,50.5736 190.7432,50.4986 C192.6602,50.2246 191.4372,49.9786 192.3892,49.2636 C192.4202,49.2406 192.9742,46.7316 193.0072,46.5886 C193.8452,46.4356 190.9482,44.3436 190.7432,44.1196 C190.3462,43.6876 189.6452,43.7076 189.0952,43.5026 C188.6302,43.3536 188.3082,42.6036 187.6552,41.8566 C186.9982,41.1056 186.6142,40.8926 186.0602,40.3386 C185.8622,40.1406 185.6852,40.0796 185.5212,40.0956 M117.2662,58.8446 C117.6022,59.8346 117.6562,60.6276 116.8552,61.4036 C116.8342,61.4316 116.8132,61.4546 116.7912,61.4806 C116.8842,61.1466 116.9492,60.7726 117.2662,60.3746 C117.5272,60.0506 117.4292,59.4136 117.2662,58.8446 M10.1782,210.1386 L10.2422,210.1646 C10.4992,210.2716 10.6552,210.3136 10.7692,210.3186 L10.7692,210.5116 C10.5502,210.4356 10.3742,210.2826 10.1782,210.1386" id="Stroke-3" stroke="#E75F52" stroke-linecap="round" stroke-linejoin="round"></path>
        </g>
    </g>
</svg>