<?xml version="1.0" encoding="UTF-8"?>
<svg width="98px" height="301px" viewBox="0 0 98 301" version="1.1" xmlns="http://www.w3.org/2000/svg" xmlns:xlink="http://www.w3.org/1999/xlink">
    <!-- Generator: Sketch 64 (93537) - https://sketch.com -->
    <title>318</title>
    <desc>Created with Sketch.</desc>
    <g id="318" stroke="none" stroke-width="1" fill="none" fill-rule="evenodd">
        <g id="Group-5" transform="translate(1.000000, 0.000000)" fill="#FFFFFF" stroke="#E75F52">
            <path d="M96.4634,0.4998 L92.7614,0.9948 C90.7274,1.2678 87.8184,2.4118 86.2934,3.5398 C84.0244,5.2168 83.4094,6.4848 82.9094,10.4928 C82.3574,14.9148 82.0154,15.4908 79.4454,16.3868 C75.8274,17.6478 71.1444,17.6498 64.8054,16.3868 C61.2844,15.6858 59.0554,15.6748 57.2684,16.3598 C54.8034,17.3058 54.7324,17.5328 54.7324,24.4538 C54.7324,30.6248 54.4094,32.0448 52.3284,35.0478 C51.0074,36.9538 48.9674,39.1398 47.7964,39.9078 C45.1714,41.6268 43.2694,47.0568 44.0054,50.7398 C44.3204,52.3158 44.0294,54.5458 43.3164,55.9618 C42.6314,57.3218 41.7944,60.8638 41.4614,63.8258 C41.1274,66.7878 40.2964,70.3118 39.6144,71.6628 C38.9314,73.0148 38.0804,76.4088 37.7234,79.1998 C37.1404,83.7598 36.1804,87.5648 32.1394,101.3418 C30.4254,107.1858 22.0604,123.5508 18.2054,128.6008 C14.7554,133.1208 14.6794,134.9448 17.8424,137.8078 C19.6534,139.4458 19.6554,139.4768 17.5254,142.3138 C16.3454,143.8838 15.1074,145.8978 14.7764,146.7928 C14.4464,147.6888 13.1754,148.8098 11.9494,149.2758 C10.4214,149.8568 8.7014,152.2738 6.4714,156.9718 C4.6824,160.7418 2.5144,164.0908 1.6554,164.4198 C-0.5676,165.2738 0.1164,168.9968 6.3654,189.9198 C7.6534,194.2338 9.1624,199.3208 9.7224,201.2308 C10.2834,203.1408 12.3344,206.4668 14.2734,208.6178 C16.2124,210.7668 17.8224,212.7278 17.8514,212.9818 C17.8814,213.2358 18.0054,217.1798 18.1344,221.7478 C18.3734,230.1978 18.7684,231.4398 23.4364,238.4558 C24.7494,240.4288 26.0784,243.3328 26.3874,244.9058 C26.6954,246.4788 27.9904,250.0558 29.2674,252.8488 C31.5674,257.8758 36.2744,271.4838 36.2744,273.1088 C36.2744,273.5728 37.5174,276.6218 39.0404,279.8768 C41.2934,284.6958 41.8144,287.0028 41.8144,292.2918 C42.1204,302.5178 42.3024,302.2748 52.2144,296.5588 C56.3194,291.6368 55.8354,293.9578 56.4734,287.5108 C56.6254,280.1768 58.6454,271.6618 61.7564,265.2718 C62.4564,263.8348 63.0284,261.5058 63.0284,260.1028 C63.0284,258.6998 63.6014,256.3458 64.3014,254.8728 C65.1364,253.1148 65.9154,245.4688 66.5634,232.6318 C67.3074,217.8958 67.9174,212.3548 69.0464,210.1718 C70.5274,207.3078 75.0274,193.9168 75.0274,192.3688 C75.0274,191.9268 76.2714,189.9968 77.7934,188.0738 C79.3164,186.1518 80.5594,183.7128 80.5594,182.6578 C80.5594,181.6018 79.3164,177.6008 77.7934,173.7688 C74.6414,165.8338 74.5314,164.9418 76.3174,161.4878 C77.2294,159.7238 77.4734,157.1408 77.1214,152.7658 C76.6404,146.7598 76.5334,146.5548 74.1354,146.5548 C72.6544,146.5548 70.7524,147.5208 69.4174,148.9488 C66.3764,152.2048 62.8084,153.9328 59.1324,153.9328 C57.4434,153.9328 55.1274,154.5878 53.9814,155.3908 C52.4644,156.4528 50.8854,156.6788 48.1764,156.2208 C43.7944,155.4808 42.5984,153.4628 45.3834,151.5118 C46.6754,150.6068 47.3594,149.1258 47.3804,147.1908 C47.3994,145.5708 48.0074,143.2108 48.7334,141.9428 C49.4584,140.6738 50.0674,138.3088 50.0844,136.6938 C50.1214,133.4068 53.9264,129.9438 57.4974,129.9438 C58.6974,129.9438 59.7024,129.2418 59.9724,128.2118 C60.2214,127.2588 61.4234,126.0218 62.6494,125.4638 C65.6554,124.0938 65.7424,119.4688 62.7994,117.5738 C59.3174,115.3308 53.9694,114.7468 52.1344,116.4068 C49.9944,118.0928 47.2124,117.2008 50.6144,114.7818 C52.8264,113.3328 53.0054,112.8058 52.4524,109.3388 C52.1154,107.2258 51.6224,102.3028 51.3654,98.3998 C50.9514,92.1118 51.1294,90.9918 52.9294,88.5568 C54.5344,86.3858 54.8284,85.1088 54.3344,82.4778 C53.8574,79.9318 54.1404,78.5448 55.5364,76.5848 C56.5394,75.1748 57.4934,72.4068 57.6564,70.4258 C57.9474,66.8978 58.0804,66.7808 63.9564,64.6738 C67.2814,63.4818 70.8934,62.7578 72.0674,63.0478 C73.2334,63.3358 75.9344,65.3428 78.0674,67.5098 C82.0824,71.5888 86.2504,74.5878 87.9104,74.5878 C88.4364,74.5878 88.8644,73.3588 88.8644,71.8658 C88.8644,70.3738 89.2844,68.9018 89.7924,68.5878 C90.2994,68.2748 90.7114,64.9478 90.7114,61.2018 C90.7114,57.4558 90.2994,54.1378 89.7924,53.8238 C88.1674,52.8188 88.7974,50.4118 91.2944,48.0978 C93.4654,46.0858 93.6614,45.3698 93.1854,41.3478 C92.8924,38.8748 92.0254,35.6268 91.2504,34.1288 C89.9374,31.5898 89.9744,31.2408 91.7894,28.9338 C93.7814,26.3998 94.8804,20.6288 95.9244,7.3208 L96.4634,0.4998 Z" id="Fill-1"></path>
        </g>
    </g>
</svg>