<?xml version="1.0" encoding="UTF-8"?>
<svg width="158px" height="300px" viewBox="0 0 158 300" version="1.1" xmlns="http://www.w3.org/2000/svg" xmlns:xlink="http://www.w3.org/1999/xlink">
    <!-- Generator: Sketch 64 (93537) - https://sketch.com -->
    <title>321</title>
    <desc>Created with Sketch.</desc>
    <g id="321" stroke="none" stroke-width="1" fill="none" fill-rule="evenodd">
        <g id="Group-5">
            <path d="M17.3798,238.241 L17.8548,238.059 C17.5928,237.549 17.3848,237.291 17.3438,236.72 C16.8448,236.157 16.5218,235.553 16.3818,234.82 C16.1218,233.452 16.2968,233.097 17.3358,232.097 L17.3578,230.86 L17.5158,231.044 L17.6138,231.733 L17.8528,231.835 L18.0308,231.572 L17.8528,231.248 L18.0938,230.983 L17.9738,230.721 L18.1148,230.417 C17.9248,230.202 17.5968,229.651 17.6408,229.343 L17.4828,229.158 L17.2818,229.359 L17.4808,230.11 L17.2398,230.537 C16.8518,228.56 15.8068,226.93 15.0668,225.097 C14.5208,223.743 14.0518,222.353 13.5078,220.998 C13.2178,220.273 12.8328,219.575 12.5578,218.845 C12.3448,218.279 12.2008,217.644 12.0268,217.062 C12.0018,216.976 11.8498,216.842 11.8288,216.758 C11.4028,215.051 11.0548,213.276 10.2668,211.686 L10.3668,211.22 L10.1108,210.611 C10.4448,209.97 10.0428,209.018 9.8748,208.411 C9.3458,206.485 8.8398,205.469 7.4698,204.024 C7.1318,203.667 6.6318,203.233 6.1248,203.104 L5.8688,202.353 C5.8318,202.392 5.4548,202.433 5.3908,202.434 C4.5598,201.89 4.0208,201.082 3.2638,200.503 C3.2168,200.468 1.9508,199.767 1.8718,199.732 C1.4118,199.528 0.8678,199.623 0.4998,199.222 L1.0378,198.494 C1.7948,198.227 3.5708,197.711 4.0058,197.099 L4.0798,197.097 C4.3198,195.785 3.7498,197.606 1.4168,197.704 L1.4998,196.327 C1.5178,196.019 1.3968,195.704 1.4218,195.434 C1.4758,194.809 1.9508,194.168 1.8408,193.53 L2.1998,193.145 C2.5128,193.108 2.8258,193.06 3.1358,193.005 L3.6938,193.248 L3.7338,192.419 C3.5158,192.325 3.0938,192.097 2.9578,191.888 C2.9708,191.615 2.8808,190.95 2.6208,190.775 L2.3418,190.775 C2.3148,190.334 2.1208,188.725 2.2868,188.425 L3.4018,188.324 L3.5828,188.181 C3.5258,187.689 3.4028,186.935 3.0068,186.601 C3.6398,186.137 3.3518,184.742 3.7478,184.008 C3.8338,183.838 5.8648,183.628 6.1588,183.587 L5.6418,183.22 L3.9488,183.319 L3.6098,182.995 C3.5478,182.827 3.9938,181.77 4.0718,181.557 L4.3308,181.496 L4.8498,180.99 L4.6118,180.443 L4.7928,179.935 L5.1898,179.634 L5.4098,179.105 L6.0298,178.723 L6.0908,178.519 L5.8318,177.93 L5.8928,177.648 L6.1108,177.486 C5.8678,177.283 5.6028,176.847 5.5558,176.531 L5.6958,175.984 L6.0548,175.825 L6.3148,175.155 L6.4948,175.035 L7.0118,175.278 L7.1928,175.219 L7.9888,175.665 L8.2678,175.645 C7.4948,175.161 7.0088,174.203 6.3588,173.535 L6.2978,173.149 C7.1778,171.682 7.1678,170.735 7.3218,169.099 L7.5238,168.937 L7.7008,169.099 L7.3978,171.206 L8.0778,171.087 L8.3168,171.308 L8.4958,171.209 C8.4488,170.981 8.5258,170.61 8.6558,170.42 L8.6178,170.257 L9.0598,168.919 L8.7198,167.783 L8.2628,167.763 L8.0428,167.579 L7.9638,167.134 L8.0848,166.871 L8.0048,166.506 L8.3858,165.838 L8.0058,165.695 L7.7078,165.168 L8.2088,164.157 C8.3528,164.153 8.6698,164.075 8.7498,163.933 L8.9678,163.956 L9.1288,163.49 L8.5508,163.205 L8.4308,163.325 L7.8128,163.387 L7.5748,163.083 C7.7518,162.803 7.7378,162.234 7.5948,161.946 L7.9768,161.542 L8.2368,160.407 L9.1968,160.309 L9.3168,160.186 C8.4908,160.071 7.5868,158.993 7.7228,158.138 L9.4578,157.878 L9.0608,157.512 L8.0238,157.591 L7.9238,157.308 L8.2448,156.741 L7.8648,156.356 L7.8478,155.971 L8.4048,156.012 L8.6058,155.446 L8.1288,155.566 C7.9658,155.376 7.5798,155.21 7.3298,155.22 L7.1698,154.815 C7.6118,153.272 7.0548,151.277 6.8588,149.71 L6.5588,150.135 L6.3998,149.953 C7.7968,147.24 7.8808,143.867 10.1718,141.675 L10.4918,141.635 C10.6488,141.792 10.5898,142.297 10.5898,142.506 L11.0698,142.082 L11.4098,142.629 L11.9218,142.763 L12.3348,143.195 C12.3578,142.831 11.2978,141.725 11.0528,141.433 C10.8998,140.872 11.2608,140.428 11.3558,139.914 C11.4028,139.658 11.3218,139.345 11.3558,139.083 C11.4328,138.498 11.7038,137.071 12.2608,136.656 L12.2218,136.413 L11.7418,136.534 L11.5838,136.411 C12.0278,135.525 13.2758,133.49 14.2298,133.197 L13.9698,132.974 C13.9648,132.684 15.1828,131.371 15.4158,131.095 L15.6538,131.075 C16.4328,130.253 17.0288,129.456 17.7008,128.529 L17.5828,128.184 C17.7968,126.517 18.9368,126.584 19.2488,125.758 C19.3568,125.47 19.3778,125.076 19.5118,124.805 C19.7048,124.417 20.0778,124.082 20.2748,123.694 C20.5838,123.085 20.7868,122.383 21.0618,121.754 C21.1658,121.516 21.3088,121.251 21.5108,121.095 L21.8048,120.866 C22.1238,120.1 22.4138,119.286 22.7728,118.539 C23.2198,117.61 24.2428,116.269 24.1418,115.171 L24.5018,115.171 C24.5948,113.84 25.5118,113.473 25.9648,112.32 L26.3658,112.271 L26.6678,111.557 C27.2018,111.478 27.9638,110.92 28.3028,110.526 L28.6838,110.68 C28.9208,109.822 29.5268,108.561 30.2318,107.991 C30.4998,107.775 30.9278,107.721 31.1508,107.432 C31.1318,107.192 31.1968,106.621 31.4188,106.461 L31.3678,106.275 L30.9818,106.437 C30.8418,106.036 31.3968,104.532 31.5238,104.103 L31.3628,103.733 L32.3138,102.308 L32.2618,102.087 C32.8018,101.076 34.7188,99.446 35.6508,98.409 L36.3648,98.402 L37.0498,98.964 L37.4708,98.988 C37.6738,99.045 37.9688,99.806 38.0578,99.991 L38.2778,100.014 C37.9148,98.268 37.2078,97.882 35.6288,97.433 L35.5568,97.212 L36.5678,95.438 C36.6038,95.374 36.9168,95.196 36.9568,95.129 C37.2468,94.642 37.4198,94.055 37.6898,93.554 C38.0228,92.935 38.3328,92.638 38.6088,91.836 C38.5448,91.616 38.4688,91.394 38.4168,91.169 L38.8538,89.83 L39.3098,90.058 C39.4218,89.749 39.7778,89.243 40.1078,89.128 C40.0018,87.945 40.3458,86.111 41.2568,85.294 C41.2288,84.901 41.3768,84.296 41.6038,83.97 C42.3488,83.773 43.2318,82.019 43.0138,81.282 C43.3268,80.97 43.5928,80.415 43.6718,79.984 C43.8588,79.804 44.5748,79.758 44.8118,79.761 C44.4998,79.187 44.4868,78.566 44.9068,78.085 L45.3298,78.035 C45.6108,77.754 46.0188,77.07 45.9538,76.644 L46.2108,76.573 L46.5648,76.156 L46.8768,76.104 C47.3688,74.978 48.1458,74.835 48.7168,74.105 C48.8028,73.995 49.1348,73.076 49.2478,72.894 C49.5248,72.45 49.9678,72.079 50.2538,71.639 C50.2878,71.587 50.5858,70.289 50.6438,70.132 C50.8568,69.562 51.2298,68.991 51.4018,68.412 C51.5708,67.848 51.5108,67.141 51.7028,66.592 C52.0038,65.731 52.5568,64.804 52.9518,63.973 C53.0138,63.844 53.0298,63.426 53.0898,63.277 C53.3938,62.533 53.9258,61.844 54.3888,61.194 C54.5368,60.984 55.0918,61.088 55.3048,61.061 C55.7478,61.004 56.2868,60.733 56.7238,60.735 C57.1518,60.737 57.7248,61.017 58.1328,60.774 L57.4458,60.172 L57.2908,59.618 L57.0688,59.633 L56.9638,59.242 L57.5358,57.982 C58.3248,57.885 58.6978,57.228 58.9868,56.549 C59.8428,56.007 61.9038,55.825 62.8488,55.967 C62.8818,55.972 63.8968,56.506 63.9948,56.556 C64.0178,56.568 65.4568,56.513 65.5718,56.509 L65.7788,56.144 C65.2358,55.891 64.7008,55.934 64.1148,55.913 L63.8828,55.503 L63.4768,55.626 L63.2448,55.29 L63.0048,55.324 C63.5908,54.412 64.3498,53.858 65.0608,53.089 C65.6128,52.492 65.2788,51.241 65.8528,50.576 C66.0808,50.312 66.4338,50.073 66.7078,49.84 C66.7858,49.773 67.0978,49.667 67.2098,49.622 L67.4998,49.811 C67.6638,49.613 68.1208,49.266 68.4078,49.31 C68.4378,49.267 68.6038,49.053 68.6138,49.018 C68.7658,48.53 68.8928,47.988 69.0808,47.514 C69.1068,47.449 69.3318,47.238 69.3418,47.188 C69.4258,46.77 69.7498,44.574 70.0508,44.398 L70.3658,44.273 C70.2078,43.769 69.9878,42.816 70.1048,42.279 L69.8498,42.126 L69.7628,41.81 C69.8558,41.364 70.2308,40.739 70.5948,40.46 L70.9068,40.429 L71.2888,40.693 L71.7668,40.683 C71.8638,40.512 71.8348,40.165 71.7418,40.001 L72.2218,39.898 L72.4648,39.552 L72.1458,38.902 C72.4908,38.306 72.3768,37.688 72.6358,37.067 C72.7798,36.722 72.9818,36.377 73.1488,36.042 C73.1608,36.017 73.9048,35.328 73.9538,35.281 L74.5968,35.33 L74.8018,35.168 C74.6958,34.965 74.1068,34.801 73.9068,34.765 C74.1868,33.775 74.6548,32.911 75.6568,32.471 L75.4978,32.118 L75.6338,31.733 C75.9488,31.491 76.3588,31.236 76.6398,30.96 C76.7118,30.889 76.8618,30.543 76.9428,30.447 C77.0178,30.359 77.4108,30.06 77.4468,29.996 C77.7628,29.433 77.9968,28.71 78.2528,28.112 L78.1478,27.906 C78.3488,27.369 77.9838,26.929 78.3018,26.36 C78.8258,25.423 79.5018,24.63 80.2058,23.83 C80.5948,23.389 81.9498,22.992 82.4348,22.692 C83.0288,22.323 83.5388,21.765 84.1348,21.396 C84.6118,21.1 85.2328,20.962 85.7478,20.65 C85.8638,20.58 85.9178,20.515 86.0458,20.471 C86.3998,20.349 86.8628,20.394 87.2288,20.292 C87.8268,20.124 88.5498,19.857 89.1188,19.61 C89.4508,19.467 89.8348,19.054 90.2148,19.058 L90.3768,19.19 C90.4808,19.096 91.4168,18.224 91.4658,18.197 C91.9538,17.92 92.6798,17.81 93.2078,17.586 C93.4518,17.482 93.6698,17.262 93.9148,17.157 C94.6328,16.846 95.5228,16.475 96.2728,16.263 C97.2288,15.993 98.0808,16.204 99.0128,16.411 C99.2298,16.459 99.5808,16.396 99.8048,16.391 L100.4428,15.815 C101.4388,15.429 102.7468,15.969 103.7788,15.623 C104.2678,15.46 104.7738,15.023 105.2518,14.806 C105.7808,14.565 106.4028,14.453 106.9228,14.195 C107.6788,13.819 109.9878,11.997 109.9688,11.162 L109.1908,10.517 L110.1268,9.798 L110.4898,8.922 C110.8038,8.163 111.1438,8.203 111.5368,7.634 C111.5618,7.598 112.0968,6.451 112.1158,6.393 C112.1398,6.323 112.0648,6.04 112.0878,5.969 C112.2368,5.499 112.5098,4.998 112.7068,4.543 L113.5888,4.801 C114.3968,4.182 114.4818,3.894 114.7328,3.037 C115.1548,2.818 117.5008,1.764 117.5548,1.366 L118.2658,1.675 C118.6558,1.574 119.0828,1.386 119.4208,1.167 L119.3698,0.907 L119.4878,0.632 C119.6578,0.5 120.6398,0.97 120.8448,1.052 L121.1608,0.892 L121.7308,0.978 L122.5348,0.5 L122.9948,0.547 L123.4658,0.964 C123.7718,0.95 124.2088,1.075 124.4938,1.17 C125.0198,2.043 125.4638,1.833 125.8738,2.144 C127.4358,3.326 127.4898,4.294 127.8858,6.047 L128.2098,6.386 L128.8788,6.253 L129.0578,6.462 L128.8948,7.139 L129.6048,8.336 C129.9248,8.561 130.6858,8.957 131.1038,8.908 L131.3908,8.454 L131.8318,8.444 C131.9928,8.243 132.4928,7.715 132.7718,7.674 L132.8598,7.86 L132.1548,8.766 L132.2758,9.139 L131.7418,9.919 C131.7598,10.418 133.1098,11.107 133.5518,11.345 L133.6448,12.068 L133.8258,12.201 L134.6238,12.016 L135.3448,12.625 L135.6598,12.576 L135.9668,12.844 L136.6298,12.932 L136.5228,13.538 L136.8608,13.952 L136.7838,14.134 L136.4488,14.293 L136.0858,14.063 L135.9868,15.113 C136.2698,14.699 137.0258,14.33 137.4998,14.245 C137.5618,13.957 137.8088,13.424 138.0778,13.263 L137.7308,13.143 L137.7148,13.033 L138.1848,12.584 L138.6628,12.631 L138.7868,12.836 L138.6688,13.148 C139.4118,13.198 139.8408,14.275 140.2808,14.294 L140.4668,14.225 L140.5308,13.877 L140.9708,13.943 C141.0108,14.188 141.2108,14.727 141.4658,14.841 L142.3658,14.864 C142.4528,15.17 142.5298,15.48 142.6038,15.791 L143.1718,15.843 C143.5998,14.71 145.3588,15.106 145.9738,15.82 C146.5478,15.574 147.6418,15.704 148.1398,16.078 L149.9308,15.865 L150.2338,15.524 L150.4928,15.585 L150.4438,16.026 L150.0648,16.441 L150.2228,16.703 L150.6668,16.696 C150.7128,16.997 150.6218,17.574 150.3818,17.795 C150.5878,18.249 150.1178,18.975 150.1788,19.265 C150.3158,19.923 150.6798,20.869 151.2698,21.249 L151.1308,21.652 C151.4838,22.47 151.2388,24.148 152.2368,24.52 L151.8968,24.881 L152.2788,25.021 C152.7298,24.779 153.0698,24.796 153.5188,24.702 C154.5008,24.496 154.8388,24.113 155.7428,24.797 L156.0778,25.47 L156.2988,25.438 L156.6168,25.151 L157.2498,25.592 L157.3148,25.946 C157.2448,26.299 156.6688,26.5 156.3618,26.53 C156.0498,26.868 155.7418,27.305 155.3968,27.592 C155.3418,27.637 155.0668,27.699 154.9878,27.746 C154.7008,27.92 154.4718,28.244 154.1788,28.409 C153.9138,28.559 153.4538,28.643 153.1668,28.737 C151.6718,29.224 150.7698,29.619 150.2668,31.15 C149.6798,31.285 149.5198,31.815 149.0838,32.097 C148.0768,32.749 148.1688,31.905 147.6418,33.4 C147.5798,33.573 147.4578,33.876 147.5248,34.087 C147.0008,34.898 146.5148,35.462 145.7848,36.054 L145.0178,36.678 C144.9428,36.763 144.5998,37.506 144.4988,37.661 C144.2638,38.021 143.9398,38.334 143.6988,38.692 C142.8498,39.963 142.0108,45.61 142.1458,47.488 C142.2408,48.822 142.6958,50.047 143.1358,51.293 C143.1508,51.334 143.1598,51.605 143.1638,51.663 L142.5348,51.813 L142.6798,51.965 L143.2628,52.11 L143.4238,52.316 L143.3588,52.738 C143.3868,52.791 143.6188,53.193 143.6218,53.224 C143.7568,54.408 143.8548,55.616 144.0298,56.794 C144.1928,57.891 145.2858,60.2 146.0908,60.994 C146.4158,61.315 147.0068,61.408 147.4358,61.526 L147.5048,61.659 L147.4438,61.877 L145.8368,61.597 L145.5508,62.105 C145.5458,62.682 145.6088,63.137 146.1048,63.467 L146.3648,63.251 L146.6568,63.315 L146.7778,63.649 L146.4798,63.899 C146.0598,64.659 146.9428,67.752 146.3918,68.121 C145.6278,68.206 144.7568,68.533 144.0828,68.891 C143.6958,69.221 143.7318,70.194 143.8578,70.638 C144.3098,70.859 144.7188,71.656 144.8108,72.118 L145.3748,72.243 L145.4428,72.467 L145.2568,72.646 C144.2318,72.633 143.1098,73.645 142.4328,74.29 C142.2878,75.65 141.1148,76.065 140.7968,76.812 C140.4158,77.707 140.0988,78.509 139.9628,79.484 C139.8898,80.012 139.9278,80.58 139.8338,81.103 C139.6848,81.941 139.3838,82.839 139.0608,83.622 L138.4788,85.033 C138.4348,85.22 138.4848,85.334 138.4898,85.525 L138.5158,86.51 C138.5078,86.804 138.2168,87.306 138.4008,87.575 C138.3358,87.815 138.2048,88.416 137.9908,88.617 C137.7078,88.885 136.7088,89.706 136.6398,90.077 C136.5378,90.633 136.4838,91.512 136.2818,92.023 C136.2228,92.175 136.1208,92.221 136.0198,92.348 C135.4878,93.005 135.1198,93.556 134.1818,93.52 C133.8478,93.654 133.3668,94.754 133.2518,95.065 C132.9018,95.278 131.1698,96.3 131.1028,96.378 C130.1838,97.432 129.6298,98.324 129.1458,99.685 C130.1248,101.855 129.9638,101.801 129.3188,104.076 C129.1538,104.659 127.1938,105.976 126.7258,106.596 L126.1678,107.591 C126.0098,107.873 125.7758,108.263 125.7668,108.618 L125.8208,109.455 C125.8388,109.734 125.8658,110.111 125.9998,110.375 C126.8998,112.143 126.7518,112.205 128.1548,113.54 C128.4528,113.824 128.4848,114.805 128.3438,115.169 L127.9748,115.169 L127.6838,115.763 C126.1668,116.615 125.0628,118.164 125.2568,119.988 L125.5708,120.457 L125.4718,120.619 L125.6298,120.761 C125.0608,122.448 125.2668,123.483 124.9838,125.067 C124.8298,125.928 124.7108,126.823 124.5178,127.675 C124.3588,128.369 123.8678,129.091 123.6338,129.772 C123.4718,130.242 123.3678,130.763 123.2378,131.245 C123.1088,131.727 122.5248,132.061 122.4648,132.675 C122.3948,133.393 122.3688,134.302 122.4008,135.023 C122.4198,135.47 122.6078,135.936 122.6258,136.382 C122.6368,136.646 122.3378,137.287 122.2488,137.472 C122.0068,137.978 121.7828,138.445 121.4868,138.923 C120.7908,140.05 120.3988,140.488 120.9908,141.753 C120.8638,142.11 120.6538,142.502 120.5808,142.862 C120.4008,143.74 120.3828,144.684 120.1748,145.553 C120.1538,145.642 119.8208,146.128 119.7678,146.258 C119.4928,146.922 119.3338,148.007 119.2638,148.704 C119.1988,149.334 119.3138,150.023 119.2258,150.647 C119.2188,150.692 118.6008,153.283 118.5378,153.417 C118.3008,153.924 117.8788,154.428 117.6848,154.945 C117.5258,155.365 117.5618,155.926 117.4298,156.362 C117.3448,156.644 117.0778,156.925 117.0018,157.208 C116.8568,157.749 117.0068,158.485 117.0908,159.02 C117.1508,159.399 117.2978,159.978 117.7538,160.094 L117.7688,160.436 L118.0058,160.724 C116.8448,162.029 116.7148,162.548 116.4998,164.328 C116.4638,164.631 116.4838,164.808 116.4058,165.103 C116.2618,165.657 115.8478,166.359 115.6098,166.894 C115.2978,168.337 115.3978,168.052 114.6508,169.159 C114.6088,170.053 114.6358,171.031 114.5248,171.915 C114.4838,172.234 114.2228,172.583 114.1768,172.904 C114.1628,172.997 114.3058,173.426 114.2898,173.512 C114.1738,174.18 113.8978,174.915 113.7128,175.573 C113.7048,175.599 113.5538,175.801 113.5288,175.835 L113.0288,175.891 C112.6748,176.099 111.2088,178.081 111.1528,178.325 C111.0638,178.725 111.0018,179.239 110.8608,179.619 C110.8198,179.729 110.4818,180.114 110.4578,180.203 C110.2548,180.979 110.1858,181.893 110.0568,182.69 L110.3688,183.323 C110.4748,183.904 109.2008,184.634 108.8988,184.95 C108.1428,185.738 108.8888,187.97 109.3618,188.723 L108.7298,190.542 C108.8468,190.732 108.8648,191.104 108.8008,191.312 L109.2688,192.311 L109.5678,192.436 L109.7038,192.659 L108.9818,193.361 L108.4458,193.175 C108.2468,193.626 107.8168,194.514 107.4538,194.867 L106.4188,194.838 C106.0498,195.088 105.1658,195.845 105.0718,196.325 L105.2278,196.752 C104.2538,197.479 104.6488,197.616 104.4528,198.548 C104.3088,199.239 104.0668,199.948 103.8788,200.631 C103.7918,200.944 103.4998,201.2 103.4328,201.639 L103.0508,201.922 L102.9478,202.345 C102.2988,202.621 102.5538,203.813 102.4548,204.125 C102.0648,205.364 101.1648,206.347 100.3588,207.329 L99.7808,207.446 C98.9368,208.356 98.7278,210.102 98.1778,211.203 C97.7908,211.977 97.0098,213.191 96.4648,213.862 C96.4438,213.887 95.7208,214.28 95.6458,214.321 C95.6178,214.545 95.4608,215.107 95.2398,215.231 C94.3538,215.11 93.5028,215.383 92.7968,215.955 L92.1688,216.464 C91.9818,216.648 91.7148,217.696 91.7408,217.88 C91.8868,218.922 92.8548,220.646 92.2838,221.714 L91.9678,221.754 C91.9198,221.804 91.5208,222.226 91.5068,222.257 C91.3648,222.565 91.3448,223.018 91.2378,223.348 C91.0688,223.875 90.6578,224.613 90.3518,225.086 C90.3018,225.108 89.9328,225.262 89.9118,225.284 C89.0578,226.162 88.1908,227.204 87.2688,228 C86.8028,228.403 86.0268,228.77 85.4928,229.101 C84.9958,229.41 84.2218,229.52 83.6798,229.796 C82.9628,230.161 82.4228,231 81.7618,231.445 L80.4858,232.22 C80.0718,232.471 79.9788,232.512 79.8968,232.57 C79.8318,232.617 79.7758,232.676 79.5678,232.862 L79.0078,233.371 C78.7398,233.753 78.4008,234.489 78.2228,234.927 C77.6298,236.388 77.8688,239.058 77.0358,240.049 C76.5558,240.62 75.8458,241.06 75.3788,241.638 C75.3578,241.666 74.7178,242.894 74.6958,242.951 C74.3468,243.88 74.1148,244.88 73.8038,245.824 C73.5558,246.58 73.1968,247.345 72.9938,248.111 C72.7368,249.077 72.5938,250.127 72.3988,251.109 L72.2778,251.208 C71.8928,252.304 71.5478,253.454 71.1098,254.527 C70.9758,254.854 70.6418,255.168 70.5278,255.497 L68.9728,259.989 C68.9358,260.096 68.6038,260.454 68.5538,260.575 C68.3478,261.078 68.1558,261.765 68.0268,262.296 C67.4448,264.707 68.0918,268.835 68.4668,271.286 C68.4698,271.308 68.4398,271.366 68.4318,271.389 C68.3988,271.494 68.1498,272.217 68.1438,272.277 C68.1068,272.625 68.2318,273.037 68.2168,273.392 C68.1978,273.846 67.8918,274.388 67.9088,274.83 C67.9288,275.322 68.0808,275.902 68.1588,276.393 L67.8148,277.264 C67.9978,277.675 68.0628,278.307 67.9638,278.746 L68.2038,278.829 L68.2798,278.992 C66.1838,280.615 68.3988,281.929 68.4358,282.704 C68.3798,282.829 67.7328,284.255 67.7338,284.282 C67.7738,285.346 67.7008,286.44 68.0898,287.449 C68.1938,287.718 68.5728,288.16 68.4608,288.468 C67.9428,288.754 67.2968,289.607 67.2828,290.224 L66.7668,290.403 L66.6468,290.708 L66.7228,291.135 C66.4688,292.12 64.3018,292.474 64.1628,292.68 C64.2098,293.286 64.0228,293.927 63.9068,294.512 C63.5398,296.364 64.4068,297.32 65.3508,298.795 L65.2888,299.504 L65.6008,300.154 L65.5208,300.377 C65.3648,300.519 64.9548,300.517 64.7688,300.475 L64.4548,300.269 L64.0078,298.928 L63.4358,298.863 C63.1478,298.447 62.5748,297.676 62.1398,297.393 L61.3878,297.307 L60.8188,296.717 L60.6388,297.101 L60.4608,297.182 L60.2268,296.634 C59.9868,296.379 59.2838,296.283 58.9638,296.3 L57.5078,295.218 L57.2698,295.257 L56.1768,296.385 C56.0578,297.086 55.8308,298.809 54.9378,298.894 L54.5038,298.731 C54.2358,298.396 53.9788,298.053 53.7178,297.713 L53.3428,297.729 C52.9448,296.738 53.7708,295.129 53.5798,293.918 C53.3558,292.499 52.4128,292.19 51.8928,291.35 L51.5678,290.458 C51.1238,289.241 51.1688,288.887 52.2448,288.046 C52.1128,287.777 52.0538,287.216 52.1918,286.931 C53.2668,286.557 53.0588,285.151 52.5228,284.417 L52.7808,283.993 C53.0328,283.925 53.6748,283.641 53.7538,283.347 C53.5938,282.758 53.1148,280.232 52.5048,280.015 C52.4248,279.725 52.3168,279.116 52.3508,278.824 L52.3928,278.472 C51.8518,276.707 51.0398,274.773 50.9948,272.908 C50.4518,272.377 50.3848,271.506 49.9548,270.935 C49.9188,270.887 48.7558,269.88 48.6338,269.772 C48.6188,269.759 48.4938,269.406 48.4778,269.365 L48.4738,269.289 C48.4418,268.597 48.2008,266.593 47.7198,266.178 L47.7238,265.243 C47.4258,264.74 46.3408,262.926 45.8748,262.578 C45.4468,262.26 44.8868,262.315 44.4928,261.577 C44.2018,261.032 44.2028,260.36 43.8458,259.789 C43.4998,259.235 42.9018,258.582 42.3878,258.201 C42.0428,257.947 41.5658,257.799 41.2008,257.566 C40.7708,257.292 40.3898,256.915 39.9558,256.648 C39.4298,256.325 38.8238,256.057 38.2748,255.77 C37.3708,255.298 36.4978,254.653 35.5668,254.22 C34.6548,253.796 33.5138,253.417 32.9148,252.545 C33.2758,252.393 34.7598,253.354 35.1108,253.548 L35.3878,253.486 L35.5488,253.181 C35.5378,252.785 34.4228,251.961 34.0668,251.798 L33.5108,251.979 L33.1548,251.854 L32.6368,252.259 L32.3198,252.176 C32.0008,251.808 31.5848,251.429 31.4328,250.957 L31.7938,250.76 L31.9128,250.349 L31.5738,250.409 C31.3268,250.093 31.1498,249.287 31.0828,248.907 L30.8818,249.351 L30.6058,249.309 L30.4488,248.558 L30.1128,248.621 C29.9418,248.5 29.7888,248.293 29.6578,248.132 L29.7738,249.064 L29.5928,249.45 C29.3138,249.41 28.6328,247.959 28.4488,247.619 L27.8348,247.354 L27.7748,247.474 L27.9888,248.714 L29.0768,249.429 L29.2558,249.794 L29.0748,249.975 C27.4288,249.22 26.8478,248.171 25.4348,247.367 L24.8968,247.568 C24.7748,247.402 24.7598,247.046 24.8218,246.856 C24.6598,246.573 24.4718,246.33 24.2228,246.123 C23.7278,245.709 23.0818,245.268 22.6438,244.803 C22.0058,244.123 21.4268,243.262 20.8458,242.526 C20.7278,242.377 20.5048,242.271 20.3918,242.119 C19.5968,241.059 18.5908,238.834 17.3798,238.241" id="Fill-1" fill="#FFFFFF"></path>
            <path d="M17.3798,238.241 L17.8548,238.059 C17.5928,237.549 17.3848,237.291 17.3438,236.72 C16.8448,236.157 16.5218,235.553 16.3818,234.82 C16.1218,233.452 16.2968,233.097 17.3358,232.097 L17.3578,230.86 L17.5158,231.044 L17.6138,231.733 L17.8528,231.835 L18.0308,231.572 L17.8528,231.248 L18.0938,230.983 L17.9738,230.721 L18.1148,230.417 C17.9248,230.202 17.5968,229.651 17.6408,229.343 L17.4828,229.158 L17.2818,229.359 L17.4808,230.11 L17.2398,230.537 C16.8518,228.56 15.8068,226.93 15.0668,225.097 C14.5208,223.743 14.0518,222.353 13.5078,220.998 C13.2178,220.273 12.8328,219.575 12.5578,218.845 C12.3448,218.279 12.2008,217.644 12.0268,217.062 C12.0018,216.976 11.8498,216.842 11.8288,216.758 C11.4028,215.051 11.0548,213.276 10.2668,211.686 L10.3668,211.22 L10.1108,210.611 C10.4448,209.97 10.0428,209.018 9.8748,208.411 C9.3458,206.485 8.8398,205.469 7.4698,204.024 C7.1318,203.667 6.6318,203.233 6.1248,203.104 L5.8688,202.353 C5.8318,202.392 5.4548,202.433 5.3908,202.434 C4.5598,201.89 4.0208,201.082 3.2638,200.503 C3.2168,200.468 1.9508,199.767 1.8718,199.732 C1.4118,199.528 0.8678,199.623 0.4998,199.222 L1.0378,198.494 C1.7948,198.227 3.5708,197.711 4.0058,197.099 L4.0798,197.097 C4.3198,195.785 3.7498,197.606 1.4168,197.704 L1.4998,196.327 C1.5178,196.019 1.3968,195.704 1.4218,195.434 C1.4758,194.809 1.9508,194.168 1.8408,193.53 L2.1998,193.145 C2.5128,193.108 2.8258,193.06 3.1358,193.005 L3.6938,193.248 L3.7338,192.419 C3.5158,192.325 3.0938,192.097 2.9578,191.888 C2.9708,191.615 2.8808,190.95 2.6208,190.775 L2.3418,190.775 C2.3148,190.334 2.1208,188.725 2.2868,188.425 L3.4018,188.324 L3.5828,188.181 C3.5258,187.689 3.4028,186.935 3.0068,186.601 C3.6398,186.137 3.3518,184.742 3.7478,184.008 C3.8338,183.838 5.8648,183.628 6.1588,183.587 L5.6418,183.22 L3.9488,183.319 L3.6098,182.995 C3.5478,182.827 3.9938,181.77 4.0718,181.557 L4.3308,181.496 L4.8498,180.99 L4.6118,180.443 L4.7928,179.935 L5.1898,179.634 L5.4098,179.105 L6.0298,178.723 L6.0908,178.519 L5.8318,177.93 L5.8928,177.648 L6.1108,177.486 C5.8678,177.283 5.6028,176.847 5.5558,176.531 L5.6958,175.984 L6.0548,175.825 L6.3148,175.155 L6.4948,175.035 L7.0118,175.278 L7.1928,175.219 L7.9888,175.665 L8.2678,175.645 C7.4948,175.161 7.0088,174.203 6.3588,173.535 L6.2978,173.149 C7.1778,171.682 7.1678,170.735 7.3218,169.099 L7.5238,168.937 L7.7008,169.099 L7.3978,171.206 L8.0778,171.087 L8.3168,171.308 L8.4958,171.209 C8.4488,170.981 8.5258,170.61 8.6558,170.42 L8.6178,170.257 L9.0598,168.919 L8.7198,167.783 L8.2628,167.763 L8.0428,167.579 L7.9638,167.134 L8.0848,166.871 L8.0048,166.506 L8.3858,165.838 L8.0058,165.695 L7.7078,165.168 L8.2088,164.157 C8.3528,164.153 8.6698,164.075 8.7498,163.933 L8.9678,163.956 L9.1288,163.49 L8.5508,163.205 L8.4308,163.325 L7.8128,163.387 L7.5748,163.083 C7.7518,162.803 7.7378,162.234 7.5948,161.946 L7.9768,161.542 L8.2368,160.407 L9.1968,160.309 L9.3168,160.186 C8.4908,160.071 7.5868,158.993 7.7228,158.138 L9.4578,157.878 L9.0608,157.512 L8.0238,157.591 L7.9238,157.308 L8.2448,156.741 L7.8648,156.356 L7.8478,155.971 L8.4048,156.012 L8.6058,155.446 L8.1288,155.566 C7.9658,155.376 7.5798,155.21 7.3298,155.22 L7.1698,154.815 C7.6118,153.272 7.0548,151.277 6.8588,149.71 L6.5588,150.135 L6.3998,149.953 C7.7968,147.24 7.8808,143.867 10.1718,141.675 L10.4918,141.635 C10.6488,141.792 10.5898,142.297 10.5898,142.506 L11.0698,142.082 L11.4098,142.629 L11.9218,142.763 L12.3348,143.195 C12.3578,142.831 11.2978,141.725 11.0528,141.433 C10.8998,140.872 11.2608,140.428 11.3558,139.914 C11.4028,139.658 11.3218,139.345 11.3558,139.083 C11.4328,138.498 11.7038,137.071 12.2608,136.656 L12.2218,136.413 L11.7418,136.534 L11.5838,136.411 C12.0278,135.525 13.2758,133.49 14.2298,133.197 L13.9698,132.974 C13.9648,132.684 15.1828,131.371 15.4158,131.095 L15.6538,131.075 C16.4328,130.253 17.0288,129.456 17.7008,128.529 L17.5828,128.184 C17.7968,126.517 18.9368,126.584 19.2488,125.758 C19.3568,125.47 19.3778,125.076 19.5118,124.805 C19.7048,124.417 20.0778,124.082 20.2748,123.694 C20.5838,123.085 20.7868,122.383 21.0618,121.754 C21.1658,121.516 21.3088,121.251 21.5108,121.095 L21.8048,120.866 C22.1238,120.1 22.4138,119.286 22.7728,118.539 C23.2198,117.61 24.2428,116.269 24.1418,115.171 L24.5018,115.171 C24.5948,113.84 25.5118,113.473 25.9648,112.32 L26.3658,112.271 L26.6678,111.557 C27.2018,111.478 27.9638,110.92 28.3028,110.526 L28.6838,110.68 C28.9208,109.822 29.5268,108.561 30.2318,107.991 C30.4998,107.775 30.9278,107.721 31.1508,107.432 C31.1318,107.192 31.1968,106.621 31.4188,106.461 L31.3678,106.275 L30.9818,106.437 C30.8418,106.036 31.3968,104.532 31.5238,104.103 L31.3628,103.733 L32.3138,102.308 L32.2618,102.087 C32.8018,101.076 34.7188,99.446 35.6508,98.409 L36.3648,98.402 L37.0498,98.964 L37.4708,98.988 C37.6738,99.045 37.9688,99.806 38.0578,99.991 L38.2778,100.014 C37.9148,98.268 37.2078,97.882 35.6288,97.433 L35.5568,97.212 L36.5678,95.438 C36.6038,95.374 36.9168,95.196 36.9568,95.129 C37.2468,94.642 37.4198,94.055 37.6898,93.554 C38.0228,92.935 38.3328,92.638 38.6088,91.836 C38.5448,91.616 38.4688,91.394 38.4168,91.169 L38.8538,89.83 L39.3098,90.058 C39.4218,89.749 39.7778,89.243 40.1078,89.128 C40.0018,87.945 40.3458,86.111 41.2568,85.294 C41.2288,84.901 41.3768,84.296 41.6038,83.97 C42.3488,83.773 43.2318,82.019 43.0138,81.282 C43.3268,80.97 43.5928,80.415 43.6718,79.984 C43.8588,79.804 44.5748,79.758 44.8118,79.761 C44.4998,79.187 44.4868,78.566 44.9068,78.085 L45.3298,78.035 C45.6108,77.754 46.0188,77.07 45.9538,76.644 L46.2108,76.573 L46.5648,76.156 L46.8768,76.104 C47.3688,74.978 48.1458,74.835 48.7168,74.105 C48.8028,73.995 49.1348,73.076 49.2478,72.894 C49.5248,72.45 49.9678,72.079 50.2538,71.639 C50.2878,71.587 50.5858,70.289 50.6438,70.132 C50.8568,69.562 51.2298,68.991 51.4018,68.412 C51.5708,67.848 51.5108,67.141 51.7028,66.592 C52.0038,65.731 52.5568,64.804 52.9518,63.973 C53.0138,63.844 53.0298,63.426 53.0898,63.277 C53.3938,62.533 53.9258,61.844 54.3888,61.194 C54.5368,60.984 55.0918,61.088 55.3048,61.061 C55.7478,61.004 56.2868,60.733 56.7238,60.735 C57.1518,60.737 57.7248,61.017 58.1328,60.774 L57.4458,60.172 L57.2908,59.618 L57.0688,59.633 L56.9638,59.242 L57.5358,57.982 C58.3248,57.885 58.6978,57.228 58.9868,56.549 C59.8428,56.007 61.9038,55.825 62.8488,55.967 C62.8818,55.972 63.8968,56.506 63.9948,56.556 C64.0178,56.568 65.4568,56.513 65.5718,56.509 L65.7788,56.144 C65.2358,55.891 64.7008,55.934 64.1148,55.913 L63.8828,55.503 L63.4768,55.626 L63.2448,55.29 L63.0048,55.324 C63.5908,54.412 64.3498,53.858 65.0608,53.089 C65.6128,52.492 65.2788,51.241 65.8528,50.576 C66.0808,50.312 66.4338,50.073 66.7078,49.84 C66.7858,49.773 67.0978,49.667 67.2098,49.622 L67.4998,49.811 C67.6638,49.613 68.1208,49.266 68.4078,49.31 C68.4378,49.267 68.6038,49.053 68.6138,49.018 C68.7658,48.53 68.8928,47.988 69.0808,47.514 C69.1068,47.449 69.3318,47.238 69.3418,47.188 C69.4258,46.77 69.7498,44.574 70.0508,44.398 L70.3658,44.273 C70.2078,43.769 69.9878,42.816 70.1048,42.279 L69.8498,42.126 L69.7628,41.81 C69.8558,41.364 70.2308,40.739 70.5948,40.46 L70.9068,40.429 L71.2888,40.693 L71.7668,40.683 C71.8638,40.512 71.8348,40.165 71.7418,40.001 L72.2218,39.898 L72.4648,39.552 L72.1458,38.902 C72.4908,38.306 72.3768,37.688 72.6358,37.067 C72.7798,36.722 72.9818,36.377 73.1488,36.042 C73.1608,36.017 73.9048,35.328 73.9538,35.281 L74.5968,35.33 L74.8018,35.168 C74.6958,34.965 74.1068,34.801 73.9068,34.765 C74.1868,33.775 74.6548,32.911 75.6568,32.471 L75.4978,32.118 L75.6338,31.733 C75.9488,31.491 76.3588,31.236 76.6398,30.96 C76.7118,30.889 76.8618,30.543 76.9428,30.447 C77.0178,30.359 77.4108,30.06 77.4468,29.996 C77.7628,29.433 77.9968,28.71 78.2528,28.112 L78.1478,27.906 C78.3488,27.369 77.9838,26.929 78.3018,26.36 C78.8258,25.423 79.5018,24.63 80.2058,23.83 C80.5948,23.389 81.9498,22.992 82.4348,22.692 C83.0288,22.323 83.5388,21.765 84.1348,21.396 C84.6118,21.1 85.2328,20.962 85.7478,20.65 C85.8638,20.58 85.9178,20.515 86.0458,20.471 C86.3998,20.349 86.8628,20.394 87.2288,20.292 C87.8268,20.124 88.5498,19.857 89.1188,19.61 C89.4508,19.467 89.8348,19.054 90.2148,19.058 L90.3768,19.19 C90.4808,19.096 91.4168,18.224 91.4658,18.197 C91.9538,17.92 92.6798,17.81 93.2078,17.586 C93.4518,17.482 93.6698,17.262 93.9148,17.157 C94.6328,16.846 95.5228,16.475 96.2728,16.263 C97.2288,15.993 98.0808,16.204 99.0128,16.411 C99.2298,16.459 99.5808,16.396 99.8048,16.391 L100.4428,15.815 C101.4388,15.429 102.7468,15.969 103.7788,15.623 C104.2678,15.46 104.7738,15.023 105.2518,14.806 C105.7808,14.565 106.4028,14.453 106.9228,14.195 C107.6788,13.819 109.9878,11.997 109.9688,11.162 L109.1908,10.517 L110.1268,9.798 L110.4898,8.922 C110.8038,8.163 111.1438,8.203 111.5368,7.634 C111.5618,7.598 112.0968,6.451 112.1158,6.393 C112.1398,6.323 112.0648,6.04 112.0878,5.969 C112.2368,5.499 112.5098,4.998 112.7068,4.543 L113.5888,4.801 C114.3968,4.182 114.4818,3.894 114.7328,3.037 C115.1548,2.818 117.5008,1.764 117.5548,1.366 L118.2658,1.675 C118.6558,1.574 119.0828,1.386 119.4208,1.167 L119.3698,0.907 L119.4878,0.632 C119.6578,0.5 120.6398,0.97 120.8448,1.052 L121.1608,0.892 L121.7308,0.978 L122.5348,0.5 L122.9948,0.547 L123.4658,0.964 C123.7718,0.95 124.2088,1.075 124.4938,1.17 C125.0198,2.043 125.4638,1.833 125.8738,2.144 C127.4358,3.326 127.4898,4.294 127.8858,6.047 L128.2098,6.386 L128.8788,6.253 L129.0578,6.462 L128.8948,7.139 L129.6048,8.336 C129.9248,8.561 130.6858,8.957 131.1038,8.908 L131.3908,8.454 L131.8318,8.444 C131.9928,8.243 132.4928,7.715 132.7718,7.674 L132.8598,7.86 L132.1548,8.766 L132.2758,9.139 L131.7418,9.919 C131.7598,10.418 133.1098,11.107 133.5518,11.345 L133.6448,12.068 L133.8258,12.201 L134.6238,12.016 L135.3448,12.625 L135.6598,12.576 L135.9668,12.844 L136.6298,12.932 L136.5228,13.538 L136.8608,13.952 L136.7838,14.134 L136.4488,14.293 L136.0858,14.063 L135.9868,15.113 C136.2698,14.699 137.0258,14.33 137.4998,14.245 C137.5618,13.957 137.8088,13.424 138.0778,13.263 L137.7308,13.143 L137.7148,13.033 L138.1848,12.584 L138.6628,12.631 L138.7868,12.836 L138.6688,13.148 C139.4118,13.198 139.8408,14.275 140.2808,14.294 L140.4668,14.225 L140.5308,13.877 L140.9708,13.943 C141.0108,14.188 141.2108,14.727 141.4658,14.841 L142.3658,14.864 C142.4528,15.17 142.5298,15.48 142.6038,15.791 L143.1718,15.843 C143.5998,14.71 145.3588,15.106 145.9738,15.82 C146.5478,15.574 147.6418,15.704 148.1398,16.078 L149.9308,15.865 L150.2338,15.524 L150.4928,15.585 L150.4438,16.026 L150.0648,16.441 L150.2228,16.703 L150.6668,16.696 C150.7128,16.997 150.6218,17.574 150.3818,17.795 C150.5878,18.249 150.1178,18.975 150.1788,19.265 C150.3158,19.923 150.6798,20.869 151.2698,21.249 L151.1308,21.652 C151.4838,22.47 151.2388,24.148 152.2368,24.52 L151.8968,24.881 L152.2788,25.021 C152.7298,24.779 153.0698,24.796 153.5188,24.702 C154.5008,24.496 154.8388,24.113 155.7428,24.797 L156.0778,25.47 L156.2988,25.438 L156.6168,25.151 L157.2498,25.592 L157.3148,25.946 C157.2448,26.299 156.6688,26.5 156.3618,26.53 C156.0498,26.868 155.7418,27.305 155.3968,27.592 C155.3418,27.637 155.0668,27.699 154.9878,27.746 C154.7008,27.92 154.4718,28.244 154.1788,28.409 C153.9138,28.559 153.4538,28.643 153.1668,28.737 C151.6718,29.224 150.7698,29.619 150.2668,31.15 C149.6798,31.285 149.5198,31.815 149.0838,32.097 C148.0768,32.749 148.1688,31.905 147.6418,33.4 C147.5798,33.573 147.4578,33.876 147.5248,34.087 C147.0008,34.898 146.5148,35.462 145.7848,36.054 L145.0178,36.678 C144.9428,36.763 144.5998,37.506 144.4988,37.661 C144.2638,38.021 143.9398,38.334 143.6988,38.692 C142.8498,39.963 142.0108,45.61 142.1458,47.488 C142.2408,48.822 142.6958,50.047 143.1358,51.293 C143.1508,51.334 143.1598,51.605 143.1638,51.663 L142.5348,51.813 L142.6798,51.965 L143.2628,52.11 L143.4238,52.316 L143.3588,52.738 C143.3868,52.791 143.6188,53.193 143.6218,53.224 C143.7568,54.408 143.8548,55.616 144.0298,56.794 C144.1928,57.891 145.2858,60.2 146.0908,60.994 C146.4158,61.315 147.0068,61.408 147.4358,61.526 L147.5048,61.659 L147.4438,61.877 L145.8368,61.597 L145.5508,62.105 C145.5458,62.682 145.6088,63.137 146.1048,63.467 L146.3648,63.251 L146.6568,63.315 L146.7778,63.649 L146.4798,63.899 C146.0598,64.659 146.9428,67.752 146.3918,68.121 C145.6278,68.206 144.7568,68.533 144.0828,68.891 C143.6958,69.221 143.7318,70.194 143.8578,70.638 C144.3098,70.859 144.7188,71.656 144.8108,72.118 L145.3748,72.243 L145.4428,72.467 L145.2568,72.646 C144.2318,72.633 143.1098,73.645 142.4328,74.29 C142.2878,75.65 141.1148,76.065 140.7968,76.812 C140.4158,77.707 140.0988,78.509 139.9628,79.484 C139.8898,80.012 139.9278,80.58 139.8338,81.103 C139.6848,81.941 139.3838,82.839 139.0608,83.622 L138.4788,85.033 C138.4348,85.22 138.4848,85.334 138.4898,85.525 L138.5158,86.51 C138.5078,86.804 138.2168,87.306 138.4008,87.575 C138.3358,87.815 138.2048,88.416 137.9908,88.617 C137.7078,88.885 136.7088,89.706 136.6398,90.077 C136.5378,90.633 136.4838,91.512 136.2818,92.023 C136.2228,92.175 136.1208,92.221 136.0198,92.348 C135.4878,93.005 135.1198,93.556 134.1818,93.52 C133.8478,93.654 133.3668,94.754 133.2518,95.065 C132.9018,95.278 131.1698,96.3 131.1028,96.378 C130.1838,97.432 129.6298,98.324 129.1458,99.685 C130.1248,101.855 129.9638,101.801 129.3188,104.076 C129.1538,104.659 127.1938,105.976 126.7258,106.596 L126.1678,107.591 C126.0098,107.873 125.7758,108.263 125.7668,108.618 L125.8208,109.455 C125.8388,109.734 125.8658,110.111 125.9998,110.375 C126.8998,112.143 126.7518,112.205 128.1548,113.54 C128.4528,113.824 128.4848,114.805 128.3438,115.169 L127.9748,115.169 L127.6838,115.763 C126.1668,116.615 125.0628,118.164 125.2568,119.988 L125.5708,120.457 L125.4718,120.619 L125.6298,120.761 C125.0608,122.448 125.2668,123.483 124.9838,125.067 C124.8298,125.928 124.7108,126.823 124.5178,127.675 C124.3588,128.369 123.8678,129.091 123.6338,129.772 C123.4718,130.242 123.3678,130.763 123.2378,131.245 C123.1088,131.727 122.5248,132.061 122.4648,132.675 C122.3948,133.393 122.3688,134.302 122.4008,135.023 C122.4198,135.47 122.6078,135.936 122.6258,136.382 C122.6368,136.646 122.3378,137.287 122.2488,137.472 C122.0068,137.978 121.7828,138.445 121.4868,138.923 C120.7908,140.05 120.3988,140.488 120.9908,141.753 C120.8638,142.11 120.6538,142.502 120.5808,142.862 C120.4008,143.74 120.3828,144.684 120.1748,145.553 C120.1538,145.642 119.8208,146.128 119.7678,146.258 C119.4928,146.922 119.3338,148.007 119.2638,148.704 C119.1988,149.334 119.3138,150.023 119.2258,150.647 C119.2188,150.692 118.6008,153.283 118.5378,153.417 C118.3008,153.924 117.8788,154.428 117.6848,154.945 C117.5258,155.365 117.5618,155.926 117.4298,156.362 C117.3448,156.644 117.0778,156.925 117.0018,157.208 C116.8568,157.749 117.0068,158.485 117.0908,159.02 C117.1508,159.399 117.2978,159.978 117.7538,160.094 L117.7688,160.436 L118.0058,160.724 C116.8448,162.029 116.7148,162.548 116.4998,164.328 C116.4638,164.631 116.4838,164.808 116.4058,165.103 C116.2618,165.657 115.8478,166.359 115.6098,166.894 C115.2978,168.337 115.3978,168.052 114.6508,169.159 C114.6088,170.053 114.6358,171.031 114.5248,171.915 C114.4838,172.234 114.2228,172.583 114.1768,172.904 C114.1628,172.997 114.3058,173.426 114.2898,173.512 C114.1738,174.18 113.8978,174.915 113.7128,175.573 C113.7048,175.599 113.5538,175.801 113.5288,175.835 L113.0288,175.891 C112.6748,176.099 111.2088,178.081 111.1528,178.325 C111.0638,178.725 111.0018,179.239 110.8608,179.619 C110.8198,179.729 110.4818,180.114 110.4578,180.203 C110.2548,180.979 110.1858,181.893 110.0568,182.69 L110.3688,183.323 C110.4748,183.904 109.2008,184.634 108.8988,184.95 C108.1428,185.738 108.8888,187.97 109.3618,188.723 L108.7298,190.542 C108.8468,190.732 108.8648,191.104 108.8008,191.312 L109.2688,192.311 L109.5678,192.436 L109.7038,192.659 L108.9818,193.361 L108.4458,193.175 C108.2468,193.626 107.8168,194.514 107.4538,194.867 L106.4188,194.838 C106.0498,195.088 105.1658,195.845 105.0718,196.325 L105.2278,196.752 C104.2538,197.479 104.6488,197.616 104.4528,198.548 C104.3088,199.239 104.0668,199.948 103.8788,200.631 C103.7918,200.944 103.4998,201.2 103.4328,201.639 L103.0508,201.922 L102.9478,202.345 C102.2988,202.621 102.5538,203.813 102.4548,204.125 C102.0648,205.364 101.1648,206.347 100.3588,207.329 L99.7808,207.446 C98.9368,208.356 98.7278,210.102 98.1778,211.203 C97.7908,211.977 97.0098,213.191 96.4648,213.862 C96.4438,213.887 95.7208,214.28 95.6458,214.321 C95.6178,214.545 95.4608,215.107 95.2398,215.231 C94.3538,215.11 93.5028,215.383 92.7968,215.955 L92.1688,216.464 C91.9818,216.648 91.7148,217.696 91.7408,217.88 C91.8868,218.922 92.8548,220.646 92.2838,221.714 L91.9678,221.754 C91.9198,221.804 91.5208,222.226 91.5068,222.257 C91.3648,222.565 91.3448,223.018 91.2378,223.348 C91.0688,223.875 90.6578,224.613 90.3518,225.086 C90.3018,225.108 89.9328,225.262 89.9118,225.284 C89.0578,226.162 88.1908,227.204 87.2688,228 C86.8028,228.403 86.0268,228.77 85.4928,229.101 C84.9958,229.41 84.2218,229.52 83.6798,229.796 C82.9628,230.161 82.4228,231 81.7618,231.445 L80.4858,232.22 C80.0718,232.471 79.9788,232.512 79.8968,232.57 C79.8318,232.617 79.7758,232.676 79.5678,232.862 L79.0078,233.371 C78.7398,233.753 78.4008,234.489 78.2228,234.927 C77.6298,236.388 77.8688,239.058 77.0358,240.049 C76.5558,240.62 75.8458,241.06 75.3788,241.638 C75.3578,241.666 74.7178,242.894 74.6958,242.951 C74.3468,243.88 74.1148,244.88 73.8038,245.824 C73.5558,246.58 73.1968,247.345 72.9938,248.111 C72.7368,249.077 72.5938,250.127 72.3988,251.109 L72.2778,251.208 C71.8928,252.304 71.5478,253.454 71.1098,254.527 C70.9758,254.854 70.6418,255.168 70.5278,255.497 L68.9728,259.989 C68.9358,260.096 68.6038,260.454 68.5538,260.575 C68.3478,261.078 68.1558,261.765 68.0268,262.296 C67.4448,264.707 68.0918,268.835 68.4668,271.286 C68.4698,271.308 68.4398,271.366 68.4318,271.389 C68.3988,271.494 68.1498,272.217 68.1438,272.277 C68.1068,272.625 68.2318,273.037 68.2168,273.392 C68.1978,273.846 67.8918,274.388 67.9088,274.83 C67.9288,275.322 68.0808,275.902 68.1588,276.393 L67.8148,277.264 C67.9978,277.675 68.0628,278.307 67.9638,278.746 L68.2038,278.829 L68.2798,278.992 C66.1838,280.615 68.3988,281.929 68.4358,282.704 C68.3798,282.829 67.7328,284.255 67.7338,284.282 C67.7738,285.346 67.7008,286.44 68.0898,287.449 C68.1938,287.718 68.5728,288.16 68.4608,288.468 C67.9428,288.754 67.2968,289.607 67.2828,290.224 L66.7668,290.403 L66.6468,290.708 L66.7228,291.135 C66.4688,292.12 64.3018,292.474 64.1628,292.68 C64.2098,293.286 64.0228,293.927 63.9068,294.512 C63.5398,296.364 64.4068,297.32 65.3508,298.795 L65.2888,299.504 L65.6008,300.154 L65.5208,300.377 C65.3648,300.519 64.9548,300.517 64.7688,300.475 L64.4548,300.269 L64.0078,298.928 L63.4358,298.863 C63.1478,298.447 62.5748,297.676 62.1398,297.393 L61.3878,297.307 L60.8188,296.717 L60.6388,297.101 L60.4608,297.182 L60.2268,296.634 C59.9868,296.379 59.2838,296.283 58.9638,296.3 L57.5078,295.218 L57.2698,295.257 L56.1768,296.385 C56.0578,297.086 55.8308,298.809 54.9378,298.894 L54.5038,298.731 C54.2358,298.396 53.9788,298.053 53.7178,297.713 L53.3428,297.729 C52.9448,296.738 53.7708,295.129 53.5798,293.918 C53.3558,292.499 52.4128,292.19 51.8928,291.35 L51.5678,290.458 C51.1238,289.241 51.1688,288.887 52.2448,288.046 C52.1128,287.777 52.0538,287.216 52.1918,286.931 C53.2668,286.557 53.0588,285.151 52.5228,284.417 L52.7808,283.993 C53.0328,283.925 53.6748,283.641 53.7538,283.347 C53.5938,282.758 53.1148,280.232 52.5048,280.015 C52.4248,279.725 52.3168,279.116 52.3508,278.824 L52.3928,278.472 C51.8518,276.707 51.0398,274.773 50.9948,272.908 C50.4518,272.377 50.3848,271.506 49.9548,270.935 C49.9188,270.887 48.7558,269.88 48.6338,269.772 C48.6188,269.759 48.4938,269.406 48.4778,269.365 L48.4738,269.289 C48.4418,268.597 48.2008,266.593 47.7198,266.178 L47.7238,265.243 C47.4258,264.74 46.3408,262.926 45.8748,262.578 C45.4468,262.26 44.8868,262.315 44.4928,261.577 C44.2018,261.032 44.2028,260.36 43.8458,259.789 C43.4998,259.235 42.9018,258.582 42.3878,258.201 C42.0428,257.947 41.5658,257.799 41.2008,257.566 C40.7708,257.292 40.3898,256.915 39.9558,256.648 C39.4298,256.325 38.8238,256.057 38.2748,255.77 C37.3708,255.298 36.4978,254.653 35.5668,254.22 C34.6548,253.796 33.5138,253.417 32.9148,252.545 C33.2758,252.393 34.7598,253.354 35.1108,253.548 L35.3878,253.486 L35.5488,253.181 C35.5378,252.785 34.4228,251.961 34.0668,251.798 L33.5108,251.979 L33.1548,251.854 L32.6368,252.259 L32.3198,252.176 C32.0008,251.808 31.5848,251.429 31.4328,250.957 L31.7938,250.76 L31.9128,250.349 L31.5738,250.409 C31.3268,250.093 31.1498,249.287 31.0828,248.907 L30.8818,249.351 L30.6058,249.309 L30.4488,248.558 L30.1128,248.621 C29.9418,248.5 29.7888,248.293 29.6578,248.132 L29.7738,249.064 L29.5928,249.45 C29.3138,249.41 28.6328,247.959 28.4488,247.619 L27.8348,247.354 L27.7748,247.474 L27.9888,248.714 L29.0768,249.429 L29.2558,249.794 L29.0748,249.975 C27.4288,249.22 26.8478,248.171 25.4348,247.367 L24.8968,247.568 C24.7748,247.402 24.7598,247.046 24.8218,246.856 C24.6598,246.573 24.4718,246.33 24.2228,246.123 C23.7278,245.709 23.0818,245.268 22.6438,244.803 C22.0058,244.123 21.4268,243.262 20.8458,242.526 C20.7278,242.377 20.5048,242.271 20.3918,242.119 C19.5968,241.059 18.5908,238.834 17.3798,238.241 Z" id="Stroke-3" stroke="#E75F52" stroke-linecap="round" stroke-linejoin="round"></path>
        </g>
    </g>
</svg>