<?xml version="1.0" encoding="UTF-8"?>
<svg width="174px" height="300px" viewBox="0 0 174 300" version="1.1" xmlns="http://www.w3.org/2000/svg" xmlns:xlink="http://www.w3.org/1999/xlink">
    <!-- Generator: Sketch 64 (93537) - https://sketch.com -->
    <title>322</title>
    <desc>Created with Sketch.</desc>
    <g id="322" stroke="none" stroke-width="1" fill="none" fill-rule="evenodd">
        <g id="Group-40" transform="translate(3.000000, 0.000000)">
            <polygon id="Fill-1" fill="#FFFFFF" points="35.415 133.169601 35.428 133.6201 35.887 133.876246 35.887 133.169601"></polygon>
            <polygon id="Stroke-2" stroke="#E75F52" stroke-linecap="round" stroke-linejoin="round" points="35.8867 133.876047 35.8867 133.170399 35.4147 133.170399 35.4277 133.6199"></polygon>
            <path d="M36.5949,134.816512 L35.8869,134.110864 L36.5949,134.816512 Z" id="Fill-3" fill="#FFFFFF"></path>
            <path d="M36.5947,134.816711 L35.8867,134.111063 L36.5947,134.816711 Z" id="Stroke-4" stroke="#E75F52" stroke-linecap="round" stroke-linejoin="round"></path>
            <path d="M57.8268,141.78 L58.2988,141.78 L57.8268,141.78 Z" id="Fill-5" fill="#FFFFFF"></path>
            <path d="M58.2983,141.7799 L57.8263,141.7799 L58.2983,141.7799 Z" id="Stroke-6" stroke="#E75F52" stroke-linecap="round" stroke-linejoin="round"></path>
            <g id="Group-39">
                <path d="M35.415,133.1699 L35.887,133.1699 L35.887,133.875548 L35.887,134.110764 L36.595,134.816412 L37.302,136.227708 L37.302,136.699136 L37.302,139.051296 C37.302,139.868571 37.774,139.4101 37.774,140.227375 L37.845,140.933023 L37.722,144.940664 L38.01,147.049635 L36.358,147.049635 C36.51,147.680532 36.595,147.493156 36.595,147.990498 L36.595,148.46093 C36.437,148.75794 36.123,149.239336 36.123,149.63701 C36.123,150.082525 37.774,150.512093 37.774,151.518738 L37.774,151.753953 C37.774,152.704784 37.818,151.856611 37.538,152.225382 C37.7,152.511429 37.774,152.476545 37.774,152.93103 L37.774,153.636678 C37.774,154.375216 38.718,154.540664 38.718,156.459269 C41.202,156.515083 38.672,157.455947 40.841,157.636346 C41.3,158.899136 41.875,157.909435 42.728,159.518073 C42.605,160.045316 42.492,160.059269 42.492,160.694153 C42.492,161.297143 42.436,161.263256 42.256,161.635017 C42.341,161.811429 42.964,163.029369 42.964,163.047309 C42.964,163.649302 42.907,163.615415 42.728,163.987176 C43.394,165.371561 43.511,165.582857 43.971,167.309103 L43.436,168.457276 C44.069,168.306777 43.881,168.22206 44.379,168.22206 C44.738,168.22206 45.134,168.378538 45.14,168.699468 L44.852,170.810432 C45.791,170.888173 45.621,170.90412 46.031,171.51608 C45.97,172.251628 45.795,172.351296 45.795,173.162591 C45.795,173.924053 46.676,174.526047 47.21,174.808106 C46.999,175.71309 46.897,176.59515 46.331,177.22505 C45.918,177.685515 45.232,179.04299 44.852,179.04299 C44.214,179.04299 44.201,178.931362 43.672,178.807774 C43.51,179.094817 43.436,179.059934 43.436,179.514419 L43.436,179.98485 L43.436,180.454286 C42.785,181.681196 43.262,181.446977 42.02,182.101794 L42.02,182.572226 L42.02,183.042658 C42.02,183.887841 40.979,184.133023 40.369,184.453953 L40.369,184.924385 L40.369,185.394817 C40.369,186.423389 39.235,185.93701 39.173,187.938339 L38.482,188.217409 L38.482,189.159269 C37.155,189.858937 37.78,190.029369 36.975,190.479867 C35.776,191.150631 36.025,190.617409 35.651,192.217076 L34.471,192.217076 C34.085,192.217076 33.764,192.358605 33.764,192.687508 C33.764,192.82804 34.089,193.17588 34.235,193.394153 C33.756,194.389834 33.856,194.199468 33.291,195.039668 L32.82,195.039668 L32.112,195.039668 C31.752,196.385183 31.613,195.24 30.699,196.218738 C30.233,196.718073 29.993,197.370897 29.281,197.62804 L29.281,199.274551 L29.928,199.282525 L30.225,201.157276 C29.022,202.947309 28.441,207.833023 26.686,207.979535 C26.336,209.478538 25.676,210.53402 25.035,211.74299 L24.091,211.74299 L24.016,210.995482 L23.619,211.74299 C24.017,212.018073 24.091,211.776877 24.091,212.448638 C24.091,213.165249 24.198,213.308771 24.371,213.877874 L24.091,214.565581 C24.301,214.683189 24.563,214.71907 24.563,215.03701 C24.563,215.415748 23.888,216.177209 23.619,216.683522 L23.619,217.153953 C23.619,217.964252 23.794,218.064917 23.86,218.813422 L23.147,219.035681 C23.128,219.88485 22.201,223.162924 21.732,223.505781 C21.708,224.559269 21.424,225.629701 20.789,226.092159 L20.789,227.03402 C20.512,227.107774 20.145,227.269236 20.081,227.269236 C19.54,227.269236 19.806,227.189502 19.181,227.050963 L18.901,227.739668 L18.744,228.214086 L18.901,232.443987 C18.925,233.31309 18.957,232.562591 18.665,233.150631 C18.784,233.320066 19.151,233.752625 19.197,233.864252 L18.901,236.209435 C18.759,237.27887 18.429,236.476545 18.429,237.385515 L18.429,237.620731 C18.429,238.223721 18.486,238.188837 18.602,238.548638 L18.429,239.737674 C18.032,240.012757 17.957,239.771561 17.957,240.443322 C17.957,242.66392 19.373,244.688173 19.373,246.559934 L19.407,247.028372 L19.384,250.556611 L19.609,251.9699 L19.103,251.974884 L19.321,254.572226 L19.596,255.494153 L19.373,256.204784 C19.661,256.366246 19.625,256.440997 20.081,256.440997 L20.316,256.440997 C21.219,256.440997 20.402,256.367243 21.023,256.675216 L21.719,255.268904 L21.496,254.558272 C21.741,254.193488 22.204,253.702126 22.204,253.146977 L22.204,252.676545 C22.116,252.5101 21.496,251.521395 21.496,251.500465 C21.496,250.871561 21.837,250.803787 22.204,250.558605 C22.042,250.271561 21.968,250.307442 21.968,249.852957 C21.968,248.953953 21.895,249.767243 22.204,249.147309 C21.914,248.906113 21.968,249.53103 21.968,248.677874 L21.968,248.441661 C21.968,247.876545 22.35,247.749967 22.676,247.265581 C22.514,246.978538 22.44,247.014419 22.44,246.559934 C22.44,246.077542 22.926,246.127375 23.383,246.089502 L23.383,245.148638 C24.245,244.572558 25.038,244.003455 26.51,243.980532 L26.29,246.366578 L26.686,245.61907 L27.158,245.61907 C27.687,245.61907 27.676,245.805449 28.102,246.089502 L28.102,247.030365 C28.317,247.174884 28.81,247.41309 28.81,247.736013 C28.81,248.34 28.753,248.305116 28.574,248.677874 C28.739,249.009767 28.81,249.067575 28.81,249.617741 L28.81,249.852957 C28.81,250.635349 29.233,250.542658 29.989,250.558605 C30.107,250.767907 30.143,251.030033 30.461,251.030033 C31.274,251.030033 31.374,250.855615 32.141,250.759934 L32.82,251.264252 L32.82,252.206113 C33.218,252.481196 33.291,252.24 33.291,252.911761 C33.291,253.7699 33.503,253.471894 33.533,254.571229 L32.817,254.795482 L33.291,255.734352 L34.235,255.734352 C34.312,256.651296 34.656,256.957276 34.714,257.626047 C34.784,258.441329 34.471,258.610764 34.471,259.733023 C34.471,260.134684 35.173,261.850963 35.651,261.850963 C36.035,261.850963 36.201,261.20711 36.358,260.9101 L36.358,260.438671 L36.358,259.733023 L36.358,259.263588 C36.113,258.80113 35.887,258.568904 35.887,257.852292 L35.887,256.910432 L36.595,256.910432 C37.363,256.910432 37.504,257.578206 37.774,258.086512 C38.938,258.112425 38.928,258.102458 38.954,259.263588 C39.701,259.532691 39.514,259.717076 39.906,260.441661 L39.661,261.615748 C40.365,261.674551 40.841,261.785183 40.841,262.556611 C40.841,263.273223 40.734,263.417741 40.579,263.991827 L41.785,265.615415 L42.492,265.615415 C43.394,265.615415 42.578,265.542658 43.2,265.849635 C43.318,265.640332 43.353,265.379203 43.672,265.379203 C44.201,265.379203 44.19,265.565581 44.616,265.849635 L44.616,266.321063 C44.616,267.520066 45.272,267.443322 45.559,268.673223 C46.528,268.592492 46.086,268.438007 46.975,268.438007 C47.739,268.438007 46.873,268.957276 47.952,269.382857 L47.683,271.967243 L47.683,274.553621 L48.626,274.553621 C49.369,275.566246 49.649,274.502791 50.041,275.965914 C50.596,276.011761 51.221,276.178206 51.221,276.671561 C51.221,277.436013 51.017,276.84897 50.749,277.847641 C51.382,277.697143 51.194,277.612425 51.693,277.612425 C52.216,277.612425 51.769,278.207442 53.108,278.31907 L53.108,279.730365 L53.697,279.80711 L54.76,281.141661 C55.763,280.907442 56.568,280.77588 56.089,282.018738 L56.507,283.087176 L57.119,282.082525 C56.996,281.555282 56.883,281.541329 56.883,280.906445 C56.883,280.477874 57.242,280.528704 57.591,280.436013 C57.467,279.908771 57.355,279.894817 57.355,279.258937 L57.372,277.657276 L58.062,277.377209 C58.488,277.662259 58.477,277.847641 59.006,277.847641 L59.242,277.847641 L59.714,277.847641 C60.04,278.332027 60.422,278.458605 60.422,279.024718 L60.422,279.494153 C60.422,280.555615 61.778,281.009103 62.545,281.376877 C62.549,281.37289 62.985,281.141661 63.017,281.141661 C63.311,281.141661 66.509,282.788173 67.735,282.788173 C68.258,282.788173 67.811,282.194153 69.15,282.082525 L69.15,282.552957 L70.209,282.515083 L71.273,285.610764 C71.129,286.227708 70.715,287.02206 71.746,287.02206 L72.453,287.02206 C73.288,287.02206 73.166,286.316412 73.633,286.316412 C74.452,286.316412 73.993,286.787841 74.812,286.787841 L76.419,286.803787 L76.7,287.493488 L76.7,287.96392 L76.692,288.421395 L75.756,288.904784 C76.417,289.803787 76.377,288.937674 76.7,290.31608 C76.576,290.843322 76.464,290.857276 76.464,291.492159 C76.464,292.127043 76.576,292.140997 76.707,292.673223 L75.992,293.845316 L75.52,293.845316 L74.853,293.852292 L74.476,295.663256 L74.223,296.314086 L74.812,297.138339 C76.547,297.28186 75.799,297.791163 76.936,298.549635 L77.879,299.020066 L78.275,298.955282 L79.343,298.067243 L79.059,296.903123 C79.329,296.394817 79.47,295.727043 80.238,295.727043 L80.71,295.727043 C81.433,295.727043 81.864,295.043322 82.125,294.550963 L82.597,294.550963 L83.541,294.550963 C84.249,294.550963 84.72,293.6101 85.428,293.6101 L86.136,293.6101 C86.853,293.6101 86.937,294.017741 87.08,294.550963 L87.788,294.550963 L87.788,295.727043 C87.788,296.491495 87.992,295.904452 88.259,296.903123 C88.624,296.658937 89.118,296.197475 89.674,296.197475 C90.105,296.197475 90.053,296.556279 90.147,296.903123 L90.854,296.903123 C91.082,296.05495 90.875,296.273223 91.798,296.197475 L91.798,295.256611 L92.707,295.228704 L93.213,294.550963 C93.207,294.541993 92.972,294.113422 92.937,294.072558 L93.213,292.198804 C93.662,292.017409 94.149,291.26093 94.69,290.847309 C95.173,290.477542 96.044,289.883522 96.044,289.14 L96.044,287.727708 L96.044,287.258272 C94.343,286.360266 90.801,283.40412 89.614,281.908106 C89.117,281.282193 87.615,279.027708 87.285,278.34897 C86.554,276.841993 85.815,276.067575 84.957,274.789834 L84.485,274.789834 C83.424,274.789834 82.714,274.084186 81.654,274.084186 C81.125,274.084186 81.136,274.269568 80.71,274.553621 C80.181,274.43103 80.167,274.319402 79.53,274.319402 C79.131,274.319402 78.649,274.632359 78.351,274.789834 L77.877,274.7699 L74.34,275.02505 C73.41,275.108771 71.327,272.90711 70.802,272.90711 L70.33,272.90711 C68.667,272.90711 66.859,268.318405 65.527,267.346645 C63.122,265.593488 63.394,262.929369 62.073,260.438671 L62.073,259.969236 L62.073,259.733023 C62.073,258.310764 60.735,254.629037 60.48,252.667575 L60.186,250.794817 C59.991,249.577874 59.604,247.562591 59.274,246.52804 C59.023,245.745648 58.103,243.042658 58.062,242.560266 C57.537,242.700797 57.355,242.61608 57.355,243.265914 L57.355,244.206777 C55.743,244.171894 54.795,242.746645 54.76,241.14897 C53.381,240.229037 52.894,240.442326 52.644,238.318405 C52.448,236.653953 52.165,235.405116 52.165,233.621063 L52.165,230.563256 L52.165,230.091827 C51.896,229.585515 51.221,228.82505 51.221,228.445316 L51.221,227.739668 L51.213,227.273223 L50.499,225.663588 L49.081,225.108439 L48.373,225.431362 L47.683,225.152292 C47.451,225.466246 46.426,226.092159 46.031,226.092159 L44.852,226.092159 L44.389,226.09814 L43.672,227.504452 L43.19,227.444651 L41.494,227.834352 L40.133,227.03402 C39.604,227.157608 39.591,227.269236 38.954,227.269236 C38.028,227.269236 37.774,226.105116 37.774,225.152292 L37.774,224.680864 C39.004,224.033023 38.769,224.509435 39.425,223.269568 C38.496,221.886179 37.774,221.771561 37.774,219.270897 C36.859,218.940997 36.358,217.183854 36.358,215.977874 L36.358,215.03701 C36.358,214.374219 36.46,214.600465 36.831,214.331362 C36.669,214.044319 36.595,214.079203 36.595,213.625714 L36.595,213.389502 C36.595,212.439668 36.551,213.287841 36.831,212.920066 C36.669,212.633023 36.595,212.667907 36.595,212.213422 L36.595,211.74299 C36.595,210.962591 37.066,211.251628 37.066,210.802126 C37.066,210.724385 36.358,209.93701 36.358,208.920399 L36.358,208.44897 C36.742,208.247641 38.587,206.456611 38.718,206.096811 L37.538,206.096811 C36.986,206.096811 36.595,205.706113 36.595,205.156944 L36.595,203.744651 C37.227,203.593156 37.039,203.509435 37.538,203.509435 C38.067,203.509435 38.056,203.695814 38.477,203.96691 L39.189,203.744651 C39.069,202.305449 38.392,203.026047 38.01,201.391495 C39.055,200.840332 38.637,201.256944 39.189,200.216412 L39.189,199.744983 L39.189,199.510764 L39.189,199.039336 C39.687,198.101462 39.58,197.497475 40.841,197.392824 C41.035,196.667243 41.285,196.177874 41.977,195.975548 L42.256,193.628372 L43.2,193.628372 C43.586,193.628372 43.908,193.488837 43.908,193.15794 C43.908,192.708439 43.436,192.997475 43.436,192.217076 L43.436,191.98186 C43.436,191.37887 43.493,191.413754 43.672,191.040997 C43.507,190.708106 43.436,190.650299 43.436,190.100133 C43.436,189.383522 43.329,189.24 43.2,188.688837 C43.452,187.610432 43.338,187.579535 44.157,186.990498 L45.087,187.276545 C44.82,186.277874 44.616,186.865914 44.616,186.100465 L44.616,184.218738 C45.601,183.956611 46.474,181.497807 46.503,180.220066 C47.755,179.30412 47.905,176.61309 49.754,176.442658 L50.041,175.514751 C49.88,175.227708 49.806,175.262591 49.806,174.808106 C49.806,174.465249 50.097,174.464252 50.277,174.338671 C50.116,174.051628 50.041,174.087508 50.041,173.633023 L50.041,173.162591 C50.784,171.763256 50.72,171.506113 51.812,170.223389 C52.165,169.807774 54.052,167.851296 54.052,167.516412 C54.052,167.126711 53.517,166.194817 53.344,165.8699 L53.344,165.399468 L53.344,165.164252 C53.344,164.636013 53.531,164.646977 53.816,164.222392 C53.619,163.381196 53.344,163.117076 53.344,162.105449 L53.344,160.929369 C53.344,159.856944 52.773,159.155282 52.779,158.561262 L53.344,155.283189 L53.344,154.812757 C54.345,152.926047 54.45,151.74 55.708,149.860266 L54.943,149.630033 L55.231,148.225714 C54.748,147.506113 52.636,146.189502 52.636,145.402126 L52.636,144.932691 L52.636,144.462259 C55.559,142.919402 55.607,141.168239 60.422,141.168239 L60.422,141.638671 L60.894,141.638671 L60.958,140.893156 L61.365,141.403455 L61.372,140.997807 L64.432,140.697807 L64.904,140.697807 C65.133,140.577209 66.308,139.756944 66.319,139.756944 C66.576,139.756944 66.808,140.229369 67.282,140.443654 C67.793,140.674884 68,140.612093 68.675,140.728704 L72.925,141.168239 L73.161,141.168239 C73.945,141.168239 73.852,141.590831 73.869,142.344319 L73.397,142.344319 L73.397,142.814751 L73.869,142.814751 L73.869,143.756611 L73.141,143.768571 L73.346,144.145316 L72.453,144.696478 C72.651,145.070233 73.161,145.758937 73.161,146.108771 L73.161,146.579203 L73.217,147.085515 L71.746,149.401794 C72.449,149.460598 72.925,149.571229 72.925,150.342658 L72.925,150.81309 C72.925,151.528704 72.516,151.612425 71.981,151.753953 L71.981,152.459601 L71.399,152.542326 L72.405,153.648638 L72.727,154.837674 L71.981,155.989834 L71.038,155.989834 L71.038,157.164917 C71.038,157.73103 71.42,157.857608 71.746,158.341993 L72.639,158.391827 L73.397,159.047641 L73.397,158.106777 C75.561,156.963588 75.749,157.40113 78.115,157.40113 L78.587,157.40113 C80.187,157.40113 81.532,158.250299 82.597,158.812425 C82.843,158.445648 82.91,158.106777 83.541,158.106777 L83.782,158.160598 L87.244,157.816744 L88.023,156.695482 L88.496,156.695482 L88.967,156.695482 C90.847,156.695482 92.129,157.835681 92.346,159.416412 L93.45,160.223721 C93.737,160.062259 93.702,159.988505 94.157,159.988505 C95.075,159.988505 95.089,160.977209 95.832,161.376877 C97.08,162.046645 96.657,162.075548 97.466,162.80412 C97.942,163.232691 100.29,165.533023 100.29,166.105116 L100.29,166.575548 C100.29,166.960266 100.432,167.281196 100.762,167.281196 C100.904,167.281196 101.251,166.956279 101.47,166.810764 C101.845,167.008106 102.536,167.516412 102.885,167.516412 C103.718,167.516412 105.133,168.538007 105.716,168.927708 L105.716,167.516412 C105.716,167.061927 106.137,166.575548 106.424,166.575548 C106.992,166.575548 107.118,166.956279 107.604,167.281196 L107.604,167.751628 L107.699,168.343654 L109.019,169.39814 L109.019,170.339003 C110.267,171.172226 109.479,171.601794 110.435,171.985515 C110.273,171.698472 110.199,171.734352 110.199,171.279867 L110.199,170.574219 C110.199,169.858605 108.712,169.006445 108.764,168.220066 L109.019,164.692824 L109.019,164.222392 C109.019,163.501794 109.601,163.205781 110.199,163.047309 C109.814,161.608106 108,160.74299 107.604,159.047641 C106.345,158.941993 106.246,158.106777 105.481,158.106777 L104.773,158.106777 C104.711,157.370233 104.537,157.270565 104.537,156.459269 C104.537,155.894153 104.919,155.768571 105.245,155.283189 C105.046,154.909435 104.537,154.220731 104.537,153.871894 L104.537,151.518738 L104.537,151.048306 C104.19,150.394485 103.164,148.968239 103.122,148.46093 C102.248,148.144983 102.11,146.635017 101.707,145.873555 L101.707,145.402126 L101.707,145.167907 C101.707,144.297807 101.743,144.556944 101.47,143.990831 C101.599,143.440664 101.707,143.296146 101.707,142.579535 L101.76,142.339336 L101.5,139.362259 L103.122,138.81608 L103.122,139.521728 L104.065,139.521728 C104.885,139.521728 104.397,139.105116 105.481,138.81608 L105.481,139.286512 C105.834,139.201794 106.189,139.234684 106.189,138.81608 C106.189,138.172226 105.716,138.048638 105.716,137.404784 C105.716,136.980199 108.671,135.422392 109.255,135.287841 L109.255,134.34598 C109.658,134.077874 110.199,133.834684 110.199,133.1699 L110.199,132.699468 C110.199,132.033688 111.977,130.650299 112.794,130.582525 L112.794,129.87588 C112.794,129.065581 113.127,128.658937 113.439,128.241329 L113.266,127.053289 C114.111,126.82804 115.16,126.020731 115.621,125.402791 C116.102,124.75794 117.39,124.433023 118.22,123.995482 L118.697,124.025382 L122.231,123.52505 C123.331,123.340664 122.503,123.054618 123.41,123.054618 L124.118,123.054618 C124.715,123.054618 125.412,122.112757 126.241,122.112757 L126.719,122.100797 L127.657,122.583189 C127.8,122.368904 128.04,121.877542 128.364,121.877542 L128.877,121.867575 L129.072,122.819402 C130.372,122.848306 130.279,123.288837 130.959,123.288837 C131.564,123.288837 131.53,123.233023 131.903,123.054618 C132.389,123.378538 132.515,123.760266 133.082,123.760266 C134.069,123.760266 133.698,123.389502 134.504,123.484186 L136.385,123.760266 C136.8,123.830033 136.991,123.515083 137.338,123.26093 L138.32,123.571894 L138.761,123.010764 L139.452,123.288837 C140.559,122.522392 139.768,123.550963 140.193,122.478538 L141.811,123.054618 L142.283,123.054618 L142.755,123.054618 C143.61,123.054618 144.072,123.25196 144.583,123.338671 L145.822,123.054618 L145.822,123.52505 C147.138,123.415415 147.164,122.34897 147.945,122.34897 C148.847,122.34897 148.031,122.276213 148.653,122.583189 C148.941,122.422724 148.905,122.34897 149.36,122.34897 C150.262,122.34897 149.446,122.276213 150.068,122.583189 C150.331,122.407774 150.862,121.877542 151.012,121.877542 C151.784,121.877542 151.802,122.161595 151.956,122.583189 C152.232,122.510432 152.598,122.34897 152.664,122.34897 C153.063,122.34897 153.544,122.661927 153.842,122.819402 L154.315,122.819402 L154.787,122.819402 C155.33,122.819402 155.495,122.982857 155.495,123.52505 C155.495,124.159934 155.381,124.173887 155.258,124.70113 C156.483,125.142658 155.561,126.347641 156.91,126.347641 L157.145,126.347641 C157.913,126.347641 157.324,126.144319 158.325,125.877209 C158.344,125.032027 158.414,123.760266 159.269,123.760266 C160.614,123.760266 161.683,122.819402 162.1,122.819402 L162.335,122.819402 L162.807,122.819402 C163.569,121.685183 163.587,122.623056 164.602,121.080199 C164.962,120.53103 165.996,119.577209 165.933,118.810764 L165.638,116.938007 C165.554,116.415748 165.734,116.289169 165.874,115.997143 C165.708,115.664252 165.638,115.605449 165.638,115.056279 L165.638,114.114419 C166.609,113.856279 166.186,113.643987 166.818,112.703123 C166.656,112.41608 166.582,112.450963 166.582,111.997475 C166.582,111.840997 167.325,111.119402 167.526,110.821395 C166.852,110.641993 166.179,110.00711 166.11,109.174884 C165.482,109.007442 164.695,108.514086 164.695,107.762591 L164.695,107.527375 C164.695,106.874551 165.881,105.27289 167.054,105.175216 L167.054,104.234352 L165.874,104.234352 C165.237,104.234352 165.224,104.121728 164.695,103.999136 C164.715,103.060266 164.803,103.12804 165.166,102.586844 L165.638,102.586844 C166.433,102.586844 167.289,102.171229 167.289,101.411761 L167.289,99.7642525 C167.289,98.9479734 167.761,99.4054485 167.761,98.5881728 C167.761,97.953289 167.874,97.9393355 167.998,97.412093 C167.48,96.6416611 167.38,97.0851827 167.235,96.0954817 L165.867,95.2592691 L164.458,95.5303654 C163.829,95.1087708 163.546,94.3851827 162.807,94.1180731 C162.779,92.8483056 162.1,92.2792027 162.1,92.0011296 C162.1,91.2924917 162.889,90.4881728 163.279,90.119402 C162.317,90.0396678 161.557,89.6968106 160.599,89.4984718 C159.857,89.3439867 157.868,88.7081063 157.853,88.7081063 C156.993,88.7081063 157.291,88.4968106 156.248,88.4250498 L155.73,88.0024585 C155.706,86.9160797 155.495,87.2140864 155.495,86.3549502 L155.575,85.8177409 L153.843,83.5323588 C152.384,83.4117608 152.961,82.2954817 152.028,81.3426578 C151.094,80.3898339 150.581,80.7087708 149.832,79.2974751 L149.796,78.8220598 L150.325,75.7632558 L149.832,74.1227243 C150.271,72.24299 149.596,71.667907 149.596,69.8878405 C149.596,69.1522924 151.248,67.1699003 151.248,65.4177409 L151.248,63.0655814 L151.248,62.5951495 C149.889,60.0356811 148.418,59.0629236 145.743,57.7333555 C144.554,57.1423256 143.514,56.3788704 143.014,55.2795349 C141.867,52.7599336 142.394,53.8931561 140.16,52.7150831 L140.16,52.2446512 C140.16,50.7526246 138.086,48.9037874 137.265,47.8383389 C136.217,46.4808638 135.797,44.3300332 134.262,43.3044518 C133.754,43.5725581 132.991,44.2463123 132.611,44.2463123 C131.894,44.2463123 131.81,43.8376744 131.667,43.3044518 L129.78,43.3044518 C128.635,43.3044518 127.121,41.4227243 124.589,41.4227243 L124.354,41.4227243 L123.874,41.4356811 L122.955,41.0130897 L121.051,41.4227243 C120.529,42.4064452 120.373,41.9320266 120.107,43.0692359 C120.461,43.1539535 120.815,43.1210631 120.815,43.5396678 L120.829,44.0509635 L118.474,44.726711 L118.047,45.4104319 L118.161,46.5117608 L116.601,47.5433223 L116.345,48.4752159 L116.588,49.1978073 L115.861,50.5971429 C114.504,50.5672425 114.424,49.891495 113.974,49.891495 C112.401,49.891495 110.186,52.0991362 108.547,52.4798671 C108.493,53.1436545 108.553,53.4207309 107.84,53.4207309 L106.896,53.4207309 C106.51,53.4207309 106.189,53.2792027 106.189,52.950299 C106.189,52.8137542 106.791,51.5200664 106.821,51.3456478 L106.424,50.5971429 L105.953,50.5971429 L103.83,50.5971429 C103.188,50.5971429 102.42,49.6572757 101.955,49.409103 C100.964,48.8808638 100.619,49.5695681 99.813,48.4861794 C99.081,47.4994684 98.734,47.5901661 98.215,47.0210631 C97.229,45.9416611 98.809,46.2446512 96.28,45.657608 C95.365,46.2685714 93.31,49.1858472 92.27,49.1858472 C91.255,49.1858472 90.991,48.9117608 90.147,48.7154153 C89.899,49.1828571 89.203,50.6689037 89.203,51.3027907 C89.203,52.078206 88.484,52.0094352 87.788,52.0094352 L87.551,52.0094352 L87.08,52.0094352 C86.841,52.3632558 86.007,53.1695681 85.665,53.4207309 L85.688,54.4522924 L83.777,54.8320266 L83.777,55.3024585 L83.069,55.3024585 L82.597,55.3024585 C81.567,57.2439867 81.393,56.3778738 80.29,57.4712292 C79.267,58.4858472 79.75,59.3818605 77.879,59.5373422 C77.824,60.2011296 77.885,60.478206 77.171,60.478206 L76.228,60.478206 C75.849,59.5413289 74.205,59.2124252 73.633,58.3602658 C73.756,57.8330233 73.869,57.8200664 73.869,57.184186 L73.869,56.7137542 C74.026,56.4167442 74.34,55.9363455 74.34,55.5376744 C74.34,55.3971429 74.015,55.0493023 73.949,54.8439867 L74.104,53.4207309 L74.863,53.4107641 L74.576,51.7742193 C75.472,51.3456478 75.9,51.6187375 76.268,50.6380066 C76.623,49.6921595 76.325,49.2954817 77.704,49.1778738 L77.407,47.3041196 C77.68,46.7380066 77.643,46.9981395 77.643,46.1270432 C77.643,45.2280399 77.571,46.0423256 77.879,45.4213953 L77.407,45.4213953 L77.407,43.7758804 C77.407,42.8758804 77.335,43.6901661 77.643,43.0692359 C76.964,42.8888372 75.284,42.0067774 75.284,41.1875083 C75.284,40.1290365 76.936,39.0715615 77.643,38.6001329 L77.643,37.6582724 C79.275,36.7981395 78.667,37.4041196 79.514,35.8203987 L78.823,35.5413289 L78.832,35.0718937 L79.059,32.9539535 L79.059,32.0130897 C79.059,31.2705648 79.708,31.2785382 80.086,30.4493023 C80.353,29.8652492 80.078,30.0167442 80.425,29.6110963 C80.686,29.3071096 81.182,29.4107641 81.182,28.9542857 C81.182,27.5310299 79.059,28.4340199 79.059,25.6612625 C79.059,24.7612625 78.986,25.5755482 79.219,24.9974751 L78.823,24.2499668 L78.823,23.7795349 L78.823,23.3081063 C78.823,22.7240532 78.233,22.4240532 77.879,21.8968106 C78.632,20.4785382 77.853,20.0519601 79.531,20.0150831 C79.611,19.0483056 79.767,19.4898339 79.767,18.6037874 C79.767,18.1493023 79.346,17.6629236 79.059,17.6629236 C78.239,17.6629236 78.699,18.1333555 77.879,18.1333555 L76.7,18.1333555 C76.319,18.1333555 75.556,17.4596013 75.048,17.1924917 L74.576,17.1924917 L72.925,17.1924917 C72.023,17.1924917 72.839,17.2642525 72.217,16.9562791 C71.805,17.5702326 70.688,19.5446512 69.858,19.5446512 C68.334,19.5446512 68.222,18.6037874 66.319,18.6037874 L66.319,19.5446512 C64.88,19.5446512 64.067,19.2306977 63.53,18.3795349 L63.725,17.4277076 C62.727,17.1615947 62.572,16.5396678 62.545,15.3107641 C62.147,15.0346844 62.073,15.2768771 62.073,14.6051163 L62.09,13.9423256 L62.781,13.6632558 L62.828,12.7692359 L63.252,12.2519601 L63.725,12.2519601 L64.389,12.2459801 L64.668,9.89980066 L64.668,9.66458472 C64.668,8.55129568 65.344,8.01807309 65.378,6.61674419 L63.96,6.84099668 C63.718,5.93501661 62.627,4.90644518 61.837,4.48883721 C61.811,3.34863787 60.973,1.66624585 59.95,1.66624585 L59.242,1.66624585 C59.035,2.55229236 58.913,3.45727575 57.827,3.54797342 L57.827,4.25362126 C57.827,4.79581395 57.663,4.9592691 57.119,4.9592691 L56.64,4.97222591 L55.704,4.48883721 L55.704,4.01840532 L55.704,2.84232558 C55.704,1.94232558 55.631,2.7566113 55.939,2.13667774 C54.902,1.64033223 53.903,1.69415282 53.582,0.498139535 L51.562,0.806112957 L50.749,1.66624585 C50.732,2.41973422 50.826,2.84232558 50.041,2.84232558 L49.57,2.84232558 C48.965,2.84232558 48.999,2.78551495 48.626,2.60611296 C48.363,2.78252492 47.832,3.31275748 47.683,3.31275748 C46.771,3.31275748 47.582,2.98983389 46.497,2.88518272 L44.144,2.60611296 C44.144,4.72006645 45.087,4.69415282 45.087,5.429701 L45.087,5.66491694 C45.087,6.33069767 43.309,7.71109635 42.728,8.01807309 L42.26,8.06192691 L39.426,8.25229236 C39.089,7.32637874 39.39,8.22737542 38.708,7.36225914 L37.016,7.02637874 L36.359,7.78186047 C34.464,7.82372093 35.37,8.75760797 34.748,10.1240532 L34.943,11.0758804 L34.41,11.0838538 L34.707,12.957608 C34.561,13.2336877 33.498,15.0745515 33.292,15.0745515 C32.639,15.0745515 32.725,14.8931561 32.589,14.3818605 L31.876,14.6051163 C31.709,14.516412 30.718,13.8984718 30.697,13.8984718 C29.759,13.8984718 29.982,14.8393355 29.045,14.8393355 L28.102,14.8393355 L27.63,14.8393355 C27.046,15.147309 26.868,15.2011296 26.122,15.453289 C25.338,15.719402 24.978,16.2506312 24.799,16.2506312 C24.146,16.2506312 24.231,16.0702326 24.084,15.5330233 L23.147,16.016412 C22.595,15.8878405 22.451,15.781196 21.732,15.781196 L20.553,15.781196 L20.074,15.7682392 L19.137,16.2506312 L18.665,16.2506312 C17.952,16.2506312 18.013,15.9745515 17.957,15.3107641 C16.596,14.9479734 17.358,14.1785382 15.427,13.984186 L14.479,13.6732226 L14.183,15.3107641 C14.331,15.9426578 14.798,16.9562791 13.711,16.9562791 L13.003,16.9562791 C12.986,17.7107641 13.08,18.1333555 12.295,18.1333555 L11.352,18.1333555 C10.639,18.1333555 10.7,18.4094352 10.644,19.0742193 L11.116,19.0742193 C11.069,21.1881728 9.465,20.6778738 9.465,21.8968106 L9.465,22.1320266 C9.465,22.9642525 10.172,22.8436545 10.172,23.3081063 C10.172,23.9589369 9.99,23.8742193 9.465,24.0147508 C9.769,25.1529568 10.408,24.8011296 10.408,25.6612625 L10.408,27.3077741 L10.408,27.778206 C9.551,28.2306977 8.699,29.0798671 8.285,29.1895017 L8.285,29.8951495 L8.302,30.4024585 L7.105,30.83701 C7.423,32.0220598 7.905,31.557608 8.521,32.7187375 L8.483,33.1941528 L8.993,37.4240532 L8.993,37.894485 C8.993,38.4366777 8.829,38.6001329 8.285,38.6001329 L7.105,38.6001329 L6.634,38.6001329 C5.534,39.1801993 4.802,39.5798671 3.8,40.1699003 L2.151,40.2466445 C1.482,38.9858472 1.783,38.8064452 0.5,38.129701 C0.581,39.1014618 0.798,39.1094352 1.444,39.5409967 C1.466,40.5456478 1.632,41.1496346 2.387,41.4227243 L2.387,43.0692359 C2.387,43.7190698 3.155,44.2064452 3.567,44.4815282 C3.911,43.9682392 4.248,43.0692359 4.982,43.0692359 C5.472,43.0692359 6.162,43.7579402 6.162,44.0100997 C6.162,44.726711 6.055,44.8712292 5.873,45.4752159 L7.105,46.5984718 L7.105,47.0689037 C7.105,47.9270432 7.317,47.6290365 7.341,48.7154153 C7.93,49.109103 8.285,49.6293688 8.285,50.5971429 L8.285,51.0685714 C7.24,51.6197342 7.658,51.2021262 7.117,52.2416611 L7.341,53.6559468 C8.552,53.9778738 8.613,54.957608 9.276,55.9602658 C10.331,57.5539535 10.409,57.0277076 11.514,57.963588 C12.228,58.5685714 11.365,58.473887 12.378,59.2203987 C12.859,59.5742193 13.195,59.6669103 13.624,60.094485 C14.486,60.9526246 14.755,61.7908306 15.834,62.3599336 L15.834,62.8303654 L15.834,63.5360133 L16.306,63.5360133 L16.424,64.1240532 L17.014,64.947309 L17.722,64.947309 C18.125,66.4542857 19.325,65.8443189 19.425,67.953289 L20.316,68.9469767 L20.789,68.9469767 C21.677,68.9469767 21.234,69.1014618 22.204,69.1821927 C22.418,69.9835216 22.805,70.6124252 23.619,70.8287043 L23.619,71.7705648 C23.829,71.8871761 24.091,71.9230565 24.091,72.24 C24.091,72.6386711 23.777,73.1200664 23.619,73.4160797 C23.829,73.5346844 24.091,73.5695681 24.091,73.8875083 C24.091,74.7167442 23.147,74.8343522 23.147,75.298804 C23.147,75.963588 23.689,76.2067774 24.091,76.4748837 L24.091,77.4157475 C25.188,77.5064452 25.246,77.94299 25.271,79.0622591 C25.621,79.3184053 26.686,80.6579402 26.686,81.1801993 L26.686,81.4154153 C26.686,82.3144186 26.759,81.5011296 26.45,82.1210631 C26.787,82.6034551 27.158,83.2154153 27.158,84.0027907 L27.158,84.7084385 C28.517,84.3466445 27.447,83.9310299 28.597,83.3200664 C29.357,82.9154153 29.74,82.8167442 29.989,81.8858472 L31.874,81.8858472 L32.348,83.7675748 C32.225,84.2948173 32.112,84.3087708 32.112,84.9436545 L32.112,85.4140864 C31.602,85.6831894 30.933,85.8247176 30.933,86.5911628 L30.933,86.8253821 L30.992,87.3406645 L29.989,88.4728904 C29.436,88.3443189 29.292,88.2366777 28.574,88.2366777 C27.936,88.2366777 27.923,88.1250498 27.394,88.0024585 C26.805,89.2273754 27.512,88.7290365 26.212,89.4217276 L25.035,89.1785382 C25.186,90.5569435 25.978,89.667907 25.978,90.8250498 C25.978,91.6423256 25.507,91.1838538 25.507,92.0011296 C25.507,92.8293688 25.892,92.8522924 25.669,93.8011296 C25.459,94.6931561 25.035,94.7180731 25.035,95.2951495 C25.035,96.0107641 24.928,96.1552824 24.828,96.7014618 L25.046,98.3519601 L25.271,103.528704 C23.663,103.492824 24.535,103.058272 23.619,103.058272 L23.383,103.058272 L22.912,103.058272 C22.156,103.456944 22.059,103.14299 21.968,104.234352 C21.028,104.574219 21.584,104.94 21.024,104.94 C20.136,104.94 20.578,104.785515 19.723,104.799468 L18.665,106.11608 L17.734,106.111096 L17.978,106.827708 L17.445,108.505116 L18.242,109.42206 L17.895,110.614086 L18.429,111.762259 L18.429,112.232691 L18.429,112.467907 C18.429,113.248306 18.901,112.959269 18.901,113.408771 C18.901,113.947973 18.821,113.682857 18.665,114.349635 C19.381,114.607774 21.175,117.668571 22.912,118.584518 L22.912,119.05495 L22.912,119.995814 C24.461,120.124385 24.671,122.741661 25.743,123.52505 L25.743,124.465914 L26.686,124.465914 C27.539,125.626047 27.472,124.170897 27.866,125.641993 C29.803,125.802458 28.905,127.375216 30.697,127.523721 C30.951,128.471561 31.099,128.290166 31.865,128.658937 L32.702,128.582193 L33.528,129.170233 L33.689,130.036346 L34.335,131.405781 L35.415,132.464252 L35.415,133.1699 Z" id="Fill-7" fill="#FFFFFF"></path>
                <path d="M35.415,133.1699 L35.887,133.1699 L35.887,133.875548 L35.887,134.110764 L36.595,134.816412 L37.302,136.227708 L37.302,136.699136 L37.302,139.051296 C37.302,139.868571 37.774,139.4101 37.774,140.227375 L37.845,140.933023 L37.722,144.940664 L38.01,147.049635 L36.358,147.049635 C36.51,147.680532 36.595,147.493156 36.595,147.990498 L36.595,148.46093 C36.437,148.75794 36.123,149.239336 36.123,149.63701 C36.123,150.082525 37.774,150.512093 37.774,151.518738 L37.774,151.753953 C37.774,152.704784 37.818,151.856611 37.538,152.225382 C37.7,152.511429 37.774,152.476545 37.774,152.93103 L37.774,153.636678 C37.774,154.375216 38.718,154.540664 38.718,156.459269 C41.202,156.515083 38.672,157.455947 40.841,157.636346 C41.3,158.899136 41.875,157.909435 42.728,159.518073 C42.605,160.045316 42.492,160.059269 42.492,160.694153 C42.492,161.297143 42.436,161.263256 42.256,161.635017 C42.341,161.811429 42.964,163.029369 42.964,163.047309 C42.964,163.649302 42.907,163.615415 42.728,163.987176 C43.394,165.371561 43.511,165.582857 43.971,167.309103 L43.436,168.457276 C44.069,168.306777 43.881,168.22206 44.379,168.22206 C44.738,168.22206 45.134,168.378538 45.14,168.699468 L44.852,170.810432 C45.791,170.888173 45.621,170.90412 46.031,171.51608 C45.97,172.251628 45.795,172.351296 45.795,173.162591 C45.795,173.924053 46.676,174.526047 47.21,174.808106 C46.999,175.71309 46.897,176.59515 46.331,177.22505 C45.918,177.685515 45.232,179.04299 44.852,179.04299 C44.214,179.04299 44.201,178.931362 43.672,178.807774 C43.51,179.094817 43.436,179.059934 43.436,179.514419 L43.436,179.98485 L43.436,180.454286 C42.785,181.681196 43.262,181.446977 42.02,182.101794 L42.02,182.572226 L42.02,183.042658 C42.02,183.887841 40.979,184.133023 40.369,184.453953 L40.369,184.924385 L40.369,185.394817 C40.369,186.423389 39.235,185.93701 39.173,187.938339 L38.482,188.217409 L38.482,189.159269 C37.155,189.858937 37.78,190.029369 36.975,190.479867 C35.776,191.150631 36.025,190.617409 35.651,192.217076 L34.471,192.217076 C34.085,192.217076 33.764,192.358605 33.764,192.687508 C33.764,192.82804 34.089,193.17588 34.235,193.394153 C33.756,194.389834 33.856,194.199468 33.291,195.039668 L32.82,195.039668 L32.112,195.039668 C31.752,196.385183 31.613,195.24 30.699,196.218738 C30.233,196.718073 29.993,197.370897 29.281,197.62804 L29.281,199.274551 L29.928,199.282525 L30.225,201.157276 C29.022,202.947309 28.441,207.833023 26.686,207.979535 C26.336,209.478538 25.676,210.53402 25.035,211.74299 L24.091,211.74299 L24.016,210.995482 L23.619,211.74299 C24.017,212.018073 24.091,211.776877 24.091,212.448638 C24.091,213.165249 24.198,213.308771 24.371,213.877874 L24.091,214.565581 C24.301,214.683189 24.563,214.71907 24.563,215.03701 C24.563,215.415748 23.888,216.177209 23.619,216.683522 L23.619,217.153953 C23.619,217.964252 23.794,218.064917 23.86,218.813422 L23.147,219.035681 C23.128,219.88485 22.201,223.162924 21.732,223.505781 C21.708,224.559269 21.424,225.629701 20.789,226.092159 L20.789,227.03402 C20.512,227.107774 20.145,227.269236 20.081,227.269236 C19.54,227.269236 19.806,227.189502 19.181,227.050963 L18.901,227.739668 L18.744,228.214086 L18.901,232.443987 C18.925,233.31309 18.957,232.562591 18.665,233.150631 C18.784,233.320066 19.151,233.752625 19.197,233.864252 L18.901,236.209435 C18.759,237.27887 18.429,236.476545 18.429,237.385515 L18.429,237.620731 C18.429,238.223721 18.486,238.188837 18.602,238.548638 L18.429,239.737674 C18.032,240.012757 17.957,239.771561 17.957,240.443322 C17.957,242.66392 19.373,244.688173 19.373,246.559934 L19.407,247.028372 L19.384,250.556611 L19.609,251.9699 L19.103,251.974884 L19.321,254.572226 L19.596,255.494153 L19.373,256.204784 C19.661,256.366246 19.625,256.440997 20.081,256.440997 L20.316,256.440997 C21.219,256.440997 20.402,256.367243 21.023,256.675216 L21.719,255.268904 L21.496,254.558272 C21.741,254.193488 22.204,253.702126 22.204,253.146977 L22.204,252.676545 C22.116,252.5101 21.496,251.521395 21.496,251.500465 C21.496,250.871561 21.837,250.803787 22.204,250.558605 C22.042,250.271561 21.968,250.307442 21.968,249.852957 C21.968,248.953953 21.895,249.767243 22.204,249.147309 C21.914,248.906113 21.968,249.53103 21.968,248.677874 L21.968,248.441661 C21.968,247.876545 22.35,247.749967 22.676,247.265581 C22.514,246.978538 22.44,247.014419 22.44,246.559934 C22.44,246.077542 22.926,246.127375 23.383,246.089502 L23.383,245.148638 C24.245,244.572558 25.038,244.003455 26.51,243.980532 L26.29,246.366578 L26.686,245.61907 L27.158,245.61907 C27.687,245.61907 27.676,245.805449 28.102,246.089502 L28.102,247.030365 C28.317,247.174884 28.81,247.41309 28.81,247.736013 C28.81,248.34 28.753,248.305116 28.574,248.677874 C28.739,249.009767 28.81,249.067575 28.81,249.617741 L28.81,249.852957 C28.81,250.635349 29.233,250.542658 29.989,250.558605 C30.107,250.767907 30.143,251.030033 30.461,251.030033 C31.274,251.030033 31.374,250.855615 32.141,250.759934 L32.82,251.264252 L32.82,252.206113 C33.218,252.481196 33.291,252.24 33.291,252.911761 C33.291,253.7699 33.503,253.471894 33.533,254.571229 L32.817,254.795482 L33.291,255.734352 L34.235,255.734352 C34.312,256.651296 34.656,256.957276 34.714,257.626047 C34.784,258.441329 34.471,258.610764 34.471,259.733023 C34.471,260.134684 35.173,261.850963 35.651,261.850963 C36.035,261.850963 36.201,261.20711 36.358,260.9101 L36.358,260.438671 L36.358,259.733023 L36.358,259.263588 C36.113,258.80113 35.887,258.568904 35.887,257.852292 L35.887,256.910432 L36.595,256.910432 C37.363,256.910432 37.504,257.578206 37.774,258.086512 C38.938,258.112425 38.928,258.102458 38.954,259.263588 C39.701,259.532691 39.514,259.717076 39.906,260.441661 L39.661,261.615748 C40.365,261.674551 40.841,261.785183 40.841,262.556611 C40.841,263.273223 40.734,263.417741 40.579,263.991827 L41.785,265.615415 L42.492,265.615415 C43.394,265.615415 42.578,265.542658 43.2,265.849635 C43.318,265.640332 43.353,265.379203 43.672,265.379203 C44.201,265.379203 44.19,265.565581 44.616,265.849635 L44.616,266.321063 C44.616,267.520066 45.272,267.443322 45.559,268.673223 C46.528,268.592492 46.086,268.438007 46.975,268.438007 C47.739,268.438007 46.873,268.957276 47.952,269.382857 L47.683,271.967243 L47.683,274.553621 L48.626,274.553621 C49.369,275.566246 49.649,274.502791 50.041,275.965914 C50.596,276.011761 51.221,276.178206 51.221,276.671561 C51.221,277.436013 51.017,276.84897 50.749,277.847641 C51.382,277.697143 51.194,277.612425 51.693,277.612425 C52.216,277.612425 51.769,278.207442 53.108,278.31907 L53.108,279.730365 L53.697,279.80711 L54.76,281.141661 C55.763,280.907442 56.568,280.77588 56.089,282.018738 L56.507,283.087176 L57.119,282.082525 C56.996,281.555282 56.883,281.541329 56.883,280.906445 C56.883,280.477874 57.242,280.528704 57.591,280.436013 C57.467,279.908771 57.355,279.894817 57.355,279.258937 L57.372,277.657276 L58.062,277.377209 C58.488,277.662259 58.477,277.847641 59.006,277.847641 L59.242,277.847641 L59.714,277.847641 C60.04,278.332027 60.422,278.458605 60.422,279.024718 L60.422,279.494153 C60.422,280.555615 61.778,281.009103 62.545,281.376877 C62.549,281.37289 62.985,281.141661 63.017,281.141661 C63.311,281.141661 66.509,282.788173 67.735,282.788173 C68.258,282.788173 67.811,282.194153 69.15,282.082525 L69.15,282.552957 L70.209,282.515083 L71.273,285.610764 C71.129,286.227708 70.715,287.02206 71.746,287.02206 L72.453,287.02206 C73.288,287.02206 73.166,286.316412 73.633,286.316412 C74.452,286.316412 73.993,286.787841 74.812,286.787841 L76.419,286.803787 L76.7,287.493488 L76.7,287.96392 L76.692,288.421395 L75.756,288.904784 C76.417,289.803787 76.377,288.937674 76.7,290.31608 C76.576,290.843322 76.464,290.857276 76.464,291.492159 C76.464,292.127043 76.576,292.140997 76.707,292.673223 L75.992,293.845316 L75.52,293.845316 L74.853,293.852292 L74.476,295.663256 L74.223,296.314086 L74.812,297.138339 C76.547,297.28186 75.799,297.791163 76.936,298.549635 L77.879,299.020066 L78.275,298.955282 L79.343,298.067243 L79.059,296.903123 C79.329,296.394817 79.47,295.727043 80.238,295.727043 L80.71,295.727043 C81.433,295.727043 81.864,295.043322 82.125,294.550963 L82.597,294.550963 L83.541,294.550963 C84.249,294.550963 84.72,293.6101 85.428,293.6101 L86.136,293.6101 C86.853,293.6101 86.937,294.017741 87.08,294.550963 L87.788,294.550963 L87.788,295.727043 C87.788,296.491495 87.992,295.904452 88.259,296.903123 C88.624,296.658937 89.118,296.197475 89.674,296.197475 C90.105,296.197475 90.053,296.556279 90.147,296.903123 L90.854,296.903123 C91.082,296.05495 90.875,296.273223 91.798,296.197475 L91.798,295.256611 L92.707,295.228704 L93.213,294.550963 C93.207,294.541993 92.972,294.113422 92.937,294.072558 L93.213,292.198804 C93.662,292.017409 94.149,291.26093 94.69,290.847309 C95.173,290.477542 96.044,289.883522 96.044,289.14 L96.044,287.727708 L96.044,287.258272 C94.343,286.360266 90.801,283.40412 89.614,281.908106 C89.117,281.282193 87.615,279.027708 87.285,278.34897 C86.554,276.841993 85.815,276.067575 84.957,274.789834 L84.485,274.789834 C83.424,274.789834 82.714,274.084186 81.654,274.084186 C81.125,274.084186 81.136,274.269568 80.71,274.553621 C80.181,274.43103 80.167,274.319402 79.53,274.319402 C79.131,274.319402 78.649,274.632359 78.351,274.789834 L77.877,274.7699 L74.34,275.02505 C73.41,275.108771 71.327,272.90711 70.802,272.90711 L70.33,272.90711 C68.667,272.90711 66.859,268.318405 65.527,267.346645 C63.122,265.593488 63.394,262.929369 62.073,260.438671 L62.073,259.969236 L62.073,259.733023 C62.073,258.310764 60.735,254.629037 60.48,252.667575 L60.186,250.794817 C59.991,249.577874 59.604,247.562591 59.274,246.52804 C59.023,245.745648 58.103,243.042658 58.062,242.560266 C57.537,242.700797 57.355,242.61608 57.355,243.265914 L57.355,244.206777 C55.743,244.171894 54.795,242.746645 54.76,241.14897 C53.381,240.229037 52.894,240.442326 52.644,238.318405 C52.448,236.653953 52.165,235.405116 52.165,233.621063 L52.165,230.563256 L52.165,230.091827 C51.896,229.585515 51.221,228.82505 51.221,228.445316 L51.221,227.739668 L51.213,227.273223 L50.499,225.663588 L49.081,225.108439 L48.373,225.431362 L47.683,225.152292 C47.451,225.466246 46.426,226.092159 46.031,226.092159 L44.852,226.092159 L44.389,226.09814 L43.672,227.504452 L43.19,227.444651 L41.494,227.834352 L40.133,227.03402 C39.604,227.157608 39.591,227.269236 38.954,227.269236 C38.028,227.269236 37.774,226.105116 37.774,225.152292 L37.774,224.680864 C39.004,224.033023 38.769,224.509435 39.425,223.269568 C38.496,221.886179 37.774,221.771561 37.774,219.270897 C36.859,218.940997 36.358,217.183854 36.358,215.977874 L36.358,215.03701 C36.358,214.374219 36.46,214.600465 36.831,214.331362 C36.669,214.044319 36.595,214.079203 36.595,213.625714 L36.595,213.389502 C36.595,212.439668 36.551,213.287841 36.831,212.920066 C36.669,212.633023 36.595,212.667907 36.595,212.213422 L36.595,211.74299 C36.595,210.962591 37.066,211.251628 37.066,210.802126 C37.066,210.724385 36.358,209.93701 36.358,208.920399 L36.358,208.44897 C36.742,208.247641 38.587,206.456611 38.718,206.096811 L37.538,206.096811 C36.986,206.096811 36.595,205.706113 36.595,205.156944 L36.595,203.744651 C37.227,203.593156 37.039,203.509435 37.538,203.509435 C38.067,203.509435 38.056,203.695814 38.477,203.96691 L39.189,203.744651 C39.069,202.305449 38.392,203.026047 38.01,201.391495 C39.055,200.840332 38.637,201.256944 39.189,200.216412 L39.189,199.744983 L39.189,199.510764 L39.189,199.039336 C39.687,198.101462 39.58,197.497475 40.841,197.392824 C41.035,196.667243 41.285,196.177874 41.977,195.975548 L42.256,193.628372 L43.2,193.628372 C43.586,193.628372 43.908,193.488837 43.908,193.15794 C43.908,192.708439 43.436,192.997475 43.436,192.217076 L43.436,191.98186 C43.436,191.37887 43.493,191.413754 43.672,191.040997 C43.507,190.708106 43.436,190.650299 43.436,190.100133 C43.436,189.383522 43.329,189.24 43.2,188.688837 C43.452,187.610432 43.338,187.579535 44.157,186.990498 L45.087,187.276545 C44.82,186.277874 44.616,186.865914 44.616,186.100465 L44.616,184.218738 C45.601,183.956611 46.474,181.497807 46.503,180.220066 C47.755,179.30412 47.905,176.61309 49.754,176.442658 L50.041,175.514751 C49.88,175.227708 49.806,175.262591 49.806,174.808106 C49.806,174.465249 50.097,174.464252 50.277,174.338671 C50.116,174.051628 50.041,174.087508 50.041,173.633023 L50.041,173.162591 C50.784,171.763256 50.72,171.506113 51.812,170.223389 C52.165,169.807774 54.052,167.851296 54.052,167.516412 C54.052,167.126711 53.517,166.194817 53.344,165.8699 L53.344,165.399468 L53.344,165.164252 C53.344,164.636013 53.531,164.646977 53.816,164.222392 C53.619,163.381196 53.344,163.117076 53.344,162.105449 L53.344,160.929369 C53.344,159.856944 52.773,159.155282 52.779,158.561262 L53.344,155.283189 L53.344,154.812757 C54.345,152.926047 54.45,151.74 55.708,149.860266 L54.943,149.630033 L55.231,148.225714 C54.748,147.506113 52.636,146.189502 52.636,145.402126 L52.636,144.932691 L52.636,144.462259 C55.559,142.919402 55.607,141.168239 60.422,141.168239 L60.422,141.638671 L60.894,141.638671 L60.958,140.893156 L61.365,141.403455 L61.372,140.997807 L64.432,140.697807 L64.904,140.697807 C65.133,140.577209 66.308,139.756944 66.319,139.756944 C66.576,139.756944 66.808,140.229369 67.282,140.443654 C67.793,140.674884 68,140.612093 68.675,140.728704 L72.925,141.168239 L73.161,141.168239 C73.945,141.168239 73.852,141.590831 73.869,142.344319 L73.397,142.344319 L73.397,142.814751 L73.869,142.814751 L73.869,143.756611 L73.141,143.768571 L73.346,144.145316 L72.453,144.696478 C72.651,145.070233 73.161,145.758937 73.161,146.108771 L73.161,146.579203 L73.217,147.085515 L71.746,149.401794 C72.449,149.460598 72.925,149.571229 72.925,150.342658 L72.925,150.81309 C72.925,151.528704 72.516,151.612425 71.981,151.753953 L71.981,152.459601 L71.399,152.542326 L72.405,153.648638 L72.727,154.837674 L71.981,155.989834 L71.038,155.989834 L71.038,157.164917 C71.038,157.73103 71.42,157.857608 71.746,158.341993 L72.639,158.391827 L73.397,159.047641 L73.397,158.106777 C75.561,156.963588 75.749,157.40113 78.115,157.40113 L78.587,157.40113 C80.187,157.40113 81.532,158.250299 82.597,158.812425 C82.843,158.445648 82.91,158.106777 83.541,158.106777 L83.782,158.160598 L87.244,157.816744 L88.023,156.695482 L88.496,156.695482 L88.967,156.695482 C90.847,156.695482 92.129,157.835681 92.346,159.416412 L93.45,160.223721 C93.737,160.062259 93.702,159.988505 94.157,159.988505 C95.075,159.988505 95.089,160.977209 95.832,161.376877 C97.08,162.046645 96.657,162.075548 97.466,162.80412 C97.942,163.232691 100.29,165.533023 100.29,166.105116 L100.29,166.575548 C100.29,166.960266 100.432,167.281196 100.762,167.281196 C100.904,167.281196 101.251,166.956279 101.47,166.810764 C101.845,167.008106 102.536,167.516412 102.885,167.516412 C103.718,167.516412 105.133,168.538007 105.716,168.927708 L105.716,167.516412 C105.716,167.061927 106.137,166.575548 106.424,166.575548 C106.992,166.575548 107.118,166.956279 107.604,167.281196 L107.604,167.751628 L107.699,168.343654 L109.019,169.39814 L109.019,170.339003 C110.267,171.172226 109.479,171.601794 110.435,171.985515 C110.273,171.698472 110.199,171.734352 110.199,171.279867 L110.199,170.574219 C110.199,169.858605 108.712,169.006445 108.764,168.220066 L109.019,164.692824 L109.019,164.222392 C109.019,163.501794 109.601,163.205781 110.199,163.047309 C109.814,161.608106 108,160.74299 107.604,159.047641 C106.345,158.941993 106.246,158.106777 105.481,158.106777 L104.773,158.106777 C104.711,157.370233 104.537,157.270565 104.537,156.459269 C104.537,155.894153 104.919,155.768571 105.245,155.283189 C105.046,154.909435 104.537,154.220731 104.537,153.871894 L104.537,151.518738 L104.537,151.048306 C104.19,150.394485 103.164,148.968239 103.122,148.46093 C102.248,148.144983 102.11,146.635017 101.707,145.873555 L101.707,145.402126 L101.707,145.167907 C101.707,144.297807 101.743,144.556944 101.47,143.990831 C101.599,143.440664 101.707,143.296146 101.707,142.579535 L101.76,142.339336 L101.5,139.362259 L103.122,138.81608 L103.122,139.521728 L104.065,139.521728 C104.885,139.521728 104.397,139.105116 105.481,138.81608 L105.481,139.286512 C105.834,139.201794 106.189,139.234684 106.189,138.81608 C106.189,138.172226 105.716,138.048638 105.716,137.404784 C105.716,136.980199 108.671,135.422392 109.255,135.287841 L109.255,134.34598 C109.658,134.077874 110.199,133.834684 110.199,133.1699 L110.199,132.699468 C110.199,132.033688 111.977,130.650299 112.794,130.582525 L112.794,129.87588 C112.794,129.065581 113.127,128.658937 113.439,128.241329 L113.266,127.053289 C114.111,126.82804 115.16,126.020731 115.621,125.402791 C116.102,124.75794 117.39,124.433023 118.22,123.995482 L118.697,124.025382 L122.231,123.52505 C123.331,123.340664 122.503,123.054618 123.41,123.054618 L124.118,123.054618 C124.715,123.054618 125.412,122.112757 126.241,122.112757 L126.719,122.100797 L127.657,122.583189 C127.8,122.368904 128.04,121.877542 128.364,121.877542 L128.877,121.867575 L129.072,122.819402 C130.372,122.848306 130.279,123.288837 130.959,123.288837 C131.564,123.288837 131.53,123.233023 131.903,123.054618 C132.389,123.378538 132.515,123.760266 133.082,123.760266 C134.069,123.760266 133.698,123.389502 134.504,123.484186 L136.385,123.760266 C136.8,123.830033 136.991,123.515083 137.338,123.26093 L138.32,123.571894 L138.761,123.010764 L139.452,123.288837 C140.559,122.522392 139.768,123.550963 140.193,122.478538 L141.811,123.054618 L142.283,123.054618 L142.755,123.054618 C143.61,123.054618 144.072,123.25196 144.583,123.338671 L145.822,123.054618 L145.822,123.52505 C147.138,123.415415 147.164,122.34897 147.945,122.34897 C148.847,122.34897 148.031,122.276213 148.653,122.583189 C148.941,122.422724 148.905,122.34897 149.36,122.34897 C150.262,122.34897 149.446,122.276213 150.068,122.583189 C150.331,122.407774 150.862,121.877542 151.012,121.877542 C151.784,121.877542 151.802,122.161595 151.956,122.583189 C152.232,122.510432 152.598,122.34897 152.664,122.34897 C153.063,122.34897 153.544,122.661927 153.842,122.819402 L154.315,122.819402 L154.787,122.819402 C155.33,122.819402 155.495,122.982857 155.495,123.52505 C155.495,124.159934 155.381,124.173887 155.258,124.70113 C156.483,125.142658 155.561,126.347641 156.91,126.347641 L157.145,126.347641 C157.913,126.347641 157.324,126.144319 158.325,125.877209 C158.344,125.032027 158.414,123.760266 159.269,123.760266 C160.614,123.760266 161.683,122.819402 162.1,122.819402 L162.335,122.819402 L162.807,122.819402 C163.569,121.685183 163.587,122.623056 164.602,121.080199 C164.962,120.53103 165.996,119.577209 165.933,118.810764 L165.638,116.938007 C165.554,116.415748 165.734,116.289169 165.874,115.997143 C165.708,115.664252 165.638,115.605449 165.638,115.056279 L165.638,114.114419 C166.609,113.856279 166.186,113.643987 166.818,112.703123 C166.656,112.41608 166.582,112.450963 166.582,111.997475 C166.582,111.840997 167.325,111.119402 167.526,110.821395 C166.852,110.641993 166.179,110.00711 166.11,109.174884 C165.482,109.007442 164.695,108.514086 164.695,107.762591 L164.695,107.527375 C164.695,106.874551 165.881,105.27289 167.054,105.175216 L167.054,104.234352 L165.874,104.234352 C165.237,104.234352 165.224,104.121728 164.695,103.999136 C164.715,103.060266 164.803,103.12804 165.166,102.586844 L165.638,102.586844 C166.433,102.586844 167.289,102.171229 167.289,101.411761 L167.289,99.7642525 C167.289,98.9479734 167.761,99.4054485 167.761,98.5881728 C167.761,97.953289 167.874,97.9393355 167.998,97.412093 C167.48,96.6416611 167.38,97.0851827 167.235,96.0954817 L165.867,95.2592691 L164.458,95.5303654 C163.829,95.1087708 163.546,94.3851827 162.807,94.1180731 C162.779,92.8483056 162.1,92.2792027 162.1,92.0011296 C162.1,91.2924917 162.889,90.4881728 163.279,90.119402 C162.317,90.0396678 161.557,89.6968106 160.599,89.4984718 C159.857,89.3439867 157.868,88.7081063 157.853,88.7081063 C156.993,88.7081063 157.291,88.4968106 156.248,88.4250498 L155.73,88.0024585 C155.706,86.9160797 155.495,87.2140864 155.495,86.3549502 L155.575,85.8177409 L153.843,83.5323588 C152.384,83.4117608 152.961,82.2954817 152.028,81.3426578 C151.094,80.3898339 150.581,80.7087708 149.832,79.2974751 L149.796,78.8220598 L150.325,75.7632558 L149.832,74.1227243 C150.271,72.24299 149.596,71.667907 149.596,69.8878405 C149.596,69.1522924 151.248,67.1699003 151.248,65.4177409 L151.248,63.0655814 L151.248,62.5951495 C149.889,60.0356811 148.418,59.0629236 145.743,57.7333555 C144.554,57.1423256 143.514,56.3788704 143.014,55.2795349 C141.867,52.7599336 142.394,53.8931561 140.16,52.7150831 L140.16,52.2446512 C140.16,50.7526246 138.086,48.9037874 137.265,47.8383389 C136.217,46.4808638 135.797,44.3300332 134.262,43.3044518 C133.754,43.5725581 132.991,44.2463123 132.611,44.2463123 C131.894,44.2463123 131.81,43.8376744 131.667,43.3044518 L129.78,43.3044518 C128.635,43.3044518 127.121,41.4227243 124.589,41.4227243 L124.354,41.4227243 L123.874,41.4356811 L122.955,41.0130897 L121.051,41.4227243 C120.529,42.4064452 120.373,41.9320266 120.107,43.0692359 C120.461,43.1539535 120.815,43.1210631 120.815,43.5396678 L120.829,44.0509635 L118.474,44.726711 L118.047,45.4104319 L118.161,46.5117608 L116.601,47.5433223 L116.345,48.4752159 L116.588,49.1978073 L115.861,50.5971429 C114.504,50.5672425 114.424,49.891495 113.974,49.891495 C112.401,49.891495 110.186,52.0991362 108.547,52.4798671 C108.493,53.1436545 108.553,53.4207309 107.84,53.4207309 L106.896,53.4207309 C106.51,53.4207309 106.189,53.2792027 106.189,52.950299 C106.189,52.8137542 106.791,51.5200664 106.821,51.3456478 L106.424,50.5971429 L105.953,50.5971429 L103.83,50.5971429 C103.188,50.5971429 102.42,49.6572757 101.955,49.409103 C100.964,48.8808638 100.619,49.5695681 99.813,48.4861794 C99.081,47.4994684 98.734,47.5901661 98.215,47.0210631 C97.229,45.9416611 98.809,46.2446512 96.28,45.657608 C95.365,46.2685714 93.31,49.1858472 92.27,49.1858472 C91.255,49.1858472 90.991,48.9117608 90.147,48.7154153 C89.899,49.1828571 89.203,50.6689037 89.203,51.3027907 C89.203,52.078206 88.484,52.0094352 87.788,52.0094352 L87.551,52.0094352 L87.08,52.0094352 C86.841,52.3632558 86.007,53.1695681 85.665,53.4207309 L85.688,54.4522924 L83.777,54.8320266 L83.777,55.3024585 L83.069,55.3024585 L82.597,55.3024585 C81.567,57.2439867 81.393,56.3778738 80.29,57.4712292 C79.267,58.4858472 79.75,59.3818605 77.879,59.5373422 C77.824,60.2011296 77.885,60.478206 77.171,60.478206 L76.228,60.478206 C75.849,59.5413289 74.205,59.2124252 73.633,58.3602658 C73.756,57.8330233 73.869,57.8200664 73.869,57.184186 L73.869,56.7137542 C74.026,56.4167442 74.34,55.9363455 74.34,55.5376744 C74.34,55.3971429 74.015,55.0493023 73.949,54.8439867 L74.104,53.4207309 L74.863,53.4107641 L74.576,51.7742193 C75.472,51.3456478 75.9,51.6187375 76.268,50.6380066 C76.623,49.6921595 76.325,49.2954817 77.704,49.1778738 L77.407,47.3041196 C77.68,46.7380066 77.643,46.9981395 77.643,46.1270432 C77.643,45.2280399 77.571,46.0423256 77.879,45.4213953 L77.407,45.4213953 L77.407,43.7758804 C77.407,42.8758804 77.335,43.6901661 77.643,43.0692359 C76.964,42.8888372 75.284,42.0067774 75.284,41.1875083 C75.284,40.1290365 76.936,39.0715615 77.643,38.6001329 L77.643,37.6582724 C79.275,36.7981395 78.667,37.4041196 79.514,35.8203987 L78.823,35.5413289 L78.832,35.0718937 L79.059,32.9539535 L79.059,32.0130897 C79.059,31.2705648 79.708,31.2785382 80.086,30.4493023 C80.353,29.8652492 80.078,30.0167442 80.425,29.6110963 C80.686,29.3071096 81.182,29.4107641 81.182,28.9542857 C81.182,27.5310299 79.059,28.4340199 79.059,25.6612625 C79.059,24.7612625 78.986,25.5755482 79.219,24.9974751 L78.823,24.2499668 L78.823,23.7795349 L78.823,23.3081063 C78.823,22.7240532 78.233,22.4240532 77.879,21.8968106 C78.632,20.4785382 77.853,20.0519601 79.531,20.0150831 C79.611,19.0483056 79.767,19.4898339 79.767,18.6037874 C79.767,18.1493023 79.346,17.6629236 79.059,17.6629236 C78.239,17.6629236 78.699,18.1333555 77.879,18.1333555 L76.7,18.1333555 C76.319,18.1333555 75.556,17.4596013 75.048,17.1924917 L74.576,17.1924917 L72.925,17.1924917 C72.023,17.1924917 72.839,17.2642525 72.217,16.9562791 C71.805,17.5702326 70.688,19.5446512 69.858,19.5446512 C68.334,19.5446512 68.222,18.6037874 66.319,18.6037874 L66.319,19.5446512 C64.88,19.5446512 64.067,19.2306977 63.53,18.3795349 L63.725,17.4277076 C62.727,17.1615947 62.572,16.5396678 62.545,15.3107641 C62.147,15.0346844 62.073,15.2768771 62.073,14.6051163 L62.09,13.9423256 L62.781,13.6632558 L62.828,12.7692359 L63.252,12.2519601 L63.725,12.2519601 L64.389,12.2459801 L64.668,9.89980066 L64.668,9.66458472 C64.668,8.55129568 65.344,8.01807309 65.378,6.61674419 L63.96,6.84099668 C63.718,5.93501661 62.627,4.90644518 61.837,4.48883721 C61.811,3.34863787 60.973,1.66624585 59.95,1.66624585 L59.242,1.66624585 C59.035,2.55229236 58.913,3.45727575 57.827,3.54797342 L57.827,4.25362126 C57.827,4.79581395 57.663,4.9592691 57.119,4.9592691 L56.64,4.97222591 L55.704,4.48883721 L55.704,4.01840532 L55.704,2.84232558 C55.704,1.94232558 55.631,2.7566113 55.939,2.13667774 C54.902,1.64033223 53.903,1.69415282 53.582,0.498139535 L51.562,0.806112957 L50.749,1.66624585 C50.732,2.41973422 50.826,2.84232558 50.041,2.84232558 L49.57,2.84232558 C48.965,2.84232558 48.999,2.78551495 48.626,2.60611296 C48.363,2.78252492 47.832,3.31275748 47.683,3.31275748 C46.771,3.31275748 47.582,2.98983389 46.497,2.88518272 L44.144,2.60611296 C44.144,4.72006645 45.087,4.69415282 45.087,5.429701 L45.087,5.66491694 C45.087,6.33069767 43.309,7.71109635 42.728,8.01807309 L42.26,8.06192691 L39.426,8.25229236 C39.089,7.32637874 39.39,8.22737542 38.708,7.36225914 L37.016,7.02637874 L36.359,7.78186047 C34.464,7.82372093 35.37,8.75760797 34.748,10.1240532 L34.943,11.0758804 L34.41,11.0838538 L34.707,12.957608 C34.561,13.2336877 33.498,15.0745515 33.292,15.0745515 C32.639,15.0745515 32.725,14.8931561 32.589,14.3818605 L31.876,14.6051163 C31.709,14.516412 30.718,13.8984718 30.697,13.8984718 C29.759,13.8984718 29.982,14.8393355 29.045,14.8393355 L28.102,14.8393355 L27.63,14.8393355 C27.046,15.147309 26.868,15.2011296 26.122,15.453289 C25.338,15.719402 24.978,16.2506312 24.799,16.2506312 C24.146,16.2506312 24.231,16.0702326 24.084,15.5330233 L23.147,16.016412 C22.595,15.8878405 22.451,15.781196 21.732,15.781196 L20.553,15.781196 L20.074,15.7682392 L19.137,16.2506312 L18.665,16.2506312 C17.952,16.2506312 18.013,15.9745515 17.957,15.3107641 C16.596,14.9479734 17.358,14.1785382 15.427,13.984186 L14.479,13.6732226 L14.183,15.3107641 C14.331,15.9426578 14.798,16.9562791 13.711,16.9562791 L13.003,16.9562791 C12.986,17.7107641 13.08,18.1333555 12.295,18.1333555 L11.352,18.1333555 C10.639,18.1333555 10.7,18.4094352 10.644,19.0742193 L11.116,19.0742193 C11.069,21.1881728 9.465,20.6778738 9.465,21.8968106 L9.465,22.1320266 C9.465,22.9642525 10.172,22.8436545 10.172,23.3081063 C10.172,23.9589369 9.99,23.8742193 9.465,24.0147508 C9.769,25.1529568 10.408,24.8011296 10.408,25.6612625 L10.408,27.3077741 L10.408,27.778206 C9.551,28.2306977 8.699,29.0798671 8.285,29.1895017 L8.285,29.8951495 L8.302,30.4024585 L7.105,30.83701 C7.423,32.0220598 7.905,31.557608 8.521,32.7187375 L8.483,33.1941528 L8.993,37.4240532 L8.993,37.894485 C8.993,38.4366777 8.829,38.6001329 8.285,38.6001329 L7.105,38.6001329 L6.634,38.6001329 C5.534,39.1801993 4.802,39.5798671 3.8,40.1699003 L2.151,40.2466445 C1.482,38.9858472 1.783,38.8064452 0.5,38.129701 C0.581,39.1014618 0.798,39.1094352 1.444,39.5409967 C1.466,40.5456478 1.632,41.1496346 2.387,41.4227243 L2.387,43.0692359 C2.387,43.7190698 3.155,44.2064452 3.567,44.4815282 C3.911,43.9682392 4.248,43.0692359 4.982,43.0692359 C5.472,43.0692359 6.162,43.7579402 6.162,44.0100997 C6.162,44.726711 6.055,44.8712292 5.873,45.4752159 L7.105,46.5984718 L7.105,47.0689037 C7.105,47.9270432 7.317,47.6290365 7.341,48.7154153 C7.93,49.109103 8.285,49.6293688 8.285,50.5971429 L8.285,51.0685714 C7.24,51.6197342 7.658,51.2021262 7.117,52.2416611 L7.341,53.6559468 C8.552,53.9778738 8.613,54.957608 9.276,55.9602658 C10.331,57.5539535 10.409,57.0277076 11.514,57.963588 C12.228,58.5685714 11.365,58.473887 12.378,59.2203987 C12.859,59.5742193 13.195,59.6669103 13.624,60.094485 C14.486,60.9526246 14.755,61.7908306 15.834,62.3599336 L15.834,62.8303654 L15.834,63.5360133 L16.306,63.5360133 L16.424,64.1240532 L17.014,64.947309 L17.722,64.947309 C18.125,66.4542857 19.325,65.8443189 19.425,67.953289 L20.316,68.9469767 L20.789,68.9469767 C21.677,68.9469767 21.234,69.1014618 22.204,69.1821927 C22.418,69.9835216 22.805,70.6124252 23.619,70.8287043 L23.619,71.7705648 C23.829,71.8871761 24.091,71.9230565 24.091,72.24 C24.091,72.6386711 23.777,73.1200664 23.619,73.4160797 C23.829,73.5346844 24.091,73.5695681 24.091,73.8875083 C24.091,74.7167442 23.147,74.8343522 23.147,75.298804 C23.147,75.963588 23.689,76.2067774 24.091,76.4748837 L24.091,77.4157475 C25.188,77.5064452 25.246,77.94299 25.271,79.0622591 C25.621,79.3184053 26.686,80.6579402 26.686,81.1801993 L26.686,81.4154153 C26.686,82.3144186 26.759,81.5011296 26.45,82.1210631 C26.787,82.6034551 27.158,83.2154153 27.158,84.0027907 L27.158,84.7084385 C28.517,84.3466445 27.447,83.9310299 28.597,83.3200664 C29.357,82.9154153 29.74,82.8167442 29.989,81.8858472 L31.874,81.8858472 L32.348,83.7675748 C32.225,84.2948173 32.112,84.3087708 32.112,84.9436545 L32.112,85.4140864 C31.602,85.6831894 30.933,85.8247176 30.933,86.5911628 L30.933,86.8253821 L30.992,87.3406645 L29.989,88.4728904 C29.436,88.3443189 29.292,88.2366777 28.574,88.2366777 C27.936,88.2366777 27.923,88.1250498 27.394,88.0024585 C26.805,89.2273754 27.512,88.7290365 26.212,89.4217276 L25.035,89.1785382 C25.186,90.5569435 25.978,89.667907 25.978,90.8250498 C25.978,91.6423256 25.507,91.1838538 25.507,92.0011296 C25.507,92.8293688 25.892,92.8522924 25.669,93.8011296 C25.459,94.6931561 25.035,94.7180731 25.035,95.2951495 C25.035,96.0107641 24.928,96.1552824 24.828,96.7014618 L25.046,98.3519601 L25.271,103.528704 C23.663,103.492824 24.535,103.058272 23.619,103.058272 L23.383,103.058272 L22.912,103.058272 C22.156,103.456944 22.059,103.14299 21.968,104.234352 C21.028,104.574219 21.584,104.94 21.024,104.94 C20.136,104.94 20.578,104.785515 19.723,104.799468 L18.665,106.11608 L17.734,106.111096 L17.978,106.827708 L17.445,108.505116 L18.242,109.42206 L17.895,110.614086 L18.429,111.762259 L18.429,112.232691 L18.429,112.467907 C18.429,113.248306 18.901,112.959269 18.901,113.408771 C18.901,113.947973 18.821,113.682857 18.665,114.349635 C19.381,114.607774 21.175,117.668571 22.912,118.584518 L22.912,119.05495 L22.912,119.995814 C24.461,120.124385 24.671,122.741661 25.743,123.52505 L25.743,124.465914 L26.686,124.465914 C27.539,125.626047 27.472,124.170897 27.866,125.641993 C29.803,125.802458 28.905,127.375216 30.697,127.523721 C30.951,128.471561 31.099,128.290166 31.865,128.658937 L32.702,128.582193 L33.528,129.170233 L33.689,130.036346 L34.335,131.405781 L35.415,132.464252 L35.415,133.1699 Z" id="Stroke-9" stroke="#E75F52" stroke-linecap="round" stroke-linejoin="round"></path>
                <path d="M100.2905,169.163223 C100.2905,170.070199 100.5265,169.689468 100.5265,170.809734 C100.5265,171.351927 100.6905,171.515382 101.2345,171.515382 L102.8865,171.515382 C102.6355,170.442957 101.3015,168.561229 100.0555,168.457575 C100.2165,168.744618 100.2905,168.708738 100.2905,169.163223" id="Fill-11" fill="#FFFFFF"></path>
                <path d="M100.2905,169.163223 C100.2905,170.070199 100.5265,169.689468 100.5265,170.809734 C100.5265,171.351927 100.6905,171.515382 101.2345,171.515382 L102.8865,171.515382 C102.6355,170.442957 101.3015,168.561229 100.0555,168.457575 C100.2165,168.744618 100.2905,168.708738 100.2905,169.163223 Z" id="Stroke-13" stroke="#E75F52" stroke-linecap="round" stroke-linejoin="round"></path>
                <path d="M105.0092,177.396478 L105.4812,177.396478 L105.4812,178.103123 C105.4812,178.738007 105.3682,178.750963 105.2582,179.227375 L106.1252,179.505449 L106.4382,177.361595 L105.0092,176.926047 L105.0092,177.396478 Z" id="Fill-15" fill="#FFFFFF"></path>
                <path d="M105.0092,177.396478 L105.4812,177.396478 L105.4812,178.103123 C105.4812,178.738007 105.3682,178.750963 105.2582,179.227375 L106.1252,179.505449 L106.4382,177.361595 L105.0092,176.926047 L105.0092,177.396478 Z" id="Stroke-17" stroke="#E75F52" stroke-linecap="round" stroke-linejoin="round"></path>
                <path d="M53.3442,215.742259 L53.5902,217.102724 L55.2322,217.388771 L55.2322,216.447907 L55.2322,215.977475 C55.1362,215.927641 54.3152,215.50804 54.2882,215.50804 C54.2282,215.50804 53.4202,215.713355 53.3442,215.742259" id="Fill-19" fill="#FFFFFF"></path>
                <path d="M53.3442,215.742259 L53.5902,217.102724 L55.2322,217.388771 L55.2322,216.447907 L55.2322,215.977475 C55.1362,215.927641 54.3152,215.50804 54.2882,215.50804 C54.2282,215.50804 53.4202,215.713355 53.3442,215.742259 Z" id="Stroke-21" stroke="#E75F52" stroke-linecap="round" stroke-linejoin="round"></path>
                <path d="M52.8725,221.153023 C52.8725,222.102857 52.9155,221.255681 52.6365,221.624452 C52.7985,221.910498 52.8725,221.875615 52.8725,222.3301 L52.8705,223.023787 L54.1695,222.681927 L54.9955,222.093887 L54.9955,221.153023 C54.9955,220.625781 55.1825,220.636744 55.4675,220.212159 L54.5235,220.212159 C53.7105,220.212159 53.6105,220.038738 52.8725,219.976944 L52.8725,221.153023 Z" id="Fill-23" fill="#FFFFFF"></path>
                <path d="M52.8725,221.153023 C52.8725,222.102857 52.9155,221.255681 52.6365,221.624452 C52.7985,221.910498 52.8725,221.875615 52.8725,222.3301 L52.8705,223.023787 L54.1695,222.681927 L54.9955,222.093887 L54.9955,221.153023 C54.9955,220.625781 55.1825,220.636744 55.4675,220.212159 L54.5235,220.212159 C53.7105,220.212159 53.6105,220.038738 52.8725,219.976944 L52.8725,221.153023 Z" id="Stroke-25" stroke="#E75F52" stroke-linecap="round" stroke-linejoin="round"></path>
                <path d="M25.2309,249.591429 C24.8339,249.526645 24.3269,249.281462 24.3269,249.853555 C24.3269,250.117674 25.2079,251.065515 25.5069,251.26485 L25.5069,250.559203 C25.5069,249.74093 25.9789,250.199402 25.9789,249.383123 L25.8819,248.613688 L25.2309,249.591429 Z" id="Fill-27" fill="#FFFFFF"></path>
                <path d="M25.2309,249.591429 C24.8339,249.526645 24.3269,249.281462 24.3269,249.853555 C24.3269,250.117674 25.2079,251.065515 25.5069,251.26485 L25.5069,250.559203 C25.5069,249.74093 25.9789,250.199402 25.9789,249.383123 L25.8819,248.613688 L25.2309,249.591429 Z" id="Stroke-29" stroke="#E75F52" stroke-linecap="round" stroke-linejoin="round"></path>
                <path d="M46.0307,279.964784 C46.5487,280.735216 46.6487,280.292691 46.7387,281.377076 L47.6827,281.377076 C47.6827,279.931894 47.5867,278.232558 46.7387,277.612625 L46.7387,278.788704 L46.2667,278.788704 L46.0307,279.964784 Z" id="Fill-31" fill="#FFFFFF"></path>
                <path d="M46.0307,279.964784 C46.5487,280.735216 46.6487,280.292691 46.7387,281.377076 L47.6827,281.377076 C47.6827,279.931894 47.5867,278.232558 46.7387,277.612625 L46.7387,278.788704 L46.2667,278.788704 L46.0307,279.964784 Z" id="Stroke-33" stroke="#E75F52" stroke-linecap="round" stroke-linejoin="round"></path>
                <polygon id="Fill-35" fill="#FFFFFF" points="77.8789 299.020365 76.9359 298.549934 77.1299 299.500764"></polygon>
                <polygon id="Stroke-37" stroke="#E75F52" stroke-linecap="round" stroke-linejoin="round" points="77.8789 299.020365 76.9359 298.549934 77.1299 299.500764"></polygon>
            </g>
        </g>
    </g>
</svg>