<?xml version="1.0" encoding="UTF-8"?>
<svg width="288px" height="301px" viewBox="0 0 288 301" version="1.1" xmlns="http://www.w3.org/2000/svg" xmlns:xlink="http://www.w3.org/1999/xlink">
    <!-- Generator: Sketch 64 (93537) - https://sketch.com -->
    <title>340</title>
    <desc>Created with Sketch.</desc>
    <g id="340" stroke="none" stroke-width="1" fill="none" fill-rule="evenodd">
        <g id="Group-4" transform="translate(1.000000, 0.000000)">
            <path d="M99.126,1.2127 L97.028,1.0097 L98.077,3.2487 L95.979,4.6737 L95.191,5.9967 L91.782,6.7077 L90.994,7.9287 L89.945,7.9287 L86.536,9.1487 L85.225,8.5387 L83.912,9.5557 L82.339,9.6577 L82.601,12.2997 L81.29,13.0107 L78.666,10.3697 L77.618,10.0637 L72.896,10.4697 L72.372,9.1487 L70.798,8.6407 L69.223,8.9457 L69.486,10.8767 L71.847,12.7067 L71.847,16.1597 L73.42,19.2067 L73.158,20.9317 L77.88,21.3387 L77.618,23.2667 L74.994,24.4837 L73.42,24.6867 L72.896,26.9197 L71.322,28.4407 L70.536,27.9337 L68.175,29.8617 L67.387,29.6577 L65.027,30.7737 L64.502,32.1937 L63.715,32.2947 L62.929,33.9177 L61.879,31.8897 L60.567,31.8897 L57.683,33.6137 L55.846,33.1067 L52.437,30.0637 L51.124,30.4697 L50.6,26.5137 L49.026,23.7737 L47.191,23.9767 L45.878,25.8037 L44.305,26.2087 L42.731,24.3827 L41.157,26.4117 L34.337,26.4117 L32.764,26.1077 L30.665,26.5137 L30.665,31.2807 L34.862,31.3827 L35.911,34.2217 L34.337,34.3237 L33.287,33.6137 L32.501,34.2217 L29.353,34.7297 L29.091,39.9007 L30.14,41.2197 L32.239,42.6397 L32.501,44.2627 L34.075,47.6097 L31.452,62.5277 L29.878,69.8447 L29.091,70.5567 L27.517,69.4377 L24.107,69.2347 L22.533,70.9637 L20.173,70.9637 L19.648,71.4717 L16.762,71.6767 L14.665,72.5917 L10.468,75.6447 L8.369,76.4587 L8.632,77.4767 L7.844,80.6357 L6.008,83.3877 L6.795,85.9387 L2.336,89.4097 L1.812,90.8397 L2.598,92.3737 L1.287,92.8847 L0.5,94.1127 L2.598,95.8517 L2.074,97.0797 L2.86,97.5917 L3.91,100.1537 L6.533,102.7177 L8.106,105.4887 L6.27,107.8517 L9.156,107.8517 L12.829,108.7767 L13.615,112.2757 L19.648,112.2757 L20.96,111.7607 L24.632,108.6747 L25.681,110.2167 L25.157,111.1427 L24.894,119.7027 L25.681,119.1857 L27.517,120.1157 L29.878,118.9787 L32.764,119.2887 L34.075,119.1857 L38.796,119.7027 L39.846,120.4247 L42.206,119.4957 L43.518,117.4307 L46.403,117.4307 L47.191,115.8827 L49.026,114.6447 L51.124,114.1307 L54.272,111.5547 L60.043,110.4227 L61.879,111.0407 L62.929,109.9087 L63.977,110.9367 L63.977,113.8207 L63.191,115.5737 L63.191,118.2557 L63.977,119.5987 L63.191,120.7357 L63.977,123.4237 L65.551,125.1837 L66.076,127.0497 L67.649,127.2567 L70.01,129.0197 L70.536,130.4747 L73.945,131.0967 L74.732,130.4747 L77.093,131.2007 L77.88,132.0317 L80.24,131.9287 L82.076,134.4247 L84.962,135.4657 L87.061,135.6737 L87.061,136.2977 L89.159,138.4877 L92.831,138.2787 L95.979,138.6967 L99.126,140.4707 L99.651,141.9327 L99.126,142.7697 L100.437,146.7477 L100.437,150.3147 L98.602,150.6297 L100.7,153.3627 L101.225,158.8457 L101.487,159.1627 L113.816,159.5847 L114.602,160.9597 L113.553,162.3347 L114.34,166.7887 L116.963,168.4897 L118.537,168.9137 L119.062,171.1497 L120.373,173.8157 L118.799,179.3777 L118.537,180.4507 L116.176,185.7177 L118.012,187.6587 L115.914,189.0627 L117.225,191.1167 L117.225,192.6327 L118.274,193.5007 L118.274,196.5407 L117.488,199.0437 L117.751,200.8977 L117.225,203.6287 L118.274,204.5037 L122.734,204.8327 L125.619,205.7087 L128.505,203.9577 L130.341,205.5997 L132.701,205.9287 L134.275,208.3427 L134.275,211.3127 L135.062,213.0777 L135.062,216.0617 L136.111,219.0537 L139.259,218.9427 L141.619,217.6127 L144.243,219.7197 L144.505,221.6087 L144.243,224.9537 L143.455,226.5167 L143.455,229.5407 L141.882,230.6627 L141.882,231.8987 L143.194,232.4617 L143.98,231.6737 L146.866,232.3487 L147.39,235.0517 L148.702,237.0847 L148.178,240.9357 L148.44,242.4127 L147.39,244.8027 L146.604,244.6887 L144.243,246.9717 L139.783,248.5727 L138.734,250.2917 L136.636,250.9797 L135.849,252.3577 L133.226,253.6227 L131.39,256.5047 L129.553,258.1227 L128.767,260.4407 L127.193,261.2537 L126.668,262.5317 L123.783,266.2607 L122.209,266.7287 L121.947,268.1317 L119.848,269.8897 L120.373,270.5947 L122.734,270.7117 L123.783,269.1867 L125.619,269.1867 L131.652,275.0687 L131.652,277.4327 L132.701,277.4327 L134.537,275.5397 L137.16,278.7367 L138.734,279.0917 L140.308,280.5167 L141.882,280.7557 L142.932,282.5397 L145.291,284.5687 L147.915,285.7637 L148.702,288.2807 L150.538,290.2037 L152.374,291.0457 L155.522,288.1607 L156.571,290.3237 L155.522,292.7347 L154.472,293.3387 L152.636,292.2517 L151.85,294.5467 L150.538,295.3947 L150.276,298.5507 L149.751,298.9167 L150.8,300.5007 L154.735,296.7287 L156.308,294.9107 L158.144,289.6017 L159.981,286.8417 L158.932,285.7637 L159.457,283.0167 L160.768,281.4687 L161.293,279.4487 L163.39,278.8547 L164.965,277.4327 L165.226,273.8897 L166.539,271.6517 L166.276,269.8897 L168.899,270.9467 L171.522,271.0637 L169.949,275.0687 L168.637,275.8947 L168.113,277.4327 L167.063,277.3147 L166.276,280.7557 L167.063,280.8737 L170.211,277.1957 L173.096,272.2397 L174.932,266.7287 L176.768,263.6957 L180.178,259.2817 L184.375,256.1597 L183.851,255.5827 L185.162,253.3927 L185.949,250.5207 L185.162,248.8007 L185.687,243.5507 L184.9,241.1627 L185.424,238.8957 L184.113,237.7637 L185.687,236.6327 L185.424,235.6167 L186.736,232.2367 L186.211,231.3377 L187.26,229.4297 L189.359,229.8777 L190.408,228.8687 L191.195,226.4057 L196.966,222.6117 L197.491,221.6087 L201.687,219.2757 L202.737,219.1647 L204.048,217.8337 L205.622,217.2797 L208.769,217.8337 L208.769,216.5047 L211.13,215.1767 L214.015,212.9677 L214.54,211.5337 L216.114,210.7637 L218.212,211.4237 L220.311,210.4317 L222.41,211.8647 L225.557,210.7637 L233.164,210.8727 L234.213,209.4417 L233.95,207.5737 L236.049,205.5997 L239.197,204.5037 L241.295,202.9717 L240.509,199.6977 L242.869,194.3677 L243.919,194.0427 L245.755,191.6577 L248.115,185.9337 L249.427,185.0717 L250.476,183.2427 L250.213,176.3797 L251.001,173.8157 L251.788,172.4287 L253.624,171.3617 L254.411,169.8717 L253.885,165.9387 L255.197,160.4307 L256.508,155.8907 L255.984,154.9437 L254.935,147.0627 L255.984,142.0377 L255.197,141.5147 L255.722,139.5307 L255.197,137.2367 L256.771,135.7777 L256.247,135.0487 L257.558,133.6967 L257.558,131.7207 L259.132,132.4477 L259.132,134.7367 L260.443,134.0077 L262.542,131.8247 L265.427,127.4647 L268.051,121.6657 L269.099,121.0447 L270.935,117.9467 L273.297,116.2947 L274.345,115.9847 L275.657,114.0267 L277.231,112.6877 L278.543,110.2167 L279.591,109.8057 L282.478,106.2077 L283.526,104.1537 L285.1,100.0507 L286.15,96.7727 L285.362,96.0567 L286.15,94.7257 L286.15,91.2497 L285.362,89.3087 L284.314,84.5107 L284.051,84.2037 L282.739,79.0047 L280.903,76.4587 L277.492,75.8477 L273.559,76.3577 L271.723,75.8477 L270.935,75.0337 L268.837,74.8297 L267.788,73.2017 L265.689,72.5917 L264.378,71.0657 L262.017,69.3367 L259.132,66.0837 L258.083,65.7787 L252.837,62.2237 L250.213,61.0037 L248.377,59.6837 L244.705,59.2787 L243.919,59.5827 L238.41,60.2937 L236.574,60.0907 L235,58.8717 L233.689,59.4817 L230.278,59.0757 L228.442,57.6547 L224.246,56.0297 L223.196,56.0297 L222.934,57.4507 L219.786,57.5527 L218.475,56.4367 L216.376,57.5527 L215.851,60.4967 L214.015,60.9037 L214.54,58.6697 L216.114,56.4367 L216.114,55.0157 L215.328,52.4787 L212.179,49.9427 L210.605,49.7387 L206.933,48.1157 L205.622,48.4207 L203.786,46.7977 L201.163,46.3917 L198.54,44.7687 L195.655,44.0587 L195.13,43.2477 L191.983,44.1607 L191.195,43.3497 L190.408,44.3637 L188.834,44.6677 L188.572,46.4937 L187.523,48.5217 L186.474,48.3187 L184.113,50.7537 L182.802,50.6527 L180.965,53.1887 L180.178,55.0157 L179.392,54.9137 L179.916,52.7827 L179.392,51.8687 L177.817,52.8847 L175.457,52.2757 L172.571,53.3907 L170.473,52.0727 L169.424,49.4347 L168.899,47.1017 L166.276,47.8117 L163.129,49.2327 L161.554,50.4497 L159.981,50.7537 L157.882,49.3327 L161.293,48.6227 L161.293,47.5077 L162.867,46.4937 L163.129,44.3637 L164.965,42.4367 L166.539,39.2927 L168.637,37.8727 L169.686,37.7717 L173.096,33.0057 L176.244,30.4697 L175.981,26.8177 L174.145,25.7017 L172.047,25.7017 L170.211,22.6577 L168.637,18.3947 L167.325,14.3317 L167.587,10.6737 L166.539,8.5387 L164.44,6.6067 L164.178,8.2337 L163.129,9.5557 L161.03,11.9947 L155.784,21.7437 L153.948,23.0627 L151.062,21.8457 L149.751,22.5567 L147.39,22.1507 L145.291,23.5707 L142.669,22.8607 L141.882,22.0487 L141.095,21.1347 L139.783,21.1347 L138.734,20.1197 L136.111,21.2367 L133.751,21.5407 L131.652,20.6277 L130.865,21.9467 L132.177,24.0777 L131.652,25.5997 L128.242,24.7887 L125.881,25.2957 L123.521,24.2807 L121.947,24.5857 L120.373,26.5137 L117.225,26.9197 L116.963,27.9337 L114.602,27.3257 L113.291,28.4407 L113.291,29.7597 L110.668,30.0637 L108.045,28.9477 L104.372,24.9917 L104.372,22.4547 L103.324,21.7437 L102.536,19.3077 L102.799,16.5657 L103.848,14.4337 L103.848,12.6047 L104.897,11.9947 L105.946,10.2667 L104.635,8.5387 L104.897,7.0137 L101.487,5.9967 L102.274,4.4697 L102.536,1.8237 L100.963,0.4997 L99.126,1.2127 Z M171.785,23.6727 L172.047,25.2957 L173.096,24.7887 L172.571,23.5707 L171.785,23.6727 Z M173.096,35.1347 L173.359,36.3517 L175.195,34.7297 L173.096,35.1347 Z M174.67,37.3657 L172.833,37.3657 L173.096,38.8867 L175.457,39.3947 L176.506,38.8867 L178.867,36.7577 L177.817,36.1487 L174.67,37.3657 Z M178.079,38.5827 L177.556,40.0027 L179.392,39.7997 L179.129,38.4817 L178.079,38.5827 Z M168.375,39.0897 L167.85,40.7127 L168.899,41.2197 L170.735,39.5967 L169.686,38.5827 L168.375,39.0897 Z M171.26,40.4087 L169.686,43.7547 L169.949,46.8997 L169.424,49.3327 L172.309,52.2757 L173.359,51.5647 L174.932,51.3627 L176.768,52.1747 L178.605,51.5647 L179.129,50.5507 L180.965,50.7537 L183.851,49.4347 L183.851,47.8117 L185.162,46.8997 L185.949,45.4787 L186.736,40.8137 L183.588,40.2047 L181.228,40.0027 L177.817,40.7127 L174.67,39.9007 L172.833,39.6987 L171.26,40.4087 Z M164.44,43.3497 L163.129,45.1747 L163.129,46.6957 L161.817,48.0147 L161.03,49.3327 L162.341,49.5367 L166.014,46.4937 L167.063,43.6537 L166.539,43.0457 L164.44,43.3497 Z M185.949,250.1757 L187.26,247.2007 L186.211,246.9717 L185.949,250.1757 Z" id="Fill-1" fill="#FFFFFF"></path>
            <path d="M128.2419,24.7883 L131.6519,25.6003 L132.1769,24.0783 L130.8649,21.9473 L131.6519,20.6273 L133.7509,21.5403 L136.1109,21.2363 L138.7339,20.1203 L139.7839,21.1353 L141.0949,21.1353 L141.8819,22.0483 L142.6689,22.8603 L145.2919,23.5703 L147.3899,22.1503 L149.7509,22.5563 L151.0629,21.8453 L153.9479,23.0633 L155.7839,21.7443 L161.0299,11.9953 L163.1289,9.5553 L164.1779,8.2333 L164.4399,6.6063 L166.5389,8.5383 L167.5879,10.6733 L167.3249,14.3313 L168.6369,18.3943 L170.2109,22.6573 L172.0469,25.7013 L174.1449,25.7013 L175.9819,26.8173 L176.2439,30.4693 L173.0959,33.0053 L169.6859,37.7713 L168.6369,37.8723 L166.5389,39.2923 L164.9649,42.4363 L163.1289,44.3633 L162.8669,46.4933 L161.2929,47.5073 L161.2929,48.6233 L157.8829,49.3333 L159.9809,50.7533 L161.5549,50.4493 L163.1289,49.2323 L166.2759,47.8113 L168.8989,47.1013 L169.4239,49.4343 L170.4729,52.0723 L172.5719,53.3913 L175.4569,52.2753 L177.8179,52.8843 L179.3909,51.8693 L179.9159,52.7833 L179.3909,54.9133 L180.1789,55.0153 L180.9649,53.1883 L182.8019,50.6523 L184.1129,50.7533 L186.4739,48.3193 L187.5229,48.5213 L188.5719,46.4933 L188.8339,44.6673 L190.4089,44.3633 L191.1949,43.3493 L191.9819,44.1603 L195.1299,43.2473 L195.6549,44.0593 L198.5399,44.7693 L201.1629,46.3923 L203.7859,46.7973 L205.6219,48.4203 L206.9329,48.1163 L210.6059,49.7393 L212.1799,49.9423 L215.3269,52.4783 L216.1139,55.0153 L216.1139,56.4363 L214.5399,58.6693 L214.0159,60.9033 L215.8519,60.4963 L216.3759,57.5523 L218.4749,56.4363 L219.7859,57.5523 L222.9339,57.4513 L223.1959,56.0303 L224.2449,56.0303 L228.4419,57.6543 L230.2789,59.0753 L233.6879,59.4813 L234.9999,58.8723 L236.5739,60.0903 L238.4099,60.2933 L243.9189,59.5833 L244.7049,59.2783 L248.3779,59.6843 L250.2139,61.0043 L252.8369,62.2233 L258.0829,65.7793 L259.1319,66.0833 L262.0169,69.3363 L264.3779,71.0653 L265.6889,72.5913 L267.7879,73.2023 L268.8379,74.8303 L270.9349,75.0333 L271.7219,75.8483 L273.5579,76.3573 L277.4929,75.8483 L280.9029,76.4583 L282.7389,79.0053 L284.0509,84.2043 L284.3129,84.5103 L285.3619,89.3083 L286.1489,91.2493 L286.1489,94.7263 L285.3619,96.0563 L286.1489,96.7723 L285.0999,100.0513 L283.5259,104.1543 L282.4769,106.2073 L279.5919,109.8053 L278.5429,110.2173 L277.2309,112.6873 L275.6569,114.0273 L274.3459,115.9853 L273.2969,116.2953 L270.9349,117.9463 L269.0989,121.0453 L268.0509,121.6653 L265.4279,127.4643 L262.5419,131.8243 L260.4429,134.0083 L259.1319,134.7363 L259.1319,132.4483 L257.5579,131.7203 L257.5579,133.6963 L256.2469,135.0493 L256.7709,135.7773 L255.1969,137.2363 L255.7219,139.5313 L255.1969,141.5153 L255.9839,142.0373 L254.9349,147.0613 L255.9839,154.9433 L256.5089,155.8913 L255.1969,160.4313 L253.8859,165.9393 L254.4109,169.8713 L253.6239,171.3623 L251.7879,172.4283 L251.0009,173.8153 L250.2139,176.3793 L250.4759,183.2433 L249.4269,185.0723 L248.1149,185.9333 L245.7549,191.6583 L243.9189,194.0423 L242.8689,194.3683 L240.5089,199.6973 L241.2959,202.9723 L239.1969,204.5043 L236.0499,205.6003 L233.9509,207.5743 L234.2129,209.4423 L233.1639,210.8723 L225.5569,210.7633 L222.4089,211.8643 L220.3109,210.4323 L218.2129,211.4233 L216.1139,210.7633 L214.5399,211.5343 L214.0159,212.9673 L211.1299,215.1763 L208.7699,216.5043 L208.7699,217.8333 L205.6219,217.2793 L204.0479,217.8333 L202.7369,219.1643 L201.6869,219.2753 L197.4909,221.6093 L196.9659,222.6113 L191.1949,226.4053 L190.4089,228.8683 L189.3589,229.8773 L187.2609,229.4293 L186.2109,231.3373 L186.7359,232.2363 L185.4249,235.6163 L185.6869,236.6323 L184.1129,237.7633 L185.4249,238.8953 L184.8999,241.1633 L185.6869,243.5503 L185.1619,248.8013 L185.9489,250.5203 L185.1619,253.3923 L183.8509,255.5823 L184.3749,256.1593 L180.1789,259.2813 L176.7679,263.6953 L174.9319,266.7283 L173.0959,272.2393 L170.2109,277.1953 L167.0629,280.8733 L166.2759,280.7553 L167.0629,277.3143 L168.1129,277.4333 L168.6369,275.8943 L169.9489,275.0683 L171.5219,271.0633 L168.8989,270.9463 L166.2759,269.8903 L166.5389,271.6513 L165.2269,273.8893 L164.9649,277.4333 L163.3909,278.8543 L161.2929,279.4483 L160.7679,281.4693 L159.4559,283.0173 L158.9319,285.7643 L159.9809,286.8423 L158.1449,289.6013 L156.3089,294.9103 L154.7349,296.7283 L150.8009,300.5003 L149.7509,298.9163 L150.2759,298.5513 L150.5379,295.3943 L151.8489,294.5473 L152.6369,292.2523 L154.4719,293.3383 L155.5219,292.7343 L156.5709,290.3233 L155.5219,288.1603 L152.3739,291.0463 L150.5379,290.2033 L148.7019,288.2803 L147.9149,285.7643 L145.2919,284.5683 L142.9309,282.5403 L141.8819,280.7553 L140.3079,280.5173 L138.7339,279.0923 L137.1599,278.7363 L134.5369,275.5403 L132.7009,277.4333 L131.6519,277.4333 L131.6519,275.0683 L125.6189,269.1863 L123.7829,269.1863 L122.7339,270.7113 L120.3729,270.5943 L119.8479,269.8903 L121.9469,268.1323 L122.2089,266.7283 L123.7829,266.2613 L126.6679,262.5313 L127.1929,261.2533 L128.7669,260.4403 L129.5539,258.1233 L131.3899,256.5053 L133.2259,253.6233 L135.8489,252.3573 L136.6359,250.9793 L138.7339,250.2913 L139.7839,248.5723 L144.2429,246.9723 L146.6029,244.6893 L147.3899,244.8033 L148.4399,242.4133 L148.1779,240.9353 L148.7019,237.0843 L147.3899,235.0523 L146.8659,232.3493 L143.9799,231.6743 L143.1939,232.4613 L141.8819,231.8993 L141.8819,230.6633 L143.4559,229.5403 L143.4559,226.5173 L144.2429,224.9533 L144.5049,221.6093 L144.2429,219.7203 L141.6199,217.6123 L139.2589,218.9423 L136.1109,219.0543 L135.0619,216.0613 L135.0619,213.0783 L134.2749,211.3133 L134.2749,208.3433 L132.7009,205.9283 L130.3409,205.6003 L128.5049,203.9573 L125.6189,205.7093 L122.7339,204.8323 L118.2749,204.5043 L117.2249,203.6283 L117.7499,200.8973 L117.4879,199.0433 L118.2749,196.5403 L118.2749,193.5003 L117.2249,192.6333 L117.2249,191.1173 L115.9139,189.0623 L118.0129,187.6593 L116.1759,185.7183 L118.5369,180.4503 L118.7989,179.3773 L120.3729,173.8153 L119.0619,171.1493 L118.5369,168.9143 L116.9629,168.4893 L114.3399,166.7883 L113.5529,162.3353 L114.6019,160.9593 L113.8159,159.5853 L101.4869,159.1633 L101.2249,158.8463 L100.6999,153.3633 L98.6019,150.6293 L100.4379,150.3143 L100.4379,146.7473 L99.1259,142.7693 L99.6509,141.9333 L99.1259,140.4703 L95.9789,138.6963 L92.8309,138.2793 L89.1589,138.4873 L87.0599,136.2983 L87.0599,135.6733 L84.9619,135.4653 L82.0759,134.4243 L80.2409,131.9283 L77.8799,132.0323 L77.0929,131.2013 L74.7319,130.4743 L73.9449,131.0973 L70.5349,130.4743 L70.0109,129.0203 L67.6499,127.2573 L66.0759,127.0493 L65.5519,125.1843 L63.9779,123.4243 L63.1909,120.7353 L63.9779,119.5983 L63.1909,118.2563 L63.1909,115.5733 L63.9779,113.8213 L63.9779,110.9373 L62.9289,109.9083 L61.8789,111.0403 L60.0429,110.4233 L54.2719,111.5553 L51.1249,114.1303 L49.0259,114.6453 L47.1899,115.8823 L46.4029,117.4303 L43.5179,117.4303 L42.2059,119.4953 L39.8459,120.4253 L38.7969,119.7023 L34.0749,119.1853 L32.7629,119.2883 L29.8779,118.9783 L27.5169,120.1153 L25.6809,119.1853 L24.8939,119.7023 L25.1569,111.1433 L25.6809,110.2173 L24.6319,108.6743 L20.9599,111.7613 L19.6479,112.2753 L13.6149,112.2753 L12.8279,108.7773 L9.1559,107.8513 L6.2709,107.8513 L8.1069,105.4883 L6.5329,102.7173 L3.9099,100.1533 L2.8609,97.5923 L2.0739,97.0803 L2.5979,95.8513 L0.4999,94.1123 L1.2869,92.8853 L2.5979,92.3733 L1.8109,90.8403 L2.3359,89.4103 L6.7949,85.9383 L6.0089,83.3883 L7.8449,80.6353 L8.6319,77.4773 L8.3689,76.4583 L10.4679,75.6443 L14.6639,72.5913 L16.7629,71.6763 L19.6479,71.4723 L20.1729,70.9633 L22.5339,70.9633 L24.1069,69.2353 L27.5169,69.4383 L29.0909,70.5573 L29.8779,69.8453 L31.4519,62.5283 L34.0749,47.6093 L32.5009,44.2623 L32.2389,42.6393 L30.1399,41.2193 L29.0909,39.9013 L29.3529,34.7293 L32.5009,34.2223 L33.2879,33.6133 L34.3369,34.3233 L35.9109,34.2223 L34.8619,31.3823 L30.6649,31.2813 L30.6649,26.5133 L32.7629,26.1073 L34.3369,26.4123 L41.1569,26.4123 L42.7309,24.3823 L44.3049,26.2083 L45.8789,25.8033 L47.1899,23.9763 L49.0259,23.7733 L50.5999,26.5133 L51.1249,30.4693 L52.4359,30.0633 L55.8459,33.1063 L57.6819,33.6133 L60.5679,31.8893 L61.8789,31.8893 L62.9289,33.9173 L63.7149,32.2953 L64.5019,32.1933 L65.0269,30.7733 L67.3879,29.6583 L68.1749,29.8613 L70.5349,27.9343 L71.3219,28.4403 L72.8959,26.9193 L73.4209,24.6863 L74.9939,24.4843 L77.6169,23.2663 L77.8799,21.3383 L73.1589,20.9323 L73.4209,19.2063 L71.8469,16.1603 L71.8469,12.7063 L69.4859,10.8763 L69.2239,8.9453 L70.7979,8.6403 L72.3709,9.1483 L72.8959,10.4703 L77.6169,10.0633 L78.6669,10.3693 L81.2899,13.0113 L82.6009,12.2993 L82.3389,9.6573 L83.9129,9.5553 L85.2239,8.5383 L86.5359,9.1483 L89.9459,7.9283 L90.9949,7.9283 L91.7819,6.7083 L95.1919,5.9963 L95.9789,4.6733 L98.0769,3.2483 L97.0279,1.0093 L99.1259,1.2123 L100.9629,0.5003 L102.5359,1.8243 L102.2739,4.4703 L101.4869,5.9963 L104.8969,7.0133 L104.6349,8.5383 L105.9459,10.2673 L104.8969,11.9953 L103.8479,12.6043 L103.8479,14.4333 L102.7989,16.5663 L102.5359,19.3083 L103.3239,21.7443 L104.3719,22.4543 L104.3719,24.9913 L108.0449,28.9483 L110.6679,30.0633 L113.2909,29.7593 L113.2909,28.4403 L114.6019,27.3253 L116.9629,27.9343 L117.2249,26.9193 L120.3729,26.5133 L121.9469,24.5853 L123.5209,24.2813 L125.8819,25.2953 L128.2419,24.7883 Z M172.5719,23.5703 L173.0959,24.7883 L172.0469,25.2953 L171.7849,23.6723 L172.5719,23.5703 Z M175.1949,34.7293 L173.3589,36.3513 L173.0959,35.1353 L175.1949,34.7293 Z M178.8669,36.7573 L176.5059,38.8873 L175.4569,39.3943 L173.0959,38.8873 L172.8339,37.3663 L174.6699,37.3663 L177.8179,36.1493 L178.8669,36.7573 Z M179.1289,38.4813 L179.3909,39.8003 L177.5549,40.0023 L178.0799,38.5823 L179.1289,38.4813 Z M168.8989,41.2193 L167.8499,40.7123 L168.3749,39.0903 L169.6859,38.5823 L170.7359,39.5973 L168.8989,41.2193 Z M174.6699,39.9013 L177.8179,40.7123 L181.2279,40.0023 L183.5879,40.2053 L186.7359,40.8133 L185.9489,45.4793 L185.1619,46.8993 L183.8509,47.8113 L183.8509,49.4343 L180.9649,50.7533 L179.1289,50.5503 L178.6049,51.5653 L176.7679,52.1743 L174.9319,51.3623 L173.3589,51.5653 L172.3089,52.2753 L169.4239,49.3333 L169.9489,46.8993 L169.6859,43.7553 L171.2599,40.4083 L172.8339,39.6983 L174.6699,39.9013 Z M166.5389,43.0453 L167.0629,43.6533 L166.0139,46.4933 L162.3419,49.5363 L161.0299,49.3333 L161.8169,48.0143 L163.1289,46.6963 L163.1289,45.1743 L164.4399,43.3493 L166.5389,43.0453 Z M185.9489,250.1763 L186.2109,246.9723 L187.2609,247.2003 L185.9489,250.1763 Z" id="Stroke-2" stroke="#E75F52" stroke-linecap="round" stroke-linejoin="round"></path>
        </g>
    </g>
</svg>