<?xml version="1.0" encoding="UTF-8"?>
<svg width="401px" height="298px" viewBox="0 0 401 298" version="1.1" xmlns="http://www.w3.org/2000/svg" xmlns:xlink="http://www.w3.org/1999/xlink">
    <!-- Generator: Sketch 64 (93537) - https://sketch.com -->
    <title>7</title>
    <desc>Created with Sketch.</desc>
    <g id="7" stroke="none" stroke-width="1" fill="none" fill-rule="evenodd">
        <g id="Group-4">
            <path d="M322.4007,1.5999 L318.9007,1.3999 L311.5997,3.6999 L309.4997,3.6999 L305.4997,8.2999 L303.9007,9.3999 L304.0987,11.1999 L306.5007,10.7999 L308.5987,11.7999 L307.9007,13.8999 L308.7997,16.2999 L307.4007,18.6999 L304.5997,21.1999 L302.1997,27.2999 L298.9007,32.3999 L299.4007,37.4999 L297.5007,38.5999 L294.7007,38.9009 L291.5997,41.6989 L288.7997,43.3999 L284.2997,41.6989 L281.6997,40.0999 L276.0997,53.1009 L276.0997,55.6999 L274.2007,57.1999 L274.3997,58.9999 L276.2997,61.1999 L278.8997,59.6989 L282.9007,59.6989 L285.9997,61.6999 L287.1997,60.4999 L288.7997,58.6009 L291.5997,58.0999 L294.0007,58.7999 L295.4007,60.7999 L297.5007,61.7999 L297.9997,63.1999 L301.7997,66.6999 L303.1997,69.0999 L303.1997,70.9999 L301.7997,72.1999 L299.4007,71.8999 L295.8997,70.5999 L295.1997,71.2999 L292.0997,70.9999 L288.5997,72.8999 L286.4997,72.3999 L285.9997,74.4999 L282.6997,74.1999 L281.2997,74.8999 L278.7007,78.6999 L278.4997,80.4999 L275.0007,82.9999 L270.5007,83.6999 L267.9007,83.5999 L267.0007,85.2999 L264.5997,87.7999 L261.9997,89.5999 L258.4997,89.1999 L255.2007,87.9999 L254.2997,86.6989 L251.4997,86.3999 L249.5997,87.3999 L247.4997,93.1999 L250.2997,96.8999 L250.7997,99.1999 L248.7007,100.6999 L244.5007,102.7999 L241.0007,107.3999 L236.2997,109.3999 L234.8997,110.2999 L230.3997,110.7999 L226.4007,110.2999 L217.2007,111.7999 L211.3007,114.3999 L207.2997,116.4999 L205.7007,118.0009 L202.3997,117.3999 L202.3997,115.5999 L197.1997,116.5999 L192.9997,114.3999 L186.1997,112.7999 L183.5997,109.7999 L180.9997,109.6999 L172.9997,108.4999 L169.4997,109.4999 L154.6997,107.4999 L149.2997,107.8999 L148.7997,106.1999 L146.2007,103.6999 L143.6007,96.7999 L142.3997,96.4999 L142.8997,93.9999 L140.4997,94.2999 L135.9997,91.9999 L135.0997,90.6999 L133.1997,90.3999 L130.5997,87.7999 L125.7007,86.9999 L123.7997,87.3999 L120.6997,86.5999 L118.2997,86.8999 L115.0007,85.6009 L113.3997,85.6999 L111.7997,82.6999 L112.3007,80.2999 L114.1997,77.6989 L113.4997,75.0999 L114.3997,72.5999 L113.0007,68.5999 L110.5997,65.4999 L109.8997,62.1009 L107.8007,59.8999 L105.9007,60.3999 L104.7007,58.3999 L101.4007,58.7999 L98.2997,56.5999 L98.0997,55.3999 L94.1007,52.7999 L93.2007,50.8999 L93.4007,47.1999 L90.0997,47.8999 L87.2997,47.7999 L86.1007,48.8999 L86.3997,52.0999 L85.2007,53.7999 L82.6007,54.8999 L79.9997,55.0009 L78.3997,59.7999 L79.2997,65.0999 L78.1007,68.1999 L76.2007,68.5009 L73.3997,70.4999 L72.6997,68.8999 L67.7997,68.9999 L62.8997,66.6999 L61.9997,66.7999 L61.7997,69.1999 L57.2997,82.6999 L59.3997,83.5999 L59.1997,85.8999 L57.2997,85.4999 L55.2007,86.2999 L53.8007,84.4999 L47.8997,86.3999 L42.7007,87.3999 L41.4997,88.3999 L42.1997,89.3999 L43.7997,89.1009 L44.4997,90.5999 L44.4997,95.5999 L46.9997,101.4999 L46.5007,102.6009 L47.4007,104.3999 L44.8007,105.3999 L45.9997,106.4999 L43.9007,107.4999 L43.1997,109.0009 L44.0997,112.2999 L43.6007,112.7999 L43.6007,114.2999 L41.1997,114.3999 L40.4997,115.4999 L37.6997,116.3999 L31.5997,119.8999 L29.6997,122.8999 L25.7007,123.3999 L22.5997,122.7999 L21.2007,123.5999 L19.0997,128.1999 L17.7007,128.0999 L15.5997,129.1999 L14.1997,129.2999 L13.4997,126.4999 L10.8997,128.0999 L8.4997,127.3999 L7.6007,128.9999 L5.4997,130.9999 L3.1007,131.3999 L1.8997,133.4999 L2.5997,135.2999 L0.6997,136.5999 L0.5007,138.3999 L1.8997,140.1999 L0.9997,141.3999 L1.6997,143.4999 L3.2997,144.1009 L3.7997,142.8999 L5.5997,142.8999 L8.3997,144.1999 L8.6007,147.7999 L9.7997,150.4999 L9.2997,151.8999 L10.8997,153.4989 L9.2997,154.8999 L8.0997,154.2999 L5.7007,155.8009 L6.9007,156.6009 L12.1007,157.4999 L12.5997,158.8999 L15.1997,159.3999 L16.3997,161.1999 L16.6007,163.0999 L15.7007,164.1999 L17.6007,166.6009 L20.2007,165.9989 L21.5997,167.7999 L25.7997,169.3009 L28.2007,169.0999 L29.7997,169.3999 L29.5997,170.8999 L31.4997,175.7999 L35.7007,178.0999 L35.8997,179.2999 L34.2997,180.3999 L34.7997,184.6009 L35.9997,186.4999 L38.5997,187.5999 L38.4007,189.1999 L39.2997,191.6999 L36.6997,193.7999 L35.4997,193.9989 L33.5997,192.2999 L32.1997,192.6009 L32.7007,194.9999 L34.6007,196.9999 L34.0997,198.4989 L34.9997,199.6999 L34.0997,200.4999 L34.2997,201.8999 L35.8997,201.9989 L36.3997,201.0999 L37.9997,203.4999 L39.8997,204.8999 L41.4997,204.7999 L44.2997,207.8009 L47.4007,209.1999 L48.9997,210.6999 L50.3997,212.1999 L52.9997,208.9999 L56.2997,209.5999 L56.4997,211.6009 L59.1007,212.6989 L60.9997,214.6999 L63.0997,214.9999 L65.4997,218.1999 L66.4007,218.3999 L67.7997,217.4999 L69.1997,217.8009 L70.0997,220.3999 L72.8997,222.5999 L74.5007,223.0999 L76.1007,222.7999 L75.5997,224.8009 L78.9007,225.2999 L80.4997,225.8999 L82.0997,227.8999 L84.8997,227.6999 L85.5997,226.3999 L88.9007,227.4999 L89.6007,228.2999 L93.4007,228.3999 L94.1007,227.6999 L96.0007,228.0999 L96.0007,227.3999 L97.6007,227.1999 L99.1997,226.2999 L100.3997,227.0999 L100.6007,228.1999 L99.8997,230.3999 L100.7997,232.0999 L101.9997,229.8999 L105.2997,225.9999 L107.1997,224.8009 L109.7997,224.3999 L112.2007,225.2999 L112.6997,226.2999 L115.4997,227.1999 L116.7007,226.2999 L119.0997,227.5999 L119.0997,228.6999 L121.2007,228.8999 L123.2997,228.4999 L125.3997,227.5999 L125.6007,226.1989 L128.4007,224.1999 L128.8997,223.3009 L130.7997,221.8999 L132.0007,221.8999 L136.6997,219.2999 L136.2007,218.8009 L138.5997,217.0999 L139.4997,218.2999 L142.2997,218.8009 L144.1997,218.4999 L145.7997,216.8999 L148.3997,216.6999 L151.1997,220.8999 L151.8997,222.5999 L153.7997,224.5999 L154.6997,224.2999 L156.1007,225.3999 L157.4997,222.9999 L159.5997,224.1999 L161.1997,225.8999 L160.9997,227.1999 L162.3997,230.3999 L163.0997,229.3009 L164.6997,230.0999 L164.6997,233.1009 L165.2007,233.9999 L165.2007,237.0999 L163.9997,240.9999 L164.8997,242.5999 L163.6997,242.8999 L162.5007,244.8009 L161.0997,244.4999 L160.8997,246.0999 L158.2997,249.1999 L158.7997,249.9999 L157.3997,250.7999 L157.2007,252.9999 L157.8997,252.8999 L158.3997,255.1999 L157.2007,256.4999 L157.8997,257.0999 L161.3997,255.2999 L163.5007,255.1999 L164.6997,256.3009 L164.6997,257.5999 L165.8997,258.8999 L165.8997,261.9999 L167.2997,262.5999 L170.0997,262.8999 L168.9007,265.0999 L169.0997,266.8999 L167.7007,269.3999 L172.2007,270.3999 L172.8997,270.1999 L173.0997,272.4999 L176.3997,274.3999 L178.0007,273.9989 L178.8997,272.8009 L180.5007,272.1999 L180.6997,273.6999 L181.3997,276.3009 L182.9997,275.7999 L184.3997,276.5999 L184.5997,271.8009 L183.6997,270.6999 L182.9997,268.7999 L184.3997,266.8999 L187.0007,267.5999 L187.7007,267.4999 L189.0997,264.9989 L191.6997,266.3009 L192.5997,267.3009 L194.7007,264.8009 L196.0997,266.3009 L196.7997,264.6999 L199.2007,266.6989 L199.3997,265.3009 L200.5997,264.4999 L201.4997,265.4999 L204.5997,263.8009 L204.7997,262.0999 L207.8997,260.9999 L211.3997,263.9989 L212.2997,263.4999 L214.1997,264.2999 L215.4007,263.8009 L216.9997,265.0999 L215.5997,267.3999 L216.5007,268.8999 L216.5007,270.4989 L217.9007,270.6999 L221.0007,273.3999 L224.2997,273.0999 L225.1997,274.1999 L227.2997,272.5999 L228.2007,272.8999 L228.9007,271.8009 L230.0997,272.8999 L232.7007,273.2999 L232.7007,274.7999 L235.2997,274.0999 L236.9007,275.0999 L236.2007,276.7999 L235.9997,278.1999 L236.6997,278.8999 L237.2007,280.9999 L238.3997,281.6999 L239.0997,282.9989 L241.0007,282.6009 L241.8997,281.2999 L240.4997,279.8999 L240.7997,278.8999 L239.3997,278.8009 L239.3997,277.7999 L241.2997,275.8999 L242.4997,275.9999 L246.2997,273.8009 L249.0997,273.8999 L252.8997,271.6999 L253.0997,272.5999 L254.5007,271.6999 L255.3997,272.0999 L258.1997,270.1009 L259.4007,270.1999 L259.8997,269.1999 L261.2997,269.3999 L261.9997,267.7999 L261.9997,266.3009 L260.4007,264.0999 L261.9997,263.8009 L263.9007,266.9999 L265.0997,266.6989 L266.0007,266.4999 L269.2997,264.8009 L269.4997,266.1999 L272.5987,264.4999 L273.4997,265.4999 L274.9007,264.1999 L276.2997,264.6999 L278.1997,264.4999 L279.5997,263.5999 L280.7997,263.6999 L281.4997,261.6999 L282.6997,261.1999 L283.3997,258.8999 L285.7997,258.5999 L285.9997,257.7999 L289.9997,255.8999 L290.2007,254.5999 L291.3997,254.1999 L292.0997,252.1999 L293.4997,251.5999 L294.4007,251.9999 L295.5997,250.6999 L295.4007,249.9999 L296.9997,247.3009 L299.0997,247.6009 L298.9007,246.4999 L297.9997,245.8999 L301.4997,243.4989 L302.0007,241.7999 L301.0997,241.3999 L301.7997,239.1999 L302.7007,238.3009 L301.4997,235.9999 L302.7007,235.9999 L303.1997,236.9989 L304.7997,237.0999 L305.7007,233.5999 L307.2997,232.9999 L307.7997,230.1999 L311.2997,225.4989 L312.7007,225.3999 L314.8007,224.5999 L313.5997,222.1999 L314.8007,220.3009 L314.5997,218.2999 L316.5007,218.1999 L316.5007,214.8999 L317.2997,213.3009 L315.1997,211.8999 L313.2997,209.4999 L311.7007,209.3999 L310.0997,210.6999 L309.4007,209.6999 L310.7997,207.8009 L313.5997,206.1009 L317.0997,204.8999 L315.5007,202.0999 L312.9007,200.3999 L311.7007,198.9999 L310.7997,197.8999 L312.7007,197.3999 L316.2007,198.8999 L316.9007,198.4989 L316.2007,196.9999 L313.7997,195.6999 L313.2997,193.4999 L309.7997,191.2999 L309.9997,188.5999 L306.8997,181.8999 L305.9997,178.3999 L302.0007,176.4999 L300.5997,174.8999 L298.6997,174.6009 L298.6997,172.4999 L300.0997,172.1989 L300.5997,170.2999 L302.0007,168.3009 L303.5997,167.9999 L304.4997,166.1999 L305.7007,165.1999 L304.7997,163.2999 L306.6997,163.3999 L306.5007,164.5999 L308.9007,163.6999 L308.4007,162.2999 L309.0997,161.1999 L311.9007,159.4999 L317.4997,156.8999 L319.3997,158.3009 L320.7997,157.3009 L320.0997,155.5999 L320.7997,154.1989 L318.2007,152.8009 L314.7007,153.2999 L313.0987,151.8999 L309.0997,149.8999 L306.2997,151.1999 L305.5997,152.5999 L303.4997,153.8999 L302.7997,155.5999 L300.6997,155.8009 L297.4007,154.4999 L297.4007,151.6999 L298.2997,149.6989 L296.4007,147.1999 L294.4997,147.8999 L291.3997,147.2999 L288.9997,145.2999 L287.8007,143.1999 L288.9997,139.1999 L291.0997,138.0999 L293.1997,139.6999 L294.7997,138.6009 L297.4007,138.1999 L299.2997,136.1989 L299.7997,133.7999 L301.2007,132.2999 L307.0997,129.6999 L308.2997,127.2999 L310.3997,125.4999 L310.5997,124.1999 L312.9997,123.3999 L314.4007,124.1999 L317.4997,124.9999 L319.0997,127.0009 L316.5007,131.3999 L314.0997,132.4999 L314.0997,134.2999 L312.7007,134.7999 L314.2997,136.7999 L314.9997,139.1999 L311.9007,140.3999 L311.7007,142.2999 L313.7997,141.5999 L314.7007,139.9999 L316.0997,140.5009 L319.5997,136.5999 L325.2007,133.4999 L330.7997,132.8999 L332.4007,130.6009 L335.6997,127.2999 L339.9007,125.2999 L341.4997,123.9999 L342.8997,123.8999 L345.6997,119.8999 L346.9007,117.1999 L348.9997,115.9999 L350.1997,118.2999 L353.6997,119.1999 L355.5997,118.9999 L357.1997,119.4999 L357.9007,117.8999 L356.2997,115.2999 L356.2997,114.2999 L361.9007,114.0999 L363.7997,112.3999 L363.9997,110.8999 L367.0987,110.3999 L368.2997,105.3999 L370.6997,106.2999 L370.6997,107.6999 L372.5997,109.5999 L371.9007,107.8999 L374.2997,106.6999 L375.7007,106.9999 L377.5997,102.0999 L376.9007,100.7999 L377.4007,95.9999 L376.1997,90.2999 L375.2997,88.7999 L378.5997,87.7999 L381.2007,84.2999 L382.3997,85.1999 L383.5997,84.2999 L387.0997,85.0999 L387.7997,86.8999 L389.5987,85.9999 L389.5987,83.0999 L391.4997,81.6999 L393.4007,76.4999 L394.7997,75.2999 L394.2997,73.2999 L395.1997,71.7999 L396.4007,65.7999 L398.4997,64.0999 L400.3997,61.3999 L398.9997,58.0999 L399.9007,55.9999 L397.7997,54.7999 L393.5997,56.1999 L391.6997,57.6999 L389.2997,57.6009 L386.7007,59.0999 L385.4997,61.3999 L379.4007,61.7999 L378.5007,61.0999 L375.9007,61.5999 L373.4997,58.0999 L374.3997,55.1989 L372.4997,52.2999 L373.3997,49.8999 L370.5997,49.8999 L368.4997,48.1999 L367.0987,45.7999 L363.0997,44.9999 L360.9997,43.6999 L361.2007,42.6999 L356.4997,43.0999 L354.9007,42.4999 L352.7997,40.0999 L353.2997,36.1009 L351.6997,34.9999 L351.5007,30.6999 L349.0987,27.3999 L349.2997,24.8999 L348.0997,23.6989 L345.9997,17.6999 L346.4997,15.8999 L344.4007,11.9009 L340.5997,6.1999 L337.3007,4.4999 L334.6997,5.0999 L331.4007,2.6999 L327.4007,0.6999 L324.9997,0.4999 L322.4007,1.5999 Z M311.4997,198.2999 L313.9997,200.2999 L316.2997,200.8999 L316.5007,200.1999 L312.1997,197.8999 L311.4997,198.2999 Z M241.9997,285.1999 L240.4997,284.4999 L239.0007,284.5999 L237.9997,285.3999 L236.0997,284.9999 L234.4007,286.1999 L233.1997,285.5999 L232.1997,287.5999 L231.1997,287.8999 L228.4997,290.6999 L229.2007,295.7999 L232.0997,297.3999 L233.9997,297.2999 L234.9997,297.9999 L236.2007,297.5999 L236.2007,296.5999 L238.0997,296.6999 L239.2997,294.7999 L240.7997,294.4999 L242.2997,289.4999 L244.5007,287.3009 L244.2997,285.0999 L242.5997,283.8999 L241.9997,285.1999 Z" id="Fill-1" fill="#FFFFFF"></path>
            <path d="M242.5996,283.9 L244.2996,285.1 L244.4996,287.3 L242.2996,289.5 L240.7996,294.5 L239.2996,294.8 L238.0996,296.7 L236.2006,296.6 L236.2006,297.6 L234.9996,298 L233.9996,297.3 L232.0996,297.4 L229.2006,295.8 L228.4996,290.7 L231.2006,287.9 L232.2006,287.6 L233.2006,285.6 L234.4006,286.2 L236.0996,285 L237.9996,285.4 L238.9996,284.6 L240.4996,284.5 L241.9996,285.2 L242.5996,283.9 Z M316.2996,200.9 L313.9996,200.3 L311.4996,198.3 L312.2006,197.9 L316.4996,200.2 L316.2996,200.9 Z M387.7996,86.9 L387.0996,85.1 L383.5996,84.3 L382.4006,85.2 L381.2006,84.3 L378.5996,87.8 L375.2996,88.8 L376.2006,90.3 L377.4006,96 L376.9006,100.8 L377.5996,102.1 L375.7006,107 L374.2996,106.7 L371.9006,107.9 L372.5996,109.6 L370.7006,107.7 L370.7006,106.3 L368.2996,105.4 L367.0996,110.4 L363.9996,110.9 L363.7996,112.4 L361.9006,114.1 L356.2996,114.3 L356.2996,115.3 L357.9006,117.9 L357.2006,119.5 L355.5996,119 L353.7006,119.2 L350.2006,118.3 L348.9996,116 L346.9006,117.2 L345.7006,119.9 L342.9006,123.9 L341.4996,124 L339.9006,125.3 L335.7006,127.3 L332.4006,130.6 L330.7996,132.9 L325.2006,133.5 L319.5996,136.6 L316.0996,140.5 L314.7006,140 L313.7996,141.6 L311.7006,142.3 L311.9006,140.4 L314.9996,139.2 L314.2996,136.8 L312.7006,134.8 L314.0996,134.3 L314.0996,132.5 L316.4996,131.4 L319.0996,127 L317.4996,125 L314.4006,124.2 L312.9996,123.4 L310.5996,124.2 L310.4006,125.5 L308.2996,127.3 L307.0996,129.7 L301.2006,132.3 L299.7996,133.8 L299.2996,136.2 L297.4006,138.2 L294.7996,138.6 L293.2006,139.7 L291.0996,138.1 L288.9996,139.2 L287.7996,143.2 L288.9996,145.3 L291.4006,147.3 L294.4996,147.9 L296.4006,147.2 L298.2996,149.7 L297.4006,151.7 L297.4006,154.5 L300.7006,155.8 L302.7996,155.6 L303.4996,153.9 L305.5996,152.6 L306.2996,151.2 L309.0996,149.9 L313.0996,151.9 L314.7006,153.3 L318.2006,152.8 L320.7996,154.2 L320.0996,155.6 L320.7996,157.3 L319.4006,158.3 L317.4996,156.9 L311.9006,159.5 L309.0996,161.2 L308.4006,162.3 L308.9006,163.7 L306.4996,164.6 L306.7006,163.4 L304.7996,163.3 L305.7006,165.2 L304.4996,166.2 L303.5996,168 L301.9996,168.3 L300.5996,170.3 L300.0996,172.2 L298.7006,172.5 L298.7006,174.6 L300.5996,174.9 L301.9996,176.5 L305.9996,178.4 L306.9006,181.9 L309.9996,188.6 L309.7996,191.3 L313.2996,193.5 L313.7996,195.7 L316.2006,197 L316.9006,198.5 L316.2006,198.9 L312.7006,197.4 L310.7996,197.9 L311.7006,199 L312.9006,200.4 L315.4996,202.1 L317.0996,204.9 L313.5996,206.1 L310.7996,207.8 L309.4006,209.7 L310.0996,210.7 L311.7006,209.4 L313.2996,209.5 L315.2006,211.9 L317.2996,213.3 L316.4996,214.9 L316.4996,218.2 L314.5996,218.3 L314.7996,220.3 L313.5996,222.2 L314.7996,224.6 L312.7006,225.4 L311.2996,225.5 L307.7996,230.2 L307.2996,233 L305.7006,233.6 L304.7996,237.1 L303.2006,237 L302.7006,236 L301.4996,236 L302.7006,238.3 L301.7996,239.2 L301.0996,241.4 L301.9996,241.8 L301.4996,243.5 L297.9996,245.9 L298.9006,246.5 L299.0996,247.6 L296.9996,247.3 L295.4006,250 L295.5996,250.7 L294.4006,252 L293.4996,251.6 L292.0996,252.2 L291.4006,254.2 L290.2006,254.6 L289.9996,255.9 L285.9996,257.8 L285.7996,258.6 L283.4006,258.9 L282.7006,261.2 L281.4996,261.7 L280.7996,263.7 L279.5996,263.6 L278.2006,264.5 L276.2996,264.7 L274.9006,264.2 L273.4996,265.5 L272.5996,264.5 L269.4996,266.2 L269.2996,264.8 L265.9996,266.5 L265.0996,266.7 L263.9006,267 L261.9996,263.8 L260.4006,264.1 L261.9996,266.3 L261.9996,267.8 L261.2996,269.4 L259.9006,269.2 L259.4006,270.2 L258.2006,270.1 L255.4006,272.1 L254.4996,271.7 L253.0996,272.6 L252.9006,271.7 L249.0996,273.9 L246.2996,273.8 L242.4996,276 L241.2996,275.9 L239.4006,277.8 L239.4006,278.8 L240.7996,278.9 L240.4996,279.9 L241.9006,281.3 L240.9996,282.6 L239.0996,283 L238.4006,281.7 L237.2006,281 L236.7006,278.9 L235.9996,278.2 L236.2006,276.8 L236.9006,275.1 L235.2996,274.1 L232.7006,274.8 L232.7006,273.3 L230.0996,272.9 L228.9006,271.8 L228.2006,272.9 L227.2996,272.6 L225.2006,274.2 L224.2996,273.1 L220.9996,273.4 L217.9006,270.7 L216.4996,270.5 L216.4996,268.9 L215.5996,267.4 L216.9996,265.1 L215.4006,263.8 L214.2006,264.3 L212.2996,263.5 L211.4006,264 L207.9006,261 L204.7996,262.1 L204.5996,263.8 L201.4996,265.5 L200.5996,264.5 L199.3996,265.3 L199.2006,266.7 L196.7996,264.7 L196.0996,266.3 L194.7006,264.8 L192.5996,267.3 L191.7006,266.3 L189.0996,265 L187.7006,267.5 L186.9996,267.6 L184.3996,266.9 L182.9996,268.8 L183.7006,270.7 L184.5996,271.8 L184.3996,276.6 L182.9996,275.8 L181.3996,276.3 L180.7006,273.7 L180.4996,272.2 L178.8996,272.8 L177.9996,274 L176.3996,274.4 L173.0996,272.5 L172.8996,270.2 L172.2006,270.4 L167.7006,269.4 L169.0996,266.9 L168.8996,265.1 L170.0996,262.9 L167.2996,262.6 L165.8996,262 L165.8996,258.9 L164.7006,257.6 L164.7006,256.3 L163.4996,255.2 L161.3996,255.3 L157.8996,257.1 L157.2006,256.5 L158.3996,255.2 L157.8996,252.9 L157.2006,253 L157.3996,250.8 L158.7996,250 L158.2996,249.2 L160.8996,246.1 L161.0996,244.5 L162.4996,244.8 L163.7006,242.9 L164.8996,242.6 L163.9996,241 L165.2006,237.1 L165.2006,234 L164.7006,233.1 L164.7006,230.1 L163.0996,229.3 L162.3996,230.4 L160.9996,227.2 L161.2006,225.9 L159.5996,224.2 L157.4996,223 L156.0996,225.4 L154.7006,224.3 L153.7996,224.6 L151.8996,222.6 L151.2006,220.9 L148.3996,216.7 L145.7996,216.9 L144.2006,218.5 L142.2996,218.8 L139.4996,218.3 L138.5996,217.1 L136.2006,218.8 L136.7006,219.3 L131.9996,221.9 L130.7996,221.9 L128.8996,223.3 L128.3996,224.2 L125.5996,226.2 L125.3996,227.6 L123.2996,228.5 L121.2006,228.9 L119.0996,228.7 L119.0996,227.6 L116.7006,226.3 L115.4996,227.2 L112.7006,226.3 L112.2006,225.3 L109.7996,224.4 L107.2006,224.8 L105.2996,226 L101.9996,229.9 L100.7996,232.1 L99.8996,230.4 L100.5996,228.2 L100.3996,227.1 L99.2006,226.3 L97.5996,227.2 L95.9996,227.4 L95.9996,228.1 L94.0996,227.7 L93.3996,228.4 L89.5996,228.3 L88.8996,227.5 L85.5996,226.4 L84.8996,227.7 L82.0996,227.9 L80.4996,225.9 L78.8996,225.3 L75.5996,224.8 L76.0996,222.8 L74.4996,223.1 L72.8996,222.6 L70.0996,220.4 L69.2006,217.8 L67.7996,217.5 L66.3996,218.4 L65.4996,218.2 L63.0996,215 L60.9996,214.7 L59.0996,212.7 L56.4996,211.6 L56.2996,209.6 L52.9996,209 L50.3996,212.2 L48.9996,210.7 L47.3996,209.2 L44.2996,207.8 L41.4996,204.8 L39.8996,204.9 L37.9996,203.5 L36.3996,201.1 L35.8996,202 L34.2996,201.9 L34.0996,200.5 L34.9996,199.7 L34.0996,198.5 L34.5996,197 L32.7006,195 L32.2006,192.6 L33.5996,192.3 L35.4996,194 L36.7006,193.8 L39.2996,191.7 L38.3996,189.2 L38.5996,187.6 L35.9996,186.5 L34.7996,184.6 L34.2996,180.4 L35.8996,179.3 L35.7006,178.1 L31.4996,175.8 L29.5996,170.9 L29.7996,169.4 L28.2006,169.1 L25.7996,169.3 L21.5996,167.8 L20.2006,166 L17.5996,166.6 L15.7006,164.2 L16.5996,163.1 L16.3996,161.2 L15.2006,159.4 L12.5996,158.9 L12.0996,157.5 L6.8996,156.6 L5.7006,155.8 L8.0996,154.3 L9.2996,154.9 L10.8996,153.5 L9.2996,151.9 L9.7996,150.5 L8.5996,147.8 L8.3996,144.2 L5.5996,142.9 L3.7996,142.9 L3.2996,144.1 L1.7006,143.5 L0.9996,141.4 L1.8996,140.2 L0.4996,138.4 L0.7006,136.6 L2.5996,135.3 L1.8996,133.5 L3.0996,131.4 L5.4996,131 L7.5996,129 L8.4996,127.4 L10.8996,128.1 L13.4996,126.5 L14.2006,129.3 L15.5996,129.2 L17.7006,128.1 L19.0996,128.2 L21.2006,123.6 L22.5996,122.8 L25.7006,123.4 L29.7006,122.9 L31.5996,119.9 L37.7006,116.4 L40.4996,115.5 L41.2006,114.4 L43.5996,114.3 L43.5996,112.8 L44.0996,112.3 L43.2006,109 L43.8996,107.5 L45.9996,106.5 L44.7996,105.4 L47.3996,104.4 L46.4996,102.6 L46.9996,101.5 L44.4996,95.6 L44.4996,90.6 L43.7996,89.1 L42.2006,89.4 L41.4996,88.4 L42.7006,87.4 L47.8996,86.4 L53.7996,84.5 L55.2006,86.3 L57.2996,85.5 L59.2006,85.9 L59.3996,83.6 L57.2996,82.7 L61.7996,69.2 L61.9996,66.8 L62.8996,66.7 L67.7996,69 L72.7006,68.9 L73.3996,70.5 L76.2006,68.5 L78.0996,68.2 L79.2996,65.1 L78.3996,59.8 L79.9996,55 L82.5996,54.9 L85.2006,53.8 L86.3996,52.1 L86.0996,48.9 L87.2996,47.8 L90.0996,47.9 L93.3996,47.2 L93.2006,50.9 L94.0996,52.8 L98.0996,55.4 L98.2996,56.6 L101.3996,58.8 L104.7006,58.4 L105.8996,60.4 L107.7996,59.9 L109.8996,62.1 L110.5996,65.5 L112.9996,68.6 L114.3996,72.6 L113.4996,75.1 L114.2006,77.7 L112.2996,80.3 L111.7996,82.7 L113.3996,85.7 L114.9996,85.6 L118.2996,86.9 L120.7006,86.6 L123.7996,87.4 L125.7006,87 L130.5996,87.8 L133.2006,90.4 L135.0996,90.7 L135.9996,92 L140.4996,94.3 L142.8996,94 L142.3996,96.5 L143.5996,96.8 L146.2006,103.7 L148.7996,106.2 L149.2996,107.9 L154.7006,107.5 L169.4996,109.5 L172.9996,108.5 L180.9996,109.7 L183.5996,109.8 L186.2006,112.8 L192.9996,114.4 L197.2006,116.6 L202.4006,115.6 L202.4006,117.4 L205.7006,118 L207.2996,116.5 L211.2996,114.4 L217.2006,111.8 L226.4006,110.3 L230.4006,110.8 L234.9006,110.3 L236.2996,109.4 L240.9996,107.4 L244.4996,102.8 L248.7006,100.7 L250.7996,99.2 L250.2996,96.9 L247.4996,93.2 L249.5996,87.4 L251.4996,86.4 L254.2996,86.7 L255.2006,88 L258.4996,89.2 L261.9996,89.6 L264.5996,87.8 L266.9996,85.3 L267.9006,83.6 L270.4996,83.7 L274.9996,83 L278.4996,80.5 L278.7006,78.7 L281.2996,74.9 L282.7006,74.2 L285.9996,74.5 L286.4996,72.4 L288.5996,72.9 L292.0996,71 L295.2006,71.3 L295.9006,70.6 L299.4006,71.9 L301.7996,72.2 L303.2006,71 L303.2006,69.1 L301.7996,66.7 L297.9996,63.2 L297.4996,61.8 L295.4006,60.8 L293.9996,58.8 L291.5996,58.1 L288.7996,58.6 L287.2006,60.5 L285.9996,61.7 L282.9006,59.7 L278.9006,59.7 L276.2996,61.2 L274.4006,59 L274.2006,57.2 L276.0996,55.7 L276.0996,53.1 L281.7006,40.1 L284.2996,41.7 L288.7996,43.4 L291.5996,41.7 L294.7006,38.9 L297.4996,38.6 L299.4006,37.5 L298.9006,32.4 L302.2006,27.3 L304.5996,21.2 L307.4006,18.7 L308.7996,16.3 L307.9006,13.9 L308.5996,11.8 L306.4996,10.8 L304.0996,11.2 L303.9006,9.4 L305.4996,8.3 L309.4996,3.7 L311.5996,3.7 L318.9006,1.4 L322.4006,1.6 L324.9996,0.5 L327.4006,0.7 L331.4006,2.7 L334.7006,5.1 L337.2996,4.5 L340.5996,6.2 L344.4006,11.9 L346.4996,15.9 L345.9996,17.7 L348.0996,23.7 L349.2996,24.9 L349.0996,27.4 L351.4996,30.7 L351.7006,35 L353.2996,36.1 L352.7996,40.1 L354.9006,42.5 L356.4996,43.1 L361.2006,42.7 L360.9996,43.7 L363.0996,45 L367.0996,45.8 L368.4996,48.2 L370.5996,49.9 L373.4006,49.9 L372.4996,52.3 L374.4006,55.2 L373.4996,58.1 L375.9006,61.6 L378.4996,61.1 L379.4006,61.8 L385.4996,61.4 L386.7006,59.1 L389.2996,57.6 L391.7006,57.7 L393.5996,56.2 L397.7996,54.8 L399.9006,56 L398.9996,58.1 L400.4006,61.4 L398.4996,64.1 L396.4006,65.8 L395.2006,71.8 L394.2996,73.3 L394.7996,75.3 L393.4006,76.5 L391.4996,81.7 L389.5996,83.1 L389.5996,86 L387.7996,86.9 Z" id="Stroke-2" stroke="#E75F52" stroke-linecap="round" stroke-linejoin="round"></path>
        </g>
    </g>
</svg>