<?xml version="1.0" encoding="UTF-8"?>
<svg width="400px" height="171px" viewBox="0 0 400 171" version="1.1" xmlns="http://www.w3.org/2000/svg" xmlns:xlink="http://www.w3.org/1999/xlink">
    <!-- Generator: Sketch 64 (93537) - https://sketch.com -->
    <title>86</title>
    <desc>Created with Sketch.</desc>
    <g id="86" stroke="none" stroke-width="1" fill="none" fill-rule="evenodd">
        <g id="Group-5" transform="translate(0.000000, 35.000000)">
            <path d="M9.0078,100.5349 C8.8098,100.0969 8.6928,100.0149 7.6338,99.5969 C6.5058,99.1499 6.4628,99.1189 5.9698,98.3619 C5.3038,97.3399 5.2908,96.7359 5.8988,94.9339 C6.1368,94.2249 6.3328,93.4739 6.3328,93.2649 C6.3338,93.0569 6.1578,92.4399 5.9438,91.8939 C5.6398,91.1239 5.3908,90.7339 4.8338,90.1569 C4.1868,89.4859 4.0908,89.3159 3.8708,88.4499 C3.6308,87.5029 3.6308,87.4729 3.8618,86.5889 C4.0688,85.7919 4.0948,85.1919 4.0968,81.3349 C4.0988,77.3839 4.0768,76.9169 3.8638,76.2979 C3.4738,75.1619 3.2828,74.9009 2.3088,74.1679 C1.2768,73.3909 0.8718,72.7829 0.8718,72.0079 C0.8718,71.7449 1.0958,70.8659 1.3688,70.0539 C1.6418,69.2409 1.8648,68.4429 1.8648,68.2809 C1.8648,68.1189 1.5578,67.4719 1.1828,66.8439 C0.5948,65.8579 0.4998,65.6119 0.4998,65.0679 C0.4998,64.4819 0.5278,64.4269 0.8768,64.2809 C1.7858,63.9039 1.8648,63.7609 1.8648,62.4699 C1.8648,60.4539 2.3108,59.9539 5.7748,58.0849 C9.1868,56.2429 10.1578,55.2389 11.0008,52.6829 C11.2488,51.9309 11.5628,51.1939 11.6968,51.0459 C11.8318,50.8959 11.9108,50.7239 11.8728,50.6619 C11.7618,50.4829 12.2648,49.6289 12.8278,49.0379 C13.1118,48.7399 13.9868,48.0619 14.7708,47.5309 C15.5558,46.9999 16.6998,46.1689 17.3148,45.6839 C17.9288,45.1999 18.5068,44.8039 18.5988,44.8029 C18.6898,44.8019 18.9068,44.6879 19.0798,44.5529 C19.3188,44.3649 19.5838,44.3039 20.1598,44.3039 C20.8898,44.3039 20.9478,44.3269 21.4098,44.8009 C21.6968,45.0949 22.0108,45.2969 22.1798,45.2969 C22.3978,45.2969 22.4648,45.3669 22.4648,45.5919 C22.4648,45.7539 22.5488,45.9559 22.6518,46.0409 C22.7528,46.1259 22.8368,46.3009 22.8368,46.4289 C22.8368,46.6299 22.9358,46.6619 23.5408,46.6619 C24.0218,46.6619 24.3168,46.5969 24.4718,46.4569 C24.6828,46.2649 24.6978,46.2649 24.6978,46.4569 C24.6978,46.6289 24.8448,46.6619 25.6158,46.6619 C26.3508,46.6619 26.5488,46.7019 26.6118,46.8649 C26.6838,47.0529 26.7058,47.0529 26.9128,46.8649 C27.2658,46.5469 28.1918,46.5949 28.5238,46.9489 C28.6718,47.1069 28.7938,47.3029 28.7938,47.3839 C28.7938,47.4779 29.0288,47.5299 29.4568,47.5299 C29.9628,47.5299 30.1738,47.5899 30.3448,47.7779 C30.5378,47.9929 30.7268,48.0269 31.7138,48.0269 C32.5798,48.0269 32.8958,48.0719 33.0128,48.2129 C33.0978,48.3149 33.3278,48.3989 33.5248,48.3989 C33.7988,48.3989 33.8818,48.4569 33.8818,48.6469 C33.8818,48.7849 33.9638,48.8949 34.0678,48.8949 C34.3188,48.8949 34.3188,49.6809 34.0678,49.8889 C33.9538,49.9819 33.8818,50.2549 33.8818,50.5859 L33.8818,51.1289 L33.3848,51.1289 C33.0268,51.1289 32.8888,51.0769 32.8888,50.9429 C32.8888,50.8209 32.7668,50.7569 32.5348,50.7569 C32.3398,50.7569 32.0818,50.6459 31.9578,50.5089 C31.6638,50.1829 31.1998,50.1829 31.1148,50.5089 C31.0718,50.6729 30.9458,50.7569 30.7438,50.7569 C30.5748,50.7569 30.3668,50.8409 30.2818,50.9429 C30.1948,51.0479 29.9248,51.1289 29.6618,51.1289 C28.8928,51.1289 28.8408,51.3739 29.4798,52.0009 C29.7848,52.3009 30.0338,52.5819 30.0338,52.6259 C30.0338,52.6699 29.8958,52.8559 29.7258,53.0389 C29.4128,53.3769 29.4368,53.4219 29.9728,53.5149 C30.2488,53.5639 30.2668,53.9599 30.0148,54.4459 C29.8898,54.6869 29.9148,54.7579 30.2048,54.9859 C30.3888,55.1309 30.6728,55.5119 30.8358,55.8339 C30.9988,56.1549 31.2198,56.4919 31.3278,56.5809 C31.4428,56.6769 31.5238,56.9359 31.5238,57.2099 C31.5238,57.4829 31.6048,57.7429 31.7198,57.8389 C31.9868,58.0599 32.5168,59.1279 32.5168,59.4449 C32.5168,59.8329 32.8098,60.3169 33.3748,60.8649 C33.8538,61.3279 33.8818,61.3949 33.8818,62.0799 C33.8818,62.5689 33.7978,62.9689 33.6218,63.3109 C33.4798,63.5909 33.3448,64.0189 33.3218,64.2629 C33.2998,64.5069 33.1888,64.7729 33.0758,64.8549 C32.8878,64.9929 32.8918,65.0429 33.1188,65.4899 C33.2558,65.7569 33.4588,66.0519 33.5708,66.1439 C33.6838,66.2379 33.8788,66.5169 34.0058,66.7649 C34.1318,67.0139 34.3268,67.2919 34.4398,67.3859 C34.5518,67.4779 34.7578,67.7819 34.8968,68.0589 C35.1938,68.6539 35.9148,69.4429 36.3878,69.6909 C36.5718,69.7879 36.9688,69.8669 37.2688,69.8669 C37.6558,69.8669 37.8788,69.9389 38.0388,70.1159 C38.2408,70.3399 38.4208,70.3639 39.9008,70.3639 C41.3788,70.3639 41.5588,70.3879 41.7618,70.6119 C41.9368,70.8059 42.1438,70.8599 42.6958,70.8599 C43.0858,70.8599 43.6428,70.9439 43.9328,71.0469 C44.2268,71.1499 44.8838,71.2319 45.4128,71.2319 C46.2718,71.2319 46.4688,71.2819 47.3928,71.7279 C47.9568,72.0019 48.5268,72.2249 48.6578,72.2249 C48.8648,72.2249 48.8968,72.3159 48.8968,72.9079 C48.8968,73.2979 48.9518,73.5909 49.0258,73.5909 C49.0968,73.5909 49.3648,73.4829 49.6228,73.3509 C50.0228,73.1479 50.4018,73.1079 52.1938,73.0839 C53.6488,73.0629 54.3988,73.0029 54.6298,72.8879 C54.8148,72.7969 55.1828,72.7219 55.4478,72.7219 C55.7748,72.7219 56.0048,72.6399 56.1558,72.4729 C56.3078,72.3059 56.5378,72.2249 56.8628,72.2249 C57.1278,72.2249 57.5648,72.1129 57.8318,71.9769 C58.0998,71.8409 58.4588,71.7279 58.6308,71.7279 C59.0768,71.7279 59.4458,72.4899 59.4458,73.4139 C59.4458,73.9539 59.4808,74.0909 59.5998,74.0039 C59.6858,73.9409 59.9618,73.8199 60.2148,73.7339 C60.6028,73.6019 60.7338,73.6079 61.0468,73.7699 C61.5038,74.0069 61.8028,74.0159 61.8028,73.7959 C61.8028,73.7039 61.9198,73.5219 62.0638,73.3919 C62.2068,73.2629 62.4088,72.9889 62.5118,72.7839 C62.8618,72.0919 63.2988,71.7279 63.7868,71.7279 C64.1358,71.7279 64.3278,71.6339 64.6528,71.2989 C65.0568,70.8829 65.1018,70.8679 66.1348,70.8339 C67.0618,70.8029 67.1978,70.7689 67.1838,70.5809 C67.1688,70.4019 67.2708,70.3639 67.7538,70.3639 C68.1838,70.3639 68.4018,70.2969 68.5658,70.1159 C68.7218,69.9429 68.9478,69.8669 69.3058,69.8669 C69.7358,69.8669 69.8908,69.7939 70.2478,69.4179 C70.8338,68.8019 71.5188,68.5089 72.3778,68.5049 C72.7678,68.5039 73.2708,68.4219 73.4938,68.3239 C73.7188,68.2249 74.0448,68.1149 74.2198,68.0789 C74.3948,68.0429 74.7298,67.8739 74.9638,67.7039 C75.9878,66.9629 76.5178,66.7649 77.4778,66.7649 C78.2398,66.7649 78.4308,66.7219 78.6208,66.5129 C78.7458,66.3739 78.9368,66.2709 79.0438,66.2839 C79.5498,66.3439 79.6718,66.1469 79.6718,65.2779 C79.6718,64.6819 79.7268,64.3919 79.8588,64.2829 C79.9628,64.1959 80.0448,63.9259 80.0448,63.6669 C80.0448,63.3619 80.1288,63.1279 80.2928,62.9799 C80.4478,62.8399 80.5408,62.5969 80.5408,62.3359 C80.5408,61.9049 80.9078,61.0509 81.2688,60.6399 C81.3808,60.5139 81.6808,60.3039 81.9358,60.1729 C82.2148,60.0299 82.4928,59.7529 82.6368,59.4719 C82.9248,58.9109 83.2938,58.5609 83.9528,58.2259 C84.2268,58.0879 84.7268,57.6899 85.0658,57.3439 C85.5598,56.8389 85.7628,56.7139 86.0898,56.7139 C86.4088,56.7139 86.4968,56.6619 86.4968,56.4739 C86.4968,56.3389 86.7908,55.9849 87.1798,55.6529 C87.6168,55.2799 87.8618,54.9729 87.8618,54.8019 C87.8618,54.6399 88.1358,54.2639 88.5448,53.8589 C89.1608,53.2509 89.2278,53.1339 89.2278,52.6529 L89.2278,52.1219 L89.8848,52.1219 C90.4198,52.1219 90.6668,52.2009 91.2188,52.5499 C91.5908,52.7849 92.4948,53.2869 93.2278,53.6669 C94.4898,54.3189 94.6078,54.3549 95.4728,54.3549 C96.2288,54.3549 96.4248,54.3979 96.6118,54.6029 C96.7968,54.8089 96.9928,54.8519 97.7518,54.8519 C98.4238,54.8519 98.7988,54.9189 99.1548,55.0999 C99.5228,55.2879 99.8868,55.3479 100.6418,55.3479 C101.5588,55.3479 101.7238,55.3069 102.6088,54.8629 C103.1398,54.5959 103.6478,54.2889 103.7368,54.1809 C103.8358,54.0609 104.0948,53.9829 104.3868,53.9829 C104.6538,53.9829 105.0918,53.8719 105.3598,53.7349 C105.8198,53.5009 106.0908,53.4869 110.1988,53.4869 C114.3078,53.4869 114.5798,53.4729 115.0388,53.2389 C115.3068,53.1019 115.7148,52.9909 115.9458,52.9909 C116.2078,52.9909 116.4498,52.8969 116.5898,52.7419 C116.8958,52.4059 116.9848,52.4279 117.2238,52.8969 C117.3358,53.1189 117.4448,53.3189 117.4638,53.3419 C117.5288,53.4159 118.0718,53.0909 118.4058,52.7789 L118.7338,52.4739 L119.2388,52.7319 C119.6058,52.9199 119.9798,52.9909 120.5938,52.9909 C121.4018,52.9909 121.4638,52.9699 121.8638,52.5559 L122.2848,52.1219 L123.6688,52.1219 L125.0528,52.1219 L125.2778,51.6259 C125.4378,51.2679 125.5758,51.1289 125.7688,51.1289 C125.9158,51.1289 126.2008,50.9569 126.4018,50.7449 C127.2288,49.8739 128.6528,49.4909 129.1238,50.0129 C129.2748,50.1799 129.5058,50.2609 129.8288,50.2609 C130.1308,50.2609 130.6288,50.4219 131.1708,50.6949 C131.6758,50.9489 132.2178,51.1289 132.4768,51.1289 C132.7198,51.1289 133.1398,51.2419 133.4098,51.3799 L133.9018,51.6309 L134.3928,51.3799 C134.7928,51.1759 135.1248,51.1289 136.1768,51.1289 C137.1748,51.1289 137.5048,51.0869 137.6238,50.9429 C137.7448,50.7979 138.0868,50.7569 139.1938,50.7569 C140.5968,50.7569 140.6158,50.7529 141.5958,50.2609 C142.3998,49.8559 142.7158,49.7639 143.2988,49.7599 C143.6928,49.7579 144.1538,49.6759 144.3248,49.5779 C144.4978,49.4789 144.9718,49.3979 145.3918,49.3959 C145.9868,49.3919 146.1958,49.3389 146.3728,49.1429 C146.5598,48.9369 146.7568,48.8949 147.5398,48.8929 C148.6488,48.8909 149.3008,48.5969 149.7418,47.9009 C149.8928,47.6629 150.1528,47.3009 150.3188,47.0969 C150.4848,46.8909 150.7368,46.4949 150.8788,46.2139 C151.0448,45.8869 151.2788,45.6459 151.5328,45.5409 C151.7498,45.4509 152.0898,45.2409 152.2868,45.0749 C152.6128,44.8009 152.6818,44.7879 153.0278,44.9309 C153.2368,45.0169 153.6208,45.2659 153.8808,45.4829 C154.1398,45.6989 154.5208,45.9459 154.7268,46.0319 C154.9528,46.1259 155.1618,46.3419 155.2568,46.5789 C155.3428,46.7959 156.0288,47.5999 156.7808,48.3679 L158.1488,49.7639 L158.8128,49.7639 C159.1818,49.7639 159.6498,49.8529 159.8638,49.9649 C160.2208,50.1489 160.2788,50.1489 160.5908,49.9649 C160.7778,49.8539 161.1238,49.7639 161.3618,49.7639 C161.6018,49.7639 161.8638,49.6779 161.9538,49.5689 C162.0428,49.4619 162.3198,49.2699 162.5678,49.1429 C163.2158,48.8119 163.6538,47.6219 163.8018,45.7929 C163.8428,45.2809 163.9728,44.6829 164.0908,44.4659 C164.2078,44.2469 164.3048,43.8479 164.3048,43.5809 C164.3048,43.3019 164.3828,43.0279 164.4878,42.9399 C164.6978,42.7659 165.4368,41.4499 165.3238,41.4499 C165.2838,41.4499 165.1198,41.5729 164.9598,41.7229 C164.7988,41.8749 164.4038,42.1389 164.0828,42.3129 C163.5488,42.6009 163.4338,42.7539 162.7528,44.0679 C162.3438,44.8599 161.8648,45.6769 161.6898,45.8829 C161.5138,46.0879 161.2978,46.4309 161.2088,46.6449 C161.0598,47.0069 161.0048,47.0339 160.4368,47.0339 C160.0998,47.0339 159.6468,46.9439 159.4278,46.8349 C158.8718,46.5559 157.9998,45.6939 157.7158,45.1439 C157.5848,44.8889 157.2958,44.5899 157.0748,44.4779 C156.8538,44.3659 156.5598,44.1719 156.4208,44.0459 C155.8968,43.5669 155.1878,43.4349 153.1398,43.4349 C151.3468,43.4349 151.1708,43.4149 150.9648,43.1869 C150.6428,42.8309 150.5298,42.8789 150.5298,43.3709 C150.5298,43.7489 150.4688,43.8339 150.0388,44.0539 C149.7688,44.1909 149.3328,44.3039 149.0718,44.3039 C148.6648,44.3039 148.5098,44.3929 147.9818,44.9339 C147.6428,45.2809 147.1428,45.6789 146.8688,45.8179 C146.5968,45.9569 146.0098,46.4149 145.5668,46.8359 C144.5628,47.7869 143.6158,48.1829 141.8438,48.3939 C141.4318,48.4429 140.8048,48.6569 140.2648,48.9329 C139.3918,49.3799 139.3318,49.3909 138.0038,49.3909 C136.9758,49.3909 136.5308,49.4439 136.1968,49.6029 C135.7548,49.8139 135.7518,49.8129 134.8258,49.3549 C134.0038,48.9479 133.7898,48.8949 132.9638,48.8949 C132.2758,48.8949 131.9028,48.8299 131.5438,48.6469 C131.2768,48.5109 130.9298,48.3969 130.7738,48.3939 C130.6168,48.3919 130.3498,48.3099 130.1788,48.2129 C129.9668,48.0919 129.4758,48.0359 128.6268,48.0359 C127.7788,48.0359 127.2878,48.0919 127.0758,48.2129 C126.9048,48.3099 126.5278,48.3919 126.2368,48.3939 C125.8488,48.3979 125.3438,48.5809 124.3458,49.0819 C123.4598,49.5259 122.8308,49.7639 122.5438,49.7639 C122.3008,49.7639 121.8838,49.8759 121.6158,50.0129 C121.0068,50.3229 120.7208,50.3229 119.8168,50.0129 C118.9048,49.6989 118.4868,49.6989 118.2028,50.0129 C118.0098,50.2269 117.8208,50.2609 116.8148,50.2609 C115.8948,50.2609 115.5478,50.3119 115.1628,50.5089 C114.7108,50.7389 114.4268,50.7579 111.1658,50.7619 C108.3568,50.7639 107.5938,50.8009 107.3458,50.9429 C107.1018,51.0829 106.4138,51.1209 104.1268,51.1249 C101.3088,51.1289 101.2098,51.1209 100.9318,50.8589 L100.6448,50.5899 L100.3578,50.8589 C100.0868,51.1129 99.9508,51.1289 98.1268,51.1289 C96.3778,51.1289 96.1268,51.1009 95.6218,50.8559 C95.3128,50.7059 95.0598,50.5499 95.0598,50.5089 C95.0598,50.4679 95.3188,50.3079 95.6338,50.1549 C95.9478,50.0019 96.1778,49.8469 96.1428,49.8119 C96.1078,49.7769 95.6258,49.9759 95.0718,50.2549 L94.0658,50.7609 L93.4768,50.4619 C93.1538,50.2979 92.7968,50.0589 92.6858,49.9319 C92.2738,49.4649 91.9578,48.6539 91.9578,48.0679 L91.9578,47.4799 L91.4868,47.9389 C91.0768,48.3399 90.9398,48.3989 90.4238,48.3989 C90.0988,48.3989 89.7098,48.3369 89.5608,48.2599 C89.3808,48.1669 89.4458,48.2829 89.7548,48.6059 L90.2198,49.0919 L89.6258,49.6759 C89.2998,49.9979 88.9358,50.2609 88.8178,50.2609 C88.4988,50.2609 86.1148,51.4779 85.7348,51.8359 C85.4638,52.0899 85.3618,52.1199 85.1538,52.0089 C84.7268,51.7809 84.6358,51.8509 84.6358,52.4129 C84.6358,52.9219 84.6078,52.9659 84.1438,53.1749 C83.8718,53.2979 83.5508,53.5069 83.4298,53.6409 C83.3088,53.7759 82.9858,53.9979 82.7128,54.1349 C82.4398,54.2709 82.0958,54.4939 81.9478,54.6289 C81.7348,54.8239 81.6308,54.8469 81.4298,54.7379 C81.0338,54.5269 81.0158,54.5709 81.2778,55.0849 L81.5238,55.5659 L80.6878,56.3569 C80.2278,56.7919 79.6728,57.2429 79.4528,57.3579 C79.2338,57.4739 78.9638,57.7589 78.8538,57.9889 C78.6978,58.3139 78.4458,58.5129 77.7338,58.8639 C76.9998,59.2269 76.7708,59.4099 76.6008,59.7659 C76.4328,60.1179 76.1998,60.3069 75.5168,60.6479 C75.0378,60.8879 74.5068,61.2099 74.3358,61.3649 C74.1388,61.5449 73.8098,61.6699 73.4318,61.7099 C73.1048,61.7439 72.7408,61.8519 72.6248,61.9519 C72.2578,62.2629 71.3128,62.5459 70.6408,62.5459 L69.9928,62.5459 L69.9928,63.2259 L69.9928,63.9069 L69.3958,64.2099 C69.0678,64.3759 68.7258,64.5999 68.6358,64.7079 C68.4178,64.9709 67.4728,64.9709 67.2548,64.7079 C67.1648,64.5999 66.8248,64.3769 66.4988,64.2119 C65.7448,63.8299 64.7058,63.8089 63.9298,64.1619 C63.6318,64.2969 63.1968,64.4069 62.9628,64.4069 C62.7288,64.4069 62.3188,64.5189 62.0508,64.6549 C61.7828,64.7919 61.3728,64.9029 61.1388,64.9029 C60.9038,64.9029 60.4698,65.0139 60.1718,65.1489 C59.8738,65.2839 59.4068,65.3969 59.1348,65.4009 C58.8618,65.4059 58.4988,65.4889 58.3278,65.5859 C58.0958,65.7189 57.5218,65.7639 56.0488,65.7669 C54.1158,65.7719 54.0738,65.7659 53.6918,65.4529 C53.1458,65.0059 52.5278,64.5919 51.8748,64.2369 C51.5688,64.0699 51.1238,63.7319 50.8888,63.4879 C50.5438,63.1289 50.3688,63.0419 49.9868,63.0419 C49.6908,63.0419 49.1858,62.8789 48.6488,62.6079 C47.8188,62.1889 47.7358,62.1739 46.4128,62.1739 C45.2848,62.1739 44.9528,62.1299 44.5538,61.9259 C44.2258,61.7589 43.8218,61.6779 43.3178,61.6779 L42.5688,61.6779 L42.5688,61.0719 C42.5688,60.6719 42.6348,60.4119 42.7638,60.3049 C42.8708,60.2149 43.0908,59.8869 43.2508,59.5749 C43.4098,59.2639 43.9418,58.6179 44.4298,58.1399 C45.7268,56.8709 45.7948,56.6969 45.7948,54.6469 C45.7948,53.0679 45.7748,52.9239 45.5238,52.6559 C45.2618,52.3779 45.2598,52.3539 45.4608,51.9319 L45.6688,51.4969 L45.2358,51.2899 C44.8688,51.1149 44.8018,51.0189 44.8018,50.6719 C44.8018,50.4199 44.7398,50.2609 44.6428,50.2609 C44.4198,50.2609 43.1328,48.9179 42.8888,48.4309 C42.7278,48.1099 42.6098,48.0269 42.3138,48.0269 C42.1098,48.0269 41.4978,47.8039 40.9548,47.5299 C40.4118,47.2579 39.8378,47.0339 39.6788,47.0339 C39.5118,47.0339 39.2128,46.8509 38.9698,46.5989 C38.6468,46.2659 38.4468,46.1659 38.1138,46.1659 C37.8138,46.1659 37.5738,46.0639 37.3378,45.8379 L36.9958,45.5109 L37.2378,45.0359 C37.3708,44.7749 37.4808,44.3459 37.4808,44.0799 C37.4808,43.7469 37.5618,43.5249 37.7418,43.3609 C38.0508,43.0829 38.7828,41.6669 39.1108,40.7169 C39.4488,39.7319 39.4398,37.4129 39.0938,36.7339 C38.9358,36.4249 38.8448,36.0029 38.8448,35.5749 C38.8448,35.1149 38.7828,34.8519 38.6508,34.7409 C38.5428,34.6519 38.3518,34.3759 38.2248,34.1279 C38.0418,33.7699 37.8168,33.5949 37.1388,33.2819 C36.2238,32.8609 35.6238,32.3549 35.8628,32.2069 C35.9408,32.1599 36.0788,32.1499 36.1718,32.1849 C36.2758,32.2249 36.3988,32.1089 36.4908,31.8869 L36.6418,31.5219 L43.1728,31.5169 C49.2918,31.5129 49.7308,31.4969 50.1368,31.2809 C50.5588,31.0559 50.5798,31.0559 51.0308,31.2869 C51.4818,31.5159 52.3828,31.5219 87.7018,31.5239 C123.2998,31.5259 123.9278,31.5309 124.8428,31.7699 C125.7218,32.0009 126.2188,32.0139 133.7778,32.0149 C138.7488,32.0149 145.0718,31.9229 150.4678,31.7699 C161.3048,31.4649 164.1298,31.4629 166.6618,31.7619 C168.5398,31.9819 168.6138,31.9819 169.7678,31.7529 C170.9248,31.5209 170.9728,31.5209 172.0828,31.7489 C173.1238,31.9629 173.3108,31.9679 174.3758,31.8059 C175.0138,31.7089 176.0088,31.5919 176.5888,31.5449 L177.6428,31.4599 L178.0968,28.2959 L178.5508,25.1319 L179.6628,22.2769 C181.6518,17.1739 182.0738,16.5319 185.3388,13.6739 C188.3748,11.0149 190.9078,9.1229 192.1048,8.6179 C194.4438,7.6319 195.3918,7.3459 197.1678,7.0869 C199.3788,6.7639 200.2088,6.7629 202.3308,7.0739 L204.0118,7.3209 L206.7418,8.6869 C208.4298,9.5319 209.6168,10.0539 209.8518,10.0539 C210.5398,10.0539 211.8648,9.6529 214.2188,8.7329 C217.5438,7.4329 219.9708,6.1669 225.3518,2.9239 C229.3398,0.5189 230.4678,0.2079 233.4098,0.6979 C234.3638,0.8569 235.0198,1.0799 236.6768,1.8109 C238.3618,2.5539 238.9788,2.7629 239.9658,2.9239 C241.2688,3.1379 242.5118,3.4929 243.2548,3.8659 C243.8648,4.1729 245.7448,4.1719 247.2178,3.8629 C248.2538,3.6459 248.3438,3.6459 249.8228,3.8649 C250.6668,3.9889 252.0318,4.0929 252.8578,4.0949 C254.6658,4.0979 254.9448,4.1809 257.6228,5.5229 C260.4308,6.9299 262.3168,8.0329 263.0218,8.6819 C263.3628,8.9969 264.1468,9.5509 264.7628,9.9129 C266.3678,10.8569 266.5028,11.0819 268.3128,15.8229 L269.1638,18.0549 L269.1638,19.6429 C269.1638,20.9719 269.2028,21.3079 269.4038,21.6929 C269.5348,21.9459 270.4428,22.9439 271.4198,23.9109 C273.0698,25.5419 273.2888,25.7139 274.4668,26.2999 C275.1648,26.6459 275.8538,26.9309 275.9968,26.9309 C276.1398,26.9309 276.7718,27.2379 277.4008,27.6129 C278.4538,28.2419 278.6048,28.2959 279.3048,28.2959 C280.0548,28.2959 280.0888,28.2799 281.7528,27.1799 C282.6808,26.5649 283.8748,25.8439 284.4058,25.5769 C284.9378,25.3089 285.4418,25.0079 285.5268,24.9049 C285.7868,24.5919 288.1198,23.7359 289.9748,23.2739 C291.6808,22.8489 291.8118,22.8359 294.0868,22.8359 C297.1688,22.8359 298.2558,23.0459 300.1898,24.0149 C300.9468,24.3949 301.9128,24.8329 302.3358,24.9869 C304.0738,25.6209 306.7518,27.8159 308.3098,29.8839 C308.8368,30.5839 309.0138,31.0149 310.0198,34.0409 L311.1408,37.4169 L312.1558,38.4719 C312.7148,39.0519 313.2428,39.7029 313.3288,39.9189 C313.4268,40.1619 313.6358,40.3729 313.8768,40.4729 C314.0918,40.5619 314.9218,41.1799 315.7208,41.8449 C317.0068,42.9159 317.4468,43.1909 319.5698,44.2529 C320.8878,44.9129 322.1898,45.6049 322.4628,45.7929 C323.3978,46.4339 327.5498,48.4349 328.4188,48.6639 C329.0058,48.8169 329.7338,48.8909 330.6618,48.8929 L332.0358,48.8949 L336.3098,47.5469 C338.8398,46.7479 340.9868,45.9949 341.5748,45.6989 C342.1248,45.4229 343.1688,44.7099 343.9168,44.0999 C345.8368,42.5349 346.0388,42.3989 348.5288,41.0079 C350.6718,39.8099 350.8488,39.7349 352.6088,39.2949 C353.8868,38.9749 354.6038,38.7269 354.9598,38.4829 C355.8278,37.8889 356.7458,37.4779 357.2108,37.4779 C357.4558,37.4779 358.6918,37.1669 359.9578,36.7859 L362.2598,36.0929 L364.5738,36.3519 C367.8598,36.7219 368.1728,36.7059 370.3008,36.0639 C371.2908,35.7659 372.6238,35.2889 373.2648,35.0049 C373.9048,34.7209 375.1548,34.2389 376.0408,33.9349 C377.3378,33.4919 377.8198,33.3839 378.5078,33.3839 C379.3358,33.3839 379.4318,33.4179 381.5988,34.5029 C383.9448,35.6779 386.8208,37.4079 388.4868,38.6469 C389.0628,39.0759 389.8348,39.8199 390.3428,40.4349 C391.8308,42.2399 392.2768,42.6929 394.0658,44.2189 L395.8028,45.6989 L396.4648,47.0179 C397.0628,48.2079 397.2708,48.4829 398.5928,49.8259 L400.0588,51.3149 L400.2788,52.2739 L400.4998,53.2329 L400.0398,54.3949 C399.7678,55.0839 399.4828,56.1269 399.3408,56.9529 C399.1348,58.1529 399.0028,58.5409 398.3968,59.7329 C397.8178,60.8699 397.4988,61.3199 396.6228,62.2389 C396.0348,62.8549 395.3308,63.6819 395.0578,64.0769 C394.5858,64.7589 394.4688,64.8409 392.6998,65.7349 C391.4918,66.3469 390.0768,66.9319 388.6708,67.4029 L386.5028,68.1299 L383.3028,68.1299 L380.1018,68.1299 L377.9008,69.2289 C374.6428,70.8549 371.8588,71.7279 369.9318,71.7279 C369.1948,71.7279 368.4448,71.8169 367.8088,71.9789 L366.8268,72.2299 L366.3348,71.9789 C365.9728,71.7949 365.6068,71.7289 364.9388,71.7309 C363.5508,71.7359 361.0338,72.1549 359.6278,72.6159 C358.0758,73.1249 358.1018,73.0859 357.4658,75.9479 L357.0108,77.9959 L356.3028,78.7189 C355.5548,79.4839 355.0378,79.8049 353.9388,80.1819 C353.3488,80.3859 352.8668,80.4159 350.2088,80.4179 C348.2238,80.4189 346.1818,80.5049 344.3648,80.6639 C342.8298,80.7979 341.4868,80.9079 341.3828,80.9099 C341.2788,80.9109 340.5578,80.3839 339.7808,79.7389 C338.4768,78.6549 338.3018,78.5499 337.4848,78.3569 C336.6598,78.1629 336.5168,78.1629 335.4098,78.3509 C334.7558,78.4629 333.8088,78.5549 333.3058,78.5549 C332.8018,78.5549 331.5248,78.6659 330.4668,78.8029 C329.2628,78.9569 327.8178,79.0509 326.6028,79.0509 C324.0998,79.0509 322.8808,78.8079 320.7438,77.8869 C319.3538,77.2869 318.9738,77.0529 317.6578,75.9859 C316.8328,75.3169 315.7888,74.4839 315.3388,74.1369 C314.8888,73.7879 313.9238,72.8059 313.1948,71.9529 L311.8688,70.4029 L309.7208,70.1809 C308.4518,70.0489 307.1908,69.8419 306.6408,69.6749 C306.1288,69.5189 305.1258,69.2969 304.4128,69.1809 C303.6988,69.0629 302.8118,68.8629 302.4388,68.7349 C302.0668,68.6069 301.5488,68.5029 301.2878,68.5029 C300.8618,68.5029 300.7878,68.4529 300.5698,68.0259 C300.3808,67.6549 300.0698,67.3949 299.1718,66.8569 C298.2028,66.2769 297.9098,66.0209 297.3598,65.2809 C296.9758,64.7649 296.5288,64.3149 296.2838,64.1989 C295.8998,64.0149 295.8018,64.0149 295.0388,64.2069 C294.5838,64.3209 293.6028,64.7209 292.8588,65.0939 L291.5048,65.7719 L289.9678,65.7719 C288.9178,65.7719 288.2628,65.7129 287.9028,65.5859 C287.6118,65.4839 287.1478,65.3999 286.8678,65.3999 C286.4568,65.3999 285.8058,65.1009 283.3788,63.8009 C281.7368,62.9209 279.5328,61.7699 278.4808,61.2439 C277.0488,60.5299 276.2638,60.0439 275.3688,59.3189 C274.3108,58.4619 274.0898,58.2109 273.4478,57.1289 C273.0488,56.4569 272.5618,55.6699 272.3638,55.3799 L272.0068,54.8519 L269.5388,54.8519 C268.0608,54.8519 266.9308,54.7979 266.7218,54.7179 C266.5288,54.6429 265.7818,54.4269 265.0608,54.2359 C263.8148,53.9079 263.6718,53.8349 262.1558,52.7449 C260.3888,51.4729 259.5998,51.1299 258.4418,51.1279 C258.0258,51.1269 257.3778,51.0439 257.0028,50.9429 C256.6168,50.8399 255.7768,50.7599 255.0698,50.7589 C253.8968,50.7569 253.7398,50.7249 252.5978,50.2609 C251.9268,49.9869 251.1718,49.7639 250.9208,49.7639 C250.2518,49.7639 249.1848,49.3579 248.0308,48.6659 C246.7308,47.8849 245.3158,47.1789 243.3648,46.3379 C242.5128,45.9699 241.6718,45.5379 241.4978,45.3779 C241.3228,45.2169 239.7848,44.0929 238.0778,42.8779 C234.4188,40.2729 232.2288,38.4959 231.7418,37.7379 C231.5498,37.4369 231.0198,36.6829 230.5638,36.0629 C230.1088,35.4419 229.3618,34.2789 228.9028,33.4759 L228.0688,32.0179 L227.3648,32.0179 C226.8498,32.0179 226.1488,32.1889 224.7378,32.6589 C222.9698,33.2479 222.6858,33.3859 221.2018,34.3839 C220.3148,34.9789 219.2568,35.7189 218.8508,36.0249 C218.4448,36.3319 218.0498,36.5589 217.9728,36.5299 C217.7888,36.4599 217.2748,36.9819 216.7998,37.7219 C216.5778,38.0669 216.1338,38.5049 215.7388,38.7659 C214.7698,39.4109 214.2788,40.2199 213.7558,42.0369 C213.4298,43.1679 213.3218,43.7799 213.3218,44.4869 C213.3218,45.1849 213.2578,45.5569 213.0728,45.9169 C212.8558,46.3459 212.8248,46.6479 212.8248,48.4579 L212.8248,50.5129 L212.0278,52.0929 C211.5888,52.9619 211.0438,53.9349 210.8178,54.2559 C210.5908,54.5769 209.3298,55.7939 208.0168,56.9599 C206.2908,58.4909 205.4728,59.3089 205.0738,59.9049 C204.5458,60.6909 204.4748,60.7479 203.4918,61.1449 C202.9268,61.3749 201.0388,62.0049 199.2988,62.5449 C197.5588,63.0849 195.8908,63.6129 195.5918,63.7189 C195.1768,63.8659 194.5108,63.9109 192.7638,63.9109 C190.1568,63.9109 190.1538,63.9099 188.5728,62.7329 C188.0908,62.3739 187.3898,61.9819 187.0138,61.8609 C186.6388,61.7409 186.1238,61.5389 185.8708,61.4119 C185.5798,61.2659 185.1458,61.1809 184.6928,61.1809 C183.3758,61.1809 181.9418,60.8199 181.1568,60.2919 C180.5378,59.8749 180.3608,59.8159 179.7258,59.8159 C179.1778,59.8159 178.5058,59.6499 176.9618,59.1339 C175.8408,58.7579 174.7768,58.4509 174.5968,58.4509 C173.4598,58.4509 171.4838,59.6019 168.3768,62.0749 C166.3178,63.7149 165.9238,63.9749 164.8508,64.4119 C163.4018,65.0019 162.7048,65.0389 160.4158,64.6479 C159.2458,64.4489 158.5818,64.2489 157.3618,63.7279 C156.5048,63.3629 155.1078,62.8629 154.2568,62.6189 C152.9538,62.2439 152.5178,62.1739 151.4968,62.1739 C150.2858,62.1739 150.2828,62.1749 148.1108,63.0419 C146.9138,63.5199 145.7508,63.9109 145.5258,63.9109 C145.2988,63.9109 144.0238,64.1309 142.6898,64.3989 L140.2638,64.8879 L138.6648,64.6499 C137.3458,64.4549 135.0258,64.3189 135.0158,64.4379 C135.0148,64.4549 134.9038,66.9539 134.7698,69.9909 C134.6028,73.7639 134.5248,77.5299 134.5238,81.8739 L134.5218,88.2329 L118.2548,88.2329 C102.3388,88.2329 101.9678,88.2279 101.0058,87.9819 L100.0248,87.7319 L99.5318,87.9819 C99.0438,88.2309 98.8758,88.2329 76.2338,88.2319 C55.5158,88.2299 52.9088,88.2079 47.7798,87.9849 C43.1138,87.7819 40.0838,87.7399 30.3378,87.7379 L18.5428,87.7369 L17.2578,88.1699 C16.5508,88.4079 15.8698,88.6949 15.7438,88.8089 C15.5438,88.9909 15.5158,89.2209 15.5158,90.6589 L15.5158,92.3019 L15.1918,92.3829 C15.0138,92.4279 14.5808,92.7329 14.2308,93.0629 C13.8788,93.3919 13.3498,93.7849 13.0528,93.9339 C12.5618,94.1819 12.4938,94.1889 12.2998,94.0139 C12.1038,93.8359 12.0588,93.8479 11.7618,94.1599 L11.4378,94.4999 L11.6608,95.5869 C11.8768,96.6389 11.8768,96.7089 11.6518,97.8199 C11.3678,99.2189 11.2278,99.5779 10.7558,100.1159 C10.4208,100.4969 9.6028,101.0149 9.3348,101.0149 C9.2748,101.0149 9.1268,100.7989 9.0078,100.5349" id="Fill-1" fill="#FFFFFF"></path>
            <path d="M9.0078,100.5349 C8.8098,100.0969 8.6928,100.0149 7.6338,99.5969 C6.5058,99.1499 6.4628,99.1189 5.9698,98.3619 C5.3038,97.3399 5.2908,96.7359 5.8988,94.9339 C6.1368,94.2249 6.3328,93.4739 6.3328,93.2649 C6.3338,93.0569 6.1578,92.4399 5.9438,91.8939 C5.6398,91.1239 5.3908,90.7339 4.8338,90.1569 C4.1868,89.4859 4.0908,89.3159 3.8708,88.4499 C3.6308,87.5029 3.6308,87.4729 3.8618,86.5889 C4.0688,85.7919 4.0948,85.1919 4.0968,81.3349 C4.0988,77.3839 4.0768,76.9169 3.8638,76.2979 C3.4738,75.1619 3.2828,74.9009 2.3088,74.1679 C1.2768,73.3909 0.8718,72.7829 0.8718,72.0079 C0.8718,71.7449 1.0958,70.8659 1.3688,70.0539 C1.6418,69.2409 1.8648,68.4429 1.8648,68.2809 C1.8648,68.1189 1.5578,67.4719 1.1828,66.8439 C0.5948,65.8579 0.4998,65.6119 0.4998,65.0679 C0.4998,64.4819 0.5278,64.4269 0.8768,64.2809 C1.7858,63.9039 1.8648,63.7609 1.8648,62.4699 C1.8648,60.4539 2.3108,59.9539 5.7748,58.0849 C9.1868,56.2429 10.1578,55.2389 11.0008,52.6829 C11.2488,51.9309 11.5628,51.1939 11.6968,51.0459 C11.8318,50.8959 11.9108,50.7239 11.8728,50.6619 C11.7618,50.4829 12.2648,49.6289 12.8278,49.0379 C13.1118,48.7399 13.9868,48.0619 14.7708,47.5309 C15.5558,46.9999 16.6998,46.1689 17.3148,45.6839 C17.9288,45.1999 18.5068,44.8039 18.5988,44.8029 C18.6898,44.8019 18.9068,44.6879 19.0798,44.5529 C19.3188,44.3649 19.5838,44.3039 20.1598,44.3039 C20.8898,44.3039 20.9478,44.3269 21.4098,44.8009 C21.6968,45.0949 22.0108,45.2969 22.1798,45.2969 C22.3978,45.2969 22.4648,45.3669 22.4648,45.5919 C22.4648,45.7539 22.5488,45.9559 22.6518,46.0409 C22.7528,46.1259 22.8368,46.3009 22.8368,46.4289 C22.8368,46.6299 22.9358,46.6619 23.5408,46.6619 C24.0218,46.6619 24.3168,46.5969 24.4718,46.4569 C24.6828,46.2649 24.6978,46.2649 24.6978,46.4569 C24.6978,46.6289 24.8448,46.6619 25.6158,46.6619 C26.3508,46.6619 26.5488,46.7019 26.6118,46.8649 C26.6838,47.0529 26.7058,47.0529 26.9128,46.8649 C27.2658,46.5469 28.1918,46.5949 28.5238,46.9489 C28.6718,47.1069 28.7938,47.3029 28.7938,47.3839 C28.7938,47.4779 29.0288,47.5299 29.4568,47.5299 C29.9628,47.5299 30.1738,47.5899 30.3448,47.7779 C30.5378,47.9929 30.7268,48.0269 31.7138,48.0269 C32.5798,48.0269 32.8958,48.0719 33.0128,48.2129 C33.0978,48.3149 33.3278,48.3989 33.5248,48.3989 C33.7988,48.3989 33.8818,48.4569 33.8818,48.6469 C33.8818,48.7849 33.9638,48.8949 34.0678,48.8949 C34.3188,48.8949 34.3188,49.6809 34.0678,49.8889 C33.9538,49.9819 33.8818,50.2549 33.8818,50.5859 L33.8818,51.1289 L33.3848,51.1289 C33.0268,51.1289 32.8888,51.0769 32.8888,50.9429 C32.8888,50.8209 32.7668,50.7569 32.5348,50.7569 C32.3398,50.7569 32.0818,50.6459 31.9578,50.5089 C31.6638,50.1829 31.1998,50.1829 31.1148,50.5089 C31.0718,50.6729 30.9458,50.7569 30.7438,50.7569 C30.5748,50.7569 30.3668,50.8409 30.2818,50.9429 C30.1948,51.0479 29.9248,51.1289 29.6618,51.1289 C28.8928,51.1289 28.8408,51.3739 29.4798,52.0009 C29.7848,52.3009 30.0338,52.5819 30.0338,52.6259 C30.0338,52.6699 29.8958,52.8559 29.7258,53.0389 C29.4128,53.3769 29.4368,53.4219 29.9728,53.5149 C30.2488,53.5639 30.2668,53.9599 30.0148,54.4459 C29.8898,54.6869 29.9148,54.7579 30.2048,54.9859 C30.3888,55.1309 30.6728,55.5119 30.8358,55.8339 C30.9988,56.1549 31.2198,56.4919 31.3278,56.5809 C31.4428,56.6769 31.5238,56.9359 31.5238,57.2099 C31.5238,57.4829 31.6048,57.7429 31.7198,57.8389 C31.9868,58.0599 32.5168,59.1279 32.5168,59.4449 C32.5168,59.8329 32.8098,60.3169 33.3748,60.8649 C33.8538,61.3279 33.8818,61.3949 33.8818,62.0799 C33.8818,62.5689 33.7978,62.9689 33.6218,63.3109 C33.4798,63.5909 33.3448,64.0189 33.3218,64.2629 C33.2998,64.5069 33.1888,64.7729 33.0758,64.8549 C32.8878,64.9929 32.8918,65.0429 33.1188,65.4899 C33.2558,65.7569 33.4588,66.0519 33.5708,66.1439 C33.6838,66.2379 33.8788,66.5169 34.0058,66.7649 C34.1318,67.0139 34.3268,67.2919 34.4398,67.3859 C34.5518,67.4779 34.7578,67.7819 34.8968,68.0589 C35.1938,68.6539 35.9148,69.4429 36.3878,69.6909 C36.5718,69.7879 36.9688,69.8669 37.2688,69.8669 C37.6558,69.8669 37.8788,69.9389 38.0388,70.1159 C38.2408,70.3399 38.4208,70.3639 39.9008,70.3639 C41.3788,70.3639 41.5588,70.3879 41.7618,70.6119 C41.9368,70.8059 42.1438,70.8599 42.6958,70.8599 C43.0858,70.8599 43.6428,70.9439 43.9328,71.0469 C44.2268,71.1499 44.8838,71.2319 45.4128,71.2319 C46.2718,71.2319 46.4688,71.2819 47.3928,71.7279 C47.9568,72.0019 48.5268,72.2249 48.6578,72.2249 C48.8648,72.2249 48.8968,72.3159 48.8968,72.9079 C48.8968,73.2979 48.9518,73.5909 49.0258,73.5909 C49.0968,73.5909 49.3648,73.4829 49.6228,73.3509 C50.0228,73.1479 50.4018,73.1079 52.1938,73.0839 C53.6488,73.0629 54.3988,73.0029 54.6298,72.8879 C54.8148,72.7969 55.1828,72.7219 55.4478,72.7219 C55.7748,72.7219 56.0048,72.6399 56.1558,72.4729 C56.3078,72.3059 56.5378,72.2249 56.8628,72.2249 C57.1278,72.2249 57.5648,72.1129 57.8318,71.9769 C58.0998,71.8409 58.4588,71.7279 58.6308,71.7279 C59.0768,71.7279 59.4458,72.4899 59.4458,73.4139 C59.4458,73.9539 59.4808,74.0909 59.5998,74.0039 C59.6858,73.9409 59.9618,73.8199 60.2148,73.7339 C60.6028,73.6019 60.7338,73.6079 61.0468,73.7699 C61.5038,74.0069 61.8028,74.0159 61.8028,73.7959 C61.8028,73.7039 61.9198,73.5219 62.0638,73.3919 C62.2068,73.2629 62.4088,72.9889 62.5118,72.7839 C62.8618,72.0919 63.2988,71.7279 63.7868,71.7279 C64.1358,71.7279 64.3278,71.6339 64.6528,71.2989 C65.0568,70.8829 65.1018,70.8679 66.1348,70.8339 C67.0618,70.8029 67.1978,70.7689 67.1838,70.5809 C67.1688,70.4019 67.2708,70.3639 67.7538,70.3639 C68.1838,70.3639 68.4018,70.2969 68.5658,70.1159 C68.7218,69.9429 68.9478,69.8669 69.3058,69.8669 C69.7358,69.8669 69.8908,69.7939 70.2478,69.4179 C70.8338,68.8019 71.5188,68.5089 72.3778,68.5049 C72.7678,68.5039 73.2708,68.4219 73.4938,68.3239 C73.7188,68.2249 74.0448,68.1149 74.2198,68.0789 C74.3948,68.0429 74.7298,67.8739 74.9638,67.7039 C75.9878,66.9629 76.5178,66.7649 77.4778,66.7649 C78.2398,66.7649 78.4308,66.7219 78.6208,66.5129 C78.7458,66.3739 78.9368,66.2709 79.0438,66.2839 C79.5498,66.3439 79.6718,66.1469 79.6718,65.2779 C79.6718,64.6819 79.7268,64.3919 79.8588,64.2829 C79.9628,64.1959 80.0448,63.9259 80.0448,63.6669 C80.0448,63.3619 80.1288,63.1279 80.2928,62.9799 C80.4478,62.8399 80.5408,62.5969 80.5408,62.3359 C80.5408,61.9049 80.9078,61.0509 81.2688,60.6399 C81.3808,60.5139 81.6808,60.3039 81.9358,60.1729 C82.2148,60.0299 82.4928,59.7529 82.6368,59.4719 C82.9248,58.9109 83.2938,58.5609 83.9528,58.2259 C84.2268,58.0879 84.7268,57.6899 85.0658,57.3439 C85.5598,56.8389 85.7628,56.7139 86.0898,56.7139 C86.4088,56.7139 86.4968,56.6619 86.4968,56.4739 C86.4968,56.3389 86.7908,55.9849 87.1798,55.6529 C87.6168,55.2799 87.8618,54.9729 87.8618,54.8019 C87.8618,54.6399 88.1358,54.2639 88.5448,53.8589 C89.1608,53.2509 89.2278,53.1339 89.2278,52.6529 L89.2278,52.1219 L89.8848,52.1219 C90.4198,52.1219 90.6668,52.2009 91.2188,52.5499 C91.5908,52.7849 92.4948,53.2869 93.2278,53.6669 C94.4898,54.3189 94.6078,54.3549 95.4728,54.3549 C96.2288,54.3549 96.4248,54.3979 96.6118,54.6029 C96.7968,54.8089 96.9928,54.8519 97.7518,54.8519 C98.4238,54.8519 98.7988,54.9189 99.1548,55.0999 C99.5228,55.2879 99.8868,55.3479 100.6418,55.3479 C101.5588,55.3479 101.7238,55.3069 102.6088,54.8629 C103.1398,54.5959 103.6478,54.2889 103.7368,54.1809 C103.8358,54.0609 104.0948,53.9829 104.3868,53.9829 C104.6538,53.9829 105.0918,53.8719 105.3598,53.7349 C105.8198,53.5009 106.0908,53.4869 110.1988,53.4869 C114.3078,53.4869 114.5798,53.4729 115.0388,53.2389 C115.3068,53.1019 115.7148,52.9909 115.9458,52.9909 C116.2078,52.9909 116.4498,52.8969 116.5898,52.7419 C116.8958,52.4059 116.9848,52.4279 117.2238,52.8969 C117.3358,53.1189 117.4448,53.3189 117.4638,53.3419 C117.5288,53.4159 118.0718,53.0909 118.4058,52.7789 L118.7338,52.4739 L119.2388,52.7319 C119.6058,52.9199 119.9798,52.9909 120.5938,52.9909 C121.4018,52.9909 121.4638,52.9699 121.8638,52.5559 L122.2848,52.1219 L123.6688,52.1219 L125.0528,52.1219 L125.2778,51.6259 C125.4378,51.2679 125.5758,51.1289 125.7688,51.1289 C125.9158,51.1289 126.2008,50.9569 126.4018,50.7449 C127.2288,49.8739 128.6528,49.4909 129.1238,50.0129 C129.2748,50.1799 129.5058,50.2609 129.8288,50.2609 C130.1308,50.2609 130.6288,50.4219 131.1708,50.6949 C131.6758,50.9489 132.2178,51.1289 132.4768,51.1289 C132.7198,51.1289 133.1398,51.2419 133.4098,51.3799 L133.9018,51.6309 L134.3928,51.3799 C134.7928,51.1759 135.1248,51.1289 136.1768,51.1289 C137.1748,51.1289 137.5048,51.0869 137.6238,50.9429 C137.7448,50.7979 138.0868,50.7569 139.1938,50.7569 C140.5968,50.7569 140.6158,50.7529 141.5958,50.2609 C142.3998,49.8559 142.7158,49.7639 143.2988,49.7599 C143.6928,49.7579 144.1538,49.6759 144.3248,49.5779 C144.4978,49.4789 144.9718,49.3979 145.3918,49.3959 C145.9868,49.3919 146.1958,49.3389 146.3728,49.1429 C146.5598,48.9369 146.7568,48.8949 147.5398,48.8929 C148.6488,48.8909 149.3008,48.5969 149.7418,47.9009 C149.8928,47.6629 150.1528,47.3009 150.3188,47.0969 C150.4848,46.8909 150.7368,46.4949 150.8788,46.2139 C151.0448,45.8869 151.2788,45.6459 151.5328,45.5409 C151.7498,45.4509 152.0898,45.2409 152.2868,45.0749 C152.6128,44.8009 152.6818,44.7879 153.0278,44.9309 C153.2368,45.0169 153.6208,45.2659 153.8808,45.4829 C154.1398,45.6989 154.5208,45.9459 154.7268,46.0319 C154.9528,46.1259 155.1618,46.3419 155.2568,46.5789 C155.3428,46.7959 156.0288,47.5999 156.7808,48.3679 L158.1488,49.7639 L158.8128,49.7639 C159.1818,49.7639 159.6498,49.8529 159.8638,49.9649 C160.2208,50.1489 160.2788,50.1489 160.5908,49.9649 C160.7778,49.8539 161.1238,49.7639 161.3618,49.7639 C161.6018,49.7639 161.8638,49.6779 161.9538,49.5689 C162.0428,49.4619 162.3198,49.2699 162.5678,49.1429 C163.2158,48.8119 163.6538,47.6219 163.8018,45.7929 C163.8428,45.2809 163.9728,44.6829 164.0908,44.4659 C164.2078,44.2469 164.3048,43.8479 164.3048,43.5809 C164.3048,43.3019 164.3828,43.0279 164.4878,42.9399 C164.6978,42.7659 165.4368,41.4499 165.3238,41.4499 C165.2838,41.4499 165.1198,41.5729 164.9598,41.7229 C164.7988,41.8749 164.4038,42.1389 164.0828,42.3129 C163.5488,42.6009 163.4338,42.7539 162.7528,44.0679 C162.3438,44.8599 161.8648,45.6769 161.6898,45.8829 C161.5138,46.0879 161.2978,46.4309 161.2088,46.6449 C161.0598,47.0069 161.0048,47.0339 160.4368,47.0339 C160.0998,47.0339 159.6468,46.9439 159.4278,46.8349 C158.8718,46.5559 157.9998,45.6939 157.7158,45.1439 C157.5848,44.8889 157.2958,44.5899 157.0748,44.4779 C156.8538,44.3659 156.5598,44.1719 156.4208,44.0459 C155.8968,43.5669 155.1878,43.4349 153.1398,43.4349 C151.3468,43.4349 151.1708,43.4149 150.9648,43.1869 C150.6428,42.8309 150.5298,42.8789 150.5298,43.3709 C150.5298,43.7489 150.4688,43.8339 150.0388,44.0539 C149.7688,44.1909 149.3328,44.3039 149.0718,44.3039 C148.6648,44.3039 148.5098,44.3929 147.9818,44.9339 C147.6428,45.2809 147.1428,45.6789 146.8688,45.8179 C146.5968,45.9569 146.0098,46.4149 145.5668,46.8359 C144.5628,47.7869 143.6158,48.1829 141.8438,48.3939 C141.4318,48.4429 140.8048,48.6569 140.2648,48.9329 C139.3918,49.3799 139.3318,49.3909 138.0038,49.3909 C136.9758,49.3909 136.5308,49.4439 136.1968,49.6029 C135.7548,49.8139 135.7518,49.8129 134.8258,49.3549 C134.0038,48.9479 133.7898,48.8949 132.9638,48.8949 C132.2758,48.8949 131.9028,48.8299 131.5438,48.6469 C131.2768,48.5109 130.9298,48.3969 130.7738,48.3939 C130.6168,48.3919 130.3498,48.3099 130.1788,48.2129 C129.9668,48.0919 129.4758,48.0359 128.6268,48.0359 C127.7788,48.0359 127.2878,48.0919 127.0758,48.2129 C126.9048,48.3099 126.5278,48.3919 126.2368,48.3939 C125.8488,48.3979 125.3438,48.5809 124.3458,49.0819 C123.4598,49.5259 122.8308,49.7639 122.5438,49.7639 C122.3008,49.7639 121.8838,49.8759 121.6158,50.0129 C121.0068,50.3229 120.7208,50.3229 119.8168,50.0129 C118.9048,49.6989 118.4868,49.6989 118.2028,50.0129 C118.0098,50.2269 117.8208,50.2609 116.8148,50.2609 C115.8948,50.2609 115.5478,50.3119 115.1628,50.5089 C114.7108,50.7389 114.4268,50.7579 111.1658,50.7619 C108.3568,50.7639 107.5938,50.8009 107.3458,50.9429 C107.1018,51.0829 106.4138,51.1209 104.1268,51.1249 C101.3088,51.1289 101.2098,51.1209 100.9318,50.8589 L100.6448,50.5899 L100.3578,50.8589 C100.0868,51.1129 99.9508,51.1289 98.1268,51.1289 C96.3778,51.1289 96.1268,51.1009 95.6218,50.8559 C95.3128,50.7059 95.0598,50.5499 95.0598,50.5089 C95.0598,50.4679 95.3188,50.3079 95.6338,50.1549 C95.9478,50.0019 96.1778,49.8469 96.1428,49.8119 C96.1078,49.7769 95.6258,49.9759 95.0718,50.2549 L94.0658,50.7609 L93.4768,50.4619 C93.1538,50.2979 92.7968,50.0589 92.6858,49.9319 C92.2738,49.4649 91.9578,48.6539 91.9578,48.0679 L91.9578,47.4799 L91.4868,47.9389 C91.0768,48.3399 90.9398,48.3989 90.4238,48.3989 C90.0988,48.3989 89.7098,48.3369 89.5608,48.2599 C89.3808,48.1669 89.4458,48.2829 89.7548,48.6059 L90.2198,49.0919 L89.6258,49.6759 C89.2998,49.9979 88.9358,50.2609 88.8178,50.2609 C88.4988,50.2609 86.1148,51.4779 85.7348,51.8359 C85.4638,52.0899 85.3618,52.1199 85.1538,52.0089 C84.7268,51.7809 84.6358,51.8509 84.6358,52.4129 C84.6358,52.9219 84.6078,52.9659 84.1438,53.1749 C83.8718,53.2979 83.5508,53.5069 83.4298,53.6409 C83.3088,53.7759 82.9858,53.9979 82.7128,54.1349 C82.4398,54.2709 82.0958,54.4939 81.9478,54.6289 C81.7348,54.8239 81.6308,54.8469 81.4298,54.7379 C81.0338,54.5269 81.0158,54.5709 81.2778,55.0849 L81.5238,55.5659 L80.6878,56.3569 C80.2278,56.7919 79.6728,57.2429 79.4528,57.3579 C79.2338,57.4739 78.9638,57.7589 78.8538,57.9889 C78.6978,58.3139 78.4458,58.5129 77.7338,58.8639 C76.9998,59.2269 76.7708,59.4099 76.6008,59.7659 C76.4328,60.1179 76.1998,60.3069 75.5168,60.6479 C75.0378,60.8879 74.5068,61.2099 74.3358,61.3649 C74.1388,61.5449 73.8098,61.6699 73.4318,61.7099 C73.1048,61.7439 72.7408,61.8519 72.6248,61.9519 C72.2578,62.2629 71.3128,62.5459 70.6408,62.5459 L69.9928,62.5459 L69.9928,63.2259 L69.9928,63.9069 L69.3958,64.2099 C69.0678,64.3759 68.7258,64.5999 68.6358,64.7079 C68.4178,64.9709 67.4728,64.9709 67.2548,64.7079 C67.1648,64.5999 66.8248,64.3769 66.4988,64.2119 C65.7448,63.8299 64.7058,63.8089 63.9298,64.1619 C63.6318,64.2969 63.1968,64.4069 62.9628,64.4069 C62.7288,64.4069 62.3188,64.5189 62.0508,64.6549 C61.7828,64.7919 61.3728,64.9029 61.1388,64.9029 C60.9038,64.9029 60.4698,65.0139 60.1718,65.1489 C59.8738,65.2839 59.4068,65.3969 59.1348,65.4009 C58.8618,65.4059 58.4988,65.4889 58.3278,65.5859 C58.0958,65.7189 57.5218,65.7639 56.0488,65.7669 C54.1158,65.7719 54.0738,65.7659 53.6918,65.4529 C53.1458,65.0059 52.5278,64.5919 51.8748,64.2369 C51.5688,64.0699 51.1238,63.7319 50.8888,63.4879 C50.5438,63.1289 50.3688,63.0419 49.9868,63.0419 C49.6908,63.0419 49.1858,62.8789 48.6488,62.6079 C47.8188,62.1889 47.7358,62.1739 46.4128,62.1739 C45.2848,62.1739 44.9528,62.1299 44.5538,61.9259 C44.2258,61.7589 43.8218,61.6779 43.3178,61.6779 L42.5688,61.6779 L42.5688,61.0719 C42.5688,60.6719 42.6348,60.4119 42.7638,60.3049 C42.8708,60.2149 43.0908,59.8869 43.2508,59.5749 C43.4098,59.2639 43.9418,58.6179 44.4298,58.1399 C45.7268,56.8709 45.7948,56.6969 45.7948,54.6469 C45.7948,53.0679 45.7748,52.9239 45.5238,52.6559 C45.2618,52.3779 45.2598,52.3539 45.4608,51.9319 L45.6688,51.4969 L45.2358,51.2899 C44.8688,51.1149 44.8018,51.0189 44.8018,50.6719 C44.8018,50.4199 44.7398,50.2609 44.6428,50.2609 C44.4198,50.2609 43.1328,48.9179 42.8888,48.4309 C42.7278,48.1099 42.6098,48.0269 42.3138,48.0269 C42.1098,48.0269 41.4978,47.8039 40.9548,47.5299 C40.4118,47.2579 39.8378,47.0339 39.6788,47.0339 C39.5118,47.0339 39.2128,46.8509 38.9698,46.5989 C38.6468,46.2659 38.4468,46.1659 38.1138,46.1659 C37.8138,46.1659 37.5738,46.0639 37.3378,45.8379 L36.9958,45.5109 L37.2378,45.0359 C37.3708,44.7749 37.4808,44.3459 37.4808,44.0799 C37.4808,43.7469 37.5618,43.5249 37.7418,43.3609 C38.0508,43.0829 38.7828,41.6669 39.1108,40.7169 C39.4488,39.7319 39.4398,37.4129 39.0938,36.7339 C38.9358,36.4249 38.8448,36.0029 38.8448,35.5749 C38.8448,35.1149 38.7828,34.8519 38.6508,34.7409 C38.5428,34.6519 38.3518,34.3759 38.2248,34.1279 C38.0418,33.7699 37.8168,33.5949 37.1388,33.2819 C36.2238,32.8609 35.6238,32.3549 35.8628,32.2069 C35.9408,32.1599 36.0788,32.1499 36.1718,32.1849 C36.2758,32.2249 36.3988,32.1089 36.4908,31.8869 L36.6418,31.5219 L43.1728,31.5169 C49.2918,31.5129 49.7308,31.4969 50.1368,31.2809 C50.5588,31.0559 50.5798,31.0559 51.0308,31.2869 C51.4818,31.5159 52.3828,31.5219 87.7018,31.5239 C123.2998,31.5259 123.9278,31.5309 124.8428,31.7699 C125.7218,32.0009 126.2188,32.0139 133.7778,32.0149 C138.7488,32.0149 145.0718,31.9229 150.4678,31.7699 C161.3048,31.4649 164.1298,31.4629 166.6618,31.7619 C168.5398,31.9819 168.6138,31.9819 169.7678,31.7529 C170.9248,31.5209 170.9728,31.5209 172.0828,31.7489 C173.1238,31.9629 173.3108,31.9679 174.3758,31.8059 C175.0138,31.7089 176.0088,31.5919 176.5888,31.5449 L177.6428,31.4599 L178.0968,28.2959 L178.5508,25.1319 L179.6628,22.2769 C181.6518,17.1739 182.0738,16.5319 185.3388,13.6739 C188.3748,11.0149 190.9078,9.1229 192.1048,8.6179 C194.4438,7.6319 195.3918,7.3459 197.1678,7.0869 C199.3788,6.7639 200.2088,6.7629 202.3308,7.0739 L204.0118,7.3209 L206.7418,8.6869 C208.4298,9.5319 209.6168,10.0539 209.8518,10.0539 C210.5398,10.0539 211.8648,9.6529 214.2188,8.7329 C217.5438,7.4329 219.9708,6.1669 225.3518,2.9239 C229.3398,0.5189 230.4678,0.2079 233.4098,0.6979 C234.3638,0.8569 235.0198,1.0799 236.6768,1.8109 C238.3618,2.5539 238.9788,2.7629 239.9658,2.9239 C241.2688,3.1379 242.5118,3.4929 243.2548,3.8659 C243.8648,4.1729 245.7448,4.1719 247.2178,3.8629 C248.2538,3.6459 248.3438,3.6459 249.8228,3.8649 C250.6668,3.9889 252.0318,4.0929 252.8578,4.0949 C254.6658,4.0979 254.9448,4.1809 257.6228,5.5229 C260.4308,6.9299 262.3168,8.0329 263.0218,8.6819 C263.3628,8.9969 264.1468,9.5509 264.7628,9.9129 C266.3678,10.8569 266.5028,11.0819 268.3128,15.8229 L269.1638,18.0549 L269.1638,19.6429 C269.1638,20.9719 269.2028,21.3079 269.4038,21.6929 C269.5348,21.9459 270.4428,22.9439 271.4198,23.9109 C273.0698,25.5419 273.2888,25.7139 274.4668,26.2999 C275.1648,26.6459 275.8538,26.9309 275.9968,26.9309 C276.1398,26.9309 276.7718,27.2379 277.4008,27.6129 C278.4538,28.2419 278.6048,28.2959 279.3048,28.2959 C280.0548,28.2959 280.0888,28.2799 281.7528,27.1799 C282.6808,26.5649 283.8748,25.8439 284.4058,25.5769 C284.9378,25.3089 285.4418,25.0079 285.5268,24.9049 C285.7868,24.5919 288.1198,23.7359 289.9748,23.2739 C291.6808,22.8489 291.8118,22.8359 294.0868,22.8359 C297.1688,22.8359 298.2558,23.0459 300.1898,24.0149 C300.9468,24.3949 301.9128,24.8329 302.3358,24.9869 C304.0738,25.6209 306.7518,27.8159 308.3098,29.8839 C308.8368,30.5839 309.0138,31.0149 310.0198,34.0409 L311.1408,37.4169 L312.1558,38.4719 C312.7148,39.0519 313.2428,39.7029 313.3288,39.9189 C313.4268,40.1619 313.6358,40.3729 313.8768,40.4729 C314.0918,40.5619 314.9218,41.1799 315.7208,41.8449 C317.0068,42.9159 317.4468,43.1909 319.5698,44.2529 C320.8878,44.9129 322.1898,45.6049 322.4628,45.7929 C323.3978,46.4339 327.5498,48.4349 328.4188,48.6639 C329.0058,48.8169 329.7338,48.8909 330.6618,48.8929 L332.0358,48.8949 L336.3098,47.5469 C338.8398,46.7479 340.9868,45.9949 341.5748,45.6989 C342.1248,45.4229 343.1688,44.7099 343.9168,44.0999 C345.8368,42.5349 346.0388,42.3989 348.5288,41.0079 C350.6718,39.8099 350.8488,39.7349 352.6088,39.2949 C353.8868,38.9749 354.6038,38.7269 354.9598,38.4829 C355.8278,37.8889 356.7458,37.4779 357.2108,37.4779 C357.4558,37.4779 358.6918,37.1669 359.9578,36.7859 L362.2598,36.0929 L364.5738,36.3519 C367.8598,36.7219 368.1728,36.7059 370.3008,36.0639 C371.2908,35.7659 372.6238,35.2889 373.2648,35.0049 C373.9048,34.7209 375.1548,34.2389 376.0408,33.9349 C377.3378,33.4919 377.8198,33.3839 378.5078,33.3839 C379.3358,33.3839 379.4318,33.4179 381.5988,34.5029 C383.9448,35.6779 386.8208,37.4079 388.4868,38.6469 C389.0628,39.0759 389.8348,39.8199 390.3428,40.4349 C391.8308,42.2399 392.2768,42.6929 394.0658,44.2189 L395.8028,45.6989 L396.4648,47.0179 C397.0628,48.2079 397.2708,48.4829 398.5928,49.8259 L400.0588,51.3149 L400.2788,52.2739 L400.4998,53.2329 L400.0398,54.3949 C399.7678,55.0839 399.4828,56.1269 399.3408,56.9529 C399.1348,58.1529 399.0028,58.5409 398.3968,59.7329 C397.8178,60.8699 397.4988,61.3199 396.6228,62.2389 C396.0348,62.8549 395.3308,63.6819 395.0578,64.0769 C394.5858,64.7589 394.4688,64.8409 392.6998,65.7349 C391.4918,66.3469 390.0768,66.9319 388.6708,67.4029 L386.5028,68.1299 L383.3028,68.1299 L380.1018,68.1299 L377.9008,69.2289 C374.6428,70.8549 371.8588,71.7279 369.9318,71.7279 C369.1948,71.7279 368.4448,71.8169 367.8088,71.9789 L366.8268,72.2299 L366.3348,71.9789 C365.9728,71.7949 365.6068,71.7289 364.9388,71.7309 C363.5508,71.7359 361.0338,72.1549 359.6278,72.6159 C358.0758,73.1249 358.1018,73.0859 357.4658,75.9479 L357.0108,77.9959 L356.3028,78.7189 C355.5548,79.4839 355.0378,79.8049 353.9388,80.1819 C353.3488,80.3859 352.8668,80.4159 350.2088,80.4179 C348.2238,80.4189 346.1818,80.5049 344.3648,80.6639 C342.8298,80.7979 341.4868,80.9079 341.3828,80.9099 C341.2788,80.9109 340.5578,80.3839 339.7808,79.7389 C338.4768,78.6549 338.3018,78.5499 337.4848,78.3569 C336.6598,78.1629 336.5168,78.1629 335.4098,78.3509 C334.7558,78.4629 333.8088,78.5549 333.3058,78.5549 C332.8018,78.5549 331.5248,78.6659 330.4668,78.8029 C329.2628,78.9569 327.8178,79.0509 326.6028,79.0509 C324.0998,79.0509 322.8808,78.8079 320.7438,77.8869 C319.3538,77.2869 318.9738,77.0529 317.6578,75.9859 C316.8328,75.3169 315.7888,74.4839 315.3388,74.1369 C314.8888,73.7879 313.9238,72.8059 313.1948,71.9529 L311.8688,70.4029 L309.7208,70.1809 C308.4518,70.0489 307.1908,69.8419 306.6408,69.6749 C306.1288,69.5189 305.1258,69.2969 304.4128,69.1809 C303.6988,69.0629 302.8118,68.8629 302.4388,68.7349 C302.0668,68.6069 301.5488,68.5029 301.2878,68.5029 C300.8618,68.5029 300.7878,68.4529 300.5698,68.0259 C300.3808,67.6549 300.0698,67.3949 299.1718,66.8569 C298.2028,66.2769 297.9098,66.0209 297.3598,65.2809 C296.9758,64.7649 296.5288,64.3149 296.2838,64.1989 C295.8998,64.0149 295.8018,64.0149 295.0388,64.2069 C294.5838,64.3209 293.6028,64.7209 292.8588,65.0939 L291.5048,65.7719 L289.9678,65.7719 C288.9178,65.7719 288.2628,65.7129 287.9028,65.5859 C287.6118,65.4839 287.1478,65.3999 286.8678,65.3999 C286.4568,65.3999 285.8058,65.1009 283.3788,63.8009 C281.7368,62.9209 279.5328,61.7699 278.4808,61.2439 C277.0488,60.5299 276.2638,60.0439 275.3688,59.3189 C274.3108,58.4619 274.0898,58.2109 273.4478,57.1289 C273.0488,56.4569 272.5618,55.6699 272.3638,55.3799 L272.0068,54.8519 L269.5388,54.8519 C268.0608,54.8519 266.9308,54.7979 266.7218,54.7179 C266.5288,54.6429 265.7818,54.4269 265.0608,54.2359 C263.8148,53.9079 263.6718,53.8349 262.1558,52.7449 C260.3888,51.4729 259.5998,51.1299 258.4418,51.1279 C258.0258,51.1269 257.3778,51.0439 257.0028,50.9429 C256.6168,50.8399 255.7768,50.7599 255.0698,50.7589 C253.8968,50.7569 253.7398,50.7249 252.5978,50.2609 C251.9268,49.9869 251.1718,49.7639 250.9208,49.7639 C250.2518,49.7639 249.1848,49.3579 248.0308,48.6659 C246.7308,47.8849 245.3158,47.1789 243.3648,46.3379 C242.5128,45.9699 241.6718,45.5379 241.4978,45.3779 C241.3228,45.2169 239.7848,44.0929 238.0778,42.8779 C234.4188,40.2729 232.2288,38.4959 231.7418,37.7379 C231.5498,37.4369 231.0198,36.6829 230.5638,36.0629 C230.1088,35.4419 229.3618,34.2789 228.9028,33.4759 L228.0688,32.0179 L227.3648,32.0179 C226.8498,32.0179 226.1488,32.1889 224.7378,32.6589 C222.9698,33.2479 222.6858,33.3859 221.2018,34.3839 C220.3148,34.9789 219.2568,35.7189 218.8508,36.0249 C218.4448,36.3319 218.0498,36.5589 217.9728,36.5299 C217.7888,36.4599 217.2748,36.9819 216.7998,37.7219 C216.5778,38.0669 216.1338,38.5049 215.7388,38.7659 C214.7698,39.4109 214.2788,40.2199 213.7558,42.0369 C213.4298,43.1679 213.3218,43.7799 213.3218,44.4869 C213.3218,45.1849 213.2578,45.5569 213.0728,45.9169 C212.8558,46.3459 212.8248,46.6479 212.8248,48.4579 L212.8248,50.5129 L212.0278,52.0929 C211.5888,52.9619 211.0438,53.9349 210.8178,54.2559 C210.5908,54.5769 209.3298,55.7939 208.0168,56.9599 C206.2908,58.4909 205.4728,59.3089 205.0738,59.9049 C204.5458,60.6909 204.4748,60.7479 203.4918,61.1449 C202.9268,61.3749 201.0388,62.0049 199.2988,62.5449 C197.5588,63.0849 195.8908,63.6129 195.5918,63.7189 C195.1768,63.8659 194.5108,63.9109 192.7638,63.9109 C190.1568,63.9109 190.1538,63.9099 188.5728,62.7329 C188.0908,62.3739 187.3898,61.9819 187.0138,61.8609 C186.6388,61.7409 186.1238,61.5389 185.8708,61.4119 C185.5798,61.2659 185.1458,61.1809 184.6928,61.1809 C183.3758,61.1809 181.9418,60.8199 181.1568,60.2919 C180.5378,59.8749 180.3608,59.8159 179.7258,59.8159 C179.1778,59.8159 178.5058,59.6499 176.9618,59.1339 C175.8408,58.7579 174.7768,58.4509 174.5968,58.4509 C173.4598,58.4509 171.4838,59.6019 168.3768,62.0749 C166.3178,63.7149 165.9238,63.9749 164.8508,64.4119 C163.4018,65.0019 162.7048,65.0389 160.4158,64.6479 C159.2458,64.4489 158.5818,64.2489 157.3618,63.7279 C156.5048,63.3629 155.1078,62.8629 154.2568,62.6189 C152.9538,62.2439 152.5178,62.1739 151.4968,62.1739 C150.2858,62.1739 150.2828,62.1749 148.1108,63.0419 C146.9138,63.5199 145.7508,63.9109 145.5258,63.9109 C145.2988,63.9109 144.0238,64.1309 142.6898,64.3989 L140.2638,64.8879 L138.6648,64.6499 C137.3458,64.4549 135.0258,64.3189 135.0158,64.4379 C135.0148,64.4549 134.9038,66.9539 134.7698,69.9909 C134.6028,73.7639 134.5248,77.5299 134.5238,81.8739 L134.5218,88.2329 L118.2548,88.2329 C102.3388,88.2329 101.9678,88.2279 101.0058,87.9819 L100.0248,87.7319 L99.5318,87.9819 C99.0438,88.2309 98.8758,88.2329 76.2338,88.2319 C55.5158,88.2299 52.9088,88.2079 47.7798,87.9849 C43.1138,87.7819 40.0838,87.7399 30.3378,87.7379 L18.5428,87.7369 L17.2578,88.1699 C16.5508,88.4079 15.8698,88.6949 15.7438,88.8089 C15.5438,88.9909 15.5158,89.2209 15.5158,90.6589 L15.5158,92.3019 L15.1918,92.3829 C15.0138,92.4279 14.5808,92.7329 14.2308,93.0629 C13.8788,93.3919 13.3498,93.7849 13.0528,93.9339 C12.5618,94.1819 12.4938,94.1889 12.2998,94.0139 C12.1038,93.8359 12.0588,93.8479 11.7618,94.1599 L11.4378,94.4999 L11.6608,95.5869 C11.8768,96.6389 11.8768,96.7089 11.6518,97.8199 C11.3678,99.2189 11.2278,99.5779 10.7558,100.1159 C10.4208,100.4969 9.6028,101.0149 9.3348,101.0149 C9.2748,101.0149 9.1268,100.7989 9.0078,100.5349 Z" id="Stroke-3" stroke="#E75F52" stroke-linecap="round" stroke-linejoin="round"></path>
        </g>
    </g>
</svg>