<?xml version="1.0" encoding="UTF-8"?>
<svg width="500px" height="10px" viewBox="0 0 500 10" version="1.1" xmlns="http://www.w3.org/2000/svg" xmlns:xlink="http://www.w3.org/1999/xlink">
    <!-- Generator: Sketch 64 (93537) - https://sketch.com -->
    <title>154</title>
    <desc>Created with Sketch.</desc>
    <defs>
        <polygon id="path-1" points="0.0005 0.907 5.0935 0.907 5.0935 5.9999 0.0005 5.9999"></polygon>
        <polygon id="path-3" points="0.1274 0.907 5.2204 0.907 5.2204 5.9999 0.1274 5.9999"></polygon>
        <polygon id="path-5" points="0.2544 0.907 5.3474 0.907 5.3474 5.9999 0.2544 5.9999"></polygon>
        <polygon id="path-7" points="0.3813 0.907 5.4743 0.907 5.4743 5.9999 0.3813 5.9999"></polygon>
        <polygon id="path-9" points="0.5083 0.907 5.6023 0.907 5.6023 5.9999 0.5083 5.9999"></polygon>
        <polygon id="path-11" points="0.6352 0.907 5.7292 0.907 5.7292 5.9999 0.6352 5.9999"></polygon>
        <polygon id="path-13" points="0.7632 0.907 5.8562 0.907 5.8562 5.9999 0.7632 5.9999"></polygon>
        <polygon id="path-15" points="0.8901 0.907 5.9831 0.907 5.9831 5.9999 0.8901 5.9999"></polygon>
        <polygon id="path-17" points="0.0171 0.907 5.1101 0.907 5.1101 5.9999 0.0171 5.9999"></polygon>
        <polygon id="path-19" points="0.144 0.907 5.237 0.907 5.237 5.9999 0.144 5.9999"></polygon>
    </defs>
    <g id="154" stroke="none" stroke-width="1" fill="none" fill-rule="evenodd">
        <g id="Group-31" transform="translate(0.000000, 2.000000)">
            <g id="Group-3" transform="translate(0.000000, 0.093020)">
                <mask id="mask-2" fill="white">
                    <use xlink:href="#path-1"></use>
                </mask>
                <g id="Clip-2"></g>
                <path d="M0.0005,3.4539 C0.0005,2.0469 1.1405,0.9069 2.5465,0.9069 C3.9525,0.9069 5.0935,2.0469 5.0935,3.4539 C5.0935,4.8599 3.9525,5.9999 2.5465,5.9999 C1.1405,5.9999 0.0005,4.8599 0.0005,3.4539" id="Fill-1" fill="#65BDB8" mask="url(#mask-2)"></path>
            </g>
            <g id="Group-6" transform="translate(7.000000, 0.093020)">
                <mask id="mask-4" fill="white">
                    <use xlink:href="#path-3"></use>
                </mask>
                <g id="Clip-5"></g>
                <path d="M0.1274,3.4539 C0.1274,2.0469 1.2674,0.9069 2.6734,0.9069 C4.0804,0.9069 5.2204,2.0469 5.2204,3.4539 C5.2204,4.8599 4.0804,5.9999 2.6734,5.9999 C1.2674,5.9999 0.1274,4.8599 0.1274,3.4539" id="Fill-4" fill="#65BDB8" mask="url(#mask-4)"></path>
            </g>
            <g id="Group-9" transform="translate(14.000000, 0.093020)">
                <mask id="mask-6" fill="white">
                    <use xlink:href="#path-5"></use>
                </mask>
                <g id="Clip-8"></g>
                <path d="M0.2544,3.4539 C0.2544,2.0469 1.3944,0.9069 2.8014,0.9069 C4.2074,0.9069 5.3474,2.0469 5.3474,3.4539 C5.3474,4.8599 4.2074,5.9999 2.8014,5.9999 C1.3944,5.9999 0.2544,4.8599 0.2544,3.4539" id="Fill-7" fill="#65BDB8" mask="url(#mask-6)"></path>
            </g>
            <g id="Group-12" transform="translate(21.000000, 0.093020)">
                <mask id="mask-8" fill="white">
                    <use xlink:href="#path-7"></use>
                </mask>
                <g id="Clip-11"></g>
                <path d="M0.3813,3.4539 C0.3813,2.0469 1.5223,0.9069 2.9283,0.9069 C4.3343,0.9069 5.4743,2.0469 5.4743,3.4539 C5.4743,4.8599 4.3343,5.9999 2.9283,5.9999 C1.5223,5.9999 0.3813,4.8599 0.3813,3.4539" id="Fill-10" fill="#65BDB8" mask="url(#mask-8)"></path>
            </g>
            <g id="Group-15" transform="translate(28.000000, 0.093020)">
                <mask id="mask-10" fill="white">
                    <use xlink:href="#path-9"></use>
                </mask>
                <g id="Clip-14"></g>
                <path d="M0.5083,3.4539 C0.5083,2.0469 1.6493,0.9069 3.0553,0.9069 C4.4613,0.9069 5.6023,2.0469 5.6023,3.4539 C5.6023,4.8599 4.4613,5.9999 3.0553,5.9999 C1.6493,5.9999 0.5083,4.8599 0.5083,3.4539" id="Fill-13" fill="#65BDB8" mask="url(#mask-10)"></path>
            </g>
            <g id="Group-18" transform="translate(35.000000, 0.093020)">
                <mask id="mask-12" fill="white">
                    <use xlink:href="#path-11"></use>
                </mask>
                <g id="Clip-17"></g>
                <path d="M0.6352,3.4539 C0.6352,2.0469 1.7762,0.9069 3.1822,0.9069 C4.5882,0.9069 5.7292,2.0469 5.7292,3.4539 C5.7292,4.8599 4.5882,5.9999 3.1822,5.9999 C1.7762,5.9999 0.6352,4.8599 0.6352,3.4539" id="Fill-16" fill="#65BDB8" mask="url(#mask-12)"></path>
            </g>
            <g id="Group-21" transform="translate(42.000000, 0.093020)">
                <mask id="mask-14" fill="white">
                    <use xlink:href="#path-13"></use>
                </mask>
                <g id="Clip-20"></g>
                <path d="M0.7632,3.4539 C0.7632,2.0469 1.9032,0.9069 3.3092,0.9069 C4.7152,0.9069 5.8562,2.0469 5.8562,3.4539 C5.8562,4.8599 4.7152,5.9999 3.3092,5.9999 C1.9032,5.9999 0.7632,4.8599 0.7632,3.4539" id="Fill-19" fill="#65BDB8" mask="url(#mask-14)"></path>
            </g>
            <g id="Group-24" transform="translate(49.000000, 0.093020)">
                <mask id="mask-16" fill="white">
                    <use xlink:href="#path-15"></use>
                </mask>
                <g id="Clip-23"></g>
                <path d="M0.8901,3.4539 C0.8901,2.0469 2.0301,0.9069 3.4361,0.9069 C4.8431,0.9069 5.9831,2.0469 5.9831,3.4539 C5.9831,4.8599 4.8431,5.9999 3.4361,5.9999 C2.0301,5.9999 0.8901,4.8599 0.8901,3.4539" id="Fill-22" fill="#65BDB8" mask="url(#mask-16)"></path>
            </g>
            <g id="Group-27" transform="translate(57.000000, 0.093020)">
                <mask id="mask-18" fill="white">
                    <use xlink:href="#path-17"></use>
                </mask>
                <g id="Clip-26"></g>
                <path d="M0.0171,3.4539 C0.0171,2.0469 1.1571,0.9069 2.5641,0.9069 C3.9701,0.9069 5.1101,2.0469 5.1101,3.4539 C5.1101,4.8599 3.9701,5.9999 2.5641,5.9999 C1.1571,5.9999 0.0171,4.8599 0.0171,3.4539" id="Fill-25" fill="#65BDB8" mask="url(#mask-18)"></path>
            </g>
            <g id="Group-30" transform="translate(64.000000, 0.093020)">
                <mask id="mask-20" fill="white">
                    <use xlink:href="#path-19"></use>
                </mask>
                <g id="Clip-29"></g>
                <path d="M0.144,3.4539 C0.144,2.0469 1.285,0.9069 2.691,0.9069 C4.097,0.9069 5.237,2.0469 5.237,3.4539 C5.237,4.8599 4.097,5.9999 2.691,5.9999 C1.285,5.9999 0.144,4.8599 0.144,3.4539" id="Fill-28" fill="#65BDB8" mask="url(#mask-20)"></path>
            </g>
        </g>
    </g>
</svg>