<?xml version="1.0" encoding="UTF-8"?>
<svg width="500px" height="10px" viewBox="0 0 500 10" version="1.1" xmlns="http://www.w3.org/2000/svg" xmlns:xlink="http://www.w3.org/1999/xlink">
    <!-- Generator: Sketch 64 (93537) - https://sketch.com -->
    <title>172</title>
    <desc>Created with Sketch.</desc>
    <defs>
        <polygon id="path-1" points="0.1611 0.907 5.254 0.907 5.254 6 0.1611 6"></polygon>
    </defs>
    <g id="172" stroke="none" stroke-width="1" fill="none" fill-rule="evenodd">
        <g id="Group-38" transform="translate(0.000000, 2.000000)">
            <path d="M0,3.54602 C0,2.14002 1.14,1.00002 2.546,1.00002 C3.953,1.00002 5.093,2.14002 5.093,3.54602 C5.093,4.95302 3.953,6.09302 2.546,6.09302 C1.14,6.09302 0,4.95302 0,3.54602" id="Fill-1" fill="#65BDB8"></path>
            <path d="M7.127,3.54602 C7.127,2.14002 8.267,1.00002 9.674,1.00002 C11.08,1.00002 12.22,2.14002 12.22,3.54602 C12.22,4.95302 11.08,6.09302 9.674,6.09302 C8.267,6.09302 7.127,4.95302 7.127,3.54602" id="Fill-3" fill="#65BDB8"></path>
            <path d="M14.2544,3.54602 C14.2544,2.14002 15.3944,1.00002 16.8004,1.00002 C18.2074,1.00002 19.3474,2.14002 19.3474,3.54602 C19.3474,4.95302 18.2074,6.09302 16.8004,6.09302 C15.3944,6.09302 14.2544,4.95302 14.2544,3.54602" id="Fill-5" fill="#65BDB8"></path>
            <path d="M21.3813,3.54602 C21.3813,2.14002 22.5213,1.00002 23.9273,1.00002 C25.3343,1.00002 26.4743,2.14002 26.4743,3.54602 C26.4743,4.95302 25.3343,6.09302 23.9273,6.09302 C22.5213,6.09302 21.3813,4.95302 21.3813,3.54602" id="Fill-7" fill="#65BDB8"></path>
            <path d="M28.5083,3.54602 C28.5083,2.14002 29.6483,1.00002 31.0553,1.00002 C32.4613,1.00002 33.6013,2.14002 33.6013,3.54602 C33.6013,4.95302 32.4613,6.09302 31.0553,6.09302 C29.6483,6.09302 28.5083,4.95302 28.5083,3.54602" id="Fill-9" fill="#65BDB8"></path>
            <path d="M35.6357,3.54602 C35.6357,2.14002 36.7757,1.00002 38.1817,1.00002 C39.5887,1.00002 40.7287,2.14002 40.7287,3.54602 C40.7287,4.95302 39.5887,6.09302 38.1817,6.09302 C36.7757,6.09302 35.6357,4.95302 35.6357,3.54602" id="Fill-11" fill="#65BDB8"></path>
            <path d="M42.7627,3.54602 C42.7627,2.14002 43.9027,1.00002 45.3087,1.00002 C46.7157,1.00002 47.8557,2.14002 47.8557,3.54602 C47.8557,4.95302 46.7157,6.09302 45.3087,6.09302 C43.9027,6.09302 42.7627,4.95302 42.7627,3.54602" id="Fill-13" fill="#65BDB8"></path>
            <path d="M49.8901,3.54602 C49.8901,2.14002 51.0301,1.00002 52.4361,1.00002 C53.8431,1.00002 54.9831,2.14002 54.9831,3.54602 C54.9831,4.95302 53.8431,6.09302 52.4361,6.09302 C51.0301,6.09302 49.8901,4.95302 49.8901,3.54602" id="Fill-15" fill="#65BDB8"></path>
            <path d="M57.0171,3.54602 C57.0171,2.14002 58.1571,1.00002 59.5631,1.00002 C60.9701,1.00002 62.1101,2.14002 62.1101,3.54602 C62.1101,4.95302 60.9701,6.09302 59.5631,6.09302 C58.1571,6.09302 57.0171,4.95302 57.0171,3.54602" id="Fill-17" fill="#65BDB8"></path>
            <path d="M64.144,3.54602 C64.144,2.14002 65.284,1.00002 66.691,1.00002 C68.097,1.00002 69.237,2.14002 69.237,3.54602 C69.237,4.95302 68.097,6.09302 66.691,6.09302 C65.284,6.09302 64.144,4.95302 64.144,3.54602" id="Fill-19" fill="#65BDB8"></path>
            <path d="M71.2715,3.54602 C71.2715,2.14002 72.4115,1.00002 73.8175,1.00002 C75.2245,1.00002 76.3645,2.14002 76.3645,3.54602 C76.3645,4.95302 75.2245,6.09302 73.8175,6.09302 C72.4115,6.09302 71.2715,4.95302 71.2715,3.54602" id="Fill-21" fill="#65BDB8"></path>
            <path d="M78.3984,3.54602 C78.3984,2.14002 79.5384,1.00002 80.9444,1.00002 C82.3514,1.00002 83.4914,2.14002 83.4914,3.54602 C83.4914,4.95302 82.3514,6.09302 80.9444,6.09302 C79.5384,6.09302 78.3984,4.95302 78.3984,3.54602" id="Fill-23" fill="#65BDB8"></path>
            <path d="M85.5254,3.54602 C85.5254,2.14002 86.6654,1.00002 88.0724,1.00002 C89.4784,1.00002 90.6184,2.14002 90.6184,3.54602 C90.6184,4.95302 89.4784,6.09302 88.0724,6.09302 C86.6654,6.09302 85.5254,4.95302 85.5254,3.54602" id="Fill-25" fill="#65BDB8"></path>
            <path d="M92.6528,3.54602 C92.6528,2.14002 93.7928,1.00002 95.1988,1.00002 C96.6058,1.00002 97.7458,2.14002 97.7458,3.54602 C97.7458,4.95302 96.6058,6.09302 95.1988,6.09302 C93.7928,6.09302 92.6528,4.95302 92.6528,3.54602" id="Fill-27" fill="#65BDB8"></path>
            <path d="M99.7798,3.54602 C99.7798,2.14002 100.9198,1.00002 102.3258,1.00002 C103.7328,1.00002 104.8728,2.14002 104.8728,3.54602 C104.8728,4.95302 103.7328,6.09302 102.3258,6.09302 C100.9198,6.09302 99.7798,4.95302 99.7798,3.54602" id="Fill-29" fill="#65BDB8"></path>
            <path d="M106.9072,3.54602 C106.9072,2.14002 108.0472,1.00002 109.4532,1.00002 C110.8602,1.00002 112.0002,2.14002 112.0002,3.54602 C112.0002,4.95302 110.8602,6.09302 109.4532,6.09302 C108.0472,6.09302 106.9072,4.95302 106.9072,3.54602" id="Fill-31" fill="#65BDB8"></path>
            <path d="M114.0342,3.54602 C114.0342,2.14002 115.1742,1.00002 116.5802,1.00002 C117.9872,1.00002 119.1272,2.14002 119.1272,3.54602 C119.1272,4.95302 117.9872,6.09302 116.5802,6.09302 C115.1742,6.09302 114.0342,4.95302 114.0342,3.54602" id="Fill-33" fill="#65BDB8"></path>
            <g id="Group-37" transform="translate(121.000000, 0.093020)">
                <mask id="mask-2" fill="white">
                    <use xlink:href="#path-1"></use>
                </mask>
                <g id="Clip-36"></g>
                <path d="M0.1611,3.453 C0.1611,2.047 1.3011,0.907 2.7081,0.907 C4.1141,0.907 5.2541,2.047 5.2541,3.453 C5.2541,4.86 4.1141,6 2.7081,6 C1.3011,6 0.1611,4.86 0.1611,3.453" id="Fill-35" fill="#65BDB8" mask="url(#mask-2)"></path>
            </g>
        </g>
    </g>
</svg>