<svg id="Livello_1" data-name="Livello 1" xmlns="http://www.w3.org/2000/svg" viewBox="0 0 150 150">
  <g>
    <circle cx="75" cy="75" r="73.1497" style="fill: #e6e7e7"/>
    <g>
      <path d="M77.2894,147.98a.425.425,0,0,1-.3261-.1929C65.53,130.1758,55.2539,103.3917,51.9728,82.6531a.426.426,0,1,1,.8415-.1331c3.2645,20.6334,13.4887,47.2812,24.8634,64.8035a.426.426,0,0,1-.3883.6569Z"/>
      <path d="M77.3388,148.0075a.4264.4264,0,0,1-.4261-.4178c-.3517-18.0018,4.2921-42.16,11.2918-58.7474a.4262.4262,0,0,1,.7855.3311c-6.9587,16.49-11.5747,40.5043-11.2252,58.4a.4263.4263,0,0,1-.4177.4344Z"/>
      <path d="M77.4,147.9828a.4259.4259,0,0,1-.4463-.5364,107.3188,107.3188,0,0,1,18.2841-35.5105.4261.4261,0,0,1,.66.5387A106.3524,106.3524,0,0,0,77.7764,147.67.4268.4268,0,0,1,77.4,147.9828Z"/>
      <path d="M77.4,147.9828a.426.426,0,0,1-.329-.7331c10.0777-9.5856,20.8237-25.2594,26.1324-38.1168a.426.426,0,0,1,.7873.3256c-5.349,12.9554-16.1775,28.7495-26.332,38.4083A.4267.4267,0,0,1,77.4,147.9828Z"/>
      <path d="M52.3785,82.7849a.199.199,0,0,1-.1165-.0493A82.9358,82.9358,0,0,0,25.3742,67.5794a.1988.1988,0,1,1,.1189-.3794,83.372,83.372,0,0,1,27.032,15.2376.1989.1989,0,0,1-.1466.3473Z"/>
      <path d="M52.3788,82.7849a.1981.1981,0,0,1-.142-.076,59.53,59.53,0,0,1-9.6916-19.9227.1989.1989,0,0,1,.386-.0959A59.0755,59.0755,0,0,0,52.55,82.4642a.1989.1989,0,0,1-.1716.3207Z"/>
      <path d="M52.3785,82.7849a.199.199,0,0,1-.1835-.187,80.7337,80.7337,0,0,1,4.55-29.7012.1987.1987,0,1,1,.3716.1407,80.2814,80.2814,0,0,0-4.5244,29.5378.199.199,0,0,1-.1873.21A.2326.2326,0,0,1,52.3785,82.7849Z"/>
      <path d="M52.3785,82.7849a.1989.1989,0,0,1-.1468-.3139A68.7193,68.7193,0,0,0,62.4545,59.0263a.1959.1959,0,0,1,.2346-.1549.1986.1986,0,0,1,.1549.2346A69.17,69.17,0,0,1,52.5555,82.7021.2.2,0,0,1,52.3785,82.7849Z"/>
      <path d="M88.5972,89.2067a.1775.1775,0,0,1-.03-.0025.1987.1987,0,0,1-.1665-.2266,78.8336,78.8336,0,0,0-1.67-29.2877.199.199,0,0,1,.3839-.1049,79.272,79.272,0,0,1,1.6786,29.4531A.1989.1989,0,0,1,88.5972,89.2067Z"/>
      <path d="M95.5847,112.4031a.1985.1985,0,0,1-.1709-.3231A70.4235,70.4235,0,0,1,115.8,95.6082a.1989.1989,0,0,1,.18.3548,69.9747,69.9747,0,0,0-20.2572,16.3675A.2.2,0,0,1,95.5847,112.4031Z"/>
      <path d="M103.6139,109.4936a.1964.1964,0,0,1-.0942-.015.1988.1988,0,0,1-.1051-.2607,80.7669,80.7669,0,0,1,17.2423-24.627.1989.1989,0,0,1,.2713.291A80.3355,80.3355,0,0,0,103.78,109.3735.1978.1978,0,0,1,103.6139,109.4936Z"/>
      <path d="M17.254,67.7189a42.72,42.72,0,0,1-8.771-1.5155.1988.1988,0,0,1,.114-.3809,45.3166,45.3166,0,0,0,16.8113,1.37.1988.1988,0,0,1,.0507.3943A41.88,41.88,0,0,1,17.254,67.7189Z" style="fill: #e75f52"/>
      <g style="opacity: 0">
        <path d="M17.0625,70.3473a45.4567,45.4567,0,0,1-9.3368-1.6134L9.3543,63.292a43.034,43.034,0,0,0,15.7165,1.2806l.7257,5.6341A44.5836,44.5836,0,0,1,17.0625,70.3473Z"/>
      </g>
      <g>
        <circle cx="8.54" cy="66.013" r="1.4201" style="fill: #e75f52"/>
        <path d="M8.4144,67.7125c-.039-.0029-.0779-.0072-.1173-.0126a1.7067,1.7067,0,1,1,.1173.0126ZM8.6228,64.88a1.14,1.14,0,1,0,.0792.0087C8.6756,64.8847,8.6491,64.8818,8.6228,64.88Z" style="fill: #e7e5f1"/>
      </g>
      <g style="opacity: 0">
        <path d="M8.2773,69.6109q-.1258-.0095-.2516-.0277a3.5914,3.5914,0,1,1,.2516.0277Zm.4964-6.7991a3.2156,3.2156,0,1,0,.2241.0245C8.9229,62.8254,8.8484,62.8173,8.7737,62.8118Z" style="fill: #e75f52"/>
      </g>
      <path d="M25.4189,67.588a.1975.1975,0,0,1-.1186-.0509A56.76,56.76,0,0,1,12.93,50.4113a.1988.1988,0,1,1,.3636-.1609A56.3159,56.3159,0,0,0,25.567,67.2422a.1989.1989,0,0,1-.1481.3458Z" style="fill: #e75f52"/>
      <g style="opacity: 0">
        <path d="M23.5274,69.4951A59.7093,59.7093,0,0,1,10.514,51.4788l5.1955-2.296A54.2193,54.2193,0,0,0,27.34,65.2842Z"/>
      </g>
      <g>
        <circle cx="13.1118" cy="50.3309" r="1.4201" style="fill: #e75f52"/>
        <path d="M12.9875,52.0305c-.04-.003-.079-.0073-.1187-.0128a1.7069,1.7069,0,1,1,.1187.0128Zm.2073-2.8327a1.1359,1.1359,0,1,0,.0792.0086C13.2476,49.2025,13.2211,49.2,13.1948,49.1978Z" style="fill: #e7e5f1"/>
      </g>
      <g style="opacity: 0">
        <path d="M12.8462,53.9282q-.124-.0091-.2488-.0271a3.6066,3.6066,0,1,1,.2488.0271Zm.5-6.7986a3.212,3.212,0,1,0,.2241.0245C13.4949,47.1433,13.42,47.1352,13.3457,47.13Z" style="fill: #e75f52"/>
      </g>
      <g>
        <path d="M88.5972,89.2067a.1988.1988,0,0,1-.1414-.3386,82.9528,82.9528,0,0,0,16.666-25.9793.1986.1986,0,1,1,.3717.14A83.3882,83.3882,0,0,1,88.7387,89.1476.1985.1985,0,0,1,88.5972,89.2067Z"/>
        <path d="M105.3076,63.1578a.1984.1984,0,0,1-.198-.1847,45.74,45.74,0,0,1,2.35-16.8694.1988.1988,0,0,1,.3739.1354,45.3226,45.3226,0,0,0-2.3277,16.7057.1983.1983,0,0,1-.1842.2125Z" style="fill: #e75f52"/>
        <g style="opacity: 0">
          <path d="M102.4746,63.1606a48.6984,48.6984,0,0,1,2.5019-17.9575l5.34,1.9366a43.0377,43.0377,0,0,0-2.1757,15.6176Z"/>
        </g>
        <g>
          <circle cx="107.6462" cy="46.1715" r="1.4201" style="fill: #e75f52"/>
          <path d="M107.65,47.8761a1.73,1.73,0,0,1-.3429-.0344,1.7041,1.7041,0,1,1,2.0093-1.3311h0a1.7055,1.7055,0,0,1-1.6664,1.3655Zm-.0062-2.8411a1.1366,1.1366,0,1,0,1.1156,1.3625h0a1.1349,1.1349,0,0,0-.887-1.3392A1.1442,1.1442,0,0,0,107.6436,45.035Z" style="fill: #e7e5f1"/>
        </g>
        <g style="opacity: 0">
          <path d="M107.6536,49.78a3.6324,3.6324,0,0,1-.7245-.0732,3.5881,3.5881,0,1,1,.7245.0732Zm-.0144-6.8186a3.2177,3.2177,0,1,0,.6452.0649A3.2509,3.2509,0,0,0,107.6392,42.9611Z" style="fill: #e75f52"/>
        </g>
        <path d="M105.3076,63.1578a.1991.1991,0,0,1-.14-.3406,56.7667,56.7667,0,0,1,17.8039-11.3727.1988.1988,0,1,1,.14.3722,56.3115,56.3115,0,0,0-17.6641,11.284A.1993.1993,0,0,1,105.3076,63.1578Z" style="fill: #e75f52"/>
        <g style="opacity: 0">
          <path d="M107.3008,64.9824l-3.9863-4.0469a59.7158,59.7158,0,0,1,18.7291-11.964L124.04,54.29A54.21,54.21,0,0,0,107.3008,64.9824Z"/>
        </g>
        <g>
          <circle cx="123.0418" cy="51.6307" r="1.4201" style="fill: #e75f52"/>
          <path d="M123.0421,53.335a1.704,1.704,0,1,1,1.67-1.3652A1.7052,1.7052,0,0,1,123.0421,53.335Zm-.0028-2.8408a1.1362,1.1362,0,1,0,1.1156,1.3625h0a1.1351,1.1351,0,0,0-.887-1.3392A1.1442,1.1442,0,0,0,123.0393,50.4942Z" style="fill: #e7e5f1"/>
        </g>
        <g style="opacity: 0">
          <path d="M123.0493,55.2389a3.6317,3.6317,0,0,1-.7245-.0732,3.5881,3.5881,0,1,1,.7245.0732Zm-.0089-6.818a3.2119,3.2119,0,1,0,.64.0643A3.2149,3.2149,0,0,0,123.04,48.4209Z" style="fill: #e75f52"/>
        </g>
      </g>
      <path d="M42.7231,62.9366a.2.2,0,0,1-.1031-.0383,59.3215,59.3215,0,0,0-20.0959-9.1412.1987.1987,0,1,1,.0857-.388,59.7687,59.7687,0,0,1,20.2466,9.2091.199.199,0,0,1-.1333.3584Z" style="fill: #e75f52"/>
      <g style="opacity: 0">
        <path d="M41.0505,65.0228a57.2718,57.2718,0,0,0-19.0962-8.6864L23.18,50.79a62.7139,62.7139,0,0,1,21.2463,9.6639Z"/>
      </g>
      <g>
        <circle cx="22.567" cy="53.5632" r="1.4201" style="fill: #e75f52"/>
        <path d="M22.4427,55.2628c-.04-.003-.079-.0073-.1187-.0128A1.7042,1.7042,0,0,1,20.88,53.32a1.7144,1.7144,0,0,1,1.93-1.4437,1.7042,1.7042,0,0,1-.3674,3.3865ZM22.65,52.43a1.1373,1.1373,0,1,0,.0792.0087C22.7028,52.4348,22.6763,52.432,22.65,52.43Z" style="fill: #e7e5f1"/>
      </g>
      <g style="opacity: 0">
        <path d="M22.3042,57.161q-.1257-.0093-.2516-.0276a3.5956,3.5956,0,1,1,.2516.0276Zm.4967-6.799a3.2109,3.2109,0,1,0,.224.0244C22.95,50.3756,22.8756,50.3675,22.8009,50.362Z" style="fill: #e75f52"/>
      </g>
      <path d="M42.7234,62.9366a.1986.1986,0,0,1-.1506-.088A49.184,49.184,0,0,0,29.4646,50.0751a.1988.1988,0,1,1,.212-.3363A49.625,49.625,0,0,1,42.9035,62.6279a.1989.1989,0,0,1-.18.3087Z" style="fill: #e75f52"/>
      <g style="opacity: 0">
        <path d="M40.3762,64.3158a46.9577,46.9577,0,0,0-12.3215-12.007l3.0317-4.8037A52.5779,52.5779,0,0,1,45.1,61.1607Z"/>
      </g>
      <g>
        <circle cx="29.5707" cy="49.907" r="1.4201" style="fill: #e75f52"/>
        <path d="M29.4463,51.6066q-.0592-.0045-.1186-.0128a1.7066,1.7066,0,1,1,.1186.0128Zm.2082-2.8327a1.138,1.138,0,1,0,.0784.0087C29.7067,48.7787,29.6805,48.7759,29.6545,48.7739Z" style="fill: #e7e5f1"/>
      </g>
      <g style="opacity: 0">
        <path d="M29.3078,53.5048q-.1257-.0093-.2516-.0276a3.5951,3.5951,0,1,1,.2516.0276Zm.4968-6.799a3.2122,3.2122,0,1,0,.224.0245C29.9538,46.7194,29.8793,46.7113,29.8046,46.7058Z" style="fill: #e75f52"/>
      </g>
      <path d="M42.7234,62.9366a.1985.1985,0,0,1-.1421-.076,51.78,51.78,0,0,1-8.4295-17.3287.1989.1989,0,0,1,.386-.0958,51.3276,51.3276,0,0,0,8.3572,17.18.1989.1989,0,0,1-.1716.3207Z" style="fill: #e75f52"/>
      <g style="opacity: 0">
        <path d="M40.4982,64.4845a54.7238,54.7238,0,0,1-8.91-18.3163L37.1013,44.8A49.1522,49.1522,0,0,0,44.9781,60.992Z"/>
      </g>
      <g>
        <circle cx="34.3447" cy="45.484" r="1.4201" style="fill: #e75f52"/>
        <path d="M34.22,47.1836c-.04-.003-.079-.0073-.1187-.0127a1.7045,1.7045,0,0,1-1.4437-1.93,1.7043,1.7043,0,1,1,3.3738.4861A1.7043,1.7043,0,0,1,34.22,47.1836Zm.2074-2.8327a1.1377,1.1377,0,1,0,.0791.0087C34.48,44.3557,34.4539,44.3529,34.4277,44.3509Z" style="fill: #e7e5f1"/>
      </g>
      <g style="opacity: 0">
        <path d="M34.079,49.0814q-.1241-.0093-.2488-.0272a3.6054,3.6054,0,1,1,.2488.0272Zm.4995-6.7986a3.2156,3.2156,0,1,0,.2241.0245C34.7277,42.2964,34.6532,42.2884,34.5785,42.2828Z" style="fill: #e75f52"/>
      </g>
      <path d="M42.7234,62.9366l-.0056,0a.1989.1989,0,0,1-.1775-.2183,59.9418,59.9418,0,0,0-2.3866-22.1824.1989.1989,0,1,1,.3781-.1237,60.3935,60.3935,0,0,1,2.4043,22.3468A.199.199,0,0,1,42.7234,62.9366Z" style="fill: #e75f52"/>
      <g style="opacity: 0">
        <path d="M45.5636,63.0282l-5.6508-.58a57.9013,57.9013,0,0,0-2.2692-21.09l5.3982-1.7686A63.34,63.34,0,0,1,45.5636,63.0282Z"/>
      </g>
      <g>
        <circle cx="40.3427" cy="40.4736" r="1.4201" style="fill: #e75f52"/>
        <path d="M40.2171,42.1732c-.039-.003-.0779-.0072-.1173-.0127a1.7052,1.7052,0,1,1,.1173.0127Zm.2093-2.8326a1.1361,1.1361,0,0,0-.2457,2.2574,1.1361,1.1361,0,0,0,1.0717-1.805,1.129,1.129,0,0,0-.7476-.4438C40.4786,39.3453,40.4524,39.3425,40.4264,39.3406Z" style="fill: #e7e5f1"/>
      </g>
      <g style="opacity: 0">
        <path d="M40.08,44.0715q-.1257-.0093-.2516-.0276a3.5948,3.5948,0,1,1,.2516.0276Zm.4965-6.7991a3.2159,3.2159,0,1,0,.224.0245C40.7256,37.2861,40.6512,37.278,40.5765,37.2724Z" style="fill: #e75f52"/>
      </g>
      <path d="M42.7231,62.9366a.1989.1989,0,0,1-.1837-.204,49.2894,49.2894,0,0,1,4.3323-17.8264.1987.1987,0,0,1,.3582.1719,48.8563,48.8563,0,0,0-4.293,17.6658.1988.1988,0,0,1-.2044.1931Z" style="fill: #e75f52"/>
      <g style="opacity: 0">
        <path d="M39.8992,62.6562a52.2417,52.2417,0,0,1,4.5915-18.8938l5.12,2.46A46.6313,46.6313,0,0,0,45.5771,62.82Z"/>
      </g>
      <g>
        <circle cx="47.0508" cy="44.9923" r="1.4201" style="fill: #e75f52"/>
        <path d="M46.9265,46.6918c-.0395-.0029-.079-.0073-.1186-.0127a1.7043,1.7043,0,1,1,.486-3.3738h0a1.7043,1.7043,0,0,1-.3677,3.3865Zm.2074-2.8327a1.1379,1.1379,0,1,0,.0789.0087C47.1867,43.8639,47.16,43.8611,47.1339,43.8591Z" style="fill: #e7e5f1"/>
      </g>
      <g style="opacity: 0">
        <path d="M46.788,48.59q-.1257-.0095-.2516-.0277a3.6071,3.6071,0,1,1,1.029-7.14h0A3.6073,3.6073,0,0,1,46.788,48.59Zm.5-6.7986a3.2084,3.2084,0,1,0,.221.024Q47.3978,41.8,47.2878,41.7915Z" style="fill: #e75f52"/>
      </g>
      <path d="M56.9163,53.1654a.1988.1988,0,0,1-.161-.1049A62.6111,62.6111,0,0,1,50.316,30.6642a.1988.1988,0,0,1,.3966-.0283,62.1733,62.1733,0,0,0,6.3937,22.2377.1989.1989,0,0,1-.19.2918Z" style="fill: #e75f52"/>
      <g style="opacity: 0">
        <path d="M54.4239,54.3023A65.5676,65.5676,0,0,1,47.681,30.85l5.6666-.4a60.1529,60.1529,0,0,0,6.09,21.1817Z"/>
      </g>
      <g>
        <circle cx="50.5143" cy="30.6501" r="1.4201" style="fill: #e75f52"/>
        <path d="M50.39,32.35c-.04-.003-.079-.0073-.1187-.0127a1.71,1.71,0,1,1,.1187.0127Zm.207-2.8327a1.1393,1.1393,0,1,0,.0792.0087C50.65,29.5218,50.6234,29.5189,50.5971,29.517Z" style="fill: #e7e5f1"/>
      </g>
      <g style="opacity: 0">
        <path d="M50.2488,34.2475Q50.1248,34.2382,50,34.22a3.6054,3.6054,0,1,1,.2489.0272Zm.4992-6.7986a3.2156,3.2156,0,1,0,.2241.0245C50.8972,27.4625,50.8227,27.4544,50.748,27.4489Z" style="fill: #e75f52"/>
      </g>
      <path d="M56.916,53.1654a.199.199,0,0,1-.17-.2711A56.7293,56.7293,0,0,1,68.3873,35.2787a.1987.1987,0,1,1,.2787.2833A56.29,56.29,0,0,0,57.1159,53.04.199.199,0,0,1,56.916,53.1654Z" style="fill: #e75f52"/>
      <g style="opacity: 0">
        <path d="M59.5741,54.0061,54.2875,51.928A59.6873,59.6873,0,0,1,66.5343,33.396l3.9847,4.0487A54.1837,54.1837,0,0,0,59.5741,54.0061Z"/>
      </g>
      <g>
        <circle cx="68.5267" cy="35.4203" r="1.4201" style="fill: #e75f52"/>
        <path d="M68.401,37.12c-.039-.003-.0779-.0073-.1173-.0127a1.7052,1.7052,0,1,1,.1173.0127Zm.2088-2.8326a1.136,1.136,0,1,0,.0791.0086C68.6625,34.292,68.636,34.2892,68.61,34.2873Z" style="fill: #e7e5f1"/>
      </g>
      <g style="opacity: 0">
        <path d="M68.2639,39.0182q-.1257-.0093-.2516-.0276a3.6071,3.6071,0,1,1,1.029-7.14h0a3.6073,3.6073,0,0,1-.7774,7.1681Zm.4967-6.7991a3.2121,3.2121,0,1,0,.2241.0245C68.91,32.2328,68.8353,32.2247,68.7606,32.2191Z" style="fill: #e75f52"/>
      </g>
      <path d="M62.6347,59.2645l-.0181-.0022a.1988.1988,0,0,1-.1635-.2289A62.1134,62.1134,0,0,0,61.4237,35.94a.1988.1988,0,1,1,.3849-.1,62.5575,62.5575,0,0,1,1.0368,23.2589A.199.199,0,0,1,62.6347,59.2645Z" style="fill: #e75f52"/>
      <g style="opacity: 0">
        <path d="M65.451,59.5324,59.8476,58.6a60.0975,60.0975,0,0,0-.9808-21.9964l5.4984-1.4273A65.51,65.51,0,0,1,65.451,59.5324Z"/>
      </g>
      <g>
        <circle cx="61.6159" cy="35.8899" r="1.4201" style="fill: #e75f52"/>
        <path d="M61.49,37.5894a1.7417,1.7417,0,0,1-.252-.0377,1.7042,1.7042,0,1,1,2.04-1.284h0A1.7071,1.7071,0,0,1,61.49,37.5894Zm.2079-2.833a1.1392,1.1392,0,1,0,.17.0258A1.1293,1.1293,0,0,0,61.698,34.7564Z" style="fill: #e7e5f1"/>
      </g>
      <g style="opacity: 0">
        <path d="M61.3551,39.4884a3.6638,3.6638,0,0,1-.5385-.081,3.5924,3.5924,0,1,1,.5385.081Zm.4977-6.8a3.2109,3.2109,0,1,0,.4745.0712A3.2146,3.2146,0,0,0,61.8528,32.6889Z" style="fill: #e75f52"/>
      </g>
      <path d="M86.923,59.8363a.197.197,0,0,1-.1143-.0363A59.8559,59.8559,0,0,1,71.6546,43.4715a.1988.1988,0,1,1,.3412-.2041A59.4116,59.4116,0,0,0,87.0373,59.4749a.1987.1987,0,0,1-.1143.3614Z" style="fill: #e75f52"/>
      <g style="opacity: 0">
        <path d="M85.2882,61.96A62.811,62.811,0,0,1,69.3871,44.8265l4.8762-2.9141A57.3466,57.3466,0,0,0,88.5578,57.3148Z"/>
      </g>
      <g>
        <circle cx="71.8252" cy="43.3694" r="1.4201" style="fill: #e75f52"/>
        <path d="M71.8252,45.0736a1.7042,1.7042,0,1,1,1.7042-1.7042A1.706,1.706,0,0,1,71.8252,45.0736Zm0-2.84a1.1361,1.1361,0,1,0,1.1361,1.1361A1.1373,1.1373,0,0,0,71.8252,42.2333Z" style="fill: #e7e5f1"/>
      </g>
      <g style="opacity: 0">
        <path d="M71.8252,46.9766a3.6072,3.6072,0,1,1,3.6069-3.6072A3.6112,3.6112,0,0,1,71.8252,46.9766Zm0-6.8166a3.2095,3.2095,0,1,0,3.21,3.2094A3.2131,3.2131,0,0,0,71.8252,40.16Z" style="fill: #e75f52"/>
      </g>
      <path d="M86.923,59.8363a.1993.1993,0,0,1-.1952-.1606,47.57,47.57,0,0,0-6.9343-16.2866.1987.1987,0,1,1,.3251-.2285,48.013,48.013,0,0,1,7,16.4386.1988.1988,0,0,1-.157.2332A.1818.1818,0,0,1,86.923,59.8363Z" style="fill: #e75f52"/>
      <g style="opacity: 0">
        <path d="M84.1355,60.1825a45.3108,45.3108,0,0,0-6.5044-15.2759l4.65-3.2635a50.9687,50.9687,0,0,1,7.43,17.4493Z"/>
      </g>
      <g>
        <circle cx="79.9561" cy="43.2748" r="1.4201" style="fill: #e75f52"/>
        <path d="M79.956,44.979A1.7042,1.7042,0,1,1,81.66,43.2748,1.706,1.706,0,0,1,79.956,44.979Zm0-2.84a1.1362,1.1362,0,1,0,1.1362,1.1361A1.1374,1.1374,0,0,0,79.956,42.1387Z" style="fill: #e7e5f1"/>
      </g>
      <g style="opacity: 0">
        <path d="M79.956,46.882a3.6072,3.6072,0,1,1,3.607-3.6072A3.6112,3.6112,0,0,1,79.956,46.882Zm0-6.8166a3.2095,3.2095,0,1,0,3.21,3.2094A3.2134,3.2134,0,0,0,79.956,40.0654Z" style="fill: #e75f52"/>
      </g>
      <path d="M86.923,59.8363a.1766.1766,0,0,1-.03-.0025.1987.1987,0,0,1-.1665-.2266A60.5719,60.5719,0,0,0,85.443,37.1017a.199.199,0,0,1,.3839-.1048,61.0205,61.0205,0,0,1,1.2925,22.6708A.1989.1989,0,0,1,86.923,59.8363Z" style="fill: #e75f52"/>
      <g style="opacity: 0">
        <path d="M89.7306,60.0688l-5.6151-.8627a58.535,58.535,0,0,0-1.22-21.409l5.48-1.4956A63.9768,63.9768,0,0,1,89.7306,60.0688Z"/>
      </g>
      <g>
        <circle cx="85.6351" cy="37.0492" r="1.4201" style="fill: #e75f52"/>
        <path d="M85.6349,38.7534a1.7042,1.7042,0,1,1,1.7042-1.7041A1.706,1.706,0,0,1,85.6349,38.7534Zm0-2.84a1.1361,1.1361,0,1,0,1.1361,1.1361A1.1374,1.1374,0,0,0,85.6349,35.9132Z" style="fill: #e7e5f1"/>
      </g>
      <g style="opacity: 0">
        <path d="M85.6349,40.6565a3.6072,3.6072,0,1,1,3.6069-3.6072A3.6112,3.6112,0,0,1,85.6349,40.6565Zm0-6.8167a3.2095,3.2095,0,1,0,3.21,3.21A3.2135,3.2135,0,0,0,85.6349,33.84Z" style="fill: #e75f52"/>
      </g>
      <path d="M86.923,59.8363a.1968.1968,0,0,1-.0948-.0241.199.199,0,0,1-.08-.27,59.3723,59.3723,0,0,0,6.2879-21.1783.1987.1987,0,1,1,.3961.0316,59.7992,59.7992,0,0,1-6.3345,21.3364A.1989.1989,0,0,1,86.923,59.8363Z" style="fill: #e75f52"/>
      <g style="opacity: 0">
        <path d="M89.4182,60.9941l-4.99-2.7133a57.3083,57.3083,0,0,0,5.9751-20.1254l5.6628.4494A62.76,62.76,0,0,1,89.4182,60.9941Z"/>
      </g>
      <g>
        <circle cx="93.2345" cy="38.38" r="1.4201" style="fill: #e75f52"/>
        <path d="M93.2343,40.0843A1.7042,1.7042,0,1,1,94.9385,38.38,1.7061,1.7061,0,0,1,93.2343,40.0843Zm0-2.84A1.1361,1.1361,0,1,0,94.37,38.38,1.1374,1.1374,0,0,0,93.2343,37.244Z" style="fill: #e7e5f1"/>
      </g>
      <g style="opacity: 0">
        <path d="M93.2343,41.9873A3.6072,3.6072,0,1,1,96.8412,38.38,3.6112,3.6112,0,0,1,93.2343,41.9873Zm0-6.8166a3.2094,3.2094,0,1,0,3.21,3.2094A3.2134,3.2134,0,0,0,93.2343,35.1707Z" style="fill: #e75f52"/>
      </g>
      <path d="M86.923,59.8363a.1986.1986,0,0,1-.132-.3472,49.4343,49.4343,0,0,0,10.9006-14.82.199.199,0,0,1,.3628.1637A49.87,49.87,0,0,1,87.055,59.7858.1964.1964,0,0,1,86.923,59.8363Z" style="fill: #e75f52"/>
      <g style="opacity: 0">
        <path d="M88.8114,61.7593l-3.7767-4.2437A47.2156,47.2156,0,0,0,95.2852,43.5805l5.1757,2.34A52.8326,52.8326,0,0,1,88.8114,61.7593Z"/>
      </g>
      <g>
        <circle cx="97.8731" cy="44.7506" r="1.4201" style="fill: #e75f52"/>
        <path d="M97.873,46.4549a1.7042,1.7042,0,1,1,1.7042-1.7042A1.706,1.706,0,0,1,97.873,46.4549Zm0-2.84a1.1361,1.1361,0,1,0,1.1361,1.1361A1.1374,1.1374,0,0,0,97.873,43.6146Z" style="fill: #e7e5f1"/>
      </g>
      <g style="opacity: 0">
        <path d="M97.873,48.3579a3.6072,3.6072,0,1,1,3.6069-3.6072A3.6112,3.6112,0,0,1,97.873,48.3579Zm0-6.8166a3.2095,3.2095,0,1,0,3.21,3.2094A3.2134,3.2134,0,0,0,97.873,41.5413Z" style="fill: #e75f52"/>
      </g>
      <path d="M115.9066,95.9835a.1986.1986,0,0,1-.1253-.3642,60.556,60.556,0,0,1,21.0026-8.169.1989.1989,0,0,1,.0637.3927,60.097,60.097,0,0,0-20.8484,8.1089A.2.2,0,0,1,115.9066,95.9835Z" style="fill: #e75f52"/>
      <g style="opacity: 0">
        <path d="M117.4479,98.161,114.3327,93.41a63.5036,63.5036,0,0,1,22.0261-8.5668l.9139,5.6065A58.0465,58.0465,0,0,0,117.4479,98.161Z"/>
      </g>
      <g>
        <circle cx="136.8158" cy="87.6466" r="1.4201" style="fill: #e75f52"/>
        <path d="M136.9562,89.3439a1.7029,1.7029,0,1,1,1.1841-.6246A1.6972,1.6972,0,0,1,136.9562,89.3439Zm-.2336-2.83-.0254.0024a1.136,1.136,0,0,0-.5966,2.0123,1.136,1.136,0,1,0,.622-2.0147Z" style="fill: #e7e5f1"/>
      </g>
      <g style="opacity: 0">
        <path d="M137.1126,91.24a3.6063,3.6063,0,1,1,1.9738-6.3961h0a3.6054,3.6054,0,0,1-1.9738,6.3961Zm-.5594-6.7917c-.0243.002-.0481.0042-.0723.0068a3.2091,3.2091,0,1,0,2.355.6979h0A3.1858,3.1858,0,0,0,136.5532,84.448Z" style="fill: #e75f52"/>
      </g>
      <path d="M120.8089,84.9346a.1987.1987,0,0,1-.1274-.363,62.8433,62.8433,0,0,1,21.6865-8.763.1989.1989,0,1,1,.0692.3917,62.3984,62.3984,0,0,0-21.5336,8.7008A.1973.1973,0,0,1,120.8089,84.9346Z" style="fill: #e75f52"/>
      <g style="opacity: 0">
        <path d="M122.3807,87.0909l-3.1763-4.709a65.7869,65.7869,0,0,1,22.705-9.1746l.9863,5.5944A60.3841,60.3841,0,0,0,122.3807,87.0909Z"/>
      </g>
      <g>
        <circle cx="142.4024" cy="76.0044" r="1.4201" style="fill: #e75f52"/>
        <path d="M142.5393,77.7037a1.7066,1.7066,0,1,1,.3285-.06h0A1.7259,1.7259,0,0,1,142.5393,77.7037Zm-.23-2.8315a1.1361,1.1361,0,1,0,.403,2.2252h0a1.136,1.136,0,0,0-.403-2.2252Z" style="fill: #e7e5f1"/>
      </g>
      <g style="opacity: 0">
        <path d="M142.6925,79.6011a3.6135,3.6135,0,1,1,.6942-.1265A3.6371,3.6371,0,0,1,142.6925,79.6011Zm-.5541-6.7955a3.21,3.21,0,1,0,3.3517,2.3229A3.2176,3.2176,0,0,0,142.1384,72.8056Z" style="fill: #e75f52"/>
      </g>
      <path d="M120.8089,84.9346a.199.199,0,0,1-.152-.3437,44.2939,44.2939,0,0,0,9.454-13.5025.1988.1988,0,0,1,.3658.1556,44.7468,44.7468,0,0,1-9.5485,13.6379A.2.2,0,0,1,120.8089,84.9346Z" style="fill: #e75f52"/>
      <g style="opacity: 0">
        <path d="M122.73,86.8135l-3.8741-4.1542a42.0027,42.0027,0,0,0,8.8238-12.6028l5.2291,2.2195A47.6943,47.6943,0,0,1,122.73,86.8135Z"/>
      </g>
      <g>
        <circle cx="130.2936" cy="71.1663" r="1.4201" style="fill: #e75f52"/>
        <path d="M130.4306,72.8655a1.7065,1.7065,0,1,1,.3285-.06A1.7432,1.7432,0,0,1,130.4306,72.8655Zm-.23-2.8316a1.1361,1.1361,0,1,0,.4029,2.2253h0a1.1361,1.1361,0,0,0-.4029-2.2253Z" style="fill: #e7e5f1"/>
      </g>
      <g style="opacity: 0">
        <path d="M130.5837,74.7629a3.6134,3.6134,0,1,1,.6943-.1265A3.6374,3.6374,0,0,1,130.5837,74.7629Zm-.5541-6.7955a3.21,3.21,0,1,0,3.3518,2.3229A3.2112,3.2112,0,0,0,130.03,67.9674Z" style="fill: #e75f52"/>
      </g>
      <path d="M120.8089,84.9346a.1987.1987,0,0,1-.2122-.1636,58.8408,58.8408,0,0,1,.7639-21.8868.1986.1986,0,1,1,.3854.0962,58.4044,58.4044,0,0,0-.7576,21.7214.1991.1991,0,0,1-.1613.23Z" style="fill: #e75f52"/>
      <g style="opacity: 0">
        <path d="M117.9956,85.23a61.7828,61.7828,0,0,1,.8017-22.9845l5.512,1.374a56.3184,56.3184,0,0,0-.72,20.6237Z"/>
      </g>
      <g>
        <circle cx="121.5531" cy="62.9324" r="1.4201" style="fill: #e75f52"/>
        <path d="M121.69,64.6315a1.7062,1.7062,0,1,1,.3284-.06A1.734,1.734,0,0,1,121.69,64.6315ZM121.46,61.8a1.1361,1.1361,0,1,0,.403,2.2252h0A1.136,1.136,0,0,0,121.46,61.8Z" style="fill: #e7e5f1"/>
      </g>
      <g style="opacity: 0">
        <path d="M121.8432,66.529a3.6134,3.6134,0,1,1,.6942-.1265A3.6364,3.6364,0,0,1,121.8432,66.529Zm-.5541-6.7955a3.21,3.21,0,1,0,3.3517,2.3232A3.2095,3.2095,0,0,0,121.2891,59.7335Z" style="fill: #e75f52"/>
      </g>
    </g>
  </g>
</svg>
