<svg id="Livello_1" data-name="Livello 1" xmlns="http://www.w3.org/2000/svg" viewBox="0 0 150 150">
  <g>
    <circle cx="75" cy="75" r="73.1497" style="fill: #e6e7e7"/>
    <g>
      <path d="M59.0455,146.2024a.4358.4358,0,0,1-.0687-.0056.4471.4471,0,0,1-.3742-.51c3.02-19.6532,1.4742-46.7759-3.76-65.9569a.4481.4481,0,1,1,.8645-.2361c5.2632,19.29,6.818,46.5648,3.78,66.3292A.4473.4473,0,0,1,59.0455,146.2024Z"/>
      <g>
        <path d="M59.0449,146.2024a.4478.4478,0,0,1-.3186-.7627c14.71-14.8753,30.1441-38.9335,37.5318-58.5062a.4532.4532,0,0,1,.5772-.2611.4484.4484,0,0,1,.2611.5772c-7.4277,19.6776-22.9445,43.8651-37.733,58.82A.4467.4467,0,0,1,59.0449,146.2024Z"/>
        <path d="M96.6766,87.5394a.4484.4484,0,0,1-.446-.416,103.0492,103.0492,0,0,1,5.2927-37.99.4478.4478,0,1,1,.842.3049A102.0536,102.0536,0,0,0,97.1239,87.06a.4477.4477,0,0,1-.4148.4785Z" style="fill: #e75f52"/>
        <g style="opacity: 0">
          <path d="M90.2971,87.5457a109.7094,109.7094,0,0,1,5.6337-40.44l12.0269,4.3613a96.9084,96.9084,0,0,0-4.9,35.1706Z"/>
        </g>
        <g>
          <circle cx="101.944" cy="49.2859" r="3.1982" style="fill: #e75f52"/>
          <path d="M101.9524,53.1246a3.9016,3.9016,0,0,1-.7721-.0775,3.8376,3.8376,0,1,1,4.525-2.9976h0a3.8412,3.8412,0,0,1-3.7529,3.0751Zm-.0087-6.3976a2.559,2.559,0,1,0,2.5073,3.0676h.0006a2.5619,2.5619,0,0,0-2.5079-3.0676Z" style="fill: #e7e5f1"/>
        </g>
        <g style="opacity: 0">
          <path d="M101.9468,57.41a8.1238,8.1238,0,1,1,7.958-6.5082h0A8.1371,8.1371,0,0,1,101.9468,57.41Zm-.0181-15.3544a7.2365,7.2365,0,1,0,1.4523.1461A7.3065,7.3065,0,0,0,101.9287,42.0559Z" style="fill: #e75f52"/>
        </g>
        <path d="M96.6773,87.5394a.4478.4478,0,0,1-.3142-.767c10.2017-10.0487,26.6892-20.5809,40.0947-25.6111a.4477.4477,0,1,1,.3148.8383C123.4714,66.9905,107.1132,77.44,96.9915,87.4108A.448.448,0,0,1,96.6773,87.5394Z" style="fill: #e75f52"/>
        <g style="opacity: 0">
          <path d="M101.166,91.6484l-8.9774-9.1136c10.732-10.5715,28.0765-21.6509,42.1792-26.9429l4.4949,11.977C126.4585,72.2238,110.605,82.3505,101.166,91.6484Z"/>
        </g>
        <g>
          <circle cx="136.6155" cy="61.5801" r="3.1982" style="fill: #e75f52"/>
          <path d="M136.624,65.4189a3.9061,3.9061,0,0,1-.7721-.0775,3.8241,3.8241,0,1,1,.7721.0775Zm-.015-6.3983a2.5731,2.5731,0,1,0,.5147.0525A2.57,2.57,0,0,0,136.609,59.0206Z" style="fill: #e7e5f1"/>
        </g>
        <g style="opacity: 0">
          <path d="M136.6327,69.7058A8.1972,8.1972,0,0,1,135,69.5409a8.0824,8.0824,0,1,1,1.6328.1649Zm-.02-15.3544a7.2284,7.2284,0,1,0,7.086,8.6663v-.0006a7.228,7.228,0,0,0-5.6455-8.5208A7.2922,7.2922,0,0,0,136.6127,54.3514Z" style="fill: #e75f52"/>
        </g>
      </g>
      <path d="M55.2739,80.0593a.45.45,0,0,1-.2574-.0818C42.6685,71.2874,28.6352,56.166,20.89,43.2052a.4477.4477,0,0,1,.7683-.46C29.3467,55.61,43.2757,70.62,55.5325,79.2454a.4479.4479,0,0,1-.2586.8139Z" style="fill: #e75f52"/>
      <g style="opacity: 0">
        <path d="M51.5935,84.8422c-12.9571-9.1186-27.6824-24.9858-35.81-38.5856l10.9813-6.5625c7.19,12.0313,20.7282,26.6193,32.1911,34.6866Z"/>
      </g>
      <g>
        <circle cx="21.2741" cy="42.9753" r="3.1982" style="fill: #e75f52"/>
        <path d="M21.2744,46.8132a3.8379,3.8379,0,1,1,3.8378-3.8379A3.8421,3.8421,0,0,1,21.2744,46.8132Zm0-6.3964a2.5586,2.5586,0,1,0,2.5586,2.5585A2.561,2.561,0,0,0,21.2744,40.4168Z" style="fill: #e7e5f1"/>
      </g>
      <g style="opacity: 0">
        <path d="M21.2744,51.0989a8.1236,8.1236,0,1,1,8.1235-8.1236A8.1327,8.1327,0,0,1,21.2744,51.0989Zm0-15.3513a7.2278,7.2278,0,1,0,7.2278,7.2277A7.2362,7.2362,0,0,0,21.2744,35.7476Z" style="fill: #e75f52"/>
      </g>
      <path d="M55.2739,80.0593a.4467.4467,0,0,1-.4385-.3617A107.1079,107.1079,0,0,0,39.2186,43.02a.448.448,0,0,1,.7334-.5147,108.1074,108.1074,0,0,1,15.7616,37.02.4471.4471,0,0,1-.3529.5254A.4163.4163,0,0,1,55.2739,80.0593Z" style="fill: #e75f52"/>
      <g style="opacity: 0">
        <path d="M48.9968,80.8389A102.0482,102.0482,0,0,0,34.35,46.4371l10.4716-7.3495C52.205,49.6091,59.0855,65.768,61.5522,78.384Z"/>
      </g>
      <g>
        <circle cx="39.5851" cy="42.7624" r="3.1982" style="fill: #e75f52"/>
        <path d="M39.5853,46.6a3.8379,3.8379,0,1,1,3.8378-3.8379A3.8421,3.8421,0,0,1,39.5853,46.6Zm0-6.3964a2.5586,2.5586,0,1,0,2.5585,2.5585A2.5611,2.5611,0,0,0,39.5853,40.2038Z" style="fill: #e7e5f1"/>
      </g>
      <g style="opacity: 0">
        <path d="M39.5853,50.8859a8.1236,8.1236,0,1,1,8.1235-8.1236A8.1327,8.1327,0,0,1,39.5853,50.8859Zm0-15.3513a7.2278,7.2278,0,1,0,7.2278,7.2277A7.2361,7.2361,0,0,0,39.5853,35.5346Z" style="fill: #e75f52"/>
      </g>
      <path d="M55.2751,80.0593a.4358.4358,0,0,1-.0687-.0056.4471.4471,0,0,1-.3741-.51C57.1528,64.4419,55.9647,43.6,51.942,28.86a.4481.4481,0,1,1,.8645-.2361c4.0515,14.8485,5.2483,35.8428,2.91,51.0554A.4475.4475,0,0,1,55.2751,80.0593Z" style="fill: #e75f52"/>
      <g style="opacity: 0">
        <path d="M61.5965,80.5828,48.9525,78.64c2.1725-14.1382,1.0163-34.4148-2.7491-48.2139l12.3418-3.3681C62.7927,42.6249,64.0477,64.6349,61.5965,80.5828Z"/>
      </g>
      <g>
        <circle cx="52.3743" cy="28.7422" r="3.1982" style="fill: #e75f52"/>
        <path d="M52.3743,32.58a3.8379,3.8379,0,1,1,3.8378-3.8378A3.842,3.842,0,0,1,52.3743,32.58Zm0-6.3964a2.5586,2.5586,0,1,0,2.5585,2.5586A2.5611,2.5611,0,0,0,52.3743,26.1836Z" style="fill: #e7e5f1"/>
      </g>
      <g style="opacity: 0">
        <path d="M52.3743,36.8657a8.1235,8.1235,0,1,1,8.1235-8.1235A8.1327,8.1327,0,0,1,52.3743,36.8657Zm0-15.3513a7.2278,7.2278,0,1,0,7.2278,7.2278A7.2361,7.2361,0,0,0,52.3743,21.5144Z" style="fill: #e75f52"/>
      </g>
      <path d="M55.2739,80.0593a.4479.4479,0,0,1-.3929-.6615C62.0344,66.2421,67.858,46.63,69.0417,31.7036a.448.448,0,1,1,.8932.0712c-1.1937,15.0371-7.06,34.7965-14.2669,48.05A.4478.4478,0,0,1,55.2739,80.0593Z" style="fill: #e75f52"/>
      <g style="opacity: 0">
        <path d="M60.8938,82.6672,49.6552,76.5557c6.69-12.3031,12.3492-31.3635,13.4567-45.3224l12.7528,1.0119C74.6129,48.025,68.4564,68.7588,60.8938,82.6672Z"/>
      </g>
      <g>
        <circle cx="69.4885" cy="31.7392" r="3.1982" style="fill: #e75f52"/>
        <path d="M69.4883,35.577a3.8378,3.8378,0,1,1,3.8378-3.8378A3.842,3.842,0,0,1,69.4883,35.577Zm0-6.3963a2.5586,2.5586,0,1,0,2.5586,2.5585A2.561,2.561,0,0,0,69.4883,29.1807Z" style="fill: #e7e5f1"/>
      </g>
      <g style="opacity: 0">
        <path d="M69.4883,39.8627a8.1235,8.1235,0,1,1,8.1235-8.1235A8.1327,8.1327,0,0,1,69.4883,39.8627Zm0-15.3513a7.2278,7.2278,0,1,0,7.2278,7.2278A7.2363,7.2363,0,0,0,69.4883,24.5114Z" style="fill: #e75f52"/>
      </g>
      <path d="M55.2745,80.0593a.448.448,0,0,1-.2979-.782,111.3347,111.3347,0,0,0,24.55-33.3755.4476.4476,0,0,1,.8158.3686,112.3136,112.3136,0,0,1-24.771,33.6752A.4433.4433,0,0,1,55.2745,80.0593Z" style="fill: #e75f52"/>
      <g style="opacity: 0">
        <path d="M59.5265,84.39l-8.504-9.5571c8.6214-7.6713,18.33-20.8694,23.0844-31.3828l11.6559,5.272C80.2716,60.8633,69.4827,75.5306,59.5265,84.39Z"/>
      </g>
      <g>
        <circle cx="79.9348" cy="46.086" r="3.1982" style="fill: #e75f52"/>
        <path d="M79.9349,49.9239a3.8378,3.8378,0,1,1,3.8378-3.8378A3.842,3.842,0,0,1,79.9349,49.9239Zm0-6.3964a2.5586,2.5586,0,1,0,2.5585,2.5586A2.5611,2.5611,0,0,0,79.9349,43.5275Z" style="fill: #e7e5f1"/>
      </g>
      <g style="opacity: 0">
        <path d="M79.9349,54.21a8.1235,8.1235,0,1,1,8.1235-8.1235A8.1327,8.1327,0,0,1,79.9349,54.21Zm0-15.3513a7.2278,7.2278,0,1,0,7.2278,7.2278A7.2362,7.2362,0,0,0,79.9349,38.8583Z" style="fill: #e75f52"/>
      </g>
    </g>
  </g>
</svg>
