<?xml version="1.0" encoding="UTF-8"?>
<svg width="500px" height="10px" viewBox="0 0 500 10" version="1.1" xmlns="http://www.w3.org/2000/svg" xmlns:xlink="http://www.w3.org/1999/xlink">
    <!-- Generator: Sketch 64 (93537) - https://sketch.com -->
    <title>51</title>
    <desc>Created with Sketch.</desc>
    <defs>
        <polygon id="path-1" points="0 0.907 5.093 0.907 5.093 5.9997 0 5.9997"></polygon>
        <polygon id="path-3" points="0.127 0.907 5.22 0.907 5.22 5.9997 0.127 5.9997"></polygon>
        <polygon id="path-5" points="0.2544 0.907 5.3474 0.907 5.3474 5.9997 0.2544 5.9997"></polygon>
        <polygon id="path-7" points="0.3813 0.907 5.4743 0.907 5.4743 5.9997 0.3813 5.9997"></polygon>
        <polygon id="path-9" points="0.5083 0.907 5.6013 0.907 5.6013 5.9997 0.5083 5.9997"></polygon>
        <polygon id="path-11" points="0.6357 0.907 5.7287 0.907 5.7287 5.9997 0.6357 5.9997"></polygon>
        <polygon id="path-13" points="0.7627 0.907 5.8557 0.907 5.8557 5.9997 0.7627 5.9997"></polygon>
        <polygon id="path-15" points="0.8901 0.907 5.9831 0.907 5.9831 5.9997 0.8901 5.9997"></polygon>
        <polygon id="path-17" points="0.0171 0.907 5.1101 0.907 5.1101 5.9997 0.0171 5.9997"></polygon>
        <polygon id="path-19" points="0.144 0.907 5.237 0.907 5.237 5.9997 0.144 5.9997"></polygon>
        <polygon id="path-21" points="0.2715 0.907 5.3645 0.907 5.3645 5.9997 0.2715 5.9997"></polygon>
        <polygon id="path-23" points="0.3984 0.907 5.4914 0.907 5.4914 5.9997 0.3984 5.9997"></polygon>
        <polygon id="path-25" points="0.5254 0.907 5.6184 0.907 5.6184 5.9997 0.5254 5.9997"></polygon>
        <polygon id="path-27" points="0.6528 0.907 5.7458 0.907 5.7458 5.9997 0.6528 5.9997"></polygon>
    </defs>
    <g id="51" stroke="none" stroke-width="1" fill="none" fill-rule="evenodd">
        <g id="Group-43" transform="translate(0.000000, 2.000000)">
            <g id="Group-3" transform="translate(0.000000, 0.093020)">
                <mask id="mask-2" fill="white">
                    <use xlink:href="#path-1"></use>
                </mask>
                <g id="Clip-2"></g>
                <path d="M0,3.4537 C0,2.0477 1.14,0.9067 2.546,0.9067 C3.953,0.9067 5.093,2.0477 5.093,3.4537 C5.093,4.8597 3.953,5.9997 2.546,5.9997 C1.14,5.9997 0,4.8597 0,3.4537" id="Fill-1" fill="#65BDB8" mask="url(#mask-2)"></path>
            </g>
            <g id="Group-6" transform="translate(7.000000, 0.093020)">
                <mask id="mask-4" fill="white">
                    <use xlink:href="#path-3"></use>
                </mask>
                <g id="Clip-5"></g>
                <path d="M0.127,3.4537 C0.127,2.0477 1.267,0.9067 2.674,0.9067 C4.08,0.9067 5.22,2.0477 5.22,3.4537 C5.22,4.8597 4.08,5.9997 2.674,5.9997 C1.267,5.9997 0.127,4.8597 0.127,3.4537" id="Fill-4" fill="#65BDB8" mask="url(#mask-4)"></path>
            </g>
            <g id="Group-9" transform="translate(14.000000, 0.093020)">
                <mask id="mask-6" fill="white">
                    <use xlink:href="#path-5"></use>
                </mask>
                <g id="Clip-8"></g>
                <path d="M0.2544,3.4537 C0.2544,2.0477 1.3944,0.9067 2.8004,0.9067 C4.2074,0.9067 5.3474,2.0477 5.3474,3.4537 C5.3474,4.8597 4.2074,5.9997 2.8004,5.9997 C1.3944,5.9997 0.2544,4.8597 0.2544,3.4537" id="Fill-7" fill="#65BDB8" mask="url(#mask-6)"></path>
            </g>
            <g id="Group-12" transform="translate(21.000000, 0.093020)">
                <mask id="mask-8" fill="white">
                    <use xlink:href="#path-7"></use>
                </mask>
                <g id="Clip-11"></g>
                <path d="M0.3813,3.4537 C0.3813,2.0477 1.5213,0.9067 2.9273,0.9067 C4.3343,0.9067 5.4743,2.0477 5.4743,3.4537 C5.4743,4.8597 4.3343,5.9997 2.9273,5.9997 C1.5213,5.9997 0.3813,4.8597 0.3813,3.4537" id="Fill-10" fill="#65BDB8" mask="url(#mask-8)"></path>
            </g>
            <g id="Group-15" transform="translate(28.000000, 0.093020)">
                <mask id="mask-10" fill="white">
                    <use xlink:href="#path-9"></use>
                </mask>
                <g id="Clip-14"></g>
                <path d="M0.5083,3.4537 C0.5083,2.0477 1.6483,0.9067 3.0553,0.9067 C4.4613,0.9067 5.6013,2.0477 5.6013,3.4537 C5.6013,4.8597 4.4613,5.9997 3.0553,5.9997 C1.6483,5.9997 0.5083,4.8597 0.5083,3.4537" id="Fill-13" fill="#65BDB8" mask="url(#mask-10)"></path>
            </g>
            <g id="Group-18" transform="translate(35.000000, 0.093020)">
                <mask id="mask-12" fill="white">
                    <use xlink:href="#path-11"></use>
                </mask>
                <g id="Clip-17"></g>
                <path d="M0.6357,3.4537 C0.6357,2.0477 1.7757,0.9067 3.1817,0.9067 C4.5887,0.9067 5.7287,2.0477 5.7287,3.4537 C5.7287,4.8597 4.5887,5.9997 3.1817,5.9997 C1.7757,5.9997 0.6357,4.8597 0.6357,3.4537" id="Fill-16" fill="#65BDB8" mask="url(#mask-12)"></path>
            </g>
            <g id="Group-21" transform="translate(42.000000, 0.093020)">
                <mask id="mask-14" fill="white">
                    <use xlink:href="#path-13"></use>
                </mask>
                <g id="Clip-20"></g>
                <path d="M0.7627,3.4537 C0.7627,2.0477 1.9027,0.9067 3.3087,0.9067 C4.7157,0.9067 5.8557,2.0477 5.8557,3.4537 C5.8557,4.8597 4.7157,5.9997 3.3087,5.9997 C1.9027,5.9997 0.7627,4.8597 0.7627,3.4537" id="Fill-19" fill="#65BDB8" mask="url(#mask-14)"></path>
            </g>
            <g id="Group-24" transform="translate(49.000000, 0.093020)">
                <mask id="mask-16" fill="white">
                    <use xlink:href="#path-15"></use>
                </mask>
                <g id="Clip-23"></g>
                <path d="M0.8901,3.4537 C0.8901,2.0477 2.0301,0.9067 3.4361,0.9067 C4.8431,0.9067 5.9831,2.0477 5.9831,3.4537 C5.9831,4.8597 4.8431,5.9997 3.4361,5.9997 C2.0301,5.9997 0.8901,4.8597 0.8901,3.4537" id="Fill-22" fill="#65BDB8" mask="url(#mask-16)"></path>
            </g>
            <g id="Group-27" transform="translate(57.000000, 0.093020)">
                <mask id="mask-18" fill="white">
                    <use xlink:href="#path-17"></use>
                </mask>
                <g id="Clip-26"></g>
                <path d="M0.0171,3.4537 C0.0171,2.0477 1.1571,0.9067 2.5631,0.9067 C3.9701,0.9067 5.1101,2.0477 5.1101,3.4537 C5.1101,4.8597 3.9701,5.9997 2.5631,5.9997 C1.1571,5.9997 0.0171,4.8597 0.0171,3.4537" id="Fill-25" fill="#65BDB8" mask="url(#mask-18)"></path>
            </g>
            <g id="Group-30" transform="translate(64.000000, 0.093020)">
                <mask id="mask-20" fill="white">
                    <use xlink:href="#path-19"></use>
                </mask>
                <g id="Clip-29"></g>
                <path d="M0.144,3.4537 C0.144,2.0477 1.284,0.9067 2.691,0.9067 C4.097,0.9067 5.237,2.0477 5.237,3.4537 C5.237,4.8597 4.097,5.9997 2.691,5.9997 C1.284,5.9997 0.144,4.8597 0.144,3.4537" id="Fill-28" fill="#65BDB8" mask="url(#mask-20)"></path>
            </g>
            <g id="Group-33" transform="translate(71.000000, 0.093020)">
                <mask id="mask-22" fill="white">
                    <use xlink:href="#path-21"></use>
                </mask>
                <g id="Clip-32"></g>
                <path d="M0.2715,3.4537 C0.2715,2.0477 1.4115,0.9067 2.8175,0.9067 C4.2245,0.9067 5.3645,2.0477 5.3645,3.4537 C5.3645,4.8597 4.2245,5.9997 2.8175,5.9997 C1.4115,5.9997 0.2715,4.8597 0.2715,3.4537" id="Fill-31" fill="#65BDB8" mask="url(#mask-22)"></path>
            </g>
            <g id="Group-36" transform="translate(78.000000, 0.093020)">
                <mask id="mask-24" fill="white">
                    <use xlink:href="#path-23"></use>
                </mask>
                <g id="Clip-35"></g>
                <path d="M0.3984,3.4537 C0.3984,2.0477 1.5384,0.9067 2.9444,0.9067 C4.3514,0.9067 5.4914,2.0477 5.4914,3.4537 C5.4914,4.8597 4.3514,5.9997 2.9444,5.9997 C1.5384,5.9997 0.3984,4.8597 0.3984,3.4537" id="Fill-34" fill="#65BDB8" mask="url(#mask-24)"></path>
            </g>
            <g id="Group-39" transform="translate(85.000000, 0.093020)">
                <mask id="mask-26" fill="white">
                    <use xlink:href="#path-25"></use>
                </mask>
                <g id="Clip-38"></g>
                <path d="M0.5254,3.4537 C0.5254,2.0477 1.6654,0.9067 3.0724,0.9067 C4.4784,0.9067 5.6184,2.0477 5.6184,3.4537 C5.6184,4.8597 4.4784,5.9997 3.0724,5.9997 C1.6654,5.9997 0.5254,4.8597 0.5254,3.4537" id="Fill-37" fill="#65BDB8" mask="url(#mask-26)"></path>
            </g>
            <g id="Group-42" transform="translate(92.000000, 0.093020)">
                <mask id="mask-28" fill="white">
                    <use xlink:href="#path-27"></use>
                </mask>
                <g id="Clip-41"></g>
                <path d="M0.6528,3.4537 C0.6528,2.0477 1.7928,0.9067 3.1988,0.9067 C4.6058,0.9067 5.7458,2.0477 5.7458,3.4537 C5.7458,4.8597 4.6058,5.9997 3.1988,5.9997 C1.7928,5.9997 0.6528,4.8597 0.6528,3.4537" id="Fill-40" fill="#65BDB8" mask="url(#mask-28)"></path>
            </g>
        </g>
    </g>
</svg>